<svg xmlns="http://www.w3.org/2000/svg" height="20" viewBox="0 -960 960 960" width="20"><path d="M480.276-76.782q-83.798 0-157.182-31.46-73.385-31.46-128.388-86.464-55.004-55.003-86.464-128.346t-31.46-157.406q0-84.064 31.46-156.948 31.46-72.885 86.464-127.888 55.003-55.004 128.346-86.464t157.406-31.46q84.064 0 156.948 31.46 72.885 31.46 127.888 86.464 55.004 55.003 86.464 128.112t31.46 156.906q0 83.798-31.46 157.182-31.46 73.385-86.464 128.388-55.003 55.004-128.112 86.464t-156.906 31.46ZM480-174.783q127.739 0 216.478-88.739T785.217-480q0-127.739-88.739-216.478T480-785.217q-127.739 0-216.478 88.739T174.783-480q0 127.739 88.739 216.478T480-174.783ZM480-480Zm88.522 192q16.982 0 28.469-11.59 11.488-11.589 11.488-28.721 0-16.893-11.488-28.53-11.487-11.638-28.469-11.638H432v-70.999h96q35.918 0 58.198-22.563 22.281-22.563 22.281-58.481v-70.999q0-35.918-22.281-58.198Q563.918-672 528-672H391.478q-16.982 0-28.469 11.43-11.488 11.43-11.488 28.326t11.65 28.81q11.65 11.913 28.872 11.913H528v70.999h-96q-35.918 0-58.198 22.563-22.281 22.563-22.281 58.481v102.477q0 20.388 14.307 34.694Q380.135-288 400.522-288h168Z"/></svg>