<svg xmlns="http://www.w3.org/2000/svg" height="20" viewBox="0 -960 960 960" width="20"><path d="M313.39-160.695q-102.304-39-167.195-125.913-64.891-86.913-64.891-195.218 0-18.691 12.787-32.15 12.788-13.459 31.691-13.459h47v-232.391q0-19.064 12.534-33.044 12.534-13.98 31.336-16.522l634.479-70.261q12.696-1 22.392 7.333 9.695 8.332 9.695 21.294 0 11.591-7.649 19.332-7.649 7.742-18.307 9.085l-417.349 46.42v97.971h414.783q12.36 0 20.441 8.082 8.081 8.081 8.081 20.44 0 12.36-8.081 20.441t-20.441 8.081H439.913v93.739h394.305q18.903 0 31.691 13.459 12.787 13.459 12.787 32.15 0 108.305-64.891 195.218-64.891 86.913-167.195 125.913v34.913q0 20.387-14.295 34.694-14.295 14.306-34.665 14.306H362.674q-20.37 0-34.827-14.306-14.457-14.307-14.457-34.694v-34.913Zm21.48-517.523h48v-90.565l-48 5v85.565Zm-105.044 0h48v-79.434l-48 5v74.434ZM334.87-527.435h48v-93.739h-48v93.739Zm-105.044 0h48v-93.739h-48v93.739Z"/></svg>