<svg xmlns="http://www.w3.org/2000/svg" height="24" viewBox="0 -960 960 960" width="24"><path d="M355.384-177.692q-83.384-28-147.077-86.731-63.692-58.731-81.384-143.27-2.308-12.384 5.346-22.346Q139.923-440 152.307-440H200v-300.923q0-11.923 8.077-21t20-10.308l592-65.308q8.616-1.23 14.269 4.308Q840-827.693 840-819.077q0 6.385-4.923 11.423-4.923 5.039-11.308 6.039l-406.846 44.384v84.154h405.385q7.615 0 12.654 5.038Q840-663 840-655.385q0 7.616-5.038 12.654-5.039 5.039-12.654 5.039H416.923V-440h390.77q12.384 0 20.423 9.961 8.038 9.962 5.73 22.346-17.692 85.308-81.769 144.424-64.077 59.115-149 85.577v25.385q0 13.923-9.192 23.115Q584.693-120 570.769-120H387.692q-13.923 0-23.115-9.192-9.193-9.192-9.193-23.115v-25.385Zm-29.23-495.385h55.384v-80.231L326.154-747v73.923Zm-90.769 0h55.384v-70l-55.384 5.538v64.462ZM326.154-440h55.384v-197.692h-55.384V-440Zm-90.769 0h55.384v-197.692h-55.384V-440Zm160 280h167.692v-45.538l22.308-7.693q70.23-20.923 124.923-69Q765-330.308 789.077-400H170.923q23.308 69.692 78 117.885 54.692 48.192 124.154 68.884l22.308 7.693V-160ZM480-400Z"/></svg>