<svg xmlns="http://www.w3.org/2000/svg" height="24" viewBox="0 -960 960 960" width="24"><path d="M297.39-138.695q-96.304-38-164.195-113.913-67.891-75.913-67.891-177.218 0-20.391 13.937-35 13.938-14.609 34.541-14.609h27v-287.391q0-20.218 13.391-35.044 13.392-14.826 33.479-17.522l673.479-75.261q15.696-2 26.892 8.301 11.195 10.302 11.195 26.326 0 12.591-9.13 22.221-9.131 9.631-21.826 11.196l-440.349 50.42v69.971h436.783q14.96 0 24.741 9.781 9.781 9.782 9.781 24.741 0 14.96-9.781 24.741-9.781 9.781-24.741 9.781H427.913v157.739h418.305q20.603 0 34.541 14.609 13.937 14.609 13.937 35 0 101.305-67.891 177.218-67.891 75.913-164.195 113.913v24.913q0 22.087-15.457 37.544-15.457 15.456-37.544 15.456H350.391q-22.087 0-37.544-15.456-15.457-15.457-15.457-37.544v-24.913Zm21.48-567.523h40v-61.565l-40 4v57.565Zm-109.044 0h40v-49.434l-40 4v45.434ZM318.87-479.435h40v-157.739h-40v157.739Zm-109.044 0h40v-157.739h-40v157.739Z"/></svg>