<svg xmlns="http://www.w3.org/2000/svg" height="20" viewBox="0 -960 960 960" width="20"><path d="M719.788-292Q700-292 687-305.212q-13-13.213-13-33Q674-358 687.212-371q13.213-13 33-13Q740-384 753-370.788q13 13.213 13 33Q766-318 752.788-305q-13.213 13-33 13ZM602-122v-33q0-34 38.5-47.5T720-216q41 0 79.5 13.5T838-155v33H602Zm44-334h-20v-216q0-62-42.5-104T480-818q-61 0-103.5 42T334-672v384q0 61 42.5 103.5T480-142v20q-68 0-117-49t-49-117v-384q0-68 49-117t117-49q68 0 117 49t49 117v216ZM480.212-582q27.313 0 46.551-19.45Q546-620.9 546-648.212q0-27.313-19.45-46.551Q507.1-714 479.788-714q-27.313 0-46.551 19.45Q414-675.1 414-647.788q0 27.313 19.45 46.551Q452.9-582 480.212-582ZM484-480Zm-70 168.212q0 27.313 19.45 46.551Q452.9-246 480.212-246q27.313 0 46.551-19.45Q546-284.9 546-312.212q0-27.313-19.45-46.551Q507.1-378 479.788-378q-27.313 0-46.551 19.45Q414-339.1 414-311.788ZM479.793-270Q462-270 450-282.318t-12-29.5Q438-329 450.207-341.5t30-12.5Q498-354 510-341.9t12 29.718Q522-295 509.793-282.5t-30 12.5Z"/></svg>