<svg xmlns="http://www.w3.org/2000/svg" height="20" viewBox="0 -960 960 960" width="20"><path d="M480-116q-71.219 0-121.609-50.337Q308-216.675 308-288.094v-384.187q0-71.419 50.343-121.569Q408.685-844 480.112-844t121.657 50.31Q652-743.38 652-672v216H480v76.699q-28.162 0-47.773 19.818-19.612 19.819-19.612 47.65 0 26.987 19.795 46.338 19.794 19.351 47.59 21.033V-116Zm116 0v-33q0-39.308 39.231-53.154Q674.461-216 720-216q45.539 0 84.769 13.846Q844-188.308 844-149v33H596Zm123.788-164q-22.096 0-36.942-15.058Q668-310.117 668-332.212q0-22.096 15.058-36.942Q698.117-384 720.212-384q22.096 0 36.942 15.059Q772-353.883 772-331.787q0 22.095-15.058 36.941Q741.883-280 719.788-280Zm-239.577 8.615q-16.749 0-28.788-11.828-12.038-11.827-12.038-28.576 0-16.749 11.828-28.788 11.827-12.038 28.576-12.038 16.749 0 28.788 11.828 12.038 11.827 12.038 28.576 0 16.749-11.828 28.788-11.827 12.038-28.576 12.038Zm.001-309.23q27.884 0 47.528-19.857 19.645-19.857 19.645-47.74 0-27.884-19.857-47.528-19.857-19.645-47.74-19.645-27.884 0-47.528 19.857-19.645 19.857-19.645 47.74 0 27.884 19.857 47.528 19.857 19.645 47.74 19.645Z"/></svg>