<svg xmlns="http://www.w3.org/2000/svg" height="24" viewBox="0 -960 960 960" width="24"><path d="M440-172v-28h80v28h-80Zm0-588v-28h80v28h-80Zm160 588v-28h80v28h-80Zm0-588v-28h80v28h-80Zm160 490v-80h28v80h-28Zm0-170v-80h28v80h-28Zm0-170v-80h28v80h-28ZM252-200v-560h-66q-5.95 0-9.975-4.035-4.025-4.035-4.025-10t4.025-9.965q4.025-4 9.975-4h160q5.95 0 9.975 4.035 4.025 4.035 4.025 10T355.975-764q-4.025 4-9.975 4h-66v560h66q5.95 0 9.975 4.035 4.025 4.035 4.025 10T355.975-176q-4.025 4-9.975 4H186q-5.95 0-9.975-4.035-4.025-4.035-4.025-10t4.025-9.965q4.025-4 9.975-4h66Zm508-560v-28q11.55 0 19.775 8.225Q788-771.55 788-760h-28Zm0 588v-28h28q0 12-8.225 20T760-172Z"/></svg>