<svg xmlns="http://www.w3.org/2000/svg" height="20" viewBox="0 -960 960 960" width="20"><path d="M292.522-451.478h80.479v-153.044h-80.479v153.044Zm146.956 168h81.044v-39.678q0-18.755-10.744-30.06-10.743-11.306-29.778-11.306-19.035 0-29.778 11.419-10.744 11.418-10.744 30.103v39.522Zm147.521-168h80.479v-153.044h-80.479v153.044ZM480.276-76.782q-83.798 0-157.182-31.46-73.385-31.46-128.388-86.464-55.004-55.003-86.464-128.346t-31.46-157.406q0-84.064 31.46-156.948 31.46-72.885 86.464-127.888 55.003-55.004 128.346-86.464t157.406-31.46q84.064 0 156.948 31.46 72.885 31.46 127.888 86.464 55.004 55.003 86.464 128.112t31.46 156.906q0 83.798-31.46 157.182-31.46 73.385-86.464 128.388-55.003 55.004-128.112 86.464t-156.906 31.46ZM480-174.783q127.739 0 216.478-88.739T785.217-480q0-127.739-88.739-216.478T480-785.217q-127.739 0-216.478 88.739T174.783-480q0 127.739 88.739 216.478T480-174.783ZM480-480Z"/></svg>