<svg xmlns="http://www.w3.org/2000/svg" height="20" viewBox="0 -960 960 960" width="20"><path d="m160-598 108-178q4-6 10.025-9t12-3Q296-788 302-785t10 9l108 178q5 6.692 5 13.885 0 7.192-4 13.115-3.696 5.75-8.848 9.375Q407-558 398-558H182q-9 0-14.152-3.625Q162.696-565.25 159-571q-4-5.923-4-13.115 0-7.193 5-13.885Zm131 429q-51 0-85-34t-34-85q0-51 34-85t85-34q51 0 85 34t34 85q0 51-34 85t-85 34Zm264-25.96v-185.757q0-11.033 7.463-18.658Q569.927-407 580.96-407h185.757q11.033 0 18.658 7.463Q793-392.073 793-381.04v185.757q0 11.033-7.463 18.658Q778.073-169 767.04-169H581.283q-11.033 0-18.658-7.463Q555-183.927 555-194.96ZM658-570l-27-21q-41-32-69.5-64.5T533-727.14q0-29.86 17.5-49.36t47.959-19.5q21.528 0 38.534 9.5Q654-777 674-753q20-23 38.5-33t38.676-10q28.442 0 46.133 20.86Q815-754.28 815-724q0 38-28 68.5T718-592l-28 22q-6.707 5-15.854 5Q665-565 658-570Z"/></svg>