<svg xmlns="http://www.w3.org/2000/svg" height="24" viewBox="0 -960 960 960" width="24"><path d="m80.216-597.088 142.739-256.088q7.696-14.391 19.805-20.804 12.109-6.413 26.5-6.413 14.392 0 26.501 6.413 12.109 6.413 19.804 20.804L457.74-597.088q7.261 13.392 6.478 27.066-.783 13.674-7.478 25.5-6.696 11.826-18.522 19.022-11.827 7.196-26.783 7.196H126.521q-14.957 0-26.783-7.196-11.827-7.196-18.522-19.022-6.696-11.826-7.479-25.5-.782-13.674 6.479-27.066Zm189.61 513.264q-74.479 0-126.849-52.087-52.37-52.088-52.37-126.566 0-74.479 52.37-126.849 52.37-52.37 126.849-52.37 74.478 0 126.565 52.37 52.088 52.37 52.088 126.849 0 74.478-52.088 126.566-52.087 52.087-126.565 52.087Zm254.696-53.001v-251.87q0-22.087 15.457-37.544 15.456-15.457 37.544-15.457h251.87q22.087 0 37.544 15.457 15.456 15.457 15.456 37.544v251.87q0 22.087-15.456 37.544-15.457 15.457-37.544 15.457h-251.87q-22.088 0-37.544-15.457-15.457-15.457-15.457-37.544Zm144.74-411.393-55.827-47.826q-77.478-65.913-103.196-103.653-25.717-37.739-25.717-82.131 0-53.478 35.174-87.587t90.088-34.109q28.13 0 52.761 12.783 24.63 12.782 41.195 35.348 16.566-22.566 41.479-35.348 24.913-12.783 53.043-12.783 54.914 0 89.805 34.109 34.892 34.109 34.892 87.587 0 44.392-25.718 82.131-25.717 37.74-103.196 103.653l-55.826 47.826q-14.957 13.392-34.479 13.392t-34.478-13.392Z"/></svg>