<svg xmlns="http://www.w3.org/2000/svg" height="20" viewBox="0 -960 960 960" width="20"><path d="m94.216-600.088 140.739-245.088q6.696-12.391 18.305-18.304 11.609-5.913 24-5.913 12.392 0 24.001 5.913 11.609 5.913 18.304 18.304L459.74-600.088q7.261 12.392 6.978 25.566-.283 13.174-6.978 24-6.696 10.826-17.022 17.522-10.327 6.696-25.129 6.696H136.367q-14.803 0-25.129-6.696-10.327-6.696-17.022-17.522-6.696-10.826-6.979-24-.282-13.174 6.979-25.566Zm183.61 492.264q-68.479 0-115.849-47.087-47.37-47.088-47.37-115.566 0-68.479 47.37-115.849 47.37-47.37 115.849-47.37 68.478 0 115.565 47.37 47.088 47.37 47.088 115.849 0 68.478-47.088 115.566-47.087 47.087-115.565 47.087Zm254.696-48.96v-227.628q0-20.37 14.295-34.827 14.295-14.457 34.665-14.457H809.11q20.37 0 34.827 14.295 14.456 14.295 14.456 34.666v227.627q0 20.37-14.295 34.827-14.295 14.457-34.665 14.457H581.805q-20.37 0-34.826-14.295-14.457-14.295-14.457-34.665Zm131.74-396.434-53.827-45.826q-71.478-60.913-94.196-94.153-22.717-33.239-22.717-74.77 0-50.339 31.674-82.948 31.674-32.609 84.047-32.609 26.671 0 48.302 10.783 21.63 10.782 38.195 33.348 16.566-22.566 38.979-33.348 22.413-10.783 48.719-10.783 51.738 0 83.129 32.371 31.392 32.37 31.392 83.325 0 41.392-22.218 73.631-22.217 32.24-93.696 94.153l-54.826 46.826q-13.615 11.392-31.308 11.392-17.693 0-31.649-11.392Z"/></svg>