<svg xmlns="http://www.w3.org/2000/svg" height="20" viewBox="0 -960 960 960" width="20"><path d="m69-614 149-259q8.429-14.762 22.071-21.881Q253.714-902 269-902q15.286 0 28.929 7.119Q311.571-887.762 320-873l148 259q9 15 8.5 31t-8.357 28.966q-7.857 12.965-20.5 21Q435-525 417.154-525H119.846q-17.846 0-30.489-8.034-12.643-8.035-20.5-21Q61-567 60.5-583q-.5-16 8.5-31ZM270-80q-74.025 0-126.012-51.969Q92-183.938 92-256.916 92-331 143.982-383q51.983-52 126-52Q344-435 395.5-383.018q51.5 51.983 51.5 126Q447-183 395.306-131.5T270-80Zm.177-118Q295-198 312-215.394q17-17.393 17-41.818 0-24.838-17.394-42.313Q294.213-317 269.788-317q-24.838 0-42.313 17.677T210-256.823Q210-232 227.677-215t42.5 17ZM223-643h92l-46-81-46 81Zm313 504.04v-236.757Q536-400 553.338-417.5 570.677-435 594.96-435h236.757Q856-435 873.5-417.662 891-400.323 891-376.04v236.757Q891-115 873.662-97.5 856.323-80 832.04-80H595.283Q571-80 553.5-97.338 536-114.677 536-138.96ZM654-198h119v-119H654v119Zm22-360-56-48q-78-67-100.5-103.5T497-790.14Q497-847 531.5-882t92.959-35q27.641 0 49.969 11.032Q696.756-894.936 714-872q17.422-22.936 40.511-33.968Q777.6-917 805.176-917 863-917 897-882.238q34 34.761 34 92.238 0 44-22 79.5T809-607l-57 49q-16.659 14-37.829 14Q693-544 676-558Zm38-127q59-50 79-67t20-29q0-5.621-4.786-10.81-4.785-5.19-9.953-5.19-5.502 0-9.882 3-4.379 3-8.379 6l-66 55-64-55q-5-3-10.207-6-5.207-3-9.793-3-5.429 0-10.214 5.19Q615-786.621 615-781q0 13 21 30.5t78 65.5Zm0-60Zm-444 68Zm1 417Zm441 0Z"/></svg>