<svg xmlns="http://www.w3.org/2000/svg" height="24" viewBox="0 -960 960 960" width="24"><path d="m146-595 110-189q5-8 11.525-11.5t14.5-3.5q7.975 0 14.475 3.5T308-784l110 189q5 7.692 4.5 15.385-.5 7.692-4.5 14.615-3.696 6.75-10.348 10.875Q401-550 391.846-550H172.154q-9.154 0-15.806-4.125Q149.696-558.25 146-565q-4-6.923-4.5-14.615-.5-7.693 4.5-15.385Zm137 450q-57 0-96-39t-39-95.571Q148-337 187-376t96-39q57 0 96 39t39 96q0 57-39 96t-96 39Zm0-28q45 0 76-31t31-76q0-45-31-76t-76-31q-45 0-76 31t-31 76q0 45 31 76t76 31ZM169-578h227L282-773 169-578Zm378 403v-210q0-12.75 8.625-21.375T577-415h210q12.75 0 21.375 8.625T817-385v210q0 12.75-8.625 21.375T787-145H577q-12.75 0-21.375-8.625T547-175Zm28 2h214v-214H575v214Zm88-392-29-23q-47-37-78.5-74T524-741q0-33 21-54t54-21q22.987 0 42.993 11.5Q662-793 682-769q20-23 41-35t43-12q31.618 0 52.809 22.598T840-738q0 41-31.5 77T730-588l-29 23q-8.049 7-19.024 7Q671-558 663-565Zm19-21q69-52 99.5-88t30.5-65q0-21-13.5-35T765-788q-13.793 0-26.897 8.5Q725-771 701-747l-19 19-19-19q-25-25-37.5-33t-26.5-8q-21 0-34 12.5T552-741q0 31 30.5 67t99.5 88Zm0-101Zm-399 11Zm0 396Zm399 0Z"/></svg>