<svg xmlns="http://www.w3.org/2000/svg" height="20" viewBox="0 -960 960 960" width="20"><path d="M480-62q-124.314 0-211.157-86.843Q182-235.686 182-360q0-97 55.5-174.5T385-641v-199q0-19.2 13.5-33.1Q412-887 432-887h96q19.2 0 33.1 13.9Q575-859.2 575-840v199q91 29 147 106.5T778-360q0 124.314-86.814 211.157Q604.371-62 480-62Zm.226-118Q555-180 607.5-232.746q52.5-52.745 52.5-127.48Q660-435 607.266-487.5T479.746-540Q405-540 352.5-487.266T300-359.746Q300-285 352.746-232.5q52.745 52.5 127.48 52.5Z"/></svg>