<svg xmlns="http://www.w3.org/2000/svg" height="20" viewBox="0 -960 960 960" width="20"><path d="M244-495q0-22.139 15.275-37.57Q274.55-548 296-548h20v-64q0-21.45 15.291-36.725Q346.583-664 368.055-664h224.222q21.473 0 36.598 15.275T644-612v64h20q21.75 0 36.875 15.275T716-496v86q0 8.444-6.778 15.222Q702.444-388 693.756-388L672-293q-.889.231-.611.615.278.385-.389.385h2q-.667 0-.389-.385.278-.384-.611-.615l-22-95H310l-22 95q-.889.231-.611.615.278.385-.389.385h2q-.667 0-.389-.385.278-.384-.611-.615l-21.756-95q-8.688 0-15.466-6.778Q244-401.556 244-410v-85Zm246-53h134v-64q0-14-9-23t-23-9H490v96Zm-154 0h134v-96H368q-14 0-23 9t-9 23v64Z"/></svg>