<svg xmlns="http://www.w3.org/2000/svg" height="24" viewBox="0 -960 960 960" width="24"><path d="M200-455.616q0-26.846 18.884-45.615Q237.769-520 264.615-520H280v-95.385q0-26.846 18.884-45.731Q317.769-680 344.615-680h270.77q26.846 0 45.731 18.884Q680-642.231 680-615.385V-520h15.385q26.846 0 45.731 18.884Q760-482.231 760-455.385V-354q0 13.769-10.115 23.885Q739.769-320 726-320l-13.538 71.616q-1.231 3.692-3.923 6.038-2.693 2.346-6.385 2.346h-4.308q-3.692 0-6.385-2.346-2.692-2.346-3.923-6.038L674-320H286l-13.538 71.616q-1.231 3.692-3.923 6.038-2.693 2.346-6.385 2.346h-4.308q-3.692 0-6.385-2.346-2.692-2.346-3.923-6.038L234-320q-13.769 0-23.885-10.115Q200-340.231 200-354v-101.616ZM500-520h140v-95.385q0-10.769-6.923-17.692T615.385-640H500v120Zm-180 0h140v-120H344.615q-10.769 0-17.692 6.923T320-615.385V-520Zm-80 160h480v-95.385q0-10.769-6.923-17.692T695.385-480h-430.77q-10.769 0-17.692 6.923T240-455.385V-360Zm480 0H240h480Z"/></svg>