<svg xmlns="http://www.w3.org/2000/svg" height="20" viewBox="0 -960 960 960" width="20"><path d="M232-502.616q0-23.922 16.534-40.653Q265.069-560 288.615-560H304v-71.385q0-23.546 16.551-40.081Q337.102-688 360.671-688h238.991q23.569 0 39.954 16.534Q656-654.931 656-631.385V-560h15.385q23.846 0 40.231 16.534Q728-526.931 728-503.385V-404q0 11.214-8.393 19.607Q711.214-376 700-376l-24.538 93.616q-1.231.692-1.423 1.538-.193.846-1.885.846h-.308q-1.692 0-1.885-.846-.192-.846-1.423-1.538L644-376H316l-24.538 93.616q-1.231.692-1.423 1.538-.193.846-1.885.846h-.308q-1.692 0-1.885-.846-.192-.846-1.423-1.538L260-376q-11.214 0-19.607-8.393Q232-392.786 232-404v-98.616ZM496-560h128v-71.385q0-10.769-6.923-17.692T599.385-656H496v96Zm-160 0h128v-96H360.615q-10.769 0-17.692 6.923T336-631.385V-560Zm-72 152h432v-95.385q0-10.769-6.923-17.692T671.385-528h-382.77q-10.769 0-17.692 6.923T264-503.385V-408Zm432 0H264h432Z"/></svg>