<svg xmlns="http://www.w3.org/2000/svg" height="24" viewBox="0 -960 960 960" width="24"><path d="m164.539-479.769 169.615 169.615q5.615 5.615 6 13.769.385 8.154-6 14.539T320-275.461q-7.769 0-14.154-6.385L130.308-457.385q-5.231-5.23-7.347-10.692-2.115-5.461-2.115-11.923t2.115-11.923q2.116-5.462 7.347-10.692l175.538-175.539q5.846-5.846 13.885-6.231 8.038-.384 14.654 6.231Q341-671.539 341-663.885t-6.615 14.27L164.539-479.769Zm630.922-.462L625.846-649.846q-5.615-5.615-6-13.769-.385-8.154 6-14.539T640-684.539q7.769 0 14.154 6.385l175.538 175.539q5.231 5.23 7.347 10.692 2.115 5.461 2.115 11.923t-2.115 11.923q-2.116 5.462-7.347 10.692L654.154-281.846q-5.846 5.846-13.769 6.115-7.924.27-14.539-6.346-6.615-6.615-6.615-14.269t6.615-14.269l169.615-169.616Z"/></svg>