<svg xmlns="http://www.w3.org/2000/svg" height="20" viewBox="0 -960 960 960" width="20"><path d="M263.717-96Q234-96 213-117.15T192-168v-624q0-29.7 21.162-50.85Q234.324-864 264.04-864h432.243Q726-864 747-842.85T768-792v624q0 29.7-21.162 50.85Q725.676-96 695.96-96H263.717ZM456-288l-52-68q-5.273-8-14.5-8t-14.5 8l-66 88q-7 9.032-1.625 18.516Q312.75-240 324-240h312q10.957 0 15.978-9.5Q657-259 650-268l-90-120q-5.438-8-14.5-8-9.062 0-14.5 8l-75 100Zm-24-504v283q0 10.957 8.5 15.978Q449-488 458-493l53-26q8.065-5 16.532-5Q536-524 544-519l53 26q9 5 18-.022 9-5.021 9-15.978v-283H432Z"/></svg>