<svg xmlns="http://www.w3.org/2000/svg" height="20" viewBox="0 -960 960 960" width="20"><path d="M288.332-136Q264-136 248-152.15t-16-40.465v-574.77q0-24.315 16.162-40.465Q264.324-824 288.656-824h383.012Q696-824 712-807.85t16 40.465v574.77q0 24.315-16.162 40.465Q695.676-136 671.344-136H288.332Zm173.822-150.462-54.308-64.153q-4.503-5.693-11.038-5.308-6.535.384-11.039 6.077l-51.385 67.231q-6.23 7.494-2.009 15.054Q336.596-260 346.308-260h274.307q8.649 0 12.517-7.577 3.868-7.577-1.593-14.269l-73.077-96.923q-4.669-6.462-11.424-6.462-6.754 0-11.423 6.462l-73.461 92.307ZM472-792v254.539q0 8.649 6.577 12.901 6.577 4.253 13.269.022l43-19.846q6.526-4.231 12.686-4.231t12.622 4.231l43 19.846q6.692 4.231 13.769-.022Q624-528.812 624-537.461V-792H472Z"/></svg>