<svg xmlns="http://www.w3.org/2000/svg" height="20" viewBox="0 -960 960 960" width="20"><path d="M275.717-62Q226-62 192-96.15T158-180v-600q0-49.7 34.162-83.85Q226.324-898 276.04-898h408.243Q734-898 768-863.85T802-780v600q0 49.7-34.162 83.85Q733.676-62 683.96-62H275.717ZM276-180h408v-600h-57v263q0 16.957-15 25.478Q597-483 582-491l-24-8q-13.065-8-28.532-8Q514-507 501-499l-24 8q-15 8-28.5-.522Q435-500.043 435-517v-263H276v600Zm180-108-43-55q-9.438-13-24-13t-24 13l-43 57q-10 15-2.5 30.5T346-240h267q17.5 0 25.25-15.5T636-286l-67-89q-9.438-13-24-13t-24 13l-65 87ZM276-180v-600 600Zm159-334v-3q0 16.957 13.5 25.478Q462-483 477-491l24-8q13.065-8 28.532-8Q545-507 558-499l24 8q15 8 30-.522 15-8.521 15-25.478v3q0 17.957-15 26.478Q597-479 582-487l-24-8q-13.065-8-28.532-8Q514-503 501-495l-24 8q-15 8-28.5-.522Q435-496.043 435-514Z"/></svg>