<svg xmlns="http://www.w3.org/2000/svg" height="20" viewBox="0 -960 960 960" width="20"><path d="M479.788-268q-8.338 0-14.063-5.937Q460-279.875 460-288.212q0-8.338 5.937-14.063Q471.875-308 480.212-308q8.338 0 14.063 5.937Q500-296.125 500-287.788q0 8.338-5.937 14.063Q488.125-268 479.788-268Zm0-192q-8.338 0-14.063-5.937Q460-471.875 460-480.212q0-8.338 5.937-14.063Q471.875-500 480.212-500q8.338 0 14.063 5.937Q500-488.125 500-479.788q0 8.338-5.937 14.063Q488.125-460 479.788-460Zm0-192q-8.338 0-14.063-5.937Q460-663.875 460-672.212q0-8.338 5.937-14.063Q471.875-692 480.212-692q8.338 0 14.063 5.937Q500-680.125 500-671.788q0 8.338-5.937 14.063Q488.125-652 479.788-652Z"/></svg>