<svg xmlns="http://www.w3.org/2000/svg" height="20" viewBox="0 -960 960 960" width="20"><path d="M331.784-233.782q-41.005 0-69.504-28.498-28.498-28.499-28.498-69.504v-466.434q0-41.005 28.498-69.503 28.499-28.498 69.504-28.498h466.434q41.005 0 69.503 28.498 28.498 28.498 28.498 69.503v466.434q0 41.005-28.498 69.504-28.498 28.498-69.503 28.498H331.784ZM161.782-63.781q-41.005 0-69.503-28.498-28.498-28.498-28.498-69.503v-515.435q0-20.387 14.246-34.694 14.246-14.307 34.544-14.307 20.298 0 34.755 14.307 14.456 14.307 14.456 34.694v515.435h515.435q20.387 0 34.694 14.246 14.307 14.246 14.307 34.544 0 20.298-14.307 34.754-14.307 14.457-34.694 14.457H161.782Zm380.914-463.307q0 13.392 11.892 21.153 11.891 7.761 24.283.5l37.608-16.826q10.326-5.696 21.967-5.696 11.642 0 22.468 5.696l37.608 16.826q12.391 7.261 24.283-.5 11.891-7.761 11.891-21.153v-271.13h-192v271.13Z"/></svg>