<svg xmlns="http://www.w3.org/2000/svg" height="20" viewBox="0 -960 960 960" width="20"><path d="M464-392v104q0 6.839 4.52 11.419Q473.04-272 479.789-272q6.75 0 11.48-4.581Q496-281.161 496-288v-104h104q6.839 0 11.419-4.52Q616-401.04 616-407.789q0-6.75-4.581-11.48Q606.839-424 600-424H496v-104q0-6.839-4.52-11.419Q486.96-544 480.211-544q-6.75 0-11.48 4.581Q464-534.839 464-528v104H360q-6.839 0-11.419 4.52Q344-414.96 344-408.211q0 6.75 4.581 11.48Q353.161-392 360-392h104ZM192.615-136q-24.315 0-40.465-16.15Q136-168.3 136-192.615v-430.77q0-24.315 16.15-40.465Q168.3-680 192.615-680H376v-47.597Q376-752 392.176-768q16.175-16 40.527-16h94.945Q552-784 568-767.85q16 16.15 16 40.465V-680h183.385q24.315 0 40.465 16.15Q824-647.7 824-623.385v430.77q0 24.315-16.15 40.465Q791.7-136 767.385-136h-574.77Zm0-32h574.77q9.23 0 16.923-7.692Q792-183.385 792-192.615v-430.77q0-9.23-7.692-16.923Q776.615-648 767.385-648h-574.77q-9.23 0-16.923 7.692Q168-632.615 168-623.385v430.77q0 9.23 7.692 16.923Q183.385-168 192.615-168ZM408-680h144v-47.385q0-9.231-7.692-16.923Q536.615-752 527.385-752h-94.77q-9.23 0-16.923 7.692Q408-736.616 408-727.385V-680ZM168-168v-480 480Z"/></svg>