<svg xmlns="http://www.w3.org/2000/svg" height="20" viewBox="0 -960 960 960" width="20"><path d="M298.174-586.174h105.13q-3.87-8.258-5.805-17.433-1.934-9.175-1.934-20.371 0-3.583-.566-6.855-.565-3.273.305-6.993h-97.13v51.652Zm336.696 19.478q65.043 0 103.173-13.696 38.13-13.696 38.13-43.891 0-30.194-38.13-43.608-38.13-13.413-103.173-13.413-65.044 0-103.174 13.413-38.13 13.414-38.13 43.608 0 30.195 38.13 43.891 38.13 13.696 103.174 13.696ZM85.826-181.826v-404.348h120v-144h248.087q34.13-25.566 82.058-37.348 47.928-11.783 98.899-11.783 89.286 0 164.295 38.174Q874.174-702.957 874.174-624v442.174h-232v-211.348h-92.348v211.348h-62.652v-211.348h-92.348v211.348h-61.652v-211.348h-92.348v211.348h-155Z"/></svg>