<svg xmlns="http://www.w3.org/2000/svg" height="24" viewBox="0 -960 960 960" width="24"><path d="M448-735h-80q-17 0-28.5-11.5T328-775q0-17 11.5-28.5T368-815h80v-80q0-17 11.5-28.5T488-935q17 0 28.5 11.5T528-895v80h80q17 0 28.5 11.5T648-775q0 17-11.5 28.5T608-735h-80v80q0 17-11.5 28.5T488-615q-17 0-28.5-11.5T448-655v-80ZM280-65q-33 0-56.5-23.5T200-145q0-33 23.5-56.5T280-225q33 0 56.5 23.5T360-145q0 33-23.5 56.5T280-65Zm400 0q-33 0-56.5-23.5T600-145q0-33 23.5-56.5T680-225q33 0 56.5 23.5T760-145q0 33-23.5 56.5T680-65ZM111-785H80q-23.375 0-39.188-15.812Q25-816.625 25-840t15.813-39.188Q56.624-895 80-895h61q18 0 33.6 9.391Q190.2-876.217 198-859l145 308h276l132-236q8-13 21-20.5t28.246-7.5q31.877 0 47.815 27Q864-761 848-733L713-490q-13 23-34.949 36.5Q656.102-440 630-440H341l-35 65h414q23.375 0 39.188 15.812Q775-343.375 775-320t-15.812 39.188Q743.375-265 720-265H280q-55 0-82.5-46.5T196-406l51-90-136-289Z"/></svg>