<svg xmlns="http://www.w3.org/2000/svg" height="24" viewBox="0 -960 960 960" width="24"><path d="M365.37-332.174 480-418.087l112.87 85.913-42.957-139.348 114.391-89.913H525.196L480-700.544l-45.196 139.109H295.935l112.152 89.913-42.717 139.348ZM480-71.63q-142.532-35.672-235.331-162.562-92.8-126.89-92.8-281.808v-249.61L480-888.37l328.131 122.76V-516q0 154.918-92.8 281.808Q622.532-107.302 480-71.63Zm0-95q102.326-34.435 169.728-132 67.402-97.566 67.402-217.259v-186.959L480-791.652l-237.13 88.92V-516q0 119.804 67.402 217.37 67.402 97.565 169.728 132Zm0-312.892Z"/></svg>