<svg xmlns="http://www.w3.org/2000/svg" height="24" viewBox="0 -960 960 960" width="24"><path d="M480-859.218q94.783 0 186.066 32.826 91.282 32.826 168.065 88.522 18.261 14.261 27.957 34.087 9.696 19.826 9.696 41.218 0 13.826-4.066 27.304-4.065 13.479-12.195 26.174L568.479-178.304q-15.956 23.652-39.609 35.761-23.652 12.109-48.87 12.109-25.218 0-48.87-12.109-23.653-12.109-39.609-35.761L104.477-609.087q-8.13-12.695-11.978-25.956-3.848-13.261-3.848-26.522 0-21.392 9.696-41.501 9.696-20.108 27.957-34.369 76.783-55.261 167.848-88.522Q385.217-859.218 480-859.218ZM373.217-553.782q27.261 0 45.609-18.631 18.348-18.63 18.348-45.891t-18.348-45.892q-18.348-18.63-45.609-18.63-27.261 0-45.891 18.63-18.631 18.631-18.631 45.892 0 27.261 18.631 45.891 18.63 18.631 45.891 18.631ZM480-364.522q27.261 0 45.891-18.348 18.631-18.348 18.631-45.609 0-27.261-18.631-45.891-18.63-18.631-45.891-18.631t-45.891 18.631q-18.631 18.63-18.631 45.891t18.631 45.609q18.63 18.348 45.891 18.348Z"/></svg>