<svg xmlns="http://www.w3.org/2000/svg" height="20" viewBox="0 -960 960 960" width="20"><path d="M479.776-764q69.291 0 140.757 18.5Q692-727 750-689q11 8.375 17 19.656 6 11.282 6 24.723 0 7.688-2 14.43T765-617L523-255q-7.744 11.5-19.36 17.25-11.617 5.75-23.75 5.75t-23.637-5.5Q444.75-243 437-255L195-617q-4.385-6.25-6.692-13.5Q186-637.75 186-645.621q0-13.16 6-24.176 6-11.015 17-19.203 58-39 129.584-57 71.585-18 141.192-18Zm-.692 20Q410-744 346-725.5T222-672q-8 5-11.5 12t-3.5 15q0 5 1 9.5t4 8.5l241 361q5 7 12 10.5t15 3.5q8 0 15-3.5t12-10.5l241-362q3-4 4-8t1-9q0-8-3.5-15T738-672q-60-35-124.5-53.5T479.084-744ZM349.882-582q9.118 0 15.618-6.382 6.5-6.383 6.5-15.5 0-9.118-6.382-15.618-6.383-6.5-15.5-6.5-9.118 0-15.618 6.382-6.5 6.383-6.5 15.5 0 9.118 6.382 15.618 6.383 6.5 15.5 6.5Zm130 172q9.118 0 15.618-6.382 6.5-6.383 6.5-15.5 0-9.118-6.382-15.618-6.383-6.5-15.5-6.5-9.118 0-15.618 6.382-6.5 6.383-6.5 15.5 0 9.118 6.382 15.618 6.383 6.5 15.5 6.5ZM480-252Z"/></svg>