<svg xmlns="http://www.w3.org/2000/svg" height="20" viewBox="0 -960 960 960" width="20"><path d="M479.828-776q72.931 0 148.205 20.231 75.275 20.23 135.583 61.23 11.692 8.981 18.038 21.121Q788-661.279 788-646.928q0 8.364-2.23 15.814-2.231 7.45-6.693 14.576L526.923-239.077q-8.436 12.539-21.091 18.808Q493.177-214 479.918-214q-13.259 0-25.829-6.077t-21.012-19L180.923-616.538q-4.758-6.885-7.225-14.77-2.468-7.884-2.468-16.39 0-14.134 6.347-26.069 6.346-11.935 18.038-20.772 60.308-41.769 135.636-61.615Q406.58-776 479.828-776Zm-.645 32q-71.722 0-136.645 19.885-64.923 19.884-127 56.038-6.153 3.846-8.846 9.231Q204-653.462 204-647.308q0 3.846.769 7.308.769 3.461 3.077 6.538l251.385 376.693q3.846 5.385 9.231 8.077Q473.846-246 480-246t11.538-2.692q5.385-2.692 9.231-8.077l251.385-377.462q2.308-3.077 3.077-6.154.769-3.077.769-6.923 0-6.154-2.692-11.538-2.693-5.385-8.846-9.231-62.077-36.154-127.385-56.038Q551.769-744 479.183-744ZM357.756-575.077q11.629 0 19.86-8.14 8.23-8.14 8.23-19.769 0-11.629-8.14-19.86t-19.769-8.231q-11.629 0-19.86 8.14-8.231 8.141-8.231 19.77t8.141 19.859q8.14 8.231 19.769 8.231ZM479.91-404q11.629 0 19.859-8.14Q508-420.28 508-431.91q0-11.629-8.14-19.859Q491.72-460 480.09-460q-11.629 0-19.859 8.14Q452-443.72 452-432.09q0 11.629 8.14 19.859Q468.28-404 479.91-404Zm.09 158Z"/></svg>