<svg xmlns="http://www.w3.org/2000/svg" height="20" viewBox="0 -960 960 960" width="20"><path d="M480-850q97.067 0 185.533 31Q754-788 834-734q18 15 28.5 35.231t10.5 43.148q0 15.621-4 28.812T857-601L578-183q-17.744 26-44.077 39.5-26.332 13.5-54.128 13.5-27.795 0-53.92-13.5T382-183L103-601q-8-12-12.5-25.882-4.5-13.883-4.5-28.386Q86-679 96.5-699.5T125-735q80-55 168.809-85Q382.617-850 480-850Zm-.97 118Q401-732 340-709.5T212-649l268 402 268-402q-67-37-128.5-60t-140.47-23ZM372-541q24 0 39.5-16t15.5-40q0-24-15.5-40T372-653q-24 0-40 16t-16 40q0 24 16 40t40 16Zm108 149q24 0 40-15.5t16-39.5q0-24-16-40t-40-16q-24 0-40 16t-16 40q0 24 16 39.5t40 15.5Zm0 145Z"/></svg>