<svg xmlns="http://www.w3.org/2000/svg" height="20" viewBox="0 -960 960 960" width="20"><path d="M480-28.782q-93.597 0-175.828-35.433-82.232-35.433-143.378-96.579-61.146-61.146-96.58-143.378Q28.783-386.403 28.783-480h98.001q0 136.782 90.913 236.456 90.913 99.674 224.695 112.935l-89.174-89.174 60.609-60.609L636.828-58.391q-15.218 7.522-57.566 18.566Q536.913-28.782 480-28.782ZM508.522-384v-192h128.479l24 24v144l-24 24H508.522Zm-201.044 0v-52.522H408V-460h-56.479v-40H408v-23.478H307.478V-576h153.044v192H307.478Zm253.001-52.522h48v-86.956h-48v86.956ZM833.217-480q0-136.782-90.913-236.456-90.913-99.674-224.695-112.935l89.174 89.174-60.609 60.609-223.002-222.001q15.218-8.087 57.566-18.848 42.349-10.761 99.262-10.761 93.597 0 175.828 35.433 82.232 35.433 143.378 96.579 61.146 61.146 96.579 143.378Q931.218-573.597 931.218-480h-98.001Z"/></svg>