<svg xmlns="http://www.w3.org/2000/svg" height="24" viewBox="0 -960 960 960" width="24"><path d="M480-100.001q-78.85 0-148.199-29.925-69.35-29.925-120.65-81.225-51.3-51.3-81.225-120.65Q100.001-401.15 100.001-480H160q0 120 78.077 209.539 78.078 89.539 196.847 106.769L374.616-224l42.153-42.153 153.537 153.537q-22.077 6.922-44.845 9.768-22.769 2.847-45.461 2.847Zm26.154-266.153v-227.692h120l35.385 35.385v156.922l-35.385 35.385h-120Zm-207.693 0v-47.692h107.693v-48.462h-67.693v-35.384h67.693v-48.462H298.461v-47.692h155.385v227.692H298.461Zm255.385-47.692h60.001v-132.308h-60.001v132.308ZM800-480q0-120-78.077-209.539-78.078-89.539-196.847-106.769L585.384-736l-42.153 42.153-153.537-153.537q22.077-6.922 44.845-9.768 22.769-2.847 45.461-2.847 78.85 0 148.199 29.925 69.35 29.925 120.65 81.225 51.3 51.3 81.225 120.65Q859.999-558.85 859.999-480H800Z"/></svg>