<svg xmlns="http://www.w3.org/2000/svg" height="20" viewBox="0 -960 960 960" width="20"><path d="m474-394.769-83.077-83.077L666-751.924l83.077 82.078L474-394.769Zm0-45.077 230-230-38-38-230 230 38 38Zm55.846 224.308 32-32h307.539v32H529.846Zm-288.462.769q-24.902 0-47.682-6.5-22.779-6.5-43.549-20.346l187.231-187.001 105.078 105.847-45.77 51.077Q368.077-242.307 331-228.538q-37.077 13.769-76.616 13.769h-13Zm0-32h12q34 0 65-12.5t55-36.5l25-26-61-62-130.461 130.462q6.692 2.769 15.959 4.653 9.266 1.885 18.502 1.885ZM704-669.846l-38-38 38 38ZM337.384-383.769Z"/></svg>