<svg xmlns="http://www.w3.org/2000/svg" height="20" viewBox="0 -960 960 960" width="20"><path d="M488.999-379.386 377.463-490.922l303.536-302.536 111.536 110.536-303.536 303.536Zm0-73.536 230-230-38-38-230 230 38 38Zm3.927 273.15 51.998-51.998h321.769v51.998H492.926Zm-264.233.385q-33.95 0-65.089-11.5-31.14-11.499-56.524-33.422l217.613-216.998L458.23-307.386l-60.384 64.538Q366.539-211.156 326-195.272q-40.538 15.885-84.307 15.885h-13Zm0-51.999h12q34 0 65-12.5t55-36.5l25-26-61-62-131.23 131.231q7.846 2.385 16.979 4.077 9.133 1.692 18.251 1.692Zm490.306-451.536-38-38 38 38ZM324.693-368.386Z"/></svg>