<svg xmlns="http://www.w3.org/2000/svg" height="24" viewBox="0 -960 960 960" width="24"><path d="M838.087-131v-640H121.913v327.413h-91V-862h898.174v731h-91ZM358.804-398.565q-69.587 0-118.739-49.272t-49.152-118.859q0-69.587 49.152-118.739t118.739-49.152q69.587 0 118.859 49.152 49.272 49.152 49.272 118.739t-49.272 118.859q-49.272 49.272-118.859 49.272Zm0-91q31.817 0 54.474-22.655 22.657-22.655 22.657-54.467 0-31.813-22.655-54.357-22.654-22.543-54.467-22.543T304.457-621q-22.544 22.587-22.544 54.304 0 31.816 22.587 54.474 22.587 22.657 54.304 22.657ZM30.913-62.304v-120.609q0-36.234 18.576-66.606 18.576-30.372 49.728-46.329 62.718-31.239 127.664-46.978 64.947-15.739 131.923-15.739 67.435 0 132.511 15.619 65.076 15.62 127.315 46.859 31.153 15.957 49.729 46.25 18.576 30.294 18.576 66.911v120.622H30.913Zm91-91h474.022v-28.413q0-10.768-5.5-19.578-5.5-8.81-14.5-13.705-52.565-26.043-106.848-39.304-54.283-13.261-110.283-13.261-55.596 0-110.2 13.261Q194-241.043 141.913-215q-9 4.895-14.5 13.705t-5.5 19.578v28.413Zm236.891-413.392Zm0 413.392Z"/></svg>