<svg xmlns="http://www.w3.org/2000/svg" height="24" viewBox="0 -960 960 960" width="24"><path d="M832-166v-640H128v351H2v-477h956v766H832ZM355-394q-81 0-137-56.5T162-588q0-81 56-137t137-56q81 0 137.5 56T549-588q0 81-56.5 137.5T355-394Zm0-126q28.05 0 48.025-19.965 19.975-19.964 19.975-48Q423-616 403.035-635.5q-19.964-19.5-48-19.5Q327-655 307.5-635.319 288-615.638 288-588q0 28.05 19.681 48.025Q327.362-520 355-520ZM2-6v-148q0-43.341 22-79.67Q46-270 84-289q65-32 132.959-48.5T355-354q72 0 140.5 16T627-290q38 19 60 55t22 80.945V-6H2Zm126-126h455v-17q0-10.029-5.5-18.235T563-180q-48-23-100-35.5T355-228q-54.313 0-107.657 12.5Q194-203 148-180q-9 4.559-14.5 12.765T128-149v17Zm227-456Zm0 456Z"/></svg>