<svg xmlns="http://www.w3.org/2000/svg" height="24" viewBox="0 -960 960 960" width="24"><path d="M840-176.923V-780H120v320H80v-360h800v643.077h-40ZM360-424.615q-49.5 0-84.75-35.25T240-544.615q0-49.501 35.25-84.751 35.25-35.25 84.75-35.25t84.75 35.25Q480-594.116 480-544.615q0 49.5-35.25 84.75T360-424.615ZM80-135.384v-65.847Q80-226 94.423-247.577q14.423-21.577 38.808-33.5 56.615-27.154 113.307-40.731Q303.231-335.385 360-335.385q56.769 0 113.462 13.577 56.692 13.577 113.307 40.731 24.385 11.923 38.808 33.5Q640-226 640-201.231v65.847H80Z"/></svg>