<svg xmlns="http://www.w3.org/2000/svg" height="20" viewBox="0 -960 960 960" width="20"><path d="M840-144v-600H120v360H48v-432h864v672h-72ZM336-384q-60 0-102-42t-42-102q0-60 42-102t102-42q60 0 102 42t42 102q0 60-42 102t-102 42Zm.212-72Q366-456 387-477.212q21-21.213 21-51Q408-558 386.788-579q-21.213-21-51-21Q306-600 285-578.788q-21 21.213-21 51Q264-498 285.212-477q21.213 21 51 21ZM48-96v-92q0-26 12.5-47T95-270q54-33 115.691-49.5Q272.381-336 336-336q64 0 124.5 16.5T577-270q22 13 34.5 34.61T624-188v92H48Zm72-72h432v-24q0-5.176-3.025-9.412Q545.95-205.647 541-208q-48-27-99.5-41.5T336-264q-54 0-106 14.5T131-208q-5 3-8 7.034-3 4.035-3 8.966v24Zm216-360Zm0 360Z"/></svg>