<svg xmlns="http://www.w3.org/2000/svg" height="20" viewBox="0 -960 960 960" width="20"><path d="M840-200.923V-764H120v360H88v-392h784v595.077h-32ZM336-408.615q-43.5 0-73.75-30.25T232-512.615q0-43.501 30.25-73.751 30.25-30.25 73.75-30.25t73.75 30.25Q440-556.116 440-512.615q0 43.5-30.25 73.75T336-408.615ZM88-151.384v-45.847q0-16.769 9.423-30.846 9.423-14.077 26.808-25 48.615-29.154 102.807-43.731Q281.231-311.385 336-311.385q54.769 0 107.962 14.577 53.192 14.577 103.807 43.731 17.385 9.923 26.808 24.5Q584-214 584-197.231v45.847H88Z"/></svg>