<svg xmlns="http://www.w3.org/2000/svg" height="20" viewBox="0 -960 960 960" width="20"><path d="M832-190v-600H128v391H10v-509h940v718H832ZM331-378q-75 0-126-51.5T154-556q0-75 51-126t126-51q75 0 126.5 51T509-556q0 75-51.5 126.5T331-378Zm.212-118q24.838 0 42.313-17.677t17.475-42.5Q391-581 373.323-598t-42.5-17Q306-615 289-597.606q-17 17.393-17 41.818 0 24.838 17.394 42.313Q306.787-496 331.212-496ZM10-22v-128q0-35.341 17-64.17Q44-243 75-261q57-34 122.649-51.5Q263.299-330 331-330q70 0 135 17t122 51q31 17 48 46.11t17 65.835V-22H10Zm118-118h407v-9q0-4.206-3.025-7.647T524-162q-42-23-90.5-36.5T331-212q-52.313 0-102.657 13.5Q178-185 139-162q-5 2.559-8 5.799-3 3.241-3 7.201v9Zm203-416Zm0 416Z"/></svg>