<svg xmlns="http://www.w3.org/2000/svg" height="20" viewBox="0 -960 960 960" width="20"><path d="M788.306-480Zm-373.152-21.692q-13.241 0-22.197-9.894Q384-521.48 384-534.846v-131.999q0-13.365 8.957-23.259 8.956-9.895 22.197-9.895h349.691q13.24 0 22.197 9.895 8.957 9.894 8.957 23.259v131.999q0 13.366-8.957 23.26-8.957 9.894-22.197 9.894H415.154Zm228.691 241.691q-13.665 0-22.909-9.245-9.245-9.244-9.245-22.909v-132.999q0-13.366 9.245-23.26 9.244-9.894 22.909-9.894h121q13.24 0 22.197 9.894 8.957 9.894 8.957 23.26v132.999q0 13.665-8.957 22.909-8.957 9.245-22.197 9.245h-121Zm-228.691 0q-13.241 0-22.197-9.245Q384-278.49 384-292.155v-132.999q0-13.366 8.957-23.26 8.956-9.894 22.197-9.894h121q13.665 0 22.909 9.894t9.244 23.26v132.999q0 13.665-9.244 22.909-9.244 9.245-22.909 9.245h-121Zm-218.999 0q-13.665 0-22.909-9.245-9.245-9.244-9.245-22.909v-374.69q0-13.365 9.245-23.259 9.244-9.895 22.909-9.895h112.307q13.665 0 22.91 9.895 9.244 9.894 9.244 23.259v374.69q0 13.665-9.244 22.909-9.245 9.245-22.91 9.245H196.155Z"/></svg>