<svg xmlns="http://www.w3.org/2000/svg" height="24" viewBox="0 -960 960 960" width="24"><path d="M100.782-286.783v-386.434q0-43.726 31.138-74.863 31.137-31.138 74.863-31.138h546.434q43.726 0 74.863 31.138 31.138 31.137 31.138 74.863v386.434q0 43.726-31.138 74.863-31.137 31.138-74.863 31.138H206.783q-43.726 0-74.863-31.138-31.138-31.137-31.138-74.863ZM413-673.217V-520h340.217v-153.217H413ZM753.217-440H623.609v153.217h129.608V-440ZM413-440v153.217h130.609V-440H413ZM206.783-286.783H333v-386.434H206.783v386.434Z"/></svg>