<svg xmlns="http://www.w3.org/2000/svg" height="20" viewBox="0 -960 960 960" width="20"><path d="M713 6v-108H605v-98h108v-108h98v108h108v98H811V6h-98ZM323.789-294Q339-294 349.5-304.289q10.5-10.29 10.5-25.5Q360-345 349.711-355.5q-10.29-10.5-25.5-10.5Q309-366 298.5-355.711q-10.5 10.29-10.5 25.5Q288-315 298.289-304.5q10.29 10.5 25.5 10.5Zm0-150Q339-444 349.5-454.289q10.5-10.29 10.5-25.5Q360-495 349.711-505.5q-10.29-10.5-25.5-10.5Q309-516 298.5-505.711q-10.5 10.29-10.5 25.5Q288-465 298.289-454.5q10.29 10.5 25.5 10.5Zm0-150Q339-594 349.5-604.289q10.5-10.29 10.5-25.5Q360-645 349.711-655.5q-10.29-10.5-25.5-10.5Q309-666 298.5-655.711q-10.5 10.29-10.5 25.5Q288-615 298.289-604.5q10.29 10.5 25.5 10.5ZM432-444h240v-72H432v72Zm0-150h240v-72H432v72ZM110-110v-740h740v461q-24.534-9-50.536-12.5Q773.462-405 747-403q-33.441 2-64.221 11.5Q652-382 624-366H432v72h118q-11 15.068-18.5 31.534T517-228q-9 30-10 59.5t5 58.5H110Z"/></svg>