<svg xmlns="http://www.w3.org/2000/svg" height="24" viewBox="0 -960 960 960" width="24"><path d="M686.935-147.087h-120v-86.217h120v-120h86.217v120h120v86.217h-120v120h-86.217v-120ZM202.87-202.87v-554.26 554.26Zm-91.001 91.001v-736.262h736.262v446.392q-20.631-11.717-43.62-18.717-22.989-7-47.381-9.566V-757.13H202.87v554.26h285.5q-1.674 23.631.848 46.381 2.521 22.75 10 44.62H111.869ZM320-281.435q17 0 28.5-11.5t11.5-28.5q0-17-11.5-28.5t-28.5-11.5q-17 0-28.5 11.5t-11.5 28.5q0 17 11.5 28.5t28.5 11.5ZM320-440q17 0 28.5-11.5T360-480q0-17-11.5-28.5T320-520q-17 0-28.5 11.5T280-480q0 17 11.5 28.5T320-440Zm0-158.565q17 0 28.5-11.5t11.5-28.5q0-17-11.5-28.5t-28.5-11.5q-17 0-28.5 11.5t-11.5 28.5q0 17 11.5 28.5t28.5 11.5ZM440-440h240v-80H440v80Zm0-158.565h240v-80H440v80Zm0 317.13h65.957q9.435-23.239 22.989-43.239 13.554-20 31.228-36.761H440v80Z"/></svg>