<svg xmlns="http://www.w3.org/2000/svg" height="20" viewBox="0 -960 960 960" width="20"><path d="M700.392-17.477v-108h-108v-86.696h108v-108h86.697v108h108v86.696h-108v108h-86.697ZM323.789-291.39q15.211 0 25.711-10.29 10.5-10.289 10.5-25.5 0-15.21-10.289-25.71-10.29-10.5-25.5-10.5-15.211 0-25.711 10.289-10.5 10.289-10.5 25.5t10.289 25.711q10.29 10.5 25.5 10.5Zm0-152.609Q339-444 349.5-454.289q10.5-10.29 10.5-25.5Q360-495 349.711-505.5q-10.29-10.5-25.5-10.5Q309-516 298.5-505.711q-10.5 10.29-10.5 25.5Q288-465 298.289-454.5q10.29 10.5 25.5 10.5Zm0-152.609q15.211 0 25.711-10.289 10.5-10.289 10.5-25.5t-10.289-25.711q-10.29-10.5-25.5-10.5-15.211 0-25.711 10.29-10.5 10.289-10.5 25.5 0 15.21 10.289 25.71 10.29 10.5 25.5 10.5ZM432-444h240v-72H432v72Zm0-152.609h240v-72H432v72ZM124.782-124.782v-710.436h710.436v436.653q-23.867-9.869-49.115-13.804-25.249-3.935-51.276-2.804-40.832 1.13-77.263 14.761-36.431 13.63-66.171 37.021H432v72h96.262q-9.695 15.937-15.674 33.055-5.978 17.118-10.804 35.553-5.957 24.783-6.088 49.283-.13 24.501 5 48.718H124.782Z"/></svg>