<svg xmlns="http://www.w3.org/2000/svg" height="24" viewBox="0 -960 960 960" width="24"><path d="M696.392-129.477h-120v-94.696h120v-120h94.697v120h120v94.696h-120v120h-94.697v-120Zm-489.609-77.306v-546.434 546.434ZM100.782-100.782v-758.436h758.436v464.653q-24.217-12.695-51.283-19.695-27.065-7-54.718-7.609v-331.348H206.783v546.434h293.001q-3.957 27.218-2.088 53.718 1.87 26.5 10 52.283H100.782ZM320-283.391q17 0 28.5-11.5t11.5-28.5q0-17-11.5-28.5t-28.5-11.5q-17 0-28.5 11.5t-11.5 28.5q0 17 11.5 28.5t28.5 11.5ZM320-440q17 0 28.5-11.5T360-480q0-17-11.5-28.5T320-520q-17 0-28.5 11.5T280-480q0 17 11.5 28.5T320-440Zm0-156.609q17 0 28.5-11.5t11.5-28.5q0-17-11.5-28.5t-28.5-11.5q-17 0-28.5 11.5t-11.5 28.5q0 17 11.5 28.5t28.5 11.5ZM440-440h240v-80H440v80Zm0-156.609h240v-80H440v80Zm0 313.218h82.262q11.392-23.566 27.066-43.566 15.674-20 35.631-36.434H440v80Z"/></svg>