<svg xmlns="http://www.w3.org/2000/svg" height="20" viewBox="0 -960 960 960" width="20"><path d="M732-156.252h-72q-15.3 0-25.65-10.374Q624-177 624-192.234t10.35-25.539q10.35-10.305 25.65-10.305h72v-71.688Q732-315 742.289-325.5q10.29-10.5 25.5-10.5 15.211 0 25.585 10.35T803.748-300v72h72.168q15.336 0 25.71 10.35T912-192q0 15.3-10.374 25.65Q891.252-156 875.916-156h-72.168v72q0 15.3-10.374 25.65Q783-48 768-48q-15.3 0-25.65-10.374Q732-68.748 732-84.084v-72.168ZM480-432Zm85 3 37 65q-8.696 8.909-16.848 18.455Q577-336 570-325l-18-32q-5-9-16-9t-16.389 8.936L428-198q-7 11 .5 18.5T446-170q21.356 3 42.178 2.5Q509-168 530-172q1.688 17.966 5.344 35.483Q539-119 546-102q-16 3-32.5 4.5T480-96q-69.819 0-130.794-26.477-60.976-26.478-106.591-72Q197-240 170.5-301 144-362 144-432t26.507-130.92q26.507-60.919 72.08-106.493 45.574-45.573 106.493-72.08Q410-768 480-768q58 0 112 19t99 55l49-49q11-11 25.667-11 14.666 0 25.333 11 11 11 11 25.5T791-692l-49 49q38 47 56.5 102T816-426q-18-4-36.5-5t-36.5 1v-9q0-6.8-5.1-11.9-5.1-5.1-11.9-5.1H579.595Q569-456 564.5-447t.5 18ZM396-816q-15 0-25.5-10.289-10.5-10.29-10.5-25.5Q360-867 370.35-877.5 380.7-888 396-888h168q15.3 0 25.65 10.289 10.35 10.29 10.35 25.5Q600-837 589.65-826.5 579.3-816 564-816H396Zm129 312h182.96q9.865 0 15.453-7.556Q729-519.111 725-528q-16-41-48.5-78.5T604.667-664q-6.258-3-12.962-1Q585-663 581-657l-72 126q-5 9 0 18t16 9Zm-83.716-2.936L532-666q5-8.333.5-16.667Q528-691 519-693q-43-8-91.5 2T342-657q-6 4-7.5 11t2.5 13l72 126q5 9 16 9t16.284-8.936ZM380.448-408q10.552 0 15.052-9t-.833-17.984L304-594q-5-8-14.5-9t-15.5 6q-29 34-44.5 80.5T216-425q.833 7.556 5.417 12.278Q226-408 233.674-408h146.774ZM451-333q5-9 0-18t-16-9H252q-9 0-14.5 7.5t-2.071 16.607Q250-294 283-257t72.333 57q6.258 3 12.962 1Q375-201 379-207l72-126Z"/></svg>