<svg xmlns="http://www.w3.org/2000/svg" height="20" viewBox="0 -960 960 960" width="20"><path d="M732-208.252h-78q-4.3 0-7.15-2.874Q644-214 644-218.234t2.85-7.039q2.85-2.805 7.15-2.805h78v-77.688q0-4.234 2.789-7.234 2.79-3 7-3 4.211 0 7.085 2.85 2.874 2.85 2.874 7.15v78h78.168q4.336 0 7.21 2.85Q840-222.3 840-218q0 4.3-2.874 7.15-2.874 2.85-7.21 2.85h-78.168v78q0 4.3-2.874 7.15Q746-120 742-120q-4.3 0-7.15-2.874-2.85-2.874-2.85-7.21v-78.168ZM479-432Zm68-5 32 58q-5.696 6.909-11.848 13.955Q561-358 555-350l-15-28q-4-7-12-7t-11.389 6.936L411-195q-9 15 4.5 18t20.5 5q22.356 4 43.178 4.5Q500-167 520-171q.688 4.966.344 9.483T521-150q-10 1-20 1.5t-21 .5q-58.819 0-110.294-21.977-51.476-21.978-90.091-60.5Q241-269 218.5-320.5 196-372 196-432t22.007-111.42q22.007-51.419 60.58-89.993 38.574-38.573 89.993-60.58Q420-716 480-716q58 0 105 19t90 55l61-61q4-4 7.667-4 3.666 0 7.333 3 4 5 4 8.5t-4 7.5l-63 61q35 41 54 83t22 95q-5-1-10 1t-11 3v1q0-4.8-3.6-8.4-3.6-3.6-8.4-3.6H557.595Q549-456 546-449.5t1 12.5ZM370-816q-3 0-6.5-2.789-3.5-2.79-3.5-7 0-3.211 2.85-6.711 2.85-3.5 7.15-3.5h220q3.3 0 6.65 3.289 3.35 3.29 3.35 6.5 0 4.211-3.35 7.211t-6.65 3H370Zm138 324h211.96q6.865 0 10.453-5.056Q734-502.111 732-509q-18-51-50.5-91.5T599.667-666q-4.258-2-8.962-.5Q586-665 583-661l-86 149q-4 7-1 13.5t12 6.5Zm-64.716 5.064L549-670q4-6.333.5-12.167Q546-688 540-690q-50-14-104.5-3.5T338-654q-5 2-5.5 7.5t2.5 9.5l84 150q4 7 12 7t12.284-6.936ZM401.448-408q8.552 0 11.052-6t-1.833-12.984L308-611q-4-6-11-7t-11 4q-38 38-55 89t-14 104q.833 5.556 3.917 9.278Q224-408 229.674-408h171.774ZM461-353q4-7 1-13t-12-6H240q-6 0-10 5t-2.571 12.107Q243-303 277-263t82.333 65q4.258 2 9.462.5Q374-199 377-203l84-150Z"/></svg>