<svg xmlns="http://www.w3.org/2000/svg" height="20" viewBox="0 -960 960 960" width="20"><path d="M725.217-137.033h-62.391q-20.387 0-34.694-14.331-14.306-14.331-14.306-34.652t14.306-34.583q14.307-14.262 34.694-14.262h62.391v-62.079q0-20.321 14.246-34.778 14.246-14.456 34.544-14.456 20.298 0 34.629 14.306 14.331 14.307 14.331 34.694v62.391h62.558q20.423 0 34.754 14.307 14.331 14.306 14.331 34.694 0 20.387-14.331 34.694-14.331 14.306-34.754 14.306h-62.558v62.391q0 20.387-14.331 34.694-14.331 14.307-34.418 14.307-20.387 0-34.694-14.331-14.307-14.33-14.307-34.754v-62.558ZM478.87-421.826Zm93.478 8.653 23.434 40.694q-8.695 8.909-16.565 18.172-7.869 9.263-15.435 20.263L550.304-357q-2.739-5.609-9.782-5.609t-10.171 5.545l-97.264 168.673q-6.435 8.739.5 14.261 6.935 5.521 14.674 6.956 17.399 2.435 34.265 2.218 16.865-.218 34.473-3.653 2.253 25.88 8.736 49.897 6.482 24.018 19.135 46.67-15.435 3-31.653 4.217Q497-66.607 480-66.607q-73.776 0-138.143-27.89-64.366-27.891-112.525-76.24-48.159-48.349-76.355-112.74-28.195-64.392-28.195-138.349 0-73.956 27.92-138.267 27.92-64.311 76.319-112.428 48.4-48.117 112.711-76.038 64.311-27.92 138.268-27.92 61.391 0 114.826 18.152 53.435 18.153 100.696 53.022l47.869-47.869q14.392-14.392 32.45-14.392 18.058 0 31.551 13.826 13.826 13.827 13.826 31.718 0 17.892-13.826 31.718l-49 48.434q36.304 44.174 55.37 95.783 19.065 51.608 21.456 110.478-24.217-8.522-49.5-9.522t-50.631 2.696v2.305q-3.957-4.539-10.188-7.096-6.23-2.556-13.03-2.556H592.596q-14.552 0-20.748 12.391-6.196 12.392.5 24.218ZM382.999-824.479q-16.695 0-28.609-11.702-11.913-11.703-11.913-28.609 0-16.906 11.763-28.819 11.764-11.914 28.759-11.914h194.002q16.995 0 28.759 11.703 11.763 11.703 11.763 28.609 0 16.906-11.763 28.819-11.764 11.913-28.759 11.913H382.999Zm149.914 326.697h164.872q9.866 0 15.736-7.556 5.87-7.555 1.305-17.01-17.131-37.608-45.957-71.151-28.826-33.544-68.724-54.109-8.519-4.13-16.919-1-8.4 3.131-12.966 10.826l-58.434 103.391q-6.696 12.391-.282 24.5 6.413 12.109 21.369 12.109Zm-91.063-8.589 79.41-139.845q5.566-9.464.5-18.928-5.065-9.464-15.195-11.464-41.87-5.739-85.848 5.109-43.978 10.848-77.021 32.587-7.131 4.565-8.348 12.696-1.218 8.13 3.348 14.695l59.564 105.086q6.696 12.392 21.653 12.392 14.957 0 21.937-12.328Zm-74.968 112.502q14.509 0 20.422-12.109t-1.116-24.484L306.261-571.39q-5.565-9.131-15.913-10.131-10.348-1-16.348 7.131-27.304 32.869-39.978 75.413-12.674 42.543-11.239 84.717 1.399 9.251 6.83 14.821t14.801 5.57h122.468Zm80.727 84.609q6.695-12.391.282-24.5t-21.37-12.109H262.74q-9.566 0-15.348 8.348-5.783 8.348-1.789 18.02 16.267 39.632 45.876 71.828 29.608 32.195 67.811 52.195 7.953 4.13 16.071 1.283 8.118-2.848 12.683-9.979l59.565-105.086Z"/></svg>