<svg xmlns="http://www.w3.org/2000/svg" height="24" viewBox="0 -960 960 960" width="24"><path d="M720-200h-84.615q-8.539 0-14.27-5.731-5.73-5.73-5.73-14.269 0-8.538 5.73-14.269 5.731-5.731 14.27-5.731H720v-84.615q0-8.539 5.731-14.27 5.731-5.73 14.269-5.73 8.539 0 14.269 5.73 5.731 5.731 5.731 14.27V-240h84.616q8.538 0 14.269 5.731T864.616-220q0 8.539-5.731 14.269Q853.154-200 844.616-200H760v84.616q0 8.538-5.731 14.269-5.73 5.73-14.269 5.73-8.538 0-14.269-5.73Q720-106.846 720-115.384V-200ZM479.231-440Zm73.923-15.154 34.154 59.616q-5.693 5.461-11.654 11.038-5.962 5.577-11.192 11.269l-6.693-12.923q-5.23-8.461-14.423-8.461-9.192 0-13.654 8.461L416.923-189.692q-6.538 12.077 2.077 18.115 8.615 6.039 17.308 8.039 20.769 3.769 40.269 4.038 19.5.269 37.731-1.731 2.231 10 5.654 19.5t7.807 18.808q-12.384 1.462-23.884 2.192-11.5.731-23.885.731-66.539 0-124.731-25.038-58.192-25.039-101.808-68.654-43.615-43.616-68.538-101.808Q160-373.692 160-440q0-66.308 25.038-124.5 25.039-58.192 68.654-101.808 43.616-43.615 101.808-68.654Q413.692-760 480-760q63 0 114.615 21 51.616 21 97.077 59l39.231-39.231q5.616-5.615 13.654-5.615 8.039 0 14.654 5.846 5.615 6.384 5.615 14.423 0 8.038-5.615 13.654l-38.769 39.231q35.692 45.384 56.577 95.384 20.884 50 21.961 111.616-10-2.693-20.615-4.385-10.616-1.692-22.385-2.461v-12.308q0-6.462-4.846-11.308T739.846-480H567.077q-9.462 0-14.308 8.077t.385 16.769ZM379-840q-7.769 0-13.385-5.731Q360-851.462 360-860q0-7.769 5.731-13.885Q371.462-880 380-880h200q7.769 0 13.885 6.115Q600-867.769 600-860q0 8.538-6.115 14.269Q587.769-840 580-840H379Zm122.923 329.231h226.308q8.692 0 13.154-6.577 4.461-6.577 2-15.039-18.539-53.692-56.539-95.5-38-41.807-89.692-65.653-5.462-2.231-11.423-.616-5.962 1.616-9.193 7.077l-88.769 151.692q-5.23 8.462-.269 16.539 4.962 8.077 14.423 8.077Zm-73.385 16.154 114.539-196.462q4.231-7.461 1-14.538t-11.923-9.077q-56.385-10.616-112 1.269-55.616 11.885-102.231 44.731-5.231 3.461-6.461 9.807-1.231 6.347 2 11.808l87.23 152.462q5.231 8.461 13.923 8.461 8.693 0 13.923-8.461ZM391.154-400q9.461 0 14.423-7.692 4.961-7.693-.269-16.154L294.077-620.077q-4.231-7.461-12.808-7.961t-14.038 5.961Q231.308-578 214.154-525.038 197-472.077 202.769-414.923q1 6.461 5.346 10.692Q212.462-400 218.923-400h172.231Zm79.538 54.615q5.231-8.461.269-16.153-4.961-7.693-14.423-7.693H231.769q-8.692 0-13.538 6.577t-2.385 15.039q17.769 53.692 56.539 95.5 38.769 41.807 89.692 65.653 5.461 2.231 11.808.616 6.346-1.616 9.577-7.077l87.23-152.462Z"/></svg>