<svg xmlns="http://www.w3.org/2000/svg" height="24" viewBox="0 -960 960 960" width="24"><path d="M859.218-236.826 753.217-342.828v-410.389h-76.043v129.044H471.306l-234.48-235.045h115.478q14.391-36.696 49.938-59.761 35.546-23.066 77.758-23.066 42.826 0 78.283 23.066 35.457 23.065 50.413 59.761h250.522v622.392ZM480-761.696q17 0 28.5-11.5t11.5-28.5q0-17-11.5-28.5t-28.5-11.5q-17 0-28.5 11.5t-11.5 28.5q0 17 11.5 28.5t28.5 11.5Zm158.652 554.913L206.783-638.652v431.869h431.869Zm-537.87 106.001v-643.871L31.26-814.175l62.652-62.653 781.22 781.22-62.653 62.653-67.826-67.827H100.782Z"/></svg>