<svg xmlns="http://www.w3.org/2000/svg" height="24" viewBox="0 -960 960 960" width="24"><path d="M299-875q50.932 0 96.966 18Q442-839 479-804q37-35 83.034-53 46.034-18 96.966-18 109.382 0 182.691 73.023Q915-728.955 915-620v7H789v-7q0-56-37.005-92.5-37.006-36.5-92.514-36.5Q616-749 578-722.5 540-696 525-655h-91q-14.526-41-53.263-67.5Q342-749 299.273-749q-54.546 0-90.909 36.5Q172-676 172-620v7H45v-7q0-108.955 72.736-181.977Q190.473-875 299-875Zm180 771q-23 0-44.5-7.5T395-136q-36-33-67.5-61.5T269-252q-27-26-50-49.5T176-347h176q26 26 58 55t69 63q37-34 69-63t58-55h176q-20 22-43 45.5T689-252q-27 26-58.5 54.5T563-136q-18 17-39.5 24.5T479-104Zm-27-243q17 0 32-9.5t20-26.5l29-87 29 27q9 8 19.929 12 10.928 4 23.071 4h275q22 0 37.5-15.5T933-480q0-22-15.5-37.5T880-533H624l-65-59q-10-11-22.372-17t-26.698-6q-16.93 0-31.43 9.5T459-579l-29 85-24-23q-9-8-19.929-12-10.928-4-23.071-4H80q-22 0-37.5 15.5T27-480q0 22 15.5 37.5T80-427h259l62 57q9 11 22.3 17t28.7 6Zm29-142Z"/></svg>