<svg xmlns="http://www.w3.org/2000/svg" height="20" viewBox="0 -960 960 960" width="20"><path d="m431.154-398.077-56.769-85.769q-5-6.462-10.693-9.308Q358-496 350.539-496H169.154q-18.231-29.923-25.693-56.039Q136-578.154 136-605q0-71.308 49.846-121.154Q235.692-776 307-776q49.769 0 95 26t78 75.538Q512.769-724 558-750t95-26q71.308 0 121.154 49.846Q824-676.308 824-605q0 26.846-7.461 53.461-7.462 26.616-25.693 56.539H603.923l-64.615-101.462q-1.923-3.384-5.808-5.077-3.885-1.692-7.5-1.692-4.077 0-6.577 2.154t-5.192 6l-83.077 197ZM442-208.384q-76.231-69.077-140.27-130.308Q237.692-399.923 189.154-464h164.384l65.385 102.231q1.923 4.154 6.192 4.961 4.27.808 7.885.808 4.077 0 6.692-1.654 2.616-1.654 5.077-5.5l83.077-194.461 53.462 82.461q5 6.462 10.692 9.308T605.154-463h164.692q-48.538 64.077-111.076 125.808Q596.231-275.461 518-208.384q-8.692 6.692-17.5 13.423T480-188.23q-11.692 0-20.5-6.231T442-208.384Z"/></svg>