<svg xmlns="http://www.w3.org/2000/svg" height="20" viewBox="0 -960 960 960" width="20"><path d="M306.849-776q49.92 0 95.151 26 45.231 26 78 75.538Q512.769-724 558-750t95.151-26q71.157 0 121.003 49.846Q824-676.308 824-604.747v12.055q0 5.769-1.769 12.307h-32q1-6.476 1.384-12.182.385-5.707.385-12.183Q792-664 752-704t-99-40q-35.769 0-66.654 15.269-30.884 15.269-69.807 55.116l-35 41h-3.078l-35-41q-40.692-39.616-71.692-55Q340.769-744 307-744q-58.231 0-98.615 40Q168-664 168-604.923q0 6.461.385 10.731.384 4.269 1.384 10.807h-32q-.769-6.538-1.269-10.807-.5-4.27-.5-10.555 0-71.561 49.846-121.407Q235.692-776 306.849-776ZM480-184.384q-10.923 0-18.192-6.616-7.27-6.615-15.962-13.538-17.539-16.846-47.231-44.308t-57.961-54.231q-28.27-26.769-50.26-48.231-21.99-21.461-26.087-26.307h44.847q32 32.769 74.538 71.923Q426.231-266.538 480-217q52.769-48.538 95.808-87.692 43.038-39.154 75.038-71.923h43.077q-3.384 3.846-25.963 25.307-22.579 21.462-51 48.616t-56.46 55.115q-28.038 27.962-45.577 43.039-8.692 6.692-15.961 13.423-7.27 6.731-18.962 6.731ZM433.209-356q3.961 0 6.53-1.654 2.569-1.654 5.03-5.5l83.077-194.461 53.462 82.195q5 6.728 10.728 9.574T605.154-463H876q6.839 0 11.419-4.52Q892-472.04 892-478.789q0-6.75-4.581-11.48Q882.839-495 876-495H603.923l-64.807-101.112q-2.157-3.559-5.829-5.339-3.672-1.78-7.24-1.78-3.659 0-6.391 2.154-2.733 2.154-5.425 6l-83.077 197-56.769-85.769q-5-6.462-10.728-9.308T350.539-496H84q-6.838 0-11.42 4.52Q68-486.96 68-480.211q0 6.75 4.58 11.48Q77.163-464 84-464h269.538l65.185 102.042q2.123 4.343 6.392 5.15 4.27.808 8.094.808ZM480-481Z"/></svg>