<svg xmlns="http://www.w3.org/2000/svg" height="20" viewBox="0 -960 960 960" width="20"><path d="M305.849-851q48.083 0 93.117 17Q444-817 479-784q35-33 80.034-50 45.034-17 93.117-17 104.231 0 175.54 71.023Q899-708.955 899-604.747q0 1.497.5 3.247.5 1.75-.5 3.5H781v-6.75q0-55.25-37.005-91.75-37.006-36.5-91.514-36.5Q621-733 592.5-718.5T542-678l-35 41h-55l-35-41q-22.526-25-52.263-40t-58.464-15q-53.546 0-89.909 36.5Q180-660 180-604.923V-601H61v-3.747q0-104.208 70.736-175.23Q202.473-851 305.849-851ZM479-110q-23 0-42-9.5T400-145q-38-35-71-64.5T268.5-265q-27.5-26-50.144-49.5T176-360h165q26 27 61 58t77 70q41-38 76.5-69t61.5-58h163q-19 21-42.233 44.5-23.232 23.5-50.5 49.5Q660-239 628-209t-70 64q-18 15-37 25t-42 10Zm-35.791-253q14.884 0 28.338-7.5Q485-378 490-393l45-80 29 28.733Q573-436 582.964-433q9.965 3 21.036 3h272q20.3 0 34.65-14.289 14.35-14.29 14.35-34.5Q925-499 910.65-513.5T876-528H618l-56.191-49.65q-9.235-10.175-20.394-15.762Q530.256-599 517.977-599q-14.512 0-27.244 8Q478-583 472-568l-45 80-26-27q-9-8-18.964-11-9.965-3-21.036-3H84q-20.3 0-34.65 14.289Q35-500.421 35-480.211 35-460 49.35-445.5T84-431h260l52.8 47.811Q405-373 417.3-368t25.909 5ZM481-483Z"/></svg>