<svg xmlns="http://www.w3.org/2000/svg" height="20" viewBox="0 -960 960 960" width="20"><path d="M719.615-136q-5.461 0-10.423-2.115-4.961-2.116-9.192-6.346L514.615-329.077q-4.23-4.23-6.846-9.692-2.615-5.462-2.615-10.923 0-5.462 2.615-10.423 2.616-4.962 6.846-9.193l74.539-74.538q4.231-4.231 9.192-6.846 4.962-2.616 10.423-2.616 5.462 0 10.924 2.616 5.461 2.615 9.692 6.846l185.384 185.385q4.231 4.23 6.347 9.192 2.115 4.961 2.115 10.423 0 5.461-2.115 10.923-2.116 5.462-6.347 9.692l-75.538 73.77q-4.231 4.23-9.192 6.346Q725.077-136 719.615-136Zm0-33.923 68.923-68.923L608-419.384l-68.923 68.923 180.538 180.538Zm-478.23 33.154q-6.462 0-11.539-2.731t-9.308-6.961L145.231-221q-4.231-4.231-5.962-8.808-1.731-4.577-1.731-10.038 0-5.462 2.231-10.808t6.462-9.577l174.846-174.846h91.461L457.461-480 308.846-628.615h-57l-112-111 80.308-81.308 112 112v57l148.615 148.615 116.616-116.615-70.769-71.769 49.23-49.231h-77.692l-20.462-19.692 107.539-107.539 19.692 19.692V-770l25.231-25.231 160.923 159.385q14.692 13.923 22.269 33.461 7.577 19.539 7.577 39.693 0 14.769-4.884 29.192-4.885 14.423-13.423 26.808l-94.924-94.923-46.769 45.769-40.769-40.769-185.077 184.077v93.769L262-145.461q-4.231 4.23-9.192 6.461-4.962 2.231-11.423 2.231Zm-1-33.923 161.922-161.923v-68.923h-69.922L172.462-240.615l67.923 69.923Zm0 0-67.923-69.923 34.076 34.846 33.847 35.077Zm479.23.769 68.923-68.923-68.923 68.923Z"/></svg>