<svg xmlns="http://www.w3.org/2000/svg" height="20" viewBox="0 -960 960 960" width="20"><path d="M496-714.923v150.462l-32-32.001v-127.692l-70.769 70.769-17.923-17.923 85.077-85.077q4.63-4.231 9.392-6.346 4.761-2.115 10.423-2.115t10.423 2.115q4.762 2.115 8.992 6.346l102.77 102.77q4.846 4.846 5.615 10.769.77 5.923-5.137 11.539-6.094 5.615-11.747 5.23-5.654-.384-11.27-6L496-714.923ZM464-496l32 31.865v94.941q0 6.809-4.52 11.54-4.52 4.731-11.269 4.731-6.75 0-11.48-4.581Q464-362.085 464-368.923V-496Zm218.923 264H288.706q-24.353 0-40.529-16.15Q232-264.3 232-288.615v-32.923q0-6.839 4.52-11.42 4.52-4.58 11.269-4.58 6.749 0 11.48 4.58 4.731 4.581 4.731 11.42v32.923q0 9.23 7.692 16.923Q279.385-264 288.615-264h362.308L155.76-759.163q-4.837-4.837-5.222-11.042-.384-6.205 5.231-11.487 5.282-5.616 11.103-5.616 5.82 0 11.515 5.695l603.226 603.226q4.926 4.926 5.31 11.031.385 6.104-5.231 11.356-5.282 5.616-11.102 5.616-5.821 0-11.436-5.616l-76.231-76ZM728-335l-7.154-7.154q-.307.769-3.269 2.692-2.962 1.924-5.577 1.924 6.839 0 11.419 4.58 4.581 4.581 4.581 11.42V-335Z"/></svg>