<svg xmlns="http://www.w3.org/2000/svg" height="24" viewBox="0 -960 960 960" width="24"><path d="M533.001-616.607v55.824L426.999-666.784 377-716.218l65.391-65.391q7.696-7.696 17.522-11.609 9.826-3.913 20.087-3.913t20.087 3.913q9.826 3.913 17.522 11.609L670.088-629.13q15.391 15.391 15.174 37.043-.217 21.653-15.174 37.044-15.957 15.957-37.544 16.174-21.587.218-37.544-15.739l-61.999-61.999Zm-106.002 74.562 106.002 106.002v56.259q0 22.088-15.457 37.544-15.457 15.457-37.544 15.457-22.087 0-37.544-15.457-15.457-15.456-15.457-37.544v-162.261Zm275.958 401.263H246.783q-44.305 0-75.153-30.848-30.848-30.848-30.848-75.153v-66.999q0-22.088 15.456-37.544 15.457-15.457 37.544-15.457 22.088 0 37.544 15.457 15.457 15.456 15.457 37.544v66.999h350.173l-534.87-534.87q-13.13-13.131-13.13-31.326 0-18.196 13.13-31.327 13.13-13.13 31.326-13.13 18.196 0 31.326 13.13l719.568 719.568q13.13 13.13 13.13 30.826 0 17.696-13.13 30.826-13.131 13.13-31.327 13.13-18.195 0-31.326-13.13l-78.696-77.696Zm116.261-135.479-80.609-81.174q5-3.739 11.652-6.544 6.652-2.804 15.957-2.804 22.087 0 37.544 15.457 15.456 15.456 15.456 37.544v37.521Z"/></svg>