<svg xmlns="http://www.w3.org/2000/svg" height="20" viewBox="0 -960 960 960" width="20"><path d="M178.999-83v-290.913L394-157.912q56.957-52.957 104.479-113.914 47.522-60.956 47.522-138.609 0-57.826-20.566-111.087-20.565-53.261-61.826-94.522L333.783-733.001h141.13L624-882.088l69.044 68.044q43.696 42.131 66.761 98.239Q782.87-659.696 782.87-599q0 61.696-23.565 119.022-23.565 57.326-69.261 100.022l-53.043 49.043v247.914H178.999ZM396-257.911 182.956-471.956q-9.696-12.696-15.326-27.239-5.631-14.544-5.631-29.805 0-16.261 5.631-32.305 5.63-16.043 18.326-26.739l96.174-96.174 131.914 120.174q31.261 31.261 45.609 70.522 14.348 39.261 14.348 83.087 0 44.653-22.805 83.892T396-257.912Z"/></svg>