<svg xmlns="http://www.w3.org/2000/svg" height="20" viewBox="0 -960 960 960" width="20"><path d="M255.549-540.308h-36.143q-4.996 0-8.509-3.302-3.512-3.303-3.512-8.354 0-5.051 3.279-8.39 3.28-3.338 8.296-3.338h47.767q5.017 0 8.529 3.297 3.513 3.298 3.513 8.341v143.677q0 5.044-3.302 8.557-3.303 3.512-8.354 3.512-4.98 0-8.272-3.312-3.292-3.313-3.292-8.38v-132.308ZM394.769-408v-76.615q0-6.277 4.246-10.523 4.247-4.247 10.523-4.247h82.77v-40.923h-85.846q-5.067 0-8.38-3.302-3.313-3.303-3.313-8.354 0-5.051 3.313-8.39 3.313-3.338 8.38-3.338h94.461q6.277 0 10.523 4.246 4.246 4.246 4.246 10.523v73.538q0 6.277-4.246 10.523-4.246 4.247-10.523 4.247h-82.769v40.923H504q5.067 0 8.38 3.302 3.312 3.303 3.312 8.354 0 5.051-3.292 8.39-3.292 3.338-8.326 3.338H406.83q-5.035 0-8.548-3.312-3.513-3.313-3.513-8.38Zm319.077 11.692h-94.461q-5.067 0-8.38-3.302-3.313-3.303-3.313-8.354 0-5.051 3.313-8.39 3.313-3.338 8.38-3.338h85.846v-40.923h-30.154q-7.754 0-13.569-5.816-5.816-5.815-5.816-13.569 0-7.754 5.816-13.569 5.815-5.816 13.569-5.816h30.154v-40.923h-85.846q-5.067 0-8.38-3.302-3.313-3.303-3.313-8.354 0-5.051 3.313-8.39 3.313-3.338 8.38-3.338h94.461q6.277 0 10.523 4.246 4.246 4.246 4.246 10.523v137.846q0 6.277-4.246 10.523-4.246 4.246-10.523 4.246Z"/></svg>