<svg xmlns="http://www.w3.org/2000/svg" height="20" viewBox="0 -960 960 960" width="20"><path d="M390.154-184H216q-13.546 0-22.773-9.227T184-216v-174.154q26.154-12 41.077-36.807Q240-451.769 240-480t-14.923-53.039Q210.154-557.846 184-569.846V-744q0-13.546 9.227-22.773T216-776h168q10.769-32.308 36.621-51.846 25.851-19.539 59.154-19.539 33.302 0 59.379 19.379Q565.231-808.628 576-776h168q13.546 0 22.773 9.227T776-744v168q32.308 10.769 51.846 36.621 19.539 25.851 19.539 59.154 0 33.302-19.379 59.379Q808.628-394.769 776-384v168q0 13.546-9.227 22.773T744-184H569.846q-12.769-26.154-36.69-41.077Q509.235-240 480.118-240q-29.118 0-53.157 14.923-24.038 14.923-36.807 41.077Z"/></svg>