<svg xmlns="http://www.w3.org/2000/svg" height="20" viewBox="0 -960 960 960" width="20"><path d="m480-395 86.694 68q8.102 7 16.704.5T590-343l-34-109 86.884-59.552Q652-518 650-528t-13.429-10H528l-34-117q-3.518-11-13.367-11-9.85 0-13.428 11L432-538H325.905Q314-538 312-528t7.322 16.828L404-452l-34 109q-2 10 6.602 16.5t16.704-.5L480-395Zm-.018 247Q411-148 350.435-174.131q-60.564-26.132-105.366-70.928-44.801-44.797-70.935-105.355Q148-410.972 148-479.826q0-68.854 26.1-129.492 26.099-60.639 70.841-105.494 44.742-44.856 105.227-71.022Q410.652-812 479.664-812t129.79 26.102q60.777 26.102 105.736 70.848 44.958 44.746 70.884 105.416Q812-548.963 812-479.982q0 68.982-26.102 129.666-26.102 60.685-70.848 105.574-44.746 44.89-105.416 70.816Q548.963-148 479.982-148Z"/></svg>