<svg xmlns="http://www.w3.org/2000/svg" height="20" viewBox="0 -960 960 960" width="20"><path d="m480-390.846 90.386 70.769q8.795 7.231 17.974.5T595.077-337l-35.385-113.615 90.835-62.656q9.55-6.806 7.204-17.383-2.346-10.577-14.258-10.577H530.308l-35.385-121.846q-3.762-11.692-14.297-11.692t-14.344 11.692l-36.59 121.846H319.004q-12.389 0-14.735 10.577t7.411 17.763l88.628 62.276L364.923-337q-2.462 10.692 6.717 17.423 9.179 6.731 17.974-.5L480-390.846ZM479.941-136q-71.48 0-134.223-27.079-62.744-27.08-109.157-73.502t-73.487-109.177Q136-408.514 136-479.866q0-71.353 27.047-134.17 27.048-62.817 73.416-109.285 46.367-46.467 109.049-73.573Q408.194-824 479.704-824q71.511 0 134.467 27.05 62.956 27.05 109.527 73.421 46.57 46.372 73.436 109.24Q824-551.421 824-479.941q0 71.48-27.05 134.343-27.05 62.863-73.421 109.365-46.372 46.501-109.24 73.367Q551.421-136 479.941-136ZM480-480Zm0 312q131 0 221.5-91.163Q792-350.325 792-480q0-131-90.5-221.5t-221-90.5Q350-792 259-701.5t-91 221Q168-350 259.163-259 350.325-168 480-168Z"/></svg>