<svg xmlns="http://www.w3.org/2000/svg" height="20" viewBox="0 -960 960 960" width="20"><path d="m480-377 85.171 66.999q15.059 11.392 30.683.5 15.624-10.891 9.928-28.413L572-446l86.477-60.565q14.957-10.826 10.044-28.13Q663.608-552 644.997-552H538l-33.782-116.521q-6.206-19.087-23.581-19.087-17.376 0-23.65 19.087L422-552H317.479q-19.087 0-24 17.305-4.913 17.304 10.25 28.51L388-446l-33.782 108.086q-5.696 17.522 9.928 28.413 15.624 10.892 30.683-.5L480-377Zm-.192 300.218q-84.33 0-157.721-31.7-73.39-31.7-127.679-86.044-54.289-54.343-85.958-127.808Q76.782-395.798 76.782-480t31.668-157.666q31.669-73.465 85.958-127.808 54.289-54.344 127.679-86.044 73.391-31.7 157.751-31.7t157.964 31.671q73.603 31.67 128.049 85.963 54.447 54.293 85.907 127.87 31.46 73.577 31.46 157.906 0 84.33-31.671 157.84-31.67 73.511-85.963 127.888-54.293 54.378-127.87 85.838-73.577 31.46-157.906 31.46ZM480-480Zm-.005 305.217q128.179 0 216.7-88.901Q785.217-352.586 785.217-480q0-128.739-88.517-216.978-88.516-88.239-216.195-88.239-127.679 0-216.7 88.239-89.022 88.239-89.022 216.478t89.179 216.978q89.179 88.739 216.033 88.739Z"/></svg>