<svg xmlns="http://www.w3.org/2000/svg" height="20" viewBox="0 -960 960 960" width="20"><path d="M136.309-339.001q-29.539 0-52.923-23.385-23.384-23.384-23.384-52.923v-64.614q0-6.297.615-13.495.615-7.197 3.615-12.428l114.633-268.506q7.598-20.185 28.151-32.916 20.554-12.731 42.895-12.731h421.627v480.998L455.846-128.31q-16.923 16.923-36.615 20.731-19.692 3.808-36.076-6.385-16.384-10.192-23.076-30.845-6.693-20.654-.846-44.807l35.076-149.385h-258Zm470.23-26.538V-756H252.77q-4.231 0-8.654 2.308-4.424 2.308-6.732 7.693L124-483v67.691q0 5.385 3.462 8.847 3.462 3.462 8.847 3.462h339.845L425-187.769l181.539-177.77Zm177.152-454.46q31.477 0 53.892 22.416 22.416 22.415 22.416 53.892v328.382q0 31.477-22.416 53.892-22.415 22.416-53.892 22.416H671.538l-1-63.999h113.153q5.385 0 8.847-3.462 3.462-3.462 3.462-8.847v-328.382q0-5.385-3.462-8.847-3.462-3.462-8.847-3.462H670.538v-63.999h113.153ZM606.539-756v390.461V-756Z"/></svg>