<svg xmlns="http://www.w3.org/2000/svg" height="24" viewBox="0 -960 960 960" width="24"><path d="M480-822.693q43.615 52.847 79.923 103.731 36.308 50.885 65.769 99.962L840-780v300q0 74.539-28.423 140.231t-77.038 114.308q-48.616 48.615-114.308 77.038Q554.539-120 480-120t-140.231-28.423q-65.692-28.423-114.308-77.038-48.615-48.616-77.038-114.308Q120-405.461 120-480v-300l214.308 161q29.461-48.077 65.769-99.462Q436.385-769.846 480-822.693ZM160-700v220q0 76.307 33.808 140.269 33.807 63.961 90.73 105.115-20.461-25.384-32.5-57.192Q240-323.616 240-360q0-45.462 18.5-102.115 18.5-56.654 55.115-122.501L160-700Zm320-60q-95.385 114.769-147.692 222.077Q280-430.615 280-360q0 83 58.5 141.5T480-160q83 0 141.5-58.5T680-360q0-70.615-52.308-178.154Q575.385-645.692 480-760Zm320 60L646.385-584.846Q683-519 701.5-462.346 720-405.692 720-360q0 36.384-12.038 68.192-12.039 31.808-32.5 57.192 56.923-41.154 90.73-105.115Q800-403.693 800-480v-220Z"/></svg>