<svg xmlns="http://www.w3.org/2000/svg" height="20" viewBox="0 -960 960 960" width="20"><path d="M275.75-429.174q18.076 0 30.555-12.228 12.478-12.228 12.478-30.305 0-18.076-12.228-30.554-12.228-12.479-30.305-12.479-18.076 0-30.555 12.228-12.478 12.229-12.478 30.305 0 18.077 12.228 30.555 12.228 12.478 30.305 12.478Zm0-120q18.076 0 30.555-12.228 12.478-12.228 12.478-30.305 0-18.076-12.228-30.554-12.228-12.479-30.305-12.479-18.076 0-30.555 12.228-12.478 12.229-12.478 30.305 0 18.077 12.228 30.555 12.228 12.478 30.305 12.478Zm115.033 117.739H720v-81.044H390.783v81.044Zm0-120H720v-81.044H390.783v81.044Zm-64.957 426.653v-96H76.782v-614.436h806.436v614.436H634.174v96H325.826ZM174.783-318.783h610.434v-418.434H174.783v418.434Zm0 0v-418.434 418.434Z"/></svg>