<svg xmlns="http://www.w3.org/2000/svg" height="20" viewBox="0 -960 960 960" width="20"><path d="M794-546q-39 0-77-19t-84-60q-42-39-64-87.5T553-804q2-15 8-28t15-22q27-27 96.553-45t137.317-18q32.13 0 56.63 5.5T902-895q11 11 16.182 35.863Q923.364-834.275 923-801q0 68.008-18 136.504t-43.27 93.766Q849-558 832-552t-38 6Zm21-212q2-12 2.5-25.5t1.5-28.457q-13-.043-27 .457t-29 3.5q10 7 15.5 12t12.5 11q6.259 6.333 12.13 12.167Q809-767 815-758Zm-25 104q-5-17-18.5-38.5T740-733q-20-20-39-31.5T660-782q1 18 14 40.5t33 41.5q21 19 46.5 32.5T790-654ZM650-390H315q-23.286 0-44.732-8.717Q248.821-407.435 232-424L83.68-561.023Q67-577 67-598.5 67-620 83-637t37.5-17.5q21.5-.5 38.243 15.535L309-498h334.585q24.415 0 45.915 9.5t39.308 27.884L879-303q16 17 15.5 38.5T877-227q-17 16-38.733 16-21.734 0-37.267-17L650-390ZM382.283-71Q358-71 340.5-88.35T323-130v-95q0-49.7 34.176-83.85Q391.352-343 441.088-343h78.176Q569-343 603-308.85q34 34.15 34 83.85v95q0 24.3-17.338 41.65Q602.323-71 578.04-71H382.283ZM431-179h98v-56h-98v56Zm0 0v-56 56Z"/></svg>