<svg xmlns="http://www.w3.org/2000/svg" height="24" viewBox="0 -960 960 960" width="24"><path d="M105.652-854.348h336.261v336.261H105.652v-336.261Zm91 91v154.261-154.261Zm321.435-91h336.261v336.261H518.087v-336.261Zm91 91v154.261-154.261ZM105.652-441.913h336.261v336.261H105.652v-336.261Zm91 91v154.261-154.261Zm444.065-91h91.001v122.63h122.63v91.001h-122.63v122.63h-91.001v-122.63h-122.63v-91.001h122.63v-122.63Zm-31.63-321.435v154.261h154.261v-154.261H609.087Zm-412.435 0v154.261h154.261v-154.261H196.652Zm0 412.435v154.261h154.261v-154.261H196.652Z"/></svg>