<svg xmlns="http://www.w3.org/2000/svg" height="24" viewBox="0 -960 960 960" width="24"><path d="M640-62.477q-72.087 0-110.544-25.327-38.457-25.326-64.152-52.587-16.174-16.608-30.848-29.347T399-182.477q-47.261 0-105.652-16.631-58.392-16.63-109.436-54.109-51.043-37.478-86.022-97.87Q62.913-411.478 62.478-499q-.87-173.218 88.153-285.87Q239.652-897.523 399-897.523q72.696 0 123.674 20.218 50.978 20.217 87.609 51.5 36.63 31.282 62.544 69.348 25.913 38.065 47.913 73.63 12 20 24.282 38.196 12.283 18.196 26.848 32.761 62.826 62.826 94.239 109.522Q897.523-455.652 897.523-359q0 127.913-80.153 212.218Q737.218-62.477 640-62.477ZM480-340q58 0 99-41t41-99q0-58-41-99t-99-41q-58 0-99 41t-41 99q0 58 41 99t99 41Z"/></svg>