<svg xmlns="http://www.w3.org/2000/svg" height="20" viewBox="0 -960 960 960" width="20"><path d="M276-601v26q0 24.3-17.289 41.65-17.29 17.35-41.5 17.35Q193-516 175.5-533.35T158-575v-168q0-24.3 17.35-41.65Q192.7-802 217-802h168q24.3 0 41.65 17.289 17.35 17.29 17.35 41.5Q444-719 426.65-701.5T385-684h-26l145 145q18 18 26.5 39.528 8.5 21.527 8.5 44.903v236.295Q539-194 521.711-176.5q-17.29 17.5-41.5 17.5-24.211 0-41.576-17.336-17.366-17.337-17.366-41.616v-238.286L276-601Zm408 2-28.091 28.189Q638-553 614.5-553.5T573-572q-18-18-18.5-41.5t17.203-41.399L599-684h-24q-24.3 0-41.65-17.289-17.35-17.29-17.35-41.5Q516-767 533.35-784.5T575-802h168q24.3 0 41.65 17.35Q802-767.3 802-743v168q0 24.3-17.289 41.65-17.29 17.35-41.5 17.35Q719-516 701.5-533.35T684-575v-24Z"/></svg>