<svg xmlns="http://www.w3.org/2000/svg" height="24" viewBox="0 -960 960 960" width="24"><path d="M246.783-639.129v32.911q0 22.088-15.457 37.544-15.456 15.457-37.544 15.457-22.087 0-37.544-15.457-15.456-15.456-15.456-37.544v-160q0-22.087 15.456-37.544 15.457-15.456 37.544-15.456h160q22.088 0 37.544 15.456 15.457 15.457 15.457 37.544 0 22.088-15.457 37.544-15.456 15.457-37.544 15.457h-32.911l181.216 181.216q14.957 14.957 22.935 34.262 7.979 19.304 7.979 40.391v263q0 22.088-15.457 37.544-15.457 15.457-37.544 15.457-22.087 0-37.544-15.457-15.457-15.456-15.457-37.544v-264.565L246.783-639.129Zm466.434 1.13-63.52 64.52q-15.957 15.957-37.827 15.957-21.869 0-37.826-15.957-15.957-15.956-16.239-38.044-.283-22.087 15.674-38.044l64.52-63.65h-31.781q-22.088 0-37.544-15.457-15.457-15.456-15.457-37.544 0-22.087 15.457-37.544 15.456-15.456 37.544-15.456h160q22.087 0 37.544 15.456 15.456 15.457 15.456 37.544v160q0 22.088-15.456 37.544-15.457 15.457-37.544 15.457-22.088 0-37.544-15.457-15.457-15.456-15.457-37.544v-31.781Z"/></svg>