<svg xmlns="http://www.w3.org/2000/svg" height="20" viewBox="0 -960 960 960" width="20"><path d="M200-292q-22 0-37-15t-15-37v-419q0-5 .5-9t1.5-9l-24-25q-3-3-3-6t4-7q4-4 6.5-4t6.837 4.337l701.326 701.326Q845-114 845.5-110.318T842-103q-4 4-7 4.5t-7-3.5L639-292H200Zm612 45-65-65h45v-448q0-14-9-23t-23-9H267l-20-20h513q22 0 37 15t15 37v513Zm-612-65h419l-98-98H276q-4.25 0-7.125-2.825-2.875-2.824-2.875-7 0-4.175 2.875-7.175t7.125-3h225L389-542H276q-4.25 0-7.125-2.825-2.875-2.824-2.875-7 0-4.175 2.875-7.175t7.125-3h101v8L168-763v419q0 14 9 23t23 9Zm449-98-20-20h54.52q4.454 0 7.467 2.825 3.013 2.824 3.013 7 0 4.175-2.875 7.175T684-410h-35ZM517-542l-20-20h187q4.25 0 7.125 2.825 2.875 2.824 2.875 7 0 4.175-2.875 7.175T684-542H517ZM385-674l-20-20h319q4.25 0 7.125 2.825 2.875 2.824 2.875 7 0 4.175-2.875 7.175T684-674H385Zm-7 122Zm148 19Z"/></svg>