<svg xmlns="http://www.w3.org/2000/svg" height="24" viewBox="0 -960 960 960" width="24"><path d="M622.827-220.782H166.783q-44.305 0-75.153-30.848-30.848-30.848-30.848-75.153v-451.805q0-1.978.565-4.239L46.52-797.652q-13.13-13.131-13.13-31.327 0-18.195 13.13-31.326 13.13-13.13 31.326-13.13 18.196 0 31.327 13.13L859.87-109.609q13.131 13.131 12.848 31.11-.283 17.978-13.413 31.108-13.131 13.13-31.044 13.13t-31.043-13.13L622.827-220.782Zm276.391 25.217L694.784-400h2.173q9.652 0 16.348-8.674Q720-417.348 720-440q0-17-11.5-28.5T680-480h-65.216l-40-40H680q17 0 28.5-11.5T720-560q0-17-11.5-28.5T680-600H494.784l-40-40H680q17 0 28.5-11.5T720-680q0-17-11.5-28.5T680-720H374.784L195.565-899.218h597.652q44.305 0 75.153 30.848 30.848 30.848 30.848 75.153v597.652ZM444.174-400l-80-80H280q-17 0-28.5 11.5T240-440q0 17 11.5 28.5T280-400h164.174Zm-120-120-70.304-70.304q-6.435 5-10.153 12.934Q240-569.435 240-560q0 17 11.5 28.5T280-520h44.174Z"/></svg>