<svg xmlns="http://www.w3.org/2000/svg" height="20" viewBox="0 -960 960 960" width="20"><path d="M309.281 0Q289 0 274.5-13.72q-14.5-13.719-14.5-34Q260-68 274.289-82.5 288.579-97 308.86-97q20.28 0 34.21 14.29Q357-68.421 357-48.14q0 20.28-13.719 34.21Q329.561 0 309.281 0Zm172 0Q461 0 446.5-13.72q-14.5-13.719-14.5-34Q432-68 446.289-82.5 460.579-97 480.86-97q20.28 0 34.21 14.29Q529-68.421 529-48.14q0 20.28-13.719 34.21Q501.561 0 481.281 0Zm172 0Q633 0 619-13.72q-14-13.719-14-34Q605-68 618.719-82.5q13.72-14.5 34-14.5Q673-97 687-82.71q14 14.289 14 34.57 0 20.28-13.719 34.21Q673.561 0 653.281 0ZM343-129q-49.7 0-83.85-34.15Q225-197.3 225-247v-610q0-49.7 34.15-83.85Q293.3-975 343-975h274q49.7 0 83.85 34.15Q735-906.7 735-857v610q0 49.7-34.15 83.85Q666.7-129 617-129H343Zm0-238h274v-370H343v370Z"/></svg>