<svg xmlns="http://www.w3.org/2000/svg" height="24" viewBox="0 -960 960 960" width="24"><path d="M320-9.23q-12.385 0-21.577-9.193-9.192-9.192-9.192-21.577 0-12.385 9.192-21.577 9.192-9.192 21.577-9.192 12.385 0 21.577 9.192 9.192 9.192 9.192 21.577 0 12.385-9.192 21.577Q332.385-9.231 320-9.231Zm160 0q-12.385 0-21.577-9.193-9.192-9.192-9.192-21.577 0-12.385 9.192-21.577 9.192-9.192 21.577-9.192 12.385 0 21.577 9.192 9.192 9.192 9.192 21.577 0 12.385-9.192 21.577Q492.385-9.231 480-9.231Zm160 0q-12.385 0-21.577-9.193-9.192-9.192-9.192-21.577 0-12.385 9.192-21.577 9.192-9.192 21.577-9.192 12.385 0 21.577 9.192 9.192 9.192 9.192 21.577 0 12.385-9.192 21.577Q652.385-9.231 640-9.231ZM336.923-200q-27.615 0-46.115-18.5-18.501-18.5-18.501-46.115v-590.77q0-27.615 18.501-46.115 18.5-18.5 46.115-18.5h286.154q27.615 0 46.116 18.5 18.5 18.5 18.5 46.115v590.77q0 27.615-18.5 46.115-18.501 18.5-46.116 18.5H336.923Zm-24.615-140h335.384v-440H312.308v440Z"/></svg>