<svg xmlns="http://www.w3.org/2000/svg" height="24" viewBox="0 -960 960 960" width="24"><path d="M311.561 0q-19.866 0-33.627-13.439-13.761-13.438-13.761-33.304t13.761-33.627q13.761-13.761 33.627-13.761 19.866 0 33.305 13.76 13.438 13.762 13.438 33.628T344.866-13.44Q331.427 0 311.561 0Zm169.044 0q-19.866 0-33.627-13.439-13.761-13.438-13.761-33.304t13.761-33.627q13.761-13.761 33.627-13.761 19.866 0 33.305 13.76 13.438 13.762 13.438 33.628T513.91-13.44Q500.471 0 480.605 0Zm169.044 0q-19.866 0-33.344-13.439-13.479-13.438-13.479-33.304t13.439-33.627q13.439-13.761 33.305-13.761 19.865 0 33.344 13.76 13.478 13.762 13.478 33.628T682.953-13.44Q669.515 0 649.649 0ZM337.523-151.521q-44.305 0-75.153-30.849-30.849-30.848-30.849-75.153v-604.954q0-44.305 30.849-75.153 30.848-30.849 75.153-30.849h284.954q44.305 0 75.153 30.849 30.849 30.848 30.849 75.153v604.954q0 44.305-30.849 75.153-30.848 30.849-75.153 30.849H337.523Zm0-106.002h284.954v-40H337.523v40Zm0-120h284.954v-364.954H337.523v364.954Zm0-444.954h284.954v-40H337.523v40Zm0 0v-40 40Zm0 564.954v-40 40Z"/></svg>