<svg xmlns="http://www.w3.org/2000/svg" height="20" viewBox="0 -960 960 960" width="20"><path d="M335.575-96Q276-96 234-138t-42-102v-408q0-60 42-102t102-42h24v-35.789Q360-843 370.289-853.5q10.29-10.5 25.5-10.5Q411-864 421.5-853.65 432-843.3 432-828v36h96v-35.789Q528-843 538.289-853.5q10.29-10.5 25.5-10.5Q579-864 589.5-853.65 600-843.3 600-828v36h24q60 0 102 42t42 102v408q0 60-42 102T624.425-96h-288.85Zm36.385-480h215.757Q603-576 613.5-586.289q10.5-10.29 10.5-25.5Q624-627 613.662-637.5 603.323-648 588.04-648H372.283Q357-648 346.5-637.711q-10.5 10.29-10.5 25.5Q336-597 346.338-586.5 356.677-576 371.96-576ZM480.5-264q37.5 0 66.5-27.509 29-27.508 29-67.082Q576-375 571.5-387T556-414l-55-66q-8.27-10-21.135-10Q467-490 459-480l-55 66q-11 15-15.5 27t-4.5 28.409q0 39.574 29.5 67.082Q443-264 480.5-264Z"/></svg>