<svg xmlns="http://www.w3.org/2000/svg" height="20" viewBox="0 -960 960 960" width="20"><path d="M335.575-148q-38.125 0-64.85-26.725Q244-201.45 244-240v-408q0-38.55 26.725-65.275Q297.45-740 336-740h50v-61.789q0-4.161 2.825-7.186 2.824-3.025 7-3.025 4.175 0 7.175 2.875t3 7.125v62h148v-61.789q0-4.161 2.825-7.186 2.824-3.025 7-3.025 4.175 0 7.175 2.875t3 7.125v62h50q38.55 0 65.275 26.725Q716-686.55 716-648v408q0 38.55-26.725 65.275Q662.55-148 624.425-148h-288.85Zm.48-20h288.222Q654-168 675-189.15T696-240v-408q0-29.7-21.166-50.85Q653.667-720 623.945-720H335.723Q306-720 285-698.85T264-648v408q0 29.7 21.166 50.85Q306.333-168 336.055-168Zm35.905-434h215.757q4.233 0 7.258-2.825 3.025-2.824 3.025-7 0-4.175-2.863-7.175-2.864-3-7.097-3H372.283q-4.233 0-7.258 2.825-3.025 2.824-3.025 7 0 4.175 2.863 7.175 2.864 3 7.097 3Zm108.371 303Q506-299 527-319.009q21-20.008 21-47.45 0-11.378-3.447-19.827Q541.105-394.735 533-405l-38-47q-6.27-7-15.205-7t-14.409 6.831l-38.719 46.118q-7.913 10.39-11.29 19.076Q412-378.288 412-366.778q0 27.761 21.331 47.769 21.331 20.009 47 20.009ZM264-720v551-551Z"/></svg>