<svg xmlns="http://www.w3.org/2000/svg" height="20" viewBox="0 -960 960 960" width="20"><path d="M783.218-71.956 524.522-330.087l-16.739 88.391H342.695l34.174-173.303-64.304 27.782v58.695q0 18.691-12.833 31.585-12.833 12.894-31.435 12.894-18.602 0-31.928-13.177-13.326-13.176-13.326-31.867v-84.391q0-15.522 8.219-27.622t22.259-18.379l100.87-42.304L81-775.174Q68.87-787.304 68.587-803q-.283-15.696 11.848-27.826 12.13-12.131 28.493-12.131 16.362 0 28.159 12.131l702.426 701.875q12.488 12.473 12.488 28.351 0 15.877-12.131 27.644-12.13 12.13-28.326 12.63-16.196.5-28.326-11.63Zm-608.435-4.826q-41.005 0-69.503-28.498-28.498-28.498-28.498-69.503v-64.216q0-20.388 14.246-34.694Q105.274-288 125.572-288q20.298 0 34.754 14.307 14.457 14.306 14.457 34.694v64.216h64.216q20.388 0 34.694 14.246Q288-146.291 288-125.993q0 20.298-14.307 34.755-14.306 14.456-34.694 14.456h-64.216ZM785.217-721v-64.216h-64.216q-20.388 0-34.694-14.246Q672-813.709 672-834.007q0-20.298 14.307-34.755 14.306-14.456 34.694-14.456h64.216q41.005 0 69.503 28.498 28.498 28.498 28.498 69.503v64.216q0 20.388-14.246 34.694Q854.726-672 834.428-672q-20.298 0-34.754-14.307-14.457-14.306-14.457-34.694ZM76.782-672v-76.217q0-24.087 7.326-46.392 7.326-22.304 30.501-39.696l68.087 68.523h-7.913V-672H76.782ZM721-76.782q-20.388 0-34.694-14.246Q672-105.274 672-125.572q0-20.298 14.307-34.754 14.306-14.457 34.694-14.457h37.042l79.088 79.653q-22.174 14.392-44.327 16.37-22.152 1.978-43.239 1.978h-28.564ZM296.567-785.217l-98.002-98.001H310.61q20.387 0 34.694 14.246 14.307 14.246 14.307 34.544 0 19.732-16.851 29.667-16.85 9.935-32.15 19.544h-14.043ZM883.218-198l-98.001-98.001v-14.044q0-20.387 14.246-34.694 14.246-14.306 34.544-14.306 20.298 0 34.755 14.306 14.456 14.307 14.456 34.694V-198ZM530.304-570.479q-35.956 0-61.5-25.835-25.544-25.836-25.544-62.501 0-36.664 25.456-61.925 25.457-25.261 61.588-25.261 36.957 0 62.718 25.467 25.761 25.467 25.761 62.011 0 36.545-25.761 62.294-25.761 25.75-62.718 25.75Z"/></svg>