<svg xmlns="http://www.w3.org/2000/svg" height="24" viewBox="0 -960 960 960" width="24"><path d="M700.118-606Q661-606 633.5-633.382q-27.5-27.383-27.5-66.5Q606-739 633.382-766.5q27.383-27.5 66.5-27.5Q739-794 766.5-766.618q27.5 27.383 27.5 66.5Q794-661 766.618-633.5q-27.383 27.5-66.5 27.5ZM480.174-132Q408-132 344.442-159.391q-63.559-27.392-110.575-74.348-47.015-46.957-74.441-110.435Q132-407.652 132-479.826q0-72.174 27.405-135.732 27.405-63.559 74.385-110.574 46.98-47.016 110.49-74.442Q407.79-828 480-828q17.772 0 34.886 2Q532-824 549-821q-21 26-32 57t-11 64q0 80.51 56.745 137.255Q619.49-506 700-506q33 0 64-11t57-32q3 17 5 34.114 2 17.114 2 34.886 0 72.21-27.391 135.72-27.392 63.51-74.348 110.49-46.957 46.98-110.435 74.385Q552.348-132 480.174-132Z"/></svg>