<svg xmlns="http://www.w3.org/2000/svg" height="20" viewBox="0 -960 960 960" width="20"><path d="M480-480Zm-332 .174q0-69.174 25.905-129.232 25.905-60.059 71.385-105.574 45.48-45.516 105.99-71.442Q411.79-812 480-812q16.772 0 32.886 1.5Q529-809 545-806q-2 5-3.5 9.5T537-787q-12.976-2.6-27.488-3.8Q495-792 480-792q-130 0-221 91t-91 221q0 130 91 221t221 91q130 0 221-91t91-221q0-15-1.2-29.512T787-537q5-3 9.5-4.5t9.5-3.5q3 16 4.5 32.114Q812-496.772 812-480q0 68.21-25.891 128.72-25.892 60.51-71.348 105.99-45.457 45.48-105.435 71.385Q549.348-148 480.174-148 412-148 351.442-173.891q-60.559-25.892-106.075-71.348-45.515-45.457-71.441-105.935Q148-411.652 148-479.826ZM700.118-606Q661-606 633.5-633.382q-27.5-27.383-27.5-66.5Q606-739 633.382-766.5q27.383-27.5 66.5-27.5Q739-794 766.5-766.618q27.5 27.383 27.5 66.5Q794-661 766.618-633.5q-27.383 27.5-66.5 27.5Z"/></svg>