<svg xmlns="http://www.w3.org/2000/svg" height="24" viewBox="0 -960 960 960" width="24"><path d="M158.521-538.088q-29.392 0-49.218-19.826-19.826-19.826-19.826-49.218 0-29.391 19.826-48.935 19.826-19.544 49.218-19.544 29.391 0 48.935 19.403 19.543 19.402 19.543 49.076 0 29.392-19.402 49.218-19.402 19.826-49.076 19.826ZM89.477-53.998v-229.393H45.52v-210.74h226.001v210.74h-44.522V-160h335.827v-205.087h-56.999q-79.027 0-134.123-55.096-55.095-55.096-55.095-134.123 0-56.391 28.5-101t75.761-68q14.391-68.392 68.13-114.305 53.74-45.913 126.827-45.913 73.087 0 126.544 45.913 53.457 45.913 67.848 114.305 47.261 23.391 75.761 68 28.5 44.609 28.5 101 0 79.027-54.931 134.123-54.932 55.096-133.722 55.096h-56.999V-160h200v106.001H89.477Z"/></svg>