<svg xmlns="http://www.w3.org/2000/svg" height="20" viewBox="0 -960 960 960" width="20"><path d="M162.521-533.088q-29.392 0-50.718-21.326-21.326-21.326-21.326-50.718 0-29.391 21.326-50.435 21.326-21.044 50.718-21.044 29.391 0 50.435 20.903 21.043 20.902 21.043 50.576 0 29.392-20.902 50.718-20.902 21.326-50.576 21.326ZM90.477-53.998v-228.393H45.52v-209.74h233.001v209.74h-44.522V-164h330.827v-206.087h-50.999q-79.027 0-134.123-55.096-55.095-55.096-55.095-134.123 0-54.391 26.5-99.5t73.761-68.5q15.391-67.392 69.63-111.805 54.24-44.413 125.327-44.413 71.087 0 124.044 44.413 52.957 44.413 68.348 111.805 47.261 23.391 74.761 68.5 27.5 45.109 27.5 99.5 0 79.027-54.931 134.123-54.932 55.096-133.722 55.096h-50.999V-164h192v110.001H90.477ZM514.206-480.09h211.15q33.079 0 56.101-23.193t23.022-56.177q0-25.281-15.136-44.268-15.136-18.987-37.821-29.187l-39.054-17.523-6.294-41.39q-4.434-36.696-28.464-59.196-24.029-22.5-57.891-22.5-33.862 0-59.166 23.066-25.304 23.065-29.739 59.761l-6.435 40.478-38.608 16.739q-23.565 9.869-37.413 29.344-13.848 19.474-13.848 44.676 0 32.984 23.258 56.177 23.258 23.193 56.338 23.193Zm105.621-147.217Z"/></svg>