<svg xmlns="http://www.w3.org/2000/svg" height="24" viewBox="0 -960 960 960" width="24"><path d="M170.913-527.652q-27.435 0-45.631-18.196-18.195-18.196-18.195-45.631 0-27.434 18.195-45.51 18.196-18.077 45.631-18.077t45.511 18.017q18.076 18.016 18.076 45.57 0 27.435-18.016 45.631-18.017 18.196-45.571 18.196ZM107.087-69v-212.435H65.413v-204.543h211v204.543H234.5V-160h326.696v-202.152h-64.5q-74.396 0-126.263-51.868-51.868-51.867-51.868-126.263 0-54.435 28.5-97.25t74.457-64.25q12.435-66.435 63.728-111.533 51.294-45.097 121.446-45.097t121.326 45.097q51.174 45.098 63.609 111.533 45.956 21.435 74.456 64.25t28.5 97.25q0 74.396-51.798 126.263-51.797 51.868-126.093 51.868h-64.5V-160h200v91H107.087Z"/></svg>