<svg xmlns="http://www.w3.org/2000/svg" height="20" viewBox="0 -960 960 960" width="20"><path d="M184-515q-26 0-44.5-18.5T121-578q0-26 18.5-44.5T184-641q26 0 44.5 18.5T247-578q0 26-18.5 44.5T184-515ZM121-80v-199H80v-199h207v199h-40v115h315v-201h-64q-71 0-120.5-49.5T328-535q0-51 26.5-93t71.5-62q12-64 62-107t116-43q66 0 115 43t61 107q45 20 72.5 62t27.5 93q0 71-49.5 120.5T710-365h-64v201h192v84H121Zm377.379-369h211.15Q746-449 771-473.889t25-61.265Q796-561 782.843-581.4 769.685-601.8 747-612l-44-19-7-45q-5-35-31.008-57.5t-61-22.5Q569-756 542-733.5T510-676l-7 45-42 19q-23 11-36 31t-13 45.846q0 36.376 24.954 61.265Q461.908-449 498.379-449ZM604-603Z"/></svg>