<svg xmlns="http://www.w3.org/2000/svg" height="24" viewBox="0 -960 960 960" width="24"><path d="M184.615-120q-26.654 0-45.634-18.981Q120-157.961 120-184.615v-306.462q0-19.673 10.307-36.067 10.308-16.395 28.693-24.087l115.769-48.615q16.154-6.462 30.693 2.423Q320-588.539 320-570.77v30l155.769-62.615q16.154-6.461 30.193 3.282Q520-590.359 520-573.308V-520h320v335.385q0 26.654-18.981 45.634Q802.039-120 775.385-120h-590.77Zm264.616-138.461h61.538v-123.078h-61.538v123.078Zm-160 0h61.538v-123.078h-61.538v123.078Zm320 0h61.538v-123.078h-61.538v123.078Zm225.846-296.924h-115l32.846-234.231q1.231-8.846 7.842-14.231 6.611-5.384 15.235-5.384h11.308q7.308 0 12.667 4.945t6.333 12.363l28.769 236.538Z"/></svg>