<svg xmlns="http://www.w3.org/2000/svg" height="20" viewBox="0 -960 960 960" width="20"><path d="M200-148q-21.45 0-36.725-15.275Q148-178.55 148-200v-284q0-15.456 7.643-28.336Q163.286-525.216 177-531l94-45q13.214-6 25.107 1.667Q308-566.667 308-552v41l156-68q13.182-6 24.591 1.567Q500-569.867 500-555v55h312v300q0 21.45-15.275 36.725Q781.45-148 760-148H200Zm256-116h48v-120h-48v120Zm-156 0h48v-120h-48v120Zm312 0h48v-120h-48v120Zm197-252h-87l41-246q1-6 4.645-8 3.644-2 9.355-2h-15q3.784 0 6.559 1.429 2.774 1.428 3.441 5.571l37 249Z"/></svg>