<svg xmlns="http://www.w3.org/2000/svg" height="20" viewBox="0 -960 960 960" width="20"><path d="M176.479-78.477q-41.005 0-69.503-28.499-28.499-28.498-28.499-69.503v-323.869q0-28.923 15.665-53.027 15.665-24.103 42.162-35.713l179.479-81.957q22.171-9.695 41.955 3.548 19.785 13.242 19.785 37.366v16.695l123.912-55.217q24.399-10.826 46.243 3.348 21.845 14.174 21.845 41.522v54.26h312v393.044q0 41.005-28.499 69.503-28.498 28.499-69.503 28.499H176.479Zm0-98.002h607.042v-294.902H475.478v-77.618l-192 84v-83.131l-106.999 48.782v322.869ZM435.521-240h88.958v-168h-88.958v168Zm-165.044 0H360v-168h-89.523v168ZM600-240h89.523v-168H600v168Zm281.523-329.523H669.739l41.304-265.173q2.566-18.522 16.371-30.413 13.805-11.892 32.63-11.892h28.913q18.306 0 32.559 11.569 14.253 11.568 17.007 30.171l43 265.738ZM176.479-176.479h607.042-607.042Z"/></svg>