<svg xmlns="http://www.w3.org/2000/svg" height="20" viewBox="0 -960 960 960" width="20"><path d="m280.693-165.54-6.692-56.921 102.615-281.384q10.538 7.538 22.024 13.554 11.485 6.016 24.282 9.445l-99.384 276.461-42.845 38.845Zm398.614 0-42.845-39.845-99.384-275.461q12.797-3.429 24.282-9.445 11.486-6.016 22.024-14.554l102.615 282.384-6.692 56.921ZM480-538.001q-45.769 0-77.884-32.115T370.001-648q0-41 24.961-69.884 24.962-28.885 59.039-36.423V-816h51.998v61.693q34.077 7.538 59.039 36.423Q589.999-689 589.999-648q0 45.769-32.115 77.884T480-538.001Zm0-51.998q24.246 0 41.124-16.877 16.877-16.878 16.877-41.124 0-24.246-16.877-41.124-16.878-16.877-41.124-16.877-24.246 0-41.124 16.877-16.877 16.878-16.877 41.124 0 24.246 16.877 41.124 16.878 16.877 41.124 16.877Z"/></svg>