<svg xmlns="http://www.w3.org/2000/svg" height="20" viewBox="0 -960 960 960" width="20"><path d="M255.384-174.477q-33.254 0-57.08-24.039-23.827-24.039-23.827-57.293t24.039-56.722Q222.555-336 255.809-336t56.722 23.681Q336-288.638 336-255.384q0 33.254-23.681 57.08-23.681 23.827-56.935 23.827Zm0-225.044q-33.254 0-57.08-23.681-23.827-23.681-23.827-56.935 0-33.254 24.039-56.798 24.039-23.544 57.293-23.544t56.722 23.681Q336-513.117 336-479.863q0 33.254-23.681 56.798-23.681 23.544-56.935 23.544Zm0-224.479q-33.254 0-57.08-23.681-23.827-23.681-23.827-56.935 0-33.254 24.039-57.08 24.039-23.827 57.293-23.827t56.722 24.039Q336-737.445 336-704.191t-23.681 56.722Q288.638-624 255.384-624Zm224.479 0q-33.254 0-56.798-23.681-23.544-23.681-23.544-56.935 0-33.254 23.681-57.08 23.681-23.827 56.935-23.827 33.254 0 56.798 24.039 23.544 24.039 23.544 57.293t-23.681 56.722Q513.117-624 479.863-624Zm224.328 0q-33.254 0-56.722-23.681Q624-671.362 624-704.616q0-33.254 23.681-57.08 23.681-23.827 56.935-23.827 33.254 0 57.08 24.039 23.827 24.039 23.827 57.293t-24.039 56.722Q737.445-624 704.191-624ZM479.863-399.521q-33.254 0-56.798-23.681-23.544-23.681-23.544-56.935 0-33.254 23.681-56.798 23.681-23.544 56.935-23.544 33.254 0 56.798 23.681 23.544 23.681 23.544 56.935 0 33.254-23.681 56.798-23.681 23.544-56.935 23.544Zm44.746 225.044v-128.827l255.304-254.305L907.74-428.782 653.876-174.477H524.609Zm299.304-254.305-45-45 45 45Zm-240 195h45l112.739-112.739-22-23-22-22-113.739 112.739v45Zm135.739-135.739-22-22 44 45-22-23Z"/></svg>