<svg xmlns="http://www.w3.org/2000/svg" height="20" viewBox="0 -960 960 960" width="20"><path d="M263.788-222.769q-17.096 0-29.057-12.174-11.962-12.174-11.962-29.269 0-17.096 12.174-29.057 12.174-11.962 29.269-11.962 17.096 0 29.057 12.174 11.962 12.174 11.962 29.269 0 17.096-12.174 29.057-12.174 11.962-29.269 11.962Zm0-216q-17.096 0-29.057-12.174-11.962-12.174-11.962-29.269 0-17.096 12.174-29.057 12.174-11.962 29.269-11.962 17.096 0 29.057 12.174 11.962 12.174 11.962 29.269 0 17.096-12.174 29.057-12.174 11.962-29.269 11.962Zm0-216q-17.096 0-29.057-12.174-11.962-12.174-11.962-29.269 0-17.096 12.174-29.057 12.174-11.962 29.269-11.962 17.096 0 29.057 12.174 11.962 12.174 11.962 29.269 0 17.096-12.174 29.057-12.174 11.962-29.269 11.962Zm216 0q-17.096 0-29.057-12.174-11.962-12.174-11.962-29.269 0-17.096 12.174-29.057 12.174-11.962 29.269-11.962 17.096 0 29.057 12.174 11.962 12.174 11.962 29.269 0 17.096-12.174 29.057-12.174 11.962-29.269 11.962Zm216 0q-17.096 0-29.057-12.174-11.962-12.174-11.962-29.269 0-17.096 12.174-29.057 12.174-11.962 29.269-11.962 17.096 0 29.057 12.174 11.962 12.174 11.962 29.269 0 17.096-12.174 29.057-12.174 11.962-29.269 11.962Zm-216 216q-17.096 0-29.057-12.174-11.962-12.174-11.962-29.269 0-17.096 12.174-29.057 12.174-11.962 29.269-11.962 17.096 0 29.057 12.174 11.962 12.174 11.962 29.269 0 17.096-12.174 29.057-12.174 11.962-29.269 11.962Zm57.443 216v-78.385l219.384-218.385 76.616 79.154-217.175 217.616h-78.825Zm218.384-172.385 45-45.231-45-45.769-45 46 45 45Z"/></svg>