<svg xmlns="http://www.w3.org/2000/svg" height="20" viewBox="0 -960 960 960" width="20"><path d="M248.92-161Q213-161 187-187.212q-26-26.213-26-62.133t26.212-61.288Q213.425-336 249.345-336t61.288 25.58Q336-284.841 336-248.92 336-213 310.42-187q-25.579 26-61.5 26Zm0-232Q213-393 187-418.58q-26-25.579-26-61.5 0-35.92 26.212-61.42 26.213-25.5 62.133-25.5t61.288 25.58Q336-515.841 336-479.92q0 35.92-25.58 61.42-25.579 25.5-61.5 25.5Zm0-231Q213-624 187-649.58q-26-25.579-26-61.5Q161-747 187.212-773q26.213-26 62.133-26t61.288 26.212Q336-746.575 336-710.655q0 35.921-25.58 61.288Q284.841-624 248.92-624Zm231 0q-35.92 0-61.42-25.58-25.5-25.579-25.5-61.5Q393-747 418.58-773q25.579-26 61.5-26 35.92 0 61.42 26.212 25.5 26.213 25.5 62.133 0 35.921-25.58 61.288Q515.841-624 479.92-624Zm230.735 0q-35.921 0-61.288-25.58Q624-675.159 624-711.08 624-747 649.58-773q25.579-26 61.5-26Q747-799 773-772.788q26 26.213 26 62.133 0 35.921-26.212 61.288Q746.575-624 710.655-624ZM479.92-393q-35.92 0-61.42-25.58-25.5-25.579-25.5-61.5 0-35.92 25.58-61.42 25.579-25.5 61.5-25.5 35.92 0 61.42 25.58 25.5 25.579 25.5 61.5 0 35.92-25.58 61.42-25.579 25.5-61.5 25.5ZM522-161v-141l264-263 140 141-262.56 263H522Zm273-227 35-36-45-45-35 36 45 45Z"/></svg>