<svg xmlns="http://www.w3.org/2000/svg" height="24" viewBox="0 -960 960 960" width="24"><path d="M559.044-120.652 118.956-559.609l281.435-281.435 438.957 440.088-280.304 280.304Zm-.565-148.176 132.693-132.693-290.781-290.782-132.694 132.694 290.782 290.781ZM480 0q-99 0-186.5-37.5t-153-103Q75-206 37.5-293.5T0-480h88.479q0 66.478 21.173 127.239 21.174 60.76 59.435 110.499t91.325 85.957q53.065 36.217 117.413 53.478l-89.738-90.303 62.783-62.783L594.218-13.131q-27.696 6.566-56.609 9.848Q508.696 0 480 0Zm391.521-480q0-66.478-21.173-127.239-21.174-60.76-59.435-110.499t-91.325-85.957q-53.065-36.217-117.413-53.478l89.738 90.303-62.783 62.783L365.782-946.87q27.696-6.565 56.609-9.847Q451.304-960 480-960q99 0 186.5 37.5t153 103q65.5 65.5 103 153T960-480h-88.479Zm-392.086-.565Z"/></svg>