<svg xmlns="http://www.w3.org/2000/svg" height="20" viewBox="0 -960 960 960" width="20"><path d="M608-244q-4.25 0-7.125-2.825-2.875-2.824-2.875-7 0-4.175 2.875-7.175t7.125-3h56q14 0 23-9t9-23v-368q0-14-9-23t-23-9h-56q-4.25 0-7.125-2.825-2.875-2.824-2.875-7 0-4.175 2.875-7.175t7.125-3h56q21.45 0 36.725 15.287Q716-685.426 716-663.96v368.243q0 21.467-15.275 36.592T664-244h-56Zm-312 0q-21.45 0-36.725-15.287Q244-274.574 244-296.04v-368.243q0-21.467 15.275-36.592T296-716h56q4.25 0 7.125 2.825 2.875 2.824 2.875 7 0 4.175-2.875 7.175T352-696h-56q-14 0-23 9t-9 23v368q0 14 9 23t23 9h56q4.25 0 7.125 2.825 2.875 2.824 2.875 7 0 4.175-2.875 7.175T352-244h-56Z"/></svg>