<svg xmlns="http://www.w3.org/2000/svg" height="24" viewBox="0 -960 960 960" width="24"><path d="M240.001-354.77q56.154-6.846 115.461-10.269 59.308-3.423 124.538-3.423 64 0 123.922 3.423 59.923 3.423 116.077 10.269L560-546.922 449.462-415.153l-80-96L240.001-354.77ZM160-254q78-23 158.5-34.5T480-300q81 0 161.5 11.5T800-254v-450.615q-78 23-158.5 33.807Q561-660 480-660t-161.5-10.808Q238-681.615 160-704.615V-254Zm320-225.615ZM100.617-170.002v-619.842q77.308 30.384 172.884 50.5 95.576 20.115 207.114 20.115 111.539 0 207.115-20.115 95.576-20.116 172.884-50.5v619.842q-77.308-30.384-172.884-49.807-95.576-19.423-207.115-19.423-111.538 0-207.114 19.423-95.576 19.423-172.884 49.807Z"/></svg>