<svg xmlns="http://www.w3.org/2000/svg" height="24" viewBox="0 -960 960 960" width="24"><path d="m500.231-101.54 212.461-370.998L924.767-101.54H500.231Zm212.076-32.307q7.231 0 12.462-5.231 5.23-5.231 5.23-12.461 0-7.231-5.23-12.462-5.231-5.23-12.462-5.23t-12.461 5.23q-5.231 5.231-5.231 12.462 0 7.23 5.231 12.461 5.23 5.231 12.461 5.231Zm-17.692-80h35.384v-155.384h-35.384v155.384ZM100.001-100.001V-320H160v160h160v59.999H100.001Zm0-539.999v-219.999H320V-800H160v160h-59.999Zm336.153 425.23q-85.461-14.385-146.23-75.154-60.769-60.769-75.154-146.23h59.999q12.769 60.924 56.615 104.77 43.846 43.846 104.77 56.615v59.999ZM214.77-523.846q14.385-85.461 75.154-146.538 60.769-61.077 146.23-74.846v59.999q-60.924 12.769-104.77 56.615-43.846 43.846-56.615 104.77H214.77ZM480-410.001q-29.154 0-49.576-20.423-20.423-20.422-20.423-49.576 0-29.769 20.423-49.884 20.422-20.115 49.576-20.115 29.769 0 49.884 20.115 20.115 20.115 20.115 49.884 0 29.154-20.115 49.576-20.115 20.423-49.884 20.423Zm205.231-113.845q-12.769-60.924-56.615-104.77-43.846-43.846-104.77-56.615v-59.999q85.461 14.385 146.538 75.154 61.077 60.769 74.846 146.23h-59.999ZM800-640v-160H640v-59.999h219.999V-640H800Z"/></svg>