<svg xmlns="http://www.w3.org/2000/svg" height="24" viewBox="0 -960 960 960" width="24"><path d="m509.461-123.077 195.924-341 195.154 341H509.461Zm195.154-24.615q6.462 0 10.924-4.462Q720-156.615 720-163.077q0-6.461-4.461-10.923-4.462-4.461-10.924-4.461-6.461 0-10.923 4.461-4.461 4.462-4.461 10.923 0 6.462 4.461 10.923 4.462 4.462 10.923 4.462Zm-15.384-80H720v-150.769h-30.769v150.769ZM120-120v-200h40v160h160v40H120Zm0-520v-200h200v40H160v160h-40Zm312.308 414.462q-78.923-14.77-135.462-71.308-56.538-56.539-71.308-135.462h40.001q13.538 62.846 58.73 108.039 45.193 45.192 108.039 58.73v40.001Zm-206.77-302.154q14.77-78.923 71.308-135.577 56.539-56.654 135.462-71.193v40.001q-62.846 13.538-108.039 58.73-45.192 45.193-58.73 108.039h-40.001ZM480-420q-25.308 0-42.654-17.346Q420-454.692 420-480q0-25.539 17.346-42.769Q454.692-540 480-540q25.539 0 42.769 17.231Q540-505.539 540-480q0 25.308-17.231 42.654Q505.539-420 480-420Zm214.461-107.692q-13.538-62.846-58.73-108.039-45.193-45.192-108.039-58.73v-40.001q78.923 14.77 135.577 71.308 56.654 56.539 71.193 135.462h-40.001ZM800-640v-160H640v-40h200v200h-40Z"/></svg>