<svg xmlns="http://www.w3.org/2000/svg" height="20" viewBox="0 -960 960 960" width="20"><path d="m534-152 167-282 166 282H534Zm166-28q7.6 0 12.8-5.2 5.2-5.2 5.2-12.8 0-7.6-5.2-12.8-5.2-5.2-12.8-5.2-7.6 0-12.8 5.2-5.2 5.2-5.2 12.8 0 7.6 5.2 12.8 5.2 5.2 12.8 5.2Zm-18-96h36v-84h-36v84ZM148-148v-188h20v168h168v20H148Zm0-476v-188h188v20H168v168h-20Zm286 377q-71-13-122.5-64.5T247-434h21.043Q281-371 326-326t108 57.957V-247ZM247-526q13-71 64.365-121.816Q362.73-698.632 434-713v21.043Q371-679 326-634t-57.957 108H247Zm232.788 92Q460-434 447-447.026q-13-13.027-13-32.553Q434-499 447.026-512.5q13.027-13.5 32.553-13.5Q499-526 512.5-512.739t13.5 32.951Q526-460 512.739-447q-13.261 13-32.951 13Zm212.169-92Q679-589 634-634t-108-57.957V-713q71 13 121.816 64.365Q698.632-597.27 713-526h-21.043ZM792-624v-168H624v-20h188v188h-20Z"/></svg>