<svg xmlns="http://www.w3.org/2000/svg" height="20" viewBox="0 -960 960 960" width="20"><path d="M174-65q-38.4 0-66.2-27.8Q80-120.6 80-159v-146q0-35.7 19.65-64.85Q119.3-399 152-413h24v-132q0-49.7 34.15-83.85Q244.3-663 294-663h127v-31q-17-14.087-26.5-30.043Q385-740 385-767.769q0-19.231 5.5-34.731t21.389-31.389L459-880q1.125-1 20.875-9Q485-889 501-881l47.889 46.889Q565-818 570-802.5t5 34.731q0 27.321-9.5 43.545T539-694v31h127q49.7 0 83.85 34.15Q784-594.7 784-545v132h24q32.7 14 52.35 43.15T880-305v146q0 38.4-27.8 66.2Q824.4-65 786-65H174Zm120-358h372v-122H294v122Zm-96 240h564v-122H198v122Zm96-240h372-372Zm-96 240h564-564Zm610-240H152h656Z"/></svg>