<svg xmlns="http://www.w3.org/2000/svg" height="20" viewBox="0 -960 960 960" width="20"><path d="M174-65q-38.4 0-66.2-27.8Q80-120.6 80-159v-102q0-35.7 19.65-64.85Q119.3-355 152-369h656q32.7 14 52.35 43.15T880-261v102q0 38.4-27.3 66.2Q825.4-65 786-65H174Zm2-376v-104q0-50 34.15-84T294-663h127v-31q-17-14-26.5-30t-9.5-43.769q0-19.231 5.5-34.731t21.429-31.429l47.25-46.25Q462-883 480-889q5 0 21 8l47.889 46.889Q565-818 570-802.5t5 34.731Q575-740 565.5-724T539-694v31h128q49.287 0 83.144 34.15Q784-594.7 784-545v104H176Z"/></svg>