<svg xmlns="http://www.w3.org/2000/svg" height="20" viewBox="0 -960 960 960" width="20"><path d="M467.815-83.264 382.279-168.8q-6.739-6.739-3.134-17.277 3.606-10.539 13.702-10.539h174.487q9.947 0 13.537 10.539 3.589 10.538-3.15 17.277l-85.536 85.536q-4.814 4.955-12.115 4.955t-12.255-4.955ZM180.309-284q-27.008 0-45.658-18.65-18.65-18.65-18.65-45.658v-383.382q0-27.008 18.65-45.658 18.65-18.65 45.658-18.65h599.382q27.008 0 45.658 18.65 18.65 18.65 18.65 45.658v383.382q0 27.008-18.65 45.658-18.65 18.65-45.658 18.65H180.309ZM371.96-388.616h215.757q12.975 0 22.321-8.962 9.346-8.963 9.346-22.211 0-12.903-9.184-22.249-9.185-9.346-22.16-9.346H372.283q-12.975 0-22.321 8.962-9.346 8.963-9.346 22.211 0 12.903 9.184 22.249 9.185 9.346 22.16 9.346Zm-151.344-120h62.768v-62.768h-62.768v62.768Zm114 0h62.768v-62.768h-62.768v62.768Zm114 0h62.768v-62.768h-62.768v62.768Zm114 0h62.768v-62.768h-62.768v62.768Zm114 0h62.768v-62.768h-62.768v62.768Zm-456-120h62.768v-62.768h-62.768v62.768Zm114 0h62.768v-62.768h-62.768v62.768Zm114 0h62.768v-62.768h-62.768v62.768Zm114 0h62.768v-62.768h-62.768v62.768Zm114 0h62.768v-62.768h-62.768v62.768Z"/></svg>