<svg xmlns="http://www.w3.org/2000/svg" height="24" viewBox="0 -960 960 960" width="24"><path d="M458-31 346-143q-15-15-7-34.5t29-19.5h224q21 0 29 19.5t-7 34.5L502-31q-9 9-22 9t-22-9ZM172-262q-53 0-89.5-36.5T46-388v-375q0-53 36.5-89.5T172-889h616q53 0 89.5 36.5T914-763v375q0 53-36.5 89.5T788-262H172Zm188-158h240q17 0 28.5-11.5T640-460q0-17-11.5-28.5T600-500H360q-17 0-28.5 11.5T320-460q0 17 11.5 28.5T360-420ZM209-535h80v-80h-80v80Zm116 0h80v-80h-80v80Zm115 0h80v-80h-80v80Zm115 0h80v-80h-80v80Zm116 0h80v-80h-80v80ZM209-655h80v-80h-80v80Zm116 0h80v-80h-80v80Zm115 0h80v-80h-80v80Zm115 0h80v-80h-80v80Zm116 0h80v-80h-80v80Z"/></svg>