<svg xmlns="http://www.w3.org/2000/svg" height="24" viewBox="0 -960 960 960" width="24"><path d="m469-111-75.279-75.279Q387-193 390.542-202.5 394.083-212 404-212h152.471q9.529 0 13.029 9.5t-3.221 16.221L491-111q-4.636 5-10.818 5Q474-106 469-111ZM192-332q-26 0-43-17t-17-43v-336q0-26 17-43t43-17h576q26 0 43 17t17 43v336q0 26-17 43t-43 17H192Zm168-80h240q11 0 19.5-8.05T628-440q0-11-8.5-19.5T600-468H360q-11 0-19.5 8.05T332-440q0 11 8.5 19.5T360-412ZM212-532h56v-56h-56v56Zm120 0h56v-56h-56v56Zm120 0h56v-56h-56v56Zm120 0h56v-56h-56v56Zm120 0h56v-56h-56v56ZM212-652h56v-56h-56v56Zm120 0h56v-56h-56v56Zm120 0h56v-56h-56v56Zm120 0h56v-56h-56v56Zm120 0h56v-56h-56v56Z"/></svg>