<svg xmlns="http://www.w3.org/2000/svg" height="24" viewBox="0 -960 960 960" width="24"><path d="m461.478-41-112-111.999q-12.826-12.827-6.13-29.066 6.695-16.239 24.652-16.239h224q17.957 0 24.652 16.239 6.696 16.239-6.13 29.066l-112 112q-7.696 7.695-18.522 7.695-10.826 0-18.522-7.695ZM166.783-269.825q-44.305 0-75.153-30.848-30.848-30.848-30.848-75.153v-385.869q0-44.305 30.848-75.153 30.848-30.848 75.153-30.848h626.434q44.305 0 75.153 30.848 30.848 30.848 30.848 75.153v385.869q0 44.305-30.848 75.153-30.848 30.848-75.153 30.848H166.783ZM360-411.305h240q17 0 28.5-11.5t11.5-28.5q0-17-11.5-28.5t-28.5-11.5H360q-17 0-28.5 11.5t-11.5 28.5q0 17 11.5 28.5t28.5 11.5ZM205.087-528.479h80v-80h-80v80Zm117.739 0h80v-80h-80v80Zm117.174 0h80v-80h-80v80Zm117.174 0h80v-80h-80v80Zm117.739 0h80v-80h-80v80Zm-469.826-120h80v-80h-80v80Zm117.739 0h80v-80h-80v80Zm117.174 0h80v-80h-80v80Zm117.174 0h80v-80h-80v80Zm117.739 0h80v-80h-80v80Z"/></svg>