<svg xmlns="http://www.w3.org/2000/svg" height="20" viewBox="0 -960 960 960" width="20"><path d="M464.748-55.839 365.087-155.5q-9.196-9.196-4.312-22.489 4.884-13.294 18.225-13.294h202q13.341 0 18.225 13.294 4.884 13.293-4.312 22.489l-99.661 99.661q-6.056 6.056-15.252 6.056-9.196 0-15.252-6.056ZM170.87-259.696q-34.483 0-58.742-24.258-24.259-24.259-24.259-58.742v-402.021q0-34.483 24.259-58.742t58.742-24.259h618.26q34.483 0 58.742 24.259t24.259 58.742v402.021q0 34.483-24.259 58.742-24.259 24.258-58.742 24.258H170.87Zm201.09-129.087h215.757q15.283 0 25.783-10.289 10.5-10.29 10.5-25.5 0-15.211-10.338-25.711-10.339-10.5-25.622-10.5H372.283q-15.283 0-25.783 10.29-10.5 10.289-10.5 25.5 0 15.21 10.338 25.71 10.339 10.5 25.622 10.5ZM218.152-507.587h72v-72h-72v72Zm113.044 0h72v-72h-72v72Zm112.804 0h72v-72h-72v72Zm112.804 0h72v-72h-72v72Zm113.044 0h72v-72h-72v72Zm-451.696-120h72v-72h-72v72Zm113.044 0h72v-72h-72v72Zm112.804 0h72v-72h-72v72Zm112.804 0h72v-72h-72v72Zm113.044 0h72v-72h-72v72Z"/></svg>