<svg xmlns="http://www.w3.org/2000/svg" height="24" viewBox="0 -960 960 960" width="24"><path d="M479.96-269.826q19.866 0 33.345-13.438 13.478-13.439 13.478-33.305t-13.439-33.344q-13.438-13.478-33.304-13.478t-33.345 13.438q-13.478 13.439-13.478 33.305t13.439 33.344q13.438 13.478 33.304 13.478Zm.04-157.173q18.922 0 31.722-12.8t12.8-31.722v-176.862q0-18.791-12.8-31.705-12.8-12.913-31.722-12.913t-31.722 12.8q-12.8 12.8-12.8 31.722v176.862q0 18.791 12.8 31.705 12.8 12.913 31.722 12.913ZM206.783-100.782q-43.726 0-74.863-31.138-31.138-31.137-31.138-74.863v-546.434q0-43.726 31.138-74.863 31.137-31.138 74.863-31.138H356.13q16.957-37.131 50.283-58.566 33.326-21.434 73.587-21.434t73.587 21.434q33.326 21.435 50.283 58.566h149.347q43.726 0 74.863 31.138 31.138 31.137 31.138 74.863v546.434q0 43.726-31.138 74.863-31.137 31.138-74.863 31.138H206.783ZM480-785.478q14.96 0 24.741-9.781 9.781-9.781 9.781-24.741 0-14.96-9.781-24.741-9.781-9.781-24.741-9.781-14.96 0-24.741 9.781-9.781 9.781-9.781 24.741 0 14.96 9.781 24.741 9.781 9.781 24.741 9.781Z"/></svg>