<svg xmlns="http://www.w3.org/2000/svg" height="20" viewBox="0 -960 960 960" width="20"><path d="M479.75-277.826q18.076 0 30.555-12.228 12.478-12.228 12.478-30.304 0-18.077-12.228-30.555-12.228-12.478-30.305-12.478-18.076 0-30.555 12.228-12.478 12.228-12.478 30.304 0 18.077 12.228 30.555 12.228 12.478 30.305 12.478Zm.039-141.173q17.133 0 28.933-11.65t11.8-28.872v-184.862q0-17.091-11.59-28.855-11.589-11.763-28.721-11.763-17.133 0-28.933 11.65t-11.8 28.872v184.862q0 17.091 11.59 28.855 11.589 11.763 28.721 11.763ZM222.783-124.782q-40.426 0-69.213-28.788-28.788-28.787-28.788-69.213v-514.434q0-40.426 28.788-69.213 28.787-28.788 69.213-28.788H375.13q11.957-32.131 40.283-52.066 28.326-19.934 64.587-19.934t64.587 19.934q28.326 19.935 40.283 52.066h152.347q40.426 0 69.213 28.788 28.788 28.787 28.788 69.213v514.434q0 40.426-28.788 69.213-28.787 28.788-69.213 28.788H222.783Zm0-98.001h514.434v-514.434H222.783v514.434ZM480-763.478q12.36 0 20.441-8.081T508.522-792q0-12.36-8.081-20.441T480-820.522q-12.36 0-20.441 8.081T451.478-792q0 12.36 8.081 20.441T480-763.478ZM222.783-222.783v-514.434 514.434Z"/></svg>