<svg xmlns="http://www.w3.org/2000/svg" height="20" viewBox="0 -960 960 960" width="20"><path d="M804-171 140-835q-4-4-4.5-6.5t4.5-7.5q5-5 7.5-5t7.5 5l664 664q4 4 4.5 6.5T819-171q-5 5-7.5 5t-7.5-5Zm-408 21q-9.6 0-16.8-7.2-7.2-7.2-7.2-16.8 0-9.6 7.2-16.8 7.2-7.2 16.8-7.2 9.6 0 16.8 7.2 7.2 7.2 7.2 16.8 0 9.6-7.2 16.8-7.2 7.2-16.8 7.2Zm168 0q-9.6 0-16.8-7.2-7.2-7.2-7.2-16.8 0-9.6 7.2-16.8 7.2-7.2 16.8-7.2 9.6 0 16.8 7.2 7.2 7.2 7.2 16.8 0 9.6-7.2 16.8-7.2 7.2-16.8 7.2ZM252.211-254q-11.811 0-20.011-7.989-8.2-7.99-8.2-19.8 0-11.811 7.989-20.011 7.99-8.2 19.8-8.2 11.811 0 20.011 7.989 8.2 7.99 8.2 19.8 0 11.811-7.989 20.011-7.99 8.2-19.8 8.2Zm144 0q-11.811 0-20.011-7.989-8.2-7.99-8.2-19.8 0-11.811 7.989-20.011 7.99-8.2 19.8-8.2 11.811 0 20.011 7.989 8.2 7.99 8.2 19.8 0 11.811-7.989 20.011-7.99 8.2-19.8 8.2Zm168 0q-11.811 0-20.011-7.989-8.2-7.99-8.2-19.8 0-11.811 7.99-20.011 7.989-8.2 19.799-8.2 11.811 0 20.011 7.989 8.2 7.99 8.2 19.8 0 11.811-7.99 20.011-7.989 8.2-19.799 8.2ZM396-406q-12 0-22-10t-10-22q0-12 10-22t22-10q12 0 22 10t10 22q0 12-10 22t-22 10Zm-143.789-4q-11.811 0-20.011-7.989-8.2-7.99-8.2-19.8 0-11.811 7.989-20.011 7.99-8.2 19.8-8.2 11.811 0 20.011 7.989 8.2 7.99 8.2 19.8 0 11.811-7.989 20.011-7.99 8.2-19.8 8.2ZM703-404l-30-30q2-14 9.333-20 7.334-6 19.21-6 11.216 0 19.336 7.971 8.121 7.97 8.121 19.753Q729-419 721.5-412t-18.5 8Zm-559-10q-9.6 0-16.8-7.2-7.2-7.2-7.2-16.8 0-9.6 7.2-16.8 7.2-7.2 16.8-7.2 9.6 0 16.8 7.2 7.2 7.2 7.2 16.8 0 9.6-7.2 16.8-7.2 7.2-16.8 7.2Zm672 0q-9.6 0-16.8-7.2-7.2-7.2-7.2-16.8 0-9.6 7.2-16.8 7.2-7.2 16.8-7.2 9.6 0 16.8 7.2 7.2 7.2 7.2 16.8 0 9.6-7.2 16.8-7.2 7.2-16.8 7.2ZM557-549l-25-25q-6-15.438 7-27.719T564.49-614Q576-614 586-604q10 10 10 21.51Q596-565 582.5-556t-25.5 7Zm-304.789-5q-11.811 0-20.011-7.99-8.2-7.989-8.2-19.799 0-11.811 7.989-20.011 7.99-8.2 19.8-8.2 11.811 0 20.011 7.99 8.2 7.989 8.2 19.799 0 11.811-7.989 20.011-7.99 8.2-19.8 8.2Zm456 0q-11.811 0-20.011-7.99-8.2-7.989-8.2-19.799 0-11.811 7.99-20.011 7.989-8.2 19.799-8.2 11.811 0 20.011 7.99 8.2 7.989 8.2 19.799 0 11.811-7.99 20.011-7.989 8.2-19.799 8.2ZM144-558q-9.6 0-16.8-7.2-7.2-7.2-7.2-16.8 0-9.6 7.2-16.8 7.2-7.2 16.8-7.2 9.6 0 16.8 7.2 7.2 7.2 7.2 16.8 0 9.6-7.2 16.8-7.2 7.2-16.8 7.2Zm672 0q-9.6 0-16.8-7.2-7.2-7.2-7.2-16.8 0-9.6 7.2-16.8 7.2-7.2 16.8-7.2 9.6 0 16.8 7.2 7.2 7.2 7.2 16.8 0 9.6-7.2 16.8-7.2 7.2-16.8 7.2ZM564.211-710q-11.811 0-20.011-7.99-8.2-7.989-8.2-19.799 0-11.811 7.99-20.011 7.989-8.2 19.799-8.2 11.811 0 20.011 7.99 8.2 7.989 8.2 19.799 0 11.811-7.99 20.011-7.989 8.2-19.799 8.2ZM397-709l-30-30q1-14 9.643-20.5t19.786-6.5q11.171 0 19.371 7.971 8.2 7.97 8.2 19.753 0 12.99-8 21.133Q408-709 397-709Zm311.211-1q-11.811 0-20.011-7.99-8.2-7.989-8.2-19.799 0-11.811 7.99-20.011 7.989-8.2 19.799-8.2 11.811 0 20.011 7.99 8.2 7.989 8.2 19.799 0 11.811-7.99 20.011-7.989 8.2-19.799 8.2ZM396-822q-9.6 0-16.8-7.2-7.2-7.2-7.2-16.8 0-9.6 7.2-16.8 7.2-7.2 16.8-7.2 9.6 0 16.8 7.2 7.2 7.2 7.2 16.8 0 9.6-7.2 16.8-7.2 7.2-16.8 7.2Zm168 0q-9.6 0-16.8-7.2-7.2-7.2-7.2-16.8 0-9.6 7.2-16.8 7.2-7.2 16.8-7.2 9.6 0 16.8 7.2 7.2 7.2 7.2 16.8 0 9.6-7.2 16.8-7.2 7.2-16.8 7.2Z"/></svg>