<svg xmlns="http://www.w3.org/2000/svg" height="24" viewBox="0 -960 960 960" width="24"><path d="M442.652-434.696q34.608 0 58.63-24.587 24.022-24.587 24.022-59.196 0-34.608-24.022-58.065Q477.26-600 442.652-600q-34.609 0-58.63 23.456Q360-553.087 360-518.479q0 34.609 24.022 59.196 24.021 24.587 58.63 24.587Zm0 94.696q-74.392 0-125.87-52.044-51.478-52.043-51.478-126.435 0-73.261 51.761-124.739 51.761-51.478 125.587-51.478t125.587 51.478Q620-591.74 620-518.479q0 23-5.935 45.783t-17.804 43.348l69.521 69.521q14.261 14.261 14.044 33.087-.217 18.827-14.478 33.088-14.261 13.826-33.37 14.043-19.109.218-33.37-14.043l-69.087-68.522q-20 10.739-41.934 16.457Q465.652-340 442.652-340ZM206.783-100.782q-44.305 0-75.153-30.848-30.848-30.848-30.848-75.153v-100.216q0-22.088 15.456-37.544Q131.695-360 153.782-360q22.088 0 37.544 15.457 15.457 15.456 15.457 37.544v100.216h100.216q22.088 0 37.544 15.457Q360-175.87 360-153.782q0 22.087-15.457 37.544-15.456 15.456-37.544 15.456H206.783Zm546.434 0H653.001q-22.088 0-37.544-15.456Q600-131.695 600-153.782q0-22.088 15.457-37.544 15.456-15.457 37.544-15.457h100.216v-100.216q0-22.088 15.457-37.544Q784.13-360 806.218-360q22.087 0 37.544 15.457 15.456 15.456 15.456 37.544v100.216q0 44.305-30.848 75.153-30.848 30.848-75.153 30.848ZM100.782-653.001v-100.216q0-44.305 30.848-75.153 30.848-30.848 75.153-30.848h100.216q22.088 0 37.544 15.456Q360-828.305 360-806.218q0 22.088-15.457 37.544-15.456 15.457-37.544 15.457H206.783v100.216q0 22.088-15.457 37.544Q175.87-600 153.782-600q-22.087 0-37.544-15.457-15.456-15.456-15.456-37.544Zm652.435 0v-100.216H653.001q-22.088 0-37.544-15.457Q600-784.13 600-806.218q0-22.087 15.457-37.544 15.456-15.456 37.544-15.456h100.216q44.305 0 75.153 30.848 30.848 30.848 30.848 75.153v100.216q0 22.088-15.456 37.544Q828.305-600 806.218-600q-22.088 0-37.544-15.457-15.457-15.456-15.457-37.544Z"/></svg>