<svg xmlns="http://www.w3.org/2000/svg" height="20" viewBox="0 -960 960 960" width="20"><path d="M431-458q29.467 0 50.233-21.767Q502-501.533 502-531t-20.767-49.233Q460.467-600 431-600t-50.233 19.767Q360-560.467 360-531t20.767 51.233Q401.533-458 431-458Zm.381 98Q360-360 311-409.892t-49-121Q262-600 311.392-649t119.5-49Q501-698 550.5-648.952 600-599.903 600-530.571q0 21.163-5.5 42.367Q589-467 580-447l56.067 55.2Q651-377 651.5-358q.5 19-14.5 34.478Q622-308 602-308.5t-34.921-15.421L511-379q-19 7-38.719 13-19.72 6-40.9 6ZM228-110q-49.7 0-83.85-34.15Q110-178.3 110-228v-97q0-24.3 17.289-41.65 17.29-17.35 41.5-17.35Q193-384 210.5-366.65T228-325v97h97q24.3 0 41.65 17.289 17.35 17.29 17.35 41.5Q384-145 366.65-127.5T325-110h-97Zm504 0h-97q-24.3 0-41.65-17.289-17.35-17.29-17.35-41.5Q576-193 593.35-210.5T635-228h97v-97q0-24.3 17.289-41.65 17.29-17.35 41.5-17.35Q815-384 832.5-366.65T850-325v97q0 49.7-34.15 83.85Q781.7-110 732-110ZM110-635v-97q0-49.7 34.15-83.85Q178.3-850 228-850h97q24.3 0 41.65 17.289 17.35 17.29 17.35 41.5Q384-767 366.65-749.5T325-732h-97v97q0 24.3-17.289 41.65-17.29 17.35-41.5 17.35Q145-576 127.5-593.35T110-635Zm622 0v-97h-97q-24.3 0-41.65-17.289-17.35-17.29-17.35-41.5Q576-815 593.35-832.5T635-850h97q49.7 0 83.85 34.15Q850-781.7 850-732v97q0 24.3-17.289 41.65-17.29 17.35-41.5 17.35Q767-576 749.5-593.35T732-635Z"/></svg>