<svg xmlns="http://www.w3.org/2000/svg" height="20" viewBox="0 -960 960 960" width="20"><path d="M436.652-446.696q32.075 0 54.363-22.854 22.289-22.854 22.289-54.929t-22.289-53.798Q468.727-600 436.652-600t-54.364 21.723Q360-556.554 360-524.479t22.288 54.929q22.289 22.854 54.364 22.854Zm.381 86.696q-68.773 0-116.251-47.936-47.478-47.935-47.478-116.435 0-67.369 47.653-114.847 47.653-47.478 115.587-47.478t115.695 47.526Q600-591.643 600-524.05q0 21.164-5.935 42.15-5.935 20.987-15.804 40.552l62.588 61.721q13.194 13.061 13.477 29.887.283 16.827-12.978 30.566-13.261 13.348-30.87 13.065-17.609-.282-30.791-13.465l-62.166-61.6q-19 8.739-39.154 14.957Q458.213-360 437.033-360Zm-214.25 235.218q-41.005 0-69.503-28.498-28.498-28.498-28.498-69.503v-112.216q0-20.388 14.246-34.694Q153.274-384 173.572-384q20.298 0 34.754 14.307 14.457 14.306 14.457 34.694v112.216h112.216q20.388 0 34.694 14.246Q384-194.291 384-173.993q0 20.298-14.307 34.755-14.306 14.456-34.694 14.456H222.783Zm514.434 0H625.001q-20.388 0-34.694-14.246Q576-153.274 576-173.572q0-20.298 14.307-34.754 14.306-14.457 34.694-14.457h112.216v-112.216q0-20.388 14.246-34.694Q765.709-384 786.007-384q20.298 0 34.755 14.307 14.456 14.306 14.456 34.694v112.216q0 41.005-28.498 69.503-28.498 28.498-69.503 28.498ZM124.782-625.001v-112.216q0-41.005 28.498-69.503 28.498-28.498 69.503-28.498h112.216q20.388 0 34.694 14.246Q384-806.726 384-786.428q0 20.298-14.307 34.754-14.306 14.457-34.694 14.457H222.783v112.216q0 20.388-14.246 34.694Q194.291-576 173.993-576q-20.298 0-34.755-14.307-14.456-14.306-14.456-34.694Zm612.435 0v-112.216H625.001q-20.388 0-34.694-14.246Q576-765.709 576-786.007q0-20.298 14.307-34.755 14.306-14.456 34.694-14.456h112.216q41.005 0 69.503 28.498 28.498 28.498 28.498 69.503v112.216q0 20.388-14.246 34.694Q806.726-576 786.428-576q-20.298 0-34.754-14.307-14.457-14.306-14.457-34.694Z"/></svg>