<svg xmlns="http://www.w3.org/2000/svg" height="24" viewBox="0 -960 960 960" width="24"><path d="m693-355-26-26 83-83q8-8 8-16.5t-8-16.5L496-751q-8-8-17.5-8t-17.5 8l-83 83-26-26 84-84q9-9 20.5-14t22.5-5q11 0 22 4.5t20 13.5l256 256q18 18 18.5 41.5T778-440l-85 85Zm-76 76-95 95q-9 9-20 13.5t-23 4.5q-11 0-22.5-4.5T436-184L182-438q-9-9-13.5-20.5T164-481q0-12 4.5-23t13.5-20l95-95-146-146q-4-4-4.5-9.5T131-785q5-5 10-5t10 5l630 630q4 4 4.5 9.5T781-135q-5 5-10 5t-10-5L617-279ZM208-464l254 254q8 8 17 8t17-8l95-95-79-79-12 12q-9 9-21 9t-21-9l-88-88q-9-9-9-21t9-21l12-12-79-79-95 95q-8 8-8 17t8 17Zm380 4L458-590q8-8 20-8t20 8l90 90q8 8 8 20t-8 20Z"/></svg>