<svg xmlns="http://www.w3.org/2000/svg" height="20" viewBox="0 -960 960 960" width="20"><path d="m209.077-628.615 79.692 77.922q5.616 4.847 6.116 10.885.5 6.039-5.063 11.654-5.563 5.616-11.769 5.616-6.207 0-11.822-5.616L168.615-626q-8.692-8.329-8.692-19.434t8.692-19.797l98.616-98.615q5.615-5.616 11.82-5.616t10.718 5.616q5.616 4.513 5.231 11.102-.385 6.59-5.231 11.436l-79.692 80.692h432.231q50.448 0 86.07 35.885Q764-588.846 764-536.923q0 51.923-35.884 87.808-35.885 35.884-87.808 35.884H211.91q-6.449 0-11.179-4.52Q196-422.271 196-429.02q0-6.749 4.581-11.48 4.58-4.731 11.419-4.731h428.308q38.496 0 65.094-26.671Q732-498.573 732-537.171q0-38.598-26.598-65.021-26.598-26.423-65.094-26.423H209.077ZM196-192.74v-61.355q0-23.597 16.545-39.982 16.545-16.385 40.106-16.385H707.67q23.561 0 39.946 16.572Q764-277.319 764-253.722v61.355q0 23.598-16.545 39.983Q730.91-136 707.349-136H252.33q-23.561 0-39.946-16.571Q196-169.142 196-192.74ZM252.615-168h122.308v-110.461H252.615q-10.769 0-17.692 6.923T228-253.846v61.231q0 10.769 6.923 17.692T252.615-168Zm154.308 0h146.154v-110.461H406.923V-168Zm178.154 0h122.308q10.769 0 17.692-6.923T732-192.615v-61.231q0-10.769-6.923-17.692t-17.692-6.923H585.077V-168Z"/></svg>