<svg xmlns="http://www.w3.org/2000/svg" height="20" viewBox="0 -960 960 960" width="20"><path d="m183.923-183.923 592.154-592.154q13.154-13.154 30.539-5.935Q824-774.793 824-756.231v125.462h-32v-115.385L213.846-168H700v32H203.769q-18.562 0-25.781-17.384-7.219-17.385 5.935-30.539Zm624.315 57.154q-10.623 0-18.046-7.186-7.423-7.185-7.423-17.807 0-10.623 7.186-18.046 7.185-7.423 17.808-7.423 10.622 0 18.045 7.186 7.423 7.185 7.423 17.808 0 10.622-7.186 18.045-7.185 7.423-17.807 7.423ZM792-265.19v-261.912q0-6.782 4.547-11.533 4.547-4.75 11.27-4.75 6.722 0 11.452 4.589Q824-534.208 824-527.425v261.911q0 6.783-4.547 11.533-4.547 4.75-11.269 4.75t-11.453-4.588Q792-258.408 792-265.19Z"/></svg>