<svg xmlns="http://www.w3.org/2000/svg" height="24" viewBox="0 -960 960 960" width="24"><path d="m183-183 594-594q14-14 32.5-6.344T828-756v76h-28v-80L200-160h494v28H204q-19.688 0-27.344-18.5Q169-169 183-183Zm631.035 63Q803-120 795.5-127.465t-7.5-18.5q0-11.035 7.465-18.535t18.5-7.5q11.035 0 18.535 7.465t7.5 18.5q0 11.035-7.465 18.535t-18.5 7.5ZM800-266v-300q0-5.95 4.035-9.975 4.035-4.025 10-4.025t9.965 4.025q4 4.025 4 9.975v300q0 5.95-4.035 9.975-4.035 4.025-10 4.025T804-256.025q-4-4.025-4-9.975Z"/></svg>