<svg xmlns="http://www.w3.org/2000/svg" height="20" viewBox="0 -960 960 960" width="20"><path d="m872-202-92-92v-279H500L379-694 271-802h76q23.467 0 44.733 8.5Q413-785 431-767l76 76h273q49.7 0 83.85 34.15Q898-622.7 898-573v297q0 19.933-7.5 38.967Q883-218 872-202Zm-692 44q-49 0-83.5-34.5T62-276v-408q0-41.7 25-72.85Q112-788 150-798h24l114 114H180v408h395L65-784q-14-14-13.5-30.5T65-844q14-14 31-14t31 14l718.658 718.658Q859-111.818 859-94.909t-13 30.387Q833-51 816-51.5T786-65l-93-93H180Zm189-322Zm211-14Z"/></svg>