<svg xmlns="http://www.w3.org/2000/svg" height="20" viewBox="0 -960 960 960" width="20"><path d="M479.768-61.52q-32.594 0-55.573-24.824-22.978-24.824-22.978-60.742h157.566q0 36.218-23.211 60.892T479.768-61.52ZM371.152-199.608q-16.964 0-28.602-11.589-11.637-11.59-11.637-28.722 0-16.892 11.476-28.53 11.476-11.638 28.44-11.638h218.019q16.964 0 28.602 11.43 11.637 11.43 11.637 28.327 0 16.896-11.476 28.809t-28.44 11.913H371.152Zm-55.239-133.001Q248.826-374 210.804-443.305q-38.022-69.304-38.022-148.522 0-127.772 89.586-217.213 89.586-89.44 217.566-89.44 127.979 0 217.632 89.44 89.652 89.441 89.652 217.213 0 79.783-38.022 148.805T644.087-332.609H315.913Z"/></svg>