<svg xmlns="http://www.w3.org/2000/svg" height="20" viewBox="0 -960 960 960" width="20"><path d="M479.752-35Q445-35 420.5-62.65T396-131h168q0 41-24.748 68.5t-59.5 27.5ZM370.283-187q-18.258 0-30.77-12.589Q327-212.179 327-230.789q0-18.186 12.351-30.698Q351.702-274 369.96-274h219.757q18.258 0 30.77 12.307Q633-249.386 633-231.193 633-213 620.649-200t-30.609 13H370.283ZM312-330q-71-44-112.5-117T158-604q0-133.75 93.882-227.375Q345.765-925 479.882-925 614-925 708-831.375T802-604q0 85-41.5 157.5T648-330H312Z"/></svg>