<svg xmlns="http://www.w3.org/2000/svg" height="20" viewBox="0 -960 960 960" width="20"><path d="m369.774-204-20.227-44.983L460.943-359H535v67.636L619-279l26-84h128q10.542-27.045 16.771-56.523Q796-449 796-479.413 796-566 751.5-637 707-708 634-746v80.042h-92.2V-550H449v116h-63l-86.345-116H262v46.565l-64 69.166Q211-357 256-296.5T369.774-204ZM658-410H542v-69h116v69Zm-10.68-239L713-628l-36 111-65-22 35.32-110ZM495-62q-87 0-162.987-32.584-75.988-32.583-132.917-89.512t-89.512-132.917Q77-393 77-480q0-88 32.584-163.487 32.583-75.488 89.512-132.417t132.917-89.512Q408-898 495-898q88 0 163.487 32.584 75.488 32.583 132.417 89.512t89.512 132.417Q913-568 913-480q0 87-32.584 162.987-32.583 75.988-89.512 132.917T658.487-94.584Q583-62 495-62Z"/></svg>