<svg xmlns="http://www.w3.org/2000/svg" height="24" viewBox="0 -960 960 960" width="24"><path d="m360-606 94-156q5-8 11.75-11t14.25-3q7.5 0 14.25 3T506-762l94 156q5 7.5 5 15.75T601-575q-4 7-10.6 11t-15.4 4H385q-8.914 0-15.6-4.125T359-575q-4-6.677-4-14.839Q355-598 360-606Zm340.235 486Q642-120 601-160.765q-41-40.764-41-99Q560-318 600.765-359q40.764-41 99-41Q758-400 799-359.235q41 40.764 41 99Q840-202 799.235-161q-40.764 41-99 41ZM160-170.034v-180.202q0-12.764 8.635-21.264 8.634-8.5 21.399-8.5h180.202q12.764 0 21.264 8.635 8.5 8.634 8.5 21.399v180.202q0 12.764-8.635 21.264-8.634 8.5-21.399 8.5H189.764Q177-140 168.5-148.635q-8.5-8.634-8.5-21.399Z"/></svg>