<svg xmlns="http://www.w3.org/2000/svg" height="20" viewBox="0 -960 960 960" width="20"><path d="M818.077-600H282.846Q235-600 201.5-568.077 168-536.154 168-488.538v199.923q0 8.461 4.231 13.846 4.23 5.384 11.154 9.231l60.692-205.847q5.461-17.615 20.231-29.423 14.769-11.807 34.154-11.807h535.923q27.538 0 45.692 22.461 18.154 22.462 8.692 50.539l-50.846 171.231q-5.692 16.077-13.308 26.23Q817-232 798.154-232H188q-24.308 0-38.154-14.846Q136-261.692 136-284v-387.385q0-22.308 16.154-39.461Q168.307-728 192.615-728H344q10.923 0 22.115 4.231 11.193 4.23 18.885 12.923L463.846-632h304.539q18.692 0 30.115 8.692 11.423 8.693 19.577 23.308Z"/></svg>