<svg xmlns="http://www.w3.org/2000/svg" height="24" viewBox="0 -960 960 960" width="24"><path d="M421-174q-9.792 0-17.89-5.982Q395.013-185.965 392-196l-24-86q-51-27-83.5-80T252-480q0-65 32.5-118t83.5-80l24-86q3.013-10.035 11.11-16.018Q411.208-786 421-786h118q9.792 0 17.89 5.982Q564.987-774.035 568-764l24 86q51 27 83.5 80T708-480q0 65-32.5 118T592-282l-24 86q-3.013 10.035-11.11 16.018Q548.792-174 539-174H421Zm59-106q83 0 141.5-58.5T680-480q0-83-58.5-141.5T480-680q-83 0-141.5 58.5T280-480q0 83 58.5 141.5T480-280Zm-78-414q21-7 39.83-10.5Q460.661-708 480-708q19.339 0 38.17 3.5Q537-701 558-694l-18-64H420l-18 64Zm18 492h120l18-64q-21 7-39.83 10-18.831 3-38.17 3-19.339 0-38.17-3Q423-259 402-266l18 64Zm-18-556h156-156Zm18 556h-18 156-138Z"/></svg>