<svg xmlns="http://www.w3.org/2000/svg" height="20" viewBox="0 -960 960 960" width="20"><path d="M264.211-191.694q-20.016 0-33.766-13.54t-13.75-33.555q0-20.015 13.54-33.765 13.539-13.75 33.554-13.75 20.016 0 33.766 13.539 13.75 13.54 13.75 33.555t-13.54 33.765q-13.539 13.751-33.554 13.751Zm432 0q-20.016 0-33.766-13.54t-13.75-33.555q0-20.015 13.54-33.765 13.539-13.75 33.554-13.75 20.016 0 33.766 13.539 13.75 13.54 13.75 33.555t-13.54 33.765q-13.539 13.751-33.554 13.751Zm-324 139.478q-20.016 0-33.766-13.54t-13.75-33.555q0-20.015 13.54-33.765 13.539-13.75 33.554-13.75 20.016 0 33.766 13.539 13.75 13.54 13.75 33.555t-13.54 33.766q-13.539 13.75-33.554 13.75Zm108-139.478q-20.016 0-33.766-13.54t-13.75-33.555q0-20.015 13.54-33.765 13.539-13.75 33.554-13.75 20.016 0 33.766 13.539 13.75 13.54 13.75 33.555t-13.54 33.765q-13.539 13.751-33.554 13.751Zm108 139.478q-20.016 0-33.766-13.54t-13.75-33.555q0-20.015 13.54-33.765 13.539-13.75 33.554-13.75 20.016 0 33.766 13.539 13.75 13.54 13.75 33.555t-13.54 33.766q-13.539 13.75-33.554 13.75ZM295-331.478q-90.087 0-151.044-65.232-60.957-65.231-60.957-156.769 0-80.391 53.631-139.5 53.63-59.109 132.891-70.37 33.366-56.533 89.575-89.332 56.208-32.798 120.457-32.798 87.611 0 153.203 54.5t82.984 138.63q68.695 6.392 114.978 57.859 46.283 51.468 46.283 122.011 0 75.088-52.792 128.044Q771.417-331.478 696-331.478H295Z"/></svg>