<svg xmlns="http://www.w3.org/2000/svg" height="24" viewBox="0 -960 960 960" width="24"><path d="M240-215.385q-10.462 0-17.539-7.076-7.076-7.077-7.076-17.539 0-10.462 7.076-17.539 7.077-7.076 17.539-7.076 10.462 0 17.539 7.076 7.076 7.077 7.076 17.539 0 10.462-7.076 17.539-7.077 7.076-17.539 7.076Zm480 0q-10.462 0-17.539-7.076-7.076-7.077-7.076-17.539 0-10.462 7.076-17.539 7.077-7.076 17.539-7.076 10.462 0 17.539 7.076 7.076 7.077 7.076 17.539 0 10.462-7.076 17.539-7.077 7.076-17.539 7.076Zm-360 160q-10.462 0-17.539-7.077-7.076-7.076-7.076-17.538t7.076-17.538q7.077-7.077 17.539-7.077 10.462 0 17.539 7.076 7.076 7.077 7.076 17.539 0 10.462-7.076 17.538-7.077 7.078-17.539 7.078Zm120-160q-10.462 0-17.539-7.076-7.076-7.077-7.076-17.539 0-10.462 7.076-17.539 7.077-7.076 17.539-7.076 10.462 0 17.539 7.076 7.076 7.077 7.076 17.539 0 10.462-7.076 17.539-7.077 7.076-17.539 7.076Zm120 160q-10.462 0-17.539-7.077-7.076-7.076-7.076-17.538t7.076-17.538q7.077-7.077 17.539-7.077 10.462 0 17.539 7.076 7.076 7.077 7.076 17.539 0 10.462-7.076 17.538-7.077 7.078-17.539 7.078ZM300-340q-83.308 0-141.654-58.346Q100-456.692 100-540q0-77.615 52.308-134.231 52.307-56.615 131-65.308 29.762-56.281 81.381-88.371Q416.308-860 479.704-860q86.45 0 148.335 57.115 61.884 57.116 72.038 142.346 73.615 4.462 116.769 51.231Q860-562.539 860-499.768q0 66.307-46.667 113.037Q766.667-340 700-340H300Z"/></svg>