<svg xmlns="http://www.w3.org/2000/svg" height="20" viewBox="0 -960 960 960" width="20"><path d="M184-734.769V-776h41.231v41.231H184Zm137.692 0V-776h41.231v41.231h-41.231Zm275.385 0V-776h41.231v41.231h-41.231Zm137.692 0V-776H776v41.231h-41.231ZM184-597.077v-41.231h41.231v41.231H184Zm550.769 0v-41.231H776v41.231h-41.231ZM184-321.692v-41.231h41.231v41.231H184Zm550.769 0v-41.231H776v41.231h-41.231ZM184-184v-41.231h41.231V-184H184Zm137.692 0v-41.231h41.231V-184h-41.231Zm275.385 0v-41.231h41.231V-184h-41.231Zm137.692 0v-41.231H776V-184h-41.231Zm-275.384 0v-275.385H184v-41.23h275.385V-776h41.23v275.385H776v41.23H500.615V-184h-41.23Z"/></svg>