<svg xmlns="http://www.w3.org/2000/svg" height="24" viewBox="0 -960 960 960" width="24"><path d="M100.782-762.261v-96.957h96.957v96.957h-96.957Zm165.652 0v-96.957h96.957v96.957h-96.957Zm330.74 0v-96.957h96.957v96.957h-96.957Zm165.087 0v-96.957h96.957v96.957h-96.957ZM100.782-596.609v-96.957h96.957v96.957h-96.957Zm661.479 0v-96.957h96.957v96.957h-96.957Zm-661.479 330.74v-96.957h96.957v96.957h-96.957Zm661.479 0v-96.957h96.957v96.957h-96.957ZM100.782-100.782v-96.957h96.957v96.957h-96.957Zm165.652 0v-96.957h96.957v96.957h-96.957Zm330.74 0v-96.957h96.957v96.957h-96.957Zm165.087 0v-96.957h96.957v96.957h-96.957Zm-330.74 0v-330.739H100.782v-96.958h330.739v-330.739h96.958v330.739h330.739v96.958H528.479v330.739h-96.958Z"/></svg>