<svg xmlns="http://www.w3.org/2000/svg" height="20" viewBox="0 -960 960 960" width="20"><path d="M438.132-373.001h149.303q20.417 0 34.709 14.292 14.291 14.292 14.291 34.709t-14.291 34.709q-14.292 14.292-34.709 14.292h-267.43q-20.049 0-34.506-14.307-14.456-14.307-14.456-34.694v-267.391q0-20.417 14.291-34.709 14.292-14.292 34.709-14.292t34.709 14.292q14.292 14.292 14.292 34.709v150.998l217.912-217.912q14.957-14.957 33.979-14.957t33.978 14.957q14.957 14.957 14.957 34.261 0 19.305-14.957 34.262L438.132-373.001Z"/></svg>