<svg xmlns="http://www.w3.org/2000/svg" height="20" viewBox="0 -960 960 960" width="20"><path d="M751.154-442q-6.615 0-11.346-4.269-4.731-4.27-5.193-11.116-5.769-27.692-15.461-52.73-9.692-25.039-25.077-47.193-3.923-5.615-3.962-12.692-.038-7.077 5.116-11.231 5.308-6.077 12.808-5.731 7.5.347 10.884 6.116 17.846 27.077 28.77 58.077 10.923 31 17.923 64.923 1.692 7-2.77 11.423Q758.385-442 751.154-442ZM520-110.615q0-7.616 4.654-12.231 4.654-4.616 10.5-6.077 24.923-5 48.961-14.308 24.039-9.307 46.193-25.692 5.615-3.923 10.692-3.962 5.077-.038 10.231 5.116 6.077 5.308 5.231 10.423-.847 5.115-5.616 9.5-25.307 17.846-53.692 32.154-28.385 14.308-58.538 20.308-7.001 2.692-12.808-2.654Q520-103.384 520-110.615Zm181.231-112.154q-3.385-4.154-3.731-9.731-.346-5.577 2.577-11.192 15.385-23.154 25.077-48.693 9.692-25.538 15.461-53.23.462-6.846 5.577-11.116Q751.308-361 757.154-361q7.462 0 11.808 4.423t2.654 11.423q-6.231 33.154-17.154 64.539-10.923 31.384-29.539 57.461-3.384 4.769-10.384 5.116-7 .346-13.308-4.731ZM426.384-95.615q-105.307-16.769-173.846-99.808Q184-278.461 184-387q0-123.077 85.461-209.039Q354.923-682 479-682h46.615L451-756.615q-6.385-6.385-6.385-12.154 0-5.77 5.616-11.385 6.384-6.385 11.654-6.385 5.269 0 10.884 6.385l97.308 96.538q4.231 4.231 6.346 8.693 2.116 4.461 2.116 9.923 0 6.461-2.116 10.923-2.115 4.462-6.346 8.692l-96.538 95.539q-6.385 6.384-11.654 6.384-5.27 0-11.654-6.384-6.385-6.385-6.385-11.654t6.385-11.654L527.077-650H479q-111 0-187 76.5T216-386q0 94.077 60.231 167.385 60.23 73.307 154.384 92.23 5.846 1.462 9.616 6.077Q444-115.692 444-109.846q0 6.231-5.308 11.077-5.307 4.846-12.308 3.154Z"/></svg>