<svg xmlns="http://www.w3.org/2000/svg" height="20" viewBox="0 -960 960 960" width="20"><path d="M197.077-464.769h611.692q6.8 0 11.4-4.547 4.6-4.548 4.6-11.27 0-6.722-4.6-11.453-4.6-4.73-11.4-4.73H196.308L385.43-685.186q5.16-5.16 4.903-11.295-.256-6.134-5.102-11.114-5.359-5.482-11.141-5.482t-11.398 5.615L155.615-500.385q-4.231 4.631-6.346 9.495-2.115 4.864-2.115 10.423t2.15 10.782q2.15 5.223 6.311 9.3l207.077 207.077q5.423 5.616 11.558 5.116t10.981-5.637q5.615-5.325 5.231-11.915-.385-6.589-5.231-11.102L197.077-464.769Z"/></svg>