<svg xmlns="http://www.w3.org/2000/svg" height="24" viewBox="0 -960 960 960" width="24"><path d="M480-24.413 344.898-157.406H157.37v-187.398L24.413-480l132.993-135.202V-802.87h187.398L480-936.065l135.205 133.187h187.673v187.673L936.065-480 802.874-344.898v187.528H615.196L480-24.413Zm.098-223.957q96.554 0 164.163-67.489 67.608-67.489 67.608-164.113t-67.636-164.261q-67.637-67.636-164.261-67.636t-164.113 67.628Q248.37-576.612 248.37-480q0 96.513 67.587 164.071 67.588 67.559 164.141 67.559ZM480-332.196q-60.969 0-104.387-43.417Q332.196-419.031 332.196-480q0-61.166 43.417-104.724Q419.031-628.282 480-628.282q61.166 0 104.724 43.558Q628.282-541.166 628.282-480q0 60.969-43.558 104.387Q541.166-332.196 480-332.196Z"/></svg>