<svg xmlns="http://www.w3.org/2000/svg" height="20" viewBox="0 -960 960 960" width="20"><path d="M347.692-539.692v-44.923h57.231q16.477 0 27.623-11.146 11.146-11.147 11.146-27.624v-21.538q0-16.477-11.146-27.623t-27.623-11.146H336q-5.067 0-8.38 3.302-3.312 3.303-3.312 8.354 0 5.051 3.312 8.39 3.313 3.338 8.38 3.338h84.308v44.923h-57.231q-16.477 0-27.623 11.146-11.146 11.147-11.146 27.624V-528q0 5.067 3.292 8.38 3.292 3.312 8.326 3.312h95.706q5.035 0 8.548-3.302 3.512-3.303 3.512-8.354 0-5.051-3.312-8.39-3.313-3.338-8.38-3.338h-84.308Zm249.231 0h-83.958q-5.016 0-8.529 3.302-3.513 3.303-3.513 8.354 0 5.051 3.313 8.39 3.313 3.338 8.379 3.338h92.924q6.277 0 10.523-4.246 4.246-4.246 4.246-10.523v-137.846q0-6.277-4.246-10.523-4.246-4.246-10.523-4.246h-92.924q-5.066 0-8.379 3.302-3.313 3.303-3.313 8.354 0 5.051 3.313 8.39 3.313 3.338 8.379 3.338h84.308v44.923h-32.615q-6.154 0-10.77 4.616-4.615 4.615-4.615 10.769t4.615 10.769q4.616 4.616 10.77 4.616h32.615v44.923ZM240.615-184q-24.315 0-40.465-16.15Q184-216.3 184-240.615v-478.77q0-24.315 16.15-40.465Q216.3-776 240.615-776h478.77q24.315 0 40.465 16.15Q776-743.7 776-719.385v478.77q0 24.315-16.15 40.465Q743.7-184 719.385-184h-478.77Zm0-32h478.77q9.23 0 16.923-7.692Q744-231.385 744-240.615v-478.77q0-9.23-7.692-16.923Q728.615-744 719.385-744h-478.77q-9.23 0-16.923 7.692Q216-728.615 216-719.385v478.77q0 9.23 7.692 16.923Q231.385-216 240.615-216ZM216-744v528-528Zm107.692 323.692h56.616V-336q0 5.067 3.302 8.38 3.303 3.312 8.354 3.312 5.051 0 8.39-3.312 3.338-3.313 3.338-8.38v-84.308h56.616V-288q0 5.067 3.302 8.38 3.303 3.312 8.354 3.312 5.051 0 8.39-3.312 3.338-3.313 3.338-8.38v-144q0-5.585-3.053-8.639-3.054-3.053-8.639-3.053H312q-5.585 0-8.639 3.053-3.053 3.054-3.053 8.639v144q0 5.067 3.302 8.38 3.303 3.312 8.354 3.312 5.051 0 8.39-3.312 3.338-3.313 3.338-8.38v-132.308Zm240 96H648q5.585 0 8.639-3.053 3.053-3.054 3.053-8.639v-96q0-5.585-3.053-8.639-3.054-3.053-8.639-3.053h-96q-5.067 0-8.38 3.297-3.312 3.298-3.312 8.341v143.677q0 5.044 3.302 8.557 3.303 3.512 8.354 3.512 5.051 0 8.39-3.312 3.338-3.313 3.338-8.38v-36.308Zm0-23.384v-72.616h72.616v72.616h-72.616Z"/></svg>