<svg xmlns="http://www.w3.org/2000/svg" height="20" viewBox="0 -960 960 960" width="20"><path d="M480.413-100Q392-100 330-161.707 268-223.414 268-312v-336q0-88.586 61.587-150.293Q391.174-860 479.587-860T630-798.293Q692-736.586 692-648v336q0 88.586-61.587 150.293Q568.826-100 480.413-100Zm-.187-20Q560-120 616-176.16T672-312v-336q0-79.68-56.226-135.84t-136-56.16Q400-840 344-783.84T288-648v336q0 79.68 56.226 135.84t136 56.16Zm.009-536Q497-656 508.5-667.735q11.5-11.736 11.5-28.5Q520-713 508.265-724.5q-11.736-11.5-28.5-11.5Q463-736 451.5-724.265q-11.5 11.736-11.5 28.5Q440-679 451.735-667.5q11.736 11.5 28.5 11.5Zm-98.27 176q11.035 0 18.535-7.465t7.5-18.5q0-11.035-7.465-18.535t-18.5-7.5Q371-532 363.5-524.535t-7.5 18.5q0 11.035 7.465 18.535t18.5 7.5Zm98 0q11.035 0 18.535-7.465t7.5-18.5q0-11.035-7.465-18.535t-18.5-7.5Q469-532 461.5-524.535t-7.5 18.5q0 11.035 7.465 18.535t18.5 7.5Zm98 0q11.035 0 18.535-7.465t7.5-18.5q0-11.035-7.465-18.535t-18.5-7.5Q567-532 559.5-524.535t-7.5 18.5q0 11.035 7.465 18.535t18.5 7.5Zm-196 110q11.035 0 18.535-7.465t7.5-18.5q0-11.035-7.465-18.535t-18.5-7.5Q371-422 363.5-414.535t-7.5 18.5q0 11.035 7.465 18.535t18.5 7.5Zm196 0q11.035 0 18.535-7.465t7.5-18.5q0-11.035-7.465-18.535t-18.5-7.5Q567-422 559.5-414.535t-7.5 18.5q0 11.035 7.465 18.535t18.5 7.5Zm-98 0q11.035 0 18.535-7.465t7.5-18.5q0-11.035-7.465-18.535t-18.5-7.5Q469-422 461.5-414.535t-7.5 18.5q0 11.035 7.465 18.535t18.5 7.5Zm-98 110q11.035 0 18.535-7.465t7.5-18.5q0-11.035-7.465-18.535t-18.5-7.5Q371-312 363.5-304.535t-7.5 18.5q0 11.035 7.465 18.535t18.5 7.5Zm196 0q11.035 0 18.535-7.465t7.5-18.5q0-11.035-7.465-18.535t-18.5-7.5Q567-312 559.5-304.535t-7.5 18.5q0 11.035 7.465 18.535t18.5 7.5Zm-98 0q11.035 0 18.535-7.465t7.5-18.5q0-11.035-7.465-18.535t-18.5-7.5Q469-312 461.5-304.535t-7.5 18.5q0 11.035 7.465 18.535t18.5 7.5ZM480-480Z"/></svg>