<svg xmlns="http://www.w3.org/2000/svg" height="20" viewBox="0 -960 960 960" width="20"><path d="M480-250.001q95.833 0 162.916-67.083T709.999-480q0-93.076-63.653-159.615-63.653-66.538-156.345-69.615v233.245L324.616-310.769q30.693 27.769 70.346 44.268 39.654 16.5 85.038 16.5Zm.343 134q-75.112 0-141.48-28.42-66.369-28.42-116.182-78.21-49.814-49.791-78.247-116.087t-28.433-141.673q0-75.378 28.42-141.246 28.42-65.869 78.21-115.682 49.791-49.814 116.087-78.247t141.673-28.433q75.378 0 141.246 28.42 65.869 28.42 115.682 78.21 49.814 49.791 78.247 115.853t28.433 141.173q0 75.112-28.42 141.48-28.42 66.369-78.21 116.182-49.791 49.814-115.853 78.247t-141.173 28.433Z"/></svg>