<svg xmlns="http://www.w3.org/2000/svg" height="24" viewBox="0 -960 960 960" width="24"><path d="M480-240q100 0 170-70t70-170q0-100-70-170t-170-70v240L310-310q35 33 78.5 51.5T480-240Zm0 179.218q-87.522 0-163.906-32.96-76.385-32.96-132.888-89.464-56.504-56.503-89.464-132.888Q60.782-392.478 60.782-480t32.96-163.906q32.96-76.385 89.464-132.888 56.503-56.504 132.888-89.464 76.384-32.96 163.906-32.96t163.906 32.96q76.385 32.96 132.888 89.464 56.504 56.503 89.464 132.888 32.96 76.384 32.96 163.906t-32.96 163.906q-32.96 76.385-89.464 132.888-56.503 56.504-132.888 89.464Q567.522-60.782 480-60.782Z"/></svg>