<svg xmlns="http://www.w3.org/2000/svg" height="20" viewBox="0 -960 960 960" width="20"><path d="m609-656-78 189q-10 22 3.5 41t37.565 19Q585-407 596-414q11-7 16-19l97-231q1-2 3-14.762v-28.048q0-15.38-10.395-25.785Q691.211-743 676-743H532q-18.3 0-30.65 12.289-12.35 12.29-12.35 30.5Q489-682 501.85-669T533-656h76ZM347-229q-49.7 0-83.85-34.15Q229-297.3 229-347v-456q0-49.7 34.15-83.85Q297.3-921 347-921h456q49.7 0 83.85 34.15Q921-852.7 921-803v456q0 49.7-34.15 83.85Q852.7-229 803-229H347ZM157-39q-49.7 0-83.85-34.15Q39-107.3 39-157v-515q0-24.3 17.29-41.65Q73.578-731 97.79-731q24.21 0 41.71 17.35T157-672v515h515q24.3 0 41.65 17.289 17.35 17.29 17.35 41.5Q731-74 713.65-56.5T672-39H157Z"/></svg>