<svg xmlns="http://www.w3.org/2000/svg" height="20" viewBox="0 -960 960 960" width="20"><path d="M598-674 492-423q-2 6 1 9.5t9.065 3.5q2.935 0 6.435-1.5 3.5-1.5 4.5-5.5l107-255v-11.81q0-4.38-2.895-7.285Q614.211-694 610-694H490q-4.3 0-7.15 2.789-2.85 2.79-2.85 7 0 4.211 2.85 7.211t7.15 3h108ZM318-292q-22.7 0-37.35-14.65Q266-321.3 266-344v-416q0-22.7 14.65-37.35Q295.3-812 318-812h416q22.7 0 37.35 14.65Q786-782.7 786-760v416q0 22.7-14.65 37.35Q756.7-292 734-292H318Zm-92 92q-22.7 0-37.35-14.65Q174-229.3 174-252v-426q0-4.3 2.789-7.15 2.79-2.85 7-2.85 4.211 0 7.211 2.85t3 7.15v426q0 12 10 22t22 10h426q4.3 0 7.15 2.789 2.85 2.79 2.85 7 0 4.211-2.85 7.211t-7.15 3H226Z"/></svg>