<svg xmlns="http://www.w3.org/2000/svg" height="20" viewBox="0 -960 960 960" width="20"><path d="M732.462-229.077q32.307 0 55.23-22.923 22.923-22.923 22.923-55.231 0-32.307-22.923-55.23-22.923-22.923-55.23-22.923-32.308 0-55.231 22.923-22.923 22.923-22.923 55.23 0 32.308 22.923 55.231 22.923 22.923 55.231 22.923Zm-2.616 69.231q-4.077 0-7.961-3.154-3.885-3.154-3.577-7.23l-3.154-21.001q-24.769-5-41.5-14.192t-30.039-26.115l-22 8.461q-4.846 1.462-7.807.539-2.962-.923-4.885-4.539l-3.385-4.538q-1.923-3.616-2.461-6.808-.539-3.192 2.846-7.346l16.308-16.077q-7.616-23.231-7.616-44.385 0-21.153 7.616-44.384l-15.308-15.077q-2.616-3.385-3.346-6.462-.731-3.077 1.192-7.692l3.385-4.539q1.923-4.615 5.769-5.538t8.692.538l20 7.462q13.308-18.692 30.539-28t42-13.308l3.154-21.231q-.308-4.077 4.077-7.115 4.384-3.039 8.461-3.039h3.231q4.077 0 8.462 2.654 4.384 2.654 4.077 6.731l3.153 22q24.77 5 42.5 13.808 17.731 8.808 30.039 27.5l21-7.462q4.846-1.461 7.808-.038 2.961 1.423 4.884 5.038l3.385 4.539q1.923 3.615 1.961 6.808.039 3.192-3.346 7.346l-14.307 14.077q7.615 23.231 7.115 44.884-.5 21.654-8.115 44.885L858-246.769q2.616 3.384 3.346 6.961.731 3.577-1.192 7.193l-3.384 4.538q-1.924 3.616-5.27 4.539-3.346.923-8.192-.539l-22-7.461Q808-214.615 791.269-205.423q-16.73 9.192-41.5 14.192L745.616-170q.307 4.077-3.577 7.116-3.885 3.038-7.962 3.038h-4.231ZM192.615-232Q169-232 152.5-248.5 136-265 136-288.615v-382.77Q136-696 152.5-712q16.5-16 40.115-16H344q10.923 0 21.615 4.231 10.693 4.23 19.385 12.923L463.846-632h303.539Q792-632 808-616q16 16 16 40.615v39.77q-24.384-8.077-48.077-12.231Q752.231-552 728.692-552q-110.846 0-181.807 81.885-70.962 81.884-58.962 187.654 2 12.846 4.577 25.461 2.577 12.616 5.731 25H192.615Z"/></svg>