<svg xmlns="http://www.w3.org/2000/svg" height="20" viewBox="0 -960 960 960" width="20"><path d="M732.184-480q-6.723 0-11.453-4.518Q716-489.036 716-495.714v-161.978l-65.846 64.846q-5.615 5.615-12.039 4.846-6.423-.769-11.403-5.615-5.481-5.359-5.481-10.642 0-5.282 5.615-10.897l85.677-84.907q8.554-8.555 19.659-8.555 11.105 0 19.433 8.693l85.677 84.907q4.708 4.708 4.323 10.813-.384 6.105-5.23 10.972Q831.872-588 825.667-588q-6.206 0-11.03-4.57L748-658.461v162.533q0 6.769-4.547 11.349Q738.906-480 732.184-480ZM181.151-168.307q-18.639 0-26.395-15.77Q147-199.846 157.923-214L269-363.385q8.538-10.923 22.769-10.923 14.231 0 22.923 10.923l121.616 163.078h335.538l-216-288-98 163.692-44.385-27.693L533-512.616q8.538-10.923 22.769-10.923 14.231 0 22.923 10.923L802.077-214q10.923 14.154 3.02 29.923-7.904 15.77-25.866 15.77h-598.08Zm276.695-32Z"/></svg>