<svg xmlns="http://www.w3.org/2000/svg" height="20" viewBox="0 -960 960 960" width="20"><path d="M128.479-87.521q-30.914 0-44.305-27.066-13.392-27.065 5.13-51.848L248.826-379.13Q263.782-398.783 288-398.5q24.218.282 39.174 19.37l124.13 166.173q9 10.434 23.283 12.934 14.283 2.5 25.717-5.5 12.435-9 14.652-23.717 2.218-14.717-6.217-26.152L405-394.696 512.826-539.13q14.956-19.653 39.174-19.653t39.174 19.653l279.522 372.695q18.522 24.783 5.13 51.848-13.391 27.066-44.305 27.066H128.479ZM735.957-491.87q-20.087 0-34.544-14.457-14.457-14.457-14.457-34.544v-82.911l-11.086 11.651q-14.957 14.391-34.044 13.043-19.087-1.347-33.478-15.739-14.957-14.957-14.957-34.544 0-19.587 14.957-34.544l93-93q14.956-14.957 34.609-14.957 19.652 0 34.609 14.957l93.435 94q14.956 14.392 14.956 33.762 0 19.369-14.956 34.326-13.827 13.826-32.849 14.674-19.022.848-33.978-12.413l-12.217-11.216v82.911q0 20.087-14.456 34.544-14.457 14.457-34.544 14.457Z"/></svg>