<svg xmlns="http://www.w3.org/2000/svg" height="24" viewBox="0 -960 960 960" width="24"><path d="M823.999-250.924 622.463-452.075v-11.001H764V-520q0-117.231-82-198.615Q600-800 484-800q-44 0-84.654 13.077-40.654 13.077-73.654 36.462l-43.383-42.153q39.23-30.769 91.23-49.077 52-18.308 110.461-18.308 70.154 0 131.999 26.462 61.846 26.461 108.154 72.769 46.307 46.307 73.076 108.153 26.77 61.846 26.77 132.615v269.076Zm9.848 213.077L799.384-72.31H484v-59.999h255.386l-47.693-47.692h-69.23v-69.23L231.847-639.848q-12.462 26.308-20.154 57.27Q204-551.616 204-520v56.924h141.537v283.075H144.001V-520q0-46.154 11.039-87t32.193-78.077L41.847-830.463l42.768-42.152L876-80.615l-42.153 42.768Z"/></svg>