<svg xmlns="http://www.w3.org/2000/svg" height="24" viewBox="0 -960 960 960" width="24"><path d="M220-209.231q-8.5 0-14.25-5.758-5.75-5.757-5.75-14.269 0-8.511 5.75-14.242 5.75-5.731 14.25-5.731h44.615v-316.923q0-78.384 49.616-137.884Q363.846-763.539 440-778.154V-800q0-16.667 11.64-28.334Q463.28-840 479.91-840q16.629 0 28.359 11.666Q520-816.667 520-800v21.846q76.154 14.615 125.769 74.116 49.616 59.5 49.616 137.884v316.923H740q8.5 0 14.25 5.758t5.75 14.269q0 8.512-5.75 14.242-5.75 5.731-14.25 5.731H220Zm260-286.154Zm-.136 390.77q-26.71 0-45.595-18.981-18.884-18.981-18.884-45.635h129.23q0 26.846-19.02 45.731-19.021 18.885-45.731 18.885ZM304.615-249.231h350.77v-316.923q0-72.923-51.231-124.154-51.231-51.23-124.154-51.23t-124.154 51.23q-51.231 51.231-51.231 124.154v316.923Zm175.412-198.461q8.512 0 14.242-5.75 5.731-5.75 5.731-14.25V-620q0-8.5-5.758-14.25-5.757-5.75-14.269-5.75t-14.242 5.75Q460-628.5 460-620v152.308q0 8.5 5.758 14.25 5.757 5.75 14.269 5.75ZM480-335.385q10.462 0 17.539-7.076 7.076-7.077 7.076-17.539 0-10.462-7.076-17.539-7.077-7.076-17.539-7.076-10.462 0-17.539 7.076-7.076 7.077-7.076 17.539 0 10.462 7.076 17.539 7.077 7.076 17.539 7.076Z"/></svg>