<svg xmlns="http://www.w3.org/2000/svg" height="20" viewBox="0 -960 960 960" width="20"><path d="M123.732-384q-15.211 0-25.71-10.35-10.5-10.35-10.5-25.65v-216q0-15.3 10.289-25.65Q108.1-672 123.31-672q15.21 0 25.71 10.35t10.5 25.65v216q0 15.3-10.289 25.65-10.29 10.35-25.5 10.35Zm712.957 96q-15.21 0-25.71-10.35t-10.5-25.65v-216q0-15.3 10.289-25.65 10.29-10.35 25.5-10.35 15.211 0 25.711 10.35 10.5 10.35 10.5 25.65v216q0 15.3-10.29 25.65Q851.9-288 836.689-288ZM329.523-87.521q-41.005 0-69.503-28.499-28.499-28.498-28.499-69.503v-588.954q0-41.005 28.499-69.503 28.498-28.499 69.503-28.499h300.954q41.005 0 69.503 28.499 28.499 28.498 28.499 69.503v588.954q0 41.005-28.499 69.503-28.498 28.499-69.503 28.499H329.523Zm0-218.002h300.954v-348.954H329.523v348.954Z"/></svg>