<svg xmlns="http://www.w3.org/2000/svg" height="20" viewBox="0 -960 960 960" width="20"><path d="M184.491-404q-6.722 0-11.453-4.6-4.731-4.6-4.731-11.4v-216q0-6.8 4.548-11.4 4.547-4.6 11.269-4.6t11.453 4.6q4.73 4.6 4.73 11.4v216q0 6.8-4.547 11.4-4.547 4.6-11.269 4.6Zm591.385 96q-6.722 0-11.453-4.6-4.73-4.6-4.73-11.4v-216q0-6.8 4.547-11.4 4.547-4.6 11.269-4.6t11.453 4.6q4.731 4.6 4.731 11.4v216q0 6.8-4.547 11.4-4.548 4.6-11.27 4.6ZM328.923-136q-24.315 0-40.465-16.15-16.151-16.15-16.151-40.465v-574.77q0-24.315 16.151-40.465Q304.608-824 328.923-824h302.154q24.315 0 40.465 16.15 16.151 16.15 16.151 40.465v574.77q0 24.315-16.151 40.465Q655.392-136 631.077-136H328.923Zm-24.615-132h351.384v-424H304.308v424Z"/></svg>