<svg xmlns="http://www.w3.org/2000/svg" height="24" viewBox="0 -960 960 960" width="24"><path d="M100.782-60.782V-734.13h170.739q0-86.392 60.761-147.435Q393.043-942.61 480-942.61t147.718 60.98q60.761 60.98 60.761 147.499h170.739v673.35H100.782ZM480-379.65q86.957 0 147.718-60.761 60.761-60.761 60.761-147.718H582.477q0 43.217-29.63 72.847-29.63 29.631-72.847 29.631t-72.847-29.631q-29.63-29.63-29.63-72.847H271.521q0 86.957 60.761 147.718Q393.043-379.651 480-379.651Zm-102.477-354.48h204.954q0-43.217-29.63-72.847-29.63-29.631-72.847-29.631t-72.847 29.631q-29.63 29.63-29.63 72.847Z"/></svg>