<svg xmlns="http://www.w3.org/2000/svg" height="24" viewBox="0 -960 960 960" width="24"><path d="M140.001-100.001v-599.998h160q0-74.922 52.538-127.46Q405.078-879.997 480-879.997t127.461 52.538q52.538 52.538 52.538 127.46h160v599.998H140.001ZM200-160h560v-480H200v480Zm280-260.001q74.922 0 127.461-52.538Q659.999-525.078 659.999-600H600q0 50-35 85t-85 35q-50 0-85-35t-35-85h-59.999q0 74.922 52.538 127.461Q405.078-420.001 480-420.001ZM360-699.999h240q0-50-35-85t-85-35q-50 0-85 35t-35 85ZM200-160v-480 480Z"/></svg>