<svg xmlns="http://www.w3.org/2000/svg" height="20" viewBox="0 -960 960 960" width="20"><path d="M287-144q-79.365 0-135.183-55.817Q96-255.635 96-335q0-81 60-135.5T298-525L167-813q-8-18 2.25-34.5T200-864h162q21.467 0 38.733 11Q418-842 427-822l53 116 53-116q9-20 26.267-31 17.266-11 38.733-11h162q20.5 0 30.75 16.5T793-813L662-527q83 0 142.5 55T864-336q0 80.291-55.855 136.145Q752.291-144 672-144q-11 0-21-1.5t-20-3.5q43-34 66-82.758Q720-280.516 720-336q0-100-70-170t-170-70q-100 0-170 70t-70 170q0 55 23 104t66 83q-11 2-21 3.5t-21 1.5Zm193-24q-70 0-119-49t-49-119q0-70 49-119t119-49q70 0 119 49t49 119q0 70-49 119t-119 49Zm0-116 52 39q5 4 10.5.062Q548-248.875 546-255l-20-64 51-37q5-4 3.333-10-1.666-6-8.333-6h-63.038L489-440q-1.778-6-8.889-6-7.111 0-9.111 6l-19.962 68H388q-6.667 0-8.333 6Q378-360 383-356l51 37-20 64q-2 6.125 3.5 10.062Q423-241 428-245l52-39Z"/></svg>