<svg xmlns="http://www.w3.org/2000/svg" height="24" viewBox="0 -960 960 960" width="24"><path d="M820.471-292q-28.53 0-48.5-19.833Q752-331.667 752-360v-100q0-29 19.971-48.5 19.97-19.5 48.5-19.5Q849-528 868.5-508.5 888-489 888-460v100q0 28.333-19.5 48.167Q849-292 820.471-292ZM792-151v-33q-55-10-98-50.5T643-338q-2-10 7-16t20-6q11 0 19 6t10 16q8 43 42.031 72t79 29Q865-237 899-265.5q34-28.5 42-70.5 2-11 10.357-17.5t19.5-6.5Q982-360 990-353t6 18q-8 62-51 101.5T848-184v33q0 11.2-8 19.6-8 8.4-19.5 8.4t-20-8.4q-8.5-8.4-8.5-19.6ZM303-501q-75-12-117.5-68T143-691q0-66 43-121.5T304-881q3.37 0 6.62.444 3.25.445 6.38 1.556-32 34-54 84t-22 104q0 54 20.5 103.5T315-503q-2.889 1.111-5.889 1.556-3 .444-6.111.444ZM-33-223v-33q0-29 10.5-55.5T9-358q23-22 58-40t83-24q-36 34-52.5 75T81-256v21q0 32 9.5 63t33.5 63H81q-48 0-81-33t-33-81Zm548.018-274Q435-497 378-553.982q-57-56.983-57-137Q321-771 377.982-827.5q56.983-56.5 137-56.5Q595-884 652-827.306T709-691q0 80.025-56.982 137.013Q595.035-497 515.018-497Zm-.053-126Q543-623 563-642.965q20-19.964 20-48Q583-719 563.035-738.5q-19.964-19.5-48-19.5Q487-758 467-738.319 447-718.638 447-691q0 28.05 19.965 48.025 19.964 19.975 48 19.975ZM161-235v-21q0-45 22.5-81t60.5-56q51-26 119.5-45T515-457q18 0 40 2t41 4q-16 27-23 60t-6 63q-13-2-26-2.5t-26-.5q-67 0-119.5 15T307-283q-10 5-15 13.233-5 8.234-5 17.767v17h299q14 38 44.5 72t68.5 54H287q-53 0-89.5-36.5T161-235Zm354-456Zm0 456Z"/></svg>