<svg xmlns="http://www.w3.org/2000/svg" height="24" viewBox="0 -960 960 960" width="24"><path d="M280-300h200q8.5 0 14.25-5.758 5.75-5.757 5.75-14.269t-5.75-14.242Q488.5-340 480-340H280q-8.5 0-14.25 5.758-5.75 5.757-5.75 14.269t5.75 14.242Q271.5-300 280-300Zm399.973-360q-8.512 0-14.242 5.75Q660-648.5 660-640v320q0 8.5 5.758 14.25 5.757 5.75 14.269 5.75t14.242-5.75Q700-311.5 700-320v-320q0-8.5-5.758-14.25-5.757-5.75-14.269-5.75ZM280-460h200q8.5 0 14.25-5.758 5.75-5.757 5.75-14.269t-5.75-14.242Q488.5-500 480-500H280q-8.5 0-14.25 5.758-5.75 5.757-5.75 14.269t5.75 14.242Q271.5-460 280-460Zm0-160h200q8.5 0 14.25-5.758 5.75-5.757 5.75-14.269t-5.75-14.242Q488.5-660 480-660H280q-8.5 0-14.25 5.758-5.75 5.757-5.75 14.269t5.75 14.242Q271.5-620 280-620Zm-95.385 460Q157-160 138.5-178.5 120-197 120-224.615v-510.77Q120-763 138.5-781.5 157-800 184.615-800h590.77Q803-800 821.5-781.5 840-763 840-735.385v510.77Q840-197 821.5-178.5 803-160 775.385-160h-590.77Z"/></svg>