<svg xmlns="http://www.w3.org/2000/svg" height="20" viewBox="0 -960 960 960" width="20"><path d="M329-748h395q27.65 0 45.825 18.175Q788-711.65 788-684v396l-32-32v-364q0-14-9-23t-23-9H361l-32-32Zm327 330v-11q0-6 5.1-9t10.9-3h-3q6.8 0 11.4 4.6 4.6 4.6 4.6 10.4v8q0 7-4 10t-8 7l-16-17h-1Zm-83-166h66q18 0 32 14t14 32v2q0 5.8-4.1 10.4-4.1 4.6-11.9 4.6h3q-7.8 0-11.9-4-4.1-4-4.1-9v-5q0-6-5-11t-11-5h-78q-6 0-11 5t-5 11v9l-26-27v5q9-14 23-23t30-9Zm-15 66Zm-115 45Zm-66-111 29 29h-85q-6 0-11 5t-5 11v117q0 6 5 11t11 5h78q6 0 11-5t5-11v-5q0-5 4.1-9.5T431-441h-3q7.8 0 11.9 4.403 4.1 4.403 4.1 9.274v4.597Q444-405 430-391t-31.558 14h-76.884Q304-377 290-391t-14-31.562v-115.876Q276-556 290-570t31.827-14H377ZM215-746l30 30h-9q-12 0-22 10t-10 22v408q0 12 10 22t22 10h436L100.809-816.17Q97-820 96.5-825.789q-.5-5.79 4.5-11Q106-842 112.5-842t11.388 4.904L859-101q4 4.429 4.5 10.5T859-79q-5.421 5-11 5t-11-5L704-212H236q-27.65 0-45.825-18.175Q172-248.35 172-276v-408q0-22.172 11.5-39.086Q195-740 215-746Z"/></svg>