<svg xmlns="http://www.w3.org/2000/svg" height="20" viewBox="0 -960 960 960" width="20"><path d="M317.692-760h413.693q29.265 0 48.94 19.675Q800-720.65 800-691.385v414.693l-44-44v-370.693q0-10.769-6.923-17.692T731.385-716H361.692l-44-44Zm339.231 341.077v-8.462q0-6.692 5.446-10.269t11.939-3.577h1.615q7.262 0 12.323 5.062 5.062 5.061 5.062 11.554v10.077q0 7.923-4.231 11.846t-9.154 7.923l-23.154-24.154h.154ZM573-587.692h75.231q17.769 0 31.423 13.653 13.654 13.654 13.654 31.424V-536q0 6.492-4.677 11.554-4.677 5.061-12.708 5.061h-1.615q-8.031 0-12.708-4.461-4.677-4.462-4.677-10.154v-5q0-4.615-3.846-8.461-3.846-3.847-8.462-3.847h-78q-4.615 0-8.461 3.847-3.846 3.846-3.846 8.461v16.616l-33.846-34.847v3.846q7.846-14.923 21.846-24.615 14-9.692 30.692-9.692Zm-14.538 69.23Zm-124.924 52.616Zm-60-121.846 36.385 36.384h-93.538q-4.616 0-8.462 3.847-3.846 3.846-3.846 8.461v117q0 4.615 3.846 8.461 3.846 3.847 8.462 3.847h78q4.615 0 8.461-3.847 3.846-3.846 3.846-8.461v-5q0-5.692 4.677-10.538 4.677-4.847 12.708-4.847h1.615q8.031 0 12.708 4.75 4.677 4.749 4.677 10.312v9.213q0 17.495-13.654 31.149-13.654 13.653-30.981 13.653h-86.115q-17.327 0-30.981-13.653-13.654-13.654-13.654-30.985v-125.108q0-17.331 13.654-30.985 13.654-13.653 31.25-13.653h60.942ZM204.384-756.846 245.231-716h-16.616q-9.23 0-16.923 7.692Q204-700.615 204-691.385v422.77q0 9.23 7.692 16.923Q219.385-244 228.615-244h426.539L90.424-809.709q-5.655-5.676-6.04-14.004-.384-8.327 6.231-15.153 6.616-6.826 15.769-6.826 9.154 0 15.658 6.519l733.727 734.711q5.846 6.275 6.231 14.77.385 8.494-6.231 15.538-7.036 6.616-15.269 6.616t-15.269-6.616L699.154-200H228.615q-29.265 0-48.94-19.675Q160-239.35 160-268.615v-422.77q0-23.095 11.961-40.817 11.962-17.721 32.423-24.644Z"/></svg>