<svg xmlns="http://www.w3.org/2000/svg" height="20" viewBox="0 -960 960 960" width="20"><path d="m749.218-106.391-67.391-66.391H222.783q-46.305 0-72.153-25.848-25.848-25.848-25.848-72.153v-417.434q0-10.087 1.347-19.109 1.348-9.022 4.609-16.544L115-740.174q-12.13-11.797-12.13-27.877 0-16.079 12.13-28.21 12.13-12.13 28.493-12.13 16.362 0 28.159 12.13L805.87-162.609q12.131 11.767 11.848 27.928-.283 16.16-12.413 28.29-12.131 12.13-28.21 12.13-16.08 0-27.877-12.13ZM301.342-361h90.882q21.646 0 38.102-16.457 16.457-16.456 16.457-38.269v-16.684q0-9.567-7.731-16.035-7.73-6.468-18.226-6.468h-16.435q-10.495 0-18.791 6.565-8.296 6.565-8.296 16.261v5.565h-60.477v-90.825h21l-55.305-54.74-13.87-14.434q-9.434 6.695-15.652 17.672-6.217 10.977-6.217 23.85v129.479q0 21.607 16.457 38.063Q279.696-361 301.342-361Zm533.876 115.435L702.435-378.349v-16q5.174-3.435 8.76-7.608 3.587-4.174 3.587-11.419V-422.261q0-9.93-6.882-17.096-6.883-7.165-17.379-7.165h-12.66q-5.335 0-9.055 2.956-3.719 2.957-3.719 8.565v16h1.696l-89.261-85.261v-22.216h54.651v4.435q0 9.695 8.296 16.261 8.296 6.565 18.791 6.565h16.435q10.496 0 18.226-7.165 7.731-7.166 7.731-17.661v-12.956q0-22.088-16.457-38.544Q668.738-592 646.651-592h-90.455q-12.546 0-21.914 6.681-9.369 6.681-12.76 17.318v7.739L294.565-787.218h442.652q46.305 0 72.153 25.848 25.848 25.848 25.848 72.153v443.652Z"/></svg>