<svg xmlns="http://www.w3.org/2000/svg" height="20" viewBox="0 -960 960 960" width="20"><path d="m743-116-77-76H216q-35 0-53.5-18.5T144-264v-431q0-5 .5-9.5t1.5-7.5l-31-31q-11-10.667-11-25.333Q104-783 115-794q11-11 25.667-11 14.666 0 25.333 11l628 628q11 10.636 11 24.818Q805-127 794-116q-11 11-25.667 11-14.666 0-25.333-11ZM281.558-361h116.884Q415-361 427.5-373.5t12.5-29.226v-24.597q0-7.871-6.6-13.774Q426.8-447 418-447h-17q-8.8 0-15.4 6t-6.6 14v5h-78v-114h21l-44-44-15-15q-10 5-16.5 14.846T240-558v155.48q0 16.52 12.5 29.02t29.058 12.5ZM816-245 703-358v-16q8-4 13-11t5-17.636V-420q0-8.8-6.6-15.4T699-442H681.818q-8.727 0-15.273 5.5Q660-431 660-422v16l-87-83v-42h75v5q0 8 6.6 14t15.4 6h17q8.8 0 15.4-6.6T709-528v-22q0-17-12.5-29.5T667-592H554.5q-15.938 0-26.719 10.638Q517-570.725 517-555v10L294-768h450q35 0 53.5 18.5T816-696v451Z"/></svg>