<svg xmlns="http://www.w3.org/2000/svg" height="24" viewBox="0 -960 960 960" width="24"><path d="M276-834h472q53 0 89.5 36.5T874-708v472L748-362v-346H402L276-834Zm393 391q0-2 1.2-3.5t2.8-1.5h12q11 0 17.5 7.2T709-424v5q0 3.462-1 6.731-1 3.269-3 7.269l-38-38h2ZM563-600h82q26 0 44.5 18.5T708-537v9q0 11-8.1 18t-18.9 7h-19q-11 0-20-7t-9-18v-4h-45v10l-60-60v-1q6-8 15-12.5t20-4.5Zm12 65Zm-174 94Zm-25-159 68 68H328v104h49v-6q0-11 9-18t20-7h19q10.8 0 18.9 7 8.1 7 8.1 18v11q0 26-18.5 44.5T389-360h-74q-26 0-44.5-18.5T252-423v-114q0-26 18.5-44.5T315-600h61ZM155-821l113 113h-56v456h378L55-787q-14-14.133-14-33.567Q41-840 55.105-854t33.5-14Q108-868 122-854l747 747q14 14.182 14 33.09Q883-55 868.895-41q-14.106 14-33.5 14Q816-27 802-41l-86-85H212q-53 0-89.5-36.5T86-252v-456q0-37 19-67t50-46Z"/></svg>