<svg xmlns="http://www.w3.org/2000/svg" height="20" viewBox="0 -960 960 960" width="20"><path d="M48.825-406.999v-98.002h149.652v98.002H48.825Zm203.348-207.175L146.782-720.13l69.088-69.654 105.956 105.957-69.653 69.653Zm-12.06 405.522q-23.199 0-39.33-16.018-16.131-16.018-16.131-39.217 0-23.199 16.018-39.33 16.018-16.131 39.217-16.131 23.199 0 39.33 16.018 16.131 16.018 16.131 39.217 0 23.199-16.018 39.33-16.018 16.131-39.217 16.131Zm30.364-186.347v-49.131q0-87.593 61.031-148.558 61.031-60.964 148.718-60.964 87.687 0 148.492 60.964 60.805 60.965 60.805 148.558v46.87l-419.046 2.261Zm89.636 330.347q-23.199 0-39.33-16.018-16.131-16.018-16.131-39.217 0-23.199 16.018-39.33 16.018-16.131 39.217-16.131 23.199 0 39.33 16.018 16.131 16.018 16.131 39.217 0 23.2-16.018 39.33-16.018 16.131-39.217 16.131Zm120-144q-23.199 0-39.33-16.018-16.131-16.018-16.131-39.217 0-23.199 16.018-39.33 16.018-16.131 39.217-16.131 23.199 0 39.33 16.018 16.131 16.018 16.131 39.217 0 23.199-16.018 39.33-16.018 16.131-39.217 16.131Zm-49.114-517v-149.653h98.002v149.653h-98.002ZM600.113-70.304q-21.243 0-35.526-14.17-14.283-14.17-14.283-35.413 0-21.243 14.17-35.526 14.17-14.283 35.413-14.283 21.243 0 35.526 14.17 14.283 14.17 14.283 35.413 0 21.243-14.17 35.526-14.17 14.283-35.413 14.283Zm107.149-543.87-69.088-69.653 105.391-105.957 69.653 69.654-105.956 105.956Zm12.851 405.522q-23.199 0-39.33-16.018-16.131-16.018-16.131-39.217 0-23.199 16.018-39.33 16.018-16.131 39.217-16.131 23.199 0 39.33 16.018 16.131 16.018 16.131 39.217 0 23.199-16.018 39.33-16.018 16.131-39.217 16.131Zm41.41-198.347v-98.002h149.652v98.002H761.523Z"/></svg>