<svg xmlns="http://www.w3.org/2000/svg" height="20" viewBox="0 -960 960 960" width="20"><path d="M338-169v-69l-97-97q-18-18-26.5-39.389Q206-395.778 206-419v-169q0-49.7 34.15-84.35Q274.3-707 324-707h45l-53 66v-150q0-24.3 17.289-41.65 17.29-17.35 41.5-17.35 24.211 0 41.58 17.35T433.738-791v85H526v-85q0-24.3 17.289-41.65 17.29-17.35 41.5-17.35Q609-850 626.5-832.65T644-791v150l-53-66h45q49.7 0 83.85 34.65Q754-637.7 754-588v169q0 23.222-8.5 44.611Q737-353 719-335l-97 97v69q0 24.3-17.35 41.65Q587.3-110 563-110H397q-24.3 0-41.65-17.35Q338-144.7 338-169Z"/></svg>