<svg xmlns="http://www.w3.org/2000/svg" height="20" viewBox="0 -960 960 960" width="20"><path d="M456-222.783h48v-56.826l137.217-137.217v-176.391H318.783v176.391L456-279.609v56.826Zm-98.001 49.001v-65.088L249.695-347.173q-14.957-14.957-21.935-32.65-6.978-17.694-6.978-37.003v-176.391q0-41.005 28.498-69.786t69.503-28.781h48.913l-43.001 56.436v-150.87q0-20.387 14.246-34.694 14.246-14.306 34.544-14.306 20.298 0 34.624 14.306 14.325 14.307 14.325 34.694v95h114.87v-95q0-20.387 14.246-34.694 14.246-14.306 34.544-14.306 20.297 0 34.754 14.306 14.457 14.307 14.457 34.694v150.87l-43.001-56.436h48.913q41.005 0 69.503 28.781 28.498 28.781 28.498 69.786v176.391q0 19.309-6.978 37.003-6.978 17.693-21.935 32.65L602.001-238.87v65.088q0 20.387-14.306 34.694-14.307 14.306-34.694 14.306H406.999q-20.387 0-34.694-14.306-14.306-14.307-14.306-34.694ZM480-405Z"/></svg>