<svg xmlns="http://www.w3.org/2000/svg" height="24" viewBox="0 -960 960 960" width="24"><path d="M450.769-200h58.462v-83.231L640-414v-161.385q0-9.23-7.692-16.923Q624.615-600 615.385-600h-270.77q-9.23 0-16.923 7.692Q320-584.615 320-575.385V-414l130.769 130.769V-200Zm-40 7.693v-73.847L299.154-377.769q-8.693-8.692-13.923-20.714Q280-410.504 280-423.769v-151.443q0-26.725 18.981-45.757Q317.961-640 344.615-640h49.231l-20 20v-160q0-8.5 5.758-14.25 5.757-5.75 14.269-5.75 8.511 0 14.242 5.75 5.731 5.75 5.731 14.25v140h132.308v-140q0-8.5 5.758-14.25 5.757-5.75 14.269-5.75t14.242 5.75q5.731 5.75 5.731 14.25v160l-20-20h49.231q26.654 0 45.634 19.028Q680-601.943 680-575.222v151.42q0 12.956-5.231 25.148-5.23 12.193-13.923 20.885L549.231-266.154v73.847q0 13.73-9.288 23.019-9.289 9.288-23.02 9.288h-73.846q-13.731 0-23.019-9.288-9.289-9.289-9.289-23.019ZM480-400Z"/></svg>