<svg xmlns="http://www.w3.org/2000/svg" height="20" viewBox="0 -960 960 960" width="20"><path d="M288.332-136Q264-136 248-152.15t-16-40.465v-574.77q0-24.315 16.15-40.465Q264.3-824 288.615-824h283.539q11.265 0 22.286 4.231 11.021 4.23 18.714 12.923l97.692 97.692q8.693 7.693 12.923 18.714Q728-679.419 728-668.154v475.539q0 24.315-16.162 40.465Q695.676-136 671.344-136H288.332ZM568-692q0 11.9 8.05 19.95Q584.1-664 596-664h100L568-792v100ZM464.252-368v92q0 6.8 4.632 11.4 4.631 4.6 11.377 4.6 6.745 0 11.281-4.6 4.536-4.6 4.536-11.4v-92h91.688q6.734 0 11.484-4.547t4.75-11.269q0-6.723-4.6-11.327-4.6-4.605-11.4-4.605h-92v-92.168q0-6.836-4.608-11.46Q486.785-508 479.973-508t-11.392 4.624Q464-498.752 464-491.916v92.168h-92q-6.8 0-11.4 4.632-4.6 4.631-4.6 11.143 0 6.812 4.624 11.392 4.624 4.581 11.46 4.581h92.168Z"/></svg>