<svg xmlns="http://www.w3.org/2000/svg" height="24" viewBox="0 -960 960 960" width="24"><path d="M440-353.782v80q0 17 11.5 28.5t28.5 11.5q17 0 28.5-11.5t11.5-28.5v-80h80q17 0 28.5-11.5t11.5-28.5q0-17-11.5-28.5t-28.5-11.5h-80v-80q0-17-11.5-28.5t-28.5-11.5q-17 0-28.5 11.5t-11.5 28.5v80h-80q-17 0-28.5 11.5t-11.5 28.5q0 17 11.5 28.5t28.5 11.5h80Zm-193.217 293q-44.305 0-75.153-30.848-30.848-30.848-30.848-75.153v-626.434q0-44.305 30.848-75.153 30.848-30.848 75.153-30.848h277.391q21.225 0 40.461 7.978 19.235 7.978 34.192 22.935l189.478 189.478q14.957 14.957 22.935 34.192 7.978 19.236 7.978 40.461v437.391q0 44.305-30.848 75.153-30.848 30.848-75.153 30.848H246.783Zm266.434-585.436v-146.999H246.783v626.434h466.434v-426.434H566.218q-22.088 0-37.544-15.457-15.457-15.456-15.457-37.544ZM246.783-793.217v200-200 626.434-626.434Z"/></svg>