<svg xmlns="http://www.w3.org/2000/svg" height="20" viewBox="0 -960 960 960" width="20"><path d="M553-118q-54 0-92-38t-38-92q0-36 14.5-70.5t42-64Q507-412 546-433t88-30q-2-34-16.5-49.5T580-528q-30 0-64.5 25T436-421q-63 80-105.5 111.5T245-278q-51 0-87.5-36T121-407q0-48 22-101.5T219-641q21-30 30.5-47.5T259-717q0-6-2-8.5t-6-2.5q-5 0-10 3t-12 8q-18 15-38 15.5T156-715q-16-16-16.5-39t14.5-37q26-23 52-33.5t48-10.5q46 0 79 34t33 82q0 29-15.5 63.5T298-567q-38 57-54.5 93.5T227-412q0 14 4.5 21t12.5 7q14 0 39.5-24.5T362-499q57-71 109-103t109-32q72 0 113 47.5T741-468h45q22 0 37.5 15.5T839-415q0 22-15.5 37.5T786-362h-45q-8 98-55 171t-133 73Zm4-107q31 0 49.5-37.5T633-354q-49 13-76 43.5T530-254q0 13 7.5 21t19.5 8Z"/></svg>