<svg xmlns="http://www.w3.org/2000/svg" height="20" viewBox="0 -960 960 960" width="20"><path d="M570-93q-63 0-107-47t-44-113q0-42 18-78.5t47.5-66Q514-427 552-447t77-27q-1-20-12.5-30.5T586-515q-29 0-64 24.5T442-406q-53 73-104.5 110T237-259q-60 0-103.5-42T90-411q0-41 20.5-88.5T179-614q38-51 49-68t11-28q0-6-2.5-8.5T230-721q-3 0-4.5 1t-5.5 2q-28 18-54 18t-44-17q-21-21-22-50t20-46q28-22 59.5-34.5T239-860q56 0 95.5 41t39.5 93q0 43-18 84t-62 104q-42 59-55 83t-13 38q0 8 4 12t10 4q14 0 37.5-23t63.5-76q60-76 118.5-114T586-652q69 0 120 43t61 129h35q28 0 48 20t20 48q0 28-20 48t-48 20h-34q-12 128-71.5 189.5T570-93Zm4-140q15 0 28.5-22t25.5-78q-32 10-51.5 30.5T557-257q0 10 5 17t12 7Z"/></svg>