<svg xmlns="http://www.w3.org/2000/svg" height="24" viewBox="0 -960 960 960" width="24"><path d="M554.769-128.001q-51.076 0-84.922-34-33.846-33.999-33.846-84.692 0-32.307 14.538-65.73 14.539-33.423 42.385-62Q520.77-403 561.078-423.615q40.308-20.615 91.846-27.307-3.769-48.463-21.308-69.771-17.538-21.308-48.462-21.308-39.232 0-77.309 31.155-38.077 31.154-83 84.692Q359.846-350.463 322-318.232q-37.846 32.231-83.308 32.231-47.153 0-77.922-34.038t-30.769-85.5q0-54.538 24.846-109Q179.693-569 226.462-634.307q19.923-28.692 32.116-50.923 12.192-22.231 12.192-38.232 0-10.846-4.808-15.692-4.808-4.847-13.269-4.847-7.308 0-16.424 4.077-9.115 4.077-19.423 13.385-13.539 11.308-28.577 11.615-15.038.308-26.345-11-11.923-11.922-12.116-29.191-.192-17.269 11.5-27.577 23.231-21.23 46.385-31.269 23.153-10.038 45-10.038 42.768 0 70.422 28.461 27.654 28.461 27.654 70.845 0 31.308-17.116 66.77-17.116 35.462-48.654 79.615-34.538 49.384-54.769 91.154-20.231 41.769-20.231 77.308 0 21.616 7.423 32.731 7.424 11.116 21.27 11.116 19.693 0 44.655-24.347 24.962-24.346 78.422-87.268 56.077-66.923 107.846-105.654 51.769-38.731 113.539-38.731 70.846 0 108.192 48.307 37.346 48.308 41.576 119.693H790q16.769 0 28.384 11.615 11.615 11.615 11.615 28.384t-11.615 28.384Q806.769-374.001 790-374.001h-57.078q-6 97.616-49.576 171.808-43.577 74.192-128.577 74.192ZM556-207.999q42.846 0 67.154-48.539 24.309-48.539 29.155-113.155-61.385 10.153-98.848 47.346-37.462 37.192-37.462 73.193 0 19.385 10.885 30.27 10.885 10.885 29.116 10.885Z"/></svg>