<svg xmlns="http://www.w3.org/2000/svg" height="24" viewBox="0 -960 960 960" width="24"><path d="M220-247q-43-48-65.5-108.244Q132-415.487 132-480t22.5-124.756Q177-665 220-713q56 40 85.5 101.953t29.5 131Q335-411 305.5-349T220-247Zm260.025 115Q413-132 352-156.5T243-227q57-47 88.5-112.5T363-480q0-75-31.5-140.5T243-733q48-46 108.975-70.5 60.974-24.5 128-24.5Q547-828 608-803.5T717-733q-57 47-88.5 112.5T597-480q0 75 31.5 140.5T717-227q-48 46-108.975 70.5-60.974 24.5-128 24.5ZM740-247q-56-40-85.5-101.953t-29.5-131Q625-549 654.5-611T740-713q43 48 65.5 108.244Q828-544.513 828-480t-22.5 124.756Q783-295 740-247Z"/></svg>