<svg xmlns="http://www.w3.org/2000/svg" height="20" viewBox="0 -960 960 960" width="20"><path d="m627.413-288.957 53.63-53.63-64.456-64.217q11.761-18.379 17.402-38.712 5.641-20.332 5.641-42.764 0-66.09-45.5-111.59t-111.5-45.5q-66 0-111.5 45.706t-45.5 111q0 65.294 45.792 110.294t111.208 45q21.46 0 41.471-5.26 20.01-5.261 38.095-15.783l65.217 65.456ZM482.678-409.196q-33.374 0-57.417-22.975t-24.043-56.25q0-33.275 24.043-57.318t57.417-24.043q33.373 0 57.25 24.043 23.876 24.043 23.876 57.318t-23.876 56.25q-23.877 22.975-57.25 22.975ZM87.869-183.869v-592.262h784.262v592.262H87.869Z"/></svg>