<svg xmlns="http://www.w3.org/2000/svg" height="20" viewBox="0 -960 960 960" width="20"><path d="M116.001-212.001v-535.998h727.998v535.998H116.001ZM168-264h624v-432H168v432Zm0 0v-432 432Zm467.231-39.001 37.153-37.153-77.078-77.077q10.846-16.742 16.27-35.006 5.423-18.263 5.423-38.674 0-58.011-39.538-97.55-39.539-39.538-97.461-39.538t-97.461 39.744q-39.538 39.744-39.538 96.961 0 57.216 39.83 96.255 39.83 39.038 97.169 39.038 21.397 0 41.148-6.077 19.751-6.077 36.775-18.231l77.308 77.308ZM480-408q-35 0-60-24.099-25-24.098-25-59Q395-526 420-551t60-25q35 0 60 25t25 59.901q0 34.902-25 59Q515-408 480-408Z"/></svg>