<svg xmlns="http://www.w3.org/2000/svg" height="20" viewBox="0 -960 960 960" width="20"><path d="M136-232v-496h688v496H136Zm32-32h624v-432H168v432Zm0 0v-432 432Zm471.461-54 23.308-23.308-85.153-85.153q9.692-14.627 14.538-30.583Q597-473 597-490.911q0-49.935-33.577-83.512T480-608q-49.846 0-83.423 33.783Q363-540.435 363-491.294q0 49.14 33.868 82.217Q430.737-376 480-376q20.856 0 40.109-6.654 19.252-6.653 34.737-19.961L639.461-318ZM480-408q-35 0-60-24.099-25-24.098-25-59Q395-526 420-551t60-25q35 0 60 25t25 59.901q0 34.902-25 59Q515-408 480-408Z"/></svg>