<svg xmlns="http://www.w3.org/2000/svg" height="24" viewBox="0 -960 960 960" width="24"><path d="m323.077-123.077-40-30v-151.538H240q-26.654 0-45.635-18.981-18.981-18.981-18.981-45.635V-660h-30.769v-40h138.462v-69.231h-52.308v-40h144.616v40h-52.308V-700h138.462v40h-30.77v290.769q0 26.654-18.981 45.635-18.98 18.981-45.634 18.981h-43.077v181.538Zm333.669-21.538q-52.746 0-90.131-37.51-37.384-37.509-37.384-90.182v-280.001q0-52.673 37.561-90.183Q604.354-680 657.1-680q52.746 0 90.131 37.509 37.385 37.51 37.385 90.183v280.001q0 52.673-37.562 90.182-37.562 37.51-90.308 37.51ZM240-344.615h126.154q10.769 0 17.692-6.924 6.923-6.923 6.923-17.692v-56.923h-95.385v-35.385h95.385v-81.538h-95.385v-35.385h95.385V-660H215.385v290.769q0 10.769 6.923 17.692 6.923 6.924 17.692 6.924Zm329.231 12.307h175.384v-160H569.231v160Z"/></svg>