<svg xmlns="http://www.w3.org/2000/svg" height="20" viewBox="0 -960 960 960" width="20"><path d="M337.539-103.541 285.54-160.54v-139.769h-49.539q-26.526 0-45.416-18.89-18.891-18.89-18.891-45.417V-648H140.31v-51.999h145.23v-76.615h-56.154v-51.999h164.306v51.999h-56.153v76.615h145.23V-648h-31.385v283.384q0 26.527-18.89 45.417t-45.417 18.89h-49.538v196.768Zm322.833-24.769q-53.372 0-90.564-37.255-37.192-37.254-37.192-90.165v-268.848q0-52.912 37.28-90.166 37.281-37.255 90.653-37.255 53.373 0 90.565 37.255 37.192 37.254 37.192 90.166v268.848q0 52.911-37.281 90.165-37.28 37.255-90.653 37.255ZM236.001-352.307h151.076q5.385 0 8.847-3.462 3.462-3.462 3.462-8.847v-70.461h-93.692v-35.692h93.692v-58.77h-93.692v-35.691h93.692V-648H223.693v283.384q0 5.385 3.462 8.847 3.461 3.462 8.846 3.462Zm348.613 34.153h151.693v-144H584.614v144Z"/></svg>