<svg xmlns="http://www.w3.org/2000/svg" height="20" viewBox="0 -960 960 960" width="20"><path d="m819.826-61.521-87.652-88.217q-21 11.739-43.304 17.108-22.305 5.37-46.609 5.37-79.391 0-135.218-55.544-55.826-55.544-55.826-134.935t55.826-134.935q55.827-55.544 135.218-55.544 79.391 0 134.935 55.544t55.544 134.935q0 24.304-5.652 46.891-5.653 22.587-17.392 44.022l88.783 86.652q17.956 17.956 17.956 39.326t-17.956 39.327Q882.087-45.13 859.152-45.13T819.826-61.52ZM642.261-237.262q33.652 0 57.065-23.412 23.412-23.413 23.412-57.065t-23.412-57.347q-23.413-23.696-57.065-23.696t-57.347 23.696q-23.696 23.695-23.696 57.347t23.696 57.065q23.695 23.412 57.347 23.412Zm-576.61-20.129q-17.956-11.827-22.869-33.914-4.913-22.087 6.913-40.044L202.26-573.914q14.392-23.653 42.175-26.218 27.783-2.565 45.739 19.522l60.956 71.564 103.955-169.389q15.957-26.218 45.523-26.501 29.565-.282 46.522 24.935l75.522 112.914q-28.653 3.696-56.022 12.435-27.37 8.739-50.762 25.522l-12.478-18.217-98.825 159.129q-14.391 23.652-41.892 25.935-27.5 2.282-45.457-19.24l-62.52-70.998L143.74-272.783q-11.827 19.522-34.914 24.153-23.087 4.63-43.174-8.761Zm683.784-288.131q-27.348-13.391-56.413-17.891-29.066-4.5-59.414-4.239l183.218-295.827q12.826-20.088 35.696-25.501 22.869-5.413 42.957 8.979 17.956 12.826 22.587 34.413 4.63 21.587-7.196 39.544L749.435-545.522Z"/></svg>