<svg xmlns="http://www.w3.org/2000/svg" height="20" viewBox="0 -960 960 960" width="20"><path d="M350.257-110Q311-110 295-146t12.107-64.076l489.786-490.848Q825-729 861.5-713.5t36.5 54.715v459.974q0 36.421-25.639 62.616T810.095-110H350.257ZM708-228h72v-287l-72 71.739V-228ZM466-494q-20 0-34-14t-14-34q0-20 14-34t34-14q20 0 34 14t14 34q0 20-14 34t-34 14Zm0-157q-24 0-44.365 5.823Q401.27-639.355 385-630q-16 10-34 9.5t-32.143-13.75q-13.857-13.25-13.395-32Q305.923-685 320-696q31-22 69-35.5t77-13.5q39 0 77 13.5t69.043 35.765q13.726 10.812 14.342 29.273Q627-648 613-634q-14 13-32 13.5t-34-9.5q-16.27-9.355-36.635-15.177Q490-651 466-651Zm.5-155q-55.5 0-104.412 18.022Q313.176-769.957 274-739q-16 12-35.094 13-19.095 1-33-12.857Q192-753 191.5-771.5t12.604-30.321Q255-846 320-872t146-26q81 0 146.5 26t115.559 70.179Q741-790 740.5-771.5T726-739q-14 14-32 13t-34-12q-40-32-89-50t-104.5-18Z"/></svg>