<svg xmlns="http://www.w3.org/2000/svg" height="20" viewBox="0 -960 960 960" width="20"><path d="M743.752-703.692q-29.675 0-50.56-21.133-20.884-21.132-20.884-50.807 0-29.676 21.132-50.56 21.133-20.885 50.808-20.885t50.56 21.132q20.884 21.133 20.884 50.808t-21.132 50.56q-21.133 20.885-50.808 20.885Zm-58.521 559.384v-274.461q0-23.971-7.885-44.947-7.884-20.976-30.115-36.438l39.923-104.923q7-16.923 22.661-28.385 15.662-11.461 34.185-11.461 18.523 0 34.185 11.077 15.661 11.077 22.661 28.769l96.692 254.692q5.231 13.154-2.576 25.462-7.808 12.308-23.731 12.308h-85.385v168.307q0 12.031-8.138 20.17-8.139 8.138-20.17 8.138h-43.999q-12.031 0-20.17-8.138-8.138-8.139-8.138-20.17ZM527.909-507.077q-21.832 0-37.024-15.283-15.193-15.283-15.193-37.115 0-21.833 15.283-37.025t37.116-15.192q21.832 0 37.024 15.282 15.193 15.283 15.193 37.116 0 21.832-15.283 37.025-15.283 15.192-37.116 15.192ZM239.752-703.692q-29.675 0-50.56-21.133-20.884-21.132-20.884-50.807 0-29.676 21.132-50.56 21.132-20.885 50.808-20.885 29.675 0 50.56 21.132 20.884 21.133 20.884 50.808t-21.132 50.56q-21.132 20.885-50.808 20.885Zm-62.521 559.384v-218.769h-49.846q-12.031 0-20.17-8.138-8.138-8.139-8.138-20.17v-183.077q2-23.653 18.043-40.134t38.572-16.481h168.616q24.179 0 41.397 16.481t15.218 40.134v183.077q0 12.031-8.138 20.17-8.139 8.138-20.17 8.138h-49.846v218.769q0 12.031-8.113 20.17Q286.543-116 274.549-116h-68.748q-11.993 0-20.282-8.138-8.288-8.139-8.288-20.17Zm301.538-.065v-95.889h-7.692q-12.031 0-20.169-8.158-8.139-8.157-8.139-19.888v-150.461q0-15.513 10.859-26.372T480-456h96q15.513 0 27.372 10.859t9.859 26.372v150.461q0 12.031-8.193 20.17Q596.844-240 584.733-240h-7.693v95.692q0 12.031-8.193 20.17Q560.654-116 548.923-116h-41.522q-12.547 0-20.59-8.157-8.042-8.158-8.042-20.216Z"/></svg>