<svg xmlns="http://www.w3.org/2000/svg" height="24" viewBox="0 -960 960 960" width="24"><path d="M720-727.692q-27.923 0-47.808-19.885-19.884-19.885-19.884-47.808t19.884-47.807q19.885-19.885 47.808-19.885t47.808 19.885q19.884 19.884 19.884 47.807 0 27.923-19.884 47.808-19.885 19.885-47.808 19.885Zm-50.769 595.384v-278.461q0-34.971-15.885-62.947-15.884-27.976-47.115-44.438l41.923-109.923q8-21.923 27.961-35.385 19.962-13.461 43.885-13.461t43.885 13.077q19.961 13.077 27.961 35.769l91.692 239.692q6.231 16.154-3.576 29.962-9.808 13.808-26.731 13.808h-59.385v212.307q0 13.731-9.288 23.02-9.289 9.288-23.02 9.288h-59.999q-13.731 0-23.02-9.288-9.288-9.289-9.288-23.02ZM499.91-503.077q-21.833 0-37.025-15.283-15.193-15.283-15.193-37.115 0-21.833 15.283-37.025t37.115-15.192q21.833 0 37.025 15.282 15.193 15.283 15.193 37.116 0 21.832-15.283 37.025-15.283 15.192-37.115 15.192ZM220-727.692q-27.923 0-47.808-19.885-19.884-19.885-19.884-47.808t19.884-47.807q19.885-19.885 47.808-19.885t47.808 19.885q19.884 19.884 19.884 47.807 0 27.923-19.884 47.808-19.885 19.885-47.808 19.885Zm-70.769 595.384v-230.769h-33.846q-13.731 0-23.02-9.288-9.288-9.289-9.288-23.02v-203.077q0-26.653 18.981-45.634 18.98-18.981 45.634-18.981h144.616q26.653 0 45.634 18.981t18.981 45.634v203.077q0 13.731-9.288 23.02-9.289 9.288-23.02 9.288h-33.846v230.769q0 13.731-9.288 23.02Q272.192-100 258.462-100h-76.924q-13.73 0-23.019-9.288-9.288-9.289-9.288-23.02Zm301.538 0V-240h-7.692q-13.731 0-23.019-9.288-9.289-9.289-9.289-23.02v-138.461q0-20.513 14.359-34.872Q439.487-460 460-460h80q20.513 0 34.872 14.359 14.359 14.359 14.359 34.872v138.461q0 13.731-9.289 23.02Q570.654-240 556.923-240h-7.692v107.692q0 13.731-9.289 23.02Q530.654-100 516.923-100h-33.522q-14.247 0-23.44-9.288-9.192-9.289-9.192-23.02Z"/></svg>