<svg xmlns="http://www.w3.org/2000/svg" height="24" viewBox="0 -960 960 960" width="24"><path d="M774.133-728Q735-728 706.5-755.867q-28.5-27.867-28.5-67Q678-862 706.5-890q28.5-28 67.633-28 39.133 0 67 27.867 27.867 27.867 27.867 67Q869-784 841.133-756q-27.867 28-67 28ZM695-132v-268q0-33.846-15.5-60.923Q664-488 638-502l52-134q10-24 33.5-40t50.5-16q27 0 50.5 16t33.5 40l93 246q12 31-6.5 58T893-305h-33v173q0 26-18.5 44.5T797-69h-39q-26 0-44.5-18.5T695-132ZM500.176-492Q469-492 447-514.5q-22-22.5-22-53.676 0-31.177 21.824-53.001 21.823-21.823 53-21.823Q531-643 553-621.177q22 21.824 22 53.001Q575-537 553.177-514.5 531.353-492 500.176-492ZM174.133-728Q135-728 107-755.867q-28-27.867-28-67Q79-862 106.867-890q27.868-28 67-28Q213-918 241-890.133q28 27.867 28 67Q269-784 241.133-756q-27.868 28-67 28ZM63-132v-213q-25.5 0-42.75-17.25T3-405v-157q0-51.975 37.013-88.987Q77.025-688 129-688h90q51.975 0 88.987 37.013Q345-613.975 345-562v157q0 25.5-17.25 42.75T285-345v213q0 26-18.5 44.5T222-69h-96q-26 0-44.5-18.5T63-132Zm362 0v-100q-17 0-28.5-11.5T385-272v-93q0-39 28-67t67-28h40q39 0 67 28t28 67v93q0 17-11.5 28.5T575-232v100q0 26-18.5 44.5T512-69h-24q-26 0-44.5-18.5T425-132Z"/></svg>