<svg xmlns="http://www.w3.org/2000/svg" height="24" viewBox="0 -960 960 960" width="24"><path d="M216-560h-91.846q2.461-12.462 7.807-24.192 5.346-11.731 13.577-22.962l154.769-206q8.539-11.462 22.424-15.115 13.884-3.654 26.808 3.423l28.769 14q11 5.615 16.346 15Q400-786.462 400-775v135.538l124-32.077q15.385-4.154 28.769 3.654 13.385 7.808 18.77 22.962l68.077 204.461 176.923 176.923q13.846 13.847 18.654 29.924Q840-217.539 840-200q0 30.077-19.615 52.154-19.616 22.077-49.308 25.308h-25.384L340.154-510.385q-25.923-23.923-57.846-36.769T216-560Zm350 440q-22.308 0-42.769-7.923-20.462-7.923-37.308-23.308l-325-295q-16.692-14.692-26-33.884-9.308-19.193-12-39.885H216q26.846 0 52.192 9.539 25.346 9.538 44.654 28.846L689.923-120H566Z"/></svg>