<svg xmlns="http://www.w3.org/2000/svg" height="24" viewBox="0 -960 960 960" width="24"><path d="M216-560q34.385 0 66.308 12.846 31.923 12.846 57.846 36.769L706.769-160H760q17 0 28.5-11.5T800-200q0-8-1.5-17T788-235L605-418l-71-214-122.461 30.308Q392-596.308 376-609.154t-16-32.616V-775l-28-14-153.231 205.231q-4.077 5.615-7.154 11.5-3.076 5.884-4.846 12.269H216Zm0 40h-52.154q2.231 12.385 7.5 23t15.116 19.462L512-181q11 11 25 16t29 5h82.461L312.846-481.615q-19.308-19.308-44.654-28.846Q242.846-520 216-520Zm350 400q-22.308 0-42.769-7.923-20.462-7.923-37.308-23.308l-325-295q-34.462-32-38.808-77.615-4.346-45.616 23.423-83.308l154.769-206q8.539-11.462 22.424-15.115 13.884-3.654 26.808 3.423l28.769 14q11 5.615 16.346 15Q400-786.462 400-775v135.538l124-32.077q15.385-4.154 28.769 3.654 13.385 7.808 18.77 22.962l68.077 204.461 176.923 176.923q13.846 13.847 18.654 29.924Q840-217.539 840-200q0 33.077-23.077 56.539Q793.846-120 760-120H566Z"/></svg>