<svg xmlns="http://www.w3.org/2000/svg" height="20" viewBox="0 -960 960 960" width="20"><path d="M334.521-231.521q-20.391 0-35.717-14.937-15.327-14.938-15.327-35.541 0-20.604 15.327-35.041 15.326-14.438 35.717-14.438 20.392 0 34.935 14.225Q384-303.028 384-281.999q0 20.603-14.225 35.541-14.225 14.937-35.254 14.937Zm145.479 0q-21.028 0-35.254-14.937-14.225-14.938-14.225-35.541 0-20.604 14.225-35.041 14.226-14.438 35.254-14.438t35.254 14.225q14.225 14.225 14.225 35.254 0 20.603-14.225 35.541-14.226 14.937-35.254 14.937Zm145.479 0q-20.392 0-34.935-14.937Q576-261.396 576-281.999q0-20.604 14.225-35.041 14.225-14.438 35.254-14.438 20.391 0 35.717 14.225 15.327 14.225 15.327 35.254 0 20.603-15.327 35.541-15.326 14.937-35.717 14.937ZM245.782-403.478q-20.387 0-34.694-14.307-14.306-14.306-14.306-34.694v-49q0-101.935 67.143-178.522 67.144-76.587 167.074-93.218v-33.068q0-20.266 14.247-34.49 14.246-14.225 34.543-14.225 20.298 0 34.755 14.225 14.457 14.224 14.457 34.49v33.068q99.93 16.631 167.074 92.935 67.143 76.305 67.143 178.805v49q0 20.388-14.306 34.694-14.307 14.307-34.694 14.307H245.782Zm49.001-98.001h370.434q0-75.478-55.943-126.956-55.944-51.478-129.5-51.478T350.5-628.275q-55.717 51.638-55.717 126.796Zm39.738 396.481q-20.391 0-35.717-14.225-15.327-14.225-15.327-35.254 0-20.816 15.327-35.43 15.326-14.614 35.717-14.614 20.392 0 34.935 14.614Q384-175.293 384-154.477q0 20.817-14.225 35.148-14.225 14.331-35.254 14.331Zm145.479 0q-21.028 0-35.254-14.225-14.225-14.225-14.225-35.254 0-20.391 14.225-35.717 14.226-15.327 35.254-15.327t35.254 15.327q14.225 15.326 14.225 35.717 0 20.392-14.225 34.935-14.226 14.544-35.254 14.544Zm145.479 0q-20.392 0-34.935-14.225Q576-133.448 576-154.477q0-20.816 14.225-35.43t35.254-14.614q20.391 0 35.717 14.614 15.327 14.614 15.327 35.43 0 20.817-15.327 35.148-15.326 14.331-35.717 14.331ZM480-501.479Z"/></svg>