<svg xmlns="http://www.w3.org/2000/svg" height="20" viewBox="0 -960 960 960" width="20"><path d="M341-363h73l19-62h94l19.163 62H618L516-635h-72.591L341-363Zm107-113 32-99h1l31 99h-64Zm32.276 414Q394-62 318-94q-76-32-133.5-89t-90-132.5Q62-391 62-477.426q0-42.148 7-82.361T92-639l96 96q-4 16-6 32.5t-2 33.5q0 124 88 210.5T480-180q124 0 212-88t88-212q0-124-85.5-212t-209.339-88q-16.161 0-33.997 1.5Q433.329-777 416-773l-96-95q38-12 79-21t81-9q87 0 162.5 32.5t133 90q57.5 57.5 90 133.224 32.5 75.725 32.5 162Q898-394 865.5-318q-32.5 76-90 133.5t-133.224 90q-75.725 32.5-162 32.5ZM226-646q-36 0-61.5-26T139-734q0-36 25.5-61.5T226-821q36 0 62 25.5t26 61.5q0 36-26 62t-62 26Zm254 166Z"/></svg>