<svg xmlns="http://www.w3.org/2000/svg" height="20" viewBox="0 -960 960 960" width="20"><path d="M390.461-481.846h59.693v-80.616h59.692v80.616h59.693v-140.308L480-681.846l-89.539 59.692v140.308ZM480-177.923q109.769-93.154 176.808-193.154 67.038-100 67.038-174.077 0-105.769-68.5-176.692T480-792.769q-106.846 0-175.346 70.923t-68.5 176.692q0 74.077 67.038 174.077 67.039 100 176.808 193.154Zm0 28.154q-8.385 0-15.269-2.577-6.885-2.577-14.808-8.5-17.692-14.231-58.039-52.385-40.346-38.154-82.654-90.231-42.307-52.077-73.692-114.807Q204.154-481 204.154-545.154q0-110.923 75.154-194.885Q354.461-824 480-824q124.539 0 200.192 83.961 75.654 83.962 75.654 194.885 0 64.154-31.884 127-31.885 62.846-73.308 115.308-41.423 52.461-81.769 89.731-40.346 37.269-58.039 51.5-7.923 5.923-15.192 8.884-7.269 2.962-15.654 2.962Zm0-397.616Z"/></svg>