<svg xmlns="http://www.w3.org/2000/svg" height="24" viewBox="0 -960 960 960" width="24"><path d="M536.957-356.957h246.086v-246.086H536.957v246.086Zm-53 106.001q-22.087 0-37.544-15.457-15.457-15.457-15.457-37.544v-123.042H120q-22.087 0-37.544-15.457Q67-457.913 67-480q0-22.087 15.457-37.544Q97.913-533.001 120-533.001h310.956v-123.042q0-22.087 15.457-37.544 15.457-15.457 37.544-15.457h352.086q22.087 0 37.544 15.457 15.457 15.457 15.457 37.544v352.086q0 22.087-15.457 37.544-15.457 15.457-37.544 15.457H483.957ZM660-480Z"/></svg>