<svg xmlns="http://www.w3.org/2000/svg" height="20" viewBox="0 -960 960 960" width="20"><path d="M444-144v-120H192v-72h576v72H516v120h-72Zm-72.211-372Q387-516 397.5-526.289q10.5-10.29 10.5-25.5Q408-567 397.711-577.5q-10.29-10.5-25.5-10.5Q357-588 346.5-577.711q-10.5 10.29-10.5 25.5Q336-537 346.289-526.5q10.29 10.5 25.5 10.5Zm216 0Q603-516 613.5-526.289q10.5-10.29 10.5-25.5Q624-567 613.711-577.5q-10.29-10.5-25.5-10.5Q573-588 562.5-577.711q-10.5 10.29-10.5 25.5Q552-537 562.289-526.5q10.29 10.5 25.5 10.5ZM240-624l72-192h337l71 192v240h-72v-48H312v48h-72v-240Zm95-48h291l-26-72H362l-27 72Zm-23 72v105-105Zm0 96h336v-96H312v96Z"/></svg>