<svg xmlns="http://www.w3.org/2000/svg" height="24" viewBox="0 -960 960 960" width="24"><path d="M434.5-65.413v-127.174H152.587v-91h654.826v91H525.5v127.174h-91ZM360-511q17 0 28.5-11.5T400-551q0-17-11.5-28.5T360-591q-17 0-28.5 11.5T320-551q0 17 11.5 28.5T360-511Zm240 0q17 0 28.5-11.5T640-551q0-17-11.5-28.5T600-591q-17 0-28.5 11.5T560-551q0 17 11.5 28.5T600-511ZM192.587-628.196l78.944-230.217h416.252l79.63 230.217v304.609h-94.826v-80H287.413v80h-94.826v-304.609ZM306-691h348l-28-80H334l-28 80Z"/></svg>