<svg xmlns="http://www.w3.org/2000/svg" height="20" viewBox="0 -960 960 960" width="20"><path d="M582.154-94.154q-16.154 0-27.462-11.307-11.307-11.308-11.307-27.462v-244.923q0-16.154 11.307-27.462 11.308-11.307 27.462-11.307h244.923q16.154 0 27.462 11.307 11.307 11.308 11.307 27.462v244.923q0 16.154-11.307 27.462-11.308 11.307-27.462 11.307H582.154Zm0-38.769h244.923v-35.384q-25.154-21.385-56.269-33.308-31.116-11.923-66.193-11.923-35.076 0-66.192 11.923-31.115 11.923-56.269 33.308v35.384Zm122.461-122.462q21.154 0 35.962-14.807 14.808-14.808 14.808-35.962 0-21.154-14.808-35.961-14.808-14.808-35.962-14.808-21.153 0-35.961 14.808-14.808 14.807-14.808 35.961 0 21.154 14.808 35.962 14.808 14.807 35.961 14.807ZM456-136h3.923q-9.923 0-17.346-5.307-7.423-5.308-9.423-15.231l-15.231-81.154q-29.154-9.769-61.423-27.154-32.269-17.385-55.885-39.538l-75.077 26.461q-9.692 3.231-19-.884-9.307-4.116-14.769-12.808l-19.308-33.539q-4.692-8.692-3.461-18.615 1.23-9.923 8.923-16.385l59.615-52.385q-2.769-15.846-4.923-32.846-2.154-17-2.154-33.846 0-16.077 2.154-32.692t4.923-35.538l-59.615-52.385q-7.693-6.462-9.308-16.385-1.615-9.923 3.846-18.615l19.308-32q5.462-8.693 14.385-13.308 8.923-4.616 18.615-.385l75.077 25.693q25.923-22.923 56.269-39.923 30.346-17 61.039-27.539l16-79.615q2-9.923 10.192-16T461.461-824h36.308q9.924 0 18.5 6.077 8.577 6.077 10.577 16l15.231 80.384q33 12.077 60.654 27.539 27.654 15.461 54.346 39.154l78.154-25.693q9.692-3.231 18.615.5 8.923 3.731 14.385 12.423l19.308 32.001q5.461 8.692 3.846 19-1.615 10.307-9.308 16.769l-76.538 64.692q1 7.539 1.884 15.577.885 8.039 1.885 15.577H574.846q-5.692-34.077-31.769-57.039Q517-584 476.923-584q-43.846 0-73.923 30.077-30.077 30.077-30.077 73.923 0 37.846 23.615 65.808 23.616 27.961 59.462 34.654V-136Z"/></svg>