<svg xmlns="http://www.w3.org/2000/svg" height="20" viewBox="0 -960 960 960" width="20"><path d="M580.522-1.65q-22.12 0-37.603-15.648-15.484-15.65-15.484-38.004v-311.87q0-22.132 15.49-37.827 15.491-15.696 37.62-15.696h311.849q22.129 0 37.825 15.649 15.696 15.648 15.696 38.003v311.87q0 22.132-15.649 37.828Q914.618-1.65 892.262-1.65h-311.74Zm0-53.652h311.74v-42.713q-31.185-28.629-70.832-45.197-39.646-16.569-85.038-16.569-45.391 0-85.038 16.569-39.647 16.568-70.832 45.197v42.713Zm155.97-155.87q27.161 0 46.074-19.013 18.913-19.013 18.913-46.174 0-27.162-19.013-46.075-19.012-18.913-46.174-18.913-27.161 0-46.074 19.013-18.913 19.013-18.913 46.174 0 27.161 19.013 46.074 19.013 18.914 46.174 18.914ZM455.435-76.782h-27.522q-18.042 0-32.239-11.391-14.197-11.392-16.762-28.914l-15.435-79.912q-18.713-7.364-36.421-17.073-17.708-9.71-33.317-22.883l-76.913 26.304q-16.522 6.261-33.326-.217-16.805-6.479-26.066-22.001l-52.652-92.174q-9.261-15.522-6.32-33.088 2.943-17.565 16.711-28.304l60.478-53.609q-1.435-9.643-2.435-19.454t-1-20.454q0-10.643 1-20.454t2.435-19.55l-60.478-53.043q-13.768-10.87-16.71-28.653t6.319-33.305l52.652-91.609q9.261-14.957 26.066-21.935 16.804-6.978 33.326-.283l78.044 26.305q15.608-13.174 32.586-22.63 16.978-9.457 36.021-16.761l15.435-81.043q2.565-17.522 16.762-28.914 14.197-11.391 32.239-11.391h104.174q18.042 0 32.239 11.391 14.197 11.392 16.762 28.914l15.435 81.043q18.713 7.215 36.421 16.716 17.708 9.501 33.317 22.675l76.913-26.305q16.522-5.695 33.326.783 16.805 6.478 26.066 21.435l52.087 89.914q9.261 15.522 5.848 33.891-3.413 18.37-17.935 29.196l-66.696 55.87q1 6 1.5 12.5t1.5 12.5H621.565q-4.608-55.522-44.021-93.414Q538.13-624 478.304-624q-60 0-102 42t-42 102q0 54 34.848 93.783Q404-346.435 455.435-338v261.218Z"/></svg>