<svg xmlns="http://www.w3.org/2000/svg" height="20" viewBox="0 -960 960 960" width="20"><path d="M576-48q-20 0-34-14t-14-34v-288q0-20 14-34t34-14h288q20 0 34 14t14 34v288q0 20-14 34t-34 14H576Zm0-48h288v-40q-29-26-65.5-41T720-192q-42 0-78.5 15T576-136v40Zm144-144q25 0 42.5-17.5T780-300q0-25-17.5-42.5T720-360q-25 0-42.5 17.5T660-300q0 25 17.5 42.5T720-240ZM480-480Zm0-144q-60 0-102 42t-42 102q0 54 34 93.5t86 48.5v-74q-20-7-34-27t-14-41q0-30 21-51t51-21q23 0 41.5 13.5T548-504h73q-8-51-46-85.5T480-624ZM456-96h-23q-13 0-23.5-8T397-125l-16-85q-23-9-44.5-21T296-259l-82 28q-12 4-24-.5T171-247l-47-82q-7-11-5-24t12-21l65-57q-2-12-3-24t-1-25q0-13 1-25t3-24l-65-57q-10-8-12-21t5-24l47-82q7-11 19-16t24 0l82 28q19-16 40.5-28t44.5-21l16-85q2-13 12.5-21t23.5-8h94q13 0 23.5 8t12.5 21l16 85q23 9 44.5 21t40.5 28l82-28q12-4 24 .5t19 15.5l47 82q7 11 5 24t-12 21l-65 57q1 6 1.5 12.5T767-504h-73q-2-12-4-24.5t-7-25.5l76-67-18-30-96 32q-26-30-58-49t-70-25l-19-99h-36l-19 99q-38 7-70.5 26T315-619l-96-32-18 30 76 67q-6 18-9.5 36.5T264-480q0 20 3 38.5t9 35.5l-75 67 17 30 96-32q27 32 63.5 51t78.5 25v169Z"/></svg>