<svg xmlns="http://www.w3.org/2000/svg" height="24" viewBox="0 -960 960 960" width="24"><path d="M209.231-200H160v-313.846L246.461-760h209.385q-2.923 9.769-4 19.385Q450.769-731 450-720H275.538l-58.923 166.154h283.462q28.154 37.23 64.961 61.577 36.808 24.346 82.5 35.115-12.615 3.616-20.846 14.885t-8.231 25.346q0 18.59 13.066 31.603 13.066 13.012 31.731 13.012t31.55-13.012q12.884-13.013 12.884-31.603 0-10.385-5.115-19.231Q697.462-445 688.539-450q3.846.769 7.692.769h7.692q27.385 0 49.539-4.577T800-467.769V-200h-49.231v-80H209.231v80Zm87.873-172.308q18.665 0 31.55-13.065 12.885-13.066 12.885-31.731t-13.066-31.55q-13.066-12.885-31.731-12.885t-31.55 13.066q-12.884 13.066-12.884 31.731t13.065 31.55q13.066 12.884 31.731 12.884ZM704.3-544.615q-66.531 0-113.108-46.577t-46.577-113.713q0-66.326 46.492-113.018 46.491-46.693 113.824-46.693 66.531 0 113.108 46.577t46.577 113.424q0 66.846-46.893 113.423-46.892 46.577-113.423 46.577ZM689.231-680H720v-120h-30.769v120Zm-2.308 73.077 36.154.769.769-36.154-36.154-.769-.769 36.154Z"/></svg>