<svg xmlns="http://www.w3.org/2000/svg" height="20" viewBox="0 -960 960 960" width="20"><path d="M699.364-512Q641-512 600.5-552.66 560-593.32 560-652.376 560-712 601.039-752q41.039-40 99.822-40 58.083 0 98.611 40.726Q840-710.548 840-651.774T798.864-552.5q-41.136 40.5-99.5 40.5ZM682-672h36v-44h-36v44ZM196-196v-276l81-196h188q1 2 2.5 6t1.5 14H291l-70 180h321q10 6 18 9.5t21 10.5H216v160h528v-137q9-1 13.5-2t6.5 0v231h-4v-72H200v72h-4Zm112.235-144Q320-340 328-348.235q8-8.236 8-20Q336-380 327.765-388q-8.236-8-20-8Q296-396 288-387.765q-8 8.236-8 20Q280-356 288.235-348q8.236 8 20 8Zm344 0Q664-340 672-348.167q8-8.166 8-19.833 0-19-12-34.5T637-425q14-3 25.642-.5T684-416q-24-4-42 11t-18 37q0 11.667 8.235 19.833 8.236 8.167 20 8.167ZM216-288v-160 160Zm463-297 43 1 1-43-43-1-1 43Z"/></svg>