<svg xmlns="http://www.w3.org/2000/svg" height="20" viewBox="0 -960 960 960" width="20"><path d="M704.074-504.615q-63.305 0-107.382-44.237-44.077-44.237-44.077-108.053 0-64.326 44.492-108.018 44.491-43.693 108.274-43.693 63.024 0 107.13 44.303 44.105 44.304 44.105 107.924 0 63.62-44.619 107.697-44.618 44.077-107.923 44.077ZM685.231-672H724v-56h-38.769v56ZM184-184v-289.846L268.461-680h195.385q.077 4.769 1 11.885Q465.769-661 466-648H290.538l-64.923 166.154h306.462q10.923 9.461 20.769 16.077 9.846 6.615 25.154 15.923H216V-288h528v-133.308q12-1.23 19.615-3.038 7.616-1.808 12.385-2.423V-184h-25.231v-72H209.231v72H184Zm125.104-152.308q13.665 0 23.05-9.565 9.385-9.566 9.385-23.231 0-13.665-9.566-23.05-9.566-9.385-23.231-9.385-13.665 0-23.05 9.566-9.384 9.566-9.384 23.231 0 13.665 9.565 23.05 9.566 9.384 23.231 9.384Zm342.154 0q13.665 0 23.05-9.512 9.384-9.513 9.384-23.103 0-17.385-10.615-31.731T645.539-422q8.923-2.769 16.032-1.308 7.109 1.462 12.736 6.385-22.615-2.615-39.23 12.154-16.616 14.769-16.616 35.846 0 13.59 9.566 23.103 9.566 9.512 23.231 9.512ZM216-288v-161.846V-288Zm466.923-294.923 44.154.769.769-44.154-44.154-.769-.769 44.154Z"/></svg>