<svg xmlns="http://www.w3.org/2000/svg" height="24" viewBox="0 -960 960 960" width="24"><path d="M322-172q-12.75 0-21.375-8.625T292-202v-130H192q-12.75 0-21.375-8.625T162-362v-178q0-28.9 19.5-48.45Q201-608 230-608h500q28.9 0 48.45 19.55Q798-568.9 798-540v33q-7.849-1.4-16.424-2.2Q773-510 765-510q-65 0-119.5 32.5T560-388H320v188h223q2 8 5.5 14.5T555-172H322Zm-30-464v-60.177Q292-721 309.625-738.5T352-756h256q24.75 0 42.375 17.625T668-696v60H292Zm459 375H645q-5.95 0-9.975-4.035-4.025-4.035-4.025-10t4.025-9.965q4.025-4 9.975-4h106v-106q0-5.95 4.035-9.975 4.035-4.025 10-4.025t9.965 4.025q4 4.025 4 9.975v106h106q5.95 0 9.975 4.035 4.025 4.035 4.025 10T894.975-265q-4.025 4-9.975 4H779v106q0 5.95-4.035 9.975-4.035 4.025-10 4.025T755-145.025q-4-4.025-4-9.975v-106Z"/></svg>