<svg xmlns="http://www.w3.org/2000/svg" height="20" viewBox="0 -960 960 960" width="20"><path d="M336.308-596q-12.031 0-20.17-8.138-8.138-8.139-8.138-20.17V-792H152q-6.8 0-11.4-4.547-4.6-4.547-4.6-11.27 0-6.722 4.6-11.452Q145.2-824 152-824h656q6.8 0 11.4 4.547 4.6 4.547 4.6 11.269t-4.6 11.453Q814.8-792 808-792H652v167.416q0 12.007-8.138 20.296-8.139 8.288-20.17 8.288H336.308ZM152-136q-6.8 0-11.4-4.547-4.6-4.547-4.6-11.269t4.6-11.453Q145.2-168 152-168h156v-167.416q0-12.007 8.138-20.296 8.139-8.288 20.17-8.288h287.384q12.031 0 20.17 8.138 8.138 8.139 8.138 20.17V-168h156q6.8 0 11.4 4.547 4.6 4.548 4.6 11.27 0 6.722-4.6 11.452Q814.8-136 808-136H152Z"/></svg>