<svg xmlns="http://www.w3.org/2000/svg" height="20" viewBox="0 -960 960 960" width="20"><path d="M324-553q-24.3 0-41.65-17.35Q265-587.7 265-612v-168H121q-24.3 0-41.65-17.289Q62-814.579 62-838.789 62-863 79.35-880.5T121-898h718q24.3 0 41.65 17.289 17.35 17.29 17.35 41.5Q898-815 880.65-797.5T839-780H695v167.724Q695-588 677.65-570.5 660.3-553 636-553H324ZM121-62q-24.3 0-41.65-17.29Q62-96.579 62-120.788 62-145 79.35-162.5T121-180h144v-167.724Q265-372 282.35-389.5 299.7-407 324-407h312q24.3 0 41.65 17.35Q695-372.3 695-348v168h144q24.3 0 41.65 17.289 17.35 17.29 17.35 41.5Q898-97 880.65-79.5T839-62H121Z"/></svg>