<svg xmlns="http://www.w3.org/2000/svg" height="20" viewBox="0 -960 960 960" width="20"><path d="M324-562.999q-20.387 0-34.694-14.307-14.307-14.307-14.307-34.694v-173.217H125.782q-20.387 0-34.694-14.246-14.306-14.246-14.306-34.544 0-20.298 14.306-34.755 14.307-14.456 34.694-14.456h708.436q20.387 0 34.694 14.246 14.306 14.246 14.306 34.544 0 20.298-14.306 34.754-14.307 14.457-34.694 14.457H685.001v172.941q0 20.363-14.307 34.82T636-562.999H324ZM125.782-76.782q-20.387 0-34.694-14.246-14.306-14.246-14.306-34.544 0-20.298 14.306-34.754 14.307-14.457 34.694-14.457h149.217v-172.941q0-20.363 14.307-34.82T324-397.001h312q20.387 0 34.694 14.307 14.307 14.307 14.307 34.694v173.217h149.217q20.387 0 34.694 14.246 14.306 14.246 14.306 34.544 0 20.298-14.306 34.755-14.307 14.456-34.694 14.456H125.782Z"/></svg>