<svg xmlns="http://www.w3.org/2000/svg" height="20" viewBox="0 -960 960 960" width="20"><path d="M174-121v-445.326Q136-582 113-617.355 90-652.71 90-696q0-59.583 42.294-101.292Q174.588-839 233.794-839T334.5-797.292Q376-755.583 376-696q0 45.29-23.5 79.645T292-567v328h129v-600h365v446q37 15 60.5 49.355T870-264q0 59-41.588 101t-101 42Q669-121 626.5-163 584-205 584-264q0-41.861 23.5-77.931Q631-378 668-393.768V-721H539v600H174Zm491.281-103q17.119 0 28.919-11.581 11.8-11.58 11.8-28.7 0-17.119-11.8-28.419T665.281-304q-17.12 0-28.7 11.379Q625-281.242 625-264.421q0 16.821 11.581 28.621 11.58 11.8 28.7 11.8Zm-369.86-432q16.821 0 28.2-11.581Q335-679.161 335-696.281q0-17.119-11.379-28.419t-28.2-11.3q-16.821 0-29.121 11.379-12.3 11.379-12.3 28.2 0 16.821 12.3 28.621 12.3 11.8 29.121 11.8ZM233-696Zm494 432Z"/></svg>