<svg xmlns="http://www.w3.org/2000/svg" height="24" viewBox="0 -960 960 960" width="24"><path d="M187.087-114.5v-488.913q-35.239-13.957-57.62-45.259-22.38-31.302-22.38-71.328 0-52.292 36.624-88.896 36.625-36.604 88.946-36.604t88.876 36.604q36.554 36.604 36.554 88.896 0 40.026-22.381 71.328-22.38 31.302-57.619 45.259V-205.5H434.5v-640h338.413v488.913q35.239 13.957 57.62 45.259 22.38 31.302 22.38 71.328 0 52.152-36.575 88.826-36.576 36.674-88.826 36.674-52.251 0-88.925-36.674T601.913-240q0-39.923 22.381-71.657 22.38-31.734 57.619-44.93V-754.5H525.5v640H187.087Z"/></svg>