<svg xmlns="http://www.w3.org/2000/svg" height="20" viewBox="0 -960 960 960" width="20"><path d="M197.477-130.999v-441.848q-37.566-13.935-60.783-47.832-23.217-33.896-23.217-75.321 0-55.417 39.34-94.209t94.327-38.792q54.986 0 93.66 38.792T379.478-696q0 43.425-23.717 76.321-23.718 32.897-60.283 46.158v344.52h135.521v-600h331.524v442.522q36.566 13.261 60.283 46.158 23.717 32.896 23.717 76.321 0 55.087-38.724 94.044-38.724 38.957-94.044 38.957-54.32 0-93.776-38.957-39.457-38.957-39.457-94.044 0-40.183 23.717-74.918 23.718-34.734 60.283-48.329v-343.752H529.001v600H197.477Z"/></svg>