<svg xmlns="http://www.w3.org/2000/svg" height="20" viewBox="0 -960 960 960" width="20"><path d="M264.113-220.782q-25.2 0-43.157-17.844-17.957-17.844-17.957-43.044 0-25.2 17.844-43.156 17.844-17.957 43.044-17.957 25.2 0 43.157 17.844 17.957 17.844 17.957 43.044 0 25.2-17.844 43.157-17.844 17.956-43.044 17.956Zm120 170.002q-25.2 0-43.157-17.844-17.957-17.844-17.957-43.044 0-25.2 17.844-43.157 17.844-17.957 43.044-17.957 25.2 0 43.157 17.844 17.957 17.844 17.957 43.044 0 25.2-17.844 43.157-17.844 17.957-43.044 17.957Zm120-170.002q-25.2 0-43.157-17.844-17.957-17.844-17.957-43.044 0-25.2 17.844-43.156 17.844-17.957 43.044-17.957 25.2 0 43.157 17.844 17.957 17.844 17.957 43.044 0 25.2-17.844 43.157-17.844 17.956-43.044 17.956Zm240 0q-25.2 0-43.157-17.844-17.957-17.844-17.957-43.044 0-25.2 17.844-43.156 17.844-17.957 43.044-17.957 25.2 0 43.157 17.844 17.957 17.844 17.957 43.044 0 25.2-17.844 43.157-17.844 17.956-43.044 17.956Zm-120 170.002q-25.2 0-43.157-17.844-17.957-17.844-17.957-43.044 0-25.2 17.844-43.157 17.844-17.957 43.044-17.957 25.2 0 43.157 17.844 17.957 17.844 17.957 43.044 0 25.2-17.844 43.157-17.844 17.957-43.044 17.957ZM295-379.478q-90.087 0-151.044-65.232-60.957-65.231-60.957-156.769 0-80.391 53.539-139.07 53.539-58.68 132.983-70.8 33.261-55 89.522-88.565t120.51-33.565q87.611 0 153.203 54t82.646 139.261q69.033 9.261 115.316 59.844 46.283 50.584 46.283 119.895 0 75.088-52.792 128.044Q771.417-379.478 696-379.478H295Zm2-98.001h399q34.86 0 58.93-24.691 24.069-24.69 24.069-59.173 0-34.483-24.069-59.309-24.07-24.826-58.93-24.826h-66.001v-53.001q0-58.637-43.668-97.818t-103.288-39.181q-50.086 0-88.477 31.522-38.392 31.521-58.696 77.565l-3.23 7.913h-8.075q-56.863 1.812-100.214 33.996-43.35 32.185-43.35 85.815 0 49.536 33.692 85.362 33.693 35.826 82.307 35.826Zm183-84Z"/></svg>