<svg xmlns="http://www.w3.org/2000/svg" height="20" viewBox="0 -960 960 960" width="20"><path d="M264.113-206Q235-206 214-226.887q-21-20.888-21-50Q193-306 213.887-327q20.888-21 50-21Q293-348 314-327.113q21 20.888 21 50Q335-248 314.113-227q-20.888 21-50 21Zm120 190Q355-16 334-36.887q-21-20.888-21-50Q313-116 333.887-137q20.888-21 50-21Q413-158 434-137.113q21 20.888 21 50Q455-58 434.113-37q-20.888 21-50 21Zm120-190Q475-206 454-226.887q-21-20.888-21-50Q433-306 453.887-327q20.888-21 50-21Q533-348 554-327.113q21 20.888 21 50Q575-248 554.113-227q-20.888 21-50 21Zm240 0Q715-206 694-226.887q-21-20.888-21-50Q673-306 693.887-327q20.888-21 50-21Q773-348 794-327.113q21 20.888 21 50Q815-248 794.113-227q-20.888 21-50 21Zm-120 190Q595-16 574-36.887q-21-20.888-21-50Q553-116 573.887-137q20.888-21 50-21Q653-158 674-137.113q21 20.888 21 50Q695-58 674.113-37q-20.888 21-50 21ZM295-376q-94 0-158-68.275T73-608q0-83 54.408-144.07Q181.817-813.141 263-827q35-55 93-89t123.536-34q89.367 0 156.916 54Q704-842 723.663-755.87 794-744 840.5-691.243T887-567q0 79-55.708 135Q775.583-376 696-376H295Zm2-118h399q30.66 0 51.83-21.761 21.17-21.76 21.17-52Q769-598 747.83-620q-21.17-22-51.83-22h-76v-63q0-54.513-40.721-90.756Q538.558-832 483.077-832 436-832 400-802t-55 73l-5.714 14H325q-52.913 1.667-93.457 30.917Q191-654.833 191-605.333 191-560 221.764-527q30.765 33 75.236 33Zm183-74Z"/></svg>