<svg xmlns="http://www.w3.org/2000/svg" height="20" viewBox="0 -960 960 960" width="20"><path d="M264.113-206Q235-206 214-226.887q-21-20.888-21-50Q193-306 213.887-327q20.888-21 50-21Q293-348 314-327.113q21 20.888 21 50Q335-248 314.113-227q-20.888 21-50 21Zm120 190Q355-16 334-36.887q-21-20.888-21-50Q313-116 333.887-137q20.888-21 50-21Q413-158 434-137.113q21 20.888 21 50Q455-58 434.113-37q-20.888 21-50 21Zm120-190Q475-206 454-226.887q-21-20.888-21-50Q433-306 453.887-327q20.888-21 50-21Q533-348 554-327.113q21 20.888 21 50Q575-248 554.113-227q-20.888 21-50 21Zm240 0Q715-206 694-226.887q-21-20.888-21-50Q673-306 693.887-327q20.888-21 50-21Q773-348 794-327.113q21 20.888 21 50Q815-248 794.113-227q-20.888 21-50 21Zm-120 190Q595-16 574-36.887q-21-20.888-21-50Q553-116 573.887-137q20.888-21 50-21Q653-158 674-137.113q21 20.888 21 50Q695-58 674.113-37q-20.888 21-50 21ZM295-376q-94 0-158-68.275T73-608q0-83 54.408-144.07Q181.817-813.141 263-827q35-55 93-89t123.574-34q89.329 0 156.878 54Q704-842 723.663-755.87 794-744 840.5-691.243T887-567q0 79-55.5 135T696-376H295Z"/></svg>