<svg xmlns="http://www.w3.org/2000/svg" height="24" viewBox="0 -960 960 960" width="24"><path d="M260-216.923q-13.308 0-23.192-9.885-9.885-9.884-9.885-23.192t9.885-23.192q9.884-9.885 23.192-9.885t23.192 9.885q9.885 9.884 9.885 23.192t-9.885 23.192q-9.884 9.885-23.192 9.885Zm120 120q-13.308 0-23.192-9.885-9.885-9.884-9.885-23.192t9.885-23.192q9.884-9.885 23.192-9.885t23.192 9.885q9.885 9.884 9.885 23.192t-9.885 23.192q-9.884 9.885-23.192 9.885Zm120-120q-13.308 0-23.192-9.885-9.885-9.884-9.885-23.192t9.885-23.192q9.884-9.885 23.192-9.885t23.192 9.885q9.885 9.884 9.885 23.192t-9.885 23.192q-9.884 9.885-23.192 9.885Zm240 0q-13.308 0-23.192-9.885-9.885-9.884-9.885-23.192t9.885-23.192q9.884-9.885 23.192-9.885t23.192 9.885q9.885 9.884 9.885 23.192t-9.885 23.192q-9.884 9.885-23.192 9.885Zm-120 120q-13.308 0-23.192-9.885-9.885-9.884-9.885-23.192t9.885-23.192q9.884-9.885 23.192-9.885t23.192 9.885q9.885 9.884 9.885 23.192t-9.885 23.192q-9.884 9.885-23.192 9.885ZM300-380q-83.308 0-141.654-58.346Q100-496.692 100-580q0-77.615 52.308-134.231 52.307-56.615 131-65.308 29.762-56.281 81.381-88.371Q416.308-900 479.704-900q86.45 0 148.335 57.115 61.884 57.116 72.038 142.346 73.615 4.462 116.769 51.231Q860-602.539 860-539.768q0 66.307-46.667 113.037Q766.667-380 700-380H300Zm0-40h400q49.692 0 84.846-35.154T820-540q0-49.692-35.154-84.846T700-660h-40v-20q0-74.25-52.91-127.125T479.882-860q-54.036 0-98.446 29.333-44.411 29.334-66.897 78.975L309.813-740H298q-65.261 2.286-111.63 48.572Q140-645.143 140-580q0 66.286 46.857 113.143T300-420Zm180-120Z"/></svg>