<svg xmlns="http://www.w3.org/2000/svg" height="20" viewBox="0 -960 960 960" width="20"><path d="M132-192q-15.3 0-25.65-11Q96-214 96-229.111q0-8.889 3.867-16.569 3.866-7.681 11.6-12.199L444-491v-73q0-15.3 11.122-25.65Q466.244-600 482-600q20 0 33-14.442t13-34.5Q528-669 514-682.5T480-696q-20 0-34 14t-14 34h-72q0-50 35.202-85t85-35Q530-768 565-733.379t35 84.202Q600-609 577-576.5 554-544 516-533v42l332.533 234.043q7.734 4.536 11.6 12.246Q864-237 864-228q0 15.3-10.35 25.65Q843.3-192 828-192H132Zm114-72h468L480-428 246-264Z"/></svg>