<svg xmlns="http://www.w3.org/2000/svg" height="20" viewBox="0 -960 960 960" width="20"><path d="m210.154-247.385 118-329.384H275.77l69.384-102.999q.769-1.539.577-3.462-.193-1.923-1.347-3.077l-16.153-23.154L185.002-579.77q-8.385 7.489-12.962 17.619-4.577 10.129-4.577 21.458v224.614h-36.076v-224.614q0-18.077 7.667-35.585t21.641-30.261l174.151-157.767 41.23 56.615 38-105.538 303.537 111.384-33.616 89h12q31.154-1.539 51.962 18.307 20.808 19.846 20.808 47.154 0 7.538-2.27 14.885-2.269 7.346-5.423 14.5h8.462q25.308 2 42.192 20.447 16.885 18.447 16.885 44.629 0 28.616-19.577 47.769-19.577 19.154-48.962 20 3.539 6.685 5.231 13.689 1.692 7.004 1.692 13.004 0 26.182-16.692 44.629t-41.999 20.447h-8.847q3.154 6.769 5.615 14.5 2.462 7.731 2.462 14.885 0 27.007-19.034 46.042-19.035 19.034-46.042 19.034H535.152l-20.846 63.923-304.152-112.384Zm313.691-2.075 126.539-356.079-248.078-92.846-127.539 356.078 249.078 92.847Zm24.076 14.845h94.539q11.907 0 20.646-8.739 8.739-8.738 8.739-20.646 0-11.908-8.739-20.646-8.739-8.739-20.646-8.739h-72.693l-21.846 58.77Zm33.23-94.461h121.155q11.908 0 20.454-8.739 8.546-8.739 8.546-20.646 0-11.908-8.546-20.647-8.546-8.738-20.454-8.738h-99.924l-21.231 58.77Zm33.616-94.462h148.769q11.908 0 20.647-8.738 8.738-8.739 8.738-20.647 0-11.908-8.738-20.646-8.739-8.739-20.647-8.739H636.613l-21.846 58.77Zm34.615-94.461h53.308q11.908 0 20.647-8.739 8.738-8.738 8.738-20.646 0-11.908-8.738-20.647-8.739-8.738-20.647-8.738h-32.461l-20.847 58.77Z"/></svg>