<svg xmlns="http://www.w3.org/2000/svg" height="20" viewBox="0 -960 960 960" width="20"><path d="M196-148v-568h212v20H216v528h528v-265l20 20v265H196Zm146-118 54-70 46 50 88-108 96 128H342Zm505-166L722-557q-19 14-35.05 19.5-16.051 5.5-37.42 5.5Q600-532 566-565.5T532-648q0-49 33.5-82.5T648-764q49 0 82.5 33.449 33.5 33.45 33.5 82.377Q764-627 758-609t-21 37l125 125-15 15ZM647.775-552Q688-552 716-579.775q28-27.774 28-68Q744-688 716.225-716q-27.774-28-68-28Q608-744 580-716.225q-28 27.774-28 68Q552-608 579.775-580q27.774 28 68 28Z"/></svg>