<svg xmlns="http://www.w3.org/2000/svg" height="24" viewBox="0 -960 960 960" width="24"><path d="M140.001-140.001v-679.998H400V-760H200v560h560v-227.078l59.999 59.999v227.078H140.001Zm130.001-150 99.229-131.536 80 102.306 112.307-146.153 131.537 175.383H270.002Zm586.613-152.462L731.846-567.232q-20.616 14.384-42.115 20.808-21.5 6.423-46.962 6.423-66.307 0-112.537-46.538Q484.001-633.078 484.001-700t46.538-113.461Q577.078-859.999 644-859.999t113.461 46.538Q803.999-766.922 803.999-700q0 25.461-7.616 48.731-7.615 23.269-20.384 43.884l122.769 122.769-42.153 42.153ZM644-600q42 0 71-29t29-71q0-42-29-71t-71-29q-42 0-71 29t-29 71q0 42 29 71t71 29Z"/></svg>