<svg xmlns="http://www.w3.org/2000/svg" height="20" viewBox="0 -960 960 960" width="20"><path d="M170.956-124.782q-19.257 0-32.716-13.398-13.458-13.398-13.458-32.566 0-19.167 13.458-32.776 13.459-13.608 32.716-13.608h618.088q19.257 0 32.716 13.398 13.458 13.398 13.458 32.565 0 19.168-13.458 32.777-13.459 13.608-32.716 13.608H170.956Zm288-154.522q-19.257 0-32.716-13.398-13.458-13.398-13.458-32.565 0-19.168 13.458-32.777 13.459-13.608 32.716-13.608h330.088q19.257 0 32.716 13.398 13.458 13.398 13.458 32.565 0 19.168-13.458 32.777-13.459 13.608-32.716 13.608H458.956Zm0-154.522q-19.257 0-32.716-13.398-13.458-13.398-13.458-32.565 0-19.168 13.458-32.777 13.459-13.608 32.716-13.608h330.088q19.257 0 32.716 13.398 13.458 13.398 13.458 32.565 0 19.168-13.458 32.777-13.459 13.608-32.716 13.608H458.956Zm0-154.522q-19.257 0-32.716-13.398-13.458-13.398-13.458-32.565 0-19.168 13.458-32.777 13.459-13.608 32.716-13.608h330.088q19.257 0 32.716 13.398 13.458 13.398 13.458 32.566 0 19.167-13.458 32.776-13.459 13.608-32.716 13.608H458.956Zm-288-154.522q-19.257 0-32.716-13.398-13.458-13.398-13.458-32.565 0-19.168 13.458-32.776 13.459-13.609 32.716-13.609h618.088q19.257 0 32.716 13.398 13.458 13.398 13.458 32.566 0 19.167-13.458 32.776-13.459 13.608-32.716 13.608H170.956Zm86.609 395.654L142.643-462.139q-7.035-7.035-7.035-17.861t7.035-17.861l114.922-114.923q10.826-10.826 26.566-4.963 15.739 5.862 15.739 21.485v232.524q0 15.623-15.739 21.485-15.74 5.863-26.566-4.963Z"/></svg>