<svg xmlns="http://www.w3.org/2000/svg" height="20" viewBox="0 -960 960 960" width="20"><path d="M200-184q-6.8 0-11.4-4.547-4.6-4.547-4.6-11.269t4.6-11.453Q193.2-216 200-216h560q6.8 0 11.4 4.547 4.6 4.548 4.6 11.27 0 6.722-4.6 11.452Q766.8-184 760-184H200Zm288-140q-6.8 0-11.4-4.547-4.6-4.547-4.6-11.269t4.6-11.453Q481.2-356 488-356h272q6.8 0 11.4 4.547 4.6 4.547 4.6 11.269 0 6.723-4.6 11.453Q766.8-324 760-324H488Zm0-140q-6.8 0-11.4-4.547-4.6-4.547-4.6-11.269 0-6.723 4.6-11.453Q481.2-496 488-496h272q6.8 0 11.4 4.547 4.6 4.547 4.6 11.269 0 6.723-4.6 11.453Q766.8-464 760-464H488Zm0-140q-6.8 0-11.4-4.547-4.6-4.547-4.6-11.27 0-6.722 4.6-11.452Q481.2-636 488-636h272q6.8 0 11.4 4.547 4.6 4.547 4.6 11.269t-4.6 11.453Q766.8-604 760-604H488ZM200-744q-6.8 0-11.4-4.547-4.6-4.547-4.6-11.27 0-6.722 4.6-11.452Q193.2-776 200-776h560q6.8 0 11.4 4.547 4.6 4.547 4.6 11.269t-4.6 11.453Q766.8-744 760-744H200Zm55.462 335.462-60.431-60.431q-4.57-4.29-4.57-10.891 0-6.602 4.57-11.171l60.431-60.431q5.692-5.692 15.269-2.647 9.577 3.045 9.577 11.57v125.078q0 8.525-9.577 11.57t-15.269-2.647Z"/></svg>