<svg xmlns="http://www.w3.org/2000/svg" height="20" viewBox="0 -960 960 960" width="20"><path d="M532-378.461q12.385 0 20.808-8.424 8.423-8.423 8.423-20.807 0-12.385-8.423-20.808T532-436.923q-12.385 0-20.808 8.423t-8.423 20.808q0 12.384 8.423 20.807 8.423 8.424 20.808 8.424Zm-16.692-106.616h33.385q1.538-25.154 6.423-36.885 4.884-11.73 25.192-29.5 16.385-13.077 32.885-32.692 16.5-19.615 16.5-49.077 0-40.384-27.808-66.346-27.808-25.962-69.885-25.962-30.308 0-55.692 16.5-25.385 16.5-38.923 46.577l30.461 14.308q9.308-21.461 25.577-32.692 16.269-11.231 38.577-11.231 27.615 0 45.962 16.462 18.346 16.461 18.346 41.307 0 23.308-16.654 40.346-16.654 17.039-35.962 33.808-14.307 13.077-21.346 31.5-7.038 18.423-7.038 43.577ZM260-280v-544h544v544H260ZM156-176v-519.385h32V-208h487.385v32H156Z"/></svg>