<svg xmlns="http://www.w3.org/2000/svg" height="20" viewBox="0 -960 960 960" width="20"><path d="M531.818-378.461q12.567 0 20.99-8.241 8.423-8.241 8.423-20.808t-8.241-20.99q-8.24-8.423-20.807-8.423-12.568 0-20.991 8.24-8.423 8.241-8.423 20.808t8.241 20.99q8.24 8.424 20.808 8.424Zm-16.51-106.616h33.385q1.538-25.154 6.423-36.885 4.884-11.73 25.192-29.5 16.385-13.077 32.885-32.692 16.5-19.615 16.5-49.077 0-40.384-27.703-66.346-27.702-25.962-69.99-25.962-30.308 0-55.692 16.5-25.385 16.5-38.923 46.944l30.461 13.941q9.308-21.461 25.577-32.692 16.269-11.231 38.577-11.231 27.727 0 46.017 16.462 18.291 16.461 18.291 41.286 0 23.329-16.654 40.367-16.654 17.039-35.962 33.808-14.307 13.077-21.346 31.5-7.038 18.423-7.038 43.577ZM260-280v-544h544v544H260Zm32-32h480v-480H292v480ZM156-176v-519.385h32V-208h487.385v32H156Zm136-616v480-480Z"/></svg>