<svg xmlns="http://www.w3.org/2000/svg" height="24" viewBox="0 -960 960 960" width="24"><path d="M479.921-71.87q-83.834 0-158.388-32.097-74.555-32.098-130.011-87.555-55.457-55.456-87.555-130.028-32.098-74.572-32.098-158.337 0-84.787 32.098-158.961t87.555-129.63q55.456-55.457 130.064-87.555Q396.194-888.131 480-888.131q31.916 0 61.338 4.261 29.423 4.261 57.945 13.022v192.283H440.478v119.043H321.435v79.044h277.848v158.565h39.282l75.522 56q38.522-43.522 60.902-97.783 22.381-54.261 22.381-116.782 0-10.522-.761-19.761-.761-9.239-2.761-19.761h92.522q2 10.522 2 19.761V-480q0 83.806-32.098 158.414-32.098 74.608-87.674 130.064-55.576 55.457-129.698 87.555-74.122 32.098-158.979 32.098Zm-39.443-93v-77.76l-79.296-79.203v-39.602L170.87-551.522q-3 18-5.5 35.681-2.5 17.682-2.5 35.363 0 122.804 79.782 211.826 79.783 89.022 197.826 103.782Zm235.218-431.543v-204.304h40v-39.761q0-34.579 24.623-59.203 24.624-24.623 59.203-24.623 34.677 0 59.371 24.623 24.694 24.624 24.694 59.203v39.761h40v204.304H675.696Zm85.5-204.304h76.891v-42.153q0-16.39-11.088-27.477-11.087-11.088-27.477-11.088-16.289 0-27.308 11.088-11.018 11.087-11.018 27.477v42.153Z"/></svg>