<svg xmlns="http://www.w3.org/2000/svg" height="20" viewBox="0 -960 960 960" width="20"><path d="M212.59-184q-12.013 0-20.302-8.127-8.288-8.126-8.288-20.14v-203.45q0-6.783 4.547-11.533 4.547-4.75 11.269-4.75t11.453 4.563Q216-422.875 216-416.13v177.591L721.461-744H543.87q-6.745 0-11.308-4.547-4.562-4.547-4.562-11.27 0-6.722 4.588-11.452Q537.177-776 543.96-776h203.45q12.013 0 20.302 8.127 8.288 8.126 8.288 20.14v203.45q0 6.783-4.547 11.533-4.547 4.75-11.269 4.75t-11.453-4.562Q744-537.125 744-543.87v-177.591L238.539-216H416.13q6.745 0 11.307 4.547 4.563 4.548 4.563 11.27 0 6.722-4.588 11.452Q422.823-184 416.04-184H212.59Z"/></svg>