<svg xmlns="http://www.w3.org/2000/svg" height="24" viewBox="0 -960 960 960" width="24"><path d="M471-674 339-339q-3 7 1.5 13t12.5 6q5 0 8-2.5t5-6.5l40-99h150l40 99q2 5 5.75 7t8.25 2q7.969 0 12.484-6Q627-332 624-340L491-674q-1.14-2.8-3.877-4.4-2.737-1.6-5.93-1.6-3.193 0-6.09 1.6-2.896 1.6-4.103 4.4Zm-55 220 62-164h4l64 164H416Zm-48.37 242H272q-24.75 0-42.375-17.625T212-272v-95.63L142-438q-17-17.315-17-42.157Q125-505 142-522l70-70.37V-688q0-24.75 17.625-42.375T272-748h95.63L438-818q17.315-17 42.157-17Q505-835 522-818l70.37 70H688q24.75 0 42.375 17.625T748-688v95.63L818-522q17 17.315 17 42.157Q835-455 818-438l-70 70.37V-272q0 24.75-17.625 42.375T688-212h-95.63L522-142q-17.315 17-42.157 17Q455-125 438-142l-70.37-70Z"/></svg>