<svg xmlns="http://www.w3.org/2000/svg" height="20" viewBox="0 -960 960 960" width="20"><path d="M434.174-646.416 328-366q-6 15.732 3 29.366T356-323q10.714 0 18.75-6.05T386-345l23-67h144l23 69q2 9 10.5 13.5T604-323q16 0 24.5-12.5T632-363L527-646q-6-14-18.5-23t-28-9q-15.5 0-28.5 9t-17.826 22.584ZM428-465l50-147h5l50 147H428Zm-82.457 305H243q-34.65 0-59.325-24.675Q159-209.35 159-244v-102.543L85-422q-25-25-25-59t25-59l74-74v-103q0-34.65 24.675-59.325Q208.35-801 243-801h102.543L421-875q25-25 59-25t59 25l74 74h103q34.65 0 59.325 24.675Q800-751.65 800-717v104l74 75q25 25 25 59t-25 59l-74 74v102q0 34.65-24.675 59.325Q750.65-160 716-160H613l-74 73q-25 24-59.5 24.5T421-86l-75.457-74ZM479-480Zm1 335 98.333-98.75H716V-382l99-98-98.75-98.75V-717H578l-98-99-98.75 98.75H243V-579l-98 98 98.333 98.75V-244H381l99 99Z"/></svg>