<svg xmlns="http://www.w3.org/2000/svg" height="24" viewBox="0 -960 960 960" width="24"><path d="M463.154-668.461 336.231-344.077q-2.923 8.846 2.411 16.462 5.335 7.615 14.82 7.615 6.153 0 10.192-3.192 4.038-3.193 6.269-8.347l36.539-92.769h149.076l36.539 93q2.231 5.923 6.846 8.616Q603.538-320 609.077-320q9.591 0 15.026-7.885 5.436-7.884 1.974-16.5L498.385-668.461q-2.031-5.385-6.906-8.462Q486.605-680 480.918-680t-10.685 3.077q-4.997 3.077-7.079 8.462Zm-44.846 212.153L478-617.077h4l61.231 160.769H418.308ZM362.639-200h-98.024q-26.654 0-45.634-18.981Q200-237.961 200-264.615v-98.024l-71.616-72.13Q110-453.396 110-480.121q0-26.725 18.384-45.11L200-597.361v-98.024q0-26.654 18.981-45.634Q237.961-760 264.615-760h98.024l72.13-71.616Q453.396-850 480.121-850q26.725 0 45.11 18.384L597.361-760h98.024q26.654 0 45.634 18.981Q760-722.039 760-695.385v98.024l71.616 72.13Q850-506.604 850-479.879q0 26.725-18.384 45.11L760-362.639v98.024q0 26.654-18.981 45.634Q722.039-200 695.385-200h-98.024l-72.13 71.616Q506.604-110 479.879-110q-26.725 0-45.11-18.384L362.639-200ZM480-480Zm0 340 100-100h140v-140l100-100-100-100v-140H580L480-820 380-720H240v140L140-480l100 100v140h140l100 100Z"/></svg>