<svg xmlns="http://www.w3.org/2000/svg" height="20" viewBox="0 -960 960 960" width="20"><path d="M260-258v-198L115-658q-20-30-4-61.5t52-31.5h312q36 0 52 31.5t-4 61.5L378-455v197h1q24.3 0 41.65 17.289 17.35 17.29 17.35 41.5Q438-175 420.65-157.5T379-140H259q-24.3 0-41.65-17.289-17.35-17.29-17.35-41.5Q200-223 217.35-240.5T259-258h1Zm57-326h4l34-49h-71l33 49Zm291 444q-63 0-107-44t-44-107q0-63 44-106.5T608-441q7.2 0 14.7.875 7.5.875 17.3 4.125v-256q0-24.3 17.35-41.65Q674.7-751 699-751h84q33 0 56 23t23 56q0 33-23 56t-56 23h-25v302q0 63-43.5 107T608-140Z"/></svg>