<svg xmlns="http://www.w3.org/2000/svg" height="20" viewBox="0 -960 960 960" width="20"><path d="M732-510 615-628q-18-17.667-18-41.833 0-24.167 18-41.645Q633-729 656-729t41 18l158.789 158.789Q864-544 869-532.7q5 11.3 5 22.5t-5 22.5q-5 11.3-13 19.7L698-310q-17 17-41.5 17.5T615-309.522q-18-17.478-18-41.66 0-24.182 17-40.818l118-118Zm-315 59h-92q-41 0-69 28t-28 69v119q0 24.3-17.289 41.65-17.29 17.35-41.5 17.35Q145-176 127.5-193.35T110-235v-119q0-88.68 63.16-151.84T325-569h92l-59-60q-17-16.667-17-40.833 0-24.167 17-41.645Q375-729 398.5-729t41.5 18l158.789 158.789Q607-544 612-532.7q5 11.3 5 22.5t-5 22.5q-5 11.3-13 19.7L441-309q-17 17-41.5 17.5T358-308.522Q341-326 341-350.545q0-24.546 17-41.455l59-59Z"/></svg>