<svg xmlns="http://www.w3.org/2000/svg" height="20" viewBox="0 -960 960 960" width="20"><path d="M783-510 631-663q-4-3.667-4-6.833 0-3.167 4-7.645 4-4.522 7-4.022t7 4.5l148.789 148.789Q798-524 800-519.7q2 4.3 2 9.5t-2 9.5q-2 4.3-6 8.7L646-344q-4 4-7.5 4.5t-7.5-4.022q-4-4.478-3.5-8.16.5-3.682 3.5-6.318l152-152Zm-156 10H362q-60 0-103 43t-43 103v82q0 4.3-2.789 7.15-2.79 2.85-7 2.85-4.211 0-7.211-2.85t-3-7.15v-82q0-68.68 48.66-117.34T362-520h265L485-663q-4-3.667-4-6.833 0-3.167 4-7.645 4-4.522 7-4.022t7 4.5l148.789 148.789Q652-524 654-519.7q2 4.3 2 9.5t-2 9.5q-2 4.3-6 8.7L500-343q-4 4-7.5 4.5t-7.5-4.022q-4-4.478-3.5-8.523.5-4.046 3.5-6.955l142-142Z"/></svg>