<svg xmlns="http://www.w3.org/2000/svg" height="24" viewBox="0 -960 960 960" width="24"><path d="M750.043-520 604.087-665.956q-15.957-15.957-15.957-37.827 0-21.869 15.957-37.261 15.956-14.957 37.543-14.957 21.588 0 36.544 14.957l183.435 183.435q7.696 7.696 11.609 17.522 3.913 9.826 3.913 20.087t-3.913 20.087q-3.913 9.826-11.609 17.522L678.174-298.956q-15.391 15.391-37.044 15.174-21.652-.217-37.043-15.174Q588.13-314.348 587.912-336q-.217-21.652 15.175-37.044L750.043-520Zm-289.177 53.001H273.782q-44.912 0-75.956 31.043-31.043 31.043-31.043 75.956v126.218q0 22.087-15.457 37.544-15.456 15.456-37.544 15.456-22.087 0-37.544-15.456-15.456-15.457-15.456-37.544V-360q0-88.087 62.456-150.544 62.457-62.457 150.544-62.457h187.084l-93.52-93.52q-15.392-15.392-15.392-37.262 0-21.869 15.392-37.261 15.391-14.957 37.261-14.957 21.87 0 36.826 14.957l183.435 183.435q7.696 7.696 11.609 17.522 3.913 9.826 3.913 20.087t-3.913 20.087q-3.913 9.826-11.609 17.522L441.433-298.956q-15.391 15.391-37.044 15.174-21.652-.217-37.043-15.174-15.392-15.392-15.609-37.044-.218-21.652 15.174-37.044l93.955-93.955Z"/></svg>