<svg xmlns="http://www.w3.org/2000/svg" height="20" viewBox="0 -960 960 960" width="20"><path d="M212.538-223.231q-71.923-43.692-110.231-111.319Q64-402.176 64-480.088t38.538-144.566q38.539-66.654 106.616-108.039 10.538-6.384 20.692-4.192Q240-734.692 240-722.923q0 5.471-2.423 7.889-2.423 2.419-6.093 4.762-63.33 33.041-99.407 95.443T96-479.957q0 72.471 36.077 133.829 36.077 61.359 99.461 96.051 3.616 3.692 6.039 6.039 2.423 2.346 2.423 7.192 0 11-9.885 14.846-9.884 3.846-17.577-1.231ZM599.382-184q-61.244 0-114.775-23.038-53.53-23.039-93.881-63.561t-63.538-94.648Q304-419.374 304-480.456q0-61.083 23.138-114.908 23.139-53.826 63.405-94.093 40.267-40.266 94.049-63.405Q538.374-776 599.956-776q61.583 0 115.408 23.138 53.826 23.139 94.093 63.405 40.266 40.267 63.405 94.049Q896-541.626 896-480.044q0 61.583-23.238 115.408-23.239 53.826-63.676 94.093-40.436 40.266-94.448 63.405Q660.626-184 599.382-184Zm.434-179.692q6.723 0 11.327-4.6 4.605-4.6 4.605-11.4V-464h84.476q6.836 0 11.46-4.608 4.624-4.607 4.624-11.419t-4.624-11.392Q707.06-496 700.224-496h-84.476v-84.308q0-6.8-4.632-11.4-4.631-4.6-11.377-4.6-6.745 0-11.281 4.6-4.536 4.6-4.536 11.4V-496h-83.996q-6.734 0-11.484 4.547t-4.75 11.269q0 6.723 4.6 11.303 4.6 4.581 11.4 4.581H584v84.308q0 6.8 4.547 11.55 4.547 4.75 11.269 4.75Z"/></svg>