<svg xmlns="http://www.w3.org/2000/svg" height="24" viewBox="0 -960 960 960" width="24"><path d="M351.391-30.435v-75.695h-51.652l-41.152-247.652h92.804v-45.566q-9.282 3.044-18.065 4.305-8.783 1.261-18.826 1.261-101.913 0-173.707-70.359Q69-534.5 69-635.935v-45.022q0-103.108 71.315-175.858t174.185-72.75q52.152 0 88.826 36.315Q440-856.935 440-804.783q0 51.674-36.794 87.392-36.793 35.717-88.706 35.717h-70.435v-88.609h69.717q14.848 0 25.033-10.304T349-805.739q0-14.848-10.185-25.033t-25.033-10.185q-64.804 0-110.489 46.283-45.684 46.283-45.684 111.326v45.261q0 64.565 45.804 110.13 45.804 45.566 110.369 45.566 14.848 0 25.033-10.305Q349-503 349-517.848t-10.185-25.032q-10.185-10.185-25.033-10.185h-69.717v-88.609H314.5q51.674 0 88.348 35.717 36.674 35.718 37.152 87.392v164.783h80v-164.783q.478-51.674 37.152-87.392 36.674-35.717 88.348-35.717h70.435v88.609h-69.717q-14.848 0-25.033 10.065T611-518.087q0 14.848 10.185 25.152 10.185 10.305 25.033 10.305 64.565 0 110.369-45.566 45.804-45.565 45.804-109.891v-45.261q0-65.043-45.684-111.326-45.685-46.283-110.489-46.283-14.848 0-25.033 10.185T611-805.739q0 14.848 10.185 25.152t25.033 10.304h69.717v88.609H645.5q-51.913 0-88.706-35.717Q520-753.109 520-804.783q0-52.152 36.674-88.467t88.826-36.315q102.87 0 174.185 72.75T891-680.957v45.022q0 101.435-71.793 171.794-71.794 70.359-173.707 70.359-10.043 0-18.826-1.261-8.783-1.261-18.065-4.305v45.566h92.804L660.261-106.13h-51.652v75.695H520v-75.695h-80v75.695h-88.609Z"/></svg>