<svg xmlns="http://www.w3.org/2000/svg" height="24" viewBox="0 -960 960 960" width="24"><path d="M339.651-17.39v-69.826h-47.086l-44.088-258.088h91.174v-43.608q-8.304 1.739-16.108 2.674-7.805.934-16.544.934-104.522 0-178.761-70.847-74.24-70.848-74.24-174.24v-51.87q0-107.348 73.11-183.848 73.108-76.501 179.891-76.501 55.088 0 94.044 38.109Q440-866.392 440-811.305q0 53.957-39.239 90.653-39.24 36.695-93.762 36.695h-57.39v-100.349h55.695q11.912 0 20.304-8.673 8.391-8.674 8.391-20.587t-8.391-20.304q-8.392-8.391-20.304-8.391-63.174 0-107.065 45.304-43.891 45.305-43.891 109.044v52.435q0 62.608 44.173 106.217 44.174 43.609 106.783 43.609 11.912 0 20.304-8.674 8.391-8.674 8.391-20.587t-8.391-20.304q-8.392-8.391-20.304-8.391h-55.695v-100.349h57.39q53.957 0 92.914 36.696T440-516.609v171.305h80v-171.305q1.13-53.956 40.087-90.652t92.914-36.696h57.39v100.349h-55.695q-11.912 0-20.304 8.109-8.391 8.108-8.391 20.021t8.391 20.587q8.392 8.673 20.304 8.673 62.609 0 106.783-43.608 44.173-43.609 44.173-105.652v-52.435q0-63.739-43.891-109.044-43.891-45.304-107.065-45.304-11.912 0-20.304 8.391-8.391 8.391-8.391 20.304 0 11.913 8.391 20.587 8.392 8.673 20.304 8.673h55.695v100.349h-57.39q-54.522 0-93.762-36.695Q520-757.348 520-811.305q0-55.087 38.957-93.196 38.956-38.109 94.044-38.109 106.783 0 179.891 76.501 73.109 76.5 73.109 183.848v51.87q0 103.392-74.239 174.24-74.239 70.847-178.761 70.847-8.739 0-16.544-.934-7.804-.935-16.108-2.674v43.608h91.174L667.435-87.216h-47.086v69.826H520v-69.826h-80v69.826H339.651Z"/></svg>