<svg xmlns="http://www.w3.org/2000/svg" height="24" viewBox="0 -960 960 960" width="24"><path d="M376.155-70.387v-81.923h-53.846l-32.846-199.997h86.692v-62.386q-11.539 7.462-23.731 11.077Q340.231-400 326.154-400q-93.845 0-158.076-67.5-64.23-67.5-64.23-162.499v-35.385q0-94.999 64.23-162.499 64.231-67.5 158.076-67.5 45.769 0 77.884 32.115 32.116 32.116 32.116 77.884 0 45.769-32.116 77.885-32.115 32.115-77.884 32.115h-69.999v-59.999h69.999q20.847 0 35.424-14.577 14.577-14.577 14.577-35.424 0-20.846-14.577-35.423-14.577-14.577-35.424-14.577-68.308 0-115.308 50.269-47 50.27-47 119.731v35.385q0 69.462 47 119.731 47 50.269 115.308 50.269 20.847 0 35.424-14.577 14.577-14.577 14.577-35.423 0-20.847-14.577-35.424Q347.001-560 326.154-560h-69.999v-59.999h69.999q45.769 0 77.884 32.116 32.116 32.115 32.116 77.884v157.692h87.692v-157.692q0-45.769 32.116-77.884 32.115-32.116 77.884-32.116h69.999V-560h-69.999q-20.847 0-35.424 14.577-14.577 14.577-14.577 35.424 0 20.846 14.577 35.423 14.577 14.577 35.424 14.577 68.308 0 115.308-50.269t47-119.731v-35.385q0-69.461-47-119.731-47-50.269-115.308-50.269-20.847 0-35.424 14.577-14.577 14.577-14.577 35.423 0 20.847 14.577 35.424 14.577 14.577 35.424 14.577h69.999v59.999h-69.999q-45.769 0-77.884-32.115-32.116-32.116-32.116-77.885 0-45.768 32.116-77.884 32.115-32.115 77.884-32.115 93.845 0 158.076 67.5 64.23 67.5 64.23 162.499v35.385q0 94.999-64.23 162.499Q727.691-400 633.846-400q-14.077 0-26.27-3.616-12.192-3.615-23.731-11.077v62.386h86.692L637.691-152.31h-53.846v81.923h-59.999v-81.923h-87.692v81.923h-59.999ZM373-212.309h214l13-80H360l13 80Zm0 0-13-80 13 80Z"/></svg>