<svg xmlns="http://www.w3.org/2000/svg" height="20" viewBox="0 -960 960 960" width="20"><path d="M402-127v-77h-46l-20-112h66v-120q-14 13-31.5 20.5T334-408q-76.5 0-126.25-58.25T158-604v-48q0-79.5 49.75-137.75T334-848q36.5 0 62.25 25.75T422-760q0 36.5-25.75 62.25T334-672h-52v-20h52.351Q361-692 381.5-712.5T402-760q0-27-20.5-47.5T334-828q-69 0-112.5 52T178-652v48q0 72 43.5 124T334-428q27 0 47.5-20.5T402-496q0-27-20.5-47.5T334.351-564H282v-20h51.538Q371-584 396-558.25T421-496l1 180h116l1-180q0-36.917 25-62.958Q589-585 626.462-585H678v20h-52.351Q599-565 578.5-544.5T558-497q0 27 20.5 47.5T626-429q69 0 112.5-51.5T782-604v-48q0-72-43.5-124T626-828q-27 0-47.5 20.5T558-760q0 27 20.5 47.5t47.149 20.5H678v20h-51.538Q589-672 563.5-697.75T538-760q0-36.5 25.75-62.25T626-848q76.5 0 126.25 58.25T802-652v48q0 79.5-49.75 137.75T626-408q-19 0-36.5-7.5T558-436v120h66l-20 112h-46.296v77H538v-77H422v77h-20Z"/></svg>