<svg xmlns="http://www.w3.org/2000/svg" height="24" viewBox="0 -960 960 960" width="24"><path d="M295-9q-51.975 0-88.988-37.013Q169-83.025 169-135v-690q0-51.975 37.012-88.987Q243.025-951 295-951h370q51.975 0 88.987 37.013Q791-876.975 791-825v145H665v-25H295v450h370v-25h126v145q0 51.975-37.013 88.987Q716.975-9 665-9H295Zm433-311q-66 0-113-47t-47-113q0-66 47-113t113-47q66 0 113 47t47 113q0 66-47 113t-113 47Zm0-60q12 0 23.5-3t22.5-9L640-526q-6 11-9 22.5t-3 23.5q0 42 29 71t71 29Zm88-54q6-11 9-22.5t3-23.5q0-42-29-71t-71-29q-12 0-23.5 3t-22.5 9l134 134Z"/></svg>