<svg xmlns="http://www.w3.org/2000/svg" height="20" viewBox="0 -960 960 960" width="20"><path d="M480.276-136q-70.815 0-133.507-26.923-62.692-26.923-109.808-74.038-47.115-47.116-74.038-109.766Q136-409.378 136-480.458q0-71.081 26.923-133.273 26.923-62.192 74.038-109.308 47.116-47.115 109.766-74.038Q409.378-824 480.458-824q71.081 0 133.273 26.923 62.192 26.923 109.308 74.038 47.115 47.116 74.038 109.533Q824-551.09 824-480.276q0 70.815-26.923 133.507-26.923 62.692-74.038 109.808-47.116 47.115-109.533 74.038Q551.09-136 480.276-136Zm-43.661-172h86.77q23.546 0 40.08-16.535Q580-341.069 580-364.615v-66.154q0-11.846-1.461-26.039Q577.077-471 568-480q10.077-8 11.039-22.192.961-14.193.961-27.039v-66.154q0-23.546-16.535-40.08Q546.931-652 523.385-652h-86.77q-23.546 0-40.08 16.535Q380-618.931 380-595.385v66.154q0 11.846 1.461 26.039Q382.923-489 392-480q-9.077 9-10.539 23.192Q380-442.615 380-430.769v66.154q0 23.546 16.535 40.08Q413.069-308 436.615-308Zm0-312h86.77q10.769 0 17.692 6.923T548-595.385v74.77q0 10.769-6.923 17.692T523.385-496h-86.77q-10.769 0-17.692-6.923T412-520.615v-74.77q0-10.769 6.923-17.692T436.615-620Zm0 280q-10.769 0-17.692-6.923T412-364.615v-74.77q0-10.769 6.923-17.692T436.615-464h86.77q10.769 0 17.692 6.923T548-439.385v74.77q0 10.769-6.923 17.692T523.385-340h-86.77Z"/></svg>