<svg xmlns="http://www.w3.org/2000/svg" height="24" viewBox="0 -960 960 960" width="24"><path d="M796-46 312-529q-4 12-5.5 24t-1.5 25q0 22 5 42.5t14 38.5q11 20 10 43t-17 39q-17 17-39 16t-35-19q-23-35-36-75t-13-85q0-36 9-70t25-64l-49-48q-24 40-37 85.5T129-480q0 58 17.5 109.5T196-275q14 19 14 42t-17 40q-17 17-39.5 15.5T117-197q-46-59-72-130.5T19-480q0-73 21.5-139T100-741l-54-55q-14-14-14-33.5T46-863q14-14 33.5-14t33.5 14l750 750q14 14 13.5 33.5T862-46q-14 14-33 14t-33-14Zm76-191-81-81q19-37 29.5-77.5T831-480q0-59-18-111t-50-96q-14-19-13-41.5t17-38.5q17-17 40-16t37 19q46 59 71.5 131T941-480q0 67-18.5 128T872-237ZM743-366l-90-90q1-6 1.5-11.5t.5-12.5q0-22-5-43t-15-39q-11-20-9.5-42.5T643-643q17-17 39-16t35 19q23 34 36 74.5t13 85.5q0 31-6 59.5T743-366Z"/></svg>