<svg xmlns="http://www.w3.org/2000/svg" height="20" viewBox="0 -960 960 960" width="20"><path d="M739.068-53Q663-53 611.569-106.214 560.138-159.429 560-235q0-39.836 18.654-74.733Q597.308-344.629 628-371l111-96 110 96q30.765 26.366 49.882 61.183Q918-275 918-235.426 918-160 866-106.5 814-53 739.068-53ZM480.176-405Q449-405 427-426.824q-22-21.823-22-53Q405-511 426.824-533q21.823-22 53-22Q511-555 533-533.176q22 21.823 22 53Q555-449 533.176-427q-21.823 22-53 22ZM481-161q-154.596 0-279.798-88.5T17-480q59-142 183.702-230.5T480-799q154.596 0 279.298 88.5T943-480q-7.053 17.512-16.026 33.756Q918-430 909-413L733-562l-85 74q0 2-.5 2.975-.5.975-.5 2.025-1-69-49.417-117Q549.167-648 480-648q-70 0-119 49t-49 119q0 70 49 118.5T480-313q5.698 0 11.849-1T503-316q-15 35-16 74t10 79q-4.023 2-8 2h-8Z"/></svg>