<svg xmlns="http://www.w3.org/2000/svg" height="24" viewBox="0 -960 960 960" width="24"><path d="M731.03-149.23q-50.338 0-84.915-35.077-34.577-35.077-34.807-85.07 0-24.623 10.153-46.931 10.154-22.307 28.77-39.923l80.538-76.077 80.308 75.961q17.846 16.962 28.27 39.539Q849.77-294.231 850-269.692q-.769 50.308-35.077 85.385-34.307 35.077-83.893 35.077ZM480-392q-45 0-76.5-31.5T372-500q0-45 31.5-76.5T480-608q45 0 76.5 31.5T588-500q0 45-31.5 76.5T480-392Zm-.313 152q-129.879 0-236.629-70.731Q136.307-381.461 83.077-500q53.23-118.539 160.044-189.269Q349.934-760 479.89-760q129.956 0 236.879 70.731Q823.693-618.539 876.923-500q-6 13.352-12.5 25.813-6.5 12.462-14.5 24.033l-121-112.692-109.384 104.461q3.307-10.077 4.961-20.327 1.654-10.25 1.654-21.288 0-60.898-42.681-103.526-42.681-42.628-103.654-42.628t-103.473 42.681q-42.5 42.681-42.5 103.654t42.628 103.473q42.628 42.5 103.526 42.5 16.342 0 31.594-3.154 15.252-3.154 29.252-10.461-15.846 29.23-22.538 61.73-6.693 32.5-.693 64.754-9.461.977-18.802.977h-19.126Z"/></svg>