<svg xmlns="http://www.w3.org/2000/svg" height="20" viewBox="0 -960 960 960" width="20"><path d="M478.565-480ZM480-174.477q-149.379 0-270.82-84.153Q87.738-342.782 30.477-480 87.738-617.218 209.18-701.37 330.621-785.523 480-785.523t270.82 84.153Q872.262-617.218 929.523-480q-6.183 14.903-13.636 28.756-7.452 13.853-15.147 28.245l-73.87-64.305q-51.435-96-144.935-152.348Q588.435-696 480.046-696q-111.382 0-205.866 58.283Q179.696-579.435 128.696-480q51 99.435 145.469 157.717Q368.634-264 480-264q7.025 0 13.73.283 6.706.282 13.356-.587-3.131 22.522-1.413 44.478 1.717 21.957 7.848 42.914-8.913 2-17.043 2.217-8.13.218-16.478.218ZM480-312q-70 0-119-49t-49-119q0-70 49-119t119-49q68.529 0 117.699 48.935 49.171 48.935 49.736 116.967 0 2.446-.218 4.296-.217 1.851-.652 3.845l-51.653 47.218q-26.877 21.52-46.069 49.108-19.192 27.588-30.757 60.718-8.913 2.457-18.826 3.685Q489.348-312 480-312Zm-.1-83.87q35.013 0 59.621-24.509 24.609-24.509 24.609-59.521 0-35.013-24.509-59.621-24.509-24.609-59.521-24.609-35.013 0-59.621 24.509-24.609 24.509-24.609 59.521 0 35.013 24.509 59.621 24.509 24.609 59.521 24.609ZM746.426-71.694q-71.688 0-120.323-50.296-48.635-50.295-48.713-121.705 0-37.734 17.718-70.719 17.717-32.985 46.804-57.89l104.479-89.914 103.479 89.914q29.127 24.902 47.324 57.842 18.197 32.941 18.197 70.526 0 71.328-49.174 121.785-49.174 50.457-119.791 50.457Zm.251-98.002q29 0 49.857-21.663 20.856-21.663 20.856-52.228 0-17.282-10.401-30.8-10.401-13.519-23.642-25.699l-36.956-31.521-38.956 31.521q-13.305 12.076-22.674 25.364-9.37 13.288-9.37 31.027 0 30.543 20.704 52.271 20.703 21.728 50.582 21.728Zm-.286-81.738Z"/></svg>