<svg xmlns="http://www.w3.org/2000/svg" height="24" viewBox="0 -960 960 960" width="24"><path d="m722.692-83.923 60.616-60.615-154.154-154.154-60.616 60.615q-32.384 32.385-32 77.077.385 44.692 32 77.077 32.385 31.615 77.077 32 44.693.385 77.077-32Zm88.154-88.154 60.616-60.615q32.384-32.385 32.384-77.077 0-44.693-32.384-77.077-31.616-31.616-77.077-31.616-45.462 0-77.077 31.616l-60.616 60.615 154.154 154.154ZM300-610.769h360v-40H300v40Zm180-171.539q13 0 21.5-8.5t8.5-21.5q0-13-8.5-21.5t-21.5-8.5q-13 0-21.5 8.5t-8.5 21.5q0 13 8.5 21.5t21.5 8.5ZM427.308-160H160v-640h252.615q-5.461-30.616 14.654-55.308Q447.385-880 480-880q33.385 0 53.5 24.692 20.116 24.692 13.885 55.308H800v271.923q-38.154-1.538-73.884 10.039-35.731 11.576-66.116 34.576V-500H300v40h333.615L522.846-349.231H300v40h184.231q-27.616 30.385-42.654 68.808Q426.539-202 427.308-160Z"/></svg>