<svg xmlns="http://www.w3.org/2000/svg" height="24" viewBox="0 -960 960 960" width="24"><path d="M62.477-767.348v-64.173q0-44.305 30.849-75.153 30.848-30.849 75.153-30.849h64.738q20.392 0 34.435 14.044 14.044 14.044 14.044 34.435 0 20.392-14.044 34.718Q253.609-840 233.217-840H160v73.217q0 20.392-14.044 34.435-14.043 14.044-34.435 14.044-20.391 0-34.717-14.326-14.327-14.327-14.327-34.718Zm737.523 0V-840h-73.217q-20.392 0-34.435-14.326-14.044-14.326-14.044-34.718 0-20.391 14.326-34.435 14.327-14.044 34.718-14.044h64.173q44.305 0 75.153 30.849 30.849 30.848 30.849 75.153v64.738q0 20.392-14.044 34.435-14.044 14.044-34.435 14.044-20.392 0-34.718-14.326Q800-746.957 800-767.348ZM62.477-128.479v-64.738q0-20.392 14.327-34.435 14.326-14.044 34.717-14.044 20.392 0 34.435 14.044Q160-213.609 160-193.217V-120h73.217q20.392 0 34.435 14.044 14.044 14.043 14.044 34.435 0 20.391-14.044 34.717-14.043 14.327-34.435 14.327h-64.738q-44.305 0-75.153-30.849-30.849-30.848-30.849-75.153ZM791.521-22.477h-64.738q-20.392 0-34.435-14.327-14.044-14.326-14.044-34.717 0-20.392 14.326-34.435Q706.957-120 727.348-120H800v-73.217q0-20.392 14.326-34.435 14.326-14.044 34.718-14.044 20.391 0 34.435 14.044 14.044 14.043 14.044 34.435v64.738q0 44.305-30.849 75.153-30.848 30.849-75.153 30.849ZM297.523-151.521q-43.175 0-74.588-31.414-31.414-31.413-31.414-74.588v-444.954q0-43.175 31.414-74.588 31.413-31.414 74.588-31.414h364.954q43.175 0 74.588 31.414 31.414 31.413 31.414 74.588v444.954q0 43.175-31.414 74.588-31.413 31.414-74.588 31.414H297.523ZM400-556.609h160q18.13 0 30.761-12.63 12.63-12.631 12.63-30.761t-12.63-30.761q-12.631-12.63-30.761-12.63H400q-18.13 0-30.761 12.63-12.63 12.631-12.63 30.761t12.63 30.761q12.631 12.63 30.761 12.63Zm0 120h160q18.13 0 30.761-12.63 12.63-12.631 12.63-30.761t-12.63-30.761q-12.631-12.63-30.761-12.63H400q-18.13 0-30.761 12.63-12.63 12.631-12.63 30.761t12.63 30.761q12.631 12.63 30.761 12.63Zm0 120h160q18.13 0 30.761-12.63 12.63-12.631 12.63-30.761t-12.63-30.761q-12.631-12.63-30.761-12.63H400q-18.13 0-30.761 12.63-12.63 12.631-12.63 30.761t12.63 30.761q12.631 12.63 30.761 12.63Z"/></svg>