<svg xmlns="http://www.w3.org/2000/svg" height="20" viewBox="0 -960 960 960" width="20"><path d="M459-538h-31q-13 0-21.5-8.5T398-569q0-13 9-22t22-9h61q13 0 22 9t9 22v179q0 13-8.5 21.5T490-360q-13 0-22-9t-9-22v-147Zm217 254v-114q0-17 12.5-29.5T718-440q18 0 30 12t12 29v157q0 17-12.5 29.5T718-200H282l30 30q13 13 13 30t-13 30q-13 13-30 13t-29-12L150-212q-13-13-13-30t13-30l98-98q13-13 30-13t30 13q12 12 12.5 29.5T309-311l-27 27h394ZM284-676v114q0 17-12.5 29.5T242-520q-18 0-30-12t-12-29v-157q0-17 12.5-29.5T242-760h436l-30-30q-13-13-13-30t13-30q12-12 29.5-12.5T707-851l103 103q13 13 13 30t-13 30l-99 99q-13 13-30 13t-30-13q-13-13-13-30t12-29l28-28H284Z"/></svg>