<svg xmlns="http://www.w3.org/2000/svg" height="24" viewBox="0 -960 960 960" width="24"><path d="M466.154-546.154h-31q-9.453 0-16.149-6.752-6.696-6.751-6.696-17.076t6.756-17.095q6.756-6.769 17.089-6.769h53.077q10.666 0 17.64 6.975 6.975 6.974 6.975 17.64V-389q0 9.453-6.752 16.15-6.751 6.696-17.076 6.696t-17.095-6.757q-6.769-6.756-6.769-17.089v-156.154Zm220 272.308v-130q0-12.75 8.629-21.375t21.384-8.625q12.755 0 21.371 8.308 8.615 8.307 8.615 20.692v154.845q0 15.366-10.394 25.76-10.394 10.394-25.76 10.394h-456.77l51.078 51.078q9.308 9.308 9.616 21.692.307 12.384-9 21.692-9.308 9.307-21.48 9.307-12.173 0-20.288-8.307L163.001-218.539q-10.231-10.231-10.231-25.307 0-15.077 10.231-25.308l99.154-99.153q9.307-9.308 21.384-9.308 12.076 0 21.384 9.308 8.923 8.922 9.115 21.191.192 12.269-8.731 21.192l-52.078 52.078h432.925ZM273.846-686.154v130q0 12.75-8.629 21.375t-21.384 8.625q-12.755 0-21.371-8.308-8.615-8.307-8.615-20.692v-154.845q0-15.366 10.394-25.76 10.394-10.394 25.76-10.394h456.77l-51.078-51.078q-9.308-9.308-9.616-21.692-.307-12.384 9-21.692 8.923-8.922 21.192-9.115 12.269-.192 20.576 8.115l100.154 100.154q10.231 10.231 10.231 25.307 0 15.077-10.231 25.308l-99.154 99.153q-9.307 9.308-21.384 9.308-12.076 0-21.384-9.308-9.307-9.307-9.307-21.435 0-12.128 8.923-20.948l52.078-52.078H273.846Z"/></svg>