<svg xmlns="http://www.w3.org/2000/svg" height="20" viewBox="0 -960 960 960" width="20"><path d="M475-554h-31q-6.379 0-10.19-3.953-3.81-3.954-3.81-11 0-6.047 4.467-10.547Q438.933-584 445-584h43q6.933 0 11.967 5.033Q505-573.933 505-567v177q0 6.379-3.953 10.19-3.954 3.81-11 3.81-6.047 0-10.547-4.467Q475-384.933 475-391v-163Zm217 286v-140q0-5.95 5.035-10.975 5.035-5.025 11-5.025 6.965 0 11.465 5t4.5 10v141q0 12.75-9.625 22.375T692-236H228l77 77q6 6 5.5 11t-6.5 11q-6 6-11.75 6T282-136l-93-93q-11-11-11-23t11-23l88-88q6-6 11.5-6t11.5 6q4 4 5 10.5t-3 10.5l-74 74h464ZM268-692v140q0 5.95-5.035 10.975-5.035 5.025-11 5.025-6.965 0-11.465-5t-4.5-10v-141q0-12.75 9.625-22.375T268-724h464l-77-77q-6-6-5.5-11t6.5-11q4-4 10.5-5t11.5 4l93 93q11 11 11 23t-11 23l-89 89q-6 6-11.5 6t-11.5-6q-6-6-6-11.633 0-5.634 4-9.367l75-75H268Z"/></svg>