<svg xmlns="http://www.w3.org/2000/svg" height="20" viewBox="0 -960 960 960" width="20"><path d="M471.308-550.308h-31q-7.908 0-12.8-5.002-4.893-5.003-4.893-13.654 0-7.651 5.513-13.19 5.513-5.538 13.18-5.538h47.154q8.333 0 14.282 5.948 5.948 5.949 5.948 14.282V-390q0 7.907-5.002 12.8-5.003 4.892-13.654 4.892-7.651 0-13.19-5.512-5.538-5.513-5.538-13.18v-159.308Zm217 278.616v-134q0-8.5 6.757-15.25 6.758-6.75 15.27-6.75 9.511 0 15.742 6.615 6.231 6.615 6.231 14.385V-262q0 13.731-10.289 24.019-10.288 10.289-24.019 10.289H240.462l66.153 66.153q7.616 7.616 7.231 15.385-.384 7.769-8 15.385-7.615 7.615-15.961 7.615-8.347 0-14.577-6.615L180-225.077q-11.462-11.461-11.462-24.615 0-13.154 11.462-24.616l90.308-90.307q7.615-7.616 15.769-7.616t15.769 7.616q5.846 5.846 6.731 14.884.885 9.039-4.962 14.885l-63.153 63.154h447.846ZM271.692-688.308v134q0 8.5-6.757 15.25-6.758 6.75-15.27 6.75-9.511 0-15.742-6.615-6.231-6.615-6.231-14.385V-698q0-13.731 10.289-24.019 10.288-10.289 24.019-10.289h457.538l-66.153-66.153q-7.616-7.616-7.231-15.385.384-7.769 8-15.385 5.846-5.846 14.885-6.731 9.038-.884 15.653 5.731L780-734.923q11.462 11.461 11.462 24.615 0 13.154-11.462 24.616l-91.308 91.307q-7.615 7.616-15.769 7.616t-15.769-7.616q-7.616-7.615-7.616-15.871 0-8.257 5.847-13.898l64.153-64.154H271.692Z"/></svg>