<svg xmlns="http://www.w3.org/2000/svg" height="20" viewBox="0 -960 960 960" width="20"><path d="M393.609-288q20 0 34-14t14-34q0-20-14-34t-34-14q-20 0-34 14t-14 34q0 20 14 34t34 14ZM158.391-69.999v-34.174l50-50q-54-15.914-88-62.044-34-46.131-34-107.653v-351.521q0-83.305 71.522-123.545 71.522-40.239 249.088-40.239 19.565 0 38.978 1.065t39.544 1.631q-11.392 19.13-23.501 42.913-12.109 23.783-15.109 52.392h-54.434q-90.87 0-138.587 10.283-47.718 10.282-71.283 38.282h259q1.131 18 3.261 37.348 2.131 19.348 8.261 34.652H184.392v120h348.277Q550.61-485 568.24-475.522t34.586 18.217v28.696H184.392v104.739q0 33.533 23.473 57.006t57.006 23.473h256.911q33.392 0 57.218-23.473t23.826-57.006v-133.435q29.305 9.522 53.871 13.457 24.565 3.935 44.131 1.674v118.304q0 61.522-34 107.653-34 46.13-88 62.044l50 50v34.174H158.391Zm535.006-442.48q-74.788 0-127.288-52.712t-52.5-127.5q0-74.788 52.712-127.288t127.5-52.5q74.788 0 127.288 52.712t52.5 127.5q0 74.788-52.712 127.288t-127.5 52.5Zm-153.472 83.87H184.392h418.434H539.925Zm-357.316-264h259-259Zm474.869-1.565h57.044v-96h-57.044v96ZM686-582.913q12.991 0 21.887-8.896 8.896-8.895 8.896-21.887 0-12.991-8.896-21.887T686-644.479q-12.991 0-21.887 8.896t-8.896 21.887q0 12.992 8.896 21.887 8.896 8.896 21.887 8.896Z"/></svg>