<svg xmlns="http://www.w3.org/2000/svg" height="24" viewBox="0 -960 960 960" width="24"><path d="M404.065-280q25 0 42.5-17.5t17.5-42.5q0-25-17.5-42.5t-42.5-17.5q-25 0-42.5 17.5t-17.5 42.5q0 25 17.5 42.5t42.5 17.5ZM155.935-69v-44.304l60-40q-59-3.348-99.5-47.076-40.5-43.729-40.5-104.642v-376.413q0-85.783 80.413-127.076 80.413-41.294 249.152-41.294 17.239 0 33.337.24 16.098.239 34.576.478-9.435 18.478-16.25 41.848-6.815 23.369-9.815 48.435H405.587q-87.522 0-143.902 10.119-56.381 10.12-79.62 30.12h262q.479 21 3.957 40.859 3.478 19.858 9.956 39.141H166.935v120h367.348q20.282 19.565 46.011 35.652 25.728 16.087 60.902 27.13v17.218H166.935v133.543q0 26.495 18.546 45.041 18.546 18.546 45.041 18.546H577.37q26.434 0 45.13-18.546t18.696-45.041v-150.761q22.782 6.913 46.772 9.674 23.989 2.761 44.228 1.805v139.282q0 60.913-40.5 104.642-40.5 43.728-99.5 47.076l60 40V-69H155.935Zm568.13-454.587q-83 0-141.5-58.5t-58.5-141.5q0-83 58.5-141.5t141.5-58.5q83 0 141.5 58.5t58.5 141.5q0 83-58.5 141.5t-141.5 58.5ZM577.37-438.565H166.935h474.261H577.37Zm-395.305-280h262-262Zm516.022 34.261h43.826v-160h-43.826v160ZM720-597.848q9.435 0 16.152-6.717 6.718-6.718 6.718-16.152 0-9.435-6.718-16.153-6.717-6.717-16.152-6.717-9.435 0-16.152 6.717-6.718 6.718-6.718 16.153 0 9.434 6.718 16.152 6.717 6.717 16.152 6.717Z"/></svg>