<svg xmlns="http://www.w3.org/2000/svg" height="20" viewBox="0 -960 960 960" width="20"><path d="M663.788-536Q610-536 573-573.212t-37-91Q536-718 573.212-755t91-37Q718-792 755-754.788t37 91Q792-610 754.788-573t-91 37ZM648-684h36v-44h-36v44Zm18 88q9.6 0 15.8-6.2 6.2-6.2 6.2-15.8 0-9.6-6.2-15.8-6.2-6.2-15.8-6.2-9.6 0-15.8 6.2-6.2 6.2-6.2 15.8 0 9.6 6.2 15.8 6.2 6.2 15.8 6.2ZM404-308q12 0 20-8t8-20q0-12-8-20t-20-8q-12 0-20 8t-8 20q0 12 8 20t20 8ZM208-176v4l50-50q-48-8-69-41t-21-69v-340q0-49 50-71t191-22q21 0 41.5.5t41.5.5q-9 22-18 43t-10 46q0 6-1.5 13.5T462-648H188v196h456v-7q-1-9-.5-7t-3.5 2v134q0 36-21 68t-69 40l50 50v-4H208Z"/></svg>