<svg xmlns="http://www.w3.org/2000/svg" height="24" viewBox="0 -960 960 960" width="24"><path d="M724.065-523.587q-83 0-141.5-58.5t-58.5-141.5q0-83 58.5-141.5t141.5-58.5q83 0 141.5 58.5t58.5 141.5q0 83-58.5 141.5t-141.5 58.5Zm-25.978-160.717h43.826v-160h-43.826v160ZM720-597.848q9.435 0 16.152-6.717 6.718-6.718 6.718-16.152 0-9.435-6.718-16.153-6.717-6.717-16.152-6.717-9.435 0-16.152 6.717-6.718 6.718-6.718 16.153 0 9.434 6.718 16.152 6.717 6.717 16.152 6.717ZM404.065-280q25 0 42.5-17.5t17.5-42.5q0-25-17.5-42.5t-42.5-17.5q-25 0-42.5 17.5t-17.5 42.5q0 25 17.5 42.5t42.5 17.5ZM155.935-69v-44.304l60-40q-59-3.348-99.5-47.076-40.5-43.729-40.5-104.642v-376.413q0-85.783 80.413-127.076 80.413-41.294 249.152-41.294 17.239 0 33.718.24 16.478.239 34.195.478-14.63 29.956-22.228 63.543-7.598 33.587-7.12 66.979.479 21 3.957 40.859 3.478 19.858 9.956 39.141H166.935v120h367.348q39.761 38.087 91.554 57.25 51.794 19.163 106.359 17.011v139.282q0 60.913-40.5 104.642-40.5 43.728-99.5 47.076l60 40V-69H155.935Z"/></svg>