<svg xmlns="http://www.w3.org/2000/svg" height="24" viewBox="0 -960 960 960" width="24"><path d="M479.867-144Q474-144 469-146q-5-2-10.345-7.345L366-246q-4-4-4.5-9.5t4.283-10.5Q371-271 376-271q5 0 10 5l80 80v-214q-69-7-114.5-56T306-574q0-72.21 50.852-123.105Q407.703-748 479.852-748 552-748 603-697.105T654-574q0 69-45.5 118T494-400v214l80-80q4-4 9.5-4.5t10.717 4.717Q599-261 599-256q0 5-5 10l-92.655 92.655Q496-148 490.867-146q-5.134 2-11 2Zm.251-284Q541-428 583.5-470.618q42.5-42.617 42.5-103.5Q626-635 583.382-677.5q-42.617-42.5-103.5-42.5Q419-720 376.5-677.382q-42.5 42.617-42.5 103.5Q334-513 376.618-470.5q42.617 42.5 103.5 42.5ZM480-574Z"/></svg>