<svg xmlns="http://www.w3.org/2000/svg" height="24" viewBox="0 -960 960 960" width="24"><path d="M480-82.869q-10.261 0-19.805-3.63-9.543-3.63-17.239-11.327L330.477-210.304q-15.522-15.522-15.522-37.109 0-21.588 14.957-37.544 15.957-15.957 37.827-15.957 21.87 0 37.826 15.957l21.434 21.434v-135.955q-69-17.392-114.5-74.435-45.5-57.044-45.5-131.739 0-88.653 62.174-150.827Q391.348-818.653 480-818.653t150.827 62.174q62.174 62.174 62.174 150.827 0 74.695-45.5 131.739-45.5 57.043-114.5 74.435v135.955l22.434-21.869q15.522-14.957 36.826-15.24 21.305-.282 37.262 15.675 15.522 15.522 15.522 37.326 0 21.805-15.522 37.327L517.044-97.826q-7.696 7.696-17.239 11.327-9.544 3.63-19.805 3.63Z"/></svg>