<svg xmlns="http://www.w3.org/2000/svg" height="24" viewBox="0 -960 960 960" width="24"><path d="M479.953-60.782q-86.91 0-163.301-32.913-76.392-32.913-133.218-89.739-56.826-56.826-89.74-133.265-32.912-76.438-32.912-163.348 0-86.91 32.913-163.301 32.913-76.392 89.739-133.218 56.826-56.826 133.265-89.739 76.438-32.913 163.348-32.913 86.91 0 163.301 32.913 76.392 32.913 133.218 89.739 56.826 56.826 89.739 133.265 32.913 76.438 32.913 163.348 0 86.91-32.913 163.301-32.913 76.392-89.739 133.218-56.826 56.826-133.265 89.74-76.438 32.912-163.348 32.912Zm.322-106.001q62.512 0 120.14-23.435 57.628-23.434 102.063-67.869L480-480.161v-313.056q-130.609 0-221.913 91.304T166.783-480q0 130.609 91.304 221.913t222.188 91.304Z"/></svg>