<svg xmlns="http://www.w3.org/2000/svg" height="24" viewBox="0 -960 960 960" width="24"><path d="M460-102v-58.461q-125-11.693-206.423-93.116T160.461-460H102v-40h58.461q11.693-125 93.116-206.423T460-799.539V-858h40v58.461q125 11.693 206.423 93.116T799.539-500H858v40h-58.461q-11.693 125-93.116 206.423T500-160.461V-102h-40Zm20-98q116 0 198-82t82-198q0-116-82-198t-198-82q-116 0-198 82t-82 198q0 116 82 198t198 82Zm0-160q-49.5 0-84.75-35.25T360-480q0-49.5 35.25-84.75T480-600q49.5 0 84.75 35.25T600-480q0 49.5-35.25 84.75T480-360Zm0-40q33 0 56.5-23.5T560-480q0-33-23.5-56.5T480-560q-33 0-56.5 23.5T400-480q0 33 23.5 56.5T480-400Zm0-80Z"/></svg>