<svg xmlns="http://www.w3.org/2000/svg" height="20" viewBox="0 -960 960 960" width="20"><path d="M246.059-121Q189-121 149-160.958 109-200.917 109-258v-330q0-24.3 17.289-41.65 17.29-17.35 41.5-17.35Q192-647 209.5-629.65T227-588v330q0 8.075 5.462 13.538Q237.925-239 246-239t13.538-5.462Q265-249.925 265-258v-444q0-57.083 39.941-97.042 39.941-39.958 97-39.958T499-799.042q40 39.959 40 97.042v444q0 8.075 5.463 13.538Q549.925-239 558-239q8.075 0 13.537-5.462Q577-249.925 577-258v-444q0-57.083 39.941-97.042 39.941-39.958 97-39.958T811-799.042q40 39.959 40 97.042v330q0 24.3-17.289 41.65-17.29 17.35-41.5 17.35Q768-313 750-331t-18-42v-329q0-8.075-5.463-13.537Q721.075-721 713-721q-8.075 0-13.537 5.463Q694-710.075 694-702v444q0 57.083-39.941 97.042-39.941 39.958-97 39.958T460.5-160.958Q421-200.917 421-258v-444q0-8.075-5.462-13.537Q410.075-721 402-721t-13.538 5.463Q383-710.075 383-702v444q0 57.083-39.941 97.042-39.941 39.958-97 39.958Z"/></svg>