<svg xmlns="http://www.w3.org/2000/svg" height="20" viewBox="0 -960 960 960" width="20"><path d="M266.76-187.077q-36.222 0-61.799-25.42-25.577-25.419-25.577-61.734v-290.692q0-6.8 4.548-11.4 4.547-4.6 11.269-4.6t11.453 4.6q4.731 4.6 4.731 11.4v290.692q0 23.441 15.868 39.297 15.868 15.857 39.326 15.857 23.457 0 39.285-15.857 15.828-15.856 15.828-39.297v-411.538q0-36.314 25.355-61.734 25.356-25.42 61.577-25.42 36.222 0 61.799 25.42Q496-722.083 496-685.769v411.538q0 23.441 15.868 39.297 15.869 15.857 39.326 15.857 23.458 0 39.286-15.857 15.828-15.856 15.828-39.297v-411.538q0-36.314 25.355-61.734t61.577-25.42q36.222 0 61.799 25.42 25.577 25.42 25.577 61.734v290.692q0 6.8-4.548 11.4-4.547 4.6-11.269 4.6t-11.953-5.25q-5.231-5.25-5.231-11.75v-289.692q0-23.441-15.868-39.297-15.868-15.857-39.326-15.857-23.457 0-39.285 15.857-15.828 15.856-15.828 39.297v411.538q0 36.315-25.355 61.734-25.356 25.42-61.577 25.42-36.222 0-61.299-25.42Q464-237.916 464-274.231v-411.538q0-23.441-15.868-39.297-15.869-15.857-39.326-15.857-23.458 0-39.286 15.857-15.828 15.856-15.828 39.297v411.538q0 36.315-25.355 61.734-25.355 25.42-61.577 25.42Z"/></svg>