<svg xmlns="http://www.w3.org/2000/svg" height="20" viewBox="0 -960 960 960" width="20"><path d="M174.783-172.782q-41.005 0-69.503-28.51-28.498-28.51-28.498-69.531V-689.5q0-41.022 28.498-69.37 28.498-28.348 69.503-28.348h610.434q41.005 0 69.503 28.51 28.498 28.51 28.498 69.531V-270.5q0 41.022-28.498 69.37-28.498 28.348-69.503 28.348H174.783Zm0-98.001h610.434v-418.434H174.783v418.434Zm48-48h322.434v-322.434H222.783v322.434Zm460.472 0q17.571 0 29.766-11.886 12.196-11.886 12.196-29.457 0-17.57-11.886-29.766-11.886-12.196-29.457-12.196-17.57 0-29.766 11.886-12.196 11.886-12.196 29.457t11.886 29.766q11.886 12.196 29.457 12.196Zm-377.167-83.305v-155.824h155.824v155.824H306.088Zm377.167-36.26q17.571 0 29.766-11.886 12.196-11.886 12.196-29.456 0-17.571-11.886-29.767-11.886-12.195-29.457-12.195-17.57 0-29.766 11.886-12.196 11.886-12.196 29.456 0 17.571 11.886 29.767 11.886 12.195 29.457 12.195Zm0-119.564q17.571 0 29.766-11.886 12.196-11.886 12.196-29.457t-11.886-29.766q-11.886-12.196-29.457-12.196-17.57 0-29.766 11.886-12.196 11.886-12.196 29.457 0 17.57 11.886 29.766 11.886 12.196 29.457 12.196ZM174.783-270.783v-418.434 418.434Z"/></svg>