<svg xmlns="http://www.w3.org/2000/svg" height="20" viewBox="0 -960 960 960" width="20"><path d="M177-188v-53h-20.789Q132-241 114.5-258.289q-17.5-17.29-17.5-41.5Q97-324 114.35-341.5T156-359h21v-106h-43q-20.833 0-27.917-19.5Q99-504 114-517l327-284q18-14 39-14t39 14l327 284q15 13 7.917 32.5Q846.833-465 826-465h-43v106h21q24.3 0 41.65 17.289 17.35 17.29 17.35 41.5Q863-276 845.938-258.5 828.875-241 805-241l-22 1v52q0 24.3-17.289 41.65-17.29 17.35-41.5 17.35Q700-129 682.5-146.35T665-188v-53H539v53q0 24.3-17.289 41.65-17.29 17.35-41.5 17.35Q456-129 438.5-146.35T421-188v-53H295v53q0 24.3-17.289 41.65-17.29 17.35-41.5 17.35Q212-129 194.5-146.35T177-188Zm118-171h126v-268L295-517v158Zm244 0h126v-158L539-626v267Z"/></svg>