<svg xmlns="http://www.w3.org/2000/svg" height="24" viewBox="0 -960 960 960" width="24"><path d="M240-220v-100h-26.154q-8.5 0-14.25-5.758-5.75-5.757-5.75-14.269 0-8.511 5.75-14.242 5.75-5.731 14.25-5.731H240v-156.154l-28.77 11.539q-10.923 6.154-19-4.539-8.077-10.692 2.923-20.461l263.254-237.179q8.67-8.668 21.521-8.668 12.852 0 21.687 8.692l263.232 237.155q11 9.769 2.923 20.461-8.077 10.693-19 4.539L720-516.154V-360h26.154q8.5 0 14.25 5.758t5.75 14.269q0 8.512-5.75 14.242-5.75 5.731-14.25 5.731H720v100q0 8.5-5.758 14.25-5.757 5.75-14.269 5.75-8.511 0-14.242-5.75Q680-211.5 680-220v-100H500v100q0 8.5-5.758 14.25-5.757 5.75-14.269 5.75t-14.242-5.75Q460-211.5 460-220v-100H280v100q0 8.5-5.758 14.25T259.973-200q-8.512 0-14.242-5.75Q240-211.5 240-220Zm40-140h180v-353.692L280-552v192Zm220 0h180v-192L500-713.692V-360Z"/></svg>