<svg xmlns="http://www.w3.org/2000/svg" height="24" viewBox="0 -960 960 960" width="24"><path d="M354.021-36.476q-68.762 0-117.393-48.615-48.631-48.614-48.631-117.386v-615.046q0-43.725 31.138-74.863 31.138-31.138 74.864-31.138h120q43.725 0 74.863 31.138Q520-861.248 520-817.523v615.046q0 68.772-48.608 117.386-48.608 48.615-117.371 48.615Zm-60.022-318.003q14-7 28.5-10.57 14.5-3.571 31.5-3.571t31.5 3.571q14.5 3.57 28.5 10.57v-463.044h-120v463.044Zm60 212.002q25 0 42.5-17.5t17.5-42.5q0-25-17.5-42.5t-42.5-17.5q-25 0-42.5 17.5t-17.5 42.5q0 25 17.5 42.5t42.5 17.5Zm352.002-53.999q-43.725 0-74.863-31.138Q600-258.752 600-302.477v-355.046q0-43.725 31.138-74.863 31.138-31.138 74.863-31.138h40q43.726 0 74.864 31.138 31.138 31.138 31.138 74.863v355.046q0 43.725-31.138 74.863-31.138 31.138-74.864 31.138h-40Zm0-106.001h40v-355.046h-40v355.046ZM293.999-817.523h120-120Zm412.002 515.046h40-40Z"/></svg>