<svg xmlns="http://www.w3.org/2000/svg" height="20" viewBox="0 -960 960 960" width="20"><path d="M590.769-356h94.462q11.9 0 19.95-8.05 8.05-8.05 8.05-19.95v-192q0-11.9-8.05-19.95-8.05-8.05-19.95-8.05h-94.462q-11.9 0-19.95 8.05-8.05 8.05-8.05 19.95v192q0 11.9 8.05 19.95 8.05 8.05 19.95 8.05Zm4-32v-184h86.462v184h-86.462Zm-221.231 32H468q11.9 0 19.95-8.05Q496-372.1 496-384v-192q0-11.9-8.05-19.95Q479.9-604 468-604h-94.462q-11.9 0-19.95 8.05-8.05 8.05-8.05 19.95v192q0 11.9 8.05 19.95 8.05 8.05 19.95 8.05Zm4.001-32v-184H464v184h-86.461Zm-98.77 16.04v-215.757q0-6.783-4.547-11.533-4.547-4.75-11.269-4.75t-11.453 4.588q-4.731 4.589-4.731 11.372v215.757q0 6.783 4.547 11.533 4.548 4.75 11.27 4.75 6.722 0 11.452-4.588 4.731-4.589 4.731-11.372ZM136-288.656v-383.012q0-23.371 16.631-39.851Q169.261-728 192.615-728h574.77q23.354 0 39.984 16.642Q824-694.715 824-671.344v383.012q0 23.371-16.631 39.851Q790.739-232 767.385-232h-574.77q-23.354 0-39.984-16.642Q136-265.285 136-288.656Z"/></svg>