<svg xmlns="http://www.w3.org/2000/svg" height="24" viewBox="0 -960 960 960" width="24"><path d="M590.769-340h118.462q8.5 0 14.25-5.75t5.75-14.25v-240q0-8.5-5.75-14.25t-14.25-5.75H590.769q-8.5 0-14.25 5.75t-5.75 14.25v240q0 8.5 5.75 14.25t14.25 5.75Zm20-40v-200h78.462v200h-78.462Zm-249.231 40H480q8.5 0 14.25-5.75T500-360v-240q0-8.5-5.75-14.25T480-620H361.538q-8.5 0-14.25 5.75t-5.75 14.25v240q0 8.5 5.75 14.25t14.25 5.75Zm20.001-40v-200H460v200h-78.461Zm-110.77 20v-240q0-8.5-5.758-14.25-5.757-5.75-14.269-5.75-8.511 0-14.242 5.75-5.731 5.75-5.731 14.25v240q0 8.5 5.758 14.25t14.269 5.75q8.512 0 14.242-5.75 5.731-5.75 5.731-14.25ZM120-264.615v-430.77q0-26.654 18.981-45.634Q157.961-760 184.615-760h590.77q26.654 0 45.634 18.981Q840-722.039 840-695.385v430.77q0 26.654-18.981 45.634Q802.039-200 775.385-200h-590.77q-26.654 0-45.634-18.981Q120-237.961 120-264.615Z"/></svg>