<svg xmlns="http://www.w3.org/2000/svg" height="20" viewBox="0 -960 960 960" width="20"><path d="M423.385-419.692h-84.308q-5.067 0-8.38 3.302-3.312 3.303-3.312 8.354 0 5.051 3.312 8.39 3.313 3.338 8.38 3.338H432q6.277 0 10.523-4.246 4.246-4.246 4.246-10.523v-137.846q0-6.277-4.246-10.523-4.246-4.246-10.523-4.246h-89.846q-6.277 0-10.523 4.246-4.246 4.246-4.246 10.523v73.538q0 6.277 4.246 10.523 4.246 4.247 10.523 4.247h81.231v40.923Zm-72.616-71.693v-41.538h72.616v41.538h-72.616Zm172 18.462 73.616 73q1 .231 8.526 3.615 8.858 0 11.397-7.5 2.538-7.5-2.385-13.115l-66.538-64.615 67.538-63.308q4.923-4.846 1.647-11.846t-10.647-7q-1.154 0-3.664.986-2.51.986-4.336 2.629l-75.154 71.462V-552q0-5.067-3.302-8.38-3.303-3.312-8.354-3.312-5.051 0-8.39 3.297-3.338 3.298-3.338 8.341v143.677q0 5.044 3.302 8.557 3.303 3.512 8.354 3.512 5.051 0 8.39-3.312 3.338-3.313 3.338-8.38v-64.923ZM240.615-184q-24.315 0-40.465-16.15Q184-216.3 184-240.615v-478.77q0-24.315 16.15-40.465Q216.3-776 240.615-776h478.77q24.315 0 40.465 16.15Q776-743.7 776-719.385v478.77q0 24.315-16.15 40.465Q743.7-184 719.385-184h-478.77Z"/></svg>