<svg xmlns="http://www.w3.org/2000/svg" height="24" viewBox="0 -960 960 960" width="24"><path d="M134.564-200.565v-558.87q0-44.305 30.848-75.153 30.848-30.848 75.153-30.848h478.87q44.305 0 75.153 30.848 30.848 30.848 30.848 75.153v558.87h26.999q22.088 0 37.544 15.456 15.457 15.457 15.457 37.544 0 22.088-15.457 37.544-15.456 15.457-37.544 15.457h-744.87q-22.088 0-37.544-15.457-15.457-15.456-15.457-37.544 0-22.087 15.457-37.544 15.456-15.456 37.544-15.456h26.999Zm106.001 0H349.26v-558.87H240.565v558.87Zm203.392 0h72.086v-558.87h-72.086v558.87Zm166.783 0h108.695v-558.87H610.74v558.87Zm-370.175 0v-558.87 558.87Zm478.87 0v-558.87 558.87Z"/></svg>