<svg xmlns="http://www.w3.org/2000/svg" height="20" viewBox="0 -960 960 960" width="20"><path d="M432-240h24l168-240h-96v-144h-24L336-384h96v144Zm48 163.218q-138.228 0-234.723-96.507Q148.782-269.797 148.782-408q0-101.522 79.022-215.457Q306.826-737.392 480-888.871q176.174 158.479 253.696 271.414Q811.218-504.522 811.218-408q0 138.203-96.495 234.711Q618.228-76.782 480-76.782Zm.079-98.001q97.095 0 165.116-68.072Q713.217-310.927 713.217-408q0-64.043-51.739-141.934Q609.739-627.826 480-758.826q-129.739 131-181.478 208.892Q246.783-472.043 246.783-408q0 97.073 68.1 165.145 68.101 68.072 165.196 68.072ZM480-482.826Z"/></svg>