<svg xmlns="http://www.w3.org/2000/svg" height="20" viewBox="0 -960 960 960" width="20"><path d="M727-148.37 763.391-185l-65.717-65.761v-87.152h-51.587v108.63L727-148.37ZM411.587-724.304h136.826v-72H411.587v72ZM671.774-48Q592-48 536-104.226t-56-136Q480-320 536.226-376t136-56Q752-432 808-375.774t56 136Q864-160 807.774-104t-136 56ZM87.869-135.869v-588.435h240.718v-155.001h302.826v155.001h240.718v310q-41.435-43.109-90.609-66.402Q732.348-504 672-504q-110 0-187 77t-77 187q0 23.63 5.696 54.163 5.695 30.533 16.848 49.968H87.869Z"/></svg>