<svg xmlns="http://www.w3.org/2000/svg" height="20" viewBox="0 -960 960 960" width="20"><path d="M727-157.154 754.846-185l-63.461-63.164v-83.221h-38.77v99.847L727-157.154ZM408-680h144v-72H408v72ZM671.774-88q-63.62 0-107.697-44.303Q520-176.606 520-240.226q0-63.62 44.303-107.697Q608.606-392 672.226-392q63.62 0 107.697 44.303Q824-303.394 824-239.774q0 63.62-44.303 107.697Q735.394-88 671.774-88ZM136-184v-496h240v-104h208v104h240v280.538Q791.693-431 754.577-447.5 717.462-464 672-464q-93.846 0-158.923 65.077T448-240q0 10.373 1.423 28.417 1.423 18.045 3.5 27.583H136Z"/></svg>