<svg xmlns="http://www.w3.org/2000/svg" height="24" viewBox="0 -960 960 960" width="24"><path d="M786-149.077 810.923-174l-73.231-73.082v-110.61h-35.384v124.923L786-149.077ZM400-699.999h160v-80H400v80ZM720-60.001q-74.922 0-127.461-52.538Q540.001-165.078 540.001-240t52.538-127.461Q645.078-419.999 720-419.999t127.461 52.538Q899.999-314.922 899.999-240t-52.538 127.461Q794.922-60.001 720-60.001Zm-619.999-80v-559.998h240v-139.998h279.998v139.998h240v241.769q-31.154-20.769-66.961-31.269-35.808-10.5-73.038-10.5-107.922 0-183.961 76.038Q460.001-347.922 460.001-240q0 25.686 4.962 50.958 4.961 25.272 15.5 49.041H100.001Z"/></svg>