<svg xmlns="http://www.w3.org/2000/svg" height="20" viewBox="0 -960 960 960" width="20"><path d="M220.091-184q-6.839 0-11.465-4.547Q204-193.094 204-199.816t4.6-11.453Q213.2-216 220-216h56v-531.693q0-12.03 8.071-20.169Q292.143-776 304.076-776h224.607q11.932 0 19.625 8.138Q556-759.723 556-747.693V-728h100.693q10.73 0 19.019 8.288Q684-711.423 684-700.693V-216h57q6.8 0 11.4 4.547 4.6 4.548 4.6 11.27 0 6.722-4.658 11.452Q747.683-184 740.796-184h-59.721q-12.69 0-20.883-7.851Q652-199.702 652-211.307V-696h-96v484.693q0 10.73-8.288 19.019-8.289 8.288-19.02 8.288H220.091ZM308-744v528-528Zm170.769 264.211q0-10.596-7.982-18.788-7.981-8.192-18.577-8.192-10.595 0-18.787 7.982-8.192 7.981-8.192 18.576 0 10.596 7.981 18.788 7.982 8.192 18.577 8.192 10.596 0 18.788-7.982 8.192-7.981 8.192-18.576ZM308-216h216v-528H308v528Z"/></svg>