<svg xmlns="http://www.w3.org/2000/svg" height="24" viewBox="0 -960 960 960" width="24"><path d="M200-160q-8.5 0-14.25-5.758-5.75-5.757-5.75-14.269 0-8.511 5.75-14.242Q191.5-200 200-200h60v-567.693q0-13.73 9.288-23.019Q278.577-800 292.307-800h246.154q13.731 0 23.02 9.288 9.288 9.289 9.288 23.019V-760h96.924q13.73 0 23.019 9.288Q700-741.423 700-727.693V-200h60q8.5 0 14.25 5.758t5.75 14.269q0 8.512-5.75 14.242Q768.5-160 760-160h-67.311q-14.304 0-23.497-9.288Q660-178.577 660-192.307V-720h-89.231v527.693q0 13.73-9.288 23.019-9.289 9.288-23.02 9.288H200Zm290.769-320q0-12.385-9.192-21.577-9.192-9.192-21.577-9.192-12.385 0-21.577 9.192-9.192 9.192-9.192 21.577 0 12.385 9.192 21.577 9.192 9.192 21.577 9.192 12.385 0 21.577-9.192 9.192-9.192 9.192-21.577Z"/></svg>