<svg xmlns="http://www.w3.org/2000/svg" height="20" viewBox="0 -960 960 960" width="20"><path d="M149.002-124.782q-20.426 0-34.758-14.246-14.333-14.246-14.333-34.544 0-20.298 14.306-34.754 14.307-14.457 34.694-14.457h31.478v-563.435q0-20.387 14.329-34.694 14.328-14.306 34.746-14.306h307.813q17.027 0 29.288 10.067t16.218 25.933v12H731.61q19.087 0 33.544 14.456 14.457 14.457 14.457 33.544v516.435h32.478q20.387 0 34.693 14.246 14.307 14.246 14.307 34.544 0 20.298-14.365 34.755-14.366 14.456-34.84 14.456h-80.887q-20.474 0-34.931-14.019-14.457-14.019-14.457-33.981v-516.435h-96v516.435q0 19.087-14.457 33.544-14.456 14.456-33.543 14.456H149.002Zm129.389-612.435v514.434-514.434ZM456.13-479.789q0-16.907-11.703-28.82-11.702-11.913-28.609-11.913-16.906 0-28.819 11.703-11.913 11.702-11.913 28.608 0 16.907 11.702 28.82 11.703 11.913 28.609 11.913 16.907 0 28.82-11.703 11.913-11.702 11.913-28.608ZM278.391-222.783h209.217v-514.434H278.391v514.434Z"/></svg>