<svg xmlns="http://www.w3.org/2000/svg" height="24" viewBox="0 -960 960 960" width="24"><path d="M100-220v-40h760v40H100Zm21.385-238.923-30.462-17.692 38.615-67.693h-77.23v-35.384h77.23l-38.615-65.693 30.462-17.692L160-597.385l38.615-65.692 30.462 17.692-38.615 65.693h77.23v35.384h-77.23l38.615 67.693-30.462 17.692L160-526.615l-38.615 67.692Zm320 0-30.462-17.692 38.615-67.693h-77.23v-35.384h77.23l-38.615-65.693 30.462-17.692L480-597.385l38.615-65.692 30.462 17.692-38.615 65.693h77.23v35.384h-77.23l38.615 67.693-30.462 17.692L480-526.615l-38.615 67.692Zm320 0-30.462-17.692 38.615-67.693h-77.23v-35.384h77.23l-38.615-65.693 30.462-17.692L800-597.385l38.615-65.692 30.462 17.692-38.615 65.693h77.23v35.384h-77.23l38.615 67.693-30.462 17.692L800-526.615l-38.615 67.692Z"/></svg>