<svg xmlns="http://www.w3.org/2000/svg" height="20" viewBox="0 -960 960 960" width="20"><path d="M228-110q-49.7 0-83.85-34.5Q110-179 110-228v-504q0-49 34.15-83.5T228-850h504q49.7 0 83.85 34.5Q850-781 850-732v504q0 49-34.15 83.5T732-110H228Zm0-118h504v-504H228v504Zm0 0v-504 504Zm76-48h352.194Q675-276 682-292t-3-31L575-467q-8.25-13-23-13.5T528-468l-84 112-48-64q-9.25-13-24-12.5T349-419l-67.818 96.026Q271-308 278.25-292T304-276Zm32-277q29.583 0 50.292-20.708Q407-594.417 407-624q0-29.583-20.708-50.292Q365.583-695 336-695q-29.583 0-50.292 20.708Q265-653.583 265-624q0 29.583 20.708 50.292Q306.417-553 336-553Z"/></svg>