<svg xmlns="http://www.w3.org/2000/svg" height="24" viewBox="0 -960 960 960" width="24"><path d="m729.23-344.155-42.153-42.152 163.614-163.615 42.769 42.153-164.23 163.614Zm-75.923-76.153-42.768-42.153 121.462-121.461-170-170-121.462 121.461-42.768-42.768 164.23-163.614 254.921 254.921-163.615 163.614ZM814.463-60.616 560.693-313.77 431.155-184.233H75.003v-137.613q35.153-15.154 68.923-30.808 33.769-15.654 65.769-37.577l58.615 58.614 29.154-29.154-56.384-56.384 13.192-13.192q6.346-6.346 13.577-13.807l56.384 56.384 27.23-27.231-60.614-60.615q5.615-8.692 9.923-17.769 4.307-9.076 7.307-19.153l70.153 70.153 27.231-27.231L69.078-806.001l42.153-42.768 745.385 746-42.153 42.153ZM136.232-244.23h270.385l112.308-112.308-79.309-79.309-171.922 171.922-57.461-57.461q-18.615 11.001-36.423 20.193-17.809 9.193-37.578 18.27v38.693Zm303.384-191.617Zm97.923-99.613Z"/></svg>