<svg xmlns="http://www.w3.org/2000/svg" height="24" viewBox="0 -960 960 960" width="24"><path d="m801.047-280.432-74.654-74.653L930.83-559.521l75.65 74.653-205.433 204.436ZM692.176-390.303 369.739-711.74l205.436-204.436 321.437 321.437-204.436 204.436ZM812.479-31.694 579.001-264.172 430.174-115.911H-2.393V-329.87q40.217-11.174 78.304-25.109 38.088-13.934 75.175-33.369l83.696 83.696 29.696-29.696-77.305-77.87q9.131-8 16.631-14.369 7.5-6.37 16.065-15.935l76.174 75.609 29.131-29.13-78.348-78.348q7.13-9.87 11.913-20.587 4.782-10.718 8.913-22.152l88.522 89.087 29.696-29.696L40.173-803.435l62.218-62.653L874.132-93.912l-61.653 62.218Z"/></svg>