<svg xmlns="http://www.w3.org/2000/svg" height="24" viewBox="0 -960 960 960" width="24"><path d="m480-493-62.615 48.923q-5.231 3.462-10.077.116-4.847-3.347-2.847-8.808l23.693-79.385-62.308-45.231q-5-3.461-2.615-9.192 2.384-5.731 7.846-5.731h77.538l23.693-78.923q2-5.461 7.692-5.461t7.692 5.461l23.693 78.923h77.307q5.462 0 7.962 5.731t-2.5 9.192l-62.539 45.231 23.693 79.385q2 5.461-2.846 8.808-4.847 3.346-10.077-.116L480-493Zm0 331.462-158.539 47.384q-15.384 5.462-28.423-4.615Q280-128.846 280-145v-220.154q-38-37.384-59-87.538Q200-502.846 200-560q0-117.077 81.461-198.539Q362.923-840 480-840q117.077 0 198.539 81.461Q760-677.077 760-560q0 57.154-21 107.308t-59 87.538V-145q0 16.154-13.038 26.231-13.039 10.077-28.423 4.615L480-161.538ZM480-320q100 0 170-70t70-170q0-100-70-170t-170-70q-100 0-170 70t-70 170q0 100 70 170t170 70Z"/></svg>