<svg xmlns="http://www.w3.org/2000/svg" height="20" viewBox="0 -960 960 960" width="20"><path d="M474-317h22v-33q30-4.789 50-22.289t20-47.922q0-30.631-21.5-45.71T496-494v-87q12 2 21.812 10.083Q527.625-562.833 532-553l27-12q-9-19-25.073-29.707Q517.855-605.414 496-610v-33h-22v32.582q-29.254 2.929-49.627 20.019T404-544.989q0 28.989 22.5 46.106t48.5 28.372V-381q-21-3-33.5-15T423-425l-28 11.698q8 25.802 28.87 42.566 20.869 16.764 50.13 20.99V-317Zm22-64v-82q14.929 6.842 26.964 18.421Q535-433 535-419.933 535-405 524-394t-28 13Zm-22-121q-14.379-7.789-27.19-18.395Q434-531 434-544.5q0-15.093 12-24.796Q458-579 474-581v79ZM336-244q-98.614 0-167.307-68.567Q100-381.133 100-479.567 100-578 168.693-647 237.386-716 336-716h288q98.614 0 167.307 68.567Q860-578.867 860-480.433 860-382 791.307-313 722.614-244 624-244H336Z"/></svg>