<svg xmlns="http://www.w3.org/2000/svg" height="20" viewBox="0 -960 960 960" width="20"><path d="M463.348-306.348h43.304v-35.13q32.261-4.435 53.392-24.348 21.13-19.913 21.13-51.348 0-32-20.369-49.696-20.37-17.695-54.153-34.652v-63.869q7.739 2.435 13.921 8.888 6.182 6.453 9.557 15.59L577.305-562q-8.565-23.565-26.696-36.696-18.13-13.13-43.957-19.826v-35.13h-43.304v33.712q-32.08 2.587-53.301 22.111-21.221 19.523-21.221 50.003 0 29.869 21.086 48.5 21.087 18.63 54.436 35.206v70.641q-12.478-5-21.218-15.521-8.739-10.522-14.304-24.696l-47.739 19.655q9.13 29.867 30.565 49.164 21.435 19.297 51.696 24.652v33.877Zm43.304-87.565v-50.913q8.174 3.305 14.348 10.892 6.174 7.586 6.174 14.731 0 7.681-5.957 15.551-5.956 7.869-14.565 9.739Zm-43.304-125.696q-9.119-5.224-15.32-11.351-6.202-6.127-6.202-13.54 0-7.413 6.174-14.782 6.174-7.37 15.348-8.805v48.478ZM336-173.347q-128.256 0-217.455-89.128-89.198-89.128-89.198-217.283 0-128.155 89.198-217.525 89.199-89.37 217.455-89.37h288q128.256 0 217.455 89.128 89.198 89.128 89.198 217.283 0 128.155-89.198 217.525-89.199 89.37-217.455 89.37H336Zm0-98.001h288q86.814 0 147.733-60.919Q832.652-393.186 832.652-480q0-86.814-60.919-147.733Q710.814-688.652 624-688.652H336q-86.814 0-147.733 60.919Q127.348-566.814 127.348-480q0 86.814 60.919 147.733Q249.186-271.348 336-271.348ZM480-480Z"/></svg>