<svg xmlns="http://www.w3.org/2000/svg" height="24" viewBox="0 -960 960 960" width="24"><path d="M247.692-480h64.616v-64.615h-64.616V-480ZM400-480h64.615v-64.615H400V-480Zm152.308 152.308h64.615v-64.616h-64.615v64.616Zm0-152.308h64.615v-64.615h-64.615V-480ZM184.615-200Q157-200 138.5-218.5 120-237 120-264.615v-430.77Q120-723 138.5-741.5 157-760 184.615-760h590.77Q803-760 821.5-741.5 840-723 840-695.385v430.77Q840-237 821.5-218.5 803-200 775.385-200h-590.77Zm0-40h590.77q9.23 0 16.923-7.692Q800-255.385 800-264.615v-430.77q0-9.23-7.692-16.923Q784.615-720 775.385-720h-590.77q-9.23 0-16.923 7.692Q160-704.615 160-695.385v430.77q0 9.23 7.692 16.923Q175.385-240 184.615-240ZM160-240v-480 480Z"/></svg>