<svg xmlns="http://www.w3.org/2000/svg" height="24" viewBox="0 -960 960 960" width="24"><path d="M652.913-67.087q-33 0-56.5-23.5t-23.5-56.5q0-33 23.5-56.5t56.5-23.5q33 0 56.5 23.5t23.5 56.5q0 33-23.5 56.5t-56.5 23.5Zm-412.913 0q-33 0-56.5-23.5t-23.5-56.5q0-33 23.5-56.5t56.5-23.5q33 0 56.5 23.5t23.5 56.5q0 33-23.5 56.5t-56.5 23.5Zm149.978-291h211.935v-248.695L389.978-358.087Zm-196.913 91 459.957-540.739q20.717-23.718 46.267-36.316 25.549-12.598 55.791-12.598 58.399 0 98.953 40.601t40.554 98.9v31.5h-91v-31.5q0-20.658-13.846-34.579-13.847-13.921-34.393-13.921-9.826 0-17.31 3.521-7.483 3.522-13.646 10.566l-31.479 35.717v448.848H193.065Zm193.087-312.5L178.478-787.022q50.87-36.87 107.218-55.685 56.347-18.815 116.217-18.815 47.772 0 93.951 12.076 46.18 12.076 89.528 36.228l-199.24 233.631Zm-5.717-134.022L428.022-769q-6.087-.761-12.935-1.142-6.848-.38-13.174-.38-18.087 0-35.032 2.522-16.946 2.521-34.033 6.804l47.587 47.587Zm0 0Zm115.63 230.674Z"/></svg>