<svg xmlns="http://www.w3.org/2000/svg" height="20" viewBox="0 -960 960 960" width="20"><path d="M597.019-162.153q-20.269 0-34.49-14.434-14.221-14.434-14.221-34.702t14.433-34.49Q577.175-260 597.443-260q20.269 0 34.49 14.434 14.221 14.433 14.221 34.702 0 20.268-14.433 34.489-14.434 14.222-34.702 14.222Zm-294.77 0q-19.788 0-34.249-14.434-14.462-14.434-14.462-34.702t14.674-34.49Q282.886-260 302.674-260q21.326 0 35.018 14.434 13.693 14.433 13.693 34.702 0 20.268-13.905 34.489-13.905 14.222-35.231 14.222ZM352.693-340h213.461v-251L352.693-340Zm-70.616 32 355.462-415.923q14.692-17.693 32.378-24.885T709.385-756q29.38 0 49.305 19.925 19.926 19.926 19.926 49.587V-672h-32v-14.769q0-15.858-10.687-26.544Q725.242-724 709.385-724q-15.624 0-27.697 6.423-12.072 6.423-22.149 17.5l-61.385 72.769V-308H282.077Zm130.307-262.692-138.769-138.77Q308.615-732 347.15-744q38.536-12 81.619-12 31.769 0 60.654 5.154 28.885 5.153 61.039 17.23L412.384-570.692Zm-1.692-43.77 83.462-99.846q-18.231-4.846-35.193-7.269Q442-724 423.769-724q-26.154 0-51.192 4.923-25.039 4.923-48.423 17.308l86.538 87.307Zm0 0Zm49.616 148.847Z"/></svg>