<svg xmlns="http://www.w3.org/2000/svg" height="20" viewBox="0 -960 960 960" width="20"><path d="M373.999-792q-12 0-24 1t-24 3q57 63.892 88.5 142.789 31.5 78.896 31.5 165.054 0 86.157-31.5 164.657-31.5 78.5-88.5 143.5 12 2 24 3t24 1q129.675 0 220.838-91.23 91.162-91.229 91.162-221 0-129.77-91.162-220.77-91.163-91-220.838-91Zm.152-51.999q75.698 0 141.548 28.42 65.849 28.42 115.649 78.21 49.8 49.791 78.225 115.853 28.425 66.062 28.425 141.173 0 75.112-28.425 141.48-28.425 66.369-78.225 116.182-49.8 49.814-115.649 78.247-65.85 28.433-141.548 28.433-40.265 0-78.63-8.462-38.366-8.461-73.519-27.153 79.538-58.231 125.768-143.975 46.231-85.745 46.231-184.269T347.77-664.269q-46.23-85.884-125.768-144.115 35.153-18.692 73.519-27.153 38.365-8.462 78.63-8.462ZM445.999-480Z"/></svg>