<svg xmlns="http://www.w3.org/2000/svg" height="24" viewBox="0 -960 960 960" width="24"><path d="M341.851-166Q211-166 119.5-257.354T28-479.854Q28-611 119.354-702.5t222.5-91.5Q473-794 564-702.646t91 222.5Q655-349 563.851-257.5q-91.148 91.5-222 91.5ZM342-480Zm335 308v-130q58-18 93.5-67.5T806-480q0-61-35.5-110.5T677-658v-130q112 20 183.5 107T932-480q0 114-71.5 201T677-172ZM341.986-292Q420-292 474.5-346.986q54.5-54.986 54.5-133Q529-558 474.302-613 419.605-668 342-668q-78.02 0-133.01 54.986-54.99 54.986-54.99 133Q154-402 208.986-347q54.986 55 133 55Z"/></svg>