<svg xmlns="http://www.w3.org/2000/svg" height="20" viewBox="0 -960 960 960" width="20"><path d="M315.772 0q-18.077 0-30.838-12.228t-12.761-30.305q0-18.076 12.551-30.837 12.55-12.761 30.626-12.761 18.077 0 30.516 12.55 12.438 12.55 12.438 30.627 0 18.077-12.228 30.515Q333.848 0 315.772 0Zm165.043 0q-18.076 0-30.837-12.228t-12.761-30.305q0-18.076 12.551-30.837 12.55-12.761 30.626-12.761 18.077 0 30.516 12.55 12.438 12.55 12.438 30.627 0 18.077-12.228 30.515Q498.892 0 480.815 0Zm165.044 0q-18.076 0-30.554-12.228-12.479-12.228-12.479-30.305 0-18.076 12.228-30.837 12.229-12.761 30.305-12.761t30.555 12.55q12.478 12.55 12.478 30.627 0 18.077-12.228 30.515Q663.936 0 645.859 0ZM231.521-135.521v-832.958h496.958v832.958H231.521Zm98.002-218.002h300.954v-396.954H329.523v396.954Z"/></svg>