<svg xmlns="http://www.w3.org/2000/svg" height="20" viewBox="0 -960 960 960" width="20"><path d="M324.211-9.23q-10.596 0-18.788-7.982t-8.192-18.577q0-10.596 7.982-18.788 7.981-8.192 18.576-8.192 10.596 0 18.788 7.981 8.192 7.982 8.192 18.577 0 10.596-7.982 18.788-7.981 8.192-18.576 8.192Zm156 0q-10.596 0-18.788-7.982t-8.192-18.577q0-10.596 7.982-18.788 7.981-8.192 18.576-8.192 10.596 0 18.788 7.981 8.192 7.982 8.192 18.577 0 10.596-7.982 18.788-7.981 8.192-18.576 8.192Zm156 0q-10.596 0-18.788-7.982t-8.192-18.577q0-10.596 7.982-18.788 7.981-8.192 18.576-8.192 10.596 0 18.788 7.981 8.192 7.982 8.192 18.577 0 10.596-7.982 18.788-7.981 8.192-18.576 8.192ZM272.307-184v-736h415.386v736H272.307Zm32.001-132h351.384v-472H304.308v472Z"/></svg>