<svg xmlns="http://www.w3.org/2000/svg" height="24" viewBox="0 -960 960 960" width="24"><path d="m306.154-60 117.384-577.846-118.153 48v129.077h-40.001v-155.693l177.385-75.23q14-6 26.423-7.385 12.423-1.385 24.116 1.308Q505-695.077 514.423-688q9.423 7.077 16.654 18.769l27.692 44q33.693 55.077 79.731 87.077 46.039 32 101.5 36.615v40.001q-66.923-6.154-119.231-40.539-52.307-34.384-90.538-93.23l-36.539 182.999L580-321.539v261.54h-40v-234.616L428.308-397.846 347.077-60h-40.923ZM540-752.308q-28.385 0-48.039-19.653-19.653-19.654-19.653-48.039t19.653-48.039q19.654-19.653 48.039-19.653t48.039 19.653q19.653 19.654 19.653 48.039t-19.653 48.039Q568.385-752.308 540-752.308Z"/></svg>