<svg xmlns="http://www.w3.org/2000/svg" height="24" viewBox="0 -960 960 960" width="24"><path d="M326-280q17 0 28.5-11.5T366-320v-200q0-17-11.5-28.5T326-560q-17 0-28.5 11.5T286-520v200q0 17 11.5 28.5T326-280Zm154 0q17 0 28.5-11.5T520-320v-320q0-17-11.5-28.5T480-680q-17 0-28.5 11.5T440-640v320q0 17 11.5 28.5T480-280Zm154 0q17 0 28.5-11.5T674-320v-80q0-17-11.5-28.5T634-440q-17 0-28.5 11.5T594-400v80q0 17 11.5 28.5T634-280Zm101.982-317Q716-597 702-610.8T688-645v-43h-44q-19.975 0-33.487-13.8Q597-715.6 597-736q0-19.975 13.8-33.487Q624.6-783 645-783h43v-44q0-19.975 13.8-33.487Q715.6-874 736-874q19.975 0 33.487 13.513Q783-846.975 783-827v44h44q19.975 0 33.487 13.518Q874-755.965 874-735.982 874-716 860.487-702 846.975-688 827-688h-44v44q0 19.975-13.518 33.487Q755.965-597 735.982-597ZM212-86q-53 0-89.5-36.5T86-212v-536q0-53 36.5-89.5T212-874h282q26 0 44.5 18.5T557-811v128q0 53 36.5 89.5T683-557h128q26 0 44.5 18.5T874-494v282q0 53-36.5 89.5T748-86H212Z"/></svg>