<svg xmlns="http://www.w3.org/2000/svg" height="20" viewBox="0 -960 960 960" width="20"><path d="M456-182q-28.575 0-52.287-16Q380-214 369-241q-1-3 2.5-6t6.5-3h7q2 0 5 8 10.364 18 27.682 29Q435-202 456-202q30.4 0 52.2-21.8Q530-245.6 530-276q0-30.4-21.8-52.2Q486.4-350 456-350H132q-4.3 0-7.15-2.789-2.85-2.79-2.85-7 0-4.211 2.85-7.211t7.15-3h324q39 0 66.5 27.5T550-276q0 39-27.5 66.5T456-182ZM132-566q-4.3 0-7.15-2.789-2.85-2.79-2.85-7 0-4.211 2.85-7.211t7.15-3h503.81q35.19 0 60.69-25.5T722-672q0-35-25.5-60.5T635.638-758q-26.232 0-47.935 15.5Q566-727 556-702q-2 6-6 5t-8-1q-4 0-5.5-4t.5-12q11-28 39-46t60.324-18q44.552 0 75.114 30.722Q742-716.556 742-671.778T711.343-596.5Q680.686-566 636-566H132Zm637 296q-7 0-10-3t-3-6q0-4.424-.5-7.712-.5-3.288 5.346-4.355Q787-300 802.5-322q15.5-22 15.5-50 0-35-25.5-60.5T732-458H132q-4.3 0-7.15-2.789-2.85-2.79-2.85-7 0-4.211 2.85-7.211t7.15-3h600q44.686 0 75.343 30.657Q838-416.686 838-372q0 37-18.5 65T769-270Z"/></svg>