<svg xmlns="http://www.w3.org/2000/svg" height="24" viewBox="0 -960 960 960" width="24"><path d="m480-49-43.1-130.06H135.2q-35.557 0-60.879-25.47Q49-230 49-265.478v-559.044Q49-860 74.336-885.5T135.25-911H394l37.736 130h393.528Q863-781 887-756.775t24 61.908V-135q0 35.475-24.244 60.737Q862.513-49 824.8-49H480ZM270.912-368Q346-368 393.5-416.5T441-541q0-8-.5-14.5t-2.65-14.5H268v66h96q-8.755 30.373-33.377 47.186Q306-440 271.732-440q-41.763 0-71.748-30.309Q170-500.619 170-545q0-44 30.164-74.182 30.165-30.182 72.179-30.182 19.391 0 36.628 7.007 17.237 7.006 31.242 21.019L393-672q-22.837-23.435-54.919-36.217Q306-721 271-721q-73 0-124 51.5T96-545q0 73 51 125t123.912 52ZM559-347l25-22q-15-18-28-35t-24-37l27 94Zm54-55q30-35 46.5-67t21.5-51H509l12.923 45H565q8 17 19.5 35t28.5 38ZM523-92h302q20 0 31.5-12.383t11.5-30.688V-695q0-20-11.5-31.5T825-738H445l50.454 173.97h84.805v-45.103h44.013v45.103H781V-520h-54.344Q716-479 694-440t-51 72l118 115-31 31-117-116-38 40 34 119-86 87Z"/></svg>