<svg xmlns="http://www.w3.org/2000/svg" height="24" viewBox="0 -960 960 960" width="24"><path d="m480-160-32-95.936H224q-26.4 0-45.2-18.788-18.8-18.787-18.8-45.17v-415.724Q160-762 178.8-781q18.8-19 45.2-19h192l28 95.936h292q28 0 46 17.988t18 45.97v415.724Q800-198 782-179q-18 19-46 19H480ZM325.442-397Q381-397 416-432.6q35-35.6 35-92.4v-13.5q0-4.5-1.612-8.5H322v49h72q-7 23-24.5 35.5T326.299-450q-31.323 0-53.811-23T250-528q0-32 22.301-55t53.363-23q14.336 0 26.836 5 12.5 5 23.5 16l39-37q-17-17-40.563-27-23.563-10-49.921-10Q271-659 233-620.5 195-582 195-528t38.247 92.5q38.246 38.5 92.195 38.5ZM539-381l18-17q-11-14-21-26.5T518-451l21 70Zm40-41q22.596-26.258 34.298-50.129Q625-496 629-510H502l9.4 33.895h31.333Q549-464 557.919-450.132 566.838-436.264 579-422Zm-67 230h224q14.4 0 23.2-9.192 8.8-9.192 8.8-22.78v-415.64Q768-654 759.211-663q-8.789-9-23.17-9H454l37.431 130h62.916v-33.704H587V-542h117v32h-40.967Q655-480 639.5-451 624-422 602-397l87 86-23 23-87-86-29 29 26 89-64 64Z"/></svg>