<svg xmlns="http://www.w3.org/2000/svg" height="24" viewBox="0 -960 960 960" width="24"><path d="M460-120v-148.462q0-54.461-15.462-86.077-15.461-31.615-46.538-58.384l28.539-28.539q13.538 12.539 27.999 31.193Q469-391.616 480-370.693q11.692-24.384 30.808-46.576 19.115-22.193 40.269-40.808 50.307-44.231 79.769-109.461 29.462-65.231 28.385-194.846l-83 82.999-28.539-28.307L680-840l132.308 132.308L784-679.385l-84.769-84.538q1.077 134.539-31.308 208.885t-89 126.192q-34.308 31.308-56.615 62.269Q500-335.615 500-268.462V-120h-40ZM270.308-635.308q-4.77-20.769-7.039-57.077-2.269-36.307-2.5-71.538L176-679.385l-28.308-28.307L280-840l132.308 132.308-28.539 28.307-83-82.769q-.769 33.308 1.616 65.269 2.384 31.962 6.692 52.577l-38.769 9Zm74.461 169.077q-16.154-19.461-31.577-45.538-15.423-26.077-24.038-50.923l38.538-9.77q6.923 19.308 18.77 40.231 11.846 20.923 26.846 37.462l-28.539 28.538Z"/></svg>