<svg xmlns="http://www.w3.org/2000/svg" height="20" viewBox="0 -960 960 960" width="20"><path d="M480-284q80 0 137-54t60-132q-1-3-3.2-6.5T668-480q-5 0-6.571 2.92-1.572 2.92-2.429 7.08-4 72-55.736 121Q551.527-300 480-300q-74.914 0-127.457-52.561Q300-405.121 300-480.061 300-555 353.543-607.5T483-660h3l-35 35q-3.444 2.091-3.722 5.045Q447-617 451-613q3 3 5.5 3t5.5-3l48-48q4-3.636 4-9.818Q514-677 510-681l-48-48q-2-2-5-3t-7 3q-3 3-3 5.5t3 5.5l42 42q-86-2-147 54.5T284-480q0 81.66 57.17 138.83Q398.34-284 480-284Zm.174 136Q412-148 351.442-173.891q-60.559-25.892-106.075-71.348-45.515-45.457-71.441-105.935Q148-411.652 148-479.826q0-69.174 25.891-129.232 25.892-60.059 71.348-105.574 45.457-45.516 105.935-71.442Q411.652-812 479.826-812q69.174 0 129.232 25.891 60.059 25.892 105.574 71.348 45.516 45.457 71.442 105.435Q812-549.348 812-480.174q0 68.174-25.891 128.732-25.892 60.559-71.348 106.075-45.457 45.515-105.435 71.441Q549.348-148 480.174-148ZM480-168q130 0 221-91t91-221q0-130-91-221t-221-91q-130 0-221 91t-91 221q0 130 91 221t221 91Zm0-312Z"/></svg>