<svg xmlns="http://www.w3.org/2000/svg" height="24" viewBox="0 -960 960 960" width="24"><path d="M480-280q76 0 132-50t66-124q2-11-7-18.5t-21-7.5q-11 0-20.5 7T618-455q-9 49-47.5 82T480-340q-58 0-99-41t-41-99q0-58 41-99t99-41l-27.222 29q-7.778 9-7.278 21t9.5 21q9 9 21.5 9t21.5-9l76-76q9-9 9-22t-9-22l-77-77q-9-9-21-9t-21 9q-9 9-9 21.5t9 21.5l22 23q-82 2-139.5 60T280-480q0 83 58.5 141.5T480-280Zm0 234q-91 0-169.987-34.084-78.988-34.083-137.417-92.512T80.084-310.013Q46-389 46-480t34.084-169.987q34.083-78.988 92.512-137.417t137.417-92.512Q389-914 480-914t169.987 34.084q78.988 34.083 137.417 92.512t92.512 137.417Q914-571 914-480t-34.084 169.987q-34.083 78.988-92.512 137.417T649.987-80.084Q571-46 480-46Z"/></svg>