<svg xmlns="http://www.w3.org/2000/svg" height="24" viewBox="0 -960 960 960" width="24"><path d="M500.153-80q-125.23 0-212.692-87.353Q200-254.706 200-380v-380h40v253.846h106.154V-820h40v313.846h106.923V-860h40v353.846H640V-780h40v240q-17.461 17.923-26.423 40.226t-8.962 46.697v50h-39.23q-57.831 0-97.762 39.931t-39.931 97.761v22.308h35.385v-22.308q0-43.196 29.556-72.752 29.555-29.555 72.752-29.555H680v-85.385q0-38 26.769-64.769 26.77-26.769 64.77-26.769H800V-380q0 125.294-87.308 212.647Q625.383-80 500.153-80Z"/></svg>