<svg xmlns="http://www.w3.org/2000/svg" height="20" viewBox="0 -960 960 960" width="20"><path d="M470.261-273.304q-20.387 0-34.694-14.306-14.307-14.307-14.307-34.694v-315.392q0-20.387 14.307-34.694 14.307-14.306 34.694-14.306h315.391q20.388 0 34.694 14.306 14.307 14.307 14.307 34.694v315.392q0 20.387-14.307 34.694-14.306 14.306-34.694 14.306H470.261Zm49.001-92.348h217.39v-228.696h-217.39v228.696Zm-348.306 240.87q-19.257 0-32.716-13.398-13.458-13.398-13.458-32.566 0-19.167 13.458-32.776 13.459-13.608 32.716-13.608h618.088q19.257 0 32.716 13.398 13.458 13.398 13.458 32.565 0 19.168-13.458 32.777-13.459 13.608-32.716 13.608H170.956Zm.277-148.522q-19.234 0-32.843-13.398-13.608-13.398-13.608-32.565 0-19.168 13.443-32.777 13.443-13.608 32.676-13.608h131.908q19.234 0 32.842 13.398 13.609 13.398 13.609 32.565 0 19.168-13.443 32.777-13.443 13.608-32.676 13.608H171.233Zm0-160.522q-19.234 0-32.843-13.398-13.608-13.398-13.608-32.565 0-19.168 13.443-32.777 13.443-13.608 32.676-13.608h131.908q19.234 0 32.842 13.398 13.609 13.398 13.609 32.565 0 19.168-13.443 32.777-13.443 13.608-32.676 13.608H171.233Zm0-160.522q-19.234 0-32.843-13.398-13.608-13.398-13.608-32.565 0-19.168 13.443-32.777 13.443-13.608 32.676-13.608h131.908q19.234 0 32.842 13.398 13.609 13.398 13.609 32.566 0 19.167-13.443 32.776-13.443 13.608-32.676 13.608H171.233Zm-.277-148.522q-19.257 0-32.716-13.398-13.458-13.398-13.458-32.565 0-19.168 13.458-32.776 13.459-13.609 32.716-13.609h618.088q19.257 0 32.716 13.398 13.458 13.398 13.458 32.566 0 19.167-13.458 32.776-13.459 13.608-32.716 13.608H170.956Z"/></svg>