<svg xmlns="http://www.w3.org/2000/svg" height="24" viewBox="0 -960 960 960" width="24"><path d="m384-294 96-74 96 74-36-122 90-64H518l-38-124-38 124H330l90 64-36 122Zm96-23.23L358.923-225q-6.385 4.385-12.846 3.885-6.462-.5-11.847-3.654-5.384-3.154-8.192-9.384-2.808-6.231-.115-13.308l46.231-151.924-115.001-83q-6.871-4.018-8.589-10.547-1.718-6.53.743-12.914 2.462-6.385 7.484-10.27Q261.814-520 268.846-520h144.722l46.893-155.077q2.486-7.316 7.705-11.235 5.219-3.919 11.834-3.919 6.615 0 11.834 3.919 5.219 3.919 7.705 11.235L546.432-520h144.722q7.032 0 12.055 3.884 5.022 3.885 7.484 10.27 2.461 6.384.743 12.914-1.718 6.529-8.589 10.547l-115.001 83 46.231 151.924q2.693 7.077-.115 13.308-2.808 6.23-8.192 9.384-5.385 3.154-11.847 3.654-6.461.5-12.846-3.885L480-317.23ZM480-449Z"/></svg>