<svg xmlns="http://www.w3.org/2000/svg" height="24" viewBox="0 -960 960 960" width="24"><path d="m384-294 96-74 96 74-36-122 90-64H518l-38-124-38 124H330l90 64-36 122Zm96.565 40.131L345.001-150.478q-14.957 11.826-32.196 11.044-17.24-.783-30.631-10.044-13.392-9.261-20.022-24.935-6.631-15.674-.5-34.196l52.478-170.304-132.565-94.521q-15.956-11.392-20.087-27.783-4.13-16.392 1-31.348 5.131-14.957 18.239-26.001 13.109-11.043 32.196-11.043h162.608l54.044-177.304q6.13-19.087 20.022-28.565 13.891-9.479 30.413-9.479t30.413 9.479q13.892 9.478 20.022 28.565l54.044 177.304h162.608q19.087 0 32.196 11.043 13.108 11.044 18.239 26.001 5.13 14.956 1 31.348-4.131 16.391-20.087 27.783L645.87-378.913l52.478 169.739q6.131 18.522-.5 34.196-6.63 15.674-20.022 24.935-13.391 9.261-30.348 10.043-16.957.783-31.913-11.043l-135-102.826ZM480-449Z"/></svg>