<svg xmlns="http://www.w3.org/2000/svg" height="24" viewBox="0 -960 960 960" width="24"><path d="m254.154-362.615 94.769-94.77q9.693-9.692 9.693-22.615 0-12.923-9.693-22.615l-95.538-95.539q-5.616-5.615-13.385-5.615t-13.385 5.615Q221-592.539 221-584.385t5.615 13.77L296.461-500H140q-8.539 0-14.269 5.731Q120-488.539 120-480t5.731 14.269Q131.461-460 140-460h156.461l-70.615 70.615q-5.615 5.616-5.231 13.385.385 7.769 6 13.385 5.616 5.615 13.77 5.615t13.769-5.615ZM650-650.769q12.385 0 20.808-8.423T679.231-680q0-12.385-8.423-20.808T650-709.231q-12.385 0-20.808 8.423T620.769-680q0 12.385 8.423 20.808T650-650.769ZM500-200h275.385q9.23 0 16.923-7.692Q800-215.385 800-224.615v-510.77q0-9.23-7.692-16.923Q784.615-760 775.385-760H500v560Zm-315.385 40Q157-160 138.5-178.5 120-197 120-224.615v-140h40v140q0 9.23 7.692 16.923Q175.385-200 184.615-200H460v-560H184.615q-9.23 0-16.923 7.692Q160-744.615 160-735.385v140h-40v-140Q120-763 138.5-781.5 157-800 184.615-800h590.77Q803-800 821.5-781.5 840-763 840-735.385v510.77Q840-197 821.5-178.5 803-160 775.385-160h-590.77ZM460-735.385V-760v560-535.385Z"/></svg>