<svg xmlns="http://www.w3.org/2000/svg" height="20" viewBox="0 -960 960 960" width="20"><path d="M640.789-638q9.211 0 15.711-6.289 6.5-6.29 6.5-15.5 0-9.211-6.289-15.711-6.29-6.5-15.5-6.5-9.211 0-15.711 6.289-6.5 6.29-6.5 15.5 0 9.211 6.289 15.711 6.29 6.5 15.5 6.5ZM490-216h270q12 0 22-10t10-22v-464q0-12-10-22t-22-10H490v528Zm-290 20q-22.7 0-37.35-14.65Q148-225.3 148-248v-222h161l-77 77q-4 4-3 6t5 6q4 4 7 4t7-4l81.241-81.241Q337-470 337-480.182q0-10.182-8-17.818l-83-83q-4-4-6-4t-6 4q-4 4-4 7t4 7l75 77H148v-222q0-22.7 14.65-37.35Q177.3-764 200-764h560q22.7 0 37.35 14.65Q812-734.7 812-712v464q0 22.7-14.65 37.35Q782.7-196 760-196H200Z"/></svg>