<svg xmlns="http://www.w3.org/2000/svg" height="24" viewBox="0 -960 960 960" width="24"><path d="M460-140v-128.462q0-54.461-15.462-86.077-15.461-31.615-46.538-58.384l28.539-28.539q13.538 12.539 27.999 31.193Q469-391.616 480-370.693q11.692-24.384 30.808-46.576 19.115-22.193 40.269-40.808 50.307-44.231 79.769-109.461 29.462-65.231 28.385-194.846l-68.846 68.846q-5.616 5.615-13.654 6-8.039.384-14.654-6-6.616-6.616-6.616-14.27t6.616-14.269l95.308-95.308q5.23-5.231 10.692-7.346 5.461-2.115 11.923-2.115t11.923 2.115q5.462 2.115 10.692 7.346l95.539 95.539q5.615 5.615 6.115 13.654.5 8.038-6.115 14.654-6.385 6.384-14.154 6.384t-14.154-6.384l-70.615-70.385q1.077 134.539-31.308 208.885t-89 126.192q-34.308 31.308-56.615 62.269Q500-335.615 500-268.462V-140q0 8.539-5.731 14.269Q488.539-120 480-120t-14.269-5.731Q460-131.461 460-140ZM270.308-635.308q-4.77-20.769-7.039-57.077-2.269-36.307-2.5-71.538l-70.615 70.615q-5.615 5.616-13.654 6-8.039.385-14.654-6.23-6.385-6.385-6.385-14.154 0-7.77 6.385-14.154l95.539-95.539q5.23-5.231 10.692-7.346 5.461-2.115 11.923-2.115t11.923 2.115q5.462 2.115 10.692 7.346l95.539 95.539Q404-716 404.269-708.077q.27 7.923-6.346 14.539-6.615 6.384-14.154 6.384-7.538 0-14.154-6.384l-68.846-68.616q-.769 33.308 1.616 65.269 2.384 31.962 6.692 52.577l-38.769 9Zm74.461 169.077q-16.154-19.461-31.577-45.538-15.423-26.077-24.038-50.923l38.538-9.77q6.923 19.308 18.77 40.231 11.846 20.923 26.846 37.462l-28.539 28.538Z"/></svg>