<svg xmlns="http://www.w3.org/2000/svg" height="24" viewBox="0 -960 960 960" width="24"><path d="M756.154-220.001q-15.366 0-25.76-10.395Q720-240.79 720-256.155v-447.69q0-15.365 10.394-25.759 10.394-10.395 25.76-10.395h27.691q15.365 0 25.759 10.395 10.395 10.394 10.395 25.759v447.69q0 15.365-10.395 25.759-10.394 10.395-25.759 10.395h-27.691Zm-420.16 0q-15.3 0-25.646-10.395-10.347-10.394-10.347-25.759v-447.69q0-15.365 10.351-25.759 10.35-10.395 25.65-10.395h288.004q15.3 0 25.646 10.395 10.347 10.394 10.347 25.759v447.69q0 15.365-10.351 25.759-10.35 10.395-25.65 10.395H335.994Zm-159.839 0q-15.365 0-25.759-10.395-10.395-10.394-10.395-25.759v-447.69q0-15.365 10.395-25.759 10.394-10.395 25.759-10.395h27.691q15.366 0 25.76 10.395Q240-719.21 240-703.845v447.69q0 15.365-10.394 25.759-10.394 10.395-25.76 10.395h-27.691Z"/></svg>