<svg xmlns="http://www.w3.org/2000/svg" height="24" viewBox="0 -960 960 960" width="24"><path d="M360-280v-400 400Zm430.523 97.523q-22.087 0-37.544-15.457-15.456-15.457-15.456-37.544v-489.044q0-22.087 15.456-37.544 15.457-15.457 37.544-15.457h48.479q22.087 0 37.544 15.457 15.457 15.457 15.457 37.544v489.044q0 22.087-15.457 37.544-15.457 15.457-37.544 15.457h-48.479Zm-475.045 0q-22.087 0-37.544-15.457-15.457-15.457-15.457-37.544v-489.044q0-22.087 15.457-37.544 15.457-15.457 37.544-15.457h329.044q22.087 0 37.544 15.457 15.457 15.457 15.457 37.544v489.044q0 22.087-15.457 37.544-15.457 15.457-37.544 15.457H315.478Zm-194.48 0q-22.087 0-37.544-15.457-15.457-15.457-15.457-37.544v-489.044q0-22.087 15.457-37.544 15.457-15.457 37.544-15.457h48.479q22.087 0 37.544 15.457 15.456 15.457 15.456 37.544v489.044q0 22.087-15.456 37.544-15.457 15.457-37.544 15.457h-48.479ZM360-680v400h240v-400H360Z"/></svg>