<svg xmlns="http://www.w3.org/2000/svg" height="20" viewBox="0 -960 960 960" width="20"><path d="M360-312v-336 336Zm391.154 51.999q-12.366 0-21.76-9.895Q720-279.79 720-293.155v-373.69q0-13.365 9.394-23.259 9.394-9.895 21.76-9.895h13.691q12.365 0 21.759 9.895 9.395 9.894 9.395 23.259v373.69q0 13.365-9.395 23.259-9.394 9.895-21.759 9.895h-13.691Zm-411.16 0q-13.3 0-22.646-9.895-9.347-9.894-9.347-23.259v-373.69q0-13.365 9.351-23.259 9.35-9.895 22.65-9.895h280.004q13.3 0 22.646 9.895 9.347 9.894 9.347 23.259v373.69q0 13.365-9.351 23.259-9.35 9.895-22.65 9.895H339.994Zm-143.839 0q-13.365 0-22.759-9.895-9.395-9.894-9.395-23.259v-373.69q0-13.365 9.395-23.259 9.394-9.895 22.759-9.895h11.691q13.366 0 22.76 9.895Q240-680.21 240-666.845v373.69q0 13.365-9.394 23.259-9.394 9.895-22.76 9.895h-11.691ZM360-648v336h240v-336H360Z"/></svg>