<svg xmlns="http://www.w3.org/2000/svg" height="20" viewBox="0 -960 960 960" width="20"><path d="M360-312v-336 336Zm385 20q-9.75 0-17.375-8.125T720-319v-322q0-10.75 7.625-18.875T745-668h-6q9.75 0 17.375 8.125T764-641v322q0 10.75-7.625 18.875T739-292h6Zm-379.419 0Q355-292 347.5-300.125T340-319v-322q0-10.75 7.511-18.875 7.51-8.125 18.091-8.125h228.817q10.581 0 18.081 8.125T620-641v322q0 10.75-7.511 18.875-7.51 8.125-18.091 8.125H365.581ZM222-292q-10.75 0-18.375-8.125T196-319v-322q0-10.75 7.625-18.875T222-668h-8q10.75 0 18.375 8.125T240-641v322q0 10.75-7.625 18.875T214-292h8Zm138-356v336h240v-336H360Z"/></svg>