<svg xmlns="http://www.w3.org/2000/svg" height="20" viewBox="0 -960 960 960" width="20"><path d="M673.956-138.304q-13.739-3.869-24.608-10.586-10.87-6.718-18.174-14.022l-39.352 12.435q-9.035 2.565-17.385-.5-8.35-3.066-11.916-10.057l-19.13-34.365q-4.131-6.992-3.348-15.253.783-8.261 7.347-15.104l30.436-28.157q-3-12.739-3-26.108 0-13.37 3-25.109l-30.436-27.304q-7.13-6.696-7.63-14.957-.5-8.261 3.631-15.253l19.696-34.364q3.565-6.992 11.194-10.057 7.63-3.065 16.154-.5l39.739 11.435q10.304-9.305 21.174-15.24 10.869-5.934 22.322-9.6l9.721-39.943q2-8.386 9.043-13.736 7.044-5.351 14.74-5.351h39.391q7.696 0 14.457 5.351 6.761 5.35 8.761 13.736l10 39.739q11.739 2.87 24.108 9.304 12.37 6.435 21.674 15.74l37.174-10.435q8.261-2.565 16.805.5 8.543 3.065 11.983 9.941l18.381 33.596q4.005 6.876 3.788 15.637-.217 8.761-7.084 15.31l-29.264 26.451q3 11.739 3 25.109 0 13.369-4 27.108l30.133 27.304q6.998 6.696 7.498 14.957.5 8.261-3.506 15.253l-18.946 34.365q-3.44 6.991-11.79 10.339-8.35 3.348-17.385.218l-38.787-12.435q-7.304 8.304-18.174 15.022-10.869 6.717-25.608 10.586l-10 39.74q-2.182 8.385-9.352 13.736-7.17 5.35-14.741 5.35h-38.641q-7.571 0-15.024-5.35-7.452-5.35-9.634-13.737l-8.435-40.739Zm54.126-73.174q27.527 0 47.396-20.365 19.87-20.364 19.87-47.891 0-27.526-20.082-47.396-20.082-19.869-47.609-19.869t-47.679 20.082q-20.152 20.081-20.152 47.608 0 27.527 20.365 47.679 20.364 20.152 47.891 20.152Zm-505.299 38.696q-40.305 0-69.153-28.848-28.848-28.848-28.848-69.153v-514.434q0-41.005 28.848-69.503 28.848-28.498 69.153-28.498h514.434q41.005 0 69.503 28.498 28.498 28.498 28.498 69.503v257.391q-22.155-10.822-46.621-17.78-24.467-6.959-51.38-8.524v-231.087H222.783v301.826h128.826q12.13 0 23.608 6.847 11.479 6.848 19.74 18.674 5.608 30.913 27.782 48.718 22.174 17.804 51.348 18.369-22.522 52.218-21.392 109.566 1.131 57.348 24.218 108.435h-254.13Z"/></svg>