<svg xmlns="http://www.w3.org/2000/svg" height="20" viewBox="0 -960 960 960" width="20"><path d="M212-196q-22 0-37-15t-15-37v-464q0-22.7 15-37.35Q190-764 212-764h464q22 0 37 14.65T728-712v80h62q4.25 0 7.125 2.825 2.875 2.824 2.875 7 0 4.175-2.875 7.175T790-612h-62v122h62q4.25 0 7.125 2.825 2.875 2.824 2.875 7 0 4.175-2.875 7.175T790-470h-62v122h62q4.25 0 7.125 2.825 2.875 2.824 2.875 7 0 4.175-2.875 7.175T790-328h-62v79.504Q728-226 713-211q-15 15-37 15H212Zm0-20h464q12 0 22-10t10-22v-464q0-12-10-22t-22-10H212q-12 0-22 10t-10 22v464q0 12 10 22t22 10Zm106.056-112h90.17q11.074 0 18.424-7.45t7.35-18.462v-41.825q0-11.013-7.491-18.638Q419.018-422 407.944-422h-90.17q-11.074 0-18.424 7.45T292-396.088v41.825q0 11.013 7.491 18.638Q306.982-328 318.056-328Zm209.856-258h41.825q11.013 0 18.638-7.475Q596-600.95 596-612v6q0-11.05-7.45-18.525Q581.1-632 570.088-632h-41.825q-11.013 0-18.638 7.475Q502-617.05 502-606v-6q0 11.05 7.45 18.525Q516.9-586 527.912-586Zm-209.856 96h90.17q11.074 0 18.424-7.491t7.35-18.566v-90.169q0-11.074-7.491-18.424T407.944-632h-90.17q-11.074 0-18.424 7.491T292-605.943v90.169q0 11.074 7.491 18.424t18.565 7.35Zm209.856 162h41.825q11.013 0 18.638-7.475Q596-342.95 596-354v-138q0-11.05-7.45-18.525Q581.1-518 570.088-518h-41.825q-11.013 0-18.638 7.475Q502-503.05 502-492v138q0 11.05 7.45 18.525Q516.9-328 527.912-328ZM180-744v528-528Z"/></svg>