<svg xmlns="http://www.w3.org/2000/svg" height="24" viewBox="0 -960 960 960" width="24"><path d="M162.826-100.782q-44.305 0-75.153-30.848-30.848-30.848-30.848-75.153v-546.434q0-44.305 30.848-75.153 30.848-30.848 75.153-30.848h545.869q44.305 0 75.153 30.848 30.848 30.848 30.848 75.153V-680h44.522q18.696 0 31.327 12.63 12.63 12.631 12.63 31.327 0 18.695-12.63 31.609-12.631 12.913-31.327 12.913h-44.522v66.999h43.957q18.696 0 31.609 12.913T903.175-480q0 18.696-12.913 31.609t-31.609 12.913h-43.957v66.999h44.522q18.696 0 31.327 12.631 12.63 12.63 12.63 31.326 0 18.696-12.63 31.609Q877.914-280 859.218-280h-44.522v73.217q0 44.305-30.848 75.153-30.848 30.848-75.153 30.848H162.826ZM288.479-280h93.998q22.088 0 37.544-15.457 15.457-15.456 15.457-37.544v-53.998q0-22.088-15.457-37.544Q404.565-440 382.477-440h-93.998q-22.088 0-37.544 15.457-15.457 15.456-15.457 37.544v53.998q0 22.088 15.457 37.544Q266.391-280 288.479-280Zm236.608-280h60.782q20.391 0 35-14.609 14.609-14.609 14.609-35v-17.39q0-22.088-15.457-37.544Q604.565-680 582.477-680h-53.998q-22.088 0-37.544 15.457-15.457 15.456-15.457 37.544v17.39q0 20.391 14.609 35 14.609 14.609 35 14.609Zm-236.608 80h93.998q22.088 0 37.544-15.457 15.457-15.456 15.457-37.544v-93.998q0-22.088-15.457-37.544Q404.565-680 382.477-680h-93.998q-22.088 0-37.544 15.457-15.457 15.456-15.457 37.544v93.998q0 22.088 15.457 37.544Q266.391-480 288.479-480Zm240 200h53.998q22.088 0 37.544-15.457 15.457-15.456 15.457-37.544v-133.998q0-22.088-15.457-37.544Q604.565-520 582.477-520h-53.998q-22.088 0-37.544 15.457-15.457 15.456-15.457 37.544v133.998q0 22.088 15.457 37.544Q506.391-280 528.479-280Z"/></svg>