<svg xmlns="http://www.w3.org/2000/svg" height="20" viewBox="0 -960 960 960" width="20"><path d="M172.782-272.479V-624q0-77.174 61.847-119.631Q296.477-786.088 457-787.218l22.87-46.305H279.521v-48h400.958v48H533.87L511-787.218q158.566 1.13 217.392 44.369 58.826 43.24 58.826 118.849v351.521q0 64.74-41.217 114.067-41.218 49.326-102.697 60.718l61.175 60.174v24h-94.958l-81.044-80.479h-96.954L350.479-13.52h-94.958v-24l60.175-60.174q-61.479-11.392-102.197-60.718-40.717-49.327-40.717-114.067Zm452.391-104.738H270.783h418.434H625.173ZM480-236.609q20 0 34-14t14-34q0-20-14-34t-34-14q-20 0-34 14t-14 34q0 20 14 34t34 14Zm-2-404.608h214-423 209Zm-207.217 192h418.434v-120H270.783v120ZM351.827-192h256.346q33.392 0 57.218-23.402 23.826-23.403 23.826-57.077v-104.738H270.783v104.738q0 33.674 23.826 57.077Q318.435-192 351.827-192ZM480-689.217q-92 0-139.5 9.5t-71.5 38.5h423q-25-28-64-38t-148-10Z"/></svg>