<svg xmlns="http://www.w3.org/2000/svg" height="20" viewBox="0 -960 960 960" width="20"><path d="M212.001-271.693V-624q0-55.076 55.615-89.73 55.615-34.653 198.615-34.269l24-48H289.539v-35.691h380.922v35.691H525.769l-24 48q141.538-.384 193.884 34.93 52.346 35.314 52.346 89.069v352.307q0 48.615-31.539 85.153-31.538 36.539-79.153 44.539l51 50v24h-54.921l-72-72H398.614l-72 72h-54.921v-24l50-50q-47.615-8-78.653-44.539-31.039-36.538-31.039-85.153Zm268.09 24q16.832 0 28.524-11.783 11.692-11.782 11.692-28.615 0-16.832-11.783-28.524-11.782-11.692-28.615-11.692-16.832 0-28.524 11.783-11.692 11.782-11.692 28.615 0 16.832 11.783 28.524 11.782 11.692 28.615 11.692ZM264-435.999h432v-149.232H264v149.232Z"/></svg>