<svg xmlns="http://www.w3.org/2000/svg" height="24" viewBox="0 -960 960 960" width="24"><path d="M140.782-268.479V-640q0-107.174 85.847-141.131Q312.477-815.088 440-819.218l28.87-58.305H271.521v-60h416.958v60H548.87L520-819.218q132.566 4.13 215.892 37.869 83.326 33.74 83.326 141.349v371.521q0 69.74-46.717 119.567-46.718 49.826-114.197 53.218l70.175 70.174v20h-96.958l-89.044-88.479H417.523L328.479-5.52h-96.958v-20l70.175-70.174q-67.479-3.392-114.197-53.218-46.717-49.827-46.717-119.567ZM480-236.609q25 0 42.5-17.5t17.5-42.5q0-25-17.5-42.5t-42.5-17.5q-25 0-42.5 17.5t-17.5 42.5q0 25 17.5 42.5t42.5 17.5ZM246.783-473.217h466.434v-120H246.783v120Z"/></svg>