<svg xmlns="http://www.w3.org/2000/svg" height="20" viewBox="0 -960 960 960" width="20"><path d="M205.364-189.999h377.26q16.985 0 28.615 11.42 11.631 11.42 11.631 28.327 0 16.906-11.473 28.819t-28.458 11.913H205.114q-16.985 0-28.615-11.703-11.631-11.702-11.631-28.608 0-16.907 11.756-28.537 11.755-11.631 28.74-11.631Zm109.848-183.294-84.252-82.976q-28.744-28.599-28.461-69.056.283-40.457 29.196-69.371l33.435-34 221.088 222.088-33 33q-28.914 28.914-69.088 28.914-40.175 0-68.918-28.599ZM644.87-565.826 423.782-786.913l33-33q28.914-28.349 69.088-29.131 40.175-.783 68.918 27.961l84.252 84.251q29.309 28.744 28.809 68.919-.5 40.174-29.979 69.087l-33 33Zm134.086 361.392L308.912-673.478 378-743.131l470.044 470.609q14.957 14.957 14.957 34.044 0 19.087-14.957 34.044-14.957 14.957-34.544 14.957-19.587 0-34.544-14.957Z"/></svg>