<svg xmlns="http://www.w3.org/2000/svg" height="20" viewBox="0 -960 960 960" width="20"><path d="M279.385-157.538V-160l50-50q-42.231-9-69.808-42.077Q232-285.154 232-327.385V-672q0-53.769 55.461-78.885Q342.923-776 480-776q132.5 0 190.25 26.25T728-672v344.615q0 42.231-27.577 75.308Q672.846-219 630.615-210l50 50v2.462h-401.23ZM264-464h200v-178.461H264V-464Zm232 0h200v-178.461H496V-464ZM360.181-303.385q13.665 0 23.05-9.565 9.384-9.566 9.384-23.231 0-13.665-9.565-23.05-9.566-9.384-23.231-9.384-13.665 0-23.05 9.565-9.384 9.566-9.384 23.231 0 13.665 9.565 23.05 9.566 9.384 23.231 9.384Zm240 0q13.665 0 23.05-9.565 9.384-9.566 9.384-23.231 0-13.665-9.565-23.05-9.566-9.384-23.231-9.384-13.665 0-23.05 9.565-9.384 9.566-9.384 23.231 0 13.665 9.565 23.05 9.566 9.384 23.231 9.384Z"/></svg>