<svg xmlns="http://www.w3.org/2000/svg" height="24" viewBox="0 -960 960 960" width="24"><path d="M231.869-109v-44.304l60-40q-59.239-3.348-99.619-47.196-40.381-43.848-40.381-104.522v-376.413q0-87.065 79.153-127.598 79.152-40.532 248.91-40.532 175.894 0 252.046 39.032 76.153 39.033 76.153 129.098v376.413q0 60.674-40.381 104.522-40.38 43.848-99.619 47.196l60 40V-109H231.869Zm11.001-449.565H440v-120H242.87v120Zm277.13 0h197.13v-120H520v120ZM341.435-320q25 0 42.5-17.5t17.5-42.5q0-25-17.5-42.5t-42.5-17.5q-25 0-42.5 17.5t-17.5 42.5q0 25 17.5 42.5t42.5 17.5Zm277.13 0q25 0 42.5-17.5t17.5-42.5q0-25-17.5-42.5t-42.5-17.5q-25 0-42.5 17.5t-17.5 42.5q0 25 17.5 42.5t42.5 17.5Z"/></svg>