<svg xmlns="http://www.w3.org/2000/svg" height="20" viewBox="0 -960 960 960" width="20"><path d="M666.923-464H248.049q-6.859 0-11.454-4.52Q232-473.04 232-479.789q0-6.75 4.595-11.48Q241.19-496 248.049-496h418.874L551.538-611.385q-4.846-4.846-5.615-11.269-.769-6.423 5.137-12.038 6.094-5.616 11.748-5.231 5.654.384 11.269 6l134.641 134.641q3.898 3.897 6.013 8.659 2.115 4.761 2.115 10.423t-2.115 10.423q-2.115 4.762-6.346 9.392L574.077-326.077q-4.846 4.846-10.385 5.116-5.538.269-11.632-5.347-5.906-5.615-5.522-11.654.385-6.038 6-11.653L666.923-464Z"/></svg>