<svg xmlns="http://www.w3.org/2000/svg" height="20" viewBox="0 -960 960 960" width="20"><path d="M600.607-430.999H221.832q-20.409 0-34.729-14.247-14.321-14.246-14.321-34.543 0-20.298 14.321-34.755 14.32-14.457 34.729-14.457h378.775l-59.086-59.086q-14.391-14.391-14.674-34.543-.282-20.153 14.196-34.544 14.87-14.392 34.74-14.109 19.869.282 34.261 14.674l142.899 142.333q6.362 6.363 10.275 15.489 3.913 9.126 3.913 18.587t-3.913 18.587q-3.913 9.126-10.609 16.222l-142.565 142q-14.392 14.392-33.761 14.174-19.37-.217-34.24-14.609-14.478-14.391-14.196-34.544.283-20.152 14.674-34.543l58.086-58.086Z"/></svg>