<svg xmlns="http://www.w3.org/2000/svg" height="20" viewBox="0 -960 960 960" width="20"><path d="M309.231-168h132.154-216.154 84Zm-59.385 32q-23.354 0-39.985-16.631-16.631-16.63-16.631-39.984v-574.77q0-22.654 16.631-39.634Q226.492-824 249.846-824h286.769q22.654 0 39.635 16.981 16.981 16.98 16.981 39.634v231.923q-9.231 3.231-16.846 6.154-7.616 2.923-15.916 7.077v-245.154q0-10.769-6.923-17.692T535.854-792H249.846q-10.769 0-17.692 6.923t-6.923 17.692v291.154q15.692-15.615 37.367-25.692Q284.273-512 309.231-512h168q11.553 0 22.354 2.269 10.8 2.269 21.569 9.346-7.296 5.227-13.11 11.152-5.813 5.925-13.548 11.464-4.573-2-8.804-2.116-4.231-.115-8.461-.115h-168q-34.65 0-59.325 24.675Q225.231-430.65 225.231-396v203.385q0 10.769 6.923 17.692T249.846-168h191.539q5.615 9.462 10.625 16.972 5.01 7.51 11.836 15.028h-214Zm142.889-461q-21.803 0-36.654-15.059-14.85-15.058-14.85-37.154 0-22.095 14.85-36.941Q370.932-701 392.735-701q21.803 0 37.15 15.058 15.346 15.059 15.346 37.154 0 22.096-15.346 36.942Q414.538-597 392.735-597Zm-15.271 289v56q0 6.8 4.633 11.4 4.634 4.6 11.134 4.6 7.461 0 12.269-4.86t5.962-12.448v-50.768q.076-3.577.615-7.653.538-4.077.538-6.772 0-2.625-.846-5.152-.846-2.528-2.538-3.886V-396q0-6.8-4.547-11.4-4.548-4.6-11.27-4.6-6.722 0-11.336 4.6t-4.614 11.4v56h-56.117q-6.849 0-11.483 4.608-4.633 4.607-4.633 11.419t4.633 11.392Q314.498-308 321.347-308h56.117Zm294.424 192q-71.427 0-121.657-50.343Q500-216.685 500-288.112t50.343-121.657Q600.685-460 672.112-460t121.657 50.343Q844-359.315 844-287.888t-50.343 121.657Q743.315-116 671.888-116Zm19.497-180.15V-360q0-7.754-5.816-13.569-5.815-5.816-13.569-5.816-7.754 0-13.569 5.816-5.816 5.815-5.816 13.569v74q0 1.857 3.462 9.923l57 57q5.825 5.462 13.72 5.846 7.895.385 14.126-5.846t6.231-13.741q0-7.511-6.231-14.105l-49.538-49.227Z"/></svg>