<svg xmlns="http://www.w3.org/2000/svg" height="20" viewBox="0 -960 960 960" width="20"><path d="M696-298v-62q0-9.6-7.2-16.8-7.2-7.2-16.8-7.2-9.6 0-16.8 7.2-7.2 7.2-7.2 16.8v74q0 1.857 5 13l57 57q7.364 7 17.182 7Q737-209 744-216q7-7 7-16.818 0-9.818-7-17.182l-48-48ZM383.504-597q-29.495 0-50.5-21.212-21.004-21.213-21.004-51Q312-699 333.004-720q21.005-21 50.5-21Q413-741 434.5-719.788q21.5 21.213 21.5 51Q456-639 434.5-618q-21.5 21-50.996 21Zm288.27 501Q592-96 536-152.226t-56-136Q480-368 536.226-424t136-56Q752-480 808-423.774t56 136Q864-208 807.774-152t-136 56ZM216-96q-29.7 0-50.85-21.15Q144-138.3 144-168v-624q0-29 21.15-50.5T216-864h336q29 0 50.5 21.5T624-792v245q-20 4-38 10t-34.762 14v-269H216v265q18-11 39.29-18 21.291-7 44.71-7h168q23.348 0 45.174 6.5T555-525q-49 26-84 66.5T420-367v-29q0-15.3-10.289-25.65-10.29-10.35-25.5-10.35-15.211 0-25.594 10.35-10.384 10.35-10.384 25.65v36h-36.116q-15.35 0-25.734 10.35Q276-339.3 276-324q0 15.3 10.383 25.65Q296.767-288 312.117-288h36.116v36q0 15.3 10.384 25.65Q369-216 384-216q10 0 18.5-5t11.5-11q9 39 28.069 74.085Q461.138-122.83 490-96H216Z"/></svg>