<svg xmlns="http://www.w3.org/2000/svg" height="24" viewBox="0 -960 960 960" width="24"><path d="M289.231-160h143.154-223.154 80Zm-55.385 40q-26.654 0-45.635-18.981-18.981-18.98-18.981-45.634v-590.77q0-26.654 18.981-45.634Q207.192-840 233.846-840h310.769q26.654 0 45.635 18.981 18.981 18.98 18.981 45.634v229.923q-11.231 2.231-20.846 5.654-9.616 3.423-19.154 7.577v-243.154q0-10.769-6.923-17.692T544.615-800H233.846q-10.769 0-17.692 6.923t-6.923 17.692v287.154q15.692-15.615 36.077-23.692Q265.692-520 289.231-520h200q11.205 0 21.679 2.269 10.475 2.269 21.244 6.346-11.296 6.227-21.61 14.152-10.313 7.925-20.048 17.464-.573 0-.804-.116-.231-.115-.461-.115h-200q-33 0-56.5 23.5t-23.5 56.5v215.385q0 10.769 6.923 17.692T233.846-160h198.539q5.615 11.462 11.538 21.077 5.923 9.616 13.923 18.923h-224Zm155.385-480q-25.308 0-42.654-17.346-17.346-17.346-17.346-42.654 0-25.308 17.346-42.654Q363.923-720 389.231-720q25.307 0 42.654 17.346 17.346 17.346 17.346 42.654 0 25.308-17.346 42.654Q414.538-600 389.231-600Zm-20 300v60q0 8.5 5.75 14.25t14.25 5.75q6.461 0 11.269-3.769t5.962-9.539v-50.768q-.924-6.577-1.385-13.153-.462-6.577-.462-13.54 0-9.027 1.154-17.719 1.154-8.693 3.462-17.051V-400q0-8.5-5.758-14.25T389.204-420q-8.512 0-14.243 5.75-5.73 5.75-5.73 14.25v60h-60q-8.5 0-14.25 5.758-5.75 5.757-5.75 14.269t5.75 14.242q5.75 5.731 14.25 5.731h60Zm310.883 200q-74.653 0-127.383-52.617Q500-205.233 500-279.886t52.617-127.383Q605.233-460 679.886-460t127.383 52.617Q860-354.767 860-280.114t-52.617 127.383Q754.767-100 680.114-100Zm15.271-186.15V-380q0-6.154-4.616-10.769-4.615-4.616-10.769-4.616t-10.769 4.616q-4.616 4.615-4.616 10.769v100q0 2 4.462 10.923l67 67q4.461 4.462 10.538 4.846 6.077.385 11.308-4.846T763.154-213q0-5.692-5.231-10.923l-62.538-62.227Z"/></svg>