<svg xmlns="http://www.w3.org/2000/svg" height="20" viewBox="0 -960 960 960" width="20"><path d="M691.385-296.15V-360q0-7.754-5.816-13.569-5.815-5.816-13.569-5.816-7.754 0-13.569 5.816-5.816 5.815-5.816 13.569v73.231q0 1.088 3.462 10.692l57 57q6.105 5.462 14.245 5.462 8.14 0 13.601-5.462 5.462-5.461 5.462-13.601t-5.462-14.245l-49.538-49.227ZM392.735-597q-21.803 0-36.654-15.059-14.85-15.058-14.85-37.154 0-22.095 14.85-36.941Q370.932-701 392.735-701q21.803 0 37.15 15.058 15.346 15.059 15.346 37.154 0 22.096-15.346 36.942Q414.538-597 392.735-597Zm279.153 481q-71.427 0-121.657-50.343Q500-216.685 500-288.112t50.343-121.657Q600.685-460 672.112-460t121.657 50.343Q844-359.315 844-287.888t-50.343 121.657Q743.315-116 671.888-116Zm-422.042-20q-23.354 0-39.985-16.631-16.631-16.63-16.631-39.984v-574.77q0-22.654 16.631-39.634Q226.492-824 249.846-824h286.769q22.654 0 39.635 16.981 16.981 16.98 16.981 39.634v231.923q-9.231 3.231-16.846 6.154-7.616 2.923-15.916 7.077v-245.154q0-10.769-6.923-17.692T535.854-792H249.846q-10.769 0-17.692 6.923t-6.923 17.692v291.154q15.692-15.615 37.367-25.692Q284.273-512 309.231-512h168q11.553 0 22.354 2.269 10.8 2.269 21.569 9.346-44.385 32.923-72.077 76.5t-36 95.346h-3.846V-396q0-6.8-4.547-11.4-4.548-4.6-11.27-4.6-6.722 0-11.336 4.6t-4.614 11.4v56h-56.117q-6.849 0-11.483 4.608-4.633 4.607-4.633 11.419t4.633 11.392Q314.498-308 321.347-308h56.117v56q0 6.8 4.633 11.4 4.634 4.6 11.134 4.6 8.461 0 13.884-5.769t4.577-11.769v-30.769q1.308 40.538 14.993 78.315 13.684 37.778 37.161 69.992h-214Z"/></svg>