<svg xmlns="http://www.w3.org/2000/svg" height="20" viewBox="0 -960 960 960" width="20"><path d="M690-295.595V-360q0-7.2-5.4-12.6-5.4-5.4-12.6-5.4-7.2 0-12.6 5.4-5.4 5.4-5.4 12.6v73q0 .857 3 10l57 57q5.727 5 13.364 5Q735-215 740-220q5-5 5-12.636 0-7.637-5-13.364l-50-49.595ZM395.504-597q-19.495 0-32.5-13.212-13.004-13.213-13.004-33Q350-663 363.004-676q13.005-13 32.5-13Q415-689 428.5-675.788q13.5 13.213 13.5 33Q442-623 428.5-610q-13.5 13-32.996 13Zm276.418 475Q603-122 554.5-170.578q-48.5-48.577-48.5-117.5Q506-357 554.578-405.5q48.577-48.5 117.5-48.5Q741-454 789.5-405.422q48.5 48.577 48.5 117.5Q838-219 789.422-170.5q-48.577 48.5-117.5 48.5ZM260-148q-21.45 0-36.725-15.275Q208-178.55 208-200v-560q0-20.75 15.275-36.375T260-812h272q20.75 0 36.375 15.625T584-760v228q-6 3-10.5 5t-10.262 5v-238q0-14-9-23t-23-9H260q-14 0-23 9t-9 23v299q15-17 36.79-28 21.791-11 47.21-11h168q8.015 0 15.508 1Q503-498 511-493q-43 35-68.5 79.5T411-317h-5v-79q0-4.25-2.825-7.125-2.824-2.875-7-2.875-4.175 0-7.058 2.875-2.884 2.875-2.884 7.125v62h-62.116q-4.3 0-7.208 2.885-2.909 2.885-2.909 7.15 0 4.265 2.909 7.115 2.908 2.85 7.208 2.85h62.116v62q0 4.25 2.908 7.125Q392.05-242 396-242q8 0 12.5-6t2.5-12v-40q-1 41 11.069 79.585Q434.138-181.83 456-148H260Z"/></svg>