<svg xmlns="http://www.w3.org/2000/svg" height="24" viewBox="0 -960 960 960" width="24"><path d="M695.385-286.15V-380q0-6.154-4.616-10.769-4.615-4.616-10.769-4.616t-10.769 4.616q-4.616 4.615-4.616 10.769v99.231q0 1.231 4.462 11.692l67 67q4.741 4.462 11.063 4.462 6.322 0 10.783-4.462 4.462-4.461 4.462-10.783 0-6.322-4.462-11.063l-62.538-62.227ZM389.231-600q-25.308 0-42.654-17.346-17.346-17.346-17.346-42.654 0-25.308 17.346-42.654Q363.923-720 389.231-720q25.307 0 42.654 17.346 17.346 17.346 17.346 42.654 0 25.308-17.346 42.654Q414.538-600 389.231-600Zm290.883 500q-74.653 0-127.383-52.617Q500-205.233 500-279.886t52.617-127.383Q605.233-460 679.886-460t127.383 52.617Q860-354.767 860-280.114t-52.617 127.383Q754.767-100 680.114-100Zm-446.268-20q-26.654 0-45.635-18.981-18.981-18.98-18.981-45.634v-590.77q0-26.654 18.981-45.634Q207.192-840 233.846-840h310.769q26.654 0 45.635 18.981 18.981 18.98 18.981 45.634v229.923q-11.231 2.231-20.846 5.654-9.616 3.423-19.154 7.577v-243.154q0-10.769-6.923-17.692T544.615-800H233.846q-10.769 0-17.692 6.923t-6.923 17.692v287.154q15.692-15.615 36.077-23.692Q265.692-520 289.231-520h200q11.205 0 21.679 2.269 10.475 2.269 21.244 6.346-46.385 29.923-76.577 72t-42.5 93.846h-3.846V-400q0-8.5-5.758-14.25T389.204-420q-8.512 0-14.243 5.75-5.73 5.75-5.73 14.25v60h-60q-8.5 0-14.25 5.758-5.75 5.757-5.75 14.269t5.75 14.242q5.75 5.731 14.25 5.731h60v60q0 8.5 5.75 14.25t14.25 5.75q6.461 0 11.384-3.769t6.077-9.769v-30.769q2.308 39.538 15.423 76.23 13.116 36.693 35.731 68.077h-224Z"/></svg>