<svg xmlns="http://www.w3.org/2000/svg" height="24" viewBox="0 -960 960 960" width="24"><path d="M480-62.477q-71.74 0-139.131-23.696-67.392-23.696-119.109-65.37-51.717-41.674-83.239-98.609-31.522-56.935-31.522-122.849v-128.478l192.785 144.305-65.392 65.392q27.87 44.782 80.695 76.695 52.826 31.913 111.912 41.913v-324.781h-120v-106.002h120v-34.564q-40.087-16.957-64.283-51.979-24.195-35.022-24.195-77.979 0-59.185 41.284-100.615 41.284-41.429 100.261-41.429 58.978 0 100.196 41.429 41.217 41.43 41.217 100.615 0 42.957-24.195 77.979-24.196 35.022-64.283 51.979v34.564h120v106.002h-120v324.781q59.086-10 111.912-41.913 52.825-31.913 80.695-76.695l-65.392-65.392 192.785-144.305v128.478q0 65.914-31.522 122.849t-83.239 98.609q-51.717 41.674-119.109 65.37Q551.74-62.477 480-62.477Zm0-670.524q15.078 0 25.278-10.2t10.2-25.278q0-15.318-10.2-25.681-10.2-10.362-25.278-10.362t-25.278 10.36q-10.2 10.359-10.2 25.673 0 15.315 10.2 25.401 10.2 10.087 25.278 10.087Z"/></svg>