<svg xmlns="http://www.w3.org/2000/svg" height="24" viewBox="0 -960 960 960" width="24"><path d="M200.769-119.231Q226.538-198.846 242.884-285q16.347-86.154 16.347-194.231t-16.347-194.231q-16.346-86.154-42.115-165.769h558.693q-25.769 79.615-43 165.769-17.231 86.154-17.231 194.231T716.462-285q17.231 86.154 43 165.769H200.769Zm504.462-40q-23-78-34.478-158.5-11.479-80.5-11.479-161.5t11.479-161.5q11.478-80.5 34.478-158.5H255q23 78 33.615 158.5 10.616 80.5 10.616 161.5t-10.616 161.5Q278-237.231 255-159.231h450.231ZM480-479.231Z"/></svg>