<svg xmlns="http://www.w3.org/2000/svg" height="24" viewBox="0 -960 960 960" width="24"><path d="M910.523-320q0 28.261-13.434 51.087-13.435 22.826-35.305 36.348l-88-87.435h30.738v-320H453.784L347.782-746.001h456.74q44.305 0 75.153 30.848 30.848 30.848 30.848 75.153v320ZM704.522-480q-25 0-42.5-17.5t-17.5-42.5q0-25 17.5-42.5t42.5-17.5q25 0 42.5 17.5t17.5 42.5q0 25-17.5 42.5t-42.5 17.5Zm-341.348 0Zm250.61 0Zm-338.306 40h-40q-17 0-28.5-11.5t-11.5-28.5q0-17 11.5-28.5t28.5-11.5h40v-40q0-17 11.5-28.5t28.5-11.5q17 0 28.5 11.5t11.5 28.5v40h40q17 0 28.5 11.5t11.5 28.5q0 17-11.5 28.5t-28.5 11.5h-40v40q0 17-11.5 28.5t-28.5 11.5q-17 0-28.5-11.5t-11.5-28.5v-40Zm-120 226.001q-44.305 0-75.153-30.848Q49.477-275.695 49.477-320v-320q0-44.677 31.348-75.557 31.348-30.879 74.957-30.879h66.826L329.044-640H155.478v320h367.696L62.086-781.653q-13.13-13.055-13.13-31.006t13.19-31.081q13.19-13.131 31.326-13.131 18.136 0 31.266 13.131l719.568 719.002q13.13 13.13 12.847 31.109-.282 17.978-13.353 31.108-13.071 13.13-31.044 13.13-17.972 0-31.103-13.13L629.175-213.999H155.478Z"/></svg>