<svg xmlns="http://www.w3.org/2000/svg" height="20" viewBox="0 -960 960 960" width="20"><path d="M480-172.464 28.464-624q90.153-80.769 205.46-126.384Q349.231-795.999 480-795.999t246.076 45.615Q841.383-704.769 931.536-624L778.921-471.385q-10.153-2.461-20.23-3.5-10.076-1.038-20.461-1.038-84.846 0-145.499 60.346-60.654 60.346-60.654 145.807 0 10.385 1.038 20.461 1.039 10.077 3.5 20.23L480-172.464Zm189.23 8.463-36.768-36.769 69-69-69-69 36.768-36.768 69 69 69-69 36.769 36.768-69 69 69 69-36.769 36.769-69-69-69 69Z"/></svg>