<svg xmlns="http://www.w3.org/2000/svg" height="24" viewBox="0 -960 960 960" width="24"><path d="m268-56-23-16 108-158h-75q8-91 26-174t44-147.14Q374-616 407-654t69-38q23 0 38 15.5t33 45.5q32 54 60.5 82t71.5 56q6-11 17.5-17t25.5-6q23 0 38 15t15 37v408h-28v-408q0-9.6-7.2-16.8-7.2-7.2-16.8-7.2-9.6 0-16.8 7.2-7.2 7.2-7.2 16.8v19h-28v-19q-41-27-82-69t-66-84l-41 178 81 196v187h-28v-174H388L268-56Zm261-700q-26.4 0-45.2-18.8Q465-793.6 465-820q0-2 3-19-8-4-13.5-11.719-5.5-7.719-5.5-17.469Q449-882 458.2-891q9.2-9 22.8-9 9.677 0 17.339 5.5Q506-889 510.091-881q4.909-2 9.615-2.5t9.412-.5Q555-884 574-865.2q19 18.8 19 45.2 0 26.4-18.8 45.2Q555.4-756 529-756Z"/></svg>