<svg xmlns="http://www.w3.org/2000/svg" height="20" viewBox="0 -960 960 960" width="20"><path d="M392.307-370.769 239.692-218.923q-4.482 4.846-10.587 5.231-6.105.385-11.721-5.231-5.615-5.615-5.615-10.769t5.615-10.77L370-393.077h-95.539q-6.865 0-11.509-4.547-4.645-4.547-4.645-11.269t4.585-11.453q4.584-4.731 11.36-4.731h121.472q12.007 0 20.295 8.123 8.289 8.122 8.289 20.129v121.472q0 6.776-4.548 11.526-4.547 4.75-11.269 4.75t-11.453-4.644q-4.731-4.644-4.731-11.51v-95.538ZM590-568.462h95.539q6.865 0 11.509 4.548 4.645 4.547 4.645 11.269t-4.585 11.453q-4.584 4.731-11.36 4.731H564.276q-12.007 0-20.295-8.123-8.289-8.123-8.289-20.13v-121.471q0-6.777 4.548-11.527 4.547-4.75 11.269-4.75t11.453 4.644q4.731 4.645 4.731 11.51v95.538l152.615-151.846q4.482-4.846 10.587-5.23 6.105-.385 11.721 5.23 5.615 5.616 5.615 10.77t-5.615 10.769L590-568.462Z"/></svg>