<svg xmlns="http://www.w3.org/2000/svg" height="24" viewBox="0 -960 960 960" width="24"><path d="M392.307-364.769 202.692-174.923q-5.846 5.846-13.769 6.231-7.923.385-14.539-6.231-6.615-6.615-6.615-14.269t6.615-14.27L364-393.077H262.308q-8.5 0-14.251-5.758-5.75-5.757-5.75-14.269 0-8.511 5.75-14.242 5.751-5.731 14.251-5.731H400q13.731 0 23.019 9.289 9.289 9.288 9.289 23.019v137.692q0 8.5-5.758 14.25t-14.269 5.75q-8.512 0-14.243-5.75t-5.731-14.25v-101.692ZM596-568.462h101.692q8.501 0 14.251 5.758t5.75 14.269q0 8.512-5.75 14.243t-14.251 5.731H560q-13.731 0-23.019-9.289-9.289-9.288-9.289-23.019v-137.693q0-8.5 5.758-14.25t14.269-5.75q8.512 0 14.243 5.75t5.731 14.25v101.692l189.615-189.846q5.846-5.846 13.769-6.23 7.923-.385 14.539 6.23 6.615 6.616 6.615 14.27t-6.615 14.269L596-568.462Z"/></svg>