<svg xmlns="http://www.w3.org/2000/svg" height="24" viewBox="0 -960 960 960" width="24"><path d="m436-621 41.818-118H482l40 118h-86Zm44 270q-113 0-193.5-80.5T206-625q0-113 80.5-193T480-898q113 0 193.5 80T754-625q0 113-80.5 193.5T480-351Zm-61-216h122l18 49q4 9 12.211 14.5 8.21 5.5 17.789 5.5 16.8 0 25.9-13.5Q624-525 618-541l-91-231q-4-11-13-16.5t-20-5.5h-28q-11 0-20 6t-13 17l-89 233q-5 14 3.58 27T372-498q9 0 17.038-5.067Q397.077-508.133 400-517l19-50ZM114-80q-20.4 0-34.2-13.8Q66-107.6 66-128v-104q0-20.4 13.8-34.2Q93.6-280 114-280q20.4 0 34.2 13.8Q162-252.4 162-232v104q0 20.4-13.8 34.2Q134.4-80 114-80Zm175.982 0Q270-80 256-93.8T242-128v-105q0-19.975 13.8-33.487Q269.6-280 290-280q19.975 0 33.487 13.8Q337-252.4 337-232v105q0 19.975-13.518 33.487Q309.965-80 289.982-80Zm175 0Q445-80 431-93.8T417-128v-105q0-19.975 13.8-33.487Q444.6-280 465-280q19.975 0 33.487 13.8Q512-252.4 512-232v105q0 19.975-13.518 33.487Q484.965-80 464.982-80ZM640-80q-20.4 0-34.2-13.8Q592-107.6 592-128v-105q0-19.975 13.8-33.487Q619.6-280 640-280h207q19.975 0 33.487 13.513Q894-252.975 894-233v105q0 20.4-13.513 34.2Q866.975-80 847-80H640Z"/></svg>