<svg xmlns="http://www.w3.org/2000/svg" height="20" viewBox="0 -960 960 960" width="20"><path d="m443-588.385 36-97.846h.462L517-588.385h-74ZM480.181-424q-75.258 0-125.72-49.28Q304-522.561 304-599.819q0-77.258 50.28-126.72Q404.561-776 479.819-776q76.258 0 126.22 49.28Q656-677.439 656-600.181q0 77.258-49.78 126.72Q556.439-424 480.181-424Zm-48.104-138.154h95.846l18.117 50.092q1.652 4.601 4.729 6.947t8.176 2.346q8.74 0 13.475-6.308 4.734-6.308 1.81-13.837l-81.615-204.009q-.92-2.41-3.683-4.359-2.763-1.949-5.619-1.949h-6.426q-2.856 0-5.619 1.949t-3.711 4.64L388.04-520.408q-2.117 6.023 1.519 11.831 3.637 5.808 10.35 5.808 4.476 0 8.053-2.462 3.576-2.461 5.229-6.279l18.886-50.644ZM194.03-116q-6.722 0-11.453-4.6-4.731-4.6-4.731-11.4v-120q0-6.8 4.547-11.4 4.547-4.6 11.27-4.6 6.722 0 11.452 4.6 4.731 4.6 4.731 11.4v120q0 6.8-4.547 11.4-4.547 4.6-11.269 4.6Zm119.384 0q-6.722 0-11.452-4.6-4.731-4.6-4.731-11.4v-120q0-6.8 4.547-11.4 4.547-4.6 11.269-4.6t11.453 4.6q4.731 4.6 4.731 11.4v120q0 6.8-4.547 11.4-4.548 4.6-11.27 4.6Zm119.385 0q-6.722 0-11.453-4.6-4.731-4.6-4.731-11.4v-120q0-6.8 4.548-11.4 4.547-4.6 11.269-4.6t11.453 4.6q4.731 4.6 4.731 11.4v120q0 6.8-4.548 11.4-4.547 4.6-11.269 4.6ZM552-116q-6.8 0-11.4-4.6-4.6-4.6-4.6-11.4v-120q0-6.8 4.6-11.4 4.6-4.6 11.4-4.6h214.154q6.8 0 11.4 4.6 4.6 4.6 4.6 11.4v120q0 6.8-4.6 11.4-4.6 4.6-11.4 4.6H552Z"/></svg>