<svg xmlns="http://www.w3.org/2000/svg" height="20" viewBox="0 -960 960 960" width="20"><path d="m443-587 36-96 38 96h-74Zm37.235 151Q412-436 364-483.765q-48-47.764-48-116Q316-668 363.765-716q47.764-48 116-48Q548-764 596-716.235q48 47.764 48 116Q644-532 596.235-484q-47.764 48-116 48ZM433-564h94l18.348 49.862Q547-510 549.5-508t7.094 2q7.875 0 12.14-5.5 4.266-5.5 1.804-12.337L488-726q-.657-1.333-2.629-2.667Q483.4-730 481.847-730h-3.494q-1.553 0-3.524 1.333-1.972 1.334-2.657 2.948L392.656-520.87Q391-516 393.955-511q2.954 5 8.409 5 3.636 0 6.636-2t4.652-5.125L433-564ZM198.175-122Q194-122 191-124.875T188-132v-120q0-4.25 2.825-7.125 2.824-2.875 7-2.875 4.175 0 7.175 2.875t3 7.125v120q0 4.25-2.825 7.125-2.824 2.875-7 2.875Zm112 0Q306-122 303-124.875T300-132v-120q0-4.25 2.825-7.125 2.824-2.875 7-2.875 4.175 0 7.175 2.875t3 7.125v120q0 4.25-2.825 7.125-2.824 2.875-7 2.875Zm112 0Q418-122 415-124.875T412-132v-120q0-4.25 2.825-7.125 2.824-2.875 7-2.875 4.175 0 7.175 2.875t3 7.125v120q0 4.25-2.825 7.125-2.824 2.875-7 2.875ZM534-122q-4.25 0-7.125-2.875T524-132v-120q0-4.25 2.875-7.125T534-262h228q4.25 0 7.125 2.875T772-252v120q0 4.25-2.875 7.125T762-122H534Z"/></svg>