<svg xmlns="http://www.w3.org/2000/svg" height="20" viewBox="0 -960 960 960" width="20"><path d="M564.692-340h154.693q10.769 0 17.692-6.923T744-364.615v-230.77q0-10.769-6.923-17.692T719.385-620H564.692q-10.769 0-17.692 6.923t-6.923 17.692v230.77q0 10.769 6.923 17.692T564.692-340Zm-324.077 32Q213-308 198.5-322.5 184-337 184-364.615v-230.77Q184-623 198.5-637.5 213-652 240.615-652h155.462q6.838 0 11.419 4.52t4.581 11.269q0 6.75-4.581 11.48Q402.915-620 396.077-620H240.615q-10.769 0-17.692 6.923T216-595.385v230.77q0 10.769 6.923 17.692T240.615-340h155.462q6.838 0 11.419 4.52t4.581 11.269q0 6.75-4.581 11.48Q402.915-308 396.077-308H240.615Zm324.077 0q-27.615 0-42.115-14.5-14.5-14.5-14.5-42.115v-230.77q0-27.615 14.5-42.115 14.5-14.5 42.115-14.5h154.693Q747-652 761.5-637.5 776-623 776-595.385v230.77Q776-337 761.5-322.5 747-308 719.385-308H564.692Z"/></svg>