<svg xmlns="http://www.w3.org/2000/svg" height="24" viewBox="0 -960 960 960" width="24"><path d="M667.086-176.825H200q-20.391 0-34.435-14.043-14.044-14.044-14.044-34.436 0-20.391 14.044-34.435 14.044-14.043 34.435-14.043h467.086l-7.782-7.783q-13.827-13.826-14.109-33.935-.283-20.109 14.109-34.5 14.391-14.391 34.217-14.391 19.827 0 34.218 14.391l87.087 87.652q15.392 15.957 15.392 37.044 0 21.088-15.392 37.044l-87.087 87.653q-13.826 14.391-33.935 14.391t-34.5-14.391q-14.392-14.392-14.392-34.218 0-19.826 14.392-34.218l7.782-7.782ZM403.87-515.391l-24.652 70.912q-4.565 14.391-16.391 22.369-11.826 7.979-26.218 7.979-24.652 0-38.261-20.022-13.609-20.022-4.913-42.675l129.652-348.216q5.13-13.261 16.608-21.174 11.479-7.913 25.74-7.913h33.652q14.826 0 26.305 8.196 11.478 8.195 16.609 21.456l129.086 346.956q8.826 23.217-5.413 43.305-14.239 20.087-39.022 20.087-16.087 0-28.696-9.044-12.609-9.043-17.74-24.565l-22.651-67.651H403.87Zm22-76.436h109.39l-52.695-156.564h-4L425.87-591.827Z"/></svg>