<svg xmlns="http://www.w3.org/2000/svg" height="20" viewBox="0 -960 960 960" width="20"><path d="M108-67v-380h479v-129h118v129h167v380H108Zm481-581-60-60q23.337-20.692 54.56-31.846Q614.783-751 645.892-751 677-751 708.5-740q31.5 11 54.5 32l-60 60q-12-7-27-11t-30-4q-15 0-30 4t-27 11ZM479-758l-62-63q42-42 102.121-65.5 60.121-23.5 127-23.5Q713-910 773-886.5T875-821l-62 63q-31.85-29.171-75.187-47.086Q694.476-823 646.238-823t-91.751 17.914Q510.975-787.171 479-758ZM274-221h72v-72h-72v72Zm132 0h72v-72h-72v72Zm132 0h72v-72h-72v72Z"/></svg>