<svg xmlns="http://www.w3.org/2000/svg" height="20" viewBox="0 -960 960 960" width="20"><path d="M157.463-160.001v-262.998h448.999v-162h51.998v162h142v262.998H157.463ZM748.461-212v-159h-539v159h539ZM561.537-631.923l-36.383-35.383q23.337-21.693 49.752-33.193 26.415-11.5 57.447-11.5 31.031 0 58.223 11.347 27.192 11.346 50.192 33.346l-36.383 35.383q-13.539-13.538-32.078-20.808Q653.769-660 632.461-660q-21.308 0-39.346 7.269-18.039 7.27-31.578 20.808Zm-90-89-36.152-36.153q37.846-38.846 88.351-60.884 50.506-22.039 108.846-22.039t108.725 22.039q50.384 22.038 88.23 60.884l-36.152 36.153q-29.85-30.171-70.737-48.624Q681.762-788 632.688-788q-49.073 0-90.124 18.453-41.052 18.453-71.027 48.624ZM209.461-212v-159 159Zm42.616-46.616h66.768v-66.768h-66.768v66.768Zm135 0h66.768v-66.768h-66.768v66.768Zm135 1 67.768-1-1-67.768-67.768 1 1 67.768Z"/></svg>