<svg xmlns="http://www.w3.org/2000/svg" height="20" viewBox="0 -960 960 960" width="20"><path d="M123.651-100.476v-340.003h469.001V-576h98.001v135.521h157.001v340.003H123.651Zm461.871-540.133-56.087-56.087q23.337-19.823 52.604-30.325 29.266-10.502 59.505-10.502 30.239 0 59.783 10.348 29.543 10.348 52.543 30.479l-56.087 56.087q-12-7.87-26.565-11.87-14.566-4-29.566-4-15 0-29.565 4-14.565 4-26.565 11.87ZM479.435-746.696l-57.653-58.218q42-41.131 99.513-63.109 57.512-21.978 120.478-21.978 62.967 0 120.358 21.978 57.392 21.978 99.392 63.109l-57.653 58.218q-31.85-29.172-73.67-45.999-41.82-16.828-88.314-16.828-46.495 0-88.485 16.828-41.991 16.827-73.966 45.999ZM269.652-234.477h72v-72h-72v72Zm132 0h72v-72h-72v72Zm132 0h72v-72h-72v72Z"/></svg>