<svg xmlns="http://www.w3.org/2000/svg" height="20" viewBox="0 -960 960 960" width="20"><path d="M144-144v-288h456v-144h72v144h144v288H144Zm437-487-51-51q23.337-18.692 50.06-28.346Q606.783-720 635.892-720 665-720 692-710.5q27 9.5 50 28.5l-51 51q-12-9-26-13t-29-4q-15 0-29 4t-26 13ZM480-732l-52-52q42-40 96.121-60 54.121-20 112-20T748-844q54 20 96 60l-52 52q-31.85-29.171-71.698-44.586Q680.455-792 636.227-792q-44.227 0-84.24 15.414Q511.975-761.171 480-732ZM264-252h72v-72h-72v72Zm132 0h72v-72h-72v72Zm132 0h72v-72h-72v72Z"/></svg>