<svg xmlns="http://www.w3.org/2000/svg" height="20" viewBox="0 -960 960 960" width="20"><path d="M144-140v-303h459v-162h72v162h152v303H144Zm611-72v-159H216v159h539ZM575-635l-51-50q23.337-21.692 52.06-34.346Q604.783-732 638.892-732 673-732 702.5-719.5T755-685l-51 50q-12-12-29-18.5t-36-6.5q-19 0-35.5 6.5T575-635Zm-90-89-50-50q39-40 91.621-63 52.621-23 112.5-23T751.5-837q52.5 23 91.5 63l-50 50q-29.85-30.171-69.198-47.086Q684.455-788 639.227-788q-45.227 0-84.74 16.914Q514.975-754.171 485-724ZM216-212v-159 159Zm38-42h76v-76h-76v76Zm135 0h76v-76h-76v76Zm135 1 77-1-1-77-77 1 1 77Z"/></svg>