<svg xmlns="http://www.w3.org/2000/svg" height="24" viewBox="0 -960 960 960" width="24"><path d="M813.652-235.957 236.196-813.652q43.478-43.522 98.337-72.283 54.858-28.761 117.858-40.522-15.847 99.957 12.435 195.413 28.283 95.457 99.522 166.696t166.576 99.163q95.337 27.924 195.054 13.75-11 63-39.902 117.5t-72.424 97.978Zm-29.565 208L670.109-142.173q-34.479 13.239-70.815 20.098-36.337 6.859-75.294 6.859-84.957 0-159.294-32.359-74.336-32.359-129.554-87.576-55.217-55.218-87.576-129.554Q115.217-439.043 115.217-524q0-38.957 6.859-75.174 6.859-36.217 20.098-70.696L28.956-783.087l59.392-59.392L843.479-87.348l-59.392 59.392Z"/></svg>