<svg xmlns="http://www.w3.org/2000/svg" height="20" viewBox="0 -960 960 960" width="20"><path d="M822.088-211.261 259.826-775.088q42.131-40.869 94.979-66.804 52.847-25.935 110.847-37.37-13.912 98.261 13.892 191.522 27.804 93.261 97.369 162.827 67.566 67.565 160.544 92.521 92.978 24.957 188.674 16.001-11 58-36.587 110.5-25.587 52.5-67.456 94.63ZM789.479-18.26l-99.131-99.696q-38.13 15.565-78.109 24.413-39.978 8.848-81.239 8.848-82.261 0-154.739-31.348-72.479-31.348-126.674-85.544-54.196-54.195-85.544-126.674Q132.695-400.739 132.695-483q0-41.261 8.848-80.957 8.848-39.695 25.413-76.826L66.26-741.479l56.652-56.653 723.22 724.22-56.653 55.652Z"/></svg>