<svg xmlns="http://www.w3.org/2000/svg" height="24" viewBox="0 -960 960 960" width="24"><path d="M791.384-248.847 249.232-790.999q36.846-39.769 83.845-67.615 46.999-27.846 101.922-41.769-11.077 96.307 18.885 187.73 29.962 91.423 98.654 160.115 68.692 68.692 159.153 99.616 90.461 30.923 186.769 19.846-13.308 54.538-40.5 101.153-27.192 46.615-66.576 83.076ZM776.154-65.31 668.923-172.54q-32.461 12.23-66.615 18.538-34.154 6.308-70.615 6.308-79.769 0-149.615-30.269-69.846-30.27-121.846-82.269-51.999-52-82.269-121.846-30.269-69.846-30.269-149.615 0-36.077 6.5-70.23 6.5-34.154 18.731-66.616L66.31-775.154l42.768-42.768 709.844 709.844-42.768 42.768Z"/></svg>