<svg xmlns="http://www.w3.org/2000/svg" height="20" viewBox="0 -960 960 960" width="20"><path d="M183.911-742.173v524.346q-22.13-23.957-40.13-51.196-18-27.239-30.87-58.327v-305.3q12.87-31.088 30.87-58.327 18-27.239 40.13-51.196Zm183.697-117.74v759.826q-26-7.565-50-18.413-24-10.848-47-24.413v-674.174q23-13.565 47-24.413t50-18.413Zm317.393 721.392v-682.958q87.565 52.261 139.782 142.522Q877.001-588.696 877.001-480t-52.218 198.957q-52.217 90.261-139.782 142.522ZM480-82.999q-6.565 0-12.848-.5-6.282-.5-12.848-.5v-792.002q6.566 0 12.848-.5 6.283-.5 12.848-.5 32 0 60.935 4.718 28.935 4.717 57.369 13.717v757.132q-28.434 9-57.369 13.717Q512-82.999 480-82.999Z"/></svg>