<svg xmlns="http://www.w3.org/2000/svg" height="20" viewBox="0 -960 960 960" width="20"><path d="M479.739-333.174q71.286 0 121.187-49.814 49.9-49.815 49.9-120.979 0-71.163-49.824-121.011T480-674.826v53.652q48.87 0 83.022 34.186 34.152 34.185 34.152 83.021 0 48.837-34.176 82.989T480-386.826q-33 0-59.935-17.065-26.935-17.066-42.935-44.066l-46.087 26.827q22.566 39.13 61.629 63.543 39.063 24.413 87.067 24.413ZM334.304-464.782q10.966 0 18.896-7.931 7.93-7.93 7.93-18.896 0-10.965-7.93-18.895-7.93-7.931-18.896-7.931-10.965 0-18.895 7.931-7.931 7.93-7.931 18.895 0 10.966 7.931 18.896 7.93 7.931 18.895 7.931ZM355-549.174q10.965 0 18.896-7.93 7.93-7.931 7.93-18.896t-7.93-18.896q-7.931-7.93-18.896-7.93t-18.896 7.93q-7.93 7.931-7.93 18.896t7.93 18.896q7.931 7.93 18.896 7.93Zm61.957-60.522q10.965 0 18.895-7.93 7.931-7.931 7.931-18.896t-7.931-18.896q-7.93-7.93-18.895-7.93-10.966 0-18.896 7.93-7.931 7.931-7.931 18.896t7.931 18.896q7.93 7.93 18.896 7.93ZM480-81.912q-7.696 0-15.957-.783-8.261-.782-15.522-3.348-134.956-44.13-217.348-166.348Q148.782-374.609 148.782-515v-174.913q0-31.171 17.022-56.108 17.022-24.936 45.935-35.763l233.217-89.173q16.957-6.696 35.044-6.696 18.087 0 35.044 6.696l233.217 89.173q28.913 10.827 45.935 35.763 17.022 24.937 17.022 56.108V-515q0 140.391-82.391 262.609-82.392 122.218-217.348 166.348-7.261 2.566-15.522 3.348-8.261.783-15.957.783Zm0-95.306q100.043-35.641 166.63-129 66.587-93.358 66.587-208.519v-175.176L480-779.087l-233.217 89.448V-515q0 115.424 66.587 208.782 66.587 93.359 166.63 129Zm0-300.652Z"/></svg>