<svg xmlns="http://www.w3.org/2000/svg" height="24" viewBox="0 -960 960 960" width="24"><path d="M480-317.174q76.178 0 129.502-53.314 53.324-53.315 53.324-129.479 0-76.163-53.324-129.511T480-682.826v65.652q48.87 0 83.022 34.186 34.152 34.185 34.152 83.021 0 48.837-34.176 82.989T480-382.826q-33 0-60.935-17.565-27.935-17.566-43.935-46.566l-57.087 31.827q24.566 45.13 67.629 71.543 43.063 26.413 94.328 26.413ZM328.304-459.782q13.566 0 23.196-9.631 9.63-9.63 9.63-23.196 0-13.565-9.63-23.195-9.63-9.631-23.196-9.631-13.565 0-23.195 9.631-9.631 9.63-9.631 23.195 0 13.566 9.631 23.196 9.63 9.631 23.195 9.631ZM352-547.174q13.565 0 23.196-9.63 9.63-9.631 9.63-23.196 0-13.565-9.63-23.196-9.631-9.63-23.196-9.63-13.565 0-23.196 9.63-9.63 9.631-9.63 23.196 0 13.565 9.63 23.196 9.631 9.63 23.196 9.63Zm61.957-59.522q13.565 0 23.195-9.63 9.631-9.631 9.631-23.196 0-13.565-9.631-23.196-9.63-9.63-23.195-9.63-13.566 0-23.196 9.63-9.631 9.631-9.631 23.196 0 13.565 9.631 23.196 9.63 9.63 23.196 9.63ZM480-65.912q-8.696 0-16.957-1.283-8.261-1.282-16.522-3.848-138.956-46.13-222.348-173.848Q140.782-372.609 140.782-516v-183.913q0-33.478 19.022-60.261t49.935-38.61l233.217-87.173q17.957-6.696 37.044-6.696 19.087 0 37.044 6.696l233.217 87.173q30.913 11.827 49.935 38.61 19.022 26.783 19.022 60.261V-516q0 143.391-83.391 271.109-83.392 127.718-222.348 173.848-8.261 2.566-16.522 3.848-8.261 1.283-16.957 1.283Zm0-104.306q100.043-36.391 166.63-132 66.587-95.608 66.587-213.519v-184.176L480-787.087l-233.217 87.448V-516q0 118.174 66.587 213.782 66.587 95.609 166.63 132Zm0-308.652Z"/></svg>