<svg xmlns="http://www.w3.org/2000/svg" height="24" viewBox="0 -960 960 960" width="24"><path d="M480-340q66.667 0 113.333-46.64Q640-433.28 640-499.91q0-66.629-46.667-113.359Q546.667-660 480-660v35.385q52.308 0 88.462 36.346 36.153 36.346 36.153 88.269 0 51.923-36.346 88.269-36.346 36.346-88.269 36.346-31.59 0-58.872-15.461-27.282-15.462-45.59-41.385l-28.923 19.769q23.231 33.231 57.757 52.847Q438.898-340 480-340ZM337.692-460.615q11.462 0 19.962-8.5t8.5-19.962q0-11.462-8.5-19.962t-20.346-8.5q-11.847 0-19.962 8.044t-8.115 20.346q0 12.303 8.064 20.418 8.064 8.116 20.397 8.116Zm19.693-83.231q11.461 0 19.961-8.116 8.5-8.115 8.5-19.961 0-11.846-8.064-20.346t-20.397-8.5q-12.334 0-20.398 8.5t-8.064 20.346q0 11.846 8.5 19.961 8.5 8.116 19.962 8.116Zm56.461-56.539q11.462 0 19.962-8.5t8.5-19.961q0-11.462-8.5-19.962t-20.346-8.5q-11.847 0-19.962 8.044t-8.115 20.346q0 12.303 8.064 20.418 8.064 8.115 20.397 8.115ZM480-126.307q-5.462 0-11.462-1t-11.247-3q-118.06-45-187.676-152.654Q200-390.615 200-516v-171.308q0-20.582 11.711-37.048 11.712-16.465 30.289-23.875l215.385-80q11.692-4.231 22.615-4.231 10.923 0 22.615 4.231l215.385 80q18.577 7.41 30.289 23.875Q760-707.89 760-687.308V-516q0 125.385-69.615 233.039-69.616 107.654-187.676 152.654-5.247 2-11.247 3t-11.462 1ZM480-164q104-33 172-132t68-220v-172.077q0-7.692-4.231-13.846-4.23-6.154-11.923-9.231l-215.385-80q-3.846-1.538-8.461-1.538t-8.461 1.538l-215.385 80q-7.693 3.077-11.923 9.231Q240-695.769 240-688.077V-516q0 121 68 220t172 132Zm0-314.462Z"/></svg>