<svg xmlns="http://www.w3.org/2000/svg" height="20" viewBox="0 -960 960 960" width="20"><path d="M479.739-362q59.276 0 100.768-41.382Q622-444.765 622-503.882 622-563 580.583-604.5 539.167-646 480-646v16q53 0 89.5 36.75T606-504q0 52.5-36.75 89.25T480-378q-31.167 0-57.083-14.5Q397-407 378-430l-11 12q21 24 49.284 40 28.283 16 63.455 16ZM346-464q8.4 0 15.2-6.8 6.8-6.8 6.8-15.2 0-8.4-6.8-15.2-6.8-6.8-15.7-6.8-8.9 0-15.2 6.207-6.3 6.207-6.3 15.7 0 9.493 6.233 15.793Q336.467-464 346-464Zm16-80q8.4 0 15.2-6.3 6.8-6.3 6.8-15.2 0-8.9-6.233-15.7Q371.533-588 362-588t-15.767 6.8Q340-574.4 340-565.5q0 8.9 6.8 15.2 6.8 6.3 15.2 6.3Zm56-58q8.4 0 15.2-6.8 6.8-6.8 6.8-15.2 0-8.4-6.8-15.2-6.8-6.8-15.7-6.8-8.9 0-15.2 6.207-6.3 6.207-6.3 15.7 0 9.493 6.233 15.793Q408.467-602 418-602Zm62 447q-4 0-10-.5t-10.021-2.5Q351-201 285.5-299 220-397 220-515v-157q0-16.949 8.875-30.508Q237.75-716.068 253-722l208-79q10-4 19-4t19 4l208 79q15.25 5.932 24.125 19.492Q740-688.949 740-672v157q0 118-65.5 216T500.021-158Q496-156 490-155.5q-6 .5-10 .5Zm0-16q104-32.25 172-129t68-215v-158q0-10-5.5-18T699-703l-208-79q-5-2-11-2t-11 2l-208 79q-10 4-15.5 12t-5.5 18v158q0 118.25 68 215t172 129Zm0-306Z"/></svg>