<svg xmlns="http://www.w3.org/2000/svg" height="24" viewBox="0 -960 960 960" width="24"><path d="M62.477-208.479v-411.869q0-32.913 17.926-59.604 17.926-26.69 48.467-38.701l311.521-124.043q19.087-7.696 39.609-7.696 20.522 0 39.609 7.696L831.13-718.653q30.541 12.011 48.467 38.701 17.926 26.691 17.926 59.604v411.869q0 44.305-30.849 75.153-30.848 30.849-75.153 30.849h-160V-405.52H328.479v303.043h-160q-44.305 0-75.153-30.849-30.849-30.848-30.849-75.153ZM368.48-102.477v-80h80v80h-80Zm71.521-120v-80h80v80h-80Zm71.521 120v-80h80v80h-80Z"/></svg>