<svg xmlns="http://www.w3.org/2000/svg" height="24" viewBox="0 -960 960 960" width="24"><path d="M195.384-75.384v-169.232H280v-150.768h-84.616v-169.232H280v-150.768h-84.616v-169.232h209.232v169.232H320v150.768h84.616V-500h190.768v-64.616h209.232v169.232H595.384V-460H404.616v64.616H320v150.768h84.616v169.232H195.384Zm40.001-40.001h129.23v-89.23h-129.23v89.23Zm0-320h129.23v-89.23h-129.23v89.23Zm400 0h129.23v-89.23h-129.23v89.23Zm-400-320h129.23v-89.23h-129.23v89.23ZM300-800Zm0 320Zm400 0ZM300-160Z"/></svg>