<svg xmlns="http://www.w3.org/2000/svg" height="20" viewBox="0 -960 960 960" width="20"><path d="M182.913-57.413V-288h96v-76.587h-96v-230.826h96V-648h-96v-230.587h276.674V-648h-96v52.587h96v73.913h88.826v-73.913h276.674v230.826H548.413V-438.5h-88.826v73.913h-96V-288h96v230.587H182.913Zm83-83h110.674V-205H265.913v64.587Zm0-307.174h110.674v-64.826H265.913v64.826Zm365.5 0h110.674v-64.826H631.413v64.826ZM265.913-731h110.674v-64.587H265.913V-731Zm55.457-32.413Zm0 283.413Zm365.5 0Zm-365.5 307.413Z"/></svg>