<svg xmlns="http://www.w3.org/2000/svg" height="20" viewBox="0 -960 960 960" width="20"><path d="M192.211-169Q168-169 150.5-186.344 133-203.689 133-227.981v-503.727Q133-756 150.289-773.5q17.29-17.5 41.5-17.5Q216-791 233.5-773.656q17.5 17.345 17.5 41.637v503.727Q251-204 233.711-186.5q-17.29 17.5-41.5 17.5Zm308-442Q476-611 458.5-628.331q-17.5-17.33-17.5-41.601v-61.797Q441-756 458.289-773.5q17.29-17.5 41.5-17.5Q524-791 541.5-773.669q17.5 17.33 17.5 41.601v61.797Q559-646 541.711-628.5q-17.29 17.5-41.5 17.5ZM681-333q-17.667 18-41.333 17.5Q616-316 598-333.929q-17-16.928-17.5-40Q580-397 596-415l6-6H381.963q-24.284 0-41.624-17.289Q323-455.579 323-479.789 323-504 340.339-521.5q17.34-17.5 41.624-17.5H602l-6-7q-16-17.636-15.5-40.318T598-626q18-18 42.167-18 24.166 0 41.833 18l104 104q18 17.636 18 41.818T786-438L681-333ZM500.211-169Q476-169 458.5-186.331q-17.5-17.33-17.5-41.601v-61.797Q441-314 458.289-331.5q17.29-17.5 41.5-17.5Q524-349 541.5-331.669q17.5 17.33 17.5 41.601v61.797Q559-204 541.711-186.5q-17.29 17.5-41.5 17.5Z"/></svg>