<svg xmlns="http://www.w3.org/2000/svg" height="20" viewBox="0 -960 960 960" width="20"><path d="M117.087-38.087v-170.717h-79v-513.109h79V-878q0-18.663 12.655-31.288t31.363-12.625q18.708 0 31.258 12.625T204.913-878v156.087h79v513.109h-79v170.717h-87.826Zm319 0v-170.717h-79v-513.109h79V-878q0-18.663 12.655-31.288t31.363-12.625q18.708 0 31.258 12.625T523.913-878v156.087h79v513.109h-79v170.717h-87.826Zm319 0v-170.717h-79v-513.109h79V-878q0-18.663 12.655-31.288t31.363-12.625q18.708 0 31.258 12.625T842.913-878v156.087h79v513.109h-79v170.717h-87.826Zm-628.174-596v149.174h68.174v-149.174h-68.174Zm319 0v149.174h68.174v-149.174h-68.174Zm320 0v149.174h68.174v-149.174h-68.174Zm-640 346.174h68.174v-109.174h-68.174v109.174Zm320 0h68.174v-109.174h-68.174v109.174Zm320 0h68.174v-109.174h-68.174v109.174ZM161-441Zm319 0Zm319 0Zm-672.087-43.913h68.174-68.174Zm319 0h68.174-68.174Zm320 0h68.174-68.174Zm-640 87.826h68.174-68.174Zm320 0h68.174-68.174Zm320 0h68.174-68.174Z"/></svg>