<svg xmlns="http://www.w3.org/2000/svg" height="20" viewBox="0 -960 960 960" width="20"><path d="M129.001-50v-166.924h-79v-493.075h79V-878q0-13.6 9.234-22.799 9.234-9.2 22.884-9.2t22.765 9.2q9.115 9.199 9.115 22.799v168.001h79v493.075h-79v166.923h-63.998Zm319 0v-166.924h-79v-493.075h79V-878q0-13.6 9.234-22.799 9.234-9.2 22.884-9.2t22.765 9.2q9.115 9.199 9.115 22.799v168.001h79v493.075h-79v166.923h-63.998Zm319 0v-166.924h-79v-493.075h79V-878q0-13.6 9.234-22.799 9.234-9.2 22.884-9.2t22.765 9.2q9.115 9.199 9.115 22.799v168.001h79v493.075h-79v166.923h-63.998ZM114.999-646.002v173.002h92.002v-173.002h-92.002Zm319 0v173.002h92.002v-173.002h-92.002Zm320 0v173.002h92.002v-173.002h-92.002Zm-640 370.002h92.002v-133.002h-92.002v133.002Zm320 0h92.002v-133.002h-92.002v133.002Zm320 0h92.002v-133.002h-92.002v133.002ZM161-441Zm319 0Zm319 0Zm-684.001-31.999h92.002-92.002Zm319 0h92.002-92.002Zm320 0h92.002-92.002Zm-640 63.998h92.002-92.002Zm320 0h92.002-92.002Zm320 0h92.002-92.002Z"/></svg>