<svg xmlns="http://www.w3.org/2000/svg" height="24" viewBox="0 -960 960 960" width="24"><path d="M440-96.155q-24.749 0-42.374-17.625-17.625-17.624-17.625-42.374v-187.694H255.386q-30.308 0-51.308-21-20.999-21-20.999-51.307v-275.384q0-54.576 38.864-93.441 38.865-38.865 93.441-38.865h461.537v407.69q0 30.307-20.999 51.307-21 21-51.308 21H579.999v187.694q0 24.75-17.625 42.374Q544.749-96.155 520-96.155h-80ZM243.077-551.538h473.846v-212.308h-51.539v126.154q0 12.75-8.629 21.374-8.629 8.625-21.384 8.625-12.756 0-21.371-8.625-8.615-8.624-8.615-21.374v-126.154h-55.386v50q0 12.75-8.628 21.375-8.629 8.625-21.384 8.625-12.756 0-21.371-8.625-8.615-8.625-8.615-21.375v-50H315.384q-30.307 0-51.307 20.999-21 21-21 51.308v140.001Z"/></svg>