<svg xmlns="http://www.w3.org/2000/svg" height="20" viewBox="0 -960 960 960" width="20"><path d="M440-112.307q-18.15 0-31.075-12.926Q396-138.158 396-156.308v-206.384H274.769q-29.265 0-48.94-19.675-19.675-19.675-19.675-48.94v-266.77q0-46.154 31.905-77.885 31.906-31.731 76.71-31.731h439.077v376.386q0 29.265-19.675 48.94-19.675 19.675-48.94 19.675H562v206.384q0 18.15-12.925 31.075Q536.15-112.307 518-112.307h-78Zm-189.846-431.77h459.692v-219.615h-61.077v129.68q0 8.127-6.757 14.877-6.758 6.75-15.27 6.75-8.511 0-15.242-6.75-6.731-6.75-6.731-14.877v-129.68H540v58q0 8.5-6.758 15.25-6.757 6.75-15.269 6.75t-15.242-6.75q-6.731-6.75-6.731-15.25v-58H314.769q-27.615 0-46.115 18.794-18.5 18.793-18.5 46.821v154Z"/></svg>