<svg xmlns="http://www.w3.org/2000/svg" height="24" viewBox="0 -960 960 960" width="24"><path d="M480.235-364Q537-364 576.5-403.735q39.5-39.736 39.5-96.5Q616-557 576.265-596.5q-39.736-39.5-96.5-39.5Q423-636 383.5-596.265q-39.5 39.736-39.5 96.5Q344-443 383.735-403.5q39.736 39.5 96.5 39.5ZM480-392q-45 0-76.5-31.5T372-500q0-45 31.5-76.5T480-608q45 0 76.5 31.5T588-500q0 45-31.5 76.5T480-392Zm0 140q-114 0-209.5-60T115-469q-5-8-7-15.551-2-7.552-2-15.5 0-7.949 2-15.449t7-15.5q60-97 155.5-157T480-748q114 0 209.5 60T845-531q5 8 7 15.551 2 7.552 2 15.5 0 7.949-2 15.449t-7 15.5q-60 97-155.5 157T480-252Z"/></svg>