<svg xmlns="http://www.w3.org/2000/svg" height="24" viewBox="0 -960 960 960" width="24"><path d="M480-320q75 0 127.5-52.5T660-500q0-75-52.5-127.5T480-680q-75 0-127.5 52.5T300-500q0 75 52.5 127.5T480-320Zm.1-83.87q-40.013 0-68.121-28.009-28.109-28.009-28.109-68.021 0-40.013 28.009-68.121 28.009-28.109 68.021-28.109 40.013 0 68.121 28.009 28.109 28.009 28.109 68.021 0 40.013-28.009 68.121-28.009 28.109-68.021 28.109Zm-.1 221.393q-137.391 0-251.283-73.131-113.891-73.13-179.022-194.522-6.696-11.826-9.76-24.435-3.066-12.609-3.066-25.435 0-12.826 3.065-25.435Q43-538.044 49.695-549.87q65.131-121.392 179.022-194.522Q342.609-817.523 480-817.523t251.283 73.131q113.891 73.13 179.022 194.522 6.696 11.826 9.761 24.435 3.065 12.609 3.065 25.435 0 12.826-3.065 25.435-3.065 12.609-9.761 24.435-65.131 121.392-179.022 194.522Q617.391-182.477 480-182.477Z"/></svg>