<svg xmlns="http://www.w3.org/2000/svg" height="20" viewBox="0 -960 960 960" width="20"><path d="M222.783-268.782q-40.426 0-69.213-28.788-28.788-28.787-28.788-69.213v-226.434q0-40.426 28.788-69.213 28.787-28.788 69.213-28.788h514.434q40.426 0 69.213 28.788 28.788 28.787 28.788 69.213v226.434q0 40.426-28.788 69.213-28.787 28.788-69.213 28.788H222.783Zm0-98.001h514.434v-226.434H222.783v226.434Zm-50.001-387.391q-19.087 0-33.544-14.307-14.456-14.307-14.456-34.694 0-19.087 14.956-34.044 14.957-14.957 34.044-14.957h613.436q20.343 0 34.172 14.957 13.828 14.957 13.828 34.544 0 19.587-14.306 34.044-14.307 14.457-34.694 14.457H172.782Zm0 646.35q-19.087 0-33.544-14.307-14.456-14.307-14.456-34.694 0-19.087 14.956-34.044 14.957-14.957 34.044-14.957h613.436q20.343 0 34.172 14.957 13.828 14.957 13.828 34.544 0 19.587-14.306 34.044-14.307 14.457-34.694 14.457H172.782Zm50.001-485.393v226.434-226.434Z"/></svg>