<svg xmlns="http://www.w3.org/2000/svg" height="24" viewBox="0 -960 960 960" width="24"><path d="M206.783-260.782q-43.74 0-74.871-31.13-31.13-31.131-31.13-74.871v-226.434q0-43.74 31.13-74.871 31.131-31.13 74.871-31.13h546.434q43.74 0 74.871 31.13 31.13 31.131 31.13 74.871v226.434q0 43.74-31.13 74.871-31.131 31.13-74.871 31.13H206.783Zm-54.001-509.392q-22.087 0-37.044-15.457-14.956-15.457-14.956-37.544 0-22.087 15.456-37.544 15.457-15.457 37.544-15.457h653.436q22.087 0 37.044 15.457 14.956 15.457 14.956 37.544 0 22.087-15.456 37.544-15.457 15.457-37.544 15.457H152.782Zm0 686.35q-22.087 0-37.044-15.457-14.956-15.457-14.956-37.544 0-22.087 15.456-37.544 15.457-15.457 37.544-15.457h653.436q22.087 0 37.044 15.457 14.956 15.457 14.956 37.544 0 22.087-15.456 37.544-15.457 15.457-37.544 15.457H152.782Z"/></svg>