<svg xmlns="http://www.w3.org/2000/svg" height="24" viewBox="0 -960 960 960" width="24"><path d="M224.615-320q-26.654 0-45.634-18.981Q160-357.961 160-384.615v-190.77q0-26.654 18.981-45.634Q197.961-640 224.615-640h510.77q26.654 0 45.634 18.981Q800-602.039 800-575.385v190.77q0 26.654-18.981 45.634Q762.039-320 735.385-320h-510.77ZM179-735.385q-7.769 0-13.385-5.758Q160-746.9 160-755.412q0-8.511 5.75-14.242 5.75-5.731 14.25-5.731h601q7.769 0 13.385 5.758Q800-763.869 800-755.358q0 8.512-5.75 14.242-5.75 5.731-14.25 5.731H179Zm0 550.77q-7.769 0-13.385-5.758Q160-196.131 160-204.642q0-8.512 5.75-14.242 5.75-5.731 14.25-5.731h601q7.769 0 13.385 5.758Q800-213.1 800-204.588q0 8.511-5.75 14.242-5.75 5.731-14.25 5.731H179Z"/></svg>