<svg xmlns="http://www.w3.org/2000/svg" height="20" viewBox="0 -960 960 960" width="20"><path d="M480-110q-95 0-173-41.5T178-263l83-85q40 59 97 89.5T480-228q105.371 0 178.686-73.314Q732-374.629 732-480q0-105.371-73.444-178.686Q585.111-732 479.556-732 377-732 301.5-659 226-586 228-479v-6l57-57 61 62-177 177L-8-480l61-62 57 58v6q-1-77 28-145t79.5-118.5Q268-792 336-821t144.5-29q76.5 0 143.633 29.1 67.134 29.1 117.4 79.367 50.267 50.266 79.367 117.4Q850-557 850-480q0 155-107.5 262.5T480-110ZM372-336v-180h36.078v-36q0-29.7 21.197-50.85Q450.471-624 480.235-624q29.765 0 50.834 21.15 21.069 21.15 21.069 50.85v36H588v180H372Zm72-180h72v-35.789Q516-567 505.711-577.5q-10.29-10.5-25.5-10.5Q465-588 454.5-577.65 444-567.3 444-552v36Z"/></svg>