<svg xmlns="http://www.w3.org/2000/svg" height="20" viewBox="0 -960 960 960" width="20"><path d="M480-164.001q-74.846 0-138.807-32.193-63.961-32.192-108.038-86.73l37.153-37.768q36.769 48.231 90.423 76.461Q414.385-216 480-216q109.756 0 186.878-77.122Q744-370.244 744-480q0-109.371-77.444-186.686Q589.111-744 479.556-744 370-744 292-665.5 214-587 216-474v24.233l63.539-63.539 36.768 36.768-126.306 126.306L63.694-476.538l36.769-36.768 63.538 64.539V-473q-1-67.769 23.77-127.115 24.769-59.346 68.268-102.846 43.5-43.499 101.346-68.268 57.846-24.77 123.115-24.77t122.748 24.87q57.479 24.869 100.246 67.635 42.766 42.767 67.635 100.246 24.87 57.479 24.87 123.248 0 131.538-92.231 223.768-92.23 92.231-223.768 92.231ZM374.308-340.616V-516h36.078v-38.308q0-28.931 20.427-49.311Q451.24-624 480.235-624q28.996 0 49.295 20.381 20.3 20.38 20.3 49.311V-516h35.862v175.384H374.308ZM441.692-516h76.616v-38.097q0-15.98-11.059-27.249-11.059-11.27-27.038-11.27-15.98 0-27.25 11.12-11.269 11.119-11.269 27.188V-516Z"/></svg>