<svg xmlns="http://www.w3.org/2000/svg" height="20" viewBox="0 -960 960 960" width="20"><path d="M590.769-369.231Zm-224 85.769q.615.231 1.5-.153.885-.385.962-.385 6.923 0 14.331-.615 7.409-.616 15.207-1.847v84.616q0 10.769 6.923 17.692t17.693 6.923h334.769q10.769 0 17.692-6.923t6.923-17.692v-334.769q0-10.77-6.923-17.693-6.923-6.923-17.692-6.923h-84.616q1.231-7.798 1.847-15.207.615-7.408.615-14.331 0-.077.385-.962.384-.885.153-1.5h81.616q23.354 0 39.985 16.631t16.631 39.985v334.769q0 23.354-16.631 39.985t-39.985 16.631H423.385q-23.354 0-39.985-16.631t-16.631-39.985v-81.616Zm2.831-83.307q-93.446 0-158.908-65.093Q145.23-496.954 145.23-590.4q0-93.446 65.093-158.908 65.093-65.462 158.539-65.462 93.446 0 158.907 65.093 65.462 65.093 65.462 158.539 0 93.446-65.093 158.907-65.092 65.462-158.538 65.462Zm-.143-32q79.774 0 135.774-56.226 56-56.227 56-136 0-79.774-56.226-135.774-56.227-56-136-56-79.774 0-135.774 56.226t-56 136q0 79.774 56.226 135.774t136 56Zm-.226-192Z"/></svg>