<svg xmlns="http://www.w3.org/2000/svg" height="24" viewBox="0 -960 960 960" width="24"><path d="M588-372ZM360-240h28v36q0 14 9 23t23 9h336q14 0 23-9t9-23v-336q0-14-9-23t-23-9h-36v-28h36q24.75 0 42.375 17.625T816-540v336q0 24.75-17.625 42.375T756-144H420q-24.75 0-42.375-17.625T360-204v-36Zm12.191-120Q277-360 210.5-426.309q-66.5-66.308-66.5-161.5Q144-683 210.309-749.5q66.308-66.5 161.5-66.5Q467-816 533.5-749.691q66.5 66.308 66.5 161.5Q600-493 533.691-426.5q-66.308 66.5-161.5 66.5ZM372-388q83 0 141.5-58.5T572-588q0-83-58.5-141.5T372-788q-83 0-141.5 58.5T172-588q0 83 58.5 141.5T372-388Zm0-200Z"/></svg>