<svg xmlns="http://www.w3.org/2000/svg" height="24" viewBox="0 -960 960 960" width="24"><path d="M369.378-350.769q-100.224 0-170.186-69.814-69.962-69.815-69.962-170.039 0-100.224 69.815-170.186 69.814-69.962 170.038-69.962 100.225 0 170.186 69.815 69.962 69.814 69.962 170.038 0 100.225-69.814 170.186-69.815 69.962-170.039 69.962Zm-18.609 156.923v-46.616q4.615.231 9.231.347 4.615.115 9.231.115 146.154 0 248.461-102.308Q720-444.615 720-590.769q0-4.616-.115-9.231-.116-4.616-.347-9.231h46.616q26.654 0 45.635 18.981 18.981 18.981 18.981 45.635v350.769q0 26.654-18.981 45.635-18.981 18.981-45.635 18.981H415.385q-26.654 0-45.635-18.981-18.981-18.981-18.981-45.635Z"/></svg>