<svg xmlns="http://www.w3.org/2000/svg" height="24" viewBox="0 -960 960 960" width="24"><path d="m419.479-318.304 216.217-139.609q11.826-7.817 11.826-22.148 0-14.33-11.826-22.026L419.479-641.696q-13.392-9.261-27.283-1.282-13.892 7.978-13.892 23.935v278.086q0 15.957 13.892 23.935 13.891 7.979 27.283-1.282ZM166.783-140.782q-44.305 0-75.153-30.848-30.848-30.848-30.848-75.153v-466.434q0-44.305 30.848-75.153 30.848-30.848 75.153-30.848h626.434q44.305 0 75.153 30.848 30.848 30.848 30.848 75.153v466.434q0 44.305-30.848 75.153-30.848 30.848-75.153 30.848H166.783Zm0-106.001h626.434v-466.434H166.783v466.434Zm0 0v-466.434 466.434Z"/></svg>