<svg xmlns="http://www.w3.org/2000/svg" height="20" viewBox="0 -960 960 960" width="20"><path d="M456-511.478h67.478v59.739q0 8.261 6.978 12.109 6.979 3.848 13.834-3.008l91.84-91.84q6.696-6.696 6.696-17.522 0-10.826-6.696-17.522l-91.84-91.84q-6.855-6.856-13.834-3.008-6.978 3.848-6.978 12.109v59.739H432q-42.261 0-71.391 29.131-29.131 29.13-29.131 71.391v48q0 16.996 11.703 28.759 11.702 11.763 28.608 11.763 16.907 0 28.82-11.763T412.522-444v-24q0-18.139 12.669-30.809 12.67-12.669 30.809-12.669ZM71-116.303q-16.996 0-28.76-11.703-11.763-11.702-11.763-28.608 0-16.907 11.763-28.537Q54.004-196.782 71-196.782H889q16.995 0 28.759 11.42 11.763 11.42 11.763 28.327 0 16.906-11.763 28.819-11.764 11.913-28.759 11.913H70.999Zm103.783-128.479q-41.005 0-69.503-28.498-28.498-28.498-28.498-69.503v-394.434q0-41.005 28.498-69.503 28.498-28.498 69.503-28.498h610.434q41.005 0 69.503 28.498 28.498 28.498 28.498 69.503v394.434q0 41.005-28.498 69.503-28.498 28.498-69.503 28.498H174.783Z"/></svg>