<svg xmlns="http://www.w3.org/2000/svg" height="20" viewBox="0 -960 960 960" width="20"><path d="M708-172.251h-92q-6.8 0-11.4-4.632-4.6-4.632-4.6-11.378 0-6.745 4.6-11.281 4.6-4.536 11.4-4.536h92v-91.688q0-6.734 4.547-11.484t11.27-4.75q6.722 0 11.327 4.6 4.604 4.6 4.604 11.4v92h92.168q6.836 0 11.46 4.608Q848-194.784 848-187.973q0 6.812-4.624 11.392-4.624 4.581-11.46 4.581h-92.168v92q0 6.8-4.631 11.4-4.632 4.6-11.144 4.6-6.811 0-11.392-4.624Q708-73.248 708-80.084v-92.167ZM173.538-188q-12.031 0-20.169-8.138-8.139-8.139-8.139-20.17V-404h-30.769q-13.154 0-22.73-11.692-9.577-11.693-4.577-24.846l48-167.385q2.159-8.784 10.078-14.431 7.92-5.646 17.999-5.646h481.538q10.079 0 17.998 5.646 7.919 5.647 10.079 14.431l48 167.385q5 13.153-4.577 24.846Q706.692-404 693.538-404h-30.769v138.769q0 6.8-4.547 11.4-4.547 4.6-11.269 4.6t-11.453-4.6q-4.731-4.6-4.731-11.4V-404H441.231v187.692q0 12.031-8.139 20.17Q424.954-188 412.923-188H173.538Zm3.693-32H409.23v-184H177.231v184Zm-19.077-496q-6.8 0-11.4-4.547-4.6-4.547-4.6-11.269 0-6.723 4.6-11.453 4.6-4.731 11.4-4.731h491.692q6.8 0 11.4 4.547 4.6 4.547 4.6 11.269 0 6.723-4.6 11.453-4.6 4.731-11.4 4.731H158.154Z"/></svg>