<svg xmlns="http://www.w3.org/2000/svg" height="24" viewBox="0 -960 960 960" width="24"><path d="M720-200H620q-8.5 0-14.25-5.758-5.75-5.757-5.75-14.269 0-8.511 5.75-14.242Q611.5-240 620-240h100v-100q0-8.5 5.758-14.25t14.269-5.75q8.512 0 14.242 5.75Q760-348.5 760-340v100h100q8.5 0 14.25 5.758t5.75 14.269q0 8.512-5.75 14.242Q868.5-200 860-200H760v100q0 8.5-5.758 14.25Q748.485-80 739.973-80q-8.511 0-14.242-5.75Q720-91.5 720-100v-100Zm-558.462 20q-13.731 0-23.019-9.288-9.289-9.289-9.289-23.02V-420h-17.769q-15.154 0-25.23-12.192-10.077-12.193-6.077-27.346l40-175.385q2.467-10.971 11.514-18.024Q140.716-660 152.231-660h495.538q11.515 0 20.562 7.053 9.048 7.053 11.515 18.024l40 175.385q4 15.153-6.077 27.346Q703.692-420 688.538-420h-17.769v110.769q0 8.5-5.758 14.25-5.757 5.75-14.269 5.75-8.511 0-14.242-5.75-5.731-5.75-5.731-14.25V-420H449.231v207.692q0 13.731-9.289 23.02Q430.654-180 416.923-180H161.538Zm7.693-40H409.23v-200H169.231v200Zm-23.077-520q-8.5 0-14.25-5.758-5.75-5.757-5.75-14.269t5.75-14.242q5.75-5.731 14.25-5.731h507.692q8.5 0 14.25 5.758 5.75 5.757 5.75 14.269t-5.75 14.242q-5.75 5.731-14.25 5.731H146.154Z"/></svg>