<svg xmlns="http://www.w3.org/2000/svg" height="20" viewBox="0 -960 960 960" width="20"><path d="M403.385-168h151.692v-54.538l17.308-5.693q82.538-26.692 140.115-89.731Q770.077-381 787.077-456H172.923q17 75 74.192 138.038 57.193 63.039 138.962 89.731l17.308 5.693V-168Zm-32.001 32v-63.692Q278.923-226.385 214-310.269 149.077-394.154 136-464v-24h96v-272l592-64v24.154l-395.077 42.615v112.154H824v23.385H428.923V-488H824v24q-11.538 69.846-77.5 153.731-65.961 83.884-159.423 110.577V-136H371.384Zm-29.23-509.077h63.384v-109.462l-63.384 5.77v103.692Zm-86.769 0h63.384v-100.769l-63.384 7.307v93.462ZM342.154-488h63.384v-133.692h-63.384V-488Zm-86.769 0h63.384v-133.692h-63.384V-488ZM480-456Z"/></svg>