<svg xmlns="http://www.w3.org/2000/svg" height="24" viewBox="0 -960 960 960" width="24"><path d="M401.13-166.783h157.74v-44l48.869-19.435q55.956-22.608 96.369-59.499 40.413-36.891 62.108-83.716H193.218q21.696 47.39 61.609 83.999 39.913 36.608 97.434 59.216l48.869 19.435v44ZM297.39-60.782v-77.913q-103.043-41.435-169.826-135.37Q60.782-368 60.782-479.435h80v-335.261l758.436-84.522v69.044L427.913-776.46v70.242h471.305v69.044H427.913v157.739h471.305q0 111.435-66.782 205.37-66.783 93.935-169.826 135.37v77.913H297.39Zm21.48-645.436h40v-62.565l-40 5v57.565Zm-109.044 0h40v-50l-40 4.566v45.434ZM318.87-479.435h40v-157.739h-40v157.739Zm-109.044 0h40v-157.739h-40v157.739ZM480-373.433Z"/></svg>