<svg xmlns="http://www.w3.org/2000/svg" height="24" viewBox="0 -960 960 960" width="24"><path d="M397.692-160h163.847v-44.769l36.152-13.846q70.77-24.846 120.309-74.616Q767.539-343 787.539-400H172.461q20 57 68.847 106.769 48.846 49.77 120.231 74.616l36.153 13.846V-160Zm-59.998 59.999v-63.846q-101.231-35.846-166.192-116.538-64.962-80.691-71.501-179.614h80v-325l679.998-75v48.077l-441.538 49.307v76.078h441.538v47.691H418.461v178.847h441.538q-5.77 98.923-71.501 179.614-65.731 80.692-166.961 116.538v63.846H337.694Zm-14.617-586.536h47.693v-71.232l-47.693 5.385v65.847Zm-95.384 0h47.693v-60.386l-47.693 5.154v55.232Zm95.384 226.538h47.693v-178.847h-47.693v178.847Zm-95.384 0h47.693v-178.847h-47.693v178.847ZM480-400Z"/></svg>