<svg xmlns="http://www.w3.org/2000/svg" height="24" viewBox="0 -960 960 960" width="24"><path d="M789.692-86.002 85.232-790.461l42.154-42.153 704.459 703.228-42.153 43.384Zm-7.384-280.152-36-80h-52.462v66l-47.692-47.692v-166h160.769l26.923 26.923v90.23l-26.923 27.308h-12.154l36 83.231h-48.461Zm-88.462-127.692h92.308v-52.308h-92.308v52.308Zm-120-6.308-93.692-93.692h66.769l26.923 26.923v66.769Zm-447.692 134v-227.692h47.692v80h92.308v-80h47.692v227.692h-47.692v-100h-92.308v100h-47.692Zm260-165.539 47.692 47.692v70.155h70.771l47.076 47.692H386.154v-165.539Z"/></svg>