<svg xmlns="http://www.w3.org/2000/svg" height="20" viewBox="0 -960 960 960" width="20"><path d="M746.385-201 199.461-748.923l6.308-5.308 546.924 548.462-6.308 4.769Zm-69.77-195.308-29-64h-35.923v44l-23.384-23.384v-124h98.538l20.846 20.846v59.461l-20.846 21.616h-14.307l29 65.461h-24.924Zm-64.923-87.384h72.616v-56.616h-72.616v56.616Zm-96-28.616-51.384-51.384h30.538l20.846 20.846v30.538Zm-311.384 116v-167.384h23.384v64h72.616v-64h23.384v167.384h-23.384v-80h-72.616v80h-23.384Zm192-147.077L419.692-520v100.308h99.539l24.154 23.384H396.308v-147.077Z"/></svg>