<svg xmlns="http://www.w3.org/2000/svg" height="20" viewBox="0 -960 960 960" width="20"><path d="M237.127-830H310l126 336h-69.753l-27.901-80H210l-29 80h-70l126.127-336Zm.929 384Q278-446 306-418.208q28 27.791 28 68.041 0 19.167-7 36.667T306-282l-17 17 34 34 53-53 51 51-54 53 54 53-51 51-53-53-39.789 39.053Q269-76 251.61-69T215-62q-40 0-68-28.037t-28-67.955q0-19.008 7-36.508 7-17.5 21-31.5l40-39-17-17q-14-14-21-31.265-7-17.266-7-36.449Q142-390 170.056-418t68-28ZM238-215l-39 40q-3 4-5 8.237t-2 9.079Q192-148 198.935-141q6.935 7 17.022 7 5.043 0 9.543-2 4.5-2 7.239-4.8L272-180l-34-35Zm1-159q-10.105 0-17.053 7.2Q215-359.6 215-350q0 11 8 18.5t16 15.5q8-8 16-15.5t8-18.5q0-10-7.2-17t-16.8-7Zm33-383-42 125h87l-41.4-125H272Zm427-117q8 14 13.5 28t9.5 28l-40 12h182v72h-66q-9 34-27.103 64.202Q752.793-639.595 729-614q28.906 18.162 59.953 30.081Q820-572 853-564l-16 71q-45-11-86.5-28.5T672-565q-37 26-78.5 43.5T507-493l-16-71q33-8 64.047-19.919Q586.094-595.838 615-614q-24-26-41.5-56.141Q556-700.283 546-734h-66v-72h176q-3-13-8-25.5T638-856l61-18Zm90 454 51 51L547-76l-51-51 293-293Zm-213 10q25 0 42.5 17.5T636-350q0 25-17.5 42.5T576-290q-25 0-42.5-17.5T516-350q0-25 17.5-42.5T576-410Zm46-324q8 21 20.923 39.735Q655.846-675.531 672-659q16-17 28.5-35.5T721-734h-99Zm158 528q25 0 42.5 17.5T840-146q0 25-17.5 42.5T780-86q-25 0-42.5-17.5T720-146q0-25 17.5-42.5T780-206Z"/></svg>