<svg xmlns="http://www.w3.org/2000/svg" height="24" viewBox="0 -960 960 960" width="24"><path d="M762.615-198.154 565.308-395.461q-6.385-6.385-6.385-13.462t6.385-13.462q6.384-6.384 13.846-6 7.462.385 13.077 6l197.308 197.308q6.384 6.385 6.384 13.462t-6.384 13.461q-6.385 6.385-13.462 6.385t-13.462-6.385ZM590-190.769q-13.923 0-23.115-9.192-9.193-9.193-9.193-23.116V-280l89.231 89.231H590Zm-369.231 0q-13.923 0-23.115-9.192-9.193-9.193-9.193-23.116v-352.308H177.23q-11.692 0-16.307-10.076-4.616-10.077 3.846-18.539L306-745.231q2-2 11.692-4.462 1.231 0 11.693 4.462L470.616-604q8.461 8.462 3.846 18.539-4.616 10.076-16.308 10.076h-11.231v352.308q0 13.923-9.192 23.116-9.192 9.192-23.115 9.192H220.769Zm35.385-187.693h123.077v-196.923H256.154v196.923Z"/></svg>