<svg xmlns="http://www.w3.org/2000/svg" height="20" viewBox="0 -960 960 960" width="20"><path d="M550.87-288h48v-48h48v-48h-48v-48h-48v48h-48v48h48v48ZM313.13-478.304h48v-78.587h48v78.587h48v-188.609h-48v62.304h-48v-62.304h-48v188.609Zm189.74 0h120l24-24v-140.609l-24-24h-120v188.609ZM361.13-353.696V-384h48v30.304h-48Zm48 110.305h48l-29-65.305h4.834l24.166-24.047V-408l-24-24h-120v188.609h48v-62.385h19l29 62.385Zm141.74-282.913v-92.609h48v92.609h-48ZM480.276-76.782q-83.798 0-157.182-31.46-73.385-31.46-128.388-86.464-55.004-55.003-86.464-128.346t-31.46-157.406q0-84.064 31.46-156.948 31.46-72.885 86.464-127.888 55.003-55.004 128.346-86.464t157.406-31.46q84.064 0 156.948 31.46 72.885 31.46 127.888 86.464 55.004 55.003 86.464 128.112t31.46 156.906q0 83.798-31.46 157.182-31.46 73.385-86.464 128.388-55.003 55.004-128.112 86.464t-156.906 31.46Z"/></svg>