<svg xmlns="http://www.w3.org/2000/svg" height="24" viewBox="0 -960 960 960" width="24"><path d="M578-260h60v-60h60v-60h-60v-60h-60v60h-60v60h60v60ZM282-477h60v-97.5h80v97.5h60v-234h-60v77h-80v-77h-60v234Zm236 0h150l30-30v-174l-30-30H518v234ZM342-343v-37h80v37h-80Zm78 137h62l-36-81h6l30-30v-93l-30-30H282v234h60v-77.143h44L420-206Zm158-331v-114h60v114h-60ZM480-46q-91 0-169.987-34.084-78.988-34.083-137.417-92.512T80.084-310.013Q46-389 46-480t34.084-169.987q34.083-78.988 92.512-137.417t137.417-92.512Q389-914 480-914t169.987 34.084q78.988 34.083 137.417 92.512t92.512 137.417Q914-571 914-480t-34.084 169.987q-34.083 78.988-92.512 137.417T649.987-80.084Q571-46 480-46Z"/></svg>