<svg xmlns="http://www.w3.org/2000/svg" height="24" viewBox="0 -960 960 960" width="24"><path d="M578.87-260h60v-60h60v-60h-60v-60h-60v60h-60v60h60v60ZM281.13-478.304h60v-98.587h80v98.587h60v-236.609h-60v78.304h-80v-78.304h-60v236.609Zm237.74 0h150l30-30v-176.609l-30-30h-150v236.609ZM341.13-341.696V-380h80v38.304h-80Zm78 138.305h62l-36-82.305h6l30-30V-410l-30-30h-170v236.609h60v-78.385h44l34 78.385Zm159.74-334.913v-116.609h60v116.609h-60ZM480-60.782q-87.522 0-163.906-32.96-76.385-32.96-132.888-89.464-56.504-56.503-89.464-132.888Q60.782-392.478 60.782-480t32.96-163.906q32.96-76.385 89.464-132.888 56.503-56.504 132.888-89.464 76.384-32.96 163.906-32.96t163.906 32.96q76.385 32.96 132.888 89.464 56.504 56.503 89.464 132.888 32.96 76.384 32.96 163.906t-32.96 163.906q-32.96 76.385-89.464 132.888-56.503 56.504-132.888 89.464Q567.522-60.782 480-60.782Z"/></svg>