<svg xmlns="http://www.w3.org/2000/svg" height="20" viewBox="0 -960 960 960" width="20"><path d="M564.308-300.308v-48h-48v-23.384h48v-48h23.384v48h48v23.384h-48v48h-23.384Zm-240-192v-167.384h23.384v64h72.616v-64h23.384v167.384h-23.384v-80h-72.616v80h-23.384Zm192 0v-167.384H624L635.692-648v144L624-492.308H516.308ZM347.692-339.692h72.616v-56.616h-72.616v56.616Zm65.693 87.384-29.77-64h-35.923v64h-23.384v-167.384H432l11.692 11.74v78.49l-11.859 11.693h-23.294l29 65.461h-24.154Zm126.307-263.384h72.616v-120.616h-72.616v120.616ZM480.409-136q-70.948 0-133.685-26.839-62.737-26.84-109.865-73.922-47.127-47.082-73.993-109.716Q136-409.111 136-480.325q0-71.214 26.839-133.451 26.84-62.237 73.922-109.365 47.082-47.127 109.716-73.993Q409.111-824 480.325-824q71.214 0 133.451 26.839 62.237 26.84 109.365 73.922 47.127 47.082 73.993 109.482Q824-551.357 824-480.409q0 70.948-26.839 133.685-26.84 62.737-73.922 109.865-47.082 47.127-109.482 73.993Q551.357-136 480.409-136Zm-.179-32Q610-168 701-259.23q91-91.229 91-221Q792-610 700.77-701q-91.229-91-221-91Q350-792 259-700.77q-91 91.229-91 221Q168-350 259.23-259q91.229 91 221 91ZM456-480Z"/></svg>