<svg xmlns="http://www.w3.org/2000/svg" height="20" viewBox="0 -960 960 960" width="20"><path d="M210-754h28q17.4 0 29.7 12.3T280-712q0 17.4-12.3 29.7T238-670H121q-24.3 0-41.65-17.35Q62-704.7 62-729v-127q0-17.4 12.3-29.7T104-898q17.4 0 29.7 12.3T146-856v46q56-68 141-105t185-37q131 0 237 64t167 173q9 15.545 1 30.273Q869-670 850.778-670 829-670 810.5-682.5T778-713q-49-70-131-112.5T472-868q-80 0-149 29t-113 85ZM416-62q-26 0-51-10t-43-29L115.824-315.234Q109-322 109.5-328.5T116-342l3-3q24-30 59-39.5t71 3.5l57 17v-320q0-20.3 14.289-34.65 14.29-14.35 34.5-14.35Q375-733 389.5-718.65T404-684v385q0 22-18.618 35-18.617 13-39.382 5l-58-18 102 107q6 6 12.63 8 6.631 2 13.37 2h245q34.6 0 58.8-24.2Q744-208.4 744-243v-211q0-20.3 14.289-34.65 14.29-14.35 34.5-14.35Q813-503 827.5-488.65T842-454v211q0 76-52.5 128.5T661-62H416Zm84.789-537Q521-599 535.5-584.65T550-550v130q0 20.3-14.289 34.65-14.29 14.35-34.5 14.35Q481-371 466.5-385.35T452-420v-130q0-20.3 14.289-34.65 14.29-14.35 34.5-14.35Zm146 48Q667-551 681.5-536.675t14.5 34.587v81.825Q696-400 681.711-385.5q-14.29 14.5-34.5 14.5Q627-371 612.5-385.325T598-419.912v-81.825Q598-522 612.289-536.5q14.29-14.5 34.5-14.5ZM576-291Z"/></svg>