<svg xmlns="http://www.w3.org/2000/svg" height="24" viewBox="0 -960 960 960" width="24"><path d="M262.391-321.435q25 0 42.5-17.5t17.5-42.5q0-25-17.5-42.5t-42.5-17.5q-25 0-42.5 17.5t-17.5 42.5q0 25 17.5 42.5t42.5 17.5Zm357.131 0q25 0 42.5-17.5t17.5-42.5q0-25-17.5-42.5t-42.5-17.5q-25 0-42.5 17.5t-17.5 42.5q0 25 17.5 42.5t42.5 17.5ZM72.826-111.869v-369.566l100.391-286.696h427.74v91.001H237.109L196.304-560h404.653v80H163.826v197.13h554.261V-480h91v368.131H680.239v-80H201.674v80H72.826Zm677.718-411.718v-150.565l-90.805 90.804-29.435-29.435 112-112-112-112 29.435-29.435 90.805 90.805v-150.565h21.434l115.196 117.195-86 84 86 86-115.196 115.196h-21.434Zm42.152-251.826 35.608-33.37-35.608-35.369v68.739Zm0 172 35.608-35.37-35.608-35.369v70.739ZM163.826-480v197.13V-480Z"/></svg>