<svg xmlns="http://www.w3.org/2000/svg" height="24" viewBox="0 -960 960 960" width="24"><path d="M240.181-332.308q18.665 0 31.55-13.065 12.885-13.066 12.885-31.731t-13.066-31.55q-13.066-12.885-31.731-12.885t-31.55 13.066q-12.884 13.066-12.884 31.731t13.065 31.55q13.066 12.884 31.731 12.884Zm366.154 0q18.665 0 31.55-13.065 12.884-13.066 12.884-31.731t-13.065-31.55q-13.066-12.885-31.731-12.885t-31.55 13.066q-12.885 13.066-12.885 31.731t13.066 31.55q13.066 12.884 31.731 12.884ZM103.077-160v-313.846L189.538-720h393.539v40H218.615l-58.922 166.154h423.384v40h160V-160h-49.231v-80H152.308v80h-49.231Zm630.615-364.615v-158.154l-96.615 96.615L615.231-608l112-112-112-112 21.846-21.846 96.615 96.615v-158.154h13.847l109.384 109.847-86 85.538 86 86-109.384 109.385h-13.847Zm30.77-232.616 48.769-48.307-48.769-48.77v97.077Zm0 172L813.231-634l-48.769-48.769v97.538Z"/></svg>