<svg xmlns="http://www.w3.org/2000/svg" height="24" viewBox="0 -960 960 960" width="24"><path d="M400-440ZM20.782-60.782v-758.436h435.045v106.001H126.783v546.434h546.434v-249.044h106.001v355.045H20.782ZM203.39-240h80v-280h-80v280ZM360-240h80v-400h-80v400Zm156.609 0h80v-160h-80v160Zm220.914-255.827q-29.808 0-58.621-8.717-28.814-8.718-54.379-25.718l-43.435 42.131-58.392-58.392 44.566-44q-15.718-24-23.576-51-7.859-27-7.859-56 0-84.13 58.782-142.913 58.783-58.782 142.914-58.782h201.695v201.695q0 84.131-58.782 142.914-58.783 58.782-142.913 58.782Zm0-83.391q49.293 0 83.799-34.506 34.505-34.505 34.505-83.799v-118.304H737.523q-49.294 0-83.799 34.505-34.506 34.506-34.506 83.799 0 11.87 2.218 23.305 2.217 11.434 6.652 22.869l131.435-132 59.261 59.392-132.435 132.434q11.869 6 24.811 9.153 12.942 3.152 26.363 3.152Zm-3.87-118.435Z"/></svg>