<svg xmlns="http://www.w3.org/2000/svg" height="24" viewBox="0 -960 960 960" width="24"><path d="M400-440ZM31.87-71.87V-808.13h414.826v91.001H122.87v554.26h554.26v-243.826h91.001v334.827H31.869ZM201.434-240h80v-280h-80v280ZM360-240h80v-400h-80v400Zm158.565 0h80v-160h-80v160Zm208.848-246.696q-29.918 0-58.839-8.88-28.922-8.881-54.161-25.881l-43.761 41.479-56.434-56.435 44.239-44q-15.881-24-23.821-51-7.94-27-7.94-56 0-83.478 58.619-142.098 58.62-58.62 142.098-58.62h200.718v200.718q0 83.478-58.62 142.098-58.62 58.619-142.098 58.619Zm0-81.435q49.701 0 84.492-34.79 34.791-34.791 34.791-84.492v-119.283H727.413q-49.701 0-84.492 34.791-34.79 34.791-34.79 84.492 0 12.522 2.38 24.282 2.38 11.761 7.141 23.522l131.761-132 57.957 57.435-132.761 132.761q12.522 6 25.785 9.641 13.264 3.641 27.019 3.641Zm-4.522-118.76Z"/></svg>