<svg xmlns="http://www.w3.org/2000/svg" height="20" viewBox="0 -960 960 960" width="20"><path d="M384-432ZM28.782-76.782v-710.436h395.045v98.001H126.783v514.434h514.434v-249.044h98.001v347.045H28.782ZM195.39-240h72v-240h-72v240ZM348-240h72v-384h-72v384Zm152.609 0h72v-168h-72v168Zm188.74-255.827q-28.634 0-56.447-7.217-27.814-7.218-51.379-25.218l-48.435 47.131-52.392-52.392 47.566-48q-16.718-23-24.576-51-7.859-28-7.859-57 0-80.81 56.443-137.253 56.442-56.442 137.253-56.442h193.695v193.695q0 80.811-56.493 137.253-56.494 56.443-137.376 56.443Zm.174-75.391q49.293 0 83.799-34.506 34.505-34.505 34.505-83.799v-118.304H689.523q-49.294 0-83.799 34.505-34.506 34.506-34.506 83.799 0 12.87 3.218 26.305 3.217 13.434 9.652 25.869l117.435-117 52.261 53.392-116.435 117.434q11.869 8 25.14 10.153 13.271 2.152 27.034 2.152Zm-10.87-107.435Z"/></svg>