<svg xmlns="http://www.w3.org/2000/svg" height="20" viewBox="0 -960 960 960" width="20"><path d="M180-158q-49.7 0-83.85-34.108Q62-226.217 62-275.858v-126.809Q62-413 68.149-419.94q6.148-6.94 15.81-8.675Q105-434 119.5-447q14.5-13 14.5-33.5T119.5-514q-14.5-13-35.54-17.351-9.663-1.769-15.811-8.845Q62-547.271 62-557v-127.186q0-49.623 34.15-83.719Q130.3-802 180-802h600q49.7 0 83.85 34.108Q898-733.783 898-684.142v128.261q0 9.881-6.149 16.377-6.148 6.495-15.81 8.119Q855-527 840.5-514 826-501 826-480.5t14.5 33.5q14.5 13 35.541 18.351 9.662 1.616 15.81 8.078Q898-414.108 898-404v128.186q0 49.623-34.15 83.719Q829.7-158 780-158H180Zm0-118h600v-74q-31-20-51.5-54.377-20.5-34.378-20.5-76Q708-522 728.5-556q20.5-34 51.5-54v-74H180v74q33 20 52.5 54.148t19.5 75.5Q252-439 232.5-404.5 213-370 180-350v74Zm300.289-44Q498-320 511-332.789q13-12.79 13-30.5Q524-381 511.411-394q-12.59-13-31.2-13Q463-407 449.5-394.411q-13.5 12.59-13.5 31.2Q436-346 449.289-333q13.29 13 31 13Zm0-116Q498-436 511-449.289q13-13.29 13-31Q524-498 511.411-511q-12.59-13-31.2-13Q463-524 449.5-511.411q-13.5 12.59-13.5 31.2Q436-463 449.289-449.5q13.29 13.5 31 13.5Zm0-117Q498-553 511-566.289q13-13.29 13-31Q524-615 511.411-627.5q-12.59-12.5-31.2-12.5Q463-640 449.5-627.698T436-597.211Q436-580 449.289-566.5q13.29 13.5 31 13.5ZM480-480Z"/></svg>