<svg xmlns="http://www.w3.org/2000/svg" height="20" viewBox="0 -960 960 960" width="20"><path d="M200-244q-21.45 0-36.725-15.233Q148-274.467 148-295.858v-55.261q0-6.881 2.929-13.266 2.928-6.384 9.03-10.23Q188-393 204-419.543q16-26.542 16-60.5Q220-514 204-540.5t-44.041-44.851q-6.102-3.838-9.03-10.19Q148-601.892 148-609v-55.186q0-21.373 15.275-36.594Q178.55-716 200-716h560q21.45 0 36.725 15.233Q812-685.533 812-664.142v55.261q0 6.881-2.929 13.266-2.928 6.384-9.03 10.23Q772-567 756-540.457q-16 26.542-16 60.5Q740-446 756-419.5t44.041 44.851q6.102 3.838 9.03 10.19Q812-358.108 812-351v55.186q0 21.373-15.275 36.594Q781.45-244 760-244H200Zm0-20h560q14 0 23-9t9-23v-59q-32-19-52-52t-20-73q0-40 20-73t52-52v-59q0-14-9-23t-23-9H200q-14 0-23 9t-9 23v59q32 19 52 52t20 73q0 40-20 73t-52 52v59q0 14 9 23t23 9Zm279.825-84q4.175 0 7.175-2.825 3-2.824 3-7 0-4.175-2.825-7.175-2.824-3-7-3-4.175 0-7.175 2.825-3 2.824-3 7 0 4.175 2.825 7.175 2.824 3 7 3Zm0-122q4.175 0 7.175-2.825 3-2.824 3-7 0-4.175-2.825-7.175-2.824-3-7-3-4.175 0-7.175 2.825-3 2.824-3 7 0 4.175 2.825 7.175 2.824 3 7 3Zm0-122q4.175 0 7.175-2.825 3-2.824 3-7 0-4.175-2.825-7.175-2.824-3-7-3-4.175 0-7.175 2.825-3 2.824-3 7 0 4.175 2.825 7.175 2.824 3 7 3ZM480-480Z"/></svg>