<svg xmlns="http://www.w3.org/2000/svg" height="20" viewBox="0 -960 960 960" width="20"><path d="M174.783-172.782q-41.005 0-69.503-28.456-28.498-28.457-28.498-69.403v-124.397q0-10.136 6.27-17.27 6.27-7.133 16.124-8.917 21.475-6.254 35.54-21.645 14.066-15.391 14.066-37.413 0-22.021-14.066-37.412-14.065-15.392-35.54-21.047-9.854-1.799-16.124-8.994-6.27-7.196-6.27-17.09v-124.577q0-40.928 28.498-69.372 28.498-28.443 69.503-28.443h610.434q41.005 0 69.503 28.456 28.498 28.457 28.498 69.403v125.218q0 9.881-6.27 16.763-6.27 6.882-16.124 8.603-21.475 5.688-35.54 21.08-14.066 15.391-14.066 37.412 0 22.022 14.066 37.413 14.065 15.391 35.54 21.612 9.854 1.712 16.124 8.561t6.27 16.957v125.143q0 40.928-28.498 69.372-28.498 28.443-69.503 28.443H174.783Zm0-98.001h610.434v-81.391q-31.435-19.565-51.717-53.344-20.283-33.778-20.283-74.695 0-40.917 20.283-74.483 20.282-33.565 51.717-53.13v-81.391H174.783v81.391q32.565 19.565 52.283 53.214 19.717 33.649 19.717 74.413 0 40.764-19.717 74.612-19.718 33.848-52.283 53.413v81.391Zm305.289-45.739q16.624 0 28.537-11.703 11.913-11.702 11.913-28.326 0-16.623-11.59-28.537-11.589-11.913-28.721-11.913-16.341 0-28.537 11.59-12.196 11.589-12.196 28.722 0 16.341 11.985 28.254t28.609 11.913Zm0-122.956q16.624 0 28.537-11.985t11.913-28.609q0-16.624-11.59-28.537-11.589-11.913-28.721-11.913-16.341 0-28.537 11.59-12.196 11.589-12.196 28.721 0 16.341 11.985 28.537 11.985 12.196 28.609 12.196Zm0-123.521q16.624 0 28.537-11.985 11.913-11.986 11.913-28.609 0-16.624-11.59-28.255-11.589-11.63-28.721-11.63-16.341 0-28.537 11.427-12.196 11.427-12.196 28.319 0 16.341 11.985 28.537 11.985 12.196 28.609 12.196ZM480-480Z"/></svg>