<svg xmlns="http://www.w3.org/2000/svg" height="20" viewBox="0 -960 960 960" width="20"><path d="M233.239-420.913q-15.435 0-24.152-11.315-8.718-11.316-5-31.229 1-4.043 1.5-10.043.5-6 .5-12 0-35.761-20-73.663-20-37.902-20-71.337 0-8.478 1.239-17.978 1.239-9.5 5-18.979 4.239-9.956 13.815-16.293t21.25-6.337q15.152 0 23.131 10.815 7.978 10.815 5.739 31.968-.761 5.282-.761 16.804 0 30.717 20 69.761 20 39.043 20 75.239 0 11.761-1 21.5t-5.239 20.456q-5.239 11.957-15.055 17.294-9.815 5.337-20.967 5.337Zm263.587 0q-15.435 0-24.033-11.315-8.598-11.316-4.88-31.229 1-4.043 1.5-10.043.5-6 .5-12 0-36.239-20-73.783-20-37.543-20-71.217 0-8.478 1.119-17.978 1.12-9.5 4.881-18.979 4.239-9.956 13.815-16.293t21.25-6.337q14.913 0 23.131 10.935 8.217 10.934 5.978 31.848-.522 3.847-1 16.804 0 30.717 20 69.761 20 39.043 20 75.239 0 11.761-.381 21.5-.38 9.739-4.619 20.456-5.239 11.957-15.174 17.294-9.935 5.337-22.087 5.337Zm-132.913 0q-15.435 0-23.533-11.315-8.098-11.316-4.38-31.229 1-4.043 1.5-10.043.5-6 .5-12 0-36.239-20-73.783-20-37.543-20-71.217 0-8.478 1.239-17.978 1.239-9.5 5-18.979 4.239-9.956 13.815-16.293t21.25-6.337q15.152 0 23.131 10.815 7.978 10.815 5.739 31.968-.761 5.282-.761 16.804 0 30.717 20 69.761 20 39.043 20 75.239 0 11.761-1 21.5t-5.239 20.456q-5.239 11.957-15.674 17.294-10.435 5.337-21.587 5.337ZM390-74.5q-103.913 0-184.141-69.152-80.229-69.152-91.359-172.305-1.761-20.913 11.913-36.228Q140.087-367.5 162-367.5h409.978L615.5-772.478q5.239-48.152 40.793-80.587Q691.848-885.5 742-885.5q53.391 0 90.446 37.054Q869.5-811.391 869.5-758l-2 19.478q-2.239 20.152-17.272 32.826-15.032 12.674-35.185 10.196-19.152-2.239-31.347-17.033-12.196-14.793-10.196-33.945l1-11.522q0-13.848-9.326-23.174Q755.848-790.5 742-790.5q-12.848 0-21.793 8.446-8.946 8.445-10.707 20.532l-46 433q-11.239 107.913-88.293 180.968Q498.152-74.5 390-74.5Z"/></svg>