<svg xmlns="http://www.w3.org/2000/svg" height="20" viewBox="0 -960 960 960" width="20"><path d="M218.564-423.522q-17.392 0-27.087-13.109-9.696-13.109-5-35.631 1-2.739 1.5-8.739.5-6 .5-12 0-35.434-20-72.521t-20-72.479q0-9.13 1.565-18.63 1.565-9.5 5-19.631 4.565-11.261 15.609-18.739 11.043-7.478 25-7.478 18.087 0 26.718 12.609 8.63 12.608 6.065 36.696-.435 4.304-.435 15.173 0 31.696 20 69.435 20 37.739 20 75.565 0 11.435-1 21.5-1 10.066-5.565 21.761-5.565 13.261-17.174 19.74-11.609 6.478-25.696 6.478Zm268.479 0q-17.392 0-26.805-13.109t-4.717-35.631q1-2.739 1.5-8.739.5-6 .5-12 0-36.565-20-72.804-20-36.239-20-72.196 0-9.13 1.282-18.63 1.283-9.5 4.718-19.631 4.565-11.261 15.608-18.739 11.044-7.478 25.001-7.478 17.522 0 26.718 12.891 9.195 12.892 6.63 36.414.131.912-1 15.173 0 31.696 20 69.435 20 37.739 20 75.565 0 11.435-.217 21.5-.218 10.066-4.783 21.761-5.565 13.261-17.457 19.74-11.891 6.478-26.978 6.478Zm-135.522 0q-17.392 0-26.305-13.109t-4.217-35.631q1-2.739 1.5-8.739.5-6 .5-12 0-36.565-20-72.804-20-36.239-20-72.196 0-9.13 1.565-18.63 1.565-9.5 5-19.631 4.565-11.261 15.609-18.739 11.043-7.478 25-7.478 18.087 0 26.718 12.609 8.63 12.608 6.065 36.696-.435 4.304-.435 15.173 0 31.696 20 69.435 20 37.739 20 75.565 0 11.435-1 21.5-1 10.066-5.565 21.761-5.565 13.261-17.957 19.74-12.391 6.478-26.478 6.478ZM390-66.999q-106.522 0-191.153-72.088-84.631-72.087-91.848-178.174-1.434-23.522 14.522-40.631 15.957-17.109 40.479-17.109h403.13l42.869-398.129q5.566-51.088 43.24-85.479 37.674-34.392 90.761-34.392 56.652 0 95.827 39.174 39.174 39.175 39.174 95.827l-2 20.13q-2.566 23.088-20.37 38.044-17.805 14.957-40.892 11.827-22.087-2.566-35.913-19.805-13.827-17.239-11.827-39.326l1-10.87q0-10.913-7.043-17.956-7.043-7.043-17.956-7.043-9.913 0-16.739 6.326-6.826 6.325-8.26 15.803l-46 433q-11.566 110.522-90.74 185.697Q501.087-66.999 390-66.999Z"/></svg>