<svg xmlns="http://www.w3.org/2000/svg" height="20" viewBox="0 -960 960 960" width="20"><path d="M287.719-279.869q-83.093 0-141.471-58.599-58.379-58.599-58.379-141.74 0-83.14 58.566-141.531 58.566-58.392 141.659-58.392h384.187q83.093 0 141.471 58.599 58.379 58.599 58.379 141.74 0 83.14-58.566 141.531-58.566 58.392-141.659 58.392H287.719ZM288-362.87h384q48.804 0 82.967-34.163T789.13-480q0-48.804-34.163-82.967T672-597.13H288q-48.804 0-82.967 34.163T170.87-480q0 48.804 34.163 82.967T288-362.87Zm40-29.847 135.565-134.566-41-41-94.994 94.566-38.571-40-40 41 79 80ZM480-480Z"/></svg>