<svg xmlns="http://www.w3.org/2000/svg" height="24" viewBox="0 -960 960 960" width="24"><path d="M481.522-154.261q-135.435 0-231.229-94.195Q154.5-342.652 154.5-477.37v-7.239l-60.413 60.413-58.391-58.63L200-647.37l164.304 164.544-58.391 58.63-60.413-60.413v6.522q0 96.891 68.826 164.859 68.826 67.967 167.196 67.967 26.717 0 52.315-6.359 25.598-6.358 50.076-19.076l67.413 67.174q-39.674 24.392-82.304 36.826-42.631 12.435-87.5 12.435Zm278.717-158.13L595.696-476.696l58.63-58.63 60.413 60.413v-6.522q0-96.891-68.946-164.858-68.945-67.968-167.315-67.968-26.717 0-52.315 6.359t-50.076 19.076l-67.174-67.413q39.674-24.391 82.185-36.707 42.511-12.315 87.38-12.315 135.435 0 231.348 94.196 95.913 94.195 95.913 228.913v7.239l60.174-60.413 58.631 58.63-164.305 164.305Z"/></svg>