<svg xmlns="http://www.w3.org/2000/svg" height="20" viewBox="0 -960 960 960" width="20"><path d="M479.522-186.261q-121.435 0-208.729-86.195Q183.5-358.652 186.5-483.37v-.239l-53.413 53.413-53.391-53.63L228-632.37l148.304 148.544-53.391 53.63-53.413-53.413v-.478q-2 90.891 60.326 152.859 62.326 61.967 149.696 61.967 22.717 0 43.315-4.359 20.598-4.358 40.076-13.076l60.413 60.174q-31.674 18.392-67.804 29.326-36.131 10.935-76 10.935Zm252.717-141.13L583.696-475.696l53.63-53.63 53.413 53.413v.478q2-90.891-60.446-152.858-62.445-61.968-149.815-61.968-21.717 0-42.815 4.359t-40.576 13.076l-60.174-60.413q31.674-18.391 68.185-29.207 36.511-10.815 75.38-10.815 122.435 0 209.348 86.196 86.913 86.195 83.913 210.913v.239l53.174-53.413 53.631 53.63-148.305 148.305Z"/></svg>