<svg xmlns="http://www.w3.org/2000/svg" height="24" viewBox="0 -960 960 960" width="24"><path d="M779.385-153.846 528.923-404.307q-30 25.538-69 39.538-39 14-78.385 14-95.923 0-162.577-66.654T152.307-580q0-95.923 66.654-162.577t162.577-66.654q95.924 0 162.577 66.654Q610.769-675.923 610.769-580q0 41.692-14.769 80.692-14.769 39-38.769 66.693l250.462 250.461-28.308 28.308ZM381.538-390.769q79.616 0 134.423-54.808Q570.769-500.385 570.769-580q0-79.615-54.808-134.423-54.807-54.808-134.423-54.808-79.615 0-134.423 54.808Q192.308-659.615 192.308-580q0 79.615 54.807 134.423 54.808 54.808 134.423 54.808Zm-56.923-103.077 20.77-68.769-58.462-47.077h71.846L381.538-680l22.77 70.308h71.846l-58.462 47.077 20.77 68.769-56.924-43.539-56.923 43.539Z"/></svg>