<svg xmlns="http://www.w3.org/2000/svg" height="20" viewBox="0 -960 960 960" width="20"><path d="M760.385-177.846 522.923-415.307q-30 23.538-65.792 36.038-35.792 12.5-71.558 12.5-86.958 0-148.112-61.154Q176.307-489.077 176.307-576t61.154-148.077q61.154-61.154 148.077-61.154 86.924 0 148.077 61.154 61.154 61.154 61.154 148.112 0 38.073-13.269 73.865-13.269 35.792-35.269 63.485l237.462 237.461-23.308 23.308ZM385.538-398.769q74.616 0 125.923-51.308Q562.769-501.385 562.769-576q0-74.615-51.308-125.923-51.307-51.308-125.923-51.308-74.615 0-125.923 51.308Q208.308-650.615 208.308-576q0 74.615 51.307 125.923 51.308 51.308 125.923 51.308Zm-50.923-103.077 18.77-61.769-52.462-42.077h64.846L385.538-668l19.77 62.308h64.846l-52.462 42.077 18.77 61.769-50.924-37.539-50.923 37.539Z"/></svg>