<svg xmlns="http://www.w3.org/2000/svg" height="24" viewBox="0 -960 960 960" width="24"><path d="M793.782-240v-320h96.958v320h-96.958Zm48.479 171.305q-21.522 0-36.413-14.892Q790.956-98.478 790.956-120t14.892-36.413q14.891-14.892 36.413-14.892t36.413 14.892q14.892 14.891 14.892 36.413t-14.892 36.413q-14.891 14.892-36.413 14.892ZM481.696-23.13 23.694-480.565 481.13-937.436l241.131 238.304v180.741l-240-239.435L203.87-480l278.391 277.826 240-239.435v179.61L481.696-23.129Zm.565-282.001L306.826-480l175.435-174.87L657.13-480 482.261-305.13Z"/></svg>