<svg xmlns="http://www.w3.org/2000/svg" height="20" viewBox="0 -960 960 960" width="20"><path d="M276.496-730q-25.896 0-41.196-15.3-15.3-15.3-15.3-41.196 0-24.895 15.3-40.2Q250.6-842 276.496-842q24.895 0 40.2 15.304Q332-811.391 332-786.496q0 25.896-15.304 41.196-15.305 15.3-40.2 15.3ZM208-148v-216h-33.789q-10.961 0-18.586-7.475Q148-378.95 148-390v-208q0-21.45 15.125-36.725Q178.25-650 200-650h152q21.45 0 36.725 15.275Q404-619.45 404-598v120q-37 31-64 82t-27 108q0 30 1.5 56.5T319-191v69h-85q-11.05 0-18.525-7.475Q208-136.95 208-148Zm345.774 28Q486-120 436-170.16T386-288q0-45 17-85.5t63-60.5v26q-36 21-48 50.586T406-288q0 63 42.5 105.5T554-140q53 0 97-36t50-97h20q-9 71-56.074 112-47.073 41-111.152 41ZM841-235l-74-113q-5-7-11.5-10.5T741-362H606q-21.45 0-36.725-15.251Q554-392.503 554-413.919v-173.798q0-4.233 2.825-7.258 2.824-3.025 7-3.025 4.175 0 7.175 2.875t3 7.125v174q0 14 9 23t23 9h134q12.836 0 24.388 6.069Q775.94-369.861 783-359l75 112q2 4 1.833 8.354-.166 4.353-3.333 6.646-3.5 2-8.354.95-4.853-1.05-7.146-3.95Z"/></svg>