<svg xmlns="http://www.w3.org/2000/svg" height="24" viewBox="0 -960 960 960" width="24"><path d="M304.615-80Q277-80 258.5-98.5 240-117 240-144.615v-670.77Q240-843 258.5-861.5 277-880 304.615-880h258.462v40H304.615q-9.23 0-16.923 7.692Q280-824.615 280-815.385V-780h283.077v40H280v520h400v-80h40v155.385Q720-117 701.5-98.5 683-80 655.385-80h-350.77ZM700-505.077V-800q0-8.539 5.731-14.269Q711.461-820 720-820t14.269 5.731Q740-808.539 740-800v294.923l109.846-109.846q5.615-5.616 13.769-6 8.154-.385 14.539 6 6.385 6.384 6.385 14.154 0 7.769-6.385 14.154L742.615-451.077q-9.692 9.693-22.615 9.693-12.923 0-22.615-9.693L561.846-586.615q-5.615-5.616-6-13.77-.385-8.154 6-14.538 6.385-6.385 14.154-6.385t14.154 6.385L700-505.077ZM563.077-780H280v-35.385q0-9.23 7.692-16.923Q295.385-840 304.615-840h258.462v60Z"/></svg>