<svg xmlns="http://www.w3.org/2000/svg" height="20" viewBox="0 -960 960 960" width="20"><path d="M376-110q-24 0-45-8t-39-26L145-291q-18-18-26.5-39.5T110-375v-209q0-23 8.5-44.5T145-668l13-13-92-91q-14-14-14-30.5T65-832q14-14 31-14t31 14l707 707q14 14 13.5 30T833-65q-14 14-30 14t-30-14l-92-91-14 12q-17 16-38 25t-44 9H376Zm104-167q21 0 35.5-19t14.5-40q0-21-14.5-32T480-379q-21 0-36 15t-15 36q0 21 15 36t36 15Zm322-2L524-557v-89q0-18-13-31t-31-13q-15 0-27 9.5T437-657v13L279-802l13-13q18-18 39.5-26.5T376-850h208q23 0 45 8.5t39 26.5l147 147q18 17 26.5 39t8.5 45v210q0 23-9.5 44.5T814-290l-12 11Z"/></svg>