<svg xmlns="http://www.w3.org/2000/svg" height="24" viewBox="0 -960 960 960" width="24"><path d="m811.218-274.087-75.522-74.087 17.521-18.652v-226.371l-160.02-160.02H366.826l-18.652 17.521-74.087-75.522 17.086-17.087q14.957-14.957 34.192-22.935 19.236-7.978 40.461-7.978h228.348q21.225 0 40.461 7.978 19.235 7.978 34.192 22.935l159.478 159.478q14.957 14.957 22.935 34.192 7.978 19.236 7.978 40.461v227.913q0 21.344-7.761 40.02-7.761 18.676-22.152 33.633l-18.087 18.521ZM524.522-559.913v-85.739q0-18.922-12.8-31.722T480-690.174q-17 0-29.348 10.934-12.348 10.935-14.609 27.935v3.478l88.479 87.914ZM365.826-100.782q-21.652 0-40.674-8.195-19.022-8.196-33.979-23.153L131.695-292.608q-14.957-14.957-22.935-34.192-7.978-19.236-7.978-40.461v-226.913q0-21.225 7.978-40.461 7.978-19.235 22.935-34.192l17.087-17.086L46.956-789.174Q34.26-801.87 34.043-819.783q-.217-17.913 12.913-31.043 12.696-12.696 31.109-12.696 18.413 0 31.109 12.696l742.217 742.217q12.696 12.696 12.414 30.827-.283 18.13-12.979 30.826Q838.13-34.26 820-34.26q-18.13 0-30.826-12.696l-103.261-103.26-16.651 17.086q-14.957 15.392-34.467 23.87-19.51 8.478-41.621 8.478H365.826Zm176.392-441.436ZM366.803-206.783h226.371l17.521-17.521-386.391-386.391-17.521 17.521v226.371l160.02 160.02ZM480-266.999q-20.603 0-34.541-13.938-13.938-13.938-13.938-34.541 0-20.603 13.938-34.541 13.938-13.938 34.541-13.938 20.603 0 34.541 13.938 13.938 13.938 13.938 34.541 0 20.603-13.938 34.541-13.938 13.938-34.541 13.938Zm-62.783-150.783Z"/></svg>