<svg xmlns="http://www.w3.org/2000/svg" height="20" viewBox="0 -960 960 960" width="20"><path d="m732-327-14-17 26-26v-219.111L589-744H371l-27 27-15-13 18-18q8-8 17.889-12T385-764h190q10.222 0 20.111 4Q605-756 613-748l135 135q8 8 12 17.889T764-575v194q0 9-3.5 18.5T749-345.289L732-327ZM490-572v-70q0-4.3-2.789-7.15-2.79-2.85-7-2.85-4.211 0-7.211 2.85t-3 7.15v50l20 20ZM385-196q-10.222 0-20.111-3.5Q355-203 347-211L212-345q-8-8-12-17.889T196-383v-192q0-10.222 4-20.111Q204-605 212-613l54-54-126.179-124.352Q136-795 135.5-798q-.5-3 3.5-7 5-5 7.5-5t7.5 5l652 652q4 4 4.5 6.5T806-139q-5 5-7 5t-6.736-4.648L667-263l-55 53q-6.659 6.08-16.329 10.04Q586-196 577-196H385Zm143-332ZM371-216h218l63-62-374-374-62 63v218.525L371-216Zm108.912-114Q474-330 469-334.789q-5-4.79-5-11Q464-352 468.789-357q4.79-5 11-5 6.211 0 10.711 1t4.5 7q0 6-4.588 15-4.587 9-10.5 9ZM462-463Z"/></svg>