<svg xmlns="http://www.w3.org/2000/svg" height="24" viewBox="0 -960 960 960" width="24"><path d="m394.539-712.307-38.924-38.924q.462-5.461.924-11.577.461-6.115 2.923-12.577-5.539 1.923-10.077 4.077-4.539 2.154-9.077 4.77l-29.539-29.77q13.615-8.308 27.116-13.846 13.5-5.539 29.346-9.231 19.769-6.308 30.462 4.769 10.692 11.077 5.077 33.847-5.231 17.307-7.039 34.615-1.808 17.308-1.192 33.847Zm429.23 599.076-102.231-102.23q-48 47.384-111.461 71.423Q546.615-120 480-120q-79.154 0-144.846-26.884-65.693-26.885-113.539-74.347-47.846-47.461-74.346-113.538-26.5-66.077-26.5-145.231 0-68.692 23.538-129.192 23.539-60.5 70.154-113.116L94.769-842.23q-6.385-6.385-6.385-14.039t6.385-14.269q6.616-6.616 14.269-6.616 7.654 0 14.27 6.616l728.999 729q5.847 5.846 6.116 13.769.269 7.923-6.346 14.538-6.616 6.385-14.154 6.5-7.539.116-14.154-6.5ZM480-160q57.846 0 113.077-20.346 55.23-20.346 100.461-63.115L245-692q-37.923 41.385-61.077 95.731Q160.769-541.923 160.769-480q0 141.461 89.269 230.731Q339.308-160 480-160Zm-69.385-366.384Zm-55-224.847Z"/></svg>