<svg xmlns="http://www.w3.org/2000/svg" height="20" viewBox="0 -960 960 960" width="20"><path d="M464-675 356-782q-1 5-1.5 11.206-.5 6.206-1.5 11.794 5-1 8-3.5t9-6.5l-93-92q32-18 70.5-29t77.5-16q44-7 63 22t4 75q-12 36-20 71t-8 63ZM861-20 745-136q-52 44-124 68.5T477-43q-93 0-173-33t-138-91.5Q108-226 75-306T42-480q0-69 21.5-135.5T134-748l-88-87q-15-14.5-15-34.75T45.59-904q14.642-14 35.026-14Q101-918 115-904L930-89q14 14 14.5 34.5T931-20Q917-5 896-5.5T861-20ZM477-173q44 0 91-13t87-40L227-654q-31 42-43 85.5T172-480q0 135 85.5 221T477-173Zm-93-324Zm-28-286Z"/></svg>