<svg xmlns="http://www.w3.org/2000/svg" height="24" viewBox="0 -960 960 960" width="24"><path d="M467-634 354-746q0-4 .5-7.5t1.5-8.5q-3 2-6 2.5t-6 2.5l-90-90q42-27 87.5-41t93.5-19q40-5 57.5 21t2.5 68q-17 47-25 95t-3 89ZM807-46l-79-80q-49 38-114 60.5T477-43q-93 0-173-33t-138-91.5Q108-226 75-306T42-480q0-69 20.5-131.5T123-731l-77-76q-14-14-14-33.5T46-874q14-14 33.5-14t33.5 14l761 761q14 14 14 33.5T874-46q-14 14-33.5 14T807-46ZM477-169q44 0 85-12t77-34L215-639q-23 35-35 74.5T168-480q0 135 87.5 223T477-169ZM371-483Zm-17-264Z"/></svg>