<svg xmlns="http://www.w3.org/2000/svg" height="20" viewBox="0 -960 960 960" width="20"><path d="M453.566-673.261 279.609-846.653q30.695-17.565 66.152-28.565t71.848-16.435q39.218-6.565 56.262 18.957 17.043 25.522 3.782 67.174-11.565 35.131-18.043 68.826-6.479 33.696-6.044 63.435Zm388.305 636.74L732.827-145.13q-51.565 41.392-119.218 63.718-67.652 22.326-135.305 22.326-88.652 0-165.609-32.348-76.957-32.348-133.218-88.891-56.261-56.544-88.609-133.501Q58.521-390.782 58.521-480q0-65.522 19.978-128.979 19.978-63.456 65.5-125.544l-81.478-81.348q-13.696-13.696-13.696-32.391 0-18.696 13.696-31.827 13.13-13.13 32.326-13.13 19.196 0 32.326 13.13l779.35 779.351q13.131 13.13 13.413 32.109.283 18.978-12.847 32.108-13.131 13.696-32.609 13.413-19.479-.282-32.609-13.413Z"/></svg>