<svg xmlns="http://www.w3.org/2000/svg" height="24" viewBox="0 -960 960 960" width="24"><path d="m418.767-671.157-60.46-60.46q1.231-11.23 2.462-22.537 1.231-11.308 4.461-23.538-9.769 3.461-18.537 7.538-8.769 4.077-17.538 9.384l-43.769-44.383q26.307-17.153 52.306-26.922 25.999-9.769 54.922-14.615 24.384-5.154 36.23 9.384 11.846 14.538 3.538 41.922-10.615 31.153-13.768 62.306-3.154 31.153.153 61.921Zm374.62 572.54-82.617-82.616q-48 39.693-107.231 60.462-59.231 20.77-123.539 20.77-81.077 0-150.423-29.193-69.346-29.192-120.268-79.922-50.923-50.731-79.923-120.269-29-69.538-29-150.615 0-64.846 20.27-122.847 20.269-58 59.577-108.308l-90.848-91.463q-8.692-8.692-8.692-20.769 0-12.077 8.692-21.384 9.307-9.308 21.384-9.308t21.384 9.308l704.002 704.002q8.923 8.923 8.808 20.884-.116 11.961-9.423 21.269-9.308 8.692-21.077 9-11.769.307-21.076-9ZM480-160q50.924 0 99.039-15.923 48.116-15.924 88.732-48.309l-442.77-442.77q-29.462 38.693-47.039 86.116Q160.385-533.462 160.385-480q0 137.231 91.384 228.616Q343.154-160 480-160Zm-91.691-343.694Zm-30.002-227.923Z"/></svg>