<svg xmlns="http://www.w3.org/2000/svg" height="24" viewBox="0 -960 960 960" width="24"><path d="m456.566-632.261-99.523-98.957q.87-9.652 2.022-18.804 1.152-9.152 3.456-19.804-7.782 3.305-15.13 6.196-7.347 2.891-14.695 7.5l-76.087-76.523q40.695-26.565 83.152-40.565 42.457-14 87.848-19.435 35.218-4.565 50.762 17.957 15.543 22.522 2.282 60.174-16.565 46.131-23.043 92.826-6.479 46.696-1.044 89.435Zm331.305 569.74-72.044-72.609q-48.565 35.392-109.218 55.718-60.652 20.326-128.305 20.326-88.652 0-165.609-32.348-76.957-32.348-133.218-88.891-56.261-56.544-88.609-133.501Q58.521-390.782 58.521-480q0-65.522 18.978-124.979 18.978-59.456 55.5-112.544l-70.478-70.348q-12.696-12.696-12.696-30.891 0-18.196 12.696-31.327 13.13-13.13 31.326-13.13 18.196 0 31.326 13.13l725.35 725.351q13.131 13.13 12.913 31.109-.217 17.978-13.347 31.108-13.131 12.696-31.109 12.913-17.979.218-31.109-12.913ZM478.304-165.087q44 0 85-11.783 41-11.782 77-33.782L210.652-640.304q-22.13 35.434-34.13 75.369-12 39.935-12 84.935 0 134.13 90.108 224.522 90.109 90.391 223.674 90.391ZM368.826-482.13Zm-11.783-249.654Z"/></svg>