<svg xmlns="http://www.w3.org/2000/svg" height="24" viewBox="0 -960 960 960" width="24"><path d="M520-400H400q-17 0-28.5 11.5T360-360q0 17 11.5 28.5T400-320h40q0 17 11.5 28.5T480-280q16 0 22.5-14.5T520-320h40q17 0 28.5-11.5T600-360v-120q0-17-11.5-28.5T560-520H440v-40h120q17 0 28.5-11.5T600-600q0-17-11.5-28.5T560-640h-40q0-17-11.5-28.5T480-680q-16 0-22.5 14.5T440-640h-40q-17 0-28.5 11.5T360-600v120q0 17 11.5 28.5T400-440h120v40ZM166.783-140.782q-44.305 0-75.153-30.848-30.848-30.848-30.848-75.153v-466.434q0-44.305 30.848-75.153 30.848-30.848 75.153-30.848h626.434q44.305 0 75.153 30.848 30.848 30.848 30.848 75.153v466.434q0 44.305-30.848 75.153-30.848 30.848-75.153 30.848H166.783Z"/></svg>