<svg xmlns="http://www.w3.org/2000/svg" height="20" viewBox="0 -960 960 960" width="20"><path d="M240.13-84.695v-166.392q2.826-1.13-21.391-14.978-24.218-13.848-53.783-44.913-29.565-31.065-54.913-84.196Q84.695-448.304 84.695-528q0-150.652 113.609-248.979Q311.913-875.305 480-875.305q168.087 0 281.696 98.326Q875.305-678.652 875.305-528q0 79.696-25.348 132.826-25.348 53.131-54.913 84.196-29.565 31.065-53.783 44.913-24.217 13.848-21.391 14.978v166.392H240.13Zm98.001-86.696h13.39v86.696h77.653v-86.696h101.652v86.696h77.653v-86.696h13.39v-139.566q-.565-3.391 23.935-11.456 24.5-8.066 53.5-30.718t53.5-64.174q24.5-41.521 24.5-110.695 0-107.782-85.044-178.543-85.043-70.761-212.26-70.761-127.217 0-212.26 70.761Q182.696-635.782 182.696-528q0 69.174 24 110.695 24 41.522 53.5 64.174 29.5 22.652 53.718 30.718 24.217 8.065 24.217 11.456v139.566Zm70.564-143.13h142.61L480-457.13l-71.305 142.609ZM336-450.348q32.826 0 55.239-22.695 22.413-22.696 22.413-54.957 0-32.826-22.413-55.239-22.413-22.413-55.239-22.413-32.261 0-54.957 22.413-22.695 22.413-22.695 55.239 0 32.261 22.695 54.957 22.696 22.695 54.957 22.695Zm288 0q32.826 0 55.239-22.695 22.413-22.696 22.413-54.957 0-32.826-22.413-55.239-22.413-22.413-55.239-22.413-32.261 0-54.957 22.413-22.695 22.413-22.695 55.239 0 32.261 22.695 54.957 22.696 22.695 54.957 22.695ZM338.131-171.391v-139.566q0-3.391-24.217-11.456-24.218-8.066-53.718-30.718-29.5-22.652-53.5-64.174-24-41.521-24-110.695 0-107.782 85.044-178.543 85.043-70.761 212.26-70.761 127.217 0 212.26 70.761Q777.304-635.782 777.304-528q0 69.174-24.5 110.695-24.5 41.522-53.5 64.174-29 22.652-53.5 30.718-24.5 8.065-23.935 11.456v139.566H338.131Z"/></svg>