<svg xmlns="http://www.w3.org/2000/svg" height="24" viewBox="0 -960 960 960" width="24"><path d="M219-60v-176q-34-19-63-49t-50.5-67Q84-389 72-432t-12-87.73Q60-688 177.639-794q117.639-106 302.5-106T782.5-794Q900-688 900-519.73 900-475 888-432q-12 43-33.5 80T804-285q-29 30-63 49v176H219Zm126-126h30v-80h90v80h30v-80h90v80h30v-123q37-15 66.5-37t50-49.5q20.5-27.5 31.5-59t11-65.5q0-114-81.309-184-81.31-70-212.691-70t-212.691 70Q186-634 186-520q0 34 11 65.5t31.5 59q20.5 27.5 50 49.5t66.5 37v123Zm55-136h160l-80-160-80 160Zm-60-108q38 0 64-26.438 26-26.437 26-63.562 0-38-26-64t-63.5-26q-37.5 0-64 26T250-520.5q0 37.5 26.438 64Q302.875-430 340-430Zm280 0q38 0 64-26.438 26-26.437 26-63.562 0-38-26-64t-63.5-26q-37.5 0-64 26T530-520.5q0 37.5 26.438 64Q582.875-430 620-430ZM480-186Z"/></svg>