<svg xmlns="http://www.w3.org/2000/svg" height="20" viewBox="0 -960 960 960" width="20"><path d="M252-96v-163l-24.5-13Q203-285 174-315.5T120.5-398Q96-450 96-528q0-145 110.5-240.5T480-864q163 0 273.5 95.5T864-528q0 78-24.5 130T786-315.5Q757-285 732.5-272L708-259v163H252Zm72-72h36v72h72v-72h96v72h72v-72h36v-139l24.5-7.5q24.5-7.5 53.5-31t53.5-67Q792-456 792-528q0-114-89-189t-223-75q-134 0-223 75t-89 189q0 72 24 115.5t53.5 67q29.5 23.5 54 31L324-307v139Zm96-168h120l-60-120-60 120Zm-84-120q30 0 51-21t21-51q0-30-21-51t-51-21q-30 0-51 21t-21 51q0 30 21 51t51 21Zm288 0q30 0 51-21t21-51q0-30-21-51t-51-21q-30 0-51 21t-21 51q0 30 21 51t51 21ZM324-168v-139l-24.5-7.5q-24.5-7.5-54-31t-53.5-67Q168-456 168-528q0-114 89-189t223-75q134 0 223 75t89 189q0 72-24.5 115.5t-53.5 67q-29 23.5-53.5 31L636-307v139H324Z"/></svg>