<svg xmlns="http://www.w3.org/2000/svg" height="24" viewBox="0 -960 960 960" width="24"><path d="M219-60v-176q-34-19-63-49t-50.5-67Q84-389 72-432t-12-88q0-168 117.5-274T480-900q185 0 302.5 106T900-520q0 45-12 88t-33.5 80Q833-315 804-285t-63 49v176H219Zm126-106v106h90v-106h90v106h90v-249q37-15 66.5-37t50-49.5q20.5-27.5 31.5-59t11-65.5q0-114-81.5-184T480-774q-131 0-212.5 70T186-520q0 34 11 65.5t31.5 59q20.5 27.5 50 49.5t66.5 37v143Zm55-126h160l-80-160-80 160Zm-60-138q38 0 64-26.5t26-63.5q0-38-26-64t-64-26q-37 0-63.5 26T250-520q0 37 26.5 63.5T340-430Zm280 0q38 0 64-26.5t26-63.5q0-38-26-64t-64-26q-37 0-63.5 26T530-520q0 37 26.5 63.5T620-430ZM345-166v-143q-37-15-66.5-37t-50-49.5Q208-423 197-454.5T186-520q0-114 81.5-184T480-774q131 0 212.5 70T774-520q0 34-11 65.5t-31.5 59Q711-368 681.5-346T615-309v143H345Z"/></svg>