<svg xmlns="http://www.w3.org/2000/svg" height="24" viewBox="0 -960 960 960" width="24"><path d="M675.566-27.78 515.478-187.87l74.088-74.088 85 85 170-170.565 74.088 75.653L675.566-27.781ZM316.914-247.782l-74.088-74.088 64-64-64-64 74.088-74.088 64 64 64-64 74.088 74.088-64 64 64 64-74.088 74.088-64-64-64 64Zm-216.132 187v-758.437h139.331v-80h92.888v80h293.998v-80h92.888v80h139.331v343.044L753.217-368.608V-560H206.783v393.217h216.65L528.435-60.782H100.782ZM206.783-640h546.434v-73.217H206.783V-640Zm0 0v-73.217V-640Z"/></svg>