<svg xmlns="http://www.w3.org/2000/svg" height="20" viewBox="0 -960 960 960" width="20"><path d="M699.999-116.001H116.001v-323.768l354.692-289.999 51.384 50.922-86.539 164.693h312.461v51.999H524.001v63.385h319.998v51.999H524.001v63.386h271.998v51.998H524.001V-168h175.998v51.999Zm-22.653-483.614q-34.115 0-60.037-27.959-25.923-27.958-25.923-64.65 0-32.929 20.192-73.275 20.192-40.346 65.807-96.73 45.615 56.384 65.807 96.647 20.192 40.262 20.192 72.939 0 37.111-25.961 65.069-25.962 27.959-60.077 27.959Z"/></svg>