<svg xmlns="http://www.w3.org/2000/svg" height="24" viewBox="0 -960 960 960" width="24"><path d="M705.5-648.131q-40.196 0-71.293-31.217-31.098-31.217-31.098-71.413 0-34.93 23.358-77.346 23.359-42.415 79.033-101.458 55.674 59.043 79.152 101.458 23.479 42.416 23.479 77.346 0 40.196-31.218 71.413-31.217 31.217-71.413 31.217Zm62.391 576.262H71.869v-457.262l388.587-252.391 73.37 67.87-72.261 124.087h346.326v86.217H314.218l74.608-127.826-230.739 148.152v324.935h609.804v86.218ZM471.869-359.522v-86.217h416.022v86.217H471.869Zm0 143.826v-86.217h376.262v86.217H471.869ZM314.978-342.239Z"/></svg>