<svg xmlns="http://www.w3.org/2000/svg" height="20" viewBox="0 -960 960 960" width="20"><path d="M677.5-608.131q-39.196 0-68.793-31.717-29.598-31.717-29.598-73.494 0-36.349 22.858-80.265 22.859-43.915 75.533-103.958 52.674 60.043 75.652 103.875 22.979 43.832 22.979 79.929 0 42.196-29.718 73.913-29.717 31.717-68.913 31.717Zm50.391 520.262H87.869v-369.262l365.587-297.391 74.37 66.87-74.261 150.087h322.326v78.217H330.218l78.608-156.826-242.739 196.152v253.935h561.804v78.218ZM495.869-335.522v-78.217h376.022v78.217H495.869Zm0 123.826v-78.217h328.262v78.217H495.869ZM330.978-328.239Z"/></svg>