<svg xmlns="http://www.w3.org/2000/svg" height="24" viewBox="0 -960 960 960" width="24"><path d="M425-63v-25q-128-15-224.5-112.5T90-423H65q-23.375 0-39.188-15.812Q10-454.625 10-478t15.813-39.188Q41.624-533 65-533h25q15-128 112.5-224.5T425-868v-25q0-23.375 15.812-39.188Q456.625-948 480-948t39.188 15.812Q535-916.375 535-893v25q125 14 222.5 110.5T870-533h25q23.375 0 39.188 15.812Q950-501.375 950-478t-15.812 39.188Q918.375-423 895-423h-25q-14 125-110.5 222.5T535-88v25q0 23.375-15.812 39.188Q503.375-8 480-8t-39.188-15.813Q425-39.624 425-63Zm55-147q112 0 190-78t78-190q0-112-78-190t-190-78q-112 0-190 78t-78 190q0 112 78 190t190 78Z"/></svg>