<svg xmlns="http://www.w3.org/2000/svg" height="20" viewBox="0 -960 960 960" width="20"><path d="M470-136v-60q-119-9-192-82t-82-192h-60q-4.25 0-7.125-2.825-2.875-2.824-2.875-7 0-4.175 2.875-7.175t7.125-3h60q9-119 82-192.5T470-764v-60q0-4.25 2.825-7.125 2.824-2.875 7-2.875 4.175 0 7.175 2.875t3 7.125v60q119 8 192 81.5T764-490h60q4.25 0 7.125 2.825 2.875 2.824 2.875 7 0 4.175-2.875 7.175T824-470h-60q-9 119-82 192t-192 82v60q0 4.25-2.825 7.125-2.824 2.875-7 2.875-4.175 0-7.175-2.875T470-136Zm10-80q110 0 187-77t77-187q0-110-77-187t-187-77q-110 0-187 77t-77 187q0 110 77 187t187 77Z"/></svg>