<svg xmlns="http://www.w3.org/2000/svg" height="20" viewBox="0 -960 960 960" width="20"><path d="M371.96-312h215.757Q603-312 613.5-322.289q10.5-10.29 10.5-25.5Q624-363 613.662-373.5 603.323-384 588.04-384H372.283Q357-384 346.5-373.711q-10.5 10.29-10.5 25.5Q336-333 346.338-322.5 356.677-312 371.96-312ZM216-432h72v-72h-72v72Zm114 0h72v-72h-72v72Zm114 0h72v-72h-72v72Zm114 0h72v-72h-72v72Zm114 0h72v-72h-72v72ZM168-192q-29.7 0-50.85-21.162Q96-234.324 96-264.04v-432.243Q96-726 117.15-747T168-768h624q29.7 0 50.85 21.162Q864-725.676 864-695.96v432.243Q864-234 842.85-213T792-192H168Zm0-432h624v-72H168v72Z"/></svg>