<svg xmlns="http://www.w3.org/2000/svg" height="20" viewBox="0 -960 960 960" width="20"><path d="M521-148q-77 0-130.5-53.485Q337-254.969 337-332v-27q-72-2-124-53t-52-124v-176q0-11.05 7.475-18.525Q175.95-738 187-738h94v-38q0-4.25 2.825-7.125 2.824-2.875 7-2.875 4.175 0 7.175 2.875t3 7.125v96q0 4.25-2.825 7.125-2.824 2.875-7 2.875-4.175 0-7.175-2.875T281-680v-38H181v182.46q0 64.54 45.5 110.04T337-380q65 0 110.5-45.5T493-535.54V-718H393v38q0 4.25-2.825 7.125-2.824 2.875-7 2.875-4.175 0-7.175-2.875T373-680v-96q0-4.25 2.825-7.125 2.824-2.875 7-2.875 4.175 0 7.175 2.875t3 7.125v38h94q11.05 0 18.525 7.475Q513-723.05 513-712v176q0 69.35-45 119.175T357-361v30q0 68.333 47.833 116.167Q452.667-167 521-167v19Zm62.407-130q-4.423 0-7.415-2.825-2.992-2.824-2.992-7 0-4.175 2.992-7.175t7.415-3H761l-75-77q-3.667-3-3.333-6 .333-3 3.476-6t7.818-3q4.675 0 8.039 3l78 81q8 7.636 8 17.818 0 10.182-7.594 17.963l-79.812 81.438Q697.909-186 693.883-186t-7.454-3q-3.429-3-3.762-6.5-.334-3.5 3.333-6.5l75-76H583.407Z"/></svg>