<svg xmlns="http://www.w3.org/2000/svg" height="20" viewBox="0 -960 960 960" width="20"><path d="M542.609-62.085q-111 0-187.697-78.311-76.696-78.312-76.696-189.343v-18.13q-95.739-14.391-161.588-85.805Q50.78-505.087 50.78-603.827v-191.435q0-20.387 14.307-34.694 14.307-14.306 34.694-14.306h91.913v-12q2.827-18.127 16.225-29.89 13.398-11.763 32-11.763 20.298 0 34.755 14.307 14.456 14.307 14.456 34.694v107.305q0 20.387-14.246 34.694-14.246 14.306-34.544 14.306-18.602 0-32.211-11.763-13.608-11.763-16.435-29.889v-12h-42.912v142.894q0 67.932 48.326 114.279 48.326 46.348 116.718 46.348 68.391 0 116.717-46.348 48.327-46.347 48.327-114.279v-142.894h-42.913v12q-2.827 18.126-16.225 29.889-13.398 11.763-32 11.763-20.298 0-34.755-14.306-14.456-14.307-14.456-34.694v-107.305q0-20.387 14.246-34.694 14.246-14.307 34.544-14.307 18.602 0 32.211 11.763 13.608 11.763 16.435 29.89v12h91.913q20.387 0 34.694 14.306 14.307 14.307 14.307 34.694v191.435q0 93.394-56.87 163.067t-143.783 89.761v22.26q0 70.029 48.389 119.841 48.39 49.811 118.002 49.811v97.002ZM634.452-239q-20.56 0-34.984-14.247-14.424-14.246-14.424-34.543 0-20.298 14.424-34.755 14.424-14.457 34.984-14.457h89.026l-11.216-12.216q-13.827-14.957-12.979-33.479.848-18.522 14.817-32.348 15.1-14.957 35.609-14.957 20.51 0 34.902 14.957l90 92.435q14.956 14.593 14.956 34.427t-14.55 34.572l-91.813 92.873q-13.985 14.172-34.209 14.455-20.224.283-35.109-14.674-13.755-13.826-14.603-32.848-.848-19.022 12.979-33.979l11.216-11.216h-89.026Z"/></svg>