<svg xmlns="http://www.w3.org/2000/svg" height="20" viewBox="0 -960 960 960" width="20"><path d="M761.417-94.187 508.87-346.304q-35.696 58.131-94.37 90.979-58.674 32.848-126.5 32.848-106.783 0-182.153-75.37-75.37-75.37-75.37-182.153 0-67.826 33.348-125.87 33.348-58.043 91.044-94.435l-60.783-60.783q-12.13-11.797-12.13-28.159 0-16.363 12.13-28.493 12.13-12.131 28.493-12.131 16.362 0 28.159 12.131l666.921 666.921q12.212 12.211 12.212 28.371 0 16.161-12.131 27.927-11.797 12.13-28.159 12.13-16.363 0-28.164-11.796Zm49.714-165.726L481.478-589.001h364.044q35.505 0 59.753 24.248 24.248 24.248 24.248 59.753v49q0 33.091-20.857 56.22-20.856 23.128-50.143 27.085h-25v44.173q0 19.391-4.348 37.935-4.348 18.544-18.044 30.674ZM288-375.521q38 0 68.544-25.152 30.543-25.153 35.369-65.414-.565.566-.282 1.131.282.565.282 1.696L271.26-583.913h2.827q-40.261 4.826-65.414 35.369Q183.521-518 183.521-480q0 42.991 30.744 73.735T288-375.521Z"/></svg>