<svg xmlns="http://www.w3.org/2000/svg" height="24" viewBox="0 -960 960 960" width="24"><path d="M172-125q-53 0-89.5-36.5T46-251v-455q0-53 36.5-89.5T172-832h328q26 0 44.5 18.5T563-769q0 26-18.5 44.5T500-706H172v455h616v-169q0-26 18.5-44.5T851-483q26 0 44.5 18.5T914-420v169q0 53-36.5 89.5T788-125H172Zm335-284-71 71q-17 17-39 17t-39.217-17Q342-355 341.5-377.182 341-399.364 358-416l72-72h-29q-23.375 0-39.188-15.812Q346-519.625 346-543t15.812-39.188Q377.625-598 401-598h154q26 0 44.5 18.5T618-535v154q0 23.375-15.812 39.188Q586.375-326 563-326q-23 0-39.5-16.5T507-382v-27Zm270.824-154q-56.177 0-95.501-39.323Q643-641.647 643-697.824 643-754 682.323-794q39.324-40 95.501-40Q834-834 874-794t40 96.176q0 56.177-40 95.501Q834-563 777.824-563Z"/></svg>