<svg xmlns="http://www.w3.org/2000/svg" height="20" viewBox="0 -960 960 960" width="20"><path d="M526.348-424q27.652 0 50.658-13.2 23.005-13.2 28.983-39 1.693-8.6 8.568-14.2T631-496h135v-264q0-12-10-22t-22-10H318q-12 0-22 10t-10 22v264h135q9.564 0 16.436 5.177Q444.308-485.645 446-477q8 25 30.446 39 22.445 14 49.902 14ZM318-292q-22.7 0-37.35-14.65Q266-321.3 266-344v-416q0-22.7 14.65-37.35Q295.3-812 318-812h416q22.7 0 37.35 14.65Q786-782.7 786-760v416q0 22.7-14.65 37.35Q756.7-292 734-292H318Zm-92 92q-22.7 0-37.35-14.65Q174-229.3 174-252v-426q0-4.3 2.789-7.15 2.79-2.85 7-2.85 4.211 0 7.211 2.85t3 7.15v426q0 12 10 22t22 10h426q4.3 0 7.15 2.789 2.85 2.79 2.85 7 0 4.211-2.85 7.211t-7.15 3H226Z"/></svg>