<svg xmlns="http://www.w3.org/2000/svg" height="20" viewBox="0 -960 960 960" width="20"><path d="M347-347h456v-144h-97q-20 33-54.581 52.5t-76.89 19.5q-42.063 0-77.296-19.5Q462-458 444-491h-97v144Zm228.348-160q22.033 0 39.848-11.2 17.815-11.2 24.793-32 4.693-12.6 14.568-20.7T677-579h126v-224H347v224h125q13.564 0 23.436 8.677Q505.308-561.645 511-549q9 19 26.446 30.5 17.445 11.5 37.902 11.5ZM347-229q-49.7 0-83.85-34.15Q229-297.3 229-347v-456q0-49.7 34.15-83.85Q297.3-921 347-921h456q49.7 0 83.85 34.15Q921-852.7 921-803v456q0 49.7-34.15 83.85Q852.7-229 803-229H347ZM157-39q-49.7 0-83.85-34.15Q39-107.3 39-157v-515q0-24.3 17.29-41.65Q73.578-731 97.79-731q24.21 0 41.71 17.35T157-672v515h515q24.3 0 41.65 17.289 17.35 17.29 17.35 41.5Q731-74 713.65-56.5T672-39H157Zm190-308h456-456Z"/></svg>