<svg xmlns="http://www.w3.org/2000/svg" height="24" viewBox="0 -960 960 960" width="24"><path d="M152-212q-24.75 0-42.375-17.625T92-272v-416q0-24.75 17.625-42.375T152-748h656q24.75 0 42.375 17.625T868-688v416q0 24.75-17.625 42.375T808-212H152Zm62-28h532v-480H214v480Zm146-276q-6.067 0-10.033-3.953-3.967-3.954-3.967-10Q346-536 349.967-540q3.966-4 10.033-4h240q6.067 0 10.033 3.953 3.967 3.954 3.967 10Q614-524 610.033-520q-3.966 4-10.033 4H360Zm40 120q-6.067 0-10.033-3.953-3.967-3.954-3.967-10Q386-416 389.967-420q3.966-4 10.033-4h160q6.067 0 10.033 3.953 3.967 3.954 3.967 10Q574-404 570.033-400q-3.966 4-10.033 4H400Z"/></svg>