<svg xmlns="http://www.w3.org/2000/svg" height="20" viewBox="0 -960 960 960" width="20"><path d="M128.479-172.782q-40.44 0-69.22-28.792-28.782-28.793-28.782-69.249V-689.5q0-40.457 28.781-69.088 28.781-28.63 69.221-28.63h703.042q40.44 0 69.221 28.792 28.781 28.793 28.781 69.249V-270.5q0 40.457-28.781 69.088-28.781 28.63-69.221 28.63H128.479Zm120-98.001h463.042v-418.434H248.479v418.434ZM342-502.999q-18.087 0-30.544-12.457T298.999-546q0-18.087 12.457-30.544T342-589.001h276q18.087 0 30.544 12.457T661.001-546q0 18.087-12.457 30.544T618-502.999H342Zm48 132q-18.087 0-30.544-12.457T346.999-414q0-18.087 12.457-30.544T390-457.001h180q18.087 0 30.544 12.457T613.001-414q0 18.087-12.457 30.544T570-370.999H390Z"/></svg>