<svg xmlns="http://www.w3.org/2000/svg" height="20" viewBox="0 -960 960 960" width="20"><path d="M349.692-528.308q-7.666 0-12.679-5.002Q332-538.313 332-545.964t5.013-12.69q5.013-5.038 12.679-5.038h260.616q7.666 0 12.679 5.002Q628-553.687 628-546.036t-5.013 12.69q-5.013 5.038-12.679 5.038H349.692Zm48 132q-7.666 0-12.679-5.002Q380-406.313 380-413.964t5.013-12.69q5.013-5.038 12.679-5.038h164.616q7.666 0 12.679 5.002Q580-421.687 580-414.036t-5.013 12.69q-5.013 5.038-12.679 5.038H397.692ZM144.615-232q-23.354 0-39.984-16.642Q88-265.285 88-288.656v-383.012q0-23.371 16.631-39.851Q121.261-728 144.615-728h670.77q23.354 0 39.984 16.642Q872-694.715 872-671.344v383.012q0 23.371-16.631 39.851Q838.739-232 815.385-232h-670.77ZM188-696h-43.385q-10.769 0-17.692 6.923T120-671.385v382.77q0 10.769 6.923 17.692T144.615-264H188v-432Zm32 432h520v-432H220v432Zm552-432v432h43.385q10.769 0 17.692-6.923T840-288.615v-382.77q0-10.769-6.923-17.692T815.385-696H772Zm0 0h68-68Zm-584 0h-68 68Z"/></svg>