<svg xmlns="http://www.w3.org/2000/svg" height="24" viewBox="0 -960 960 960" width="24"><path d="M357.692-512.308q-7.666 0-12.679-5.002Q340-522.313 340-529.964t5.013-12.69q5.013-5.038 12.679-5.038h244.616q7.666 0 12.679 5.002Q620-537.687 620-530.036t-5.013 12.69q-5.013 5.038-12.679 5.038H357.692Zm40 120q-7.666 0-12.679-5.002Q380-402.313 380-409.964t5.013-12.69q5.013-5.038 12.679-5.038h164.616q7.666 0 12.679 5.002Q580-417.687 580-410.036t-5.013 12.69q-5.013 5.038-12.679 5.038H397.692ZM144.615-200q-26.654 0-45.634-18.981Q80-237.961 80-264.615v-430.77q0-26.654 18.98-45.634Q117.962-760 144.616-760h670.77q26.654 0 45.634 18.981Q880-722.039 880-695.385v430.77q0 26.654-18.981 45.634Q842.039-200 815.385-200h-670.77ZM180-720h-35.385q-10.769 0-17.692 6.923T120-695.385v430.77q0 10.769 6.923 17.692T144.615-240H180v-480Zm40 480h520v-480H220v480Zm560-480v480h35.385q10.769 0 17.692-6.923T840-264.615v-430.77q0-10.769-6.923-17.692T815.385-720H780Zm0 0h60-60Zm-600 0h-60 60Z"/></svg>