<svg xmlns="http://www.w3.org/2000/svg" height="20" viewBox="0 -960 960 960" width="20"><path d="M342-502.999q-18.087 0-30.544-12.457T298.999-546q0-18.087 12.457-30.544T342-589.001h276q18.087 0 30.544 12.457T661.001-546q0 18.087-12.457 30.544T618-502.999H342Zm48 132q-18.087 0-30.544-12.457T346.999-414q0-18.087 12.457-30.544T390-457.001h180q18.087 0 30.544 12.457T613.001-414q0 18.087-12.457 30.544T570-370.999H390ZM128.479-172.782q-40.426 0-69.214-28.799-28.788-28.8-28.788-69.242V-689.5q0-40.443 28.788-69.08 28.788-28.638 69.214-28.638h703.042q40.426 0 69.214 28.799 28.788 28.8 28.788 69.242V-270.5q0 40.443-28.788 69.08-28.788 28.638-69.214 28.638H128.479Zm48-516.435h-48v418.434h48v-418.434Zm72 418.434h463.042v-418.434H248.479v418.434Zm535.042-418.434v418.434h48v-418.434h-48Zm0 0h48-48Zm-607.042 0h-48 48Z"/></svg>