<svg xmlns="http://www.w3.org/2000/svg" height="20" viewBox="0 -960 960 960" width="20"><path d="M775.23-464H564q-6.8 0-11.4-4.547-4.6-4.547-4.6-11.269 0-6.723 4.6-11.453Q557.2-496 564-496h211.23l-66.615-65.846q-5.615-5.615-6-11.821-.384-6.205 5.398-11.654 6.218-6.218 11.487-6.218t11.654 6.385l85.676 85.677q8.555 8.554 8.555 19.659 0 11.105-8.693 19.433l-85.538 85.539q-5.615 5.615-11.154 5.115t-11.321-6.282q-6.218-6.218-5.833-11.872.385-5.654 6.769-11.269L775.23-464ZM288.615-88q-23.354 0-39.984-16.631Q232-121.261 232-144.615v-670.77q0-23.354 16.631-39.984Q265.261-872 288.615-872h382.77q23.354 0 39.984 16.631Q728-838.739 728-815.385v140.308h-32V-740H264v520h432v-64.923h32v139.941q0 23.913-16.631 40.448Q694.739-88 671.385-88h-382.77Z"/></svg>