<svg xmlns="http://www.w3.org/2000/svg" height="24" viewBox="0 -960 960 960" width="24"><path d="M166.783-82.129q-44.305 0-75.153-30.848-30.848-30.848-30.848-75.153v-185.869q0-44.305 30.848-75.153Q122.478-480 166.783-480h156.956q16.131 0 27.696 10.283 11.565 10.282 14.13 25.978 8.957 35.696 42.261 59.717Q441.13-360 480-360q38.87 0 72.174-24.022 33.304-24.021 42.261-59.717 2.565-15.696 14.13-25.978Q620.13-480 636.261-480h156.956q44.305 0 75.153 30.848 30.848 30.848 30.848 75.153v185.869q0 44.305-30.848 75.153-30.848 30.849-75.153 30.849H166.783Zm508.652-490.828q-14.957-14.957-14.957-37.044 0-22.088 14.957-37.044l86-86q14.956-14.957 37.044-14.957 22.087 0 37.044 14.957 15.522 14.956 15.522 36.761 0 21.805-15.522 37.327l-86 86q-14.957 14.956-37.044 14.956-22.088 0-37.044-14.956Zm-390.87 0q-14.956 14.956-37.044 14.956-22.087 0-37.044-14.956l-86-86q-15.522-14.957-15.522-37.044 0-22.088 15.522-37.044 14.957-14.957 37.044-14.957 22.088 0 37.044 14.957l86 86q14.957 14.956 14.957 37.044 0 22.087-14.957 37.044ZM480-653.001q-22.087 0-37.544-15.456-15.457-15.457-15.457-37.544v-120q0-22.088 15.457-37.544 15.457-15.457 37.544-15.457 22.087 0 37.544 15.457 15.457 15.456 15.457 37.544v120q0 22.087-15.457 37.544-15.457 15.456-37.544 15.456Z"/></svg>