<svg xmlns="http://www.w3.org/2000/svg" height="20" viewBox="0 -960 960 960" width="20"><path d="M432-288h96q35.918 0 58.198-22.28 22.281-22.281 22.281-58.199v-70.999q0-35.918-22.281-58.481-22.28-22.563-58.198-22.563h-96v-70.999h88.522q16.982 0 28.469-11.59 11.488-11.589 11.488-28.722 0-16.892-11.488-28.529Q537.504-672 520.522-672H432q-35.918 0-58.198 22.281-22.281 22.28-22.281 58.198v223.042q0 35.918 22.281 58.199Q396.082-288 432-288Zm0-151.478h96v70.999h-96v-70.999ZM222.783-124.782q-41.005 0-69.503-28.498-28.498-28.498-28.498-69.503v-514.434q0-41.005 28.498-69.503 28.498-28.498 69.503-28.498h514.434q41.005 0 69.503 28.498 28.498 28.498 28.498 69.503v514.434q0 41.005-28.498 69.503-28.498 28.498-69.503 28.498H222.783Zm0-98.001h514.434v-514.434H222.783v514.434Zm0-514.434v514.434-514.434Z"/></svg>