<svg xmlns="http://www.w3.org/2000/svg" height="24" viewBox="0 -960 960 960" width="24"><path d="M440-280h80q39.218 0 63.848-24.63 24.631-24.631 24.631-63.849v-66.999q0-39.218-24.631-64.131-24.63-24.913-63.848-24.913h-80v-66.999h84.522q18.682 0 31.319-12.8 12.638-12.8 12.638-31.722 0-18.682-12.638-31.319Q543.204-680 524.522-680H440q-39.218 0-63.848 24.63-24.631 24.631-24.631 63.849v223.042q0 39.218 24.631 63.849Q400.782-280 440-280Zm0-155.478h80v66.999h-80v-66.999ZM206.783-100.782q-44.305 0-75.153-30.848-30.848-30.848-30.848-75.153v-546.434q0-44.305 30.848-75.153 30.848-30.848 75.153-30.848h546.434q44.305 0 75.153 30.848 30.848 30.848 30.848 75.153v546.434q0 44.305-30.848 75.153-30.848 30.848-75.153 30.848H206.783Zm0-106.001h546.434v-546.434H206.783v546.434Zm0-546.434v546.434-546.434Z"/></svg>