<svg xmlns="http://www.w3.org/2000/svg" height="20" viewBox="0 -960 960 960" width="20"><path d="M76.782-258.477v-186.218q0-28.261 12.5-54.087 12.5-25.827 35.5-35.696v-78.217q0-47.348 33.935-81.283T240-727.913h180q16.028 0 31.232 4.652 15.203 4.652 28.768 13.391 13.565-8.739 28.768-13.391 15.204-4.652 31.232-4.652h180q47.348 0 81.283 33.935t33.935 81.283v78.217q23 9.869 35.5 35.696 12.5 25.826 12.5 54.087v186.218q0 20.387-14.246 34.694-14.246 14.306-34.544 14.306-20.298 0-34.754-14.306-14.457-14.307-14.457-34.694v-23H174.783v22.789q0 20.298-14.246 34.755-14.246 14.456-34.544 14.456-20.298 0-34.755-14.306-14.456-14.307-14.456-34.694ZM516-540.695h221.217v-72q0-7.374-4.922-12.295-4.921-4.922-12.295-4.922H533.217q-7.374 0-12.295 4.922Q516-620.069 516-612.695v72Zm-293.217 0H444v-72q0-7.374-4.922-12.295-4.921-4.922-12.295-4.922H240q-7.374 0-12.295 4.922-4.922 4.921-4.922 12.295v72Z"/></svg>