<svg xmlns="http://www.w3.org/2000/svg" height="24" viewBox="0 -960 960 960" width="24"><path d="M204.615-800h-80v-40h120v720h-40v-680Zm110.769 680v-720h440.001v720H315.384Zm40.001-368.231q15.692-15.615 36.077-23.692Q411.846-520 435.385-520h200q23.538 0 43.923 8.077 20.384 8.077 36.077 23.692V-800h-360v311.769Zm180-111.769q-25.308 0-42.654-17.346-17.346-17.346-17.346-42.654 0-25.308 17.346-42.654Q510.077-720 535.385-720q25.307 0 42.654 17.346 17.346 17.346 17.346 42.654 0 25.308-17.346 42.654Q560.692-600 535.385-600Zm-180 440h360v-240q0-33-23.5-56.5t-56.5-23.5h-200q-33 0-56.5 23.5t-23.5 56.5v240Zm160-60h40v-80h80v-40h-80v-80h-40v80h-80v40h80v80Zm-160 60h360-360Z"/></svg>