<svg xmlns="http://www.w3.org/2000/svg" height="20" viewBox="0 -960 960 960" width="20"><path d="M190.309-792h-72v-51.999h123.999v727.998h-51.999V-792Zm115.385 675.999v-727.998h439.997v727.998H305.694Zm51.998-385.613q16.846-14.307 38.329-22.346t45.671-8.039h168q24.189 0 45.671 8.039 21.483 8.039 38.329 22.346V-792h-336v290.386ZM525.48-598q-25.941 0-43.864-18.135-17.923-18.136-17.923-44.077t18.135-43.864q18.135-17.923 44.077-17.923 25.941 0 43.864 18.136 17.922 18.135 17.922 44.076t-18.135 43.864Q551.421-598 525.48-598Zm-25.787 371.999h51.998v-72h72v-51.998h-72v-72h-51.998v72h-72v51.998h72v72Z"/></svg>