<svg xmlns="http://www.w3.org/2000/svg" height="24" viewBox="0 -960 960 960" width="24"><path d="M364.522-238.304h231.521q18.682 0 31.319-12.8Q640-263.904 640-282.826q0-18.682-12.638-31.319-12.637-12.638-31.319-12.638H363.957q-18.682 0-31.319 12.64Q320-301.502 320-282.816t12.8 31.599q12.8 12.913 31.722 12.913Zm0-160h231.521q18.682 0 31.319-12.8Q640-423.904 640-442.826q0-18.682-12.638-31.319-12.637-12.638-31.319-12.638H363.957q-18.682 0-31.319 12.64Q320-461.502 320-442.816t12.8 31.599q12.8 12.913 31.722 12.913ZM246.783-60.782q-44.305 0-75.153-30.848-30.848-30.848-30.848-75.153v-626.434q0-44.305 30.848-75.153 30.848-30.848 75.153-30.848h277.391q21.225 0 40.461 7.978 19.235 7.978 34.192 22.935l189.478 189.478q14.957 14.957 22.935 34.192 7.978 19.236 7.978 40.461v437.391q0 44.305-30.848 75.153-30.848 30.848-75.153 30.848H246.783Zm266.434-585.436v-146.999H246.783v626.434h466.434v-426.434H566.218q-22.088 0-37.544-15.457-15.457-15.456-15.457-37.544ZM246.783-793.217v200-200 626.434-626.434Z"/></svg>