<svg xmlns="http://www.w3.org/2000/svg" height="24" viewBox="0 -960 960 960" width="24"><path d="M360-266h240q5.95 0 9.975-4.035 4.025-4.035 4.025-10T609.975-290q-4.025-4-9.975-4H360q-5.95 0-9.975 4.035-4.025 4.035-4.025 10t4.025 9.965q4.025 4 9.975 4Zm0-160h240q5.95 0 9.975-4.035 4.025-4.035 4.025-10T609.975-450q-4.025-4-9.975-4H360q-5.95 0-9.975 4.035-4.025 4.035-4.025 10t4.025 9.965q4.025 4 9.975 4Zm-88 294q-26 0-43-17t-17-43v-576q0-26 17-43t43-17h289q12.444 0 23.722 5T604-810l126 126q8 8 13 19.278 5 11.278 5 23.722v449q0 26-17 43t-43 17H272Zm300-549.6q0 12.58 8.51 21.09T601.6-652H720L572-800v118.4Z"/></svg>