<svg xmlns="http://www.w3.org/2000/svg" height="20" viewBox="0 -960 960 960" width="20"><path d="M480.45-148q-68.45 0-129.008-25.891-60.559-25.892-106.075-71.348-45.515-45.457-71.441-105.893Q148-411.569 148-480.284q0-68.716 25.891-128.774 25.892-60.059 71.348-105.574 45.457-45.516 105.893-71.442Q411.569-812 480.284-812q68.716 0 128.774 25.891 60.059 25.892 105.574 71.348 45.516 45.457 71.442 105.659Q812-548.899 812-480.45q0 68.45-25.891 129.008-25.892 60.559-71.348 106.075-45.457 45.515-105.659 71.441Q548.899-148 480.45-148ZM420-314h102q22.7 0 37.35-14.65Q574-343.3 574-366v-228q0-22.7-14.65-37.35Q544.7-646 522-646h-84q-22.7 0-37.35 14.65Q386-616.7 386-594v72q0 22.7 14.65 37.35Q415.3-470 438-470h116v104q0 14-9 23t-23 9H420q-4.25 0-7.125 2.825-2.875 2.824-2.875 7 0 4.175 2.875 7.175t7.125 3Zm134-176H438q-14 0-23-9t-9-23v-72q0-14 9-23t23-9h84q14 0 23 9t9 23v104Z"/></svg>