<svg xmlns="http://www.w3.org/2000/svg" height="20" viewBox="0 -960 960 960" width="20"><path d="M480.276-62Q393-62 317.013-94.584q-75.988-32.583-132.917-89.512T94.584-316.971Q62-392.917 62-480.458 62-568 94.584-643.487q32.583-75.488 89.512-132.417t132.875-89.512Q392.917-898 480.458-898q87.542 0 163.029 32.584 75.488 32.583 132.417 89.512t89.512 132.641Q898-567.551 898-480.276q0 87.276-32.584 163.263-32.583 75.988-89.512 132.917T643.263-94.584Q567.551-62 480.276-62ZM480-180q126 0 213-87t87-213q0-126-87-213t-213-87q-126 0-213 87t-87 213q0 126 87 213t213 87Zm0-300Zm-67 192h115q40.7 0 63.85-23.15T615-375v-210q0-40.7-23.15-63.85T528-672h-96q-40.7 0-63.85 23.15T345-585v61q0 40.7 23.15 64.35Q391.3-436 432-436h96v61H412q-18.275 0-30.638 12.307Q369-350.386 369-332.193 369-314 381.65-301T413-288Zm115-236h-96v-61h96v61Z"/></svg>