<svg xmlns="http://www.w3.org/2000/svg" height="20" viewBox="0 -960 960 960" width="20"><path d="M180-158q-49.7 0-83.85-34.162Q62-226.324 62-276.04v-408.243Q62-726 88.031-757.5T155-799h11v111l-85-85q-13-13-12.5-30T82-833q13-13 29.5-13t29.852 13.337l708.296 706.326Q863-113 862.5-95.318T849-65q-13 13-30 13.5T789-64l-94-94H180Zm0-118h397L263-590h-83v314Zm700 58L780-318v-272H508L296-802h484q49.7 0 83.85 34.15Q898-733.7 898-684v408q0 16.793-5 31.897Q888-229 880-218ZM720-378 546-552h115q24.3 0 41.65 17.35Q720-517.3 720-493v115Z"/></svg>