<svg xmlns="http://www.w3.org/2000/svg" height="24" viewBox="0 -960 960 960" width="24"><path d="M166.783-140.782q-44.305 0-75.153-30.848-30.848-30.848-30.848-75.153v-466.434q0-39.783 25.76-69.218 25.762-29.435 64.414-35.088v125.305L54-789.174q-13.13-13.13-12.63-31.326.5-18.196 13.63-31.326 13.13-13.131 31.044-13.131 17.913 0 31.043 13.131l742.348 742.217q13.131 13.131 12.848 31.11-.282 17.978-13.413 31.108-13.13 13.13-31.043 13.13-17.914 0-31.044-13.13l-94.391-93.391H166.783Zm0-106.001h429.608L222.392-620.782h-55.609v373.999Zm723.435 42.653-97.001-97.002v-319.65h-319.65L275.13-819.218h518.087q44.305 0 75.153 30.848 30.848 30.848 30.848 75.153v466.434q0 11.696-2 22.326-2 10.631-7 20.327ZM720-374.349 534.349-560h132.65q22.088 0 37.544 15.457Q720-529.087 720-506.999v132.65Z"/></svg>