<svg xmlns="http://www.w3.org/2000/svg" height="24" viewBox="0 -960 960 960" width="24"><path d="M683.846-211.692 594-121.846q-5.615 5.615-13.769 6-8.154.385-14.539-6-6.384-6.385-6.384-14.154t6.384-14.154L655.538-240l-89.846-89.846q-5.615-5.615-6-13.769-.384-8.154 6-14.539 6.385-6.385 14.154-6.385T594-358.154l89.846 89.846 89.846-89.846q5.616-5.615 13.77-6 8.153-.385 14.538 6T808.385-344q0 7.769-6.385 14.154L712.154-240 802-150.154q5.615 5.615 6 13.769.385 8.154-6 14.539t-14.154 6.385q-7.769 0-14.154-6.385l-89.846-89.846ZM163.846-340q-8.5 0-14.25-5.758-5.75-5.757-5.75-14.269t5.75-14.242q5.75-5.731 14.25-5.731h240q8.5 0 14.25 5.758 5.75 5.757 5.75 14.269t-5.75 14.242q-5.75 5.731-14.25 5.731h-240Zm0-160q-8.5 0-14.25-5.758-5.75-5.757-5.75-14.269t5.75-14.242q5.75-5.731 14.25-5.731h400q8.5 0 14.25 5.758 5.75 5.757 5.75 14.269t-5.75 14.242q-5.75 5.731-14.25 5.731h-400Zm0-160q-8.5 0-14.25-5.758-5.75-5.757-5.75-14.269t5.75-14.242q5.75-5.731 14.25-5.731h400q8.5 0 14.25 5.758 5.75 5.757 5.75 14.269t-5.75 14.242q-5.75 5.731-14.25 5.731h-400Z"/></svg>