<svg xmlns="http://www.w3.org/2000/svg" height="20" viewBox="0 -960 960 960" width="20"><path d="m310.043-244.544 79.522-324.586-68.717 30.173v76.5H242.63v-128.565l179.022-76.087q11.435-4.478 21.891-6.717 10.457-2.239 20.414-2.478 27.195 0 46.913 9.358 19.717 9.359 33.434 31.316l26 42.478q25.718 43.435 54.707 62.739 28.989 19.304 71.946 22.304v77.218q-58.914-8-98.098-32-39.185-24-67.946-61.522l-20.13 67.696 70 70v142.173h-78.218v-110.543l-71.935-71.652-41.608 182.195h-78.979ZM530.87-699.348q-36.196 0-61.294-25.098t-25.098-61.293q0-36.196 25.098-61.294t61.294-25.098q36.195 0 61.293 25.098t25.098 61.294q0 36.195-25.098 61.293t-61.293 25.098ZM480-87.869q-80.913 0-152.348-30.598-71.435-30.598-125.011-84.174-53.576-53.576-84.174-125.011Q87.869-399.087 87.869-480q0-116.63 62.076-212.424 62.077-95.794 167.229-143.989l34.783 75.043q-83.283 37.761-132.185 113.924Q170.87-571.283 170.87-480q0 129.043 90.043 219.087Q350.957-170.87 480-170.87t219.087-90.043Q789.13-350.957 789.13-480h83.001q0 80.913-30.598 152.348-30.598 71.435-84.174 125.011-53.576 53.576-124.511 84.174Q561.913-87.869 480-87.869Z"/></svg>