<svg xmlns="http://www.w3.org/2000/svg" height="20" viewBox="0 -960 960 960" width="20"><path d="M802.175-148Q798-148 795-150.875T792-158v-644q0-4.25 2.825-7.125 2.824-2.875 7-2.875 4.175 0 7.175 2.875t3 7.125v644q0 4.25-2.825 7.125-2.824 2.875-7 2.875ZM628-314q-11.05 0-18.525-7.475Q602-328.95 602-340v-280q0-11.05 7.475-18.525Q616.95-646 628-646h-8q11.05 0 18.525 7.475Q646-631.05 646-620v280q0 11.05-7.475 18.525Q631.05-314 620-314h8Zm-240 0q-11.05 0-18.525-7.475Q362-328.95 362-340v-280q0-11.05 7.475-18.525Q376.95-646 388-646h-8q11.05 0 18.525 7.475Q406-631.05 406-620v280q0 11.05-7.475 18.525Q391.05-314 380-314h8Z"/></svg>