<svg xmlns="http://www.w3.org/2000/svg" height="20" viewBox="0 -960 960 960" width="20"><path d="M777.307-77.54 501.538-353.309 288.23-140.001H144.233v-143.998L357.54-497.307l-280-280 44.768-44.768 699.767 699.767-44.768 44.768ZM208.231-204h52.461L455.77-399.078 430.231-426l-26.922-25.539-195.078 195.078V-204ZM455.77-399.078 430.231-426l-26.922-25.539 52.461 52.461Zm149.151-57.615-45.768-45.768 62.926-62.925-52.461-52.462-61.926 61.926-45.768-45.768 107.078-107.079L713-564.771 604.921-456.693ZM757.383-608.77 613.386-753.537l91.306-91.306 144.382 144.382-91.691 91.691Zm-223.768 79.386Z"/></svg>