<svg xmlns="http://www.w3.org/2000/svg" height="24" viewBox="0 -960 960 960" width="24"><path d="M776.615-99.077 492.077-383.615 268.462-160H168.461v-100l223.616-223.616-293-292.999 28.538-28.539 677.539 677.539-28.539 28.538ZM208.461-200h42.924l212.153-212.154L442.461-434l-21.846-21.077-212.154 212.154V-200Zm255.077-212.154L442.461-434l-21.846-21.077 42.923 42.923Zm113.308-56.231-28.538-28.538 98.846-98.846-42.924-42.923-98.845 98.846-28.539-28.539L604-695.539l100 100.001-127.154 127.153Zm155.923-156.153-100-99.539 77.616-77.616 99.769 99.77-77.385 77.385ZM527.231-518.769Z"/></svg>