<svg xmlns="http://www.w3.org/2000/svg" height="20" viewBox="0 -960 960 960" width="20"><path d="M527.078-227Q568-227 586.5-251.205 605-275.411 605-320v-33q0-20.87-10.857-34.935Q583.286-402 567-402q16.286 0 27.143-13.673Q605-429.345 605-449v-38q0-45.417-20.5-69.708Q564-581 523-581h-95q-20 0-33 13t-13 33q0 20 13.5 33.5T429-488h93v48h-29q-16 0-27.5 11T454-401q0 17 11 28t28 11h29v42h-93q-20 0-33.5 13.5T382-273q0 20 13.203 33 13.202 13 32.797 13h99.078ZM380-816q-21.3 0-36.15-15.289-14.85-15.29-14.85-36.5Q329-889 343.85-904T380-919h200q21.3 0 36.15 14.789 14.85 14.79 14.85 36Q631-847 616.15-831.5T580-816H380ZM480-35q-78 0-144.92-29.007-66.919-29.007-116.993-78.58-50.073-49.574-79.08-116.493Q110-326 110-404q0-78 29.007-144.92 29.007-66.919 79.08-116.993 50.074-50.073 116.993-79.08Q402-774 479.56-774q60.28 0 117.86 19.5T702-699l28.282-28.282Q747-744 766.5-743.5 786-743 803-726t17 36.5q0 19.5-17 36.5l-27 28q36 46 55 103.308 19 57.308 19 117.836Q850-326 820.993-259.08q-29.007 66.919-79.08 116.493-50.074 49.573-116.993 78.58Q558-35 480-35Zm0-118q106 0 179-72.5T732-404q0-106-73-179t-179-73q-106 0-179 73t-73 179q0 106 73 178.5T480-153Zm0-251Z"/></svg>