<svg xmlns="http://www.w3.org/2000/svg" height="20" viewBox="0 -960 960 960" width="20"><path d="M527.947-248.738q35.705 0 55.292-22.901 19.587-22.901 19.587-60.969v-34.304q0-20.87-13.031-34.935-13.031-14.065-31.925-14.065 18.894 0 31.925-13.673 13.031-13.673 13.031-33.327v-36.696q0-38.895-20.5-61.883-20.5-22.987-56.717-22.987H424.522q-17.826 0-29.739 11.913t-11.913 29.739q0 17.827 12.195 30.022 12.196 12.196 30.022 12.196h99.522v48h-32.044q-15.565 0-26.63 10.783-11.065 10.782-11.065 26.913 0 16.13 10.782 26.913 10.783 10.783 26.913 10.783h32.044v44.608h-99.522q-17.826 0-30.022 12.196-12.195 12.196-12.195 30.022t12.115 29.739q12.116 11.913 29.537 11.913h103.425ZM386.956-816q-18.691 0-31.585-13.116-12.894-13.115-12.894-31.717 0-18.602 12.894-31.646t31.585-13.044h186.088q18.691 0 31.585 12.833 12.894 12.833 12.894 31.436 0 18.602-12.894 31.928T573.044-816H386.956ZM480-61.52q-74.522 0-138.833-27.92-64.311-27.92-112.428-75.755-48.117-47.834-76.037-112.145-27.92-64.311-27.92-138.833 0-74.522 27.92-138.833 27.92-64.311 76.037-112.428 48.117-48.117 112.428-76.037 64.311-27.92 138.393-27.92 59.411 0 115.252 19.5 55.84 19.5 102.406 55.065l27.847-27.848q14.109-14.109 31.218-13.609t31.501 14.892q14.391 14.391 14.391 31.5t-14.391 31.5l-26.566 27.565q35.566 45.566 54.783 101.352t19.217 115.445q0 74.378-27.92 138.689-27.92 64.311-76.037 112.145-48.117 47.835-112.428 75.755Q554.522-61.52 480-61.52Z"/></svg>