<svg xmlns="http://www.w3.org/2000/svg" height="24" viewBox="0 -960 960 960" width="24"><path d="M734-240v-94q0-6-4-10t-10-4q-6 0-10 4t-4 10v93q0 6 2 11.5t7 10.5l62 62q4 4 9.5 4.5T797-157q4-4 4-10t-4-10l-63-63Zm-502 68q-25 0-42.5-17.5T172-232v-496q0-25 17.5-42.5T232-788h496q25 0 42.5 17.5T788-728v229q-8-2-14.5-3t-13.5-3v-223q0-12-10-22t-22-10H232q-12 0-22 10t-10 22v496q0 12 10 22t22 10h222q1 8 2 14.5t3 13.5H232Zm-32-68v40-560 255-3 268Zm106-92q0 6 4 10t10 4h143q2-7 5-13.5t6-14.5H320q-6 0-10 4t-4 10Zm0-148q0 6 4 10t10 4h255q16-9 29-15.5t28-11.5q-3-1-7-1H320q-6 0-10 4t-4 10Zm0-148q0 6 4 10t10 4h320q6 0 10-4t4-10q0-6-4-10t-10-4H320q-6 0-10 4t-4 10ZM720-86q-62 0-105-43t-43-105q0-62 43-105t105-43q62 0 105 43t43 105q0 62-43 105T720-86Z"/></svg>