<svg xmlns="http://www.w3.org/2000/svg" height="20" viewBox="0 -960 960 960" width="20"><path d="M470.252-518v98q0 4.25 2.909 7.125t7.108 2.875q4.199 0 7.004-2.875 2.805-2.875 2.805-7.125v-98h97.688q4.184 0 7.209-2.825 3.025-2.824 3.025-7 0-4.175-2.875-7.049-2.875-2.874-7.125-2.874h-98v-98.168q0-4.286-2.885-7.185t-7.15-2.899q-4.265 0-7.115 2.899-2.85 2.899-2.85 7.185v98.168h-98q-4.25 0-7.125 2.909T362-527.965q0 4.265 2.899 7.115 2.899 2.85 7.185 2.85h98.168ZM200-292q-22.7 0-37.35-14.662Q148-321.324 148-344.04v-368.243Q148-735 162.65-749.5T200-764h560q22.7 0 37.35 14.662Q812-734.676 812-711.96v368.243Q812-321 797.35-306.5T760-292H572v70q0 11.05-7.463 18.525Q557.073-196 546.04-196H414.283q-11.033 0-18.658-7.475Q388-210.95 388-222v-70H200Z"/></svg>