<svg xmlns="http://www.w3.org/2000/svg" height="20" viewBox="0 -960 960 960" width="20"><path d="M470.252-518v98q0 4.3 2.874 7.15Q476-410 480.234-410t7.039-2.85q2.805-2.85 2.805-7.15v-98h97.688q4.234 0 7.234-2.789 3-2.79 3-7 0-4.211-2.85-7.085-2.85-2.874-7.15-2.874h-98v-98.168q0-4.336-2.85-7.21Q484.3-646 480-646q-4.3 0-7.15 2.874-2.85 2.874-2.85 7.21v98.168h-98q-4.3 0-7.15 2.874Q362-532 362-528q0 4.3 2.874 7.15 2.874 2.85 7.21 2.85h98.168ZM200-292q-22.7 0-37.35-14.662Q148-321.324 148-344.04v-368.243Q148-735 162.65-749.5T200-764h560q22.7 0 37.35 14.662Q812-734.676 812-711.96v368.243Q812-321 797.35-306.5T760-292H572v70q0 11.3-7.338 18.65-7.339 7.35-18.622 7.35H414.283Q403-196 395.5-203.35 388-210.7 388-222v-70H200Zm0-20h560q12 0 22-10t10-22v-368q0-12-10-22t-22-10H200q-12 0-22 10t-10 22v368q0 12 10 22t22 10Zm-32 0v-432 432Z"/></svg>