<svg xmlns="http://www.w3.org/2000/svg" height="24" viewBox="0 -960 960 960" width="24"><path d="M235.384-140v-40h200v-120h-19.999q-74.701 0-127.351-52.65-52.65-52.65-52.65-127.35 0-52.128 27.077-96.026 27.077-43.897 75-65.051-.923 11.231 1.5 21.077 2.423 9.846 6.731 19.616-33 17.538-51.654 49.846-18.653 32.307-18.653 70.538 0 58.333 40.833 99.167Q357.051-340 415.385-340h300v40H484.616v120h240v40H235.384Zm346.154-356L568-534l-38 15.539-20.769-57.616q12.307-12.923 18.307-29.085 6-16.162 6-34.838 0-36.231-23.384-63.731-23.385-27.5-59.077-32.884l-20.308-56.154 38-14-14-37.539 46.769-17.231 13.539 38L550-836l99.231 270.769-34.923 14 14 38L581.538-496Zm-146.153-76.615q-28.077 0-47.731-19.654T368-640q0-28.077 19.654-47.731t47.731-19.654q28.076 0 47.73 19.654 19.654 19.654 19.654 47.731t-19.654 47.731q-19.654 19.654-47.73 19.654Z"/></svg>