<svg xmlns="http://www.w3.org/2000/svg" height="24" viewBox="0 -960 960 960" width="24"><path d="M191.521-111.521v-96.958h200v-63.042q-84.13-3.392-142.065-63.87Q191.521-395.87 191.521-480q0-56.435 28.152-104.152 28.153-47.718 77.457-74.978-4.565 27.087 3.196 52.609 7.761 25.522 24.848 46.783-17.348 14.869-27.022 35.63-9.673 20.76-9.673 44.108 0 46.609 32.456 79.065 32.456 32.456 79.065 32.456h328.479v96.958h-200v63.042h240v96.958H191.521Zm366.783-345.261-13.13-38-45.348 17.392-21.131-55.826q30.175-14.87 47.675-43.588 17.5-28.717 17.5-63.196 0-58.305-44.87-94.762-44.87-36.456-102.479-25.151l-19.131-52.261 46.479-17.957-14-36 92.957-33.653 12.565 38 44.783-16.826L682.61-545.826l-45.914 16.827 14 38-92.392 34.217ZM420-564.609q-31.13 0-53.261-22.13-22.13-22.131-22.13-53.261 0-31.13 22.13-53.261 22.131-22.13 53.261-22.13 31.13 0 53.261 22.13 22.13 22.131 22.13 53.261 0 31.13-22.13 53.261-22.131 22.13-53.261 22.13Z"/></svg>