<svg xmlns="http://www.w3.org/2000/svg" height="20" viewBox="0 -960 960 960" width="20"><path d="M227.384-116v-32h240v-112h-67.999q-71.381 0-121.691-50.31T227.384-432q0-46.463 23.962-86.924 23.961-40.461 64.346-64.153-6.154-56.923 34.116-93.462 40.269-36.538 92.576-23.461h13l-23.615-59.769 56-22-18-48.539 37.769-15.231 19.539 46L580-820l112.231 283.769-52.923 22 18 47L619.538-452 599-499l-55 24.539-26.539-73.693Q503.538-525.077 480.308-511q-23.231 14.077-50.96 15.615-31.887 1.539-58.04-13.653-26.154-15.193-39.308-43.577-33.769 17.769-53.192 49.494-19.423 31.726-19.423 71.121 0 58.333 40.833 99.167Q341.051-292 399.385-292h316v32H492.616v112h240v32H227.384Zm342.77-421.692 60.384-23.154-76.153-195.923L494-735.154l76.154 197.462Zm-146.823-5.077q24.3 0 40.792-16.439 16.492-16.438 16.492-40.738t-16.438-40.792q-16.438-16.493-40.738-16.493-24.301 0-40.793 16.439-16.492 16.438-16.492 40.738t16.438 40.792q16.438 16.493 40.739 16.493Zm146.823 5.077ZM423.385-600Zm0 0Z"/></svg>