<svg xmlns="http://www.w3.org/2000/svg" height="20" viewBox="0 -960 960 960" width="20"><path d="M209.694-106.001v-51.998h240v-92.002h-58.001q-75.53 0-128.765-53.235Q209.694-356.47 209.694-432q0-49.231 24.73-91.961 24.731-42.731 67.423-67.577-3.077-53.462 34.308-89.231 37.385-35.769 88.539-29.23h13l-21.308-54.385 56-22-18-47.77 52.383-20.615 18.77 46L580-829.999l117.615 298.383-54.461 22 18 47-52.384 20.615-19.769-47-55 23.77-25.77-69.847q-15.461 21.539-39.076 34.077-23.616 12.539-50.575 13.308-30.349.769-55.926-13.077-25.576-13.846-40.653-39.539-28.385 17.385-44.347 45.649T261.692-432q0 54.167 37.917 92.084t92.084 37.917h325.999v51.998H510.306v92.002h240v51.998H209.694Zm357.383-437.845 52.693-20.077-73.077-187.462L494-732.077l73.077 188.231Zm-151.411-3.538q22.35 0 37.496-15.12 15.147-15.119 15.147-37.469t-15.12-37.496q-15.119-15.147-37.469-15.147t-37.497 15.12q-15.146 15.119-15.146 37.469t15.119 37.496q15.12 15.147 37.47 15.147Zm151.411 3.538ZM415.693-600Zm0 0Z"/></svg>