<svg xmlns="http://www.w3.org/2000/svg" height="24" viewBox="0 -960 960 960" width="24"><path d="M480.044-60.782q-90.957 0-155.11-64.121Q260.782-189.024 260.782-280q0-49.696 21-93.457 21-43.761 59-75.022V-760q0-58.008 40.586-98.613t98.566-40.605q57.979 0 98.632 40.605 40.652 40.605 40.652 98.613v311.521q38 31.261 59 75.022 21 43.761 21 93.457 0 90.976-64.108 155.097-64.109 64.121-155.066 64.121Zm-33.261-457.522h66.434v-38.87H480v-45.652h33.217v-74.348H480v-45.652h33.217V-760q0-13.609-9.804-23.413T480-793.217q-13.609 0-23.413 9.804T446.783-760v241.696Z"/></svg>