<svg xmlns="http://www.w3.org/2000/svg" height="20" viewBox="0 -960 960 960" width="20"><path d="M80-262q-11.05 0-19.525-8.475Q52-278.95 52-290v-2q0-36 38.379-60.5 38.378-24.5 99.725-24.5H208.5q9.5 0 18.5 2.182-9.259 15.454-14.13 33.636Q208-323 208-303.956V-262H80Zm244.256 0Q311-262 301.5-271.625T292-294v-6q0-45 51.5-71.5T479.605-398Q565-398 616.5-371.5 668-345 668-300v6q0 12.75-9.625 22.375T636.157-262H324.256ZM752-262v-41.956q0-19.572-4.63-37.49-4.629-17.918-14.37-33.372Q742-377 751.403-377H770q61.3 0 99.65 24.5Q908-328 908-292v2q0 11.05-8.475 19.525Q891.05-262 880-262H752ZM480-366q-66 0-106.5 16.5T327-304v10h306v-10q-5-28-46-45t-107-17Zm-292.248-36Q165-402 150-417.935q-15-15.936-15-38.313 0-22.377 15.248-38.064 15.248-15.688 38-15.688Q211-510 226.5-494.065q15.5 15.936 15.5 38.313 0 22.377-15.935 38.064Q210.129-402 187.752-402Zm584 0Q749-402 733.5-417.935 718-433.871 718-456.248q0-22.377 15.935-38.064Q749.871-510 772.248-510 795-510 810-494.065q15 15.936 15 38.313 0 22.377-15.248 38.064-15.248 15.688-38 15.688ZM480-428q-32.5 0-55.25-22.75T402-506q0-32.5 22.75-55.25T480-584q32.5 0 55.25 22.75T558-506q0 32.5-22.75 55.25T480-428Zm.386-124Q461-552 447.5-538.886q-13.5 13.114-13.5 32.5t13.114 32.886q13.114 13.5 32.5 13.5t32.886-13.114q13.5-13.114 13.5-32.5T512.886-538.5q-13.114-13.5-32.5-13.5ZM480-294Zm0-212Z"/></svg>