<svg xmlns="http://www.w3.org/2000/svg" height="24" viewBox="0 -960 960 960" width="24"><path d="M69.23-256.923q-12.423 0-20.826-8.404Q40-273.731 40-286.154v-5.308q0-37.077 38.522-60.884 38.522-23.808 101.558-23.808 11.381 0 21.728.615 10.346.616 19.807 2.616-8.815 15.105-12.907 32.475-4.093 17.371-4.093 36.482v47.043H69.231Zm243.395 0q-14.241 0-23.433-9.288Q280-275.5 280-289.231v-11.692q0-49.616 54.961-79.346Q389.923-410 479.696-410q90.612 0 145.458 29.731Q680-350.539 680-300.923v11.692q0 13.731-9.288 23.02-9.289 9.288-23.019 9.288H312.625Zm442.76 0v-47.043q0-19.111-4.408-36.482-4.407-17.37-12.592-32.475 9.461-2 19.733-2.616 10.271-.615 21.882-.615 63 0 101.5 23.808 38.5 23.807 38.5 60.884v5.308q0 12.423-8.404 20.827-8.403 8.404-20.827 8.404H755.385ZM480-370q-68.538 0-112.769 18.577-44.231 18.577-46.077 46.808v7.692h317.692v-7.692q-2.077-28.462-46.192-46.923Q548.538-370 480-370Zm-300-43.846q-23.769 0-39.962-16.722-16.192-16.721-16.192-40.202 0-23.48 16.192-40.202 16.193-16.721 39.962-16.721 23.769 0 40.346 16.721 16.577 16.722 16.577 40.202 0 23.481-16.721 40.202-16.721 16.722-40.202 16.722Zm600 0q-23.769 0-40.346-16.722-16.577-16.721-16.577-40.202 0-23.48 16.721-40.202 16.721-16.721 40.202-16.721 23.769 0 39.962 16.721 16.192 16.722 16.192 40.202 0 23.481-16.192 40.202-16.193 16.722-39.962 16.722ZM480-440q-36.539 0-62.116-25.577-25.577-25.577-25.577-62.116 0-36.538 25.577-62.115 25.577-25.577 62.116-25.577t62.116 25.577q25.577 25.577 25.577 62.115 0 36.539-25.577 62.116Q516.539-440 480-440Zm.135-135.385q-20.212 0-34.02 13.673-13.807 13.672-13.807 33.884t13.672 34.02Q459.653-480 479.865-480q20.212 0 34.02-13.673 13.807-13.673 13.807-33.885 0-20.212-13.672-34.019-13.673-13.808-33.885-13.808ZM480-296.923Zm0-230.77Z"/></svg>