<svg xmlns="http://www.w3.org/2000/svg" height="20" viewBox="0 -960 960 960" width="20"><path d="M45.957-230.956q-22.088 0-38.544-16.457-16.457-16.457-16.457-38.544V-307q0-49.102 48.326-79.573Q87.61-417.044 164-417.044q6.153 0 12.866-.065 6.712-.065 13.611.986-17.13 24.644-25.978 52.853-8.848 28.208-8.848 59.27v73.044H45.957Zm239.843 0q-21.93 0-38.387-16.457t-16.457-38.544V-304q0-69.026 68.761-112.035T480-459.044q112.07 0 180.557 43.009T729.044-304v18.043q0 22.087-16.457 38.544-16.457 16.457-38.387 16.457H285.8Zm518.549 0V-304q0-31.354-8.565-59.699-8.566-28.345-26.261-52.424 6.899-1.051 13.611-.986 6.713.065 12.866.065 76.391 0 124.718 30.471 48.326 30.471 48.326 79.573v21.043q0 22.087-16.457 38.544-16.457 16.457-38.544 16.457H804.349ZM161.752-442.783q-37.578 0-63.491-26.161-25.913-26.161-25.913-63.739 0-37.579 26.16-63.492 26.161-25.913 63.74-25.913 37.578 0 63.491 26.161 25.913 26.161 25.913 63.739 0 37.579-26.16 63.492-26.161 25.913-63.74 25.913Zm636 0q-37.578 0-63.491-26.161-25.913-26.161-25.913-63.739 0-37.579 26.16-63.492 26.161-25.913 63.74-25.913 37.578 0 63.491 26.161 25.913 26.161 25.913 63.739 0 37.579-26.16 63.492-26.161 25.913-63.74 25.913Zm-317.885-45.696q-53.824 0-91.367-37.676-37.544-37.677-37.544-91.501 0-53.823 37.677-91.367 37.676-37.544 91.5-37.544T571.5-708.89q37.544 37.677 37.544 91.5 0 53.824-37.677 91.368-37.676 37.543-91.5 37.543Z"/></svg>