<svg xmlns="http://www.w3.org/2000/svg" height="24" viewBox="0 -960 960 960" width="24"><path d="M796.783-47.39 54-789.175q-13.13-13.13-12.848-31.326.283-18.196 13.413-31.326 13.13-13.131 31.044-13.131 17.913 0 31.043 13.131l742.783 742.217q13.131 13.131 12.848 31.11-.282 17.978-13.413 31.108-13.13 13.13-31.043 13.13-17.914 0-31.044-13.13ZM440-195.479q-67.696 0-116.109-48.413T275.478-360q0-68.261 48.413-116.391Q372.304-524.522 440-524.522h3.957l89.609 89.044H440q-30.739 0-53.109 22.087-22.369 22.087-22.369 53.391 0 30.739 22.369 53.109 22.37 22.369 53.109 22.369h244.522l155.566 155.566q-17.392 12.522-37.696 19.5-20.305 6.979-42.392 6.979-47.479 0-82.153-27.022-34.674-27.022-47.804-65.979H440Zm452.218-6.652L722.13-372.218q9-2.435 18.218-3.87 9.217-1.435 19.652-1.435 57.348 0 97.435 40.088 40.088 40.087 40.088 97.435 0 10.435-1.435 19.652-1.435 9.218-3.87 18.218ZM622.696-471.652l-64.087-64.088q16.782-9.565 26.826-26.456 10.043-16.891 10.043-37.804 0-31.304-22.087-53.391T520-675.478H418.871l-88.479-89.044H520q68.261 0 116.391 48.131 48.131 48.13 48.131 116.391 0 39.174-16.891 72.478-16.891 33.304-44.935 55.87ZM200-582.477q-57.348 0-97.435-40.088Q62.477-662.652 62.477-720q0-37.652 18.544-68.892 18.544-31.239 49.066-49.5l188.305 187.74q-17.696 29.392-48.37 48.783-30.674 19.392-70.022 19.392Z"/></svg>