<svg xmlns="http://www.w3.org/2000/svg" height="24" viewBox="0 -960 960 960" width="24"><path d="M481.231-100.001q-31.077 0-61.577-4.308-30.5-4.308-59.038-14.923 14.845-7.923 27.691-21.077 12.846-13.153 21.384-27.999 8-11.846 14.154-30.077 6.154-18.23 6.154-41.615 0-59.538-36.23-101.692-36.231-42.154-97.615-48.307-23.616-41.308-61.462-60.654-37.846-19.346-74.307-19.346-14.846 0-30.346 2.769-15.499 2.769-29.653 9.076-4.154-69.614 17.346-135.075 21.499-65.461 63.576-118.769 42.076-53.307 101.383-90.269 59.308-36.962 129.999-49.193 14.077-2.769 20.385 5.885 6.307 8.654.846 22.73-34.692 95.308-24.115 188.231 10.578 92.923 55.501 169.153 44.923 76.231 119.692 129.077 74.768 52.846 169.076 68.616 14.692 2.769 18.845 11.923 4.154 9.154-5.076 20.23-55.462 67.307-130.154 101.46-74.691 34.154-156.459 34.154Zm-201.231-70H160q-45.769 0-77.884-31.423Q50-232.846 50-280q0-45.769 32.115-77.884T160-389.999q35.538 0 64.307 22.5 28.769 22.5 40.769 57.5H280q29.154 0 49.576 20.423 20.423 20.422 20.423 49.576t-20.423 49.576Q309.154-170.001 280-170.001Z"/></svg>