<svg xmlns="http://www.w3.org/2000/svg" height="20" viewBox="0 -960 960 960" width="20"><path d="M473-80q-31 0-61.5-4.5T350-99q25-11 44-27.5t31-39.5q11 2 25 2h25q51.29 0 100.645-15.5T667-228q-87-28-153.193-82.855-66.193-54.854-108.18-127.5Q363.639-511 348.819-596 334-681 349-769q-92 36-143 119t-51 168q-22 0-44 5t-40 16q-3-80 23-152t75-128q49-56 117.5-92.5T437.149-878q16.851-2 24.351 9t-.5 28q-42 94-35 188t52.317 171.416q45.318 77.415 124 130Q681-299 782-289q18.821 2.174 24.911 13.587Q813-264 803-250q-58 82-145.5 126T473-80Zm-195-81H159.412Q110-161 75-194.5 40-228 40-278.702q0-49.707 34.78-84.503Q109.56-398 159.245-398 198-398 228.5-375q30.5 23 42.5 56h7q34 0 57 23.206 23 23.207 23 55.794 0 32.587-23 55.794Q312-161 278-161Zm117-292Z"/></svg>