<svg xmlns="http://www.w3.org/2000/svg" height="20" viewBox="0 -960 960 960" width="20"><path d="M471.462-120q-27.154 0-57.654-4.115-30.5-4.116-54.577-13.346 12.692-4.846 24.384-13.654 11.693-8.808 16.77-19.5 8-10.693 14.807-27.654Q422-215.231 422-240q0-53.077-31.961-93.885-31.962-40.807-88.731-49.115-25.231-49.615-65.423-64.308Q195.692-462 155.769-462q-9.692 0-21.692 1.538-12 1.539-22.308 7.154-5.308-59.231 10.692-118.154 16-58.923 51.154-109.538 35.154-50.616 88.27-89.039 53.115-38.423 120.5-54.884 13.154-3.539 20.269 4.769 7.116 8.308 2.192 21.461-27.384 98.616-14.23 186.462 13.153 87.846 57.5 158.808 44.346 70.961 114.384 121.154 70.039 50.192 155.654 71.73 14.385 3.539 17.693 12.347 3.307 8.807-5.154 18.961-54.923 56.616-122.808 82.923Q540-120 471.462-120ZM278-181H159q-40.539 0-69.77-27.346Q60-235.692 60-279q0-40.539 29.23-69.769Q118.462-378 159-378q32.077 0 59.115 23 27.039 23 39.039 56H278q26.308 0 43.154 16.846Q338-265.308 338-240q0 25.308-16.846 42.154Q304.308-181 278-181Z"/></svg>