<svg xmlns="http://www.w3.org/2000/svg" height="20" viewBox="0 -960 960 960" width="20"><path d="M472.231-100.001q-29.077 0-59.577-4.308-30.5-4.308-58.038-13.923 18.845-7.923 34.191-20.577 15.346-12.653 23.884-29.499 8-11.846 13.654-29.577 5.654-17.73 5.654-42.115 0-56.538-32.73-98.692-32.731-42.154-94.115-54.307-25.616-47.308-66.962-63.154-41.346-15.846-82.807-15.846-15.846 0-32.846 3.269-16.999 3.269-31.153 11.576-4.154-69.614 16.846-135.075 20.999-65.461 63.076-118.769 42.076-53.307 102.883-90.769 60.808-37.462 135.499-49.693 15.077-2.769 22.385 6.885 7.307 9.654.846 24.73-34.692 96.308-24.615 187.231 10.078 90.923 55.001 165.153 44.923 74.231 119.192 125.577 74.268 51.346 167.576 67.116 16.692 2.769 21.345 12.923 4.654 10.154-4.576 22.23-56.462 69.307-134.154 104.46-77.691 35.154-160.459 35.154Zm-194.231-71H159q-44.769 0-76.884-30.423Q50-231.846 50-279q0-44.769 32.115-76.884T159-387.999q35.538 0 64.307 23 28.769 23 40.769 56H278q30.154 0 50.076 19.923 19.923 19.922 19.923 49.076t-19.923 49.076Q308.154-171.001 278-171.001Z"/></svg>