<svg xmlns="http://www.w3.org/2000/svg" height="24" viewBox="0 -960 960 960" width="24"><path d="M477-43q-37 0-72-5.5T338-66q36-17 61.5-44t37.5-64q14 3 22 4t23 1q42 0 87-13.5t84-41.5q-87-31-152-84.5t-104.5-123Q357-501 343.5-584t1.5-172q-85 41-129.5 114.5T169-488q-40 0-73 10.5T43-450q-5-71 17-148t72.5-143q50.5-66 129-112T448-909q34-3 48.5 19t1.5 57q-39 99-35 186.5T507.5-491Q548-423 621-377.5T794-318q37 5 49.5 29.5T836-236q-63 90-155 141.5T477-43ZM280-152H160q-54 0-91-36.5t-37-91.54Q32-334 69.201-371q37.202-37 90.346-37Q201-408 232-385.5t45 57.5h3q37 0 62.5 25.5T368-240q0 37-25.5 62.5T280-152Zm131-310Z"/></svg>