<svg xmlns="http://www.w3.org/2000/svg" height="20" viewBox="0 -960 960 960" width="20"><path d="M407.999-157.433q-88.305-80.392-152.87-148.414-64.565-68.022-106.696-126.826-42.13-58.805-62.543-108.979-20.413-50.174-20.413-93.87 0-94.783 65.674-160.37t160.326-65.587q48.957 0 92.979 18.326t82.805 52.979l-42.217 183.218q-3.87 15.304 6.065 27.608 9.935 12.305 26.239 12.305h63.391L495.87-351.305q-1 8 6 9.283 7 1.282 9-6.283l60.825-220.825q4.435-15.74-5.217-28.544t-25.957-12.804H476.87l64.608-223.871q26.261-13.565 58.131-20.348 31.87-6.782 67.914-6.782 95.652 0 161.326 65.587 65.674 65.587 65.674 160.37 0 42.261-21.413 92.37t-64.957 109.348q-43.543 59.239-110.435 128.327-66.891 69.087-157.848 149.739-13.957 11.957-30.479 17.87-16.521 5.913-35.174 5.913-18.652 0-35.74-6.761-17.087-6.761-30.478-18.717Z"/></svg>