<svg xmlns="http://www.w3.org/2000/svg" height="24" viewBox="0 -960 960 960" width="24"><path d="M438-191q-85-86-143.5-151.5t-94.5-116Q164-509 148-548t-16-71.639q0-81.278 56.436-137.82Q244.873-814 326-814q36.279 0 70.14 12Q430-790 458-767l-53 185q-5 18 3.558 33T432-534h82l-21 234.233Q492-292 499.5-291q7.5 1 9.5-6l87-281q5-18-3-33t-23-15h-82l56-168q20.183-10 42.385-15 22.202-5 45.615-5 81 0 137.5 56.436Q826-701.127 826-620q0 33.277-16.5 72.138Q793-509 757-458q-36 51-93.5 116.5T523-191q-7.897 9-18.949 13.5Q493-173 481.036-173q-11.963 0-23.5-5Q446-183 438-191Z"/></svg>