<svg xmlns="http://www.w3.org/2000/svg" height="24" viewBox="0 -960 960 960" width="24"><path d="M438-196q-85-86-143.5-148T200-453.5Q164-501 148-540t-16-79.639q0-81.278 56.436-137.82Q244.873-814 326-814q36.279 0 70.14 12Q430-790 458-767l-53 185q-5 18 3.558 33T432-534h82l-21 234.233Q492-292 499.5-291q7.5 1 9.5-6l87-281q5-18-3-33t-23-15h-82l56-168q20.183-10 42.385-15 22.202-5 45.615-5 81 0 138.5 56.436Q828-701.127 828-620q0 40.277-17 79.638Q794-501 757.5-452.5q-36.5 48.5-95 110T521-196q-7.897 9-17.949 13.5Q493-178 481.036-178q-11.963 0-23.5-5Q446-188 438-196ZM160-620q0 33 13.5 67.5T220-474q33 44 88 103.5T447-227q4 4 8.5 2.5t5.5-6.5l25-275h-54q-29.193 0-46.596-23.5Q368-553 376-582l50-175q-23-12-48.425-20.5Q352.151-786 326-786q-68.771 0-117.386 48.614Q160-688.771 160-620Zm638 0q0-68.771-48.614-117.386Q700.771-786 632-786q-17 0-33 4t-32 9l-39 119h42q29 0 46.5 23.5T625-578l-97 312q-2 6 3.5 9t10.5-2q79-81 129-136t78-94q28-39 38.5-69t10.5-62Zm-173 42Zm-249-4Z"/></svg>