<svg xmlns="http://www.w3.org/2000/svg" height="24" viewBox="0 -960 960 960" width="24"><path d="M435.923-189.077q-90.539-88.308-151.231-151.115Q224-403 187.423-450.961q-36.577-47.962-52-87.424Q120-577.846 120-619.722q0-83.753 58.182-142.016Q236.363-820 320-820q38.292 0 74.03 13.038 35.739 13.039 64.893 37.885l-51.615 180.385q-5 18.461 4.237 33.577Q420.782-540 436.846-540h78.539l-22.154 238.795q-1 7.82 6.5 8.82t9.5-6l84-272.692q5.23-18.461-3.693-33.692Q580.615-620 564.461-620h-78.307l59.461-178.154q21.295-10.923 44.72-16.385Q613.759-820 638.462-820 722-820 781-761.818 840-703.636 840-620q0 41.136-16.769 81.337-16.769 40.202-53.962 89.509-37.192 49.308-97.538 111.731Q611.385-275 524-189.077q-8.613 9.231-19.576 13.846-10.962 4.616-23.396 4.616-12.434 0-24.423-5-11.99-5-20.682-13.462ZM160-620q0 32.308 12.808 65.077 12.807 32.769 44.423 74.577 31.615 41.807 84.538 98.653 52.923 56.847 133.923 138.077 4 4 8.5 2.5t5.5-6.5L473.307-500h-41.538q-34.456 0-54.997-27.423-20.541-27.423-11.157-61.039l47.231-165.307q-21.385-11.077-44.98-18.654Q344.27-780 320-780q-66.286 0-113.143 46.857T160-620Zm638.462 0q0-66.286-46.858-113.143Q704.747-780 638.462-780q-15.616 0-30.462 3.423t-29.692 8.192L542.77-660h32.307q32.692 2.769 51.116 30.423 18.423 27.654 8.269 60.346l-86.615 280.384q-2 5.77 3.5 8.885t10.5-1.885q73.461-75.23 119.769-126.192 46.307-50.961 72.115-87.538 25.808-36.577 35.269-64.962 9.462-28.384 9.462-59.461Zm-164 50.769Zm-268.847-19.231Z"/></svg>