<svg xmlns="http://www.w3.org/2000/svg" height="20" viewBox="0 -960 960 960" width="20"><path d="M336-336h288v-72H336v72Zm9-288q-33 0-60.5 18T239-560l60 40q8.158-12.917 19.579-21.958Q330-551 344.806-551q14.807 0 27 9Q384-533 392-520l60-40q-19-28-46.5-46T345-624Zm270.193 0q-32.806 0-61 18Q526-588 508-560l60 40q8-13 20.194-22 12.193-9 27-9 14.806 0 26.306 9 11.5 9 19.5 22l60-40q-18-28-45.5-46t-60.307-18ZM480.276-96Q401-96 331-126q-70-30-122.5-82.5T126-330.958q-30-69.959-30-149.5Q96-560 126-629.5t82.5-122Q261-804 330.958-834q69.959-30 149.5-30Q560-864 629.5-834t122 82.5Q804-699 834-629.276q30 69.725 30 149Q864-401 834-331q-30 70-82.5 122.5T629.276-126q-69.725 30-149 30ZM480-480Zm0 312q130 0 221-91t91-221q0-130-91-221t-221-91q-130 0-221 91t-91 221q0 130 91 221t221 91Z"/></svg>