<svg xmlns="http://www.w3.org/2000/svg" height="20" viewBox="0 -960 960 960" width="20"><path d="M173.782-248.998q-20.387 0-34.694-14.246-14.306-14.246-14.306-34.544 0-20.298 14.306-34.755 14.307-14.456 34.694-14.456h448.652q20.387 0 34.694 14.246 14.307 14.246 14.307 34.544 0 20.298-14.307 34.754-14.307 14.457-34.694 14.457H173.782Zm0-182.001q-20.387 0-34.694-14.247-14.306-14.246-14.306-34.543 0-20.298 14.306-34.755 14.307-14.457 34.694-14.457h448.652q20.387 0 34.694 14.247 14.307 14.246 14.307 34.543 0 20.298-14.307 34.755-14.307 14.457-34.694 14.457H173.782Zm0-182.002q-20.387 0-34.694-14.246-14.306-14.246-14.306-34.544 0-20.298 14.306-34.754 14.307-14.457 34.694-14.457h448.652q20.387 0 34.694 14.246 14.307 14.246 14.307 34.544 0 20.298-14.307 34.755-14.307 14.456-34.694 14.456H173.782Zm612.64 364.003q-19.726 0-34.466-14.25-14.739-14.25-14.739-35.316 0-19.285 14.589-33.86 14.59-14.575 35.116-14.575 19.226 0 33.761 14.649 14.535 14.649 14.535 34.544 0 19.895-14.535 34.351-14.535 14.457-34.261 14.457Zm0-182.001q-19.726 0-34.466-13.886-14.739-13.885-14.739-34.411 0-19.226 14.589-34.465 14.59-15.24 35.116-15.24 19.226 0 33.761 15.24 14.535 15.239 14.535 34.965 0 19.726-14.535 33.761-14.535 14.036-34.261 14.036Zm0-181.436q-19.726 0-34.466-14.251-14.739-14.25-14.739-35.315 0-19.285 14.589-33.861 14.59-14.575 35.116-14.575 19.226 0 33.761 14.65 14.535 14.649 14.535 34.543 0 19.895-14.535 34.352-14.535 14.457-34.261 14.457Z"/></svg>