<svg xmlns="http://www.w3.org/2000/svg" height="24" viewBox="0 -960 960 960" width="24"><path d="M180-324.615q-8.5 0-14.25-5.758T160-344.642q0-8.512 5.75-14.243 5.75-5.73 14.25-5.73h453.846q8.5 0 14.25 5.757 5.75 5.758 5.75 14.27 0 8.511-5.75 14.242-5.75 5.731-14.25 5.731H180ZM180-460q-8.5 0-14.25-5.758-5.75-5.757-5.75-14.269t5.75-14.242Q171.5-500 180-500h453.846q8.5 0 14.25 5.758 5.75 5.757 5.75 14.269t-5.75 14.242q-5.75 5.731-14.25 5.731H180Zm0-135.385q-8.5 0-14.25-5.757-5.75-5.758-5.75-14.27 0-8.511 5.75-14.242 5.75-5.731 14.25-5.731h453.846q8.5 0 14.25 5.758t5.75 14.269q0 8.512-5.75 14.243-5.75 5.73-14.25 5.73H180ZM775.385-320q-10.462 0-17.539-6.856-7.077-6.855-7.077-16.99 0-10.789 7.077-18.087t17.539-7.298q10.461 0 17.538 7.298T800-343.846q0 10.135-7.077 16.99Q785.846-320 775.385-320Zm0-134.615q-10.462 0-17.539-6.885-7.077-6.885-7.077-18.5 0-10.135 7.077-16.99 7.077-6.856 17.539-6.856 10.461 0 17.538 6.856Q800-490.135 800-480q0 11.615-7.077 18.5t-17.538 6.885Zm0-136.154q-10.462 0-17.539-6.856-7.077-6.856-7.077-16.991 0-10.788 7.077-18.086Q764.923-640 775.385-640q10.461 0 17.538 7.298T800-614.616q0 10.135-7.077 16.991t-17.538 6.856Z"/></svg>