<svg xmlns="http://www.w3.org/2000/svg" height="20" viewBox="0 -960 960 960" width="20"><path d="M315.403-181.001h329.988l116.782-337.597L480-713.173l-282.173 194.26 117.576 337.912Zm-1.359 98.002q-31.37 0-56.707-18.088-25.338-18.087-36.164-47.435L104.391-486.999q-11.392-30.914-1.286-62.252Q113.21-580.589 141-599.392l283.304-194.26q24.851-18.088 55.513-18.088t55.879 18.088L819-599.392q27.79 18.803 37.895 50.141 10.106 31.338-1.286 62.252L738.827-148.522q-10.826 29.348-36.164 47.435-25.337 18.088-56.707 18.088H314.044ZM480-447.87Z"/></svg>