<svg xmlns="http://www.w3.org/2000/svg" height="20" viewBox="0 -960 960 960" width="20"><path d="M624-96v-80q-52-16-86-59.5T504-336h72q0 40 28 68t68 28h120q30 0 51 21t21 51v72H624Zm119.788-192Q714-288 693-309.212q-21-21.213-21-51Q672-390 693.212-411q21.213-21 51-21Q774-432 795-410.788q21 21.213 21 51Q816-330 794.788-309q-21.213 21-51 21ZM360-384q0-130 91-221t221-91v72q-100 0-170 69.857T432-384h-72Zm144 0q0-70 49.14-119T672-552v72q-40 0-68 28t-28 68h-72ZM96-528v-72q0-30 21-51t51-21h120q40 0 68-28t28-68h72q0 57-34 100.5T336-608v80H96Zm119.788-192Q186-720 165-741.212q-21-21.213-21-51Q144-822 165.212-843q21.213-21 51-21Q246-864 267-842.788q21 21.213 21 51Q288-762 266.788-741q-21.213 21-51 21Z"/></svg>