<svg xmlns="http://www.w3.org/2000/svg" height="20" viewBox="0 -960 960 960" width="20"><path d="M389.441-465.231q-10.595 0-18.787-7.982-8.193-7.981-8.193-18.576 0-10.596 7.982-18.788t18.577-8.192q10.595 0 18.788 7.982Q416-502.806 416-492.211q0 10.596-7.982 18.788t-18.577 8.192Zm181.539 0q-10.595 0-18.788-7.982Q544-481.194 544-491.789q0-10.596 7.982-18.788t18.577-8.192q10.595 0 18.787 7.982 8.193 7.981 8.193 18.576 0 10.596-7.982 18.788t-18.577 8.192ZM220-184q-6.8 0-11.4-4.786-4.6-4.787-4.6-11.862 0-6.66 2.423-15.237 2.423-8.576 13.577-.115h32v-503.385q0-24.315 16.162-40.465Q284.323-776 308.656-776h343.012Q676-776 692-759.85t16 40.465V-216h32q6.8 0 11.4 4.547 4.6 4.548 4.6 11.27 0 6.722-4.6 11.452Q746.8-184 740-184H220Zm64-32h180v-528H308.615q-9.231 0-16.923 7.692Q284-728.615 284-719.385V-216Zm212 0h180v-503.385q0-9.23-7.692-16.923Q660.616-744 651.385-744H496v528Zm-16-256Z"/></svg>