<svg xmlns="http://www.w3.org/2000/svg" height="20" viewBox="0 -960 960 960" width="20"><path d="m714-72 46-47-207-207-47 46q-43 42.61-43 103.805Q463-115 506-72q43 43 104.195 43Q671.39-29 714-72Zm97-98 46-46q44-43.61 44-103.676t-43.545-103.195Q813.91-466 753.26-466q-60.65 0-103.26 43l-46 46 207 207ZM300-588h360v-72H300v72Zm180-172q13.867 0 22.933-9.067Q512-778.133 512-792q0-13.867-9.067-22.933Q493.867-824 480-824q-13.867 0-22.933 9.067Q448-805.867 448-792q0 13.867 9.067 22.933Q466.133-760 480-760Zm-74 650H228q-48.675 0-83.337-34.663Q110-179.325 110-228v-504q0-48.675 34.663-83.338Q179.325-850 228-850h138q15-33 45.5-52.5T480-922q38 0 68.5 19.5T594-850h138q48.675 0 83.338 34.662Q850-780.675 850-732v223q-53-28-113-25.5T627-498v-18H300v72h268l-72 72H300v72h130q-29 42-34.5 92t10.5 98Z"/></svg>