<svg xmlns="http://www.w3.org/2000/svg" height="20" viewBox="0 -960 960 960" width="20"><path d="M336-624q-50 0-85-35t-35-85q0-50 35-85t85-35q40 0 71.5 23t42.5 61h270v72h-48v84h-72v-84H450q-11 38-42.5 61T336-624Zm0-72q20.4 0 34.2-13.8Q384-723.6 384-744q0-20.4-13.8-34.2Q356.4-792 336-792q-20.4 0-34.2 13.8Q288-764.4 288-744q0 20.4 13.8 34.2Q315.6-696 336-696Zm35.789 468Q387-228 397.5-238.289q10.5-10.29 10.5-25.5Q408-279 397.711-289.5q-10.29-10.5-25.5-10.5Q357-300 346.5-289.711q-10.5 10.29-10.5 25.5Q336-249 346.289-238.5q10.29 10.5 25.5 10.5Zm216 0Q603-228 613.5-238.289q10.5-10.29 10.5-25.5Q624-279 613.711-289.5q-10.29-10.5-25.5-10.5Q573-300 562.5-289.711q-10.5 10.29-10.5 25.5Q552-249 562.289-238.5q10.29 10.5 25.5 10.5ZM240-96v-240l72-192h337l71 192v240h-72v-48H312v48h-72Zm95-288h291l-26-72H362l-27 72Z"/></svg>