<svg xmlns="http://www.w3.org/2000/svg" height="24" viewBox="0 -960 960 960" width="24"><path d="M530-710h140v-60H530v60ZM160.175-270q12.825 0 21.325-8.675 8.5-8.676 8.5-21.5 0-12.825-8.675-21.325-8.676-8.5-21.5-8.5-12.825 0-21.325 8.675-8.5 8.676-8.5 21.5 0 12.825 8.675 21.325 8.676 8.5 21.5 8.5ZM480-82q-72 0-138-22t-123-62q-14 6-28.625 9T160-154q-60.833 0-103.417-42.583Q14-239.167 14-300q0-27.367 9.067-51.165Q32.133-374.962 48-394q-10.214-28.239-16.714-57.487Q24.786-480.735 22-512l115-12q2 20 6 39.5t10 38.5h7q60.833 0 103.417 42.583Q306-360.833 306-300q0 12-2 24t-6 23q28 19 59 31.5t65 18.5v-217q0-9.35-6.325-15.675Q409.35-442 400-442q-74 0-126-52t-52-126q0-74 52-126t126-52h20v-88h360v88h78v116h-78v88H420v-88h-20q-25.575 0-43.788 18.213Q338-645.575 338-620t18.212 43.787Q374.425-558 400-558q57.5 0 97.75 40.25T538-420v217q69-13 127-52t97-99l-44-22 52-103 40 20q5-16 7.722-32.036Q820.444-507.073 822-524l116 12q-3 28-8.5 54T916-405.867L962-383l-52 103-43-21q-62 100-164 159.5T480-82Zm50-628v-60 60ZM160-300Z"/></svg>