<svg xmlns="http://www.w3.org/2000/svg" height="20" viewBox="0 -960 960 960" width="20"><path d="M646-565h-52v63h52v-63ZM263.789-802Q286-802 302-786.15T318-748v75h-.162Q340-673 356-657.211q16 15.79 16 38Q372-597 356.15-581T318-565v56q2-1 5.5-3t5.625-3.091Q342-523 355-513t13 28.323Q368-460 359-436t-30.636 36.667Q326-398 322.5-396.5q-3.5 1.5-4.5 3.117V-228.8q0 27.8-22.133 49.3-22.133 21.5-49.812 21.5H202q-18.444 0-32.722-13Q155-184 148-208.469q-6-21.922 8.5-39.726Q171-266 193.297-266h-1.216q6.919 0 12.419-5.379 5.5-5.38 5.5-12.552V-342q-.192.455-.5-.091-.308-.545-.5.091-21 7-39.5-3.5T146-377.061Q141-399 153.5-419.5T189-448q4-1 9.833-3.182Q204.667-453.364 210-456v-109h.162Q188-565 172-580.789q-16-15.79-16-38Q156-641 171.85-657T210-673v-75q0-22.3 15.789-38.15 15.79-15.85 38-15.85ZM662-662q-19.067-8.04-25.533-26.64Q630-707.24 641-725q6-12 13-24l14-24q12-21 33-30.5t42-2.5q21 8 28.5 29t-2.5 40q-6 12-12.5 24.5T742-689q-12 21-34.5 28t-45.5-1Zm-89-22q-21 11-43.5 4.5T494-706q-6.08-9-13.04-18.5Q474-734 467-743q-13-17-9-37.5t23.067-29.567Q503-820 526.875-814.391 550.75-808.783 566-789q5 8 11 17t12 17q13 18.114 8 39.557T573-684ZM410-157q-22.3 0-38.15-15.873Q356-188.745 356-211.078 356-225 362.5-237t18.5-20q36-23 60.5-59t36.5-78h1q-22.3 0-37.65-15.789-15.35-15.79-15.35-38Q426-470 441.85-486T480-502h6v-63h2.162Q470-565 457-578.789q-13-13.79-13-40Q444-641 459.84-657t38.124-16h250.751Q771-673 787-656.711q16 16.29 16 40.5Q803-595 788.15-580T752-565h2v63h12.789Q789-502 805-486.211q16 15.79 16 38 0 22.211-15.883 38.074-15.884 15.863-38.234 15.863h-13.116v182.228q0 22.32-15.884 38.183Q722-158 699.902-158q-22.098 0-37.811-15.85-15.713-15.85-15.713-38.15v-182H589q-13 66-52.456 127.342Q497.089-205.315 441-167q-7 5-14.5 7.5T410-157Z"/></svg>