<svg xmlns="http://www.w3.org/2000/svg" height="20" viewBox="0 -960 960 960" width="20"><path d="M261.717-151.869q-95.347 0-162.239-66.533-66.891-66.533-66.891-161.402 0-73.913 55.315-128.153 55.315-54.239 129.228-54.239 64.196 0 114.153 40.142 49.956 40.141 64.913 100.141 4.478 17.956 17.337 29.435Q426.391-381 442.109-381q20.717 0 33.195-13.978 12.479-13.979 9-31.696-15.434-92.87-87.38-157.185t-177.729-67.163q35.587-68.674 106.457-112.891 70.87-44.218 154.348-44.218 117.674 0 201.989 80.859t86.946 196.576q74.152 13.826 116.315 66.142 42.163 52.315 42.163 125.271 0 78.109-55.652 132.761Q816.109-151.869 738-151.869H261.717Z"/></svg>