<svg xmlns="http://www.w3.org/2000/svg" height="20" viewBox="0 -960 960 960" width="20"><path d="M259.716-180.001q-83.254 0-141.484-58.522Q60.002-297.044 60.002-381q0-72.626 45.653-129.543 45.654-56.918 120.269-67.763 19.615-90.385 91.538-146.039 71.923-55.654 162.64-55.654 108.667 0 185.282 74.975Q741.999-630.049 741.999-524v20.001h12.308q66.538 5.923 106.115 54.332Q899.999-401.259 899.999-341q0 66.922-47.538 113.961-47.539 47.038-114.229 47.038H259.716ZM261-244h477q41.16 0 69.58-28.387 28.42-28.388 28.42-69.5Q836-383 807-411.5T736.824-440H678v-79.018Q678-601 620.085-658.5T480-716q-64.897 0-115.949 37.693-51.052 37.692-69.436 97.539 62 9.846 108.499 54.654 46.5 44.807 57.038 110.653 2.847 13.157-6.64 23.809Q444.025-381 428.922-381q-10.538 0-19.73-7.884-9.192-7.885-13.038-21.423-9.692-47.462-46.961-78.077Q311.923-519 261.778-519q-57.08 0-97.429 40.379Q124-438.242 124-381.121T164.121-284q40.122 40 96.879 40Z"/></svg>