<svg xmlns="http://www.w3.org/2000/svg" height="24" viewBox="0 -960 960 960" width="24"><path d="M260-200q-75.077 0-127.539-52.461Q80-304.923 80-380q0-66.462 45.807-120.192 45.808-53.731 118.039-58.424 14.231-90.769 82.077-146.077Q393.769-760 480-760q100.539 0 170.269 69.807Q720-620.385 720-520v40h24.615q58.078 1.846 96.731 42.769Q880-396.308 880-341q0 58.846-40.577 99.923Q798.846-200 740-200H260Zm0-40h480q42 0 71-29t29-71q0-42-29-71t-71-29h-60v-80q0-83-58.5-141.5T480-720q-69.923 0-125.461 44.885Q299-630.231 285.231-558.539q58 8.693 102 50.808t51.077 106.808q1.692 7.769-4.269 14.346Q428.077-380 418.846-380q-7.077 0-12.961-5.269-5.885-5.27-7.577-13.346-6.385-51.924-45.923-86.654Q312.846-520 260-520q-58 0-99 41t-41 99q0 58 41 99t99 41Z"/></svg>