<svg xmlns="http://www.w3.org/2000/svg" height="20" viewBox="0 -960 960 960" width="20"><path d="M261-200q-75.077 0-128.039-52.961Q80-305.923 80-381q0-68.923 50.538-119.846 50.539-50.923 120.231-50.923 64.538 0 112.385 42.423 47.846 42.423 55.692 105.5 2.462 10.077 9.577 16.461Q435.538-381 443.615-381q9.231 0 15.077-6.577 5.847-6.577 5.154-14.346-7.077-83.846-69.308-142.231-62.23-58.385-157.846-52.616 31.231-69.307 98.462-116.269Q402.385-760 480-760q98.308 0 170.154 69.346Q722-621.308 722-524v40h24.615q65.077 10 99.231 46.384Q880-401.231 880-340q0 58.077-41.961 99.039Q796.077-200 738-200H261Z"/></svg>