<svg xmlns="http://www.w3.org/2000/svg" height="20" viewBox="0 -960 960 960" width="20"><path d="M261-180.001q-83.538 0-142.268-58.731-58.73-58.73-58.73-142.268 0-70.461 52.269-122.923 52.269-52.461 123.115-52.461 63.769 0 112.192 41.461 48.423 41.462 59.346 103.001 3.231 13.538 13.038 22.23Q429.77-381 441.308-381q14.615 0 23.538-10.038t7.076-22.423q-10.538-86.923-75.653-147.615-65.115-60.692-163.423-60.307 31.616-68.154 99.231-113.385Q399.693-779.999 480-779.999q107.153 0 184.576 74.923Q741.999-630.153 741.999-524v20.001h12.308q68.538 10 107.115 53.692T899.999-340q0 66.538-47.731 113.268-47.73 46.731-114.268 46.731H261Z"/></svg>