<svg xmlns="http://www.w3.org/2000/svg" height="24" viewBox="0 -960 960 960" width="24"><path d="M807.385-83.692 546.461-344.615H124.615v-70.77h351.077L99.077-792l28.308-28.308L835.692-112l-28.307 28.308Zm-78-260.923-7.847-7.847v-62.923h35.385v70.77h-27.538Zm67.538 0v-70.77h35.385v70.77h-35.385Zm-115.385-35.539-35.23-35.231h35.23v35.231Zm40-90.615v-52q0-35.923-23-58.731t-55-22.808h-62q-45.23 0-77.307-32.731-32.077-32.732-32.077-79.73 0-44.428 32.077-75.368 32.077-30.94 77.307-30.94v35.384q-30 0-52 20.086t-22 50.692q0 30.607 22 53.915 22 23.307 52 23.307h62q46.77 0 80.077 33.308 33.308 33.308 33.308 80.385v55.231h-35.385Zm75.385 0v-90q0-66-46-107.846-46-41.847-114-41.847v-35.384q30 0 51.231-21.231t21.231-51.231h35.385q0 29-11.77 49.808-11.769 20.807-29.769 33.784 52.154 16.87 90.615 61.639 38.462 44.769 38.462 112.308v90h-35.385Z"/></svg>