<svg xmlns="http://www.w3.org/2000/svg" height="24" viewBox="0 -960 960 960" width="24"><path d="M799.913-31.694 524.609-307H62.477v-146.002h316.13L45.826-785.782 107.478-848 862.131-93.912l-62.218 62.218ZM773.784-307 720-360.783v-92.218h68.479v146.002h-14.695Zm54.695 0v-146.002h69.044v146.002h-69.044ZM680-400.783l-52.218-52.218H680v52.218Zm40-92.218v-50.869q0-39-23-60.065-23-21.066-55-21.066h-62q-59.543 0-101.011-41.436-41.468-41.437-41.468-100.935 0-59.499 41.468-101.325T580-910.523v69.044q-30 0-52 21t-22 53q0 32 22 53t52 21h62q60.522 0 103.5 38.826 42.979 38.826 42.979 95.652v66H720Zm108.479 0v-90q0-66-46-114t-114-48v-68.478q30 0 52-22t22-52h69.044q0 32.391-12.131 57.587-12.13 25.196-32.391 42.369 54.869 20.913 92.695 77.895 37.827 56.982 37.827 126.627v90h-69.044Z"/></svg>