<svg xmlns="http://www.w3.org/2000/svg" height="20" viewBox="0 -960 960 960" width="20"><path d="M734.769-734.769V-776H776v41.231h-41.231Zm0 137.692v-41.231H776v41.231h-41.231Zm0 137.692v-41.23H776v41.23h-41.231Zm0 137.693v-41.231H776v41.231h-41.231ZM184-184v-41.231h592V-184H184Zm413.077-550.769V-776h41.231v41.231h-41.231Zm0 275.384v-41.23h41.231v41.23h-41.231ZM459.385-734.769V-776h41.23v41.231h-41.23Zm0 137.692v-41.231h41.23v41.231h-41.23Zm0 137.692v-41.23h41.23v41.23h-41.23Zm0 137.693v-41.231h41.23v41.231h-41.23ZM321.692-734.769V-776h41.231v41.231h-41.231Zm0 275.384v-41.23h41.231v41.23h-41.231ZM184-734.769V-776h41.231v41.231H184Zm0 137.692v-41.231h41.231v41.231H184Zm0 137.692v-41.23h41.231v41.23H184Zm0 137.693v-41.231h41.231v41.231H184Z"/></svg>