<svg xmlns="http://www.w3.org/2000/svg" height="24" viewBox="0 -960 960 960" width="24"><path d="M798.154-105.23 697.538-205.846q-42.615 40.385-99.653 63.116Q540.846-120 480-120q-66.308 0-124.5-25.038-58.192-25.039-101.808-68.654-43.615-43.616-68.654-101.808Q160-373.692 160-440q0-61.538 21.961-117.423 21.962-55.885 63.885-100.115L105.23-798.154l28.308-28.308 692.924 692.924-28.308 28.308ZM375.385-860v-40h209.23v40h-209.23Zm393.384 556L500-572.769v-51.846h-40v11.846L343.769-729q31.077-15.385 66.269-23.193Q445.231-760 480-760q56.923 0 110.962 20.384Q645-719.231 691.385-680.462l43.692-43.692 28.308 28.308-43.692 43.692q38.769 46.385 59.538 100.808Q800-496.923 800-440q0 34.308-7.807 69.269-7.808 34.962-23.424 66.731Z"/></svg>