<svg xmlns="http://www.w3.org/2000/svg" height="24" viewBox="0 -960 960 960" width="24"><path d="M783.384-289.001 738.385-334q11-26.615 16.307-53.115Q760-413.615 760-440q0-116-82-198t-198-82q-24 0-51.769 5-27.77 5-54.846 16l-44.999-44.999q34.538-17.692 73.384-26.846 38.846-9.154 78.23-9.154 58.461 0 114.231 20.193Q650-739.614 698.692-701.229l49.845-49.846 42.153 42.153-49.845 49.846q38.384 48.692 58.769 104.653Q819.999-498.461 819.999-440q0 38.154-9.154 76.384-9.154 38.231-27.461 74.615ZM509.999-562.385v-69.922h-59.998v9.923l59.998 59.999ZM795.077-80.617l-98.308-98.308q-45.307 37.692-101.576 58.308-56.27 20.616-115.193 20.616-70.154 0-131.999-26.77-61.846-26.769-108.154-73.076-46.307-46.308-73.076-108.154-26.77-61.845-26.77-131.999 0-60.769 20.231-116.462 20.231-55.692 58.693-100.307L80.617-795.077l42.153-42.153 714.46 714.46-42.153 42.153ZM480-160q46.616 0 91.039-16.269 44.424-16.27 81.731-46.04L261.078-614.001q-29.77 36.538-45.424 80.77Q200-489 200-440q0 116 82 198t198 82ZM367.693-850.001v-59.998h224.614v59.998H367.693Zm89.539 431.538ZM556.385-517Z"/></svg>