<svg xmlns="http://www.w3.org/2000/svg" height="20" viewBox="0 -960 960 960" width="20"><path d="m799.218-259.521-74.914-75.349q6.174-17.912 9.544-38.238 3.369-20.326 3.369-43.065 0-107.739-74.739-182.478T480-673.39q-23.87 0-43.913 3.369-20.043 3.37-36.825 10.544l-74.914-75.349q36.13-19.565 75.261-28.065 39.13-8.5 80.391-8.5 61.391 0 117.087 19.5 55.696 19.5 100.131 56.065l58.783-58.783 63 64-57.783 58.783q36 43.87 55 99.566 19 55.695 19 116.087 0 42.391-9 82.022-9 39.63-27 74.63ZM524.479-533.695v-76.174h-72.566v3.043l72.566 73.131Zm240.13 469-68.826-69.825q-45 36-99.913 54.5T480-61.52q-74.522 0-138.913-27.913-64.392-27.913-112.436-75.674-48.043-47.761-75.956-112.153-27.913-64.391-27.913-138.913 0-58.131 18.5-113.326 18.5-55.196 54.5-103.022l-114-114L141-803.173l680.826 681.261-57.217 57.218ZM480-159.52q40.739 0 77.065-11.522t68.065-34.13l-355-355.565q-22.608 32.305-34.978 69.478-12.369 37.174-12.369 75.087 0 107.739 74.739 182.195Q372.261-159.521 480-159.521ZM342.477-816v-89.523h275.046V-816H342.477Zm104.871 433.045Zm114.435-114.436Z"/></svg>