<svg xmlns="http://www.w3.org/2000/svg" height="24" viewBox="0 -960 960 960" width="24"><path d="m790.565-45.717-91.695-91.696q-48 35-104.098 53.5T480-65.413q-75.913 0-142.848-29.098-66.935-29.097-117.011-79.054-50.076-49.956-79.174-116.891-29.098-66.935-29.098-142.848 0-60.478 18.5-116.696 18.5-56.217 53.5-102.413l-130.5-130.5L112-841.304l737.196 736.956-58.631 58.63ZM352.587-840v-87.413h254.826V-840H352.587Zm453.544 575.087L523.587-547.217v-86.805h-80.239l-.239 6.326-132.5-132.5q38.478-20.239 81.456-30.739t87.935-10.5q61.435 0 119.652 20 58.218 20 108.978 58.239l58.87-58.869 61.5 61.5-58.869 58.869q38 50.522 58 108.74 20 58.217 20 119.652 0 43.435-10.5 85.413-10.5 41.978-31.5 82.978Z"/></svg>