<svg xmlns="http://www.w3.org/2000/svg" height="24" viewBox="0 -960 960 960" width="24"><path d="M580-476q24.36 0 41.18-16.82T638-534q0-24.36-16.82-41.18T580-592q-24.36 0-41.18 16.82T522-534q0 24.36 16.82 41.18T580-476Zm-200 0q24.36 0 41.18-16.82T438-534q0-24.36-16.82-41.18T380-592q-24.36 0-41.18 16.82T322-534q0 24.36 16.82 41.18T380-476Zm100.129 196Q544-280 595.5-316q51.5-36 72.5-96H292q21 60 72.629 96 51.629 36 115.5 36ZM480-86q-81 0-153-31t-125.5-84.5Q148-255 117-327T86-480q0-81 31-153t84.5-125.5Q255-812 327-843t153-31q81 0 153 31t125.5 84.5Q812-705 843-633t31 153q0 81-31 153t-84.5 125.5Q705-148 633-117T480-86Zm18-525q26 0 44.5-10t18.5-30q0-15-11-25t-24.8-10q-9.2 0-17.012 3-7.813 3-17.188 3-15 0-26-10.5T454-719q0-8 3-15t8-14q-19.691 2.25-38.345 5.625Q408-739 389-732q-2 5-2.5 9.5t-.5 9.5q0 41.727 31.5 71.864Q449-611 498-611Z"/></svg>