<svg xmlns="http://www.w3.org/2000/svg" height="20" viewBox="0 -960 960 960" width="20"><path d="M576.113-466Q553-466 536.5-482.387q-16.5-16.388-16.5-39.5Q520-545 536.387-561.5q16.388-16.5 39.5-16.5Q599-578 615.5-561.613q16.5 16.388 16.5 39.5Q632-499 615.613-482.5q-16.388 16.5-39.5 16.5Zm-192 0Q361-466 344.5-482.387q-16.5-16.388-16.5-39.5Q328-545 344.387-561.5q16.388-16.5 39.5-16.5Q407-578 423.5-561.613q16.5 16.388 16.5 39.5Q440-499 423.613-482.5q-16.388 16.5-39.5 16.5Zm95.781 178q-61.894 0-113.49-36T294-420h372q-22 60-73.106 96-51.106 36-113 36ZM480-110q-76 0-143.633-29.1-67.634-29.1-117.9-79.367-50.267-50.266-79.367-117.9Q110-404 110-480q0-76 29.1-143.633 29.1-67.634 79.367-117.9 50.266-50.267 117.9-79.367Q404-850 480-850q76 0 143.633 29.1 67.634 29.1 117.9 79.367 50.267 50.266 79.367 117.9Q850-556 850-480q0 76-29.1 143.633-29.1 67.634-79.367 117.9-50.266 50.267-117.9 79.367Q556-110 480-110Zm0-118q106 0 179-73t73-179q0-106-73-179t-179-73q1 0 4 .5t4-1.5q-16 3-25.5 13.5T453-694q0 9.12 6.44 15.56Q465.88-672 475-672q17 0 23.5-9t20.5-9q13.857 0 23.429 8Q552-674 552-661q0 15-19 30.5T475-615q-34 0-56.5-22.5T396-694q0-6 1.5-13.5T403-720q-81 26-128 93t-47 147.135Q228-374 301-301q73 73 179 73Zm0-252Z"/></svg>