<svg xmlns="http://www.w3.org/2000/svg" height="24" viewBox="0 -960 960 960" width="24"><path d="M275.385-350.769q-62.18 0-105.706-43.473-43.525-43.473-43.525-105.577t43.472-105.758q43.473-43.654 105.578-43.654 62.104 0 105.758 43.526Q424.615-562.18 424.615-500q0 32.385-12.615 61.231-12.615 28.846-37.384 48h210.768q-24.769-19.154-37.384-48-12.615-28.846-12.615-61.231 0-62.18 43.472-105.705 43.473-43.526 105.578-43.526 62.104 0 105.758 43.473 43.653 43.473 43.653 105.577t-43.525 105.758q-43.526 43.654-105.706 43.654h-409.23Zm-.022-40q45.868 0 77.56-31.671t31.692-77.538q0-45.868-31.67-77.56-31.671-31.693-77.539-31.693t-77.56 31.671q-31.692 31.671-31.692 77.538 0 45.868 31.67 77.56 31.671 31.693 77.539 31.693Zm409.231 0q45.868 0 77.56-31.671t31.692-77.538q0-45.868-31.67-77.56-31.671-31.693-77.539-31.693t-77.56 31.671q-31.692 31.671-31.692 77.538 0 45.868 31.67 77.56 31.671 31.693 77.539 31.693Z"/></svg>