<svg xmlns="http://www.w3.org/2000/svg" height="20" viewBox="0 -960 960 960" width="20"><path d="M269.385-361.769q-54.18 0-90.706-40.473-36.525-40.473-36.525-97.077t39.972-96.758q39.973-40.154 97.078-40.154 57.104 0 97.258 40.026Q416.615-556.18 416.615-499q0 31.305-12.615 59.151-12.615 27.846-37.384 46.08h226.768q-24.769-18.234-37.384-46.08-12.615-27.846-12.615-59.151 0-57.18 39.972-97.205 39.973-40.026 97.078-40.026 57.104 0 97.258 39.973 40.153 39.973 40.153 97.077 0 56.104-36.025 96.758-36.026 40.654-90.206 40.654h-422.23Zm9.753-32q44.093 0 74.785-30.446 30.692-30.445 30.692-74.538 0-44.093-30.445-74.785-30.445-30.693-74.538-30.693-44.094 0-74.786 30.446-30.692 30.445-30.692 74.538 0 44.093 30.445 74.785 30.445 30.693 74.539 30.693Zm401.23 0q44.094 0 74.786-30.446 30.692-30.445 30.692-74.538 0-44.093-30.445-74.785-30.445-30.693-74.539-30.693-44.093 0-74.785 30.446-30.692 30.445-30.692 74.538 0 44.093 30.445 74.785 30.445 30.693 74.538 30.693Z"/></svg>