<svg xmlns="http://www.w3.org/2000/svg" height="24" viewBox="0 -960 960 960" width="24"><path d="m562-310.308-42.615-41.846Q513.539-358 505.5-358.5t-14.654 6.115q-6.615 6.616-6.615 14.27t6.615 14.269l48.539 48.538q9.692 9.693 22.615 9.693 12.923 0 22.615-9.693l133.77-134.538q5.846-5.846 6.115-13.769.269-7.924-6.346-14.706-6.615-6.218-14.154-6.333-7.539-.115-14.154 6.5L562-310.308ZM320-380h40q8.5 0 14.25-5.758 5.75-5.757 5.75-14.269t-5.75-14.242Q368.5-420 360-420h-40q-8.5 0-14.25 5.758-5.75 5.757-5.75 14.269t5.75 14.242Q311.5-380 320-380Zm0-120h200q8.5 0 14.25-5.758 5.75-5.757 5.75-14.269t-5.75-14.242Q528.5-540 520-540H320q-8.5 0-14.25 5.758-5.75 5.757-5.75 14.269t5.75 14.242Q311.5-500 320-500Zm0-120h200q8.5 0 14.25-5.758 5.75-5.757 5.75-14.269t-5.75-14.242Q528.5-660 520-660H320q-8.5 0-14.25 5.758-5.75 5.757-5.75 14.269t5.75 14.242Q311.5-620 320-620Zm160.134 500q-74.673 0-140.41-28.339-65.737-28.34-114.365-76.922-48.627-48.582-76.993-114.257Q120-405.194 120-479.866q0-74.673 28.339-140.41 28.34-65.737 76.922-114.365 48.582-48.627 114.257-76.993Q405.194-840 479.866-840q74.673 0 140.41 28.339 65.737 28.34 114.365 76.922 48.627 48.582 76.993 114.257Q840-554.806 840-480.134q0 74.673-28.339 140.41-28.34 65.737-76.922 114.365-48.582 48.627-114.257 76.993Q554.806-120 480.134-120ZM480-160q134 0 227-93t93-227q0-134-93-227t-227-93q-134 0-227 93t-93 227q0 134 93 227t227 93Zm0-320Z"/></svg>