<svg xmlns="http://www.w3.org/2000/svg" height="20" viewBox="0 -960 960 960" width="20"><path d="M270.5-76.782q-41.022 0-69.37-28.498-28.348-28.498-28.348-69.503v-433.39q0-41.005 28.498-69.503 28.498-28.498 69.503-28.498h52.216v-16q1.696-64.522 45.588-112.783Q412.478-883.218 480-883.218q64.522 0 109.913 44.261 45.392 44.261 47.088 108.783v24h52.216q41.005 0 69.503 28.498 28.498 28.498 28.498 69.503v433.39q0 41.005-28.51 69.503-28.51 28.498-69.531 28.498H270.5Zm151.066-629.392h116.868v-24q-1.696-22.917-18.386-38.98-16.69-16.063-40.26-16.063-23.57 0-40.048 16.063t-18.174 38.98v24Zm166.223 194.001q20.298 0 34.755-14.307 14.457-14.307 14.457-34.694v-46.999h-98.002v46.999q0 20.387 14.246 34.694 14.247 14.307 34.544 14.307Zm-216 0q20.298 0 34.755-14.307 14.457-14.307 14.457-34.694v-46.999h-98.002v46.999q0 20.387 14.247 34.694 14.246 14.307 34.543 14.307Z"/></svg>