<svg xmlns="http://www.w3.org/2000/svg" height="20" viewBox="0 -960 960 960" width="20"><path d="M270.5-76.782q-41.022 0-69.37-28.498-28.348-28.498-28.348-69.503v-433.39q0-41.005 28.498-69.503 28.498-28.498 69.503-28.498h52.216v-16q1.696-64.522 45.488-112.783 43.791-48.261 111.413-48.261 64.622 0 110.013 44.261 45.392 44.261 47.088 108.783v24h52.216q41.005 0 69.503 28.498 28.498 28.498 28.498 69.503v433.39q0 41.005-28.51 69.503-28.51 28.498-69.531 28.498H270.5Zm.283-98.001h418.434v-433.39h-52.216v46.999q0 20.387-14.246 34.694-14.247 14.307-34.544 14.307-20.298 0-34.755-14.307-14.457-14.307-14.457-34.694v-46.999H421.001v46.999q0 20.387-14.247 34.694-14.246 14.307-34.543 14.307-20.298 0-34.755-14.307-14.457-14.307-14.457-34.694v-46.999h-52.216v433.39Zm150.783-531.391h116.868v-24q-1.696-22.917-18.441-38.98-16.746-16.063-40.26-16.063-23.515 0-39.993 16.063t-18.174 38.98v24ZM270.783-174.783v-433.39 433.39Z"/></svg>