<svg xmlns="http://www.w3.org/2000/svg" height="20" viewBox="0 -960 960 960" width="20"><path d="M399-237q-21.31 0-42.091-7.633-20.781-7.634-37.014-23.878L137.213-452.733Q121-469 113.5-489q-7.5-20-7.5-41 0-22 7.5-42t23.555-36L317-787l-52-52q-17-16.5-17.5-40.25T265-920q16-18 40.5-17t40.537 17.073L661-604q16 15.614 24 35.088 8 19.473 8 40.912 0 20.439-8 39.93T661-453L478-269q-17 17-37 24.5t-42 7.5Zm-1-469L230-541h334L398-706Zm385.125 467Q744-239 717.5-265.465 691-291.931 691-330.584q0-23.416 15.125-50.764Q721.25-408.696 739-432q11-15 21-28.5t23-28.5q13 15 24.5 28.5T831-432q18 23 31.5 50.483 13.5 27.483 13.5 50.906 0 38.665-26.875 65.138Q822.25-239 783.125-239ZM172 0q-38.65 0-65.325-26.748Q80-53.496 80-92.248 80-131 106.675-157 133.35-183 172-183h616q38.65 0 65.325 26.248Q880-130.504 880-91.752 880-53 853.325-26.5 826.65 0 788 0H172Z"/></svg>