<svg xmlns="http://www.w3.org/2000/svg" height="24" viewBox="0 -960 960 960" width="24"><path d="M407.693-291.154q-14.077 0-27.231-5.423-13.153-5.423-23.999-15.269L183.387-485.691q-10.231-10.846-15.654-24.192t-5.423-27.423q0-14.461 5.423-27.923 5.423-13.461 15.654-23.692L365.309-770.69l-89.155-89.155q-8.308-8.307-8.308-20.576t9.308-21.577q8.923-8.692 20.692-9 11.769-.307 21.076 9l313.077 313.077q10.846 10.231 15.961 23.692 5.116 13.462 5.116 27.923 0 14.077-5.116 27.423-5.115 13.346-15.961 24.192L458.923-311.846q-9.846 9.846-23.5 15.269-13.653 5.423-27.73 5.423Zm.385-436.767L224.77-545.384q-1.923 1.924-2.5 4.039-.577 2.116-.577 4.424h372q0-2.308-.577-4.424-.577-2.115-2.501-4.039L408.078-727.921Zm343.46 461.768q-29.154 0-49.577-20.423-20.422-20.423-20.422-49.576 0-19.462 10.961-40.192 10.961-20.731 23.654-39.038 8.23-11.231 17.076-22.692 8.846-11.462 18.308-22.692 9.461 11.23 18.307 22.692 8.846 11.461 17.077 22.692 12.692 18.307 23.654 39.038 10.961 20.73 10.961 40.192 0 29.153-20.423 49.576-20.423 20.423-49.576 20.423ZM139.999 0Q115.461 0 97.73-17.73 80-35.46 80-60q0-24.537 17.73-42.268 17.731-17.73 42.269-17.73h680.002q24.538 0 42.269 17.73Q880-84.537 880-59.999T862.27-17.73Q844.539 0 820.001 0H139.999Z"/></svg>