<svg xmlns="http://www.w3.org/2000/svg" height="20" viewBox="0 -960 960 960" width="20"><path d="M414.385-288.308q-12.464 0-24.553-4.979-12.089-4.98-22.014-13.916L207.982-469.118q-9.675-9.959-14.521-22.151-4.846-12.193-4.846-24.347 0-12.923 4.846-24.846t14.363-21.384l174.791-172.539-105.307-105.308q-6.616-6.115-6.616-14.903 0-8.789 7.616-16.404 5.846-7.385 14.884-7 9.039.384 15.691 7.073L621-557.846q9.693 9.075 14.423 20.472 4.731 11.397 4.731 23.758 0 11.593-4.731 23.276-4.73 11.684-14.423 20.955L460.846-307.692q-9.692 9.692-22 14.538t-24.461 4.846Zm-1.231-415.538L240.538-532.769q-3.846 3.846-5 8.076-1.154 4.231-1.154 8.847h356.001q0-4.616-1.154-8.847-1.154-4.23-5-8.076L413.154-703.846Zm332.048 451.538q-26.433 0-44.279-17.811-17.846-17.812-17.846-43.773 0-18.339 10.048-36.148 10.048-17.81 21.183-33.73 7.461-11.461 15.154-20.884 7.692-9.423 15.615-20.885 7.923 11.462 15.615 20.885 7.693 9.423 16.154 20.884 11.385 15.616 20.808 33.561 9.423 17.944 9.423 36.29 0 25.972-17.721 43.792-17.721 17.819-44.154 17.819ZM124 0q-17.727 0-30.863-13.21Q80-26.418 80-44.247q0-17.83 13.137-30.79Q106.273-88.002 124-88.002h712q17.727 0 30.863 13.21Q880-61.581 880-43.753q0 17.83-13.137 30.791Q853.727 0 836 0H124Z"/></svg>