<svg xmlns="http://www.w3.org/2000/svg" height="20" viewBox="0 -960 960 960" width="20"><path d="M419-289q-11.31 0-22.591-4.633-11.281-4.634-20.514-12.878L226.213-458.733Q217-468 212.5-479.5T208-502q0-12 4.5-23t13.555-20L396-712 278-830q-5-4.5-5-10.75t6-12.25q4-6 10.5-5.5t11.537 5.573L612-541q9 8.614 13.5 19.088Q630-511.439 630-500q0 10.439-4.5 21.43T612-459L462-307q-9 9-20.5 13.5T419-289Zm-1-401L250-524q-5 5-6.5 10.5T242-502h350q0-6-1.5-11.5T584-524L418-690Zm322.125 446Q716-244 700-259.965q-16-15.966-16-39.619 0-17.416 9.125-33.264Q702.25-348.696 712-363q7-11 14-19.5t14-19.5q7 11 14 19.5t15 19.5q10 14 18.5 29.983t8.5 33.406q0 23.665-15.875 39.638Q764.25-244 740.125-244ZM112 0Q99.35 0 89.675-9.748 80-19.496 80-32.248T89.675-54.5Q99.35-64 112-64h736q12.65 0 22.325 9.748Q880-44.504 880-31.752T870.325-9.5Q860.65 0 848 0H112Z"/></svg>