<svg xmlns="http://www.w3.org/2000/svg" height="24" viewBox="0 -960 960 960" width="24"><path d="M480-104.173 367.739-72.608q-16.087 4.13-29.261-5.978-13.174-10.11-13.174-26.631v-22.218q0-8.261 3.63-15.022 3.631-6.761 10.326-11.891l67.739-50.174v-200.216l-288.651 84.173q-22.088 6.696-39.827-6.913-17.74-13.609-17.74-36.261v-18.522q0-11.826 5.914-22.087 5.913-10.261 16.74-16.957l213.303-124.869-218.39-218.391q-12.696-12.696-12.414-31.109.283-18.413 12.979-31.109 12.696-12.696 31.109-12.696 18.413 0 31.108 12.696L827.348-140q12.696 12.696 12.413 30.826-.282 18.13-12.978 30.827-12.696 12.695-30.826 12.695-18.131 0-30.827-12.695l-212.129-212.13v85.955l65.608 47.609q7.826 5.695 11.957 14.239 4.13 8.544 4.13 18.37v10.261q0 19.652-16.022 32.109t-35.109 6.76L480-104.172Zm0-795.045q30.652 0 51.827 21.174 21.174 21.174 21.174 51.826v215.478l321 187.87q11.826 6.696 18.522 18.022 6.695 11.326 6.695 25.152v9.261q0 25.653-19.804 40.327-19.805 14.674-44.457 7.978l-90.564-27.13-337.394-337.524v-139.434q0-30.652 21.174-51.826 21.175-21.174 51.827-21.174Z"/></svg>