<svg xmlns="http://www.w3.org/2000/svg" height="20" viewBox="0 -960 960 960" width="20"><path d="M127-258q-7-9-15.679-16.857Q102.643-282.714 93-289q35-36 54.5-82t19.5-97v-84h295v143H209q-6 45-26.5 84T127-258Zm88-189h200v-67H215v67Zm-103-71q-5-10-11.682-19T86-554q59-26 110.5-63t93.5-86h42q45 47 100 80.5T545-560q-8 9-15.5 18.5T517.175-521q-55-27.941-107.587-59.471Q357-612 313-656q-41.838 45.6-92.919 79.8Q169-542 112-518Zm92 259v-137h272v137h-45v-97H250v97h-46Zm18-309v-38h184v38H222Zm-35 104v-35h259v35H187Zm31 191v-38h235v38H218Zm474-63q29.037 0 56.519-15.5Q776-367 798-395v-98q-24 3-44.893 7.615Q732.214-480.769 714-475q-44 14-66 35t-22 48.481Q626-366 644.5-351t47.5 15Zm-20 62q-54 0-86.5-31.157T553-390q0-50.678 32.5-82.839T687-524q23.209-6.3 50.959-11.55Q765.709-540.8 798-545q-3-44-23.5-64.5T712-630q-26 0-50 9t-60 32l-33-54q34-26 76-40.5t83-14.5q69 0 105.5 43T870-530.956V-283h-59l-7-48q-28 27-62 42t-70 15Z"/></svg>