<svg xmlns="http://www.w3.org/2000/svg" height="20" viewBox="0 -960 960 960" width="20"><path d="M116-237q-13-12-25.679-22.357Q77.643-269.714 64-278q35-36 54.5-77t19.5-93v-113h315v168H200q-6 46-29 84.5T116-237Zm90-202h180v-76H206v76ZM83-508q-4-13-9.682-26T57-558q61-29 117-66t101-87h44q47 47 103 82.5T536-560q-10 11-16.5 23t-11.325 26q-55-30.941-108.587-62.971Q346-606 296-647q-45.838 45.6-100.919 78.3Q140-536 83-508Zm97 250v-119h292v119h-65v-79H246v79h-66Zm53-320v-48h134v48H233Zm-75 123v-45h279v45H158Zm36 183v-48h255v48H194Zm516-80q20.037 0 44.019-12Q778-376 801-397v-75q-19 3-36.393 7.615Q747.214-459.769 731-454q-35 12-50.5 26.5T665-393.519Q665-375 678-363.5t32 11.5Zm-26 84q-52 0-85-31.157T566-384q0-52.678 34.5-87.339T704-526q20.209-6.3 42.459-10.55Q768.709-540.8 800-545q-3-34-18.5-50T735-611q-25 0-51.5 10.5T623-565l-45-76q41-32 86.5-48t85.5-16q72 0 110.5 46.5T899-524.956V-277h-83l-7-41q-28 25-61 37.5T684-268Z"/></svg>