<svg xmlns="http://www.w3.org/2000/svg" height="20" viewBox="0 -960 960 960" width="20"><path d="m622.308-530.308-35.376 88.239q-2.091 4.402-5.781 7.235-3.689 2.834-8.954 2.834-8.518 0-12.934-6.5-4.417-6.5-.955-15.115l119.822-307.56q1.255-2.979 3.255-4.902T687-768h9.692q3.616 0 5.616 1.923 2 1.923 3.218 4.904l120.265 307.007q3.055 8.397-2.052 15.281Q818.631-432 809.391-432q-5.699 0-8.974-2.258-3.275-2.257-5.032-7.281l-35.539-88.769H622.308Zm11.846-29h115.385l-57.607-149.769h-3.393l-54.385 149.769ZM341.928-184q-63.62 0-107.697-44.237Q190.154-272.474 190.154-336q0-43.846 22.5-80.846 22.5-37 61.5-56.616V-708q0-28.846 19.577-48.423T342.154-776q28.846 0 48.423 19.577T410.154-708v234.538q39 19.616 61.5 56.616t22.5 80.846q0 63.526-44.303 107.763T341.928-184ZM222.154-336h240q0-25.769-13.962-50.962-13.961-25.192-40.884-46.807L378.154-456v-252q0-15.3-10.29-25.65-10.289-10.35-25.5-10.35-15.21 0-25.71 10.35t-10.5 25.65v252L278-433.769q-26.923 22.615-41.385 48.307-14.461 25.693-14.461 49.462Z"/></svg>