<svg xmlns="http://www.w3.org/2000/svg" height="20" viewBox="0 -960 960 960" width="20"><path d="M480-247.076q-41.539 0-69.693-28.154-28.153-28.154-28.153-69.693 0-41.538 28.153-69.692 28.154-28.154 69.693-28.154t69.693 28.154q28.153 28.154 28.153 69.692 0 41.539-28.153 69.693-28.154 28.154-69.693 28.154Zm.376-32.001q27.316 0 46.393-19.452 19.077-19.453 19.077-46.77 0-27.316-19.453-46.393-19.452-19.077-46.769-19.077-27.316 0-46.393 19.453-19.077 19.452-19.077 46.769 0 27.317 19.453 46.394 19.452 19.076 46.769 19.076ZM233.153-609.462l-20-23.077q52.231-54 118.938-84.115 66.706-30.116 147.961-30.116 81.256 0 147.91 30.116 66.654 30.115 118.885 84.115l-21 24.077q-47.616-50.692-111.654-78.5Q550.154-714.769 480-714.769q-70.154 0-134.693 27.307-64.538 27.308-112.154 78Zm390.001 110.616Q591.308-530 557-546.385q-34.308-16.384-77.5-16.384t-77 16.384Q368.692-530 336.846-498.846l-21-24.077q37.231-35.231 75.961-53.539 38.731-18.307 87.693-18.307 48.962 0 88.577 18.307 39.616 18.308 76.847 53.539l-21.77 24.077ZM480-344.923Z"/></svg>