<svg xmlns="http://www.w3.org/2000/svg" height="20" viewBox="0 -960 960 960" width="20"><path d="M172.782-76.782v-629.392h150.217v-16q1.696-64.522 45.488-112.783 43.791-48.261 111.413-48.261 64.622 0 110.013 44.261 45.392 44.261 47.088 108.783v24h150.217v629.392H172.782Zm98.001-98.001h418.434v-433.39h-52.216v96h-98.002v-96H421.001v96h-98.002v-96h-52.216v433.39Zm150.783-531.391h116.868v-24q-1.696-22.917-18.441-38.98-16.746-16.063-40.26-16.063-23.515 0-39.993 16.063t-18.174 38.98v24ZM270.783-174.783v-433.39 433.39Z"/></svg>