<svg xmlns="http://www.w3.org/2000/svg" height="20" viewBox="0 -960 960 960" width="20"><path d="M480-168q22.548 0 44.394-4.056t42.221-12.482Q531.384-212 514.923-251.402q-16.462-39.402-16.462-82.906 0-18.124 3.077-34.715 3.077-16.592 9.77-31.208-14.077-12.923-21.385-33.692-7.308-20.769-7.308-46.077 0-49.462 24.347-82.423 24.346-32.962 67.038-32.962 30.692 0 53.038 18.962 22.347 18.961 32.347 49.654 8.769-3.539 17.777-4.308 9.009-.769 18.838-.769 24.886 0 49.328 6.269 24.441 6.269 46.441 18.269-6-60-32-112.115-26-52.115-67.963-90.731-41.964-38.615-95.772-60.231Q542.226-792 481.57-792 417-792 360-767.5T260-701q-43 42-67.5 99.09-24.5 57.091-24.5 121.5 0 64.41 24.375 121.528 24.375 57.118 66.788 99.591 42.412 42.472 99.449 66.882Q415.65-168 480-168Zm51.385-268.769q16.692-28.385 40.961-49.346 24.269-20.962 55.577-34.27-5.769-25.461-21-34.73-15.231-9.27-32.923-9.27-27.692 0-43.692 23.654t-16 60.731q0 18.231 5.23 27.885 5.231 9.653 11.847 15.346Zm164.149 300q-28.534 0-51.034-5.385-22.5-5.384-39.731-17.923-25.231 12.539-56.115 18.308Q517.769-136 480-136q-70.914 0-133.419-26.923-62.504-26.923-109.62-74.038-47.115-47.116-74.038-109.766Q136-409.378 136-480.458q0-71.081 26.923-133.273 26.923-62.192 74.038-109.308 47.116-47.115 109.62-74.038Q409.086-824 480-824q72.692 0 135.692 27.731 63.001 27.73 109.347 75.5Q771.385-673 797.731-609.808q26.346 63.193 24.5 134.885 33.231 25.385 52.269 62.692 19.039 37.308 19.039 77.923 0 81.866-57.972 139.703-57.972 57.836-140.033 57.836Zm.708-32q68.989 0 117.143-48.396 48.153-48.397 48.153-117.385t-48.396-117.142q-48.396-48.154-117.384-48.154-68.989 0-117.143 48.396-48.153 48.397-48.153 117.385t48.396 117.142q48.396 48.154 117.384 48.154ZM296.615-369.615v-33.847q25.77-25 49.116-47.576 23.346-22.577 33.884-33.347 15.77-16.23 19.923-26.269 4.154-10.038 4.154-20.346 0-11.461-10.269-22.423-10.269-10.962-29.423-10.962-15.385 0-25.077 8.385-9.692 8.385-13.769 18.077l-29.769-11.385q6.076-15.615 24.115-30.846 18.038-15.231 45.5-15.231 32.154 0 51.5 19.231 19.346 19.231 19.346 43.154 0 17.462-8.346 35.077t-25.577 34.846q-12.615 12.615-31.115 29.846t-33.885 32.616l.231.461h102.231v30.539h-142.77Z"/></svg>