<svg xmlns="http://www.w3.org/2000/svg" height="20" viewBox="0 -960 960 960" width="20"><path d="M477-180q9.317 0 17.317.136 8 .137 16.683-1.136-20-27-29.5-59.441Q472-272.881 472-306q0-22.278 3.5-43.639Q479-371 488-390q-12-20-18-43.5t-6-46.5q0-56 31.5-97t84.5-41q34 0 62 19.5t43 49.5q8-1 15.355-.5 7.354.5 15.645.5 14.886 0 28.443 4.5Q758-540 771-532q-9-53-35-99t-65.579-79q-39.579-33-88.387-51.5T478.57-780Q416-780 361.5-756.5q-54.5 23.5-96 64t-65 95.09q-23.5 54.591-23.5 117 0 62.41 23.375 117.028 23.375 54.618 64.288 95.591 40.912 40.972 95.449 64.382Q414.65-180 477-180Zm48-280q20-23 43.5-40t52.5-29q-7-16-18-20t-23-4q-25 0-36 21.5T533-480q0 5-2 8.5t-6 11.5ZM715.534-62Q684-62 658.5-67T613-85q-28 13-61.5 18T477-62q-86.376 0-162.188-32.5Q239-127 181.5-184.5 124-242 91.5-317.958 59-393.917 59-480.458 59-567 91.5-642.5t90-133q57.5-57.5 133.312-90Q390.624-898 477-898q90 0 167.5 34T779-771q57 59 88.5 136.5T894-468q31 33 48.5 75.5T960-306q0 101.327-71.472 172.664Q817.056-62 715.534-62Zm.708-118Q769-180 805.5-216.742q36.5-36.743 36.5-89.5Q842-359 805.258-395q-36.743-36-89.5-36Q663-431 626.5-394.758q-36.5 36.243-36.5 89Q590-253 626.742-216.5q36.743 36.5 89.5 36.5ZM265-347v-56q25-23 46-41.5t32-29.5q20-18 28-31t8-26q0-8-5.5-15.5T355-554q-14 0-23 10t-11 20l-61-24q8-23 31.5-46.5T356-618q38 0 63.5 25t25.5 62q0 23-10 41t-28 38q-11 11-23 22.5T365-411v1h81v63H265Z"/></svg>