<svg xmlns="http://www.w3.org/2000/svg" height="24" viewBox="0 -960 960 960" width="24"><path d="M388-192h184l-14-55H402l-14 55Zm-31-161h245.944Q688-353 747.5-413.567q59.5-60.567 59.5-146.5Q807-646 747.33-706.5 687.66-767 603-767H357.056Q272-767 212.5-706.433q-59.5 60.567-59.5 146.5Q153-474 212.67-413.5 272.34-353 357-353Zm123-153q-23 0-38.5-15.5T426-560q0-23 15.5-38.5T480-614q23 0 38.5 15.5T534-560q0 23-15.5 38.5T480-506Zm-219-81q22 0 37.5-15.5T314-640q0-22-15.5-37.5T261-693q-22 0-37.5 15.5T208-640q0 22 15.5 37.5T261-587ZM179-86q-22 0-37.5-15.5T126-139q0-22 15.5-37.5T179-192h100l15-62q-106-23-176.5-107.681Q47-446.363 47-560q0-130.789 90.523-221.895Q228.046-873 358-873h244q129.954 0 220.477 91.105Q913-690.789 913-560q0 113.637-70.5 198.319Q772-277 666-254l15 62h100q22 0 37.5 15.5T834-139q0 22-15.5 37.5T781-86H179Zm301-314q66 0 113-47t47-113q0-66-47-113t-113-47q-66 0-113 47t-47 113q0 66 47 113t113 47Zm0-160Zm-92 368h184-184Z"/></svg>