<svg xmlns="http://www.w3.org/2000/svg" height="20" viewBox="0 -960 960 960" width="20"><path d="M479.788-506Q460-506 447-519.212q-13-13.213-13-33Q434-572 447.212-585q13.213-13 33-13Q500-598 513-584.788q13 13.213 13 33Q526-532 512.788-519q-13.213 13-33 13Zm-193.999-74Q306-580 320.5-594.289q14.5-14.29 14.5-34.5Q335-649 320.711-663.5q-14.29-14.5-34.5-14.5Q266-678 251.5-663.711q-14.5 14.29-14.5 34.5Q237-609 251.289-594.5q14.29 14.5 34.5 14.5Zm-78.497 470Q187-110 172.5-124.289q-14.5-14.29-14.5-34.5Q158-179 172.35-193.5T207-208h89l19-52q-107-17-179.5-98T63-552q0-124.314 85.843-210.657Q234.686-849 358-849h244q123.314 0 209.157 86.343Q897-676.314 897-552q0 113-72.5 194T645-260l19 52h89.085Q773-208 787.5-193.711q14.5 14.29 14.5 34.5Q802-139 787.656-124.5 773.311-110 753.019-110H207.292ZM480-408q60 0 102-42t42-102q0-60-42-102t-102-42q-60 0-102 42t-42 102q0 60 42 102t102 42Z"/></svg>