<svg xmlns="http://www.w3.org/2000/svg" height="24" viewBox="0 -960 960 960" width="24"><path d="M180.001-170.001v-619.998H240v619.998h-59.999Zm539.999 0v-619.998h59.999v619.998H720ZM429.385-272.232 301.617-400l127.768-126.768L471.153-485l-55.001 55.001h98.463q37.616 0 63.808-26.193 26.193-26.192 26.193-63.808t-26.193-63.808q-26.192-26.193-63.808-26.193H295.386v-59.998h219.229q62.154 0 106.076 43.923Q664.614-582.154 664.614-520q0 62.154-43.923 106.076-43.922 43.923-106.076 43.923h-98.463L471.153-315l-41.768 42.768Z"/></svg>