<svg xmlns="http://www.w3.org/2000/svg" height="20" viewBox="0 -960 960 960" width="20"><path d="M763.913-82.782 394.522-450.608q-44 11.565-78.609 31.152-34.608 19.587-64.912 46.326L170-453q30.304-27.304 63.543-49.456 33.239-22.153 71.978-38.153l-95.999-95.999q-36.87 21.131-68.326 43.652-31.456 22.522-61.326 49.826L0-623q27.739-26.739 60.891-51.739 33.152-25 66.196-43.739l-43.305-43.304L141-819l679 679-56.087 57.218Zm-35.695-309.436q-25.435-22.434-54.37-39.869t-61.369-28.87L500.696-572.174q85.739 2.696 159.217 34.131Q733.391-506.609 790-454l-61.782 61.782ZM880.13-543.13q-81-74.739-181.696-117.043Q597.739-702.477 480-702.477q-24.652 0-49.651 2.652-25 2.652-48.217 8.521l-96.523-96.522q48-15 94.196-21.587Q426-816 480-816q140 0 262.435 51.5T960-621.87l-79.87 78.74ZM480-144 340-284q30-24 66-38.5t74-14.5q39 0 74.5 15t66.5 38L480-144Z"/></svg>