<svg xmlns="http://www.w3.org/2000/svg" height="24" viewBox="0 -960 960 960" width="24"><path d="M787.848-53.37 415.913-427.065q-47 11.239-86.065 32.641-39.065 21.402-70.348 53.446L170-432q31.283-31.283 67.326-54.924 36.044-23.641 77.087-41.641l-84.5-84.5q-40.522 21.478-74.946 46.141-34.423 24.663-65.945 55.946L0-602q31.044-31.043 65.185-56.543 34.141-25.5 71.467-47.544L53.37-789.37 112-848l736 736-60.152 58.63ZM718.63-360.63l-28.521-28.522-28.522-28.522-141.369-141.13q80.043 8.717 148.63 41.478Q737.435-484.565 790-432l-71.37 71.37Zm152.348-150.348q-77-76.044-176.467-118.826Q595.043-672.587 480-672.587q-17.891 0-34.641 1.142-16.75 1.141-33.88 3.663L302.065-777.196q44-12 87.468-17.402Q433-800 480-800q142 0 264.761 53Q867.522-694 960-601.522l-89.022 90.544ZM480-120 339-262q28-28 64.5-43t76.5-15q40 0 76.5 15t64.5 43L480-120Z"/></svg>