<svg xmlns="http://www.w3.org/2000/svg" height="24" viewBox="0 -960 960 960" width="24"><path d="M796.154-105.23 464.769-438.615q-60.846 2.538-116.346 26.846Q292.923-387.461 254-346l-40.923-41.385Q252-426.308 304-454.154 356-482 413.384-490L266.461-636.923Q220.846-619 171.884-586.961 122.923-554.923 84-516l-39.385-41.385q39.692-39.692 86.5-72.5 46.808-32.807 90.423-51.961l-91.692-91.693 28.308-28.307 668.308 668.308-30.308 28.308ZM716-358l-17.077-17.077-17.077-17.077-83.231-83.231q34.077 8 73.808 29.846 39.731 21.846 74.5 56.616L716-358Zm160-158q-77-77-178.5-120.5T480-680q-21 0-41.654 1.5Q417.692-677 400-674l-51.231-51.231q26.308-6.615 58.346-9.923 32.039-3.308 72.885-3.308 128.923 0 240.385 48 111.461 48 196.538 133.077L876-516ZM480-120l-97.923-98.154q19.538-19.539 44.884-29.923 25.347-10.385 53.039-10.385t53.039 10.385q25.346 10.384 44.884 29.923L480-120Z"/></svg>