<svg xmlns="http://www.w3.org/2000/svg" height="20" viewBox="0 -960 960 960" width="20"><path d="M749.154-164.001 530.615-382.54l47.23-47.229 218.538 218.538-47.229 47.23Zm-537.923 0-47.23-47.23 269.154-269.154-89.386-89.001-34.923 34.922-45.461-45.845v64.999l-22.923 22.923L136.54-596.309l22.923-22.923h64.999l-30.23-30.846 116.305-116.306q13.923-13.922 32.154-21.768 18.23-7.847 39.538-7.847 21.307 0 39.538 7.847 18.23 7.846 32.153 21.768l-73.922 72.923 43.923 43.922-32.923 32.923 89.387 89.002 89.154-89.154q-7.693-14.154-11.27-28.116-3.576-13.961-3.576-30.269 0-50 35.23-85.23 35.231-35.231 85.23-35.231 11.692 0 22.769 2.231 11.077 2.231 21.769 6.461l-78.922 78.923 67.23 67.23 78.923-78.922q4.846 9.692 6.769 21.269 1.923 11.577 1.923 23.269 0 49.999-35.231 84.73-35.23 34.73-85.23 34.73-16.308 0-30.269-3.269-13.962-3.269-28.116-11.577L211.231-164.001Z"/></svg>