<svg xmlns="http://www.w3.org/2000/svg" height="20" viewBox="0 -960 960 960" width="20"><path d="M751.109-135.869 531-355.978l73.022-73.261L824.131-209.13l-73.022 73.261Zm-542.218 0L135.63-209.13l271.109-271.109-64.717-64.718-38 38-48.652-48.413v66.653l-27.674 27.674-118.935-118.935 27.674-27.674h66.652l-32.652-33.892 146.63-146.391q17.478-17.478 40.054-26.837 22.577-9.359 47.533-9.359 24.957 0 47.652 9.479 22.696 9.478 40.174 26.717l-88.435 87.196 46.761 46.761-36 36 64.957 64.956 82.761-82.761q-4.761-12.761-7.642-25.641-2.88-12.88-2.88-26.641 0-56.435 39.576-96.131 39.576-39.695 96.011-39.695 15.196 0 29.272 3.358 14.076 3.359 28.032 9.555l-87 87.239 65.37 65.369 87.239-87.239q7.196 12.718 10.294 27.533 3.097 14.815 3.097 30.011 0 56.435-39.934 95.511-39.935 39.076-96.37 39.076-13.761 0-26.402-2.5-12.641-2.5-25.402-8.022L208.891-135.869Z"/></svg>