<svg xmlns="http://www.w3.org/2000/svg" height="24" viewBox="0 -960 960 960" width="24"><path d="M360-840v-59.999h240V-840H360Zm120 739.999q-70.769 0-132.615-26.77-61.846-26.769-108.153-73.076-46.308-46.308-72.769-108.154Q140.001-369.846 140.001-440t26.77-131.999q26.769-61.846 73.076-108.154 46.308-46.307 108.154-73.076 61.845-26.77 131.999-26.77 63 0 117.307 21 54.308 21 100.539 59l55.692-55.692 42.153 42.153-54.462 55.692q36.77 46.231 57.77 100.539 21 54.307 21 117.307 0 70.154-26.654 131.999-26.654 61.846-72.961 108.154-46.308 46.307-108.154 73.076-61.846 26.77-132.23 26.77ZM480-440Zm-3.077-75.384h272.616q-18-64.308-61.693-112.077Q644.154-675.231 584-700L476.923-515.384Zm-64.615 40 137.077-235.847q-63.616-16.923-127.27-3.077Q358.461-700.461 306-660l106.308 184.616ZM204-400h210.616L279.077-635.846q-43.154 47-64.615 107.461Q193-467.923 204-400Zm172 220 106.308-184.616H210.461q17.616 63.539 61.5 111.693Q315.846-204.769 376-180Zm35.384 10.461q75.616 20.847 138.578 1.5Q612.924-187.385 654-220L546.923-405.385 411.384-169.539Zm269.539-74.615q33.999-37.23 60.807-97.691Q768.539-402.307 756-480H544.615l136.308 235.846Z"/></svg>