<svg xmlns="http://www.w3.org/2000/svg" height="20" viewBox="0 -960 960 960" width="20"><path d="M352.587-819.587v-75.826h254.826v75.826H352.587ZM480-83.565q-71.674 0-134.109-27.098T236.88-184.456q-46.576-46.696-73.793-109.131-27.218-62.435-27.218-134.109t27.098-134.108q27.098-62.435 73.794-109.011 46.695-46.576 109.13-73.674Q408.326-771.587 480-771.587q59.435 0 113.196 18.641 53.761 18.642 99.717 54.163l76.391-76.63 56.261 56.5-76.63 76.391q37.478 46.239 56.337 100.457 18.859 54.217 18.859 114.369 0 71.674-27.218 134.109-27.217 62.435-73.793 109.131-46.576 46.695-109.131 73.793Q551.435-83.565 480-83.565Zm0-347.131Zm12.804-70.674h237.37q-18.239-53.086-54.022-96.749-35.782-43.663-89.739-67.424L492.804-501.37Zm-69.956 25.674 117.565-205.608q-57.913-13.044-112.478-1.968-54.565 11.077-99.696 43.642l94.609 163.934Zm-202.739 73.674h189.695L291.478-607.391q-39.761 42.478-58.445 95.402-18.685 52.924-12.924 109.967Zm153 212.413 94.087-164.413H229.587q17.717 55.522 54.12 98.087 36.402 42.565 89.402 66.326Zm46.239 15.522q55.282 13.804 110.087 3.185 54.804-10.62 102.087-44.62l-93.609-164.174-118.565 205.609Zm249.174-73.435q38.565-41.282 57.967-94.684 19.402-53.403 13.163-111.164H549.717l118.805 205.848Z"/></svg>