<svg xmlns="http://www.w3.org/2000/svg" height="24" viewBox="0 -960 960 960" width="24"><path d="M360-840v-40h240v40H360Zm120 720q-66.539 0-124.731-25.038-58.192-25.039-101.808-68.654-43.615-43.616-68.538-101.808Q160-373.692 160-440q0-66.308 25.038-124.5 25.039-58.192 68.654-101.808 43.616-43.615 101.808-68.654Q413.692-760 480-760q63 0 114.615 21 51.616 21 97.077 59l53.385-53.385 28.308 28.308-52.923 53.385Q758-606.231 779-554.615 800-503 800-440q0 66.308-25.307 124.5-25.308 58.192-68.924 101.808-43.615 43.615-101.807 68.654Q545.769-120 480-120Zm0-320Zm-6.154-70.769h277.231q-18-66.616-61.885-115.154Q645.308-674.462 584-700L473.846-510.769Zm-59.231 40 140.154-239.693q-68.231-18.846-133.038-3.653Q356.923-698.923 306-660l108.615 189.231ZM204-400h215.231L282.154-639.692q-44.308 47-66.731 108.423Q193-469.846 204-400Zm172 220 108.615-189.231H208.923q17.231 65.077 61.5 114.385Q314.692-205.538 376-180Zm30.769 8.923q85.231 24.692 149.154 1.5T654-220L543.846-410.769 406.769-171.077Zm271.077-69.231q24-26.461 58.116-87.884Q770.077-389.616 756-480H539.231l138.615 239.692Z"/></svg>