<svg xmlns="http://www.w3.org/2000/svg" height="20" viewBox="0 -960 960 960" width="20"><path d="M360-816v-32h240v32H360Zm120 680q-61.539 0-115.231-23.038-53.692-23.039-93.808-63.154-40.115-40.116-63.538-93.808Q184-369.692 184-432t23.038-116q23.039-53.692 63.154-93.808 40.116-40.115 93.808-63.154Q417.692-728 480-728q58 0 106.615 19 48.616 19 92.077 55l69.385-69.385 23.308 23.308-70.923 69.385Q739-586.231 757.5-538.115 776-490 776-432q0 62.308-23.807 116-23.808 53.692-63.924 93.808-40.115 40.115-93.807 63.154Q540.769-136 480-136Zm0-299Zm7.846-59.769h249.231q-18-59.616-54.885-105.654Q645.308-646.462 590-672L487.846-494.769Zm-58.231 24 125.154-215.693q-65.231-17.846-123.538-5.153Q372.923-678.923 328-648l101.615 177.231ZM217-408h203.231L297.154-623.692q-42.308 42-64.231 97.923Q211-469.846 217-408Zm153 216 100.615-177.231H222.923q16.231 59.077 54 105.385Q314.692-217.538 370-192Zm36.769 12.923q75.231 22.692 133.154 4.5T632-216L529.846-394.769 406.769-179.077Zm256.077-61.231q20-20.461 54.616-76.384Q752.077-372.616 743-456H538.231l124.615 215.692Z"/></svg>