<svg xmlns="http://www.w3.org/2000/svg" height="24" viewBox="0 -960 960 960" width="24"><path d="M480-101.587 0-600q94.76-98.196 219.141-151.13Q343.522-804.065 480-804.065q136.478 0 260.859 52.935Q865.239-698.196 960-600l-97 100.587q-23.522-10.283-49.185-15.424-25.663-5.141-51.185-5.141-104.63 0-178.282 73.413-73.652 73.413-73.652 178.522 0 28.152 6.217 56.087 6.217 27.935 18.413 53.13L480-101.587Zm157.609-16.022v-284.782h174.782v110h110v174.782H637.609Zm64.782-64.782h45.218v-45.218h-45.218v45.218Zm0-110h45.218v-45.218h-45.218v45.218Zm110 110h45.218v-45.218h-45.218v45.218Z"/></svg>