<svg xmlns="http://www.w3.org/2000/svg" height="24" viewBox="0 -960 960 960" width="24"><path d="M672.308-214.615h70.769v-70.769h-70.769v70.769Zm0-106.154h70.769v-70.769h-70.769v70.769Zm106.154 106.154h70.769v-70.769h-70.769v70.769ZM636.923-179.23v-247.693h141.539v106.154h106.154v141.539H636.923ZM480-176.923 56.923-600q87.307-78.539 196.423-119.269Q362.461-760 480-760t226.654 40.731Q815.77-678.539 903.077-600l-63.923 63.923q-11-4.615-22.077-7.423-11.077-2.808-23-4.577L844-598q-79-60-172-91t-192-31q-99 0-192 31t-172 91l364 364 38.077-38.077q1.769 11.923 4.577 23T530.077-227L480-176.923ZM480-477Z"/></svg>