<svg xmlns="http://www.w3.org/2000/svg" height="20" viewBox="0 -960 960 960" width="20"><path d="M235.043-177.044v-86.085h-19.207q-37.184 0-62.989-25.991-25.804-25.991-25.804-63.091v-72.124q0-37.1 25.954-62.904 25.955-25.805 63.003-25.805h19.043v-97.085h-18.832q-20.298 0-34.755-14.246-14.457-14.247-14.457-34.544 0-20.298 14.234-34.755 14.233-14.456 34.512-14.456h30.732q23.566-76.783 87.87-124.805Q398.652-880.957 480-880.957q81.348 0 145.653 48.022 64.304 48.022 87.87 124.805h30.732q20.279 0 34.512 14.246 14.234 14.246 14.234 34.544 0 20.297-14.307 34.754-14.307 14.457-34.694 14.457h-19.043v97.085h19.207q37.184 0 62.989 25.991 25.804 25.991 25.804 63.091v72.124q0 37.1-25.954 62.904-25.955 25.805-63.003 25.805h-19.043v86.085h18.832q20.298 0 34.755 14.246 14.457 14.246 14.457 34.544 0 20.298-14.307 34.755Q764.387-79.043 744-79.043H216q-20.387 0-34.694-14.246-14.307-14.246-14.307-34.544 0-20.297 14.307-34.754 14.307-14.457 34.694-14.457h19.043ZM353.87-708.13h252.26q-19.435-34.479-52.938-54.652-33.503-20.174-73.192-20.174-39.689 0-73.192 20.174-33.503 20.173-52.938 54.652Zm-20.826 531.086h293.912V-361.13h108v-53.913h-108v-195.086H333.044v195.086h-108v53.913h108v184.086Zm147.292-90.347q50.142 0 85.251-35.445 35.108-35.445 35.108-85.587t-35.445-85.25q-35.445-35.109-85.586-35.109-50.142 0-85.251 35.445-35.108 35.445-35.108 85.587 0 50.141 35.445 85.25t85.586 35.109Zm-.203-83.305q-15.524 0-26.523-10.867-11-10.867-11-26.391 0-15.523 10.867-26.523 10.866-11 26.39-11 15.524 0 26.523 10.867 11 10.867 11 26.39 0 15.524-10.867 26.524-10.866 11-26.39 11ZM480-388.087Zm0-222.042Z"/></svg>