<svg xmlns="http://www.w3.org/2000/svg" height="20" viewBox="0 -960 960 960" width="20"><path d="M810-81v-62h-63v-88h63v-62h87v62h63v88h-63v62h-87Zm-306 8v-240h231v158h-23l41 82h-98l-27.15-54H591v54h-87Zm87-136h57v-17h-57v17ZM0-73v-240h87v87h57v-87h87v240h-87v-73H87v73H0Zm264 0v-240h164l43 43v153l-43 44H264Zm87-87h33v-66h-33v66Zm354-397-94-95q0-3 .5-5.5t.5-5.5q0-56-38-94t-94-38h-12l-94-92q23-12 50.704-19t55.408-7Q583-913 656.5-839.605 730-766.211 730-663.662q0 26.662-6 54.495-6 27.834-19 52.167Zm-52 172-58-58q-30 15-57 22t-58.361 7q-102.85 0-176.244-73Q230-560 230-663.178q0-28.822 7.5-60.322Q245-755 259-779l-58-57 61-62 453 452-62 61ZM503-534 350-687q-1 8-1.5 13.412-.5 5.412-.5 10.588 0 56 38 93.5t94 37.5q6.118 0 11.559-.5Q497-533 503-534Zm37-190ZM427-611Z"/></svg>