<svg xmlns="http://www.w3.org/2000/svg" height="24" viewBox="0 -960 960 960" width="24"><path d="M820-71.521v-70.956h-71.521v-69.044H820v-70.956h68.479v70.956H960v69.044h-71.521v70.956H820ZM520-67v-240h208.479v159.391h-33.174l36.565 80.609h-70.74l-32.693-69.826h-39.958v69.826H520Zm68.479-135.478H660v-36.044h-71.521v36.044ZM0-66.999v-240h68.479v81.695H140v-81.695h68.479v240H140v-93.783H68.479v93.783H0Zm260 0v-240h174.522l33.957 33.956v171.522l-33.957 34.522H260Zm68.479-68.479H400v-103.043h-71.521v103.043ZM713.523-537.13 368.652-883.436q26-12.565 54.449-18.413 28.45-5.848 56.899-5.848 107.348 0 183.283 75.935 75.935 75.935 75.935 183.113 0 27.866-6.282 56.41-6.283 28.543-19.413 55.109Zm-52.218 184.217-64.87-64.869Q569.479-403.521 540-396.673q-29.478 6.847-60 6.847-107.348 0-183.283-75.652-75.935-75.652-75.935-183.101 0-31.161 7.13-61.117 7.131-29.957 20.826-55.783l-64.869-64.305 62.218-62.217L723.523-415.13l-62.218 62.217Z"/></svg>