<svg xmlns="http://www.w3.org/2000/svg" height="20" viewBox="0 -960 960 960" width="20"><path d="m384-495.176 298.454-298.453q14.894-14.894 34.93-14.894 20.037 0 34.66 14.956 14.957 14.624 14.957 34.66 0 20.037-14.883 34.919L418.535-390.405q-14.883 14.883-34.717 14.883t-34.427-14.957L207.956-531.913q-14.957-14.624-14.739-34.66.217-20.037 15.174-34.994 14.957-14.956 34.993-14.956 20.037 0 34.66 14.956L384-495.176ZM269.782-172.782q-20.387 0-34.694-14.246-14.306-14.246-14.306-34.544 0-20.298 14.306-34.754 14.307-14.457 34.694-14.457h420.436q20.387 0 34.694 14.246 14.306 14.246 14.306 34.544 0 20.298-14.306 34.755-14.307 14.456-34.694 14.456H269.782Z"/></svg>