<svg xmlns="http://www.w3.org/2000/svg" height="24" viewBox="0 -960 960 960" width="24"><path d="m382-470.176 328.391-328.391q15.957-15.956 37.826-15.956 21.87 0 37.827 15.956 15.957 15.957 15.957 37.827 0 21.87-15.957 37.827L419.609-356.479Q403.652-340.522 382-340.522t-37.609-15.957L173.956-526.913q-15.957-15.957-15.739-37.827.217-21.87 16.174-37.827 15.957-15.956 37.826-15.956 21.87 0 37.827 15.956L382-470.176ZM233.782-140.782q-22.087 0-37.544-15.456-15.456-15.457-15.456-37.544 0-22.088 15.456-37.544 15.457-15.457 37.544-15.457h492.436q22.087 0 37.544 15.457 15.456 15.456 15.456 37.544 0 22.087-15.456 37.544-15.457 15.456-37.544 15.456H233.782Z"/></svg>