<svg xmlns="http://www.w3.org/2000/svg" height="24" viewBox="0 -960 960 960" width="24"><path d="m819.692-83.692-706.769-706.77 28.308-28.307L848-112l-28.308 28.308Zm-87.384-288.616-36.154-136.615-27.077 104-68.769-68.308L570-587.692h36.154l37.692 140.769L680-587.692h32.308l36.154 140.769 37.692-140.769h36.154l-56.923 215.384h-33.077Zm-376.923 0 52-160.307 27.23 27.231-12.307 37.692h49.999l33.847 33.846h-93.231l-20.615 61.538h-36.923Zm-223.077 0v-215.384h175.384v132.923h-42.153l36 82.461h-36.924l-36-80h-60.923v80h-35.384Zm35.384-115.384h104.616v-64.616H167.692v64.616Z"/></svg>