<svg xmlns="http://www.w3.org/2000/svg" height="24" viewBox="0 -960 960 960" width="24"><path d="M243.391-540v150q0 13 8.5 21.5t21.5 8.5q13 0 21.5-8.5t8.5-21.5v-180q0-13-8.5-21.5t-21.5-8.5h-36.608q-13 0-21.5 8.5t-8.5 21.5q0 13 8.5 21.5t21.5 8.5h6.608ZM380-360h100q17 0 28.5-11.5T520-400v-160q0-17-11.5-28.5T480-600H380q-17 0-28.5 11.5T340-560v160q0 17 11.5 28.5T380-360Zm20-60v-120h60v120h-60Zm213.217-30 62 79q2 3 22 11 17 0 25-15.5t-3-29.5l-56-75 57-76q11-14 3-29t-26-15q-7 0-12.5 3t-9.5 8l-62 79v-60q0-13-8.5-21.5t-21.5-8.5q-13 0-21.5 8.5t-8.5 21.5v180q0 13 8.5 21.5t21.5 8.5q13 0 21.5-8.5t8.5-21.5v-60ZM206.783-100.782q-44.305 0-75.153-30.848-30.848-30.848-30.848-75.153v-546.434q0-44.305 30.848-75.153 30.848-30.848 75.153-30.848h546.434q44.305 0 75.153 30.848 30.848 30.848 30.848 75.153v546.434q0 44.305-30.848 75.153-30.848 30.848-75.153 30.848H206.783Z"/></svg>