<svg xmlns="http://www.w3.org/2000/svg" height="24" viewBox="0 -960 960 960" width="24"><path d="M270.769-552.308V-390q0 7.667 5.003 12.68 5.002 5.012 12.654 5.012 7.651 0 12.689-5.012 5.039-5.013 5.039-12.68v-180q0-7.667-5.013-12.68-5.013-5.012-12.68-5.012h-55.384q-7.667 0-12.68 5.002-5.012 5.003-5.012 12.654t5.012 12.69q5.013 5.038 12.68 5.038h37.692Zm124.616 180h93.846q13.077 0 21.923-8.846Q520-390 520-403.077v-153.846q0-13.077-8.846-21.923-8.846-8.846-21.923-8.846h-93.846q-13.077 0-21.924 8.846-8.846 8.846-8.846 21.923v153.846q0 13.077 8.846 21.923 8.847 8.846 21.924 8.846ZM400-407.692v-144.616h84.615v144.616H400Zm213.846-59.231 86.615 89q2 2.231 12.77 5.615 11.615 0 16.154-10.5 4.538-10.5-3.385-19.115l-77.538-79.615L727-559.846q7.923-7.846 3-17.846t-16-10q-3.154 0-6.398 1.531-3.243 1.532-5.602 4.084l-88.154 87.462V-570q0-7.667-5.002-12.68-5.003-5.012-12.654-5.012-7.652 0-12.69 5.012-5.039 5.013-5.039 12.68v180q0 7.667 5.003 12.68 5.003 5.012 12.654 5.012t12.69-5.012q5.038-5.013 5.038-12.68v-76.923ZM224.615-160Q197-160 178.5-178.5 160-197 160-224.615v-510.77Q160-763 178.5-781.5 197-800 224.615-800h510.77Q763-800 781.5-781.5 800-763 800-735.385v510.77Q800-197 781.5-178.5 763-160 735.385-160h-510.77Z"/></svg>