<svg xmlns="http://www.w3.org/2000/svg" height="20" viewBox="0 -960 960 960" width="20"><path d="M684.1-575.283q-29.339 0-51.078-21.706-21.739-21.706-21.739-51.011v-143.505q0-30.8 21.697-52.006t51.034-21.206q30.225 0 51.464 21.206 21.239 21.206 21.239 52.006V-648q0 29.305-21.194 51.011-21.195 21.706-51.423 21.706ZM133-85v-790h395v83H216v624h426.5v-68.652h83V-85H133Zm155-151.652V-312h269v75.348H288ZM288-360v-72h192v72H288Zm437.5 53.5h-83v-128.304q-68-14.435-112-67.364-44-52.928-44-121.832h78.457q0 48.519 35.111 82.227 35.112 33.708 84.24 33.708 49.975 0 84.475-33.708 34.5-33.708 34.5-82.227h78.456q0 68.904-43.619 121.832-43.62 52.929-112.62 67.364V-306.5Z"/></svg>