<svg xmlns="http://www.w3.org/2000/svg" height="24" viewBox="0 -960 960 960" width="24"><path d="M654.195-566Q632-566 616-581.525T600-620v-180q0-22.95 15.873-38.475Q631.746-854 654.035-854 677-854 692.5-838.475 708-822.95 708-800v180q0 22.95-15.469 38.475Q677.062-566 654.195-566ZM172-132v-696h322v28H200v640h440v-94h28v122H172Zm134-122v-40h228v40H306Zm0-120v-28h148v28H306Zm362 28h-28v-100q-73-5-126.5-54T460-620h28q0 63 50 104.5T653.932-474Q721-474 770.5-515.5T820-620h28q0 72-53 120.5T668-446v100Z"/></svg>