<svg xmlns="http://www.w3.org/2000/svg" height="20" viewBox="0 -960 960 960" width="20"><path d="M480.134-136q-70.673 0-133.41-26.839-62.737-26.84-109.865-73.922-47.127-47.082-73.993-109.757Q136-409.194 136-479.866q0-71.673 26.839-133.91 26.84-62.237 73.922-109.365 47.082-47.127 109.757-73.993Q409.194-824 479.866-824q71.673 0 133.91 26.839 62.237 26.84 109.365 73.922 47.127 47.082 73.993 109.257Q824-551.806 824-480.134q0 70.673-26.839 133.41-26.84 62.737-73.922 109.865-47.082 47.127-109.257 73.993Q551.806-136 480.134-136ZM480-168q130 0 221-91t91-221q0-130-91-221t-221-91q-130 0-221 91t-91 221q0 130 91 221t221 91Zm0-312Zm-1 248.615q7.846 0 13.231-4.384 5.384-4.385 5.384-12.231v-27.308q42.077-2.615 77.039-33.923 34.961-31.307 34.961-75.769 0-45-30.538-72.615-30.538-27.616-84.538-46.616-63.154-23.077-79.539-40.615-16.385-17.539-16.385-47.154 0-24.615 23.385-43t57-18.385q23.615 0 42.077 8.693 18.461 8.692 31.538 23.538 4.616 5.846 11.347 7.923 6.73 2.077 12.928-.615 6.451-3.231 8.55-8.539 2.099-5.307-1.825-10.923-15-22.231-37.884-34.307-22.885-12.077-48.116-17.077V-712q0-7.846-4.884-12.231-4.885-4.384-12.731-4.384t-12.731 4.384q-4.884 4.385-4.884 12.231v27.308q-47.308 8.692-73.154 35-25.846 26.307-25.846 58.692 0 39.154 28.615 67.077Q420.615-496 495-467.692q51.538 19.769 67.231 37.423 15.692 17.654 15.692 45.269 0 35.231-28.308 56.308-28.307 21.077-61.615 21.077-31 0-56.538-16.462-25.539-16.462-40.616-43.308-3.154-5.077-10.269-7.384-7.115-2.308-12.865.465-7.27 2.774-9.145 9.539t1.818 12.611q17.538 30.231 44.038 49.039 26.5 18.807 56.962 26.807V-248q0 7.846 4.884 12.231 4.885 4.384 12.731 4.384Z"/></svg>