<svg xmlns="http://www.w3.org/2000/svg" height="20" viewBox="0 -960 960 960" width="20"><path d="M240.615-184q-24.315 0-40.465-16.15Q184-216.3 184-240.615v-478.77q0-24.315 16.15-40.465Q216.3-776 240.615-776h390.616q11.487 0 21.897 4.231 10.411 4.23 19.103 12.923l86.615 86.615q8.693 8.692 12.923 19.103Q776-642.718 776-631.231v390.616q0 24.315-16.15 40.465Q743.7-184 719.385-184h-478.77Zm239.204-126.461q28.258 0 48.22-19.781Q548-350.022 548-378.28q0-28.258-19.78-48.22-19.781-19.962-48.039-19.962-28.258 0-48.22 19.781Q412-406.9 412-378.642q0 28.258 19.78 48.219 19.781 19.962 48.039 19.962Zm-156.742-250.77h216.137q12.394 0 20.436-8.113 8.043-8.113 8.043-20.107v-47.209q0-11.994-8.139-20.283-8.138-8.288-20.169-8.288H323.248q-12.394 0-20.437 8.113-8.042 8.114-8.042 20.107v47.21q0 11.993 8.139 20.282 8.138 8.288 20.169 8.288Z"/></svg>