<svg xmlns="http://www.w3.org/2000/svg" height="20" viewBox="0 -960 960 960" width="20"><path d="M240.615-184q-24.315 0-40.465-16.15Q184-216.3 184-240.615v-478.77q0-24.315 16.15-40.465Q216.3-776 240.615-776h390.616q11.145 0 21.726 4.231 10.582 4.23 19.274 12.923l86.615 86.615q8.693 8.692 12.923 19.274Q776-642.376 776-631.231v390.616q0 24.315-16.15 40.465Q743.7-184 719.385-184h-478.77ZM744-642 642-744H240.615q-10.769 0-17.692 6.923T216-719.385v478.77q0 10.769 6.923 17.692T240.615-216h478.77q10.769 0 17.692-6.923T744-240.615V-642ZM480-310.461q28.077 0 48.039-19.962Q548-350.384 548-378.461q0-28.077-19.961-48.039-19.962-19.962-48.039-19.962T431.961-426.5Q412-406.538 412-378.461t19.961 48.038q19.962 19.962 48.039 19.962Zm-156.923-250.77h216.308q12.223 0 20.265-8.017 8.043-8.017 8.043-20.203v-47.209q0-12.186-8.043-20.379-8.042-8.192-20.265-8.192H323.077q-12.223 0-20.266 8.017-8.042 8.017-8.042 20.203v47.21q0 12.186 8.042 20.378 8.043 8.192 20.266 8.192ZM216-629v413-528 115Z"/></svg>