<svg xmlns="http://www.w3.org/2000/svg" height="20" viewBox="0 -960 960 960" width="20"><path d="M267-8 163-636h635L693.5-8H267Zm213-277q52.5 0 89.25-36.75T606-411v-69h-98v69q0 11.9-8.05 19.95Q491.9-383 480-383q-11.9 0-19.95-8.05Q452-399.1 452-411v-69h-98v69q0 52.5 36.75 89.25T480-285Zm150-389q-35 0-60.5-25.5t-25.5-61q0-35.5 25.5-60.5t61-25q35.5 0 60.5 25.083 25 25.084 25 60.917 0 35-25.083 60.5Q665.833-674 630-674Zm-251.775-34Q328-708 292-743.775q-36-35.774-36-86.5Q256-881 291.775-916.5q35.774-35.5 86.5-35.5Q429-952 464.5-916.685q35.5 35.314 35.5 86.46Q500-780 464.685-744q-35.314 36-86.46 36Z"/></svg>