<svg xmlns="http://www.w3.org/2000/svg" height="20" viewBox="0 -960 960 960" width="20"><path d="m334-100-82-472h457l-82 472H334Zm145.882-238Q519-338 546.5-365.417 574-392.833 574-432v-46h-20v46q0 30.4-21.8 52.2Q510.4-358 480-358q-30.4 0-52.2-21.8Q406-401.6 406-432v-46h-20v46q0 39.167 27.382 66.583Q440.765-338 479.882-338Zm120.236-335Q586-673 576-682.882q-10-9.883-10-24Q566-721 575.882-731q9.883-10 24-10Q614-741 624-731.118q10 9.883 10 24Q634-693 624.118-683q-9.883 10-24 10Zm-191.893-48Q380-721 359-741.775q-21-20.774-21-49.5Q338-820 358.775-840.5q20.774-20.5 49.5-20.5Q437-861 457.5-840.765q20.5 20.234 20.5 49.54Q478-763 457.765-742q-20.234 21-49.54 21Z"/></svg>