<svg xmlns="http://www.w3.org/2000/svg" height="20" viewBox="0 -960 960 960" width="20"><path d="M305.694-68.001 215.079-604h530.227L654.691-68.001H305.694Zm174.261-254q45.814 0 77.929-32.083T589.999-432v-61.999h-51.998V-432q0 24.246-16.877 41.124-16.878 16.877-41.124 16.877-24.246 0-41.124-16.877-16.877-16.878-16.877-41.124v-61.999h-51.998V-432q0 45.833 32.07 77.916t77.884 32.083Zm120.09-350.384q-20.814 0-35.429-14.57-14.615-14.569-14.615-35.384 0-20.814 14.57-35.429 14.57-14.615 35.384-14.615t35.429 14.57q14.615 14.57 14.615 35.384T635.429-687q-14.57 14.615-35.384 14.615Zm-191.82-48q-35.609 0-60.917-25.082-25.307-25.082-25.307-60.884t25.082-60.917q25.082-25.115 60.884-25.115t60.917 24.874q25.115 24.875 25.115 60.9 0 35.609-24.874 60.917-24.875 25.307-60.9 25.307Z"/></svg>