<svg xmlns="http://www.w3.org/2000/svg" height="24" viewBox="0 -960 960 960" width="24"><path d="m315.384-80-69.23-520h468.462L645.385-80H315.384Zm56.154-40h216.924q9.23 0 16.153-6.154 6.923-6.154 8.462-15.384L668-560H291l55.923 418.462q1.539 9.23 8.462 15.384T371.538-120ZM480-340q41.539 0 70.769-29.231Q580-398.461 580-440v-60h-40v60q0 24.692-17.654 42.346Q504.692-380 480-380q-24.692 0-42.346-17.654Q420-415.308 420-440v-60h-40v60q0 41.539 29.231 70.769Q438.461-340 480-340Zm120-340.769q-16.539 0-28.269-11.731Q560-704.231 560-720.769q0-16.539 11.731-28.27 11.73-11.73 28.269-11.73 16.539 0 28.269 11.73Q640-737.308 640-720.769q0 16.538-11.731 28.269-11.73 11.731-28.269 11.731Zm-200-40q-32.769 0-56.385-23.616Q320-768 320-800.769q0-33.539 23.615-56.77 23.616-23.23 56.385-23.23 33.539 0 56.769 23.23Q480-834.308 480-800.769q0 32.769-23.231 56.384-23.23 23.616-56.769 23.616ZM588.462-120h-240 263.076-23.076Z"/></svg>