<svg xmlns="http://www.w3.org/2000/svg" height="20" viewBox="0 -960 960 960" width="20"><path d="M286.707-572.615q-26.015 0-43.592-17.942-17.577-17.941-17.577-43.73 0-25.79 17.577-43.752Q260.692-696 286.707-696q26.014 0 44.115 17.941 18.101 17.941 18.101 43.731 0 25.789-18.101 43.751-18.101 17.962-44.115 17.962ZM192.615-136q-23.654 0-40.134-16.481Q136-168.961 136-192.615v-186.462q0-11.731 8.288-20.019 8.289-8.289 20.019-8.289h84v-56.846q0-21.154 15.945-36.154 15.945-15 37.979-15 9.846 0 19.731 2.808 9.884 2.808 17.269 9.962l92.923 82.923q3.077 4.615 7.261 7.307 4.185 2.693 8.893 5h347.385q11.73 0 20.019 8.289Q824-390.808 824-379.077v186.462q0 23.654-16.481 40.134Q791.039-136 767.385-136h-574.77Zm542.953-406.769q-7.337 0-12.837-5.5t-5.27-12.808q2.77-27.077-5.384-53.808-8.154-26.73-28.231-46.807-18.692-18.693-30.192-43.885-11.5-25.192-11.193-51.885-1-7.426 4.971-12.982Q653.403-776 660.74-776q6.337 0 10.952 5.5 4.616 5.5 6.385 12.808.231 21.615 7.385 41.961 7.153 20.346 24.769 34.654 23.692 22.692 34.308 54.769 10.615 32.077 7.307 64.769-1 6.827-5.471 12.799-4.471 5.971-10.807 5.971Zm-144.77 0q-7.337 0-13.337-6t-5.769-13.308q2.769-26.846-4.884-53.192-7.654-26.346-28.5-46.423-18.693-19.693-30.808-43.885-12.115-24.192-10.808-51.885-1-7.426 4.971-12.982Q507.634-776 514.971-776t12.837 5.5q5.5 5.5 7.269 12.808.231 20.846 7.769 41.576 7.539 20.731 21.846 35.039 24.462 22.692 37.077 54.269 12.616 31.577 8.308 65.269-1 7.827-6.471 13.299-5.471 5.471-12.808 5.471ZM646.616-168h106.615v-208.385H646.616V-168ZM500-168h106.615v-208.385H500V-168Zm-146.615 0H460v-208.385H353.385V-168Zm-146.616 0h106.615v-208.385H206.769V-168Z"/></svg>