<svg xmlns="http://www.w3.org/2000/svg" height="24" viewBox="0 -960 960 960" width="24"><path d="M279.044-704Q244-704 219-728.748t-25-59.5Q194-823 218.956-848.5q24.955-25.5 60-25.5Q314-874 339-848.737q25 25.262 25 60.737 0 34.65-24.956 59.325-24.955 24.675-60 24.675ZM171-46q-51.562 0-88.281-36.719Q46-119.438 46-171v-265q0-26 18.5-44.5T109-499h83v-47q0-41.8 29.5-70.4Q251-645 293-645q24 0 45.5 11t38.5 28l63 71q9 11 19 19.5t21 16.5h371q26 0 44.5 18.5T914-436v265q0 51.562-36.719 88.281Q840.562-46 789-46H171Zm632-529q-22.487 0-37.243-15.5Q751-606 752-628q1-20-7.5-39t-22.402-32.537Q698-723 684.5-754T672-819q0-22.564 14.757-38.782Q701.513-874 724-874q22.054 0 37.027 15.923Q776-842.154 775-820q-1 20 6.5 37.5T803-751q25 24 39 55.5t13 66.5q0 22-14.757 38-14.756 16-37.243 16Zm-187 0q-22.487 0-37.243-15.5Q564-606 565-628q1-20-7.5-39t-22.402-32.902Q511-724 497.5-754.5T485-819q0-22.564 14.462-38.782Q513.924-874 535.962-874t37.538 15.342Q589-843.316 588-821q-1 19.932 6.5 37.966Q602-765 616.268-750.732 641-726 655-695t13 66q0 22-14.757 38-14.756 16-37.243 16Zm57 403h77v-201h-77v201Zm-154 0h77v-201h-77v201Zm-155 0h77v-201h-77v201Zm-154 0h77v-201h-77v201Z"/></svg>