<svg xmlns="http://www.w3.org/2000/svg" height="24" viewBox="0 -960 960 960" width="24"><path d="M309.826-60.782q-22.088 0-37.544-15.456-15.457-15.457-15.457-37.544v-652.436q0-22.087 15.457-37.544 15.456-15.456 37.544-15.456h77.173v-27q0-22.087 15.457-37.544 15.457-15.456 37.544-15.456h80q22.087 0 37.544 15.456 15.457 15.457 15.457 37.544v27h77.173q22.088 0 37.544 15.456 15.457 15.457 15.457 37.544v652.436q0 22.087-15.457 37.544-15.456 15.456-37.544 15.456H309.826Zm53-184.87h234.348v-467.565H362.826v467.565Z"/></svg>