<svg xmlns="http://www.w3.org/2000/svg" height="24" viewBox="0 -960 960 960" width="24"><path d="M221.538-120q-25.384 0-43.461-18.303Q160-156.606 160-182.308v-450.769q0-25.702 18.077-44.005t43.461-18.303h51.539v-89.231q0-26.654 18.981-45.634 18.98-18.981 45.634-18.981h285.385q26.654 0 45.635 18.981 18.981 18.98 18.981 45.634v89.231h50.769q26.077 0 43.807 18.303Q800-658.779 800-633.077v450.769q0 25.702-17.731 44.005Q764.539-120 738.462-120H221.538Zm91.539-575.385h334.615v-89.231q0-10.769-6.923-17.692t-17.692-6.923H337.692q-10.769 0-17.692 6.923t-6.923 17.692v89.231ZM221.538-160h516.924q8.461 0 15-6.923Q760-173.846 760-182.308v-450.769q0-8.461-6.538-15.384-6.539-6.924-15-6.924H221.538q-8.461 0-15 6.924Q200-641.538 200-633.077v450.769q0 8.462 6.538 15.385 6.539 6.923 15 6.923Zm257.693-70.769q73.742 0 125.717-51.962 51.975-51.961 51.975-124.577 0-72.615-51.975-124.961-51.975-52.346-125.717-52.346-73.104 0-124.629 52.346-51.525 52.346-51.525 124.961 0 72.616 51.525 124.577 51.525 51.962 124.629 51.962Zm.357-33.846q-59.126 0-100.511-41.385t-41.385-100.923q0-59.538 41.451-100.923 41.45-41.385 100.088-41.385 59.274 0 101.176 41.385 41.901 41.385 41.901 100.923 0 59.538-41.797 100.923-41.796 41.385-100.923 41.385Zm15.027-149.539v-69.692q0-5.846-4.351-10.231-4.352-4.385-10.154-4.385t-10.264 4.385q-4.461 4.385-4.461 10.231v69.461q0 6.128 2.23 11.872 2.231 5.744 7.462 10.975l37.692 37.692q4.532 4.461 10.574 4.461t10.503-4.351q4.462-4.352 4.462-10.154t-4.462-10.264l-39.231-40ZM480-407.692Z"/></svg>