<svg xmlns="http://www.w3.org/2000/svg" height="20" viewBox="0 -960 960 960" width="20"><path d="M227-62q-49.7 0-83.35-34.369Q110-130.738 110-179v-498q0-49.7 33.65-83.35Q177.3-794 227-794h-2v-40q0-49.7 34.15-83.85Q293.3-952 343-952h273q49.7 0 83.85 34.15Q734-883.7 734-834v40h-1q48.263 0 82.631 33.65Q850-726.7 850-677v498q0 48.262-34.369 82.631Q781.263-62 733-62H227Zm116-732h273v-40H343v40Zm137 544q73 0 125.5-51.917Q658-353.833 658-428q0-73-52.5-125.5T480-606q-73 0-125.5 52.5t-52.5 126q0 73.5 52.5 125.5T480-250Zm31-191.143V-498q0-12.4-9.343-21.7-9.343-9.3-21.8-9.3t-22.157 9.6q-9.7 9.6-9.7 22.4v58.405q0 12.595 4.5 22.666Q457-405.857 465-398l46 46q9.545 9 22.273 9Q546-343 555-352.143t9-21.818q0-12.675-9-22.039l-44-45.143Z"/></svg>