<svg xmlns="http://www.w3.org/2000/svg" height="24" viewBox="0 -960 960 960" width="24"><path d="M480-172q-51 0-93.5-25T318-266h-99q-5 0-9-4t-4-10q0-6 4-10t10-4h84q-8-23-10-52.5t-2-79.5h-73q-5 0-9-4t-4-10q0-6 4-10t10-4h72q0-50 2-82t10-50h-85q-5 0-9-4t-4-10q0-6 4-10t10-4h98q14-24 39-46.5t51-33.5l-66-66q-3-3-3-8t4-9q4-4 9-4t9 4l75 75q23-6 44-6t44 6l78-76q3-3 8-3t9 4q4 4 4 9t-4 9l-65 65q26 11 50 33.5t38 46.5h99q5 0 9 4t4 10q0 6-4 10t-10 4h-84q8 18 10 50t2 82h73q5 0 9 4t4 10q0 6-4 10t-10 4h-72q0 50-2 79.5T656-294h85q5 0 9 4t4 10q0 6-4 10t-10 4h-98q-26 44-68.5 69T480-172Zm-50-174h101q5 0 9-4t4-10q0-6-4-10t-10-4H429q-5 0-9 4t-4 10q0 6 4 10t10 4Zm0-160h101q5 0 9-4t4-10q0-6-4-10t-10-4H429q-5 0-9 4t-4 10q0 6 4 10t10 4Z"/></svg>