<svg xmlns="http://www.w3.org/2000/svg" height="24" viewBox="0 -960 960 960" width="24"><path d="M480-160q-54.231 0-99.731-26.615-45.5-26.616-72.885-73.385h-92.999q-7.77 0-13.385-5.731-5.616-5.73-5.616-14.269t5.731-14.269q5.731-5.731 14.27-5.731h74.769Q281-329.231 280.5-359.615 280-390 280-420h-65.615q-7.77 0-13.385-5.731-5.616-5.73-5.616-14.269t5.731-14.269q5.731-5.731 14.27-5.731H280q0-30.769-.269-61.154-.27-30.384 10.423-58.846h-75.769q-7.77 0-13.385-5.731-5.616-5.73-5.616-14.269t5.731-14.269q5.731-5.731 14.27-5.731h91.999q14.77-26.077 36.5-46.462 21.731-20.384 49.346-33.077l-59.307-59.538q-5.616-5.846-5.116-13.115.5-7.27 6.116-12.885 5.615-5.616 13.385-5.616 7.769 0 13.384 5.616L432.769-714q23.385-6.693 47-6.693 23.616 0 47 6.693l73.846-72.077q5.847-5.616 13.116-5.116 7.269.5 12.885 6.116 5.615 5.615 5.615 13.385 0 7.769-5.615 13.384l-58.77 58.769q27.616 12.693 48.808 32.962 21.192 20.269 35.962 46.577h92.999q7.77 0 13.385 5.731 5.616 5.73 5.616 14.269t-5.731 14.269Q753.154-580 744.615-580h-74.769q10.693 28.462 10.423 58.846Q680-490.769 680-460h65.615q7.77 0 13.385 5.731 5.616 5.73 5.616 14.269t-5.731 14.269Q753.154-420 744.615-420H680q0 30-.5 60.385-.5 30.384-9.654 59.615h75.769q7.77 0 13.385 5.731 5.616 5.73 5.616 14.269t-5.731 14.269Q753.154-260 744.615-260h-91.999q-27.385 46.769-72.885 73.385Q534.231-160 480-160Zm0-40q66 0 113-47t47-113v-160q0-66-47-113t-113-47q-66 0-113 47t-47 113v160q0 66 47 113t113 47Zm-47.692-140h96.384q7.77 0 13.385-5.731 5.615-5.73 5.615-14.269t-5.73-14.269Q536.231-380 527.692-380h-96.384q-7.77 0-13.385 5.731-5.615 5.73-5.615 14.269t5.73 14.269q5.731 5.731 14.27 5.731Zm0-160h96.384q7.77 0 13.385-5.731 5.615-5.73 5.615-14.269t-5.73-14.269Q536.231-540 527.692-540h-96.384q-7.77 0-13.385 5.731-5.615 5.73-5.615 14.269t5.73 14.269q5.731 5.731 14.27 5.731ZM480-440Z"/></svg>