<svg xmlns="http://www.w3.org/2000/svg" height="24" viewBox="0 -960 960 960" width="24"><path d="M480-140.001q-60.23 0-110.422-29.923t-79.884-80.077h-83.001q-12.384 0-20.692-8.615-8.307-8.615-8.307-21.384t8.615-21.384q8.615-8.615 21.384-8.615h59.386q-4.924-23-6.001-44.501-1.077-21.5-1.077-55.501h-53.308q-12.384 0-20.692-8.615-8.307-8.615-8.307-21.384t8.615-21.384q8.615-8.615 21.384-8.615h52.308q0-35.847 1.077-58.924 1.077-23.078 6.001-41.078h-60.386q-12.384 0-20.692-8.615-8.307-8.615-8.307-21.384t8.615-21.384q8.615-8.615 21.384-8.615h82.001q14-24 34.384-44.654 20.385-20.654 44.539-34.116l-48.154-48.77q-7.923-8.538-7.616-20.614.308-12.077 8.616-20.384 8.307-8.308 20.691-8.308 12.385 0 20.692 8.308l64.539 64.538q23-7.23 52-7.23 28.999 0 51.999 7.23l66.924-65.538q8.538-7.923 20.615-7.616 12.076.308 20.384 8.616 8.307 8.307 8.307 20.691 0 12.385-8.307 20.692l-48.386 48.385q24.154 13.462 44.77 34.116 20.615 20.654 34.615 44.654h83.001q12.384 0 20.692 8.615 8.307 8.615 8.307 21.384t-8.615 21.384q-8.615 8.615-21.384 8.615h-59.386q4.924 21.077 6.001 42.616 1.077 21.539 1.077 57.386h53.308q12.384 0 20.692 8.615 8.307 8.615 8.307 21.384t-8.615 21.384q-8.615 8.615-21.384 8.615h-52.308q0 34.001-1.077 55.501-1.077 21.501-6.001 44.501h60.386q12.384 0 20.692 8.615 8.307 8.615 8.307 21.384t-8.615 21.384q-8.615 8.615-21.384 8.615h-82.001q-29.692 50.154-79.884 80.077Q540.23-140.001 480-140.001Zm-43.846-190h88.692q12.385 0 20.692-8.615 8.308-8.615 8.308-21.384t-8.615-21.384q-8.616-8.615-21.385-8.615h-88.692q-12.385 0-20.692 8.615-8.308 8.615-8.308 21.384t8.615 21.384q8.616 8.615 21.385 8.615Zm0-160h88.692q12.385 0 20.692-8.615 8.308-8.615 8.308-21.384t-8.615-21.384q-8.616-8.615-21.385-8.615h-88.692q-12.385 0-20.692 8.615-8.308 8.615-8.308 21.384t8.615 21.384q8.616 8.615 21.385 8.615Z"/></svg>