<svg xmlns="http://www.w3.org/2000/svg" height="20" viewBox="0 -960 960 960" width="20"><path d="M480-115.617Q333.001-240.463 259.539-348.154q-73.461-107.692-73.461-198.923 0-122.46 82.077-209.691Q350.231-843.999 480-843.999q35.846 0 68.5 7.616 32.654 7.615 62.115 21.615L370.001-573.154v155.153h156.153l230.383-231.383q8 24.615 12.692 49.846 4.693 25.231 4.693 52.461 0 91.231-72.961 198.423Q627.999-241.463 480-115.617Zm-30.306-382.077v-43.382l222.537-222.538 43.383 43.383-222.538 222.537h-43.382Zm298.92-257.537-42.383-42.383 41.768-41.768 42.383 42.383-41.768 41.768Z"/></svg>