<svg xmlns="http://www.w3.org/2000/svg" height="24" viewBox="0 -960 960 960" width="24"><path d="M480-119.231Q339-243.923 267.577-351.808q-71.423-107.884-71.423-196.346 0-126.923 82.654-209.385Q361.461-840 480-840q24.692 0 48.5 3.731 23.808 3.73 45.731 11.73L380-629.308V-460h169.308l195.769-195.769q9 25.23 13.885 51.692 4.884 26.462 4.884 55.923 0 88.462-71.423 196.346Q621-243.923 480-119.231Zm-4.616-436.153v-34.77l211.078-211.077 34.769 34.769-211.077 211.078h-34.77Zm273.847-239.078-34.769-34.769L752-866.77 786.77-832l-37.539 37.538Z"/></svg>