<svg xmlns="http://www.w3.org/2000/svg" height="20" viewBox="0 -960 960 960" width="20"><path d="M480-76.782Q313.956-213.434 231.369-327.347q-82.587-113.913-82.587-223.914 0-141.913 94.935-236.935Q338.652-883.218 480-883.218q39.826 0 76.37 8.565 36.543 8.565 69.804 24.261L355.478-578.696v175.218h176.218L791.957-664.74q9.131 26.696 14.196 54.957 5.065 28.261 5.065 58.522 0 110.001-82.087 223.414Q647.044-214.434 480-76.782Zm-52.522-398.696v-74.218l236.478-236.478 74.218 74.218-236.478 236.478h-74.218Zm349.913-277.131-73.782-73.782 57.782-57.783 73.783 73.783-57.783 57.782Z"/></svg>