<svg xmlns="http://www.w3.org/2000/svg" height="24" viewBox="0 -960 960 960" width="24"><path d="M654.195-566Q632-566 616-581.525T600-620v-180q0-22.95 15.873-38.475Q631.746-854 654.035-854 677-854 692.5-838.475 708-822.95 708-800v180q0 22.95-15.469 38.475Q677.062-566 654.195-566ZM232-132q-24.75 0-42.375-17.625T172-192v-576q0-24.75 17.625-42.375T232-828h248q5.95 0 9.975 4.035 4.025 4.035 4.025 10T489.975-804q-4.025 4-9.975 4H232q-14 0-23 9t-9 23v576q0 14 9 23t23 9h376q14 0 23-9t9-23v-48q0-5.95 4.035-9.975 4.035-4.025 10-4.025t9.965 4.025q4 4.025 4 9.975v48q0 24.75-17.625 42.375T608-132H232Zm282-122H326q-8.5 0-14.25-5.75T306-274q0-8.5 5.75-14.25T326-294h188q8.5 0 14.25 5.75T534-274q0 8.5-5.75 14.25T514-254Zm-74-120H320q-5.95 0-9.975-4.035-4.025-4.035-4.025-10t4.025-9.965q4.025-4 9.975-4h120q5.95 0 9.975 4.035 4.025 4.035 4.025 10T449.975-378q-4.025 4-9.975 4Zm213.635-100q62.946 0 110.155-36Q811-546 819-603q1-7 5.138-12t10-5q5.862 0 9.862 5t3 12q-7 66-58.5 109T668-446v86q0 5.95-4.035 9.975-4.035 4.025-10 4.025T644-350.025q-4-4.025-4-9.975v-86q-68-5-119.5-48T461-601q-1-8 2.5-13.5t10-5.5q6.5 0 10.5 5t5 12q8 57 55.5 93t109.135 36Z"/></svg>