<svg xmlns="http://www.w3.org/2000/svg" height="24" viewBox="0 -960 960 960" width="24"><path d="M375.385-240q-21.539 0-40.577-9.769-19.039-9.769-31.577-27.308L186.846-442.461Q174.923-459.615 174.923-480t11.923-37.539l116.385-163.846q12.538-17.538 31.192-28.077Q353.077-720 375.385-720h360q26.846 0 45.731 18.884Q800-682.231 800-655.385v350.77q0 26.846-18.884 45.731Q762.231-240 735.385-240h-360ZM760-280v-400 400Zm-384.615 0h360q9.23 0 16.923-7.692Q760-295.385 760-304.615v-350.77q0-9.23-7.692-16.923Q744.615-680 735.385-680h-360q-11.539 0-21.923 5.769-10.385 5.769-16.539 14.231L218.769-494.615q-4.615 6.154-4.615 14.615t4.615 14.615L336.923-300q6.154 8.462 16.539 14.231Q363.846-280 375.385-280Zm170.769-171.692L636-361.846q5.615 5.615 13.769 6 8.154.385 14.539-6T670.693-376q0-7.769-6.385-14.154L574.462-480l89.846-89.846q5.615-5.615 6-13.769.385-8.154-6-14.539t-14.154-6.385q-7.769 0-14.154 6.385l-89.846 89.846-89.846-89.846q-5.616-5.615-13.769-6-8.154-.385-14.539 6T421.615-584q0 7.769 6.385 14.154L517.846-480 428-390.154q-5.615 5.615-6 13.769-.385 8.154 6 14.539t14.154 6.385q7.769 0 14.154-6.385l89.846-89.846Z"/></svg>