<svg xmlns="http://www.w3.org/2000/svg" height="20" viewBox="0 -960 960 960" width="20"><path d="M385-206q-26.727 0-50.864-11Q310-228 293-250L165-408q-24-32.423-24-72.211Q141-520 165-552l128-158q16.978-21 41.125-32.5Q358.273-754 385-754h299q48.675 0 83.338 34.662Q802-684.675 802-636v312q0 48.675-34.662 83.338Q732.675-206 684-206H385Zm299-118v-312 312Zm-299 0h299v-312H384.83L259-480l126 156Zm144-91 41 41q14 14 32.5 13.5T635-375q14-14 14-32.5T635-440l-41-40 41-41q14-14 14-32.5T635-586q-14-14-32.5-14T570-586l-41 41-41-41q-14-14-32-14t-32 14q-14 14-14 32.5t14 32.5l40 41-41 41q-14 14-13.5 32t14.5 32q14 14 32.5 14t32.5-14l40-40Z"/></svg>