<svg xmlns="http://www.w3.org/2000/svg" height="24" viewBox="0 -960 960 960" width="24"><path d="M367.913-180.782q-25.652 0-48.522-11.261-22.87-11.261-37.261-32.348L144.521-418.738Q124.999-446.521 124.999-480t19.522-61.262L282.13-735.609q14.391-20.522 37.261-32.066 22.87-11.543 48.522-11.543h385.304q43.74 0 74.871 31.13 31.13 31.131 31.13 74.871v386.434q0 43.74-31.13 74.871-31.131 31.13-74.871 31.13H367.913Zm192.652-233.609 58.478 58.478q13.261 13.261 32.804 12.978 19.544-.283 32.805-13.544 13.261-13.261 13.261-32.804 0-19.544-13.261-32.805L626.174-480l58.478-58.477q13.261-13.261 13.261-32.805t-13.261-32.805q-13.261-13.261-32.805-13.261-19.543 0-32.804 13.261l-58.478 58.478-58.477-58.478q-13.261-13.261-32.522-13.261t-32.522 13.261q-13.261 13.261-13.261 32.805t13.261 32.805L494.956-480l-58.477 58.477q-13.261 13.261-12.979 32.522.283 19.261 13.544 32.522 13.261 13.261 32.805 13.261 19.543 0 32.804-13.261l57.912-57.912Z"/></svg>