<svg xmlns="http://www.w3.org/2000/svg" height="24" viewBox="0 -960 960 960" width="24"><path d="M128.26-506.48q-3.739-21.348-5.044-42.412-1.304-21.065-1.304-42.413 0-74.565 23.696-144t66.261-130.565q9.696-13.826 25.652-15.326 15.957-1.5 27.783 10.326t13.109 29.848Q279.696-823 270-808.609q-32.174 49.174-49.956 103.718-17.783 54.543-17.783 113.586 0 22.609 1.869 45 1.87 22.391 6.609 44.565l30.999-30.565q11.827-11.391 28.349-11.609 16.522-.217 28.348 11.609t11.543 28.348q-.282 16.522-12.108 28.348l-88.174 88.174q-15.957 15.957-37.609 15.957-21.653 0-37.61-15.957l-88.739-88.739Q33.912-488 33.912-504.239q0-16.24 11.826-28.066 11.827-11.826 28.349-11.826t28.348 11.826l25.825 25.825Zm511.087 397.568q-24.131 8.565-49.609 7.783-25.478-.783-48.044-11.783L290.258-234.87q-11.043-5.304-15.63-16.847-4.587-11.543.152-22.587l.87-1.739q12.261-30.174 38.457-48.892 26.196-18.717 58.37-19.587l57.826-2.174-110.87-304.739q-7.13-18.261 1.566-35.87 8.695-17.608 26.956-24.739 18.261-7.13 35.87 1.565 17.609 8.696 24.74 26.957l132.261 363.218q7.565 21.261-5.414 40.304-12.978 19.044-35.804 19.348l-43.043.739 125.347 60.435q5.87 2.435 12.457 2.935 6.586.5 12.456-1.5l203.35-73.958q28.174-10.434 41.043-37.826 12.87-27.391 2.435-55.564l-60.652-166.393q-7.131-18.261 1.565-35.869 8.696-17.609 26.957-24.74 18.261-7.13 35.587 1.565 17.326 8.696 24.457 26.957l61.217 166.392q24.131 65.827-5.065 128.153Q908.523-207 842.697-182.87l-203.35 73.958ZM527.26-613.218q18.261-7.131 35.87 1.565 17.609 8.696 24.74 26.957l43.26 117.652q7.131 18.826-1.282 36.37-8.413 17.544-27.239 24.674-18.827 7.13-36.37-1.565-17.544-8.696-24.674-26.957l-42.827-118.087q-7.13-18.261 1.566-35.87 8.695-17.609 26.956-24.739Zm140.131-8.088q18.261-7.13 35.87 1.283 17.609 8.413 24.74 26.674l29.261 80.653q7.13 18.826-1.066 36.152-8.195 17.326-27.022 24.457-18.826 7.13-36.369-1.565-17.544-8.696-24.675-26.957l-29.26-80.087q-7.131-18.261 1.565-35.87 8.695-17.609 26.956-24.74Zm3.13 262.915Z"/></svg>