<svg xmlns="http://www.w3.org/2000/svg" height="24" viewBox="0 -960 960 960" width="24"><path d="M182.769-424.308q-9.077-34.692-13.615-69.769-4.539-35.077-4.539-70.538 0-70.154 21.231-135.539 21.231-65.385 60.923-123.077 4.923-6.385 11.923-8.269 7-1.885 12.923 4.038t6.154 14.039q.231 8.115-4.692 14.5-35 52.769-54.039 112.038Q200-627.615 200-564.615q0 35.999 4.538 71.499 4.539 35.5 14.616 69.731L287-491q5.154-4.923 12.538-5.423 7.385-.5 12.539 5.423 5.154 5.154 4.769 12.538-.385 7.385-5.538 12.539l-87.154 87.154q-9.693 9.692-22.616 9.692t-22.615-9.692L91-466.692q-5.154-5.154-5.154-12.154T91-491q5.154-5.923 12.538-5.539 7.385.385 12.539 5.539l66.692 66.692Zm469.077 256.539q-18.384 6.462-38.423 5.962-20.038-.5-38.192-9.193L345.385-277.538q-9.616-4.693-12.924-14.423-3.307-9.731 1.385-19.347l.462-.923q6.153-10.769 16.077-17.115 9.923-6.346 21.923-7.577l114.153-12.692L372.154-662q-2.923-8.308.615-15.5 3.539-7.192 11.846-10.115 8.308-2.924 15.5.615 7.193 3.538 10.116 11.846l117.692 322.385q5.462 15.154-3.231 28.577-8.692 13.423-24.846 15.423l-107.769 9.154 200.231 92.538q10.077 4.539 22.307 5.423 12.231.885 23.077-3.423l137.77-50.077q39.461-14.077 56.923-51.5 17.461-37.423 3.384-76.884l-55-150q-2.923-8.308.231-15.5 3.154-7.193 11.462-10.116 8.307-2.923 15.5.231 7.192 3.154 10.115 11.462l55 150q20.692 55.307-3.731 107.5-24.423 52.192-79.73 72.115l-137.77 50.077Zm-113.077-427q8.308-2.923 15.5.615 7.193 3.539 10.116 11.846l47.923 131.231q2.923 7.539-.616 15.231-3.538 7.692-11.077 10.615-7.538 2.923-15.615-1t-11-11.461l-47.692-131.462q-2.923-8.307.615-15.5 3.538-7.192 11.846-10.115Zm120.616-.693q8.307-2.923 15.5.231 7.192 3.154 10.115 11.462l33.923 93.461q2.923 7.539-.5 15.5-3.423 7.962-11.731 10.885-7.538 2.923-15.23-1-7.693-3.923-10.616-11.462l-33.923-94.23q-2.923-8.308.615-15.116 3.539-6.807 11.847-9.731Zm21.923 243.539Z"/></svg>