<svg xmlns="http://www.w3.org/2000/svg" height="20" viewBox="0 -960 960 960" width="20"><path d="M139.26-483.48q-7.739-25.348-10.544-51.412-2.804-26.065-2.804-52.413 0-74.565 25.696-143t72.261-126.565q7.696-10.826 21.652-11.326 13.957-.5 23.783 9.326 10.826 10.826 11.109 25.348.283 14.522-8.413 25.913-36.174 48.174-56.956 103.718-20.783 55.543-20.783 116.586 0 27.609 3.369 55 3.37 27.391 11.109 53.565l43.999-44.565q9.827-10.391 24.349-10.109 14.522.283 24.348 10.109 9.826 9.826 9.543 24.348-.282 14.522-10.108 24.348l-90.174 90.174q-14.957 14.957-34.609 14.957-19.653 0-34.61-14.957l-91.739-91.739q-9.826-9.826-9.826-24.065 0-14.24 9.826-24.066 9.827-9.826 24.349-9.826t24.348 9.826l40.825 40.825Zm492.087 349.568q-24.131 8.565-49.609 7.783-25.478-.783-48.044-10.783L287.258-257.87q-10.043-4.304-13.63-14.347-3.587-10.043 1.152-20.087l1.87-4.739q10.261-27.174 33.957-43.892 23.696-16.717 53.87-17.587l66.826-5.174-109.87-303.739q-6.13-16.261 2.066-32.87 8.195-16.608 24.456-22.739 16.261-6.13 32.87 2.065 16.609 8.196 22.74 24.457l129.261 356.218q6.565 19.261-4.914 36.304-11.478 17.044-31.304 17.348l-64.043 4.739 137.347 66.435q7.87 4.435 15.957 3.935 8.086-.5 15.956-3.5l194.35-70.958q35.174-13.434 50.543-45.826 15.37-32.391 1.935-67.564l-66.652-185.393q-6.131-16.261 1.565-32.869 7.696-16.609 23.957-22.74 16.261-6.13 32.587 1.565 16.326 7.696 22.457 23.957l68.217 185.392q25.131 68.827-5.565 135.153t-99.522 90.456l-194.35 69.958ZM521.26-638.218q16.261-6.131 32.87 1.565 16.609 7.696 22.74 23.957l43.26 119.652q6.131 16.826-1.782 32.37-7.913 15.544-24.739 21.674-16.827 6.13-32.37-1.565-15.544-7.696-21.674-23.957l-44.827-118.087q-6.13-16.261 2.066-32.87 8.195-16.609 24.456-22.739Zm143.131-1.088q16.261-6.13 32.87 1.283 16.609 7.413 22.74 23.674l27.261 73.653q6.13 16.826-2.066 33.152-8.195 16.326-25.022 22.457-16.826 6.13-32.869-2.065-16.044-8.196-22.175-24.457l-26.26-72.087q-6.131-16.261 1.565-32.87 7.695-16.609 23.956-22.74Zm3.13 251.915Z"/></svg>