<svg xmlns="http://www.w3.org/2000/svg" height="20" viewBox="0 -960 960 960" width="20"><path d="M193.769-401.308Q180.692-440 174.654-480.077q-6.039-40.077-6.039-80.538 0-70.154 23.231-134.539 23.231-64.385 66.923-119.077 2.923-3.385 7.923-4.269 5-.885 8.923 3.038 4.923 4.923 4.154 9.539-.769 4.615-4.692 8-39 51.769-61.039 112.038Q192-625.615 192-560.615q0 40.999 6.038 81.499 6.039 40.5 19.116 78.731L298-482q3.154-3.923 8.538-3.923 5.385 0 8.539 3.923 3.154 3.154 2.769 8.538-.385 5.385-3.538 8.539l-89.154 89.154q-8.693 8.692-19.616 8.692t-19.615-8.692L95-466.692q-3.154-3.154-3.154-8.154T95-483q3.154-3.923 8.538-3.539 5.385.385 8.539 3.539l81.692 81.692Zm450.077 208.539q-18.384 6.462-38.423 5.962-20.038-.5-38.192-8.193L342.385-300.538q-8.616-3.693-10.924-11.923-2.307-8.231 2.385-16.847l1.462-3.923q4.153-7.769 11.577-12.115 7.423-4.346 17.423-5.577l123.153-15.692L374.154-678q-1.923-6.308 1.115-12.5 3.039-6.192 9.346-8.115 6.308-1.924 12.5 1.115 6.193 3.038 8.116 9.346l89.077 247 75.769-27.769-47.769-130.231q-1.923-6.307 1.115-12.5 3.038-6.192 9.346-8.115t12.5.615q6.193 2.539 8.116 8.846l47.769 130.462 76.538-28.539-30.769-85.23q-1.923-6.308.615-12.116 2.539-5.807 8.847-7.731 6.307-1.923 12.5.231 6.192 2.154 8.115 8.462l31.769 85.461 75.769-27.769-14.769-39.461q-1.923-6.308.231-12.5 2.154-6.193 8.462-8.116 6.307-1.923 12.5.231 6.192 2.154 8.115 8.462l62 169q21.692 58.307-4.231 114.5-25.923 56.192-84.23 76.115l-128.77 46.077Z"/></svg>