<svg xmlns="http://www.w3.org/2000/svg" height="24" viewBox="0 -960 960 960" width="24"><path d="M360-180.782q-123.913 0-211.566-87.652Q60.782-356.087 60.782-480q0-40.261 19.63-91.935 19.631-51.674 67.609-97.718 47.978-46.043 128.652-77.804Q357.348-779.218 480-779.218t203.327 31.761q80.674 31.761 128.652 77.804 47.978 46.044 67.609 97.718 19.63 51.674 19.63 91.935 0 123.913-87.652 211.566Q723.913-180.782 600-180.782H360Zm11.087-106.001h217.826q64.696 0 113.369-30.674Q750.956-348.13 776.087-400H183.913q25.131 51.87 73.805 82.543 48.673 30.674 113.369 30.674ZM480-400Zm0-40Zm-313.217-40h626.434q0-28.304-15.435-62.174-15.434-33.869-52.087-63.021-36.652-29.153-96.739-48.587Q568.87-673.217 480-673.217q-88.87 0-148.739 19.435-59.87 19.434-96.522 48.587-36.652 29.152-52.304 63.021-15.652 33.87-15.652 62.174ZM480-480Z"/></svg>