<svg xmlns="http://www.w3.org/2000/svg" height="20" viewBox="0 -960 960 960" width="20"><path d="M164.001-116.001v-727.998h583.998v357.692q-15.385-3.615-30.5-4.115T687-489.307q-94.076 6.769-157.538 78.192-63.461 71.422-63.461 170.961 0 32.384 10.071 64.084 10.072 31.699 27.544 60.069H164.001Zm545.772 41.845q-71.696 0-121.734-50.264t-50.038-121.96q0-71.697 50.264-121.735t121.96-50.038q71.697 0 121.735 50.264 50.038 50.265 50.038 121.961t-50.264 121.734q-50.265 50.038-121.961 50.038Zm-40.081-88.307 118.614-84.461-118.614-84.46v168.921ZM298.001-496.155 384-538.001l85.999 41.846V-792H298.001v295.845Z"/></svg>