<svg xmlns="http://www.w3.org/2000/svg" height="20" viewBox="0 -960 960 960" width="20"><path d="m480-484-73-73q-16.5-17-39.417-17-22.916 0-38.583 17-17 15.667-16.5 39.333.5 23.667 16.439 39.606l110.122 109.122Q456.818-352 480.091-352T521-369l109.147-109.147Q646-494 647-517.5q1-23.5-16-39.978Q615-574 591.5-573q-23.5 1-39.378 16.878L480-484Zm.276 422Q393-62 317.013-94.584q-75.988-32.583-132.917-89.512T94.584-316.971Q62-392.917 62-480.458 62-568 94.584-643.487q32.583-75.488 89.512-132.417t132.875-89.512Q392.917-898 480.458-898q87.542 0 163.029 32.584 75.488 32.583 132.417 89.512t89.512 132.641Q898-567.551 898-480.276q0 87.276-32.584 163.263-32.583 75.988-89.512 132.917T643.263-94.584Q567.551-62 480.276-62Z"/></svg>