<svg xmlns="http://www.w3.org/2000/svg" height="20" viewBox="0 -960 960 960" width="20"><path d="M480-428.539 379.385-529.154q-5.423-5.615-11.725-5.615-6.301 0-10.814 5.615-5.615 4.513-5.231 11.103.385 6.59 5.17 11.374l103.661 103.661q8.631 8.632 19.736 8.632t19.433-8.693l102.917-102.916q4.699-4.699 5.468-11.507.769-6.808-4.846-12.132-4.846-5.137-11.654-4.368-6.808.769-11.532 5.494L480-428.539ZM480.409-136q-70.948 0-133.685-26.839-62.737-26.84-109.865-73.922-47.127-47.082-73.993-109.716Q136-409.111 136-480.325q0-71.214 26.839-133.451 26.84-62.237 73.922-109.365 47.082-47.127 109.716-73.993Q409.111-824 480.325-824q71.214 0 133.451 26.839 62.237 26.84 109.365 73.922 47.127 47.082 73.993 109.482Q824-551.357 824-480.409q0 70.948-26.839 133.685-26.84 62.737-73.922 109.865-47.082 47.127-109.482 73.993Q551.357-136 480.409-136ZM480-168q130 0 221-91t91-221q0-130-91-221t-221-91q-130 0-221 91t-91 221q0 130 91 221t221 91Zm0-312Z"/></svg>