<svg xmlns="http://www.w3.org/2000/svg" height="24" viewBox="0 -960 960 960" width="24"><path d="M766.218-480v-373.001h106.001V-480H766.218ZM260.216-45.52l-60.217-201.784q-49.696-40.261-80.957-100.935Q87.781-408.913 87.781-480q0-71.087 31.261-131.761 31.261-60.674 80.957-100.935l60.217-201.784h253.566L574-712.696q49.696 40.261 80.957 100.935Q686.218-551.087 686.218-480q0 71.087-31.261 131.761Q623.696-287.565 574-247.304L513.782-45.52H260.216Zm126.783-241.263q80.174 0 136.696-56.522Q580.216-399.826 580.216-480q0-80.174-56.521-136.695-56.522-56.522-136.696-56.522-80.173 0-136.695 56.522Q193.782-560.174 193.782-480q0 80.174 56.522 136.695 56.522 56.522 136.695 56.522Zm-69.217-484.131q16.609-4.435 33.978-6.587 17.37-2.152 35.239-2.152 17.87 0 35.239 2.152 17.37 2.152 33.978 6.587l-15.434-46.609H333.217l-15.435 46.609Zm15.435 628.437h107.565l15.434-46.609q-16.608 3.87-33.978 6.087-17.369 2.217-35.239 2.217-17.869 0-35.239-2.217-17.369-2.217-33.978-6.087l15.435 46.609Zm-15.435-675.046h138.434-138.434Zm15.435 675.046h-15.435 138.434-122.999Z"/></svg>