<svg xmlns="http://www.w3.org/2000/svg" height="20" viewBox="0 -960 960 960" width="20"><path d="M726.691-480.385v-326.844h51.999v326.844h-51.999ZM297.616-132.156l-38.768-163.537q-45.154-28.769-72.501-76.73Q159.001-420.385 159.001-480q0-59.615 27.846-107.577 27.847-47.961 74.001-76.73l36.768-163.537h162.767l36.769 163.537q46.154 28.769 74 76.73Q598.998-539.615 598.998-480q0 59.615-27.346 107.577-27.346 47.961-72.5 76.73l-38.769 163.537H297.616ZM379.198-312Q449-312 498-361.198t49-119Q547-550 497.802-599t-119-49Q309-648 260-598.802t-49 119Q211-410 260.198-361q49.197 49 119 49Z"/></svg>