<svg xmlns="http://www.w3.org/2000/svg" height="20" viewBox="0 -960 960 960" width="20"><path d="M739.696-480v-353.5h83V-480h-83ZM279.63-81.413 229-281.782q-44.718-33.957-71.674-85.011Q130.369-417.848 130.369-480q0-62.152 27.457-113.207 27.456-51.054 73.174-85.011l48.63-200.369h197.74L526-678.218q45.717 33.957 73.174 85.011Q626.63-542.152 626.63-480q0 62.152-26.956 113.207-26.957 51.054-71.674 85.011l-50.63 200.37H279.63Zm99.064-233.457q68.61 0 116.773-48.357 48.163-48.358 48.163-116.967 0-68.61-48.357-116.773-48.358-48.163-116.968-48.163-68.609 0-116.772 48.357-48.163 48.358-48.163 116.967 0 68.61 48.357 116.773 48.358 48.163 116.967 48.163Z"/></svg>