<svg xmlns="http://www.w3.org/2000/svg" height="24" viewBox="0 -960 960 960" width="24"><path d="m232.538-299.923 155.846-155.846q5.847-5.846 14.154-6.116 8.308-.269 14.154 6.347 5.616 6.125 5.616 14.293t-5.616 14.014l-160.538 160.77q-9.693 9.692-22.616 9.692t-22.615-9.692L133.384-344q-5.615-5.615-5.23-13.769.384-8.154 6-13.769 5.615-5.616 13.897-5.616t13.641 5.616l70.846 71.615Zm0-289.231L388.384-745q5.847-5.846 14.154-6.116 8.308-.269 14.154 6.347 5.616 6.126 5.616 14.293 0 8.168-5.616 14.014l-160.538 160.77Q246.461-546 233.538-546t-22.615-9.692l-77.539-77.539q-5.615-5.615-5.23-13.769.384-8.154 6-13.769 5.615-5.616 13.897-5.616t13.641 5.616l70.846 71.615Zm308.231 273.77q-8.5 0-14.25-5.758t-5.75-14.269q0-8.512 5.75-14.243t14.25-5.731h280q8.5 0 14.25 5.758t5.75 14.269q0 8.512-5.75 14.243t-14.25 5.731h-280Zm0-289.231q-8.5 0-14.25-5.758t-5.75-14.269q0-8.512 5.75-14.243t14.25-5.731h280q8.5 0 14.25 5.758t5.75 14.269q0 8.512-5.75 14.243t-14.25 5.731h-280Z"/></svg>