<svg xmlns="http://www.w3.org/2000/svg" height="20" viewBox="0 -960 960 960" width="20"><path d="M775.441-316q-21.272 0-41.602-5.5Q713.508-327 694-336q-13.4-5-28.2-9.5Q651-350 638-350q-19.254 0-40.127 7t-41.606 20L528-386q27-15 54.5-23.5t55.059-8.5q21.272 0 42.102 5.5Q700.492-407 720-398q13.16 5 27.213 9.5Q761.267-384 775-384q19.597 0 40.799-7 21.201-7 41.934-20L886-348q-28 15-55.5 23.5t-55.059 8.5Zm0 108q-21.272 0-41.602-5.5Q713.508-219 694-228q-13.4-5-28.2-9.5Q651-242 638-242q-19.254 0-40.127 7t-41.606 20L528-278q27-15 54.5-23.5t55.059-8.5q21.272 0 42.102 5.5Q700.492-299 720-290q13.16 5 27.213 9.5Q761.267-276 775-276q19.597 0 40.799-7 21.201-7 41.934-20L886-240q-28 15-55.5 23.5t-55.059 8.5Zm0 108q-21.272 0-41.602-5.5Q713.508-111 694-120q-13.4-5-28.2-9.5Q651-134 638-134q-19.254 0-40.127 7t-41.606 20L528-170q27-15 54.5-23.5t55.059-8.5q21.272 0 42.102 5.5Q700.492-191 720-182q13.16 5 27.213 9.5Q761.267-168 775-168q19.597 0 40.799-7 21.201-7 41.934-20L886-132q-28 15-55.5 23.5t-55.059 8.5ZM470-112q-131-3-221.5-95T158-430q0-61 22-117.5T243-649l237-263 238 263q31 34 51.5 74t26.5 85H587q-49.287 0-83.144 34.15Q470-421.7 470-372v260Z"/></svg>