<svg xmlns="http://www.w3.org/2000/svg" height="24" viewBox="0 -960 960 960" width="24"><path d="M198.782-95.521 95.522-198.782q-30.914-30.913-30.914-74.653 0-43.739 30.913-74.653l516.391-516.391q30.914-30.913 74.653-30.913 43.74 0 74.653 30.913l103.261 103.261q30.913 30.913 30.913 74.653 0 43.739-30.913 74.653L348.088-95.522q-30.914 30.914-74.653 30.914-43.74 0-74.653-30.913ZM508-198.868 761.132-452l103.347 103.912q30.913 30.914 30.913 74.653 0 43.74-30.913 74.653L761.218-95.522q-30.913 30.914-74.653 30.914-43.739 0-74.653-30.913L508-198.868Zm-28-143.044q18.922 0 31.722-12.641 12.8-12.64 12.8-31.326t-12.8-31.599q-12.8-12.913-31.722-12.913t-31.722 12.8q-12.8 12.8-12.8 31.722 0 18.682 12.8 31.319 12.8 12.638 31.722 12.638Zm-94.121-93.566q18.686 0 31.599-12.8T430.391-480q0-18.922-12.8-31.722t-31.722-12.8q-18.682 0-31.319 12.8-12.638 12.8-12.638 31.722t12.641 31.722q12.64 12.8 31.326 12.8Zm188.252 0q18.682 0 31.319-12.8 12.638-12.8 12.638-31.722t-12.64-31.722q-12.641-12.8-31.327-12.8t-31.599 12.8q-12.913 12.8-12.913 31.722t12.8 31.722q12.8 12.8 31.722 12.8Zm-375.698-72.957L95.521-611.912q-30.913-30.914-30.913-74.653 0-43.74 30.913-74.653l103.261-103.261q30.913-30.913 74.653-30.913 43.739 0 74.653 30.913L452-761.132 198.433-508.435ZM480-529.609q18.922 0 31.722-12.8t12.8-31.722q0-18.682-12.8-31.319-12.8-12.638-31.722-12.638t-31.722 12.64q-12.8 12.641-12.8 31.327t12.8 31.599q12.8 12.913 31.722 12.913Z"/></svg>