<svg xmlns="http://www.w3.org/2000/svg" height="24" viewBox="0 -960 960 960" width="24"><path d="m184-89-95-95q-37-37-37-89t37-89l509-509q37-37 89-37t89 37l95 95q37 37 37 89t-37 89L362-89q-37 37-89 37t-89-37Zm324-89 274-274 89 90q37 37 37 89t-37 89l-95 95q-37 37-89 37t-89-37l-90-89Zm-28-150q20.4 0 34.2-13.518 13.8-13.517 13.8-33.5Q528-395 514.2-409T480-423q-20.4 0-34.2 13.8Q432-395.4 432-375q0 19.975 13.8 33.487Q459.6-328 480-328ZM375.018-432Q395-432 409-445.8t14-34.2q0-20.4-13.8-34.2Q395.4-528 375-528q-19.975 0-33.487 13.8Q328-500.4 328-480q0 20.4 13.518 34.2 13.517 13.8 33.5 13.8ZM585-432q19.975 0 33.487-13.8Q632-459.6 632-480q0-20.4-13.518-34.2-13.517-13.8-33.5-13.8Q565-528 551-514.2T537-480q0 20.4 13.8 34.2Q564.6-432 585-432Zm-407-76-89-90q-37-37-37-89t37-89l95-95q37-37 89-37t89 37l90 89-274 274Zm302-29q20.4 0 34.2-13.8Q528-564.6 528-585q0-19.975-13.8-33.487Q500.4-632 480-632q-20.4 0-34.2 13.518-13.8 13.517-13.8 33.5Q432-565 445.8-551t34.2 14Z"/></svg>