<svg xmlns="http://www.w3.org/2000/svg" height="24" viewBox="0 -960 960 960" width="24"><path d="M480-495.827q63.739 0 108.478-44.456 44.739-44.457 44.739-108.196t-44.739-108.478Q543.739-801.696 480-801.696t-108.478 44.739q-44.739 44.739-44.739 108.478t44.739 108.196Q416.261-495.827 480-495.827Zm0 106.001q-107.348 0-183.283-75.652-75.935-75.652-75.935-183.001 0-107.348 75.935-183.283Q372.652-907.697 480-907.697q107.348 0 183.283 75.935 75.935 75.935 75.935 183.283 0 107.349-75.935 183.001T480-389.826Zm0-259.218ZM820-71.521v-70.956h-71.521v-69.044H820v-70.956h68.479v70.956H960v69.044h-71.521v70.956H820ZM520-67v-240h208.479v159.391h-33.174l36.565 80.609h-70.74l-32.693-69.826h-39.958v69.826H520Zm68.479-135.478H660v-36.044h-71.521v36.044ZM0-66.999v-240h68.479v81.695H140v-81.695h68.479v240H140v-93.783H68.479v93.783H0Zm260 0v-240h174.522l33.957 33.956v171.522l-33.957 34.522H260Zm68.479-68.479H400v-103.043h-71.521v103.043Z"/></svg>