<svg xmlns="http://www.w3.org/2000/svg" height="20" viewBox="0 -960 960 960" width="20"><path d="M480.181-449q-80.341 0-136.761-54.78Q287-558.561 287-635.819q0-77.258 56.222-132.72Q399.443-824 479.76-824q80.317 0 137.279 55.28Q674-713.439 674-636.181q0 77.258-56.53 132.22Q560.939-449 480.181-449Zm342.127 340.692v-78h-78v-47.384h78v-78h47.384v78h78v47.384h-78v78h-47.384Zm-306 0v-215.384h191.384v128.923h-34.153l40 86.461h-55.924l-33-72h-60.923v72h-47.384Zm47.384-119.384h96.616v-48.616h-96.616v48.616ZM12.308-108.308v-215.384h47.384v84h96.616v-84h47.384v215.384h-47.384v-84H59.692v84H12.308Zm264 0v-215.384H420L443.692-300v168L420-108.308H276.308Zm47.384-47.384h72.616v-120.616h-72.616v120.616Z"/></svg>