<svg xmlns="http://www.w3.org/2000/svg" height="20" viewBox="0 -960 960 960" width="20"><path d="M438.154-258.463h83.692V-394.77h44.153v-171.999H394.001v171.999h44.153v136.307Zm41.724 142.462q-74.752 0-141.123-28.64t-115.923-78.191q-49.551-49.552-78.191-115.923-28.64-66.371-28.64-141.123 0-75.664 28.702-141.756 28.701-66.091 78.136-115.527 49.436-49.435 115.904-78.136 66.469-28.702 141.132-28.702 75.574 0 141.712 28.702 66.138 28.701 115.574 78.136 49.435 49.436 78.136 115.527 28.702 66.092 28.702 141.756 0 74.752-28.702 141.177-28.701 66.426-78.136 115.862-49.436 49.435-115.527 78.136-66.092 28.702-141.756 28.702ZM480.23-168Q610-168 701-259.23q91-91.229 91-221Q792-610 700.77-701q-91.229-91-221-91Q350-792 259-700.77q-91 91.229-91 221Q168-350 259.23-259q91.229 91 221 91ZM480-617.846q16.923 0 29.384-12.461 12.462-12.462 12.462-29.384 0-16.923-12.462-29.385-12.461-12.461-29.384-12.461-16.923 0-29.384 12.461-12.462 12.462-12.462 29.385 0 16.922 12.462 29.384 12.461 12.461 29.384 12.461ZM480-480Z"/></svg>