<svg xmlns="http://www.w3.org/2000/svg" height="24" viewBox="0 -960 960 960" width="24"><path d="M479.823-112Q455-112 437.5-129.625T420-172h120q0 25-17.677 42.5t-42.5 17.5ZM212-212v-28h60v-328q0-77 49.5-135T446-774v-54h68v54q26.234 5 49.617 15Q587-749 607-733q-8 3-16.5 5.452Q582-725.097 574-722q-21-13-45-19.5t-49-6.5q-75 0-127.5 52.5T300-568v328h448v28H212Zm300-282Zm-2-72-20-20q41-37 92.5-57.5T694-664q60 0 111 20.5t92 57.5l-20 20q-36-32-84-51t-100-19q-52 0-99 19t-84 51Zm85 85-19-20q24-20 53.308-31.5 29.307-11.5 63.5-11.5Q727-544 757.5-532.5 788-521 812-501l-20 20q-20-17-45-26t-53-9q-28 0-53.5 9T595-481Zm99 98-33-32q6.6-4.125 15.3-6.562Q685-424 694-424t17 2.5q8 2.5 15 6.5l-32 32Z"/></svg>