<svg xmlns="http://www.w3.org/2000/svg" height="24" viewBox="0 -960 960 960" width="24"><path d="M479.864-104.615q-26.71 0-45.595-18.981-18.884-18.981-18.884-45.635h129.23q0 26.846-19.02 45.731-19.021 18.885-45.731 18.885ZM200-209.231v-40h64.615v-316.923q0-78.384 49.616-137.884Q363.846-763.539 440-778.154V-840h80v61.846q25.488 5 48.206 15 22.717 10 42.486 25.539-12.154 4.153-24.577 8.232-12.423 4.078-24.115 9.229-18.693-10.692-39.462-16.038-20.769-5.346-42.538-5.346-72.923 0-124.154 51.23-51.231 51.231-51.231 124.154v316.923H760v40H200Zm306.923-286.154ZM510-560.923 484.692-586q41.693-38.615 94.808-60.154 53.115-21.538 114.5-21.538t114 21.538q52.615 21.539 94.308 60.154L877-560.923q-35.769-32.692-83.654-52.038Q745.462-632.308 693-632.308t-99.462 19.347q-47 19.346-83.538 52.038Zm85 85-24.539-25.308q24.693-21.615 55.545-34.038 30.852-12.423 66.846-12.423t67.879 12.423q31.884 12.423 56.577 34.038L792-475.923q-19.769-17.692-44.769-27.038-25-9.347-53.231-9.347t-53.731 9.462q-25.5 9.461-45.269 26.923Zm99 98.231-38.539-37.539q7.616-5.711 17.654-9.086 10.039-3.375 20.885-3.375 10.846 0 20.231 3.423 9.384 3.423 17.308 9.038L694-377.692Z"/></svg>