<svg xmlns="http://www.w3.org/2000/svg" height="20" viewBox="0 -960 960 960" width="20"><path d="M480.353-70.564q-32.586 0-55.578-22.976-22.993-22.977-22.993-55.242h157.001q0 32.827-23.039 55.522-23.039 22.696-55.391 22.696ZM172.782-196.782v-98.001h41.217v-220.782q0-94.348 56.609-167.413 56.608-73.066 148.391-90.95v-109.29h122.002v109.478q43.078 8.47 81.104 30.409 38.027 21.94 66.853 56.027-30.74 3.304-59.349 12.848-28.609 9.543-56.653 22.63-19.174-15.869-42.974-23.804-23.801-7.935-49.982-7.935-70 0-119 49t-49 119v220.782h475.218v98.001H172.782Zm322.436-292.392ZM551-497.087 508.087-539q41.261-41.261 95.985-65.957Q658.796-629.652 720-629.652q61.531 0 116.092 24.195 54.56 24.196 95.821 65.457L889-498.087q-33.277-33.932-76.905-53.096-43.628-19.165-92.095-19.165-48.738 0-91.86 19.434T551-497.087Zm67 68L576.087-471q28.826-28.826 65.804-45.739 36.979-16.913 78.283-16.913t78.196 16.378q36.891 16.379 65.543 45.274L822-430.087q-21.232-21.053-47.681-32.657-26.449-11.604-54.819-11.604t-54.598 12.102Q638.673-450.144 618-429.087Zm102 101L644.087-403q15.826-16.826 35.066-25.739 19.24-8.913 40.609-8.913 21.368 0 41.129 8.913T795.913-404L720-328.087Z"/></svg>