<svg xmlns="http://www.w3.org/2000/svg" height="20" viewBox="0 -960 960 960" width="20"><path d="M480.788-51Q446-51 421.5-75.15T397-134h167q0 35-24.212 59-24.213 24-59 24ZM158-182v-118h36v-206q0-100 59-178.5T409-782v-116h142v116q47 10 88.5 34t72.5 62q-82 9-153.5 45.5T433-543l243 243h126v118H158Zm562-140-82-81q18-19 38.762-29t43-10Q742-442 763.5-432t38.5 28l-82 82ZM618-423l-48-48q31-31 69.5-49t80.674-18q42.174 0 80.587 17.466Q839.174-503.069 870-472l-48 48q-22.101-21.488-48.551-33.744Q747-470 719.5-470q-27.5 0-53.729 12.537Q639.543-444.927 618-423Zm-67-68-49-48q43-43 99.246-69Q657.492-634 720-634q62.835 0 118.918 25.5Q895-583 938-540l-49 48q-34.147-35.237-77.774-54.618Q767.598-566 720-566q-47.869 0-90.773 19.651Q586.322-526.697 551-491Z"/></svg>