<svg xmlns="http://www.w3.org/2000/svg" height="20" viewBox="0 -960 960 960" width="20"><path d="M480.788-51q-34.738 0-59.263-24.381Q397-99.763 397-134h167q0 35-24.444 59-24.443 24-58.768 24ZM158-182v-118h36v-206q0-100 59-178.5t156-97.833V-898h142v116q46.984 9.6 88.492 33.8Q681-724 712-686q-39 2-75 13.5T566-644q-17-15-39.258-22.5Q504.484-674 480-674q-70 0-119 49t-49 119v206h490v118H158Zm342-305Zm51-4-49-48q43-43 99.246-69Q657.492-634 720-634q62.835 0 118.918 25.5Q895-583 938-540l-49 48q-34.147-35.237-77.774-54.618Q767.598-566 720-566q-47.869 0-90.773 19.651Q586.322-526.697 551-491Zm67 68-48-48q31-31 69.5-49t80.674-18q42.174 0 80.587 17.466Q839.174-503.069 870-472l-48 48q-22.101-21.488-48.551-33.744Q747-470 719.5-470q-27.5 0-53.729 12.537Q639.543-444.927 618-423Zm102 101-82-81q18-19 38.762-29t43-10Q742-442 763.5-432t38.5 28l-82 82Z"/></svg>