<svg xmlns="http://www.w3.org/2000/svg" height="20" viewBox="0 -960 960 960" width="20"><path d="M479.611-128Q458-128 443-143.275 428-158.55 428-180h104q0 22-15.389 37-15.39 15-37 15ZM244-228v-20h28v-288q0-81 53-140.5T458-745v-67h44v67q41.234 7 77.617 26T643-669q-2 0-4-.048-2-.049-5-.952-32-27-71.806-40.5Q522.387-724 480-724q-79 0-133.5 54.5T292-536v288h424v20H244Zm267-258Zm40-41-12-12q36-32 81.746-50.5Q666.492-608 720-608q53.835 0 99.418 18Q865-572 901-540l-12 12q-33.147-29.237-77.274-46.618Q767.598-592 720-592q-47.869 0-91.273 17.651Q585.322-556.697 551-527Zm67 68-10-11q23-19 51.308-30.5 28.307-11.5 60.674-11.5 32.366 0 61.279 10.966Q810.174-490.069 833-471l-11 11q-21.101-17.488-47.551-26.744Q748-496 719.5-496q-28.5 0-54.729 9.537Q638.543-476.927 618-459Zm102 100-44-43q8.6-7.125 20.062-10.562 11.462-3.438 23.7-3.438t23.738 3.5Q755-409 764-403l-44 44Z"/></svg>