<svg xmlns="http://www.w3.org/2000/svg" height="24" viewBox="0 -960 960 960" width="24"><path d="M373.05-468.461q-8.512 0-14.242-5.75-5.731-5.75-5.731-14.25v-275.462L242.692-653.538q-5.23 5.615-13.077 5.615-7.846 0-14.461-6.217-6.616-6.783-6.616-14.437 0-7.654 6.616-14.269l134.538-134.539q5.231-5.231 10.795-7.346t11.923-2.115q6.359 0 12.282 2.15t11 7.311l135.539 135.539q5.846 5.846 6.115 13.384.269 7.539-6.346 14.322-6.615 6.217-14.154 6.332-7.538.116-14.154-6.5L393.077-763.923v276.231q0 8.173-5.758 13.702t-14.269 5.529Zm214.54 334.538q-6.359 0-12.282-2.15-5.923-2.151-11-7.311L428.769-278.923q-5.846-5.846-6.115-13.385-.269-7.538 6.346-14.321 6.615-6.217 14.154-6.333 7.538-.115 14.154 6.5l109.615 109.616v-276.231q0-8.173 5.758-13.702t14.269-5.529q8.512 0 14.243 5.75 5.73 5.75 5.73 14.25v275.462l110.385-110.385q5.23-5.615 13.077-5.615 7.846 0 14.461 6.217 6.616 6.783 6.616 14.437 0 7.654-6.616 14.269L610.308-143.384q-5.231 5.23-10.795 7.346-5.564 2.115-11.923 2.115Z"/></svg>