<svg xmlns="http://www.w3.org/2000/svg" height="20" viewBox="0 -960 960 960" width="20"><path d="M377.175-469Q373-469 370-471.875T367-479v-295L241-648q-3.5 4-6.917 4-3.416 0-7.083-4.783-4-3.884-4-7.05 0-3.167 4-7.167l131-131q4.4-4 8.833-6 4.434-2 9.5-2 5.067 0 9.967 2.045 4.9 2.046 8.7 5.955l131 131q3 3 4 6t-3 7.696q-4 4.304-7.5 3.804-3.5-.5-7.5-4.5L387-774v296q0 3.825-2.825 6.412-2.824 2.588-7 2.588Zm206.492 310q-5.067 0-9.967-2.045-4.9-2.046-8.7-5.955L434-298q-3-2.909-3.5-6.455-.5-3.545 3.5-8.241 4-4.304 7.5-3.804 3.5.5 7.5 4.5l124 125v-296q0-3.825 2.825-6.412 2.824-2.588 7-2.588 4.175 0 7.175 2.875t3 7.125v295l126-126q3.5-4 6.917-4 3.416 0 7.083 4.783 4 3.884 4 7.05 0 3.167-4 7.167L602-167q-4.4 4-8.833 6-4.434 2-9.5 2Z"/></svg>