<svg xmlns="http://www.w3.org/2000/svg" height="20" viewBox="0 -960 960 960" width="20"><path d="M683.37-267.694q-12.755 0-22.371-9.625-9.615-9.625-9.615-22.375v-359.612q0-12.75 9.629-22.375t22.384-9.625q12.755 0 22.371 9.625 9.615 9.625 9.615 22.375v359.612q0 12.75-9.629 22.375t-22.384 9.625Zm-379.522-39.154q-19.077 12.846-39.154 2t-20.077-33.538v-282.228q0-22.839 20.077-33.804 20.077-10.965 39.154 2.266l213.228 140.229q17.077 11.889 17.077 31.944 0 20.056-17.077 31.902L303.848-306.848Z"/></svg>