<svg xmlns="http://www.w3.org/2000/svg" height="20" viewBox="0 -960 960 960" width="20"><path d="m480-263.523 79.131-79.131q15.043-15.042 34.347-15.042 19.305 0 34.262 14.956 14.956 14.957 14.956 34.544 0 19.587-14.852 34.476L515.032-160.542q-7.143 7.162-16.325 10.852-9.182 3.691-18.707 3.691t-18.707-3.691q-9.182-3.69-16.326-10.852L332.156-273.72q-14.852-14.889-14.352-34.476t15.456-34.544q14.957-14.391 34.544-14.391 19.587 0 34.516 15.042L480-263.523Zm0-434.65-79.131 79.131q-15.043 15.043-34.347 15.043-19.305 0-34.262-14.957-14.956-14.957-14.956-34.544 0-19.587 14.852-34.475l112.811-113.179q7.144-7.161 16.326-10.852 9.182-3.69 18.707-3.69t18.707 3.69q9.182 3.691 16.325 10.852l112.812 113.179q14.852 14.888 14.852 33.975 0 19.087-14.956 34.044-14.957 14.391-34.544 14.391-19.587 0-34.63-14.928L480-698.173Z"/></svg>