<svg xmlns="http://www.w3.org/2000/svg" height="20" viewBox="0 -960 960 960" width="20"><path d="m480-277 73.914-73.914Q572-369 595-369t41 18q18 18 18 41.5t-17.896 41.432L522.423-154.021q-8.448 8.466-19.803 13.244Q491.264-136 480-136q-11.264 0-22.62-4.777-11.355-4.778-19.803-13.244L323.896-268.068Q306-286 306.5-309.5 307-333 325-351q18-17 41.5-17t41.471 18.086L480-277Zm0-409-73.914 73.914Q388-594 365-594t-41-18q-18-18-18-41.5t17.896-41.432l113.681-114.047q8.448-8.466 19.803-13.244Q468.736-827 480-827q11.264 0 22.62 4.777 11.355 4.778 19.803 13.244l113.681 114.047Q654-677 654-654q0 23-18 41-18 17-41.5 17t-41.586-17.971L480-686Z"/></svg>