<svg xmlns="http://www.w3.org/2000/svg" height="24" viewBox="0 -960 960 960" width="24"><path d="m480-253.523 86.217-86.217q15.957-15.956 37.761-15.956 21.805 0 37.762 15.956 15.956 15.957 15.956 38.044 0 22.087-15.956 38.044L517.609-139.521q-7.696 7.695-17.522 11.609-9.826 3.913-20.087 3.913t-20.087-3.913q-9.826-3.914-17.522-11.609L318.26-263.652q-15.956-15.957-15.956-38.044 0-22.087 15.956-38.044 15.957-15.391 38.044-15.391 22.087 0 38.044 15.957L480-253.523Zm0-450.65-86.217 86.217q-15.957 15.957-37.761 15.957-21.805 0-37.762-15.957-15.956-15.957-15.956-38.044 0-22.087 15.956-38.044l124.131-124.13q7.696-7.696 17.522-11.609 9.826-3.913 20.087-3.913t20.087 3.913q9.826 3.913 17.522 11.609l124.131 124.13q15.956 15.957 15.956 38.044 0 22.087-15.956 38.044-15.957 15.391-38.044 15.391-22.087 0-38.044-15.956L480-704.173Z"/></svg>