<svg xmlns="http://www.w3.org/2000/svg" height="20" viewBox="0 -960 960 960" width="20"><path d="M495-283.617h24.999v-51.998H495q-49.167 0-73.084-34.709-23.917-34.708-23.917-84.292v-24.999h-51.998v25.999q0 70.55 39.075 120.274Q424.15-283.617 495-283.617Zm-15.247 120q-102.06 0-173.29-71.213-71.231-71.213-71.231-173.156 0-67.091 22.224-136.091 22.223-69 57.576-125.384t78.923-91.653q43.57-35.269 85.396-35.269 42.418 0 86.039 35.05 43.62 35.05 78.901 91.328 35.28 56.278 57.494 125.407 22.214 69.129 22.214 136.392 0 102.205-71.093 173.397t-173.153 71.192Zm.088-51.998q80.159 0 136.159-56.052 56-56.052 56-135.855 0-53.94-18.808-113.747-18.807-59.808-47.393-109.214-28.585-49.406-62.764-81.654-34.178-32.248-63.88-32.248-29.309 0-63.444 32.248-34.134 32.248-62.5 81.846-28.365 49.598-47.173 109.406-18.807 59.808-18.807 113.528 0 79.203 56.226 135.472 56.226 56.27 136.384 56.27ZM479.615-480Z"/></svg>