<svg xmlns="http://www.w3.org/2000/svg" height="20" viewBox="0 -960 960 960" width="20"><path d="M488.304-264.717h35.478v-78.696h-32.847q-40.218 0-57.87-28.444-17.652-28.444-17.652-69.078v-32.847h-78.696v36.478q0 71.623 39.832 122.105t111.755 50.482Zm-8.082 128.13q-113.57 0-192.603-78.89-79.032-78.891-79.032-192.808 0-72.614 24.672-146.453 24.672-73.84 63.674-133.899 39.002-60.059 87.545-97.418 48.543-37.358 95.145-37.358 47.573 0 96.007 37.358 48.435 37.359 87.437 97.33 39.002 59.971 63.674 133.703 24.672 73.731 24.672 146.517 0 114.179-78.811 193.049-78.811 78.869-192.38 78.869Zm.004-83q78.817 0 133.502-54.685 54.685-54.684 54.685-133.598 0-51.565-18.715-110.466-18.714-58.9-46.867-108.142-28.154-49.242-61.412-81.588-33.258-32.347-62.118-32.347-27.886 0-61.272 32.227-33.385 32.227-61.247 81.469-27.861 49.241-46.528 108.142-18.667 58.901-18.667 110.802 0 78.143 54.911 133.164 54.911 55.022 133.728 55.022ZM480-480Z"/></svg>