<svg xmlns="http://www.w3.org/2000/svg" height="20" viewBox="0 -960 960 960" width="20"><path d="M479.173-265.696h36.131v-87.827h-29.913q-33.695 0-46.782-23.878-13.086-23.878-13.086-57.99v-29.913h-87.827v37.131q0 67.428 36.874 114.953 36.875 47.524 104.603 47.524Zm1.049 139.219q-118.135 0-199.94-82.804-81.805-82.804-81.805-203.244 0-73.691 25.651-148.622 25.65-74.931 65.956-135.806 40.307-60.874 90.671-98.722 50.364-37.848 98.714-37.848 49.357 0 99.749 37.848 50.391 37.848 90.698 98.634 40.306 60.787 65.956 135.61 25.651 74.823 25.651 148.687 0 120.701-81.583 203.484-81.583 82.783-199.718 82.783Zm.004-98.002q77.513 0 130.404-53.869 52.891-53.869 52.891-133.435 0-49.608-18.325-107.01-18.325-57.402-45.889-105.371-27.565-47.969-59.928-79.663-32.363-31.694-60.405-31.694-26.993 0-59.357 31.411-32.364 31.412-59.539 79.381-27.174 47.969-45.387 105.37-18.212 57.402-18.212 107.347 0 78.794 53.117 133.164 53.117 54.369 130.63 54.369ZM480-480Z"/></svg>