<svg xmlns="http://www.w3.org/2000/svg" height="24" viewBox="0 -960 960 960" width="24"><path d="M492-243h42v-108h-31q-30 0-51-21t-21-51v-31H323v42q0 70.135 49.432 119.568Q421.865-243 492-243ZM480-89q-131 0-221-93.5T169-413q0-80.305 28.5-161.652Q226-656 270.5-722q44.5-66 100.084-107.5T479.528-871Q534-871 589.5-829.5 645-788 689.5-722t73 147.348Q791-493.305 791-413q0 137-90 230.5T480-89Zm0-126q79 0 132-56t53-141q0-51-18.306-109.403-18.306-58.404-46-108Q573-679 540.745-712 508.49-745 479-745q-28.265 0-60.632 32.5Q386-680 358.607-630.403q-27.393 49.596-45.5 108Q295-464 295-413q0 85 53 141.5T480-215Zm0-265Z"/></svg>