<svg xmlns="http://www.w3.org/2000/svg" height="24" viewBox="0 -960 960 960" width="24"><path d="M520-259.617h29.999v-59.998H520q-54.167 0-92.084-37.917t-37.917-92.084v-29.999h-59.998v29.999q0 78.85 55.575 134.424Q441.15-259.617 520-259.617Zm-40.469 120q-108.838 0-184.568-76.692-75.731-76.692-75.731-186.5 0-72.268 23.769-146.229 23.769-73.961 61.577-134.384 37.807-60.423 84.169-98.692 46.361-38.269 90.868-38.269 45.154 0 91.275 38.05 46.12 38.05 83.855 98.455 37.735 60.405 61.494 134.603 23.76 74.198 23.76 146.466 0 109.808-75.815 186.5t-184.653 76.692Zm.084-59.998q83.385 0 141.885-59.27Q680-318.154 680-402.522q0-57.94-19.308-120.747-19.307-62.808-48.807-115.539-29.5-52.731-64.764-87.154-35.264-34.423-67.506-34.423-31.769 0-67.269 34.423-35.5 34.423-65 87.346t-48.808 115.731q-19.307 62.808-19.307 120.192 0 84.539 58.5 143.808 58.5 59.27 141.884 59.27Zm0-280.385Z"/></svg>