<svg xmlns="http://www.w3.org/2000/svg" height="20" viewBox="0 -960 960 960" width="20"><path d="M278.965-130.999q-39.643 0-68.957-28.257-29.313-28.256-29.313-67.918V-623.87l-43.913-107.129H86.261q-20.387 0-34.694-14.246-14.307-14.247-14.307-34.544 0-20.298 14.307-34.755 14.307-14.457 34.694-14.457h84q14.35 0 26.308 7.716t18.562 22.198l47.739 115.782h574.304q20.783 0 31.239 17.718 10.457 17.717 1.631 36.5L769.957-413.913q49.696 8.826 81.196 48.023 31.5 39.198 31.5 91.655 0 59.614-41.794 101.425T739.57-130.999q-60.486 0-102.006-42.005-41.521-42.004-41.521-101.425 0-15.484 3.662-31.562 3.661-16.078 12.251-30.269l-119.911-14.174-108 161.651q-20.84 31.661-46.225 44.722-25.385 13.062-58.855 13.062Zm389.556-297.828 72.739-156.477H302.045l36.521 89.652q6.304 14.608 19.148 23.885 12.845 9.277 27.982 11.071l282.825 31.869ZM282.125-214.87q2.064 0 9.701-4.869l96.478-140.956q-31.956-3.435-64.26-18.848-32.304-15.412-51-48.456v201.781q0 4.582 2.794 7.965t6.287 3.383Zm457.197-7.913q21.069 0 36.026-14.854 14.956-14.855 14.956-36.076 0-21.069-14.9-36.026-14.899-14.956-36.413-14.956-20.686 0-35.642 14.9-14.957 14.9-14.957 36.413 0 20.686 14.855 35.643 14.854 14.956 36.075 14.956Zm-70.801-206.044-282.825-31.869 282.825 31.869Z"/></svg>