<svg xmlns="http://www.w3.org/2000/svg" height="20" viewBox="0 -960 960 960" width="20"><path d="M278.965-130.999q-39.643 0-68.957-28.257-29.313-28.256-29.313-67.918V-623.87l-43.913-107.129H86.261q-20.387 0-34.694-14.246-14.307-14.247-14.307-34.544 0-20.298 14.307-34.755 14.307-14.457 34.694-14.457h84q14.457 0 26.316 7.761 11.858 7.761 18.554 22.153l47.739 115.782h574.304q20.783 0 31.239 17.718 10.457 17.717 1.631 36.5L769.957-413.913q49.696 8.826 81.196 48.023 31.5 39.198 31.5 91.655 0 59.453-41.891 101.344-41.892 41.892-101.192 41.892-60.244 0-101.885-42.086-41.642-42.085-41.642-101.344 0-15.484 3.587-31.505 3.587-16.022 12.326-30.326l-119.911-14.174-108 161.651q-20.84 31.661-46.225 44.722-25.385 13.062-58.855 13.062Zm3.122-83.871q2.102 0 9.739-4.869l96.478-140.956q-31.956-3.435-64.26-18.848-32.304-15.412-51-48.456v201.781q0 4.479 2.869 7.914 2.87 3.434 6.174 3.434Zm457.261-7.913q21.043 0 36-14.956 14.956-14.957 14.956-36t-14.956-36q-14.957-14.956-36.49-14.956-20.553 0-35.509 14.956-14.957 14.957-14.957 36.49 0 20.553 14.957 35.51 14.956 14.956 35.999 14.956Z"/></svg>