<svg xmlns="http://www.w3.org/2000/svg" height="20" viewBox="0 -960 960 960" width="20"><path d="M282.4-253q-17.687 0-28.043-11.43Q244-275.86 244-293v-337.349L203-722h-69q-4.25 0-7.125-2.825-2.875-2.824-2.875-7 0-4.175 2.875-7.175t7.125-3h66q7.581 0 13.899 3.54Q220.216-734.92 224-727l46 107h502q8.128 0 11.564 7t.436 14l-85 187q32 0 52.5 23.54 20.5 23.539 20.5 55.529 0 33.388-23.364 56.66Q725.273-253 692.172-253q-33.672 0-56.922-23.465T612-333.125q0-18.134 7-35.505Q626-386 641-398l-224-23-95 142q-6.796 10.095-17.07 18.048Q294.656-253 282.4-253ZM677-413l88-187H278l46.724 110q8.276 18 25.164 30.103Q366.776-447.793 393-445l284 32ZM280-273q10.667 0 26-18l90-133q-30-4-61-22t-47-65l-24-56v273.39q0 8.792 4 14.701Q272-273 280-273Zm412 1q25 0 42.5-17.5T752-332q0-25-17.5-42.5T691.51-392q-24.51 0-42.01 17.5Q632-357 632-331.51q0 24.51 17.5 42.01Q667-272 692-272Zm-15-141-284-32 284 32Z"/></svg>