<svg xmlns="http://www.w3.org/2000/svg" height="24" viewBox="0 -960 960 960" width="24"><path d="M296-229q-20 0-32-13.5T252-276v-313.349L187-738h-57q-5.95 0-9.975-4.035-4.025-4.035-4.025-10t4.025-9.965q4.025-4 9.975-4h56q9.081 0 16.649 5.04Q210.216-755.92 214-748l52 120h504q17.128 0 26.064 14.5T797-584l-91 179q35 2 58.5 27.603T788-317q0 36.457-25.364 62.229Q737.273-229 700.95-229q-36.95 0-62.45-25.771Q613-280.543 613-317q0-19.259 7-35.63Q627-369 640-381l-204-18-94 140q-8 12-20.172 21T296-229Zm0-29q10 0 23-17l86-127q-38-5-63-21t-38-46l-24-56v249q0 8.182 4 13.091Q288-258 296-258Zm404 2q26 0 43-17.5t17-42.5q0-26-17-43t-43-17q-25 0-42.5 17T640-316q0 25 17.5 42.5T700-256Z"/></svg>