<svg xmlns="http://www.w3.org/2000/svg" height="24" viewBox="0 -960 960 960" width="24"><path d="M181.347-633.782v-265.436h597.306v265.436H181.347Zm94.696-94.697h407.914v-76.043H276.043v76.043ZM60.782-60.782v-123.391h838.436v123.391H60.782Zm1.695-170.739 169.044-354.913h497.523l169.044 354.913H62.478Zm256.958-77.174H400v-40h-80.565v40Zm0-80H400v-40.565h-80.565v40.565Zm0-80.565H400v-40h-80.565v40ZM440-308.695h80.565v-40H440v40Zm0-80h80.565v-40.565H440v40.565Zm0-80.565h80.565v-40H440v40Zm120.565 160.565h80.565v-40h-80.565v40Zm0-80h80.565v-40.565h-80.565v40.565Zm0-80.565h80.565v-40h-80.565v40Z"/></svg>