<svg xmlns="http://www.w3.org/2000/svg" height="20" viewBox="0 -960 960 960" width="20"><path d="M631.076-454.463q-91.076-80-159.114-153.824-68.038-73.824-68.038-136.542 0-50.632 35.345-85.978 35.346-35.346 85.577-35.346 30.076 0 57.884 13.769 27.808 13.77 48.346 39.616 20.539-25.846 48.347-39.616 27.807-13.769 57.884-13.769 50.23 0 85.576 35.346t35.346 85.978q0 62.718-68.038 136.542T631.076-454.463Zm0-87.075q61.616-56.154 112.385-111.459 50.77-55.305 50.77-92.234 0-23.692-16.616-40.308-16.615-16.615-40.308-16.615-15.154 0-29.616 7.423-14.461 7.423-28 24.655l-47.615 57.306-47.614-57.306q-14.539-17.232-29.501-24.655-14.961-7.423-30.115-7.423-23.693 0-40.308 16.615-16.616 16.616-16.616 40.308 0 36.929 50.769 92.234 50.77 55.305 112.385 111.459Zm0-130.308Zm-78 591.075-285.308-81.385v55.923H60.771v-392.073H351.23L657.383-385.46v74.641h195.692v136.203L553.076-80.771Zm-428.307-89.46h79v-264.076h-79v264.076ZM551.076-147l235.539-74.385v-25.769H505.307l-118.615-40.231 20.615-62.152 112 38.384h75.077v-30.385l-254.308-92.769h-72.308v207.153L551.076-147Z"/></svg>