<svg xmlns="http://www.w3.org/2000/svg" height="24" viewBox="0 -960 960 960" width="24"><path d="M663-448q-104-93-183.5-176.5T400-786.419Q400-851 445-896t110-45q30 0 58 11t50 29q22-18 50-29t58-11q65 0 110 45t45 109.581Q926-708 846.5-624.5 767-541 663-448Zm0-149q57-54 104.5-106.031Q815-755.062 815-786q0-19-12.269-32T771-831q-11 0-22.5 5.5T729-812l-66 80-66-80q-8-8-19.5-13.5t-22.851-5.5Q536-831 523.5-818T511-786q0 29 47.5 82T663-597Zm0-117ZM545-14 280-89v53H-6v-501h355l346 129v102h200v183L545-14ZM105-146h64v-280h-64v280Zm438 16 238-74v-22H494l-121-42 24-76 115 38h73v-26l-256-94h-49v223l263 73Z"/></svg>