<svg xmlns="http://www.w3.org/2000/svg" height="24" viewBox="0 -960 960 960" width="24"><path d="M626.154-476.923q-90.154-75-151.231-144.038Q413.846-690 413.846-746.462q0-44.461 30.692-75.153 30.693-30.693 75.154-30.693 28.154 0 55.77 15.039 27.615 15.038 50.692 45.73 23.077-30.692 50.692-45.73 27.616-15.039 55.769-15.039 44.462 0 75.154 30.693 30.693 30.692 30.693 75.153 0 56.462-61.077 125.501-61.077 69.038-151.231 144.038ZM81.538-138.461v-326.155h120v326.155h-120Zm464.616 32.307-304.615-89v-269.462h95.153L630.77-356.154v63.846H510.769l-103.846-37-12.461 30.077 114.769 37.692h316.923v63.077l-280 92.308Z"/></svg>