<svg xmlns="http://www.w3.org/2000/svg" height="20" viewBox="0 -960 960 960" width="20"><path d="M643.5-437.913q-95.391-86.913-170.946-166.404Q397-683.807 397-754.686q0-58.553 40.674-99.227 40.674-40.674 98.826-40.674 31.522 0 59.522 12.402t47.478 33.206q19.478-20.804 47.478-33.206 28-12.402 59.522-12.402 58.152 0 98.826 40.674Q890-813.239 890-754.686q0 70.879-75.554 150.369-75.555 79.491-170.946 166.404ZM29-66.478v-463.587h166.587v463.587H29Zm527.413 21.065-276.826-75.761v-408.891h80.022L674-413.587v91.935H525.609l-121.131-40.152-15.913 45.174 113.696 44.152h381.326v128.5L556.413-45.413Z"/></svg>