<svg xmlns="http://www.w3.org/2000/svg" height="24" viewBox="0 -960 960 960" width="24"><path d="M504-320q66.4 0 113.2-46.8T664-480q0-66.4-46.8-113.2T504-640h-13.12q-6.12 0-11.88 2-11.739 2.344-14.87 13.672Q461-613 470-606q29.718 22.329 45.359 55.424Q531-517.481 531-480q0 37-15.5 70.5T470-354.03q-9 7.03-6.521 18.724Q465.958-323.613 478-322q6 2 12.5 2H504Zm88.37 108L522-142q-17.315 17-42.157 17Q455-125 438-142l-70.37-70H272q-24.75 0-42.375-17.625T212-272v-95.63L142-438q-17-17.315-17-42.157Q125-505 142-522l70-70.37V-688q0-24.75 17.625-42.375T272-748h95.63L438-818q17.315-17 42.157-17Q505-835 522-818l70.37 70H688q24.75 0 42.375 17.625T748-688v95.63L818-522q17 17.315 17 42.157Q835-455 818-438l-70 70.37V-272q0 24.75-17.625 42.375T688-212h-95.63Z"/></svg>