<svg xmlns="http://www.w3.org/2000/svg" height="20" viewBox="0 -960 960 960" width="20"><path d="M484.616-303.386q73.295 0 124.954-51.726 51.66-51.725 51.66-125.114 0-73.389-51.66-124.889-51.659-51.499-124.954-51.499-6.616 0-12.2.5-5.585.5-11.723 1.5-15.746 1.747-19.911 15.027-4.166 13.28 6.065 20.896 32.814 23.818 50.137 60.489 17.324 36.671 17.324 78.202 0 40.769-16.654 78.807-16.654 38.038-50.5 59.6-10.153 6.9-6.046 20.82 4.107 13.921 19.2 15.772 6.231 1 11.962 1.308 5.73.307 12.346.307Zm107.064 91.385-66.065 66.307q-18.746 18.692-45.642 18.692-26.896 0-45.588-18.692l-66.065-66.307h-91.753q-26.633 0-45.6-18.966-18.966-18.967-18.966-45.6v-91.753l-66.307-66.065q-18.692-18.746-18.692-45.642 0-26.896 18.692-45.588l66.307-66.065v-91.753q0-26.634 18.966-45.6 18.967-18.966 45.6-18.966h91.753l66.065-66.307q18.746-18.692 45.642-18.692 26.896 0 45.588 18.692l66.065 66.307h91.753q26.634 0 45.6 18.966t18.966 45.6v91.753l66.307 66.065q18.692 18.746 18.692 45.642 0 26.896-18.692 45.588l-66.307 66.065v91.753q0 26.633-18.966 45.6-18.966 18.966-45.6 18.966H591.68ZM480-481Zm0 307 90-90h126v-126l90-90-90-90v-126H570l-90-90-90 90H264v126l-90 90 90 90v126h126l90 90Z"/></svg>