<svg xmlns="http://www.w3.org/2000/svg" height="24" viewBox="0 -960 960 960" width="24"><path d="M495.391-293.001q77.913 0 132.457-54.543Q682.391-402.087 682.391-480q0-77.913-54.543-132.456-54.544-54.543-132.457-54.543h-10.847q-5.674 0-10.848.869-13.304 1.87-17.304 14.957-4 13.086 6.435 21.086 34.043 27.435 51.782 66.674 17.739 39.239 17.739 83.413 0 44.609-16.739 84.848t-52.782 65.239q-10.87 8-7.37 20.804 3.5 12.804 18.805 14.239 5.173.869 10.565 1.369 5.391.5 10.564.5Zm121.435 139.219-62.738 61.738Q523.174-61.696 480-61.696q-43.174 0-74.088-30.348l-62.738-61.738h-83.39q-44.305 0-75.154-30.848-30.848-30.849-30.848-75.154v-83.39l-61.738-62.738Q61.696-436.826 61.696-480q0-43.174 30.348-74.088l61.738-62.738v-83.956q0-44.305 30.848-75.153 30.849-30.848 75.154-30.848h83.39l62.738-61.738Q436.826-898.87 480-898.87q43.174 0 74.088 30.349l62.738 61.738h83.956q44.305 0 75.153 30.848 30.848 30.848 30.848 75.153v83.956l61.738 62.738Q898.87-523.174 898.87-480q0 43.174-30.349 74.088l-61.738 62.738v83.39q0 44.305-30.848 75.154-30.848 30.848-75.153 30.848h-83.956Z"/></svg>