<svg xmlns="http://www.w3.org/2000/svg" height="20" viewBox="0 -960 960 960" width="20"><path d="M492-328q63.08 0 107.54-44.526Q644-417.052 644-480.226T599.54-587.7Q555.08-632 492-632q-6 0-10.12.5-4.12.5-8.88 1.5-13.739 1.344-17.37 12.672Q452-606 461-599q27.718 20.329 42.359 51.828Q518-515.673 518-480q0 34-14.5 66.5t-42.192 52.197Q453-355 456.479-342.806 459.958-330.613 472-329q5 1 9.5 1H492Zm86.37 84L517-182q-15.247 15-37.124 15Q458-167 443-182l-61.37-62h-85.372q-21.556 0-36.907-15.351Q244-274.702 244-296.258v-85.372L182-443q-15-15.247-15-37.124Q167-502 182-517l62-61.37v-85.372q0-21.556 15.351-36.907Q274.702-716 296.258-716h85.372L443-778q15.247-15 37.124-15Q502-793 517-778l61.37 62h85.372q21.556 0 36.907 15.351Q716-685.298 716-663.742v85.372L778-517q15 15.247 15 37.124Q793-458 778-443l-62 61.37v85.372q0 21.556-15.351 36.907Q685.298-244 663.742-244H578.37Z"/></svg>