<svg xmlns="http://www.w3.org/2000/svg" height="24" viewBox="0 -960 960 960" width="24"><path d="M498-303q74 0 125.5-51.5T675-480q0-74-51.5-125.5T498-657h-13q-12 1-16 13t6 20q31 27 47 64.5t16 79.5q0 42-15 80.5T475-336q-10 8-6.5 19.5T486-304q3 0 6 .5t6 .5Zm121 154-51 50q-37 36-88 36t-88-36l-51-50h-66q-53 0-89.5-36.5T149-275v-66l-50-51q-36-37-36-88t36-88l50-51v-67q0-53 36.5-89.5T275-812h66l51-50q37-36 88-36t88 36l51 50h67q53 0 89.5 36.5T812-686v67l50 51q36 37 36 88t-36 88l-50 51v66q0 53-36.5 89.5T686-149h-67ZM481-481Zm-1 292 86-86h120v-119l86-86-86-86v-120H566l-86-86-86 86H275v120l-86 86 86 86v119h119l86 86Z"/></svg>