<svg xmlns="http://www.w3.org/2000/svg" height="20" viewBox="0 -960 960 960" width="20"><path d="M480-270.154q72.923 0 137.307-26.154Q681.692-322.462 732.538-367L694-413.538q-8.231 7.231-18.192 15.116-9.962 7.884-21.116 14.884l-37.616-66.231v-76.692h51.847v-43.385H428.154l-48-96h-96.153l26.769 19.077-72 82 28.307 28.307 76.616-27.077v114l-38.385 66.001q-12.308-8.154-21.693-15.461-9.384-7.308-17.615-14.539L227.462-367q49.846 44.538 114.731 70.692Q407.077-270.154 480-270.154Zm0-59.692q-30 0-60.616-5.884-30.615-5.885-60.846-19.193l41.385-73.77q20.308 6.769 40 10.846T480-413.77q20 0 39.885-4.077 19.884-4.077 40.192-10.846l41.385 73.77q-30.231 13.693-60.846 19.385Q510-329.846 480-329.846ZM116.001-116.001v-727.998h727.998v727.998H116.001Z"/></svg>