<svg xmlns="http://www.w3.org/2000/svg" height="24" viewBox="0 -960 960 960" width="24"><path d="M480-242.152q79.146 0 150.377-29.522 71.232-29.522 126.753-85.043l-41.282-42q-11 11-21.39 19.5t-22.264 16.5l-33.644-57.727v-99.17h39.581v-39.669H456.478l-69.761-118.804H242.152l39.761 30-59.283 69.283 37.546 39.581 61.259-39.581v158.326l-33.636 57.761q-11.872-8-22.259-16.5-10.388-8.5-21.388-19.5l-41.282 42q55.521 55.521 126.753 85.043Q400.854-242.152 480-242.152Zm.046-59.283q-37.568 0-72.709-7.619-35.141-7.62-67.902-24.142l33.761-57.521q26 9.76 53.021 14.26 27.022 4.5 53.726 4.5 27.693 0 54.397-4.5 26.703-4.5 52.464-14.26l33.761 57.521q-32.761 14.761-67.856 23.261-35.096 8.5-72.663 8.5ZM71.869-71.869v-816.262h816.262v816.262H71.869Zm91.001-91.001h634.26v-634.26H162.87v634.26Zm0 0v-634.26 634.26Z"/></svg>