<svg xmlns="http://www.w3.org/2000/svg" height="20" viewBox="0 -960 960 960" width="20"><path d="M336-177q-52.29 0-89.145-36.855T210-303v-377q-22 0-37-15.312-15-15.311-15-36.812v-38.125q0-21.501 15.275-36.626Q188.55-822 210-822h252q21.45 0 36.725 15.312Q514-791.377 514-769.876v38.125q0 21.501-15.275 36.626Q483.45-680 462-680l-1 241q1 2-1.5-1t-11.5-9h-76q-4.25 0-7.125-2.825-2.875-2.824-2.875-7 0-4.175 2.875-7.175t7.125-3h70v-100h-70q-4.25 0-7.125-2.825-2.875-2.824-2.875-7 0-4.175 2.875-7.175t7.125-3h70v-91H230v377q0 44.167 30.8 75.083Q291.6-197 335.6-197q22.65 0 41.025-8.5T409-227q2.286 5.214 4.143 10.607Q415-211 416-206q-17 14-36.969 21.5T336-177Zm59-152h-23q-4.25 0-7.125-2.825-2.875-2.824-2.875-7 0-4.175 2.875-7.175t7.125-3h35q-3 5-6 9.5t-6 10.5Zm228.775 153Q670-176 703-208.775q33-32.774 33-79Q736-334 703.225-367q-32.774-33-79-33Q578-400 545-367.225q-33 32.774-33 79Q512-242 544.775-209q32.774 33 79 33Zm-.008 20q-54.903 0-93.335-38.5Q492-233 492-288t38.5-93.5Q569-420 624-420t93.5 38.432q38.5 38.432 38.5 93.335 0 23.53-8 46.382Q740-219 725-201l96 95q4 3.911 4 6.956Q825-96 821.071-92q-3.928 4-7.5 4Q810-88 806-92l-95-95q-18 15-40.851 23-22.852 8-46.382 8Z"/></svg>