<svg xmlns="http://www.w3.org/2000/svg" height="20" viewBox="0 -960 960 960" width="20"><path d="M395.085-123.694q-111.853 0-190.083-78.007-78.231-78.007-78.231-189.992 0-100.23 67.808-178.345 67.807-78.115 176.192-88.807v6.69q8-54.459 49.229-91.074 41.229-36.615 96.629-36.615 33.411 0 63.402 14.646 29.991 14.645 51.43 40.431l110.076 137.383 25.461-20.461 103.076 129.46-93.768 73.614-102.076-129.46 26.077-20.461-109.461-137.384q-14.158-17.569-32.968-26.669-18.811-9.1-41.105-9.1-34.465 0-60.734 22.077-26.27 22.077-33.27 54.462v-6.539q106.385 11.692 173.192 89.486 66.808 77.795 66.808 176.666 0 111.985-77.915 189.992-77.915 78.007-189.769 78.007Zm-.315-51.999q89.64 0 152.82-63.18 63.18-63.18 63.18-152.82 0-89.64-63.18-152.82-63.18-63.18-152.82-63.18-89.64 0-152.82 63.18-63.18 63.18-63.18 152.82 0 89.64 63.18 152.82 63.18 63.18 152.82 63.18Z"/></svg>