<svg xmlns="http://www.w3.org/2000/svg" height="20" viewBox="0 -960 960 960" width="20"><path d="m709.74-353.391-69.653-69.088L820.65-613.913q-74.217-55.347-160.455-84.521Q573.956-727.608 480-727.608q-33.275 0-65.703 3.935-32.427 3.935-63.47 11.369l-80.479-80.479q48.565-16.696 101.501-24.761 52.937-8.065 108.151-8.065 141.13 0 263.848 54.391Q866.565-716.826 960-624L709.74-353.391ZM480-248.826l56.391-60.913-340.912-340.912q-14.783 8.174-28.565 17.434-13.782 9.261-27.564 19.304L480-248.826ZM828.827-17.303 606.044-239.52 480-100.476 0-624q27.739-27.87 58.728-52.528 30.99-24.658 65.098-45.776L17.868-828.262l56.653-56.652L885.479-73.955l-56.652 56.652Zm-332.87-550.306Zm-129.522 86.914Z"/></svg>