<svg xmlns="http://www.w3.org/2000/svg" height="20" viewBox="0 -960 960 960" width="20"><path d="M670.539-391.461 648-414l206-205q-81-61-176-93t-198-32q-36.667 0-73.333 4.5Q370-735 335-727l-26.693-26.693q40.308-11.923 83.857-17.115Q435.712-776 480-776q121.539 0 229.154 40.231Q816.77-695.539 903.077-624L670.539-391.461ZM480-246l93.692-94.461-348.231-348.231q-31.769 13.307-61.384 31.038Q134.461-639.923 106-619l374 373Zm325.308 137.154L596.231-317.154 480-200.923 56.923-624q32.307-26.692 68.148-49.608 35.84-22.916 75.082-40.392l-91.307-91.308 22.538-22.538 696.462 696.462-22.538 22.538ZM492-571Zm-91.923 55.923Z"/></svg>