<svg xmlns="http://www.w3.org/2000/svg" height="24" viewBox="0 -960 960 960" width="24"><path d="M672-466v46q0 5.6 4.2 9.8 4.2 4.2 9.8 4.2 5.6 0 9.8-4.2 4.2-4.2 4.2-9.8v-46h46q5.6 0 9.8-4.2 4.2-4.2 4.2-9.8 0-5.6-4.2-9.8-4.2-4.2-9.8-4.2h-46v-46q0-5.6-4.2-9.8-4.2-4.2-9.8-4.2-5.6 0-9.8 4.2-4.2 4.2-4.2 9.8v46h-46q-5.6 0-9.8 4.2-4.2 4.2-4.2 9.8 0 5.6 4.2 9.8 4.2 4.2 9.8 4.2h46Zm-196-6 94 92q2 2 10 4 10 0 13.5-9t-3.5-16l-84-81 85-79q7-6 3-14.5t-13-8.5q-2 0-4.567 1.091-2.566 1.091-4.433 2.909l-96 90v-80q0-6.067-3.953-10.033-3.954-3.967-10-3.967Q456-584 452-580.033q-4 3.966-4 10.033v180q0 6.067 3.953 10.033 3.954 3.967 10 3.967Q468-376 472-379.967q4-3.966 4-10.033v-82Zm-152-84v166q0 6.067 3.953 10.033 3.954 3.967 10 3.967Q344-376 348-379.967q4-3.966 4-10.033v-180q0-6.067-3.967-10.033Q344.067-584 338-584h-60q-6.067 0-10.033 3.953-3.967 3.954-3.967 10Q264-564 267.967-560q3.966 4 10.033 4h46Zm-92 384q-26 0-43-17t-17-43v-496q0-26 17-43t43-17h496q26 0 43 17t17 43v496q0 26-17 43t-43 17H232Z"/></svg>