<svg xmlns="http://www.w3.org/2000/svg" height="24" viewBox="0 -960 960 960" width="24"><path d="M708.262-60.782v-434.48q17.131 0 33.261 3.066 16.131 3.065 31.827 8.065v412.219q-15.696 5-31.827 8.065-16.13 3.065-33.261 3.065Zm-109.044-30.26v-373.959q15.131-8.565 31.044-15.348 15.913-6.782 34.044-10.347v425.35q-18.131-3.566-34.044-10.349-15.913-6.782-31.044-15.348Zm217.523 0v-373.959q48.957 28.261 78.718 77.501 29.761 49.239 29.761 109.761T895.459-168.26q-29.761 48.956-78.718 77.217Zm-260.914-32.262q-30.261-29.261-47.674-69.152-17.413-39.892-17.413-85.848 0-45.957 17.413-85.501 17.413-39.543 47.674-69.369v309.87Zm-50.348 62.522H399.913q-20.087 0-34.762-13.391-14.674-13.392-17.239-32.914l-11.435-87.912q-8.478-3.305-16.304-8.044-7.825-4.739-15.434-9.912l-81.913 34.304q-18.522 8.261-37.326 1.783-18.805-6.479-29.066-24.001L76.782-340.043q-10.261-17.522-6.413-37.044 3.847-19.522 19.804-31.348l70.478-53.609q-.435-4.739-.435-8.978v-17.956q0-4.239.435-8.978l-70.478-53.043q-15.957-11.827-19.805-31.631-3.847-19.805 6.414-37.327l79.652-138.609q10.261-16.957 29.066-23.435 18.804-6.478 37.326 1.217l83.044 34.305q7.608-5.174 14.869-9.63 7.26-4.457 15.738-7.761l11.435-89.043q2.565-19.522 17.239-32.914 14.675-13.391 34.762-13.391h160.174q20.087 0 34.762 13.391 14.674 13.392 17.239 32.914l11.435 89.043q8.478 3.304 16.304 7.761 7.825 4.456 15.434 9.63l81.913-34.305q18.522-7.695 37.326-1.217 18.805 6.478 29.066 23.435l81.348 141.436q9.696 16.391 5.848 34.5t-18.674 29.37l-19.999 15.216q-32.826-18.391-68.783-27.805-35.956-9.413-74.478-9.413-28.479 0-55.74 6.327-27.262 6.326-53.61 16.978-19-31.304-50.652-49.673Q517.174-620 480.304-620q-58 0-99 41t-41 99q0 40.826 21.892 74.522 21.891 33.696 58.413 51.565-5.435 18.304-7.652 37.543-2.217 19.24-2.217 37.979.434 62.217 24.761 118.935 24.326 56.718 69.978 98.674Z"/></svg>