<svg xmlns="http://www.w3.org/2000/svg" height="20" viewBox="0 -960 960 960" width="20"><path d="M377-276v-113h-46v-112q0-19.714 25.987-32.357 25.988-12.643 65-12.643Q461-546 487-533.357q26 12.643 26 32.357v112h-46v113h-90Zm45-318q-17 0-31-14t-14-31q0-17 14-31t31-14q17 0 31 14t14 31q0 17-14 31t-31 14Zm0 484q-155 0-262.5-107.5T52-480q0-77 29.1-144.133 29.1-67.134 79.367-117.4 50.266-50.267 117.4-79.367Q345-850 422-850q76 0 144 29t118.5 79.5Q735-691 764.5-623T792-478v-6l27-26q4-4 23 4t34.667 14.5q15.666 6.5 20.833 4.5 5.167-2-17.5-25 13 12.667 13 30.333Q893-464 880-451L775-345q-17.636 18-41.818 18T691-345L586-450q-13-12.909-12.5-30.955Q574-499 587-512.478 600-526 618-525.5t31 13.5l25 27v6q2-107-73.4-180T422-732q-105.371 0-178.686 73.314Q170-585.371 170-480q-1 105 73 178.5T422-228q49.592 0 95.796-19.5Q564-267 600-303q18-16 43-17t43 17q18 19 16 44t-19 42q-50 51-116.5 79T422-110Z"/></svg>