<svg xmlns="http://www.w3.org/2000/svg" height="20" viewBox="0 -960 960 960" width="20"><path d="M367.693-826.001v-51.998h224.614v51.998H367.693Zm86.308 434.308h51.998v-224.614h-51.998v224.614ZM480-116.001q-66.154 0-123.419-24.777-57.266-24.776-100.146-67.657-42.881-42.881-67.657-100.146Q164.001-365.846 164.001-432t24.777-123.419q24.776-57.266 67.657-100.146 42.88-42.881 100.146-67.657 57.265-24.777 122.979-24.777 56.357 0 108.591 19.885 52.233 19.885 95.925 54.885l45.846-44.846 36.153 36.153-44.846 45.846q35 42.692 54.885 95.153 19.885 52.462 19.885 109.067 0 66.01-24.777 123.275-24.776 57.265-67.657 100.146-42.88 42.881-100.146 67.657Q546.154-116.001 480-116.001ZM480-168q110 0 187-77t77-187q0-110-77-187t-187-77q-110 0-187 77t-77 187q0 110 77 187t187 77Zm0-264Z"/></svg>