<svg xmlns="http://www.w3.org/2000/svg" height="24" viewBox="0 -960 960 960" width="24"><path d="M153.978-159.674q-51.674 0-87.609-36.255-35.934-36.256-35.934-88.049v-331.957h282.869v-200h202.392l128.608 128.848-.76 150.196h40v-76.174l108.174-104.066L970-363.978H683.544v-84.305h-40v72.153q20 17.717 30.619 41.679 10.62 23.962 10.62 50.473 0 51.793-36.256 88.049-36.255 36.255-88.049 36.255-38.478 0-70.195-21.88-31.718-21.881-46.435-57.881H270.609q-14.718 36-46.435 57.881-31.718 21.88-70.196 21.88Zm-.013-86.696q16.057 0 27.22-10.824 11.163-10.825 11.163-26.826 0-16.002-10.825-26.784-10.824-10.783-26.826-10.783-16.001 0-26.784 10.825-10.783 10.824-10.783 26.826 0 16.001 10.39 26.784 10.389 10.782 26.445 10.782Zm406.555 0q16.002 0 26.784-10.824 10.783-10.825 10.783-26.826 0-16.002-10.825-26.784-10.824-10.783-26.826-10.783-16.001 0-26.784 10.825-10.782 10.824-10.782 26.826 0 16.001 10.824 26.784 10.825 10.782 26.826 10.782Zm268.632-204.304-57.913-115.282v115.282h57.913Zm-427.239-86.217h153.783V-650.5l-77.827-76.826h-75.956v190.435Z"/></svg>