<svg xmlns="http://www.w3.org/2000/svg" height="20" viewBox="0 -960 960 960" width="20"><path d="M178.001-202.385q-46.189 0-78.287-32.116-32.097-32.115-32.097-77.884v-291.998h284.538v-143.616h173.152l86 86 .384 147.462h54.155v-71.616l58.922-83.307 202.153 309.075H665.846v-102.154h-54.155v57.616q23.77 15.462 37.039 39.5 13.269 24.038 13.269 53.038 0 45.769-32.115 77.884-32.115 32.116-77.884 32.116-41.846 0-73.615-27t-36.307-68.616H287.923q-4.538 41.616-36.307 68.616-31.769 27-73.615 27Zm-.069-51.999q23.777 0 40.731-16.877t16.954-41.124q0-24.246-16.877-41.123t-41.124-16.877q-24.246 0-41.123 16.877-16.878 16.877-16.878 41.123 0 24.247 17.27 41.124 17.269 16.877 41.047 16.877Zm374.068 0q24.246 0 41.124-16.877 16.877-16.877 16.877-41.124 0-24.246-16.877-41.123-16.878-16.877-41.124-16.877-24.246 0-41.124 16.877-16.877 16.877-16.877 41.123 0 24.247 16.877 41.124 16.878 16.877 41.124 16.877Zm276-157.999-98.232-157.541-12.308 13.078v144.463H828ZM404.154-514.537h155.154v-125.54L503.77-696h-99.616v181.463Z"/></svg>