<svg xmlns="http://www.w3.org/2000/svg" height="24" viewBox="0 -960 960 960" width="24"><path d="M147.13-146.955q-53.957 0-91.848-37.968Q17.39-222.89 17.39-277.13v-348.262h286.783v-200h205.653l140.348 140.914-.434 136.825h40v-70.956l117.957-109.609L985.001-357.13H689.74v-90.174h-40v75.087q20 18.696 30.782 43.287 10.783 24.592 10.783 51.8 0 54.24-37.968 92.207-37.967 37.968-92.207 37.968-39.13 0-71.826-21.718-32.695-21.717-48.391-57.717H267.348q-15.696 36-48.392 57.717-32.696 21.718-71.826 21.718Zm-.03-95.827q14.769 0 24.79-9.904 10.022-9.903 10.022-24.543 0-14.64-9.903-24.444-9.904-9.804-24.544-9.804-14.639 0-24.444 9.903-9.804 9.903-9.804 24.543 0 14.64 9.557 24.444 9.556 9.805 24.326 9.805Zm414.13 0q14.64 0 24.444-9.904 9.804-9.903 9.804-24.543 0-14.64-9.903-24.444-9.904-9.804-24.544-9.804t-24.444 9.903q-9.804 9.903-9.804 24.543 0 14.64 9.903 24.444 9.904 9.805 24.544 9.805Zm-257.057-84.522v-197.739H117.739v121.913q7.174-2.305 14.695-3.24 7.522-.934 15.131-.934 39.718 0 72.12 21.717t47.663 58.283h36.825Zm100.349 0h36.391q14.13-33.739 43.369-55.174 29.239-21.435 65.544-24.261v-40.565H404.522v120Zm427.565-125.653-45.52-99.303v99.303h45.52Zm-427.565-94.696h145.304v-95.346l-83.044-82.044h-62.26v177.39ZM304.173-327.304v-80V-403.13v-121.913 197.739Zm100.349 0v-120 120Z"/></svg>