<svg xmlns="http://www.w3.org/2000/svg" height="24" viewBox="0 -960 960 960" width="24"><path d="M837.523-16.13 11.608-841.479l62.218-62.218L899.175-77.782 837.523-16.13ZM182.477-731.828l106.002 106.002v377.347h378.347l110.697 110.697v115.305H182.477v-709.351Zm195.959 20.307L204.87-884.957v-52.566h572.653V-680H671.521v-31.521H378.436ZM749.827-366l-58-58q11.435-11 17.935-25.5 6.5-14.5 6.5-30.5t-6.5-30.5q-6.5-14.5-17.935-25.5l58-58q23 23 34.717 52.5 11.718 29.5 11.718 61.5t-11.856 61.5Q772.55-389 749.827-366Zm98 98-56-56q31-31 48-71t17-85q0-45-17-85t-48-71l56-56q43 42 66 97t23 115q0 60-23 115t-66 97Z"/></svg>