<svg xmlns="http://www.w3.org/2000/svg" height="20" viewBox="0 -960 960 960" width="20"><path d="M810.413-50.978 49.065-812.087l53.631-52.631L862.805-104.37l-52.392 53.392ZM136.587-774.196l83 83v447.609h450.609l57.217 57.217v145.783H136.587v-733.609Zm83 602.609v48h424.826v-48H219.587Zm59.261-618.5v1.674h365.565v-48H230.848v-1.674l-63.326-62.087v-19.239h559.891V-672h-83v-44.413H352.761l-73.913-73.674Zm-59.261 618.5v48-48ZM686.696-382l-51-50q9.761-10 14.261-21.5t4.5-26.5q0-15-5.5-28t-15.261-23l51-51q20 20 30.88 46 10.881 26 10.881 56t-9.939 54q-9.939 24-29.822 44Zm102 102-51-51q29-29 45-66.5t16-82.5q0-45-17-84.5t-46-68.5l51-51q39 39 61.5 91.5t22.5 112.5q0 60-21.5 110.5t-60.5 89.5ZM644.413-836.413v48-48Z"/></svg>