<svg xmlns="http://www.w3.org/2000/svg" height="20" viewBox="0 -960 960 960" width="20"><path d="M480-332.001q-61.922 0-104.961-43.038Q332.001-418.078 332.001-480t43.038-104.961Q418.078-627.999 480-627.999t104.961 43.038Q627.999-541.922 627.999-480t-43.038 104.961Q541.922-332.001 480-332.001ZM480-384q40 0 68-28t28-68q0-40-28-68t-68-28q-40 0-68 28t-28 68q0 40 28 68t68 28Zm217.385 270.306q9.462-31.23 17.385-72.731 7.923-41.5 14.769-102.963-44.154 59.078-110.231 92.232Q553.231-164.001 480-164.001q-112.231 0-195.269-8.385-83.037-8.384-171.037-34.384v-55.845q32 10.616 73.5 18.346 41.5 7.731 102.963 13.808-57.539-41.461-91.847-108.115Q164.001-405.23 164.001-480q0-87.46 8.769-179.806 8.769-92.346 33.615-186.5h55.845q-10.077 41.846-17.731 83.616-7.653 41.769-14.038 92.847 42.615-58.693 108.692-92.424Q405.23-795.999 480-795.999q100.154 0 187.114 8.385 86.961 8.384 179.192 33.999v55.845q-38-10.461-82.654-18.692-44.654-8.231-93.424-13.462 60.616 45.308 93.193 111.577 32.578 66.27 32.578 138.347 0 104.923-9.462 190.615-9.461 85.691-34.307 175.691h-54.845ZM480-216q110 0 187-77t77-187q0-110-77-187t-187-77q-110 0-187 77t-77 187q0 110 77 187t187 77Z"/></svg>