<svg xmlns="http://www.w3.org/2000/svg" height="20" viewBox="0 -960 960 960" width="20"><path d="M480-303.521q-73.391 0-124.935-51.544T303.521-480q0-73.391 51.544-124.935T480-656.479q73.391 0 124.935 51.544T656.479-480q0 73.391-51.544 124.935T480-303.521Zm0-88.958q36.609 0 62.065-25.456 25.456-25.456 25.456-62.065 0-36.609-25.456-62.065-25.456-25.456-62.065-25.456-36.609 0-62.065 25.456-25.456 25.456-25.456 62.065 0 36.609 25.456 62.065 25.456 25.456 62.065 25.456ZM692.652-96q7.609-20.13 14.978-49.564Q715-174.999 723-226.39q-46.304 47.043-110.717 73.478Q547.87-126.477 480-126.477q-104.696 0-198.652-9.891Q187.391-146.26 96-172.825v-94.523q24.652 8.739 52.673 15.826t78.282 15.087q-45.912-44.608-73.195-109.304Q126.477-410.435 126.477-480q0-89.304 9.609-185.869 9.608-96.565 36.739-198.131h94.523q-8.609 26.695-15.631 59.543-7.021 32.847-13.587 70.847 45.174-44.217 105.348-72.065T480-833.523q101.174 0 195.195 10.174Q769.217-813.175 864-787.175v94.523q-31.782-10.87-62.369-18.457-30.586-7.587-68.586-12.456 48.739 52.522 74.608 109.869 25.87 57.348 25.87 133.696 0 98.478-9.826 192.282Q813.871-193.913 786.175-96h-93.523ZM480-216q110 0 187-77t77-187q0-110-77-187t-187-77q-110 0-187 77t-77 187q0 110 77 187t187 77Z"/></svg>