<svg xmlns="http://www.w3.org/2000/svg" height="20" viewBox="0 -960 960 960" width="20"><path d="M240.615-184q-24.315 0-40.465-16.15Q184-216.3 184-240.615V-368q0-6.8 4.547-11.4 4.547-4.6 11.269-4.6t11.453 4.6Q216-374.8 216-368v127.385q0 9.23 7.692 16.923Q231.385-216 240.615-216H368q6.8 0 11.4 4.547 4.6 4.548 4.6 11.27 0 6.722-4.6 11.452Q374.8-184 368-184H240.615Zm478.77 0H592q-6.8 0-11.4-4.547-4.6-4.547-4.6-11.269t4.6-11.453Q585.2-216 592-216h127.385q9.23 0 16.923-7.692Q744-231.385 744-240.615V-368q0-6.8 4.547-11.4 4.547-4.6 11.27-4.6 6.722 0 11.452 4.6Q776-374.8 776-368v127.385q0 24.315-16.15 40.465Q743.7-184 719.385-184ZM184-592v-127.385q0-24.315 16.15-40.465Q216.3-776 240.615-776H368q6.8 0 11.4 4.547 4.6 4.547 4.6 11.269t-4.6 11.453Q374.8-744 368-744H240.615q-9.23 0-16.923 7.692Q216-728.615 216-719.385V-592q0 6.8-4.547 11.4-4.548 4.6-11.27 4.6-6.722 0-11.452-4.6Q184-585.2 184-592Zm560 0v-127.385q0-9.23-7.692-16.923Q728.615-744 719.385-744H592q-6.8 0-11.4-4.547-4.6-4.547-4.6-11.27 0-6.722 4.6-11.452Q585.2-776 592-776h127.385q24.315 0 40.465 16.15Q776-743.7 776-719.385V-592q0 6.8-4.547 11.4-4.547 4.6-11.269 4.6t-11.453-4.6Q744-585.2 744-592ZM480-376q-43.5 0-73.75-30.25T376-480q0-43.5 30.25-73.75T480-584q43.5 0 73.75 30.25T584-480q0 43.5-30.25 73.75T480-376Z"/></svg>