<svg xmlns="http://www.w3.org/2000/svg" height="24" viewBox="0 -960 960 960" width="24"><path d="M232-172q-26 0-43-17t-17-43v-114q0-5.95 4.035-9.975 4.035-4.025 10-4.025t9.965 4.025q4 4.025 4 9.975v114q0 12 10 22t22 10h114q5.95 0 9.975 4.035 4.025 4.035 4.025 10T355.975-176q-4.025 4-9.975 4H232Zm496 0H614q-5.95 0-9.975-4.035-4.025-4.035-4.025-10t4.025-9.965q4.025-4 9.975-4h114q12 0 22-10t10-22v-114q0-5.95 4.035-9.975 4.035-4.025 10-4.025t9.965 4.025q4 4.025 4 9.975v114q0 26-17 43t-43 17ZM172-614v-114q0-26 17-43t43-17h114q5.95 0 9.975 4.035 4.025 4.035 4.025 10T355.975-764q-4.025 4-9.975 4H232q-12 0-22 10t-10 22v114q0 5.95-4.035 9.975-4.035 4.025-10 4.025T176-604.025q-4-4.025-4-9.975Zm588 0v-114q0-12-10-22t-22-10H614q-5.95 0-9.975-4.035-4.025-4.035-4.025-10t4.025-9.965q4.025-4 9.975-4h114q26 0 43 17t17 43v114q0 5.95-4.035 9.975-4.035 4.025-10 4.025T764-604.025q-4-4.025-4-9.975ZM480-372q-44.55 0-76.275-31.725Q372-435.45 372-480q0-44.55 31.725-76.275Q435.45-588 480-588q44.55 0 76.275 31.725Q588-524.55 588-480q0 44.55-31.725 76.275Q524.55-372 480-372Zm0-28q33 0 56.5-23.5T560-480q0-33-23.5-56.5T480-560q-33 0-56.5 23.5T400-480q0 33 23.5 56.5T480-400Zm0-80Z"/></svg>