<svg xmlns="http://www.w3.org/2000/svg" height="20" viewBox="0 -960 960 960" width="20"><path d="M385.538-539.385 351.231-515q-4.231 2.462-8.193-.322-3.961-2.784-1.961-7.37l12.308-40.923-36.308-29.924q-5-2.461-3.385-7.307 1.615-4.846 6.709-4.846h45.368l12.877-40.338q1.8-4.816 6.692-4.816 4.893 0 6.764 4.816l13.657 40.338h44.549q5.461 0 7.077 4.846Q459-596 454-593.539l-36.308 29.924L430-522.692q2 4.586-1.961 7.37-3.962 2.784-8.193.322l-34.308-24.385Zm.035 172.616q-86.958 0-148.112-61.154Q176.307-489.077 176.307-576t61.154-148.077q61.154-61.154 148.077-61.154 86.924 0 148.077 61.154 61.154 61.154 61.154 148.112 0 38.073-13.269 73.865-13.269 35.792-35.269 63.485l226.308 226.307q5.615 5.616 6 10.77.384 5.153-6 11.538-6.385 6.385-11.654 6.385-5.27 0-11.654-6.385L522.923-415.307q-30 23.538-65.792 36.038-35.792 12.5-71.558 12.5Zm-.035-32q74.616 0 125.923-51.308Q562.769-501.385 562.769-576q0-74.615-51.308-125.923-51.307-51.308-125.923-51.308-74.615 0-125.923 51.308Q208.308-650.615 208.308-576q0 74.615 51.307 125.923 51.308 51.308 125.923 51.308Z"/></svg>