<svg xmlns="http://www.w3.org/2000/svg" height="20" viewBox="0 -960 960 960" width="20"><path d="M536.154-139.923q-7.569 2.462-13.246-2.538-5.677-5-5.677-13.462 0-5.185 3.884-9.362 3.885-4.177 7.962-4.869 37.083-7.249 70.618-20.971 33.536-13.721 61.151-33.336 4.077-3.154 9-2.924 4.923.231 8.308 4.616 7.077 6.377 6.346 13.861-.731 7.485-7.269 12.37-29.769 21.307-65.406 35.079-35.636 13.771-75.671 21.536Zm199.538-139.615q-3.077-3.635-3.461-8.318-.385-4.683 2.769-10.298 20.154-28.385 32.846-61.763 12.692-33.378 19.462-70.006.978-5.018 5.066-8.548Q796.462-442 802.462-442q8.461 0 13.115 5.779 4.654 5.78 2.731 13.375-6.233 37.595-20.886 72.913-14.653 35.318-35.729 68.933-4.385 6.308-12.154 6.923-7.77.616-13.847-5.461ZM802.539-520q-5.564 0-10.051-3-4.488-3-5.18-9.077-6-37.012-19.077-69.813-13.077-32.802-32.462-61.956-3.154-4.615-3.307-9.923-.154-5.308 4.23-8.693 5.077-6.077 13.231-4.192 8.154 1.885 12.539 8.192 24.615 35.923 36.346 66.77 11.731 30.846 19.731 72.217 1.692 8.09-2.654 13.783Q811.539-520 802.539-520ZM420.538-139.384Q298.769-160.692 217-256.997t-81.769-223.284q0-127.95 82.153-223.719 82.154-95.769 203.736-117.964 7.957-1.575 13.034 3.224 5.077 4.798 5.077 13.663 0 4.077-3.445 8.489-3.446 4.411-8.401 5.511-112.154 21.385-186.154 107.923-74 86.539-74 202.654 0 115.346 74 202.154 74 86.807 186.154 108.192 4.955.835 8.401 4.495 3.445 3.659 3.445 9.463 0 8.042-5.575 13.273-5.576 5.231-13.118 3.539Zm241.539-596.385q-30.923-22.154-64.231-35.731-33.307-13.577-67-19.577-4.077-.692-7.577-4.943-3.5-4.25-3.5-9.057 0-8.769 5.677-13.616 5.677-4.846 13.246-3.153 37.038 6.995 71.75 21.536t66.02 36.848q6.538 4.385 8.153 11.654 1.616 7.269-4.692 14.346-2.615 3.385-7.808 3.616-5.192.231-10.038-1.923ZM477.239-338.461q-6.239 0-11.451-2.116-5.211-2.115-8.942-5.577-60.692-60.461-82.154-94.577-21.461-34.115-21.461-67.915 0-52.662 36.538-89.431 36.539-36.769 87.693-36.769 51.153 0 88.192 36.769 37.039 36.769 37.039 89.431 0 33.8-21.462 67.415-21.462 33.616-82.154 95.077-4.861 4.231-9.845 5.962-4.984 1.731-11.993 1.731Zm1.157-130.308q16.989 0 28.296-11.242Q518-491.254 518-508.242q0-16.989-11.242-28.297-11.242-11.307-28.231-11.307t-28.296 11.242q-11.308 11.242-11.308 28.231 0 16.988 11.242 28.296t28.231 11.308Z"/></svg>