<svg xmlns="http://www.w3.org/2000/svg" height="20" viewBox="0 -960 960 960" width="20"><path d="M240-533.912h-65.217v359.129h610.434v-359.129H433.001q-20.388 0-34.694-14.246Q384-562.404 384-582.702q0-20.298 14.307-34.755 14.306-14.456 34.694-14.456h352.216q40.305 0 69.153 28.498 28.848 28.498 28.848 69.503v359.129q0 40.305-28.848 69.153-28.848 28.848-69.153 28.848H174.783q-40.305 0-69.153-28.848-28.848-28.848-28.848-69.153v-359.129q0-41.005 28.848-69.503 28.848-28.498 69.649-28.498H240v-202.305q0-20.387 14.295-34.694 14.295-14.306 34.665-14.306h198.235q20.37 0 34.827 14.281 14.457 14.282 14.457 34.632v57.128q0 20.35-14.307 34.667t-34.694 14.317H312v260.158q0 15.315-10.35 25.675Q291.3-432 276-432q-15.3 0-25.65-10.35Q240-452.7 240-468v-65.912Zm-65.217 0v359.129-359.129V-432v-101.912Z"/></svg>