<svg xmlns="http://www.w3.org/2000/svg" height="24" viewBox="0 -960 960 960" width="24"><path d="M166.783-60.782q-44.305 0-75.153-30.848-30.848-30.848-30.848-75.153v-375.129q0-44.305 30.848-75.153 30.848-30.848 75.153-30.848H240v-198.305q0-22.087 15.457-37.544 15.456-15.456 37.544-15.456h222.477q22.087 0 37.544 15.456 15.457 15.457 15.457 37.544v65.304q0 22.087-15.457 37.544-15.457 15.457-37.544 15.457H320V-440q0 17 11.5 28.5T360-400q17 0 28.5-11.5T400-440v-207.913h393.217q44.305 0 75.153 30.848 30.848 30.848 30.848 75.153v375.129q0 44.305-30.848 75.153-30.848 30.848-75.153 30.848H166.783Z"/></svg>