<svg xmlns="http://www.w3.org/2000/svg" height="20" viewBox="0 -960 960 960" width="20"><path d="M722.913-175.738h-88.461q-20.56 0-34.984-14.246-14.424-14.246-14.424-34.544 0-20.298 14.307-34.754 14.306-14.457 34.694-14.457l89.868-1-12.651-12.651q-14.392-13.392-14.674-31.066-.283-17.674 13.152-31.587 15.478-16 35.878-16.848 20.399-.848 34.993 14.109l95.034 94.865q14.357 14.902 14.357 34.584 0 19.682-14.079 34.326l-92.625 92.625q-14.644 14.644-35.719 13.797-21.075-.848-36.74-16.37-13.969-13.827-13.469-32.783.5-18.957 14.05-32.507l11.493-11.493Zm-500.13 50.956q-41.005 0-69.503-28.498-28.498-28.498-28.498-69.503v-112.216q0-20.388 14.246-34.694Q153.274-384 173.572-384q20.298 0 34.754 14.307 14.457 14.306 14.457 34.694v112.216h112.216q20.388 0 34.694 14.246Q384-194.291 384-173.993q0 20.298-14.307 34.755-14.306 14.456-34.694 14.456H222.783Zm-98.001-500.219v-112.216q0-41.005 28.498-69.503 28.498-28.498 69.503-28.498h112.216q20.388 0 34.694 14.246Q384-806.726 384-786.428q0 20.298-14.307 34.754-14.306 14.457-34.694 14.457H222.783v112.216q0 20.388-14.246 34.694Q194.291-576 173.993-576q-20.298 0-34.755-14.307-14.456-14.306-14.456-34.694Zm612.435 0v-112.216H625.001q-20.388 0-34.694-14.246Q576-765.709 576-786.007q0-20.298 14.307-34.755 14.306-14.456 34.694-14.456h112.216q41.005 0 69.503 28.498 28.498 28.498 28.498 69.503v112.216q0 20.388-14.246 34.694Q806.726-576 786.428-576q-20.298 0-34.754-14.307-14.457-14.306-14.457-34.694Z"/></svg>