<svg xmlns="http://www.w3.org/2000/svg" height="20" viewBox="0 -960 960 960" width="20"><path d="M573.37-140.413q-110.435 0-197.914-63.337-87.478-63.337-123.434-166.337H141.37v-75.826h93.695q-1-7.283-1.5-16.163-.5-8.881-.5-16.924t.5-17.065q.5-9.022 1.5-18.022H141.37v-75.826h110.412q35.957-103.239 123.555-166.457 87.598-63.217 198.033-63.217 68.956 0 132.271 26.957Q768.957-765.674 818.63-715l-55.782 56.022q-38.718-38.718-87.337-60.076-48.62-21.359-102.141-21.359-76.566 0-140.033 40.804-63.467 40.805-95.467 109.696h235.5v75.826H315.435q-1 7.283-1.261 16.044-.261 8.76-.261 17.043t.261 17.543q.261 9.261 1.261 17.544H573.37v75.826h-235.5q32 68.891 95.467 109.696 63.467 40.804 140.033 40.804 53.521 0 102.021-21.359 48.5-21.358 86.979-60.076L818.63-245q-49.673 50.674-112.989 77.63-63.315 26.957-132.271 26.957Z"/></svg>