<svg xmlns="http://www.w3.org/2000/svg" height="20" viewBox="0 -960 960 960" width="20"><path d="M619.691-441.54 482.462-579.769q17.769-1.538 28.769-13.483t11-29.189q0-17.098-12.271-29.444T480-664.231q-17.055 0-28.874 11-11.819 11-13.357 28.769l-50.23-49.229q5-8.385 10.616-15.962 5.615-7.577 14.769-14.262l-28.077-24.931q-12.923-12.231-27.039-12.346-14.115-.115-27.423 9.346l-46.537-46.537q14.692-12.44 33.461-19.374 18.769-6.934 38.934-6.934 5.146 0 9.917.308t9.918.308q11.81-31.923 40.691-51.885 28.881-19.961 63.21-19.961t63.21 19.961q28.881 19.962 40.691 51.885 5.427 0 10.081-.308t9.654-.308q46.111 0 78.478 32.503t32.367 78.635q0 18.63-6.5 37.169-6.5 18.538-19.109 34.303 11.653 15.38 18.631 34.018 6.978 18.638 6.978 36.846 0 43.857-27.231 73.306-27.231 29.448-67.538 36.371ZM443.693-721.614q8.23-2.808 17.461-4.712 9.231-1.904 18.846-1.904t18.846 1.904q9.231 1.904 17.461 4.712l10.77-48.077q4.308-16.315-12.5-29.273-16.808-12.958-34.577-12.958t-34.577 12.958q-16.808 12.958-12.5 29.273l10.77 48.077Zm141.306 82.23 36.252-12.415q12.133-4.2 20.671-15.234 8.539-11.034 8.539-26.469 0-19.216-13.885-33.203-13.884-13.987-32.577-13.987-8.45 0-15.748 2.961-7.299 2.962-13.098 8.885l-28.692 25.231q15.359 12.566 24.833 28.86 9.474 16.294 13.705 35.371Zm19.023 136.076q18.747 0 32.9-13.979 14.154-13.979 14.154-33.183 0-15.992-8.846-27.261-8.846-11.27-21-14.731l-37.231-12.154q-3.231 18.462-12.962 34.923-9.73 16.462-23.961 29.308l28.347 25.527q5.884 5.627 12.961 8.589 7.077 2.961 15.638 2.961ZM786.154-68.31l-99.539-99.539q-43.461 37.231-96.23 59.001Q537.616-87.078 480-87.078q0-58.077 21.769-110.616 21.77-52.538 59.001-96l-74.415-74.385H480q-34.322 0-63.197-19.961-28.876-19.962-40.684-51.885-5.426 0-10.08.308t-9.654.308q-46.199 0-79.022-32.446-32.823-32.445-32.823-78.708 0-12.455 3-24.65 3-12.195 9-23.62L83.31-772.154l44.768-44.768 702.844 703.844-44.768 44.768ZM480-87.079q-65.153 0-124.691-26.961t-105.076-72.5q-45.539-45.538-72.5-105.076-26.962-59.538-26.962-124.691 65.154 0 124.692 26.961 59.538 26.962 105.076 72.5t72.5 105.076Q480-152.232 480-87.079Zm-71.844-71.844q-21-67.77-69.738-116.655-48.737-48.885-116.802-69.885 21 67.77 69.737 116.655 48.738 48.885 116.803 69.885Zm143.688 0q26.54-6.923 49.579-20.385 23.039-13.462 42.808-31.124l-40.877-40.878q-17.663 19.77-31.125 42.809-13.462 23.039-20.385 49.578Zm226.462-124.002-102.46-102.46q31.23-14.769 64.35-22.845 33.12-8.077 69.033-8.077 0 35.616-8.077 68.884t-22.846 64.498ZM551.844-158.923Zm-143.688 0ZM480-728.23Zm91.537 52.923Zm0 105.614ZM387.539-673.691Z"/></svg>