<svg xmlns="http://www.w3.org/2000/svg" height="20" viewBox="0 -960 960 960" width="20"><path d="M597.385-463.077 485.923-575.539q18.538-3.076 29.538-15.983 11-12.906 11-30.919 0-18.636-13.617-32.328-13.617-13.692-32.844-13.692-17.824 0-30.604 11-12.781 11-15.857 29.538l-34.462-33.462q5-8.769 10.231-16.923 5.23-8.154 15.538-15.223l-26.154-29.161q-14.846-16.462-31.077-16.193-16.23.27-31.846 13.193l-33.077-33.077q12.385-11.287 29.423-17.451 17.039-6.165 34.511-6.165 5.531 0 11.264.115 5.733.116 11.264.116 9.502-28.846 35.499-47.269t55.326-18.423q29.329 0 55.326 18.423 25.996 18.423 35.499 47.269 5.812 0 11.427-.116 5.615-.115 11-.115 39.392 0 67.042 27.504 27.65 27.503 27.65 67.06 0 15.975-6.5 33.552-6.5 17.577-18.339 32.188 10.884 13.842 17.862 31.711 6.977 17.869 6.977 33.384 0 41.935-26.461 65.999-26.462 24.064-64.077 27.91Zm-151-243.154q7.461-2.615 15.923-4.423 8.461-1.808 17.692-1.808t17.692 1.808q8.462 1.808 15.923 4.423l16.539-51.154q6.615-17.084-12.5-31.772-19.116-14.689-37.654-14.689-18.538 0-37.654 14.689-19.115 14.688-12.5 31.772l16.539 51.154ZM570-634.769l40.483-8.569q13.286-2.662 23.363-14.273 10.077-11.61 10.077-30.122 0-20.37-15.231-35.511-15.23-15.141-35.076-15.141-9.515 0-17.613 3.923-8.098 3.923-14.695 11.77l-26.385 29.461q14.59 11.412 23.103 26.36 8.513 14.948 11.974 32.102Zm23.638 129.154q19.901 0 35.208-15.133 15.308-15.133 15.308-35.49 0-18.685-10.192-30.723-10.193-12.039-23.5-13.962L569-609.231q-2.461 16.923-11.423 31.846-8.961 14.924-22.423 26.616l26.424 29.758q7.038 7.55 14.691 11.473 7.654 3.923 17.369 3.923Zm193.67 410L681.231-201.692q-41.923 41.462-93.923 66.5-52 25.038-107.308 25.038 0-56.153 25.038-107.73 25.039-51.577 66.5-93.5l-84.799-84.77H480q-29.322 0-55.314-18.423-25.991-18.423-35.491-47.269-5.811 0-11.426.116-5.615.115-11 .115-39.533 0-67.613-27.446-28.079-27.446-28.079-67.345 0-10.742 3-21.976 3-11.233 9-22.274L110.615-773.308l30.539-30.538 676.692 677.692-30.538 30.539ZM480-110.154q-56.308 0-109.885-25.423-53.577-25.423-95.654-67.5t-67.5-95.654q-25.423-53.577-25.423-109.884 56.308 0 109.885 25.423 53.577 25.423 95.654 67.5t67.5 95.654Q480-166.461 480-110.154Zm-45.693-45.692q-21-78.539-75.121-132.808-54.122-54.269-132.955-75.269 21 78.538 75.121 132.808 54.122 54.269 132.955 75.269Zm91.386 0q38.076-8.846 70.153-28.269 32.077-19.423 57.615-45.546l-53.953-53.954Q573.385-258.077 553.962-226t-28.269 70.154Zm229.923-149-80.924-80.923q25.462-10.539 50.851-16.693 25.389-6.153 52.919-6.153 0 27.233-6.154 52.77-6.154 25.538-16.692 50.999Zm-229.923 149Zm-91.386 0ZM480-712.462Zm78.077 44.847Zm0 90.23Zm-159-84Z"/></svg>