<svg xmlns="http://www.w3.org/2000/svg" height="24" viewBox="0 -960 960 960" width="24"><path d="m578-479-72-72q23-8 37-28t14-45q0-32-22.5-54.5T480-701q-25 0-45 14t-28 37l-94-94q11-12 27-18.5t33-6.5h25q8-27 32-44.5t50-17.5q26 0 50 17.5t32 44.5h25q35 0 59 24t24 59q0 14-6.5 31T645-624q11 13 18 30.5t7 31.5q0 41-27 62t-65 21Zm216 368L681-224q-41 45-93.5 72.5T480-124q0-55 27.5-107.5T580-325l-92-92h-8q-26 0-50-17.5T398-479h-25q-35 0-59.5-24T289-562q0-10 3-20.5t9-21.5L126-779l20-20 668 668-20 20Zm-314-13q-51 0-101-24.5T289-213q-40-40-64.5-90T200-404q51 0 101 24.5t90 64.5q40 40 64.5 90T480-124Zm261-192-69-69q22-9 43.5-14t44.5-5q0 23-5 44.5T741-316Z"/></svg>