<svg xmlns="http://www.w3.org/2000/svg" height="20" viewBox="0 -960 960 960" width="20"><path d="m584-476-91-91q18-6 30-20.974 12-14.975 12-34.026 0-22-16.5-38.5T480-677q-20 0-35 12t-20 30L314-747q11-10.594 27-16.297Q357-769 372.857-769H397q8.118-27 32.384-44.5t50.595-17.5q26.329 0 50.595 17.5t32.384 44.5H587q35.832 0 60.416 24.503Q672-719.993 672-684.286 672-670 665.5-653t-17.878 30.919q10.422 12.919 17.4 30.326Q672-574.348 672-560.448q0 40.781-26 61.615Q620-478 584-476Zm204 364L678-222q-41 44-92.538 71T480-124q0-55 27-106t71-92l-91.03-91H480q-26.322 0-50.583-17.5-24.26-17.5-32.376-44.5H373q-35.867 0-60.933-24.446Q287-523.892 287-559.518q0-10.169 3-20.825 3-10.657 9-21.467L127-774l22-22 661 662-22 22Zm-308-12q-51 0-101-24.5T289-213q-40-40-64.5-90T200-404q51 0 101 24.5t90 64.5q40 40 64.5 90T480-124Zm262-194-68-68q22-8 42.852-13 20.851-5 43.148-5 0 22-5 43t-13 43Z"/></svg>