<svg xmlns="http://www.w3.org/2000/svg" height="24" viewBox="0 -960 960 960" width="24"><path d="m578-479-94-94q20-2 33.5-16.5T531-624q0-21-15-36t-36-15q-20 0-34.5 13.5T429-628l-23-23q5-11 11.5-20.5T435-689l-27-34q-16-19-36.5-18T334-723l-21-21q11-12 27-18.5t33-6.5h25q8-27 32-44.5t50-17.5q26 0 50 17.5t32 44.5h25q34.528 0 58.764 24Q670-721 670-686.096 670-672 663.5-655T645-624q11 13 18 30.5t7 31.5q0 41-27 62t-65 21ZM446-696q8-3.5 16-5.25t18-1.75q10 0 18 1.75t16 5.25l20-52q8-20-12.5-37.5T480-803q-21 0-41.5 17.5T426-748l20 52Zm113 65 46-7q15-2 26-14.5t11-33.5q0-22-16.5-38.5T587-741q-10.769 0-18.846 4.5T552-723l-27 34q15 11 23.5 25.5T559-631Zm28 124q22 0 38.5-16.5T642-562q0-21-11-33.5T605-610l-46-7q-2 18-10.5 32.5T525-559l27 34q8 9 16 13.5t19 4.5Zm207 396L681-224q-41 45-93.5 72.5T480-124q0-55 27.5-107.5T580-325l-92-92h-8q-26 0-50-17.5T398-479h-25q-34.667 0-59.333-24Q289-527 289-562.455q0-9.545 3-20.045 3-10.5 9-21.5L126-779l20-20 668 668-20 20Zm-314-13q-51 0-101-24.5T289-213q-40-40-64.5-90T200-404q51 0 101 24.5t90 64.5q40 40 64.5 90T480-124Zm-30-30q-21-85-78-142t-142-78q21 85 78 142t142 78Zm60 0q46-11 84.5-34t67.5-55l-63-63q-32 29-55 67.5T510-154Zm231-162-69-69q22-9 43.398-14 21.399-5 44.602-5 0 23.203-5 44.602Q750-338 741-316ZM510-154Zm-60 0Zm30-549Zm68 39Zm0 80Zm-142-67Z"/></svg>