<svg xmlns="http://www.w3.org/2000/svg" height="24" viewBox="0 -960 960 960" width="24"><path d="m613.691-444.54-96.615-96.614q24.846-9.846 39.462-32.615 14.615-22.77 14.615-50.231 0-38.154-26.5-64.653-26.499-26.5-64.653-26.5-26.846 0-49 14.615-22.154 14.616-33.846 38.846L282.848-775.383q14.692-13.846 33.461-21.577 18.769-7.731 40.076-7.731 5.385 0 10.347.308 4.961.308 10.346.308 11.692-31.923 40.307-51.885Q446-875.921 480-875.921t62.615 19.961q28.615 19.962 40.307 51.885 5.385 0 10.346-.308 4.962-.308 10.347-.308 45.461 0 77.153 32 31.692 32 31.692 77.461 0 18.307-6.5 36.846-6.5 18.538-19.731 34.384 12.231 15.461 19.231 34.192 7 18.731 7 37.038 0 44.077-28.231 73.692-28.231 29.615-70.538 34.538ZM792.154-67.31 689.615-169.849q-43.461 38.231-97.192 60.501Q538.692-87.078 480-87.078q0-58.077 22.269-112.116 22.27-54.038 60.501-97.5l-75.385-75.385H480q-34 0-62.615-19.961-28.615-19.962-40.307-51.885-5.385 0-10.346.308-4.962.308-10.347.308-45.461 0-77.653-32-32.192-32-32.192-77.461 0-12.461 3-24.499 3-12.039 9-23.654L82.31-777.154l42.768-42.768 709.844 709.844-42.768 42.768ZM480-87.079q-65.153 0-124.691-26.961t-105.076-72.5q-45.539-45.538-72.5-105.076-26.962-59.538-26.962-124.691 65.154 0 124.692 26.961 59.538 26.962 105.076 72.5t72.5 105.076Q480-152.232 480-87.079Zm297.306-193.846-103.46-103.46q31.23-15.769 65.038-23.845 33.807-8.077 70.345-8.077 0 36.538-8.077 70.345t-23.846 65.037Z"/></svg>