<svg xmlns="http://www.w3.org/2000/svg" height="20" viewBox="0 -960 960 960" width="20"><path d="M642-420 479-584q17 0 28-10.983t11-27.458Q518-638 507.075-649 496.15-660 480-660q-16.286 0-27.143 11T442-621l-66-65q5-8 11-15t14-13.3L371-735q-11-8-23-8.5t-23 5.5l-60-60q17-13.594 37.5-21.297Q323-827 345.857-827q4.762 0 8.572.5 3.809.5 8.571.5 14.118-35 45.884-56.5t71.095-21.5q39.329 0 71.095 21.5t45.884 56.5q5.042 0 8.734-.5 3.693-.5 8.308-.5 52.832 0 89.916 37.503Q741-751.993 741-699.286q0 21.286-6.5 40.786t-19.878 36.419q12.422 16.919 19.4 36.326Q741-566.348 741-545.448q0 45.781-28 80.615Q685-430 642-420ZM441-737q9-3 19-5t20-2q10 0 20 2t19 5l5-45q2-15.545-12.5-26.773Q497-820 480-820t-31.5 11.227Q434-797.545 436-782l5 45Zm159 93 32.021-16.261Q643-666 650-676.457t7-22.815q0-18.061-12.538-30.895Q631.923-743 614.385-743q-7.385 0-13.885 2t-11.5 6l-31 21q16.128 13.72 26.564 31.36T600-644Zm14.407 143Q632-501 645-513.825t13-30.875q0-13.3-7.5-23.8T632-584l-33-16q-4 20-14.5 38T559-530l30.27 21.296Q594-505 600.5-503q6.5 2 13.907 2ZM785-41l-93-93q-45 33-98.538 51.5T480-64q0-60 18.5-113.5T550-276l-64.03-64H480q-39.322 0-71.083-21.5-31.76-21.5-45.876-56.5-5.041 0-8.733.5-3.693.5-8.308.5-52.867 0-90.433-37.446Q218-491.892 218-544.518q0-14.169 3-27.325 3-13.157 9-24.967L56-771l59-59 729 730-59 59ZM480-64q-74 0-139.5-28.5T226-170q-49-49-77.5-114.5T120-424q74 0 139.5 28.5T374-318q49 49 77.5 114.5T480-64Zm-98-98q-21-57-64.352-100.5Q274.295-306 217-327q21 57 64.352 100.5Q324.705-183 382-162Zm196 0q15-5 29-12.5t28-16.7L607.2-219q-9.2 14-16.7 28T578-162Zm223-99L677-385q37-19 77.852-29 40.851-10 85.148-10 0 44-10 85t-29 78Zm-223 99Zm-196 0Zm98-582Zm105 61Zm0 121ZM376-686Z"/></svg>