<svg xmlns="http://www.w3.org/2000/svg" height="24" viewBox="0 -960 960 960" width="24"><path d="M658.61-420.739 525.696-553.653q23.174-11.565 36.478-34.37 13.304-22.804 13.304-48.978 0-39.739-27.869-67.608-27.87-27.87-67.609-27.87-25.739 0-47.261 13.87-21.521 13.869-36.087 35.478L250.999-828.35q17.566-13.869 38.631-21.521 21.065-7.652 44.5-7.652 5.565 0 10.13.5 4.566.5 9.566.5 15.13-38.392 49.456-61.588 34.327-23.195 76.718-23.195 42.391 0 77 23.195 34.609 23.196 49.174 61.588 5.566 0 10.131-.5t9.565-.5q56.522 0 96.131 40.109 39.609 40.108 39.609 96.63 0 22.696-7.348 44.175-7.348 21.478-21.913 39.608 13.565 18.131 21.413 39.609 7.848 21.479 7.848 44.174 0 48.261-29 84.674-29 36.414-74 47.805Zm153.869 404.48-88.651-88.652q-48.957 36.26-110.523 55.826Q551.74-29.52 480-29.52q0-71.305 19.565-133.088 19.565-61.783 55.826-110.74l-60.478-60.478q-3.695.566-7.456.848-3.761.283-7.457.283-42.391 0-76.718-23.196-34.326-23.196-49.456-61.587-5 0-9.566.5-4.565.5-10.13.5-56.522 0-96.631-40.109t-40.109-96.631q0-16.261 4.131-32.087 4.13-15.826 11.826-30.087L31.26-797.479l62.652-62.653 781.22 781.22-62.653 62.652ZM480-29.52q-87.001 0-159.284-29.065-72.283-29.065-124.674-81.457-52.392-52.391-81.457-124.674Q85.52-336.999 85.52-424q87.001 0 159.566 29.065 72.566 29.065 124.675 81.174 52.109 52.109 81.174 124.675Q480-116.521 480-29.52Zm356.176-213.653L693.653-385.696q39.826-18.869 85.283-28.587Q824.393-424 874.48-424q0 50.087-9.717 95.544-9.718 45.457-28.587 85.283Z"/></svg>