<svg xmlns="http://www.w3.org/2000/svg" height="24" viewBox="0 -960 960 960" width="24"><path d="M200-200v-560 560Zm90.001-405.385h379.998v-59.999H290.001v59.999Zm0 155.384h198.077q15.293-17.893 33.261-33.176 17.969-15.284 39.045-26.822H290.001v59.998Zm0 155.385h121.243q1.987-16 6.334-30.807 4.346-14.808 10.038-29.192H290.001v59.999Zm-150 154.615v-679.998h679.998v283.384q-14.293-5.571-29.339-9.401-15.045-3.83-30.66-5.445V-760H200v560h208.539q1.615 15.615 5.445 30.66 3.83 15.046 9.401 29.339H140.001ZM720-46.154q-68.384 0-120.384-42.038-52-42.039-67.538-105.654h49.691q14.538 44.385 51.851 72.193Q670.932-93.846 720-93.846q60.55 0 103.352-42.802Q866.154-179.45 866.154-240q0-60.55-42.802-103.352Q780.55-386.154 720-386.154q-32.846 0-62.078 14.154-29.231 14.154-50.923 38.154h66.847v47.692H526.154v-147.692h47.692v65.462q27.769-29.461 65.692-47.462 37.923-18 80.462-18 80.446 0 137.146 56.7 56.7 56.7 56.7 137.146 0 80.446-56.7 137.146-56.7 56.7-137.146 56.7Z"/></svg>