<svg xmlns="http://www.w3.org/2000/svg" height="20" viewBox="0 -960 960 960" width="20"><path d="M314-614h332v-20H314v20ZM720-64q-61 0-109-39t-61-97h17q17 58 57.612 89Q665.223-80 720-80q66.286 0 113.143-46.928T880-240.242q0-66.387-46.857-113.072Q786.286-400 720-400q-41 0-79.5 22.5T573-320h83v16H544v-112h16v87q30-40 71.956-63.5Q673.911-416 720-416q73.04 0 124.52 51.546Q896-312.908 896-239.774q0 73.134-51.48 124.454Q793.04-64 720-64ZM196-196v-568h568v215q-10.618-.826-22.309.087Q730-548 720-548q-51.55 0-97.775 15Q576-518 538-490H314v20h201q-27.596 25.9-49.106 56.9-21.511 31-34.894 67.1H314v20h110q-5 21-8.5 43t-3.5 43q0 10.374-1 21.687T411-196H196Z"/></svg>