<svg xmlns="http://www.w3.org/2000/svg" height="24" viewBox="0 -960 960 960" width="24"><path d="M200-200v-560 560Zm106-414h348v-28H306v28Zm0 148h211q7.761-8.123 16.881-15.062Q543-488 553-494H306v28Zm0 148h120.032q1.968-8 4.468-14.5T435-346H306v28ZM172-172v-616h616v252q-6.763-1.684-13.881-2.842Q767-540 760-541v-219H200v560h219q1 7 2.158 14.119Q422.316-178.763 424-172H172ZM720-56q-61 0-109-36.5T545-184h30q17 45 55.612 72.5Q669.223-84 720-84q64.629 0 110.314-45.686Q876-175.371 876-240q0-64.629-45.686-110.314Q784.629-396 720-396q-39 0-75 20t-62 52h81v28H536v-128h28v79q29-35 70-57t86-22q76.36 0 130.18 53.82Q904-316.36 904-240q0 76.36-53.82 130.18Q796.36-56 720-56Z"/></svg>