<svg xmlns="http://www.w3.org/2000/svg" height="24" viewBox="0 -960 960 960" width="24"><path d="M440-380v132q0 17 11.5 28.5T480-208q17 0 28.5-11.5T520-248v-132l37.714 37.714Q564-336 571-333.5t15 2.5q8 0 15-2.75t13-8.25q11-11 11-28t-11-28l-89-89q-9-9-20.433-14-11.434-5-24.5-5-13.067 0-24.567 5T435-487l-89 89q-12 12.273-11.5 28.636Q335-353 347-341.522 359-331 375.5-331.5T403-343l37-37ZM252-46q-53 0-89.5-36.5T126-172v-616q0-53 36.5-89.5T252-914h270q25.244 0 48.122 9.5T611-877l186 186q18 18 27.5 40.878T834-602v430q0 53-36.5 89.5T708-46H252Zm256-605v-137H252v616h456v-416H571q-26 0-44.5-18.5T508-651ZM252-788v200-200 616-616Z"/></svg>