<svg xmlns="http://www.w3.org/2000/svg" height="20" viewBox="0 -960 960 960" width="20"><path d="M444-403v119.072q0 15.269 10.289 25.599Q464.579-248 479.789-248 495-248 505.5-258.329q10.5-10.33 10.5-25.599V-403l33.429 33.429Q555-364 561.5-362t13.5 2.5q7 .5 14-1.75t12-6.75q11-10 10.5-25.5t-10.362-25.362L522-498q-8.1-8.455-18.483-13.227Q493.133-516 480.067-516q-13.067 0-23.517 4.773Q446.1-506.455 438-498l-79.138 79.138q-10.862 11.135-10.4 25.68.461 14.546 11.538 24.66Q371-358 386-359t24.723-10.723L444-403ZM275.717-62Q226-62 192-96.15T158-180v-600q0-49.7 34.15-83.85Q226.3-898 276-898h265q23.467 0 44.733 8.5Q607-881 625-863l142 142q18 18 26.5 39.267Q802-660.467 802-637v457q0 49.7-34.162 83.85Q733.676-62 683.96-62H275.717ZM516-671v-109H276v600h408v-432H575q-24.3 0-41.65-17.35Q516-646.7 516-671ZM276-780v168-168 600-600Z"/></svg>