<svg xmlns="http://www.w3.org/2000/svg" height="20" viewBox="0 -960 960 960" width="20"><path d="m480-457.461 106.615 106.615q5.616 5.615 11.27 4.731 5.654-.885 11.269-6.5 5.615-5.616 5.615-11.27t-5.615-11.269L502.539-480l106.615-106.615q5.615-5.616 5.615-11.27t-5.615-11.269q-5.615-5.615-11.269-5.615t-11.27 5.615L480-502.539 373.385-609.154q-5.616-5.615-10.385-5.615t-10.385 5.615Q347-603.539 347-597.885t5.615 11.27L457.461-480 351.846-374.385q-5.615 5.616-5.231 10.885.385 5.269 6 10.885 5.616 5.615 10.77 5.615t10.769-5.615L480-457.461ZM216-216v-528 528.769-.769Zm24.615 32q-24.315 0-40.465-16.15Q184-216.3 184-240.615v-478.77q0-24.315 16.15-40.465Q216.3-776 240.615-776h478.77q24.315 0 40.465 16.15Q776-743.7 776-719.385v295.462q-8.769.615-16.769 2.423-8 1.808-15.231 3.808v-301.693q0-9.23-7.692-16.923Q728.615-744 719.385-744h-478.77q-9.23 0-16.923 7.692Q216-728.615 216-719.385v478.77q0 9.23 7.692 16.923Q231.385-216 240.615-216h301.693q-2 7.231-3.808 15.231-1.808 8-2.423 16.769H240.615Zm583.077 8H660.407q-7.011 0-11.709-4.52Q644-185.04 644-191.789q0-6.75 4.698-11.48Q653.396-208 660.407-208h163.285l-64.077-66.615q-5.615-5.616-5.23-11.154.384-5.539 5.23-10.385 5.616-5.615 11.27-5.615t11.269 5.615l81.769 84.539q8.693 8.328 8.693 19.433t-8.693 19.797l-82.538 84.539q-5.616 5.615-11.654 4.846-6.039-.77-10.885-5.615-5.615-5.616-5.615-10.385t5.615-10.385L823.692-176Z"/></svg>