<svg xmlns="http://www.w3.org/2000/svg" height="20" viewBox="0 -960 960 960" width="20"><path d="m480-466 111 111q4 4 7 3t7-5q4-4 4-7t-4-7L494-480l111-111q4-4 4-7t-4-7q-4-4-7-4t-7 4L480-494 369-605q-4-4-6-4t-6 4q-4 4-4 7t4 7l109 111-110 110q-4 4-3.5 6.5t4.5 6.5q4 4 6.5 4t6.5-4l110-109ZM216-216v-528 529-1Zm32 20q-22.7 0-37.35-14.65Q196-225.3 196-248v-464q0-22.7 14.65-37.35Q225.3-764 248-764h464q22.7 0 37.35 14.65Q764-734.7 764-712v289q-6 2-11 4.5l-9 4.5v-298q0-12-10-22t-22-10H248q-12 0-22 10t-10 22v464q0 12 10 22t22 10h298l-4.5 9q-2.5 5-4.5 11H248Zm590 14H660.407q-4.473 0-7.44-2.789-2.967-2.79-2.967-7 0-4.211 2.967-7.211t7.44-3H838l-74-77q-4-4-3.5-7t3.5-6q4-4 7-4t7 4l79 82q8 7.636 8 17.818Q865-182 857-174l-80 82q-4 4-7.5 3t-6.5-4q-4-4-4-6t4-6l75-77Z"/></svg>