<svg xmlns="http://www.w3.org/2000/svg" height="24" viewBox="0 -960 960 960" width="24"><path d="M479.89-305.304q-72.108 0-123.347-51.349-51.239-51.349-51.239-123.457t51.349-123.347q51.349-51.239 123.457-51.239t123.347 51.349q51.239 51.349 51.239 123.457t-51.349 123.347q-51.349 51.239-123.457 51.239ZM100.782-100.782V-360h106.001v153.217H360v106.001H100.782Zm499.218 0v-106.001h153.217V-360h106.001v259.218H600ZM100.782-600v-259.218H360v106.001H206.783V-600H100.782Zm652.435 0v-153.217H600v-106.001h259.218V-600H753.217Z"/></svg>