<svg xmlns="http://www.w3.org/2000/svg" height="24" viewBox="0 -960 960 960" width="24"><path d="M366.304-498.304h227.392q17.956 0 24.935-16.24 6.978-16.239-5.848-29.065l-95.174-95.174Q501.652-654.74 480-654.74t-37.609 15.957l-95.174 95.174q-12.826 12.826-5.848 29.065 6.979 16.24 24.935 16.24ZM206.783-100.782q-44.305 0-75.153-30.848-30.848-30.848-30.848-75.153v-546.434q0-44.305 30.848-75.153 30.848-30.848 75.153-30.848h546.434q44.305 0 75.153 30.848 30.848 30.848 30.848 75.153v546.434q0 44.305-30.848 75.153-30.848 30.848-75.153 30.848H206.783Zm0-320.697h546.434v-331.738H206.783v331.738Z"/></svg>