<svg xmlns="http://www.w3.org/2000/svg" height="24" viewBox="0 -960 960 960" width="24"><path d="M478.804-240q21.957 0 37.294-15.337 15.337-15.337 15.337-37.293 0-21.957-15.337-37.174-15.337-15.218-37.294-15.218-21.956 0-37.174 15.218-15.217 15.217-15.217 37.174 0 21.956 15.217 37.293Q456.848-240 478.804-240Zm-38.391-154h78.783q0-34.565 7.761-52.163 7.76-17.598 34.478-43.837 32.608-32.609 47.228-56.348 14.62-23.739 14.62-54.935 0-54.434-36.598-86.815-36.598-32.38-96.642-32.38-56.195 0-95.173 28.793-38.979 28.794-54.457 77.033l71.022 27.674q7.239-25.565 27.043-42.783 19.805-17.217 47.326-17.217 25.087 0 41.533 13.782 16.445 13.783 16.445 35.87 0 16.283-10.88 34.685t-33.772 38.532q-34.195 30.435-46.456 56.457Q440.413-441.63 440.413-394ZM111.869-111.869v-736.262h736.262v736.262H111.869Z"/></svg>