<svg xmlns="http://www.w3.org/2000/svg" height="20" viewBox="0 -960 960 960" width="20"><path d="M478.804-264q19.957 0 33.794-14.337 13.837-14.337 13.837-34.293 0-19.957-13.837-33.174-13.837-13.218-33.794-13.218-19.956 0-34.174 13.218-14.217 13.217-14.217 33.174 0 19.956 14.217 34.293Q458.848-264 478.804-264Zm-35.391-137h70.783q0-33.565 5.761-47.663 5.76-14.098 31.478-37.337 19.608-18.609 35.228-41.348 15.62-22.739 15.62-55.935 0-53.434-36.598-83.315-36.598-29.88-86.642-29.88-49.195 0-81.673 28.793-32.479 28.794-44.957 65.033l64.022 26.674q6.239-16.565 20.043-35.283 13.805-18.717 42.326-18.717 29.087 0 41.533 15.282 12.445 15.283 12.445 33.37 0 20.283-14.88 36.685t-28.772 30.532q-32.195 31.435-38.956 49.457-6.761 18.022-6.761 63.652ZM135.869-135.869v-688.262h688.262v688.262H135.869Z"/></svg>