<svg xmlns="http://www.w3.org/2000/svg" height="20" viewBox="0 -960 960 960" width="20"><path d="m573-209 187-187q4-4 6.5-4.5t7.5 4.5q5 5 5 7.5t-5 7.5L591-197q-7.636 8-17.818 8-10.182 0-18.515-8.333L458-294q-4-4-4-7t5-8q5-5 7.5-5t7.5 5l99 100ZM362-395v-38h-86q-4.3 0-7.15-2.789-2.85-2.79-2.85-7 0-4.211 2.85-7.211t7.15-3h182v-124H302q-14.4 0-25.2-10.8Q266-598.6 266-613v-92q0-14.4 10.8-25.2Q287.6-741 302-741h60v-38q0-4.3 2.789-7.15 2.79-2.85 7-2.85 4.211 0 7.211 2.85t3 7.15v38h86q4.3 0 7.15 2.789 2.85 2.79 2.85 7 0 4.211-2.85 7.211t-7.15 3H286v124h156q14.4 0 25.2 10.8Q478-575.4 478-561v92q0 14.4-10.8 25.2Q456.4-433 442-433h-60v38q0 4.3-2.789 7.15-2.79 2.85-7 2.85-4.211 0-7.211-2.85t-3-7.15Z"/></svg>