<svg xmlns="http://www.w3.org/2000/svg" height="24" viewBox="0 -960 960 960" width="24"><path d="M442.826-449.304 293.609-300.652q-12.696 12.696-30.826 12.696-18.131 0-30.826-12.696-12.696-12.696-12.696-30.826 0-18.131 12.696-30.826L425.13-555.478 231.957-748.652q-12.696-12.696-12.696-30.826 0-18.131 12.696-30.826 12.695-12.696 31.109-12.979 18.413-.282 31.108 12.413l148.652 148.652-.565-215.346q0-24.218 16.522-39.109 16.522-14.892 37.044-14.892 9.696 0 19.239 3.848 9.544 3.848 17.805 12.109l150.52 150.521q7.696 7.696 11.609 17.522 3.913 9.826 3.913 20.087T695-707.391q-3.913 9.826-11.609 17.522l-134.39 134.391 134.39 134.391q7.696 7.696 11.609 17.522 3.913 9.826 3.913 20.087T695-363.391q-3.913 9.826-11.609 17.522l-150.52 150.521q-8.261 8.261-17.805 12.109-9.543 3.848-19.239 3.848-20.522 0-37.044-14.892-16.522-14.891-16.522-39.109l.565-215.912Zm88.479 129.086 65.825-63.26-65.825-65.826v129.086Zm0-342 65.825-65.26-65.825-63.826v129.086ZM311.521 0q-19.826 0-33.587-13.478-13.761-13.479-13.761-33.305t13.761-33.587q13.761-13.761 33.587-13.761 19.827 0 33.305 13.76 13.478 13.762 13.478 33.588t-13.478 33.305Q331.348 0 311.521 0Zm169.044 0q-19.826 0-33.587-13.478-13.761-13.479-13.761-33.305t13.761-33.587q13.761-13.761 33.587-13.761 19.826 0 33.305 13.76 13.478 13.762 13.478 33.588T513.87-13.478Q500.391 0 480.565 0Zm169.044 0q-19.826 0-33.304-13.478-13.479-13.479-13.479-33.305t13.479-33.587q13.478-13.761 33.304-13.761t33.305 13.76q13.478 13.762 13.478 33.588t-13.478 33.305Q669.435 0 649.609 0Z"/></svg>