<svg xmlns="http://www.w3.org/2000/svg" height="24" viewBox="0 -960 960 960" width="24"><path d="M460-511.692 270.154-321.846q-5.615 5.615-13.769 6-8.154.385-14.539-6T235.461-336q0-7.769 6.385-14.154L451.692-560 241.846-769.846q-5.615-5.615-6-13.769-.385-8.154 6-14.539T256-804.539q7.769 0 14.154 6.385L460-608.308v-266.231q0-14.923 10.077-23.73 10.077-8.808 22.231-8.808 5.692 0 11.538 2.231 5.846 2.23 11.077 7.461l142.769 142.77q5.231 5.23 7.347 10.692 2.115 5.461 2.115 11.923t-2.115 11.923q-2.116 5.462-7.347 10.692L508.308-560l149.384 149.385q5.231 5.23 7.347 10.692 2.115 5.461 2.115 11.923t-2.115 11.923q-2.116 5.462-7.347 10.692l-142.769 142.77q-5.231 5.231-11.077 7.461-5.846 2.231-11.538 2.231-12.154 0-22.231-8.808Q460-230.538 460-245.461v-266.231Zm40 246.922L623.692-388 500-511.692v246.922Zm0-343.538L623.692-732 500-855.23v246.922ZM320-9.231q-12.385 0-21.577-9.192-9.192-9.192-9.192-21.577 0-12.385 9.192-21.577 9.192-9.192 21.577-9.192 12.385 0 21.577 9.192 9.192 9.192 9.192 21.577 0 12.385-9.192 21.577Q332.385-9.231 320-9.231Zm160 0q-12.385 0-21.577-9.192-9.192-9.192-9.192-21.577 0-12.385 9.192-21.577 9.192-9.192 21.577-9.192 12.385 0 21.577 9.192 9.192 9.192 9.192 21.577 0 12.385-9.192 21.577Q492.385-9.231 480-9.231Zm160 0q-12.385 0-21.577-9.192-9.192-9.192-9.192-21.577 0-12.385 9.192-21.577 9.192-9.192 21.577-9.192 12.385 0 21.577 9.192 9.192 9.192 9.192 21.577 0 12.385-9.192 21.577Q652.385-9.231 640-9.231Z"/></svg>