<svg xmlns="http://www.w3.org/2000/svg" height="24" viewBox="0 -960 960 960" width="24"><path d="M684.738-291.521V-220q0 11.391 8.544 19.935 8.544 8.544 19.935 8.544 11.392 0 19.935-8.544 8.544-8.544 8.544-19.935v-71.521h71.521q11.392 0 19.935-8.544 8.544-8.544 8.544-19.935 0-11.391-8.544-19.935-8.543-8.544-19.935-8.544h-71.521V-420q0-11.391-8.544-19.935-8.543-8.544-19.935-8.544-11.391 0-19.935 8.544-8.544 8.544-8.544 19.935v71.521h-71.521q-11.391 0-19.935 8.544-8.544 8.544-8.544 19.935 0 11.391 8.544 19.935 8.544 8.544 19.935 8.544h71.521ZM713.217-120q-83 0-141.5-58.5t-58.5-141.5q0-83 58.5-141.5t141.5-58.5q83 0 141.5 58.5t58.5 141.5q0 83-58.5 141.5t-141.5 58.5ZM140.782-286.783v-349.826q0-25.079 11.043-47.518 11.044-22.439 31.131-37.396l233.217-174.912q28.348-21.653 63.827-21.653t63.827 21.653l233.217 174.912q20.087 14.957 31.131 37.396 11.043 22.439 11.043 47.518v58.783q-25.087-11.087-51.87-16.63Q740.565-600 713.217-600q-117 0-198.5 81.5t-81.5 198.5q0 37.652 9.326 72.457 9.327 34.805 28.414 66.761H246.783q-44.305 0-75.153-30.848-30.848-30.848-30.848-75.153Z"/></svg>