<svg xmlns="http://www.w3.org/2000/svg" height="20" viewBox="0 -960 960 960" width="20"><path d="M669-297v33q0 15.6 11.7 27.3Q692.4-225 708-225q15.6 0 27.3-11.7Q747-248.4 747-264v-33h33q15.6 0 27.3-11.7Q819-320.4 819-336q0-15.6-11.7-27.3Q795.6-375 780-375h-33v-33q0-15.6-11.7-27.3Q723.6-447 708-447q-15.6 0-27.3 11.7Q669-423.6 669-408v33h-33q-15.6 0-27.3 11.7Q597-351.6 597-336q0 15.6 11.7 27.3Q620.4-297 636-297h33Zm38.774 153Q628-144 572-200.226t-56-136Q516-416 572.226-472t136-56Q788-528 844-471.774t56 136Q900-256 843.774-200t-136 56ZM158-324v-330q0-27.604 12-52.302T205-749l204-153q33-24 71-24t71 24l204 153q23 18 35 42.698T802-654v77q-21-11.5-45-17.25T708-600q-110.314 0-187.157 76.843Q444-446.314 444-336q0 35.391 9.5 67.696Q463-236 481-206H276.462Q226-206 192-240.15T158-324Z"/></svg>