<svg xmlns="http://www.w3.org/2000/svg" height="20" viewBox="0 -960 960 960" width="20"><path d="M702-318v54q0 7.2 5.4 12.6 5.4 5.4 12.6 5.4 7.2 0 12.6-5.4 5.4-5.4 5.4-12.6v-54h54q7.2 0 12.6-5.4 5.4-5.4 5.4-12.6 0-7.2-5.4-12.6-5.4-5.4-12.6-5.4h-54v-54q0-7.2-5.4-12.6-5.4-5.4-12.6-5.4-7.2 0-12.6 5.4-5.4 5.4-5.4 12.6v54h-54q-7.2 0-12.6 5.4-5.4 5.4-5.4 12.6 0 7.2 5.4 12.6 5.4 5.4 12.6 5.4h54Zm17.774 122Q661-196 620.5-236.726t-40.5-99.5Q580-395 620.726-435.5t99.5-40.5Q779-476 819.5-435.274t40.5 99.5Q860-277 819.274-236.5t-99.5 40.5ZM244-344v-300q0-12.099 5.375-22.925Q254.75-677.75 265-686l184-140q7.295-6 15.344-8t15.853-2q7.803 0 15.717 2 7.915 2 15.086 8l184 140q10.25 8.25 15.625 19.075Q716-656.099 716-644v50q-4 1-10.385 3.5-6.386 2.5-9.615 4.5v-58q0-8-3.5-14.5T683-670L499-809q-8-7-19-7t-19 7L277-670q-6 5-9.5 11.5T264-644v300q0 14 9 23t23 9h173q-.25 5.284-.75 10.317T468-292H296.462q-22.212 0-37.337-15.275Q244-322.55 244-344Zm236-221Z"/></svg>