<svg xmlns="http://www.w3.org/2000/svg" height="20" viewBox="0 -960 960 960" width="20"><path d="M586.523-483.521 283.826-787.218h460.078q35.531 0 45.619 20.957 10.087 20.957-11.827 48.566L586.523-483.521Zm-39.305 175.566V-216q0 17.548-12.818 30.383t-30.342 12.835h-47.883q-17.523 0-30.458-12.835-12.935-12.835-12.935-30.383v-226.392L93.554-761.62q-12.73-12.729-12.73-29.091 0-16.363 12.697-28.16 11.797-12.13 28.159-12.13 16.363 0 28.588 12.225L818.21-150.834q12.226 12.226 12.509 27.922.282 15.696-11.848 28.304-12.131 12.218-28.609 11.935-16.478-.282-28.609-12.413L547.218-307.955Z"/></svg>