<svg xmlns="http://www.w3.org/2000/svg" height="24" viewBox="0 -960 960 960" width="24"><path d="M480.769-20.002q-89.769 0-169.807-31.96-80.038-31.962-142.038-88.577-62-56.616-101.461-133.462Q28.002-350.846 20.002-440H80q8 73.923 40.039 137.769 32.038 63.847 82.654 111.847 50.615 48 116.115 76.73 65.501 28.731 139.808 32.423l-69.692-69.693 42.152-42.152 159.23 159.229q-27.077 7.923-54.461 10.884Q508.461-20 480.769-20ZM600-220v-80H300.001V-600h-80v-59.999h80v-80H360V-360h400v59.999H659.999v80H600Zm0-199.998V-600H419.999v-59.999h240v240H600ZM880-520q-7.385-73.923-39.731-137.769-32.346-63.847-82.962-111.847-50.615-48-116.115-76.73-65.501-28.731-139.808-32.423l69.692 69.693-42.152 42.152-159.23-159.229q27.077-7.923 54.461-10.884 27.384-2.962 55.076-2.962 89.769 0 169.807 31.962 80.038 31.961 142.038 88.576 62 56.616 101.461 133.462Q931.999-609.154 939.999-520H880Z"/></svg>