<svg xmlns="http://www.w3.org/2000/svg" height="20" viewBox="0 -960 960 960" width="20"><path d="M477.283 0q-92.761 0-175.761-33.62t-146.881-92Q90.761-184 49.881-262.5 9-341 0-432h79.413q8.522 69.13 39.326 130.478 30.805 61.348 79.033 108.152Q246-146.565 308.25-117.185q62.25 29.38 132.141 35.576l-61.978-62.978 52.391-53.631L611.065-19.196Q572.109-7.717 537.913-3.859 503.717 0 477.283 0Zm119.13-192v-96H288v-308.413h-96V-672h96v-96h75.587v404.413H768V-288h-96v96h-75.587Zm0-240v-164.413H432V-672h240v240h-75.587Zm284.174-96q-8.761-69.13-39.326-130.478-30.565-61.348-78.913-108.152Q714-813.435 652.25-842.815q-61.75-29.38-132.641-35.576l61.978 62.978-52.391 53.631-180.261-179.022q38.956-11.479 73.152-15.337Q456.283-960 482.717-960q92.761 0 175.761 33.62 83 33.619 146.881 92Q869.239-776 910.12-697.5 951-619 960-528h-79.413Z"/></svg>