<svg xmlns="http://www.w3.org/2000/svg" height="20" viewBox="0 -960 960 960" width="20"><path d="M428-335.692q0-11.923 8.192-20.116Q444.385-364 456.308-364h47.384q11.923 0 20.116 8.192Q532-347.615 532-335.692v151.308q0 9.769 7.885 13.5 7.884 3.73 15.884-.27 70.77-39.538 117.923-106Q720.846-343.615 743-425.692L495.385-597.846q-6.924-5.385-15.385-5.385-8.461 0-15.385 5.385L217-425.692q22.154 81.077 69.192 147.923 47.039 66.846 116.039 106.385 9 5 17.384 0 8.385-5 8.385-15.77v-148.538ZM208-677.308V-502q0 10.231 1.384 20.808 1.385 10.577 1.847 21.577l237-164.924q15.154-10.923 31.769-10.923t31.769 10.923l237 164.924q.462-11 1.847-21.577Q752-491.769 752-502v-175.308q0-18.384-9.807-32.923-9.808-14.538-26.193-21l-215.385-82q-10.692-4.231-20.615-4.231-9.923 0-20.615 4.231l-215.385 82q-16.385 6.462-26.193 21Q208-695.692 208-677.308Z"/></svg>