<svg xmlns="http://www.w3.org/2000/svg" height="20" viewBox="0 -960 960 960" width="20"><path d="M480-617 244-449q17 84 67.5 154T434-189v-143q0-11.3 7.325-18.65 7.325-7.35 18.587-7.35h39.825q11.263 0 18.763 7.35Q526-343.3 526-332v143q72-36 122.5-106T716-449L480-617Zm-240-56-1 172q0 7 .5 15.5T242-470l238-169 238 169q2-7 2.5-15.5t.5-15.5l-1-172q0-10-5.5-18T699-703l-208-79q-5-2-11-2t-11 2l-208 79q-10 4-15.5 12t-5.5 18Zm240 518q-4 0-10-.5t-10-2.5q-109-43-174.5-141T220-515v-157q0-16.692 9-30.346T253-722l208-79q10-4 19-4t19 4l208 79q15 6 24 19.654T740-672v157q0 118-65.5 216T500-158q-4 2-10 2.5t-10 .5Z"/></svg>