<svg xmlns="http://www.w3.org/2000/svg" height="24" viewBox="0 -960 960 960" width="24"><path d="M420-307.692q0-13.923 9.192-23.116Q438.385-340 452.308-340h55.384q13.923 0 23.116 9.192Q540-321.615 540-307.692v136.308q0 8.769 7.385 13 7.384 4.23 15.384.23 68.77-39.538 113.923-102.5Q721.846-323.615 742-400.692L495.385-592.846q-6.924-5.385-15.385-5.385-8.461 0-15.385 5.385L218-400.692q20.154 76.077 65.192 138.923 45.039 62.846 112.039 102.385 8 5 16.384 0 8.385-5 8.385-14.77v-133.538ZM200-687.308V-516q0 17.231 1.884 37.308 1.885 20.077 4.347 37.077l234-181.924q18.154-13.923 39.769-13.923t39.769 13.923l234 181.924q2.462-17 4.347-37.077Q760-498.769 760-516v-171.308q0-20.384-11.807-36.923-11.808-16.538-30.193-24l-215.385-80q-11.692-4.231-22.615-4.231-10.923 0-22.615 4.231l-215.385 80q-18.385 7.462-30.193 24Q200-707.692 200-687.308Z"/></svg>