<svg xmlns="http://www.w3.org/2000/svg" height="20" viewBox="0 -960 960 960" width="20"><path d="M483.587-112.587q-91.674 0-161.109-57.598-69.435-57.597-82.587-146.793-74.869-14.718-123.88-72.272Q67-446.804 67-523.913q0-86.631 60.413-146.544 60.413-59.913 147.043-59.913h99q7.761 0 13.403-4.641 5.641-4.641 5.641-12.402 0-7.761-5.641-12.402-5.642-4.642-13.403-4.642H268.913v-93.087h106.543q45.348 0 77.74 32.392 32.391 32.391 32.391 77.739 0 45.348-31.891 77.859-31.892 32.511-77.24 32.511h-100q-47.804 0-82.086 32.782-34.283 32.783-34.283 79.826 0 38.044 22.5 69.207 22.5 31.163 59.783 42.924 16.478-84.044 81.521-137.305 65.044-53.261 150.087-53.261 19.478 0 39.196 2.859 19.717 2.859 37.956 9.337-50.282 21.196-80.706 66.935Q440-478 440-423.239q0 35.326 10.924 68.772 10.924 33.445 37.772 56.445l31.065-27q-18.848-18.522-27.511-43.206-8.663-24.685-8.663-52.011 0-59.718 41.478-100.815 41.479-41.098 101.196-41.098 58.957 0 100.054 41.098 41.098 41.097 41.098 99.054 0 23.957-8.478 46.413-8.478 22.457-24.196 40.174l116.783 109.891q11.478 11.479 19.717 25.576 8.239 14.098 8.239 30.576 0 25.153-20.935 40.968-20.934 15.815-48.847 15.815H483.587Zm194.5-82.391q18.435 0 31.13-12.696 12.696-12.696 12.696-31.13 0-18.435-12.696-31.011-12.695-12.576-31.13-12.576t-31.011 12.576Q634.5-257.239 634.5-238.804q0 18.434 12.576 31.13 12.576 12.696 31.011 12.696Z"/></svg>