<svg xmlns="http://www.w3.org/2000/svg" height="24" viewBox="0 -960 960 960" width="24"><path d="M162.308-140q-10.308 0-13.923-10.192-3.616-10.193-1.385-21.731 16.538-101.923 36.038-184.731 19.5-82.808 41.693-141.115 22.192-58.308 46.577-90.27Q295.692-620 320-620q40.769 0 79.385 85.846 38.615 85.846 70 238.692 12.23-128.154 29.346-226 17.115-97.846 38.731-164.154 21.615-66.307 47.346-100.346Q610.538-820 640-820q34.077 0 63.115 43.538 29.039 43.539 51.347 125.923 22.307 82.385 38.423 201.27Q809-330.385 817-180.461q1 15.384-2.846 27.923Q810.308-140 797.692-140q-10.077 0-17.423-6.385-7.346-6.384-10.038-16.461Q747.692-247 708.423-313.5T640-380q-28.385 0-67.154 63.846-38.769 63.846-62.077 149.539-2.692 11.077-10.807 18.846Q491.846-140 480.769-140q-11.846 0-18.692-9.269t-8.846-22.116q-12.077-78.307-29.039-150.153-16.961-71.846-35.538-127.808-18.577-55.961-36.5-90.885-17.923-34.923-32.154-38.615-15 3.692-32.923 39-17.923 35.308-36.5 91.654t-35.538 129.346q-16.962 73-29.039 152.077-2 10.538-7.692 18.654-5.693 8.115-16 8.115Zm345.385-129.231q29.923-72.308 64.538-111.539Q606.846-420 640-420q32.923 0 68.038 39.73 35.116 39.731 64.269 111.039-18-220.462-54.615-362.731T640-779.538q-40.308 5.307-77.308 148.307-36.999 143-54.999 362Z"/></svg>