<svg xmlns="http://www.w3.org/2000/svg" height="20" viewBox="0 -960 960 960" width="20"><path d="M182.308-164q-7.308 0-10.923-5.192-3.616-5.193-2.385-12.731 7.538-40.923 21.038-112.231 13.5-71.308 33.693-139.615 20.192-68.308 46.577-119.27Q296.692-604 330-604q46.769 0 79.885 93.346 33.115 93.346 61.5 220.192 8.23-96.154 21.73-187t32.616-161.154q19.115-70.307 45.346-113.846Q597.308-796 630-796q46.077 0 76.615 74.538 30.539 74.539 48.347 174.423 17.807 99.885 26.923 200.77Q791-245.385 794-193.461q1 11.384-2.346 20.423Q788.308-164 777.692-164q-9.077 0-14.423-4.885-5.346-4.884-8.038-12.961Q735.692-253 698.423-316.5T630-380q-30.385 0-67.154 60.346-36.769 60.346-57.077 133.039-2.692 9.077-8.807 15.846Q490.846-164 480.769-164q-10.846 0-15.692-8.269t-6.846-19.116q-13.077-80.307-30.039-150.153-16.961-69.846-35.038-121.308-18.077-51.461-35-80.885-16.923-29.423-28.154-29.115-13-.308-29.923 29.5t-34.5 81.654Q248-409.846 231.039-338.846q-16.962 71-30.039 152.077-2 8.538-5.692 15.654-3.693 7.115-13 7.115Zm317.385-96.231q26.923-70.077 61.038-110.923Q594.846-412 630-412t69.654 41.23q34.5 41.231 60.653 110.539-17-217.462-54.115-358.731T630-763.538q-38.308 3.307-75.808 144.961-37.499 141.654-54.499 358.346Z"/></svg>