<svg xmlns="http://www.w3.org/2000/svg" height="24" viewBox="0 -960 960 960" width="24"><path d="M204-560q12.461-86.077 80.731-143.039Q353-760 440-760q82.077 0 129.731 38.269 47.654 38.269 70.269 71.884V-760h40v200H480v-40h141.538q-19.769-42.923-64.884-81.462Q511.538-720 440-720q-72 0-127 45.5T244-560h-40Zm580 413.846L594.154-336q-33.692 28.539-72.346 42.269Q483.154-280 440-280q-59 0-113.962-29.038-54.961-29.039-86.038-81.115V-280h-40v-200h200v40H258.462q22.077 52.154 71.038 86.077Q378.462-320 440-320q72 0 127-45.5T636-480h40q-5 36-18 62.115-13 26.116-35.538 53.577l189.846 189.846L784-146.154Z"/></svg>