<svg xmlns="http://www.w3.org/2000/svg" height="24" viewBox="0 -960 960 960" width="24"><path d="M166.783-140.782q-44.305 0-75.153-30.848-30.848-30.848-30.848-75.153v-466.434q0-44.305 30.848-75.153 30.848-30.848 75.153-30.848h626.434q44.305 0 75.153 30.848 30.848 30.848 30.848 75.153v466.434q0 44.305-30.848 75.153-30.848 30.848-75.153 30.848H166.783ZM520-246.783h96.609v-466.434H520v466.434Zm-176.609 0H440v-466.434h-96.609v466.434Zm-176.608 0h96.608v-466.434h-96.608v466.434Zm529.826 0h96.608v-466.434h-96.608v466.434Z"/></svg>