<svg xmlns="http://www.w3.org/2000/svg" height="20" viewBox="0 -960 960 960" width="20"><path d="m643.231-182.08-8.923-49.076q-16.308-4.231-30.923-12.577-14.616-8.346-26-19.654l-47.692 16.615-20.461-35.383 36.384-33.846q-6.307-15.538-5.807-33.615.5-18.078 5.807-33.616l-35.999-33.615 20.461-36.383 46.307 16q11-12.308 26.308-20.962 15.307-8.654 31.615-11.885l9.923-49.076h40.921l9.539 49.076q16.308 4.231 31.615 12.193 15.308 7.961 26.308 19.884l46.307-14.23 20.461 34.614-35 32.615q4.308 17.307 4.308 35 0 17.692-5.308 34l36.385 32.846-20.461 35.383-47.692-15.615q-11.384 11.308-26 20.154-14.615 8.846-30.923 12.077l-10.539 49.076h-40.921Zm-527.23-37.614v-68.922q0-23.307 10.962-40.384 10.961-17.076 30.653-28.538 53.847-30.846 108.692-46.5Q321.154-419.691 384-419.691q9.461 0 18.192.5t18.962.73q-16.231 41.153-10.577 100.922 5.654 59.769 29.653 97.845H116.001Zm548.306-62.769q28.462 0 48.308-19.846t19.846-48.307q0-28.462-19.846-48.308t-48.308-19.846q-28.461 0-48.307 19.846-19.846 19.846-19.846 48.308 0 28.461 19.846 48.307 19.846 19.846 48.307 19.846ZM384-492.309q-51.922 0-87.961-36.038-36.038-36.038-36.038-87.96 0-51.923 36.038-87.961 36.039-36.038 87.961-36.038t87.961 36.038q36.038 36.038 36.038 87.961 0 51.922-36.038 87.96-36.039 36.038-87.961 36.038Z"/></svg>