<svg xmlns="http://www.w3.org/2000/svg" height="24" viewBox="0 -960 960 960" width="24"><path d="M212-280v-360q0-66 71-86t181-22l30-60H298q-6.067 0-10.033-3.953-3.967-3.954-3.967-10Q284-828 287.967-832q3.966-4 10.033-4h364q6.067 0 10.033 3.953 3.967 3.954 3.967 10Q676-816 672.033-812q-3.966 4-10.033 4H526l-30 60q110 2 181 21.917T748-640v360q0 45-31.5 76.5T640-172l56 56q7 7 3.327 15.5-3.674 8.5-13.47 8.5-2.857 0-5.385-1-2.528-1-4.472-3l-76-76H360l-76 76q-2.083 2-4.792 3-2.708 1-5.625 1-9.583 0-13.083-8.5T264-116l56-56q-45 0-76.5-31.5T212-280Zm268.235 20Q497-260 508.5-271.735q11.5-11.736 11.5-28.5Q520-317 508.265-328.5q-11.736-11.5-28.5-11.5Q463-340 451.5-328.265q-11.5 11.736-11.5 28.5Q440-283 451.735-271.5q11.736 11.5 28.5 11.5ZM240-428h480v-196H240v196Z"/></svg>