<svg xmlns="http://www.w3.org/2000/svg" height="20" viewBox="0 -960 960 960" width="20"><path d="M232-279.385V-624q0-43.154 50.231-73.962 50.23-30.807 193.23-30.038l24-48H302.769q-5.015 0-8.354-3.339-3.338-3.338-3.338-8.354 0-5.015 3.338-8.354 3.339-3.338 8.354-3.338h354.462q5.015 0 8.354 3.338 3.338 3.339 3.338 8.354 0 5.016-3.338 8.354-3.339 3.339-8.354 3.339H516.539l-24 48q138.077-.769 186.769 30.923Q728-665.385 728-624v344.615q0 43.231-28.077 76.308Q671.846-170 629.615-162l40.693 40.692q9.307 9.591 4.538 21.45Q670.077-88 656.846-88q-4.923 0-8.346-1.596t-6.116-4.788L576.769-160H383.231l-65.615 65.616q-2.693 3.192-6.116 4.788Q308.077-88 303.154-88q-14 0-18.385-12.5-4.384-12.5 4.923-21.808L329.385-162q-42.231-8-69.808-41.077Q232-236.154 232-279.385ZM625.329-384H264h432H625.329ZM480-255.385q13.846 0 23.231-9.384 9.384-9.385 9.384-23.231 0-13.846-9.384-23.231-9.385-9.384-23.231-9.384-13.846 0-23.231 9.384-9.384 9.385-9.384 23.231 0 13.846 9.384 23.231 9.385 9.384 23.231 9.384Zm-.782-371.077h223.551-446.077 222.526ZM264-416h432v-178.461H264V-416Zm87.385 224h257.23Q644-192 670-218t26-61.385V-384H264v104.615Q264-244 290-218t61.385 26Zm130.153-504q-82 0-142.576 11.038-60.577 11.039-82.27 58.5h446.077q-22.692-44.153-73.231-56.846Q579-696 481.538-696Z"/></svg>