<svg xmlns="http://www.w3.org/2000/svg" height="20" viewBox="0 -960 960 960" width="20"><path d="M570.605-506.001 180.043-647.348q-17.317-6.225-25.267-22.787-7.951-16.561-1.74-33.904 6.211-17.342 22.739-25.304 16.529-7.963 33.92-1.832l550.392 199.696q44.609 15.478 65.523 46.411 20.913 30.933 20.913 69.069V-264q0 41.005-28.498 69.503-28.498 28.498-69.503 28.498H211.478q-41.005 0-69.503-28.524-28.498-28.524-28.498-69.565v-144.176q0-41.041 28.498-69.389t69.503-28.348h359.127ZM439.438-300h224.801q15.283 0 25.783-10.289 10.5-10.29 10.5-25.5 0-15.211-10.338-25.711-10.339-10.5-25.622-10.5H439.761q-15.283 0-25.783 10.289-10.5 10.29-10.5 25.5 0 15.211 10.338 25.711 10.339 10.5 25.622 10.5Zm-144.17 0q15.21 0 25.71-10.289 10.5-10.29 10.5-25.5 0-15.211-10.289-25.711-10.29-10.5-25.5-10.5-15.211 0-25.711 10.289-10.5 10.29-10.5 25.5 0 15.211 10.29 25.711 10.289 10.5 25.5 10.5Z"/></svg>