<svg xmlns="http://www.w3.org/2000/svg" height="20" viewBox="0 -960 960 960" width="20"><path d="M659-428 241-580q-3.333-.833-5.167-3.917Q234-587 235-590t4.5-5.5q3.5-2.5 6.5-1.5l460 165q34 11 46 34.062 12 23.063 12 47.938v54q0 22.7-14.65 37.35Q734.7-244 712-244H248q-22.7 0-37.35-14.676Q196-273.352 196-296.088v-80.176Q196-399 210.65-413.5 225.3-428 248-428h411ZM425.96-326h233.757q4.233 0 7.258-2.825 3.025-2.824 3.025-7 0-4.175-2.863-7.175-2.864-3-7.097-3H426.283q-4.233 0-7.258 2.825-3.025 2.824-3.025 7 0 4.175 2.863 7.175 2.864 3 7.097 3Zm-126.1 14q10.14 0 17.14-6.86 7-6.859 7-17 0-10.14-6.86-17.14-6.859-7-17-7-10.14 0-17.14 6.86-7 6.859-7 17 0 10.14 6.86 17.14 6.859 7 17 7Z"/></svg>