<svg xmlns="http://www.w3.org/2000/svg" height="20" viewBox="0 -960 960 960" width="20"><path d="M135.869-566.435v-244.543h75.587v115.565q46.957-59.239 116.533-93.978 69.576-34.74 152.011-34.74 120.978 0 212.565 72.881Q784.152-678.37 813-566.435h-86.283q-27.087-76.391-93.684-125.543Q566.435-741.13 480-741.13q-62.957 0-116.435 26.456-53.478 26.457-89.239 72.652h106.326v75.587H135.869ZM259.935-237.13h440.13L552-436.783l-108 144-72-96L259.935-237.13ZM135.869-87.87v-389.26h83.001v306.26h522.26v-306.26h83.001v389.26H135.869Z"/></svg>