<svg xmlns="http://www.w3.org/2000/svg" height="24" viewBox="0 -960 960 960" width="24"><path d="M111.869-590.435v-244.543h83.587v121.565q50.957-62.239 124.533-98.478 73.576-36.24 160.011-36.24 123.978 0 220.065 72.381Q796.152-703.37 831-590.435h-97.283q-32.087-74.391-99.684-120.543Q566.435-757.13 480-757.13q-57.957 0-108.935 21.956-50.978 21.957-88.739 61.152h74.326v83.587H111.869ZM235.935-237.13h488.13L570-444.783l-120 160-90-120L235.935-237.13ZM111.869-71.87v-405.26h91.001v314.26h554.26v-314.26h91.001v405.26H111.869Z"/></svg>