<svg xmlns="http://www.w3.org/2000/svg" height="24" viewBox="0 -960 960 960" width="24"><path d="M100.782-577.39v-250.74h88.478v104.607q52.261-62.565 127.305-99.13Q391.609-859.218 480-859.218q132.131 0 233.11 79.718 100.979 79.718 132.891 202.11H734.696q-29.478-77.653-97.891-126.74Q568.391-753.217 480-753.217q-59.261 0-110.891 23.261-51.631 23.261-89.066 64.087h72.044v88.479H100.782Zm129.609 344.173h499.218L570-451.305l-120 160-90-120-129.609 178.088ZM100.782-60.782v-412.435h106.001v306.434h546.434v-306.434h106.001v412.435H100.782Z"/></svg>