<svg xmlns="http://www.w3.org/2000/svg" height="24" viewBox="0 -960 960 960" width="24"><path d="M792.826-41.304 669.827-165.172q-5.435 15.739-8.022 31.195-2.587 15.456-2.587 33.195h-97.522q0-36 8.782-72.543 8.783-36.544 25.783-66.544l-51.782-51.782q-25.87 42.565-40.087 90.217-14.218 47.652-14.218 100.652h-96.957q0-69 20-136.739t60.261-124.566L362.087-473.478q-55.131 37.13-122.588 58.696-67.456 21.565-138.717 21.565v-96.957q51.869 0 100.369-13.935t90.5-40.37l-51.782-51.782q-30 17-65.979 25.783-35.978 8.782-73.108 8.782v-97.522q17.739 0 33.543-2.87 15.804-2.869 30.543-7.739L41.304-794.826l62.217-61.653 752.958 752.958-63.653 62.217Zm-6.173-245.478-73.87-72.435q30-18.696 68.522-28.892 38.522-10.195 77.913-10.195v97.522q-20.565 0-38.63 3.566-18.065 3.565-33.935 10.434ZM661.566-410.999l-70.436-70.436q57.392-41.956 126.544-63.652 69.153-21.696 141.544-21.696v96.957q-53.565 0-104.891 15.348-51.326 15.348-92.761 43.479ZM481.435-592.565l-69.87-69.87q26.434-40.435 42.347-90.979 15.914-50.543 15.914-105.804h96.957q0 76.913-23.392 145.283-23.391 68.37-61.956 121.37ZM359.782-714.218l-73-72.435q6-15.304 10-33.935 4-18.63 4-38.63h97.522q0 39.391-9.913 77.413t-28.609 67.587Z"/></svg>