<svg xmlns="http://www.w3.org/2000/svg" height="20" viewBox="0 -960 960 960" width="20"><path d="M518.304-76.782q-82.956 0-156.348-31.413-73.391-31.413-128.718-86.739-55.326-55.326-86.739-128.718Q115.086-397.043 115.086-480q0-83.957 31.913-156.848 31.913-72.892 87.239-128.218 55.327-55.326 128.718-86.739 73.392-31.413 157.348-31.413 86.826 0 162.37 33.782 75.544 33.783 130.587 91.913 55.044 58.131 84.305 134.761 29.261 76.631 22.957 163.457-33.696-36.565-78.609-58.565t-94.609-22q-18 0-35.217 2.717-17.218 2.718-34.218 8.152-10.826-35.304-37.87-58.239-27.043-22.934-62.609-22.934-49.521 0-78.413 38.174-28.891 38.174-28.891 92 0 36 14.065 66.978 14.065 30.979 38.63 47.24-5 13.434-6.152 27.869-1.152 14.435-1.152 29.304 0 68.088 36.326 124.544 36.326 56.457 97.848 84.588-30.13 13.695-63.608 18.195-33.479 4.5-67.74 4.5Zm26.131-344.131q-7.609-11-11.913-25.674T528.218-480q0-27.391 11-51.5t38.173-24.109q20.479 0 31.979 14.631 11.5 14.63 15.63 36.065-26 15.565-46 36.782-20 21.218-34.565 47.218Zm202.87 246.13q-56.043 0-94.935-38.891-38.891-38.891-38.891-94.935 0-56.043 38.891-94.651 38.892-38.609 94.935-38.609t94.934 38.609q38.891 38.608 38.891 94.651 0 56.044-38.891 94.935-38.891 38.891-94.934 38.891ZM276.738-354.826H445.13v-52.565h-86.217l-.434-1.435q12.651-12.652 25.304-24.804 12.652-12.152 22.347-21.848 18-19.131 27.783-37.131 9.783-18 9.783-39.261 0-32.652-23.326-55.478-23.327-22.826-60.457-22.826-40.131 0-60.587 22.413-20.457 22.413-26.283 40.196l51.435 20.522q1.565-6.522 9.696-17.827 8.13-11.304 24.739-11.304 17.347 0 22.413 9.674 5.065 9.674 5.065 15.5 0 10.826-5.826 21.87-5.827 11.043-23.653 28.609-10.13 10.565-32.652 31.673-22.522 21.109-47.522 44.978v49.044Z"/></svg>