<svg xmlns="http://www.w3.org/2000/svg" height="20" viewBox="0 -960 960 960" width="20"><path d="M478.304-174.783q11.056 0 21.23-.516 10.174-.515 20.596-2.223-22.609-27.869-33.63-61.832-11.022-33.962-11.022-69.255 0-23.147 4.152-44.943t13.152-41.23q-11.565-18.261-17.13-40.24Q470.087-457 470.087-480q0-53.826 28.891-92 28.892-38.174 78.413-38.174 33.566 0 59.609 19.934 26.044 19.935 38.87 51.239 8-1.434 15.572-1.152 7.572.283 15.863.283 19.234 0 37.356 4.935 18.121 4.934 35.034 14.673-7.696-56.043-33.696-104.869t-66.448-84.434q-40.449-35.609-91.43-55.63-50.982-20.022-108.247-20.022-63.439 0-119.026 23.935-55.587 23.934-97.739 65.087-42.152 41.152-66.087 96.829-23.935 55.677-23.935 118.956 0 63.28 23.81 118.984 23.81 55.705 65.374 97.33 41.565 41.625 97.189 65.469 55.625 23.844 118.844 23.844Zm47.131-279.13q19.565-23 43.065-40.218 23.5-17.217 52.5-28.782-6.13-16.435-17.13-24.565-11-8.131-26.479-8.131-27.173 0-38.173 24.109-11 24.109-11 51.5 0 6.739-.696 12.413t-2.087 13.674ZM706.839-76.782q-30.23 0-54.426-5-24.195-5-43.326-17.13-27.13 12.13-59.326 17.13-32.196 5-71.457 5-83.332 0-156.536-31.413-73.203-31.413-128.53-86.739-55.326-55.326-86.739-128.676-31.413-73.35-31.413-156.848 0-83.499 31.413-156.39 31.413-72.892 86.739-128.218 55.327-55.326 128.53-86.739 73.204-31.413 156.536-31.413 87.826 0 163.37 33.782 75.544 33.783 130.587 91.913 55.044 58.131 84.805 134.761 29.761 76.631 23.457 163.457 27.956 31.696 43.283 70.935 15.326 39.24 15.326 79.761 0 96.545-67.777 164.186-67.776 67.641-164.516 67.641Zm.708-98.001q55.801 0 94.692-39.134 38.891-39.133 38.891-94.934 0-55.801-39.133-94.409-39.134-38.609-94.935-38.609-55.8 0-94.692 38.851-38.891 38.851-38.891 94.652t39.134 94.692q39.134 38.891 94.934 38.891ZM276.738-354.826v-49.044q25-23.869 47.522-44.978 22.522-21.108 32.652-31.673 17.826-17.566 23.653-28.609 5.826-11.044 5.826-21.87 0-5.826-5.065-15.5-5.066-9.674-22.413-9.674-16.609 0-24.739 11.304-8.131 11.305-9.696 17.827l-51.435-20.522q5.826-17.783 26.283-40.196 20.456-22.413 60.587-22.413 37.13 0 60.457 22.826 23.326 22.826 23.326 55.478 0 21.261-9.783 39.261-9.783 18-27.783 37.131-9.695 9.696-22.347 21.848-12.653 12.152-25.304 24.804l.434 1.435h86.217v52.565H276.738Z"/></svg>