<svg xmlns="http://www.w3.org/2000/svg" height="24" viewBox="0 -960 960 960" width="24"><path d="M574-618.769q-12-30-35.5-47t-56.5-17q-18 0-38.077 6.538-20.077 6.539-34.077 22.846l-28.769-28.769q14.769-16.308 36.846-26.269Q440-718.385 460-720.616v-65.538h40v65.077q32.693 3.615 63.616 24.192 30.923 20.577 47.923 62.27L574-618.769Zm199.539 488.923L606.462-296.923q-16.539 23.462-46.385 39.5-29.846 16.039-60.077 16.5v65.539h-40v-67.539q-49.846-9.384-79.654-41-29.808-31.615-46.808-83L372-382q12.769 42 40.885 72Q441-280 488-280q28.769 0 51.846-12.577 23.077-12.577 37.846-33.115L129.846-773.539l28.308-28.307 643.692 643.692-28.307 28.308Z"/></svg>