<svg xmlns="http://www.w3.org/2000/svg" height="24" viewBox="0 -960 960 960" width="24"><path d="M568.913-616.304q-13.131-27.739-35.218-43.326-22.086-15.587-52.825-15.587-14.044 0-27.652 4.152-13.609 4.152-25.348 14.195l-76.088-76.653q14-14 36.587-24.934 22.587-10.935 43.152-15.066v-84h96.958v83.131q42.739 5.608 82.674 39.326 39.935 33.718 56.935 78.283l-99.175 40.479ZM790.304-45.826 614.218-221.912q-15 13.869-39.87 22.804-24.869 8.935-45.869 11.5v85.131h-96.958v-87.131q-52.608-11.174-95.478-52.978-42.87-41.805-60.435-101.196l101.479-39.914q12 40.87 39.37 68.891 27.369 28.022 71.543 28.022 13.478 0 25.087-3.087 11.608-3.087 22.782-9.826L45.826-790.304l61.652-62.218 745.044 745.044-62.218 61.652Z"/></svg>