<svg xmlns="http://www.w3.org/2000/svg" height="20" viewBox="0 -960 960 960" width="20"><path d="m850-246-98-98v-409q0-20.3 14.289-34.65 14.29-14.35 34.5-14.35Q821-802 835.5-787.65T850-753v507ZM373-723l-94-94v-1q6-13.3 17.789-21.65 11.79-8.35 27-8.35Q344-848 358.5-833.65T373-799v76Zm159 159-98-98v-241q0-20.3 14.289-34.65 14.29-14.35 34.5-14.35Q503-952 517.5-937.65T532-903v339Zm159 100h-57l-41-41v-344q0-20.3 14.289-34.65 14.29-14.35 34.5-14.35Q662-898 676.5-883.65T691-849v385Zm38 340L373-480v115q0 35.447-30 52.223Q313-296 283-315l-52-24 174 223q3 1 4 2t3 1h281q13 0 22-3t14-8ZM412-15q-24.951 0-47.476-10.5Q342-36 327-56L63.147-404.704Q54-418 56-433t14-25l5-5q22-17 51-21t64 17l85 43v-154L115-738q-13-13-12.5-30.5T116-799q13-13 30.667-13 17.666 0 30.333 13l654 655q2 2 2.5 6t.5 10q0 4-1.5 6.5T827-119l-5 34q-20 32-54 51t-75 19H412Zm139-287Zm83-162Z"/></svg>