<svg xmlns="http://www.w3.org/2000/svg" height="24" viewBox="0 -960 960 960" width="24"><path d="M843-126q-19.975 0-33.487-13.397Q796-152.794 796-172.598v-46.598Q796-239 809.513-252.5 823.025-266 843-266h57v-20h-74q-13 0-21.5-8.5T796-316q0-13 8.5-21.5T826-346h87q19.975 0 33.487 13.397Q960-319.206 960-299.402v46.598Q960-233 946.487-219.5 932.975-206 913-206h-57v20h74q13 0 21.5 8.5T960-156q0 13-8.5 21.5T930-126h-87Zm-531-80q-38.423 0-56.212-33Q238-272 258-304l145-228-132-206q-20-31-2.143-63.5t55-32.5Q341-834 355-826t23 22l102 166 102-167q8-13.81 22-21.405Q618-834 633.632-834 672-834 690-801.5t-2 64.5L556-532l146 229q20 32 2.5 64.5T649.219-206q-17.438 0-31.969-7.857Q602.719-221.714 594-236L480-421 365-236q-8 14.286-22 22.143Q329-206 312-206Z"/></svg>