<svg xmlns="http://www.w3.org/2000/svg" height="20" viewBox="0 -960 960 960" width="20"><path d="M735.693-184q-17.131 0-28.72-11.541-11.588-11.541-11.588-28.602v-38.604q0-17.061 11.588-28.849 11.589-11.789 28.72-11.789H776v-41.846h-61.231q-7.753 0-13.569-5.815-5.815-5.815-5.815-13.569 0-7.754 5.815-13.57Q707.016-384 714.769-384h59.693q17.131 0 28.719 11.541 11.589 11.541 11.589 28.602v38.604q0 17.061-11.589 28.849-11.588 11.789-28.719 11.789h-40.308v41.846h61.231q7.754 0 13.569 5.815 5.816 5.816 5.816 13.57 0 7.753-5.816 13.569Q803.139-184 795.385-184h-59.692ZM343.781-312.615q-9.602 0-13.691-7.577-4.09-7.577 1-15.847l125.602-194.269-113.818-174.464q-5.105-8.074-1.515-15.651 3.59-7.577 13.118-7.577 4.398 0 7.866 2.179 3.468 2.18 5.272 5.052l111.154 171.461h-3.077l118.231-173.231q1.641-2.6 4.513-4.031 2.872-1.43 6.857-1.43 9.782 0 14.129 8.077 4.347 8.077-.73 15.538L501.539-530.308l127.384 194.077q5.077 7.462 1.308 15.539t-12.887 8.077q-4.105 0-7.342-2.18-3.237-2.179-5.079-5.051L479.692-510.154h3.077L355.077-318.846q-1.641 2.967-4.513 4.599-2.872 1.632-6.783 1.632Z"/></svg>