<svg xmlns="http://www.w3.org/2000/svg" height="20" viewBox="0 -960 960 960" width="20"><path d="M439-278v-46h82v46h-82Zm0-68v-21.143q-17-8.857-26.5-26.434t-9.5-37.961Q403-464 425.712-486.5q22.713-22.5 54.5-22.5Q512-509 534.5-486.35 557-463.7 557-432q0 20.552-9.5 38.276Q538-376 520.919-367.143V-346H439Zm184 18-43-39q11-17 19-37t8-40q0-20-7-39.5T581-520l42-41q19 25 30.5 55t11.5 62q0 32-11.5 62T623-328Zm-286 0q-19-24-30.5-54T295-443.828q0-76.771 54.15-129.972Q403.3-627 480-629v-44l86 73-86 73v-44q-53 2-90 38.157T353-444q0 20 7.5 39.5T379-368l-42 40ZM161-17v-926h638v926H161Zm118-238h402v-450H279v450Z"/></svg>