<svg xmlns="http://www.w3.org/2000/svg" height="24" viewBox="0 -960 960 960" width="24"><path d="M280-320h400q66 0 113-47t47-113q0-66-47-113t-113-47H280q-66 0-113 47t-47 113q0 66 47 113t113 47Zm200-160ZM380-680h200v-23.077q0-10.769-6.923-17.692-6.923-6.924-17.692-6.924h-150.77q-10.769 0-17.692 6.924Q380-713.846 380-703.077V-680Zm-60 400v60q0 8.5-5.758 14.25-5.757 5.75-14.269 5.75-8.511 0-14.242-5.75Q280-211.5 280-220v-60q-83.077 0-141.539-58.28Q80-396.561 80-479.819q0-83.258 58.333-141.72Q196.667-680 280-680h60v-23.077q0-27.616 18.5-46.116t46.115-18.5h150.77q27.615 0 46.115 18.5 18.5 18.5 18.5 46.116V-680h60q83.333 0 141.667 58.28Q880-563.439 880-480.181q0 83.258-58.333 141.72Q763.333-280 680-280v60q0 8.5-5.758 14.25T659.973-200q-8.512 0-14.242-5.75Q640-211.5 640-220v-60H320Z"/></svg>