<svg xmlns="http://www.w3.org/2000/svg" height="20" viewBox="0 -960 960 960" width="20"><path d="M288-284.609h384q64.348 0 108.826-44.478 44.478-44.478 44.478-108.825 0-64.348-44.478-108.826Q736.348-591.216 672-591.216H288q-64.348 0-108.826 44.478-44.478 44.478-44.478 108.826 0 64.347 44.478 108.825Q223.652-284.609 288-284.609Zm192-153.303Zm-58.999-251.305h117.998v-48H421.001v48Zm-48 502.61v45.303q0 20.388-14.247 34.694-14.246 14.307-34.543 14.307-20.298 0-34.755-14.307-14.457-14.306-14.457-34.694v-45.868q-100-5.088-169.152-77.066-69.152-71.978-69.152-173.674 0-104.71 73.297-178.008Q183.29-689.217 288-689.217h34.999v-48q0-41.005 28.524-69.503 28.524-28.498 69.566-28.498h118.174q41.041 0 69.389 28.498 28.349 28.498 28.349 69.503v48H672q104.71 0 178.008 73.297 73.297 73.298 73.297 178.008 0 101.696-69.152 173.674-69.152 71.978-169.152 77.066v45.868q0 20.388-14.246 34.694-14.247 14.307-34.544 14.307-20.298 0-34.755-14.307-14.457-14.306-14.457-34.694v-45.303H373.001Z"/></svg>