<svg xmlns="http://www.w3.org/2000/svg" height="24" viewBox="0 -960 960 960" width="24"><path d="M550-282.693q18.846 0 36.692-7.423t31.077-20.653l34.769-34.769L619-379.076l-34.769 34.769q-6.769 6.769-15.923 9.846T550-331.384q-9.154 0-18.308-3.077t-15.923-9.846l-38-38q-13.231-13.231-31.077-19.962-17.846-6.73-36.692-6.73t-36.692 6.73q-17.846 6.731-31.077 19.962l-34.769 34.769L341-314l34.769-34.769q6.769-6.77 15.923-9.847T410-361.693q9.154 0 18.308 3.077t15.923 9.847l38 38q13.231 13.23 31.077 20.653 17.846 7.423 36.692 7.423Zm0-115.768q18.846 0 36.692-7.423t31.077-20.654l34.769-34.769L619-494.845l-34.769 34.769q-6.769 6.769-15.923 9.846T550-447.153q-9.154 0-18.308-3.077t-15.923-9.846l-38-38q-13.231-13.231-31.077-19.961-17.846-6.731-36.692-6.731t-36.692 6.731q-17.846 6.73-31.077 19.961l-34.769 34.769L341-429.769l34.769-34.769q6.769-6.769 15.923-9.846T410-477.461q9.154 0 18.308 3.077t15.923 9.846l38 38q13.231 13.231 31.077 20.654 17.846 7.423 36.692 7.423Zm0-115.769q18.846 0 36.692-7.423t31.077-20.654l34.769-34.769L619-610.614l-34.769 34.769q-6.769 6.769-15.923 9.846T550-562.922q-9.154 0-18.308-3.077t-15.923-9.846l-38-38q-13.231-13.231-31.077-19.961-17.846-6.731-36.692-6.731t-36.692 6.731q-17.846 6.73-31.077 19.961l-34.769 34.769L341-545.538l34.769-34.769q6.769-6.769 15.923-9.846T410-593.23q9.154 0 18.308 3.077t15.923 9.846l38 38q13.231 13.231 31.077 20.654 17.846 7.423 36.692 7.423ZM180.001-180.001v-449.998L480-855.383l299.999 225.384v449.998H180.001Z"/></svg>