<svg xmlns="http://www.w3.org/2000/svg" height="24" viewBox="0 -960 960 960" width="24"><path d="M550-279.283q20 0 39-8t33-22l39-39-42-42-39 39q-6 6-14 8.5t-16 2.5q-8 0-16-2.5t-14-8.5l-38-38q-14-14-33-21.5t-39-7.5q-20 0-39 7.5t-33 21.5l-39 39 42 42 39-39q6-6 14-8.5t16-2.5q8 0 16 2.5t14 8.5l38 38q14 14 33 22t39 8Zm0-120q20 0 39-8t33-22l39-39-42-42-39 39q-6 6-14 8.5t-16 2.5q-8 0-16-2.5t-14-8.5l-38-38q-14-14-33-21.5t-39-7.5q-20 0-39 7.5t-33 21.5l-39 39 42 42 39-39q6-6 14-8.5t16-2.5q8 0 16 2.5t14 8.5l38 38q14 14 33 22t39 8Zm0-120q20 0 39-8t33-22l39-39-42-42-39 39q-6 6-14 8.5t-16 2.5q-8 0-16-2.5t-14-8.5l-38-38q-14-14-33-21.5t-39-7.5q-20 0-39 7.5t-33 21.5l-39 39 42 42 39-39q6-6 14-8.5t16-2.5q8 0 16 2.5t14 8.5l38 38q14 14 33 22t39 8ZM151.869-151.869v-492.196L480-890.283l328.131 246.138v492.276H151.869Zm91.001-91.001h474.26v-355.695L480-776.413 242.87-598.565v355.695ZM480-509.761Z"/></svg>