<svg xmlns="http://www.w3.org/2000/svg" height="24" viewBox="0 -960 960 960" width="24"><path d="m480-60.216-377.523-209.61v-420.348L480-899.784l377.523 209.61v420.348L480-60.216ZM362.304-600.74q24.131-22.869 54.413-35.304Q447-648.479 480-648.479t63.283 12.435q30.282 12.435 53.847 35.304L698.477-657 480-777.826 261.523-657l100.781 56.26Zm69.217 392.044v-110.086q-54.565-15.131-87.282-60.109Q311.521-423.87 311.521-480q0-9.304.435-17.956.435-8.653 2.87-17.522l-106.347-59.826v243.217l223.042 123.391ZM480-408.479q29.609 0 50.565-20.956 20.956-20.956 20.956-50.565 0-29.609-20.956-50.565-20.956-20.956-50.565-20.956-29.609 0-50.565 20.956-20.956 20.956-20.956 50.565 0 29.609 20.956 50.565 20.956 20.956 50.565 20.956Zm48.479 199.783 223.042-123.391v-243.217l-106.347 59.826q2.435 8.869 2.87 17.522.435 8.652.435 17.956 0 56.13-32.718 101.109-32.717 44.978-87.282 60.109v110.086Z"/></svg>