<svg xmlns="http://www.w3.org/2000/svg" height="20" viewBox="0 -960 960 960" width="20"><path d="m480-100.216-341.523-189.61v-380.348L480-859.784l341.523 189.61v380.348L480-100.216ZM374.304-589.74q21.131-19.869 48.913-31.304Q451-632.479 480-632.479t56.783 11.435q27.782 11.435 48.347 31.304L675.477-639 480-746.826 284.523-639l89.781 49.26Zm61.217 353.044v-97.086q-48.565-13.131-78.282-54.109Q327.521-428.87 327.521-480q0-7.304-.065-15.956-.065-8.653 3.37-15.522l-94.347-52.826v217.217l199.042 110.391ZM480-416.479q26.609 0 45.065-18.456 18.456-18.456 18.456-45.065 0-26.609-18.456-45.065-18.456-18.456-45.065-18.456-26.609 0-45.065 18.456-18.456 18.456-18.456 45.065 0 26.609 18.456 45.065 18.456 18.456 45.065 18.456Zm44.479 179.783 199.042-110.391v-217.217l-94.347 52.826q2.435 6.869 2.87 15.522.435 8.652.435 15.956 0 51.13-29.718 92.109-29.717 40.978-78.282 54.109v97.086Z"/></svg>