<svg xmlns="http://www.w3.org/2000/svg" height="20" viewBox="0 -960 960 960" width="20"><path d="M381-547 191-650l289-160 288 160-189 103q-17.783-23.6-43.892-37.3Q509-598 480-598q-29 0-55.108 13.7Q398.783-570.6 381-547Zm89 391L182-314.966V-634l190 106q-5 10-7.5 21t-2.5 27q0 45.929 31.5 79.965Q425-366 470-360v204Zm9.788-226Q438-382 410-410.212q-28-28.213-28-70Q382-522 410.212-550q28.213-28 70-28Q522-578 550-549.788q28 28.213 28 70Q578-438 549.788-410q-28.213 28-70 28ZM490-156v-204q45-6 76.5-40t31.5-80.471q0-13.094-3-24.811Q592-517 588-528l190-106v319.034L490-156Z"/></svg>