<svg xmlns="http://www.w3.org/2000/svg" height="20" viewBox="0 -960 960 960" width="20"><path d="M373-598 176-707l304-168 303 168-197 109q-21.783-19.6-49.392-30.3Q509-639 480-639q-29 0-56.608 10.7Q395.783-617.6 373-598Zm56 485L125-281.966V-619l198 111q-2 5-2 11.5v16.5q0 51.929 29.5 94.465Q380-343 429-329v216Zm50.788-310Q456-423 439.5-439.712q-16.5-16.713-16.5-40.5Q423-504 439.712-520.5q16.713-16.5 40.5-16.5Q504-537 520.5-520.288q16.5 16.713 16.5 40.5Q537-456 520.288-439.5q-16.713 16.5-40.5 16.5ZM531-113v-215q49-14 78.5-56.5t29.5-95.971q0-7.094-.5-14.311Q638-502 637-508l198-111v337.034L531-113Z"/></svg>