<svg xmlns="http://www.w3.org/2000/svg" height="20" viewBox="0 -960 960 960" width="20"><path d="M671.774-136q-63.62 0-107.697-44.303Q520-224.606 520-288.226q0-63.62 44.303-107.697Q608.606-440 672.226-440q63.62 0 107.697 44.303Q824-351.394 824-287.774q0 63.62-44.303 107.697Q735.394-136 671.774-136Zm-191.803-1.538q-124.51-34.769-198.24-139.039Q208-380.846 208-515v-201.308l272-104.615 272 104.615v220.231q-19.769-6.846-38.5-11.385Q694.769-512 672-512q-93.846 0-158.923 65.077T448-288q0 33.231 11.884 71.462 11.885 38.231 41.424 72.384-3.077 1.539-10.154 3.308t-11.183 3.308ZM652.615-212h38.77v-56.615H748v-38.77h-56.615V-364h-38.77v56.615H596v38.77h56.615V-212Z"/></svg>