<svg xmlns="http://www.w3.org/2000/svg" height="20" viewBox="0 -960 960 960" width="20"><path d="M236.461-172.461q-47.384-47.616-73.923-109.655Q136-344.155 136-415.77q0-71.769 26.839-134.006 26.84-62.237 73.922-109.365 47.082-47.127 109.716-73.993Q409.111-760 480.325-760q71.214 0 133.451 26.859 62.237 26.859 109.365 73.974 47.127 47.116 73.993 109.336Q824-487.61 824-415.886q0 71.594-26.538 133.817-26.539 62.223-74.923 109.608L700-195.769q43-41.856 67.5-98.654Q792-351.222 792-416q0-130-91-221t-221-91q-130 0-221 91t-91 221q0 64.984 24.5 121.492Q217-238 259-195l-22.539 22.539Zm101.576-102q-26.96-27.616-42.499-63.612Q280-374.07 280-416q0-83.333 58.28-141.667Q396.561-616 479.819-616q83.258 0 141.72 58.422Q680-499.156 680-415.695q0 41.234-15.538 77.541-15.539 36.308-43.923 63.693L599-297q22.685-22.808 35.843-53.55Q648-381.292 648-416q0-70-49-119t-119-49q-70 0-119 49t-49 119q0 35 13.157 65.5Q338.315-320 361-297l-22.963 22.539ZM479.788-384q-12.865 0-22.327-9.674Q448-403.348 448-416.212q0-12.865 9.674-22.327Q467.348-448 480.212-448q12.865 0 22.327 9.674Q512-428.652 512-415.788q0 12.865-9.674 22.327Q492.652-384 479.788-384Z"/></svg>