<svg xmlns="http://www.w3.org/2000/svg" height="20" viewBox="0 -960 960 960" width="20"><path d="M183.694-119.694Q126.607-177.216 94.064-253 61.52-328.784 61.52-416.267q0-87.081 32.544-162.799 32.543-75.718 89.848-133.022 57.304-57.305 133.611-89.848 76.306-32.544 163.066-32.544 86.759 0 162.477 32.544 75.718 32.543 133.022 89.848 57.305 57.304 89.848 133.092 32.544 75.788 32.544 162.937 0 87.577-32.544 163.427-32.543 75.85-90.63 132.938L711.87-183.13q45.6-44.23 71.626-104.294 26.027-60.064 26.027-128.567 0-136.792-96.37-233.162T480-745.523q-136.783 0-233.153 96.37t-96.37 233.086q0 68.443 25.86 128.259 25.86 59.817 70.228 105.243l-62.871 62.871Zm107.794-108.218q-35.533-36.392-56.511-84.323Q213.999-360.167 213.999-416q0-110.834 77.564-188.418 77.564-77.583 188.371-77.583 110.806 0 188.436 77.562 77.631 77.562 77.631 188.366 0 55.725-20.978 103.965-20.978 48.239-57.935 84.196l-61.87-62.87q23.815-23.374 37.538-55.836 13.723-32.461 13.723-69.112 0-73.661-51.469-125.205-51.468-51.544-124.935-51.544-73.466 0-125.01 51.44-51.544 51.44-51.544 124.866 0 36.869 13.723 69.347 13.723 32.478 37.538 56.044l-63.294 62.87Zm188.215-98.565q-37.051 0-63.138-26.385-26.088-26.385-26.088-63.435 0-37.051 26.385-63.138 26.385-26.088 63.435-26.088 37.051 0 63.138 26.385 26.088 26.385 26.088 63.435 0 37.051-26.385 63.138-26.385 26.088-63.435 26.088Z"/></svg>