<svg xmlns="http://www.w3.org/2000/svg" height="20" viewBox="0 -960 960 960" width="20"><path d="M197.717-133.717q-54.152-54.913-85.228-127.03-31.076-72.117-31.076-155.366 0-82.996 31.076-155.126 31.076-72.131 85.609-126.663 54.532-54.533 127.176-85.609 72.644-31.076 155.24-31.076 82.595 0 154.725 31.076 72.131 31.076 126.663 85.609 54.533 54.532 85.609 126.692 31.076 72.16 31.076 155.185 0 83.303-31.076 155.729-31.076 72.427-86.228 126.579l-56.261-56.261q44.1-42.944 69.246-101.238 25.145-58.295 25.145-124.78 0-132.874-93.272-226.145Q612.87-735.413 480-735.413t-226.141 93.272q-93.272 93.271-93.272 226.113 0 66.447 25.075 124.355 25.075 57.907 68.077 101.934l-56.022 56.022Zm104.207-104.631q-33.25-34.434-53.087-79.687Q229-363.288 229-416q0-104.583 73.2-177.792Q375.4-667 479.972-667q104.572 0 177.8 73.199Q731-520.602 731-416.031q0 52.422-19.837 98.216-19.837 45.793-54.511 79.467L601.63-294.37q23.164-23.047 36.56-54.516 13.397-31.47 13.397-67 0-71.549-50.044-121.625-50.045-50.076-121.511-50.076-71.467 0-121.543 50.032-50.076 50.032-50.076 121.482 0 35.79 13.397 67.127 13.396 31.337 36.56 54.576l-56.446 56.022Zm177.828-98.239q-32.861 0-56.013-23.4-23.152-23.401-23.152-56.261 0-32.861 23.4-56.013 23.401-23.152 56.261-23.152 32.861 0 56.013 23.4 23.152 23.401 23.152 56.261 0 32.861-23.4 56.013-23.401 23.152-56.261 23.152Z"/></svg>