<svg xmlns="http://www.w3.org/2000/svg" height="20" viewBox="0 -960 960 960" width="20"><path d="M245-181q-46-46-71.5-105.822Q148-346.645 148-415.701q0-69.299 25.891-129.357 25.892-60.059 71.348-105.574 45.457-45.516 105.893-71.442Q411.569-748 480.284-748q68.716 0 128.774 25.917 60.059 25.916 105.574 71.416 45.516 45.5 71.442 105.537Q812-485.093 812-415.852q0 69.021-25.5 128.937Q761-227 714-181l-14-15q43-41.812 67.5-98.551Q792-351.29 792-416q0-130-91-221t-221-91q-130 0-221 91t-91 221q0 64.984 24.5 121.492Q217-238 259-195l-14 14Zm101.576-102Q321-309 306.5-342.809T292-416q0-78.333 54.765-133.167Q401.529-604 479.765-604 558-604 613-549.051q55 54.949 55 133.447Q668-377 653.5-343T612-283l-13-14q22.685-22.808 35.843-53.55Q648-381.292 648-416q0-70-49-119t-119-49q-70 0-119 49t-49 119q0 35 13.157 65.5Q338.315-320 361-297l-14.424 14Zm133.212-113Q472-396 466-402.212q-6-6.213-6-14Q460-424 466.212-430q6.213-6 14-6Q488-436 494-429.788q6 6.213 6 14Q500-408 493.788-402q-6.213 6-14 6Z"/></svg>