<svg xmlns="http://www.w3.org/2000/svg" height="24" viewBox="0 -960 960 960" width="24"><path d="M278.461-160h403.462l14.154-130.001q-35.615 0-66.615-5.807-31-5.808-84-20.808-24.154-7.385-50.116-10.385-25.961-3-52.115-3-47.77 0-92.847 11.116-45.077 11.115-86.461 32.73L278.461-160Zm-21.23-189.23q45-20.385 91.807-30.577 46.808-10.192 95.193-10.192 29.615 0 58.923 3.807 29.307 3.808 57.923 11.808 51.538 14.385 78.615 19.385 27.077 5 58.231 5h4.846L752.308-800H207.307l49.924 450.77ZM224.54-100.001l-84.539-759.998h679.998l-84.154 759.998H224.54ZM278.461-160h-14.538 432.154-417.616Z"/></svg>