<svg xmlns="http://www.w3.org/2000/svg" height="24" viewBox="0 -960 960 960" width="24"><path d="M283.826-162.87h392.587l13-115.217q-34.804-.239-65.924-6.359-31.119-6.119-82.446-20.641-23-7-47.88-10-24.88-3-49.402-3-44.848 0-88.152 11.381-43.305 11.38-84.544 32.902l12.761 110.934ZM260.63-370.283q44.761-19.282 90.924-28.924 46.163-9.641 93.207-9.641 30.478 0 60.576 4.12 30.098 4.119 59.576 12.119 48.804 13.761 74.826 18.761 26.022 5 54.826 5.239h4.805l46.565-428.521h-531.87l46.565 426.847ZM201.782-71.869l-89.913-816.262h736.262L758.457-71.869H201.782Zm82.044-91.001h-12.761H689.413 283.826Z"/></svg>