<svg xmlns="http://www.w3.org/2000/svg" height="24" viewBox="0 -960 960 960" width="24"><path d="M365.5-396.413v-287.174h523.587v287.174H365.5Zm87.413-200v112.826-112.826Zm-382 331v-91h818.174v91H70.913Zm127.16-131q-53.095 0-90.128-37.092-37.032-37.093-37.032-90.082 0-53.089 37.092-90.251Q145.098-651 198.087-651q53.089 0 90.251 37.166 37.162 37.166 37.162 90.261t-37.166 90.127q-37.166 37.033-90.261 37.033Zm.014-87.174q17 0 28.5-11.5t11.5-28.5q0-17-11.5-28.5t-28.5-11.5q-17 0-28.5 11.5t-11.5 28.5q0 17 11.5 28.5t28.5 11.5Zm254.826 0h349v-112.826h-349v112.826Zm-254.826-40Z"/></svg>