<svg xmlns="http://www.w3.org/2000/svg" height="20" viewBox="0 -960 960 960" width="20"><path d="M397.001-375.521v-304.958h488.478v304.958H397.001Zm89.522-216v127.042-127.042ZM74.521-229.52v-98.001h810.958v98.001H74.521Zm136.924-146.001q-57.315 0-97.12-39.946-39.804-39.946-39.804-97.012 0-57.301 39.946-97.412 39.945-40.11 97.011-40.11 57.301 0 97.412 40.12 40.111 40.121 40.111 97.436 0 57.315-40.121 97.119-40.12 39.805-97.435 39.805Zm.033-88.958q20.4 0 34.2-13.8 13.8-13.8 13.8-34.2 0-20.4-13.8-34.2-13.8-13.8-34.2-13.8-20.4 0-34.2 13.8-13.8 13.8-13.8 34.2 0 20.4 13.8 34.2 13.8 13.8 34.2 13.8Zm275.045 0h309.999v-127.042H486.523v127.042Zm-275.045-48Z"/></svg>