<svg xmlns="http://www.w3.org/2000/svg" height="20" viewBox="0 -960 960 960" width="20"><path d="M672-383.077q39.981 0 68.452-28.471 28.471-28.471 28.471-68.452 0-39.981-28.471-68.452-28.471-28.471-68.452-28.471-39.981 0-68.452 28.471-28.471 28.471-28.471 68.452 0 39.981 28.471 68.452 28.471 28.471 68.452 28.471Zm0 32q-50.262 0-85.824-32.577-35.561-32.577-41.638-80.346H139.077v-32h405.461q6.077-47.769 41.638-80.346 35.562-32.577 85.824-32.577 53.718 0 91.321 37.629 37.602 37.629 37.602 91.384 0 53.756-37.602 91.295-37.603 37.538-91.321 37.538ZM672-480Z"/></svg>