<svg xmlns="http://www.w3.org/2000/svg" height="20" viewBox="0 -960 960 960" width="20"><path d="M351.469-174.477q-33.584 0-57.288-23.916-23.704-23.916-23.704-57.501 0-33.584 23.916-56.845Q318.309-336 351.894-336q33.584 0 56.845 23.473Q432-289.053 432-255.469t-23.473 57.288q-23.474 23.704-57.058 23.704Zm257.037 0q-33.419 0-56.962-23.916Q528-222.309 528-255.894q0-33.584 23.703-56.845Q575.406-336 608.691-336q33.518 0 57.175 23.473 23.657 23.474 23.657 57.058t-23.799 57.288q-23.798 23.704-57.218 23.704ZM351.469-399.521q-33.584 0-57.288-23.703-23.704-23.703-23.704-56.988 0-33.745 23.916-57.006 23.916-23.261 57.501-23.261 33.584 0 56.845 23.474Q432-513.532 432-480.07q0 33.461-23.473 57.005-23.474 23.544-57.058 23.544Zm257.037 0q-33.419 0-56.962-23.703Q528-446.927 528-480.212q0-33.745 23.703-57.006 23.703-23.261 56.988-23.261 33.518 0 57.175 23.474 23.657 23.473 23.657 56.935 0 33.461-23.799 57.005-23.798 23.544-57.218 23.544ZM351.469-624q-33.584 0-57.288-23.703-23.704-23.703-23.704-56.988 0-33.518 23.916-57.175 23.916-23.657 57.501-23.657 33.584 0 56.845 23.799Q432-737.926 432-704.506q0 33.419-23.473 56.962Q385.053-624 351.469-624Zm257.037 0q-33.419 0-56.962-23.703Q528-671.406 528-704.691q0-33.518 23.703-57.175 23.703-23.657 56.988-23.657 33.518 0 57.175 23.799 23.657 23.798 23.657 57.218 0 33.419-23.799 56.962Q641.926-624 608.506-624Z"/></svg>