<svg xmlns="http://www.w3.org/2000/svg" height="24" viewBox="0 -960 960 960" width="24"><path d="M287.965-172Q282-172 278-176.025T274-186v-394q0-86.667 60.735-147.333Q395.471-788 482.235-788 569-788 629.5-727.333 690-666.667 690-580v209l79-79q5-5 10-5t10 5q5 5 4.5 10.5T789-430l-91.709 91.709Q692-333 686.867-331q-5.134 2-11 2Q670-329 665-331q-5-2-10.291-7.291L563-430q-5-5-5-10t5-10q5-5 10.5-4.5t9.5 4.5l79 79v-209q0-75-52.5-127.5T482-760q-75 0-127.5 52.5T302-580v394q0 5.95-4.035 9.975-4.035 4.025-10 4.025Z"/></svg>