<svg xmlns="http://www.w3.org/2000/svg" height="20" viewBox="0 -960 960 960" width="20"><path d="M602.235-524Q619-524 630.5-535.735q11.5-11.736 11.5-28.5Q642-581 630.265-592.5q-11.736-11.5-28.5-11.5Q585-604 573.5-592.265q-11.5 11.736-11.5 28.5Q562-547 573.735-535.5q11.736 11.5 28.5 11.5Zm-244 0Q375-524 386.5-535.735q11.5-11.736 11.5-28.5Q398-581 386.265-592.5q-11.736-11.5-28.5-11.5Q341-604 329.5-592.265q-11.5 11.736-11.5 28.5Q318-547 329.735-535.5q11.736 11.5 28.5 11.5ZM364-352h232q8.067 0 14.033-5.953 5.967-5.954 5.967-14Q616-380 610.033-386q-5.966-6-14.033-6H364q-8.067 0-14.033 5.953-5.967 5.954-5.967 14Q344-364 349.967-358q5.966 6 14.033 6Zm116.45 204q-68.45 0-129.008-25.891-60.559-25.892-106.075-71.348-45.515-45.457-71.441-105.893Q148-411.569 148-480.284q0-68.716 25.891-128.774 25.892-60.059 71.348-105.574 45.457-45.516 105.893-71.442Q411.569-812 480.284-812q68.716 0 128.774 25.891 60.059 25.892 105.574 71.348 45.516 45.457 71.442 105.659Q812-548.899 812-480.45q0 68.45-25.891 129.008-25.892 60.559-71.348 106.075-45.457 45.515-105.659 71.441Q548.899-148 480.45-148ZM480-480Zm0 312q130 0 221-91t91-221q0-130-91-221t-221-91q-130 0-221 91t-91 221q0 130 91 221t221 91Z"/></svg>