<svg xmlns="http://www.w3.org/2000/svg" height="20" viewBox="0 -960 960 960" width="20"><path d="M480.184-480q-6.723 0-11.453-4.6Q464-489.2 464-496v-318.154q0-6.8 4.547-11.4 4.547-4.6 11.269-4.6 6.723 0 11.453 4.6 4.731 4.6 4.731 11.4V-496q0 6.8-4.547 11.4-4.547 4.6-11.269 4.6Zm-.14 296q-61.583 0-115.408-23.138-53.826-23.139-94.093-63.405-40.266-40.267-63.405-94.063Q184-418.402 184-480q0-56.266 21.154-108.402 21.153-52.137 58.923-92.521 4.359-6.077 10.641-7.577t11.032 3.25q4.711 5.711 5.711 11.75t-2.384 10.115q-35.609 37.539-54.343 84.77Q216-531.385 216-480q0 110.314 76.778 187.157Q369.557-216 479.778-216 590-216 667-292.843 744-369.686 744-480q0-51.257-19.846-97.782-19.846-46.526-53.462-85.064-4.384-4.846-3.384-11.681 1-6.836 6.615-12.396 4.616-5.616 10.77-3.231 6.153 2.385 11.549 8.592 38.22 41.023 58.989 93.283T776-480q0 61.598-23.138 115.394-23.139 53.796-63.405 94.063-40.267 40.266-94.049 63.405Q541.626-184 480.044-184Z"/></svg>