<svg xmlns="http://www.w3.org/2000/svg" height="20" viewBox="0 -960 960 960" width="20"><path d="M531-795v358q0 21.675-14.602 36.337Q501.796-386 480.211-386 459-386 443.5-401.35T428-438v-143q-65-4-108.5-49T276-738q0-66 48.169-113 48.168-47 116.334-47h280.435q21.701 0 36.382 14.602Q772-868.796 772-847.211q0 21.211-14.662 36.895-14.663 15.685-36.338 15.685h-24V-438q0 21.3-15.289 36.65-15.29 15.35-36.5 15.35Q624-386 608.5-401.35T593-438v-357h-62ZM310-191l20 20q17 17 17 37.5T330-96q-17 17-37 17t-37-17L153.862-198.138Q136-216.091 136-239.727q0-23.637 18-41.273l106-106q16-16 35.5-16t35.5 16q16 16 16 35t-16 35l-24 24h492q21.675 0 36.338 14.602Q850-263.796 850-242.211q0 21.586-14.662 36.399Q820.675-191 799-191H310Zm118-490v-114q-23 0-36 16.806t-13 40.406Q379-713 392.15-697q13.15 16 35.85 16Zm0-57Z"/></svg>