<svg xmlns="http://www.w3.org/2000/svg" height="24" viewBox="0 -960 960 960" width="24"><path d="M482.393-801.696v392.087q0 20.603-13.937 34.541-13.938 13.938-34.541 13.938-20.392 0-34.718-14.327-14.326-14.326-14.326-34.717v-152.652q-68.826-2.261-116.674-50.957-47.848-48.696-47.848-116.391 0-69.392 50.487-119.218 50.487-49.826 121.383-49.826h295.827q20.603 0 34.541 13.937 13.938 13.938 13.938 34.541 0 20.392-13.938 34.718-13.938 14.326-34.541 14.326h-33.217v391.522q0 20.391-14.326 34.717-14.327 14.327-34.718 14.327-20.392 0-34.718-14.327-14.326-14.326-14.326-34.717v-391.522h-74.348ZM287.827-192.652l29.217 29.217q14.391 14.392 14.391 34.783 0 20.392-14.391 34.783-14.392 14.392-34.5 14.392-20.109 0-34.501-14.392L139.521-202.39q-15.956-16.008-15.956-37.352 0-21.344 15.956-37.301l110.783-110.783q13.826-13.826 33.653-13.826 19.826 0 33.652 13.826t13.826 33.37q0 19.544-13.826 33.37l-31.478 31.478H810.74q20.603 0 34.541 13.937 13.937 13.938 13.937 34.542 0 20.603-13.937 34.541-13.938 13.937-34.541 13.937H287.827Zm97.044-466.001v-143.043q-29.043 0-48.021 21.01-18.978 21.009-18.978 50.512 0 30.173 18.978 50.847 18.978 20.674 48.021 20.674Zm0-71.521Z"/></svg>