<svg xmlns="http://www.w3.org/2000/svg" height="24" viewBox="0 -960 960 960" width="24"><path d="m753.077-160-28.308-27.538 83-84H613.077v-40.001h194.692l-83-83.999 28.308-27.539 131.539 131.539L753.077-160ZM403.846-380q45.231 0 82.923-20.577 37.693-20.577 62.154-54.808-31.154-22.077-67.693-33.346Q444.691-500 403.999-500q-40.691 0-77.384 11.269-36.692 11.269-67.846 33.346 24.462 34.231 62.154 54.808Q358.615-380 403.846-380Zm0-200q25.308 0 42.654-17.346 17.346-17.346 17.346-42.654 0-25.308-17.346-42.654Q429.154-700 403.846-700q-25.308 0-42.654 17.346-17.346 17.346-17.346 42.654 0 25.308 17.346 42.654Q378.538-580 403.846-580Zm0 93.154Zm0 367.615q-141-124.692-212.423-232.577Q120-459.692 120-548.154q0-126.923 82.654-209.385Q285.308-840 403.846-840q118.539 0 201.193 82.461 82.654 82.462 82.654 209.385 0 8.258-.116 16.975-.115 8.717-2.115 17.179H644.461q2-8.462 2.616-17.179.615-8.717.615-16.975 0-109.769-69.5-181.192t-174.346-71.423q-104.846 0-174.346 71.423T160-548.154q0 74.077 65.538 175.577 65.539 101.5 178.308 199.654 25.308-21.539 47.885-44.231 22.577-22.692 42.884-44.769l4.77 4q4.769 4 9.955 9.115 5.186 5.116 9.385 9.5l4.198 4.385q-25.55 27.988-55.506 56.879-29.955 28.89-63.571 58.813Z"/></svg>