<svg xmlns="http://www.w3.org/2000/svg" height="20" viewBox="0 -960 960 960" width="20"><path d="m735.538-164.001-37.153-36.769 66.001-67H601.539v-51.999h162.847l-66.001-67.001 37.153-36.768L862.306-293.77 735.538-164.001Zm-325.615-230q43.615 0 82.961-18.038t63.577-54.653q-33.077-23.538-69.846-37.423-36.77-13.884-76.615-13.884-39.846 0-76.692 13.884-36.845 13.885-69.922 37.423 24.23 36.615 63.576 54.653 39.346 18.038 82.961 18.038Zm.213-192q25.941 0 43.864-18.135 17.922-18.135 17.922-44.076 0-25.942-18.135-43.864-18.135-17.923-44.076-17.923t-43.864 18.135q-17.923 18.135-17.923 44.076 0 25.942 18.135 43.864 18.135 17.923 44.077 17.923Zm-.213 97.078Zm0 373.306Q262.949-240.57 189.475-348.208q-73.474-107.638-73.474-198.869 0-122.46 82.077-209.691 82.076-87.231 211.345-87.231t211.846 87.231q82.576 87.231 82.576 209.691 0 10.558-.808 21.702-.807 11.144-2.639 21.375h-54.167q3-11.073 4.308-21.931 1.307-10.859 1.307-21.146 0-105.384-68.5-175.346t-173.423-69.962q-104.923 0-173.423 69.962T168-547.077q0 72.539 63.769 167.539 63.77 95.001 178.63 195.077 23.678-20.769 44.717-40.616 21.038-19.846 40.192-40.384l5.962 5.576q5.961 5.577 12.727 12.308 6.766 6.73 12.615 12.422l5.849 5.692q-27.275 27.494-57.253 55.44-29.977 27.945-65.285 58.406Z"/></svg>