<svg xmlns="http://www.w3.org/2000/svg" height="20" viewBox="0 -960 960 960" width="20"><path d="m748.065-135.869-58.891-58.892 50.739-51.5H600.957v-83h138.956l-50.739-51.5 58.891-58.891 148.892 151.891-148.892 151.892ZM408-386.391q49 0 92-21.5t68-63.5q-35-27-75.5-43t-84.5-16q-44 0-84.5 16t-75.5 43q25 42 68 63.5t92 21.5Zm.212-192q29.788 0 50.788-21.213 21-21.212 21-51 0-29.787-21.212-50.787-21.213-21-51-21-29.788 0-50.788 21.212-21 21.212-21 51t21.212 50.788q21.213 21 51 21ZM408-493.913Zm0 406.044Q247.199-221.368 167.534-334.412 87.869-447.456 87.869-549.957q0-137.28 91.452-229.727T407.5-872.131q136.727 0 228.679 92.447t91.952 229.727q0 9.469-.881 19.463-.88 9.994-2.233 19.081h-84.93q2.522-9.929 3.783-19.638 1.26-9.708 1.26-18.906 0-103.318-67.671-171.246-67.672-67.927-169.467-67.927-101.796 0-169.459 67.927-67.663 67.928-67.663 171.246 0 73.392 59.902 160.283 59.902 86.891 177.704 192.217 20.611-18.565 38.676-35.271 18.065-16.707 34.87-34.272l9.272 9.273q9.273 9.272 20.131 20.25 10.858 10.977 20.173 20.173l9.315 9.195q-29.717 29-62.076 58.5T408-87.869Z"/></svg>