<svg xmlns="http://www.w3.org/2000/svg" height="20" viewBox="0 -960 960 960" width="20"><path d="m514-478 82 76q1 0 4.692 2 6.308 0 7.808-5t-2.5-9l-72-68 74-66q4-3 1.647-7.5-2.353-4.5-7.647-4.5-.478 0-1.674.455-1.196.454-2.326 1.545l-84 74v-68q0-3.4-2.3-5.7-2.3-2.3-5.7-2.3-3.4 0-5.7 2.285-2.3 2.285-2.3 5.661v143.677q0 3.377 2.3 5.877t5.7 2.5q3.4 0 5.7-2.3 2.3-2.3 2.3-5.7v-70Zm-170 78h88q5.2 0 8.6-3.4 3.4-3.4 3.4-8.6v-70q0-5.2-3.4-8.6-3.4-3.4-8.6-3.4h-84v-50h88q3.4 0 5.7-2.3 2.3-2.3 2.3-5.7 0-3.4-2.3-5.7-2.3-2.3-5.7-2.3h-92q-5.2 0-8.6 3.4-3.4 3.4-3.4 8.6v136q0 5.2 3.4 8.6 3.4 3.4 8.6 3.4Zm4-28v-38h80v38h-80ZM248-196q-22.7 0-37.35-14.65Q196-225.3 196-248v-464q0-22.7 14.65-37.35Q225.3-764 248-764h464q22.7 0 37.35 14.65Q764-734.7 764-712v464q0 22.7-14.65 37.35Q734.7-196 712-196H248Zm0-20h464q12 0 22-10t10-22v-464q0-12-10-22t-22-10H248q-12 0-22 10t-10 22v464q0 12 10 22t22 10Zm-32-528v528-528Z"/></svg>