<svg xmlns="http://www.w3.org/2000/svg" height="24" viewBox="0 -960 960 960" width="24"><path d="M360-640q-8.539 0-14.269-5.731Q340-651.461 340-660q0-8.538 5.731-14.269Q351.461-680 360-680h240q8.539 0 14.269 5.731Q620-668.538 620-660q0 8.539-5.731 14.269Q608.539-640 600-640H360ZM304.615-80Q277-80 258.5-98.5 240-117 240-144.615v-670.77Q240-843 258.5-861.5 277-880 304.615-880h350.77Q683-880 701.5-861.5 720-843 720-815.385v670.77Q720-117 701.5-98.5 683-80 655.385-80h-350.77ZM280-220h400v-520H280v520Z"/></svg>