<svg xmlns="http://www.w3.org/2000/svg" height="20" viewBox="0 -960 960 960" width="20"><path d="M192.615-232Q169-232 152.5-248.5 136-265 136-288.615v-382.77q0-24.315 16.5-40.465Q169-728 192.615-728h175.231l96 96h303.539q24.315 0 40.465 16.15Q824-599.7 824-575.385v286.77Q824-265 807.85-248.5 791.7-232 767.385-232h-574.77Zm0-32h574.77q10.769 0 17.692-6.923T792-288.615v-286.77q0-10.769-6.923-17.692T767.385-600H450.769l-96-96H192.615q-10.769 0-17.692 6.923T168-671.385v382.77q0 10.769 6.923 17.692T192.615-264ZM168-264v-432 432Zm296-54.769h32v-170L573.769-411l23.308-23.308L480-551.385 364.461-435.846l23.308 23.308L464-488.769v170Z"/></svg>