<svg xmlns="http://www.w3.org/2000/svg" height="24" viewBox="0 -960 960 960" width="24"><path d="M200-100.782q-41.479 0-70.349-28.869-28.869-28.87-28.869-70.349v-162.174q42.347 0 72.695-27.957 30.347-27.956 30.347-69.869t-30.347-69.869q-30.348-27.957-72.695-27.957V-720q0-20.391 7.474-38.58 7.475-18.188 21.178-31.986l77.349 77.349v80.087q47.217 26.217 75.412 72.369 28.196 46.152 28.196 101.017 0 53.918-28.196 100.353-28.195 46.434-75.412 73.087v79.521h79.521q27.783-46.087 73.653-74.565Q405.826-309.826 460-309.826q54.174 0 100.326 28.196 46.152 28.195 73.37 74.847h79.521l77.349 77.349q-13.798 13.703-31.986 21.178-18.189 7.474-38.58 7.474H557.826q0-42.347-27.957-72.695-27.956-30.347-69.869-30.347t-69.869 30.347q-27.957 30.348-27.957 72.695H200ZM819.218-275.13 713.217-381.132V-440h83.957q8 0 14-6t6-14q0-8-6-14t-14-6h-83.957v-233.217H480v-83.957q0-8-6-14t-14-6q-8 0-14 6t-6 14v83.957h-58.868L275.13-819.218h68.478q6.218-45.392 39.174-74.674 32.957-29.283 77.218-29.283t77.218 29.283q32.956 29.282 39.174 74.674H720q40.928 0 70.073 29.145 29.145 29.145 29.145 70.073v143.608q45.392 6.218 74.674 39.174 29.283 32.957 29.283 77.218t-29.283 77.218q-29.282 32.956-74.674 39.174v68.478ZM781.653-62.52 62.086-781.654q-13.13-13.206-12.63-31.364t13.69-31.289q13.19-13.13 31.326-13.13 18.136 0 31.266 13.13l718.568 719.568q13.13 13.233 13.13 30.877 0 17.645-13.13 30.775-13.131 13.13-31.327 13.413-18.195.283-31.326-12.848ZM547.174-547.175ZM460-460Z"/></svg>