<svg xmlns="http://www.w3.org/2000/svg" height="24" viewBox="0 -960 960 960" width="24"><path d="M200-160q-16.077 0-28.039-11.961Q160-183.923 160-200v-158.154q34.154-10 57.077-37.807Q240-423.769 240-460t-22.923-64.039Q194.154-551.846 160-561.846v-165.846q0-8.539 2.923-15.731t8.538-12.808l584.77 584.77q-5.616 5.615-12.808 8.538T727.692-160H561.846q-10-34.154-37.807-57.077Q496.231-240 460-240t-64.039 22.923Q368.154-194.154 358.154-160H200Zm560-152.461L312.461-760H360q10.769-34.308 37.846-54.846 27.077-20.539 62.154-20.539t62.154 20.539Q549.231-794.308 560-760h160q16.846 0 28.423 11.577Q760-736.846 760-720v160q34.308 10.769 54.846 37.846 20.539 27.077 20.539 62.154t-20.539 62.154Q794.308-370.769 760-360v47.539ZM779.154-124 123.769-779.154q-5.846-5.846-6.115-13.884-.27-8.039 6.346-14.654 6.615-6.616 14.269-6.616t14.269 6.616l655.154 655.384q5.847 5.847 6.231 13.77.385 7.923-6.231 14.538-6.615 6.616-14.269 6.616T779.154-124Z"/></svg>