<svg xmlns="http://www.w3.org/2000/svg" height="20" viewBox="0 -960 960 960" width="20"><path d="M216-124.782q-38.179 0-64.699-26.519-26.519-26.52-26.519-64.699v-178.174q34.347-2 56.695-26.957 22.347-24.956 22.347-58.869t-22.347-58.869q-22.348-24.957-56.695-26.957V-744q0-18.602 6.952-35.264 6.953-16.662 19.7-29.302l71.349 71.349v104.087q38.217 26.217 58.912 66.869 20.696 40.652 20.696 86.517 0 47.123-20.696 87.955-20.695 40.832-58.912 65.485v103.521h103.521q26.783-37.087 67.153-58.065 40.369-20.978 86.543-20.978 46.174 0 86.826 20.696 40.652 20.695 66.87 58.347h103.521l71.349 71.349q-12.64 12.747-29.302 19.7-16.662 6.952-35.264 6.952H565.826q-2-34.347-26.957-56.695-24.956-22.347-58.869-22.347t-58.869 22.347q-24.957 22.348-26.957 56.695H216ZM835.218-247.13l-98.001-98.002V-456h75.957q9.6 0 16.8-7.2 7.2-7.2 7.2-16.8 0-9.6-7.2-16.8-7.2-7.2-16.8-7.2h-75.957v-233.217H504v-75.957q0-9.6-7.2-16.8-7.2-7.2-16.8-7.2-9.6 0-16.8 7.2-7.2 7.2-7.2 16.8v75.957H345.132l-98.002-98.001h120.478q6.218-43.392 37.949-71.674 31.731-28.283 74.218-28.283 42.486 0 74.443 28.123 31.956 28.122 38.174 71.834H744q37.628 0 64.423 26.795T835.218-744v151.608q43.392 6.218 71.674 37.949 28.283 31.731 28.283 74.218 0 42.486-28.123 74.443-28.122 31.956-71.834 38.174v120.478ZM761.574-94.599 94.165-761.575q-12.21-12.284-11.748-28.609.462-16.324 12.728-28.122 11.857-12.13 28.16-12.13t28.512 12.21l666.41 667.408q12.209 12.313 12.209 28.139 0 15.826-12.13 27.593-11.798 12.13-28.16 12.413-16.362.283-28.572-11.926Zm-220.4-446.575ZM460-460Z"/></svg>