<svg xmlns="http://www.w3.org/2000/svg" height="20" viewBox="0 -960 960 960" width="20"><path d="M108.043-67.087v-414.009l63.478-186.817q12.957-37.391 48.663-52.228 35.706-14.837 70.751.119L454.739-647.5h108.304v95H434.587l-102.696-44.087-48.848 147.544v381.956h-175Zm211.358-696.5q-34.466 0-59.162-24.696-24.696-24.695-24.696-59.162 0-34.466 24.696-59.011Q284.935-931 319.401-931q34.467 0 59.011 24.544 24.545 24.545 24.545 59.011 0 34.467-24.545 59.162-24.544 24.696-59.011 24.696Zm35.969 595.501v-95.001h496.587v95.001H355.37Zm430.924-137.001q-27.359 0-46.555-19.313-19.195-19.313-19.195-46.673 0-27.359 19.313-46.393T786.53-436.5q27.359 0 46.393 19.152 19.034 19.151 19.034 46.511 0 27.359-19.152 46.555-19.151 19.195-46.511 19.195Zm-350.924 0v-120h-80V-516.5h171.174v80h68.826v-80h91.174v211.413H435.37Z"/></svg>