<svg xmlns="http://www.w3.org/2000/svg" height="20" viewBox="0 -960 960 960" width="20"><path d="m716-274-20.131-20.131v-225.738q0-14-9-23t-23-9H438.131L418-572h182v-96q0-51-36.79-85.5T475-788q-51 0-88.5 35.5T349-668v21l-18-18q0-61 40.5-102T475-808q60.08 0 102.54 40.66Q620-726.68 620-668v96h44q22.7 0 37.35 14.689Q716-542.623 716-519.869V-274ZM295.719-148Q273-148 258-162.5T244-200v-320q0-20 12.606-33.529Q269.212-567.059 289-570L63.132-795.868Q59-800 58.5-802.5T63-810q5-5 8-5t8 5L810-78q4 4 4.5 6.5T810-64q-5 5-7.5 5t-7.256-4.756L698-161q-7 6-20.5 9.5T644-148H295.719ZM690-168 520-338q-6 12-17.5 18.5T480-313q-19.7 0-32.85-13.15Q434-339.3 434-359q0-11 5.5-22t18.5-19L306-552h-10q-14 0-23 9t-9 23v320q0 14 9 23t23 9h394ZM488-370Zm76-56Z"/></svg>