<svg xmlns="http://www.w3.org/2000/svg" height="20" viewBox="0 -960 960 960" width="20"><path d="m787.218-300.218-98.132-98.697v-147.867H541.22l-98.133-98.132h139.39v-79.608q0-43.405-29.702-73.789-29.703-30.384-73.226-30.384-43.102 0-73.412 29.962-30.31 29.962-30.31 72.515v14.044L295-793.001q19.826-61.609 69.413-97.652Q414-926.696 479.435-926.696q83.852 0 142.448 58.421 58.596 58.421 58.596 142.057v81.304h8.738q41.005 0 69.503 28.537 28.498 28.536 28.498 69.595v246.564ZM270.502-78.478q-41.024 0-69.872-28.348t-27.848-69.653v-370.434q0-32.044 16.779-55.66 16.78-23.617 37.569-31.558L84.523-776.738q-12.827-12.827-13.11-27.958-.282-15.13 12.413-27.826 12.696-12.696 29.109-12.696 16.413 0 29.109 12.696l702.913 703.913q12.696 12.696 12.696 27.827 0 15.13-12.696 27.826-12.695 12.696-28.326 12.978-15.63.283-28.082-12.168l-32.679-32.68q-9 9.696-27.152 18.022-18.153 8.327-39.501 8.327H270.502Zm413.28-98.001L538.565-321.696q-9 15-25 23.5t-33 8.5q-29.7 0-50.85-21.15-21.15-21.15-21.15-50.85 0-17 7.5-32.5t23.5-26.5L313.913-546.913h-43.13v370.434h412.999ZM489.13-371.696Zm122.74-104.435Z"/></svg>