<svg xmlns="http://www.w3.org/2000/svg" height="24" viewBox="0 -960 960 960" width="24"><path d="m760-258.615-40-40.001v-236.769q0-10.769-6.923-17.692T695.385-560H458.616l-40.001-40H600v-80q0-50.769-36.038-85.385Q527.923-800 477.154-800q-50.769 0-86.692 34.884-35.923 34.885-35.923 85.116v11.307l-36.847-36.846q8.923-57.923 53.846-96.192Q416.462-840 477.154-840q67.615 0 115.231 46.577Q640-746.846 640-680v80h55.385Q723-600 741.5-581.5 760-563 760-535.385v276.77ZM264.615-120Q237-120 218.5-138.5 200-157 200-184.615v-350.77q0-22.692 14.115-39.846 14.116-17.154 36.346-22.308L42.154-805.846q-5.616-5.615-6-13.769-.385-8.154 6-14.539t14.154-6.385q7.77 0 14.154 6.385L834.154-70.462q5.615 5.616 6 13.77.385 8.153-6 14.538T820-35.769q-7.769 0-14.154-6.385l-83.23-83.23q-9.462 3.461-19.231 4.423Q693.616-120 680-120H264.615ZM686-160 525.154-322.846q-8.692 8.692-19.731 13.154-11.038 4.461-23.423 4.461-25.308 0-42.654-17.346Q422-339.923 422-365.231q0-12.384 4.461-23.423 4.462-11.038 13.154-19.731L286-560h-21.385q-10.769 0-17.692 6.923T240-535.385v350.77q0 10.769 6.923 17.692T264.615-160H686ZM486-360Zm103.308-69.308Z"/></svg>