<svg xmlns="http://www.w3.org/2000/svg" height="20" viewBox="0 -960 960 960" width="20"><path d="M296.479-296.479h286.999q20.387 0 34.694 14.247 14.307 14.246 14.307 34.543 0 20.298-14.307 34.755-14.307 14.457-34.694 14.457h-336q-20.387 0-34.694-14.307-14.307-14.307-14.307-34.694v-336q0-20.387 14.247-34.694 14.246-14.307 34.544-14.307 20.297 0 34.754 14.307 14.457 14.307 14.457 34.694v286.999Zm201.044-201.044h286.999q20.387 0 34.694 14.247 14.307 14.246 14.307 34.543 0 20.298-14.307 34.755-14.307 14.457-34.694 14.457h-336q-20.387 0-34.694-14.307-14.307-14.307-14.307-34.694v-336q0-20.387 14.247-34.694 14.246-14.307 34.543-14.307 20.298 0 34.755 14.307 14.457 14.307 14.457 34.694v286.999Z"/></svg>