<svg xmlns="http://www.w3.org/2000/svg" height="20" viewBox="0 -960 960 960" width="20"><path d="M303-303h277q24.3 0 41.65 17.289 17.35 17.29 17.35 41.5Q639-220 621.65-202.5T580-185H244q-24.3 0-41.65-17.35Q185-219.7 185-244v-336q0-24.3 17.289-41.65 17.29-17.35 41.5-17.35Q268-639 285.5-621.65T303-580v277Zm208-208h277q24.3 0 41.65 17.289 17.35 17.29 17.35 41.5Q847-428 829.65-410.5T788-393H452q-24.3 0-41.65-17.35Q393-427.7 393-452v-336q0-24.3 17.289-41.65 17.29-17.35 41.5-17.35Q476-847 493.5-829.65T511-788v277Z"/></svg>