<svg xmlns="http://www.w3.org/2000/svg" height="20" viewBox="0 -960 960 960" width="20"><path d="M408.871-385.13v-193.696q-62.826-2.261-105.674-45.957-42.848-43.696-42.848-105.391 0-63.392 45.487-108.218t109.886-44.826h312.803v89.522h-73.696v408.566h-90.088v-408.566h-66.348v408.566h-89.522ZM297.827-196.652l57 57-64.001 64L126.477-240l165.48-165.479 61.739 61.739-57.565 58.131h539.087v88.957H297.827Zm111.044-470.001v-127.043q-26.043 0-42.521 18.722t-16.478 45.012q0 26.961 16.628 45.135t42.371 18.174Zm0-63.521Z"/></svg>