<svg xmlns="http://www.w3.org/2000/svg" height="20" viewBox="0 -960 960 960" width="20"><path d="M164.615-232q-23.354 0-39.985-16.631Q108-265.261 108-288.615v-382.77q0-23.354 16.63-39.984Q141.261-728 164.615-728h382.77q23.354 0 39.984 16.631Q604-694.739 604-671.385v382.77q0 23.354-16.631 39.984Q570.739-232 547.385-232h-382.77Zm528.074-284q-7.504 0-12.097-4.592Q676-525.185 676-532.688v-178.624q0-7.504 4.592-12.096Q685.185-728 692.689-728h142.623q7.504 0 12.096 4.592Q852-718.816 852-711.312v178.624q0 7.503-4.592 12.096Q842.816-516 835.312-516H692.689ZM708-548h112v-148H708v148ZM164.615-264h382.77q10.769 0 17.692-6.923T572-288.615v-382.77q0-10.769-6.923-17.692T547.385-696h-382.77q-10.769 0-17.692 6.923T140-671.385v382.77q0 10.769 6.923 17.692T164.615-264Zm528.074 32q-7.504 0-12.097-4.592Q676-241.184 676-248.688v-178.624q0-7.503 4.592-12.096Q685.185-444 692.689-444h142.623q7.504 0 12.096 4.592Q852-434.815 852-427.312v178.624q0 7.504-4.592 12.096Q842.816-232 835.312-232H692.689ZM708-264h112v-148H708v148Zm-568 0v-432 432Zm568-284v-148 148Zm0 284v-148 148Zm-256.091-92q11.629 0 19.86-8.14T480-383.91q0-11.629-8.14-19.859Q463.719-412 452.09-412t-19.859 8.14Q424-395.72 424-384.09q0 11.629 8.14 19.859Q440.28-356 451.909-356Zm-176.755-20.615 186-186q5.615-5.359 5.615-11.141 0-5.783-5.615-11.398-5.616-5.615-11.398-5.615t-11.141 5.615L250.846-397.385q-5.615 5.616-4.731 10.385.885 4.769 6.5 10.385Q258.231-371 264.013-371t11.141-5.615ZM259.909-548q11.629 0 19.86-8.14Q288-564.281 288-575.909q0-11.63-8.14-19.86Q271.719-604 260.09-604t-19.859 8.14Q232-587.719 232-576.091q0 11.63 8.14 19.86Q248.28-548 259.909-548Z"/></svg>