<svg xmlns="http://www.w3.org/2000/svg" height="24" viewBox="0 -960 960 960" width="24"><path d="M178-252q-24.75 0-42.375-17.625T118-312v-336q0-24.75 17.625-42.375T178-708h336q24.75 0 42.375 17.625T574-648v336q0 24.75-17.625 42.375T514-252H178Zm506.495-268Q671-520 662.5-528.5q-8.5-8.5-8.5-21.995v-127.01q0-13.495 8.5-21.995 8.5-8.5 21.995-8.5h127.01q13.495 0 21.995 8.5 8.5 8.5 8.5 21.995v127.01q0 13.495-8.5 21.995-8.5 8.5-21.995 8.5h-127.01Zm0 268Q671-252 662.5-260.5q-8.5-8.5-8.5-21.995v-127.01q0-13.495 8.5-21.995 8.5-8.5 21.995-8.5h127.01q13.495 0 21.995 8.5 8.5 8.5 8.5 21.995v127.01q0 13.495-8.5 21.995-8.5 8.5-21.995 8.5h-127.01Zm-238.613-94Q460-346 470-355.882q10-9.883 10-24Q480-394 470.118-404q-9.883-10-24-10Q432-414 422-404.118q-10 9.883-10 24Q412-366 421.882-356q9.883 10 24 10ZM254-369l204-204q4-3.667 4-9.333 0-5.667-4-9.667t-9.667-4q-5.666 0-9.333 4L234-387q-4 4-3.5 9t4.5 9q4 4 9.667 4 5.666 0 9.333-4Zm-8.118-177Q260-546 270-555.882q10-9.883 10-24Q280-594 270.118-604q-9.883-10-24-10Q232-614 222-604.118q-10 9.883-10 24Q212-566 221.882-556q9.883 10 24 10Z"/></svg>