<svg xmlns="http://www.w3.org/2000/svg" height="20" viewBox="0 -960 960 960" width="20"><path d="M178-244q-21.45 0-36.725-15.275Q126-274.55 126-296v-368q0-21.45 15.275-36.725Q156.55-716 178-716h368q21.45 0 36.725 15.275Q598-685.45 598-664v368q0 21.45-15.275 36.725Q567.45-244 546-244H178Zm506.495-272q-6.695 0-10.595-3.9-3.9-3.9-3.9-10.595v-171.01q0-6.695 3.9-10.595 3.9-3.9 10.595-3.9h135.01q6.695 0 10.595 3.9 3.9 3.9 3.9 10.595v171.01q0 6.695-3.9 10.595-3.9 3.9-10.595 3.9h-135.01ZM690-536h124v-160H690v160ZM178-264h368q14 0 23-9t9-23v-368q0-14-9-23t-23-9H178q-14 0-23 9t-9 23v368q0 14 9 23t23 9Zm506.495 20q-6.695 0-10.595-3.9-3.9-3.9-3.9-10.595v-171.01q0-6.695 3.9-10.595 3.9-3.9 10.595-3.9h135.01q6.695 0 10.595 3.9 3.9 3.9 3.9 10.595v171.01q0 6.695-3.9 10.595-3.9 3.9-10.595 3.9h-135.01ZM690-264h124v-160H690v160Zm-544 0v-432 432Zm544-272v-160 160Zm0 272v-160 160Zm-232.118-98q9.118 0 15.618-6.382 6.5-6.383 6.5-15.5 0-9.118-6.382-15.618-6.383-6.5-15.5-6.5-9.118 0-15.618 6.382-6.5 6.383-6.5 15.5 0 9.118 6.382 15.618 6.383 6.5 15.5 6.5ZM277-381l186-186q4-3.667 4-6.833 0-3.167-4-7.167t-7.167-4q-3.166 0-6.833 4L261-393q-4 4-3 6t5 6q4 4 7.167 4 3.166 0 6.833-4Zm-11.118-173q9.118 0 15.618-6.382 6.5-6.383 6.5-15.5 0-9.118-6.382-15.618-6.383-6.5-15.5-6.5-9.118 0-15.618 6.382-6.5 6.383-6.5 15.5 0 9.118 6.382 15.618 6.383 6.5 15.5 6.5Z"/></svg>