<svg xmlns="http://www.w3.org/2000/svg" height="20" viewBox="0 -960 960 960" width="20"><path d="M134.696-180.695q-41.004 0-69.503-28.498-28.498-28.498-28.498-69.503v-402.608q0-41.005 28.498-69.503 28.499-28.498 69.503-28.498h402.608q41.005 0 69.503 28.498 28.498 28.498 28.498 69.503v402.608q0 41.005-28.498 69.503-28.498 28.498-69.503 28.498H134.696Zm585.304-324q-15.005 0-25.155-10.15T684.695-540v-204q0-15.005 10.15-25.155T720-779.305h168q15.005 0 25.155 10.15T923.305-744v204q0 15.005-10.15 25.155T888-504.695H720Zm57.044-92.349h53.912v-89.912h-53.912v89.912Zm-648 324h413.912v-413.912H129.044v413.912ZM720-180.695q-15.005 0-25.155-10.15T684.695-216v-204q0-15.005 10.15-25.155T720-455.305h168q15.005 0 25.155 10.15T923.305-420v204q0 15.005-10.15 25.155T888-180.695H720Zm57.044-92.349h53.912v-89.912h-53.912v89.912Zm-648 0v-413.912 413.912Zm648-324v-89.912 89.912Zm0 324v-89.912 89.912ZM432-336q20 0 34-14t14-34q0-20-14-34t-34-14q-20 0-34 14t-14 34q0 20 14 34t34 14Zm-163-26 186-186q11-11 11-25.5T455-599q-11-11-25.5-11T404-599L217-412q-11 11-10.5 25t11.5 25q11 11 25.5 11t25.5-11Zm-29-166q20 0 34-14t14-34q0-20-14-34t-34-14q-20 0-34 14t-14 34q0 20 14 34t34 14Z"/></svg>