<svg xmlns="http://www.w3.org/2000/svg" height="20" viewBox="0 -960 960 960" width="20"><path d="M172-126q-53 0-89.5-36.5T46-252v-456q0-53 36.5-89.5T172-834h616q53 0 89.5 36.5T914-708v456q0 53-36.5 89.5T788-126H172Zm0-126h616v-456H172v456Zm0 0v-456 456Zm145.121-113q10.121 0 17.5-8T342-391v-165.525q0-11.59-7.63-19.033Q326.74-583 315.55-583q-6.982 0-13.266 2T290-575l-38 28q-6.7 6.19-7.85 15.095-1.15 8.905 4.136 15.191 5.285 6.714 13.571 8.214T277-513l14-10v133q0 10.174 8 17.587T317.121-365ZM423-365h88.088q8.765 0 14.339-6.343 5.573-6.343 5.573-14.8 0-8.857-5.67-14.357t-14.564-5.5H455h1q12.438-12 24.719-24.5T505-458q13-17 22-31.5t9-29.5q0-30-20-48t-56-18q-17.024 0-32.345 7.953-15.322 7.954-24.488 20.187Q398-550 401-542.5q3 7.5 12.5 12.5 8.5 4 17 1.5t15.75-7.794q4.375-2.412 8.562-3.559Q459-541 461.913-541q8.881 0 15.984 6.5T485-516.571q0 10.476-5.5 19.023Q474-489 469-484q-8.844 8.688-17.594 17.688-8.75 9-17.406 17.312l-28.8 27.84Q404-420 398-404.25v15.75q0 10.5 7.1 17T423-365Zm228.129 3Q680-362 704-381q24-19 24-49 0-16.565-12.5-30.283Q703-474 687-476v-2q15-1 24.5-16.5t9.5-29.703q0-24.557-23-42.177T647-584q-14.407 0-29.204 5.5Q603-573 593.062-561.333 587-554 589-544.5q2 9.5 13 13.5 7.933 5 16.367.625Q626.8-534.75 635-539q3-1 5.842-1H647q9.267 0 16.133 6Q670-528 670-518q0 8-6.778 14T648-498q-8.4 0-14.7 6.3-6.3 6.3-6.3 14.7 0 9.6 6.9 15.3 6.9 5.7 16.1 5.7 12 0 19.5 6.7t7.5 19.819Q677-417 670.028-411q-6.972 6-19.028 6-8 0-15-3t-11-9q-5.179-6-12.009-8.5t-14.116.5Q592-422 588-415.152q-4 6.848 0 14.152 9.653 18.073 26.827 28.537Q632-362 651.129-362Z"/></svg>