<svg xmlns="http://www.w3.org/2000/svg" height="20" viewBox="0 -960 960 960" width="20"><path d="M628.697-82.52q-14.957 14.957-32.495 21.652-17.539 6.696-36.892 6.696t-36.875-6.696q-17.522-6.695-32.479-21.652l-43.086-43.652q-14.392-13.391-21.936-27.935-7.543-14.543-8.674-31.37-1.13-16.826 4.37-34.717 5.5-17.892 17.196-33.979l-2.261 3.391L80.737-760.045l176.001-175.436 543.301 542.736Q814.784-378 821.48-360.461q6.696 17.538 6.696 36.892 0 19.353-6.696 36.875t-21.652 32.478L628.697-82.52ZM505.652-322.565l112.913-112.913L256.738-796.74l-48.086 47.522 297 426.653Zm53.392 170.957 171.13-171.696-41.956-42.521-171.695 171.696 42.521 42.521Zm-53.392-170.957 112.913-112.913-112.913 112.913Z"/></svg>