<svg xmlns="http://www.w3.org/2000/svg" height="20" viewBox="0 -960 960 960" width="20"><path d="M590.231-134.692q-9.462 9.461-19.99 13.308-10.528 3.846-20.846 3.846t-20.241-3.846q-9.923-3.847-19.385-13.308l-44.846-44.077q-9.462-8.462-13.308-18.539-3.846-10.077-3.077-21.769.77-11.692 6.27-23.885 5.5-12.192 14.73-20.884l4.616-3.846-326-468L272-859.539l481.519 481.52q9.25 9.25 13.096 19.778 3.847 10.528 3.847 20.846t-3.847 20.241q-3.846 9.923-13.307 19.385L590.231-134.692Zm-93.308-156.539L646.461-440 272-814.461l-82.154 82.153 307.077 441.077Zm36.154 134q7.692 6.923 17.692 6.923t16.923-6.923l163.077-163.077q6.923-6.923 6.923-16.923 0-10-6.923-17.692L669-417.461 488.231-236.692q-7.692 7.692-7.692 18.077 0 10.384 7.692 17.307l44.846 44.077Zm-36.154-134L646.461-440 496.923-291.231Z"/></svg>