<svg xmlns="http://www.w3.org/2000/svg" height="24" viewBox="0 -960 960 960" width="24"><path d="M608.231-125.692q-9.462 9.461-21.654 14.308-12.192 4.846-24.346 4.846t-24.077-4.846q-11.923-4.847-21.385-14.308l-49.846-49.077q-9.462-9.462-13.808-21.039-4.346-11.577-4.577-23.269-.23-11.692 4.27-23.385 4.5-11.692 12.73-21.384l10.616-11.846-326-466L280-871.539l491.308 491.308q9.461 9.462 14.307 21.654 4.847 12.192 4.847 24.346t-4.847 24.077q-4.846 11.923-14.307 21.385L608.231-125.692ZM503.923-304.231 648.461-447 280-815.461l-78.154 78.153 302.077 433.077Zm42.154 150q7.692 6.923 17.692 6.923t16.923-6.923l162.077-162.077q6.923-6.923 6.923-16.923 0-10-6.923-17.692L676-419.461 495.231-238.692q-7.692 7.692-7.692 18.077 0 10.384 7.692 17.307l50.846 49.077Zm-42.154-150L648.461-447 503.923-304.231Z"/></svg>