<svg xmlns="http://www.w3.org/2000/svg" height="20" viewBox="0 -960 960 960" width="20"><path d="m388-563 69-114-32-53q-11-19-34.5-19t-34.991 19.066L292-621l96 58Zm302.86 199L622-478l97-56 52 85q7 13 8 27t-5 27q-7 16-21 23.5t-30.312 7.5H690.86ZM592-158 480-270l112-112v58h146l-40.4 80.8q-7.8 14-21.5 22.6-13.7 8.6-29.1 8.6h-55v54Zm-284.952-54Q294-212 282.5-218.5 271-225 265-237.909 260-249 260.5-260.5q.5-11.5 6.7-22.542L291.4-324H424v112H307.048ZM232-304l-46-91q-7-14-5.5-28t8.056-26L205-477l-48-29 154-38 38 154-48-29-69 115Zm410-251-154.2-38.964 48.2-28.773L442-780h98.8q14.8 0 27.1 7.346T588-753l44 73 48-29-38 154Z"/></svg>