<svg xmlns="http://www.w3.org/2000/svg" height="20" viewBox="0 -960 960 960" width="20"><path d="m382.923-569 72.923-120.923-34.538-57.385q-11.693-19.923-36.116-19.923-24.423 0-36.493 19.973l-68.238 116.335L382.923-569Zm320.662 211.462-73.046-120.924L734-538.154l55 90.077q7.693 13.692 8.577 28.616.885 14.923-5.577 28.846-7.461 16.692-22.269 24.884-14.808 8.193-32.202 8.193h-33.944Zm-104.2 218.923L480-258l119.385-119.385v61.693h154.769l-43.077 86.154q-8.308 14.923-22.884 24.077-14.577 9.154-31.039 9.154h-57.769v57.692Zm-302.733-57.692q-13.96 0-26.268-7.077-12.307-7.077-18.769-20.7-5.461-11.762-4.846-24.07.615-12.307 7.231-24.032l25.769-43.506h140.539v119.385H296.652ZM217-293.615l-49-97q-7.231-14.693-5.847-29.616 1.385-14.923 8.505-27.846l17.265-29.385-51.231-30.846 164.154-40.538 40.538 164.154-51.23-30.846L217-293.615Zm434.923-266.693-164.308-41.51L539-632.49l-99.769-166.895h105.308q15.769 0 28.923 7.843 13.154 7.843 21.461 21.003l46.308 76.923 51.231-30.846-40.539 164.154Z"/></svg>