<svg xmlns="http://www.w3.org/2000/svg" height="24" viewBox="0 -960 960 960" width="24"><path d="M378.461-453.846h67.693v-94.616h67.692v94.616h67.693v-162.308L480-683.846l-101.539 67.692v162.308ZM480-172.923q112.769-98.154 178.308-199.654 65.538-101.5 65.538-175.577 0-109.769-69.5-181.192T480-800.769q-104.846 0-174.346 71.423t-69.5 181.192q0 74.077 65.538 175.577Q367.231-271.077 480-172.923Zm0 53.692Q339-243.923 267.577-351.808q-71.423-107.884-71.423-196.346 0-126.923 82.654-209.385Q361.461-840 480-840t201.192 82.461q82.654 82.462 82.654 209.385 0 88.462-71.423 196.346Q621-243.923 480-119.231Zm0-436.154Z"/></svg>