<svg xmlns="http://www.w3.org/2000/svg" height="24" viewBox="0 -960 960 960" width="24"><path d="M480.118-230Q376-230 303-302.882q-73-72.883-73-177Q230-584 302.882-657q72.883-73 177-73Q584-730 657-657.118q73 72.883 73 177Q730-376 657.118-303q-72.883 73-177 73ZM439-334v-48l-34 34q8.14 4.909 16.57 8.455Q430-336 439-334Zm82 0q9.067-1.68 17.567-5.32 8.5-3.64 16.433-8.68l-34-34v48Zm92-70q5-8 8-17t5-18h-48l35 35Zm-35-117h48q-1.68-9.067-5.32-17.567-3.64-8.5-8.68-16.433l-34 34Zm-57-57 34-34q-8.14-4.909-16.57-8.455Q530-624 521-626v48Zm-41 128q12 0 21-9t9-21q0-12-9-21t-21-9q-12 0-21 9t-9 21q0 12 9 21t21 9Zm-41-128v-48q-9.067 1.68-17.567 5.32-8.5 3.64-16.433 8.68l34 34Zm-105 57h48l-34-34q-5.04 7.933-8.68 16.433-3.64 8.5-5.32 17.567Zm13 116 35-34h-48q1.56 9.067 4.94 17.567 3.38 8.5 8.06 16.433ZM86-86v-788h788v788H86Zm126-126h536v-536H212v536Zm0 0v-536 536Z"/></svg>