<svg xmlns="http://www.w3.org/2000/svg" height="20" viewBox="0 -960 960 960" width="20"><path d="M480-278.616q-84.23 0-142.807-58.577Q278.616-395.77 278.616-480q0-84.23 58.577-142.999Q395.77-681.768 480-681.768q84.23 0 142.999 58.769Q681.768-564.23 681.768-480q0 84.23-58.769 142.807Q564.23-278.616 480-278.616Zm-17.846-52.845v-105.54L388.153-363q15.693 12.462 34.231 20.693 18.539 8.231 39.77 10.846Zm35.692 0q21.231-2.615 39.588-10.654t34.413-20.5l-74.001-74.001v105.155Zm99.539-56.692q12.461-16.056 20.5-34.413 8.039-18.357 10.654-39.588H523.384l74.001 74.001Zm-74.001-109.693h105.155q-2.615-21.231-10.654-39.588t-20.5-34.413l-74.001 74.001Zm-25.538-25.153L571.847-597q-15.693-12.462-34.231-20.693-18.539-8.231-39.77-10.846v105.54Zm-18.057 72.46q12.518 0 21.095-8.366 8.577-8.366 8.577-20.884t-8.366-21.095q-8.366-8.577-20.884-8.577t-21.095 8.366q-8.577 8.366-8.577 20.884t8.366 21.095q8.366 8.577 20.884 8.577Zm-17.635-72.845v-105.155q-21.231 2.615-39.588 10.654t-34.413 20.5l74.001 74.001Zm-130.693 25.538h105.155l-74.001-74.001q-12.461 16.056-20.5 34.413-8.039 18.357-10.654 39.588Zm31.154 109.693 74.001-74.001h-105.54q3 21.231 11.231 39.588t20.308 34.413ZM164.001-164.001v-631.998h631.998v631.998H164.001ZM216-216h528v-528H216v528Zm0 0v-528 528Z"/></svg>