<svg xmlns="http://www.w3.org/2000/svg" height="20" viewBox="0 -960 960 960" width="20"><path d="M180-144q-15.3 0-25.65-10.35Q144-164.7 144-180q0-14 10.35-24.849T180-215.698h36V-744q0-29.7 21.15-50.85Q258.3-816 288-816h384q29.7 0 50.85 21.15Q744-773.7 744-744v528.302h36q15.3 0 25.65 10.849Q816-194 816-179.5t-10.35 25Q795.3-144 780-144H180Zm492-72v-528H505v-32q41 7 68 42.5t27 76.5v392q0 29-19.5 50T532-193v-23h140ZM443.789-444Q459-444 469.5-454.289q10.5-10.29 10.5-25.5Q480-495 469.711-505.5q-10.29-10.5-25.5-10.5Q429-516 418.5-505.711q-10.5 10.29-10.5 25.5Q408-465 418.289-454.5q10.29 10.5 25.5 10.5Z"/></svg>