<svg xmlns="http://www.w3.org/2000/svg" height="20" viewBox="0 -960 960 960" width="20"><path d="M170-111q-24.3 0-41.65-17.35Q111-145.7 111-170q0-23 17.35-40.849 17.35-17.849 41.65-17.849h13V-721q0-49.7 34.15-83.85Q251.3-839 301-839h358q49.7 0 83.85 34.15Q777-770.7 777-721v492.302h13q24.3 0 41.65 17.849Q849-193 849-169.5q0 23.5-17.35 41T790-111H170Zm489-118v-492H475v-85q66 10 109 65.5T627-619v346q0 47-30.5 80T520-156v-73h139ZM425.789-426Q448-426 464-442.289q16-16.29 16-37.5Q480-502 464.211-518q-15.79-16-38-16Q405-534 388.5-518.211q-16.5 15.79-16.5 38Q372-459 388.289-442.5q16.29 16.5 37.5 16.5Z"/></svg>