<svg xmlns="http://www.w3.org/2000/svg" height="24" viewBox="0 -960 960 960" width="24"><path d="M240-157q-25.5 0-42.75-17.25T180-217q0-25.5 17.25-42.75T240-277q25.5 0 42.75 17.25T300-217q0 25.5-17.25 42.75T240-157Zm480 0q-25.5 0-42.75-17.25T660-217q0-25.5 17.25-42.75T720-277q25.5 0 42.75 17.25T780-217q0 25.5-17.25 42.75T720-157ZM360-5q-25.5 0-42.75-17.25T300-65q0-25.5 17.25-42.75T360-125q25.5 0 42.75 17.25T420-65q0 25.5-17.25 42.75T360-5Zm120-152q-25.5 0-42.75-17.25T420-217q0-25.5 17.25-42.75T480-277q25.5 0 42.75 17.25T540-217q0 25.5-17.25 42.75T480-157ZM600-5q-25.5 0-42.75-17.25T540-65q0-25.5 17.25-42.75T600-125q25.5 0 42.75 17.25T660-65q0 25.5-17.25 42.75T600-5ZM300-312q-100 0-171.5-71.5T57-555q0-89 57-156.5T256-794q36-57 95.5-90.5T479.962-918Q574-918 645-860.5 716-803 736-715q72 12 119.5 68T903-515q0 84-59.208 143.5Q784.583-312 700-312H300Zm0-126h400q32.34 0 54.67-22.261 22.33-22.26 22.33-54.5Q777-547 754.67-569.5T700-592h-83v-63q0-56.513-40.221-96.756Q536.558-792 480.077-792 439-792 405-769.5T354-710l-15.714 38H299q-47.913 1.667-81.957 35.417Q183-602.833 183-555.333 183-507 217.264-472.5 251.529-438 300-438Zm180-177Z"/></svg>