<svg xmlns="http://www.w3.org/2000/svg" height="20" viewBox="0 -960 960 960" width="20"><path d="M264.211-231.385q-8.673 0-14.75-5.866-6.076-5.866-6.076-14.538 0-8.673 5.866-14.75 5.866-6.076 14.538-6.076 8.673 0 14.75 5.866 6.076 5.866 6.076 14.538 0 8.673-5.866 14.75-5.866 6.076-14.538 6.076Zm432 0q-8.673 0-14.75-5.866-6.076-5.866-6.076-14.538 0-8.673 5.866-14.75 5.866-6.076 14.538-6.076 8.673 0 14.75 5.866 6.076 5.866 6.076 14.538 0 8.673-5.866 14.75-5.866 6.076-14.538 6.076Zm-324 144q-8.673 0-14.75-5.866-6.076-5.866-6.076-14.538 0-8.673 5.866-14.75 5.866-6.076 14.538-6.076 8.673 0 14.75 5.866 6.076 5.866 6.076 14.538 0 8.673-5.866 14.75-5.866 6.076-14.538 6.076Zm108-144q-8.673 0-14.75-5.866-6.076-5.866-6.076-14.538 0-8.673 5.866-14.75 5.866-6.076 14.538-6.076 8.673 0 14.75 5.866 6.076 5.866 6.076 14.538 0 8.673-5.866 14.75-5.866 6.076-14.538 6.076Zm108 144q-8.673 0-14.75-5.866-6.076-5.866-6.076-14.538 0-8.673 5.866-14.75 5.866-6.076 14.538-6.076 8.673 0 14.75 5.866 6.076 5.866 6.076 14.538 0 8.673-5.866 14.75-5.866 6.076-14.538 6.076ZM295-356q-77.308 0-128.154-55.121Q116-466.242 116-545q0-71.615 49.808-122.231 49.807-50.615 124.5-57.308 28.867-55.814 78.933-87.637Q419.308-844 479.279-844q81.778 0 140.211 54.115 58.433 54.116 68.587 136.346 71.615 1.462 113.769 45.873Q844-563.255 844-503.768q0 61.307-43.167 104.537Q757.667-356 696-356H295Z"/></svg>