<svg xmlns="http://www.w3.org/2000/svg" height="24" viewBox="0 -960 960 960" width="24"><path d="M240-220q-8.5 0-14.25-5.75T220-240q0-8.5 5.75-14.25T240-260q8.5 0 14.25 5.75T260-240q0 8.5-5.75 14.25T240-220Zm480 0q-8.5 0-14.25-5.75T700-240q0-8.5 5.75-14.25T720-260q8.5 0 14.25 5.75T740-240q0 8.5-5.75 14.25T720-220ZM360-60q-8.5 0-14.25-5.75T340-80q0-8.5 5.75-14.25T360-100q8.5 0 14.25 5.75T380-80q0 8.5-5.75 14.25T360-60Zm120-160q-8.5 0-14.25-5.75T460-240q0-8.5 5.75-14.25T480-260q8.5 0 14.25 5.75T500-240q0 8.5-5.75 14.25T480-220ZM600-60q-8.5 0-14.25-5.75T580-80q0-8.5 5.75-14.25T600-100q8.5 0 14.25 5.75T620-80q0 8.5-5.75 14.25T600-60ZM300-346q-81 0-137.5-56.5T106-540q0-76 51.5-131T287-734q29.091-56.066 79.545-88.033Q417-854 479.615-854 565-854 625.5-797 686-740 695-655q75 4 117 49.5t42 105.801Q854-436 809.083-391 764.167-346 700-346H300Z"/></svg>