<svg xmlns="http://www.w3.org/2000/svg" height="24" viewBox="0 -960 960 960" width="24"><path d="M252-86q-53 0-89.5-36.5T126-212v-342q0-29.755 13-56.377Q152-637 176-655l228-171q34-26 76-26t76 26l228 171q24 18 37 44.623 13 26.622 13 56.377v342q0 53-36.5 89.5T708-86H252Zm0-126h456v-342L480-725 252-554v342Zm228-257ZM360-280h160q17 0 28.5-11.5T560-320v-40l57 30q7.931 5 15.466-.222Q640-335.444 640-344v-112q0-8.556-7.534-13.778Q624.931-475 617-470l-57 30v-40q0-17-11.5-28.5T520-520H360q-17 0-28.5 11.5T320-480v160q0 17 11.5 28.5T360-280Z"/></svg>