<svg xmlns="http://www.w3.org/2000/svg" height="20" viewBox="0 -960 960 960" width="20"><path d="M252.783-276.826q50.869-34 80.456-86.076 29.587-52.075 29.587-117.021 0-61.947-29.587-116.099t-81.456-86.152q-37 42.382-57 94.161-20 51.778-20 108.013 0 56.235 20 108.513 20 52.279 58 94.661Zm226.726 102.043q46.665 0 90.186-13.152 43.522-13.152 82.957-38.891-59.304-46-93.957-110.37Q524.043-401.565 524.043-480q0-80.435 34.652-143.804 34.653-63.37 93.957-109.37-39.435-26.739-82.885-39.391-43.45-12.652-90.261-12.652-46.81 0-90.549 13.435-43.739 13.434-82.174 40.173 59.304 45 93.674 108.431 34.369 63.431 34.369 143.239 0 77.809-34.369 142.178-34.37 64.37-93.674 109.37 38.435 26.739 82.248 40.173 43.813 13.435 90.478 13.435Zm228.504-101.913q37.769-41.434 57.487-94.023 19.717-52.589 19.717-109.152 0-56.564-19.217-109.281-19.218-52.718-56.987-94.152-53.665 31-83.318 86.217Q596.043-541.87 596.043-480q0 64.87 29.652 117.587 29.653 52.717 82.318 85.717ZM480-480Zm-.047 403.218q-82.91 0-156.301-31.413-73.392-31.413-128.718-86.739-55.326-55.326-86.739-128.765-31.413-73.438-31.413-156.348 0-83.91 31.413-156.801 31.413-72.892 86.739-128.218 55.326-55.326 128.765-86.739 73.438-31.413 156.348-31.413 83.91 0 156.801 31.413 72.892 31.413 128.218 86.739 55.326 55.326 86.739 128.265 31.413 72.938 31.413 156.848 0 82.91-31.413 156.301-31.413 73.392-86.739 128.718-55.326 55.326-128.265 86.739-72.938 31.413-156.848 31.413Z"/></svg>