<svg xmlns="http://www.w3.org/2000/svg" height="20" viewBox="0 -960 960 960" width="20"><path d="M480.28-485.385q26.643 0 45.335-18.973 18.692-18.972 18.692-45.615 0-26.642-18.972-45.334-18.973-18.692-45.615-18.692-26.643 0-45.335 18.972-18.692 18.973-18.692 45.615 0 26.643 18.972 45.335 18.973 18.692 45.615 18.692ZM480-115.617Q333.026-240.57 259.552-348.208q-73.474-107.638-73.474-198.869 0-122.46 82.077-209.691 82.076-87.231 211.345-87.231t211.845 87.231q82.577 87.231 82.577 209.691 0 91.231-72.961 198.423Q627.999-241.463 480-115.617Z"/></svg>