<svg xmlns="http://www.w3.org/2000/svg" height="20" viewBox="0 -960 960 960" width="20"><path d="M240.118-74Q201-74 173.5-101.382q-27.5-27.383-27.5-66.5Q146-207 173.425-234.5 200.851-262 240.03-262q10.97 0 25.97 4 15 4 28 11l113-141q-21-21-30.5-46.5T374-489l-165-52q-10 27-35.286 43-25.285 16-53.714 16-39.167 0-66.583-27.382Q26-536.765 26-575.882 26-616 52.882-643q26.883-27 67-27Q160-670 187-643.083q27 26.916 27 67.083 0 7-.5 10.5t-.5 7.5l164 54q11-28 36-48t59-25v-168q-41-3-63.5-32T386-840.413Q386-879 413.382-906.5q27.383-27.5 66.5-27.5Q519-934 546.5-906.583 574-879.167 574-840q0 34-22 63t-64 32v168q35 4 59 24t36 49l164-54q-1-5-1-8v-10q0-39.167 27.382-66.583Q800.765-670 839.882-670 879-670 906.5-642.618q27.5 27.383 27.5 66.5Q934-537 906.583-509.5 879.167-482 840-482q-28.106 0-53.053-15.5Q762-513 751-541l-165 52q7 29-2.5 55T553-389l113 142q13-6 28-10.5t25.97-4.5q39.179 0 66.605 27.382Q814-207.235 814-168.118 814-129 786.618-101.5 759.235-74 720.118-74 681-74 653.5-101.417 626-128.833 626-168q0-18.193 6.5-35.096Q639-220 655-236L542-378q-25 19-61 19t-62-19L305-236q15 16 22 32.904 7 16.903 7 35.096 0 39.167-27.382 66.583Q279.235-74 240.118-74Z"/></svg>