<svg xmlns="http://www.w3.org/2000/svg" height="24" viewBox="0 -960 960 960" width="24"><path d="M240.118-66Q201-66 173.5-93.382q-27.5-27.383-27.5-66.5Q146-199 173.425-226.5 200.851-254 240.03-254q10.97 0 23.97 3.5 13 3.5 24 9.5l115-143q-20-21-27-46t-2-51l-170-56q-12 23-34.286 37-22.285 14-49.714 14-39.167 0-66.583-27.382Q26-540.765 26-579.882 26-619 53.382-646.5q27.383-27.5 66.5-27.5Q159-674 186.5-646.583 214-619.167 214-580q0 6-.5 9t-.5 6l169 59q11-22 32.5-39t51.5-22v-180q-38-6-59-33.5t-21-59.913Q386-879 413.382-906.5q27.383-27.5 66.5-27.5Q519-934 546.5-906.583 574-879.167 574-840q0 32-21 59.5T494-747v180q30 5 51 22t33 39l169-59q-1-4-1-6.5v-8.5q0-39.167 27.382-66.583Q800.765-674 839.882-674 879-674 906.5-646.618q27.5 27.383 27.5 66.5Q934-541 906.583-513.5 879.167-486 840-486q-27.106 0-49.553-14Q768-514 756-537l-170 56q5 26-2 51t-27 45l115 143q11-5 24-8.5t23.97-3.5q39.179 0 66.605 27.382Q814-199.235 814-160.118 814-121 786.618-93.5 759.235-66 720.118-66 681-66 653.5-93.417 626-120.833 626-160q0-17.193 5.5-33.096Q637-209 651-223L536-368q-23 16-55.5 16T424-368L309-223q13 14 19 29.904 6 15.903 6 33.096 0 39.167-27.382 66.583Q279.235-66 240.118-66Z"/></svg>