<svg xmlns="http://www.w3.org/2000/svg" height="20" viewBox="0 -960 960 960" width="20"><path d="M192.282-506Q163-506 142.5-526.218q-20.5-20.219-20.5-49.5Q122-605 142.218-625.5q20.219-20.5 49.5-20.5Q221-646 241.5-625.782q20.5 20.219 20.5 49.5Q262-547 241.782-526.5q-20.219 20.5-49.5 20.5Zm168-144Q331-650 310.5-670.218q-20.5-20.219-20.5-49.5Q290-749 310.218-769.5q20.219-20.5 49.5-20.5Q389-790 409.5-769.782q20.5 20.219 20.5 49.5Q430-691 409.782-670.5q-20.219 20.5-49.5 20.5Zm240 0Q571-650 550.5-670.218q-20.5-20.219-20.5-49.5Q530-749 550.218-769.5q20.219-20.5 49.5-20.5Q629-790 649.5-769.782q20.5 20.219 20.5 49.5Q670-691 649.782-670.5q-20.219 20.5-49.5 20.5Zm178 151Q747-499 724.5-521.218q-22.5-22.219-22.5-53.5Q702-606 724.218-628.5q22.219-22.5 53.5-22.5Q809-651 831.5-628.782q22.5 22.219 22.5 53.5Q854-544 831.782-521.5q-22.219 22.5-53.5 22.5ZM285-121q-28 0-47-23.267T219-202q0-43 30.5-71.5T308-334q26-31 46.5-61.5T397-457q17-21 37.141-33 20.142-12 45.859-12 26.826 0 48.413 12Q550-478 565-456q23 31 42.5 60.5T652-335q27 33 58.5 61t31.5 72.323q0 33.143-19.5 56.41Q703-122 674-122q-50 0-97-12t-97-12q-50 0-97.5 12.5T285-121Z"/></svg>