<svg xmlns="http://www.w3.org/2000/svg" height="20" viewBox="0 -960 960 960" width="20"><path d="m162-429 113-113-113-113L49-542l113 113Zm519-19 117-188 118 188H681ZM49-224q-26 0-45.5-19.5T-16-289v-18q0-52.258 50.5-84.629T164-424q2.426 0 5.84-.5 3.415-.5 7.16-.5-18 27-27.5 57.292Q140-337.417 140-304v80H49Zm240 0q-26 0-45.5-19.5T224-289v-15q0-72.123 70.5-117.062Q365-466 480-466q115.2 0 185.6 44.938Q736-376.123 736-304v15q0 26-19.5 45.5T671-224H289Zm531 0v-80q0-34-9-64.5T783-425q3.745 0 7.16.5 3.414.5 5.84.5 79 0 129.5 32.371T976-307v18q0 26-19.5 45.5T911-224h-91ZM480-355q-32 0-63 5t-56 15h238q-24-9-55.5-14.5T480-355Zm-.235-140Q423-495 383.5-534.735q-39.5-39.736-39.5-96.5Q344-688 383.735-727.5q39.736-39.5 96.5-39.5Q537-767 576.5-727.265q39.5 39.736 39.5 96.5Q616-574 576.265-534.5q-39.736 39.5-96.5 39.5Zm.06-162Q469-657 461.5-649.325q-7.5 7.676-7.5 18.5 0 10.825 7.675 18.325 7.676 7.5 18.5 7.5 10.825 0 18.325-7.675 7.5-7.676 7.5-18.5 0-10.825-7.675-18.325-7.676-7.5-18.5-7.5ZM480-335Zm0-296Z"/></svg>