<svg xmlns="http://www.w3.org/2000/svg" height="20" viewBox="0 -960 960 960" width="20"><path d="M182.435-578.956 99-496.283q-8.196 8.435-19.823 8.816-11.627.38-20.109-8.45-8.481-8.659-8.481-20.523 0-11.864 8.195-20.06l82.674-83.435H66.739q-12.074 0-20.19-8.115-8.114-8.115-8.114-20.189t8.115-20.189q8.115-8.116 20.189-8.116h130.804q17.453 0 29.477 12.024 12.023 12.024 12.023 29.477v130.804q0 12.074-8.115 20.189t-20.189 8.115q-12.074 0-20.189-8.115t-8.115-20.189v-74.717Zm198.087-198.609H456q12.074 0 20.189 8.115t8.115 20.189q0 12.074-8.115 20.189T456-720.957H325.196q-17.453 0-29.476-12.023-12.024-12.024-12.024-29.477v-130.804q0-12.074 8.115-20.189T312-921.565q12.074 0 20.189 8.115t8.115 20.189v75.478l82.913-83.435q9.196-9.195 19.989-9.195 10.794 0 19.99 9.195 9.195 9.196 9.195 20.49 0 11.293-9.195 20.489l-82.674 82.674Zm191.891 739.13q-24.479 0-47.196-9.239T485.26-74.39L304.193-257.43q-9.867-9.809-9.628-22.016.239-12.206 9.804-22.25l5.283-5.282q16.391-17.826 38.456-23.522 22.066-5.696 45.131 1.217l71.456 18.522v-323.804q0-16.496 11.246-27.802 11.246-11.307 27.653-11.307 16.406 0 27.862 11.307 11.457 11.306 11.457 27.802v370.369q0 20.109-16.629 33.163-16.628 13.055-36.502 6.62l-59.065-15.326 108.848 110.043q6.761 6.761 15.293 9.903 8.533 3.141 17.555 3.141h178.044q38.404 0 65.647-27.244 27.244-27.243 27.244-65.647v-187.414q0-16.495 11.246-27.802 11.246-11.306 27.652-11.306t27.863 11.306q11.456 11.307 11.456 27.802v187.414q0 71.434-49.837 121.272-49.837 49.836-121.271 49.836H572.413Zm60.681-493.63q16.406 0 27.862 11.306 11.457 11.307 11.457 27.802v161.501h-78.218v-161.501q0-16.495 11.246-27.802 11.246-11.306 27.653-11.306Zm126.217 48q16.406 0 27.863 11.306 11.456 11.307 11.456 27.802v113.501h-78.217v-113.238q0-16.458 11.246-27.915 11.246-11.456 27.652-11.456Zm-69.507 235.652Z"/></svg>