<svg xmlns="http://www.w3.org/2000/svg" height="24" viewBox="0 -960 960 960" width="24"><path d="M434.615-297.692q33.539 0 57.154-23.616 23.616-23.615 23.616-57.154V-600h73.846q12.384 0 21.577-8.808Q620-617.615 620-630.769q0-12.385-9.192-21.577-9.193-9.193-21.577-9.193h-73.846q-12.385 0-21.577 9.193-9.193 9.192-9.193 21.577v189.23q-9.923-8.23-22.615-12.961-12.692-4.731-27.385-4.731-33.538 0-57.154 23.616-23.615 23.615-23.615 57.153 0 33.539 23.615 57.154 23.616 23.616 57.154 23.616Zm-250 97.692Q157-200 138.5-218.5 120-237 120-264.615v-430.77Q120-723 138.5-741.5 157-760 184.615-760h590.77Q803-760 821.5-741.5 840-723 840-695.385v430.77Q840-237 821.5-218.5 803-200 775.385-200h-590.77Zm0-40h590.77q9.23 0 16.923-7.692Q800-255.385 800-264.615v-430.77q0-9.23-7.692-16.923Q784.615-720 775.385-720h-590.77q-9.23 0-16.923 7.692Q160-704.615 160-695.385v430.77q0 9.23 7.692 16.923Q175.385-240 184.615-240ZM160-240v-480 480Z"/></svg>