<svg xmlns="http://www.w3.org/2000/svg" height="24" viewBox="0 -960 960 960" width="24"><path d="M556.609-113.782v-63.739q0-10.827 4.13-20.305 4.131-9.478 11.826-17.174L781-423q10.696-10.696 23.674-15.544 12.978-4.847 26.239-4.847 14.261 0 27.24 5.347 12.978 5.348 23.674 16.044l37 37q9.696 10.696 15.043 23.674 5.348 12.978 5.348 26.239 0 13.827-4.848 27.022-4.847 13.196-15.543 23.892l-208 208q-7.696 7.696-17.174 11.544-9.479 3.847-20.305 3.847h-63.739q-22.087 0-37.544-15.456-15.456-15.457-15.456-37.544Zm279.957-187.957 31.347-33.348-37-37-32.347 32.348 38 38ZM166.783-140.782q-44.305 0-75.153-30.848-30.848-30.848-30.848-75.153v-466.434q0-44.305 30.848-75.153 30.848-30.848 75.153-30.848h180.999q21.087 0 40.391 7.978 19.305 7.978 34.262 22.935L480-730.74h313.217q44.305 0 75.153 30.849 30.848 30.848 30.848 75.153v117.868q-22.478-11.652-47.653-14.935-25.174-3.282-49.218 2.37-21.782 2.826-41.76 12.826-19.978 10-36.587 26.609L507.522-263.522q-14.957 14.957-22.935 33.979-7.978 19.022-7.978 40.674v48.087H166.783Z"/></svg>