<svg xmlns="http://www.w3.org/2000/svg" height="20" viewBox="0 -960 960 960" width="20"><path d="M451.692-185.846 240.308-307.308q-13.347-9.019-20.827-21.917Q212-342.122 212-357.231v-241.923q0-15.153 7.431-28.086 7.43-12.933 20.877-20.837l211.384-122.462q13.537-7.692 28.5-7.692 14.962 0 28.116 7.692l211.384 122.462q13.447 7.904 20.877 20.837Q748-614.307 748-599.154v242.923q0 14.73-7.481 27.317-7.48 12.587-20.827 21.606L508.308-185.846q-13.537 7.692-28.5 7.692-14.962 0-28.116-7.692ZM464-214.769V-470L244-598.769v242.538q0 6.154 3.077 11.539 3.077 5.384 9.231 9.23L464-214.769Zm32 0 207.692-120.693q6.154-3.846 9.231-9.23Q716-350.077 716-356.231v-241.538L496-469v254.231ZM152.183-656q-6.722 0-11.452-4.6Q136-665.2 136-672v-95.385q0-23.354 16.631-39.984Q169.261-824 192.615-824H288q6.8 0 11.4 4.547 4.6 4.547 4.6 11.269t-4.6 11.453Q294.8-792 288-792h-95.385q-10.769 0-17.692 6.923T168-767.385V-672q0 6.8-4.547 11.4-4.548 4.6-11.27 4.6Zm40.432 520q-23.354 0-39.984-16.631Q136-169.261 136-192.615V-288q0-6.8 4.547-11.4 4.547-4.6 11.269-4.6t11.453 4.6Q168-294.8 168-288v95.385q0 10.769 6.923 17.692T192.615-168H288q6.8 0 11.4 4.547 4.6 4.548 4.6 11.27 0 6.722-4.6 11.452Q294.8-136 288-136h-95.385Zm574.77 0H672q-6.8 0-11.4-4.547-4.6-4.547-4.6-11.269t4.6-11.453Q665.2-168 672-168h95.385q10.769 0 17.692-6.923T792-192.615V-288q0-6.8 4.547-11.4 4.547-4.6 11.27-4.6 6.722 0 11.452 4.6Q824-294.8 824-288v95.385q0 23.354-16.631 39.984Q790.739-136 767.385-136ZM792-672v-95.385q0-10.769-6.923-17.692T767.385-792H672q-6.8 0-11.4-4.547-4.6-4.547-4.6-11.27 0-6.722 4.6-11.452Q665.2-824 672-824h95.385q23.354 0 39.984 16.631Q824-790.739 824-767.385V-672q0 6.8-4.547 11.4-4.547 4.6-11.269 4.6t-11.453-4.6Q792-665.2 792-672ZM480-497.385l215.538-126.307-203.23-116.923q-6.154-3.846-12.308-3.846t-12.308 3.846l-203.23 116.923L480-497.385Zm0 16.154Zm0-16.154ZM496-469Zm-32-1Z"/></svg>