<svg xmlns="http://www.w3.org/2000/svg" height="24" viewBox="0 -960 960 960" width="24"><path d="m426.999-175.348-182.477-105.39q-24.652-14.392-38.827-38.827-14.174-24.435-14.174-52.783V-583.13q0-28.348 14.174-52.783 14.175-24.435 38.827-38.827l182.477-105.39q24.653-14.392 53.001-14.392t53.001 14.392l182.477 105.39q24.652 14.392 38.827 38.827 14.174 24.435 14.174 52.783v210.782q0 28.348-14.174 52.783-14.175 24.435-38.827 38.827l-182.477 105.39Q508.348-160.956 480-160.956t-53.001-14.392ZM109.826-633.217q-20.392 0-34.718-14.044-14.326-14.043-14.326-34.435v-111.521q0-44.305 30.848-75.153 30.848-30.848 75.153-30.848h111.521q20.392 0 34.718 14.043 14.326 14.044 14.326 34.435 0 20.392-14.326 34.718-14.326 14.326-34.718 14.326h-120v120q0 20.392-14.043 34.435-14.044 14.044-34.435 14.044Zm56.957 572.435q-44.305 0-75.153-30.848-30.848-30.848-30.848-75.153v-111.521q0-20.392 14.326-34.718 14.326-14.326 34.718-14.326 20.391 0 34.435 14.326 14.043 14.326 14.043 34.718v120h120q20.392 0 34.718 14.043 14.326 14.044 14.326 34.435 0 20.392-14.326 34.718-14.326 14.326-34.718 14.326H166.783Zm626.434 0H681.696q-20.392 0-34.435-14.326-14.044-14.326-14.044-34.718 0-20.391 14.044-34.435 14.043-14.043 34.435-14.043h120v-120q0-20.392 14.326-34.718 14.326-14.326 34.718-14.326 20.391 0 34.435 14.326 14.043 14.326 14.043 34.718v111.521q0 44.305-30.848 75.153-30.848 30.848-75.153 30.848Zm8.479-620.914v-120h-120q-20.392 0-34.435-14.326-14.044-14.326-14.044-34.718 0-20.391 14.044-34.435 14.043-14.043 34.435-14.043h111.521q44.305 0 75.153 30.848 30.848 30.848 30.848 75.153v111.521q0 20.392-14.043 34.435-14.044 14.044-34.435 14.044-20.392 0-34.718-14.044-14.326-14.043-14.326-34.435ZM338.392-607.13l-40.869 23.435v46.13L440-454.174v163.651l40 23.566 40-23.566v-163.651l142.477-83.391v-46.13l-40.869-23.435L480-523.739 338.392-607.13Z"/></svg>