<svg xmlns="http://www.w3.org/2000/svg" height="20" viewBox="0 -960 960 960" width="20"><path d="m430.999-166.348-198.477-113.39q-22.652-14.392-35.827-36.327-13.174-21.935-13.174-49.283V-591.13q0-26.218 13.124-48.776 13.125-22.558 35.877-35.834l198.477-114.39q22.784-13.392 49.067-13.392 26.282 0 48.935 13.392l198.477 114.39q22.752 13.276 35.877 35.834 13.124 22.558 13.124 48.776v226.782q0 27.348-13.174 48.783-13.175 21.435-35.827 35.827l-198.477 113.39q-22.784 13.392-49.067 13.392-26.282 0-48.935-13.392ZM122.036-629.217q-18.602 0-31.928-12.894-13.326-12.893-13.326-31.585v-111.521q0-41.005 28.498-69.503 28.498-28.498 69.503-28.498h111.521q18.692 0 31.868 12.833 13.176 12.833 13.176 31.435 0 18.602-13.176 31.928t-31.868 13.326h-120v120q0 18.692-12.833 31.585-12.833 12.894-31.435 12.894Zm52.747 552.435q-41.005 0-69.503-28.498-28.498-28.498-28.498-69.503v-111.521q0-18.692 13.115-31.868 13.116-13.176 31.718-13.176t31.646 13.176q13.043 13.176 13.043 31.868v120h120q18.692 0 31.868 12.833 13.176 12.833 13.176 31.435 0 18.602-13.176 31.928t-31.868 13.326H174.783Zm610.434 0H673.696q-18.692 0-31.585-13.115-12.894-13.116-12.894-31.718t12.894-31.646q12.893-13.043 31.585-13.043h120v-120q0-18.692 13.115-31.868 13.116-13.176 31.718-13.176t31.646 13.176q13.043 13.176 13.043 31.868v111.521q0 41.005-28.498 69.503-28.498 28.498-69.503 28.498Zm8.479-596.914v-120h-120q-18.692 0-31.585-13.115-12.894-13.116-12.894-31.718t12.894-31.646q12.893-13.043 31.585-13.043h111.521q41.005 0 69.503 28.498 28.498 28.498 28.498 69.503v111.521q0 18.692-12.833 31.585-12.833 12.894-31.435 12.894-18.602 0-31.928-12.894-13.326-12.893-13.326-31.585ZM322.392-614.13l-40.869 23.435v35.13L444-457.174v185.651l36 21.566 36-21.566v-184.651l162.477-98.391v-36.13l-40.869-23.435L480-519.739 322.392-614.13Z"/></svg>