<svg xmlns="http://www.w3.org/2000/svg" height="20" viewBox="0 -960 960 960" width="20"><path d="M419.692-532h120.616v-252.308q0-25.015-17.647-42.661-17.646-17.646-42.661-17.646t-42.661 17.646q-17.647 17.646-17.647 42.661V-532ZM211.385-403.385h537.23V-500h-537.23v96.615Zm-54.923 240h135.23v-96h32v96H464v-96h32v96h140.308v-96h32v96h135.23l-56.461-207.999H213.923l-57.461 207.999Zm-40.77 32.001 63.692-234.924V-532h208.308v-252.308q0-38.461 26.923-65.385 26.923-26.923 65.385-26.923t65.385 26.923q26.923 26.924 26.923 65.385V-532h208.308v165.692l62.923 234.924H115.692ZM220.615-428h-9.23v-72h9.23v72Zm319.693-104H419.692 540.308Z"/></svg>