<svg xmlns="http://www.w3.org/2000/svg" height="20" viewBox="0 -960 960 960" width="20"><path d="M262-140.782q-98.61 0-169.066-68.393-70.457-68.393-70.457-167.191 0-83.606 47.63-147.99 47.631-64.384 127.023-83.514 20.261-70.87 85.63-133.152 65.37-62.283 143.935-62.283 40.868 0 70.347 24.109 29.48 24.109 29.48 64.196v233.304l24.652-25.217q13.446-13.696 32.521-13.696 19.076 0 32.131 13.131 13.696 13.696 13.696 32.609 0 18.913-13.696 32.609l-96.837 96.837q-7.98 8.103-18.354 12.502-10.374 4.4-20.635 4.4-10.261 0-20.635-4.4-10.374-4.399-18.354-12.502l-96.837-96.837q-13.696-13.696-12.913-32.892.782-19.196 13.913-32.326 13.696-13.696 32.609-13.413 18.913.282 32.043 13.978l23.652 25.217v-220.825q-70.348 20.391-106.673 74.13-36.326 53.739-36.326 116.174h-26.533q-54.465 0-92.966 39.014Q132.479-434.19 132.479-380q0 54.739 37.931 91.978T262-250.783h476q37.203 0 63.362-26.126 26.159-26.127 26.159-64.978 0-37.722-26.159-64.526-26.159-26.804-65.058-26.804h-62.826v-84.087q0-42.243-16.174-77.252-16.174-35.009-46.782-64.009v-126.697q73.261 34 118.25 101.247 44.988 67.247 49.51 148.357 69.806 14.006 114.523 69.24 44.718 55.234 44.718 127.899 0 82.505-58.486 140.121Q820.551-140.782 737-140.782H262Zm218-388.392Z"/></svg>