<svg xmlns="http://www.w3.org/2000/svg" height="20" viewBox="0 -960 960 960" width="20"><path d="M262-180.001q-83.75 0-142.874-58.486-59.125-58.486-59.125-142.667 0-73.384 46.5-129.538 46.5-56.153 119.423-67.614 14.539-73.154 79.308-133.808 64.769-60.654 142.769-60.654 26.188 0 45.093 15.231 18.905 15.23 18.905 41.768v259.617l48.155-48.54q9.058-9.307 22.452-9.5 13.394-.192 22.701 9.116 9.692 9.692 9.692 22.576t-9.692 22.576l-98.054 98.055q-5.561 5.56-12.792 8.868-7.23 3.308-14.461 3.308t-14.461-3.308q-7.231-3.308-12.792-8.868l-98.054-98.055q-9.308-9.307-8.808-22.576t9.808-22.576q9.692-9.693 22.769-9.5 13.076.192 22.384 9.884l47.155 48.54v-255.617q-75.616 11.615-120.808 68.961Q282-585.462 282-519h-19.75q-57.275 0-97.762 41Q124-437 124-380t40.414 96.5Q204.829-244 262-244h476q41.16 0 69.58-28.387 28.42-28.388 28.42-69.5Q836-383 807.58-411.5T738-440h-60v-79q0-45.838-19-84.804-19-38.965-53-67.196v-76.306q62.153 32.077 99.021 92.412 36.868 60.334 36.868 131.106v20.002h12.308q62.34 4.71 104.071 51.258 41.731 46.549 41.731 110.617 0 67.833-47.413 114.872Q805.172-180.001 737-180.001H262Zm218-329.383Z"/></svg>