<svg xmlns="http://www.w3.org/2000/svg" height="24" viewBox="0 -960 960 960" width="24"><path d="M260-140.782q-97.783 0-167.653-67.522-69.87-67.522-69.87-165.062 0-83.606 48.13-148.99 48.131-65.384 127.523-83.514 19.261-70.87 86.13-136.152 66.87-65.283 144.435-65.283 39.218 0 67.522 26.609 28.305 26.609 28.305 64.696v240.304l28.652-28.217q12.696-12.696 30.646-12.696 17.951 0 31.006 13.131 12.696 12.696 12.696 31.109 0 18.413-12.696 31.109l-97.782 97.782q-8.035 8.158-17.409 11.557-9.374 3.4-19.635 3.4-10.261 0-19.635-3.4-9.374-3.399-17.409-11.557l-97.782-97.782q-12.696-12.696-12.913-30.892-.218-18.196 12.913-31.326 12.696-12.696 30.609-12.913 17.913-.218 31.043 12.478l28.652 28.217v-231.825q-70.348 17.391-108.673 74.63-38.326 57.239-38.326 119.674h-26.783q-55.19 0-94.204 39.014Q128.479-435.19 128.479-380q0 55.739 38.517 94.478T260-246.783h480q38.043 0 64.782-26.739 26.739-26.739 26.739-66.478 0-38.609-26.739-65.913-26.739-27.304-66.478-27.304h-62.826v-85.087q0-45.174-19.174-82.717-19.174-37.544-51.782-66.544v-120.697q76.261 35 121.805 104.066 45.543 69.065 50.065 152.326 70.696 14.218 115.913 68.826 45.218 54.609 45.218 126.435 0 81.595-57.611 138.711Q822.301-140.782 740-140.782H260Zm220-387.392Z"/></svg>