<svg xmlns="http://www.w3.org/2000/svg" height="24" viewBox="0 -960 960 960" width="24"><path d="M610-746.999q-26.087 0-44.544-18.457-18.457-18.457-18.457-44.544 0-26.087 18.457-44.544 18.457-18.457 44.544-18.457 26.087 0 44.544 18.457 18.457 18.457 18.457 44.544 0 26.087-18.457 44.544-18.457 18.457-44.544 18.457Zm0 660q-26.087 0-44.544-18.457-18.457-18.457-18.457-44.544 0-26.087 18.457-44.544 18.457-18.457 44.544-18.457 26.087 0 44.544 18.457 18.457 18.457 18.457 44.544 0 26.087-18.457 44.544Q636.087-86.999 610-86.999Zm160-520q-26.087 0-44.544-18.457-18.457-18.457-18.457-44.544 0-26.087 18.457-44.544 18.457-18.457 44.544-18.457 26.087 0 44.544 18.457 18.457 18.457 18.457 44.544 0 26.087-18.457 44.544-18.457 18.457-44.544 18.457Zm0 380q-26.087 0-44.544-18.457-18.457-18.457-18.457-44.544 0-26.087 18.457-44.544 18.457-18.457 44.544-18.457 26.087 0 44.544 18.457 18.457 18.457 18.457 44.544 0 26.087-18.457 44.544-18.457 18.457-44.544 18.457Zm60-190q-26.087 0-44.544-18.457-18.457-18.457-18.457-44.544 0-26.087 18.457-44.544 18.457-18.457 44.544-18.457 26.087 0 44.544 18.457 18.457 18.457 18.457 44.544 0 26.087-18.457 44.544-18.457 18.457-44.544 18.457ZM68.695-480q0-159.261 104.783-274.805Q278.26-870.348 431.956-888.174q19.957-2.566 34 12.608Q480-860.391 480-838.304q0 21.087-12.761 37.044-12.761 15.956-32.718 19.652-110.825 16.826-185.325 101.457-74.5 84.63-74.5 200.151 0 115.956 74.5 200.369t185.325 101.239q19.957 3.696 32.718 19.652Q480-142.783 480-121.696q0 22.087-14.044 37.262-14.043 15.174-34 12.608-154.13-17.826-258.696-133.369Q68.695-320.739 68.695-480ZM480-386.999q-38.652 0-65.827-27.174-27.174-27.175-27.174-65.827 0-3.87.218-8.239.217-4.37 1.652-8.239l-50.478-50.478q-14.957-14.957-14.957-36.761 0-21.805 15.522-37.327 14.957-14.957 37.044-14.957 22.087 0 37.044 14.957l50.478 49.913q4-1 16.478-1.87 38.652 0 65.827 27.174 27.174 27.175 27.174 65.827t-27.174 65.827Q518.652-386.999 480-386.999Z"/></svg>