<svg xmlns="http://www.w3.org/2000/svg" height="20" viewBox="0 -960 960 960" width="20"><path d="M713.217-227.565q30 0 51-21t21-51q0-30-21-51t-51-21q-30 0-51 21t-21 51q0 30 21 51t51 21Zm.232 144q37.768 0 70.268-19t52.5-51q-27-19-58.618-28.5-31.617-9.5-64.5-9.5-32.882 0-64.382 9.5-31.5 9.5-58.5 28.5 20 32 52.732 51t70.5 19Zm-.458 48q-79.774 0-135.774-56.226t-56-136q0-79.774 56.226-135.774t136-56q79.774 0 135.774 56.227 56 56.226 56 136 0 79.773-56.226 135.773t-136 56ZM294.783-591.52h370.434v-72H294.783v72Zm175.391 468.435H124.782v-710.437h710.436v375.22q-28.814-15.348-59.451-23.022-30.637-7.674-62.55-7.674-12 0-24 1t-24 3v-29.305H294.783v72h264.869q-22 15.304-40.565 34.608-18.565 19.305-32.696 42.609H294.783v72h159.826q-3.696 15.957-5.544 32.761-1.848 16.805-.848 33.327 1 24.695 6.913 52.739 5.913 28.044 15.044 51.174Z"/></svg>