<svg xmlns="http://www.w3.org/2000/svg" height="20" viewBox="0 -960 960 960" width="20"><path d="M717.13-234.739q30 0 51-21t21-51q0-30-21-51t-51-21q-30 0-51 21t-21 51q0 30 21 51t51 21Zm.232 144q37.768 0 70.268-19t52.5-51q-27-19-58.617-28.5-31.618-9.5-64.5-9.5-32.883 0-64.383 9.5-31.5 9.5-58.5 28.5 20 32 52.733 51 32.732 19 70.499 19Zm-581.493-44.413v-688.261h688.262v349.131q-19.253-8.391-40.003-14.225t-42.998-8.232v-243.674H218.87v522.261h234.782q1.397 22.625 6.057 43.117 4.661 20.492 12.095 39.883H135.869ZM218.87-234.5v16.348-522.261 243.674V-498.5v264Zm72-55.652h167.695q4.478-19 11.267-36.966 6.788-17.966 15.364-35.034H290.87v72Zm0-153.131h263.521q25.044-18.326 53.729-31.51 28.684-13.185 61.01-18.946v-21.544H290.87v72Zm0-153.13h378.26v-72H290.87v72ZM716.904-42.739q-79.774 0-135.774-56.226t-56-136q0-79.774 56.227-135.774 56.226-56 136-56 79.773 0 135.773 56.226t56 136q0 79.774-56.226 135.774t-136 56Z"/></svg>