<svg xmlns="http://www.w3.org/2000/svg" height="20" viewBox="0 -960 960 960" width="20"><path d="M122-154v-191q0-11.648 7.104-21.112Q136.208-375.575 148-377l118-43v-132q0-8.423 3.273-15.197Q272.545-573.972 278-578l192-113v-99h-74q-4.25 0-7.125-2.825-2.875-2.824-2.875-7 0-4.175 2.875-7.175t7.125-3h74v-74q0-4.25 2.825-7.125 2.824-2.875 7-2.875 4.175 0 7.175 2.875t3 7.125v74h74q4.25 0 7.125 2.825 2.875 2.824 2.875 7 0 4.175-2.875 7.175T564-790h-74v99l192 113q5.455 4.028 8.727 10.803Q694-560.423 694-552v132l118 43q11.792 1.425 18.896 10.888Q838-356.648 838-345v191q0 12.65-9.675 22.325Q818.65-122 806-122H580q-11.05 0-18.525-7.475Q554-136.95 554-148v-96q0-30.4-21.8-52.2Q510.4-318 480-318q-30.4 0-52.2 21.8Q406-274.4 406-244v96q0 11.05-7.475 18.525Q391.05-122 380-122H154q-12.65 0-22.325-9.675Q122-141.35 122-154Zm20 12h244v-100q0-38.459 27.382-65.229Q440.765-334 479.882-334 519-334 546.5-307.229 574-280.459 574-242v100h244v-207l-144-47.65V-551L480-665 286-551v154.35L142-349v207Zm338.235-298Q495-440 507.5-452.735q12.5-12.736 12.5-27.5Q520-495 507.265-507.5q-12.736-12.5-27.5-12.5Q465-520 452.5-507.265q-12.5 12.736-12.5 27.5Q440-465 452.735-452.5q12.736 12.5 27.5 12.5ZM480-422Z"/></svg>