<svg xmlns="http://www.w3.org/2000/svg" height="24" viewBox="0 -960 960 960" width="24"><path d="M67-151.521v-171.043q0-31.913 16.956-57.914 16.957-26 46.305-38.826l96.738-43.217v-63.043q0-30.348 15.957-55.631t42.74-39.109l141.303-70.652v-60.565H400q-22.087 0-37.544-15.457-15.457-15.457-15.457-37.544 0-22.087 15.457-37.544 15.457-15.457 37.544-15.457h26.999v-26.999q0-22.087 15.457-37.544 15.457-15.457 37.544-15.457 22.087 0 37.544 15.457 15.457 15.457 15.457 37.544v26.999H560q22.087 0 37.544 15.457 15.457 15.457 15.457 37.544 0 22.087-15.457 37.544-15.457 15.457-37.544 15.457h-26.999v60.565l141.303 70.652q26.783 13.826 42.74 39.109t15.957 55.631v63.043l96.738 43.217q29.348 12.826 46.305 38.826 16.957 26.001 16.957 57.914v171.043q0 44.305-30.849 75.153-30.848 30.848-75.153 30.848h-218.52q-22.088 0-37.544-15.457-15.457-15.456-15.457-37.544v-115.478q0-14.739-10.369-25.108-10.37-10.37-25.109-10.37-14.739 0-25.109 10.37-10.369 10.369-10.369 25.108v115.478q0 22.088-15.457 37.544-15.456 15.457-37.544 15.457h-218.52q-44.305 0-75.154-30.848Q67-107.216 67-151.521Zm106.001 0h165.52v-64.478q0-58.913 41.5-100.913 41.5-42.001 99.979-42.001t99.979 42.001q41.5 42 41.5 100.913v64.478h165.52v-175.043l-160-72v-134.565L480-607.781l-146.999 74.652v134.565l-160 72v175.043ZM480-402.477q25 0 42.5-17.5t17.5-42.5q0-25-17.5-42.5t-42.5-17.5q-25 0-42.5 17.5t-17.5 42.5q0 25 17.5 42.5t42.5 17.5Zm0 22.826Z"/></svg>