<svg xmlns="http://www.w3.org/2000/svg" height="24" viewBox="0 -960 960 960" width="24"><path d="M413.978-174.783q44.152-88.739 117.482-118.956 73.329-30.218 125.149-30.218 21.869 0 43.869 4t42.472 10q23.398-36.869 37.115-80.138 13.717-43.268 13.717-90.47 0-130.609-91.304-221.63-91.304-91.022-221.913-91.022-130.608 0-221.913 91.022-91.304 91.021-91.304 221.63 0 44.399 11.5 84.851 11.5 40.453 33.37 73.757 40.434-19.434 83.304-30.152 42.869-10.717 87.304-10.717 30.87 0 60.087 5.5 29.217 5.5 57.087 14.5-22.435 12.565-42.652 27.717-20.218 15.152-38.218 33.152-13.13-2-20.217-2h-16.087q-32 0-62.652 6.718-30.652 6.717-59.087 20.717 30.87 30.87 69.804 51.804 38.935 20.935 83.087 29.935Zm66.587 114.001q-86.892 0-163.316-32.913-76.423-32.913-133.25-89.739-56.826-56.826-89.739-133.265-32.913-76.438-32.913-163.348 0-86.91 32.913-163.301 32.913-76.392 89.739-133.218 56.827-56.826 133.265-89.739 76.439-32.913 163.348-32.913 86.91 0 163.019 32.913 76.109 32.913 132.935 89.739 56.826 56.826 89.739 133.265 32.913 76.438 32.913 163.348 0 86.91-32.913 163.301-32.913 76.392-89.739 133.218-56.826 56.826-133.07 89.74-76.243 32.912-162.931 32.912ZM382.826-421.13q-57.435 0-97.587-40.153-40.152-40.152-40.152-97.587 0-57.434 40.152-97.304 40.152-39.869 97.587-39.869t97.304 39.869Q520-616.304 520-558.87q0 57.435-39.87 97.587-39.869 40.153-97.304 40.153Zm0-78.87q23.87 0 41.087-17.5 17.217-17.5 17.217-41.37 0-23.869-17.217-41.086-17.217-17.218-41.087-17.218-23.869 0-41.369 17.218-17.5 17.217-17.5 41.086 0 23.87 17.5 41.37 17.5 17.5 41.369 17.5Zm274.475 117.739q-40.997 0-69.714-28.307-28.717-28.308-28.717-69.305 0-40.997 28.717-69.431 28.717-28.435 69.714-28.435t69.304 28.307q28.308 28.308 28.308 69.305 0 40.997-28.308 69.431-28.307 28.435-69.304 28.435ZM480.565-480Z"/></svg>