<svg xmlns="http://www.w3.org/2000/svg" height="20" viewBox="0 -960 960 960" width="20"><path d="M459-166.385q16.231-59.923 67.038-104.769Q576.846-316 648-316q22.752 0 43.261 4.346 20.508 4.346 39.431 15.577Q757-330.231 774.5-378T792-480q0-130-91-221t-221-91q-130 0-221 91t-91 221q0 41.923 10.846 80.423T208.769-327q38.923-21.308 76.887-29.154Q323.621-364 365.271-364q24.883 0 50.625 3.686 25.742 3.687 42.873 7.622-8.461 6.384-13.807 13.423-5.347 7.038-11.885 14.577-9.385-2-29.769-4.654Q382.923-332 365.077-332q-37.027 0-73.475 8.539-36.448 8.538-68.448 24.615 42.385 58 104.5 91.731 62.115 33.73 131.346 40.73ZM480.409-136q-70.948 0-133.685-26.839-62.737-26.84-109.865-73.922-47.127-47.082-73.993-109.716Q136-409.111 136-480.325q0-71.214 26.839-133.451 26.84-62.237 73.922-109.365 47.082-47.127 109.716-73.993Q409.111-824 480.325-824q71.214 0 133.451 26.839 62.237 26.84 109.365 73.922 47.127 47.082 73.993 109.482Q824-551.357 824-480.409q0 70.948-26.839 133.685-26.84 62.737-73.922 109.865-47.082 47.127-109.482 73.993Q551.357-136 480.409-136ZM371.778-464q-47.086 0-79.432-32.568Q260-529.137 260-576.222q0-47.086 32.568-79.432Q325.137-688 372.222-688q47.086 0 79.432 32.568Q484-622.863 484-575.778q0 47.086-32.568 79.432Q418.863-464 371.778-464Zm.222-32q32.692 0 56.346-23.654Q452-543.308 452-576q0-32.692-23.654-56.346Q404.692-656 372-656q-32.692 0-56.346 23.654Q292-608.692 292-576q0 32.692 23.654 56.346Q339.308-496 372-496Zm276.225 83.385q-38.287 0-64.948-26.437-26.662-26.436-26.662-64.723t26.437-64.948q26.436-26.662 64.723-26.662t64.948 26.437q26.662 26.436 26.662 64.723t-26.437 64.948q-26.436 26.662-64.723 26.662ZM480-480Z"/></svg>