<svg xmlns="http://www.w3.org/2000/svg" height="20" viewBox="0 -960 960 960" width="20"><path d="M481.276-62q-86.162 0-162.219-32.5Q243-127 185.5-184.5 128-242 95.5-318.042 63-394.083 63-480.542 63-567 95.5-642.5t90-133q57.5-57.5 133.542-90 76.041-32.5 162.5-32.5Q568-898 643-865.5t132.5 90q57.5 57.5 90 133.308 32.5 75.807 32.5 162Q898-394 865.5-318q-32.5 76-90 133.5t-132.962 90Q567.075-62 481.276-62ZM377.222-446Q431-446 467.5-483.222q36.5-37.222 36.5-91T467.278-664.5q-36.722-36.5-90.5-36.5T286-664.278q-37 36.722-37 90.5T286.222-483q37.222 37 91 37ZM643-412q38.451 0 65.225-26.549 26.775-26.55 26.775-65Q735-542 708.451-569q-26.55-27-65-27Q605-596 577.5-569.451q-27.5 26.55-27.5 65Q550-466 577.275-439q27.274 27 65.725 27ZM481-180q79.414 0 145.608-38.726T734-320q-21-12-44.97-17.5T642-343q-72.911 0-128.456 45.5Q458-252 442-183q9.5 1.714 19 2.357 9.5.643 20 .643Zm-105.272-19Q382-262 429.5-311t64.5-60q-27.977-7.55-57.989-12.775Q406-389 377.194-389q-43.727 0-85.461 9Q250-371 209-353q24.713 53.08 67.856 93.04Q320-220 375.728-199Z"/></svg>