<svg xmlns="http://www.w3.org/2000/svg" height="20" viewBox="0 -960 960 960" width="20"><path d="M291.752-666Q264-666 244-686.248q-20-20.248-20-48T244.248-782q20.248-20 48-20T340-781.752q20 20.248 20 48T339.752-686q-20.248 20-48 20ZM566-244H325q-19 0-32-8.5T277-280l-77-381q-1-4 2.259-7.5 3.258-3.5 8.189-3.5 3.552 0 6.052 2 2.5 2 2.5 6l76 368q3 12 14.5 22t23.5 10h233q4.3 0 7.15 2.789 2.85 2.79 2.85 7 0 4.211-2.85 7.211t-7.15 3Zm157 49-67-117H404q-25 0-43-15.5T336-365l-44-198q-5-30 10-51t39-21q24 0 41 13.5t22 34.5l51 231h200q12.158 0 22.579 5.5Q688-345 695-332l66 115q5 8 2.522 16.72Q761.043-191.561 753-187q-8 5-16.719 2.522Q727.561-186.957 723-195Z"/></svg>