<svg xmlns="http://www.w3.org/2000/svg" height="20" viewBox="0 -960 960 960" width="20"><path d="M306.523-353.607q-20.387 0-34.694-14.246-14.306-14.246-14.306-34.544 0-20.297 14.306-34.754 14.307-14.457 34.694-14.457h81.564q20.387 0 34.693 14.246 14.307 14.247 14.307 34.544 0 20.298-14.307 34.755-14.306 14.456-34.693 14.456h-81.564Zm0-176.001q-20.387 0-34.694-14.246-14.306-14.246-14.306-34.544 0-20.298 14.306-34.754 14.307-14.457 34.694-14.457h367.303q20.387 0 34.694 14.246 14.306 14.246 14.306 34.544 0 20.298-14.306 34.754-14.307 14.457-34.694 14.457H306.523Zm0-176.001q-20.387 0-34.694-14.246-14.306-14.247-14.306-34.544 0-20.298 14.306-34.755 14.307-14.457 34.694-14.457h367.303q20.387 0 34.694 14.247 14.306 14.246 14.306 34.544 0 20.297-14.306 34.754-14.307 14.457-34.694 14.457H306.523Zm359.452 464.74q-9.461 0-18.304-4.13-8.844-4.131-15.54-10.827l-90.347-90.346q-13.826-13.827-14.109-32.066-.282-18.239 13.544-32.066 13.826-13.826 32.732-13.826t32.399 13.826l59.825 59.26 166.999-166.999q13.493-13.826 32.399-13.608 18.906.217 33.21 14.043 13.913 13.826 13.631 33.131-.283 19.305-14.109 33.131l-196.521 195.52q-6.695 6.696-16.522 10.827-9.826 4.13-19.287 4.13Zm-539.982-464.74q-20.298 0-34.755-14.246-14.456-14.247-14.456-34.544 0-20.298 14.246-34.755 14.246-14.457 34.544-14.457 20.298 0 34.754 14.247 14.457 14.246 14.457 34.544 0 20.297-14.246 34.754-14.246 14.457-34.544 14.457Zm0 176.001q-20.298 0-34.755-14.246-14.456-14.246-14.456-34.544 0-20.298 14.246-34.754 14.246-14.457 34.544-14.457 20.298 0 34.754 14.246 14.457 14.246 14.457 34.544 0 20.298-14.246 34.754-14.246 14.457-34.544 14.457Zm0 176.001q-20.298 0-34.755-14.246-14.456-14.246-14.456-34.544 0-20.297 14.246-34.754 14.246-14.457 34.544-14.457 20.298 0 34.754 14.246 14.457 14.247 14.457 34.544 0 20.298-14.246 34.755-14.246 14.456-34.544 14.456Z"/></svg>