<svg xmlns="http://www.w3.org/2000/svg" height="20" viewBox="0 -960 960 960" width="20"><path d="M289-437q-4.25 0-7.125-2.825-2.875-2.824-2.875-7 0-4.175 2.875-7.175t7.125-3h117q4.25 0 7.125 2.825 2.875 2.824 2.875 7 0 4.175-2.875 7.175T406-437H289Zm0-118q-4.25 0-7.125-2.825-2.875-2.824-2.875-7 0-4.175 2.875-7.175t7.125-3h385q4.25 0 7.125 2.825 2.875 2.824 2.875 7 0 4.175-2.875 7.175T674-555H289Zm0-118q-4.25 0-7.125-2.825-2.875-2.824-2.875-7 0-4.175 2.875-7.175t7.125-3h385q4.25 0 7.125 2.825 2.875 2.824 2.875 7 0 4.175-2.875 7.175T674-673H289Zm338.667 371q-5.067 0-9.367-2.5-4.3-2.5-8.25-6.45L521-400q-3-3-4-6t3-7q4-4 7.167-4 3.166 0 6.833 4l94 93 193-193q2.667-3 6.333-3.5 3.667-.5 8.363 3.5 4.304 4 3.804 7.5-.5 3.5-4.5 7.5L647.198-311.198Q643-307 637.867-304.5q-5.134 2.5-10.2 2.5ZM168.456-665q-7.456 0-12.956-5.044-5.5-5.044-5.5-12.5t5.044-12.956q5.044-5.5 12.5-5.5t12.956 5.044q5.5 5.044 5.5 12.5t-5.044 12.956q-5.044 5.5-12.5 5.5Zm0 118Q161-547 155-552.789q-6-5.79-6-13.246t5.789-12.711q5.79-5.254 13.246-5.254t12.711 5.044q5.254 5.044 5.254 12.5T180.956-553q-5.044 6-12.5 6Zm0 119Q161-428 155-433.789q-6-5.79-6-13.246t5.789-12.711q5.79-5.254 13.246-5.254t12.711 5.044q5.254 5.044 5.254 12.5T180.956-434q-5.044 6-12.5 6Z"/></svg>