<svg xmlns="http://www.w3.org/2000/svg" height="24" viewBox="0 -960 960 960" width="24"><path d="M320-766.154q-30.307 0-52.077-21.769-21.769-21.77-21.769-52.077t21.769-52.077q21.77-21.769 52.077-21.769t52.077 21.769q21.769 21.77 21.769 52.077t-21.769 52.077q-21.77 21.769-52.077 21.769Zm339.307-14.615-33.153-33.153 99.924-99.924h66.306L659.307-780.769ZM90.001-50.001v-59.998H120q32 0 62.308-10 30.307-10 57.692-28.846 26 17.846 56.654 27.73 30.654 9.885 60.269 10.5 32 1 63.039-9.192Q451-129.999 480-148.845q27.385 18.846 57.692 28.538Q568-110.615 600-110.615t61.808-9.692q29.807-9.692 58.192-28.538 28.385 18.846 58.192 28.846 29.808 10 61.808 10h29.999v59.998H840q-29.846 0-59.846-7.692-30-7.692-60.154-23.462-30.154 15.77-60.154 23.462-30 7.692-59.846 7.692-29.846 0-59.846-7.692-30-7.692-60.154-23.462-30.769 16.385-61.885 24.077Q387-49.385 356.923-50q-28.846-1-58.807-8.5Q268.154-66 240-81.155q-30.154 15.77-60.154 23.462-30 7.692-59.846 7.692H90ZM360-197.692q-28.231 0-52.654-9.269-24.423-9.269-43.5-24.192 12.847-9.846 33.232-25.5 20.385-15.654 35.615-26.27l-82.692-159.385V-640q0-29.154 20.423-49.576 20.422-20.423 49.576-20.423h120q41.615 0 77.231-14.346 35.615-14.346 64.384-39.808l41.769 41.768Q587.307-689 540.346-669.501q-46.962 19.5-100.346 19.5h-66.001v160.002h117.385l69.923 76.923q60.924-25.769 113.885-41.346 52.962-15.577 90.808-15.577 22.538 0 43.269 8.077 20.73 8.076 20.73 32.922 0 42.461-62.231 104.577t-154.77 122.269q-5.538 1.847-11.384 2.77t-11.999.923q-31-1.154-59.308-15.654Q502-228.615 480-252.692q-23.923 26-55.116 40.5-31.192 14.5-64.884 14.5Zm28.384-123.692q21.847-13.307 58.578-33.962 36.731-20.654 57.193-30.577l-39.924-44.078-118.463 9.77 42.616 98.847Z"/></svg>