<svg xmlns="http://www.w3.org/2000/svg" height="24" viewBox="0 -960 960 960" width="24"><path d="M320-761.913q-34.435 0-59.011-24.576T236.413-845.5q0-34.435 24.576-59.011T320-929.087q34.435 0 59.011 24.576t24.576 59.011q0 34.435-24.576 59.011T320-761.913Zm348.696-22.152-44.631-44.631 93.218-93.217h89.021L668.696-784.065ZM76.413-32.587V-120H120q31.283 0 61.902-10.359 30.62-10.358 58.098-30.598 26.717 19.24 56.696 29.098Q326.674-122 355.957-121q31.282 1 63.043-9.239t61-30.718q27.478 20.24 58.098 30.098Q568.717-121 600-121t61.402-9.859q30.12-9.858 58.598-30.098 28.478 20.24 58.598 30.598Q808.717-120 840-120h43.587v87.413H840q-30.761 0-60.88-7.5-30.12-7.5-59.12-22.26-29 14.76-59.12 22.26-30.119 7.5-60.88 7.5-30.761 0-60.88-7.5-30.12-7.5-59.12-22.26-29.761 15.521-61.141 23.021-31.381 7.5-62.902 6.74-30.479-.762-59.598-8.262-29.12-7.5-56.359-21.5-29 14.761-59.12 22.261-30.119 7.5-60.88 7.5H76.413ZM360-200.239q-29.717 0-55.794-11.239-26.076-11.239-47.793-30.435 13.761-11 28.522-22.761t30.282-22.522l-78.804-151.847V-640q0-34.435 24.576-59.011T320-723.587h120q41.043 0 77.163-15.859 36.12-15.858 64.837-43.576L643.022-722q-39.674 39.674-91.989 62.63Q498.717-636.413 440-636.413h-52.413v132.826h110.087l67.283 74.283q58.521-24.522 110.402-39.403 51.88-14.88 90.641-14.88 27.196 0 52.391 10.717 25.196 10.718 25.196 43.87 0 43.283-55.011 101.848t-138.38 116.848q-12.109 4.913-24.837 7.489-12.729 2.576-25.359 2.576-35.761 0-66.761-16.402-31-16.402-53.239-41.685-22.239 25.283-53.239 41.685-31 16.402-66.761 16.402Zm34.913-141.022q17.044-10.522 44.054-25.848 27.011-15.326 43.055-23.087l-23.696-26.217-93.065 4 29.652 71.152Z"/></svg>