<svg xmlns="http://www.w3.org/2000/svg" height="20" viewBox="0 -960 960 960" width="20"><path d="M618.913-447.087v-291.131q0-20.387 14.246-34.694 14.246-14.306 34.544-14.306 20.298 0 34.754 14.306 14.457 14.307 14.457 34.694v194.695l-98.001 96.436ZM172.782-221.763v-516.163q0-20.379 14.246-34.836 14.246-14.456 34.544-14.456 20.298 0 34.754 14.301 14.457 14.301 14.457 34.68v516.163q0 20.379-14.246 34.836-14.246 14.456-34.544 14.456-20.298 0-34.755-14.301-14.456-14.301-14.456-34.68Zm222.783-452.281v-63.911q0-20.35 14.246-34.807 14.246-14.456 34.544-14.456 20.297 0 34.754 14.281 14.457 14.282 14.457 34.632v63.911q0 20.35-14.246 34.807t-34.544 14.457q-20.298 0-34.755-14.282-14.456-14.282-14.456-34.632Zm0 225.61v-63.347q0-20.349 14.246-34.806 14.246-14.457 34.544-14.457 20.297 0 34.754 14.282 14.457 14.281 14.457 34.631v63.346q0 20.35-14.246 34.807t-34.544 14.457q-20.298 0-34.755-14.282-14.456-14.281-14.456-34.631Zm0 226.739v-63.911q0-20.35 14.246-34.807t34.544-14.457q20.297 0 34.754 14.282 14.457 14.282 14.457 34.632v63.911q0 20.35-14.246 34.807-14.246 14.456-34.544 14.456-20.298 0-34.755-14.281-14.456-14.282-14.456-34.632ZM576-221.782v-60.172q0-10.394 4.13-18.872 4.131-8.478 10.827-15.174l198.434-198q8.954-9.107 19.804-13.25 10.849-4.141 21.869-4.141 11.817 0 22.554 4.347 10.738 4.348 19.6 13.044l44 45q8.85 8.954 13.121 19.803 4.271 10.849 4.271 21.87 0 11.585-4.142 22.438-4.142 10.854-13.25 19.716l-198 198q-6.695 6.696-15.174 10.544-8.478 3.847-18.872 3.847h-60.171q-20.388 0-34.694-14.306Q576-201.395 576-221.782Zm259.957-164.957 39.348-40.348-45-45-39.348 40.348 45 45Z"/></svg>