<svg xmlns="http://www.w3.org/2000/svg" height="24" viewBox="0 -960 960 960" width="24"><path d="M120-254h720q5.95 0 9.975 4.035 4.025 4.035 4.025 10T849.975-230q-4.025 4-9.975 4H120q-5.95 0-9.975-4.035-4.025-4.035-4.025-10t4.025-9.965q4.025-4 9.975-4Zm40-280-33 58q-2.8 5.176-8.4 6.588-5.6 1.412-10.707-1.421-5.107-2.834-6.5-8.5Q100-485 103-490l33-58H70q-6.067 0-10.033-3.953-3.967-3.954-3.967-10Q56-568 59.967-572q3.966-4 10.033-4h66l-33-56q-3-5-1.607-10.667 1.393-5.666 6.5-8.5Q113-654 118.6-652.588q5.6 1.412 8.4 6.588l33 56 33-56q2.8-5.176 8.4-6.588 5.6-1.412 10.707 1.421 5.107 2.834 6.5 8.5Q220-637 217-632l-33 56h66q6.067 0 10.033 3.953 3.967 3.954 3.967 10Q264-556 260.033-552q-3.966 4-10.033 4h-66l33 58q3 5 1.607 10.667-1.393 5.666-6.5 8.5Q207-468 201.4-469.412q-5.6-1.412-8.4-6.588l-33-58Zm320 0-33 58q-2.8 5.176-8.4 6.588-5.6 1.412-10.707-1.421-5.107-2.834-6.5-8.5Q420-485 423-490l33-58h-66q-6.067 0-10.033-3.953-3.967-3.954-3.967-10Q376-568 379.967-572q3.966-4 10.033-4h66l-33-56q-3-5-1.607-10.667 1.393-5.666 6.5-8.5Q433-654 438.6-652.588q5.6 1.412 8.4 6.588l33 56 33-56q2.8-5.176 8.4-6.588 5.6-1.412 10.707 1.421 5.107 2.834 6.5 8.5Q540-637 537-632l-33 56h66q6.067 0 10.033 3.953 3.967 3.954 3.967 10Q584-556 580.033-552q-3.966 4-10.033 4h-66l33 58q3 5 1.607 10.667-1.393 5.666-6.5 8.5Q527-468 521.4-469.412q-5.6-1.412-8.4-6.588l-33-58Zm320 0-33 58q-2.8 5.176-8.4 6.588-5.6 1.412-10.707-1.421-5.107-2.834-6.5-8.5Q740-485 743-490l33-58h-66q-6.067 0-10.033-3.953-3.967-3.954-3.967-10Q696-568 699.967-572q3.966-4 10.033-4h66l-33-56q-3-5-1.607-10.667 1.393-5.666 6.5-8.5Q753-654 758.6-652.588q5.6 1.412 8.4 6.588l33 56 33-56q2.8-5.176 8.4-6.588 5.6-1.412 10.707 1.421 5.107 2.834 6.5 8.5Q860-637 857-632l-33 56h66q6.067 0 10.033 3.953 3.967 3.954 3.967 10Q904-556 900.033-552q-3.966 4-10.033 4h-66l33 58q3 5 1.607 10.667-1.393 5.666-6.5 8.5Q847-468 841.4-469.412q-5.6-1.412-8.4-6.588l-33-58Z"/></svg>