<svg xmlns="http://www.w3.org/2000/svg" height="20" viewBox="0 -960 960 960" width="20"><path d="M132-286h696q3.95 0 6.975 3.035 3.025 3.035 3.025 7T834.975-269q-3.025 3-6.975 3H132q-3.95 0-6.975-3.035-3.025-3.035-3.025-7t3.025-6.965q3.025-3 6.975-3Zm36-272-25 43q-4.8 7.176-12.4 9.588-7.6 2.412-14.707-2.421-7.107-4.834-9.5-12.5Q104-528 109-535l25-43H84q-8.067 0-14.033-5.953-5.967-5.954-5.967-14Q64-606 69.967-612q5.966-6 14.033-6h50l-25-43q-5-7-2.607-14.667 2.393-7.666 9.5-12.5Q123-693 130.6-690.588q7.6 2.412 12.4 9.588l25 43 25-43q4.8-7.176 12.4-9.588 7.6-2.412 14.707 2.421 7.107 4.834 9.5 12.5Q232-668 227-661l-25 43h50q8.067 0 14.033 5.953 5.967 5.954 5.967 14Q272-590 266.033-584q-5.966 6-14.033 6h-50l25 43q5 7 2.607 14.667-2.393 7.666-9.5 12.5Q213-503 205.4-505.412q-7.6-2.412-12.4-9.588l-25-43Zm312 0-25 43q-4.8 7.176-12.4 9.588-7.6 2.412-14.707-2.421-7.107-4.834-9.5-12.5Q416-528 421-535l25-43h-50q-8.067 0-14.033-5.953-5.967-5.954-5.967-14Q376-606 381.967-612q5.966-6 14.033-6h50l-25-43q-5-7-2.607-14.667 2.393-7.666 9.5-12.5Q435-693 442.6-690.588q7.6 2.412 12.4 9.588l25 43 25-43q4.8-7.176 12.4-9.588 7.6-2.412 14.707 2.421 7.107 4.834 9.5 12.5Q544-668 539-661l-25 43h50q8.067 0 14.033 5.953 5.967 5.954 5.967 14Q584-590 578.033-584q-5.966 6-14.033 6h-50l25 43q5 7 2.607 14.667-2.393 7.666-9.5 12.5Q525-503 517.4-505.412q-7.6-2.412-12.4-9.588l-25-43Zm312 0-25 43q-4.8 7.176-12.4 9.588-7.6 2.412-14.707-2.421-7.107-4.834-9.5-12.5Q728-528 733-535l25-43h-50q-8.067 0-14.033-5.953-5.967-5.954-5.967-14Q688-606 693.967-612q5.966-6 14.033-6h50l-25-43q-5-7-2.607-14.667 2.393-7.666 9.5-12.5Q747-693 754.6-690.588q7.6 2.412 12.4 9.588l25 43 25-43q4.8-7.176 12.4-9.588 7.6-2.412 14.707 2.421 7.107 4.834 9.5 12.5Q856-668 851-661l-25 43h50q8.067 0 14.033 5.953 5.967 5.954 5.967 14Q896-590 890.033-584q-5.966 6-14.033 6h-50l25 43q5 7 2.607 14.667-2.393 7.666-9.5 12.5Q837-503 829.4-505.412q-7.6-2.412-12.4-9.588l-25-43Z"/></svg>