<svg xmlns="http://www.w3.org/2000/svg" height="24" viewBox="0 -960 960 960" width="24"><path d="M680-120q-17 0-28.5-11.5T640-160v-120q0-17 11.5-28.5T680-320v-40q0-33 23.5-56.5T760-440q33 0 56.5 23.5T840-360v40q17 0 28.5 11.5T880-280v120q0 17-11.5 28.5T840-120H680Zm40-200h80v-40q0-17-11.5-28.5T760-400q-17 0-28.5 11.5T720-360v40ZM423-177 61-539q-12-12-18-27t-6-30q0-17 7-32.5T65-656q82-71 195-107.5T480-800q107 0 220 36.5T895-656q14 12 21 27.5t7 32.5q0 15-6 30t-18 27l-40 40q-21-10-44.5-15t-48.5-6l78-78q-79-60-172-91t-192-31q-99 0-192 31t-172 91l364 364 40-40q1 25 6 48.5t15 44.5l-4 4q-12 12-26.5 18t-30.5 6q-16 0-30.5-6T423-177Zm57-300Z"/></svg>