<svg xmlns="http://www.w3.org/2000/svg" height="24" viewBox="0 -960 960 960" width="24"><path d="M676.609-100.782q-15.559 0-26.084-10.525T640-137.39v-126.783q0-15.559 10.525-26.084t26.084-10.525H680v-40q0-33 23.5-56.5t56.5-23.5q33 0 56.5 23.5t23.5 56.5v40h3.391q15.559 0 26.084 10.525T880-264.173v126.783q0 15.558-10.525 26.083-10.525 10.525-26.084 10.525H676.609Zm43.391-200h80v-40q0-17-11.5-28.5t-28.5-11.5q-17 0-28.5 11.5t-11.5 28.5v40Zm-305.479 152.61L66.652-526.565q-13.13-14.261-19.413-31.522-6.282-17.261-6.282-35.175 0-20.303 8.13-39.267 8.13-18.964 24.392-33.645 84.261-69.305 191.043-106.37Q371.304-809.609 480-809.609q108.696 0 215.478 37.065 106.782 37.065 191.043 106.37 16.261 14.681 24.392 33.645 8.13 18.964 8.13 39.267 0 17.914-6.282 35.175-6.283 17.261-19.413 31.522l-40.566 43.957q-20.476-8.869-43.39-13.304-22.914-4.435-46.783-4.87-11.305 0-21.762 1.696-10.458 1.696-20.632 5.087l90.435-98.914q-72.217-54.347-156.592-82.521-84.376-28.174-174.195-28.174-89.819 0-174.058 28.174-84.238 28.174-156.455 82.521L480-236.826l42.261-45.653q-1.131 6.218-1.696 12.153-.565 5.935-.565 12.153.435 29.522 7.413 56.979 6.978 27.456 19.805 51.283l-1.739 1.739q-13.131 14.826-30.174 21.956-17.044 7.131-35.305 7.131t-35.305-7.131q-17.043-7.13-30.174-21.956ZM480-470.217Z"/></svg>