<svg xmlns="http://www.w3.org/2000/svg" height="24" viewBox="0 -960 960 960" width="24"><path d="M310-295.385v-369.23q0-8.501 5.758-14.251 5.757-5.75 14.269-5.75 8.511 0 14.242 5.75 5.731 5.75 5.731 14.251v369.23q0 8.501-5.758 14.251t-14.269 5.75q-8.512 0-14.242-5.75-5.731-5.75-5.731-14.251ZM460-140v-680q0-8.5 5.758-14.25 5.757-5.75 14.269-5.75t14.242 5.75Q500-828.5 500-820v680q0 8.5-5.758 14.25-5.757 5.75-14.269 5.75t-14.242-5.75Q460-131.5 460-140ZM160-447.692v-64.616q0-8.5 5.758-14.25 5.757-5.75 14.269-5.75 8.511 0 14.242 5.75 5.731 5.75 5.731 14.25v64.616q0 8.5-5.758 14.25t-14.269 5.75q-8.512 0-14.242-5.75-5.731-5.75-5.731-14.25Zm450 152.307v-369.23q0-8.501 5.758-14.251t14.269-5.75q8.512 0 14.242 5.75 5.731 5.75 5.731 14.251v369.23q0 8.501-5.758 14.251-5.757 5.75-14.269 5.75-8.511 0-14.242-5.75-5.731-5.75-5.731-14.251Zm150-152.307v-64.616q0-8.5 5.758-14.25t14.269-5.75q8.512 0 14.242 5.75 5.731 5.75 5.731 14.25v64.616q0 8.5-5.758 14.25-5.757 5.75-14.269 5.75-8.511 0-14.242-5.75-5.731-5.75-5.731-14.25Z"/></svg>