<svg xmlns="http://www.w3.org/2000/svg" height="20" viewBox="0 -960 960 960" width="20"><path d="M324-291.385v-377.23q0-6.801 4.547-11.401t11.269-4.6q6.722 0 11.453 4.6 4.731 4.6 4.731 11.401v377.23q0 6.801-4.547 11.401t-11.269 4.6q-6.723 0-11.453-4.6-4.731-4.6-4.731-11.401ZM464-152v-656q0-6.8 4.547-11.4 4.547-4.6 11.269-4.6 6.723 0 11.453 4.6Q496-814.8 496-808v656q0 6.8-4.547 11.4-4.547 4.6-11.269 4.6-6.723 0-11.453-4.6Q464-145.2 464-152ZM184-427.692v-104.616q0-6.8 4.547-11.4 4.547-4.6 11.269-4.6t11.453 4.6q4.731 4.6 4.731 11.4v104.616q0 6.8-4.547 11.4-4.548 4.6-11.27 4.6-6.722 0-11.452-4.6-4.731-4.6-4.731-11.4Zm420 136.307v-377.23q0-6.801 4.547-11.401t11.27-4.6q6.722 0 11.452 4.6 4.731 4.6 4.731 11.401v377.23q0 6.801-4.547 11.401t-11.269 4.6q-6.722 0-11.453-4.6-4.731-4.6-4.731-11.401Zm140-136.307v-104.616q0-6.8 4.547-11.4 4.547-4.6 11.27-4.6 6.722 0 11.452 4.6 4.731 4.6 4.731 11.4v104.616q0 6.8-4.547 11.4-4.547 4.6-11.269 4.6t-11.453-4.6q-4.731-4.6-4.731-11.4Z"/></svg>