<svg xmlns="http://www.w3.org/2000/svg" height="24" viewBox="0 -960 960 960" width="24"><path d="M265.869-274.913v-410.739q0-20.604 14.326-34.542 14.326-13.937 34.718-13.937 20.391 0 34.435 13.937 14.043 13.938 14.043 34.542v411.304q0 20.604-13.937 34.542-13.938 13.937-34.541 13.937-20.392 0-34.718-14.326-14.326-14.326-14.326-34.718ZM431.521-109.26v-741.48q0-20.603 13.938-34.541 13.938-13.937 34.541-13.937 20.603 0 34.541 13.937 13.938 13.938 13.938 34.541v741.48q0 20.603-13.938 34.54Q500.603-60.781 480-60.781q-20.603 0-34.541-13.937-13.938-13.938-13.938-34.541ZM100.782-440.565V-520q0-20.603 14.326-34.541 14.326-13.938 34.718-13.938 20.391 0 34.435 14.327 14.043 14.326 14.043 34.717V-440q0 20.603-13.937 34.541-13.938 13.938-34.541 13.938-20.392 0-34.718-14.327-14.326-14.326-14.326-34.717Zm495.261 165.652v-410.739q0-20.604 14.327-34.542 14.326-13.937 34.717-13.937 20.392 0 34.435 13.937 14.044 13.938 14.044 34.542v411.304q0 20.604-13.938 34.542-13.937 13.937-34.541 13.937-20.391 0-34.717-14.326-14.327-14.326-14.327-34.718Zm165.653-165.652V-520q0-20.603 14.326-34.541 14.326-13.938 34.718-13.938 20.391 0 34.435 14.327 14.043 14.326 14.043 34.717V-440q0 20.603-13.937 34.541-13.938 13.938-34.541 13.938-20.392 0-34.718-14.327-14.326-14.326-14.326-34.717Z"/></svg>