<svg xmlns="http://www.w3.org/2000/svg" height="20" viewBox="0 -960 960 960" width="20"><path d="M517-63v-117.675Q558-185 596.5-202t69.5-42l86 86q-48 41-108.5 65.5T517-63Zm286-146-86-86q23-30 38.5-68t22.5-81h118q-7 69-30.5 129.5T803-209Zm-24-307q-7-43-23-81t-39-68l84.426-85Q843-703 867-643t30 127H779ZM445-63q-164.726-9.189-274.363-130.094Q61-314 61-479.518 61-643 171-762q110-119 274-134v118q-113 16.587-189 100.903-76 84.315-76 197.379 0 112.063 76 195.89Q332-200 445-181v118Zm221-653q-32-23-70-39t-78-22.529V-896q64 5 125 29.5T752-801l-86 85ZM480-255q-63-54-118.5-120T306-511q0-72.683 50.271-124.341Q406.542-687 479.771-687T603.5-635.341Q654-583.683 654-511q0 70-55.5 136T480-255Zm-.066-206Q502-461 518.5-477.458q16.5-16.459 16.5-38.559Q535-538 518.566-554.5q-16.435-16.5-38.5-16.5Q458-571 441.5-554.508 425-538.016 425-516.066 425-494 441.434-477.5q16.435 16.5 38.5 16.5Z"/></svg>