<svg xmlns="http://www.w3.org/2000/svg" height="20" viewBox="0 -960 960 960" width="20"><path d="M516.565-78.216v-97.677q41.435-4.759 81.022-21.977 39.587-17.217 71.456-42.652l71.219 71.218q-46.696 38.392-104.153 62.022-57.457 23.63-119.544 29.066Zm274.697-142.088-71.219-71.218q24.305-30.869 40.457-69.956T783.217-444h98.001q-7.434 64.652-30.065 122.544-22.63 57.891-59.891 101.152ZM783.782-516q-6.565-43.435-23-82.522-16.434-39.087-40.739-69.956l70.514-70.653q38.966 45.696 62.096 102.87Q875.784-579.087 881.784-516h-98.002ZM444.565-78.216q-157.77-12.667-263.059-127.921-105.29-115.254-105.29-273.381 0-157.395 105.435-271.613 105.436-114.218 262.914-130.087v98.001Q329.391-766.63 252.087-680.792q-77.304 85.837-77.304 201.074 0 114.671 77.304 200.02 77.304 85.35 192.478 103.48v98.002Zm224.478-641.262q-33.304-24.304-72.391-40.956-39.087-16.653-79.522-22.312v-98.472q60.522 5.434 118.479 29.065 57.957 23.63 104.653 62.022l-71.219 70.653ZM480-269.347q-59.957-51.391-113.066-114.783-53.108-63.391-53.108-129.044 0-69.205 48.097-118.255t117.848-49.05q69.751 0 118.077 49.05 48.326 49.05 48.326 118.255 0 65.653-53.108 129.044Q539.957-320.738 480-269.347Zm-.066-194.696q21.196 0 36.61-15.372 15.413-15.371 15.413-36.602 0-20.679-15.348-36.309-15.347-15.631-36.543-15.631-21.196 0-36.61 15.623-15.413 15.622-15.413 36.268 0 21.196 15.348 36.61 15.347 15.413 36.543 15.413Z"/></svg>