<svg xmlns="http://www.w3.org/2000/svg" height="24" viewBox="0 -960 960 960" width="24"><path d="M380-300q-74.539 0-127.269-52.731Q200-405.461 200-480q0-74.539 52.731-127.269Q305.461-660 380-660q69.923 0 120.192 45.5Q550.461-569 559.077-500h204.077l-69.846-69.846q-5.616-5.615-6-13.654-.385-8.039 6.23-14.654 6.385-6.385 14.154-6.385 7.77 0 14.154 6.385l95.539 95.539q5.231 5.23 7.346 10.692 2.115 5.461 2.115 11.923t-2.115 11.923q-2.115 5.462-7.346 10.692l-95.539 95.539q-5.615 5.615-13.654 6-8.038.385-14.654-6-6.615-6.615-6.615-14.269t6.615-14.27L763.154-460H559.077q-8.616 69-58.885 114.5T380-300Z"/></svg>