<svg xmlns="http://www.w3.org/2000/svg" height="24" viewBox="0 -960 960 960" width="24"><path d="M386-306q-72.21 0-123.105-50.852Q212-407.703 212-479.852 212-552 262.895-603T386-654q69 0 118 45.5T560-494h214l-80-80q-4-4-4.5-9.5t4.717-10.717Q699-599 704-599q5 0 10 5l92.655 92.655Q812-496 814-490.867q2 5.134 2 11Q816-474 814-469q-2 5-7.345 10.345L714-366q-4 4-9.5 4.5t-10.5-4.283Q689-371 689-376q0-5 5-10l80-80H560q-7 69-56 114.5T386-306Zm.118-28Q447-334 489.5-376.618q42.5-42.617 42.5-103.5Q532-541 489.382-583.5q-42.617-42.5-103.5-42.5Q325-626 282.5-583.382q-42.5 42.617-42.5 103.5Q240-419 282.618-376.5q42.617 42.5 103.5 42.5ZM386-480Z"/></svg>