<svg xmlns="http://www.w3.org/2000/svg" height="24" viewBox="0 -960 960 960" width="24"><path d="M240-160v-400 375.385-.385 25Zm120-440h240v-80q0-50-35-85t-85-35q-50 0-85 35t-35 85v80Zm-95.385 480q-26.846 0-45.731-18.884Q200-157.769 200-184.615v-350.77q0-26.846 18.884-45.731Q237.769-600 264.615-600H320v-80q0-66.846 46.577-113.423T480-840q66.846 0 113.423 46.577T640-680v80h55.385q26.846 0 45.731 18.884Q760-562.231 760-535.385v137.077q-5.615-.461-10.615-1.077-5-.615-10.616-.615-4.615 0-9.5.231-4.884.231-9.269.692v-136.308q0-10.769-6.923-17.692T695.385-560h-430.77q-10.769 0-17.692 6.923T240-535.385v350.77q0 10.769 6.923 17.692T264.615-160h307.077q3.462 11.462 8.231 21.077 4.769 9.616 11.846 18.923H264.615Zm476.154 0q-33.538 0-56.769-23.231-23.231-23.23-23.231-56.769 0-15.385 5.462-29.192 5.461-13.808 15.154-24.731l41.23-45.692q7.462-8.462 18.154-8.462 10.693 0 18.154 8.462l41.231 45.692q9.692 10.923 15.154 24.731 5.461 13.807 5.461 29.192 0 33.539-23.23 56.769Q774.308-120 740.769-120ZM480-300q25.308 0 42.654-17.346Q540-334.692 540-360q0-25.308-17.346-42.654Q505.308-420 480-420q-25.308 0-42.654 17.346Q420-385.308 420-360q0 25.308 17.346 42.654Q454.692-300 480-300Z"/></svg>