<svg xmlns="http://www.w3.org/2000/svg" height="20" viewBox="0 -960 960 960" width="20"><path d="M743.282-148Q714-148 693.5-168.3 673-188.6 673-218q0-12 4.5-25t12.312-22.111L728-307q6.171-7 15.086-7Q752-314 758-307l38.188 41.889Q804-256 808.5-243q4.5 13 4.5 25 0 29.4-20.218 49.7-20.219 20.3-49.5 20.3ZM360-572h240v-96q0-50-35-85t-85-35q-50 0-85 35t-35 85v96Zm120.212 258Q500-314 513-327.212q13-13.213 13-33Q526-380 512.788-393q-13.213-13-33-13Q460-406 447-392.788q-13 13.213-13 33Q434-340 447.212-327q13.213 13 33 13ZM296-148q-21.45 0-36.725-15.275Q244-178.55 244-200v-320q0-21.45 15.275-36.725Q274.55-572 296-572h44v-96q0-58.68 40.726-99.34 40.726-40.66 99.5-40.66t99.274 40.66Q620-726.68 620-668v96h44q21.45 0 36.725 15.275Q716-541.45 716-520v109q-15 2-29.774 6-14.774 4-28.226 11-38 26-59.5 65.5T577-242q0 25.653 8 48.826Q593-170 606-148H296Z"/></svg>