<svg xmlns="http://www.w3.org/2000/svg" height="20" viewBox="0 -960 960 960" width="20"><path d="M749.038-136q-31.807 0-54.038-22.04-22.231-22.04-22.231-53.96 0-13.385 4.962-27.192 4.961-13.808 13.509-23.817l41.375-45.606q6.647-7.462 16.247-7.462t16.061 7.462l41.375 45.606q8.548 10.009 13.51 23.817 4.961 13.807 4.961 27.192 0 31.92-21.962 53.96T749.038-136ZM360-584h240v-96q0-50-35-85t-85-35q-50 0-85 35t-35 85v96Zm120.212 276q22.096 0 36.942-15.058Q532-338.117 532-360.212q0-22.096-15.058-36.942Q501.883-412 479.788-412q-22.096 0-36.942 15.058Q428-381.883 428-359.788q0 22.096 15.058 36.942Q458.117-308 480.212-308ZM288.615-136q-23.354 0-39.984-16.631Q232-169.261 232-192.615v-334.77q0-23.354 16.631-39.984Q265.261-584 288.615-584H328v-96q0-63.526 44.303-107.763T480.226-832q63.62 0 107.697 44.237Q632-743.526 632-680v96h39.385q23.354 0 39.984 16.631Q728-550.739 728-527.385v117.077q-15.923 1.539-31.441 5.423Q681.04-401 666.769-394q-41.461 24.846-65.73 66.308-24.27 41.461-24.27 91.692 0 27.268 8.693 52.173 8.692 24.904 23.307 47.827H288.615Z"/></svg>