<svg xmlns="http://www.w3.org/2000/svg" height="20" viewBox="0 -960 960 960" width="20"><path d="M781.225-65Q732-65 697-99.84q-35-34.84-35-83.966 0-22.194 8.115-42.556Q678.231-246.723 692-263l56-63q13.629-15 33.314-15Q801-341 814-326l56 63q13.769 16.134 21.885 36.328Q900-206.478 900-184q0 49.32-34.775 84.16-34.774 34.84-84 34.84ZM391-661h178v-67q0-38.333-25.5-65.167Q518-820 480-820t-63.5 26.833Q391-766.333 391-728v67Zm89.212 370Q510-291 531-312.212q21-21.213 21-51Q552-393 530.788-414q-21.213-21-51-21Q450-435 429-413.788q-21 21.213-21 51Q408-333 429.212-312q21.213 21 51 21ZM276-65q-48.675 0-83.337-34.662Q158-134.325 158-183v-360q0-48.675 34.663-83.338Q227.325-661 276-661h-3v-67q0-87.68 60.226-148.84t147-61.16Q567-938 627-876.84T687-728v67h-3q48.675 0 83.338 34.662Q802-591.675 802-543v125q-23-3-46.484-.5T709-409q-62.525 21-102.763 75Q566-280 566-208q0 38.653 14.5 76.326Q595-94 620-65H276Z"/></svg>