<svg xmlns="http://www.w3.org/2000/svg" height="20" viewBox="0 -960 960 960" width="20"><path d="M112.782-402.913q-15.3 0-25.65-10.452-10.35-10.452-10.35-25.902 0-15.211 10.512-25.711 10.513-10.5 26.053-10.5h733.871q15.3 0 25.65 10.289 10.35 10.29 10.35 25.5 0 15.211-10.512 25.994-10.513 10.782-26.053 10.782H112.782Zm306.217-144.565v-118.304H281.217q-25.652 0-43.044-17.792-17.391-17.792-17.391-43.209 0-25.652 17.391-43.044 17.392-17.391 43.044-17.391h397.566q25.652 0 43.044 17.391 17.391 17.392 17.391 43.044 0 25.653-17.391 43.327-17.392 17.674-43.044 17.674H541.566v118.304H418.999Zm0 216.565h122.567v97.131q0 25.417-17.792 43.209-17.792 17.791-43.209 17.791-25.652 0-43.609-17.956-17.957-17.957-17.957-43.61v-96.565Z"/></svg>