<svg xmlns="http://www.w3.org/2000/svg" height="20" viewBox="0 -960 960 960" width="20"><path d="M158-435q-4.25 0-7.125-2.825-2.875-2.824-2.875-7 0-4.175 2.875-7.175t7.125-3h644q4.25 0 7.125 2.825 2.875 2.824 2.875 7 0 4.175-2.875 7.175T802-435H158Zm320-90v-186H295q-.833 0-1.417-.618-.583-.617-.583-1.5 0-.882.583-1.882.584-1 1.417-1h371q.833 0 1.417.618.583.617.583 1.5 0 .882-.583 1.882-.584 1-1.417 1H483v186h-5Zm0 160h5v119q0 .833-.618 1.417-.617.583-1.5.583-.882 0-1.882-.875-1-.875-1-2.125v-118Z"/></svg>