<svg xmlns="http://www.w3.org/2000/svg" height="20" viewBox="0 -960 960 960" width="20"><path d="M192.615-232q-23.546 0-40.081-16.546Q136-265.093 136-288.656v-383.012q0-23.563 16.534-39.948Q169.069-728 192.615-728h574.77q23.546 0 40.081 16.546Q824-694.907 824-671.344v383.012q0 23.563-16.534 39.948Q790.931-232 767.385-232h-574.77Zm0-32h40.308v-432h-40.308q-10.769 0-17.692 6.923T168-671.385v382.77q0 10.769 6.923 17.692T192.615-264Zm72.308 0h430.154v-432H264.923v432Zm462.154 0h40.308q10.769 0 17.692-6.923T792-288.615v-382.77q0-10.769-6.923-17.692T767.385-696h-40.308v432ZM264.923-696v432-432Z"/></svg>