<svg xmlns="http://www.w3.org/2000/svg" height="20" viewBox="0 -960 960 960" width="20"><path d="M457.692-507.615q19.077-21.539 26.539-47.539 7.461-26 7.461-53.461 0-26.462-7.461-52.462-7.462-26-26.539-48.539 8-2 15-2.5t15-.5q45.385-3.846 77 27 31.616 30.847 31.616 77.001 0 46.153-31.616 77-31.615 30.846-77 27-8 0-15.5-.5t-14.5-2.5Zm172.077 260.231q2.077-8.539 4-16.619 1.923-8.081 1.923-16.92v-6.154q0-34.42-13.615-63.979-13.615-29.559-44.539-46.867 58.001 10.615 110.385 33.615 52.385 23 52.385 77.231v6.154q0 14.616-9.462 24.077-9.461 9.462-24.077 9.462h-77ZM852.308-536h-168q-6.5 0-11.25-4.758-4.75-4.757-4.75-11.269 0-6.512 4.75-11.242 4.75-4.731 11.25-4.731h168q6.5 0 11.25 4.758 4.75 4.757 4.75 11.269 0 6.512-4.75 11.242-4.75 4.731-11.25 4.731Zm-536.616 31.385q-43.5 0-73.75-30.25t-30.25-73.75q0-43.501 30.25-73.751 30.25-30.25 73.75-30.25t73.75 30.25q30.25 30.25 30.25 73.751 0 43.5-30.25 73.75t-73.75 30.25Zm-248 223.692v-12.308q0-15.769 9.423-30.346t26.808-25.5q48.615-30.154 102.807-44.231 54.193-14.077 108.962-14.077 53.769 0 107.462 15.077 53.692 15.077 104.308 43.231 16.384 10.923 26.307 25.5 9.923 14.577 9.923 30.346v12.308q0 14.616-9.461 24.077-9.462 9.462-24.077 9.462H101.231q-14.616 0-24.078-9.462-9.461-9.461-9.461-24.077Z"/></svg>