<svg xmlns="http://www.w3.org/2000/svg" height="24" viewBox="0 -960 960 960" width="24"><path d="M505.652-492.74q34.088-36.522 51.283-82.326 17.196-45.805 17.196-94.044 0-48.24-18.326-94.892-18.326-46.652-51.283-80.913 69.044 12.522 109.327 63.457 40.282 50.935 40.282 112.63 0 63.957-40.848 114.327T505.652-492.74Zm194.609 361.568q17.218-23.088 25.544-50.088t8.326-55.914v-30.956q0-43.913-15.435-79.24-15.434-35.326-44.826-63.717 61.74 15.174 105.522 50.457 43.783 35.282 43.783 92.5v30.956q0 44.305-30.848 75.153-30.848 30.849-75.153 30.849h-16.913Zm242.914-404.655H779.784q-17 0-28.5-11.5t-11.5-28.5q0-17 11.5-28.5t28.5-11.5h163.391q17 0 28.5 11.5t11.5 28.5q0 17-11.5 28.5t-28.5 11.5Zm-627.697 46.218q-74.479 0-126.849-52.37-52.369-52.37-52.369-126.849 0-74.478 52.369-126.565 52.37-52.088 126.849-52.088 74.479 0 126.566 52.088 52.087 52.087 52.087 126.565 0 74.479-52.087 126.849-52.087 52.37-126.566 52.37ZM-23.74-237.174v-26.347q0-39.28 20.043-72.206 20.044-32.925 54.131-50.186 64.261-31.566 130.805-47.631 66.543-16.065 134.239-16.065 69.392 0 135.652 15.782 66.261 15.783 128.827 47.348 34.087 17.261 54.131 50.001 20.043 32.739 20.043 72.957v26.347q0 44.305-30.848 75.153-30.848 30.849-75.153 30.849H82.261q-44.305 0-75.153-30.849-30.848-30.848-30.848-75.153Zm339.198-358.437q30.194 0 51.433-21.501 21.239-21.502 21.239-51.696 0-30.193-21.342-51.432-21.341-21.239-51.31-21.239-30.202 0-51.71 21.341-21.507 21.342-21.507 51.31 0 30.202 21.502 51.71 21.501 21.507 51.695 21.507ZM82.261-237.174H548.13v-23.521q0-10.451-5.5-19.003-5.5-8.551-14.5-13.301-50.609-25.305-103.913-37.957-53.304-12.652-108.591-12.652-55.287 0-109.587 12.935-54.3 12.935-103.778 37.674-9 4.75-14.5 13.301-5.5 8.552-5.5 19.003v23.521Zm233.217-431.654Zm0 431.654Z"/></svg>