<svg xmlns="http://www.w3.org/2000/svg" height="20" viewBox="0 -960 960 960" width="20"><path d="M460-502q35-38 52-82.619t17-90.881q0-45.913-19-91.706Q491-813 458-848q8-2 15-2.5t15-.5q76 8 118.5 60.5T649-675q0 67-43.5 118.5T490-499q-8 0-15.5-.5T460-502Zm173 361q20-26 30-55.685 10-29.686 10-62.315v-4q0-55-18-95.5T597-430q87 11 149.5 51T809-263v4q0 49.7-34.15 83.85Q740.7-141 691-141h-58Zm308-403H767q-15.3 0-25.65-10.289-10.35-10.29-10.35-25.5Q731-595 741.35-605.5 751.7-616 767-616h174q15.3 0 25.65 10.289 10.35 10.29 10.35 25.5Q977-565 966.65-554.5 956.3-544 941-544Zm-661 47q-75 0-126.5-51.5T102-675q0-75 51.5-126T280-852q75 0 126 51t51 126q0 75-51 126.5T280-497ZM-42-259v-10q0-34.747 17-63.874Q-8-362 23-380q58-35 124.038-52 66.039-17 132.5-17Q349-449 414-431.5 479-414 536-381q30 18 47.5 46.797Q601-305.407 601-269v10q0 49.7-34.162 83.85Q532.676-141 482.96-141H75.717Q26-141-8-175.15T-42-259Zm321.469-356Q304-615 321.5-632.469t17.5-42Q339-699 321.319-716.5T279.504-734q-24.545 0-42.025 17.681Q220-698.638 220-674.504q0 24.545 17.469 42.025 17.469 17.479 42 17.479ZM76-259h407v-5q0-5.098-3-9.27-3-4.171-8-7.73-42-23-90.5-36.5T279.761-331q-53.238 0-103.5 13.5Q126-304 87-281q-5 3.559-8 7.73-3 4.172-3 9.27v5Zm204-416Zm0 416Z"/></svg>