<svg xmlns="http://www.w3.org/2000/svg" height="20" viewBox="0 -960 960 960" width="20"><path d="m152.868-122.174 52.609-222.912q2.565-9.13 10.478-15.261 7.913-6.13 17.486-6.13 12.722 0 20.901 10.695 8.179 10.696 5.613 23.392l-52.043 223.477q-2.565 9.13-10.278 15.261-7.714 6.13-17.824 6.13-12.867 0-21.187-10.978t-5.755-23.674Zm144.653-17.956 82.174-420-64.869 27.913V-468q0 18.903-12.727 31.691t-31.541 12.788q-18.602 0-31.928-12.788T225.304-468v-90.609q0-15.262 8.402-27.344 8.402-12.083 22.622-18.442l165.281-67.518q35.826-15.131 72.869-4.066 37.044 11.066 60.305 49.457l16.13 26q15.305 26.174 37.544 50.978Q630.696-524.74 684-515.609q18.391 3.13 31.435 16.138 13.044 13.008 13.044 31.435t-13.135 31.254q-13.134 12.826-31.04 9.695-46.304-7-84.382-29.379-38.077-22.379-65.835-54.011l-18.478 99.651 53.99 54.289q6.619 6.885 10.749 15.965 4.131 9.08 4.131 19.833V-132q0 18.903-12.727 31.691t-31.541 12.788q-18.814 0-31.752-12.788-12.938-12.788-12.938-31.691v-173.609l-62.999-62.999-47.27 246.213q-3.469 15.482-15.982 25.178-12.514 9.696-28.835 9.696-20.664 0-33.572-15.827-12.907-15.826-9.342-36.782ZM534.46-704.479q-38.219 0-65.187-27.574-26.969-27.574-26.969-65.792 0-38.219 27.217-65.188 27.216-26.968 65.435-26.968 38.218 0 65.545 27.216 27.326 27.216 27.326 65.435t-27.574 65.545q-27.574 27.326-65.793 27.326ZM672-116.008v-222.128q0-12.099 8.081-20.22 8.081-8.121 20.441-8.121 12.115 0 20.036 7.911 7.921 7.911 7.921 20.01v222.693q0 12.1-7.918 20.22-7.917 8.122-20.026 8.122t-20.322-8.072Q672-103.664 672-116.008Z"/></svg>