<svg xmlns="http://www.w3.org/2000/svg" height="24" viewBox="0 -960 960 960" width="24"><path d="m182.615-81.385 63.923-292.538q1.177-6.585 5.886-10.177 4.708-3.592 11.182-3.592 8.24 0 13.394 6.384 5.154 6.385 2.923 15L216-73.769q-1.177 6.585-5.885 10.177Q205.406-60 198.932-60q-8.24 0-13.394-6.385-5.153-6.384-2.923-15Zm128.154-2.23 107.385-554.231L300-589.077V-480q0 8.5-5.758 14.25-5.757 5.75-14.269 5.75t-14.242-5.75Q260-471.5 260-480v-114.308q0-9.915 5.731-17.765 5.73-7.85 14.423-12.081l162.615-67.538q27.462-11.231 50.539-5.577t37.769 28.038L570.308-606q23.307 37.077 61.807 64.769 38.5 27.692 87.116 37.231 8.538 2.231 14.654 8.183Q740-489.865 740-481.432q0 8.432-6.115 13.663-6.116 5.231-14.423 4-56.308-8-105.231-40.808-48.923-32.807-84.231-90.038l-35.538 180.769 75.846 72.615q5.231 5.231 7.461 11.226Q580-324.01 580-317.615V-80q0 8.5-5.758 14.25Q568.485-60 559.973-60t-14.242-5.75Q540-71.5 540-80v-206.923L423.692-398.461 350.231-75.846q-1.424 6.933-6.883 11.39Q337.889-60 330.769-60q-10.21 0-16.336-7.308-6.125-7.307-3.664-16.307ZM540-752.308q-27.923 0-47.808-19.884-19.884-19.885-19.884-47.808t19.884-47.808q19.885-19.884 47.808-19.884t47.808 19.884q19.884 19.885 19.884 47.808t-19.884 47.808Q567.923-752.308 540-752.308ZM712.308-77.692V-370q0-7.667 5.002-12.68 5.003-5.012 12.654-5.012t12.69 5.012q5.038 5.013 5.038 12.68v292.308q0 7.666-5.002 12.68Q737.687-60 730.036-60t-12.69-5.013q-5.038-5.013-5.038-12.68Z"/></svg>