<svg xmlns="http://www.w3.org/2000/svg" height="24" viewBox="0 -960 960 960" width="24"><path d="m120-71 61-269q3-13 13.5-21t23.5-8q17.5 0 28.75 14t7.25 31L194-54q-3 13-13.146 21-10.147 8-24.098 8Q139-25 127.5-39.5T120-71Zm155-20 97-492-47 19v84q0 23.375-15.812 39.188Q293.375-425 270-425q-23 0-39.5-15.812Q214-456.625 214-480v-116q0-19.667 10.833-35.236Q235.667-646.806 254-655l182-73q34-14 68.5-3.5T560-688l42 64q18 29 47.5 51t70.5 32q23 5 39 21.345t16 39.5Q775-457 758-441t-40 12q-51-8-94-29.5T549-509l-16 84 63 60q9 9 14 21.065 5 12.065 5 24.935v239q0 23.375-15.812 39.188Q583.375-25 560-25t-39.188-15.813Q505-56.624 505-80v-194l-61-57-59 263q-5 19-20.434 31Q349.132-25 329-25q-26 0-42.5-20T275-91Zm276.867-664q-39.133 0-67-28.5Q457-812 457-851.133q0-39.133 27.867-67 27.867-27.867 67-27.867Q591-946 619.5-918.133q28.5 27.867 28.5 67Q648-812 619.5-783.5 591-755 551.867-755ZM700-63v-269q0-16.033 10.767-26.517Q721.533-369 738-369q16.033 0 26.517 10.483Q775-348.033 775-332v270q0 16.033-10.477 26.517Q754.047-25 738.023-25 722-25 711-35.767 700-46.533 700-63Z"/></svg>