<svg xmlns="http://www.w3.org/2000/svg" height="20" viewBox="0 -960 960 960" width="20"><path d="M719.774-481.13Q640-481.13 584-537.291q-56-56.16-56-135.839 0-80.566 56.283-136.283 56.282-55.717 136.168-55.717 79.493 0 135.521 56.226Q912-752.678 912-672.904T855.774-537.13q-56.226 56-136 56ZM241.696-196.782v13.826q0 24.239-16.968 41.207-16.967 16.967-41.207 16.967-23.956 0-41.348-17.391-17.391-17.392-17.391-41.348v-281.803q0-8.965 1.782-17.364 1.783-8.399 4.913-17.66l71.497-176.457q11.199-28.369 35.634-45.391 24.435-17.022 54.914-17.022h173.261q-7.522 19.652-9.935 44.218-2.413 24.565-.283 53.783H294.087L248.913-528h250.652q14.107 21 30.249 38 16.141 17 39.316 34H222.783v161.217h514.434V-409q29.913-2 54.696-9.609 24.783-7.609 43.305-19.261v254.914q0 24.239-16.967 41.207-16.968 16.967-41.207 16.967-23.957 0-41.348-17.391-17.392-17.392-17.392-41.348v-13.261H241.696Zm73.695-130.609q20 0 34-14t14-34q0-20-14-34t-34-14q-20 0-34 14t-14 34q0 20 14 34t34 14Zm329.218 0q20 0 34-14t14-34q0-11.435-5.906-21.37t-15.529-16.369q-8.565-2.566-16.955-4.848-8.39-2.283-16.741-4.848-17.435 1.887-29.152 15.738-11.717 13.852-11.717 31.697 0 20 14 34t34 14Zm-421.826 32.608V-456v161.217Zm496.934-385.13q11.579 0 20.192-8.557t8.613-19.965v-38.956q0-11.409-8.331-19.966-8.33-8.556-19.908-8.556-11.579 0-20.192 8.556-8.613 8.557-8.613 19.966v38.956q0 11.408 8.331 19.965 8.33 8.557 19.908 8.557ZM720-568.087q12.991 0 21.887-8.895 8.896-8.896 8.896-21.888 0-12.991-8.896-22.169-8.896-9.179-21.887-9.179t-21.887 9.179q-8.896 9.178-8.896 22.169 0 12.992 8.896 21.888 8.896 8.895 21.887 8.895Z"/></svg>