<svg xmlns="http://www.w3.org/2000/svg" height="24" viewBox="0 -960 960 960" width="24"><path d="M699.59-552Q638-552 595-595t-43-105.376Q552-762 595.039-805q43.039-43 105.371-43Q762-848 805-805t43 105q0 62-43.41 105t-105 43ZM200-292v66q0 5.833-4.118 9.917-4.117 4.083-10 4.083-5.882 0-9.882-4.083-4-4.084-4-9.917v-276q0-5 .5-10t2.266-10.233L241-708q5.895-17.778 21.368-28.889Q277.842-748 297-748h160q-2 7-2.5 13.5T453-720H299q-11 0-19 5.5T268-699l-56 159h298q7 8 13.5 14.5T538-512H200v192h560v-139q8-2 14.5-4.5T788-468v242q0 5.833-4.118 9.917-4.117 4.083-10 4.083-5.882 0-9.882-4.083-4-4.084-4-9.917v-66H200Zm96.235-84Q313-376 324.5-387.735q11.5-11.736 11.5-28.5Q336-433 324.265-444.5q-11.736-11.5-28.5-11.5Q279-456 267.5-444.265q-11.5 11.736-11.5 28.5Q256-399 267.735-387.5q11.736 11.5 28.5 11.5Zm368 0Q681-376 692.5-387.667 704-399.333 704-416q0-12-6.5-22T680-453q-5-1-10.858-1.5-5.858-.5-11.142-1.5-14 2-24 13.5T624-416q0 16.667 11.735 28.333Q647.471-376 664.235-376ZM200-320v-192 192Zm500-360q5.6 0 9.8-4.2 4.2-4.2 4.2-9.8v-80q0-5.6-4.2-9.8-4.2-4.2-9.8-4.2-5.6 0-9.8 4.2-4.2 4.2-4.2 9.8v80q0 5.6 4.2 9.8 4.2 4.2 9.8 4.2Zm0 72q8 0 12.5-5t5.5-12q0-7.6-5-13.3-5-5.7-13-5.7t-13 5q-5 5-5 13t5 13q5 5 13 5Z"/></svg>