<svg xmlns="http://www.w3.org/2000/svg" height="20" viewBox="0 -960 960 960" width="20"><path d="M699.364-512Q641-512 600.5-552.66 560-593.32 560-652.376 560-712 601.039-752q41.039-40 99.822-40 58.083 0 98.611 40.726Q840-710.548 840-651.774T798.864-552.5q-41.136 40.5-99.5 40.5ZM200-268v70q0 .833-.618 1.417-.617.583-1.5.583-.882 0-1.382-.583-.5-.584-.5-1.417v-263.889q0-4.704 1-9.407 1-4.704 2.766-10.937l64.427-154.311q5.702-14.234 18.675-22.845Q295.842-668 311-668h154q1 2 2.5 6t1.5 14H314q-11 0-19 5.5T283-627l-62 159h321q10 6 18 9.5t21 10.5H216v160h528v-137q9-1 13.5-2t6.5 0v229q0 .833-.618 1.417-.617.583-1.5.583-.882 0-1.382-.583-.5-.584-.5-1.417v-70H200Zm108.235-72Q320-340 328-348.235q8-8.236 8-20Q336-380 327.765-388q-8.236-8-20-8Q296-396 288-387.765q-8 8.236-8 20Q280-356 288.235-348q8.236 8 20 8Zm344 0Q664-340 672-348.167q8-8.166 8-19.833 0-19-12-34.5T637-425q14-3 25.642-.5T684-416q-24-4-42 11t-18 37q0 11.667 8.235 19.833 8.236 8.167 20 8.167ZM216-288v-160 160Zm484-384q7.2 0 12.6-5.4 5.4-5.4 5.4-12.6v-8q0-7.2-5.4-12.6-5.4-5.4-12.6-5.4-7.2 0-12.6 5.4-5.4 5.4-5.4 12.6v8q0 7.2 5.4 12.6 5.4 5.4 12.6 5.4Zm0 88q9.6 0 15.3-6.2 5.7-6.2 6.7-14.8 0-9.2-6.2-16.1-6.2-6.9-15.8-6.9-9.6 0-15.8 6.2-6.2 6.2-6.2 15.8 0 9.6 6.2 15.8 6.2 6.2 15.8 6.2Z"/></svg>