<svg xmlns="http://www.w3.org/2000/svg" height="24" viewBox="0 -960 960 960" width="24"><path d="M720-521.13q-83 0-141.5-58.5T520-721.13q0-82.566 58.283-141.283Q636.565-921.13 720-921.13q83 0 141.5 58.5t58.5 141.5q0 83-58.5 141.5T720-521.13ZM241.696-220.782v9.826q0 29.239-20.468 49.707-20.467 20.467-49.707 20.467-28.956 0-49.848-20.891-20.891-20.892-20.891-49.848v-293.914q0-9.261 1.282-17.956 1.283-8.696 4.413-16.957l73.305-207.913q11.391-31.913 38.326-51.435 26.935-19.522 61.414-19.522h179.261q-10.522 24.652-14.935 51.718-4.413 27.065-3.283 54.283H279.087L239.913-600h227.652q11.107 23 25.749 43 14.641 20 32.816 37H206.783v193.217h546.434V-443q28.913-3 55.696-12.109 26.783-9.109 50.305-23.761v267.914q0 29.239-20.467 49.707-20.468 20.467-49.707 20.467-28.957 0-49.848-20.891-20.892-20.892-20.892-49.848v-9.261H241.696Zm61.695-142.609q25 0 42.5-17.5t17.5-42.5q0-25-17.5-42.5t-42.5-17.5q-25 0-42.5 17.5t-17.5 42.5q0 25 17.5 42.5t42.5 17.5Zm353.218 0q25 0 42.5-17.5t17.5-42.5q0-4.435-.406-8.87t-2.029-8.869q-27.565-.566-53.455-5.848-25.89-5.283-49.241-15.848-7.435 7.887-11.152 18.238-3.717 10.352-3.717 21.197 0 25 17.5 42.5t42.5 17.5Zm-449.826 36.608V-520v193.217Zm512.934-361.13q9.979 0 17.392-7.357t7.413-17.165v-110.956q0-9.809-7.131-17.166-7.13-7.356-17.108-7.356-9.979 0-17.392 7.356-7.413 7.357-7.413 17.166v110.956q0 9.808 7.131 17.165 7.13 7.357 17.108 7.357Zm.283 95.826q11.391 0 19.087-7.695 7.696-7.696 7.696-19.088 0-11.391-7.696-19.369-7.696-7.979-19.087-7.979t-19.087 7.979q-7.696 7.978-7.696 19.369 0 11.392 7.696 19.088 7.696 7.695 19.087 7.695Z"/></svg>