<svg xmlns="http://www.w3.org/2000/svg" height="20" viewBox="0 -960 960 960" width="20"><path d="M371.789-465q18.611 0 31.411-12.362Q416-489.725 416-508v-120q0-18.7-12.589-31.35-12.59-12.65-31.2-12.65-18.611 0-31.411 12.65T328-628v120q0 18.275 12.589 30.638Q353.179-465 371.789-465Zm95.123 217h25.825Q517-248 534.5-265.35 552-282.7 552-307v-37q0-29.7-21.212-50.85-21.213-21.15-51-21.15Q450-416 429-394.85 408-373.7 408-344v37q0 24.3 17.325 41.65Q442.65-248 466.912-248Zm120.877-217q18.611 0 31.411-12.362Q632-489.725 632-508v-120q0-18.7-12.589-31.35-12.59-12.65-31.2-12.65-18.611 0-31.411 12.65T544-628v120q0 18.275 12.589 30.638Q569.179-465 587.789-465ZM480.276-62Q393-62 317.013-94.584q-75.988-32.583-132.917-89.512T94.584-316.971Q62-392.917 62-480.458 62-568 94.584-643.487q32.583-75.488 89.512-132.417t132.875-89.512Q392.917-898 480.458-898q87.542 0 163.029 32.584 75.488 32.583 132.417 89.512t89.512 132.641Q898-567.551 898-480.276q0 87.276-32.584 163.263-32.583 75.988-89.512 132.917T643.263-94.584Q567.551-62 480.276-62ZM480-180q126 0 213-87t87-213q0-126-87-213t-213-87q-126 0-213 87t-87 213q0 126 87 213t213 87Zm0-300Z"/></svg>