<svg xmlns="http://www.w3.org/2000/svg" height="24" viewBox="0 -960 960 960" width="24"><path d="M458-170q-9-26.241-23-48.444-14-22.204-33-41.38Q383-279 361-293q-22-14-48-23 2 29 14 54t32 45q20 20 45 32t54 15Zm43 0q29-2 54.278-14t45.5-32Q621-236 633-261.5t14-54.5q-25.761 9-48.055 23t-41.119 33Q539-241 524.622-218.5 510.243-196 501-170Zm-21-320q63 0 106.5-43.5T630-640v-78l-70 59-80-109-80 109-70-59v78q0 63 43.5 106.5T480-490Zm-8 348q-78.333 0-133.167-54.833Q284-251.667 284-330v-22q61 13 110 50.5t72 89.5v-250q-69-5-116.5-56T302-640v-74q0-20 18-27.5t32 5.5l44 38 60-81q9.36-12 24.18-12T504-779l60 81 44-38q14-13 32-5.5t18 27.5v74q0 71-47.5 122T494-462v249q23-51 71.5-88.5T674-352v22q0 78.333-54.542 133.167Q564.917-142 487-142h-15Zm8-487Zm94 386Zm-188 0Z"/></svg>