<svg xmlns="http://www.w3.org/2000/svg" height="24" viewBox="0 -960 960 960" width="24"><path d="M216.155-130.001v-397.692q-32.615-.769-55.538-23.308-22.923-22.538-22.923-55.153v-201.23q0-9.692 6.461-16.154 6.461-6.461 16.154-6.461 9.692 0 16.153 6.461 6.462 6.462 6.462 16.154v137.385h40.615v-137.385q0-9.692 6.462-16.154 6.461-6.461 16.153-6.461 9.692 0 16.154 6.461 6.461 6.462 6.461 16.154v137.385h40.616v-137.385q0-9.692 6.461-16.154 6.462-6.461 16.154-6.461t16.154 6.461q6.461 6.462 6.461 16.154v201.23q0 32.615-22.923 55.153-22.923 22.539-55.538 23.308v397.692h-59.999Zm272.307 0v-400.153q-40.846-19.231-60.423-59.615-19.577-40.385-19.577-86.231 0-59.158 28.423-106.579 28.423-47.42 81.576-47.42 53.154 0 81.577 47.42Q628.461-735.158 628.461-676q0 45.846-19.577 86.231-19.577 40.384-60.423 59.615v400.153h-59.999Zm198.462 0V-829.23q57.537 4.231 96.46 47.385Q822.306-738.692 822.306-680v229.999h-75.384v320h-59.998Z"/></svg>