<svg xmlns="http://www.w3.org/2000/svg" height="24" viewBox="0 -960 960 960" width="24"><path d="M151-105v-401q-35-6-58.5-32.5T69-599.751V-823q0-13.714 9.4-22.857Q87.8-855 101.9-855t23.6 9.143Q135-836.714 135-823v143h39v-143q0-13.714 9.2-22.857 9.2-9.143 23-9.143t23.3 9.143Q239-836.714 239-823v143h39v-143q0-13.714 9.4-22.857Q296.8-855 310.9-855t23.1 9.143q9 9.143 9 22.857v223.249Q343-565 320-538.5T262-506v401H151Zm311 0v-410q-42-23-61-67.432T382-676q0-70 36-124.5t99-54.5q63 0 99 54.5T652-676q0 49.136-19 93.568Q614-538 572-515v410H462Zm238 0v-750q78 0 134.5 50T891-680v255h-80v320H700Z"/></svg>