<svg xmlns="http://www.w3.org/2000/svg" height="20" viewBox="0 -960 960 960" width="20"><path d="M220.155-154.001v-367.692q-25.615-4.769-42.038-23.195-16.423-18.426-16.423-45.266v-197.23q0-7.978 5.261-13.297 5.261-5.318 13.154-5.318 7.892 0 13.353 5.318 5.462 5.319 5.462 13.297v173.385h28.615v-173.385q0-7.978 5.262-13.297 5.261-5.318 13.153-5.318t13.354 5.318q5.461 5.319 5.461 13.297v173.385h28.616v-173.385q0-7.978 5.261-13.297 5.262-5.318 13.154-5.318t13.354 5.318q5.461 5.319 5.461 13.297v197.23q0 26.84-16.423 45.266t-42.038 24.195v366.692h-51.999Zm256.307 0v-364.153q-34.846-14.231-59.423-52.115-24.577-37.885-24.577-89.731 0-61.158 31.923-103.579 31.923-42.42 78.076-42.42 46.154 0 78.077 42.42Q612.461-721.158 612.461-660q0 51.846-24.577 89.731-24.577 37.884-59.423 52.115v364.153h-51.999Zm202.462 0V-805.23q51.537 4.231 85.46 42.385 33.922 38.153 33.922 90.845v229.999h-67.384v288h-51.998Z"/></svg>