<svg xmlns="http://www.w3.org/2000/svg" height="20" viewBox="0 -960 960 960" width="20"><path d="M236.307-164v-365.385q-25.23-5.538-41.076-23.002-15.847-17.465-15.847-43.921v-186.461q0-5.671 3.723-9.451 3.724-3.78 9.308-3.78 5.585 0 9.508 3.78 3.923 3.78 3.923 9.451V-604h33.231v-178.769q0-5.671 3.723-9.451 3.723-3.78 9.308-3.78 5.584 0 9.507 3.78t3.923 9.451V-604h33.231v-178.769q0-5.671 3.723-9.451 3.723-3.78 9.308-3.78t9.508 3.78q3.923 3.78 3.923 9.451v186.461q0 26.456-15.846 43.921-15.846 17.464-41.077 24.002V-164h-32.001Zm248.616 0v-360.308q-33.692-13.461-58.846-49.23-25.154-35.77-25.154-86.462 0-57.317 28.846-96.659Q458.615-796 500.923-796q42.308 0 71.154 39.341 28.846 39.342 28.846 96.659 0 50.692-25.154 86.462-25.153 35.769-58.846 49.23V-164h-32Zm200.923 0v-630.462q43.077 8.462 68.923 42.77 25.847 34.307 25.847 79.692v220h-62.77v288h-32Z"/></svg>