<svg xmlns="http://www.w3.org/2000/svg" height="24" viewBox="0 -960 960 960" width="24"><path d="M280-221.912q-22.087 0-37.544-15.457-15.457-15.457-15.457-37.544v-410.174q0-22.087 15.457-37.544 15.457-15.457 37.544-15.457 22.087 0 37.544 15.457 15.457 15.457 15.457 37.544v410.174q0 22.087-15.457 37.544-15.457 15.457-37.544 15.457ZM570.088-480l146.956 146.956q14.957 14.957 14.957 37.044 0 22.087-14.957 37.044-14.957 14.957-37.044 14.957-22.087 0-37.044-14.957L459.521-442.391q-7.695-7.696-11.609-17.522-3.913-9.826-3.913-20.087t3.913-20.087q3.914-9.826 11.609-17.522l183.435-183.435q14.957-14.957 37.044-14.957 22.087 0 37.044 14.957 14.957 14.957 14.957 37.044 0 22.087-14.957 37.044L570.088-480Z"/></svg>