<svg xmlns="http://www.w3.org/2000/svg" height="20" viewBox="0 -960 960 960" width="20"><path d="M118.078-258.154q-9.923-9.923-9.923-23.807 0-13.885 9.728-23.613l234.913-234.913q10.666-10.666 27.127-10.666 16.462 0 27.141 10.68l132.859 132.859 258.001-292.078q9.307-10.923 21.999-11.423 12.692-.5 22.999 9.312 9.225 9.122 9.766 21.732.542 12.609-7.692 21.845L568-341.924q-10.846 12.846-27.807 12.846-16.962 0-28.808-11.846L379.923-472.386 164.459-256.921q-9.305 9.305-22.882 8.997-13.577-.307-23.499-10.23Z"/></svg>