<svg xmlns="http://www.w3.org/2000/svg" height="24" viewBox="0 -960 960 960" width="24"><path d="M117.078-256.154q-9.923-9.923-9.923-22.307 0-12.385 9.923-22.308l238.538-238.538q10.846-10.846 25.307-10.846 14.462 0 25.308 10.846l134.692 134.693 261.001-297.078q8.307-9.923 20.999-9.923 12.692 0 21.999 8.923 8.308 8.308 8.808 19.769.5 11.461-7.808 20.769L567-343.924q-9.846 11.846-25.807 12.346-15.962.5-26.808-10.346L380.923-475.386 161.692-256.154q-9.538 9.538-22.115 9.73-12.577.193-22.499-9.73Z"/></svg>