<svg xmlns="http://www.w3.org/2000/svg" height="24" viewBox="0 -960 960 960" width="24"><path d="M479.965-146Q474-146 470-150.025T466-160v-160q0-5.95 4.035-9.975 4.035-4.025 10-4.025t9.965 4.025q4 4.025 4 9.975v66h306q5.95 0 9.975 4.035 4.025 4.035 4.025 10T809.975-230q-4.025 4-9.975 4H494v66q0 5.95-4.035 9.975-4.035 4.025-10 4.025ZM160-226q-5.95 0-9.975-4.035-4.025-4.035-4.025-10t4.025-9.965q4.025-4 9.975-4h160q5.95 0 9.975 4.035 4.025 4.035 4.025 10T329.975-230q-4.025 4-9.975 4H160Zm159.965-160Q314-386 310-390.025T306-400v-66H160q-5.95 0-9.975-4.035-4.025-4.035-4.025-10t4.025-9.965q4.025-4 9.975-4h146v-66q0-5.95 4.035-9.975 4.035-4.025 10-4.025t9.965 4.025q4 4.025 4 9.975v160q0 5.95-4.035 9.975-4.035 4.025-10 4.025ZM480-466q-5.95 0-9.975-4.035-4.025-4.035-4.025-10t4.025-9.965q4.025-4 9.975-4h320q5.95 0 9.975 4.035 4.025 4.035 4.025 10T809.975-470q-4.025 4-9.975 4H480Zm159.965-160Q634-626 630-630.025T626-640v-160q0-5.95 4.035-9.975 4.035-4.025 10-4.025t9.965 4.025q4 4.025 4 9.975v66h146q5.95 0 9.975 4.035 4.025 4.035 4.025 10T809.975-710q-4.025 4-9.975 4H654v66q0 5.95-4.035 9.975-4.035 4.025-10 4.025ZM160-706q-5.95 0-9.975-4.035-4.025-4.035-4.025-10t4.025-9.965q4.025-4 9.975-4h320q5.95 0 9.975 4.035 4.025 4.035 4.025 10T489.975-710q-4.025 4-9.975 4H160Z"/></svg>