<svg xmlns="http://www.w3.org/2000/svg" height="24" viewBox="0 -960 960 960" width="24"><path d="M480-252q129.394 0 219.197-89T789-558q0-26-4-51.5T773-658q-26 14-54.37 22.5Q690.261-627 660-627q-52.913 0-99.456-22.5Q514-672 480-713q-34 41-80.544 63.5Q352.913-627 300-627q-29 0-57.5-8T188-657q-7.857 23.464-11.429 48.232Q173-584 173-558q0 128 89.702 217Q352.403-252 480-252ZM365-467q23 0 38-15t15-38q0-23-15-38t-38-15q-23 0-38 15t-15 38q0 23 15 38t38 15Zm230 0q23 0 38-15t15-38q0-23-15-38t-38-15q-23 0-38 15t-15 38q0 23 15 38t38 15ZM300-733q52.614 0 89.807-37.193Q427-807.386 427-860v-4q-59 10-107 39t-82 74q13.95 8.308 29.45 13.154T300-733Zm360 0q17.387 0 33.194-5.5Q709-744 724-752q-35-45-83.5-73.5T533-864v4q0 52.614 37.193 89.807Q607.386-733 660-733ZM-38-46l48-519q9-91 49-169.5t103.521-136.14q63.52-57.64 145.5-90.5Q390-994 481-994q91 0 172.416 32.86t144.5 90.5Q861-813 901-734.5 941-656 950-565l48 519H-38Zm518.542-80Q366-126 269.5-181T115-327l-14 155h758l-14-153q-58 91-153.5 145t-210.958 54ZM533-864Zm-106 0Zm53.542 738H859 101 480.542Z"/></svg>