<svg xmlns="http://www.w3.org/2000/svg" height="20" viewBox="0 -960 960 960" width="20"><path d="M479.509-276q126.885 0 214.188-86.663Q781-449.325 781-574q0-23-3.5-46.5T767-666q-26 14-53.391 22.5Q686.217-635 657-635q-53.913 0-98.956-22.5Q513-680 480-722q-35 42-79.544 64.5Q355.913-635 303-635q-28.193 0-55.937-8-27.744-8-53.063-22-6.857 18.464-9.929 41.232Q181-601 181-574q0 126 86.702 212 86.701 86 211.807 86ZM364.887-501Q387-501 401.5-515.387q14.5-14.388 14.5-36.5Q416-574 401.613-588.5q-14.388-14.5-36.5-14.5Q343-603 328.5-588.613q-14.5 14.388-14.5 36.5Q314-530 328.387-515.5q14.388 14.5 36.5 14.5Zm230 0Q617-501 631.5-515.387q14.5-14.388 14.5-36.5Q646-574 631.613-588.5q-14.388-14.5-36.5-14.5Q573-603 558.5-588.613q-14.5 14.388-14.5 36.5Q544-530 558.387-515.5q14.388 14.5 36.5 14.5ZM303-733q54.614 0 91.307-37.193Q431-807.386 431-864v-10q-57 8-106 38t-87 83q17.95 10.308 33.95 15.154Q287.95-733 303-733Zm354 0q14.387 0 30.694-6Q704-745 724-754q-39-52-89-82.5T529-874v10q0 56.614 36.193 93.807Q601.386-733 657-733ZM-38-62l58-519q10-88 49.023-163.326 39.024-75.326 101.021-130.64 61.997-55.314 142.095-87.174Q392.237-994 481.118-994q88.882 0 168.298 31.86t140.977 87.174q61.56 55.314 100.584 130.64Q930-669 940-581l58 519H-38Zm518.542-96Q363-158 268-216T118-381L94-180h772l-24-199q-55 107-149.5 164t-211.958 57ZM529-874Zm-98 0Zm49.542 740H866 94 480.542Z"/></svg>