<svg xmlns="http://www.w3.org/2000/svg" height="20" viewBox="0 -960 960 960" width="20"><path d="M424-820 140-536h124q3.467 0 5.733 2.253 2.267 2.254 2.267 5.7 0 3.447-2.267 5.747-2.266 2.3-5.733 2.3H138q-11.05 0-18.525-7.475Q112-534.95 112-546v-126q0-3.467 2.253-5.733 2.254-2.267 5.7-2.267 3.447 0 5.747 2.267 2.3 2.266 2.3 5.733v124l284-284H288q-3.467 0-5.733-2.253-2.267-2.254-2.267-5.7 0-3.447 2.267-5.747 2.266-2.3 5.733-2.3h126q11.05 0 18.525 7.475Q440-833.05 440-822v126q0 3.467-2.253 5.733-2.254 2.267-5.7 2.267-3.447 0-5.747-2.267-2.3-2.266-2.3-5.733v-124Zm123 708q-19 0-35.5-7T481-140L303.824-315.234Q298.5-321 298.75-327.5T306-339l3-3q5-4 10-4.5t12 .5l135 30v-332q0-4.25 2.825-7.125 2.824-2.875 7-2.875 4.175 0 7.175 2.875t3 7.125v266h91v-147.737q0-4.213 2.825-7.238 2.824-3.025 7-3.025 4.175 0 7.175 2.875t3 7.125v148h92v-100q0-4.25 2.825-7.125 2.824-2.875 7-2.875 4.175 0 7.175 2.875t3 7.125v100h91v-52q0-4.25 2.825-7.125 2.824-2.875 7-2.875 4.175 0 7.175 2.875t3 7.125v180q0 60-41 101t-100.803 41H547Z"/></svg>