<svg xmlns="http://www.w3.org/2000/svg" height="24" viewBox="0 -960 960 960" width="24"><path d="m797.218-47.39-68.044-67.044q-7.391 23.957-28.13 39.935-20.74 15.978-47.827 15.978H133.782q-33.478 0-56.63-23.152-23.153-23.153-23.153-56.631v-382.87q0-33.478 23.152-56.914 23.153-23.435 56.631-23.435h89.043l9.696-10.13L55-789.174q-13.13-13.13-12.848-31.326.283-18.196 13.413-31.326 13.13-13.131 31.326-13.131 18.196 0 31.327 13.131L859.87-109.609q13.131 13.131 12.848 31.11-.283 17.978-13.413 31.108-13.131 13.13-31.044 13.13t-31.043-13.13ZM364.913-479.262q-57 10.304-94.631 53.587-37.63 43.283-37.63 102.848 0 66 46.435 112.152 46.434 46.152 112.434 46.152 59.566 0 103-37.848 43.435-37.848 53.305-94.413-.435 1.435-.218.717l.218-.717-182.913-182.478Zm26.608 226.26q-29.043 0-49.717-20.391t-20.674-49.434q0-29.044 20.674-49.717 20.674-20.674 49.717-20.674 29.044 0 49.435 20.674 20.391 20.673 20.391 49.717 0 29.043-20.391 49.434t-49.435 20.391Zm341.48-108.782-295.74-295.74h24.521q22.088 0 42.675 8.761 20.587 8.761 35.544 25.718l19.651 21.521h93.565q33.479 0 56.631 23.435 23.153 23.436 23.153 56.914v159.391Zm40-334.609h-11.522q-10.826 0-18.522-7.978-7.695-7.979-7.695-18.805v-152.087q0-10.826 7.695-18.522 7.696-7.695 18.522-7.695h102.217q14.392 0 22.588 11.826 8.195 11.826 2.065 25.218l-42.391 95.085h16.434q14.957 0 22.435 12.827 7.479 12.826.783 26.217L798.218-565.87q-5.13 9.261-15.174 6.696-10.043-2.566-10.043-12.827v-124.391Z"/></svg>