<svg xmlns="http://www.w3.org/2000/svg" height="24" viewBox="0 -960 960 960" width="24"><path d="M713.913-72.956q-25.392 0-50.131-9.913t-41-26.174L620.825-111l-1.956-1.956H550.87q-48.172 0-81.434-33.739-33.262-33.74-33.262-82.314 0-26.6 11.696-49.644 11.695-23.043 33.956-41.304l34.348-28.044v-198.825L457-631.434q-10.13-14.696-15.478-31.392-5.348-16.695-5.348-33.522 0-48.172 33.262-81.434t81.434-33.262h183.043q47.652 0 80.957 33.022 33.304 33.022 33.304 80.674 0 17.564-4.847 33.956-4.848 16.393-14.979 30.523l-59.739 86.043v201.956l34.478 34.478q21.696 21.696 33.609 48.304 11.913 26.609 11.913 54.63 0 56.043-39.286 95.272-39.287 39.23-95.41 39.23Zm-349.478-53.131q-12.695 6.131-25.739 8.631t-26.655 2.5q-51.041 0-86.28-34.769-35.24-34.769-35.24-84.927v-349.304L121.652-728.13q-5.565-11.446-8.348-24.036-2.783-12.591-2.783-25.182 0-47.652 33.522-80.674 33.522-33.022 81.175-33.022h183.391v83.392q42 0 68.174 33.522 26.174 33.521 26.174 78.348 0 18.695-5.848 35.456-5.848 16.761-16.979 32.022l-37.173 49.478v188.13l40.173 61.609q9.696 14.696 14.761 30.891 5.066 16.196 5.066 33.022 0 33.045-17.261 60.392-17.261 27.348-46.218 41.609l-75.043 37.086Z"/></svg>