<svg xmlns="http://www.w3.org/2000/svg" height="24" viewBox="0 -960 960 960" width="24"><path d="M693.077-122q-15.846 0-30.612-5.969-14.766-5.969-24.85-15.8-9.23-9.231-17.192-13.731-7.961-4.5-17.192-4.5h-90.154q-25.2 0-42.6-17.788-17.4-17.788-17.4-43.113 0-13.868 6.538-26.291 6.539-12.424 18.847-22.27l39.23-32.769q6.923-6.154 11.154-13.846T533.077-335v-221.231q0-6.154-1.539-11.923-1.538-5.769-5.384-11.154l-62-88.769q-5.923-7.615-8.5-16.077-2.577-8.461-2.577-17.846 0-25.2 17.4-42.6 17.4-17.4 42.6-17.4h200q25.357 0 42.563 16.961 17.207 16.962 17.207 41.958 0 8.927-2.847 17.543-2.846 8.615-8 17l-62 89.23q-3.846 4.616-5.384 10.77-1.539 6.153-1.539 12.307V-333q0 8.461 3.077 15.385 3.077 6.923 9.231 13.076l38.231 39q13.846 13.077 21.654 29.547 7.807 16.471 7.807 33.992 0 33.846-23.077 56.923Q726.923-122 693.077-122Zm0-40q17 0 28.5-11.5t11.5-28.5q0-15-8.5-25l-8.5-10-39-39q-11.231-12-17.615-26.615-6.385-14.616-6.385-30.385v-223q0-12 3.5-24t10.5-22l62-89q.462-.692 4-12 0-8-6-13.5t-14-5.5h-200q-8 0-14 6t-6 14q0 3.288 1 6.029 1 2.74 3 4.971l62 89q7 10.769 10.5 22.269 3.5 11.5 3.5 23.731v221q0 18-8 34.5t-22 27.5l-40 33q-5 4-7.5 8.35-2.5 4.349-2.5 10.148 0 7.733 5.885 13.617Q504.846-202 513.077-202h89q18 0 32 6.5t30 22.5q5 5 12.5 8t16.5 3Zm-330.846-8.154q-6.77 3.462-13.846 5.193-7.077 1.73-14.462 1.73-28.178 0-47.589-19.346-19.411-19.346-19.411-46.423v-357.077q0-8.461-1.539-16.154-1.538-7.692-5.384-14.615l-66.923-140.077q-2.693-6.154-4.424-12.641-1.73-6.487-1.73-12.974 0-24.77 17.4-42.116t42.6-17.346h140v70.769q0 3.846 2.692 6.538 2.693 2.693 6.539 2.693h30.769q25.2 0 42.6 17.369 17.4 17.37 17.4 42.526 0 10.182-2.692 18.913t-8.846 17.115l-34.616 44.77q-6.923 9.23-10.384 19.999-3.462 10.77-3.462 22.308v180q0 10.769 2.692 21.154 2.693 10.384 8.847 18.846l37.615 57.308q5.104 7.523 7.975 15.915 2.871 8.392 2.871 17.777 0 17.22-9.126 31.47-9.126 14.251-24.336 21.376l-91.23 45ZM344.923-206l91-45q5-2 8-7t3-10q0-1.538-4-12l-36-55q-10-15-15-32.5t-5-34.5v-174q0-20 6-38t18-34l32-42q2-3 4-12 0-8-6-14t-14-6h-40q-17 0-28.5-11.5t-11.5-28.5v-40h-100q-8 0-14 5.723-6 5.722-6 14.046 0 2.846 2 8.231l66 138q6 12 9 25t3 27v355q0 11 8 18.5t19 7.5q3 0 11-3Zm268.154-236Zm-276.154-61Z"/></svg>