<svg xmlns="http://www.w3.org/2000/svg" height="20" viewBox="0 -960 960 960" width="20"><path d="M76.782-576v-113.217q0-43.305 29.912-70.653 29.912-27.348 72.902-27.348h600.936q42.99 0 72.838 27.348 29.848 27.348 29.848 70.653V-576h-98.001v-113.217H174.783V-576H76.782Zm102.686 403.218q-42.99 0-72.838-27.348-29.848-27.348-29.848-70.653V-384h98.001v113.217h610.434V-384h98.001v113.217q0 43.305-29.912 70.653-29.912 27.348-72.902 27.348H179.468ZM408-312q9.581 0 18.29-5 8.71-5 13.245-14.131L552-537l40 74q4 10 12.5 14.5t19.709 4.5h223.009q15.3 0 25.65-10.289 10.35-10.29 10.35-25.5 0-15.211-10.35-25.711-10.35-10.5-25.65-10.5H646l-62-113q-5-10-13.71-14.5-8.709-4.5-18.29-4.5t-18.29 4.5Q525-639 520-629L408-423l-40.408-73.778Q363-506 354.29-511q-8.709-5-18.29-5H112.782q-15.3 0-25.65 10.289-10.35 10.29-10.35 25.5 0 15.211 10.35 25.711 10.35 10.5 25.65 10.5H314l62.473 112.993Q381-322 389.71-317q8.709 5 18.29 5Zm72-168Z"/></svg>