<svg xmlns="http://www.w3.org/2000/svg" height="20" viewBox="0 -960 960 960" width="20"><path d="M148-550v-114q0-25 16.064-38.5 16.063-13.5 40.749-13.5h550.502Q780-716 796-702.5q16 13.5 16 38.5v114h-20v-114q0-12-10-22t-22-10H200q-12 0-22 10t-10 22v114h-20Zm56.685 306Q180-244 164-257.5 148-271 148-296v-114h20v114q0 12 10 22t22 10h560q12 0 22-10t10-22v-114h20v114q0 25-16.064 38.5T755.187-244H204.685ZM408-338q2.581 0 4.79-1.5 2.21-1.5 3.745-3.631L552-595l63 120q1 3 3 4t6.209 1H802q4.3 0 7.15-2.789 2.85-2.79 2.85-7 0-4.211-2.85-7.211t-7.15-3H630l-69-127q-2-2-3.71-3.5-1.709-1.5-5.29-1.5-2.581 0-4.79 1.5Q545-619 543-617L408-365l-63.408-119.778Q343-487 340.79-488.5q-2.209-1.5-4.79-1.5H158q-4.3 0-7.15 2.789-2.85 2.79-2.85 7 0 4.211 2.85 7.211t7.15 3h172l69.473 126.993Q401-341 403.21-339.5q2.209 1.5 4.79 1.5Zm72-142Z"/></svg>