<svg xmlns="http://www.w3.org/2000/svg" height="20" viewBox="0 -960 960 960" width="20"><path d="M179.468-172.782q-42.99 0-72.838-27.348-29.848-27.348-29.848-70.653V-444H314l62.473 112.993Q381-322 389.71-317q8.709 5 18.29 5t18.29-5q8.71-5 13.245-14.131L552-537l40 74q4 10 12.5 14.5T624-444h259.218v173.217q0 43.305-29.912 70.653-29.912 27.348-72.902 27.348H179.468ZM76.782-516v-173.217q0-43.305 29.912-70.653 29.912-27.348 72.902-27.348h600.936q42.99 0 72.838 27.348 29.848 27.348 29.848 70.653V-516H646l-62-113q-5-10-13.71-14.5-8.709-4.5-18.29-4.5t-18.29 4.5Q525-639 520-629L408-423l-40.408-73.778Q363-506 354.29-511q-8.709-5-18.29-5H76.782Z"/></svg>