<svg xmlns="http://www.w3.org/2000/svg" height="20" viewBox="0 -960 960 960" width="20"><path d="M136-556v-115.385Q136-698 153.564-713q17.563-15 43.864-15H762.7q26.3 0 43.8 15 17.5 15 17.5 41.615V-556h-32v-115.385q0-9.23-7.692-16.923Q776.615-696 767.385-696h-574.77q-9.23 0-16.923 7.692Q168-680.615 168-671.385V-556h-32Zm61.3 324q-26.3 0-43.8-15-17.5-15-17.5-41.615V-404h32v115.385q0 9.23 7.692 16.923Q183.385-264 192.615-264h574.77q9.23 0 16.923-7.692Q792-279.385 792-288.615V-404h32v115.385Q824-262 806.436-247q-17.563 15-43.864 15H197.3ZM408-332q4.196 0 7.906-2.308 3.709-2.307 5.937-6.054L552-581.615l57.692 109.384q1.693 4.616 5.193 6.423 3.5 1.808 9.324 1.808H808q6.839 0 11.419-4.52Q824-473.04 824-479.789q0-6.75-4.581-11.48Q814.839-496 808-496H633.692l-67.384-123.769q-2.693-3.846-6.018-6.039Q556.965-628 552-628q-4.196 0-7.906 2.192-3.709 2.193-6.402 6.039L408-378.385l-58.1-109.162q-2.285-3.838-5.994-6.145Q340.196-496 336-496H152q-6.839 0-11.419 4.52Q136-486.96 136-480.211q0 6.75 4.581 11.48Q145.161-464 152-464h174.308l67.857 123.763q2.22 3.622 5.929 5.929Q403.804-332 408-332Zm72-148Z"/></svg>