<svg xmlns="http://www.w3.org/2000/svg" height="24" viewBox="0 -960 960 960" width="24"><path d="M120-580v-115.385Q120-723 138.5-741.5 157-760 184.615-760h590.77Q803-760 821.5-741.5 840-723 840-695.385V-580h-40v-115.385q0-9.23-7.692-16.923Q784.615-720 775.385-720h-590.77q-9.23 0-16.923 7.692Q160-704.615 160-695.385V-580h-40Zm64.615 380Q157-200 138.5-218.5 120-237 120-264.615V-380h40v115.385q0 9.23 7.692 16.923Q175.385-240 184.615-240h590.77q9.23 0 16.923-7.692Q800-255.385 800-264.615V-380h40v115.385Q840-237 821.5-218.5 803-200 775.385-200h-590.77ZM400-300q5.615 0 10.615-2.808 5-2.807 7.693-8.423L560-594.615l61.692 123.384q2.693 5.616 7.693 8.423Q634.385-460 640-460h180q8.539 0 14.269-5.731Q840-471.461 840-480t-5.731-14.269Q828.539-500 820-500H652.692l-74.384-148.769q-2.693-4.846-7.308-7.039Q566.385-658 560-658q-5.615 0-10.615 2.192-5 2.193-7.693 7.039L400-365.385l-61.692-123.384q-2.693-5.616-7.693-8.423Q325.615-500 320-500H140q-8.539 0-14.269 5.731Q120-488.539 120-480t5.731 14.269Q131.461-460 140-460h167.308l74.384 148.769q2.693 5.616 7.693 8.423Q394.385-300 400-300Zm80-180Z"/></svg>