<svg xmlns="http://www.w3.org/2000/svg" height="24" viewBox="0 -960 960 960" width="24"><path d="M540-80v-206.923L423.692-398.461l-36.384 160.307q-3.231 12.923-14.039 19.885-10.807 6.961-23.73 4.731l-186.462-37.693q-8.539-2.23-13.308-8.923-4.769-6.692-2.538-15.231 2.23-7.769 8.923-12.654 6.692-4.884 14.461-2.423l172.77 35.077 74.769-382.461L300-589.077V-480q0 8.539-5.731 14.269Q288.539-460 280-460t-14.269-5.731Q260-471.461 260-480v-114.308q0-9.692 5.731-17.654 5.73-7.961 14.423-12.192l139.384-58q25.77-10.385 38.039-14.115Q469.846-700 480-700q15.615 0 29 8.308 13.385 8.307 22.077 22.461l40 64q22.538 36.308 61.038 64.385 38.5 28.077 87.116 36.846 8.538 2.231 14.654 8.077Q740-490.077 740-481.538q0 8.538-6.115 13.769-6.116 5.231-14.423 4-50.924-8-101.385-38.885-50.462-30.884-88.077-91.961l-35.538 180.769 75.846 73.384q5.231 5.231 7.461 11.193Q580-323.308 580-316.846V-80q0 8.538-5.731 14.27Q568.539-60 560-60t-14.269-5.73Q540-71.462 540-80Zm0-672.308q-28.385 0-48.039-19.653-19.653-19.654-19.653-48.039t19.653-48.039q19.654-19.653 48.039-19.653t48.039 19.653q19.653 19.654 19.653 48.039t-19.653 48.039Q568.385-752.308 540-752.308Z"/></svg>