<svg xmlns="http://www.w3.org/2000/svg" height="20" viewBox="0 -960 960 960" width="20"><path d="M543.521-132v-172.478l-62.434-61.999-20.278 105.671q-4.33 19.632-20.814 30.741-16.483 11.109-36.647 6.978l-178.609-36.434q-17.391-4.131-27.87-19.174-10.478-15.044-6.348-32.435 4.131-17.392 19.457-27.87 15.326-10.479 32.718-6.913l137.521 27.304 47.478-240.39-64.304 27.782v64.347q0 18.692-12.833 31.586-12.833 12.893-31.435 12.893-18.602 0-31.928-13.176t-13.326-31.868v-90.043q0-15.522 8.502-27.622t22.542-18.379l164.696-67.304q10.695-4 20.761-6.565 10.065-2.565 20.63-2.565 29.826 0 52.457 14.195 22.63 14.196 38.326 39.892l15.13 23q23.305 39.174 50.62 59.178 27.316 20.004 64.467 27.604 18.391 3.131 31.435 16.715 13.044 13.585 13.044 32.218 0 18.633-13.827 31.459-13.826 12.826-31.441 9.827-44.402-7.475-82.545-29.042-38.144-21.567-66.579-55.045l-18.478 100.216 53.425 53.724q7.184 6.885 11.314 15.928 4.131 9.044 4.131 19.87V-132q0 18.691-12.833 31.585-12.833 12.894-31.435 12.894-18.602 0-31.646-12.894T543.521-132Zm33.362-572.479q-38.709 0-65.753-27.291-27.043-27.292-27.043-66 0-38.709 27.291-65.47 27.291-26.761 66-26.761t65.47 27.008q26.761 27.009 26.761 65.718T642.6-731.522q-27.008 27.043-65.717 27.043Z"/></svg>