<svg xmlns="http://www.w3.org/2000/svg" height="20" viewBox="0 -960 960 960" width="20"><path d="M480.206-50Q403-50 335.367-79.1q-67.634-29.1-117.9-79.367Q167.2-208.733 138.1-276.16 109-343.587 109-420.794q0-77.206 29.1-144.339 29.1-67.134 79.867-117.4Q268.733-732.8 336.226-761.9 403.718-791 481-791h7l-11-11q-13-13-14-31.5t12.522-31.5Q489-879 507-878.5t31 13.5l91 91q18 18 18 42t-18 42l-90 90q-13 13-31.5 13.5T475.522-599Q462-612 462-629.682T475-660l13-13h-7q-104 0-179 74.01t-75 178Q227-317 301.298-242.5 375.596-168 480-168t178.702-74.007Q733-316.014 733-420q0-24.3 17.289-41.65 17.29-17.35 41.5-17.35Q816-479 833.5-461.65T851-420q0 76-29.1 143.633-29.1 67.634-79.367 117.9Q692.267-108.2 624.84-79.1 557.413-50 480.206-50ZM436-315H318q-11.7 0-19.35-8.3-7.65-8.3-7.65-19.909 0-11.61 8.3-19.2Q307.6-370 319-370h81v-23h-38q-9.6 0-16.3-6.7-6.7-6.7-6.7-16.3 0-9.6 6.7-16.3 6.7-6.7 16.3-6.7h38v-23h-84q-10.833 0-17.917-7.8Q291-477.6 291-488q0-10.4 7.8-17.7 7.8-7.3 18.2-7.3h119q10.2 0 17.1 6.9 6.9 6.9 6.9 17.1v150q0 10.2-6.9 17.1-6.9 6.9-17.1 6.9Zm87 0q-10.2 0-17.1-6.9-6.9-6.9-6.9-17.1v-154q0-10.2 6.9-17.1 6.9-6.9 17.1-6.9h120q10.2 0 17.1 6.9 6.9 6.9 6.9 17.1v154q0 10.2-6.9 17.1-6.9 6.9-17.1 6.9H523Zm36-55h48v-92h-48v92Z"/></svg>