<svg xmlns="http://www.w3.org/2000/svg" height="24" viewBox="0 -960 960 960" width="24"><path d="m835-7-39-39H640v-126h30l-58-58H230v-86.186Q230-340 242-360.5t32-33.5q29.418-17.163 61.209-29.081Q367-435 400-442L172-669v29H46v-155l-25-25 67-67L902-74 835-7ZM512-330l-20-20q-37 0-66.217 5-29.218 5-54.783 15h141Zm98-280q0 23.437-7.5 43.718Q595-546 581-529l-72-72q1-2 1-4.5v-4.5q0-12-9-21t-21-9h-4.5q-2.5 0-4.5 1l-72-72q17-14 37.282-21.5Q456.563-740 480-740q54.167 0 92.083 37.917Q610-664.167 610-610Zm304 290v124L790-320h124ZM46-46v-274h126v148h148v126H46Zm742-594v-148H640v-126h274v274H788Zm-298 20Zm2 290ZM320-914v124L196-914h124Z"/></svg>