<svg xmlns="http://www.w3.org/2000/svg" height="24" viewBox="0 -960 960 960" width="24"><path d="m827.609-16.13-44.652-44.652H640v-106.001h36.956l-67.565-67.565H234.348v-81.757q0-22.591 11.347-42.221 11.348-19.631 30.479-31.761 30.106-17.527 62.64-29.698 32.534-12.172 66.403-18.737L166.783-676.391V-640H60.782v-142.392L23.174-820l62.652-62.652 804.436 803.87-62.653 62.652ZM605.652-605.652q0 24.551-8.804 45.797t-24.108 38.246L395.957-698.392q17-15.304 38.246-24.109 21.246-8.804 45.797-8.804 52.355 0 89.004 36.649 36.648 36.648 36.648 89.004ZM899.218-320v124.87l-104.87-104.871V-320h104.87ZM60.782-60.782V-320h106.001v153.217H320v106.001H60.782ZM793.217-640v-153.217H640v-106.001h259.218V-640H793.217ZM320-899.218v104.87h-19.999L195.13-899.218H320Z"/></svg>