<svg xmlns="http://www.w3.org/2000/svg" height="20" viewBox="0 -960 960 960" width="20"><path d="M829.154-86.769 779.923-136H624v-32h123.923L640.538-275.384H260v-48.001q0-15.384 6.192-28.269 6.193-12.884 19.346-21.577 42.462-25.384 98.231-41.384 55.769-16 98.538-14.385h4.616L168-747.923V-624h-32v-155.923l-30.77-30.769 22.539-21.539 722.923 722.923-21.538 22.539ZM580-584.615q0 22.076-8.654 40.192-8.654 18.115-24.038 31.269l-138.77-138.769q13.154-15.385 31.27-24.039 18.115-8.654 40.192-8.654 40.769 0 70.385 29.616Q580-625.385 580-584.615ZM824-336v99.539l-32-32.001V-336h32ZM136-136v-200h32v168h168v32H136Zm656-488v-168H624v-32h200v200h-32ZM336-824v32h-67.538l-32.001-32H336Z"/></svg>