<svg xmlns="http://www.w3.org/2000/svg" height="20" viewBox="0 -960 960 960" width="20"><path d="m816.461-147.692-95.153-95.154q-48.693 51.154-112.039 79Q545.923-136 470.769-136q-71.307 0-134-26.923-62.692-26.923-109.423-73.654Q180.615-283.308 153.692-346q-26.923-62.692-26.923-134 0-76.615 28.115-140.5Q183-684.385 232.615-729.769l-94.154-95.923L160.769-849l679 679-23.308 22.308Zm-35.692-181.769-24-25.539q13-29 19.5-61t6.5-64q0-27-4.5-53.5t-13.5-50.5q-18 4-38 5.5t-41 1.5q-57 0-107.961-13.231-50.962-13.231-98.5-41.231l-156.77-157.769q38.154-18.923 72.385-26.846Q429.154-824 470.769-824q71.539 0 134.116 26.923 62.577 26.923 109.308 74.038 46.73 47.116 73.653 109.308Q814.77-551.539 814.77-480q0 36.462-7.924 75.808-7.923 39.346-26.077 74.731Zm-430-78.539q-20 0-34-14t-14-34q0-20 14-34t34-14q20 0 34 14t14 34q0 20-14 34t-34 14Zm120 240q65.539 0 126.654-26.961 61.115-26.962 102.115-70.193L338.154-626Q304.615-582 256-548.385 207.385-514.769 160.769-500q-1 5-1.5 10t-.5 10q0 130 91 221t221 91Z"/></svg>