<svg xmlns="http://www.w3.org/2000/svg" height="24" viewBox="0 -960 960 960" width="24"><path d="M832.461-103.692 718.308-217.846q-48.693 45.154-109.539 71.5Q547.923-120 472.769-120q-74.307 0-140-28.423-65.692-28.423-114.423-77.154Q169.615-274.308 141.192-340q-28.423-65.692-28.423-140 0-73.615 27.115-136.5Q167-679.385 210.615-725.769L96.461-839.692 124.77-868l736 736-28.308 28.308Zm-40.692-209.769-29-30.539q14-32 22-66t8-70q0-24-3-46.5t-11-43.5q-21 5-42 7.5t-44 2.5q-56 0-104.961-13.731-48.962-13.731-95.5-40.731l-184.77-184.769q40.154-20.923 78.385-30.846Q424.154-840 472.769-840q74.539 0 140.116 28.423 65.577 28.423 114.308 77.038 48.73 48.616 77.153 114.308Q832.77-554.539 832.77-480q0 41.462-9.424 83.808-9.423 42.346-31.577 82.731Zm-439-76.539q-21 0-35.5-14.5t-14.5-35.5q0-21 14.5-35.5t35.5-14.5q21 0 35.5 14.5t14.5 35.5q0 21-14.5 35.5t-35.5 14.5Zm120 230q64.539 0 121.154-23.961 56.615-23.962 95.615-62.193L325.154-611q-31.539 42-78.654 75.615-47.115 33.616-93.731 49.385v6q0 133 93.5 226.5t226.5 93.5Z"/></svg>