<svg xmlns="http://www.w3.org/2000/svg" height="24" viewBox="0 -960 960 960" width="24"><path d="M844.384-58.769 663.846-239.307v23.923h-560v-65.847q0-27.846 14.423-47.884 14.423-20.039 38.808-31.962 52-24.846 103.307-39.577 51.308-14.731 123.462-14.731 37.384 0 66.038 4.346 28.654 4.346 53.731 11.5L397.769-505.384q-3.538.769-6.961.769h-6.962q-49.846 0-84.923-35.077-35.077-35.077-35.077-84.923v-6.962q0-3.423.769-6.962L75.461-827.692 104-856.231 872.923-87.308l-28.539 28.539ZM689.846-401.693q29.462 6 56.769 16.654 27.308 10.654 54.001 23.962 26 13.077 40.769 33.346 14.769 20.269 14.769 44.654v65.385H855L734.231-338.461q-6.692-18.385-17.654-34.424-10.962-16.038-26.731-28.808ZM552-520.692q15.154-22.616 23.5-49.231 8.346-26.616 8.346-54.692 0-32.77-11.423-62.539t-30.731-55.616q3.231-1.153 6.462-1.5 3.231-.346 6.462-.346 49.846 0 84.923 35.077 35.077 35.077 35.077 84.924 0 46.769-31.423 80.307-31.423 33.539-75.885 38.924L552-520.692Zm-57.231-57.231L337.154-735.539q11.384-4.154 22.615-6.615 11.231-2.462 24.077-2.462 49.846 0 84.923 35.077 35.077 35.077 35.077 84.924 0 12.846-2.461 24.077-2.462 11.23-6.616 22.615Z"/></svg>