<svg xmlns="http://www.w3.org/2000/svg" height="24" viewBox="0 -960 960 960" width="24"><path d="m803.739-268.087-68.848-68.848q9.805-25.087 14.826-49.272 5.022-24.184 5.022-49.793 0-115.283-81.163-198.206-81.163-82.924-195.967-82.924-25.848 0-50.892 4.26-25.043 4.261-48.891 14.066l-68.848-68.848q37.522-19.522 80.218-30 42.695-10.479 88.413-10.479 75.674 0 142.608 28.718 66.935 28.717 117.131 79.293 50.196 50.576 79.293 118.131Q845.739-514.435 845.739-436q0 45.478-11.239 87.696-11.239 42.217-30.761 80.217Zm51.283-372.63L678.326-817.413l58.87-58.631 176.456 176.457-58.63 58.87ZM814.739-19.696 692.804-141.39Q647.326-108.63 592.467-90.25q-54.858 18.38-114.858 18.38-75.674 0-142.609-28.717t-117.131-78.032q-50.195-49.316-79.293-115.87-29.098-66.554-29.098-142.228 0-62.24 18.38-116.859 18.381-54.62 52.663-100.098l-32.804-32.804-47.522 47.282-58.63-58.63 47.522-47.522-68.5-68.5 59.826-60.065L874.804-79.522l-60.065 59.826Zm-337.13-142.413q39.847 0 78.173-11.924 38.327-11.924 71.131-33.489L245.13-587.543q-21.565 34.043-33.108 72.63-11.544 38.587-11.544 78.913 0 114.804 81.283 194.348 81.282 79.543 195.848 79.543Zm-41.587-235.304ZM556.478-517.87Z"/></svg>