<svg xmlns="http://www.w3.org/2000/svg" height="20" viewBox="0 -960 960 960" width="20"><path d="M785.739-280.087 324.978-739.652q34.522-16.522 73.718-26.5 39.195-9.979 78.913-9.979 71.674 0 134.108 27.218 62.435 27.217 109.131 73.793 46.696 46.576 73.793 109.131Q821.739-503.435 821.739-432q0 39.478-8.739 78.196-8.739 38.717-27.261 73.717Zm61.283-344.63L670.326-801.413l53.87-53.631 176.456 176.457-53.63 53.87ZM796.739-51.696 687.804-160.39q-45.478 34.761-99.337 53.641-53.858 18.88-110.858 18.88-71.674 0-134.109-27.217t-109.131-74.032q-46.695-46.816-73.793-109.37-27.098-62.554-27.098-134.228 0-57.24 18.88-110.859 18.881-53.62 53.163-99.098l-39.804-39.804-57.522 57.282-53.63-53.63 57.522-57.522-63.5-63.5 54.826-55.065 748.391 749.391-55.065 53.826Z"/></svg>