<svg xmlns="http://www.w3.org/2000/svg" height="24" viewBox="0 -960 960 960" width="24"><path d="M335.262-392.652q-44.305 0-75.153-30.848-30.849-30.848-30.849-75.153V-788.13q0-44.305 30.849-75.153 30.848-30.848 75.153-30.848h289.476q44.305 0 75.153 30.848 30.849 30.848 30.849 75.153v289.477q0 44.305-30.849 75.153-30.848 30.848-75.153 30.848H335.262Zm0-106.001h289.476V-788.13H335.262v289.477ZM624.738-229.26v-106.002H730.74v106.002H624.738Zm-395.478 0v-106.002h106.002v106.002H229.26ZM426.999-65.869V-171.87h106.002v106.001H426.999ZM480-643.39ZM624.738-65.869V-171.87H730.74q0 44.305-30.849 75.153-30.848 30.848-75.153 30.848Zm-289.476 0q-44.305 0-75.153-30.848-30.849-30.848-30.849-75.153h106.002v106.001Z"/></svg>