<svg xmlns="http://www.w3.org/2000/svg" height="24" viewBox="0 -960 960 960" width="24"><path d="M570.001-100.001q-78.154 0-147.5-29.962-69.346-29.961-120.961-81.576-51.615-51.616-81.576-120.962Q190.002-401.846 190.002-480q0-78.769 29.962-147.807 29.961-69.038 81.576-120.654 51.615-51.615 120.961-81.576 69.346-29.962 147.5-29.962 33.999 0 65.768 6.423 31.768 6.423 61.691 18.423 12.846 5.077 14.23 15.23 1.385 10.154-10.307 19.385-69.461 57.308-110.422 140.154Q549.999-577.538 549.999-480q0 97.538 40.962 180.384 40.961 82.846 110.422 140.154 11.692 9.231 10.307 19.385-1.384 10.153-14.23 15.23-29.923 12-61.691 18.423-31.769 6.423-65.768 6.423Z"/></svg>