<svg xmlns="http://www.w3.org/2000/svg" height="20" viewBox="0 -960 960 960" width="20"><path d="M580.382-796Q452-796 361-703.738q-91 92.261-91 223.5Q270-349 361-256.5T580.382-164H600q9 0 18-2-55-66-85.5-146.206Q502-392.413 502-480q0-87.587 30.5-167.794Q563-728 618-794q-9-2-18-2h-19.618ZM580-132q-70.77 0-133.033-27.34-62.264-27.339-108.748-74.641-46.485-47.302-73.352-110.661Q238-408 238-479.684q0-72.558 27.027-135.937Q292.055-679 338.237-726q46.183-47 108.803-74.5T580-828q19.206 0 37.103 2Q635-824 652-820q13 3 14.5 12t-7.5 18q-57.627 60.151-91.313 139.855Q534-570.441 534-480q0 90.13 33.687 169.574Q601.373-230.981 659-171q9 9 7.5 18.5T652-140q-17 5-34.897 6.5T580-132ZM444-480Z"/></svg>