<svg xmlns="http://www.w3.org/2000/svg" height="20" viewBox="0 -960 960 960" width="20"><path d="M550.078-793.13q-126.948 0-217.111 91.424-90.163 91.425-90.163 221.468 0 130.042 90.163 221.705 90.163 91.663 217.111 91.663 9.422 0 17.944-.119 8.521-.12 16.565-1.641-54.283-65.283-85.022-145.011Q468.826-393.369 468.826-480q0-86.631 30.739-166.359 30.739-79.728 85.022-145.011-8.044-1.521-16.685-1.641-8.641-.119-17.824-.119Zm-.382 721.26q-82.444 0-155.784-32.217-73.34-32.217-128.099-87.793-54.758-55.576-86.384-130.011Q147.804-396.326 147.804-480q0-84.435 31.625-158.489 31.626-74.055 86.384-129.631 54.759-55.576 128.099-87.793 73.34-32.218 155.784-32.218 45.286 0 90.371 10.837 45.085 10.837 86.911 29.99 18.87 9.434 19.131 24.445.261 15.011-17.131 28.163-75.822 55.587-120.487 136.975Q563.826-576.333 563.826-480q0 96.021 44.665 177.15t120.487 136.546q17.392 12.913 17.131 28.543-.261 15.631-19.131 25.065-41.826 20.153-86.911 30.49T549.696-71.87Zm-136-408.13Z"/></svg>