<svg xmlns="http://www.w3.org/2000/svg" height="24" viewBox="0 -960 960 960" width="24"><path d="m460-419.693-70.615-70.615q-5.616-5.615-13.385-5.615t-13.385 5.615Q357-484.692 357-476.41t5.615 13.641l95.539 95.538q9.692 9.693 22.615 9.693 12.923 0 22.616-9.693l95.538-95.538q5.616-5.359 5.616-13.641t-5.616-13.898q-5.615-5.615-13.897-5.615t-13.641 5.615l-70.616 70.615v-176.461q0-8.5-5.757-14.25-5.758-5.75-14.27-5.75-8.511 0-14.627 5.75-6.115 5.75-6.115 14.25v176.461ZM480.134-120q-74.673 0-140.41-28.339-65.737-28.34-114.365-76.922-48.627-48.582-76.993-114.257Q120-405.194 120-479.866q0-74.673 28.339-140.41 28.34-65.737 76.922-114.365 48.582-48.627 114.257-76.993Q405.194-840 479.866-840q74.673 0 140.41 28.339 65.737 28.34 114.365 76.922 48.627 48.582 76.993 114.257Q840-554.806 840-480.134q0 74.673-28.339 140.41-28.34 65.737-76.922 114.365-48.582 48.627-114.257 76.993Q554.806-120 480.134-120Z"/></svg>