<svg xmlns="http://www.w3.org/2000/svg" height="20" viewBox="0 -960 960 960" width="20"><path d="M405.54-633.969q0-26.807 18.842-45.649 18.842-18.842 45.649-18.842h307.938q26.807 0 45.649 18.842 18.842 18.842 18.842 45.649v307.938q0 26.807-18.842 45.649-18.842 18.842-45.649 18.842H470.031q-26.807 0-45.649-18.842-18.842-18.842-18.842-45.649v-307.938Zm-144 372.429v-51.999h51.999v51.999H261.54Zm0-384.921v-51.999h51.999v51.999H261.54Zm-144 192.46v-51.998h51.999v51.998H117.54Zm0 140.462h51.999v51.999q-21.923 0-36.961-15.275-15.038-15.274-15.038-36.724Zm0-332.922q0-21.45 15.275-36.724 15.274-15.275 36.724-15.275v51.999H117.54Z"/></svg>