<svg xmlns="http://www.w3.org/2000/svg" height="24" viewBox="0 -960 960 960" width="24"><path d="M643.692-305.769q2.77-14.231 4.385-28.462 1.615-14.23 1.615-29.23 0-73.847-32.692-136.116-32.692-62.269-88.077-103.962l-57.231 57.231q-8.461 8.462-18.923 4.231-10.461-4.231-10.461-15.923v-240.462q0-7.23 4.846-12.077 4.846-4.846 12.077-4.846h241.231q11.692 0 15.923 10.077 4.23 10.077-4.231 18.539l-56.462 56.461q48.923 43.923 77.616 104.693Q762-564.846 762-494.231q0 59.923-20.615 112.231-20.616 52.308-56.846 94.231-16.231 18.461-31.308 13-15.077-5.462-9.539-31ZM260.308-144.615q-11.693 0-16.308-10.077t3.846-18.539l57.231-56.461q-49.154-43.923-77.731-104.693-28.577-60.769-28.577-131.384 0-59.923 20.231-111.846 20.231-51.924 55.923-93.847 14.692-17.692 30.538-12.615 15.847 5.077 10.847 29.846-2.231 14-3.731 28.231-1.5 14.231-1.5 29.461 0 73.847 32.423 136.116 32.423 62.269 87.577 103.962l57.231-57.231q8.461-8.462 18.538-4.231T516.923-402v240.462q0 7.23-4.846 12.077-4.846 4.846-12.077 4.846H260.308Z"/></svg>