<svg xmlns="http://www.w3.org/2000/svg" height="20" viewBox="0 -960 960 960" width="20"><path d="M645.692-315.769q2.77-11.231 3.385-22.962.615-11.73.615-24.73 0-73.847-32.692-136.116-32.692-62.269-88.077-103.962l-53.231 53.231q-9.461 9.462-21.423 4.731-11.961-4.731-11.961-17.423v-233.462q0-8.23 5.346-13.577 5.346-5.346 13.577-5.346h234.231q12.692 0 17.423 11.577 4.73 11.577-4.731 21.039l-52.462 52.461q48.923 43.923 77.616 104.693Q762-564.846 762-494.231q0 55.923-18.115 105.231-18.116 49.308-50.346 89.231-17.231 22.461-35.808 18.5-18.577-3.962-12.039-34.5ZM265.308-144.615q-12.693 0-17.808-11.577t4.346-21.039l53.231-52.461q-49.154-43.923-77.731-104.693-28.577-60.769-28.577-131.384 0-55.923 17.731-104.346 17.731-48.424 48.423-88.347 13.692-17.692 33.038-14.615 19.347 3.077 16.347 28.846-1.231 12-2.231 23.731-1 11.731-1 23.961 0 73.847 32.423 136.116 32.423 62.269 87.577 103.962l53.231-53.231q9.461-9.462 21.038-4.731T516.923-397v233.462q0 8.23-5.346 13.577-5.346 5.346-13.577 5.346H265.308Z"/></svg>