<svg xmlns="http://www.w3.org/2000/svg" height="20" viewBox="0 -960 960 960" width="20"><path d="M658-305q2-12 3-24.5t1-25.5q0-80-35-146.5T532-612l-54 54q-11 11-24.5 5.5T440-573v-245q0-9 6.5-15.5T462-840h245q15 0 20.5 13.5T722-802l-54 54q52 47 83 112t31 141q0 59-18.5 111T712-289q-18 24-38.5 18.5T658-305ZM253-120q-15 0-20.5-13.5T238-158l54-54q-53-47-83.5-112T178-465q0-59 18.5-110.5T248-670q16-20 36.5-15t17.5 30q-2 12-3 24.5t-1 25.5q0 80 35.5 146.5T428-348l54-54q11-11 24.5-5.5T520-387v245q0 9-6.5 15.5T498-120H253Z"/></svg>