<svg xmlns="http://www.w3.org/2000/svg" height="24" viewBox="0 -960 960 960" width="24"><path d="M672.957-288.782q2-13.87 3.435-27.457 1.435-13.587 1.435-28.021 0-86.783-38.109-158.936-38.109-72.152-103.196-120.109l-54.043 54.043q-13.392 13.392-29.631 6.413-16.239-6.978-16.239-25.5v-255.957q0-11.391 7.695-19.087 7.696-7.696 19.087-7.696h255.957q18.522 0 25.501 15.957 6.978 15.957-6.414 29.348l-54.043 54.609q56.522 50.957 90.066 121.609 33.543 70.653 33.543 153.436 0 64.695-20.717 121.956-20.717 57.261-57.152 104.522-19.261 24.522-40.501 17.522-21.239-7-16.674-36.652ZM240.652-88.912q-18.522 0-25.501-15.956-6.978-15.957 6.414-29.348l54.043-54.609q-57.522-50.957-90.566-121.609-33.043-70.653-33.043-153.436 0-64.695 20.717-121.956 20.717-57.261 57.587-104.522 18.13-23.392 39.652-16.392 21.522 7 17.088 35.522-2.435 13.435-3.653 27.022-1.217 13.587-1.217 28.456 0 86.783 38.609 158.936 38.609 72.152 102.696 120.109l54.043-54.043q13.392-13.392 29.631-6.413 16.239 6.978 16.239 25.5v255.957q0 11.391-7.695 19.087-7.696 7.696-19.087 7.696H240.652Z"/></svg>