<svg xmlns="http://www.w3.org/2000/svg" height="20" viewBox="0 -960 960 960" width="20"><path d="M237.618-196q-10.368 0-17.993-7.475Q212-210.95 212-222v-299.588q0-11.712 7.475-19.062Q226.95-548 238-548h70.382q10.368 0 17.993 7.475Q334-533.05 334-522v299.588q0 11.712-7.475 19.062Q319.05-196 308-196h-70.382Zm197.318 0Q424-196 416.5-203.475T409-222v-516q0-11.05 7.475-18.525Q423.95-764 435-764h90.064q10.936 0 18.436 7.475T551-738v516q0 11.05-7.475 18.525Q536.05-196 525-196h-90.064Zm216.682 0q-10.368 0-17.993-7.361-7.625-7.36-7.625-18.241v-228.817q0-10.881 7.475-18.231Q640.95-476 652-476h70.382q10.368 0 17.993 7.361 7.625 7.36 7.625 18.241v228.817q0 10.881-7.475 18.231Q733.05-196 722-196h-70.382Z"/></svg>