<svg xmlns="http://www.w3.org/2000/svg" height="20" viewBox="0 -960 960 960" width="20"><path d="M228-264q-4.3 0-7.15-2.789-2.85-2.79-2.85-7 0-4.211 2.85-7.211t7.15-3h504q4.3 0 7.15 2.789 2.85 2.79 2.85 7 0 4.211-2.85 7.211t-7.15 3H228Zm115.174-144.836L471-739q2-3 3.468-4 1.467-1 3.532-1h6.5q2.5 0 4 1.5t3.5 4.5l123 328q2 5.191 0 9.596-2 4.404-8.759 4.404-4.241 0-6.166-1.188-1.924-1.187-3.471-4.812L561-496H395.886L361-402q-1 2-3.062 4-2.063 2-5.917 2-6.021 0-8.021-4-2-4-.826-8.836ZM403-514h152l-71.529-196H480l-77 196Z"/></svg>