<svg xmlns="http://www.w3.org/2000/svg" height="24" viewBox="0 -960 960 960" width="24"><path d="M240-218.461q-8.539 0-14.269-5.731-5.731-5.731-5.731-14.27 0-8.538 5.731-14.269 5.73-5.731 14.269-5.731h480q8.539 0 14.269 5.731Q740-247 740-238.462q0 8.539-5.731 14.27-5.73 5.731-14.269 5.731H240Zm74-176.462 142.384-374.923q2.462-5.616 6.962-8.654 4.5-3.039 10.346-3.039h14.154q5.846 0 10.346 3.424 4.5 3.423 6.962 9.038l139.308 374.385q2.923 9.307-2.077 17.384t-15.308 8.077q-6.385 0-10.885-3.038-4.5-3.039-6.961-9.423l-36.923-101.077H386.615l-37.384 101.307q-2.462 5.616-6.846 8.924-4.385 3.307-10.77 3.307-10.538 0-15.654-8.192-5.115-8.192-1.961-17.5Zm85.385-122.616h159.692l-76.308-211.23h-4l-79.384 211.23Z"/></svg>