<svg xmlns="http://www.w3.org/2000/svg" height="20" viewBox="0 -960 960 960" width="20"><path d="M480-489.609q-68.479 0-115.849-47.37-47.369-47.37-47.369-115.849 0-68.478 47.369-115.565 47.37-47.088 115.849-47.088 68.479 0 115.849 47.088 47.369 47.087 47.369 115.565 0 68.479-47.369 115.849-47.37 47.37-115.849 47.37ZM172.782-163.172v-116.349q0-28.258 15.436-53.165 15.437-24.908 42.303-41.227 56.696-32.566 120.434-50.131Q414.692-441.609 480-441.609q66.391 0 130.152 17.282 63.761 17.283 119.327 49.848 26.866 15.238 42.303 40.489 15.436 25.251 15.436 54.438v116.38H172.782Z"/></svg>