<svg xmlns="http://www.w3.org/2000/svg" height="20" viewBox="0 -960 960 960" width="20"><path d="m473.826-447-89.093 24-39.907-32q-2-1-15-3l-5 1q-8.25 1.926-12.125 10.111T313.826-431l41.739 71.478q3.565 6.696 10.912 10.326 7.347 3.631 15.871 1.066L695.826-432q15-5 22.5-17.217 7.5-12.218 3.5-26.783-4-14-16.857-22t-27.143-4l-91 25-140.292-130.345Q441.826-612 435.16-613.5q-6.667-1.5-13.334.5l-6 2q-12 4-17 15.632-5 11.631 2 22.368l73 126ZM174.783-172.782q-41.005 0-69.503-28.456-28.498-28.457-28.498-69.403v-124.653q0-9.88 6.146-16.982 6.145-7.102 16.248-8.949 21.475-6.254 35.54-21.645 14.066-15.391 14.066-37.13 0-22.304-14.066-37.695-14.065-15.392-35.54-21.047-10.103-1.838-16.248-8.907-6.146-7.068-6.146-17.177v-124.577q0-40.928 28.498-69.372 28.498-28.443 69.503-28.443h610.434q41.005 0 69.503 28.51 28.498 28.51 28.498 69.531V-270.5q0 41.022-28.498 69.37-28.498 28.348-69.503 28.348H174.783Z"/></svg>