<svg xmlns="http://www.w3.org/2000/svg" height="20" viewBox="0 -960 960 960" width="20"><path d="m540.913-83 104.61-92.348q66.261-62.522 96-114.869 29.739-52.348 29.739-106.348 0-23.696-7.696-48.305-7.696-24.609-22.653-48.131h38.334q40.057 0 68.905 28.849 28.849 28.848 28.849 68.693v263.756q0 19.79-14.307 34.247T828-83H540.913ZM82.999-132v-263.487q0-39.817 28.631-68.665 28.631-28.849 69.331-28.849h38.691q-15.522 24.522-23.218 47.849-7.696 23.326-7.696 48.234 0 55.483 28.457 105.353 28.456 49.869 97.412 116.217l104.48 92.349H131.598q-19.685 0-34.142-14.307Q83-111.613 83-132ZM766.61-535.913q-54.957 0-93.131-38.175-38.174-38.174-38.174-93.13 0-54.522 38.174-92.914 38.174-38.391 93.131-38.391 54.522 0 92.913 38.391 38.392 38.392 38.392 92.914 0 54.956-38.392 93.13-38.391 38.175-92.913 38.175ZM479.966-622.61q-58.923 0-101.097-42.174-42.174-42.174-42.174-101.097 0-58.556 42.174-100.947 42.174-42.392 101.097-42.392 58.556 0 100.947 42.392 42.392 42.391 42.392 100.947 0 58.923-42.392 101.097-42.391 42.174-100.947 42.174ZM281.087-396.565q0 36.304 47.718 95.456 47.717 59.152 152.76 150.326 117.044-107.608 157.196-157.405t40.152-88.377q0-38.174-25.804-64.261-25.805-26.087-65.109-26.087-21.304 0-40.982 9.87-19.678 9.869-34.366 24.173l-32.087 30.522-31.652-29.087q-16.435-14.869-35.152-25.174-18.718-10.304-42.158-10.304-38.212 0-64.364 26.087t-26.152 64.261ZM193.39-535.913q-54.957 0-93.131-38.175-38.174-38.174-38.174-93.13 0-54.522 38.174-92.914 38.174-38.391 93.131-38.391 54.522 0 92.914 38.391 38.391 38.392 38.391 92.914 0 54.956-38.391 93.13-38.392 38.175-92.914 38.175Z"/></svg>