<svg xmlns="http://www.w3.org/2000/svg" height="20" viewBox="0 -960 960 960" width="20"><path d="m533-96 82-72q77-71 109-122.5T756-396q0-22-6-43.5T733-480h59.247Q821-480 842.5-458.5t21.5 50.041v276.756Q864-117 853.65-106.5T828-96H533ZM96-132v-276.487Q96-437 117-458.5q21-21.5 50.96-21.5H227q-11 20-17 40.5t-6 43.147Q204-342 235-291q31 51 109 123l83 72H131.598Q117-96 106.5-106.35 96-116.7 96-132Zm648-396q-51 0-85.5-34.5T624-648q0-50 34.5-85t85.5-35q50 0 85 35t35 85q0 51-35 85.5T744-528Zm-264.034-72Q425-600 386.5-638.5 348-677 348-731.966 348-786 386.5-825q38.5-39 93.466-39Q534-864 573-825q39 39 39 93.034Q612-677 573-638.5 534-600 479.966-600ZM276-396q0 38 48 98t157 154q121-111 162-161.079 41-50.08 41-90.921 0-41-27.5-68.5T588-492q-23 0-44.091 11T507-454l-27 26-26-24q-17-16-36-28t-46.397-12Q330-492 303-464.5 276-437 276-396Zm-60-132q-51 0-85.5-34.5T96-648q0-50 34.5-85t85.5-35q50 0 85 35t35 85q0 51-35 85.5T216-528Z"/></svg>