<svg xmlns="http://www.w3.org/2000/svg" height="20" viewBox="0 -960 960 960" width="20"><path d="M181-181v-217 217Zm598 0v-217 217Zm4.86-469q13.54 0 22.84-9.16 9.3-9.159 9.3-22.7 0-13.54-9.16-22.84-9.159-9.3-22.7-9.3-13.54 0-22.84 9.16-9.3 9.159-9.3 22.7 0 13.54 9.16 22.84 9.159 9.3 22.7 9.3Zm.14 108q-58 0-99-41t-41-99q0-58.333 41-99.167Q726-822 784-822q58.333 0 99.167 40.833Q924-740.333 924-682q0 58-40.833 99-40.834 41-99.167 41ZM480.353-748Q498-748 511-761t13-31.353Q524-810 511.167-823 498.333-836 480-836q-18 0-31 12.833-13 12.834-13 31.167 0 18 13 31t31.353 13Zm-.387 108Q418-640 373-685q-45-45-45-106.966 0-62.32 45-107.177Q418-944 479.966-944q62.32 0 107.177 44.857Q632-854.286 632-791.966 632-730 587.143-685q-44.857 45-107.177 45ZM325-397q0 26 38 71.5T480-210q91-83 123-122t32-65q0-20.145-13.25-33.073Q608.5-443 588-443q-12 0-23 6t-21 14l-63 62h-2l-63-62q-10-8-21-14t-23.444-6q-19.806 0-33.181 12.927Q325-417.145 325-397Zm-108 0q0-62.637 50-108.319Q317-551 372-551q28.648 0 56.324 10T480-512q23.263-19.077 51.632-29.038Q560-551 588-551q54 0 104.5 45.5T743-397q0 56.776-38 112.888T577-151l-97 84-96-84q-93.939-83.226-130.469-136.613Q217-341 217-397Zm-41.14-253q13.54 0 22.84-9.16 9.3-9.159 9.3-22.7 0-13.54-9.16-22.84-9.159-9.3-22.7-9.3-13.54 0-22.84 9.16-9.3 9.159-9.3 22.7 0 13.54 9.16 22.84 9.159 9.3 22.7 9.3ZM483-73v-108h296v-214h-87v-108h76.934Q818-503 852.5-468.5t34.5 83.041v253.756Q887-108 869.65-90.5 852.3-73 828-73H483ZM181-181h302v108H132q-24.3 0-41.65-17.35Q73-107.7 73-132v-253.487Q73-434 107.5-468.5 142-503 190.75-503H267v108h-86v214Zm-5-361q-58 0-99-41t-41-99q0-58.333 41-99.167Q118-822 176-822q58.333 0 99.167 40.833Q316-740.333 316-682q0 58-40.833 99-40.834 41-99.167 41Zm304-250ZM176-682Zm608 0Z"/></svg>