<svg xmlns="http://www.w3.org/2000/svg" height="20" viewBox="0 -960 960 960" width="20"><path d="M479.692-631.231v-56.479q0-23.721 16.24-39.621 16.24-15.901 39.76-15.901h56.001v56.001q0 23.52-15.901 39.76-15.9 16.24-39.621 16.24h-56.479Zm-167.68 200q-43.208 0-73.457-30.248-30.248-30.249-30.248-73.457v-104.295h104.296q43.208 0 73.456 30.248 30.248 30.249 30.248 73.457v104.295H312.012ZM648-136q-29.727 0-58.748-10.5-29.021-10.5-53.944-30.5l-56.154 56.154q-4.359 4.615-10.141 4.615t-12.167-4.615q-4.615-6.385-4.615-12.167t4.615-11.141L512-200.308q-20-23.923-30-52.944-10-29.021-10-58.748 0-74.083 51.593-125.157T648.583-488H824v175.819q-1.538 73.258-51.887 124.72Q721.764-136 648-136Zm6-29q60 0 98-47.5T790-323v-137H635q-57 0-97.5 39.994T497-323q0 26.615 8.962 52.731 8.961 26.115 27.576 49.423l91.308-91.308q6.385-6.385 12.4-6.385 6.016 0 9.908 6.385 6.385 5.359 6.385 10.997 0 5.637-8.385 10.311l-90.308 90.308q22.308 15.615 47.243 25.576Q627.024-165 654-165Zm-10-148Z"/></svg>