<svg xmlns="http://www.w3.org/2000/svg" height="20" viewBox="0 -960 960 960" width="20"><path d="M737.846-179.692 714.538-203l53-53H448.462q-7.847 34.231-34.037 53.116Q388.234-184 354.194-184q-34.04 0-60.079-19.384-26.038-19.385-34.884-52.616H129.846v-252h194.462v-120H129.846v-32h448v372h191.231l-54.539-54.538 23.308-21.77L830.154-272l-92.308 92.308ZM359.385-508h186.461v-120H359.385v120Zm-5.539 292q28.092 0 48.046-19.954T421.846-284q0-28.092-19.954-48.046T353.846-352q-28.092 0-48.046 19.954T285.846-284q0 28.092 19.954 48.046T353.846-216Zm-102.615-72q2.846-42.231 31.884-69.115Q312.154-384 354.346-384q42.193 0 71.231 26.885 29.038 26.884 30.885 69.115h89.384v-188h-384v188h89.385Zm7-188h-96.385 384-287.615Z"/></svg>