<svg xmlns="http://www.w3.org/2000/svg" height="20" viewBox="0 -960 960 960" width="20"><path d="M609.231-306.769v-84.308q0-5.067 3.302-8.38 3.303-3.312 8.354-3.312 5.052 0 8.39 3.312 3.338 3.313 3.338 8.38v79.385q0 12.03-8.138 20.169-8.138 8.138-20.169 8.138h-79.385q-5.067 0-8.379-3.302-3.313-3.303-3.313-8.354 0-5.051 3.313-8.39 3.312-3.338 8.379-3.338h84.308ZM350.769-653.231v84.308q0 5.067-3.302 8.38-3.303 3.312-8.354 3.312-5.052 0-8.39-3.312-3.338-3.313-3.338-8.38v-79.385q0-12.03 8.138-20.169 8.138-8.138 20.169-8.138h79.385q5.067 0 8.379 3.302 3.313 3.303 3.313 8.354 0 5.051-3.313 8.39-3.312 3.338-8.379 3.338h-84.308ZM288.615-88q-24.315 0-40.465-16.15Q232-120.3 232-144.615v-670.77q0-24.315 16.15-40.465Q264.3-872 288.615-872h382.77q24.315 0 40.465 16.15Q728-839.7 728-815.385v670.77q0 24.315-16.15 40.465Q695.7-88 671.385-88h-382.77ZM264-220h432v-520H264v520Z"/></svg>