<svg xmlns="http://www.w3.org/2000/svg" height="20" viewBox="0 -960 960 960" width="20"><path d="M591.521-344.479v-72q0-10.4 6.8-17.2 6.8-6.8 17.2-6.8 10.4 0 17.2 6.8 6.8 6.8 6.8 17.2v71q0 20.387-14.306 34.694-14.307 14.306-34.694 14.306h-71q-10.4 0-17.2-6.8-6.8-6.8-6.8-17.2 0-10.4 6.8-17.2 6.8-6.8 17.2-6.8h72ZM368.479-615.521v72q0 10.4-6.8 17.2-6.8 6.8-17.2 6.8-10.4 0-17.2-6.8-6.8-6.8-6.8-17.2v-71q0-20.387 14.306-34.694 14.307-14.306 34.694-14.306h71q10.4 0 17.2 6.8 6.8 6.8 6.8 17.2 0 10.4-6.8 17.2-6.8 6.8-17.2 6.8h-72Zm-96 585.044q-41.005 0-69.503-28.499-28.499-28.498-28.499-69.503v-703.042q0-41.005 28.499-69.503 28.498-28.499 69.503-28.499h415.042q41.005 0 69.503 28.499 28.499 28.498 28.499 69.503v703.042q0 41.005-28.499 69.503-28.498 28.499-69.503 28.499H272.479Zm0-218.002h415.042v-463.042H272.479v463.042Z"/></svg>