<svg xmlns="http://www.w3.org/2000/svg" height="20" viewBox="0 -960 960 960" width="20"><path d="M612-298v-88q0-3.467 2.253-5.733 2.254-2.267 5.7-2.267 3.447 0 5.747 2.267 2.3 2.266 2.3 5.733v78q0 11.05-7.475 18.525Q613.05-282 602-282h-78q-3.467 0-5.733-2.253-2.267-2.254-2.267-5.7 0-3.447 2.267-5.747 2.266-2.3 5.733-2.3h88ZM348-662v88q0 3.467-2.253 5.733-2.254 2.267-5.7 2.267-3.447 0-5.747-2.267-2.3-2.266-2.3-5.733v-78q0-11.05 7.475-18.525Q346.95-678 358-678h78q3.467 0 5.733 2.253 2.267 2.254 2.267 5.7 0 3.447-2.267 5.747-2.266 2.3-5.733 2.3h-88Zm-52 562q-22.7 0-37.35-14.65Q244-129.3 244-152v-656q0-22.7 14.65-37.35Q273.3-860 296-860h368q22.7 0 37.35 14.65Q716-830.7 716-808v656q0 22.7-14.65 37.35Q686.7-100 664-100H296Zm-32-114h432v-532H264v532Z"/></svg>