<svg xmlns="http://www.w3.org/2000/svg" height="24" viewBox="0 -960 960 960" width="24"><path d="M283.391-283.391h120q17 0 28.5-11.5t11.5-28.5q0-17-11.5-28.5t-28.5-11.5h-120q-17 0-28.5 11.5t-11.5 28.5q0 17 11.5 28.5t28.5 11.5Zm0-156.609h120q17 0 28.5-11.5t11.5-28.5q0-17-11.5-28.5t-28.5-11.5h-120q-17 0-28.5 11.5t-11.5 28.5q0 17 11.5 28.5t28.5 11.5Zm393.218-236.609q-17 0-28.5 11.5t-11.5 28.5V-480q0 17 11.5 28.5t28.5 11.5q17 0 28.5-11.5t11.5-28.5v-156.609q0-17-11.5-28.5t-28.5-11.5Zm-393.218 80h120q17 0 28.5-11.5t11.5-28.5q0-17-11.5-28.5t-28.5-11.5h-120q-17 0-28.5 11.5t-11.5 28.5q0 17 11.5 28.5t28.5 11.5ZM166.783-100.782q-44.305 0-75.153-30.848-30.848-30.848-30.848-75.153v-546.434q0-44.305 30.848-75.153 30.848-30.848 75.153-30.848h626.434q44.305 0 75.153 30.848 30.848 30.848 30.848 75.153v546.434q0 44.305-30.848 75.153-30.848 30.848-75.153 30.848H166.783Zm509.826-182.609q17 0 28.5-11.5t11.5-28.5q0-17-11.5-28.5t-28.5-11.5q-17 0-28.5 11.5t-11.5 28.5q0 17 11.5 28.5t28.5 11.5Z"/></svg>