<svg xmlns="http://www.w3.org/2000/svg" height="20" viewBox="0 -960 960 960" width="20"><path d="M322.769-356h114.462q1.7 0 2.85-1.117 1.15-1.118 1.15-2.77t-1.15-2.882q-1.15-1.231-2.85-1.231H322.769q-1.7 0-2.85 1.117-1.15 1.118-1.15 2.77t1.15 2.882q1.15 1.231 2.85 1.231Zm0-120h114.462q1.7 0 2.85-1.117 1.15-1.118 1.15-2.77t-1.15-2.882q-1.15-1.231-2.85-1.231H322.769q-1.7 0-2.85 1.117-1.15 1.118-1.15 2.77t1.15 2.882q1.15 1.231 2.85 1.231Zm314.575-128q-1.652 0-2.882 1.15-1.231 1.15-1.231 2.85v144q0 1.7 1.117 2.85 1.118 1.15 2.769 1.15 1.652 0 2.883-1.15t1.231-2.85v-144q0-1.7-1.117-2.85-1.118-1.15-2.77-1.15Zm-314.575 8h114.462q1.7 0 2.85-1.117 1.15-1.118 1.15-2.77t-1.15-2.882q-1.15-1.231-2.85-1.231H322.769q-1.7 0-2.85 1.117-1.15 1.118-1.15 2.77t1.15 2.882q1.15 1.231 2.85 1.231ZM192.615-184q-24.315 0-40.465-16.15Q136-216.3 136-240.615v-478.77q0-24.315 16.15-40.465Q168.3-776 192.615-776h574.77q24.315 0 40.465 16.15Q824-743.7 824-719.385v478.77q0 24.315-16.15 40.465Q791.7-184 767.385-184h-574.77Zm444.502-172q1.652 0 2.883-1.117 1.231-1.118 1.231-2.77t-1.117-2.882q-1.118-1.231-2.77-1.231t-2.882 1.117q-1.231 1.118-1.231 2.77t1.117 2.882q1.118 1.231 2.769 1.231Z"/></svg>