<svg xmlns="http://www.w3.org/2000/svg" height="20" viewBox="0 -960 960 960" width="20"><path d="M500.02-306Q452-306 416-270.5 380-235 380-186v8q0 6 5 11t11 5h208q7 0 11.5-5t4.5-11v-8q0-49-35.5-84.5T500.02-306ZM312-583.577Q312-514 359-462.5T475-402l138 18q14 2 24.5-8t10.5-24v-337q0-14-10.5-24t-24.5-8l-136.81 18.565Q406-758 359-706.3q-47 51.701-47 122.723ZM374-142q-5.2 0-9.6-4.4-4.4-4.4-4.4-9.6v-30q0-58.16 40.95-99.08T500-326q6.355 0 13.177.5Q520-325 527-322l33-50-87-11q-77.515-6.926-129.258-64.603Q292-505.279 292-583.242 292-662 343.5-719.5 395-777 472-786l146-19q21-2 35.5 13.928Q668-775.145 668-753v338q0 28.145-27 40.572Q614-362 583-367l-1-1-32 48q39 17 64.5 53.5T640-186v30q0 5.2-3.897 9.6-3.897 4.4-9.659 4.4H374Zm274-458ZM500-162Z"/></svg>