<svg xmlns="http://www.w3.org/2000/svg" height="20" viewBox="0 -960 960 960" width="20"><path d="m381.174-165.304-56.653-57.217 54.652-54.087q-141.74-15.13-222.065-71.239Q76.782-403.956 76.782-480q0-95.827 117.087-153.523Q310.956-691.218 480-691.218q169.044 0 286.131 57.413Q883.218-576.392 883.218-480q0 71.87-70.587 126.023Q742.044-299.825 624-282.782v-99.436q72-14.173 116.609-41.978Q785.217-452 785.217-480q0-47.13-92.478-80.174Q600.261-593.217 480-593.217q-119.261 0-212.239 33.543Q174.783-526.13 174.783-480q0 34 57.717 64.609 57.717 30.608 143.717 41.608l-51.696-51.696 56.653-57.217L539.87-324 381.174-165.304Z"/></svg>