<svg xmlns="http://www.w3.org/2000/svg" height="24" viewBox="0 -960 960 960" width="24"><path d="M106.999-271.521q-22.087 0-37.544-15.457Q54-302.435 54-324.522v-310.956q0-22.087 15.456-37.544Q84.912-688.479 107-688.479h75.478q22.088 0 37.544 15.457 15.457 15.457 15.457 37.544v310.956q0 22.087-15.457 37.544-15.456 15.457-37.544 15.457h-75.478Zm221.48 89.044q-22.088 0-37.544-15.457-15.457-15.457-15.457-37.544v-489.044q0-22.087 15.457-37.544 15.456-15.457 37.544-15.457h303.042q22.088 0 37.544 15.457 15.457 15.457 15.457 37.544v489.044q0 22.087-15.457 37.544-15.456 15.457-37.544 15.457H328.479Zm449.044-89.044q-22.088 0-37.544-15.457-15.457-15.457-15.457-37.544v-310.956q0-22.087 15.457-37.544 15.456-15.457 37.544-15.457h75.478q22.087 0 37.544 15.457 15.456 15.457 15.456 37.544v310.956q0 22.087-15.456 37.544-15.457 15.457-37.544 15.457h-75.478Z"/></svg>