<svg xmlns="http://www.w3.org/2000/svg" height="24" viewBox="0 -960 960 960" width="24"><path d="M829-186H640q-5.95 0-9.975-4.035-4.025-4.035-4.025-10t4.025-9.965q4.025-4 9.975-4h189l-79-81q-4-4-3.5-9.5t4.5-9.674q3.667-3.826 9.333-3.826 5.667 0 9.667 4l92 93q9 9 9 21t-9 21l-93 93q-4 4-9.5 3.5t-9.674-4.674Q746-91 746-96t4-9l79-81ZM466-466v146q0 5.95 4.035 9.975 4.035 4.025 10 4.025t9.965-4.025q4-4.025 4-9.975v-146h146q5.95 0 9.975-4.035 4.025-4.035 4.025-10T649.975-490q-4.025-4-9.975-4H494v-146q0-5.95-4.035-9.975-4.035-4.025-10-4.025T470-649.975q-4 4.025-4 9.975v146H320q-5.95 0-9.975 4.035-4.025 4.035-4.025 10t4.025 9.965q4.025 4 9.975 4h146ZM232-172q-26 0-43-17t-17-43v-496q0-26 17-43t43-17h496q26 0 43 17t17 43v306q-6.568-1-13.654-1.5-7.087-.5-14.346-.5-93 0-158.5 65.333Q536-293.333 536-200q0 7.35.5 14.35T538-172H232Z"/></svg>