<svg xmlns="http://www.w3.org/2000/svg" height="20" viewBox="0 -960 960 960" width="20"><path d="M222.783-222.783v-514.434 514.999-.565Zm0 98.001q-41.005 0-69.503-28.498-28.498-28.498-28.498-69.503v-514.434q0-41.005 28.498-69.503 28.498-28.498 69.503-28.498h514.434q41.005 0 69.503 28.498 28.498 28.498 28.498 69.503v324.348q-24.217-6.261-49-7.043-24.783-.783-49.001 3.478v-320.783H222.783v514.434h311.739q-5.957 24.218-6.305 48.718-.347 24.5 4.783 49.283H222.783Zm548.13-.695h-98.07q-18.3 0-31.028-12.55-12.728-12.551-12.728-30.587 0-18.037 12.728-30.798t31.028-12.761h98.07l-18.565-19.565q-13.261-12.978-13.261-29.946 0-16.967 13.36-30.326 13.162-13.163 30.488-13.163 17.327 0 30.588 13.261l86.478 88.478q14.956 14.799 14.956 34.53 0 19.732-14.956 34.688l-86.478 88.478q-13.261 13.261-30.663 13.261t-30.512-13.26Q739.087-59 738.805-75.826q-.283-16.826 12.978-30.087l19.13-19.565ZM435.521-435.521v107.564q0 18.904 12.727 31.691 12.727 12.788 31.541 12.788t31.752-12.788q12.938-12.787 12.938-31.691v-107.564h107.564q18.904 0 31.691-12.727 12.788-12.727 12.788-31.541t-12.788-31.752q-12.787-12.938-31.691-12.938H524.479v-107.564q0-18.904-12.727-31.691-12.727-12.788-31.541-12.788t-31.752 12.788q-12.938 12.787-12.938 31.691v107.564H327.957q-18.904 0-31.691 12.727-12.788 12.727-12.788 31.541t12.788 31.752q12.787 12.938 31.691 12.938h107.564Z"/></svg>