<svg xmlns="http://www.w3.org/2000/svg" height="24" viewBox="0 -960 960 960" width="24"><path d="M288.479-395.478h63.739q10.826 0 20.304-3.848 9.479-3.848 17.174-11.544l168.913-169.346q10.695-10.696 15.761-23.892 5.065-13.196 5.065-27.022 0-13.261-5.065-26.022-5.066-12.761-15.327-23.457l-37-37.434q-10.695-10.696-23.674-16.044-12.978-5.348-27.239-5.348-13.261 0-26.24 5.065-12.978 5.066-23.674 15.761L251.435-549.696q-7.696 7.695-11.826 17.174-4.131 9.478-4.131 20.304v63.739q0 22.088 15.457 37.544 15.456 15.457 37.544 15.457Zm203.13-218.696-31.782.306-4.524-38.435 31.913.694 4.393 37.435Zm-32.304 218.696h225.217q17 0 28.5-11.5t11.5-28.5q0-17-11.5-28.5t-28.5-11.5H539.305l-80 80ZM220.782-220.782l-69.391 69.391q-25.217 25.217-57.913 11.608-32.696-13.608-32.696-49.087v-604.347q0-44.305 30.848-75.153 30.848-30.848 75.153-30.848h626.434q44.305 0 75.153 30.848 30.848 30.848 30.848 75.153v466.434q0 44.305-30.848 75.153-30.848 30.848-75.153 30.848H220.782Z"/></svg>