<svg xmlns="http://www.w3.org/2000/svg" height="24" viewBox="0 -960 960 960" width="24"><path d="M519.761-71.87v-322.869h120.956l40.479-40.478h80.717l40.239 40.478h121.196v322.87H519.761Zm201.674-82.152q33.478 0 57.098-23.619 23.619-23.62 23.619-57.098 0-33.478-23.619-57.098-23.62-23.619-57.098-23.619-33.478 0-57.098 23.619-23.62 23.62-23.62 57.098 0 33.478 23.62 57.098 23.62 23.619 57.098 23.619ZM480-480Zm1.283-140q-58 0-99 41t-41 99q0 48 27.478 84.359 27.478 36.358 71.478 49.88V-441.5q-6.087-7.283-9.891-18.109-3.804-10.826-3.804-20.391 0-22.848 15.945-38.793 15.946-15.946 38.794-15.946 13.282 0 23.684 5.38 10.403 5.381 17.685 14.142h93.826q-11.804-45.674-48.782-75.229Q530.717-620 481.283-620ZM363.065-71.87 346.587-202.5q-11.087-4.282-21.033-10.326-9.945-6.043-19.511-12.848l-121.391 51.196L67.478-377.391l104.913-79.435q-.761-6.044-.761-11.587v-23.174q0-5.543.761-11.587L67.478-582.609l117.174-202.435 121.87 50.957q9.565-6.804 19.652-12.728 10.087-5.924 20.413-10.207l16.478-131.109h233.87l16.478 131.109q11.087 4.283 21.033 10.207 9.945 5.924 19.511 12.728l121.391-50.957 117.174 202.435-90.5 67.392H693.848q-.761-5-2.239-12.413-1.479-7.413-4.196-14.566l85.761-64.521-36.609-63.696-98.522 42q-22-23.717-49.097-39.576-27.098-15.859-58.576-23.62l-13-105.521h-73.979L429.87-691.848q-31.718 7.761-58.935 23.62-27.218 15.858-49.457 38.815l-98.282-41-36.37 63.696 85.044 63.282q-5 15.478-7.24 30.837-2.239 15.359-2.239 32.598 0 16.239 2.239 31.717 2.24 15.479 7.24 30.957l-85.044 64.043 36.37 63.696 98.282-41.761q23.761 25 53.642 42 29.88 17 64.641 22.718v194.76h-76.696Z"/></svg>