<svg xmlns="http://www.w3.org/2000/svg" height="20" viewBox="0 -960 960 960" width="20"><path d="M444-744v-20h72v20h-72Zm0 548v-20h72v20h-72ZM294-744v-20h72v20h-72Zm0 548v-20h72v20h-72Zm-98-408v-72h20v72h-20Zm0 160v-72h20v72h-20Zm0 160v-72h20v72h-20Zm390 88q-4.25 0-7.125-2.825-2.875-2.824-2.875-7 0-4.175 2.875-7.175t7.125-3h74v-528h-74q-4.25 0-7.125-2.825-2.875-2.824-2.875-7 0-4.175 2.875-7.175t7.125-3h168q4.25 0 7.125 2.825 2.875 2.824 2.875 7 0 4.175-2.875 7.175T754-744h-74v528h74q4.25 0 7.125 2.825 2.875 2.824 2.875 7 0 4.175-2.875 7.175T754-196H586Zm-370 0q-8.25 0-14.125-5.875T196-216h20v20Zm-20-548q0-8.25 5.875-14.125T216-764v20h-20Z"/></svg>