<svg xmlns="http://www.w3.org/2000/svg" height="20" viewBox="0 -960 960 960" width="20"><path d="M480.227-477.13q-16.423 0-27.76-11.11-11.337-11.11-11.337-27.533 0-16.423 11.11-27.76 11.11-11.337 27.533-11.337 16.423 0 27.76 11.11 11.337 11.11 11.337 27.533 0 16.423-11.11 27.76-11.11 11.337-27.533 11.337Zm0-156q-16.423 0-27.76-11.11-11.337-11.11-11.337-27.533 0-16.423 11.11-27.76 11.11-11.337 27.533-11.337 16.423 0 27.76 11.11 11.337 11.11 11.337 27.533 0 16.423-11.11 27.76-11.11 11.337-27.533 11.337Zm0-156q-16.423 0-27.76-11.11-11.337-11.11-11.337-27.533 0-16.423 11.11-27.76 11.11-11.337 27.533-11.337 16.423 0 27.76 11.11 11.337 11.11 11.337 27.533 0 16.423-11.11 27.76-11.11 11.337-27.533 11.337Zm108 384q-16.423 0-27.76-11.11-11.337-11.11-11.337-27.533 0-16.423 11.11-27.76 11.11-11.337 27.533-11.337 16.423 0 27.76 11.11 11.337 11.11 11.337 27.533 0 16.423-11.11 27.76-11.11 11.337-27.533 11.337Zm120-108q-16.423 0-27.76-11.11-11.337-11.11-11.337-27.533 0-16.423 11.11-27.76 11.11-11.337 27.533-11.337 16.423 0 27.76 11.11 11.337 11.11 11.337 27.533 0 16.423-11.11 27.76-11.11 11.337-27.533 11.337Zm120-108q-16.423 0-27.76-11.11-11.337-11.11-11.337-27.533 0-16.423 11.11-27.76 11.11-11.337 27.533-11.337 16.423 0 27.76 11.11 11.337 11.11 11.337 27.533 0 16.423-11.11 27.76-11.11 11.337-27.533 11.337Zm-456 216q-16.423 0-27.76-11.11-11.337-11.11-11.337-27.533 0-16.423 11.11-27.76 11.11-11.337 27.533-11.337 16.423 0 27.76 11.11 11.337 11.11 11.337 27.533 0 16.423-11.11 27.76-11.11 11.337-27.533 11.337Zm-120-108q-16.423 0-27.76-11.11-11.337-11.11-11.337-27.533 0-16.423 11.11-27.76 11.11-11.337 27.533-11.337 16.423 0 27.76 11.11 11.337 11.11 11.337 27.533 0 16.423-11.11 27.76-11.11 11.337-27.533 11.337Zm-120-108q-16.423 0-27.76-11.11-11.337-11.11-11.337-27.533 0-16.423 11.11-27.76 11.11-11.337 27.533-11.337 16.423 0 27.76 11.11 11.337 11.11 11.337 27.533 0 16.423-11.11 27.76-11.11 11.337-27.533 11.337ZM438.5-86.913v-144h-156v-83h395v83h-156v144h-83Z"/></svg>