<svg xmlns="http://www.w3.org/2000/svg" height="20" viewBox="0 -960 960 960" width="20"><path d="M480.211-489.231q-10.596 0-18.788-7.982-8.192-7.981-8.192-18.576 0-10.596 7.982-18.788 7.981-8.192 18.576-8.192 10.596 0 18.788 7.982 8.192 7.981 8.192 18.576 0 10.596-7.982 18.788-7.981 8.192-18.576 8.192Zm0-156q-10.596 0-18.788-7.982-8.192-7.981-8.192-18.576 0-10.596 7.982-18.788 7.981-8.192 18.576-8.192 10.596 0 18.788 7.982 8.192 7.981 8.192 18.576 0 10.596-7.982 18.788-7.981 8.192-18.576 8.192Zm0-156q-10.596 0-18.788-7.982-8.192-7.981-8.192-18.576 0-10.596 7.982-18.788 7.981-8.192 18.576-8.192 10.596 0 18.788 7.982 8.192 7.981 8.192 18.576 0 10.596-7.982 18.788-7.981 8.192-18.576 8.192Zm108 384q-10.596 0-18.788-7.982-8.192-7.981-8.192-18.576 0-10.596 7.982-18.788 7.981-8.192 18.576-8.192 10.596 0 18.788 7.982 8.192 7.981 8.192 18.576 0 10.596-7.982 18.788-7.981 8.192-18.576 8.192Zm120-108q-10.596 0-18.788-7.982-8.192-7.981-8.192-18.576 0-10.596 7.982-18.788 7.981-8.192 18.576-8.192 10.596 0 18.788 7.982 8.192 7.981 8.192 18.576 0 10.596-7.982 18.788-7.981 8.192-18.576 8.192Zm120-108q-10.596 0-18.788-7.982-8.192-7.981-8.192-18.576 0-10.596 7.982-18.788 7.981-8.192 18.576-8.192 10.596 0 18.788 7.982 8.192 7.981 8.192 18.576 0 10.596-7.982 18.788-7.981 8.192-18.576 8.192Zm-456 216q-10.596 0-18.788-7.982-8.192-7.981-8.192-18.576 0-10.596 7.982-18.788 7.981-8.192 18.576-8.192 10.596 0 18.788 7.982 8.192 7.981 8.192 18.576 0 10.596-7.982 18.788-7.981 8.192-18.576 8.192Zm-120-108q-10.596 0-18.788-7.982-8.192-7.981-8.192-18.576 0-10.596 7.982-18.788 7.981-8.192 18.576-8.192 10.596 0 18.788 7.982 8.192 7.981 8.192 18.576 0 10.596-7.982 18.788-7.981 8.192-18.576 8.192Zm-120-108q-10.596 0-18.788-7.982-8.192-7.981-8.192-18.576 0-10.596 7.982-18.788 7.981-8.192 18.576-8.192 10.596 0 18.788 7.982 8.192 7.981 8.192 18.576 0 10.596-7.982 18.788-7.981 8.192-18.576 8.192ZM464-116v-144H308v-32h344v32H496v144h-32Z"/></svg>