<svg xmlns="http://www.w3.org/2000/svg" height="24" viewBox="0 -960 960 960" width="24"><path d="M480-484.616q-14.692 0-25.038-10.346T444.616-520q0-14.692 10.346-25.038T480-555.384q14.692 0 25.038 10.346T515.384-520q0 14.692-10.346 25.038T480-484.616Zm0-160q-14.692 0-25.038-10.346T444.616-680q0-14.692 10.346-25.038T480-715.384q14.692 0 25.038 10.346T515.384-680q0 14.692-10.346 25.038T480-644.616Zm0-160q-14.692 0-25.038-10.346T444.616-840q0-14.692 10.346-25.038T480-875.384q14.692 0 25.038 10.346T515.384-840q0 14.692-10.346 25.038T480-804.616Zm120 400q-14.692 0-25.038-10.346T564.616-440q0-14.692 10.346-25.038T600-475.384q14.692 0 25.038 10.346T635.384-440q0 14.692-10.346 25.038T600-404.616Zm113-114q-14.692 0-25.038-10.346T677.616-554q0-14.692 10.346-25.038T713-589.384q14.692 0 25.038 10.346T748.384-554q0 14.692-10.346 25.038T713-518.616Zm113-112q-14.692 0-25.038-10.346T790.616-666q0-14.692 10.346-25.038T826-701.384q14.692 0 25.038 10.346T861.384-666q0 14.692-10.346 25.038T826-630.616Zm-466 226q-14.692 0-25.038-10.346T324.616-440q0-14.692 10.346-25.038T360-475.384q14.692 0 25.038 10.346T395.384-440q0 14.692-10.346 25.038T360-404.616Zm-113-114q-14.692 0-25.038-10.346T211.616-554q0-14.692 10.346-25.038T247-589.384q14.692 0 25.038 10.346T282.384-554q0 14.692-10.346 25.038T247-518.616Zm-113-112q-14.692 0-25.038-10.346T98.616-666q0-14.692 10.346-25.038T134-701.384q14.692 0 25.038 10.346T169.384-666q0 14.692-10.346 25.038T134-630.616ZM450.001-90.001v-160h-160v-59.998h379.998v59.998h-160v160h-59.998Z"/></svg>