<svg xmlns="http://www.w3.org/2000/svg" height="24" viewBox="0 -960 960 960" width="24"><path d="M634.385-200q-7.77 0-13.385-5.731-5.615-5.73-5.615-14.269 0-7.769 5.73-13.885 5.731-6.115 14.27-6.115h209.231q7.769 0 13.884 6.115 6.116 6.116 6.116 13.885 0 8.539-6.116 14.269Q852.385-200 844.616-200H634.385ZM379-840q-7.769 0-13.385-5.731Q360-851.462 360-860q0-7.769 5.731-13.885Q371.462-880 380-880h200q7.769 0 13.885 6.115Q600-867.769 600-860q0 8.538-6.115 14.269Q587.769-840 580-840H379Zm186.231 466.769-7.692-12.923q-5.231-8.461-13.924-8.461-8.692 0-13.923 8.461l-95.615 167.462q-4.231 7.692-.769 15.153 3.461 7.462 12.154 9.462 16.307 2.769 31.615 3.308 15.308.538 32.154-1.462-1.539-6.923-1.539-14.231v-14.23q.231-44.539 15.5-83.039 15.27-38.5 42.039-69.5Zm22.846-22.846q28.615-24.615 64.654-39 36.038-14.384 76.5-16.538L728-465.846q-1-5.692-5.346-9.923T711.846-480H567.077q-9.462 0-14.423 8.077-4.962 8.077.269 16.538l35.154 59.308ZM480-120q-66.539 0-124.731-25.038-58.192-25.039-101.808-68.654-43.615-43.616-68.538-101.808Q160-373.692 160-440q0-66.308 25.038-124.5 25.039-58.192 68.654-101.808 43.616-43.615 101.808-68.654Q413.692-760 480-760q63 0 114.615 21 51.616 21 97.077 59l39.231-39.231q5.616-5.615 13.654-6.115 8.039-.5 14.654 6.115 6.385 6.385 6.5 14.039.115 7.653-6.269 14.269l-39 39.231q36.461 45.153 57.461 95.269 21 50.115 22.077 111.731-8.615-2.693-18.961-4.385-10.347-1.692-21.039-2.461-4.615-112.923-85.462-190.693Q593.692-720 480-720q-117 0-198.5 81.5T200-440q0 117 81.5 198.5T480-160q8.692 0 17.538-.5 8.847-.5 17.539-1.731 2.231 10 5.269 19.5 3.039 9.5 7.654 19.039-12.385 2.231-24 2.961-11.615.731-24 .731Zm21.923-390.769h194.308q8.692 0 13.038-6.577t1.885-14.808q-17.231-46.231-50.923-81.115-33.693-34.885-78.693-54.962-5.461-2.23-11.307-.115-5.846 2.115-9.077 7.577l-73.385 125.384q-5.23 8.462-.269 16.539 4.962 8.077 14.423 8.077Zm-73.154 16.154L526.923-662q4.231-7.231.885-14.692-3.347-7.462-11.808-9.462-48.462-7.615-95.769 4-47.308 11.616-86.923 40.769-5.231 4.231-6.346 9.693-1.116 5.461 2.115 10.923l71.846 126.154q5.231 8.461 13.923 8.461t13.923-8.461ZM391.385-400q9.461 0 14.423-7.692 4.961-7.693-.27-16.154l-95.076-167.385q-4.231-7.461-12.693-7.961-8.461-.5-13.692 5.961-29.923 36.846-43.115 84.5-13.193 47.654-8.193 94.577 1 6.462 4.962 10.308Q241.692-400 248.154-400h143.231Zm79.307 54.615q5.231-8.461.269-16.153-4.961-7.693-14.423-7.693H263.539q-8.462 0-12.808 6.577t-1.885 14.808q16.462 44.461 51.693 80.115 35.23 35.654 77.923 54.962 5.461 2.23 11.307.23t9.077-7.461l71.846-125.385Z"/></svg>