<svg xmlns="http://www.w3.org/2000/svg" height="24" viewBox="0 -960 960 960" width="24"><path d="M309.826-60.782q-22.088 0-37.544-15.456-15.457-15.457-15.457-37.544v-652.436q0-22.087 15.457-37.544 15.456-15.456 37.544-15.456h77.173v-27q0-22.087 15.457-37.544 15.457-15.456 37.544-15.456h80q22.087 0 37.544 15.456 15.457 15.457 15.457 37.544v27h77.173q22.088 0 37.544 15.456 15.457 15.457 15.457 37.544v293.869q-94.262 13.652-156.98 85.783-62.718 72.131-62.718 168.696 0 43.088 13.827 83.175 13.826 40.087 39.783 73.913H309.826Zm431.304-82.434-46.956 46.52q-14.956 14.958-36.544 14.892-21.587-.065-37.543-15.456-15.522-14.957-15.522-37.044 0-22.087 15.522-37.609l46.39-46.391-46.956-46.956q-15.522-15.522-15.239-37.327.283-21.804 15.805-37.326 15.522-15.522 37.326-15.522 21.805 0 37.327 15.522l46.39 46.956 46.957-46.956q14.956-14.957 36.826-15.175 21.87-.217 37.827 15.74 14.956 14.957 14.956 37.044 0 22.087-14.956 37.044l-46.522 46.956 46.522 46.956q14.956 14.957 15.174 36.544.217 21.587-15.74 37.544-14.956 14.956-37.044 15.239-22.087.283-37.043-14.674l-46.957-46.521Z"/></svg>