<svg xmlns="http://www.w3.org/2000/svg" height="20" viewBox="0 -960 960 960" width="20"><path d="M325.826-76.782q-25.088 0-43.044-17.956-17.957-17.957-17.957-43.044v-612.436q0-25.087 17.957-43.044 17.956-17.956 43.044-17.956h69.173v-11q0-25.087 17.957-43.044 17.957-17.956 43.044-17.956h48q25.087 0 43.044 17.956 17.957 17.957 17.957 43.044v11h69.173q25.088 0 43.044 17.956 17.957 17.957 17.957 43.044v261.869q-27.348 6.304-51.848 17.37-24.501 11.065-46.153 27.891v-270.129H362.826v538.434h168.956q11.565 28.348 28.391 53.131t39.914 44.87H325.826Zm37-98.001Zm382.304-18.433-34.956 35.521q-14.956 14.957-34.044 13.891-19.087-1.065-34.043-15.456-15.522-14.957-15.522-34.544 0-19.587 15.522-35.109l33.39-33.391-34.956-34.956q-15.522-15.522-14.739-34.827.783-19.304 16.305-34.826 15.522-15.522 34.826-15.522 19.305 0 34.827 15.522l33.39 34.956 34.957-34.956q14.956-14.957 34.826-14.675 19.87.283 34.827 15.24 14.956 14.957 14.956 34.544 0 19.587-14.956 34.544l-35.522 34.956 35.522 34.956q14.956 14.957 14.674 34.044-.283 19.087-15.24 34.044-14.956 14.956-34.544 15.239-19.587.283-34.543-14.674l-34.957-34.521Z"/></svg>