<svg xmlns="http://www.w3.org/2000/svg" height="20" viewBox="0 -960 960 960" width="20"><path d="M600.113-733Q571-733 550-753.887q-21-20.888-21-50Q529-833 549.887-854q20.888-21 50-21Q629-875 650-854.113q21 20.888 21 50Q671-775 650.113-754q-20.888 21-50 21Zm0 648Q571-85 550-105.887q-21-20.888-21-50Q529-185 549.887-206q20.888-21 50-21Q629-227 650-206.113q21 20.888 21 50Q671-127 650.113-106q-20.888 21-50 21Zm168-504Q739-589 718-609.887q-21-20.888-21-50Q697-689 717.887-710q20.888-21 50-21Q797-731 818-710.113q21 20.888 21 50Q839-631 818.113-610q-20.888 21-50 21Zm0 360Q739-229 718-249.887q-21-20.888-21-50Q697-329 717.887-350q20.888-21 50-21Q797-371 818-350.113q21 20.888 21 50Q839-271 818.113-250q-20.888 21-50 21Zm48-180Q787-409 766-429.887q-21-20.888-21-50Q745-509 765.887-530q20.888-21 50-21Q845-551 866-530.113q21 20.888 21 50Q887-451 866.113-430q-20.888 21-50 21ZM480-76q-83.526 0-156.988-31.575T194.35-194.35q-55.2-55.2-86.775-128.808Q76-396.767 76-480.458q0-83.692 31.575-156.842 31.575-73.15 86.775-128.35 55.2-55.2 128.662-86.775Q396.474-884 480-884v118q-118 0-202 84t-84 202q0 118 84 202t202 84v118Zm-.212-309Q440-385 412.5-412.65T385-480q0-3.095-.333-5.5-.334-2.405.333-5.5l-82-82 84-83 81.632 81Q475-577 480-575q39.7 0 67.35 27.712 27.65 27.713 27.65 67.5Q575-440 547.288-412.5q-27.713 27.5-67.5 27.5Z"/></svg>