<svg xmlns="http://www.w3.org/2000/svg" height="24" viewBox="0 -960 960 960" width="24"><path d="M349.826-40.998q-38.088 0-65.544-27.457-27.457-27.456-27.457-65.544v-53h446.35v53q0 38.088-27.174 65.544-27.174 27.457-65.827 27.457H349.826Zm-93.001-186.001v-226.002h446.35v226.002h-446.35Zm2.304-266.002q12.261-55.044 45.957-98.652 33.696-43.609 83.826-66.001-8.869-8-17.152-18.348-8.283-10.348-13.717-21.348l-130.131-27q-15.957-3.13-23.652-14.456-7.696-11.327-7.696-24.718t7.696-24.435q7.695-11.044 23.652-14.174l135.783-28.131q17.261-29.565 48.435-47.913 31.174-18.348 67.87-18.348 21.565 0 41.978 6.718 20.413 6.717 36.544 18.152l81.957-15.435q24.652-4.565 43.674 11.392 19.022 15.956 19.022 40.609v143.696q0 24.652-19.022 40.609-19.022 15.956-43.674 11.391l-60.347-11.478h.282-.282q49.826 20.131 80.63 62.87 30.805 42.739 40.109 95H259.129ZM480-719.002q17 0 28.5-11.5t11.5-28.5q-.435-17.435-11.717-28.717Q497-799.002 480-799.002t-28.5 11.5q-11.5 11.5-11.5 28.5t11.5 28.5q11.5 11.5 28.5 11.5Z"/></svg>