<svg xmlns="http://www.w3.org/2000/svg" height="20" viewBox="0 -960 960 960" width="20"><path d="M349.826-56.998q-34.788 0-59.894-25.107-25.107-25.106-25.107-59.894v-37h430.35v37q0 34.788-24.824 59.894-24.824 25.107-60.177 25.107H349.826Zm-85.001-170.001v-218.002h430.35v218.002h-430.35Zm4.304-266.002q13.261-58.044 50.957-97.152 37.696-39.109 85.826-57.501-8.1-5.629-15.767-13.163-7.668-7.533-16.102-19.533l-136.131-29q-14.957-3.13-21.652-13.537-6.696-10.408-6.696-22.718t6.696-22.354q6.695-10.044 21.652-13.174l133.783-28.131q16.404-28.206 46.007-45.733 29.602-17.528 62.298-17.528 20.142 0 39.266 6.718 19.125 6.717 35.256 18.152l81.957-16.435q23.069-4.565 40.882 10.366 17.814 14.931 17.814 37.635v141.696q0 22.703-17.511 37.634-17.512 14.931-40.185 10.366l-74.347-14.478h.782-.782q49.826 15.131 84.13 55.87 34.305 40.739 43.609 92H269.129Zm210.66-218.001q15.211 0 25.711-10.35 10.5-10.35 10.5-25.65-.435-14.435-10.539-25.217-10.104-10.783-25.282-10.783-15.179 0-25.679 10.289-10.5 10.29-10.5 25.5 0 15.211 10.289 25.711 10.29 10.5 25.5 10.5Z"/></svg>