<svg xmlns="http://www.w3.org/2000/svg" height="20" viewBox="0 -960 960 960" width="20"><path d="M342-27q-38.7 0-66.85-28.15Q247-83.3 247-122v-47h466v47q0 38.7-27.65 66.85Q657.7-27 618-27H342Zm-95-190v-238h466v238H247Zm3-286q15-65 54-106.5t88-62.5q-7.231-5.63-15.115-13.815Q369-694 361-706l-137-29q-18-4-26-16.581t-8-27.5Q190-794 198-806t26-16l139-29q18.143-28.641 50.571-46.82Q446-916 480-916q20.576 0 40.788 6.5Q541-903 558-892l85-16q27.417-5 48.708 12.974Q713-877.051 713-850v143q0 27.051-20.99 45.026Q671.021-644 644-649l-60-11h1-1q52 16 85 60t41 97H250Zm229.789-238Q495-741 505.5-751.35 516-761.7 516-777q0-14-10.321-25-10.322-11-25.5-11Q465-813 454.5-802.711q-10.5 10.29-10.5 25.5Q444-762 454.289-751.5q10.29 10.5 25.5 10.5Z"/></svg>