<svg xmlns="http://www.w3.org/2000/svg" height="24" viewBox="0 -960 960 960" width="24"><path d="M353.846-160q-35.692 0-62.731-22.384-27.038-22.385-33.884-57.616h-43.385q-41.538 0-70.769-29.231-29.231-29.23-29.231-70.769v-135.385q0-26.846 18.885-45.73Q151.615-540 178.461-540h153.847v-120H133.846q-8.538 0-14.269-5.731T113.846-680q0-8.539 5.731-14.27 5.731-5.73 14.269-5.73h435.385q27.615 0 46.115 18.5 18.5 18.5 18.5 46.115V-280h175.231l-49.385-49.384q-5.846-5.847-6.115-13.77-.269-7.923 6.115-14.538 6.616-6.616 14.27-6.731 7.653-.115 14.269 6.5l75.308 75.308q9.692 9.692 9.692 22.615 0 12.923-9.692 22.616L788-161.846q-5.615 5.615-13.769 6-8.154.385-14.539-6-6.384-6.385-6.384-14.154t6.384-14.154L809.538-240H450.462q-5.847 35.231-33.385 57.616Q389.539-160 353.846-160Zm21.539-380h218.461v-95.385q0-9.231-7.692-16.923Q578.462-660 569.231-660H375.385v120Zm-21.539 340q24.692 0 42.346-17.654 17.654-17.654 17.654-42.346 0-24.692-17.654-42.346Q378.538-320 353.846-320q-24.692 0-42.346 17.654-17.654 17.654-17.654 42.346 0 24.692 17.654 42.346Q329.154-200 353.846-200Z"/></svg>