<svg xmlns="http://www.w3.org/2000/svg" height="24" viewBox="0 -960 960 960" width="24"><path d="M347.986-89Q302-89 264.5-116 227-143 210-185h-25q-62.917 0-106.958-43.75Q34-272.5 34-335v-108q0-53 36.5-89.5T160-569h117v-99H89q-23.375 0-39.188-15.812Q34-699.625 34-723t15.813-39.188Q65.624-778 89-778h456q53 0 89.5 36.5T671-652v357h84l-5-6q-16-16-16-38t16-39q16-17 39-16.5t39 16.5l93 93q19 19.364 19 45.182T921-195l-93 93q-16 16-39 16.5t-39-16Q734-118 734.5-141t16.5-39l5-5H486q-17 43-54.514 69.5-37.515 26.5-83.5 26.5ZM388-569h172v-99H388v99Zm-40 369q17 0 28.5-11.5T388-240q0-17-11.5-28.5T348-280q-17 0-28.5 11.5T308-240q0 17 11.5 28.5T348-200Z"/></svg>