<svg xmlns="http://www.w3.org/2000/svg" height="20" viewBox="0 -960 960 960" width="20"><path d="M354.194-184q-34.04 0-60.079-19.384-26.038-19.385-34.884-52.616h-53.385q-31.538 0-53.769-22.231-22.231-22.23-22.231-53.769v-119.385q0-23.546 16.535-40.08Q162.915-508 186.461-508h137.847v-120H146.123q-6.815 0-11.546-4.52-4.731-4.521-4.731-11.27t4.581-11.48q4.581-4.73 11.419-4.73h375.385q24.315 0 40.465 16.15 16.15 16.15 16.15 40.465V-288h191.231l-43.385-43.384q-4.846-4.847-5.615-11.27-.769-6.423 5.137-12.038 6.094-5.616 11.748-5.231 5.653.385 11.269 6l62.308 62.308q8.692 8.328 8.692 19.433t-8.692 19.798L749-190.846q-5.615 5.615-10.769 5.5-5.154-.115-11.539-6.5-6.384-6.385-6.384-11.654t6.384-11.654L767.538-256H448.462q-7.847 34.231-34.037 53.116Q388.234-184 354.194-184Zm5.191-324h186.461v-95.385q0-9.231-7.692-16.923Q530.462-628 521.231-628H359.385v120Zm-5.539 292q28.092 0 48.046-19.954T421.846-284q0-28.092-19.954-48.046T353.846-352q-28.092 0-48.046 19.954T285.846-284q0 28.092 19.954 48.046T353.846-216Zm-102.615-72q2.846-42.231 31.884-69.115Q312.154-384 354.346-384q42.193 0 71.231 26.885 29.038 26.884 30.885 69.115h89.384v-188H186.461q-10.769 0-17.692 6.923t-6.923 17.692V-332q0 17.892 13.054 30.946Q187.954-288 205.846-288h45.385Zm0-188h-89.385 384-294.615Z"/></svg>