<svg xmlns="http://www.w3.org/2000/svg" height="24" viewBox="0 -960 960 960" width="24"><path d="M866.001-431.521h-89.044q-20.391 0-34.435-14.044-14.043-14.044-14.043-34.435 0-20.391 14.043-34.435 14.044-14.044 34.435-14.044h89.044q20.392 0 34.435 14.044Q914.48-500.391 914.48-480q0 20.391-14.044 34.435-14.043 14.044-34.435 14.044ZM674.74-293.087q12.261-16.261 31.935-19.109 19.674-2.848 35.935 9.413l70.783 53.087q16.261 12.261 19.109 31.935 2.848 19.674-9.413 35.935-12.261 16.827-31.936 19.675-19.674 2.847-36.5-9.414l-70.783-53.652q-16.261-12.261-18.826-31.935-2.565-19.674 9.696-35.935Zm138.653-417.217-70.783 53.087q-16.261 12.261-35.935 9.413-19.674-2.848-31.935-19.109-12.261-16.261-9.979-35.935 2.283-19.674 19.109-31.935l71.348-53.652q16.827-12.261 36.218-9.414 19.392 2.848 31.653 19.675 12.261 16.261 9.413 35.935-2.848 19.674-19.109 31.935ZM165.52-340.782h-23.043q-41.478-3.391-69.218-33.957-27.739-30.565-27.739-72.044v-66.434q0-43.74 31.13-74.871 31.132-31.13 74.871-31.13h147.565l144.087-86.827q26.783-15.956 53.501-.565 26.717 15.392 26.717 46.305v360.61q0 30.913-26.717 46.305-26.718 15.391-53.501-.565l-144.087-86.827h-24.173v105.304q0 22.652-16.022 38.674t-38.675 16.022q-22.652 0-38.674-16.022t-16.022-38.674v-105.304Zm397.871 14v-306.436q35.479 26.261 56.501 66.413 21.022 40.153 21.022 86.805 0 46.652-21.022 86.805-21.022 40.152-56.501 66.413Z"/></svg>