<svg xmlns="http://www.w3.org/2000/svg" height="20" viewBox="0 -960 960 960" width="20"><path d="M814.242-464h-81.056q-6.801 0-11.532-4.52t-4.731-11.269q0-6.75 4.556-11.48Q726.034-496 732.836-496h81.055q6.801 0 11.532 4.52t4.731 11.269q0 6.75-4.556 11.48Q821.043-464 814.242-464ZM669.385-286.923q4.384-5.077 10.807-6.808 6.423-1.731 11.5 1.654l66 45.936q6 3.833 7.731 11.256 1.731 7.424-2.654 12.501-4.384 5.077-10.807 6.807-6.424 1.731-11.501-1.654l-65.999-45.936q-6.001-3.833-7.731-11.256-1.731-7.423 2.654-12.5Zm85.154-431.462L687.616-671q-5.077 3.385-12.001 1.154-6.923-2.231-10.307-7.308-3.385-5.077-1.654-12 1.731-6.923 6.808-10.308l66.923-46.384q5.077-3.385 12-1.654 6.923 1.731 10.307 6.808 3.385 5.077 1.654 12-1.73 6.923-6.807 10.307ZM212-417.846h-25.539q-23.546 0-40.08-16.535-16.535-16.534-16.535-40.08v-11.078q0-23.546 16.535-40.08 16.534-16.535 40.08-16.535h128.231l137.77-79.769q14.154-8.693 27.923-1.385 13.769 7.308 13.769 23.692v238.232q0 16.384-14.269 23.692t-28.423-1.385l-130.77-78.769H268v155.957q0 11.889-8.031 20.12-8.03 8.231-19.969 8.231-11.939 0-19.969-8.031Q212-249.6 212-261.538v-156.308Zm250.154 47.615-1-221.538-137.231 81.615H186.461q-9.23 0-16.923 7.692-7.692 7.693-7.692 16.923v11.078q0 9.23 7.692 16.923 7.693 7.692 16.923 7.692h144.462l131.231 79.615Zm110.769-11.23v-197.078q16.077 16.616 24.346 43.385 8.27 26.769 8.27 55.154 0 28.385-8.27 55.154-8.269 26.769-24.346 43.385ZM312-481Z"/></svg>