<svg xmlns="http://www.w3.org/2000/svg" height="20" viewBox="0 -960 960 960" width="20"><path d="M270.5-76.782q-41.022 0-69.37-28.498-28.348-28.498-28.348-69.503v-610.434q0-41.005 28.498-69.503 28.498-28.498 69.503-28.498h272.391q19.087 0 37.392 6.978 18.304 6.978 32.261 21.935l145.478 145.478q14.957 13.957 21.935 32.261 6.978 18.305 6.978 37.392v464.391q0 41.005-28.51 69.503-28.51 28.498-69.531 28.498H270.5Zm250.717-589.436q0 20.387 14.307 34.694 14.307 14.307 34.694 14.307h118.999l-168-168v118.999ZM432-187.478q41.696 0 71.109-29.131 29.413-29.13 29.413-70.261v-153.609h72q20.4 0 34.2-13.8 13.8-13.8 13.8-34.2 0-20.4-13.8-34.2-13.8-13.8-34.2-13.8h-72q-20.4 0-34.2 13.8-13.8 13.8-13.8 34.2v115.218q-11.565-6.565-24.478-10.913-12.914-4.348-28.044-4.348-41.696 0-71.109 29.413-29.413 29.413-29.413 71.109t29.413 71.109q29.413 29.413 71.109 29.413Z"/></svg>