<svg xmlns="http://www.w3.org/2000/svg" height="20" viewBox="0 -960 960 960" width="20"><path d="m449-148-21-98q-31-9-66-28.5T302-318l-94 31-31-55 73-66q-3-17-5.5-35.5T242-479q0-16 2.5-34.5T250-553l-73-66 31-53 93 31q28-25 60.5-44t65.5-29l22-98h62l21 99q36 12 65 29t58 43l97-30 31 53-77 69q5 19 6.5 36t1.5 33q0 15-2 32t-5 39l75 67-31 55-96-32q-29 26-59 44t-64 28l-21 99h-62Zm13-20h35l20-99q44-17 67-30t62-45l94 33 18-30-75-66q4-27 5.5-43.5T690-480q0-16-2-31.5t-6-41.5l78-68-19-30-96 32q-30-25-60.5-43T516-693l-18-99h-37l-17 98q-44 15-68.5 28.5T312-619l-93-32-19 30 75 66q-4 21-6 40t-2 36q0 16 2 34t5 40l-74 66 19 30 92-31q37 30 62 44t70 30l19 98Zm18-221q3 0 6.5-3.5t3.5-6.5q0-4-3-7t-7-3q-4 0-7 3t-3 7q0 3 3.5 6.5t6.5 3.5Zm-10-43h20v-166h-20v166Zm10-48Z"/></svg>