<svg xmlns="http://www.w3.org/2000/svg" height="20" viewBox="0 -960 960 960" width="20"><path d="M56-46v-868h517v868H56Zm108-498q15-7 32.097-11.5T232-560h165q18.806 0 35.903 4.5Q450-551 465-544v-262H164v262Zm150.788-62Q283-606 261.5-627.712q-21.5-21.713-21.5-53.5Q240-713 261.712-734.5q21.713-21.5 53.5-21.5Q347-756 368.5-734.288q21.5 21.713 21.5 53.5Q390-649 368.288-627.5q-21.713 21.5-53.5 21.5ZM773-271l-77-76 50-49H621v-108h125l-50-49 77-76 179 179-179 179ZM164-154h301v-230q0-28.05-19.975-48.025Q425.05-452 397-452H232q-28.05 0-48.025 19.975Q164-412.05 164-384v230Zm100-48h98v-52h52v-98h-52v-52h-98v52h-52v98h52v52Zm-100 48h301-301Z"/></svg>