<svg xmlns="http://www.w3.org/2000/svg" height="20" viewBox="0 -960 960 960" width="20"><path d="M120.617-116.001v-727.998h439.997v727.998H120.617Zm51.999-385.613q16.846-14.307 38.328-22.346 21.483-8.039 45.672-8.039h168q24.188 0 45.671 8.039t38.329 22.346V-792h-336v290.386ZM340.403-598q-25.941 0-43.864-18.135-17.923-18.136-17.923-44.077t18.136-43.864q18.135-17.923 44.076-17.923t43.864 18.136q17.923 18.135 17.923 44.076t-18.135 43.864Q366.345-598 340.403-598Zm417.596 247.768L720.846-387l67.386-67.001H624v-51.998h164.232L720.846-573l37.153-36.768L887.767-480 757.999-350.232ZM314.616-226.001h51.999v-72h72v-51.998h-72v-72h-51.999v72h-72v51.998h72v72Z"/></svg>