<svg xmlns="http://www.w3.org/2000/svg" height="20" viewBox="0 -960 960 960" width="20"><path d="M73.39-67.738v-824.524h500.914v824.524H73.39Zm92.349-468.871q16.304-9.174 35.224-14.543 18.92-5.37 39.732-5.37h166.304q20.812 0 39.732 5.37 18.92 5.369 35.224 14.543v-263.304H165.739v263.304Zm158.178-65.913q-30.918 0-52.2-21.495-21.283-21.495-21.283-52.413 0-30.918 21.495-52.201 21.495-21.282 52.413-21.282 30.918 0 52.201 21.495t21.283 52.413q0 30.918-21.495 52.2-21.495 21.283-52.414 21.283Zm446.909 303.263L705.13-364.39l53.043-52.478H622.304v-92.349h135.869l-53.043-52.478 65.696-65.131L934.61-463.043 770.826-299.259ZM165.739-160.087h316.216v-229.13q0-30.919-22.018-52.938-22.018-22.018-52.938-22.018H240.695q-30.919 0-52.938 22.018-22.018 22.019-22.018 52.938v229.13Zm113.912-48h86.697v-60.695h60.695v-86.696h-60.695v-60.695h-86.697v60.695h-60.695v86.696h60.695v60.695Zm-113.912 48h316.216-316.216Z"/></svg>