<svg xmlns="http://www.w3.org/2000/svg" height="20" viewBox="0 -960 960 960" width="20"><path d="M206.178-169.955q-32.818 0-55.977-23.355-23.158-23.355-23.158-56.15v-36.079q0-32.796 23.371-55.954 23.37-23.159 56.189-23.159t55.977 23.355q23.159 23.354 23.159 56.15v36.079q0 32.796-23.371 55.954-23.371 23.159-56.19 23.159ZM830-184.652h-52.877q-12.249 0-19.099-10.043-6.85-10.044-3.72-20.87l11-41.046q2.566-9.476 10.392-14.107 7.826-4.63 17.087-3.63l43.583 7.2q15.591 2.93 25.286 14.097 9.696 11.166 9.696 26.533 0 17.562-11.969 29.714Q847.41-184.652 830-184.652Zm-143.609-15.391L594-229.956q-11.391-2.565-15.522-12.892-4.13-10.326 0-21.152l29.131-62.696q4.13-11.391 14.456-13.674 10.326-2.282 19.818 3.758l76.595 44.133q6.464 3.858 9.645 11.291 3.181 7.433 1.181 15.492l-12 47.566q-2.565 11.391-11.326 16.021-8.761 4.631-19.587 2.066Zm-169.344-64.656-64.786-16.953q-9.696-2.565-16.674-11.126T428.609-312v-42q0-21.045 7.63-38.718 7.631-17.673 22.761-30.804 6.696-6.13 15.957-5.63 9.261.5 17.956 4.63l74.398 41.579q8.298 4.464 11.08 12.943 2.783 8.478-1.348 17.739l-31.881 73.347q-3.638 8.479-11.204 12.392-7.567 3.913-16.911 1.823ZM346-292.652q-11.261 0-20.392-7.092-9.13-7.093-10.956-18.126-8.565-34.608-36.592-58.695-28.026-24.087-62.484-24.087H198q-11.391 0-18.37-6.978-6.978-6.979-6.978-18.37 0-11.391 6.978-18.37 6.979-6.978 18.188-6.978H233q16.87 0 33.304-4.5 16.435-4.5 30.305-13.37 6.695-5.13 16.239-5.13 9.543 0 16.239 5.13 15.615 10.292 26.873 14.081 11.259 3.789 29.3 3.789 14.301 0 20.542 12.326 6.241 12.326 1.241 26.848-6.869 16-10.652 29.577-3.782 13.578-3.782 29.597v35.565q0 10.713-6.696 17.748-6.696 7.035-17.522 7.035H346ZM225.087-487.348q-40.15 0-68.249-28.429-28.1-28.429-28.1-69.05 0-20.552 7.066-40.023 7.065-19.47 21.195-33.586l43.739-43.029v-73.883h86.697v91.999q0 8.596-3.592 16.387-3.591 7.79-9.669 13.7l-54.267 53.519q-2.128 2.059-3.583 5.591-1.454 3.532-1.454 7.064 0 4.905 3.337 8.409 3.338 3.504 8.01 3.504 3.043 0 12.913-5.609 15.347-12.005 32.434-20.133 17.088-8.128 41.563-8.128t40.539 8.128q16.063 8.128 31.074 20.133 2.869 2.435 5.626 4.022 2.756 1.587 6.202 1.587 4.823 0 8.128-3.504 3.304-3.504 3.304-8.409 0-3.411-1.424-6.822-1.425-3.41-3.324-5.684l-53.426-53.668q-6.737-6.606-10.564-13.927t-3.827-16.16v-91.999h86.696v73.883l43.739 43.029q14.131 14.273 21.196 33.811 7.065 19.537 7.065 39.889 0 41.164-28.029 69.276-28.029 28.112-68.073 28.112-19.301 0-36.54-7.485-17.239-7.484-32.228-19.411-4.565-3.365-8.696-6.083-4.13-2.717-9.13-2.717-5.305 0-18.826 9-15.131 12.131-32.251 19.396-17.12 7.264-35.271 7.3Zm86.348-288Z"/></svg>