<svg xmlns="http://www.w3.org/2000/svg" height="20" viewBox="0 -960 960 960" width="20"><path d="M206.178-169.955q-32.613 0-55.874-23.457-23.261-23.458-23.261-56.048v-36.079q0-32.591 23.473-55.852 23.473-23.261 56.087-23.261 32.614 0 55.875 23.457 23.261 23.457 23.261 56.048v36.079q0 32.591-23.473 55.852-23.474 23.261-56.088 23.261ZM830-184.652h-52.877q-11.993 0-18.971-10.043-6.978-10.044-3.848-20.87l11-41.046q2.566-9.476 10.392-14.107 7.826-4.63 17.087-3.63l43.583 7.2q15.591 2.93 25.286 14.097 9.696 11.166 9.696 26.62 0 17.257-12.103 29.518T830-184.652Zm-143.609-15.391L594-229.956q-11.391-2.565-15.522-12.892-4.13-10.326 0-21.152l29.131-62.696q4.13-11.391 14.456-13.674 10.326-2.282 19.818 3.758l76.595 44.133q6.464 3.858 9.645 11.291 3.181 7.433 1.181 15.492l-12 47.566q-2.565 11.391-11.326 16.021-8.761 4.631-19.587 2.066Zm-169.344-64.656-64.786-16.953q-9.696-2.565-16.674-11.126T428.609-312v-42q0-21.045 7.63-38.718 7.631-17.673 22.761-30.804 6.696-6.13 15.957-5.63 9.261.5 17.956 4.63l74.398 41.579q8.298 4.464 11.08 12.943 2.783 8.478-1.348 17.739l-31.881 73.347q-3.814 8.61-11.293 12.458-7.478 3.847-16.822 1.757ZM346-292.652q-11.261 0-20.34-7.039-9.079-7.04-11.008-18.179-8.565-34.608-36.592-58.695-28.026-24.087-62.484-24.087H198q-11.391 0-18.37-6.978-6.978-6.979-6.978-18.37 0-11.391 6.978-18.37 6.979-6.978 18.188-6.978H233q16.87 0 33.304-4.5 16.435-4.5 30.305-13.37 6.695-5.13 16.239-5.13 9.543 0 16.239 5.13 15.615 10.292 26.873 14.081 11.259 3.789 29.3 3.789 14.301 0 20.542 12.326 6.241 12.326 1.241 26.848-6.869 16-10.652 29.652-3.782 13.652-3.782 29.522v35.565q0 10.826-6.696 17.805-6.696 6.978-17.522 6.978H346ZM225.087-487.348q-40.392 0-68.37-28.544-27.979-28.543-27.979-68.935 0-20.449 7.066-39.971 7.065-19.522 21.195-33.638l43.739-43.029v-73.883h221.393v74.173l43.739 42.739q14.131 14.273 21.196 33.811 7.065 19.537 7.065 39.889 0 41.211-27.978 69.299-27.979 28.089-68.37 28.089-19.055 0-36.223-7.565-17.169-7.566-32.299-19.331-4.565-3.365-8.696-6.083-4.13-2.717-9.13-2.717-5.305 0-18.826 9-15.131 12.131-32.261 19.413-17.131 7.283-35.261 7.283Z"/></svg>