<svg xmlns="http://www.w3.org/2000/svg" height="20" viewBox="0 -960 960 960" width="20"><path d="M218.681-62Q153-62 107.5-107.5T62-219v-212q0-25.143 11-47.571Q84-501 104-516l310.653-251.796Q429-780 443-777q14 3 26 13 32 25 42 64.171 10 39.171-6 75.829l-21 56h268q20.3 0 34.65 14.289 14.35 14.29 14.35 34.5Q801-499 786.65-484.5T752-470H470v38h378q20.3 0 34.65 14.289 14.35 14.29 14.35 34.5Q897-363 882.65-348.5T848-334H470v38h331.32q19.68 0 34.18 14.289 14.5 14.29 14.5 34.5Q850-227 835.65-212.5T801-198H470v38h234q20.3 0 34.65 14.289 14.35 14.29 14.35 34.5Q753-91 738.65-76.5T704-62H218.681ZM646.96-601q-38.96 0-66.46-27.54-27.5-27.541-27.5-66.5 0-38.96 27.54-66.46 27.541-27.5 66.5-27.5 38.96 0 66.46 27.54 27.5 27.541 27.5 66.5 0 38.96-27.54 66.46-27.541 27.5-66.5 27.5Zm95.158-211Q713-812 692.5-832.382q-20.5-20.383-20.5-49.5Q672-911 692.382-931.5q20.383-20.5 49.5-20.5Q771-952 791.5-931.618q20.5 20.383 20.5 49.5Q812-853 791.618-832.5q-20.383 20.5-49.5 20.5Zm131.67 168q-35.15 0-59.969-25.031Q789-694.062 789-729.212t25.031-59.969Q839.062-814 874.212-814t59.969 25.031Q959-763.938 959-728.788t-25.031 59.969Q908.938-644 873.788-644Z"/></svg>