<svg xmlns="http://www.w3.org/2000/svg" height="20" viewBox="0 -960 960 960" width="20"><path d="M227.95-76.782q-63.212 0-107.19-43.978-43.978-43.978-43.978-107.37v-191.132q0-23.838 10.347-44.745 10.348-20.907 29.044-35.472l306.456-249.277q14.197-12.115 28.197-8.68 14 3.435 25.565 13.869 25.479 21.522 32.653 53.955 7.174 32.432-6.653 62.134L466.61-550.61h276.695q18.126 0 30.737 12.551 12.611 12.55 12.611 30.587t-12.611 30.798q-12.611 12.761-30.737 12.761H484.782v42.347h354.523q18.126 0 30.737 12.551 12.611 12.55 12.611 30.587t-12.611 30.798q-12.611 12.76-30.737 12.76H484.782v42.348h307.409q17.505 0 30.266 12.551 12.761 12.55 12.761 30.587 0 18.036-12.611 30.797t-30.737 12.761H484.782v42.348h210.523q18.126 0 30.737 12.55 12.611 12.551 12.611 30.588 0 18.036-12.611 30.797t-30.737 12.761H227.95Zm414.183-523.783q-37.176 0-63.372-26.28-26.196-26.28-26.196-63.457t26.28-63.372q26.28-26.196 63.457-26.196t63.372 26.28q26.196 26.28 26.196 63.457 0 37.176-26.28 63.372-26.28 26.196-63.457 26.196Zm85.152-202.74q-27.328 0-46.523-19.129-19.196-19.129-19.196-46.457 0-27.327 19.129-46.523t46.457-19.196q27.327 0 46.523 19.129 19.196 19.13 19.196 46.457 0 27.328-19.129 46.523-19.13 19.196-46.457 19.196Zm131.721 162.783q-32.819 0-55.977-23.371-23.159-23.371-23.159-56.19 0-32.818 23.371-55.977 23.371-23.158 56.19-23.158t55.977 23.371q23.159 23.37 23.159 56.189t-23.371 55.977q-23.371 23.159-56.19 23.159Z"/></svg>