<svg xmlns="http://www.w3.org/2000/svg" height="20" viewBox="0 -960 960 960" width="20"><path d="M642.133-600.565q-37.176 0-63.372-26.28-26.196-26.28-26.196-63.457t26.28-63.372q26.28-26.196 63.457-26.196t63.372 26.28q26.196 26.28 26.196 63.457 0 37.176-26.28 63.372-26.28 26.196-63.457 26.196Zm216.873-39.957q-32.819 0-55.977-23.371-23.159-23.371-23.159-56.19 0-32.818 23.371-55.977 23.371-23.158 56.19-23.158t55.977 23.371q23.159 23.37 23.159 56.189t-23.371 55.977q-23.371 23.159-56.19 23.159ZM727.285-803.305q-27.328 0-46.523-19.129-19.196-19.129-19.196-46.457 0-27.327 19.129-46.523t46.457-19.196q27.327 0 46.523 19.129 19.196 19.13 19.196 46.457 0 27.328-19.129 46.523-19.13 19.196-46.457 19.196ZM227.95-76.782q-63.212 0-107.19-43.978-43.978-43.978-43.978-107.37v-191.132q0-23.838 10.347-44.745 10.348-20.907 29.044-35.472l306.456-249.277q14.197-12.115 28.197-8.68 14 3.435 25.565 13.869 25.479 21.522 32.653 53.955 7.174 32.432-6.653 62.134L466.61-550.61h276.695q18.126 0 30.737 12.551 12.611 12.55 12.611 30.587t-12.611 30.798q-12.611 12.761-30.737 12.761H414.523q-26.915 0-41.523-22.305-14.608-22.305-3.477-47.088l44.521-92.651-244.957 194.913q-2.305 3.435-3.957 6.025-1.652 2.591-1.652 5.757v191.132q0 26.669 18.991 45.661 18.992 18.991 45.661 18.991h467.175q18.126 0 30.737 12.55 12.611 12.551 12.611 30.588 0 18.036-12.611 30.797t-30.737 12.761H227.95ZM839.337-334.87H528.416q-18.112 0-30.873-12.55-12.761-12.55-12.761-30.587t12.601-30.798q12.602-12.761 30.715-12.761h310.92q18.113 0 30.874 12.551 12.761 12.55 12.761 30.587t-12.602 30.798q-12.602 12.76-30.714 12.76ZM791.87-205.826H527.726q-17.422 0-30.183-12.55t-12.761-30.587q0-18.037 12.611-30.798t30.737-12.761h264.144q17.422 0 30.183 12.551 12.761 12.55 12.761 30.587 0 18.036-12.611 30.797t-30.737 12.761ZM324.13-316.174Z"/></svg>