<svg xmlns="http://www.w3.org/2000/svg" height="20" viewBox="0 -960 960 960" width="20"><path d="M454.001-794.308v-107.691h51.998v107.691h-51.998Zm0 736.307v-107.691h51.998v107.691h-51.998Zm340.307-396v-51.998h107.691v51.998H794.308Zm-736.307 0v-51.998h107.691v51.998H58.001Zm660.306-227.153-37.153-37.153L759-798.384 798.384-759l-80.077 77.846ZM202-162.616 162.616-202l79.077-76.846 37.153 37.153L202-162.616Zm557 0-77.846-79.077 37.153-37.153L798.384-202 759-162.616ZM241.693-681.154 162.616-759 202-798.384l76.846 80.077-37.153 37.153Zm238.398 421.153q-91.629 0-155.859-64.14-64.231-64.14-64.231-155.768 0-91.629 64.14-155.859 64.14-64.231 155.768-64.231 91.629 0 155.859 64.14 64.231 64.14 64.231 155.768 0 91.629-64.14 155.859-64.14 64.231-155.768 64.231Z"/></svg>