<svg xmlns="http://www.w3.org/2000/svg" height="24" viewBox="0 -960 960 960" width="24"><path d="M614.385-84.538q-6.385 2.692-13.654.115-7.27-2.577-9.962-8.962l-4.231-10.23q-7.23-16.231-10.73-33.577-3.5-17.346-3.5-34.808 0-21.231 5.384-41.962 5.385-20.73 14.616-40.73 8-17 14-35.27 6-18.269 6-38.038 0-16.538-3.5-32.077-3.5-15.538-10.27-30.308l-1.769-2q-2.692-6.384-.115-13.769t8.961-10.077q6.385-2.692 13.654-.115 7.27 2.577 9.962 8.961l4.231 9.77q7.23 16.23 10.73 34.077 3.5 17.846 3.5 35.538 0 21.231-5.384 41.462-5.385 20.23-14.616 40.23-8 17-14 35.77-6 18.769-6 38.538 0 15.538 3 30.577 3 15.038 9.77 28.808l2.769 5q2.692 6.384.115 13.384t-8.961 9.693Zm120 0q-6.385 2.692-13.654.115-7.27-2.577-9.962-8.962l-4.231-10.23q-7.23-16.231-10.73-33.577-3.5-17.346-3.5-34.808 0-21.231 5.384-41.962 5.385-20.73 14.616-40.73 8-17 14-35.27 6-18.269 6-38.038 0-16.538-3.5-32.077-3.5-15.538-10.27-30.308l-1.769-2q-2.692-6.384-.115-13.769t8.961-10.077q6.385-2.692 13.654-.115 7.27 2.577 9.962 8.961l4.231 9.77q7.23 17.23 10.73 34.577 3.5 17.346 3.5 35.038 0 20.462-4.615 40.692-4.615 20.231-13.846 38.693-8.769 18.538-15.154 37.692T727.692-172q0 15.538 3 30.577 3 15.038 9.77 28.808l2.769 5q2.692 6.384.115 13.384t-8.961 9.693Zm111.23-331.693q6.385-2.692 13.654-.115 7.27 2.577 9.962 8.961l4.231 9.77q8 16.23 11.115 34.077 3.115 17.846 3.115 35.538 0 20.462-4.615 40.808t-13.846 38.807q-8.769 18.539-15.154 37.577-6.385 19.039-6.385 38.808 0 15.538 3 30.577 3 15.038 9.77 28.808l2.769 5q1.461 3.692 1.461 7 0 3.307-1.23 6.384-1.231 3.077-3.308 5.654t-5.769 4.039q-6.385 2.692-13.654.115-7.27-2.577-9.962-8.962l-4.231-10.23q-7.23-16.231-10.73-33.577-3.5-17.346-3.5-34.808 0-21.231 5.384-41.962 5.385-20.73 14.616-40.73 8-17 14-35.27 6-18.269 6-38.038 0-16.538-3.5-32.077-3.5-15.538-10.27-30.308l-1.769-2q-2.692-6.384-.115-13.769t8.961-10.077Zm-104.769-86.615H556.923q-26.846 0-45.731 18.884-18.884 18.885-18.884 45.731V-120H480q-120.077 0-200.039-82.461Q200-284.923 200-408q0-56.539 26.307-112.731 26.308-56.192 65.308-108.423 39-52.231 83.962-98.231 44.961-46 82.808-80.385 5.23-5 10.692-6.73 5.461-1.731 10.923-1.731 5.692 0 11.038 1.731 5.347 1.73 10.347 6.73 68 62.077 137.038 139.385 69.039 77.308 102.423 165.539Z"/></svg>