<svg xmlns="http://www.w3.org/2000/svg" height="20" viewBox="0 -960 960 960" width="20"><path d="M446-542q-13 0-25.5-5T397-559q-10-6-21.048-12.5Q364.905-578 352-578q-10.593 0-19.296 5Q324-568 316-562q-1.143-.353-2.5-.177-1.357.177-2.929.177-3.571 0-7.071-3.781-3.5-3.781-3.5-8.719 0-3.5 1.5-5.5t5.5-4q10-5 20.974-9.5Q338.947-598 351-598q12.364 0 23.182 4.5Q385-589 396-584q11 7 23.048 14.5Q431.095-562 444-562q8.105 0 33-12 1-1 3.182-2.5T485-578q4.3 0 7.65 3.781 3.35 3.781 3.35 8.719 0 3.5-1.5 5.5t-5.5 4q-9.8 5.812-20.521 9.906T446-542Zm0 180q-14 0-28-5.5T393-381q-10-6-19.703-11.5t-20.953-5.5Q341-398 332.5-393q-8.5 5-16.5 11-1.143-.353-2.5-.176-1.357.176-2.929.176-3.571 0-7.071-3.781-3.5-3.781-3.5-8.719 0-3.5 1.5-5.5t5.5-4q10-5 20.5-9.5t22-4.5q13.5 0 26.5 5t24 12q11 7 21.5 13t22.5 6q13 0 21-8.5t22-8.5q5 1 9.182 5.5T500-383q-1.7 3-3.85 4.5-2.15 1.5-4.15 1.8-1 .2-1.5-.05t-1.5.75q-9.8 5.812-20.521 9.906T446-362ZM200-244q-22 0-37-15t-15-37v-368q0-22.7 14.65-37.35Q177.3-716 200-716h560q22.7 0 37.35 14.65Q812-686.7 812-664v368q0 22-15 37t-37 15H200Zm0-20h428v-432H200q-12 0-22 10t-10 22v368q0 12 10 22t22 10Zm448 0h112q12 0 22-10t10-22v-368q0-12-10-22t-22-10H648v432Zm52-340h40v-40h-40v40Zm19.789 148q9.211 0 16.711-7.289 7.5-7.29 7.5-16.5 0-9.211-7.289-16.711-7.29-7.5-16.5-7.5-9.211 0-16.711 7.289-7.5 7.29-7.5 16.5 0 9.211 7.289 16.711 7.29 7.5 16.5 7.5Zm0 144q9.211 0 16.711-7.289 7.5-7.29 7.5-16.5 0-9.211-7.289-16.711-7.29-7.5-16.5-7.5-9.211 0-16.711 7.289-7.5 7.29-7.5 16.5 0 9.211 7.289 16.711 7.29 7.5 16.5 7.5ZM648-264v-432 432Z"/></svg>