<svg xmlns="http://www.w3.org/2000/svg" height="24" viewBox="0 -960 960 960" width="24"><path d="m677.565-66.607-8.435-41.174q-9.739-3.869-19.108-9.304-9.37-5.435-18.239-11.739l-40.304 13.304q-9.261 2.565-18.022-.5t-13.327-11.326L535-170.607q-5.13-8.261-3.065-17.522t8.761-15.957L572-231.39q-2.565-11.609-2.283-22.391.283-10.783 2.283-22.391l-31.304-27.305q-7.261-6.695-9.044-15.956-1.782-9.261 3.348-17.522l25.13-42.696q4.566-8.261 13.327-11.609 8.761-3.348 18.022-.217l39.739 13.304q8.869-6.304 18.521-12.239 9.652-5.935 19.391-9.804l8.435-41.174q2-9.261 9.044-15.174 7.043-5.913 16.739-5.913h50.826q9.696 0 16.74 5.913 7.043 5.913 9.043 15.174l8.435 41.174q9.739 3.869 19.109 9.304 9.369 5.435 18.239 12.869l39.739-13.869q9.261-3.131 18.304.217 9.044 3.348 13.609 11.609l25.131 43.826q4.565 8.261 2.782 17.522-1.782 9.261-8.478 15.957l-31.304 27.304q2.565 11.609 2.282 21.826-.282 10.218-2.282 21.826l31.304 27.304q7.261 6.696 9.043 15.957 1.783 9.261-3.347 17.522l-25.131 43.261q-4.565 8.261-13.109 11.326-8.543 3.066-17.804.5l-40.739-12.869q-8.87 6.304-18.239 11.739-9.37 5.435-19.109 9.304l-8.435 41.174q-2 9.26-9.043 15.174-7.044 5.913-16.74 5.913h-50.826q-9.696 0-16.739-5.913-7.044-5.913-9.044-15.174Zm50.914-111.914q30.739 0 53.391-22.369 22.652-22.37 22.652-53.109t-22.652-53.108q-22.652-22.37-53.391-22.37-30.739 0-53.109 22.37-22.369 22.369-22.369 53.108 0 30.739 22.369 53.109 22.37 22.369 53.109 22.369ZM423.608-435.478q-18.696 0-31.609-12.913T379.086-480q0-18.696 12.913-31.609t31.609-12.913q18.696 0 31.609 12.913T468.13-480q0 18.696-12.913 31.609t-31.609 12.913ZM164.389-206.783v-546.434q0-44.305 30.849-75.153 30.848-30.848 75.153-30.848h233.217q25.261 0 46.435 10.717 21.174 10.717 35.566 29.283h104q44.305 0 75.153 30.848 30.849 30.848 30.849 75.153v117.739q0 22.087-15.457 37.544-15.457 15.457-37.544 15.457-22.087 0-37.544-15.457-15.457-15.457-15.457-37.544v-117.739h-80v196.609Q580.435-503.086 552-480.803q-28.435 22.283-48.392 50.023v-322.437H270.391v546.434h176.522q4.739 30.348 14.239 57.131t23.761 48.87H128.911q-22.087 0-37.543-15.456-15.457-15.457-15.457-37.544 0-22.088 15.457-37.544 15.456-15.457 37.543-15.457h35.478Zm106.002 0v-546.434 546.434Z"/></svg>