<svg xmlns="http://www.w3.org/2000/svg" height="20" viewBox="0 -960 960 960" width="20"><path d="M306.478-542.631q11.805-23.369 24.37-46.478 12.565-23.109 27.891-44.956l-48.652-9.522-72.109 72.348 68.5 28.608Zm476.196-258.913q-69 4.196-142.75 42.218-73.75 38.022-135.076 99.348-41.761 41.76-72.999 87.402-31.239 45.641-48.523 88.163l106.848 107.326q42.522-17.284 88.283-48.403t87.521-72.88q61.326-61.326 99.229-135.315 37.902-73.989 42.337-142.989.239-5.717-1.381-10.315-1.619-4.598-5.098-8.076-3.478-3.479-8.076-5.098-4.598-1.62-10.315-1.381ZM572.609-566.37q-24.522-24.521-24.522-58.304t24.522-58.304q24.522-24.522 58.065-24.522 33.544 0 58.065 24.522 24.522 24.521 24.522 58.304t-24.522 58.304q-24.521 24.522-58.065 24.522-33.543 0-58.065-24.522Zm-23.978 264.892 28.608 68.5 72.109-72.109-9.283-47.891q-21.847 15.326-44.956 27.511-23.109 12.184-46.478 23.989Zm353.065-542.957q7.044 116.006-38.054 221.405-45.098 105.4-138.142 198.464l-1.195 1.195-1.196 1.196 20.239 98.697q5.478 23.63-1.82 46.476-7.299 22.847-24.528 39.807L595.392-116.587q-17.913 17.913-42.403 12.935-24.489-4.978-34.685-27.609l-63.913-147.543-170.587-170.587-146.543-62.913Q114.63-522.5 109.152-546.87q-5.478-24.369 12.435-42.282l122.087-122.087q16.68-17.23 39.307-24.289 22.628-7.059 46.258-1.581l98.426 20.239q.478-.478.956-1.076.479-.598.957-1.076 93.052-93.522 198.332-138.5 105.28-44.978 221.286-38.174 9.862.886 19.366 5.182t16.46 11.253q6.957 6.956 11.435 15.793 4.478 8.837 5.239 19.033ZM147.195-319.804q37.392-37.392 90.642-37.892 53.25-.5 90.641 36.892 37.392 37.391 36.892 90.641-.5 53.25-37.892 90.642-27.913 27.913-87.696 46.228Q180-74.978 68.847-60.934q14.044-111.153 32.24-171.055 18.195-59.902 46.108-87.815Zm67.892 66.891q-9.522 9.522-17.065 28.391-7.544 18.87-12.544 46.196 27.326-5 46.696-12.783 19.369-7.782 28.891-17.304 10.044-10.043 10.304-22.75.261-12.706-9.541-22.706-9.802-10.087-23.25-9.587t-23.491 10.543Z"/></svg>