<svg xmlns="http://www.w3.org/2000/svg" height="20" viewBox="0 -960 960 960" width="20"><path d="m257.54-464.615-83.539-36.461q-18.076-8.231-22.384-27.808-4.308-19.576 10.154-34.038l116.692-116.692q12.846-12.846 30.422-18.076 17.577-5.231 35.654-1.616l49.308 9.385q-48.769 58.769-78.231 107.115-29.461 48.346-58.076 118.191Zm546.535-371.921q8.231 0 15.577 3.73 7.346 3.731 12.961 9.346 5.616 5.616 8.846 12.462 3.231 6.846 3.231 15.077-.077 91.615-39.808 181.422-39.73 89.807-113.73 163.806-50.153 50.154-95.576 81.615-45.423 31.462-112.192 56.693-12.846 5-26 4.307-13.154-.692-22.384-9.923l-107.846-108.46q-9.23-9.231-9.73-22.077-.5-12.846 4.5-25.692 25.23-66.154 56.499-112.384 31.27-46.231 81.423-96.385 74-73.999 163.307-113.73 89.307-39.73 180.922-39.807ZM566.384-557.23q22.307 22.307 52.576 22.307 30.269 0 52.577-22.307 22.307-22.308 22.307-52.577t-22.307-52.576q-22.308-22.308-52.577-22.308t-52.576 22.308q-22.308 22.307-22.308 52.576 0 30.269 22.308 52.577Zm-93 307.844q69.845-28.615 117.499-57.577 47.653-28.961 106.422-77.73l10.77 48.923q3.615 18.077-1.616 35.154-5.23 17.076-18.077 29.922L571.691-154.002q-14.462 14.462-34.039 10.346-19.576-4.115-27.807-22.192l-36.461-83.538Zm-289.459-66.691q29.125-29.23 71.012-29.345 41.887-.116 71.013 29.115 29.126 29.23 29.126 70.96 0 41.73-29.23 70.961-23.692 23.692-71.961 38.961-48.269 15.269-135.344 26.038 10.769-87.076 26.23-135.094 15.462-48.018 39.154-71.596Z"/></svg>