<svg xmlns="http://www.w3.org/2000/svg" height="24" viewBox="0 -960 960 960" width="24"><path d="M278.077-453.231 192-490.154q-16.154-6.462-19.27-23.615-3.115-17.154 8.808-29.077l111.385-111.385q11.692-11.692 26.846-16.154 15.154-4.461 31.308-1.231l56.615 11.77q-44.538 54.538-72.961 98.73-28.424 44.193-56.654 107.885Zm501.077-353.846q6.462 0 12.154 2.461 5.692 2.462 10.923 7.693 5.231 5.23 7.692 10.923 2.462 5.692 2.462 12.154-2.154 92.23-39.115 171.846-36.962 79.615-105.962 148.615-46.308 46.308-90.154 75.731-43.846 29.423-103.385 56.885-10.692 5-21.5 4.615Q441.462-316.538 433-325L330.308-426.923q-8.462-8.462-8.462-19.654t5-21.885q27.462-59.307 56.5-103.269 29.039-43.962 75.346-90.269 69-69 148.616-105.962 79.615-36.961 171.846-39.115ZM559.769-554.462q17.616 17.616 42.654 17.616 25.039 0 42.654-17.616 17.616-17.615 17.616-42.654 0-25.038-17.616-42.653-17.615-17.616-42.654-17.616-25.038 0-42.654 17.616-17.615 17.615-17.615 42.653 0 25.039 17.615 42.654Zm-102 281.693Q521.462-301 565.77-329.423q44.307-28.423 98.846-72.961l11.538 55.846q3.231 16.154-1.231 31.807-4.461 15.654-16.153 27.347L547.385-176q-11.923 11.923-29.077 8.693-17.154-3.231-23.615-19.385l-36.924-86.077Zm-251.923-41.385q23.422-23.461 56.943-23.192 33.52.269 56.943 23.731 23.422 23.461 23.422 56.923 0 33.461-23.462 56.923-20.384 20.385-65.423 34.923-45.038 14.539-104.192 20.077 5.538-59.154 20.461-104.098 14.923-44.945 35.308-65.287Z"/></svg>