<svg xmlns="http://www.w3.org/2000/svg" height="20" viewBox="0 -960 960 960" width="20"><path d="m229.13-484.609-88.696-39.131q-26.218-12.391-31.848-40.391-5.631-28.001 14.891-48.523L242.39-731.567q19.087-19.087 44.805-26.783 25.718-7.695 51.935-2.565l49.827 9q-59.218 70.914-93.892 129.979-34.674 59.066-65.935 137.327ZM851.914-898.35q11.826 0 22.305 5.066 10.478 5.065 18.739 13.326 8.261 8.261 12.826 18.239 4.566 9.979 4.566 21.805-.392 97.652-43.109 199.065-42.718 101.414-119.457 178.153-54.565 54.565-103.348 88.695-48.782 34.131-131.652 68.61-17.957 7.826-37.262 6.195-19.304-1.63-31.565-13.891l-117.87-118.87q-12.261-12.261-14.174-30.783-1.913-18.522 5.913-37.044 32.783-80.174 67.196-130.239 34.413-50.066 90.109-105.761 76.739-76.739 177.935-119.457 101.196-42.717 198.848-43.109Zm-256.13 315.001q23.869 23.87 56.673 23.87 32.805 0 56.674-23.87 23.87-23.869 23.87-56.391t-23.87-56.391q-23.869-23.87-56.674-23.87-32.804 0-56.673 23.87-23.87 23.869-23.87 56.391t23.87 56.391Zm-98.175 365.654q78.261-31.261 136.544-65.153 58.283-33.891 129.197-93.109l10.565 49.827q5.13 26.217-2.565 51.152-7.696 24.935-26.783 44.023L625.654-112.043q-20.522 20.522-48.805 15.175-28.283-5.348-40.675-31.566l-38.565-89.261Zm-359.915-99.104q40.483-40.723 97.521-40.94 57.038-.218 97.52 40.531 40.483 40.748 40.483 97.387t-40.653 97.388Q301.986-92.1 235.546-72.127T54.781-39.52Q67.52-153.815 87.346-220.113q19.826-66.299 50.348-96.686Z"/></svg>