<svg xmlns="http://www.w3.org/2000/svg" height="24" viewBox="0 -960 960 960" width="24"><path d="M222.717-391.521q-36.631 0-62.675-25.991-26.043-25.991-26.043-62.488 0-36.957 25.99-62.718 25.991-25.761 62.488-25.761 36.731 0 62.888 25.761 26.156 25.761 26.156 62.435 0 36.674-26.086 62.718-26.086 26.044-62.718 26.044Zm257.566 0q-36.674 0-62.718-25.991-26.044-25.991-26.044-62.488 0-36.957 25.991-62.718 25.991-25.761 62.488-25.761 36.957 0 62.718 25.761 25.761 25.761 25.761 62.435 0 36.674-25.761 62.718-25.761 26.044-62.435 26.044Zm257.4 0q-36.797 0-63.001-25.991-26.203-25.991-26.203-62.488 0-36.957 26.203-62.718 26.204-25.761 63.001-25.761 36.796 0 62.557 25.761 25.761 25.761 25.761 62.435 0 36.674-25.761 62.718-25.761 26.044-62.557 26.044Z"/></svg>