<svg xmlns="http://www.w3.org/2000/svg" height="20" viewBox="0 -960 960 960" width="20"><path d="M192.615-232q-24.315 0-40.465-16.162Q136-264.324 136-288.656v-383.012Q136-696 152.15-712t40.465-16h574.77q24.315 0 40.465 16.162Q824-695.676 824-671.344v383.012Q824-264 807.85-248t-40.465 16h-574.77Zm0-32h574.77q9.23 0 16.923-7.692Q792-279.385 792-288.615v-382.77q0-9.23-7.692-16.923Q776.615-696 767.385-696h-574.77q-9.23 0-16.923 7.692Q168-680.615 168-671.385v382.77q0 9.23 7.692 16.923Q183.385-264 192.615-264ZM168-264v-432 432Zm416-224v75.692q0 6.839 4.52 11.42 4.52 4.58 11.269 4.58 6.75 0 11.48-4.58 4.731-4.581 4.731-11.42V-488h75.692q6.839 0 11.42-4.52 4.58-4.52 4.58-11.269 0-6.75-4.58-11.48-4.581-4.731-11.42-4.731H616v-75.692q0-6.839-4.52-11.42-4.52-4.58-11.269-4.58-6.75 0-11.48 4.58-4.731 4.581-4.731 11.42V-520h-75.692q-6.839 0-11.42 4.52-4.58 4.52-4.58 11.269 0 6.75 4.58 11.48 4.581 4.731 11.42 4.731H584Z"/></svg>