<svg xmlns="http://www.w3.org/2000/svg" height="24" viewBox="0 -960 960 960" width="24"><path d="M570-92q-8.32 0-16.32-1T538-96v-761.56q12-5.44 25.158-7.94Q576.316-868 590-868q56 0 97.5 34.5T741-747q68 8 114.5 58T902-570q0 29.097-8.5 55.548Q885-488 869-466q11 20 16.5 41.5T891-380q0 74-52 126t-126 52q-13 48-52.5 79T570-92Zm-180 0q-49 0-87.5-28T249-192q-78 6-134.5-47T58-370.11q0-26.89 7.5-52.39T89-470q-15-22-23-47.161-8-25.162-8-52.839 0-69.133 46.5-119.567Q151-740 219-747q12-52 54-86.5t96.889-34.5q13.722 0 26.917 2.5Q410-863 422-857.553V-96q-7.68 2-15.68 3T390-92Z"/></svg>