<svg xmlns="http://www.w3.org/2000/svg" height="24" viewBox="0 -960 960 960" width="24"><path d="M644.615-560q8.5 0 14.25-5.758t5.75-14.269q0-8.512-5.75-14.242-5.75-5.731-14.25-5.731H500q-8.5 0-14.25 5.758-5.75 5.757-5.75 14.269 0 8.511 5.75 14.242Q491.5-560 500-560h144.615Zm0 200q8.5 0 14.25-5.758 5.75-5.757 5.75-14.269 0-8.511-5.75-14.242-5.75-5.731-14.25-5.731H500q-8.5 0-14.25 5.758T480-379.973q0 8.512 5.75 14.242Q491.5-360 500-360h144.615ZM360-530.769q20.308 0 34.769-14.462 14.462-14.461 14.462-34.769t-14.462-34.769Q380.308-629.231 360-629.231t-34.769 14.462Q310.769-600.308 310.769-580t14.462 34.769q14.461 14.462 34.769 14.462Zm0 200q20.308 0 34.769-14.462 14.462-14.461 14.462-34.769t-14.462-34.769Q380.308-429.231 360-429.231t-34.769 14.462Q310.769-400.308 310.769-380t14.462 34.769q14.461 14.462 34.769 14.462ZM224.615-160Q197-160 178.5-178.5 160-197 160-224.615v-510.77Q160-763 178.5-781.5 197-800 224.615-800h510.77Q763-800 781.5-781.5 800-763 800-735.385v510.77Q800-197 781.5-178.5 763-160 735.385-160h-510.77Z"/></svg>