<svg xmlns="http://www.w3.org/2000/svg" height="20" viewBox="0 -960 960 960" width="20"><path d="M483-669q-20 0-41 8.5T410-638l-16-16q14-16 36-26t40-11v-45q0-4 3-7t7-3q4 0 7 3t3 7v46q23 0 50 14.5t43 47.5q1 3 0 8t-5 6q-4 2-8-1t-6-6q-11-22-32.5-35T483-669Zm254 474L600-331q-14 23-43.5 41.5T490-270v44q0 4-3 7t-7 3q-4 0-7-3t-3-7v-46q-42-7-66.5-30.5T363-368q-2-5-.5-9.5t6.5-6.5q3-2 7.5 1t6.5 8q15 38 41 59.5t63 21.5q31 0 56.5-15t39.5-38L193-738q-4-4-4.5-7t4.5-8q5-5 7.5-5t7.5 5l544 544q4 4 4.5 6.5T752-195q-5 5-7.5 5t-7.5-5Z"/></svg>