<svg xmlns="http://www.w3.org/2000/svg" height="20" viewBox="0 -960 960 960" width="20"><path d="M83-685.001v-146.001H181v146.001H82.999Zm0 556.003v-146.001H181v146.001H82.999Zm230.61-458.959-69.653-69.653L347.61-761.263l68.653 69.653L313.61-587.957Zm34 389.22L243.957-302.39l69.653-68.653L417.263-268.39l-69.653 69.653Zm-5.958-232.262v-98.002h205l-75.087-103.825 78.914-57.262 188.61 259.089H341.652Zm445.566 204v-506.002H909.22v506.002H787.218Zm-704.219-96v-98.002q24.048 0 41.524-17.538 17.476-17.538 17.476-41.673 0-24.136-17.476-41.556-17.476-17.42-41.524-17.42v-97.813q65.653 0 111.327 45.674Q240-545.652 240-480t-45.674 111.327q-45.674 45.674-111.327 45.674Z"/></svg>