<svg xmlns="http://www.w3.org/2000/svg" height="20" viewBox="0 -960 960 960" width="20"><path d="M90.5-677.5v-131h83v131h-83Zm0 526v-131h83v131h-83Zm210.065-434.174-58.891-58.891 92.891-92.892 57.892 58.892-91.892 92.891Zm34 363.131-92.891-92.892 58.891-57.891 92.892 91.891-58.892 58.892Zm3.826-215.957v-83h212.5l-79.652-109.696 66.848-48.456L713.653-438.5H338.391Zm437.74 204v-491h107v491h-107ZM90.5-330.5v-83q27.309 0 46.904-19.658Q157-452.816 157-480.212q0-27.397-19.596-46.937-19.595-19.54-46.904-19.54V-629.5q62.391 0 105.946 43.554Q240-542.391 240-480t-43.554 105.946Q152.891-330.5 90.5-330.5Z"/></svg>