<svg xmlns="http://www.w3.org/2000/svg" height="24" viewBox="0 -960 960 960" width="24"><path d="M90-679.231v-110.768H150v110.768H90.001Zm0 509.23v-110.768H150v110.768H90.001Zm192.307-429.538-42.768-42.768L318-720.768 360.768-678l-78.461 78.461ZM318-239.232l-78.461-78.461 42.768-42.768L360.768-282 318-239.232Zm2.385-210.769v-59.998h259.616l-78.154-104.078 48.23-36.076 149.922 200.152H320.385Zm440 240v-539.998h99.998v539.998h-99.998Zm-669.23-120v-59.998q37.125 0 63.563-26.46 26.437-26.46 26.437-63.616t-26.437-63.541q-26.438-26.385-63.563-26.385v-59.998q62.153 0 106.076 43.923Q241.154-542.154 241.154-480q0 62.154-43.923 106.076-43.923 43.923-106.076 43.923Z"/></svg>