<svg xmlns="http://www.w3.org/2000/svg" height="24" viewBox="0 -960 960 960" width="24"><path d="m617.479-169.13 70-70 70 70 41.87-41.305-69-69L800.914-350l-41.87-41.87-70 70-70.565-70-41.305 41.305 70 70L576.609-210l40.87 40.87Zm-505.958 27.218v-676.176l624.568 264.871q-6.391-2.261-19-4.522-12.61-2.261-28.61-2.261-36.696 0-71.088 8.848Q583-542.304 554-524.913L208.479-671.521v123.042L457.523-480l-249.044 68.479v123.042l220.522-93.695q-10.261 26.391-15.392 51.717-5.13 25.327-5.13 50.457v5.805q0 2.978 1.13 5.804L111.521-141.912ZM688.479-80q-83 0-141.5-58.5t-58.5-141.5q0-83 58.5-141.5t141.5-58.5q83 0 141.5 58.5t58.5 141.5q0 83-58.5 141.5T688.479-80Zm-480-302.174v-289.347V-288.479v-93.695Z"/></svg>