<svg xmlns="http://www.w3.org/2000/svg" height="24" viewBox="0 -960 960 960" width="24"><path d="m602.077-203.308 70-70 70 70 22.308-22.307-69.77-69.77 70-70-22.307-22.307-70 70-70-70L580-365.385l70 70-70 70 22.077 22.077Zm-434.385-15.153v-207.693L401.539-480l-233.847-53.846v-210.77l491.231 210h-2.769q-84.693 6.923-148.116 62.116-63.423 55.192-71.115 138.346L167.692-218.461Zm504.616 83.077q-66.847 0-113.423-46.577-46.578-46.577-46.578-113.424 0-66.846 46.578-113.423 46.576-46.577 113.423-46.577 66.846 0 113.423 46.577t46.577 113.423q0 66.847-46.577 113.424-46.577 46.577-113.423 46.577Z"/></svg>