<svg xmlns="http://www.w3.org/2000/svg" height="24" viewBox="0 -960 960 960" width="24"><path d="m605.538-192.155 70-70 70 70 26.154-26.153-69.385-69.385 70-70-26.153-26.153-70 70-70-70L580-357.693l70 70-70 70 25.538 25.538Zm-461.69 2.922v-583.073L675.46-547.307h-7.384q-26.538.77-51.191 6.654-24.654 5.884-45.961 16.038L203.846-680v147.693L420.768-480l-216.922 52.307V-280l228.694-97.385q-6.462 17.23-10.077 35.307t-4 34.768V-306.079L143.848-189.233Zm532.306 81.539q-74.923 0-127.461-52.538t-52.538-127.461q0-74.922 52.538-127.46t127.461-52.538q74.922 0 127.46 52.538t52.538 127.46q0 74.923-52.538 127.461t-127.46 52.538ZM203.846-377.385V-680v400-97.385Z"/></svg>