<svg xmlns="http://www.w3.org/2000/svg" height="20" viewBox="0 -960 960 960" width="20"><path d="M125.754 0Q105.379 0 91.08-14.307 76.782-28.613 76.782-49v-108.695q0-20.387 14.298-34.694 14.299-14.306 34.674-14.306h707.927q20.375 0 34.673 14.306 14.299 14.307 14.299 34.694v108.695q0 20.387-14.299 34.694Q854.056 0 833.681 0H125.754Zm182.092-350.696q-26.716 0-42.108-22.03-15.391-22.03-4-46.797L415.13-803.001q6.696-14.826 19.239-23.522 12.544-8.695 28.935-8.695h40.528q15.473 0 28.582 8.978t19.804 23.805l150.037 381.26q10.224 25.043-5.342 47.761-15.567 22.718-42.695 22.718-18.088 0-31.479-9.827-13.391-9.826-19.365-25.704l-27.149-77.295h-192.79l-30.478 81.608q-5.131 13.261-17.358 22.239-12.228 8.979-27.753 8.979Zm102.415-190.87h138.913L482-727.087h-4l-67.739 185.521Z"/></svg>