<svg xmlns="http://www.w3.org/2000/svg" height="24" viewBox="0 -960 960 960" width="24"><path d="m243.077-280-68.154 68.154q-15.154 15.154-35.039 6.842Q120-213.317 120-234.692v-540.693Q120-803 138.5-821.5 157-840 184.615-840h590.77Q803-840 821.5-821.5 840-803 840-775.385v430.77Q840-317 821.5-298.5 803-280 775.385-280H243.077ZM460-540v100q0 8.5 5.758 14.25 5.757 5.75 14.269 5.75t14.242-5.75Q500-431.5 500-440v-100h100q8.5 0 14.25-5.758 5.75-5.757 5.75-14.269t-5.75-14.242Q608.5-580 600-580H500v-100q0-8.5-5.758-14.25-5.757-5.75-14.269-5.75t-14.242 5.75Q460-688.5 460-680v100H360q-8.5 0-14.25 5.758-5.75 5.757-5.75 14.269t5.75 14.242Q351.5-540 360-540h100Z"/></svg>