<svg xmlns="http://www.w3.org/2000/svg" height="20" viewBox="0 -960 960 960" width="20"><path d="M439.478-511.478V-420q0 17.222 11.59 28.872 11.589 11.65 28.721 11.65 17.133 0 28.933-11.65t11.8-28.872v-91.478H612q17.222 0 28.872-11.59 11.65-11.589 11.65-28.721 0-17.133-11.65-28.933T612-592.522h-91.478V-684q0-17.222-11.59-28.872-11.589-11.65-28.721-11.65-17.133 0-28.933 11.65T439.478-684v91.478H348q-17.222 0-28.872 11.59-11.65 11.589-11.65 28.721 0 17.133 11.65 28.933t28.872 11.8h91.478ZM220.782-220.782l-60.273 60.273q-23.335 23.335-53.531 10.714-30.196-12.621-30.196-45.075v-590.347q0-41.005 28.498-69.503 28.498-28.498 69.503-28.498h610.434q41.005 0 69.503 28.498 28.498 28.498 28.498 69.503v466.434q0 41.005-28.498 69.503-28.498 28.498-69.503 28.498H220.782Zm-30-98.001h594.435v-466.434H174.783v482.998l15.999-16.564Zm-15.999 0v-466.434 466.434Z"/></svg>