<svg xmlns="http://www.w3.org/2000/svg" height="20" viewBox="0 -960 960 960" width="20"><path d="M720.367-305h120.077q6.825 0 11.575 4.547 4.75 4.547 4.75 11.269 0 6.723-4.727 11.453Q847.314-273 840.325-273h-94.786l115.615 115.615q5.615 5.423 5.615 11.058t-5.137 10.481q-5.324 5.615-11.914 5.231-6.59-.385-11.103-5.231L724-250.461v93.826q0 6.972-4.547 11.688t-11.269 4.716q-6.723 0-11.453-4.617Q692-149.465 692-156.29v-120.077q0-12.056 8.155-20.345Q708.311-305 720.367-305ZM568-805v100q0 11.9 8.05 19.95Q584.1-677 596-677h100L568-805Zm-279.385-32h283.539q11.487 0 21.897 4.231 10.41 4.23 19.103 12.923l97.692 97.692q8.693 8.693 12.923 19.103Q728-692.641 728-681.154v275.846q0 12.031-8.138 20.169Q711.723-377 699.693-377h-51.385q-12.031 0-20.17 8.194Q620-360.613 620-348.5v171q0 12.113-8.139 20.306Q603.723-149 591.692-149H288.615q-24.315 0-40.465-16.15Q232-181.3 232-205.615v-574.77q0-24.315 16.15-40.465Q264.3-837 288.615-837Z"/></svg>