<svg xmlns="http://www.w3.org/2000/svg" height="20" viewBox="0 -960 960 960" width="20"><path d="M288.615-149q-24.315 0-40.465-16.15Q232-181.3 232-205.615v-574.77q0-24.315 16.15-40.465Q264.3-837 288.615-837h283.539q11.145 0 21.726 4.231 10.581 4.23 19.274 12.923l97.692 97.692q8.693 8.693 12.923 19.274Q728-692.299 728-681.154V-393q0 6.838-4.52 11.419T712.211-377q-6.749 0-11.48-4.581Q696-386.162 696-393v-284h-99.693q-12.223 0-20.265-8.042T568-705.307V-805H288.615q-9.23 0-16.923 7.692Q264-789.615 264-780.385v574.77q0 9.23 7.692 16.923Q279.385-181 288.615-181H604q6.838 0 11.419 4.52Q620-171.959 620-165.21t-4.581 11.479Q610.838-149 604-149H288.615ZM724-250.461v93.826q0 7.01-4.52 11.707-4.52 4.697-11.269 4.697-6.75 0-11.48-4.597Q692-149.426 692-156.29v-120.077q0-12.248 8.059-20.441 8.06-8.192 20.308-8.192h120.077q6.864 0 11.595 4.52 4.73 4.52 4.73 11.269 0 6.75-4.708 11.48Q847.352-273 840.325-273h-94.786l115.615 115.615q5.615 5.616 5.615 11.154 0 5.539-5.137 10.385-5.324 5.615-11.914 5.231-6.59-.385-11.103-5.231L724-250.461ZM264-181v-624 624Z"/></svg>