<svg xmlns="http://www.w3.org/2000/svg" height="20" viewBox="0 -960 960 960" width="20"><path d="M270.783-89.782q-41.005 0-69.503-28.498-28.498-28.498-28.498-69.503v-610.434q0-41.005 28.498-69.503 28.498-28.498 69.503-28.498h272.391q19.447 0 37.072 6.978 17.624 6.978 32.581 21.935l145.478 145.478q14.957 14.957 21.935 32.581 6.978 17.625 6.978 37.072v193.173q0 20.387-14.246 34.694-14.246 14.306-34.544 14.306-20.298 0-34.754-14.306-14.457-14.307-14.457-34.694v-171.216H570.218q-20.387 0-34.694-14.307-14.307-14.307-14.307-34.694v-118.999H270.783v610.434h267.216q20.387 0 34.694 14.246 14.306 14.246 14.306 34.544 0 20.298-14.306 34.755-14.307 14.456-34.694 14.456H270.783Zm486.218-81.129v25.377q0 20.559-14.246 34.982-14.247 14.423-34.544 14.423-20.298 0-34.755-14.324-14.457-14.324-14.457-34.736v-143.486q0-20.412 14.324-34.869t34.736-14.457h143.486q20.412 0 34.869 14.247 14.457 14.246 14.457 34.543 0 20.298-14.435 34.755-14.434 14.457-35.01 14.457h-26.337l58.955 58.955q14.957 14.957 15.239 34.044.283 19.087-14.023 34.044-15.608 14.957-35.644 15.24-20.037.282-34.66-14.675l-57.955-58.52Zm-486.218-16.872v-610.434 610.434Z"/></svg>