<svg xmlns="http://www.w3.org/2000/svg" height="24" viewBox="0 -960 960 960" width="24"><path d="M179.973-300q-8.512 0-14.242-5.75Q160-311.5 160-320v-320q0-8.5 5.758-14.25 5.757-5.75 14.269-5.75 8.511 0 14.242 5.75Q200-648.5 200-640v140h200v-140q0-8.5 5.758-14.25 5.757-5.75 14.269-5.75 8.511 0 14.242 5.75Q440-648.5 440-640v320q0 8.5-5.758 14.25T419.973-300q-8.512 0-14.242-5.75Q400-311.5 400-320v-140H200v140q0 8.5-5.758 14.25T179.973-300ZM540-300q-8.5 0-14.25-5.758-5.75-5.757-5.75-14.269t5.75-14.242Q531.5-340 540-340h195.385q10.769 0 17.692-6.923T760-364.615V-460H620q-8.5 0-14.25-5.758-5.75-5.757-5.75-14.269t5.75-14.242Q611.5-500 620-500h140v-95.385q0-10.769-6.923-17.692T735.385-620H540q-8.5 0-14.25-5.758-5.75-5.757-5.75-14.269t5.75-14.242Q531.5-660 540-660h195.385q26.654 0 45.634 18.981Q800-622.039 800-595.385v230.77q0 26.654-18.981 45.634Q762.039-300 735.385-300H540Z"/></svg>