<svg xmlns="http://www.w3.org/2000/svg" height="20" viewBox="0 -960 960 960" width="20"><path d="M431-506Zm0 408-62-55q-112-99-182-171T79-451q-38-55-52-99.346Q13-594.692 13-642q0-104.452 70.236-175.726Q153.473-889 256-889q48.932 0 94.466 17Q396-855 431-822q35.3-33.095 78.984-50.048Q553.668-889 602-889q104 0 175 69.199Q848-750.603 848-643q0 26-.5 36t-3.5 20H722q5-15 7-25.348 2-10.348 2-27.652 0-60-42-95.5T602-771q-49 0-80.5 27.5T474-681h-85q-18-36-48.5-63T256-771q-54 0-89 37.158-35 37.159-35 91.842 0 32.366 11.94 64.467 11.94 32.1 45 75.316Q222-459 280-400.5T431-256q18-16 48-45t45-42l13.105 13.263L565.5-301l28.395 28.737L607-259q-16 17-26.5 26.5T560-214L431-98Zm130-299v-118h334v118H561Z"/></svg>