<svg xmlns="http://www.w3.org/2000/svg" height="24" viewBox="0 -960 960 960" width="24"><path d="M767 .565 528.479-237.39v165.87h-96.958v-153.565L310-106.13 242.13-174l175.087-175.087-68.13-68.13L174-242.13 106.13-310l118.956-121.521H71.521v-96.958h165.87L13.477-751.827l62.653-62.652L829.652-62.087 767 .565Zm19-242.695L566.085-462.045h-19.564l-83.911-83.911v-19.564L242.13-786 310-853.87l121.521 118.956v-153.565h96.958v153.565L650-853.87 717.87-786 528.479-596.609v68.13h68.13L786-717.87 853.87-650 734.914-528.479h153.565v96.958H734.914L853.87-310 786-242.13Z"/></svg>