<svg xmlns="http://www.w3.org/2000/svg" height="20" viewBox="0 -960 960 960" width="20"><path d="M480-35q-62.543 0-120.196-16.712-57.653-16.711-109.638-48.596Q227-114 213.5-135 200-156 200-180.312v-270.057q0-22.704 12.637-42.65Q225.274-512.965 247-527q52-33 110.754-50Q416.507-594 480-594q63.152 0 121.576 17Q660-560 712-527q21 14 34 34.006t13 43.783v270.592Q759-157 749-139t-28 31q-15 11-33.322 21.167Q669.356-76.667 646-68q2-13 2-23.691Q648-161 599.951-209t-116.607-48Q433-257 392-229.5 351-202 331-155q37 17 73.917 24.5 36.916 7.5 75.25 7.5Q500-123 519-125t39-8v89q-24 5-42.312 7-18.313 2-35.688 2Zm114.035-249Q629-284 653.5-308.535q24.5-24.536 24.5-59.5Q678-403 653.465-427.5q-24.536-24.5-59.5-24.5Q559-452 534.5-427.465q-24.5 24.536-24.5 59.5Q510-333 534.535-308.5q24.536 24.5 59.5 24.5ZM480.069-648Q537-648 577.5-689t40.5-97q0-57.5-40.25-97.75T480-924q-57 0-98 40.25T341-786q0 56 41 97t98.069 41Z"/></svg>