<svg xmlns="http://www.w3.org/2000/svg" height="24" viewBox="0 -960 960 960" width="24"><path d="M100.001-260.001v-507.384q0-1.923.193-3.461.192-1.539.577-3.462l-49.538-49.538L94-866.615 874.46-86.154l-42.768 42.768L615.078-260H100.001Zm759.998 46.153L753.846-320H800v-480H273.846l-59.998-59.999h646.151v646.151ZM160-320h395.079l-90.001-90.001H250.001v-59.998H405.08l-60.002-60.002h-95.077v-59.998h35.079L160-715.079V-320Zm503.845-90.001-59.998-59.998h106.152v59.998h-46.154Zm-120-120-59.998-59.998h226.152v59.998H543.845Zm-120-120-59.998-59.998h346.152v59.998H423.845Zm-65.998 132.154Zm165.231-32.922Z"/></svg>