<svg xmlns="http://www.w3.org/2000/svg" height="20" viewBox="0 -960 960 960" width="20"><path d="M222.783-124.782q-41.005 0-69.503-28.498-28.498-28.498-28.498-69.503v-514.434q0-41.005 28.498-69.503 28.498-28.498 69.503-28.498h514.999q41.005 0 69.503 28.498 28.499 28.498 28.499 69.503v63.521h-98.002v-63.521H222.783v514.434h514.999v-63.521h98.002v63.733q0 41.093-28.499 69.441-28.498 28.348-69.503 28.348H222.783Zm473.259-306.217H418.304q-20.387 0-34.694-14.247-14.306-14.246-14.306-34.543 0-20.298 14.306-34.755 14.307-14.457 34.694-14.457h277.738L646-578.477q-14.957-14.957-14.674-34.544.283-19.588 15.239-34.544 14.957-14.957 34.544-14.957 19.587 0 34.402 14.815l133.098 133.098q6.696 7.096 10.609 16.222 3.913 9.126 3.913 18.587t-3.913 18.587q-3.913 9.126-10.609 15.822L715.511-312.293q-14.815 14.815-33.902 14.315-19.087-.5-34.044-15.457-14.956-14.956-15.239-34.544-.283-19.587 14.674-34.544l49.042-48.476Z"/></svg>