<svg xmlns="http://www.w3.org/2000/svg" height="24" viewBox="0 -960 960 960" width="24"><path d="M717.693-480q0 74.539-28.423 140.231-28.424 65.692-77.039 114.308-48.615 48.615-114.308 77.038Q432.231-120 357.692-120q-15.077 0-30.077-1.769-15-1.769-29.308-5.077-12-1.923-20.153-10.5Q270-145.923 270-158.154q0-5.923 1.961-12 1.962-6.077 6.654-10.307 57.154-59.77 88.116-138.347Q397.692-397.385 397.692-480q1.539-82.615-29.038-161.192-30.577-78.577-87.731-138.347-4.693-4.23-6.654-10.307-1.962-6.077-1.962-12 0-12.231 8.154-20.808t20.154-10.5q14.308-3.308 29.308-5.077Q344.923-840 360-840q74.539 0 140.231 28.423t114.308 77.038q48.615 48.616 76.269 114.308Q718.462-554.539 717.693-480Z"/></svg>