<svg xmlns="http://www.w3.org/2000/svg" height="20" viewBox="0 -960 960 960" width="20"><path d="M336.13-553.39H173.782q-20.387 0-34.694-14.307-14.306-14.307-14.306-34.694v-161.782q0-16.996 11.702-28.476 11.703-11.481 28.609-11.481 16.906 0 28.537 11.481 11.63 11.48 11.63 28.476v58.65q48.261-59.565 119.522-94.63T480-835.218q119.87 0 212.501 69.326 92.631 69.327 126.935 177.327 5.131 14.522-8.448 24.849-13.579 10.326-32.857 10.326-19.522 0-36.761-7.261-17.24-7.261-25.935-24.783-29.739-67.826-93.022-109.805Q559.13-737.217 480-737.217q-64.261 0-118.391 27.761-54.131 27.761-89.566 75.587h64.087q16.996 0 28.476 11.42 11.481 11.42 11.481 28.326 0 16.907-11.481 28.82-11.48 11.913-28.476 11.913Zm-33.869 320.173h355.672q15.328 0 21.458-13.392 6.131-13.391-2.565-25.782l-105.739-144Q564.141-427.218 552-427.5q-12.141-.283-19.652 10.543L444-299.305l-52.348-69.652Q384.141-379.783 372-379.5q-12.141.282-19.087 11.109l-69.557 96.025q-8.878 12.366-2.497 25.757 6.38 13.392 21.402 13.392ZM222.783-76.782q-41.005 0-69.503-28.498-28.498-28.498-28.498-69.503v-249.433q0-20.388 14.246-34.694 14.246-14.307 34.544-14.307 20.298 0 34.754 14.307 14.457 14.306 14.457 34.694v249.433h514.434v-249.433q0-20.388 14.246-34.694 14.246-14.307 34.544-14.307 20.298 0 34.755 14.307 14.456 14.306 14.456 34.694v249.433q0 41.005-28.498 69.503-28.498 28.498-69.503 28.498H222.783Z"/></svg>