<svg xmlns="http://www.w3.org/2000/svg" height="20" viewBox="0 -960 960 960" width="20"><path d="m882.088-192.217-83.87-83.87v-38.217h-39.217l-97.436-98.001h122.522v-136.39H647.262v122.086l-84.436-83.87v-38.216h-37.651l-98.001-98.001h121.521v-137.391H411.87V-662L328-745.87v-38.217h-38.216l-98.002-98.001h592.305q40.304 0 69.153 28.498 28.848 28.499 28.848 69.503v591.87ZM646.696-646.696h137.391v-137.391H646.696v137.391ZM175.913-77.912q-40.304 0-69.153-28.848-28.848-28.849-28.848-69.153v-593.305l-24.61-24.609q-12.695-12.696-12.695-27.826 0-15.131 12.696-27.826 12.696-12.696 29.109-12.696 16.413 0 29.109 12.696l737.958 739.524q12.696 12.695 12.413 28.326-.282 15.63-12.413 27.76-12.695 12.697-28.522 12.697-15.826 0-27.695-12.696l-24.479-24.044h-592.87Zm470.783-98.001h38.217l-38.217-37.086v37.086ZM411.305-412.305h38.216l-38.216-37.086v37.086Zm0 236.392h137.39V-296.87l-15.304-16.434H411.305v137.391ZM175.913-646.696h38.217l-38.217-38.086v38.086Zm0 234.391h137.391v-121.521L298-548.695H175.913v136.39Zm137.391 236.392v-137.391H175.913v137.391h137.391Z"/></svg>