<svg xmlns="http://www.w3.org/2000/svg" height="20" viewBox="0 -960 960 960" width="20"><path d="M314.23-182q-17.23 0-29.73-12.478t-12.5-30Q272-242 284.478-254t30-12Q332-266 344-253.73t12 29.5q0 17.23-12.27 29.73t-29.5 12.5ZM604-458l-20-20.446V-621l-67 77-14-15 129-149q14-16 30-23t37-7q23.149 0 38.575 15.395Q753-707.211 753-683.632v.421q0 4.161-2.825 7.186-2.824 3.025-7 3.025-4.175 0-7.11-2.814-2.935-2.815-2.935-6.975v-.641q0-14.724-10.047-24.647Q713.037-718 699-718q-18 0-31.5 6.75T643-690l-39 47v185Zm-31 71 18 18q-6 30-24.5 42.5T520-314H290q2.213 0 3.106 1 .894 1-1.106 3l151-177-312-313q-3-4-4-7.5t3.304-7.5q4.696-4 7.863-4 3.166 0 6.833 4l691.886 691.886Q840-120 841-116.5t-3 8.196q-4 4.304-7.5 3.804-3.5-.5-7.419-4.384L458-473 340-334h184q22 0 34-12.5t15-40.5Zm8.947 205q-16.938 0-29.443-12.27Q540-206.54 540-223.77t11.854-29.73q11.854-12.5 28.5-12.5t28.146 12.558q11.5 12.557 11.5 29Q620-208 609.443-195q-10.558 13-27.496 13ZM458-473Zm59-71Zm-64-65-14-14 70-84q-20-5-36.5-8t-36.5-3q-19.404 0-40.702 3t-39.444 9L340-722q25-8 49-12t47-4q30 0 56.5 4t54.5 12l-94 113Zm-14-14Z"/></svg>