<svg xmlns="http://www.w3.org/2000/svg" height="20" viewBox="0 -960 960 960" width="20"><path d="M262.477-87.216v-542.479l196.999-192.564q26.218-26.218 57.783-33.044 31.566-6.826 58.784 7.935 26.652 14.196 37.913 46.044 11.261 31.848 1.435 68.327l-29.087 103.302H824.13q42.609 0 76.305 33.696 33.696 33.696 33.696 76.305v45.52q0 8.376-1 17.949-1 9.573-5.13 16.138l-123.392 289.61q-10.826 27.783-39.215 45.522-28.388 17.74-58.525 17.74H262.477ZM365-575.477v378.26h338.869l119.13-276.957v-45.52H452.303l48.217-188.303L365-575.477ZM164-87.216q-45.955 0-77.978-32.023-32.023-32.023-32.023-77.978v-322.477q0-45.955 32.023-77.978 32.023-32.023 77.978-32.023h98.477l1 110.001H164v322.477h99.477v110.001H164Zm201-110.001v-378.26 378.26Z"/></svg>