<svg xmlns="http://www.w3.org/2000/svg" height="24" viewBox="0 -960 960 960" width="24"><path d="M370.769-160q-26.846 0-45.73-18.884-18.885-18.885-18.885-45.731v-348.539q0-12.923 5.346-25.115 5.346-12.193 14.039-20.885l206.23-204.462q8.847-8.615 19.731-10.846 10.885-2.231 20.654 2.385 9.77 4.615 14.039 14.923T587.77-794l-41.154 194h268.769q25.077 0 44.846 19.769Q880-560.462 880-535.385v49.231q0 5.462-1.115 11.923-1.116 6.462-3.346 11.923L766.308-203.384q-8.231 18.461-27.692 30.923Q719.154-160 698.462-160H370.769Zm-186.154 0q-26.846 0-45.731-18.884Q120-197.769 120-224.615v-310.77q0-26.846 18.884-45.731Q157.769-600 184.615-600h16.923q26.846 0 45.731 18.884 18.885 18.885 18.885 45.731v311.539q0 26.846-18.885 45.346-18.885 18.5-45.731 18.5h-16.923Z"/></svg>