<svg xmlns="http://www.w3.org/2000/svg" height="24" viewBox="0 -960 960 960" width="24"><path d="M844.154-58.769 702.923-200H120v-560h80v57.077L75.23-827.692l28.539-28.539L872.692-87.308l-28.538 28.539ZM160-240h502.923l-400-400H160v400Zm674.077 1.616L800-272.462V-640H432.462L312.461-760H840v495.385q0 6.923-1.615 13.731-1.616 6.807-4.308 12.5ZM591.615-480.846l-28.769-28.769 44.692-44.693 28.77 28.77-44.693 44.692Zm-56.23 56.231L438-327.231 323.692-441.538l28.77-28.77L438-384.769l68.615-68.616 28.77 28.77Z"/></svg>