<svg xmlns="http://www.w3.org/2000/svg" height="24" viewBox="0 -960 960 960" width="24"><path d="M133.001-360q-44.305 0-75.154-30.848Q27-421.696 27-466.001V-800q0-44.305 30.848-75.153 30.849-30.848 75.154-30.848h693.998q44.305 0 75.153 30.848 30.849 30.848 30.849 75.153v333.999q0 44.305-30.849 75.153Q871.304-360 826.999-360H133.001Zm0-440v333.999h693.998V-800H133.001Zm679.564 560.957L154.13-204.477q-18.087 1.565-31.043-10.392-12.957-11.957-14.522-30.044-1.566-18.087 10.608-31.044 12.175-12.956 30.262-14.522l658.435-34.565q18.087-1.565 31.043 10.392 12.957 11.956 14.522 30.043 1.566 18.088-10.608 31.044-12.175 12.957-30.262 14.522ZM810-81.998H150q-18.087 0-30.544-12.457-12.457-12.456-12.457-30.544 0-18.087 12.457-30.544 12.457-12.456 30.544-12.456h660q18.087 0 30.544 12.456 12.457 12.457 12.457 30.544 0 18.088-12.457 30.544Q828.087-81.998 810-81.998ZM416.218-513.566q67.782 0 130.912-23.456 63.13-23.457 112.435-71.239 8.391 31.739 34.391 50.195 26 18.457 59.304 23.892 12.131 2 22.935-3.74 10.804-5.739 10.804-20.478v-148.652q0-15.304-11.087-21.044-11.086-5.739-23.217-3.739-33.304 5.87-59.304 24.891-26 19.022-34.392 51.196-50.173-46.348-112.586-71.522Q484-752.435 416.218-752.435q-73.348 0-136.065 22.934-62.718 22.935-112.326 78.978-2.131 2.696-6.131 17.522 0 2.305 6.131 17.522 49.608 56.044 112.326 78.978 62.717 22.935 136.065 22.935ZM133.001-800v333.999V-800Z"/></svg>