<svg xmlns="http://www.w3.org/2000/svg" height="20" viewBox="0 -960 960 960" width="20"><path d="M140-419.384q-23.846 0-40.231-16.385T83.384-476v-296q0-23.846 16.385-40.231T140-828.616h680q23.846 0 40.231 16.385T876.616-772v296q0 23.846-16.385 40.231T820-419.384H140Zm0-377.231q-10.769 0-17.692 6.923T115.385-772v296q0 10.769 6.923 17.692T140-451.385h680q10.769 0 17.692-6.923T844.615-476v-296q0-10.769-6.923-17.692T820-796.615H140Zm639.231 495.923-599 31q-9.616.231-17.154-6.308-7.539-6.538-7.769-16.154-.231-9.615 6.307-17.154 6.539-7.538 16.154-7.769l599-31q9.616-.231 17.154 6.308 7.539 6.538 7.769 16.154.231 9.615-6.307 17.154-6.539 7.538-16.154 7.769Zm.769 153H180q-9.615 0-16.654-7.039-7.038-7.038-7.038-16.654 0-9.615 7.038-16.653 7.039-7.039 16.654-7.039h600q9.615 0 16.654 7.039 7.038 7.038 7.038 16.653 0 9.616-7.038 16.654-7.039 7.039-16.654 7.039ZM437.692-522.461q65 0 124.539-23.5 59.538-23.5 95.154-78.039 2 26.539 19.346 46.808t43.115 27.5q7.693 2 17.231.731 9.539-1.27 9.539-13.654v-122.77q0-12.384-9.539-13.269-9.538-.885-17.231 1.115-26.538 7.231-43.5 27.5-16.961 20.27-18.961 46.039-35.846-53.308-95.27-77.423-59.423-24.116-124.423-24.116-67 0-118.692 20.654-51.693 20.654-95.077 71.423-2.769 2.77-3.231 9.462 0-1.308 3.231 9.462 43.384 50.769 95.077 71.423 51.692 20.654 118.692 20.654ZM115.385-796.615v345.23-345.23Z"/></svg>