<svg xmlns="http://www.w3.org/2000/svg" height="24" viewBox="0 -960 960 960" width="24"><path d="m580-470.923-223.308-84.462H223.846q11.615-54.846 51.115-94.923 39.5-40.077 105.039-48.769V-820h-40q-8.539 0-14.269-5.731Q320-831.461 320-840t5.731-14.269Q331.461-860 340-860h180q15 0 29.615 2.769 14.616 2.769 29.539 8.231 9.923 3.385 12.846 12.269 2.923 8.885-2.154 16.654-4.154 6.616-11.231 8.462t-14.154-.846q-10.307-3.77-21.23-5.654Q532.308-820 520-820H420v120.923q73.615 9.385 116.808 61.577Q580-585.308 580-520v49.077ZM81.538-184.615v-240q0-18.385 12.346-30.731 12.347-12.347 30.731-12.347h33.846q18.385 0 30.731 12.347 12.346 12.346 12.346 30.731v240q0 18.384-12.346 30.731-12.346 12.346-30.731 12.346h-33.846q-18.384 0-30.73-12.346-12.347-12.347-12.347-30.731Zm445.001 69.923-285-83.539v-269.462h83.23q6.231 0 11.693 1.116 5.461 1.115 10.923 3.115l240.846 88.385q16.308 5.769 28.654 22.615 12.346 16.846 12.346 32.385 0 11.769-6.808 18.231-6.807 6.461-18.115 6.461h-48.077q-22.693 0-42.116-2.807-19.423-2.808-35.73-8.654l-57.308-20.077q-6.461-2.231-12.538.615T400.462-318q-2 6.461 1 12.692t9.461 8.462l62.846 21q18.154 6.384 39.077 8.807 20.923 2.424 40.846 2.424H760q28.154 0 47.154 17.615 19 17.615 19 45.462L565-115.154q-7.692 2.462-19.115 2.577-11.423.116-19.346-2.115Zm182.692-491.462q-25.308 0-42.654-17.346-17.346-17.346-17.346-42.654 0-17.154 10.808-41.923 10.807-24.769 36.807-64.385 2-2.23 12.385-6.692 2.231 0 12.385 6.692 26 39.616 36.807 64.001 10.808 24.384 10.808 42.307 0 25.308-17.346 42.654-17.346 17.346-42.654 17.346Z"/></svg>