<svg xmlns="http://www.w3.org/2000/svg" height="20" viewBox="0 -960 960 960" width="20"><path d="m580-479.923-214.308-83.462H225.846q10.615-48.846 48.615-88.923 38-40.077 103.539-48.769V-816h-36q-8.539 0-15.269-6.731Q320-829.461 320-838t6.731-15.269Q333.461-860 342-860h178q18 0 34.615 3.769 16.616 3.769 29.539 9.231 5.923 3.385 8.346 14.269 2.423 10.885-6.654 17.654-4.154 2.616-11.231 4.462-7.077 1.846-14.154.154-10.307-2.77-19.73-4.154Q531.308-816 520-816h-98v114.923q75.615 9.385 116.808 62.577Q580-585.308 580-520v40.077ZM81.538-183.615v-245q0-19.385 12.846-32.231 12.847-12.847 32.231-12.847h33.846q19.385 0 31.731 12.847 12.346 12.846 12.346 32.231v245q0 19.384-12.346 32.231-12.346 12.846-31.731 12.846h-33.846q-19.384 0-32.23-12.846-12.847-12.847-12.847-32.231ZM527.54-94.692l-279-80.539v-298.462h79.23q7.231 0 13.193 1.116 5.961 1.115 10.423 3.115l194.846 71.385q31.308 11.769 56.154 43.615 24.846 31.846 24.846 50.385 0 1.769.192 2.731.193.961-3.115.961h-31.077q-36.693-1-68.616-4.807-31.923-3.808-58.23-12.654l-79.308-26.077q-6.461-1.231-12.038.615T366.462-335q-3 6.461 0 13.692t9.461 9.462l66.846 25q33.154 12.384 65.577 15.807 32.423 3.424 70.346 3.424H715q64.154 0 87.654 24.615t23.5 81.462L564-93.154q-8.692 2.462-18.615 1.577-9.923-.884-17.846-3.115Zm177.692-479.462q-27.308 0-45.654-18.346-18.346-18.346-18.346-45.654 0-16.154 14.308-47.923 14.307-31.769 38.307-68.385 3-3.23 11.385-5.692 1.231 0 11.385 6.692 25 38.616 38.807 68.501 13.808 29.884 13.808 46.807 0 27.308-18.346 45.654-18.346 18.346-45.654 18.346Z"/></svg>