<svg xmlns="http://www.w3.org/2000/svg" height="20" viewBox="0 -960 960 960" width="20"><path d="m608-533-132-50q-8-29-30.5-49.5T385-653q-27 0-43.915 9.825Q324.169-633.35 314-620H171q13-54 54-97t95-57v-37h-1q-25-4-41-21.5T262-876q0-26 19.5-45.5t45.327-19.5H505q22 0 42 3.5t39 14.5q25 14 32.5 46.5T598-817q-10 7-29.5 11.5t-35.409-.5q-9.091-3-15.198-4-6.107-1-12.893-1h-55v37q72 20 115 80t43 136v25Zm-65 400 234-74q-5-9-14.806-14.5Q752.387-227 740-227H526q-13 0-27.5-2t-31.5-6.944l-54-17.822q-16.8-5.252-23.9-21.007-7.1-15.756-2.1-32.562 5-16.805 20.789-24.235Q423.578-339 441-334l57 18q8 4 23 5t52.229 0H584q0-11-6.5-20T562-344l-230-84h-45v224l256 71ZM508-25 287-87q-17 29-50 41.5T157-33h-33q-53.625 0-91.813-38.188Q-6-109.374-6-163v-250q0-53.625 38.188-91.812Q70.374-543 124-543h205q12 0 23 2t23 6l227 85q43 17 69 54.5t26 84.5h43q64.583 0 109.792 30.5Q895-250 895-189q0 33-19 55t-47 31L582-25q-18 5-37 5t-37-5ZM108-147h64v-281h-64v281Zm272-473Zm397.717 115Q738-505 710-533.2T682-601q0-25 21-69t58-99q2-3 16.5-9 1.5 0 17.22 8.859Q832-714 853-670.69q21 43.31 21 69.69 0 39.6-28.283 67.8-28.283 28.2-68 28.2Z"/></svg>