<svg xmlns="http://www.w3.org/2000/svg" height="20" viewBox="0 -960 960 960" width="20"><path d="m589.999-491.461-63.998-24.307v-17.693q-4.231-47.001-38.308-80.77-34.077-33.77-87.693-33.77-42.231 0-69.77 21.232-27.539 21.231-39.616 51.078h-71.69q13.307-46.924 51.307-85.462 38-38.539 97.77-48.385v-96.463H342q-12.769 0-22.384-9.615T310.001-838q0-12.769 9.615-22.384t22.211-9.615H520q18 0 34.808 3.384 16.807 3.385 31.269 9.616 12.461 5.692 16.422 21.384 3.962 15.692-8.577 27.076-6.076 5.308-16.615 7.731-10.538 2.423-21.076-.173-9.154-2.635-17.83-3.827-8.676-1.193-18.401-1.193h-88.001v96.463q73.308 11.692 115.654 66.038 42.346 54.346 42.346 123.5v28.539Zm-42.384 343.307q1.923.769 3.461.769 1.539 0 3.462-.769L785.846-221q-3.077-13.616-13.076-19.885-9.999-6.269-22.386-6.269H552.539q-20.231 0-38.039-2.193-17.808-2.192-37.116-7.577l-59.769-19.538q-12.954-4.145-18.323-16.578-5.369-12.434-1.523-25.543 3.846-12.724 16.173-18.301 12.327-5.577 25.903-1.731l55.001 19.231q15.154 5.77 33.615 7.193 18.462 1.423 55.308 1.038h10.615q0-14.846-6.692-24.616-6.692-9.769-17.616-14.538L342-433.538q-1.154-.384-2.116-.577-.962-.192-2.115-.192h-70.001v207.153l279.847 79ZM531-87.386l-263.232-74.77q-6.846 27.846-26.846 41.885-20 14.038-49.461 14.038h-54.383q-31.573 0-53.94-22.367-22.367-22.367-22.367-53.94v-239.459q0-31.572 22.367-53.94 22.367-22.367 53.94-22.367h200.306q7.231 0 13.654 1.308t13.038 3.308l229.077 84.846q28.23 11.077 46.23 37.653 18 26.577 18 60.038h93.001q45.16 0 73.733 29.807 28.573 29.808 28.573 72.192 0 16.999-10.5 28.884-10.499 11.884-24.73 16.961L574.769-87.001q-10.847 3.23-21.693 2.923-10.846-.308-22.076-3.308ZM123.769-182.54q0 5.385 3.462 8.847 3.462 3.462 8.847 3.462h55.383q5.385 0 8.846-2.885 3.462-2.885 3.462-9.424v-251.767h-67.691q-5.385 0-8.847 3.462-3.462 3.461-3.462 8.846v239.459Zm248.077-393.151Zm358.52 24.612q-30.906 0-52.329-21.597-21.423-21.598-21.423-52.402 0-18.077 15.654-51.961 15.654-33.885 44.653-78.192 3-3.615 13.193-6.846 2.115 0 13.912 7.706 30.279 46.447 45.433 78.64 15.154 32.192 15.154 50.653 0 30.804-21.671 52.402-21.671 21.597-52.576 21.597Z"/></svg>