<svg xmlns="http://www.w3.org/2000/svg" height="20" viewBox="0 -960 960 960" width="20"><path d="M604.522-519.957 379.13-606.088H188.825q14.304-50.087 54-90.479 39.696-40.391 93.696-53.087v-54.825h-7.522q-21.522-2.261-36-17.587-14.478-15.326-14.478-37.413 0-22.088 16.456-38.544 16.457-16.457 38.544-16.457h178q20.261 0 38.957 3.283 18.696 3.282 36.392 12.543 22.391 11.392 29.021 38.675 6.631 27.283-16.152 49.5-9.13 7.435-26.239 11.283t-32.24-.717q-8.565-2.566-15.217-3.566-6.652-1-14.522-1h-64.999v54.825q71.565 17.392 114.783 75.435 43.217 58.044 43.217 132.74v21.522ZM13.999-138.086v-311.001q0-35.696 25.413-61.109 25.413-25.413 61.109-25.413 35.695 0 60.326 25.413 24.63 25.413 24.63 61.109v311.001q0 35.696-24.63 60.826-24.631 25.13-60.326 25.13-35.696 0-61.11-25.13Q14-102.39 14-138.086Zm506.739 103.87-250.695-70.13v-431.263h67.348q10.826 0 20.304 1.782 9.479 1.783 17.74 4.914l210.651 78.086q39.174 14.957 69.501 52.849 30.326 37.891 30.326 64.501 0 6.478-4.108 11.434-4.109 4.956-11.717 4.956h-93.653q-26.348-1-50.674-4.195-24.327-3.196-45.675-9.892l-62.478-20.174q-11.392-3.13-21.718 1.566-10.326 4.695-14.457 16.087-4.13 11.391.283 22.783 4.413 11.391 15.805 15.522l52.825 21.043q26.044 9.826 52.566 13.022 26.523 3.196 56.567 3.196h190.999q81.566 0 109.783 30.848 28.218 30.848 28.218 105.153l-306.74 88.477q-14.957 4.566-30.218 4.066t-30.783-4.63Zm247.697-480.783q-37.826 0-64.304-26.479-26.479-26.478-26.479-64.304 0-22.827 19.261-63.348 19.261-40.522 54.957-94.218 2.435-3.435 16.565-8.565 1.435 0 16.566 9 36.13 54.565 55.174 94.152 19.043 39.587 19.043 62.979 0 37.826-26.478 64.304-26.478 26.479-64.305 26.479Z"/></svg>