<svg xmlns="http://www.w3.org/2000/svg" height="20" viewBox="0 -960 960 960" width="20"><path d="m589.999-491.461-218.153-84.23H218.924q13.307-46.924 51.307-85.462 38-38.539 97.77-48.385v-96.463H342q-12.769 0-22.384-9.615T310.001-838q0-12.769 9.615-22.384T342-869.999h178q18 0 34.808 3.384 16.807 3.385 31.269 9.616 12.461 5.692 16.422 21.384 3.962 15.692-8.577 27.076-6.076 5.308-16.615 7.731-10.538 2.423-21.076-.423-9.154-2.385-17.615-3.577-8.462-1.193-18.616-1.193h-88.001v96.463q73.308 11.692 115.654 66.038 42.346 54.346 42.346 123.5v28.539ZM60.771-171.309v-264.998q0-26.692 18.422-45.115 18.423-18.422 45.115-18.422h16.924q26.692 0 44.615 18.422 17.922 18.423 17.922 45.115v264.998q0 26.692-17.922 45.115-17.923 18.423-44.615 18.423h-16.924q-26.692 0-45.115-18.423-18.422-18.423-18.422-45.115Zm470.998 90.462-264.001-74.77v-344.227h69.616q7.615 0 14.346 1.307 6.731 1.308 11.961 3.308l212.922 78.692q30.154 11.385 53.077 41.308 22.924 29.923 22.924 47.692 0 6.385-3.654 10.615-3.654 4.231-10.807 4.231h-59.537q-27.846-1-51.309-3.654-23.462-2.654-43.616-9.577l-73.154-24.539q-7.231-1.615-13.769.808-6.539 2.423-9.539 9.653-3 7.231 0 14.846 3 7.616 10.231 10.231l64.923 25q25.078 9.693 49.04 12.154 23.962 2.462 53.424 2.462h170.152q66.076 0 92.076 27.307 26 27.308 26 87.231L573.999-80.078q-9.846 3.23-21.307 2.538-11.462-.692-20.923-3.307ZM730.614-551.08q-31.154 0-52.577-21.422-21.423-21.423-21.423-52.577 0-18.077 15.654-51.961 15.654-33.885 44.653-78.192 3-3.615 13.693-6.846 1.615 0 13.692 7.846 29.999 46.307 45.153 78.5 15.154 32.192 15.154 50.653 0 31.154-21.423 52.577-21.423 21.422-52.576 21.422Z"/></svg>