<svg xmlns="http://www.w3.org/2000/svg" height="20" viewBox="0 -960 960 960" width="20"><path d="m601.913-510.174-95.478-36.305q-5.718-38.891-34.685-66.999-28.968-28.109-75.337-28.109-31.565 0-53.491 13.382-21.925 13.382-35.009 32.553H202.195q15.283-47.153 54-85.587 38.718-38.435 92.718-50.153v-68.195H336.5q-18.913-.957-32.25-14.652-13.337-13.696-13.337-32.848t14.174-33.326q14.174-14.174 33.153-14.174h178.173q18.957 0 36.674 3.119 17.717 3.12 34.435 11.076 20.435 9.435 26.413 32.805 5.978 23.369-12.892 42-8.478 7.761-23.793 11.12-15.315 3.358-29.772-.691-8.261-2.429-15.591-3.429t-15.474-1h-72.5v68.195q71.239 15.435 114.62 72.011 43.38 56.576 43.38 130.294v18.913Zm-47.5 366.522 234-74q-5-9-14.806-14.5-9.807-5.5-22.194-5.5H545.022q-19.087 0-34.348-2t-32.261-6.987l-54-17.957q-16.8-5.288-23.9-21.15-7.1-15.862-2.1-32.781 5-16.92 20.789-24.403 15.789-7.483 33.211-2.483l47.87 15.717q12.565 4.761 29.467 6.522 16.902 1.761 54.718 1.522h10.945q0-11-6.5-20t-15.5-13l-230-84H287v221.717l267.413 73.283Zm-25.109 86.696L287-124.282q-10.152 29-35.163 43.402Q226.826-66.478 192-66.478h-68q-39.188 0-67.094-27.906Q29-122.291 29-161.478v-273.587q0-39.188 27.906-67.094Q84.812-530.065 124-530.065h218.696q8.956 0 16.913 1.619 7.956 1.62 16.152 4.098l230.043 85.761q36.153 13.957 57.968 46.511 21.815 32.554 21.815 70.424h65.826q55.072 0 93.623 33.924t38.551 88.076q0 24.63-14.435 40.543-14.435 15.914-36.348 23.392l-249.282 78.76q-13.435 4.24-27.109 3.86-13.674-.381-27.109-3.86ZM119.413-157.652h76.174v-281h-76.174v281Zm259.065-438ZM761.005-522.5q-35.94 0-61.277-25.518-25.337-25.518-25.337-61.352 0-21.195 17.957-59.108 17.956-37.913 52.674-90.631 2.761-3.761 15.739-8.239 2.261 0 16.459 8.859 35.758 54.38 53.335 90.987 17.576 36.607 17.576 58.132 0 35.834-25.594 61.352-25.593 25.518-61.532 25.518Z"/></svg>