<svg xmlns="http://www.w3.org/2000/svg" height="24" viewBox="0 -960 960 960" width="24"><path d="m589.999-482.461-227.153-85.23H216.924q14.307-52.924 53.807-91.462 39.5-38.539 99.27-48.385v-102.463H340q-12.769 0-21.384-8.615T310.001-840q0-12.769 8.615-21.384T340-869.999h180q15 0 29.808 2.384 14.807 2.385 31.269 8.616 16.461 5.692 20.922 19.384 4.462 13.692-4.077 26.076-6.076 9.308-16.615 11.731-10.538 2.423-21.076-1.423-9.154-3.385-19.115-5.077-9.962-1.693-21.116-1.693h-90.001v102.463q71.308 11.692 115.654 65.038 44.346 53.346 44.346 122.5v37.539ZM60.771-172.309v-259.998q0-25.692 17.922-43.615 17.923-17.922 43.615-17.922h16.924q25.692 0 43.615 17.922 17.922 17.923 17.922 43.615v259.998q0 25.692-17.922 43.615-17.923 17.923-43.615 17.923h-16.924q-25.692 0-43.615-17.923-17.922-17.923-17.922-43.615Zm469.998 71.462-270.001-77.77v-315.227h73.616q6.615 0 12.846 1.307 6.231 1.308 12.461 3.308l258.922 95.692q15.154 5.385 25.577 20.308 10.424 14.923 10.424 29.692 0 16.385-10.654 26.115-10.654 9.731-25.807 9.731h-76.537q-13.846 0-24.809-1.654-10.962-1.654-21.116-5.577l-51.154-18.539q-7.231-2.615-14.269.808-7.039 3.423-9.039 9.653-2 7.231 1 13.846 3 6.616 10.231 9.231l60.923 21q10.078 3.693 22.54 5.154 12.462 1.462 23.924 1.462h240.152q30.076 0 51.576 20.307 21.5 20.308 21.5 51.231l-278.076 98.691q-8.846 3.23-21.807 3.538-12.962.308-22.423-2.307Zm203.845-482.232q-29.154 0-49.577-20.422-20.423-20.423-20.423-49.577 0-19.077 12.154-45.961 12.154-26.885 43.153-74.192 2-2.615 14.693-7.846 2.615 0 14.692 7.846 30.999 47.307 43.153 74 12.154 26.692 12.154 46.153 0 29.154-20.423 49.577-20.423 20.422-49.576 20.422Z"/></svg>