<svg xmlns="http://www.w3.org/2000/svg" height="20" viewBox="0 -960 960 960" width="20"><path d="m580-479.923-44-16.616v-35.384q-3.462-52-40.615-89.038Q458.231-658 400-658q-51.461 0-83.038 27.962-31.577 27.961-41.731 66.653h-49.385q10.615-48.846 48.615-88.923 38-40.077 103.539-48.769V-816h-36q-8.539 0-15.269-6.731Q320-829.461 320-838t6.731-15.269q6.73-6.731 15.096-6.731H520q18 0 34.615 3.769 16.616 3.769 29.539 9.231 5.923 3.385 8.346 14.269 2.423 10.885-6.654 17.654-4.154 2.616-11.231 4.462-7.077 1.846-14.154.404-10.307-3.02-19.945-4.404Q530.879-816 520-816h-98v114.923q75.615 9.385 116.808 62.577Q580-585.308 580-520v40.077Zm-42.769 330.615q3.846 1.539 6.923 1.539t6.923-1.539L779.692-221q-1.153-18.231-11.345-25.269-10.191-7.039-22.578-7.039H554.077q-19.462 0-39.577-2.384-20.115-2.385-41.731-8.154l-65.538-21.077q-9.108-2.991-12.746-11.963-3.639-8.973-.946-18.236 2.692-8.493 11.558-12.147t18.596-.962l64.999 23.462q16.308 6.538 35.731 7.384 19.423.846 55.116.077h10.23q0-18.692-6.884-29.231-6.885-10.538-19.731-16.076L337-425.077q-2.308-.769-4.231-1.154-1.923-.384-4.23-.384h-80v193.307l288.692 84ZM526-107.769l-277.461-80.538q-5.693 26.692-23.193 39.769-17.5 13.077-45.423 13.077h-29.769q-28.497 0-48.556-20.06-20.06-20.059-20.06-48.556V-402q0-28.496 20.06-48.556 20.059-20.06 48.556-20.06h177.615q6.462 0 12.308 1.116 5.846 1.115 12.077 3.115l227.154 83.692q22.461 9.154 37.962 31.308 15.5 22.154 15.5 54.077h112.999q38.238 0 58.927 24.616 20.689 24.615 20.689 57.384 0 12-8 21.77-8 9.769-16.462 12.923L565.539-107q-9.693 2.462-19.385 2.346-9.692-.115-20.154-3.115Zm-401.462-96.308q0 10.77 6.923 17.693 6.924 6.923 17.693 6.923h30.769q10.769 0 17.692-5.77 6.923-5.769 6.923-18.846v-222.538h-55.384q-10.769 0-17.693 6.923-6.923 6.923-6.923 17.692v197.923Zm241.154-359.308Zm339.291-10.769q-27.06 0-45.406-18.521t-18.346-45.479q0-16.154 14.308-47.923 14.307-31.769 38.307-68.385 3-3.23 10.885-5.692 1.731 0 11.605 6.552 25.28 38.756 39.087 68.641 13.808 29.884 13.808 46.807 0 26.958-18.594 45.479t-45.654 18.521Z"/></svg>