<svg xmlns="http://www.w3.org/2000/svg" height="20" viewBox="0 -960 960 960" width="20"><path d="m574-473-32-12v-46q-3-55-42-94t-100-39q-57 0-91 32t-43 76h-36q9-50 47-91t107-49v-126h-42q-6 0-11-5t-5-11q0-6 5-11t10.827-5H520q18 0 34.5 4t28.5 9q2 2 3.5 10t-5.5 12q-3 1-8 2.5t-10 .75q-11-3.25-21.214-4.75Q531.571-822 520-822H416v126q77 8 117.5 60.5T574-520v47Zm-43 323q5 2 9 2t9-2l227-71q0-21-10.306-28.5Q755.387-257 743-257H555q-19 0-40.5-2.5T470-268l-69-22q-6.8-2.298-9.4-9.194-2.6-6.896-.6-13.851 2-5.955 8.789-8.455T414-322l71 26q17 7 37 7.5t55-.5h10q0-21-7-32t-21-17l-225-82q-3-1-5.5-1.5t-5.5-.5h-86v185l294 87Zm-8 30-286-84q-5 26-21 38.5T173-153h-15q-26.65 0-45.325-18.675Q94-190.35 94-217v-173q0-26.65 18.675-45.325Q131.35-454 158-454h164q6 0 11.5 1t11.5 3l226 83q19 8 33 27.5t14 50.5h125q34.083 0 50.042 21.5Q809-246 809-219q0 9-6.5 17.5T791-191l-231 72q-9 2-18 2t-19-3Zm-398-97q0 14 9 23t23 9h16q14 0 23-7.5t9-24.5v-205h-48q-14 0-23 9t-9 23v173Zm237-339Zm327.752-32Q665-588 648.5-604.675 632-621.35 632-646q0-15 13.5-45.5T680-754q3-3 9.5-5 1.5 0 10.22 5.859Q722-719 735-690.5t13 44.5q0 24.65-16.748 41.325Q714.504-588 689.752-588Z"/></svg>