<svg xmlns="http://www.w3.org/2000/svg" height="24" viewBox="0 -960 960 960" width="24"><path d="M706.154-173.848q-56.215 0-95.03-38.815t-38.815-95.03q0-56.215 38.815-95.03t95.03-38.815q56.214 0 95.029 38.815 38.816 38.815 38.816 95.03t-38.816 95.03q-38.815 38.815-95.029 38.815ZM180.001-277.694v-59.998h304.615v59.998H180.001Zm73.845-240.768q-56.214 0-95.03-38.815-38.815-38.815-38.815-95.03t38.815-95.03q38.816-38.815 95.03-38.815 56.215 0 95.03 38.815t38.815 95.03q0 56.215-38.815 95.03t-95.03 38.815Zm221.538-103.846v-59.998h304.615v59.998H475.384Z"/></svg>