<svg xmlns="http://www.w3.org/2000/svg" height="24" viewBox="0 -960 960 960" width="24"><path d="M702.308-197.692q-49.431 0-83.562-34.131t-34.131-83.562q0-49.43 34.131-83.561 34.131-34.131 83.562-34.131t83.561 34.131Q820-364.815 820-315.385q0 49.431-34.131 83.562-34.13 34.131-83.561 34.131ZM200-295.384v-40.001h289.231v40.001H200Zm57.692-231.539q-49.431 0-83.561-34.131Q140-595.185 140-644.615q0-49.431 34.131-83.562 34.13-34.131 83.561-34.131 49.431 0 83.562 34.131t34.131 83.562q0 49.43-34.131 83.561-34.131 34.131-83.562 34.131Zm213.077-97.692v-40.001H760v40.001H470.769Z"/></svg>