<svg xmlns="http://www.w3.org/2000/svg" height="20" viewBox="0 -960 960 960" width="20"><path d="M688.308-191.692q-46.911 0-79.302-32.391-32.391-32.391-32.391-79.302 0-46.91 32.391-79.301 32.391-32.391 79.302-32.391 46.911 0 79.301 32.391Q800-350.295 800-303.385q0 46.911-32.391 79.302-32.39 32.391-79.301 32.391Zm.043-32q33.034 0 56.341-23.351Q768-270.395 768-303.428t-23.351-56.341q-23.351-23.308-56.385-23.308-33.033 0-56.341 23.351-23.308 23.352-23.308 56.385T631.967-247q23.351 23.308 56.384 23.308ZM208-287.384v-32.001h281.231v32.001H208Zm63.692-257.539q-46.911 0-79.301-32.391Q160-609.705 160-656.615q0-46.911 32.391-79.302 32.39-32.391 79.301-32.391t79.302 32.391q32.391 32.391 32.391 79.302 0 46.91-32.391 79.301-32.391 32.391-79.302 32.391Zm.044-32q33.033 0 56.341-23.351 23.308-23.352 23.308-56.385T328.033-713q-23.351-23.308-56.384-23.308-33.034 0-56.341 23.351Q192-689.605 192-656.572t23.351 56.341q23.351 23.308 56.385 23.308Zm199.033-63.692v-32.001H752v32.001H470.769Zm217.539 337.23Zm-416.616-353.23Z"/></svg>