<svg xmlns="http://www.w3.org/2000/svg" height="24" viewBox="0 -960 960 960" width="24"><path d="M480-720q-8 0-14-6t-6-14q0-8 6-14t14-6q8 0 14 6t6 14q0 8-6 14t-14 6Zm80 0q-8 0-14-6t-6-14q0-8 6-14t14-6q8 0 14 6t6 14q0 8-6 14t-14 6Zm-160 0q-8 0-14-6t-6-14q0-8 6-14t14-6q8 0 14 6t6 14q0 8-6 14t-14 6Zm280 40q-8 0-14-6t-6-14q0-8 6-14t14-6q8 0 14 6t6 14q0 8-6 14t-14 6Zm-320 0q-8 0-14-6t-6-14q0-8 6-14t14-6q8 0 14 6t6 14q0 8-6 14t-14 6Zm-80 0q-8 0-14-6t-6-14q0-8 6-14t14-6q8 0 14 6t6 14q0 8-6 14t-14 6Zm160 0q-8 0-14-6t-6-14q0-8 6-14t14-6q8 0 14 6t6 14q0 8-6 14t-14 6Zm80 0q-8 0-14-6t-6-14q0-8 6-14t14-6q8 0 14 6t6 14q0 8-6 14t-14 6Zm80 0q-8 0-14-6t-6-14q0-8 6-14t14-6q8 0 14 6t6 14q0 8-6 14t-14 6Zm-120 40q-8 0-14-6t-6-14q0-8 6-14t14-6q8 0 14 6t6 14q0 8-6 14t-14 6Zm80 0q-8 0-14-6t-6-14q0-8 6-14t14-6q8 0 14 6t6 14q0 8-6 14t-14 6Zm80 0q-8 0-14-6t-6-14q0-8 6-14t14-6q8 0 14 6t6 14q0 8-6 14t-14 6Zm-240 0q-8 0-14-6t-6-14q0-8 6-14t14-6q8 0 14 6t6 14q0 8-6 14t-14 6Zm-80 0q-8 0-14-6t-6-14q0-8 6-14t14-6q8 0 14 6t6 14q0 8-6 14t-14 6Zm40 40q-8 0-14-6t-6-14q0-8 6-14t14-6q8 0 14 6t6 14q0 8-6 14t-14 6Zm-80 0q-8 0-14-6t-6-14q0-8 6-14t14-6q8 0 14 6t6 14q0 8-6 14t-14 6Zm160 0q-8 0-14-6t-6-14q0-8 6-14t14-6q8 0 14 6t6 14q0 8-6 14t-14 6Zm80 0q-8 0-14-6t-6-14q0-8 6-14t14-6q8 0 14 6t6 14q0 8-6 14t-14 6Zm80 0q-8 0-14-6t-6-14q0-8 6-14t14-6q8 0 14 6t6 14q0 8-6 14t-14 6Zm80 0q-8 0-14-6t-6-14q0-8 6-14t14-6q8 0 14 6t6 14q0 8-6 14t-14 6Zm-480 0q-8 0-14-6t-6-14q0-8 6-14t14-6q8 0 14 6t6 14q0 8-6 14t-14 6Zm40-40q-8 0-14-6t-6-14q0-8 6-14t14-6q8 0 14 6t6 14q0 8-6 14t-14 6Zm80-80q-8 0-14-6t-6-14q0-8 6-14t14-6q8 0 14 6t6 14q0 8-6 14t-14 6Zm40-40q-8 0-14-6t-6-14q0-8 6-14t14-6q8 0 14 6t6 14q0 8-6 14t-14 6Zm80 0q-8 0-14-6t-6-14q0-8 6-14t14-6q8 0 14 6t6 14q0 8-6 14t-14 6Zm80 0q-8 0-14-6t-6-14q0-8 6-14t14-6q8 0 14 6t6 14q0 8-6 14t-14 6Zm80 0q-8 0-14-6t-6-14q0-8 6-14t14-6q8 0 14 6t6 14q0 8-6 14t-14 6Zm40 40q-8 0-14-6t-6-14q0-8 6-14t14-6q8 0 14 6t6 14q0 8-6 14t-14 6Zm80 80q-8 0-14-6t-6-14q0-8 6-14t14-6q8 0 14 6t6 14q0 8-6 14t-14 6Zm40 40q-8 0-14-6t-6-14q0-8 6-14t14-6q8 0 14 6t6 14q0 8-6 14t-14 6ZM360-390q-21 0-35.5-14.5T310-440q0-21 14.5-35.5T360-490q21 0 35.5 14.5T410-440q0 21-14.5 35.5T360-390Zm240 0q-21 0-35.5-14.5T550-440q0-21 14.5-35.5T600-490q21 0 35.5 14.5T650-440q0 21-14.5 35.5T600-390ZM480-132q-72 0-135.358-27.34-63.359-27.339-110.661-74.641-47.302-47.302-74.641-110.661Q132-408 132-479.564 132-552 159.5-615.5t74.5-111Q281-774 344.611-801q63.611-27 135.064-27Q552-828 615.5-801q63.5 27 111 74.5T801-615.563Q828-552.127 828-480q0 71.57-27 135.285T726.5-234q-47.5 47-110.937 74.5Q552.127-132 480-132Zm0-28q134 0 227-93.5T800-480q0-134-93-227t-227-93q-133 0-226.5 93T160-480q0 133 93.5 226.5T480-160Z"/></svg>