<svg xmlns="http://www.w3.org/2000/svg" height="24" viewBox="0 -960 960 960" width="24"><path d="M530-450q-13 0-21.5-8.5T500-480q0-13 8.5-21.5T530-510q13 0 21.5 8.5T560-480q0 13-8.5 21.5T530-450Zm-200 0q-13 0-21.5-8.5T300-480q0-13 8.5-21.5T330-510q13 0 21.5 8.5T360-480q0 13-8.5 21.5T330-450Zm300 0q-13 0-21.5-8.5T600-480q0-13 8.5-21.5T630-510q13 0 21.5 8.5T660-480q0 13-8.5 21.5T630-450Zm-200 0q-13 0-21.5-8.5T400-480q0-13 8.5-21.5T430-510q13 0 21.5 8.5T460-480q0 13-8.5 21.5T430-450ZM128.479-182.477q-44.305 0-75.153-30.849-30.849-30.848-30.849-75.153v-383.042q0-44.305 30.849-75.153 30.848-30.849 75.153-30.849h703.042q44.305 0 75.153 30.849 30.849 30.848 30.849 75.153v383.042q0 44.305-30.849 75.153-30.848 30.849-75.153 30.849H128.479Zm120-106.002h463.042v-383.042H248.479v383.042Z"/></svg>