<svg xmlns="http://www.w3.org/2000/svg" height="20" viewBox="0 -960 960 960" width="20"><path d="M107.824-107.824v-433.177h433.177v433.177H107.824Zm489.567 0v-98.002h78.783v98.002h-78.783ZM171.086-208.087H480L377.217-337.696l-76.522 90.783L249.304-312l-78.218 103.913Zm583.088-75.739v-78.783h98.002v78.783h-98.002Zm0-156.783v-78.782h98.002v78.782h-98.002Zm-646.35-156.782v-78.783h98.002v78.783h-98.002Zm646.35 0v-78.783h98.002v78.783h-98.002ZM283.826-754.174v-98.002h78.783v98.002h-78.783Zm156.783 0v-98.002h78.782v98.002h-78.782Zm156.782 0v-98.002h78.783v98.002h-78.783Zm-489.567 0v-98.002h98.002v98.002h-98.002Zm744.352 0h-98.002v-98.002h98.002v98.002Zm-98.002 646.35v-98.002h98.002v98.002h-98.002Z"/></svg>