<svg xmlns="http://www.w3.org/2000/svg" height="20" viewBox="0 -960 960 960" width="20"><path d="M128.695-128.695V-533.5H533.5v404.805H128.695Zm466.74 0v-83.001h74.869v83.001h-74.869Zm-412.283-83.957H480l-98.87-124.065-73.913 86.869L257.782-312l-74.63 99.348Zm565.152-77.044v-74.869h83.001v74.869h-83.001Zm0-152.869v-74.87h83.001v74.87h-83.001Zm-619.609-152.87v-74.869h83.001v74.869h-83.001Zm619.609 0v-74.869h83.001v74.869h-83.001ZM289.696-748.304v-83.001h74.869v83.001h-74.869Zm152.869 0v-83.001h74.87v83.001h-74.87Zm152.87 0v-83.001h74.869v83.001h-74.869Zm-466.74 0v-83.001h83.001v83.001h-83.001Zm702.61 0h-83.001v-83.001h83.001v83.001Zm-83.001 619.609v-83.001h83.001v83.001h-83.001Z"/></svg>