<svg xmlns="http://www.w3.org/2000/svg" height="24" viewBox="0 -960 960 960" width="24"><path d="m580-450 61.968 79q2.032 3 21.955 11Q681-360 689.5-375.5t-2.5-29.761l-57-74.36L687-555q11-13.696 3-29.348T664-600q-7 0-12.625 3T642-589l-61.504 79v-60q0-13-8.57-21.5-8.571-8.5-21.678-8.5-13.107 0-21.678 8.5Q520-583 520-570v180q0 13 8.5 21.5T550-360q13 0 21.5-8.5T580-390v-60Zm-192 30v30q0 13 8.5 21.5T418-360q13 0 21.5-8.5T448-390v-30h10q13 0 21.5-8.5T488-450q0-13-8.5-21.5T458-480h-10v-90q0-13-8.5-21.5T418-600q-13 0-21.5 8.5T388-570v90h-60v-90q0-13-8.5-21.5T298-600q-13 0-21.5 8.5T268-570v120q0 13 8.5 21.5T298-420h90ZM212-86q-53 0-89.5-36.5T86-212v-536q0-53 36.5-89.5T212-874h536q53 0 89.5 36.5T874-748v536q0 53-36.5 89.5T748-86H212Zm0-126h536v-536H212v536Zm0-536v536-536Z"/></svg>