<svg xmlns="http://www.w3.org/2000/svg" height="20" viewBox="0 -960 960 960" width="20"><path d="m576-456 49 63q1 1 17.757 9Q657-384 663-396.5q6-12.5-2-23.5l-45-60 46-61q8-11 1.647-23T643-576q-5 0-9.767 2.455-4.766 2.454-8.233 6.545l-49 63v-48q0-10.4-6.8-17.2-6.8-6.8-17.2-6.8-10.4 0-17.2 6.785-6.8 6.785-6.8 17.161v143.677Q528-398 534.8-391q6.8 7 17.2 7 10.4 0 17.2-6.8 6.8-6.8 6.8-17.2v-48Zm-187.128 23.688v24.156q0 10.468 6.825 17.312Q402.522-384 412.522-384t17-6.8q7-6.8 7-17.2v-24h24q10.4 0 17.2-6.8 6.8-6.8 6.8-17.2 0-10.4-6.8-17.2-6.8-6.8-17.2-6.8h-24v-71.651q0-10.349-6.8-17.349t-17.2-7q-10.4 0-17.2 6.8-6.8 6.8-6.8 17.2v72h-48v-72q0-10.4-6.8-17.2-6.8-6.8-17.2-6.8-10.4 0-17.2 6.779-6.8 6.779-6.8 17.147v95.706q0 10.368 6.825 17.212 6.825 6.844 17.263 6.844h72.262Zm-166.089 307.53q-41.005 0-69.503-28.498-28.498-28.498-28.498-69.503v-514.434q0-41.005 28.498-69.503 28.498-28.498 69.503-28.498h514.434q41.005 0 69.503 28.498 28.498 28.498 28.498 69.503v514.434q0 41.005-28.498 69.503-28.498 28.498-69.503 28.498H222.783Z"/></svg>