<svg xmlns="http://www.w3.org/2000/svg" height="20" viewBox="0 -960 960 960" width="20"><path d="m546.769-472.923 73.616 73q1 .231 8.526 3.615 8.858 0 11.397-7.5 2.538-7.5-2.385-13.115l-66.538-64.615 67.538-63.308q4.923-4.846 1.647-11.846t-10.647-7q-1.154 0-3.664.986-2.51.986-4.336 2.629l-75.154 71.462V-552q0-5.067-3.302-8.38-3.303-3.312-8.354-3.312-5.051 0-8.39 3.297-3.338 3.298-3.338 8.341v143.677q0 5.044 3.302 8.557 3.303 3.512 8.354 3.512 5.051 0 8.39-3.312 3.338-3.313 3.338-8.38v-64.923Zm-156.265 28.304v36.463q0 5.134 3.328 8.491 3.327 3.357 7.978 3.357 4.652 0 8.19-3.312 3.539-3.313 3.539-8.38v-36.308h45.538q5.067 0 8.379-3.302 3.313-3.303 3.313-8.354 0-5.051-3.313-8.39-3.312-3.338-8.379-3.338h-45.538v-83.959q0-5.016-3.303-8.529-3.303-3.512-8.354-3.512-5.051 0-8.39 3.312-3.338 3.313-3.338 8.38v84.308h-63.385V-552q0-5.067-3.302-8.38-3.303-3.312-8.354-3.312-5.052 0-8.39 3.292-3.338 3.292-3.338 8.326v95.706q0 5.035 3.337 8.392 3.338 3.357 8.442 3.357h75.34ZM240.615-184q-24.315 0-40.465-16.15Q184-216.3 184-240.615v-478.77q0-24.315 16.15-40.465Q216.3-776 240.615-776h478.77q24.315 0 40.465 16.15Q776-743.7 776-719.385v478.77q0 24.315-16.15 40.465Q743.7-184 719.385-184h-478.77Z"/></svg>