<svg xmlns="http://www.w3.org/2000/svg" height="24" viewBox="0 -960 960 960" width="24"><path d="m550.769-466.923 86.616 89q2 2.231 12.769 5.615 11.615 0 16.154-10.5 4.538-10.5-3.385-19.115l-77.538-79.615 78.538-78.308q7.923-7.846 3-17.846t-16-10q-3.154 0-6.397 1.531-3.244 1.532-5.603 4.084l-88.154 87.462V-570q0-7.667-5.002-12.68-5.003-5.012-12.654-5.012t-12.69 5.012q-5.038 5.013-5.038 12.68v180q0 7.667 5.002 12.68 5.003 5.012 12.654 5.012t12.69-5.012q5.038-5.013 5.038-12.68v-76.923Zm-164.615 34.615V-390q0 7.667 5.002 12.68 5.003 5.012 12.654 5.012 7.652 0 12.69-5.012 5.039-5.013 5.039-12.68v-42.308h31.538q7.667 0 12.679-5.002 5.013-5.003 5.013-12.654t-5.013-12.69q-5.012-5.038-12.679-5.038h-31.538V-570q0-7.667-5.003-12.68-5.003-5.012-12.654-5.012t-12.69 5.012q-5.038 5.013-5.038 12.68v102.308h-75.385V-570q0-7.667-5.002-12.68-5.003-5.012-12.654-5.012-7.652 0-12.69 5.012-5.038 5.013-5.038 12.68v120q0 7.667 5.012 12.68 5.013 5.012 12.68 5.012h93.077ZM224.615-160Q197-160 178.5-178.5 160-197 160-224.615v-510.77Q160-763 178.5-781.5 197-800 224.615-800h510.77Q763-800 781.5-781.5 800-763 800-735.385v510.77Q800-197 781.5-178.5 763-160 735.385-160h-510.77Z"/></svg>