<svg xmlns="http://www.w3.org/2000/svg" height="24" viewBox="0 -960 960 960" width="24"><path d="M224.615-160q-26.846 0-45.731-18.884Q160-197.769 160-224.615v-510.77q0-26.846 18.884-45.731Q197.769-800 224.615-800h411.616q12.923 0 25.115 5.231 12.193 5.23 20.885 13.923l98.615 98.615q8.693 8.692 13.923 20.885Q800-649.154 800-636.231v154.385q-9.769-3.385-19.885-3.962-10.115-.577-20.115.116v-160.539L646.231-760H224.615q-10.769 0-17.692 6.923T200-735.385v510.77q0 10.769 6.923 17.692T224.615-200h209.231v40H224.615ZM200-760v560-560Zm329.231 647.693v-42.924q0-6.461 2.23-12.038 2.231-5.577 7.462-10.808l203.615-202.615q5.924-5.923 12.308-8 6.385-2.077 12.769-2.077 6.616 0 13.385 2.577t11.923 7.73l37 37.77q4.923 5.923 7.5 12.307Q840-324 840-317.615q0 6.384-2.461 12.884-2.462 6.5-7.616 12.424L627.308-89.692q-5.231 5.23-10.808 7.461T604.462-80h-42.924q-13.923 0-23.115-9.192-9.192-9.192-9.192-23.115Zm275.384-205.308-37-37.77 37 37.77Zm-240 202.23h38l138.693-138.922-18.77-19-18.23-19.539-139.693 139.461v38Zm157.923-157.922-18.23-19.539 37 38.539-18.77-19ZM303.077-569.231h232.308q13.923 0 23.115-9.192 9.193-9.192 9.193-23.115v-55.385q0-13.923-9.193-23.116-9.192-9.192-23.115-9.192H303.077q-13.923 0-23.116 9.192-9.192 9.193-9.192 23.116v55.385q0 13.923 9.192 23.115 9.193 9.192 23.116 9.192ZM480-298.461q7.154 0 13.538-1.539 6.385-1.538 12.77-5.384l46.769-45.77q3.846-6.615 5.385-13.269Q560-371.077 560-378.461q0-33.077-23.461-56.539-23.462-23.462-56.539-23.462T423.461-435Q400-411.538 400-378.461t23.461 56.538q23.462 23.462 56.539 23.462Z"/></svg>