<svg xmlns="http://www.w3.org/2000/svg" height="20" viewBox="0 -960 960 960" width="20"><path d="M294.769-561.231h272.924v-104H294.769v104ZM434.462-184H240.615q-23.546 0-40.081-16.534Q184-217.069 184-240.615v-478.77q0-23.546 16.534-40.081Q217.069-776 240.615-776h390.616q11.145 0 21.726 4.231 10.582 4.23 19.274 12.923l86.615 86.615q8.693 8.692 12.923 19.274Q776-642.376 776-631.231v130q-7.769-2.384-14.731-1.461-6.961.923-14.961 3.615-21.385 1.693-41.965 9.621-20.579 7.929-35.804 23.687L541.616-339.615q4.846-8.616 6.384-17.885 1.539-9.269 1.539-19.423 0-28.846-19.577-48.423t-48.424-19.577q-28.846 0-48.423 19.577t-19.577 48.423q0 28.846 19.577 48.423t48.423 19.577q10.154 0 18.923-1.538 8.77-1.539 18.154-6.385l-67.769 67q-8.692 8.692-12.538 19.043-3.846 10.352-3.846 21.188V-184Zm102.769 43.693v-39.356q0-6.029 2.23-10.606 2.231-4.577 6.462-8.808l193.615-192.615q4.182-3.566 8.437-5.322 4.256-1.755 8.4-1.755 4.171 0 8.699 1.577 4.529 1.577 7.849 4.73l44 45.77q3.512 4.181 5.294 8.436Q824-334 824-329.856t-1.371 8.301q-1.371 4.158-5.706 8.248L624.308-120.692q-4.231 4.231-8.808 6.461Q610.923-112 604.894-112h-39.356q-12.223 0-20.265-8.042t-8.042-20.265Zm218.384-144.078 45-45.23-45-45.77-45 46 45 45Z"/></svg>