<svg xmlns="http://www.w3.org/2000/svg" height="20" viewBox="0 -960 960 960" width="20"><path d="M276-540h336v-144H276v144Zm174 430H228q-48.7 0-83.35-34.65Q110-179.3 110-228v-504q0-48.7 34.65-83.35Q179.3-850 228-850h409q23.222 0 44.611 8.5Q703-833 721-815l94 94q18 18 26.5 39.389Q850-660.222 850-637v167q-27-15-57.5-16.5T732-476q-13 6-24.426 13.544Q696.148-454.912 686-444L586-344q2-7 2-14v-14q0-45-31.5-76.5T480-480q-45 0-76.5 31.5T372-372q0 45 31.5 76.5T480-264h13.5q5.5 0 13.5-2l-23 23q-18 18-26 38.543-8 20.544-8 44.457v50Zm72 13v-58.432Q522-168 527-178q5-10 13-18l198-198q10.258-10.412 22.629-15.206Q773-414 785.759-414q13.556 0 25.815 5 12.259 5 22.426 15l44 45q9.588 10.258 14.794 22.629Q898-314 898-301.241q0 13.76-4.794 25.917Q888.412-263.167 878-253L680-55q-8 8-18 12.5T639.432-38H581q-24.3 0-41.65-17.35Q522-72.7 522-97Zm273-168 35-36-45-45-35 36 45 45Z"/></svg>