<svg xmlns="http://www.w3.org/2000/svg" height="20" viewBox="0 -960 960 960" width="20"><path d="M240.615-184q-23.546 0-40.081-16.534Q184-217.069 184-240.615v-478.77q0-23.546 16.534-40.081Q217.069-776 240.615-776h390.616q11.145 0 21.726 4.231 10.582 4.23 19.274 12.923l86.615 86.615q8.693 8.692 12.923 19.274Q776-642.376 776-631.231v145.385q-7.869-.923-15.934-.731-8.066.192-16.066 2.885v-157.539L641.231-744H240.615q-10.769 0-17.692 6.923T216-719.385v478.77q0 10.769 6.923 17.692T240.615-216h209.231v-2.077V-184H240.615ZM216-744v528-528Zm321.231 603.693v-39.356q0-6.029 2.23-10.606 2.231-4.577 6.462-8.808l193.615-192.615q4.182-4.335 8.437-5.706 4.256-1.371 8.4-1.371 4.171 0 8.699 1.577 4.529 1.577 7.849 4.73l44 45.77q3.512 4.181 5.294 8.436Q824-334 824-329.856t-1.755 8.301q-1.756 4.158-5.322 8.248L624.308-120.692q-4.231 4.231-8.808 6.461Q610.923-112 604.894-112h-39.356q-12.223 0-20.265-8.042t-8.042-20.265Zm263.384-189.308-45-45.77 45 45.77Zm-240 194.23h45l132.693-131.922-22.77-23-21.23-23.539-133.693 133.461v45Zm154.923-154.922-21.23-23.539 44 46.539-22.77-23ZM323.077-561.231h216.308q12.223 0 20.265-8.017 8.043-8.017 8.043-20.203v-47.209q0-12.186-8.043-20.379-8.042-8.192-20.265-8.192H323.077q-12.223 0-20.266 8.017-8.042 8.017-8.042 20.203v47.21q0 12.186 8.042 20.378 8.043 8.192 20.266 8.192ZM480-310.461q10.154 0 18.538-1.539 8.385-1.538 17.77-6.384l23.769-22.77q4.846-8.615 6.385-18.269Q548-369.077 548-378.461q0-28.077-19.961-48.039-19.962-19.962-48.039-19.962T431.961-426.5Q412-406.538 412-378.461t19.961 48.038q19.962 19.962 48.039 19.962Z"/></svg>