<svg xmlns="http://www.w3.org/2000/svg" height="24" viewBox="0 -960 960 960" width="24"><path d="M357.37-274.5q-85.283 0-145.392-60.109Q151.869-394.717 151.869-480q0-85.283 60.109-145.391Q272.087-685.5 357.37-685.5q73.717 0 129.293 45.5 55.576 45.5 71.011 114.5h156.174l-61.087-62.087 63.891-63.892L887.891-480 716.652-308.521l-64.891-63.892 62.087-62.087H557.674q-15.435 69-71.011 114.5-55.576 45.5-129.293 45.5Zm0-91q47.847 0 81.173-33.326T471.869-480q0-47.848-33.326-81.174Q405.217-594.5 357.37-594.5q-47.848 0-81.174 33.326Q242.87-527.848 242.87-480q0 47.848 33.326 81.174Q309.522-365.5 357.37-365.5Zm0-114.5Z"/></svg>