<svg xmlns="http://www.w3.org/2000/svg" height="24" viewBox="0 -960 960 960" width="24"><path d="M370.001-290.001q-78.85 0-134.425-55.558-55.575-55.558-55.575-134.384t55.575-134.441q55.575-55.615 134.425-55.615 71.461 0 123.846 45.5 52.384 45.5 63.692 114.5h187.539L671.693-584l42.153-42.153L859.999-480 713.846-333.847 671.078-376l74-74.001H557.539q-11.308 69-63.692 114.5-52.385 45.5-123.846 45.5Zm.045-59.998q54.186 0 92.071-37.93 37.884-37.93 37.884-92.116t-37.93-92.071q-37.93-37.885-92.116-37.885-54.185 0-92.07 37.93Q240-534.141 240-479.955t37.93 92.071q37.93 37.885 92.116 37.885ZM370.001-480Z"/></svg>