<svg xmlns="http://www.w3.org/2000/svg" height="24" viewBox="0 -960 960 960" width="24"><path d="M432.308-785.462v40.001q-10.308 2-20.616 5.653-10.307 3.654-20.615 8.193l-30-30q16.384-8.693 34.385-14.27 18-5.577 36.846-9.577Zm302.154 302.154q-4 18.846-9.577 36.846-5.577 18.001-14.27 34.385l-30-30q4.539-10.308 8.193-20.615 3.653-10.308 5.653-20.616h40.001ZM120-172v-200h40v160h160v40H120Zm680-520v-160H640v-40h200v200h-40ZM270.692-852l-40-40H320v40h-49.308ZM840-282.692l-40-40V-372h40v89.308ZM225.538-483.308h40.001q13.538 62.846 58.73 108.039 45.193 45.192 108.039 58.73v40.001q-78.923-14.77-135.462-71.308-56.538-56.539-71.308-135.462Zm71.308-231.077 28.308 27.539q-22.308 21.769-37.192 49.308-14.885 27.538-22.423 58.846h-40.001q7.77-39.846 25.962-74.077t45.346-61.616Zm339 338.231 27.539 28.308Q636-320.692 601.769-302.5q-34.231 18.192-74.077 25.962v-40.001q31.308-7.538 58.846-22.423 27.539-14.884 49.308-37.192ZM527.692-785.462q78.923 14.77 135.577 71.308 56.654 56.539 71.193 135.462h-40.001q-13.538-62.846-58.73-108.039-45.193-45.192-108.039-58.73v-40.001ZM782.154-172H640v-40h102.154L160-794.154V-692h-40v-142.154l-44.539-44.538L104-907.231l768.923 768.923-28.539 28.539L782.154-172Z"/></svg>