<svg xmlns="http://www.w3.org/2000/svg" height="20" viewBox="0 -960 960 960" width="20"><path d="M453.609-794.001v99.567q-5.478.869-10.456 2.456t-9.456 3.891l-77.74-77.175q23.695-11 48.391-18.152 24.696-7.152 49.261-10.587Zm300.392 300.392q-3.435 26.826-9.87 51.174-6.435 24.348-18.869 46.478l-77.175-77.74q3.304-5.043 4.391-9.174 1.087-4.13 1.956-10.738h99.567ZM76.781-116.782V-376h98.002v161.217H336v98.001H76.782ZM785.218-664v-161.217H624v-98.001h259.218V-664h-98.001Zm-488.65-161.217-98.002-98.001H336v98.001h-39.433ZM883.218-238l-98.001-98.001v-39.434h98.001V-238ZM205.999-484h99.567q10.435 52.913 47.978 90.456 37.543 37.543 90.456 47.978v99.567q-93.652-12-159.327-78.174Q218.999-390.348 205.999-484Zm78.957-232.044 69.088 69.088q-19.304 20.739-30.891 42.478T305.566-556h-99.567q6-47.826 25.848-87.087t53.109-72.957Zm319 320 69.088 69.088q-32.696 31.261-72.457 53.109-39.761 21.848-84.587 27.848v-99.567q25.739-5 47.978-18.587t39.978-31.891ZM516-794.001q93.652 13 159.544 78.674Q741.435-649.652 754.001-556h-99.567q-10.435-52.913-47.978-90.456-37.543-37.543-90.456-47.978v-99.567Zm263.392 677.219H624v-99.001h56.391L174.783-721.391V-664H76.782v-155.392L53.174-843l56.652-56.652 757.87 758.87-55.652 56.652-32.652-32.652Z"/></svg>