<svg xmlns="http://www.w3.org/2000/svg" height="24" viewBox="0 -960 960 960" width="24"><path d="M436.154-796.23v59.999q-9.154 2-18.308 5.077-9.154 3.076-18.308 6.846l-44.999-44.999q18.692-9.846 39.192-16.385 20.5-6.538 42.423-10.538ZM745.23-487.154q-4 21.923-10.538 42.423-6.539 20.5-16.385 39.192l-44.999-44.999q3.77-9.154 6.846-18.308 3.077-9.154 5.077-18.308h59.999ZM100.001-152.001V-372H160v160h160v59.999H100.001ZM800-692v-160H640v-59.999h219.999V-692H800ZM271.846-852l-59.998-59.999H320V-852h-48.154Zm588.153 588.152L800-323.846V-372h59.999v108.152ZM214.77-487.154h59.999q12.769 60.924 56.615 104.77 43.846 43.846 104.77 56.615v59.999q-85.461-14.385-146.23-75.154-60.769-60.769-75.154-146.23Zm75.154-234.538 42.152 41.768q-21.154 21.385-35.846 48.154-14.692 26.77-21.461 56.924H214.77q7.385-42.923 26.731-80.038 19.346-37.116 48.423-66.808Zm339 338.616 41.768 42.152Q641-311.847 603.884-292.501q-37.115 19.346-80.038 26.731v-59.999Q554-332.538 580.77-347.23q26.769-14.692 48.154-35.846ZM523.846-796.23q85.461 14.385 146.538 75.154 61.077 60.769 74.846 146.23h-59.999q-12.769-60.924-56.615-104.77-43.846-43.846-104.77-56.615v-59.999Zm250.232 644.229H640V-212h74.079L160-766.079V-692h-59.999v-134.078l-48.769-48.768 42.769-42.769 780.46 780.461-42.768 42.768L774.078-152Z"/></svg>