<svg xmlns="http://www.w3.org/2000/svg" height="24" viewBox="0 -960 960 960" width="24"><path d="M213.847-180.001V-240h61.308l77.076-258.384q6.847-23.692 26.231-37.654 19.384-13.961 43.077-13.961h116.922q23.693 0 43.077 13.961 19.384 13.962 26.231 37.654L684.845-240h61.308v59.999H213.847Zm236.154-462.307v-179.998h59.998v179.998h-59.998ZM678-547.539l-42.768-42.768L763-717.075l41.768 41.768L678-547.539Zm52.001 185.231v-59.998h179.998v59.998H730.001ZM282-547.539 155.232-675.307 197-717.075l127.768 126.768L282-547.539ZM50-362.308v-59.998H230v59.998H50.001Z"/></svg>