<svg xmlns="http://www.w3.org/2000/svg" height="24" viewBox="0 -960 960 960" width="24"><path d="M220.001-280v-579.999h519.998V-280H680v-520H280v520h-59.999ZM480.02-560.769q29.518 0 50.518-21.021 21-21.02 21-50.538 0-29.517-21.02-50.517-21.021-21-50.538-21-29.518 0-50.518 21.02t-21 50.538q0 29.518 21.02 50.518 21.021 21 50.538 21ZM404.001-73.847 361.848-116l54.001-54.001H220.001v-59.998h195.848L361.848-284l42.153-42.153L530.154-200 404.001-73.847ZM560-170.001v-59.998h179.999v59.998H560Zm-80-462.306Z"/></svg>