<svg xmlns="http://www.w3.org/2000/svg" height="20" viewBox="0 -960 960 960" width="20"><path d="m373.304-37.999-58.218-57.217 50.043-48.478H172.782v-80.479h192.347l-50.043-50.043 57.218-56.653 147.217 146.653L373.304-37.999Zm212.87-105.695v-80.479h201.044v80.479H586.174ZM172.782-296.479V-898.48h614.436v602.001H474.694l-102.39-102.39-99.825 102.39h-99.697Zm307.43-249.303q32.049 0 54.179-22.343 22.131-22.343 22.131-54.392 0-32.048-22.343-54.179-22.343-22.13-54.391-22.13-32.049 0-54.179 22.343-22.131 22.343-22.131 54.391 0 32.049 22.343 54.179 22.343 22.131 54.391 22.131Z"/></svg>