<svg xmlns="http://www.w3.org/2000/svg" height="20" viewBox="0 -960 960 960" width="20"><path d="M733.261-367.348q-48.478-42.239-76.837-100.837-28.359-58.598-28.359-123.794 0-64.478 27.5-122.153 27.5-57.675 76.5-99.803l47.196 56.956q-36.522 31-56.902 74-20.381 43-20.381 91.177 0 48.894 20.74 91.837 20.739 42.943 57.739 73.943l-47.196 58.674Zm93.435-114.87q-24.283-19.522-37.783-48.445-13.5-28.924-13.5-60.837 0-31.522 13.142-60.403 13.141-28.88 37.423-48.402l47.196 57.435q-12.043 9.283-18.185 22.804-6.141 13.522-6.141 28.685 0 15.163 6.022 29.305 6.021 14.141 18.543 23.423l-46.717 56.435ZM384.837-440.37q-63.707 0-107.978-43.772-44.272-43.771-44.272-107.226 0-63.454 44.272-108.358 44.271-44.905 107.858-44.905t107.859 44.905q44.272 44.904 44.272 108.358 0 63.455-44.152 107.226-44.152 43.772-107.859 43.772ZM88.587-136.348v-105.369q0-27.587 15.272-49.261 15.271-21.674 36.271-34.674 55-33 117.794-50.359 62.793-17.359 126.793-17.359t126.794 17.12q62.793 17.119 117.793 50.119 20 13 35.772 34.913 15.772 21.914 15.772 49.501v105.369H88.587Zm83-83h426.261v-21.174q0-4.551-3-7.917-3-3.365-8-6.365-47-29-98.522-42.283-51.522-13.283-103.609-13.283-52.087 0-103.608 13.403-51.522 13.402-98.522 42.215-5 2.948-8 6.313-3 3.366-3 7.917v21.174ZM384.921-523.37q28.601 0 48.764-19.655 20.163-19.654 20.163-48.547 0-28.892-20.367-49.475-20.367-20.584-48.968-20.584-28.6 0-48.763 20.575-20.163 20.575-20.163 49.467 0 28.893 20.367 48.556 20.367 19.663 48.967 19.663Zm-.204-68.13Zm0 372.152Z"/></svg>