<svg xmlns="http://www.w3.org/2000/svg" height="20" viewBox="0 -960 960 960" width="20"><path d="M750-413q-50-43-79.5-103.5T641-646q0-66 27.5-124.231Q696-828.462 745-871l51 60q-35 31-55 74t-20 91.176q0 51.177 21.5 94.501Q764-508 801-477l-51 64Zm98-124q-22-18-35.5-46.682Q799-612.364 799-644q0-30 12-58.5t34-46.5l51 62q-9 7-14 19t-5 24.5q0 12.5 4.5 25.5t15.5 20l-49 61Zm-460.5 70q-75.5 0-127-51T209-643.867q0-74.867 51.5-127Q312-823 387-823t126.5 52.133q51.5 52.133 51.5 127Q565-569 514-518t-126.5 51ZM65-112v-132q0-39 22.5-66t43.5-40q55-33 123.5-51.5T387-420q64 0 132.5 17.5T643-352q20 13 43 41t23 67v132H65Zm118-118h408v-9q0-4.552-3-6.776T580-251q-47-29-97-40t-96-11q-46 0-96 11.5t-97 39.717q-5 2.783-8 5.007-3 2.224-3 6.776v9Zm204.177-355Q412-585 429.5-601.965q17.5-16.964 17.5-42.079 0-25.115-17.677-43.036-17.677-17.92-42.5-17.92T344.5-687.115q-17.5 17.885-17.5 43T344.677-602q17.677 17 42.5 17ZM387-644Zm0 414Z"/></svg>