<svg xmlns="http://www.w3.org/2000/svg" height="20" viewBox="0 -960 960 960" width="20"><path d="M246-338q-21.45 0-36.725-15.275Q194-368.55 194-390v-444q0-21.45 15.275-36.725Q224.55-886 246-886h184q21.45 0 36.725 15.275Q482-855.45 482-834v48h-98q-5.6 0-11.8 6.2-6.2 6.2-6.2 11.8 0 5.6 6.2 11.8 6.2 6.2 11.8 6.2h98.099v6.286q0 12.571-.05 27.143Q482-702 483-690h-99q-7.2 0-12.6 5.4-5.4 5.4-5.4 12.6 0 7.2 5.4 12.6 5.4 5.4 12.6 5.4h107.615Q496-643 505.5-637t20.5 10l164 50q30.103 7.606 48.052 33.076Q756-518.453 756-487v97q0 21.45-15.275 36.725Q725.45-338 704-338H246ZM222.118-61Q185-61 153.5-89.882q-31.5-28.883-31.5-66Q122-193 144.382-215.5q22.383-22.5 59.5-22.5Q241-238 263.5-215.618q22.5 22.383 22.5 59.5Q286-119 272.618-90q-13.383 29-50.5 29Zm534.5-13Q720-74 697-96.382q-23-22.383-23-59.5Q674-193 696.882-215.5q22.883-22.5 59.5-22.5Q793-238 815.5-215.618q22.5 22.383 22.5 59.5Q838-119 815.618-96.5q-22.383 22.5-59 22.5Zm-277 0Q443-74 420.5-96.382q-22.5-22.383-22.5-59.5Q398-193 420.382-215.5q22.383-22.5 59-22.5Q516-238 539-215.618q23 22.383 23 59.5Q562-119 539.118-96.5 516.235-74 479.618-74Z"/></svg>