<svg xmlns="http://www.w3.org/2000/svg" height="20" viewBox="0 -960 960 960" width="20"><path d="M480.235-740Q467-740 457.5-749.333 448-758.667 448-772q0-6.13 3.5-16.565Q455-799 468-823q3.75-6 11.875-6T492-823q13 24 16.5 34.435Q512-778.13 512-772q0 13.333-9.265 22.667-9.264 9.333-22.5 9.333Zm-180 0Q287-740 277.5-749.333 268-758.667 268-772q0-6.13 3.5-16.565Q275-799 288-823q3.75-6 11.875-6T312-823q13 24 16.5 34.435Q332-778.13 332-772q0 13.333-9.265 22.667-9.264 9.333-22.5 9.333Zm360 0Q647-740 637.5-749.333 628-758.667 628-772q0-6.13 3.5-16.565Q635-799 648-823q3.75-6 11.875-6T672-823q13 24 16.5 34.435Q692-778.13 692-772q0 13.333-9.265 22.667-9.264 9.333-22.5 9.333ZM200-196v70q0 .833-.618 1.417-.617.583-1.5.583-.882 0-1.382-.583-.5-.584-.5-1.417v-263.889q0-4.704 1-9.407 1-4.704 2.766-10.937l64.427-154.311q5.702-14.234 18.675-22.845Q295.842-596 311-596h338q15.158 0 28.132 8.611 12.973 8.611 18.675 22.845l64.427 154.311Q762-404 763-399.296q1 4.703 1 9.407V-126q0 .833-.618 1.417-.617.583-1.5.583-.882 0-1.382-.583-.5-.584-.5-1.417v-70H200Zm21-200h518l-62-159q-4-10-12-15.5t-19-5.5H314q-11 0-19 5.5T283-555l-62 159Zm-5 20v160-160Zm92.235 108Q320-268 328-276.235q8-8.236 8-20Q336-308 327.765-316q-8.236-8-20-8Q296-324 288-315.765q-8 8.236-8 20Q280-284 288.235-276q8.236 8 20 8Zm344 0Q664-268 672-276.235q8-8.236 8-20Q680-308 671.765-316q-8.236-8-20-8Q640-324 632-315.765q-8 8.236-8 20Q624-284 632.235-276q8.236 8 20 8ZM216-216h528v-160H216v160Z"/></svg>