<svg xmlns="http://www.w3.org/2000/svg" height="24" viewBox="0 -960 960 960" width="24"><path d="M480.181-756.923q-19.796 0-33.835-13.91-14.038-13.911-14.038-33.782 0-13.485 5.692-23.974 5.692-10.488 29.308-40.873 5.038-6.461 12.596-6.461t12.788 6.461q23.616 30.385 29.308 40.873 5.692 10.489 5.692 23.974 0 19.871-13.857 33.782-13.858 13.91-33.654 13.91Zm-190.769 0q-19.797 0-33.835-13.91-14.039-13.911-14.039-33.782 0-13.485 5.693-23.974 5.692-10.488 29.307-40.873 5.039-6.461 12.597-6.461 7.557 0 12.788 6.461 23.615 30.385 29.308 40.873 5.692 10.489 5.692 23.974 0 19.871-13.857 33.782-13.858 13.91-33.654 13.91Zm381.538 0q-19.796 0-33.835-13.91-14.038-13.911-14.038-33.782 0-13.485 5.692-23.974 5.693-10.488 29.308-40.873 5.038-6.461 12.596-6.461t12.789 6.461q23.615 30.385 29.307 40.873 5.693 10.489 5.693 23.974 0 19.871-13.858 33.782-13.857 13.91-33.654 13.91ZM209.231-160v55.385q0 10.256-7.206 17.436t-17.5 7.18q-10.294 0-17.41-7.18Q160-94.36 160-104.615v-278.308q0-5.462.615-10.923.616-5.462 2.436-10.872l68.256-192.051q6.381-19.214 23.13-31.223Q271.186-640 291.923-640h376.154q20.737 0 37.486 12.008 16.749 12.009 23.13 31.223l68.256 192.051q1.82 5.41 2.436 10.872.615 5.461.615 10.923v278.308q0 10.256-7.206 17.436t-17.5 7.18Q765-80 757.885-87.18q-7.116-7.18-7.116-17.436V-160H209.231Zm7.384-273.846h526.77l-52.77-150q-3.077-7.693-9.23-11.923Q675.231-600 666.769-600H293.231q-8.462 0-14.616 4.231-6.153 4.23-9.23 11.923l-52.77 150Zm-16.615 40V-200v-193.846Zm97.104 141.538q18.665 0 31.55-13.065 12.885-13.066 12.885-31.731t-13.066-31.55q-13.066-12.885-31.731-12.885t-31.55 13.066q-12.884 13.066-12.884 31.731t13.065 31.55q13.066 12.884 31.731 12.884Zm366.154 0q18.665 0 31.55-13.065 12.884-13.066 12.884-31.731t-13.065-31.55q-13.066-12.885-31.731-12.885t-31.55 13.066q-12.885 13.066-12.885 31.731t13.066 31.55q13.066 12.884 31.731 12.884ZM200-200h560v-193.846H200V-200Z"/></svg>