<svg xmlns="http://www.w3.org/2000/svg" height="24" viewBox="0 -960 960 960" width="24"><path d="M218.521-133.999q-36.957 0-63.001-25.761-26.043-25.761-26.043-62.717 0-36.957 26.043-63.001 26.044-26.043 63.001-26.043 36.956 0 62.717 26.043 25.761 26.044 25.761 63.001 0 36.956-25.761 62.717-25.761 25.761-62.717 25.761Zm354.48 0q-36.957 0-62.718-25.761-25.761-25.761-25.761-62.717 0-36.957 25.761-63.001 25.761-26.043 62.718-26.043 36.956 0 62.717 26.043 25.761 26.044 25.761 63.001 0 36.956-25.761 62.717-25.761 25.761-62.717 25.761ZM395.478-302.477q-36.957 0-62.718-26.044-25.761-26.044-25.761-63 0-36.957 25.761-62.718Q358.521-480 395.478-480q36.957 0 63 25.761 26.044 25.761 26.044 62.718 0 36.956-26.044 63-26.043 26.044-63 26.044Zm346.001 0q-36.956 0-62.717-26.044-25.761-26.044-25.761-63 0-36.957 25.761-62.718Q704.523-480 741.479-480q36.957 0 63.001 25.761 26.043 25.761 26.043 62.718 0 36.956-26.043 63-26.044 26.044-63.001 26.044ZM218.521-480q-36.957 0-63.001-25.761-26.043-25.761-26.043-62.718 0-36.956 26.043-63 26.044-26.044 63.001-26.044 36.956 0 62.717 26.044 25.761 26.044 25.761 63 0 36.957-25.761 62.718Q255.477-480 218.521-480Zm354.48 0q-36.957 0-62.718-25.761-25.761-25.761-25.761-62.718 0-36.956 25.761-63 25.761-26.044 62.718-26.044 36.956 0 62.717 26.044 25.761 26.044 25.761 63 0 36.957-25.761 62.718Q609.957-480 573.001-480ZM395.478-648.479q-36.957 0-62.718-26.043-25.761-26.044-25.761-63.001 0-36.956 25.761-62.717 25.761-25.761 62.718-25.761 36.957 0 63 25.761 26.044 25.761 26.044 62.717 0 36.957-26.044 63.001-26.043 26.043-63 26.043Zm346.001 0q-36.956 0-62.717-26.043-25.761-26.044-25.761-63.001 0-36.956 25.761-62.717 25.761-25.761 62.717-25.761 36.957 0 63.001 25.761 26.043 25.761 26.043 62.717 0 36.957-26.043 63.001-26.044 26.043-63.001 26.043Z"/></svg>