<svg xmlns="http://www.w3.org/2000/svg" height="20" viewBox="0 -960 960 960" width="20"><path d="M120-188.615v-68.077l120 39.923 389.923-128.539 86.77 115.923q26.615 34.308 7.346 71.847Q704.77-120 662-120H188.615q-28.846 0-48.731-19.884Q120-159.769 120-188.615Zm120-74.616-120-38.385V-409l120 39.923L451.539-438l137.538 59.769-349.077 115Zm500.077-178.538 83-37q12.231-4.616 19.193-16.385 6.961-11.769 6.961-24.461v-38q0-15.154-9.654-27.001-9.654-11.846-24.808-15.769l-75-16q-9.769-3.461-18.923-.885-9.154 2.577-17.231 9.193l-37 30q-8.077 6.615-12.73 14.269-4.654 7.654-4.654 19.193v40q0 11.538 4.654 19.192 4.653 7.654 12.73 14.269l27.231 23q10.539 8.077 22 9.923 11.462 1.847 24.231-3.538ZM240-415.539l-120-38.384v-77.462q0-28.846 19.884-48.731Q159.769-600 188.615-600h77.847q16.153 0 30.192 7.077 14.038 7.077 23.731 20L402-467.846l-162 52.307Zm266.385-246.615 105.23-43q12.462-5.384 20.424-16.769Q640-733.308 640-746.231v-74q0-15.385-10.654-27.731-10.654-12.346-25.807-16.038l-97.231-19q-8.539-1.462-17.231.384-8.692 1.846-15.769 6.231l-54.77 36Q410-833.77 405-824.5q-5 9.269-5 20.269v70q0 11 5 20.269 5 9.27 13.538 15.885l46.77 30q8.538 5.616 19.038 7.462t22.039-1.539Z"/></svg>