<svg xmlns="http://www.w3.org/2000/svg" height="24" viewBox="0 -960 960 960" width="24"><path d="M100.001-172.309v-81.537L240-208.385l414.46-137.769 98.384 130.461q27.307 36.154 7.423 75.923-19.885 39.769-65.269 39.769H172.309q-29.923 0-51.115-21.193-21.193-21.192-21.193-51.115ZM240-271.615l-139.999-46.691V-410L240-364.539 481.767-445l122.77 51.386L240-271.615Zm520.537-158.77 88-39q16.615-7.308 26.345-22.192 9.731-14.884 9.731-32.73v-44q0-21.077-13.077-37.499-13.076-16.423-34.153-20.884l-80-18q-13.384-3.231-26.461.307-13.076 3.539-23.615 11.846l-40 32q-10.538 8.308-16.614 20.384-6.077 12.077-6.077 25.846v44q0 13.769 6.077 25.845 6.076 12.077 16.614 20.384l31.616 26q12.769 10.539 29.499 12.462 16.73 1.923 32.115-4.769ZM240-427.768 100.001-474.46v-73.231q0-29.923 21.193-51.115 21.192-21.193 51.115-21.193H274.23q17.077 0 32.346 7.539 15.269 7.538 25.115 21l81.308 106.538L240-427.768Zm271.692-231.309 110.615-44q17.23-6.692 27.461-21.884 10.231-15.192 10.231-33.653v-80q0-21.692-13.577-38.615-13.577-16.922-34.653-20.768l-103.615-21q-11.769-2.231-23.115.192-11.346 2.423-21.884 9.115l-56.385 38q-12.769 8.308-19.769 21.692-7 13.384-7 28.384v74q0 14.999 7 28.384 7 13.384 19.769 21.691l49.385 33q12.769 8.308 27.268 9.731 14.5 1.423 28.269-4.269Z"/></svg>