<svg xmlns="http://www.w3.org/2000/svg" height="24" viewBox="0 -960 960 960" width="24"><path d="M151.521-45.52H685.52q65.827 0 94.892-58.131 29.066-58.131-10.543-111.132L633.782-397.174l-205.087-85.652L342.87-597.26q-14.392-20.088-36.762-31.414T258.521-640h-107q-43.739 0-74.87 31.131-31.131 31.131-31.131 74.87v382.478q0 43.739 31.13 74.87 31.132 31.131 74.871 31.131Zm-9.044-96.957v-58.348l80 26 364.957-121.13 115.043 153.478h-560Zm80-134.436-80-27v-69.913l80 26 154.044-50.304 87.521 40.739-241.565 80.478Zm583.568-139.13 68.216-30.522q28.783-12.826 46.022-38.261 17.24-25.435 17.24-57.348v-26.478q0-35.913-23.718-62.435-23.718-26.522-59.631-34.218l-58.521-12.913q-23.652-5.13-46.522.5-22.87 5.631-41.957 20.022l-27 21.826q-19.087 14.957-29.63 36.544Q640-577.739 640-553.521v27.042q0 23.653 10.544 44.675 10.543 21.022 27.935 36.544L697.478-430q22.087 19.652 51.653 23 29.565 3.348 56.914-9.043Zm-583.568-33.87-80-27v-65.564h120l49.739 62.651-89.739 29.913Zm539.697-53.261-24.651-19.348v-34.956l33.217-26.913L840-569.217v31.565l-77.826 34.478ZM535.392-651.478l86.695-34.391q30.348-11.826 48.37-38.892 18.022-27.065 18.022-59.413v-47.781q0-38.044-23.935-67.61-23.935-29.565-60.979-36.826l-77.434-15.348q-20.522-4.131-40.892 0-20.369 4.13-38.326 15.957l-39.608 26.13q-22.087 14.391-34.696 38.043Q360-847.956 360-821.173v50.825q0 26.783 12.609 50.435 12.609 23.653 34.696 38.044l30.347 19.999q22.087 14.392 47.805 17.24 25.717 2.848 49.935-6.848Zm-41.305-84.174-41.086-27.913v-64.391l50.217-33.478 92.26 18.739v66.999l-101.391 40.044Z"/></svg>