<svg xmlns="http://www.w3.org/2000/svg" height="20" viewBox="0 -960 960 960" width="20"><path d="M176.309-100.001h510.689q47.384 0 68.769-41.769 21.384-41.769-7.923-79.923l-122.46-163.306-199.231-82.308-93.462-122.153q-10.846-14.462-26.615-22.5-15.769-8.039-33.846-8.039h-95.921q-31.923 0-54.115 22.193-22.193 22.192-22.193 54.115v367.382q0 31.923 22.193 54.115 22.192 22.193 54.115 22.193ZM164-176.309v-55.076l76 25 351.076-116.693 105.923 139.461q4.616 6.154 1.154 12.886Q694.691-164 686.998-164H176.309q-5.385 0-8.847-3.462-3.462-3.462-3.462-8.847Zm76-97.306-76-24.615v-89.309l76 25 150.769-49.846 114.463 50.616L240-273.615Zm523.537-157.77 83-37q17.615-7.308 27.845-23.692 10.231-16.384 10.231-35.23v-38q0-22.077-14.077-39.499-14.076-17.423-36.153-22.884l-75-16q-14.384-4.231-27.961-.693-13.576 3.539-25.115 12.846l-37 30q-11.538 9.308-18.114 21.384-6.577 12.077-6.577 27.846v40q0 15.769 6.577 27.845 6.576 12.077 18.114 21.384l27.616 23q14.769 11.539 31.999 13.962 17.23 2.423 34.615-5.269ZM240-429.768l-76-24.616v-89.307q0-5.385 3.462-8.847 3.462-3.462 8.847-3.462h95.537q3.077 0 5.577 1.154t4.423 3.462l67.001 85.923L240-429.768Zm497.614-60.539-29-22v-40l37-30 75 17v38l-83 37Zm-223.922-168.77 105.615-43q18.23-7.692 29.461-23.884 11.231-16.192 11.231-35.653v-74q0-22.692-15.077-40.615-15.077-17.922-37.153-22.768l-97.615-19q-12.769-2.231-25.115.192-12.346 2.423-22.884 9.115l-54.385 36q-12.769 9.308-20.269 23.192-7.5 13.884-7.5 29.884v70q0 15.999 7.5 29.884 7.5 13.884 20.269 23.191l46.385 30q12.769 8.308 28.268 10.731 15.5 2.423 31.269-3.269ZM490-719.614l-46-30v-70l54-36 98 20v74l-106 42Z"/></svg>