<svg xmlns="http://www.w3.org/2000/svg" height="20" viewBox="0 -960 960 960" width="20"><path d="M155.521-45.52H677.52q67.827 0 98.392-60.131 30.566-60.131-11.043-115.132L633.782-397.174l-205.087-85.652L343.87-595.26q-15.392-21.088-38.262-32.914T256.521-640h-101q-45.739 0-77.87 32.131-32.131 32.131-32.131 77.87v374.478q0 45.739 32.13 77.87 32.132 32.131 77.871 32.131Zm-9.044-100.957v-51.348l76 25 361.957-120.13 110.043 146.478h-548Zm76-132.436-76-25v-66.913l76 25 151.044-49.304 82.521 38.739-233.565 77.478Zm586.568-138.13 63.216-28.522q29.783-12.826 47.522-39.761 17.74-26.935 17.74-59.848v-20.478q0-36.913-24.718-64.435-24.718-27.522-61.631-36.218l-53.521-10.913q-24.652-6.13-48.022-.5-23.37 5.631-43.457 21.022l-24 19.826q-20.087 15.957-31.13 37.544Q640-577.739 640-551.521v23.042q0 25.653 11.044 46.675 11.043 21.022 29.435 37.544L695.478-432q24.087 20.652 54.153 24.5 30.065 3.848 59.414-9.543Zm-586.568-34.87-76-25v-61.564h114l46.739 58.651-84.739 27.913Zm540.697-56.261-21.651-16.348v-30.956l30.217-24.913L836-566.217v25.565l-72.826 32.478ZM537.392-651.478l81.695-33.391q31.348-12.826 50.37-40.892 19.022-28.065 19.022-61.413v-41.781q0-39.044-25.435-69.61-25.435-30.565-63.479-38.826l-71.434-13.348q-21.522-4.131-42.892 0-21.369 4.13-39.326 15.957l-37.608 24.13q-22.087 15.391-35.196 39.543Q360-846.956 360-819.173v46.825q0 27.783 13.109 51.935 13.109 24.153 35.196 39.544l27.347 16.999q22.087 14.392 48.805 18.24 26.717 3.848 52.935-5.848Zm-42.305-89.174-38.086-24.913v-60.391l47.217-31.478 87.26 17.739v60.999l-96.391 38.044Z"/></svg>