<svg xmlns="http://www.w3.org/2000/svg" height="20" viewBox="0 -960 960 960" width="20"><path d="M100.001-176.309v-76.537L240-206.385l416.46-137.769 91.384 122.461q29.307 38.154 7.923 79.923-21.385 41.769-68.769 41.769H176.309q-31.923 0-54.115-22.193-22.193-22.192-22.193-54.115ZM240-273.615l-139.999-45.691V-409L240-362.539 485.767-443l116.77 49.386L240-273.615Zm523.537-157.77 83-37q17.615-7.308 27.845-23.692 10.231-16.384 10.231-35.23v-38q0-22.077-14.077-39.499-14.076-17.423-36.153-22.884l-75-16q-14.384-4.231-27.961-.693-13.576 3.539-25.115 12.846l-37 30q-11.538 9.308-18.114 21.384-6.577 12.077-6.577 27.846v40q0 15.769 6.577 27.845 6.576 12.077 18.114 21.384l27.616 23q14.769 11.539 31.999 13.962 17.23 2.423 34.615-5.269ZM240-429.768 100.001-475.46v-68.231q0-31.923 22.193-54.115 22.192-22.193 54.115-22.193h95.921q18.077 0 33.846 8.039 15.769 8.038 26.615 22.5l79.308 103.538L240-429.768Zm273.692-229.309 105.615-43q18.23-7.692 29.461-23.884 11.231-16.192 11.231-35.653v-74q0-22.692-15.077-40.615-15.077-17.922-37.153-22.768l-97.615-19q-12.769-2.231-25.115.192-12.346 2.423-22.884 9.115l-54.385 36q-12.769 9.308-20.269 23.192-7.5 13.884-7.5 29.884v70q0 15.999 7.5 29.884 7.5 13.884 20.269 23.191l46.385 30q12.769 8.308 28.268 10.731 15.5 2.423 31.269-3.269Z"/></svg>