<svg xmlns="http://www.w3.org/2000/svg" height="24" viewBox="0 -960 960 960" width="24"><path d="M718.462-620v-49.231q0-35.308 22.346-57.654 22.346-22.346 57.654-22.346 35.307 0 57.654 22.346 22.346 22.346 22.346 57.654V-620h-160Zm-636.924 0v-49.231q0-35.308 22.346-57.654 22.347-22.346 57.654-22.346 35.308 0 57.654 22.346 22.346 22.346 22.346 57.654V-620h-160Zm0 418.462v-387.693h160v427.693h-120q-16.077 0-28.038-11.962-11.962-11.961-11.962-28.038Zm190.769 40v-446.155l182.077-155.461q5.616-5.154 12.134-7.462 6.519-2.307 13.539-2.307t13.482 2.307q6.461 2.308 12.077 7.462l182.077 155.461v446.155H580q-13.731 0-23.019-9.289-9.289-9.288-9.289-23.019V-320q0-29.923-18.884-48.808-18.885-18.884-48.808-18.884t-48.808 18.884Q412.308-349.923 412.308-320v126.154q0 13.731-9.289 23.019-9.288 9.289-23.019 9.289H272.307Zm446.155 0v-427.693h160v387.693q0 16.077-11.962 28.038-11.961 11.962-28.038 11.962h-120ZM480.181-515.385q18.665 0 31.55-13.065 12.884-13.066 12.884-31.731t-13.065-31.55q-13.066-12.884-31.731-12.884t-31.55 13.065q-12.884 13.066-12.884 31.731t13.065 31.55q13.066 12.884 31.731 12.884Z"/></svg>