<svg xmlns="http://www.w3.org/2000/svg" height="24" viewBox="0 -960 960 960" width="24"><path d="M60-180v-500q0-41.667 29.14-70.833Q118.28-780 159.91-780q41.629 0 70.859 29.167Q260-721.667 260-680v55.846l194.154-167q5.487-5.142 12.221-7.455 6.735-2.314 13.718-2.314 6.984 0 13.652 2.314 6.668 2.313 12.101 7.455l194.154 167V-680q0-41.667 29.14-70.833Q758.281-780 799.909-780q41.63 0 70.86 29.167Q900-721.667 900-680v500q0 16.077-11.961 28.039Q876.077-140 860-140H556.154q-6.462 0-11.308-4.846T540-156.154V-320q0-24.692-17.654-42.346Q504.692-380 480-380q-24.692 0-42.346 17.654Q420-344.692 420-320v163.846q0 6.462-4.846 11.308T403.846-140H100q-16.077 0-28.038-11.961Q60-163.923 60-180Zm680-440h120v-60q0-24.692-17.654-42.346Q824.692-740 800-740q-24.692 0-42.346 17.654Q740-704.692 740-680v60Zm-640 0h120v-60q0-24.692-17.654-42.346Q184.692-740 160-740q-24.692 0-42.346 17.654Q100-704.692 100-680v60Zm0 440h120v-400H100v400Zm160 0h120v-140q0-41.667 29.14-70.833Q438.28-420 479.91-420q41.629 0 70.859 29.167Q580-361.667 580-320v140h120v-391.461L480-761.154 260-571.461V-180Zm480 0h120v-400H740v400ZM479.819-515.385q-18.665 0-31.55-13.065-12.884-13.066-12.884-31.731t13.065-31.55q13.066-12.884 31.731-12.884t31.55 13.065q12.884 13.066 12.884 31.731t-13.065 31.55q-13.066 12.884-31.731 12.884Z"/></svg>