<svg xmlns="http://www.w3.org/2000/svg" height="20" viewBox="0 -960 960 960" width="20"><path d="M768-701v-41q0-33.7 26.712-60.35 26.713-26.65 60.5-26.65Q889-829 916-802.35T943-742v41H768Zm-751 0v-41q0-33.7 27.212-60.35 27.213-26.65 61-26.65Q139-829 165.5-802.35T192-742v41H17Zm0 442v-387h175v517h-45q-54.65 0-92.325-37.675Q17-204.35 17-259Zm238 130v-549l141.055-117.38Q414-811 435.325-818q21.325-7 44.675-7 23.35 0 44.675 7 21.325 7 39.27 22.62L705-678v549h-69.737Q611-129 593.5-146.35 576-163.7 576-188v-100q0-41.6-28-68.8-28-27.2-68-27.2t-68 27.2q-28 27.2-28 68.8v100q0 24.3-17.35 41.65Q349.3-129 325-129h-70Zm513 0v-517h175v387q0 54.65-37.675 92.325Q867.65-129 813-129h-45ZM480-504q25 0 42.5-17.5T540-564q0-25-17.5-42.5T480-624q-25 0-42.5 17.5T420-564q0 25 17.5 42.5T480-504Z"/></svg>