<svg xmlns="http://www.w3.org/2000/svg" height="20" viewBox="0 -960 960 960" width="20"><path d="M480.169-68Q393-68 317.013-100.584q-75.988-32.583-132.917-89.512T94.584-323.013Q62-399 62-486.169q0-63.906 18.5-124.368Q99-671 135-724l-57.08-58.92Q65-796 65-812.605q0-16.606 13.105-29.5Q91.21-855 108.605-855T139-842l698 697q13 13 12.5 30.5T836.105-84q-12.894 13-30 13Q789-71 775.92-84.108L718-141q-53 36-113.463 54.5Q544.075-68 480.169-68ZM496-364 358-501l-63.071 180.537Q292-312 298.5-305.5T313-302l183-62Zm340 97L612-491l53-162q3-8-3.5-14.5T647-671l-162 53-224-224q50-30 105.325-46Q421.649-904 480-904q88 0 163.487 32.584 75.488 32.583 132.417 89.512t89.512 132.417Q898-574 898-486q0 58.351-16.5 113.175Q865-318 836-267Z"/></svg>