<svg xmlns="http://www.w3.org/2000/svg" height="20" viewBox="0 -960 960 960" width="20"><path d="M761.087-709.13h-39.521q-18.904 0-31.691-13.116-12.788-13.116-12.788-31.718t13.176-31.645q13.177-13.044 31.868-13.044h38.956v-39.521q0-18.904 13.116-31.691 13.116-12.788 31.718-12.788t31.645 12.788q13.044 12.787 13.044 31.691v39.521h39.521q18.904 0 31.691 12.727 12.788 12.727 12.788 31.541 0 18.602-12.788 31.928-12.787 13.327-31.691 13.327H850.61v39.521q0 18.903-12.727 31.691t-31.541 12.788q-18.602 0-31.929-13.177-13.326-13.176-13.326-31.867v-38.956ZM124.782-78.477q-30.575 0-52.288-21.714-21.714-21.713-21.714-52.288v-165.998q0-33.092 20.302-58.764 20.303-25.672 51.698-33.585h24v-147.651q0-41.005 28.498-69.503 28.499-28.499 69.504-28.499H362.65v-40.999q-17-13.18-26.5-27.851t-9.5-40.266q0-17.057 5.283-31.253 5.283-14.196 18.998-27.911l43.198-42.633q.636-.565 17.451-7.696 4.636 0 17.593 6.696l43.976 43.411q13.938 13.937 18.72 28.133 4.783 14.196 4.783 31.253 0 25.342-9.5 40.164-9.5 14.822-26.5 27.953v40.999h117.869q41.005 0 69.503 28.499 28.498 28.498 28.498 69.503v147.651h24q31.396 7.913 51.698 33.585t20.302 58.764v165.998q0 30.575-21.713 52.288-21.714 21.714-52.288 21.714H124.782Zm120-338.002h333.739v-141.998H244.782v141.998Zm-96 240h525.739v-141.998H148.782v141.998Zm96-240h333.739-333.739Zm-96 240h525.739-525.739Zm551.74-240H122.78h577.742Z"/></svg>