<svg xmlns="http://www.w3.org/2000/svg" height="24" viewBox="0 -960 960 960" width="24"><path d="M158-132q-11.05 0-18.525-8.5Q132-149 132-160v-168q0-24.75 17.625-42.375T192-388h496q24.75 0 42.375 17.625T748-328v168q0 11-8.5 19.5T720-132H158Zm54-284v-160q0-24.75 17.625-42.375T272-636h154v-60q-17-11-28.5-24.5T386-751.846q0-11.154 3.909-20.588 3.909-9.433 11.727-17.241L429-817q1-1 11.286-5Q442-822 451-817l27.364 27.325q7.818 7.808 11.727 17.241Q494-763 494-751.846 494-734 482.5-720.5T454-696v60h154q24.75 0 42.375 17.625T668-576v160H212Zm561.965-224Q768-640 764-644.025T760-654v-66h-66q-5.95 0-9.975-4.035-4.025-4.035-4.025-10t4.025-9.965q4.025-4 9.975-4h66v-66q0-5.95 4.035-9.975 4.035-4.025 10-4.025t9.965 4.025q4 4.025 4 9.975v66h66q5.95 0 9.975 4.035 4.025 4.035 4.025 10T863.975-724q-4.025 4-9.975 4h-66v66q0 5.95-4.035 9.975-4.035 4.025-10 4.025Z"/></svg>