<svg xmlns="http://www.w3.org/2000/svg" height="24" viewBox="0 -960 960 960" width="24"><path d="M140.001-140.001v-679.998h250.308q4.769-33.692 29.769-56.846 24.999-23.154 59.922-23.154t59.922 23.154q25 23.154 29.769 56.846h250.308v679.998H140.001ZM480-786.154q13 0 21.5-8.5t8.5-21.5q0-13-8.5-21.5t-21.5-8.5q-13 0-21.5 8.5t-8.5 21.5q0 13 8.5 21.5t21.5 8.5Zm0 347.693q54.154 0 92.076-37.923 37.923-37.923 37.923-92.077 0-54.153-37.923-92.076Q534.154-698.46 480-698.46q-54.154 0-92.076 37.923-37.923 37.923-37.923 92.076 0 54.154 37.923 92.077 37.922 37.923 92.076 37.923ZM200-200h560v-38.307q-54-53-125.5-83.5t-154.5-30.5q-83 0-154.5 30.5t-125.5 83.5V-200Z"/></svg>