<svg xmlns="http://www.w3.org/2000/svg" height="20" viewBox="0 -960 960 960" width="20"><path d="M124.782-124.782v-710.436H375.13q11.957-32.566 40.812-52.283 28.856-19.717 64.087-19.717 35.232 0 64.058 19.717 28.826 19.717 40.783 52.283h250.348v710.436H124.782ZM480-763.478q12.661 0 20.591-7.931 7.931-7.93 7.931-20.591 0-12.661-7.931-20.591-7.93-7.931-20.591-7.931-12.661 0-20.591 7.931-7.931 7.93-7.931 20.591 0 12.661 7.931 20.591 7.93 7.931 20.591 7.931Zm-257.217 476.39q56-43.174 120.608-63.13Q408-370.174 480-370.174q72 0 136.609 18.891 64.608 18.891 120.608 63.065v-448.999H222.783v450.129Zm257.459-109.607q62.019 0 105.149-43.373 43.131-43.373 43.131-105.391 0-62.019-43.373-104.867-43.373-42.848-105.391-42.848-62.019 0-105.149 43.091-43.131 43.09-43.131 105.108 0 62.019 43.373 105.149 43.373 43.131 105.391 43.131ZM265-222.783h430v3.957q-46-35-101-52.935-55-17.935-114-17.935t-113.5 17.935Q312-253.826 265-218.826v-3.957Zm214.867-254.391q-28.171 0-47.758-19.836-19.587-19.836-19.587-48.174 0-28.337 19.72-47.924t47.891-19.587q28.171 0 47.758 19.72 19.587 19.72 19.587 47.891t-19.72 48.041q-19.72 19.869-47.891 19.869Zm.133-80.478Z"/></svg>