<svg xmlns="http://www.w3.org/2000/svg" height="20" viewBox="0 -960 960 960" width="20"><path d="M184-184v-592h247.615q-10.461-27.385 5.568-49.693Q453.213-848 480.029-848q26.817 0 42.817 22.307 16 22.308 5.539 49.693H776v592H184Zm296-576.308q10.4 0 17.2-6.8 6.8-6.8 6.8-17.2 0-10.4-6.8-17.2-6.8-6.8-17.2-6.8-10.4 0-17.2 6.8-6.8 6.8-6.8 17.2 0 10.4 6.8 17.2 6.8 6.8 17.2 6.8Zm.242 355.385q52.066 0 87.912-36.089Q604-477.1 604-529.166q0-52.065-36.089-87.911-36.088-35.846-88.153-35.846-52.066 0-87.912 36.088Q356-580.746 356-528.681q0 52.066 36.089 87.912 36.088 35.846 88.153 35.846ZM216-216h528v-37.615q-57-45-124.5-68t-139.5-23q-72 0-139.5 23t-124.5 68V-216Z"/></svg>