<svg xmlns="http://www.w3.org/2000/svg" height="20" viewBox="0 -960 960 960" width="20"><path d="M110-110v-740h256q15-33 46.029-52.5 31.03-19.5 68-19.5Q517-922 548-902.5q31 19.5 46 52.5h256v740H110Zm370-650q14.4 0 23.2-8.8 8.8-8.8 8.8-23.2 0-14.4-8.8-23.2-8.8-8.8-23.2-8.8-14.4 0-23.2 8.8-8.8 8.8-8.8 23.2 0 14.4 8.8 23.2 8.8 8.8 23.2 8.8Zm.242 372Q544-388 588-432.242q44-44.243 44-108Q632-604 587.758-647.5q-44.243-43.5-108-43.5Q416-691 372-647.258q-44 43.743-44 107.5Q328-476 372.242-432q44.243 44 108 44ZM228-228h504v-75q-57-40-118.5-57.5T480-378q-72 0-133.5 18.5T228-301v73Z"/></svg>