<svg xmlns="http://www.w3.org/2000/svg" height="24" viewBox="0 -960 960 960" width="24"><path d="M160-160v-640h252.615q-4.461-31.385 15.539-55.693Q448.154-880 480-880q31.846 0 51.846 24.307 20 24.308 15.539 55.693H800v640H160Zm320-622.308q13 0 21.5-8.5t8.5-21.5q0-13-8.5-21.5t-21.5-8.5q-13 0-21.5 8.5t-8.5 21.5q0 13 8.5 21.5t21.5 8.5Zm0 345.385q50.308 0 85.154-34.846T600-556.923q0-50.308-34.846-85.154T480-676.923q-50.308 0-85.154 34.846T360-556.923q0 50.308 34.846 85.154T480-436.923ZM200-200h560v-30.615q-54-53-125.5-83.5t-154.5-30.5q-83 0-154.5 30.5t-125.5 83.5V-200Z"/></svg>