<svg xmlns="http://www.w3.org/2000/svg" height="20" viewBox="0 -960 960 960" width="20"><path d="M124.782-124.782v-710.436H375.13q11.957-32.566 40.812-52.283 28.856-19.717 64.087-19.717 35.232 0 64.058 19.717 28.826 19.717 40.783 52.283h250.348v710.436H124.782ZM480-763.478q12.661 0 20.591-7.931 7.931-7.93 7.931-20.591 0-12.661-7.931-20.591-7.93-7.931-20.591-7.931-12.661 0-20.591 7.931-7.931 7.93-7.931 20.591 0 12.661 7.931 20.591 7.93 7.931 20.591 7.931Zm.242 366.783q62.019 0 105.149-43.373 43.131-43.373 43.131-105.391 0-62.019-43.373-104.867-43.373-42.848-105.391-42.848-62.019 0-105.149 43.091-43.131 43.09-43.131 105.108 0 62.019 43.373 105.149 43.373 43.131 105.391 43.131ZM222.783-222.783h514.434v-65.435q-57-42.174-121.108-62.065Q552-370.174 480-370.174q-72 0-136.109 20.456-64.108 20.456-121.108 62.63v64.305Z"/></svg>