<svg xmlns="http://www.w3.org/2000/svg" height="20" viewBox="0 -960 960 960" width="20"><path d="M164.001-164.001v-631.998h245.308q-1.231-29.692 19.798-50.846 21.029-21.154 50.922-21.154 29.894 0 50.893 21.154 21 21.154 19.769 50.846h245.308v631.998H164.001ZM480-764.154q10.4 0 17.2-6.8 6.8-6.8 6.8-17.2 0-10.4-6.8-17.2-6.8-6.8-17.2-6.8-10.4 0-17.2 6.8-6.8 6.8-6.8 17.2 0 10.4 6.8 17.2 6.8 6.8 17.2 6.8Zm.242 357.693q55.912 0 94.834-39.166 38.923-39.165 38.923-95.076 0-55.911-39.165-94.834t-95.076-38.923q-55.912 0-94.834 39.165-38.923 39.166-38.923 95.077t39.165 94.834q39.165 38.923 95.076 38.923ZM216-216h528v-45.307q-57-45-124.5-68t-139.5-23q-72 0-139.5 23t-124.5 68V-216Z"/></svg>