<svg xmlns="http://www.w3.org/2000/svg" height="24" viewBox="0 -960 960 960" width="24"><path d="M132.309-60.002q-30.308 0-51.308-21-21-20.999-21-51.307v-695.382q0-30.308 21-51.308t51.308-21h695.382q30.308 0 51.308 21t21 51.308v695.382q0 30.308-21 51.308t-51.308 21H132.309Zm151.537-37.692 42.153-43.383-72.77-72.77h492.924v-219.999h-59.999v160H253.229l72.77-72.77-42.153-43.383-146.152 146.153L283.846-97.694Zm182.308-268.46h47.692v-227.692H412.309v47.692h53.845v180Zm-252.307-160h59.999v-160h432.925l-72.77 72.77 42.153 43.383 146.152-146.153-146.152-146.152-42.153 43.383 72.77 72.77H213.847v219.999Z"/></svg>