<svg xmlns="http://www.w3.org/2000/svg" height="20" viewBox="0 -960 960 960" width="20"><path d="M144.615-88q-24.315 0-40.465-16.15Q88-120.3 88-144.615v-670.77q0-24.315 16.15-40.465Q120.3-872 144.615-872h670.77q24.315 0 40.465 16.15Q872-839.7 872-815.385v670.77q0 24.315-16.15 40.465Q839.7-88 815.385-88h-670.77Zm151.077-43.384L319-153.154l-78.538-78.538h499.846v-188h-32v156H240.462L319-342.231 295.692-364 179.384-247.692l116.308 116.308Zm196.616-264.924h23.384v-167.384h-59.077v23.384h35.693v144Zm-272.616-144h32v-156h467.846L641-617.769 664.308-596l116.308-116.308-116.308-116.308L641-806.846l78.538 78.538H219.692v188Z"/></svg>