<svg xmlns="http://www.w3.org/2000/svg" height="20" viewBox="0 -960 960 960" width="20"><path d="M370-529v227q0 5.833 4.118 9.917 4.117 4.083 10 4.083 5.882 0 9.882-4.083 4-4.084 4-9.917v-228q0-11.05-7.338-18.525Q383.324-556 372.476-556H348q-5.833 0-9.917 4.118-4.083 4.117-4.083 10 0 4.882 6.162 3.882 6.162-1 6.838 9h23Zm156 241h48q20.548 0 35.274-14.583Q624-317.167 624-338v-168q0-20.548-14.726-35.274Q594.548-556 574-556h-48q-20.833 0-35.417 14.726Q476-526.548 476-506v168q0 20.833 14.583 35.417Q505.167-288 526-288Zm0-28q-9 0-15.5-6.5T504-338v-168q0-9 6.5-15.5T526-528h49q9 0 15.5 6.5T597-506v168q0 9-6.5 15.5T575-316h-49ZM390-842q-4.25 0-7.125-2.825-2.875-2.824-2.875-7 0-4.175 2.875-7.175t7.125-3h180q4.25 0 7.125 2.825 2.875 2.824 2.875 7 0 4.175-2.875 7.175T570-842H390Zm90 694q-59.532 0-111.185-22.007-51.654-22.007-90.228-60.58-38.573-38.574-60.58-90.228Q196-372.468 196-432q0-59.532 22.007-111.185 22.007-51.654 60.58-90.228 38.574-38.573 90.228-60.58Q420.468-716 479.56-716q53.28 0 103.36 20.5T673-640l29.282-29.282Q706-673 708.5-673t7.5 5q5 5 5 7t-5 7l-28 29q35 39 55.5 89.308Q764-485.384 764-431.856q0 59.388-22.007 111.041-22.007 51.654-60.58 90.228-38.574 38.573-90.228 60.58Q539.532-148 480-148Zm0-20q110 0 187-77t77-187q0-110-77-187t-187-77q-110 0-187 77t-77 187q0 110 77 187t187 77Zm0-264Z"/></svg>