<svg xmlns="http://www.w3.org/2000/svg" height="20" viewBox="0 -960 960 960" width="20"><path d="M228-312v-156h84l84 23v133-133l-168-23v156Zm444-259ZM48-276v-311q0-17 8-32.5T78-646l192-139q19.225-14 42.113-14 22.887 0 41.904 13.825L546-646q14 11 22 26.5t8 32.5v30q-22 13-38.5 30T504-488v-100L312-727 120-588v276h72v-156q0-15.3 10.35-25.65Q212.7-504 228-504h168q15.3 0 25.65 10.35Q432-483.3 432-468v156h25q3 18 6 36.5t11 35.5h-78q-15.3 0-25.65-10.35Q360-260.7 360-276v-156h-96v156q0 15.3-10.334 25.65Q243.332-240 228.055-240H84.276Q69-240 58.5-250.35T48-276Zm864-564v324q-16-18-34-31t-38-24.079V-840H504v74l-72-52v-22q0-29.538 21.231-50.769Q474.462-912 504-912h336q29.7 0 50.85 21.15Q912-869.7 912-840ZM714-696h36q8 0 13-5t5-13v-36q0-8-5-13t-13-5h-36q-8 0-13 5t-5 13v36q0 8 5 13t13 5Zm5.774 552Q640-144 584-200.226t-56-136Q528-416 584.226-472t136-56Q800-528 856-471.774t56 136Q912-256 855.774-200t-136 56ZM696-312v48q0 9.6 7.2 16.8 7.2 7.2 16.8 7.2 9.6 0 16.8-7.2 7.2-7.2 7.2-16.8v-48h48q9.6 0 16.8-7.2 7.2-7.2 7.2-16.8 0-9.6-7.2-16.8-7.2-7.2-16.8-7.2h-48v-48q0-9.6-7.2-16.8-7.2-7.2-16.8-7.2-9.6 0-16.8 7.2-7.2 7.2-7.2 16.8v48h-48q-9.6 0-16.8 7.2-7.2 7.2-7.2 16.8 0 9.6 7.2 16.8 7.2 7.2 16.8 7.2h48Z"/></svg>