<svg xmlns="http://www.w3.org/2000/svg" height="24" viewBox="0 -960 960 960" width="24"><path d="M715-692h11q9 0 15.5-7t6.5-16v-11q0-9-6.5-15.5T726-748h-11q-9 0-16 6.5t-7 15.5v11q0 9 7 16t16 7Zm5 520q-62 0-105-43t-43-105q0-62 43-105t105-43q62 0 105 43t43 105q0 62-43 105t-105 43Zm-14-134v86q0 6 4 10t10 4q6 0 10-4t4-10v-86h86q6 0 10-4t4-10q0-6-4-10t-10-4h-86v-86q0-6-4-10t-10-4q-6 0-10 4t-4 10v86h-86q-6 0-10 4t-4 10q0 6 4 10t10 4h86Zm162-238q-32-22-70.5-33T720-588q-24 0-47 4t-45 12v-11q0-14-6.5-27.5T603-632L420-763v-45q0-25 17.5-42.5T480-868h328q25 0 42.5 17.5T868-808v264ZM92-282v-261q0-14 6.5-27.5T117-592l168-119q16-11 35-11t35 11l168 119q12 8 18.5 21.5T548-543v17q-46 37-71 92t-25 114q0 20 2 34.5t7 33.5h-39q-13 0-21.5-8.5T392-282v-140q0-9-6.5-15.5T370-444h-99q-9 0-16 6.5t-7 15.5v140q0 13-8.5 21.5T218-252h-96q-13 0-21.5-8.5T92-282Z"/></svg>