<svg xmlns="http://www.w3.org/2000/svg" height="20" viewBox="0 -960 960 960" width="20"><path d="M728.957-696h6.086q15.469 0 26.191-10.723 10.723-10.722 10.723-26.191V-739q0-12.039-8.481-20.52-8.48-8.48-20.519-8.48h-6.087q-15.468 0-26.191 10.723-10.722 10.722-10.722 26.191V-725q0 12.039 8.48 20.52 8.481 8.48 20.52 8.48Zm-9.183 552Q640-144 584-200.226t-56-136Q528-416 584.226-472t136-56Q800-528 856-471.774t56 136Q912-256 855.774-200t-136 56Zm-32.253-159.521V-264q0 12.991 9.744 22.735T720-231.521q12.991 0 22.735-9.744T752.479-264v-39.521H792q12.991 0 22.735-9.744T824.479-336q0-12.991-9.744-22.735T792-368.479h-39.521V-408q0-12.991-9.744-22.735T720-440.479q-12.991 0-22.735 9.744T687.521-408v39.521H648q-12.991 0-22.735 9.744T615.521-336q0 12.991 9.744 22.735T648-303.521h39.521Zm236.914-198.348q-36.13-46.087-90.739-72.109Q779.087-600 720-600q-18.471 0-35.322 2.5-16.852 2.5-32.721 6.935v-33.87q0-18.13-8.728-35.339-8.728-17.208-24.099-29.313L427.478-828.174v-22q0-28.843 20.758-49.574 20.758-20.731 49.639-20.731h328.559q41.005 0 69.503 28.499 28.498 28.498 28.498 69.503v320.608Zm-890 221.347v-297.434q0-23.49 10.825-44.506 10.827-21.017 29.914-35.973l175.042-126q26.248-18.522 57.494-18.522 31.247 0 57.047 18.348l182.939 132.957q14.565 11.565 23.413 28.131 8.848 16.566 8.848 34.825v30q-59.261 33.566-91.609 94.718Q456-402.826 456-336q0 24.286 6.413 53.534 6.413 29.249 16.109 50.945h-38.043q-20.388 0-34.694-14.307-14.307-14.307-14.307-34.694V-439.87q0-15.163-10.723-25.886-10.722-10.723-25.886-10.723h-94.782q-15.164 0-25.886 10.723-10.723 10.723-10.723 25.886v159.348q0 20.387-14.287 34.694-14.287 14.307-34.646 14.307h-90.84q-20.358 0-34.814-14.307-14.457-14.307-14.457-34.694Z"/></svg>