<svg xmlns="http://www.w3.org/2000/svg" height="24" viewBox="0 -960 960 960" width="24"><path d="M165.652-228.085q-38.087 0-64.696-26.609-26.609-26.609-26.609-64.696v-365.22q0-38.087 26.609-64.696 26.609-26.609 64.696-26.609 38.088 0 64.697 27.109 26.608 27.109 26.608 65.196 36.696-47.652 91.087-75.847 54.391-28.195 118.739-28.195 53.13 0 101.761 20.065 48.63 20.065 86.196 57.63L887.696-477 512.783-102.087 278.826-334.043q-6.478-6.478-11.586-12.674-5.109-6.195-10.283-13.108v40.435q0 38.087-26.608 64.696-26.609 26.609-64.697 26.609Z"/></svg>