<svg xmlns="http://www.w3.org/2000/svg" height="20" viewBox="0 -960 960 960" width="20"><path d="M170.391-233.652q-32.152 0-54.467-22.315-22.315-22.315-22.315-54.468v-355.13q0-32.153 22.315-54.468 22.315-22.315 54.467-22.315 26.153 0 46.968 16.315 20.815 16.315 26.815 41.468 32.717-44.892 81.902-69.859 49.185-24.967 105.794-24.967 50.478 0 94.956 18.239t79.718 53.478L829.218-485 485.87-143.652 289.196-338.326q-11.087-11.087-21.652-21.054-10.566-9.968-20.37-24.815v73.76q0 32.153-22.315 54.468-22.315 22.315-54.468 22.315Z"/></svg>