<svg xmlns="http://www.w3.org/2000/svg" height="20" viewBox="0 -960 960 960" width="20"><path d="M176.788-188Q138-188 111.5-214.65T85-280v-416q0-38.7 26.65-65.35Q138.3-788 177-788q33 0 58 20.5t31 52.5q35-35 80-53.5t94-18.5q52.122 0 98.061 19 45.939 19 82.052 55.113L848-485 494-133 292-333q-5.143-4.667-11.071-8.333Q275-345 269-353v73q0 38.7-26.712 65.35-26.713 26.65-65.5 26.65ZM295-536.784q0 52.784 23.472 81.197Q341.943-427.174 364-405l129 129 210-210-155-155q-21.04-21.057-48.339-32.028Q472.361-684 440.46-684q-60.21 0-102.835 43.5Q295-597 295-536.784ZM499-480Z"/></svg>