<svg xmlns="http://www.w3.org/2000/svg" height="20" viewBox="0 -960 960 960" width="20"><path d="M173.652-214.085q-35.087 0-59.196-24.109-24.109-24.109-24.109-59.196v-381.22q0-35.087 24.109-59.196 24.109-24.109 59.196-24.109 29.088 0 51.697 18.109 22.608 18.109 28.608 46.196 33.696-40.652 81.087-62.847 47.391-22.195 100.739-22.195 51.13 0 96.261 18.565 45.13 18.565 80.696 54.13L837.696-485 489.783-139.087 290.826-336.043q-8.478-8.478-17.086-15.674-8.609-7.195-16.783-19.108v73.435q0 35.087-24.108 59.196-24.109 24.109-59.197 24.109Z"/></svg>