<svg xmlns="http://www.w3.org/2000/svg" height="24" viewBox="0 -960 960 960" width="24"><path d="M109-46q-26 0-44.5-18.5T46-109v-742q0-26 18.5-44.5T109-914q26 0 44.5 18.5T172-851v742q0 26-18.5 44.5T109-46Zm226-203q-34.583 0-58.792-24.208Q252-297.417 252-332t24.208-58.792Q300.417-415 335-415h256q34.583 0 58.792 24.208Q674-366.583 674-332t-24.208 58.792Q625.583-249 591-249H335Zm0-296q-34.583 0-58.792-24.208Q252-593.417 252-628t24.208-58.792Q300.417-711 335-711h496q34.583 0 58.792 24.208Q914-662.583 914-628t-24.208 58.792Q865.583-545 831-545H335Z"/></svg>