<svg xmlns="http://www.w3.org/2000/svg" height="24" viewBox="0 -960 960 960" width="24"><path d="M113.782-60.782q-22.087 0-37.544-15.456-15.456-15.457-15.456-37.544v-732.436q0-22.087 15.456-37.544 15.457-15.456 37.544-15.456 22.088 0 37.544 15.456 15.457 15.457 15.457 37.544v732.436q0 22.087-15.457 37.544-15.456 15.456-37.544 15.456Zm206.002-201.695q-30.417 0-51.709-21.292t-21.292-51.709q0-30.417 21.292-51.709t51.709-21.292h266.434q30.417 0 51.709 21.292 21.291 21.292 21.291 51.709t-21.291 51.709q-21.292 21.292-51.709 21.292H319.784Zm0-289.044q-30.417 0-51.709-21.292t-21.292-51.709q0-30.417 21.292-51.709t51.709-21.292h506.434q30.417 0 51.709 21.292 21.291 21.292 21.291 51.709t-21.291 51.709q-21.292 21.292-51.709 21.292H319.784Z"/></svg>