<svg xmlns="http://www.w3.org/2000/svg" height="24" viewBox="0 -960 960 960" width="24"><path d="M170.769-120q-8.539 0-14.269-5.731-5.731-5.73-5.731-14.269v-680q0-8.539 5.731-14.269Q162.23-840 170.769-840q8.538 0 14.269 5.731 5.731 5.73 5.731 14.269v680q0 8.539-5.731 14.269Q179.307-120 170.769-120Zm163.846-187.692q-16.538 0-28.654-12.116-12.115-12.115-12.115-28.653 0-16.539 12.115-28.654 12.116-12.116 28.654-12.116h193.847q16.538 0 28.654 12.116 12.115 12.115 12.115 28.654 0 16.538-12.115 28.653-12.116 12.116-28.654 12.116H334.615Zm0-263.077q-16.538 0-28.654-12.116-12.115-12.115-12.115-28.654 0-16.538 12.115-28.653 12.116-12.116 28.654-12.116h433.847q16.538 0 28.654 12.116 12.115 12.115 12.115 28.653 0 16.539-12.115 28.654-12.116 12.116-28.654 12.116H334.615Z"/></svg>