<svg xmlns="http://www.w3.org/2000/svg" height="20" viewBox="0 -960 960 960" width="20"><path d="M212.001-379.232v-203.074h535.998v203.074H212.001Zm242-367.845v-107.692h51.998v107.692h-51.998Zm262.306 94.153-37.153-37.152L741-751.922l37.153 37.153-61.846 61.845ZM454.001-106.77v-107.691h51.998v107.691h-51.998ZM741-209.616l-61.846-61.846 37.153-37.153 61.846 61.846L741-209.616ZM243.693-652.924l-61.846-61.845L219-751.922l61.846 61.846-37.153 37.152ZM219-209.616l-37.153-37.153 61.846-61.846 37.153 37.153L219-209.616Z"/></svg>