<svg xmlns="http://www.w3.org/2000/svg" height="20" viewBox="0 -960 960 960" width="20"><path d="M763.274-502.538q-6.755 0-11.803-4.6-5.048-4.6-5.856-11.4-12-95.693-81.153-164.347-69.154-68.653-164.847-80.653-6.8-.814-11.4-5.698-4.6-4.884-4.6-11.802 0-5.501 4.647-10.731 4.646-5.231 11.353-4 110.78 11.581 188.693 89.214 77.913 77.633 89.538 188.017 1.231 6.707-3.082 11.353-4.313 4.647-11.49 4.647Zm-154.407 0q-5.771 0-10.242-3.385-4.471-3.385-6.01-9.692-10.307-34.923-35.741-60.765-25.434-25.842-60.182-34.928-6.307-1.522-9.692-6.068-3.385-4.546-3.385-9.963 0-7.738 5.193-12.7 5.192-4.961 13.38-2.759 45.394 10.56 78.223 43.459 32.83 32.898 44.205 79.108 2.461 7.419-2.789 12.556t-12.96 5.137ZM722.231-185q-97.154-9-189.885-55.654-92.731-46.653-169.885-124.192-77.154-77.539-123.307-169.885Q193-627.077 184-724.231q-2-21.33 12.285-37.049Q210.571-777 232-777h72.923q19.308 0 32.962 11.269 13.654 11.269 19.961 30.346L375.692-673q2.77 13.769-1.5 27.308-4.269 13.538-13.807 21.538l-87.77 81.846q24.616 45.693 52.924 84.539 28.307 38.846 61.045 72.138 33.878 33.862 74.031 62.823 40.154 28.962 88.154 53.577l90.539-89.077q8.769-9.538 18.461-11.884 9.692-2.347 23.462-.347l53.154 12.231q19.308 5 30.461 19.423Q776-324.462 776-304.385V-233q0 21.429-16.22 35.715Q743.561-183 722.231-185ZM258.846-573.846l80.769-74.616q3.846-3.077 5-8.461 1.154-5.385-.384-10l-17.93-65.769q-1.538-6.154-5.385-9.231Q317.07-745 310.917-745H228q-4.615 0-7.692 3.077t-3.077 7.692q1.154 38 12.846 78.616 11.692 40.615 28.769 81.769Zm324 319.384q36.639 17.321 78.473 25.314 41.835 7.994 71.912 10.686 4.615 0 7.692-3.076 3.077-3.077 3.077-7.693v-82.307q0-6.154-3.077-10-3.077-3.847-9.231-5.385l-55-12.154q-4.615-1.538-8.077-.384-3.461 1.153-7.307 5l-78.462 79.999Zm-324-319.384Zm324 319.384Z"/></svg>