<svg xmlns="http://www.w3.org/2000/svg" height="20" viewBox="0 -960 960 960" width="20"><path d="M480-424q-33.846 0-56.923-23.077Q400-470.154 400-504v-240q0-33.846 23.077-56.923Q446.154-824 480-824q33.846 0 56.923 23.077Q560-777.846 560-744v240q0 33.846-23.077 56.923Q513.846-424 480-424Zm0-200Zm-16 460v-116.692q-88.8-7.72-148.4-70.899Q256-414.769 256-504h32q0 79.68 56.226 135.84t136 56.16Q560-312 616-368.16T672-504h32q0 89.231-59.6 152.409-59.6 63.179-148.4 70.899V-164h-32Zm16-292q20.4 0 34.2-13.8Q528-483.6 528-504v-240q0-20.4-13.8-34.2Q500.4-792 480-792q-20.4 0-34.2 13.8Q432-764.4 432-744v240q0 20.4 13.8 34.2Q459.6-456 480-456Z"/></svg>