<svg xmlns="http://www.w3.org/2000/svg" height="20" viewBox="0 -960 960 960" width="20"><path d="M192-628q0-19 12.5-31.5T236-672h488q19 0 31.5 12.5T768-628v78l24-2q29 0 48.5 19.5T860-484v216q0 19-12.5 31.5T816-224H144q-19 0-31.5-12.5T100-268v-216q0-29 19.5-48.5T168-552l24 2v-78Zm20 0v98q14 8 19 20.5t5 25.5v98h488v-98q0-13 4.5-25.5T748-530v-98q0-10.2-6.9-17.1-6.9-6.9-17.1-6.9H236q-10.2 0-17.1 6.9-6.9 6.9-6.9 17.1Zm532 262H216v-118q0-9.6-3.579-18.6-3.579-9-10.14-15.6-6.562-6.6-15.509-10.2-8.947-3.6-18.491-3.6Q148-532 134-518.2T120-484v216q0 10.2 6.9 17.1 6.9 6.9 17.1 6.9h672q10.2 0 17.1-6.9 6.9-6.9 6.9-17.1v-216q0-20.4-13.896-34.2-13.896-13.8-34.437-13.8-9.667 0-18.573 3.6t-15.438 10.2q-6.531 6.6-10.094 15.6Q744-493.6 744-484v118Zm-264 0Zm0 122Zm0-142Z"/></svg>