<svg xmlns="http://www.w3.org/2000/svg" height="20" viewBox="0 -960 960 960" width="20"><path d="M174.477-257.782v-312H264v312h-89.523Zm261.044 0v-312h88.958v312h-88.958ZM76.781-600.825v-127.088L480-929.523l403.218 201.61v127.088H76.782Zm161.047-98.001h484.344L480-819.13 237.828-698.826ZM76.782-129.304v-98.001h515.305q0 21.392 3.413 47.87 3.413 26.479 10.239 50.131H76.782ZM696-413.479v-156.303h89.523v111.259L696-413.479ZM816 8.479q-72.391-22.13-111.587-82.674-39.196-60.544-39.196-135.935v-106.957L816-392.479l150.783 75.392v106.957q0 75.391-39.196 135.935Q888.391-13.652 816 8.479Zm-27.565-127.914 134.087-140.087-35.565-33.565L787.435-189l-46.783-45.783-34.565 34 82.348 81.348ZM237.828-698.826h484.344-484.344Z"/></svg>