<svg xmlns="http://www.w3.org/2000/svg" height="24" viewBox="0 -960 960 960" width="24"><path d="M182.477-273.782v-280H280v280h-97.523Zm249.044 0v-280h96.958v280h-96.958ZM60.781-616.825v-111.088L480-937.523l419.218 209.61v111.088H60.782Zm227.047-106.001h384.344L480-818.13l-192.172 95.304ZM60.782-105.304v-106.001h493.305q2 24.392 6.413 52.37 4.413 27.979 13.239 53.631H60.782ZM680-438.479v-115.303h97.523v66.259L680-438.479ZM800 8.479q-72.391-18.13-119.587-83.174-47.196-65.044-47.196-144.435v-105.957L800-408.479l166.783 83.392v105.957q0 79.391-47.196 144.435Q872.391-9.652 800 8.479Zm-29.565-127.914 144.087-143.087-42.565-42.565L770.435-205l-45.783-45.783-42.565 43 88.348 88.348ZM287.828-722.826h384.344-384.344Z"/></svg>