<svg xmlns="http://www.w3.org/2000/svg" height="24" viewBox="0 -960 960 960" width="24"><path d="m644.615-422.231 115.385 110v-311.615q0-52.154-34.384-89.539-34.385-37.384-85.616-44.461V-840h-80v80H400v-80h-80v82.154q-1.539 0-2.693.384-1.153.385-2.692.385L613-453.846h31.615v31.615Zm148.693 312.385L676.077-227.077h56.616L760-200v80H199.231L200-623.846q0-27.616 10.577-52.385t30.269-42.923L256-704v56.846L109.846-793.308l28.308-28.538 683.462 683.692-28.308 28.308Zm-477.923-304h173.922l-40-40H315.385v40Z"/></svg>