<svg xmlns="http://www.w3.org/2000/svg" height="20" viewBox="0 -960 960 960" width="20"><path d="m632.615-423.231 95.385 90v-298.615q0-46.154-30.384-80.039-30.385-33.884-77.616-39.961V-824h-68v72H408v-72h-68v72.154q-6.539 2-12.193 3.384-5.653 1.385-12.192 3.385L603-453.846h29.615v30.615Zm137.693 279.385-91.231-91.231h46.616L728-232v96H231.231L232-631.846q0-18.616 6.577-36.885t18.269-35.423L274-688v47.846L143.846-771.308l23.308-22.538 626.462 626.692-23.308 23.308Zm-442.923-278h165.922l-32-32H327.385v32Z"/></svg>