<svg xmlns="http://www.w3.org/2000/svg" height="24" viewBox="0 -960 960 960" width="24"><path d="M415.385-264.461 167.538-515.385l220.077-218-123.692-123.692 27.769-29.077 371.539 371.538-247.846 250.155Zm.769-440.385L240.538-530.769q-3.846 3.846-5 8.076-1.154 4.231-1.154 8.847h362.001q0-4.616-1.154-8.847-1.154-4.23-5-8.076L416.154-704.846Zm326.923 452.538q-25.308 0-42.654-17.346-17.346-17.346-17.346-42.654 0-17.923 9.423-35.385 9.423-17.461 19.808-33.077 7.461-10.461 15.154-20.384 7.692-9.923 15.615-20.385 7.923 10.462 15.615 20.385 7.693 9.923 15.154 20.384 10.385 15.616 19.808 33.077 9.423 17.462 9.423 35.385 0 25.308-17.346 42.654-17.346 17.346-42.654 17.346ZM80 0v-80h800V0H80Z"/></svg>