<svg xmlns="http://www.w3.org/2000/svg" height="20" viewBox="0 -960 960 960" width="20"><path d="M548-334h159q14 0 23-9t9-23v-72q0-14-9-23t-23-9H548v136Zm0-156h159q14 0 23-9t9-23v-72q0-14-9-23t-23-9H548v136ZM252.736-314Q231-314 216-329.15 201-344.3 201-366v-228q0-21.7 15.176-36.85Q231.352-646 253.088-646h133.176Q398-646 408-640.85T425-626H253q-14 0-23 9t-9 23v228q0 14 9 23t23 9h127q14 0 23-9t9-23v-104h-72q-4.3 0-7.15-2.789-2.85-2.79-2.85-7 0-4.211 2.825-7.211t7.087-3h65.825q11.263 0 18.763 7.35Q432-475.3 432-464v98q0 21.7-15.176 36.85Q401.648-314 379.912-314H252.736Zm301.547 0Q543-314 535.5-321.35 528-328.7 528-340v-280q0-11.3 7.363-18.65 7.362-7.35 18.681-7.35h153.22Q729-646 744-630.85q15 15.15 15 36.85v80q0 9-3 17.5T746-480q7 8 10 16.5t3 17.5v80q0 21.7-15.126 36.85Q728.747-314 707.081-314H554.283Z"/></svg>