<svg xmlns="http://www.w3.org/2000/svg" height="24" viewBox="0 -960 960 960" width="24"><path d="M624-386h124v-47H624v47Zm0-143h124v-45H624v45ZM191-280q-39.188 0-67.094-27.906Q96-335.812 96-375v-211q0-38.775 27.906-66.388Q151.812-680 191-680h154q43 0 73 31.138 30 31.137 30 74.862H212v188h120v-41h-12q-20.4 0-34.2-13.8Q272-454.6 272-475q0-20.4 13.8-34.2Q299.6-523 320-523h65q26 0 44.5 18.5T448-460v85q0 39.188-27.612 67.094Q392.775-280 354-280H191Zm380 0q-26 0-44.5-18.5T508-343v-274q0-26 18.5-44.5T571-680h199q38.775 0 66.388 27.612Q864-624.775 864-586v30q0 23-11.5 42.5T821-481q20 13 31.5 32.5T864-406v31q0 39.188-27.612 67.094Q808.775-280 770-280H571Z"/></svg>