<svg xmlns="http://www.w3.org/2000/svg" height="24" viewBox="0 -960 960 960" width="24"><path d="M480-144q-54.194 0-102.097-15.5Q330-175 288-203l-44 43q-18 18-44 18t-44-18q-18-18-18-44t18-44l43-44q-28-42-43.5-90.077T140-484q0-142.375 98.812-241.188Q337.625-824 480-824h340v340q0 142.375-98.812 241.188Q622.375-144 480-144Zm0-126q89.167 0 151.583-62.417Q694-394.833 694-484v-214H480q-89.167 0-151.583 62.417Q266-573.167 266-484q0 27.3 6.5 52.15Q279-407 291-384l185-184q18-18 44-18t43.696 17.696Q583-549 582.5-523.5 582-498 564-479L380-295q23 12 47.85 18.5T480-270Zm0-214Z"/></svg>