<svg xmlns="http://www.w3.org/2000/svg" height="24" viewBox="0 -960 960 960" width="24"><path d="M273.782-100.782q-44.305 0-75.153-30.848-30.848-30.848-30.848-75.153v-506.999q-22.087 0-37.544-15.457-15.457-15.457-15.457-37.544 0-22.087 15.457-37.544 15.457-15.457 37.544-15.457h179.218q0-22.087 15.457-37.544 15.457-15.456 37.544-15.456h158.87q22.087 0 37.543 15.456 15.457 15.457 15.457 37.544h180.349q22.087 0 37.544 15.457 15.457 15.457 15.457 37.544 0 22.087-15.457 37.544-15.457 15.457-37.544 15.457v506.999q0 44.305-30.848 75.153-30.848 30.848-75.153 30.848H273.782ZM480-394.391l69.782 69.782q13.261 13.261 32.805 12.979 19.543-.283 32.804-13.544 13.261-13.261 13.261-32.804 0-19.544-13.261-32.805L545.609-460l69.782-69.782q13.261-13.261 13.261-32.805 0-19.543-13.261-32.804-13.261-13.261-32.804-13.261-19.544 0-32.805 13.261L480-525.609l-69.782-69.782q-13.261-13.261-32.522-13.261t-32.522 13.261q-13.261 13.261-13.261 32.804 0 19.544 13.261 32.805L414.391-460l-69.782 69.782q-13.261 13.261-12.979 32.522.283 19.261 13.544 32.522 13.261 13.261 32.804 13.261 19.544 0 32.805-13.261L480-394.391Z"/></svg>