<svg xmlns="http://www.w3.org/2000/svg" height="20" viewBox="0 -960 960 960" width="20"><path d="M305.782-124.782q-41.005 0-69.503-28.498-28.498-28.498-28.498-69.503v-466.999h-12q-20.387 0-34.694-14.246-14.307-14.247-14.307-34.544 0-20.298 14.307-34.755 14.307-14.457 34.694-14.457h175.218v-12q0-20.387 14.307-34.694 14.307-14.306 34.694-14.306h118.87q20.387 0 34.693 14.306 14.307 14.307 14.307 34.694v12h176.349q20.387 0 34.694 14.247 14.307 14.246 14.307 34.544 0 20.297-14.307 34.754-14.307 14.457-34.694 14.457h-12v466.565q0 41.739-28.498 70.087-28.498 28.348-69.503 28.348H305.782Zm348.436-565H305.782v466.999h348.436v-466.999Zm-348.436 0v466.999-466.999ZM480-395.391l48.782 48.782q13.261 13.261 30.305 12.479 17.043-.783 30.304-14.044 13.261-13.261 13.261-30.304 0-17.044-13.261-30.305L540.609-456l48.782-48.782q13.261-13.261 13.261-30.305 0-17.043-13.261-30.304t-30.304-13.261q-17.044 0-30.305 13.261L480-516.609l-48.782-48.782q-13.261-13.261-29.522-13.261t-29.522 13.261q-13.261 13.261-13.261 30.304 0 17.044 13.261 30.305L419.391-456l-48.782 48.782q-13.261 13.261-12.479 29.522.783 16.261 14.044 29.522 13.261 13.261 30.304 13.261 17.044 0 30.305-13.261L480-395.391Z"/></svg>