<svg xmlns="http://www.w3.org/2000/svg" height="20" viewBox="0 -960 960 960" width="20"><path d="M336.615-184q-23.546 0-40.081-16.534Q280-217.069 280-240.615V-696h-32q-6.839 0-11.419-4.52Q232-705.041 232-711.79t4.581-11.479Q241.161-728 248-728h136v-12q0-10.685 8.042-18.727 8.043-8.043 18.727-8.043h138.462q10.684 0 18.727 8.043Q576-750.685 576-740v12h136q6.839 0 11.419 4.52Q728-718.96 728-712.211q0 6.749-4.581 11.48Q718.839-696 712-696h-32v454.951q0 24.28-16.534 40.665Q646.931-184 623.385-184h-286.77ZM648-696H312v455.385q0 10.769 6.923 17.692T336.615-216h286.77q10.769 0 17.692-6.923T648-240.615V-696Zm-336 0v480-480Zm168 263.308 68.846 68.846q5.615 5.615 11.269 5.5 5.654-.115 12.039-6.5t6.385-11.654q0-5.269-6.385-11.654L503.308-456l68.846-68.846q5.615-5.615 6-11.269.385-5.654-6-12.039t-11.654-6.385q-5.269 0-11.654 6.385L480-479.308l-68.846-68.846q-5.615-5.615-10.769-6-5.154-.385-11.539 6t-6.385 11.654q0 5.269 6.385 11.654L456.692-456l-68.846 68.846q-5.615 5.615-5.5 10.769.115 5.154 6.5 11.539t11.654 6.385q5.269 0 11.654-6.385L480-432.692Z"/></svg>