<svg xmlns="http://www.w3.org/2000/svg" height="24" viewBox="0 -960 960 960" width="24"><path d="M704.999-339.232h80v-40q0-17-11.5-28.5t-28.5-11.5q-17 0-28.5 11.5t-11.5 28.5v40ZM480-148.464 28.464-600q91.153-87.769 207.96-133.884Q353.231-779.999 480-779.999q126.769 0 243.576 46.115Q840.383-687.769 931.536-600l-81.767 81.768q-24.154-12.154-50.799-18.116-26.645-5.961-54.356-5.961-100.32 0-170.545 70.224-70.224 70.224-70.224 170.545 0 27.711 5.962 54.355 5.961 26.645 18.115 50.799L480-148.464Zm149.23 0v-190.768h40.385v-40q0-31.462 21.961-53.423 21.961-21.961 53.423-21.961 31.461 0 53.423 21.961 21.961 21.961 21.961 53.423v40h39.616v190.768H629.23Z"/></svg>