<svg xmlns="http://www.w3.org/2000/svg" height="20" viewBox="0 -960 960 960" width="20"><path d="M732-336h72v-48q0-15.3-10.289-25.65-10.29-10.35-25.5-10.35Q753-420 742.5-409.65 732-399.3 732-384v48ZM480-144 0-624q94-90 217-141t263-51q140 0 263 51t217 141L849-513q-18.589-7.857-38.795-11.429Q790-528 768-528q-95 0-161.5 66.5T540-300q0 22 3.571 42.205Q547.143-237.589 555-219l-75 75Zm168 0v-192h48v-48q0-29.7 21.212-50.85 21.213-21.15 51-21.15Q798-456 819-434.85q21 21.15 21 50.85v48h48v192H648Z"/></svg>