<svg xmlns="http://www.w3.org/2000/svg" height="24" viewBox="0 -960 960 960" width="24"><path d="M690-358.461h80v-40q0-17-11.5-28.5t-28.5-11.5q-17 0-28.5 11.5t-11.5 28.5v40ZM480-176.923 56.923-600q87.307-78.539 196.423-119.269Q362.461-760 480-760t226.654 40.731Q815.77-678.539 903.077-600l-62.538 62.539q-25.308-13.308-53.598-20.231-28.289-6.923-57.71-6.923-100.641 0-171.09 70.449-70.448 70.448-70.448 171.089 0 29.421 6.923 57.711 6.923 28.289 20.23 53.597L480-176.923Zm138.462 0v-181.538h40.769v-40q0-29.923 20.423-50.346 20.423-20.424 50.346-20.424t50.346 20.424q20.423 20.423 20.423 50.346v40H840v181.538H618.462Z"/></svg>