<svg xmlns="http://www.w3.org/2000/svg" height="24" viewBox="0 -960 960 960" width="24"><path d="M640-100.782v-200h40v-40q0-33 23.5-56.5t56.5-23.5q33 0 56.5 23.5t23.5 56.5v40h40v200H640Zm80-200h80v-40q0-17-11.5-28.5t-28.5-11.5q-17 0-28.5 11.5t-11.5 28.5v40ZM480-76.476 0-600q94.435-99.826 218.652-154.718Q342.87-809.609 480-809.609t261.348 54.891Q865.565-699.826 960-600L852.782-482.608q-20.476-8.869-43.39-13.304-22.914-4.435-46.783-4.87-11.305 0-21.762 1.696-10.458 1.696-20.632 5.087l90.435-98.914q-72.217-54.347-156.592-82.521-84.376-28.174-174.195-28.174-89.819 0-174.058 28.174-84.238 28.174-156.455 82.521L480-236.826l42.261-45.653q-1.131 6.218-1.696 12.153-.565 5.935-.565 12.153.435 29.522 7.413 56.979 6.978 27.456 19.805 51.283L480-76.476Zm0-393.741Z"/></svg>