<svg xmlns="http://www.w3.org/2000/svg" height="20" viewBox="0 -960 960 960" width="20"><path d="M648-110v-192h48v-48q0-29.7 21.212-50.85 21.213-21.15 51-21.15Q798-422 819-400.85q21 21.15 21 50.85v48h48v192H648Zm84-192h72v-48q0-15.3-10.289-25.65-10.29-10.35-25.5-10.35Q753-386 742.5-375.65 732-365.3 732-350v48ZM480-67 0-624q93-95 215.5-152T480-833q142 0 264.5 57T960-624L838-484q-18.074-6-37.037-8.5Q782-495 762-494q-22 0-41 3t-39 9l113-128q-69-51-148.742-78-79.742-27-166.5-27T313.5-688Q234-661 165-610l315 359 64-70q-2 13-3 24.5t-1 24.5q-1 30 6 57t20 51l-86 97Zm0-416Z"/></svg>