<svg xmlns="http://www.w3.org/2000/svg" height="20" viewBox="0 -960 960 960" width="20"><path d="M227.788-196q-13.288 0-22.538-9.462-9.25-9.463-9.25-22.75 0-13.288 9.462-22.538 9.463-9.25 22.75-9.25 13.288 0 22.538 9.462 9.25 9.463 9.25 22.75 0 13.288-9.462 22.538-9.463 9.25-22.75 9.25Zm528.388 0q-3.488 0-5.187-4.156-1.698-4.156-1.989-9.844-3-110-46.507-206.253Q658.987-512.506 586-586q-73.494-72.987-169.747-116.493Q320-746 210-749q-5.688-.351-9.844-2.399t-4.156-5.09q0-3.765 6-6.638Q208-766 214-765q114 4 211.216 48.5 97.217 44.5 172 119.5Q672-522 716.5-425T765-214q1 6-1.747 12-2.748 6-7.077 6Zm-216.47 0Q536-196 534-200.5q-2-4.5-1-8.5-4-66-29.5-123.5T434-434q-44-44-101.5-69.5T209-533q-4 1-8.5-.959t-4.5-5.865q0-3.543 4-5.359 4-1.817 8-2.817 70 3 131 29.5T446-446q46 46 72.5 107T548-208q-1 4-3.067 8-2.066 4-5.227 4Z"/></svg>