<svg xmlns="http://www.w3.org/2000/svg" height="24" viewBox="0 -960 960 960" width="24"><path d="M209.231-160q-20.308 0-34.77-14.461Q160-188.923 160-209.231q0-20.307 14.461-34.769 14.462-14.462 34.77-14.462 20.307 0 34.769 14.462t14.462 34.769q0 20.308-14.462 34.77Q229.538-160 209.231-160Zm521.674 0q-13.059 0-21.348-10.322-8.29-10.322-9.711-24.447-6.385-101.616-47.5-190.731T542.923-542.923Q474.615-611.231 385.5-652.346q-89.115-41.115-190.731-47.5-14.125-1.45-24.447-9.905Q160-718.207 160-730.769q0-13.119 9.923-21.444 9.923-8.326 22.615-7.095 115.308 6.385 215.116 52.5 99.808 46.116 176.423 122.731t122.731 176.423q46.115 99.808 52.5 215.116 1.231 12.692-7.057 22.615Q743.964-160 730.905-160Zm-221.674 0q-12.693 0-21.077-9.807-8.385-9.808-10.308-22.501-5.923-57.461-29.577-106.269Q424.615-347.384 386-386q-38.616-38.615-87.423-62.269-48.808-23.654-106.269-29.577-12.693-1.923-22.501-10.308Q160-496.538 160-509.095q0-13.059 9.923-21.213 9.923-8.154 22.615-6.461 69.154 6.154 129.193 34.423 60.038 28.269 106.192 74.423 46.154 46.154 74.423 106.192 28.269 60.039 34.423 129.193 1.693 12.692-6.589 22.615Q521.897-160 509.231-160Z"/></svg>