<svg xmlns="http://www.w3.org/2000/svg" height="20" viewBox="0 -960 960 960" width="20"><path d="M270.783-412.782v239q0 20.387-14.246 34.694-14.246 14.306-34.544 14.306-20.298 0-34.755-14.306-14.456-14.307-14.456-34.694v-612.436q0-20.387 14.306-34.694 14.307-14.306 34.694-14.306h283.049q18.343 0 31.415 10.702 13.071 10.703 16.842 27.037l14.739 58.261h170.391q20.387 0 34.694 14.306 14.306 14.307 14.306 34.694v324.436q0 20.387-14.306 34.694-14.307 14.306-34.694 14.306H550.913q-17.652 0-30.915-10.702-13.263-10.703-17.086-27.037l-14.739-58.261h-217.39Zm319.435-2.001h98.999v-226.434H528.522q-17.651 0-30.915-10.703-13.263-10.702-17.086-27.037l-14.739-58.26H270.783v226.434h256.695q17.651 0 30.915 10.703 13.263 10.702 17.086 27.037l14.739 58.26ZM480-576Z"/></svg>