<svg xmlns="http://www.w3.org/2000/svg" height="24" viewBox="0 -960 960 960" width="24"><path d="M211-1v-221h158v71h-95v20h95V-1H211Zm218 0v-221h146v71h-75v20h55v70h-55v60h-71Zm222 0v-150h-48v-71h166v71h-48V-1h-70ZM274-71h32v-20h-32v20Zm-74-177L59-389l141-141 58 58-36 35h515l-35-35 58-58 141 141-141 141-58-58 36-35H223l35 35-58 58ZM57-555v-46q0-30 17-56.5t46-39.5q27-13 57.5-18.5T240-721q32 0 62.5 5.5T360-697q29 13 46 39.5t17 56.5v46H57Zm480 0v-46q0-30 17-56.5t46-39.5q27-13 57.5-18.5T720-721q32 0 62.5 5.5T840-697q29 13 46 39.5t17 56.5v46H537ZM240-754q-42.488 0-72.744-30.363t-30.256-73Q137-900 167.256-930T240-960q42.487 0 72.744 30.155Q343-899.69 343-857.345T312.744-784.5Q282.487-754 240-754Zm480 0q-42.487 0-72.744-30.363-30.256-30.363-30.256-73T647.256-930q30.257-30 72.744-30 42.487 0 72.744 30.155Q823-899.69 823-857.345T792.744-784.5Q762.487-754 720-754Z"/></svg>