<svg xmlns="http://www.w3.org/2000/svg" height="20" viewBox="0 -960 960 960" width="20"><path d="M185.477-65.477v-120h-120v-98.001h120v-147.521h-120v-98.002h120v-147.521h-120v-98.001h120v-120h98.001v120h147.521v-120h98.002v120h147.521v-120h98.001v120h120v98.001h-120v147.521h120v98.002h-120v147.521h120v98.001h-120v120h-98.001v-120H529.001v120h-98.002v-120H283.478v120h-98.001Zm98.001-218.001h147.521v-147.521H283.478v147.521Zm245.523 0h147.521v-147.521H529.001v147.521ZM283.478-529.001h147.521v-147.521H283.478v147.521Zm245.523 0h147.521v-147.521H529.001v147.521Z"/></svg>