<svg xmlns="http://www.w3.org/2000/svg" height="24" viewBox="0 -960 960 960" width="24"><path d="M480-19q-26 0-44.5-18.5T417-82v-87H192q-26 0-44.5-18.5T129-232q0-26 18.5-44.5T192-295h576q26 0 44.5 18.5T831-232q0 26-18.5 44.5T768-169H543v87q0 26-18.5 44.5T480-19ZM360-546q17 0 28.5-11.5T400-586q0-17-11.5-28.5T360-626q-17 0-28.5 11.5T320-586q0 17 11.5 28.5T360-546Zm240 0q17 0 28.5-11.5T640-586q0-17-11.5-28.5T600-626q-17 0-28.5 11.5T560-586q0 17 11.5 28.5T600-546ZM240-335q-29 0-50-21t-21-50v-240q0-10.85 2-20.925Q173-677 176-687l49-145q12.632-37.778 45.789-61.389Q303.947-917 345-917h269q40.147 0 72.573 23Q719-871 733-833l51 146q4 10 5.5 20.075T791-646v240q0 29-21 50t-50 21q-29 0-50-21t-21-50v-9H311v9q0 29-21 50t-50 21Zm66-391h348l-28-80H334l-28 80Zm-26 80v120-120Zm0 120h400v-120H280v120Z"/></svg>