<svg xmlns="http://www.w3.org/2000/svg" height="20" viewBox="0 -960 960 960" width="20"><path d="M691-642h168q21.3 0 36.15 14.789 14.85 14.79 14.85 36Q910-570 895.15-554.5T859-539H690q-21.3 0-36.15-15.289-14.85-15.29-14.85-36.5Q639-612 654.35-627T691-642ZM387-497q-75 0-126.5-51.5T209-675q0-75 51.5-126T387-852q75 0 126.5 51T565-675q0 75-51.5 126.5T387-497ZM65-259v-10q0-34.78 17.5-64.39T131-380q58-33 123-51t133-18q70 0 135 17.5T643-381q31 17 48.5 46.11T709-269v10q0 49.7-34.162 83.85Q640.676-141 590.96-141H182.717Q133-141 99-175.15T65-259Z"/></svg>