<svg xmlns="http://www.w3.org/2000/svg" height="24" viewBox="0 -960 960 960" width="24"><path d="M416.846-168.154q-95.308-21.307-156.077-96.577Q200-340 200-440q0-50.846 18.615-97.731 18.616-46.884 51.308-86.038 5.615-6.616 13.154-6.731 7.538-.116 14.384 6.731 5.616 5.615 5.731 13.538.116 7.923-5.5 15-28.615 31.77-43.154 71.846Q240-483.308 240-440q0 84.077 52.115 149.115 52.116 65.039 132.5 84.193 6.846 1.692 11.116 7.307Q440-193.769 440-186.923q0 10-6.692 15.731-6.693 5.731-16.462 3.038Zm126.308 1.539q-9.769 2.692-16.462-3.154Q520-175.615 520-185.615q0-6.616 4.269-12.231 4.27-5.616 11.116-8.077 79.615-23.231 132.115-87Q720-356.692 720-440q0-100-70-170t-170-70h-25.308l49.846 49.846q6.385 6.385 6.385 14.154t-6.385 14.154q-6.384 6.384-14.154 6.384-7.769 0-14.153-6.384l-75.539-75.539q-5.231-5.23-7.346-10.692-2.116-5.462-2.116-11.923 0-6.462 2.116-11.923 2.115-5.462 7.346-10.693l75.539-75.538q6.384-6.385 14.153-6.385 7.77 0 14.154 6.385 6.385 6.385 6.385 14.154t-6.385 14.154L454.692-720H480q117.077 0 198.539 81.461Q760-557.077 760-440q0 99-61.154 174-61.153 75-155.692 99.385Z"/></svg>