<svg xmlns="http://www.w3.org/2000/svg" height="20" viewBox="0 -960 960 960" width="20"><path d="M147-217v-526q0-49.7 34.162-83.85Q215.324-861 265.04-861h430.243Q745-861 779-826.85T813-743v526h37q24.3 0 41.65 17.289 17.35 17.29 17.35 41.5Q909-134 891.65-116.5T850-99H110q-24.3 0-41.65-17.289Q51-133.579 51-157.789 51-182 68.35-199.5T110-217h37Zm118 0h139q-9-77-39.5-133.5T265-429v212Zm0-526v212q70-22 100.5-78T405-743H265Zm108 264q34 27 59.5 55t49.5 75h-4q23-48 48.5-77t60.5-55q-34-25-59.5-53T478-608h4q-24 47-49 75.5T373-479Zm322-264H556q10 77 40 133.5t99 78.5v-212Zm0 526v-212q-69 21-99.5 77.5T555-217h140ZM265-743v212-212Zm430 0v212-212Zm0 526v-212 212Zm-430 0v-212 212Z"/></svg>