<svg xmlns="http://www.w3.org/2000/svg" height="20" viewBox="0 -960 960 960" width="20"><path d="M174.783-76.782q-41.005 0-69.503-28.498-28.498-28.498-28.498-69.503v-610.434q0-41.005 28.498-69.503 28.498-28.498 69.503-28.498h610.434q41.005 0 69.503 28.498 28.498 28.498 28.498 69.503v610.434q0 41.005-28.498 69.503-28.498 28.498-69.503 28.498H174.783Zm0-220.522v122.521H240V-240h-11.782q-10.827 0-17.522-7.035Q204-254.07 204-264.783v-32.521h-29.217Zm0-86.696H204q0-17 10-29.5t26-17.5v-121q0-20 14-34t34-14h96q20 0 34 14t14 34v121q16 5 26 17.5t10 29.5h317.217v-401.217H174.783V-384ZM336-624q-25 0-42.5-17.5T276-684q0-25 17.5-42.5T336-744q25 0 42.5 17.5T396-684q0 25-17.5 42.5T336-624Zm-24 449.217h48V-240h-48v65.217Zm120 0h353.217v-122.521H468v33.086q0 10.827-6.696 17.522Q454.609-240 443.782-240H432v65.217ZM489-627q-17-20-25-40.638-8-20.638-8-42.362v-9q.85-10.833 8.925-17.917Q473-744 484-744q10 0 16.5 7.5t4.5 17.1q0 2.4-.5 4.9-.5 2.5-.5 4.5 0 14 5.5 26.5T527-657q15 18 22 38t7 46q-2 13-9.5 23t-20.423 10Q515-540 510-550.5q-5-10.5-3-22.5 11 0-2-25t-16-29Zm91 0q-17-20-25-40.638-8-20.638-8-42.362v-9q.85-10.833 8.925-17.917Q564-744 575-744q10 0 16.5 7.5t4.5 17.1q0 2.4-.5 4.9-.5 2.5-.5 4.5 0 14 5.5 26.5T618-657q15 18 22.5 38t7.5 46q-2 14-10 23.5t-20.923 9.5Q606-540 601-550.5q-5-10.5-3-22.5 11 0-2-25t-16-29Zm94 0q-17-20-25-40.638-8-20.638-8-42.362v-9q.85-10.833 8.925-17.917Q658-744 669-744q10 0 16.5 7.5t4.5 17.1q0 2.4-.5 4.9-.5 2.5-.5 4.5 0 14 5.5 26.5T712-657q15 18 22 38t7 46q-2 13-9.5 23t-20.423 10Q700-540 695-550.5q-5-10.5-3-22.5 11 0-2-25t-16-29Z"/></svg>