<svg xmlns="http://www.w3.org/2000/svg" height="24" viewBox="0 -960 960 960" width="24"><path d="M186-172q-5.95 0-9.975-4.035-4.025-4.035-4.025-10t4.025-9.965q4.025-4 9.975-4h588q5.95 0 9.975 4.035 4.025 4.035 4.025 10T783.975-176q-4.025 4-9.975 4H186Zm320-147q-5.95 0-9.975-4.035-4.025-4.035-4.025-10t4.025-9.965q4.025-4 9.975-4h268q5.95 0 9.975 4.035 4.025 4.035 4.025 10T783.975-323q-4.025 4-9.975 4H506Zm0-147q-5.95 0-9.975-4.035-4.025-4.035-4.025-10t4.025-9.965q4.025-4 9.975-4h268q5.95 0 9.975 4.035 4.025 4.035 4.025 10T783.975-470q-4.025 4-9.975 4H506Zm0-147q-5.95 0-9.975-4.035-4.025-4.035-4.025-10t4.025-9.965q4.025-4 9.975-4h268q5.95 0 9.975 4.035 4.025 4.035 4.025 10T783.975-617q-4.025 4-9.975 4H506ZM186-760q-5.95 0-9.975-4.035-4.025-4.035-4.025-10t4.025-9.965q4.025-4 9.975-4h588q5.95 0 9.975 4.035 4.025 4.035 4.025 10T783.975-764q-4.025 4-9.975 4H186Zm12 352q-7 7-16.5 3.458Q172-408.083 172-418v-124q0-9.917 9.5-13.458Q191-559 198-552l61 61q5 4.636 5 10.818Q264-474 259-469l-61 61Z"/></svg>