<svg xmlns="http://www.w3.org/2000/svg" height="20" viewBox="0 -960 960 960" width="20"><path d="M467-168q5 17 13.5 37T499-96H216q-29.7 0-50.85-21.15Q144-138.3 144-168v-624q0-29.7 21.15-50.85Q186.3-864 216-864h480q29.7 0 50.85 21.15Q768-821.7 768-792v293q-16-3-35.5-4.5t-36.5.5v-289H480v283q0 10-8.5 15.5t-17.5.5l-70-35-70 35q-9 5-17.5-.5T288-509v-283h-72v624h251ZM719.774-48Q640-48 584-104.226t-56-136Q528-320 584.226-376t136-56Q800-432 856-375.774t56 136Q912-160 855.774-104t-136 56ZM700-163l94-62q8-5.357 8-15.179Q802-250 794-255l-93.804-62.171Q691-323 681.5-317.978 672-312.957 672-302v124q0 10.588 9.484 15.794Q690.968-157 700-163ZM288-792h192-192Zm192 0H216h480-216Z"/></svg>