<svg xmlns="http://www.w3.org/2000/svg" height="24" viewBox="0 -960 960 960" width="24"><path d="M280-788v212q0 18 16 27.5t32-.5l52-31 52 31q16 10 32 .5t16-27.5v-212H280ZM720-40q-83 0-141.5-58.5T520-240q0-83 58.5-141.5T720-440q83 0 141.5 58.5T920-240q0 83-58.5 141.5T720-40Zm-2-130 69-43q15-9 15-27t-15-27l-69-43q-16-10-32-1t-16 28v86q0 19 16 28t32-1Zm-278-69.903q0 55.17 20.5 105.578Q481-83.918 519-46H212q-52 0-89-37t-37-89v-616q0-52 37-89t89-37h456q52 0 89 37.13 37 37.129 37 89.311V-510q-18.064-6-36.56-8.5-18.495-2.5-37.491-3.5Q603-522 521.5-439.68 440-357.361 440-239.903Z"/></svg>