<svg xmlns="http://www.w3.org/2000/svg" height="20" viewBox="0 -960 960 960" width="20"><path d="M288-780v250q0 16 14.5 25.5t29.5.5l52-24 52 24q15 9 29.5-.5T480-530v-250H288ZM719.774-48Q640-48 584-104.226t-56-136Q528-320 584.226-376t136-56Q800-432 856-375.774t56 136Q912-160 855.774-104t-136 56ZM717-174l61-41q13-8.357 13-25.179Q791-257 778-265l-60.804-41.171Q702-316 687-307.478q-15 8.521-15 26.478v82q0 17.588 14.984 26.294T717-174Zm-261-65.635q0 50.394 18.5 96.556Q493-96.918 528-62H228q-48.7 0-83.35-34.65Q110-131.3 110-180v-600q0-48.7 34.65-83.35Q179.3-898 228-898h456q48.7 0 83.35 34.779Q802-828.441 802-779.559V-491q-19-7-38.932-10.5-19.931-3.5-38.449-4.5-111.405 0-190.012 77.315T456-239.635Z"/></svg>