<svg xmlns="http://www.w3.org/2000/svg" height="20" viewBox="0 -960 960 960" width="20"><path d="M314-792v250q0 7.391 6 11.696 6 4.304 13 .304l51-24 51 24q7 4 13-.304 6-4.305 6-11.696v-250H314Zm379.774 676Q635-116 594.5-156.726t-40.5-99.5Q554-315 595.226-355.5t104-40.5Q754-396 794-355.274t40 99.5Q834-197 793.274-156.5t-99.5 40.5ZM687-210l46-38q4-4.357 4-10.179 0-5.821-4-9.821l-45.804-38.171Q680-311 673-307.413q-7 3.587-7 11.413v76q0 7.458 6.984 11.229Q679.968-205 687-210Zm-205-45.732q0 28.514 7 55.623Q496-173 511-148H248q-21.45 0-36.725-15.275Q196-178.55 196-200v-560q0-21.45 15.275-36.725Q226.55-812 248-812h416q21.45 0 36.725 15.275Q716-781.45 716-760v296q-3.186-1-6.872-2t-5.458-1q-90.985 0-156.327 61.136Q482-344.729 482-255.732Z"/></svg>