<svg xmlns="http://www.w3.org/2000/svg" height="24" viewBox="0 -960 960 960" width="24"><path d="M52-192v-576h856v576H52Zm307.882-196Q399-388 426.5-415.382q27.5-27.383 27.5-66.5Q454-521 426.618-548.5q-27.383-27.5-66.5-27.5Q321-576 293.5-548.618q-27.5 27.383-27.5 66.5Q266-443 293.382-415.5q27.383 27.5 66.5 27.5ZM142-220h436q-42-48-98-78t-120-30q-64 0-120 30t-98 78Zm582-50 60-60-46-62h-70q-8-24-11-44.5t-3-43.5q0-23 3-42.5t11-45.5h70l46-62-60-60q-47 39-72.5 93.5T626-480q0 62 25.5 116.5T724-270Z"/></svg>