<svg xmlns="http://www.w3.org/2000/svg" height="24" viewBox="0 -960 960 960" width="24"><path d="M40-175.384v-609.232h880v609.232H40Zm319.91-215.385q41.629 0 70.859-29.141Q460-449.05 460-490.679q0-41.629-29.14-70.86t-70.77-29.231q-41.629 0-70.859 29.141Q260-532.489 260-490.86q0 41.629 29.14 70.86t70.77 29.231ZM128.615-215.385h462.77q-42-54.23-102.154-87.115Q429.077-335.385 360-335.385T230.769-302.5q-60.154 32.885-102.154 87.115Zm603.693-47.692 64.615-64.615-49.23-66.154h-69.077q-7.539-22.616-10.77-43.116-3.23-20.5-3.23-43.038 0-22.538 3.23-42.038 3.231-19.5 10.77-44.116h69.077l49.23-66.154-64.615-64.615q-48.616 39.692-75.846 96.5Q629.231-543.615 629.231-480t27.231 120.423q27.23 56.808 75.846 96.5Z"/></svg>