<svg xmlns="http://www.w3.org/2000/svg" height="20" viewBox="0 -960 960 960" width="20"><path d="m746.753-254.539 72.707-72.307-54.139-74.077h-67.015q-6.34-19.087-9.67-38.198-3.33-19.11-3.33-40.879t3.116-39.769q3.115-18 9.801-39.308h66.622l54.615-73.755-72.577-72.629q-52.038 40.846-82.153 100Q634.615-546.307 634.615-480q0 66.307 30.28 125.461 30.28 59.154 81.858 100ZM20.001-171.694v-616.612H940v616.612H20.001Zm550.501-51.999H888v-512.614H72v512.614h22.31q51.999-45.614 113.076-72.806 61.076-27.192 128.114-27.192 67.038 0 125.614 27.692 58.577 27.692 109.388 72.306ZM335.955-379.384q45.814 0 77.929-32.07t32.115-77.884q0-45.814-32.07-77.93-32.07-32.115-77.884-32.115t-77.929 32.07q-32.115 32.07-32.115 77.884t32.07 77.93q32.07 32.115 77.884 32.115ZM185-223.693h299q-33.385-22-70.76-35-37.376-13-77.74-13-40.5 0-79.5 11.5t-71 36.5Zm151-207.69q-24.246 0-41.124-16.877-16.877-16.877-16.877-41.124 0-24.246 16.877-41.123 16.878-16.877 41.124-16.877 24.246 0 41.124 16.877 16.877 16.877 16.877 41.123 0 24.247-16.877 41.124-16.878 16.877-41.124 16.877ZM480-480Z"/></svg>