<svg xmlns="http://www.w3.org/2000/svg" height="24" viewBox="0 -960 960 960" width="24"><path d="M582.231-516.923q-9-22.923-25.962-39.731-16.961-16.808-39.884-24.933V-838q128.93 12.497 219.542 102.21T839-516.923H582.231ZM445.615-122Q307-136.231 214-238.308q-93-102.077-93-241.785t93-242.462Q307-825.308 445.615-838v256.049q-32.923 11.72-52.615 39.908-19.692 28.188-19.692 62.192 0 34.005 20.077 61.043 20.076 27.039 52.23 38.768V-122Zm70.77 0v-258.169q23.46-8.124 40.153-24.824 16.693-16.699 25.693-39.622H839q-12.616 128.866-103.183 219.432Q645.251-134.616 516.385-122Z"/></svg>