<svg xmlns="http://www.w3.org/2000/svg" height="20" viewBox="0 -960 960 960" width="20"><path d="M584.231-512.923q-11-23.923-29.462-41.231-18.461-17.308-42.384-27.433V-822q123.93 12.497 211.042 98.71T823-512.923H584.231ZM449.615-138Q316-152.231 226.5-249.308 137-346.385 137-480.093t89.5-231.962Q316-810.308 449.615-822v240.049q-33.923 12.72-55.115 39.908-21.192 27.188-21.192 62.192 0 35.005 21.577 62.543 21.576 27.539 54.73 39.268V-138Zm62.77 0v-240.169q24.46-10.124 43.153-28.324 18.693-18.199 28.693-42.122H823q-12.616 123.866-99.683 210.932Q636.251-150.616 512.385-138Z"/></svg>