<svg xmlns="http://www.w3.org/2000/svg" height="20" viewBox="0 -960 960 960" width="20"><path d="M480-766.77 728-580v396H232v-396l248-186.77ZM479.91-404q36.629 0 62.359-25.64Q568-455.28 568-491.91q0-36.629-25.64-62.359Q516.719-580 480.09-580q-36.629 0-62.359 25.64Q392-528.719 392-492.09q0 36.629 25.64 62.359Q443.28-404 479.91-404Zm.301-32q-22.903 0-39.557-16.443Q424-468.887 424-491.789q0-22.903 16.443-39.557Q456.887-548 479.789-548q22.903 0 39.557 16.443Q536-515.113 536-492.211q0 22.903-16.443 39.557Q503.113-436 480.211-436Zm-2.269 152q-52.628 0-102.169 17.885-49.542 17.884-93.234 50.115h391.076q-41.923-32.231-92.311-50.115Q530.915-284 477.942-284ZM264-564v327.692q45.262-38.177 99.912-58.934Q418.562-316 477.692-316q60.41 0 116.244 19.923 55.833 19.923 102.064 59V-564L480-726 264-564Zm216 72Z"/></svg>