<svg xmlns="http://www.w3.org/2000/svg" height="24" viewBox="0 -960 960 960" width="24"><path d="m480-815.383 299.999 225.384v449.998H180.001v-449.998L480-815.383Zm-.045 445.382q45.814 0 77.929-32.07t32.115-77.884q0-45.814-32.07-77.929t-77.884-32.115q-45.814 0-77.929 32.07t-32.115 77.884q0 45.814 32.07 77.929t77.884 32.115Zm.045-59.998q-20.846 0-35.424-14.577-14.577-14.578-14.577-35.424t14.577-35.424q14.578-14.577 35.424-14.577t35.424 14.577q14.577 14.578 14.577 35.424t-14.577 35.424Q500.846-429.999 480-429.999Zm-1.029 179.998q-46.125 0-89.741 12.693-43.616 12.692-82.462 37.308h344.541q-38.462-24.616-82.337-37.308-43.876-12.693-90.001-12.693ZM240-560v333.847q51.231-40.538 112.106-62.192 60.875-21.654 126.74-21.654 66.54 0 128.039 21.461 61.5 21.462 113.115 62.001V-560L480-740 240-560Zm240 80Z"/></svg>