<svg xmlns="http://www.w3.org/2000/svg" height="24" viewBox="0 -960 960 960" width="24"><path d="M480-790.77 760-580v420H200v-420l280-210.77ZM479.91-380q41.629 0 70.859-29.14Q580-438.28 580-479.91q0-41.629-29.14-70.859Q521.719-580 480.09-580t-70.859 29.14Q380-521.719 380-480.09t29.14 70.859Q438.28-380 479.91-380Zm.09-40q-24.692 0-42.346-17.654Q420-455.308 420-480q0-24.692 17.654-42.346Q455.308-540 480-540q24.692 0 42.346 17.654Q540-504.692 540-480q0 24.692-17.654 42.346Q504.692-420 480-420Zm-2.058 160q-51.25 0-99.48 15.385-48.231 15.384-90.923 44.615h381.076q-41.923-29.231-90.673-44.615-48.75-15.385-100-15.385ZM240-560v347.692q50.462-42.077 111.212-64.884Q411.962-300 477.692-300q67.081 0 129.079 22.423 61.998 22.423 113.229 64.5V-560L480-740 240-560Zm240 80Z"/></svg>