<svg xmlns="http://www.w3.org/2000/svg" height="24" viewBox="0 -960 960 960" width="24"><path d="M479.91-380q41.629 0 70.859-29.14Q580-438.28 580-479.91q0-41.629-29.14-70.859Q521.719-580 480.09-580t-70.859 29.14Q380-521.719 380-480.09t29.14 70.859Q438.28-380 479.91-380ZM240-200h480v-7.154q0-14.283-6-26.526t-17.231-20.012q-48.231-34.077-103.986-51.731-55.755-17.654-115.091-17.654-58 0-112.5 18.039-54.5 18.038-101.646 52.176Q252-245.154 246-232.911t-6 26.526V-200Zm-40 40v-420l280-210.77L760-580v420H200Z"/></svg>