<svg xmlns="http://www.w3.org/2000/svg" height="20" viewBox="0 -960 960 960" width="20"><path d="M479.882-396Q529-396 563.5-430.176q34.5-34.177 34.5-83Q598-562 563.618-596.5q-34.383-34.5-83.5-34.5Q431-631 396.5-596.618q-34.5 34.383-34.5 83.5Q362-464 396.382-430q34.383 34 83.5 34ZM276-228h408v-42q0-13.263-7-24.632Q670-306 659-314q-39.602-24.156-84.823-35.078Q528.956-360 481.978-360t-93.563 12.438Q341.829-335.125 301-312q-11 7-18 18.684-7 11.684-7 25.316v40ZM158-110v-507l322-242 322 241.667V-110H158Z"/></svg>