<svg xmlns="http://www.w3.org/2000/svg" height="20" viewBox="0 -960 960 960" width="20"><path d="m480-816 288 216v456H192v-456l288-216Zm0 432q45 0 76.5-31.5T588-492q0-45-31.5-76.5T480-600q-45 0-76.5 31.5T372-492q0 45 31.5 76.5T480-384Zm.211-72Q465-456 454.5-466.289q-10.5-10.29-10.5-25.5Q444-507 454.289-517.5q10.29-10.5 25.5-10.5Q495-528 505.5-517.711q10.5 10.29 10.5 25.5Q516-477 505.711-466.5q-10.29 10.5-25.5 10.5ZM480-264q-42.378 0-82.689 12.5Q357-239 321-216h318q-35-23-75.639-35.5Q522.723-264 480-264ZM264-564v300q46.8-35.1 101.7-53.55Q420.6-336 480-336q59.33 0 114.165 18Q649-300 696-264v-300L480-726 264-564Zm216 72Z"/></svg>