<svg xmlns="http://www.w3.org/2000/svg" height="24" viewBox="0 -960 960 960" width="24"><path d="M313.782-140.782q-22.087 0-37.544-15.456-15.456-15.457-15.456-37.544v-572.436q0-22.087 15.456-37.544 15.457-15.456 37.544-15.456h332.436q22.087 0 37.544 15.456 15.456 15.457 15.456 37.544v572.436q0 22.087-15.456 37.544-15.457 15.456-37.544 15.456H313.782ZM83.824-271.521v-417.958q0-22.087 15.457-37.044 15.457-14.956 37.544-14.956 22.087 0 37.544 15.456 15.457 15.457 15.457 37.544v417.958q0 22.087-15.457 37.044-15.457 14.956-37.544 14.956-22.087 0-37.544-15.456-15.457-15.457-15.457-37.544Zm686.35 0v-417.958q0-22.087 15.457-37.044 15.457-14.956 37.544-14.956 22.087 0 37.544 15.456 15.457 15.457 15.457 37.544v417.958q0 22.087-15.457 37.044-15.457 14.956-37.544 14.956-22.087 0-37.544-15.456-15.457-15.457-15.457-37.544Zm-403.391 24.738h226.434v-466.434H366.783v466.434Zm0 0v-466.434 466.434Z"/></svg>