<svg xmlns="http://www.w3.org/2000/svg" height="24" viewBox="0 -960 960 960" width="24"><path d="M264.615-200h430.77q10.769 0 17.692-6.923T720-224.615v-86.154H240v86.154q0 10.769 6.923 17.692T264.615-200ZM240-350.769h480v-110.769H240v110.769Zm0-150.77h480V-556l-74.154-56.308H314.154L240-556v54.461Zm126.616-150.769h227.538l-99.539-75.154q-6.154-5.384-14.615-5.384t-14.615 5.384l-98.769 75.154ZM200-224.615v-301.154l-61.539 47.923q-7.077 5.385-14.615 4.154-7.539-1.231-12.923-8.308-5.385-7.077-4.539-14.615.846-7.539 7.693-12.924L200-576v-85.539q0-8.538 5.731-14.269 5.73-5.731 14.269-5.731 8.538 0 14.269 5.731T240-661.539V-607l201-152.923q18.154-13.154 39.385-13.154 21.23 0 38.615 13.154l326.923 250.384q6.847 5.385 7.693 12.924.846 7.538-4.539 14.615-5.384 6.846-12.923 8.077-7.538 1.231-14.385-4.154L760-525.769v301.154q0 26.846-18.884 45.731Q722.231-160 695.385-160h-430.77q-26.846 0-45.731-18.884Q200-197.769 200-224.615Zm22-504.616q-9.154 0-15.116-7.462-5.961-7.461-2.653-15.923 7-29 31.038-46.654 24.039-17.653 53.962-17.653 16.384 0 30.23-9.347 13.847-9.346 17.308-24.73 1.923-5.923 6.962-9.77 5.038-3.846 11.423-3.846 9.923 0 16.154 7.846 6.231 7.847 2.923 17.078-7.769 28.23-31.423 45.5-23.654 17.269-53.577 17.269-16.385 0-30.231 8.077t-17.308 23.692q-2.692 6.692-7.615 11.308-4.923 4.615-12.077 4.615Z"/></svg>