<svg xmlns="http://www.w3.org/2000/svg" height="20" viewBox="0 -960 960 960" width="20"><path d="M266.261-224.479h426.913v-55.042H266.261v55.042Zm0-144h426.913v-55.042H266.261v55.042Zm0-144h426.913v-28.478l-37.531-26.564h-355.47l-33.912 25.999v29.043Zm150.522-144h121.912l-60.956-47.347-60.956 47.347ZM176.738-233.416v-238.54l-22.944 18.176q-15.012 11.041-33.968 8.476-18.957-2.566-30.218-17.392-11.261-14.261-8.53-32.792 2.73-18.531 17.79-30.078l77.87-59.435v-86.869q0-18.692 13.116-31.585 13.116-12.894 33.414-12.894 18.036 0 30.515 12.328 12.478 12.329 12.478 30.455v19.999l154.081-116.972q26.614-20.418 59.327-20.418 32.712 0 59.241 20.342l321.423 245.076q14.494 11.234 17.059 29.626 2.565 18.391-8.696 33.662-11.261 14.381-29.868 17.229-18.607 2.848-33.567-8.413l-23.13-18.521v238.54q0 40.961-28.51 69.428t-69.532 28.467H274.456q-41.021 0-69.369-28.467-28.349-28.467-28.349-69.428Zm53.044-529.498q-24.475 0-38.194-19.044-13.719-19.043-3.154-38.87 17.392-36.044 50.96-58.544t74.868-22.5q13.826 0 24.587-5.848t17.457-17.056q7.261-11.444 19.435-19.771 12.174-8.326 25.617-8.326 24.409 0 37.353 20.044 12.943 20.043.813 40.435-17.826 35.044-51.74 57.261-33.913 22.218-73.522 22.218-13.827 0-24.588 6.413-10.761 6.413-17.456 17.459-7.261 11.042-18.653 18.585-11.391 7.544-23.783 7.544Z"/></svg>