<svg xmlns="http://www.w3.org/2000/svg" height="20" viewBox="0 -960 960 960" width="20"><path d="M268-231h423v-42H268v42Zm0-144h423v-42H268v42Zm0-144h423v-25l-26.227-17H288l-20 16v26Zm154-144h108l-54-43-54 43ZM165-246.893V-465l-13.815 11.22Q134-441 112-444q-22-3-35-20-13-16-9.618-37.357Q70.765-522.714 88-536l77-59v-86q0-21.3 15.289-36.15 15.29-14.85 39.5-14.85Q240-732 254-718.15T268-684v10l140.169-105.669Q440-804 479.234-804q39.234 0 70.98 24.255l320.118 243.771Q887-523 890-502q3 21-10 38.444Q867-447 845.567-443.5 824.133-440 807-453l-14-12v218.107q0 49.656-34.162 83.774Q724.676-129 674.96-129H282.717Q233-129 199-163.119q-34-34.118-34-83.774ZM225-779q-27.083 0-42.542-21Q167-821 178-843q20-43 59.438-70.5Q276.875-941 326-941q16 0 28.5-6.5t20.5-19.447Q384-981 399-991.5t31.052-10.5q27.017 0 41.482 22Q486-958 473-935q-20 42-60 69t-87 27q-16 0-28.5 7.5T277-811.65q-9 13.65-23 23.15-14 9.5-29 9.5Z"/></svg>