<svg xmlns="http://www.w3.org/2000/svg" height="24" viewBox="0 -960 960 960" width="24"><path d="M172-126q-53 0-89.5-36.5T46-252v-456q0-53 36.5-89.5T172-834h616q53 0 89.5 36.5T914-708v456q0 53-36.5 89.5T788-126H172Zm299-183q24 0 47-6t43-18l44 45q14 14 33 14t33-14q14-14 14-33.5T671-355l-44-44q13-20 18.5-43t5.5-47q0-75-52.5-127.5T471-669q-75 0-127.5 52.5T291-489q0 75 52.5 127.5T471-309Zm.197-96Q436-405 411-429.303t-25-59.5Q386-524 411-549t60.197-25q35.197 0 59.5 25Q555-524 555-488.803t-24.303 59.5Q506.394-405 471.197-405Z"/></svg>