<svg xmlns="http://www.w3.org/2000/svg" height="20" viewBox="0 -960 960 960" width="20"><path d="M480-64q-85.886 0-161.943-32.5Q242-129 184.5-186.5 127-244 94.5-320.057 62-396.114 62-482q0-164.76 110.5-283.38T444-898v142q-103 12-171.5 90.5T204-481.668q0 114.847 80.446 195.257Q364.892-206 479.791-206 548-206 605-236t93-80l124 74q-56 83-145.777 130.5Q586.446-64 480-64Zm378-240-124-74q10-24 16-50.513 6-26.513 6-53.487 0-105-68.5-183T516-756v-142q161 14 271.5 132.62T898-482q0 47.742-10.5 92.371T858-304Z"/></svg>