<svg xmlns="http://www.w3.org/2000/svg" height="20" viewBox="0 -960 960 960" width="20"><path d="M174.769-529.231v-130.154q0-13.692 8.077-21.769 8.077-8.077 21.769-8.077h118.462q12.923 0 21.384 8.462 8.462 8.461 8.462 21.384v130.154q0 11.923-8.462 20.885-8.461 8.961-21.384 8.961H204.615q-12.923 0-21.384-8.961-8.462-8.962-8.462-20.885Zm246.769 29.846q-11.923 0-20.884-8.961-8.962-8.962-8.962-20.885v-130.154q0-12.923 8.962-21.384 8.961-8.462 20.884-8.462h116.924q12.923 0 21.384 8.462 8.462 8.461 8.462 21.384v130.154q0 11.923-8.462 20.885-8.461 8.961-21.384 8.961H421.538Zm215.385 0q-12.923 0-21.384-8.961-8.462-8.962-8.462-20.885v-130.154q0-12.923 8.462-21.384 8.461-8.462 21.384-8.462h118.462q13.692 0 21.769 8.077 8.077 8.077 8.077 21.769v130.154q0 11.923-8.462 20.885-8.461 8.961-21.384 8.961H636.923ZM323.077-270.769H204.615q-13.692 0-21.769-8.577-8.077-8.577-8.077-21.269v-130.154q0-12.923 8.462-21.385 8.461-8.461 21.384-8.461h118.462q12.923 0 21.384 8.461 8.462 8.462 8.462 21.385v130.154q0 11.923-8.462 20.884-8.461 8.962-21.384 8.962Zm98.461 0q-11.923 0-20.884-8.962-8.962-8.961-8.962-20.884v-130.154q0-12.923 8.962-21.385 8.961-8.461 20.884-8.461h116.924q12.923 0 21.384 8.461 8.462 8.462 8.462 21.385v130.154q0 11.923-8.462 20.884-8.461 8.962-21.384 8.962H421.538Zm215.385 0q-12.923 0-21.384-8.962-8.462-8.961-8.462-20.884v-130.154q0-12.923 8.462-21.385 8.461-8.461 21.384-8.461h118.462q12.923 0 21.384 8.461 8.462 8.462 8.462 21.385v130.154q0 12.692-8.077 21.269-8.077 8.577-21.769 8.577H636.923Z"/></svg>