<svg xmlns="http://www.w3.org/2000/svg" height="24" viewBox="0 -960 960 960" width="24"><path d="M360-111.869H71.87v-656.262h209.826l77.347-80h241.914l77.347 80h209.827v656.262H600v-91.001h197.13v-474.26H638.717l-75.63-80H397.63l-77.065 80H162.87v474.26H360v91.001Zm80 0h80V-241.37q86-14 143-80.5t57-155.5h-80q0 66-47 111.685T480-320q-66 0-113-45.685T320-477.37h-80q0 89 57 155.5t143 80.5v129.501Zm40-285.501q33 0 56.5-23.5t23.5-56.5v-160q0-33-23.5-56.5t-56.5-23.5q-33 0-56.5 23.5t-23.5 56.5v160q0 33 23.5 56.5t56.5 23.5Zm-317.13 194.5h634.26-634.26Z"/></svg>