<svg xmlns="http://www.w3.org/2000/svg" height="20" viewBox="0 -960 960 960" width="20"><path d="M136-184v-496h168.923l72-96h206.154l72 96H824v496H496v-112.307q77.231-9.385 130.616-65.116Q680-417.154 680-495.385h-32q0 70-49 119t-119 49q-70 0-119-49t-49-119h-32q0 78.231 53.384 133.962Q386.769-305.692 464-296.307V-184H136Zm344-246.154q18.308 0 30.269-11.961 11.962-11.962 10.962-29.27v-144q-1-17.307-12.462-29.269-11.461-11.961-28.557-11.961-17.095 0-29.269 12.137t-12.174 29.181v144.176q0 17.044 12.112 29.006 12.111 11.961 29.119 11.961Z"/></svg>