<svg xmlns="http://www.w3.org/2000/svg" height="20" viewBox="0 -960 960 960" width="20"><path d="M329.348-177.13q-13.696-13.696-13.696-32.109 0-18.413 13.696-32.109l25.26-24.26q-138.74-18.13-216.283-76.739Q60.782-400.956 60.782-480q0-98.827 120.087-159.023Q300.956-699.218 480-699.218q179.044 0 299.131 59.913Q899.218-579.392 899.218-480q0 59.783-48.152 107.457-48.152 47.674-129.021 76.805-32.479 11.391-58.262-1.935T638-346.043q0-16.957 11.326-31.631t28.848-19.805q55.783-17.304 83.413-40.195 27.63-22.891 27.63-42.326 0-30.13-79.978-69.674Q629.261-589.217 480-589.217q-149.261 0-229.239 39.543Q170.783-510.13 170.783-480q0 27 44.217 58.109 44.217 31.108 138.217 48.108l-23.869-23.869q-13.696-13.696-13.696-32.109 0-18.413 13.696-32.109 13.695-13.696 32.608-14.196 18.914-.5 32.609 13.196l104.261 103.826q8.261 8.261 12.109 18.522 3.848 10.261 3.848 20.522t-3.848 20.522q-3.848 10.261-12.109 18.522L393.565-177.13q-13.695 13.696-32.109 13.696-18.413 0-32.108-13.696Z"/></svg>