<svg xmlns="http://www.w3.org/2000/svg" height="24" viewBox="0 -960 960 960" width="24"><path d="M327.385-224.923Q321-231.307 321-239.077q0-7.769 6.385-14.154l71.692-71.692Q282.615-340.384 201.307-383 120-425.615 120-480q0-64.539 104.731-112.269Q329.461-640 480-640t255.269 47.731Q840-544.539 840-480q0 39.385-47.769 77.077t-127.846 59.308q-10 2.923-17.193-2.692Q640-351.923 640-363.154q0-5.846 4.269-11.577 4.27-5.731 10.116-7.423 69.923-20 107.769-48.154Q800-458.462 800-480q0-34.308-85.5-77.154T480-600q-149 0-234.5 42.846T160-480q0 28.615 66.385 64.038 66.384 35.423 168.076 50.116l-67.076-67.077q-5.616-5.615-6-13.769-.385-8.154 6-14.539 6.384-6.384 14.154-6.384 7.769 0 14.154 6.384l95.538 95.539q5.231 5.231 7.346 10.692 2.116 5.462 2.116 11.923 0 6.462-2.116 11.923-2.115 5.462-7.346 10.693l-95.538 95.538q-5.616 5.616-13.77 6-8.154.385-14.538-6Z"/></svg>