<svg xmlns="http://www.w3.org/2000/svg" height="24" viewBox="0 -960 960 960" width="24"><path d="M326.348-176.13q-12.696-12.696-12.696-31.109 0-18.413 12.696-31.109l33.26-33.26q-138.74-18.13-218.783-74.239Q60.782-401.956 60.782-480q0-98.827 120.587-159.023Q301.956-699.218 480-699.218q178.044 0 298.631 59.913Q899.218-579.392 899.218-480q0 60.783-51.152 109.457-51.152 48.674-137.021 76.805-28.479 9.391-49.762-4.435T640-343.043q0-15.957 11.326-31.131t27.848-20.305q56.783-18.304 85.413-42.195 28.63-23.891 28.63-43.326 0-33.13-80.978-73.174Q631.261-593.217 480-593.217q-151.261 0-232.239 40.043Q166.783-513.13 166.783-480q0 24 44.217 54.109 44.217 30.108 138.217 47.108l-22.869-22.869q-12.696-12.696-12.696-31.109 0-18.413 12.696-31.109 12.695-12.696 31.108-12.696 18.414 0 31.109 12.696l106.261 106.826q8.261 8.261 11.609 17.522 3.348 9.261 3.348 19.522t-3.348 19.522q-3.348 9.261-11.609 17.522L388.565-176.13q-12.695 12.696-31.109 12.696-18.413 0-31.108-12.696Z"/></svg>