<svg xmlns="http://www.w3.org/2000/svg" height="20" viewBox="0 -960 960 960" width="20"><path d="M128.479-261.999q-41.005 0-69.503-28.498Q30.477-318.995 30.477-360v-280.522q0-18.903 13.116-31.691t31.718-12.788q18.602 0 31.645 12.788Q120-659.425 120-640.522V-360h344.479v-226.999q0-41.005 28.498-69.503 28.498-28.499 69.503-28.499H768q67.228 0 114.375 47.148 47.148 47.147 47.148 114.375V-360q0 41.005-28.499 69.503-28.498 28.498-69.503 28.498H128.479Zm164.143-141.479q53.491 0 90.935-37.826t37.444-91.318q0-53.491-37.444-90.935t-90.935-37.444q-53.492 0-91.318 37.444t-37.826 90.935q0 53.492 37.826 91.318t91.318 37.826Z"/></svg>