<svg xmlns="http://www.w3.org/2000/svg" height="24" viewBox="0 -960 960 960" width="24"><path d="M825-234H135q-53 0-89.5-36.5T9-360v-288q0-23.375 16.5-39.188Q42-703 65-703t39 15.812q16 15.813 16 39.188v288h335v-217q0-53 36.5-89.5T581-703h179q78.787 0 134.894 56.106Q951-590.787 951-512v152q0 53-36.5 89.5T825-234ZM566-360h274v-152q0-33-23.5-56.5T760-592H566v232Zm0-232v232-232ZM288.176-392q56.177 0 95.5-40Q423-472 423-528.176q0-56.177-39.324-95.501Q344.353-663 288.176-663 232-663 192-623.677q-40 39.324-40 95.501Q152-472 192-432t96.176 40ZM288-488q-17 0-28.5-11.5T248-528q0-17 11.5-28.5T288-568q17 0 28.5 11.5T328-528q0 17-11.5 28.5T288-488Zm0-40Z"/></svg>