<svg xmlns="http://www.w3.org/2000/svg" height="20" viewBox="0 -960 960 960" width="20"><path d="M819.697-375.521v-208.958h130.175v208.958H819.697Zm-600.65 105.609q-81.744 0-145.331-45.854-63.587-45.854-63.587-110.993v-106.277q0-65.138 63.587-111.095 63.587-45.957 145.331-45.957 45.777 0 77.93 1.631 32.153 1.63 59.414 13.195 20.696 9.131 40.199 23.913 19.504 14.783 41.222 13.783h330.494v315.132H437.642q-21.729-1-41.142 13.783-19.413 14.782-40.109 23.913-27.261 11.565-59.414 13.195-32.153 1.631-77.93 1.631Zm.039-78.783q31.658 0 56.567-7.739 24.908-7.739 46.974-16.344 27.199-11.901 54.356-20.17 27.157-8.269 60.832-8.269h251.708v-157.566H437.815q-33.675 0-60.832-8.269-27.157-8.269-54.356-20.17-21.971-8.605-46.741-16.344-24.77-7.739-56.696-7.739-49.061 0-89.67 23.865-40.609 23.866-40.609 54.353v30.391h25.696q9.531 0 16.113 6.583 6.583 6.583 6.583 16.113t-6.583 16.113q-6.582 6.583-16.113 6.583H88.911v30.325q0 30.327 40.68 54.306 40.679 23.978 89.495 23.978ZM88.911-480Z"/></svg>