<svg xmlns="http://www.w3.org/2000/svg" height="20" viewBox="0 -960 960 960" width="20"><path d="m164.077-109.847-47.23-35.076 101.384-132.846 32.77-196.692q2.615-17.308 15.692-30t31-17.923l381.231-117.154 71.23-148.616 111.923-111.537 40.692 39.922-93.693 89.461-75.846 188.154-209.846 117.923-199.077 64.153L282.153-261 164.077-109.847ZM120-410.308q-27.308 0-46.577-19.269t-19.269-46.577q0-27.307 19.27-46.576Q92.691-541.999 120-541.999q27.307 0 46.577 19.269 19.269 19.269 19.269 46.576 0 27.308-19.269 46.577-19.27 19.269-46.577 19.269Zm240.461-195.077q-20.307 6.231-38.884-3.923Q303-619.461 295.77-640.154q-6.231-20.307 4.115-39.192 10.346-18.884 30.654-25.499l166.23-52.77 30.538 98.461-166.846 53.769Z"/></svg>