<svg xmlns="http://www.w3.org/2000/svg" height="20" viewBox="0 -960 960 960" width="20"><path d="M167.696-84.13 91.13-141.304 200.52-285.391l32-191.739q3.566-22.261 20.261-39.24 16.696-16.978 39.957-24.109l373.043-114.869 71.435-141.739L866.826-923.87l59.87 59.305-99.956 101.087-75.392 193.13-219.391 123.261-193.174 61.87-39.87 133.739L167.696-84.13ZM105.869-399.52q-33.392 0-57.218-23.544T24.825-480q0-33.391 23.826-56.935 23.826-23.544 57.218-23.544 33.391 0 56.935 23.544 23.544 23.544 23.544 56.935 0 33.391-23.544 56.935-23.544 23.544-56.935 23.544Zm249.913-215.653q-26.391 7.565-50.283-5.631-23.891-13.196-32.456-39.587-7.566-26.392 5.63-50.5 13.196-24.109 39.587-32.24l179.914-57.652 38.522 126.957-180.914 58.653Z"/></svg>