<svg xmlns="http://www.w3.org/2000/svg" height="20" viewBox="0 -960 960 960" width="20"><path d="M241.696-196.782v72H124.782v-358.609l101.652-255.827h507.132l101.652 255.827v358.609H718.304v-72H241.696ZM248.913-528h462.174l-45.174-113.217H294.087L248.913-528Zm-26.13 72v161.217V-456Zm92.608 128.609q20 0 34-14t14-34q0-20-14-34t-34-14q-20 0-34 14t-14 34q0 20 14 34t34 14Zm329.218 0q20 0 34-14t14-34q0-20-14-34t-34-14q-20 0-34 14t-14 34q0 20 14 34t34 14Zm-421.826 32.608h514.434V-456H222.783v161.217Z"/></svg>