<svg xmlns="http://www.w3.org/2000/svg" height="20" viewBox="0 -960 960 960" width="20"><path d="M299.789-405.231q10.596 0 18.788-7.982 8.192-7.981 8.192-18.576 0-10.596-7.982-18.788-7.981-8.192-18.576-8.192-10.596 0-18.788 7.982-8.192 7.981-8.192 18.576 0 10.596 7.982 18.788 7.981 8.192 18.576 8.192Zm120 0q10.596 0 18.788-7.982 8.192-7.981 8.192-18.576 0-10.596-7.982-18.788-7.981-8.192-18.576-8.192-10.596 0-18.788 7.982-8.192 7.981-8.192 18.576 0 10.596 7.982 18.788 7.981 8.192 18.576 8.192Zm120 0q10.596 0 18.788-7.982 8.192-7.981 8.192-18.576 0-10.596-7.982-18.788-7.981-8.192-18.576-8.192-10.596 0-18.788 7.982-8.192 7.981-8.192 18.576 0 10.596 7.982 18.788 7.981 8.192 18.576 8.192Zm120 0q10.596 0 18.788-7.982 8.192-7.981 8.192-18.576 0-10.596-7.982-18.788-7.981-8.192-18.576-8.192-10.596 0-18.788 7.982-8.192 7.981-8.192 18.576 0 10.596 7.982 18.788 7.981 8.192 18.576 8.192ZM480-105.231q-68.077 0-127.531-25.869-59.454-25.869-103.477-69.892-44.023-44.023-69.892-103.477Q153.231-363.923 153.231-432q0-133.308 89.346-228.538Q331.923-755.769 464-759.077v-116.874q0-6.821 4.547-11.435Q473.094-892 479.816-892q6.723 0 11.453 4.614Q496-882.772 496-875.951v116.874q132.077 4.308 221.423 99.039 89.346 94.73 89.346 228.038 0 68.077-25.869 127.531-25.869 59.454-69.892 103.477-44.023 44.023-103.477 69.892Q548.077-105.231 480-105.231Zm-.067-32q123.144 0 208.99-85.779 85.846-85.78 85.846-208.923 0-123.144-85.779-208.99-85.78-85.846-208.923-85.846-123.144 0-208.99 85.779-85.846 85.78-85.846 208.923 0 123.144 85.779 208.99 85.78 85.846 208.923 85.846ZM481-432Z"/></svg>