<svg xmlns="http://www.w3.org/2000/svg" height="20" viewBox="0 -960 960 960" width="20"><path d="M275.87-479.347q0 44.521 17.804 80.716 17.805 36.196 45.717 63.5v-8.912q0-16.996 11.703-28.477Q362.797-384 379.703-384q16.906 0 28.537 11.48 11.63 11.481 11.63 28.477v114.347q0 20.387-14.307 34.694-14.306 14.307-34.693 14.307H257.087q-16.996 0-28.476-11.703-11.481-11.702-11.481-28.609 0-16.906 11.764-28.536 11.763-11.631 28.758-11.631h15.391q-43.87-42.261-69.522-97.652-25.652-55.39-25.652-120.044 0-91.612 48.522-164.719t128.074-109.238q16.753-8.13 32.296 2.044 15.544 10.174 21.674 29.455 5.566 18.15-1.63 35.696-7.196 17.545-24.153 26.806-47.797 25.569-77.29 73.415-29.492 47.845-29.492 106.064ZM684.13-480q-2.435-43.478-18.739-81.369-16.304-37.891-44.782-63.5v8.912q0 16.996-11.42 28.477Q597.769-576 580.862-576q-16.906 0-28.819-11.763t-11.913-28.759v-113.782q0-20.387 14.307-34.694 14.306-14.307 34.693-14.307h113.783q16.996 0 28.476 11.42 11.481 11.42 11.481 28.326 0 16.907-11.481 28.82-11.48 11.913-28.476 11.913h-15.956q41.609 40 68.674 96.065 27.065 56.065 26.5 122.761H684.13ZM600-96q-10.2 0-17.1-6.9-6.9-6.9-6.9-17.1v-144q0-10.2 6.9-17.1 6.9-6.9 17.1-6.9h24v-48q0-29 21.212-50.5 21.213-21.5 51-21.5Q726-408 747-386.5q21 21.5 21 50.5v48h24q10.2 0 17.1 6.9 6.9 6.9 6.9 17.1v144q0 10.2-6.9 17.1Q802.2-96 792-96H600Zm60-192h72v-48q0-15.3-10.289-25.65-10.29-10.35-25.5-10.35Q681-372 670.5-361.65 660-351.3 660-336v48Z"/></svg>