<svg xmlns="http://www.w3.org/2000/svg" height="20" viewBox="0 -960 960 960" width="20"><path d="m518.523-542.219-56.29-55.285q-13.015-13.019-28.993-13.019-15.978 0-28.109 12.13-12.696 12.696-12.413 28.609.283 15.913 12.865 28.495l78.33 78.896q14.594 14.957 34.428 14.957 19.834 0 34.791-14.957l180.217-180.782q12.13-12.131 12.413-28.609.283-16.478-11.935-28.609-12.609-12.13-28.587-11.848-15.978.283-28.109 12.413L518.523-542.219ZM331.784-233.782q-41.005 0-69.504-28.498-28.498-28.499-28.498-69.504v-466.434q0-41.005 28.498-69.503 28.499-28.498 69.504-28.498h466.434q41.005 0 69.503 28.498 28.498 28.498 28.498 69.503v466.434q0 41.005-28.498 69.504-28.498 28.498-69.503 28.498H331.784ZM161.782-63.781q-41.005 0-69.503-28.498-28.498-28.498-28.498-69.503v-515.435q0-20.387 14.246-34.694 14.246-14.307 34.544-14.307 20.298 0 34.755 14.307 14.456 14.307 14.456 34.694v515.435h515.435q20.387 0 34.694 14.246 14.307 14.246 14.307 34.544 0 20.298-14.307 34.754-14.307 14.457-34.694 14.457H161.782Z"/></svg>