<svg xmlns="http://www.w3.org/2000/svg" height="24" viewBox="0 -960 960 960" width="24"><path d="M700-700H380q-8.5 0-14.25-5.758-5.75-5.757-5.75-14.269t5.75-14.242Q371.5-740 380-740h327.692q13.731 0 23.02 9.288 9.288 9.289 9.288 23.02v349.23q0 8.501-5.758 14.251-5.757 5.75-14.269 5.75t-14.242-5.75Q700-349.961 700-358.462V-700ZM500-500H180q-8.5 0-14.25-5.758-5.75-5.757-5.75-14.269t5.75-14.242Q171.5-540 180-540h327.692q13.731 0 23.02 9.288 9.288 9.289 9.288 23.02v349.23q0 8.5-5.758 14.251-5.757 5.75-14.269 5.75t-14.242-5.75Q500-149.962 500-158.462V-500Z"/></svg>