<svg xmlns="http://www.w3.org/2000/svg" height="20" viewBox="0 -960 960 960" width="20"><path d="M624-231.521v-144H522.696q-24.739 66.434-89.573 109.739Q368.288-222.477 288-222.477q-106.783 0-182.153-75.37-75.37-75.37-75.37-182.153 0-106.783 75.37-182.153 75.37-75.37 182.153-75.37 79.913 0 145.435 43.305t89.261 109.739H744v88.958H457.696q-11.739-63.696-57.739-108.088Q353.957-648 288-648q-70 0-119 49t-49 119q0 70 49 119t119 49q65.957 0 111.957-44.391 46-44.392 57.739-108.088h255.827v144H744v88.958H624Zm-336-144q43.557 0 74.018-30.691T392.479-480q0-43.557-30.461-74.018t-73.735-30.461q-43.274 0-74.018 30.461t-30.744 73.735q0 43.274 30.691 74.018T288-375.521ZM288-480Zm572.689 248.479q-18.814 0-31.751-12.727Q816-256.975 816-275.789t12.727-31.752q12.727-12.938 31.541-12.938t31.752 12.727q12.937 12.727 12.937 31.541t-12.727 31.752q-12.727 12.938-31.541 12.938ZM816-384v-200.479h88.957V-384H816Z"/></svg>