<svg xmlns="http://www.w3.org/2000/svg" height="24" viewBox="0 -960 960 960" width="24"><path d="M405.086-173.566q-4.478-12.434-17.348-31.608-12.869-19.174-30.739-37.043-14.478-14.478-31.673-26.434-17.196-11.957-36.413-20.392 3.696 22.217 14.283 41.282 10.587 19.065 26.065 34.543 15.478 15.478 34.543 25.717 19.065 10.239 41.282 13.935Zm150.393 1.696q14.304-1.304 36.195-12.457 21.891-11.152 40.196-29.456 15.478-15.478 25.499-34.26 10.022-18.783 14.152-41-19.782 8.435-36.912 20.457-17.13 12.021-32.174 27.065-15.043 15.043-26.782 32.456-11.739 17.413-20.174 37.195ZM480-530.174q61.803 0 105.814-44.012Q629.826-618.197 629.826-680v-25.955l-60.956 51.086L480-762.173l-88.87 107.304-60.956-51.086V-680q0 61.803 44.012 105.814Q418.197-530.174 480-530.174ZM434.348-69.826q-104.24 0-177.207-72.967Q184.173-215.761 184.173-320v-90.174q71.565-.435 135.413 25.325 63.848 25.761 110.24 75.065v-124.737q-86.566-17.392-143.283-85.588Q229.826-588.304 229.826-680v-245.045L378.87-796.696 480-918.827l101.13 122.131 149.044-128.349V-680q0 91.696-56.717 159.891-56.717 68.196-143.283 85.588v124.737q46.392-49.304 110.24-75.065 63.848-25.76 135.413-25.325V-320q0 104.239-72.968 177.207-72.967 72.967-177.207 72.967h-91.304ZM480-646.174Zm133.783 416Zm-266.566-1.13Z"/></svg>