<svg xmlns="http://www.w3.org/2000/svg" height="20" viewBox="0 -960 960 960" width="20"><path d="M228-110q-49.7 0-83.85-34.15Q110-178.3 110-228v-504q0-49.7 34.15-83.85Q178.3-850 228-850h504q49.7 0 83.85 34.15Q850-781.7 850-732v504q0 49.7-34.15 83.85Q781.7-110 732-110H228Zm252.135-280 48.135 30Q546-350 562-362q16-12 11-31l-13-54.948 43.862-37.575Q619-499 613.045-517.538 607.091-536.077 588-538l-57.389-4.575-22.186-53.019Q500.684-615 480.358-615q-20.327 0-28.087 19.406l-22.358 53.279-57.825 4.597q-19.179 1.915-25.133 20.353-5.955 18.438 9.183 31.842L400-447.948 387-393q-5 19 10.833 31 15.834 12 34.167 2l48.135-30Z"/></svg>