<svg xmlns="http://www.w3.org/2000/svg" height="24" viewBox="0 -960 960 960" width="24"><path d="M206.783-100.782q-44.305 0-75.153-30.848-30.848-30.848-30.848-75.153v-546.434q0-44.305 30.848-75.153 30.848-30.848 75.153-30.848h546.434q44.305 0 75.153 30.848 30.848 30.848 30.848 75.153v546.434q0 44.305-30.848 75.153-30.848 30.848-75.153 30.848H206.783Zm0-106.001h546.434v-546.434H206.783v546.434Zm0-546.434v546.434-546.434ZM480-381l62.999 38.087q14.957 9.261 29.349-1.066 14.391-10.326 10.261-27.283L566-443l56.13-48.826q13.391-11.826 7.978-28.283-5.413-16.456-23.37-18.021l-73.583-5.845-28.937-68.459q-6.732-16.522-24.236-16.522t-24.2 16.522l-28.937 68.459-73.583 5.845q-17.957 1.565-23.37 18.021-5.413 16.457 7.978 28.283L394-443l-16.609 71.738q-4.13 16.957 10.261 27.283 14.392 10.327 29.349 1.066L480-381Z"/></svg>