<svg xmlns="http://www.w3.org/2000/svg" height="24" viewBox="0 -960 960 960" width="24"><path d="M72.587-719.283v-208.13h208.13V-840H160v120.717H72.587Zm727.413 0V-840H679.283v-87.413h208.13v208.13H800ZM72.587-32.587v-208.13H160V-120h120.717v87.413H72.587Zm606.696 0V-120H800v-120.717h87.413v208.13h-208.13Zm-391.87-214.826h385.174v-465.174H287.413v465.174Zm-91 91v-647.174h567.174v647.174H196.413Zm162.152-402.152h242.87v-82.87h-242.87v82.87Zm0 120h242.87v-82.87h-242.87v82.87Zm0 120h242.87v-82.87h-242.87v82.87Zm-71.152 71.152v-465.174 465.174Z"/></svg>