<svg xmlns="http://www.w3.org/2000/svg" height="24" viewBox="0 -960 960 960" width="24"><path d="M62.477-718.304v-219.219h219.219V-840H160v121.696H62.477Zm737.523 0V-840H678.304v-97.523h219.219v219.219H800ZM62.477-22.477v-219.219H160V-120h121.696v97.523H62.477Zm615.827 0V-120H800v-121.696h97.523v219.219H678.304ZM297.523-257.523h364.954v-444.954H297.523v444.954ZM191.521-151.521v-656.958h576.958v656.958H191.521Zm165.088-405.088h246.782v-86.782H356.609v86.782Zm0 120h246.782v-86.782H356.609v86.782Zm0 120h246.782v-86.782H356.609v86.782Zm-59.086 59.086v-444.954 444.954Z"/></svg>