<svg xmlns="http://www.w3.org/2000/svg" height="20" viewBox="0 -960 960 960" width="20"><path d="M543.521-87.521v-216.957l-62.434-61.999-30.304 152.651-268.957-54.391 17.391-86.392 181 36 47.478-240.39-64.304 27.782v108.826h-89.522v-168.696l195.74-79.696q10.695-4 20.761-6.565 10.065-2.565 20.63-2.565 29.826 0 52.457 14.195 22.63 14.196 38.326 39.892l15.13 23Q645.783-554.087 683.5-533q37.718 21.087 92.979 21.087v89.522q-58.696 0-108.479-22.739-49.782-22.739-85.913-64.782l-18.478 100.216 68.87 68.87v253.305h-88.958ZM577.13-704.48q-38.956 0-66-27.043-27.043-27.044-27.043-66.001 0-38.956 27.043-65.717 27.044-26.761 66-26.761 38.957 0 65.718 26.761 26.761 26.761 26.761 65.717 0 38.957-26.761 66.001-26.761 27.043-65.718 27.043Z"/></svg>