<svg xmlns="http://www.w3.org/2000/svg" height="24" viewBox="0 -960 960 960" width="24"><path d="M320.148-146Q248-146 197-196.895T146-320v-400q0-39 29-66.5t67-27.5h92v188H174v306q0 60.833 42.618 103.417Q259.235-174 320.118-174 381-174 423.5-216.583 466-259.167 466-320v-320q0-72.21 50.852-123.105Q567.703-814 639.852-814 712-814 763-763.105T814-640v400q0 39-28 66.5T720-146h-94v-188h160v-306q0-60.833-42.618-103.417Q700.765-786 639.882-786 579-786 536.5-743.417 494-700.833 494-640v320q0 72.21-50.852 123.105Q392.297-146 320.148-146Z"/></svg>