<svg xmlns="http://www.w3.org/2000/svg" height="20" viewBox="0 -960 960 960" width="20"><path d="M446.615-108q-16.885 0-31.52-6.692-14.634-6.692-26.326-19.846l-272.16-328.781q-4.532-3.604-3.994-8.758.539-5.154 3.769-9l4-4q10.847-10.846 26.885-12.423 16.039-1.577 30.885 6.808L328-400.538v-337.155q0-6.8 4.547-11.4 4.547-4.6 11.269-4.6t11.453 4.6q4.731 4.6 4.731 11.4V-500h106.923v-333.693q0-6.8 4.547-11.4 4.547-4.6 11.269-4.6 6.723 0 11.453 4.6 4.731 4.6 4.731 11.4V-500h106.923v-285.693q0-6.8 4.547-11.4 4.548-4.6 11.27-4.6 6.722 0 11.452 4.6 4.731 4.6 4.731 11.4V-500H744v-212q0-6.8 4.547-11.4 4.547-4.6 11.27-4.6 6.722 0 11.452 4.6Q776-718.8 776-712v480q0 52.308-35.846 88.154T652-108H446.615Z"/></svg>