<svg xmlns="http://www.w3.org/2000/svg" height="24" viewBox="0 -960 960 960" width="24"><path d="M100-100v-290.769l160-71v-132.077l200-100.769v-91.539h-80v-40h80v-80h40v80h80v40h-80v91.539l200 100.769v132.077l160 71v290.77H540v-203.078H420V-100H100Zm40-40h240v-204h200v204h240v-225.077l-160-71.731v-133.5l-180-92-180 92v133.5l-160 71.731V-140Zm340.181-295.385q18.665 0 31.55-13.065 12.884-13.066 12.884-31.731t-13.065-31.55q-13.066-12.884-31.731-12.884t-31.55 13.065q-12.884 13.066-12.884 31.731t13.065 31.55q13.066 12.884 31.731 12.884ZM480-401.538Z"/></svg>