<svg xmlns="http://www.w3.org/2000/svg" height="20" viewBox="0 -960 960 960" width="20"><path d="M638.308-263.848h43.384v-75.998h-43.384v75.998Zm-1.539 92.923h46.462v-46.461h-46.462v46.461ZM660-83.387q-71.922 0-121.961-50.038-50.038-50.038-50.038-121.961 0-71.922 50.038-121.96Q588.078-427.384 660-427.384t121.961 50.038q50.038 50.038 50.038 121.96 0 71.923-50.038 121.961Q731.922-83.387 660-83.387ZM164.001-290.54v-378.922L480-851.921l315.999 182.46v195.306q-31.539-21-66.038-30.808-34.5-9.807-70.346-9.807-26.384 0-53.154 5.192-26.769 5.193-51.154 15.577L744-602.539V-640l-19.384-11.23L480-510.461 235.384-651.23 216-640v37.461L454.001-464.77v50.461q-28.693 32.769-41.039 73.5t-12.346 85.039q0 31.076 6.73 61.038 6.731 29.961 22.193 57.807.384.385.769.385t.769.385L164.001-290.539Z"/></svg>