<svg xmlns="http://www.w3.org/2000/svg" height="24" viewBox="0 -960 960 960" width="24"><path d="M393.782-141.347q-22.087 0-37.544-15.457-15.456-15.456-15.456-37.544v-199.434q-84.131-5.088-142.066-66.131-57.934-61.044-57.934-146.305 0-88.652 62.174-150.826 62.174-62.174 150.826-62.174h332.436q22.087 0 37.544 15.456 15.456 15.457 15.456 37.544 0 22.088-15.456 37.544-15.457 15.457-37.544 15.457h-36.044v518.869q0 22.088-15.456 37.544-15.457 15.457-37.544 15.457-22.087 0-37.544-15.457-15.457-15.456-15.457-37.544v-518.869h-97.39v518.869q0 22.088-15.457 37.544-15.456 15.457-37.544 15.457Z"/></svg>