<svg xmlns="http://www.w3.org/2000/svg" height="20" viewBox="0 -960 960 960" width="20"><path d="M480-142q-59 0-110.633-22.1-51.634-22.1-90.4-60.867-38.767-38.766-60.867-90.4Q196-367 196-426q0-4.3 2.789-7.15 2.79-2.85 7-2.85 4.211 0 7.211 2.85t3 7.15q0 109 77.5 186.5T480-162q109 0 186.5-77.5T744-426q0-109-77.5-186.5T479.61-690H462l48 48q3 3 4 7t-3.522 8Q506-623 503-623.5t-7-4.5l-54-55q-8-7.636-8-17.818Q434-711 442-719l56-55q3-3 6-4t7.478 3q4.522 4 4.022 7.5T511-760l-50 50h19q59 0 110.633 22.1 51.634 22.1 90.4 60.867 38.767 38.766 60.867 90.4Q764-485 764-426q0 59-22.1 110.633-22.1 51.634-60.867 90.4-38.766 38.767-90.4 60.867Q539-142 480-142Z"/></svg>