<svg xmlns="http://www.w3.org/2000/svg" height="20" viewBox="0 -960 960 960" width="20"><path d="M437.441-458.462q-10.595 0-18.787-7.981-8.192-7.982-8.192-18.577 0-10.596 7.981-18.788Q426.425-512 437.02-512q10.596 0 18.788 7.982Q464-496.037 464-485.441q0 10.595-7.982 18.787-7.981 8.192-18.577 8.192Zm0-216q-10.595 0-18.787-7.981-8.192-7.982-8.192-18.577 0-10.596 7.981-18.788Q426.425-728 437.02-728q10.596 0 18.788 7.982Q464-712.037 464-701.441q0 10.595-7.982 18.787-7.981 8.192-18.577 8.192Zm56 108q-10.595 0-18.787-7.981-8.192-7.982-8.192-18.577 0-10.596 7.981-18.788Q482.425-620 493.02-620q10.596 0 18.788 7.982Q520-604.037 520-593.441q0 10.595-7.982 18.787-7.981 8.192-18.577 8.192Zm56 108q-10.595 0-18.787-7.981-8.192-7.982-8.192-18.577 0-10.596 7.981-18.788Q538.425-512 549.02-512q10.596 0 18.788 7.982Q576-496.037 576-485.441q0 10.595-7.982 18.787-7.981 8.192-18.577 8.192Zm0-216q-10.595 0-18.787-7.981-8.192-7.982-8.192-18.577 0-10.596 7.981-18.788Q538.425-728 549.02-728q10.596 0 18.788 7.982Q576-712.037 576-701.441q0 10.595-7.982 18.787-7.981 8.192-18.577 8.192Zm56 108q-10.595 0-18.787-7.981-8.192-7.982-8.192-18.577 0-10.596 7.981-18.788Q594.425-620 605.02-620q10.596 0 18.788 7.982Q632-604.037 632-593.441q0 10.595-7.982 18.787-7.981 8.192-18.577 8.192Zm56 108q-10.595 0-18.787-7.981-8.192-7.982-8.192-18.577 0-10.596 7.981-18.788Q650.425-512 661.02-512q10.596 0 18.788 7.982Q688-496.037 688-485.441q0 10.595-7.982 18.787-7.981 8.192-18.577 8.192Zm0-216q-10.595 0-18.787-7.981-8.192-7.982-8.192-18.577 0-10.596 7.981-18.788Q650.425-728 661.02-728q10.596 0 18.788 7.982Q688-712.037 688-701.441q0 10.595-7.982 18.787-7.981 8.192-18.577 8.192Zm56 108q-10.595 0-18.787-7.981-8.192-7.982-8.192-18.577 0-10.596 7.981-18.788Q706.425-620 717.02-620q10.596 0 18.788 7.982Q744-604.037 744-593.441q0 10.595-7.982 18.787-7.981 8.192-18.577 8.192Zm56 108q-10.595 0-18.787-7.981-8.192-7.982-8.192-18.577 0-10.596 7.981-18.788Q762.425-512 773.02-512q10.596 0 18.788 7.982Q800-496.037 800-485.441q0 10.595-7.982 18.787-7.981 8.192-18.577 8.192Zm0-216q-10.595 0-18.787-7.981-8.192-7.982-8.192-18.577 0-10.596 7.981-18.788Q762.425-728 773.02-728q10.596 0 18.788 7.982Q800-712.037 800-701.441q0 10.595-7.982 18.787-7.981 8.192-18.577 8.192ZM722.231-185q-97.154-9-189.885-55.654-92.731-46.653-170.269-124.192-76.77-77.539-122.923-169.885Q193-627.077 184-724.231q-2-21 12.285-36.885Q210.571-777 232-777h72.923q19.308 0 32.962 11.269 13.654 11.269 19.961 30.346L375.692-673q2.77 13.769-1.5 27.308-4.269 13.538-13.807 21.538l-87.77 81.846q24.616 45.693 52.924 84.539 28.307 38.846 61.045 72.138 33.878 33.862 74.031 62.823 40.154 28.962 88.154 53.577l90.539-89.077q8.769-9.538 18.461-11.884 9.692-2.347 23.462-.347l53.154 12.231q19.308 5 30.461 19.423Q776-324.462 776-304.385V-233q0 21.429-16.384 35.715Q743.231-183 722.231-185Z"/></svg>