<svg xmlns="http://www.w3.org/2000/svg" height="24" viewBox="0 -960 960 960" width="24"><path d="M201.775-237Q242-237 270-264.84q28-27.84 28-68.16 0-34-20.5-61.5T226-436l-9-4v-268q0-6-4.5-10.5t-11-4.5q-6.5 0-11 4.5T186-708v268l-8 4q-30 15-51 42.5T106-333q0 40.32 27.775 68.16 27.774 27.84 68 27.84Zm.725 111q-86.5 0-147-60.5T-5-333q0-51 21.5-93T76-496v-212q0-52 36.556-89 36.557-37 89.5-37Q255-834 291.5-797.46T328-708v212q38 28 59.5 70t21.5 93q0 87-60 147t-146.5 60ZM554-347q-54-37-86.5-94T435-567.571Q435-678 513-756t188-78q110 0 187.5 78T966-567.571Q966-498 933.5-441T847-347H554Zm40-111h213q23-23 35.5-50.5T855-568q0-63.938-45.237-109.469Q764.525-723 701-723q-63.938 0-109.469 45.531Q546-631.938 546-568q0 32 12.5 60.5T594-458Zm106.714 332q-26.285 0-46-19.8Q635-165.6 635-192h131q0 26-19.5 46t-45.786 20ZM615-212q-19.975 0-33.487-13.8Q568-239.6 568-260q0-19.975 13.513-33.487Q595.025-307 615-307h171q19.975 0 33.487 13.518Q833-279.965 833-259.982 833-240 819.487-226 805.975-212 786-212H615ZM202-333Zm499-258Z"/></svg>