<svg xmlns="http://www.w3.org/2000/svg" height="24" viewBox="0 -960 960 960" width="24"><path d="M260.231-240q42.769 0 72.923-29.669 30.153-29.669 30.153-72.639 0-27.846-14.846-53.923T307-434.769l-14.462-8.616v-244.307q0-13.616-8.884-22.962Q274.769-720 260.231-720q-12.847 0-22.577 9.346-9.731 9.346-9.731 22.962v244.307l-14.462 8.616q-27.384 13.461-41.846 38.65-14.461 25.188-14.461 53.811 0 42.97 30.153 72.639Q217.461-240 260.231-240Zm-.385 40q-59.231 0-100.962-41.615-41.731-41.616-41.731-101.462 0-40.556 19.308-72.663 19.308-32.106 51.462-50.722v-221.23q0-30.37 21.307-51.339Q230.538-760 260.231-760q31.23 0 51.769 20.969 20.538 20.969 20.538 51.339v221.23q31.385 18.616 51.077 51.231 19.693 32.616 19.693 72.923 0 58.847-42.116 100.577Q319.077-200 259.846-200Zm264.308-167.692q-42.615-27.616-72.615-73.077-30-45.462-30-108.462 0-87.82 61.448-149.295Q544.435-760 632.217-760q87.783 0 149.322 61.474 61.538 61.475 61.538 149.295 0 63-30 108.462-30 45.461-72.615 73.077H524.154Zm12.615-40.001h194.308q33.154-25.538 52.577-60.923 19.423-35.384 19.423-80.615 0-70.442-50.199-120.606Q702.678-720 632.185-720q-70.492 0-120.569 50.163-50.077 50.164-50.077 120.606 0 46 21.038 81.385 21.039 35.384 54.192 60.153ZM632.308-200q-20.923 0-36.615-15.692Q580-231.384 580-252.307h104.616q0 20.923-15.693 36.615Q653.231-200 632.308-200Zm-76.923-87.692q-8.5 0-14.25-5.758t-5.75-14.269q0-8.512 5.75-14.242 5.75-5.731 14.25-5.731h153.846q8.5 0 14.25 5.758 5.75 5.757 5.75 14.269 0 8.511-5.75 14.242-5.75 5.731-14.25 5.731H555.385Zm-295.154-54.616Zm372.077-221.538Z"/></svg>