<svg xmlns="http://www.w3.org/2000/svg" height="20" viewBox="0 -960 960 960" width="20"><path d="M222.783-222.783v-514.434 514.434Zm.368 98.001q-41.673 0-70.021-28.498t-28.348-69.503v-514.434q0-41.005 28.498-69.503 28.498-28.498 69.503-28.498h514.434q41.005 0 69.503 28.498 28.498 28.498 28.498 69.503v338.652q-23.217-9.695-48.283-14.195-25.065-4.5-49.718-3.109v-321.348H222.783v514.434h279.001q-5.957 24.218-6.088 48.718-.13 24.5 5 49.283H223.151Zm100.638-166.609q15.211 0 25.711-10.29 10.5-10.289 10.5-25.5 0-15.21-10.289-25.71-10.29-10.5-25.5-10.5-15.211 0-25.711 10.289-10.5 10.289-10.5 25.5t10.289 25.711q10.29 10.5 25.5 10.5Zm0-152.609Q339-444 349.5-454.289q10.5-10.29 10.5-25.5Q360-495 349.711-505.5q-10.29-10.5-25.5-10.5Q309-516 298.5-505.711q-10.5 10.29-10.5 25.5Q288-465 298.289-454.5q10.29 10.5 25.5 10.5Zm0-152.609q15.211 0 25.711-10.289 10.5-10.289 10.5-25.5t-10.289-25.711q-10.29-10.5-25.5-10.5-15.211 0-25.711 10.29-10.5 10.289-10.5 25.5 0 15.21 10.289 25.71 10.29 10.5 25.5 10.5ZM636-444q15.3 0 25.65-10.289 10.35-10.29 10.35-25.5Q672-495 661.65-505.5 651.3-516 636-516H468q-15.3 0-25.65 10.289-10.35 10.29-10.35 25.5Q432-465 442.35-454.5 452.7-444 468-444h168Zm0-152.609q15.3 0 25.65-10.289 10.35-10.289 10.35-25.5t-10.35-25.711q-10.35-10.5-25.65-10.5H468q-15.3 0-25.65 10.29Q432-648.03 432-632.819q0 15.21 10.35 25.71t25.65 10.5h168ZM528.262-291.391q12.392-20.566 28.566-38.566 16.174-18 35.131-33.434H468q-15.3 0-25.65 10.289-10.35 10.289-10.35 25.5t10.35 25.711q10.35 10.5 25.65 10.5h60.262Zm172.13 165.663H635.74q-18.126 0-30.737-12.636-12.611-12.635-12.611-30.695 0-18.06 12.611-30.626 12.611-12.566 30.737-12.566h64.652v-64.34q0-18.06 12.551-30.821 12.55-12.761 30.587-12.761t30.672 12.611q12.635 12.611 12.635 30.737v64.652h64.819q18.162 0 30.797 12.611 12.636 12.611 12.636 30.737 0 18.126-12.636 30.737-12.635 12.611-30.797 12.611h-64.819v64.652q0 18.126-12.635 30.737-12.635 12.611-30.462 12.611-18.126 0-30.737-12.635-12.611-12.635-12.611-30.797v-64.819Z"/></svg>