<svg xmlns="http://www.w3.org/2000/svg" height="24" viewBox="0 -960 960 960" width="24"><path d="M640-440q17 0 28.5-11.5T680-480q0-17-11.5-28.5T640-520H480q-17 0-28.5 11.5T440-480q0 17 11.5 28.5T480-440h160Zm0-156.609q17 0 28.5-11.5t11.5-28.5q0-17-11.5-28.5t-28.5-11.5H480q-17 0-28.5 11.5t-11.5 28.5q0 17 11.5 28.5t28.5 11.5h160Zm56.392 467.132H623.74q-19.826 0-33.587-13.761-13.761-13.761-13.761-33.587 0-19.826 13.761-33.587 13.761-13.761 33.587-13.761h72.652v-72.652q0-19.826 13.761-33.587 13.761-13.761 33.587-13.761 19.827 0 33.588 13.761t13.761 33.587v72.652h72.651q19.827 0 33.588 13.761t13.761 33.587q0 19.826-13.761 33.587-13.761 13.761-33.588 13.761h-72.651v72.652q0 19.826-13.761 33.587Q763.567-9.477 743.74-9.477q-19.826 0-33.587-13.76Q696.392-37 696.392-56.826v-72.652ZM320-283.391q17 0 28.5-11.5t11.5-28.5q0-17-11.5-28.5t-28.5-11.5q-17 0-28.5 11.5t-11.5 28.5q0 17 11.5 28.5t28.5 11.5ZM320-440q17 0 28.5-11.5T360-480q0-17-11.5-28.5T320-520q-17 0-28.5 11.5T280-480q0 17 11.5 28.5T320-440Zm0-156.609q17 0 28.5-11.5t11.5-28.5q0-17-11.5-28.5t-28.5-11.5q-17 0-28.5 11.5t-11.5 28.5q0 17 11.5 28.5t28.5 11.5ZM206.783-100.782q-44.305 0-75.153-30.848-30.848-30.848-30.848-75.153v-546.434q0-44.305 30.848-75.153 30.848-30.848 75.153-30.848h546.434q44.305 0 75.153 30.848 30.848 30.848 30.848 75.153v358.652q-27.867-14.869-59.346-22.304-31.48-7.435-64.045-6.304-43.391 1.13-82.043 16.761-38.651 15.63-69.391 43.021H480q-17 0-28.5 11.5t-11.5 28.5q0 17 11.5 28.5t28.5 11.5h42.262q-8.695 17.869-14.174 37.021-5.478 19.152-8.304 39.587-3.957 26.783-2.088 53.283 1.87 26.501 10 52.718H206.783Z"/></svg>