<svg xmlns="http://www.w3.org/2000/svg" height="20" viewBox="0 -960 960 960" width="20"><path d="M216-216v-528 528Zm24.983 32Q216-184 200-200.15q-16-16.15-16-40.465v-478.77q0-24.315 16.15-40.465Q216.3-776 240.615-776h478.77q24.315 0 40.465 16.15Q776-743.7 776-719.385v313q-8.538-1.077-16.154-1.73-7.615-.654-15.846-1.116v-310.154q0-9.23-7.692-16.923Q728.615-744 719.385-744h-478.77q-9.23 0-16.923 7.692Q216-728.615 216-719.385v478.77q0 9.23 7.692 16.923Q231.385-216 240.615-216h258.308q-2 7.231-2.953 15.322-.952 8.091-1.509 16.678H240.983Zm87.476-122.461q11.31 0 19.118-7.652 7.808-7.651 7.808-18.961 0-11.311-7.652-19.118Q340.082-360 328.772-360q-11.311 0-19.118 7.651-7.808 7.651-7.808 18.962 0 11.31 7.651 19.118 7.651 7.808 18.962 7.808Zm0-146.77q11.31 0 19.118-7.651 7.808-7.651 7.808-18.961 0-11.311-7.652-19.119-7.651-7.807-18.961-7.807-11.311 0-19.118 7.651-7.808 7.651-7.808 18.961 0 11.311 7.651 19.119 7.651 7.807 18.962 7.807Zm0-146.769q11.31 0 19.118-7.651 7.808-7.651 7.808-18.962 0-11.31-7.652-19.118-7.651-7.808-18.961-7.808-11.311 0-19.118 7.652-7.808 7.651-7.808 18.961 0 11.311 7.651 19.118Q317.148-600 328.459-600Zm310.618 136q6.8 0 11.4-4.547 4.6-4.547 4.6-11.269 0-6.723-4.6-11.453-4.6-4.731-11.4-4.731H455.692q-6.8 0-11.4 4.547-4.6 4.547-4.6 11.269 0 6.723 4.6 11.453 4.6 4.731 11.4 4.731h183.385Zm0-146.769q6.8 0 11.4-4.547 4.6-4.548 4.6-11.27 0-6.722-4.6-11.453-4.6-4.73-11.4-4.73H455.692q-6.8 0-11.4 4.547-4.6 4.547-4.6 11.269t4.6 11.453q4.6 4.731 11.4 4.731h183.385ZM533.846-317.231q6.692-8.461 14.192-16.077 7.5-7.615 14.808-15.923H455.692q-6.8 0-11.4 4.547-4.6 4.548-4.6 11.27 0 6.722 4.6 11.453 4.6 4.73 11.4 4.73h78.154Zm167.077 140.979h-92q-6.8 0-11.4-4.632-4.6-4.631-4.6-11.377 0-6.745 4.6-11.281 4.6-4.536 11.4-4.536h92v-91.688q0-6.734 4.547-11.484t11.27-4.75q6.722 0 11.327 4.6 4.604 4.6 4.604 11.4v92h92.168q6.836 0 11.46 4.608 4.624 4.607 4.624 11.419t-4.624 11.392Q831.675-176 824.839-176h-92.168v92q0 6.8-4.631 11.4-4.632 4.6-11.144 4.6-6.811 0-11.392-4.624-4.581-4.624-4.581-11.46v-92.168Z"/></svg>