<svg xmlns="http://www.w3.org/2000/svg" height="20" viewBox="0 -960 960 960" width="20"><path d="M228-228v-504 504Zm.368 118Q178-110 144-144.15 110-178.3 110-228v-504q0-49.7 34.15-83.85Q178.3-850 228-850h504q49.7 0 83.85 34.15Q850-781.7 850-732v343q-28-11-58.5-15.5T732-405v-327H228v504h289q-9 29-10 58.5t5 59.5H228.368Zm95.421-184Q339-294 349.5-304.289q10.5-10.29 10.5-25.5Q360-345 349.711-355.5q-10.29-10.5-25.5-10.5Q309-366 298.5-355.711q-10.5 10.29-10.5 25.5Q288-315 298.289-304.5q10.29 10.5 25.5 10.5Zm0-150Q339-444 349.5-454.289q10.5-10.29 10.5-25.5Q360-495 349.711-505.5q-10.29-10.5-25.5-10.5Q309-516 298.5-505.711q-10.5 10.29-10.5 25.5Q288-465 298.289-454.5q10.29 10.5 25.5 10.5Zm0-150Q339-594 349.5-604.289q10.5-10.29 10.5-25.5Q360-645 349.711-655.5q-10.29-10.5-25.5-10.5Q309-666 298.5-655.711q-10.5 10.29-10.5 25.5Q288-615 298.289-604.5q10.29 10.5 25.5 10.5ZM636-444q15.3 0 25.65-10.289 10.35-10.29 10.35-25.5Q672-495 661.65-505.5 651.3-516 636-516H468q-15.3 0-25.65 10.289-10.35 10.29-10.35 25.5Q432-465 442.35-454.5 452.7-444 468-444h168Zm0-150q15.3 0 25.65-10.289 10.35-10.29 10.35-25.5Q672-645 661.65-655.5 651.3-666 636-666H468q-15.3 0-25.65 10.289-10.35 10.29-10.35 25.5Q432-615 442.35-604.5 452.7-594 468-594h168Zm-86 300q15-21 34-39t41-33H468q-15.3 0-25.65 10.289-10.35 10.29-10.35 25.5Q432-315 442.35-304.5 452.7-294 468-294h82Zm163 191.748h-59q-20.3 0-34.65-14.374Q605-131 605-151.234q0-20.234 14.35-34.539T654-200.078h59v-58.688Q713-279 727.289-293.5q14.29-14.5 34.5-14.5 20.211 0 34.585 14.35 14.374 14.35 14.374 34.65v59h59.168q20.336 0 34.71 14.35Q919-171.3 919-151q0 20.3-14.374 34.65Q890.252-102 869.916-102h-59.168v59q0 20.3-14.374 34.65Q782 6 762 6q-20.3 0-34.65-14.374Q713-22.748 713-43.084v-59.168Z"/></svg>