<svg xmlns="http://www.w3.org/2000/svg" height="24" viewBox="0 -960 960 960" width="24"><path d="M240-200h480l-57-400H297l-57 400Zm240-459.999q17 0 28.5-11.5t11.5-28.5q0-17-11.5-28.5t-28.5-11.5q-17 0-28.5 11.5t-11.5 28.5q0 17 11.5 28.5t28.5 11.5ZM170.694-140.001l74.23-519.998h144.385q-4.154-9.23-6.731-19.115-2.577-9.885-2.577-20.885 0-41.922 29.038-70.96 29.039-29.038 70.961-29.038t70.961 29.038q29.038 29.038 29.038 70.96 0 11-2.577 20.885-2.577 9.885-6.731 19.115h144.385l74.23 519.998H170.694ZM240-200h480-480Z"/></svg>