<svg xmlns="http://www.w3.org/2000/svg" height="20" viewBox="0 -960 960 960" width="20"><path d="M693.479-55.302q-68.478 0-115.566-47.37-47.087-47.37-47.087-115.849 0-68.478 47.087-115.566 47.088-47.087 115.566-47.087 68.479 0 115.849 47.087 47.37 47.088 47.37 115.566 0 68.479-47.37 115.849-47.37 47.37-115.849 47.37ZM266.521-178.128q-68.479 0-115.849-47.088-47.37-47.087-47.37-115.566 0-68.478 47.37-115.848Q198.042-504 266.521-504q68.478 0 115.566 47.37 47.087 47.37 47.087 115.848 0 68.479-47.087 115.566-47.088 47.088-115.566 47.088Zm178.48-339.698q-68.479 0-115.849-47.087-47.37-47.087-47.37-115.566 0-68.478 47.37-115.848 47.37-47.37 115.849-47.37 68.478 0 115.848 47.37 47.37 47.37 47.37 115.848 0 68.479-47.37 115.566t-115.848 47.087Z"/></svg>