<svg xmlns="http://www.w3.org/2000/svg" height="20" viewBox="0 -960 960 960" width="20"><path d="M480-248q-119-93-178.5-178.5T242-593.597q0-61.631 21.565-106.782 21.565-45.151 55.646-75.975 34.08-30.823 76.681-46.234Q438.493-838 480-838q41.507 0 84.108 15.412 42.601 15.411 76.681 46.234 34.081 30.824 55.646 75.975Q718-655.228 718-593.597 718-512 659-426.5 600-341 480-248Zm.212-300Q500-548 513-561.737q13-13.738 13-34.263 0-20.938-13.212-34.969-13.213-14.031-33-14.031Q460-645 447-630.956q-13 14.045-13 35Q434-575 447.212-561.5q13.213 13.5 33 13.5ZM242-122v-20h476v20H242Z"/></svg>