<svg xmlns="http://www.w3.org/2000/svg" height="24" viewBox="0 -960 960 960" width="24"><path d="M480-288.307q104-83.077 157.001-159.577 53-76.5 53-146.116 0-58.712-21.462-100.126-21.461-41.413-53.192-67.067-31.731-25.654-68.363-37.231-36.632-11.577-66.984-11.577-30.352 0-66.984 11.577-36.632 11.577-68.363 37.231-31.731 25.654-53.192 67.067Q269.999-652.712 269.999-594q0 69.616 53 146.116Q376-371.384 480-288.307Zm0 75.998q-136-101.307-202.999-196.23-67-94.923-67-185.467 0-68.389 24.538-119.922 24.539-51.533 63.128-86.379 38.589-34.846 86.825-52.269 48.236-17.423 95.508-17.423t95.508 17.423q48.236 17.423 86.825 52.269 38.589 34.846 63.128 86.379 24.538 51.533 24.538 119.922 0 90.544-67 185.467Q616-313.616 480-212.309Zm0-317.692q29.154 0 49.576-20.423 20.423-20.422 20.423-49.576t-20.423-49.576Q509.154-669.999 480-669.999t-49.576 20.423Q410.001-629.154 410.001-600t20.423 49.576q20.422 20.423 49.576 20.423Zm-269.999 440v-59.998h539.998v59.998H210.001ZM480-594Z"/></svg>