<svg xmlns="http://www.w3.org/2000/svg" height="20" viewBox="0 -960 960 960" width="20"><path d="M480-211Q337-320 265-420.015q-72-100.015-72-196.847 0-73.138 26.158-127.882 26.157-54.744 67.189-91.582 41.031-36.837 92.321-55.255Q429.957-910 479.979-910q50.021 0 101.32 18.419 51.298 18.418 92.337 55.255 41.039 36.838 67.202 91.582Q767-690 767-616.862q0 96.832-71.5 196.847Q624-320 480-211Zm.212-311Q520-522 547.5-550.237 575-578.475 575-619q0-40.938-27.712-69.469Q519.575-717 479.788-717 440-717 412.5-688.456q-27.5 28.545-27.5 69.5Q385-578 412.712-550q27.713 28 67.5 28ZM193-50v-118h574v118H193Z"/></svg>