<svg xmlns="http://www.w3.org/2000/svg" height="24" viewBox="0 -960 960 960" width="24"><path d="M480-275.616q109-86.153 164.5-165.153Q700-519.769 700-594q0-61.424-22.423-104.751-22.423-43.326-55.885-70.134-33.461-26.807-71.725-38.961Q511.704-820 480-820t-69.967 12.154q-38.264 12.154-71.725 38.961-33.462 26.808-55.885 70.134Q260-655.424 260-594q0 74.231 55.5 153.231T480-275.616Zm0 51.001q-131-98.616-195.5-190.462Q220-506.923 220-594.011q0-65.78 23.577-115.346t60.755-83.258q37.179-33.693 83.652-50.539Q434.456-860 480-860q45.544 0 92.016 16.846 46.474 16.846 83.652 50.539 37.178 33.692 60.755 83.258Q740-659.791 740-594.011q0 87.088-64.5 178.934T480-224.615ZM480-540q25.308 0 42.654-17.346Q540-574.692 540-600q0-25.308-17.346-42.654Q505.308-660 480-660q-25.308 0-42.654 17.346Q420-625.308 420-600q0 25.308 17.346 42.654Q454.692-540 480-540ZM220-100v-40h520v40H220Zm260-494Z"/></svg>