<svg xmlns="http://www.w3.org/2000/svg" height="24" viewBox="0 -960 960 960" width="24"><path d="m558.522-572.478-66.044-66.044-132.565 132.13q-7.695 7.615-11.543 17.134-3.848 9.518-3.848 20.345v18.173q0 10.827 8.035 18.522 8.035 7.696 18.748 7.696h17.608q10.827 0 20.345-3.848 9.519-3.848 17.134-11.543l132.13-132.565Zm29-29 28-28q5-5 5-10.5t-5-10.5l-45.044-45.044q-5-5-10.5-5t-10.5 5l-28 28 66.044 66.044ZM480-201.262Q598.043-308.74 655.63-393.174q57.587-84.435 57.587-161.087 0-105.025-67.541-171.991-67.542-66.965-165.696-66.965t-165.675 66.965q-67.522 66.966-67.522 171.991 0 76.652 57.587 160.804T480-201.262Zm-.135 110.089q-16.126 0-32.155-5.565-16.029-5.566-28.623-16.696-68.392-61.696-120.653-119.261-52.261-57.565-87.174-112.196-34.913-54.63-52.696-106.674-17.782-52.044-17.782-102.696 0-157.755 102.295-251.356Q345.373-899.218 480-899.218t236.923 93.601q102.295 93.601 102.295 251.356 0 50.652-17.782 102.696-17.783 52.044-52.696 106.674-34.913 54.631-87.174 112.196-52.261 57.565-120.653 119.261-12.67 11.13-28.796 16.696-16.126 5.565-32.252 5.565ZM480-560Z"/></svg>