<svg xmlns="http://www.w3.org/2000/svg" height="24" viewBox="0 -960 960 960" width="24"><path d="m540.154-591.615-28.539-28.539L361.231-470q-2.923 2.923-4.385 6.577-1.461 3.654-1.461 7.808v7.923q0 4.923 3.692 8.615t8.615 3.692h7.923q4.154 0 7.808-1.461 3.654-1.462 6.577-4.385l150.154-150.384Zm29-29L592.539-644q3.461-3.461 3.461-7.423t-3.461-7.423l-13.693-13.693Q575.385-676 571.423-676T564-672.539l-23.385 23.385 28.539 28.539ZM480-137.769q-9.385 0-18.769-3.077-9.385-3.077-17.308-10-42.692-39.231-86.539-87.385-43.846-48.154-79.654-99.731-35.807-51.577-58.692-105.307Q196.154-497 196.154-548.154q0-126.923 82.654-209.385Q361.461-840 480-840t201.192 82.461q82.654 82.462 82.654 209.385 0 51.154-22.884 104.5-22.885 53.346-58.308 105.308-35.423 51.961-79.269 99.731-43.846 47.769-86.539 87-7.923 6.923-17.692 10.384-9.769 3.462-19.154 3.462Z"/></svg>