<svg xmlns="http://www.w3.org/2000/svg" height="20" viewBox="0 -960 960 960" width="20"><path d="m548-577-67-67-120 121q-8 7.857-12.5 17.929Q344-495 344-482v13q0 13 8.6 21t21.4 8h12q13 0 23.071-4.5Q419.143-449 427-457l121-120Zm26-26 25-25q4-4 4-9.5t-4-9.5l-47-48q-4-4-9.5-4.5T532-695l-25 25 67 67ZM479.761-91Q463-91 447.91-96.5 432.821-102 419-113q-46-38-96.5-86t-93-104q-42.5-56-69-119T134-553q0-147.719 99.253-246.36Q332.506-898 480-898q146.494 0 246.247 98.64Q826-700.719 826-553q0 68-27 131.5T730-302q-42 56-92.5 103.5T541-113q-13.955 11-29.216 16.5-15.262 5.5-32.023 5.5Z"/></svg>