<svg xmlns="http://www.w3.org/2000/svg" height="20" viewBox="0 -960 960 960" width="20"><path d="M212.154-136q-13.546 0-22.773-9.611-9.227-9.612-9.227-22.389h197q-100.616-32.077-166.577-118.423-65.962-86.346-65.962-202.962 0-69.457 26.498-130.21 26.498-60.753 71.826-106.466 45.328-45.712 106.466-71.826Q410.542-824 480-824t130.595 26.113q61.138 26.114 106.466 71.826 45.328 45.713 71.826 106.466 26.498 60.753 26.498 130.21 0 116.616-65.577 202.962Q684.231-200.077 582.846-168h197q0 13.077-9.227 22.539Q761.392-136 747.846-136H212.154ZM480-186q126.923 0 215.154-88.231t88.231-215.154q0-126.923-88.231-214.769T480-792q-126.923 0-215.154 87.846t-88.231 214.769q0 126.923 88.231 215.154T480-186ZM296.615-393.615h142.77v-30.539H337.154l-.231-.461q9.385-9.385 27.885-26.616t37.115-35.846q14.231-14.231 23.577-32.346 9.346-18.115 9.346-37.229 0-26.271-21.846-44.502t-48-18.231q-14.462 0-37.5 8.231-23.039 8.231-32.115 37.846l29.769 11.385q8.077-19.692 19.769-23.077 11.692-3.385 20.077-3.385 9.154 0 23.923 6.462 14.769 6.462 14.769 26.923 0 14.308-7.154 26.346-7.153 12.039-16.923 20.269-22.538 21.77-41.884 41.347-19.346 19.576-41.116 39.576v33.847Zm277.385 5q41.692 0 66.538-34.962 24.847-34.961 24.847-80.423t-24.847-80.423Q615.692-619.385 574-619.385q-41.692 0-66.538 34.962-24.847 34.961-24.847 80.423t24.847 80.423q24.846 34.962 66.538 34.962Zm0-31q-28.308 0-44-23.847-15.692-23.846-15.692-60.538 0-42.077 18-63.231 18-21.154 41.692-21.154t41.692 21.154q18 21.154 18 63.231 0 36.692-15.692 60.538-15.692 23.847-44 23.847Zm-96-69.77Z"/></svg>