<svg xmlns="http://www.w3.org/2000/svg" height="24" viewBox="0 -960 960 960" width="24"><path d="M198.077-100.001q-24.923 0-42.461-17.731-17.538-17.73-17.538-42.268h186q-91.308-43.538-151.539-130.961-60.23-87.423-60.23-201.731 0-76.307 29.038-142.999 29.038-66.693 78.807-116.654 49.77-49.961 116.654-78.807Q403.693-859.999 480-859.999t143.192 28.847q66.884 28.846 116.654 78.807 49.769 49.961 78.807 116.654 29.038 66.692 29.038 142.999 0 114.308-60.038 201.731Q727.614-203.538 635.922-160h186q0 24.538-17.538 42.268-17.538 17.731-42.461 17.731H198.077ZM480-184.999q128.462 0 218.077-89.615 89.616-89.616 89.616-218.078t-89.616-217.885Q608.462-800 480-800t-218.077 89.423q-89.616 89.423-89.616 217.885t89.616 218.078Q351.538-184.999 480-184.999ZM294.308-367.308h147.384v-34.769h-97.616l-.615-1.23q17.692-17.693 33.692-32.808 16.001-15.116 26.308-25.424 17.616-17.615 26.539-35.423 8.923-17.807 8.923-36.038 0-25.461-19.923-45.077-19.923-19.615-54-19.615-33.23 0-50.5 18.115-17.269 18.115-21.807 31.423l34.384 13.692q2.538-5.846 10.885-16.538 8.346-10.693 26.038-10.693 21.077 0 28.462 11.731 7.384 11.731 7.384 18.962 0 9.154-3.577 18.423-3.576 9.27-18.961 25.885-9.769 10.385-33.692 33.923-23.923 23.538-49.308 48.538v36.923Zm279.692 5q43.846 0 68.769-33.731 24.923-33.73 24.923-83.961t-25.423-83.961Q616.846-597.692 574-597.692q-43.846 0-68.769 33.731-24.923 33.73-24.923 83.961t24.923 83.961q24.923 33.731 68.769 33.731Zm0-35.999q-27.154 0-41.5-22.924-14.346-22.923-14.346-58.769 0-30.539 13.5-56.116 13.5-25.577 42.346-25.577 28.846 0 42.346 25.577 13.5 25.577 13.5 56.116 0 35.846-14.346 58.769-14.346 22.924-41.5 22.924Zm-94-94.385Z"/></svg>