<svg xmlns="http://www.w3.org/2000/svg" height="24" viewBox="0 -960 960 960" width="24"><path d="M283.077-409.231q14.692 0 25.038-10.347 10.346-10.346 10.346-25.038t-10.346-25.038Q297.769-480 283.077-480t-25.038 10.346q-10.346 10.346-10.346 25.038t10.346 25.038q10.346 10.347 25.038 10.347Zm0-115.385q14.692 0 25.038-10.346T318.461-560q0-14.692-10.346-25.038t-25.038-10.346q-14.692 0-25.038 10.346T247.693-560q0 14.692 10.346 25.038t25.038 10.346Zm0-115.384q14.692 0 25.038-10.346t10.346-25.038q0-14.692-10.346-25.038-10.346-10.347-25.038-10.347t-25.038 10.347q-10.346 10.346-10.346 25.038t10.346 25.038Q268.385-640 283.077-640Zm121.539 225.384h185.383v-59.999H404.616v59.999Zm0-115.385h305.383v-59.998H404.616v59.998Zm0-115.384h305.383v-59.999H404.616v59.999ZM100.001-118.464v-741.535h759.998v599.998h-618.46L100.001-118.464Zm116-201.536H800v-480H160v535.385L216.001-320ZM160-320v-480 480Z"/></svg>