<svg xmlns="http://www.w3.org/2000/svg" height="24" viewBox="0 -960 960 960" width="24"><path d="M280-400q17 0 28.5-11.5T320-440q0-17-11.5-28.5T280-480q-17 0-28.5 11.5T240-440q0 17 11.5 28.5T280-400Zm0-120q17 0 28.5-11.5T320-560q0-17-11.5-28.5T280-600q-17 0-28.5 11.5T240-560q0 17 11.5 28.5T280-520Zm0-120q17 0 28.5-11.5T320-680q0-17-11.5-28.5T280-720q-17 0-28.5 11.5T240-680q0 17 11.5 28.5T280-640Zm120 240h200v-80H400v80Zm0-120h320v-80H400v80Zm0-120h320v-80H400v80ZM71.87-71.87V-888.13H888.13v656.262H231.869l-160 160Zm125.999-251H797.13v-474.26H162.87v508.499l34.999-34.239Zm-34.999 0v-474.26 474.26Z"/></svg>