<svg xmlns="http://www.w3.org/2000/svg" height="20" viewBox="0 -960 960 960" width="20"><path d="M480-304q-61 0-109-39t-61-97h17q17 58 57.612 89 40.611 31 95.388 31 66.286 0 113.143-46.928T640-480.242q0-66.387-46.857-113.072Q546.286-640 480-640q-41 0-79.5 22.5T333-560h83v16H304v-112h16v87q30-40 71.956-63.5Q433.911-656 480-656q73.04 0 124.52 51.546Q656-552.908 656-479.774q0 73.134-51.48 124.454Q553.04-304 480-304ZM196-196v-188h20v168h168v20H196Zm380 0v-20h168v-168h20v188H576ZM196-576v-188h188v20H216v168h-20Zm548 0v-168H576v-20h188v188h-20Z"/></svg>