<svg xmlns="http://www.w3.org/2000/svg" height="20" viewBox="0 -960 960 960" width="20"><path d="M193.461-157.847 156.309-195l390.692-390.692q-21.154-48.077-6.423-90.808 14.73-42.73 48.807-76.576 38.076-37.077 92.499-51.154 54.423-14.077 95.654 24.154 41.231 40.23 26.153 95.653-15.077 55.423-53.153 93.499-33.846 33.077-76.077 47.308-42.23 14.231-90.307-4.923L515.614-480l285 285-37.153 37.153-285-285-285 285Zm116.308-315.692L198.385-583.924q-46.384-44.384-48.115-107.96-1.731-63.577 41.961-110.269l223.46 222.692-105.922 105.922Z"/></svg>