<svg xmlns="http://www.w3.org/2000/svg" height="24" viewBox="0 -960 960 960" width="24"><path d="M665.539-404.461 404.461-665.539l79.231-80q26.616-25.846 60.308-40.154Q577.692-800 615-800q77.077 0 131.039 53.961Q800-692.077 800-615q0 37.308-14.307 71-14.308 33.692-40.154 60.308l-80 79.231Zm-85.308 85.307L476.308-214.461q-25.846 25.846-59.923 40.154Q382.308-160 345-160q-77.077 0-131.039-53.961Q160-267.923 160-345q0-37.308 14.307-71.385 14.308-34.077 40.154-59.923l104.693-103.923-190.539-190.538q-5.615-5.616-6-13.769-.385-8.154 6-14.539t14.154-6.385q7.769 0 14.154 6.385l646.154 646.154q5.615 5.615 6 13.769.385 8.154-6 14.539t-14.154 6.385q-7.769 0-14.154-6.385L580.231-319.154Z"/></svg>