<svg xmlns="http://www.w3.org/2000/svg" height="24" viewBox="0 -960 960 960" width="24"><path d="M525.5-98v-85.5H611V-98h-85.5ZM440-183.5v-211h85.5v211H440Zm334.587-127.413V-480h85.5v169.087h-85.5ZM689.087-480v-85.5h85.5v85.5h-85.5ZM183.5-394.5V-480H269v85.5h-85.5ZM98-480v-85.5h85.5v85.5H98Zm382-296.5V-862h85.5v85.5H480ZM165.413-672.913h121.674v-121.674H165.413v121.674ZM97.999-605.5V-862H354.5v256.5H98Zm67.414 440.087h121.674v-121.674H165.413v121.674ZM97.999-97.999V-354.5H354.5V-98H98Zm574.914-574.914h121.674v-121.674H672.913v121.674ZM605.5-605.5V-862H862v256.5H605.5ZM692.913-98v-127.413h-83.826v-85.5h165.5V-183.5h85.5V-98H692.913ZM525.5-394.5V-480h163.587v85.5H525.5Zm-171 0V-480H269v-85.5h256.5v85.5H440v85.5h-85.5Zm40-211v-171H480v87.413h85.5v83.587h-171Zm-197.413-99.087v-58.326h58.326v58.326h-58.326Zm0 507.5v-58.326h58.326v58.326h-58.326Zm507.5-507.5v-58.326h58.326v58.326h-58.326Z"/></svg>