<svg xmlns="http://www.w3.org/2000/svg" height="20" viewBox="0 -960 960 960" width="20"><path d="M517.001-91.997v-85.001h85v85h-85ZM432-176.998v-218.001h85.001v218.001H432Zm346.48-137.523V-480h85.001v165.479H778.48ZM693.479-480v-85.001h85.001V-480h-85.001Zm-516.481 85.001V-480h85.001v85.001h-85.001Zm-85-85.001v-85.001h85V-480h-85ZM480-783.002v-85.001h85.001v85.001H480ZM157.52-678.523h123.957V-802.48H157.52v123.957Zm-65.523 65.522v-255.002H347v255.002H91.997ZM157.52-157.52h123.957v-123.957H157.52v123.957ZM91.997-91.997V-347H347v255.002H91.997Zm586.526-586.526H802.48V-802.48H678.523v123.957Zm-65.522 65.522v-255.002h255.002v255.002H613.001Zm89.522 521.004V-229.52h-81.044v-85.001H778.48v137.523h85.001v85H702.523ZM517.001-395V-480h176.478v85.001H517.001Zm-170.002 0V-480h-85v-85.001h255.002V-480H432v85.001h-85.001Zm48-218.002v-170.001H480v89.523h85.001v80.478H394.999ZM197.477-718.48v-44.043h44.043v44.043h-44.043Zm0 521.003v-44.043h44.043v44.043h-44.043ZM718.48-718.48v-44.043h44.043v44.043H718.48Z"/></svg>