<svg xmlns="http://www.w3.org/2000/svg" height="24" viewBox="0 -960 960 960" width="24"><path d="M248.87-181.347q-26.088 0-44.544-18.457-18.457-18.456-18.457-44.544 0-26.087 18.457-44.543 18.456-18.457 44.544-18.457h100.39l114.913-344.173h-91.912q-26.087 0-44.544-18.457-18.457-18.457-18.457-44.544 0-26.087 18.457-44.544 18.457-18.457 44.544-18.457h300q26.087 0 44.544 18.457 18.457 18.457 18.457 44.544 0 26.087-18.457 44.544-18.457 18.457-44.544 18.457H591.87L476.957-307.348h71.913q26.087 0 44.543 18.457 18.457 18.456 18.457 44.543 0 26.088-18.457 44.544-18.456 18.457-44.543 18.457h-300Z"/></svg>