<svg xmlns="http://www.w3.org/2000/svg" height="20" viewBox="0 -960 960 960" width="20"><path d="M136-184v-152h32v120h120v32H136Zm242.615-128.615 38.539-197.231L292-455.077V-356h-32v-121.692l158.538-65.462q7.77-2.385 19.477-7.615Q449.722-556 464.079-556q19.221 0 35.922 8.896 16.702 8.897 26.979 25.636l9.097 16.853.513.102q.256.052.41 1.205-40.615 35.539-59.961 85.385-19.347 49.846-13.193 105.308h-85.231Zm149.137-299.693q-30.137 0-50.791-20.901-20.653-20.902-20.653-51.039t20.901-50.791q20.902-20.653 51.039-20.653t50.791 20.901q20.653 20.902 20.653 51.039t-20.901 50.791q-20.902 20.653-51.039 20.653ZM136-720v-152h152v32H168v120h-32Zm656 0v-120H672v-32h152v152h-32ZM681.313-190.615q-63.621 0-107.698-44.303-44.077-44.303-44.077-107.923 0-63.62 44.304-107.697 44.303-44.077 107.923-44.077 63.62 0 107.697 44.303 44.077 44.303 44.077 107.923 0 63.62-44.303 107.697-44.303 44.077-107.923 44.077ZM662.154-358h38.769v-56h-38.769v56Zm19.385 89.847q9.6 0 16.03-6.431Q704-281.015 704-290.615q0-9.6-6.431-16.031-6.43-6.43-16.03-6.43-9.6 0-16.031 6.43-6.431 6.431-6.431 16.031 0 9.6 6.431 16.031 6.431 6.431 16.031 6.431Z"/></svg>