<svg xmlns="http://www.w3.org/2000/svg" height="20" viewBox="0 -960 960 960" width="20"><path d="M87.87-135.869V-336h83v117.13H288v83.001H87.87Zm261.347-152.848L385.022-470.5l-72.783 31.37v104.804h-79.413v-157.826L394.37-559.87q17.717-7 33.969-13.239 16.252-6.239 34.465-6.239 25.88 0 47.516 12.218 21.637 12.217 35.354 33.934l19.478 32 6.507 9.015q3.254 4.507 7.015 9.507-46.478 34-72.576 85.12Q480-346.435 480-288.717H349.217Zm177.818-314.87q-36.426 0-62.002-25.872-25.577-25.872-25.577-62.202 0-36.426 25.872-61.883Q491.2-779 527.53-779q36.427 0 61.883 25.704 25.457 25.704 25.457 62.131 0 36.426-25.705 62.002-25.704 25.576-62.13 25.576ZM87.869-720v-200.131H288v83.001H170.87V-720h-83Zm701.261 0v-117.13H672v-83.001h200.131V-720H789.13ZM719.774-96.478Q640-96.478 584-152.704q-56-56.227-56-136 0-79.774 56.226-135.774t136-56q79.774 0 135.774 56.226t56 136q0 79.774-56.226 135.774t-136 56Zm-25.687-194.87h51.826v-96h-51.826v96ZM720-188.652q11.035 0 18.952-7.918 7.918-7.917 7.918-18.952 0-11.035-7.918-19.072-7.917-8.036-18.952-8.036-11.035 0-18.952 8.036-7.918 8.037-7.918 19.072 0 11.035 7.918 18.952 7.917 7.918 18.952 7.918Z"/></svg>