<svg xmlns="http://www.w3.org/2000/svg" height="24" viewBox="0 -960 960 960" width="24"><path d="M60.782-140.782V-360h106.001v113.217H280v106.001H60.782Zm279.913-180.914 37.174-189.303-57.304 21.782v133.174h-97.522v-197.044l168.739-69.696q36.696-15 53.791-20.065 17.096-5.065 31.601-5.065 23.826 0 42.956 12.695 19.131 12.696 31.827 32.392l41.13 64 7.623 11.246q3.812 5.623 8.247 10.623-50.131 32-83.544 82.783T483-321.696H340.695Zm197.609-346.783q-36.956 0-63-26.156-26.044-26.157-26.044-62.888 0-36.956 26.157-62.717 26.157-25.761 62.887-25.761 36.957 0 62.718 25.761 25.761 25.761 25.761 62.717 0 36.957-25.761 63.001-25.761 26.043-62.718 26.043ZM60.782-760v-219.218H280v106.001H166.783V-760H60.782Zm732.435 0v-113.217H680v-106.001h219.218V-760H793.217ZM760-81.13q-83 0-141.5-58.5T560-281.13q0-83 58.5-141.5t141.5-58.5q83 0 141.5 58.5t58.5 141.5q0 83-58.5 141.5T760-81.13Zm-24.522-166.783h49.044v-160h-49.044v160ZM760-152.087q11.391 0 19.087-7.695 7.696-7.696 7.696-19.088 0-11.391-7.696-19.369-7.696-7.979-19.087-7.979t-19.087 7.979q-7.696 7.978-7.696 19.369 0 11.392 7.696 19.088 7.696 7.695 19.087 7.695Z"/></svg>