<svg xmlns="http://www.w3.org/2000/svg" height="20" viewBox="0 -960 960 960" width="20"><path d="m547.456-271.022 85.435-85.078v-58.596 58.596l-85.435 85.078Zm248.848 0L711.109-356.1v-58.596 58.596l85.195 85.078ZM480-480ZM87.87-580.304v-195.827H872.13v235.218H789.13V-693.13H170.87v112.826h-83Zm0 396.435v-195.827h83v112.826h207.195v83.001H87.869ZM499.173-44.891q-31.435 0-53.272-21.837T424.065-120l2-135.978 55.826-182.783q7.479-23.957 27.789-39.054 20.311-15.098 45.081-15.098h78.13v-67.218h78.218v67.218H789q24.906 0 44.649 15.598 19.742 15.597 27.221 39.554l58.065 191.783V-120q0 31.435-22.407 53.272t-52.702 21.837H768q-31.435 0-53.272-21.837t-21.837-53.174v-51.207h78.218v48h69.608v-115.674l-54.869-175.913h-74.739v58.478l85.195 85.196-55.543 54.544-68.881-69-69.88 69-54.544-54.544 85.435-85.078v-58.596h-75.978l-53.63 175.898v115.689h69.608v-48h78.218v51.207q0 31.337-22.407 53.174T576-44.891h-76.826ZM672-268.783ZM87.87-439.696v-80.608h162.76l49.131 87.739 116.021-212.087h57.675l56.869 110.326q-20.078 3.508-37.909 13.786-17.83 10.279-31.548 26.91L444-524.087 327.218-315.109h-54.914L203.13-439.696H87.87Z"/></svg>