<svg xmlns="http://www.w3.org/2000/svg" height="24" viewBox="0 -960 960 960" width="24"><path d="M601.692-256 660-313.769V-360v46.231L601.692-256Zm155.847 0L700-314.539V-360v45.461L757.539-256ZM480-480ZM120-595.385V-760h720v284.615h-40V-720H160v124.615h-40ZM120-200v-164.615h40V-240h244.615v40H120ZM516.923-80q-15.385 0-26.154-10.769T480-116.923v-126.231l49.923-129.461q4.661-12.113 15.279-19.749Q555.82-400 568.769-400H660v-100h40v100h89.692q12.763 0 23.228 7.577 10.465 7.577 15.619 19.038L880-243.154v126.231q0 15.385-10.769 26.154-10.769 10.77-26.154 10.77h-89.231q-15.384 0-26.154-10.77-10.769-10.769-10.769-26.154v-58.462h40V-120H840v-116.077L791.231-360H700v45.461L757.539-256l-28.308 28.308-49.616-50-49.615 50L601.692-256 660-313.769V-360h-92.769L520-236.077V-120h83.077v-55.385h40V-120q0 16.667-11.667 28.334Q619.744-80 603.077-80h-86.154ZM680-240ZM120-460v-40h91.692L280-364.385l153.231-308.692H445l100.769 201q-10.231 2-19.601 5.211-9.371 3.211-17.476 9.174l-69.461-136.923L285-286.154h-11.539L187.308-460H120Z"/></svg>