<svg xmlns="http://www.w3.org/2000/svg" height="20" viewBox="0 -960 960 960" width="20"><path d="M493.956-40.652q-33.391 0-56.37-22.978Q414.608-86.61 414.608-120l2-144.131 61.044-189.305q8.13-25.261 29.326-41.174 21.196-15.913 47.457-15.913h26.217v123.696l-74.957 74.957 35.565 34 87.392-86.826v-206.522h86.696v205.522l86.826 86.826 34-33.435-72.826-73.391v-124.827H789q26.261 0 46.957 16.413 20.695 16.413 28.826 41.674l63.609 198.305V-120q0 33.391-23.761 56.37-23.761 22.978-55.587 22.978H768q-33.391 0-56.37-22.978Q688.652-86.61 688.652-120v-149.479L672-286.13l-16.652 16.651V-120q0 33.391-23.761 56.37Q607.826-40.652 576-40.652h-82.044ZM300-445.61l-31.956-55.912q-6.131-11.261-16.392-17.957-10.261-6.695-23.652-6.695H76.782v-261.044h806.436v228.695H760.522v-60.695h-179.87v60.695l-52.609 2.565-43.999-77.564q-6.696-11.261-16.957-17.457-10.261-6.195-23.087-6.195-13.391 0-24.152 6.195-10.761 6.196-16.892 17.457L300-445.61ZM76.782-172.782v-261.044h122.435l59.174 107.913q6.696 9.696 17.239 16.392 10.544 6.695 24.37 6.695 13.391 0 23.652-6.695 10.261-6.696 16.392-16.957L444-514.39l6.347 7.694q-7.043 9.304-10.652 19.195-3.608 9.891-6.913 19.934l-64.174 188.871v105.914H76.782Z"/></svg>