<svg xmlns="http://www.w3.org/2000/svg" height="24" viewBox="0 -960 960 960" width="24"><path d="M153.782-100.782q-22.087 0-37.544-15.456-15.456-15.457-15.456-37.544 0-22.088 15.456-37.544 15.457-15.457 37.544-15.457h42.261q22.087 0 37.544 15.457 15.457 15.456 15.457 37.544 0 22.087-15.457 37.544-15.457 15.456-37.544 15.456h-42.261Zm-2.826-169.044q-20.957 0-35.566-14.608-14.608-14.609-14.608-35.566t14.608-35.566q14.609-14.608 35.566-14.608h251.305q20.957 0 35.566 14.608 14.608 14.609 14.608 35.566t-14.608 35.566q-14.609 14.608-35.566 14.608H150.956Zm0-162.826q-20.957 0-35.566-14.609-14.608-14.609-14.608-35.565 0-20.957 14.608-35.566 14.609-14.609 35.566-14.609h658.088q20.957 0 35.565 14.609 14.609 14.609 14.609 35.566 0 20.956-14.609 35.565-14.608 14.609-35.565 14.609H150.956Zm0-163.391q-20.957 0-35.566-14.609-14.608-14.609-14.608-35.566 0-20.956 14.608-35.565 14.609-14.609 35.566-14.609h251.305q20.957 0 35.566 14.609 14.608 14.609 14.608 35.565 0 20.957-14.608 35.566-14.609 14.609-35.566 14.609H150.956Zm0-162.827q-20.957 0-35.566-14.608-14.608-14.609-14.608-35.566t14.608-35.565q14.609-14.609 35.566-14.609h47.914q20.956 0 35.565 14.609 14.609 14.608 14.609 35.565 0 20.957-14.609 35.566-14.609 14.608-35.565 14.608h-47.914Zm206.783 658.088q-22.087 0-37.544-15.456-15.457-15.457-15.457-37.544 0-22.088 15.457-37.544 15.457-15.457 37.544-15.457h41.696q22.087 0 37.544 15.457 15.456 15.456 15.456 37.544 0 22.087-15.456 37.544-15.457 15.456-37.544 15.456h-41.696Zm-2.826-658.088q-20.957 0-35.566-14.608-14.609-14.609-14.609-35.566t14.609-35.565q14.609-14.609 35.566-14.609h47.348q20.957 0 35.566 14.609 14.608 14.608 14.608 35.565 0 20.957-14.608 35.566-14.609 14.608-35.566 14.608h-47.348Zm205.652 658.088q-22.087 0-37.544-15.456-15.456-15.457-15.456-37.544 0-22.088 15.456-37.544 15.457-15.457 37.544-15.457h41.696q22.087 0 37.544 15.457 15.457 15.456 15.457 37.544 0 22.087-15.457 37.544-15.457 15.456-37.544 15.456h-41.696Zm-2.826-169.044q-20.957 0-35.566-14.608-14.608-14.609-14.608-35.566t14.608-35.566q14.609-14.608 35.566-14.608h251.305q20.957 0 35.565 14.608 14.609 14.609 14.609 35.566t-14.609 35.566q-14.608 14.608-35.565 14.608H557.739Zm0-326.217q-20.957 0-35.566-14.609-14.608-14.609-14.608-35.566 0-20.956 14.608-35.565 14.609-14.609 35.566-14.609h251.305q20.957 0 35.565 14.609 14.609 14.609 14.609 35.565 0 20.957-14.609 35.566-14.608 14.609-35.565 14.609H557.739Zm0-162.827q-20.957 0-35.566-14.608-14.608-14.609-14.608-35.566t14.608-35.565q14.609-14.609 35.566-14.609h47.348q20.957 0 35.566 14.609 14.609 14.608 14.609 35.565 0 20.957-14.609 35.566-14.609 14.608-35.566 14.608h-47.348Zm206.218 658.088q-22.087 0-37.544-15.456-15.457-15.457-15.457-37.544 0-22.088 15.457-37.544 15.457-15.457 37.544-15.457h42.261q22.087 0 37.544 15.457 15.456 15.456 15.456 37.544 0 22.087-15.456 37.544-15.457 15.456-37.544 15.456h-42.261ZM761.13-758.87q-20.956 0-35.565-14.608-14.609-14.609-14.609-35.566t14.609-35.565q14.609-14.609 35.565-14.609h47.914q20.957 0 35.565 14.609 14.609 14.608 14.609 35.565 0 20.957-14.609 35.566-14.608 14.608-35.565 14.608H761.13Z"/></svg>