<svg xmlns="http://www.w3.org/2000/svg" height="24" viewBox="0 -960 960 960" width="24"><path d="m226-322 80 80q4 4 4.5 9.5t-4.717 10.717Q301-217 296-217q-5 0-10-5l-92.655-92.655Q188-320 186-325.133q-2-5.134-2-11Q184-342 186-347q2-5 7.345-10.345L286-450q4-4 9.5-4.5t10.5 4.283Q311-445 311-440q0 5-5 10l-80 80h263q5.95 0 9.975 4.035 4.025 4.035 4.025 10T498.975-326q-4.025 4-9.975 4H226Zm376.053 5q-8.053 0-13.553-5.447-5.5-5.448-5.5-13.5 0-8.053 5.447-13.553 5.448-5.5 13.5-5.5 8.053 0 13.553 5.447 5.5 5.448 5.5 13.5 0 8.053-5.447 13.553-5.448 5.5-13.5 5.5Zm118 0q-8.053 0-13.553-5.447-5.5-5.448-5.5-13.5 0-8.053 5.447-13.553 5.448-5.5 13.5-5.5 8.053 0 13.553 5.447 5.5 5.448 5.5 13.5 0 8.053-5.447 13.553-5.448 5.5-13.5 5.5ZM735-610H471q-5.95 0-9.975-4.035-4.025-4.035-4.025-10t4.025-9.965q4.025-4 9.975-4h263l-80-80q-4-4-4.5-9.5t4.717-10.717Q659-743 664-743q5 0 10 5l92.655 92.655Q772-640 774-634.867q2 5.134 2 11Q776-618 774-613q-2 5-7 10l-94 94q-3.75 4-9.375 4T654-509q-5-4-4.5-10t4.5-10l81-81Zm-494.947 5q-8.053 0-13.553-5.447-5.5-5.448-5.5-13.5 0-8.053 5.447-13.553 5.448-5.5 13.5-5.5 8.053 0 13.553 5.447 5.5 5.448 5.5 13.5 0 8.053-5.447 13.553-5.448 5.5-13.5 5.5Zm118 0q-8.053 0-13.553-5.447-5.5-5.448-5.5-13.5 0-8.053 5.447-13.553 5.448-5.5 13.5-5.5 8.053 0 13.553 5.447 5.5 5.448 5.5 13.5 0 8.053-5.447 13.553-5.448 5.5-13.5 5.5Z"/></svg>