<svg xmlns="http://www.w3.org/2000/svg" height="24" viewBox="0 -960 960 960" width="24"><path d="M536-176 312-410q-3-3-4.5-6.5t-1.5-8V-438q0-9.35 6.325-15.675Q318.65-460 328-460h92q63 0 116-39.5T588-616H280q-5.95 0-9.975-4.035-4.025-4.035-4.025-10t4.025-9.965q4.025-4 9.975-4h306q-11-51-57-83.5T420-760H280q-5.95 0-9.975-4.035-4.025-4.035-4.025-10t4.025-9.965q4.025-4 9.975-4h400q5.95 0 9.975 4.035 4.025 4.035 4.025 10T689.975-764q-4.025 4-9.975 4H528q33 17 57 48.5t29 67.5h66q5.95 0 9.975 4.035 4.025 4.035 4.025 10T689.975-620q-4.025 4-9.975 4h-64q2 85-58 134.5T420-432h-90l226 236q7 7 3.5 15.5t-13.441 8.5q-3.059 0-5.559-1t-4.5-3Z"/></svg>