<svg xmlns="http://www.w3.org/2000/svg" height="20" viewBox="0 -960 960 960" width="20"><path d="M519-130 278.841-385.249Q271-393 268-401.562q-3-8.563-3-18.563v-31Q265-472 280.35-487.5T317-503h110q34 0 63-19t34-47H300.226q-24.396 0-41.811-17.289Q241-603.579 241-627.789 241-652 258.297-669.5q17.298-17.5 41.52-17.5H516q-15-26-41.427-35.5Q448.147-732 420-732H299.618Q276-732 258.5-749.289q-17.5-17.29-17.5-41.5Q241-815 258.342-832.5q17.343-17.5 41.632-17.5h359.737Q684-850 701.5-832.711q17.5 17.29 17.5 41.5Q719-767 701.65-749.5T660-732h-50q7 8 16.5 20.5T640-687h20q24.3 0 41.65 17.289 17.35 17.29 17.35 41.5Q719-604 701.65-586.5T660-569h-15q-8 77-65 127.5T448-387h-8l167 176q28 29 11.894 65-16.107 36-55.894 36-14 0-25-5.5T519-130Z"/></svg>