<svg xmlns="http://www.w3.org/2000/svg" height="20" viewBox="0 -960 960 960" width="20"><path d="M535.231-188.846 313.994-415.172q-3.302-3.213-4.648-6.698-1.346-3.486-1.346-7.793v-12.924q0-8.99 6.369-15.509t15.785-6.519H420q57.692 0 107.846-39.347Q578-543.308 575.077-612.308H300.226q-6.896 0-11.561-4.547T284-628.124q0-6.722 4.547-11.453 4.548-4.731 11.27-4.731h268.952q-14.385-47.307-54.427-73.5Q474.301-744 420-744H299.618q-6.118 0-10.868-4.547t-4.75-11.27q0-6.722 4.592-11.452Q293.185-776 299.974-776h359.737q6.789 0 11.539 4.547t4.75 11.269q0 6.722-4.6 11.453Q666.8-744 660-744H528.308q27.615 17 48.115 42.346 20.5 25.346 24.731 57.346H660q6.8 0 11.4 4.547 4.6 4.548 4.6 11.27 0 6.722-4.6 11.453-4.6 4.73-11.4 4.73h-53.692q2.692 81-54.769 130.347Q494.077-432.615 420-432.615h-77.923L558-211.154q8.539 7.769 4.317 17.462Q558.095-184 546.661-184q-4.199 0-6.853-1.461-2.654-1.462-4.577-3.385Z"/></svg>