<svg xmlns="http://www.w3.org/2000/svg" height="20" viewBox="0 -960 960 960" width="20"><path d="M317.087-202.999q-37.565 0-68.478-22-30.913-22-43.305-58h-72.609v-262.523h71.521L161.173-588l-30 29-52-51 115-115 51 52-33 33 49.826 50.826 58.088-167.827h323.216l66.567 193.696h120.826v281.436h-73.609q-13.826 35-45.022 56.935-31.195 21.935-68.761 21.935-34.908 0-63.432-19.718-28.524-19.717-40.69-52.282H424.305q-12.261 33.565-41.71 52.782-29.448 19.218-65.508 19.218Zm31.087-362.002h97.522v-102.477h-63.174l-34.348 102.477Zm169.522 0h97.521L580.87-667.478h-63.174v102.477Zm-93.391 200.479h114.782q13.418-32.965 42.619-52.483 29.2-19.517 64.363-19.517 26.706 0 48.819 10.935Q717-414.652 735.13-395.218h6.044v-80.26H222.218v81.391h6.608q18.131-19.435 39.989-30.935 21.859-11.5 48.743-11.5 34.66 0 63.355 19.717 28.696 19.718 43.392 52.283Zm-107.428 81.044q15.21 0 25.71-10.29 10.5-10.289 10.5-25.5 0-15.21-10.289-25.71-10.29-10.5-25.5-10.5-15.211 0-25.711 10.289-10.5 10.29-10.5 25.5 0 15.211 10.29 25.711 10.289 10.5 25.5 10.5Zm329.217 0q15.21 0 25.71-10.29 10.5-10.289 10.5-25.5 0-15.21-10.289-25.71-10.29-10.5-25.5-10.5-15.211 0-25.711 10.289-10.5 10.29-10.5 25.5 0 15.211 10.29 25.711 10.289 10.5 25.5 10.5ZM481.696-420Z"/></svg>