<svg xmlns="http://www.w3.org/2000/svg" height="20" viewBox="0 -960 960 960" width="20"><path d="M317.087-202.999q-38.565 0-68.478-22.5-29.913-22.5-38.305-57.5h-80.609v-258.523h86.521L161.173-592l-33 32-50-53 116-113 51 50-34 32 46.826 43.826 55.088-156.827h334.216l71.567 205.696h111.826v269.436h-79.609q-8.826 35-39.723 56.935-30.896 21.935-68.06 21.935-32.989 0-59.973-16.218-26.983-16.217-41.149-44.782H418.305q-14.261 28.565-41.245 44.782-26.984 16.218-59.973 16.218Zm22.087-356.002h105.522v-108.477h-69.174l-36.348 108.477Zm177.522 0h105.521L585.87-667.478h-69.174v108.477ZM317.263-283.478q12.824 0 21.824-8.29 9-8.289 9-19.622 0-11.334-8.852-19.211-8.852-7.877-21.937-7.877-12.661 0-21.436 7.667-8.775 7.666-8.775 19 0 11.333 8.676 19.833 8.675 8.5 21.5 8.5Zm326.831 0q12.66 0 21.435-8.29 8.775-8.289 8.775-19.622 0-11.334-8.675-19.211-8.676-7.877-21.5-7.877-12.825 0-21.825 7.667-9 7.666-9 19 0 11.333 8.852 19.833 8.852 8.5 21.938 8.5Z"/></svg>