<svg xmlns="http://www.w3.org/2000/svg" height="20" viewBox="0 -960 960 960" width="20"><path d="M479.788-388q-38.249 0-65.019-26.982Q388-441.963 388-480.212t26.982-65.019Q441.963-572 480.212-572t65.019 26.982Q572-518.037 572-479.788t-26.982 65.019Q518.037-388 479.788-388Zm.212 32q52.308 0 88.154-35.846T604-480q0-52.308-35.846-88.154T480-604q-52.308 0-88.154 35.846T356-480q0 52.308 35.846 88.154T480-356ZM192.615-232q-24.315 0-40.465-16.162Q136-264.324 136-288.656v-383.012Q136-696 152.15-712t40.465-16h574.77q24.315 0 40.465 16.162Q824-695.676 824-671.344v383.012Q824-264 807.85-248t-40.465 16h-574.77Zm0-32h574.77q9.23 0 16.923-7.692Q792-279.385 792-288.615v-382.77q0-9.23-7.692-16.923Q776.615-696 767.385-696h-574.77q-9.23 0-16.923 7.692Q168-680.615 168-671.385v382.77q0 9.23 7.692 16.923Q183.385-264 192.615-264ZM168-264v-432 432Z"/></svg>