<svg xmlns="http://www.w3.org/2000/svg" height="20" viewBox="0 -960 960 960" width="20"><path d="M222.783-172.782q-41.005 0-69.503-28.51-28.498-28.51-28.498-69.531V-689.5q0-41.022 28.498-69.37 28.498-28.348 69.503-28.348h514.434q41.005 0 69.503 28.51 28.498 28.51 28.498 69.531V-270.5q0 41.022-28.498 69.37-28.498 28.348-69.503 28.348H222.783Zm0-98.001h514.434v-418.434H222.783v418.434ZM312.784-368h86.991q21.095 0 35.551-14.623 14.457-14.624 14.457-35.479v-10.072q0-8.348-6-14.348t-14-6h-24.479q-8 0-14 6t-6 14h-57.477v-102.956h57.477q0 8 6 14t14 6h24.479q8 0 14-6t6-14.348v-10.072q0-20.855-14.594-35.479Q420.595-592 399.782-592h-86.991q-21.095 0-35.551 14.662-14.457 14.662-14.457 35.574v122.938q0 20.913 14.594 35.869Q291.971-368 312.784-368Zm334.432-224h-86.991q-21.095 0-35.551 14.882-14.457 14.881-14.457 36.119v122.798q0 20.898 14.594 35.549Q539.406-368 560.218-368h86.991q21.095 0 35.551-14.623 14.457-14.624 14.457-35.479v-10.072q0-8.348-6-14.348t-14-6h-24.479q-8 0-14 6t-6 14h-57.477v-102.956h57.477q0 8 6 14t14 6h24.479q8 0 14-6t6-14.348v-10.072q0-20.855-14.594-35.479Q668.029-592 647.216-592ZM222.783-270.783v-418.434 418.434Z"/></svg>