<svg xmlns="http://www.w3.org/2000/svg" height="20" viewBox="0 -960 960 960" width="20"><path d="M88-344.769v-270.462q0-12.031 8.138-20.169 8.139-8.139 20.169-8.139h134.155q12.03 0 20.169 8.139 8.138 8.138 8.138 20.169v270.462q0 12.031-8.138 20.169-8.139 8.139-20.169 8.139H116.307q-12.03 0-20.169-8.139Q88-332.738 88-344.769Zm296.615 0v-270.462q0-12.031 8.139-20.169 8.138-8.139 20.169-8.139h134.154q12.031 0 20.169 8.139 8.139 8.138 8.139 20.169v270.462q0 12.031-8.139 20.169-8.138 8.139-20.169 8.139H412.923q-12.031 0-20.169-8.139-8.139-8.138-8.139-20.169Zm296.616 0v-270.462q0-12.031 8.138-20.169 8.139-8.139 20.169-8.139h134.155q12.03 0 20.169 8.139Q872-627.262 872-615.231v270.462q0 12.031-8.138 20.169-8.139 8.139-20.169 8.139H709.538q-12.03 0-20.169-8.139-8.138-8.138-8.138-20.169ZM120-348.462h126.769v-263.076H120v263.076Zm600.923 0H840v-263.076H720.923v263.076Z"/></svg>