<svg xmlns="http://www.w3.org/2000/svg" height="20" viewBox="0 -960 960 960" width="20"><path d="M83-35v-56q0-27.75 15.449-51.875T140-178q25-13 53.5-18t56.5-5q28 0 56.123 5.478Q334.247-190.043 359-178q26 12 42 35.5T417-91v56H83Zm460 0v-56q0-27.75 16-51.875T601-178q25-13 53-18t56-5q28 0 56.623 5.478Q795.247-190.043 820-178q26.102 12 41.551 35.5Q877-119 877-91v56H543ZM250.133-217Q211-217 183-245.075q-28-28.075-28-67.5t28.075-66.925q28.075-27.5 67.5-27.5t66.925 27.867q27.5 27.867 27.5 67Q345-273 317.133-245q-27.867 28-67 28Zm460 0Q671-217 643-245.075q-28-28.075-28-67.5t28.075-66.925q28.075-27.5 67.5-27.5t66.925 27.867q27.5 27.867 27.5 67Q805-273 777.133-245q-27.868 28-67 28ZM519-418l20-20q11.364-11 27.182-10.5Q582-448 594-436q11 11 11 27.318T594-381l-72 71q-18 18-42 18t-42-18l-72-72q-11-11.727-11-27.364Q355-425 367-437q11-11 26.5-11.5T421-438l20 20v-63q0-16.9 11.05-27.95T480-520q16.9 0 27.95 11.05T519-481v63ZM12-561v-56q0-27.75 15.449-51.875T69-704q25-13 53.5-18t56.5-5q33.322 0 63.161 6.5T294-702q-17 22-23 46t-6 39v56H12Zm301 0v-56q0-27.75 16-51.875T371-704q25-13 53-18t56-5q28 0 56 5t53 18q26 11 42 35.125T647-617v56H313Zm382 0v-56q0-15-4.5-39T667-702q22-12 51.339-18.5T781-727q28 0 56.5 5t53.5 18q26.102 11 41.551 35.125Q948-644.75 948-617v56H695ZM179.133-743Q140-743 112-771.075q-28-28.075-28-67.5t28.075-66.925q28.075-27.5 67.5-27.5t66.925 27.867q27.5 27.868 27.5 67Q274-799 246.133-771q-27.868 28-67 28Zm301 0Q441-743 413-771.075q-28-28.075-28-67.5t28.075-66.925q28.075-27.5 67.5-27.5t66.925 27.867q27.5 27.868 27.5 67Q575-799 547.133-771q-27.867 28-67 28Zm301 0Q742-743 714-771.075q-28-28.075-28-67.5t28.075-66.925q28.075-27.5 67.5-27.5t66.925 27.867q27.5 27.868 27.5 67Q876-799 848.133-771q-27.868 28-67 28Z"/></svg>