<svg xmlns="http://www.w3.org/2000/svg" height="24" viewBox="0 -960 960 960" width="24"><path d="m686.739-298.218 62.956-233.955q6.131-21.653-4.913-40.457-11.044-18.805-32.696-24.935L339.523-698.826q-21.653-6.13-40.175 4.631t-24.652 32.413l-62.391 234.52q-6.131 21.088 4.913 39.892 11.044 18.805 32.131 24.935l371.998 101.261q21.652 6.13 40.457-4.631t24.935-32.413ZM166.783-140.782q-44.305 0-75.153-30.848-30.848-30.848-30.848-75.153v-466.434q0-44.305 30.848-75.153 30.848-30.848 75.153-30.848h626.434q44.305 0 75.153 30.848 30.848 30.848 30.848 75.153v466.434q0 44.305-30.848 75.153-30.848 30.848-75.153 30.848H166.783Z"/></svg>