<svg xmlns="http://www.w3.org/2000/svg" height="24" viewBox="0 -960 960 960" width="24"><path d="m816.739-27.435-803.87-803.87 62.652-62.652 803.87 803.87-62.652 62.652ZM234.13-859.218h580.566V-680h88.479v88.479h-88.479v66.999h88.479v89.044h-88.479v66.999h88.479V-280h-89.826L708.695-384.654v-368.563H340.132L234.13-859.218Zm201.348 205.869L408.827-680h26.651v26.651ZM533.349-560l-57.871-57.871V-680h160v120H533.349Zm102.129 101.694L573.784-520h61.694v61.694ZM404.174-440Zm120.739-129.87ZM235.478-280v-160h200v160h-200ZM119.521-849.957l96.741 96.74h-53.436v546.434h545.869v-54.001L808.479-161v60.218H56.825v-749.175h62.696Zm355.957 355.956 160 160V-280h-160v-214.001ZM289.479-680l145.999 145.999V-480h-200v-200h54.001Z"/></svg>