<svg xmlns="http://www.w3.org/2000/svg" height="20" viewBox="0 -960 960 960" width="20"><path d="m800.739-55.435-758.87-758.87 56.652-55.652 757.87 757.87-55.652 56.652ZM247.13-835.218h535.566V-672h104.479v80.479H782.696v70.999h104.479v81.044H782.696v70.999h104.479V-288h-92.826L684.695-397.654v-339.563H345.132l-98.002-98.001Zm180.348 184.869L405.827-672h21.651v21.651ZM506.349-576l-30.871-30.871V-672h144v96H506.349Zm113.129 113.694L553.784-528h65.694v65.694ZM429.174-426Zm91.739-133.87ZM235.478-288v-144h192v144h-192Zm-93.957-538.957 89.741 89.74h-60.436v514.434h514.869v-60.001L776.479-192v67.218H72.825v-702.175h68.696Zm333.957 333.956 160 160V-288h-160v-205.001ZM296.479-672l144.999 144.999V-480h-206v-192h61.001Z"/></svg>