<svg xmlns="http://www.w3.org/2000/svg" height="24" viewBox="0 -960 960 960" width="24"><path d="M160-456.923v72.308q0 9.23 7.692 16.923Q175.385-360 184.615-360h590.77q9.23 0 16.923-7.692Q800-375.385 800-384.615v-72.308H160ZM184.615-840h590.77q26.846 0 45.731 18.884Q840-802.231 840-775.385v390.77q0 26.846-18.884 45.731Q802.231-320 775.385-320H596.923v118.077q0 18.385-15.154 27.962-15.153 9.577-31.307 1.115l-56.308-27.384q-6.462-3.462-14.154-3.462t-14.154 3.462l-56.308 27.384q-16.154 8.462-31.307-1.115-15.154-9.577-15.154-27.962V-320H184.615q-26.846 0-45.731-18.884Q120-357.769 120-384.615v-390.77q0-26.846 18.884-45.731Q157.769-840 184.615-840ZM160-543.077h640v-232.308q0-9.23-7.692-16.923Q784.615-800 775.385-800h-590.77q-9.23 0-16.923 7.692Q160-784.615 160-775.385v232.308Zm0 158.462V-800h24.615q-9.23 0-16.923 7.692Q160-784.615 160-775.385v390.77q0 9.23 7.692 16.923Q175.385-360 184.615-360H160v-24.615Z"/></svg>