<svg xmlns="http://www.w3.org/2000/svg" height="20" viewBox="0 -960 960 960" width="20"><path d="M816.391-122.521 572.87-365.477q-28.305 18.608-63.74 30.543-35.434 11.935-77.13 11.935-39.826 0-75.087-11.631-35.261-11.63-65.392-32.891l71.088-71.088q16.304 7.869 33.261 12.739 16.956 4.869 36.13 4.869 64.913 0 109.956-45.043Q586.999-511.087 586.999-576q0-64.913-45.043-109.956Q496.913-730.999 432-730.999q-67.739 0-111.087 43.065-43.347 43.064-43.912 110.804l54.13-51 57.783 58.348L233.13-413.999 76.782-569.782l58.348-58.348 43.869 45.434q2-104.217 74.044-175.261T432-829.001q105.652 0 179.327 73.674Q685.001-681.652 685.001-576q0 42.261-11.935 76.848-11.935 34.587-30.543 63.456l242.956 243.522-69.088 69.653Z"/></svg>