<svg xmlns="http://www.w3.org/2000/svg" height="20" viewBox="0 -960 960 960" width="20"><path d="M809.923-160.924 571.692-399.155q-29.231 22-65.231 34.885-36 12.884-74.461 12.884-34.307 0-64.423-9.346-30.115-9.346-56.807-26.038l38.384-38.384q19.153 9.77 39.423 15.77 20.269 6 43.423 6 72.308 0 122.462-50.154Q604.616-503.692 604.616-576q0-72.308-50.154-122.462Q504.308-748.616 432-748.616q-74.616 0-125.539 52.462t-47.846 127.078L317-626.231l37.153 37.153L237.385-472.31 120.617-589.078l37.153-37.153 48.846 51.385q-.307-93.769 65.346-159.768 65.654-66 160.038-66 93.461 0 159.038 65.576Q656.614-669.461 656.614-576q0 39.615-13.269 75.231-13.269 35.615-34.5 64.461l238.231 238.231-37.153 37.153Z"/></svg>