<svg xmlns="http://www.w3.org/2000/svg" height="24" viewBox="0 -960 960 960" width="24"><path d="M210.739-790.13q-4.739 22.174-6.609 44.565-1.869 22.391-1.869 45 0 59.043 18 113.586 18 54.544 49.739 103.717 9.696 14.392 8.413 32.196-1.283 17.805-13.109 29.631t-27.783 10.544q-15.956-1.283-25.652-15.109-42.565-61.13-66.261-130.565-23.696-69.435-23.696-144 0-21.348 1.304-42.413 1.305-21.065 5.044-42.412l-25.825 25.825q-11.826 11.826-28.349 11.826-16.521 0-28.348-11.826-11.826-11.826-11.543-28.348.282-16.522 12.109-28.349l88.173-88.173q15.957-15.957 37.61-15.957 21.652 0 37.609 15.957l88.739 88.739q11.826 11.826 11.826 28.065 0 16.24-11.826 28.066t-28.348 11.609q-16.522-.218-28.349-11.609l-30.999-30.565Zm428.608 681.218q-24.131 8.565-49.609 7.783-25.478-.783-48.044-11.783L290.258-234.87q-11.043-5.304-15.63-16.847-4.587-11.543.152-22.587l.87-1.739q12.261-30.174 38.457-48.892 26.196-18.717 58.37-19.587l57.826-2.174-110.87-304.739q-7.13-18.261 1.566-35.87 8.695-17.608 26.956-24.739 18.261-7.13 35.87 1.565 17.609 8.696 24.74 26.957l97.695 268.087 37.435-13.435-44.957-123.739q-7.13-18.261 1.566-35.87 8.695-17.609 26.956-24.739 18.261-7.131 35.87 1.565 17.609 8.696 24.74 26.957l44.956 123.174 37-13.435-30.956-85.739q-7.131-18.261 1.565-35.87 8.695-17.609 26.956-24.74 18.261-7.13 35.87 1.283 17.609 8.413 24.74 26.674l30.956 86.305 38-14-3.956-10.74q-7.131-18.261 1.565-35.869 8.696-17.609 26.957-24.74 18.261-7.13 35.587 1.565 17.326 8.696 24.457 26.957l61.217 166.392q24.131 65.827-5.065 128.153Q908.523-207 842.697-182.87l-203.35 73.958Z"/></svg>