<svg xmlns="http://www.w3.org/2000/svg" height="24" viewBox="0 -960 960 960" width="24"><path d="M219.154-819.692q-10.077 34.231-14.616 69.73-4.538 35.5-4.538 71.5 0 63 19.154 122.27 19.154 59.269 53.923 112.038 4.923 6.385 4.692 14.385-.231 8-6.154 13.923t-12.923 4.154q-7-1.77-11.923-8.154-38.923-57.693-60.538-123.077-21.616-65.385-21.616-135.539 0-35.461 4.539-70.538 4.538-35.077 13.615-69.769l-66.692 66.692q-5.154 5.154-12.539 5.539-7.384.384-12.538-5.539-5.154-5.154-4.77-12.538.385-7.385 5.539-12.539l87.154-87.154Q188.615-874 201.538-874q12.923 0 22.616 9.692l87.923 87.923q5.154 5.154 5.154 12.154t-5.154 12.154q-5.154 5.923-12.539 5.423-7.384-.5-12.538-5.423l-67.846-67.615Zm432.692 651.923q-18.384 6.462-38.423 5.962-20.038-.5-38.192-9.193L345.385-277.538q-9.616-4.693-12.924-14.423-3.307-9.731 1.385-19.347l.462-.923q6.153-10.769 16.077-17.115 9.923-6.346 21.923-7.577l114.153-12.692L372.154-662q-2.923-8.308.615-15.5 3.539-7.192 11.846-10.115 8.308-2.924 15.5.615 7.193 3.538 10.116 11.846l99.077 273 68.769-24.769-51.769-142.231q-2.923-8.307.615-15.5 3.538-7.192 11.846-10.115t15.5.615q7.193 3.539 10.116 11.846l51.769 141.462 68.538-25.539-37.769-104.23q-2.923-8.308.615-15.116 3.539-6.807 11.847-9.731 8.307-2.923 15.5.231 7.192 3.154 10.115 11.462l37.769 103.461 68.769-24.769-10.769-28.461q-2.923-8.308.231-15.5 3.154-7.193 11.462-10.116 8.307-2.923 15.5.231 7.192 3.154 10.115 11.462l55 150q20.692 55.307-3.731 107.5-24.423 52.192-79.73 72.115l-137.77 50.077Z"/></svg>