<svg xmlns="http://www.w3.org/2000/svg" height="20" viewBox="0 -960 960 960" width="20"><path d="M200.183-308q-6.722 0-11.452-4.6Q184-317.2 184-324v-312q0-6.8 4.547-11.4 4.547-4.6 11.269-4.6t11.453 4.6Q216-642.8 216-636v140h208v-140q0-6.5 4.547-11.25t11.269-4.75q6.722 0 11.453 4.6Q456-642.8 456-636v312q0 6.8-4.547 11.4-4.548 4.6-11.27 4.6-6.722 0-11.452-4.6Q424-317.2 424-324v-140H216v140q0 6.5-4.547 11.25-4.548 4.75-11.27 4.75Zm344.1 0q-6.783 0-11.533-4.547-4.75-4.547-4.75-11.269 0-6.723 4.6-11.453Q537.2-340 544-340h175.385q10.769 0 17.692-6.923T744-364.615v-74.77q0-10.769-6.923-17.692T719.385-464H556.584q-12.007 0-20.296-8.042Q528-480.085 528-492.688v-130.624q0-12.603 8.127-20.646 8.127-8.042 20.14-8.042h203.45q6.783 0 11.533 4.547 4.75 4.547 4.75 11.269 0 6.723-4.6 11.453Q766.8-620 760-620H560v124h159.633q23.406 0 39.886 16.631Q776-462.739 776-439.385v74.77q0 23.354-16.607 39.984Q742.786-308 719.466-308H544.283Z"/></svg>