<svg xmlns="http://www.w3.org/2000/svg" height="20" viewBox="0 -960 960 960" width="20"><path d="M169.211-259Q145-259 127.5-276.35T110-318v-324q0-24.3 17.289-41.65 17.29-17.35 41.5-17.35Q193-701 210.5-683.65T228-642v103h110v-103q0-24 17.289-41.5 17.29-17.5 41.5-17.5Q421-701 438.5-683.65T456-642v324q0 24.3-17.289 41.65-17.29 17.35-41.5 17.35Q373-259 355.5-276.35T338-318v-103H228v103q0 24-17.289 41.5-17.29 17.5-41.5 17.5Zm418.072 0Q563-259 545.5-276.289q-17.5-17.29-17.5-41.5Q528-342 545.35-359.5T587-377h145v-44H587.276Q563-421 545.5-438.35 528-455.7 528-480v-162q0-24.3 17.338-41.65Q562.677-701 586.96-701h203.757Q815-701 832.5-683.711q17.5 17.29 17.5 41.5Q850-618 832.65-600.5T791-583H646v44h86.249Q782-539 816-504.85q34 34.15 34 83.85v44q0 49.7-34.126 83.85Q781.747-259 732.081-259H587.283Z"/></svg>