<svg xmlns="http://www.w3.org/2000/svg" height="20" viewBox="0 -960 960 960" width="20"><path d="M417.597-398H539l26 75q1 4 3.25 5.5t6.333 1.5q6.417 0 9.417-4t1-10l-88.367-254.116Q495-588 491.75-591q-3.25-3-7.75-3h-10.947Q468-594 465-591.5q-3 2.5-5 7.5l-87.653 253.736Q371-325 373.74-320.5q2.74 4.5 8.58 4.5 3.68 0 5.68-1.5 2-1.5 3-5.5l26.597-75ZM426-421l53-152 51 152H426Zm-36-421q-4.3 0-7.15-2.789-2.85-2.79-2.85-7 0-4.211 2.85-7.211t7.15-3h180q4.3 0 7.15 2.789 2.85 2.79 2.85 7 0 4.211-2.85 7.211t-7.15 3H390Zm90 694q-60 0-111.42-22.007-51.419-22.007-89.993-60.58-38.573-38.574-60.58-89.993Q196-372 196-432t22.007-111.42q22.007-51.419 60.58-89.993 38.574-38.573 89.993-60.58Q420-716 479.56-716q53.28 0 103.36 20.5T673-640l29.282-29.282Q706-673 708.5-673t7.5 5q5 5 5 7t-5 7l-28 29q35 39 55.5 89.308Q764-485.384 764-431.856 764-372 741.993-320.58q-22.007 51.419-60.58 89.993-38.574 38.573-89.993 60.58Q540-148 480-148Zm0-20q110 0 187-77t77-187q0-110-77-187t-187-77q-110 0-187 77t-77 187q0 110 77 187t187 77Zm0-264Z"/></svg>