<svg xmlns="http://www.w3.org/2000/svg" height="24" viewBox="0 -960 960 960" width="24"><path d="M772.348-27q-19.565 0-32.065-2-12.5-2-24.065-6L61.217-244.564q-13.696-4.565-20.326-16.761-6.63-12.195-2.065-25.891 4.565-13.696 17.26-20.261 12.696-6.565 26.392-2l125.043 40.304 15.739-48.521-124.608-40.304q-13.696-4.566-20.044-17.261-6.348-12.696-1.782-26.392 4.565-13.696 17.043-20.043 12.479-6.348 26.174-1.783l29.783 9.739v-134.609q0-15.956 8.478-28.848 8.478-12.891 22.87-19.587l195-85.696q10.261-4.565 21.152-6.978 10.892-2.413 22.153-2.413 40.217 0 63.478 34.022 23.261 34.022 8.87 72.978l-43.696 119.261 78.652-12.87q30.957-5.565 57.283 9.979 26.326 15.543 38.891 42.804l81.87 189.609 41.652 13.739q13.695 4.566 20.043 16.761 6.348 12.196 1.783 25.892-4.565 13.13-16.696 19.978-12.13 6.848-25.826 2.283l-101.174-32.304-16.174 48.521 127.348 40.739q7.435 2 16.783 3.5 9.347 1.5 19.782 1.5 34.304 0 62.391-28.37 28.087-28.369 28.087-62.673 0-26.305-10.435-47.391-10.434-21.087-33.869-36.087-11.696-7.131-16.196-20.327-4.5-13.195.065-25.891 4.566-13.696 16.761-20.044 12.196-6.348 24.327-.217 42.13 22.13 65.261 61.761 23.13 39.63 23.13 88.196 0 63.695-47.913 111.609Q836.044-27 772.348-27ZM543.522-161.477l16.174-49.521-270.957-86-15.174 48.521 269.957 87Zm36.391-114.826-42.478-100.87-135.26 43.479 177.738 57.391Zm-303.304-96.739q-8.261-13.566-10.044-32.022-1.783-18.457 3.783-33.587l38.173-109.478-65.695 32.435v131.347l33.783 11.305Zm223.74-335.436q-36.392 0-62.435-26.326-26.044-26.326-26.044-62.718 0-36.391 26.044-62.435 26.043-26.043 62.435-26.043 36.391 0 62.435 26.043 26.044 26.044 26.044 62.435 0 36.392-26.044 62.718t-62.435 26.326Z"/></svg>