<svg xmlns="http://www.w3.org/2000/svg" height="20" viewBox="0 -960 960 960" width="20"><path d="M774.348-35q-11.565 0-22.565-1.5-11-1.5-22.565-5.5L64.217-255.564q-10.696-3.565-16.326-13.761-5.63-10.195-2.065-21.891 3.565-10.696 13.76-15.761 10.196-5.065 20.892-1.5l124.043 40.304 19.739-60.521-123.608-40.304q-10.696-3.566-16.044-13.761-5.348-10.196-1.782-21.892 3.565-10.696 14.043-16.043 10.479-5.348 21.174-1.783l39.783 12.739v-136.609q0-14.956 7.978-26.848 7.978-11.891 21.37-18.587l189-82.696q9.261-3.565 19.652-6.478 10.392-2.913 20.653-2.913 43.217 0 66.978 33.522 23.761 33.522 9.37 72.478l-39.696 112.261 93.652-16.87q20.957-3.565 37.283 6.979 16.326 10.543 23.891 27.804l91.87 210.609 61.652 20.739q11.695 3.566 17.043 13.761 5.348 10.196 1.783 21.892-3.565 11.13-13.696 15.978-10.13 4.848-21.826 1.283l-111.174-35.304-19.174 60.521 131.348 41.739q7.435 2 14.783 3.5 7.347 1.5 14.782 1.5 37.304 0 64.891-26.87 27.587-26.869 27.587-64.173 0-24.305-12.435-44.891-12.434-20.587-33.869-33.587-9.696-6.131-12.696-16.827-3-10.695.565-21.391 3.566-11.696 13.761-17.544 10.196-5.848 19.327.283 37.13 19.13 59.261 55.261 22.13 36.13 22.13 77.696 0 61.695-43.913 105.109Q836.044-35 774.348-35ZM560.522-155.477l19.174-59.521-300.957-97-19.174 60.521 300.957 96Zm24.391-117.826-48.478-116.87-143.26 54.479 191.738 62.391Zm-292.304-93.739q-14.261-14.566-17.544-36.022-3.283-21.457 2.283-39.587l35.173-108.478-69.695 34.435v133.347l49.783 16.305Zm207.74-337.436q-38.392 0-65.435-27.326-27.044-27.326-27.044-65.718 0-38.391 27.044-65.435 27.043-27.043 65.435-27.043 38.391 0 65.435 27.043 27.044 27.044 27.044 65.435 0 38.392-27.044 65.718t-65.435 27.326Z"/></svg>