<svg xmlns="http://www.w3.org/2000/svg" height="24" viewBox="0 -960 960 960" width="24"><path d="M340.717-36.413q-18.956 0-45.293-19.478-26.337-19.479-42.682-39.916l-97.046-124.671 52.5-42.544 46.239 59 110.935-78.13 62.565-317.587-66.022 25.848v137.478H274.5v-194.978l169.783-70.196q32-13.761 47.333-17.88 15.334-4.12 28.623-4.12 22.034 0 40.396 11.46 18.361 11.461 30.952 30.214l40.478 63.239q25.761 40.283 70.142 67.685 44.38 27.402 102.097 27.402v87.174q-66.717 0-124.337-26.924-57.619-26.924-97.097-70.25l-22.087 111.63 83.521 79.761v237.892q13.566-1.24 25.75-5.12 12.185-3.88 22.989-9.924 4.24-2.239 8.158-3.239 3.919-1 8.397-1 15.674 0 25.19 10.576 9.516 10.576 9.516 22.891 0 8.957-3.858 16.234-3.859 7.277-12.816 12.995-20.478 12.478-43.439 18.478-22.961 6-48.474 6H477.13v-67.174h80v-175.739l-78.5-74.5-33.608 123.022-135.804 96.521 2.521 3.283q8.126 10.565 18.509 17.609 10.382 7.043 23.904 12.043 10.196 5.24 15.674 11.516 5.478 6.278 5.478 18.832 0 14.504-10.041 24.546-10.041 10.041-24.546 10.041Zm242.838-707.174q-34.466 0-59.011-24.696Q500-792.978 500-827.445q0-34.466 24.544-59.011Q549.089-911 583.555-911q34.467 0 59.163 24.544 24.695 24.545 24.695 59.011 0 34.467-24.695 59.162-24.696 24.696-59.163 24.696Z"/></svg>