<svg xmlns="http://www.w3.org/2000/svg" height="24" viewBox="0 -960 960 960" width="24"><path d="M343.846-51.538q-16.461 0-36.192-13.616-19.731-13.615-40.346-39.769l-88.077-112.769L207-239.539l50.615 64.385 129.616-93.308 71.692-369.615-118.154 48.769V-460h-40v-155.923l151.923-62.846q29.693-12.462 43.154-16.462 13.462-4 24.923-4 15.616 0 28.885 7.923 13.269 7.923 22.192 22.077l39.231 63q26 41.769 70.115 70.539 44.116 28.769 99.577 34.153v40.001q-62.923-4.616-117.346-38.385t-92.654-94.923l-35.538 180.769L620.769-331v243.308q29.616-.231 44.269-2.693 14.654-2.461 33.577-11.769 5.539-2.769 9.808-4.923t7.5-2.154q7.077 0 12.115 5.269 5.039 5.27 5.039 11.654 0 6.462-3.885 11.423-3.884 4.962-11.115 8.424-20.769 11.23-40.962 15.692-20.192 4.461-47.5 4.461H493.077v-35.384h87.692v-199.462L464.462-398.692l-36 151.307L283-143.461l15.308 20.922q11.307 15.847 23.192 23.462t26.654 12.615q5.923 2.693 9.385 7.039Q361-75.077 361-69.461q0 6.846-5.154 12.384-5.154 5.539-12 5.539Zm236.923-700.77q-27.615 0-47.654-20.038-20.038-20.039-20.038-47.654 0-27.615 20.038-47.654 20.039-20.038 47.654-20.038 27.616 0 47.654 20.038 20.039 20.039 20.039 47.654 0 27.615-20.039 47.654-20.038 20.038-47.654 20.038Z"/></svg>