<svg xmlns="http://www.w3.org/2000/svg" height="20" viewBox="0 -960 960 960" width="20"><path d="M479.231-161.538q-47.77 0-85.077-34.846-37.308-34.846-36-75.769-41.924 22.384-88 7.423-46.077-14.962-69.231-59.347-21.616-42.077-8.616-88.077T246.769-480q-43-22.615-55.616-70.539-12.615-47.923 11.308-90 23.923-42.077 70.385-56.654 46.461-14.577 86.846 7.808-1.308-42.462 36-76.539Q433-800 480.769-800q47.77 0 85.077 34.076 37.308 34.077 36 76.539 38.847-22.385 86.077-6.654 47.231 15.731 69.616 55.5 23.923 40.539 10.538 89.616-13.384 49.077-54.846 70.923 41.462 21.846 54.077 68.616 12.616 46.769-11.308 87.307-23.153 41.308-69.615 57.808-46.462 16.5-86.077-5.884 1.308 40.923-36 75.769-37.308 34.846-85.077 34.846ZM480-361.231q49.846 0 84.308-34.461 34.461-34.462 34.461-84.308 0-49.846-34.461-84.308-34.462-34.461-84.308-34.461-49.846 0-84.308 34.461-34.461 34.462-34.461 84.308 0 49.846 34.461 84.308 34.462 34.461 84.308 34.461Z"/></svg>