<svg xmlns="http://www.w3.org/2000/svg" height="24" viewBox="0 -960 960 960" width="24"><path d="M480-152.109q-85.283 0-145.391-60.108Q274.5-272.326 274.5-357.609q0-73.717 45.5-129.293 45.5-55.576 114.5-71.011v-156.174L372.413-653l-63.892-63.891L480-888.131l171.479 171.24L587.587-652 525.5-714.087v156.174q69 15.435 114.5 71.011 45.5 55.576 45.5 129.293 0 85.283-60.109 145.392Q565.283-152.109 480-152.109Zm0-91q47.848 0 81.174-33.326 33.326-33.326 33.326-81.174 0-47.847-33.326-81.173-33.326-33.327-81.174-33.327-47.848 0-81.174 33.327-33.326 33.326-33.326 81.173 0 47.848 33.326 81.174 33.326 33.326 81.174 33.326Zm0-114.5Z"/></svg>