<svg xmlns="http://www.w3.org/2000/svg" height="20" viewBox="0 -960 960 960" width="20"><path d="M435.231-452.615v116.584q0 6.852 4.52 11.442Q444.271-320 451.02-320q6.749 0 11.48-4.589 4.731-4.59 4.731-11.442v-116.584l107 62.692q6.077 4.154 12 1.577T596.308-397q4.154-6.077 2.461-11.615-1.692-5.539-7.769-9.693L483.231-480 591-541.692q6.077-4.154 7.769-9.693 1.693-5.538-2.461-12.115t-10.686-8.654q-6.532-2.077-12.391 2.077l-106 62.692v-116.584q0-6.852-4.52-11.442Q458.19-640 451.441-640t-11.48 4.589q-4.73 4.59-4.73 11.442v116.584L329-570.077q-6.077-4.154-12-1.577T306.923-563q-4.154 6.077-2.462 11.615 1.693 5.539 7.77 9.693L419.23-480l-106.999 61.692q-6.077 4.154-7.77 9.693-1.692 5.538 2.462 12.115t10.686 8.654q6.531 2.077 12.391-2.077l105.231-62.692ZM259.846-232q-23.616 0-40.116-16.5t-16.5-40.115v-382.77q0-24.315 16.5-40.465Q236.23-728 259.846-728h382.769q24.316 0 40.466 16.15 16.15 16.15 16.15 40.465v174.154l80.692-80.692q5.693-5.693 15.27-2.68 9.577 3.013 9.577 11.603v177.877q0 9.046-9.577 11.893-9.577 2.846-15.27-2.847l-80.692-80.692v174.154q0 23.615-16.15 40.115-16.15 16.5-40.466 16.5H259.846Zm0-32h382.769q10.77 0 17.693-6.923 6.923-6.923 6.923-17.692v-382.77q0-10.769-6.923-17.692T642.615-696H259.846q-10.769 0-17.692 6.923t-6.923 17.692v382.77q0 10.769 6.923 17.692T259.846-264Zm-24.615 0v-432 432Z"/></svg>