<svg xmlns="http://www.w3.org/2000/svg" height="24" viewBox="0 -960 960 960" width="24"><path d="M411-456v136q0 5.95 4.035 9.975 4.035 4.025 10 4.025t9.965-4.025q4-4.025 4-9.975v-136l125 72q5 3 10.667 1.556 5.666-1.445 8.5-6.5 2.833-5.056 1.268-10.69Q582.87-405.268 578-408l-125-72 125-72q4.87-2.732 6.435-8.366 1.565-5.634-1.268-10.69-2.834-5.055-8.5-6.5Q569-579 564-576l-125 72v-136q0-5.95-4.035-9.975-4.035-4.025-10-4.025T415-649.975q-4 4.025-4 9.975v136l-124-72q-5-3-10.667-1.556-5.666 1.445-8.5 6.5-2.833 5.056-1.268 10.69Q268.13-554.732 273-552l124 72-124 72q-4.87 2.732-6.435 8.366-1.565 5.634 1.268 10.69 2.834 5.055 8.5 6.5Q282-381 287-384l124-72ZM217-212q-26 0-43-17t-17-43v-416q0-26 17-43t43-17h416q26 0 43 17t17 43v188l84.309-84.309Q784-591 793.5-587.458 803-583.917 803-574v188q0 9.917-9.5 13.458-9.5 3.542-16.191-3.149L693-460v188q0 26-17 43t-43 17H217Z"/></svg>