<svg xmlns="http://www.w3.org/2000/svg" height="24" viewBox="0 -960 960 960" width="24"><path d="m480-455.348 62.999 38.087q14.957 9.261 29.349-1.065 14.391-10.326 10.261-27.283L566-517.348l56.13-48.825q13.391-11.826 7.978-28.283t-23.37-18.022l-73.583-5.8-28.937-67.938q-6.732-16.522-24.236-16.522t-24.2 16.522l-28.937 67.938-73.583 5.8q-17.957 1.565-23.37 18.022-5.413 16.457 7.978 28.283L394-517.348l-16.609 71.739q-4.13 16.957 10.261 27.283 14.392 10.326 29.349 1.065L480-455.348ZM220.782-220.782l-69.391 69.391q-25.217 25.217-57.913 11.502-32.696-13.714-32.696-48.981v-604.347q0-44.305 30.848-75.153 30.848-30.848 75.153-30.848h626.434q44.305 0 75.153 30.848 30.848 30.848 30.848 75.153v466.434q0 44.305-30.848 75.153-30.848 30.848-75.153 30.848H220.782Zm-34-106.001h606.435v-466.434H166.783v485.998l19.999-19.564Zm-19.999 0v-466.434 466.434Z"/></svg>