<svg xmlns="http://www.w3.org/2000/svg" height="20" viewBox="0 -960 960 960" width="20"><path d="M166.308-164q2.307 7.692 12.807-60.385t30.308-152.307q19.808-84.231 49.423-155.77Q288.461-604 330-604q46.769 0 79.885 93.346 33.115 93.346 61.5 220.192 8.23-96.154 21.73-187t32.616-161.154q19.115-70.307 45.346-113.846Q597.308-796 630-796q54.308 0 87.077 100.385 32.769 100.384 50.346 220.23Q785-355.538 790.115-257.461q5.116 98.076 5.116 93.461h-35.077q-16.308-71.308-56.923-143.654Q662.615-380 630-380q-33.615 0-72.577 69.692Q518.462-240.615 499.846-164h-38.154q-12.846-86.538-30.307-161.461-17.462-74.923-35.654-130.462-18.193-55.538-35.731-86.654-17.538-31.115-30-30.269-13.231-.846-30.385 30.654-17.153 31.5-35.846 87.038-18.692 55.539-35.654 130.462Q211.154-249.769 198.308-164h-32Zm333.385-96.231q26.923-70.077 61.038-110.923Q594.846-412 630-412t69.654 41.23q34.5 41.231 60.653 110.539-17-217.462-54.115-358.731T630-763.538q-38.308 3.307-75.808 144.961-37.499 141.654-54.499 358.346Z"/></svg>