<svg xmlns="http://www.w3.org/2000/svg" height="20" viewBox="0 -960 960 960" width="20"><path d="m144-144 10.5-75q10.5-75 33-165T245-549q35-75 85-75 46 0 79.5 64.5T466-412q9-70 22.5-142t33-130q19.5-58 46.5-95t62-37q62 0 99 105t56.5 231q19.5 126 25 231l5.5 105h-72q-14-69-50-142.5T630-360q-29 0-64.5 72T516-144h-72q-9-75-23-143t-29.5-122Q376-463 360-499.5T330-549q-14 13-30 49.5T268-409q-16 54-29.5 122T216-144h-72Zm388-227q20-27 44.5-44t53.5-17q29 0 53.5 17t44.5 44q-17-149-44.5-249.5T630-742q-26 21-53.5 121.5T532-371Z"/></svg>