<svg xmlns="http://www.w3.org/2000/svg" height="24" viewBox="0 -960 960 960" width="24"><path d="M63-66q18-150 42-266.5t54-197Q189-610 224.5-652t77.5-42q47 0 89.5 57T458-491q15-97 35.5-172t46-126.5q25.5-51.5 55.5-78t63-26.5q50 0 90 54t70 159q30 105 50 259.5T897-66H774q-14-90-52.5-175T658-337q-25 11-64 96T541-66H419q-7-64-21-138.5t-30.5-142Q351-414 334-467t-32-75q-15 21-32 74t-33 120.5q-16 67.5-29.5 142T186-66H63Zm513-365q17-14 39-23t43-9q20 0 42 8t38 24q-12-96-34.5-188.5T658-747q-24 36-47 128.5T576-431Z"/></svg>