<svg xmlns="http://www.w3.org/2000/svg" height="20" viewBox="0 -960 960 960" width="20"><path d="M791.912-480 636.391-634.391q-15.522-15.522-14.957-35.109.565-19.587 15.522-34.544 15.522-14.957 34.827-14.957 19.304 0 34.599 15.295l189.097 189.097q6.695 7.096 10.609 16.222 3.913 9.126 3.913 18.587t-3.913 18.587q-3.914 9.126-10.609 15.822L706.382-256.295Q691.087-240.999 672-241.782q-19.087-.783-34.044-15.174-15.522-14.957-15.805-34.544-.282-19.587 15.24-35.109L791.912-480Zm-622.694 0L324.74-325.044q14.956 15.522 14.674 34.827-.283 19.304-15.412 34.433-14.784 14.785-34.372 14.785-19.587 0-34.882-15.296L65.087-445.391q-6.696-7.096-10.61-16.222-3.912-9.126-3.912-18.587t3.913-18.587q3.913-9.126 10.608-15.822l189.662-189.097q15.295-15.295 34.882-15.012 19.588.283 34.544 14.674 15.522 14.957 15.522 34.544 0 19.587-14.956 35.109L169.218-480Zm161.2 40.522q-16.896 0-28.809-11.59-11.913-11.589-11.913-28.721 0-17.133 11.589-28.933 11.59-11.8 28.722-11.8 16.892 0 28.53 11.59 11.637 11.589 11.637 28.721 0 17.133-11.429 28.933-11.43 11.8-28.327 11.8Zm149.793 0q-17.133 0-28.933-11.59-11.8-11.589-11.8-28.721 0-17.133 11.59-28.933 11.589-11.8 28.721-11.8 17.133 0 28.933 11.59 11.8 11.589 11.8 28.721 0 17.133-11.59 28.933-11.589 11.8-28.721 11.8Zm149.782 0q-16.892 0-28.53-11.59-11.637-11.589-11.637-28.721 0-17.133 11.429-28.933 11.43-11.8 28.327-11.8 16.896 0 28.809 11.59 11.913 11.589 11.913 28.721 0 17.133-11.589 28.933-11.59 11.8-28.722 11.8Z"/></svg>