<svg xmlns="http://www.w3.org/2000/svg" height="20" viewBox="0 -960 960 960" width="20"><path d="m246-480 94 94q11 11 11 25.5T340.478-335Q329-324 314.5-324q-14.5 0-25.785-11.285l-119.43-119.43Q158-466 158-480.182q0-14.182 11-24.818l119.691-119.691Q300-636 314.5-636q14.5 0 25.978 11Q351-614 351-599.5T340-574l-94 94Zm-54 192h72v48h432v-48h72v168q0 29.7-21.15 50.85Q725.7-48 696-48H264q-29.7 0-50.85-21.15Q192-90.3 192-120v-168Zm72-384h-72v-168q0-29.7 21.15-50.85Q234.3-912 264-912h432q29.7 0 50.85 21.15Q768-869.7 768-840v168h-72v-48H264v48Zm450 192-94-94q-11-11-11-25.5t10.522-25.5Q631-636 645.5-636q14.5 0 25.785 11.285l119.43 119.43Q802-494 802-479.818q0 14.182-11 24.818L671.309-335.309Q660-324 646-324.5q-14-.5-25.478-11.5Q610-347 610-361.5t11.345-25.845L714-480Z"/></svg>