<svg xmlns="http://www.w3.org/2000/svg" height="20" viewBox="0 -960 960 960" width="20"><path d="M576.212-386Q596-386 609-399.212q13-13.213 13-33Q622-452 608.85-465 595.7-478 576-478q-11.151 0-20.387 5T539-460l-159-78.821q1-2.179 1.5-6.179t.5-7q0-3-.5-7.5t-1.5-6.679L538-644q7.377 8 17.113 13T576-626q19.7 0 32.85-13.212 13.15-13.213 13.15-33Q622-692 608.788-705q-13.213-13-33-13Q556-718 543-704.793q-13 13.208-13 32.988 0 2.805.5 6.805.5 4 1.5 7.179L374-580q-7.377-8-17.113-13T336-598q-19.7 0-32.85 13.212-13.15 13.213-13.15 33Q290-532 303.15-519q13.15 13 32.85 13 11.151 0 20.887-5.5T374-525l158 78.821Q531-443 530.5-439t-.5 6.805q0 19.78 13.212 32.988 13.213 13.207 33 13.207ZM148-196v-616h664v520H244l-96 96Zm88-116h556v-480H168v549l68-69Zm-68 0v-480 480Z"/></svg>