<svg xmlns="http://www.w3.org/2000/svg" height="24" viewBox="0 -960 960 960" width="24"><path d="M444.522-100.782H206.783q-44.305 0-75.153-30.848-30.848-30.848-30.848-75.153v-546.434q0-44.305 30.848-75.153 30.848-30.848 75.153-30.848h237.739v758.436ZM338.521-206.783v-546.434H206.783v546.434h131.738Zm176.957-308.695v-343.74h237.739q44.305 0 75.153 30.848 30.848 30.848 30.848 75.153v237.739h-343.74Zm106.001-106.001h131.738v-131.738H621.479v131.738ZM515.478-100.782v-343.74h343.74v237.739q0 44.305-30.848 75.153-30.848 30.848-75.153 30.848H515.478Zm106.001-106.001h131.738v-131.738H621.479v131.738ZM338.521-480Zm282.958-141.479Zm0 282.958Z"/></svg>