<svg xmlns="http://www.w3.org/2000/svg" height="24" viewBox="0 -960 960 960" width="24"><path d="M440-160H224.615Q197-160 178.5-178.5 160-197 160-224.615v-510.77Q160-763 178.5-781.5 197-800 224.615-800H440v640Zm-40-40v-560H224.615q-10.769 0-17.692 6.923T200-735.385v510.77q0 10.769 6.923 17.692T224.615-200H400Zm120-320v-280h215.385Q763-800 781.5-781.5 800-763 800-735.385V-520H520Zm40-40h200v-175.385q0-10.769-6.923-17.692T735.385-760H560v200Zm-40 400v-280h280v215.385Q800-197 781.5-178.5 763-160 735.385-160H520Zm40-40h175.385q10.769 0 17.692-6.923T760-224.615V-400H560v200ZM400-480Zm160-80Zm0 160Z"/></svg>