<svg xmlns="http://www.w3.org/2000/svg" height="24" viewBox="0 -960 960 960" width="24"><path d="M166-520q-24.75 0-42.375-17.625T106-580v-134q0-24.75 17.625-42.375T166-774h324q12.75 0 21.375 8.625T520-744v194q0 12.75-8.625 21.375T490-520H166Zm0 334q-24.75 0-42.375-17.625T106-246v-134q0-24.75 17.625-42.375T166-440h404q12.75 0 21.375 8.625T600-410v194q0 12.75-8.625 21.375T570-186H166Zm514-334h-50q-12.75 0-21.375-8.625T600-550v-194q0-12.75 8.625-21.375T630-774h168q15.867 0 24.933 13Q832-748 826-733l-64 165h33q16 0 25 13.5t3 28.5L709-196q-2.25 6.154-7.125 8.077T692-187q-5-1-8.5-5t-3.5-10v-318ZM263-647q0-13-8.5-21.5T233-677q-13 0-21.5 8.5T203-647q0 13 8.5 21.5T233-617q13 0 21.5-8.5T263-647Zm-30 364q13 0 21.5-8.5T263-313q0-13-8.5-21.5T233-343q-13 0-21.5 8.5T203-313q0 13 8.5 21.5T233-283Z"/></svg>