<svg xmlns="http://www.w3.org/2000/svg" height="24" viewBox="0 -960 960 960" width="24"><path d="M164.615-520q-26.654 0-45.634-18.981Q100-557.962 100-584.615v-130.77q0-26.654 18.981-45.634Q137.961-780 164.615-780h323.077q13.731 0 23.02 9.288 9.288 9.289 9.288 23.02v195.384q0 13.731-9.288 23.02-9.289 9.288-23.02 9.288H164.615Zm0-40H480v-180H164.615q-10.769 0-17.692 6.923T140-715.385v130.77q0 10.769 6.923 17.692T164.615-560Zm0 380q-26.654 0-45.634-18.981Q100-217.961 100-244.615v-130.77q0-26.653 18.981-45.634Q137.961-440 164.615-440h403.077q13.731 0 23.02 9.288 9.288 9.289 9.288 23.02v195.384q0 13.731-9.288 23.02-9.289 9.288-23.02 9.288H164.615Zm0-40H560v-180H164.615q-10.769 0-17.692 6.923T140-375.385v130.77q0 10.769 6.923 17.692T164.615-220ZM680-520h-47.692q-13.731 0-23.02-9.288-9.288-9.289-9.288-23.02v-195.384q0-13.731 9.288-23.02 9.289-9.288 23.02-9.288h171q17.051 0 26.795 14.038 9.743 14.039 3.282 30.193l-62.616 160.384h29.539q17.384 0 26.846 14.654t3 30.808l-119.077 339q-2.538 6.242-7.615 8.582-5.077 2.341-10.539 1.11-5.461-1.23-9.192-5.376Q680-190.752 680-197.385V-520Zm-540-40V-740v180Zm0 340V-400v180Zm120-430q0-13-8.5-21.5T230-680q-13 0-21.5 8.5T200-650q0 13 8.5 21.5T230-620q13 0 21.5-8.5T260-650Zm-30 370q13 0 21.5-8.5T260-310q0-13-8.5-21.5T230-340q-13 0-21.5 8.5T200-310q0 13 8.5 21.5T230-280Z"/></svg>