<svg xmlns="http://www.w3.org/2000/svg" height="24" viewBox="0 -960 960 960" width="24"><path d="M224.615-160q-26.846 0-45.731-18.884Q160-197.769 160-224.615v-510.77q0-26.846 18.884-45.731Q197.769-800 224.615-800h510.77q26.846 0 45.731 18.884Q800-762.231 800-735.385v510.77q0 26.846-18.884 45.731Q762.231-160 735.385-160h-510.77ZM427-548.461l57.385 57.384q9.692 9.693 22.615 9.693 12.923 0 22.615-9.693l138.539-139.538q5.615-5.616 5.615-13.385t-5.615-13.385q-5.846-5.846-13.885-6.115-8.038-.269-13.654 5.346L507-524.539l-57.385-57.384q-9.692-9.693-22.615-9.693-12.923 0-22.615 9.693l-111.77 111.769Q287-464.539 287-456.385t5.615 13.77q5.846 5.846 13.5 6.115 7.654.269 13.27-5.346L427-548.461ZM292.846-320 200-227.154V-200h22.462l120-120h-49.616Zm148 0-120 120h49.616l120-120h-49.616Zm145.923 0-120 120h49.616l120-120h-49.616Zm146.154 0-120 120h49.616L760-297.461V-320h-27.077Z"/></svg>