<svg xmlns="http://www.w3.org/2000/svg" height="24" viewBox="0 -960 960 960" width="24"><path d="M800-300.769 524.385-516.077q-21.616-17.154-48.577-13.423-26.962 3.73-43.116 26.346L332.077-364.385q-8.462 11.692-21.885 13.423-13.423 1.731-24.346-6.961L160-457.693v-77.692q0-20.385 17.769-29.077t33.923 3.231l77.539 58.154 158.692-223.308q16.154-22.615 44-26.461 27.846-3.847 49.462 13.538L666.154-640h69.231q26.846 0 45.731 18.884Q800-602.231 800-575.385v274.616ZM160-200v-208.462L267.308-322q21.615 17.385 48.961 13.538 27.346-3.846 43.5-26.461l100.846-138.231q8.462-11.692 21.5-13.423 13.039-1.731 23.962 6.962L800-250.538V-200H160Z"/></svg>