<svg xmlns="http://www.w3.org/2000/svg" height="24" viewBox="0 -960 960 960" width="24"><path d="M362.826-308.304q-22.13 0-36.913-14.783Q311.13-337.87 311.13-360q0-22.13 14.783-36.913 14.783-14.783 36.913-14.783 22.131 0 36.913 14.783Q414.522-382.13 414.522-360q0 22.13-14.783 36.913-14.782 14.783-36.913 14.783Zm234.348 0q-22.131 0-36.913-14.783Q545.478-337.87 545.478-360q0-22.13 14.783-36.913 14.782-14.783 36.913-14.783 22.13 0 36.913 14.783Q648.87-382.13 648.87-360q0 22.13-14.783 36.913-14.783 14.783-36.913 14.783ZM480-86.783q130.609 0 222.195-90.7 91.587-90.7 91.587-221.387 0-24-3-45.666-3-21.666-11-42.073-21 5-41.152 7.5t-43.152 2.5q-89.304 0-168.326-38.152-79.022-38.152-135.456-107.021-30.87 75.739-89.239 131.826-58.37 56.086-135.109 85.086v6q0 130.687 91.022 221.387 91.021 90.7 221.63 90.7ZM426-715q42 70 114 112.5T700-560q14 0 27-1.5t27-3.5q-42-70-114-112.5T480-720q-14 0-27 1.5t-27 3.5ZM177-501q51-29 89-75t57-103q-51 29-89 75t-57 103Zm249-214Zm-103 36Zm-207.87 75.043q28.565-50.739 69.369-91.826 40.805-41.087 91.544-69.652-16.113-18.727-38.861-30.32-22.748-11.593-49.487-11.593-48.337 0-81.69 33.353-33.353 33.353-33.353 81.69 0 26.739 11.587 49.609 11.587 22.869 30.891 38.739ZM480.565 19.218q-86.892 0-163.316-32.913-76.423-32.913-133.25-89.739-56.826-56.826-89.739-133.25Q61.347-313.107 61.347-400q0-32.513 4.848-64.465 4.848-31.952 14.543-61.101-41.87-26.565-66.956-70.186-25.087-43.62-25.087-96.553 0-83 58-141t141-58q51.87 0 95.804 24.652 43.935 24.652 70.935 66.826 29.187-9.696 61.181-14.543 31.994-4.848 64.95-4.848 86.688 0 162.931 32.913 76.244 32.913 133.07 89.739 56.826 56.826 89.739 133.265 32.913 76.438 32.913 163.348 0 86.91-32.913 163.301-32.913 76.392-89.739 133.218-56.826 56.826-133.07 89.74-76.243 32.912-162.931 32.912ZM183.999-696Z"/></svg>