<svg xmlns="http://www.w3.org/2000/svg" height="24" viewBox="0 -960 960 960" width="24"><path d="M360-310q-21 0-35.5-14.5T310-360q0-21 14.5-35.5T360-410q21 0 35.5 14.5T410-360q0 21-14.5 35.5T360-310Zm240 0q-21 0-35.5-14.5T550-360q0-21 14.5-35.5T600-410q21 0 35.5 14.5T650-360q0 21-14.5 35.5T600-310ZM480-80q134 0 227-93t93-227q0-24-3-46.5T786-490q-21 5-42 7.5t-44 2.5q-91 0-172-39T390-628q-32 78-91.5 135.5T160-406v6q0 134 93 227t227 93Zm.134 40q-74.673 0-140.41-28.35T225.359-145.3q-48.627-48.6-76.993-114.3Q120-325.3 120-400q0-15.771 1.307-31.27 1.308-15.499 4.693-29.961-46.846-25.231-74.885-71.406-28.038-46.176-28.038-102.209 0-83 58-141t141-58q50.703 0 93.274 23.576 42.572 23.577 69.572 63.193 22.923-6.462 46.835-9.692Q455.669-760 480-760q74.7 0 140.4 28.339 65.7 28.34 114.3 76.922 48.6 48.582 76.95 114.257Q840-474.806 840-400.134q0 74.673-28.339 140.41-28.34 65.737-76.922 114.365-48.582 48.627-114.257 76.993Q554.806-40 480.134-40Z"/></svg>