<svg xmlns="http://www.w3.org/2000/svg" height="20" viewBox="0 -960 960 960" width="20"><path d="M479.784-697.913q-36.219 0-61.795-25.792t-25.576-62.011q0-36.219 25.792-61.795t62.011-25.576q36.219 0 61.795 25.792t25.576 62.011q0 36.219-25.792 61.795t-62.011 25.576ZM355.696-105.37v-461.326q-54.533-3.904-107.549-15.713-53.017-11.808-107.495-26.287l19.913-73.456q78.957 21.478 158.815 32.858 79.859 11.381 160.62 11.381 80.761 0 160.739-11.381 79.978-11.38 159.174-32.858l19.674 73.456q-54.957 14-107.739 26-52.783 12-107.544 16.432v460.894H525.13l-9-224.63h-71.26l-10 224.63h-79.174Z"/></svg>