<svg xmlns="http://www.w3.org/2000/svg" height="24" viewBox="0 -960 960 960" width="24"><path d="M480-723.846q-30.692 0-52.269-21.577-21.577-21.577-21.577-52.269 0-30.692 21.577-52.269 21.577-21.577 52.269-21.577 30.692 0 52.269 21.577 21.577 21.577 21.577 52.269 0 30.692-21.577 52.269-21.577 21.577-52.269 21.577ZM376.155-90.001v-521.538q-61.154-5-121.615-14.423-60.462-9.423-114.539-23.269l14.615-59.999q76.847 19.846 159.269 28.769 82.423 8.923 166.115 8.923 83.692 0 166.115-8.923 82.422-8.923 159.269-28.769l14.615 59.999q-54.077 13.846-114.539 23.269-60.461 9.423-121.615 14.423v521.538h-59.999v-244.615h-87.692v244.615h-59.999Z"/></svg>