<svg xmlns="http://www.w3.org/2000/svg" height="24" viewBox="0 -960 960 960" width="24"><path d="M240-240h140q8.5 0 14.25 5.758 5.75 5.757 5.75 14.269 0 8.511-5.75 14.242Q388.5-200 380-200H232.308q-13.731 0-23.02-9.288-9.288-9.289-9.288-23.02V-380q0-8.5 5.758-14.25t14.269-5.75q8.512 0 14.242 5.75Q240-388.5 240-380v140Zm0-480v140q0 8.5-5.758 14.25-5.757 5.75-14.269 5.75-8.511 0-14.242-5.75Q200-571.5 200-580v-147.692q0-13.731 9.288-23.02 9.289-9.288 23.02-9.288H380q8.5 0 14.25 5.758t5.75 14.269q0 8.512-5.75 14.242Q388.5-720 380-720H240Zm480 0H580q-8.5 0-14.25-5.758-5.75-5.757-5.75-14.269 0-8.511 5.75-14.242Q571.5-760 580-760h147.692q13.731 0 23.02 9.288 9.288 9.289 9.288 23.02V-580q0 8.5-5.758 14.25T739.973-560q-8.512 0-14.242-5.75Q720-571.5 720-580v-140Zm-40 480h-80q-8.5 0-14.25-5.758-5.75-5.757-5.75-14.269 0-8.511 5.75-14.242Q591.5-280 600-280h80v-80q0-8.5 5.758-14.25t14.269-5.75q8.512 0 14.242 5.75Q720-368.5 720-360v80h80q8.5 0 14.25 5.758t5.75 14.269q0 8.512-5.75 14.242Q808.5-240 800-240h-80v80q0 8.5-5.758 14.25-5.757 5.75-14.269 5.75-8.511 0-14.242-5.75Q680-151.5 680-160v-80Z"/></svg>