<svg xmlns="http://www.w3.org/2000/svg" height="24" viewBox="0 -960 960 960" width="24"><path d="M760-140q-35.923 0-63.462-22.5Q669-185 662.385-220H440q-58.308 0-99.154-40.846T300-360q0-58.308 40.846-99.154T440-500h80q41.25 0 70.625-29.419T620-600.15q0-41.311-29.375-70.581Q561.25-700 520-700H297.615q-6.846 35-34.269 57.5T200-620q-41.667 0-70.833-29.14Q100-678.281 100-719.909q0-41.63 29.167-70.86Q158.333-820 200-820q35.923 0 63.346 22.5 27.423 22.5 34.269 57.5H520q58.308 0 99.154 40.846T660-600q0 58.308-40.846 99.154T520-460h-80q-41.25 0-70.625 29.419T340-359.85q0 41.311 29.375 70.581Q398.75-260 440-260h222.385q6.846-35 34.269-57.5T760-340q41.667 0 70.833 29.14Q860-281.72 860-240.09q0 41.629-29.167 70.859Q801.667-140 760-140ZM200-660q24.692 0 42.346-17.654Q260-695.308 260-720q0-24.692-17.654-42.346Q224.692-780 200-780q-24.692 0-42.346 17.654Q140-744.692 140-720q0 24.692 17.654 42.346Q175.308-660 200-660Z"/></svg>