<svg xmlns="http://www.w3.org/2000/svg" height="20" viewBox="0 -960 960 960" width="20"><path d="M744-126.477q-49.479 0-84.153-28.522-34.674-28.522-46.804-68.479H396q-56.865 0-96.694-39.911-39.828-39.91-39.828-96.891 0-56.981 39.828-96.611 39.829-39.631 96.694-39.631h120q32.785 0 56.131-23.455 23.347-23.454 23.347-56.391 0-32.936-23.347-56.023-23.346-23.087-56.131-23.087H346.957q-11.565 39.957-46.522 68.479-34.956 28.522-84.435 28.522-57.301 0-97.412-40.121-40.11-40.12-40.11-97.435 0-57.315 40.11-97.402 40.111-40.088 97.412-40.088 49.479 0 84.435 28.522 34.957 28.522 46.522 68.479H516q67.261 0 113.891 46.631 46.631 46.63 46.631 113.891t-46.631 113.891Q583.261-415.478 516-415.478H396q-22.489 0-38.984 16.266-16.494 16.267-16.494 39.109 0 22.842 16.494 39.212 16.495 16.369 38.984 16.369h217.043q11.565-39.957 46.522-68.479 34.956-28.522 84.435-28.522 57.301 0 97.412 40.121 40.111 40.12 40.111 97.435 0 57.315-40.111 97.402-40.111 40.088-97.412 40.088ZM216-648q20.4 0 34.2-13.8Q264-675.6 264-696q0-20.4-13.8-34.2Q236.4-744 216-744q-20.4 0-34.2 13.8Q168-716.4 168-696q0 20.4 13.8 34.2Q195.6-648 216-648Z"/></svg>