<svg xmlns="http://www.w3.org/2000/svg" height="24" viewBox="0 -960 960 960" width="24"><path d="M760-102.477q-47.479 0-82.153-27.022-34.674-27.022-47.804-65.979H440q-67.865 0-116.194-48.411-48.328-48.41-48.328-116.391 0-67.981 48.328-116.111Q372.135-524.522 440-524.522h80q31.135 0 53.306-22.207 22.172-22.207 22.172-53.391 0-31.184-22.172-53.271-22.171-22.087-53.306-22.087H329.957q-13.565 38.957-48.022 65.979-34.456 27.022-81.935 27.022-57.301 0-97.412-40.121-40.11-40.12-40.11-97.435 0-57.315 40.11-97.402 40.111-40.088 97.412-40.088 47.479 0 81.935 27.022 34.457 27.022 48.022 65.979H520q68.261 0 116.391 48.131 48.131 48.13 48.131 116.391t-48.131 116.391Q588.261-435.478 520-435.478h-80q-30.739 0-53.109 22.089-22.369 22.09-22.369 53.109 0 31.019 22.369 53.389 22.37 22.369 53.109 22.369h190.043q13.565-38.957 48.022-65.979 34.456-27.022 81.935-27.022 57.301 0 97.412 40.121 40.111 40.12 40.111 97.435 0 57.315-40.111 97.402-40.111 40.088-97.412 40.088ZM200-680q17 0 28.5-11.5T240-720q0-17-11.5-28.5T200-760q-17 0-28.5 11.5T160-720q0 17 11.5 28.5T200-680Z"/></svg>