<svg xmlns="http://www.w3.org/2000/svg" height="24" viewBox="0 -960 960 960" width="24"><path d="M480-67q-150.913 0-265.153-96.5Q100.608-260 73.304-408.479h108.001q26.869 103.174 109.478 169.326Q373.391-173.001 480-173.001q74.695 0 139.651-34.021 64.956-34.021 106.956-95.455h-96.216v-106.002h270.523v269.958H794.913v-75.478q-58.696 70.348-141 108.674Q571.609-66.999 480-66.999Zm0-293q-50 0-85-35t-35-85q0-50 35-85t85-35q50 0 85 35t35 85q0 50-35 85t-85 35ZM59.086-551.521v-269.958h106.001v75.478q58.696-70.348 141-108.674Q388.391-893.001 480-893.001q150.913 0 265.153 96.501Q859.392-700 886.696-551.521H778.695q-26.869-103.174-109.478-169.326Q586.609-786.999 480-786.999q-74.695 0-139.651 34.021-64.956 34.021-106.956 95.455h96.216v106.002H59.086Z"/></svg>