<svg xmlns="http://www.w3.org/2000/svg" height="24" viewBox="0 -960 960 960" width="24"><path d="M480-74.5q-146.348 0-258.141-92.75Q110.065-260 81.782-403.587h93.001q27.521 104.804 112.087 171.446Q371.435-165.5 480-165.5q81.217 0 151.391-38.913 70.174-38.913 112.174-108.174h-107.63v-91h252.913v252.674h-91V-229q-57.718 73.609-141 114.055Q573.565-74.5 480-74.5Zm0-285.5q-50 0-85-35t-35-85q0-50 35-85t85-35q50 0 85 35t35 85q0 50-35 85t-85 35ZM71.152-556.413v-252.674h91V-731q57.718-73.609 141-114.055Q386.435-885.5 480-885.5q146.348 0 258.141 92.75Q849.935-700 878.218-556.413h-93.001Q757.696-661.217 673.13-727.859 588.565-794.5 480-794.5q-81.217 0-151.391 38.913-70.174 38.913-112.174 108.174h107.63v91H71.152Z"/></svg>