<svg xmlns="http://www.w3.org/2000/svg" height="24" viewBox="0 -960 960 960" width="24"><path d="M480-90q-136.076 0-242.038-83.846-105.961-83.846-136.884-216.153h61.229q30.308 107.154 118.231 173.577T480-149.999q93.308 0 171.539-49.232 78.231-49.231 123.693-130.77H650.001v-59.998h219.998v219.998h-59.998v-103.078q-55.846 84.077-142.347 133.578-86.5 49.5-187.654 49.5Zm0-290.001q-41.922 0-70.961-29.038-29.038-29.039-29.038-70.961t29.038-70.961q29.039-29.038 70.961-29.038t70.961 29.038q29.038 29.039 29.038 70.961t-29.038 70.961Q521.922-380.001 480-380.001Zm-390-190v-219.998H150v103.078q55.846-84.077 142.347-133.578 86.5-49.5 187.654-49.5 136.076 0 242.038 83.845 105.961 83.846 136.884 216.153h-61.229q-30.308-107.154-118.231-173.577T480-810.001q-93.308 0-171.539 49.232-78.231 49.231-123.693 130.77h125.231v59.998H90.001Z"/></svg>