<svg xmlns="http://www.w3.org/2000/svg" height="20" viewBox="0 -960 960 960" width="20"><path d="M420.308-278.154h29.846v-119.384q18.654 0 31.711-13.058 13.058-13.058 13.058-31.712v-89.538h-29.846v89.538h-14.923v-89.538h-29.846v89.538h-14.923v-89.538h-29.847v89.538q0 18.654 13.058 31.712t31.712 13.058v119.384Zm131.384 0h29.847v-253.692q-24.616 0-42.154 17.534-17.539 17.535-17.539 42.158v89.539h29.846v104.461ZM232-184v-396l248-186.77L728-580v396H232Zm32-32h432v-348L480-726 264-564v348Zm216-255Z"/></svg>