<svg xmlns="http://www.w3.org/2000/svg" height="20" viewBox="0 -960 960 960" width="20"><path d="m436.065-37-19-354.543L290.391-474.5l-17.565 56.022 81.196 143.674-68.218 39.826-97.869-172.544 48.956-170.869 220.131-129.326L351.978-813 408-869.022l173.978 173.739-143.76 95.761 63.434 47.044 322.479-264.479 52.304 53.261-337.196 337.674L515-37h-78.935ZM231.869-622.087q-31.434 0-53.63-22.196-22.196-22.195-22.196-53.63 0-31.435 22.196-53.511 22.196-22.076 53.63-22.076 31.435 0 53.511 22.076 22.076 22.076 22.076 53.511 0 31.435-22.076 53.63-22.076 22.196-53.511 22.196Z"/></svg>