<svg xmlns="http://www.w3.org/2000/svg" height="20" viewBox="0 -960 960 960" width="20"><path d="M479.859-136q-112.936 0-192.398-79.536Q208-295.073 208-408h544q0 113.077-79.603 192.539Q592.794-136 479.859-136ZM234.98-466.154q-10.596 0-18.788-7.982T208-492.713q0-10.595 7.982-18.787 7.981-8.193 18.577-8.193 10.595 0 18.787 7.982 8.192 7.982 8.192 18.577 0 10.595-7.981 18.788-7.982 8.192-18.577 8.192Zm164.615 0q-10.595 0-18.787-7.982-8.193-7.982-8.193-18.577 0-10.595 7.982-18.787 7.982-8.193 18.577-8.193 10.595 0 18.787 7.982 8.193 7.982 8.193 18.577 0 10.595-7.982 18.788-7.982 8.192-18.577 8.192Zm161.231 0q-10.595 0-18.787-7.982-8.193-7.982-8.193-18.577 0-10.595 7.982-18.787 7.982-8.193 18.577-8.193 10.595 0 18.787 7.982 8.193 7.982 8.193 18.577 0 10.595-7.982 18.788-7.982 8.192-18.577 8.192Zm164.615 0q-10.595 0-18.787-7.982-8.192-7.982-8.192-18.577 0-10.595 7.981-18.787 7.982-8.193 18.577-8.193 10.596 0 18.788 7.982T752-493.134q0 10.595-7.982 18.788-7.981 8.192-18.577 8.192Zm-414.154-88.308q-10.595 0-18.787-7.981-8.193-7.982-8.193-18.577 0-10.596 7.982-18.788T310.866-608q10.595 0 18.788 7.982 8.192 7.981 8.192 18.577 0 10.595-7.982 18.787-7.982 8.192-18.577 8.192Zm145.847 0q-10.595 0-18.788-7.981-8.192-7.982-8.192-18.577 0-10.596 7.982-18.788T456.713-608q10.595 0 18.787 7.982 8.193 7.981 8.193 18.577 0 10.595-7.982 18.787-7.982 8.192-18.577 8.192Zm216.077 7.693q-10.596 0-18.788-7.982t-8.192-18.577q0-10.595 7.982-18.788 7.981-8.192 18.576-8.192 10.596 0 18.788 7.982t8.192 18.577q0 10.595-7.982 18.787-7.981 8.193-18.576 8.193Zm-273.616-96q-10.595 0-18.787-7.982-8.193-7.982-8.193-18.577 0-10.595 7.982-18.788 7.982-8.192 18.577-8.192 10.595 0 18.787 7.982 8.193 7.982 8.193 18.577 0 10.595-7.982 18.787-7.982 8.193-18.577 8.193Zm162.231 0q-10.595 0-18.787-7.982-8.193-7.982-8.193-18.577 0-10.595 7.982-18.788 7.982-8.192 18.577-8.192 10.595 0 18.787 7.982 8.193 7.982 8.193 18.577 0 10.595-7.982 18.787-7.982 8.193-18.577 8.193Zm-81.615-88.308q-10.596 0-18.788-7.982t-8.192-18.577q0-10.595 7.982-18.787 7.981-8.193 18.576-8.193 10.596 0 18.788 7.982t8.192 18.577q0 10.595-7.982 18.788-7.981 8.192-18.576 8.192Z"/></svg>