<svg xmlns="http://www.w3.org/2000/svg" height="20" viewBox="0 -960 960 960" width="20"><path d="M480-62q-144.556 0-245.278-100.744Q134-263.488 134-408h692q0 145-100.722 245.5T480-62ZM180.386-448Q161-448 147.5-461.114q-13.5-13.114-13.5-32.5t13.114-32.886q13.114-13.5 32.5-13.5t32.886 13.114q13.5 13.114 13.5 32.5T212.886-461.5q-13.114 13.5-32.5 13.5Zm202 0Q363-448 349.5-461.114q-13.5-13.114-13.5-32.5t13.114-32.886q13.114-13.5 32.5-13.5t32.886 13.114q13.5 13.114 13.5 32.5T414.886-461.5q-13.114 13.5-32.5 13.5Zm194 0Q557-448 543.5-461.114q-13.5-13.114-13.5-32.5t13.114-32.886q13.114-13.5 32.5-13.5t32.886 13.114q13.5 13.114 13.5 32.5T608.886-461.5q-13.114 13.5-32.5 13.5Zm204 0Q761-448 747.5-461.114q-13.5-13.114-13.5-32.5t13.114-32.886q13.114-13.5 32.5-13.5t32.886 13.114q13.5 13.114 13.5 32.5T812.886-461.5q-13.114 13.5-32.5 13.5Zm-504-113Q257-561 243.5-574.114q-13.5-13.114-13.5-32.5t13.114-32.886q13.114-13.5 32.5-13.5t32.886 13.114q13.5 13.114 13.5 32.5T308.886-574.5q-13.114 13.5-32.5 13.5Zm216 0Q473-561 459.5-574.114q-13.5-13.114-13.5-32.5t13.114-32.886q13.114-13.5 32.5-13.5t32.886 13.114q13.5 13.114 13.5 32.5T524.886-574.5q-13.114 13.5-32.5 13.5Zm181 10Q654-551 640.5-564.114q-13.5-13.114-13.5-32.5t13.114-32.886q13.114-13.5 32.5-13.5t32.886 13.114q13.5 13.114 13.5 32.5T705.886-564.5q-13.114 13.5-32.5 13.5Zm-290-121Q364-672 350.5-685.114q-13.5-13.114-13.5-32.5t13.114-32.886q13.114-13.5 32.5-13.5t32.886 13.114q13.5 13.114 13.5 32.5T415.886-685.5q-13.114 13.5-32.5 13.5Zm195 0Q559-672 545.5-685.114q-13.5-13.114-13.5-32.5t13.114-32.886q13.114-13.5 32.5-13.5t32.886 13.114q13.5 13.114 13.5 32.5T610.886-685.5q-13.114 13.5-32.5 13.5Zm-98-116Q461-788 447.5-801.114q-13.5-13.114-13.5-32.5t13.114-32.886q13.114-13.5 32.5-13.5t32.886 13.114q13.5 13.114 13.5 32.5T512.886-801.5q-13.114 13.5-32.5 13.5Z"/></svg>