<svg xmlns="http://www.w3.org/2000/svg" height="24" viewBox="0 -960 960 960" width="24"><path d="M142.385-187.692 113.846-216 294-396.154q29.461-29.461 39.038-70.094 9.577-40.634 9.577-124.521 0-53.276 23.692-104.715 23.693-51.439 67.077-94.824Q512.077-869 605.212-881t153.25 48.692q60.461 60.809 48.461 153.713-12 92.903-90.461 171.364-43.385 43.385-94.385 66.308Q571.077-418 516.923-418q-81.615 0-122.769 9.846-41.154 9.847-71.616 40.308L142.385-187.692ZM418.154-494q47 46 127 33.615 80-12.384 143-75.384 64-64 76.5-143.5t-34.5-124.5Q683.692-851 605.038-838.615q-78.653 12.384-142.884 76.384-63 62.231-76.5 141.731t32.5 126.5Zm308 414q-49.5 0-84.75-35.25T606.154-200q0-49.5 35.25-84.75t84.75-35.25q49.5 0 84.75 35.25t35.25 84.75q0 49.5-35.25 84.75T726.154-80Z"/></svg>