<svg xmlns="http://www.w3.org/2000/svg" height="24" viewBox="0 -960 960 960" width="24"><path d="M480-292.308q-27.615 0-47.654-20.038-20.038-20.039-20.038-47.654 0-27.615 20.038-47.654 20.039-20.038 47.654-20.038 27.615 0 47.654 20.038 20.038 20.039 20.038 47.654 0 27.615-20.038 47.654-20.039 20.038-47.654 20.038ZM380-20v-134q-77-22.154-113.731-77.923-36.731-55.769-44.5-128.692-1.231-8.077 4.731-13.731Q232.461-380 240.769-380t14.154 5.769q5.846 5.769 7.077 14.616 9.539 91.692 65.039 135.653Q382.539-180 480-180q97.231 0 152.615-43.962Q688-267.923 698-358.923q1.231-9.308 6.961-15.192 5.731-5.885 14.27-5.885 8.538 0 14.269 6t4.5 14.308Q731-287 694.269-231.577 657.539-176.154 580-154v134H380ZM205.385-458.923l-80-195.231q-14.231 6.077-26.616 12.423-12.384 6.347-18.769 6.347-7.77 0-13.885-5.731T60-655.385V-790q0-60.231 119.769-105.115Q299.538-940 480-940t300.231 44.885Q900-850.231 900-790v134.615q0 8.539-6.115 14.27-6.116 5.731-13.885 5.731-6.385 0-18.769-6.347-12.385-6.346-26.616-12.423l-80 194q-2.692 7.154-9.115 11.346-6.423 4.193-13.808 4.193h-14.538q-9.385 0-16.039-4.923-6.654-4.924-8.884-14.308l-56.077-244.846q-40.693-5.769-79.539-8.539Q517.769-720 480-720t-76.615 2.769q-38.846 2.77-79.539 8.539l-56.077 246.077q-2.23 8.384-8.769 13.192-6.538 4.808-14.923 4.808h-17q-7.154 0-13.077-3.962-5.923-3.961-8.615-10.346ZM235-479.231l50.231-223.307q-36.462 7.538-64.539 14.923-28.077 7.384-61.846 21L235-479.231Zm490-.231 76.154-187.153q-34.539-12.846-62.231-20.616-27.692-7.769-64.154-15.307L725-479.462ZM100-687q82.539-36.923 180.038-54.962Q377.538-760 480-760q102.462 0 199.962 18.038Q777.461-723.923 860-687v-105.615q-5.769-17.693-33.577-36.27-27.808-18.576-75.615-34.73-47.808-16.154-115.77-26.27Q567.077-900 480-900q-87.077 0-155.038 10.115-67.962 10.116-115.77 26.27-47.807 16.154-75.615 34.73-27.808 18.577-33.577 36.27V-687Zm380-213Z"/></svg>