<svg xmlns="http://www.w3.org/2000/svg" height="20" viewBox="0 -960 960 960" width="20"><path d="M685.5-745.739q-34.435 0-59.011-24.576t-24.576-59.011q0-34.435 24.576-59.011t59.011-24.576q34.435 0 59.011 24.576t24.576 59.011q0 34.435-24.576 59.011T685.5-745.739ZM360-205.239q-10.239 0-20.598-1.5-10.359-1.5-19.837-4.739-87.956-60.479-146.554-117.935-58.598-57.457-58.598-103.413 0-34.152 26.196-45.37 26.195-11.217 53.391-11.217 28.283 0 64.087 7.522 35.804 7.521 76.369 22.565l-17.282-102.109q-5.239-28.435 1.88-51.369 7.12-22.935 30.033-38.131l74.348-49.978L358.717-713l-77.565 53.043q-16.195 10.957-34.75 7.718-18.554-3.239-29.511-19.674-8.956-15.435-5.978-33.37 2.978-17.935 19.174-29.652l76.369-53.326q15.674-11.435 33.827-14.794 18.152-3.358 37.304.12l184.891 34.522q14.718 2.239 28.935 11.478 14.217 9.239 24.696 27.196l35 62q20.282 34.804 56.043 60.206 35.761 25.402 79.522 33.642 17.956 3.239 28.435 16.076 10.478 12.837 10.478 28.554 0 22.152-14.935 35.967-14.935 13.816-35.087 10.337-64-11.239-116.38-46.141-52.381-34.902-84.381-87.706l-78.586 53.217 113.304 88.5q17.152 13.674 26.608 32.946 9.457 19.271 9.457 41.663v107.739q16.239 11.478 30.337 21.717 14.098 10.239 29.815 22.957-23.435 21.63-49.728 32.228-26.294 10.598-56.011 10.598-25.761 0-47.783-8.402-22.021-8.402-42.021-21.685-14.718-10-30.196-10-15.478 0-30.196 10-20 13.283-42.021 21.685-22.022 8.402-47.783 8.402Zm194.413-149.044v-46.63l-132.391-94.065 13.326 77.521q25.761 11.761 60.532 30.587 34.772 18.826 58.533 32.587ZM120-32.587q-18.435 0-31.01-13.695-12.577-13.696-12.577-32.131 0-18.435 12.576-32.011Q101.565-124 120-124q25.043 0 49.706-7 24.664-7 48.664-20.522Q227.326-157 240-157t21.63 5.478Q285.63-138 310.294-131q24.663 7 49.706 7 25.043 0 50.446-7 25.402-7 49.163-20.522Q468.565-157 480.5-157q11.935 0 21.13 5.478 24 13.522 48.664 20.402 24.663 6.881 49.706 6.881 25.043 0 50.326-6.881 25.283-6.88 49.044-20.402Q708.565-157 719.88-157q11.316 0 20.511 5.478Q764.152-138 789.554-131q25.403 7 50.446 7 19.435 0 31.511 13.076t12.076 32.511q0 19.435-12.076 32.63Q859.435-32.587 840-32.587q-30.761 0-60.88-7.5-30.12-7.5-59.12-22.26-29 14.76-59.12 22.26-30.119 7.5-60.88 7.5-30.761 0-60.88-7.5-30.12-7.5-59.12-22.26-29 14.76-59.12 22.26-30.119 7.5-60.88 7.5-30.761 0-60.88-7.5-30.12-7.5-59.12-22.26-29 14.76-59.12 22.26-30.119 7.5-60.88 7.5Z"/></svg>