<svg xmlns="http://www.w3.org/2000/svg" height="20" viewBox="0 -960 960 960" width="20"><path d="M680-746.154q-30.307 0-52.077-21.769-21.769-21.77-21.769-52.077t21.769-52.077q21.77-21.769 52.077-21.769t52.077 21.769q21.769 21.77 21.769 52.077t-21.769 52.077q-21.77 21.769-52.077 21.769ZM366.924-203.077q-6.154 0-12.5-.923t-11.884-2.769q-92.385-60.385-153.462-120.346Q128.001-387.077 128.001-429q0-25.846 21.73-34.422 21.731-8.577 44.269-8.577 28.231 0 71.385 10.115 43.154 10.116 96.309 32.27l-28.77-126.155q-5.385-25.846-.116-46.577 5.27-20.73 23.577-33.192l103.925-73.463-98.079-18.615q-2.308-.77-4.808 0-2.5.769-4.423 2.307l-78.231 53.231q-11.538 7.692-24.5 5.654-12.961-2.039-20.653-13.577-6.077-10.923-3.769-23.576 2.308-12.654 13.461-20.961l78.231-54.231q12.461-9.615 27.115-12.038 14.654-2.423 29.731.192l187.615 35q11.692 2 23.461 9.654 11.769 7.654 20.231 22.346l35 62q21.769 37.538 59.885 64.884Q738.692-569.384 785-561q13.154 2.231 20.846 11.923t7.692 21.231q0 14.999-10.231 24.23-10.23 9.23-23.999 7-62.846-10.616-114.769-46.693-51.923-36.077-83.923-93.539l-107.54 76.079 130 102.077q13.846 10.846 21.385 26.308 7.538 15.461 7.538 33.538V-282q15.231 10.616 32 23.116 16.77 12.5 31.001 24.115-17.769 15.154-41.692 23.615-23.923 8.462-53.308 8.462-25.615 0-49.269-8.039-23.654-8.038-45.577-23.192-12.462-8.461-25.154-8.461t-25.154 8.461q-21.153 14.769-43.077 22.423-21.923 7.654-44.845 8.423Zm201.077-123.229V-394q0-3.077-1.347-5.577-1.346-2.5-3.654-4.423L413.154-508.847l18.461 108.232q29.078 13.539 66.693 34.616 37.615 21.077 69.693 39.693ZM120-50.001q-12.769 0-21.384-9.615T90-82q0-12.769 8.615-22.384T120-113.999q26.769 0 52.846-7.577 26.077-7.577 51.231-21.577 6.462-4.231 15.923-4.231t15.923 4.231q25.154 14 51.231 21.577 26.077 7.577 52.846 7.577 26.769 0 53.346-7.577 26.577-7.577 51.731-21.577 6.462-4.231 15.231-4.231t15.615 4.231q25.154 14 51.231 21.577 26.077 7.577 52.846 7.577 26.769 0 53.346-7.577 26.577-7.577 51.731-21.577 6.846-4.231 14.923-4.231t14.923 4.231q25.154 14 51.731 21.577 26.577 7.577 53.346 7.577 13.769 0 21.884 9.115T869.999-82q0 13.769-8.115 22.884T840-50q-29.846 0-59.846-7.692-30-7.692-60.154-23.462-30.154 15.77-60.154 23.462-30 7.692-59.846 7.692-29.846 0-59.846-7.692-30-7.692-60.154-23.462-30.154 15.77-60.154 23.462-30 7.692-59.846 7.692-29.846 0-59.846-7.692-30-7.692-60.154-23.462-30.154 15.77-60.154 23.462-30 7.692-59.846 7.692Z"/></svg>