<svg xmlns="http://www.w3.org/2000/svg" height="20" viewBox="0 -960 960 960" width="20"><path d="M680-756q-26 0-45-19t-19-45q0-26 19-45t45-19q26 0 45 19t19 45q0 26-19 45t-45 19ZM378-200h-1q-101-61-167-126.5T144-429q0-16 16.5-21.5T194-456q27 0 80 13.5T398-397l-46-152q-6-24-3.5-43.5T365-622l139-103-135-26q-6-2-12.5 0t-11.5 6l-77 52q-6 4-12.5 3.5T245-696q-3-6-1-12.5t7-10.5l77-53q10-9 22.5-10.5t24.5.5l187 35q8 2 17 7.5t15 16.5l35 62q23 40 64.5 69.5T785-553q7 1 11 7t4 12q0 7-5 11t-12 3q-61-10-112-47t-83-100L446-562l146 115q12 9 18 22t6 28v123q14 10 36 26.5t35 27.5q-11 9-34 15t-53 6q-25 0-50.5-6.5T499-229q-10-6-19-6t-19 6q-23 16-44 21.5t-39 7.5Zm206-98v-88q0-8-3.5-14.5T571-412L407-523l24 139q34 16 71 38t82 48ZM120-66q-6 0-10-5t-4-11q0-6 4-11t10-5q28 0 55-8.5t54-22.5q4-3 11-3t11 3q27 14 54 22.5t55 8.5q28 0 55.5-8.5T470-129q4-3 10-3t11 3q27 14 54 22.5t55 8.5q28 0 55.5-8.5T710-129q5-3 10-3t10 3q27 14 54.5 22.5T840-98q7 0 10.5 4.5T854-82q0 7-3.5 11.5T840-66q-28 0-58-8t-62-25q-32 17-62 25t-58 8q-28 0-58-8t-62-25q-32 17-62 25t-58 8q-28 0-58-8t-62-25q-32 17-62 25t-58 8Z"/></svg>