<svg xmlns="http://www.w3.org/2000/svg" height="20" viewBox="0 -960 960 960" width="20"><path d="M703-764q-39 0-67-28t-28-67q0-39 28-67t67-28q39 0 67 28t28 67q0 39-28 67t-67 28ZM360-206q-11 0-22.5-1.5T315-213q-91-62-151.5-122.5T103-445q0-41 30-54.5t61-13.5q26 0 58 6t68 18l-15-77q-6-33 1.5-60.5T343-673l50-34-32-6-73 50q-20 14-43.5 10T207-678q-12-20-7.5-42.5T224-757l68-48q21-16 46-20.5t51 .5l175 33q17 3 33.5 13t28.5 31l35 62q18 31 53 54.5t78 32.5q21 4 33 19.5t12 33.5q0 29-19.5 47T771-486q-64-12-116-45t-84-82l-55 38 92 71q24 19 36.5 45.5T657-402v91q17 13 33 24t34 26q-28 30-60 42.5T600-206q-25 0-45.5-6.5T514-230q-17-10-34-10t-34 10q-20 11-40.5 17.5T360-206Zm183-181v-20l-105-72 8 41q25 11 49.5 24.5T543-387ZM120-9Q97-9 81-26.5T65-67q0-23 16-40t39-17q22 0 44-7t46-19q12-7 30-7t30 7q24 12 46 19t44 7q22 0 45.5-7t46.5-19q12-7 28.5-7t29.5 7q24 12 46 18.5t44 6.5q22 0 45-6.5t46-18.5q13-7 28.5-7t28.5 7q23 12 46.5 19t45.5 7q24 0 39.5 16.5T895-67q0 24-15.5 41T840-9q-30 0-60.5-7.5T720-38q-29 14-59.5 21.5T600-9q-30 0-60.5-7.5T480-38q-29 14-59.5 21.5T360-9q-30 0-60.5-7.5T240-38q-29 14-59.5 21.5T120-9Z"/></svg>