<svg xmlns="http://www.w3.org/2000/svg" height="24" viewBox="0 -960 960 960" width="24"><path d="M397.769-678.615 210.231-564.692q-10 6.615-20.116.692Q180-569.923 180-581.769q0-5.682 2.571-10.588 2.571-4.907 7.198-7.489l209.462-127.077L600-584.154l148.538-105.462q10-7.077 20.731-1.516Q780-685.572 780-673.44q0 5.055-2.26 9.54-2.26 4.485-6.278 6.977L600-535.385l-202.231-143.23ZM200-380q-8.5 0-14.25-5.758-5.75-5.757-5.75-14.269t5.75-14.242Q191.5-420 200-420h560q8.5 0 14.25 5.758 5.75 5.757 5.75 14.269t-5.75 14.242Q768.5-380 760-380H200Zm0 150.769q-8.5 0-14.25-5.757-5.75-5.758-5.75-14.27 0-8.511 5.75-14.242 5.75-5.731 14.25-5.731h560q8.5 0 14.25 5.758t5.75 14.269q0 8.512-5.75 14.243-5.75 5.73-14.25 5.73H200Z"/></svg>