<svg xmlns="http://www.w3.org/2000/svg" height="20" viewBox="0 -960 960 960" width="20"><path d="M81.823-85.78v-672.092q0-47.913 34.218-82.131 34.217-34.217 82.131-34.217H421.26q47.914 0 81.849 34.217 33.935 34.218 33.935 82.131v96H391.043q-40.74 0-69.371 28.631-28.631 28.631-28.631 69.371v210.088q0 40.739 28.631 69.37 28.631 28.631 69.371 28.631h146.001V-85.78H81.823Zm619.7-139.435q-27.392 0-56.262-8.478-28.87-8.479-57.087-20.74l29.913-92.871q22.653 10.261 43.262 16.892 20.608 6.63 40.174 7.196 12.434 0 24.717-3.783t22.152-11.217q23.392-16.261 49.566-24.109 26.174-7.848 53-7.848 27.392 0 55.261 8.478 27.87 8.479 57.088 20.305l-29.914 92.74q-22.652-8.261-43.543-15.891-20.892-7.631-39.327-7.631-14.434 0-28.717 5.5t-26.283 14.5q-19.261 14.696-43.935 20.826-24.674 6.131-50.065 6.131ZM537.044-353.782H391.043V-563.87h146.001v210.088Zm163.479-45.956q-27.392 0-55.762-8.761t-56.587-21.022l29.913-92.871q22.087 10.261 42.979 17.174 20.891 6.913 40.457 7.478 12.434 0 24.434-4.5 12-4.5 22.435-11.5 23.392-14.695 49.566-22.826 26.174-8.13 52-8.13 27.392 0 55.479 8.478t57.87 19.739l-29.914 93.306q-22.087-8.826-42.13-16.457-20.044-7.63-41.305-7.63-15 0-28.717 6.282-13.718 6.283-25.718 14.283-21.391 15.261-45.5 21.109-24.109 5.848-49.5 5.848Zm-1-175.089q-27.392 0-55.479-9.261t-57.87-20.522l29.913-93.871q23.218 10.827 43.544 18.24 20.326 7.413 39.892 7.413 12.434 0 24.152-4.283 11.717-4.282 22.717-11.717 23.392-15.696 49.283-23.044 25.892-7.348 52.283-7.348 26.826 0 55.979 7.413 29.152 7.414 57.935 20.24l-30.479 91.74q-22.652-8.261-43.543-14.826-20.892-6.565-39.892-6.565-14.435 0-28.435 5.782-14 5.783-26 13.218-20.826 14.695-45 21.043-24.174 6.348-49 6.348Z"/></svg>