<svg xmlns="http://www.w3.org/2000/svg" height="24" viewBox="0 -960 960 960" width="24"><path d="M480.174-132Q408-132 344.442-159.391q-63.559-27.392-110.575-74.348-47.015-46.957-74.441-110.435Q132-407.652 132-479.826q0-72.174 27.405-135.732 27.405-63.559 74.385-110.574 46.98-47.016 110.49-74.442Q407.79-828 480-828q39 0 76 8t70 24v31q0 24.519 17.24 41.76Q660.481-706 685-706h60v83q0 14.93 11.035 25.965T782-586h30q8 25 12 51.258 4 26.258 4 54.742 0 72.21-27.391 135.72-27.392 63.51-74.348 110.49-46.957 46.98-110.435 74.385Q552.348-132 480.174-132ZM480-292q47.218 0 87.109-21.5Q607-335 632.833-371.8q5.167-9.2.667-18.7T618-400H342q-11 0-15.5 9.5t.667 18.7Q353-335 393.298-313.5T480-292ZM350.235-540Q367-540 378.5-551.735q11.5-11.736 11.5-28.5Q390-597 378.265-608.5q-11.736-11.5-28.5-11.5Q333-620 321.5-608.265q-11.5 11.736-11.5 28.5Q310-563 321.735-551.5q11.736 11.5 28.5 11.5Zm260 0Q627-540 638.5-551.735q11.5-11.736 11.5-28.5Q650-597 638.265-608.5q-11.736-11.5-28.5-11.5Q593-620 581.5-608.265q-11.5 11.736-11.5 28.5Q570-563 581.735-551.5q11.736 11.5 28.5 11.5ZM826-786h-66q-5.95 0-9.975-4.035-4.025-4.035-4.025-10t4.025-9.965q4.025-4 9.975-4h66v-66q0-5.95 4.035-9.975 4.035-4.025 10-4.025t9.965 4.025q4 4.025 4 9.975v66h66q5.95 0 9.975 4.035 4.025 4.035 4.025 10T929.975-790q-4.025 4-9.975 4h-66v66q0 5.95-4.035 9.975-4.035 4.025-10 4.025T830-710.025q-4-4.025-4-9.975v-66Z"/></svg>