<svg xmlns="http://www.w3.org/2000/svg" height="20" viewBox="0 -960 960 960" width="20"><path d="M480.45-148q-68.45 0-129.008-25.891-60.559-25.892-106.075-71.348-45.515-45.457-71.441-105.893Q148-411.569 148-480.284q0-68.716 25.905-128.774 25.905-60.059 71.385-105.574 45.48-45.516 105.802-71.442Q411.414-812 480-812q33 0 66.5 6t63.5 20.189V-765q0 18.519 12.24 30.76Q634.481-722 653-722h68v71q0 17.93 11.535 29.465T762-610h25q13 31 19 63.758T812-480q0 68.586-25.891 128.908-25.892 60.322-71.348 105.802-45.457 45.48-105.659 71.385Q548.899-148 480.45-148ZM480-320q41.218 0 78.609-14.5Q596-349 619.833-379.8q4.167-8.2.917-15.7T609-403H351q-9 0-12.5 7.5t1.667 15.7Q364-349 400.808-334.5 437.615-320 480-320ZM358.235-536Q375-536 386.5-547.735q11.5-11.736 11.5-28.5Q398-593 386.265-604.5q-11.736-11.5-28.5-11.5Q341-616 329.5-604.265q-11.5 11.736-11.5 28.5Q318-559 329.735-547.5q11.736 11.5 28.5 11.5Zm244 0Q619-536 630.5-547.735q11.5-11.736 11.5-28.5Q642-593 630.265-604.5q-11.736-11.5-28.5-11.5Q585-616 573.5-604.265q-11.5 11.736-11.5 28.5Q562-559 573.735-547.5q11.736 11.5 28.5 11.5Zm191.998-258h-62.116q-4.3 0-7.209-2.885-2.908-2.885-2.908-7.15 0-4.265 2.908-7.115 2.909-2.85 7.209-2.85h62.116v-62q0-4.25 2.919-7.125Q800.07-886 804.246-886q4.175 0 6.965 2.875Q814-880.25 814-876v62h61.789q4.161 0 7.186 2.825 3.025 2.824 3.025 7 0 4.175-2.875 7.058-2.875 2.884-7.125 2.884h-62v62.116q0 4.3-2.885 7.209-2.885 2.908-7.15 2.908-3.965 0-6.848-2.875-2.884-2.875-2.884-7.125v-62Z"/></svg>