<svg xmlns="http://www.w3.org/2000/svg" height="20" viewBox="0 -960 960 960" width="20"><path d="M222.783-163.172q-41.005 0-69.503-28.499-28.498-28.498-28.498-69.503v-18.347q0-28.258 15.436-53.165 15.437-24.908 42.303-41.227 56.696-32.566 120.295-50.131Q366.414-441.609 432-441.609q24.989 0 49.978 2.5 24.99 2.5 49.979 7.5-1.566 50.522 20.695 95.413 22.261 44.892 61.218 75.518v97.506H222.783ZM432.01-489.609q-67.923 0-115.576-47.643-47.652-47.642-47.652-115.566 0-67.923 47.642-115.293 47.643-47.37 115.566-47.37t115.576 47.48q47.652 47.479 47.652 115.173 0 67.928-47.642 115.573-47.643 47.646-115.566 47.646Zm311.084 75.957q15.776 0 27.124-11.138 11.348-11.137 11.348-26.913t-11.137-27.124q-11.138-11.347-26.914-11.347-15.775 0-27.123 11.137t-11.348 26.913q0 15.776 11.137 27.124 11.138 11.348 26.913 11.348Zm1.472 338.479L711.74-108q-1.566-1.646-6.696-16.385v-169.039Q660.783-305 632.087-342.075q-28.696-37.074-28.696-84.994 0-57.903 41.064-98.765 41.063-40.862 99.152-40.862t98.85 41.037q40.761 41.037 40.761 99.09 0 45.189-25.497 80-25.498 34.811-66.025 50.134l29.454 30.019q6.981 6.981 6.981 17.807 0 10.827-6.877 17.704l-21.984 21.984q-6.878 6.878-6.878 17.704t6.878 17.704l21.984 21.984q6.877 6.877 6.877 17.703 0 10.827-6.946 17.772l-40.978 40.978q-6.945 6.946-17.772 6.946-10.826 0-17.869-7.043Z"/></svg>