<svg xmlns="http://www.w3.org/2000/svg" height="24" viewBox="0 -960 960 960" width="24"><path d="M202-212q-13 0-21.5-8.5T172-242v-22q0-22 13.5-41.5T222-336q55-26 109.5-39T440-388q22.75 0 45.5 2.5T531-378q2 41 20.5 76.5T601-240v28H202Zm238-280q-44.55 0-76.275-31.725Q332-555.45 332-600q0-44.55 31.725-76.275Q395.45-708 440-708q44.55 0 76.275 31.725Q548-644.55 548-600q0 44.55-31.725 76.275Q484.55-492 440-492Zm290 115q11 0 19.5-9t8.5-20q0-11-8.5-19.5T730-434q-11 0-20 8.5t-9 19.5q0 11 9 20t20 9Zm3 243-27-28q-1-1-5-10v-125.081q-30.8-9.135-50.4-34.784-19.6-25.649-19.6-59.378Q631-432 659.99-461q28.99-29 70-29 41.01 0 69.51 29.032 28.5 29.033 28.5 70.103Q828-359 810.5-335 793-311 765-300l24 24q5 4.636 5 10.818Q794-259 789-254l-21 21q-5 5-5 10.5t5 10.5l22 21q5 5 5 10.5t-5 10.5l-36 36q-5 5-10.5 5t-10.5-5Z"/></svg>