<svg xmlns="http://www.w3.org/2000/svg" height="24" viewBox="0 -960 960 960" width="24"><path d="M820.914-265.304h-583.74q-44.305 0-75.153-30.848-30.849-30.848-30.849-75.153v-396.608h-20.781q-22.087 0-37.544-15.457-15.457-15.457-15.457-37.544 0-22.087 15.457-37.544 15.457-15.457 37.544-15.457h20.781q44.305 0 75.154 30.848 30.848 30.849 30.848 75.154v396.608h583.74q22.087 0 37.544 15.457 15.457 15.457 15.457 37.544 0 22.087-15.457 37.544-15.457 15.456-37.544 15.456ZM224.173-46.085q-38.652 0-65.826-27.174-27.175-27.174-27.175-65.827 0-38.652 27.175-65.826 27.174-27.175 65.826-27.175 38.653 0 65.827 27.175 27.174 27.174 27.174 65.826 0 38.653-27.174 65.827t-65.827 27.174Zm106.001-365.22q-22.087 0-37.544-15.457-15.456-15.456-15.456-37.544v-152.086q0-22.087 15.456-37.544 15.457-15.457 37.544-15.457h152.087q22.087 0 37.544 15.457 15.457 15.457 15.457 37.544v152.086q0 22.088-15.457 37.544-15.457 15.457-37.544 15.457H330.174Zm41.696-94.696h68.695v-68.695H371.87v68.695Zm256.392 94.696q-22.087 0-37.544-15.457-15.456-15.456-15.456-37.544v-152.086q0-22.087 15.456-37.544 15.457-15.457 37.544-15.457h152.087q22.087 0 37.544 15.457 15.457 15.457 15.457 37.544v152.086q0 22.088-15.457 37.544-15.457 15.457-37.544 15.457H628.262Zm41.696-94.696h68.695v-68.695h-68.695v68.695ZM780.349-46.085q-38.653 0-65.544-27.174-26.892-27.174-26.892-65.827 0-38.652 26.892-65.826 26.891-27.175 65.544-27.175 38.652 0 66.109 27.175 27.457 27.174 27.457 65.826 0 38.653-27.457 65.827t-66.109 27.174ZM371.87-506.001h68.695-68.695Zm298.088 0h68.695-68.695Z"/></svg>