<svg xmlns="http://www.w3.org/2000/svg" height="24" viewBox="0 -960 960 960" width="24"><path d="M272-564h74q14 0 23-9t9-23v-124H240v124q0 14 9 23t23 9Zm0 324h194v-268H240v236q0 14 9 23t23 9Zm222 0h194q14 0 23-9t9-23v-236H494v268Zm-222 0h416q14 0 23-9t9-23v-236H240v236q0 14 9 23t23 9Zm266.737-395q-6.263 0-10.5-4.312Q524-643.625 524-650q2-41 30-69.5t69-28.5q41 0 69 28.875T720-649v113h94q5.95 0 9.975 4.035 4.025 4.035 4.025 10T823.975-512q-4.025 4-9.975 4h-66v236q0 24.75-17.625 42.375T688-212H272q-24.75 0-42.375-17.625T212-272v-236h-66q-5.95 0-9.975-4.035-4.025-4.035-4.025-10t4.025-9.965q4.025-4 9.975-4h121q-22.688 0-38.844-16.45Q212-568.9 212-592v-126q0-12.75 8.625-21.375T242-748h134q12.75 0 21.375 8.625T406-718v126q0 23.1-16.45 39.55Q373.1-536 350-536h342v-113q0-29-19.772-50t-49-21Q594-720 573.5-699T553-649q0 5.95-4 9.975Q545-635 538.737-635ZM272-564h-32 138-106Z"/></svg>