<svg xmlns="http://www.w3.org/2000/svg" height="24" viewBox="0 -960 960 960" width="24"><path d="M516.023-643.957q-20.371 0-34.132-13.775T468.13-691.87q0-53.392 37.308-90.37t90.605-36.978q53.062 0 90.205 37.143t37.143 90.205v127.348h127.914q20.363 0 34.138 13.781 13.775 13.781 13.775 34.152 0 20.372-13.775 34.133-13.775 13.761-34.138 13.761h-32.087v221.912q0 44.305-30.848 75.153-30.848 30.848-75.153 30.848H246.783q-44.305 0-75.153-30.848-30.848-30.848-30.848-75.153v-221.912h-32.087q-20.363 0-34.138-13.781-13.775-13.781-13.775-34.152 0-20.372 13.775-34.133 13.775-13.761 34.138-13.761H228.13q-36.392 0-61.87-25.825-25.478-25.824-25.478-62.088v-113.783q0-22.087 15.456-37.544 15.457-15.456 37.544-15.456h149.261q22.087 0 37.544 15.456 15.456 15.457 15.456 37.544v113.783q0 36.264-25.824 62.088-25.825 25.825-62.089 25.825h319.435V-691.87q0-13.397-9.063-22.459-9.062-9.062-22.459-9.062-13.637 0-22.861 9.062-9.225 9.062-9.225 22.459 0 20.363-13.781 34.138-13.781 13.775-34.153 13.775Zm-83.371 407.348h95.261v-232.086h-95.261v232.086Z"/></svg>