<svg xmlns="http://www.w3.org/2000/svg" height="24" viewBox="0 -960 960 960" width="24"><path d="M455.384-400v75.385q0 10.256 7.206 17.436 7.206 7.179 17.5 7.179 10.295 0 17.41-7.179 7.116-7.18 7.116-17.436V-400H580q10.256 0 17.436-7.206t7.18-17.5q0-10.294-7.18-17.41-7.18-7.115-17.436-7.115h-75.384v-75.384q0-10.257-7.206-17.436-7.206-7.18-17.5-7.18-10.295 0-17.41 7.18-7.116 7.179-7.116 17.436v75.384H380q-10.257 0-17.436 7.206-7.18 7.206-7.18 17.5t7.18 17.41Q369.743-400 380-400h75.384ZM304.615-164.615q-26.654 0-45.634-18.981Q240-202.577 240-229.231V-620q0-26.654 18.981-45.635 18.98-18.981 45.634-18.981h350.77q26.654 0 45.634 18.981Q720-646.654 720-620v390.769q0 26.654-18.981 45.635-18.98 18.981-45.634 18.981h-350.77Zm-26.153-590.77q-8.501 0-14.251-5.757-5.75-5.758-5.75-14.27 0-8.511 5.75-14.242 5.75-5.731 14.251-5.731h403.076q8.501 0 14.251 5.758t5.75 14.269q0 8.512-5.75 14.243-5.75 5.73-14.251 5.73H278.462Z"/></svg>