<svg xmlns="http://www.w3.org/2000/svg" height="24" viewBox="0 -960 960 960" width="24"><path d="M479.983-11Q317-11 214-62.925T111-197q0-47 37.5-86.5T254-348l60 113q-20 5-43.5 15T236-199q20.29 24.8 93.645 43.4Q403-137 481.2-137t151.033-18.6Q705.067-174.2 725-199q-11-11-34-21t-43-15l61-112q66 25 103 64.5t37 85.5q0 82.15-103.017 134.075Q642.965-11 479.983-11ZM480-177q-18.586 0-33.793-11T426-216q-20-63-57-114t-74-101q-36.861-50.058-63.93-103.529Q204-588 204-657q0-116.387 80.024-196.693Q364.047-934 480.024-934 596-934 676-853.693 756-773.387 756-657q0 69-27 122.5T665-431q-37 50-74 101t-57 114q-5 17-20.207 28T480-177Zm.25-392Q517-569 543-594.5t26-62.25q0-36.75-26.25-63t-63-26.25Q443-746 417-719.75t-26 63q0 36.75 26.25 62.25t63 25.5Z"/></svg>