<svg xmlns="http://www.w3.org/2000/svg" height="20" viewBox="0 -960 960 960" width="20"><path d="M480-116q-98.769 0-159.385-25.731Q260-167.461 260-210q0-20.462 19.154-38.923 19.154-18.462 55.769-32.693l8.462 31.308q-23.846 10.847-34.039 19.154-10.192 8.308-18.884 22.154 1.846 24.769 60.077 42.885Q408.769-148 480-148q74.461 0 131.692-18.115 57.231-18.116 57.077-45.885-11.692-13.846-21.885-21.769-10.192-7.923-31.038-17.539l9.231-31.308q36.615 14.231 55.769 33.193Q700-230.462 700-210q0 42.539-60.615 68.269Q578.769-116 480-116Zm0-144.615q-7.692 0-14.654-6-6.961-6-10.961-15.462-26.077-61.307-56.27-101.807-30.192-40.5-59.115-76.885-27.923-36.385-46.962-76.269Q273-576.923 273-637q0-88.539 59.231-147.769Q391.461-844 480-844q88.539 0 147.769 59.231Q687-725.539 687-637q0 60.077-18.538 99.962-18.539 39.884-46.462 76.269-27.923 36.385-58.615 76.385-30.693 40-56.77 101.307-4 9.462-10.961 15.962-6.962 6.5-15.654 6.5Zm0-319.231q24.769 0 40.962-16.192 16.192-16.193 16.192-40.962 0-24.769-16.192-41.462-16.193-16.692-40.962-16.692-24.769 0-40.962 16.692-16.192 16.693-16.192 41.462 0 24.769 16.192 40.962 16.193 16.192 40.962 16.192Z"/></svg>