<svg xmlns="http://www.w3.org/2000/svg" height="24" viewBox="0 -960 960 960" width="24"><path d="M274.615-160q-8.538 0-14.269-5.731-5.731-5.73-5.731-14.269v-190.769q0-26.846 18.885-45.731t45.731-18.885H630q10.769 0 17.692-6.923T654.615-460v-263.384l-69.846 69.846q-6.384 6.384-14.154 6.384-7.769 0-14.154-6.384-6.384-6.385-6-14.539.385-8.154 6-13.769L652-777.385q9.692-9.692 22.615-9.692 12.924 0 22.616 9.692l95.538 95.539q6.385 6.384 6.385 14.154 0 7.769-6.385 14.154-6.384 6.384-14.538 6-8.154-.385-13.77-6l-69.845-69.846V-460q0 26.846-18.885 45.731T630-395.384H319.231q-10.769 0-17.692 6.923t-6.923 17.692V-180q0 8.539-5.731 14.269-5.731 5.731-14.27 5.731Z"/></svg>