<svg xmlns="http://www.w3.org/2000/svg" height="20" viewBox="0 -960 960 960" width="20"><path d="M275.717-110Q226-110 192-144.15T158-228v-330q0-27.604 12-52.302T205-653l204-153q33-24 71-24t71 24l204 153q23 18 35 42.698T802-558v330q0 49.7-34.162 83.85Q733.676-110 683.96-110H275.717ZM276-228h408v-330L480-711 276-558v330Zm204-242ZM336-318h288v36q0 8 5 13t13 5q8 0 13-5t5-13v-126q0-31-21.114-51.5T588.122-480h-66.848q-24.274 0-41.645 17.35-17.371 17.35-17.371 41.65v67H336v-144q0-8-5-13t-13-5q-8 0-13 5t-5 13v216q0 8 5 13t13 5q8 0 13-5t5-13v-36Zm63.07-54Q418-372 431-385.07q13-13.071 13-32Q444-436 430.93-449q-13.071-13-32-13Q380-462 367-448.93q-13 13.071-13 32Q354-398 367.07-385q13.071 13 32 13Z"/></svg>