<svg xmlns="http://www.w3.org/2000/svg" height="24" viewBox="0 -960 960 960" width="24"><path d="M25.304-108.695v-379.784h85.652v-146.129H61.912v-220.088h389.393v220.088h-49.044v143.303h155.478v-143.303h-49.044v-220.088h389.393v220.088h-49.044v146.129h85.652v379.784H25.304ZM603.39-720h200v-40h-200v40Zm-446.782 0h200v-40h-200v40Zm495.826 228.695h101.913v-133.999H652.435v133.999Zm-446.783 0h101.913v-133.999H205.652v133.999Zm-80 282.261h708.696v-181.912H125.652v181.912ZM156.609-720v-40 40Zm446.782 0v-40 40ZM125.652-209.044v-181.912 181.912Z"/></svg>