<svg xmlns="http://www.w3.org/2000/svg" height="20" viewBox="0 -960 960 960" width="20"><path d="M88-184v-256h96v-164.154h-48v-130.308h280v130.308h-48V-440h224v-168.154h-48v-126.308h280v126.308h-48V-440h96v256H88Zm488-456.616h216v-61.846H576v61.846Zm-408 0h216v-61.846H168v61.846ZM624-440h120v-172.615H624V-440Zm-408 0h120v-168.615H216V-440Zm-71.385 224h670.77q10.769 0 17.692-6.923T840-240.615v-142.77q0-10.769-6.923-17.692T815.385-408h-670.77q-10.769 0-17.692 6.923T120-383.385v142.77q0 10.769 6.923 17.692T144.615-216ZM168-640.616v-61.846 61.846Zm408 0v-61.846 61.846ZM120-216V-408-216Z"/></svg>