<svg xmlns="http://www.w3.org/2000/svg" height="20" viewBox="0 -960 960 960" width="20"><path d="M371.96-308h215.757q6.783 0 11.533-4.547 4.75-4.547 4.75-11.269 0-6.723-4.588-11.453Q594.823-340 588.04-340H372.283q-6.783 0-11.533 4.547-4.75 4.547-4.75 11.269 0 6.723 4.588 11.453Q365.177-308 371.96-308ZM439-477.308l-73.527-73.527q-5.934-5.934-11.588-6.319-5.654-.385-12.039 6t-6.385 11.654q0 5.269 6.385 11.654l77.539 77.538q8.328 8.693 19.433 8.693t19.797-8.693l159.539-159.538q4.846-4.846 5.615-10.885.77-6.038-4.846-12.423-5.615-6.385-11.269-6.769-5.654-.385-12.111 6.072L439-477.308ZM480.409-136q-70.948 0-133.685-26.839-62.737-26.84-109.865-73.922-47.127-47.082-73.993-109.716Q136-409.111 136-480.325q0-71.214 26.839-133.451 26.84-62.237 73.922-109.365 47.082-47.127 109.716-73.993Q409.111-824 480.325-824q71.214 0 133.451 26.839 62.237 26.84 109.365 73.922 47.127 47.082 73.993 109.482Q824-551.357 824-480.409q0 70.948-26.839 133.685-26.84 62.737-73.922 109.865-47.082 47.127-109.482 73.993Q551.357-136 480.409-136ZM480-168q130 0 221-91t91-221q0-130-91-221t-221-91q-130 0-221 91t-91 221q0 130 91 221t221 91Zm0-312Z"/></svg>