<svg xmlns="http://www.w3.org/2000/svg" height="20" viewBox="0 -960 960 960" width="20"><path d="M371.96-283.478h215.757q17.205 0 29.005-11.59 11.8-11.589 11.8-28.721 0-17.133-11.638-28.933-11.639-11.8-28.844-11.8H372.283q-17.205 0-29.005 11.59-11.8 11.589-11.8 28.721 0 17.133 11.638 28.933 11.639 11.8 28.844 11.8Zm66.475-231.696-56.29-56.29q-13.015-13.015-29.21-13.015-16.196 0-28.892 12.696-12.695 12.696-12.695 28.609 0 15.913 12.695 28.609l79.217 79.782q14.799 14.957 34.53 14.957 19.732 0 34.689-14.957l161.782-161.782q12.13-12.131 12.413-28.326.283-16.196-11.848-28.892-12.13-12.696-28.326-12.978-16.196-.283-28.964 12.485L438.435-515.174Zm41.841 438.392q-83.798 0-157.182-31.46-73.385-31.46-128.388-86.464-55.004-55.003-86.464-128.346t-31.46-157.406q0-84.064 31.46-156.948 31.46-72.885 86.464-127.888 55.003-55.004 128.346-86.464t157.406-31.46q84.064 0 156.948 31.46 72.885 31.46 127.888 86.464 55.004 55.003 86.464 128.112t31.46 156.906q0 83.798-31.46 157.182-31.46 73.385-86.464 128.388-55.003 55.004-128.112 86.464t-156.906 31.46Z"/></svg>