<svg xmlns="http://www.w3.org/2000/svg" height="24" viewBox="0 -960 960 960" width="24"><path d="M360-275.478h240q18.922 0 31.722-12.8t12.8-31.722q0-18.922-12.8-31.722T600-364.522H360q-18.922 0-31.722 12.8T315.478-320q0 18.922 12.8 31.722t31.722 12.8Zm77.435-246.696-54.609-54.609q-12.696-12.696-31.391-12.696-18.696 0-31.392 12.696-12.695 12.696-12.695 31.109 0 18.413 12.695 31.109l79.217 79.782q16.163 15.957 37.712 15.957 21.55 0 37.507-15.957l163.782-163.782q13.13-13.131 12.913-31.326-.217-18.196-13.348-30.892-13.13-12.696-31.326-12.478-18.196.217-30.891 12.913L437.435-522.174ZM480-60.782q-87.522 0-163.906-32.96-76.385-32.96-132.888-89.464-56.504-56.503-89.464-132.888Q60.782-392.478 60.782-480t32.96-163.906q32.96-76.385 89.464-132.888 56.503-56.504 132.888-89.464 76.384-32.96 163.906-32.96t163.906 32.96q76.385 32.96 132.888 89.464 56.504 56.503 89.464 132.888 32.96 76.384 32.96 163.906t-32.96 163.906q-32.96 76.385-89.464 132.888-56.503 56.504-132.888 89.464Q567.522-60.782 480-60.782Zm0-106.001q131.739 0 222.478-90.739T793.217-480q0-131.739-90.739-222.478T480-793.217q-131.739 0-222.478 90.739T166.783-480q0 131.739 90.739 222.478T480-166.783ZM480-480Z"/></svg>