<svg xmlns="http://www.w3.org/2000/svg" height="24" viewBox="0 -960 960 960" width="24"><path d="m254-346-40.923-41.385q53.372-53.803 122.239-82.44 68.868-28.637 144.622-28.637 75.754 0 144.716 28.885 68.962 28.884 122.269 82.654L706-346q-45-45-103.5-69.5T480-440q-64 0-122.5 24.5T254-346ZM84-516l-40.923-40.923q87.307-87.77 200.411-134.654 113.103-46.885 236.654-46.885 123.55 0 236.512 46.885 112.962 46.884 200.269 134.654L876-516q-79-79-181.5-121.5T480-680q-112 0-214.5 42.5T84-516Zm396 396-97.923-98.154q19.432-19.459 44.763-29.883 25.332-10.425 53.092-10.425 27.76 0 53.141 10.425 25.38 10.424 44.85 29.883L480-120Z"/></svg>