<svg xmlns="http://www.w3.org/2000/svg" height="24" viewBox="0 -960 960 960" width="24"><path d="M242-296q-5.95 0-9.975-4.035-4.025-4.035-4.025-10t4.025-9.965q4.025-4 9.975-4h235L178-623q-3.667-4-3.833-10-.167-6 3.833-10.174 3.667-3.826 9.333-3.826 5.667 0 9.667 4l283 282 200-200q-5-12-7.5-21.5t-2.5-16.635q0-27.243 18.789-46.054 18.788-18.811 46-18.811Q762-664 781-645.211q19 18.788 19 46Q800-572 781.11-553t-46.248 19q-5.862 0-14.362-2t-19.5-7L483-324h235q5.95 0 9.975 4.035 4.025 4.035 4.025 10T727.975-300q-4.025 4-9.975 4H242Z"/></svg>