<svg xmlns="http://www.w3.org/2000/svg" height="24" viewBox="0 -960 960 960" width="24"><path d="M320-140.782q-22.087 0-37.544-15.456-15.457-15.457-15.457-37.544 0-22.088 15.457-37.544 15.457-15.457 37.544-15.457h320q22.087 0 37.544 15.457 15.457 15.456 15.457 37.544 0 22.087-15.457 37.544-15.457 15.456-37.544 15.456H320Zm160-186.001q-22.087 0-37.544-15.457-15.457-15.456-15.457-37.544v-260.433l-53.955 53.521q-14.957 14.956-36.827 15.174-21.869.217-37.261-15.174-14.957-14.957-14.957-37.044 0-22.088 14.957-37.044l143.435-143.435q7.696-7.696 17.522-11.609 9.826-3.913 20.087-3.913t20.087 3.913q9.826 3.913 17.522 11.609l143.435 143.435q14.957 14.956 15.174 36.826.217 21.87-15.174 37.262Q646.087-571.74 624-571.74q-22.087 0-37.044-14.956l-53.955-53.521v260.433q0 22.088-15.457 37.544-15.457 15.457-37.544 15.457Z"/></svg>