<svg xmlns="http://www.w3.org/2000/svg" height="20" viewBox="0 -960 960 960" width="20"><path d="M765-111q-127-9-241.5-62T317-317q-92-92-144.5-207T111-766q-2-35 21.286-60 23.285-25 58.714-25h135q40 0 64.5 19t34.5 56l23 86q6 28-1 51t-27 40l-103 90q16 27 36 54t47.969 53.984Q426-376 450-357.5t48 30.5l106-100q19-18 41-23.5t50 .5l80 20q38 11 56.5 34t18.5 61v143q0 35.429-25.5 59.214Q799-109 765-111ZM474.63-604q-11.63 0-19.13-7.7-7.5-7.7-7.5-19.3 0-11.6 7.7-19.3 7.7-7.7 19.3-7.7h69v-42h-69q-11.6 0-19.3-7.722-7.7-7.722-7.7-19.352v-96.296q0-11.63 7.722-19.13 7.722-7.5 19.352-7.5h96.296q11.63 0 19.13 7.7 7.5 7.7 7.5 19.3 0 11.6-7.7 19.3-7.7 7.7-19.3 7.7h-69v42h69q11.6 0 19.3 7.722 7.7 7.722 7.7 19.352v96.296q0 11.63-7.722 19.13-7.722 7.5-19.352 7.5H474.63ZM673-604q-11.6 0-19.3-7.713-7.7-7.713-7.7-19.33v-192.34q0-11.617 7.7-19.117T673-850q11.6 0 19.3 7.713 7.7 7.713 7.7 19.33v192.34q0 11.617-7.7 19.117T673-604Zm102 0q-12 0-19.5-7.713t-7.5-19.33v-192.34q0-11.617 7.722-19.117t19.352-7.5h96.296q11.63 0 19.13 7.722 7.5 7.722 7.5 19.352v96.296q0 11.63-7.674 19.304-7.674 7.674-19.239 7.674h-68.739v68.739q0 11.565-7.674 19.239Q787-604 775-604Zm27-150h42v-42h-42v42Z"/></svg>