<svg xmlns="http://www.w3.org/2000/svg" height="20" viewBox="0 -960 960 960" width="20"><path d="M722.231-185q-97.154-9-189.885-55.654-92.731-46.653-169.885-124.192-77.154-77.539-123.307-169.885Q193-627.077 184-724.231q-2-21.33 12.285-37.049Q210.571-777 232-777h72.923q19.308 0 32.962 11.269 13.654 11.269 19.961 30.346L375.692-673q2.77 13.769-1.5 27.308-4.269 13.538-13.807 21.538l-87.77 81.846q24.616 45.693 52.924 84.539 28.307 38.846 61.045 72.138 33.878 33.862 74.031 62.823 40.154 28.962 88.154 53.577l90.539-89.077q8.769-9.538 18.461-11.884 9.692-2.347 23.462-.347l53.154 12.231q19.308 5 30.461 19.423Q776-324.462 776-304.385V-233q0 21.429-16.22 35.715Q743.561-183 722.231-185ZM467.937-574.462q-7.783 0-13.399-5.815-5.615-5.815-5.615-13.569 0-7.754 5.815-13.569 5.816-5.816 13.57-5.816h68.923v-43.384h-68.923q-7.754 0-13.57-5.838-5.815-5.838-5.815-13.621v-80.912q0-8.091 5.838-13.553Q460.598-776 468.382-776h88.604q7.783 0 13.399 5.815Q576-764.369 576-756.616q0 7.754-5.815 13.57-5.816 5.815-13.57 5.815h-68.923v41.846h68.923q7.754 0 13.57 5.838Q576-683.71 576-675.926v82.31q0 8.231-5.838 13.693-5.837 5.461-13.621 5.461h-88.604Zm167.755 0q-7.753 0-13.569-5.828-5.815-5.828-5.815-13.599v-163.036q0-8.152 5.815-13.614Q627.939-776 635.692-776q7.754 0 13.57 5.828 5.815 5.828 5.815 13.599v163.037q0 8.151-5.815 13.613-5.816 5.461-13.57 5.461Zm79.077 0q-8.153 0-13.769-5.828-5.615-5.828-5.615-13.599v-163.036q0-8.152 5.837-13.614Q707.06-776 714.844-776h90.142q7.783 0 13.399 5.837Q824-764.325 824-756.542v80.912q0 8.091-5.789 13.727-5.789 5.635-13.508 5.635h-70.201v62.237q0 8.299-5.789 13.934-5.79 5.635-13.944 5.635Zm19.385-120.923h51.077v-41.846h-51.077v41.846Z"/></svg>