<svg xmlns="http://www.w3.org/2000/svg" height="20" viewBox="0 -960 960 960" width="20"><path d="m782.231-132.154-147-146-116 114q-8.197 8.693-18.101 13.039t-20.978 4.346q-11.075 0-21.086-4.346-10.012-4.346-18.297-13.039L163.154-440.769q-8.693-8.66-12.539-18.332-3.846-9.673-3.846-20.747 0-11.075 3.846-21.355 3.846-10.279 12.539-19.028l115-115-128.539-128.307q-4.846-4.847-5.615-10.885-.769-6.039 4.793-11.654 5.563-5.615 11.77-5.615 6.206 0 11.822 5.615l632.384 631.615q4.846 4.483 5.231 10.588.385 6.105-5.231 11.72-5.615 5.616-11.436 5.616-5.82 0-11.102-5.616ZM613.692-300.692l-313-313-115.769 116.769Q178-490 178-480q0 10 6.923 16.923l278.154 278.154Q470-178 480-178q10 0 16.923-6.923l116.769-115.769ZM708-350.923l-22.538-21.539 89.615-90.615Q782-470 782-480q0-10-6.923-16.923L496.923-775.077Q490-782 480-782q-10 0-16.923 6.923l-90.615 89.615L350.923-708l88.846-88.846q8.66-8.693 19.014-12.539t21.065-3.846q10.711 0 21.173 3.846 10.461 3.846 19.21 12.539l276.615 276.615q8.693 8.66 12.539 19.014t3.846 21.065q0 10.711-3.846 21.173-3.846 10.461-12.539 19.21L708-350.923ZM529.462-529.462Zm-56.77 86.77ZM356-420v-83.692q0-12.031 8.138-20.17 8.139-8.138 20.17-8.138h42.923l32 32H388v80q0 6.8-4.547 11.4-4.547 4.6-11.269 4.6-6.723 0-11.453-4.6Q356-413.2 356-420Zm224.846-58.077 19.178-18.609q8.592-8.027 8.592-19.412t-8.693-20.287l-30.741-29.972q-5.105-5.105-13.144-2.541-8.038 2.564-8.038 9.744V-532h-21.077l53.923 53.923Z"/></svg>