<svg xmlns="http://www.w3.org/2000/svg" height="20" viewBox="0 -960 960 960" width="20"><path d="M794-137 635-295 516-178q-7.494 8-16.55 12-9.056 4-19.253 4-10.197 0-19.392-4T444-178L177-444q-8-7.958-11.5-16.782t-3.5-19.021q0-10.197 3.5-19.66Q169-508.927 177-517l132-132 224 222-1 29-372-372q-3-3-4-6.5t2.947-7.5q3.948-4 7.5-4 3.553 0 7.553 4l634 633q3 2.636 3.5 6.318Q812-141 808-137t-7.167 4q-3.166 0-6.833-4ZM371.825-411q4.175 0 7.175-2.875t3-7.125v-86h71l-20-20h-45.052q-8.948 0-17.448 7.85T362-501v80q0 4.25 2.825 7.125 2.824 2.875 7 2.875ZM699-359 577-482l17.13-17.282q7.87-7.559 7.87-17.639Q602-527 594-535l-22.304-21.304Q567-561 560.5-558.075T554-548v21h-22L359-699l84-84q7.958-8 17.464-11.5 9.505-3.5 19.339-3.5 9.833 0 19.479 3.5Q508.927-791 517-783l266 266q8 7.958 11.5 17.464 3.5 9.505 3.5 19.339 0 9.833-3.5 19.479Q791-451.073 783-443l-84 84Z"/></svg>