<svg xmlns="http://www.w3.org/2000/svg" height="20" viewBox="0 -960 960 960" width="20"><path d="M748.652-106.391 647.87-206.173l-99.782 97.782q-14.493 14.957-31.809 22.153-17.316 7.195-36.059 7.195-18.742 0-36.278-7.195-17.537-7.196-32.03-22.153L107.391-411.912q-14.957-14.957-21.653-32.18-6.695-17.223-6.695-36.109 0-18.886 6.695-36.408 6.696-17.522 21.653-32.479l99.347-99.347L115-739.174q-12.13-12.206-12.13-28.364t12.137-28.288q12.137-12.131 28.826-12.131t28.819 12.131l632.653 632.652q12.13 11.767 12.13 28.21t-12.19 28.573q-12.19 12.13-28.492 12.13-16.303 0-28.101-12.13Zm-168.87-169.435L275.826-579.782 177.609-480 480-177.609l99.782-98.217Zm181.393-43.652-69.653-68.653L782.391-480 480-782.391l-91.869 90.869-68.653-69.653 91.434-91.434q14.917-14.957 32.832-21.935 17.915-6.979 36.447-6.979 18.533 0 36.312 6.979 17.78 6.978 32.585 21.935l303.521 303.521q14.957 14.822 21.935 32.621 6.979 17.799 6.979 36.212 0 18.413-6.979 36.393-6.978 17.979-21.935 32.95l-91.434 91.434ZM540.609-540.609Zm-97.305 127.305Zm-97.695-7.826V-516q0-18.126 12.611-30.737 12.611-12.611 30.737-12.611h20.173l86.697 86.696h-63.521v51.522q0 18.126-12.551 30.737-12.55 12.611-30.587 12.611t-30.798-12.611q-12.761-12.611-12.761-30.737Zm262.131-51.783 9.042-9.043q14.957-14.593 14.674-34.145-.282-19.551-14.674-34.508l-60.992-60.992q-11.008-11.008-26.747-5.146-15.739 5.863-15.739 21.486v23.477h-4.434l98.87 98.871Z"/></svg>