<svg xmlns="http://www.w3.org/2000/svg" height="24" viewBox="0 -960 960 960" width="24"><path d="M842-78 639-281 522-164q-8.958 9-19.782 13.5t-22.021 4.5q-11.197 0-22.16-4.5Q447.073-155 438-164L164-438q-9-8.958-13.5-19.782t-4.5-22.021q0-11.197 4.5-22.16Q155-512.927 164-522l137-137 233 232v41L100-820q-4-4-4.5-9.5T100-840q5-5 10-5t10 5L862-98q4 4 4.5 9.5T862-78q-5 5-10 5t-10-5ZM360.035-387q5.965 0 9.965-4.025t4-9.975v-106h80l-28-28h-50q-12 0-21 9t-9 21v104q0 5.95 4.035 9.975 4.035 4.025 10 4.025ZM715-357 598-475l25.13-25.282q8.87-8.923 8.87-20.821Q632-533 623-542l-36-35q-6-6-13.5-2.625T566-568v33h-28L357-715l81-81q8.958-9 19.782-13.5t22.021-4.5q11.197 0 22.16 4.5Q512.927-805 522-796l274 274q9 8.958 13.5 19.782t4.5 22.021q0 11.197-4.5 22.16Q805-447.073 796-438l-81 81Z"/></svg>