<svg xmlns="http://www.w3.org/2000/svg" height="24" viewBox="0 -960 960 960" width="24"><path d="m830.231-73.154-191-191-114 114q-9.66 9.693-21.332 14.539-11.673 4.846-23.747 4.846-12.075 0-23.855-4.846-11.779-4.846-21.528-14.539L150.154-434.769q-9.693-9.66-14.539-21.332-4.846-11.673-4.846-23.747 0-12.075 4.846-23.855 4.846-11.779 14.539-21.528l114-114L89.615-813.538q-5.846-5.847-6.115-13.885-.27-8.039 6.346-14.654 6.615-6.615 14.269-6.615t14.27 6.615l740.384 740.615q5.846 5.847 6.231 13.77.385 7.923-6.231 14.538-6.615 6.616-14.269 6.616t-14.269-6.616ZM611.692-291.692l-320-320-114.769 114.769Q170-490 170-480q0 10 6.923 16.923l286.154 286.154Q470-170 480-170q10 0 16.923-6.923l114.769-114.769ZM724-348.923l-27.538-27.539 86.615-86.615Q790-470 790-480q0-10-6.923-16.923L496.923-783.077Q490-790 480-790q-10 0-16.923 6.923l-86.615 86.615L348.923-724l85.846-85.846q9.66-9.693 21.332-14.539 11.673-4.846 23.747-4.846 12.075 0 23.855 4.846 11.779 4.846 21.528 14.539l284.615 284.615q9.693 9.66 14.539 21.332 4.846 11.673 4.846 23.747 0 12.075-4.846 23.855-4.846 11.779-14.539 21.528L724-348.923ZM536.462-536.462Zm-84.77 84.77ZM340-400v-107.692q0-13.731 9.288-23.02 9.289-9.288 23.02-9.288h47.923l40 40H380v100q0 8.5-5.758 14.25-5.757 5.75-14.269 5.75t-14.242-5.75Q340-391.5 340-400Zm261.846-71.077 27.178-26.609q9.592-9.391 9.592-22.594 0-13.203-9.693-23.105L584-587.539q-6.923-6.923-15.462-3.525-8.538 3.397-8.538 12.91V-540h-27.077l68.923 68.923Z"/></svg>