<svg xmlns="http://www.w3.org/2000/svg" height="20" viewBox="0 -960 960 960" width="20"><path d="M526-121q-24.7 0-41.85-17.089-17.15-17.09-17.15-41.7 0-24.611 17.15-41.911T526-239h54l-43-31q-19-13-24.5-36.5t8.4-43.773q13.9-20.272 37.5-25Q582-380 602-366l44 30-18-50q-8-23 3-44.5t33.5-30.5q22.5-9 45 1.667Q732-448.667 740-426l17 50 15-50q5.938-22.909 26.969-35.455Q820-474 842.88-468.054q22.88 5.946 35.5 27Q891-420 885-397l-62 232q-4 19-20.6 31.5T766-121H526Zm-402-2q-24.3 0-41.65-17.289Q65-157.579 65-181.789 65-206 82.35-223.5T124-241h237q5 32 13 61t29 57H124Zm0-199q-24.3 0-41.65-17.289Q65-356.579 65-380.789 65-405 82.35-422.5T124-440h281q-20 25-33 54.5T355-322H124Zm0-198q-24.3 0-41.65-17.289Q65-554.579 65-578.789 65-603 82.35-620.5T124-638h616q24.3 0 41.65 17.289 17.35 17.29 17.35 41.5Q799-555 781.65-537.5T740-520H124Zm0-199q-24.3 0-41.65-17.289Q65-753.579 65-777.789 65-802 82.35-819.5T124-837h616q24.3 0 41.65 17.289 17.35 17.29 17.35 41.5Q799-754 781.65-736.5T740-719H124Z"/></svg>