<svg xmlns="http://www.w3.org/2000/svg" height="20" viewBox="0 -960 960 960" width="20"><path d="M473.896-373.087q9.461 0 18.587-4.131 9.126-4.13 15.822-10.826L592.696-473q7-7 7-16.5t-7.305-16.804Q585.696-513 576.196-513t-16.5 7l-86 86-107-108h43q10.2 0 17.1-6.86 6.9-6.859 6.9-17 0-10.14-6.9-17.14t-17.1-7h-71q-20.387 0-34.694 14.307-14.306 14.306-14.306 34.694V-456q0 10.2 6.859 17.1 6.86 6.9 17 6.9 10.141 0 17.141-6.9 7-6.9 7-17.1v-33l100.391 100.391q6.695 6.696 16.522 11.109 9.826 4.413 19.287 4.413ZM222.783-172.782q-40.305 0-69.153-28.848-28.848-28.848-28.848-69.153v-418.434q0-41.005 28.848-69.503 28.848-28.498 69.153-28.498h418.434q41.005 0 69.503 28.498 28.498 28.498 28.498 69.503V-528l101.695-101.695q10.827-10.826 26.566-4.964 15.739 5.862 15.739 21.486v266.223q0 16.08-15.739 21.776-15.739 5.695-26.566-5.131L739.218-432v161.217q0 40.305-28.498 69.153-28.498 28.848-69.503 28.848H222.783Z"/></svg>