<svg xmlns="http://www.w3.org/2000/svg" height="20" viewBox="0 -960 960 960" width="20"><path d="M729-107.989 701-135v-6H186q-49.7 0-83.85-34.15Q68-209.3 68-259v-10q0-40.302 15.195-65.599Q98.391-359.896 134-380q57-33 119.479-51 62.48-18 128.521-18 2 0 4 1t4 1l-57-57h6q-42-11-75-44.5T220-623v6L112-725q-13-12.667-13-30.833Q99-774 112-787t31.167-12.5Q161.333-799 174-786l615.92 615.919Q803-157 802.5-138.818 802-120.636 789.105-108q-12.561 13-29.833 13T729-107.989Zm21-467.263h-56q-18.7 0-31.35-12.674Q650-600.6 650-619.234t12.65-31.239q12.65-12.605 31.35-12.605h56v-55.688q0-18.634 12.589-31.434 12.59-12.8 31.2-12.8 18.611 0 31.285 12.65T837.748-719v56h56.168q18.736 0 31.41 12.65T938-619q0 18.7-12.674 31.35Q912.652-575 893.916-575h-56.168v56q0 18.7-12.674 31.35Q812.4-475 794-475q-18.7 0-31.35-12.674Q750-500.348 750-519.084v-56.168ZM516-545 261-800q22-23 57.33-37.5T390-852q75 0 126.5 51T568-675q0 36-15 73.5T516-545Z"/></svg>