<svg xmlns="http://www.w3.org/2000/svg" height="20" viewBox="0 -960 960 960" width="20"><path d="M270.783-270.783H456V-384H270.783v113.217Zm0-161.217H456v-257.217H270.783V-432ZM504-270.783h184.652V-528H504v257.217ZM504-576h184.652v-113.217H504V-576ZM222.783-124.782q-40.305 0-69.153-28.848-28.848-28.848-28.848-69.153v-514.434q0-41.005 28.848-69.503 28.848-28.498 69.153-28.498h513.869q40.305 0 69.153 28.498 28.848 28.498 28.848 69.503V-672h104.479v80.479H834.653v70.999h104.479v81.044H834.653v70.999h104.479V-288H834.653v64.721q0 40.801-28.848 69.649t-69.153 28.848H222.783Zm0-98.001h513.869v-514.434H222.783v514.434Zm0-514.434v514.434-514.434Z"/></svg>