<svg xmlns="http://www.w3.org/2000/svg" height="20" viewBox="0 -960 960 960" width="20"><path d="M177.044-271.043q-41.005 0-69.503-28.498-28.498-28.498-28.498-69.503v-221.912q0-41.005 28.498-69.503 28.498-28.498 69.503-28.498h605.912q41.005 0 69.503 28.498 28.498 28.498 28.498 69.503v221.912q0 41.005-28.498 69.503-28.498 28.498-69.503 28.498H177.044Zm0-98.001h605.912v-221.912h-59.868q3.608 9.252 5.913 19.165 2.304 9.912 2.304 20.486 0 55-38.5 93.5t-93.5 38.5h-238.61q-55 0-93.5-38.5t-38.5-93.938q0-10.136 2.054-20.048 2.055-9.913 6.163-19.165h-59.868v221.912Zm183.651-142.61h73.131v-79.302h-73.131q-16.521 0-28.086 11.323-11.565 11.322-11.565 28.086 0 16.763 11.565 28.328 11.565 11.565 28.086 11.565Zm165.479 0h73.131q16.86 0 28.256-11.444 11.395-11.443 11.395-28.368 0-16.925-11.395-28.208-11.396-11.282-28.256-11.282h-73.131v79.302Zm256.782 142.61H177.044h605.912Z"/></svg>