<svg xmlns="http://www.w3.org/2000/svg" height="20" viewBox="0 -960 960 960" width="20"><path d="M347.789-684q9.211 0 16.711-7.289 7.5-7.29 7.5-16.5 0-9.211-7.289-16.711-7.29-7.5-16.5-7.5-9.211 0-16.711 7.289-7.5 7.29-7.5 16.5 0 9.211 7.289 16.711 7.29 7.5 16.5 7.5Zm120 0q9.211 0 16.711-7.289 7.5-7.29 7.5-16.5 0-9.211-7.289-16.711-7.29-7.5-16.5-7.5-9.211 0-16.711 7.289-7.5 7.29-7.5 16.5 0 9.211 7.289 16.711 7.29 7.5 16.5 7.5Zm11.683 418Q528-266 562-298.854q34-32.854 34-80.225 0-22.921-8.5-43.421t-25.615-37.615L498-521q-7.636-8-17.818-8-10.182 0-18.34 7.947l-63.386 61.983q-16.266 16.188-24.861 36.746Q365-401.765 365-379.015 365-332 398.357-299t81.115 33Zm.528-21q-40 0-68-26t-28-65.667q0-18.262 6-33.297Q396-427 409-440l71.495-71L556-435q11.043 10.308 15.522 25.154Q576-395 576-378.667 576-339 548-313t-68 26ZM295.717-148q-21.467 0-36.592-15.275T244-200v-560q0-21.45 15.287-36.725Q274.574-812 296.04-812h368.243q21.467 0 36.592 15.275T716-760v560q0 21.45-15.287 36.725Q685.426-148 663.96-148H295.717Z"/></svg>