<svg xmlns="http://www.w3.org/2000/svg" height="24" viewBox="0 -960 960 960" width="24"><path d="M320-692q11 0 19.5-8.5T348-720q0-11-8.5-19.5T320-748q-11 0-19.5 8.5T292-720q0 11 8.5 19.5T320-692Zm120 0q11 0 19.5-8.5T468-720q0-11-8.5-19.5T440-748q-11 0-19.5 8.5T412-720q0 11 8.5 19.5T440-692Zm39.944 426Q532-266 569-301.469t37-86.61q0-23.921-8-46.421t-25.115-39.615L501-546q-9-9-21-9t-21 9l-69 69q-17.81 18.118-27.405 41.176Q353-412.765 354-388.059 356-337 392.357-301.5t87.587 35.5Zm-.062-25Q439-291 410.5-319 382-347 382-388q0-18.929 6-35.964Q394-441 408-455l72-72 76 76q12 12 17 29t5 34q0 41-28.618 69-28.617 28-69.5 28ZM272-132q-24.75 0-42.375-17.625T212-192v-576q0-24.75 17.625-42.375T272-828h416q24.75 0 42.375 17.625T748-768v576q0 24.75-17.625 42.375T688-132H272Z"/></svg>