<svg xmlns="http://www.w3.org/2000/svg" height="20" viewBox="0 -960 960 960" width="20"><path d="M542.609-62.085q-111 0-187.697-78.311-76.696-78.312-76.696-189.343v-18.13q-95.739-14.391-161.588-85.805Q50.78-505.087 50.78-603.827v-191.435q0-20.387 14.307-34.694 14.307-14.306 34.694-14.306h91.913v-12q2.827-18.127 16.225-29.89 13.398-11.763 32-11.763 20.298 0 34.755 14.307 14.456 14.307 14.456 34.694v107.305q0 20.387-14.246 34.694-14.246 14.306-34.544 14.306-18.602 0-32.211-11.763-13.608-11.763-16.435-29.889v-12h-42.912v142.894q0 67.932 48.326 114.279 48.326 46.348 116.718 46.348 68.391 0 116.717-46.348 48.327-46.347 48.327-114.279v-142.894h-42.913v12q-2.827 18.126-16.225 29.889-13.398 11.763-32 11.763-20.298 0-34.755-14.306-14.456-14.307-14.456-34.694v-107.305q0-20.387 14.246-34.694 14.246-14.307 34.544-14.307 18.602 0 32.211 11.763 13.608 11.763 16.435 29.89v12h91.913q20.387 0 34.694 14.306 14.307 14.307 14.307 34.694v191.435q0 93.394-56.87 163.067t-143.783 89.761v22.26q0 70.029 48.389 119.841 48.39 49.811 118.002 49.811v97.002Zm146.348-202.568 118.132-117.638q14.781-14.144 34.534-14.427 19.754-.283 34.378 14.674 14.956 14.623 14.956 34.377 0 19.754-14.781 34.536l-153.351 153.35q-14.781 14.782-34.535 14.782-19.754 0-34.377-14.957l-68-68q-14.957-14.694-15.24-34.544-.282-19.85 14.675-34.544 14.865-14.957 34.781-14.957 19.915 0 34.872 14.957l33.956 32.391Z"/></svg>