<svg xmlns="http://www.w3.org/2000/svg" height="24" viewBox="0 -960 960 960" width="24"><path d="M684-328H581q-5 0-9-4.025T568-342q0-5 4.025-9.5T582-356h102v-102q0-5.95 4.035-9.975 4.035-4.025 10-4.025t9.965 4.025q4 4.025 4 9.975v102h102q5.95 0 9.975 4.035 4.025 4.035 4.025 10T823.975-332q-4.025 4-9.975 4H712v102q0 5.95-4.035 9.975-4.035 4.025-10 4.025T688-216.025q-4-4.025-4-9.975v-102Zm-278 0H284q-63.08 0-107.54-44.443Q132-416.887 132-479.943 132-543 176.46-587.5T284-632h122q5 0 9.5 4.5t4.5 10q0 5.5-4.5 9.5t-9.5 4H283.882Q233-604 196.5-567.5 160-531 160-480t36.5 87.5Q233-356 283.882-356H406q5 0 9.5 4.5t4.5 10q0 5.5-4.5 9.5t-9.5 4Zm-46-138q-5.95 0-9.975-4.035-4.025-4.035-4.025-10t4.025-9.965q4.025-4 9.975-4h240q5.95 0 9.975 4.035 4.025 4.035 4.025 10T609.975-470q-4.025 4-9.975 4H360Zm468-14h-28q0-51-36.5-87.5T676.123-604H553q-5 0-9-4.025T540-618q0-5 4.025-9.5T554-632h122q63.08 0 107.54 44.46Q828-543.08 828-480Z"/></svg>