<svg xmlns="http://www.w3.org/2000/svg" height="20" viewBox="0 -960 960 960" width="20"><path d="M354-132.695q-92.456 0-156.881-64.424Q132.695-261.544 132.695-354q0-44.261 16.874-85.497 16.873-41.236 47.518-71.982l251.434-251.434q30.707-30.645 71.893-47.518Q561.6-827.305 606-827.305q92.456 0 156.881 64.424Q827.305-698.456 827.305-606q0 44.261-16.874 85.497-16.873 41.236-47.518 71.982L511.479-197.087q-30.707 30.645-71.893 47.518Q398.4-132.695 354-132.695Zm247.87-295.089 91.475-90.965q18.22-18.295 27.089-40.186 8.87-21.891 8.87-46.795 0-51.526-36.024-87.55-36.024-36.024-87.55-36.024-24.904 0-46.795 8.87-21.891 8.869-40.186 27.089l-90.965 91.475L601.87-427.784ZM354.333-230.696q24.507 0 46.565-8.87 22.058-8.869 40.353-27.089l90.965-91.475L358.13-532.216l-90.475 90.965q-18.22 18.295-27.589 40.353-9.37 22.058-9.37 46.565 0 51.589 36.024 87.613t87.613 36.024Z"/></svg>