<svg xmlns="http://www.w3.org/2000/svg" height="20" viewBox="0 -960 960 960" width="20"><path d="M354-184q-70.81 0-120.405-49.595T184-354q0-34.308 13.307-66.385 13.308-32.077 36.154-54.923l251.231-251.231q22.846-22.846 54.923-36.154Q571.692-776 606-776q70.81 0 120.405 49.595T776-606q0 34.308-13.307 66.385-13.308 32.077-36.154 54.923L475.308-233.461q-22.846 22.846-54.923 36.154Q388.308-184 354-184Zm235.154-210.154L704-508q20-20 30-45t10-52.667q0-57.241-40.546-97.787Q662.908-744 605.667-744 578-744 553-734t-45 30L394.154-589.154l195 195ZM354.333-216Q382-216 407-226t45-30l113.846-114.846-195-195L257-452q-20 20-30.5 45T216-354.333q0 57.241 40.546 97.787Q297.092-216 354.333-216Z"/></svg>