<svg xmlns="http://www.w3.org/2000/svg" height="20" viewBox="0 -960 960 960" width="20"><path d="M348.13-342.172q-23.062 0-39.205-16.143-16.143-16.143-16.143-39.205 0-23.062 16.143-39.205 16.143-16.143 39.205-16.143 23.062 0 39.205 16.143 16.143 16.143 16.143 39.205 0 23.062-16.143 39.205-16.143 16.143-39.205 16.143ZM480-209.171q-23.062 0-39.205-16.143-16.143-16.144-16.143-39.205 0-23.062 16.143-39.205 16.143-16.143 39.205-16.143 23.062 0 39.205 16.143 16.143 16.143 16.143 39.205 0 23.061-16.143 39.205-16.143 16.143-39.205 16.143Zm-131.87 133q-23.062 0-39.205-16.143-16.143-16.143-16.143-39.205 0-23.061 16.143-39.205 16.143-16.143 39.205-16.143 23.062 0 39.205 16.143 16.143 16.144 16.143 39.205 0 23.062-16.143 39.205Q371.192-76.17 348.13-76.17Zm263.175-266.001q-23.062 0-39.205-16.143-16.143-16.143-16.143-39.205 0-23.062 16.143-39.205 16.143-16.143 39.205-16.143 23.062 0 39.205 16.143 16.143 16.143 16.143 39.205 0 23.062-16.143 39.205-16.143 16.143-39.205 16.143Zm0 266.002q-23.062 0-39.205-16.144-16.143-16.143-16.143-39.205 0-23.061 16.143-39.205 16.143-16.143 39.205-16.143 23.062 0 39.205 16.143 16.143 16.144 16.143 39.205 0 23.062-16.143 39.205-16.143 16.144-39.205 16.144ZM742.61-209.171q-23.062 0-39.205-16.143-16.143-16.144-16.143-39.205 0-23.062 16.143-39.205 16.143-16.143 39.205-16.143 23.062 0 39.205 16.143 16.143 16.143 16.143 39.205 0 23.061-16.143 39.205-16.143 16.143-39.205 16.143Zm-525.785 0q-23.062 0-39.205-16.143-16.143-16.144-16.143-39.205 0-23.062 16.143-39.205 16.143-16.143 39.205-16.143 23.062 0 39.205 16.143 16.143 16.143 16.143 39.205 0 23.061-16.143 39.205-16.143 16.143-39.205 16.143Zm116.784-310.045q-33.681 0-59.559-18.5t-34.008-49.675l-27.739-77.826h-10.999q-41.005 0-69.504-28.498-28.498-28.498-28.498-69.503V-909.22h753.396v146.002q0 41.305-28.498 69.653-28.499 28.348-69.504 28.348h-10.999l-24.913 76.13q-9.157 31.209-34.909 50.54-25.751 19.331-58.788 19.331H333.609ZM200.173-811.218v48h559.654v-48H200.173Zm114.001 146.001 19.435 48h292.782l18.435-48H314.174ZM200.173-811.218v48-48Z"/></svg>