<svg xmlns="http://www.w3.org/2000/svg" height="20" viewBox="0 -960 960 960" width="20"><path d="M872.131-671.522H676.783v-56.609h99.847q-51.804-68.891-130.652-102.858Q567.13-864.957 480-864.957q-87.13 0-165.978 33.968-78.848 33.967-130.652 102.858h102.239v56.609H87.869v-200.609h56.609v101.696q60.239-77.044 149.12-114.087 88.88-37.043 186.402-37.043 97.522 0 186.402 37.043 88.881 37.043 149.12 114.087v-101.696h56.609v200.609ZM384.869-87.869 146.608-328.761l60.913-64.022 121.305 32.587v-362.913h78.217v464.805l-112.195-30.87 121.891 123.087h290.74V-485.5h78.217v397.63H384.869Zm70.174-293.022V-581.5h78.218v200.609h-78.218Zm126.218 0V-533.5h78.218v152.609h-78.218Zm-20.478 83.043Z"/></svg>