<svg xmlns="http://www.w3.org/2000/svg" height="24" viewBox="0 -960 960 960" width="24"><path d="M840-664.615H664.615V-700H796q-68.308-55.693-148.154-90.539Q568-825.385 480-825.385t-167.846 34.846Q232.308-755.693 164-700h131.385v35.385H120V-840h35.385v100.23q71.23-54.384 153.23-87.692 82-33.308 171.385-33.308 89.385 0 171.385 33.308 82 33.308 153.23 87.692V-840H840v175.385ZM432.231-120 205.538-346.154l36.847-35.769L380-347.615V-700h40v406.077L274.539-333.23l174 173.23H720v-280h40v320H432.231Zm60.846-260v-180h40v180h-40Zm113.846 0v-140h40v140h-40Zm-29 105.385Z"/></svg>