<svg xmlns="http://www.w3.org/2000/svg" height="24" viewBox="0 -960 960 960" width="24"><path d="M220-209.231q-8.5 0-14.25-5.758-5.75-5.757-5.75-14.269 0-8.511 5.75-14.242 5.75-5.731 14.25-5.731h44.615v-316.923q0-78.384 49.616-137.884Q363.846-763.539 440-778.154V-800q0-16.667 11.64-28.334Q463.28-840 479.91-840q16.629 0 28.359 11.666Q520-816.667 520-800v21.846q76.154 14.615 125.769 74.116 49.616 59.5 49.616 137.884v316.923H740q8.5 0 14.25 5.758t5.75 14.269q0 8.512-5.75 14.242-5.75 5.731-14.25 5.731H220Zm260-286.154Zm-.136 390.77q-26.71 0-45.595-18.981-18.884-18.981-18.884-45.635h129.23q0 26.846-19.02 45.731-19.021 18.885-45.731 18.885ZM304.615-249.231h350.77v-316.923q0-72.923-51.231-124.154-51.231-51.23-124.154-51.23t-124.154 51.23q-51.231 51.231-51.231 124.154v316.923Zm-155-317.692q-8.923 0-14.654-6.462-5.731-6.461-5.269-15.769 4.154-63.462 29.692-119.885 25.539-56.423 67.001-99.807 6.846-6.385 15.269-7.308t14.577 5.769q6.154 6.692 5.692 15-.461 8.308-7.308 14.923-35.923 37.77-57.846 86.385Q174.846-645.462 170.692-590q-1.231 9.308-6.692 16.192-5.462 6.885-14.385 6.885Zm661.154 0q-9.307 0-14.769-6.885-5.461-6.884-6.692-16.192-4.154-55.462-25.693-103.692-21.538-48.231-57.461-86-7.118-6.546-8.213-15.273-1.095-8.728 5.059-15.42t14.962-5.385q8.807 1.308 15.653 7.693 41.462 43.384 67.001 99.423 25.538 56.038 29.692 119.5.462 9.308-5.288 15.769-5.751 6.462-14.251 6.462Z"/></svg>