<svg xmlns="http://www.w3.org/2000/svg" height="20" viewBox="0 -960 960 960" width="20"><path d="M108-544h124q3.467 0 5.733 2.253 2.267 2.254 2.267 5.7 0 3.447-2.267 5.747-2.266 2.3-5.733 2.3H106q-11.05 0-18.525-7.475Q80-542.95 80-554v-126q0-3.467 2.254-5.733 2.253-2.267 5.7-2.267 3.446 0 5.746 2.267Q96-683.467 96-680v124l119-119q2.727-2 6.364-2 3.636 0 5.636 2t2 5.636q0 3.637-2 6.364L108-544Zm308-308L297-733q-2.727 2-6.364 2-3.636 0-5.636-2t-2-5.636q0-3.637 2-6.364l119-119H280q-3.467 0-5.733-2.253-2.267-2.254-2.267-5.7 0-3.447 2.267-5.747 2.266-2.3 5.733-2.3h126q11.05 0 18.525 7.475Q432-865.05 432-854v126q0 3.467-2.253 5.733-2.254 2.267-5.7 2.267-3.447 0-5.747-2.267-2.3-2.266-2.3-5.733v-124Zm131 740q-19 0-35.5-7T481-140L303.824-315.234Q298.5-321 298.75-327.5T306-339l3-3q5-4 10-4.5t12 .5l135 30v-332q0-4.25 2.825-7.125 2.824-2.875 7-2.875 4.175 0 7.175 2.875t3 7.125v266h91v-147.737q0-4.213 2.825-7.238 2.824-3.025 7-3.025 4.175 0 7.175 2.875t3 7.125v148h92v-100q0-4.25 2.825-7.125 2.824-2.875 7-2.875 4.175 0 7.175 2.875t3 7.125v100h91v-52q0-4.25 2.825-7.125 2.824-2.875 7-2.875 4.175 0 7.175 2.875t3 7.125v180q0 60-41 101t-100.803 41H547Z"/></svg>