<svg xmlns="http://www.w3.org/2000/svg" height="24" viewBox="0 -960 960 960" width="24"><path d="m443-349.565 74-101 73 101 140.174-191.131-75.87-56.044L590-509.435l-74-101.566-73 101.566-74-101-139.174 191.131 75.87 56.044L369-450.565l74 101Zm37 288.783q-87.522 0-163.906-32.96-76.385-32.96-132.888-89.464-56.504-56.503-89.464-132.888Q60.782-392.478 60.782-480t32.96-163.906q32.96-76.385 89.464-132.888 56.503-56.504 132.888-89.464 76.384-32.96 163.906-32.96t163.906 32.96q76.385 32.96 132.888 89.464 56.504 56.503 89.464 132.888 32.96 76.384 32.96 163.906t-32.96 163.906q-32.96 76.385-89.464 132.888-56.503 56.504-132.888 89.464Q567.522-60.782 480-60.782Zm0-106.001q131.739 0 222.478-90.739T793.217-480q0-131.739-90.739-222.478T480-793.217q-131.739 0-222.478 90.739T166.783-480q0 131.739 90.739 222.478T480-166.783ZM480-480Z"/></svg>