<svg xmlns="http://www.w3.org/2000/svg" height="20" viewBox="0 -960 960 960" width="20"><path d="m444-366.739 72-96 71 96 125.304-169.978-63.021-45.827L587-497.261 515-593.5l-71 96.239-71-96-125.304 169.978 63.021 45.827L373-462.739l71 96Zm36 278.87q-80.913 0-152.345-30.618t-124.991-84.177q-53.559-53.559-84.177-124.991Q87.869-399.087 87.869-480q0-81.913 30.618-152.845t84.177-124.491q53.559-53.559 124.991-84.177Q399.087-872.131 480-872.131q81.913 0 152.845 30.618t124.491 84.177q53.559 53.559 84.177 124.491Q872.131-561.913 872.131-480q0 80.913-30.618 152.345t-84.177 124.991q-53.559 53.559-124.491 84.177Q561.913-87.869 480-87.869Z"/></svg>