<svg xmlns="http://www.w3.org/2000/svg" height="24" viewBox="0 -960 960 960" width="24"><path d="M578-151.521q-20.391 0-34.435-14.044-14.044-14.044-14.044-34.435 0-20.391 14.044-34.435 14.044-14.044 34.435-14.044h85.868l-69.39-49.173q-16.826-12.261-20.457-31.152-3.63-18.892 7.631-35.718 11.261-16.826 30.652-20.457 19.392-3.63 36.218 7.631l70.955 48.738-29.956-80.564q-7.13-18.391 1.566-36.783 8.695-18.391 28.087-25.522 19.391-7.13 37.783 1.566 18.391 8.695 25.522 28.087l28.391 79.998 22.651-82.433q5.566-19.391 22.457-29.587 16.892-10.196 36.283-4.631 19.391 5.566 29.87 22.457 10.478 16.892 4.913 36.283l-71.696 268.218H578Zm-493.61 22.61v-724.09H773v298.827q-12.827-3.696-26.218-4.761Q733.391-560 720-560q-13.391 0-26.783 1.065-13.391 1.065-26.218 4.761v-192.825H190.391v373.998h295.435q-3.696 12.827-4.761 26.218Q480-333.391 480-320q0 13.391 1.065 26.783 1.065 13.391 4.761 26.218H222.477L84.389-128.911ZM251.172-589.26h355.611v-96.958H251.172v96.958Zm0 155.478h235.611v-96.958H251.172v96.958Zm-60.781 60.781v-373.998 373.998Z"/></svg>