<svg xmlns="http://www.w3.org/2000/svg" height="24" viewBox="0 -960 960 960" width="24"><path d="M578-180q-8.5 0-14.25-5.758-5.75-5.757-5.75-14.269t5.75-14.242Q569.5-220 578-220h176.077L610.538-321.154q-7.198-4.934-8.483-12.582-1.286-7.649 3.145-14.796 4.431-7.146 12.308-8.423 7.877-1.276 14.954 3.109l145.307 100.923-61.308-166q-2.923-7.308 1-15 3.924-7.692 11.462-10.616 7.539-2.923 15.616 1 8.076 3.924 11 11.462l59.538 164.461 46.154-168.999q2.692-7.539 9.269-12.193t14.115-1.961q7.539 2.692 12.577 9.269 5.039 6.577 2.347 14.115L832.615-180H578ZM284.615-620h310.77v-40h-310.77v40Zm0 160h190.77v-40h-190.77v40ZM140-208.461V-820h600v260.692q-7.692-.461-15.385-.577-7.692-.115-15.384-.115-95.616 0-162.423 66.859Q480-426.282 480-330.769q0 7.692.115 15.384.116 7.693.577 15.385H231.539L140-208.461Z"/></svg>