<svg xmlns="http://www.w3.org/2000/svg" height="20" viewBox="0 -960 960 960" width="20"><path d="M584-192q-16.575 0-27.787-10.5Q545-213 545-230t11.213-28q11.212-11 27.787-11h108l-89-62q-14-9-16-24t7-29q8.635-14 23.986-16.5 15.352-2.5 28.784 6.5L736-332l-37-102q-6-16 .5-29.5T722-483q16-6 30 .5t19 22.5l37 102 29-105q4.922-16 18.211-24.5Q868.5-496 884.25-491 900-486 908-472.5t3 29.5l-68 251H584Zm-440 0v-624h576v240-1.5.5q-18 2-36.5 4.5T648-564v-180H216v360h269q-2 10-3.5 19t-1.5 19v17q0 9 2 17H264L144-192Zm144-408h288v-72H288v72Zm0 144h192v-72H288v72Zm-72 72v-360 360Z"/></svg>