<svg xmlns="http://www.w3.org/2000/svg" height="20" viewBox="0 -960 960 960" width="20"><path d="M584-183.521q-19.966 0-33.723-13.044-13.756-13.044-13.756-33.435 0-20.391 13.756-33.935 13.757-13.544 33.723-13.544h80.868l-66.39-46.173q-16.826-11.261-19.957-29.652-3.13-18.392 8.131-35.218 10.896-16.826 29.639-20.457 18.743-3.63 35.001 7.631l67.185 46.738-27.956-76.564q-7.13-19.391 1.066-36.283 8.195-16.891 27.587-24.022 19.391-7.13 36.783 1.066 17.391 8.195 23.522 27.587l27.391 75.998 21.651-78.433q5.487-19.391 22.168-29.587 16.681-10.196 35.822-4.631 19.141 5.566 29.12 22.457 9.978 16.892 4.413 36.283l-69.696 257.218H584ZM259.172-589.26h323.611v-88.958H259.172v88.958Zm0 139.478h227.611v-88.958H259.172v88.958ZM108.389-160.911v-668.09h624.612v254.827q-2.827-1.696-6.218-2.261Q723.391-577 720-577q-90.261 1-165.13 65.435Q480-447.13 480-346q0 11.391.565 23.783.565 12.391 4.261 23.218H246.477L108.389-160.911Z"/></svg>