<svg xmlns="http://www.w3.org/2000/svg" height="20" viewBox="0 -960 960 960" width="20"><path d="M584-212q-8.075 0-13.538-4.758Q565-221.515 565-230.027t5.462-13.742Q575.925-249 584-249h171.077l-140.539-98.154q-7.198-3.934-7.983-11.082-.786-7.149 3.645-14.296 4.066-7.146 11.294-8.423 7.228-1.276 13.738 3.109l141.537 98.923-59.308-162q-2.923-8.308.5-14.5 3.424-6.192 10.962-9.116 7.539-2.923 14.616.5 7.076 3.424 9 10.962l58.538 160.461 45.154-164.999q2.614-7.539 8.98-12.193 6.366-4.654 13.654-1.961 7.289 2.692 11.827 9.269 4.539 6.577 1.847 14.115L827.615-212H584ZM292.615-620h278.77v-32h-278.77v32Zm0 144h182.77v-32h-182.77v32ZM164-240.461V-796h536v216.692q2.308 1.539 4.615 1.923 2.308.385 4.616.385-82.616 1-155.923 62.859Q480-452.282 480-356.769q0 5.692-.385 12.384-.384 6.693.077 12.385H255.539L164-240.461Z"/></svg>