<svg xmlns="http://www.w3.org/2000/svg" height="20" viewBox="0 -960 960 960" width="20"><path d="M138.868-260.955q-27.751 17.956-56.55 2.418-28.799-15.539-28.799-48.158v-345.61q0-32.935 28.783-48.598 28.783-15.664 56.566 2.858L399.826-525.74q25.217 16.624 25.217 45.573 0 28.95-25.217 45.907L138.868-260.955Zm437.263 0q-27.751 17.956-56.55 2.418-28.799-15.539-28.799-48.158v-345.61q0-32.935 28.783-48.598 28.783-15.664 56.566 2.858L837.089-525.74q25.217 16.624 25.217 45.573 0 28.95-25.217 45.907L576.131-260.955Z"/></svg>