<svg xmlns="http://www.w3.org/2000/svg" height="20" viewBox="0 -960 960 960" width="20"><path d="M216.599-250.999q-95.686 0-162.643-66.726T-13-479.769q0-95.318 66.96-162.275 66.962-66.957 162.617-66.957 38.685 0 74.446 13.348 35.761 13.348 64.457 39.044l71.651 63.086L353.912-528l-62.391-55.391q-15.304-13.304-34.217-20.456-18.912-7.152-39.066-7.152-55.497 0-94.367 38.131-38.87 38.131-38.87 92.956t38.87 93.368q38.87 38.543 94.367 38.543 20.154 0 39.066-7.152 18.913-7.152 34.217-20.456l313-281q28.696-24.696 64.434-38.544 35.738-13.848 74.43-13.848 95.671 0 162.644 66.906Q973.001-575.19 973.001-480q0 96.087-67.375 162.544Q838.251-250.999 742-250.999q-38.556 0-74.17-13.348-35.613-13.348-64.309-39.044l-72.651-64.086L606.088-432l62.391 55.391q15.304 13.304 34.217 20.456 18.912 7.152 39.066 7.152 55.497 0 94.367-38.131 38.87-38.131 38.87-92.956t-38.87-93.368q-38.87-38.543-94.367-38.543-20.154 0-39.066 7.152-18.913 7.152-34.217 20.456L355.719-303.47q-28.936 25.775-64.679 39.123-35.743 13.348-74.441 13.348Z"/></svg>