<svg xmlns="http://www.w3.org/2000/svg" height="24" viewBox="0 -960 960 960" width="24"><path d="M279.819-150.769q-43.665 0-74.05-30.513-30.384-30.513-30.384-74.103h-30.77q-26.654 0-45.634-18.98Q80-293.346 80-320v-135.385q0-26.653 18.98-45.634Q117.962-520 144.616-520H520v-135.385q0-26.654 18.981-45.634Q557.961-720 584.615-720H660v-20q0-13.731 9.288-23.02 9.289-9.288 23.02-9.288h15.384q13.731 0 23.02 9.288Q740-753.731 740-740v20h24.308q21 0 37.961 12.063 16.962 12.063 23.424 32.168L877-523.838q1.769 5.299 2.385 10.299.615 5.001.615 10.385V-320q0 26.654-18.981 45.635-18.98 18.98-45.634 18.98h-30.77q0 43.847-30.565 74.231-30.566 30.385-74.231 30.385-43.665 0-74.05-30.513-30.384-30.513-30.384-74.103h-190.77q0 43.847-30.565 74.231-30.566 30.385-74.231 30.385Zm.181-40q27 0 45.808-18.808 18.807-18.808 18.807-45.423 0-26.615-18.807-45.807Q307-320 280-320t-45.808 19.193Q215.385-281.615 215.385-255q0 26.615 18.807 45.423Q253-190.769 280-190.769Zm400 0q27 0 45.808-18.808 18.807-18.808 18.807-45.423 0-26.615-18.807-45.807Q707-320 680-320t-45.808 19.193Q615.385-281.615 615.385-255q0 26.615 18.807 45.423Q653-190.769 680-190.769ZM120-455.385V-320q0 10.769 6.923 17.692t17.692 6.923h41q10.847-29 36.539-46.807Q247.846-360 280-360q32.154 0 57.846 17.808 25.692 17.807 36.539 46.807H520V-480H144.615q-10.769 0-17.692 6.923T120-455.385Zm440 160h25.615q10.847-29 36.539-46.807Q647.846-360 680-360q32.154 0 57.846 17.808 25.692 17.807 36.539 46.807h41q10.769 0 17.692-6.923T840-320v-160H560v184.615ZM560-520h276l-47.846-143.077q-2.308-7.692-8.846-12.308-6.539-4.615-15-4.615H584.615q-10.769 0-17.692 6.923T560-655.385V-520Zm-440-75.385v-89.23H97.692q-7.667 0-12.68-5.003Q80-694.621 80-702.272t5.013-12.69Q90.025-720 97.693-720h339.999q7.667 0 12.68 5.002 5.013 5.003 5.013 12.654 0 7.652-5.013 12.69-5.013 5.039-12.68 5.039h-22.307v89.23h22.307q7.667 0 12.68 5.003t5.013 12.654q0 7.651-5.013 12.69-5.013 5.038-12.68 5.038h-340q-7.667 0-12.68-5.003Q80-570.005 80-577.657q0-7.651 5.013-12.689 5.012-5.039 12.68-5.039H120Zm35.385 0H250v-89.23h-94.615v89.23Zm130 0H380v-89.23h-94.615v89.23ZM120-480h400-400Zm440 0h280-280Z"/></svg>