<svg xmlns="http://www.w3.org/2000/svg" height="20" viewBox="0 -960 960 960" width="20"><path d="M263.765-184Q229-184 202.5-205.167 176-226.333 166-260h-14q-21.45 0-36.725-15.275Q100-290.55 100-312v-140q0-21.45 15.275-36.725Q130.55-504 152-504h380v-112.249q0-21.501 15.275-36.626Q562.55-668 584-668h66v-46q-2-5.75 2.6-9.875T664-728h40q5.75 0 8.875 4.125T718-714v46h30q14.5 0 27.25 6.682T794-642l59.3 110.91q3.7 6.669 5.2 12.929Q860-511.9 860-506v194q0 21.45-15.275 36.725Q829.45-260 808-260h-14q-10 34-36.735 55-26.736 21-61.5 21Q661-184 634.5-205.167 608-226.333 598-260H362q-10 34-36.735 55-26.736 21-61.5 21Zm.235-20q33.4 0 56.7-23.3 23.3-23.3 23.3-56.2 0-32.9-23.3-56.7Q297.4-364 264-364q-33.4 0-56.7 23.8-23.3 23.8-23.3 56.7 0 32.9 23.3 56.2Q230.6-204 264-204Zm432 0q33.4 0 56.7-23.3 23.3-23.3 23.3-56.2 0-32.9-23.3-56.7Q729.4-364 696-364q-33.4 0-56.7 23.8-23.3 23.8-23.3 56.7 0 32.9 23.3 56.2Q662.6-204 696-204ZM552-504h288l-61-122q-3-10-11.5-16t-19.5-6H584q-14 0-23 9t-9 23v112Zm-404-64v-84h-40q-3.467 0-5.733-2.253-2.267-2.254-2.267-5.7 0-3.447 2.267-5.747 2.266-2.3 5.733-2.3h336q3.467 0 5.733 2.253 2.267 2.254 2.267 5.7 0 3.447-2.267 5.747-2.266 2.3-5.733 2.3h-40v84h40q3.467 0 5.733 2.253 2.267 2.254 2.267 5.7 0 3.447-2.267 5.747-2.266 2.3-5.733 2.3H108q-3.467 0-5.733-2.253-2.267-2.254-2.267-5.7 0-3.447 2.267-5.747 2.266-2.3 5.733-2.3h40Zm16 0h104v-84H164v84Zm120 0h104v-84H284v84Z"/></svg>