<svg xmlns="http://www.w3.org/2000/svg" height="24" viewBox="0 -960 960 960" width="24"><path d="M281.765-89Q225-89 185.5-128.958 146-168.917 146-226h-11q-53 0-89.5-36.5T9-352v-62q0-53 36.5-89.5T135-540h360v-124q0-53 36.5-89.5T621-790h6v-40q0-26 18.5-44.5T690-893h30q26 0 44.5 18.5T783-830v40h-8q40.529 0 73.265 24Q881-742 894-704l51 151q3 10 4.5 19.75T951-513v183q0 42.9-30.55 73.45Q889.9-226 847-226q0 57-39.735 97-39.736 40-96.5 40Q654-89 614.5-128.958 575-168.917 575-226H418q0 57-39.735 97-39.736 40-96.5 40Zm.235-96q17 0 28.5-11.5T322-225q-1-17-12.212-28.5Q298.575-265 282-265q-16.575 0-27.788 11Q243-243 242-226q0 17.425 11.5 29.212Q265-185 282-185Zm429 0q17 0 28.5-11.788Q751-208.575 751-226q-1-17-12.213-28-11.212-11-27.787-11t-27.787 11.5Q672-242 671-225q0 17 11.5 28.5T711-185Zm-90-355h196l-42-124H621v124ZM57-660v-50h-8q-17.333 0-28.667-11.267Q9-732.535 9-749.767 9-767 20.333-778.5 31.667-790 49-790h366q17.333 0 28.667 11.267Q455-767.465 455-750.233 455-733 443.667-721.5 432.333-710 415-710h-8v50h8q17.333 0 28.667 11.267Q455-637.465 455-620.233 455-603 443.667-591.5 432.333-580 415-580H49q-17.333 0-28.667-11.267Q9-602.535 9-619.767 9-637 20.333-648.5 31.667-660 49-660h8Zm80 0h55v-50h-55v50Zm135 0h55v-50h-55v50Z"/></svg>