<svg xmlns="http://www.w3.org/2000/svg" height="20" viewBox="0 -960 960 960" width="20"><path d="M312-248q-66.605 0-110.803-49Q157-346 152-420v-18l-10-16q-39-60-50.5-127.5T80-689q0-89 49-164t133-75q78.333 0 132.167 69.596Q448-788.808 448-688q0 40-9.5 84.5T408-503l3 5q16.778 27.236 26.889 59.073Q448-407.091 448-379.891 448-324 409.84-286q-38.16 38-97.84 38Zm-91.48-281L309-548q11-38 21-73t10-70.154q0-51.692-22-90.269Q296-820 264-820t-54 39.206q-22 39.207-22 100.054 0 32.74 8 73.74 8 41 24.52 78Zm92.161 173q12.899 0 20.109-7.972Q340-371.943 340-384q0-11.358-6-27.679Q328-428 320-439l-60 13q4 33 19.5 51.5t33.181 18.5ZM648-32q-59.68 0-97.84-38Q512-108 512-163.833q0-27.167 10.111-58.947T549-283l3-4q-21-55-30.5-100t-9.5-85q0-100.808 53.833-170.404Q619.667-712 698-712q84 0 133 75t49 164q0 39-11 106t-51 130l-9 16-1 16q-4 74-48 123.5T648-32Zm92-285q15-28 23.5-73.5T772-470q0-56.125-22-95.562Q728-605 696-605t-54 38.577q-22 38.577-22 92.269 0 27.154 7.5 62.654T653-326l87 9Zm-94.118 177Q664-140 680-159.5q16-19.5 20-52.5l-63-6q-8 13-12.5 25.828-4.5 12.829-4.5 22.068 0 11.104 6.412 20.604t19.47 9.5Z"/></svg>