<svg xmlns="http://www.w3.org/2000/svg" height="24" viewBox="0 -960 960 960" width="24"><path d="M312.174-230.956q-74.174 0-118.131-55.304-43.956-55.305-43.087-134.218v-2.261l-16.304-24.739q-20.609-31.131-42.153-95.371-21.543-64.239-21.543-138.847 0-105.826 53.544-176.587 53.543-70.761 134.37-70.761 84.434 0 137.304 74.652 52.87 74.652 52.87 173.262 0 48.956-12.609 95.129-12.608 46.174-30.261 90.871l5.739 9.043q13.088 21.913 25.109 54.109 12.022 32.196 12.022 62.935 0 58.13-38.609 98.109-38.609 39.978-98.261 39.978Zm-99.348-280.871 99.826-20.304q12.435-35.392 24.239-72.152 11.804-36.761 11.804-78.543 0-56.609-25.239-101.239T260-828.695q-38.217 0-63.456 44.913-25.239 44.912-25.239 106.608 0 47.173 12.695 90.304 12.696 43.13 28.826 75.043Zm99.913 180.522q16.174 0 26.065-10.891 9.891-10.891 9.891-29.108 0-14.174-6.869-31.609-6.87-17.435-14.87-29.739l-75.651 16.043q1.13 37.174 16.935 61.239 15.804 24.065 44.499 24.065ZM647.826-30.956q-59.652 0-98.261-39.978-38.609-39.979-38.609-98.109 0-30.739 12.022-62.652 12.021-31.914 25.109-54.392l5.739-9.043q-17.653-44.132-30.261-90.588-12.609-46.456-12.609-95.412 0-98.61 52.87-173.262t137.304-74.652q80.827 0 134.37 70.761 53.544 70.761 53.544 176.587 0 74.043-21.261 137.5-21.26 63.456-42.435 96.283l-16.304 25.739v1.696q.435 78.913-43.305 134.218Q722-30.956 647.826-30.956Zm99.348-283.697q15-26.826 28.26-72 13.261-45.174 13.261-93.347 0-58.87-25.239-103.782-25.239-44.913-63.456-44.913t-63.456 44.63q-25.239 44.63-25.239 102.369 0 37.261 10.391 73.521 10.391 36.261 26.783 79.435l98.695 14.087ZM646.696-131.305q28.695 0 44.782-24.63 16.087-24.63 17.217-61.804l-77.347-12.087q-8 13.435-14.021 28.892-6.022 15.456-6.022 28.499 0 15.478 9.391 28.304 9.391 12.826 26 12.826Z"/></svg>