<svg xmlns="http://www.w3.org/2000/svg" height="20" viewBox="0 -960 960 960" width="20"><path d="M317-316q-41.605 0-67.303-33Q224-382 220-434v-23l-21-34q-34-54-42.5-110t-8.5-85q0-62 30-118t86-56q48.333 0 82.167 50.096Q380-759.808 380-686q0 49-16 102t-31 88l20 34q12.778 20.236 19.889 40.573Q380-401.091 380-386.891 380-355 362.34-335.5T317-316Zm-82.48-155L310-492q14-32 32-90t18-104.154q0-63.692-27.5-108.769Q305-840 264-840t-68.5 45.206Q168-749.587 168-685.74q0 53.74 18 114.24Q204-511 234.52-471Zm82.161 135q18.899 0 31.109-14.472Q360-364.943 360-387q0-16.358-9.5-38.679T323-474l-83 22q2 54 23 85t53.681 31ZM643-100q-27.68 0-45.34-19.5Q580-139 580-170.833q0-14.167 7.111-34.947T607-247l20-33q-14-34-30.5-87.5T580-470q0-73.808 33.833-123.904Q647.667-644 696-644q56 0 86 56t30 118q0 29-8 84.5T761-274l-20 33-1 23q-3 49-29 83.5T643-100Zm79-148q42-64 56-113.5T792-470q0-64.125-27.5-109.562Q737-625 696-625t-68.5 45.077Q600-534.846 600-471.154 600-425 618.5-366.5 637-308 650-276l72 28Zm-79.118 128Q674-120 696-150q22-30 24-79l-82-30q-11 20-24.5 42.828-13.5 22.829-13.5 45.068Q600-151 612.912-135.5t29.97 15.5Z"/></svg>