<svg xmlns="http://www.w3.org/2000/svg" height="20" viewBox="0 -960 960 960" width="20"><path d="M317-304q-48.528 0-76.88-37.384-28.351-37.385-32.12-91.231v-20.923l-19.154-30.77q-31.231-49.615-42.039-106.538Q136-647.769 136-686q0-67.077 33.346-126.539Q202.692-872 264-872q55.487 0 91.744 54.942Q392-762.116 392-686q0 50.615-15.884 102.808-15.885 52.192-29.962 86.038l17 28.923q11.624 18.621 20.235 40.919Q392-405.014 392-386.891q0 36.968-21.121 59.93Q349.757-304 317-304Zm-86.865-173.923 82.634-21.231q13.539-32 30.385-86.423Q360-640 360-686.154q0-62.307-27.154-108.077Q305.692-840 264-840q-41.692 0-68.846 45.899Q168-748.203 168-685.74q0 55.355 17.654 113.548 17.654 58.192 44.481 94.269ZM316.681-336q18.668 0 30.993-14.241Q360-364.482 360-387q0-16.358-9.154-37.525-9.154-21.167-24.846-44.398l-86 21.538q2 50.308 22.423 80.847Q282.846-336 316.681-336ZM643-88q-32.757 0-53.879-22.961Q568-133.923 568-170.833q0-18.09 8.611-40.832 8.611-22.741 20.235-41.566l17-27.923q-13.308-33.077-29.577-85.654Q568-419.385 568-470q0-76.116 36.256-131.058Q640.513-656 696-656q61.308 0 94.654 59.461Q824-537.077 824-470q0 38.231-10.423 94.769-10.423 56.539-42.423 107.693l-18.154 30-1 20.692q-3 51.538-31.423 90.192Q692.154-88 643-88Zm84.308-168.308q35.769-54.538 50.23-104.269Q792-410.308 792-470q0-62.74-27.154-108.87T696-625q-41.692 0-68.846 45.769Q600-533.461 600-471.154q0 46.154 17.231 101.077 17.23 54.923 30 86.923l80.077 26.846ZM642.882-120q32.733 0 53.926-29.769Q718-179.538 720-226l-85.231-27.692q-10.308 18.615-22.538 40.174Q600-191.959 600-171.104q0 19.873 12.681 35.489Q625.362-120 642.882-120Z"/></svg>