<svg xmlns="http://www.w3.org/2000/svg" height="24" viewBox="0 -960 960 960" width="24"><path d="M700-660H600q-8.5 0-14.25-5.758-5.75-5.757-5.75-14.269t5.75-14.242Q591.5-700 600-700h100v-100q0-8.5 5.758-14.25 5.757-5.75 14.269-5.75t14.242 5.75Q740-808.5 740-800v100h100q8.5 0 14.25 5.758 5.75 5.757 5.75 14.269t-5.75 14.242Q848.5-660 840-660H740v100q0 8.5-5.758 14.25-5.757 5.75-14.269 5.75t-14.242-5.75Q700-551.5 700-560v-100ZM440-180q67.846 0 123.192-31.885 55.346-31.884 95.269-89.115-139.077.462-228.769-84.5Q340-470.462 340-600q0-20.692 2.923-41.654 2.923-20.961 9.538-42.961-78.307 29.461-125.384 95.346Q180-523.385 180-440q0 107.692 76.154 183.846Q332.308-180 440-180Zm274-138.385q-35.692 81.847-109.704 130.116Q530.284-140 439.98-140q-124.749 0-212.365-87.615Q140-315.231 140-440q0-108.008 67.731-190.658 67.73-82.65 173.038-103.342 6.616-1.231 11.5 1.231 4.885 2.461 7.577 6.846 2.693 4.384 3.308 9.961.615 5.577-2.077 12.654-10.538 24.738-15.808 50.6Q380-626.846 380-600q0 108.333 75.833 184.167Q531.667-340 640-340q12.911 0 24.648-1.269 11.737-1.27 24.044-3.27 8-1.461 13.603.616t9.013 6.231q3.154 4.153 4.269 9.038 1.115 4.885-1.577 10.269Zm-283.923-68Z"/></svg>