<svg xmlns="http://www.w3.org/2000/svg" height="20" viewBox="0 -960 960 960" width="20"><path d="M704-656.252h-92q-6.8 0-11.4-4.632-4.6-4.631-4.6-11.377 0-6.745 4.6-11.281 4.6-4.536 11.4-4.536h92v-91.688q0-6.734 4.547-11.484t11.269-4.75q6.723 0 11.327 4.6 4.605 4.6 4.605 11.4v92h92.168q6.836 0 11.46 4.608Q844-678.785 844-671.973t-4.624 11.392Q834.752-656 827.916-656h-92.168v92q0 6.8-4.632 11.4-4.631 4.6-11.143 4.6-6.812 0-11.392-4.624-4.581-4.624-4.581-11.46v-92.168ZM444-196q63.846 0 118.692-28.385 54.846-28.384 95.769-83.615-134.077.462-218.269-81.5Q356-471.462 356-594q0-21.034 2.423-42.325 2.423-21.29 9.038-44.29-79.307 28.461-125.384 92.846Q196-523.385 196-443.532q0 102.497 72.654 175.014Q341.308-196 444-196Zm253-111.385q-37.692 68.847-105.704 106.116Q523.284-164 443.98-164q-115.749 0-197.865-82.115Q164-328.231 164-444q0-99.008 55.731-176.158 55.73-77.15 148.038-98.842 9.616-3.231 18.5-1.769 8.885 1.461 14.577 4.846 5.693 3.384 8.308 8.961t-1.077 13.654q-9.538 23.738-14.808 48.1Q388-620.846 388-594q0 105.833 71.833 179.917Q531.667-340 636-340q11.911 0 23.648-1.269 11.737-1.27 24.044-3.27 3-.461 7.603 2.616t7.013 8.231q2.154 5.153 2.769 12.038.615 6.885-4.077 14.269Zm-255.923-82Z"/></svg>