<svg xmlns="http://www.w3.org/2000/svg" height="20" viewBox="0 -960 960 960" width="20"><path d="M789.479-66.26 507.87-347.304q-34.696 57.131-93.37 90.979-58.674 33.848-126.5 33.848-106.783 0-182.153-75.37-75.37-75.37-75.37-182.153 0-68.826 32.848-127.37 32.848-58.543 91.544-92.935l-88.61-89.174 56.653-56.653 723.22 723.22-56.653 56.652ZM288-375.52q38 0 68.544-25.152 30.543-25.153 35.369-65.414-.565.566-.282 1.131.282.565.282 1.696L271.26-583.913h2.827q-40.261 4.826-65.414 35.369Q183.521-518 183.521-480q0 43.391 30.544 73.935 30.544 30.544 73.935 30.544Zm545.523 138-352.045-351.48h448.045v194.002h-96v157.478Z"/></svg>