<svg xmlns="http://www.w3.org/2000/svg" height="20" viewBox="0 -960 960 960" width="20"><path d="M770.308-144.615 513.923-401h-40q-22.769 55.231-74.512 88.116Q347.668-280 288-280q-83.333 0-141.667-58.333Q88-396.667 88-480q0-68.846 42.769-123.308 42.769-54.461 112.077-68.769l-98.231-98.231 22.539-22.538 625.692 625.692-22.538 22.539ZM696-366l-90-90h90v90Zm74.616 74.616-32.001-32.001H744V-456h96v-48H558l-32-32h346v112h-96v132.616h-5.384ZM288-312q49.462 0 96.077-29.423 46.615-29.423 63.769-90.5h35.385L269.923-644.231Q205-638.077 162.5-590.308 120-542.538 120-480q0 70 49 119t119 49Zm0-102.769q-26.908 0-46.069-19.162-19.162-19.161-19.162-46.069t16.962-46.069q16.961-19.162 42.269-19.162 29.383 0 50.307 20.924 20.924 20.924 20.924 50.307 0 25.308-19.162 42.269-19.161 16.962-46.069 16.962Zm287.231-66Zm-268-3.846Z"/></svg>