<svg xmlns="http://www.w3.org/2000/svg" height="24" viewBox="0 -960 960 960" width="24"><path d="M757.231-160q-101.154 0-207.385-50.654-106.231-50.653-197.769-142.192-90.77-91.539-141.423-197.385Q160-656.077 160-757.231q0-18 12-30.385Q184-800 202-800h98.923q16.308 0 28.462 10.269t16.461 26.346L365.692-668q2.77 16.769-1 29.308-3.769 12.538-13.307 20.538l-87.77 81.846q24.616 44.693 54.424 83.039 29.807 38.346 63.576 72.654 34.847 34.846 75 64.807 40.154 29.962 88.154 56.577l85.539-87.077q9.769-10.538 21.961-13.884 12.192-3.347 26.962-1.347l84.154 17.231q16.308 4 26.461 16.423Q800-315.462 800-299.385V-202q0 18-12.384 30-12.385 12-30.385 12Zm-172-396.923h111.692q8.539 0 14.27 5.73 5.73 5.731 5.73 14.27 0 8.538-5.73 14.269-5.731 5.731-14.27 5.731H549.231q-13.923 0-23.116-9.192-9.192-9.193-9.192-23.116v-147.692q0-8.539 5.731-14.27 5.731-5.73 14.269-5.73 8.539 0 14.27 5.73 5.73 5.731 5.73 14.27v111.692l204.308-204.308q5.615-5.615 13.769-6 8.154-.384 14.539 6 6.384 6.385 6.384 14.154 0 7.77-6.384 14.154L585.231-556.923Z"/></svg>