<svg xmlns="http://www.w3.org/2000/svg" height="24" viewBox="0 -960 960 960" width="24"><path d="M160-296.923V-200h640v-96.923H160Zm-40-381.539h198q-5-9-8.423-19-3.424-10-3.424-21 0-33.846 23.077-56.923 23.077-23.077 56.924-23.077 20.307 0 37.569 10.642 17.262 10.643 30.123 26.435l24.616 33.692 24.615-33.692q12.615-16.308 30.131-26.692 17.515-10.385 37.725-10.385 33.683 0 56.76 23.077 23.077 23.077 23.077 56.923 0 11-3.039 21-3.038 10-8.807 19H840V-160H120v-518.462Zm40 295.385h640v-255.385H542.154l79.385 109.385-31.693 22.923-111.384-151.692-111.385 151.692-31.693-22.923 78.923-109.385H160v255.385Zm226.154-295.385q17 0 28.5-11.5t11.5-28.5q0-17-11.5-28.5t-28.5-11.5q-17 0-28.5 11.5t-11.5 28.5q0 17 11.5 28.5t28.5 11.5Zm184.615 0q17 0 28.5-11.5t11.5-28.5q0-17-11.5-28.5t-28.5-11.5q-17 0-28.5 11.5t-11.5 28.5q0 17 11.5 28.5t28.5 11.5Z"/></svg>