<svg xmlns="http://www.w3.org/2000/svg" height="20" viewBox="0 -960 960 960" width="20"><path d="M170.87-287.283v68.413h618.26v-68.413H170.87Zm-83-440.848h175.717q-2.761-9.239-4.381-18.162-1.619-8.922-1.619-17.838 0-46.494 32.695-79.04 32.696-32.547 82.131-32.547 23.531 0 44.983 9.5 21.452 9.5 35.691 29.218L480-799.848 507.913-836q14.478-18.479 34.833-29.098 20.355-10.62 43.841-10.62 52.435 0 84.131 32.047 31.695 32.046 31.695 79.54 0 9-1.5 18t-4.5 18h175.718v592.262H87.869v-592.262Zm83 337.435h618.26V-645.13H591.696l83.456 113.978L613.804-486 480.5-670.478 347.196-486l-61.348-45.152 82.934-113.978H170.87v254.434Zm197.332-338.435q15.211 0 25.711-10.289 10.5-10.29 10.5-25.5 0-15.211-10.29-25.711-10.289-10.5-25.499-10.5-15.211 0-25.711 10.29-10.5 10.289-10.5 25.5 0 15.21 10.289 25.71 10.29 10.5 25.5 10.5Zm223.175 0q15.21 0 25.71-10.289 10.5-10.29 10.5-25.5 0-15.211-10.289-25.711-10.29-10.5-25.5-10.5-15.211 0-25.711 10.29-10.5 10.289-10.5 25.5 0 15.21 10.289 25.71 10.29 10.5 25.501 10.5Z"/></svg>