<svg xmlns="http://www.w3.org/2000/svg" height="24" viewBox="0 -960 960 960" width="24"><path d="M166.783-278.304v71.521h626.434v-71.521H166.783ZM60.782-739.218h169.695q-4.434-9.566-6.217-19.383-1.783-9.818-1.783-20.617 0-53.533 37.827-91.006 37.826-37.473 91.217-37.473 31.256 0 57.824 15.5 26.568 15.5 46.133 40.196L480-820.914l24.522-31.087q19.13-25.131 46.027-40.413 26.896-15.283 57.93-15.283 53.391 0 91.217 37.473 37.827 37.473 37.827 91.006 0 11-1.5 21t-6.5 19h169.695v638.436H60.782v-638.436Zm106.001 323.391h626.434v-217.39h-181.39l73.26 102.13L613.174-480 480-665.13 346.826-480l-71.913-51.087 72.391-102.13H166.783v217.39Zm184.738-323.391q17 0 28.5-11.5t11.5-28.5q0-17-11.5-28.5t-28.5-11.5q-17 0-28.5 11.5t-11.5 28.5q0 17 11.5 28.5t28.5 11.5Zm256.958 0q17 0 28.5-11.5t11.5-28.5q0-17-11.5-28.5t-28.5-11.5q-17 0-28.5 11.5t-11.5 28.5q0 17 11.5 28.5t28.5 11.5Z"/></svg>