<svg xmlns="http://www.w3.org/2000/svg" height="20" viewBox="0 -960 960 960" width="20"><path d="M479.624-224Q442-224 412.5-193.5 383-163 383-127v1h194v-1q0-36-29.5-66.5T479.624-224ZM341-645.269Q341-586 381-542.5 421-499 481-493l164 22v-351l-162.81 21.565Q422-793 381.5-749.212 341-705.423 341-645.269ZM695-8H265v-119q0-87 62.888-151Q390.775-342 480-342q-1.452 0-1.726-1l-.274-1 18-26-28-6q-105-10-175-86.712t-70-182.999q0-106.592 70-184.441Q363-908 468-917l295-36v618l-159-22-25 39q52 27 84 79.219Q695-186.562 695-127V-8ZM480-126Zm165-521Z"/></svg>