<svg xmlns="http://www.w3.org/2000/svg" height="24" viewBox="0 -960 960 960" width="24"><path d="M487.693-296.155q-50 0-85 34.5t-35 85.5v40h240v-40q0-51-34.5-85.5t-85.5-34.5ZM320-629.999q0 67 45.192 116 45.193 49 111.808 57l164 17v-380.384l-164 16.384q-67 6.616-112 56.23t-45 117.77ZM667.691-76.157H307.694v-99.998q0-75.599 52.65-127.799 52.649-52.2 127.349-52.2 11.136 0 21.26 1.193 10.125 1.192 20.509 3.577l24.308-37.847L471.308-397q-89.505-9.202-150.406-75.919-60.901-66.717-60.901-156.899 0-91.103 60.5-157.833 60.5-66.731 150.807-76.731l237.768-21.692v511.92l-87.231-8-.384-.385-36.462 54.693q37.462 23.922 60.077 63.653 22.615 39.73 22.615 88.038v99.999Zm-179.998-59.998ZM641-630.383Z"/></svg>