<svg xmlns="http://www.w3.org/2000/svg" height="20" viewBox="0 -960 960 960" width="20"><path d="M479.796-241.39q-42.144 0-74.469 32.674-32.326 32.673-32.326 74.325v11h213.998v-11q0-41.652-32.108-74.325-32.109-32.674-75.095-32.674ZM328.392-641.055q0 63.75 42.826 110.728 42.826 46.978 107.173 54.282l167.913 22v-375.781L479.582-808.26q-64.538 8.304-107.864 55.403-43.326 47.099-43.326 111.802ZM685.001-25.39H274.999v-109.001q0-83.957 59.963-144.479Q394.925-339.391 480-339.391q1.788 0 4.459-.566 2.671-.565 5.279.305l21.913-32.087-44.086-7.304q-101.522-9.566-169.348-84.538-67.826-74.973-67.826-177.782 0-103.418 67.609-178.941t169.13-84.523l277.176-34.261v598.001l-136.828-18.956-29.782 45.521q48.087 26.131 77.696 75.211 29.609 49.081 29.609 104.92v109ZM480-123.391Zm166.304-518.827Z"/></svg>