<svg xmlns="http://www.w3.org/2000/svg" height="20" viewBox="0 -960 960 960" width="20"><path d="M495.404-296.307q-48.019 0-84.019 35.5-36 35.5-36 84.5v24h240v-24q0-49-35.5-84.5t-84.481-35.5ZM312-595.577Q312-526 358.885-474.5 405.769-423 475-414l173 22v-408.769l-171.81 22.334Q406-769.769 359-718.138q-47 51.632-47 122.561Zm335.385 475.27H343.384v-56q0-63.201 44.46-107.601t107.541-44.4q6.272 0 13.021.385 6.748.384 13.517 3.154l31.615-47.693L471.615-383q-82.011-7.405-136.813-68.551Q280-512.697 280-595.35q0-83.496 54.5-144.458t136.115-69.962l225.539-27.384v485.846l-106.462-15-.769-.769L556-317.692q39.923 18.846 65.654 57.308 25.731 38.461 25.731 84.077v56Zm-152-32ZM648-596.769Z"/></svg>