<svg xmlns="http://www.w3.org/2000/svg" height="20" viewBox="0 -960 960 960" width="20"><path d="M487.713-280.155q-48.02 0-84.02 35.5-36 35.5-36 84.5v24h240v-24q0-49-35.5-84.5t-84.48-35.5ZM312-615.575q0 69.576 46.692 121.076 46.693 51.5 116.308 60.5l173 22v-408.384l-171.81 21.95Q406-789.383 359-737.865t-47 122.29ZM659.691-84.157H315.694v-75.998q0-71.599 50.31-121.799 50.309-50.2 121.689-50.2 6.136 0 12.76.193 6.625.192 13.009 2.577l29.308-43.847L469.308-383q-89.505-8.202-149.406-75.131-59.901-66.929-59.901-157.398 0-91.392 59.5-158.122 59.5-66.731 148.807-75.731l239.768-29.692v528.92l-107.231-15-.384-.385-34.462 51.693q41.462 21.922 67.577 63.653 26.115 41.73 26.115 90.038v75.999Zm-171.998-51.998ZM648-616.383Z"/></svg>