<svg xmlns="http://www.w3.org/2000/svg" height="20" viewBox="0 -960 960 960" width="20"><path d="m275.539-480 178.615 177.846q5.615 5.615 5.615 11.654t-5.615 11.654q-6.385 6.385-11.654 6.385t-11.654-6.385L249.307-460.385q-4.23-4.23-6.346-9.192-2.115-4.961-2.115-10.423t2.115-10.423q2.116-4.962 6.346-9.192l181.539-181.539q5.615-5.615 11.654-5.615 6.038 0 11.654 5.615 6.385 6.385 6.385 11.654t-6.385 11.654L275.539-480Zm265 0 178.615 177.846q5.615 5.615 5.615 11.654t-5.615 11.654q-6.385 6.385-11.654 6.385t-11.654-6.385L514.308-460.385q-4.231-4.23-6.347-9.192-2.115-4.961-2.115-10.423t2.115-10.423q2.116-4.962 6.347-9.192l181.538-181.539q5.616-5.615 11.654-5.615 6.039 0 11.654 5.615 6.385 6.385 6.385 11.654t-6.385 11.654L540.539-480Z"/></svg>