<svg xmlns="http://www.w3.org/2000/svg" height="20" viewBox="0 -960 960 960" width="20"><path d="m130.923-157.615 90.385-472.231-125.154 54.769V-492q0 6.839-4.52 11.419Q87.114-476 80.364-476q-6.749 0-11.48-4.581-4.73-4.58-4.73-11.419v-86.308q0-8.621 5.184-15.734 5.183-7.113 12.95-10.898l147.635-60.752q34.923-15.231 61.269-6.847 26.347 8.385 44.039 37.308L346.462-616q18 32.308 47.384 64.769 29.385 32.462 93.769 41.231 6.539 1.231 11.539 5.629 5 4.397 5 10.884t-4.641 10.718q-4.641 4.231-10.898 3-44.923-7-88.723-37.025t-76.738-89.821l-34.538 180.769 62.923 64.195q4.153 4.42 6.384 9.382 2.231 4.961 2.231 11.423V-156q0 6.839-4.52 11.419-4.521 4.581-11.27 4.581t-11.479-4.581q-4.731-4.58-4.731-11.419v-183.923L219.846-446.461l-59.461 293.615q-.462 6.077-4.597 9.461-4.136 3.385-9.865 3.385-7.273 0-11.867-5.308-4.595-5.307-3.133-12.307Zm200.983-574.693q-30.137 0-50.791-20.901-20.654-20.902-20.654-51.039t20.902-50.791q20.902-20.653 51.039-20.653t50.79 20.901q20.654 20.902 20.654 51.039t-20.901 50.791q-20.902 20.653-51.039 20.653Zm417.478 552h-201.23q-5.016 0-8.354-3.338-3.339-3.339-3.339-8.354 0-5.015 3.339-8.354 3.338-3.338 8.354-3.338h201.23l-41.769-41.769q-3.154-3.518-3.538-8.336-.385-4.818 3.538-8.742 3.923-3.923 8.357-3.923 4.434 0 8.72 3.923l50.923 50.924q8.693 8.328 8.693 19.433t-8.693 19.797l-50.923 50.924q-3.517 3.153-8.335 3.538-4.819.385-8.742-3.538-3.923-3.924-3.923-8.357 0-4.434 3.923-8.721l41.769-41.769Zm-162.461-144 41.769 41.769q3.154 3.518 3.539 8.336.384 4.818-3.539 8.742-3.923 3.923-8.356 3.923-4.434 0-8.721-3.923l-50.923-50.924Q552-324.713 552-335.818t8.692-19.797l50.923-50.924q3.518-3.153 8.336-3.538 4.818-.385 8.741 3.538 3.923 3.924 3.923 8.357 0 4.434-3.923 8.721l-41.769 41.769h201.231q5.015 0 8.354 3.338 3.338 3.339 3.338 8.354 0 5.015-3.338 8.354-3.339 3.338-8.354 3.338H586.923Z"/></svg>