<svg xmlns="http://www.w3.org/2000/svg" height="20" viewBox="0 -960 960 960" width="20"><path d="m136-156 92-484-139 61v87q0 4.3-2.79 7.15-2.789 2.85-7 2.85-4.21 0-7.21-2.85T69-492v-84q0-7.929 4.953-14.58 4.953-6.652 12.027-10.206L229-659q34-15 58.5-8t41.5 35l11 19q18 33 49 66.5t97 42.5q4 1 7.5 3.552 3.5 2.551 3.5 6.5 0 3.948-3.026 6.448-3.025 2.5-6.974 1.5-44-7-88.839-38.64Q353.323-556.281 319-623l-38 199 64.077 65.811Q349-354 351-349.5t2 10.5v183q0 4.3-2.789 7.15-2.79 2.85-7 2.85-4.211 0-7.211-2.85t-3-7.15v-186L215-458l-62 304q0 4-2.289 6-2.29 2-5.711 2-4.273 0-7.136-3-2.864-3-1.864-7Zm194.752-580Q302-736 282.5-755.748q-19.5-19.748-19.5-48.5t19.748-48.252q19.748-19.5 48.5-19.5t48.252 19.748q19.5 19.748 19.5 48.5T379.252-755.5q-19.748 19.5-48.5 19.5ZM757-184H547q-3.4 0-5.7-2.3-2.3-2.3-2.3-5.7 0-3.4 2.3-5.7 2.3-2.3 5.7-2.3h210l-48-48q-2-2.364-2.5-5.682Q706-257 709-260q3-3 5.818-3 2.818 0 6.182 3l50 50q8 7.636 8 17.818Q779-182 771-174l-50 50q-2.364 2-5.682 2.5Q712-121 709-124q-3-3-3-5.818 0-2.818 3-6.182l48-48ZM577-328l48 48q2 2.364 2.5 5.682Q628-271 625-268q-3 3-5.818 3-2.818 0-6.182-3l-50-50q-8-7.636-8-17.818Q555-346 563-354l50-50q2.364-2 5.682-2.5Q622-407 625-404q3 3 3 5.818 0 2.818-3 6.182l-48 48h210q3.4 0 5.7 2.3 2.3 2.3 2.3 5.7 0 3.4-2.3 5.7-2.3 2.3-5.7 2.3H577Z"/></svg>