<svg xmlns="http://www.w3.org/2000/svg" height="20" viewBox="0 -960 960 960" width="20"><path d="M490-554q-4.25 0-7.125-2.825-2.875-2.824-2.875-7 0-4.175 2.875-7.175t7.125-3h164q4.25 0 7.125 2.825 2.875 2.824 2.875 7 0 4.175-2.875 7.175T654-554H490Zm.283-132q-4.233 0-7.258-2.825-3.025-2.824-3.025-7 0-4.175 2.863-7.175 2.864-3 7.097-3h259.757q4.233 0 7.258 2.825 3.025 2.824 3.025 7 0 4.175-2.863 7.175-2.864 3-7.097 3H490.283ZM343.774-196Q285-196 244.5-236.66T204-336q0-42.305 22.5-77.653Q249-449 288-467v-241q0-24 16-40t40-16q24 0 40 16t16 40v241q39 18 61.5 53.347Q484-378.305 484-336q0 58.68-40.726 99.34-40.726 40.66-99.5 40.66ZM224-336h240q0-26-15-52t-44-49l-25-19v-252q0-15.3-10.289-25.65-10.29-10.35-25.5-10.35Q329-744 318.5-733.65 308-723.3 308-708v252l-24 19q-29 24-44.5 50.5T224-336Z"/></svg>