<svg xmlns="http://www.w3.org/2000/svg" height="20" viewBox="0 -960 960 960" width="20"><path d="M376.155-160.155v-159.693q-11.539 7.462-24.718 11.577-13.18 4.116-27.283 4.116-86.345 0-145.326-62.25-58.98-62.25-58.98-149.749v-71.692q0-87.499 58.98-149.749 58.981-62.25 145.326-62.25 43.333 0 73.666 30.32 30.334 30.32 30.334 73.634t-30.334 73.679q-30.333 30.366-73.666 30.366h-67.999v-51.999h68.35q20.496 0 36.073-15.577 15.577-15.577 15.577-36.424 0-20.846-15.577-36.423-15.577-15.577-36.424-15.577-65.308 0-108.808 46.769-43.5 46.77-43.5 113.231v71.692q0 66.461 43.5 113.231 43.5 46.769 108.808 46.769 20.847 0 36.424-15.577 15.577-15.577 15.577-36.423 0-20.847-15.577-36.424-15.577-15.577-36.073-15.577h-68.35v-51.999h67.538q44.294 0 73.877 30.334 29.584 30.333 29.584 73.666l1 247.999h-51.999Zm155.691 0 1-247.999q0-43.75 29.584-74.375 29.583-30.625 73.877-30.625h67.538v51.999h-68.35q-20.496 0-36.073 15.577-15.577 15.577-15.577 36.424 0 20.846 15.577 36.423 15.577 15.577 36.424 15.577 65.308 0 108.808-46.269 43.5-46.27 43.5-112.731v-71.692q0-66.461-43.5-113.231-43.5-46.769-108.808-46.769-20.847 0-36.424 15.577-15.577 15.577-15.577 36.423 0 20.847 15.577 36.424 15.577 15.577 36.073 15.577h68.35v51.999h-67.538q-44.294 0-74.377-30.32-30.084-30.32-30.084-73.634 0-43.315 30.334-73.68 30.333-30.365 73.666-30.365 86.345 0 145.326 62.25 58.98 62.25 58.98 149.749v71.692q0 87.499-58.98 149.749-58.981 62.25-145.326 62.25-14.103 0-27.283-4.116-13.179-4.115-24.718-11.577v159.693h-51.999Zm-360-361.999v-59.692 59.692Zm616.308-59.692v65.692-65.692Z"/></svg>