<svg xmlns="http://www.w3.org/2000/svg" height="24" viewBox="0 -960 960 960" width="24"><path d="M392.307-152.307v-182.385q-13.076 10.923-27.935 16.654-14.859 5.731-32.064 5.731-87.693 0-146.154-65.001-58.462-65-58.462-155v-55.384q0-90 58.462-155.001 58.461-65 146.154-65 41.666 0 70.833 29.141 29.167 29.14 29.167 70.769 0 41.629-29.167 70.86t-70.833 29.231v95.384q41.538 0 70.769 29.167 29.231 29.167 29.231 70.833v260.001h-40.001Zm135.385 0v-260.001q0-41.666 29.167-70.833t70.833-29.167v-95.384q-41.538 0-70.769-29.141-29.231-29.14-29.231-70.769 0-41.629 29.167-70.86t70.833-29.231q87.693 0 146.154 65 58.462 65.001 58.462 155.001v55.384q0 90-58.462 155-58.461 65.001-146.154 65.001-17.205 0-32.064-5.731-14.859-5.731-27.935-16.654v182.385h-40.001Z"/></svg>