<svg xmlns="http://www.w3.org/2000/svg" height="24" viewBox="0 -960 960 960" width="24"><path d="M402-162v-187q-14 13-30.467 20-16.466 7-35.533 7-84 0-139-63.5T142-536v-48q0-87 55-150.5T336-798q39.167 0 66.583 27.382Q430-743.235 430-704.118 430-665 402.583-637.5 375.167-610 336-610v100q39 0 66.5 27.417Q430-455.167 430-416v254h-28Zm128 0v-254q0-39.167 27.417-66.583Q584.833-510 624-510v-100q-39 0-66.5-27.382-27.5-27.383-27.5-66.5Q530-743 557.417-770.5 584.833-798 624-798q84 0 139 63.5T818-584v48q0 87-55 150.5T624-322q-19.067 0-35.533-7Q572-336 558-349v187h-28Z"/></svg>