<svg xmlns="http://www.w3.org/2000/svg" height="24" viewBox="0 -960 960 960" width="24"><path d="M189-69v-822h582v822H189Zm290.968-127.413q34.467 0 59.043-24.544 24.576-24.545 24.576-59.011 0-34.467-24.544-59.043-24.545-24.576-59.011-24.576-34.467 0-59.043 24.544-24.576 24.545-24.576 59.011 0 34.467 24.544 59.043 24.545 24.576 59.011 24.576Zm.032-47.174q-15.476 0-25.944-10.469-10.469-10.468-10.469-25.944 0-15.476 10.469-25.944 10.468-10.469 25.944-10.469 15.476 0 25.944 10.469 10.469 10.468 10.469 25.944 0 15.476-10.469 25.944-10.468 10.469-25.944 10.469Zm0-172.826q18 0 29-11t11-29h-80q0 18 11 29t29 11Zm-160-60h320v-47.174h-40V-612q0-45-23-80.5T512-740v-43.283h-64V-740q-42 15-65 49t-23 79v88.413h-40v47.174Z"/></svg>