<svg xmlns="http://www.w3.org/2000/svg" height="20" viewBox="0 -960 960 960" width="20"><path d="M181-85v-790h598v790H181Zm83-83h432v-624H264v624Zm216.181-44.413q31.254 0 53.33-22.257 22.076-22.256 22.076-53.511 0-31.254-22.257-53.33-22.256-22.076-53.511-22.076-31.254 0-53.33 22.257-22.076 22.256-22.076 53.511 0 31.254 22.257 53.33 22.256 22.076 53.511 22.076ZM480-264.587q-9.951 0-16.682-6.731-6.731-6.731-6.731-16.682 0-9.951 6.731-16.682 6.731-6.731 16.682-6.731 9.951 0 16.682 6.731 6.731 6.731 6.731 16.682 0 9.951-6.731 16.682-6.731 6.731-16.682 6.731Zm0-151.826q15 0 25.5-10.5t10.5-25.5h-72q0 15 10.5 25.5t25.5 10.5Zm-144-60h288v-79.174h-36V-612q0-37.629-23.5-67.315Q541-709 504-717v-50.283h-48V-717q-37 8-60.5 37.5T372-612v56.413h-36v79.174ZM264-168v-624 624Z"/></svg>