<svg xmlns="http://www.w3.org/2000/svg" height="24" viewBox="0 -960 960 960" width="24"><path d="M616.957-154.348q-135.695 0-230.674-94.978Q291.305-344.304 291.305-480q0-135.261 94.978-230.457 94.979-95.195 230.674-95.195 135.261 0 230.457 95.195Q942.61-615.261 942.61-480q0 135.696-95.196 230.674-95.196 94.978-230.457 94.978Zm0-100.348q93.783 0 159.543-65.761Q842.261-386.218 842.261-480q0-93.782-65.761-159.543-65.76-65.761-159.543-65.761-93.782 0-159.543 65.761-65.76 65.761-65.76 159.543 0 93.782 65.76 159.543 65.761 65.761 159.543 65.761Zm50.175-245.826v-88.173q0-20.957-14.609-35.566-14.609-14.609-35.566-14.609-20.956 0-35.565 14.609-14.609 14.609-14.609 35.566v107.999q0 10.826 4.065 20.305 4.065 9.478 11.326 16.739l79.696 79.695q14.826 14.827 35.565 14.827 20.739 0 35.566-14.827 14.826-14.826 14.826-35.565 0-20.74-14.826-35.566l-65.869-65.434Zm-559.567-89.304q-20.957 0-35.566-14.608Q57.39-619.043 57.39-640T72-675.566q14.609-14.608 35.566-14.608h93.565q20.957 0 35.566 14.608 14.609 14.609 14.609 35.566t-14.609 35.566q-14.609 14.608-35.566 14.608h-93.565Zm-40 160q-20.957 0-35.566-14.608Q17.39-459.043 17.39-480T32-515.566q14.609-14.608 35.566-14.608H201.13q20.957 0 35.566 14.608 14.609 14.609 14.609 35.566t-14.609 35.566q-14.609 14.608-35.566 14.608H67.565Zm40 160q-20.957 0-35.566-14.608Q57.39-299.043 57.39-320T72-355.566q14.609-14.608 35.566-14.608h93.565q20.957 0 35.566 14.608 14.609 14.609 14.609 35.566t-14.609 35.566q-14.609 14.608-35.566 14.608h-93.565ZM616.957-480Z"/></svg>