<svg xmlns="http://www.w3.org/2000/svg" height="24" viewBox="0 -960 960 960" width="24"><path d="M592.641-200q-117.39 0-198.862-81.472-81.472-81.471-81.472-198.861 0-116.513 81.472-198.09T592.641-760q116.513 0 198.09 81.577t81.577 198.09q0 117.39-81.577 198.861Q709.154-200 592.641-200Zm19.667-287.539v-120.153q0-8.5-5.758-14.25t-14.269-5.75q-8.512 0-14.243 5.75-5.73 5.75-5.73 14.25v123.307q0 6.128 2.346 11.872t7.546 10.984l94.646 95.375q5.846 6.616 13.885 6.616 8.038 0 14.654-6.616Q712-372.769 712-380.423t-6.615-14.269l-93.077-92.847ZM147.692-620q-8.5 0-14.25-5.758-5.75-5.757-5.75-14.269t5.75-14.242q5.75-5.731 14.25-5.731h104.615q8.5 0 14.25 5.758 5.75 5.757 5.75 14.269t-5.75 14.242q-5.75 5.731-14.25 5.731H147.692Zm-40 160q-8.5 0-14.25-5.758-5.75-5.757-5.75-14.269t5.75-14.242q5.75-5.731 14.25-5.731h144.615q8.5 0 14.25 5.758 5.75 5.757 5.75 14.269t-5.75 14.242q-5.75 5.731-14.25 5.731H107.692Zm40 160q-8.5 0-14.25-5.758-5.75-5.757-5.75-14.269t5.75-14.242q5.75-5.731 14.25-5.731h104.615q8.5 0 14.25 5.758 5.75 5.757 5.75 14.269t-5.75 14.242q-5.75 5.731-14.25 5.731H147.692Z"/></svg>