<svg xmlns="http://www.w3.org/2000/svg" height="20" viewBox="0 -960 960 960" width="20"><path d="M341.851-182Q218-182 131-268.854t-87-211Q44-603 130.854-690.5q86.854-87.5 211-87.5Q465-778 552-690.646q87 87.354 87 210.5Q639-356 551.851-269q-87.148 87-210 87ZM345-480Zm402 265q-30 17-58.5-1T660-268q0-14 8-29t22-22q48-22 78-65.5t30-95.5q0-51-30-93.5T691-638q-14-7-22-21t-8-29q0-36.111 28-53.556Q717-759 751-741q70 29 117.5 100.5T916-479q0 91-48.5 162T747-215Zm-405.014-85Q417-300 469-351.986t52-128Q521-555 468.802-607.5 416.605-660 342-660q-76.02 0-128.01 52.486Q162-555.028 162-480.014 162-404 213.986-352q51.986 52 128 52Z"/></svg>