<svg xmlns="http://www.w3.org/2000/svg" height="24" viewBox="0 -960 960 960" width="24"><path d="M440.053-140.001q-70.822 0-132.698-26.441-61.875-26.44-108.164-72.71-46.288-46.271-72.739-108.122-26.451-61.851-26.451-132.673t26.445-132.698q26.444-61.875 72.722-108.164 46.277-46.288 108.138-72.739Q369.167-819.999 440-819.999q21 0 40.5 2.5t39.5 7.5V-748q-20-6-39.5-9t-40.5-3q-117.231 0-198.615 81.385Q160-597.231 160-480q0 117.231 81.385 198.615Q322.769-200 440-200q117.231 0 198.615-81.385Q720-362.769 720-480.066q0-10.934-1-21.088-1-10.154-3.385-21.154h61.23q2 10.231 2.577 20.769.577 10.539.577 21.539 0 70.833-26.441 132.694-26.44 61.861-72.71 108.138-46.271 46.278-108.122 72.722-61.851 26.445-132.673 26.445Zm118.871-178.923L410.001-467.846V-680h59.998v187.846l131.077 131.078-42.152 42.152ZM720-602.308v-120H600v-59.998h120v-120h59.999v120h120v59.998h-120v120H720Z"/></svg>