<svg xmlns="http://www.w3.org/2000/svg" height="24" viewBox="0 -960 960 960" width="24"><path d="M440-109.826q-78.391 0-147.566-29.695-69.174-29.696-120.717-80.957-51.544-51.261-81.24-120.435-29.695-69.174-29.695-147.566 0-78.391 29.695-147.565 29.696-69.174 81.24-120.718 51.543-51.544 120.717-81.239Q361.609-867.697 440-867.697q21 0 40.5 1.935 19.5 1.934 39.5 6.934v109.698q-20-7.131-39.5-9.848-19.5-2.718-40.5-2.718-114.609 0-193.913 79.305-79.304 79.304-79.304 193.912 0 114.609 79.304 193.63Q325.391-215.827 440-215.827q114.609 0 193.913-78.955 79.304-78.954 79.304-193.974 0-10.723-.859-19.723-.858-9-2.576-20h107.436q2 11 2 20v20q0 78.392-29.695 147.566-29.696 69.174-81.24 120.435-51.543 51.261-120.717 80.957Q518.391-109.826 440-109.826Zm107.478-206.696-152-152v-219.957h89.044v184L610.261-378.74l-62.783 62.218ZM720-608.479v-120H600v-89.044h120v-120h88.479v120h120v89.044h-120v120H720Z"/></svg>