<svg xmlns="http://www.w3.org/2000/svg" height="24" viewBox="0 -960 960 960" width="24"><path d="M440.106-160q-66.645 0-124.896-24.88-58.252-24.881-101.83-68.422-43.577-43.541-68.479-101.744Q120-413.249 120-479.894t24.889-124.896q24.889-58.252 68.444-101.83 43.556-43.577 101.778-68.479Q373.333-800 440-800q21 0 40.5 2.5T520-790v42q-20-6-39.5-9t-40.5-3q-116.462 0-198.231 81.769Q160-596.462 160-480q0 116.462 81.769 198.231Q323.538-200 440-200q116.462 0 198.231-81.769Q720-363.538 720-480.131q0-10.869-1-22.177-1-11.307-3.769-22.307h40.462q2 9.461 3.153 21.538Q760-491 760-480q0 66.667-24.88 124.889-24.881 58.222-68.422 101.778-43.541 43.555-101.744 68.444Q506.751-160 440.106-160Zm125.74-165.846L420-471.692V-680h40v191.692l134.154 134.154-28.308 28.308ZM720-604.615v-120H600v-40.001h120v-120h40v120h120v40.001H760v120h-40Z"/></svg>