<svg xmlns="http://www.w3.org/2000/svg" height="20" viewBox="0 -960 960 960" width="20"><path d="M431.929-126Q356-126 288.5-155.5t-117.5-79Q121-284 91.5-351.571T62-495.071Q62-571 91.5-638.5T171-756q50-50 117.549-79.5Q356.097-865 432-865h23.898q11.899 0 24.102 2v122q-11-4-23.5-5t-24.5-1q-103 0-177.5 74.5T180-495q0 103 74.5 177T432-244q103 0 177.5-73.881 74.5-73.882 74.5-177.61 0-11.509-1.25-24.009T680-543h118q2 12 3 24t1 24q0 75.903-29.5 143.451Q743-284 693-234.5t-117.571 79q-67.571 29.5-143.5 29.5ZM537-321 388-470v-217h88v180l124 124-63 62Zm147-318v-108H576v-88h108v-108h87v108h108v88H771v108h-87Z"/></svg>