<svg xmlns="http://www.w3.org/2000/svg" height="20" viewBox="0 -960 960 960" width="20"><path d="M431.929-139.696q-71.364 0-133.918-27.217-62.555-27.217-109.131-73.674-46.576-46.456-73.793-109.082-27.218-62.626-27.218-133.989 0-71.364 27.218-133.918 27.217-62.555 73.793-109.131 46.576-46.576 109.179-73.793Q360.662-827.718 432-827.718q12 0 23.898.761 11.899.761 24.102 2.761v84.718q-11-2.479-23.5-3.859t-24.5-1.38q-107.565 0-184.348 76.782-76.782 76.783-76.782 184.348 0 107.565 76.782 184.228Q324.435-222.696 432-222.696q107.565 0 184.348-76.634 76.782-76.635 76.782-184.375 0-11.882-1.44-24.382-1.44-12.5-3.32-23.5h83.761q2 12 3 24t1 24q0 71.338-27.218 133.941-27.217 62.603-73.793 109.059-46.576 46.457-109.202 73.674-62.626 27.217-133.989 27.217Zm111.158-175.217-149-149v-211.674h75.826v180l127.044 127.043-53.87 53.631ZM684-627.587v-108H576v-75.826h108v-108h75.587v108h108v75.826h-108v108H684Z"/></svg>