<svg xmlns="http://www.w3.org/2000/svg" height="20" viewBox="0 -960 960 960" width="20"><path d="M339-147.841V-566q-65-32-110-91t-55-135q-3-18.727 11.778-31.364 14.778-12.636 36-12.636Q241-836 257-824t21.07 31.344q14.382 62.853 65.156 105.754Q394-644 458-644h95q26 0 50.5 9t43.5 28l134 134q17 17 17 36t-17 36q-17 17-36.5 17T708-401l-93-92v345.1q0 21.258-14.789 36.079Q585.421-97 564.211-97 543-97 528-111.85T513-148v-200h-72v200q0 21.3-14.789 36.15-14.79 14.85-36 14.85Q369-97 354-111.804q-15-14.805-15-36.037ZM476.752-704Q435-704 406.5-733.248q-28.5-29.248-28.5-70Q378-845 406.748-873.5q28.748-28.5 70.5-28.5Q519-902 547.5-873.252q28.5 28.748 28.5 70.5Q576-762 547.252-733q-28.748 29-70.5 29Z"/></svg>