<svg xmlns="http://www.w3.org/2000/svg" height="24" viewBox="0 -960 960 960" width="24"><path d="M466-132v-324q-8-5-11-10.769t-3-13.352q0-10.879 8.5-19.379Q469-508 480-508t19.5 8.5q8.5 8.5 8.5 19.261 0 7.5-3 13.369-3 5.87-11 10.87v324h-28Zm-225-95q-51-48-80-112.895-29-64.894-29-139.806 0-72.299 27.391-135.857 27.392-63.559 74.348-110.574 46.957-47.016 110.435-74.442Q407.652-828 479.826-828q72.174 0 135.732 27.417 63.559 27.416 110.574 74.416 47.016 47 74.442 110.537Q828-552.093 828-479.852 828-405 799-340t-80 113l-19-20q46-43.812 73-104.053Q800-411.295 800-480q0-134-93-227t-227-93q-134 0-227 93t-93 227q0 69 27 129t74 104l-20 20Zm113-113q-29-26-45.5-62.021T292-480q0-78.333 54.765-133.167Q401.529-668 479.765-668 558-668 613-613.051q55 54.949 55 133.447Q668-438 651.5-402T606-340l-20-20q25-23 39.5-54t14.5-66q0-66-47-113t-113-47q-66 0-113 47t-47 113q0 36 14.5 66.5T374-360l-20 20Z"/></svg>