<svg xmlns="http://www.w3.org/2000/svg" height="20" viewBox="0 -960 960 960" width="20"><path d="M429-35v-356q-23-12-37.5-36T377-479.932q0-42.816 30.15-72.942Q437.301-583 480.15-583 523-583 553-552.874q30 30.126 30 72.942Q583-451 568.5-427.5 554-404 531-391v356H429ZM165-165q-61-61-95.5-141.745Q35-387.491 35-480.472 35-573 69.5-653.5 104-734 165-795t142.231-95.5q81.231-34.5 173-34.5Q573-925 653.5-890.5T795-795q61 61 95.5 141.624T925-480.105Q925-387 890.5-307 856-227 794-166l-73-73q47.6-45.946 74.8-107.871Q823-408.796 823-479.984 823-622 722.5-722.5T480-823q-142 0-242.5 100.5T137-480.118q0 71.118 26.906 133.472Q190.812-284.293 237-237l-72 72Zm113-113q-39-39-61.5-90.715Q194-420.431 194-480q0-119.167 83.382-202.583Q360.765-766 479.882-766 599-766 682.5-682.621T766-480.13Q766-420 743.5-369 721-318 681-279l-71-71q25-24 39-57.543t14-71.978Q663-556 609.633-609.5q-53.367-53.5-129.5-53.5Q404-663 350.5-609.684 297-556.367 297-480.306 297-442 311-408t39 58l-72 72Z"/></svg>