<svg xmlns="http://www.w3.org/2000/svg" height="20" viewBox="0 -960 960 960" width="20"><path d="M432-504Zm0 306.154-27.231-23.693Q306.538-310 244.307-373.231q-62.23-63.23-96.538-110.153-34.308-46.924-47.038-83.347Q88-603.154 88-639q0-71.308 49.346-121.539 49.346-50.23 119.654-50.23 50.769 0 96.5 26t78.5 75.538q33.069-49.634 76.95-75.586 43.881-25.952 94.05-25.952 74.923 0 123.577 50.269 48.654 50.269 48.654 119.731 0 20.846-3.423 40.692t-12.269 40.692H724.077q10.846-22.846 15-42.655t4.154-37.191q0-64.384-43.693-101.961-43.692-37.577-96.538-37.577-54.692 0-87.885 28.5-33.192 28.5-70.038 78.269h-26.154q-39.385-51.538-71.269-79.154-31.885-27.615-90.654-27.615-58.538 0-97.769 40.384Q120-698 120-639q0 32.136 12.5 65.222 12.5 33.086 47 77.355 34.5 44.269 95 105.308Q335-330.077 432-241q29.615-26.615 72.731-66.538 43.115-39.924 65.423-61.231l3.437 3.437 7.832 7.832 7.832 7.832 3.438 3.437q-22.539 22.308-42.539 40.847-20 18.538-39.846 37.153L432-197.846ZM613.231-440v-32h248v32h-248Z"/></svg>