<svg xmlns="http://www.w3.org/2000/svg" height="24" viewBox="0 -960 960 960" width="24"><path d="M660-180v-190.769q0-10.769-6.923-17.692t-17.692-6.923h-310.77q-26.846 0-45.73-18.885Q260-433.154 260-460v-263.384l-69.846 69.846q-5.615 5.615-13.769 6-8.154.384-14.539-6-6.385-6.385-6.385-14.154 0-7.77 6.385-14.154l95.539-95.539q9.692-9.692 22.615-9.692 12.923 0 22.615 9.692l95.539 95.539q5.615 5.615 6 13.769.385 8.154-6 14.539-6.385 6.384-14.154 6.384t-14.154-6.384L300-723.384V-460q0 10.769 6.923 17.692t17.692 6.923h310.77q26.846 0 45.73 18.885Q700-397.615 700-370.769V-180q0 8.539-5.731 14.269Q688.539-160 680-160t-14.269-5.731Q660-171.461 660-180Z"/></svg>