<svg xmlns="http://www.w3.org/2000/svg" height="20" viewBox="0 -960 960 960" width="20"><path d="M400-664.062v135.689q0 3.44 2.253 5.906 2.254 2.467 5.7 2.467 3.447 0 5.747-2.251 2.3-2.252 2.3-5.695v-143.677q0-3.444-2.234-5.91-2.233-2.467-5.649-2.467H360.35q-3.417 0-5.883 2.253-2.467 2.254-2.467 5.7 0 3.42 2.267 5.702 2.266 2.283 5.733 2.283h40Zm184.35 95.75v40.156q0 3.534 2.279 5.845 2.278 2.311 5.324 2.311 3.047 0 5.547-2.267 2.5-2.266 2.5-5.733v-40h28q3.467 0 5.733-2.253 2.267-2.254 2.267-5.7 0-3.047-4.467-2.547-4.466.5-3.533-5.5h-28v-87.651q0-3.416-2.253-5.882-2.254-2.467-5.7-2.467-3.447 0-5.747 2.267-2.3 2.266-2.3 5.733v88h-68v-88q0-3.467-2.253-5.733-2.254-2.267-5.7-2.267-3.447 0-5.747 2.246t-2.3 5.68v95.706q0 3.435 2.291 5.745 2.292 2.311 5.797 2.311h76.262ZM248-196q-22.7 0-37.35-14.65Q196-225.3 196-248v-464q0-22.7 14.65-37.35Q225.3-764 248-764h464q22.7 0 37.35 14.65Q764-734.7 764-712v464q0 22.7-14.65 37.35Q734.7-196 712-196H248Zm72-228h64v88q0 3.467 2.253 5.733 2.254 2.267 5.7 2.267 3.447 0 5.747-2.267 2.3-2.266 2.3-5.733v-88h64v136q0 3.467 2.253 5.733 2.254 2.267 5.7 2.267 3.447 0 5.747-2.267 2.3-2.266 2.3-5.733v-144q0-4.2-1.9-6.1-1.9-1.9-6.1-1.9H312q-4.2 0-6.1 1.9-1.9 1.9-1.9 6.1v144q0 3.467 2.253 5.733 2.254 2.267 5.7 2.267 3.447 0 5.747-2.267 2.3-2.266 2.3-5.733v-136Zm240 96h88q4.2 0 6.1-1.9 1.9-1.9 1.9-6.1v-96q0-4.2-1.9-6.1-1.9-1.9-6.1-1.9h-96q-3.467 0-5.733 2.251-2.267 2.252-2.267 5.695v143.677q0 3.444 2.253 5.91 2.254 2.467 5.7 2.467 3.447 0 5.747-2.267 2.3-2.266 2.3-5.733v-40Zm0-16v-80h80v80h-80Z"/></svg>