<svg xmlns="http://www.w3.org/2000/svg" height="24" viewBox="0 -960 960 960" width="24"><path d="M480-60.782q-145.479 0-242.349-99.369-96.869-99.37-96.869-247.849 0-54.087 22.63-111.282 22.63-57.195 61.521-114.761 38.891-57.565 91-114.348t111.066-110.175q11.392-10.261 25.001-14.891 13.609-4.631 28-4.631t28 4.631q13.609 4.63 25.001 14.891 58.957 53.392 111.066 110.175 52.109 56.783 91 114.348 38.891 57.566 61.521 114.761 22.63 57.195 22.63 111.282 0 148.479-96.869 247.849-96.87 99.37-242.349 99.37Zm12.696-142.044q14.826-1 25.022-11.196 10.195-10.196 10.195-24.457 0-15.695-10.978-26.174-10.978-10.478-27.239-9.478-44.392 3-83.044-21.935-38.651-24.935-50.086-82.891-2-12.13-11.631-20.826-9.63-8.696-24.022-8.696-16.826 0-27.522 12.196-10.695 12.196-7.13 28.457 17 91.565 79.717 130.282 62.718 38.718 126.718 34.718Z"/></svg>