<svg xmlns="http://www.w3.org/2000/svg" height="20" viewBox="0 -960 960 960" width="20"><path d="M479.859-136q-112.936 0-192.398-79.505Q208-295.01 208-407.89q0-53.418 24.269-106.105 24.269-52.686 60.923-101.423 36.654-48.736 78.731-91.683 42.077-42.946 78-76.207 7.231-5.462 14.712-8.962 7.48-3.5 15.365-3.5t14.865 3.5q6.981 3.5 14.212 9.962 34.923 33.261 77 76.207 42.077 42.947 79.231 91.683 37.154 48.737 61.923 101.423Q752-460.308 752-407.89q0 112.88-79.603 192.385T479.859-136Zm.141-32q100 0 170-70t70-170q0-68-54-149T480-769Q348-638 294-557t-54 149q0 100 70 170t170 70Zm0-305.846Zm25.692 243.538q4.923-1 7.462-4.154 2.538-3.155 2.538-8.432 0-5.491-4.754-8.645-4.755-3.153-10.707-1.153-58 8-111.116-30.077Q336-320.846 327-380.846q-1-7.462-3.654-11.154t-7.808-3.692q-4.846 0-8.884 3.384-4.039 3.385-2.808 12.077 9.462 70.308 70.923 115.231 61.462 44.923 130.923 34.692Z"/></svg>