<svg xmlns="http://www.w3.org/2000/svg" height="20" viewBox="0 -960 960 960" width="20"><path d="M240-93 75-258l165-165 72 72-41 42h418l-41-42 72-72 165 165L720-93l-72-72 41-42H271l41 42-72 72ZM65-489v-56q0-28 16-51.5t42.184-35.548Q147-644 174.87-649.5q27.869-5.5 57-5.5 29.13 0 57.414 5.478Q317.568-644.043 342-632q26.102 12 41.551 35.5Q399-573 399-545v56H65Zm496 0v-56q0-28 15.449-51.5t41.735-35.548Q642-644 670.37-649.5q28.369-5.5 57.5-5.5 29.13 0 56.914 5.478Q812.568-644.043 837-632q26 12 42 35.5t16 51.5v56H561ZM232.133-671Q193-671 165-699.075q-28-28.075-28-67.5t28.075-66.925q28.075-27.5 67.5-27.5t66.925 27.867q27.5 27.868 27.5 67Q327-727 299.133-699q-27.867 28-67 28Zm496 0Q689-671 661-699.075q-28-28.075-28-67.5t28.075-66.925q28.075-27.5 67.5-27.5t66.925 27.867q27.5 27.868 27.5 67Q823-727 795.133-699q-27.868 28-67 28Z"/></svg>