<svg xmlns="http://www.w3.org/2000/svg" height="20" viewBox="0 -960 960 960" width="20"><path d="M240-144 96-288l144-144 51 51-57 57h492l-57-57 51-51 144 144-144 144-51-51 57-57H234l57 57-51 51ZM96-528v-33q0-22 12-39.5t32.184-26.548Q163-637 187.87-642.5q24.869-5.5 52-5.5 27.13 0 51.914 5.478Q316.568-637.043 340-627q20 9 32 26.5t12 39.5v33H96Zm480 0v-33q0-22 12-39.5t32.184-26.548Q643-637 667.87-642.5q24.869-5.5 52-5.5 27.13 0 51.914 5.478Q796.568-637.043 820-627q20 9 32 26.5t12 39.5v33H576ZM239.788-672Q210-672 189-693.212q-21-21.213-21-51Q168-774 189.212-795q21.213-21 51-21Q270-816 291-794.788q21 21.213 21 51Q312-714 290.788-693q-21.213 21-51 21Zm480 0Q690-672 669-693.212q-21-21.213-21-51Q648-774 669.212-795q21.213-21 51-21Q750-816 771-794.788q21 21.213 21 51Q792-714 770.788-693q-21.213 21-51 21Z"/></svg>