<svg xmlns="http://www.w3.org/2000/svg" height="20" viewBox="0 -960 960 960" width="20"><path d="M224-350q-31 0-49.5 16.5T132-308q-3 2-6.5 0t-3.5-7q0-5 3-9t8-6q20-10 36.5-25t54.5-15q46 0 67 24t62 24q39 0 60-24t67-24q48 0 67 24t60 24q39 0 61.5-24t68.5-24q38 0 54.5 15t36.5 25q5 2 7.5 6t2.5 9q0 5-4 7t-7 0q-23-9-42-25.5T737-350q-40 0-61.5 24T608-302q-48 0-67.5-24T480-350q-39 0-60 24t-67 24q-46 0-68.5-24T224-350Zm0-144q-31 0-49 16.5T133-452q-3 2-7 0t-4-7q0-5 3-9t8-6q20-10 36.5-25t54.5-15q48 0 68 24t61 24q39 0 60-24t67-24q48 0 67.5 24t61.5 24q39 0 60-24t67-24q40 0 56 15t36 25q4 2 7 6t3 9q0 5-3.5 7t-6.5 0q-23-9-43-25.5T736-494q-40 0-61.5 24T607-446q-48 0-67-24t-60-24q-39 0-61 24t-68 24q-46 0-66.5-24T224-494Zm0-144q-30 0-48.5 16T134-597q-4 2-8 .5t-4-6.5q0-5 3-9t8-6q20-10 36.5-25t54.5-15q48 0 68 24t61 24q39 0 60-24t67-24q48 0 67.5 24t61.5 24q39 0 60-24t67-24q40 0 56 15t36 25q4 2 7 6t3 9q0 5-3.5 7t-6.5 0q-23-9-43-25.5T736-638q-40 0-61.5 24T607-590q-48 0-67-24t-60-24q-39 0-61 24t-68 24q-46 0-66.5-24T224-638Z"/></svg>