<svg xmlns="http://www.w3.org/2000/svg" height="24" viewBox="0 -960 960 960" width="24"><path d="M214-309.231q-31.308 0-49.231 13.116Q146.846-283 121-275q-7.539 2.462-14.269-2.769Q100-283 100-291.538q0-9.308 5.731-16.039 5.73-6.731 14.577-10.115 19.307-8.231 37.269-19.885 17.961-11.654 56.423-11.654 50.539 0 71.346 20 20.808 20 61.423 20 41.077 0 61.885-20 20.807-20 71.346-20 50.077 0 71.346 20 21.269 20 61.885 20 41.077 0 61.654-20 20.576-20 71.115-20 38.462 0 56.423 11.654 17.962 11.654 37.269 19.885 8.847 3.384 14.577 10.115Q860-300.846 860-291.538q0 8.538-6.615 13.769-6.616 5.231-14.154 2.769-25.077-8-44.269-21.115-19.193-13.116-48.962-13.116-39.846 0-61.038 20-21.193 20-71.731 20-50.077 0-71.346-20-21.27-20-61.885-20-41.077 0-61.885 20-20.807 20-71.346 20-50.538 0-71.5-20-20.961-20-61.269-20ZM214-460q-31.308 0-49.346 13.116-18.039 13.115-43.885 21.115-7.538 2.461-14.154-2.769-6.615-5.231-6.615-13.77 0-9.307 5.731-16.038 5.73-6.731 14.577-10.116 19.307-8.23 37.269-19.884Q175.538-500 214-500q50.077 0 71.115 20 21.039 20 61.654 20 41.077 0 61.885-20 20.807-20 71.346-20 50.077 0 71.231 20 21.154 20 61.538 20 41.077 0 61.885-20 20.807-20 71.346-20 38 0 56.077 11.654 18.077 11.654 37.385 19.884 9.077 3.385 14.807 10.116Q860-451.615 860-442.308q0 8.539-6.731 13.77-6.73 5.23-14.269 2.769-25.077-8-44.154-21.115Q775.769-460 746-460q-39.846 0-61.038 20-21.193 20-71.731 20-50.077 0-71.346-20-21.27-20-61.885-20-41.077 0-61.654 20-20.577 20-71.115 20-50.539 0-71.962-20-21.423-20-61.269-20Zm0-150.769q-30.538 0-48.962 12.731-18.423 12.73-43.5 20.73-8.307 2.462-14.923-2.384Q100-584.538 100-593.077q0-9.308 5.731-16.038 5.73-6.731 14.577-10.116 19.307-8.231 37.269-19.885 17.961-11.653 56.423-11.653 50.077 0 71.115 20 21.039 20 61.654 20 41.077 0 61.885-20 20.807-20 71.346-20 50.077 0 71.231 20 21.154 20 61.538 20 41.077 0 61.885-20 20.807-20 71.346-20 38 0 56.077 11.653 18.077 11.654 37.385 19.885 9.077 3.385 14.807 10.116 5.731 6.73 5.731 16.038 0 8.539-6.731 13.769-6.73 5.231-14.269 2.77-25.077-8-44.154-21.116-19.077-13.115-48.846-13.115-39.846 0-61.038 20-21.193 20-71.731 20-50.077 0-71.346-20-21.27-20-61.885-20-41.077 0-61.654 20-20.577 20-71.115 20-50.539 0-71.962-20-21.423-20-61.269-20Z"/></svg>