<svg xmlns="http://www.w3.org/2000/svg" height="24" viewBox="0 -960 960 960" width="24"><path d="M564.616-160q-26.654 0-45.635-18.981Q500-197.961 500-224.615v-170.769q0-26.654 18.981-45.635Q537.962-460 564.616-460h170.769q26.654 0 45.634 18.981Q800-422.038 800-395.384v170.769q0 26.654-18.981 45.634Q762.039-160 735.385-160H564.616Zm0-340q-26.654 0-45.635-18.981Q500-537.962 500-564.616v-170.769q0-26.654 18.981-45.634Q537.962-800 564.616-800h170.769q26.654 0 45.634 18.981Q800-762.039 800-735.385v170.769q0 26.654-18.981 45.635Q762.039-500 735.385-500H564.616Zm-340.001 0q-26.654 0-45.634-18.981Q160-537.962 160-564.616v-170.769q0-26.654 18.981-45.634Q197.961-800 224.615-800h170.769q26.654 0 45.635 18.981Q460-762.039 460-735.385v170.769q0 26.654-18.981 45.635Q422.038-500 395.384-500H224.615Zm0 340q-26.654 0-45.634-18.981Q160-197.961 160-224.615v-170.769q0-26.654 18.981-45.635Q197.961-460 224.615-460h170.769q26.654 0 45.635 18.981Q460-422.038 460-395.384v170.769q0 26.654-18.981 45.634Q422.038-160 395.384-160H224.615Z"/></svg>