<svg xmlns="http://www.w3.org/2000/svg" height="24" viewBox="0 -960 960 960" width="24"><path d="M347.231-140q-50.539 0-71.962-20-21.423-20-61.269-20-17.077 0-32 5.385-14.923 5.384-53.769 27.692-10 5.615-19.5-.115-9.5-5.731-9.5-17.193 0-5.615 2.807-10.115 2.808-4.5 7.423-7.193 47.231-26 63.808-32.23Q189.846-220 214-220q50.077 0 71.115 20 21.039 20 61.654 20 41.077 0 61.885-20 20.807-20 71.346-20 50.077 0 71.231 20 21.154 20 61.538 20 41.077 0 61.885-20 20.807-20 71.346-20 24.154 0 40.462 6.231 16.307 6.23 64.077 32.23 4.615 2.693 7.423 7.193 2.807 4.5 2.807 10.115 0 11.462-9.615 17.193-9.616 5.73-19.616.115-38.077-21.538-53.269-27.308Q763.077-180 746-180q-39.846 0-61.038 20-21.193 20-71.731 20-50.077 0-71.346-20-21.27-20-61.885-20-41.077 0-61.654 20-20.577 20-71.115 20Zm-91.077-640q0 8.538-5.731 14.269T236.154-760h-68.462q-8.538 0-14.269-5.731T147.692-780q0-8.539 5.731-14.269Q159.154-800 167.692-800h68.462q8.538 0 14.269 5.731 5.731 5.73 5.731 14.269Zm46.384 141.615q6.616 5.846 6.231 14.27-.384 8.423-6.231 14.269l-48.769 48.769q-5.615 5.615-13.654 5.615-8.038 0-13.884-5.615-6.616-5.846-6.231-14.269.385-8.423 6.231-14.27L275-638.385Q280.615-644 288.654-644q8.038 0 13.884 5.615ZM480-639.231q-67.615 0-114.577-46.961-46.962-46.962-46.962-114.577h323.078q0 67.615-46.962 114.577Q547.615-639.231 480-639.231Zm0 58.462q8.539 0 14.269 5.73 5.731 5.731 5.731 14.27v68.461q0 8.539-5.731 14.269-5.73 5.731-14.269 5.731t-14.269-5.731Q460-483.769 460-492.308v-68.461q0-8.539 5.731-14.27 5.73-5.73 14.269-5.73Zm178.231-48.154q5.615-5.616 13.384-5.616 7.77 0 13.385 5.616l50.308 48.769q5.077 4.308-1.346 20.308t1.577 8q-6.616 6.615-14.27 6.615T707-551.846l-49.538-49.539q-5.616-5.846-5.347-13.769.27-7.923 6.116-13.769ZM812.308-780q0 8.538-5.731 14.269T792.308-760h-68.462q-8.538 0-14.269-5.731T703.846-780q0-8.539 5.731-14.269Q715.308-800 723.846-800h68.462q8.538 0 14.269 5.731 5.731 5.73 5.731 14.269ZM347.231-300q-50.539 0-71.962-20-21.423-20-61.269-20-17.077 0-31.769 5.269-14.692 5.27-53.539 27.577-10 5.616-19.615-.115-9.616-5.731-9.616-17.193 0-5.615 2.808-10.115t7.423-7.192q47.231-26 63.693-32.116Q189.846-380 214-380q50.077 0 71.115 20 21.039 20 61.654 20 41.077 0 61.885-20 20.807-20 71.346-20 50.077 0 71.231 20 21.154 20 61.538 20 41.077 0 61.885-20 20.807-20 71.346-20 24.154 0 40.231 6.115 16.077 6.116 63.846 32.116 4.615 2.692 7.423 7.192t2.808 10.115q0 11.462-9.616 17.193-9.615 5.731-19.615.115-38.077-21.538-53.039-27.192Q763.077-340 746-340q-39.846 0-61.038 20-21.193 20-71.731 20-50.077 0-71.346-20-21.27-20-61.885-20-41.077 0-61.654 20-20.577 20-71.115 20Z"/></svg>