<svg xmlns="http://www.w3.org/2000/svg" height="20" viewBox="0 -960 960 960" width="20"><path d="M351.231-164q-48.539 0-68.539-24T224-212q-16.077 0-31.5 7.885-15.423 7.884-50.269 32.192-8 7.615-17.5 3.358-9.5-4.258-9.5-14.774 0-3.507 1.179-6.135 1.18-2.629 3.051-5.065 43.231-31 61.808-40.23Q199.846-244 224.299-244q49.778 0 69.316 24 19.539 24 59.154 24 38.077 0 58.385-24 20.307-24 68.846-24 50.077 0 69.231 24 19.154 24 59.538 24 38.077 0 58.385-24 20.307-24 68.957-24 24.037 0 41.847 8.231 17.811 8.23 62.581 40.23 1.871 2.481 3.051 5.193 1.179 2.712 1.179 6.168 0 10.409-9.115 14.64-9.116 4.23-17.116-3.385-34.077-23.538-50.288-31.308Q752.037-212 736-212q-38.846 0-59.538 24-20.693 24-69.231 24-50.077 0-68.846-24-18.77-24-58.385-24-38.077 0-59.154 24-21.077 24-69.615 24Zm-93.077-589.973q0 8.511-6.75 15.242-6.75 6.731-15.25 6.731h-66.462q-8.5 0-15.25-6.758t-6.75-15.269q0-8.512 6.75-15.242 6.75-6.731 15.25-6.731h66.462q8.5 0 15.25 6.758 6.75 6.757 6.75 15.269Zm46.384 141.588q7.616 5.846 6.731 15.77-.884 9.923-6.731 15.769l-47.769 46.769q-6.423 6.615-15.557 7.115-9.135.5-14.981-6.115-7.616-5.846-6.731-15.769.885-9.923 6.731-15.77L274-611.385q6.423-6.615 15.558-7.115 9.134-.5 14.98 6.115ZM480-613.231q-69.615 0-116.577-46.961-46.962-46.962-46.962-116.577h44.001q0 49.641 34.975 84.589 34.975 34.949 84.653 34.949 49.679 0 84.564-34.949 34.884-34.948 34.884-84.589h44.001q0 69.615-46.962 116.577Q549.615-613.231 480-613.231Zm0-163.538Zm.027 220q8.512 0 15.242 6.75 6.731 6.75 6.731 15.25v65.461q0 8.5-6.758 15.25-6.757 6.75-15.269 6.75t-15.242-6.75q-6.731-6.75-6.731-15.25v-65.461q0-8.5 6.758-15.25 6.757-6.75 15.269-6.75Zm177.338-56.749q6.481-6.482 14.25-6.482 7.77 0 14.385 6.615l49.308 46.769q7.319 5.917 6.583 15.805-.737 9.888-7.352 16.503-7.616 7.616-16.27 7.616T703-534.308l-47.538-48.538q-6.616-5.846-5.347-15.269 1.27-9.424 7.25-15.403Zm154.943-140.455q0 8.511-6.75 15.242-6.75 6.731-15.25 6.731h-66.462q-8.5 0-15.25-6.758t-6.75-15.269q0-8.512 6.75-15.242 6.75-6.731 15.25-6.731h66.462q8.5 0 15.25 6.758 6.75 6.757 6.75 15.269ZM351.231-320q-48.539 0-68.539-24T224-368q-16.077 0-31.5 7.885-15.423 7.884-50.269 32.192-8 7.615-17.5 3.358-9.5-4.258-9.5-14.774 0-3.507 1.179-6.135 1.18-2.629 3.051-5.065 43.231-31 61.808-40.23Q199.846-400 224.299-400q49.778 0 69.316 24 19.539 24 59.154 24 38.077 0 58.385-24 20.307-24 68.846-24 50.077 0 69.231 24 19.154 24 59.538 24 38.077 0 58.385-24 20.307-24 68.957-24 24.037 0 41.847 8.231 17.811 8.23 62.581 40.23 1.871 2.481 3.051 5.193 1.179 2.712 1.179 6.168 0 10.409-9.115 14.64-9.116 4.23-17.116-3.385-34.077-23.538-50.288-31.308Q752.037-368 736-368q-38.846 0-59.538 24-20.693 24-69.231 24-50.077 0-68.846-24-18.77-24-58.385-24-38.077 0-59.154 24-21.077 24-69.615 24Z"/></svg>