<svg xmlns="http://www.w3.org/2000/svg" height="20" viewBox="0 -960 960 960" width="20"><path d="M351-170q-46 0-66.6-24-20.6-24-60.4-24-17 0-33 8t-52 33q-5 6-11.5 3.465t-6.5-9.605q0-1.86.333-3.027.334-1.166.667-2.833 43-31 61-40t41.388-9Q272-238 292-214q20 24 61 24 39 0 60-24t67-24q48 0 67.5 24t61.5 24q39 0 60-24t67.144-24q22.848 0 39.852 8Q793-222 838-190q.333 1.724.667 3 .333 1.276.333 3.069 0 6.931-6 9.431-6 2.5-11-3.5-35-24-52.026-32-17.025-8-33.974-8-40 0-61.5 24T607-170q-48 0-67-24t-60-24q-39 0-61 24t-68 24Zm-88-577.965Q263-742 257.975-737T247-732h-75q-5.95 0-10.975-5.035-5.025-5.035-5.025-11T161.025-759q5.025-5 10.975-5h75q5.95 0 10.975 5.035 5.025 5.035 5.025 11ZM305-608q6 4 5 11.5t-5 11.5l-54 53q-4.75 5-11.375 5.5T229-531q-6-4-5-11.5t5-11.5l54-53q4.75-5 11.375-5.5T305-608Zm175-5q-65 0-108.5-43.5T328-765h32q0 49.833 35.118 84.917 35.117 35.083 85 35.083Q530-645 565-680.083q35-35.084 35-84.917h32q0 65-43.5 108.5T480-613Zm0-152Zm.035 214Q486-551 491-545.975T496-535v74q0 5.95-5.035 10.975-5.035 5.025-11 5.025T469-450.025q-5-5.025-5-10.975v-74q0-5.95 5.035-10.975 5.035-5.025 11-5.025Zm177.139-58.174Q662-614 667-614q5 0 10 5l56 53q5.615 4.091 4.808 11.545Q737-537 732-532q-6 6-12 6t-11-6l-54-55q-5-4-3.5-11t5.674-11.174ZM804-747.965Q804-742 798.975-737T788-732h-75q-5.95 0-10.975-5.035-5.025-5.035-5.025-11T702.025-759q5.025-5 10.975-5h75q5.95 0 10.975 5.035 5.025 5.035 5.025 11ZM351-326q-46 0-66.6-24-20.6-24-60.4-24-17 0-33 8t-52 33q-5 6-11.5 3.465t-6.5-9.605q0-1.86.333-3.027.334-1.166.667-2.833 43-31 61-40t41.388-9Q272-394 292-370q20 24 61 24 39 0 60-24t67-24q48 0 67.5 24t61.5 24q39 0 60-24t67.144-24q22.848 0 39.852 8Q793-378 838-346q.333 1.724.667 3 .333 1.276.333 3.069 0 6.931-6 9.431-6 2.5-11-3.5-35-24-52.026-32-17.025-8-33.974-8-40 0-61.5 24T607-326q-48 0-67-24t-60-24q-39 0-61 24t-68 24Z"/></svg>