<svg xmlns="http://www.w3.org/2000/svg" height="24" viewBox="0 -960 960 960" width="24"><path d="M342.913-95.13q-61.261 0-82.174-20.847-20.913-20.848-58.044-20.848-14.565 0-27 5t-45.739 23.304q-25.652 14.392-51.087-.5-25.436-14.891-25.436-44.674 0-14.392 7.196-26.435 7.196-12.044 19.457-18.74 53.652-29.391 73.283-36.674 19.63-7.282 49.326-7.282 59.826 0 79.892 20.848 20.065 20.848 57.195 20.848 40.261 0 59.609-20.848T480-242.826q59.826 0 80.957 20.848 21.13 20.848 57.261 20.848 40.261 0 59.326-20.848 19.065-20.848 80.326-20.848 29.131 0 48.979 7.282 19.847 7.283 72.5 36.674 12.261 6.696 19.739 18.74 7.479 12.043 7.479 26.435 0 29.783-25.936 44.674-25.935 14.892-51.587.5-33.304-18.304-45.239-23.304-11.935-5-25.935-5-38.261 0-57.326 20.848-19.065 20.848-80.326 20.848-59.827 0-80.892-20.848-21.065-20.848-59.326-20.848-39.13 0-57.478 20.848t-79.609 20.848ZM238.304-832.218q0 22.087-15.456 37.544-15.457 15.457-37.544 15.457h-40q-22.088 0-37.544-15.457-15.457-15.457-15.457-37.544 0-22.087 15.457-37.544 15.456-15.457 37.544-15.457h40q22.087 0 37.544 15.457 15.456 15.457 15.456 37.544Zm77.392 145.869q15.957 15.957 16.24 37.827.282 21.87-15.674 37.827l-28.566 28q-14.956 14.956-36.544 15.239-21.587.283-37.543-14.674-15.957-15.957-16.24-37.827-.282-21.87 15.674-37.826l28.566-28q14.956-14.957 36.543-15.24 21.588-.282 37.544 14.674ZM480-683.524q-84.13 0-142.913-58.783-58.783-58.782-58.783-142.913h106.002q0 39.826 27.934 67.76 27.934 27.935 67.76 27.935 39.826 0 67.76-27.935 27.934-27.934 27.934-67.76h106.002q0 84.131-58.783 142.913Q564.13-683.524 480-683.524Zm0-201.696Zm0 244.522q22.087 0 37.544 15.457 15.457 15.457 15.457 37.544v40q0 22.087-15.457 37.544-15.457 15.457-37.544 15.457-22.087 0-37.544-15.457-15.457-15.457-15.457-37.544v-40q0-22.087 15.457-37.544 15.457-15.457 37.544-15.457Zm164.304-45.217q14.956-14.957 37.044-14.957 22.087 0 37.043 14.957l28.566 28q15.956 15.957 16.456 37.327.5 21.37-15.456 37.326-15.957 15.957-38.109 15.957-22.153 0-38.11-15.957l-28-28.565q-14.956-15.957-14.891-37.326.065-21.37 15.457-36.762Zm223.393-146.304q0 22.087-15.457 37.544-15.456 15.457-37.544 15.457h-40q-22.087 0-37.544-15.457-15.456-15.457-15.456-37.544 0-22.087 15.456-37.544 15.457-15.457 37.544-15.457h40q22.088 0 37.544 15.457 15.457 15.457 15.457 37.544Zm-524.784 577.09q-61.261 0-82.174-20.848-20.913-20.848-58.044-20.848-14.565 0-27 5t-45.739 23.304q-25.652 14.392-51.087-.5-25.436-14.891-25.436-44.674 0-14.392 7.196-26.435 7.196-12.044 19.457-18.74 53.652-29.391 73.283-36.674 19.63-7.282 49.326-7.282 59.826 0 79.892 20.848 20.065 20.848 57.195 20.848 40.261 0 59.609-20.848T480-402.826q59.826 0 80.957 20.848 21.13 20.848 57.261 20.848 40.261 0 59.326-20.848 19.065-20.848 80.326-20.848 29.131 0 48.979 7.282 19.847 7.283 72.5 36.674 12.261 6.696 19.739 18.74 7.479 12.043 7.479 26.435 0 29.783-25.936 44.674-25.935 14.892-51.587.5-33.304-18.304-45.239-23.304-11.935-5-25.935-5-38.261 0-57.326 20.848-19.065 20.848-80.326 20.848-59.827 0-80.892-20.848-21.065-20.848-59.326-20.848-39.13 0-57.478 20.848t-79.609 20.848Z"/></svg>