<svg xmlns="http://www.w3.org/2000/svg" height="24" viewBox="0 -960 960 960" width="24"><path d="M610.769-147.692q-104.154 0-191.538-59.692Q331.846-267.077 293.846-380H170.769q-8.538 0-14.269-5.731-5.731-5.73-5.731-14.269t5.731-14.269Q162.231-420 170.769-420h112.769q-2.769-11.769-3.923-29.231-1.154-17.461-1.154-30.769t1.154-29.615q1.154-16.308 3.923-30.385H170.769q-8.538 0-14.269-5.731-5.731-5.73-5.731-14.269t5.731-14.269Q162.231-580 170.769-580h123.077Q328-684.462 414.615-748.385q86.616-63.923 196.154-63.923 50.846 0 93.539 13.039 42.692 13.038 85.923 39.73 7.769 4.847 8.654 13.693.884 8.846-5.423 15.154-7.077 7.077-16.539 7.654-9.462.577-18.231-4.27-35.923-20.846-73.269-30.615-37.346-9.769-74.654-9.769-97.307 0-168.807 54.654-71.5 54.653-99.654 133.038h228.461q8.539 0 14.269 5.731 5.731 5.73 5.731 14.269t-5.731 14.269Q579.308-540 570.769-540H330.154q-4.308 14.077-5.692 30.385-1.385 16.307-1.385 29.615t2.154 31.154Q327.385-431 330.154-420h240.615q8.539 0 14.269 5.731 5.731 5.73 5.731 14.269t-5.731 14.269Q579.308-380 570.769-380h-229.23q34.307 93.769 109.269 140.731 74.961 46.961 159.961 46.961 36.539 0 75.423-10.038 38.885-10.039 72.5-30.116 8.769-5.615 18.231-5.154 9.462.462 16.539 7.539 6.307 7.077 5.423 15.923-.885 8.846-8.654 13.693-44 27.461-86.693 40.115-42.692 12.654-92.769 12.654Z"/></svg>