<svg xmlns="http://www.w3.org/2000/svg" height="20" viewBox="0 -960 960 960" width="20"><path d="M381.96-260h195.76q11.03 0 18.66-7.48Q604-274.95 604-286v-122q0-11.05-7.46-18.52-7.47-7.48-18.5-7.48H382.28q-11.03 0-18.65 7.48Q356-419.05 356-408v122q0 11.05 7.46 18.52 7.47 7.48 18.5 7.48Zm0-266h195.76q11.03 0 18.66-7.47Q604-540.95 604-552v-122q0-11.05-7.46-18.53-7.47-7.47-18.5-7.47H382.28q-11.03 0-18.65 7.47Q356-685.05 356-674v122q0 11.05 7.46 18.53 7.47 7.47 18.5 7.47Zm-86.24 378q-22.72 0-37.22-14.65T244-200v-560q0-22.7 14.66-37.35Q273.32-812 296.04-812h368.24q22.72 0 37.22 14.65T716-760v560q0 22.7-14.66 37.35Q686.68-148 663.96-148H295.72Z"/></svg>