<svg xmlns="http://www.w3.org/2000/svg" height="20" viewBox="0 -960 960 960" width="20"><path d="M480-77.347 269.347-288 339-357.088l91.999 91.999V-624h98.002v358.911L621-357.088 690.653-288 480-77.347ZM149.434-268.522q-31.304-47.435-46.891-101.304Q86.956-423.696 86.956-480q0-81.696 30.565-152.891Q148.087-704.087 202-758t125.609-84.479Q399.304-873.044 480-873.044q81.696 0 152.891 30.565Q704.087-811.913 758-758t84.479 125.109Q873.044-561.696 873.044-480q0 56.87-16.087 110.456-16.087 53.587-46.391 101.022l-71.349-71.784q17.913-33.478 26.869-67.977 8.957-34.5 8.957-71.717 0-122.652-86.196-208.847Q602.652-775.043 480-775.043q-122.652 0-208.847 86.196Q184.957-602.652 184.957-480q0 36.652 8.957 71.934 8.956 35.282 26.304 67.76l-70.784 71.784Z"/></svg>