<svg xmlns="http://www.w3.org/2000/svg" height="20" viewBox="0 -960 960 960" width="20"><path d="M204-248q-24 0-40-16t-16-40q0-24 16-40t40-16h552q24 0 40 16t16 40q0 24-16 40t-40 16H204Zm0-20h552q15.3 0 25.65-10.289 10.35-10.29 10.35-25.5Q792-319 781.65-329.5 771.3-340 756-340H204q-15.3 0-25.65 10.289-10.35 10.29-10.35 25.5Q168-289 178.35-278.5 188.7-268 204-268Zm282-164v-280h280v280H486Zm20-20h240v-240H506v240Zm-358-48v-23h245v23H148Zm406-110h144v-21H554v21Zm-334-12h173v-21H220v21Zm286 170v-240 240Z"/></svg>