<svg xmlns="http://www.w3.org/2000/svg" height="20" viewBox="0 -960 960 960" width="20"><path d="M195.391-130.13q-47.591 0-80.904-33.322-33.313-33.321-33.313-80.924 0-47.602 33.313-80.896 33.313-33.293 80.904-33.293h569.218q47.591 0 80.904 33.321 33.313 33.322 33.313 80.924 0 47.603-33.313 80.896-33.313 33.294-80.904 33.294H195.391Zm0-80.609h569.218q14.284 0 23.946-9.614 9.663-9.614 9.663-23.826t-9.663-23.995q-9.662-9.782-23.946-9.782H195.391q-14.284 0-23.946 9.614-9.663 9.614-9.663 23.826t9.663 23.994q9.662 9.783 23.946 9.783Zm182.391-215.043v-398.827h398.827v398.827H377.782ZM81.174-522.5v-81.326h206.109v81.326H81.173ZM506.39-629.782H648v-78.457H506.391v78.457ZM153.174-656.37h134.109v-80.848H153.174v80.848Z"/></svg>