<svg xmlns="http://www.w3.org/2000/svg" height="20" viewBox="0 -960 960 960" width="20"><path d="M240-520q-83 0-141.5-58.5T40-720q0-84 58.5-142T240-920q84 0 142 58t58 142q0 83-58 141.5T240-520ZM560-40v-360h360v360H560Zm147-607L313-253.796q5 11.796 8 24.94 3 13.145 3 27.3Q324-151 288.5-115.5T202-80q-50.833 0-86.417-35.583Q80-151.167 80-202q0-51 35.522-86.5 35.523-35.5 86.269-35.5Q216-324 229-320.792q13 3.209 25 7.792l393-394.203Q642-719 639-731.5t-3-26.5q0-51 35.583-86.5Q707.167-880 758-880q51 0 86.5 35.5T880-758q0 50.833-35.5 86.417Q809-636 758-636q-14 0-26.5-3.208Q719-642.417 707-647Z"/></svg>