<svg xmlns="http://www.w3.org/2000/svg" height="24" viewBox="0 -960 960 960" width="24"><path d="M240-508.695q-87.522 0-149.413-61.892Q28.694-632.478 28.694-720q0-88.522 61.892-149.913Q152.477-931.305 240-931.305q88.522 0 149.913 61.392Q451.305-808.522 451.305-720q0 87.522-61.392 149.413Q328.522-508.695 240-508.695Zm308.695 480v-382.61h382.61v382.61h-382.61Zm163.131-608.043L323.262-249.174q4.434 11.435 7.087 23.87 2.652 12.434 2.652 25.304 0 55.087-38.457 94.044Q256.087-66.999 200-66.999q-55.087 0-94.044-38.957Q66.999-144.913 66.999-200q0-56.087 38.957-94.544 38.957-38.457 94.044-38.457 12.87 0 25.304 2.652 12.435 2.653 23.87 7.087l387.564-388.564q-4.434-11.435-7.087-23.37-2.652-11.934-2.652-24.804 0-56.087 38.957-94.544 38.957-38.457 94.044-38.457 56.087 0 94.544 38.457 38.457 38.457 38.457 94.544 0 55.087-38.457 94.044-38.457 38.957-94.544 38.957-12.87 0-24.804-2.652-11.935-2.653-23.37-7.087Z"/></svg>