<svg xmlns="http://www.w3.org/2000/svg" height="20" viewBox="0 -960 960 960" width="20"><path d="M240-508.695q-87.522 0-149.413-61.892Q28.694-632.478 28.694-720q0-88.522 61.892-149.913Q152.477-931.305 240-931.305q88.522 0 149.913 61.392Q451.305-808.522 451.305-720q0 87.522-61.392 149.413Q328.522-508.695 240-508.695Zm308.695 480v-382.61h382.61v382.61h-382.61Zm161.131-603.043L328.262-250.97q4.434 11.231 6.587 23.81 2.152 12.579 2.152 25.604 0 55.643-39.457 95.1Q258.087-66.999 202-66.999q-55.921 0-95.461-39.54T66.999-202q0-56.087 39.479-95.544 39.48-39.457 95.313-39.457 13.079 0 25.513 2.361 12.435 2.36 23.87 6.378L631.738-710.03q-4.434-11.231-6.587-23.166-2.152-11.934-2.152-24.804 0-56.087 39.54-95.544 39.54-39.457 95.461-39.457 56.087 0 95.544 39.457 39.457 39.457 39.457 95.544 0 55.921-39.457 95.461T758-622.999q-12.87 0-24.804-2.361-11.935-2.36-23.37-6.378Z"/></svg>