<svg xmlns="http://www.w3.org/2000/svg" height="24" viewBox="0 -960 960 960" width="24"><path d="M480-87.694q-69.692-61.461-156.922-95.346-87.231-33.884-183.077-36.961v-406.921q96.385 2.692 184.192 40.154T480-486.461q68-62.845 155.807-100.307 87.807-37.462 184.192-40.154v406.921q-96.462 3.077-183.384 36.961Q549.692-149.155 480-87.694Zm0-77.075q63-46.616 134-74.781 71-28.166 146-37.219v-283.693q-75.693 13-146.577 51.538Q542.538-470.385 480-407.847q-62.538-62.538-133.423-101.077Q275.693-547.462 200-560.462v283.693q75 9.053 146 37.219 71 28.165 134 74.781Zm0-443.693q-59.653 0-102.134-42.481-42.48-42.48-42.48-102.133 0-59.654 42.48-102.134Q420.347-897.691 480-897.691t102.134 42.481q42.48 42.48 42.48 102.134 0 59.653-42.48 102.133Q539.653-608.462 480-608.462Zm.014-59.999q34.909 0 59.755-24.86 24.847-24.859 24.847-59.769t-24.86-59.756q-24.86-24.846-59.77-24.846-34.909 0-59.755 24.86-24.847 24.86-24.847 59.769 0 34.91 24.86 59.756 24.86 24.846 59.77 24.846ZM480-753.076Zm0 345.229Z"/></svg>