<svg xmlns="http://www.w3.org/2000/svg" height="20" viewBox="0 -960 960 960" width="20"><path d="M480-99.694q-66.692-57.461-147.141-95.346-80.449-37.884-168.858-40.961v-350.921q90.385 2.692 169.692 42.654T480-444.461q67-59.845 146.307-99.807 79.307-39.962 169.692-42.654v350.921q-88.951 3.077-169.129 40.961Q546.692-157.155 480-99.694Zm0-68.075q59-43.616 125-74.781 66-31.166 139-41.219v-244.693q-80.693 14-145.577 58.538Q533.538-425.385 480-371.847q-53.538-53.538-118.423-98.077Q296.693-514.462 216-528.462v244.693q73 9.053 139 40.719 66 31.665 125 75.281Zm0-392.693q-63.653 0-108.134-44.481-44.48-44.48-44.48-108.133 0-63.654 44.48-108.134Q416.347-865.691 480-865.691t108.134 44.481q44.48 44.48 44.48 108.134 0 63.653-44.48 108.133Q543.653-560.462 480-560.462Zm.014-51.999q41.509 0 71.055-29.56 29.547-29.559 29.547-71.069 0-41.51-29.56-71.056t-71.07-29.546q-41.509 0-71.055 29.56-29.547 29.56-29.547 71.069 0 41.51 29.56 71.056t71.07 29.546ZM480-713.076Zm0 341.229Z"/></svg>