<svg xmlns="http://www.w3.org/2000/svg" height="24" viewBox="0 -960 960 960" width="24"><path d="M480-20q-81-73-183-112T86-171v-458q113 0 214 32t180 95q79-63 180-95t214-32v458q-109 0-211 39T480-20Zm0-150q56-44 124-73t144-42v-204q-69 8-137 42.5T480-352q-58-55-126.5-89.5T212-489v204q72 11 140.5 40.5T480-170Zm.133-413Q408-583 356.5-634.367t-51.5-123.5Q305-830 356.367-882q51.368-52 123.5-52Q552-934 603.5-882T655-757.867q0 72.133-51.367 123.5Q552.266-583 480.133-583Zm0-111Q507-694 526-712.5q19-18.5 19-45.367 0-26.867-19.133-46-19.132-19.133-46-19.133Q453-823 434-803.867q-19 19.133-19 46t19.133 45.367q19.132 18.5 46 18.5ZM480-759Zm0 407Z"/></svg>