<svg xmlns="http://www.w3.org/2000/svg" height="24" viewBox="0 -960 960 960" width="24"><path d="m517.348-153.565 30.434-292.913q-46.26-12.739-77.804-35.543-31.543-22.805-59.978-51.805L325.174-450l73.566 78.087q7.13 7.696 10.695 16.892 3.566 9.195 3.566 19.456V-160q0 19.826-13.761 33.587-13.761 13.761-33.588 13.761-19.826 0-33.587-13.761-13.761-13.761-13.761-33.587v-155.304l-43.435-43.826 2.174 59.044q.434 9.696-2.414 18.826-2.847 9.131-8.978 16.261l-97.738 124.086q-12.261 15.261-31.587 17.544-19.327 2.282-34.588-10.413-15.26-12.696-17.543-32.088-2.283-19.391 10.413-34.652l84.042-106.26-36.085-127.827q-5.739-22.652-4.761-49.282.978-26.631 20.109-45.196l134-132q13.13-13.131 29.043-19.696 15.914-6.565 32.044-6.565 26.261 0 41.674 10.13 15.413 10.131 20.413 15.131l74.348 73.347q30.391 29.827 71.37 46.457 40.978 16.631 86.543 16.631h53q27.522 0 47.913 18.608 20.391 18.609 22.957 46.131l26 255.131q14.13 8.565 22.978 23.761 8.848 15.195 8.848 33.326 0 27.261-19.196 46.457-19.196 19.195-46.457 19.195t-46.956-19.195q-19.696-19.196-19.696-46.457 0-17 7.435-30.783 7.435-13.782 20.304-22.913l-5.565-51.957H599.087l-10.435 107.913q-2 13.261-12.195 22.674-10.196 9.413-23.457 9.413-16.261 0-26.957-11.761-10.695-11.761-8.695-27.456ZM504.522-660q-35.261 0-60.457-25.196-25.195-25.195-25.195-60.456 0-35.827 25.195-60.74 25.196-24.913 60.457-24.913 35.826 0 60.739 24.913 24.913 24.913 24.913 60.74 0 35.261-24.913 60.456Q540.348-660 504.522-660Zm101.696 334.348h105.564l-12.869-128.696h-78.826l-13.869 128.696Z"/></svg>