<svg xmlns="http://www.w3.org/2000/svg" height="20" viewBox="0 -960 960 960" width="20"><path d="M222.783-386.001h112.346v-187.998H222.783v187.998ZM173.782-288q-20.387 0-34.694-14.307-14.306-14.306-14.306-34.694v-285.998q0-20.388 14.306-34.694Q153.395-672 173.782-672h161.347q41.005 0 69.503 28.498 28.498 28.498 28.498 69.503v187.998q0 41.005-28.498 69.503Q376.134-288 335.129-288H173.782Zm465.097 0q-17.27 0-30.01-9.391-12.739-9.392-18.435-25.782l-94.869-288.565q-7.695-23.218 6.761-41.74Q516.783-672 540.56-672q15.397 0 27.854 8.826 12.457 8.826 17.111 24.914l69.258 217.52 72.649-219.781q5.22-15.522 16.982-23.783 11.763-8.261 26.67-8.261 23.525 0 37.699 19.037t6.479 41.79l-95.6 289.131q-5.661 16.389-18.65 25.498Q688.023-288 671.87-288h-32.991Z"/></svg>