<svg xmlns="http://www.w3.org/2000/svg" height="24" viewBox="0 -960 960 960" width="24"><path d="M623.077-372.308h-94.616q-6.461 0-11.307-4.846t-4.846-11.307v-183.078q0-6.461 4.846-11.307t11.307-4.846h94.616q17 0 28.5 11.5t11.5 28.5v135.384q0 17-11.5 28.5t-28.5 11.5Zm-203.077 0H314.615q-7.666 0-12.679-5.002-5.013-5.003-5.013-12.654t5.013-12.69q5.013-5.038 12.679-5.038h97.693v-56.923h-60q-6.154 0-10.77-4.616-4.615-4.615-4.615-10.769t4.615-10.769q4.616-4.616 10.77-4.616h60v-56.923h-97.693q-7.666 0-12.679-5.002-5.013-5.003-5.013-12.654t5.013-12.69q5.013-5.038 12.679-5.038H420q11.769 0 19.731 7.961 7.961 7.962 7.961 19.731v160q0 11.769-7.961 19.731-7.962 7.961-19.731 7.961Zm127.692-35.384h70.769q4.616 0 6.923-2.308 2.308-2.308 2.308-6.923v-126.154q0-4.615-2.308-6.923-2.307-2.308-6.923-2.308h-70.769v144.616ZM819.973-460q-8.511 0-14.242-5.75Q800-471.5 800-480q0-125-83.654-216.077T508.154-798.615l48.461 48.461q5.616 5.615 6 13.769.385 8.154-6 14.539-6.384 6.385-14.153 6.385-7.77 0-14.154-6.385l-97.462-97.462q-4.154-4.154-2.564-10 1.59-5.846 7.949-7.308 10.546-2.115 21.621-2.75Q468.926-840 480-840q74.7 0 140.4 28.35t114.3 76.95q48.6 48.6 76.95 114.3Q840-554.7 840-480q0 8.5-5.758 14.25-5.757 5.75-14.269 5.75ZM480-120q-74.7 0-140.4-28.35T225.3-225.3q-48.6-48.6-76.95-114.3Q120-405.3 120-480q0-8.5 5.758-14.25 5.757-5.75 14.269-5.75 8.511 0 14.242 5.75Q160-488.5 160-480q0 125 83.654 216.077t208.192 102.538l-48.461-48.461q-5.616-5.615-6.001-13.769-.384-8.154 6.001-14.539 6.384-6.385 14.153-6.385 7.77 0 14.154 6.385l97.462 97.462q4.154 4.154 2.564 10-1.59 5.846-7.949 7.308-10.546 2.115-21.621 2.75Q491.074-120 480-120Z"/></svg>