<svg xmlns="http://www.w3.org/2000/svg" height="24" viewBox="0 -960 960 960" width="24"><path d="M159.231-160v-40h68.461v-260h-68.461v-40h68.461v-260h-68.461v-40H800v40h-67.692v260H800v40h-67.692v260H800v40H159.231Zm108.461-40h424.616v-260h-40v-40h40v-260H267.692v260h40v40h-40v260ZM479.91-345.384q41.629 0 70.859-28.753Q580-402.89 580-443.728q0-32.503-18.75-55.834-18.75-23.33-81.25-95.823-61.923 72.154-80.962 95.816Q380-475.907 380-443.528q0 40.682 29.14 69.413 29.14 28.731 70.77 28.731ZM267.692-200v-560 560Z"/></svg>