<svg xmlns="http://www.w3.org/2000/svg" height="24" viewBox="0 -960 960 960" width="24"><path d="M485.826-193.305 192.174-486.391q-30.913-30.913-30.913-73.218 0-42.305 30.913-73.219l134.998-134.998q30.914-30.913 73.219-30.913 42.305 0 73.218 30.913l293.086 293.652q30.348 30.348 30.348 72.935 0 42.588-30.348 72.936L631.697-193.305q-30.348 30.348-72.936 30.348-42.587 0-72.935-30.348Zm96.349-663.868 58.912 58.912q12.696 12.696 12.413 31.391-.282 18.696-12.978 31.392-12.696 12.696-31.392 12.696-18.695 0-31.391-12.696L406.043-906.609q-13.13-13.13-7.348-29.978 5.783-16.848 23.914-19.848 14.565-2 28.695-2.782Q465.435-960 480-960q99 0 186.5 37.5t153 103q65.5 65.5 103 153T960-480q0 18.696-12.63 31.326-12.631 12.631-31.327 12.631-18.695 0-31.609-12.631-12.913-12.63-12.913-31.326 0-66.478-21.173-127.239-21.174-60.76-59.435-110.499t-91.325-85.957q-53.065-36.217-117.413-53.478Zm-204.35 754.346-58.912-58.912q-12.696-12.696-12.413-31.391.282-18.696 12.978-31.392 12.696-12.696 31.392-12.696 18.695 0 31.391 12.696l171.696 171.13q13.13 13.131 7.348 30.196-5.783 17.066-23.914 19.63-14.565 2-28.695 2.783Q494.565 0 480 0q-99 0-186.5-37.5t-153-103Q75-206 37.5-293.5T0-480q0-18.696 12.913-31.609t31.609-12.913q18.696 0 31.326 12.913 12.63 12.913 12.63 31.609 0 66.478 21.174 127.239 21.174 60.76 59.435 110.499t91.325 85.957q53.065 36.217 117.413 53.478Z"/></svg>