<svg xmlns="http://www.w3.org/2000/svg" height="20" viewBox="0 -960 960 960" width="20"><path d="M513.923-239.692 238.154-515.461Q222-533.615 221.5-558.5t16.654-42.038l121.308-121.308Q377.615-740 403-740q25.385 0 41.539 18.154l275.769 275.769q18.154 16.154 18.154 41.538 0 25.385-18.154 43.539L599-239.692q-17.154 17.154-42.039 16.654-24.884-.5-43.038-16.654Zm-63.692-652.693 88.923 89.923q5.615 5.616 6 10.769.385 5.154-6 11.539t-11.654 6.885q-5.269.5-11.654-5.885l-93.769-93.769q-11.154-11.154-6.577-25.385 4.577-14.231 19.192-18.461Q447.077-918 458.346-919q11.269-1 23.654-1 84.308 0 159.615 30.423 75.308 30.423 134.424 83.038 59.115 52.616 97.538 123.924Q912-611.308 920-528q2 6.539-3.731 11.269Q910.539-512 904-512q-6.538 0-11.269-4.731Q888-521.461 888-528q-9-82.231-47.269-151.385-38.269-69.153-97.116-118.192Q684.769-846.615 609-872.269q-75.769-25.654-158.769-20.116Zm59.538 824.77-88.923-89.923q-5.615-5.616-6-10.77-.385-5.153 6-11.538 6.385-6.385 11.654-6.885t11.654 5.885l93.769 93.77q11.154 11.153 6.577 24.5-4.577 13.346-19.192 18.346-12.385 1.23-23.654 2.73T478-40q-83.539 0-158.731-29.923T184.961-152.46q-59.115-52.616-97.038-124.308Q50-348.461 40-432q-2-6.539 3.23-11.269Q48.462-448 56-448q6.538 0 11.27 4.731Q72-438.539 72-432q9 82.231 47.269 151.385 38.269 69.153 97.615 118.192 59.347 49.038 134.616 74.692 75.269 25.654 158.269 20.116Z"/></svg>