<svg xmlns="http://www.w3.org/2000/svg" height="24" viewBox="0 -960 960 960" width="24"><path d="M478-202 200-479q-37-37-37-88t37-88l105-105q37-37 88-37t88 37l277 278q36 36 36 87.5T758-307L653-202q-36 36-87.5 36T478-202Zm87-89 104-104-276-276-104 104 276 276Zm-86-190Zm121-364 45 45q14 14 13.5 34T644-732q-14 14-34 14t-34-14L403-904q-14-14-7.976-31.297 6.024-17.298 24.643-20.541Q435-958 450-959q15-1 30-1 99 0 186.5 37.5t153 103q65.5 65.5 103 153T960-480q0 19.975-13.518 33.487Q932.965-433 912.982-433 893-433 879-446.513 865-460.025 865-480q0-62.876-19-120.438Q827-658 792-706t-83.5-84Q660-826 600-845ZM360-115l-45-45q-14-14-13.5-34t14.5-34q14-14 34-14t34 14L557-56q14 14 8 31.5T540-4q-15 2-30 3t-30 1q-99 0-186.5-37.5t-153-103Q75-206 37.5-293.5T0-480q0-20.4 13.8-34.2Q27.6-528 48-528q19.975 0 33.487 13.8Q95-500.4 95-480q0 62.876 19 120.438Q133-302 168-254t83.5 84Q300-134 360-115Z"/></svg>