<svg xmlns="http://www.w3.org/2000/svg" height="20" viewBox="0 -960 960 960" width="20"><path d="M519-254 252-521q-15-17.4-15.5-40.7Q236-585 252-601l107-107q17.4-17 41.2-17 23.8 0 38.8 17l267 267q17 15.4 17 39.2 0 23.8-17 40.8L599-254q-16.4 16-39.7 15.5Q536-239 519-254Zm17-12q9 9 23 9t23-9l111-112q9-9 9-23t-9-23L422-696q-9-9-23-9t-23 9L264-584q-9 9-9 23t9 23l272 272Zm-57-215Zm-47-413 103 104q4 4 4.5 6.5T535-776q-5 5-7.5 5.5T520-775l-91-91q-10-10-5.857-22.649 4.143-12.648 16.857-16.27Q451-906 460.975-907q9.975-1 21.025-1 82 0 155 29.5T767.5-798q57.5 51 95 120T908-528q2 3.95-2.035 6.975-4.035 3.025-8 3.025T891-521.025q-3-3.025-3-6.975-9-85-49-156T737.5-804.5Q676-854 597-878.5T432-894Zm96 828L425-170q-4-4-4.5-6.5t4.5-7.5q5-5 7.5-5.5t7.5 4.5l91 91q10 10 6 21.5t-16.817 16.1q-11.084 1.6-21.091 3Q489.085-52 478-52q-81.275 0-154.296-28.938-73.021-28.937-130.425-79.841-57.404-50.904-94.341-120.425Q62-350.725 52-432q-2-3.95 1.535-6.975Q57.07-442 62.035-442 66-442 69-438.975T72-432q9 85 49 156t102 120.5q62 49.5 140.5 74T528-66Z"/></svg>