<svg xmlns="http://www.w3.org/2000/svg" height="24" viewBox="0 -960 960 960" width="24"><path d="M304.615-160q-26.654 0-45.634-18.981Q240-197.961 240-224.615v-418.462q0-25.308 17.346-42.654 17.346-17.346 42.654-17.346h80v-100q0-15.385 10.769-26.154T416.923-840h126.154q15.385 0 26.154 10.769T580-803.077v100h75.385q26.654 0 45.634 18.981Q720-665.115 720-638.462v413.847q0 26.654-18.981 45.634Q682.039-160 655.385-160v9.231q0 12.385-9.193 21.577Q637-120 624.615-120q-12.384 0-21.576-9.192-9.193-9.192-9.193-21.577V-160H366.154v9.231q0 12.385-9.193 21.577Q347.769-120 335.385-120q-12.385 0-21.577-9.192-9.193-9.192-9.193-21.577V-160Zm0-40h350.77q10.769 0 17.692-6.923T680-224.615v-413.847q0-10.769-6.923-17.692t-17.692-6.923h-350.77q-10.769 0-17.692 6.923T280-638.462v413.847q0 10.769 6.923 17.692T304.615-200Zm46.888-70.769q7.651 0 12.689-5.013 5.039-5.013 5.039-12.679v-286.154q0-7.667-5.003-12.68t-12.654-5.013q-7.651 0-12.689 5.013-5.039 5.013-5.039 12.68v286.154q0 7.666 5.003 12.679 5.002 5.013 12.654 5.013Zm128.461 0q7.651 0 12.69-5.013 5.038-5.013 5.038-12.679v-286.154q0-7.667-5.002-12.68-5.003-5.013-12.654-5.013t-12.69 5.013q-5.038 5.013-5.038 12.68v286.154q0 7.666 5.002 12.679 5.003 5.013 12.654 5.013Zm128.462 0q7.651 0 12.689-5.013 5.039-5.013 5.039-12.679v-286.154q0-7.667-5.003-12.68t-12.654-5.013q-7.651 0-12.689 5.013-5.039 5.013-5.039 12.68v286.154q0 7.666 5.003 12.679t12.654 5.013ZM480-431.538Zm-64.615-271.539h129.23v-101.538h-129.23v101.538Z"/></svg>