<svg xmlns="http://www.w3.org/2000/svg" height="20" viewBox="0 -960 960 960" width="20"><path d="M274-110q-41 0-69.5-27T176-205v-427q0-39 24-67.5t61-28.5h90v-86q0-35 24.5-59.5T435-898h90q35 0 59.5 24.5T609-814v86h77q41.7 0 69.85 28.444Q784-671.112 784-629v423q0 40.875-28.5 68.438Q727-110 686-110v5q0 23.275-16.5 39.638Q653-49 631-49t-38.5-16.362Q576-81.725 576-105v-5H384v6q0 22-16.362 38.5Q351.275-49 328-49q-22.425 0-38.212-16.5Q274-82 274-104v-6Zm0-98h412v-422H274v422Zm80-38q17.4 0 29.7-12.3T396-288v-262q0-17.4-12.3-29.7T354-592q-17.4 0-29.7 12.3T312-550v262q0 17.4 12.3 29.7T354-246Zm126 0q17.4 0 29.7-12.3T522-288v-262q0-17.4-12.3-29.7T480-592q-17.4 0-29.7 12.3T438-550v262q0 17.4 12.3 29.7T480-246Zm126 0q17.4 0 29.7-12.3T648-288v-262q0-17.4-12.3-29.7T606-592q-17.4 0-29.7 12.3T564-550v262q0 17.4 12.3 29.7T606-246ZM480-419Zm-45-309h90v-86h-90v86Z"/></svg>