<svg xmlns="http://www.w3.org/2000/svg" height="20" viewBox="0 -960 960 960" width="20"><path d="M790.95-279.869q-18.814 0-31.751-12.727-12.938-12.727-12.938-31.541t12.727-31.752q12.727-12.937 31.541-12.937t31.752 12.727q12.937 12.727 12.937 31.541t-12.727 31.752q-12.727 12.937-31.541 12.937Zm-310.739 0q-18.814 0-31.752-12.727-12.938-12.727-12.938-31.541t12.727-31.752q12.727-12.937 31.541-12.937t31.752 12.727q12.938 12.727 12.938 31.541t-12.727 31.752q-12.727 12.937-31.541 12.937Zm-310.74 0q-18.814 0-31.752-12.727-12.937-12.727-12.937-31.541t12.727-31.752q12.727-12.937 31.541-12.937t31.751 12.727q12.938 12.727 12.938 31.541t-12.727 31.752q-12.727 12.937-31.541 12.937ZM790.95-435.521q-18.814 0-31.751-12.727-12.938-12.727-12.938-31.541t12.727-31.752q12.727-12.938 31.541-12.938t31.752 12.727q12.937 12.727 12.937 31.541t-12.727 31.752q-12.727 12.938-31.541 12.938Zm-155.652 0q-18.814 0-31.752-12.727-12.937-12.727-12.937-31.541t12.727-31.752q12.727-12.938 31.541-12.938t31.751 12.727q12.938 12.727 12.938 31.541t-12.727 31.752q-12.727 12.938-31.541 12.938Zm-155.087 0q-18.814 0-31.752-12.727-12.938-12.727-12.938-31.541t12.727-31.752q12.727-12.938 31.541-12.938t31.752 12.727q12.938 12.727 12.938 31.541t-12.727 31.752q-12.727 12.938-31.541 12.938Zm-155.653 0q-18.814 0-31.752-12.727-12.937-12.727-12.937-31.541t12.727-31.752q12.727-12.938 31.541-12.938t31.752 12.727q12.937 12.727 12.937 31.541t-12.727 31.752q-12.727 12.938-31.541 12.938Zm-155.087 0q-18.814 0-31.752-12.727-12.937-12.727-12.937-31.541t12.727-31.752q12.727-12.938 31.541-12.938t31.751 12.727q12.938 12.727 12.938 31.541t-12.727 31.752q-12.727 12.938-31.541 12.938ZM790.95-590.609q-18.814 0-31.751-12.727-12.938-12.727-12.938-31.541t12.727-31.751q12.727-12.938 31.541-12.938t31.752 12.727q12.937 12.727 12.937 31.541t-12.727 31.752q-12.727 12.937-31.541 12.937Zm-310.739 0q-18.814 0-31.752-12.727-12.938-12.727-12.938-31.541t12.727-31.751q12.727-12.938 31.541-12.938t31.752 12.727q12.938 12.727 12.938 31.541t-12.727 31.752q-12.727 12.937-31.541 12.937Zm-310.74 0q-18.814 0-31.752-12.727-12.937-12.727-12.937-31.541t12.727-31.751q12.727-12.938 31.541-12.938t31.751 12.727q12.938 12.727 12.938 31.541t-12.727 31.752q-12.727 12.937-31.541 12.937ZM790.95-746.261q-18.814 0-31.751-12.727-12.938-12.727-12.938-31.541t12.727-31.752q12.727-12.937 31.541-12.937t31.752 12.727q12.937 12.727 12.937 31.541t-12.727 31.751q-12.727 12.938-31.541 12.938Zm-155.652 0q-18.814 0-31.752-12.727-12.937-12.727-12.937-31.541t12.727-31.752q12.727-12.937 31.541-12.937t31.751 12.727q12.938 12.727 12.938 31.541t-12.727 31.751q-12.727 12.938-31.541 12.938Zm-155.087 0q-18.814 0-31.752-12.727-12.938-12.727-12.938-31.541t12.727-31.752q12.727-12.937 31.541-12.937t31.752 12.727q12.938 12.727 12.938 31.541t-12.727 31.751q-12.727 12.938-31.541 12.938Zm-155.653 0q-18.814 0-31.752-12.727-12.937-12.727-12.937-31.541t12.727-31.752q12.727-12.937 31.541-12.937t31.752 12.727q12.937 12.727 12.937 31.541t-12.727 31.751q-12.727 12.938-31.541 12.938Zm-155.087 0q-18.814 0-31.752-12.727-12.937-12.727-12.937-31.541t12.727-31.752q12.727-12.937 31.541-12.937t31.751 12.727q12.938 12.727 12.938 31.541t-12.727 31.751q-12.727 12.938-31.541 12.938Zm-.211 621.479q-18.903 0-31.691-12.727-12.787-12.727-12.787-31.541t12.787-31.751q12.788-12.938 31.691-12.938h621.48q18.903 0 31.691 12.727 12.787 12.727 12.787 31.541t-12.787 31.752q-12.788 12.937-31.691 12.937H169.26Z"/></svg>