<svg xmlns="http://www.w3.org/2000/svg" height="24" viewBox="0 -960 960 960" width="24"><path d="M810.74-265.869q-20.604 0-34.541-13.937-13.938-13.938-13.938-34.542 0-20.603 13.938-34.541 13.937-13.937 34.541-13.937 20.603 0 34.541 13.937 13.937 13.938 13.937 34.541 0 20.604-13.937 34.542-13.938 13.937-34.541 13.937Zm-330.74 0q-20.603 0-34.541-13.937-13.938-13.938-13.938-34.542 0-20.603 13.938-34.541 13.938-13.937 34.541-13.937 20.603 0 34.541 13.937 13.938 13.938 13.938 34.541 0 20.604-13.938 34.542-13.938 13.937-34.541 13.937Zm-330.74 0q-20.603 0-34.541-13.937-13.937-13.938-13.937-34.542 0-20.603 13.937-34.541 13.938-13.937 34.541-13.937 20.604 0 34.541 13.937 13.938 13.938 13.938 34.541 0 20.604-13.938 34.542-13.937 13.937-34.541 13.937Zm661.48-165.652q-20.604 0-34.541-13.938-13.938-13.938-13.938-34.541 0-20.603 13.938-34.541 13.937-13.938 34.541-13.938 20.603 0 34.541 13.938 13.937 13.938 13.937 34.541 0 20.603-13.937 34.541-13.938 13.938-34.541 13.938Zm-165.653 0q-20.603 0-34.541-13.938-13.937-13.938-13.937-34.541 0-20.603 13.937-34.541 13.938-13.938 34.541-13.938 20.604 0 34.541 13.938 13.938 13.938 13.938 34.541 0 20.603-13.938 34.541-13.937 13.938-34.541 13.938Zm-165.087 0q-20.603 0-34.541-13.938-13.938-13.938-13.938-34.541 0-20.603 13.938-34.541 13.938-13.938 34.541-13.938 20.603 0 34.541 13.938 13.938 13.938 13.938 34.541 0 20.603-13.938 34.541-13.938 13.938-34.541 13.938Zm-165.652 0q-20.604 0-34.542-13.938-13.937-13.938-13.937-34.541 0-20.603 13.937-34.541 13.938-13.938 34.542-13.938 20.603 0 34.541 13.938 13.937 13.938 13.937 34.541 0 20.603-13.937 34.541-13.938 13.938-34.541 13.938Zm-165.088 0q-20.603 0-34.541-13.938-13.937-13.938-13.937-34.541 0-20.603 13.937-34.541 13.938-13.938 34.541-13.938 20.604 0 34.541 13.938 13.938 13.938 13.938 34.541 0 20.603-13.938 34.541-13.937 13.938-34.541 13.938Zm661.48-165.088q-20.604 0-34.541-13.937-13.938-13.938-13.938-34.541 0-20.604 13.938-34.541 13.937-13.938 34.541-13.938 20.603 0 34.541 13.938 13.937 13.937 13.937 34.541 0 20.603-13.937 34.541-13.938 13.937-34.541 13.937Zm-330.74 0q-20.603 0-34.541-13.937-13.938-13.938-13.938-34.541 0-20.604 13.938-34.541 13.938-13.938 34.541-13.938 20.603 0 34.541 13.938 13.938 13.937 13.938 34.541 0 20.603-13.938 34.541-13.938 13.937-34.541 13.937Zm-330.74 0q-20.603 0-34.541-13.937-13.937-13.938-13.937-34.541 0-20.604 13.937-34.541 13.938-13.938 34.541-13.938 20.604 0 34.541 13.938 13.938 13.937 13.938 34.541 0 20.603-13.938 34.541-13.937 13.937-34.541 13.937Zm661.48-165.652q-20.604 0-34.541-13.938-13.938-13.937-13.938-34.541 0-20.603 13.938-34.541 13.937-13.937 34.541-13.937 20.603 0 34.541 13.937 13.937 13.938 13.937 34.541 0 20.604-13.937 34.541-13.938 13.938-34.541 13.938Zm-165.653 0q-20.603 0-34.541-13.938-13.937-13.937-13.937-34.541 0-20.603 13.937-34.541 13.938-13.937 34.541-13.937 20.604 0 34.541 13.937 13.938 13.938 13.938 34.541 0 20.604-13.938 34.541-13.937 13.938-34.541 13.938Zm-165.087 0q-20.603 0-34.541-13.938-13.938-13.937-13.938-34.541 0-20.603 13.938-34.541 13.938-13.937 34.541-13.937 20.603 0 34.541 13.937 13.938 13.938 13.938 34.541 0 20.604-13.938 34.541-13.938 13.938-34.541 13.938Zm-165.652 0q-20.604 0-34.542-13.938-13.937-13.937-13.937-34.541 0-20.603 13.937-34.541 13.938-13.937 34.542-13.937 20.603 0 34.541 13.937 13.937 13.938 13.937 34.541 0 20.604-13.937 34.541-13.938 13.938-34.541 13.938Zm-165.088 0q-20.603 0-34.541-13.938-13.937-13.937-13.937-34.541 0-20.603 13.937-34.541 13.938-13.937 34.541-13.937 20.604 0 34.541 13.937 13.938 13.938 13.938 34.541 0 20.604-13.938 34.541-13.937 13.938-34.541 13.938Zm0 661.479q-20.603 0-34.541-13.937-13.937-13.938-13.937-34.541 0-20.604 13.937-34.541 13.938-13.938 34.541-13.938h661.48q20.603 0 34.541 13.938 13.937 13.937 13.937 34.541 0 20.603-13.937 34.541-13.938 13.937-34.541 13.937H149.26Z"/></svg>