<svg xmlns="http://www.w3.org/2000/svg" height="20" viewBox="0 -960 960 960" width="20"><path d="M198-520v115q-9 3-16.5 11.167Q174-385.667 174-378q0 12 7.5 21.5T203-338l12 6 64.488 1h27.219Q317-331 324-325.5t10 14.5l3 6 60-23q2-1 21-3h150.25q7.519 0 13.135 3 5.615 3 9.615 9l29 41 116-27 26-44q4-7 10.308-10.5Q778.615-363 787-363h-3q1-4 1.5-7.5t.5-7.5q0-7.667-7.5-15.833Q771-402 762-405v-115q67 29 99.5 64.5T894-378q0 5-.5 10.5T893-357h13l30 41q5 6 5.5 13.5t-1.912 14.647L897-177q-3 8.714-11 13.857Q878-158 869-158H763l-1-4q1 9-2.5 16.4-3.5 7.4-11.5 10.6l-84 34q-7 3-21 3H367q-10 0-17-5.5T339-117l-5-15-133 31q-6 2-13.5.5T176-106L28-219q-6-4-9-9.692-3-5.693-3-13.308v-71q0-8 4.182-15.167Q24.364-335.333 31-339l36-25q-1-3.053-1-6.5v-7.5q0-42 32.5-77t99.5-65Zm35-55q-21-30-33.5-62.679-12.5-32.678-12.5-68.696 0-6.625.5-12.625t1.5-13q1.913-21.927 17.957-37.963Q223-786 243-786q23.105 0 39.053 16.1Q298-753.8 296-731.783q-1 5.3-1 11.041v11.535q0 27.931 15.082 52.5Q325.163-632.138 341-609q21 26 34 57.825 13 31.826 13 66.447V-477q0 4-1 8-3 22-18 38.5T333-414q-25 0-41-15.978t-14-38.466q1-4.556 1.5-9.056.5-4.5.5-9.191 0-26.21-15.5-46.76Q249-554 233-575Zm163 0q-21-30-33.5-62.679-12.5-32.678-12.5-68.696 0-6.625.5-12.625t1.5-13q1.913-21.927 17.957-37.963Q386-786 406-786q23.105 0 39.053 16.1Q461-753.8 459-731.783q-1 5.3-1 11.041v11.535q0 27.931 15.082 52.5Q488.163-632.138 504-609q21 26 34 57.825 13 31.826 13 66.447V-477q0 4-1 8-3 22-18 38.5T496-414q-25 0-41-15.978t-14-38.466q1-4.556 1.5-9.056.5-4.5.5-9.191 0-26.21-15.5-46.76Q412-554 396-575Zm163 0q-21-30-33.5-62.679-12.5-32.678-12.5-68.696 0-6.625.5-12.625t1.5-13q1.913-21.927 17.957-37.963Q549-786 569-786q23.105 0 39.053 16.1Q624-753.8 622-731.783q-1 5.3-1 11.041v11.535q0 27.931 15.082 52.5Q651.163-632.138 667-609q21 26 34 57.825 13 31.826 13 66.447V-477q0 4-1 8-3 22-18 38.5T659-414q-25 0-41-15.978t-14-38.466q1-4.556 1.5-9.056.5-4.5.5-9.191 0-26.21-15.5-46.76Q575-554 559-575Z"/></svg>