<svg xmlns="http://www.w3.org/2000/svg" height="24" viewBox="0 -960 960 960" width="24"><path d="M235.478-62.477q-22.087 0-37.544-15.457-15.457-15.457-15.457-37.544 0-22.087 15.457-37.544 15.457-15.457 37.544-15.457h191.521v-136.825H360q-90.913 0-155.066-64.152-64.152-64.153-64.152-155.066 0-63.391 33.282-116.718 33.283-53.326 90.413-80.283 12.957-78.391 73.979-130.022 61.022-51.63 141.544-51.63 80.522 0 141.544 51.63 61.022 51.631 73.979 130.022 57.13 26.957 90.413 80.283 33.282 53.327 33.282 116.718 0 90.913-64.152 155.066Q690.913-305.304 600-305.304h-66.999v136.825h191.521q22.087 0 37.544 15.457 15.457 15.457 15.457 37.544 0 22.087-15.457 37.544-15.457 15.457-37.544 15.457H235.478Z"/></svg>