<svg xmlns="http://www.w3.org/2000/svg" height="20" viewBox="0 -960 960 960" width="20"><path d="M216.422-354.607q-18.118 0-30.879-12.551-12.761-12.55-12.761-30.587t12.605-30.798q12.605-12.761 30.723-12.761h527.468q18.118 0 30.879 12.551 12.761 12.55 12.761 30.587t-12.605 30.798q-12.605 12.761-30.723 12.761H216.422Zm0-134.697q-18.118 0-30.879-12.55-12.761-12.55-12.761-30.587t12.605-30.798Q197.992-576 216.11-576h527.468q18.118 0 30.879 12.55 12.761 12.551 12.761 30.588 0 18.036-12.605 30.797t-30.723 12.761H216.422ZM480.211-50.78q-18.037 0-30.798-12.611T436.652-94.13v-47.346l-21.261 21.26q-13.261 13.261-30.587 13.261t-30.587-13.261q-13.261-13.261-13.261-30.587t13.261-30.587l91.044-90.774q7.111-7.096 15.973-10.726 8.862-3.631 18.344-3.631 9.481 0 18.626 3.631 9.144 3.63 15.84 10.326l91.739 91.174q13.261 13.261 12.978 30.369-.282 17.109-12.978 29.805-13.261 13.261-30.87 12.978-17.609-.282-30.304-13.543l-21.261-20.826v48.477q0 18.127-12.55 30.738-12.551 12.61-30.587 12.61Zm-.919-593.872q-9.482 0-18.344-3.631-8.861-3.63-15.557-10.326l-91.174-91.174q-13.261-13.261-12.761-30.587t13.761-30.587q13.261-13.261 30.587-13.261t30.587 13.261l20.261 21.26v-47.347q0-18.126 12.55-30.737 12.551-12.611 30.587-12.611 18.037 0 30.798 12.611t12.761 30.737v47.347l21.261-21.26q13.261-13.261 30.587-12.761t30.587 13.761q13.826 13.826 13.826 30.869 0 17.044-13.826 30.305l-91.609 89.828q-7.112 7.042-16.256 10.672-9.144 3.631-18.626 3.631Z"/></svg>