<svg xmlns="http://www.w3.org/2000/svg" height="20" viewBox="0 -960 960 960" width="20"><path d="M207.292-332Q187-332 172.5-346.289q-14.5-14.29-14.5-34.5Q158-401 172.344-415.5q14.345-14.5 34.637-14.5h545.727Q773-430 787.5-415.711q14.5 14.29 14.5 34.5Q802-361 787.656-346.5 773.311-332 753.019-332H207.292Zm0-146Q187-478 172.5-492.289q-14.5-14.29-14.5-34.5Q158-547 172.344-561.5q14.345-14.5 34.637-14.5h545.727Q773-576 787.5-561.711q14.5 14.29 14.5 34.5Q802-507 787.656-492.5 773.311-478 753.019-478H207.292ZM480.211-16Q460-16 445.5-30.35T431-65v-33l-13 13q-15 15-34.5 15T349-85q-15-15-15-34.5t15-34.5l88.87-88.6q8.416-8.4 19.234-12.9 10.818-4.5 22.039-4.5 11.221 0 22.539 4.5Q513-251 521-243l90 89q15 15 14.5 34.5T611-86q-15 15-35 14.5T542-87l-13-13v35q0 20.3-14.289 34.65Q500.421-16 480.211-16Zm-1.354-633q-11.221 0-22.039-4.5Q446-658 438-666l-89-89q-15-15-14.5-34.5T350-824q15-15 34.5-15t34.5 15l12 13v-33q0-20.3 14.289-34.65 14.29-14.35 34.5-14.35Q500-893 514.5-878.65T529-844v33l13-13q15-15 34.5-14.5T611-823q16 16 16 35t-16 34l-89.87 87.655Q512.714-658 501.396-653.5q-11.318 4.5-22.539 4.5Z"/></svg>