<svg xmlns="http://www.w3.org/2000/svg" height="20" viewBox="0 -960 960 960" width="20"><path d="M560-41q-23 10-46 3t-33-30l-60-120q-10-22-2.5-45t30-33q21.5-10 45-3t33.5 29l60 120q10 23 3 46t-30 33Zm198 0q-23 10-46.5 3T678-68l-60-120q-10-22-2-45t30.5-33q22.5-10 45.5-3t33 29l60 120q10 23 3 46t-30 33Zm-396 0q-23 10-46.5 3T282-68l-60-120q-10-22-2-45t30.5-33q22.5-10 45.5-3t33 29l60 120q10 23 3 46t-30 33Zm-67-287q-94 0-158-68.5T73-560q0-83 54.5-144T263-779q34-56 92.5-89.5T479.962-902Q569-902 636.5-847.5 704-793 724-708q70 8 116.5 63T887-519q0 79-55.708 135Q775.583-328 696-328H295Zm5-118h396q30.34 0 51.67-21.261 21.33-21.26 21.33-51.5Q769-549 747.67-570.5 726.34-592 696-592h-76l-9-83q-8-47.513-45.221-78.256Q528.558-784 480.077-784 441-784 408.5-762.5T359-706l-19.714 42H301q-45.913-.333-77.957 31.417Q191-600.833 191-555.333 191-510 222.764-478q31.765 32 77.236 32Zm180-169Z"/></svg>