<svg xmlns="http://www.w3.org/2000/svg" height="20" viewBox="0 -960 960 960" width="20"><path d="M209-209q-53-52-83-121.479T96-479.5q0-80.5 30-150T208-752l51 51q-42 43-66.5 99.602Q168-544.795 168-480.386q0 65.386 24.468 121.927Q216.936-301.918 260-260l-51 51Zm101-101q-32-33-51-76.5t-19-93.234q0-50.729 19-93.997Q278-617 310-650l51 51q-22.936 23.206-35.968 53.795Q312-514.616 312-479.808q0 34.808 13.032 65.258Q338.064-384.1 361-361l-51 51Zm169.752-86Q445-396 420.5-420.748t-24.5-59.5Q396-515 420.748-539.5t59.5-24.5Q515-564 539.5-539.252t24.5 59.5Q564-445 539.252-420.5t-59.5 24.5ZM649-311l-50-50q22.936-23.205 35.968-53.795Q648-445.384 648-480.192q0-34.808-13.032-65.258Q621.936-575.9 599-599l51-51q32 33 51 76.342t19 94.156q0 49.818-19 93.16T649-311Zm102 102-51-51q43-42 67.5-98.602Q792-415.205 792-479.614 792-545 767.5-601.5T701-701l51-51q52 53 82 122.479t30 149.979Q864-400 834-330.5T751-209Z"/></svg>