<svg xmlns="http://www.w3.org/2000/svg" height="20" viewBox="0 -960 960 960" width="20"><path d="M179-264v-32q0-18 8.5-28.5t24.445-19.587Q253-368 297-384q44-16 118-16t118 16q44 16 85.055 39.913Q634-335 642.5-324.5T651-296v32H179Zm544 0v-24q0-30-5.947-53.482T703-379q11 8 24.5 16.5T758-344q9 4 16 20.16 7 16.161 7 35.84v24h-58ZM415-512q-38.55 0-65.275-26.725Q323-565.45 323-604q0-38.55 26.725-65.275Q376.45-696 415-696q38.55 0 65.275 26.725Q507-642.55 507-604q0 38.55-26.725 65.275Q453.55-512 415-512Zm194-92q0 38.55-26.725 65.275Q555.55-512 517-512q3 0 13 2t13 3q16.321-19.763 26.161-44.005Q579-575.247 579-604.124 579-633 568.5-656.5 558-680 543-701q-6 3-13 4t-13 1q38.55 0 65.275 26.725Q609-642.55 609-604Z"/></svg>