<svg xmlns="http://www.w3.org/2000/svg" height="24" viewBox="0 -960 960 960" width="24"><path d="M9-109v-148q0-43.302 22.695-79.599Q54.391-372.896 92-392q65-32 132.959-48.5T363-457q72 0 140 16t131 48q37.609 18.958 60.305 54.979Q717-302 717-257.055V-109H9Zm803 0v-153q0-48-23.5-93.5T717-445q40 8 77 21t72 31q40 20 62.5 55.808Q951-301.385 951-259v150H812ZM363-497q-74 0-125.5-51.5T186-674q0-74 51.5-125.5T363-851q74 0 125.5 51.5T540-674q0 74-51.5 125.5T363-497Zm449-177.009Q812-601 760.053-549q-51.948 52-124.895 52Q623-497 607-500t-31-8q29-34 44-76.852 15-42.852 15-89T620-763q-15-43-44-77 15-6 29-8.5t29.529-2.5q73.207 0 125.339 51.991Q812-747.018 812-674.009ZM135-235h456v-17q0-10.029-5.5-18.235T571-283q-48-23-100-35.5T363-331q-54 0-108 12.5T155-283q-9 4.559-14.5 12.765T135-252v17Zm227.841-373Q390-608 409.5-627.341q19.5-19.34 19.5-46.5Q429-701 409.659-720.5q-19.34-19.5-46.5-19.5Q336-740 316.5-720.659q-19.5 19.34-19.5 46.5Q297-647 316.341-627.5q19.34 19.5 46.5 19.5ZM363-235Zm0-439Z"/></svg>