<svg xmlns="http://www.w3.org/2000/svg" height="20" viewBox="0 -960 960 960" width="20"><path d="M127.925-219.694v-68.922q0-22.923 10.962-40.191 10.961-17.269 30.632-28.764 49.021-28.89 103.174-45.505 54.154-16.615 123.231-16.615t123.23 16.615q54.154 16.615 103.175 45.505 19.671 11.495 30.632 28.764 10.961 17.268 10.961 40.191v68.922H127.925Zm607.997 0v-65.845q0-37.384-14.286-68.569-14.287-31.185-37.712-50.737 28.23 8 55.883 19.577 27.653 11.577 54.499 27.73 17 9.538 27.384 28.984 10.385 19.447 10.385 43.015v65.845h-96.153ZM395.924-492.309q-51.749 0-87.874-36.124-36.125-36.125-36.125-87.874 0-51.75 36.125-87.874 36.125-36.125 87.874-36.125 51.749 0 87.874 36.125 36.124 36.124 36.124 87.874 0 51.749-36.124 87.874-36.125 36.124-87.874 36.124Zm281.381-123.998q0 51.749-36.125 87.874-36.125 36.124-87.874 36.124-3.769 0-4.23.462-.461.462-4.23-.384 21.662-25.447 34.369-56.617 12.707-31.17 12.707-67.507 0-36.336-12.961-67.221Q566-714.46 544.846-740.383q2.615-.077 4.23 0 1.615.077 4.23.077 51.749 0 87.874 36.125 36.125 36.124 36.125 87.874Z"/></svg>