<svg xmlns="http://www.w3.org/2000/svg" height="24" viewBox="0 -960 960 960" width="24"><path d="M701.609-177.826q-14.957 14.957-37.044 14.957-22.087 0-37.044-14.957L458.348-346.869q-14.957-14.957-22.87-34.261-7.913-19.305-7.913-40.392v-234.085l-53.521 52.955q-15.957 15.957-37.544 15.957-21.587 0-37.544-15.957-15.957-15.957-15.957-37.044 0-21.087 15.957-37.044l144-144.434q7.696-7.696 17.522-11.609 9.826-3.913 20.087-3.913t19.805 3.913q9.543 3.913 17.239 11.609L661.044-678.74q15.957 15.957 15.957 37.544 0 21.587-15.957 37.544-15.957 15.957-37.544 16.457-21.587.5-37.544-15.457l-52.39-52.955v235.65l168.043 168.044q14.957 14.956 14.957 37.043 0 22.088-14.957 37.044Zm-442.653.435q-15.391-15.957-15.174-37.261.217-21.305 15.174-36.261l52.912-54.478q15.392-15.391 37.544-15.391 22.153 0 37.544 15.956 15.392 15.957 15.174 37.544-.217 21.588-16.174 36.979l-52.912 52.912Q318.087-162.434 296-162.434q-22.087 0-37.044-14.957Z"/></svg>