<svg xmlns="http://www.w3.org/2000/svg" height="20" viewBox="0 -960 960 960" width="20"><path d="M330.114-164q-69.653 0-117.883-48.15Q164-260.3 164-330v-364.154q0-40.461 31.423-71.154Q226.846-796 265.538-796q36.693 0 68.577 27.269Q366-741.462 366-705q0 44.769-30.5 78.385Q305-593 264-596h-68v266q0 56.333 38.36 95.167Q272.72-196 329.09-196q56.371 0 95.641-38.833Q464-273.667 464-330v-300q0-69.7 48.117-117.85Q560.233-796 629.886-796t118.383 48.15Q797-699.7 797-630v358q0 42.769-26.423 75.385Q744.154-164 703.154-164q-40 0-73.077-30T597-264.385q0-40.384 30-70Q657-364 697-364h68v-266q0-56.333-38.86-95.167Q687.281-764 630.909-764q-56.37 0-95.64 38.833Q496-686.333 496-630v300q0 69.7-48.117 117.85Q399.767-164 330.114-164Z"/></svg>