<svg xmlns="http://www.w3.org/2000/svg" height="20" viewBox="0 -960 960 960" width="20"><path d="M125.782-428.609h149.912v-57.173h-55.042q-20.585 0-34.51-14.246-13.926-14.247-13.926-34.544 0-20.298 14.076-34.255 14.075-13.957 34.36-14.957h52.608q41.492-1 70.964 28.638t29.472 72.364v54.173h56.738v-282.782q0-71.218 50.186-121.523 50.187-50.304 121.867-50.304 49.296 0 89.435 25.759 40.139 25.76 62.905 69.285l18.956 38.346q9.261 18.522 3.348 37.675-5.913 19.152-25.001 28.413-18.521 8.696-37.109 3.066-18.587-5.631-27.848-24.153l-20.804-39.77q-9.698-18.692-26.816-29.656-17.118-10.964-37.204-10.964-30.566 0-52.24 21.532-21.674 21.533-21.674 52.294v282.782h57.304v-54.173q0-42.726 29.472-72.364 29.472-29.638 70.964-28.638h52.608q20.285 1 34.36 15.045 14.075 14.044 14.075 34.044 0 19.999-14.075 34.956-14.075 14.957-34.36 13.957H683.74v57.173h150.478q20.387 0 34.694 14.247 14.306 14.246 14.306 34.544 0 20.297-14.306 34.754-14.307 14.457-34.694 14.457H125.782q-20.387 0-34.694-14.246-14.306-14.247-14.306-34.544 0-20.298 14.306-34.755 14.307-14.457 34.694-14.457Zm120.436 303.827q-40.193 0-68.815-28.621-28.621-28.622-28.621-68.815v-59.824h662.436v69.694q0 36.121-24.824 61.844-24.824 25.722-60.176 25.722h-480Z"/></svg>