<svg xmlns="http://www.w3.org/2000/svg" height="20" viewBox="0 -960 960 960" width="20"><path d="M152-413.539h184.923v-74.615q0-10-6.923-16.923Q323.077-512 313.077-512H248q-6.8 0-11.4-4.547-4.6-4.547-4.6-11.269 0-6.723 4.75-10.953Q241.5-543 248-544h62.077q24.846-1 41.846 16 17 17 17 42.846v71.615H464v-276q0-55.938 38.907-95.199Q541.814-824 597.743-824q38.796 0 71.21 19.856 32.415 19.857 49.278 54.605l27.231 56.231q2.384 6.308.961 11.731T738.692-673q-6.307 3.154-12.164 1.42-5.857-1.734-8.913-8.189l-28.718-55.958q-13.683-25.838-38.049-41.056Q626.482-792 598.462-792q-42.693 0-72.577 29.885Q496-732.231 496-689.539v276h95.077v-71.615q0-25.846 17-42.846 17-17 41.846-16H712q6.5 1 11.25 5.345 4.75 4.346 4.75 10.77 0 6.424-4.75 11.654Q718.5-511 712-512h-65.077q-10 0-16.923 6.923-6.923 6.923-6.923 16.923v74.615H808q6.8 0 11.4 4.548 4.6 4.547 4.6 11.269t-4.6 11.453q-4.6 4.731-11.4 4.731H152q-6.8 0-11.4-4.548-4.6-4.547-4.6-11.269t4.6-11.453q4.6-4.731 11.4-4.731ZM263.846-184q-23.546 0-39.696-16.15T208-239.846v-141.692h32v141.692q0 10 6.923 16.923Q253.846-216 263.846-216h432.308q10 0 16.923-6.923Q720-229.846 720-239.846v-141.692h32V-238q0 22.833-15.049 38.417Q721.902-184 700.769-184H263.846Z"/></svg>