<svg xmlns="http://www.w3.org/2000/svg" height="20" viewBox="0 -960 960 960" width="20"><path d="M121-426h136v-55h-42q-24.65 0-41.325-17.289Q157-515.579 157-539.789 157-564 173.825-581T215-599h40q49.562-1 84.781 34.513Q375-528.975 375-478v52h45v-288q0-76 53.882-130T604.4-898q52.6 0 95.13 27.933Q742.061-842.133 767-796l12 24q11 22 4 45.5T753-692q-22 10-44.5 3.5T675-717l-14.718-26.727q-8.478-16.708-23.38-26.49Q622-780 604.155-780 577-780 557.5-760.75T538-714v288h46v-52q0-50.975 35.219-86.487Q654.438-600 704-599h40q24.35 1 41.175 18.088 16.825 17.087 16.825 41Q802-516 785.175-498T744-481h-42v55h137q24.3 0 41.65 17.289 17.35 17.29 17.35 41.5Q898-343 880.65-325.5T839-308H121q-24.3 0-41.65-17.289Q62-342.579 62-366.789 62-391 79.35-408.5T121-426Zm130 316q-48.262 0-82.631-34.369T134-227v-32h692v51q0 40.425-27.65 69.212Q770.7-110 731-110H251Z"/></svg>