<svg xmlns="http://www.w3.org/2000/svg" height="20" viewBox="0 -960 960 960" width="20"><path d="M480.211-70Q456-70 438.5-87.35T421-129v-120q0-24.3 17.289-41.65 17.29-17.35 41.5-17.35Q504-308 521.5-290.65T539-249v120q0 24.3-17.289 41.65Q504.421-70 480.211-70Zm337.485-126.696Q800-179 776.5-178.5 753-178 735-196l-86-86q-18-17-17.5-40.818Q632-346.636 650-365q18-18 42.167-17.5Q716.333-382 734-364l85 85q18 18 17.5 41t-18.804 41.304Zm-675 .392Q125-214 124.5-237.5 124-261 142-278.887L228-364q16.636-18 40.636-18 24 0 42.364 18 18 18 17.5 42.167Q328-297.667 310-280l-85 85q-18 18-41 17.5t-41.304-18.804ZM188-772v48h584v-48H188Zm124 166 19 48h298l18-48H312Zm18 166q-41.941 0-73.471-23.5Q225-487 216-526l-25-80h-3q-49.7 0-83.85-34.15Q70-674.3 70-724v-166h820v166q0 50-34.15 84T772-606h-3l-21 77q-10.265 39.904-42.633 64.452Q673-440 632-440H330ZM188-772v48-48Z"/></svg>