<svg xmlns="http://www.w3.org/2000/svg" height="24" viewBox="0 -960 960 960" width="24"><path d="M480-78.172q-22.087 0-37.544-15.457-15.457-15.456-15.457-37.543v-120q0-22.088 15.457-37.544 15.457-15.457 37.544-15.457 22.087 0 37.544 15.457 15.457 15.456 15.457 37.544v120q0 22.087-15.457 37.543Q502.087-78.172 480-78.172Zm338.525-132.784q-14.785 14.784-36.872 15.067-22.087.282-37.044-14.674l-86-85.565q-15.957-15.392-15.957-36.942 0-21.549 15.957-37.712 15.957-15.956 37.827-15.674 21.87.283 37.826 16.24l85 85q14.957 14.956 15.174 36.544.218 21.587-15.911 37.716Zm-677.394-.345q-14.785-14.784-15.067-36.871-.283-22.088 14.674-37.044l85.565-86q15.391-15.957 36.941-15.957 21.55 0 37.712 15.957 15.957 15.956 15.674 37.826-.282 21.87-16.239 37.827l-85 85q-14.957 14.956-36.544 15.174-21.587.217-37.716-15.912Zm43.042-564.526v40h591.654v-40H184.173Zm137.001 146.001 11.435 40h294.782l11.435-40H321.174Zm11.435 146.002q-36.74 0-65.088-22.001-28.349-22-37.479-57.174l-17.739-66.827h-28.13q-44.305 0-75.153-30.848-30.848-30.848-30.848-75.153v-146.001h803.656v146.001q0 44.305-30.848 75.153-30.848 30.848-75.153 30.848h-28.13l-20.913 69.131q-10.13 34.305-38.044 55.588-27.913 21.283-63.653 21.283H332.609ZM184.173-775.827v40-40Z"/></svg>