<svg xmlns="http://www.w3.org/2000/svg" height="20" viewBox="0 -960 960 960" width="20"><path d="M480.211-102.172q-20.298 0-34.755-14.306-14.457-14.307-14.457-34.694v-120q0-20.388 14.247-34.694 14.246-14.307 34.543-14.307 20.298 0 34.755 14.307 14.457 14.306 14.457 34.694v120q0 20.387-14.247 34.694-14.246 14.306-34.543 14.306Zm316.486-123.956q-14.957 14.956-34.544 15.239-19.587.282-34.544-14.674l-86-85.565q-14.957-14.392-14.457-34.044.5-19.653 15.457-34.61 14.957-14.956 34.993-14.674 20.037.283 34.66 15.24l85 85q14.957 14.956 14.674 34.044-.282 19.087-15.239 34.044Zm-632.394 1q-14.957-14.957-15.239-34.544-.283-19.588 14.674-34.431l85.565-85.113q14.028-14.957 33.862-14.957 19.834 0 34.791 14.957 14.957 14.956 14.674 34.993-.282 20.036-15.239 34.66l-85 85q-14.957 14.956-34.044 14.674-19.087-.283-34.044-15.239Zm149.871-388.698 19.435 48h292.782l18.435-48H314.174Zm18.435 146.002q-33.681 0-59.559-18.501-25.878-18.5-34.008-49.674l-26.739-77.827h-12.13q-41.005 0-69.503-28.498-28.498-28.498-28.498-69.503v-146.001h755.656v146.001q0 41.305-28.498 69.653-28.498 28.348-69.503 28.348h-12.13l-24.913 76.131q-9.396 31.209-35.676 50.54-26.281 19.331-59.021 19.331H332.609Z"/></svg>