<svg xmlns="http://www.w3.org/2000/svg" height="24" viewBox="0 -960 960 960" width="24"><path d="M702.308-122.308h35.384v-100h100v-35.384h-100v-100h-35.384v100h-100v35.384h100v100ZM720-60.001q-74.922 0-127.461-52.538Q540.001-165.078 540.001-240t52.538-127.461Q645.078-419.999 720-419.999t127.461 52.538Q899.999-314.922 899.999-240t-52.538 127.461Q794.922-60.001 720-60.001Zm-347.691-630v-59.998h447.69v59.998h-447.69Zm-165.77 516.538q-27.447 0-46.992-19.545-19.546-19.545-19.546-46.992 0-27.447 19.546-46.992 19.545-19.545 46.992-19.545 27.447 0 46.992 19.545 19.545 19.545 19.545 46.992 0 27.447-19.545 46.992-19.545 19.545-46.992 19.545Zm0-240q-27.447 0-46.992-19.545-19.546-19.545-19.546-46.992 0-27.447 19.546-46.992 19.545-19.545 46.992-19.545 27.447 0 46.992 19.545 19.545 19.545 19.545 46.992 0 27.447-19.545 46.992-19.545 19.545-46.992 19.545Zm0-240q-27.447 0-46.992-19.545-19.546-19.545-19.546-46.992 0-27.447 19.546-46.992 19.545-19.545 46.992-19.545 27.447 0 46.992 19.545 19.545 19.545 19.545 46.992 0 27.447-19.545 46.992-19.545 19.545-46.992 19.545Zm165.77 443.462v-59.998h79.538Q449.616-255 449.616-240q0 15 2.231 29.999h-79.538Zm0-240v-59.998H720q-47.384 0-89.306 15.922-41.923 15.923-75.307 44.076H372.309Z"/></svg>