<svg xmlns="http://www.w3.org/2000/svg" height="20" viewBox="0 -960 960 960" width="20"><path d="M673.308-170.308h43.384v-72h72v-43.384h-72v-72h-43.384v72h-72v43.384h72v72Zm21.466 78.306q-71.696 0-121.735-50.264-50.038-50.264-50.038-121.96t50.265-121.735q50.264-50.038 121.96-50.038t121.735 50.265q50.038 50.264 50.038 121.96t-50.265 121.735q-50.264 50.037-121.96 50.037ZM372.309-658v-51.998h423.69v51.998h-423.69ZM222.327-217.463q-24.235 0-41.28-17.257-17.046-17.258-17.046-41.492 0-24.235 17.258-41.28t41.492-17.045q24.235 0 41.28 17.257 17.045 17.258 17.045 41.492 0 24.235-17.257 41.28-17.258 17.045-41.492 17.045Zm0-204q-24.235 0-41.28-17.257-17.046-17.258-17.046-41.492 0-24.235 17.258-41.28t41.492-17.045q24.235 0 41.28 17.257 17.045 17.258 17.045 41.492 0 24.235-17.257 41.28-17.258 17.045-41.492 17.045Zm0-204q-24.235 0-41.28-17.257-17.046-17.258-17.046-41.492 0-24.235 17.258-41.28t41.492-17.045q24.235 0 41.28 17.257 17.045 17.258 17.045 41.492 0 24.235-17.257 41.28-17.258 17.045-41.492 17.045Zm149.982 375.462v-51.998h71.538Q441.616-289 440.616-276q-1 13 .231 25.999h-68.538Zm0-204v-51.998H616q-23.384 11-44.306 23.422-20.923 12.423-39.307 28.576H372.309Z"/></svg>