<svg xmlns="http://www.w3.org/2000/svg" height="20" viewBox="0 -960 960 960" width="20"><path d="M655.738-172.522h64.958v-72h72v-64.957h-72v-72h-64.958v72h-72v64.957h72v72Zm32.253 87.521q-79.774 0-135.774-56.226t-56-136q0-79.774 56.226-135.774t136-56q79.774 0 135.774 56.226 56 56.227 56 136 0 79.774-56.226 135.774t-136 56ZM363.957-634.999v-98.002h471.261v98.002H363.957ZM207.739-192.13q-34.74 0-59.131-24.739-24.392-24.739-24.392-59.478 0-34.74 24.739-59.132 24.739-24.391 59.479-24.391 34.74 0 59.131 24.739 24.392 24.739 24.392 59.478 0 34.74-24.739 59.132-24.739 24.391-59.479 24.391Zm0-204q-34.74 0-59.131-24.739-24.392-24.739-24.392-59.478 0-34.74 24.739-59.132 24.739-24.391 59.479-24.391 34.74 0 59.131 24.739 24.392 24.739 24.392 59.478 0 34.74-24.739 59.132-24.739 24.391-59.479 24.391Zm0-204q-34.74 0-59.131-24.739-24.392-24.739-24.392-59.478 0-34.74 24.739-59.132 24.739-24.391 59.479-24.391 34.74 0 59.131 24.739 24.392 24.739 24.392 59.478 0 34.74-24.739 59.132-24.739 24.391-59.479 24.391Zm156.218 373.131v-98.002h64.26q-4.13 24.783-3.435 49.566.696 24.783 6.653 48.436h-67.478Zm0-204v-98.002h245.26q-42.044 11-77.544 36.349-35.501 25.348-58.501 61.653H363.957Z"/></svg>