<svg xmlns="http://www.w3.org/2000/svg" height="24" viewBox="0 -960 960 960" width="24"><path d="M706-126h28v-100h100v-28H734v-100h-28v100H606v28h100v100Zm14 34q-62 0-105-43t-43-105q0-62 43-105t105-43q62 0 105 43t43 105q0 62-43 105T720-92ZM392-706v-28h396v28H392ZM217-195q-18.562 0-31.781-13.219Q172-221.438 172-240q0-18.562 13.219-31.781Q198.438-285 217-285q18.562 0 31.781 13.219Q262-258.562 262-240q0 18.562-13.219 31.781Q235.562-195 217-195Zm0-240q-18.562 0-31.781-13.219Q172-461.438 172-480q0-18.562 13.219-31.781Q198.438-525 217-525q18.562 0 31.781 13.219Q262-498.562 262-480q0 18.562-13.219 31.781Q235.562-435 217-435Zm0-240q-18.562 0-31.781-13.219Q172-701.438 172-720q0-18.562 13.219-31.781Q198.438-765 217-765q18.562 0 31.781 13.219Q262-738.562 262-720q0 18.562-13.219 31.781Q235.562-675 217-675Zm175 449v-28h74q-1 7-1 14t1 14h-74Zm0-240v-28h328q-32 0-61 7t-55 21H392Z"/></svg>