<svg xmlns="http://www.w3.org/2000/svg" height="20" viewBox="0 -960 960 960" width="20"><path d="M386.283-74Q377-74 369.5-81.35 362-88.7 362-98v-428q0-9.3 7.338-16.65 7.339-7.35 16.622-7.35h187.757q9.283 0 16.783 7.35Q598-535.3 598-526v428q0 9.3-7.338 16.65Q583.323-74 574.04-74H386.283Zm93.604-332Q490-406 498-413.887q8-7.888 8-18Q506-442 498.113-450q-7.888-8-18-8Q470-458 462-450.113q-8 7.888-8 18Q454-422 461.887-414q7.888 8 18 8Zm-1.904-340Q444-746 412.5-736q-31.5 10-58.577 27.692Q350-705 346-704t-9-4q-4-4-2.5-8.5t5.5-7.5q30-22 65.394-32 35.394-10 72.606-10 37.561 0 73.28 11.5Q587-743 618-721q3 3 4.5 7.5T620-705q-5 5-10 3.5t-8-4.5q-28-19-59.017-29.5-31.017-10.5-65-10.5ZM478-914q-67.112 0-130.135 22.006Q284.843-869.987 233-827q-3 4-7.5 3.5T217-828q-4-4-1-8l6-8q55.409-45 120.704-67.5Q408-934 478.5-934q69.5 0 136 23.752Q681-886.495 735-841q3.143 4.022 5.571 8.511Q743-828 739-824q-4 5-8.5 3.5T722-826q-51-43-114.5-65.5T478-914Z"/></svg>