<svg xmlns="http://www.w3.org/2000/svg" height="24" viewBox="0 -960 960 960" width="24"><path d="M460-189.231q-36.154 0-63.077-23.077-26.923-23.077-33.846-56.923h41.538q6.154 17.769 21.116 28.885 14.961 11.115 34.269 11.115 24.692 0 42.346-17.654Q520-264.538 520-289.231q0-24.692-17.654-42.346-17.654-17.654-42.346-17.654H100v-40h360q41.539 0 70.769 29.231Q560-330.769 560-289.231q0 41.539-29.231 70.77-29.23 29.23-70.769 29.23ZM100-570.769v-40h520q33.692 0 56.846-23.154Q700-657.077 700-690.769q0-33.693-23.154-56.846-23.154-23.154-56.846-23.154-29.077 0-49.923 17t-27 43h-41.539q6.923-43.616 40.116-71.808 33.192-28.192 78.346-28.192 50.539 0 85.269 34.73Q740-741.308 740-690.769q0 50.538-34.731 85.269-34.73 34.731-85.269 34.731H100Zm660 309.231v-41.539q26-6.154 43-27T820-380q0-33.692-23.154-56.846Q773.692-460 740-460H100v-40h640q50.539 0 85.269 34.731Q860-430.539 860-380q0 45.154-28.192 78.346-28.193 33.193-71.808 40.116Z"/></svg>