<svg xmlns="http://www.w3.org/2000/svg" height="20" viewBox="0 -960 960 960" width="20"><path d="M450.5-120.086q-53.826 0-91.457-37.631-37.63-37.63-37.63-91.696h83q0 20 13.322 33.163 13.321 13.163 32.765 13.163 19.443 0 32.765-13.441t13.322-32.885q0-19.443-13.322-32.765T450.5-295.5H92.413v-83H450.5q53.826 0 91.457 37.511 37.63 37.511 37.63 91.576 0 54.066-37.63 91.696-37.631 37.631-91.457 37.631ZM92.413-557.5v-83H630.5q24.043 0 41.065-17.022t17.022-41.065q0-24.044-17.022-41.185-17.022-17.141-41.065-17.141-24.044 0-41.065 17.141-17.022 17.141-17.022 41.185h-83q0-60.022 41.489-100.674 41.489-40.653 99.598-40.653t99.598 40.653q41.489 40.652 41.489 100.674 0 60.022-41.489 100.554Q688.609-557.5 630.5-557.5H92.413ZM726.5-227.087v-83q24.043 0 41.065-17.141 17.022-17.142 17.022-41.185 0-24.043-17.022-41.065T726.447-426.5H92.413v-83H726.5q58.109 0 99.598 40.772 41.489 40.771 41.489 100.315 0 60.022-41.489 100.674-41.489 40.652-99.598 40.652Z"/></svg>