<svg xmlns="http://www.w3.org/2000/svg" height="24" viewBox="0 -960 960 960" width="24"><path d="M321.696-168.911v80H180.782v-133.871q-18-21.802-29-48.51-11-26.707-11-56.838v-374.697L24.174-820l62.652-62.652 803.87 803.87-62.652 62.652-170.957-170.957h125.305v98.176H638.304v-80H321.696Zm5.087-106.002h242.478L376.044-468.13H246.783v113.217q0 33 23.5 56.5t56.5 23.5Zm484.827-8.261-98.393-98.393v-86.563h-86.563l-80-80h166.563v-120H426.654l-80-80H706q-15-17-64.5-28.5T482-788.13q-57.999 0-96.564 4.304-38.565 4.305-64 11.044l-83.61-84.175q41.261-18.305 101.196-27.739 59.935-9.435 140.978-9.435 182.33 0 260.774 41.444 78.444 41.444 78.444 137.774v386.783q0 11.655-2.075 22.894-2.075 11.239-5.533 22.062Zm-468.219-28.347q25 0 42.5-17.5t17.5-42.5q0-25-17.5-42.5t-42.5-17.5q-25 0-42.5 17.5t-17.5 42.5q0 25 17.5 42.5t42.5 17.5ZM246.783-548.13h49.261l-49.261-48.696v48.696Zm99.871-200H706 346.654Zm29.39 280Zm250.61 0Z"/></svg>