<svg xmlns="http://www.w3.org/2000/svg" height="20" viewBox="0 -960 960 960" width="20"><path d="M337.696-184.911v72H220.782v-120.871q-23-18.802-35.5-49.01-12.5-30.207-12.5-65.338v-333.697L87.174-768l56.652-56.652 689.87 689.87-56.652 56.652-153.957-153.957h113.305v119.176H622.304v-72H337.696Zm5.087-98.002h229.478L387.044-468.13H270.783v113.217q0 30 21 51t51 21Zm436.827-19.261-90.393-90.393v-75.563h-75.563l-72-72h147.563v-120H421.654l-72-72H692q-12-26-65-37t-147-11q-52.999 0-90.564 3.804-37.565 3.805-69 15.544l-75.61-75.175q40.261-22.305 95.696-32.239 55.435-9.935 139.478-9.935 174.33 0 240.774 39.444 66.444 39.444 66.444 123.774v366.783q0 8.655-1.575 18.394-1.575 9.739-6.033 27.562Zm-416.219-25.347q20 0 34-14t14-34q0-20-14-34t-34-14q-20 0-34 14t-14 34q0 20 14 34t34 14ZM270.783-540.13h44.261l-44.261-43.696v43.696Zm78.871-192H692 349.654Zm37.39 264Zm340.61 0Z"/></svg>