<svg xmlns="http://www.w3.org/2000/svg" height="24" viewBox="0 -960 960 960" width="24"><path d="M828.044-16.13 657.087-187.087h125.305v98.176H638.304v-80H321.696v80H180.782v-133.871q-18-21.802-29-48.51-11-26.707-11-56.838v-374.697L24.174-820l62.652-62.652 803.87 803.87-62.652 62.652ZM811.61-283.174 546.654-548.13h166.563v-120H426.654L237.826-856.957q41.261-18.305 101.196-27.739 59.935-9.435 140.978-9.435 182.33 0 260.774 41.444 78.444 41.444 78.444 137.774v386.783q0 11.655-2.075 22.894-2.075 11.239-5.533 22.062Zm-468.219-28.347q25 0 42.5-17.5t17.5-42.5q0-25-17.5-42.5t-42.5-17.5q-25 0-42.5 17.5t-17.5 42.5q0 25 17.5 42.5t42.5 17.5ZM246.783-548.13h49.261l-49.261-48.696v48.696Z"/></svg>