<svg xmlns="http://www.w3.org/2000/svg" height="24" viewBox="0 -960 960 960" width="24"><path d="M440-720q-67.615 0-120.423 39.5-52.808 39.5-70.962 101.654-2.923 7.307-9.884 11.731-6.962 4.423-14.5 2.961-8.308-2.231-12.808-8.961-4.5-6.731-1.808-14.577 20.846-75.539 85.539-123.924Q359.846-760 440-760q82.077 0 129.731 38.269 47.654 38.269 70.269 71.884V-740q0-8.539 5.731-14.269Q651.462-760 660-760q8.539 0 14.269 5.731Q680-748.539 680-740v147.692q0 13.923-9.192 23.116Q661.616-560 647.693-560H500q-8.538 0-14.269-5.731T480-580q0-8.539 5.731-14.269Q491.462-600 500-600h121.538q-19.769-42.923-64.884-81.462Q511.538-720 440-720Zm0 440q-59 0-113.962-29.038-54.961-29.039-86.038-81.115V-300q0 8.539-5.731 14.269Q228.538-280 220-280q-8.539 0-14.269-5.731Q200-291.461 200-300v-147.692q0-13.923 9.192-23.116Q218.384-480 232.307-480H380q8.538 0 14.269 5.731T400-460q0 8.539-5.731 14.269Q388.538-440 380-440H258.462q22.077 52.154 71.038 86.077Q378.462-320 440-320q66.615 0 118.808-38.769 52.192-38.769 71.346-99.692 3.154-8.308 10.115-13.962 6.962-5.654 15.5-3.423 8.539 2.461 12.693 9.538t1.461 15.385q-6.23 25.385-18.038 45.192-11.808 19.808-29.423 41.423l175.692 175.693q5.615 5.615 6 13.769.385 8.154-6 14.538-6.385 6.385-14.154 6.385t-14.154-6.385L594.154-336q-33.692 28.539-72.346 42.269Q483.154-280 440-280Z"/></svg>