<svg xmlns="http://www.w3.org/2000/svg" height="20" viewBox="0 -960 960 960" width="20"><path d="M710-230.252h-98q-4.25 0-7.125-2.909T602-240.269q0-4.199 2.875-7.004 2.875-2.805 7.125-2.805h98v-97.688q0-4.184 2.825-7.209 2.824-3.025 7-3.025 4.175 0 7.049 2.875 2.874 2.875 2.874 7.125v98h98.168q4.286 0 7.185 2.885t2.899 7.15q0 4.265-2.899 7.115-2.899 2.85-7.185 2.85h-98.168v98q0 4.25-2.909 7.125T719.965-122q-4.265 0-7.115-2.899-2.85-2.899-2.85-7.185v-98.168ZM248-244q-22 1-37-14.5T196-296v-368q0-22.7 15-37.35Q226-716 248-716h88v-96q0-5.1 3.43-8.55 3.43-3.45 8.5-3.45t8.57 3.45q3.5 3.45 3.5 8.55v96h148v-98q0-4.25 2.825-7.125 2.824-2.875 7-2.875 4.175 0 7.175 2.875t3 7.125v98h88q22 0 37.5 14.5T668-664v196l-10 6-10 6v-40H216v200q0 12 10 22t22 10h249l-4.5 9q-2.5 5-6.5 11H248Zm-32-272h432v-148q0-12-10-22t-22-10H248q-12 0-22 10t-10 22v148Zm0 0v-180 180Z"/></svg>