<svg xmlns="http://www.w3.org/2000/svg" height="20" viewBox="0 -960 960 960" width="20"><path d="M661-155.252h-49q-24.3 0-41.65-17.374Q553-190 553-214.234q0-24.234 17.35-41.539T612-273.078h49v-48.688Q661-346 678.289-363.5q17.29-17.5 41.5-17.5 24.211 0 41.585 17.35 17.374 17.35 17.374 41.65v49h49.168q24.336 0 41.71 17.35Q887-238.3 887-214q0 24.3-17.374 41.65Q852.252-155 827.916-155h-49.168v49q0 24.3-17.374 41.65Q744-47 720-47q-24.3 0-41.65-17.374Q661-81.748 661-106.084v-49.168ZM228-158q-49 1-83.5-34T110-276v-408q0-49.7 34.5-83.85Q179-802 228-802h36v-49q0-19.3 14.289-33.15 14.29-13.85 33.5-13.85Q331-898 345-884.15T359-851v49h146v-49q0-19.3 14.289-33.15 14.29-13.85 33.5-13.85Q572-898 586-884.15T600-851v49h36q49 0 84 34t34 84v213q-30-6-59-3.5T636-464v-64H228v252h233q-6 29-5.5 58t7.5 60H228Z"/></svg>