<svg xmlns="http://www.w3.org/2000/svg" height="24" viewBox="0 -960 960 960" width="24"><path d="m413.001-599.393 31.52-15.26q17.122-8.261 35.562-8.261 18.439 0 35.396 8.261l31.52 15.26v-153.824H413.001v153.824Zm-98.653 335.22q-20.957 0-35.566-14.609-14.609-14.609-14.609-35.566 0-20.956 14.609-35.565 14.609-14.609 35.566-14.609h115.478q20.956 0 35.565 14.609Q480-335.304 480-314.348q0 20.957-14.609 35.566-14.609 14.609-35.565 14.609H314.348ZM206.783-100.782q-44.305 0-75.153-30.848-30.848-30.848-30.848-75.153v-546.434q0-44.305 30.848-75.153 30.848-30.848 75.153-30.848h546.434q44.305 0 75.153 30.848 30.848 30.848 30.848 75.153v546.434q0 44.305-30.848 75.153-30.848 30.848-75.153 30.848H206.783Zm0-652.435v546.434-546.434Zm0 546.434h546.434v-546.434H647.348v230.694q0 29.783-24.935 45.24t-51.718 2.065L480-520l-90.695 44.782q-26.783 13.392-51.718-2.065-24.935-15.457-24.935-45.24v-230.694H206.783v546.434Z"/></svg>