<svg xmlns="http://www.w3.org/2000/svg" height="20" viewBox="0 -960 960 960" width="20"><path d="M216-144q-29.7 0-50.85-21.15Q144-186.3 144-216v-528q0-29.7 21.15-50.85Q186.3-816 216-816h528q29.7 0 50.85 21.15Q816-773.7 816-744v528q0 29.7-21.15 50.85Q773.7-144 744-144H216Zm172.033-314.016L480-504l91.967 45.984Q590-449 607-459.25T624-490v-254H336v254q0 20.5 17 30.75t35.033 1.234ZM324-288h120q15.3 0 25.65-10.289 10.35-10.29 10.35-25.5Q480-339 469.65-349.5 459.3-360 444-360H324q-15.3 0-25.65 10.289-10.35 10.29-10.35 25.5Q288-309 298.35-298.5 308.7-288 324-288Z"/></svg>