<svg xmlns="http://www.w3.org/2000/svg" height="20" viewBox="0 -960 960 960" width="20"><path d="M240.615-184q-24.315 0-40.465-16.15Q184-216.3 184-240.615v-478.77q0-24.315 16.15-40.465Q216.3-776 240.615-776h478.77q24.315 0 40.465 16.15Q776-743.7 776-719.385v478.77q0 24.315-16.15 40.465Q743.7-184 719.385-184h-478.77ZM400.34-485.709 480-525.538l79.66 39.829q8.802 4.402 16.571-.464Q584-491.038 584-500v-244H376v244q0 8.962 7.769 13.827 7.769 4.866 16.571.464ZM304-308h160q6.838 0 11.419-4.52T480-323.789q0-6.75-4.581-11.48Q470.838-340 464-340H304q-6.838 0-11.419 4.52T288-324.211q0 6.75 4.581 11.48Q297.162-308 304-308Z"/></svg>