<svg xmlns="http://www.w3.org/2000/svg" height="20" viewBox="0 -960 960 960" width="20"><path d="M480-240.309q22.307 0 38.269-15.576 15.961-15.577 17.115-38.269H424.616q1.154 22.692 17.115 38.269 15.962 15.576 38.269 15.576ZM303.386-352.924h353.228v-56.615h-48v-122.307q0-45-27.692-79.577-27.692-34.576-71.076-44.038v-53.769h-59.692v53.769q-43.384 9.462-71.076 43.654-27.692 34.192-27.692 79.191v123.077h-48v56.615ZM480-409.539Zm.343 293.538q-75.112 0-141.48-28.42-66.369-28.42-116.182-78.21-49.814-49.791-78.247-116.087t-28.433-141.673q0-75.378 28.42-141.246 28.42-65.869 78.21-115.682 49.791-49.814 116.087-78.247t141.673-28.433q75.378 0 141.246 28.42 65.869 28.42 115.682 78.21 49.814 49.791 78.247 115.853t28.433 141.173q0 75.112-28.42 141.48-28.42 66.369-78.21 116.182-49.791 49.814-115.853 78.247t-141.173 28.433Z"/></svg>