<svg xmlns="http://www.w3.org/2000/svg" height="24" viewBox="0 -960 960 960" width="24"><path d="M473.846-270v25.385q0 5.846 4.385 10.231 4.384 4.384 10.23 4.384h9.231q6.462 0 11.308-4.846t4.846-11.308V-270h60q8.5 0 14.25-5.75t5.75-14.25v-120q0-8.5-5.75-14.25t-14.25-5.75h-140v-80h140q8.5 0 14.25-5.758 5.75-5.757 5.75-14.269 0-8.511-5.75-14.242-5.75-5.731-14.25-5.731h-60v-25.385q0-5.846-4.384-10.23Q505.077-590 499.231-590H490q-6.462 0-11.308 4.846t-4.846 11.308V-550h-60q-8.5 0-14.25 5.75t-5.75 14.25v120q0 8.5 5.75 14.25t14.25 5.75h140v80h-140q-8.5 0-14.25 5.758t-5.75 14.269q0 8.512 5.75 14.242 5.75 5.731 14.25 5.731h60ZM264.615-120Q237-120 218.5-138.5 200-157 200-184.615v-590.77Q200-803 218.5-821.5 237-840 264.615-840h324.616L760-669.231v484.616Q760-157 741.5-138.5 723-120 695.385-120h-430.77Zm304.616-680v118.462q0 13.73 9.288 23.019 9.289 9.288 23.019 9.288H720L569.231-800Z"/></svg>