<svg xmlns="http://www.w3.org/2000/svg" height="20" viewBox="0 -960 960 960" width="20"><path d="M275.843-329.846q11.311 0 19.119-7.651 7.807-7.652 7.807-18.962 0-11.31-7.651-19.118-7.651-7.808-18.961-7.808-11.311 0-19.119 7.651-7.807 7.652-7.807 18.962 0 11.31 7.651 19.118 7.651 7.808 18.961 7.808Zm-.027-116.923q6.723 0 11.453-4.6 4.731-4.6 4.731-11.4v-151.385q0-6.8-4.547-11.4-4.547-4.6-11.269-4.6-6.723 0-11.453 4.6-4.731 4.6-4.731 11.4v151.385q0 6.8 4.547 11.4 4.547 4.6 11.269 4.6ZM467.96-380h215.757q6.783 0 11.533-4.547 4.75-4.547 4.75-11.269 0-6.723-4.588-11.453Q690.823-412 684.04-412H468.283q-6.783 0-11.533 4.547-4.75 4.547-4.75 11.269 0 6.723 4.588 11.453Q461.177-380 467.96-380Zm0-168h215.757q6.783 0 11.533-4.547 4.75-4.547 4.75-11.269 0-6.723-4.588-11.453Q690.823-580 684.04-580H468.283q-6.783 0-11.533 4.547-4.75 4.547-4.75 11.269 0 6.723 4.588 11.453Q461.177-548 467.96-548ZM192.615-232q-24.315 0-40.465-16.162Q136-264.324 136-288.656v-383.012Q136-696 152.15-712t40.465-16h574.77q24.315 0 40.465 16.162Q824-695.676 824-671.344v383.012Q824-264 807.85-248t-40.465 16h-574.77Zm0-32h574.77q9.23 0 16.923-7.692Q792-279.385 792-288.615v-382.77q0-9.23-7.692-16.923Q776.615-696 767.385-696h-574.77q-9.23 0-16.923 7.692Q168-680.615 168-671.385v382.77q0 9.23 7.692 16.923Q183.385-264 192.615-264ZM168-264v-432 432Z"/></svg>