<svg xmlns="http://www.w3.org/2000/svg" height="20" viewBox="0 -960 960 960" width="20"><path d="M275.86-328q10.14 0 17.14-6.86 7-6.859 7-17 0-10.14-6.86-17.14-6.859-7-17-7-10.14 0-17.14 6.86-7 6.859-7 17 0 10.14 6.86 17.14 6.859 7 17 7Zm-.035-116q4.175 0 7.175-2.875t3-7.125v-168q0-4.25-2.825-7.125-2.824-2.875-7-2.875-4.175 0-7.175 2.875T266-622v168q0 4.25 2.825 7.125 2.824 2.875 7 2.875Zm192.135 58h215.757q4.233 0 7.258-2.825 3.025-2.824 3.025-7 0-4.175-2.863-7.175-2.864-3-7.097-3H468.283q-4.233 0-7.258 2.825-3.025 2.824-3.025 7 0 4.175 2.863 7.175 2.864 3 7.097 3Zm0-168h215.757q4.233 0 7.258-2.825 3.025-2.824 3.025-7 0-4.175-2.863-7.175-2.864-3-7.097-3H468.283q-4.233 0-7.258 2.825-3.025 2.824-3.025 7 0 4.175 2.863 7.175 2.864 3 7.097 3ZM200-244q-22.7 0-37.35-14.662Q148-273.324 148-296.04v-368.243Q148-687 162.65-701.5T200-716h560q22.7 0 37.35 14.662Q812-686.676 812-663.96v368.243Q812-273 797.35-258.5T760-244H200Zm0-20h560q12 0 22-10t10-22v-368q0-12-10-22t-22-10H200q-12 0-22 10t-10 22v368q0 12 10 22t22 10Zm-32 0v-432 432Z"/></svg>