<svg xmlns="http://www.w3.org/2000/svg" height="20" viewBox="0 -960 960 960" width="20"><path d="M157.304-66.607q-20.387 0-34.694-14.246-14.306-14.247-14.306-34.544 0-20.298 14.306-34.755 14.307-14.457 34.694-14.457h235q20.387 0 34.694 14.247 14.307 14.246 14.307 34.544 0 20.297-14.307 34.754-14.307 14.457-34.694 14.457h-235Zm525.568-38.697q-38.176 0-65.177-27.5-27-27.5-29-67.109H483.001q-20.088 0-35.044-15.24Q433-230.392 433-250.479q2.13-97.566 57-166.913 54.87-69.348 144.304-86.824v-340.741q0-20.388 14.246-34.694 14.247-14.307 34.544-14.307 20.298 0 34.755 14.307 14.457 14.306 14.457 34.694v340.741q88.869 17.476 144.804 86.824 55.935 69.347 56.5 166.913 0 20.087-14.957 35.326-14.957 15.24-35.044 15.24H777.915q-1 39.609-28.501 67.109-27.5 27.5-66.542 27.5Zm-397.357-94.609q-20.298 0-34.755-14.307-14.456-14.307-14.456-34.694v-286.434H88.565q-24.166 0-39.148-19.347-14.983-19.348-8.287-43.045l74.435-260.609q3.565-16.522 16.256-26.065 12.692-9.544 29.614-9.544h250.304q16.922 0 29.613 9.544 12.692 9.543 16.257 26.065l74.435 260.609q6.696 23.697-8.287 43.045-14.982 19.347-39.148 19.347H334.305v286.434q0 20.387-14.246 34.694-14.246 14.307-34.544 14.307Zm253.269-98.002h289.607q-17.392-54.564-57.053-84.586-39.662-30.021-88.033-30.021-46.26 0-86.977 30.021-40.717 30.022-57.544 84.586ZM154.218-633.35h268.129l-47.623-162.607H201.305L154.218-633.35Zm126.347-77.303ZM683.87-353.218Z"/></svg>