<svg xmlns="http://www.w3.org/2000/svg" height="24" viewBox="0 -960 960 960" width="24"><path d="M528-318 379-97H180v-485l-64-155H21v-126h179l68 163h669L790-413q54 13 88.5 56T913-257q0 66.286-46.327 113.143Q820.345-97 754-97q-67.429 0-113.714-46.857Q594-190.714 594-257q0-14 2.632-27.6 2.631-13.6 7.368-26.4l-76-7Zm131-115 72-141-412 1 48 113 292 27ZM296-199h9l91-131-100-9v140Zm456.953-13Q772-212 784.5-224.82t12.5-31.133Q797-275 784.6-287.5T753.235-300Q735-300 722-287.6t-13 31.365Q709-238 721.82-225t31.133 13ZM659-433l-292-27 292 27Z"/></svg>