<svg xmlns="http://www.w3.org/2000/svg" height="20" viewBox="0 -960 960 960" width="20"><path d="m429.231-407.846-119.846 180H232v-401l-42.846-98.231h-82.693v-32h104.77L265.615-632h546.001L711.462-410.615q35.692 1.384 58.731 28.079 23.038 26.695 23.038 62.69 0 38.429-26.856 65.215-26.857 26.785-65.183 26.785-38.038 0-65-26.785-26.961-26.786-26.961-65.215 0-18.43 6.538-35.946 6.539-17.515 20.616-30.439l-207.154-21.615ZM264-259.846h27.154L394.615-412l-74.384-8.923L264-554.076v294.23Zm437.231.769q25 0 42.5-17.5t17.5-42.5q0-25-17.5-42.5t-42.5-17.5q-25 0-42.5 17.5t-17.5 42.5q0 25 17.5 42.5t42.5 17.5Z"/></svg>