<svg xmlns="http://www.w3.org/2000/svg" height="20" viewBox="0 -960 960 960" width="20"><path d="M509-340 362-121H172v-502l-40-98H29v-118h182l61 147h638L783-420q51 11 82.5 52t31.5 95q0 63.286-44.327 107.643Q808.345-121 745-121q-63.429 0-107.714-44.357Q593-209.714 593-273q0-13 2.632-27.6 2.631-14.6 9.368-27.4l-96-12Zm153-101 61-133H319l40 98 303 35ZM280-214h11l96-138-93-11-14-36v185Zm464.953-14Q763-228 776-240.82t13-31.133Q789-290 776.1-303t-30.865-13Q727-316 714-303.1t-13 30.865Q701-254 713.82-241t31.133 13ZM662-441l-303-35 303 35Z"/></svg>