<svg xmlns="http://www.w3.org/2000/svg" height="24" viewBox="0 -960 960 960" width="24"><path d="M790.326-53.609 642.783-201.152 602.87-65.412H357.13l-56.63-189.61q-48-38-78.315-96.315Q191.869-409.652 191.869-480q0-36 9.12-70.576 9.12-34.576 26.598-66.011L54.326-789.609l59.631-59.63 736 736-59.631 59.63ZM480-282.87q18.565 0 35.489-3.141 16.924-3.141 32.489-9.185L295.435-547.739q-6.044 15.565-9.305 32.369-3.26 16.805-3.26 35.37 0 81.804 57.663 139.467Q398.196-282.87 480-282.87Zm253.218-60.108-68.131-68.131q6.522-16.282 9.283-32.826 2.76-16.543 2.76-36.065 0-81.804-57.663-139.467Q561.804-677.13 480-677.13q-19.283 0-36.304 2.88-17.022 2.88-32.587 9.163l-94.37-94.37 40.391-135.13h245.74l56.63 189.609q50.631 40.63 79.631 99.304t29 125.674q0 37.674-8.718 72.109-8.717 34.435-26.195 64.913ZM422.63-152.587h114.74l15.76-49.326q-14.521 4.761-34.945 6.902-20.424 2.142-38.185 2.142-17.761 0-38.185-2.142-20.424-2.141-34.945-6.902l15.76 49.326Zm-15.76-605.5q14.521-4.761 35.326-7.402Q463-768.131 480-768.131q17.761 0 38.185 2.642 20.424 2.641 34.945 7.402l-15.76-49.326H422.63l-15.76 49.326Zm15.76 605.5h-15.76 146.26-130.5Zm-15.76-654.826h146.26-146.26Z"/></svg>