<svg xmlns="http://www.w3.org/2000/svg" height="24" viewBox="0 -960 960 960" width="24"><path d="M480-112q-25 0-42.5-17.5T420-172h120q0 25-17.5 42.5T480-112ZM212-212v-28h60v-328q0-77 49.5-135T446-774v-54h68v54q17 3 32 8t29 13l-21 21q-17-8-35.5-12t-38.5-4q-75 0-127.5 52.5T300-568v328h360v-161l28-28v189h60v28H212Zm88-28v-328q0-75 52.5-127.5T480-748q20 0 38.5 4t35.5 12L392-572v220h219l49-49v161H300Zm192-212v-78l231-230 77 78-230 230h-78Zm268-230-37-38 37 38ZM520-480h38l144-144-19-19-18-20-145 145v38Zm163-163-18-20 37 39-19-19Z"/></svg>