<svg xmlns="http://www.w3.org/2000/svg" height="20" viewBox="0 -960 960 960" width="20"><path d="M481-51q-34.95 0-59.475-24.231Q397-99.463 397-134h167q0 35-24.231 59Q515.537-51 481-51ZM158-182v-118h36v-206q0-100 59-178.5t156-97.833V-898h142v116q8 2 15 4l14 4-101 101q-1-1-3-1h-2q-68 2-115 50.412Q312-575.175 312-506v206h336v-75l118-118v193h36v118H158Zm154-118v-206q0-69.175 47-117.588Q406-672 474-674h2q2 0 3 1l-77 76v243h225l21-21v75H312Zm162-126v-141l264-263 140 141-263 263H474Zm308-263-45-45 45 45ZM542-494h45l111-111-22-23-22-22-112 111v45Zm134-134-22-22 44 45-22-23Z"/></svg>