<svg xmlns="http://www.w3.org/2000/svg" height="24" viewBox="0 -960 960 960" width="24"><path d="M480.239-69.239q-34.196 0-58.533-24.217-24.336-24.218-24.336-58.413h165.5q0 34.195-24.218 58.413-24.217 24.217-58.413 24.217Zm-328.37-122.63v-91.001H229v-271.869q0-86.109 51.315-153.598 51.315-67.489 134.185-88.207v-91.587h131v91.587q9.565 2.761 18.63 5.663 9.066 2.903 17.87 7.185L398.565-601.261v242.696h238.392L731-452.609v169.739h77.131v91.001H151.869Zm326.696-246.696v-129.696l267.783-266.783 129.696 128.696-267.783 267.783H478.565Zm270.174-231.174 34.609-36.609-37-37-35.609 35.609 38 38Z"/></svg>