<svg xmlns="http://www.w3.org/2000/svg" height="24" viewBox="0 -960 960 960" width="24"><path d="M480.565-54.564q-35.798 0-61.29-25.326-25.493-25.327-25.493-60.892h173.001q0 35.827-25.326 61.022-25.327 25.196-60.892 25.196ZM140.782-180.782v-106.001h73.217v-260.782q0-90.348 53.109-161.913 53.108-71.566 139.891-93.45v-96.29h146.002v96.478q7.608 2.435 14.717 4.522 7.108 2.087 14.282 5.391l-88.436 87.436q-4.348-.869-8.26-1.521-3.913-.653-8.695-.653-64.87 1.131-110.739 47.799Q320-613.098 320-547.565v260.782h320v-71.565l106.001-106.001v177.566h73.217v106.001H140.782ZM320-286.783v-260.782q0-65.533 45.87-112.201 45.869-46.668 110.739-47.799 4.782 0 8.695.653 3.912.652 8.26 1.521l-96.955 96.956v251.826h241.652l1.739-1.739v71.565H320Zm156.609-149.826v-138.826L750.913-848.74 889.74-710.913 615.435-436.609H476.609Zm311.304-274.304-37-37 37 37Zm-240 203h38l118.739-119.739-18-19-19-18-119.739 118.739v38Zm138.739-138.739-19-18 37 37-18-19Z"/></svg>