<svg xmlns="http://www.w3.org/2000/svg" height="24" viewBox="0 -960 960 960" width="24"><path d="M480-92.309q-29.923 0-51.115-21.192-21.192-21.192-21.192-51.115h144.614q0 29.923-21.192 51.115Q509.923-92.309 480-92.309ZM180.001-204.616v-59.998h72.308v-298.463q0-80.692 49.807-142.692 49.808-62 127.885-79.307v-74.923h99.998v74.923q13.308 3 25.539 7.077 12.231 4.077 23.769 10.23l-182.384 181v229.846h229.461l81.307-81.307v173.616h72.308v59.998H180.001Zm304.615-240v-105.691l250.691-249.691 105.307 105.076-250.307 250.306H484.616Zm250.691-211.691 37-38.615-37-37.385-38 38 38 38Z"/></svg>