<svg xmlns="http://www.w3.org/2000/svg" height="20" viewBox="0 -960 960 960" width="20"><path d="m771.826-84.978-70.804-70.565q-49.957 32.717-105.753 50.195-55.796 17.479-115.244 17.479-80.938 0-152.37-30.618t-124.991-84.177q-53.559-53.559-84.177-124.991-30.618-71.432-30.618-152.37 0-59.448 17.479-115.244 17.478-55.796 50.195-105.753L88.804-768l53.392-53.391L825.218-138.37l-53.392 53.392ZM480-170.87q43.043 0 83.446-12.521 40.402-12.522 77.684-33.044L480-377.565v206.695Zm327.087-92.413-61.37-60.13q20.288-36.485 31.851-75.732Q789.13-438.391 789.13-480q0-129.043-90.161-219.087Q608.807-789.13 480-789.13v198.76L263.283-807.087q48.156-31.544 103.337-48.294 55.181-16.75 113.38-16.75 81.913 0 152.845 30.618t124.491 84.177q53.559 53.559 84.177 124.491Q872.131-561.913 872.131-480q0 58.199-16.75 113.38t-48.294 103.337Z"/></svg>