<svg xmlns="http://www.w3.org/2000/svg" height="24" viewBox="0 -960 960 960" width="24"><path d="M806-350 696-460v90l-28-28v-290q0-14-9-23t-23-9H346l-28-28h318q24.75 0 42.375 17.625T696-688v188l110-110v260ZM160-538v-150q0-21.862 13-37.431Q186-741 206-746l26 26h-12q-14 0-23 9t-9 23v150h-28Zm310 326v-28h166q14 0 23-9t9-23v-12l26 26q-5 20-20.569 33-15.569 13-37.431 13H470Zm292 62L118-794l20-20 644 644-20 20ZM442-510Zm65-49ZM220-148q-12 0-22.875-4.875T178-166l-74-74 3-4q2-4 6.206-6t8.794-2q5.647 0 10.824 1.5Q138-249 142-244l29 29v-184q0-6.067 4.5-10.033Q180-413 185.429-413q5.881 0 9.726 3.967Q199-405.067 199-399v91h28v-136q0-6.067 4.5-10.033Q236-458 241.429-458q5.881 0 9.726 3.967Q255-450.067 255-444v136h28v-116q0-6.067 4.5-10.033Q292-438 297.429-438q5.881 0 9.726 3.967Q311-430.067 311-424v116h28v-86q0-6.067 4.5-10.033Q348-408 353.429-408q5.881 0 9.726 3.967Q367-400.067 367-394v186q0 24.75-17.25 42.375T307-148h-87Z"/></svg>