<svg xmlns="http://www.w3.org/2000/svg" height="20" viewBox="0 -960 960 960" width="20"><path d="M496-235.231q49.615-26.154 101.615-38.692 52-12.539 106.385-12.539 35 0 63.731 3.462t47.654 12.846q9.23 3.846 16.923-1.154 7.692-5 7.692-15.769v-416.615q0-6.923-3.846-12.308t-13.077-9.231q-35-10.692-64.038-15.5Q730-745.538 692-745.538q-51.385 0-101.538 14.961-50.154 14.962-94.462 42.885v452.461Zm-16 43.462q-8.385 0-14.269-4.846-5.885-4.846-13.039-8.539-44.615-23.769-92.846-36.538-48.231-12.769-98.846-12.769-21.231 0-43.346-1.769Q195.538-258 174-253.461q-31.769 11.692-58.885-.731Q88-266.615 88-295.153v-407.616q0-17.847 10.307-32.039Q108.615-749 123.692-756q30.462-16.308 65.423-18.923 34.962-2.616 69.885-2.616 58.769 0 111.654 13.923Q423.538-749.693 480-717.385q56.462-32.308 109.346-46.231Q642.231-777.539 701-777.539q30.923 0 62.385 2.116 31.461 2.115 58.923 12.423 20.077 8 35.385 23.192Q873-724.616 873-702.769v407.616q0 25.538-24.654 37.692-24.653 12.154-53.961 4.461-25.769-3.769-50.731-2.615-24.962 1.154-49.654 1.154-49.615 0-96.346 12.269t-89.346 37.038q-7.154 4.693-13.539 9.039-6.384 4.346-14.769 4.346Zm75.385-408.308q0-5.385 3.038-10.385 3.039-5 8.192-7.23 29.539-13.847 63.539-21.154 34-7.308 69.846-7.308 19.231 0 35.423 2.115 16.192 2.116 34.423 6.116 6.154 1.231 10.462 5.884 4.307 4.654 4.307 11.808 0 10.077-6.5 15.616-6.5 5.538-17.577 3.077-14.769-3-29.269-4.116-14.5-1.115-31.269-1.115-32.154 0-61.923 5.654t-57.385 16.73q-11.307 3.924-18.307-.23-7-4.154-7-15.462Zm0 212.923q0-5.385 3.038-10.769 3.039-5.385 8.192-7.616 28-13.846 63.539-20.769 35.538-6.923 69.846-6.923 19.231 0 35.423 2.116Q751.615-429 769.846-425q6.154 1.231 10.462 5.885 4.307 4.653 4.307 11.807 0 10.077-6.5 15.616-6.5 5.538-17.577 3.077-14.769-3-29.269-4.116-14.5-1.115-31.269-1.115-31.385 0-60.769 5.923-29.385 5.923-57 17.769-11.308 4.693-19.077-.115-7.769-4.808-7.769-16.885Zm0-105.692q0-5.385 3.038-10.385 3.039-5 8.192-7.231 29.539-13.846 63.539-21.153 34-7.308 69.846-7.308 19.231 0 35.423 2.115 16.192 2.116 34.423 6.116 6.154 1.23 10.462 5.884 4.307 4.654 4.307 11.808 0 10.077-6.5 15.615-6.5 5.539-17.577 3.077-14.769-3-29.269-4.115-14.5-1.115-31.269-1.115-32.154 0-61.923 5.653-29.769 5.654-57.385 16.731-11.307 3.923-18.307-.231-7-4.153-7-15.461Z"/></svg>