<svg xmlns="http://www.w3.org/2000/svg" height="20" viewBox="0 -960 960 960" width="20"><path d="M516-209q45-20 92-31t96-11q35 0 69.5 5t66.5 19v-452q-35-13-72.5-20.5T692-707q-46 0-90 11.5T516-663v454ZM483-80q-14 0-27.5-6T430-100q-39-22-81.687-35.5T261-149q-28.585 0-57.793 4.5Q174-140 146-129q-45 21-87 2.84Q17-144.319 17-186v-502q0-28 13.5-50.7Q44-761.4 67-774q43-24 91-30t97.891-6Q316-810 369.5-798 423-786 480-753q58-32 111-44.5T704.109-810q45.891 0 90.391 5.5Q839-799 879-781q28 13.6 46.5 37.3Q944-720 944-688v517q0 35-37.5 48.5T827-127q-33-11-66.207-16.5Q727.585-149 694-149q-43 0-82 13.5T537-100q-12 9-26 14.5T483-80Zm77-492q0-9.036 5.5-18.018Q571-599 580-602q28-10 58-15.5t62-5.5q20 0 38.5 2.568 18.5 2.567 37.5 6.675 10 2.054 17 10.771 7 8.716 7 19.986 0 17-11.5 25.5T759-553q-15-3-28.5-4.5T700-559q-26 0-49 4t-46 12q-19.878 7-32.439-1.167Q560-552.333 560-572Zm0 216q0-9.036 5.5-18.018Q571-383 580-386q28-10 58-15.5t62-5.5q20 0 38.5 2.568 18.5 2.567 37.5 6.675 10 2.054 17 10.771 7 8.716 7 19.986 0 17-11.5 25.5T759-337q-15-3-28.5-4.5T700-343q-26 0-49 3.5T605-328q-19.878 7-32.439-.654T560-356Zm0-108q0-9.036 5.5-18.018Q571-491 580-494q28-10 58-15.5t62-5.5q20 0 38.5 2.568 18.5 2.567 37.5 6.675 10 2.054 17 10.771 7 8.716 7 19.986 0 17-11.5 25.5T759-445q-15-3-28.5-4.5T700-451q-26 0-49 4t-46 12q-19.878 7-32.439-1.167Q560-444.333 560-464Z"/></svg>