<svg xmlns="http://www.w3.org/2000/svg" height="24" viewBox="0 -960 960 960" width="24"><path d="M260-299.086q47 0 91.5 10.5t88.5 31.5v-394q-41-24-87-36t-93-12q-36 0-71.5 7t-68.5 21v396q35-12 69.5-18t70.5-6Zm260 42q44-21 88.5-31.5t91.5-10.5q36 0 70.5 6t69.5 18v-396q-33-14-68.5-21t-71.5-7q-47 0-93 12t-87 36v394Zm-38.304 116.219q-14.566 0-28.761-3.5-14.196-3.5-25.761-10.631-38.435-22.435-80.693-34.783-42.258-12.347-86.481-12.347-40.07 0-78.709 11.282-38.639 11.283-74.508 30.152-28.913 14.957-56.61-1.373-27.696-16.329-27.696-47.627v-481.435q0-18.914 8.61-35.244 8.608-16.331 25.826-24.497 47.13-23.434 97.696-34.586 50.565-11.153 103.634-11.153 59.192 0 115.257 15 56.065 15 106.5 46.696 51-31.13 106.783-46.413 55.782-15.283 114.974-15.283 53.069 0 103.634 11.153 50.566 11.152 97.696 34.586 17.218 8.166 25.827 24.497 8.609 16.33 8.609 35.244v489.913q0 29.218-27.414 42.631-27.413 13.413-56.892-2.109-35.869-18.869-74.508-30.152Q740.07-202.128 700-202.128q-43.87 0-84.891 12.63-41.022 12.631-78.891 34.5-11.566 7.131-25.761 10.631-14.196 3.5-28.761 3.5ZM280-473.086Zm280-116.13q0-8.455 5.935-17.38 5.935-8.925 13.935-11.925 29-10 58.565-15.282Q668-639.086 700-639.086q20 0 39.5 2.538t38.5 6.6q9 2.03 15.5 10.152 6.5 8.123 6.5 18.275 0 17-11 24.718-11 7.717-28 3.717-14.565-3-29.5-4.5t-31.5-1.5q-26 0-50.435 4.717-24.435 4.718-47.435 12.718-18.496 7-30.313-1.094Q560-570.84 560-589.216Zm0 220q0-8.455 5.935-17.38 5.935-8.925 13.935-11.925 29-10 58.565-15.282Q668-419.086 700-419.086q20 0 39.5 2.538 19.5 2.539 38.5 6.6 9 2.03 15.5 10.152 6.5 8.123 6.5 18.275 0 17-11 24.718-11 7.717-28 3.717-14.565-3-29.5-4.5t-31.5-1.5q-26 0-50.435 4.218-24.435 4.217-47.435 12.217-18.496 7-30.313-.587T560-369.216Zm0-110q0-8.455 5.935-17.38 5.935-8.925 13.935-11.925 29-10 58.565-15.282Q668-529.086 700-529.086q20 0 39.5 2.538t38.5 6.6q9 2.03 15.5 10.152 6.5 8.123 6.5 18.275 0 17-11 24.718-11 7.717-28 3.717-14.565-3-29.5-4.5t-31.5-1.5q-26 0-50.435 4.718-24.435 4.717-47.435 12.717-18.496 7-30.313-1.094Q560-460.84 560-479.216Z"/></svg>