<svg xmlns="http://www.w3.org/2000/svg" height="20" viewBox="0 -960 960 960" width="20"><path d="M256-286.462q54.804 0 106.594 12.539Q414.385-261.385 464-235.231v-452.461q-45.308-29.923-97.987-43.885-52.68-13.961-105.602-13.961-36.411 0-63.95 3.307-27.538 3.308-59.538 16.981-9.231 3.077-13.077 8.846T120-703.712v416.635q0 10.769 7.692 15.769 7.693 5 16.923 1.154 18.923-9.384 47.654-12.846Q221-286.462 256-286.462Zm240 51.231q49.615-26.154 101.406-38.692 51.79-12.539 106.594-12.539 35 0 63.731 3.462t47.654 12.846q9.23 3.846 16.923-1.154 7.692-5 7.692-15.769v-416.615q0-6.923-3.846-12.308t-13.077-9.231q-35-10.692-64.029-15.5-29.029-4.807-67.048-4.807-51.385 0-101.538 14.961-50.154 14.962-94.462 42.885v452.461Zm-16 43.462q-8.385 0-14.269-4.846-5.885-4.846-13.259-8.539-44.395-23.769-92.611-36.538-48.215-12.769-98.861-12.769-21.231 0-43.346-1.769Q195.538-258 174-253.461q-31.769 11.692-58.885-.731Q88-266.615 88-295.153v-407.616q0-17.847 10.307-32.039Q108.615-749 123.692-756q31.231-15.539 65.689-18.539 34.459-3 69.619-3 58.769 0 111.654 13.923Q423.538-749.693 480-717.385q56.462-32.308 109.346-46.231Q642.231-777.539 701-777.539q31.397 0 62.237 2.5 30.84 2.5 59.071 12.039 20.077 8 35.385 23.192Q873-724.616 873-702.769v407.614q0 25.54-24.654 37.694-24.653 12.154-53.961 4.461-25.769-3.769-50.731-2.615-24.962 1.154-49.654 1.154-49.272 0-96.174 12.269-46.903 12.269-89.518 37.038-7.154 4.693-13.757 9.039-6.602 4.346-14.551 4.346ZM292-496.385Zm267.385-119.692q0-9.385 5.038-15.385 5.039-6 15.192-8.23 26.539-8.847 55.793-14.154 29.255-5.308 59.865-5.308 15.958 0 31.469 1.282 15.511 1.282 32.104 3.949Q767-652.692 771.808-647q4.807 5.692 4.807 13.769 0 10.077-7 17.616-7 7.538-17.077 6.791-14.769-1.714-28.57-2.83-13.801-1.115-28.817-1.115-29.305 0-56.574 3.654t-53.763 12.597q-9.429 2.057-17.429-4.097-8-6.154-8-15.462Zm2 231.923q0-9.385 5.038-15.769 5.039-6.385 15.192-8.616 25-8.846 55.793-13.769t59.865-4.923q15.958 0 31.469 1.282 15.511 1.282 32.104 3.949 8.154 1.231 12.962 6.923 4.807 5.692 4.807 13.769 0 10.077-7 17.616-7 7.538-17.077 6.791-14.769-1.714-28.57-2.83-13.801-1.115-28.817-1.115-28.536 0-55.42 4.423-26.885 4.423-53.378 14.136-9.43 2.826-18.199-4.482-8.769-7.308-8.769-17.385Zm0-114.692q0-9.385 5.038-15.385 5.039-6 15.192-8.231 26.539-8.846 55.793-14.153 29.255-5.308 59.865-5.308 15.958 0 31.469 1.282 15.511 1.282 32.104 3.949 8.154 1.23 12.962 6.923 4.807 5.692 4.807 13.769 0 10.077-7 17.615-7 7.539-17.077 6.792-14.769-1.715-28.57-2.83t-28.817-1.115q-29.305 0-56.574 3.653-27.269 3.654-53.763 12.598-9.429 2.056-17.429-4.098-8-6.153-8-15.461Z"/></svg>