<svg xmlns="http://www.w3.org/2000/svg" height="20" viewBox="0 -960 960 960" width="20"><path d="m871.827-198.087-89.74-90.74 38.608-398.694H429.391l-9.261-98.002h204.565v-144h89.523v144h215.305l-57.696 587.436ZM618.826-467.523ZM828.523-27.086 42.173-813l56.653-56.652L884.175-83.738l-55.652 56.652ZM30.477-188.043v-80.479h576v80.479h-576Zm0 157.566v-80.479h576v80.479h-576ZM399.87-568.61v81.044q-18.348-4.261-37.479-6.108-19.131-1.848-39.914-1.848-52.165 0-100.256 24.76Q174.13-446 145.13-416.479h406.305L631.913-336H30.477q0-110 89-175t203-65q21.914 0 40.979 1.848 19.066 1.848 36.414 5.543Zm-67.393 132.13Z"/></svg>