<svg xmlns="http://www.w3.org/2000/svg" height="24" viewBox="0 -960 960 960" width="24"><path d="m880.827-202.087-96.74-96.74 36.608-372.694H440.391L428.13-777.523h200.565v-160h97.523v160h211.305l-56.696 575.436ZM614.826-466.523ZM836.523-7.086 24.173-820l62.653-62.652L899.175-69.738 836.523-7.086ZM22.477-196.043v-88.479h600v88.479h-600Zm0 173.566v-88.479h600v88.479h-600ZM373.87-595.61v89.044q-12.348-2.261-25.979-3.608-13.631-1.348-25.414-1.348-51.086 0-98.216 15.76Q177.13-480 148.13-448.479h372.305L608.913-360H22.477q0-121 93.5-180.5t206.5-59.5q12.914 0 25.979 1.348 13.066 1.348 25.414 3.043Zm-51.393 147.13Z"/></svg>