<svg xmlns="http://www.w3.org/2000/svg" height="20" viewBox="0 -960 960 960" width="20"><path d="m470-350-76 76q-4 4-7 4.5t-8-4.5q-5-5-5-7.5t5-7.5l82.525-82.255q4.761-4.745 9.212-6.745 4.452-2 9.539-2 5.088 0 9.406 2 4.318 2 8.663 6.345L581-289q4 4 4.5 6.5T581-275q-5 5-7.5 5t-7.5-5l-76-75 5 204q1 5.95-3.035 9.975-4.035 4.025-10 4.025-7.24 0-12.103-5.025Q465-142.05 466-149l4-201ZM254.292-458q-4.242 0-7.267-2.825-3.025-2.824-3.025-7 0-4.175 2.869-7.175 2.87-3 7.112-3h451.727q4.242 0 7.267 2.825 3.025 2.824 3.025 7 0 4.175-2.869 7.175-2.87 3-7.112 3H254.292ZM470-610v-192.286q0-4.128 2.825-6.921 2.824-2.793 7-2.793 4.175 0 7.175 2.793t3 6.921V-610l76-76q4-4 7-4.5t8 4.5q5 5 5 7.5t-5 7.5l-82.525 82.255Q493.714-584 489.263-582q-4.452 2-9.539 2-5.088 0-9.406-2-4.318-2-8.663-6.345L379-671q-4-4-4-7t5-8q5-5 7.5-5t7.5 5l75 76Z"/></svg>