<svg xmlns="http://www.w3.org/2000/svg" height="20" viewBox="0 -960 960 960" width="20"><path d="M240.615-184q-24.315 0-40.465-16.15Q184-216.3 184-240.615v-478.77q0-24.315 16.15-40.465Q216.3-776 240.615-776h478.77q24.315 0 40.465 16.15Q776-743.7 776-719.385v478.77q0 24.315-16.15 40.465Q743.7-184 719.385-184h-478.77Zm0-32h478.77q9.23 0 16.923-7.692Q744-231.385 744-240.615v-478.77q0-4.615-1.923-8.846t-5.769-8.077L223.692-223.692q3.846 3.846 8.077 5.769t8.846 1.923Zm347.693-132.308H528q-5.067 0-8.38-3.302-3.312-3.303-3.312-8.354 0-5.051 3.312-8.39 3.313-3.338 8.38-3.338h60.308V-432q0-5.067 3.302-8.38 3.303-3.312 8.354-3.312 5.051 0 8.39 3.312 3.338 3.313 3.338 8.38v60.308H672q5.067 0 8.38 3.302 3.312 3.303 3.312 8.354 0 5.051-3.312 8.39-3.313 3.338-8.38 3.338h-60.308V-288q0 5.067-3.302 8.38-3.303 3.312-8.354 3.312-5.051 0-8.39-3.312-3.338-3.313-3.338-8.38v-60.308ZM432-588.308q5.067 0 8.38-3.302 3.312-3.303 3.312-8.354 0-5.051-3.312-8.39-3.313-3.338-8.38-3.338H288q-5.067 0-8.38 3.302-3.312 3.303-3.312 8.354 0 5.051 3.312 8.39 3.313 3.338 8.38 3.338h144Z"/></svg>