<svg xmlns="http://www.w3.org/2000/svg" height="20" viewBox="0 -960 960 960" width="20"><path d="M448.307-309.54q15.034 0 29.094-4.269 14.06-4.27 27.445-12.039l93.385 92.385 36.153-36.153-92.385-93.385q8.538-13 12.423-26.922 3.884-13.922 3.884-28.616 0-47.045-31.422-79.522-31.423-32.478-78.577-32.478-47.153 0-78.576 32.539-31.423 32.539-31.423 79.077 0 46.537 31.898 77.96 31.897 31.423 78.101 31.423Zm0-51.999q-23.846 0-40.923-16.785-17.078-16.786-17.078-40.215 0-24.263 17.078-41.632 17.077-17.369 40.923-17.369 23.847 0 40.924 17.369 17.077 17.369 17.077 41.632 0 23.429-17.077 40.215-17.077 16.785-40.924 16.785ZM212.001-116.001v-727.998h374l161.998 161.998v566H212.001Zm336-528V-792H264v624h432v-476.001H548.001ZM264-792v168.999V-792v624-624Z"/></svg>