<svg xmlns="http://www.w3.org/2000/svg" height="20" viewBox="0 -960 960 960" width="20"><path d="M449.217-288q14.264 0 28.132-3.5 13.868-3.5 26.868-10.5l88 87 50-50-87-88q7-13 10.5-26.538 3.5-13.537 3.5-27.462 0-51.275-34.5-86.638-34.5-35.362-85.5-35.362t-85.5 35.616q-34.5 35.616-34.5 86T364-322.5q34.782 34.5 85.217 34.5Zm0-72q-20 0-34-13.708-14-13.709-14-33.292 0-20.417 14-34.708 14-14.292 34-14.292t34 14.292q14 14.291 14 34.708 0 19.583-14 33.292-14 13.708-34 13.708ZM172.782-76.782v-806.436h411.131l203.305 203.531v602.905H172.782Zm348.435-540.435h168l-168-168v168Z"/></svg>