<svg xmlns="http://www.w3.org/2000/svg" height="24" viewBox="0 -960 960 960" width="24"><path d="M442.615-323.077q19.539 0 37.424-6.038 17.884-6.039 33.653-16.577l108.77 108.769 28.307-28.308L542-374q12.077-15 17.346-33.269 5.27-18.269 5.27-37.808 0-49.538-34.847-83.769-34.846-34.231-85.154-34.231-50.307 0-85.153 34.846-34.847 34.846-34.847 85.154t34.231 85.154q34.231 34.846 83.769 34.846Zm2-40q-32.692 0-56.346-23.654-23.653-23.654-23.653-56.346 0-32.692 23.653-56.346 23.654-23.654 56.346-23.654 32.693 0 56.347 23.654 23.653 23.654 23.653 56.346 0 32.692-23.653 56.346-23.654 23.654-56.347 23.654ZM200-120v-720h380l180 180v540H200Zm360-520v-160H240v640h480v-480H560ZM240-800v160-160 640-640Z"/></svg>