<svg xmlns="http://www.w3.org/2000/svg" height="24" viewBox="0 -960 960 960" width="24"><path d="M80 0v-177.523h800V0H80Zm514.74-498.088-50.305-50.869-50.869-50.305-134.564 134.564 100.739 101.174L594.74-498.088ZM569.219-674.48l50.87 50.435 49.869 50.304 127.781-126.781-101.174-101.739L569.219-674.48ZM153.001-257.523l132.217-131.652-37.913-37.479v-75.653l209.652-209.652 251.045 250.48-210.217 210.217h-74.653l-37.914-37.913-32.217 31.652h-200Zm303.956-454.436L697-952.002l250.915 251.48-239.913 239.043-251.045-250.48Z"/></svg>