<svg xmlns="http://www.w3.org/2000/svg" height="24" viewBox="0 -960 960 960" width="24"><path d="m70.913-65.413 210.044-587.739 377.935 377.935L70.912-65.413Zm150.174-149.935L492.804-312 317.739-487.065l-96.652 271.717Zm370.239-239.065L545.739-500 846.5-800.761l104.587 104.826-45.826 45.587-59-59-254.935 254.935ZM423.913-621.587l-45.587-45.826 56.565-56.565-60-60 45.587-45.587 105.826 105.587-102.391 102.391ZM507.739-538l-45.826-45.587 176.13-176.13-99-99 45.827-45.587 144.587 144.587L507.739-538Zm167.174 167.413-45.587-45.826 143.392-143.391 144.587 144.826-45.826 45.826-99-99-97.566 97.565ZM221.087-215.348Z"/></svg>