<svg xmlns="http://www.w3.org/2000/svg" height="24" viewBox="0 -960 960 960" width="24"><path d="M497.562-530.174q-19.866 0-33.627-13.761-13.761-13.761-13.761-33.627 0-19.866 13.761-33.305t33.627-13.439q19.866 0 33.305 13.439t13.439 33.305q0 19.866-13.439 33.627-13.439 13.761-33.305 13.761Zm159.921 0q-19.866 0-33.305-13.761-13.438-13.761-13.438-33.627 0-19.866 13.438-33.305 13.439-13.439 33.305-13.439t33.627 13.439q13.761 13.439 13.761 33.305t-13.761 33.627q-13.761 13.761-33.627 13.761Zm160.645 0q-19.866 0-33.345-13.761-13.478-13.761-13.478-33.627 0-19.866 13.439-33.305 13.438-13.439 33.304-13.439t33.344 13.439q13.479 13.439 13.479 33.305t-13.439 33.627q-13.439 13.761-33.304 13.761ZM799.13-100.782q-128.446 0-253.81-55.913T316.565-315.717Q213.173-418.826 157.26-544.376q-55.913-125.551-55.913-254.189 0-25.994 17.168-43.324 17.168-17.329 42.92-17.329H322.87q27 0 44.783 14.304 17.783 14.305 23.175 39.175l25.434 128.13q4.261 24.479-.717 41.696-4.978 17.218-19.761 30.305L295.392-512.13q17.739 30.782 41.848 60.76 24.108 29.979 54.847 59.718 28.174 28.173 56.522 50.717 28.347 22.543 58.434 40.021l97.956-96.261q15.218-14.653 35.371-20.283 20.152-5.631 42.631-1.37l122.738 26.305q25.87 7.391 39.675 23.826 13.804 16.435 13.804 41.306v165.956q0 25.994-17.369 43.324-17.37 17.329-42.719 17.329ZM244.826-609.044l65.435-60.913-16.304-83.26h-84.609q3.87 37.043 11.998 73.053t23.48 71.12Zm360.261 360.045q35.609 15.216 72.856 25.029 37.246 9.813 75.274 14.057v-85.174l-82.695-18.304-65.435 64.392ZM244.826-609.044q-15.304-35.043-23.456-71.086-8.152-36.044-12.022-73.087h84.609l16.304 83.26-65.435 60.913Zm360.261 359.957 65.435-64.304 82.695 18.304v85.174q-38.174-4.131-75.347-14-37.174-9.87-72.783-25.174Z"/></svg>