<svg xmlns="http://www.w3.org/2000/svg" height="20" viewBox="0 -960 960 960" width="20"><path d="M458.539-303.386h40.922l11.692-50.615q19.385-5 34-12.846 14.616-7.846 26.77-21.308l49.615 16 20.845-35.768-36.769-34.384q4.308-16.847 5.308-37.193 1-20.346-4.308-37.193l35.769-33.384-20.845-35.768-48.615 15q-12.154-13.462-27.27-21.808-15.115-8.346-34.5-13.346l-10.692-50.615h-41.922l-9.692 50.615q-19.385 5-34.5 13.346-15.116 8.346-27.27 21.808l-48.615-16-20.845 36.768 36.769 33.384q-5.308 17.847-5.308 37.193 0 19.346 5.308 37.193l-36.769 34.384 20.845 36.768 49.615-17q12.154 12.462 26.77 20.808 14.615 8.346 34 13.346l9.692 50.615ZM480-408q-30 0-51-21t-21-51q0-30 21-51t51-21q30 0 51 21t21 51q0 30-21 51t-51 21ZM164.001-164.001v-631.998h631.998v631.998H164.001Z"/></svg>