<svg xmlns="http://www.w3.org/2000/svg" height="24" viewBox="0 -960 960 960" width="24"><path d="M451.539-295.386h56.922l9.692-54.615q17.385-5 30-11.846 12.616-6.846 24.77-18.308l52.615 18 28.845-48.768-41.769-35.384q4.308-17.847 4.308-33.693 0-15.846-4.308-33.693l41.769-35.384-28.845-48.768-52.615 18q-12.154-11.462-24.77-18.308-12.615-6.846-30-11.846l-9.692-54.615h-56.922l-9.692 54.615q-17.385 5-30 11.846-12.616 6.846-24.77 18.308l-52.615-18-28.845 48.768 41.769 35.384q-4.308 17.847-4.308 33.693 0 15.846 4.308 33.693l-41.769 35.384 28.845 48.768 52.615-18q12.154 11.462 24.77 18.308 12.615 6.846 30 11.846l9.692 54.615ZM480-400q-33 0-56.5-23.5T400-480q0-33 23.5-56.5T480-560q33 0 56.5 23.5T560-480q0 33-23.5 56.5T480-400ZM140.001-140.001v-679.998h679.998v679.998H140.001ZM200-200h560v-560H200v560Zm0 0v-560 560Z"/></svg>