<svg xmlns="http://www.w3.org/2000/svg" height="24" viewBox="0 -960 960 960" width="24"><path d="M111.869-147.804v-120.609q0-36.224 18.743-66.589 18.742-30.365 49.801-46.346 62.717-31.239 127.664-46.978T440-444.065q20.418 0 40.837 1.5 20.418 1.5 40.837 4.5-4.239 59.913 21.717 112.848 25.957 52.934 75.631 86.413v91H111.869ZM765.261-33.782l-61.435-61.442v-190.468q-45.052-13.312-73.722-50.689-28.669-37.377-28.669-86.53 0-59.393 41.99-101.35 41.991-41.957 101.392-41.957 59.401 0 101.357 42.007 41.957 42.007 41.957 101.432 0 46.105-25.859 81.822-25.859 35.718-66.054 51.196l50.956 51.196-61.435 61.435 61.435 61.434-81.913 81.913ZM440.004-484.066q-69.352 0-118.743-49.387-49.392-49.388-49.392-118.74t49.388-118.624q49.387-49.271 118.739-49.271t118.743 49.318q49.392 49.318 49.392 118.573 0 69.354-49.388 118.742-49.387 49.389-118.739 49.389Zm304.779 81.674q17.239 0 29.098-11.859 11.858-11.859 11.858-29.098 0-17.239-11.858-29.098-11.859-11.858-29.098-11.858-17.239 0-29.098 11.858-11.859 11.859-11.859 29.098 0 17.239 11.859 29.098 11.859 11.859 29.098 11.859Z"/></svg>