<svg xmlns="http://www.w3.org/2000/svg" height="20" viewBox="0 -960 960 960" width="20"><path d="M780.211-252Q765-252 754.5-262.35 744-272.7 744-288v-96h-96q-15.3 0-25.65-10.289-10.35-10.29-10.35-25.5Q612-435 622.35-445.5 632.7-456 648-456h96v-96q0-15.3 10.289-25.65 10.29-10.35 25.5-10.35Q795-588 805.5-577.65 816-567.3 816-552v96h96q15.3 0 25.65 10.289 10.35 10.29 10.35 25.5Q948-405 937.65-394.5 927.3-384 912-384h-96v96q0 15.3-10.289 25.65-10.29 10.35-25.5 10.35ZM180.29-384q-15.29 0-25.79-10.35T144-420v-312q0-15.3 10.35-25.65Q164.7-768 180-768h600q15.3 0 25.65 10.35Q816-747.3 816-732v72h-72q-29.7 0-50.85 21.15Q672-617.7 672-588v60h-60q-29.68 0-50.816 21.15-21.136 21.15-21.136 50.85v72H180.29Z"/></svg>