<svg xmlns="http://www.w3.org/2000/svg" height="24" viewBox="0 -960 960 960" width="24"><path d="M279-106q-45 0-79-25t-48-64q-2-8 2.5-13.5T167-214q5 0 8 3t5 7q11 31 38 50.5t61 19.5q40 0 67-22.5t47-73.5q9-24 15.5-38t19-29q12.5-15 35.5-36t65-59L203-717q-10 17-16.5 36t-9.5 40q-1 6-5.5 10.5T161-626q-6 0-9.5-4.5T149-641q4-27 12-50.5t22-45.5l-83-83q-4-4-4.5-9.5T100-840q5-5 10-5t10 5L862-98q4 4 4.5 9.5T862-78q-5 5-10 5t-10-5L548-372q-42 37-64.5 58T449-279q-12 14-17 26t-13 33q-20 57-55.5 85.5T279-106Zm446-241-20-20q39-52 59.5-111T785-600q0-70-22.5-132.5T698-846q-4-5-3.5-10t4.5-9q5-4 10-3.5t9 4.5q45 54 70 121.5T813-600q0 69-22.5 133.5T725-347ZM617-455l-22-22q15-29 22.5-60t7.5-63q0-95-65.5-160.5T399-826q-32 0-62.5 8.5T279-793l-21-21q31-20 67-30t74-10q109 0 181.5 72.5T653-600q0 40-9 76.5T617-455ZM479-593l-87-87h7q34 0 57 23t23 57v7Zm-80 73q-34 0-57-23t-23-57q0-9 1.5-17.5T326-634l107 107q-8 4-16.5 5.5T399-520Z"/></svg>