<svg xmlns="http://www.w3.org/2000/svg" height="20" viewBox="0 -960 960 960" width="20"><path d="M281-106q-43 0-76.5-22T155-185q-5-14-2.5-23t16.5-9q5 0 9 3t7 8q11 30 37 49t59 19q38 0 67.5-25t43.5-69q4-14 10-26t19.5-28.5Q435-303 459-328t65-65L207-710q-10 16-16.5 34.5T181-637q-2 6-7 10.5t-11 4.5q-7 0-11-5.5t-3-11.5q4-27 12.5-49.5T184-733l-83-83q-4-4-4.5-10t4.5-11q5-5 11.5-5t11.5 5l735 736q4 4 4.5 10T859-80q-5 5-11 5.5T837-79L548-369q-38 36-61.5 60T449-268q-14 17-20 29.5T417-213q-18 51-54 79t-82 28Zm444-245-22-22q37-51 57-108t20-117q0-67-22.5-129.5T693-842q-4-5-3.5-10.5t5.5-9.5q6-4 11-4.5t8 1.5q49 57 73.5 125T812-598q0 67-22.5 129.5T725-351ZM618-458l-26-26q15-29 22.5-57.5T622-598q0-91-65.5-156.5T400-820q-30 0-59 8t-54 22l-24-24q31-20 65.5-29t71.5-9q107 0 180.5 73.5T654-598q0 36-9.5 71.5T618-458ZM482-594l-86-87q2 1 2 .5t1-.5q34 0 58 24t24 58v2q0 1 1 3Zm-83 77q-34 0-58-23.5T317-599q0-10 2-19.5t6-17.5l110 111q-9 4-17.5 6t-18.5 2Z"/></svg>