<svg xmlns="http://www.w3.org/2000/svg" height="20" viewBox="0 -960 960 960" width="20"><path d="M268.999-64.173q-53.695 0-97.174-28.935-43.478-28.935-63.87-79.457-11.956-32.609 1.435-56.609 13.392-24 49.566-24 15.826 0 30.153 10.695 14.326 10.696 24.021 31.783 7.74 16.609 23.131 26.565 15.391 9.957 33.869 9.957 26.739 0 47.065-20.805 20.326-20.804 31.195-60.934 4.304-14.174 13.087-31.174t21.631-34.131q12.847-17.13 29.826-35.391 16.978-18.261 36.674-34.957L210.261-630.913v-1.13q-6.261 21.522-22.718 36.696-16.456 15.174-38.544 15.174-23.087 0-38.826-17.239-15.74-17.24-12.044-38.762 3.696-22.087 10.674-41.544 6.979-19.456 15.805-38.848L56-785.174Q42.87-798.304 42.87-817q0-18.696 13.13-31.826 13.13-13.131 32.826-13.131 19.696 0 32.826 13.131L856.87-112.609q13.131 13.131 13.131 31.827 0 18.695-13.131 31.826-13.13 13.13-32.326 13.413-19.196.283-32.326-12.848L528.826-312.348q-16.565 15.566-30.913 30.848-14.348 15.283-25.413 30.848t-19.348 32.131q-8.282 16.565-14.848 33.695-19.13 54.261-65.239 87.457-46.109 33.196-104.066 33.196Zm508.09-256.957-78.784-79.349q27.347-44.869 42.021-94.26Q755-544.13 755-595.174q0-59.174-18.239-116.174-18.239-57-54.543-107.826-11.566-15.696-10.283-35.522 1.283-19.826 14.978-32.522 20.218-18.217 44.566-16.87 24.349 1.348 39.305 22.827 47.305 63.957 70.761 136.87 23.456 72.913 23.456 149.217 0 73.261-22.587 142.24-22.586 68.978-65.325 131.804ZM645.913-452.87l-86.87-86.306q5.912-14.521 8.934-28.129 3.022-13.608 3.022-27.869 0-75.347-53.826-129.173-53.826-53.826-129.174-53.826-13.825 0-27.999 3.174-14.173 3.173-26.694 8.521l-85.176-85.175q32.74-19.609 67.565-28.065 34.826-8.456 72.304-8.456 122.088 0 207.544 85.456Q681-717.261 681-595.174q0 35.913-9.304 71.739-9.305 35.826-25.783 70.565ZM480.216-618.567l-66.997-67.998q3.304.131 4.695-.369 1.392-.5 4.131-.5 23.912 0 41.194 17.282 17.282 17.282 17.282 41.194 0 2.739-.218 4.913-.217 2.173-.087 5.478ZM378.521-483.434q-42 0-72-30t-30-72q0-23.044 9.717-41.979 9.718-18.935 25.762-31.066l139 140q-13.13 15.609-31.283 25.327-18.152 9.718-41.196 9.718Z"/></svg>