<svg xmlns="http://www.w3.org/2000/svg" height="20" viewBox="0 -960 960 960" width="20"><path d="M408.124-356q6.722 0 11.453-4.588 4.731-4.589 4.731-11.372v-215.757q0-6.783-4.548-11.533-4.547-4.75-11.269-4.75t-11.453 4.588q-4.731 4.589-4.731 11.372v215.757q0 6.783 4.548 11.533 4.547 4.75 11.269 4.75Zm143.385 0q6.722 0 11.453-4.588 4.731-4.589 4.731-11.372v-215.757q0-6.783-4.548-11.533-4.547-4.75-11.269-4.75t-11.453 4.588q-4.731 4.589-4.731 11.372v215.757q0 6.783 4.548 11.533 4.547 4.75 11.269 4.75Zm-71.1 220q-70.948 0-133.685-26.839-62.737-26.84-109.865-73.922-47.127-47.082-73.993-109.716Q136-409.111 136-480.325q0-71.214 26.839-133.451 26.84-62.237 73.922-109.365 47.082-47.127 109.716-73.993Q409.111-824 480.325-824q71.214 0 133.451 26.839 62.237 26.84 109.365 73.922 47.127 47.082 73.993 109.482Q824-551.357 824-480.409q0 70.948-26.839 133.685-26.84 62.737-73.922 109.865-47.082 47.127-109.482 73.993Q551.357-136 480.409-136Z"/></svg>