<svg xmlns="http://www.w3.org/2000/svg" height="20" viewBox="0 -960 960 960" width="20"><path d="M432-433h105.231H432ZM88-184v-496h168.923l72-96h255.692v32H347.231l-72.769 96H120v432h624v-368.615h32V-184H88Zm656-488v-72h-72v-32h72v-72h32v72h72v32h-72v72h-32ZM432-294.769q59.692 0 98.462-39.769 38.769-39.77 38.769-97.462 0-56.692-38.769-96.962-38.77-40.269-98.462-40.269t-98.462 40.269q-38.769 40.27-38.769 97.462t38.769 96.962q38.77 39.769 98.462 39.769Zm0-32q-46.615 0-75.923-30.438T326.769-433q0-44.515 29.308-74.373 29.308-29.858 75.923-29.858t75.923 29.858q29.308 29.858 29.308 74.373 0 45.355-29.308 75.793-29.308 30.438-75.923 30.438Z"/></svg>