<svg xmlns="http://www.w3.org/2000/svg" height="24" viewBox="0 -960 960 960" width="24"><path d="M144.738-111.521v-375L77.26-434.348l-58.174-78.131 125.652-97.296v-131.139h97.523v56.782l237.174-180.174 460.914 351.827-58.74 76.566-67.478-50.608v375H144.738Zm97.523-96.958h186.434v-160h97.523v160h190.956v-352.043L479.435-741.826 242.261-560.745v352.266Zm-97.523-572.435q1.696-62.436 45.104-106.197t105.42-43.761q22.285 0 37.36-15.457t15.075-37.544h98.088q-1.696 62.436-45.104 106.197t-105.419 43.761q-22.285 0-37.361 15.457-15.075 15.457-15.075 37.544h-98.088Zm97.523 572.435h474.913-474.913Z"/></svg>