<svg xmlns="http://www.w3.org/2000/svg" height="24" viewBox="0 -960 960 960" width="24"><path d="M200-160v-365.769l-77.385 59.615-24.154-31.692L200-576v-105.539h40V-607l240-183 381.539 292.154-24.154 31.462L760-525.769V-160H200Zm40-40h184.615v-190.769h110.77V-200H720v-356L480-739 240-556v356Zm-40-529.231q0-36.154 23.077-61.923t66.154-25.769q26.23 0 37.73-13.808 11.5-13.808 11.5-33.885h40.001q0 36.154-23.077 61.923-23.077 25.77-66.154 25.77-26.231 0-37.731 13.807-11.5 13.808-11.5 33.885h-40ZM240-200h480-480Z"/></svg>