<svg xmlns="http://www.w3.org/2000/svg" height="24" viewBox="0 -960 960 960" width="24"><path d="M580.231-52.77q-8.539 0-14.385-5.73T560-72.77q0-8.538 5.731-14.269 5.73-5.73 14.269-5.73 116.231 0 197.731-81.5T859.231-372q0-8.539 5.73-14.269 5.731-5.731 14.27-5.731 8.538 0 14.269 5.731 5.731 5.73 5.731 14.269 0 66.308-25.039 124.5-25.038 58.192-68.153 101.423-43.116 43.231-101.308 68.27-58.193 25.038-124.5 25.038Zm0-135.384q-8.539 0-14.385-5.731-5.846-5.73-5.846-14.269t5.731-14.269q5.73-5.731 14.269-5.731 60 0 101.923-41.923T723.846-372q0-8.539 5.731-14.269 5.73-5.731 14.269-5.731t14.269 5.731q5.731 5.73 5.731 14.269-.231 76.846-53.5 130.231-53.269 53.384-130.115 53.615ZM245.077-99.307q-11.923 0-23.077-4.077-11.154-4.077-20.077-12.77l-142-142q-8.693-8.923-12.77-20.077-4.076-11.153-4.076-23.077 0-12.153 4.077-22.807 4.076-10.654 12.769-19.346l111.615-111.616q17.616-17.615 42.77-17.731 25.154-.115 42.769 17.5l58.461 58.462L372-453.308l-58.462-58.461q-17.615-17.616-17.615-42.539 0-24.923 17.615-42.538l41.616-41.616q17.615-17.615 42.269-17.615t42.269 17.615L498.154-580l56.461-56.462-58.461-58.461q-17.616-17.615-17.616-42.654 0-25.038 17.616-42.654l111.615-111.615q8.923-8.923 19.693-13.385 10.769-4.462 22.692-4.462t22.962 4.077q11.038 4.077 19.961 13l142 142q8.923 8.693 12.885 19.731 3.961 11.039 3.961 23.193 0 11.923-3.961 23.077-3.962 11.153-12.885 20.076L723.462-552.923q-17.616 17.615-42.654 17.615-25.039 0-42.654-17.615l-58.462-58.462-56.461 56.462 58.461 58.461q17.616 17.616 17.501 42.654-.116 25.039-17.731 42.654l-40.616 40.616q-17.615 17.615-42.654 18-25.038.384-42.654-17.231l-58.461-58.462-56.462 56.462 58.462 58.461q17.615 17.616 17.5 42.77-.115 25.153-17.731 42.769L287.231-116.154q-8.693 8.693-19.346 12.77-10.654 4.077-22.808 4.077ZM232-142.923q5.385 5.385 13.077 5.385t13.077-5.385l44.307-44.308L132-357.692l-44.308 44.308q-5.384 5.384-5.384 13.076 0 7.693 5.384 13.077L232-142.923Zm95.769-70.385 44.308-44.307q5.384-5.385 5.384-13.077 0-7.693-5.384-13.077L227.769-428.077q-5.384-5.384-13.077-5.384-7.692 0-13.077 5.384l-44.307 44.308 170.461 170.461Zm339.693-367.384q5.384 5.384 13.077 5.384 7.692 0 13.076-5.384L737.923-625 567.462-795.461l-44.308 44.307q-5.385 5.385-5.385 13.077T523.154-725l144.308 144.308ZM764-650.308l44.308-44.308q5.384-5.384 5.384-13.076 0-7.693-5.384-13.077L664-865.077q-5.385-5.385-13.077-5.385t-13.077 5.385l-44.307 44.308L764-650.308Z"/></svg>