<svg xmlns="http://www.w3.org/2000/svg" height="20" viewBox="0 -960 960 960" width="20"><path d="M572.043-.52q-20.014 0-34.79-14.245-14.776-14.247-14.776-34.544 0-20.298 14.307-34.755 14.307-14.457 34.694-14.457 119.865-2 204.433-86.068t85.568-203.933q0-20.387 14.247-34.694 14.246-14.307 34.544-14.307 20.297 0 34.754 14.307 14.457 14.307 14.457 34.694 0 80.814-30.557 151.306-30.557 70.491-82.889 122.848-52.332 52.356-122.857 83.102Q652.653-.519 572.043-.519Zm-1.13-170.001q-20.083 0-34.259-14.246-14.177-14.246-14.177-34.544 0-20.298 14.307-34.754 14.307-14.457 34.694-14.457 50-1 85-35.708 35-34.709 35-84.292 0-20.387 14.246-34.694 14.246-14.307 34.544-14.307 20.298 0 34.755 14.307 14.456 14.307 14.456 34.694.566 91.305-63.348 154.936-63.913 63.631-155.218 63.065Zm-359.673 128q-15.863 0-31.226-5.848t-28.059-19.109l-153-153q-13.26-12.696-19.108-28.059-5.848-15.363-5.848-31.226 0-16.92 5.848-32.231 5.847-15.311 19.108-28.572l127.522-125.956q24.956-25.957 60.044-25.957 35.087 0 60.044 25.957l53.912 53.913 33.435-32.87-54.478-54.478q-25.957-24.889-25.957-60.01 0-35.121 25.957-60.078l58.521-59.521q24.657-25.957 59.894-25.957 35.238 0 60.194 25.957l55.478 55.478 32.87-33.435-54.913-54.912q-25.957-24.657-25.957-59.894 0-35.238 25.957-60.194l126.956-127.522q13.261-13.261 28.239-19.108 14.979-5.848 31.805-5.848t31.805 5.848q14.978 5.847 28.239 19.108l153 153q12.696 13.261 18.826 28.572 6.131 15.311 6.131 32.232 0 15.863-6.153 31.44-6.152 15.577-18.804 27.844L764.566-559.435q-24.657 25.956-59.894 25.956-35.237 0-60.194-25.956L589-614.913l-32.87 33.434 54.913 54.913Q637-501.609 637-466.522q0 35.087-25.957 60.044l-59.521 58.521Q526.865-322 491.628-322q-35.237 0-60.194-25.957l-53.913-53.913L344.087-369l54.478 54.478q25.956 24.957 25.956 60.044 0 35.087-25.956 60.044L272.043-67.478q-13.261 13.261-28.572 19.109-15.311 5.848-32.231 5.848Zm.759-85.001L258.477-174l-153-153-46.478 46.478 153 153ZM292.477-208l46.044-46.478-152-152L139.477-361l153 153Zm199.001-200.001 59.521-58.521-153-153-58.521 59.521 152 152Zm213.044-211.478L751-666.523l-153-153-46.478 47.044 153 153ZM785-700.523l46.478-46.478-153-153L632-853.523l153 153ZM447.521-512.479Z"/></svg>