<svg xmlns="http://www.w3.org/2000/svg" height="20" viewBox="0 -960 960 960" width="20"><path d="M376-129H236q-24.3 0-41.65-17.35Q177-163.7 177-188v-277h-43q-20.833 0-27.917-19.5Q99-504 114-517l327-284q18-14 39-14t39 14l138 119v-72q0-13 8.5-21t21.5-8h67q13 0 21 8t8 20.76V-570l62 53q16 13 8.417 32.5Q845.833-465 825-465h-42v277q0 24.3-17.35 41.65Q748.3-129 724-129H584v-173q0-24.3-17.35-41.65Q549.3-361 525-361h-90q-24.3 0-41.65 17.35Q376-326.3 376-302v173Zm24-397h160q0-34-23-59.5T480-611q-34 0-57 25.5T400-526Z"/></svg>