<svg xmlns="http://www.w3.org/2000/svg" height="20" viewBox="0 -960 960 960" width="20"><path d="M480-528q-54 0-92-38t-38-92q0-54 38-92t92-38q54 0 92 38t38 92q0 54-38 92t-92 38Zm0-92q16.4 0 27.2-11.3T518-658q0-16.4-10.8-27.2T480-696q-15.4 0-26.7 10.8Q442-674.4 442-658q0 15.4 11.3 26.7Q464.6-620 480-620ZM230-357q0-22.638 12-43.819T273-434q48-30 101.5-43T480-490q53 0 106 12.5T687-434q19 12 31 32.681 12 20.681 12 44.319 0 32.053-23.474 55.526Q683.053-278 651-278H309q-32.053 0-55.526-23.474Q230-324.947 230-357Zm249.844-41Q448-398 417-391.5T357-370h246q-29-13-60.156-20.5t-63-7.5ZM684-803q-21-14-29.5-36.5t.5-44.5q10-22 32.5-30.5T732-911q54.946 31.496 99.473 75.248Q876-792 908-737q14 22.362 5.5 46.181T882-657q-22 10-46 .5T798-688q-23-38-51-66t-63-49Zm-410 1q-37 22-65 50.5T159-687q-14 22-37 31.5t-45-.5q-23-10-32-33.819-9-23.819 5-46.181 32-55 76.027-98.752Q170.054-878.504 226-911q22-12 44.368-3.611Q292.737-906.222 303-884q9 22 .5 45T274-802ZM160-274q21 35 48.5 63t63.5 50q22 14 32 37.5t0 45.5q-10 23-34 32t-45-5q-55-32-99-76T50-227q-13-22-4-44.5T78-304q22-9 45-.5t37 30.5Zm640 3q14-22 37-31t45 0q22 10 30.5 32.5T909-225q-31.496 54.946-75.248 99.473Q790-81 735-49q-22.362 14-46.181 5T655-76q-10-22 .5-45t32.5-38q35-22 63-49.5t49-62.5ZM480-658Zm0 288h123-246 123Z"/></svg>