<svg xmlns="http://www.w3.org/2000/svg" height="20" viewBox="0 -960 960 960" width="20"><path d="M480-532.615q-41.539 0-70.769-29.231Q380-591.077 380-632.615q0-41.539 29.231-70.77 29.23-29.231 70.769-29.231t70.769 29.231Q580-674.154 580-632.615q0 41.538-29.231 70.769-29.23 29.231-70.769 29.231Zm0-32.001q28.092 0 48.046-19.953Q548-604.523 548-632.615q0-28.093-19.954-48.047-19.954-19.953-48.046-19.953t-48.046 19.953Q412-660.708 412-632.615q0 28.092 19.954 48.046 19.954 19.953 48.046 19.953ZM260-357v-15.385q0-16.791 7.808-29.972 7.807-13.181 21.73-21.874 42.693-28.231 91.885-39.692 49.192-11.462 98.577-11.462 48.615 0 98.192 11.462 49.577 11.461 92.27 39.692 13.153 8.693 21.346 22.258Q700-388.407 700-372.385V-357q0 14.437-9.589 24.026-9.589 9.59-24.026 9.59h-372.77q-14.437 0-24.026-9.59Q260-342.563 260-357Zm219.844-86.384q-48.69 0-97.344 14.577-48.654 14.576-95.115 44.192v30h385.23v-30.769Q626.923-413 577.728-428.192q-49.194-15.192-97.884-15.192Zm176.771-404.308q-7.846-4.154-11.653-10.846-3.808-6.693-1.654-13.001 2.154-6.307 9.615-7.461 7.462-1.154 14.539 2 72.33 35.265 123.319 85.594 50.988 50.329 87.527 122.483 4.154 7.438 2.231 15.45-1.923 8.011-8.231 10.165t-13.5-2.154q-7.193-4.307-11.347-11.384Q816.923-720.077 768.385-769q-48.539-48.923-111.77-78.692Zm-353.23 0q-63.231 30.538-111.77 79.077-48.538 48.538-79.076 111.769-4.154 7.077-10.462 11.384-6.308 4.308-12.616 2.154-6.307-2.154-9.115-10.165-2.808-8.012 1.346-15.45 35-72.923 86.758-123.252 51.758-50.329 124.088-85.594 7.077-3.154 14.407-1.727 7.33 1.427 9.747 7.957 2.154 6.308-1.654 13.001-3.807 6.692-11.653 10.846ZM113.308-303.385q30.538 63.231 78.577 111.77 48.038 48.538 111.269 79.076 7.077 4.154 11.384 10.462 4.308 6.308 1.385 12.616-2.923 6.307-11.5 8.346-8.577 2.038-15.654-2.116-69.846-35-122.346-87.5T81.461-293.307q-3.153-7.077-.73-14.154t8.73-9.231q6.308-2.154 13.001 1.654 6.692 3.807 10.846 11.653Zm734.384 0q4.154-7.846 10.846-11.653 6.693-3.808 13.001-1.654 6.307 2.154 7.461 9.615 1.154 7.462-2 14.539-35.265 72.33-87.133 124.857Q738-115.154 667.385-81.692q-7.439 4.154-15.066 1.346-7.627-2.808-9.78-9.115-2.154-6.308 2.538-12.616t11.769-10.462q63.231-30.538 111.769-79.076 48.539-48.539 79.077-111.77ZM480-632.615Zm0 278h192.615-385.23H480Z"/></svg>