<svg xmlns="http://www.w3.org/2000/svg" height="24" viewBox="0 -960 960 960" width="24"><path d="M480-520q-52.261 0-88.957-36.696-36.695-36.695-36.695-88.956t36.695-88.957q36.696-36.696 88.957-36.696 52.261 0 88.957 36.696 36.695 36.696 36.695 88.957 0 52.261-36.695 88.956Q532.261-520 480-520ZM234.348-356q0-22.13 11.347-42.326 11.348-20.196 30.479-31.761Q322.87-456.652 374-471.152q51.13-14.5 106-14.5 55.435 0 106.283 14.217 50.847 14.217 97.543 41.348 19.131 11.565 30.479 31.478 11.347 19.913 11.347 42.609 0 33.696-23.978 57.674T644-274.348H316q-33.696 0-57.674-23.978T234.348-356Zm443.435-454.086q-18.957-11.391-26.587-31.696-7.631-20.305 1.065-40.827 9.261-20.521 29.066-28.5 19.804-7.978 39.326 2.848 58.217 32.304 104.695 79 46.478 46.695 79.782 105.477 11.392 19.522 4.414 40.327-6.979 20.805-28.066 30.066-20.522 9.261-41.392 1.347-20.87-7.913-32.261-27.435-24.609-41.956-57.195-74.542-32.587-32.587-72.847-56.065Zm-396.696.565q-41.391 24.044-73.978 56.913-32.586 32.869-56.63 73.695-11.391 19.522-31.978 27.435-20.588 7.913-41.11-1.348-21.087-9.261-28.065-30.066-6.979-20.804 4.413-40.326 33.304-57.783 79.5-104.478 46.195-46.695 104.977-79.565 19.522-10.826 39.827-3.348 20.305 7.479 29.566 28 8.695 20.522.565 41.11-8.131 20.587-27.087 31.978ZM151.045-281.087q23.478 40.261 56.064 72.847 32.587 32.587 73.412 56.63 19.522 11.392 28.218 32.261 8.696 20.87-.565 41.392-9.261 21.087-30.066 28.566-20.804 7.478-40.761-3.913-57.782-32.305-104.478-79.5-46.695-47.195-79.565-105.978-11.391-19.522-3.913-39.826 7.479-20.305 28.566-29.566 20.522-8.696 41.109-.565 20.587 8.13 31.979 27.652Zm657.345 1.696q11.392-19.522 31.979-27.935t41.109.283q20.522 9.261 28.5 29.565 7.979 20.305-2.848 39.827-32.304 58.217-78.999 104.695-46.696 46.478-105.478 79.782-19.522 11.392-40.326 4.413-20.805-6.978-30.066-28.065-9.261-20.522-.783-41.109 8.479-20.588 28.001-32.544 40.26-24.044 72.847-56.348 32.586-32.303 56.064-72.564Z"/></svg>