<svg xmlns="http://www.w3.org/2000/svg" height="20" viewBox="0 -960 960 960" width="20"><path d="M443.077-184q-12.031 0-20.169-8.138-8.139-8.139-8.139-20.169v-53.847L297.154-383.769q-8.693-8.692-12.923-19.103Q280-413.282 280-424.769v-149.616q0-14.713 9.269-27.587t27.192-21.567v48.385L118.077-775.307q-5.616-5.616-6-11.27-.385-5.654 6-12.038Q124.462-805 129.731-805t11.654 6.385l655.692 655.692q5.615 5.615 6 10.769.385 5.154-6 11.539-6.385 6.384-11.654 6.384t-11.654-6.384L586.231-307.154l-41 41v53.847q0 12.03-8.139 20.169Q528.954-184 516.923-184h-73.846Zm232.846-180.538L389.846-650.616V-760q0-6.8 4.547-11.4 4.547-4.6 11.269-4.6t11.322 4.6q4.6 4.6 4.6 11.4v128h116.57v-128q0-6.8 4.547-11.4 4.547-4.6 11.27-4.6 6.722 0 11.452 4.6 4.731 4.6 4.731 11.4v156l-18-28h71.231q23.354 0 39.984 16.631Q680-598.739 680-575.385v189.077q0 8.066-3.271 16.101-3.271 8.035-9.267 14.13l8.461-8.461Z"/></svg>