<svg xmlns="http://www.w3.org/2000/svg" height="20" viewBox="0 -960 960 960" width="20"><path d="M450-196q-11.05 0-18.525-7.475Q424-210.95 424-222v-52L308-390q-8-8-12-17.667-4-9.666-4-20.333v-139q0-12.364 8-23.182Q308-601 325-609v32L119-785q-4-4-4.5-7t4.5-8q5-5 7.5-5t7.5 5l664 664q4 4 4.5 6.5T798-122q-5 5-7.5 5t-7.5-5L583-321l-47 47v52q0 11.05-7.475 18.525Q521.05-196 510-196h-60Zm219-169L406-628v-126q0-4.25 2.825-7.125 2.824-2.875 7-2.875 4.175 0 7.044 2.875 2.869 2.875 2.869 7.125v134H534v-134q0-4.25 2.825-7.125 2.824-2.875 7-2.875 4.175 0 7.175 2.875t3 7.125v156l-12-22h74q21.45 0 36.725 15.275Q668-589.45 668-568v190q0 6.286-2.609 12.707Q662.783-358.871 658-354l11-11Z"/></svg>