<svg xmlns="http://www.w3.org/2000/svg" height="24" viewBox="0 -960 960 960" width="24"><path d="M100-100v-40h160v-120H140v-560h320v160q0 33.435 19.962 60.679 19.961 27.244 53.653 36.552L740-505.615V-260H620v120h100q57.692 0 95.769-31.154Q853.846-202.308 860-260h40q-6.154 74.538-55.808 117.269Q794.539-100 720-100H100Zm80-200h520v-174.385l-178.615-50.846q-31.385-9.461-54.924-29.346-23.538-19.884-35.23-50.038H324.615v-30.77h98.616q-2-11.23-2.5-22.692-.5-11.461-.731-26.538h-95.385v-30.77H420V-780H180v480Zm120 160h280v-120H300v120ZM180-300Z"/></svg>