<svg xmlns="http://www.w3.org/2000/svg" height="24" viewBox="0 -960 960 960" width="24"><path d="M74.5-70.913v-91h160v-76.174h-120V-845.5h371V-660q0 25.181 15.424 45.699 15.424 20.518 39.511 27.04l223.152 62.913v286.261H645.5v76.174H720q49.043 0 81.772-32.728Q834.5-227.37 834.5-276.413h91q0 87.065-59.217 146.283Q807.065-70.913 720-70.913H74.5Zm131-258.174h467.087v-125.609l-158.022-46.043q-39.348-11.957-67.065-37.413-27.718-25.457-41.239-59.696h-89.848v-40h81.609q-2-11.043-2.381-18.77-.38-7.727-1.141-19.317h-78.087v-40H394.5V-754.5h-189v425.413Zm120 167.174h229v-76.174h-229v76.174Zm-120-167.174Z"/></svg>