<svg xmlns="http://www.w3.org/2000/svg" height="24" viewBox="0 -960 960 960" width="24"><path d="M90-90V-150h160.001v-100.002h-120v-579.998h339.998V-660q0 30.218 18.231 54.84 18.231 24.622 48.077 32.776l213.692 59.077v263.306h-120v100.002H720q53.846 0 90.385-33.077 36.539-33.077 39.616-86.923h59.998q-3.077 78.769-57.153 129.383Q798.769-90.001 720-90.001H90ZM190-310h500.002v-156.694l-171.308-48.923Q485-525.847 459.731-548.039q-25.269-22.192-38.115-54.269h-99.308v-35.384h91.308q-2-11.615-2.5-21.346t-1.115-23.27h-87.693v-35.384h87.693v-52.309H189.999v460.002Zm120 160h260.002v-100.002H309.999v100.002Zm-120-160Z"/></svg>