<svg xmlns="http://www.w3.org/2000/svg" height="24" viewBox="0 -960 960 960" width="24"><path d="M67-58.52v-106.002h159.999v-70.956h-120v-617.523h386.002V-660q0 22.701 13.956 41.198t35.434 24.367l226.088 65.522v293.435H653.001v70.956H720q47.739 0 77.369-29.63 29.63-29.63 29.63-77.369h106.002q0 92.609-60.196 152.805Q812.609-58.521 720-58.521H67ZM213-341.48h449.476v-107.347l-149.868-44.739q-43.914-13.261-72.61-40.022-28.695-26.761-41.565-61.326h-86.913v-40h78.348q-2-9.739-2.218-17.093-.217-7.354-.652-18.385h-75.478v-40h75.478v-36.608H213.001v405.52Zm120 176.957h213.998v-70.956H333.001v70.956Zm-120-176.957Z"/></svg>