<svg xmlns="http://www.w3.org/2000/svg" height="24" viewBox="0 -960 960 960" width="24"><path d="M186.154-186.154v-40h123.615Q238-288.615 209-349.077q-29-60.461-29-127.846 0-98.154 56.077-176.346Q292.154-731.462 380-762.308v42.462q-71.538 29.615-115.769 96.115Q220-557.231 220-476.923q0 60.923 25.731 112.192 25.731 51.269 91.192 108.885v-121.077h40v190.769H186.154ZM600-180q-40.769 0-70.385-29.615Q500-239.231 500-280q0-40.308 27.231-69.039 27.23-28.73 72.154-30.73Q614.077-415 645.269-437.5 676.462-460 720-460q49.154 0 85.346 32.577 36.193 32.577 41.885 87.423h12.307q33.539 0 57.001 22.846Q940-294.308 940-261q0 33.539-23.231 57.269Q893.539-180 860-180H600Zm136-350.769q-10.077-45.616-33.539-83.692-23.461-38.077-79.384-88.923v120.307h-40v-190.769h190.769v40H650.231Q714-677.385 740.346-629.462q26.346 47.924 35.885 98.693H736ZM600-220h260q16.461 0 28.231-11.769Q900-243.539 900-260q0-16.461-11.769-28.231Q876.461-300 860-300h-50v-30q0-37.461-26.269-63.731Q757.461-420 720-420t-62.577 22.808q-25.115 22.807-26.654 54.884V-340H600q-24.692 0-42.346 17.654Q540-304.692 540-280q0 24.692 17.654 42.346Q575.308-220 600-220Zm120-100Z"/></svg>