<svg xmlns="http://www.w3.org/2000/svg" height="20" viewBox="0 -960 960 960" width="20"><path d="M218-172v-87h42q-43-44-68-99.173Q167-413.347 167-478q0-116.523 75.5-203.261Q318-768 433-789v121q-62 15-105 67t-43 123q0 41.414 16.5 73.707Q318-372 342-346v-38h87v212H218Zm441 34q-58 0-98.5-40.5T520-277q0-54 34.5-92t85.5-44q20-33 54.398-54t77.509-21Q831-488 873.5-455t47.5 78q39 9 66 40t27 78.38q0 49.268-35.6 84.944T893-138H659Zm11-390q-9-28-22.101-49.144Q634.797-598.289 618-614v38h-87v-212h211v87h-42q37 37 58.5 79.5T789-528H670Z"/></svg>