<svg xmlns="http://www.w3.org/2000/svg" height="20" viewBox="0 -960 960 960" width="20"><path d="M218-172v-87h42q-43-44-68-99.357T167-478q0-116.523 75.5-203.261Q318-768 433-789v121q-62 15-105 67t-43 123q0 41.414 16.5 73.707Q318-372 342-346v-38h87v212H218Zm441 34q-57.917 0-98.458-40.542Q520-219.083 520-277q0-54.026 34.5-92.013T640-413q20-33 54.394-54 34.393-21 77.513-21 58.693 0 101.393 33t47.7 78q39 9 66 40t27 78.742q0 48.906-35.6 84.582Q942.8-138 893-138H659Zm11-390q-9-28-22.101-49.144Q634.797-598.289 618-614v38h-87v-212h211v87h-42q37 37 58.5 79.5T789-528H670Zm-11 287h234q8 0 13-5t5-13q0-8-5.7-13t-13.3-5h-68v-55q0-21.957-15.53-37.479Q792.939-385 770.97-385 749-385 734-369.479 719-353.957 719-332v19h-60q-15.3 0-25.65 10.289-10.35 10.29-10.35 25.5Q623-262 633.35-251.5 643.7-241 659-241Zm108-72Z"/></svg>