<svg xmlns="http://www.w3.org/2000/svg" height="20" viewBox="0 -960 960 960" width="20"><path d="M216-192v-72h74q-45-40-71.5-95.673Q192-415.347 192-480q0-100.523 61-177.261Q314-734 408-758v75q-63 23-103.5 77.5T264-480q0 48.414 19.5 89.207Q303-350 336-321v-63h72v192H216Zm420 0q-45 0-76.5-31.5T528-300q0-45 31.5-76.5T636-408q14-31 44.398-51.5 30.398-20.5 68.509-20.5Q797-480 832-449t41 77q36 1 61.5 27.5t25.5 62.88q0 37.268-26.1 63.444Q907.8-192 870-192H636Zm55-336q-8-33-25.101-61.144Q648.797-617.289 624-639v63h-72v-192h192v72h-74q36 32 60.5 74.5T764-528h-73Zm-55 264h234q8 0 13-5t5-13q0-8-5.7-13t-13.3-5h-68v-55q0-21.957-15.53-37.479Q769.939-408 747.97-408 726-408 711-392.479 696-376.957 696-355v19h-60q-15.3 0-25.65 10.289-10.35 10.29-10.35 25.5Q600-285 610.35-274.5 620.7-264 636-264Zm108-72Z"/></svg>