<svg xmlns="http://www.w3.org/2000/svg" height="24" viewBox="0 -960 960 960" width="24"><path d="M778.922-74.463 658.307-195.078q-20.769 13.307-43.769 23.076-22.999 9.769-47.614 16.385v-61.999q12.846-4.615 24.999-9.423 12.154-4.807 23-11.423L471.538-381.847v173.382L300.001-380.001h-148.46v-199.998h121.845L79.848-773.537 122-815.69l699.074 699.074-42.153 42.153Zm-19.539-216.23-42.999-42.998q20.846-32.539 31.847-69.808 11-37.27 11-77.501 0-90.923-52.885-163.384-52.884-72.462-139.422-100v-61.999Q679-776.46 749.114-686.46q70.115 89.999 70.115 205.46 0 52.615-15.654 101.038-15.654 48.423-44.192 89.269Zm-122.461-122.46-69.998-69.999v-145.001q40.461 22 62.537 61.961Q651.538-526.23 651.538-480q0 17.693-3.654 34.5-3.654 16.808-10.962 32.347ZM471.538-578.537l-86.307-86.692 86.307-86.306v172.998ZM411.539-354v-87.846L333.385-520H211.539v80h114l86 86Zm-39.077-126.923Z"/></svg>