<svg xmlns="http://www.w3.org/2000/svg" height="20" viewBox="0 -960 960 960" width="20"><path d="m773.652-71.912-108.13-109.261q-19.739 11.739-47.695 22.826-27.957 11.087-51.696 15.956V-226q7.478-3.304 19.739-8.109 12.26-4.804 19.869-8.543L494.131-355.39v210.175L275.565-363.782H120.26v-230.436h139.13l-188.608-193 56.652-56.653L830.87-129.13l-57.218 57.218Zm8.697-220.87-58.218-59.348q16-28.435 25-60.653 9-32.217 9-66.217 0-88.435-54.065-157.652Q650.001-705.87 566.131-733v-83.609q120.392 23.565 196.718 119.391Q839.175-601.391 839.175-479q0 50.261-14.848 96.891-14.848 46.631-41.978 89.327ZM658.914-417.913l-92.783-93.913v-125.957q47.261 21.131 76.153 64.044 28.891 42.913 28.891 94.739 0 15.696-2.565 31.109-2.565 15.413-9.696 29.978ZM494.131-585.522 381.913-700.567l112.218-112.218v227.263Zm-98.001 204.13v-74.26l-58.434-59.565-18 19H218.261v34.434h97.478l80.391 80.391Zm-29.217-104.043Z"/></svg>