<svg xmlns="http://www.w3.org/2000/svg" height="20" viewBox="0 -960 960 960" width="20"><path d="M480.211-375.521q-20.298 0-34.755-14.307-14.457-14.307-14.457-34.694v-264q0-20.387 14.247-34.694 14.246-14.307 34.543-14.307 20.298 0 34.755 14.307 14.457 14.307 14.457 34.694v264q0 20.387-14.247 34.694-14.246 14.307-34.543 14.307Zm0 153.044q-20.298 0-34.755-14.247-14.457-14.246-14.457-34.544 0-20.297 14.247-34.754 14.246-14.457 34.543-14.457 20.298 0 34.755 14.247 14.457 14.246 14.457 34.543 0 20.298-14.247 34.755-14.246 14.457-34.543 14.457Z"/></svg>