<svg xmlns="http://www.w3.org/2000/svg" height="20" viewBox="0 -960 960 960" width="20"><path d="M304.691-196Q281-196 261.5-205.5 242-215 223-235q-35.941-36.323-55.971-90.614Q147-379.904 147-439q0-67.201 26-126.1 26-58.9 72-103.4 46-44.5 106.458-70 60.459-25.5 129-25.5Q549-764 609-738.5T714.5-669Q760-625 786-566t26 124.797q0 55.381-18.895 107.992-18.895 52.611-51.782 91.254Q720-218 699.438-207q-20.563 11-44.563 11Q643-196 631-199t-23-8l-57-28q-17-8-34-12t-35-4q-21 0-42.231 5T400-231l-48 24q-11 5-22.5 8t-24.809 3ZM304-215q10 0 19.5-2.5T343-225l48-25q20-11 43.162-16T481-271q22 0 41.567 4.286Q542.134-262.429 560-253l56 28q11 5 19.5 7.5T654-215q17 0 34-7.5t34-23.5q35-32 52.5-79.5T792-430q0-132-90.542-223t-221-91Q350-744 258.5-653.211T167-433q0 56 19 104.5t52 81.5q17 17.297 33 24.649Q287-215 304-215Zm176-265Zm.212 82Q500-398 513-411.15q13-13.15 13-32.85 0-9-3.25-17.5T514-477l84-106q18 15 30.375 35.076T649-505h21q-20-63-72.19-102T480-646q-67 0-119 39t-72 102h19.604q19.396-54 66.968-87.5T479.607-626q27.831 0 53.182 8.5Q558.139-609 581-594l-84.849 107Q491-489 488-489.5t-7.805-.5q-19.78 0-32.988 13.212-13.207 13.213-13.207 33Q434-424 447.212-411q13.213 13 33 13Z"/></svg>