<svg xmlns="http://www.w3.org/2000/svg" height="20" viewBox="0 -960 960 960" width="20"><path d="M296.582-111Q256-110 221.5-126.5 187-143 156-178q-44.941-48.323-69.97-116.614Q61-362.904 61-437q0-85.293 33.177-160.31 33.178-75.018 90.268-131.283 57.09-56.264 133.253-88.836Q393.862-850 480.458-850q86.791 0 162.666 32.5Q719-785 775.921-727.884q56.921 57.117 89.5 133.5Q898-518 898-432.203q0 79.41-27.895 148.506-27.895 69.097-77.782 115.74Q761-140 728.31-125.5 695.62-111 661.875-111 642.5-111 622-116t-40-14l-60-29q-11-5-19.842-7.5-8.842-2.5-20-2.5-13.158 0-27.389 3.5t-28.183 10.636l-50.931 24.637Q358-122 338-117t-41.418 6Zm.638-105q8.78 0 16.28-2.5Q321-221 330-225l50-26q23-12 49.129-18 26.129-6 52.838-6 25.033 0 46.6 5.286Q550.134-264.429 570-255l58 30q10 4 16.739 6.5 6.739 2.5 14.978 2.5 13.283 0 27.783-6 14.5-6 30.5-20 36-32 54.5-80.481Q791-370.963 791-428q0-132-90.542-223.5t-220-91.5Q351-743 259.5-652.211T168-432q0 57 18.5 105t52.5 82q16 14.297 29.831 21.649Q282.661-216 297.22-216ZM480-480Zm.212 131Q520-349 547.5-376.65T575-444q0-7.667-1.75-15.333Q571.5-467 569-475l34-41q8 12 12.875 24.609Q620.75-478.783 624-464h108q-17-102-88.19-167.5T480-697q-94 0-165 66t-88 167h107.604q12.396-55 53.468-90.5t91.535-35.5q10.682 0 20.107 1.5Q509.139-587 519-584l-35.849 44q-1.751 0-1.651.5.1.5-1.305.5-39.78 0-67.488 27.712Q385-483.575 385-443.788 385-404 412.712-376.5q27.713 27.5 67.5 27.5Z"/></svg>