<svg xmlns="http://www.w3.org/2000/svg" height="24" viewBox="0 -960 960 960" width="24"><path d="m136.521-205.087-64.13-231.824q-6.392-24.436.804-48.349 7.196-23.914 31.414-32.74l36.173-12.913V-720q0-40.348 29.152-68.935 29.153-28.588 70.066-28.588h100.782v-66.999q0-22.087 15.456-37.544 15.457-15.457 37.544-15.457h172.436q22.087 0 37.544 15.457 15.456 15.457 15.456 37.544v66.999H720q40.913 0 70.066 28.588 29.152 28.587 29.152 68.935v189.087L855.391-518q23.261 8.565 31.218 31.413 7.957 22.849 1 49.676l-64.13 231.824q-46.783 0-86.435-14.087Q697.391-233.261 667.13-255q-11.565-10.435-26.847-10.152Q625-264.87 614-253.87q-28 22.87-62 35.826-34 12.957-72 12.957-10 0-19-.718-9-.717-18-2.717-29-5.435-55-18.456Q362-240 340-258.87q-8.565-8-20.5-8.565Q307.565-268 298.435-260q-31.392 27-76.305 40.956-44.914 13.957-85.609 13.957ZM480-22.477q-41 0-81.5-10t-78.5-30q-38 20-78 30t-82 10h-26.999q-22.088 0-37.544-15.457Q80-53.391 80-75.478q0-22.087 15.457-37.544 15.456-15.457 37.544-15.457H160q35.435 0 71.435-9.717t65.869-28.152q10.566-6.565 22.696-6.565t22.696 6.565q23.13 14 49.934 22.435 26.805 8.434 53.37 11.434 8 1 17 1.5t17 .5q34.87 0 68.891-8.152 34.022-8.152 65.022-26.021 12.261-7.131 26.087-7.131t26.087 7.131q31 18.304 65.022 27.239 34.021 8.934 68.891 8.934h26.999q22.088 0 37.544 15.457Q880-97.565 880-75.478q0 22.087-15.457 37.544-15.456 15.457-37.544 15.457H800q-42 0-82-10t-78-30q-38 20-78.5 30t-81.5 10ZM246.783-563.13l200.869-64.913q15.957-5.131 32.348-5.131t32.348 5.131l200.869 64.913v-148.391H246.783v148.391ZM480-285.087q30 0 56.565-15.087 26.565-15.087 48.261-35.956 23.435-23.174 55.609-24.087 32.174-.913 54.043 22.26 10.435 10.435 21.435 19.522 11 9.087 23.869 16.522l41.739-153.217L480-554.304 176.479-455.13l42.608 152.347q13.565-7.435 24.848-16.435t22.283-20q22.173-22.043 52.586-23.391 30.413-1.348 51.022 21.261 15.13 16.13 32.826 29.913 17.696 13.783 39.391 20.783 9.131 3 18.479 4.282 9.348 1.283 19.478 1.283Zm-1-134.609Z"/></svg>