<svg xmlns="http://www.w3.org/2000/svg" height="20" viewBox="0 -960 960 960" width="20"><path d="m146.521-199.087-57.13-217.824q-11.392-40.436 3.304-73.349 14.696-32.914 47.914-45.74l32.173-11.913V-744q0-37.348 26.652-63.435 26.653-26.088 64.566-26.088h100.782v-46.999q0-20.087 14.456-34.544 14.457-14.457 34.544-14.457h132.436q20.087 0 34.544 14.457 14.456 14.457 14.456 34.544v46.999H696q37.913 0 64.566 26.088 26.652 26.087 26.652 63.435v196.087L819.391-536q28.261 8.565 45.718 41.413 17.457 32.849 5.5 77.676l-57.13 218.824q-41.783-2-77.435-15.587Q700.391-227.261 669.13-243q-9.565-5.435-20.347-4.652Q638-246.87 629-240.87q-33 21.87-70.5 32.826-37.5 10.957-78.5 10.957-8 0-16.5-.218-8.5-.217-16.5-2.217-31-4.435-60.5-14.456Q357-224 331-240.87q-9.565-6-19.5-6.565-9.935-.565-20.065 4.435-32.392 17-70.805 29.456-38.414 12.457-74.109 14.457ZM480-30.477q-49 0-91-9.5t-77-29.5q-35 20-77.5 29.5t-90.5 9.5h1.001q-20.088 0-34.544-14.457Q96-59.391 96-79.478q0-20.087 14.457-34.544 14.456-14.457 34.544-14.457H144q37.435 0 76.435-8.717t70.869-28.152q9.566-5.565 21.196-5.065t20.196 6.065q24.13 15 52.434 22.935 28.305 7.934 56.87 10.934 9 1 18.5 1.5t19.5.5q37.87 0 73.891-8.152 36.022-8.152 70.022-27.021 10.261-6.131 24.087-6.131t24.087 6.131q34 18.304 70.022 26.739 36.021 8.434 73.891 8.434h-1.001q20.088 0 34.544 14.457Q864-99.565 864-79.478q0 20.087-14.457 34.544-14.456 14.457-34.544 14.457H816q-48 0-90.5-9.5t-77.5-29.5q-35 20-77.5 29.5t-90.5 9.5ZM270.783-581.13l176.869-63.913q15.957-6.131 32.348-6.131t32.348 6.131l176.869 64.913v-155.391H270.783v154.391Z"/></svg>