<svg xmlns="http://www.w3.org/2000/svg" height="24" viewBox="0 -960 960 960" width="24"><path d="m741-332.769-261-261v-175L391-681l-28.308-28.308 83.769-81.769q7.462-7.462 16.154-10.808 8.693-3.346 17.385-3.346 8.692 0 17.769 3.346 9.077 3.346 16.539 10.808l164 161Q720.154-589 740.077-538.5 760-488 760-434.462q0 26.462-5.307 54.039-5.308 27.577-13.693 47.654ZM480-160q-116.846 0-198.423-78.808Q200-317.615 200-434.462q0-49.461 17.538-98 17.539-48.538 60.308-93.076L153.23-750.154q-5.615-5.615-6-13.769-.384-8.154 6-14.539 6.385-6.384 14.154-6.384 7.77 0 14.154 6.384l624.616 624.616q5.615 5.615 6 13.769.385 8.154-6 14.539-6.385 6.384-14.154 6.384t-14.154-6.384L669.538-233.846q-41.23 39.462-90.73 56.654Q529.308-160 480-160Zm0-40v-223.154L306.154-597q-37.923 39.692-52.039 79.885Q240-476.923 240-434.462q0 100 70 167.231T480-200Z"/></svg>