<svg xmlns="http://www.w3.org/2000/svg" height="24" viewBox="0 -960 960 960" width="24"><path d="M747.914-177.955H565.22q-20.957 0-35.566-14.609-14.609-14.609-14.609-35.566t14.609-35.565q14.609-14.609 35.566-14.609h182.694l-18.042-18.043q-14.392-14.826-14.609-35.565-.218-20.74 14.609-35.566 14.826-14.826 35.348-14.826t35.348 14.826l101.739 101.739q15.957 16.162 15.957 37.712 0 21.55-15.957 37.506L800.568-88.781q-14.826 14.826-35.348 14.543-20.522-.283-35.348-15.109-14.827-14.826-14.609-35.283.217-20.457 14.609-35.283l18.042-18.042ZM131.172-442.261H87.781q-22.087 0-37.544-15.457-15.457-15.456-15.457-37.544v-43.391q0-22.087 15.457-37.544 15.457-15.457 37.544-15.457h43.391q22.088 0 37.544 15.457 15.457 15.457 15.457 37.544v43.391q0 22.088-15.457 37.544-15.456 15.457-37.544 15.457Zm287.265 0q-61.747 0-105.396-43.649-43.648-43.648-43.648-105.395v-160q0-61.747 43.648-105.395 43.649-43.649 105.396-43.649T523.832-856.7q43.649 43.648 43.649 105.395v160q0 61.747-43.649 105.395-43.648 43.649-105.395 43.649Zm378.088 0q-61.747 0-105.396-43.649-43.648-43.648-43.648-105.395v-160q0-61.747 43.648-105.395 43.649-43.649 105.396-43.649 61.746 0 105.395 43.649 43.649 43.648 43.649 105.395v160q0 61.747-43.649 105.395-43.649 43.649-105.395 43.649ZM418.57-542.61q20.345 0 34.453-14.203 14.109-14.202 14.109-34.492v-160q0-20.29-14.242-34.492Q438.649-800 418.304-800t-34.454 14.203q-14.108 14.202-14.108 34.492v160q0 20.29 14.241 34.492 14.242 14.203 34.587 14.203Zm378.088 0q20.345 0 34.453-14.203 14.109-14.202 14.109-34.492v-160q0-20.29-14.242-34.492Q816.737-800 796.392-800t-34.454 14.203q-14.108 14.202-14.108 34.492v160q0 20.29 14.241 34.492 14.242 14.203 34.587 14.203Z"/></svg>