<svg xmlns="http://www.w3.org/2000/svg" height="24" viewBox="0 -960 960 960" width="24"><path d="M764-161H600q-24 0-41-17t-17-41q0-24 17-41t41-17h164l-5-5q-17-17-17-41t17-41q17-17 41-17t41 17l100 100q19 19.364 19 45.182T941-174L841-74q-17 17-41 16.5T759-75q-17-17-17-40.5t17-40.5l5-5ZM109-444H63q-26 0-44.5-18.5T0-507v-46q0-26 18.5-44.5T63-616h46q26 0 44.5 18.5T172-553v46q0 26-18.5 44.5T109-444Zm339 0q-64.629 0-110.314-45.686Q292-535.371 292-600v-160q0-64.629 45.686-110.314Q383.371-916 448-916q64.629 0 110.314 45.686Q604-824.629 604-760v160q0 64.629-45.686 110.314Q512.629-444 448-444Zm392 0q-64.629 0-110.314-45.686Q684-535.371 684-600v-160q0-64.629 45.686-110.314Q775.371-916 840-916q64.629 0 110.314 45.686Q996-824.629 996-760v160q0 64.629-45.686 110.314Q904.629-444 840-444ZM448.235-560Q465-560 476.5-571.667 488-583.333 488-600v-160q0-16.667-11.735-28.333Q464.529-800 447.765-800 431-800 419.5-788.333 408-776.667 408-760v160q0 16.667 11.735 28.333Q431.471-560 448.235-560Zm392 0Q857-560 868.5-571.667 880-583.333 880-600v-160q0-16.667-11.735-28.333Q856.529-800 839.765-800 823-800 811.5-788.333 800-776.667 800-760v160q0 16.667 11.735 28.333Q823.471-560 840.235-560Z"/></svg>