<svg xmlns="http://www.w3.org/2000/svg" height="20" viewBox="0 -960 960 960" width="20"><path d="M480-360q32 0 55.5-23.5T559-439q0-25-9-47t-36-63l-19-29q-5.357-8-15.179-8Q470-586 465-578l-19 29q-27 42-36 64t-9 46q0 32 23.5 55.5T480-360Zm-.113 120Q380-240 310-310.113t-70-170Q240-580 310.113-650t170-70Q580-720 650-649.887t70 170Q720-380 649.887-310t-170 70ZM840-492v-12h-74q-7-80-53-144t-120-96h247v-12q0-15.3 10.289-25.65 10.29-10.35 25.5-10.35Q891-792 901.5-781.65 912-771.3 912-756v264q0 15.3-10.289 25.65-10.29 10.35-25.5 10.35Q861-456 850.5-466.35 840-476.7 840-492ZM48-204v-264q0-15.3 10.29-25.65Q68.578-504 83.79-504q15.21 0 25.71 10.35T120-468v12h74q7 80 53 144t120 96H120v12q0 15.3-10.289 25.65Q99.421-168 84.211-168 69-168 58.5-178.35 48-188.7 48-204Z"/></svg>