<svg xmlns="http://www.w3.org/2000/svg" height="20" viewBox="0 -960 960 960" width="20"><path d="M480-391.538q-24.308 0-41.654-17.346Q421-426.231 421-450.538q0-17.077 6.692-33.308 6.693-16.231 25.231-44.385l15.154-23.615q4.588-6.462 11.717-6.462 7.129 0 11.36 6.462l15.154 23.615q19.776 28.665 26.234 44.056Q539-468.783 539-450.538q0 24.307-17.346 41.654-17.346 17.346-41.654 17.346ZM140-288h225.153q-32.538-20.769-57.499-50.154-24.962-29.384-39.039-65.846H140v116Zm340.226 0Q560-288 616-344.226t56-136Q672-560 615.774-616t-136-56Q400-672 344-615.774t-56 136Q288-400 344.226-344t136 56Zm211.159-268H820v-116H594.847q32.538 20.769 57.499 50.154 24.962 29.384 39.039 65.846ZM140-256v22.769q0 6.8-4.547 11.4-4.548 4.601-11.27 4.601-6.722 0-11.453-4.601-4.73-4.6-4.73-11.4v-225.538q0-6.8 4.547-11.4 4.547-4.6 11.269-4.6t11.453 4.6q4.731 4.6 4.731 11.4V-436h122.384q-2.974-10.822-4.679-22.104Q256-469.385 256-480q0-93.6 65.2-158.8Q386.4-704 480-704h340v-22.769q0-6.8 4.547-11.4 4.548-4.601 11.27-4.601 6.722 0 11.453 4.601 4.73 4.6 4.73 11.4v225.538q0 6.8-4.547 11.4-4.547 4.6-11.269 4.6t-11.453-4.6q-4.731-4.6-4.731-11.4V-524H697.616q2.974 10.822 4.679 22.104Q704-490.615 704-480q0 93.6-65.2 158.8Q573.6-256 480-256H140Zm0-32v-116 116Zm680-268v-116 116Zm-340 76Z"/></svg>