<svg xmlns="http://www.w3.org/2000/svg" height="20" viewBox="0 -960 960 960" width="20"><path d="M690-136q-93.077 0-191.231-46.769T315.461-315.077q-85.154-85.538-132.307-184.846Q136-599.231 136-691v-38h162.539l34.923 132.308-110.847 103.384q28.385 47.462 57.193 86.693 28.807 39.23 59.027 69.752 30.627 32.632 69.396 60.824 38.769 28.193 91.307 58.577L608-326.769l120 25.23V-136h-38ZM208.846-522.846l89.692-83.769L274.903-697H167.231q.154 38.769 10.307 83.192 10.154 44.423 31.308 90.962Zm325 315.384q26.923 15.539 71.577 26.924 44.654 11.384 90.577 14.076v-110.153l-76.538-16-85.616 85.153Zm-325-315.384Zm325 315.384ZM504-792v-32h320v32H504Zm0 119.385v-32h320v32H504Zm0 119.385v-32.001h320v32.001H504Z"/></svg>