<svg xmlns="http://www.w3.org/2000/svg" height="24" viewBox="0 -960 960 960" width="24"><path d="M757.043-71.87q-125 0-249.054-54.956T282.5-282.859Q181.065-383.935 126.467-506.772 71.869-629.609 71.869-756.804v-51.327h254.175l40.587 212.001-120.696 117.152q20.804 36.608 46.489 69.576 25.685 32.967 55.489 61.772 27.804 27.565 60.033 52.51 32.228 24.946 68.88 46.272L598.804-369.87l209.327 44.109v253.892h-51.088ZM202.435-563.825l65.761-63.848-16.522-89.456h-87.326q4.522 43.326 14.043 81.152 9.522 37.826 24.044 72.152ZM561.391-204.63q38.087 16.282 77.152 26.043 39.066 9.761 78.587 13.239v-86.804l-89.217-18.522-66.522 66.044ZM202.435-563.826ZM561.391-204.63ZM477.13-799.522v-88.609h411.001v88.609H477.13Zm0 162.631V-725.5h411.001v88.609H477.13Zm0 162.63v-88.609h411.001v88.609H477.13Z"/></svg>