<svg xmlns="http://www.w3.org/2000/svg" height="20" viewBox="0 -960 960 960" width="20"><path d="M240.615-268q-24.315 0-40.465-16.164Q184-300.327 184-324.662v-311.003Q184-660 200.15-676t40.465-16h478.77q24.315 0 40.465 16.164Q776-659.673 776-635.338v311.003Q776-300 759.85-284t-40.465 16h-478.77Zm0-32h478.77q9.23 0 16.923-7.692Q744-315.385 744-324.615v-310.77q0-9.23-7.692-16.923Q728.615-660 719.385-660h-478.77q-9.23 0-16.923 7.692Q216-644.615 216-635.385v310.77q0 9.23 7.692 16.923Q231.385-300 240.615-300ZM216-300v-360 360Z"/></svg>