<svg xmlns="http://www.w3.org/2000/svg" height="20" viewBox="0 -960 960 960" width="20"><path d="M535.692-472.308h272.616v-176.615H535.692v176.615ZM672-508.692l-106.462-70.462v-38.385L672-547.077l106.462-70.462v38.385L672-508.692ZM40-199.384v-561.232h880v561.232H40Zm508.196-32.001H888v-497.23H72v497.23h44.615q52-35.23 106.154-57.615 54.154-22.385 112.731-22.385 58.577 0 110.231 22.885 51.654 22.885 102.465 57.115ZM335.91-374.769q41.629 0 70.859-29.141Q436-433.05 436-474.679q0-41.629-29.14-70.86t-70.77-29.231q-41.629 0-70.859 29.141Q236-516.489 236-474.86q0 41.629 29.14 70.86t70.77 29.231ZM185-231.385h299q-33.769-22-71.021-35-37.251-13-77.479-13-40.5 0-79.5 11.5t-71 36.5ZM336-406.77q-28.092 0-48.046-19.953Q268-446.677 268-474.769q0-28.093 19.954-48.046 19.954-19.954 48.046-19.954t48.046 19.954Q404-502.862 404-474.769q0 28.092-19.954 48.046Q364.092-406.77 336-406.77ZM480-480Z"/></svg>