<svg xmlns="http://www.w3.org/2000/svg" height="20" viewBox="0 -960 960 960" width="20"><path d="M365.375-66Q305-66 263.5-108T222-210.429q0-28.848 10.5-55.21Q243-292 264-311l66-66v-95q1-23-6-32t-18-18q-51-41-73.5-82T210-696.27Q210-778 270.75-836 331.5-894 419-894q22 0 39.5 6t33.5 13q6 3 18.5 8t13.5 5q9.5 0 21-13 10.2-7.125 23.6-13.062Q582-894 604-894q60 0 103 43t43 103.169Q750-719 738.5-692 727-665 704-642l-74 74.049V-376l66 65q21.371 19.125 31.686 45.463Q738-239.199 738-210.375 738-150 696-108T593.625-66q-27.824 0-53.662-11.314Q514.125-88.63 493-109q-3-3-5.946-5-2.946-2-7-2-3.054 0-6.554 2-3.5 2-6.5 5-19.125 19.371-45.963 31.186Q394.199-66 365.375-66Z"/></svg>