<svg xmlns="http://www.w3.org/2000/svg" height="24" viewBox="0 -960 960 960" width="24"><path d="M813.131-82.477 36.956-858.652q-13.13-13.131-13.13-31.327 0-18.195 13.13-31.326 13.13-13.13 31.326-13.13 18.196 0 31.327 13.13L875.784-145.13q13.13 13.131 13.13 31.326 0 18.196-13.13 31.327-13.131 13.13-31.327 13.13-18.195 0-31.326-13.13ZM166.783-844.782v99.781q0 22.088-15.457 37.544Q135.87-692 113.782-692q-22.087 0-37.544-15.457-15.456-15.456-15.456-37.544v-100.216q0-22.087 9.326-41.392 9.326-19.304 30.501-33.696l75.522 75.523H166.783Zm626.434 732H693.001q-22.088 0-37.544-15.456Q640-143.695 640-165.782q0-22.088 15.457-37.544 15.456-15.457 37.544-15.457H802.13l73.654 74.653q-20.61 14.392-40.545 22.87-19.935 8.478-42.022 8.478ZM289.392-855.957l-95.827-95.261h74.434q22.088 0 37.044 15.456Q320-920.305 320-898.218q0 14.739-7.826 26.239t-19.739 16.022h-3.043ZM899.218-245l-94.131-94.696v-3.478q6.218-13.044 17.718-20.652 11.5-7.609 23.413-7.609 22.087 0 37.544 15.457 15.456 15.457 15.456 37.544V-245ZM166.783-111.782q-44.305 0-75.153-30.848-30.848-30.848-30.848-75.153v-100.216q0-22.088 15.456-37.544Q91.695-371 113.782-371q22.088 0 37.544 15.457 15.457 15.456 15.457 37.544v100.216h100.216q22.088 0 37.544 15.457Q320-186.87 320-164.782q0 22.087-15.457 37.544-15.456 15.456-37.544 15.456H166.783Zm526.218-732.435q-22.088 0-37.544-15.457Q640-875.13 640-897.218q0-22.087 15.457-37.544 15.456-15.456 37.544-15.456h100.216q44.305 0 75.153 30.848 30.848 30.848 30.848 75.153v100.216q0 22.088-15.456 37.544Q868.305-691 846.218-691q-22.088 0-37.544-15.457-15.457-15.456-15.457-37.544v-100.216H693.001ZM245.87-491q-23.653 0-36.197 20.587-12.543 20.587-4.152 43.675 21.261 57.912 64.305 101.369 43.043 43.456 100.956 65.587 24.217 9.956 45.935-5.5 21.718-15.457 21.718-41.805 0-17.392-10.413-31.153t-26.109-21.022q-30.522-13.869-54.521-37.217-24-23.347-37.435-54.303-8.391-18.392-25.978-29.305Q266.391-491 245.87-491Zm469.26-80q23.653 0 35.914-20.587 12.261-20.587 3.869-43.675-21.261-57.912-64.239-101.369-42.978-43.456-100.89-65.587-24.218-9.956-45.718 5.5-21.501 15.457-21.501 41.805 0 17.392 10.413 31.153t26.109 21.022q30.522 13.869 54.521 37.217 24 23.347 37.435 54.303 8.391 18.392 25.978 29.305Q694.609-571 715.13-571Zm-467.695 0q-23.653 0-35.914-20.587-12.261-20.587-3.869-43.675 10.565-29.173 28.413-54.695 17.848-25.522 47.5-47.391l71.262 71.261q-16.131 11.739-26.217 25.565-10.087 13.826-17.087 29.304-8.392 18.392-25.979 29.305T247.435-571ZM624-396.913l71.262 71.261q-24.696 21.304-50.783 37.804-26.087 16.5-55.261 28.066-24.217 9.956-45.435-5.5-21.218-15.457-21.218-41.805 0-17.392 10.196-31.153t25.891-21.022q15.478-7.434 30.652-16.739 15.174-9.304 34.696-20.912ZM423.262-722.087l-70.871-70.74q5.348-2.174 10.196-4.413 4.847-2.239 10.195-3.978Q396.999-811.74 418.5-796q21.5 15.739 21.5 42.087 0 9.478-4.478 18.152-4.478 8.674-12.26 13.674ZM715.13-490q23.653 0 36.414 20.587 12.761 20.587 3.369 43.675-1.869 5.912-4.108 11.825-2.239 5.913-5.413 11.826l-70.174-70.044q7.261-8.348 17.782-13.108Q703.522-490 715.13-490Z"/></svg>