<svg xmlns="http://www.w3.org/2000/svg" height="20" viewBox="0 -960 960 960" width="20"><path d="m363-310.37 117-116 117 117L650.63-363l-117-117 117-117L597-650.63l-117 117-117-117L309.37-597l117 117-117 116L363-310.37Zm-144.13 91.5v-522.26 522.26Zm-83.001 83.001v-688.262h688.262v403.109q-20.631-4.956-41.501-5.576-20.869-.619-41.5 2.337V-741.13H218.87v522.26h313.043q-3.674 20.631-3.533 41.381.142 20.75 4.62 41.62H135.869ZM776.261-33.891l-55.304-55.304 52.891-53.892H626.152v-78.217h147.696l-52.891-53.891 55.304-55.305 145.304 148.305L776.261-33.891Z"/></svg>