<svg xmlns="http://www.w3.org/2000/svg" height="20" viewBox="0 -960 960 960" width="20"><path d="m363-306.782 117-116 117 117L654.218-363l-117-117 117-117L597-654.218l-117 117-117-117L305.782-597l117 117-117 116L363-306.782Zm-140.217 83.999v-514.434 514.434Zm-98.001 98.001v-710.436h710.436v422.349q-24.217-6.261-49-7.043-24.783-.783-49.001 3.478v-320.783H222.783v514.434h311.739q-5.957 24.218-6.305 48.718-.347 24.5 4.783 49.283H124.782ZM783.435-14.65l-61.174-61.175 48.652-49.652H629.087v-86.696h141.826l-48.652-49.652 61.174-61.174L934.61-168.825 783.435-14.651Z"/></svg>