<svg xmlns="http://www.w3.org/2000/svg" height="24" viewBox="0 -960 960 960" width="24"><path d="m740.696-366-58-58q11.761-11 18.261-25.5t6.5-30.5q0-16-6.5-30.5T682.696-536l58-58q23 23 34.88 52.5 11.881 29.5 11.881 61.5t-11.939 61.5Q763.579-389 740.696-366Zm98 98-56-56q31-31 48-71t17-85q0-45-17-85t-48-71l56-56q43 42 66 97t23 115q0 60-23 115t-66 97ZM192.587-32.587v-894.826h574.826V-680h-91v-36.413H283.587v472.826h392.826V-280h91v247.413H192.587Zm91-131v40h392.826v-40H283.587Zm0-632.826h392.826v-40H283.587v40Zm0 0v-40 40Zm0 632.826v40-40Z"/></svg>