<svg xmlns="http://www.w3.org/2000/svg" height="20" viewBox="0 -960 960 960" width="20"><path d="m684.696-378-51-51q9.841-10.018 15.301-23.223 5.46-13.206 5.46-27.777 0-14.571-5.46-27.777-5.46-13.205-15.301-23.223l51-51q20 20 30.88 46 10.881 26 10.881 56t-10.939 56q-10.939 26-30.822 46Zm102 102-51-51q29-29 46-68.68 17-39.68 17-84.32 0-44.64-17-84.32-17-39.68-46-68.68l51-51q39 39 61.5 91.5t22.5 112.5q0 60-22.5 112.5t-61.5 91.5ZM184.587-40.587v-878.826h590.826V-672h-83v-44.413H267.587v472.826h424.826V-288h83v247.413H184.587Z"/></svg>