<svg xmlns="http://www.w3.org/2000/svg" height="24" viewBox="0 -960 960 960" width="24"><path d="M425-169v-622h110v622H425ZM9-274v-46q0-30 17-56t46-39q27-13 57.5-19t62.5-6q32 0 63 6t58 19q29.102 13 45.551 39T375-320v46H9Zm576 0v-46q0-30 16.449-56T647-415q27-13 58-19t63-6q32 0 62.5 6t57.5 19q29 13 46 39t17 56v46H585ZM192.345-472Q150-472 119.5-502.363t-30.5-73Q89-618 119.363-648t73-30Q235-678 265-647.845t30 72.5Q295-533 264.845-502.5t-72.5 30.5Zm576 0Q726-472 695.5-502.363t-30.5-73Q665-618 695.363-648t73-30Q811-678 841-647.845t30 72.5Q871-533 840.845-502.5t-72.5 30.5Z"/></svg>