<svg xmlns="http://www.w3.org/2000/svg" height="20" viewBox="0 -960 960 960" width="20"><path d="M464-260v-440h32v440h-32ZM68-356v-16.846q0-15.077 8.923-26.039 8.923-10.961 22.953-17.701 20.509-9.953 43.84-14.683Q167.047-436 191.87-436q24.822 0 48.068 4.709 23.245 4.709 44.37 14.752 13.846 6.693 22.769 17.654Q316-387.923 316-372.846V-356H68Zm576 0v-16.846q0-15.077 8.923-26.039 8.923-10.961 22.953-17.701 20.509-9.953 43.84-14.683Q743.047-436 767.87-436q24.822 0 48.068 4.709 23.245 4.709 44.37 14.752 13.846 6.693 22.769 17.654Q892-387.923 892-372.846V-356H644ZM191.788-500q-22.096 0-36.942-15.058Q140-530.117 140-552.212q0-22.096 15.058-36.942Q170.117-604 192.212-604q22.096 0 36.942 15.058Q244-573.883 244-551.788q0 22.096-15.058 36.942Q213.883-500 191.788-500Zm576 0q-22.096 0-36.942-15.058Q716-530.117 716-552.212q0-22.096 15.058-36.942Q746.117-604 768.212-604q22.096 0 36.942 15.058Q820-573.883 820-551.788q0 22.096-15.058 36.942Q789.883-500 767.788-500Z"/></svg>