<svg xmlns="http://www.w3.org/2000/svg" height="20" viewBox="0 -960 960 960" width="20"><path d="M244-436q-19 0-31.5-12.5T200-480q0-19 12.5-31.5T244-524v-144h192q0-19 12.5-31.5T480-712q19 0 31.5 12.5T524-668h192v144q19 0 31.5 12.5T760-480q0 19-12.5 31.5T716-436v240H244v-240Zm115.882-46q9.118 0 15.618-6.382 6.5-6.383 6.5-15.5 0-9.118-6.382-15.618-6.383-6.5-15.5-6.5-9.118 0-15.618 6.382-6.5 6.383-6.5 15.5 0 9.118 6.382 15.618 6.383 6.5 15.5 6.5Zm228 0q9.118 0 15.618-6.382 6.5-6.383 6.5-15.5 0-9.118-6.382-15.618-6.383-6.5-15.5-6.5-9.118 0-15.618 6.382-6.5 6.383-6.5 15.5 0 9.118 6.382 15.618 6.383 6.5 15.5 6.5ZM362-338h236v-20H362v20Z"/></svg>