<svg xmlns="http://www.w3.org/2000/svg" height="24" viewBox="0 -960 960 960" width="24"><path d="M200-400q-33.846 0-56.923-23.077Q120-446.154 120-480q0-33.846 23.077-56.923Q166.154-560 200-560v-160h200q0-33.846 23.077-56.923Q446.154-800 480-800q33.846 0 56.923 23.077Q560-753.846 560-720h200v160q33.846 0 56.923 23.077Q840-513.846 840-480q0 33.846-23.077 56.923Q793.846-400 760-400v240H200v-240Zm159.91-60q16.629 0 28.359-11.64Q400-483.28 400-499.91q0-16.629-11.64-28.359Q376.72-540 360.09-540q-16.629 0-28.359 11.64Q320-516.719 320-500.09q0 16.629 11.64 28.359Q343.28-460 359.91-460Zm239.999 0q16.63 0 28.36-11.64Q640-483.28 640-499.91q0-16.629-11.64-28.359Q616.719-540 600.091-540q-16.63 0-28.36 11.64Q560-516.719 560-500.09q0 16.629 11.64 28.359Q583.281-460 599.909-460ZM340-300h280v-40H340v40ZM240-200h480v-480H240v480Zm240-240Z"/></svg>