<svg xmlns="http://www.w3.org/2000/svg" height="24" viewBox="0 -960 960 960" width="24"><path d="m533.001-501.087 116.043 116.043q14.957 14.957 14.957 37.044 0 22.087-14.957 37.044-14.957 14.957-37.044 14.957-22.087 0-37.044-14.957L442.391-443.521q-7.696-7.696-11.544-17.174-3.848-9.479-3.848-20.305v-159q0-22.087 15.457-37.544 15.457-15.457 37.544-15.457 22.087 0 37.544 15.457 15.457 15.457 15.457 37.544v138.913ZM97.043-307.391q-14.13-31.261-22.696-64.804Q65.782-405.739 62.782-440h107.001q2.435 20.435 7.652 40.304 5.217 19.87 13.217 39.305l-93.61 53ZM62.782-520q3-34.826 11.847-68.305 8.848-33.478 23.414-65.304l92.609 53q-8 19.435-13.217 39.587-5.217 20.152-7.652 41.022H62.782Zm174.044 382.957q-29.261-21.13-53.957-46.326t-45.826-54.457l93.175-53.565q12.869 17.434 27.804 32.652 14.935 15.217 32.369 28.087l-53.565 93.609Zm-6.174-532.566-93.609-53.565q21.13-29.261 45.826-53.957t53.957-45.826l53.565 93.609q-17 12.87-31.934 27.805-14.935 14.934-27.805 31.934ZM440-62.782q-34.826-3-68.305-11.847-33.478-8.848-65.304-23.414l53-93.175q19.435 8 39.587 13.5 20.152 5.5 41.022 7.935v107.001Zm-80.609-706-53-93.175q31.826-14.566 65.304-23.413 33.479-8.848 68.305-11.848v107.001q-20.87 2.435-41.022 7.935-20.152 5.5-39.587 13.5ZM520-62.782v-107.001q20.87-2.435 41.022-7.935 20.152-5.5 39.587-13.5l53 93.175q-31.826 14.566-65.304 23.414Q554.826-65.782 520-62.782Zm80.609-706q-19.435-8-39.587-13.5-20.152-5.5-41.022-7.935v-107.001q34.826 3 68.305 11.848 33.478 8.847 65.304 23.413l-53 93.175Zm122.565 631.739-53.565-93.609q17-12.87 31.934-27.805 14.935-14.934 27.805-31.934l93.609 53.565q-21.13 29.261-45.826 54.175-24.696 24.913-53.957 45.608Zm5.608-533.131q-12.869-16.435-27.804-31.369-14.935-14.935-31.369-27.805l53.565-93.609q29.261 20.13 53.675 45.391 24.413 25.261 45.108 53.957l-93.175 53.435ZM790.217-520q-2.435-20.87-7.935-41.304-5.5-20.435-13.5-39.87l93.175-53.435q14.131 32.261 22.913 66.022 8.783 33.761 12.348 68.587H790.217Zm71.74 213.609-92.609-53q8-19.435 13.217-39.587 5.217-20.152 7.652-41.022h107.001q-3 34.826-11.848 68.305-8.847 33.478-23.413 65.304Z"/></svg>