<svg xmlns="http://www.w3.org/2000/svg" height="20" viewBox="0 -960 960 960" width="20"><path d="M480-148q-88.586 0-150.293-61.807Q268-271.614 268-360.342q0-73.658 45.85-131.325Q359.7-549.333 434-567v-257q0-5.2 3.625-9.6Q441.25-838 448-838h64q5.2 0 9.6 4.4 4.4 4.4 4.4 9.6v257q73 18 119.5 75.5T692-360.342q0 88.728-62.086 150.535Q567.829-148 480-148Zm.226-20Q560-168 616-223.746q56-55.745 56-136.48Q672-440 615.766-496t-136.02-56Q399-552 343.5-495.766 288-439.532 288-359.746 288-279 343.746-223.5q55.745 55.5 136.48 55.5Z"/></svg>