<svg xmlns="http://www.w3.org/2000/svg" height="24" viewBox="0 -960 960 960" width="24"><path d="M284-284v-392h392v392H284Zm126-126h140v-140H410v140ZM284-86v-118h76v118h-76Zm0-670v-118h76v118h-76ZM440-86v-118h80v118h-80Zm0-670v-118h80v118h-80ZM600-86v-118h76v118h-76Zm0-670v-118h76v118h-76Zm-514 0v-118h118v118H86ZM204-86H86v-118h118v118Zm552 0v-118h118v118H756Zm118-670H756v-118h118v118ZM86-284v-76h118v76H86Zm0-156v-80h118v80H86Zm0-160v-76h118v76H86Zm670 316v-76h118v76H756Zm0-156v-80h118v80H756Zm0-160v-76h118v76H756Z"/></svg>