<svg xmlns="http://www.w3.org/2000/svg" height="24" viewBox="0 -960 960 960" width="24"><path d="M661.523-443.478 319.826-786.61l95.347-73.478q29.348-22.087 65.11-22.087 35.761 0 64.544 22.087l218.695 170.521q41.174 31.914 41.174 83.349 0 51.436-41.174 83.349l-101.999 79.391ZM795.176-311.39l-76.653-76.088 34.868-26.26q14.392-10.827 32.414-10.827 18.022 0 32.413 11.392 21.088 15.957 20.805 41.674-.283 25.718-20.805 41.675l-23.042 18.434Zm-40.22 209.086L654.61-202.085l-109.783 85.087Q516.044-94.911 480-95.193q-36.044-.283-64.827-22.37L142.912-328.694q-21.087-15.956-20.587-41.674t21.022-42.24q14.391-11.391 32.479-11.391 18.087 0 32.478 11.391L480-201.912l98.522-75.826-69.435-68h28.435l-1.739.869q-24.826 18.696-55.5 18.913-30.674.218-55.501-19.043L178.955-536.435q-34.391-26.826-34.674-70.065-.282-43.24 34.109-70.066l.87-.869-98.651-98.217q-13.131-13.13-13.348-31.326-.218-18.196 12.913-31.326 13.13-13.131 31.326-13.131 18.196 0 31.326 13.131l674.348 674.347q12.696 12.696 12.696 30.827 0 18.13-12.696 30.826-12.696 12.695-31.109 12.695-18.413 0-31.109-12.695Z"/></svg>