<svg xmlns="http://www.w3.org/2000/svg" height="20" viewBox="0 -960 960 960" width="20"><path d="m577-469-15-13 104-83q13-10 13-25t-13-25L500-748q-8-7-19.5-7t-20.5 7l-91 73-15-13 93-75q15.263-12 33.132-12Q498-775 513-763l167 131q20 15.647 20 41.323Q700-565 680-549l-103 80Zm71 72-14-14 77-60q3-3 6.5-2.5t6.278 3.1q3.222 4.4 2.722 8.606-.5 4.206-3.5 6.794l-75 58Zm131 263L574-338l-61 49q-15.263 12-33.132 12Q462-277 447-289L237-455q-3-3-4-7t2.5-8q2.969-3 6.75-3t6.75 3l211 165q9 7 20 7t20-7l60-48-67-71h27l-7 8q-15 11-33 10.5T448-418L277-552q-20-15-19-39t19-39l3-2-165.282-167.108Q112-802 112-805q0-3 4-7t7.167-4q3.166 0 6.833 4l664 664q4 4 4.5 6.5T794-134q-5 5-7.5 5t-7.5-5ZM466-579Z"/></svg>