<svg xmlns="http://www.w3.org/2000/svg" height="24" viewBox="0 -960 960 960" width="24"><path d="M602.462-458.769 343.846-716.308l96.385-74.923q18.154-13.923 39.769-13.923t39.769 13.923L709.77-643.769q24.846 19.384 24.846 51.077 0 31.692-24.846 51.077l-107.308 82.846ZM689-372.461l-28.769-28.77 70.538-53.923q5.616-4.154 12.577-4.154 6.962 0 12.577 4.154 7.539 6.616 7.154 16.116-.384 9.5-7.923 15.346L689-372.461ZM791.692-99.385 593.539-297.538l-73.77 56.923Q501.615-226.692 480-226.692t-39.769-13.923L204.846-423.692q-7.539-5.846-7.808-15.346-.269-9.5 7.269-16.116 5.616-4.154 12.462-4.154t12.462 4.154l235.384 182.077q6.924 5.385 15.385 5.385 8.461 0 15.385-5.385L564-326.846l-69.231-68.769H523l-3.231 2.769Q501.615-379.692 480-379.577q-21.615.116-39-13.807l-193.077-149.77q-24.846-18.615-24.462-49.538.385-30.923 24.462-49.539l.461-.461L84-806.846q-5.846-5.846-6.346-13.885-.5-8.038 6.115-14.654Q90.385-842 98.04-842q7.653 0 14.269 6.615L820-127.693q5.615 5.616 6 13.77.385 8.154-6 14.538Q813.615-93 805.846-93t-14.154-6.385Z"/></svg>