<svg xmlns="http://www.w3.org/2000/svg" height="24" viewBox="0 -960 960 960" width="24"><path d="M675-440 312-804l91-70q35-26 77.5-26t76.5 26l210 164q49 38 49 99t-49 99l-92 72Zm148 146-91-90 24-18q17-13 38.5-13t38.5 14q25 19 24.5 49.5T833-302l-10 8Zm-75 193-76-75-115 89q-34 26-77 25.5T403-88L129-300q-25-19-24.5-49.5T129-400q17-14 39-14t39 14l273 212 102-78-69-68h28q-27 20-60.5 20T420-335L162-536q-37-29-37.5-75.5T161-687l-83-83q-14-14-14-33.5T78-837q14-14 33.5-14t33.5 14l670 670q14 14 14 33t-14 33q-14 14-33.5 14T748-101Z"/></svg>