<svg xmlns="http://www.w3.org/2000/svg" height="24" viewBox="0 -960 960 960" width="24"><path d="m590-462-20-20 107-83q13-10 13-25t-13-25L500-753q-8-7-19.5-7t-20.5 7l-92 71-20-20 95-74q17-13 37-13t37 13l178 138q23 18 23 47.5T695-543l-105 81Zm78 78-20-20 77-59q4-3 9-3t9 3q5 5 4.5 11.5T742-441l-74 57ZM800-98 582-316l-65 50q-17 13-37 13t-37-13L218-441q-5-4-5.5-10.5T217-463q4-3 9-3t9 3l225 174q9 7 20 7t20-7l61-48-69-69h28l-3 3q-17 12-37 12t-36-13L262-545q-23-17-22.5-45.5T262-636L84-814q-4-4-4.5-9.5T84-834q5-5 10-5t10 5l716 716q4 4 4.5 9.5T820-98q-5 5-10 5t-10-5ZM469-582Z"/></svg>