<svg xmlns="http://www.w3.org/2000/svg" height="24" viewBox="0 -960 960 960" width="24"><path d="M246.846-192.846q-6.615 6.615-15.154 5.846-8.538-.769-14.923-7.615-45-49.154-70.885-111.308Q120-368.077 120-440q0-74.539 28.423-140.231t77.038-114.308q48.616-48.615 114.308-77.038Q405.461-800 480-800t140.231 28.423q65.692 28.423 114.308 77.038 48.615 48.616 77.038 114.308Q840-514.539 840-440q0 71.154-25.884 133.692-25.885 62.539-70.885 111.693-6.385 6.846-14.808 7.731-8.423.884-15.038-5.731Q707-199 708.154-207.923t7.538-15.769q39.385-42.77 61.846-97.847Q800-376.615 800-440q0-134-93-227t-227-93q-134 0-227 93t-93 227q0 63.385 22.077 118.346 22.077 54.962 62.461 97.731 6.385 6.846 7.654 15.654 1.269 8.808-5.346 15.423Zm113-113q-6.615 6.615-14.769 6.346-8.154-.269-14.308-7.346Q307-334 293.5-367.538 280-401.077 280-440q0-83.077 58.461-141.539Q396.923-640 480-640q83.077 0 141.539 58.461Q680-523.077 680-440q0 38.154-13.5 72.192-13.5 34.039-37.269 60.962-6.154 6.846-14.308 7.346t-14.769-6.115q-6.385-6.385-6.115-14.154.269-7.77 5.653-14.846 18.385-21.539 29.346-48.27Q640-409.615 640-440q0-66-47-113t-113-47q-66 0-113 47t-47 113q0 30.615 10.962 57.231 10.961 26.615 29.346 48.154 5.384 7.076 5.653 14.73.27 7.654-6.115 14.039ZM480-400q-16.077 0-28.039-11.961Q440-423.923 440-440t11.961-28.039Q463.923-480 480-480t28.039 11.961Q520-456.077 520-440t-11.961 28.039Q496.077-400 480-400Z"/></svg>