<svg xmlns="http://www.w3.org/2000/svg" height="24" viewBox="0 -960 960 960" width="24"><path d="m440.308-370.923 123.154-138.462q.23-.23 4.23-10.817v-13.029q0-7.667-5.012-12.679-5.013-5.013-12.68-5.013H410q-7.667 0-12.68 5.002-5.012 5.003-5.012 12.654 0 7.652 5.012 12.69 5.013 5.039 12.68 5.039h111.692L396.538-375.077q-.23.231-4.23 10.638v11.208q0 7.667 5.012 12.68 5.013 5.013 12.68 5.013h140q7.667 0 12.68-5.003 5.012-5.003 5.012-12.654t-5.012-12.69q-5.013-5.038-12.68-5.038H440.308ZM480.044-120q-66.583 0-124.775-25.038-58.192-25.039-101.692-68.539-43.5-43.5-68.539-101.648Q160-373.374 160-439.956q0-66.583 25.038-124.775 25.039-58.192 68.539-101.692 43.5-43.5 101.648-68.539Q413.374-760 479.956-760q66.583 0 124.775 25.038 58.192 25.039 101.692 68.539 43.5 43.5 68.539 101.648Q800-506.626 800-440.044q0 66.583-25.038 124.775-25.039 58.192-68.539 101.692-43.5 43.5-101.648 68.539Q546.626-120 480.044-120ZM480-440ZM111.231-669.538q-6.385-6.385-6.385-14.154 0-7.77 6.385-14.154l110.923-110.923q5.615-5.616 13.769-6 8.154-.385 14.539 6 6.384 6.384 6.384 14.154 0 7.769-6.384 14.153L139.538-669.538q-5.615 5.615-13.769 6-8.154.384-14.538-6Zm737.538 0q-6.384 6.384-14.154 6.384-7.769 0-14.153-6.384L709.538-780.462q-5.615-5.615-6-13.769-.384-8.154 6-14.538 6.385-6.385 14.154-6.385 7.77 0 14.154 6.385l110.923 110.923q5.616 5.615 6 13.769.385 8.154-6 14.539ZM480-160q116.231 0 198.115-81.885Q760-323.769 760-440q0-116.231-81.885-198.115Q596.231-720 480-720q-116.231 0-198.115 81.885Q200-556.231 200-440q0 116.231 81.885 198.115Q363.769-160 480-160Z"/></svg>