<svg xmlns="http://www.w3.org/2000/svg" height="20" viewBox="0 -960 960 960" width="20"><path d="M755-86 487-354q-32 52-86.5 83T280-240q-100 0-170-70T40-480q0-66 31-119.5t85-86.5l-71-71q-12-12-12-29t12-29q12-12 30-12t30 12l669 670q12 12 12 29.5T814-86q-12 12-29.5 12T755-86Zm188-394q0 8-3.5 16t-9.5 14L806-326q-6 6-13 9t-14 3q-5-1-9-1t-7-1l-76-77-17-16-16-17 46-34 72 54 75-74-39-39H560l-84-84h344q8 0 15.5 3t13.5 9l81 81q6 6 9.5 14t3.5 16ZM280-324q51 0 89.5-26.5T425-417l-54.5-54.5L322-520l-48.5-48.5L219-623q-44 18-69.5 58T124-480q0 65 45.5 110.5T280-324Zm0-74q-34 0-58-24t-24-58q0-34 24-58t58-24q34 0 58 24t24 58q0 34-24 58t-58 24Z"/></svg>