<svg xmlns="http://www.w3.org/2000/svg" height="20" viewBox="0 -960 960 960" width="20"><path d="M504-767.788Q504-738 482.85-717 461.7-696 432-696q-10 0-20-3t-18-8q-23 5-41 20.5T328-648h445.063Q790-648 800.5-635.5T808-606l-35 192q-1.75 13.235-11.812 21.618Q751.125-384 738-384h-61l7.583-60.229Q690-487 661.5-519.5T589-552H371q-44 0-72.5 32.5t-23.083 75.271L283-384h-61.241q-12.759 0-22.879-8.382Q188.76-400.765 187-414l-35-192q-3-17 7.659-29.5Q170.317-648 187-648h67q7-44 35.5-77t70.5-47q2-29 22.5-48.5t49.078-19.5Q462-840 483-818.788q21 21.213 21 51ZM389-168h182q14.4 0 24.3-8.889T607-200l29.538-249.919Q639-472 625.256-488q-13.743-16-36.322-16H371q-22.531 0-36.265 16.2Q321-471.6 323-450l30 250q1.8 14.222 11.7 23.111Q374.6-168 389-168Z"/></svg>