<svg xmlns="http://www.w3.org/2000/svg" height="20" viewBox="0 -960 960 960" width="20"><path d="M62-720v-226h226v118H180v108H62Zm226 610H62v-226h118v108h108v118Zm492-610v-108H672v-118h226v226H780ZM524.752-615Q483-615 454-644.448q-29-29.448-29-70.8Q425-757 454.448-785.5q29.448-28.5 70.8-28.5Q567-814 595.5-785.252q28.5 28.748 28.5 70.5Q624-673 595.252-644q-28.748 29-70.5 29ZM334-291l32-162-53 23v101H210v-170l171-67q22-8 39.553-16 17.553-8 38.447-8 28 0 52 14.5t39 37.5l37 56q7 10 16 20t18 16l-46 84q-12-7-23-17t-19-21l-20 109H334ZM454-62l290-498 290 498H454Zm290-70q15.6 0 27.3-11.7Q783-155.4 783-171q0-15.6-11.7-27.3Q759.6-210 744-210q-15.6 0-27.3 11.7Q705-186.6 705-171q0 15.6 11.7 27.3Q728.4-132 744-132Zm-39-128h78v-104h-78v104Z"/></svg>