<svg xmlns="http://www.w3.org/2000/svg" height="24" viewBox="0 -960 960 960" width="24"><path d="M120-720v-160h160v40H160v120h-40Zm160 560H120v-160h40v120h120v40Zm520-560v-120H680v-40h160v160h-40Zm-260 87.692q-28.385 0-48.039-19.653-19.653-19.654-19.653-48.039t19.653-48.039q19.654-19.653 48.039-19.653t48.039 19.653q19.653 19.654 19.653 48.039t-19.653 48.039Q568.385-632.308 540-632.308ZM376.615-304.615l41.539-213.231L300-469.077V-340h-40v-155.692l159.538-66.462q25.77-10.385 37.977-14.115Q469.722-580 480.079-580q15.536 0 28.921 8.308 13.385 8.307 22.077 22.461l40 64q9.462 14.692 20.834 28.376 11.372 13.684 26.243 25.009l-21 34.077q-18.539-14.846-35.577-34.115-17.038-19.27-31.577-42.731l-33.385 170h-120ZM549.461-120l195.924-341 195.154 341H549.461Zm195.154-24.615q6.154 0 10.77-4.616Q760-153.846 760-160t-4.615-10.769q-4.616-4.616-10.77-4.616-6.153 0-10.769 4.616-4.615 4.615-4.615 10.769t4.615 10.769q4.616 4.616 10.769 4.616Zm-15.384-80H760v-150.77h-30.769v150.77Z"/></svg>