<svg xmlns="http://www.w3.org/2000/svg" height="24" viewBox="0 -960 960 960" width="24"><path d="M100.001-720v-179.999H280V-840H160v120h-59.999ZM280-140.001H100.001V-320H160v120h120v59.999ZM800-720v-120H680v-59.999h179.999V-720H800Zm-260 93.846q-30.692 0-52.269-21.577-21.577-21.577-21.577-52.269 0-30.692 21.577-52.269 21.577-21.577 52.269-21.577 30.692 0 52.269 21.577 21.577 21.577 21.577 52.269 0 30.692-21.577 52.269-21.577 21.577-52.269 21.577ZM364.309-292.309l40.769-208.615-95.079 38.385v132.538h-59.998v-171.845l158.769-67.23q30.384-12.693 44.738-16.808 14.353-4.115 26.532-4.115 18.267 0 33.96 9.653 15.692 9.654 25.538 25.731l40 64q10.231 15.846 22.417 29.938 12.186 14.092 28.121 25.754l-30.999 52.537q-17.77-12.923-34.039-29.308Q548.769-428.079 535-447.31l-30.693 155.001H364.309Zm175.922 192.308 212.461-370.998 212.075 370.998H540.231Zm212.076-32.308q7.077 0 12.385-5.307 5.307-5.308 5.307-12.385t-5.307-12.384q-5.308-5.308-12.385-5.308t-12.384 5.308q-5.308 5.307-5.308 12.384t5.308 12.385q5.307 5.307 12.384 5.307Zm-17.692-80h35.384v-155.384h-35.384v155.384Z"/></svg>