<svg xmlns="http://www.w3.org/2000/svg" height="20" viewBox="0 -960 960 960" width="20"><path d="M148-720v-140h140v20H168v120h-20Zm140 524H148v-140h20v120h120v20Zm504-524v-120H672v-20h140v140h-20ZM527.752-616Q499-616 479.5-635.748q-19.5-19.748-19.5-48.5t19.748-48.252q19.748-19.5 48.5-19.5t48.252 19.748q19.5 19.748 19.5 48.5T576.252-635.5q-19.748 19.5-48.5 19.5ZM386-320l39-200-139 61v97h-20v-112l154-62q7-2 17.919-8t26.184-6Q480-550 496-542q16 8 25 23l35 56q8 13 18.384 24.439Q584.767-427.122 599-419l-5 9q-23-17-42.5-40T516-503l-35 183h-95Zm132 172 207-350 206 350H518Zm206-52q7.2 0 12.6-5.4 5.4-5.4 5.4-12.6 0-7.2-5.4-12.6-5.4-5.4-12.6-5.4-7.2 0-12.6 5.4-5.4 5.4-5.4 12.6 0 7.2 5.4 12.6 5.4 5.4 12.6 5.4Zm-18-96h36v-84h-36v84Z"/></svg>