<svg xmlns="http://www.w3.org/2000/svg" height="20" viewBox="0 -960 960 960" width="20"><path d="M116.001-720v-171.999H288V-840H168v120h-51.999ZM288-164.001H116.001V-336H168v120h120v51.999ZM792-720v-120H672v-51.999h171.999V-720H792ZM527.752-606.154q-32.444 0-55.021-22.825-22.577-22.824-22.577-55.269 0-32.444 22.825-55.021 22.824-22.577 55.269-22.577 32.444 0 55.021 22.825 22.577 22.824 22.577 55.269 0 32.444-22.825 55.021-22.824 22.577-55.269 22.577ZM366.309-300.309l37.769-192.615-102.079 44.385v102.538h-51.998v-137.845l152.769-63.23q14.384-5.693 28.738-12.308 14.353-6.615 32.532-6.615 20.267 0 39.96 10.153 19.692 10.154 30.538 28.231l35 56q9.231 14.846 20.917 26.938 11.686 12.092 27.621 20.754l-20.999 38.537q-21.77-13.923-40.039-32.308Q538.769-436.079 524-459.31l-30.693 159.001H366.309Zm136.922 184.308 233.461-397.998 233.075 397.998H503.231Zm233.076-64.308q8.677 0 15.185-6.507 6.507-6.508 6.507-15.185t-6.507-15.184q-6.508-6.508-15.185-6.508t-15.184 6.508q-6.508 6.507-6.508 15.184t6.508 15.185q6.507 6.507 15.184 6.507Zm-21.692-96h43.384v-91.384h-43.384v91.384Z"/></svg>