<svg xmlns="http://www.w3.org/2000/svg" height="24" viewBox="0 -960 960 960" width="24"><path d="M60.782-720v-219.218H280v106.001H166.783V-720H60.782ZM280-100.782H60.782V-320h106.001v113.217H280v106.001ZM793.217-720v-113.217H680v-106.001h219.218V-720H793.217Zm-254.913 91.521q-36.956 0-63-26.156-26.044-26.157-26.044-62.888 0-36.956 26.157-62.717 26.157-25.761 62.887-25.761 36.957 0 62.718 25.761 25.761 25.761 25.761 62.717 0 36.957-25.761 63.001-25.761 26.043-62.718 26.043ZM340.695-281.696l37.174-189.303-57.304 21.782v133.174h-97.522v-197.044l168.739-69.696q36.696-15 53.791-20.065 17.096-5.065 31.601-5.065 23.826 0 42.956 12.695 19.131 12.696 31.827 32.392l41.13 64q9.304 13.608 20.326 26.695t23.5 23.391l-49.479 86.262q-11.913-8.174-23.739-18.565-11.825-10.391-21.434-20.869l-23.478 120.216H340.695ZM508.39-60.782 760-501.349l251.61 440.567H508.39ZM760-99.652q11.391 0 19.935-8.543 8.544-8.543 8.544-19.935 0-11.391-8.544-19.935-8.544-8.544-19.935-8.544-11.391 0-19.935 8.544-8.544 8.544-8.544 19.935 0 11.392 8.544 19.935 8.544 8.544 19.935 8.544Zm-28.479-98.087h56.958v-164.522h-56.958v164.522Z"/></svg>