<svg xmlns="http://www.w3.org/2000/svg" height="20" viewBox="0 -960 960 960" width="20"><path d="M87.87-720v-200.131H288v83.001H170.87V-720h-83ZM288-135.869H87.87V-336h83v117.13H288v83.001ZM789.13-720v-117.13H672v-83.001h200.131V-720H789.13ZM527.035-603.587q-36.426 0-62.002-25.872-25.577-25.872-25.577-62.202 0-36.426 25.872-61.883Q491.2-779 527.53-779q36.427 0 61.883 25.704 25.457 25.704 25.457 62.131 0 36.426-25.705 62.002-25.704 25.576-62.13 25.576Zm-177.818 314.87L385.022-470.5l-72.783 31.37v104.804h-79.413v-157.826L389.37-556.87q19.717-8 36.469-15.239 16.752-7.239 36.965-7.239 24.196 0 46.674 12.218 22.479 12.217 35.196 32.934l35.478 56q9.283 14.566 20.946 26.468 11.663 11.902 26.75 20.184l-34.587 63.457q-18.848-10.804-34.794-24.989-15.945-14.185-28.51-31.272L503.87-288.717H349.217ZM484.435-87.869 744-532.61l259.57 444.74H484.435ZM744-159.391q11.035 0 19.311-8.276t8.276-19.311q0-11.035-8.276-19.311T744-214.565q-11.035 0-19.311 8.276t-8.276 19.311q0 11.035 8.276 19.311T744-159.391Zm-27.587-103.652h55.174v-97.914h-55.174v97.914Z"/></svg>