<svg xmlns="http://www.w3.org/2000/svg" height="20" viewBox="0 -960 960 960" width="20"><path d="M158-158v-302H86v-100h157q-35.7 0-60.35-25.262Q158-610.525 158-646v-156h243v156q0 35.475-25.263 60.738Q350.475-560 315-560h287v-120.737q0-8.888-5.977-15.075Q590.046-702 581.211-702q-9.261 0-15.619 6.037-6.359 6.038-6.359 14.963H459q0-51 35.583-86 35.584-35 86.417-35 50.417 0 85.708 35.292Q702-731.417 702-681v121h172v100h-72v302H158Zm100-502h43v-42h-43v42Zm0 402h173v-202H258v202Zm272 0h172v-202H530v202ZM258-660h43-43Zm0 402h444-444Z"/></svg>