<svg xmlns="http://www.w3.org/2000/svg" height="24" viewBox="0 -960 960 960" width="24"><path d="M140.782-140.782v-327.913h-80v-95.827H228.13q-36.392 0-61.87-25.825-25.478-25.824-25.478-62.088v-166.783h255.261v166.783q0 36.264-25.824 62.088-25.825 25.825-62.089 25.825h319.435V-691.87q0-13.397-9.063-22.459-9.062-9.062-22.459-9.062-13.637 0-22.861 9.062-9.225 9.062-9.225 22.459H468.13q0-53.392 37.308-90.37t90.605-36.978q53.062 0 90.205 37.143t37.143 90.205v127.348h175.827v95.827h-80v327.913H140.782Zm291.87-95.827h95.261v-232.086h-95.261v232.086Z"/></svg>