<svg xmlns="http://www.w3.org/2000/svg" height="24" viewBox="0 -960 960 960" width="24"><path d="M480-241.696q-17.565 0-30.196-12.63-12.63-12.631-12.63-30.196t12.63-29.913q12.631-12.348 30.196-12.348t30.196 12.348q12.63 12.348 12.63 29.913 0 17.565-12.63 30.196-12.631 12.63-30.196 12.63ZM440-360v-160.435l80 80V-360h-80Zm457.871 182.871L631.825-442.74 480-704.173l-40.782 69.26-71.001-71L480-899.218l417.871 722.089Zm-705.74-30.784h435.085l-275.52-275.521-159.565 275.521ZM834.827-.303 724.739-110.39H23.608l257.087-444.044L-.132-835.262l62.653-62.652L897.479-62.955 834.827-.303ZM489.956-345.174Zm45.565-193.435Z"/></svg>