<svg xmlns="http://www.w3.org/2000/svg" height="20" viewBox="0 -960 960 960" width="20"><path d="M600-576q-9.882 0-16.941-7.059Q576-590.118 576-600v-144q0-9.882 7.059-16.941Q590.118-768 600-768h24v-24q0-29.7 21.212-50.85 21.213-21.15 51-21.15Q726-864 747-842.85q21 21.15 21 50.85v24h24q9.882 0 16.941 7.059Q816-753.882 816-744v144q0 9.882-7.059 16.941Q801.882-576 792-576H600Zm60-192h72v-24q0-14-10.35-25T696-828q-14 0-25 11t-11 25v24ZM384-183l-28-28q-11-11-10.5-26.5T358-264q11-10 25.5-10t25.5 11l126 126q10 10 5.976 22.973-4.025 12.973-17.708 15.405Q512-97 501.463-96.5 490.927-96 480-96q-79.128 0-149.064-30Q261-156 208.5-208.5T126-330.936Q96-400.872 96-480q0-15.3 10.289-25.65 10.29-10.35 25.5-10.35Q147-516 157.5-505.65 168-495.3 168-480q0 51.327 16 97.663Q200-336 228.5-297t68 68q39.5 29 87.5 46Zm325-286 52-52 34 34q22 21 22 51.5T795-384L624-213q-21 21-50.906 21T521-213L213-521q-22-21-22-51.5t22-51.5l171-171q21.918-21 51.459-21Q465-816 487-795l34 34-51 51-35-34-171 171 308 309 172-171-35-34Zm-194-49Z"/></svg>