<svg xmlns="http://www.w3.org/2000/svg" height="20" viewBox="0 -960 960 960" width="20"><path d="M649-744h72v-24q0-14-10.35-25T685-804q-14 0-25 11t-11 25v24ZM476-140q-68.128 0-128.564-25.5Q287-191 241-237q-46-46-71.5-106.436Q144-403.872 144-472q0-4.3 2.789-7.15 2.79-2.85 7-2.85 4.211 0 7.211 2.85t3 7.15q0 61.327 23 115.663Q210-302 250-260.5t93.5 65.5Q397-171 459-168l-89-89q-4-4-4-8t6-9q5-4 7.5-4t7.5 5l113 112q6 6 3.5 12t-10.21 7.4q-5.29.6-9.327 1.1-4.036.5-7.963.5Zm63-127L269-537q-16-15-16-40.5t16-40.5l109-109q16.188-15 41.094-15Q444-742 459-727l25 24.774V-602q0 49.421 34.289 83.711Q552.579-484 602-484h101l26 27q15 16 15.5 41T729-376L620-267q-15 15-39.906 15T539-267Zm63-309q-9.882 0-17.941-8.059T576-602v-116q0-9.882 8.059-17.941T602-744h23v-24q0-25.7 17.212-42.85 17.213-17.15 43-17.15Q711-828 728-810.85q17 17.15 17 42.85v24h23q9.882 0 16.941 8.059Q792-727.882 792-718v116q0 9.882-8.059 17.941T766-576H602Z"/></svg>