<svg xmlns="http://www.w3.org/2000/svg" height="20" viewBox="0 -960 960 960" width="20"><path d="M615-591q-9.882 0-16.941-7.059Q591-605.118 591-615v-144q0-9.882 7.059-16.941Q605.118-783 615-783h24v-24q0-29.7 21.212-50.85 21.213-21.15 51-21.15Q741-879 762-857.85q21 21.15 21 50.85v24h24q9.882 0 16.941 7.059Q831-768.882 831-759v144q0 9.882-7.059 16.941Q816.882-591 807-591H615Zm60-192h72v-24q0-14-10.35-25T711-843q-14 0-25 11t-11 25v24ZM345-210l5 5q-14-14-13.5-32.5T352-270q14-13 31.5-13t31.5 14l128 128q12 12 6.976 26.473-5.025 14.473-19.804 16.905Q518-96 505.463-95 492.927-94 482-94q-79.128 0-149.064-30Q263-154 210.5-206.5T128-328.936Q98-398.872 98-478q0-18.7 12.589-31.35 12.59-12.65 31.2-12.65 18.186 0 30.699 12.65Q185-496.7 185-478q0 42.327 12 82.163Q209-356 230-321t50 62.5q29 27.5 65 48.5Zm316-241 85-84 31 31q37 36 37 85.5T777-333L675-231q-36 36-84.906 36-48.906 0-86.094-36L233-503q-35-34-36-84t36-86l102-102q36.918-36 84.959-36Q468-811 505-775l31 31-84 82-32-31-105 105 274 275 106-105-34-33Zm-145-66Z"/></svg>