<svg xmlns="http://www.w3.org/2000/svg" height="24" viewBox="0 -960 960 960" width="24"><path d="M636-600q-14 0-25-11t-11-25v-104q0-14 11-25t25-11h5v-40q0-29 19.5-48.5T709-884q29 0 48.5 19.5T777-816v40h5q14 0 24 11t10 25v104q0 14-11 25t-25 11H636Zm33-176h80v-40q0-17-11.5-28.5T709-856q-17 0-28.5 11.5T669-816v40ZM516-114 378-252q-4-4-4.5-9.5T378-272q5-5 10-5t10 5l156 156q8 8 4.852 17.143Q555.704-89.714 545-88q-8 1-14.915 1.5-6.914.5-14.085.5-88.161 0-166.08-33.5Q272-153 213.5-211.5q-58.5-58.5-92-136.42Q88-425.839 88-514q0-5.95 4.035-9.975 4.035-4.025 10-4.025t9.965 4.025q4 4.025 4 9.975 0 82 31.5 155t86 127.5Q288-177 361-145.5T516-114Zm176-382 20-20 40 40q17 17 17 43t-17 43L640-278q-17 17-43 17t-43-17L278-554q-17-17-17-43t17-43l112-112q17-17 43-17t43 17l44 44-20 20-44-44q-9-9-23-9t-23 9L298-620q-9 9-9 23t9 23l276 276q9 9 23 9t23-9l112-112q9-9 9-23t-9-23l-40-40Zm-177-19Z"/></svg>