<svg xmlns="http://www.w3.org/2000/svg" height="24" viewBox="0 -960 960 960" width="24"><path d="M480.098-60.782q-87.62 0-164.004-32.96-76.385-32.96-132.888-89.464-56.504-56.503-89.464-132.888Q60.782-392.478 60.782-480t32.96-163.906q32.96-76.385 89.464-132.888 56.503-56.504 132.888-89.464 76.384-32.96 163.906-32.96 65 0 123 17.869 58 17.87 108.13 50.739l-77.783 78.784q-34.609-19.478-72.711-30.435-38.103-10.956-80.636-10.956-130.181 0-221.699 91.239T166.783-480q0 130.739 91.518 221.978T480-166.783q28.854 0 55.905-5.152 27.051-5.152 52.79-14.456l80.349 81.348q-43.261 21.13-90.239 32.696-46.979 11.565-98.707 11.565Zm266.901-86.217v-120h-120v-106.002h120v-120h106.002v120h120v106.002h-120v120H746.999ZM422.304-284.695 243.826-463.174l71.261-71.827 107.217 107.217 405.087-406.087 71.827 71.827-476.914 477.349Z"/></svg>