<svg xmlns="http://www.w3.org/2000/svg" height="24" viewBox="0 -960 960 960" width="24"><path d="M480.042-71.87q-84.955 0-159.387-32.117-74.432-32.118-129.491-87.177-55.059-55.059-87.177-129.491Q71.869-395.087 71.869-480t32.118-159.345q32.118-74.432 87.177-129.491 55.059-55.059 129.491-87.177Q395.087-888.131 480-888.131q65 0 123 18.522t107.478 52.044l-66.369 67.369q-36.566-22.087-77.494-34.51Q525.687-797.13 480-797.13q-131.807 0-224.469 92.543Q162.87-612.043 162.87-480t92.661 224.587Q348.193-162.87 480-162.87q30.669 0 59.422-5.641 28.752-5.641 55.795-15.924l68.609 69.609q-41.956 20.478-87.793 31.717-45.837 11.24-95.991 11.24ZM754.5-154.5v-120h-120v-91h120v-120h91v120h120v91h-120v120h-91ZM423.283-291.217 249.696-464.804l62.456-62.696 111.131 111.13 402.152-403.152 62.696 62.696-464.848 465.609Z"/></svg>