<svg xmlns="http://www.w3.org/2000/svg" height="24" viewBox="0 -960 960 960" width="24"><path d="M479.816-100.001q-78.751 0-148.014-29.962-69.263-29.961-120.59-81.241-51.328-51.28-81.269-120.603-29.942-69.323-29.942-148.143 0-78.819 29.925-148.187 29.925-69.369 81.225-120.682 51.3-51.314 120.65-81.247Q401.15-859.999 480-859.999q63.204 0 119.602 19t103.474 53l-43.383 44.384q-38.769-26.692-83.991-41.539Q530.48-800 480-800q-133 0-226.5 93.5T160-480q0 133 93.5 226.5T480-160q33.539 0 65.077-6.769 31.539-6.77 60.693-18.924l44.999 45.615q-38.693 19.23-81.577 29.654-42.885 10.423-89.376 10.423Zm290.185-70v-120h-120v-59.998h120v-120h59.998v120h120v59.998h-120v120h-59.998Zm-346.77-139.846L267.078-466l42.153-42.153 114 114 394.615-395.23 42.153 42.153-436.768 437.383Z"/></svg>