<svg xmlns="http://www.w3.org/2000/svg" height="20" viewBox="0 -960 960 960" width="20"><path d="M248-148q-22.7 0-37.35-14.65Q196-177.3 196-200v-464q0-22.7 14.65-37.35Q225.3-716 248-716h150q4.3 0 7.15 2.789 2.85 2.79 2.85 7 0 4.211-2.85 7.211t-7.15 3H248q-12 0-22 10t-10 22v464q0 12 10 22t22 10h464q12 0 22-10t10-22v-213q0-4.3 2.789-7.15 2.79-2.85 7-2.85 4.211 0 7.211 2.85t3 7.15v213q0 22.7-14.65 37.35Q734.7-148 712-148H248Zm194-138 78-95q4.25-6 10-6t10 6l70 94q4 7 .75 14T600-266H367.806Q360-266 357-273q-3-7 2.182-13.974L387-323q4.25-6 9.5-6t9.5 5l36 38Zm207.53-246Q600-532 566-565.5T532-648q0-49 33.5-82.5T648-764q49 0 82.5 33.449 33.5 33.45 33.5 82.377Q764-627 758-609t-21 37l118 118q4 4 4.5 6.5T855-440q-5 5-7.5 5t-7.706-5.103L722-557q-19 14-35.05 19.5-16.051 5.5-37.42 5.5Zm-1.755-20Q688-552 716-579.775q28-27.774 28-68Q744-688 716.225-716q-27.774-28-68-28Q608-744 580-716.225q-28 27.774-28 68Q552-608 579.775-580q27.774 28 68 28Z"/></svg>