<svg xmlns="http://www.w3.org/2000/svg" height="24" viewBox="0 -960 960 960" width="24"><path d="M768-160q-108.077 0-216.731-49.769T351.461-351.077q-91.154-91.538-141.307-200.846Q160-661.231 160-768v-32h177.539l33.923 163.308-107.847 100.384q27.385 47.462 56.693 86.693 29.307 39.23 61.077 70.769 32.077 33.615 72.346 62.807 40.269 29.193 91.807 57.577L650-366.769l150 30.23V-160h-32ZM496.923-638.462v-30.769h72.308v-35.384h-72.308V-800H600v30.769h-72.308v33.846H600v96.923H496.923Zm135.385 0V-800h30.769v161.538h-30.769Zm63.077 0V-800H800v95.385h-73.846v66.153h-30.769Zm30.769-96.923h43.077v-33.846h-43.077v33.846Z"/></svg>