<svg xmlns="http://www.w3.org/2000/svg" height="20" viewBox="0 -960 960 960" width="20"><path d="m234-388 102-75 96 61v-414h72v546l-147-94 188 196h271.168v-408H888v480H513L234-388Zm326-44v-240h72v240h-72Zm128 0v-192h72v192h-72ZM180.442-577Q125-577 86.5-615.145 48-653.291 48-706.977 48-739 60.5-761.5T121-840l59-68 58 68q50 57 62 79t12 53.533Q312-653 273.472-615q-38.527 38-93.03 38ZM180-649q25 0 42.5-17t17.5-41q0-15.841-8.5-28.42Q223-748 184-793l-4-4-5 4q-38 42-46.5 55.5T120-707q0 25 17 41.5t43 16.5Zm0-58Zm636 539H504h312Z"/></svg>