<svg xmlns="http://www.w3.org/2000/svg" height="24" viewBox="0 -960 960 960" width="24"><path d="m190.346-419.566 110.131-82.74 111.61 70.653v-418.521h100.348v584.304l-120.261-71.478 141.304 167.174h308.783v-400H942.61v500.348H487.304l-296.958-349.74Zm365.132-10.26v-260.348h100.349v260.348H555.478Zm143.392 0v-220.348h100.348v220.348H698.87ZM180.276-546.999q-64.363 0-108.82-44.316Q27-635.63 27-698q0-36.826 14.095-63.147 14.094-26.321 66.297-86.332L180-930.784l73.174 83.74q51.566 59.565 65.696 86.023 14.131 26.457 14.131 62.837 0 62.836-44.727 107.011-44.727 44.174-107.998 44.174Zm-.376-106.002q20.013 0 33.556-13.156 13.543-13.156 13.543-31.73 0-13.156-6.49-23.56-6.491-10.403-35.509-42.769l-5-5-5 5q-25.782 28.651-33.891 41.282-8.108 12.63-8.108 24.934 0 18.913 13.043 31.956t33.856 13.043ZM180-698Zm662.261 527.826H512.435h329.826Z"/></svg>