<svg xmlns="http://www.w3.org/2000/svg" height="20" viewBox="0 -960 960 960" width="20"><path d="M480.768-76.782q-83.358 0-156.94-31.949-73.581-31.949-128.118-86.457-54.537-54.507-86.733-128.082-32.195-73.575-32.195-156.933 0-83.69 31.956-157.119 31.957-73.43 86.857-128.042 54.899-54.612 128.419-86.233 73.52-31.621 156.816-31.621 83.606 0 157.016 31.724 73.411 31.725 127.714 86.11 54.304 54.386 85.981 127.906 31.677 73.521 31.677 157.213 0 83.296-31.677 156.798T765.56-195.09q-54.303 54.875-127.714 86.592-73.41 31.716-157.078 31.716Zm-.521-98.001q126.796 0 215.535-87.133 88.739-87.134 90-212.301V-483.782h-96.261l-92.044-147.217h-234.52l-91.478 147.651h-96.131v9.131q2.261 125.573 90.952 212.504 88.691 86.93 213.947 86.93ZM362.939-406.304q-21.243 0-35.526-14.17-14.283-14.17-14.283-35.413 0-21.243 13.783-35.526 13.783-14.283 35.413-14.283 21.631 0 35.913 14.17 14.283 14.17 14.283 35.413 0 21.243-14.17 35.526-14.17 14.283-35.413 14.283Zm234.347 0q-21.243 0-35.525-14.17-14.283-14.17-14.283-35.413 0-21.243 14.17-35.526 14.17-14.283 35.413-14.283 21.243 0 35.526 14.17 14.283 14.17 14.283 35.413 0 21.243-14.17 35.526-14.17 14.283-35.414 14.283Z"/></svg>