<svg xmlns="http://www.w3.org/2000/svg" height="24" viewBox="0 -960 960 960" width="24"><path d="M480-120q-74.308 0-140-28.423t-114.423-77.154Q176.846-274.308 148.423-340 120-405.692 120-480q0-74.539 28.423-140.231t77.154-114.692q48.731-49 114.423-77.039Q405.692-840 480-840q74.539 0 140.231 28.038 65.692 28.039 114.692 77.039t77.039 114.692Q840-554.539 840-480q0 74.308-28.038 140-28.039 65.692-77.039 114.423-49 48.731-114.692 77.154Q554.539-120 480-120Zm0-40q134 0 227.115-93.615Q800.231-347.231 800-480.462v-11.769q0-6.154-.769-11.769h-86.539L616-660H345l-96.692 156h-87.539q-.769 5.615-.769 11.885v11.884Q160-347 253.5-253.5T480-160ZM360-390q-21 0-35.5-14.5T310-440q0-21 14.5-35.5T360-490q21 0 35.5 14.5T410-440q0 21-14.5 35.5T360-390Zm240 0q-21 0-35.5-14.5T550-440q0-21 14.5-35.5T600-490q21 0 35.5 14.5T650-440q0 21-14.5 35.5T600-390Z"/></svg>