<svg xmlns="http://www.w3.org/2000/svg" height="20" viewBox="0 -960 960 960" width="20"><path d="M444-73.001q-51.538-6.77-99.769-28.731-48.23-21.962-86.384-60.884L295-199q32 31 70 49t79 24v52.999Zm72 0v-52.23Q616-140 680-213t64-174q0-110-76.5-186.5T481-650h-38.539l87 86.001-37.152 37.153-156.153-155.153 156.153-156.153 37.152 36.383-100.77 99.77H480q65.769 0 123.115 24.27 57.346 24.269 100.346 67.268 42.999 43 67.768 100.346 24.77 57.346 24.77 123.115 0 123.307-79.923 212.23Q636.153-85.847 516-73.001ZM212.616-217.847q-26.307-41.538-37.461-87.769-11.154-46.23-11.154-93.384h52.23q.384 37.385 8.577 73.192Q233-290 252-257l-39.384 39.153ZM175.001-471q11-38.923 31.347-74.269 20.346-35.346 50.268-64.884L293-574q-23 23-38.192 48.808-15.193 25.807-24.577 54.192h-55.23Z"/></svg>