<svg xmlns="http://www.w3.org/2000/svg" height="20" viewBox="0 -960 960 960" width="20"><path d="M311.91-595.385q11.629 0 19.859-8.14 8.231-8.14 8.231-19.769 0-11.629-8.14-19.86t-19.77-8.231q-11.629 0-19.859 8.14-8.231 8.141-8.231 19.77t8.14 19.86q8.14 8.23 19.77 8.23Zm0 334.77q11.629 0 19.859-8.14 8.231-8.141 8.231-19.77t-8.14-19.86q-8.14-8.23-19.77-8.23-11.629 0-19.859 8.14-8.231 8.14-8.231 19.769 0 11.629 8.14 19.86t19.77 8.231ZM184-495.385v-256h592v256H184Zm0 334.77v-256h592v256H184Z"/></svg>