<svg xmlns="http://www.w3.org/2000/svg" height="20" viewBox="0 -960 960 960" width="20"><path d="M312.045-673.691q-15.814 0-26.929 11.07-11.115 11.07-11.115 26.884 0 15.815 11.07 26.93t26.884 11.115q15.814 0 26.929-11.07 11.115-11.07 11.115-26.884t-11.07-26.93q-11.07-11.115-26.884-11.115Zm0 359.383q-15.814 0-26.929 11.07-11.115 11.07-11.115 26.884t11.07 26.93q11.07 11.115 26.884 11.115t26.929-11.07q11.115-11.07 11.115-26.884 0-15.815-11.07-26.93t-26.884-11.115ZM164.001-487.693V-783.69h631.998v295.997H164.001ZM216-731.691v192h528v-192H216ZM164.001-128.31v-295.997h631.998v295.997H164.001ZM216-372.309v192h528v-192H216Zm0-359.382v192-192Zm0 359.382v192-192Z"/></svg>