<svg xmlns="http://www.w3.org/2000/svg" height="24" viewBox="0 -960 960 960" width="24"><path d="M300-729.565q-25 0-42.5 17.5t-17.5 42.5q0 25 17.5 42.5t42.5 17.5q25 0 42.5-17.5t17.5-42.5q0-25-17.5-42.5t-42.5-17.5Zm0 416.261q-25 0-42.5 17.5t-17.5 42.5q0 25 17.5 42.5t42.5 17.5q25 0 42.5-17.5t17.5-42.5q0-25-17.5-42.5t-42.5-17.5ZM111.869-481.435v-376.261h736.262v376.261H111.869Zm91.001-285.261v194.261h554.26v-194.261H202.87ZM111.869-65.413v-376.022h736.262v376.022H111.869Zm91.001-285.022v194.022h554.26v-194.022H202.87Zm0-416.261v194.261-194.261Zm0 416.261v194.022-194.022Z"/></svg>