<svg xmlns="http://www.w3.org/2000/svg" height="24" viewBox="0 -960 960 960" width="24"><path d="M299.955-597.692q20.814 0 35.429-14.57 14.615-14.57 14.615-35.384t-14.57-35.43q-14.57-14.615-35.384-14.615t-35.429 14.57q-14.615 14.57-14.615 35.384 0 20.815 14.57 35.43 14.57 14.615 35.384 14.615Zm0 375.383q20.814 0 35.429-14.57 14.615-14.57 14.615-35.384 0-20.815-14.57-35.43-14.57-14.615-35.384-14.615t-35.429 14.57q-14.615 14.57-14.615 35.384t14.57 35.43q14.57 14.615 35.384 14.615ZM140.001-487.693V-807.69h679.998v319.997H140.001Zm0 375.383v-319.997h679.998v319.997H140.001Z"/></svg>