<svg xmlns="http://www.w3.org/2000/svg" height="24" viewBox="0 -960 960 960" width="24"><path d="M366.154-363.846h260q25.077 0 42.538-17.461 17.462-17.462 17.462-42.539t-17.462-42.539q-17.461-17.461-42.538-17.461h-20.462q-1.846-48.693-32.577-84.347-30.73-35.653-77.884-35.653-38.923 0-69.923 21.769t-40.539 58.231h-21.154q-33.154 0-55.308 23.307-22.153 23.308-22.153 56.693 0 33.846 23.077 56.923 23.077 23.077 56.923 23.077Zm0-40q-17 0-28.5-11.5t-11.5-28.5q0-17 11.5-28.5t28.5-11.5h52.307v-10q0-29 20.885-49.5t54.5-20.5q33.615 0 54.115 26.654 20.5 26.653 20.5 60.269v33.077h57.693q8 0 14 6t6 14q0 8-6 14t-14 6h-260ZM184.615-200Q157-200 138.5-218.5 120-237 120-264.615v-430.77Q120-723 138.5-741.5 157-760 184.615-760h590.77Q803-760 821.5-741.5 840-723 840-695.385v430.77Q840-237 821.5-218.5 803-200 775.385-200h-590.77Zm0-40h590.77q9.23 0 16.923-7.692Q800-255.385 800-264.615v-430.77q0-9.23-7.692-16.923Q784.615-720 775.385-720h-590.77q-9.23 0-16.923 7.692Q160-704.615 160-695.385v430.77q0 9.23 7.692 16.923Q175.385-240 184.615-240ZM160-240v-480 480Z"/></svg>