<svg xmlns="http://www.w3.org/2000/svg" height="24" viewBox="0 -960 960 960" width="24"><path d="M480-102.304q-89.435 0-170.891-34.196-81.457-34.195-144.413-97.913L226-295.717q51 51 116.88 79.098 65.881 28.098 137.881 28.098t137.619-27.598Q684-243.717 735-294.717l60.304 60.304q-63.717 63.718-144.793 97.913Q569.435-102.304 480-102.304Zm0-166.217q-56.239 0-107.478-21.24-51.239-21.239-91.718-60.76l60.544-60.544q28.522 27.565 64.185 41.946 35.663 14.38 74.467 14.38T554.348-369q35.543-14.261 64.304-41.826l60.544 60.305q-40.479 39.521-91.718 60.76-51.239 21.24-107.478 21.24ZM322.804-635.696l11.761 40h290.87l11.761-40H322.804Zm-56.522 131.001-38-131.001H102.304v-222h755.392v222H731.718l-44.566 131.001h-420.87Z"/></svg>