<svg xmlns="http://www.w3.org/2000/svg" height="20" viewBox="0 -960 960 960" width="20"><path d="M480-184q-70.231 0-134.116-24.731-63.884-24.73-117.038-70.192l22.539-22.539q48.769 42.385 106.846 63.924Q416.308-216 480-216q62.923 0 121.385-21.538 58.461-21.539 107.23-63.154l23.308 22.538q-52.384 45.462-117.038 69.808Q550.231-184 480-184Zm0-134.769q-41.769 0-81.077-14.885-39.308-14.884-70.692-40.884l22.307-23.308q26.77 22.154 61.27 31.615 34.5 9.462 68.961 9.462 34.462 0 68.077-9.962 33.616-9.961 60.385-31.115l23.308 23.308q-32.154 25.769-71.077 40.769-38.923 15-81.462 15ZM293.923-633.231l33.846 78.769h304.462l32.846-78.769H293.923Zm11.308 110.77-46.77-110.77H184V-776h592v142.769h-74.461l-44.924 110.77H305.231Z"/></svg>