<svg xmlns="http://www.w3.org/2000/svg" height="24" viewBox="0 -960 960 960" width="24"><path d="M264.615-120q-26.654 0-45.634-18.5Q200-157 200-182.308v-441.538q0-50.77 34-88.847 34-38.076 86-45.153v-49.847q0-13.73 9.288-23.019Q338.577-840 352.307-840h15.385q13.731 0 23.02 9.288Q400-821.423 400-807.693V-760h160v-47.693q0-13.73 9.288-23.019 9.289-9.288 23.02-9.288h15.385q13.73 0 23.019 9.288Q640-821.423 640-807.693v49.847q52 7.077 86 45.153 34 38.077 34 88.847v441.538Q760-157 741.019-138.5q-18.98 18.5-45.634 18.5h-430.77Zm340-293.846v56.923q0 8.5 5.758 14.25t14.269 5.75q8.512 0 14.243-5.75 5.73-5.75 5.73-14.25v-64.616q0-13.73-9.288-23.019-9.288-9.288-23.019-9.288H335.385q-8.5 0-14.25 5.757-5.75 5.758-5.75 14.27 0 8.511 5.75 14.242 5.75 5.731 14.25 5.731h269.23Z"/></svg>