<svg xmlns="http://www.w3.org/2000/svg" height="24" viewBox="0 -960 960 960" width="24"><path d="M246.218-60.782q-43.74 0-74.588-31.13-30.848-31.131-30.848-74.306V-650.74q0-56.565 31.739-100.543 31.739-43.979 82.608-58.544v-36.391q0-22.087 15.457-37.544 15.457-15.456 37.544-15.456h37.174q22.087 0 37.544 15.456 15.456 15.457 15.456 37.544v27H561.13v-27q0-22.087 15.457-37.544 15.457-15.456 37.544-15.456h37.739q22.087 0 37.544 15.456 15.457 15.457 15.457 37.544v36.391q50.304 14.565 82.326 58.544 32.021 43.978 32.021 100.543v484.522q0 43.175-31.13 74.306-31.131 31.13-74.306 31.13H246.218Zm314.564-336.957v34.348q0 18.13 12.348 30.478 12.347 12.348 30.478 12.348 18.13 0 30.478-12.348 12.348-12.348 12.348-30.478v-68.696q0-22.087-15.457-37.543-15.456-15.457-37.544-15.457H356.957q-18.695 0-31.043 12.348-12.348 12.348-12.348 31.043 0 18.696 12.63 31.326 12.631 12.631 31.327 12.631h203.259Z"/></svg>