<svg xmlns="http://www.w3.org/2000/svg" height="24" viewBox="0 -960 960 960" width="24"><path d="M195.384-132.688v-134.624q0-14.303 9.289-23.496Q213.961-300 227.692-300h15.385q13.731 0 23.019 9.192 9.289 9.193 9.289 23.496v134.624q0 14.303-9.289 23.496Q256.808-100 243.077-100h-15.385q-13.731 0-23.019-9.192-9.289-9.193-9.289-23.496ZM392.307-120v-486q-58.153 16.308-88.884 54-30.731 37.693-40.115 98.692-1.056 8.095-7.388 13.009-6.332 4.915-14.247 4.915-8.442 0-13.904-6.154-5.461-6.154-4.231-14.231 13.308-100.692 80.154-154Q370.538-663.077 480-663.077q98.461 0 153.731-29.731Q689-722.539 698.769-811.231q1.231-8.538 6.989-14.808 5.757-6.269 14.269-6.269t14.242 6.385q5.731 6.384 4.5 14.692-7.23 75.769-49.346 121.962-42.115 46.192-121.73 57.577V-120q0 8.5-5.758 14.25t-14.27 5.75q-8.511 0-14.242-5.75-5.731-5.75-5.731-14.25v-215.385h-95.384V-120q0 8.5-5.758 14.25T412.281-100q-8.512 0-14.243-5.75T392.307-120ZM480-729.231q-28.385 0-48.039-19.654-19.653-19.653-19.653-48.038 0-28.385 19.653-48.039 19.654-19.653 48.039-19.653t48.039 19.653q19.653 19.654 19.653 48.039t-19.653 48.038Q508.385-729.231 480-729.231Z"/></svg>