<svg xmlns="http://www.w3.org/2000/svg" height="24" viewBox="0 -960 960 960" width="24"><path d="M920-291.043q-35.261 0-60.457-25.16-25.195-25.16-25.195-60.492v-182.61q0-36.402 25.16-61.027T920-644.957h40v353.914h-40ZM508.695-509q0 41.13-15.565 78.761-15.565 37.63-45.131 66.63L273.043-188.652-17.871-478l175.522-175.957q29-29.565 66.547-45.13 37.548-15.565 78.695-15.565 86.411 0 146.106 59.639Q508.695-595.374 508.695-509ZM303.043-613.738q-21.305 0-40.196 7.587-18.891 7.586-34.065 23.325l-104.26 104.261 149.086 149.086 104.26-104.261q15.739-15.173 23.326-34.065 7.587-18.891 7.587-40.195 0-44.567-30.586-75.153-30.585-30.585-75.152-30.585Zm367.044 275.651-50.479-50.478 41.782-41.783H543.043v-71.304h122.912l-44.347-43.783 50.479-50.478L800-468 670.087-338.087ZM266.869-471.826Z"/></svg>