<svg xmlns="http://www.w3.org/2000/svg" height="20" viewBox="0 -960 960 960" width="20"><path d="M897.385-323.308q-24.923 0-42.308-17.384-17.385-17.385-17.385-42.308v-168q0-24.769 17.385-42.731 17.385-17.961 42.308-16.961h35.692v287.384h-35.692ZM525.692-509.385q0 30.924-11.871 59.267Q501.95-421.775 480-399.461L339.461-258.923 118.615-480l139.538-141.308q21.314-20.95 49.657-33.321Q336.154-667 367.077-667q66.038 0 112.327 45.788 46.288 45.789 46.288 111.827Zm145.077 143.924-16.308-16.308L730-455.308H588.308v-23.384h143.23l-77.846-74.846L670-570.077l105.077 102.308-104.308 102.308Z"/></svg>