<svg xmlns="http://www.w3.org/2000/svg" height="20" viewBox="0 -960 960 960" width="20"><path d="M891.385-323.308q-24.923 0-42.308-17.384-17.385-17.385-17.385-42.308v-168q0-24.769 17.385-42.731 17.385-17.961 42.308-16.961h35.692v287.384h-35.692ZM519.692-509.385q0 30.924-11.871 59.267Q495.95-421.775 474-399.461L333.461-258.923 112.615-480l139.538-141.308q21.314-20.95 49.657-33.321Q330.154-667 361.077-667q66.038 0 112.327 45.788 46.288 45.789 46.288 111.827ZM362.692-635q-25 0-48.385 10.385-23.384 10.384-39.615 26.615L157.461-480.769l176 176L451.692-422q16.231-16.231 26.115-38.983 9.885-22.753 9.885-47.017 0-53-36.5-90t-88.5-37Zm302.077 269.539-16.308-16.308L724-455.308H582.308v-23.384h143.23l-77.846-74.846L664-570.077l105.077 102.308-104.308 102.308ZM322.692-469Z"/></svg>