<svg xmlns="http://www.w3.org/2000/svg" height="24" viewBox="0 -960 960 960" width="24"><path d="M920-300.826q-33.957 0-58.174-24.202-24.217-24.203-24.217-58.189v-169.566q0-35.016 24.202-58.704 24.203-23.687 58.189-23.687h40v334.348h-40ZM515.217-509q0 40.478-15.239 77.457-15.239 36.978-44.478 65.978L282.826-192.891-3.522-478l172.913-173.674q29-29.239 65.943-44.478t77.429-15.239q85.019 0 143.737 58.693Q515.217-594.004 515.217-509ZM312.826-622.543q-22.283 0-42.967 8.402-20.685 8.402-37.489 25.445L121.913-478.239l161.152 161.152 110.456-110.457q17.044-16.804 25.446-37.489 8.402-20.684 8.402-42.967 0-48.279-33.132-81.411t-81.411-33.132Zm361.826 279.891-45.587-45.587 45.37-45.37H552.826v-64.782h125.848l-47.609-47.37 45.587-45.587L800-468 674.652-342.652Zm-399.63-127.544Z"/></svg>