<svg xmlns="http://www.w3.org/2000/svg" height="20" viewBox="0 -960 960 960" width="20"><path d="M912-303.826q-30.957 0-52.674-21.717-21.717-21.718-21.717-52.674v-177.566q0-30.956 21.717-53.174 21.717-22.217 52.674-21.217h48v326.348h-48ZM523.217-509q0 39.478-15.239 75.457-15.239 35.978-43.478 63.978L293.826-198.891 13.478-480l169.913-170.674q27-27.239 62.978-42.978 35.979-15.739 75.457-15.739 83.956 0 142.674 58.217Q523.217-592.957 523.217-509Zm143.435 165.348-37.587-37.587 61.37-59.37H568.826v-52.782h121.848l-61.609-58.37 37.587-38.587L792-467 666.652-343.652Z"/></svg>