<svg xmlns="http://www.w3.org/2000/svg" height="20" viewBox="0 -960 960 960" width="20"><path d="M560.479-449.523q-50 0-85-35t-35-85q0-50 35-85t85-35q50 0 85 35t35 85q0 50-35 85t-85 35ZM290.001-336q-40.425 0-69.213-28.804Q192-393.608 192-434.057v-270.699q0-40.448 28.788-69.086 28.788-28.638 69.213-28.638h541.52q40.426 0 69.214 28.804 28.788 28.804 28.788 69.253v270.699q0 40.448-28.788 69.086Q871.947-336 831.521-336h-541.52Zm63.522-89.523H768q0-30 21.15-51.116T840-497.755v-143.768q-29.7 0-50.85-21.15-21.15-21.15-21.15-50.85H353.523q0 30-21.15 51.116t-50.85 21.116v143.768q29.7 0 50.85 21.15 21.15 21.15 21.15 50.85Zm389.476 251.046h-614.52q-40.426 0-69.214-28.788-28.788-28.788-28.788-69.214v-350.52q0-20.388 14.247-34.694Q58.97-672 79.268-672q20.297 0 34.754 14.307 14.457 14.306 14.457 34.694v350.52h614.52q20.388 0 34.694 14.247Q792-243.986 792-223.689q0 20.298-14.307 34.755-14.306 14.457-34.694 14.457ZM281.523-425.523v-288 288Z"/></svg>