<svg xmlns="http://www.w3.org/2000/svg" height="20" viewBox="0 -960 960 960" width="20"><path d="M567-463q-50 0-85-35t-35-85q0-50 35-85t85-35q50 0 85 35t35 85q0 50-35 85t-85 35ZM310-336q-48.675 0-83.337-34.679Q192-405.358 192-454.055v-257.222q0-48.698 34.663-83.21Q261.325-829 310-829h515q48.675 0 83.338 34.679Q943-759.642 943-710.945v257.222q0 48.698-34.662 83.21Q873.675-336 825-336H310Zm57-103h401q0-30 21.15-51.116T840-511.232V-655q-29.7 0-50.85-21.15Q768-697.3 768-727H367q0 30-21.15 51.116T295-654.768V-511q29.7 0 50.85 21.15Q367-468.7 367-439Zm366 278H135q-48.675 0-83.338-34.663Q17-230.325 17-279v-334q0-24.3 17.29-41.65Q51.578-672 75.79-672q24.21 0 41.71 17.35T135-613v334h598q24.3 0 41.65 17.289 17.35 17.29 17.35 41.5Q792-196 774.65-178.5T733-161ZM295-439v-288 288Z"/></svg>