<svg xmlns="http://www.w3.org/2000/svg" height="24" viewBox="0 -960 960 960" width="24"><path d="M320-682.826q-20.957 0-35.566-14.609-14.608-14.609-14.608-35.566 0-20.956 14.608-35.565 14.609-14.609 35.566-14.609h109.826v-69.826q0-20.956 14.608-35.565 14.609-14.609 35.566-14.609t35.566 14.609q14.608 14.609 14.608 35.565v69.826H640q20.957 0 35.566 14.609 14.608 14.609 14.608 35.565 0 20.957-14.608 35.566-14.609 14.609-35.566 14.609H320Zm51.305 630.523q-44.305 0-75.153-30.848-30.848-30.848-30.848-75.153v-325.52q0-65.827 46.587-112.415 46.588-46.587 112.415-46.587h111.388q65.827 0 112.415 46.587 46.587 46.588 46.587 112.415v325.52q0 44.305-30.848 75.153Q633-52.303 588.695-52.303h-217.39Zm-5.653-100.349h228.696v-331.172q0-24.348-17.153-41.501-17.152-17.152-41.501-17.152H424.306q-20.957 0-36.979 12.913t-21.675 32.739v17.39H440q20.957 0 35.566 14.609 14.608 14.609 14.608 35.566 0 20.956-14.608 35.565-14.609 14.609-35.566 14.609h-74.348v63.043H440q20.957 0 35.566 14.609 14.608 14.608 14.608 35.565 0 20.957-14.608 35.566-14.609 14.609-35.566 14.609h-74.348v63.042Zm0 0v-389.825V-152.652Z"/></svg>