<svg xmlns="http://www.w3.org/2000/svg" height="24" viewBox="0 -960 960 960" width="24"><path d="M335.385-656.923q-8.501 0-14.251-5.758t-5.75-14.269q0-8.512 5.75-14.243 5.75-5.73 14.251-5.73H460v-92.308q0-8.5 5.758-14.25 5.757-5.75 14.269-5.75t14.242 5.75q5.731 5.75 5.731 14.25v92.308h124.615q8.501 0 14.251 5.757 5.75 5.758 5.75 14.27 0 8.511-5.75 14.242-5.75 5.731-14.251 5.731h-289.23Zm49.23 520q-26.654 0-45.634-18.981Q320-174.884 320-201.538V-520q0-40.385 28.269-68.654t68.654-28.269h126.154q40.385 0 68.654 28.269T640-520v318.462q0 26.654-18.981 45.634-18.98 18.981-45.634 18.981h-190.77Zm-24.615-40h215.385q10.769 0 17.692-6.923T600-201.538V-520q0-24.192-16.365-40.558-16.366-16.365-40.558-16.365H416.923q-24.192 0-40.558 16.365Q360-544.192 360-520v50h80q8.5 0 14.25 5.758t5.75 14.269q0 8.512-5.75 14.242Q448.5-430 440-430h-80v106.154h80q8.539 0 14.269 5.758Q460-312.331 460-303.819t-5.75 14.242q-5.75 5.731-14.25 5.731h-80v106.923Zm0 0v-400 400Z"/></svg>