<svg xmlns="http://www.w3.org/2000/svg" height="20" viewBox="0 -960 960 960" width="20"><path d="M324-677q-22.3 0-38.15-15.789-15.85-15.79-15.85-38Q270-753 285.85-769T324-785h102v-66q0-22.3 15.789-38.15 15.79-15.85 38-15.85Q502-905 518-889.15T534-851v66h102q22.3 0 38.15 15.789 15.85 15.79 15.85 38Q690-709 674.15-693T636-677H324Zm56 630q-49.7 0-83.85-34.15Q262-115.3 262-165v-275q0-78 55.5-133.5T451-629h58q78 0 133.5 55.5T698-440v275q0 49.7-34.15 83.85Q629.7-47 580-47H380Zm-10-108h220v-285q0-33.4-23.8-57.2Q542.4-521 509-521h-58q-27.4 0-49.2 16.3Q380-488.4 370-463v-4h74q22.3 0 38.15 15.789 15.85 15.79 15.85 38Q498-391 482.15-375T444-359h-74v42h74q22.3 0 38.15 15.789 15.85 15.79 15.85 38Q498-241 482.15-225T444-209h-74v54Zm0 0v-366 58-4 312Z"/></svg>