<svg xmlns="http://www.w3.org/2000/svg" height="20" viewBox="0 -960 960 960" width="20"><path d="M298.091-116.001q-91.628 0-155.858-64.167Q78.003-244.334 78.003-336v-267.999h439.996V-336q0 91.666-64.14 155.832-64.139 64.167-155.768 64.167ZM225.79-423.846q13.288 0 22.826-9.328t9.538-22.615q0-13.288-9.328-22.826-9.327-9.539-22.615-9.539-13.287 0-22.825 9.328-9.539 9.328-9.539 22.615 0 13.288 9.328 22.826 9.328 9.539 22.615 9.539Zm72.211 156q35.901 0 63.066-17.27 27.164-17.269 28.318-47.038H206.616q1.154 29.769 28.319 47.038 27.164 17.27 63.066 17.27Zm71.789-156q13.288 0 22.826-9.328t9.538-22.615q0-13.288-9.328-22.826-9.327-9.539-22.615-9.539-13.287 0-22.825 9.328-9.539 9.328-9.539 22.615 0 13.288 9.328 22.826 9.328 9.539 22.615 9.539Zm292.209 67.845q-25.034 0-50.171-5.962t-45.829-18.116v-268.92l-1.5-1.5-1.5-1.5H442.001v-192h439.997V-576q0 91.666-64.166 155.832-64.167 64.167-155.833 64.167Zm-72.21-307.845q13.287 0 22.825-9.328 9.539-9.328 9.539-22.615 0-13.288-9.328-22.826-9.328-9.539-22.615-9.539-13.288 0-22.826 9.328t-9.538 22.615q0 13.288 9.328 22.826 9.327 9.539 22.615 9.539Zm-19.174 156h182.769q-1.924-29.769-29.088-47.038-27.165-17.27-62.297-17.27-33.538 0-61.884 17.27-28.346 17.269-29.5 47.038Zm163.174-156q13.287 0 22.825-9.328 9.539-9.328 9.539-22.615 0-13.288-9.328-22.826-9.328-9.539-22.615-9.539-13.288 0-22.826 9.328t-9.538 22.615q0 13.288 9.328 22.826 9.327 9.539 22.615 9.539Z"/></svg>