<svg xmlns="http://www.w3.org/2000/svg" height="20" viewBox="0 -960 960 960" width="20"><path d="M743.789-673.001q17.133 0 28.933-11.589 11.8-11.59 11.8-28.722 0-16.892-11.59-28.53-11.589-11.637-28.721-11.637-17.133 0-28.933 11.43-11.8 11.429-11.8 28.326 0 16.896 11.59 28.809 11.589 11.913 28.721 11.913Zm-144 0q17.133 0 28.933-11.589 11.8-11.59 11.8-28.722 0-16.892-11.59-28.53-11.589-11.637-28.721-11.637-17.133 0-28.933 11.43-11.8 11.429-11.8 28.326 0 16.896 11.59 28.809 11.589 11.913 28.721 11.913ZM576-521.523h192q0-34-29.28-53t-66.72-19q-37.44 0-66.72 19t-29.28 53ZM287.967-61.52q-107.315 0-182.402-74.946-75.088-74.946-75.088-182.011V-624h515.046v305.523q0 107.065-75.121 182.011-75.12 74.946-182.435 74.946Zm.033-88.957q70 0 119-49t49-119v-216H120v216q0 70 49 119t119 49ZM672-336q-19.878 0-39.373-3.304-19.496-3.305-39.104-11.478v-95.001q16.608 11.913 36.835 16.087 20.226 4.173 41.642 4.173 70 0 119-49t49-119v-216H504V-672h-89.523v-226.48h515.046v304.957q0 107.301-75.111 182.412T672-336Zm-456.211-62.521q17.133 0 28.933-11.43 11.8-11.429 11.8-28.326 0-16.896-11.59-28.809-11.589-11.913-28.721-11.913-17.133 0-28.933 11.589-11.8 11.59-11.8 28.722 0 16.892 11.59 28.53 11.589 11.637 28.721 11.637Zm144 0q17.133 0 28.933-11.43 11.8-11.429 11.8-28.326 0-16.896-11.59-28.809-11.589-11.913-28.721-11.913-17.133 0-28.933 11.589-11.8 11.59-11.8 28.722 0 16.892 11.59 28.53 11.589 11.637 28.721 11.637ZM288-246.477q37.44 0 66.72-19t29.28-53H192q0 34 29.28 53t66.72 19Zm0-72Zm384-323.046Z"/></svg>