<svg xmlns="http://www.w3.org/2000/svg" height="20" viewBox="0 -960 960 960" width="20"><path d="M480.033-88.109q-80.468 0-151.769-30.528t-124.771-83.934q-53.471-53.407-83.95-124.689-30.478-71.282-30.478-151.75 0-81.468 30.478-152.284 30.479-70.815 83.941-124.251 53.462-53.437 124.751-83.982Q399.524-870.073 480-870.073v-97.818l170.87 158.869-170.916 159.068v-97.917q-111.967 0-190.352 78.457t-78.385 190.371q0 67.434 31.598 125.771t86.555 97.055q18.239-32.239 50.336-50.598 32.098-18.359 69.816-23.497-3-21.579-7.62-42.438-4.619-20.859-12.859-41.337-11 9.239-24.739 14.859-13.739 5.619-28.217 5.619-32.592 0-56.013-23.421-23.422-23.422-23.422-56.013v-42.718q0-17.346-6-34.151-6-16.805-16.239-31.045 49.94 1 89.674 12.24 34.478 9 62.448 30.931t28.987 64.792q0 7.19-.881 14.309-.88 7.12-4.119 13.12-13.239-10.239-26.859-18.739-13.62-8.5-29.098-14.739 28.478 20.239 48.837 48.097Q463.761-403.087 480-371.37q21.478-51.956 52.48-97.213 31.003-45.258 69.672-83.895-23.239 17.239-45.717 35.978-22.478 18.739-42.718 39.217-7.239-11.239-10.739-23.858-3.5-12.62-3.5-27.098 0-40.703 28.511-69.689 28.51-28.985 69.25-27.985h29.704q23.405 0 41.644-7.239 18.239-7.239 30.239-17.239 14.31-10.216 25.478-24.479 3 68.435-9 122.153-10.171 45.896-36.647 84.144-26.476 38.247-81.505 38.247-14.478 0-27.648-4.128-13.17-4.127-25.308-11.35-10.239 28.239-17.833 57.424-7.594 29.184-12.646 58.967 35.718 6.239 67.196 23.978 31.478 17.739 48.957 49.218 54.717-38.718 86.781-97.19 32.064-58.473 32.064-125.636h122.22q0 80.475-30.528 151.765-30.528 71.289-83.935 124.751-53.407 53.462-124.189 83.94-70.782 30.478-152.25 30.478Z"/></svg>