<svg xmlns="http://www.w3.org/2000/svg" height="24" viewBox="0 -960 960 960" width="24"><path d="M739.218-420v75.479L633.217-450.523v-262.694H370.523L264.521-819.218h368.696q44.305 0 75.153 30.848 30.848 30.848 30.848 75.153V-540l114.695-114.695q12.827-12.826 29.066-6.131 16.239 6.696 16.239 24.653v312.346q0 17.957-16.239 24.653-16.239 6.695-29.066-6.131L739.218-420Zm59.869 373.913L45.521-800.783q-12.695-12.696-12.695-31.109 0-18.413 12.695-31.109 12.696-12.695 31.11-12.695 18.412 0 31.108 12.695l754.696 754.697q12.696 12.695 12.414 31.391-.283 18.696-12.979 31.392-12.696 12.695-31.391 12.413-18.696-.283-31.392-12.979Zm-296-534ZM380.87-462.87ZM151.521-819.218l106.002 106.001h-90.74v466.434h466.434v-90.74l104.871 104.871q-4.522 39.218-34.24 65.544-29.718 26.326-70.631 26.326H166.783q-44.305 0-75.153-30.848-30.848-30.848-30.848-75.153v-466.434q0-40.348 26.326-70.349 26.326-30 65.544-34.522l-1.131-1.13Z"/></svg>