<svg xmlns="http://www.w3.org/2000/svg" height="20" viewBox="0 -960 960 960" width="20"><path d="M455.652-493.74q31.088-34.522 46.783-75.445 15.696-40.924 15.696-83.925 0-42.652-16.826-84.098t-46.783-74.707q8-2 15-2.5t15-.5q69.044 4.522 111.327 52.457 42.282 47.935 42.282 109.63 0 63.957-42.848 111.327T485.652-490.74q-8 0-15.5-.5t-14.5-2.5Zm206.479 330.568V-272.13q0-48.913-18.435-87.24-18.434-38.326-55.826-66.717 78.74 13.174 141.022 47.957 62.283 34.782 62.283 106v108.958H662.131Zm297.044-368.655H715.784v-72h243.391v72Zm-675.697 42.218q-68.479 0-115.849-47.37-47.369-47.37-47.369-115.849 0-68.478 47.369-115.565 47.37-47.088 115.849-47.088 68.479 0 115.566 47.088 47.087 47.087 47.087 115.565 0 68.479-47.087 115.849-47.087 47.37-115.566 47.37ZM-23.74-163.172v-112.349q0-30.687 15.043-56.409 15.044-25.722 42.131-41.983 56.261-34.566 120.343-51.131 64.082-16.565 129.239-16.565 66.854 0 130.114 17.282 63.261 17.283 119.827 49.848 26.087 16.261 41.631 41.797 15.543 25.536 15.543 57.13v112.38H-23.74Zm306.702-424.439q26.69 0 45.929-19.006t19.239-45.695q0-26.689-19.342-45.928-19.341-19.239-45.806-19.239-26.697 0-45.709 19.341-19.012 19.342-19.012 45.806 0 26.698 19.006 45.71 19.006 19.011 45.695 19.011ZM74.261-261.174H492.13v-11.521q0-5.52-3-10.037-3-4.517-8-8.267-44.609-24.305-94.413-38.457-49.804-14.152-103.591-14.152-53.787 0-104.587 13.935-50.8 13.935-93.278 38.674-5 3.75-8 8.267-3 4.517-3 10.037v11.521Zm209.217-391.654Zm0 391.654Z"/></svg>