<svg xmlns="http://www.w3.org/2000/svg" height="20" viewBox="0 -960 960 960" width="20"><path d="M460-515q17-19 22.5-42.119T488-604q0-23.413-5.5-46.206Q477-673 460-693q8-2 15-2.5t15-.5q41-5 69.5 22.5T588-604q0 42-28.5 69.5T490-512q-8 0-15.5-.5T460-515Zm172 251v-24q0-32.446-12-60.223T578-391q55 9 104.5 30.5T732-288v24H632Zm216-278H660v-20h188v20Zm-524 30q-38.55 0-65.275-26.725Q232-565.45 232-604q0-38.55 26.725-65.275Q285.45-696 324-696q38.55 0 65.275 26.725Q416-642.55 416-604q0 38.55-26.725 65.275Q362.55-512 324-512ZM88-264v-32q0-13.407 8.5-25.703Q105-334 121-344q47-29 99.038-42.5 52.039-13.5 103.5-13.5Q375-400 426.5-385.5T527-344q15 10 24 22.297 9 12.296 9 25.703v32H88Zm235.504-268Q353-532 374.5-553.004q21.5-21.005 21.5-50.5Q396-633 374.5-654.5 353-676 323.504-676q-29.495 0-50.5 21.5Q252-633 252-603.504q0 29.495 21.004 50.5Q294.009-532 323.504-532ZM108-284h432v-12q0-9.069-7-17.534Q526-322 513-330q-42-22-90.187-36T323.5-380q-51.126 0-99.313 13.5Q176-353 135-330q-13 8-20 16.466-7 8.465-7 17.534v12Zm216-320Zm0 320Z"/></svg>