<svg xmlns="http://www.w3.org/2000/svg" height="24" viewBox="0 -960 960 960" width="24"><path d="M480-729.231q-27.923 0-47.808-19.884-19.884-19.885-19.884-47.808t19.884-47.808q19.885-19.884 47.808-19.884t47.808 19.884q19.884 19.885 19.884 47.808t-19.884 47.808Q507.923-729.231 480-729.231ZM392.307-120v-503.077H178.461q-8.5 0-14.25-5.758-5.75-5.757-5.75-14.269 0-8.511 5.75-14.242 5.75-5.731 14.25-5.731h603.078q8.5 0 14.25 5.758t5.75 14.269q0 8.512-5.75 14.242-5.75 5.731-14.25 5.731H567.693V-120q0 8.5-5.758 14.25t-14.27 5.75q-8.511 0-14.242-5.75-5.731-5.75-5.731-14.25v-200h-95.384v200q0 8.539-5.758 14.269Q420.792-100 412.281-100q-8.512 0-14.243-5.75T392.307-120Z"/></svg>