<svg xmlns="http://www.w3.org/2000/svg" height="24" viewBox="0 -960 960 960" width="24"><path d="M784-136 136-784q-4-4-4.5-9.5T136-804q5-5 10-5t10 5l648 648q4 4 4.5 9.5T804-136q-5 5-10 5t-10-5ZM607-466l-28-28h84q5.95 0 9.975 4.035 4.025 4.035 4.025 10T672.975-470q-4.025 4-9.975 4h-56ZM433-640l-28-28h369q5.95 0 9.975 4.035 4.025 4.035 4.025 10T783.975-644q-4.025 4-9.975 4H433Zm10 348q-5.95 0-9.975-4.035-4.025-4.035-4.025-10t4.025-9.965q4.025-4 9.975-4h73q5.95 0 9.975 4.035 4.025 4.035 4.025 10T525.975-296q-4.025 4-9.975 4h-73Zm11-174H296q-5.95 0-9.975-4.035-4.025-4.035-4.025-10t4.025-9.965q4.025-4 9.975-4h158v28ZM280-640h-94q-5.95 0-9.975-4.035-4.025-4.035-4.025-10t4.025-9.965q4.025-4 9.975-4h94v28Z"/></svg>