<svg xmlns="http://www.w3.org/2000/svg" height="20" viewBox="0 -960 960 960" width="20"><path d="M318-169v-37H180q-48.7 0-83.35-34.662Q62-275.324 62-324.04v-408.243Q62-781 96.65-815.5T180-850h600q48.7 0 83.35 34.65Q898-780.7 898-732v160H540l19-19q14-14 14.5-31T560-653q-14-14-31-14t-31 14l-84 84q-17 17-17.5 41t15.5 42l87 103q13.267 15 31.133 15Q548-368 564-384q12-12 13-27.5T567-441l-27-43h358v160.258Q898-275 863.35-240.5 828.7-206 780-206H642v37q0 24.3-17.338 41.65Q607.323-110 583.04-110H377.283Q353-110 335.5-127.35T318-169Z"/></svg>