<svg xmlns="http://www.w3.org/2000/svg" height="24" viewBox="0 -960 960 960" width="24"><path d="M402-172q-12.75 0-21.375-8.625T372-202v-50H192q-24.75 0-42.375-17.625T132-312v-416q0-24.75 17.625-42.375T192-788h576q24.75 0 42.375 17.625T828-728v100q0 5.95-4.035 9.975-4.035 4.025-10 4.025T804-618.025q-4-4.025-4-9.975v-100q0-14-9-23t-23-9H192q-14 0-23 9t-9 23v416q0 14 9 23t23 9h576q14 0 23-9t9-23v-162q0-14-9-23t-23-9H450l90 90q4 4 4.5 9.5T540-396q-5 5-10 5t-10-5L417-499q-9-9-9-21t9-21l103-103q4-4 9.5-4.5T540-644q5 5 5 10t-5 10l-90 90h318q26 0 43 17t17 43v162q0 24.75-17.625 42.375T768-252H588v50q0 12.75-8.625 21.375T558-172H402Zm92-348Z"/></svg>