<svg xmlns="http://www.w3.org/2000/svg" height="20" viewBox="0 -960 960 960" width="20"><path d="M375.109-124.782q-20.37 0-34.827-14.306-14.456-14.307-14.456-34.694v-47H174.783q-40.426 0-69.213-28.799-28.788-28.8-28.788-69.242V-737.5q0-40.443 28.788-69.08 28.787-28.638 69.213-28.638h610.434q40.426 0 69.213 28.788 28.788 28.787 28.788 69.213v35.694q0 20.388-14.246 34.694-14.246 14.307-34.544 14.307-20.298 0-34.754-14.307-14.457-14.306-14.457-34.694v-35.694H174.783v418.434h610.434v-168.695H532.174l24.652 24.652Q569.522-450.13 569.805-435q.282 15.13-12.414 27.826-12.695 12.696-28.608 12.696t-28.609-12.696l-87.783-86.217q-14.956-14.798-14.956-34.53 0-19.731 14.956-34.688l87.783-87.782q12.696-12.696 28.326-12.696t28.326 12.696q12.696 12.695 12.696 28.608t-12.696 28.609l-24.652 24.652h253.043q41.005 0 69.503 28.521 28.498 28.52 28.498 69.557v151.929q0 40.458-28.788 69.095-28.787 28.638-69.213 28.638H634.174v47q0 20.387-14.295 34.694-14.295 14.306-34.665 14.306H375.109ZM529.001-518Z"/></svg>