<svg xmlns="http://www.w3.org/2000/svg" height="20" viewBox="0 -960 960 960" width="20"><path d="M365.375-66Q305-66 263.5-108T222-210.429q0-28.848 10.5-55.21Q243-292 264-311l66-66v-95q1-23-6-32t-18-18q-51-41-73.5-82T210-696.27Q210-778 270.75-836 331.5-894 419-894q22 0 39.5 6t33.5 13q6 3 18.5 8t13.5 5q9.5 0 21-13 10.2-7.125 23.6-13.062Q582-894 604-894q60 0 103 43t43 103.169Q750-719 738.5-692 727-665 704-642l-74 74.049V-376l66 65q21.371 19.125 31.686 45.463Q738-239.199 738-210.375 738-150 696-108T593.625-66q-27.824 0-53.662-11.314Q514.125-88.63 493-109q-3-3-5.946-5-2.946-2-7-2-3.054 0-6.554 2-3.5 2-6.5 5-19.125 19.371-45.963 31.186Q394.199-66 365.375-66Zm.25-118q6 0 10.687-2 4.688-2 7.688-5 19.172-18.895 44.448-29.447Q453.724-231 479.862-231q27.138 0 52.013 10.553Q556.75-209.895 576-191q4 3 9 5t9.8 2q10.2 0 16.7-7t7.5-18q0-6.091-1-11.045-1-4.955-5-7.955l-75-74q-14-14-20-29t-6-33v-216q0-17.894 6.5-33.447Q525-629 538-642l84-84q4-4 7-9.94 3-5.94 3-12.06 0-12.333-7.75-20.667Q616.5-777 605-777q-6.95 0-13.975 4.5-7.025 4.5-14.327 8.855L550-745q-6 5-13.5 7.5t-15.833 2.5Q510-735 501-739.5q-9-4.5-17-11.5.714.269-16.143-12.365Q451-776 419-776q-38 0-64.5 23.289T328-696q0 25.678 11 39.339Q350-643 363-630q15-46 36.5-55.5T423-687q3 1 6.522 2 3.521 1 7.478 1 24 0 41.5 17.5T496-625q0 14-6.5 26.5T472-577q-2 1-13 16.8T448-502v137q0 18-6 33t-20 29l-75 75q-3 4-5 9.188-2 5.187-2 11.187 0 10.625 7.5 17.125t18.125 6.5ZM480-481Z"/></svg>