<svg xmlns="http://www.w3.org/2000/svg" height="20" viewBox="0 -960 960 960" width="20"><path d="M356.175-624Q352-624 349-626.875T346-634v-80q0-4.25 2.825-7.125 2.824-2.875 7-2.875 4.175 0 7.175 2.875t3 7.125v80q0 4.25-2.825 7.125-2.824 2.875-7 2.875Zm0 290Q352-334 349-336.875T346-344v-114q0-4.25 2.825-7.125 2.824-2.875 7-2.875 4.175 0 7.175 2.875t3 7.125v114q0 4.25-2.825 7.125-2.824 2.875-7 2.875ZM296-148q-20.75 0-36.375-15.275T244-200v-560q0-21.45 15.625-36.725Q275.25-812 296-812h368q20.75 0 36.375 15.275T716-760v560q0 21.45-15.625 36.725Q684.75-148 664-148H296Zm0-20h368q14 0 23-9t9-23v-336H264v336q0 14 9 23t23 9Zm-32-388h432v-204q0-14-9-23t-23-9H296q-14 0-23 9t-9 23v204Z"/></svg>