<svg xmlns="http://www.w3.org/2000/svg" height="24" viewBox="0 -960 960 960" width="24"><path d="M362.816-633.217q-18.686 0-31.599-12.8t-12.913-31.722v-31.521q0-18.682 12.8-31.319 12.8-12.638 31.722-12.638 18.682 0 31.319 12.638 12.638 12.637 12.638 31.319v32.086q0 18.682-12.64 31.319-12.641 12.638-31.327 12.638Zm0 354.913q-18.686 0-31.599-12.8t-12.913-31.722V-429.26q0-18.682 12.8-31.319 12.8-12.638 31.722-12.638 18.682 0 31.319 12.8 12.638 12.8 12.638 31.722v106.434q0 18.682-12.64 31.319-12.641 12.638-31.327 12.638ZM246.783-60.782q-43.726 0-74.863-31.138-31.138-31.137-31.138-74.863v-626.434q0-43.726 31.138-74.863 31.137-31.138 74.863-31.138h466.434q43.726 0 74.863 31.138 31.138 31.137 31.138 74.863v626.434q0 43.726-31.138 74.863-31.137 31.138-74.863 31.138H246.783Zm0-106.001h466.434v-346.434H246.783v346.434Zm0-426.434h466.434v-200H246.783v200Z"/></svg>