<svg xmlns="http://www.w3.org/2000/svg" height="24" viewBox="0 -960 960 960" width="24"><path d="M480-126.154q0-56.307 25.423-109.884t67.5-95.654q42.077-42.077 95.654-67.5 53.577-25.423 109.885-25.423 0 56.307-25.423 109.884t-67.5 95.654q-42.077 42.077-95.654 67.5Q536.308-126.154 480-126.154Zm45.693-45.692q78.538-21 132.307-74.769 53.769-53.77 74.769-132.308-78.538 21-132.307 74.769-53.769 53.769-74.769 132.308ZM480-126.154q0-56.307-25.423-109.884t-67.5-95.654q-42.077-42.077-95.654-67.5-53.577-25.423-109.885-25.423 0 56.307 25.423 109.884t67.5 95.654q42.077 42.077 95.654 67.5Q423.692-126.154 480-126.154Zm-45.693-45.692q-78.538-21-132.307-74.769-53.769-53.77-74.769-132.308 78.538 21 132.307 74.769 53.769 53.769 74.769 132.308Zm158.924-349.769q21.308 0 37.115-15.808 15.808-15.808 15.808-37.115 0-19.385-10.192-31.423-10.193-12.039-24.5-14.962L568-630.231q-2.461 18.923-11.423 34.346-8.961 15.424-24.423 27.116l28.154 31.461q7.308 7.847 14.961 11.77 7.654 3.923 17.962 3.923ZM568-649.769l43.462-9.308q14.307-2.923 24.384-15.077t10.077-31.308q0-21.307-15.692-37.115-15.692-15.808-37-15.808-10.13 0-17.728 3.923-7.598 3.923-15.195 11.77l-28.385 31.461q15.462 11.692 24.539 27 9.077 15.308 11.538 34.462Zm-123.615-71.462q8.461-3.615 16.923-5.423 8.461-1.808 18.692-1.808t18.692 1.808q8.462 1.808 16.923 5.423l16.539-50.154q6.615-19.538-12.5-36-19.116-16.461-39.654-16.461-20.538 0-39.654 16.461-19.115 16.462-12.5 36l16.539 50.154Zm35.79 129.692q20.671 0 34.479-13.983 13.807-13.983 13.807-34.653 0-20.671-13.983-34.479-13.983-13.807-34.653-13.807-20.671 0-34.479 13.983-13.807 13.983-13.807 34.653 0 20.671 13.983 34.479 13.983 13.807 34.653 13.807ZM480-456.154q20.538 0 39.654-16.461 19.115-16.462 12.5-36l-16.539-50.154q-8.461 3.615-16.923 5.423-8.461 1.808-18.692 1.808t-18.692-1.808q-8.462-1.808-16.923-5.423l-16.539 50.154q-6.615 19.538 12.5 36 19.116 16.461 39.654 16.461Zm-88-193.615q2.461-19.154 11.423-34.462 8.961-15.308 24.423-27l-28.154-31.461q-7.308-7.847-14.961-11.77-7.654-3.923-17.962-3.923-21.308 0-37.115 15.808-15.808 15.808-15.808 37.115 0 19.154 10.192 31.308 10.193 12.154 24.5 15.077L392-649.769Zm-25.231 127.923q10.154 0 17.769-3.423 7.616-3.423 15.154-12.269l28.385-31.231q-15.462-11.692-24.539-27-9.077-15.308-11.538-34.462l-43.462 9.308q-14.307 2.923-24.769 15.077-10.461 12.154-10.461 31.308.23 21.307 16.192 37 15.961 15.692 37.269 15.692ZM480-416.154q-29 0-54.731-18.423t-35.115-47.269q-7.308 0-11.693.116-4.384.115-11.692.115-38.667 0-66.18-27-27.512-27-27.512-65.85 0-15.689 7-33.266 7-17.577 19.461-32.269-11.461-14.692-18.461-32.269-7-17.577-7-33.266 0-38.85 27.066-65.85 27.066-27 65.626-27 7.308 0 11.692.115 4.385.116 11.693.116 9.384-28.846 35.115-47.269T480-863.846q29 0 54.731 18.423t35.115 47.269q7.308 0 11.693-.116 4.384-.115 11.692-.115 38.56 0 65.626 27 27.066 27 27.066 65.85 0 15.689-6.5 33.266-6.5 17.577-18.961 32.269 11.461 13.923 18.461 31.885 7 17.961 7 33.65 0 38.85-27.066 65.85-27.066 27-65.626 27-7.308 0-11.692-.115-4.385-.116-11.693-.116-9.384 28.846-35.115 47.269T480-416.154Zm0-312.308Zm51.923 17.231Zm.231 142.462ZM480-551.538Zm-51.923-17.231Zm-.231-142.462Zm6.461 539.385Zm91.386 0Z"/></svg>