<svg xmlns="http://www.w3.org/2000/svg" height="20" viewBox="0 -960 960 960" width="20"><path d="M480-80q0-74 28.5-139.5T586-334q49-49 114.5-77.5T840-440q0 74-28.5 139.5T734-186q-49 49-114.5 77.5T480-80Zm0 0q0-74-28.5-139.5T374-334q-49-49-114.5-77.5T120-440q0 74 28.5 139.5T226-186q49 49 114.5 77.5T480-80Zm0-480q32 0 55-23t23-55q0-32-23-55t-55-23q-32 0-55 23t-23 55q0 32 23 55t55 23Zm.021 204q-39.329 0-71.095-21.5T363.042-434q-5.042 0-8.734.5-3.693.5-8.308.5-52.825 0-90.413-37.503Q218-508.007 218-560.714q0-21.286 6.75-40.786T245-638q-12-17-19-36.5t-7-40.5q0-52.825 37.062-90.413Q293.123-843 345.923-843q5.077 0 8.769.5 3.693.5 8.308.5 14.118-35 45.884-56.5t71.095-21.5q39.329 0 71.095 21.5t45.884 56.5q5.042 0 8.734-.5 3.693-.5 8.308-.5 52.832 0 89.916 37.503Q741-767.993 741-715.286q0 21.286-6.259 40.786T715-638q12 17 19 36.5t7 40.5q0 52.825-37.062 90.413Q666.877-433 614.077-433q-5.077 0-8.769-.5-3.693-.5-8.308-.5-14.118 35-45.884 56.5T480.021-356Z"/></svg>