<svg xmlns="http://www.w3.org/2000/svg" height="20" viewBox="0 -960 960 960" width="20"><path d="M288-556h170.769q-13.462-13.629-20.577-29.968-7.115-16.34-7.115-38.032 0-6.387.577-12.194.577-5.806 3.73-11.806H312.615q-10.769 0-17.692 6.923T288-623.385V-556Zm339.546 8.615q59.069 0 111.762-13.153Q792-573.692 792-624q0-50.308-52.699-63.462-52.7-13.153-111.77-13.153-59.069 0-111.762 13.153-52.692 13.154-52.692 63.462 0 50.308 52.699 63.462 52.7 13.153 111.77 13.153ZM192.615-232q-23.354 0-39.984-16.631Q136-265.261 136-288.615v-210.77q0-23.354 16.631-39.984Q169.261-556 192.615-556H256v-67.597q0-23.442 16.631-39.922Q289.261-680 312.615-680h135.616q29.154-28.846 78.174-40.731 49.02-11.885 101.134-11.885 71.153 0 133.807 23.731Q824-685.154 824-624v335.385q0 23.354-16.631 39.984Q790.739-232 767.385-232H612v-115q0-6.8-4.547-11.4-4.547-4.6-11.269-4.6-6.723 0-11.453 4.6Q580-353.8 580-347v115H457v-115q0-6.8-4.547-11.4-4.547-4.6-11.269-4.6-6.723 0-11.453 4.6Q425-353.8 425-347v115H303v-115q0-6.8-4.547-11.4-4.547-4.6-11.269-4.6-6.723 0-11.453 4.6Q271-353.8 271-347v115h-78.385Z"/></svg>