<svg xmlns="http://www.w3.org/2000/svg" height="20" viewBox="0 -960 960 960" width="20"><path d="M158-148q-4.25 0-7.125-2.825-2.875-2.824-2.875-7 0-4.175 2.875-7.175t7.125-3h644q4.25 0 7.125 2.825 2.875 2.824 2.875 7 0 4.175-2.875 7.175T802-148H158Zm326-168q-11.05 0-18.525-7.475Q458-330.95 458-342v-299.768q0-11.532 7.475-18.882Q472.95-668 484-668h-8q11.05 0 18.525 7.475Q502-653.05 502-642v299.768q0 11.532-7.475 18.882Q487.05-316 476-316h8ZM158-792q-4.25 0-7.125-2.825-2.875-2.824-2.875-7 0-4.175 2.875-7.175t7.125-3h644q4.25 0 7.125 2.825 2.875 2.824 2.875 7 0 4.175-2.875 7.175T802-792H158Z"/></svg>