<svg xmlns="http://www.w3.org/2000/svg" height="24" viewBox="0 -960 960 960" width="24"><path d="M113.782-60.782q-22.087 0-37.544-15.456-15.456-15.457-15.456-37.544 0-22.088 15.456-37.544 15.457-15.457 37.544-15.457h732.436q22.087 0 37.544 15.457 15.456 15.456 15.456 37.544 0 22.087-15.456 37.544-15.457 15.456-37.544 15.456H113.782ZM460-246.999q-22.087 0-37.544-15.457-15.457-15.457-15.457-37.544v-380q0-22.087 15.457-37.544 15.457-15.457 37.544-15.457h40q22.087 0 37.544 15.457 15.457 15.457 15.457 37.544v380q0 22.087-15.457 37.544-15.457 15.457-37.544 15.457h-40ZM113.782-793.217q-22.087 0-37.544-15.457-15.456-15.456-15.456-37.544 0-22.087 15.456-37.544 15.457-15.456 37.544-15.456h732.436q22.087 0 37.544 15.456 15.456 15.457 15.456 37.544 0 22.088-15.456 37.544-15.457 15.457-37.544 15.457H113.782Z"/></svg>