<svg xmlns="http://www.w3.org/2000/svg" height="24" viewBox="0 -960 960 960" width="24"><path d="M759-46q-131.098 0-259.049-57Q372-160 266-265.5T103-499.282Q46-627.564 46-759q0-32.143 21.143-53.571Q88.286-834 120-834h161q37 0 60 18t31 52l25 119q6 31-.5 53T370-553l-103 90q16 26 37.5 52.5T355-356q26 26 50 45.5t48 33.5l101-98q20-19 44.5-25.5t53.5-.5l111 25q35 10 52.5 31t17.5 55v169q0 32.143-21.5 53.571Q790-46 759-46ZM206-576l65-57-15-75h-82q3 34 10.457 66.941Q191.914-608.118 206-576Zm362 363q33 14 68 23t71 14v-83l-74-17-65 63ZM206-576Zm362 363Zm-42-585q-24 0-41-17t-17-41q0-24 17-41t41-17h330q24 0 41 17t17 41q0 24-17 41t-41 17H526Zm0 171q-24 0-41-17t-17-41q0-24 17-41t41-17h330q24 0 41 17t17 41q0 24-17 41t-41 17H526Zm0 171q-24 0-41-17t-17-41q0-24 17-41t41-17h330q24 0 41 17t17 41q0 24-17 41t-41 17H526Z"/></svg>