<svg xmlns="http://www.w3.org/2000/svg" height="20" viewBox="0 -960 960 960" width="20"><path d="M714-64q-127.098-9-241.049-62Q359-179 267-270.5T123.5-475.782Q72-589.564 62-717q-2-35.143 21.429-60.071Q106.857-802 142-802h135q40 0 64.5 19t34.5 56l23 85q6 28-1 51t-27 40l-103 90q16 27 36 53.5t47.453 53.484Q376-329 399.5-310.5 423-292 447-280l106-100q18.579-18 40.789-24Q616-410 644-403l80 20q38 10 56.5 33.5T799-288v143q0 35.571-25.5 59.286Q748-62 714-64ZM212-568l69-61-15.16-55H183q3 31 10.457 59.441Q200.914-596.118 212-568Zm346 348q29.1 11.243 60.05 18.622Q649-194 681-187v-85l-55-14-68 66ZM212-568Zm346 348Zm-11.714-570Q524-790 508-805.789q-16-15.79-16-38Q492-866 507.841-882t38.127-16h297.746Q866-898 882-882.211q16 15.79 16 38Q898-822 882.159-806t-38.127 16H546.286Zm0 155Q524-635 508-650.789q-16-15.79-16-38Q492-711 507.841-727t38.127-16h297.746Q866-743 882-727.211q16 15.79 16 38Q898-667 882.159-651t-38.127 16H546.286Zm0 155Q524-480 508-495.789q-16-15.79-16-38Q492-556 507.841-572t38.127-16h297.746Q866-588 882-572.211q16 15.79 16 38Q898-512 882.159-496t-38.127 16H546.286Z"/></svg>