<svg xmlns="http://www.w3.org/2000/svg" height="20" viewBox="0 -960 960 960" width="20"><path d="M661.918-148q-90.245-9-177.984-54.5Q396.196-248 321.5-323q-74.5-75-119-162.5T148-663q-2-21.429 12.286-37.214Q174.571-716 196-716h54q20 0 34 11.5t21 31.5l16 48q3 14-1.5 28T305-575l-85 77q26 48 55 88t61.969 73.984Q372-301 413.821-270.647 455.642-240.293 507-214l88-87q8.579-10 17.789-12Q622-315 636-313l37 9q20 5 31.5 20.191Q716-268.618 716-248v52q0 21.429-16.309 35.714Q683.382-146 661.918-148ZM514.286-792q-4.236 0-7.261-2.825-3.025-2.824-3.025-7 0-4.175 2.866-7.175t7.102-3h287.746q4.236 0 7.261 2.825 3.025 2.824 3.025 7 0 4.175-2.866 7.175t-7.102 3H514.286Zm0 112q-4.236 0-7.261-2.825-3.025-2.824-3.025-7 0-4.175 2.866-7.175t7.102-3h287.746q4.236 0 7.261 2.825 3.025 2.824 3.025 7 0 4.175-2.866 7.175t-7.102 3H514.286Zm0 112q-4.236 0-7.261-2.825-3.025-2.824-3.025-7 0-4.175 2.866-7.175t7.102-3h287.746q4.236 0 7.261 2.825 3.025 2.824 3.025 7 0 4.175-2.866 7.175t-7.102 3H514.286Z"/></svg>