<svg xmlns="http://www.w3.org/2000/svg" height="20" viewBox="0 -960 960 960" width="20"><path d="M483.077-232q-103.25 0-175.625-72.339-72.375-72.34-72.375-175.539 0-103.199 72.375-175.661Q379.827-728 483.077-728q67.308 0 122.038 32.384 54.731 32.385 87.808 85.077V-712q0-6.8 4.547-11.4 4.548-4.6 11.27-4.6 6.722 0 11.453 4.6 4.73 4.6 4.73 11.4v124.923q0 12.031-8.138 20.169-8.139 8.139-20.169 8.139H571.692q-6.8 0-11.4-4.547-4.6-4.548-4.6-11.27 0-6.722 4.6-11.452 4.6-4.731 11.4-4.731h95q-28.231-47.846-76.384-76.539Q542.154-696 483.077-696q-90 0-153 63t-63 153q0 90 63 153t153 63q78.468 0 138.349-49.731 59.882-49.73 75.574-124.884-.615-7.846 4.962-13.539 5.577-5.692 12.537-6 7.424-.307 12.194 3.5 4.769 3.808 6.384 11.654-15.308 91.385-85.388 151.193Q577.609-232 483.077-232Z"/></svg>