<svg xmlns="http://www.w3.org/2000/svg" height="24" viewBox="0 -960 960 960" width="24"><path d="M784-640q-33.557 0-57.279-23.5Q703-687 703-721t23.721-57.5Q750.443-802 784-802t57.279 23.721Q865-754.557 865-721q0 34-23.721 57.5Q817.557-640 784-640Zm-609 0q-33.557 0-57.279-23.5Q94-687 94-721t23.721-57.5Q141.443-802 175-802t57.279 23.721Q256-754.557 256-721q0 34-23.721 57.5Q208.557-640 175-640Zm167-41q11-40 7-62.5T320-795q-33-40-42-75t1-91h61q-8 55-3.5 77t28.5 51q32 38 41 74t-2 78h-62Zm120 0q11-40 7-62.5T440-795q-33-40-42-75t1-91h61q-10 45-5 72t30 56q32 38 41 74t-2 78h-62Zm120 0q11-40 7-62.5T560-795q-33-40-42-75t1-91h61q-10 45-4.5 72t29.5 56q32 38 41 74t-2 78h-62ZM34-34v-452h60v-18q0-38.853 27.02-66.427Q148.041-598 187-598q23.111 0 44.056 10.5Q252-577 268-560l67 74h289l68-74q16-17 36.622-27.5T772-598q38.959 0 65.98 27.573Q865-542.853 865-504v18h61v452H34Zm126-292h640v-34H160v34Zm0 166h640v-40H160v40Zm320-166Zm0 126Zm0 0v-126 126Z"/></svg>