<svg xmlns="http://www.w3.org/2000/svg" height="20" viewBox="0 -960 960 960" width="20"><path d="M276.435-213.999q-58.217 0-96.196-38.956-37.978-38.957-33.413-89.522h-20.043q-34.787 0-63.568-28.499-28.78-28.498-28.78-69.503v-295.042q0-41.005 28.497-69.503 28.498-28.499 69.503-28.499h460.026q21.452 0 39.061 8.414 17.609 8.413 31.435 24.804l154 193q10.261 12.57 15.392 26.855 5.13 14.285 5.13 29.45v89.392q38.609 8.826 62.783 43.697 24.173 34.871 24.173 75.434 0 54.956-36.761 91.717-36.761 36.761-91.717 36.761-56.218 0-92.914-39.239-36.695-39.239-35.749-89.239H405.479q1.696 51.695-36.13 90.087-37.826 38.391-92.914 38.391ZM132.435-576h171.522v-159.521H132.435V-576Zm243.522 135.521h180v-295.042h-180V-576h71.752q15.248 0 25.748 10.289 10.5 10.29 10.5 25.5 0 15.211-10.35 25.711-10.35 10.5-25.65 10.5h-72v63.521Zm252-135.521h88.695l-88.695-110.869V-576ZM276.435-294.477q20.4 0 34.2-14.5 13.8-14.5 13.8-33.5t-13.8-33.5q-13.8-14.5-34.2-14.5-20.4 0-34.2 14.5-13.8 14.5-13.8 33.5t13.8 33.5q13.8 14.5 34.2 14.5Zm519.522 0q20.4 0 34.2-14.5 13.8-14.5 13.8-33.5t-13.8-33.5q-13.8-14.5-34.2-14.5-20.4 0-34.2 14.5-13.8 14.5-13.8 33.5t13.8 33.5q13.8 14.5 34.2 14.5ZM499.174-37l-170.391-84.913q-8.261-3.565-6.373-13.391 1.889-9.826 11.96-9.826h99.891v-60.218q0-13.292 11.626-20.82 11.626-7.528 23.983-.832l170.391 84.913q8.261 3.565 6.373 13.391-1.889 9.826-11.96 9.826h-99.891v60.218q0 13.292-11.626 20.82-11.626 7.528-23.983.832Z"/></svg>