<svg xmlns="http://www.w3.org/2000/svg" height="24" viewBox="0 -960 960 960" width="24"><path d="M184.615-200q-26.846 0-45.731-18.884Q120-237.769 120-264.615v-430.77q0-26.846 18.884-45.731Q157.769-760 184.615-760H200v57.077L89.384-813.538q-5.846-5.847-6.23-13.885-.385-8.039 6.23-14.654 6.616-6.615 14.27-6.615t14.269 6.615l740.615 740.615q5.847 5.847 6.231 13.77.385 7.923-6.231 14.538-6.615 6.616-14.269 6.616T830-73.154L702.923-200H184.615Zm0-40h478.308l-400-400H160v375.385q0 10.769 6.923 17.692T184.615-240Zm649.462 1.616L800-272.462V-640H432.462L312.461-760h462.924q26.846 0 45.731 18.884Q840-722.231 840-695.385v430.77q0 6.923-1.615 13.731-1.616 6.807-4.308 12.5Z"/></svg>