<svg xmlns="http://www.w3.org/2000/svg" height="24" viewBox="0 -960 960 960" width="24"><path d="M522-55.13v-108q32.304-4.435 63.391-16.87 31.087-12.435 59.522-32.87l75.218 76.088q-42.565 35.392-92.804 56.022Q577.087-60.13 522-55.13Zm-80 0Q296.087-73.693 199.434-180.563q-96.652-106.87-96.652-251.218 0-77.261 28.5-145.87 28.5-68.609 77.847-120.218 49.348-51.609 115.696-81.804 66.348-30.196 143.044-30.196h3.739l-50.695-51.26 74.088-74.958L673.089-758 495.001-579.912 420.913-654l49.869-49.869h-4.609q-109.652 0-183.521 81.5-73.869 81.5-73.869 190.587 0 100.608 65.739 176.565Q340.261-179.261 442-163.13v108Zm336.131-139.086-76.653-74.654q20.435-28.434 32.87-59.239 12.434-30.804 17.434-63.673h107.436q-5 53.956-25.63 103.631-20.631 49.674-55.457 93.935Zm81.087-277.566H751.782q-5.565-32.87-18-64.239-12.434-31.37-32.869-59.805l77.218-72.957q35.392 42.392 55.805 92.783 20.413 50.391 25.282 104.218Z"/></svg>