<svg xmlns="http://www.w3.org/2000/svg" height="24" viewBox="0 -960 960 960" width="24"><path d="M522-120v-42q34-5 66.5-18t61.5-34l28.308 28.769q-34.308 25.847-73.769 42.27Q565.077-126.538 522-120Zm-80 0q-120.308-15.692-200.154-106.038Q162-316.385 162-438q0-66.539 25.038-124.731 25.039-58.192 68.539-101.692 43.5-43.5 101.692-68.539Q415.461-758 482-758h30.615l-83.538-83.539 28.308-28.769L589.693-738 457.385-605.692 429.077-634l84-84H482q-117 0-198.5 81.5T202-438q0 104 68 182.5t172 95.038V-120Zm292.769-121.692L706-270q21-29 34.385-61.115 13.384-32.116 19.153-66.885H800q-5 42.308-21.807 81.769-16.808 39.462-43.424 74.539ZM800-478h-40.462q-5.769-34.769-19.153-66.885Q727-577 706-606l28.769-28.308q25.847 32.077 42.539 71.769Q794-522.846 800-478Z"/></svg>