<svg xmlns="http://www.w3.org/2000/svg" height="24" viewBox="0 -960 960 960" width="24"><path d="M563.077-480q-24.539 0-41.5-17.346-16.962-17.346-16.962-42.654v-160q0-25.308 16.962-42.654Q538.538-760 563.077-760h62.308q23.769 0 39.192 17.346Q680-725.308 680-700v160q0 25.308-15.423 42.654Q649.154-480 625.385-480h-62.308Zm0-40h62.308q6.923 0 10.769-5.769T640-540v-160q0-8.462-3.846-14.231T625.385-720h-62.308q-7.692 0-13.077 5.769T544.615-700v160q0 8.462 5.385 14.231T563.077-520ZM380-280q-15.462 0-27.616-8.961-12.153-8.962-17.077-23.424L242.231-629q-2-4.231-2.116-8.692-.115-4.462-.115-9.693V-740q0-8.539 5.731-14.269Q251.461-760 260-760q8.538 0 14.269 5.731Q280-748.539 280-740v100l95.385 320H660q8.539 0 14.269 5.731Q680-308.538 680-300q0 8.539-5.731 14.269Q668.539-280 660-280H380Zm-23.846 120q-8.539 0-14.269-5.731-5.731-5.73-5.731-14.269 0-8.538 5.731-14.269 5.73-5.731 14.269-5.731h303.077q8.538 0 14.269 5.731T679.231-180q0 8.539-5.731 14.269Q667.769-160 659.231-160H356.154Zm206.923-560h-18.462H640h-76.923Z"/></svg>