<svg xmlns="http://www.w3.org/2000/svg" height="24" viewBox="0 -960 960 960" width="24"><path d="M558.87-450.174q-38.596 0-66.081-26.987-27.485-26.987-27.485-64.884v-185.303q0-37.897 27.485-64.884 27.485-26.986 66.081-26.986h82.26q38.596 0 66.081 26.986 27.485 26.987 27.485 64.884v185.303q0 37.897-27.485 64.884-27.485 26.987-66.081 26.987h-82.26Zm12.435-106.002h57.39v-157.041h-57.39v157.041ZM376.043-246.783q-31.423 0-55.864-17.761t-34.136-47.152l-100.566-320.13q-2.565-7.826-3.63-15.899t-1.065-16.145v-102.348q0-22.087 15.456-37.544 15.457-15.456 37.544-15.456 22.088 0 37.544 15.456 15.457 15.457 15.457 37.544v107.565l97.739 305.869h297.174q22.087 0 37.544 15.456 15.456 15.457 15.456 37.544 0 22.088-15.456 37.544-15.457 15.457-37.544 15.457H376.043Zm-20 146.001q-22.087 0-37.544-15.456-15.456-15.457-15.456-37.544 0-22.088 15.456-37.544 15.457-15.457 37.544-15.457h325.653q22.087 0 37.544 15.457 15.456 15.456 15.456 37.544 0 22.087-15.456 37.544-15.457 15.456-37.544 15.456H356.043Zm215.262-612.435h57.39-57.39Z"/></svg>