<svg xmlns="http://www.w3.org/2000/svg" height="20" viewBox="0 -960 960 960" width="20"><path d="M480-137.538Q363.461-171.307 285.731-276.92 208-382.532 208-515v-201.308l272-104.615 272 104.615V-515q0 132.468-77.731 238.08Q596.539-171.307 480-137.538Zm0-340.693Zm.212 70.231Q510-408 531-429.212q21-21.213 21-51Q552-510 530.788-531q-21.213-21-51-21Q450-552 429-530.788q-21 21.213-21 51Q408-450 429.212-429q21.213 21 51 21ZM480-171q49.987-16.308 92.532-48.308 42.545-32 74.314-75.153L543.769-397.538q-13.923 11.769-29.615 16.654Q498.462-376 480-376q-43.846 0-73.923-30.077Q376-436.154 376-480q0-43.846 30.077-73.923Q436.154-584 480-584q43.846 0 73.923 30.077Q584-523.846 584-480q0 16.154-5 31.185-5 15.032-13.461 27.969l100 100q26.615-44.077 40.538-92.808Q720-462.385 720-515v-180l-240-91.231L240-695v180q0 118.25 68 215t172 129Z"/></svg>