<svg xmlns="http://www.w3.org/2000/svg" height="24" viewBox="0 -960 960 960" width="24"><path d="M480-71.63q-142.532-35.672-235.331-162.562-92.8-126.89-92.8-281.808v-249.61L480-888.37l328.131 122.76V-516q0 154.918-92.8 281.808Q622.532-107.302 480-71.63Zm0-407.892Zm.032 75.935q31.533 0 53.957-22.456 22.424-22.455 22.424-53.989 0-31.533-22.456-53.957-22.455-22.424-53.989-22.424-31.533 0-53.957 22.456-22.424 22.455-22.424 53.989 0 31.533 22.456 53.957 22.455 22.424 53.989 22.424ZM480-166.63q43.565-14.479 80.728-41 37.163-26.522 67.685-63.327l-69.848-69.847q-17.761 10.521-37.782 15.663Q500.761-320 480-320q-66 0-113-47t-47-113q0-66 47-113t113-47q66 0 113 47t47 113q0 21.522-5.141 41.783-5.142 20.26-15.663 38.782l56.369 56.37q19.522-39.283 30.544-82.695Q717.13-469.173 717.13-516v-186.732L480-791.652l-237.13 88.92V-516q0 119.804 67.402 217.37 67.402 97.565 169.728 132Z"/></svg>