<svg xmlns="http://www.w3.org/2000/svg" height="24" viewBox="0 -960 960 960" width="24"><path d="M480-65.912q-8.696 0-16.957-1.283-8.261-1.282-16.522-3.848-138.956-46.13-222.348-173.848Q140.782-372.609 140.782-516v-183.913q0-33.478 19.022-60.261t49.935-38.61l233.217-87.173q17.957-6.696 37.044-6.696 19.087 0 37.044 6.696l233.217 87.173q30.913 11.827 49.935 38.61 19.022 26.783 19.022 60.261V-516q0 65.826-17.065 128.152-17.065 62.327-50.326 117.457l-131.001-131q9.87-17.87 14.522-37.805Q640-459.13 640-480q0-66-47-113t-113-47q-66 0-113 47t-47 113q0 66 47 113t113 47q20.435 0 39.804-4.652 19.37-4.652 36.805-14.522l142.565 141.566q-38 43.304-84.63 75.935-46.631 32.63-101.065 50.63-8.261 2.566-16.522 3.848-8.261 1.283-16.957 1.283Zm0-342.567q-29.609 0-50.565-20.956-20.956-20.956-20.956-50.565 0-29.609 20.956-50.565 20.956-20.956 50.565-20.956 29.609 0 50.565 20.956 20.956 20.956 20.956 50.565 0 29.609-20.956 50.565-20.956 20.956-50.565 20.956Z"/></svg>