<svg xmlns="http://www.w3.org/2000/svg" height="20" viewBox="0 -960 960 960" width="20"><path d="M480-87.63q-138.532-33.672-229.331-155.905-90.8-122.233-90.8-271.465v-234.61L480-872.37l320.131 122.76V-515q0 149.232-90.8 271.465Q618.532-121.302 480-87.63Zm0-390.892Zm.244 66.935q28.321 0 48.245-20.168 19.924-20.168 19.924-48.489 0-28.321-20.168-48.245-20.168-19.924-48.489-19.924-28.321 0-48.245 20.168-19.924 20.168-19.924 48.489 0 28.321 20.168 48.245 20.168 19.924 48.489 19.924ZM480-173.63q43.937-14.479 81.414-41 37.477-26.522 67.999-62.327l-77.848-77.847q-16.761 10.521-34.282 14.663Q499.761-336 480-336q-60 0-102-42t-42-102q0-60 42-102t102-42q60 0 102 42t42 102q0 19.522-4.641 37.391-4.642 17.869-14.163 34.174l67.369 67.37q21.522-40.283 33.044-83.695Q717.13-468.173 717.13-515v-177.732L480-783.652l-237.13 90.92V-515q0 117.054 67.402 212.37 67.402 95.315 169.728 129Z"/></svg>