<svg xmlns="http://www.w3.org/2000/svg" height="24" viewBox="0 -960 960 960" width="24"><path d="M235.784-713.782h488.432l-34-40H269.784l-34 40Zm174.39 258.695L480-490l69.826 34.913v-158.346H410.174v158.346ZM206.783-100.782q-44.305 0-75.153-30.848-30.848-30.848-30.848-75.153v-471.868q0-19.087 6.478-36.327 6.478-17.239 18.41-31.607l66.287-79.677q14.391-17.391 34.732-25.456 20.34-8.066 42.529-8.066h421.564q22.189 0 42.529 8.066 20.341 8.065 34.732 25.456l66.287 79.677q11.932 14.368 18.41 31.607 6.478 17.24 6.478 36.327v113.564q-27.783 0-53.935 3.848-26.153 3.848-52.066 19.63v-71.824H650.174v168.259L547.173-342.738 480-377.39l-93.521 46.478q-26.783 13.391-51.718-2.065-24.935-15.457-24.935-45.24v-235.216H206.783v406.65h269.826v106.001H206.783Zm443.391-512.651h103.043H650.174Zm-443.391 0H547.173h-340.39Zm349.826 459.651v-63.739q0-10.827 4.13-20.305 4.131-9.478 11.826-17.174L781-463q10.696-10.796 23.768-15.594 13.073-4.797 26.145-4.797 14.261 0 27.267 5.347 13.006 5.348 23.647 16.044l37 37q9.596 10.696 14.994 23.768 5.397 13.073 5.397 26.145 0 13.827-4.848 27.022-4.847 13.196-15.543 23.892l-208 208q-7.615 7.696-17.134 11.544-9.519 3.847-20.345 3.847h-63.739q-22.087 0-37.544-15.456-15.456-15.457-15.456-37.544Zm311.304-221.305-37-37 37 37Zm-240 203h38l118.739-119.739-18-19-19-18-119.739 118.739v38Zm138.739-138.739-19-18 37 37-18-19Z"/></svg>