<svg xmlns="http://www.w3.org/2000/svg" height="20" viewBox="0 -960 960 960" width="20"><path d="M216-144q-29.7 0-50.85-21.15Q144-186.3 144-216v-474q0-14.35 5.5-27.675Q155-731 164.763-740.778L219-795q11-11 23.941-16 12.941-5 27.059-5h420q14.471 0 27.735 5Q731-806 741-795l54 54q11 10 16 23.325T816-690v138q-22 0-43.5 10T735-517L624-407v-217H336v229.585q0 20.707 17 31.061t35.033 1.338L480-408l97 48-52 52q-11 11-16 24.043-5 13.044-5 26.957v113H216Zm360-36v-62.432q0-7.568 3-14.068t8-11.5l199-198q7.258-7.412 16.129-10.706Q811-480 819.759-480q9.556 0 18.315 3.5Q846.833-473 854-466l44 45q6.588 7.258 10.294 16.129Q912-396 912-387.241q0 8.76-3.294 17.917Q905.412-360.167 898-353L700-155q-5 5-11.5 8t-14.068 3H612q-15.3 0-25.65-10.35Q576-164.7 576-180Zm243-161 45-46-45-45-45 46 45 45ZM222-696h516l-48-48H270l-48 48Z"/></svg>