<svg xmlns="http://www.w3.org/2000/svg" height="20" viewBox="0 -960 960 960" width="20"><path d="M228-110q-49.7 0-83.85-34.15Q110-178.3 110-228v-426q0-23.35 9-44.175 9-20.825 23.763-36.603L226-822q17-17 36.941-23 19.941-6 41.059-6h352q21.471 0 41.735 6Q718-839 734-822l83 87q16 16 24.5 36.825Q850-677.35 850-654v93q-34 0-62 10t-54 34l-92 92v-152H318v194.585q0 32.707 27.5 50.061t57.533 2.338L480-368l69 35-17 18q-18 18-26 38.543-8 20.544-8 44.457v122H228Zm342-59v-58.432Q570-240 575-250q5-10 13-18l198-198q10.258-10.412 22.629-15.206Q821-486 833.759-486q13.556 0 25.815 5 12.259 5 22.426 15l44 45q9.588 10.258 14.794 22.629Q946-386 946-373.241q0 13.76-4.794 25.917Q936.412-335.167 926-325L728-127q-8 8-18 12.5t-22.568 4.5H629q-24.3 0-41.65-17.35Q570-144.7 570-169Zm273-168 35-36-45-45-35 36 45 45ZM257-685h446l-48-48H305l-48 48Z"/></svg>