<svg xmlns="http://www.w3.org/2000/svg" height="20" viewBox="0 -960 960 960" width="20"><path d="M516-611.786V-739q0-11.05 7.552-18.525Q531.104-765 542.267-765h195.869q11.164 0 18.514 7.475T764-739v92q0 11.05-7.475 18.525Q749.05-621 738-621H556l-17 17q-5 5-14 2.336-9-2.663-9-10.122ZM536-641h208v-104H536v104Zm0 0v-104 104Zm174 444q-90-9-178-54.5T369.5-372Q295-447 250-534.5T196-712q-2-21.429 12.286-37.214Q222.571-765 244-765h54q20 0 34 11.5t21 31.5l16 49q3 14-1.5 28T353-623l-85 77q26 48 55 88t61.969 73.984Q420-349 462-319q42 30 93 56l88-87q9-10 18-12t23 0l37 9q20 5 31.5 20t11.5 36v52q0 21.429-16.286 35.714Q731.429-195 710-197ZM260-566l84-76q5-4 6.5-11t-.5-13l-18.16-63q-2-8-7-12t-13-4H231q-6 0-10 4t-4 10q0 38 12.5 80t30.5 85Zm318 312q37.1 18.243 80.55 26.122Q702-220 730-218q6 0 10-4t4-10v-80q0-8-4-13t-12-7l-49-11q-6-2-10.5-.5T659-337l-81 83ZM260-566Zm318 312Z"/></svg>