<svg xmlns="http://www.w3.org/2000/svg" height="24" viewBox="0 -960 960 960" width="24"><path d="M805-169H506q-15.31 0-26.155-10.845T469-206v-60.761Q469-271 478-292l196-221q31-35 43-54t12-41q0-22.513-16-40.757Q697-667 665-667q-20.222 0-34.611 8Q616-651 605-637q-15 20-37.5 27.5t-45.16-1.364q-25.68-10.341-37.01-33.238Q474-667 487-688q27-45 72-74t107.113-29Q755-791 806-737.562 857-684.125 857-611q0 52-24 92.5T765-427L647-290v1h158q25.5 0 42.75 17.25T865-229q0 25.5-17.25 42.75T805-169ZM350-385H150q-23.375 0-39.188-15.812Q95-416.625 95-440t15.812-39.188Q126.625-495 150-495h200q23.375 0 39.188 15.812Q405-463.375 405-440t-15.812 39.188Q373.375-385 350-385Z"/></svg>