<svg xmlns="http://www.w3.org/2000/svg" height="20" viewBox="0 -960 960 960" width="20"><path d="M628-244q-8 5-18 10t-21 10q-4 1-9.5 0t-6.5-4.452q-1-3.548 1-8.048t6-5.5q12.211-4.6 22.605-10.3Q613-258 619-264L458-414v70.83q0 7.283-7 9.727Q444-331 439-336l-99-99h-88q-11.3 0-18.65-7.35Q226-449.7 226-461v-36q0-11.3 7.35-18.65Q240.7-523 252-523h96L159.189-712.749Q155-717 154.5-720t4.5-8q5-5 7.5-5t7.5 5l568 568q4 4 4.5 6.5T742-146q-5 5-7.5 5t-7.5-5l-99-98Zm70-62-13-13q26-33 41.5-73.864 15.5-40.863 15.5-86.131Q742-556 698.5-620t-114.343-95.341Q579-718 576-722t1-8q3-5 9.34-5 6.341 0 12.66 3 73 35 118 102.442T762-480q0 48.139-17 92.07Q728-344 698-306Zm-94-94-34-33.867v-135.684q0-7.449 6.5-9.949T588-578q19 21 28.5 46t9.5 52.61q0 21.451-5 41.42Q616-418 604-400ZM458-546l-47-48 28.073-28.073Q444-627 451-624.623q7 2.378 7 9.491V-546Zm-20 181v-69l-88-88-18 19h-86v48h102l90 90Zm-44-113Z"/></svg>