<svg xmlns="http://www.w3.org/2000/svg" height="20" viewBox="0 -960 960 960" width="20"><path d="m88.087-425.13 220.392-355.305q71.304 30.869 130.608 89.891 59.304 59.021 94.435 131.76 35.435-38.304 78.369-60.391Q654.826-641.262 736-664.262q40-11 71-22t57-25v405.35L585.348-130.434q-17 11-42.391 18.065-25.392 7.065-48.392 7.065-29 0-59.456-11.065-30.457-11.065-53.718-33.891L88.086-425.13Zm324.609 107.696q15.695 0 28.456-11.131 12.761-11.13 14.892-26.826v2.261q0 1.131.565 2.261h2.261q16.826-1 28.305-13.761 11.478-12.761 11.478-29.587t-13.261-30.087q-13.261-13.261-30.087-13.261-7 0-13.283 1.435-6.282 1.434-12.413 6.434l-110.565-110q6.696-6.695 10.261-14.326 3.565-7.63 3.565-17.326 0-16.826-13.261-30.087t-30.087-13.261q-17.261 0-29.739 11.413-12.479 11.413-13.609 28.109v-2.261q0-1.131-.565-2.261h-2.827q-16.826 1-28.304 13.761-11.479 12.761-11.479 29.587t13.261 30.087Q229.521-493 246.348-493q8 0 14.565-2.5 6.565-2.5 12.696-6.935l109.565 110q-6.131 6.696-9.979 14.326-3.847 7.631-3.847 17.327 0 16.826 13.261 30.087t30.087 13.261Z"/></svg>