<svg xmlns="http://www.w3.org/2000/svg" height="24" viewBox="0 -960 960 960" width="24"><path d="M260-318.462q52.385 0 101.885 12.039 49.5 12.038 98.115 39.192v-392.461q-43.308-30.923-95.462-46.385Q312.385-721.538 260-721.538q-36 0-63.039 4.307-27.038 4.308-60.038 16-9.231 3.077-13.077 8.846-3.846 5.77-3.846 12.693v360.615q0 10.769 7.692 15.769 7.693 5 16.923 1.154 21.923-7.384 50.654-11.846Q224-318.462 260-318.462Zm240 51.231q48.615-27.154 98.115-39.192 49.5-12.039 101.885-12.039 36 0 64.731 4.462 28.731 4.462 50.654 11.846 9.23 3.846 16.923-1.154 7.692-5 7.692-15.769v-360.615q0-6.923-3.846-12.308t-13.077-9.231q-33-11.692-60.038-16Q736-721.538 700-721.538q-52.385 0-104.538 15.461-52.154 15.462-95.462 46.385v392.461Zm-20 45.462q-9.385 0-17.269-2.346-7.885-2.346-15.039-6.039-43.615-23.769-90.846-36.038-47.231-12.269-96.846-12.269-31.231 0-61.346 5.231Q168.538-268 140-256.461q-21.769 8.692-40.885-5.231Q80-275.615 80-300.153v-386.616q0-14.847 7.807-27.539Q95.615-727 109.692-732q35.231-15.539 73.308-22.539 38.077-7 77-7 58.769 0 114.654 16.923Q430.538-727.693 480-695.385q49.462-32.308 105.346-49.231Q641.231-761.539 700-761.539q38.923 0 77 7T850.308-732q14.077 5 21.885 17.692Q880-701.616 880-686.769v386.616q0 24.538-20.654 37.692-20.653 13.154-43.961 4.461-27.769-10.769-56.731-15.615-28.962-4.846-58.654-4.846-49.615 0-96.846 12.269t-90.846 36.038q-7.154 3.693-15.039 6.039-7.884 2.346-17.269 2.346ZM290-499.385Z"/></svg>