<svg xmlns="http://www.w3.org/2000/svg" height="20" viewBox="0 -960 960 960" width="20"><path d="M128.479-172.782q-41.005 0-69.503-28.498-28.499-28.498-28.499-69.503v-418.434q0-41.005 28.499-69.503 28.498-28.498 69.503-28.498h418.434q41.005 0 69.503 28.498 28.498 28.498 28.498 69.503v418.434q0 41.005-28.498 69.503-28.498 28.498-69.503 28.498H128.479ZM313.696-372 267-433.261q-4.435-6.869-12.304-7.152-7.87-.283-12.305 6.587l-54.521 72.783q-5.87 7.869-1.28 16.456Q191.179-336 200.609-336h274.174q9.369 0 13.489-8.587 4.119-8.587-1.75-16.456l-78.087-102.218q-4.743-5.869-12.176-5.869t-11.868 5.869L313.696-372Zm433.211 199.218q-16.906 0-28.819-11.763-11.914-11.763-11.914-28.759v-533.392q0-16.996 11.703-28.759 11.703-11.763 28.609-11.763 16.906 0 28.819 11.763t11.913 28.759v533.392q0 16.996-11.702 28.759-11.703 11.763-28.609 11.763Zm142.304 0q-16.906 0-28.819-11.763t-11.913-28.759v-533.392q0-16.996 11.702-28.759 11.703-11.763 28.609-11.763 16.906 0 28.819 11.763 11.914 11.763 11.914 28.759v533.392q0 16.996-11.703 28.759-11.703 11.763-28.609 11.763Z"/></svg>