<svg xmlns="http://www.w3.org/2000/svg" height="20" viewBox="0 -960 960 960" width="20"><path d="M255.384-174.477q-33.254 0-57.08-24.039-23.827-24.039-23.827-57.293t24.039-56.722Q222.555-336 255.809-336t56.722 23.681Q336-288.638 336-255.384q0 33.254-23.681 57.08-23.681 23.827-56.935 23.827Zm224.479 0q-33.254 0-56.798-24.039-23.544-24.039-23.544-57.293t23.681-56.722Q446.883-336 480.137-336q33.254 0 56.798 23.681 23.544 23.681 23.544 56.935 0 33.254-23.681 57.08-23.681 23.827-56.935 23.827Zm224.328 0q-33.254 0-56.722-24.039Q624-222.555 624-255.809t23.681-56.722Q671.362-336 704.616-336q33.254 0 57.08 23.681 23.827 23.681 23.827 56.935 0 33.254-24.039 57.08-24.039 23.827-57.293 23.827ZM255.384-399.521q-33.254 0-57.08-23.681-23.827-23.681-23.827-56.935 0-33.254 24.039-56.798 24.039-23.544 57.293-23.544t56.722 23.681Q336-513.117 336-479.863q0 33.254-23.681 56.798-23.681 23.544-56.935 23.544Zm224.479 0q-33.254 0-56.798-23.681-23.544-23.681-23.544-56.935 0-33.254 23.681-56.798 23.681-23.544 56.935-23.544 33.254 0 56.798 23.681 23.544 23.681 23.544 56.935 0 33.254-23.681 56.798-23.681 23.544-56.935 23.544Zm224.328 0q-33.254 0-56.722-23.681Q624-446.883 624-480.137q0-33.254 23.681-56.798 23.681-23.544 56.935-23.544 33.254 0 57.08 23.681 23.827 23.681 23.827 56.935 0 33.254-24.039 56.798-24.039 23.544-57.293 23.544ZM255.384-624q-33.254 0-57.08-23.681-23.827-23.681-23.827-56.935 0-33.254 24.039-57.08 24.039-23.827 57.293-23.827t56.722 24.039Q336-737.445 336-704.191t-23.681 56.722Q288.638-624 255.384-624Zm224.479 0q-33.254 0-56.798-23.681-23.544-23.681-23.544-56.935 0-33.254 23.681-57.08 23.681-23.827 56.935-23.827 33.254 0 56.798 24.039 23.544 24.039 23.544 57.293t-23.681 56.722Q513.117-624 479.863-624Zm224.328 0q-33.254 0-56.722-23.681Q624-671.362 624-704.616q0-33.254 23.681-57.08 23.681-23.827 56.935-23.827 33.254 0 57.08 24.039 23.827 24.039 23.827 57.293t-24.039 56.722Q737.445-624 704.191-624Z"/></svg>