<svg xmlns="http://www.w3.org/2000/svg" height="24" viewBox="0 -960 960 960" width="24"><path d="M480-60.782q-87.522 0-163.906-32.96-76.385-32.96-132.888-89.464-56.504-56.503-89.464-132.888Q60.782-392.478 60.782-480t32.96-163.906q32.96-76.385 89.464-132.888 56.503-56.504 132.888-89.464 76.384-32.96 163.906-32.96t163.906 32.96q76.385 32.96 132.888 89.464 56.504 56.503 89.464 132.888 32.96 76.384 32.96 163.906t-32.96 163.906q-32.96 76.385-89.464 132.888-56.503 56.504-132.888 89.464Q567.522-60.782 480-60.782ZM456-420v133.609q0 21.652 20.37 26.848 20.37 5.195 30.065-13.892L619.522-500.26q6.696-13.957-1-26.849Q610.826-540 595.87-540H510v-136.174q0-22.217-20.37-27.348-20.37-5.13-30.065 13.392L341.478-460.305q-7.261 14.392.217 27.348Q349.174-420 364.13-420H456Z"/></svg>