<svg xmlns="http://www.w3.org/2000/svg" height="24" viewBox="0 -960 960 960" width="24"><path d="M480.033-177Q368-177 285-248q-83-71-103-177H74q-23.375 0-39.188-15.812Q19-456.625 19-480t15.813-39.188Q50.624-535 74-535h108q20-106 102.967-177 82.968-71 195-71Q592-783 675-712q83 71 103 177h108q23.375 0 39.188 15.812Q941-503.375 941-480t-15.812 39.188Q909.375-425 886-425H778q-20 106-102.967 177-82.968 71-195 71Zm.193-111Q560-288 616-344.226t56-136Q672-560 615.774-616t-136-56Q400-672 344-615.774t-56 136Q288-400 344.226-344t136 56ZM404-340h152q17.425 0 29.213-11.788Q597-363.575 597-381v-118.248Q597-516 585.213-528.5 573.425-541 556-541v-25q0-32-21.982-55.5Q512.035-645 479.54-645 448-645 426-623t-22 54v28q-17 0-29 12.5t-12 29.279v118.442Q363-364 374.788-352q11.787 12 29.212 12Zm76-64q-15 0-25.5-10.5T444-440q0-15 10.5-25.5T480-476q15 0 25.5 10.279t10.5 26Q516-424 505.5-414T480-404Zm-28-137v-27.368Q452-580 460.07-589q8.07-9 20-9t19.93 9q8 9 8 20.632V-541h-56Zm28 101Z"/></svg>