<svg xmlns="http://www.w3.org/2000/svg" height="20" viewBox="0 -960 960 960" width="20"><path d="M480-76.782q-82.583 0-156.101-31.935-73.519-31.936-128.382-86.8-54.864-54.863-86.8-128.382Q76.782-397.417 76.782-480q0-83.071 31.935-156.346 31.936-73.274 86.8-128.137 54.863-54.864 128.382-86.8Q397.417-883.218 480-883.218q83.071 0 156.291 31.812 73.22 31.813 128.261 86.854t86.854 128.261q31.812 73.22 31.812 156.291 0 82.583-31.935 156.101-31.936 73.519-86.8 128.382-54.863 54.864-128.137 86.8Q563.071-76.782 480-76.782ZM290.826-454.87q20 0 34-14t14-34q0-20-14-34t-34-14q-20 0-34 14t-14 34q0 20 14 34t34 14Zm378.348 0q20 0 34-14t14-34q0-20-14-34t-34-14q-20 0-34 14t-14 34q0 20 14 34t34 14ZM364.522-289.696q20 0 34-14t14-34q0-20-14-34t-34-14q-20 0-34 14t-14 34q0 20 14 34t34 14Zm230.956 0q20 0 34-14t14-34q0-20-14-34t-34-14q-20 0-34 14t-14 34q0 20 14 34t34 14ZM432-621.174h96q20 0 34-14t14-34q0-20-14-34t-34-14h-96q-20 0-34 14t-14 34q0 20 14 34t34 14Z"/></svg>