<svg xmlns="http://www.w3.org/2000/svg" height="24" viewBox="0 -960 960 960" width="24"><path d="M196.923-160q-13.923 0-23.116-9.192-9.192-9.192-9.192-23.115v-87.616q0-6.462 2.231-12.039t7.461-10.807l336-336-57.692-56.154Q447-700.539 447-709.077q0-8.539 5.846-14.385 6.385-6.384 14.154-6.384t14.385 6.384l77 75.692 136.076-136.076q7.154-7.154 18-7.154 10.847 0 18.001 7.154L788-726.308q7.154 7.154 7.154 18 0 10.847-7.154 18L650.385-552.692 728.077-475q6.385 6.384 6.385 14.154 0 7.769-6.385 14.154-6.615 6.615-14.385 6.615-7.769 0-14.154-6.615l-57.692-57.462-334.461 334.462q-5.231 5.231-10.808 7.461Q291-160 284.539-160h-87.616Zm7.692-40h78l332-334-76-76-334 332v78Z"/></svg>