<svg xmlns="http://www.w3.org/2000/svg" height="24" viewBox="0 -960 960 960" width="24"><path d="M178.463-140.001q-15.462 0-25.808-10.347-10.346-10.346-10.346-25.807v-110.306q0-7.231 2.616-13.769 2.615-6.539 8.23-12.154l341-341-43.847-43.077Q442-704.769 442-717.538q0-12.769 8.923-21.692 8.692-8.692 21.077-8.692 12.384 0 21.691 8.692l62.002 61.848 129.538-129.539q9.077-9.077 23-9.077t23 9.077l76.768 76.767q9.076 9.077 9.076 23t-9.076 23L677.69-553.846l63.847 63.847q8.693 8.692 8.693 21.077 0 12.384-8.693 21.076-9.307 9.307-21.691 9.307-12.385 0-21.077-9.307l-43.847-43.232-340.23 340.23q-5.616 5.616-12.154 8.231-6.538 2.616-13.769 2.616H178.463ZM202.308-200h78l332-334-76-76-334 332v78Z"/></svg>