<svg xmlns="http://www.w3.org/2000/svg" height="20" viewBox="0 -960 960 960" width="20"><path d="M40.587-40.587v-251h84v-376.826h-84v-251h251v84h376.826v-84h251v251h-84v376.826h84v251h-251v-84H291.587v84h-251Zm251-167h376.826v-84h84v-376.826h-84v-84H291.587v84h-84v376.826h84v84Zm34.326-131.522 122.415-333.369h63.824l122.413 333.369h-64.084l-27.631-83.13H416.783l-27.848 83.13h-63.022Zm108.391-135h91.392L481-606.174l-46.696 132.065ZM116.413-744H216v-99.587h-99.587V-744ZM744-744h99.587v-99.587H744V-744Zm0 627.587h99.587V-216H744v99.587Zm-627.587 0H216V-216h-99.587v99.587ZM216-744Zm528 0Zm0 528Zm-528 0Z"/></svg>