<svg xmlns="http://www.w3.org/2000/svg" height="20" viewBox="0 -960 960 960" width="20"><path d="M480.565-325.826 634.174-480l-59.478-59.479-51.913 52.478v-147.173h-85.001v147.173l-51.912-52.478L326.391-480l154.174 154.174ZM124.782-124.782v-710.436H375.13q11.957-32.131 40.283-52.066 28.326-19.934 64.587-19.934t64.587 19.934q28.326 19.935 40.283 52.066h250.348v710.436H124.782ZM480-763.478q12.36 0 20.441-8.081T508.522-792q0-12.36-8.081-20.441T480-820.522q-12.36 0-20.441 8.081T451.478-792q0 12.36 8.081 20.441T480-763.478Z"/></svg>