<svg xmlns="http://www.w3.org/2000/svg" height="20" viewBox="0 -960 960 960" width="20"><path d="M431.752-694q-28.152 0-47.952-20.048-19.8-20.048-19.8-48.2 0-28.152 20.048-47.952 20.048-19.8 48.2-19.8 28.152 0 47.952 20.048 19.8 20.048 19.8 48.2 0 28.152-20.048 47.952-20.048 19.8-48.2 19.8Zm240.023 470Q718-224 751-256.775q33-32.774 33-79Q784-382 751.225-415q-32.774-33-79-33Q626-448 593-415.225q-33 32.774-33 79Q560-290 592.775-257q32.774 33 79 33ZM861-133 759-235q-18 15-40.851 23-22.852 8-46.382 8-54.903 0-93.335-38.5Q540-281 540-336t38.5-93.5Q617-468 672-468t93.5 38.432q38.5 38.432 38.5 93.335 0 23.53-8 46.382Q788-267 773-249l102 102-14 14Zm-371 11v-85q5 7 10 12.5t10 10.851V-122h-20Zm-136.057 0v-466.552Q302-593 251-603t-103-22l4-15q69 16 138.892 27t141 11Q503-602 573-613t139-27l4 15q-51 15-102.5 22.5T510-589v101q-26 25-42 59.5T449-354v-10q0-5-1-10h-74v252h-20.057Z"/></svg>