<svg xmlns="http://www.w3.org/2000/svg" height="20" viewBox="0 -960 960 960" width="20"><path d="M431.752-684Q397-684 372.5-708.748t-24.5-59.5Q348-803 372.748-827.5t59.5-24.5Q467-852 491.5-827.252t24.5 59.5Q516-733 491.252-708.5t-59.5 24.5Zm240.023 444Q712-240 740-267.775q28-27.774 28-68Q768-376 740.225-404q-27.774-28-68-28Q632-432 604-404.225q-28 27.774-28 68Q576-296 603.775-268q27.774 28 68 28ZM861-96l-98-98q-20 13-43.5 19.5t-47.733 6.5q-69.903 0-118.835-49Q504-266 504-336t49-119q49-49 119-49t119 48.932q49 48.932 49 118.835 0 24.233-6.5 47.733Q827-265 814-245l98 98-51 51Zm-381 0v-96q14 20 32.5 36t39.5 28.351V-96h-72Zm-168.057 0v-462.552Q257-563 203.5-575T96-601l18-67q78 21 157.5 32.5T432-624q81 0 160.5-11.5T750-668l18 67q-53 17-107 26.5T552-559v15q-54 31-87 86t-33 122h-48v240h-72.057Z"/></svg>