<svg xmlns="http://www.w3.org/2000/svg" height="20" viewBox="0 -960 960 960" width="20"><path d="M344-340q-21.7 0-36.85-15.15Q292-370.3 292-392v-176q0-21.7 15.15-36.85Q322.3-620 344-620h36l40-40q4-4 8-6t10-2h84q6 0 10 2t8 6l40 40h36q21.7 0 36.85 15.15Q668-589.7 668-568v176q0 21.7-15.15 36.85Q637.7-340 616-340H344Zm0-20h272q14 0 23-9t9-23v-176q0-14-9-23t-23-9H344q-14 0-23 9t-9 23v176q0 14 9 23t23 9Zm136.212-78Q498-438 510-450.212q12-12.213 12-30Q522-498 509.788-510q-12.213-12-30-12Q462-522 450-509.788q-12 12.213-12 30Q438-462 450.212-450q12.213 12 30 12ZM482-481Zm-2 429q-162 0-282-103.5T54-416q-2-5.356.5-9.678Q57-430 61.5-431t8.052 2.842Q73.103-424.316 74-420q24 151 140.5 251T487-71l-80-81q-4-4-4.5-6.5t4.5-7.5q5-5 7.5-5.5t7.5 4.5L524.252-64.748Q527-62 525.321-57.6 523.643-53.2 519-52q-15 1-25 .5t-14-.5Zm0-856q162 0 282 105t144 261q2 4.978-.5 8.489-2.5 3.511-7 4.511t-8.052-2.842Q886.897-535.684 886-540q-24-151-140.5-251T473-889l80 81q4 4 4.5 6.5T553-794q-5 5-7.5 5.5T538-793L435.748-895.252Q433-898 434.679-902.4q1.678-4.4 6.321-5.6 15-1 25-.5t14 .5Z"/></svg>