<svg xmlns="http://www.w3.org/2000/svg" height="20" viewBox="0 -960 960 960" width="20"><path d="M336.615-328q-23.546 0-40.081-16.534Q280-361.069 280-384.615v-190.77q0-23.546 16.534-40.081Q313.069-632 336.615-632h38.77l39.307-39.308q4.231-4.231 8.808-6.461Q428.077-680 434.538-680h90.924q6.461 0 11.038 2.231 4.577 2.23 8.808 6.461L584.615-632h38.77q23.546 0 40.081 16.534Q680-598.931 680-575.385v190.77q0 23.546-16.534 40.081Q646.931-328 623.385-328h-286.77Zm0-32h286.77q10.769 0 17.692-6.923T648-384.615v-190.77q0-10.769-6.923-17.692T623.385-600h-286.77q-10.769 0-17.692 6.923T312-575.385v190.77q0 10.769 6.923 17.692T336.615-360Zm143.597-71.077q20.557 0 34.634-14.289 14.077-14.289 14.077-34.846 0-20.557-14.289-34.634-14.289-14.077-34.846-14.077-20.557 0-34.634 14.289-14.077 14.289-14.077 34.846 0 20.557 14.289 34.634 14.289 14.077 34.846 14.077ZM482-481Zm-2.462 441q-165.461 0-288.115-105.115-122.654-105.116-148.5-264.423-2.23-7.433 1.77-13.486 4-6.053 10.807-7.284 6.808-1.23 12.436 3.766 5.629 4.995 6.987 11.619 24.923 147.077 138.077 245t265.231 98.462L407-143.692q-5.615-5.616-6-10.769-.385-5.154 6-11.539t11.654-6.885q5.269-.5 11.654 5.885L538.329-58.979q3.671 3.671 1.762 9.34-1.909 5.67-7.706 7.1-18.231 2.155-31.693 2.347-13.461.192-21.154.192Zm.924-880q165.461 0 288.115 106.384 122.654 106.385 148.5 264.924 2.231 7.054-1.769 12.412-4 5.357-10.808 6.588-6.808 1.23-12.436-3.766-5.629-4.995-6.987-11.619-24.923-147.077-138.077-245t-265.231-98.461L553-816.308q5.615 5.616 6 10.769.385 5.154-6 11.539t-11.654 6.885q-5.269.5-11.654-5.885L421.671-901.021q-3.671-3.671-1.762-9.341 1.909-5.669 7.706-7.1 18.231-2.154 31.693-2.346 13.461-.192 21.154-.192Z"/></svg>