<svg xmlns="http://www.w3.org/2000/svg" height="24" viewBox="0 -960 960 960" width="24"><path d="M40-600q17 0 28.5 11.5T80-560v160q0 17-11.5 28.5T40-360q-17 0-28.5-11.5T0-400v-160q0-17 11.5-28.5T40-600Zm120-80q17 0 28.5 11.5T200-640v320q0 17-11.5 28.5T160-280q-17 0-28.5-11.5T120-320v-320q0-17 11.5-28.5T160-680Zm760 80q17 0 28.5 11.5T960-560v160q0 17-11.5 28.5T920-360q-17 0-28.5-11.5T880-400v-160q0-17 11.5-28.5T920-600Zm-120-80q17 0 28.5 11.5T840-640v320q0 17-11.5 28.5T800-280q-17 0-28.5-11.5T760-320v-320q0-17 11.5-28.5T800-680ZM346.001-120q-44.305 0-75.153-30.848Q240-181.696 240-226.001v-507.998q0-44.305 30.848-75.153Q301.696-840 346.001-840h267.998q44.305 0 75.153 30.848Q720-778.304 720-733.999v507.998q0 44.305-30.848 75.153Q658.304-120 613.999-120H346.001Z"/></svg>