<svg xmlns="http://www.w3.org/2000/svg" height="24" viewBox="0 -960 960 960" width="24"><path d="M206.783-326.783h89.044q0-36.391-26.326-62.718-26.327-26.326-62.718-26.326v89.044Zm142 0h67.044q0-86.957-61.044-148-61.043-61.044-148-61.044v67.044q59 0 100.5 41.5t41.5 100.5Zm120 0h67.044q0-67.696-25.848-127.891-25.848-60.196-70.478-104.827-44.631-44.63-104.827-70.478-60.195-25.848-127.891-25.848v67.044q109 0 185.5 76.5t76.5 185.5Zm-302 146.001q-44.305 0-75.153-30.848-30.848-30.848-30.848-75.153v-466.434q0-44.305 30.848-75.153 30.848-30.848 75.153-30.848h626.434q44.305 0 75.153 30.848 30.848 30.848 30.848 75.153v466.434q0 44.305-30.848 75.153-30.848 30.848-75.153 30.848H650.174v27q0 22.087-15.456 37.544-15.457 15.456-37.544 15.456H362.826q-22.087 0-37.544-15.456-15.456-15.457-15.456-37.544v-27H166.783Z"/></svg>