<svg xmlns="http://www.w3.org/2000/svg" height="24" viewBox="0 -960 960 960" width="24"><path d="M229.231-280v-180h181.538v180-180H229.231v180ZM640-620ZM80-240v-340l240-170.77L560-580v43.154q-11.461 7.153-21.077 15.5Q529.308-513 520-502.692V-560L320-700.462 120-560v280h109.231v-180h181.538v180h41.462q1.461 11 4 20.616 2.538 9.615 6.154 19.384h-91.616v-180H269.231v180H80Zm800-640v342.692q-9.307-8-18.923-14.038Q851.462-557.385 840-563v-277H455.385v87.538l-40-28.769V-880H880ZM689.231-689.231h61.538v-61.538h-61.538v61.538ZM720-160q-66.846 0-113.423-46.577T560-320q0-66.846 46.577-113.423T720-480q66.846 0 113.423 46.577T880-320q0 66.846-46.577 113.423T720-160Zm-15.385-44.615h30.77v-100h100v-30.77h-100v-100h-30.77v100h-100v30.77h100v100Z"/></svg>