<svg xmlns="http://www.w3.org/2000/svg" height="20" viewBox="0 -960 960 960" width="20"><path d="M230-312v-166h164v166h25-25v-166H230v166Zm398-313ZM100-292v-306l212-154 212 154v88q-7 8-10 17t-10 21v-116L312-725 120-588v276h110v-166h164v166h75q1 5-.5 10t-.5 10h-94v-166H250v166H100Zm760-568v315q-6-5-10.5-7t-9.5-6.079V-840H472v115l-20-14v-121h408ZM708-708h48v-48h-48v48Zm11.774 512Q661-196 620.5-236.726t-40.5-99.5Q580-395 620.726-435.5t99.5-40.5Q779-476 819.5-435.274t40.5 99.5Q860-277 819.274-236.5t-99.5 40.5ZM702-246h36v-72h72v-36h-72v-72h-36v72h-72v36h72v72Z"/></svg>