<svg xmlns="http://www.w3.org/2000/svg" height="24" viewBox="0 -960 960 960" width="24"><path d="M684.616-684.616h70.768v-70.768h-70.768v70.768ZM720-140.001q-74.922 0-127.461-52.538Q540.001-245.078 540.001-320t52.538-127.461Q645.078-499.999 720-499.999t127.461 52.538Q899.999-394.922 899.999-320t-52.538 127.461Q794.922-140.001 720-140.001Zm-17.692-62.307h35.384v-100h100v-35.384h-100v-100h-35.384v100h-100v35.384h100v100Zm197.691-323.847q-36.308-34.307-83.115-51.768-46.808-17.461-96.884-17.461-16 0-30.693 1.846-14.693 1.846-29.308 6.154v-42.615L407.693-811.613v-88.386h492.306v373.844ZM60.001-220.001v-369.998L320-775.383l259.999 185.384v35.077q-62 35.154-98.692 99.077Q444.616-391.922 444.616-320q0 26.769 4.769 51.115 4.769 24.345 15.307 48.884h-67.769v-221.538H243.077v221.538H60.001Z"/></svg>