<svg xmlns="http://www.w3.org/2000/svg" height="24" viewBox="0 -960 960 960" width="24"><path d="M683.957-680h80v-80h-80v80ZM720-120q-83 0-141.5-58.5T520-320q0-83 58.5-141.5T720-520q83 0 141.5 58.5T920-320q0 83-58.5 141.5T720-120Zm-28.479-71.521h56.958v-100h100v-56.958h-100v-100h-56.958v100h-100v56.958h100v100Zm240.914-309.348q-40.13-47.087-95.239-73.109Q782.087-600 720-600q-9.304 0-18.239.5t-17.804 1.935v-45.261L395.478-852.174v-76.305h536.957v427.61Zm-906 309.348v-413.001l289.043-205.652 288.479 205.652v29.826q-74.261 34.566-119.109 103.218T440-320q0 33.286 7.913 66.034 7.913 32.749 23.609 62.445h-76.044v-256.958h-160v256.958H26.434Z"/></svg>