<svg xmlns="http://www.w3.org/2000/svg" height="20" viewBox="0 -960 960 960" width="20"><path d="M697.674-696h72v-72h-72v72Zm22.1 552Q640-144 584-200.226t-56-136Q528-416 584.226-472t136-56Q800-528 856-471.774t56 136Q912-256 855.774-200t-136 56Zm-27.361-92.413h55.174v-72h72v-55.174h-72v-72h-55.174v72h-72v55.174h72v72Zm224.848-273.609q-35.478-43.152-88.294-66.565Q776.152-600 720-600q-19.449 0-36.627 2.5-17.177 2.5-33.699 7.261v-72.957L430.087-822.304v-93.283h487.174v405.565Zm-875 273.609v-389.5l267.826-194.391 267.587 194.391v68.196q-57.957 33.239-89.815 94.88Q456-401.196 456-336q0 22.967 5.598 50.918 5.598 27.952 14.315 48.669h-81.826v-235.174h-168v235.174H42.261Z"/></svg>