<svg xmlns="http://www.w3.org/2000/svg" height="20" viewBox="0 -960 960 960" width="20"><path d="M587.789-216Q603-216 613.5-226.289q10.5-10.29 10.5-25.5Q624-267 613.711-277.5q-10.29-10.5-25.5-10.5Q573-288 562.5-277.711q-10.5 10.29-10.5 25.5Q552-237 562.289-226.5q10.29 10.5 25.5 10.5Zm96 0Q699-216 709.5-226.289q10.5-10.29 10.5-25.5Q720-267 709.711-277.5q-10.29-10.5-25.5-10.5Q669-288 658.5-277.711q-10.5 10.29-10.5 25.5Q648-237 658.289-226.5q10.29 10.5 25.5 10.5ZM144-432v-432h672v432H144Zm0 336v-264h672v264H144Z"/></svg>