<svg xmlns="http://www.w3.org/2000/svg" height="20" viewBox="0 -960 960 960" width="20"><path d="M551.789-228q18.611 0 31.411-13.289 12.8-13.29 12.8-31Q596-290 583.411-303q-12.59-13-31.2-13-18.611 0-31.411 12.589-12.8 12.59-12.8 31.2Q508-255 520.589-241.5q12.59 13.5 31.2 13.5Zm112.5 0Q682-228 695-241.289q13-13.29 13-31Q708-290 695.411-303q-12.59-13-31.2-13Q647-316 633.5-303.411q-13.5 12.59-13.5 31.2Q620-255 633.289-241.5q13.29 13.5 31 13.5ZM110-443v-455h740v455H110Zm0 381v-309h740v309H110Z"/></svg>