<svg xmlns="http://www.w3.org/2000/svg" height="20" viewBox="0 -960 960 960" width="20"><path d="M136-184v-496h168.923l72-96h206.154l72 96H824v496H136Zm32-32h624v-432H637.538l-72.769-96H395.231l-72.769 96H168v432Zm312-217Zm0 156.692q71 0 115.5-56.653 44.5-56.654 40.192-130.731L686-414.923 703.077-432 624-511.077 544.923-432 562-414.923l50.308-50.308q3.538 64.846-34.27 115.193-37.807 50.346-98.038 50.346-14.231 0-27.462-4-13.23-4-26.461-9.462L408-295.077q16.154 9.385 34.654 14.077 18.5 4.692 37.346 4.692Zm-144-76.615L415.077-432 398-449.077l-50.308 50.308q-3.538-64.846 34.27-115.193 37.807-50.346 98.038-50.346 14.231 0 27.462 4 13.23 4 26.461 9.462L552-568.923q-16.154-9.385-34.654-14.077-18.5-4.692-37.346-4.692-72 0-116 56.653-44 56.654-39.692 130.731L274-449.077 256.923-432 336-352.923Z"/></svg>