<svg xmlns="http://www.w3.org/2000/svg" height="24" viewBox="0 -960 960 960" width="24"><path d="M472-326.232 513.768-368 389.999-491.897v-178.102h-59.998v201.768L472-326.232ZM720-161.54V-228q74-35 117-103t43-149q0-81-43-149T720-732v-66.46q99.769 38 159.884 124.961Q939.999-586.538 939.999-480t-60.115 193.499Q819.769-199.54 720-161.54Zm-359.978 21.539q-70.791 0-132.637-26.77-61.846-26.769-107.846-72.768-46-46-72.768-107.824Q20-409.187 20-479.978q0-70.791 26.77-132.637 26.769-61.846 72.768-107.846 46-45.999 107.824-72.768 61.824-26.77 132.615-26.77 70.791 0 132.637 26.77 61.846 26.769 107.846 72.768 45.999 46 72.768 107.824 26.77 61.824 26.77 132.615 0 70.791-26.77 132.637-26.769 61.846-72.768 107.846-46 45.999-107.824 72.768-61.824 26.77-132.615 26.77ZM360-200q117 0 198.5-81.5T640-480q0-117-81.5-198.5T360-760q-117 0-198.5 81.5T80-480q0 117 81.5 198.5T360-200Zm0-280Z"/></svg>