<svg xmlns="http://www.w3.org/2000/svg" height="20" viewBox="0 -960 960 960" width="20"><path d="m430.5-346.87 53.63-53.63-110.217-110.217v-153.87h-75.826v185.304L430.5-346.87ZM672-148v-85.435q88.739-19.522 146.869-87.815Q877-389.544 877-480.5t-58.131-159.25Q760.739-708.043 672-726.565V-812q125 16 206.5 110.5T960-480q0 127-81.5 222T672-148Zm-336 4q-70 0-131.133-26.6-61.134-26.6-106.4-71.867Q53.2-287.733 26.6-348.867 0-410 0-480t26.6-131.133q26.6-61.134 71.867-106.4 45.266-45.267 106.4-71.867Q266-816 336-816t131.133 26.6q61.134 26.6 106.4 71.867 45.267 45.266 71.867 106.4Q672-550 672-480t-26.6 131.133q-26.6 61.134-71.867 106.4-45.266 45.267-106.4 71.867Q406-144 336-144Z"/></svg>