<svg xmlns="http://www.w3.org/2000/svg" height="20" viewBox="0 -960 960 960" width="20"><path d="M480-104.479q-77.304 0-145.884-29.199-68.58-29.199-119.909-80.529-51.33-51.329-80.529-119.909-29.199-68.58-29.199-145.884 0-78.304 29.199-146.384 29.199-68.08 80.529-119.409 51.329-51.33 119.909-80.529 68.58-29.199 145.884-29.199 63 0 119.717 19.282 56.718 19.283 104.153 54.848l-49.174 48.609q-37-27.131-81.473-40.913-44.472-13.783-93.223-13.783-128.877 0-218.177 89.304Q172.522-608.87 172.522-480t89.299 218.174q89.3 89.304 218.174 89.304 128.875 0 218.179-89.304T787.478-480q0-21.939-3.283-43.661-3.282-21.723-8.847-42.861L828.391-619q13.565 32 20.348 66.974 6.782 34.975 6.782 71.781 0 77.549-29.199 146.129-29.199 68.58-80.529 119.909-51.329 51.33-119.409 80.529-68.08 29.199-146.384 29.199Zm-53.87-207.043L269.087-468l49.739-49.174L427.13-408.87l379.652-379.651 48.739 48.173L426.13-311.522Z"/></svg>