<svg xmlns="http://www.w3.org/2000/svg" height="20" viewBox="0 -960 960 960" width="20"><path d="M480-99.587q-78.283 0-147.682-29.661-69.399-29.662-121.404-81.666-52.004-52.005-81.666-121.404Q99.587-401.717 99.587-480q0-79.283 29.661-148.182 29.662-68.899 81.666-120.904 52.005-52.004 121.404-81.666Q401.717-860.413 480-860.413q63 0 119.88 19.12 56.881 19.119 104.642 54.358l-50.805 50.565q-37-26.478-81.199-40.097-44.2-13.62-92.518-13.62-129.525 0-219.806 90.283Q169.913-609.522 169.913-480t90.281 219.804q90.28 90.283 219.804 90.283t219.806-90.283Q790.087-350.478 790.087-480q0-21.397-3.12-42.414-3.119-21.017-8.358-41.499L833.935-619q13.239 32 19.858 66.989 6.62 34.989 6.62 71.907 0 78.387-29.661 147.786-29.662 69.399-81.666 121.404-52.005 52.004-120.904 81.666Q559.283-99.587 480-99.587Zm-54.522-209.326L266.152-468l51.044-50.804 109.282 109.282L810.37-793.413l50.043 49.804-434.935 434.696Z"/></svg>