<svg xmlns="http://www.w3.org/2000/svg" height="24" viewBox="0 -960 960 960" width="24"><path d="M159.231-320q0-41.667 29.166-70.833Q217.564-420 259.231-420h80q58.333 0 99.166-40.833 40.834-40.834 40.834-99.167 0-24.692-17.654-42.346Q443.923-620 419.231-620q-25.308 0-42.654-17.346-17.346-17.346-17.346-42.654v-160q0-8.5 5.971-14.25T380-860q8.5 0 14.25 5.75T400-840v160q0 8.461 5.385 14.231Q410.769-660 419.231-660q41.666 0 70.833 29.167 29.167 29.166 29.167 70.833 0 74.7-52.65 127.35Q413.931-380 339.231-380h-80q-24.693 0-42.346 17.654-17.654 17.654-17.654 42.346v200q0 8.5-5.758 14.25T179.204-100q-8.512 0-14.243-5.75-5.73-5.75-5.73-14.25v-200ZM400-680v-180 180q0 8.461 5.385 14.231Q410.769-660 419.231-660q41.666 0 70.833 29.167 29.167 29.166 29.167 70.833 0 74.7-52.65 127.35Q413.931-380 339.231-380h-80q-24.693 0-42.346 17.654-17.654 17.654-17.654 42.346v220-220q0-24.692 17.654-42.346Q234.538-380 259.231-380h80q74.7 0 127.35-52.65 52.65-52.65 52.65-127.35 0-41.667-29.167-70.833Q460.897-660 419.231-660q-8.462 0-13.846-5.769Q400-671.539 400-680Zm400 209.462q-9.307-7.539-18.923-13.654Q771.462-490.308 760-496v-24q0-89.154-57.731-154.577T557.692-740q-32.048 0-54.87-23.115Q480-786.231 480-817.692V-840q0-8.5 5.758-14.25t14.269-5.75q8.512 0 14.242 5.75Q520-848.5 520-840v22.308L557.692-780q103.923 0 173.116 76.885Q800-626.231 800-520v49.462ZM320-160v40q0 8.5-5.758 14.25-5.757 5.75-14.269 5.75-8.511 0-14.242-5.75Q280-111.5 280-120v-40q0-41.667 29.167-70.833Q338.333-260 380-260h65.385q1.538 11 3.884 20.615 2.346 9.616 6.269 19.385H380q-24.692 0-42.346 17.654Q320-184.692 320-160Zm340-56.154q34.904 0 59.76-24.856 24.855-24.855 24.855-59.759 0-34.904-24.855-59.76-24.856-24.855-59.76-24.855-34.904 0-59.759 24.855-24.856 24.856-24.856 59.76 0 34.904 24.856 59.759 24.855 24.856 59.759 24.856Zm0 40q-52.154 0-88.385-36.23-36.23-36.231-36.23-88.385t36.23-88.385q36.231-36.231 88.385-36.231t88.385 36.231q36.231 36.231 36.231 88.385 0 21.618-7.154 40.886-7.154 19.268-19.692 34.96L841-142.461q5.616 5.547 5.616 14.119 0 8.573-5.561 14.188-5.56 5.616-14.154 5.616-8.593 0-14.209-5.616l-83.23-83.23q-14.923 10.23-32.237 15.73t-37.225 5.5Z"/></svg>