<svg xmlns="http://www.w3.org/2000/svg" height="24" viewBox="0 -960 960 960" width="24"><path d="M171-320q0-39.167 27.417-66.583Q225.833-414 265-414h80q60.833 0 103.417-42.583Q491-499.167 491-560q0-27-19.5-46.5T425-626q-23 0-38.5-15.5T371-680v-160q0-5.95 4.312-9.975Q379.625-854 386-854q5.95 0 9.975 4.025Q400-845.95 400-840v160q0 11 7 18.5t18 7.5q39.167 0 66.583 27.417Q519-599.167 519-560q0 72.21-50.895 123.105Q417.21-386 345-386h-80q-27 0-46.5 19.5T199-320v200q0 5.95-4.035 9.975-4.035 4.025-10 4.025T175-110.025q-4-4.025-4-9.975v-200Zm229-360v-174 174q0 11 7 18.5t18 7.5q39.167 0 66.583 27.417Q519-599.167 519-560q0 72.21-50.895 123.105Q417.21-386 345-386h-80q-27 0-46.5 19.5T199-320v214-214q0-27 19.5-46.5T265-386h80q72.21 0 123.105-50.895Q519-487.79 519-560q0-39.167-27.417-66.583Q464.167-654 425-654q-11 0-18-7.5t-7-18.5Zm388 206q-7-5-13.5-9.5T760-493v-27q0-91-57.5-158.5T557-746q-31.763 0-54.381-23Q480-792 480-823v-17q0-5.95 4.035-9.975 4.035-4.025 10-4.025t9.965 4.025q4 4.025 4 9.975v17l49 49q100 0 165.5 75.5T788-520v46ZM308-160v40q0 5.95-4.035 9.975-4.035 4.025-10 4.025T284-110.025q-4-4.025-4-9.975v-40q0-39.167 27.417-66.583Q334.833-254 374-254h73q2 8 4 14.5t5 13.5h-82q-27 0-46.5 19.5T308-160Zm346-61q35.475 0 60.737-25.262Q740-271.525 740-307q0-35.475-25.263-60.737Q689.475-393 654-393t-60.737 25.263Q568-342.475 568-307t25.263 60.738Q618.525-221 654-221Zm0 28q-48 0-81-33t-33-81q0-48 33-81t81-33q48 0 81 33t33 81q0 21.203-7.5 40.102Q753-248 740-233l86 85q4 3.911 4 9.956Q830-132 826.071-128q-3.928 4-10 4Q810-124 806-128l-86-86q-14 10-30.508 15.5T654-193Z"/></svg>