<svg xmlns="http://www.w3.org/2000/svg" height="20" viewBox="0 -960 960 960" width="20"><path d="M672-144q-60 0-102-42t-42-102q0-60 42-102t102-42q60 0 102 42t42 102q0 20.484-5 38.742Q806-231 796-214l90 91q11 11 11 25t-11 25q-11 11-25 11t-25-11l-91-91q-16 9-34.5 14.5T672-144Zm.212-72Q702-216 723-237.212q21-21.213 21-51Q744-318 722.788-339q-21.213-21-51-21Q642-360 621-338.788q-21 21.213-21 51Q600-258 621.212-237q21.213 21 51 21ZM180.276-96Q165-96 154.5-106.35T144-132v-192q0-45 31.5-76.5T252-432h144q35 0 59.5-24.5T480-516q0-35-24.5-59.5T396-600q-24.75 0-42.375-17.625T336-660v-168q0-15.3 10.334-25.65Q356.668-864 371.945-864h143.779Q531-864 541.5-853.65T552-828v60q109 0 186.5 69.5T816-516v70q-30-29-67.5-43.5T669-504q-88.75 0-150.875 62.222T456-290.667Q456-272 459-253t10 37h-73q-15.3 0-25.65 10.35Q360-195.3 360-180v48q0 15.3-10.334 25.65Q339.332-96 324.055-96H180.276Z"/></svg>