<svg xmlns="http://www.w3.org/2000/svg" height="24" viewBox="0 -960 960 960" width="24"><path d="M114.022-560v-245.978h83.587v90.413q52.195-63.522 125.934-98.044 73.74-34.522 156.218-34.522 151.435 0 258.228 105 106.794 105 109.424 255.718h-91q-2.631-113.174-82.815-191.446-80.185-78.271-193.837-78.271-66.131 0-124.217 29.967-58.087 29.967-98.37 83.098h103.304V-560H114.022Zm-.153 120h92.761q11.761 88.935 72.555 151.522 60.793 62.587 145.771 78.739l56.131 97.87Q339.978-112.348 234.304-206 128.63-299.652 113.869-440Zm412.24 65.696-87.783-87.783V-680h83.587v184l48.109 48.109-43.913 73.587ZM712.304 0l-12.239-61.196q-11.283-4.521-21.185-9.782t-20.184-12.544L599.5-65.282l-42.87-73.022 46.957-40.718q-2.239-12.043-2.12-24.445.12-12.403 2.12-24.685L556.63-268.87l42.87-73.261 59.196 18.479q10.282-7.283 20.184-12.663 9.902-5.381 21.185-9.903l12.239-61.195h85.979l12.239 61.195q11.282 4.522 21.684 10.783 10.403 6.261 19.924 13.783l58.957-20.479 43.109 75.261L907-226.152q2.239 12.043 2.12 23.565-.12 11.522-2.12 23.565l47.196 40.718-43.109 73.021-58.957-18.239q-10.282 7.283-20.304 12.544-10.022 5.26-21.304 9.782L798.283 0h-85.979Zm43.109-125.5q32.043 0 55.065-23.022t23.022-55.065q0-32.043-23.022-55.185-23.022-23.141-55.065-23.141t-55.185 23.141q-23.141 23.142-23.141 55.185 0 32.043 23.141 55.065Q723.37-125.5 755.413-125.5Z"/></svg>