<svg xmlns="http://www.w3.org/2000/svg" height="20" viewBox="0 -960 960 960" width="20"><path d="M138.022-552v-245.978h75.587v126.413q47.195-59.522 115.934-94.044 68.74-34.522 150.218-34.522 141.435 0 241.228 98 99.794 98 102.424 238.718h-83q-2.631-105.174-78.815-179.446-76.185-74.271-181.837-74.271-59.131 0-109.717 23.467-50.587 23.467-85.87 65.598h100.304V-552H138.022Zm-2.153 96h82.761q-.239 101.935 67.555 175.522 67.793 73.587 165.771 82.739l50.131 84.87q-6 0-12 .5t-12 .5q-143.109-.479-242.783-100.631Q135.63-312.652 135.869-456Zm409.24 104.696L442.326-454.087V-648h75.587v162l66.109 67.109-38.913 67.587ZM729.304 0l-13.239-57.196q-13.283-4.521-25.185-11.282t-22.184-15.044L612.5-66.282l-34.87-60.022 41.957-40.718q-2.239-8.043-3.12-21.945-.88-13.903 3.12-33.185L577.63-261.87l34.87-61.261 55.196 16.479q10.282-9.283 22.684-16.163 12.402-6.881 25.685-11.403l13.239-57.195h69.979l13.239 57.195q13.282 4.522 25.684 11.283 12.403 6.761 22.924 16.283l54.957-15.479 35.109 60.261L910-223.152q1.239 6.043 3.12 20.565 1.88 14.522-3.12 35.565l42.196 39.718-35.109 60.021-55.957-16.239q-10.282 9.283-22.804 15.544-12.522 6.26-25.804 10.782L799.283 0h-69.979Zm35.109-125.5q29.043 0 49.565-20.522t20.522-49.565q0-29.043-20.522-49.685-20.522-20.641-49.565-20.641t-49.685 20.641q-20.641 20.642-20.641 49.685 0 29.043 20.641 49.565Q735.37-125.5 764.413-125.5Z"/></svg>