<svg xmlns="http://www.w3.org/2000/svg" height="24" viewBox="0 -960 960 960" width="24"><path d="M159.234-590.771v-203.075h59.998v94.77q48.692-57.461 116.615-89.192 67.923-31.731 143.384-31.731 141.538 0 240.768 99.231 99.23 99.23 99.23 240.768v5.385h-59.998V-480q0-117-81.5-198.5t-198.5-81.5q-65.538 0-122.846 29.115-57.307 29.115-98.692 80.115h104.615v59.999H159.234ZM141.617-440h61.229Q216-346.231 281.654-281.154q65.654 65.077 157.192 77.923l36.461 63.23q-127.999-1.924-223.537-87.269Q156.232-312.616 141.617-440Zm403.922 67.307-95.154-95.153V-680h59.999v187.846l66.77 66.77-31.615 52.691ZM738.232-10.001l-9.692-54.23q-15.462-4.23-29.231-11.654-13.77-7.423-25.924-18.885l-52.23 16.461-28.461-47.998 41.769-35q-4.692-16.077-4.692-32.923 0-16.847 4.692-33.693l-42.538-35.769 29.23-48.768 52.615 17.615q12.154-11.077 25.539-18.308 13.385-7.231 29.231-11.846l9.692-54.23h56.922l9.692 54.23q16.231 4.615 30.308 12.846 14.077 8.231 25.231 19.693l53.384-19.231 28.461 50.768-42.923 35.769q4.308 16.847 4.308 32.308 0 15.462-4.308 30.385l43.692 36.154-28.46 47.998-54.154-17.23q-11.769 11.462-25.539 19.27-13.769 7.807-30 12.038l-9.692 54.23h-56.922Zm28.461-101.537q34.154 0 58.615-24.461 24.462-24.462 24.462-58.616 0-34.154-24.462-58.616-24.461-24.461-58.615-24.461t-58.616 24.461q-24.461 24.462-24.461 58.616 0 34.154 24.461 58.616 24.462 24.461 58.616 24.461Z"/></svg>