<svg xmlns="http://www.w3.org/2000/svg" height="20" viewBox="0 -960 960 960" width="20"><path d="M183.234-582.771v-203.075h51.998v130.77q43.692-53.461 106.615-85.192 62.923-31.731 137.384-31.731 131.538 0 223.768 92.231 92.23 92.23 92.23 223.768v5.385h-51.998V-456q0-109-77.5-186.5t-186.5-77.5q-58.538 0-108.346 22.615-49.807 22.615-86.192 62.615h101.615v51.999H183.234ZM163.617-456h51.229Q216-349.231 288.654-273.154q72.654 76.077 177.192 81.923l30.461 50.23q-6 0-12 .5t-12 .5q-129.999-1.924-219.537-93.769-89.538-91.846-89.153-222.23Zm400.922 106.307L454.385-459.846V-648h51.999v165.846l84.77 85.77-26.615 46.691ZM755.232-10.001 744.54-60.23q-17.462-4.23-33.231-13.154-15.77-8.923-27.924-21.385l-49.23 15.461-20.461-34.998 36.769-35q-4.692-12.077-5.692-30.423-1-18.347 5.692-42.193l-37.538-34.769 21.23-36.768 48.615 15.615q12.154-13.077 28.039-21.808 15.885-8.731 33.731-13.346l10.692-50.23h40.922l10.692 50.23q18.231 4.615 34.308 13.346 16.077 8.731 28.231 22.193l49.384-14.231 20.461 35.768-36.923 33.769q3.308 10.847 5.308 29.308 2 18.462-5.308 42.385l38.692 35.154-20.46 34.998-51.154-15.23q-11.769 13.462-28.039 22.27-16.269 8.807-34.5 13.038l-10.692 50.23h-40.922Zm20.461-101.537q31.154 0 53.115-21.961 21.962-21.962 21.962-53.116t-21.962-53.116q-21.961-21.961-53.115-21.961-31.154 0-53.116 21.961-21.961 21.962-21.961 53.116t21.961 53.116q21.962 21.961 53.116 21.961Z"/></svg>