<svg xmlns="http://www.w3.org/2000/svg" height="24" viewBox="0 -960 960 960" width="24"><path d="M105.869-560v-254.131h88.479v85.521q53.826-62.869 127.891-96.739 74.065-33.869 157.196-33.869 153.391 0 262.631 105 109.239 105 115.457 256.695H751.521q-6.217-107.956-84.609-181.825-78.391-73.869-187.477-73.869-62.217 0-117.695 27.195-55.478 27.196-94.783 76.413h94.173V-560H105.869Zm-3.087 120h107.436q11.434 83.391 67.173 143.369 55.739 59.978 133.869 79.065l67.218 116.784q-145.348-1.13-253.305-97.717Q117.216-295.087 102.782-440Zm412.565 59.826-79.304-79.304V-680h88.479v184l37.347 37.347-46.522 78.479ZM703.173 0l-12.565-62.826q-10.304-3.87-19.391-8.804-9.087-4.935-18.391-11.24l-60.827 18.566-46.783-79.87 48.261-41.696q-2.565-10.739-2.282-22.326.282-11.587 2.282-22.891l-48.261-41.696 46.783-80.435 60.827 19.13q9.304-6.304 18.391-11.522 9.087-5.217 19.391-9.086l12.565-62.827h94.131l12.566 62.827q10.304 3.869 19.891 9.804 9.587 5.935 18.456 12.804l60.261-21.13 47.348 82.435L907-229.087q2.565 10.739 2.283 21.608Q909-196.609 907-185.87l48.826 41.696-47.348 79.87-60.261-18.566q-9.304 6.305-18.674 11.24-9.369 4.934-19.673 8.804L797.304 0h-94.131Zm47.348-133.001q30.739 0 53.109-22.369 22.369-22.37 22.369-53.109T803.63-261.87q-22.37-22.652-53.109-22.652T697.13-261.87q-22.652 22.652-22.652 53.391 0 30.739 22.652 53.109 22.652 22.369 53.391 22.369Z"/></svg>