<svg xmlns="http://www.w3.org/2000/svg" height="20" viewBox="0 -960 960 960" width="20"><path d="M129.869-552v-254.131h80.479v121.521q48.826-58.869 117.891-92.739 69.065-33.869 151.196-33.869 143.391 0 245.631 98 102.239 98 108.457 239.695h-98.002q-6.217-99.956-80.609-169.825-74.391-69.869-175.477-69.869-55.217 0-103.195 20.695-47.978 20.696-82.283 58.913h91.173V-552H129.869Zm-5.087 96h97.436q-.566 96.391 62.173 167.369 62.739 70.978 153.869 83.065l61.218 103.784q-6 0-12 .5t-12 .5q-147.348-1.13-249.305-104.217Q124.216-308.087 124.782-456Zm409.565 98.826-94.304-94.304V-648h80.479v162l55.347 56.347-41.522 72.479ZM720.173 0l-13.565-58.826q-12.304-3.87-23.391-10.304-11.087-6.435-20.391-13.74l-57.827 17.566-38.783-66.87 43.261-41.696q-2.565-6.739-3.282-19.826-.718-13.087 3.282-31.391l-43.261-40.696 38.783-68.435 56.827 17.13q9.304-8.304 20.891-15.022 11.587-6.717 23.891-10.586l13.565-58.827h78.131l13.566 58.827q12.304 3.869 23.891 10.304 11.587 6.435 21.456 15.304l56.261-16.13 39.348 67.435L910-226.087q1.565 4.739 3.283 18.608Q915-193.609 910-173.87l43.826 40.696-39.348 66.87-57.261-16.566q-9.304 8.305-21.174 14.24-11.869 5.934-24.173 9.804L798.304 0h-78.131Zm39.348-133.001q27.739 0 47.609-19.869 19.869-19.87 19.869-47.609T807.13-248.37q-19.87-20.152-47.609-20.152T711.63-248.37q-20.152 20.152-20.152 47.891 0 27.739 20.152 47.609 20.152 19.869 47.891 19.869Z"/></svg>