<svg xmlns="http://www.w3.org/2000/svg" height="24" viewBox="0 -960 960 960" width="24"><path d="M405.384-380v-190.769h-17.692q-56 0-94.923-39.308t-38.923-95.308q0-56 38.923-95.308Q331.692-840 387.692-840h249.231v40h-75.384v420h-40.001v-420h-76.153v420h-40.001Zm0-230.769V-800h-17.692q-39.154 0-66.5 27.819-27.346 27.819-27.346 66.885 0 39.065 27.346 66.796 27.346 27.731 66.5 27.731h17.692Zm0-94.616ZM673.077-120l-28.308-28.308 79.385-60.923H160v-40l562.615-17.692L644-345.538l29.077-29.078L800-247.692 673.077-120Z"/></svg>