<svg xmlns="http://www.w3.org/2000/svg" height="24" viewBox="0 -960 960 960" width="24"><path d="M479.948-297.692q-10.794 0-18.679-7.937-7.884-7.937-7.884-18.731t7.936-18.679q7.937-7.884 18.731-7.884t18.679 7.937q7.884 7.936 7.884 18.73 0 10.795-7.936 18.679-7.937 7.885-18.731 7.885Zm-17.64-111.077q0-30.616 9.807-50.308 9.808-19.692 37.116-44.308 16.307-15.538 26.692-29.423 10.385-13.884 10.385-34.247 0-21.56-16.193-39.407-16.192-17.846-50.115-17.846-28.51 0-43.294 13.577-14.783 13.577-22.86 31.346l-32.461-12.769q12-28.846 36.625-47.961 24.626-19.116 61.99-19.116 43.154 0 72.423 24.346t29.269 67.654q0 23.231-10.077 40.769-10.076 17.539-27.5 34.962-29.038 29.038-36.961 43.346-7.923 14.308-9.462 39.385h-35.384ZM240-79.999V-880h480v800H240ZM280-180v60h400v-60H280Zm0-40h400v-520H280v520Zm0-560h400v-60H280v60Zm0 0v-60 60Zm0 600v60-60Z"/></svg>