<svg xmlns="http://www.w3.org/2000/svg" height="20" viewBox="0 -960 960 960" width="20"><path d="M479.974-296.847q-13.897 0-23.089-9.218-9.192-9.218-9.192-23.115 0-13.897 9.218-23.089 9.218-9.192 23.115-9.192 13.897 0 23.089 9.218 9.192 9.218 9.192 23.115 0 13.897-9.218 23.089-9.218 9.192-23.115 9.192Zm-22.82-113.538q0-30.307 6.654-47.653t22.808-34.654q18.154-17.769 34.846-33.461 16.692-15.693 16.692-39.374 0-18.78-13.346-35.704-13.346-16.923-44.808-16.923-26.755 0-40.647 14.038-13.892 14.039-20.43 31.423l-41.23-17.384q11-28.923 37.313-50.23 26.312-21.308 64.994-21.308 45.077 0 74.461 25.423 29.385 25.423 29.385 69.577 0 37.615-20.039 54.884-20.038 17.27-37.75 36.981-13.519 14.519-17.98 27.673-4.462 13.154-5.231 36.692h-45.692ZM212.001-68.001V-892h535.998v823.998H212.001Zm51.999-110V-120h432v-58.001H264Zm0-51.998h432v-500.002H264v500.002Zm0-552h432V-840H264v58.001Zm0 0V-840v58.001Zm0 603.998V-120v-58.001Z"/></svg>