<svg xmlns="http://www.w3.org/2000/svg" height="24" viewBox="0 -960 960 960" width="24"><path d="M479.974-288.847q-13.897 0-24.089-10.218-10.192-10.218-10.192-24.115 0-13.897 10.218-24.089 10.218-10.192 24.115-10.192 13.897 0 24.089 10.218 10.192 10.218 10.192 24.115 0 13.897-10.218 24.089-10.218 10.192-24.115 10.192Zm-23.82-119.538q0-38.307 8.654-56.653 8.654-18.346 39.808-45.654 15.154-14.769 25.346-28.461 10.192-13.693 10.192-32.374 0-19.78-14.846-35.704-14.846-15.923-45.308-15.923-27.755 0-42.147 14.538-14.392 14.539-20.93 31.923l-43.23-17.384q12-31.923 38.813-53.73 26.812-21.808 67.494-21.808 45.077 0 76.461 24.923 31.385 24.923 31.385 72.077 0 23.615-11.039 42.884-11.038 19.27-28.75 36.981-29.519 29.519-36.48 42.673-6.962 13.154-7.731 41.692h-47.692ZM220.001-60.002v-839.997h519.998v839.998H220.001ZM280-229.999h400v-500.002H280v500.002Z"/></svg>