<svg xmlns="http://www.w3.org/2000/svg" height="20" viewBox="0 -960 960 960" width="20"><path d="M479.932-311q-8.932 0-14.432-5.568t-5.5-14.5q0-8.932 5.568-14.432t14.5-5.5q8.932 0 14.432 5.568t5.5 14.5q0 8.932-5.568 14.432t-14.5 5.5ZM467-411q0-18 8.5-37.5T494-481q20-19 37-35t17-42.371Q548-580 532.5-600 517-620 480-620q-27.964 0-42.482 12.5T414-577l-24-10q11-24 33.814-41 22.813-17 56.186-17 42 0 68 24.5t26 62.5q0 37-18.5 51.5t-35.75 33.75Q507-459 501-444t-8 33h-26ZM244-100v-760h472v760H244Zm20-94v74h432v-74H264Zm0-20h432v-532H264v532Zm0-552h432v-74H264v74Zm0 0v-74 74Zm0 572v74-74Z"/></svg>