<svg xmlns="http://www.w3.org/2000/svg" height="20" viewBox="0 -960 960 960" width="20"><path d="M480-62q-82 0-159-30t-138-85q-21-16-23-43t17-46q18-18 42.5-17.5T261-266q14 10 29.5 20t30.5 21v-77h-46.212Q226-302 192-336.15T158-419v-208q0-72 52-123.5T335.575-802h111.319q24.345 0 41.725 17.35Q506-767.3 506-743v124h179.264Q734-619 768-584.85q34 34.15 34 82.85v83q0 48.7-34.15 82.85Q733.7-302 685-302h-46v77q15.784-9.92 31.189-19.84Q685.595-254.76 700-266q18-17 41.5-18t42.5 18q19 19 17 46.5T778-176q-62 55-138 84.5T480-62Zm0-118q10 0 21 .5t20-1.048V-302h-82v121q10 2 20.5 1.5t20.5-.5Z"/></svg>