<svg xmlns="http://www.w3.org/2000/svg" height="20" viewBox="0 -960 960 960" width="20"><path d="M480-136q-62.923 0-122.346-22t-106.577-64q-5.077-5.384-7.346-12.808-2.27-7.423 3.346-13.038 5.615-5.615 13.038-4.346 7.424 1.269 12.5 5.654 18.693 15.692 39.654 29.076 20.962 13.385 43.731 25.231v-138.23h-67.597q-24.403 0-40.403-16.92-16-16.919-16-42.773v-228.461q0-46.154 30.077-77.77Q292.154-728 335.575-728h83.704q12.268 0 20.341 8.042t8.073 20.265v159.847h223.955q24.352 0 40.352 17.304 16 17.303 16 42.388v90q0 25.854-16.15 42.773-16.15 16.92-40.465 16.92H604v138.23q23.784-10.997 45.035-24.686 21.252-13.689 40.58-30.621 5.846-3.616 11.885-4.77 6.039-1.153 12.423 5.231 5.616 5.616 4.231 12.154-1.385 6.539-6.231 11.923Q663-180.769 604.346-158.384 545.692-136 480-136Zm0-32q23.385 0 46.885-3.423 23.5-3.423 45.115-10.279v-148.759H388v148.307q22.615 7.308 45.615 10.731Q456.615-168 480-168ZM288.615-362.462h382.77q10.769 0 17.692-7.307Q696-377.077 696-390.154v-90q0-12.308-6.923-20t-17.692-7.692H415.692V-696h-79.904Q306-696 285-673.312q-21 22.689-21 54.697v228.461q0 13.077 6.923 20.385 6.923 7.307 17.692 7.307Zm127.077-145.384Z"/></svg>