<svg xmlns="http://www.w3.org/2000/svg" height="20" viewBox="0 -960 960 960" width="20"><path d="M458-482v94q0 1.375.312 1.688.313.312 1.688.312h40q3 0 2.5-.312-.5-.313-.5-1.688v-94h94q3 0 2.5-.312-.5-.313-.5-1.688v-40q0-3 .5-2.5t-2.5.5h-94v-94q0-3 .5-2.5t-2.5.5h-40q-1.375 0-1.688-.5Q458-623 458-620v94h-94q-1.375 0-1.688-.5Q362-527 362-524v40q0 1.375.312 1.688.313.312 1.688.312h94Zm22 327q-4 0-10-.5t-10.021-2.5Q351-201 285.5-299 220-397 220-515v-157q0-17.257 8.875-30.662Q237.75-716.068 253-722l208-79q10-4 19-4t19 4l208 79q15.25 5.932 24.125 19.338Q740-689.257 740-672v157q0 118-65.5 216T500.021-158Q496-156 490-155.5q-6 .5-10 .5Zm0-16q104-32 172-129t68-215v-158q0-10-5.5-18T699-703l-208-79q-5-2-11-2t-11 2l-208 79q-10 4-15.5 12t-5.5 18v158q0 118 68 215t172 129Zm0-306Z"/></svg>