<svg xmlns="http://www.w3.org/2000/svg" height="20" viewBox="0 -960 960 960" width="20"><path d="m192-192 576-576q12-12 28-5.438 16 6.563 16 23.438v322q0 4.25-2.875 7.125T802-418h-66.5q-42.837 0-72.169 29.475Q634-359.05 634-316v158q0 4.25-2.875 7.125T624-148H210q-16.875 0-23.438-16Q180-180 192-192Zm626 34v-158q0-4.25 2.825-7.125 2.824-2.875 7-2.875 4.175 0 7.175 2.875t3 7.125v158q0 4.25-2.825 7.125-2.824 2.875-7 2.875-4.175 0-7.175-2.875T818-158Zm-92 0v-158q0-4.25 2.825-7.125 2.824-2.875 7-2.875 4.175 0 7.175 2.875t3 7.125v158q0 4.25-2.825 7.125-2.824 2.875-7 2.875-4.175 0-7.175-2.875T726-158Z"/></svg>