<svg xmlns="http://www.w3.org/2000/svg" height="20" viewBox="0 -960 960 960" width="20"><path d="m163-163 634-634q28-28 64.5-13.094T898-756v253q0 24.3-17.35 41.65Q863.3-444 839-444H712q-52.3 0-88.15 35.35Q588-373.3 588-321v200q0 24.3-17.35 41.65Q553.3-62 529-62H204q-39.188 0-54.094-36.5Q135-135 163-163Zm672 49v-207q0-21.3 15.289-36.15 15.29-14.85 36.5-14.85Q908-372 923-357.15T938-321v208q0 21.3-14.789 36.15-14.79 14.85-36 14.85Q866-62 850.5-77.35T835-114Zm-175 0v-207q0-21.3 15.289-36.15 15.29-14.85 36.5-14.85Q733-372 748-357.15T763-321v208q0 21.3-14.789 36.15-14.79 14.85-36 14.85Q691-62 675.5-77.35T660-114Z"/></svg>