<svg xmlns="http://www.w3.org/2000/svg" height="20" viewBox="0 -960 960 960" width="20"><path d="M294.154-396.308H384q6.354 0 10.562-4.207 4.207-4.208 4.207-10.562v-137.846q0-6.354-4.207-10.562-4.208-4.207-10.562-4.207h-89.846q-6.354 0-10.562 4.207-4.207 4.208-4.207 10.562v137.846q0 6.354 4.207 10.562 4.208 4.207 10.562 4.207Zm8.615-30.769v-37.538h72.616v37.538h-72.616Zm0-68.308v-37.538h72.616v37.538h-72.616Zm197.385 22.462 74.384 73q1 .231 7.693 3.615 8.154 0 10.692-6.73 2.539-6.731-2.385-12.347l-65.769-66.153 67.539-64.847q4.923-4.846 1.647-11.077-3.276-6.23-10.647-6.23-1.633 0-3.636.916t-3.595 2.699l-75.923 71.462V-552q0-5.015-3.339-8.354-3.338-3.338-8.354-3.338-5.015 0-8.353 3.323-3.339 3.323-3.339 8.315v143.677q0 4.992 3.339 8.531 3.338 3.538 8.353 3.538 5.016 0 8.354-3.338 3.339-3.339 3.339-8.354v-64.923Zm157.077 12.308V-432q0 8.062 5.661 13.723 5.662 5.662 13.723 5.662 8.062 0 13.723-5.662Q696-423.938 696-432v-28.615h28.615q8.062 0 13.723-5.662Q744-471.938 744-480q0-8.062-5.662-13.723-5.661-5.662-13.723-5.662H696V-528q0-8.062-5.662-13.723-5.661-5.662-13.723-5.662-8.061 0-13.723 5.662-5.661 5.661-5.661 13.723v28.615h-28.616q-8.061 0-13.723 5.662-5.661 5.661-5.661 13.723 0 8.062 5.661 13.723 5.662 5.662 13.723 5.662h28.616ZM240.615-184q-24.315 0-40.465-16.15Q184-216.3 184-240.615v-478.77q0-24.315 16.15-40.465Q216.3-776 240.615-776h478.77q24.315 0 40.465 16.15Q776-743.7 776-719.385v478.77q0 24.315-16.15 40.465Q743.7-184 719.385-184h-478.77Zm0-32h478.77q9.23 0 16.923-7.692Q744-231.385 744-240.615v-478.77q0-9.23-7.692-16.923Q728.615-744 719.385-744h-478.77q-9.23 0-16.923 7.692Q216-728.615 216-719.385v478.77q0 9.23 7.692 16.923Q231.385-216 240.615-216ZM216-744v528-528Z"/></svg>