<svg xmlns="http://www.w3.org/2000/svg" height="24" viewBox="0 -960 960 960" width="24"><path d="M480.134-120q-74.673 0-140.41-28.339-65.737-28.34-114.365-76.922-48.627-48.582-76.993-114.257Q120-405.194 120-479.866q0-74.673 28.35-140.41t76.95-114.365q48.6-48.627 114.3-76.993Q405.3-840 480-840q8.5 0 14.25 5.75T500-820v305.615q10.308 6.385 15.154 14.861Q520-491.047 520-479.907q0 15.984-11.961 27.946Q496.077-440 480-440t-28.039-11.961Q440-463.923 440-479.816q0-11.077 4.846-19.746 4.846-8.669 15.154-14.823v-123.692q-59.692 7.077-99.846 51.885Q320-541.385 320-480q0 66 47 113t113 47q66 0 113-47t47-113q0-30.615-10.962-57.231-10.961-26.615-29.346-48.154-5.384-7.076-5.538-14.846-.154-7.769 6.063-13.986Q607-621 615.039-620.615q8.038.384 14.192 7.461Q653-586 666.5-552.462 680-518.923 680-480q0 83.333-58.28 141.667Q563.439-280 480.181-280q-83.258 0-141.72-58.333Q280-396.667 280-480q0-78.462 52-134.962 52-56.5 128-63.577v-120.999q-125.923 7.307-212.962 99.23Q160-608.385 160-480q0 134 93 227t227 93q134 0 227-93t93-227q0-63.385-22.077-118.346-22.077-54.962-62.461-97.731-6.385-6.846-7.539-15.769t5.462-15.539q6.615-6.615 15.038-5.73 8.423.884 14.808 7.73 45 49.154 70.885 111.308Q840-551.923 840-480q0 74.7-28.339 140.4-28.34 65.7-76.922 114.3-48.582 48.6-114.257 76.95Q554.806-120 480.134-120Z"/></svg>