<svg xmlns="http://www.w3.org/2000/svg" height="24" viewBox="0 -960 960 960" width="24"><path d="m697.957-284.305 132.391-132.956q15.956-15.957 37.609-15.457 21.652.5 37.609 16.457 14.957 15.957 14.891 37.327-.065 21.369-15.456 36.761l-169.435 170q-15.957 15.957-37.609 15.957-21.653 0-37.609-15.957l-85-86Q560.391-273.13 560.456-295q.065-21.87 15.457-37.261 14.957-14.957 37.044-14.957 22.087 0 37.044 14.957l47.956 47.956Zm-477.175 63.523-69.391 69.391q-25.217 25.217-57.913 11.608-32.696-13.608-32.696-49.087v-604.347q0-44.305 30.848-75.153 30.848-30.848 75.153-30.848h626.434q44.305 0 75.153 30.848 30.848 30.848 30.848 75.153v207.216q0 22.087-15.456 37.544-15.457 15.456-37.544 15.456H573.001q-44.305 0-75.153 30.849-30.849 30.848-30.849 75.153v153.217q0 22.087-15.456 37.544-15.457 15.456-37.544 15.456H220.782Z"/></svg>