<svg xmlns="http://www.w3.org/2000/svg" height="24" viewBox="0 -960 960 960" width="24"><path d="M113.782-60.782q-22.087 0-37.544-15.456-15.456-15.457-15.456-37.544v-731.87q0-22.088 15.456-37.544 15.457-15.457 37.544-15.457 22.088 0 37.544 15.457 15.457 15.456 15.457 37.544v731.87q0 22.087-15.457 37.544-15.456 15.456-37.544 15.456ZM480-266.999q-30.652 0-51.827-21.174-21.174-21.175-21.174-51.827v-280q0-30.652 21.174-51.827 21.175-21.174 51.827-21.174 30.652 0 51.827 21.174 21.174 21.175 21.174 51.827v280q0 30.652-21.174 51.827-21.175 21.174-51.827 21.174ZM846.218-60.782q-22.088 0-37.544-15.456-15.457-15.457-15.457-37.544v-732.436q0-22.087 15.457-37.544 15.456-15.456 37.544-15.456 22.087 0 37.544 15.456 15.456 15.457 15.456 37.544v732.436q0 22.087-15.456 37.544-15.457 15.456-37.544 15.456Z"/></svg>