<svg xmlns="http://www.w3.org/2000/svg" height="20" viewBox="0 -960 960 960" width="20"><path d="M152.183-136q-6.722 0-11.452-4.6Q136-145.2 136-152v-656q0-6.8 4.547-11.4 4.547-4.6 11.269-4.6t11.453 4.6Q168-814.8 168-808v656q0 6.8-4.547 11.4-4.548 4.6-11.27 4.6ZM480.09-308q-11.629 0-19.859-8.167Q452-324.333 452-336v-288q0-11.667 8.14-19.833Q468.28-652 479.91-652q11.629 0 19.859 8.167Q508-635.667 508-624v288q0 11.667-8.14 19.833Q491.72-308 480.09-308Zm328.094 172q-6.722 0-11.453-4.6Q792-145.2 792-152v-656q0-6.8 4.547-11.4 4.547-4.6 11.27-4.6 6.722 0 11.452 4.6Q824-814.8 824-808v656q0 6.8-4.547 11.4-4.547 4.6-11.269 4.6Z"/></svg>