<svg xmlns="http://www.w3.org/2000/svg" height="24" viewBox="0 -960 960 960" width="24"><path d="M773.231-316.154 549.846-536.769q-7.692-6.923-17.692-6.923t-16.923 6.923l-96.846 96.846q-19.154 19.154-46.231 19.154t-45.462-19.154L134.154-633.692q-5.616-5.616-6.116-13.654-.5-8.039 6.116-14.654 6.384-6.385 14.154-6.385 7.769 0 14.154 6.385l192 192q6.923 6.923 17.692 6.923T389.846-470l96.846-96.846q18.385-18.385 45.462-18.385t45.461 18.385L800-344.462v-111.692q0-8.538 5.731-14.269T820-476.154q8.539 0 14.269 5.731Q840-464.692 840-456.154v147.693q0 13.923-9.192 23.115-9.192 9.192-23.115 9.192H660q-8.538 0-14.269-5.73-5.731-5.731-5.731-14.27 0-8.538 5.731-14.269T660-316.154h113.231Z"/></svg>