<svg xmlns="http://www.w3.org/2000/svg" height="20" viewBox="0 -960 960 960" width="20"><path d="m384-179-4-4q17 17 17 39.667 0 22.666-19 41.333-18 18-41.5 18T295-102l-94.138-94.138Q183-214 183-238.182T201-280l93-93q18-18 42.667-17.5Q361.333-390 382-369q16 15.667 16 37.333 0 21.667-15.979 37.646L385-297h190l4 4q-17-17-16.5-39.167Q563-354.333 582-373q18-18 41.5-18t41.5 18l94.138 94.138Q777-261 776.5-237.318T759-196l-94 94q-18 18-42 17.5t-44-21.022Q563-122 562.5-144.644t15.223-38.294L574-179H384ZM276.211-512Q252-512 234.5-529.35T217-571v-268q0-24.3 17.289-41.65 17.29-17.35 41.5-17.35Q300-898 317.5-880.65T335-839v268q0 24.3-17.289 41.65-17.29 17.35-41.5 17.35Zm204 0Q456-512 438.5-529.35T421-571v-268q0-24.3 17.289-41.65 17.29-17.35 41.5-17.35Q504-898 521.5-880.65T539-839v268q0 24.3-17.289 41.65-17.29 17.35-41.5 17.35Zm204 0Q660-512 642.5-529.35T625-571v-268q0-24.3 17.289-41.65 17.29-17.35 41.5-17.35Q708-898 725.5-880.65T743-839v268q0 24.3-17.289 41.65-17.29 17.35-41.5 17.35Z"/></svg>