<svg xmlns="http://www.w3.org/2000/svg" height="20" viewBox="0 -960 960 960" width="20"><path d="M264-436v113q0 17.975-12.307 30.487Q239.386-280 221.193-280 203-280 190-292.362 177-304.725 177-323v-314q0-18.275 12.589-30.637Q202.179-680 220.789-680q18.186 0 30.699 12.363Q264-655.275 264-637v113h209v-112q0-18.4 12.589-31.2 12.59-12.8 31.2-12.8 18.611 0 31.411 12.65T561-636v312q0 18.7-12.589 31.35-12.59 12.65-31.2 12.65-18.611 0-31.411-12.65T473-324v-112H264Zm444 0h-55.018q-18.282 0-31.132-12.589-12.85-12.59-12.85-31.2 0-18.611 12.65-31.411T653-524h55v-55.719q0-18.581 12.589-30.931 12.59-12.35 31.2-12.35 18.186 0 30.698 12.506Q795-597.987 795-579.5v55.5h56q18.7 0 31.35 12.589 12.65 12.59 12.65 31.2 0 18.541-12.65 31.293-12.65 12.753-31.35 12.753h-56v55.835q0 18.63-12.307 30.98-12.307 12.35-30.5 12.35Q734-337 721-349.65T708-381v-55Z"/></svg>