<svg xmlns="http://www.w3.org/2000/svg" height="20" viewBox="0 -960 960 960" width="20"><path d="M248.615-464v160q0 6.5-4.547 11.25T232.799-288q-6.722 0-11.453-4.6-4.731-4.6-4.731-11.4v-352q0-6.8 4.548-11.4 4.547-4.6 11.269-4.6t11.453 4.6q4.73 4.6 4.73 11.4v160h280v-160q0-6.5 4.547-11.25 4.548-4.75 11.27-4.75 6.722 0 11.453 4.6 4.73 4.6 4.73 11.4v352q0 6.8-4.547 11.4-4.547 4.6-11.269 4.6t-11.453-4.6q-4.731-4.6-4.731-11.4v-160h-280Zm474.77 0h-68q-6.8 0-11.4-4.547-4.6-4.547-4.6-11.269 0-6.723 4.6-11.453 4.6-4.731 11.4-4.731h68v-68q0-6.8 4.547-11.4 4.547-4.6 11.269-4.6t11.453 4.6q4.731 4.6 4.731 11.4v68h68q6.8 0 11.4 4.547 4.6 4.547 4.6 11.269 0 6.723-4.6 11.453-4.6 4.731-11.4 4.731h-68v68q0 6.8-4.547 11.4-4.548 4.6-11.27 4.6-6.722 0-11.453-4.6-4.73-4.6-4.73-11.4v-68Z"/></svg>