<svg xmlns="http://www.w3.org/2000/svg" height="24" viewBox="0 -960 960 960" width="24"><path d="M206.783-100.782q-43.726 0-74.863-31.138-31.138-31.137-31.138-74.863v-546.434q0-43.726 31.138-74.863 31.137-31.138 74.863-31.138h546.434q9.131 0 20.37 2.065t20.5 6.196l-97.74 97.74H206.783v546.434h546.434v-252.434l106.001-106.001v358.435q0 43.726-31.138 74.863-31.137 31.138-74.863 31.138H206.783Zm258.739-307.61 343.957-343.957q12.695-12.696 30.31-12.696t30.827 12.696q13.211 12.696 13.211 31.158 0 18.462-13.131 31.495L503.131-322.131q-16.162 15.957-37.712 15.957-21.549 0-37.506-15.957L270.348-479.696q-12.696-12.695-12.696-30.826 0-18.13 12.696-30.826 12.696-12.696 30.826-12.696 18.131 0 30.827 12.696l133.521 132.956Z"/></svg>