<svg xmlns="http://www.w3.org/2000/svg" height="24" viewBox="0 -960 960 960" width="24"><path d="M224.615-160q-26.846 0-45.731-18.884Q160-197.769 160-224.615v-510.77q0-26.846 18.884-45.731Q197.769-800 224.615-800h510.77q10.307 0 19.615 3.038 9.308 3.039 17.077 9.116l-33.231 33.231q-2.308-2.308-5.769-3.847Q729.615-760 725-760H224.615q-10.769 0-17.692 6.923T200-735.385v510.77q0 10.769 6.923 17.692T224.615-200h510.77q10.769 0 17.692-6.923T760-224.615v-269.846l40-40.001v309.847q0 26.846-18.884 45.731Q762.231-160 735.385-160h-510.77Zm237.154-204.308 338.462-338.461q5.615-5.616 13.538-5.616t13.77 5.616q5.846 5.615 5.846 13.769t-5.846 14L483.615-331.077q-9.692 9.693-22.615 9.693-12.923 0-22.615-9.693L293-476.462q-5.616-5.615-6-13.769-.385-8.154 6-14.538 6.384-6.385 14.154-6.385 7.769 0 14.154 6.385l140.461 140.461Z"/></svg>