<svg xmlns="http://www.w3.org/2000/svg" height="20" viewBox="0 -960 960 960" width="20"><path d="m531.66-466-38.698 103.22Q491-359 488.31-356.5q-2.689 2.5-7.31 2.5-8 0-11.5-5.746t-1.5-12.467L611.037-743.18Q613-747 616-748.5q3-1.5 6.077-1.5h7.846q3.077 0 6.077 2.229t5 5.771l139 370q1 7-2.088 12.5t-10.343 5.5Q763-354 760-356t-5-7l-37-103H531.66Zm9.34-25h166l-79.059-217H624l-83 217ZM256-270v-510q0-4.3 2.789-7.15 2.79-2.85 7-2.85 4.211 0 7.211 2.85t3 7.15v510l52-50q3.929-4 7.5-4t7.5 4q5 5 5 7.5t-5 7.5l-59 59q-7.636 8-17.818 8Q256-238 248-246l-59-59q-4-4-4-7t4-7q4-4 8.045-4.5 4.046-.5 7.955 3.5l51 50Z"/></svg>