<svg xmlns="http://www.w3.org/2000/svg" height="24" viewBox="0 -960 960 960" width="24"><path d="M547.385-447.385 510-346.077q-2.461 5.616-6.846 8.923-4.385 3.308-10.769 3.308-10.539 0-15.654-8.192-5.116-8.193-1.962-17.501l142.385-374.923q2.461-5.615 6.961-8.653 4.5-3.039 10.346-3.039h14.154q5.847 0 10.347 3.423 4.5 3.423 6.961 9.039l139.308 374.384q3.154 9.308-1.962 17.385-5.115 8.077-15.654 8.077-6.384 0-10.769-3.039-4.385-3.038-6.846-9.423l-37.385-101.077h-185.23Zm12.769-34.769h159.692l-76.308-211.231h-4l-79.384 211.231ZM221.538-267.846V-800q0-8.539 5.731-14.269Q233-820 241.538-820q8.539 0 14.27 5.731 5.731 5.73 5.731 14.269v532.154l49.846-47.308q6.615-5.615 14.153-5.615 7.539 0 14.154 6.615 6.385 6.385 6.385 14.154t-6.385 14.154l-75.538 75.538q-9.692 9.693-22.616 9.693-12.923 0-22.615-9.693l-75.538-75.538q-5.616-5.615-6.001-13.769-.384-8.154 6.231-14.77 5.616-5.615 13.539-6 7.923-.384 14.538 5.231l49.846 47.308Z"/></svg>