<svg xmlns="http://www.w3.org/2000/svg" height="24" viewBox="0 -960 960 960" width="24"><path d="M250.77-410.001h59.999q3.461-59 48.385-99.5 44.923-40.5 106.846-40.5 38.308 0 76.808 21.308 38.501 21.308 63.501 58.694h-77.847v59.998h179.999v-179.998h-59.999v76.616q-34.308-47.231-83.039-71.924-48.731-24.692-99.423-24.692-88.076 0-149.538 58.038-61.461 58.038-65.692 141.96Zm229.297 310q-78.836 0-148.204-29.92-69.369-29.92-120.682-81.21-51.314-51.291-81.247-120.629-29.933-69.337-29.933-148.173t29.92-148.204q29.92-69.369 81.21-120.682 51.291-51.314 120.629-81.247 69.337-29.933 148.173-29.933t148.204 29.92q69.369 29.92 120.682 81.21 51.314 51.291 81.247 120.629 29.933 69.337 29.933 148.173t-29.92 148.204q-29.92 69.369-81.21 120.682-51.291 51.314-120.629 81.247-69.337 29.933-148.173 29.933ZM480-160q134 0 227-93t93-227q0-134-93-227t-227-93q-134 0-227 93t-93 227q0 134 93 227t227 93Zm0-320Z"/></svg>