<svg xmlns="http://www.w3.org/2000/svg" height="20" viewBox="0 -960 960 960" width="20"><path d="M288-292q-78.333 0-133.167-54.765Q100-401.529 100-479.765 100-558 154.833-613 209.667-668 288-668q62 0 118 38.5T476-524h384v88h-96v144h-88v-144H476q-15 67-70.312 105.5Q350.375-292 288-292Zm0-20q62 0 108-41t60-103h240v144h48v-144h96v-48H456q-14-62-60-103t-108-41q-70 0-119 49t-49 119q0 70 49 119t119 49Zm0-112q23.1 0 39.55-16.45Q344-456.9 344-480q0-23.1-16.45-39.55Q311.1-536 288-536q-23.1 0-39.55 16.45Q232-503.1 232-480q0 23.1 16.45 39.55Q264.9-424 288-424Zm0-56Z"/></svg>