<svg xmlns="http://www.w3.org/2000/svg" height="24" viewBox="0 -960 960 960" width="24"><path d="M477.174-240q23.261 0 39.739-16.478 16.478-16.479 16.478-39.74 0-23.261-16.478-39.456-16.478-16.196-39.739-16.196-23.261 0-39.457 16.196-16.196 16.195-16.196 39.456 0 23.261 16.196 39.74Q453.913-240 477.174-240Zm145.13-360.304q0-55.131-36.782-87.979-36.783-32.847-96.783-32.847-43.869 0-79.5 19.347-35.63 19.348-57.326 55.479-8.696 13.261-1.348 28.522t24.174 22.391q14.261 5.565 29.522.5t27.087-19.326q10.435-12.739 23.826-19.326t29-6.587q22.347 0 36.738 12.739 14.392 12.739 14.392 32.348 0 14.608-10.587 32.347t-29.5 34.348q-29.391 26.391-41.544 45.826-12.152 19.435-16.152 47-2 16.261 10.196 28.892Q459.913-394 478.174-394q15.696 0 28.609-10.913 12.913-10.913 18.174-29.174 4.13-14.304 12.413-26.522 8.282-12.217 26.021-29.391 33.479-33.478 46.196-57.609 12.717-24.13 12.717-52.695ZM206.783-100.782q-44.305 0-75.153-30.848-30.848-30.848-30.848-75.153v-546.434q0-44.305 30.848-75.153 30.848-30.848 75.153-30.848h546.434q44.305 0 75.153 30.848 30.848 30.848 30.848 75.153v546.434q0 44.305-30.848 75.153-30.848 30.848-75.153 30.848H206.783Z"/></svg>