<svg xmlns="http://www.w3.org/2000/svg" height="20" viewBox="0 -960 960 960" width="20"><path d="m541.001-445.001-46.913-62.217q-7.511-10.261-19.087-10.261-11.577 0-19.088 10.261l-52.999 70.478q-9.261 12.391-2.753 26.065 6.509 13.674 21.84 13.674H708q15.332 0 21.84-13.674 6.508-13.674-2.753-26.065l-76.999-102.478q-7.511-10.261-19.087-10.261-11.577 0-19.088 10.261l-70.912 94.217ZM331.784-233.782q-41.005 0-69.504-28.498-28.498-28.499-28.498-69.504v-466.434q0-41.005 28.498-69.503 28.499-28.498 69.504-28.498h466.434q41.005 0 69.503 28.498 28.498 28.498 28.498 69.503v466.434q0 41.005-28.498 69.504-28.498 28.498-69.503 28.498H331.784ZM161.782-63.781q-41.005 0-69.503-28.498-28.498-28.498-28.498-69.503v-515.435q0-20.387 14.246-34.694 14.246-14.307 34.544-14.307 20.298 0 34.755 14.307 14.456 14.307 14.456 34.694v515.435h515.435q20.387 0 34.694 14.246 14.307 14.246 14.307 34.544 0 20.298-14.307 34.754-14.307 14.457-34.694 14.457H161.782Z"/></svg>