<svg xmlns="http://www.w3.org/2000/svg" height="24" viewBox="0 -960 960 960" width="24"><path d="M167.692-267.692v-158.462L401.539-480l-233.847-53.846v-161.539q0-18.154 14.423-27.731 14.423-9.577 30.577-2.346l446.231 190.846h-2.769q-84.693 6.923-147.731 62.116-63.039 55.192-71.5 138.346v-.23.23l-224 96.539q-16.154 7.231-30.693-2.346-14.538-9.577-14.538-27.731Zm504.616 132.308q-66.847 0-113.423-46.577-46.578-46.577-46.578-113.424 0-66.846 46.578-113.423 46.576-46.577 113.423-46.577 66.846 0 113.423 46.577t46.577 113.423q0 66.847-46.577 113.424-46.577 46.577-113.423 46.577Zm-15.385-107.539L595.846-304q-4.461-4.461-10.538-4.846-6.077-.385-11.308 4.846t-5.231 10.923q0 5.692 5.231 10.923l75.692 75.693q9.693 9.692 22.616 9.692t22.615-9.692l75.692-75.693q4.462-4.461 4.847-10.538.384-6.077-4.847-11.308-5.23-5.231-10.923-5.231-5.692 0-10.923 5.231l-61.077 61.077v-148.615q0-6.462-4.461-10.923-4.462-4.462-10.923-4.462-6.462 0-10.923 4.462-4.462 4.461-4.462 10.923v148.615Z"/></svg>