<svg xmlns="http://www.w3.org/2000/svg" height="20" viewBox="0 -960 960 960" width="20"><path d="M644.923-290.923 608.846-327q-5.461-5.461-13.538-5.846-8.077-.385-14.308 5.846t-6.231 13.923q0 7.692 6.231 13.923l63.692 63.693q8.693 8.692 19.616 8.692t19.615-8.692l63.692-63.693q5.462-5.461 5.847-13.538.384-8.077-5.847-14.308-6.23-6.231-13.923-6.231-7.692 0-13.923 6.231l-36.077 36.077v-80.615q0-8.462-5.461-13.923-5.462-5.462-13.923-5.462-8.462 0-13.923 5.462-5.462 5.461-5.462 13.923v80.615Zm-453.231-1.769v-377.693q0-15.154 12.423-23.731 12.423-8.577 26.577-2.346l422.231 169.846h9.231q-23.077 1.539-37.385 2.808-14.308 1.269-33.923 9.577L223.692-661v124.385L393.539-480l-169.847 56.615V-299l235.385-93.769q-4.923 8.461-8.654 21.115-3.731 12.654-5.5 19.039V-354.154l-215 87.539q-14.154 6.231-26.193-2.346-12.038-8.577-12.038-23.731Zm472.616 141.308q-63.847 0-107.923-44.077-44.078-44.077-44.078-107.924 0-63.846 44.078-107.923 44.076-44.077 107.923-44.077 63.846 0 107.923 44.077 44.077 44.077 44.077 107.923 0 63.847-44.077 107.924-44.077 44.077-107.923 44.077ZM223.692-418.769V-661v362-119.769Z"/></svg>