<svg xmlns="http://www.w3.org/2000/svg" height="20" viewBox="0 -960 960 960" width="20"><path d="M129-248v-108l334-124-334-124v-108q0-31 26-49t56-5l553 226q-18.5-8-37.5-10t-39.5-2q-107 0-183.5 72.5T423-300v10.5q0 4.5 2 8.5l-215 87q-29.5 14-55.25-4.5T129-248ZM686.774-96Q607-96 551-152.226t-56-136Q495-368 551.226-424t136-56Q767-480 823-423.774t56 136Q879-208 822.774-152t-136 56ZM656-304l-21-20q-9.364-9-22.182-9Q600-333 591-324q-9 9-9 21.818 0 12.818 9 22.182l54 55q17.636 18 41.818 18T729-225l55-55q9-9.364 8.5-22.182Q792-315 783-324q-9-9-21.818-9-12.818 0-22.182 9l-20 20v-58q0-12.6-9.2-21.8-9.2-9.2-21.8-9.2-12.6 0-22.3 9.2-9.7 9.2-9.7 21.8v58Z"/></svg>