<svg xmlns="http://www.w3.org/2000/svg" height="24" viewBox="0 -960 960 960" width="24"><path d="M420-472q11 0 19.5-8.5T448-500q0-11-8.5-19.5T420-528q-11 0-19.5 8.5T392-500q0 11 8.5 19.5T420-472Zm120 0q11 0 19.5-8.5T568-500q0-11-8.5-19.5T540-528q-11 0-19.5 8.5T512-500q0 11 8.5 19.5T540-472Zm-240 0q11 0 19.5-8.5T328-500q0-11-8.5-19.5T300-528q-11 0-19.5 8.5T272-500q0 11 8.5 19.5T300-472Zm360 0q11 0 19.5-8.5T688-500q0-11-8.5-19.5T660-528q-11 0-19.5 8.5T632-500q0 11 8.5 19.5T660-472ZM227-252l-19 48q-.833 1.714-2.917 2.857Q203-200 200.667-200h-2Q196-200 194-202.1t-2-4.9v-45q-24.75 0-42.375-17.625T132-312v-376q0-24.75 17.625-42.375T192-748h576q24.75 0 42.375 17.625T828-688v376q0 24.809-17.625 42.475Q792.75-251.858 768-251.858V-206q0 2.526-1.737 4.263T762-200h-2.8q-2.4 0-4.4-1.077-2-1.077-2.8-2.923l-17-48H227Zm-35-28h576q14 0 23-9t9-23v-376q0-14-9-23t-23-9H192q-14 0-23 9t-9 23v376q0 14 9 23t23 9Zm288-220Z"/></svg>