<svg xmlns="http://www.w3.org/2000/svg" height="24" viewBox="0 -960 960 960" width="24"><path d="M204.522-180.782q-44.305 0-75.153-30.848-30.848-30.848-30.848-75.153V-640q-22.088 0-37.544-15.457-15.457-15.456-15.457-37.544 0-22.087 15.457-37.544 15.456-15.456 37.544-15.456h129.044v-8.695q0-21.805 14.75-36.555t36.555-14.75h78.304q21.804 0 36.555 14.75 14.75 14.75 14.75 36.555v8.695h128.478q22.088 0 37.544 15.456 15.457 15.457 15.457 37.544 0 22.088-15.457 37.544Q559.045-640 536.957-640v353.217q0 44.305-30.848 75.153-30.848 30.848-75.153 30.848H204.522Zm451.87-33.217q-18.681 0-31.319-12.8-12.638-12.8-12.638-31.722 0-18.681 12.8-31.319 12.801-12.637 31.722-12.637h80.566q18.681 0 31.319 12.64 12.637 12.64 12.637 31.326t-12.637 31.599q-12.638 12.913-31.319 12.913h-81.131Zm.565-168.478q-18.921 0-31.722-12.8-12.8-12.8-12.8-31.722t12.8-31.722q12.801-12.8 31.722-12.8h160q18.922 0 31.722 12.8t12.8 31.722q0 18.922-12.8 31.722t-31.722 12.8h-160Zm-.565-169.044q-18.681 0-31.319-12.8-12.638-12.8-12.638-31.722 0-18.682 12.638-31.319Q637.711-640 656.392-640h201.131q18.681 0 31.319 12.64 12.637 12.641 12.637 31.327 0 18.685-12.637 31.599-12.638 12.913-31.319 12.913H656.392ZM204.522-640v353.217h226.434V-640H204.522Z"/></svg>