<svg xmlns="http://www.w3.org/2000/svg" height="20" viewBox="0 -960 960 960" width="20"><path d="M181-324h598q20.213 0 34.606-14.65Q828-353.3 828-373v-262q0-20.213-14.394-34.606Q799.213-684 779-684H181q-19.7 0-34.35 14.394Q132-655.213 132-635v262q0 19.7 14.65 34.35Q161.3-324 181-324Zm73 130v-12h-73q-69.488 0-118.244-48.756Q14-303.513 14-373v-262q0-70 48.756-118.5T181-802h598q70 0 118.5 48.5T946-635v262q0 69.487-48.5 118.244Q849-206 779-206h-73v12q0 15.3-10.35 25.65Q685.3-158 670-158H290q-15.3 0-25.65-10.35Q254-178.7 254-194Zm226-310Z"/></svg>