<svg xmlns="http://www.w3.org/2000/svg" height="24" viewBox="0 -960 960 960" width="24"><path d="M480.028-520q-50.985 0-86.702-35.689-35.717-35.69-35.717-86.674 0-50.985 35.689-86.702 35.689-35.718 86.674-35.718 50.985 0 86.702 35.69 35.717 35.689 35.717 86.674 0 50.984-35.689 86.702Q531.013-520 480.028-520Zm.092-84.783q15.923 0 26.706-10.902t10.783-26.826q0-15.924-10.813-26.706Q495.984-680 480-680q-15.804 0-26.706 10.812-10.903 10.813-10.903 26.797 0 15.804 10.903 26.706 10.902 10.902 26.826 10.902ZM237.609-277.609V-356q0-21.478 10.858-40.696 10.859-19.217 29.337-30.456 45.718-26.239 96.196-40.739 50.478-14.5 106.12-14.5 55.641 0 106 14.38 50.358 14.381 96.076 40.859 18.552 11.329 29.373 30.382 10.822 19.053 10.822 40.726v78.435H237.609Zm242.391-120q-37.891 0-74.141 8.805-36.25 8.804-69.098 26.413h286.478Q590.391-380 554.141-388.804q-36.25-8.805-74.141-8.805Zm362.065-235.674q-31.717-72.76-84.706-125.75-52.989-52.989-124.555-83.51l35.305-84.044q87.761 36 154.354 103 66.594 67 103.646 155l-84.044 35.304Zm-724.608.24-84.044-35.544q37-88 103.5-154.5t154.5-103.5l35.304 84.044q-72.043 31.239-125.391 84.467-53.348 53.228-83.869 125.033Zm174.195 599.39q-87.761-36-154.354-102.999-66.594-67-103.646-155l84.044-35.305q30.761 72.044 83.869 125.033 53.109 52.989 125.392 84.228l-35.305 84.044Zm376.457.48-35.305-84.045q71.805-30.76 125.511-84.467 53.707-53.706 83.75-124.793l84.044 35.304q-36 87.761-103 154.355-67 66.593-155 103.645ZM480-642.392Zm0 280h143.239-286.478H480Z"/></svg>