<svg xmlns="http://www.w3.org/2000/svg" height="20" viewBox="0 -960 960 960" width="20"><path d="M480.118-528Q426-528 388-565.882q-38-37.883-38-92Q350-712 387.882-750q37.883-38 92-38Q534-788 572-750.118q38 37.883 38 92Q610-604 572.118-566q-37.883 38-92 38Zm.382-92q15.5 0 26.5-11.5t11-27q0-15.5-11.125-26.5T480-696q-15 0-26.5 11.125T442-658q0 15 11.5 26.5t27 11.5ZM230-278v-79q0-23 12-44t31-33q48-30 101.5-43t106-13q52.5 0 105.5 12.5T687-434q19.308 12.375 31.154 32.688Q730-381 730-357.186V-278H230Zm250-120q-32 0-63 6.5T357-370h246q-29-13-60-20.5t-63-7.5Zm347-236q-34-74-80-120t-115-75l46-109q87 36 153.891 103Q898.782-768 936-680l-109 46Zm-696 1L22-680q36-88 103-155t155-103l46 109q-71 32-118 79t-77 117ZM281-23q-87-36-153.891-103Q60.218-193 23-281l109-46q31 71 77 116.5T327-132L281-23Zm397 2-46-109q70-31 119-79.5T827-325l109 46q-36 87-103 153.891Q766-58.218 678-21ZM480-658Zm0 288h123-246 123Z"/></svg>