<svg xmlns="http://www.w3.org/2000/svg" height="20" viewBox="0 -960 960 960" width="20"><path d="M480-532.615q-41.539 0-70.769-29.231Q380-591.077 380-632.615q0-41.539 29.231-70.77 29.23-29.231 70.769-29.231t70.769 29.231Q580-674.154 580-632.615q0 41.538-29.231 70.769-29.23 29.231-70.769 29.231ZM260-323.384v-49.001q0-17.153 7.808-30.153 7.807-13 21.73-21.693 42.693-28.231 91.885-39.692 49.192-11.462 98.577-11.462 48.615 0 98.192 11.462 49.577 11.461 92.27 39.692 13.153 8.693 21.346 22.077Q700-388.769 700-372.385v49.001H260ZM856-637q-31-75.769-87.885-132.269Q711.231-825.769 637-856l12.615-30.077Q733-849.308 790.654-792.308q57.654 57 96.192 142.693L856-637Zm-752 0-30.077-12.615q36-84.924 94.154-142.693 58.154-57.769 142.308-93.769L323-856q-75 31-131 87.5T104-637ZM309.615-73.923Q227-109.154 167.808-169.23q-59.193-60.077-93.885-141.923L104-323q32 75 88 131t131 88l-13.385 30.077Zm339.231 0L637-104q75-32 131.5-88T856-323l30.077 12.615Q849.308-227 790.385-168.192q-58.923 58.808-141.539 94.27Z"/></svg>