<svg xmlns="http://www.w3.org/2000/svg" height="20" viewBox="0 -960 960 960" width="20"><path d="M240.615-184q-24.315 0-40.465-16.5Q184-217 184-240.615v-80.923q0-6.839 4.52-11.42 4.52-4.58 11.269-4.58 6.749 0 11.48 4.58 4.731 4.581 4.731 11.42v80.923q0 9.23 7.692 16.923Q231.385-216 240.615-216h478.77q9.23 0 16.923-7.692Q744-231.385 744-240.615v-425.231H216v129.538q0 6.839-4.52 11.419-4.521 4.581-11.27 4.581t-11.479-4.581Q184-529.469 184-536.308v-183.077Q184-743 200.15-759.5 216.3-776 240.615-776h478.77q24.315 0 40.465 16.5Q776-743 776-719.385v478.77Q776-217 759.85-200.5 743.7-184 719.385-184h-478.77Zm277.692-228.923H200q-6.839 0-11.419-4.52-4.581-4.521-4.581-11.27t4.581-11.479q4.58-4.731 11.419-4.731h318.307l-89.679-90.615q-5.782-5.616-4.513-11.654 1.27-6.039 6.116-10.885 5.615-5.615 11.269-5.615t11.269 5.615l107.476 109.156q8.986 9.075 8.986 20.18t-8.692 19.433L451-299.769q-5.615 5.615-11.154 4.346-5.538-1.269-10.384-6.115-5.616-5.616-5.616-10.885t5.616-10.721l88.845-89.779Z"/></svg>