<svg xmlns="http://www.w3.org/2000/svg" height="20" viewBox="0 -960 960 960" width="20"><path d="M192.615-232q-24.315 0-40.465-16.15Q136-264.3 136-288.615v-68.616q0-6.838 4.52-11.419t11.269-4.581q6.749 0 11.48 4.581Q168-364.069 168-357.231v68.616q0 9.23 7.692 16.923Q183.385-264 192.615-264h574.77q9.23 0 16.923-7.692Q792-279.385 792-288.615v-382.77q0-9.23-7.692-16.923Q776.615-696 767.385-696h-574.77q-9.23 0-16.923 7.692Q168-680.615 168-671.385v68.616q0 6.838-4.52 11.419-4.521 4.581-11.27 4.581t-11.479-4.581Q136-595.931 136-602.769v-68.616q0-24.315 16.15-40.465Q168.3-728 192.615-728h574.77q24.315 0 40.465 16.162Q824-695.676 824-671.344v383.012Q824-264 807.85-248t-40.465 16h-574.77Zm293.846-232H152q-6.839 0-11.419-4.52Q136-473.04 136-479.789q0-6.75 4.581-11.48Q145.161-496 152-496h334.461l-75.23-76q-4.847-5.615-5.616-11.654-.769-6.038 5.137-11.654 6.094-5.615 11.748-5.231 5.654.385 11.269 6l94.923 94.924q8.693 8.328 8.693 19.433t-8.693 19.797l-94.923 94.924q-4.846 4.846-10.384 4.73-5.539-.115-11.633-5.73-5.906-5.616-5.521-11.27.384-5.654 6-11.269l74.23-75Z"/></svg>