<svg xmlns="http://www.w3.org/2000/svg" height="20" viewBox="0 -960 960 960" width="20"><path d="m424.154-405-17.077-17.077q8.461-11 13.577-25.923 5.115-14.923 5.115-31.231 0-16.307-5.5-31.231-5.5-14.923-13.961-25.923l17.077-16.307q12.384 13.153 19.077 32.461 6.692 19.308 6.692 41 0 21.693-6.308 41.769-6.308 20.077-18.692 32.462Zm78.077 76.539-16.308-16.308q24.462-27.769 37.923-62.5Q537.308-442 537.308-480q0-38-12.962-73.115-12.961-35.116-38.423-62.116l16.308-15.308q27.846 30.154 43.654 69.039 15.807 38.885 15.807 81.5t-15.807 81.615q-15.808 39-43.654 69.924ZM192-500q-22.308 0-37.154-14.846Q140-529.692 140-552q0-22.308 14.846-37.154Q169.692-604 192-604q22.308 0 37.154 14.846Q244-574.308 244-552q0 22.308-14.846 37.154Q214.308-500 192-500ZM68-356v-16.846q0-15.077 9.423-25.039 9.423-9.961 22.27-18.654 20.692-12 44.653-15.73Q168.308-436 192-436q23.692 0 47.654 3.731 23.961 3.73 44.654 15.73 12.846 8.693 22.269 18.654Q316-387.923 316-372.846V-356H68Zm700-144q-22.308 0-37.154-14.846Q716-529.692 716-552q0-22.308 14.846-37.154Q745.692-604 768-604q22.308 0 37.154 14.846Q820-574.308 820-552q0 22.308-14.846 37.154Q790.308-500 768-500ZM644-356v-16.846q0-15.077 9.423-25.039 9.423-9.961 22.269-18.654 20.693-13 44.654-16.23Q744.308-436 768-436q23.692 0 47.654 3.731 23.961 3.73 44.654 15.73 12.846 8.693 22.269 18.654Q892-387.923 892-372.846V-356H644Z"/></svg>