<svg xmlns="http://www.w3.org/2000/svg" height="24" viewBox="0 -960 960 960" width="24"><path d="m414.154-442-25.077-25.077q6.461-11 9.077-24.423 2.615-13.423 2.615-27.731 0-14.307-3-27.731-3-13.423-9.461-23.423l25.077-25.307q11.384 15.153 17.077 35.461 5.692 20.308 5.692 41 0 20.693-5.308 41.269-5.308 20.577-16.692 35.962Zm78.077 77.539-25.308-25.308q23.462-28.769 34.423-62Q512.308-485 512.308-520q0-35-10.962-68.115-10.961-33.116-34.423-61.116l25.308-25.308q27.846 33.154 41.654 73.039 13.807 39.885 13.807 81.5t-13.807 81.615q-13.808 40-41.654 73.924ZM200-500q-25.308 0-42.654-17.346Q140-534.692 140-560q0-25.308 17.346-42.654Q174.692-620 200-620q25.308 0 42.654 17.346Q260-585.308 260-560q0 25.308-17.346 42.654Q225.308-500 200-500ZM60-340v-6.846q0-17.077 9.923-30.539 9.923-13.461 26.77-21.154 23.692-11 49.653-16.23Q172.308-420 200-420q27.692 0 53.654 5.231 25.961 5.23 49.654 16.23 16.846 7.693 26.769 21.154Q340-363.923 340-346.846V-340H60Zm700-160q-25.308 0-42.654-17.346Q700-534.692 700-560q0-25.308 17.346-42.654Q734.692-620 760-620q25.308 0 42.654 17.346Q820-585.308 820-560q0 25.308-17.346 42.654Q785.308-500 760-500ZM620-340v-6.846q0-17.077 9.923-30.539 9.923-13.461 26.769-21.154 23.693-11 49.654-16.23Q732.308-420 760-420q27.692 0 53.654 5.231 25.961 5.23 49.654 16.23 16.846 7.693 26.769 21.154Q900-363.923 900-346.846V-340H620Z"/></svg>