<svg xmlns="http://www.w3.org/2000/svg" height="20" viewBox="0 -960 960 960" width="20"><path d="M664.923-204.923h-96.615v57.231q0 5.067-3.303 8.379-3.303 3.313-8.354 3.313-5.051 0-8.39-3.313-3.338-3.312-3.338-8.379v-134.846q0-7.923 6.846-14.385t14.761-6.462h98.393q.369 0-.123.277t-.492.647v98.153q0 .37.492-.123.492-.492.123-.492ZM763.385-208v60.308q0 5.067-3.303 8.379-3.303 3.313-8.354 3.313-5.051 0-8.39-3.297-3.338-3.298-3.338-8.341v-143.677q0-5.044 3.303-8.557 3.302-3.513 8.353-3.513 5.052 0 8.39 3.313 3.339 3.313 3.339 8.38v60.307H836v-60.307q0-5.067 3.303-8.38 3.302-3.313 8.353-3.313 5.052 0 8.39 3.298 3.339 3.298 3.339 8.341v143.677q0 5.044-3.303 8.556-3.303 3.513-8.354 3.513-5.051 0-8.39-3.313-3.338-3.312-3.338-8.379V-208h-72.615Zm-195.077-20.308h72.615v-50.153h-72.615v50.153Zm-95.385 93.077q-119.231 5.385-204.077-75.23Q184-291.077 184-408q0-55.525 25.923-109.109 25.923-53.583 63.923-104.314 38-50.731 81.962-94.731 43.961-44 80.052-77.102 4.194-4.372 9.821-6.058T456.086-801q4.778 0 9.519 2.192 4.742 2.192 9.119 6.577 33.968 34.077 77.545 77.423 43.577 43.346 81.693 92.039 38.115 48.692 64.923 100.592T728-417.231q0 10.462-1 20.923-1 10.462-3 20.923H529.538q-23.353 0-39.984 16.631t-16.631 39.985v183.538Z"/></svg>