<svg xmlns="http://www.w3.org/2000/svg" height="24" viewBox="0 -960 960 960" width="24"><path d="M572-119h-64v35q0 16.467-10.767 27.233Q486.467-46 470-46t-27.233-10.767Q432-67.533 432-84v-171q0-20.367 13.317-33.683Q458.633-302 479-302h93q33 0 54.5 21.5T648-226v32q0 32-21.5 53.5T572-119Zm176-27v62q0 16.467-10.767 27.233Q726.467-46 710-46t-27.233-10.767Q672-67.533 672-84v-180q0-16.467 10.767-27.233Q693.533-302 710-302t27.233 10.767Q748-280.467 748-264v42h64v-42q0-16.467 10.767-27.233Q833.533-302 850-302t27.233 10.767Q888-280.467 888-264v180q0 16.467-10.767 27.233Q866.467-46 850-46t-27.233-10.767Q812-67.533 812-84v-62h-64Zm-240-48h64v-32h-64v32ZM352-49Q218-66 132-165.75T46-408q0-68.021 31.5-135.51Q109-611 156-674q47-63 101.5-117.5T358-887q9-8 20-12t22-4q11 0 22 4.5t20 12.5q47 42 101.5 96.5t101.5 116q47 61.5 78 128.788Q754-477.424 754-408v13q0 6-1 13H478q-53 0-89.5 36.5T352-256v207Z"/></svg>