<svg xmlns="http://www.w3.org/2000/svg" height="24" viewBox="0 -960 960 960" width="24"><path d="M178.461-680v-135.385l135.385 67.693L178.461-680Zm507.693 0v-135.385l135.385 67.693L686.154-680Zm-236.923-33.846v-135.385l135.384 67.692-135.384 67.693ZM420-108.461q-69.077-2.77-124.962-11.731-55.884-8.962-95.923-22.269-40.038-13.308-61.884-30.077-21.847-16.77-21.847-35.154v-329.231q0-21.154 27.27-39.193 27.269-18.038 75.884-31.461Q267.154-621 334-628.962q66.846-7.961 146-7.961t146 7.961q66.846 7.962 115.462 21.385 48.615 13.423 75.884 31.461 27.27 18.039 27.27 39.193v329.231q0 18.384-21.847 35.154-21.846 16.769-61.884 30.077-40.039 13.307-95.923 22.269-55.885 8.961-124.962 11.731v-159.231H420v159.231Zm60-368.462q99.308 0 185.961-15.731 86.654-15.731 129.423-41.5-13.076-21.154-95.615-41.961Q617.231-596.923 480-596.923t-219.769 20.808q-82.539 20.807-95.615 41.961 42.769 25.769 120.576 41.5Q363-476.923 480-476.923ZM380-151.385v-156.307h200v156.307q94.615-7.23 152.154-25.038 57.538-17.808 72.461-35.192v-282.539q-65.769 30.462-146.461 43.846Q577.462-436.923 480-436.923t-178.154-13.385q-80.692-13.384-146.461-43.846v282.539q14.923 17.384 67.846 35.192T380-151.385Zm100-171.769Z"/></svg>