<svg xmlns="http://www.w3.org/2000/svg" height="24" viewBox="0 -960 960 960" width="24"><path d="M115.217-687.413v-165.739l165.979 82.869-165.979 82.87Zm607.413 0v-165.739l165.74 82.869-165.74 82.87Zm-286.695-41.435v-165.739l165.978 82.869-165.978 82.87ZM358.087-75.674q-58.696-4.043-110.729-14.043-52.032-10-91.173-25.218-39.142-15.217-62.207-35.293-23.065-20.076-23.065-44.272V-560q0-27.152 32.456-50.446 32.457-23.293 87.892-40.869 55.435-17.576 129.989-27.674 74.554-10.098 158.75-10.098t158.75 10.098q74.554 10.098 129.989 27.674t87.892 40.869q32.456 23.294 32.456 50.446v365.5q0 24.196-23.065 44.152-23.065 19.957-62.207 35.055-39.141 15.098-91.173 25.098-52.033 10-110.729 14.521v-202.413H358.087v202.413ZM480-523.587q93.413 0 160.924-10.783 67.511-10.782 108.554-24.826-8.131-6.434-80.783-22.663Q596.043-598.087 480-598.087q-116.043 0-188.815 16.228-72.772 16.229-80.663 22.663 41.043 14.044 108.554 24.826Q386.587-523.587 480-523.587Z"/></svg>