<svg xmlns="http://www.w3.org/2000/svg" height="20" viewBox="0 -960 960 960" width="20"><path d="M132.695-689.523v-157.566l158.131 78.783-158.131 78.783Zm593.523 0v-157.566l157.566 78.783-157.566 78.783Zm-303.827-51.391V-898.48l158.131 78.783-158.131 78.783ZM355.478-78.955q-70.827-1.74-123.631-12.74-52.805-10.999-87.957-28.195-35.152-17.196-52.26-38.739-17.11-21.544-17.11-44.37V-564q0-28.087 31.762-51.827 31.761-23.739 86.652-40.782 54.892-17.044 128.566-26.957t158.5-9.913q84.826 0 158.5 9.913t128.566 26.957q54.891 17.043 86.652 40.782 31.761 23.74 31.761 51.827v361.001q0 22.826-17.108 44.087-17.109 21.261-52.261 38.174t-87.957 27.913q-52.804 11-123.631 13.87v-204.523H355.478v204.523ZM480-536.48q80.521 0 141.956-6.804 61.434-6.804 102.173-21.543-32.218-17.392-107.305-24.022-75.086-6.63-136.824-6.63-64.738 0-138.607 6.13t-105.522 24.522q40.739 14.739 102.173 21.543 61.435 6.804 141.956 6.804Z"/></svg>