<svg xmlns="http://www.w3.org/2000/svg" height="24" viewBox="0 -960 960 960" width="24"><path d="M108.695-697.523v-173.566l174.131 86.783-174.131 86.783Zm617.523 0v-173.566l173.566 86.783-173.566 86.783Zm-295.827-43.391V-914.48l174.131 86.783-174.131 86.783ZM355.478-62.955q-67.827-2.74-122.631-12.74-54.805-10-93.457-26.195-38.652-16.196-59.76-37.739-21.11-21.544-21.11-47.37V-560q0-30.087 33.762-55.827 33.761-25.739 91.152-44.782 57.392-19.044 134.066-29.957T480-701.479q85.826 0 162.5 10.913t134.066 29.957q57.391 19.043 91.152 44.782 33.761 25.74 33.761 55.827v373.001q0 25.826-21.108 47.087-21.109 21.261-59.761 37.174t-93.457 25.913q-54.804 10-122.631 13.87v-212.523H355.478v212.523ZM480-528.48q88.521 0 151.956-9.804 63.434-9.804 103.173-22.543-19.218-8.392-87.305-21.522-68.086-13.13-167.824-13.13-99.738 0-168.107 13.13t-87.022 21.522q39.739 12.739 103.173 22.543 63.435 9.804 151.956 9.804Z"/></svg>