<svg xmlns="http://www.w3.org/2000/svg" height="24" viewBox="0 -960 960 960" width="24"><path d="M108.695-697.523v-173.566l174.131 86.783-174.131 86.783Zm617.523 0v-173.566l173.566 86.783-173.566 86.783Zm-295.827-43.391V-914.48l174.131 86.783-174.131 86.783Zm14.131 682.959q-81.087-.87-151.674-11.653Q222.26-80.39 170.369-97.803q-51.892-17.413-81.87-40.392-29.978-22.978-29.978-48.804V-560q0-30.087 33.76-55.827 33.762-25.739 91.153-44.782 57.392-19.044 134.066-29.957T480-701.479q85.826 0 162.5 10.913t134.066 29.957q57.391 19.043 91.152 44.782 33.761 25.74 33.761 55.827v373.001q0 25.826-29.978 48.522-29.978 22.695-81.87 39.826-51.891 17.13-122.196 27.913-70.305 10.783-151.957 12.783v-160.566h-70.956v160.566ZM480-528.48q88.521 0 151.956-9.804 63.434-9.804 103.173-22.543-19.218-8.392-87.305-21.522-68.086-13.13-167.824-13.13-99.738 0-168.107 13.13t-87.022 21.522q39.739 12.739 103.173 22.543 63.435 9.804 151.956 9.804ZM338.521-172.218v-152.304h282.958v152.304q67-7.434 110.934-20.108Q776.348-205 795.478-215.87v-254.042q-56.13 22-134.891 34.717Q581.826-422.477 480-422.477t-180.587-12.718q-78.761-12.717-134.891-34.717v254.042q19.13 10.87 63.065 23.544 43.934 12.674 110.934 20.108ZM480-320.782Z"/></svg>