<svg xmlns="http://www.w3.org/2000/svg" height="24" viewBox="0 -960 960 960" width="24"><path d="M405.305-677.87q1.058 0 1.587-.5.529-.5 1.587-.5 29.043 1.131 49.717 21.24 20.674 20.108 20.674 49.151v4.174l-73.565-73.565Zm448.608 372.565L739.218-420v75.479L633.217-450.523v-262.694H370.523L264.521-819.218h368.696q44.305 0 75.153 30.848 30.848 30.848 30.848 75.153V-540l114.695-114.695q12.827-12.826 29.066-6.131 16.239 6.696 16.239 24.653v312.346q0 17.957-16.239 24.653-16.239 6.695-29.066-6.131ZM633.217-140.782H166.783q-44.305 0-75.153-30.848-30.848-30.848-30.848-75.153v-466.434q0-40.348 26.326-70.349 26.326-30 65.544-34.522l104.871 104.871h-90.74v466.434h196.738v-36.913q-62.217-12.261-103.847-57.087-41.63-44.826-49.63-106.173-2-11.259 7.119-17.912 9.119-6.653 20.283-6.653 11.163 0 20.418 6.147 9.254 6.148 11.31 17.418 8 47.043 44.674 78.434Q350.522-338.13 400-338.13q33.565 0 62.783-16.196 29.217-16.196 47.521-43.892l42.131 42.696q-21.739 29-51.478 47.065-29.739 18.066-64.478 24.761v36.913h196.738v-90.74l104.871 104.871q-4.522 39.218-34.24 65.544-29.718 26.326-70.631 26.326Zm165.87 94.696-357-357.566q-10.13 6.131-20.402 9.131t-21.685 3q-33 0-56.5-23.5t-23.5-56.5v-54.218L45.521-800.783q-12.695-12.696-12.413-30.826.283-18.131 12.979-30.826 12.695-12.696 31.108-12.696 18.414 0 31.109 12.696l754.131 754.131q12.696 12.695 12.414 31.391-.283 18.696-12.979 31.392-12.696 12.695-31.391 12.413-18.696-.283-31.392-12.979ZM382.87-462.87Zm119.217-119.217ZM363.521-246.783h72.958-72.958Z"/></svg>