<svg xmlns="http://www.w3.org/2000/svg" height="20" viewBox="0 -960 960 960" width="20"><path d="m745.693-163.538-607.77-606.77q-5.616-5.615-5.5-11.269.115-5.654 6.5-12.039Q145.307-800 150.077-800q4.769 0 11.154 6.384L769-186.846q5.616 5.616 5.5 11.269-.115 5.654-6.5 12.039-6.384 6.385-11.154 6.385-4.769 0-11.153-6.385Zm36.538-219.539-80.692-80.692v107.692L488.231-568.385V-584q0-19.615-15.039-35.154-15.038-15.538-36.654-15.538h-6.923q-3.846 0-6.154 1.538L328.615-728h316.308q24.616 0 40.616 16t16 40.615v173.154l80.692-80.692q5.692-5.693 15.269-2.847 9.577 2.847 9.577 11.77v178q0 8.923-9.577 11.77-9.577 2.846-15.269-2.847ZM262.154-232q-24.616 0-40.616-16t-16-40.615v-382.77q0-15.538 5.923-28.384 5.923-12.847 18.923-24.693L700-255.846q-11.846 13-25.692 18.423Q660.462-232 644.923-232H465.231v-78q34.461-5.461 64.577-23.808 30.115-18.346 50.346-47.577l-18.077-17.077q-17 29-46.269 46.116-29.27 17.115-62.27 17.115-41 0-72.5-24.231-31.5-24.23-42.5-61.461-2.23-5.154-6.269-7.962-4.038-2.807-10.192-2.807-4.616 0-8.039 3.038-3.423 3.039-2.192 6.423 11.769 46.616 46.961 77.846Q394-313.154 441.846-310v78H262.154Zm131.692-282.385V-453q0 23.615 18.038 40.154 18.039 16.538 41.654 16.538 12.077 0 23.27-3.153Q488-402.615 496-412.231L393.846-514.385Z"/></svg>