<svg xmlns="http://www.w3.org/2000/svg" height="24" viewBox="0 -960 960 960" width="24"><path d="M402.461-665.154q4.308-1.538 9.154-2.038 4.846-.5 9.923-.5 27.616 0 47.654 20.038 20.039 20.039 20.039 47.654v21.615l-86.77-86.769Zm392.77 308.077-93.692-93.692v84.692l-40.001-40v-289.308q0-10.769-6.923-17.692T636.923-720H347.615l-40-40h329.308q27.616 0 46.116 18.5t18.5 46.115v186.154l93.692-93.692q7.692-7.693 17.769-3.847 10.077 3.847 10.077 14.77v224q0 10.923-10.077 14.77-10.077 3.846-17.769-3.847ZM636.923-200H206.154q-27.616 0-46.116-18.5t-18.5-46.115v-430.77q0-24.538 15.423-41.884 15.423-17.347 38.423-21.193L233.846-720h-27.692q-10.77 0-17.693 6.923-6.923 6.923-6.923 17.692v430.77q0 10.769 6.923 17.692T206.154-240h199.692v-62q-62.077-6.154-106.385-48.115-44.307-41.962-53.846-102.808-1.231-6.385 3.923-10.577t11.539-4.192q7.154 0 12.692 4.077 5.539 4.076 6.769 11.23 8.77 50.231 48.27 83.193 39.5 32.961 92.73 32.961 33 0 63.27-14.115 30.269-14.116 50.269-40.116l24.077 24.077q-23.231 28.231-54.846 44.577-31.616 16.347-67.077 19.808v62h199.692q10.769 0 17.692-6.923t6.923-17.692v-27.693L700-253.846q-3.846 23-21.192 38.423Q661.462-200 636.923-200Zm124.77 64.462L467-430.231q-9 9.616-20.692 13.77-11.693 4.153-24.77 4.153-27.615 0-47.654-20.038-20.038-20.039-20.038-47.654v-63.385L110.923-786.308q-5.616-5.615-6-13.769-.385-8.154 6-14.539Q117.307-821 125.077-821q7.769 0 14.154 6.384L790-163.846q5.616 5.616 6 13.769.385 8.154-6 14.539-6.384 6.385-14.154 6.385-7.769 0-14.153-6.385ZM424-473.231Zm80.692-89.923ZM405.846-240h31.385-31.385Z"/></svg>