<svg xmlns="http://www.w3.org/2000/svg" height="20" viewBox="0 -960 960 960" width="20"><path d="M119.129-394.999 456-887.175v492.176H119.129Zm375.827 0q23.957-73.697 31.261-132.566 7.304-58.87 7.304-120.435 0-72.087-10.217-142.327-10.217-70.239-31.174-147.674 76.479 24.956 139.414 82.065 62.935 57.109 107.826 131.566 44.892 74.457 69.522 160.392 24.631 85.935 24.631 168.979H494.956ZM360-192.565q-34.435 0-66.435-19.087T240-260.043q-16.957 19.826-31.913 31.391-14.957 11.565-33.653 22.565-33.304-26.13-56.674-66.674Q94.39-313.304 85.826-360h788.348q-8.565 46.696-31.934 87.239-23.37 40.544-56.674 66.674-18.696-11-34.153-22.565-15.456-11.565-31.413-31.391-22.565 30.304-54.565 48.891-32 18.587-65.435 18.587-34.435 0-66.435-18.587T480-260.043q-22.565 29.304-54.565 48.391-32 19.087-65.435 19.087ZM87.521-30.477V-120H120q32.304 0 63.304-13.348T240-170.261q26.696 23.565 57.196 36.913Q327.696-120 360-120q31.304 0 62.587-13.348Q453.87-146.696 480-170.261q25.696 23.565 56.696 36.913Q567.696-120 600-120q31.304 0 62.587-13.065Q693.87-146.13 720-169.696q26.13 23.566 56.913 36.631Q807.696-120 840-120h32.479v89.523H840q-31.435 0-61.717-7Q748-44.477 720-58.912q-28 14.435-58.283 21.435-30.282 7-61.717 7t-61.717-7.5Q508-45.477 480-58.912q-28 13.435-58.283 20.935-30.282 7.5-61.717 7.5t-61.717-7Q268-44.477 240-58.912q-28 14.435-58.283 21.435-30.282 7-61.717 7H87.521Z"/></svg>