<svg xmlns="http://www.w3.org/2000/svg" height="20" viewBox="0 -960 960 960" width="20"><path d="M480-20.868 328.087-172.782H124.782v-710.436h710.436v710.436H631.913L480-20.868Zm2.826-290.567q22.261 0 36.74-15.478 14.478-15.478 14.478-36.739 0-21.261-14.978-35.74-14.979-14.478-36.24-14.478-21.261 0-36.239 14.478-14.978 14.479-14.978 35.74 0 21.261 14.978 36.739 14.978 15.478 36.239 15.478Zm-38.217-137h77.304q0-17 1.283-27.5t5.283-19.5q4-9 10.565-17.565 6.565-8.565 17-18.435 14.347-14.347 32.847-35.413 18.5-21.065 18.5-61.891 0-56.391-37.13-86.109-37.131-29.717-86.87-29.717-50.826 0-84.239 31.239-33.413 31.239-46.543 67.805l71.435 28.956q6.565-14.608 18.456-34.304 11.891-19.696 39.761-19.696 27.478 0 37.804 15.305 10.326 15.304 10.326 30.782 0 21.304-16.718 36.891-16.717 15.587-28.369 26.804-14.695 14.261-22.261 24.044-7.565 9.782-12.565 20.782-4 11-4.935 26.631-.934 15.63-.934 40.891Z"/></svg>