<svg xmlns="http://www.w3.org/2000/svg" height="24" viewBox="0 -960 960 960" width="24"><path d="M480-68.464 368.462-180H140.001v-679.998h679.998v679.998H591.538L480-68.464Zm-2.077-227.306q17.154 0 28.961-11.808 11.808-11.807 11.808-28.961 0-17.154-11.808-28.961-11.807-11.807-28.961-11.807-17.153 0-28.961 11.807-11.807 11.807-11.807 28.961 0 17.154 11.807 28.961 11.808 11.808 28.961 11.808ZM449.616-439h56.306q.385-15.077 2.077-25.923 1.693-10.846 6.693-21.077 5-10.231 12.692-19.731 7.692-9.5 20.538-22.346 31.923-31.923 45.654-54.269 13.731-22.346 13.731-50.807 0-49.923-34.077-80.5-34.077-30.577-87.769-30.577-48.845 0-83.499 24.885-34.653 24.884-49.269 64.807l51.384 20.615q8.538-25.462 28.384-41.577t49.77-16.115q32.385 0 50.577 17.577T551-631.307q0 18.538-11 36.385-11 17.846-33.922 38.538-15.847 14-26.347 27.115-10.5 13.115-17.5 26.962-7 13.846-9.807 28.807-2.808 14.961-2.808 34.5Z"/></svg>