<svg xmlns="http://www.w3.org/2000/svg" height="20" viewBox="0 -960 960 960" width="20"><path d="M192-215.893V-481l-34.815 27.22Q145-445 130-447q-15-2-24-14t-7.118-26.857Q100.765-502.714 113-512l79-60v-88q0-15.3 10.289-25.65 10.29-10.35 25.5-10.35Q243-696 253.5-685.65 264-675.3 264-660v33l172-132q10-8 21.5-11t22.5-3q11 0 22.5 3t21.5 11l323.324 247.018Q859-503 861-488t-7 27.444Q845-449 830.067-447q-14.934 2-27.067-7l-35-27v265.107q0 29.656-21.15 50.774Q725.7-144 696-144H534q-8 0-13-5t-5-13v-162q0-15.3-10.289-25.65-10.29-10.35-25.5-10.35Q465-360 454.5-349.65 444-339.3 444-324v162q0 8-5 13t-13 5H264q-29.7 0-50.85-21.119Q192-186.237 192-215.893ZM236-742q-21.083 0-32.542-16.5Q192-775 202-792q14-27 39.938-43 25.937-16 57.062-16 11 0 19.5-5t13.5-13.947q5-8.053 13.5-13.553t18.552-5.5q21.017 0 31.982 17.5Q407-854 396-837q-15 26-41 42t-56 16q-11 0-19.5 5T266-759.65Q261-752 253-747t-17 5Z"/></svg>