<svg xmlns="http://www.w3.org/2000/svg" height="20" viewBox="0 -960 960 960" width="20"><path d="M426-206v-62H316q-4.25 0-7.125-2.825-2.875-2.824-2.875-7 0-4.175 2.875-7.175t7.125-3h62v-384h-61.789q-4.161 0-7.186-2.825-3.025-2.824-3.025-7 0-4.175 2.875-7.175t7.125-3h110v-61.789q0-4.161 2.825-7.186 2.824-3.025 7-3.025 4.175 0 7.058 2.875 2.884 2.875 2.884 7.125v62H528v-62q0-4.25 2.825-7.125 2.824-2.875 7-2.875 4.175 0 7.175 2.875t3 7.125v67q46 5 71 32.472 25 27.471 25 73.528 0 33-11.5 54.5T602-491q42 7 66 39.5t24 72.1q0 50.4-27 79.4-27 29-78 32h-39v62q0 4.25-2.825 7.125-2.824 2.875-7 2.875-4.175 0-7.058-2.875-2.884-2.875-2.884-7.125v-62H446v62q0 4.25-2.825 7.125-2.824 2.875-7 2.875-4.175 0-7.175-2.875T426-206Zm-28-284h135q41 0 66-25.376t25-65.5Q624-621 598.588-646.5 573.175-672 533-672H398v182Zm0 202h183q41 0 66-25.376t25-65.5Q672-419 646.588-444.5 621.175-470 581-470H398v182Z"/></svg>