<svg xmlns="http://www.w3.org/2000/svg" height="20" viewBox="0 -960 960 960" width="20"><path d="M364.782-173.782v-23h-71q-20.387 0-34.694-14.246-14.306-14.246-14.306-34.544 0-20.298 14.306-34.754 14.307-14.457 34.694-14.457h23v-370.434h-22.789q-20.298 0-34.755-14.246-14.456-14.246-14.456-34.544 0-20.298 14.306-34.755 14.307-14.456 34.694-14.456h71v-22.789q0-20.298 14.246-34.755 14.246-14.456 34.544-14.456 20.298 0 34.638 14.306 14.34 14.307 14.34 34.694v23h58.667v-23q0-20.387 14.246-34.694 14.246-14.306 34.544-14.306 20.298 0 34.755 14.306 14.456 14.307 14.456 34.694v36.391q47.827 22.392 73.327 62.537 25.5 40.146 25.5 90.464 0 27.869-7.37 51.152-7.369 23.283-22.674 43.848 34.87 19.261 56.457 57.956 21.587 38.696 21.587 80.296 0 66.357-40.5 112.531-40.5 46.174-106.327 53.131v24.13q0 20.387-14.246 34.694-14.246 14.306-34.544 14.306-20.298 0-34.638-14.306-14.34-14.307-14.34-34.694v-23h-58.667v23q0 20.387-14.246 34.694-14.246 14.306-34.544 14.306-20.298 0-34.755-14.306-14.456-14.307-14.456-34.694Zm50.001-355.219h137.435q29.043 0 48.434-19.767t19.391-47.934q0-28.168-19.803-48.341-19.804-20.174-48.022-20.174H414.783v136.216Zm0 234.218h185.435q29.043 0 48.434-20.05t19.391-48.217q0-28.167-19.803-48.058-19.804-19.891-48.022-19.891H414.783v136.216Z"/></svg>