<svg xmlns="http://www.w3.org/2000/svg" height="24" viewBox="0 -960 960 960" width="24"><path d="M392.307-180v-60h-99.999q-8.5 0-14.25-5.758-5.751-5.757-5.751-14.269 0-8.511 5.751-14.242 5.75-5.731 14.25-5.731h59.999v-400h-59.999q-8.5 0-14.25-5.758-5.751-5.758-5.751-14.269 0-8.512 5.751-14.242 5.75-5.731 14.25-5.731h99.999v-60q0-8.5 5.758-14.25t14.27-5.75q8.511 0 14.242 5.75 5.731 5.75 5.731 14.25v60H520v-60q0-8.5 5.758-14.25t14.269-5.75q8.512 0 14.242 5.75Q560-788.5 560-780v61.154q52.769 3.23 86.385 38.807Q680-644.462 680-590q0 32.077-12.307 57.423-12.308 25.346-31.847 41.731 39.616 13.308 61.885 45.846Q720-412.461 720-370q0 56.769-36.615 93.385Q646.769-240 590-240h-30v60q0 8.5-5.758 14.25-5.757 5.75-14.269 5.75-8.511 0-14.242-5.75Q520-171.5 520-180v-60h-87.692v60q0 8.5-5.758 14.25T412.281-160q-8.512 0-14.243-5.75T392.307-180Zm.001-320H550q39.154 0 64.577-25.423Q640-550.846 640-590q0-39.154-25.423-64.577Q589.154-680 550-680H392.308v180Zm0 220H590q39.154 0 64.577-25.423Q680-330.846 680-370q0-39.154-25.423-64.577Q629.154-460 590-460H392.308v180Z"/></svg>