<svg xmlns="http://www.w3.org/2000/svg" height="20" viewBox="0 -960 960 960" width="20"><path d="M106.001-279.386v-52.768q31.538-1.923 48.961-24.192T224-378.615q52.769 0 71.923 24 19.154 24 56.462 24 36.538 0 55.692-24 19.154-24 71.923-24 53.538 0 71.923 24 18.384 24 55.692 24 36.539 0 56.578-24 20.038-24 72.807-24 51.615 0 68.538 22.269 16.923 22.269 48.461 24.192v52.768q-46.614-2.308-64.499-24.769-17.885-22.461-52.5-22.461-36.923 0-56.269 24-19.347 24-72.116 24-53.538 0-72.422-24-18.885-24-56.193-24-36.539 0-55.693 24-19.153 24-71.922 24t-72.5-24q-19.731-24-55.885-24-34.231 0-52.808 22.461-18.577 22.461-65.191 24.769Zm0-151.384v-52.768q31.538-1.923 48.961-24.192T224-529.999q53.538 0 72.307 24 18.77 24 56.078 24 36.538 0 55.692-24 19.154-24 71.923-24 53.538 0 72.115 24 18.577 24 56.27 24 36.538 0 55.692-24 19.154-24 71.923-24 52.384 0 69.038 22.269 16.654 22.269 48.961 24.192v52.768q-45.845-2.308-64.614-24.769-18.77-22.462-53.385-22.462-36.923 0-56.269 24-19.347 24-72.116 24-53.538 0-71.922-24-18.385-24-55.693-24-36.539 0-56.077 24-19.539 24-72.308 24-52.769 0-71.73-24-18.962-24-55.885-24-35 0-52.808 22.462-17.807 22.461-65.191 24.769Zm0-151.384v-52.768q31.538-1.923 48.961-24.192 17.423-22.27 69.038-22.27 53.538 0 72.307 24 18.77 24 56.078 24 36.538 0 55.692-24 19.154-24 71.923-24 53.538 0 72.115 24 18.577 24 56.27 24 36.538 0 55.692-24 19.154-24 71.923-24 52.384 0 69.038 22.27 16.654 22.269 48.961 24.192v52.768q-45.845-2.308-64.614-24.77-18.77-22.461-53.385-22.461-36.923 0-56.269 24-19.347 24-72.116 24-53.538 0-71.922-24-18.385-24-55.693-24-36.539 0-56.077 24-19.539 24-72.308 24-52.769 0-71.73-24-18.962-24-55.885-24-35 0-53.192 22.461-18.193 22.462-64.807 24.77Z"/></svg>