<svg xmlns="http://www.w3.org/2000/svg" height="20" viewBox="0 -960 960 960" width="20"><path d="M116-294.769v-33.539q28.077-3.846 44.923-24.384 16.846-20.539 63.077-20.539 48.539 0 68.846 24 20.308 24 59.923 24 38.077 0 58.385-24 20.307-24 68.846-24 50.077 0 68.846 24 18.769 24 58.385 24 38.077 0 59.654-24 21.576-24 70.115-24 46.231 0 62.577 20.539 16.346 20.538 44.423 24.384v33.539q-36.231-4.615-54.5-25.538-18.269-20.924-52.5-20.924-38.846 0-59.538 24-20.693 24-69.231 24-50.077 0-69.346-24-19.27-24-58.885-24-38.077 0-58.385 24-20.307 24-68.846 24-48.538 0-70-24-21.461-24-58.769-24-33.462 0-52.615 20.924-19.154 20.923-55.385 25.538Zm0-146.769v-33.539q28.077-3.846 44.923-24.385Q177.769-520 224-520q50.077 0 69.615 24 19.539 24 59.154 24 38.077 0 58.385-24 20.307-24 68.846-24 50.077 0 69.231 24 19.154 24 59.538 24 38.077 0 58.385-24 20.307-24 68.846-24 47.769 0 63.077 20.538 15.308 20.539 44.923 24.385v33.539q-34.692-4.616-54.231-25.539Q770.231-488 736-488q-38.846 0-59.538 24-20.693 24-69.231 24-50.077 0-68.846-24-18.77-24-58.385-24-38.077 0-59.154 24-21.077 24-69.615 24-48.539 0-68.462-24-19.923-24-58.769-24-35 0-52.615 20.923-17.616 20.923-55.385 25.539Zm0-146.77v-33.538q28.077-3.846 44.923-24.385 16.846-20.538 63.077-20.538 50.077 0 69.615 24 19.539 24 59.154 24 38.077 0 58.385-24 20.307-24 68.846-24 50.077 0 69.231 24 19.154 24 59.538 24 38.077 0 58.385-24 20.307-24 68.846-24 47.769 0 63.077 20.538 15.308 20.539 44.923 24.385v33.538q-34.692-4.615-54.231-25.538-19.538-20.923-53.769-20.923-38.846 0-59.538 24-20.693 24-69.231 24-50.077 0-68.846-24-18.77-24-58.385-24-38.077 0-59.154 24-21.077 24-69.615 24-48.539 0-68.462-24-19.923-24-58.769-24-35 0-53.385 20.923-18.384 20.923-54.615 25.538Z"/></svg>