<svg xmlns="http://www.w3.org/2000/svg" height="20" viewBox="0 -960 960 960" width="20"><path d="M284.461-776h433.462q18.517 0 30.105 12.996 11.588 12.996 11.588 29.465 0 7.077-2.231 14.654t-7.692 13.654L565.769-494.692 388.462-672h289.212L741-744H316.462l-32.001-32ZM464-196v-219.461L216.307-697.615 155-759.154q-5.616-5.615-6-11.82-.385-6.206 5.833-11.488 5.449-5.615 11.269-5.615 5.821 0 11.532 5.711l603.963 603.963q4.942 4.942 5.326 11.047.385 6.104-5.231 11.356-5.282 5.616-11.102 5.616-5.821 0-11.636-5.813L496-418.923V-196h168q6.8 0 11.4 4.547 4.6 4.547 4.6 11.269 0 6.723-4.6 11.453Q670.8-164 664-164H296q-6.8 0-11.4-4.547-4.6-4.547-4.6-11.269 0-6.723 4.6-11.453Q289.2-196 296-196h168Z"/></svg>