<svg xmlns="http://www.w3.org/2000/svg" height="20" viewBox="0 -960 960 960" width="20"><path d="M225.231-184q-23.354 0-39.985-16.631-16.631-16.63-16.631-39.984v-478.77q0-23.354 16.631-39.984Q201.877-776 225.231-776h271.705q6.179 0 10.929 4.547t4.75 11.269q0 6.722-4.6 11.453-4.6 4.731-11.4 4.731H225.231q-10.769 0-17.692 6.923-6.924 6.923-6.924 17.692v478.77q0 10.769 6.924 17.692Q214.462-216 225.231-216H704q10.769 0 17.692-6.923t6.923-17.692V-512.32q0-6.18 4.548-10.93 4.547-4.75 11.269-4.75t11.453 4.6q4.731 4.6 4.731 11.4v271.385q0 23.354-16.631 39.984Q727.354-184 704-184H225.231Zm462.387-518.769h-56.117q-6.849 0-11.483-4.608-4.633-4.608-4.633-11.419 0-6.812 4.633-11.392 4.634-4.581 11.483-4.581h56.117v-56q0-6.8 4.641-11.4 4.641-4.6 11.363-4.6 6.722 0 11.243 4.6 4.52 4.6 4.52 11.4v56h55.789q6.711 0 11.461 4.547t4.75 11.269q0 6.722-4.6 11.337-4.6 4.614-11.4 4.614h-56v56.116q0 6.85-4.608 11.483-4.608 4.634-11.419 4.634-6.512 0-11.126-4.6t-4.614-11.4v-56ZM427.077-334.462l-41.077-47q-4.481-5.692-10.538-5.692-6.058 0-10.539 6.461l-37.972 49.873q-5.644 7.435-1.74 15.128Q329.115-308 336.923-308h261.733q8.114 0 11.767-7.692 3.654-7.693-1.038-15.154l-78.769-105.539q-4.481-6.461-10.923-6.461-6.443 0-10.98 6.66l-81.636 101.724ZM464.615-480Z"/></svg>