<svg xmlns="http://www.w3.org/2000/svg" height="24" viewBox="0 -960 960 960" width="24"><path d="M212-172q-24.75 0-42.375-17.625T152-232v-496q0-24.75 17.625-42.375T212-788h314q5.95 0 9.975 4.035 4.025 4.035 4.025 10T535.975-764q-4.025 4-9.975 4H212q-14 0-23 9t-9 23v496q0 14 9 23t23 9h496q14 0 23-9t9-23v-314q0-5.95 4.035-9.975 4.035-4.025 10-4.025t9.965 4.025q4 4.025 4 9.975v314q0 24.75-17.625 42.375T708-172H212Zm488-548h-66q-5.95 0-9.975-4.035-4.025-4.035-4.025-10t4.025-9.965q4.025-4 9.975-4h66v-66q0-5.95 4.035-9.975 4.035-4.025 10-4.025t9.965 4.025q4 4.025 4 9.975v66h66q5.95 0 9.975 4.035 4.025 4.035 4.025 10T803.975-724q-4.025 4-9.975 4h-66v66q0 5.95-4.035 9.975-4.035 4.025-10 4.025T704-644.025q-4-4.025-4-9.975v-66ZM428-318l-52-60q-5-5-11.5-5t-11.5 6l-36 47q-6 8-1.75 16t12.75 8h272q8.5 0 12.75-8t-.75-16l-72-97q-5-6-12-6t-12.073 6.259L428-318Zm32-162Z"/></svg>