<svg xmlns="http://www.w3.org/2000/svg" height="20" viewBox="0 -960 960 960" width="20"><path d="M219.391-124.782q-41.004 0-69.503-28.498-28.498-28.498-28.498-69.503v-514.434q0-41.005 28.498-69.503 28.499-28.498 69.503-28.498h239.015q19.766 0 34.223 14.246t14.457 34.544q0 20.298-14.307 34.754-14.307 14.457-34.694 14.457H219.391v514.434h514.435v-239.014q0-19.767 14.246-34.224 14.246-14.456 34.544-14.456 20.297 0 34.754 14.306 14.457 14.307 14.457 34.694v238.694q0 41.005-28.498 69.503-28.498 28.498-69.503 28.498H219.391ZM677.32-680.479h-40.083q-17.035 0-28.832-11.65-11.796-11.65-11.796-28.872 0-17.221 11.683-28.872 11.684-11.65 28.955-11.65h40.073v-39.966q0-16.986 11.684-28.749 11.683-11.763 28.816-11.763 17.132 0 28.722 11.65 11.589 11.65 11.589 28.872v39.956h39.756q16.897 0 28.81 11.59 11.913 11.589 11.913 28.722 0 17.132-11.65 28.816-11.65 11.683-28.872 11.683h-39.957v40.083q0 17.036-11.65 28.832Q734.831-600 717.609-600q-16.922 0-28.605-11.65-11.684-11.65-11.684-28.872v-39.957ZM440.609-336l-52.913-69.652q-7.511-10.826-19.087-10.826-11.577 0-19.088 10.826l-58.817 78.503q-9.443 12.366-2.78 25.758Q294.587-288 309.609-288h334.193q15.328 0 21.741-13.391 6.413-13.392-2.848-25.783l-94.999-126.478q-7.511-10.826-19.087-10.826-11.577 0-19.088 10.826L440.609-336Zm36-144Z"/></svg>