<svg xmlns="http://www.w3.org/2000/svg" height="20" viewBox="0 -960 960 960" width="20"><path d="M222-110q-49.7 0-83.85-34.15Q104-178.3 104-228v-504q0-49.7 34.15-83.85Q172.3-850 222-850h210.32q23.68 0 41.18 17.289 17.5 17.29 17.5 41.5Q491-767 473.65-749.5T432-732H222v504h504v-210.32q0-23.68 17.289-41.18 17.29-17.5 41.5-17.5Q809-497 826.5-479.65T844-438v210q0 49.7-34.15 83.85Q775.7-110 726-110H222Zm459.233-577h-43.134q-18.332 0-31.216-12.65Q594-712.3 594-731q0-18.7 12.683-31.35Q619.367-775 638.117-775h43.116v-43.018q0-18.282 12.684-31.132Q706.6-862 725.211-862q18.61 0 31.2 12.65Q769-836.7 769-818v43h42.807Q830-775 843-762.411q13 12.59 13 31.2 0 18.611-12.65 31.294-12.65 12.684-31.35 12.684h-43v43.134q0 18.332-12.65 31.216Q743.7-600 725-600q-18.4 0-31.083-12.65-12.684-12.65-12.684-31.35v-43ZM438-336l-49-64q-9.25-13-23-13t-23 13l-48.818 65.026Q283-320 290.75-304T317-288h314.194Q650-288 657.5-304t-3.5-31l-85-113q-9.25-13-23-13t-23 13l-85 112Zm36-144Z"/></svg>