<svg xmlns="http://www.w3.org/2000/svg" height="20" viewBox="0 -960 960 960" width="20"><path d="M542.609-62.085q-110.616 0-187.504-78.237-76.889-78.238-76.889-189.417v-18.13q-95.739-14.391-161.588-85.814Q50.78-505.105 50.78-603.827v-240.435H191.13v-53.653h98.001v205.306h-98.001v-53.652h-42.347v142.894q0 67.932 48.326 114.279 48.326 46.348 116.718 46.348 68.391 0 116.717-46.348 48.327-46.347 48.327-114.279v-142.894h-42.348v53.652h-98.001v-205.306h98.001v53.653h140.349v240.435q0 93.394-56.87 163.067t-143.783 89.761v22.26q0 69.612 48.489 119.132 48.489 49.52 117.902 50.52 69.696-1 117.761-50.52t48.065-119.132v-54.28q-40.391-14.024-65.587-49.015-25.196-34.99-25.196-81.01 0-58.243 40.771-99.013 40.77-40.771 99.013-40.771t99.013 40.771q40.771 40.77 40.771 99.013 0 46.02-25.196 81.01-25.196 34.991-65.587 49.382v52.913q0 110.764-76.914 188.709-76.913 77.945-186.914 78.945Z"/></svg>