<svg xmlns="http://www.w3.org/2000/svg" height="24" viewBox="0 -960 960 960" width="24"><path d="M544.065-65.652q-113.5 0-192.967-79.914-79.468-79.915-79.468-193.477v-17.979q-90.543-15.434-150.652-85.286-60.109-69.852-60.109-164.388v-245.261h128.609v-42.391h91v175.783h-91v-42.392h-37.609v154.261q0 67.435 48.196 114.794 48.196 47.358 115.631 47.358 67.434 0 115.63-47.358 48.196-47.359 48.196-114.794v-154.261h-37.609v42.392h-91v-175.783h91v42.391h128.609v245.261q0 93.826-59.272 163.435-59.272 69.609-148.62 85.761v18.457q0 75.717 52.919 129.054 52.918 53.337 128.516 53.337 75.718 0 128.457-53.337 52.739-53.337 52.739-129.054v-64.848q-36.435-13.435-59.652-46.123-23.218-32.688-23.218-73.812 0-53.488 37.442-90.929 37.441-37.441 90.928-37.441 53.488 0 90.929 37.441t37.441 90.929q0 41.124-23.218 73.812-23.217 32.688-59.652 46.123v64.848q0 113.562-79.348 193.477-79.348 79.914-192.848 79.914Zm226.696-418.892q16.522 0 27.902-11.38 11.381-11.38 11.381-27.902t-11.381-27.902q-11.38-11.381-27.902-11.381t-27.902 11.381q-11.38 11.38-11.38 27.902t11.38 27.902q11.38 11.38 27.902 11.38Zm0-39.282Z"/></svg>