<svg xmlns="http://www.w3.org/2000/svg" height="20" viewBox="0 -960 960 960" width="20"><path d="M532.281-116.001q-89.488 0-152.461-63.023Q316.848-242.047 316.848-332v-28.846q-80-7.538-136-66.23-56-58.692-56-140.923v-217.999h120v-48h51.999v147.999h-51.999v-48h-68.001v166.461q0 64.539 45.5 110.039t110.5 45.5q65 0 110.5-45.5t45.5-110.039v-166.461h-68.002v48h-51.998v-147.999h51.998v48h120v217.999q0 78.581-48.999 136.098-49 57.517-123 69.055V-331q0 68.333 47.671 116.167Q464.188-167 532.29-167q67.941 0 115.441-47.833 47.5-47.834 47.5-116.167v-57.059q-33.538-7.941-54.923-34.902-21.384-26.961-21.384-63.345 0-42.628 29.852-72.467 29.853-29.84 72.499-29.84 42.647 0 72.454 29.84 29.807 29.839 29.807 72.467 0 36.384-21.384 63.345-21.385 26.961-54.923 35.269V-332q0 89.953-62.73 152.976-62.73 63.023-152.218 63.023ZM721.23-435.999q21.169 0 35.739-14.569 14.569-14.569 14.569-35.738 0-21.17-14.569-35.739-14.57-14.569-35.739-14.569-21.169 0-35.739 14.569-14.569 14.569-14.569 35.739 0 21.169 14.569 35.738 14.57 14.569 35.739 14.569Zm0-50.307Z"/></svg>