<svg xmlns="http://www.w3.org/2000/svg" height="20" viewBox="0 -960 960 960" width="20"><path d="M531.13-148q-76.485 0-130.307-53.485Q347-254.969 347-332v-27q-72-2-124-53t-52-124v-202h120v-48h20v116h-20v-48H191v182.46q0 64.54 45.5 110.04T347-380q65 0 110.5-45.5T503-535.54V-718H403v48h-20v-116h20v48h120v202q0 69.35-45 119.175T367-361v30q0 68.333 47.85 116.167Q462.701-167 531.059-167 599-167 646.5-214.833 694-262.667 694-331v-53.367Q666-388 648-408.5T630-458q0-30.833 21.618-52.417Q673.235-532 704.118-532 735-532 756.5-510.417 778-488.833 778-458q0 29-18 49.5T714-384v52q0 77.031-53.192 130.515Q607.615-148 531.13-148ZM704-404q22.4 0 38.2-15.8Q758-435.6 758-458q0-22.4-15.8-38.2Q726.4-512 704-512q-22.4 0-38.2 15.8Q650-480.4 650-458q0 22.4 15.8 38.2Q681.6-404 704-404Zm0-54Z"/></svg>