<svg xmlns="http://www.w3.org/2000/svg" height="24" viewBox="0 -960 960 960" width="24"><path d="M458.152-603.587h313.065q-28.435-67.087-81.902-114.435t-124.75-67.348L458.152-603.587Zm-96.304 79.522L518.5-793.848q-9.565-1.522-19.25-2.402-9.685-.88-19.25-.88-65.761 0-122.402 25-56.641 25-100.163 66.76l104.413 181.305ZM172.87-400h210.826L227.283-670.022q-30.566 40.522-47.489 87.989Q162.87-534.565 162.87-480q0 20.043 2.739 40.859 2.739 20.815 7.261 39.141Zm222.565 225.37 104.413-181.783H188.783q27 66.37 81.184 114.076 54.185 47.707 125.468 67.707ZM480-162.87q66 0 122.283-24.88 56.282-24.88 100.282-66.88L597.913-436.652 441.5-166.152q9.565 1.522 18.75 2.402 9.185.88 19.75.88Zm252.717-127.108q29.848-38.848 47.131-86.913Q797.13-424.957 797.13-480q0-21-2.5-40.739-2.5-19.739-7.5-39.261H576.304l156.413 270.022ZM480-480Zm0 408.13q-83.674 0-158.109-32.217T191.88-191.88q-55.576-55.576-87.793-130.011Q71.869-396.326 71.869-480q0-84.435 32.218-158.489 32.217-74.055 87.793-129.631 55.576-55.576 130.011-87.793Q396.326-888.131 480-888.131q84.435 0 158.489 32.218 74.055 32.217 129.631 87.793 55.576 55.576 87.793 129.631Q888.131-564.435 888.131-480q0 83.674-32.218 158.109-32.217 74.435-87.793 130.011-55.576 55.576-129.631 87.793Q564.435-71.869 480-71.869Z"/></svg>