<svg xmlns="http://www.w3.org/2000/svg" height="24" viewBox="0 -960 960 960" width="24"><path d="m449.196-630.022 141.434-242.63q92.435 24.956 163.414 89.076 70.978 64.119 104.652 153.554h-409.5ZM333.413-528.109l-139.152-242.63q55.195-53.957 128.25-85.674Q395.565-888.131 480-888.131q13.239 0 29.761 1.5t30.761 3.5L333.413-528.109ZM85.108-378.087q-6.239-24.478-9.739-49.837-3.5-25.359-3.5-52.076 0-72.196 23.36-136.152 23.358-63.957 65.358-116.435l205.109 354.5H85.108ZM370.37-87.347q-92.435-24.957-163.914-89.077-71.478-64.119-105.152-153.554h408.5L370.37-87.348ZM480-71.87q-15.478 0-30.5-1.761t-29.022-3.761l205.87-354.5 138.913 242.869q-55.196 53.957-128.011 85.555Q564.435-71.869 480-71.869Zm319.413-155.544-205.109-354.5h280.587q6 24.478 9.62 49.837 3.62 25.359 3.62 52.076 0 71.196-24.381 135.913-24.38 64.717-64.337 116.674Z"/></svg>