<svg xmlns="http://www.w3.org/2000/svg" height="24" viewBox="0 -960 960 960" width="24"><path d="M688.539-385.461 330.307-742.693q37.308-8.923 74.616-13.115T480-760q108.077 0 208.731 35.038 100.654 35.039 185.423 102.347 11.462 8.692 12.731 23.115 1.269 14.423-9.192 24.885L688.539-385.461ZM797.154-106.23 603.231-300.154 502.615-199.538q-9.692 9.692-22.615 9.692-12.923 0-22.615-9.692L83.077-573.846q-10.462-10.462-9.693-25.385.77-14.923 12.231-23.615 32.923-25.308 61.846-43.385 28.923-18.077 57.692-31.769L105-798.154q-5.847-5.846-6.116-13.769-.269-7.923 6.346-14.539 6.616-6.615 14.27-6.615t14.269 6.615l691.923 691.924q5.847 5.846 6.231 13.769.385 7.923-6.231 14.539-6.615 6.615-14.269 6.615t-14.269-6.615Z"/></svg>