<svg xmlns="http://www.w3.org/2000/svg" height="20" viewBox="0 -960 960 960" width="20"><path d="M409.13-409.696V-480h69.74v70.304h-69.74Zm-70.304 70.305v-70.305h70.304v70.305h-70.304Zm140.044 0v-70.305h70.304v70.305H478.87Zm70.304-70.305V-480h70.304v70.304h-70.304Zm-280.652 0V-480h70.304v70.304h-70.304Zm-143.74 284.914v-710.436h710.436v710.436H124.782Zm143.74-98.001h70.304v-46.304h-70.304v46.304Zm140.608 0h69.74v-46.304h-69.74v46.304Zm280.087 0h48v-46.304h-48v46.304Zm-466.434-46.304h46.022v-70.304h70.021v70.304h70.022v-70.304h70.022v70.304h70.304v-70.304h70.304v70.304h69.739v-70.304h-69.739v-70.305h69.739V-480h48v-257.217H222.783v327.521h45.739v70.305h-45.739v70.304Zm0 46.869v-514.999 514.999Zm466.434-187.478v70.305h48v-70.305h-48ZM549.174-269.087v46.304h70.304v-46.304h-70.304Z"/></svg>