<svg xmlns="http://www.w3.org/2000/svg" height="24" viewBox="0 -960 960 960" width="24"><path d="m438-422.769-71.846-71.616q-5.615-5.615-13.654-6-8.039-.384-14.654 6.231-6.385 6.385-6.385 14.154t6.385 14.154l77.539 77.538q9.692 9.693 22.615 9.693 12.923 0 22.615-9.693l161.539-161.538q5.846-5.846 6.115-13.769.27-7.924-6.115-14.539-6.615-6.615-14.269-6.731-7.654-.115-14.27 6.5L438-422.769Zm-91.231 287.385-52.615-88-99.231-20.923q-11.923-2.231-19-12.808t-5.846-22.5l9.461-102.231-67.308-76.769q-8.461-8.693-8.461-21.385 0-12.692 8.461-21.385l67.308-76.769-9.461-102.231q-1.231-11.923 5.846-22.5t19-12.808l99.231-20.923 52.615-88q6.462-10.692 17.385-14.807 10.923-4.116 22.615 1.115L480-798.923l93.231-39.385q11.692-5.231 22.615-1.115 10.923 4.115 17.385 14.807l52.615 88 99.231 20.923q11.923 2.231 19 12.808t5.846 22.5l-9.461 102.231 67.308 76.769q8.461 8.693 8.461 21.385 0 12.692-8.461 21.385l-67.308 76.769 9.461 102.231q1.231 11.923-5.846 22.5t-19 12.808l-99.231 20.923-52.615 88q-6.462 10.692-17.385 14.807-10.923 4.116-22.615-1.115L480-161.077l-93.231 39.385q-11.692 5.231-22.615 1.115-10.923-4.115-17.385-14.807ZM378-162l102-42.462L582.462-162 640-258l110-24.462L740-396l74-84-74-84.462L750-678l-110-24-58-96-102 42.462L377.538-798 320-702l-110 24 10 113.538L146-480l74 84-10 114 110 24 58 96Zm102-318Z"/></svg>