<svg xmlns="http://www.w3.org/2000/svg" height="24" viewBox="0 -960 960 960" width="24"><path d="M401.521-163.999 66.652-526.565q-13.13-14.261-19.413-31.522-6.282-17.261-6.282-35.087 0-20.391 8.13-39.283 8.13-18.891 24.392-33.717 84.261-69.305 191.043-106.37Q371.304-809.609 480-809.609q108.696 0 215.478 37.065 106.782 37.065 191.043 106.37 16.261 14.826 24.392 33.717 8.13 18.892 8.13 39.283 0 17.826-6.282 35.087-6.283 17.261-19.413 31.522L558.479-163.999q-15.956 17.652-36.609 26.478-20.652 8.827-41.87 8.827-21.218 0-41.87-8.827-20.653-8.826-36.609-26.478Z"/></svg>