<svg xmlns="http://www.w3.org/2000/svg" height="20" viewBox="0 -960 960 960" width="20"><path d="M116.001-116.001v-295.076h96v-235.384h194v-54.77q-16.616-11.615-26.308-23.269-9.692-11.654-9.692-32.056 0-12.751 4.23-23.347 4.231-10.595 13.634-19.96L432-843.999l44.914 44.09q9.624 9.448 13.355 20.025 3.73 10.577 3.73 23.328 0 20.402-9.692 32.056-9.692 11.654-26.308 23.269v54.77h194v235.384h96v295.076H116.001ZM264-411.077h336v-183.386H264v183.386ZM168-168h528v-191.079H168V-168Zm96-243.077h336-336ZM168-168h528-528Zm507.999-243.077H188.001h487.998ZM756-624v-84h-84v-51.999h84v-84h51.999v84h84V-708h-84v84H756Z"/></svg>