<svg xmlns="http://www.w3.org/2000/svg" height="20" viewBox="0 -960 960 960" width="20"><path d="M180-359q-24.3 0-41.65-17.289-17.35-17.29-17.35-41.5Q121-442 138.35-459.5T180-477h231q24.3 0 41.65 17.289 17.35 17.29 17.35 41.5Q470-394 452.65-376.5T411-359H180Zm0-181q-24.3 0-41.65-17.289-17.35-17.29-17.35-41.5Q121-623 138.35-640.5T180-658h360q24.3 0 41.65 17.289 17.35 17.29 17.35 41.5Q599-575 581.65-557.5T540-540H180Zm0-181q-24.3 0-41.65-17.289-17.35-17.29-17.35-41.5Q121-804 138.35-821.5T180-839h360q24.3 0 41.65 17.289 17.35 17.29 17.35 41.5Q599-756 581.65-738.5T540-721H180Zm523.211 502Q679-219 661.5-236.35T644-278v-81h-82q-24.3 0-41.65-17.289-17.35-17.29-17.35-41.5Q503-442 520.35-459.5T562-477h82v-82q0-24.3 17.289-41.65 17.29-17.35 41.5-17.35Q727-618 744.5-600.65T762-559v82h81q24.3 0 41.65 17.289 17.35 17.29 17.35 41.5Q902-394 884.65-376.5T843-359h-81v81q0 24.3-17.289 41.65-17.29 17.35-41.5 17.35Z"/></svg>