<svg xmlns="http://www.w3.org/2000/svg" height="24" viewBox="0 -960 960 960" width="24"><path d="M160-340q-8.5 0-14.25-5.758-5.75-5.757-5.75-14.269t5.75-14.242Q151.5-380 160-380h240q8.5 0 14.25 5.758 5.75 5.757 5.75 14.269t-5.75 14.242Q408.5-340 400-340H160Zm0-160q-8.5 0-14.25-5.758-5.75-5.757-5.75-14.269t5.75-14.242Q151.5-540 160-540h400q8.5 0 14.25 5.758 5.75 5.757 5.75 14.269t-5.75 14.242Q568.5-500 560-500H160Zm0-160q-8.5 0-14.25-5.758-5.75-5.757-5.75-14.269t5.75-14.242Q151.5-700 160-700h400q8.5 0 14.25 5.758 5.75 5.757 5.75 14.269t-5.75 14.242Q568.5-660 560-660H160Zm519.973 480q-8.512 0-14.242-5.75Q660-191.5 660-200v-140H520q-8.5 0-14.25-5.758-5.75-5.757-5.75-14.269t5.75-14.242Q511.5-380 520-380h140v-140q0-8.5 5.758-14.25 5.757-5.75 14.269-5.75t14.242 5.75Q700-528.5 700-520v140h140q8.5 0 14.25 5.758 5.75 5.757 5.75 14.269t-5.75 14.242Q848.5-340 840-340H700v140q0 8.5-5.758 14.25-5.757 5.75-14.269 5.75Z"/></svg>