<svg xmlns="http://www.w3.org/2000/svg" height="20" viewBox="0 -960 960 960" width="20"><path d="M324-196h-4v-75q-25-4-50.5-36T244-380v-340q0-45.025 45.48-68.513Q334.959-812 479.967-812 623-812 669.5-788.025T716-720v340q0 41-25.5 73T640-271v75h-4v-72H324v72Zm-60-304h432v-196H264v196Zm96.235 144Q372-356 380-364.235q8-8.236 8-20Q388-396 379.765-404q-8.236-8-20-8Q348-412 340-403.765q-8 8.236-8 20Q332-372 340.235-364q8.236 8 20 8Zm240 0Q612-356 620-364.235q8-8.236 8-20Q628-396 619.765-404q-8.236-8-20-8Q588-412 580-403.765q-8 8.236-8 20Q572-372 580.235-364q8.236 8 20 8Z"/></svg>