<svg xmlns="http://www.w3.org/2000/svg" height="24" viewBox="0 -960 960 960" width="24"><path d="M321.696-88.911H180.782v-133.871q-18-21.802-29-48.51-11-26.707-11-56.838v-386.783q0-92.609 81.804-135.914 81.805-43.304 257.651-43.304 182.203 0 260.592 41.444 78.389 41.444 78.389 137.774v386.783q0 30.131-11 56.838-11 26.708-29 48.51v133.87H638.304v-79.999H321.696v80ZM246.783-548.13h466.434v-120H246.783v120Zm96.608 236.609q25 0 42.5-17.5t17.5-42.5q0-25-17.5-42.5t-42.5-17.5q-25 0-42.5 17.5t-17.5 42.5q0 25 17.5 42.5t42.5 17.5Zm273.218 0q25 0 42.5-17.5t17.5-42.5q0-25-17.5-42.5t-42.5-17.5q-25 0-42.5 17.5t-17.5 42.5q0 25 17.5 42.5t42.5 17.5Z"/></svg>