<svg xmlns="http://www.w3.org/2000/svg" height="20" viewBox="0 -960 960 960" width="20"><path d="M337.696-112.911H220.782v-120.871q-23-20.802-35.5-51.01-12.5-30.207-12.5-63.338v-366.783q0-81.609 62.804-122.414 62.805-40.804 244.651-40.804 181.203 0 244.092 40.444 62.889 40.444 62.889 122.774v366.783q0 33.131-12.5 63.338-12.5 30.208-35.5 51.01v120.871H622.304v-72H337.696v72ZM270.783-540.13h418.434v-120H270.783v120Zm92.608 212.609q20 0 34-14t14-34q0-20-14-34t-34-14q-20 0-34 14t-14 34q0 20 14 34t34 14Zm233.218 0q20 0 34-14t14-34q0-20-14-34t-34-14q-20 0-34 14t-14 34q0 20 14 34t34 14Z"/></svg>