<svg xmlns="http://www.w3.org/2000/svg" height="20" viewBox="0 -960 960 960" width="20"><path d="M62-62v-644h206v118h-88v408h600v-408h-88v-118h206v644H62Zm226-274q-20 0-34-14t-14-34q0-20 14-34t34-14q20 0 34 14t14 34q0 20-14 34t-34 14Zm-72 120v-23.684Q216-270 237.5-291q21.5-21 50.818-21Q302-312 316-305.5q14 6.5 23 17.5l44 49q5 6 11.19 12 6.191 6 13.81 11H216Zm156-120v-26q0-32 30-51t78-19q48 0 78 19t30 51v26H372Zm372 120H552q8-5.294 14.5-11.647Q573-234 578-240l44-49q9-11 23.5-17t28.5-6q29 0 49.5 21.12T744-240v24ZM480-456q-20 0-34-14t-14-34q0-20 14-34t34-14q20 0 34 14t14 34q0 20-14 34t-34 14Zm192 120q-20 0-34-14t-14-34q0-20 14-34t34-14q20 0 34 14t14 34q0 20-14 34t-34 14ZM322-612q5.25-17 7.125-29T331-661q0-14.97-6.774-30.44Q317.452-706.909 302-724q-23-27-33-52.163-10-25.163-10-54.408 0-12.402 1.25-25.915Q261.5-870 264.524-886H324q-5 24-6 34.312-1 10.313-1 20.688 0 19.053 6.5 34.526Q330-781 347-761q23 27 32.5 51.649 9.5 24.648 9.5 51.729 0 11.541-1 21.581Q387-626 383.446-612H322Zm117 0q4.556-17 6.278-29Q447-653 447-661q0-14.97-6.766-30.44Q433.469-706.909 418-724q-23-27-33-52.163-10-25.163-10-54.408 0-12.402 1.5-25.915Q378-870 380.952-886H440q-5 24-6 34.312-1 10.313-1 20.688 0 19.053 6.5 34.526Q446-781 463-761q23 27 33 51.649 10 24.648 10 51.729 0 11.541-1.5 21.581Q503-626 499.492-612H439Zm120 0q4.625-17 6.312-29Q567-653 567-661q0-14.97-6.774-30.44Q553.452-706.909 538-724q-23-27-33-52.163-10-25.163-10-54.408 0-12.402 1.25-25.915Q497.5-870 500.524-886H560q-5 24-6 34.312-1 10.313-1 20.688 0 19.053 6.5 34.526Q566-781 583-761q23 27 33 51.649 10 24.648 10 51.729 0 11.541-1.5 21.581Q623-626 619.492-612H559Z"/></svg>