<svg xmlns="http://www.w3.org/2000/svg" height="20" viewBox="0 -960 960 960" width="20"><path d="M480-389.652q49 0 92-21.5t68-63.5q-35-27-75.5-43t-84.5-16q-44 0-84.5 16t-75.5 43q25 42 68 63.5t92 21.5Zm0-192q30 0 51-21t21-51q0-30-21-51t-51-21q-30 0-51 21t-21 51q0 30 21 51t51 21Zm0 504.87Q313.956-213.434 231.369-327.347q-82.587-113.913-82.587-223.914 0-141.755 94.795-236.856Q338.373-883.218 480-883.218q140.627 0 235.923 95.101 95.295 95.101 95.295 236.856 0 110.001-82.087 223.414Q647.044-214.434 480-76.782Z"/></svg>