<svg xmlns="http://www.w3.org/2000/svg" height="20" viewBox="0 -960 960 960" width="20"><path d="M480-394q49 0 92-21.5t68-63.5q-35-27-75.5-43T480-538q-44 0-84.5 16T320-479q25 42 68 63.5t92 21.5Zm0-192q30 0 51-21t21-51q0-30-21-51t-51-21q-30 0-51 21t-21 51q0 30 21 51t51 21Zm0 368q112-99 170-176.5T708-553q0-97.968-65.035-162.484t-163-64.516Q382-780 317-715.484T252-553q0 81 58 158t170 177Zm0 156Q307-203 220.5-318T134-553q0-147.719 99.253-246.36Q332.506-898 480-898q146.494 0 246.247 98.64Q826-700.719 826-553q0 120-86 234.5T480-62Zm0-490Z"/></svg>