<svg xmlns="http://www.w3.org/2000/svg" height="24" viewBox="0 -960 960 960" width="24"><path d="M480-365.652q56 0 101-27.5t71-72.5q-35-29-79-44.5t-93-15.5q-49 0-93 15.5t-79 44.5q26 45 71 72.5t101 27.5Zm0-200q33 0 56.5-23.5t23.5-56.5q0-33-23.5-56.5t-56.5-23.5q-33 0-56.5 23.5t-23.5 56.5q0 33 23.5 56.5t56.5 23.5Zm0 364.39Q598.043-308.74 655.63-393.174q57.587-84.435 57.587-161.087 0-105.025-67.541-171.991-67.542-66.965-165.696-66.965t-165.675 66.965q-67.522 66.966-67.522 171.991 0 76.652 57.587 160.804T480-201.262Zm0 140.48Q309.956-203.434 225.369-322.347q-84.587-118.913-84.587-231.914 0-157.755 102.295-251.356Q345.373-899.218 480-899.218t236.923 93.601q102.295 93.601 102.295 251.356 0 113.001-84.587 231.914Q650.044-203.434 480-60.782ZM480-560Z"/></svg>