<svg xmlns="http://www.w3.org/2000/svg" height="20" viewBox="0 -960 960 960" width="20"><path d="M392.789-345Q414-345 429-359.663q15-14.662 15-36.337v-168q0-21.675-14.602-36.338Q414.796-615 393.211-615 372-615 356.5-600.338 341-585.675 341-564v168q0 21.675 15.289 36.337Q371.579-345 392.789-345Zm175 0Q589-345 604-359.663q15-14.662 15-36.337v-168q0-21.675-14.602-36.338Q589.796-615 568.211-615 547-615 531.5-600.338 516-585.675 516-564v168q0 21.675 15.289 36.337Q546.579-345 567.789-345ZM480.192-62Q394-62 318-94q-76-32-133.5-89t-90-132.55Q62-391.1 62-477q0-26.709 2.5-51.917Q67-554.126 74-579q6-23 28-33t45 1q24 13 33 37.188 9 24.187 4 49.812-3 12-3.5 23.581T180-477q0 123.719 88 210.359Q356-180 480-180t212-88q88-88 88-212t-86.059-212Q607.881-780 485-780q-13.604 0-26.924 1-13.321 1-27.076 3-25 5-49.689-4.056Q356.622-789.111 346-812.5q-10-23.5 0-45.5t34-28q26-5 50.167-8.5Q454.333-898 480-898q86.886 0 162.443 32.5Q718-833 775.5-775.5q57.5 57.5 90 133.308 32.5 75.807 32.5 162Q898-394 865.5-318q-32.5 76-90 133.5t-133.308 90q-75.807 32.5-162 32.5ZM225.824-646q-36.177 0-61.5-26Q139-698 139-734.176q0-36.177 25.324-61.501Q189.647-821 225.824-821 262-821 288-795.677q26 25.324 26 61.501Q314-698 288-672t-62.176 26ZM480-480Z"/></svg>