<svg xmlns="http://www.w3.org/2000/svg" height="20" viewBox="0 -960 960 960" width="20"><path d="M479.774-159Q390-159 327.5-221.66T265-374q0-73.593 44.5-130.797Q354-562 421-580.562V-672l-8 7q-19 18-41.5 18T331-665q-19-19-19-42t19-42l107.655-107.655Q447-865 457.818-869.5t22.039-4.5q11.221 0 22.039 4.5 10.818 4.5 19.234 12.9L630-748q19 19 19 42t-17.522 41Q613-647 588.833-647q-24.166 0-41.833-18l-8-7v91.438Q606-562 650.5-504.851t44.5 130.67Q695-284 632.274-221.5q-62.726 62.5-152.5 62.5ZM480-277q41 0 69-28t28-69q0-41-28-69t-69-28q-41 0-69 28t-28 69q0 41 28 69t69 28Zm0-97Z"/></svg>