<svg xmlns="http://www.w3.org/2000/svg" height="20" viewBox="0 -960 960 960" width="20"><path d="M479.774-232q-71.313 0-121.543-50.391Q308-332.781 308-404q0-67.516 44.5-115.989 44.5-48.472 111.5-55.65v-186.515l-65.846 65.846q-5.615 5.616-11.154 5.5-5.539-.115-11.154-5.73-6.385-6.385-6.385-11.654 0-5.27 6.385-11.654l84.193-84.193q4.576-4.577 9.356-6.692t10.462-2.115q5.682 0 10.462 2.115 4.78 2.115 9.426 6.746l85.409 85.139q5.615 5.615 6 11.154.385 5.538-5.522 11.154-6.093 5.615-11.914 5.615t-11.103-5.615L496-762.154v186.515q67 7.178 111.5 55.596T652-404.181q0 71.72-50.457 121.95Q551.086-232 479.774-232Z"/></svg>