<svg xmlns="http://www.w3.org/2000/svg" height="20" viewBox="0 -960 960 960" width="20"><path d="M479.774-173.347q-85.426 0-145.101-59.834-59.674-59.834-59.674-145.167 0-72.289 44.5-127.536 44.5-55.246 111.5-71.2v-118.393l-18.434 17.869q-15.522 14.957-34.326 14.739-18.805-.217-33.762-15.174-15.522-15.522-15.522-34.826 0-19.305 15.522-34.827l101.134-101.133q7.041-7.041 15.903-10.672 8.861-3.63 18.343-3.63t18.344 3.63q8.861 3.631 15.973 10.727l102.349 102.078q15.522 15.522 15.522 34.609 0 19.088-14.479 34.044-15.435 14.957-35.471 14.957-20.037 0-34.66-14.957l-18.434-17.434v118.393q67 15.954 111.5 71.146 44.5 55.193 44.5 127.409 0 85.834-59.901 145.508-59.9 59.674-145.326 59.674Z"/></svg>