<svg xmlns="http://www.w3.org/2000/svg" height="20" viewBox="0 -960 960 960" width="20"><path d="M479.888-232q-71.427 0-121.657-50.31Q308-332.62 308-404q0-67.516 44.5-115.989 44.5-48.472 111.5-55.65v-186.515l-65.846 65.846q-5.615 5.616-11.154 5.5-5.539-.115-11.321-5.898-6.218-6.217-6.218-11.486 0-5.27 6.385-11.654l83.927-83.928q4.842-4.842 9.725-6.957 4.882-2.115 10.462-2.115 5.579 0 10.359 2.115t9.692 7.012l85.143 84.873q5.615 5.615 6 11.154.385 5.538-5.355 11.154-6.26 5.615-12.081 5.615t-11.103-5.615L496-762.154v186.515q67 7.178 111.5 55.596T652-404.181q0 71.881-50.343 122.031Q551.315-232 479.888-232Zm.202-32q58.371 0 99.141-40.86Q620-345.719 620-404.09t-40.86-99.141Q538.281-544 479.91-544t-99.141 40.86Q340-462.28 340-403.909q0 58.371 40.86 99.14T480.09-264ZM480-404Z"/></svg>