<svg xmlns="http://www.w3.org/2000/svg" height="24" viewBox="0 -960 960 960" width="24"><path d="M760-69q-26 0-44.5-18.5T697-132q0-26 18.5-44.5T760-195q26 0 44.5 18.5T823-132q0 26-18.5 44.5T760-69Zm0-160q-26 0-44.5-18.5T697-292v-113q0-26 18.5-44.5T760-468q26 0 44.5 18.5T823-405v113q0 26-18.5 44.5T760-229ZM269-69q-26 0-44.5-18.5T206-132v-120h-97q-26 0-44.5-18.5T46-315v-205q0-64 44-109t107-45h566q57 0 98 36t51 90H743q-53 0-89.5 36.5T617-422v151H332v83h285v119H269Zm-63-645v-34q0-53 36.5-89.5T332-874h296q53 0 89.5 36.5T754-748v34H206Z"/></svg>