<svg xmlns="http://www.w3.org/2000/svg" height="24" viewBox="0 -960 960 960" width="24"><path d="m602.462-458.769-28.308-28.77L710-592.308l-230-178-107.846 82.769-28.308-28.769L480-821.539l295.385 229.231-172.923 133.539ZM689-372.461l-28.769-28.77 83-63.692 32.154 25.385L689-372.461Zm116.846 287.23L593.539-297.538 480-210.307 184.615-439.538l32.154-25.385L480-261.538l84-65.308-57-56.769-27 20.538-295.385-229.231 63.769-50.384L69.615-821l28.539-28.539 736 736-28.308 28.308ZM473.154-587.539Z"/></svg>