<svg xmlns="http://www.w3.org/2000/svg" height="20" viewBox="0 -960 960 960" width="20"><path d="m589.462-465.769-23.308-21.77L699-592.308l-219-173-106.846 84.769-23.308-21.769L480-805.539l271.385 213.231-161.923 126.539ZM669-385.461l-22.769-22.77 81-62.692 24.154 21.385L669-385.461Zm112.846 262.23L585.539-319.538 480-236.307 208.615-449.538l24.154-21.385L480-277.538l83-65.308-56-57.769-27 21.538-271.385-213.231 57.769-46.384L104.615-803l22.539-22.539 678 679-23.308 23.308ZM466.154-584.539Z"/></svg>