<svg xmlns="http://www.w3.org/2000/svg" height="24" viewBox="0 -960 960 960" width="24"><path d="M479.917-46Q390-46 311-80t-138-93q-59-59-93-138.083-34-79.084-34-169Q46-570 80-649t93-138q59-59 138.083-93 79.084-34 169-34Q570-914 649-880t138 93q59 59 93 138.083 34 79.084 34 169Q914-390 880-311t-93 138q-59 59-138.083 93-79.084 34-169 34Zm.074-126Q608-172 698-261.991t90-218Q788-608 698.009-698t-218-90Q352-788 262-698.009t-90 218Q172-352 261.991-262t218 90Zm.009-80q-94 0-161-67t-67-161q0-94 67-161t161-67q94 0 161 67t67 161q0 94-67 161t-161 67Zm-.053-126Q522-378 552-407.947t30-72Q582-522 552.053-552t-72-30Q438-582 408-552.053t-30 72Q378-438 407.947-408t72 30Z"/></svg>