<svg xmlns="http://www.w3.org/2000/svg" height="24" viewBox="0 -960 960 960" width="24"><path d="M200-120q-33 0-56.5-23.5T120-200v-480h480q33 0 56.5 23.5T680-600v480H200Zm560 0v-80h80q0 33-23.5 56.5T760-120ZM240-240h320q13 0 18.5-11t-2.5-21l-96-127q-6-8-16-8t-16 8l-72 97q-6 8-16 8t-16-8l-32-43q-6-8-16-8t-16 8l-56 73q-8 10-2.5 21t18.5 11Zm520-40v-80h80v80h-80Zm0-160v-80h80v80h-80Zm0-160v-80h80v80h-80ZM120-760q0-33 23.5-56.5T200-840v80h-80Zm160 0v-80h80v80h-80Zm160 0v-80h80v80h-80Zm160 0v-80h80v80h-80Zm160 0v-80q33 0 56.5 23.5T840-760h-80Z"/></svg>