<svg xmlns="http://www.w3.org/2000/svg" height="20" viewBox="0 -960 960 960" width="20"><path d="M576.122-232q-103.199 0-175.661-72.339Q328-376.679 328-479.878q0-103.199 72.339-175.661Q472.679-728 575.878-728q103.199 0 175.661 72.339Q824-583.321 824-480.122q0 103.199-72.339 175.661Q679.321-232 576.122-232Zm-263.199-7.769q-81.385-22.769-129.154-89.846Q136-396.692 136-479.882q0-83.189 47.269-150.884 47.269-67.696 129.654-87.465 9-.615 16.038 4.837 7.039 5.453 7.039 11.91 0 5.176-1.957 8.804-1.956 3.629-7.274 4.065Q256.154-668.923 212.077-611 168-553.077 168-480.5T212.077-350q44.077 57.923 114.692 79.615 4.014 1.973 6.622 5.523 2.609 3.55 2.609 8.324 0 6.923-7.539 13.154-7.538 6.23-15.538 3.615ZM584-480Zm-8 216q90 0 153-63t63-153q0-90-63-153t-153-63q-90 0-153 63t-63 153q0 90 63 153t153 63Z"/></svg>