<svg xmlns="http://www.w3.org/2000/svg" height="20" viewBox="0 -960 960 960" width="20"><path d="M576.122-232q-103.199 0-175.661-72.339Q328-376.679 328-479.878q0-103.199 72.339-175.661Q472.679-728 575.878-728q103.199 0 175.661 72.339Q824-583.321 824-480.122q0 103.199-72.339 175.661Q679.321-232 576.122-232Zm-263.199-7.769q-81.385-22.769-129.154-89.846Q136-396.692 136-480q0-83.308 47.269-150.885 47.269-67.577 129.654-87.346 9-.615 16.038 4.837 7.039 5.453 7.039 11.91 0 5.176-1.957 8.804-1.956 3.629-7.274 4.065Q256.154-668.923 212.077-611 168-553.077 168-480q0 72.077 44.077 130t114.692 79.615q4.318 1.625 6.774 5.349 2.457 3.724 2.457 8.498 0 6.923-7.539 13.154-7.538 6.23-15.538 3.615Z"/></svg>