<svg xmlns="http://www.w3.org/2000/svg" height="20" viewBox="0 -960 960 960" width="20"><path d="M576.159-244Q478-244 409-312.841q-69-68.842-69-167Q340-578 408.841-647q68.842-69 167-69Q674-716 743-647.159q69 68.842 69 167Q812-382 743.159-313q-68.842 69-167 69ZM321-249q-80-20-126.5-85T148-479.882q0-80.881 46-146.499Q240-692 321-709q6 1 10.5 4.788 4.5 3.788 4.5 6.483 0 3.729-1.043 5.896-1.044 2.166-4.957 1.833-72 19-117 77.5t-45 132q0 73.5 45 132T330-269q2.609 1.26 4.304 3.527Q336-263.206 336-260q0 3-5 7.5t-10 3.5Zm263-231Zm-8 216q90 0 153-63t63-153q0-90-63-153t-153-63q-90 0-153 63t-63 153q0 90 63 153t153 63Z"/></svg>