<svg xmlns="http://www.w3.org/2000/svg" height="20" viewBox="0 -960 960 960" width="20"><path d="m386.696-410.696 35.434-115.978-93.782-71.913h114.815L480-714.239l36.837 115.652h114.815l-93.543 71.913 35.195 115.978L480-482.522l-93.304 71.826ZM259.413-40.586v-280.957q-44.913-38.435-72.228-102.498-27.316-64.063-27.316-129.394 0-133.109 93.511-226.62 93.511-93.51 226.62-93.51t226.62 93.51q93.511 93.511 93.511 226.62 0 66.331-25.316 129.894-25.315 63.563-75.228 102.998v279.956L480-89.304 259.413-40.587ZM480-316.305q98.804 0 167.967-69.163 69.163-69.163 69.163-167.968 0-98.804-69.163-167.967Q578.804-790.565 480-790.565q-98.804 0-167.967 69.163-69.163 69.163-69.163 167.967 0 98.805 69.163 167.968Q381.196-316.304 480-316.304Z"/></svg>