<svg xmlns="http://www.w3.org/2000/svg" height="20" viewBox="0 -960 960 960" width="20"><path d="m515.609-309.217 99.174-107.174q10.826-11.65 4.348-26.477-6.479-14.828-22.435-14.828H363.304q-16.206 0-22.56 14.74-6.353 14.739 4.473 26.565l99.174 107.174q15.138 14.957 35.7 14.957 20.561 0 35.518-14.957ZM217.783-124.782q-38.942 0-65.972-27.029-27.029-27.03-27.029-65.972v-524.434q0-38.942 27.029-65.972 27.03-27.029 65.972-27.029h524.434q38.942 0 65.972 27.029 27.029 27.03 27.029 65.972v524.434q0 38.942-27.029 65.972-27.03 27.029-65.972 27.029H217.783Zm5-405.739v307.738h514.434v-307.738H222.783Z"/></svg>