<svg xmlns="http://www.w3.org/2000/svg" height="24" viewBox="0 -960 960 960" width="24"><path d="m517.609-321.217 95.174-95.174q12.826-12.826 5.848-29.065-6.979-16.24-24.935-16.24H366.304q-17.956 0-24.935 16.24-6.978 16.239 5.848 29.065l95.174 95.174Q458.348-305.26 480-305.26t37.609-15.957ZM206.783-100.782q-44.305 0-75.153-30.848-30.848-30.848-30.848-75.153v-546.434q0-44.305 30.848-75.153 30.848-30.848 75.153-30.848h546.434q44.305 0 75.153 30.848 30.848 30.848 30.848 75.153v546.434q0 44.305-30.848 75.153-30.848 30.848-75.153 30.848H206.783Zm0-437.739v331.738h546.434v-331.738H206.783Z"/></svg>