<svg xmlns="http://www.w3.org/2000/svg" height="20" viewBox="0 -960 960 960" width="20"><path d="m752.131-314.37-63.327-63.848q14.522-34.282 21.424-68.63 6.902-34.348 6.902-68.152v-176.848L480-782.652l-141.782 53.848-64.848-63.848L480-872.37 800.131-749.5V-515q0 52.152-12.24 101.891-12.239 49.739-35.76 98.739Zm18.065 231.588L662.87-189.87q-35.283 35.521-82.337 62.119Q533.478-101.152 480-87.63q-140.587-35.718-230.359-155.631Q159.869-363.174 159.869-515v-177.87l-76.087-76.326 53.631-53.391 686.174 686.174-53.391 53.63ZM427.804-424.936ZM528.63-538.63Zm-48.63 365q38-13.718 67.989-32.283 29.989-18.565 54.989-44.087L242.87-609.869V-515q0 113.848 65.021 208.63Q372.913-211.587 480-173.63Z"/></svg>