<svg xmlns="http://www.w3.org/2000/svg" height="20" viewBox="0 -960 960 960" width="20"><path d="M150.268-115q-16.732 0-28.5-12.316t-11.768-30Q110-174 121.655-187t31-13Q169-200 182-186.5t13 29.886q0 17.386-12.5 29.5T150.268-115Zm165.077 0Q299-115 287-127.316t-12-30Q275-174 286.655-187t31-13Q334-200 346.5-186.5t12.5 29.886q0 17.386-12.155 29.5T315.345-115Zm163 0Q462-115 450-127.316t-12-30Q438-174 450.225-187T480-200q16.55 0 29.275 13.018 12.725 13.017 12.725 30Q522-139 509.845-127t-31.5 12ZM644-115q-17.55 0-29.775-12.225Q602-139.45 602-157q0-16.975 11.655-29.988Q625.31-200 644.655-200 661-200 673.5-186.5t12.5 29.886q0 17.386-12.725 29.5T644-115Zm164 0q-17.975 0-30.487-12.225Q765-139.45 765-157q0-16.975 12.518-29.988Q790.035-200 808.018-200 825-200 837.5-186.982q12.5 13.017 12.5 30Q850-139 837.275-127T808-115ZM167-256q-23 0-40-17.5T110-315q0-23 17.5-41t41.5-18h74q23 0 40.5 18t17.5 41q0 24-18 41.5T242-256h-75Zm276 0q-23 0-40.5-17.5T385-315q0-23 18-41t41-18h73q24 0 41 18t17 41q0 24-18 41.5T516-256h-73Zm274 0q-23 0-40.5-17.5T659-315q0-23 18-41t41-18h74q23 0 40.5 18t17.5 41q0 24-18 41.5T791-256h-74ZM167-431q-23 0-40-18t-17-42q0-23 17.5-40.5T169-549h217q23 0 40.5 17.5T444-491q0 24-18 42t-41 18H167Zm407 0q-23 0-40.5-18T516-491q0-23 18-40.5t41-17.5h217q23 0 40.5 17.5T850-491q0 24-18 42t-41 18H574ZM169-621q-26 0-42.5-16.5T110-680v-106q0-26 16.5-42.5T169-845h622q26 0 42.5 16.5T850-786v106q0 26-16.5 42.5T791-621H169Z"/></svg>