<svg xmlns="http://www.w3.org/2000/svg" height="24" viewBox="0 -960 960 960" width="24"><path d="M403.077-529.231q8.538 0 14.269-5.731 5.731-5.73 5.731-14.269v-96.923q0-8.538-5.731-14.269t-14.269-5.731q-8.539 0-14.269 5.731-5.731 5.731-5.731 14.269v96.923q0 8.539 5.731 14.269 5.73 5.731 14.269 5.731Zm112.308 0q8.538 0 14.269-5.731 5.731-5.73 5.731-14.269v-96.923q0-8.538-5.731-14.269t-14.269-5.731q-8.539 0-14.27 5.731-5.73 5.731-5.73 14.269v96.923q0 8.539 5.73 14.269 5.731 5.731 14.27 5.731Zm112.307 0q8.539 0 14.27-5.731 5.731-5.73 5.731-14.269v-96.923q0-8.538-5.731-14.269t-14.27-5.731q-8.538 0-14.269 5.731t-5.731 14.269v96.923q0 8.539 5.731 14.269 5.731 5.731 14.269 5.731ZM264.615-120Q237-120 218.5-138.5 200-157 200-184.615v-411.616q0-12.923 5.231-25.115 5.23-12.193 13.923-20.885l178.615-178.615q8.692-8.693 20.885-13.923Q430.846-840 443.769-840h251.616Q723-840 741.5-821.5 760-803 760-775.385v590.77Q760-157 741.5-138.5 723-120 695.385-120h-430.77Zm0-40h430.77q9.23 0 16.923-7.692Q720-175.385 720-184.615v-590.77q0-9.23-7.692-16.923Q704.615-800 695.385-800H434L240-606v421.385q0 9.23 7.692 16.923Q255.385-160 264.615-160Zm0 0H240h480-455.385Z"/></svg>