<svg xmlns="http://www.w3.org/2000/svg" height="20" viewBox="0 -960 960 960" width="20"><path d="M180-70 62-188h836L780-70H180Zm-70-166q6-24 19.088-44.913 13.088-20.913 28.912-38.01V-564h-48v-64h48v-46h-48v-65h48v-46h-48v-65h340v111h347v64H450v111H328v207q4 4 6.6 7 2.6 3 6.4 6 26-77 93.033-123.5T584-514q109 0 187.5 74.5T850-256v20H110Zm368-118h213q-20-23-48.5-32.5t-58.549-9.5Q554-396 527-385.5T478-354ZM328-739h35v-46h-35v46Zm0 111h35v-46h-35v46ZM222-739h42v-46h-42v46Zm0 111h42v-46h-42v46Zm0 272q9-4 20.5-5.5t21.5-2.369V-564h-42v208Zm363 2Z"/></svg>