<svg xmlns="http://www.w3.org/2000/svg" height="20" viewBox="0 -960 960 960" width="20"><path d="m178.77-154.77-62.769-62.769h727.998L781.23-154.77H178.77Zm-14.769-114.615q8.385-16.461 21.077-29.731 12.693-13.269 26.923-24.037v-262.078h-48v-35.692h48v-51.846h-48v-35.692h48v-51.846h-48v-35.692h312.153v87.538h319.845v35.692H476.154v87.538H343.693v235.616q20.616 5.385 39.347 14.193 18.731 8.807 35.808 22.269 12.307-66.692 65.691-108.5 53.385-41.807 121.923-41.807 79.268 0 134.403 56.639 55.134 56.64 55.134 137.436H164.001Zm315.076-51.999h251.308q-12.461-39.923-46.692-65-34.231-25.078-77.665-25.078-44.567 0-79.528 24.462-34.962 24.462-47.423 65.616ZM343.693-708.461h80.462v-51.846h-80.462v51.846Zm0 87.538h80.462v-51.846h-80.462v51.846Zm-96-87.538h60.308v-51.846h-60.308v51.846Zm0 87.538h60.308v-51.846h-60.308v51.846Zm0 280.539q13.692-6.538 29.462-9.5 15.769-2.962 30.846-4.088v-231.259h-60.308v244.847Zm357.538 19Z"/></svg>