<svg xmlns="http://www.w3.org/2000/svg" height="20" viewBox="0 -960 960 960" width="20"><path d="M543-310.304q18 0 34-6.5t29-19.5l18-18q7-7.364 7-17.182 0-9.818-7-16.818-7-7-17-7.5t-17 7.5l-18 18q-6 6-13.75 9t-15.5 3q-7.75 0-15.25-3t-13.5-9l-34.346-34.346Q467-417.304 450.68-423.304q-16.321-6-33.501-6-17.179 0-33.679 6-16.5 6-29.5 19l-18 18q-7 7.363-7 17.182 0 9.818 7 16.818 7 7 16.818 7 9.818 0 17.182-7l18-18q6-6 13.75-9t15.5-3q7.75 0 15.25 3t13.5 9l34.346 34.346Q493-323.304 509-316.804t34 6.5Zm0-108q18 0 34-6.5t29-19.5l18-18q7-7.364 7-17.182 0-9.818-7-16.818-7-7-17-7.5t-17 7.5l-18 18q-6 6-13.75 9t-15.5 3q-7.75 0-15.25-3t-13.5-9l-34.346-34.346Q467-525.304 450.68-531.304q-16.321-6-33.501-6-17.179 0-33.679 6-16.5 6-29.5 19l-18 18q-7 7.363-7 17.182 0 9.818 7 16.818 7 7 16.818 7 9.818 0 17.182-7l18-18q6-6 13.75-9t15.5-3q7.75 0 15.25 3t13.5 9l34.346 34.346Q493-431.304 509-424.804t34 6.5Zm0-108q18 0 34-6.5t29-19.5l18-18q7-7.364 7-17.182 0-9.818-7-16.818-7-7-16.818-7-9.818 0-17.182 7l-18 18q-6 6-14 9t-16 3q-8 0-15-3t-13-9l-34.346-34.346Q467-633.304 450.68-639.304q-16.321-6-33.501-6-17.179 0-33.679 6-16.5 6-29.5 19l-18 18q-7 7-7.5 16.5t7.5 17.5q7.364 7 17.182 7 9.818 0 16.818-7l18-18q6-6 14-9t16-3q8 0 15 3t13 9l34.346 34.346Q493-539.304 509-532.804t34 6.5ZM270.5-172.782q-41.022 0-69.37-28.498-28.348-28.498-28.348-69.503v-337.826q0-22.928 10.043-43.442 10.044-20.515 29.131-35.472l209.217-156.912q27.348-19.653 58.827-19.653t58.827 19.653l209.217 156.912q19.087 14.957 29.131 35.472 10.043 20.514 10.043 43.442v337.826q0 41.005-28.51 69.503-28.51 28.498-69.531 28.498H270.5Zm.283-98.001h418.434v-337.826L480-765.521 270.783-608.609v337.826ZM480-518.435Z"/></svg>