<svg xmlns="http://www.w3.org/2000/svg" height="24" viewBox="0 -960 960 960" width="24"><path d="M550.033-285.385q17.659 0 34.411-6.974 16.751-6.974 29.095-19.179l18-18q5.153-5.434 5.153-12.679t-5.153-12.398q-5.154-5.154-12.399-5.154-7.245 0-12.679 5.154l-18 18q-7.538 7.538-17.846 11.192-10.307 3.654-20.615 3.654-10.308 0-20.615-3.654-10.308-3.654-17.846-11.192l-38-38q-12.462-12.462-29.214-18.424Q427.574-399 409.941-399t-34.326 5.961q-16.692 5.962-29.154 18.424l-18 18q-5.153 5.433-5.153 12.678 0 7.245 5.153 12.399 5.154 5.153 12.399 5.153 7.245 0 12.679-5.153l18-18q7.538-7.539 17.846-11.193 10.307-3.654 20.615-3.654 10.308 0 20.615 3.654 10.308 3.654 17.846 11.193l38 38q12.362 12.205 29.138 19.179 16.776 6.974 34.434 6.974Zm0-111.538q17.659 0 34.411-6.974 16.751-6.975 29.095-19.18l18-18q5.153-5.434 5.153-12.678 0-7.245-5.153-12.399-5.154-5.154-12.399-5.154-7.245 0-12.679 5.154l-18 18q-7.538 7.538-17.846 11.192-10.307 3.654-20.615 3.654-10.308 0-20.615-3.654-10.308-3.654-17.846-11.192l-38-38q-12.462-12.462-29.214-18.423-16.751-5.962-34.384-5.962t-34.326 5.962q-16.692 5.961-29.154 18.423l-18 18q-5.153 5.434-5.153 12.678 0 7.245 5.153 12.399 5.154 5.154 12.399 5.154 7.245 0 12.679-5.154l18-18q7.538-7.538 17.846-11.192 10.307-3.654 20.615-3.654 10.308 0 20.615 3.654 10.308 3.654 17.846 11.192l38 38q12.362 12.205 29.138 19.18 16.776 6.974 34.434 6.974Zm0-111.539q17.659 0 34.411-6.974 16.751-6.974 29.095-19.179l18-18q5.153-5.434 5.153-12.679t-5.153-12.399q-5.154-5.153-12.399-5.153-7.245 0-12.679 5.153l-18 18q-7.538 7.539-17.846 11.193-10.307 3.654-20.615 3.654-10.308 0-20.615-3.654-10.308-3.654-17.846-11.193l-38-38q-12.462-12.461-29.214-18.423-16.751-5.961-34.384-5.961t-34.326 5.961q-16.692 5.962-29.154 18.423l-18 18q-5.153 5.434-5.153 12.679t5.153 12.399q5.154 5.153 12.399 5.153 7.245 0 12.679-5.153l18-18q7.538-7.539 17.846-11.193 10.307-3.654 20.615-3.654 10.308 0 20.615 3.654 10.308 3.654 17.846 11.193l38 38q12.362 12.205 29.138 19.179 16.776 6.974 34.434 6.974ZM264.615-200q-26.654 0-45.634-18.981Q200-237.961 200-264.615v-323.077q0-15.347 6.865-29.077 6.866-13.731 18.981-22.616l215.385-162.308q16.907-12.923 38.646-12.923 21.738 0 38.892 12.923l215.385 162.308q12.115 8.885 18.981 22.616Q760-603.039 760-587.692v323.077q0 26.654-18.981 45.634Q722.039-200 695.385-200h-430.77Z"/></svg>