<svg xmlns="http://www.w3.org/2000/svg" height="20" viewBox="0 -960 960 960" width="20"><path d="M479.435-529.696q155.478 0 255.631-43.326 100.152-43.326 100.152-109.718 0-62.956-104.652-107.717-104.653-44.761-251.131-44.761-146.479 0-250.566 44.761-104.087 44.761-104.087 107.717 0 66.392 99.587 109.718 99.587 43.326 255.066 43.326Zm.565 89.217q85.523 0 151.61-13.761 66.087-13.761 111.522-36.022t69.043-49.391q23.609-27.131 23.609-53.87v112.958q0 26.739-23.609 53.869-23.608 27.131-69.043 49.392-45.435 22.261-111.522 36.022T480-327.521q-85.523 0-151.61-13.761-66.087-13.761-111.522-36.022t-69.043-49.392q-23.609-27.13-23.609-53.869v-112.958q0 26.739 23.609 53.87 23.608 27.13 69.043 49.391T328.39-454.24q66.087 13.761 151.61 13.761Zm0 202.175q85.523 0 151.61-13.761 66.087-13.761 111.522-36.305 45.435-22.543 69.043-49.674 23.609-27.13 23.609-53.869v113.522q0 26.739-23.609 53.87-23.608 27.13-69.043 49.391T631.61-139.108Q565.523-125.347 480-125.347q-85.523 0-151.61-13.761-66.087-13.761-111.522-36.022t-69.043-49.391q-23.609-27.131-23.609-53.87v-113.522q0 26.739 23.609 53.869 23.608 27.131 69.043 49.392 45.435 22.261 111.522 36.304 66.087 14.044 151.61 14.044Z"/></svg>