<svg xmlns="http://www.w3.org/2000/svg" height="20" viewBox="0 -960 960 960" width="20"><path d="M479.5-184q-129.731 0-212.616-31.081Q184-246.161 184-295.692V-672q0-43.846 86.077-73.923Q356.154-776 479.5-776t209.923 30.077Q776-715.846 776-672v376.308q0 49.531-83.384 80.611Q609.231-184 479.5-184Zm.467-421.385q82.956 0 160.264-19.961 77.308-19.962 101.461-48.192-23.384-28.77-100.807-49.616T479.972-744q-82.126 0-162.626 20.462-80.5 20.461-100.577 46.923 19.308 29 98.039 50.115 78.73 21.115 165.159 21.115ZM480-411.077q41.231 0 80-4.5t73.038-12.885q34.27-8.384 62.385-21.653 28.115-13.27 48.577-30.039V-633q-22.709 13.992-51.701 25.15-28.991 11.158-63.593 18.39-34.601 7.233-72.538 10.885t-76.666 3.652q-40.267 0-78.269-4.037-38.001-4.036-71.771-11.269-33.77-7.232-62.885-18.117Q237.462-619.23 216-633v152.846q20.875 16.714 48.284 29.626 27.408 12.913 61.293 21.297 33.885 8.385 72.769 13.269 38.885 4.885 81.654 4.885ZM480.319-216q48.704 0 92.281-5.241 43.578-5.241 78.17-14.978t58.864-23.369q24.273-13.631 34.366-29.643v-147.923q-22.709 13.992-51.701 25.15-28.991 11.158-63.593 18.391-34.601 7.232-72.538 10.884t-76.666 3.652q-40.267 0-78.269-4.036-38.001-4.037-71.771-11.27-33.77-7.232-62.885-18.117-29.115-10.884-50.577-24.654V-288q10.385 16.077 35.115 29.462 24.731 13.384 59.154 22.615 34.423 9.231 77.885 14.577Q431.615-216 480.319-216Z"/></svg>