<svg xmlns="http://www.w3.org/2000/svg" height="24" viewBox="0 -960 960 960" width="24"><path d="m461.784-287.913 129.259-82.825q24.217-15.957 24.217-44.74t-24.217-44.74l-129.259-82.825q-26.783-16.956-54.284-2.282-27.5 14.674-27.5 46.587v166.52q0 31.913 27.5 46.587 27.501 14.674 54.284-2.282ZM166.783-100.782q-44.305 0-75.153-30.848-30.848-30.848-30.848-75.153v-470.391q0-22.087 15.456-37.544 15.457-15.456 37.544-15.456h188.695v-80q0-44.305 30.849-75.154 30.848-30.848 75.153-30.848h143.042q44.305 0 75.153 30.848 30.849 30.849 30.849 75.154v80h188.695q22.087 0 37.544 15.456 15.456 15.457 15.456 37.544v470.391q0 44.305-30.848 75.153-30.848 30.848-75.153 30.848H166.783Zm241.696-629.392h143.042v-80H408.479v80Z"/></svg>