<svg xmlns="http://www.w3.org/2000/svg" height="20" viewBox="0 -960 960 960" width="20"><path d="m446.692-328.231 126.385-80.692Q587-417.115 587-431.75q0-14.635-13.923-23.327l-126.385-80.692q-14.154-8.693-28.423-.116Q404-527.308 404-510.923v157.846q0 16.385 14.269 24.962 14.269 8.577 28.423-.116ZM192.615-184q-24.315 0-40.465-16.15Q136-216.3 136-240.615v-411.078q0-12.223 8.042-20.265T164.307-680H376v-47.597Q376-752 392.176-768q16.175-16 40.527-16h94.945Q552-784 568-767.85q16 16.15 16 40.465V-680h211.693q12.223 0 20.265 8.042T824-651.693v411.078q0 24.315-16.15 40.465Q791.7-184 767.385-184h-574.77Zm0-32h574.77q9.23 0 16.923-7.692Q792-231.385 792-240.615V-648H168v407.385q0 9.23 7.692 16.923Q183.385-216 192.615-216ZM408-680h144v-47.385q0-9.231-7.692-16.923Q536.615-752 527.385-752h-94.77q-9.23 0-16.923 7.692Q408-736.616 408-727.385V-680ZM168-216v-432 432Z"/></svg>