<svg xmlns="http://www.w3.org/2000/svg" height="20" viewBox="0 -960 960 960" width="20"><path d="M240-76.782q-27.748 0-47.483-19.735-19.735-19.735-19.735-47.483 0-18.087 9-42.805 9-24.717 18-65.021t15-95.891q6-55.587 6-132.283 0-76.696-6-132.283-6-55.587-15-95.891t-18-65.521q-9-25.218-9-42.305 0-27.748 19.735-47.483 19.735-19.735 47.483-19.735h479q27.348 0 47.783 19.735 20.435 19.735 20.435 47.483 0 17.087-9 42.305-9 25.217-18 65.521t-15 95.891q-6 55.587-6 132.283 0 76.696 6 132.283 6 55.587 15 95.891t18 65.021q9 24.718 9 42.805 0 27.748-19.735 47.483Q747.748-76.782 720-76.782H240Z"/></svg>