<svg xmlns="http://www.w3.org/2000/svg" height="24" viewBox="0 -960 960 960" width="24"><path d="M590.696-161.868q-24.826 29.391-62.413 33.174-37.587 3.783-67.544-20.478L277.043-302.608q-27.131-22.13-47.544-50.261-20.413-28.13-34.109-60.261-12.696 11.435-28.261 17.37-15.565 5.934-32.565 5.934H43.259v-356.175h91.305q30.696 0 55.174 18 24.478 18 32.87 47 41.957-61.392 106.263-96.305 64.307-34.913 138.259-34.913 49.644 0 94.322 17.978 44.679 17.979 82.071 49.805l185.261 152.87q29.392 23.826 32.74 61.414 3.348 37.587-21.044 66.978L590.696-161.868Zm-320.87-363.089q-1 42.83 17.065 80.959 18.065 38.128 50.761 65.259l180.87 150.609 243.001-291.696-180.871-151.74q-25.13-21.13-55.972-31.913-30.842-10.783-63.81-10.783-78.957.131-134.501 55.24-55.543 55.109-56.543 134.065Zm245.131 53.261Z"/></svg>