<svg xmlns="http://www.w3.org/2000/svg" height="24" viewBox="0 -960 960 960" width="24"><path d="M464.131-61.782q-84.218-3.739-157.653-37.587-73.435-33.847-128.239-90.174-54.805-56.326-86.131-131.065Q60.782-395.348 60.782-480q0-86.957 32.913-163.348 32.913-76.392 89.739-133.218 56.826-56.826 133.218-89.739Q393.043-899.218 480-899.218q86.957 0 163.348 32.913 76.392 32.913 133.218 89.739 56.826 56.826 89.739 133.218Q899.218-566.957 899.218-480v11.196q0 5.63-.565 11.195-23.783-17.217-51.935-31.109-28.153-13.891-56.197-22.587-11.391-120.913-101.478-201.412-90.087-80.5-212.434-80.5-49.783 0-94.761 15.174-44.978 15.173-83.152 43.217L534.652-498.87q-25.217 10.261-48.087 24.435-22.87 14.174-44.392 31.261L224.609-660.173q-28.044 39.304-42.935 84.847-14.891 45.544-14.891 95.326 0 87.695 44.739 160.825 44.738 73.13 119.564 112.957 23.087 42.696 58.001 80.175Q424-88.565 464.131-61.782ZM680-160q57.87 0 108.37-26.435Q838.87-212.87 870-260q-31.13-47.13-81.63-73.565Q737.87-360 680-360q-57.87 0-108.37 26.435Q521.13-307.13 490-260q31.13 47.13 81.63 73.565Q622.13-160 680-160Zm0 88.479q-96.565 0-175.174-51.631Q426.217-174.782 390.391-260q35.826-85.218 114.435-136.848Q583.435-448.479 680-448.479q96.565 0 175.174 51.631Q933.783-345.218 969.609-260q-35.826 85.218-114.435 136.848Q776.565-71.522 680-71.522Zm0-123.957q-27.261 0-45.891-18.631-18.631-18.63-18.631-45.891t18.631-45.891q18.63-18.631 45.891-18.631t45.891 18.631q18.631 18.63 18.631 45.891t-18.631 45.891q-18.63 18.631-45.891 18.631Z"/></svg>