<svg xmlns="http://www.w3.org/2000/svg" height="20" viewBox="0 -960 960 960" width="20"><path d="M425-141.615q-62.154-9.615-114.962-39.192-52.807-29.577-91.692-75.039-38.885-45.461-60.615-102.577Q136-415.538 136-480q0-72.308 26.538-134.5 26.539-62.192 73.654-109.308Q283.308-770.923 346-797.462 408.692-824 480-824q72.308 0 134.5 26.538 62.192 26.539 109.308 73.654 47.115 47.116 73.654 109.308Q824-552.308 824-480v10.308q-8.538-3.616-15.385-4.346-6.846-.731-15.846-3.654.616-130.847-90.538-222.577Q611.077-792 480-792q-60.692 0-113.538 22.115-52.847 22.116-94.847 58.193l254.154 254.153Q518-452.615 509.846-450q-8.154 2.615-15.692 7.462L248.308-688.385q-36.077 39.693-58.193 94.847Q168-538.385 168-480q0 102.385 60.269 184.077t157.962 113.615q9.538 12.385 18.077 21.154 8.538 8.77 20.692 19.539ZM684-168q58 0 110-24t84-72q-32-48-84-72t-110-24q-58 0-110 24t-84 72q32 48 84 72t110 24Zm0 32q-70.539 0-134.231-31.961-63.692-31.962-97.154-96.039 33.462-64.077 97.154-96.039Q613.461-392 684-392q70.539 0 134.231 31.961 63.692 31.962 97.154 96.039-33.462 64.077-97.154 96.039Q754.539-136 684-136Zm0-75.692q-21.154 0-36.731-15.577-15.577-15.577-15.577-36.731 0-21.923 15.577-37.115 15.577-15.193 36.731-15.193 21.923 0 37.115 15.193 15.193 15.192 15.193 37.115 0 21.154-15.193 36.731-15.192 15.577-37.115 15.577Z"/></svg>