<svg xmlns="http://www.w3.org/2000/svg" height="20" viewBox="0 -960 960 960" width="20"><path d="M480 30Q341-87 272.5-187.012T204-370.966Q204-486 284.265-566.5 364.529-647 480-647q115.471 0 195.735 80.5Q756-486 756-371.331q0 85.258-68.5 185.294Q619-86 480 30Zm.059-311Q518-281 544.5-307.559t26.5-64.5Q571-410 544.441-436.5t-64.5-26.5Q442-463 415.5-436.441t-26.5 64.5Q389-334 415.559-307.5t64.5 26.5ZM344-644l-73-72q43-40 95.902-65.5t112.5-25.5Q539-807 591.5-780.5T687-713l-72 72q-29-26-63.091-45-34.092-19-73-19Q440-705 406.5-687 373-669 344-644ZM225-762l-73-73q66-64 150.263-102 84.262-38 176.951-38t176.738 39.5Q740-896 806-832l-72 72q-51-51.481-117-82.241Q551-873 479-873t-137.5 30Q276-813 225-762Z"/></svg>