<svg xmlns="http://www.w3.org/2000/svg" height="20" viewBox="0 -960 960 960" width="20"><path d="M480-95q84.844-79.336 132.922-152.526Q661-320.717 661-371q0-75.235-53-128.117Q555-552 480-552t-128 52.867q-53 52.868-53 128.081Q299-322 347-247.5T480-95Zm0 41.923Q373.538-146.23 320.269-226.538 267-306.846 267-370.966q0-89.111 61.726-151.073Q390.452-584 480-584t151.274 61.961Q693-460.077 693-371q0 69.654-55.192 147.212Q582.616-146.231 480-53.077Zm0-274.308q18.846 0 31.731-12.884 12.884-12.885 12.884-31.731 0-18.846-12.884-31.731-12.885-12.884-31.731-12.884-18.846 0-31.731 12.884-12.884 12.885-12.884 31.731 0 18.846 12.884 31.731 12.885 12.884 31.731 12.884ZM343.769-677.308l-22.538-22.538q33.384-25 73.594-40.885 40.209-15.885 83.577-15.885 43.367 0 83.675 16.885t73.692 42.885l-22.538 22.538q-29.769-22.153-64.361-36.23-34.591-14.077-70.961-14.077-36.371 0-70.371 13.077-34 13.077-63.769 34.23ZM224-795.308l-21.769-24.307q57.384-50.001 128.625-77.501 71.241-27.5 147.644-27.5 77.172 0 148.413 29 71.241 29 128.626 79.77l-23.308 22.538q-52.539-48.404-117.769-73.856Q549.231-892.615 478-892.615q-70.462 0-135.962 24.692-65.5 24.692-118.038 72.615ZM480-372Z"/></svg>