<svg xmlns="http://www.w3.org/2000/svg" height="20" viewBox="0 -960 960 960" width="20"><path d="M220.817-96q-31.687 0-54.252-22.717Q144-141.433 144-173.333V-792q0-29.7 21.15-50.85Q186.3-864 216-864h276.32q14.68 0 25.18 10.289 10.5 10.29 10.5 25.5Q528-813 517.65-802.5 507.3-792 492-792H216v624h427v-34q0-16.15 11.5-27.075T682.105-240q16.106 0 27 10.925Q720-218.15 720-202v29q-1 32-23 54.5T643.313-96H220.817ZM324-240q-15.3 0-25.65-10.289-10.35-10.29-10.35-25.5Q288-291 298.35-301.5 308.7-312 324-312h197q15.3 0 25.65 10.289 10.35 10.29 10.35 25.5Q557-261 546.65-250.5 536.3-240 521-240H324Zm0-120q-15.3 0-25.65-10.289-10.35-10.29-10.35-25.5Q288-411 298.35-421.5 308.7-432 324-432h120q15.3 0 25.65 10.289 10.35 10.29 10.35 25.5Q480-381 469.65-370.5 459.3-360 444-360H324Zm317-55L528-528H420q-15.3 0-25.65-10.35Q384-548.7 384-564v-120q0-15.3 10.35-25.65Q404.7-720 420-720h108l113-113q8-8 19.5-3.833Q672-832.667 672-821v394q0 11.667-11.5 15.833Q649-407 641-415Zm103-85v-248q32 20 52 53t20 71.5q0 38.5-19.5 71T744-500Zm144-124q0-60-30-110.5t-82-78.32q-13-7.18-17.5-20.658Q754-846.957 760-860q7-14 20-19.5t27 1.5q70 36 111.5 104T960-624.5q0 81.5-40.5 149T810-371q-14 8-28.5 2.5T760-388q-6-13.043-1.5-26.522Q763-428 776-435.179 828-463 858-513.5T888-624Z"/></svg>