<svg xmlns="http://www.w3.org/2000/svg" height="24" viewBox="0 -960 960 960" width="24"><path d="M184.615-120q-26.654 0-45.634-18.981Q120-157.961 120-184.615v-590.77q0-26.654 18.981-45.634Q157.961-840 184.615-840h282.308q8.5 0 14.25 5.758 5.75 5.757 5.75 14.269 0 8.511-5.75 14.242-5.75 5.731-14.25 5.731H184.615q-10.769 0-17.692 6.923T160-775.385v590.77q0 10.769 6.923 17.692T184.615-160h390.77q10.769 0 17.692-6.923T600-184.615V-240q0-8.5 5.758-14.25t14.269-5.75q8.512 0 14.242 5.75Q640-248.5 640-240v55.385q0 26.654-18.981 45.634Q602.039-120 575.385-120h-390.77ZM280-260q-8.5 0-14.25-5.758-5.75-5.757-5.75-14.269t5.75-14.242Q271.5-300 280-300h200q8.5 0 14.25 5.758 5.75 5.757 5.75 14.269t-5.75 14.242Q488.5-260 480-260H280Zm0-110.769q-8.5 0-14.25-5.758T260-390.796q0-8.512 5.75-14.243 5.75-5.73 14.25-5.73h120q8.5 0 14.25 5.757 5.75 5.758 5.75 14.27 0 8.511-5.75 14.242-5.75 5.731-14.25 5.731H280Zm272.154-57.846L448.461-532.308h-76.153q-13.731 0-23.02-9.201Q340-550.71 340-564.311v-96.011q0-13.601 9.288-22.794 9.289-9.192 23.02-9.192h76.153L552.154-796q7.692-7.693 17.769-3.814Q580-795.936 580-785.077v345.539q0 10.859-10.077 14.737t-17.769-3.814ZM660-495.077v-234.462q30.616 20.231 45.308 52.77Q720-644.231 720-612.308q0 31.923-15.077 64.462-15.077 32.538-44.923 52.769Zm140-117.231q0-68.769-33.346-129.269t-87.808-93.038q-7.077-4.154-10.884-12.347-3.808-8.192-.116-15.376 3.693-7.662 11.885-9.931 8.192-2.27 15.269 1.884 64.154 37.692 104.577 107.039Q840-694 840-612.308q0 81.693-40.423 151.039Q759.154-391.923 695-354.231q-7.077 4.154-15.269 1.885t-11.885-9.932q-3.692-7.184.116-15.376 3.807-8.192 10.884-12.346 54.462-32.539 87.808-93.039Q800-543.539 800-612.308Z"/></svg>