<svg xmlns="http://www.w3.org/2000/svg" height="20" viewBox="0 -960 960 960" width="20"><path d="M133.826-407.946v-144.243q0-12.091 8.081-20.212t20.441-8.121q12.114 0 20.035 7.921 7.921 7.921 7.921 20.036v44.043h39.522v-44.043q0-12.115 8.081-20.036 8.081-7.921 20.441-7.921 12.114 0 20.035 7.906 7.921 7.906 7.921 19.997v144.808q0 12.091-7.917 20.212t-20.026 8.121q-12.109 0-20.322-8.081T229.826-408v-43.478h-39.522v44.043q0 12.115-7.917 20.036-7.917 7.921-20.026 7.921t-20.322-8.066q-8.213-8.066-8.213-20.402Zm241.86-.054v-115.478h-23.271q-12.288 0-20.569-8.081-8.281-8.081-8.281-20.441t8.06-20.441q8.06-8.081 20.388-8.081h103.619q12.328 0 20.609 8.081 8.281 8.081 8.281 20.441 0 12.333-8.081 20.396-8.081 8.064-20.441 8.064h-23.435v115.167q0 12.333-8.081 20.614t-20.441 8.281q-12.288 0-20.323-8.081-8.034-8.081-8.034-20.441Zm199.913 0v-115.478h-23.27q-12.289 0-20.57-8.081T523.478-552q0-12.36 8.06-20.441 8.061-8.081 20.388-8.081h103.619q12.328 0 20.609 8.081 8.281 8.081 8.281 20.441 0 12.333-8.081 20.396-8.081 8.064-20.441 8.064h-23.434v115.167q0 12.333-8.082 20.614-8.081 8.281-20.44 8.281-12.289 0-20.323-8.081-8.035-8.081-8.035-20.441Zm146.097 0v-135.913q0-15.164 10.722-25.886 10.723-10.723 25.879-10.723h87.921q11.861 0 19.909 8.331 8.047 8.33 8.047 20.191v80.479q0 11.861-8.047 20.191-8.048 8.331-19.909 8.331h-68.044v35.564q0 12.115-7.917 20.036-7.917 7.921-20.026 7.921t-20.322-8.081q-8.213-8.081-8.213-20.441Zm56.478-91.478h39.522v-24h-39.522v24Z"/></svg>