<svg xmlns="http://www.w3.org/2000/svg" height="24" viewBox="0 -960 960 960" width="24"><path d="M78-390v-180q0-6.067 3.954-10.033 3.953-3.967 10-3.967Q98-584 102-580.033q4 3.966 4 10.033v66h112v-66q0-6.067 3.953-10.033 3.954-3.967 10-3.967Q238-584 242-580.033q4 3.966 4 10.033v180q0 6.067-3.953 10.033-3.954 3.967-10 3.967Q226-376 222-379.967q-4-3.966-4-10.033v-86H106v86q0 6.067-3.953 10.033-3.954 3.967-10 3.967Q86-376 82-379.967q-4-3.966-4-10.033Zm288 0v-166h-56q-6.067 0-10.033-3.953-3.967-3.954-3.967-10Q296-576 299.967-580q3.966-4 10.033-4h140q6.067 0 10.033 3.953 3.967 3.954 3.967 10Q464-564 460.033-560q-3.966 4-10.033 4h-56v166q0 6.067-3.953 10.033-3.954 3.967-10 3.967Q374-376 370-379.967q-4-3.966-4-10.033Zm200 0v-166h-56q-6.067 0-10.033-3.953-3.967-3.954-3.967-10Q496-576 499.967-580q3.966-4 10.033-4h140q6.067 0 10.033 3.953 3.967 3.954 3.967 10Q664-564 660.033-560q-3.966 4-10.033 4h-56v166q0 6.067-3.953 10.033-3.954 3.967-10 3.967Q574-376 570-379.967q-4-3.966-4-10.033Zm148 0v-172q0-9 7-15.5t16-6.5h85q24 0 42 18t18 42v8q0 24-18 42t-42 18h-80v66q0 6.067-3.953 10.033-3.954 3.967-10 3.967Q722-376 718-379.967q-4-3.966-4-10.033Zm28-94h80q12 0 22-10t10-22v-8q0-12-10-22t-22-10h-80v72Z"/></svg>