<svg xmlns="http://www.w3.org/2000/svg" height="24" viewBox="0 -960 960 960" width="24"><path d="M29.826-390v-180.565q0-14.715 9.78-24.336 9.782-9.621 24.741-9.621 14.715 0 24.336 9.621 9.621 9.621 9.621 24.336v46.043h71.522v-46.043q0-14.715 9.781-24.336 9.781-9.621 24.741-9.621 14.714 0 24.335 9.621t9.621 24.336v181.13q0 14.715-9.617 24.336-9.617 9.621-24.326 9.621t-24.622-9.781q-9.913-9.781-9.913-24.741v-65.478H98.304v66.043q0 14.715-9.617 24.336-9.617 9.621-24.326 9.621-14.71 0-24.622-9.781-9.913-9.781-9.913-24.741Zm301.695 0v-145.478h-29.434q-14.96 0-24.741-9.781-9.781-9.781-9.781-24.741 0-14.96 9.781-24.741 9.781-9.781 24.741-9.781H430q14.96 0 24.741 9.781 9.781 9.781 9.781 24.741 0 14.96-9.781 24.741-9.781 9.781-24.741 9.781h-29.435V-390q0 14.96-9.781 24.741-9.781 9.781-24.741 9.781-14.959 0-24.74-9.781-9.782-9.781-9.782-24.741Zm227.914 0v-145.478H530q-14.96 0-24.741-9.781-9.781-9.781-9.781-24.741 0-14.96 9.781-24.741 9.781-9.781 24.741-9.781h127.913q14.96 0 24.741 9.781 9.781 9.781 9.781 24.741 0 14.96-9.781 24.741-9.781 9.781-24.741 9.781h-29.434V-390q0 14.96-9.781 24.741-9.782 9.781-24.741 9.781-14.96 0-24.741-9.781-9.781-9.781-9.781-24.741Zm162.261 0v-174.913q0-17.164 11.222-28.386 11.223-11.223 28.387-11.223h104.913q26.261 0 45.109 19.131 18.847 19.13 18.847 45.391v48.479q0 26.261-18.847 45.391-18.848 19.131-45.109 19.131h-76.044v37.564q0 14.715-9.617 24.336-9.617 9.621-24.326 9.621t-24.622-9.781q-9.913-9.781-9.913-24.741Zm68.478-105.478h71.522v-40h-71.522v40Z"/></svg>