<svg xmlns="http://www.w3.org/2000/svg" height="20" viewBox="0 -960 960 960" width="20"><path d="M168.389-130.999q-46.13 0-78.76-32.631-32.631-32.63-32.631-78.761v-178.783q0-9.696 1.783-19.239 1.782-9.544 5.913-18.805l114.434-261.304q12.696-27.957 38.305-44.218 25.609-16.261 57.131-16.261 24.696 0 44.544 13.696 19.847 13.696 29.152 35.957v128.696l-60.87 61.869q-12.696 12.696-12.196 28.957.5 16.261 13.196 28.956 12.696 12.696 29.739 12.696 17.044 0 29.74-12.696l83.13-83.13v-262q0-20.087 14.457-34.544 14.457-14.457 34.544-14.457 20.087 0 34.544 14.457 14.457 14.457 14.457 34.544v261l84.695 84.696q12.696 12.695 29.74 12.413 17.043-.283 29.739-12.979 12.696-12.695 12.696-29.239 0-16.543-12.696-29.239l-60.869-61.304v-128.696q9.304-22.261 28.369-35.957 19.065-13.696 43.761-13.696 31.522 0 57.696 16.261t38.305 44.218l115.435 261.304q4.13 9.261 5.913 18.805 1.782 9.543 1.782 19.239v178.783q0 46.131-32.348 78.761-32.347 32.631-79.043 32.631H615.957q-46.696 0-79.327-32.631Q504-196.26 504-242.391v-80.608q0-4.696 1.565-10.392l24.131-93.173L480-477.26l-50.696 50.696 24.131 93.173q1.565 5.696 2.065 10.609t.5 11.174v69.217q0 46.131-32.348 78.761-32.348 32.631-79.043 32.631h-176.22Z"/></svg>