<svg xmlns="http://www.w3.org/2000/svg" height="20" viewBox="0 -960 960 960" width="20"><path d="m480-458-52.103 51.227Q410.333-389 386.5-389T345-407q-18-17.667-18-41.5t17.846-41.335L421-566v-262q0-24.3 17.289-41.65 17.29-17.35 41.5-17.35Q504-887 521.5-869.65T539-828v261l76.154 77.049Q633-472.333 633-448.5q0 23.833-18 41.5-17.667 18-41.5 18t-41.397-17.773L480-458ZM141-121q-47 0-80.5-33.5T27-235v-184q0-11.381 2-22.69Q31-453 36-464l114-260q14-31 42.237-49 28.237-18 62.638-18Q300-791 330.5-758.527T361-681v44q0 24.3-17.289 41.65-17.29 17.35-41.5 17.35Q278-578 260.5-595.35T243-637v-44q0 4.194 2.25 7.097Q247.5-671 250.5-671q2.5 0 5.375-2.625T259-678L145-421v186q0-1.7-1.15-2.85Q142.7-239 141-239h201q-3 0-3.5 1.15T338-235v-19q0-24.3 17.289-41.65 17.29-17.35 41.5-17.35Q421-313 438.5-295.65T456-254v19q0 47-33.25 80.5T342-121H141Zm679 0H619q-47.5 0-80.75-33.5T505-235v-19q0-24.3 17.289-41.65 17.29-17.35 41.5-17.35Q588-313 605.5-295.65T623-254v19q0-1.7-1.15-2.85Q620.7-239 619-239h201q-3 0-3.5 1.15T816-235v-186L701-678q.8 1.75 2.708 4.375Q705.615-671 708.75-671q4.075 0 6.662-2.903Q718-676.806 718-681v44q0 24.3-17.289 41.65-17.29 17.35-41.5 17.35Q635-578 617.5-595.35T600-637v-44q0-44 30.356-77t73.721-33q34.742 0 63.833 18Q797-755 810-724l115 260q5 11 7 22.31 2 11.309 2 22.69v184q0 47-33.25 80.5T820-121ZM345-407Zm270 0Z"/></svg>