<svg xmlns="http://www.w3.org/2000/svg" height="24" viewBox="0 -960 960 960" width="24"><path d="M164.389-106.999q-52.13 0-87.76-35.631-35.631-35.63-35.631-87.761v-159.783q0-9.696 1.783-18.739 1.782-9.044 4.913-18.305l99.434-265.304q13.696-36.957 46.805-58.718 33.109-21.761 72.631-21.761 27.696 0 51.544 14.696 23.847 14.696 37.152 38.957v113.696l-79.87 79.869q-10.696 10.696-10.196 24.957.5 14.261 11.196 24.956 10.696 10.696 25.239 10.696 14.544 0 25.24-10.696L426.999-576v-264q0-22.087 15.457-37.544 15.457-15.457 37.544-15.457 22.087 0 37.544 15.457 15.457 15.457 15.457 37.544v264l100.695 100.696q10.696 10.695 25.24 10.413 14.543-.283 25.239-10.979 10.696-10.695 10.696-25.239 0-14.543-10.696-25.239l-79.869-79.304v-113.696q13.304-24.261 36.869-38.957 23.565-14.696 51.261-14.696 39.522 0 72.696 21.761t47.305 58.718l99.435 265.304q3.13 9.261 4.913 18.305 1.782 9.043 1.782 18.739v159.783q0 52.131-35.848 87.761-35.847 35.631-87.543 35.631H642.957q-51.696 0-87.327-35.631Q520-178.26 520-230.391v-68.217q0-3.696.5-8.391.5-4.696 1.065-8.392l15.131-106.173L480-479.26l-57.696 57.696 16.131 106.173q.565 3.696 1.065 8.109t.5 8.674v68.217q0 52.131-35.848 87.761-35.848 35.631-87.543 35.631h-152.22Z"/></svg>