<svg xmlns="http://www.w3.org/2000/svg" height="24" viewBox="0 -960 960 960" width="24"><path d="M565.652-560q0-35.826-24.913-60.739-24.913-24.913-60.739-24.913-7.174 0-13.63 1.152-6.457 1.152-12.761 3.891l107 107q2.739-6.304 3.891-12.761 1.152-6.456 1.152-13.63Zm183.827 215.261-76.653-76.653q20.478-35.782 30.435-68.608 9.956-32.826 9.956-64.261 0-105.025-67.536-171.991Q578.146-793.217 480-793.217q-39.067 0-73.25 10.956-34.184 10.957-62.923 31.87l-75.653-75.654q44.696-35.304 99.063-54.239Q421.605-899.218 480-899.218q134.627 0 236.923 93.601 102.295 93.601 102.295 251.356 0 51.391-17.152 103.022-17.152 51.63-52.587 106.5Zm-186.958 63.087L249.652-594.521q-1.434 9.473-2.152 19.735-.717 10.263-.717 20.525 0 76.652 57.587 160.804T480-201.262q23.174-20.739 43.695-40.978 20.522-20.239 38.826-39.412ZM828.044-16.13 637.74-206.434q-33.696 35.13-72.805 71.261Q525.826-99.043 480-60.782 309.956-203.434 225.369-322.347q-84.587-118.913-84.587-231.914 0-34.814 5.847-66.364 5.848-31.549 16.544-60.376L24.173-820l62.653-62.652 803.87 803.87-62.652 62.652Zm-421.74-421.74Zm102.305-147.739Z"/></svg>