<svg xmlns="http://www.w3.org/2000/svg" height="20" viewBox="0 -960 960 960" width="20"><path d="M794.384-119.769 629.846-284.307q-30.231 36.077-67.884 72.769-37.654 36.692-81.962 76.307-137-118.692-206.423-221.577-69.423-102.884-69.423-188.346 0-35.846 8.192-69.308 8.192-33.461 23.808-63.538l-97.693-97.692L160.231-799l656.692 656.692-22.539 22.539ZM692.385-366.308 533.231-526.461q1.692-5.693 2.538-10.731.846-5.039.846-10.193 0-23.846-16.384-40.23Q503.846-604 480-604q-5.154 0-10.192.846-5.039.846-10.731 2.539L300.923-758.769q34.846-29.847 79.654-47.539T480-824q124.539 0 200.192 83.961 75.654 83.962 75.654 194.885 0 40.308-15.423 85.039-15.423 44.73-48.038 93.807Z"/></svg>