<svg xmlns="http://www.w3.org/2000/svg" height="24" viewBox="0 -960 960 960" width="24"><path d="m831.693-43.386-202.77-202.77q-31.615 35.539-68.192 71.885Q524.154-137.925 480-99.617 329.001-230.463 253.539-343.154q-75.461-112.692-75.461-206.923 0-33.923 6.346-64.654 6.347-30.731 17.655-58.269L51.233-823.846l42.383-43.153L874.461-86.154l-42.768 42.768ZM715.691-358.155 545.615-528.231q3.846-6.846 5.269-14.115t1.423-15.346q0-29.923-21.192-51.115-21.192-21.192-51.115-21.192-8.077 0-15.346 1.423t-14.115 5.269L284.463-789.384q39.922-33.922 90.076-52.268Q424.693-859.999 480-859.999q122.769 0 212.345 85.731 89.577 85.731 89.577 224.191 0 44.154-16.462 91.769-16.461 47.615-49.769 100.153Z"/></svg>