<svg xmlns="http://www.w3.org/2000/svg" height="20" viewBox="0 -960 960 960" width="20"><path d="M536.615-547.09q0-23.949-16.63-40.429Q503.354-604 480-604q-5.154 0-10.192.846-5.039.846-10.731 2.539l74.154 74.154q1.692-5.693 2.538-10.494.846-4.8.846-10.135Zm155.77 180.782-23.539-23.538q26.231-43 40.616-82.392 14.384-39.392 14.384-73.09 0-105.595-68.5-176.518t-175.621-70.923q-45.55 0-85.407 14.884Q354.462-763 322.692-737l-21.769-21.769q34.846-29.847 79.654-47.539T480-824q124.539 0 200.192 83.961 75.654 83.962 75.654 194.652 0 40.541-15.673 85.272-15.673 44.73-47.788 93.807Zm-85.078 59.462L258.538-655.615q-10.923 25.769-16.653 52.307-5.731 26.539-5.731 58.154 0 74.077 67.038 174.077 67.039 100 176.808 193.154 35.231-31.692 67.692-63.808 32.462-32.115 59.615-65.115Zm187.077 187.077L629.846-284.307q-30.231 36.077-67.884 72.769-37.654 36.692-81.962 76.307-136.975-118.799-206.411-221.63-69.435-102.831-69.435-188.293 0-36.175 8.131-68.959 8.132-32.783 23.869-63.887l-97.693-97.692L160.231-799l656.692 656.692-22.539 22.539ZM432.538-481.615Zm63.231-82.308Z"/></svg>