<svg xmlns="http://www.w3.org/2000/svg" height="20" viewBox="0 -960 960 960" width="20"><path d="M811.846-128.154 585.692-353.307 517.385-285q-8.693 8.693-19.616 8.693T478.154-285L366.615-396.538q-4.846-4.847-5.115-11.27-.269-6.423 6.115-12.038 5.616-5.616 11.27-5.231 5.654.385 11.269 6l107.615 108.615 64.615-66.153-375.692-375.693q-4.846-4.846-5.115-11.269-.269-6.423 6.115-12.038 5.616-5.616 11.27-5.231 5.653.384 11.269 6l624.154 625.154Q840-144.077 840-138.923t-6.385 10.769q-5.615 5.616-10.884 5.616-5.27 0-10.885-5.616ZM274.154-285 162.615-396.538q-5.615-5.616-5.5-11.27.116-5.654 6.5-12.038 6.385-6.385 11.654-6.385 5.27 0 11.654 6.385L290.769-315l27.692-27.692 26.308 26.308L313.385-285q-8.693 8.693-19.616 8.693T274.154-285ZM660-427.615l-23.308-23.308 139.693-139.692q5.615-5.616 12.038-5.616t12.039 6.385q5.615 6.384 5.23 11.654-.384 5.269-6 10.884L660-427.615ZM558-528.077l-23.308-23.308 36.923-35.923q5.616-5.615 10.77-6 5.154-.384 11.538 6 6.385 6.385 6.385 11.654T593.923-564L558-528.077Z"/></svg>