<svg xmlns="http://www.w3.org/2000/svg" height="20" viewBox="0 -960 960 960" width="20"><path d="M180-158q-49.7 0-83.85-34.162Q62-226.324 62-276.04v-408.243Q62-734 96.15-768T180-802h600q49.7 0 83.85 34.162Q898-733.676 898-683.96v408.243Q898-226 863.85-192T780-158H180Zm0-118h600v-408H180v408Zm0 0v-408 408Zm322.96-48h169.757Q697-324 714.5-341.334t17.5-41.611v-97.779Q732-505 714.662-522.5 697.323-540 673.04-540H503.283Q479-540 461.5-522.666T444-481.055v97.779Q444-359 461.338-341.5 478.677-324 502.96-324ZM516-396v-72h144v72H516Z"/></svg>