<svg xmlns="http://www.w3.org/2000/svg" height="24" viewBox="0 -960 960 960" width="24"><path d="M184.615-200Q157-200 138.5-218.5 120-237 120-264.615v-430.77Q120-723 138.5-741.5 157-760 184.615-760h590.77Q803-760 821.5-741.5 840-723 840-695.385v430.77Q840-237 821.5-218.5 803-200 775.385-200h-590.77Zm300-81.538h243.077q13.923 0 23.116-9.193Q760-299.923 760-313.846v-163.077q0-13.923-9.192-23.116-9.193-9.192-23.116-9.192H484.615q-13.923 0-23.115 9.192-9.192 9.193-9.192 23.116v163.077q0 13.923 9.192 23.115 9.192 9.193 23.115 9.193Zm121.539-113.847Z"/></svg>