<svg xmlns="http://www.w3.org/2000/svg" height="24" viewBox="0 -960 960 960" width="24"><path d="M288.479-22.477q-44.305 0-75.153-30.849-30.849-30.848-30.849-75.153v-703.042q0-44.305 30.849-75.153 30.848-30.849 75.153-30.849h383.042q44.305 0 75.153 30.849 30.849 30.848 30.849 75.153v703.042q0 44.305-30.849 75.153-30.848 30.849-75.153 30.849H288.479ZM480-148.48q17 0 28.5-11.5t11.5-28.5q0-17-11.5-28.5t-28.5-11.5q-17 0-28.5 11.5t-11.5 28.5q0 17 11.5 28.5t28.5 11.5Zm-191.521-180h383.042v-383.042H288.479v383.042Z"/></svg>