<svg xmlns="http://www.w3.org/2000/svg" height="20" viewBox="0 -960 960 960" width="20"><path d="M225.538-163.431v-397.157q0-14.335 9.612-23.797 9.611-9.461 23.927-9.461H356v-94.855q0-11.914 5.384-24.914 5.385-13 14.847-22.462l79.692-76.615q10.231-10.231 24.077-10.231 13.846 0 24.077 10.231l79.692 76.615q9.462 9.462 14.846 22.466Q604-700.607 604-688.566v238.72h96.923q14.316 0 23.927 9.631 9.612 9.632 9.612 23.975v253.127q0 14.344-9.612 23.805-9.611 9.462-23.927 9.462H259.077q-14.316 0-23.927-9.625-9.612-9.626-9.612-23.96Zm32 1.585h112v-112h-112v112Zm0-144h112v-112h-112v112Zm0-144h112v-112h-112v112Zm166.462 288h112v-112H424v112Zm0-144h112v-112H424v112Zm0-144h112v-112H424v112Zm0-144h112v-112H424v112Zm166.462 432h112v-112h-112v112Zm0-144h112v-112h-112v112Z"/></svg>