<svg xmlns="http://www.w3.org/2000/svg" height="20" viewBox="0 -960 960 960" width="20"><path d="M98-168.047v-360.234Q98-578 132.15-612q34.15-34 83.85-34h74v5.222q0-21.222 8-41.722t25-37.5l74-74q35-35 83-35t83 35l72 72q18 18 26.5 39.504 8.5 21.504 8.5 44.853V-502h74q49.7 0 83.85 34.17Q862-433.66 862-383.932v216.204Q862-118 827.85-84 793.7-50 744-50H216q-49.7 0-83.85-34.164Q98-118.327 98-168.047ZM216-168h72v-72h-72v72Zm0-144h72v-72h-72v72Zm0-144h72v-72h-72v72Zm228 288h72v-72h-72v72Zm0-144h72v-72h-72v72Zm0-144h72v-72h-72v72Zm0-144h72v-72h-72v72Zm228 432h72v-72h-72v72Zm0-144h72v-72h-72v72Z"/></svg>