<svg xmlns="http://www.w3.org/2000/svg" height="20" viewBox="0 -960 960 960" width="20"><path d="m386.608-76.782-24.131-120.217q-18.478-6.305-35.804-16.544-17.325-10.239-32.934-23.412l-115.652 39.826-93.958-163.523 91.522-80.392q-1.435-9.739-2.435-19.478t-1-19.478q0-9.739 1-19.978t2.435-19.978l-91.522-80.392 93.958-162.392 116.783 40.261q15.608-13.174 32.086-23.13 16.478-9.957 35.521-16.261l24.131-121.348h186.784l24.131 121.348q18.478 6.304 35.804 16.261 17.325 9.956 32.934 23.13l115.652-39.261 93.958 162.392-92.087 80.392q1.434 9.739 2.434 19.478 1 9.739 1 19.478t-1.282 19.478q-1.283 9.739-2.152 19.478l92.087 80.392-94.523 163.523-116.218-39.826q-15.608 13.173-32.086 23.412-16.478 10.239-35.521 16.544L573.392-76.782H386.608Zm81.61-98.001h22.999l19.565-94.869q45.566-17 72.979-32.283 27.413-15.283 62.413-46.544l92.435 31 10.217-19.825-71.305-63.87q4-24.13 6.566-42.696 2.565-18.565 2.565-36.13t-3.065-36.13q-3.066-18.566-7.066-42.696l73.435-63.87-12.347-19.825-90.87 31q-35-30.696-62.913-47.044-27.913-16.348-73.044-31.783l-19-94.869h-24.13l-17.869 94.304q-46.696 16.435-74.392 32.283-27.695 15.848-63.261 47.109l-90.304-31-11.782 19.825 71.739 63.305q-4 24.13-6.565 42.978-2.566 18.848-2.566 36.413 0 17.565 2.566 36.696 2.565 19.13 6.565 43.261l-71.739 62.739 11.782 19.825 90.304-30.434q35.566 30.13 64.044 46.478 28.478 16.348 73.609 32.348l18.435 94.304ZM480-320.173q17.957 0 32.066-14.109 14.108-14.109 14.108-32.066 0-18.956-13.608-32.565-13.609-13.609-32.566-13.609t-32.566 13.609q-13.608 13.609-13.608 32.565 0 17.957 14.108 32.066 14.109 14.109 32.066 14.109ZM433.826-430.87h92.348v-200.478h-92.348v200.478ZM480-480Z"/></svg>