<svg xmlns="http://www.w3.org/2000/svg" height="20" viewBox="0 -960 960 960" width="20"><path d="M481.176-394Q430-394 393.5-430.5T357-518v-239q0-51.25 36.5-87.125T481.176-880q51.177 0 87.001 35.875Q604-808.25 604-757v239q0 51-35.823 87.5-35.824 36.5-87.001 36.5ZM481-120q-17 0-29.5-12.5T439-162v-77.812Q347-252 283-316.5T204-471q-3-18.581 9.768-32.791Q226.537-518 248-518q14 0 25 10t14 26q12.802 68.72 66.964 114.86Q408.127-321 481-321q72.497 0 126.381-46.14Q661.264-413.28 674-482q3-16 14-26t26.037-10q20.407 0 33.185 14.209Q760-489.581 757-471q-13.806 90.176-77.903 154.588Q615-252 523-239.812V-162q0 17-12.5 29.5T481-120Z"/></svg>