<svg xmlns="http://www.w3.org/2000/svg" height="20" viewBox="0 -960 960 960" width="20"><path d="M658.153-201.231q7.485 0 12.588-5.104 5.104-5.103 5.104-12.589 0-7.485-5.104-12.588-5.103-5.104-12.588-5.104-7.485 0-12.589 5.104-5.103 5.103-5.103 12.588 0 7.486 5.103 12.589 5.104 5.104 12.589 5.104Zm-12.462-58.693h25.923v-4.461q0-11.385 3.5-16.808t11.5-12.423q13-12 19-23.269 6-11.269 6-21.641 0-20.09-13.518-35.09-13.518-15-39.757-15-18.2 0-33.309 11-15.108 11-22.108 28.231l24.692 9.461q2.77-10 10.927-17t19.612-7q11.721 0 19.63 6.602 7.908 6.602 7.908 19.806 0 6.516-4.384 12.708-4.385 6.192-12.385 13.192-7 6-11.615 11.885-4.616 5.885-7.616 10.225-2 4.172-3 9.031-1 4.859-1 17.02v3.531Zm12.236 137.768q-71.697 0-121.735-50.264t-50.038-121.96q0-71.697 50.264-121.735 50.265-50.038 121.961-50.038t121.734 50.264q50.038 50.265 50.038 121.961t-50.264 121.734q-50.264 50.038-121.96 50.038ZM500.001-644.001H648L500.001-792 648-644.001 500.001-792v147.999Zm-336 528v-727.998h374l161.998 161.998v138.617q-10.212-1.616-20.231-2.039-10.019-.423-20.615-.423-62.385 0-115 26.462-52.616 26.462-88.077 73.385H298.001v51.998h130.307q-10.077 20.847-15.616 44.072-5.538 23.226-6.385 47.93H298.001v51.998h111.99q7.316 38.923 25.009 72.538 17.692 33.615 45.615 61.462H164.001Z"/></svg>