<svg xmlns="http://www.w3.org/2000/svg" height="24" viewBox="0 -960 960 960" width="24"><path d="M396.043-395.478q18.682 0 31.319-12.638Q440-420.753 440-439.435v-241.13q0-18.682-12.64-31.319-12.641-12.638-31.327-12.638-18.685 0-31.599 12.638-12.913 12.637-12.913 31.319v241.13q0 18.682 12.8 31.319 12.8 12.638 31.722 12.638Zm168.479 0q18.682 0 31.319-12.638 12.638-12.637 12.638-31.319v-241.13q0-18.682-12.641-31.319-12.64-12.638-31.326-12.638t-31.599 12.638Q520-699.247 520-680.565v241.13q0 18.682 12.8 31.319 12.8 12.638 31.722 12.638Zm-343.74 174.696-69.391 69.391q-25.217 25.217-57.913 11.502-32.696-13.714-32.696-48.981v-604.347q0-44.305 30.848-75.153 30.848-30.848 75.153-30.848h626.434q44.305 0 75.153 30.848 30.848 30.848 30.848 75.153v466.434q0 44.305-30.848 75.153-30.848 30.848-75.153 30.848H220.782Zm-34-106.001h606.435v-466.434H166.783v485.998l19.999-19.564Zm-19.999 0v-466.434 466.434Z"/></svg>