<svg xmlns="http://www.w3.org/2000/svg" height="20" viewBox="0 -960 960 960" width="20"><path d="M432.018-497Q358-497 306-548.982q-52-51.983-52-126Q254-749 305.982-800.5q51.983-51.5 126-51.5Q506-852 558-800.306T610-675q0 74.025-51.982 126.013Q506.035-497 432.018-497ZM900 24 788-88q-20 11-41.22 16.5T703-66q-79.583 0-135.292-55.708Q512-177.417 512-257t55.708-135.292Q623.417-448 703-448t135.292 55.708Q894-336.583 894-257q0 22.56-5.5 43.78Q883-192 872-172L984-60l-84 84ZM702.535-184Q733-184 754.5-205.035q21.5-21.035 21.5-51.5T754.965-308.5q-21.035-21.5-51.5-21.5T651.5-308.965q-21.5 21.035-21.5 51.5t21.035 51.965q21.035 21.5 51.5 21.5ZM517-445q-63 63-74.5 145.5T468-141H110v-132q0-34 18-63t48-45q67-39 156-59t185-5Z"/></svg>