<svg xmlns="http://www.w3.org/2000/svg" height="24" viewBox="0 -960 960 960" width="24"><path d="M440.018-497Q360-497 303-553.982q-57-56.983-57-137Q246-771 302.982-827.5q56.983-56.5 137-56.5Q520-884 577-827.306T634-691q0 80.025-56.982 137.013Q520.035-497 440.018-497ZM899 28 782-89q-20 11-42.72 17T691-66q-84.583 0-143.792-59.208Q488-184.417 488-269t59.208-143.792Q606.417-472 691-472t143.792 59.208Q894-353.583 894-269q0 25.56-6 48.28Q882-198 871-178L988-61l-89 89ZM690.761-192Q723-192 745.5-214.261q22.5-22.26 22.5-54.5Q768-301 745.739-323.5q-22.26-22.5-54.5-22.5Q659-346 636.5-323.739q-22.5 22.26-22.5 54.5Q614-237 636.261-214.5q22.26 22.5 54.5 22.5ZM479-455q-67 71-71 169.5T457-109H86v-147q0-43.239 22.5-80.12Q131-373 169-392q52-27 131.5-48.5T479-455Z"/></svg>