<svg xmlns="http://www.w3.org/2000/svg" height="20" viewBox="0 -960 960 960" width="20"><path d="M432-288q-6 0-11-4t-6.929-9.769q-13.5-40.385-32.785-67.308Q362-396 344-421q-18-25-31-51.909t-13-65.351Q300-594 338.722-633q38.722-39 93.5-39t93.278 39.178q38.5 39.178 38.5 94.6Q564-500 551-473q-13 27-31 52t-37.286 51.923q-19.285 26.923-32.785 67.308Q448-296 443-292t-11 4Zm0-90q10-16.579 20-30.789Q462-423 472-436q20-27 32-48.739 12-21.739 12-53.261 0-36-24.748-61t-59.5-25Q397-624 372.5-599T348-537.806Q348-506 360-484.5q12 21.5 32 48.5 10 13 20 27.211 10 14.21 20 30.789Zm-.113-102Q452-480 466-493.887q14-13.888 14-34Q480-548 466.113-562q-13.888-14-34-14Q412-576 398-562.113q-14 13.888-14 34Q384-508 397.887-494q13.888 14 34 14ZM432-144q-140 0-238-98T96-480q0-70 26.6-131.133 26.6-61.134 71.867-106.4 45.266-45.267 106.4-71.867Q362-816 432-816q69 0 130.5 26.5T670-717q46 46 73 109t25 135l45-46 51 51-132 132-132-132 51-51 45 45q2-113-75.9-191.5T432-744q-109.371 0-186.686 77.314Q168-589.371 168-480q0 109 77.5 186.5T432-216q66 0 121-29t91-78l51 52q-46 58-114 92.5T432-144Zm0-384Z"/></svg>