<svg xmlns="http://www.w3.org/2000/svg" height="20" viewBox="0 -960 960 960" width="20"><path d="M432-299q-4 0-6.5-3t-4.179-6.894q-11.75-27.26-26.369-48.037Q380.333-377.707 367-397q-19-27-35-53.909t-16-67.351q0-49.111 34.036-83.426Q384.073-636 432.222-636q48.149 0 81.964 34.492Q548-567.016 548-518.222 548-478 532-451q-16 27-35 54-13.333 19.293-27.952 40.069-14.619 20.777-26.119 48.162Q441-304 438.5-301.5T432-299Zm.028-171Q448-470 459-481.028q11-11.028 11-27T458.972-535q-11.028-11-27-11T405-534.972q-11 11.028-11 27T405.028-481q11.028 11 27 11ZM432-196q-118.333 0-201.167-82.793Q148-361.586 148-479.862q0-59.138 22.1-110.771 22.1-51.634 60.867-90.4Q269.733-719.8 321.31-741.9 372.886-764 431.943-764 490-764 542-742t91.5 61.5q39.5 39.5 62 92.961T716-473v63l82-83 14 14-106 106-106-106 14-14 82 82v-63q2-113-75.9-191.5T432-744q-109.371 0-186.686 77.314Q168-589.371 168-480q-1 110 76.5 187T432-216q65 0 116.5-27t89.5-74l15 15q-41 49-98.5 77.5T432-196Z"/></svg>