<svg xmlns="http://www.w3.org/2000/svg" height="20" viewBox="0 -960 960 960" width="20"><path d="M264-50q-48.675 0-83.337-34.662Q146-119.325 146-168v-624q0-48.675 34.663-83.338Q215.325-910 264-910h432q48.675 0 83.338 34.662Q814-840.675 814-792v624q0 48.675-34.662 83.338Q744.675-50 696-50H264Zm216.08-151q35.92 0 61.42-25.58 25.5-25.579 25.5-61.5 0-35.92-25.58-61.42-25.579-25.5-61.5-25.5-35.92 0-61.42 25.58-25.5 25.579-25.5 61.5 0 35.92 25.58 61.42 25.579 25.5 61.5 25.5Zm-.08-75q-5.1 0-8.55-3.45Q468-282.9 468-288q0-5.1 3.45-8.55Q474.9-300 480-300q5.1 0 8.55 3.45Q492-293.1 492-288q0 5.1-3.45 8.55Q485.1-276 480-276Zm0-129q15 0 25.5-10.5T516-441h-72q0 15 10.5 25.5T480-405Zm-93-60h186q21 0 36-15.214 15-15.215 15-35.5Q624-536 606.5-546.5T573-567h15v-45q0-37.629-23.5-67.315Q541-709 504-717v-24q0-10.5-6.75-17.25T480-765q-10.062 0-16.531 7Q457-751 456-741v24q-37 8-60.5 37.5T372-612v45h15q-21 0-36 15t-15 36q0 21 15 36t36 15Z"/></svg>