<svg xmlns="http://www.w3.org/2000/svg" height="24" viewBox="0 -960 960 960" width="24"><path d="M480-71.63q-142.532-35.672-235.331-162.562-92.8-126.89-92.8-281.808v-249.61L480-888.37l328.131 122.76V-516q0 154.918-92.8 281.808Q622.532-107.302 480-71.63Zm0-215.305q82.405 0 140.485-58.08 58.08-58.081 58.08-140.485 0-82.405-58.08-140.485-58.08-58.08-140.485-58.08-82.405 0-140.485 58.08-58.08 58.08-58.08 140.485 0 82.404 58.08 140.485 58.08 58.08 140.485 58.08Zm66-101.935-87.913-87.826v-130.717h43.826v113.195L576.63-419.5 546-388.87Z"/></svg>