<svg xmlns="http://www.w3.org/2000/svg" height="20" viewBox="0 -960 960 960" width="20"><path d="M480.226-294.935q79.179 0 134.759-55.806 55.58-55.807 55.58-134.985 0-79.179-55.806-134.759-55.807-55.58-134.985-55.58-79.179 0-134.759 55.806-55.58 55.807-55.58 134.985 0 79.178 55.806 134.759 55.807 55.58 134.985 55.58ZM535-393.87l-80.913-80.826v-108.717h51.826v87.195L571.63-430.5 535-393.87ZM480-87.63q-138.532-33.672-229.331-155.905-90.8-122.233-90.8-271.465v-234.61L480-872.37l320.131 122.76V-515q0 149.232-90.8 271.465Q618.532-121.302 480-87.63Zm0-86q102.326-33.685 169.728-129 67.402-95.316 67.402-212.259v-177.959L480-783.652l-237.13 90.92V-515q0 117.054 67.402 212.37 67.402 95.315 169.728 129Zm0-304.892Z"/></svg>