<svg xmlns="http://www.w3.org/2000/svg" height="24" viewBox="0 -960 960 960" width="24"><path d="M480-172q-63.532 0-119.766-24Q304-220 262-262q-42-42-66-98.234Q172-416.468 172-480q0-65 23.5-119.5t62.773-95.333Q267-704 279.5-704t21.5 9l205 205q4 4 4.5 9.5T506-470q-5 5-10 5t-10-5L280-676q-32 35-56 82.5T200-480q0 116 82 198t198 82q116 0 198-82t82-198q0-104-71-186.5T494-760v66q0 5.95-4.035 9.975-4.035 4.025-10 4.025T470-684.025q-4-4.025-4-9.975v-80q0-5.95 4.025-9.975Q474.05-788 480-788q63.532 0 119.766 24Q656-740 698-698q42 42 66 98.234Q788-543.532 788-480q0 63.532-24 119.766Q740-304 698-262q-42 42-98.234 66Q543.532-172 480-172Zm-.07-80Q468-252 460-260.07t-8-20q0-11.93 8.07-19.93t20-8q11.93 0 19.93 8.07t8 20q0 11.93-8.07 19.93t-20 8Zm200-200Q668-452 660-460.07t-8-20q0-11.93 8.07-19.93t20-8q11.93 0 19.93 8.07t8 20q0 11.93-8.07 19.93t-20 8Zm-400 0Q268-452 260-460.07t-8-20q0-11.93 8.07-19.93t20-8q11.93 0 19.93 8.07t8 20q0 11.93-8.07 19.93t-20 8Z"/></svg>