<svg xmlns="http://www.w3.org/2000/svg" height="24" viewBox="0 -960 960 960" width="24"><path d="M477.413-69.847Q341.739-205.565 260.565-290.24T136.576-431.945q-42.815-57.033-56.152-98.425-13.337-41.391-13.337-91.543 0-94.631 65.434-160.902 65.435-66.272 160.066-66.272 47.63 0 91.543 18.054 43.913 18.055 78.827 50.729L405.5-560h113.543l-34.478 340.022 109.457-378.109H478.804l70.283-222.522q27.152-14.717 57.163-21.598 30.011-6.88 61.163-6.88 94.631 0 160.066 66.272 65.434 66.271 65.434 160.902 0 49.435-14.315 91.826-14.315 42.391-58.467 100.283-44.153 57.891-126.142 142.185Q612-203.326 477.413-69.847Z"/></svg>