<svg xmlns="http://www.w3.org/2000/svg" height="24" viewBox="0 -960 960 960" width="24"><path d="M477.413-69.847Q341.739-205.565 260.565-290.24T136.576-431.945q-42.815-57.033-56.152-98.425-13.337-41.391-13.337-91.543 0-94.631 65.434-160.902 65.435-66.272 160.066-66.272 47.63 0 91.543 18.054 43.913 18.055 78.827 50.729L405.5-560h113.543l-34.478 340.022 109.457-378.109H478.804l70.283-222.522q27.152-14.717 57.163-21.598 30.011-6.88 61.163-6.88 94.631 0 160.066 66.272 65.434 66.271 65.434 160.943 0 49.394-14.315 91.785t-58.467 100.283q-44.153 57.891-126.142 142.185Q612-203.326 477.413-69.847ZM399.956-277.61l19.565-196.413H289.696l69.499-267.304q-15.521-8-32.418-12.38-16.897-4.381-34.276-4.381-56.001 0-95.208 39.88-39.206 39.879-39.206 96.294 0 31 11.619 62.359 11.62 31.358 39.403 70.619 27.782 39.261 74.608 90.207 46.826 50.945 116.239 121.119Zm210.479-53.739q103.826-105.109 147.652-170.506 43.826-65.398 43.826-120.059 0-56.415-39.206-96.294-39.207-39.88-95.294-39.88-11 0-22 1.295t-22 4.749l-21.608 67.978h111.217L610.435-331.348Zm102.587-352.717ZM289.696-474.022Z"/></svg>