<svg xmlns="http://www.w3.org/2000/svg" height="20" viewBox="0 -960 960 960" width="20"><path d="M480-169.002q-70.922-63.537-136.614-121.422-65.692-57.884-116.307-113.807-50.616-55.923-80.847-110.885Q116.001-570.077 116.001-627q0-85.818 58.091-144.409 58.091-58.59 142.909-58.59 40.645 0 77.514 14.769 36.87 14.769 65.946 40.692l-55.923 232.539h121.154l-46.077 324.845 124.231-392.847H483.077l62.23-196.075q22.148-11.462 46.61-17.693 24.462-6.23 50.313-6.23 84.818 0 142.909 58.59 58.09 58.591 58.09 144.409 0 58.307-32.615 115.961-32.616 57.654-84.924 114.962-52.307 57.308-116.614 113.5Q544.768-226.385 480-169.002Zm-43.152-105.304 29.307-215.695H340.079l62.846-263.384q-19.693-11.539-41.741-18.077-22.048-6.539-44.183-6.539-63.143 0-106.072 43.429T168-627q0 38.769 19.154 77.693 19.154 38.923 54.154 82t84.462 90.231q49.462 47.154 111.078 102.77Zm124.073-30.999q105.463-98.617 167.886-174.617Q791.231-555.923 791.231-627q0-64.143-42.929-107.572T642.23-778.001q-13.308 0-27.231 2.962-13.923 2.961-26.847 7.346l-34.769 105.694h120.384L560.921-305.305Zm112.846-356.694ZM340.079-490.001Z"/></svg>