<svg xmlns="http://www.w3.org/2000/svg" height="24" viewBox="0 -960 960 960" width="24"><path d="M639.435-186.825q18.648-35.819 28.52-75.436 9.872-39.618 9.872-81.949 0-86.833-38.03-159.088-38.03-72.254-103.224-120.061l-99.964 99.961v-347.691h347.502l-99.907 99.927q56.469 51.049 90.133 121.649 33.664 70.6 33.664 153.145 0 98.836-46.219 179.209-46.22 80.373-122.347 130.334ZM175.889-88.911l99.907-99.926q-57.555-51.05-90.676-121.65-33.121-70.6-33.121-153.145 0-98.836 46.041-179.209 46.042-80.373 122.959-130.334-18.695 35.826-28.761 75.442-10.065 39.617-10.065 81.946 0 86.83 38.573 159.085 38.574 72.254 102.681 120.061l99.964-99.961v347.69H175.889Z"/></svg>