<svg xmlns="http://www.w3.org/2000/svg" height="20" viewBox="0 -960 960 960" width="20"><path d="M596.615-225.231q16.615-33.847 28.423-69.5 11.808-35.654 11.808-74.5 0-67.923-32.846-127.307-32.846-59.385-87.539-101.231l-83.307 83.308v-289.23h289.23l-79.538 79.538q49.461 46.461 76.307 106.346 26.846 59.884 26.846 126.192 0 81.538-40.653 151.23-40.654 69.692-108.731 115.154Zm-358.999 68.922 79.923-79.538q-50.077-44.461-76.615-105.346-26.539-60.884-26.539-127.192 0-80.538 40.154-150.73T363-734.769q-16.615 33.847-28.038 70-11.423 36.154-11.423 74 0 68.923 32.461 127.807 32.462 58.885 87.539 100.731l82.922-83.308v289.23H237.616Z"/></svg>