<svg xmlns="http://www.w3.org/2000/svg" height="20" viewBox="0 -960 960 960" width="20"><path d="M192.615-136q-24.315 0-40.465-16.17Q136-168.34 136-192.684v-360.103q0-31.752 20.807-60.636 20.808-28.885 50.27-40.731L624.385-802.77q7.077-2.692 14.423 1.5 7.346 4.193 10.038 11.27 2.693 7.077-1 14.423-3.692 7.346-10.769 10.038L275.231-632h492.118Q792-632 808-615.838q16 16.162 16 40.494v383.012Q824-168 807.85-152t-40.465 16h-574.77Zm113.006-104.615q33.302 0 57.071-23.544 23.77-23.544 23.77-56.846 0-33.303-23.544-57.072-23.544-23.769-56.846-23.769-33.303 0-57.072 23.544-23.769 23.544-23.769 56.846 0 33.302 23.544 57.072 23.544 23.769 56.846 23.769ZM168-482.462h500v-49.846q0-6.838 4.52-11.419t11.269-4.581q6.75 0 11.364 4.581 4.614 4.581 4.614 11.419v49.846H792v-92.923q0-9.23-7.692-16.923Q776.615-600 767.385-600h-574.77q-9.23 0-16.923 7.692Q168-584.615 168-575.385v92.923Z"/></svg>