<svg xmlns="http://www.w3.org/2000/svg" height="20" viewBox="0 -960 960 960" width="20"><path d="M713.242-242Q764-242 799-277.242q35-35.243 35-86Q834-414 798.758-449q-35.243-35-86-35Q662-484 627-448.758q-35 35.243-35 86Q592-312 627.242-277q35.243 35 86 35ZM48-62v-836h518v273.146Q530-605 500-576t-52 66v-150H166v360h253q13 57 45 105t81 81v52H48Zm566 0v-94q-59-29-94.5-84.568T484-362.818q0-66.682 35.5-122.432T614-569v-95h198v95q59 28 94.5 83.568t35.5 122.25q0 66.682-35.5 122.432T812-156v94H614Z"/></svg>