<svg xmlns="http://www.w3.org/2000/svg" height="20" viewBox="0 -960 960 960" width="20"><path d="M166-732h282v-48H166v48ZM48-62v-836h518v273.146Q530-605 500-576t-52 66v-150H166v360h253q4 19 10.5 36.5T448-228H166v48h281v-36q18 32 43 57t55 45v52H48Zm665.242-180Q764-242 799-277.242q35-35.243 35-86Q834-414 798.758-449q-35.243-35-86-35Q662-484 627-448.758q-35 35.243-35 86Q592-312 627.242-277q35.243 35 86 35ZM614-62v-94q-58-28.704-94-83.468-36-54.763-36-123.217 0-68.455 36-123.385Q556-541 614-569v-95h198v95q58 28 94 82.763 36 54.764 36 123.218 0 68.455-36 123.385-36 54.93-94 83.634v94H614ZM176-228v48-48Zm-10-504v-48 48Z"/></svg>