<svg xmlns="http://www.w3.org/2000/svg" height="20" viewBox="0 -960 960 960" width="20"><path d="m243.077-280-59.037 59.037q-13.271 13.271-30.656 6.173Q136-221.889 136-240.692v-537.693h46.615l253.154 253.154h-46.615L79.462-834.923q-5.616-5.615-6-10.769-.385-5.154 6-11.539 6.384-6.384 11.653-6.384 5.27 0 11.654 6.384l702.154 702.154q5.616 5.616 5.616 11.154 0 5.539-5.616 11.154-6.384 6.385-11.654 6.885-5.269.5-11.654-5.885L634.923-280H243.077ZM777-280.384 523.692-536H684q6.839 0 11.419-4.52Q700-545.04 700-551.789q0-6.75-4.581-11.48Q690.839-568 684-568H491.692L394-668h290q6.839 0 11.419-4.52Q700-677.04 700-683.789q0-6.75-4.581-11.48Q690.839-700 684-700H397.692q-6.838 0-11.419 4.581-4.581 4.58-4.581 11.419v3.692L238-824h529.385q24.315 0 40.465 16.15Q824-791.7 824-767.385v430.77q0 24.4-12 38.854t-35 17.377ZM281.943-393.231q10.595 0 18.788-7.982 8.192-7.981 8.192-18.576 0-10.596-7.982-18.788-7.981-8.192-18.577-8.192-10.595 0-18.787 7.982-8.192 7.981-8.192 18.576 0 10.596 7.981 18.788 7.982 8.192 18.577 8.192Zm0-132q10.595 0 18.288-7.982 7.692-7.981 7.692-18.576 0-10.596-7.78-18.288t-18.077-7.692q-10.297 0-18.489 7.78t-8.192 18.077q0 10.297 7.981 18.489 7.982 8.192 18.577 8.192Z"/></svg>