<svg xmlns="http://www.w3.org/2000/svg" height="24" viewBox="0 -960 960 960" width="24"><path d="M280-400q-17 0-28.5-11.5T240-440q0-17 11.5-28.5T280-480q17 0 28.5 11.5T320-440q0 17-11.5 28.5T280-400Zm567.784 161.913-88.697-88.696h33.565v-466.434H292.653L186.652-899.218h606q44.305 0 75.153 30.848 30.848 30.848 30.848 75.153v466.434q0 32.218-14.783 54.827-14.782 22.608-36.086 33.869ZM565.87-520l-80-80H680q17 0 28.5 11.5T720-560q0 17-11.5 28.5T680-520H565.87ZM220.782-220.782l-69.391 69.391q-25.217 25.217-57.913 11.608-32.696-13.608-32.696-49.087v-585.913l-30.218-30.218q-12.696-12.695-12.413-30.826.282-18.13 12.978-30.826 12.696-12.696 30.826-12.696 18.13 0 30.827 12.696l758.044 758.044q12.696 12.696 12.913 30.61.218 17.912-12.913 31.043Q838.13-34.26 820-34.26q-18.13 0-30.826-12.696L613.348-220.782H220.782ZM525.87-560ZM280-520q-17 0-28.5-11.5T240-560q0-17 11.5-28.5T280-600q17 0 28.5 11.5T320-560q0 17-11.5 28.5T280-520Zm165.87-120-44.74-44.74v-2.608q2.261-14.174 12.914-23.413Q424.696-720 440-720h240q17 0 28.5 11.5T720-680q0 17-11.5 28.5T680-640H445.87ZM337.782-497.782Zm-170.999-171-.565 361.563 19.998-19.564h322.566L166.783-668.782Z"/></svg>