<svg xmlns="http://www.w3.org/2000/svg" height="24" viewBox="0 -960 960 960" width="24"><path d="m243.077-280-68.154 68.154q-15.154 15.154-35.039 6.962Q120-213.077 120-234.692v-560.693h44.615l266.154 266.154h-56.615L54.462-848.923q-5.616-5.615-6-13.769-.385-8.154 6-14.539 6.384-6.384 14.153-6.384 7.77 0 14.154 6.384l742.154 742.154q5.616 5.616 6.116 13.654.5 8.039-6.116 14.654-6.384 6.385-14.154 6.385-7.769 0-14.154-6.385L622.923-280H243.077ZM788-281.384 531.692-540H680q8.539 0 14.269-5.731Q700-551.461 700-560t-5.731-14.269Q688.539-580 680-580H491.692L414-660h266q8.539 0 14.269-5.731Q700-671.461 700-680t-5.731-14.269Q688.539-700 680-700H417.692q-8.538 0-14.269 5.731-5.731 5.73-5.731 14.269v3.692L234-840h541.385Q803-840 821.5-821.5 840-803 840-775.385v430.77q0 26-14.5 41.654-14.5 15.654-37.5 21.577ZM286.154-409.231q12.384 0 21.577-9.192 9.192-9.192 9.192-21.577 0-12.385-9.192-21.577-9.193-9.192-21.577-9.192-12.385 0-21.577 9.192-9.192 9.192-9.192 21.577 0 12.385 9.192 21.577 9.192 9.192 21.577 9.192Zm0-120q12.384 0 21.577-9.192 9.192-9.192 9.192-21.577 0-12.385-9.192-21.577-9.193-9.192-21.577-9.192-12.385 0-21.577 9.192-9.192 9.192-9.192 21.577 0 12.385 9.192 21.577 9.192 9.192 21.577 9.192Z"/></svg>