<svg xmlns="http://www.w3.org/2000/svg" height="20" viewBox="0 -960 960 960" width="20"><path d="M255.909-144Q200-144 167-187.5 134-231 148-285l70-260q-32-18-53-51.538-21-33.539-21-75.462 0-60 42-102t102-42h312q40.549 0 61.275 34Q682-748 664-712l-72 144q-9 18-26.5 29T528-528h-83l-13 48h12q15.3 0 25.65 10.325Q480-459.35 480-444.088v71.825Q480-357 469.65-346.5 459.3-336 444-336h-51.429L364-227q-10.25 36.784-40.068 59.892Q294.114-144 255.909-144ZM850-798l-88 41q-8.735 5-17.868 1-9.132-4-13.632-13t-1-18q3.5-9 12.5-14l88-41q9-5 18-1t13.5 13q4.5 9 1 18T850-798ZM742-531q-9-5-12.5-14t.5-18q5-10 14.333-13.5Q753.667-580 763-575l87 41q9 5 13 14.153t-1 17.908q-4.611 8.755-13.875 12.847Q838.861-485 830-490l-88-41Zm122-117h-96q-10.4 0-17.2-6.8-6.8-6.8-6.8-17.2 0-10.4 6.8-17.2 6.8-6.8 17.2-6.8h96q10.4 0 17.2 6.8 6.8 6.8 6.8 17.2 0 10.4-6.8 17.2-6.8 6.8-17.2 6.8Z"/></svg>