<svg xmlns="http://www.w3.org/2000/svg" height="24" viewBox="0 -960 960 960" width="24"><path d="M217.39-88.346q-66.783 0-106.805-52.435-40.022-52.435-23.326-116.218l73.13-277.653q-34.13-23.261-55.065-61.239Q84.39-633.87 84.39-680q0-71.087 50.391-121.479 50.391-50.391 121.479-50.391h313.782q59.696 0 90.61 50.153 30.913 50.152 4.13 103.153l-65.869 131.738q-13.826 26.783-39.109 42.739-25.283 15.957-55.631 15.957h-71.391l-11 41.131h5.217q21.522 1.13 35.849 16.304 14.326 15.174 14.326 36.696v74.348q0 22.087-15.457 37.544-15.457 15.457-37.544 15.457H374.13l-26.043 96.738q-12.131 44.652-48.088 73.109-35.956 28.457-82.609 28.457Zm674.872-726.915-90 41q-13.261 6.131-26.74.783-13.478-5.348-19.609-18.609-6.13-13.261-1.282-26.74 4.848-13.478 18.109-19.608l90-41q13.261-6.131 27.239-.783 13.978 5.348 20.109 18.609 6.13 13.261.782 26.739-5.347 13.479-18.608 19.609ZM773.74-520.565q-13.261-6.13-19.109-19.826-5.848-13.696.282-26.957 6.131-14.261 20.109-19.391 13.979-5.131 28.24 1l90 42q12.695 6.13 17.826 19.609 5.13 13.478-1 26.739-6.131 13.261-19.609 18.609-13.478 5.348-26.739-.783l-90-41Zm133.217-123.783h-100q-15.261 0-25.456-10.195-10.196-10.196-10.196-25.457 0-15.261 10.196-25.457 10.195-10.195 25.456-10.195h100q15.261 0 25.457 10.195Q942.61-695.261 942.61-680q0 15.261-10.196 25.457-10.196 10.195-25.457 10.195Z"/></svg>