<svg xmlns="http://www.w3.org/2000/svg" height="24" viewBox="0 -960 960 960" width="24"><path d="M200-64q-72 0-115.5-57T59-247l74-282q-35-25-55.5-64.5T57-680q0-74.662 53.169-127.831Q163.337-861 238-861h309q71 0 108 59.5t5 122.5l-55 110q-16 32-46.5 51T492-499h-64l-11 42q25 2 41.5 20t16.5 43v70q0 26-18.5 44.5T412-261h-47l-23 85q-13 49-52 80.5T200-64Zm0-126q7 0 12-4.5t7-10.5l79-294h-42l-76 284q-2 10 4 17.5t16 7.5Zm38-435h255l55-110H238q-22.688 0-38.844 16.221-16.156 16.222-16.156 39Q183-657 199.156-641q16.156 16 38.844 16Zm666-192-90 41q-15 7-30.196.925Q768.607-781.15 762-796q-7-15-1.526-30.196Q765.947-841.393 781-848l90-41q15-7 30.724-.925T924-869q7 15 .925 30.196Q918.85-823.607 904-817ZM782-511q-15-7-21.5-22t.5-29.826Q768-579 783.5-585t31.5 1l90 42q14 7 20 22t-1 30q-7 15-22 21t-30-1l-90-41Zm138-129H820q-17.333 0-28.667-11.267Q780-662.535 780-679.767 780-697 791.333-708.5 802.667-720 820-720h100q17.333 0 28.667 11.267Q960-697.465 960-680.233 960-663 948.667-651.5 937.333-640 920-640Zm-554-40Zm-89 181Z"/></svg>