<svg xmlns="http://www.w3.org/2000/svg" height="24" viewBox="0 -960 960 960" width="24"><path d="M100-480q-9.308 0-14.77-6.654-5.461-6.654-5-16.269 4.693-78.846 37.462-147.462Q150.461-719 204.077-770.039q53.615-51.038 124.461-80.5Q399.385-880 480-880t151.462 29.077q70.846 29.077 124.461 80.115 53.616 51.039 86.385 119.654 32.769 68.615 37.461 148.231.462 9.615-5 16.269Q869.308-480 860-480q-9.077 0-14.538-6.538-5.462-6.539-5.924-15.616-8.615-143.385-112.153-240.615Q623.846-840 480-840t-247.385 97.231q-103.538 97.23-112.153 240.615-.462 9.077-5.924 15.616Q109.077-480 100-480Zm160 0q-8.539 0-14.654-6t-4.885-14.077q7.846-94 76.347-156.962Q385.308-720 480-720q94.692 0 163.192 62.961 68.501 62.962 76.347 156.962 1.23 8.077-4.885 14.077T700-480q-8.308 0-14.269-5.423-5.962-5.423-7.193-14.269-7.384-75.847-63.923-128.077Q558.077-680 480-680q-77.308 0-134.231 52.231-56.923 52.23-64.307 128.077-1.231 8.846-7.193 14.269Q268.308-480 260-480Zm220 268.308L374.154-105.846q-5.615 5.615-13.769 6-8.154.385-14.539-6T339.461-120q0-7.769 6.385-14.154L460-248.308v-152.769q-27-8.154-43.885-29.308-16.884-21.153-16.884-48.846 0-34.308 23.23-57.538Q445.692-560 480-560t57.539 23.231q23.23 23.23 23.23 57.538 0 27.693-16.884 48.846Q527-409.231 500-401.077v152.769l114.154 114.154q5.615 5.615 6 13.769.385 8.154-6 14.539T600-99.461q-7.769 0-14.154-6.385L480-211.692Z"/></svg>