<svg xmlns="http://www.w3.org/2000/svg" height="20" viewBox="0 -960 960 960" width="20"><path d="M444.239-89.63q-74.913-6.044-139.967-38.902-65.055-32.859-113.25-85.174-48.196-52.316-75.794-120.729T87.63-479.761q0-154.348 103.131-264.978 103.13-110.631 253.478-124.392v83.001q-115.565 14-194.587 100.663-79.022 86.663-79.022 205.706 0 118.804 78.903 205.848 78.902 87.043 194.706 101.283v83Zm36-194.74-194.63-194.152 53.63-53.63 103.087 103.087v-244.326h75.587v244.326l103.326-103.087 53.631 53.391L480.239-284.37Zm36 194.74v-83q44.522-4.761 83.544-21.642 39.021-16.88 71.543-42.641l59.131 59.131q-44.957 37.673-98.631 60.652-53.674 22.978-115.587 27.5Zm155.087-631.457q-32.522-25.522-71.543-42.663-39.022-17.141-83.544-22.38v-83.001q61.674 4.522 115.968 27.5 54.293 22.979 99.25 60.653l-60.131 59.891Zm110.131 492.305-59.131-59.131q25.522-32.522 42.163-71.663T786.37-443h84q-4.761 61.674-28 115.348t-60.913 98.87ZM786.13-515q-5.239-44.283-21.76-82.924-16.522-38.641-42.044-72.163l59.652-59.891q37.674 44.956 60.533 99.13Q865.37-576.674 870.131-515H786.13Z"/></svg>