<svg xmlns="http://www.w3.org/2000/svg" height="24" viewBox="0 -960 960 960" width="24"><path d="M480-186q-63.2 0-118.4-24t-96.4-65.2Q224-316.4 200-371.6T176-490q0-63.2 24-118.4t65.2-96.4q41.2-41.2 96.4-65.2T480-794v-40.97q0-11.03 9.5-15.53T507-847l90.169 90.169Q602-752 602-745.818q0 6.182-5 10.818l-90 90q-8 8-17.5 3.5t-9.5-15.53V-698q-86 0-147 60.847-61 60.846-61 147.313Q272-437 296-392t66 73q12-22 37.442-37.511Q424.885-372.023 458-376q-2.538-17-6.769-34T442-441q-8.8 7.105-19.2 11.053Q412.4-426 400.4-426q-26.4 0-45.4-18.8T336-490v-32q0-7-1-13.12-1-6.12-3-11.88-4-11 0-17.5t14-5.5q15 1 35.479 5.062 20.478 4.063 38.5 13Q438-543 451-528.5q13 14.5 13 38.575 0 7.472-1.5 13.699Q461-470 458-464q-10.302-8.125-20.604-14.625T416-490q14 11 31.46 32.363Q464.921-436.275 480-407q17-39 40.7-77 23.7-38 55.3-70-18 13-35 27t-33 31q-5-9-8.5-19.866T496-538q0-33 23.5-56.5t56.793-23.5H608q15 0 25.5-2.5T652-630q8.4-6 14.7-4 6.3 2 6.3 12 0 20-3 48t-13.189 54.058q-10.189 26.059-29 44Q609-458 576-458q-11.786 0-22.393-3.5Q543-465 534-470q-5.6 15.136-12.8 40.229Q514-404.678 510-376q30.126 5.62 53.117 20.873Q586.108-339.873 598-319q37.245-26.053 60.623-65.526Q682-424 687-472q1-8 6-13t13-5h60q8 0 13 5t4 13q-3 60-28 112t-66.003 90.673q-41.003 38.673-94.745 61Q540.51-186 480-186Z"/></svg>