<svg xmlns="http://www.w3.org/2000/svg" height="20" viewBox="0 -960 960 960" width="20"><path d="M480-92.109q-80.435 0-150.75-30.478t-122.772-82.935q-52.456-52.456-82.935-122.771-30.478-70.316-30.478-150.75 0-80.435 30.478-150.751 30.479-70.315 82.935-122.771 52.457-52.457 122.772-82.935T480-865.978v-41.739q0-15.913 15.294-22.75 15.293-6.837 27.728 5.597l101.935 101.935q7.956 7.957 7.956 18.033t-7.956 18.032L523.022-684.935q-12.435 12.435-27.728 5.598Q480-686.174 480-702.087v-41.739q-109.913 0-187.348 77.435-77.435 77.434-77.435 187.348 0 67.434 31.098 124.771t83.055 93.055q16.239-28.239 48.336-48.098 32.098-19.859 73.816-25.098-3-21.478-8.12-42.837-5.119-21.359-12.359-39.837-11 9.239-24.239 14.359-13.239 5.119-28.717 5.119-33.478 0-57.457-23.978-23.978-23.978-23.978-57.456v-40.718q0-11-2-20.88-2-9.881-6.761-19.881-4.239-10.195-.858-15.935 3.38-5.739 12.097-4.5 18 1.24 44.979 4.74 26.978 3.5 52.456 14.239t43.718 30.478q18.239 19.739 19.239 52.457 0 9.239-1.381 16.858-1.38 7.62-5.619 15.62-13.239-10.239-26.359-18.239-13.12-8-27.598-14.239 17.478 13.239 39.837 40.597Q460.761-411.087 480-373.37q20.478-49.956 50.957-98.173 30.478-48.218 71.195-88.935-23.239 16.239-44.717 34.478-21.478 18.239-41.718 38.717-7.239-11.239-11.239-24.858-4-13.62-4-28.098 0-42.718 29.479-72.196 29.478-29.478 72.195-29.478h40.718q18 0 29.641-2.761 11.641-2.761 23.402-10.522 13.152-8.478 21.391-6.217 8.24 2.261 8 16.696-1.239 25.717-5.478 61.195-4.239 35.479-16.978 67.718-12.739 32.239-36.359 54.858-23.619 22.62-64.337 22.62-15.478 0-29.098-4.12-13.619-4.119-24.858-11.358-7.239 19.239-16.359 51.456-9.12 32.218-14.12 68.935 38.718 7.239 68.196 26.478 29.478 19.239 44.957 45.718 46.239-32 76.597-82.12 30.359-50.119 36.077-110.359 1.239-10.434 8.695-17.891 7.457-7.456 17.892-7.456h71.456q10.435 0 17.891 7.456 7.457 7.457 6.218 17.891-4.478 75.957-36.315 142.055-31.837 66.098-83.555 114.576-51.717 48.478-120.174 76.717Q557.196-92.108 480-92.108Z"/></svg>