<svg xmlns="http://www.w3.org/2000/svg" height="20" viewBox="0 -960 960 960" width="20"><path d="M637.001-529.001v-204h141.998q41.005 0 69.503 28.499 28.499 28.498 28.499 69.503v105.998h-240Zm-456 302.002q-41.005 0-69.503-28.499-28.499-28.498-28.499-69.503v-309.998q0-41.005 28.499-69.503 28.498-28.499 69.503-28.499h357.998v506.002H181.001Zm130.165-192q25.486 0 43.16-17.841Q372-454.68 372-480.166t-17.724-43.161q-17.724-17.674-43.044-17.674-25.32 0-43.277 17.724-17.956 17.724-17.956 43.044 0 25.32 17.84 43.277t43.327 17.957Zm325.835 192v-204h240v105.998q0 41.005-28.499 69.503-28.498 28.499-69.503 28.499H637.001Z"/></svg>