<svg xmlns="http://www.w3.org/2000/svg" height="20" viewBox="0 -960 960 960" width="20"><path d="M311.293-327.615q-5.58 0-10.36-2.116-4.779-2.115-9.234-6.57l-84.545-84.545q-5.616-5.615-5.5-11.269.115-5.654 6.5-12.039 6.384-6.385 11.654-6.385 5.269 0 11.654 6.385l64.076 65.077v-157.538q0-79.744 55.874-135.565Q407.285-728 487.104-728q79.819 0 135.511 55.82 55.693 55.821 55.693 135.565V-200q0 6.8-4.547 11.4-4.548 4.6-11.27 4.6-6.722 0-11.453-4.6-4.73-4.6-4.73-11.4v-336.615q0-66.924-46.231-113.154Q553.846-696 486.923-696t-113.154 46.231q-46.23 46.23-46.23 113.154v157.538l65.076-65.077q5.616-5.615 11.27-5.5 5.653.115 12.038 6.5 6.385 6.385 6.385 11.654t-6.385 11.654l-84.416 83.2q-4.87 4.8-9.752 6.915-4.882 2.116-10.462 2.116Z"/></svg>