<svg xmlns="http://www.w3.org/2000/svg" height="24" viewBox="0 -960 960 960" width="24"><path d="M704.614-335.386H564.23q-5.093-15.528-11.277-30.686-6.184-15.159-13.261-29.312h104.924v-169.232H402.23q-22.076-18.461-46.922-33.46-24.845-15-51.614-26.538h400.92v289.228ZM480-480Zm379.999 299.999H589.23q0-15-1.019-30Q587.192-225 585.153-240H800v-480H160v54.847q-15-2.039-29.999-3.058-15-1.019-30-1.019v-110.769h759.998v599.998Zm-759.998 0v-98.46q40.769 0 69.615 28.845 28.845 28.846 28.845 69.615h-98.46Zm186.153 0q0-77.231-54.461-131.307-54.461-54.077-131.692-54.846v-59.999q102.769 0 174.46 71.648 71.692 71.647 71.692 174.504h-59.999Zm155.385 0q0-71.079-26.962-133.155-26.961-62.075-73.153-108.268-46.193-46.192-108.268-73.153-62.076-26.962-133.155-26.962v-59.998q83.308 0 156.254 31.458 72.946 31.458 127.656 86.168 54.71 54.71 86.168 127.656 31.458 72.946 31.458 156.254h-59.998Z"/></svg>