<svg xmlns="http://www.w3.org/2000/svg" height="20" viewBox="0 -960 960 960" width="20"><path d="M696.225-384Q656-384 628-411.775q-28-27.774-28-68Q600-520 627.775-548q27.774-28 68-28Q736-576 764-548.225q28 27.774 28 68Q792-440 764.225-412q-27.774 28-68 28ZM528-192v-53q0-11.077 4-20.538Q536-275 544-282q32-27 71-40.5t81-13.5q42 0 81 13.5t71 40.5q8 7 12 16.462 4 9.461 4 20.538v53H528ZM384-480q-60 0-102-42t-42-102q0-60 42-102t102-42q60 0 102 42t42 102q0 60-42 102t-102 42Zm0-144ZM96-192v-92q0-25.78 12.5-47.39T143-366q55-32 116.209-49T384-432q52 0 102.5 11.5T585-387q-23 7-43 19t-39 26q-29-8-59-13t-60-5q-54.225 0-106.112 14Q226-332 179-304q-5 3-8 8.276T168-284v20h288v72H96Zm288-72Zm.212-288Q414-552 435-573.212q21-21.213 21-51Q456-654 434.788-675q-21.213-21-51-21Q354-696 333-674.788q-21 21.213-21 51Q312-594 333.212-573q21.213 21 51 21Z"/></svg>