<svg xmlns="http://www.w3.org/2000/svg" height="24" viewBox="0 -960 960 960" width="24"><path d="M674-432q-30 0-52-22t-22-52q0-30 22-52t52-22q30 0 52 22t22 52q0 30-22 52t-52 22ZM500-232v-30q0-17 8.333-30.53Q516.667-306.06 532-312q33.133-14 68.566-21Q636-340 674-340q35.974 0 71.487 7T816-312q15.333 5.94 23.667 19.47Q848-279 848-262v30H500ZM380-512q-44.55 0-76.275-31.725Q272-575.45 272-620q0-44.55 31.725-76.275Q335.45-728 380-728q44.55 0 76.275 31.725Q488-664.55 488-620q0 44.55-31.725 76.275Q424.55-512 380-512Zm0-108ZM112-232v-52q0-23.538 13.5-43.269Q139-347 162-356q51-26 105.957-39Q322.913-408 380-408q21 0 42 1.5t42 4.5l-12 13-12 13q-15-2.5-30-3.25t-30-.75q-53 0-105 11t-99 37q-14 8-25 19.5T140-284v24h240v28H112Zm268-28Zm0-280q33 0 56.5-23.5T460-620q0-33-23.5-56.5T380-700q-33 0-56.5 23.5T300-620q0 33 23.5 56.5T380-540Z"/></svg>