<svg xmlns="http://www.w3.org/2000/svg" height="20" viewBox="0 -960 960 960" width="20"><path d="M185.477-185.477h-71q-20.387 0-34.694-14.246-14.306-14.246-14.306-34.544 0-20.298 14.306-34.754 14.307-14.457 34.694-14.457h71v-147.521h-71q-20.387 0-34.694-14.247-14.306-14.246-14.306-34.543 0-20.298 14.306-34.755 14.307-14.457 34.694-14.457h71v-147.521h-71q-20.387 0-34.694-14.246-14.306-14.246-14.306-34.544 0-20.298 14.306-34.755 14.307-14.456 34.694-14.456h71v-71q0-20.387 14.246-34.694 14.246-14.306 34.544-14.306 20.298 0 34.754 14.306 14.457 14.307 14.457 34.694v71h147.521v-71q0-20.387 14.247-34.694 14.246-14.306 34.543-14.306 20.298 0 34.755 14.306 14.457 14.307 14.457 34.694v71h147.521v-71q0-20.387 14.246-34.694 14.246-14.306 34.544-14.306 20.298 0 34.755 14.306 14.456 14.307 14.456 34.694v71h71q20.387 0 34.694 14.246 14.306 14.246 14.306 34.544 0 20.298-14.306 34.754-14.307 14.457-34.694 14.457h-71v147.521h71q20.387 0 34.694 14.247 14.306 14.246 14.306 34.543 0 20.298-14.306 34.755-14.307 14.457-34.694 14.457h-71v147.521h71q20.387 0 34.694 14.246 14.306 14.246 14.306 34.544 0 20.298-14.306 34.755-14.307 14.456-34.694 14.456h-71v71q0 20.387-14.246 34.694-14.246 14.306-34.544 14.306-20.298 0-34.754-14.306-14.457-14.307-14.457-34.694v-71H529.001v71q0 20.387-14.247 34.694-14.246 14.306-34.543 14.306-20.298 0-34.755-14.306-14.457-14.307-14.457-34.694v-71H283.478v71q0 20.387-14.246 34.694-14.246 14.306-34.544 14.306-20.298 0-34.755-14.306-14.456-14.307-14.456-34.694v-71Zm98.001-98.001h147.521v-147.521H283.478v147.521Zm245.523 0h147.521v-147.521H529.001v147.521ZM283.478-529.001h147.521v-147.521H283.478v147.521Zm245.523 0h147.521v-147.521H529.001v147.521Z"/></svg>