<svg xmlns="http://www.w3.org/2000/svg" height="24" viewBox="0 -960 960 960" width="24"><path d="M480-72.31v-59.999h280v-47.692H618.463v-283.075H760V-520q0-116-82-198t-198-82q-116 0-198 82t-82 198v56.924h141.537v283.075H140.001V-520.15q0-69.919 26.77-131.807 26.769-61.888 73.076-108.196 46.308-46.307 108.244-73.076 61.936-26.77 131.909-26.77 69.973 0 131.909 26.77 61.936 26.769 108.244 73.076 46.307 46.308 73.076 108.244 26.77 61.936 26.77 131.909v447.69H480ZM200-240h81.539v-163.077H200V-240Zm478.461 0H760v-163.077h-81.539V-240ZM200-403.077h81.539H200Zm478.461 0H760h-81.539Z"/></svg>