<svg xmlns="http://www.w3.org/2000/svg" height="20" viewBox="0 -960 960 960" width="20"><path d="M480-68.413v-78.457h261.13v-48H569.304v-299H741.13v-40.826q0-111.043-76.28-185.967-76.281-74.924-184.587-74.924-107.828 0-184.611 74.924-76.782 74.924-76.782 185.967v40.826h171.826v299H135.869v-339.826q0-71.29 27.144-134.392 27.144-63.102 74.251-109.676 47.107-46.574 109.626-73.199 62.519-26.624 133.152-26.624 70.632 0 133.567 26.478t109.63 73.054q46.696 46.576 73.794 109.677 27.098 63.101 27.098 134.682v466.283H480ZM218.87-277.87h88.826v-133H218.87v133Zm433.434 0h88.826v-133h-88.826v133Zm-433.434-133h88.826-88.826Zm433.434 0h88.826-88.826Z"/></svg>