<svg xmlns="http://www.w3.org/2000/svg" height="24" viewBox="0 -960 960 960" width="24"><path d="M480-31.521v-95.262h273.217v-40H584.173v-346.001h169.044v-23.043q0-113.739-79.739-193.195Q593.739-808.479 480-808.479q-112.609 0-192.913 79.457-80.304 79.456-80.304 193.195v23.043h169.044v346.001H100.782v-369.044q0-77.834 30.021-146.728 30.022-68.894 81.639-120.433 51.616-51.539 120.614-81.515 68.998-29.977 146.949-29.977 77.952 0 146.843 29.63 68.892 29.631 120.718 81.175 51.826 51.543 81.739 120.435 29.913 68.891 29.913 147.413v504.306H480ZM206.783-272.784h63.043v-133.999h-63.043v133.999Zm483.391 0h63.043v-133.999h-63.043v133.999ZM206.783-406.783h63.043-63.043Zm483.391 0h63.043-63.043Z"/></svg>