<svg xmlns="http://www.w3.org/2000/svg" height="20" viewBox="0 -960 960 960" width="20"><path d="M480-104.31v-51.999h264v-55.692H594.463v-251.075H744V-528q0-112-77.237-188-77.238-76-186.5-76Q371-792 293.5-716T216-528v64.924h149.537v251.075H164.001V-528.15q0-65.587 24.77-123.641 24.769-58.054 68.076-100.862 43.308-42.807 100.783-67.076 57.475-24.27 122.409-24.27t122.87 24.27q57.936 24.269 100.744 67.076 42.807 42.808 67.576 100.909 24.77 58.102 24.77 123.744v423.69H480ZM216-264h97.539v-147.077H216V-264Zm430.461 0H744v-147.077h-97.539V-264ZM216-411.077h97.539H216Zm430.461 0H744h-97.539Z"/></svg>