<svg xmlns="http://www.w3.org/2000/svg" height="20" viewBox="0 -960 960 960" width="20"><path d="M176-226q-49.7 0-83.85-34.15Q58-294.3 58-344v-52q0-24.3 17.29-41.65Q92.579-455 116.788-455 141-455 158.5-437.65T176-396v52h617v-52q0-24.3 17.289-41.65 17.29-17.35 41.5-17.35Q876-455 893.5-437.65T911-396v52q0 49.7-34.15 83.85Q842.7-226 793-226H176Zm108.263-138q-42.789 0-72.526-28.195Q182-420.389 182-461q0-43 31.5-69t84.5-26q18 0 38.5 4.5T366-542v-17q0-15-16-28.5T315-601q-10 0-20.638 3-10.639 3-17.936 8Q260-581 245-583t-23.5-13q-9.5-11-6-27.5t23.393-27.942q13.76-7.814 38.434-13.686Q302-671 325-671q52 0 85 32.261 33 32.262 33 84.911V-404q0 16-12 27.5T401.96-365Q387-365 376-374.5T365-397v-4h-3q-14 19-33.5 28t-44.237 9ZM319-499q-26 0-40.5 9.5T264-465q0 17 11.167 26 11.166 9 29.833 9 27 0 43.5-17.206t16.5-43.076Q355-495 345-497t-26-2Zm342.397 134Q636-365 611.5-377.5T573-410h-3v4q0 15-10.568 26t-25.957 11q-15.39 0-26.433-11Q496-391 496-406.449v-326.148Q496-749 507.5-760t27.614-11q16.113 0 27 10.919Q573-749.161 573-733v80.897L570-613h3q14-21 39.083-33t51.189-12Q714-658 747.5-615.5 781-573 781-512t-34.573 104q-34.572 43-85.03 43ZM634-583q-26 0-45 20.659t-19 51.023Q570-481 588.5-460.5 607-440 634-440t45-21q18-21 18-51t-18.5-50.5Q660-583 634-583Z"/></svg>