<svg xmlns="http://www.w3.org/2000/svg" height="20" viewBox="0 -960 960 960" width="20"><path d="M685-216v-84h-84v-56h84v-84h56v84h84v56h-84v84h-56Zm-394.221 20Q275-196 261.5-203.5T241-224l-72-126q-7-13-7-28t7-28l190.914-329.983q7.787-13.009 21.066-20.513Q394.259-764 409.036-764h144.188q14.776 0 28.307 7.5Q595.062-749 603-736l140 243q-8.097-.75-15.694-1.375Q719.71-495 712-495q-10 0-17.5 1t-16.5 3L552.847-708H409L217-378l73.2 126H564q8 16 19.337 30.14Q594.673-207.719 609-196H290.779ZM338-331l-21-38 137.118-238H509l89 157q-11 10-20.5 22.5T561-401l-80-141-89 156 163-1q-5.426 13-7.836 27.1-2.41 14.1-2.41 28.9H338Z"/></svg>