<svg xmlns="http://www.w3.org/2000/svg" height="20" viewBox="0 -960 960 960" width="20"><path d="M480.349-490.769q23.497 0 39.882-16.733 16.384-16.734 16.384-40.231 0-23.498-16.733-39.882Q503.149-604 479.651-604q-23.497 0-39.882 16.733-16.384 16.733-16.384 40.231t16.733 39.882q16.733 16.385 40.231 16.385ZM480-824q12.077 0 22 .461 9.923.462 19.231 1.888V-784q0 39.092 27.838 66.931 27.839 27.838 66.931 27.838h25.231V-664q0 39.092 27.838 66.931 27.839 27.838 66.931 27.838h18.41q.206 6.83.821 12.319.615 5.489.615 11.758 0 55.966-27.005 112.89-27.005 56.925-65.461 108.056-38.457 51.131-80.88 93.703-42.423 42.573-71.654 68.89-7.647 5.923-14.88 8.884-7.233 2.962-15.966 2.962-8.385 0-15.269-2.577-6.885-2.577-14.808-8.5-17.692-14.231-58.039-52.385-40.346-38.154-82.654-90.231-42.307-52.077-73.692-114.807Q204.154-481 204.154-545.154q0-110.923 75.154-194.885Q354.461-824 480-824Zm240 56H616q-6.8 0-11.4-4.547-4.6-4.547-4.6-11.27 0-6.722 4.6-11.452Q609.2-800 616-800h104v-104q0-6.8 4.547-11.4 4.547-4.6 11.27-4.6 6.722 0 11.452 4.6Q752-910.8 752-904v104h104q6.8 0 11.4 4.547 4.6 4.547 4.6 11.269t-4.6 11.453Q862.8-768 856-768H752v104q0 6.8-4.547 11.4-4.547 4.6-11.269 4.6t-11.453-4.6Q720-657.2 720-664v-104Z"/></svg>