<svg xmlns="http://www.w3.org/2000/svg" height="24" viewBox="0 -960 960 960" width="24"><path d="M480-470q38 0 64-26t26-64q0-38-26-64t-64-26q-38 0-64 26t-26 64q0 38 26 64t64 26Zm0-444q20 0 39 2t38 6v121q0 39.6 28.2 67.8Q613.4-689 653-689h24v25q0 40 28.2 67.5T773-569h61v13q0 58-21 116t-59 115q-38 57-91 112.5T547-103q-13.955 12-31.716 18-17.762 6-35.523 6Q462-79 444.41-85q-17.589-6-31.41-18-71-63-125-121t-90-113.5Q162-393 144-447t-18-109q0-163.719 106.753-260.86Q339.506-914 480-914Zm237 185h-64q-23 0-39.5-16.5T597-785q0-23 15.812-39 15.813-16 39.188-16h65v-65q0-23.375 16.5-39.188Q750-960 773-960t39 15.812q16 15.813 16 39.188v65h65q23.375 0 39.188 15.812Q948-808.375 948-785q0 23-15.812 39.5Q916.375-729 893-729h-65v64q0 23-15.812 39.5Q796.375-609 773-609q-23 0-39.5-15.812Q717-640.625 717-664v-65Z"/></svg>