<svg xmlns="http://www.w3.org/2000/svg" height="20" viewBox="0 -960 960 960" width="20"><path d="M480-824q8.154 0 16.308.5t16.307.769v32.423q-7.153-.461-15.5-1.461-8.346-1-17.115-1-106.846 0-175.346 70.923t-68.5 176.692q0 74.077 67.038 174.077 67.039 100 176.808 193.154 108.231-91.616 174.885-189.693 66.653-98.076 68.961-172.153v-10.423q0-5.212-1-10.423h32q1 5.461 1 10.589v10.257q-1.538 55.196-28.928 111.351-27.39 56.156-65.462 106.518-38.071 50.362-79.725 92.165-41.654 41.803-70.885 68.12-7.647 5.923-14.88 8.884-7.233 2.962-15.966 2.962-8.385 0-15.269-2.577-6.885-2.577-14.808-8.5-17.692-14.231-58.039-52.385-40.346-38.154-82.654-90.231-42.307-52.077-73.692-114.807Q204.154-481 204.154-545.154q0-110.923 75.154-194.885Q354.461-824 480-824Zm.349 333.231q23.497 0 39.882-16.733 16.384-16.734 16.384-40.231 0-23.498-16.733-39.882Q503.149-604 479.651-604q-23.497 0-39.882 16.733-16.384 16.733-16.384 40.231t16.733 39.882q16.733 16.385 40.231 16.385ZM480-547.385ZM720-768v104q0 6.8 4.547 11.4 4.547 4.6 11.27 4.6 6.722 0 11.452-4.6Q752-657.2 752-664v-104h104q6.8 0 11.4-4.547 4.6-4.547 4.6-11.27 0-6.722-4.6-11.452Q862.8-800 856-800H752v-104q0-6.8-4.547-11.4-4.547-4.6-11.269-4.6t-11.453 4.6Q720-910.8 720-904v104H616q-6.8 0-11.4 4.547-4.6 4.547-4.6 11.269t4.6 11.453Q609.2-768 616-768h104Z"/></svg>