<svg xmlns="http://www.w3.org/2000/svg" height="24" viewBox="0 -960 960 960" width="24"><path d="M480-12.868 352.087-140.782H100.782v-758.436h758.436v758.436H607.913L480-12.868Zm-.565-305.436q87.13 0 144.413-60.566Q681.13-439.435 681.13-520v-201.696H479.435q-81.565 0-141.631 57.283Q277.739-607.13 277.739-520q0 29.435 8.5 56.717Q294.739-436 309.174-413l-46.261 43.435L322-311.043l42.696-41.696q24.739 16.435 54.021 25.435 29.283 9 60.718 9ZM371.13-473.826l131.435-132 59.261 59.391L426.957-414l-55.827-59.826Z"/></svg>