<svg xmlns="http://www.w3.org/2000/svg" height="20" viewBox="0 -960 960 960" width="20"><path d="M483.624-307.478q73.201 0 124.441-51.308 51.24-51.308 51.24-124.605v-175.914H483.391q-73.297 0-124.605 51.237-51.308 51.237-51.308 124.433 0 25.374 7.283 49.787 7.282 24.413 21.413 44.978l-17.131 16.593q-12.13 12.538-12.13 26.821 0 14.282 12.13 26.413 12.131 12.13 26.413 12.13 14.283 0 26.821-12.13l16.593-17.131q20.565 14.131 44.848 21.413 24.283 7.283 49.906 7.283Zm-.233-75.392q-10.423 0-19.847-2.447-9.424-2.447-18.848-6.118l67.956-67.391q11.566-12.131 11.848-26.913.283-14.783-11.848-26.913-12.13-12.131-26.913-11.848-14.782.282-26.913 11.848l-67.391 67.956q-3.671-9.424-6.118-18.848-2.447-9.424-2.447-19.847 0-42.22 29.151-71.371 29.151-29.151 71.37-29.151h100.522v100.522q0 42.219-29.151 71.37-29.151 29.151-71.371 29.151ZM480-18.042 335.469-130.14l-182.273-22.164-22.056-183.165L18.042-480l113.135-145.022 21.998-181.803 181.803-21.998L480-941.958 624.531-828.86l181.948 21.381 22.381 182.948L941.958-480 829.86-335.469l-22.164 182.273-183.165 22.056L480-18.042Zm0-123.784 106.064-82.401 132.816-16.876 16.859-133.027L818.174-480l-82.129-106.005-17.026-133.005-133.209-17.001L480-818.174l-106.064 82.401-132.816 16.876-16.859 133.027L141.826-480l82.401 106.064 16.876 132.816 133.027 16.859L480-141.826ZM480-480Zm0 0Z"/></svg>