<svg xmlns="http://www.w3.org/2000/svg" height="24" viewBox="0 -960 960 960" width="24"><path d="m369-450.565 52.913 72.217q8.261 10.827 21.37 10.827 13.108 0 21.369-10.827L517-450.565l51.913 72.217q8.261 10.827 21.587 10.827t21.587-10.827l90.565-124.13q11.696-16.261 8.914-35.37-2.783-19.109-19.044-30.804-16.261-11.696-35.37-8.914-19.109 2.783-30.804 19.044L590-509.435l-51.913-72.217q-8.261-10.827-21.587-10.544-13.326.283-21.587 11.109L443-509.435l-52.348-72.217q-8.261-10.827-21.369-10.827-13.109 0-21.37 10.827l-90.565 124.13q-11.696 16.261-8.914 35.37 2.783 19.109 19.044 30.804 16.261 11.696 35.37 8.914 19.109-2.783 30.804-19.044L369-450.565ZM480-60.782q-87.522 0-163.913-32.913-76.392-32.913-132.936-89.456-56.543-56.544-89.456-132.936Q60.782-392.478 60.782-480t32.913-163.913q32.913-76.392 89.456-132.936 56.544-56.543 132.936-89.456Q392.478-899.218 480-899.218t163.913 32.913q76.392 32.913 132.936 89.456 56.543 56.544 89.456 132.936Q899.218-567.522 899.218-480t-32.913 163.913q-32.913 76.392-89.456 132.936-56.544 56.543-132.936 89.456Q567.522-60.782 480-60.782Z"/></svg>