<svg xmlns="http://www.w3.org/2000/svg" height="20" viewBox="0 -960 960 960" width="20"><path d="m373-501.846 60.077 81.615q4.668 6.462 11.423 6.462t11.423-6.462L516-501.846l59.077 81.615q4.503 6.462 11.423 6.462t11.327-6.826l73.019-97.943q3.616-5.556 2.33-11.904-1.285-6.349-6.484-10.404-5.077-4.385-11.115-3.039-6.039 1.346-10.423 6.423L587-458.154l-60.077-81.615q-4.503-6.462-11.423-6.077-6.92.384-11.423 6.846L444-458.154l-59.077-81.615q-4.668-6.462-11.423-6.462t-11.327 6.826l-73.019 97.943q-3.616 5.556-2.654 11.74.961 6.184 6.038 10.568 5.077 4.385 11.665 3.099 6.588-1.285 10.643-6.483L373-501.846ZM480.409-136q-70.948 0-133.685-26.839-62.737-26.84-109.865-73.922-47.127-47.082-73.993-109.716Q136-409.111 136-480.325q0-71.214 26.839-133.451 26.84-62.237 73.922-109.365 47.082-47.127 109.716-73.993Q409.111-824 480.325-824q71.214 0 133.451 26.839 62.237 26.84 109.365 73.922 47.127 47.082 73.993 109.482Q824-551.357 824-480.409q0 70.948-26.839 133.685-26.84 62.737-73.922 109.865-47.082 47.127-109.482 73.993Q551.357-136 480.409-136ZM480-168q130 0 221-91t91-221q0-130-91-221t-221-91q-130 0-221 91t-91 221q0 130 91 221t221 91Zm0-312Z"/></svg>