<svg xmlns="http://www.w3.org/2000/svg" height="20" viewBox="0 -960 960 960" width="20"><path d="M255.176-144Q209-144 176.5-176.308 144-208.615 144-254.769V-624h72v369q0 16.575 11.212 27.788Q238.425-216 255-216q16.575 0 27.788-11.212Q294-238.425 294-255v-450q0-46.25 32.324-78.625Q358.647-816 404.824-816 451-816 483.5-783.625T516-705v450q0 16.575 11.213 27.788Q538.425-216 555-216t27.787-11.212Q594-238.425 594-255v-450q0-46.25 32.323-78.625Q658.647-816 704.824-816 751-816 783.5-783.692q32.5 32.307 32.5 78.461V-336h-73v-369q0-16.575-11.213-27.787Q720.575-744 704-744t-27.787 11.213Q665-721.575 665-705v450q0 46.25-32.323 78.625Q600.353-144 554.176-144 508-144 476-176.375T444-255v-450q0-16.575-11.212-27.787Q421.575-744 405-744q-16.575 0-27.788 11.213Q366-721.575 366-705v450q0 46.25-32.324 78.625Q301.353-144 255.176-144Z"/></svg>