<svg xmlns="http://www.w3.org/2000/svg" height="24" viewBox="0 -960 960 960" width="24"><path d="M260.211-106.999q-63.298 0-108.255-44.863-44.957-44.862-44.957-108.326 0-63.464 44.957-108.139Q196.913-413.001 260-413.001h46.999v-133.998H260q-63.087 0-108.044-44.863-44.957-44.862-44.957-108.326 0-63.464 44.863-108.139 44.862-44.674 108.326-44.674 63.464 0 108.139 44.808Q413.001-763.386 413.001-700v46.999h133.998V-700q0-63.386 44.863-108.193 44.862-44.808 108.326-44.808 63.464 0 108.139 44.746 44.674 44.745 44.674 108.044 0 63.298-44.808 108.255Q763.386-546.999 700-546.999h-46.999v133.998H700q63.386 0 108.193 44.746 44.808 44.745 44.808 108.044 0 63.298-44.746 108.255-44.745 44.957-108.044 44.957-63.298 0-108.255-44.957Q546.999-196.913 546.999-260v-46.999H413.001V-260q0 63.087-44.746 108.044-44.745 44.957-108.044 44.957Zm.022-106.002q19.68 0 33.223-13.708T306.999-260v-46.999H260q-19.583 0-33.291 13.659-13.708 13.66-13.708 33.174t13.776 33.339q13.776 13.826 33.456 13.826Zm440 0q19.68 0 33.223-13.776t13.543-33.456q0-19.68-13.543-33.223t-33.223-13.543h-47.232v46.833q0 19.514 13.776 33.339 13.776 13.826 33.456 13.826Zm-287.232-200h133.998v-133.998H413.001v133.998ZM260-653.001h46.999v-47.232q0-19.68-13.659-33.223-13.66-13.543-33.174-13.543t-33.339 13.659q-13.826 13.66-13.826 33.174t13.708 33.339q13.708 13.826 33.291 13.826Zm393.001 0h47.232q19.68 0 33.223-13.776t13.543-33.456q0-19.68-13.659-33.223-13.66-13.543-33.174-13.543t-33.339 13.543q-13.826 13.543-13.826 33.223v47.232Z"/></svg>