<svg xmlns="http://www.w3.org/2000/svg" height="20" viewBox="0 -960 960 960" width="20"><path d="M255.001-212.001V-672H307v408h264v51.999H255.001Zm173.75-473.998q-32.444 0-55.021-22.825-22.577-22.824-22.577-55.269 0-32.444 22.825-55.021 22.824-22.577 55.269-22.577 32.444 0 55.021 22.825 22.577 22.824 22.577 55.269 0 32.444-22.825 55.021-22.825 22.577-55.269 22.577ZM629-154.001V-312H355v-271.384q0-31.434 21.225-52.717 21.226-21.283 52.577-21.283 31.35 0 52.773 23.423 21.423 23.423 21.423 55.577v190.385h178.001v233.998H629Z"/></svg>