<svg xmlns="http://www.w3.org/2000/svg" height="20" viewBox="0 -960 960 960" width="20"><path d="M234.5-184.587V-672h79.413v408h264v79.413H234.5ZM450.089-696q-36.306 0-61.882-25.802-25.577-25.801-25.577-62.033 0-36.33 25.802-61.954 25.801-25.624 62.033-25.624 36.426 0 61.883 25.842t25.457 62.13q0 36.289-25.705 61.865Q486.396-696 450.089-696Zm175.824 552v-168h-264v-271.696q0-36.954 25.618-62.629Q413.149-672 450.02-672q36.871 0 62.687 27.815 25.815 27.815 25.815 65.489v167.109H701.5V-144h-75.587Z"/></svg>