<svg xmlns="http://www.w3.org/2000/svg" height="24" viewBox="0 -960 960 960" width="24"><path d="M202-252q-12.75 0-21.375-8.625T172-282v-396q0-12.75 8.625-21.375T202-708h136q12.75 0 21.375 8.625T368-678v396q0 12.75-8.625 21.375T338-252H202Zm224 0q-12.75 0-21.375-8.625T396-282v-396q0-12.75 8.625-21.375T426-708h108q12.75 0 21.375 8.625T564-678v396q0 12.75-8.625 21.375T534-252H426Zm196 0q-12.75 0-21.375-8.625T592-282v-396q0-12.75 8.625-21.375T622-708h136q12.75 0 21.375 8.625T788-678v396q0 12.75-8.625 21.375T758-252H622Z"/></svg>