<svg xmlns="http://www.w3.org/2000/svg" height="24" viewBox="0 -960 960 960" width="24"><path d="M172-312v-336q0-25 17.5-42.5T232-708h496q25 0 42.5 17.5T788-648v336q0 25-17.5 42.5T728-252H232q-25 0-42.5-17.5T172-312Zm60 32h104q12 0 22-10t10-22v-336q0-12-10-22t-22-10H232q-12 0-22 10t-10 22v336q0 12 10 22t22 10Zm196 0h104q12 0 22-10t10-22v-336q0-12-10-22t-22-10H428q-12 0-22 10t-10 22v336q0 12 10 22t22 10Zm196 0h104q12 0 22-10t10-22v-336q0-12-10-22t-22-10H624q-12 0-22 10t-10 22v336q0 12 10 22t22 10Z"/></svg>