<svg xmlns="http://www.w3.org/2000/svg" height="20" viewBox="0 -960 960 960" width="20"><path d="M246.769-166.769q-33.333 0-56.667-23.333-23.333-23.334-23.333-56.667 0-28.231 18.615-50 18.616-21.769 45.385-29.616v-309.23q-26.769-7.847-45.385-29.116-18.615-21.269-18.615-48.5 0-34.333 23.333-57.167 23.334-22.833 56.667-22.833 28.231 0 49.5 18.115 21.269 18.116 29.116 45.885h310.23q7.616-28.769 29.556-46.385 21.941-17.615 48.06-17.615 34.333 0 57.167 22.833 22.833 22.834 22.833 57.167 0 26.119-17.615 48.06-17.616 21.94-46.385 29.556v310.23q27.769 7.847 45.885 29.116 18.115 21.269 18.115 49.5 0 33.333-22.833 56.667-22.834 23.333-57.167 23.333-27.231 0-49-18.615-21.769-18.616-29.616-45.385h-309.23q-7.847 26.769-29.116 45.385-21.269 18.615-49.5 18.615Zm0-498.462q20.4 0 34.2-13.8 13.8-13.8 13.8-34.2 0-20.4-13.8-34.2-13.8-13.8-34.2-13.8-20.4 0-34.2 13.8-13.8 13.8-13.8 34.2 0 20.4 13.8 34.2 13.8 13.8 34.2 13.8Zm466.462 0q20.4 0 34.2-13.8 13.8-13.8 13.8-34.2 0-20.4-13.8-34.2-13.8-13.8-34.2-13.8-20.4 0-34.2 13.8-13.8 13.8-13.8 34.2 0 20.4 13.8 34.2 13.8 13.8 34.2 13.8ZM325.385-262.769h310.23q6.498-23.416 22.865-40.054 16.366-16.639 38.751-23.562v-309.23q-22.385-6.154-39.54-22.583-17.156-16.429-23.076-39.033h-309.23q-6.498 22.604-22.865 38.648-16.366 16.045-39.751 22.968v310.23q23.166 6.54 39.621 22.995 16.455 16.455 22.995 39.621Zm387.846 64q20.4 0 34.2-13.8 13.8-13.8 13.8-34.2 0-20.4-13.8-34.2-13.8-13.8-34.2-13.8-20.4 0-34.2 13.8-13.8 13.8-13.8 34.2 0 20.4 13.8 34.2 13.8 13.8 34.2 13.8Zm-466.462 0q20.4 0 34.2-13.8 13.8-13.8 13.8-34.2 0-20.4-13.8-34.2-13.8-13.8-34.2-13.8-20.4 0-34.2 13.8-13.8 13.8-13.8 34.2 0 20.4 13.8 34.2 13.8 13.8 34.2 13.8Zm0-514.462Zm466.462 0Zm0 466.462Zm-466.462 0Z"/></svg>