<svg xmlns="http://www.w3.org/2000/svg" height="24" viewBox="0 -960 960 960" width="24"><path d="M200-59.651q-58.479 0-99.414-40.935T59.651-200q0-44.087 24.196-79.109 24.196-35.022 63.152-50.848v-300.086q-38.956-15.826-63.152-50.848Q59.65-715.913 59.65-760q0-58.479 40.935-99.414T200-900.349q44.087 0 79.109 24.196 35.022 24.196 50.848 63.152h300.086q15.391-38.956 50.413-63.152 35.022-24.196 79.544-24.196 58.479 0 99.414 40.935T900.349-760q0 44.522-24.196 79.544t-63.152 50.413v300.086q38.956 15.826 63.152 50.848 24.196 35.022 24.196 79.109 0 58.479-40.935 99.414T760-59.651q-44.087 0-79.109-24.196-35.022-24.196-50.848-63.152H329.957q-15.826 38.956-50.848 63.152Q244.087-59.65 200-59.65Zm129.957-193.35h300.086q10.695-26 30.826-46.13 20.13-20.131 46.13-30.826v-300.086q-26.565-10.695-46.413-30.543-19.848-19.848-30.543-46.413H329.957q-10.695 26-30.826 46.13-20.13 20.131-46.13 30.826v300.086q26 10.695 46.13 30.826 20.131 20.13 30.826 46.13Z"/></svg>