<svg xmlns="http://www.w3.org/2000/svg" height="20" viewBox="0 -960 960 960" width="20"><path d="M744-696.695q-52.261 0-88.957-36.696-36.695-36.696-36.695-88.957 0-52.261 36.695-88.956Q691.739-948 744-948q52.261 0 88.957 36.696 36.695 36.695 36.695 88.956t-36.695 88.957Q796.261-696.695 744-696.695ZM220.782-220.782l-60.273 60.273q-23.335 23.335-53.531 10.82-30.196-12.515-30.196-45.181v-590.347q0-40.305 28.498-69.153 28.498-28.848 69.503-28.848h383.043q-8.652 23.42-10.631 48.819-1.978 25.399 2.718 49.182 3.435 20.739 8.521 34.261 5.087 13.521 15.392 30.956H240v72h409.999q22.217 11.087 45.435 16.913 23.218 5.827 48.566 5.827 32.783 0 67.37-12.74 34.587-12.739 71.848-45.087v364.304q0 41.005-28.848 69.503-28.848 28.498-69.153 28.498H220.782ZM240-516h480v-72H240v72Zm0 132h336v-72H240v72Z"/></svg>