<svg xmlns="http://www.w3.org/2000/svg" height="24" viewBox="0 -960 960 960" width="24"><path d="M480-62.608q-20.522 0-39.827-7.978-19.304-7.979-35.261-22.935L93.522-404.912q-14.957-15.957-22.936-35.261-7.978-19.305-7.978-39.827t7.978-40.327q7.979-19.804 22.935-34.761l311.391-311.391q15.957-15.956 35.261-23.435 19.305-7.478 39.827-7.478t40.327 7.478q19.804 7.479 34.761 23.435l311.391 311.391q15.956 14.957 23.435 34.761 7.478 19.805 7.478 40.327t-7.478 39.827q-7.479 19.304-23.435 35.261L555.088-93.522q-14.957 14.957-34.761 22.936-19.805 7.978-40.327 7.978Z"/></svg>