<svg xmlns="http://www.w3.org/2000/svg" height="24" viewBox="0 -960 960 960" width="24"><path d="M672.308-835q49.846.769 84.923 35.461 35.077 34.693 35.077 84.539 0 9.462-1.115 26.423-1.116 16.962-4.116 40.192l-55.769 403Q728.616-222 710.654-208q-17.962 14-41.346 14-16.077 0-28.27-8.846-12.192-8.846-21.346-21.461L501.154-385.692q-4.308-5.539-9.577-8.962T479-398.077q-7.077 0-22.154 14.385L341.308-227.307q-10.154 13.076-23.346 23.192Q304.769-194 288.692-194q-23.384 0-40.846-14.5-17.462-14.5-20.154-37.885l-54.769-402q-3-23.23-4.116-40.192-1.115-16.961-1.115-26.423 0-49.846 35.077-84.923Q237.846-835 287.692-835q29.077 0 49.808 9.5 20.731 9.5 40.731 20.5t43.654 20.5Q445.538-775 480-775q35.231 0 59.269-9.5 24.039-9.5 44.039-20.5t40.461-20.5q20.462-9.5 48.539-9.5Z"/></svg>