<svg xmlns="http://www.w3.org/2000/svg" height="20" viewBox="0 -960 960 960" width="20"><path d="M401.232-275.31q-19.077 12.846-38.961 1.808-19.885-11.039-19.885-33.731v-208.843L135.08-723.382q-10.692-10.692-10.692-23.076 0-12.385 10.692-23.077 9.693-9.692 22.577-9.692 12.884 0 23.576 10.692L770.15-179.618q10.692 10.692 10.692 23.269 0 12.576-10.307 22.884-9.308 9.692-22.577 9.692-13.268 0-23.576-10.307L512.23-346.232 401.232-275.31Zm239.305-152.152L342.386-725.613v.769l332.073 210.921q18.077 12.231 18.077 32.423t-18.077 32.038l-33.922 22Z"/></svg>