<svg xmlns="http://www.w3.org/2000/svg" height="20" viewBox="0 -960 960 960" width="20"><path d="M387.239-233.674q-23.869 15.674-48.62 2.239-24.75-13.434-24.75-41.782V-525.87L81.979-757.761Q68.26-771.478 68.26-789.076t13.717-31.315q12.718-12.718 30.815-12.718 18.098 0 31.816 13.718l676.782 676.782q13.718 13.718 13.718 31.435 0 17.718-13.479 31.196-12.478 12.717-30.815 12.598Q772.478-67.5 759-80.978L520.87-318.87l-133.631 85.195Zm285.848-181.261L313.869-774.152v-1.435l400.022 254.043q22.392 14.674 22.511 40.164.12 25.489-22.271 39.924l-41.044 26.521Z"/></svg>