<svg xmlns="http://www.w3.org/2000/svg" height="20" viewBox="0 -960 960 960" width="20"><path d="M173.993-288q-20.298 0-34.755-14.307-14.456-14.306-14.456-34.694v-285.998q0-20.388 14.306-34.694Q153.395-672 173.782-672h208.087q20.387 0 34.694 14.246 14.307 14.246 14.307 34.544 0 20.298-14.307 34.755-14.307 14.456-34.694 14.456H222.783v76.217h113.912q19.257 0 32.716 13.398t13.459 32.566q0 19.167-13.459 32.776-13.459 13.609-32.716 13.609H222.783v68.17q0 20.35-14.246 34.806Q194.291-288 173.993-288Zm390.783 0q-20.298 0-34.755-14.307-14.456-14.306-14.456-34.694v-285.998q0-20.388 14.306-34.694Q544.178-672 564.565-672h214.74q23.191 0 39.552 16.361t16.361 39.552v147.957q0 18.252-13.717 30.583-13.717 12.33-33.152 13.46h-37l45.305 63.605q15.173 22.786 1.781 47.634Q785.044-288 757.13-288q-12.874 0-24.024-6.196-11.15-6.195-17.846-17.022l-67.347-105.52h-34.347v79.475q0 20.35-14.246 34.806Q585.074-288 564.776-288Zm48.79-209.782h127.043v-76.217H613.566v76.217Z"/></svg>