<svg xmlns="http://www.w3.org/2000/svg" height="20" viewBox="0 -960 960 960" width="20"><path d="M169.211-288Q145-288 127.5-305.35T110-347v-266q0-24.3 17.35-41.65Q144.7-672 169-672h202q24.3 0 41.65 17.289 17.35 17.29 17.35 41.5Q430-589 412.65-571.5T371-554H228v61h100q22.3 0 38.15 15.789 15.85 15.79 15.85 38Q382-417 366.15-401T328-385H228v37.737Q228-323 210.711-305.5q-17.29 17.5-41.5 17.5Zm396 0Q541-288 523.5-305.35T506-347v-266q0-24.3 17.35-41.65Q540.7-672 565-672h223q25.8 0 43.9 18.1Q850-635.8 850-610v151q0 16.948-13.5 27.974T804-418h-37l37.914 41.432Q824-349 808-318.5 792-288 758-288q-15.483 0-29.241-7.5Q715-303 707-316l-63-89h-20v57.737Q624-323 606.711-305.5q-17.29 17.5-41.5 17.5ZM624-493h114v-61H624v61Z"/></svg>