<svg xmlns="http://www.w3.org/2000/svg" height="24" viewBox="0 -960 960 960" width="24"><path d="M280-420h240q8.539 0 14.269-5.731Q540-431.461 540-440t-5.731-14.269Q528.539-460 520-460H280q-8.539 0-14.269 5.731Q260-448.539 260-440t5.731 14.269Q271.461-420 280-420Zm0-120h400q8.539 0 14.269-5.731Q700-551.461 700-560t-5.731-14.269Q688.539-580 680-580H280q-8.539 0-14.269 5.731Q260-568.539 260-560t5.731 14.269Q271.461-540 280-540Zm0-120h400q8.539 0 14.269-5.731Q700-671.461 700-680t-5.731-14.269Q688.539-700 680-700H280q-8.539 0-14.269 5.731Q260-688.539 260-680t5.731 14.269Q271.461-660 280-660Zm-36.923 380-68.154 68.154q-15.154 15.154-35.039 6.962Q120-213.077 120-234.692v-540.693Q120-803 138.5-821.5 157-840 184.615-840h590.77Q803-840 821.5-821.5 840-803 840-775.385v430.77Q840-317 821.5-298.5 803-280 775.385-280H243.077ZM226-320h549.385q9.23 0 16.923-7.692Q800-335.385 800-344.615v-430.77q0-9.23-7.692-16.923Q784.615-800 775.385-800h-590.77q-9.23 0-16.923 7.692Q160-784.615 160-775.385v521.154L226-320Zm-66 0v-480 480Z"/></svg>