<svg xmlns="http://www.w3.org/2000/svg" height="20" viewBox="0 -960 960 960" width="20"><path d="M276-384h264q15.3 0 25.65-10.289 10.35-10.29 10.35-25.5Q576-435 565.65-445.5 555.3-456 540-456H276q-15.3 0-25.65 10.289-10.35 10.29-10.35 25.5Q240-405 250.35-394.5 260.7-384 276-384Zm0-132h408q15.3 0 25.65-10.289 10.35-10.29 10.35-25.5Q720-567 709.65-577.5 699.3-588 684-588H276q-15.3 0-25.65 10.289-10.35 10.29-10.35 25.5Q240-537 250.35-526.5 260.7-516 276-516Zm0-132h408q15.3 0 25.65-10.289 10.35-10.29 10.35-25.5Q720-699 709.65-709.5 699.3-720 684-720H276q-15.3 0-25.65 10.289-10.35 10.29-10.35 25.5Q240-669 250.35-658.5 260.7-648 276-648Zm-70 442-42.883 42.883Q135-135 98.5-150.094 62-165.188 62-204v-576q0-49.7 34.15-83.85Q130.3-898 180-898h600q49.7 0 83.85 34.15Q898-829.7 898-780v456q0 49.7-34.15 83.85Q829.7-206 780-206H206Zm-30-118h604v-456H180v453l-4 3Zm4 0v-456 456Z"/></svg>