<svg xmlns="http://www.w3.org/2000/svg" height="20" viewBox="0 -960 960 960" width="20"><path d="M108.389-160.911v-668.09h624.612v255.827q-2.827-3.696-6.218-3.761Q723.391-577 720-577q-21.391 2-43.283 5.065-21.891 3.065-41.718 10.761v-169.825H206.391v333.998h281.435q-3.696 12.827-5.761 25.218Q480-359.391 480-346q0 11.391.565 23.783.565 12.391 4.261 23.218H246.477L108.389-160.911ZM259.172-589.26h323.611v-88.958H259.172v88.958Zm0 139.478h227.611v-88.958H259.172v88.958Zm411.827 270.783v-108h-108v-98.002h108v-108h98.002v108h108v98.002h-108v108h-98.002ZM206.391-397.001v-333.998 333.998Z"/></svg>