<svg xmlns="http://www.w3.org/2000/svg" height="24" viewBox="0 -960 960 960" width="24"><path d="M104.934-146.848V-845.5H765.5v289.696q-11.196-2.718-22.63-3.457Q731.435-560 720-560t-22.87.739q-11.434.739-22.63 3.457V-754.5H195.935v389h288.261q-2.718 11.196-3.457 22.63Q480-331.435 480-320t.739 22.87q.739 11.434 3.457 22.63H232.587L104.934-146.848Zm162.87-448.608H602.87v-87.174H267.804v87.174Zm0 158.086H482.87v-87.174H267.804v87.174ZM674.5-154.5v-120h-120v-91h120v-120h91v120h120v91h-120v120h-91Zm-478.565-211v-389 389Z"/></svg>