<svg xmlns="http://www.w3.org/2000/svg" height="20" viewBox="0 -960 960 960" width="20"><path d="M154.001-216.233v-589.766h555.998v228.845q2.5-1.231 5.001-.538 2.5.692 5 .692-15.5 2-31.5 4.308-15.999 2.307-30.499 7.538v-188.847H205.999v380.002h277.847q-1.231 7.5-2.538 13.999Q480-353.5 480-346q0 5.5-.192 12-.193 6.499 1.038 11.999H259.769L154.001-216.233Zm136.307-393.768h283.384v-51.998H290.308v51.998Zm0 144h187.384v-51.998H290.308v51.998Zm403.693 264v-108h-108v-51.998h108v-108h51.998v108h108v51.998h-108v108h-51.998ZM205.999-373.999v-380.002 380.002Z"/></svg>