<svg xmlns="http://www.w3.org/2000/svg" height="24" viewBox="0 -960 960 960" width="24"><path d="M130.001-184.233v-645.766h619.998v271.845q-7.5-1.231-14.999-1.538-7.5-.308-15-.308t-15 .308q-7.499.307-14.999 1.538v-211.847H189.999v420.002h291.847q-1.231 7.5-1.538 14.999-.308 7.5-.308 15t.308 15q.307 7.499 1.538 14.999H235.769L130.001-184.233Zm152.307-425.768h315.384v-59.998H282.308v59.998Zm0 160h195.384v-59.998H282.308v59.998Zm407.693 280v-120h-120v-59.998h120v-120h59.998v120h120v59.998h-120v120h-59.998ZM189.999-349.999v-420.002 420.002Z"/></svg>