<svg xmlns="http://www.w3.org/2000/svg" height="24" viewBox="0 -960 960 960" width="24"><path d="M471.521-591.521v267.564q0 18.696 12.913 31.327Q497.348-280 516.043-280q18.696 0 31.327-12.913Q560-305.826 560-324.522v-302.477q0-22.088-15.457-37.544Q529.087-680 506.999-680h-71.521q-18.696 0-31.326 12.63-12.631 12.631-12.631 31.327 0 18.695 12.913 31.609 12.914 12.913 31.609 12.913h35.478ZM206.783-100.782q-44.305 0-75.153-30.848-30.848-30.848-30.848-75.153v-546.434q0-44.305 30.848-75.153 30.848-30.848 75.153-30.848h546.434q44.305 0 75.153 30.848 30.848 30.848 30.848 75.153v546.434q0 44.305-30.848 75.153-30.848 30.848-75.153 30.848H206.783Z"/></svg>