<svg xmlns="http://www.w3.org/2000/svg" height="20" viewBox="0 -960 960 960" width="20"><path d="M471.521-591.521v263.564q0 16.996 11.703 28.477Q494.926-288 511.833-288q16.906 0 28.537-11.763Q552-311.526 552-328.522v-294.477q0-20.388-14.307-34.694Q523.387-672 502.999-672h-87.521q-16.996 0-28.476 11.42-11.481 11.42-11.481 28.326t11.763 28.82q11.764 11.913 28.759 11.913h55.478ZM222.783-124.782q-41.005 0-69.503-28.498-28.498-28.498-28.498-69.503v-514.434q0-41.005 28.498-69.503 28.498-28.498 69.503-28.498h514.434q41.005 0 69.503 28.498 28.498 28.498 28.498 69.503v514.434q0 41.005-28.498 69.503-28.498 28.498-69.503 28.498H222.783Z"/></svg>