<svg xmlns="http://www.w3.org/2000/svg" height="20" viewBox="0 -960 960 960" width="20"><path d="M183-158q-49.7 0-83.85-34.162Q65-226.324 65-276.04v-408.243Q65-734 99.15-768T183-802h594q49.7 0 83.85 34.162Q895-733.676 895-683.96v408.243Q895-226 860.85-192T777-158H183Zm0-118h594v-408H183v408Zm75-204 34 81q4 6 10.464 10.5t14.22 4.5h10.263Q338-384 346-391.875T354-411v-141q0-10-7-17t-17-7q-10 0-17 7t-7 17v72l-35-81q-3-7-9.875-11T246-576h-9q-10 0-18.5 8t-8.5 17.896v142.208Q210-398 217-391t17 7q10 0 17-7t7-17v-72Zm159 96h83.222q10.218 0 17.498-8 7.28-8 7.28-18t-7.28-17.5q-7.28-7.5-18.208-7.5H435v-21h65.512Q511-456 518-463t7-17q0-10-7-17t-17.488-7H435v-21h64.512q10.928 0 18.208-8 7.28-8 7.28-18t-8-17.5q-8-7.5-17.778-7.5H416q-13 0-21 8.6t-8 21.4v133q0 13 8.6 21t21.4 8Zm165 0h144q10.2 0 17.1-6.9 6.9-6.9 6.9-16.746V-548q0-11-8.5-19.5T722-576q-11 0-19.5 8.5T694-548v116h-17v-72q0-10-7-17t-17-7q-10 0-17 7t-7 17v72h-16v-117q0-11.32-7.778-19.16t-19-7.84Q575-576 566.5-568.16 558-560.32 558-549v141.266q0 9.934 6.9 16.834T582-384ZM183-276v-408 408Z"/></svg>