<svg xmlns="http://www.w3.org/2000/svg" height="24" viewBox="0 -960 960 960" width="24"><path d="M144.615-200Q117-200 98.5-218.5 80-237 80-264.615v-430.77Q80-723 98.5-741.5 117-760 144.615-760h670.77Q843-760 861.5-741.5 880-723 880-695.385v430.77Q880-237 861.5-218.5 843-200 815.385-200h-670.77Zm43.847-332.307L291.923-380q2.231 3.462 5.713 5.577 3.481 2.115 7.66 2.115h8.356q6.963 0 12.04-4.98 5.077-4.981 5.077-12.097v-181.769q0-7.277-4.607-11.908-4.606-4.63-11.846-4.63-7.239 0-11.931 4.63-4.693 4.631-4.693 11.908v143.461L197-580q-2.462-4.231-6.5-5.962-4.038-1.73-8.885-1.73h-8.507q-7.798 0-12.761 5.061-4.962 5.062-4.962 13.016v180.769q0 7.277 4.606 11.908 4.607 4.63 11.847 4.63 7.239 0 11.931-4.63 4.693-4.631 4.693-11.908v-143.461Zm219.999 159.999h102.693q7.277 0 11.908-4.606 4.63-4.607 4.63-11.847 0-7.239-4.63-11.931-4.631-4.693-11.908-4.693h-83.462v-56.307h83.462q7.277 0 11.908-4.607 4.63-4.607 4.63-11.846 0-7.24-4.63-11.932-4.631-4.692-11.908-4.692h-83.462v-59.846h83.462q7.277 0 11.908-4.607 4.63-4.607 4.63-11.846 0-7.24-4.63-11.932-4.631-4.692-11.908-4.692H408.461q-6.461 0-11.307 4.846t-4.846 11.307v183.078q0 6.461 4.846 11.307t11.307 4.846Zm208.462 0h160q12.385 0 20.039-7.653 7.653-7.654 7.653-20.039v-171.154q0-7.277-4.606-11.908-4.607-4.63-11.847-4.63-7.239 0-11.931 4.63-4.693 4.631-4.693 11.908v163.462h-57.846v-123.462q0-7.277-4.606-11.908-4.607-4.63-11.847-4.63-7.239 0-11.931 4.63-4.693 4.631-4.693 11.908v123.462h-58.307v-163.462q0-7.277-4.607-11.908-4.607-4.63-11.846-4.63-7.24 0-11.932 4.63-4.692 4.631-4.692 11.908V-400q0 12.385 7.654 20.039 7.653 7.653 20.038 7.653Z"/></svg>