<svg xmlns="http://www.w3.org/2000/svg" height="20" viewBox="0 -960 960 960" width="20"><path d="m357-528-38 114q-4 11 3.083 20.5 7.084 9.5 19.125 9.5 7.792 0 13.363-4.062Q360.143-392.125 362-399l49-145q5-12-3-22t-20-10h-96q-10.4 0-17.2 6.8-6.8 6.8-6.8 17.2 0 10.4 6.8 17.2 6.8 6.8 17.2 6.8h65Zm141 72 50.968 64q1.593 2.182 16.906 8Q579-384 585.5-395.5q6.5-11.5-1.5-22.761l-45-61.36L585-542q8-10.696 1.756-22.348T566.463-576q-5.463 0-9.963 2.182-4.5 2.182-7.5 5.818l-50.504 64v-48q0-10.4-6.87-17.2-6.871-6.8-17.378-6.8t-17.378 6.785Q450-562.43 450-552.054v143.677Q450-398 456.8-391q6.8 7 17.2 7 10.4 0 17.2-6.8 6.8-6.8 6.8-17.2v-48Zm155 0v24q0 9.6 7.2 16.8 7.2 7.2 16.8 7.2 9.6 0 16.8-7.2 7.2-7.2 7.2-16.8v-24h7q9.6 0 16.8-7.2 7.2-7.2 7.2-16.8 0-9.6-7.2-16.8-7.2-7.2-16.8-7.2h-7v-24q0-9.6-7.2-16.8-7.2-7.2-16.8-7.2-9.6 0-16.8 7.2-7.2 7.2-7.2 16.8v24h-24q-9.6 0-16.8 7.2-7.2 7.2-7.2 16.8 0 9.6 7.2 16.8 7.2 7.2 16.8 7.2h24ZM228-110q-49.7 0-83.85-34.15Q110-178.3 110-228v-504q0-49.7 34.15-83.85Q178.3-850 228-850h504q49.7 0 83.85 34.15Q850-781.7 850-732v504q0 49.7-34.15 83.85Q781.7-110 732-110H228Zm0-118h504v-504H228v504Zm0-504v504-504Z"/></svg>