<svg xmlns="http://www.w3.org/2000/svg" height="20" viewBox="0 -960 960 960" width="20"><path d="m374.154-540.308-48 132.462q-1.693 4.077.391 7.808 2.083 3.73 7.119 3.73 3.259 0 4.215-.985.956-.986 2.044-3.245l54.385-146.539q4.231-5.846-.203-11.231-4.434-5.384-10.49-5.384h-96q-5.066 0-8.379 3.302-3.313 3.303-3.313 8.354 0 5.051 3.313 8.39 3.313 3.338 8.379 3.338h86.539Zm99.385 67.385 74.615 74q1.641 1.413 8.82 2.615 8.565 0 11.103-7.5 2.538-7.5-2.385-13.115l-66.538-64.615 67.538-63.308q4.923-4.846 1.756-11.846t-10.292-7q-1.618 0-4.361.531-2.744.532-4.315 2.132l-75.941 72.414V-552q0-5.067-3.303-8.38-3.303-3.312-8.354-3.312-5.051 0-8.39 3.297-3.338 3.298-3.338 8.341v143.677q0 5.044 3.303 8.557 3.302 3.512 8.353 3.512 5.052 0 8.39-3.312 3.339-3.313 3.339-8.38v-64.923Zm183.692 12.308V-432q0 7.754 5.815 13.569 5.816 5.816 13.569 5.816 7.754 0 13.57-5.816Q696-424.246 696-432v-28.615h28.615q7.754 0 13.57-5.816Q744-472.246 744-480q0-7.754-5.815-13.569-5.816-5.816-13.57-5.816H696V-528q0-7.754-5.815-13.569-5.816-5.816-13.57-5.816-7.753 0-13.569 5.816-5.815 5.815-5.815 13.569v28.615h-28.616q-7.753 0-13.569 5.816-5.815 5.815-5.815 13.569 0 7.754 5.815 13.569 5.816 5.816 13.569 5.816h28.616ZM240.615-184q-24.315 0-40.465-16.15Q184-216.3 184-240.615v-478.77q0-24.315 16.15-40.465Q216.3-776 240.615-776h478.77q24.315 0 40.465 16.15Q776-743.7 776-719.385v478.77q0 24.315-16.15 40.465Q743.7-184 719.385-184h-478.77Z"/></svg>