<svg xmlns="http://www.w3.org/2000/svg" height="20" viewBox="0 -960 960 960" width="20"><path d="m382-544-51 138q-1 2-.417 4 .584 2 3.625 2 1.792 0 1.363-.062-.428-.063.429-.938l56-147q4-4 .5-8t-7.5-4h-96q-3.4 0-5.7 2.3-2.3 2.3-2.3 5.7 0 3.4 2.3 5.7 2.3 2.3 5.7 2.3h93Zm86 66 83 77q1.561 1.182 4.951 1 6.049 0 7.549-5t-2.5-9l-72-68 74-66q4-3 1.756-7.5-2.244-4.5-7.293-4.5-.463 0-1.838.182T553-559l-85 75v-68q0-3.4-2.3-5.7-2.3-2.3-5.7-2.3-3.4 0-5.7 2.285-2.3 2.285-2.3 5.661v143.677q0 3.377 2.3 5.877t5.7 2.5q3.4 0 5.7-2.3 2.3-2.3 2.3-5.7v-70Zm192 16v30q0 7.6 5.2 12.8 5.2 5.2 12.8 5.2 7.6 0 12.8-5.2 5.2-5.2 5.2-12.8v-30h30q7.6 0 12.8-5.2 5.2-5.2 5.2-12.8 0-7.6-5.2-12.8-5.2-5.2-12.8-5.2h-30v-30q0-7.6-5.2-12.8-5.2-5.2-12.8-5.2-7.6 0-12.8 5.2-5.2 5.2-5.2 12.8v30h-30q-7.6 0-12.8 5.2-5.2 5.2-5.2 12.8 0 7.6 5.2 12.8 5.2 5.2 12.8 5.2h30ZM248-196q-22.7 0-37.35-14.65Q196-225.3 196-248v-464q0-22.7 14.65-37.35Q225.3-764 248-764h464q22.7 0 37.35 14.65Q764-734.7 764-712v464q0 22.7-14.65 37.35Q734.7-196 712-196H248Zm0-20h464q12 0 22-10t10-22v-464q0-12-10-22t-22-10H248q-12 0-22 10t-10 22v464q0 12 10 22t22 10Zm-32-528v528-528Z"/></svg>