<svg xmlns="http://www.w3.org/2000/svg" height="24" viewBox="0 -960 960 960" width="24"><path d="M483.957-300q75 0 127.5-52.5t52.5-127.5q0-75-52.5-127.5t-127.5-52.5q-75 0-127.5 52.5t-52.5 127.5q0 75 52.5 127.5t127.5 52.5Zm0-140q-17 0-28.5-11.5t-11.5-28.5q0-17 11.5-28.5t28.5-11.5q17 0 28.5 11.5t11.5 28.5q0 17-11.5 28.5t-28.5 11.5Zm-1.131 379.218q-86.753 0-163.054-33.011t-132.743-89.602q-56.442-56.591-89.366-133.094-32.925-76.503-32.925-163.485 0-86.983 32.913-163.374 32.914-76.392 89.74-133.218 56.826-56.826 133.25-89.739 76.423-32.913 163.316-32.913 127.913 0 232.848 70.587Q821.74-758.044 870.871-640H752.043q-42-71.609-113.497-112.413-71.498-40.804-154.589-40.804-130.609 0-221.913 91.304T170.74-480q0 130.609 91.304 221.913t221.913 91.304q66.739 0 127.195-27.087 60.457-27.087 104.326-77.26v139.958q-52.435 34.043-111.456 52.217Q545-60.782 482.826-60.782ZM795.478-240v-320h96.957v320h-96.957Zm48.479 171.305q-21.805 0-36.555-14.75T792.652-120q0-21.805 14.75-36.555t36.555-14.75q21.804 0 36.554 14.75 14.751 14.75 14.751 36.555t-14.751 36.555q-14.75 14.75-36.554 14.75ZM483.957-480Z"/></svg>