<svg xmlns="http://www.w3.org/2000/svg" height="20" viewBox="0 -960 960 960" width="20"><path d="m750.435-135.869-220-221 76.088-79.218 222.565 222.565q15.957 15.957 15.957 38.544 0 22.587-15.957 38.544-15.957 17.522-38.544 17.805-22.587.282-40.109-17.24Zm-557.958-42.609q-85.609-111.827-94.848-246.436-9.239-134.61 60.023-245.958-3.914 40.218 14.13 90.414t49.196 103.761q31.152 53.566 70.805 106.805 39.652 53.24 80.522 98.544l-95.435 95.435q-18.957 18.957-44.044 18.174-25.088-.782-40.349-20.739Zm236.828-149.87q-52.522-52.087-94.261-110.631-41.74-58.544-66.849-112.891-25.108-54.348-30.087-97.283-4.978-42.935 13.891-62.804 18.87-19.305 60.674-14.326 41.804 4.978 95.804 28.804 54 23.827 114.609 65.566 60.609 41.739 115.957 94.826L429.305-328.348Zm359.174-358.174-92.87 92.87q-45.87-38.869-99.392-78.522-53.522-39.652-108.153-70.522-54.631-30.87-105.109-49.131-50.479-18.261-90.697-14.347 113.914-70.523 248.306-60.784 134.392 9.739 245.349 96.044 19.957 15.261 20.74 40.348.782 25.087-18.174 44.044Z"/></svg>