<svg xmlns="http://www.w3.org/2000/svg" height="20" viewBox="0 -960 960 960" width="20"><path d="M756.385-172.308 534.077-394.077l30.308-32.308 223.538 223.539q6.616 6.615 6.616 15.654 0 9.038-7.385 15.654-6.615 7.615-14.885 7.23-8.269-.384-15.884-8ZM239.231-213q-70.616-94.461-75.193-211.038-4.577-116.577 57.885-212.116-7.539 38.616 1.423 81.385 8.961 42.769 27.923 85.808 18.962 43.038 44.885 83.961T351-310.923L251.077-211q-2.692 2.693-5.385 1.808-2.692-.885-6.461-3.808Zm141.077-127.231q-41.846-44.692-69.731-95.692-27.885-51-41.039-99.115-13.153-48.116-9.615-86.616 3.538-38.5 22-57.961 18.462-18.693 56.962-21.077 38.5-2.385 86.346 10.154 47.846 12.538 99.961 40.423 52.116 27.884 97.039 68.961L380.308-340.231ZM750-708.923l-99.461 99.462q-33.154-26.154-73.308-52.847-40.154-26.692-83.308-45.654-43.154-18.961-85.538-29.192-42.385-10.231-80.231-3.462Q426.462-802.077 540.616-797q114.153 5.077 208.153 75.461 2.924 3.77 3.424 6.847.5 3.077-2.193 5.769Z"/></svg>