<svg xmlns="http://www.w3.org/2000/svg" height="24" viewBox="0 -960 960 960" width="24"><path d="M286.999-355.478q-23.116 0-39.297-16.346-16.181-16.346-16.181-39.697v-14.522q0-15.261 12.174-24.609Q255.87-460 272.826-460q11.776 0 19.475 7.699Q300-444.602 300-432.826v4.347h55.478V-570q0-14.96 9.781-24.741 9.781-9.781 24.741-9.781 14.96 0 24.741 9.781 9.781 9.781 9.781 24.741v158.479q0 23.351-16.346 39.697-16.346 16.346-39.697 16.346h-81.48Zm233.001 0q-18.922 0-31.722-12.8T475.478-400v-24.522q0-6.191 4.643-10.835Q484.765-440 490.956-440h38.088q6.191 0 10.835 4.643 4.643 4.644 4.643 10.835h70.956V-460H520q-18.922 0-31.722-12.8t-12.8-31.722V-560q0-18.922 12.8-31.722t31.722-12.8h120q18.922 0 31.722 12.8t12.8 31.722v24.522q0 6.191-4.643 10.835Q675.235-520 669.044-520h-38.088q-6.191 0-10.835-4.643-4.643-4.644-4.643-10.835h-70.956V-500H640q18.922 0 31.722 12.8t12.8 31.722V-400q0 18.922-12.8 31.722T640-355.478H520Z"/></svg>