<svg xmlns="http://www.w3.org/2000/svg" height="24" viewBox="0 -960 960 960" width="24"><path d="M9.23-220v-40h180.924q7.154-71.077 56.884-123.615 49.731-52.539 117.269-61.77l-61.076-276.153Q301.692-730 294.384-735q-7.307-5-14.23-5H169.231q-8.5 0-14.25-5.758-5.75-5.757-5.75-14.269t5.75-14.242q5.75-5.731 14.25-5.731h110.923q20.077 0 38.731 13.654t23.884 36.038l70.308 321.077H400q-70.442 0-120.606 50.164-50.163 50.163-50.163 120.605V-220h-220Zm390.86 81.539q-41.629 0-70.859-29.141Q300-196.742 300-238.371q0-41.629 29.14-70.86t70.77-29.231q41.629 0 70.859 29.141Q500-280.181 500-238.552q0 41.629-29.14 70.86t-70.77 29.231Zm-.09-40.001q24.692 0 42.346-17.653Q460-213.769 460-238.462q0-24.692-17.654-42.346-17.654-17.653-42.346-17.653-24.692 0-42.346 17.653Q340-263.154 340-238.462q0 24.693 17.654 42.347 17.654 17.653 42.346 17.653Zm369.231-83.076q-69.693 0-119.577-43.731Q599.769-349 590.154-420H482.308l-8.77-40h116.616q3.461-27.615 20.423-64.923 16.961-37.308 49.423-56.615H447.846l-8.769-40.001h241.384l-64-175.384q-2.307-6.923-7.692-10.384-5.384-3.462-12.307-3.462h-64q-8.501 0-14.251-5.758-5.75-5.757-5.75-14.269t5.75-14.242q5.75-5.731 14.251-5.731h64q19.077 0 34.846 10.686 15.769 10.687 22.692 29.006L723.385-622h45.846q76.077 0 128.038 51.961Q949.231-518.077 949.231-442q0 74.231-53.885 127.346-53.884 53.116-126.115 53.116ZM769.204-300q59.488 0 99.757-41.154 40.27-41.154 40.27-99.151 0-59.156-40.25-99.426Q828.731-580 769.231-580q-8.923 0-16.616.385-7.692.384-15.076 2.692L772-484.846q2.923 7.538-.487 15.027-3.41 7.489-11.205 10.588-7.539 2.923-15.167-.487t-10.68-11.205L702-562.769q-34.615 19.308-53.692 53.077-19.077 33.769-19.077 69.692 0 57.692 40.242 98.846T769.204-300ZM400-238.462ZM769.231-440Z"/></svg>