<svg xmlns="http://www.w3.org/2000/svg" height="24" viewBox="0 -960 960 960" width="24"><path d="M0-195.478v-89.044h152.13q9.304-68.565 57.63-123.522 48.327-54.957 115.457-73.261l-54.043-234.173H160q-18.922 0-31.722-12.8T115.478-760q0-18.922 12.8-31.722t31.722-12.8h111.174q30.956 0 55.435 19.196 24.478 19.196 31.609 50.717l75.173 330.087h-35.087q-67.695 0-115.261 48.131-47.565 48.13-47.565 116.391v44.522H0Zm400 80q-52.261 0-88.391-36.131-36.131-36.13-36.131-88.391t36.131-88.391q36.13-36.131 88.391-36.131t88.391 36.131q36.131 36.13 36.131 88.391t-36.131 88.391q-36.13 36.131-88.391 36.131Zm0-89.044q14.739 0 25.109-10.369 10.369-10.37 10.369-25.109 0-14.739-10.369-25.109-10.37-10.369-25.109-10.369-14.739 0-25.109 10.369-10.369 10.37-10.369 25.109 0 14.739 10.369 25.109 10.37 10.369 25.109 10.369Zm355.478-32.087q-72 0-127.63-45.065-55.631-45.065-71.761-113.804h-79.869l-19.696-89.044h99.565q5-20.174 12.369-37.913 7.37-17.739 18.543-33.043H440.218l-19.696-89.044h211.304l-40.609-110.956H534q-18.922 0-31.722-12.8T489.478-800q0-18.922 12.8-31.722t31.722-12.8h59.478q27.131 0 49.326 14.848Q665-814.826 674-789.696l52.304 143.174h29.174q85.826 0 145.174 59.348Q960-527.826 960-442q0 86.13-60.196 145.761-60.195 59.63-144.326 59.63Zm0-87.913q49.318 0 82.681-33.869 33.362-33.87 33.362-81.609 0-49.304-32.521-81.543-32.522-32.239-77.87-33.37h-2.304L782-492.696q6.565 17.696-1.209 33.795-7.774 16.099-25.544 22.761-17.769 6.662-34.182-.997-16.413-7.66-22.978-25.167l-22.305-61.783q-17.039 15.628-26.41 36.77Q640-466.174 640-440q0 47.739 33.2 81.609 33.2 33.869 82.278 33.869ZM400-240Zm355.478-199.435Z"/></svg>