<svg xmlns="http://www.w3.org/2000/svg" height="24" viewBox="0 -960 960 960" width="24"><path d="M60.87-71.87v-68.608h76.456q-57.805-72.479-87.848-159.359Q19.434-386.717 19.434-480q0-93.283 30.044-180.163 30.043-86.88 87.848-159.359H60.869v-68.609h208.609v206.218h-68.609V-787.63q-54.891 65.043-83.858 143.771Q88.043-565.13 88.043-480q0 85.13 28.968 163.859 28.967 78.728 83.858 143.771v-105.717h68.609v206.218H60.869Zm542.956-46.5L289.413-267.348l37.761-88.261 121.5-6.848L322.195-708.37l80.979-30.152L514.848-432.5l37.761-13.761-57.631-156.653 80.979-30.913 57.63 158.174 37-13.76-43.63-119.414 80.978-30.391 43.63 120.652 38-14-16.63-44.413 80.739-30.152 129.544 350.674L603.826-118.37Z"/></svg>