<svg xmlns="http://www.w3.org/2000/svg" height="24" viewBox="0 -960 960 960" width="24"><path d="M166.783-206.783v-12.739 12.739-417.39 417.39Zm0 106.001q-44.305 0-75.153-30.848-30.848-30.848-30.848-75.153v-417.39q0-44.305 30.848-75.153 30.848-30.848 75.153-30.848h135.694v-80q0-44.305 30.849-75.154 30.848-30.848 75.153-30.848h143.042q44.305 0 75.153 30.848 30.849 30.849 30.849 75.154v80h135.694q44.305 0 75.153 30.848 30.848 30.848 30.848 75.153v171q-22.522-19.783-49.305-34.37-26.783-14.587-56.696-22.718v-113.912H166.783v417.39H441.87q3.565 28.913 12.391 55.414 8.826 26.5 23.479 50.587H166.783Zm241.696-629.392h143.042v-80H408.479v80ZM720-40q-83 0-141.5-58.5T520-240q0-83 58.5-141.5T720-440q83 0 141.5 58.5T920-240q0 83-58.5 141.5T720-40Zm-23.957-167.305-51.217-50.652q-7.233-7.13-16.877-7.13-9.645 0-16.775 7.211-7.131 7.211-7.131 16.826t7.131 16.746l71.217 71.782q16.162 15.957 37.712 15.957 21.549 0 37.506-15.957l71.782-71.782q7.131-7.131 6.848-16.826-.282-9.696-7.494-16.827-7.211-7.13-16.826-7.13t-16.745 7.13l-50.652 50.652V-341.13q0-9.583-7.211-16.77-7.212-7.187-16.827-7.187-9.614 0-17.028 7.187-7.413 7.187-7.413 16.77v133.825Z"/></svg>