<svg xmlns="http://www.w3.org/2000/svg" height="20" viewBox="0 -960 960 960" width="20"><path d="M174.783-222.783v-6.739 6.739-409.39 409.39Zm0 98.001q-41.005 0-69.503-28.498-28.498-28.498-28.498-69.503v-409.39q0-41.005 28.498-69.503 28.498-28.498 69.503-28.498h143.694v-72.213q0-41.092 28.524-69.441 28.524-28.348 69.566-28.348h127.218q41.041 0 69.389 28.498 28.349 28.499 28.349 69.504v72h143.694q41.005 0 69.503 28.498 28.498 28.498 28.498 69.503v187q-21.522-17.783-45.805-31.37t-52.196-19.718v-135.912H174.783v409.39H455.87q2.565 26.848 9.391 51.381 6.826 24.533 19.479 46.62H174.783Zm241.696-605.392h127.042v-72H416.479v72ZM719.774-48Q640-48 584-104.226t-56-136Q528-320 584.226-376t136-56Q800-432 856-375.774t56 136Q912-160 855.774-104t-136 56Zm-27.731-199.305-26.217-25.652q-8.597-8.13-20.059-8.13-11.463 0-19.593 8.211-8.131 8.211-8.131 19.644 0 11.434 8.131 19.928l59.217 59.782q14.798 14.957 34.53 14.957 19.731 0 34.688-14.957l59.782-59.782q8.131-8.494 7.848-20.008-.282-11.514-8.494-19.645-8.211-8.13-19.644-8.13-11.433 0-19.927 8.13l-25.652 25.652v-65.825q0-11.183-8.411-19.57-8.412-8.387-19.627-8.387-11.214 0-19.828 8.387-8.613 8.387-8.613 19.57v65.825Z"/></svg>