<svg xmlns="http://www.w3.org/2000/svg" height="24" viewBox="0 -960 960 960" width="24"><path d="M408.479-730.174h143.042v-80H408.479v80ZM720-40q-83 0-141.5-58.5T520-240q0-83 58.5-141.5T720-440q83 0 141.5 58.5T920-240q0 83-58.5 141.5T720-40Zm-553.217-60.782q-44.305 0-75.153-30.848-30.848-30.848-30.848-75.153v-417.39q0-44.305 30.848-75.153 30.848-30.848 75.153-30.848h135.694v-80q0-44.305 30.849-75.154 30.848-30.848 75.153-30.848h143.042q44.305 0 75.153 30.848 30.849 30.849 30.849 75.154v80h135.694q44.305 0 75.153 30.848 30.848 30.848 30.848 75.153v171q-38.391-32.348-83.348-49.588Q770.913-520 720-520q-116 0-198 82t-82 198q0 37.218 9.326 72.24 9.326 35.022 28.414 66.978H166.783Zm529.26-106.523-51.598-50.652q-7.17-7.13-16.918-7.13-9.749 0-16.918 7.13-7.131 7.131-7.131 16.827 0 9.695 7.131 16.826l71.706 71.782q16.033 15.957 37.479 15.957 21.447 0 37.25-15.957l71.782-71.782q7.131-7.131 7.131-16.826 0-9.696-7.23-16.827-7.231-7.13-17.06-7.13-9.828 0-17.058 7.13l-50.087 50.652V-341.13q0-9.696-7.3-16.827-7.3-7.13-17.222-7.13-9.47 0-16.713 7.13-7.244 7.131-7.244 16.827v133.825Z"/></svg>