<svg xmlns="http://www.w3.org/2000/svg" height="20" viewBox="0 -960 960 960" width="20"><path d="M544.615-111.538q-6.307 3.153-12.115 1.346-5.808-1.808-8.962-8.116l-67.692-135.384q-3.154-6.308-1.346-12.116 1.808-5.807 8.115-8.961 5.308-3.154 12-.962 6.693 2.192 9.847 8.5l67.692 134.616q3.154 6.307.961 12.115-2.192 5.808-8.5 8.962Zm198.77 0q-6.308 3.153-12.616 1.346-6.308-1.808-9.461-8.116l-67.693-135.384q-3.154-6.308-.846-12.116 2.308-5.807 8.616-8.961 6.307-3.154 12.5-.962 6.192 2.192 9.346 8.5l67.692 134.616q3.154 6.307.962 12.115-2.193 5.808-8.5 8.962Zm-396.77 0q-6.307 3.153-13 1.346-6.692-1.808-9.846-8.116l-67.692-135.384q-3.154-6.308-.462-12.116 2.693-5.807 9-8.961 6.308-3.154 12.116-.962t8.961 8.5l67.693 134.616q3.154 6.307 1.346 12.115-1.808 5.808-8.116 8.962ZM295-356q-77.308 0-128.154-55.346Q116-466.692 116-545q0-71.615 49.808-121.731 49.807-50.115 124.5-57.808 27.692-55.23 78.346-87.346Q419.308-844 480-844q81.154 0 139.539 54.115 58.384 54.116 68.538 136.346 71.615.462 113.769 46.231Q844-561.539 844-504q0 61.539-43.231 104.769Q757.539-356 696-356H295Zm5-32h396q47.692 0 81.846-34.154T812-504q0-47.692-34.154-81.846T696-620h-33l-9-40q-8-65.461-57.769-108.731Q546.461-812 480-812q-52.154 0-95.154 28.462-43 28.461-65.307 75.846L310.923-692H300q-63.461 0-107.731 44.269Q148-603.461 148-540q0 63.461 44.269 107.731Q236.539-388 300-388Zm180-212Z"/></svg>