<svg xmlns="http://www.w3.org/2000/svg" height="20" viewBox="0 -960 960 960" width="20"><path d="M363.462-549.155 195.308-717.693Q184.616-728 184.616-740.385q0-12.384 10.692-23.076 9.308-10.308 21.692-10.308t22.692 10.308L409.23-593.923l-45.768 44.768ZM602-170.001q-12.75 0-22.375-9.628-9.624-9.629-9.624-22.384 0-12.756 9.624-22.371 9.625-9.615 22.375-9.615h79.617L551.539-364.077l45.768-44.768 128.694 128.693V-358q0-12.75 9.628-22.374 9.629-9.625 22.384-9.625 12.756 0 22.371 9.625 9.615 9.624 9.615 22.374v149.846q0 15.365-11.394 26.759t-26.759 11.394H602Zm-405.076-26.923q-10.693-9.692-10.693-22.076t10.693-23.076l483.924-483.925H602q-12.75 0-22.375-9.628-9.624-9.629-9.624-22.384 0-12.756 9.624-22.371 9.625-9.615 22.375-9.615h149.846q15.365 0 26.759 11.394t11.394 26.759V-602q0 12.75-9.628 22.375-9.629 9.624-22.384 9.624-12.756 0-22.371-9.624-9.615-9.625-9.615-22.375v-77.848L243.076-196.924Q232.384-186.231 220-186.231t-23.076-10.693Z"/></svg>