<svg xmlns="http://www.w3.org/2000/svg" height="24" viewBox="0 -960 960 960" width="24"><path d="M370.462-548.155 195.308-723.693q-8.692-8.307-8.692-20.692 0-12.384 8.692-21.076 8.308-8.308 20.692-8.308t20.692 8.308L412.23-589.923l-41.768 41.768ZM600-170.001q-12.75 0-21.375-8.628-8.624-8.629-8.624-21.384 0-12.756 8.624-21.371 8.625-8.615 21.375-8.615h88.617L548.155-370.462l42.768-42.768 139.078 139.078V-360q0-12.75 8.628-21.374 8.629-8.625 21.384-8.625 12.756 0 21.371 8.625 8.615 8.624 8.615 21.374v153.846q0 15.365-10.394 25.759t-25.759 10.394H600Zm-405.076-24.923q-8.693-8.692-8.693-21.076t8.693-21.076l492.924-492.925H600q-12.75 0-21.375-8.628-8.624-8.629-8.624-21.384 0-12.756 8.624-21.371 8.625-8.615 21.375-8.615h153.846q15.365 0 25.759 10.394t10.394 25.759V-600q0 12.75-8.628 21.375-8.629 8.624-21.384 8.624-12.756 0-21.371-8.624-8.615-8.625-8.615-21.375v-87.848L237.076-194.924q-8.692 8.693-21.076 8.693t-21.076-8.693Z"/></svg>