<svg xmlns="http://www.w3.org/2000/svg" height="20" viewBox="0 -960 960 960" width="20"><path d="m357.37-535.37-172-172q-14.196-14.195-14.196-32.63 0-18.435 14.196-32.63 13.195-14.196 31.63-14.196t32.63 14.196l173 173-65.26 64.26ZM602-156.413q-18.435 0-32.011-13.576-13.576-13.576-13.576-32.011 0-18.435 13.576-32.011 13.576-13.576 32.011-13.576h46.152L537.37-358.37l65.26-64.26 109.783 109.782V-358q0-18.435 13.576-32.011 13.576-13.576 32.011-13.576 18.435 0 32.011 13.576 13.576 13.576 13.576 32.011v154.087q0 19.152-14.174 33.326t-33.326 14.174H602ZM187.37-187.37q-14.196-13.195-14.196-31.63t14.196-32.63l460.782-460.783H602q-18.435 0-32.011-13.576-13.576-13.576-13.576-32.011 0-18.435 13.576-32.011 13.576-13.576 32.011-13.576h154.087q19.152 0 33.326 14.174t14.174 33.326V-602q0 18.435-13.576 32.011-13.576 13.576-32.011 13.576-18.435 0-32.011-13.576-13.576-13.576-13.576-32.011v-45.152L252.63-187.37q-14.195 14.196-32.63 14.196-18.435 0-32.63-14.196Z"/></svg>