<svg xmlns="http://www.w3.org/2000/svg" height="24" viewBox="0 -960 960 960" width="24"><path d="M376-566 207-736q-5-4-5-9t5-10q4-4 9-4t9 4l170 170-19 19Zm224 380q-5.95 0-9.975-4.035-4.025-4.035-4.025-10t4.025-9.965q4.025-4 9.975-4h128L566-376l20-20 160 160v-124q0-5.95 4.035-9.975 4.035-4.025 10-4.025t9.965 4.025q4 4.025 4 9.975v144q0 12.75-8.625 21.375T744-186H600Zm-394-20q-5-5-5-10t5-10l520-520H600q-5.95 0-9.975-4.035-4.025-4.035-4.025-10t4.025-9.965q4.025-4 9.975-4h144q12.75 0 21.375 8.625T774-744v144q0 5.95-4.035 9.975-4.035 4.025-10 4.025T750-590.025q-4-4.025-4-9.975v-126L226-206q-5 5-10 5t-10-5Z"/></svg>