<svg xmlns="http://www.w3.org/2000/svg" height="20" viewBox="0 -960 960 960" width="20"><path d="M406-346v-144h-42v-16h58v160h-16Zm84 0v-160h132v160H490Zm16-16h100v-128H506v128Zm-26 220q-59 0-110.633-22.1-51.634-22.1-90.4-60.867-38.767-38.766-60.867-90.4Q196-367 196-426q0-59 22.1-110.633 22.1-51.634 60.867-90.4 38.766-38.767 90.4-60.867Q421-710 480-710h17l-56-57 15-13 80 79-78 79-15-13 56-55h-19q-109 0-186.5 77.5T216-426q0 109 77.5 186.5T480-162q109 0 186.5-77.5T744-426h20q0 59-22.1 110.633-22.1 51.634-60.867 90.4-38.766 38.767-90.4 60.867Q539-142 480-142Z"/></svg>