<svg xmlns="http://www.w3.org/2000/svg" height="20" viewBox="0 -960 960 960" width="20"><path d="M379.935-326.413V-471.13H333.37v-49.674h97.434v194.391h-50.869Zm98.869 0v-194.391h149.979v194.391H478.804Zm51.109-49.674h48v-95.043h-48v95.043ZM480.049-80.435q-71.723 0-134.411-27.197-62.687-27.198-109.15-73.661-46.462-46.462-73.66-109.1-27.198-62.639-27.198-134.362 0-71.723 27.198-134.291 27.198-62.569 73.78-109.031t109.236-73.66q62.654-27.198 134.395-27.198h5l-47.848-48.848 53.631-53.869 144.217 144.217-144.217 144.218-53.631-53.631 50.087-49.087h-7.239q-107.804 0-184.706 76.666-76.903 76.665-76.903 184.467t76.735 184.585Q372.099-163.435 480-163.435T664.635-240.1q76.735-76.664 76.735-184.465h83q0 71.435-27.198 134.122-27.198 62.688-73.66 109.15-46.463 46.463-109.101 73.661-62.638 27.197-134.362 27.197Z"/></svg>