<svg xmlns="http://www.w3.org/2000/svg" height="24" viewBox="0 -960 960 960" width="24"><path d="M355.935-316.413V-497.13H297.37v-61.674h121.434v242.391h-62.869Zm102.869 0v-242.391h165.979v242.391H458.804Zm63.109-61.674h40V-497.13h-40v119.043ZM480.049-70.435q-76.723 0-143.777-29.097-67.055-29.098-116.75-78.794-49.696-49.696-78.794-116.701T111.63-438.755q0-76.723 29.098-143.658 29.098-66.935 78.913-116.631 49.815-49.695 116.836-78.793 67.021-29.098 143.762-29.098h6l-59.848-59.848 58.631-60.869 166.217 166.217-166.217 166.218-58.631-60.631 60.087-60.087h-6.239q-115.804 0-196.706 80.666-80.903 80.665-80.903 196.467t80.735 196.585Q364.099-161.435 480-161.435T676.635-242.1q80.735-80.664 80.735-196.465h91q0 76.435-29.098 143.489t-78.794 116.75q-49.695 49.696-116.7 78.794-67.005 29.097-143.729 29.097Z"/></svg>