<svg xmlns="http://www.w3.org/2000/svg" height="24" viewBox="0 -960 960 960" width="24"><path d="M450.001-413.847v-176.77L376-516.616 333.847-560 480-706.153 626.153-560 584-516.616l-74.001-74.001v176.77h-59.998Zm-310 273.846v-679.998h679.998v679.998H140.001ZM200-200h560v-127.693H628.461q-26.154 38-64.961 59-38.808 21-83.5 21t-83.5-21q-38.807-21-64.961-59H200V-200Zm280-107.691q38 0 69-22t43-58h168V-760H200v372.309h168q12 36 43 58t69 22ZM200-200v-127.693h131.539q26.154 38 64.961 59 38.808 21 83.5 21t83.5-21q38.807-21 64.961-59H760V-200H200Z"/></svg>