<svg xmlns="http://www.w3.org/2000/svg" height="20" viewBox="0 -960 960 960" width="20"><path d="m627.846-323.846 23.308-23.308L496-502.326V-720h-32v232.308l163.846 163.846ZM480.134-136q-71.048 0-133.598-26.839-62.549-26.84-109.677-73.922-47.127-47.082-73.993-109.716Q136-409.111 136-480.325q0-71.214 26.839-133.951 26.84-62.737 73.922-109.365 47.082-46.627 109.716-73.493Q409.111-824 480.325-824q71.214 0 133.957 27.079 62.744 27.08 109.157 73.502t73.487 109.177Q824-551.486 824-480.134q0 71.048-26.839 133.598-26.84 62.549-73.422 109.677-46.582 47.127-109.388 73.993Q551.544-136 480.134-136Z"/></svg>