<svg xmlns="http://www.w3.org/2000/svg" height="20" viewBox="0 -960 960 960" width="20"><path d="m610.413-308.565 56.5-56.022-147.326-147.326v-206.891h-79.174v240.133l170 170.106ZM480-87.869q-81.289 0-152.533-30.618-71.244-30.618-124.803-84.177-53.559-53.559-84.177-124.949-30.618-71.391-30.618-152.845 0-81.455 30.618-152.887t84.177-124.491q53.559-53.059 124.949-83.677 71.391-30.618 152.845-30.618 81.455 0 152.893 30.858t124.283 83.757q52.845 52.899 83.671 124.411Q872.131-561.593 872.131-480q0 81.289-30.618 152.533-30.618 71.244-83.677 124.803-53.059 53.559-124.622 84.177Q561.651-87.869 480-87.869Z"/></svg>