<svg xmlns="http://www.w3.org/2000/svg" height="24" viewBox="0 -960 960 960" width="24"><path d="M60.782-330.607v-106.002h194.912v-37.173H140.216v-106.002h221.48v143.175h64.738v-282.782q0-75.218 52.805-127.523 52.804-52.304 128.248-52.304 50.296 0 92.405 26.826t65.935 72.218l43.739 85.217-95.175 47.305-44.304-85.218q-9.416-18.419-26.534-29.383-17.118-10.964-37.204-10.964-30.566 0-52.24 21.532-21.674 21.533-21.674 52.294v282.782h65.304v-143.175h221.479v106.002H703.74v37.173h195.478v106.002H60.782Zm80 229.825v-189.26h678.436v189.26H140.782Z"/></svg>