<svg xmlns="http://www.w3.org/2000/svg" height="24" viewBox="0 -960 960 960" width="24"><path d="M120-381.538v-40.001h196.923V-500H200v-40h156.923v118.461H460v-276q0-59.938 41.525-101.199Q543.051-840 602.743-840q39.796 0 74.18 20.923 34.385 20.923 52.308 57.538l36 72.77-35.846 18.308L692.615-744q-13.401-25.565-37.767-40.783Q630.482-800 602.462-800q-42.693 0-72.577 29.885Q500-740.231 500-697.539v276h103.077V-540H760v40H643.077v78.461H840v40.001H120ZM200-160v-221.538h40V-200h480v-181.538h40V-160H200Z"/></svg>