<svg xmlns="http://www.w3.org/2000/svg" height="20" viewBox="0 -960 960 960" width="20"><path d="M765.739-124.782q-110 0-225.674-53.261T326.999-327.565q-97.391-96.826-149.804-210.804-52.413-113.979-52.413-227.805v-70.044H388.74l46.479 196.001L302.392-517.13q20.174 33.348 43.565 63.543 23.391 30.196 50.015 56.352 24.724 24.626 52.354 46.452 27.63 21.826 60.717 42.869l134.131-128.87 192.044 43.348v268.654h-69.479ZM256.391-606.044l71.435-67.913-16.35-64.26h-87.563q2.87 34.043 10.739 67.587 7.87 33.543 21.739 64.586Zm347.261 342.826q25.478 12.305 60.587 22.739 35.109 10.435 72.978 16.566v-91.174l-63.695-14.87-69.87 66.739ZM256.391-606.044Zm347.261 342.826Z"/></svg>