<svg xmlns="http://www.w3.org/2000/svg" height="20" viewBox="0 -960 960 960" width="20"><path d="M454.001-765.076v-109.998h51.998v109.998h-51.998Zm-141.076 45.769-98.768-98.768 35.768-35.768 98.768 98.768-35.768 35.768ZM164.001-116.001v-312.922l90.231-223.076h148.231v-62.768h66.767q-7.461 21.615-11.115 44.326-3.654 22.711-3.654 46.056v12.193q0 6.192 1 12.192H289.769l-48.692 127.693h266.77q10.657 15.261 23.482 28.361 12.825 13.099 26.67 23.637H216V-240h528v-137.155q13.934-1.615 26.774-4.461 12.84-2.847 25.225-7.539v273.154h-60.613v-72H224.614v72h-60.613Zm111.538-183.538H408v-61.23H275.539v61.23Zm276.461 0h132.461v-61.23H552v61.23ZM216-240v-180.309V-240Zm463.537-305 122.462-128.846-26.538-24.538-96.924 101.693-42.692-41.693-25.538 25.153L679.537-545Zm26.39 92.614q-71.697 0-121.735-50.264t-50.038-121.961q0-71.696 50.264-121.734 50.265-50.038 121.961-50.038t121.734 50.264q50.038 50.264 50.038 121.96 0 71.697-50.264 121.735t-121.96 50.038Z"/></svg>