<svg xmlns="http://www.w3.org/2000/svg" height="24" viewBox="0 -960 960 960" width="24"><path d="M353.782-276.891q18.196 0 30.653-12.457 12.456-12.456 12.456-30.652t-12.456-30.652q-12.457-12.457-30.653-12.457-18.195 0-30.652 12.457-12.456 12.456-12.456 30.652t12.456 30.652q12.457 12.457 30.652 12.457Zm126.218 0q18.196 0 30.652-12.457 12.457-12.456 12.457-30.652t-12.457-30.652Q498.196-363.109 480-363.109t-30.652 12.457Q436.891-338.196 436.891-320t12.457 30.652q12.456 12.457 30.652 12.457Zm126.218 0q18.195 0 30.652-12.457 12.456-12.456 12.456-30.652t-12.456-30.652q-12.457-12.457-30.652-12.457-18.196 0-30.653 12.457-12.456 12.456-12.456 30.652t12.456 30.652q12.457 12.457 30.653 12.457ZM438-402.87l224.761-225.521-60.544-61.305-164.978 164.978-82.609-82.369-60.543 60.304L438-402.87Zm42 331q-84.913 0-159.345-32.117-74.432-32.118-129.491-87.177-55.059-55.059-87.177-129.491Q71.869-395.087 71.869-480t32.118-159.345q32.118-74.432 87.177-129.491 55.059-55.059 129.491-87.177Q395.087-888.131 480-888.131t159.345 32.118q74.432 32.118 129.491 87.177 55.059 55.059 87.177 129.491Q888.131-564.913 888.131-480t-32.118 159.345q-32.118 74.432-87.177 129.491-55.059 55.059-129.491 87.177Q564.913-71.869 480-71.869Zm0-91q133.043 0 225.087-92.043Q797.13-346.957 797.13-480t-92.043-225.087Q613.043-797.13 480-797.13t-225.087 92.043Q162.87-613.043 162.87-480t92.043 225.087Q346.957-162.87 480-162.87ZM480-480Z"/></svg>