<svg xmlns="http://www.w3.org/2000/svg" height="24" viewBox="0 -960 960 960" width="24"><path d="M359.973-290.769q12.412 0 20.835-8.396t8.423-20.808q0-12.412-8.396-20.835t-20.808-8.423q-12.412 0-20.835 8.396t-8.423 20.808q0 12.412 8.396 20.835t20.808 8.423Zm120 0q12.412 0 20.835-8.396t8.423-20.808q0-12.412-8.396-20.835t-20.808-8.423q-12.412 0-20.835 8.396t-8.423 20.808q0 12.412 8.396 20.835t20.808 8.423Zm120 0q12.412 0 20.835-8.396t8.423-20.808q0-12.412-8.396-20.835t-20.808-8.423q-12.412 0-20.835 8.396t-8.423 20.808q0 12.412 8.396 20.835t20.808 8.423ZM438-428.461 635.308-626 607-654.539l-169.487 170-84.744-85L324.461-542 438-428.461ZM480.134-120q-74.673 0-140.41-28.339-65.737-28.34-114.365-76.922-48.627-48.582-76.993-114.257Q120-405.194 120-479.866q0-74.673 28.339-140.41 28.34-65.737 76.922-114.365 48.582-48.627 114.257-76.993Q405.194-840 479.866-840q74.673 0 140.41 28.339 65.737 28.34 114.365 76.922 48.627 48.582 76.993 114.257Q840-554.806 840-480.134q0 74.673-28.339 140.41-28.34 65.737-76.922 114.365-48.582 48.627-114.257 76.993Q554.806-120 480.134-120Z"/></svg>