<svg xmlns="http://www.w3.org/2000/svg" height="20" viewBox="0 -960 960 960" width="20"><path d="M345.789-275Q366-275 380.5-289.289q14.5-14.29 14.5-34.5Q395-344 380.711-358.5q-14.29-14.5-34.5-14.5Q326-373 311.5-358.711q-14.5 14.29-14.5 34.5Q297-304 311.289-289.5q14.29 14.5 34.5 14.5Zm134 0Q500-275 514.5-289.289q14.5-14.29 14.5-34.5Q529-344 514.711-358.5q-14.29-14.5-34.5-14.5Q460-373 445.5-358.711q-14.5 14.29-14.5 34.5Q431-304 445.289-289.5q14.29 14.5 34.5 14.5Zm134 0Q634-275 648.5-289.289q14.5-14.29 14.5-34.5Q663-344 648.711-358.5q-14.29-14.5-34.5-14.5Q594-373 579.5-358.711q-14.5 14.29-14.5 34.5Q565-304 579.289-289.5q14.29 14.5 34.5 14.5ZM439-415l217-216-70-69-146 146-75-74-70 69 144 144Zm41.276 353Q393-62 317.013-94.584q-75.988-32.583-132.917-89.512T94.584-316.971Q62-392.917 62-480.458 62-568 94.584-643.487q32.583-75.488 89.512-132.417t132.875-89.512Q392.917-898 480.458-898q87.542 0 163.029 32.584 75.488 32.583 132.417 89.512t89.512 132.641Q898-567.551 898-480.276q0 87.276-32.584 163.263-32.583 75.988-89.512 132.917T643.263-94.584Q567.551-62 480.276-62ZM480-180q126 0 213-87t87-213q0-126-87-213t-213-87q-126 0-213 87t-87 213q0 126 87 213t213 87Zm0-300Z"/></svg>