<svg xmlns="http://www.w3.org/2000/svg" height="24" viewBox="0 -960 960 960" width="24"><path d="M446.783-402.826h82.826q18.131 0 30.761-12.631 12.631-12.63 12.631-30.761 0-18.13-12.631-30.761-12.63-12.63-30.761-12.63h-82.826q-18.131 0-30.761 12.63-12.631 12.631-12.631 30.761 0 18.131 12.631 30.761 12.63 12.631 30.761 12.631Zm0-126.783h252.435q18.131 0 30.761-12.631 12.631-12.63 12.631-30.761 0-18.13-12.631-30.761-12.63-12.63-30.761-12.63H446.783q-18.131 0-30.761 12.63-12.631 12.631-12.631 30.761 0 18.131 12.631 30.761 12.63 12.631 30.761 12.631Zm0-126.783h252.435q18.131 0 30.761-12.631 12.631-12.63 12.631-30.761 0-18.13-12.631-30.761-12.63-12.63-30.761-12.63H446.783q-18.131 0-30.761 12.63-12.631 12.631-12.631 30.761 0 18.131 12.631 30.761 12.63 12.631 30.761 12.631Zm-106.999 422.61q-44.305 0-75.154-30.848-30.848-30.849-30.848-75.154v-466.434q0-44.305 30.848-75.153 30.849-30.848 75.154-30.848h466.434q44.305 0 75.153 30.848 30.848 30.848 30.848 75.153v466.434q0 44.305-30.848 75.154-30.848 30.848-75.153 30.848H339.784ZM153.782-47.781q-44.305 0-75.153-30.848-30.848-30.848-30.848-75.153v-519.435q0-22.087 15.457-37.544 15.456-15.457 37.544-15.457 22.087 0 37.544 15.457 15.456 15.457 15.456 37.544v519.435h519.435q22.087 0 37.544 15.456 15.457 15.457 15.457 37.544 0 22.088-15.457 37.544-15.457 15.457-37.544 15.457H153.782Z"/></svg>