<svg xmlns="http://www.w3.org/2000/svg" height="24" viewBox="0 -960 960 960" width="24"><path d="M332.307-427.692h301.539q9.693 0 14.154-8.692 4.462-8.693-1.23-17.154L566-562.077q-5.231-6.462-12.923-6.462t-12.923 6.462l-91.692 115.923-57.077-69q-5.231-5.692-12.539-5.692t-12.538 6.461l-46.154 60.847q-6.462 8.461-2 17.154 4.461 8.692 14.153 8.692ZM243.077-280l-68.154 68.154q-15.154 15.154-35.039 6.962Q120-213.077 120-234.692v-540.693Q120-803 138.5-821.5 157-840 184.615-840h590.77Q803-840 821.5-821.5 840-803 840-775.385v430.77Q840-317 821.5-298.5 803-280 775.385-280H243.077Z"/></svg>