<svg xmlns="http://www.w3.org/2000/svg" height="24" viewBox="0 -960 960 960" width="24"><path d="M278.87-394.913h402.26q16.522 0 23.936-14.391 7.413-14.392-2.848-27.783L591.087-585.218q-8.261-10.826-21.087-10.543-12.826.282-21.087 11.109L450-453.001l-68.913-92.217q-8.261-10.826-21.087-10.826t-21.087 10.826l-81.131 108.131q-10.261 13.391-2.848 27.783 7.414 14.391 23.936 14.391Zm-58.088 174.131-69.391 69.391q-25.217 25.217-57.913 11.608-32.696-13.608-32.696-49.087v-604.347q0-44.305 30.848-75.153 30.848-30.848 75.153-30.848h626.434q44.305 0 75.153 30.848 30.848 30.848 30.848 75.153v466.434q0 44.305-30.848 75.153-30.848 30.848-75.153 30.848H220.782Z"/></svg>