<svg xmlns="http://www.w3.org/2000/svg" height="24" viewBox="0 -960 960 960" width="24"><path d="M436.413-271.869H280q-86.374 0-147.252-60.873-60.879-60.873-60.879-147.239 0-86.367 60.879-147.258Q193.626-688.131 280-688.131h156.413v91.001H280.102q-48.847 0-83.039 34.163Q162.87-528.804 162.87-480t34.193 82.967q34.192 34.163 83.039 34.163h156.311v91.001ZM314.5-438.087v-83.826h331v83.826h-331Zm209.087 166.218v-91.001h156.311q48.847 0 83.039-34.163Q797.13-431.196 797.13-480t-34.193-82.967q-34.192-34.163-83.039-34.163H523.587v-91.001H680q86.374 0 147.252 60.873 60.879 60.873 60.879 147.239 0 86.367-60.879 147.258Q766.374-271.869 680-271.869H523.587Z"/></svg>