<svg xmlns="http://www.w3.org/2000/svg" height="20" viewBox="0 -960 960 960" width="20"><path d="M271.693-174.771v-13.23l50-50q-47.615-9-78.653-45.539-31.039-36.538-31.039-84.153V-720q0-62.384 60.231-93.191 60.23-30.808 207.768-30.808 145.249 0 206.624 31.375T747.999-720v352.307q0 47.615-31.039 84.153-31.038 36.539-78.653 45.539l50 50v13.23H271.693ZM264-531.999h432v-149.232H264v149.232Zm216.091 188.306q16.832 0 28.524-11.783 11.692-11.782 11.692-28.615 0-16.832-11.783-28.524-11.782-11.692-28.615-11.692-16.832 0-28.524 11.783-11.692 11.782-11.692 28.615 0 16.832 11.783 28.524 11.782 11.692 28.615 11.692Z"/></svg>