<svg xmlns="http://www.w3.org/2000/svg" height="24" viewBox="0 -960 960 960" width="24"><path d="M220.782-93.999v-50.174l60-40q-59.566-7.914-99.783-56.327t-40.217-111.37v-371.521q0-92.61 82.087-135.914Q304.956-902.61 480-902.61q181.044 0 260.131 41.805 79.087 41.804 79.087 137.414v371.521q0 62.957-40.217 111.37-40.217 48.413-99.783 56.327l60 40v50.174H220.782Zm26.001-462.61h466.434v-120H246.783v120Zm397.39 80H246.783h466.434H644.173ZM480-320q25 0 42.5-17.5T540-380q0-25-17.5-42.5T480-440q-25 0-42.5 17.5T420-380q0 25 17.5 42.5T480-320Zm-164.173 36.609h328.346q29.392 0 49.218-19.544 19.826-19.544 19.826-48.935v-124.739H246.783v124.739q0 29.391 19.826 48.935 19.826 19.544 49.218 19.544ZM480-796.609q-86 0-142.5 10t-79.5 30h441.217q-18.565-20.565-71.956-30.282-53.391-9.718-147.261-9.718Zm0 40H699.217 258h222Z"/></svg>