<svg xmlns="http://www.w3.org/2000/svg" height="24" viewBox="0 -960 960 960" width="24"><path d="M480-160q55.923 0 105.269-17.885 49.346-17.884 90.577-49.346-70.309-24.846-135.962-75-65.654-50.154-111.577-121.116-45.923-70.962-65.154-160.577-19.23-89.615 2.077-193.768-90.307 33.769-147.576 115.654Q160.385-580.154 160.385-480q0 136.846 91.384 228.423Q343.154-160 480-160Zm0 59.999q-81.077 0-150.423-29.193-69.346-29.192-120.268-79.922-50.923-50.731-79.923-120.269-29-69.538-29-150.615 0-133.153 80.192-235.537 80.191-102.384 213.266-131.769 24.385-5.769 35.923 9.077t3.231 40.999q-25 85.154-14.269 169.116 10.731 83.961 50.539 154.807 39.807 70.846 105.961 123.346t152 74.962q27 6.615 33.384 24.308 6.384 17.692-10.692 35.461-50.769 53.46-120.807 84.344Q559.076-100.001 480-100.001Zm-61.385-368.845Z"/></svg>