<svg xmlns="http://www.w3.org/2000/svg" height="20" viewBox="0 -960 960 960" width="20"><path d="M456-108q-81 0-136.5-59T264-306v-421q0-57.575 40.212-98.287Q344.425-866 402-866q59.575 0 98.788 43.213Q540-779.575 540-721v392q0 34.96-25.028 58.98-25.028 24.02-59 24.02Q419-246 395.5-272.52T372-334v-386q0-8.067 5.953-14.033 5.954-5.967 14-5.967Q400-740 406-734.033q6 5.966 6 14.033v391q0 18.5 12.75 31.25T456-285q18.5 0 31.25-12.75T500-329v-398q0-40.88-28.585-69.94-28.584-29.06-69.5-29.06Q361-826 332.5-796.44 304-766.88 304-725v426q0 64 44.5 107.5T456-148q66 0 109-46t43-110v-416q0-8.067 5.953-14.033 5.954-5.967 14-5.967Q636-740 642-734.033q6 5.966 6 14.033v421q0 79-56 135t-136 56Z"/></svg>