<svg xmlns="http://www.w3.org/2000/svg" height="20" viewBox="0 -960 960 960" width="20"><path d="M455.957-74.52q-101.001 0-169.219-71.749Q218.521-218.018 218.521-318v-397.479q0-72.228 50.304-123.375 50.305-51.147 122.568-51.147 74.263 0 123.935 53.647 49.673 53.647 49.673 126.875v369.957q0 45.087-32.457 76.544-32.457 31.457-76.544 31.457-47.087 0-78.044-33.957-30.957-33.957-30.957-79.044V-684q0-18.674 13.327-31.576 13.326-12.903 31.717-12.903 18.392 0 31.435 12.903 13.044 12.902 13.044 31.576v344.478q0 8.318 5.7 14.181 5.7 5.862 13.778 5.862t13.778-5.862q5.7-5.863 5.7-14.181v-375.957q0-35-24.5-60t-59.5-25q-35 0-59.5 25.5t-24.5 61.5V-311q0 62.261 43.631 104.891 43.63 42.631 104.891 42.631 64.261 0 106.391-45.131 42.131-45.13 42.131-107.391v-368q0-18.674 12.902-31.576 12.903-12.903 31.577-12.903t31.576 12.903q12.902 12.902 12.902 31.576v373q0 98.982-68.761 167.731-68.761 68.748-168.761 68.748Z"/></svg>