<svg xmlns="http://www.w3.org/2000/svg" height="24" viewBox="0 -960 960 960" width="24"><path d="M793.217-100.782H206.783q-44.305 0-75.153-30.848-30.848-30.848-30.848-75.153v-546.434q0-44.305 30.848-75.153 30.848-30.848 75.153-30.848h586.434q44.305 0 75.153 30.848 30.848 30.848 30.848 75.153v546.434q0 44.305-30.848 75.153-30.848 30.848-75.153 30.848ZM206.783-638.304h586.434v-114.913H206.783v114.913Zm116.043 80H206.783v351.521h116.043v-351.521Zm354.348 0v351.521h116.043v-351.521H677.174Zm-80 0H402.826v351.521h194.348v-351.521Z"/></svg>