<svg xmlns="http://www.w3.org/2000/svg" height="24" viewBox="0 -960 960 960" width="24"><path d="M775.385-160h-550.77Q197-160 178.5-178.5 160-197 160-224.615v-510.77Q160-763 178.5-781.5 197-800 224.615-800h550.77Q803-800 821.5-781.5 840-763 840-735.385v510.77Q840-197 821.5-178.5 803-160 775.385-160ZM200-620h600v-115.385q0-9.23-7.692-16.923Q784.615-760 775.385-760h-550.77q-9.23 0-16.923 7.692Q200-744.615 200-735.385V-620Zm135.385 40H200v355.385q0 9.23 7.692 16.923Q215.385-200 224.615-200h110.77v-380Zm329.23 0v380h110.77q9.23 0 16.923-7.692Q800-215.385 800-224.615V-580H664.615Zm-40 0h-249.23v380h249.23v-380Z"/></svg>