<svg xmlns="http://www.w3.org/2000/svg" height="24" viewBox="0 -960 960 960" width="24"><path d="M367.63-212H272q-24.75 0-42.375-17.625T212-272v-95.63L142-438q-17-17.315-17-42.157Q125-505 142-522l70-70.37V-688q0-24.75 17.625-42.375T272-748h95.63L438-818q17.315-17 42.157-17Q505-835 522-818l70.37 70H688q24.75 0 42.375 17.625T748-688v95.63L818-522q17 17.315 17 42.157Q835-455 818-438l-70 70.37V-272q0 24.75-17.625 42.375T688-212h-95.63L522-142q-17.315 17-42.157 17Q455-125 438-142l-70.37-70ZM480-320q66.4 0 113.2-46.8T640-480q0-66.4-46.8-113.2T480-640q-66.4 0-113.2 46.8T320-480q0 66.4 46.8 113.2T480-320Zm0-160Zm0 132q54 0 93-39t39-93q0-54-39-93t-93-39q-54 0-93 39t-39 93q0 54 39 93t93 39Zm0 208 100-100h140v-140l100-100-100-100v-140H580L480-820 380-720H240v140L140-480l100 100v140h140l100 100Zm0-208q54 0 93-39t39-93q0-54-39-93t-93-39q-54 0-93 39t-39 93q0 54 39 93t93 39Z"/></svg>