<svg xmlns="http://www.w3.org/2000/svg" height="24" viewBox="0 -960 960 960" width="24"><path d="M354.32-180.001H252.309q-29.827 0-51.067-21.241-21.241-21.24-21.241-51.067V-354.32l-74.307-75.065q-20.692-20.813-20.692-50.675 0-29.863 20.692-50.555l74.307-75.065v-102.011q0-29.827 21.241-51.067 21.24-21.241 51.067-21.241H354.32l75.065-74.307q20.813-20.692 50.675-20.692 29.863 0 50.555 20.692l75.065 74.307h102.011q29.827 0 51.067 21.241 21.241 21.24 21.241 51.067v102.011l74.307 75.065q20.692 20.813 20.692 50.675 0 29.863-20.692 50.555l-74.307 75.065v102.011q0 29.827-21.241 51.067-21.24 21.241-51.067 21.241H605.68l-75.065 74.307q-20.813 20.692-50.675 20.692-29.863 0-50.555-20.692l-75.065-74.307ZM480-295.386q76.615 0 130.615-53.999 53.999-54 53.999-130.615 0-76.615-53.999-130.615-54-53.999-130.615-53.999-76.615 0-130.615 53.999-53.999 54-53.999 130.615 0 76.615 53.999 130.615 54 53.999 130.615 53.999ZM480-480Zm0 124.616q51.539 0 88.077-36.539 36.539-36.538 36.539-88.077t-36.539-88.077Q531.539-604.616 480-604.616t-88.077 36.539Q355.384-531.539 355.384-480t36.539 88.077q36.538 36.539 88.077 36.539ZM480-140l100-100h140v-140l100-100-100-100v-140H580L480-820 380-720H240v140L140-480l100 100v140h140l100 100Zm0-215.384q51.539 0 88.077-36.539 36.539-36.538 36.539-88.077t-36.539-88.077Q531.539-604.616 480-604.616t-88.077 36.539Q355.384-531.539 355.384-480t36.539 88.077q36.538 36.539 88.077 36.539Z"/></svg>