<svg xmlns="http://www.w3.org/2000/svg" height="20" viewBox="0 -960 960 960" width="20"><path d="M536.615-547.09q0-23.949-16.63-40.429Q503.354-604 480-604q-5.154 0-10.192.846-5.039.846-10.731 2.539l74.154 74.154q1.692-5.693 2.538-10.494.846-4.8.846-10.135Zm155.77 180.782-23.539-23.538q26.231-43 40.616-82.392 14.384-39.392 14.384-73.09 0-105.595-68.5-176.518t-175.621-70.923q-45.55 0-85.407 14.884Q354.462-763 322.692-737l-21.769-21.769q34.846-29.847 79.654-47.539T480-824q124.539 0 200.192 83.961 75.654 83.962 75.654 194.652 0 40.541-15.673 85.272-15.673 44.73-47.788 93.807Zm-85.078 59.462L258.538-655.615q-10.923 25.769-16.653 52.307-5.731 26.539-5.731 58.154 0 74.077 67.038 174.077 67.039 100 176.808 193.154 35.231-31.692 67.692-63.808 32.462-32.115 59.615-65.115ZM480-149.769q-8.385 0-15.269-2.577-6.885-2.577-14.808-8.5-17.692-14.231-58.039-52.385-40.346-38.154-82.654-90.231-42.307-52.077-73.692-114.807Q204.154-481 204.154-544.844q0-36.512 8.131-69.286 8.132-32.775 23.869-63.87l-87.308-87.308Q144-769.615 144-775.538q0-5.924 5.008-11.539 5.008-5.615 11.436-5.615t11.71 5.615l633.615 633.615q4.846 4.847 5.616 11.27.769 6.423-4.847 12.038-5.615 5.616-11.436 5.616-5.82 0-11.102-5.616L629.846-284.307q-17 18.538-40.423 43.769-23.423 25.231-78.577 78.923-7.647 5.923-14.88 8.884-7.233 2.962-15.966 2.962Zm-47.462-331.846Zm63.231-82.308Z"/></svg>