<svg xmlns="http://www.w3.org/2000/svg" height="20" viewBox="0 -960 960 960" width="20"><path d="M532-545.705q0-22.045-15.275-37.17T480-598q-4 0-8 .5t-9 1.5l67 67q1-5 1.5-8.762.5-3.763.5-7.943ZM685-373l-15-15q26-43 40.5-82.738t14.5-73.489Q725-650 656.5-721.5T479.725-793q-45.718 0-85.722 15Q354-763 322-737l-13-13q33-28 75.5-45t95.5-17q122 0 193.5 82T745-544.303Q745-506 730.25-463T685-373Zm-68 59L262-669q-13 29-20 59t-7 66q0 75 69 178t176 192q38-34 73-69t64-71ZM480-159q-7 0-12.5-2t-12.5-7q-11-8-49.5-43.5t-81.5-87Q281-350 248-414t-33-129.597q0-37.759 8.921-71.569T250-681l-91-91q-3-2.4-3-5.7 0-3.3 3.211-7.3 3.21-4 7.166-4 3.956 0 7.623 4l635 635q3 3 4 7t-3 8q-4 4-7.167 4-3.166 0-6.833-4L631-300q-17 19-41 45.5T506-169q-6.642 5-12.594 7.5Q487.453-159 480-159Zm-41-333Zm57-71Z"/></svg>