<svg xmlns="http://www.w3.org/2000/svg" height="24" viewBox="0 -960 960 960" width="24"><path d="M480-292q-11 0-19.5-8.5T452-320q0-11 8.5-19.5T480-348q11 0 19.5 8.5T508-320q0 11-8.5 19.5T480-292Zm-.035-136Q474-428 470-432.025T466-442v-198q0-5.95 4.035-9.975 4.035-4.025 10-4.025t9.965 4.025q4 4.025 4 9.975v198q0 5.95-4.035 9.975-4.035 4.025-10 4.025ZM198-476q0 62.938 27 115.969Q252-307 326-242v-114q0-5.95 4.035-9.975 4.035-4.025 10-4.025t9.965 4.025q4 4.025 4 9.975v132q0 12.75-8.625 21.375T324-194H192q-5.95 0-9.975-4.035-4.025-4.035-4.025-10t4.025-9.965q4.025-4 9.975-4h114q-78-68-107-128t-29-126.361Q170-563 215-634.5 260-706 333-743q6-3 12-1.5t8 7.5q2 6-.648 11.526-2.648 5.527-8.352 8.474-66 33-106 98t-40 143Zm564-8q0-62.938-27-115.969Q708-653 634-718v114q0 5.95-4.035 9.975-4.035 4.025-10 4.025T610-594.025q-4-4.025-4-9.975v-132q0-12.75 8.625-21.375T636-766h132q5.95 0 9.975 4.035 4.025 4.035 4.025 10T777.975-742q-4.025 4-9.975 4H654q78 68 107 128t29 126.361q0 86.639-45.124 157.986Q699.751-254.306 627-217q-6 3-12 1.5t-8-7.5q-2-6 .648-11.526 2.648-5.527 8.352-8.474 66-33 106-98t40-143Z"/></svg>