<svg xmlns="http://www.w3.org/2000/svg" height="20" viewBox="0 -960 960 960" width="20"><path d="M480.281-276Q460-276 446-289.719q-14-13.72-14-34Q432-344 445.719-358q13.72-14 34-14Q500-372 514-358.281q14 13.72 14 34Q528-304 514.281-290q-13.72 14-34 14Zm-.07-148q-18.611 0-31.411-12.65T436-468v-175q0-18.7 12.589-31.35 12.59-12.65 31.2-12.65 18.611 0 31.411 12.65T524-643v175q0 18.7-12.589 31.35-12.59 12.65-31.2 12.65ZM222-478.477Q222-437 238.5-404.5 255-372 279-346v5q0-18.275 12.589-30.638Q304.179-384 322.789-384q18.186 0 30.698 12.362Q366-359.275 366-341v110q0 24.3-17.35 41.65Q331.3-172 307-172H198q-18.275 0-30.638-12.589Q155-197.179 155-215.789q0-18.186 12.65-30.699Q180.3-259 199-259h-2q-43-44-68-99.357T104-478q0-96.829 52-173.415Q208-728 293.204-765q19.796-9 37.296 4t24.5 36.194q6 21.193-2.63 42Q343.741-662 324-651q-45.624 23.83-73.812 69.933Q222-534.964 222-478.477Zm514 19.954Q736-500 719.5-532.5 703-565 679-591v-4q0 17.85-12.307 29.925T636.193-553Q618-553 605-565.363 592-577.725 592-596v-110q0-24.3 17.35-41.65Q626.7-765 651-765h109q18.275 0 30.637 12.589Q803-739.821 803-721.211q0 18.186-12.363 30.698Q778.275-678 760-678h1q43 44 68 99.357T854-459q0 97-52 173T664.796-173Q645-164 627.5-176.5T603-212.194q-6-21.193 2.5-42Q614-275 634-286q45.624-23.83 73.812-69.933Q736-402.036 736-458.523Z"/></svg>