<svg xmlns="http://www.w3.org/2000/svg" height="20" viewBox="0 -960 960 960" width="20"><path d="M393.231-241.23q-23.513 0-40.257-16.251-16.744-16.25-15.744-39.75v-32H424v-105.543q-32.077 8.543-64.039 2.12Q328-439.077 308-456.308v-76.307h-74.769L99.692-658.154q36.462-23.385 78.231-39.923 41.769-16.539 88.077-16.539 42.603 0 82.84 14.923T424-658.462v-66.461h352v427.692q0 23.847-16.077 39.924Q743.846-241.23 720-241.23H393.231ZM456-329.231h216v20q0 15.3 10.289 25.65 10.29 10.35 25.5 10.35 15.211 0 25.711-10.35 10.5-10.35 10.5-25.65v-383.692H456v67l196 196.486v22.822h-23.308L521-515.308l-48.615 49.616q-4.537 4.303-7.884 6.421-3.347 2.117-8.501 7.081v122.959ZM245.308-564.616H340v89.308q14.231 6.901 25.096 9.297 10.866 2.395 20.216 2.395 18.303 0 35.149-7.307 16.847-7.308 29.385-19.846l46.846-46.846-80.846-81.847q-30.092-30.076-69.431-46.115-39.338-16.038-80.415-16.038-29.588 0-57.525 8.115-27.936 8.115-49.782 22.269l86.615 86.615ZM640-297.231H369.231q0 8 4.5 16t18.5 8h259.923q-5.847-5.23-8.5-11.479Q641-290.958 640-297.231Zm-270.769 0v24-24Z"/></svg>