<svg xmlns="http://www.w3.org/2000/svg" height="20" viewBox="0 -960 960 960" width="20"><path d="M396-256q-19.013 0-32.006-12.5Q351-281 352-300v-20h84v-117.543Q403-426 368.5-431.5 334-437 314-454v-80h-78L108-654q36-19 75-34.5t83-15.5q46.154 0 89.577 17Q399-670 436-640v-72h328v412q0 19-12.5 31.5T720-256H396Zm60-64h216v8q0 15.3 10.289 25.65 10.29 10.35 25.5 10.35Q723-276 733.5-286.35 744-296.7 744-312v-380H456v79l190 190.486V-408h-15L521-519l-53 54q-3.844 3.611-5.922 4.806Q460-459 456-454.036V-320ZM243-554h91v87q16.769 8.286 29.019 11.143Q375.269-453 385-453q20 0 38-8t31-21l51-51-85-86q-31-31-71.5-47.5T266-683q-32.357 0-63.179 9.5Q172-664 149-648l94 94Z"/></svg>