<svg xmlns="http://www.w3.org/2000/svg" height="24" viewBox="0 -960 960 960" width="24"><path d="m794.48-299.738-98.827-99.392-118.13-118.131V-680q0-34.565 15.347-71.478 15.348-36.913 39.479-67.327 24.13-30.413 52.978-50.043 28.848-19.631 56.413-19.631 23.088 0 37.914 18.522t14.826 43.175v527.044Zm65.39 251.782q-13.13 13.13-31.326 13.413-18.196.283-31.326-12.848l-72.609-72.174h69.871q0 20.391-14.044 34.718-14.043 14.326-34.435 14.326-20.391 0-34.435-14.326-14.043-14.327-14.043-34.718v-27.086L56-788.174Q42.87-801.304 42.87-820q0-18.696 13.13-31.826 13.13-13.131 31.326-13.131 18.196 0 31.326 13.131L859.87-109.609q13.131 13.131 13.131 30.827 0 17.695-13.131 30.826ZM506.001-588.782l-97.522-96.958V-840q0-20.391 14.326-34.435 14.326-14.044 34.718-14.044 20.391 0 34.435 14.044 14.043 14.044 14.043 34.435v251.218ZM368.479-725.74l-96.958-97.522 1.696-27.478q2.826-16.434 15.739-27.087 12.914-10.652 34.435-10.652 18.696 0 31.892 13.196 13.196 13.196 13.196 31.892v117.651ZM231.521-863.262l-25.781-25.217q11.086 0 18.434 7.065 7.347 7.065 7.347 18.152ZM320-71.522q-20.391 0-34.435-14.043Q271.521-99.609 271.521-120v-315.826q-54.956-14-96.239-61.652t-41.283-111.001V-835.48l97.522 97.523v129.478h40v-89.478l89.044 89.044v.434H361l106.392 106.392q-19.391 24.696-44.87 41.761-25.478 17.066-54.043 24.5V-120q0 20.391-14.044 34.435Q340.391-71.52 320-71.52Z"/></svg>