<svg xmlns="http://www.w3.org/2000/svg" height="24" viewBox="0 -960 960 960" width="24"><path d="m709.231-363.461-40.692-40.693v-15.384h-15.385l-82.385-82.385V-680q0-40.154 10.269-72.962 10.27-32.807 25.962-56.807t34.462-37.116Q660.231-860 677.231-860q15.692 0 23.846 10.154t8.154 27.615v458.77ZM858.769-73.154q-6.615 6.616-14.269 6.616t-14.269-6.616L701.846-201.307h7.385v81.538q0 8.538-5.731 14.269-5.731 5.73-14.269 5.73-8.539 0-14.269-5.73-5.731-5.731-5.731-14.269v-114.154L89.846-813.308q-5.846-5.846-6.23-14-.385-8.154 6.23-14.769t14.269-6.615q7.654 0 14.27 6.615l740.384 740.615q5.846 5.847 6.231 13.77.385 7.923-6.231 14.538Zm-408-548.769-40-40V-840q0-8.539 5.731-14.269Q422.231-860 430.769-860q8.539 0 14.27 5.731 5.73 5.73 5.73 14.269v218.077ZM340-732.692l-40-40V-840q0-8.539 5.731-14.269Q311.461-860 320-860t14.269 5.731Q340-848.539 340-840v107.308ZM229.231-843.461 212.692-860q6.693 0 11.616 4.923t4.923 11.616ZM320-100q-8.539 0-14.269-5.731Q300-111.461 300-120v-341.385q-46.385-7.076-78.577-42.538-32.192-35.462-32.192-86.846V-771l40 40v140.231H300v-69.462l40 40v29.462h29.461l64.616 64.615q-14.462 26.077-39.115 43.346-24.654 17.27-54.962 21.423V-120q0 8.539-5.731 14.269Q328.539-100 320-100Z"/></svg>