<svg xmlns="http://www.w3.org/2000/svg" height="24" viewBox="0 -960 960 960" width="24"><path d="M403.587-724.304h152.826v-80H403.587v80ZM720-40q-83 0-141.5-58.5T520-240q0-83 58.5-141.5T720-440q83 0 141.5 58.5T920-240q0 83-58.5 141.5T720-40ZM71.87-111.869v-612.435h240.717v-171.001h334.826v171.001h240.718v262q-36.435-28.109-79.109-42.902Q766.348-520 720-520q-116 0-198 82t-82 198q0 33.63 7.696 66.044 7.695 32.413 23.848 62.087H71.869ZM720-116.652q9.435 0 16.152-6.718 6.718-6.717 6.718-16.152 0-9.435-6.718-16.272-6.717-6.836-16.152-6.836-9.435 0-16.152 6.836-6.718 6.837-6.718 16.272 0 9.435 6.718 16.152 6.717 6.718 16.152 6.718Zm-21.913-86.696h43.826v-160h-43.826v160Z"/></svg>