<svg xmlns="http://www.w3.org/2000/svg" height="20" viewBox="0 -960 960 960" width="20"><path d="M408-699.999h144v-72H408v72ZM719.774-68.001q-71.696 0-121.735-50.265-50.038-50.264-50.038-121.96t50.265-121.735q50.264-50.038 121.96-50.038t121.735 50.265q50.038 50.264 50.038 121.96t-50.265 121.735q-50.264 50.038-121.96 50.038Zm-603.773-96v-535.998h240v-123.998h247.998v123.998h240v249.769q-27.863-16.847-59.816-25.308-31.953-8.461-64.183-8.461-101.922 0-172.961 71.038Q476.001-341.922 476.001-240q0 19.284 2.962 38.257 2.961 18.973 8.5 37.742H116.001ZM720-155.539q9.6 0 16.415-6.816 6.816-6.815 6.816-16.415 0-9.6-6.816-16.415-6.815-6.816-16.415-6.816-9.6 0-16.415 6.816-6.816 6.815-6.816 16.415 0 9.6 6.816 16.415 6.815 6.816 16.415 6.816Zm-21.692-92.923h43.384v-75.999h-43.384v75.999Z"/></svg>