<svg xmlns="http://www.w3.org/2000/svg" height="24" viewBox="0 -960 960 960" width="24"><path d="m776-585-27.538-27.539 36.153-37.923-134.153-134.153-37.923 36.153L584-777l64.462-66.462 194 194L776-585ZM119.538-311.538 184-376l28.538 28.539-36.384 36.153 135.154 135.154 36.153-36.384L376-184l-64.462 64.462-192-192Zm606.539-105.385L806.154-497 497-806.154l-80.077 80.077 309.154 309.154ZM463-153.846l80.846-81.077-308.923-308.923L153.846-463 463-153.846Zm-10.615-228.616 125.384-125.153-70.154-70.154-125.153 125.384 69.923 69.923Zm148.538 148.308L463-97.769 97.769-463l136.385-137.923 119.769 120 125.384-125.385-119.23-119.769L497.769-863.77 863.77-497.769 726.077-360.077l-119.769-119.23-125.385 125.384 120 119.769Z"/></svg>