<svg xmlns="http://www.w3.org/2000/svg" height="20" viewBox="0 -960 960 960" width="20"><path d="M52.476-526.304 277.26-920.525l224.219 394.221H52.476Zm225.35 418.48q-68.479 0-115.849-47.087-47.37-47.088-47.37-115.566 0-68.479 47.37-115.849 47.37-47.37 115.849-47.37 68.478 0 115.565 47.37 47.088 47.37 47.088 115.849 0 68.478-47.088 115.566-47.087 47.087-115.565 47.087Zm254.696 0v-325.872h325.871v325.872H532.522Zm163.218-418.48q-63.044-52.914-102.057-87.305-39.014-34.39-61.37-60.196-22.356-25.805-30.574-46.783-8.217-20.979-8.217-46.914 0-51.092 31.674-83.557t84.047-32.465q26.671 0 48.302 10.783 21.63 10.782 38.195 33.348 16.566-22.566 38.979-33.348 22.413-10.783 48.719-10.783 51.738 0 83.129 32.465 31.392 32.465 31.392 83.557 0 25.935-7.718 46.914-7.717 20.978-30.26 46.568-22.543 25.59-61.87 59.696-39.327 34.106-102.371 88.02Z"/></svg>