<svg xmlns="http://www.w3.org/2000/svg" height="20" viewBox="0 -960 960 960" width="20"><path d="m96-528 192-336 192 336H96Zm192 384q-60 0-102-42.238t-42-101.551Q144-348 186-390t102-42q60 0 102 42t42 102q0 60-42 102t-102 42Zm.212-72Q318-216 339-237.212q21-21.213 21-51Q360-318 338.788-339q-21.213-21-51-21Q258-360 237-338.788q-21 21.213-21 51Q216-258 237.212-237q21.213 21 51 21ZM221-600h134l-67-119-67 119Zm307 456v-288h288v288H528Zm72-72h144v-144H600v144Zm72-312q-54-45-89.057-74.586t-56-52Q506-677 497.5-696t-8.5-42.674q0-42.614 28-71.97T589.459-840Q615-840 635.5-829.5 656-819 672-797q16-22 37-32.5t46.176-10.5Q799-840 827-810.644t28 71.97Q855-715 847-696t-29.13 41.198q-21.13 22.199-56.5 51.5Q726-574 672-528Zm0-96q68-57 89.5-78.5T783-740q0-11-8-19.5t-18.739-8.5Q748-768 741-764t-12 10l-57 53-56-53q-6-6-13.207-10-7.207-4-14.793-4-11 0-19 8.5t-8 19.5q0 17 22.5 39t88.5 77Zm0-77Zm-383 48Zm0 362Zm382 0Z"/></svg>