<svg xmlns="http://www.w3.org/2000/svg" height="20" viewBox="0 -960 960 960" width="20"><path d="m19-525 250-439 249 439H19ZM270-80q-74.025 0-126.012-51.969Q92-183.938 92-256.916 92-331 143.982-383q51.983-52 126-52Q344-435 395.5-383.018q51.5 51.983 51.5 126Q447-183 395.306-131.5T270-80Zm.177-118Q295-198 312-215.394q17-17.393 17-41.818 0-24.838-17.394-42.313Q294.213-317 269.788-317q-24.838 0-42.313 17.677T210-256.823Q210-232 227.677-215t42.5 17ZM223-643h92l-46-81-46 81ZM536-80v-355h355v355H536Zm118-118h119v-119H654v119Zm60-327q-70-59-112.057-97.086t-65.5-66.5Q513-717 505-739.507q-8-22.507-8-50.167 0-57.614 34.5-92.47T624.459-917q27.641 0 49.969 11.032Q696.756-894.936 714-872q17.422-22.936 40.511-33.968Q777.6-917 805.176-917 863-917 897-882.144t34 92.47q0 27.66-7.5 50.167t-31.13 50.705q-23.63 28.199-66 66Q784-585 714-525Zm0-160q59-50 79-67t20-29q0-5.621-4.786-10.81-4.785-5.19-9.953-5.19-5.502 0-9.882 3-4.379 3-8.379 6l-66 55-64-55q-5-3-10.207-6-5.207-3-9.793-3-5.429 0-10.214 5.19Q615-786.621 615-781q0 13 21 30.5t78 65.5Zm0-60Zm-444 68Zm1 417Zm441 0Z"/></svg>