<svg xmlns="http://www.w3.org/2000/svg" height="20" viewBox="0 -960 960 960" width="20"><path d="m126.769-551.077 162.769-273.692 162.77 273.692H126.769Zm163.539 387.846q-53.077 0-88.923-36.084-35.847-36.084-35.847-88.144 0-52.849 35.847-89.08 35.846-36.23 88.923-36.23 53.077 0 88.923 35.846 35.846 35.846 35.846 88.923 0 53.077-35.846 88.923-35.846 35.846-88.923 35.846Zm.212-32q39.018 0 65.788-26.981 26.769-26.982 26.769-66 0-39.019-26.982-65.788-26.981-26.769-66-26.769-39.018 0-65.787 26.981-26.769 26.982-26.769 66 0 39.019 26.981 65.788 26.982 26.769 66 26.769ZM184.846-583.077H395L289.538-763.615 184.846-583.077Zm363.923 419.846v-249.538h249.539v249.538H548.769Zm32-32h185.539v-185.538H580.769v185.538Zm92.769-355.846q-34-26.538-61.364-48.432-27.365-21.894-47.539-43.154-20.174-21.26-30.981-41.799-10.808-20.538-10.808-44.982 0-33.382 19.923-55.046t53.614-21.664q22.453 0 40.266 9.731 17.813 9.73 36.889 33.269 19.077-22.769 38.154-32.885 19.077-10.115 40.407-10.115 31.992 0 52.062 22.893 20.07 22.893 20.07 56.125 0 23.674-10.308 43.828-10.307 20.154-30.668 40.814-20.361 20.66-48.039 42.269-27.677 21.61-61.678 49.148Zm0-42.923q65.693-50.846 92.193-80.808 26.5-29.961 26.5-55.961 0-17.154-12.616-30.269-12.615-13.116-28.739-13.116-11.178 0-20.95 6.308-9.772 6.308-22.464 20l-33.924 31.461-32.923-31.461q-14.461-14.462-23.976-20.385-9.514-5.923-20.178-5.923-17.153 0-29.384 11.962-12.231 11.961-12.231 29.884 0 28.539 27.5 59 27.5 30.462 91.192 79.308Zm0-94.692Zm-382.23 21.846Zm0 375.846Zm381.23 0Z"/></svg>