<svg xmlns="http://www.w3.org/2000/svg" height="24" viewBox="0 -960 960 960" width="24"><path d="m61.587-519.283 213.869-384.631 213.631 384.631h-427.5Zm214.109 414.588q-69.587 0-118.859-49.153Q107.565-203 107.565-272.587t49.272-118.859q49.272-49.271 118.859-49.271 69.587 0 118.739 49.271 49.152 49.272 49.152 118.859 0 69.587-49.152 118.739-49.152 49.153-118.739 49.153Zm246.217 0v-336.022h336.022v336.022H521.913Zm168.131-414.588q-60.826-51.347-101-86.38-40.174-35.033-63.772-61.468-23.598-26.434-33.478-49.271-9.881-22.837-9.881-48.794 0-48.587 33.054-80.902 33.055-32.315 83.403-32.315 27.478 0 51.456 12.619 23.979 12.62 40.218 34.859 16.239-22.239 40.337-34.859 24.098-12.619 51.576-12.619 50.348 0 83.283 32.315 32.934 32.315 32.934 80.902 0 25.957-9.88 48.794-9.881 22.837-33.478 49.271-23.598 26.435-63.772 61.468t-101 86.38Z"/></svg>