<svg xmlns="http://www.w3.org/2000/svg" height="20" viewBox="0 -960 960 960" width="20"><path d="m77.587-527.283 205.869-360.631 205.631 360.631h-411.5Zm206.109 398.588q-63.587 0-107.859-44.153Q131.565-217 131.565-280.587t44.272-107.859q44.272-44.271 107.859-44.271 63.587 0 107.739 44.271 44.152 44.272 44.152 107.859 0 63.587-44.152 107.739-44.152 44.153-107.739 44.153Zm246.217 0v-304.022h304.022v304.022H529.913Zm152.131-398.588q-57.826-48.347-94.557-79.966-36.731-31.619-58.272-55.468-21.541-23.848-29.921-43.685-8.381-19.837-8.381-44.468 0-46.201 29.554-76.872 29.555-30.671 77.362-30.671 26.019 0 46.997 10.619 20.979 10.62 37.218 32.859 16.239-22.239 37.837-32.859 21.598-10.619 47.251-10.619 47.173 0 76.608 30.671 29.434 30.671 29.434 76.872 0 24.631-7.88 44.468-7.881 19.837-29.608 43.47-21.728 23.633-58.772 54.967-37.044 31.335-94.87 80.682Z"/></svg>