<svg xmlns="http://www.w3.org/2000/svg" height="24" viewBox="0 -960 960 960" width="24"><path d="m110.769-543.077 170.769-297.692 170.77 297.692H110.769Zm171.539 403.846q-59.077 0-99.923-40.846-40.847-40.846-40.847-99.923 0-58.308 40.847-99.539 40.846-41.23 99.923-41.23 58.307 0 99.538 41.23 41.231 41.231 41.231 99.539 0 59.077-41.231 99.923-41.231 40.846-99.538 40.846Zm258.461 0v-281.538h281.539v281.538H540.769Zm140.769-403.846q-37-29.538-67.807-54.846-30.808-25.308-53.039-49.154-22.231-23.846-34.538-47.385-12.308-23.538-12.308-49.307 0-35.77 23.423-59.077 23.423-23.308 59.654-23.308 23.923 0 44.731 11.731 20.808 11.73 39.884 35.269 19.077-22.769 40.654-34.885 21.577-12.115 44.731-12.115 35.462 0 58.885 24.461 23.423 24.462 23.423 60.231 0 25-12.308 48.154-12.307 23.154-34.538 46.616-22.231 23.461-53.039 48.769-30.807 25.308-67.808 54.846Z"/></svg>