<svg xmlns="http://www.w3.org/2000/svg" height="20" viewBox="0 -960 960 960" width="20"><path d="m437-345-45 231q-4 19-17.414 30-13.414 11-31.916 11Q318-73 302-91.5T290-134l94-472q6.125-32 29.062-51Q436-676 469-676q23 0 48.5 13t38.5 33l15 26q32 51 48.5 66.5T657-520v-31q0-16.9 11.05-27.95T696-590q16.9 0 27.95 11.05T735-551v439q0 16.9-11.05 27.95T696-73q-16.9 0-27.95-11.05T657-112v-303.734q-32-6.266-62.107-24.477T538-487l-15 83 49.077 49.811Q581-345.571 586-334.786 591-324 591-311v187q0 21.675-14.602 36.338Q561.796-73 540.211-73q-21.586 0-36.399-14.662Q489-102.325 489-124v-169l-52-52Zm-219-55-27-5q-19.941-3.8-29.971-20.4Q151-442 155-460l28-141q8-37 38-60.5t65.942-15.2Q306-672 317-656.5t7 34.5l-37 177q-4.8 23.229-25.4 36.614Q241-395 218-400Zm309.885-311Q487-711 458-740.748q-29-29.748-29-70.633 0-40.885 29.115-69.752Q487.23-910 528.115-910 569-910 598-880.885q29 29.115 29 70Q627-770 597.885-740.5q-29.115 29.5-70 29.5Z"/></svg>