<svg xmlns="http://www.w3.org/2000/svg" height="20" viewBox="0 -960 960 960" width="20"><path d="m388-421-56 290q-1 4-3.651 6.5-2.65 2.5-6.108 2.5-4.968 0-8.605-3.5Q310-129 311-134l93-483q2-14 13.892-25.5Q429.785-654 449-654q13.162 0 28.365 8 15.203 8 22.635 19l16 26q34 53 71 80t91 38v-69q0-3.467 2.253-5.733 2.254-2.267 5.7-2.267 3.447 0 5.747 2.267 2.3 2.266 2.3 5.733v422q0 3.467-2.253 5.733-2.254 2.267-5.7 2.267-3.447 0-5.747-2.267-2.3-2.266-2.3-5.733v-337.734q-49-9.266-96.107-41.477T494-595l-36 186 64.077 63.811Q526-341 528-336.457q2 4.544 2 10.457v194q0 4.25-2.825 7.125-2.824 2.875-7 2.875-4.175 0-7.175-2.875T510-132v-198l-122-91Zm-109-45-27-4q-1-1-1-.5t1 1.5l28-141q5-18 18-30t28.942-7.7Q332-646 335.5-641t2.5 10l-29 146q-2.3 9.143-11.65 15.071Q288-464 279-466Zm228.752-246q-28.152 0-47.952-20.048-19.8-20.048-19.8-48.2 0-28.152 20.048-47.952 20.048-19.8 48.2-19.8 28.152 0 47.952 20.048 19.8 20.048 19.8 48.2 0 28.152-20.048 47.952-20.048 19.8-48.2 19.8Z"/></svg>