<svg xmlns="http://www.w3.org/2000/svg" height="24" viewBox="0 -960 960 960" width="24"><path d="M360-468.695q38.087 0 64.696-26.609 26.609-26.609 26.609-64.696 0-38.087-26.609-64.696-26.609-26.609-64.696-26.609-38.087 0-64.696 26.609-26.609 26.609-26.609 64.696 0 38.087 26.609 64.696 26.609 26.609 64.696 26.609Zm240 0q38.087 0 64.696-26.609 26.609-26.609 26.609-64.696 0-38.087-26.609-64.696-26.609-26.609-64.696-26.609-38.087 0-64.696 26.609-26.609 26.609-26.609 64.696 0 38.087 26.609 64.696 26.609 26.609 64.696 26.609Zm-229.826 360v-178.088h59.652l2.826 178.088h-62.478Zm154.913 0 5.087-178.088h59.652v178.088h-64.739Zm-310.391 0q-44.305 0-75.153-30.848-30.848-30.848-30.848-75.153V-600q0-104.522 73.392-177.913Q255.478-851.305 360-851.305h240q104.522 0 177.913 73.392Q851.305-704.522 851.305-600v385.304q0 44.305-30.848 75.153-30.848 30.848-75.153 30.848H678.87l11.304-172.435q0-44.305-30.848-75.154-30.848-30.848-75.153-30.848H375.827q-44.305 0-75.153 30.848-30.848 30.849-30.848 75.154l7.348 172.435h-62.478Z"/></svg>