<svg xmlns="http://www.w3.org/2000/svg" height="20" viewBox="0 -960 960 960" width="20"><path d="M294-196v-20h72v20h-72Zm150 0v-20h72v20h-72Zm150 0v-20h72v20h-72Zm150-88v-72h20v72h-20Zm0-160v-72h20v72h-20Zm0-160v-72h20v72h-20ZM248-288q-21.7 0-36.85-15.15Q196-318.3 196-340v-372q0-21.7 15.15-36.85Q226.3-764 248-764h372q21.7 0 36.85 15.15Q672-733.7 672-712v372q0 21.7-15.15 36.85Q641.7-288 620-288H248Zm0-20h372q14 0 23-9t9-23v-372q0-14-9-23t-23-9H248q-14 0-23 9t-9 23v372q0 14 9 23t23 9Zm-32 0v-436 436Zm528-436v-20q8.7 0 14.35 5.65T764-744h-20Zm0 548v-20h20q0 9-5.65 14.5T744-196Zm-528 0q-8.7 0-14.35-5.65T196-216h20v20Z"/></svg>