<svg xmlns="http://www.w3.org/2000/svg" height="20" viewBox="0 -960 960 960" width="20"><path d="M294-164.001V-216h72v51.999h-72Zm150 0V-216h72v51.999h-72Zm150 0V-216h72v51.999h-72Zm150-126.153v-72h51.999v72H744ZM744-444v-72h51.999v72H744Zm0-153.846v-72h51.999v72H744ZM228.309-288q-26.623 0-45.465-18.842-18.843-18.842-18.843-45.465v-379.384q0-26.623 18.843-45.465 18.842-18.843 45.465-18.843h379.384q26.623 0 45.465 18.843Q672-758.314 672-731.691v379.384q0 26.623-18.842 45.465Q634.316-288 607.693-288H228.309Zm0-51.999h379.384q5.385 0 8.847-3.461 3.461-3.462 3.461-8.847v-379.384q0-5.385-3.461-8.847-3.462-3.462-8.847-3.462H228.309q-5.385 0-8.847 3.462-3.462 3.462-3.462 8.847v379.384q0 5.385 3.462 8.847 3.462 3.461 8.847 3.461Zm-12.309 0V-744-339.999ZM744-744v-51.999q21.622 0 36.811 15.188 15.188 15.189 15.188 36.811H744Zm0 579.999V-216h51.999q0 21.922-15.188 36.961-15.189 15.038-36.811 15.038Zm-528 0q-21.622 0-36.811-15.188-15.188-15.189-15.188-36.811H216v51.999Z"/></svg>