<svg xmlns="http://www.w3.org/2000/svg" height="24" viewBox="0 -960 960 960" width="24"><path d="M480-60.782q-86.957 0-163.348-32.913-76.392-32.913-133.218-89.739-56.826-56.826-89.74-133.218Q60.783-393.043 60.783-480q0-86.957 32.913-163.348 32.913-76.392 89.739-133.218 56.826-56.826 133.218-89.739Q393.043-899.218 480-899.218q86.957 0 163.348 32.913 76.392 32.913 133.218 89.739 56.826 56.826 89.739 133.218Q899.218-566.957 899.218-480v313.217q0 43.74-31.13 74.87-31.131 31.131-74.871 31.131H480Zm0-106.001q130.609 0 221.913-91.304T793.217-480q0-130.609-91.304-221.913T480-793.217q-130.609 0-221.913 91.304T166.783-480q0 16.217 2.152 32.847 2.152 16.63 5.891 31.978l88.085-88.085q14.392-14.392 34.979-15.457 20.587-1.065 36.544 12.326l94.391 79.087 113.477-113.478h-16.217q-19.826 0-33.587-13.761-13.761-13.761-13.761-33.587 0-19.826 13.761-33.587 13.761-13.761 33.587-13.761h125.087q22.088 0 37.544 15.457 15.457 15.456 15.457 37.544v125.087q0 19.826-13.761 33.587-13.761 13.761-33.587 13.761-19.826 0-33.587-13.761-13.761-13.761-13.761-33.587v-16.217L467.869-332.434q-14.392 14.391-35.261 15.957-20.87 1.565-36.827-12.827l-92.826-80.086-90.303 90.303q42 69 111.805 110.652Q394.261-166.783 480-166.783Zm301.696 36.957q21.522 0 35-14.608 13.478-14.609 13.478-33.87 0-21.522-14.608-35.001-14.609-13.478-33.87-13.478-19.261 0-33.87 13.478-14.609 13.479-14.609 35.001 0 19.261 14.609 33.87 14.609 14.608 33.87 14.608ZM440.869-480Z"/></svg>