<svg xmlns="http://www.w3.org/2000/svg" height="24" viewBox="0 -960 960 960" width="24"><path d="M768-164q11 0 19.5-8.5T796-192q0-11-8.5-19.5T768-220q-11 0-19.5 8.5T740-192q0 11 8.5 19.5T768-164Zm-288 32q-95.275 0-177.138-47.5Q221-227 173-316l151-151 110 94q9.209 8 21.105 7Q467-367 475-375l191-190v85q0 5.95 4.035 9.975 4.035 4.025 10 4.025t9.965-4.025q4-4.025 4-9.975v-104q0-12.75-8.625-21.375T664-614H560q-5.95 0-9.975 4.035-4.025 4.035-4.025 10t4.025 9.965q4.025 4 9.975 4h86L454-394l-112-93q-8.93-8-20.465-7.5T302-486L160-344q-14-29-21-66.631-7-37.632-7-69.369 0-72.21 27.391-135.72 27.392-63.51 74.348-110.49 46.957-46.98 110.435-74.385Q407.652-828 479.826-828q72.174 0 135.732 27.405 63.559 27.405 110.574 74.385 47.016 46.98 74.442 110.49Q828-552.21 828-480v288q0 24.75-17.625 42.375T768-132H480Z"/></svg>