<svg xmlns="http://www.w3.org/2000/svg" height="20" viewBox="0 -960 960 960" width="20"><path d="M480-136q-71.076 0-133.588-26.839-62.512-26.84-109.612-73.922-47.1-47.082-73.95-109.716Q136-409.111 136-480.325q0-71.214 26.839-133.451 26.84-62.237 73.922-109.365 47.082-47.127 109.716-73.993Q409.111-824 480.325-824q71.214 0 133.451 26.85 62.237 26.85 109.365 73.95 47.127 47.1 73.993 109.3Q824-551.7 824-480v287.385q0 23.354-16.631 39.984Q790.739-136 767.385-136H480Zm0-32q130 0 221-91t91-221q0-130-91-221t-221-91q-130 0-221 91t-91 221q0 31.385 5.538 62.769 5.539 31.385 18.385 61l124.9-124.9q9.115-9.215 19.992-9.119 10.877.096 19.535 9.176l101.188 96.997L645.461-572H564q-6.8 0-11.4-4.547-4.6-4.547-4.6-11.269 0-6.723 4.6-11.453Q557.2-604 564-604h107.692q12.031 0 20.17 8.138 8.138 8.139 8.138 20.17V-468q0 6.8-4.547 11.4-4.547 4.6-11.269 4.6-6.723 0-11.453-4.6Q668-461.2 668-468v-81.692L475.615-357.308q-8.692 8.693-19.919 8.693t-20.142-9.137l-100.323-96.171L209-326.692Q250.692-253 323.502-210.5 396.311-168 480-168Zm278.559-6.461q10.595 0 18.787-7.982 8.193-7.982 8.193-18.577 0-10.595-7.982-18.788Q769.575-228 758.98-228q-10.595 0-18.788 7.982Q732-212.036 732-201.441q0 10.595 7.982 18.787 7.982 8.193 18.577 8.193ZM476.231-480Z"/></svg>