<svg xmlns="http://www.w3.org/2000/svg" height="20" viewBox="0 -960 960 960" width="20"><path d="M213.514-642.348q-19.167 0-32.776-13.398-13.609-13.398-13.609-32.565 0-19.168 13.398-32.777 13.399-13.608 32.566-13.608t32.776 13.398q13.609 13.398 13.609 32.566 0 19.167-13.398 32.776-13.399 13.608-32.566 13.608ZM395.54-84.695q-69.627 0-118.236-48.609Q228.695-181.913 228.695-252v-228q0-106.087 74.859-178.696T486-731.305h57q72.696 0 124.5 48.447Q719.305-634.41 719.305-564q0 54.391-31.478 97.435-31.479 43.044-82.305 60.739-18.609 6.87-30.413 22.544-11.804 15.673-11.804 35.282v96q0 69.847-48.863 118.576T395.54-84.695Zm-84.33-646.61q-19.167 0-32.776-13.459-13.609-13.459-13.609-32.715v-12q0-19.257 13.398-32.716 13.399-13.459 32.566-13.459t32.776 13.459q13.609 13.459 13.609 32.716v12q0 19.256-13.399 32.715-13.398 13.459-32.565 13.459Zm85.038 548.609q29.1 0 49.078-20.153T465.304-252v-96q0-51.522 29.261-91.631t78.217-57.37q22.044-6.304 35.283-24.63T621.304-563q0-29.217-23.261-49.76-23.261-20.544-55.043-20.544h-57q-66.123 0-112.713 43.978Q326.696-545.348 326.696-480v228q0 28.998 20.226 49.151 20.226 20.153 49.326 20.153Zm49.658-572.609q-19.167 0-32.776-13.459-13.609-13.459-13.609-32.715v-24q0-19.257 13.399-32.716 13.398-13.459 32.565-13.459 19.167 0 32.776 13.459 13.609 13.459 13.609 32.716v24q0 19.256-13.398 32.715-13.398 13.459-32.566 13.459Zm134.697 0q-19.168 0-32.776-13.459-13.609-13.459-13.609-32.715v-48q0-19.257 13.398-32.716t32.566-13.459q19.167 0 32.776 13.459 13.609 13.459 13.609 32.716v48q0 19.256-13.399 32.715-13.398 13.459-32.565 13.459ZM739.089-720q-28.957 0-49.566-20.609t-20.609-49.565v-35.305q0-28.957 20.609-49.566t49.566-20.609q28.956 0 49.565 20.609 20.609 20.609 20.609 49.566v35.305q0 28.956-20.609 49.565Q768.045-720 739.089-720Z"/></svg>