<svg xmlns="http://www.w3.org/2000/svg" height="20" viewBox="0 -960 960 960" width="20"><path d="m216.912-147.259-47.173 46.608q-14.957 14.957-34.544 14.957-19.587 0-34.544-14.957-14.957-14.957-14.957-34.544 0-19.587 14.957-34.544l46.608-47.173-30.955-8.348q-19.653-5.13-29.914-23.152-10.26-18.022-5.13-37.675 5.13-19.652 22.652-29.696 17.522-10.043 37.175-4.913l32.52 8.348-9.347-30.956q-5.131-19.652 5.13-37.174t29.914-22.652q19.652-5.131 37.457 4.63 17.804 9.761 22.935 29.413l7.217 32.521 117.651-117.651-30.955-9.348q-19.653-5.13-30.197-22.652-10.543-17.522-5.413-37.174 5.131-19.653 23.153-29.414 18.022-9.761 37.674-4.63l32.086 8.347-8.347-32.521q-5.131-19.652 4.63-37.457 9.761-17.804 29.414-22.935 19.652-5.13 37.174 5.413 17.522 10.544 22.652 30.197l9.348 30.955 117.651-117.651-32.521-7.217q-19.652-5.131-29.413-22.935-9.761-17.805-4.63-37.457 5.13-19.653 22.652-29.914 17.522-10.261 37.174-5.13l30.956 9.347-7.782-32.52q-5.131-19.653 4.63-37.175t29.413-22.652q19.653-5.131 37.675 5.13t23.152 29.914l8.348 30.955 47.173-46.608q14.957-14.957 34.544-14.957 19.587 0 34.544 14.957 14.957 14.957 14.957 34.544 0 19.587-14.957 34.544l-46.608 47.173 30.955 8.348q19.653 5.13 29.914 23.152 10.261 18.022 5.13 37.675-5.13 19.652-22.652 29.696-17.522 10.043-37.175 4.913l-32.52-8.348 9.347 30.956q5.131 19.652-5.13 37.174t-29.914 22.652q-19.652 5.131-37.457-4.63-17.804-9.761-22.935-29.413l-7.217-32.521-117.651 117.651 30.955 9.348q19.653 5.13 30.197 22.652 10.543 17.522 5.413 37.174-5.131 19.653-23.153 29.414-18.022 9.761-37.674 4.63l-32.086-8.347 8.347 32.521q5.131 19.652-4.63 37.457-9.761 17.804-29.414 22.935-19.652 5.13-37.174-5.413-17.522-10.544-22.652-30.197l-9.348-30.955-117.651 117.651 32.521 7.217q19.652 5.131 29.413 22.935 9.761 17.805 4.63 37.457-5.13 19.653-22.652 29.914-17.522 10.261-37.174 5.13l-30.956-9.347 7.782 32.52q5.131 19.653-4.63 37.175T286.087-81.26q-19.653 5.13-37.675-5.13-18.022-10.261-23.152-29.914l-8.348-30.955Z"/></svg>