<svg xmlns="http://www.w3.org/2000/svg" height="24" viewBox="0 -960 960 960" width="24"><path d="M232.478-100.782q-34.305 0-65.414-23.065-31.109-23.066-40.936-56.805-24.434-83.435-39.869-143.805-15.435-60.369-24.652-106.021-9.218-45.652-12.935-81.087Q44.955-547 44.955-580q0-99.913 69.652-169.566 69.653-69.652 169.566-69.652h218.653q29.826-36 73.587-58t95.457-22q36.305 0 57.479 22.869 21.174 22.87 21.174 55.219 0 7.13-1.5 13.978t-3.5 12.978q-2.869 8.739-5.804 17.478t-4.935 19.478l77.434 78h49.261q22.088 0 37.544 15.456 15.457 15.457 15.457 37.544v220.175q0 17.522-10.044 31.196-10.043 13.674-27 19.239l-83.304 26.87-45.478 152.303q-10.261 33.914-38.327 54.784-28.065 20.869-63.544 20.869h-67.565q-39.783 0-69.783-23.217t-36.218-56.783h-70.956q-6.218 33.566-36.218 56.783-30 23.217-69.783 23.217h-63.782ZM638.87-498.521q22.087 0 37.543-15.456 15.457-15.457 15.457-37.544 0-22.088-15.457-37.544-15.456-15.457-37.543-15.457-22.088 0-37.544 15.457-15.457 15.456-15.457 37.544 0 22.087 15.457 37.544 15.456 15.456 37.544 15.456Zm-168.479-73.782q20.391 0 34.435-14.326 14.044-14.326 14.044-34.718 0-20.391-14.044-34.435-14.044-14.044-34.435-14.044H343.608q-20.392 0-34.435 14.044-14.044 14.044-14.044 34.435 0 20.392 14.326 34.718 14.327 14.326 34.718 14.326h126.218Z"/></svg>