<svg xmlns="http://www.w3.org/2000/svg" height="24" viewBox="0 -960 960 960" width="24"><path d="M266-172q-20 0-36.77-13.091Q212.46-198.182 207-217q-25-90-39.5-147.5t-22.5-96q-8-38.5-10.5-65T132-580q0-70.255 48.873-119.127Q229.745-748 300-748h226q27-36 62-58t72-22q3.333 0 5.667 2.386 2.333 2.387 2.333 5.796 0 .818-.5 1.318-.5.5-.5 2.5-5 13-10 31t-11 52l125 125h27q12.75 0 21.375 8.625T828-578v137q0 10.242-5.5 18.121Q817-415 807-412l-82 27-51 170q-6.026 19.614-21.844 31.307Q636.338-172 616-172h-24q-24.75 0-42.375-17.625T532-232v-20H348v20q0 24.75-17.625 42.375T288-172h-22Zm374-360q11 0 19.5-8.5T668-560q0-11-8.5-19.5T640-588q-11 0-19.5 8.5T612-560q0 11 8.5 19.5T640-532Zm-134-94q5.95 0 9.975-4.035 4.025-4.035 4.025-10T515.975-650q-4.025-4-9.975-4H334q-5.95 0-9.975 4.035-4.025 4.035-4.025 10t4.025 9.965q4.025 4 9.975 4h172Z"/></svg>