<svg xmlns="http://www.w3.org/2000/svg" height="24" viewBox="0 -960 960 960" width="24"><path d="M259.308-160q-20.693 0-38.731-13.692-18.039-13.692-23.5-33.615-25-88.616-39.846-147.039-14.847-58.423-23.193-98.769-8.346-40.346-11.192-69.039Q120-550.846 120-580q0-75.077 52.461-127.539Q224.923-760 300-760h220q27-36 63.5-58t76.5-22q8.077 0 14.039 5.961Q680-828.077 680-820q0 2.154-.731 3.923-.73 1.769-1.192 4.462-4.769 12.538-9.423 28.923-4.654 16.384-9.731 45.538L776.077-620h31.616q13.923 0 23.115 9.192Q840-601.616 840-587.693v153.847q0 10.692-5.961 19.154-5.962 8.461-16.654 11.923l-82.692 27.231-50.77 169.307q-6.461 21.385-23.615 33.808Q643.154-160 621.539-160h-36.924q-26.846 0-45.731-18.884Q520-197.769 520-224.615V-240H360v15.385q0 26.846-18.884 45.731Q322.231-160 295.385-160h-36.077Zm.692-40h35.385q10.769 0 17.692-6.923T320-224.615V-280h240v55.385q0 10.769 6.923 17.692T584.615-200h36.924q8.461 0 14.999-4.615 6.539-4.616 8.847-13.077L702-406l98-33v-141h-40L620-720q0-17.692 2.885-38.231 2.884-20.538 8.653-37-26.692 7.231-49.846 28.654Q558.538-745.154 547-720H300q-58 0-99 41t-41 99q0 39.462 19.462 133.577 19.461 94.115 55.153 227.192 2.308 8.462 9.616 13.846Q251.538-200 260-200Zm380-329.231q12.385 0 21.577-9.192 9.192-9.192 9.192-21.577 0-12.385-9.192-21.577-9.192-9.192-21.577-9.192-12.385 0-21.577 9.192-9.192 9.192-9.192 21.577 0 12.385 9.192 21.577 9.192 9.192 21.577 9.192ZM500-620q8.538 0 14.269-5.731Q520-631.461 520-640t-5.731-14.269Q508.538-660 500-660H340q-8.538 0-14.269 5.731Q320-648.539 320-640t5.731 14.269Q331.462-620 340-620h160Zm-20 122Z"/></svg>