<svg xmlns="http://www.w3.org/2000/svg" height="20" viewBox="0 -960 960 960" width="20"><path d="M480-124.782q-63.826 0-110.979-40.434-47.152-40.435-54.5-103.566H140.695q-6.391-21.652-11.152-45.87-4.761-24.218-4.761-52.131 1.434-124.261 89.195-214.022t217.022-107.718v-152.348h98.002v152.348q130.261 17.957 218.022 107.718t88.195 214.022q0 26.913-4.261 51.631t-10.652 46.37H645.479q-7.348 63.131-54 103.566Q544.826-124.782 480-124.782ZM222.783-366.783h514.434q0-92.347-74.739-159.891Q587.739-594.217 480-594.217q-106.739 0-181.978 67.543-75.239 67.544-75.239 159.891Z"/></svg>