<svg xmlns="http://www.w3.org/2000/svg" height="24" viewBox="0 -960 960 960" width="24"><path d="M480-158.464q-58.692 0-100.114-41.423-41.423-41.423-41.423-100.114H146.309q-2.803-12-4.555-27.375-1.753-15.374-1.753-32.624 1.231-132.692 89.923-230.153 88.692-97.461 220.077-108.615v-113.538h59.998v113.538q131.385 11.154 220.077 108.615Q818.768-492.692 819.999-360q0 17.25-1.753 32.624-1.752 15.375-4.555 27.375H621.537q0 58.691-41.423 100.114Q538.692-158.464 480-158.464ZM200-360h560q0-116-82-198t-198-82q-116 0-198 82t-82 198Z"/></svg>