<svg xmlns="http://www.w3.org/2000/svg" height="24" viewBox="0 -960 960 960" width="24"><path d="M480-196.923q-51.385 0-87.231-35.846T356.923-320H163.615q-1.607-8-2.611-18.25Q160-348.5 160-360q.461-125.385 86.846-218.808Q333.231-672.231 460-679.539v-105.077h40v105.077q126.769 7.308 213.154 100.731Q799.539-485.385 800-360q0 11.5-1.004 21.75T796.385-320H603.077q0 51.385-35.846 87.231T480-196.923ZM200-360h560q0-116-82-198t-198-82q-116 0-198 82t-82 198Zm280.191 123.077q34.347 0 58.617-24.404 24.269-24.404 24.269-58.673H396.923q0 34.539 24.46 58.808t58.808 24.269ZM480-320Z"/></svg>