<svg xmlns="http://www.w3.org/2000/svg" height="24" viewBox="0 -960 960 960" width="24"><path d="M480-100.782q-68.826 0-121.479-46.434-52.652-46.435-60-113.566H117.695q-7.391-21.652-12.152-48.37-4.761-26.718-4.761-57.631 1.434-142.261 94.695-246.022t231.522-122.718v-129.348h106.002v129.348q138.261 18.957 231.522 122.718t94.695 246.022q0 30.913-4.761 57.631t-12.152 48.37H661.479q-7.348 67.131-60 113.566Q548.826-100.782 480-100.782ZM206.783-366.783h546.434q0-110.347-79.739-188.391Q593.739-633.217 480-633.217t-193.478 78.043q-79.739 78.044-79.739 188.391Zm273.217 160q26.217 0 44.912-15.587 18.696-15.586 22.087-38.412H413.001q3.391 22.826 22.087 38.412 18.695 15.587 44.912 15.587Zm0-53.999Z"/></svg>