<svg xmlns="http://www.w3.org/2000/svg" height="24" viewBox="0 -960 960 960" width="24"><path d="m591.692-279.078-55.537-24.307q9.077-22.538 15.231-46.615 6.153-24.076 10.769-48.461l51.075 51.076q-4.23 17.692-9.461 34.769-5.231 17.077-12.077 33.538Zm-130-54-55.537-22.307q12.077-28.846 17.5-60.192T429.078-480q0-14.769-.923-28.73t-3.769-27.5l64.69 64.691q-1.23 36.077-7.576 70.731-6.346 34.653-19.808 67.73Zm-128.769-54-55.537-23.076q4.846-16.462 8.269-34.115 3.423-17.654 3.423-35.731t-3.423-35.731q-3.423-17.653-8.269-34.115l55.537-23.076q7.461 21.307 11.807 44.73T349.076-480q0 24.769-4.346 48.192-4.346 23.423-11.807 44.73Zm295.153-58.692-60.229-60.229q-1.846-39.923-9.769-77.808-7.923-37.885-21.923-72.808l55.537-24.307q18.692 46.923 28.038 97.346 9.346 50.422 9.346 103.576 0 8.461-.192 16.923-.192 8.461-.808 17.307ZM484.231-589.615l-30.384-30.384 20.231-9q3.846 9.846 6.076 19.5 2.231 9.653 4.077 19.884Zm347.462 546.23L702.539-172.54q-47.231 34.692-103.308 53.615Q543.154-100.001 480-100.001q-78.769 0-148.115-29.962-69.346-29.961-120.653-81.269-51.308-51.307-81.269-120.653Q100.001-401.231 100.001-480q0-63.154 18.924-119.231 18.923-56.077 53.615-103.308L51.233-823.846 94-866.615 874.46-86.154l-42.768 42.768ZM480-160q50.385 0 95.308-15.077 44.924-15.077 83.232-41.462L216.539-658.54q-26.385 38.308-41.462 83.232Q160-530.385 160-480q0 133 93.5 226.5T480-160Zm319.999-113.847-44.384-44.384Q777-353.615 788.5-394.308 800-435 800-480q0-133-93.5-226.5T480-800q-45 0-85.692 11.5-40.693 11.5-76.077 32.885l-44.384-44.384q44.923-28.692 96.961-44.346Q422.846-859.999 480-859.999q78.769 0 148.115 29.962 69.346 29.961 120.653 81.269 51.308 51.307 81.269 120.653Q859.999-558.769 859.999-480q0 57.154-15.654 109.192-15.654 52.038-44.346 96.961ZM537.231-537.231Zm-99.384 99.384Z"/></svg>