<svg xmlns="http://www.w3.org/2000/svg" height="20" viewBox="0 -960 960 960" width="20"><path d="M604.692-289.078q4.846-12.461 9.077-24.038t8.461-24.269l-43.075-43.076q-4.616 19.385-10.269 37.961-5.654 18.577-12.731 35.115l48.537 18.307Zm-132-52q9.462-27.077 15.808-58.23 6.346-31.154 7.576-64.231l-52.69-52.691q.846 9.539 1.269 18 .423 8.461.423 18.23 0 32.077-5.923 62.423-5.923 30.346-15 57.192l48.537 19.307Zm-131.769-53q6.461-20.307 9.307-42.23T353.076-480q0-21.769-2.846-43.692-2.846-21.923-9.307-42.23l-49.537 20.076q4.846 15.462 7.269 32.115 2.423 16.654 2.423 33.731t-2.423 33.731q-2.423 16.653-7.269 32.115l49.537 20.076Zm439.77 288.692-83.154-83.154q-48.231 34.692-103.308 53.615Q539.154-116.001 480-116.001q-74.769 0-141.115-28.462-66.346-28.461-116.153-78.269-49.808-49.807-78.269-116.153Q116.001-405.231 116.001-480q0-62.154 20.924-119.539 20.923-57.384 59-107.615h56.536L771.075-188.54h-73.536L114.233-771.846l36.768-36.769 666.46 666.461-36.768 36.768Zm2.306-172.461L637.076-423.77q1.616-13.846 2.808-27.807 1.192-13.962 1.192-28.423 0-53.154-9.346-101.076-9.346-47.923-27.038-89.846l-48.537 18.307q16 38.923 24.923 85.308 8.923 46.385 8.769 96.308l-90.616-90.616q-2.461-16.231-6.884-30.884-4.423-14.654-9.269-29.5l-31.231 13-174-174q44.923-29.692 96.461-45.346Q425.846-843.999 480-843.999q75.769 0 141.615 28.462 65.846 28.461 115.653 78.269 49.808 49.807 78.269 115.653Q843.999-555.769 843.999-480q0 54.154-15.654 105.692-15.654 51.538-45.346 96.461Z"/></svg>