<svg xmlns="http://www.w3.org/2000/svg" height="20" viewBox="0 -960 960 960" width="20"><path d="m609.826-276-67-26q9.565-21.696 16.973-45.741 7.408-24.046 11.592-49.346l60.566 59.565q-5 16.131-10.566 31.261-5.565 15.131-11.565 30.261Zm-132-52-67-27q11-28 17.5-59.525t6.5-65.475q0-15.953-1.565-30.303-1.565-14.349-4.131-29.045l76.696 76.696q-1.435 36.241-8.935 70.381-7.5 34.141-19.065 64.271Zm-131-53-68-27.5q6-16.5 9-34.526 3-18.025 3-37 0-18.974-3-36.974-3-18-9-34.5l68-27.5q8 23 12 48t4 51q0 26-4 51t-12 48Zm300.565-53.392-70.826-70.826q-2.13-42.348-10.782-81.043-8.653-38.696-22.957-71.739l67-26q20 45 30.5 96t10.5 108q0 11.902-1 23.304t-2.435 22.304ZM489.348-591.306l-32.217-32.216 20.13-7.913q3.174 9.783 6.478 19.565 3.304 9.782 5.609 20.564ZM777.044-78.13l-69.174-68.608q-51.261 33.695-108.824 51.826-57.564 18.13-118.986 18.13-83.958 0-157.154-31.46-73.197-31.46-128.2-86.464-55.004-55.003-86.464-128.2-31.46-73.196-31.46-157.154 0-61.422 18.13-118.986 18.131-57.563 51.826-108.824L87.174-768l56.652-56.652 689.87 689.87-56.652 56.652ZM480.11-174.783q41.629 0 81.216-11.869 39.587-11.87 75.891-31.739L218.391-637.782q-19.869 36.304-31.739 75.85-11.869 39.547-11.869 81.822 0 127.46 89.213 216.394 89.212 88.933 216.114 88.933Zm339.369-87.521-72.783-71.219q17.953-34.418 28.237-71.274 10.284-36.855 10.284-75.093 0-127.46-89.213-216.394-89.212-88.933-216.114-88.933-38.238 0-75.093 10.284-36.856 10.284-71.274 28.237l-71.219-72.783q48.37-30.922 103.798-47.331 55.428-16.408 114.164-16.408 83.801 0 156.913 31.46 73.112 31.46 128.115 86.464 55.004 55.003 86.464 128.115 31.46 73.112 31.46 156.913 0 58.736-16.408 114.164-16.409 55.428-47.331 103.798Zm-282.87-282.305ZM418.304-418.304Z"/></svg>