<svg xmlns="http://www.w3.org/2000/svg" height="24" viewBox="0 -960 960 960" width="24"><path d="M461.696-366.304v-227.392q0-17.956-16.24-24.935-16.239-6.978-29.065 5.848l-95.174 95.174Q305.26-501.652 305.26-480t15.957 37.609l95.174 95.174q12.826 12.826 29.065 5.848 16.24-6.979 16.24-24.935ZM206.783-100.782q-44.305 0-75.153-30.848-30.848-30.848-30.848-75.153v-546.434q0-44.305 30.848-75.153 30.848-30.848 75.153-30.848h546.434q44.305 0 75.153 30.848 30.848 30.848 30.848 75.153v546.434q0 44.305-30.848 75.153-30.848 30.848-75.153 30.848H206.783Zm331.738-106.001v-546.434H206.783v546.434h331.738Z"/></svg>