<svg xmlns="http://www.w3.org/2000/svg" height="20" viewBox="0 -960 960 960" width="20"><path d="M432-62v-.21Q432-40 416.211-24q-15.79 16-38 16Q356-8 339.958-23.797q-16.041-15.796-16.041-38.017v-3.71Q301-73 285.5-90.761q-15.5-17.763-19.944-42.181L253-208q-6-36 14.959-66T324-309v-75q-7 0-14.5 1t-14.5 1q-100.5 0-172.75-66.25T50-613v-81q0-105.5 70.25-181.75T295-952q56.5 0 96.75 38.75T432-818q0 54.5-40.75 90.75T295-691h-14q-22.3 0-38.15-15.789-15.85-15.79-15.85-38Q227-767 242.85-783T281-799h11q8 0 15-7.5t7-15.5q0-8-7-15t-15-7q-58 0-96 40.5T158-704v82q0 57 38.5 94.5T292-490q8 0 15-7.5t7-15.5q0-8-7-15t-15-7h-11q-22.3 0-38.15-15.789-15.85-15.79-15.85-38Q227-611 242.85-627T281-643h14q55 0 94.5 36.25T431-516l1 206h96l1-206q2-54.917 41.5-91.458Q610-644 665-644h14q22.3 0 38.15 15.789 15.85 15.79 15.85 38Q733-568 717.15-552T679-536h-11q-8 0-15 6.5t-7 14.5q0 8 7 15.5t15 7.5q57 0 95.5-37t38.5-93v-82q0-59-38-99.5T668-844q-8 0-15 7t-7 15q0 8 7 15.5t15 7.5h11q22.3 0 38.15 15.789 15.85 15.79 15.85 38Q733-723 717.15-707T679-691h-14q-55.5 0-96.25-36.25T528-818q0-56.5 40.25-95.25T665-952q104.5 0 174.75 76.25T910-694v81q0 98.5-72.25 164.75T665-382q-7 0-14.5-1t-14.5-1v75q36 5 56.5 35t14.25 66.119l-12.375 74.608Q690-109 674.5-91 659-73 636.083-65.523v3.71q0 22.22-16.041 38.017Q604-8 581.789-8q-22.21 0-38-15.85Q528-39.7 528-62h-96ZM324-202l6 32h262l6-32H324Zm0 0 6 32-6-32Z"/></svg>