<svg xmlns="http://www.w3.org/2000/svg" height="24" viewBox="0 -960 960 960" width="24"><path d="M432.308-184.615v63.846q0 8.539-5.731 14.269-5.731 5.731-14.269 5.731-8.539 0-14.27-5.731-5.731-5.73-5.731-14.269v-64.077h-1.538q-22.692-1.154-39.538-15.961-16.847-14.808-21.077-37.731l-4.539-30.77q-5.231-30.077 14.154-52.692 19.385-22.615 49.462-22.615h3.076v-77.77q-13.076 10.924-27.961 16.654Q349.461-400 332.308-400q-87.693 0-146.154-65-58.462-65-58.462-155v-30.769q0-90 58.462-155.001 58.461-65 146.154-65 41.538 0 70.769 29.231 29.231 29.231 29.231 70.77 0 41.538-29.231 70.769-29.231 29.231-70.769 29.231h-40q-8.539 0-14.27-5.731t-5.731-14.269q0-8.539 5.731-14.27t14.27-5.731h40q24.692 0 42.346-17.653 17.653-17.654 17.653-42.346 0-24.693-17.653-42.346-17.654-17.654-42.346-17.654-70.616 0-117.616 53.538-47 53.539-47 126.462V-620q0 72.923 47 126.461Q261.692-440 332.308-440q24.692 0 42.346-17.654 17.653-17.654 17.653-42.346 0-24.692-17.653-42.346Q357-560 332.308-560h-40q-8.539 0-14.27-5.731T272.307-580q0-8.539 5.731-14.269 5.731-5.731 14.27-5.731h40q41.538 0 70.769 29.231 29.231 29.23 29.231 70.769v155.385h95.384V-500q0-41.539 29.231-70.769Q586.154-600 627.692-600h40q8.539 0 14.27 5.731 5.731 5.73 5.731 14.269 0 8.538-5.731 14.269T667.692-560h-40q-24.692 0-42.346 17.654-17.653 17.654-17.653 42.346 0 24.692 17.653 42.346Q603-440 627.692-440q70.616 0 117.616-53.539 47-53.538 47-126.461v-30.769q0-72.923-47-126.462-47-53.538-117.616-53.538-24.692 0-42.346 17.654-17.653 17.653-17.653 42.346 0 24.692 17.653 42.346Q603-710.77 627.692-710.77h40q8.539 0 14.27 5.731t5.731 14.27q0 8.538-5.731 14.269t-14.27 5.731h-40q-41.538 0-70.769-29.231-29.231-29.231-29.231-70.769 0-41.539 29.231-70.77 29.231-29.231 70.769-29.231 87.693 0 146.154 65 58.462 65.001 58.462 155.001V-620q0 90-58.462 155-58.461 65-146.154 65-17.153 0-32.038-5.731-14.885-5.73-27.961-16.654v77.77h3.076q30.077 0 49.462 22.615t14.154 52.692l-4.539 30.77q-4.23 22.923-21.077 37.731-16.846 14.807-39.538 15.961h-1.538v64.077q0 8.539-5.731 14.269-5.731 5.731-14.27 5.731-8.538 0-14.269-5.731-5.731-5.73-5.731-14.269v-63.846h-95.384Zm-67.693-91.539 5.308 30.77q1.539 8.461 8.077 14.615t15.769 6.154h172.462q9.231 0 15.769-6.154t8.077-14.615l5.308-30.77q1.538-10.769-5.77-19.615-7.307-8.846-18.846-8.846H389.231q-11.539 0-18.846 8.846-7.308 8.846-5.77 19.615Zm0 0q-1.538-10.769-3.077-19.615L360-304.615l1.538 8.846q1.539 8.846 3.077 19.615l5.308 30.77q1.539 8.461 2.308 14.615l.769 6.154-.769-6.154q-.769-6.154-2.308-14.615l-5.308-30.77Z"/></svg>