<svg xmlns="http://www.w3.org/2000/svg" height="20" viewBox="0 -960 960 960" width="20"><path d="M244-480q0 15.308 1.885 31.154 1.884 15.846 6.423 30.923 1.692 7.538-.885 14.692t-7.423 12q-4.615 4.616-9.154 3-4.538-1.615-6.461-5.692-7.693-19.385-12.039-41.038Q212-456.615 212-480q0-112.539 79.615-191.769Q371.231-751 486-748h48.461l-65.846-65.846q-5.615-5.615-6-11.269-.384-5.654 6-12.039 6.385-6.385 11.654-6.385 5.27 0 11.654 6.385l85.539 85.539q8.692 8.692 8.692 19.615 0 10.923-8.692 19.615l-85.539 85.539q-5.615 5.615-10.769 5.5-5.154-.115-11.539-6.5-6.384-6.385-6.384-11.654t6.384-11.654L534.461-716H486q-102.461-2-172.231 67.769Q244-578.461 244-480Zm472 0q0-15.308-1.885-31.154-1.884-15.846-6.423-30.923-1.692-7.538.885-14.692t7.423-12q4.615-4.616 9.154-3 4.538 1.615 6.461 5.692 7.693 19.385 12.039 41.038Q748-503.385 748-480q0 111.539-79.615 191.269Q588.769-209 474-212h-48.461l65.846 65.846q5.615 5.615 6 11.269.384 5.654-6 12.039-6.385 6.385-11.654 6.385-5.27 0-11.654-6.385l-85.539-85.539q-8.692-8.692-8.692-19.615 0-10.923 8.692-19.615l85.539-85.539q5.615-5.615 11.269-6 5.654-.385 12.039 6 6.384 6.385 6.384 11.654t-6.384 11.654L425.539-244H474q102.461 2 172.231-67.769Q716-381.539 716-480Z"/></svg>