<svg xmlns="http://www.w3.org/2000/svg" height="20" viewBox="0 -960 960 960" width="20"><path d="M287-482q0 10 .5 20t2.5 20q6 25 1 50t-23 43q-17 17-38.5 14.5T198-355q-14-29-21.5-60.5T169-482q0-127 90-219.5T476-791h1l-12-12q-14-14-13.5-30.5T466-864q14-14 30.5-14t30.5 14l90 90q18 18 18 42t-18 42l-90 90q-14 14-30 13.5T467-601q-14-14-14-31t14-31l10-10h2q-81-2-136.5 55T287-482Zm386 4q0-10-.5-20t-2.5-20q-6-25-1-50t23-43q17-17 38.5-14t31.5 21q14 29 21.5 60t7.5 66q0 126-90 219.5T484-168h-1l11 11q14 14 14 30.5T494-96q-14 14-31 14t-31-14l-90-90q-18-18-17.5-41.5T342-269l91-90q14-14 31-14.5t31 13.5q14 14 14 31t-14 31l-12 12h-2q81 2 136.5-55.5T673-478Z"/></svg>