<svg xmlns="http://www.w3.org/2000/svg" height="24" viewBox="0 -960 960 960" width="24"><path d="M214-478q0 20 3 41t10 41q2 6 .5 12t-6.5 11q-4 4-8.5 3.5T206-375q-10-24-15-50.5t-5-52.5q0-123 86-209.5T480-774h70l-80-80q-4-4-4.5-9.5T470-874q5-5 10-5t10 5l93 93q9 9 9 21t-9 21l-93 93q-4 4-9.5 4.5T470-646q-5-5-5-10t5-10l80-80h-70q-111 0-188.5 78T214-478Zm532-4q0-20-3-41t-10-41q-2-6-.5-12t6.5-11q4-4 8.5-3.5t6.5 5.5q10 24 15 50.5t5 52.5q0 123-86 209.5T480-186h-70l80 80q4 4 4.5 9.5T490-86q-5 5-10 5t-10-5l-93-93q-9-9-9-21t9-21l93-93q4-4 9.5-4.5T490-314q5 5 5 10t-5 10l-80 80h70q111 0 188.5-78T746-482Z"/></svg>