<svg xmlns="http://www.w3.org/2000/svg" height="24" viewBox="0 -960 960 960" width="24"><path d="M253.001-479.13q0 15.304 1.934 30.173 1.935 14.87 6.37 29.739 6.13 22.088 1.848 44.675-4.283 22.587-21.24 39.544-14.956 14.956-35.261 13.674-20.304-1.283-29.131-19.24-15.261-32.826-22.891-67.717-7.631-34.892-7.631-70.848 0-137.392 95.827-235.631 95.826-98.24 231.522-98.24h7.565l-24.695-24.695q-12.696-12.695-12.413-30.826.282-18.13 12.978-30.826 12.696-12.696 30.826-12.696 18.131 0 30.826 12.696l101.739 101.739q15.957 15.957 15.957 37.609t-15.957 37.609L519.435-620.652q-12.695 12.696-30.826 12.696-18.13 0-30.826-12.696-12.696-12.696-12.696-31.109 0-18.413 12.696-31.109l24.13-24.129h-5.87q-92.652 0-157.847 66.543-65.195 66.543-65.195 161.326Zm453.998-1.74q0-15.304-1.934-30.173-1.935-14.87-6.37-29.739-6.13-22.088-1.848-44.675 4.283-22.587 21.24-39.544 14.956-14.956 35.261-13.391 20.304 1.565 29.131 19.522 15.261 32.826 22.891 67.435 7.631 34.609 7.631 70.565 0 137.392-95.827 235.914-95.826 98.522-231.522 98.522h-7.565l24.13 24.13q12.696 12.695 12.696 30.826 0 18.13-12.696 30.826-12.696 12.696-31.109 12.696-18.413 0-31.109-12.696L338.26-162.39q-15.956-15.957-15.674-37.326.283-21.37 15.674-37.327l102.305-101.739q12.695-12.696 31.108-12.978 18.414-.283 31.109 12.413 12.696 12.696 12.696 31.109 0 18.413-12.696 31.109l-24.695 24.695h5.87q92.652 0 157.847-66.826 65.195-66.826 65.195-161.609Z"/></svg>