<svg xmlns="http://www.w3.org/2000/svg" height="24" viewBox="0 -960 960 960" width="24"><path d="M771-122 561-332v140q0 24.75-17.625 42.375T501-132h-96q-24.75 0-42.375-17.625T345-192v-356L113-780q-4-4-4.5-9.5T113-800q5-5 10-5t10 5l658 658q4 4 4.5 9.5T791-122q-5 5-10 5t-10-5Zm-366-38h96q14 0 23-9t9-23v-168L373-520v328q0 14 9 23t23 9Zm156-326-28-28v-30l80-120v-42H341l-28-28h300v-34q0-14-9-23t-23-9H325q-14 0-23 9t-9 23v14l-27-27q5-20 21-33.5t38-13.5h256q24.75 0 42.375 17.625T641-768v94q0 8.824-2.5 16.912T631-641l-70 105v50Zm-94-94Zm-14 140Z"/></svg>