<svg xmlns="http://www.w3.org/2000/svg" height="24" viewBox="0 -960 960 960" width="24"><path d="M678-278q0-13-8.5-21.5T648-308q-13 0-21.5 8.5T618-278v120q0 13 8.5 21.5T648-128q13 0 21.5-8.5T678-158v-120Zm60 0v120q0 13 8.5 21.5T768-128q13 0 21.5-8.5T798-158v-120q0-13-8.5-21.5T768-308q-13 0-21.5 8.5T738-278ZM292-585h376q17 0 28.5-11.5T708-625q0-17-11.5-28.5T668-665H292q-17 0-28.5 11.5T252-625q0 17 11.5 28.5T292-585ZM708-18q-83 0-141.5-58.5T508-218q0-83 58.5-141.5T708-418q83 0 141.5 58.5T908-218q0 83-58.5 141.5T708-18ZM86-38v-707q0-51.975 37.012-88.987Q160.025-871 212-871h536q51.975 0 88.987 37.013Q874-796.975 874-745v300q-27-20-59-32.5T748-495v-250H212v537h215q2 49 18.5 93T491-36q-9 0-17.5-2T459-46l-23-23q-9-9-22-9t-22 9l-22 22q-9 9-22 9t-22-9l-22-22q-9-9-22-9t-22 9l-23 22q-9 9-22 9t-22-9l-21-21q-9.818-10-22.909-10T127-68l-20 21q-2 3-21 9Zm206-251h144q6-22 15-42t21-38H292q-17 0-28.5 11.5T252-329q0 17 11.5 28.5T292-289Zm0-148h242q36-29 80.108-45 44.107-16 93.892-16-4-10-15-14.5t-25-4.5H292q-17 0-28.5 11.5T252-477q0 17 11.5 28.5T292-437Zm-80 229v-537 537Z"/></svg>