<svg xmlns="http://www.w3.org/2000/svg" height="20" viewBox="0 -960 960 960" width="20"><path d="M689.217-287.565q0-12.426-8.613-21.039-8.613-8.613-21.039-8.613-12.427 0-21.04 8.613t-8.613 21.039v120q0 12.427 8.613 21.04t21.04 8.613q12.426 0 21.039-8.613 8.613-8.613 8.613-21.04v-120Zm48 0v120q0 12.427 8.613 21.04t21.04 8.613q12.426 0 21.039-8.613 8.613-8.613 8.613-21.04v-120q0-12.426-8.613-21.039-8.613-8.613-21.039-8.613-12.427 0-21.04 8.613t-8.613 21.039Zm-108-279.956q15.3 0 25.65-10.29 10.35-10.289 10.35-25.5 0-15.21-10.35-25.71t-25.65-10.5H330.783q-15.3 0-25.65 10.289-10.35 10.29-10.35 25.5 0 15.211 10.35 25.711 10.35 10.5 25.65 10.5h298.434Zm83.774 531.956q-79.774 0-135.774-56.226t-56-136q0-79.774 56.226-135.774t136-56q79.774 0 135.774 56.227 56 56.226 56 136 0 79.773-56.226 135.773t-136 56ZM222.783-833.523h514.434q40.426 0 69.213 28.788 28.788 28.788 28.788 69.214v277.653q-27.388-16.116-58.797-24.407-31.409-8.29-64.639-8.29v-23.739H330.616q-15.229 0-25.531 10.289-10.302 10.29-10.302 25.5 0 15.211 10.35 25.711 10.35 10.5 25.65 10.5h226.869q-16.518 11.307-30.606 24.61-14.089 13.303-26.22 28.607H330.783q-15.3 0-25.65 10.289-10.35 10.29-10.35 25.5 0 15.211 10.35 25.711 10.35 10.5 25.65 10.5h130.26q-6.695 21.522-10.326 44.326-3.63 22.805-3.63 46.892 0 38.957 12.326 77.696 12.326 38.74 35.413 71.435l-6 4q-7.261-.565-12.956-1.282-5.696-.718-11.049-5.07L436.13-99.78q-6.332-5.697-15.34-5.697t-15.703 5.696l-28.348 21.348q-6.332 5.695-15.34 5.695t-15.704-5.695l-28.347-21.348q-6.333-5.696-15.341-5.696t-15.703 5.696l-28.913 21.348q-6.332 5.695-15.34 5.695t-15.704-5.695l-27.782-20.783q-6.795-6.261-15.854-6.261-9.06 0-15.756 6.261l-28.217 20.783q-1.13 1.695-13.956 4v-661.088q0-40.426 28.788-69.214 28.787-28.788 69.213-28.788Z"/></svg>