<svg xmlns="http://www.w3.org/2000/svg" height="24" viewBox="0 -960 960 960" width="24"><path d="M693.077-285.192q0-6.654-4.615-11.116-4.616-4.461-10.77-4.461t-10.769 4.615q-4.615 4.615-4.615 10.769v99.808q0 6.654 4.615 11.116Q671.538-170 677.692-170t10.77-4.615q4.615-4.616 4.615-10.77v-99.807Zm53.846-.193v99.808q0 6.654 4.615 11.116 4.616 4.461 10.77 4.461t10.769-4.615q4.615-4.616 4.615-10.77v-99.807q0-6.654-4.615-11.116-4.615-4.461-10.769-4.461t-10.77 4.615q-4.615 4.615-4.615 10.769Zm-77.692-325.384q8.5 0 14.25-5.758t5.75-14.269q0-8.512-5.75-14.243-5.75-5.73-14.25-5.73H290.769q-8.5 0-14.25 5.757-5.75 5.758-5.75 14.27 0 8.511 5.75 14.242 5.75 5.731 14.25 5.731h378.462ZM720-75.384q-66.846 0-113.423-46.577T560-235.385q0-66.846 46.577-113.423T720-395.385q66.846 0 113.423 46.577T880-235.385q0 66.847-46.577 113.424Q786.846-75.384 720-75.384ZM224.615-800h510.77q26.654 0 45.634 18.981Q800-762.039 800-735.385v237.77q-35.692-11.693-73.115-12.039Q689.462-510 653.077-500H290.769q-8.5 0-14.25 5.758-5.75 5.757-5.75 14.269t5.75 14.242q5.75 5.731 14.25 5.731h272.462q-30.077 20.846-53.039 48.923-22.961 28.077-37.807 61.846H290.769q-8.5 0-14.25 5.758t-5.75 14.269q0 8.512 5.75 14.243 5.75 5.73 14.25 5.73h168.385q-4.308 16.154-6.731 32.577T450-242.308q0 27.385 5.731 54.515T472.923-136q-1.154.231-2.423-.346-1.269-.577-2.192-1.5l-32.77-22.769q-4.461-2.923-9.384-2.923t-9.385 2.923l-35.077 24.308q-4.461 2.923-9.384 2.923t-9.385-2.923l-35.077-24.308q-4.461-2.923-9.385-2.923-4.923 0-9.384 2.923L274-136.307q-4.462 2.923-9.385 2.923t-9.384-2.923l-35.077-24.308q-4.462-2.923-9.385-2.923t-9.385 2.923l-31.23 24.308q-2.308 1.538-10.154 5.153v-604.231q0-26.654 18.981-45.634Q197.961-800 224.615-800Z"/></svg>