<svg xmlns="http://www.w3.org/2000/svg" height="20" viewBox="0 -960 960 960" width="20"><path d="m763.827-307.76-67.892-67.892 192.761-192.761v1q28.826 29.065 28.707 66.892-.12 37.826-28.707 66.652L763.827-307.76Zm-95.522-105.522-66.892-66.892 122.109-121.869-159.717-159.718-122.109 121.87-66.653-66.653 121.87-120.869q28.348-28.348 66.892-28.348 38.543 0 66.891 28.348l226.37 225.37-188.761 188.761Zm95.347 336.37L562-277.805 450.652-167.695q-13.024 13.391-30.453 20.869-17.429 7.479-36.438 7.479H115.065q-39.194 0-67.097-27.904-27.903-27.903-27.903-67.097v-23.239q0-30.543 14.141-54.772 14.141-24.228 41.303-33.706 20.295-7.239 41.73-16.381 21.435-9.141 44.391-21.663l58.783 59.022q4.761 4.761 13.239 4.761 8.478 0 13.478-5 5-4.761 5-13.12 0-8.358-5-13.358l-56.826-56.826q9.522-8.348 18-15.696 8.478-7.348 16.718-17.587l56.065 55.826q5.239 5 13.239 5t13.239-5q5.239-5 5.239-13.239t-5-13.239l-60.108-59.499q6.478-10.645 11.097-21.649 4.62-11.004 9.098-24.765l72.392 72.391q5.727 5 13.363 4.761 7.637-.239 12.876-5.239 5-4.761 5.619-13 .62-8.239-4.38-13.239L48.732-792.072q-12.71-12.711-12.71-30.295 0-17.584 12.717-30.329 12.903-12.478 30.704-12.478 17.8 0 30.704 12.478l715.136 715.153q12.717 12.717 12.098 30.434-.62 17.718-13.098 30.196-12.718 12.718-30.315 12.718-17.598 0-30.316-12.718ZM116.587-259.25v24.902h-.12 266.401L493.87-345.696l-64.718-64.717L296.478-277.5q-27.152 27.152-63.141 26.033-35.989-1.12-62.902-24.794l-5.838-6.043q-12.967 6-23.608 12.022-10.641 6.021-24.402 11.032Zm377.283-86.446Zm37.304-204.717Z"/></svg>