<svg xmlns="http://www.w3.org/2000/svg" height="20" viewBox="0 -960 960 960" width="20"><path d="m799.047-277.432-78.654-78.653L927.83-563.521v1q34.044 34.609 33.761 77.653-.283 43.044-33.761 77.088L799.047-277.432ZM689.176-397.303l-77.653-77.653 126.348-125.783-160.696-160.696-126.348 125.783-77.088-77.088 125.783-124.783q32.913-32.913 77.653-32.913 44.74 0 77.653 32.913l237.784 236.784-203.436 203.436Zm84.912 332.782L577.001-261.172 461.088-146.824q-14.981 15.348-35.345 24.131-20.364 8.782-42.308 8.782H105.608q-45.39 0-77.696-32.306-32.305-32.305-32.305-77.695v-23.565q0-36.74 13.652-65.371 13.652-28.631 45.706-38.761 24.207-7.565 47.599-16.218 23.391-8.652 47.652-20.521l65.305 65.87q4.435 4.435 13.566 4.435 9.13 0 14.13-5 5-4.435 5-13.283 0-8.848-5-13.848l-62.044-62.044q10.174-8.348 18.652-15.043 8.479-6.696 17.044-17.261l61.609 61.044q5.565 5 13.565 5 8 0 13.566-5 5.565-5 5.565-13.565 0-8.566-5-13.566l-64.348-63.412q7.13-9.993 11.913-20.834 4.782-10.841 9.913-24.275l75.652 75.652q5.728 5 13.364 4.435 7.636-.566 13.202-5.566 5-4.434 5.782-13 .783-8.565-4.217-13.565L41.558-797.616q-13.69-13.689-13.69-32.251 0-18.563 13.697-31.96 13.555-13.13 32.334-13.13 18.78 0 32.334 13.13l733.073 733.089q13.695 13.695 12.913 32.391-.783 18.696-13.913 31.826-13.696 13.696-32.109 13.696-18.413 0-32.109-13.696ZM106.477-251.749v27.837h-.282H382.216l115.567-115.914-65.696-65.695L297.13-269.999q-30.087 30.087-70.152 28.804-40.066-1.282-69.588-27.239l-3.881-4.739q-13.293 6-23.445 11.369-10.152 5.37-23.587 10.055Zm391.306-88.077Zm43.174-205.695Z"/></svg>