<svg xmlns="http://www.w3.org/2000/svg" height="24" viewBox="0 -960 960 960" width="24"><path d="m801.047-280.432-74.654-74.653L930.83-559.521q30.044 28.609 30.261 74.153.217 45.544-30.261 75.588L801.047-280.432ZM692.176-390.303 369.739-711.74l129.783-129.783q30.913-30.913 75.153-30.913 44.24 0 75.153 30.913l246.784 246.784-204.436 204.436Zm88.912 327.782L579.001-264.172 461.088-146.824q-14.392 14.391-33.979 22.652-19.587 8.261-40.674 8.261H103.608q-43.74 0-74.87-31.131-31.131-31.13-31.131-74.87v-25.565q0-36.74 13.652-64.371 13.652-27.631 45.13-37.761 23.783-7.565 47.675-16.718 23.891-9.152 47.152-22.021l66.305 66.87q5.435 5.435 14.566 5.435 9.13 0 15.13-6 6-5.435 6-14.283 0-8.848-6-14.848l-60.044-61.044q9.131-8 16.631-14.369 7.5-6.37 16.065-15.935l60.609 60.044q6.565 6 14.565 6 8 0 14.566-6 6.565-6 6.565-14.565 0-8.566-6-14.566l-63.348-62.782q7.13-9.87 11.913-20.587 4.782-10.718 8.913-22.152l73.652 74.652q6 6 14 5.435 8-.566 14.566-6.566 6-5.434 6.782-14 .783-8.565-5.217-14.565L71.565-772.609q-12.696-12.696-12.696-30.892 0-18.195 12.696-31.326 13.13-13.13 31.326-13.13 18.196 0 31.326 13.13l709.089 710.089q12.695 12.695 12.913 30.891.217 18.196-12.913 31.326-12.696 12.696-31.109 12.696-18.413 0-31.109-12.696Z"/></svg>