<svg xmlns="http://www.w3.org/2000/svg" height="20" viewBox="0 -960 960 960" width="20"><path d="M575.909-260q11.63 0 19.86-8.14Q604-276.28 604-287.91q0-11.629-8.14-19.859Q587.719-316 576.091-316q-11.63 0-19.86 8.14Q548-299.72 548-288.09q0 11.629 8.14 19.859Q564.281-260 575.909-260Zm-199.294-20.615Q382.231-275 388.013-275t11.141-5.615l186-186q5.615-5.359 5.615-11.141 0-5.783-5.615-11.398-5.615-5.615-11.398-5.615-5.782 0-11.141 5.615L374.846-301.385q-5.615 5.616-4.731 10.385.885 4.769 6.5 10.385ZM383.91-452q11.629 0 19.859-8.14Q412-468.28 412-479.91q0-11.629-8.14-19.859Q395.72-508 384.09-508q-11.629 0-19.859 8.14Q356-491.72 356-480.09q0 11.629 8.14 19.859Q372.28-452 383.91-452Zm-95.578 316Q264-136 248-152.15t-16-40.465v-574.77q0-24.315 16.15-40.465Q264.3-824 288.615-824H596l132 132v499.385q0 24.315-16.162 40.465Q695.676-136 671.344-136H288.332ZM696-664 568-792v94.462q0 14.315 9.611 23.927Q587.223-664 601.538-664H696Z"/></svg>