<svg xmlns="http://www.w3.org/2000/svg" height="20" viewBox="0 -960 960 960" width="20"><path d="M757.999-757.999v195.998h-51.998v-106.847L550.922-514.154q17.923 26.539 28.5 56.211 10.577 29.673 10.577 61.534 0 81.298-56.362 137.853-56.363 56.555-137.385 56.555-81.021 0-137.636-56.362-56.615-56.363-56.615-137.385 0-81.021 56.436-137.636Q314.873-589.999 396-589.999q32.769 0 62.077 10.038 29.308 10.039 56.077 29.039l155.079-155.079H562.001v-51.998h195.998ZM395.716-538.001q-58.947 0-100.332 41.669-41.385 41.67-41.385 100.616 0 58.947 41.669 100.332 41.67 41.385 100.616 41.385 58.947 0 100.332-41.669 41.385-41.67 41.385-100.616 0-58.947-41.669-100.332-41.67-41.385-100.616-41.385Z"/></svg>