<svg xmlns="http://www.w3.org/2000/svg" height="20" viewBox="0 -960 960 960" width="20"><path d="M775.413-777.087v227h-83v-85.348L569.261-512.283q17.06 26.154 25.693 55.458 8.633 29.303 8.633 60.416 0 87.632-60.956 148.771Q481.675-186.5 394.305-186.5q-87.37 0-148.544-60.956-61.174-60.956-61.174-148.326 0-87.37 61.019-148.544 61.02-61.174 148.481-61.174 31.761 0 61.022 8.141t55.261 26.424l123.151-123.152h-85.108v-83h227ZM393.865-522.5q-52.626 0-89.452 37.048-36.826 37.049-36.826 89.674 0 52.626 37.048 89.452 37.049 36.826 89.674 36.826 52.626 0 89.452-37.048 36.826-37.049 36.826-89.674 0-52.626-37.048-89.452Q446.49-522.5 393.865-522.5Z"/></svg>