<svg xmlns="http://www.w3.org/2000/svg" height="24" viewBox="0 -960 960 960" width="24"><path d="M789.999-789.999v219.998h-59.998v-116.847L547.922-506.154q19.385 28.385 30.731 60.135Q589.999-414.27 589.999-380q0 87.818-61.08 148.909-61.081 61.09-148.884 61.09-87.804 0-148.919-61.08-61.115-61.081-61.115-148.884 0-87.804 61.09-148.919Q292.182-589.999 380-589.999q33.769 0 65.577 11.038 31.808 11.039 59.577 31.039l182.079-182.079H570.001v-59.998h219.998ZM379.938-530.001q-62.169 0-106.054 43.947-43.885 43.947-43.885 106.116t43.947 106.054q43.947 43.885 106.116 43.885t106.054-43.947q43.885-43.947 43.885-106.116t-43.947-106.054q-43.947-43.885-106.116-43.885Z"/></svg>