<svg xmlns="http://www.w3.org/2000/svg" height="20" viewBox="0 -960 960 960" width="20"><path d="M768-768v216h-72v-93L564-513q17.538 26.154 26.769 55.577Q600-428 600-396.409q0 85.48-59.282 144.944Q481.436-192 396.218-192T251.5-251.282q-59.5-59.282-59.5-144.5T251.345-540.5Q310.691-600 396-600q32 0 61.5 8.5T513-564l132-132h-93v-72h216ZM395.778-528Q341-528 302.5-489.278q-38.5 38.722-38.5 93.5t38.722 93.278q38.722 38.5 93.5 38.5t93.278-38.722q38.5-38.722 38.5-93.5T489.278-489.5q-38.722-38.5-93.5-38.5Z"/></svg>