<svg xmlns="http://www.w3.org/2000/svg" height="20" viewBox="0 -960 960 960" width="20"><path d="M59.283-414.196q-28.761-45-44.022-90.761Q0-550.717 0-600q0-109.522 75.74-186.761Q151.477-864 264-864q61.915 0 117.838 25.88Q437.761-812.239 480-764q42.239-48.239 98.162-74.12Q634.085-864 696-864q112.522 0 188.261 77.239Q960-709.522 960-600q0 47.283-15.311 94.041-15.311 46.759-43.972 91.524-10.63-19.195-27.598-32.456-16.967-13.261-37.076-19.587 20.453-33 30.705-67.5Q877-568.478 877-600q0-74.978-51.511-127.989Q773.978-781 696-781q-54.891 0-109.652 32.131Q531.587-716.739 480-642.956 428.413-716.5 373.652-748.75 318.891-781 264-781q-77.978 0-129.489 53.011Q83.001-674.978 83.001-600q0 34.522 10.251 67.522 10.252 33 30.705 66-17.87 6.326-34.337 19.706-16.468 13.381-30.337 32.576ZM-3.827-76.869v-53.826q0-45.736 46.065-71.781Q88.302-228.521 168-228.521q10.087 0 17.554.38 7.468.38 14.033 1.902-6.478 13.957-11.337 32.103-4.859 18.145-4.859 42.441v74.826H-3.826Zm240.001 0v-74.826q0-67.715 66.551-108.271 66.551-40.555 177.242-40.555 110.707 0 177.283 40.555 66.576 40.556 66.576 108.271v74.826H236.174Zm540.435 0v-74.826q0-25.284-4.859-42.92-4.859-17.636-11.576-31.624 6.565-1.522 14.18-1.902 7.614-.38 17.646-.38 79.722 0 125.774 26.045 46.052 26.045 46.052 71.781v53.826H776.609ZM480.042-222.304q-70.259 0-108.868 18.446-38.609 18.445-52.239 48.532h322.13q-13.63-30.087-52.239-48.532-38.609-18.446-108.784-18.446Zm-312.021-53.261q-30.978 0-52.695-21.69t-21.717-52.659q0-30.999 21.69-52.716 21.69-21.718 52.659-21.718 30.999 0 52.716 21.682 21.717 21.681 21.717 52.689 0 30.977-21.681 52.695-21.682 21.717-52.689 21.717Zm624 0q-30.978 0-52.695-21.69t-21.717-52.659q0-30.999 21.69-52.716 21.69-21.718 52.659-21.718 30.999 0 52.716 21.682 21.717 21.681 21.717 52.689 0 30.977-21.681 52.695-21.681 21.717-52.689 21.717ZM480-324.282q-51.594 0-87.71-36.116-36.116-36.116-36.116-87.711 0-51.434 36.116-87.63T480-571.935q51.435 0 87.63 36.196 36.196 36.196 36.196 87.63 0 51.595-36.196 87.711-36.195 36.116-87.63 36.116Zm0-169.435q-18.804 0-32.206 13.312-13.403 13.313-13.403 32.296 0 18.805 13.403 32.207Q461.196-402.5 480.12-402.5q18.923 0 32.206-13.402 13.283-13.402 13.283-32.326t-13.313-32.207Q498.984-493.717 480-493.717Zm0 45.608Zm0 292.783Z"/></svg>