<svg xmlns="http://www.w3.org/2000/svg" height="20" viewBox="0 -960 960 960" width="20"><path d="M107.692-407.615q-33.615-46.539-50.654-94.462Q40-550 40-600q0-91.539 64.731-157.769Q169.461-824 264-824q59.692 0 114.538 31Q433.385-762 480-701.693 526.615-762 581.462-793 636.308-824 696-824q94.539 0 159.269 66.231Q920-691.539 920-600q0 46.462-17.038 94.615-17.039 48.154-50.654 97-3.385-7.23-10.346-12.269-6.962-5.039-13.193-8.423 30-43.769 44.616-87.885Q888-561.077 888-600q0-79.231-54.885-135.615Q778.231-792 696-792q-38.769 0-100.692 27.692Q533.385-736.615 480-653q-53.385-82.846-115.308-110.923Q302.769-792 264-792q-82.231 0-137.115 56.385Q72-679.231 72-600q0 43.461 14.615 86.461 14.616 43 43.846 85.231-4.23 4.154-10.307 8.808t-12.462 11.885ZM40-134.461V-156q0-37.077 39.615-59.769 39.616-22.693 109.154-22.693 10.462 0 18.423.885 7.962.885 14.423 2.885-.615 8.384-2.807 19.231-2.193 10.846-2.193 26.923v54.077H40Zm240 0v-51q0-50.616 54.346-79.347Q388.692-293.539 480-293.539q91.308 0 145.654 28.731Q680-236.077 680-185.461v51H280Zm463.385 0v-54.077q0-17.077-2.193-27.423-2.192-10.347-3.577-18.731 6.462-2 14.808-2.885 8.346-.885 19.577-.885 68.769 0 108.385 22.693Q920-193.077 920-156v21.539H743.385ZM188.769-284.154q-20.769 0-34.846-14.077-14.077-14.077-14.077-34.846 0-19.231 14.077-33.693 14.077-14.461 34.846-14.461 19.231 0 34.077 14.461 14.846 14.462 14.846 33.693 0 20.769-14.846 34.846-14.846 14.077-34.077 14.077Zm583.231 0q-20 0-34.462-14.077-14.461-14.077-14.461-34.846 0-19.231 14.461-33.693Q752-381.231 772-381.231q20 0 34.462 14.461 14.461 14.462 14.461 33.693 0 20.769-14.461 34.846Q792-284.154 772-284.154Zm-292-33.385q-36.154 0-61.923-25.769-25.77-25.769-25.77-61.923t25.77-61.923q25.769-25.77 61.923-25.77t61.923 25.77q25.77 25.769 25.77 61.923t-25.77 61.923Q516.154-317.539 480-317.539Z"/></svg>