<svg xmlns="http://www.w3.org/2000/svg" height="20" viewBox="0 -960 960 960" width="20"><path d="M480.226-178.999q85.426 0 145.101-59.834Q685.001-298.668 685.001-384v-192q0-85.332-59.901-145.167-59.9-59.834-145.326-59.834-85.426 0-145.101 59.834Q274.999-661.332 274.999-576v192q0 85.332 59.901 145.167 59.9 59.834 145.326 59.834ZM480-277.001q-44.913 0-75.956-31.043-31.043-31.043-31.043-75.956v-192q0-44.913 31.043-75.956 31.043-31.043 75.956-31.043 44.913 0 75.956 31.043 31.043 31.043 31.043 75.956v192q0 44.913-31.043 75.956-31.043 31.043-75.956 31.043Zm-.211-285.998q15.211 0 25.711-10.29 10.5-10.289 10.5-25.5 0-15.21-10.289-25.71-10.29-10.5-25.5-10.5-15.211 0-25.711 10.289-10.5 10.29-10.5 25.5 0 15.211 10.289 25.711 10.29 10.5 25.5 10.5ZM222.783-29.782q-41.005 0-69.503-28.498-28.498-28.498-28.498-69.503v-705.434q0-41.005 28.498-69.503 28.498-28.498 69.503-28.498h514.434q41.005 0 69.503 28.498 28.498 28.498 28.498 69.503v705.434q0 41.005-28.498 69.503-28.498 28.498-69.503 28.498H222.783Z"/></svg>