<svg xmlns="http://www.w3.org/2000/svg" height="20" viewBox="0 -960 960 960" width="20"><path d="M480.078-218Q549-218 597.5-266.555T646-384v-192q0-68.89-48.578-117.445Q548.845-742 479.922-742 411-742 362.5-693.445T314-576v192q0 68.89 48.578 117.445Q411.155-218 480.078-218Zm-.196-20Q419-238 376.5-280.583 334-323.167 334-384v-192q0-60.833 42.618-103.417Q419.235-722 480.118-722 541-722 583.5-679.417 626-636.833 626-576v192q0 60.833-42.618 103.417Q540.765-238 479.882-238Zm-.093-350q9.211 0 16.711-7.289 7.5-7.29 7.5-16.5 0-9.211-7.289-16.711-7.29-7.5-16.5-7.5-9.211 0-16.711 7.289-7.5 7.29-7.5 16.5 0 9.211 7.289 16.711 7.29 7.5 16.5 7.5ZM248-100q-21.45 0-36.725-15.275Q196-130.55 196-152v-656q0-21.45 15.275-36.725Q226.55-860 248-860h464q21.45 0 36.725 15.275Q764-829.45 764-808v656q0 21.45-15.275 36.725Q733.45-100 712-100H248Zm0-20h464q14 0 23-9t9-23v-656q0-14-9-23t-23-9H248q-14 0-23 9t-9 23v656q0 14 9 23t23 9Zm-32 0v-720 720Z"/></svg>