<svg xmlns="http://www.w3.org/2000/svg" height="20" viewBox="0 -960 960 960" width="20"><path d="M480.226-169q89.319 0 152.046-62.887Q695-294.775 695-384v-192q0-89.225-62.954-152.112Q569.093-791 479.774-791q-89.319 0-152.047 62.888Q265-665.225 265-576v192q0 89.225 62.954 152.113Q390.907-169 480.226-169ZM480-287q-41 0-69-28t-28-69v-192q0-41 28-69t69-28q41 0 69 28t28 69v192q0 41-28 69t-69 28Zm-.211-266Q495-553 505.5-563.289q10.5-10.29 10.5-25.5Q516-604 505.711-614.5q-10.29-10.5-25.5-10.5Q465-625 454.5-614.711q-10.5 10.29-10.5 25.5Q444-574 454.289-563.5q10.29 10.5 25.5 10.5ZM228-14q-49.7 0-83.85-34.15Q110-82.3 110-132v-696q0-49.7 34.15-83.85Q178.3-946 228-946h504q49.7 0 83.85 34.15Q850-877.7 850-828v696q0 49.7-34.15 83.85Q781.7-14 732-14H228Zm0-118h504v-696H228v696Zm0 0v-696 696Z"/></svg>