<svg xmlns="http://www.w3.org/2000/svg" height="24" viewBox="0 -960 960 960" width="24"><path d="M480-186.999q88.395 0 150.698-62.303Q693.001-311.605 693.001-400v-160q0-88.395-62.303-150.698Q568.395-773.001 480-773.001q-88.395 0-150.698 62.303Q266.999-648.395 266.999-560v160q0 88.395 62.303 150.698Q391.605-186.999 480-186.999Zm0-106.002q-44.913 0-75.956-31.043-31.043-31.043-31.043-75.956v-160q0-44.913 31.043-75.956 31.043-31.043 75.956-31.043 44.913 0 75.956 31.043 31.043 31.043 31.043 75.956v160q0 44.913-31.043 75.956-31.043 31.043-75.956 31.043Zm0-253.998q17 0 28.5-11.5t11.5-28.5q0-17-11.5-28.5t-28.5-11.5q-17 0-28.5 11.5t-11.5 28.5q0 17 11.5 28.5t28.5 11.5ZM206.783-20.782q-44.305 0-75.153-30.848-30.848-30.848-30.848-75.153v-706.434q0-44.305 30.848-75.153 30.848-30.848 75.153-30.848h546.434q44.305 0 75.153 30.848 30.848 30.848 30.848 75.153v706.434q0 44.305-30.848 75.153-30.848 30.848-75.153 30.848H206.783Zm0-106.001h546.434v-706.434H206.783v706.434Zm0 0v-706.434 706.434Z"/></svg>