<svg xmlns="http://www.w3.org/2000/svg" height="20" viewBox="0 -960 960 960" width="20"><path d="m782.231-132.154-83.154-82.923q-47.462 37.385-103.115 58.231Q540.308-136 480-136q-70.539 0-133.231-26.923-62.692-26.923-109.808-74.038-47.115-47.116-74.038-109.808Q136-409.461 136-480q0-60.308 20.846-115.962 20.846-55.653 58.231-103.115l-65.462-65.461q-4.846-4.847-5.115-10.885-.269-6.039 5.346-11.654t11.269-5.615q5.654 0 11.27 5.615l632.384 632.615q4.846 4.847 5.231 10.77.385 5.923-5.231 11.538-5.615 5.616-11.269 5.616t-11.269-5.616ZM480-168q54.769 0 104.615-19.154t92.462-50.923L480-435.154V-168Zm288-123.692-23.769-22.77Q767-353.231 779.5-394.615 792-436 792-480q0-130-91-221t-221-91v212.308L291.692-768q41.846-27.385 89.923-41.693Q429.692-824 480-824q71.539 0 133.731 26.923 62.192 26.923 109.308 74.038 47.115 47.116 74.038 109.308Q824-551.539 824-480q0 50.308-14.307 98.385-14.308 48.077-41.693 89.923Z"/></svg>