<svg xmlns="http://www.w3.org/2000/svg" height="24" viewBox="0 -960 960 960" width="24"><path d="m802-40-80-79q-52 35-112.92 54T480.105-46Q389-46 310.013-80.084q-78.988-34.083-137.417-92.512T80.084-310.013Q46-389 46-480.105q0-68.055 19-128.975Q84-670 119-722l-64-65q-14-14.133-13.5-33.567Q42-840 56.105-854t33.5-14Q109-868 123-854l746 747q14 14 13.5 33.5T868.105-40q-13.894 14-33 14Q816-26 802-40ZM480-172q41 0 79-10t71-29L480-361v189Zm373-85-94-93q13.841-28.664 21.42-61.832Q788-445 788-480q0-129-89.994-218.5Q608.013-788 480-788v158L257-853q48.655-29.092 104.911-45.046Q418.168-914 480-914q91 0 169.987 34.084 78.988 34.083 137.417 92.512t92.512 137.417Q914-571 914-480q0 61.832-15.954 118.089Q882.092-305.655 853-257Z"/></svg>