<svg xmlns="http://www.w3.org/2000/svg" height="20" viewBox="0 -960 960 960" width="20"><path d="M480-480Zm.061 274q-113.49 0-193.775-80.225Q206-366.45 206-479.939q0-113.49 80.225-193.775Q366.45-754 479.939-754q113.49 0 193.775 80.225Q754-593.55 754-480.061q0 113.49-80.225 193.775Q593.55-206 480.061-206Zm.123-118Q545-324 590.5-369.684q45.5-45.683 45.5-110.5Q636-545 590.316-590.5q-45.683-45.5-110.5-45.5Q415-636 369.5-590.316q-45.5 45.683-45.5 110.5Q324-415 369.684-369.5q45.683 45.5 110.5 45.5Z"/></svg>