<svg xmlns="http://www.w3.org/2000/svg" height="24" viewBox="0 -960 960 960" width="24"><path d="m638.231-264.154-114 114q-9.692 9.693-21.5 14.539T479-130.769q-11.923 0-23.731-4.846-11.808-4.846-21.5-14.539L149.154-434.769q-9.693-9.692-14.539-21.5T129.769-480q0-11.923 4.846-23.731 4.846-11.808 14.539-21.5l114-114L88.846-813.538q-5.846-5.847-6.23-13.885-.385-8.039 6.23-14.654t14.269-6.615q7.654 0 14.27 6.615l740.384 740.615q5.846 5.847 6.231 13.77.385 7.923-6.231 14.538-6.615 6.616-14.269 6.616t-14.269-6.616l-191-191ZM536.846-365.538l-28.539-28.308-43.692 43.692q-5.615 5.615-6 13.654-.384 8.039 6.231 14.654 6.385 6.385 14.154 6.385t14.154-6.385l43.692-43.692ZM442.154-460l-40.001-40h-75.461q-8.538 0-14.269 5.731-5.731 5.73-5.731 14.269t5.731 14.269Q318.154-460 326.692-460h115.462Zm175.615 5.385 9.923-9.693q6.847-6.384 6.731-14.923-.115-8.538-6.731-15.154l-143-143q-5.846-5.846-13.769-6.23-7.923-.385-14.538 6.23-4.77 4.77-5.347 9.539-.577 4.769 2.808 9.769L347.923-724l85.846-85.846q9.692-9.693 21.5-14.539T479-829.231q11.923 0 23.731 4.846 11.808 4.846 21.5 14.539l284.615 284.615q9.693 9.692 14.539 21.5T828.231-480q0 11.923-4.846 23.731-4.846 11.808-14.539 21.5L723-348.923 617.769-454.615Z"/></svg>