<svg xmlns="http://www.w3.org/2000/svg" height="24" viewBox="0 -960 960 960" width="24"><path d="m830.231-73.154-191-191-114 114q-9.66 9.693-21.332 14.539-11.673 4.846-23.747 4.846-12.075 0-23.855-4.846-11.779-4.846-21.528-14.539L150.154-434.769q-9.693-9.66-14.539-21.332-4.846-11.673-4.846-23.747 0-12.075 4.846-23.855 4.846-11.779 14.539-21.528l114-114L89.615-813.538q-5.846-5.847-6.115-13.885-.27-8.039 6.346-14.654 6.615-6.615 14.269-6.615t14.27 6.615l740.384 740.615q5.846 5.847 6.231 13.77.385 7.923-6.231 14.538-6.615 6.616-14.269 6.616t-14.269-6.616ZM611.692-291.692l-73.846-73.846-43.692 43.692q-5.615 5.615-13.654 6.115t-14.821-6.282q-6.218-6.218-6.333-13.872-.115-7.654 6.269-14.269l43.692-43.692L443.154-460H327.692q-8.5 0-14.25-5.758-5.75-5.757-5.75-14.269t5.75-14.242q5.75-5.731 14.25-5.731h75.461L291.692-611.692 176.923-496.923Q170-490 170-480q0 10 6.923 16.923l286.154 286.154Q470-170 480-170q10 0 16.923-6.923l114.769-114.769ZM724-348.923l-27.538-27.539 86.615-86.615Q790-470 790-480q0-10-6.923-16.923L496.923-783.077Q490-790 480-790q-10 0-16.923 6.923l-86.615 86.615L348.923-724l85.846-85.846q9.66-9.693 21.332-14.539 11.673-4.846 23.747-4.846 12.075 0 23.855 4.846 11.779 4.846 21.528 14.539l284.615 284.615q9.693 9.66 14.539 21.332 4.846 11.673 4.846 23.747 0 12.075-4.846 23.855-4.846 11.779-14.539 21.528L724-348.923ZM618.539-454.385l10.153-9.923q6.847-6.384 6.731-14.923-.115-8.538-6.731-15.154l-143-143q-5.846-5.846-13.769-6.23-7.923-.385-14.538 6.23-4.77 4.77-5.347 9.539-.577 4.769 2.808 9.769l163.693 163.692Zm-82.077-82.077Zm-84.77 84.77Z"/></svg>