<svg xmlns="http://www.w3.org/2000/svg" height="20" viewBox="0 -960 960 960" width="20"><path d="M749.218-106.391 647.87-206.173l-99.782 97.782q-14.493 14.957-31.809 22.153-17.316 7.195-36.059 7.195-18.742 0-36.278-7.195-17.537-7.196-32.03-22.153L107.391-411.912q-14.957-14.957-21.653-32.18-6.695-17.223-6.695-36.109 0-18.886 6.695-36.408 6.696-17.522 21.653-32.479l98.782-97.782L115-739.174q-12.13-12.13-12.413-28.326-.283-16.196 11.855-28.326 12.137-12.131 28.826-12.131t28.819 12.131L805.87-162.609q12.131 12.024 12.131 28.056 0 16.032-12.19 28.162-12.19 12.13-28.493 12.13-16.303 0-28.1-12.13ZM579.782-275.826l-56.478-56.478L505-314q-11 11-25.5 11T454-314q-11-11-11-25t11-25l18.87-19.304L412.174-444H324q-15.3 0-25.65-10.289-10.35-10.29-10.35-25.5Q288-495 298.35-505.5 308.7-516 324-516h16.174l-64.348-63.782L177.609-480 480-177.609l99.782-98.217Zm181.393-43.652-69.653-68.653L782.391-480 480-782.391l-91.869 90.869-68.653-69.653 91.434-91.434q14.917-14.957 32.832-21.935 17.915-6.979 36.447-6.979 18.533 0 36.312 6.979 17.78 6.978 32.585 21.935l303.521 303.521q14.957 14.822 21.935 32.621 6.979 17.799 6.979 36.212 0 18.413-6.979 36.393-6.978 17.979-21.935 32.95l-91.434 91.434ZM636.609-443.609l13.782-15.348q8.174-11 7.609-23.304-.565-12.304-11-22.739L505-647q-10.071-10.435-22.84-11-12.769-.565-23.203 8.174-3.493 3.304-6.051 9.608-2.558 6.305-.427 13.044l184.13 183.565Zm-96-97Zm-97.305 127.305Z"/></svg>