<svg xmlns="http://www.w3.org/2000/svg" height="20" viewBox="0 -960 960 960" width="20"><path d="M374-543.056Q374-528 380.5-510t18.5 32v-3q2-14 7.5-25.5T422-529l58-58 59 57q10 11 15.5 23t7.5 26v3q14-17 18-33.5t4-31.5q0-20.87-7-40.435T557-617q-8.761 5-18.511 7.5T518-607q-28 0-49.5-17.5T441-669q-17 16-30 32t-20.5 32q-7.5 16-12 31.5t-4.5 30.444ZM480-520l-25 25q-5 5-7.5 10.346T445-473q0 13 10 24t25 11q15 0 25-11t10-24q0-6-2.5-11.5T505-495l-25-25Zm8-236v71q0 10.3 9.537 19.65Q507.073-656 517-656q4.345 0 9.172-1 4.828-1 7.828-4l17-21q38 23 59.5 59.5T632-543q0 63.449-43.5 108.225Q545-390 480-390q-64 0-109-45t-45-109q0-53 39-110.5T488-756ZM249-75q-47.975 0-82.988-35.012Q131-145.025 131-193v-502q0-79.975 55.012-134.987Q241.025-885 321-885h318q80.975 0 135.487 54.513Q829-775.975 829-695v502q0 48.975-34.513 83.488Q759.975-75 711-75H249Zm0-193v75h462v-75q-27 0-46.5 24T596-220q-51 0-70.5-24T480-268q-26 0-44.5 24T364-220q-48 0-66.5-24T249-268Zm115-54q30 0 45-24t71-24q57 0 73 24t43 24q27 0 45-24t70-24v-325q0-32-20-52t-52-20H321q-31 0-51.5 20T249-695v325q53 0 69.5 24t45.5 24Z"/></svg>