<svg xmlns="http://www.w3.org/2000/svg" height="20" viewBox="0 -960 960 960" width="20"><path d="M393.609-288q20 0 34-14t14-34q0-20-14-34t-34-14q-20 0-34 14t-14 34q0 20 14 34t34 14ZM86.391-323.87v-351.521q0-83.305 71.522-123.545 71.522-40.239 249.088-40.239 19.565 0 38.978 1.065t39.544 1.631q-28.479 48.13-40.979 104.587t8.587 111.283H184.392v120h347.914q31.434 24.479 79.174 44 47.739 19.522 89.348 14.435v118.304q0 61.522-34 107.653-34 46.13-88 62.044l40.225 41.304q12.47 10.826 6.775 26.848-5.696 16.022-22.218 16.022H183.609q-16.522 0-22.218-16.022-5.696-16.022 6.774-26.848l40.226-41.304q-54-15.914-88-62.044-34-46.131-34-107.653Zm607.006-188.609q-74.788 0-127.288-52.712t-52.5-127.5q0-74.788 52.712-127.288t127.5-52.5q74.788 0 127.288 52.712t52.5 127.5q0 74.788-52.712 127.288t-127.5 52.5Zm-7.68-181.695q11.579 0 20.192-8.557t8.613-19.965v-38.956q0-11.409-8.331-19.966-8.33-8.556-19.908-8.556-11.579 0-20.192 8.556-8.613 8.557-8.613 19.966v38.956q0 11.408 8.331 19.965 8.33 8.557 19.908 8.557ZM686-582.913q12.991 0 21.887-8.896 8.896-8.895 8.896-21.887 0-12.991-8.896-21.887T686-644.479q-12.991 0-21.887 8.896t-8.896 21.887q0 12.992 8.896 21.887 8.896 8.896 21.887 8.896Z"/></svg>