<svg xmlns="http://www.w3.org/2000/svg" height="24" viewBox="0 -960 960 960" width="24"><path d="M417-280q25 0 42.5-17.5T477-340q0-25-17.5-42.5T417-400q-25 0-42.5 17.5T357-340q0 25 17.5 42.5T417-280ZM63-321v-365q0-101 86.5-148T423-881q18 0 36 1t38 2q-35 50-39.5 119T477-634H189v120h378q39 32 96.5 48.5T771-458v137q0 67-40.5 121T631-132l60 40q20 13 13 35.5T674-34H160q-23 0-30-22.5T143-92l60-40q-59-14-99.5-68T63-321Zm674-214q-83 0-141.5-58.5T537-735q0-83 58.5-141.5T737-935q83 0 141.5 58.5T937-735q0 83-58.5 141.5T737-535Zm-17.5-163q11.5 0 20-8.4T748-726v-104q0-11.2-8-19.6-8-8.4-19.5-8.4t-20 8.4q-8.5 8.4-8.5 19.6v104q0 11.2 8 19.6 8 8.4 19.5 8.4Zm.5 107q14 0 23-9t9-23q0-14-9-23t-23-9q-14 0-23 9t-9 23q0 14 9 23t23 9Z"/></svg>