<svg xmlns="http://www.w3.org/2000/svg" height="24" viewBox="0 -960 960 960" width="24"><path d="M415.385-295.385q18.846 0 31.73-12.884Q460-321.154 460-340q0-18.846-12.885-31.731-12.884-12.884-31.73-12.884-18.847 0-31.731 12.884-12.885 12.885-12.885 31.731 0 18.846 12.885 31.731 12.884 12.884 31.731 12.884Zm-280.001-20V-680q0-63.308 65.423-92.039 65.424-28.73 210.731-28.73h72.154q-4.154 9.538-6.961 20.038-2.808 10.5-5.039 15.346h-70.461q-97.231 0-152.962 16.923-55.73 16.923-68.731 50h285.077q0 9.462 1.077 18.962t4 21.039H175.385V-480h453.23q4.846 4.846 11.308 9 6.461 4.154 15.462 6.923V-440h-480v124.615q0 31.154 22.115 53.27Q219.615-240 250.769-240H580q31.154 0 53.269-22.115 22.116-22.116 22.116-53.27v-154.076q9.538 2.692 19.769 3.769 10.231 1.077 20.231 1.077v150.769q0 42.846-30.5 78.346Q634.385-200 580-200l43.462 29.154q9.692 6.462 6.077 17.885-3.616 11.423-15.539 11.423H216.769q-11.923 0-15.539-11.423-3.615-11.423 6.077-17.885L250.769-200q-54.385 0-84.885-36.269-30.5-36.269-30.5-79.116Zm569.231-229.23q-66.846 0-113.423-46.577t-46.577-113.423q0-66.847 46.577-113.424 46.577-46.577 113.423-46.577 66.847 0 113.424 46.577 46.577 46.577 46.577 113.424 0 66.846-46.577 113.423t-113.424 46.577ZM580-440H175.385h480H580ZM179.538-698.462h285.077-285.077ZM704.615-680q6.462 0 10.924-4.462Q720-688.923 720-695.385v-89.231q0-6.461-4.461-10.923Q711.077-800 704.615-800q-6.461 0-10.923 4.461-4.461 4.462-4.461 10.923v89.231q0 6.462 4.461 10.923Q698.154-680 704.615-680Zm0 73.846q8 0 13.231-5.231 5.231-5.23 5.231-13.23t-5.231-13.231q-5.231-5.231-13.231-5.231t-13.23 5.231q-5.231 5.231-5.231 13.231t5.231 13.23q5.23 5.231 13.23 5.231Z"/></svg>