<svg xmlns="http://www.w3.org/2000/svg" height="20" viewBox="0 -960 960 960" width="20"><path d="M110-748v-102h102v102H110Zm160 0v-102h102v102H270Zm159 0v-102h102v102H429Zm160 0v-102h102v102H589Zm159 638v-740h102v740H748ZM110-588v-102h102v102H110Zm319 0v-102h102v102H429ZM110-429v-102h102v102H110Zm160 0v-102h102v102H270Zm159 0v-102h102v102H429Zm160 0v-102h102v102H589ZM110-269v-102h102v102H110Zm319 0v-102h102v102H429ZM110-110v-102h102v102H110Zm160 0v-102h102v102H270Zm159 0v-102h102v102H429Zm160 0v-102h102v102H589Z"/></svg>