<svg xmlns="http://www.w3.org/2000/svg" height="20" viewBox="0 -960 960 960" width="20"><path d="M135.869-744.957v-79.174h79.174v79.174h-79.174Zm152.392 0v-79.174h79.174v79.174h-79.174Zm152.152 0v-79.174h79.174v79.174h-79.174Zm152.391 0v-79.174h79.174v79.174h-79.174Zm152.153 609.088v-688.262h79.174v688.262h-79.174ZM135.869-592.565v-79.174h79.174v79.174h-79.174Zm304.544 0v-79.174h79.174v79.174h-79.174ZM135.869-440.413v-79.174h79.174v79.174h-79.174Zm152.392 0v-79.174h79.174v79.174h-79.174Zm152.152 0v-79.174h79.174v79.174h-79.174Zm152.391 0v-79.174h79.174v79.174h-79.174ZM135.869-288.022v-79.174h79.174v79.174h-79.174Zm304.544 0v-79.174h79.174v79.174h-79.174ZM135.869-135.869v-79.174h79.174v79.174h-79.174Zm152.392 0v-79.174h79.174v79.174h-79.174Zm152.152 0v-79.174h79.174v79.174h-79.174Zm152.391 0v-79.174h79.174v79.174h-79.174Z"/></svg>