<svg xmlns="http://www.w3.org/2000/svg" height="24" viewBox="0 -960 960 960" width="24"><path d="M480-140.782q-95.522 0-189.979-9.63-94.456-9.631-185.848-34.892-22.13-72.391-32.76-145.848Q60.781-404.609 60.781-480q0-75.391 10.63-148.848 10.63-73.457 32.761-145.848 84.087-22.261 176.761-33.392 92.675-11.13 199.066-11.13 108.087 0 200.761 11.13 92.674 11.131 175.066 33.392 22.13 72.391 32.761 145.848 10.63 73.457 10.63 148.848 0 75.391-11.13 148.848-11.131 73.457-32.261 145.848-91.957 24.696-186.131 34.609T480-140.782Z"/></svg>