<svg xmlns="http://www.w3.org/2000/svg" height="20" viewBox="0 -960 960 960" width="20"><path d="M480.319-303.385q-9.934 0-16.973-6.72-7.038-6.72-7.038-16.653 0-9.934 6.72-16.973 6.72-7.038 16.653-7.038 9.934 0 16.973 6.72 7.038 6.72 7.038 16.654 0 9.934-6.72 16.972-6.72 7.038-16.653 7.038Zm-.135-134.769q-6.723 0-11.453-4.6-4.731-4.6-4.731-11.4V-760q0-6.8 4.547-11.4 4.547-4.6 11.269-4.6 6.723 0 11.453 4.6Q496-766.8 496-760v305.846q0 6.8-4.547 11.4-4.547 4.6-11.269 4.6ZM240.615-184q-24.315 0-40.465-16.15Q184-216.3 184-240.615v-75.923q0-6.8 4.547-11.4 4.547-4.6 11.269-4.6t11.453 4.6q4.731 4.6 4.731 11.4v75.923q0 9.23 7.692 16.923Q231.385-216 240.615-216h478.77q9.23 0 16.923-7.692Q744-231.385 744-240.615v-75.923q0-6.8 4.547-11.4 4.547-4.6 11.27-4.6 6.722 0 11.452 4.6 4.731 4.6 4.731 11.4v75.923q0 24.315-16.15 40.465Q743.7-184 719.385-184h-478.77Z"/></svg>