<svg xmlns="http://www.w3.org/2000/svg" height="24" viewBox="0 -960 960 960" width="24"><path d="M485.385-153.846q-81.539 0-140.693-54.808-59.154-54.807-64-135.346-63.538-14-104.423-63.846-40.885-49.846-40.885-114.923 0-73 49.654-125.116Q234.692-700 306.923-700h108.461q16.462 0 28.231-11.769 11.769-11.77 11.769-28.231 0-16.461-11.769-28.231Q431.846-780 415.384-780h-60q-8.538 0-14.269-5.731-5.731-5.73-5.731-14.269t5.731-14.269Q346.846-820 355.384-820h60q33.539 0 56.77 23.231 23.231 23.23 23.231 56.769t-23.231 56.769Q448.923-660 415.384-660H306.923q-55.385 0-93.462 40.154-38.076 40.154-38.076 96.846 0 48.461 29.538 85.961T281.692-386q9.846-76.539 65.346-127.962t131.731-51.423q19.231 0 37.731 2.885 18.5 2.884 35.962 9.654-38.693 20.23-62.885 56-24.193 35.769-24.193 79.231 0 22.769 6.039 44.807 6.038 22.039 19.115 40.424 2.693 3.461 6.616 4.846 3.923 1.384 7.615-1.308 3.923-2.692 4.423-6.577T507-343.231q-11.692-16.461-16.654-35-4.961-18.538-4.961-38.692 0-54.385 38.307-91.808 38.308-37.423 92.693-37.423 54.154 0 91.577 37.423 37.423 37.423 37.423 91.346 0 18.616-5.039 36.885-5.038 18.269-15.884 33.731l89.077 83.846q12.769 11 21.038 24.885 8.269 13.884 8.269 30.654 0 23.769-20.269 38.653-20.269 14.885-46.269 14.885H485.385ZM680-240q12.385 0 21.577-9.192 9.192-9.192 9.192-21.577 0-12.385-9.192-21.577-9.192-9.192-21.577-9.192-12.385 0-21.577 9.192-9.192 9.192-9.192 21.577 0 12.385 9.192 21.577Q667.615-240 680-240Z"/></svg>