<svg xmlns="http://www.w3.org/2000/svg" height="24" viewBox="0 -960 960 960" width="24"><path d="M488.479-102.477q-95.522 0-166.979-58.913-71.457-58.914-85.848-150.74-79.348-14.565-130.501-74.239-51.152-59.674-51.152-139.022 0-89.218 62.964-151.805 62.964-62.588 152.297-62.588h100q7.435 0 12.587-5.152t5.152-12.587q0-7.434-5.152-12.586-5.152-5.153-12.587-5.153h-60q-21.564 0-36.152-14.579-14.587-14.579-14.587-36.131 0-21.551 14.587-36.16 14.588-14.609 36.152-14.609h60q50.072 0 84.645 34.541 34.574 34.541 34.574 84.566 0 50.025-34.574 84.96-34.573 34.935-84.645 34.935h-100q-47.409 0-80.595 32.522-33.187 32.521-33.187 79.391 0 37.739 23 67.978 23 30.239 59.304 41.674 18.827-88.392 88.283-144.87 69.457-56.479 160.414-56.479 20 0 39.5 2.846t36.5 7.589q8-2.435 15.91-4.435 7.91-2 16.348-3.5 8.437-1.5 18.003-2 9.565-.5 20.261-.5 76.391 0 134.196 54.746 57.804 54.746 57.804 135.255 0 6.739-.5 13.739-.5 7-1.369 11l31.217 29.348q25.261 22.826 37.957 52.431 12.695 29.606 12.695 62.004 0 65.312-45.304 110.917-45.305 45.606-110.218 45.606h-261Zm0-102.045h261q22.39 0 38.717-16.126 16.326-16.126 16.326-38.242 0-11.98-4.703-22.358-4.702-10.378-13.167-17.926l-77.826-70.261q8-12.13 11.848-25.865 3.848-13.735 3.848-28.526 0-38.044-26.739-64.848-26.739-26.804-64.782-26.804-38.044 0-64.783 27.022-26.739 27.021-26.739 65.065 0 9.734 1.935 18.345 1.935 8.611 5.239 16.784 5.87 17.131-.457 33.696-6.326 16.565-22.022 25.131-21.348 11.391-43.065 3.369-21.718-8.022-28.588-29.935-7.478-15.348-10.999-32.022Q440-404.697 440-422.435q0-24.304 6.152-47.174 6.152-22.869 19.022-43.739-53.783 3.392-92.978 48.696Q333.001-419.348 333.001-360q0 31.986 12.217 60.58 12.217 28.594 33.37 49.529 21.152 20.934 49.586 33.152 28.435 12.217 60.305 12.217Zm186.999-32.652q-20.391 0-34.435-14.326-14.044-14.326-14.044-34.718 0-20.391 13.938-34.435 13.938-14.043 34.541-14.043 20.392 0 34.718 13.937 14.326 13.938 14.326 34.541 0 20.392-14.326 34.718-14.326 14.326-34.718 14.326ZM568.479-410.74Z"/></svg>