<svg xmlns="http://www.w3.org/2000/svg" height="24" viewBox="0 -960 960 960" width="24"><path d="M280-140v-147.692q0-13.731 9.288-23.02 9.289-9.288 23.02-9.288H460v-147.692q0-13.731 9.288-23.02 9.289-9.288 23.02-9.288H640v-147.692q0-13.731 9.288-23.02 9.289-9.288 23.02-9.288H820v-120q0-8.5 5.758-14.25 5.757-5.75 14.269-5.75t14.242 5.75Q860-808.5 860-800v127.692q0 13.731-9.288 23.02-9.289 9.288-23.02 9.288H680v147.692q0 13.731-9.288 23.02-9.289 9.288-23.02 9.288H500v147.692q0 13.731-9.288 23.02-9.289 9.288-23.02 9.288H320v147.692q0 13.731-9.288 23.02-9.289 9.288-23.02 9.288H160q-8.5 0-14.25-5.758-5.75-5.757-5.75-14.269t5.75-14.242Q151.5-140 160-140h120Z"/></svg>