<svg xmlns="http://www.w3.org/2000/svg" height="20" viewBox="0 -960 960 960" width="20"><path d="M308-148v-139.692q0-12.031 8.138-20.17 8.139-8.138 20.17-8.138H476v-139.692q0-12.031 8.138-20.17 8.139-8.138 20.17-8.138H644v-139.692q0-12.031 8.138-20.17 8.139-8.138 20.17-8.138H812v-128q0-6.8 4.547-11.4 4.547-4.6 11.269-4.6 6.723 0 11.453 4.6Q844-786.8 844-780v131.692q0 12.031-8.138 20.17-8.139 8.138-20.17 8.138H676v139.692q0 12.031-8.138 20.17-8.139 8.138-20.17 8.138H508v139.692q0 12.031-8.138 20.17-8.139 8.138-20.17 8.138H340v139.692q0 12.031-8.138 20.17-8.139 8.138-20.17 8.138H180q-6.8 0-11.4-4.547-4.6-4.547-4.6-11.269 0-6.723 4.6-11.453Q173.2-148 180-148h128Z"/></svg>