<svg xmlns="http://www.w3.org/2000/svg" height="20" viewBox="0 -960 960 960" width="20"><path d="M274.999-181.001V-300q0-20.387 14.307-34.694 14.307-14.307 34.694-14.307h118.999V-468q0-20.387 14.307-34.694 14.307-14.307 34.694-14.307h118.999V-636q0-20.387 14.307-34.694 14.307-14.307 34.694-14.307h118.999V-780q0-20.387 14.246-34.694 14.247-14.307 34.544-14.307 20.298 0 34.755 14.307 14.457 14.307 14.457 34.694v144q0 20.387-14.307 34.694-14.307 14.307-34.694 14.307H709.001V-468q0 20.387-14.307 34.694-14.307 14.307-34.694 14.307H541.001V-300q0 20.387-14.307 34.694-14.307 14.307-34.694 14.307H373.001V-132q0 20.387-14.307 34.694Q344.387-83 324-83H180q-20.387 0-34.694-14.247-14.307-14.246-14.307-34.543 0-20.298 14.307-34.755 14.307-14.457 34.694-14.457h94.999Z"/></svg>