<svg xmlns="http://www.w3.org/2000/svg" height="24" viewBox="0 -960 960 960" width="24"><path d="M84.615-380q-8.5 0-14.25-5.758-5.75-5.757-5.75-14.269t5.75-14.242Q76.115-420 84.615-420H180q8.5 0 14.25 5.758 5.75 5.757 5.75 14.269t-5.75 14.242Q188.5-380 180-380H84.615ZM282-598q-5.615 5.615-13.898 5.615-8.282 0-13.641-5.615l-70.076-70.077q-5.616-5.231-5.616-13.077t5.462-13.692q5.958-5.846 13.902-5.846 7.944 0 13.79 5.846L282-624.769q5.615 5.615 5.615 13.384 0 7.77-5.615 13.385Zm58 318q-16.667 0-28.333-11.64Q300-303.28 300-319.909q0-16.629 11.667-28.36Q323.333-360 340-360h280q16.667 0 28.333 11.64Q660-336.719 660-320.09q0 16.629-11.667 28.359Q636.667-280 620-280H340Zm139.973-400q-8.512 0-14.242-5.75Q460-691.5 460-700v-135.385q0-8.5 5.758-14.25 5.757-5.75 14.269-5.75t14.242 5.75q5.731 5.75 5.731 14.25V-700q0 8.5-5.758 14.25-5.757 5.75-14.269 5.75Zm196.489 81.615q-5.616-6-5.231-14.538.384-8.539 6-14.154l69.307-67.769q5.616-5.616 14.039-6 8.423-.385 14.269 6 5.846 5.846 5.462 14.154-.385 8.307-6.231 14.154l-69.308 67.769q-5.615 5.615-14.154 6-8.538.384-14.153-5.616ZM780-380q-8.5 0-14.25-5.758-5.75-5.757-5.75-14.269t5.75-14.242Q771.5-420 780-420h95.385q8.5 0 14.25 5.758 5.75 5.757 5.75 14.269t-5.75 14.242q-5.75 5.731-14.25 5.731H780Z"/></svg>