<svg xmlns="http://www.w3.org/2000/svg" height="20" viewBox="0 -960 960 960" width="20"><path d="M528-537.848 385.348-680.74 443-739.631l85 85.239 187-187.239 58.891 58.891L528-537.848ZM549.609-61l-260.174-80.282v55.804h-251v-446.587h296.608l269.196 96.478q35.152 12.957 53.968 38.511 18.815 25.554 18.815 64.424h40.587q63.089 0 107.251 40.924 44.162 40.924 44.162 103.076v29.5L549.609-61Zm-432-103.652h92.413v-288h-92.413v288Zm432 21 235-72q-10-21.239-28.148-33.12-18.147-11.88-38.887-11.88H565.37q-51.805 0-86.642-4.12-34.837-4.119-56.641-12.641l-52.478-21.239 25-68 46.804 18.522q24.435 9.478 56.85 12.478 32.416 3 99.346 3 0-11-5.5-18t-14.5-10l-256-92h-32.174v228.717l260.174 80.283ZM210.022-310.891Zm387.587-21.761Zm-387.587 21.761Zm79.413 0Z"/></svg>