<svg xmlns="http://www.w3.org/2000/svg" height="24" viewBox="0 -960 960 960" width="24"><path d="M202-333q-12.75 0-21.375-8.625T172-363v-73q0-12.75 8.625-21.375T202-466h556q12.75 0 21.375 8.625T788-436v73q0 12.75-8.625 21.375T758-333H202Zm0-161q-12.75 0-21.375-8.625T172-524v-73q0-12.75 8.625-21.375T202-627h556q12.75 0 21.375 8.625T788-597v73q0 12.75-8.625 21.375T758-494H202Zm0-161q-12.75 0-21.375-8.625T172-685v-73q0-12.75 8.625-21.375T202-788h556q12.75 0 21.375 8.625T788-758v73q0 12.75-8.625 21.375T758-655H202Zm0 483q-12.75 0-21.375-8.625T172-202v-73q0-12.75 8.625-21.375T202-305h556q12.75 0 21.375 8.625T788-275v73q0 12.75-8.625 21.375T758-172H202Z"/></svg>