<svg xmlns="http://www.w3.org/2000/svg" height="24" viewBox="0 -960 960 960" width="24"><path d="M480-115.384q-25.308 0-42.654-17.347Q420-150.077 420-175.385q0-18.692 11-34 11-15.307 29-21.692V-340H340q-27.616 0-46.116-18.5t-18.5-46.115v-84.308q-17.23-5.923-28.615-20.462-11.385-14.538-11.385-35.23 0-25.308 17.347-42.654 17.346-17.347 42.654-17.347 25.307 0 42.653 17.347 17.347 17.346 17.347 42.654 0 20.692-11.385 35-11.385 14.307-28.615 20.692v84.308q0 9.23 7.692 16.923Q330.769-380 340-380h120v-329.231h-60l80-106.154 80 106.154h-60V-380h120q9.231 0 16.923-7.692 7.692-7.693 7.692-16.923v-80h-40v-120.001h120.001v120.001h-40v80q0 27.615-18.5 46.115Q647.616-340 620-340H500v108.923q18.231 6.154 29.115 21.462Q540-194.308 540-175.385q0 25.308-17.346 42.654-17.346 17.347-42.654 17.347Z"/></svg>