<svg xmlns="http://www.w3.org/2000/svg" height="20" viewBox="0 -960 960 960" width="20"><path d="M479.788-142Q460-142 447-155.15 434-168.3 434-188q0-16.526 9.5-29.763Q453-231 470-234v-128H350q-22.7 0-37.35-14.541Q298-391.081 298-413.628V-486q-16-5-26-17t-10-29q0-19.7 13.212-32.85 13.213-13.15 33-13.15Q328-578 341-564.85q13 13.15 13 32.85 0 17-10 30t-26 16v72q0 12 10 22t22 10h120v-324h-58l68-74 68 74h-58v324h120q12 0 22-10t10-22v-72h-36v-92h92v92h-36v72q0 22.7-14.65 37.35Q632.7-362 610-362H490v128q16.1 4.109 26.05 17.005 9.95 12.896 9.95 28.936Q526-168 512.788-155q-13.213 13-33 13Z"/></svg>