<svg xmlns="http://www.w3.org/2000/svg" height="24" viewBox="0 -960 960 960" width="24"><path d="M480-62.477q-36.391 0-62.435-26.327-26.044-26.326-26.044-62.717 0-22.131 10.718-40.696 10.717-18.565 29.282-31.261v-78.999H320q-40.348 0-68.935-28.588-28.588-28.587-28.588-68.935v-86.913q-18-11.261-29-30.391-11-19.131-11-42.696 0-36.957 26.327-62.718 26.326-25.761 62.717-25.761 36.957 0 62.718 25.761Q360-596.957 360-560q0 24.13-11 42.261-11 18.13-29 30.261V-400h111.521v-320h-89.044L480-903.175 617.523-720h-89.044v320H640v-71.521h-40v-176.958h177.523v176.958h-40V-400q0 40.348-28.588 68.935-28.587 28.588-68.935 28.588H528.479v77.868q19 12.261 29.5 31.392 10.5 19.13 10.5 41.696 0 36.391-26.044 62.717Q516.391-62.477 480-62.477Z"/></svg>