<svg xmlns="http://www.w3.org/2000/svg" height="24" viewBox="0 -960 960 960" width="24"><path d="M162.956-165.217q-14.957-14.957-14.957-37.044 0-22.087 14.957-37.044l48.217-48.782q-29.739-41.565-46.108-90.435-16.37-48.869-16.37-103.739 0-138.522 96.392-234.913Q341.478-813.566 480-813.566h331.305v331.305q0 138.522-96.392 234.913Q618.522-150.956 480-150.956q-54.87 0-103.522-16.37-48.652-16.369-90.217-46.108l-49.217 48.217Q222.087-150.26 200-150.26q-22.087 0-37.044-14.957Zm173.305-173.305q15.522 16.392 37.327 16.174 21.804-.217 37.761-16.174l145.695-145.695q15.957-15.957 15.957-37.544 0-21.587-15.957-37.544-14.957-14.957-37.044-14.957-22.087 0-37.044 14.957L334-410.914q-14.391 14.391-13.544 35.696.848 21.305 15.805 36.696Z"/></svg>