<svg xmlns="http://www.w3.org/2000/svg" height="20" viewBox="0 -960 960 960" width="20"><path d="M207.155-819.999h545.69q44.384 0 66.268 38.154 21.885 38.154.193 76.307L546.461-234.079Q524.769-195.925 480-195.925t-66.461-38.154L140.694-705.538q-21.692-38.153.193-76.307 21.884-38.154 66.268-38.154Zm-10.385 82.462 61.384 105.538h443.692l61.384-105.538q3.462-6.154.192-12.309Q760.153-756 752.845-756h-545.69q-7.308 0-10.577 6.154-3.27 6.155.192 12.309Zm98.46 169.536 78.54 136.002h212.46l78.54-136.002H295.23Zm114.616 200 59.384 101.538q3.462 6.154 10.77 6.154t10.77-6.154l59.384-101.538H409.846Z"/></svg>