<svg xmlns="http://www.w3.org/2000/svg" height="24" viewBox="0 -960 960 960" width="24"><path d="M240-389.23h480v-132.693H403.846V-720H320q-33 0-56.5 24.291T240-637.307v248.077ZM480.096-160q22.597 0 45.097-3.462 22.5-3.461 44.808-9.615v-156.154H389.999v156.154q22.308 6.154 44.904 9.615Q457.5-160 480.096-160ZM480-100.001q-75.915 0-145.188-28.962-69.273-28.961-123.965-81.884l42.768-42.768q16.924 16.923 36.116 30.961 19.193 14.039 40.27 25.039v-131.616h-150v-308.076q0-59.077 41.125-100.884 41.125-41.808 98.874-41.808h143.845v198.077h316.154v252.691h-150v131.616q21.077-11 40.27-25.039 19.192-14.038 36.116-30.961l42.768 42.768q-54.692 52.923-123.965 81.884Q555.915-100.001 480-100.001Zm-76.154-421.922Z"/></svg>