<svg xmlns="http://www.w3.org/2000/svg" height="20" viewBox="0 -960 960 960" width="20"><path d="M264-373.23h432v-132.693H411.625V-696h-75.902Q306-696 285-674.059t-21 52.752v248.077ZM480.096-168q20.597 0 41.597-2.462 21-2.461 40.308-8.164v-142.605H397.999v142.154q20.308 6.154 40.904 8.615Q459.5-168 480.096-168Zm.028 51.999q-73.039 0-139.312-27.462-66.273-27.461-117.965-78.384l36.768-36.768q18.924 18.923 41.116 33.461 22.193 14.539 45.27 27.539v-123.616h-134v-300.076q0-53.077 36.125-89.884 36.125-36.808 87.449-36.808h128.27v190.077h284.154v236.691h-134v123.616q23.077-12 45.77-27.039 22.692-15.038 41.616-33.961l36.768 36.768q-51.692 50.923-118.341 78.384-66.648 27.462-139.688 27.462Zm-68.278-389.922Z"/></svg>