<svg xmlns="http://www.w3.org/2000/svg" height="20" viewBox="0 -960 960 960" width="20"><path d="M480-174.783q13.478 0 27.739-.369 14.26-.37 26.738-3.674v-127.522H425.523v127.522q13.478 3.304 27.238 3.674 13.761.369 27.239.369Zm0 98.001q-81.522 0-155.196-30.13-73.674-30.131-132.196-85.261l69.653-69.088q14.739 13.609 31.695 24.065 16.957 10.456 33.565 21.761v-90.913H172.782v-319.348q0-66.783 47.652-114.153Q268.087-787.218 336-787.218h158.696v186.912h292.522v293.958H632.479v90.913q16.608-10.305 34.065-21.261 17.456-10.956 32.195-24.565l69.653 69.088q-58.522 55.13-132.696 85.261Q561.522-76.782 480-76.782Z"/></svg>