<svg xmlns="http://www.w3.org/2000/svg" height="20" viewBox="0 -960 960 960" width="20"><path d="M216-78.477q-41.305 0-69.653-28.349-28.348-28.348-28.348-69.653V-336l133.827-149.827 69.653 68.653L250.174-336h459.652l-80.87-92.304 69.653-69.653L842.001-336v159.521q0 41.305-28.348 69.653Q785.305-78.477 744-78.477H216Zm202.912-337.611L295.217-539.783q-21.913-22.479-21.631-52.153.283-29.675 22.196-51.588l190.695-190.695q21.914-21.914 51.588-21.914 29.675 0 51.588 22.479l122.565 124.261q21.913 22.478 21.348 52.435-.565 29.957-22.479 51.871L522.088-416.088q-21.914 21.914-51.588 22.196-29.674.283-51.588-22.196ZM626.13-658.306 538-745.87 381.87-590.306l88.13 88.13 156.13-156.13Z"/></svg>