<svg xmlns="http://www.w3.org/2000/svg" height="20" viewBox="0 -960 960 960" width="20"><path d="M231.385-126.769q-24.616 0-40.616-16t-16-40.616v-114.154l108.769-120.923 22.539 21.539-80.692 91.692h509.23l-91.23-103.231L665.923-431l119.308 133.461v114.154q0 24.616-16 40.616t-40.616 16h-497.23Zm217.153-290.462-115-115q-10.154-10.154-9.769-22.346.385-12.192 10.538-22.346l181.231-181.231q10.154-10.154 21.962-10.154t21.962 10.154l114.231 115.769q10.153 10.154 9.769 22.346-.385 12.193-10.539 22.347L493.231-418q-10.154 10.154-22.346 10.539-12.193.384-22.347-9.77Zm184.077-185.231q6.154-6.154 6.154-17.692t-6.154-17.692l-76.923-78.462q-6.154-6.154-17.692-6.154t-17.692 6.154L374.615-570.615q-6.153 6.153-6.153 17.692 0 11.538 6.153 17.692l76.924 78.462q6.153 6.154 17.692 6.154 11.538 0 17.692-6.154l145.692-145.693Z"/></svg>