<svg xmlns="http://www.w3.org/2000/svg" height="20" viewBox="0 -960 960 960" width="20"><path d="M231.385-126.769q-24.316 0-40.466-16.15-16.15-16.15-16.15-40.466v-114.154l136.461-154L333.769-430 225.385-305.231h509.23L617.231-440l22.539-22.539 145.461 165v113.764q0 25.006-16.15 41.006t-40.466 16h-497.23Zm0-32h497.23q10 0 17.308-7.308t7.308-17.308v-89.846H206.769v89.846q0 10 7.308 17.308t17.308 7.308Zm216.384-257.692L334.307-531.462q-10.153-10.153-10.153-22.73t10.153-22.731l181.231-181.231q10.154-10.154 21.962-9.385 11.808.769 21.962 10.923l114.231 114.231q10.153 10.154 9.384 22.731-.769 12.577-10.923 22.731L492.462-417.231q-10.154 10.154-22.347 10.539-12.192.384-22.346-9.769Zm184.846-186.77q6.154-6.154 6.154-17.692 0-11.539-6.154-17.692l-77.692-77.693q-6.154-6.154-17.692-6.154-11.539 0-17.692 6.154L373.846-570.615q-6.154 6.153-6.154 17.692 0 11.538 6.154 17.692l77.693 77.692q6.153 6.154 17.692 6.154 11.538 0 17.692-6.154l145.692-145.692ZM206.769-158.769v-114.462V-158.769Z"/></svg>