<svg xmlns="http://www.w3.org/2000/svg" height="24" viewBox="0 -960 960 960" width="24"><path d="M215.385-110.769q-27.616 0-46.116-18.5t-18.5-46.116v-128.154l100.769-111.923 28.539 28.539-87.692 97.692h575.23l-87.23-97.231L708.923-415l100.308 111.461v128.154q0 27.616-18.5 46.116t-46.116 18.5h-529.23Zm220.153-292.462-119-121q-19.154-19.154-18.769-45.846.385-26.692 19.538-45.846l175.231-175.231q19.154-19.154 45.462-19.154 26.308 0 45.462 19.154l120.231 119.769q19.153 19.154 19.269 45.346.115 26.193-19.039 45.347L526.231-403q-19.154 19.154-45.346 19.039-26.193-.116-45.347-19.27Zm239.077-205.231q6.154-6.154 6.154-17.692t-6.154-17.692L555.692-762.308q-6.154-6.154-17.692-6.154t-17.692 6.154L344.615-586.615q-6.153 6.153-6.153 17.692 0 11.538 6.153 17.692l118.924 118.462q6.153 6.154 17.692 6.154 11.538 0 17.692-6.154l175.692-175.693Z"/></svg>