<svg xmlns="http://www.w3.org/2000/svg" height="24" viewBox="0 -960 960 960" width="24"><path d="M737.523-228.695q25 0 42.5-17.5t17.5-42.5q0-25-17.5-42.5t-42.5-17.5q-25 0-42.5 17.5t-17.5 42.5q0 25 17.5 42.5t42.5 17.5Zm0 120q30 0 56-14t43-39q-23-14-48-20.5t-51-6.5q-26 0-51 6.5t-48 20.5q17 25 43 39t56 14ZM373.001-660.914h205.52v-63.608q0-45.478-30.054-74.826-30.055-29.347-72.989-29.347-42.699 0-72.588 29.347-29.889 29.348-29.889 74.826v63.608ZM511.479-62.477H136.825v-598.437h130.174v-63.608q0-89.218 60.761-149.696 60.761-60.478 147.718-60.478t148 60.478q61.044 60.478 61.044 149.696v63.608h130.174v163.088q-23.087-7.13-50.783-9-27.696-1.869-55.218 1.522v-49.609H242.826v386.434h222.175q6.869 30.218 17.978 55.631 11.109 25.414 28.5 50.37Zm226.044 33.782q-83 0-141.5-58.5t-58.5-141.5q0-83 58.5-141.5t141.5-58.5q83 0 141.5 58.5t58.5 141.5q0 83-58.5 141.5t-141.5 58.5ZM242.826-554.913v386.434-386.434Z"/></svg>