<svg xmlns="http://www.w3.org/2000/svg" height="20" viewBox="0 -960 960 960" width="20"><path d="M656.615-255.385q25 0 42.5-17.5t17.5-42.5q0-25-17.5-42.5t-42.5-17.5q-25 0-42.5 17.5t-17.5 42.5q0 25 17.5 42.5t42.5 17.5Zm0 120q30 0 56-14t43-39q-23-14-48-20.5t-51-6.5q-26 0-51 6.5t-48 20.5q17 25 43 39t56 14Zm-.226 32.001q-63.62 0-107.697-44.303-44.077-44.304-44.077-107.924 0-63.62 44.303-107.697 44.303-44.077 107.924-44.077 63.62 0 107.697 44.303 44.077 44.304 44.077 107.924 0 63.62-44.303 107.697-44.304 44.077-107.924 44.077ZM360-584h240v-96q0-50-35-85t-85-35q-50 0-85 35t-35 85v96Zm107.923 448H232v-448h96v-96q0-63.526 44.303-107.763T480.226-832q63.62 0 107.697 44.237Q632-743.526 632-680v96h96v119q-16.846-8.462-34.692-11.039t-37.462-2.577q-92.622 0-157.926 65.305-65.305 65.304-65.305 158.181 0 32.084 8.539 62.568 8.538 30.485 26.769 56.562Z"/></svg>