<svg xmlns="http://www.w3.org/2000/svg" height="20" viewBox="0 -960 960 960" width="20"><path d="M205.538-356.154 87.23-474.462l16.308-17.077 90.231 90.231Q180.692-440 174.654-480.077q-6.039-40.077-6.039-80.538 0-73.077 25.308-140.154T267.846-824l16.308 16.308q-43.923 52.23-68.039 115.307Q192-629.308 192-560.615q0 40.999 6.038 81.499 6.039 40.5 19.116 78.731l89.384-90.154 16.308 17.077-117.308 117.308Zm397 177.308L322.461-309.384l20.616-39.078 144.384-18.153-118.384-325.924 31.077-11.153 94.154 262.538 75.769-27.769-52.846-144.769 31.077-11.154 52.846 145 76.538-28.539-35.077-100 29.308-10.154 36.846 99.231 75.769-27.769-19.846-55L794-612.231l117.385 323.308-308.847 110.077Z"/></svg>