<svg xmlns="http://www.w3.org/2000/svg" height="24" viewBox="0 -960 960 960" width="24"><path d="M176.652-355.696 30.674-501.674l47.978-48.217 63.304 63.304q-5.043-24.609-7.326-49.098-2.282-24.489-2.282-49.098 0-83.435 28.554-160.913 28.554-77.478 80.511-142.435l48.978 48.979q-42.761 55.522-66.097 120.185-23.337 64.663-23.337 134.184 0 24.565 2.521 48.75 2.522 24.185 8.565 47.989l62.609-61.847 47.978 48.217-145.978 145.978ZM601.435-101.63 287.021-250.609l37.761-88.261 121.5-6.847L319.804-691.63l80.978-30.153 111.674 306.022 37.761-13.761-57.63-157.413 80.978-30.152 57.631 158.174 37-13.761-43.631-119.413 80.979-30.392 43.63 120.653 38-14-16.63-44.413 80.739-30.153 129.543 350.675L601.435-101.63Z"/></svg>