<svg xmlns="http://www.w3.org/2000/svg" height="20" viewBox="0 -960 960 960" width="20"><path d="M194.77-358.077 67.617-485.23l25.153-25.538 85.616 85.616q-11.539-34.847-16.808-70.885-5.269-36.039-5.269-72.27 0-76.538 26.653-147.077 26.654-70.538 77.962-128.615l25.153 25.154q-45.462 52.615-69.769 116.653Q192-638.153 192-568.307q0 36 5.269 71.501 5.27 35.5 16.808 69.116l81.693-82.078 25.153 25.538L194.77-358.077Zm406.999 201.152L313.231-291.694l28.308-57.537 131.693-15.077L352.54-696.769l49.537-18.076 96.077 266.769 60.385-22.385-50.923-139.385 49.537-18.077 50.923 140.001 60.771-22.77-33.539-95.001 48.153-17.076 34.923 94.616 60.386-22.385-17.924-50.001 48.153-17.076 124.692 342.152-331.922 118.538Z"/></svg>