<svg xmlns="http://www.w3.org/2000/svg" height="20" viewBox="0 -960 960 960" width="20"><path d="M757.566-503.61q0-109-77.5-186.5t-186.5-77.5v-80.479q71.696 0 134.242 27.166 62.547 27.165 109.226 73.754 46.68 46.59 73.845 109.296 27.166 62.707 27.166 134.263h-80.479Zm-153.044 0q0-46.608-32.174-79.065-32.174-32.456-78.782-32.456v-80.479q80 0 136 56.16t56 135.84h-81.044Zm161.217 378.828q-110 0-225.674-53.261T326.999-327.565q-97.391-96.826-149.804-210.804-52.413-113.979-52.413-227.805v-70.044H388.74l46.479 196.001L302.392-517.13q20.174 33.348 43.565 63.543 23.391 30.196 50.015 56.352 24.724 24.626 52.354 46.452 27.63 21.826 60.717 42.869l134.131-128.87 192.044 43.348v268.654h-69.479Z"/></svg>