<svg xmlns="http://www.w3.org/2000/svg" height="24" viewBox="0 -960 960 960" width="24"><path d="M765.739-489.805q0-117-81.5-198.5t-198.5-81.5v-83.826q75.718 0 141.816 28.739 66.097 28.74 115.195 77.837 49.098 49.098 77.837 115.283 28.739 66.184 28.739 141.967h-83.587Zm-163.826 0q0-48.565-33.804-82.489-33.805-33.924-82.37-33.924v-83.587q83 0 141.5 58.5t58.5 141.5h-83.826Zm195.13 377.936q-125 0-249.054-54.957Q423.935-221.782 322.5-322.859 221.065-423.935 166.467-546.772q-54.598-122.837-54.598-250.032v-51.327h254.175l40.587 212.001-120.696 117.152q20.804 36.608 46.489 69.576 25.685 32.967 55.489 61.772 27.804 27.565 60.033 52.51 32.228 24.946 68.88 46.272L638.804-409.87l209.327 44.109v253.892h-51.088ZM242.435-603.826l65.761-63.848-16.522-89.456h-87.326q4.522 43.326 14.043 81.152 9.522 37.826 24.044 72.152ZM601.391-244.63q38.087 16.282 77.152 26.043 39.066 9.761 78.587 13.239v-86.804l-89.217-18.522-66.522 66.044ZM242.435-603.826ZM601.391-244.63Z"/></svg>