<svg xmlns="http://www.w3.org/2000/svg" height="20" viewBox="0 -960 960 960" width="20"><path d="M749.739-490.565q0-109-77.5-186.5t-186.5-77.5v-75.587q70.718 0 132.449 26.839 61.731 26.839 107.596 72.665 45.864 45.826 72.703 107.625 26.839 61.799 26.839 132.458h-75.587Zm-147.826 0q0-48.566-33.804-82.49-33.805-33.923-82.37-33.923v-75.587q80 0 136 56.16t56 135.84h-75.826Zm165.13 354.696q-110 0-223.554-51.957Q429.935-239.782 334.5-334.739q-95.435-95.196-147.033-208.033-51.598-112.837-51.598-225.032v-57.327h239.175l41.587 181.001-123.696 120.152q21.804 36.608 46.989 69.576 25.185 32.967 53.439 60.755 26.354 26.582 57.083 50.527 30.728 23.946 68.38 47.272L644.804-417.87l179.327 39.109v242.892h-57.088Z"/></svg>