<svg xmlns="http://www.w3.org/2000/svg" height="20" viewBox="0 -960 960 960" width="20"><path d="M747.077-501q-6.923-105.154-82.115-180.346-75.193-75.192-180.347-82.115v-32.001q60 3.077 112.288 26.985 52.287 23.908 91.784 63.405 39.498 39.498 63.406 91.785Q776-561 779.077-501h-32Zm-144 0q-6.923-46.154-39.615-79.231-32.693-33.077-78.847-39.23v-32.001q60 6.154 101.77 48.468Q628.154-560.68 635.077-501h-32ZM738-184q-93.077 0-191.231-46.769T363.077-363.077q-84.77-85.538-131.923-184.846Q184-647.231 184-739v-38h162.539l34.923 132.308-110.847 103.384q28.385 47.462 57.193 86.693 28.807 39.23 59.027 69.752 30.627 32.632 69.396 60.824 38.769 28.193 91.307 58.577L656-374.769l120 25.23V-184h-38Z"/></svg>