<svg xmlns="http://www.w3.org/2000/svg" height="24" viewBox="0 -960 960 960" width="24"><path d="M310.916-513.217q19.866 0 33.345-13.439 13.478-13.438 13.478-33.304T344.3-593.305q-13.438-13.478-33.304-13.478t-33.345 13.439q-13.478 13.438-13.478 33.304t13.439 33.345q13.438 13.478 33.304 13.478Zm169.044 0q19.866 0 33.345-13.439 13.478-13.438 13.478-33.304t-13.439-33.345q-13.438-13.478-33.304-13.478t-33.345 13.439q-13.478 13.438-13.478 33.304t13.439 33.345q13.438 13.478 33.304 13.478Zm169.044 0q19.866 0 33.345-13.439 13.478-13.438 13.478-33.304t-13.439-33.345q-13.438-13.478-33.304-13.478t-33.345 13.439q-13.478 13.438-13.478 33.304t13.439 33.345q13.438 13.478 33.304 13.478ZM220.782-220.782l-69.391 69.391q-25.217 25.217-57.913 11.502-32.696-13.714-32.696-48.981v-604.347q0-44.305 30.848-75.153 30.848-30.848 75.153-30.848h626.434q44.305 0 75.153 30.848 30.848 30.848 30.848 75.153v466.434q0 44.305-30.848 75.153-30.848 30.848-75.153 30.848H220.782Zm-34-106.001h606.435v-466.434H166.783v485.998l19.999-19.564Zm-19.999 0v-466.434 466.434Z"/></svg>