<svg xmlns="http://www.w3.org/2000/svg" height="20" viewBox="0 -960 960 960" width="20"><path d="M314.706-509.217q18.076 0 30.555-12.228 12.478-12.228 12.478-30.305 0-18.076-12.228-30.555-12.228-12.478-30.305-12.478-18.076 0-30.555 12.228-12.478 12.228-12.478 30.305 0 18.076 12.228 30.555 12.228 12.478 30.305 12.478Zm165.044 0q18.076 0 30.555-12.228 12.478-12.228 12.478-30.305 0-18.076-12.228-30.555-12.228-12.478-30.305-12.478-18.076 0-30.555 12.228-12.478 12.228-12.478 30.305 0 18.076 12.228 30.555 12.228 12.478 30.305 12.478Zm165.044 0q18.076 0 30.555-12.228 12.478-12.228 12.478-30.305 0-18.076-12.228-30.555-12.228-12.478-30.305-12.478-18.076 0-30.555 12.228-12.478 12.228-12.478 30.305 0 18.076 12.228 30.555 12.228 12.478 30.305 12.478ZM220.782-220.782l-60.273 60.273q-23.335 23.335-53.531 10.714-30.196-12.621-30.196-45.075v-590.347q0-41.005 28.498-69.503 28.498-28.498 69.503-28.498h610.434q41.005 0 69.503 28.498 28.498 28.498 28.498 69.503v466.434q0 41.005-28.498 69.503-28.498 28.498-69.503 28.498H220.782Zm-30-98.001h594.435v-466.434H174.783v482.998l15.999-16.564Zm-15.999 0v-466.434 466.434Z"/></svg>