<svg xmlns="http://www.w3.org/2000/svg" height="20" viewBox="0 -960 960 960" width="20"><path d="M278.916-545.217q2.866 15 15.345 23.561 12.478 8.562 27.478 5.696 15-2.866 23.561-15.345 8.562-12.478 5.696-27.478-2.866-15-15.345-23.561-12.478-8.562-27.478-5.696-15 2.866-23.561 15.345-8.562 12.478-5.696 27.478Zm165.044 0q2.866 15 15.345 23.561 12.478 8.562 27.478 5.696 15-2.866 23.561-15.345 8.562-12.478 5.696-27.478-2.866-15-15.345-23.561-12.478-8.562-27.478-5.696-15 2.866-23.561 15.345-8.562 12.478-5.696 27.478Zm165.044 0q2.866 15 15.345 23.561 12.478 8.562 27.478 5.696 15-2.866 23.561-15.345 8.562-12.478 5.696-27.478-2.866-15-15.345-23.561-12.478-8.562-27.478-5.696-15 2.866-23.561 15.345-8.562 12.478-5.696 27.478ZM220.782-220.782l-60.391 60.391q-23.217 23.217-53.413 10.502-30.196-12.714-30.196-44.981v-590.347q0-41.305 28.348-69.653 28.348-28.348 69.653-28.348h610.434q41.305 0 69.653 28.348 28.348 28.348 28.348 69.653v466.434q0 41.305-28.348 69.653-28.348 28.348-69.653 28.348H220.782Z"/></svg>