<svg xmlns="http://www.w3.org/2000/svg" height="20" viewBox="0 -960 960 960" width="20"><path d="M740.769-315.846 350-702q26.538-10.077 56.462-18.039Q436.385-728 470-728q62.308 0 116 23.423 53.693 23.423 93.808 63.154 40.115 39.731 63.154 93.038Q766-495.077 766-435.077q0 29-5.038 59.693-5.039 30.692-20.193 59.538Zm-52.23-451.616q-5.616-5.615-6.001-11.269-.384-5.654 6.001-12.038 6.384-6.385 11.653-6.385 5.27 0 11.654 6.385l116.923 116.923q5.616 5.615 5.501 10.769-.116 5.154-6.501 11.539-6.384 6.384-11.653 6.384-5.27 0-11.654-6.384L688.539-767.462ZM470-136q-62.308 0-116-23.423t-93.808-64.308q-40.115-40.884-63.154-94.961Q174-372.769 174-435.077q0-57 23.231-112.423 23.23-55.423 63.615-98.115L194.461-712l-59.922 59.923q-5.616 5.616-10.77 5.5-5.154-.115-11.538-6.5-6.385-6.385-6.385-11.654t6.385-11.654l58.923-58.923-50.923-50.923q-5.616-5.615-6.001-10.769-.384-5.154 6.001-11.539 6.384-6.384 11.653-6.384 5.27 0 11.654 6.384l665.231 665.231q5.616 5.616 5.5 10.77-.115 5.154-6.5 11.538-6.384 6.385-11.154 6.385-4.769 0-11.154-6.385L682.077-224.384Q640.923-184 586.269-160T470-136Z"/></svg>