<svg xmlns="http://www.w3.org/2000/svg" height="20" viewBox="0 -960 960 960" width="20"><path d="m729-326-14-14q8-23 12-48.5t4-47.5q0-111-76.5-185.5T467-696q-25 0-49 4.5T372-677l-16-16q24-8 51.5-15.5T467-716q60 0 111.5 22.5t90 60.5q38.5 38 60.5 89t22 108q0 26-4 54.5T729-326Zm-43-441q-4-4-4.5-7t4.5-8q5-5 7.5-5t7.5 5l116 116q4 4 4 6.5t-5 7.5q-5 5-7.5 5t-7.5-5L686-767ZM467-148q-60 0-111.5-22.5t-90-62Q227-272 205-324t-22-112q0-57 24.5-113t66.5-98l-74-74-68 68q-4 4-6.5 4t-7.5-5q-5-5-5-7.5t5-7.5l67-67-53-53q-4-4-4.5-6.5t4.5-7.5q5-5 7.5-5t7.5 5l656 656q4 4 4 6.5t-5 7.5q-5 5-7 5t-7-5L680-241q-40 42-95 67.5T467-148Zm0-21q58 0 108-21.5t91-64.5L290-633q-42 40-64.5 90T203-436q0 111 76.5 189T467-169Zm10-275Zm64-66Z"/></svg>