<svg xmlns="http://www.w3.org/2000/svg" height="24" viewBox="0 -960 960 960" width="24"><path d="m811.566-265.478-80.914-80.914q8.174-22.478 12.543-44.869 4.37-22.391 4.37-44.739 0-114.304-80.022-195.761-80.022-81.456-193.195-81.456-22.913 0-46.652 3.935-23.739 3.934-44.652 12.108l-80.914-80.914q36.869-18.869 81.196-30 44.326-11.13 91.022-11.13 77.956 0 146.848 29.695 68.891 29.696 120.717 81.74 51.827 52.043 81.74 121.717Q853.566-516.391 853.566-436q0 46.13-11.565 89.326-11.566 43.196-30.435 81.196ZM707.435-796.131q-12.696-12.696-12.696-31.392 0-18.695 12.696-31.391 12.695-12.696 31.391-12.413 18.696.282 31.392 12.978l123.044 123.044q12.695 12.696 12.695 31.109 0 18.413-12.695 31.109-12.696 12.696-31.392 12.696-18.696 0-31.391-12.696L707.435-796.131ZM474.348-60.781q-77.957 0-146.849-29.696-68.891-29.696-120.717-80.805-51.827-51.109-81.74-119.783-29.913-68.674-29.913-146.631 0-62.565 18.218-117.348 18.217-54.782 51.521-100.913l-31.174-31.173-16.043 15.478q-12.696 12.695-30.826 12.413-18.13-.283-30.826-12.979-12.696-12.695-12.696-31.109 0-18.413 12.696-31.108l15.478-15.478-28.478-28.478q-13.26-13.261-13.26-32.522t13.26-32.522q13.261-13.261 32.805-13.261 19.543 0 32.805 13.261l732.043 732.044q13.261 13.26 12.978 32.522-.282 19.26-13.543 32.522-13.261 13.26-32.522 13.26t-32.522-13.26l-83.869-83.304q-46.131 32.435-101.479 50.652-55.347 18.217-115.347 18.217Zm0-105.567q36.912 0 72.956-10.457 36.043-10.456 67.217-30.065L241.217-578.738q-19.608 32.739-29.847 68.717-10.24 35.978-10.24 74.021 0 113.174 80.305 191.413 80.304 78.239 192.913 78.239Zm-46.479-226.173ZM557.13-521.783Z"/></svg>