<svg xmlns="http://www.w3.org/2000/svg" height="20" viewBox="0 -960 960 960" width="20"><path d="M17-202v-556q0-18.7 12.59-31.35Q42.178-802 60.79-802q18.61 0 31.41 12.65T105-758v556q0 18.7-12.59 31.35Q79.822-158 61.21-158q-18.61 0-31.41-12.65T17-202Zm141 0v-556q0-18.7 12.589-31.35 12.59-12.65 31.2-12.65 18.611 0 31.411 12.65T246-758v556q0 18.7-12.589 31.35-12.59 12.65-31.2 12.65-18.611 0-31.411-12.65T158-202Zm259 44q-49.7 0-83.85-34.15Q299-226.3 299-276v-408q0-49.7 34.15-83.85Q367.3-802 417-802h408q49.7 0 83.85 34.15Q943-733.7 943-684v408q0 49.7-34.15 83.85Q874.7-158 825-158H417Zm0-118h408v-408H417v408Zm180-96-48-63q-4-6-11-6.5t-11 5.5l-58 78q-5 7-1.28 14.5 3.72 7.5 12.28 7.5h282q8.5 0 11.75-7.5T772-358l-82-107q-3.923-5-10.462-5Q673-470 669-465l-72 93Zm-180 96v-408 408Z"/></svg>