<svg xmlns="http://www.w3.org/2000/svg" height="24" viewBox="0 -960 960 960" width="24"><path d="M22.477-225.304v-509.392q0-18.696 12.914-31.609 12.913-12.913 31.608-12.913 18.696 0 31.61 12.913 12.912 12.913 12.912 31.609v509.392q0 18.696-12.913 31.609T67-180.782q-18.695 0-31.608-12.913-12.914-12.913-12.914-31.609Zm158.305 0v-509.392q0-18.696 12.913-31.609t31.609-12.913q18.695 0 31.608 12.913 12.914 12.913 12.914 31.609v509.392q0 18.696-12.914 31.609-12.913 12.913-31.608 12.913-18.696 0-31.609-12.913t-12.913-31.609Zm264.305 44.522q-44.305 0-75.153-30.848-30.848-30.848-30.848-75.153v-386.434q0-44.305 30.848-75.153 30.848-30.848 75.153-30.848h386.434q44.305 0 75.153 30.848 30.849 30.848 30.849 75.153v386.434q0 44.305-30.849 75.153-30.848 30.848-75.153 30.848H445.087ZM618.304-400l-41.695-55.261q-5.435-6.869-14.305-6.652-8.869.217-14.304 7.087l-49.522 66.783q-6.869 8.869-1.5 18.456 5.37 9.587 16.239 9.587h250.174q10.87 0 15.739-9.587 4.87-9.587-2-18.456l-69.087-93.218q-5.434-6.869-14.021-6.869T680-481.261L618.304-400Z"/></svg>