<svg xmlns="http://www.w3.org/2000/svg" height="20" viewBox="0 -960 960 960" width="20"><path d="M200-244q-22.7 0-37.35-14.65Q148-273.3 148-296v-126q0-4.3 2.789-7.15 2.79-2.85 7-2.85 4.211 0 7.211 2.85t3 7.15v126q0 12 10 22t22 10h126q4.3 0 7.15 2.789 2.85 2.79 2.85 7 0 4.211-2.85 7.211t-7.15 3H200Zm-52-486v-126q0-22.7 14.65-37.35Q177.3-908 200-908h126q4.3 0 7.15 2.789 2.85 2.79 2.85 7 0 4.211-2.85 7.211t-7.15 3H200q-12 0-22 10t-10 22v126q0 4.3-2.789 7.15-2.79 2.85-7 2.85-4.211 0-7.211-2.85t-3-7.15Zm331.788 200Q460-530 447-543.026q-13-13.027-13-32.553Q434-595 447.026-608.5q13.027-13.5 32.553-13.5Q499-622 512.5-608.739t13.5 32.951Q526-556 512.739-543q-13.261 13-32.951 13ZM792-730v-126q0-12-10-22t-22-10H634q-4.3 0-7.15-2.789-2.85-2.79-2.85-7 0-4.211 2.85-7.211t7.15-3h126q22.7 0 37.35 14.65Q812-878.7 812-856v126q0 4.3-2.789 7.15-2.79 2.85-7 2.85-4.211 0-7.211-2.85t-3-7.15ZM256.633-537q-5.164 0-7.898 4.551Q246-527.898 248-522q18 66 65 113.5T426-343q6 1 11 0t5-7q0-5-4-7.5t-8-4.5q-61-19-105-63t-60-105q-1.167-2.353-3.083-4.677Q260-537 256.633-537ZM256-613q-5.579 0-8.289-4.5-2.711-4.5-.585-11.916 17.479-64.457 64.677-112.02Q359-789 424-807q7-1 12 0t5 7q0 5-3.5 7.5T430-788q-61 19-105 62.5T265-621q-2 3-4.171 5.5-2.17 2.5-4.829 2.5Zm447 0q6 0 8-4.5t-.208-11.944Q693-694 646.5-741.5T535-807q-7-1-12.5 0t-5.5 7q0 5 4.5 7.5t8.5 4.5q61 19 104.347 62.347Q677.693-682.306 695-621q1.239 2.794 3.337 5.397T703-613Zm14.774 415Q659-198 618.5-238.726t-40.5-99.5Q578-397 618.726-437.5t99.5-40.5Q777-478 817.5-437.274t40.5 99.5Q858-279 817.274-238.5t-99.5 40.5Zm.226-72q9.6 0 15.8-6.2 6.2-6.2 6.2-15.8 0-9.6-6.2-15.8-6.2-6.2-15.8-6.2-9.6 0-15.8 6.2-6.2 6.2-6.2 15.8 0 9.6 6.2 15.8 6.2 6.2 15.8 6.2Zm0-88q7.6 0 12.8-5.2 5.2-5.2 5.2-12.8v-8q0-7.6-5.2-12.8-5.2-5.2-12.8-5.2-7.6 0-12.8 5.2-5.2 5.2-5.2 12.8v8q0 7.6 5.2 12.8 5.2 5.2 12.8 5.2Z"/></svg>