<svg xmlns="http://www.w3.org/2000/svg" height="24" viewBox="0 -960 960 960" width="24"><path d="M901.479-645.609q-23.087-20.217-49.87-36.457-26.783-16.239-56.131-26.935v-84.216H193.782q-22.087 0-37.544-15.457-15.456-15.456-15.456-37.544 0-22.087 15.456-37.544 15.457-15.456 37.544-15.456h601.696q44.305 0 75.153 30.848 30.848 30.848 30.848 75.153v147.608ZM104.738-207.216q-18.681 0-31.319-12.8-12.637-12.8-12.637-31.722v-376.957q0-18.922 12.637-31.722 12.638-12.8 31.319-12.8h209.044q18.682 0 31.319 12.8 12.638 12.8 12.638 31.722v376.957q0 18.922-12.638 31.722-12.637 12.8-31.319 12.8H104.738Zm539.61 30.782v-173.957q-9-8.468-14.5-19.582t-5.5-23.474q0-23.596 16.413-39.509Q657.174-448.87 680-448.87q23.374 0 39.513 15.914 16.139 15.913 16.139 39.509 0 12.36-4.782 23.643-4.783 11.283-15.218 19.413v173.957q0 15.449-10.064 25.551-10.064 10.101-25.457 10.101-15.392 0-25.588-10.101-10.195-10.102-10.195-25.551ZM680-487.565q-39.174 0-66.761 27.361-27.587 27.361-27.587 66.987 0 10.304 2.37 20.043 2.369 9.739 7.239 19.044 6.565 13.26 5.5 28.304-1.065 15.044-11.196 25.174-10.13 10.131-24.609 9.913-14.478-.217-22.043-11.913-14-20-21.283-43.186-7.282-23.185-7.282-47.379 0-69.367 48.638-117.51t116.939-48.143q69.336 0 117.532 48.08 48.195 48.08 48.195 117.357 0 23.781-6.782 46.499-6.783 22.717-20.218 42.717-7.565 12.261-21.987 12.761-14.423.5-25.24-10.196-10.816-9.696-11.816-24.747t5.565-28.297q4.304-9.304 6.739-19.043 2.435-9.739 2.435-19.478 0-39.626-27.361-66.987-27.361-27.361-66.987-27.361Zm.017-100q-80.191 0-137.278 56.587-57.087 56.587-57.087 137.761 0 29.854 9.313 57.842t26.165 52.245q8.566 12.695 7.848 27.456-.717 14.761-11.413 25.457-10.13 10.13-24.674 9.413-14.543-.717-23.674-12.978-25.475-34.877-40.172-75.234-14.697-40.356-14.697-84.201 0-111.37 77.629-188.511 77.63-77.142 187.946-77.142 111.338 0 188.534 77.142 77.195 77.141 77.195 188.511 0 44.199-14.282 84.882-14.283 40.683-40.718 75.683-8.565 11.696-23.326 11.413-14.761-.282-24.891-10.413-10.131-10.13-10.696-24.674-.565-14.544 8-27.239 16.739-24.87 25.674-52.354 8.935-27.485 8.935-57.298 0-81.174-56.587-137.761-56.587-56.587-137.744-56.587Z"/></svg>