<svg xmlns="http://www.w3.org/2000/svg" height="20" viewBox="0 -960 960 960" width="20"><path d="M885.479-642.609q-22.087-20.217-46.37-37.457-24.283-17.239-51.631-27.377v-77.774H221.782q-20.387 0-34.694-14.246-14.306-14.246-14.306-34.544 0-20.298 14.306-34.755 14.307-14.456 34.694-14.456h565.696q41.005 0 69.503 28.498 28.498 28.498 28.498 69.503v142.608ZM128.738-255.216q-22.081 0-37.019-15.1-14.937-15.1-14.937-37.422v-328.957q0-22.322 14.937-37.422 14.938-15.1 37.019-15.1h177.044q22.082 0 37.019 15.1 14.938 15.1 14.938 37.422v328.957q0 22.322-14.938 37.422-14.937 15.1-37.019 15.1H128.738Zm513.61 52.782v-178.957q-12-5.468-18-17.582t-6-26.474q0-22.756 15.413-38.089 15.413-15.334 37.751-15.334 22.862 0 38.501 15.334 15.639 15.333 15.639 38.089 0 15.36-6.282 26.643-6.283 11.283-17.718 17.413v178.957q0 12.849-8.364 21.251-8.364 8.401-21.157 8.401-12.792 0-21.288-8.401-8.495-8.402-8.495-21.251Zm29.877-313.131q-37.399 0-63.986 26.201-26.587 26.201-26.587 64.147 0 12.304 1.87 22.543 1.869 10.239 7.739 19.544 5.565 10.26 5 22.804-.565 12.544-8.696 20.674-9.13 9.131-20.609 8.913-11.478-.217-18.043-9.913-13-18.485-19.783-39.928-6.782-21.443-6.782-44.637 0-62.667 43.876-106.16 43.876-43.493 105.49-43.493 62.547 0 106.243 43.43 43.695 43.43 43.695 106.007 0 25.781-8.282 47.999-8.283 22.217-22.718 41.217-6.565 10.261-18.987 10.261-12.423 0-21.24-10.166-8.816-9.226-8.316-21.777t7.065-22.797q6.304-10.708 9.739-21.979 3.435-11.271 3.435-22.542 0-37.946-26.136-64.147-26.135-26.201-63.987-26.201Zm-.659-96q-76.683 0-131.298 54.587-54.616 54.587-54.616 131.761 0 30.202 8.813 58.516 8.813 28.314 26.665 51.571 6.566 9.695 6.848 21.956.283 12.261-8.413 20.957-9.13 9.13-21.674 8.913-12.543-.217-19.674-10.478-25.475-31.877-38.672-70.614-13.197-38.737-13.197-80.821 0-102.37 71.657-174.011 71.656-71.642 173.485-71.642 102.771 0 174.467 71.642 71.695 71.641 71.695 174.011 0 45.199-17.282 85.882-17.283 40.683-45.718 74.683-7.565 9.696-19.419 9.413-11.854-.282-19.891-9.413-8.038-9.13-8.103-21.674-.065-12.544 7.5-22.239 19.739-24.87 31.674-54.354 11.935-29.485 11.935-62.298 0-77.174-54.587-131.761-54.587-54.587-132.195-54.587Z"/></svg>