<svg xmlns="http://www.w3.org/2000/svg" height="20" viewBox="0 -960 960 960" width="20"><path d="M824-658.308q-8.538-6.307-15.654-12.769-7.115-6.462-16.346-10.289v-86.019q0-9.23-7.692-16.923Q776.615-792 767.385-792H248q-6.8 0-11.4-4.547-4.6-4.547-4.6-11.27 0-6.722 4.6-11.452Q241.2-824 248-824h519.385q24.315 0 40.465 16.15Q824-791.7 824-767.385v109.077ZM175.15-328q-16.935 0-28.043-11.146Q136-350.292 136-366.769v-265.846q0-16.477 11.107-27.624 11.108-11.146 28.043-11.146h127.238q16.935 0 28.043 11.146 11.108 11.147 11.108 27.624v265.846q0 16.477-11.108 27.623T302.388-328H175.15Zm485.158 115.077v-185q-12-1.923-18-11.885-6-9.961-6-22.192 0-14.991 10.262-25.342 10.262-10.35 24.791-10.35 15.254 0 25.793 10.35 10.538 10.351 10.538 25.342 0 13.231-6.384 21.923-6.385 8.692-17.616 12.154v185q0 5.067-3.302 8.379-3.303 3.313-8.354 3.313-5.051 0-8.39-3.313-3.338-3.312-3.338-8.379Zm11.917-327.385q-44.84 0-76.686 31.41-31.847 31.409-31.847 76.898 0 21.692 7.231 39.961 7.231 18.27 20.385 33.885 3.461 3.385 4.615 8 1.154 4.615-2.769 8.539-4.923 4.923-9.039 4.423-4.115-.5-8.577-4.654-16.846-19.254-26.038-42.05-9.192-22.796-9.192-48.104 0-55.146 38.574-93.419 38.575-38.273 92.744-38.273 54.989 0 93.528 38.273 38.538 38.273 38.538 93.419 0 28.846-11.077 53.269-11.076 24.423-29.923 43.423-4.461 4.154-9.626 4.154-5.165 0-8.538-5.394-3.374-4.452-1.72-9.067 1.654-4.616 6.115-8.001 14.923-16.25 23.154-36.32 8.231-20.071 8.231-42.064 0-45.489-31.344-76.898-31.344-31.41-76.739-31.41Zm-.871-96q-84.682 0-144.172 59.57-59.49 59.569-59.49 144.738 0 40.107 14.231 77.707 14.231 37.601 41.923 65.677 2.923 3.385 4.462 8.001 1.538 4.615-1.616 7.769-4.643 4.923-10.168 4.423-5.524-.5-9.216-4.654-31.385-31.231-47.193-72.603-15.807-41.372-15.807-86.32 0-94.84 66.383-161.266 66.383-66.426 160.717-66.426 95.207 0 161.746 66.426Q899.692-526.84 899.692-432q0 47.978-19.692 91.22-19.692 43.241-54.846 75.703-4.692 3.385-8.901 3.769-4.208.385-7.269-4.154-3.061-4.538-1.792-9.153 1.27-4.616 5.193-8.001 29.692-28.307 46.807-67.499 17.116-39.193 17.116-81.885 0-85.169-59.626-144.738-59.626-59.57-145.328-59.57ZM168-360h141.538v-279.385H168V-360Zm0 0h141.538H168Z"/></svg>