<svg xmlns="http://www.w3.org/2000/svg" height="20" viewBox="0 -960 960 960" width="20"><path d="M362-178.999q-22.957 0-41.631-13.261t-26.804-34.218l-82.044-204.521H84q-20.387 0-34.694-14.247Q35-459.492 35-479.789q0-20.298 14.307-34.755Q63.613-529.001 84-529.001h160q14.957 0 28.131 8.544t18.304 22.935L362-320.741l167.565-413.781q8.13-20.521 26.804-33.5T598-781.001q22.957 0 41.631 13.261t26.804 34.218l82.044 204.521H876q20.387 0 34.694 14.247 14.307 14.246 14.307 34.543 0 20.298-14.307 34.755-14.307 14.457-34.694 14.457H716q-14.957 0-27.631-8.544t-17.804-22.935L598-639.259 430.435-225.478q-8.13 20.521-26.804 33.5T362-178.999Z"/></svg>