<svg xmlns="http://www.w3.org/2000/svg" height="20" viewBox="0 -960 960 960" width="20"><path d="M384.107-283q-8.107 0-14.593-5.077Q363.027-293.154 360-301l-74-169H112q-4.25 0-7.125-2.825-2.875-2.824-2.875-7 0-4.175 2.875-7.175t7.125-3h169q7 0 14.5 4.5T306-474l78 182 168-369q2.987-7.41 9.387-12.205T575.893-678q8.107 0 14.593 5.077Q596.973-667.846 600-660l76 170h174q4.25 0 7.125 2.825 2.875 2.824 2.875 7 0 4.175-2.875 7.175T850-470H680q-7.344 0-13.672-4.5T657-486l-81-183-168 369q-2.987 7.41-9.387 12.205T384.107-283Z"/></svg>