<svg xmlns="http://www.w3.org/2000/svg" height="24" viewBox="0 -960 960 960" width="24"><path d="M293.999-458.521v-96.957h97.522v96.957h-97.522Zm274.48 0v-96.957h97.522v96.957h-97.522Zm-474.48 400v-336.957h40v-160q0-67.696 26.13-130.435 26.131-62.739 72.174-110.761 46.044-48.022 109.631-76.414Q405.521-901.479 480-901.479t138.066 28.391q63.587 28.392 109.631 76.414 46.043 48.022 72.174 110.761 26.13 62.739 26.13 130.435v160h40v336.957H93.999Zm97.522-96.957h70.956v-143.043h-70.956v143.043Zm168.479 0h71.521v-143.043H360v143.043Zm-128.479-240h200v-404.348q-81.478 15.13-140.739 82.761-59.261 67.63-59.261 161.587v160Zm296.958 0h200v-160q0-93.957-59.261-161.587-59.261-67.631-140.739-82.761v404.348Zm0 240H600v-143.043h-71.521v143.043Zm169.044 0h70.956v-143.043h-70.956v143.043Z"/></svg>