<svg xmlns="http://www.w3.org/2000/svg" height="20" viewBox="0 -960 960 960" width="20"><path d="M403.03-393.609q-52.74 0-89.538-36.839-36.797-36.839-36.797-89.466 0-20.646 6.717-40.219 6.718-19.572 19.153-36.042-3.435-9.294-5.153-18.742-1.717-9.448-1.717-19.673 0-37.585 20.913-69.129 20.913-31.543 55.609-47.239 21.131-23.565 49.609-36.413 28.478-12.848 58.674-12.848 30.196 0 58.174 12.848 27.978 12.848 49.109 36.413 34.696 15.696 55.609 47.239 20.913 31.544 20.913 69.129 0 10.225-1.717 19.673-1.718 9.448-5.153 18.357 12.435 15.855 19.153 35.225 6.717 19.369 6.717 41.223 0 52.908-36.919 89.706-36.918 36.797-89.659 36.797H403.03Zm-.03-92.349h154q14.884 0 24.42-9.956 9.536-9.957 9.536-24.493 0-6.359-2.435-11.81-2.434-5.451-6.304-10.045-9.13-11.695-14.196-24.326-5.065-12.63-5.065-27.326 0-9.304 4-19.522 4-10.217 4-23.478 0-10.739-5.417-18.252-5.418-7.513-14.93-11.269-9.231-4.202-16.546-9.595-7.315-5.394-13.846-13.232-7.435-10.434-17.956-14.521-10.522-4.087-22.261-4.087-11.739 0-22.261 4.087-10.521 4.087-17.956 14.521-6.559 7.566-13.91 13.413-7.351 5.848-16.482 9.414-9.512 3.756-14.93 11.269-5.417 7.513-5.417 18.252 0 13.261 4 23.478 4 10.218 4 19.522 0 14.696-5.065 27.326-5.066 12.631-14.196 24.326-3.87 4.594-6.304 10.045-2.435 5.451-2.435 11.81 0 14.536 9.536 24.493 9.536 9.956 24.42 9.956ZM172.782-165.174v-18.347q0-28.258 15.436-53.665 15.437-25.408 42.303-40.727 58.696-32.566 121.635-50.131Q415.094-345.609 480-345.609q63.268 0 123.591 15.282 60.322 15.283 114.888 44.848 31.866 16.238 50.303 42.989 18.436 26.751 18.436 58.726v18.59q0 41.005-28.51 69.503-28.51 28.499-69.531 28.499H270.5q-41.022 0-69.37-28.499-28.348-28.498-28.348-69.503Zm98.001 0h418.434v-15.521q0-4.382-3-7.968-3-3.586-8-6.336-46.927-25.739-96.481-39.174Q532.182-247.608 480-247.608q-52.87 0-103.804 13.435-50.935 13.435-94.413 39.174-5 2.75-8 6.336-3 3.586-3 7.968v15.521Zm209.217 1Zm0-321.784Z"/></svg>