<svg xmlns="http://www.w3.org/2000/svg" height="20" viewBox="0 -960 960 960" width="20"><path d="M403.03-384q-48.03 0-81.53-33.542Q288-451.083 288-499q0-20 7-39t20-35q-4-10-6-20.225-2-10.226-2-20.451Q307-649 326.5-678t52.5-43q20-23 46.5-35t55-12q28.5 0 54.5 12t46 35q33 14 52.5 43t19.5 64.324q0 10.225-2 20.451-2 10.225-6 19.84 13 15.385 20 34.182 7 18.798 7 40.005Q672-451 638.379-417.5 604.758-384 556.727-384H403.03ZM192-168v-24q0-23 12.5-44t34.5-34q57-32 117.701-49Q417.402-336 480-336q59.876 0 117.938 15Q656-306 710-277q27 14 42.5 36.5t15.5 48.258V-168q0 29.7-21.162 50.85Q725.676-96 695.96-96H263.717Q234-96 213-117.15T192-168Z"/></svg>