<svg xmlns="http://www.w3.org/2000/svg" height="20" viewBox="0 -960 960 960" width="20"><path d="M444.435-78.216q-154.914-15.13-260.784-129.001Q77.781-321.087 77.781-480t105.87-273.349q105.87-114.435 260.784-129.565v114.088q-108.131 14-180.913 96.13Q190.739-590.565 190.739-480t72.783 192.13q72.782 81.566 180.913 95.566v114.088Zm72 0v-114.088q98.565-12 169.695-82.566 71.131-70.565 83.131-169.13h112.957q-13.565 145.913-116.717 249.066Q662.348-91.782 516.435-78.216ZM769.261-516q-12-98.565-83.131-169.696-71.13-71.13-169.695-83.13v-114.088q146.478 13.565 249.348 117T882.218-516H769.261Z"/></svg>