<svg xmlns="http://www.w3.org/2000/svg" height="20" viewBox="0 -960 960 960" width="20"><path d="M480-87.87q-80.913 0-152.345-30.617-71.432-30.618-124.991-84.177-53.559-53.559-84.177-124.991Q87.869-399.087 87.869-480q0-81.913 30.618-152.845t84.177-124.491q53.559-53.559 124.991-84.177Q399.087-872.131 480-872.131q81.913 0 152.845 30.618t124.491 84.177q53.559 53.559 84.177 124.491Q872.131-561.913 872.131-480q0 80.913-30.618 152.345t-84.177 124.991q-53.559 53.559-124.491 84.177Q561.913-87.869 480-87.869Zm-180-434.5 50-51 51 51L437.63-559l-51-51 51-50L401-697.63l-51 51-50-51L262.37-660l51 50-51 51L300-522.37Zm179.956 351.5q129.848 0 219.511-90.043Q789.13-350.957 789.13-480q0-59.761-22.745-116.654-22.746-56.893-67.298-102.433L260.913-260.913q45.619 45.552 102.617 67.798 56.998 22.245 116.426 22.245ZM559-271.37 471.37-359 508-395.63l51 51 93-93L688.63-401 559-271.37Z"/></svg>