<svg xmlns="http://www.w3.org/2000/svg" height="24" viewBox="0 -960 960 960" width="24"><path d="M480.134-120q-74.673 0-140.41-28.339-65.737-28.34-114.365-76.922-48.627-48.582-76.993-114.257Q120-405.194 120-479.866q0-74.673 28.339-140.41 28.34-65.737 76.922-114.365 48.582-48.627 114.257-76.993Q405.194-840 479.866-840q74.673 0 140.41 28.339 65.737 28.34 114.365 76.922 48.627 48.582 76.993 114.257Q840-554.806 840-480.134q0 74.673-28.339 140.41-28.34 65.737-76.922 114.365-48.582 48.627-114.257 76.993Q554.806-120 480.134-120ZM294-528.692l56-57 56 57L431.308-554l-57-56 57-56L406-691.308l-56 57-56-57L268.692-666l57 56-57 56L294-528.692ZM480-160q133 0 226.5-93.5T800-480q0-66-25-124t-69-102L254-254q44 44 102 69t124 25Zm82-113.692L482.923-352 508-377.308l53.231 53.231 100-99L686.308-398 562-273.692Z"/></svg>