<svg xmlns="http://www.w3.org/2000/svg" height="24" viewBox="0 -960 960 960" width="24"><path d="M846.218-60.782q-22.088 0-37.544-15.456-15.457-15.457-15.457-37.544v-732.436q0-22.087 15.457-37.544 15.456-15.456 37.544-15.456 22.087 0 37.544 15.456 15.456 15.457 15.456 37.544v732.436q0 22.087-15.456 37.544-15.457 15.456-37.544 15.456ZM373.782-262.477q-30.417 0-51.709-21.292-21.291-21.292-21.291-51.709t21.291-51.709q21.292-21.292 51.709-21.292h266.434q30.417 0 51.709 21.292t21.292 51.709q0 30.417-21.292 51.709t-51.709 21.292H373.782Zm-240-289.044q-30.417 0-51.709-21.292-21.291-21.292-21.291-51.709t21.291-51.709q21.292-21.292 51.709-21.292h506.434q30.417 0 51.709 21.292t21.292 51.709q0 30.417-21.292 51.709t-51.709 21.292H133.782Z"/></svg>