<svg xmlns="http://www.w3.org/2000/svg" height="20" viewBox="0 -960 960 960" width="20"><path d="M135.521-233.523v-338.564q0-31.101 17.283-55.785 17.282-24.683 45.675-35.52l366.912-143.217q24.218-9.261 45.653 5.325 21.435 14.585 21.435 40.11v272.695h31.042q0-33.091 23.681-57.067 23.681-23.977 56.935-23.977 33.254 0 56.798 23.977 23.544 23.976 23.544 57.067v254.956q0 41.005-28.499 69.503-28.498 28.499-69.503 28.499H233.523q-41.005 0-69.503-28.499-28.499-28.498-28.499-69.503Zm88.958 9.044h127.042v-165.998q0-41.005 28.499-69.503 28.498-28.499 69.503-28.499h93.998v-214.042L224.479-577.432v352.953Zm216 0h103.042V-300q0-18.903 12.727-31.691t31.541-12.788q18.814 0 31.752 12.788 12.938 12.788 12.938 31.691v75.521h103.042v-175.042H440.479v175.042ZM384-464Zm204 152Zm0 0Z"/></svg>