<svg xmlns="http://www.w3.org/2000/svg" height="24" viewBox="0 -960 960 960" width="24"><path d="M160-201.538v-366.539q0-20.128 11.255-36.633Q182.51-621.216 201-628.462l364.231-139.769q16.154-6.462 30.077 3.282 13.923 9.744 13.923 26.795V-440h67.692q0-25.385 18.061-43.462t43.423-18.077q25.362 0 43.478 18.077Q800-465.385 800-440v238.462q0 17.615-11.961 29.577Q776.077-160 758.462-160H201.538q-17.615 0-29.577-11.961Q160-183.923 160-201.538ZM200-200h200v-175.385q0-26.654 18.981-45.634Q437.961-440 464.615-440h104.616v-287.846L215.385-591.154q-6.924 3.077-11.154 9.231Q200-575.769 200-568.077V-200Zm240 0h129.231v-61.539q0-12.384 9.192-21.577 9.192-9.192 21.577-9.192 12.385 0 21.577 9.192 9.192 9.193 9.192 21.577V-200H760v-200H464.615q-10.769 0-17.692 6.923T440-375.385V-200Zm-55.385-264.308ZM600-300Zm0 0Z"/></svg>