<svg xmlns="http://www.w3.org/2000/svg" height="20" viewBox="0 -960 960 960" width="20"><path d="M351.521-135.521v-254.956q0-41.005 28.499-69.503 28.498-28.499 69.503-28.499h213.998q0-33.956 23.474-57.5 23.473-23.544 57.217-23.544 33.745 0 57.006 23.807 23.261 23.807 23.261 57.237v352.958h-192V-300q0-18.903-12.727-31.691t-31.541-12.788q-18.814 0-31.752 12.788-12.938 12.788-12.938 31.691v164.479h-192Zm-216 0v-436.147q0-31.52 17.283-56.204 17.282-24.683 45.675-35.52l366.912-143.217q24.218-9.261 45.653 5.591 21.435 14.853 21.435 40.844v199.695H426.523q-60.827 0-103.914 43.088-43.088 43.087-43.088 103.914v277.956h-144Z"/></svg>