<svg xmlns="http://www.w3.org/2000/svg" height="24" viewBox="0 -960 960 960" width="24"><path d="M351.521-111.521v-270.956q0-44.305 30.849-75.153 30.848-30.849 75.153-30.849h213.998q0-36.956 25.761-63 25.761-26.044 62.718-26.044 36.957 0 62.718 26.157 25.761 26.157 25.761 62.887v376.958h-200V-280q0-20.603-13.938-34.541-13.938-13.938-34.541-13.938-20.603 0-34.541 13.938-13.938 13.938-13.938 34.541v168.479h-200Zm-240 0v-465.566q0-33.101 18.655-60.245 18.655-27.143 49.303-39.06l396.912-152.217q26.218-10.261 49.153 5.658t22.935 43.777v210.695H430.523q-65.827 0-112.414 46.588-46.588 46.587-46.588 112.414v297.956h-160Z"/></svg>