<svg xmlns="http://www.w3.org/2000/svg" height="20" viewBox="0 -960 960 960" width="20"><path d="M196-218v-340q0-16.667 9.059-29.513Q214.118-600.36 229-606l319-125q13-5 24.5 2.733Q584-720.533 584-707v279h84q0-19.8 14.142-33.9 14.141-14.1 34-14.1Q736-476 750-461.9q14 14.1 14 33.9v210q0 9.7-6.15 15.85T742-196H218q-9.7 0-15.85-6.15T196-218Zm20 2h196v-160q0-21.45 15.275-36.725Q442.55-428 464-428h100v-288L236-587.693q-9 4-14.5 12t-5.5 18V-216Zm216 0h132v-60q0-9.3 7.289-16.65 7.29-7.35 16.5-7.35 9.211 0 16.711 7.35Q612-285.3 612-276v60h132v-192H464q-14 0-23 9t-9 23v160Zm-42-251Zm198 155Zm0 0Z"/></svg>