<svg xmlns="http://www.w3.org/2000/svg" height="20" viewBox="0 -960 960 960" width="20"><path d="M358-412v96q0 11.3 7.35 18.65Q372.7-290 384-290h-8q11.3 0 18.65-7.35Q402-304.7 402-316v-96h22q17 11 21.5-1.5T450-438v-98q0-10.213-6-16.606Q438-559 428-558h-96q-10 1-16 6.5t-6 15.5v98q0 12 4.5 24.5T336-412h22Zm21.887-178Q396-590 407-600.887q11-10.888 11-27Q418-644 407.113-655q-10.888-11-27-11Q364-666 353-655.113q-11 10.888-11 27Q342-612 352.887-601q10.888 11 27 11ZM574-554h56q4 0 5-2t.105-4.852l-28.21-52.296Q606-616 602-616q-4 0-4.895 2.852l-28.21 52.296Q568-558 569-556q1 2 5 2Zm32.895 207.148 28.21-52.296Q636-402 635-404q-1-2-5-2h-56q-4 0-5 2t-.105 4.852l28.21 52.296Q598-344 602-344q4 0 4.895-2.852ZM248-196q-22 0-37-15t-15-37v-464q0-22.7 15-37.35Q226-764 248-764h464q22.7 0 37.35 14.65Q764-734.7 764-712v464q0 22-14.65 37T712-196H248Zm0-20h464q14 0 23-9t9-23v-464q0-14-9-23t-23-9H248q-14 0-23 9t-9 23v464q0 14 9 23t23 9Zm-32 0v-528 528Z"/></svg>