<svg xmlns="http://www.w3.org/2000/svg" height="24" viewBox="0 -960 960 960" width="24"><path d="M480-161q-65.57 0-111.785-46.215T322-319v-353q-25 0-42.5-17.625T262-732v-46q0-24.75 17.625-42.375T322-838h316q24.75 0 42.375 17.625T698-778v46q0 24.75-17.625 42.375T638-672l-1 367q-5 61-49.46 102.5T480-161Zm0-28q51 0 87.5-33.5T609-305h-89q-5.95 0-9.975-4.035-4.025-4.035-4.025-10t4.025-9.965q4.025-4 9.975-4h90v-92h-90q-5.95 0-9.975-4.035-4.025-4.035-4.025-10t4.025-9.965q4.025-4 9.975-4h90v-92h-90q-5.95 0-9.975-4.035-4.025-4.035-4.025-10t4.025-9.965q4.025-4 9.975-4h90v-99H350v353q0 54.167 37.917 92.083Q425.833-189 480-189Z"/></svg>