<svg xmlns="http://www.w3.org/2000/svg" height="24" viewBox="0 -960 960 960" width="24"><path d="M479.852-11Q386-11 320-77.105T254-237v-423q-35-9-57.5-37.5T174-763v-80q0-43.725 31.137-74.862Q236.275-949 280-949h400q43.725 0 74.862 31.138Q786-886.725 786-843v80q0 37-22.5 65.5T706-660v423q0 93.79-66.148 159.895Q573.703-11 479.852-11ZM480-127q32.822 0 58.911-17T579-189h-59q-24 0-41-17t-17-41q0-24 17-41t41-17h70v-40h-70q-24 0-41-17t-17-41q0-24 17-41t41-17h70v-40h-70q-24 0-41-17t-17-41q0-24 17-41t41-17h70v-40H370v420q0 45.833 32.083 77.917Q434.167-127 480-127Z"/></svg>