<svg xmlns="http://www.w3.org/2000/svg" height="24" viewBox="0 -960 960 960" width="24"><path d="M480-142.307q-69.592 0-118.642-49.05-49.051-49.05-49.051-118.643v-354.615q-26.846 0-45.73-18.981-18.885-18.981-18.885-45.635v-53.846q0-26.654 18.981-45.635 18.981-18.981 45.634-18.981h335.386q26.653 0 45.634 18.981t18.981 45.635v53.846q0 26.654-18.981 45.635-18.981 18.981-45.634 18.981l-.77 365.384q-3.846 66.077-51.546 111.501-47.7 45.423-115.377 45.423Zm0-40.001q48.231 0 83.461-30.961 35.231-30.962 41.847-76.731H520q-8.5 0-14.25-5.758-5.75-5.757-5.75-14.269 0-8.511 5.75-14.242Q511.5-330 520-330h87.692v-80H520q-8.5 0-14.25-5.758-5.75-5.757-5.75-14.269 0-8.511 5.75-14.242Q511.5-450 520-450h87.692v-80H520q-8.5 0-14.25-5.757-5.75-5.758-5.75-14.27 0-8.511 5.75-14.242Q511.5-570 520-570h87.692v-94.615H352.308V-310q0 53.205 37.243 90.449 37.244 37.243 90.449 37.243Z"/></svg>