<svg xmlns="http://www.w3.org/2000/svg" height="20" viewBox="0 -960 960 960" width="20"><path d="M356-236h248v-32H356v32ZM256-136v-344q0-69.308 38.846-124.5 38.846-55.192 99-81.567v-17.483q0-36.348 25.181-61.476t61.154-25.128q35.973 0 60.973 25.128t25 61.476v17.483q60.154 26.375 99 80.866T704-480v344H256Zm169.846-561.462q11.769-2.769 26.577-4.654Q467.231-704 480-704q12.769 0 27.577 1.884 14.808 1.885 26.577 4.654V-704q0-23.016-15.569-38.585-15.57-15.569-38.585-15.569t-38.585 15.621q-15.569 15.622-15.569 38.715v6.356Zm-8.498 319.001 62.557-47.325 62.557 47.325-23.385-77.154 62.462-44.539h-77.001L480-581.539l-24.538 81.385h-77.001l62.557 44.79-23.67 76.903Z"/></svg>