<svg xmlns="http://www.w3.org/2000/svg" height="20" viewBox="0 -960 960 960" width="20"><path d="M785-73 521-336H92q-16.84 0-27.92-13Q53-362 56-379q10-49 37-86t65.5-61.5q38.5-24.5 84.671-37Q289.343-576 336-576q15 0 27 1t26 3v102L71-788q-11-11-11.5-25T70-838q11-11 25.667-11 14.666 0 25.333 11l715 714q11 10.636 11 24.818Q847-85 836-74q-11 11-25.5 11.5T785-73ZM84-192q-15.3 0-25.65-10.289Q48-212.579 48-227.789 48-243 58.35-253.5 68.7-264 84-264h504q15.3 0 25.65 10.289 10.35 10.29 10.35 25.5Q624-213 613.65-202.5 603.3-192 588-192H84Zm0 144q-15.3 0-25.65-10.29Q48-68.578 48-83.79 48-99 58.35-109.5T84-120h504q15.3 0 25.65 10.289Q624-99.421 624-84.211 624-69 613.65-58.5 603.3-48 588-48H84Zm772-158L448-614l-12-114q-2-16 9-28t27-12h164v-107.737Q636-891 646.289-901.5q10.29-10.5 25.5-10.5Q687-912 697.5-901.65 708-891.3 708-876v108h164q16.2 0 27.1 11.818Q910-744.364 908-728l-52 522Z"/></svg>