<svg xmlns="http://www.w3.org/2000/svg" height="20" viewBox="0 -960 960 960" width="20"><path d="M884-192 776-301l36-380H422l-5-54q-3-25.6 14.732-44.8Q449.463-799 476-799h140v-92.737q0-21.638 15.289-36.451Q646.579-943 667.789-943 689-943 704-928.338q15 14.663 15 36.338v93h159q26.057 0 43.529 19.318Q939-760.364 936-734l-52 542ZM611-481ZM811-41 70-783q-13-12.533-13-29.767Q57-830 70.105-843t30.667-13q17.561 0 30.228 13l741 741q13 12.818 13 29.91Q885-55 871.895-42q-13.106 13-30.5 13.5Q824-28 811-41ZM60-185q-18.275 0-30.637-12.589Q17-210.179 17-228.789q0-18.186 12.363-30.698Q41.724-272 60-272h490q18.275 0 30.637 12.307Q593-247.386 593-229.193 593-211 580.637-198 568.275-185 550-185H60Zm0 168q-18.275 0-30.637-12.59Q17-42.178 17-60.79q0-18.185 12.363-30.697Q41.724-104 60-104h490q18.275 0 30.637 12.307Q593-79.386 593-61.193 593-43 580.637-30 568.275-17 550-17H60Zm349-549v88q-24-6-49-8.5t-51-2.5q-46.079 0-90.04 21.5Q175-446 146-423h405l87 87H88q-27.84 0-44.92-21.5Q26-379 31-406q8-42 38.5-73.5t71.5-53q41-21.5 86-32.5t82-11q28 0 52.5 2.5T409-566Zm-90 123Z"/></svg>