<svg xmlns="http://www.w3.org/2000/svg" height="20" viewBox="0 -960 960 960" width="20"><path d="M799.696-54.912 518.174-336l-427.87 2.261q-23.058 0-37.812-17.805-14.754-17.804-10.623-40.457 8.87-43.912 37.565-77.804 28.696-33.891 68.326-56.695 39.631-22.804 84.954-34.739 45.324-11.935 85.763-11.935 23.479 0 43.393 1.848 19.913 1.848 41.826 6.109l.566 113.305L71-785.174q-12.13-12.055-12.63-27.506-.5-15.45 11.69-27.581 12.19-12.13 28.492-12.13 16.303 0 28.1 12.13l729.697 728.696q12.13 11.87 12.13 27.696 0 15.826-12.19 27.957-12.19 12.13-28.326 12.63-16.136.5-28.267-11.63ZM74.956-183.521q-18.903 0-31.691-12.727t-12.788-31.541q0-18.814 12.788-31.752 12.788-12.938 31.691-12.938H562q18.903 0 31.691 12.727 12.787 12.727 12.787 31.541t-12.787 31.752q-12.788 12.938-31.691 12.938H74.956Zm0 153.044q-18.903 0-31.691-13.116T30.477-75.311q0-18.602 12.788-31.645Q56.053-120 74.956-120H562q18.903 0 31.691 12.727 12.787 12.727 12.787 31.541 0 18.602-12.787 31.928-12.788 13.327-31.691 13.327H74.956Zm796.306-168.175L434.999-633.218l-9.739-98.173q-2.565-21.653 12.399-37.892 14.963-16.24 37.167-16.24h149.869v-99.258q0-18.866 13.116-31.804 13.115-12.938 31.718-12.938 18.601 0 31.645 12.788t13.044 31.691v99.521h160.608q22.014 0 36.79 16.058 14.776 16.057 12.211 38.074l-52.565 532.739Z"/></svg>