<svg xmlns="http://www.w3.org/2000/svg" height="24" viewBox="0 -960 960 960" width="24"><path d="M656.923-350.769H553.462q-28.077-85.154-86.885-152.385-58.808-67.231-140.193-106.077h330.539q13.923 0 23.116 9.192 9.192 9.193 9.192 23.116v193.846q0 13.923-9.192 23.116-9.193 9.192-23.116 9.192ZM775.385-200H578.462q0-10-.347-20-.346-10-1.807-20h199.077q10.769 0 17.692-6.923T800-264.615v-430.77q0-10.769-6.923-17.692T775.385-720h-590.77q-10.769 0-17.692 6.923T160-695.385v39.077q-10-1.461-20-1.807-10-.347-20-.347v-36.923q0-26.846 18.884-45.731Q157.769-760 184.615-760h590.77q26.846 0 45.731 18.884Q840-722.231 840-695.385v430.77q0 26.846-18.884 45.731Q802.231-200 775.385-200Zm-463.077 0q-8.308 0-14.154-5.654-5.846-5.653-7.308-13.961-6.385-59.923-49.577-101.616-43.192-41.692-103.885-49.615-8.077-1.231-12.73-7.192Q120-384 120-392.308q0-8.538 6.384-14.269 6.385-5.731 14.462-4.5 76.308 7.385 129.731 60.923Q324-296.615 330.846-220.308 332.077-212 326.462-206q-5.616 6-14.154 6Zm150.769 0q-9.308 0-14.654-7.154-5.346-7.153-6.577-17.23-9.385-121.077-94.885-205.847-85.5-84.769-207.346-92.384-8.308-.462-13.961-6.308Q120-534.769 120-543.077q0-8.539 6.269-14.385t15.115-5.384q138.693 7.615 235.924 105.115t105.308 235.962q.461 9.308-5.27 15.538-5.73 6.231-14.269 6.231Zm-304.616 0q-16.538 0-27.5-10.961Q120-221.923 120-238.461q0-16.539 10.961-27.501 10.962-10.961 27.5-10.961 16.539 0 27.501 10.961 10.961 10.962 10.961 27.501 0 16.538-10.961 27.5Q175-200 158.461-200Z"/></svg>