<svg xmlns="http://www.w3.org/2000/svg" height="24" viewBox="0 -960 960 960" width="24"><path d="M656.923-350.769H553.462q-3.186-10.057-7.055-19.875-3.868-9.818-9.022-20.125h111.846v-178.462H391.462q-15.154-11.923-31.347-21.923-16.192-10-33.731-18.077H656.77q14.076 0 23.269 9.296 9.192 9.296 9.192 23.038v194.002q0 13.741-9.288 22.934-9.289 9.192-23.02 9.192ZM480-480Zm295.385 280H578.462q0-10-.539-20-.538-10-1.615-20h199.077q10.769 0 17.692-6.923T800-264.615v-430.77q0-10.769-6.923-17.692T775.385-720h-590.77q-10.769 0-17.692 6.923T160-695.385v39.077q-10-1.077-20-1.615-10-.539-20-.539v-36.923q0-26.654 18.981-45.634Q157.961-760 184.615-760h590.77q26.654 0 45.634 18.981Q840-722.039 840-695.385v430.77q0 26.654-18.981 45.634Q802.039-200 775.385-200Zm-463.217 0q-8.168 0-14.014-5.654-5.846-5.653-7.308-13.961-6.385-59.923-49.577-102t-103.885-49.231q-8.149-1-12.766-7.25-4.618-6.25-4.618-14.25 0-8.5 6.384-14.231 6.385-5.731 14.462-4.5 76.308 7.385 129.731 60.923Q324-296.615 330.846-220.308 332.077-212 326.462-206q-5.616 6-14.294 6Zm150.909 0q-9.308 0-14.654-7.154-5.346-7.153-6.577-17.23-9.385-121.077-94.885-205.847-85.5-84.769-207.346-92.384-8.308-.462-13.961-6.47Q120-535.093 120-543.104q0-8.512 6.269-14.358t15.115-5.384q138.693 7.615 235.924 105.115t105.308 235.962q.461 9.308-5.289 15.538-5.75 6.231-14.25 6.231Zm-311.582 0q-13.264 0-22.38-9.159Q120-218.317 120-231.582q0-13.264 9.159-22.379 9.158-9.116 22.423-9.116 13.264 0 22.379 9.159 9.116 9.159 9.116 22.423 0 13.264-9.159 22.38Q164.759-200 151.495-200Z"/></svg>