<svg xmlns="http://www.w3.org/2000/svg" height="24" viewBox="0 -960 960 960" width="24"><path d="M650-360H547q-26-78-79.5-140.5T340-600h310q13 0 21.5 8.5T680-570v180q0 13-8.5 21.5T650-360Zm118 148H572v-14q0-7-1-14h197q14 0 23-9t9-23v-416q0-14-9-23t-23-9H192q-14 0-23 9t-9 23v37q-7-1-14-1h-14v-36q0-25 17.5-42.5T192-748h576q25 0 42.5 17.5T828-688v416q0 25-17.5 42.5T768-212Zm-458 0q-6 0-10-4.5t-5-10.5q-5-59-47.5-100T145-375q-6-1-9.5-5t-3.5-10q0-6 5-10t11-3q71 6 120.5 55.5T323-227q1 6-3 10.5t-10 4.5Zm148 0q-7 0-10.5-6t-4.5-14q-8-119-92-202.5T147-524q-6 0-10.5-4t-4.5-10q0-6 5-10t12-4q132 6 224.5 99T472-228q0 7-4 11.5t-10 4.5Zm-294 0q-14 0-23-9t-9-23q0-14 9-23t23-9q14 0 23 9t9 23q0 14-9 23t-23 9Z"/></svg>