<svg xmlns="http://www.w3.org/2000/svg" height="24" viewBox="0 -960 960 960" width="24"><path d="M480.181-756.923q-19.796 0-33.835-13.91-14.038-13.911-14.038-33.782 0-21 14.884-41.539 14.885-20.538 32.808-40 17.923 19.462 32.808 40 14.884 20.539 14.884 41.539 0 19.871-13.857 33.782-13.858 13.91-33.654 13.91Zm-190.769 0q-19.797 0-33.835-13.91-14.039-13.911-14.039-33.782 0-21 14.885-41.539 14.885-20.538 32.808-40 17.923 19.462 32.807 40 14.885 20.539 14.885 41.539 0 19.871-13.857 33.782-13.858 13.91-33.654 13.91Zm381.538 0q-19.796 0-33.835-13.91-14.038-13.911-14.038-33.782 0-21 14.885-41.539 14.884-20.538 32.807-40 17.923 19.462 32.808 40 14.885 20.539 14.885 41.539 0 19.871-13.858 33.782-13.857 13.91-33.654 13.91ZM209.231-160v80H160v-313.846L246.461-640h467.078L800-393.846V-80h-49.231v-80H209.231Zm7.384-273.846h526.77L684.462-600H275.538l-58.923 166.154Zm80.489 181.538q18.665 0 31.55-13.065 12.885-13.066 12.885-31.731t-13.066-31.55q-13.066-12.885-31.731-12.885t-31.55 13.066q-12.884 13.066-12.884 31.731t13.065 31.55q13.066 12.884 31.731 12.884Zm366.154 0q18.665 0 31.55-13.065 12.884-13.066 12.884-31.731t-13.065-31.55q-13.066-12.885-31.731-12.885t-31.55 13.066q-12.885 13.066-12.885 31.731t13.066 31.55q13.066 12.884 31.731 12.884Z"/></svg>