<svg xmlns="http://www.w3.org/2000/svg" height="24" viewBox="0 -960 960 960" width="24"><path d="M480-763.587q-25 0-42.5-17.5t-17.5-42.5q0-21 14.5-45t45.5-55q31 31 45.5 55t14.5 45q0 25-17.5 42.5t-42.5 17.5Zm-200 0q-25 0-42.5-17.5t-17.5-42.5q0-21 14.5-45t45.5-55q31 31 45.5 55t14.5 45q0 25-17.5 42.5t-42.5 17.5Zm400 0q-25 0-42.5-17.5t-17.5-42.5q0-21 14.5-45t45.5-55q31 31 45.5 55t14.5 45q0 25-17.5 42.5t-42.5 17.5Zm-439.283 651v80H111.869v-369.565l100.392-286.696h535.478l100.392 286.696v369.565H719.283v-80H240.717Zm-5.369-368.13h489.304l-40.804-117.131H276.152l-40.804 117.131Zm66.087 238.565q25 0 42.5-17.5t17.5-42.5q0-25-17.5-42.5t-42.5-17.5q-25 0-42.5 17.5t-17.5 42.5q0 25 17.5 42.5t42.5 17.5Zm357.13 0q25 0 42.5-17.5t17.5-42.5q0-25-17.5-42.5t-42.5-17.5q-25 0-42.5 17.5t-17.5 42.5q0 25 17.5 42.5t42.5 17.5Z"/></svg>