<svg xmlns="http://www.w3.org/2000/svg" height="20" viewBox="0 -960 960 960" width="20"><path d="M417.217-64.216q-73.391 0-138.066-27.913-64.674-27.914-113-75.957-48.326-48.044-76.24-112.718Q62-345.478 62-418.87q0-146.217 101.826-250.804 101.826-104.588 252.044-104.414h-2.261l-45.13-45.13 63.435-62.305 155.871 156.436-155.871 155.87-63.435-62.87 43.999-44h2.827q-109.913 1.392-182.609 77.348Q160-522.782 160-418.87q0 106.174 75.522 181.413 75.521 75.239 181.695 75.239 34.304 0 66.609-8.369 32.304-8.37 59.608-24.804l70.653 71.218q-42.261 29.26-91.87 44.609-49.608 15.348-105 15.348Zm255.262-97.696L415.521-418.87l256.958-257.522L930.001-418.87 672.479-161.912Z"/></svg>