<svg xmlns="http://www.w3.org/2000/svg" height="20" viewBox="0 -960 960 960" width="20"><path d="M428.231-104.001q-65.799 0-123.13-24.77-57.331-24.769-100.33-67.768-43-43-67.769-100.32-24.769-57.32-24.769-123.106 0-131.573 93.166-225.303 93.166-93.731 228.832-90.731h23.079l-66.232-66.231 37.153-37.922 130.153 130.153-130.153 130.153-37.153-37.923L457.31-684h-23.079q-115-2-192.5 76.5t-77.5 187.5q0 109 77.5 186.5t186.5 77.5q36 0 70-9.5t63-26.5l37.384 37.384q-36.923 23.922-79.628 37.268-42.706 13.347-90.756 13.347Zm240-104.463L456.695-420l211.536-211.536L879.767-420 668.231-208.464Zm0-73.536 138-138-138-138-138 138 138 138Zm0-138Z"/></svg>