<svg xmlns="http://www.w3.org/2000/svg" height="20" viewBox="0 -960 960 960" width="20"><path d="M148-156v-276l81-196h155v-48h36q-2 16-.5 32.5T425-608H243l-70 180h406q20 5 36.764 6.5Q632.529-420 652-420q16.897 0 32.948-3Q701-426 716-432v276h-4v-72H152v72h-4Zm20-252v160-160Zm92.235 108Q272-300 280-308.235q8-8.236 8-20Q288-340 279.765-348q-8.236-8-20-8Q248-356 240-347.765q-8 8.236-8 20Q232-316 240.235-308q8.236 8 20 8Zm344 0Q616-300 624-308.235q8-8.236 8-20Q632-340 623.765-348q-8.236-8-20-8Q592-356 584-347.765q-8 8.236-8 20Q576-316 584.235-308q8.236 8 20 8Zm47.539-212Q593-512 552.5-552.726t-40.5-99.5Q512-711 552.726-751.5t99.5-40.5Q711-792 751.5-751.274t40.5 99.5Q792-593 751.274-552.5t-99.5 40.5ZM634-672h36v-44h-36v44ZM168-248h528v-160H168v160Zm462-336h44v-44h-44v44Z"/></svg>