<svg xmlns="http://www.w3.org/2000/svg" height="24" viewBox="0 -960 960 960" width="24"><path d="M100.782-100.782v-96.957h96.957v96.957h-96.957Zm0-165.652v-96.957h96.957v96.957h-96.957Zm0-165.087v-96.958h96.957v96.958h-96.957Zm0-165.653v-96.957h96.957v96.957h-96.957Zm0-165.087v-96.957h96.957v96.957h-96.957Zm165.652 661.479v-96.957h96.957v96.957h-96.957Zm0-330.739v-96.958h96.957v96.958h-96.957Zm0-330.74v-96.957h96.957v96.957h-96.957Zm165.087 661.479v-758.436h96.958v758.436h-96.958Zm165.653 0v-96.957h96.957v96.957h-96.957Zm0-330.739v-96.958h96.957v96.958h-96.957Zm0-330.74v-96.957h96.957v96.957h-96.957Zm165.087 661.479v-96.957h96.957v96.957h-96.957Zm0-165.652v-96.957h96.957v96.957h-96.957Zm0-165.087v-96.958h96.957v96.958h-96.957Zm0-165.653v-96.957h96.957v96.957h-96.957Zm0-165.087v-96.957h96.957v96.957h-96.957Z"/></svg>