<svg xmlns="http://www.w3.org/2000/svg" height="24" viewBox="0 -960 960 960" width="24"><path d="M300-742.61q-25 0-42.5 17.5t-17.5 42.5q0 25 17.5 42.5t42.5 17.5q25 0 42.5-17.5t17.5-42.5q0-25-17.5-42.5t-42.5-17.5Zm0 438.437q-25 0-42.5 17.5t-17.5 42.5q0 25 17.5 42.5t42.5 17.5q25 0 42.5-17.5t17.5-42.5q0-25-17.5-42.5t-42.5-17.5ZM153.782-881.828h652.436q22.525 0 37.763 15.739 15.237 15.739 15.237 38.392v287.913q0 23.967-15.237 40.18-15.238 16.213-37.763 16.213H153.782q-22.525 0-37.763-16.213-15.237-16.213-15.237-40.18v-287.913q0-22.653 15.237-38.392 15.238-15.739 37.763-15.739Zm53.001 106.001v186.434h546.434v-186.434H206.783Zm-53.001 332.436h652.436q22.525 0 37.763 16.212 15.237 16.213 15.237 40.18v287.913q0 22.766-15.237 38.166-15.238 15.4-37.763 15.4H153.782q-22.525 0-37.763-15.4-15.237-15.4-15.237-38.166v-287.913q0-23.967 15.237-40.18 15.238-16.212 37.763-16.212Zm53.001 106.001v185.869h546.434V-337.39H206.783Zm0-438.437v186.434-186.434Zm0 438.437v185.869-185.869Z"/></svg>