<svg xmlns="http://www.w3.org/2000/svg" height="20" viewBox="0 -960 960 960" width="20"><path d="M312-718.61q-20 0-34 14t-14 34q0 20 14 34t34 14q20 0 34-14t14-34q0-20-14-34t-34-14Zm0 422.437q-20 0-34 14t-14 34q0 20 14 34t34 14q20 0 34-14t14-34q0-20-14-34t-34-14ZM185.782-857.828h588.436q25.925 0 43.463 18.039 17.537 18.039 17.537 44.092v247.913q0 27.367-17.537 45.88-17.538 18.513-43.463 18.513H185.782q-25.925 0-43.463-18.513-17.537-18.513-17.537-45.88v-247.913q0-26.053 17.537-44.092 17.538-18.039 43.463-18.039Zm0 422.437h588.436q25.925 0 43.463 18.512 17.537 18.513 17.537 45.88v247.913q0 26.166-17.537 43.866-17.538 17.7-43.463 17.7H185.782q-25.925 0-43.463-17.7-17.537-17.7-17.537-43.866v-247.913q0-27.367 17.537-45.88 17.538-18.512 43.463-18.512Z"/></svg>