<svg xmlns="http://www.w3.org/2000/svg" height="20" viewBox="0 -960 960 960" width="20"><path d="M336-48v-528h288v528H336Zm143.887-336Q500-384 514-397.887q14-13.888 14-34Q528-452 514.113-466q-13.888-14-34-14Q460-480 446-466.113q-14 13.888-14 34Q432-412 445.887-398q13.888 14 34 14ZM343-665l-51-51q37.465-37.073 85.232-56.537Q425-792 477.86-792t101 20.5Q627-751 665-713l-51 51q-27-27-62.5-42.5T477.83-720q-38.17 0-73 14T343-665ZM224-784l-51-51q62-60 140.56-92.5T478-960q86.94 0 166.47 32.5T784-832l-51 51q-51-52-117-79.5T478-888q-72 0-138 26.491-66 26.49-116 77.509Z"/></svg>