<svg xmlns="http://www.w3.org/2000/svg" height="20" viewBox="0 -960 960 960" width="20"><path d="M356-68v-488h248v488H356Zm123.887-332.923q12.421 0 21.805-9.272 9.385-9.272 9.385-21.692 0-12.421-9.272-21.805-9.272-9.385-21.692-9.385-12.421 0-21.805 9.272-9.385 9.272-9.385 21.692 0 12.421 9.272 21.805 9.272 9.385 21.692 9.385ZM344.538-692.692 321.231-716q32.849-27.842 72.924-41.921Q434.231-772 477.86-772t84.077 15.115q40.448 15.116 73.832 43.885l-23.307 23.308q-27.77-22.385-62.885-36.346Q514.462-740 477.83-740q-36.631 0-71.077 12.462-34.445 12.461-62.215 34.846ZM224-811.692 202.231-835q57.384-51.539 128.252-78.269Q401.351-940 478-940q76.94 0 148.778 27.115Q698.616-885.769 754.769-832L733-808.692q-53.308-48.154-118.538-73.731Q549.231-908 478-908t-136.462 24.568q-65.23 24.567-117.538 71.74Z"/></svg>