<svg xmlns="http://www.w3.org/2000/svg" height="24" viewBox="0 -960 960 960" width="24"><path d="M304.615-80Q277-80 258.5-98.5 240-117 240-144.615v-670.77Q240-843 258.5-861.5 277-880 304.615-880h350.77Q683-880 701.5-861.5 720-843 720-815.385v670.77Q720-117 701.5-98.5 683-80 655.385-80h-350.77ZM280-220h400v-520H280v520Zm180-204.77v-167.538q0-8.538 5.731-14.269 5.73-5.731 14.269-5.731t14.269 5.731Q500-600.846 500-592.308v167.538l69.846-69.615q5.615-5.615 13.654-6 8.039-.384 14.654 6.231 6.385 6.385 6.385 14.154t-6.385 14.154l-95.539 95.538q-9.692 9.693-22.615 9.693-12.923 0-22.615-9.693l-95.539-95.538q-5.615-5.615-6.115-13.654t6.115-14.654q6.385-6.385 14.039-6.5 7.654-.115 14.269 6.269L460-424.77Z"/></svg>