<svg xmlns="http://www.w3.org/2000/svg" height="24" viewBox="0 -960 960 960" width="24"><path d="M288.479-22.477q-44.305 0-75.153-30.849-30.849-30.848-30.849-75.153v-703.042q0-44.305 30.849-75.153 30.848-30.849 75.153-30.849h383.042q44.305 0 75.153 30.849 30.849 30.848 30.849 75.153v703.042q0 44.305-30.849 75.153-30.848 30.849-75.153 30.849H288.479Zm0-226.002h383.042v-463.042H288.479v463.042ZM440-470.609V-600q0-17 11.5-28.5T480-640q17 0 28.5 11.5T520-600v129.391l37.13-36.695q11-11 27.5-11.283 16.5-.283 28.5 11.717 11 11 11 28t-11 28l-95.521 96.087Q501.652-338.826 480-338.826t-37.609-15.957L346.87-450.87q-11-11-11.5-27.5t11.5-28.5q11-11 27.782-11.217 16.783-.217 28.218 10.783L440-470.609Z"/></svg>