<svg xmlns="http://www.w3.org/2000/svg" height="20" viewBox="0 -960 960 960" width="20"><path d="M279-17q-49.7 0-83.85-34.15Q161-85.3 161-135v-690q0-49.7 34.15-83.85Q229.3-943 279-943h402q49.7 0 83.85 34.15Q799-874.7 799-825v690q0 49.7-34.15 83.85Q730.7-17 681-17H279Zm0-166v48h402v-48H279Zm0-72h402v-450H279v450Zm165-213v-119.855q0-15.362 10.289-25.753Q464.579-624 479.789-624 495-624 505.5-613.608q10.5 10.391 10.5 25.753V-468l34-35q11-11 25.667-11.5Q590.333-515 601-504q11 11 11 25.5T601-453l-79.138 80.138Q503.636-355 479.636-355T438-373l-79-80q-11-11-10.5-25.5T360-504q11-11 26-10.5t25 11.5l33 35ZM279-777h402v-48H279v48Zm0 0v-48 48Zm0 594v48-48Z"/></svg>