<svg xmlns="http://www.w3.org/2000/svg" height="24" viewBox="0 -960 960 960" width="24"><path d="M280-76.413q-33 0-56.5-23.5t-23.5-56.5q0-33 23.5-56.5t56.5-23.5q33 0 56.5 23.5t23.5 56.5q0 33-23.5 56.5t-56.5 23.5Zm400 0q-33 0-56.5-23.5t-23.5-56.5q0-33 23.5-56.5t56.5-23.5q33 0 56.5 23.5t23.5 56.5q0 33-23.5 56.5t-56.5 23.5Zm-428.022-640 90.5 189h279.044l103.782-189H251.978Zm-41.826-87.174H873.5L673.065-440h-345l-41.847 76.413h477.369v87.174H138.065L259.935-496 117.848-796.413H36.413v-87.174h135.739l38 80Zm132.326 276.174h279.044-279.044Z"/></svg>