<svg xmlns="http://www.w3.org/2000/svg" height="20" viewBox="0 -960 960 960" width="20"><path d="M276.095-131.384q-22.095 0-36.941-15.059-14.847-15.059-14.847-37.154 0-22.095 15.059-36.941 15.059-14.847 37.154-14.847 22.095 0 36.942 15.059 14.846 15.059 14.846 37.154 0 22.095-15.059 36.941-15.058 14.847-37.154 14.847Zm407.385 0q-22.095 0-36.942-15.059-14.846-15.059-14.846-37.154 0-22.095 15.059-36.941 15.058-14.847 37.154-14.847 22.095 0 36.941 15.059 14.847 15.059 14.847 37.154 0 22.095-15.059 36.941-15.059 14.847-37.154 14.847ZM229.692-748h543.924L660.923-467.384H317l-63.538 111.999h482.231v32.001H195.615l104.769-178.001L166.307-812H88v-32h100.692l41 96Z"/></svg>