<svg xmlns="http://www.w3.org/2000/svg" height="24" viewBox="0 -960 960 960" width="24"><path d="M292.308-115.384q-25.308 0-42.654-17.347-17.347-17.346-17.347-42.654 0-25.307 17.347-42.653 17.346-17.347 42.654-17.347 25.307 0 42.654 17.347 17.346 17.346 17.346 42.653 0 25.308-17.346 42.654-17.347 17.347-42.654 17.347Zm375.384 0q-25.307 0-42.654-17.347-17.346-17.346-17.346-42.654 0-25.307 17.346-42.653 17.347-17.347 42.654-17.347 25.308 0 42.654 17.347 17.347 17.346 17.347 42.653 0 25.308-17.347 42.654-17.346 17.347-42.654 17.347ZM215.692-780h596.924L645.923-475.384H324l-65.538 119.999h469.231v40.001H189.615l109.769-196.001L152.307-820H80v-40h97.692l38 80Z"/></svg>