<svg xmlns="http://www.w3.org/2000/svg" height="24" viewBox="0 -960 960 960" width="24"><path d="M508.13-369.521q-84.565 0-131.26 12.695-46.696 12.696-78.696 44.696L167.826-181.782Q154-167.956 134.109-167.956q-19.892 0-34.153-13.826-14.826-14.261-14.544-34.435.283-20.174 14.544-34.435L229.304-380q31.565-31.565 44.195-78.63 12.631-47.066 12.631-132.891 0-64.218 26.848-123.892 26.848-59.674 76.543-108.805 92.696-92.695 206.653-104.978 113.956-12.283 187.217 62.978 73.696 73.696 61.979 187.088-11.718 113.391-103.979 207.348-48.565 49.13-108.804 75.695-60.239 26.566-124.457 26.566Zm-92.739-130.697q44.174 43.174 121.348 30.609 77.174-12.565 136.782-72.174 60.609-60.608 73.109-137 12.5-76.391-31.109-118.565-44.043-44.608-119.565-32.325-75.521 12.282-136.565 72.891-59.608 59.608-73.108 136.282-13.5 76.674 29.108 120.282ZM730.174-26.999q-68.261 0-116.108-48.13-47.848-48.131-47.848-116.392t47.848-116.109q47.847-47.848 116.108-47.848t116.392 47.848q48.13 47.848 48.13 116.109T846.566-75.13Q798.435-27 730.174-27Z"/></svg>