<svg xmlns="http://www.w3.org/2000/svg" height="24" viewBox="0 -960 960 960" width="24"><path d="M520-411.692 548.308-440 460-528.308V-700h-40v188.308l100 100ZM408-242.846q12.923-33.385 42.263-55.27Q479.604-320 518-320h115.846Q674-357.077 697-408.731 720-460.385 720-520q0-117-81.5-198.5T440-800q-117 0-198.5 81.5T160-520q0 108.769 71.577 187.115T408-242.846ZM520-80q-51.077 0-85.846-36.5-34.77-36.5-32.693-86.115Q282.538-217.077 201.269-307T120-520q0-133.333 93.28-226.667Q306.561-840 439.819-840q133.258 0 226.72 93.333Q760-653.333 760-520q0 57.615-19.884 108.5-19.885 50.884-54.039 91.5h76.154q49.508 0 83.639 35.25Q880-249.5 880-200t-35.25 84.75Q809.5-80 760-80H520Zm-80-441.154ZM640-200Zm-120 80h240q33 0 56.5-23.5T840-200q0-33-23.5-56.5T760-280H520q-33 0-56.5 23.5T440-200q0 33 23.5 56.5T520-120Zm.027-50.769q-12.412 0-20.835-8.396t-8.423-20.808q0-12.412 8.396-20.835t20.808-8.423q12.412 0 20.835 8.396t8.423 20.808q0 12.412-8.396 20.835t-20.808 8.423Zm120 0q-12.412 0-20.835-8.396t-8.423-20.808q0-12.412 8.396-20.835t20.808-8.423q12.412 0 20.835 8.396t8.423 20.808q0 12.412-8.396 20.835t-20.808 8.423Zm120 0q-12.412 0-20.835-8.396t-8.423-20.808q0-12.412 8.396-20.835t20.808-8.423q12.412 0 20.835 8.396t8.423 20.808q0 12.412-8.396 20.835t-20.808 8.423Z"/></svg>