<svg xmlns="http://www.w3.org/2000/svg" height="20" viewBox="0 -960 960 960" width="20"><path d="m532-428 15-15-105-105v-146h-20v156l110 110ZM427-262q15-21 37.993-33.5Q487.985-308 516-308h73q50-39 78.5-96.25T696-528q0-110.314-76.778-187.157Q542.443-792 432.222-792 322-792 245-715.157 168-638.314 168-528q0 109 76 185.5T427-262Zm89 162q-55 0-88-44.5T410-245q-110-10-186-90.706t-76-192.693q0-117.934 82.765-200.768Q313.529-812 431.765-812 550-812 633-729.167 716-646.333 716-528q0 65-25 121t-68 99h132q43.56 0 74.28 30.225T860-204q0 43.55-30.225 73.775Q799.55-100 756-100H516Zm-84-426Zm204 322Zm-120 84h240q34.65 0 59.325-24.748Q840-169.496 840-204.248 840-239 815.325-263.5T756-288H516q-34.65 0-59.325 24.748Q432-238.504 432-203.752 432-169 456.675-144.5T516-120Zm.246-62q-9.246 0-15.746-6.254-6.5-6.255-6.5-15.5 0-9.246 6.254-15.746 6.255-6.5 15.5-6.5 9.246 0 15.746 6.254 6.5 6.255 6.5 15.5 0 9.246-6.254 15.746-6.255 6.5-15.5 6.5Zm120 0q-9.246 0-15.746-6.254-6.5-6.255-6.5-15.5 0-9.246 6.254-15.746 6.255-6.5 15.5-6.5 9.246 0 15.746 6.254 6.5 6.255 6.5 15.5 0 9.246-6.254 15.746-6.255 6.5-15.5 6.5Zm120 0q-9.246 0-15.746-6.254-6.5-6.255-6.5-15.5 0-9.246 6.254-15.746 6.255-6.5 15.5-6.5 9.246 0 15.746 6.254 6.5 6.255 6.5 15.5 0 9.246-6.254 15.746-6.255 6.5-15.5 6.5Z"/></svg>