<svg xmlns="http://www.w3.org/2000/svg" height="24" viewBox="0 -960 960 960" width="24"><path d="M413-213q-118-11-199.5-98.5T132-520q0-128.333 89.765-218.167Q311.529-828 439.765-828 568-828 658-738.167 748-648.333 748-520q0 62-23 116t-62 96H518q-41 0-70.5 27.5T413-213Zm107-207 20-20-86-86v-168h-28v180l94 94Zm0 300h240q33 0 56.5-23.5T840-200q0-33-23.5-56.5T760-280H520q-33 0-56.5 23.5T440-200q0 33 23.5 56.5T520-120Zm.035-54Q509-174 501.5-181.465t-7.5-18.5q0-11.035 7.465-18.535t18.5-7.5q11.035 0 18.535 7.465t7.5 18.5q0 11.035-7.465 18.535t-18.5 7.5Zm120 0Q629-174 621.5-181.465t-7.5-18.5q0-11.035 7.465-18.535t18.5-7.5q11.035 0 18.535 7.465t7.5 18.5q0 11.035-7.465 18.535t-18.5 7.5Zm120 0Q749-174 741.5-181.465t-7.5-18.5q0-11.035 7.465-18.535t18.5-7.5q11.035 0 18.535 7.465t7.5 18.5q0 11.035-7.465 18.535t-18.5 7.5Z"/></svg>