<svg xmlns="http://www.w3.org/2000/svg" height="24" viewBox="0 -960 960 960" width="24"><path d="m502.477-386.826 70.697-70.697-83-82.999v-189.652H389.826v230.696l112.651 112.652ZM361.782-261.435q18.261-48 60.457-78.37 42.196-30.369 95.761-30.369h146.348q21.739-32.305 33.608-70.261 11.87-37.956 11.87-79.565 0-112.749-78.539-191.287Q552.749-789.826 440-789.826q-112.749 0-191.287 78.539Q170.174-632.749 170.174-520q0 92.618 53.978 163.026 53.978 70.408 137.63 95.539ZM520-29.825q-60.246 0-105.949-36.783-45.703-36.783-59.53-92.913-123.13-28.827-203.913-128.526Q69.826-387.746 69.826-520q0-154.239 107.967-262.207Q285.761-890.174 440-890.174q154.239 0 262.207 107.967Q810.174-674.239 810.174-520q0 40.452-8.086 78.552-8.087 38.1-23.826 72.404 64.304 5.653 108.108 54.066Q930.174-266.565 930.174-200q0 70.522-49.826 120.348Q830.522-29.826 760-29.826H520ZM440-526.13ZM640-200Zm-120 69.826h240q28.803 0 49.314-20.512 20.512-20.511 20.512-49.314t-20.512-49.314Q788.803-269.826 760-269.826H520q-28.803 0-49.314 20.512-20.512 20.511-20.512 49.314t20.512 49.314q20.511 20.512 49.314 20.512ZM520-160q-17 0-28.5-11.5T480-200q0-17 11.5-28.5T520-240q17 0 28.5 11.5T560-200q0 17-11.5 28.5T520-160Zm120 0q-17 0-28.5-11.5T600-200q0-17 11.5-28.5T640-240q17 0 28.5 11.5T680-200q0 17-11.5 28.5T640-160Zm120 0q-17 0-28.5-11.5T720-200q0-17 11.5-28.5T760-240q17 0 28.5 11.5T800-200q0 17-11.5 28.5T760-160Z"/></svg>