<svg xmlns="http://www.w3.org/2000/svg" height="24" viewBox="0 -960 960 960" width="24"><path d="m166.783-859.218 80 160h120l-80-160h80l80 160h120l-80-160h80l80 160h120l-80-160h106.434q44.305 0 75.153 30.848 30.848 30.848 30.848 75.153v546.434q0 44.305-30.848 75.153-30.848 30.848-75.153 30.848H166.783q-44.305 0-75.153-30.283-30.848-30.283-30.848-74.022v-548.13q0-44.305 30.848-75.153 30.848-30.848 75.153-30.848Zm0 266.001v386.434h626.434v-386.434H166.783Zm0 0v386.434-386.434Zm164.522 346.434h297.39v-27.652q0-40.044-41.174-65.065Q546.348-364.522 480-364.522T372.479-339.5q-41.174 25.021-41.174 65.065v27.652ZM480.05-404.522q30.689 0 52.493-21.854 21.805-21.855 21.805-52.544 0-30.689-21.855-52.493-21.854-21.804-52.543-21.804t-52.493 21.854q-21.805 21.855-21.805 52.544 0 30.689 21.855 52.493 21.854 21.804 52.543 21.804Z"/></svg>