<svg xmlns="http://www.w3.org/2000/svg" height="20" viewBox="0 -960 960 960" width="20"><path d="M264.113-262Q254-262 246-269.887q-8-7.888-8-18Q238-298 245.887-306q7.888-8 18-8Q274-314 282-306.113q8 7.888 8 18Q290-278 282.113-270q-7.888 8-18 8Zm120 144Q374-118 366-125.887q-8-7.888-8-18Q358-154 365.887-162q7.888-8 18-8Q394-170 402-162.113q8 7.888 8 18Q410-134 402.113-126q-7.888 8-18 8Zm120-144Q494-262 486-269.887q-8-7.888-8-18Q478-298 485.887-306q7.888-8 18-8Q514-314 522-306.113q8 7.888 8 18Q530-278 522.113-270q-7.888 8-18 8Zm240 0Q734-262 726-269.887q-8-7.888-8-18Q718-298 725.887-306q7.888-8 18-8Q754-314 762-306.113q8 7.888 8 18Q770-278 762.113-270q-7.888 8-18 8Zm-120 144Q614-118 606-125.887q-8-7.888-8-18Q598-154 605.887-162q7.888-8 18-8Q634-170 642-162.113q8 7.888 8 18Q650-134 642.113-126q-7.888 8-18 8ZM295-410q-75 0-124-53.275T122-593q0-70 48.908-118.57Q219.817-760.141 294-767q28-54 77-86.5T479.574-886q80.329 0 137.378 53.5Q674-779 682.663-695.87 756-692 797-649.743q41 42.257 41 97.743 0 59-41.5 100.5T696-410H295Z"/></svg>