<svg xmlns="http://www.w3.org/2000/svg" height="24" viewBox="0 -960 960 960" width="24"><path d="M260-216.923q-13.308 0-23.192-9.885-9.885-9.884-9.885-23.192t9.885-23.192q9.884-9.885 23.192-9.885t23.192 9.885q9.885 9.884 9.885 23.192t-9.885 23.192q-9.884 9.885-23.192 9.885Zm120 120q-13.308 0-23.192-9.885-9.885-9.884-9.885-23.192t9.885-23.192q9.884-9.885 23.192-9.885t23.192 9.885q9.885 9.884 9.885 23.192t-9.885 23.192q-9.884 9.885-23.192 9.885Zm120-120q-13.308 0-23.192-9.885-9.885-9.884-9.885-23.192t9.885-23.192q9.884-9.885 23.192-9.885t23.192 9.885q9.885 9.884 9.885 23.192t-9.885 23.192q-9.884 9.885-23.192 9.885Zm240 0q-13.308 0-23.192-9.885-9.885-9.884-9.885-23.192t9.885-23.192q9.884-9.885 23.192-9.885t23.192 9.885q9.885 9.884 9.885 23.192t-9.885 23.192q-9.884 9.885-23.192 9.885Zm-120 120q-13.308 0-23.192-9.885-9.885-9.884-9.885-23.192t9.885-23.192q9.884-9.885 23.192-9.885t23.192 9.885q9.885 9.884 9.885 23.192t-9.885 23.192q-9.884 9.885-23.192 9.885ZM300-380q-83.308 0-141.654-58.346Q100-496.692 100-580q0-77.615 52.308-134.231 52.307-56.615 131-65.308 29.692-56.23 81.346-88.346Q416.308-900 480-900q86.154 0 148.039 57.115 61.884 57.116 72.038 142.346 73.615 4.462 116.769 51.231Q860-602.539 860-540q0 66.539-46.731 113.269Q766.539-380 700-380H300Z"/></svg>