<svg xmlns="http://www.w3.org/2000/svg" height="24" viewBox="0 -960 960 960" width="24"><path d="M320.035-306q5.965 0 9.965-4.025t4-9.975v-320q0-5.95-4.035-9.975-4.035-4.025-10-4.025T310-649.975q-4 4.025-4 9.975v320q0 5.95 4.035 9.975 4.035 4.025 10 4.025Zm160-200q5.965 0 9.965-4.025t4-9.975v-120q0-5.95-4.035-9.975-4.035-4.025-10-4.025T470-649.975q-4 4.025-4 9.975v120q0 5.95 4.035 9.975 4.035 4.025 10 4.025Zm160 120q5.965 0 9.965-4.025t4-9.975v-240q0-5.95-4.035-9.975-4.035-4.025-10-4.025T630-649.975q-4 4.025-4 9.975v240q0 5.95 4.035 9.975 4.035 4.025 10 4.025ZM232-172q-26 0-43-17t-17-43v-496q0-26 17-43t43-17h496q26 0 43 17t17 43v496q0 26-17 43t-43 17H232Z"/></svg>