<svg xmlns="http://www.w3.org/2000/svg" height="20" viewBox="0 -960 960 960" width="20"><path d="M508.717-219.196q9.196-1 15.913-8.217 6.718-7.217 6.718-18.174 0-11.717-8.837-19.554-8.837-7.837-20.794-5.837-59.434 8-104.826-26.761-45.391-34.761-54.152-90.935-1-9.478-7.978-16.196-6.978-6.717-17.413-6.717-12.196 0-20.413 8.717-8.218 8.718-5.978 20.674 11 78.239 73.88 126.12 62.88 47.88 143.88 36.88ZM480-87.869q-133.587 0-226.859-93.272Q159.869-274.413 159.869-408q0-98.913 76.413-209.424Q312.696-727.935 480-874.522q170.304 153.587 245.218 263.098Q800.131-501.913 800.131-408q0 133.587-93.272 226.859Q613.587-87.869 480-87.869Z"/></svg>