<svg xmlns="http://www.w3.org/2000/svg" height="24" viewBox="0 -960 960 960" width="24"><path d="M492.696-202.826q14.826-1 25.022-11.157 10.195-10.157 10.195-24.496 0-15.695-10.978-26.174-10.978-10.478-27.239-9.478-44.392 3-83.044-21.935-38.651-24.935-50.086-82.891-2-12.13-11.631-20.826-9.63-8.696-24.022-8.696-16.72 0-27.469 12.196-10.748 12.196-7.183 28.457 17 91.565 79.813 130.282 62.812 38.718 126.622 34.718ZM480-60.782q-145.228 0-242.223-99.507Q140.782-259.797 140.782-408q0-104.522 84.022-227.957Q308.826-759.392 480-904.871q171.174 145.479 255.196 268.914Q819.218-512.522 819.218-408q0 148.203-96.995 247.711Q625.228-60.782 480-60.782Zm.079-106.001q101.095 0 167.116-68.572Q713.217-303.927 713.217-408q0-69.043-58.239-157.934Q596.739-654.826 480-763.826q-116.739 109-174.978 197.892Q246.783-477.043 246.783-408q0 104.073 66.1 172.645 66.101 68.572 167.196 68.572ZM480-482.826Z"/></svg>