<svg xmlns="http://www.w3.org/2000/svg" height="24" viewBox="0 -960 960 960" width="24"><path d="M488-216q8-1 12-5.151t4-10.012q0-6.837-4.781-10.337T487-244q-41 3-93-26.5T330-367q-2-9-5.5-13t-9.5-4q-6 0-10.5 4.5T302-364q15 81 76 116t110 32Zm-8.184 84Q365-132 288.5-211.098 212-290.195 212-408q0-82 66.5-182.5T480-812q135 121 201.5 221.5T748-408q0 117.805-76.684 196.902Q594.632-132 479.816-132Zm.184-28q104 0 172-70.5T720-408q0-73-60.5-165T480-774Q361-665 300.5-573T240-408q0 107 68 177.5T480-160Zm0-312Z"/></svg>