<svg xmlns="http://www.w3.org/2000/svg" height="24" viewBox="0 -960 960 960" width="24"><path d="M793.308-109.615 676.385-226.538q-41.231 31.384-90.77 48.961Q536.077-160 480.769-160q-66.538 0-124.731-25.038-58.192-25.039-101.692-68.539-43.5-43.5-68.539-101.692Q160.769-413.461 160.769-480q0-56.077 17.961-105.231 17.962-49.154 49.347-89.615L109.615-793.308l28.539-28.538 683.692 683.692-28.538 28.539ZM480.769-200q46.769 0 89.116-15.038 42.346-15.039 76.961-41.039L256.077-646.846q-26 35.385-40.654 77.346-14.654 41.962-14.654 89.5 0 117 81.5 198.5t198.5 81.5Zm113.846-421.538v-40h99.231q-41.769-46-96.384-72.231Q542.846-760 480.769-760q-36.769 0-70.654 8.5-33.884 8.5-63.884 25.269L317.461-755q35.847-21.385 76.924-33.193Q435.461-800 480.769-800q68.923 0 131.27 28.461 62.346 28.462 108.73 79.385v-95.538h40.001v166.154H594.615Zm-93.846 49.846-40-40V-680h40v108.308Zm255 255-29.538-29.539q11.769-22 19.654-45 7.884-23 11.653-48.769H798q-4.231 34.308-15.038 65-10.808 30.692-27.193 58.308Z"/></svg>