<svg xmlns="http://www.w3.org/2000/svg" height="24" viewBox="0 -960 960 960" width="24"><path d="M792.154-82.31 673.693-200.77q-41.616 28.692-90.385 44.731-48.769 16.039-102.923 16.039-70.769 0-132.615-26.77-61.846-26.769-107.846-72.768-46-46-72.769-107.846Q140.386-409.231 140.386-480q0-54.539 16.231-103.116t44.923-89.807L82.31-792.154l42.768-42.768 709.844 709.844-42.768 42.768ZM480.385-200q41.385 0 79.308-11.769 37.923-11.77 70.231-32.77L244.539-629.924q-21 32.692-32.577 70.423Q200.385-521.77 200.385-480q0 117 81.5 198.5t198.5 81.5Zm116.922-390.771v-59.999h104.615q-41.384-51-98.692-80.115Q545.923-760 480.385-760q-36.385 0-70.077 8.5-33.693 8.5-63.693 24.885l-43.383-43.384q38.923-23.692 83.461-36.846 44.538-13.154 93.692-13.154 75.461 0 143.383 31.731 67.923 31.731 116.615 89.192v-94.77h59.999v203.075H597.307Zm-86.923 27.924-59.999-59.998V-680h59.999v117.153Zm260 260-43.769-43.768q11.385-22 19.077-45 7.693-23 11.077-48.385h61.23q-4.616 38.154-16.77 72.499-12.153 34.346-30.845 64.654Z"/></svg>