<svg xmlns="http://www.w3.org/2000/svg" height="20" viewBox="0 -960 960 960" width="20"><path d="M777.087-78.956 666.261-190.543q-41.957 26.956-89.272 40.815-47.315 13.859-96.75 13.859-71.435 0-133.989-27.098T237-236.761q-46.696-46.695-73.794-109.25Q136.109-408.565 136.109-480q0-49.435 13.978-96.75t40.695-89.272L79.956-777.087l53.392-53.392 697.131 698.131-53.392 53.392ZM480.239-218.87q33.044 0 64.826-8.76 31.783-8.761 61.065-24.283L251.913-605.891q-15.522 29.282-24.163 61.065-8.641 31.783-8.641 64.826 0 108.804 76.163 184.967 76.163 76.163 184.967 76.163ZM575.522-576v-76.065h100.304q-37.283-43.131-87.87-66.098-50.586-22.967-107.717-22.967-31.609 0-62.076 8.163t-58.793 22.728l-60.848-61.848q41.239-25.761 87.358-38.902 46.12-13.142 94.359-13.142 78.478 0 148.218 33.022 69.739 33.022 117.934 95.544v-126.413h75.587V-576H575.522Zm-57.609 23.543L444-626.37V-672h73.913v119.543Zm254.174 254.174-61.609-60.848q15.805-27.087 23.468-58.054 7.663-30.967 7.424-62.815h82.761q.239 49-11.022 96.12-11.261 47.119-41.022 85.597Z"/></svg>