<svg xmlns="http://www.w3.org/2000/svg" height="24" viewBox="0 -960 960 960" width="24"><path d="M760-146q-35 0-61.5-22.5T667-226H440q-56 0-95-39t-39-95q0-56 39-95t95-39h80q43.725 0 74.862-31.195 31.138-31.194 31.138-75Q626-644 594.862-675 563.725-706 520-706H293q-5 35-31.5 57.5T200-626q-39.167 0-66.583-27.382Q106-680.765 106-719.882 106-759 133.417-786.5 160.833-814 200-814q35 0 61.5 22.5T293-734h227q56 0 95 39t39 95q0 56-39 95t-95 39h-80q-43.725 0-74.862 31.195-31.138 31.194-31.138 75Q334-316 365.138-285q31.137 31 74.862 31h227q5-35 31.5-57.5T760-334q39.167 0 66.583 27.382Q854-279.235 854-240.118 854-201 826.583-173.5 799.167-146 760-146ZM200-654q27 0 46.5-19.5T266-720q0-27-19.5-46.5T200-786q-27 0-46.5 19.5T134-720q0 27 19.5 46.5T200-654Z"/></svg>