<svg xmlns="http://www.w3.org/2000/svg" height="20" viewBox="0 -960 960 960" width="20"><path d="M771.826-84.978 641.022-215.304 480-57.282 54.282-480l161.022-161.022L87.804-768l54.392-53.391L825.218-138.37l-53.392 53.392ZM583.37-274.196 274.196-583.37 172.065-480 480-172.065l103.37-102.131Zm164.435-47.891-58.892-57.891L787.935-480 480-787.935l-100.022 99.022-57.891-58.892L480-905.718 905.718-480 747.805-322.087Zm-212.74-212.978ZM429.283-429.283Zm-89.218 47.913v-173.739h68.413l78.218 78.218h-68.413v95.521h-78.218Zm261.479-86.978L649.196-516 521.782-643.652v83.282h-12.26l92.022 92.022Z"/></svg>