<svg xmlns="http://www.w3.org/2000/svg" height="20" viewBox="0 -960 960 960" width="20"><path d="M347-116.413q-34.239 0-68.12-8.761Q245-133.935 213-152.696q-17.761 10.761-41.141 19.403-23.381 8.641-44.381 11.641-20.913 2.478-35.989-6.239-15.076-8.718-15.076-33.631 0-16.717 11.74-31.032 11.738-14.316 30.934-20.033 18-5.239 35.239-13.739 17.239-8.5 36-21.261 8.717-6.478 22.174-6.359 13.457.12 23.413 6.598 27 17.761 55.402 28.261t55.685 10.5q26.043 0 55.946-9.5 29.902-9.5 56.141-28.5 9.717-6.478 21.793-6.978 12.077-.5 21.794 5.978 28 20 56.141 29.5 28.142 9.5 56.185 9.5 27.283 0 53.685-10.12 26.402-10.119 57.402-29.88 9.956-6.478 22.913-5.859 12.957.62 22.913 7.098 19.044 13.044 35.065 21.044 16.022 8 32.979 13.239 19.434 5.478 31.532 19.174 12.098 13.695 12.098 32.369 0 23.435-15.457 33.772-15.456 10.337-36.652 6.337-22.478-5-42.598-12.761-20.119-7.761-39.88-18.522-32.239 18.522-66.5 27.403-34.261 8.88-67.5 8.88-32.761 0-67.38-8.88Q513-134.174 481-152.696q-29.239 18.522-64.12 27.403-34.88 8.88-69.88 8.88ZM347-298q-33.761-.239-69.5-10T213-334.522q-16.239 8.761-34.098 15.761-17.859 7-35.098 12-25.956 7-46.674-12.413-20.717-19.413-20.717-49.13v-15.283q0-98.717 37.859-183.435 37.858-84.717 103.337-146.696 65.478-61.978 153.576-97.837Q459.283-847.413 560-847.413h21q10 0 21.239 1 34.152 2.478 48.989 29.772 14.837 27.293 3.12 67.924-4.761 13.521-6.761 26.684t-2 25.446q0 52.565 35.63 88.076Q716.848-573 769.413-573H838q18.435 0 32.011 13.576 13.576 13.576 13.576 32.011 0 18.435-13.576 32.13-13.576 13.696-32.011 13.696h-68.587q-91.435 0-153.217-61.783-61.783-61.782-61.783-153.217 0-12.804 1.141-24.75 1.142-11.946 4.663-24.75-68.652 18.957-111.641 74.163-42.989 55.207-42.989 128.337 0 34.522 10.522 65.206 10.521 30.685 28.848 56.533 2.282-1.761 5.684-3.283 3.402-1.521 6.685-4.043 8.717-6.478 22.174-6.359 13.457.12 23.413 6.598 28.239 19 58.022 28.761 29.782 9.761 54.065 9.761 24.283 0 53.685-10.5t57.402-28.261q9.956-6.478 22.913-6.478t22.913 6.478q16.283 10.283 32.804 19.283 16.522 9 34.044 14 20.391 5.956 32.609 19.913 12.217 13.956 12.217 32.63 0 22.391-15.554 33.75-15.555 11.359-36.468 7.12-21.761-5-42.522-12.761Q768.283-323 749-334.522 716.761-316 683.88-307 651-298 615-298q-34.761 0-71.261-10.5-36.5-10.5-62.739-26.022Q450-317 416-308t-69 10Z"/></svg>