<svg xmlns="http://www.w3.org/2000/svg" height="20" viewBox="0 -960 960 960" width="20"><path d="M347-111.521q-34.565 0-68.283-8.435Q245-128.391 213-146.826q-17.435 10.435-40.652 18.587-23.218 8.152-44.218 11.152-23.521 3.131-40.065-6.565-16.544-9.696-16.544-37.159 0-17.754 12.066-33.863 12.065-16.109 32.891-22.805 18-5.565 35.508-14.136 17.508-8.572 36.057-20.864 9.696-7.13 24.457-6.848 14.761.283 26.022 7.414 27 17.434 54.731 27.934 27.732 10.5 53.747 10.5 24.739 0 53.776-9.731 29.037-9.732 55.702-28.269 10.696-7.13 24.239-7.63 13.544-.5 24.24 6.63 28.013 19.976 55.662 29.488 27.649 9.512 54.367 9.512 26.318 0 51.905-10.282 25.587-10.283 56.587-29.718 11.261-7.13 25.522-6.348 14.261.783 25.522 7.914 17.739 11.739 33.083 19.852 15.343 8.114 33.656 13.452 21.391 6.13 34.305 21.457 12.913 15.326 12.913 36.282 0 25.756-16.761 37.052-16.761 11.297-39.588 7.297-23.13-5-43.413-12.435-20.282-7.435-39.717-17.87-32.565 17.87-66.5 26.587-33.935 8.718-67.5 8.718-32.435 0-67.217-8.718Q513-128.956 481-146.826q-29.565 17.87-64.283 26.587Q382-111.521 347-111.521ZM347-298q-33.435-.565-69.5-10T213-333.87q-16.565 8.435-34.913 15.435-18.348 7-35.913 12-27.261 7-48.957-15.022t-21.696-52.717v-14.305q0-99.695 38.348-185.16 38.348-85.464 104.479-148.424 66.13-62.96 155.043-99.21 88.913-36.25 190.609-36.25h21q10 0 21.565 1 37.23 3.339 53.137 32.974 15.907 29.636 3.211 73.853-3.934 12.87-6.184 24.891-2.25 12.022-2.25 23.326 0 50.782 31.498 82.13t82.093 31.348h74.243q20.078 0 35.122 15.043 15.044 15.044 15.044 35.435 0 20.392-15.044 35.718-15.044 15.326-35.03 15.326h-73.884q-93.227 0-154.113-60.85-60.887-60.851-60.887-154.026 0-11.297.652-21.123.653-9.826 3.522-21-63.884 19.827-103.55 72.678t-39.666 122.189q0 34.002 9.847 62.701 9.846 28.7 25.935 51.996 1.304-1.435 3.891-2.404 2.587-.97 4.891-2.639 9.696-7.131 24.457-6.848 14.761.282 26.022 7.413 28.565 19 57.584 28.435 29.018 9.434 51.894 9.434 23.136 0 51.807-10.5 28.671-10.5 56.671-27.934 11.501-7.131 25.642-7.131t25.402 7.131q15.304 9.304 31.223 18.504 15.919 9.2 32.69 13.8 23.74 7.184 36.892 22.368 13.152 15.184 13.152 36.372 0 25.652-17.674 37.5-17.675 11.848-41.196 7.283-21.835-5-42.07-12.435Q767.304-323 749-333.87 716.435-316 683.717-307 651-298 615-298q-34.435 0-70.935-10.5T481-333.87q-31 16.87-65 25.842-34 8.972-69 10.028ZM238.522-438.957q26.174 17.739 50.213 27.521 24.04 9.783 50.214 10.913 2.572 0 4.594-.282 2.022-.283 3.761-.718-17.478-29.347-27.631-66.086-10.152-36.739-10.152-80.87 0-41.086 9.726-78.317 9.727-37.231 29.013-70.377-64.912 39.174-111.521 107.086-46.608 67.913-60.999 160.086h.565q3.163-2.435 5.771-4.196 2.609-1.76 5.402-4.195 9.696-8.131 24.739-7.913 15.044.217 26.305 7.348Zm25.956-110.173Z"/></svg>