<svg xmlns="http://www.w3.org/2000/svg" height="20" viewBox="0 -960 960 960" width="20"><path d="M347-116.413q-34.239 0-68.12-8.761Q245-133.935 213-152.696q-17.761 10.761-41.141 19.403-23.381 8.641-44.381 11.641-20.913 2.478-35.989-6.239-15.076-8.718-15.076-33.572 0-16.776 11.74-31.091 11.738-14.316 30.934-20.033 18-5.239 35.182-13.811 17.181-8.571 36.057-21.189 8.717-6.478 22.174-6.359 13.457.12 23.413 6.598 27 17.761 55.547 28.261 28.546 10.5 55.54 10.5 26.043 0 55.896-9.732 29.852-9.731 56.191-28.268 9.717-6.478 21.793-6.978 12.077-.5 21.794 5.978 28.014 19.976 56.151 29.488 28.138 9.512 56.161 9.512 27.297 0 53.699-10.12 26.402-10.119 57.402-29.88 9.956-6.478 22.913-5.859 12.957.62 22.913 7.098 19.044 13.044 35.039 21.157 15.996 8.114 33.005 13.126 19.434 5.478 31.532 19.174 12.098 13.695 12.098 32.369 0 23.799-15.457 33.954-15.456 10.155-36.652 6.155-22.478-5-42.598-12.761-20.119-7.761-39.88-18.522-32.239 18.522-66.5 27.403-34.261 8.88-67.5 8.88-32.761 0-67.38-8.88Q513-134.174 481-152.696q-29.239 18.522-64.12 27.403-34.88 8.88-69.88 8.88ZM347-298q-33.761-.239-69.5-10T213-334.522q-16.239 8.761-34.098 15.761-17.859 7-35.098 12-25.956 7-46.674-12.413-20.717-19.413-20.717-49.13v-15.283q0-98.717 37.859-183.203 37.858-84.486 103.337-146.794 65.478-62.307 153.576-98.068Q459.283-847.413 560-847.413h21q10 0 21.239 1 34.295 2.686 49.061 29.876 14.765 27.189 3.048 67.82-4.261 13.521-6.511 26.684t-2.25 25.446q0 52.738 35.412 88.162Q716.41-573 768.961-573h69.352q18.122 0 31.698 13.576t13.576 32.011q0 18.435-13.576 32.13-13.576 13.696-31.606 13.696h-68.992q-91.271 0-153.135-61.829-61.865-61.829-61.865-153.048 0-12.927 1.141-24.873 1.142-11.946 4.663-24.75-68.449 18.523-111.54 73.82-43.09 55.297-43.09 128.547 0 34.655 10.499 65.148 10.499 30.493 28.871 56.724 2.282-1.761 5.684-3.383 3.402-1.621 6.685-3.943 8.717-6.478 22.174-6.359 13.457.12 23.413 6.598 28.239 19 58.236 28.761 29.997 9.761 53.851 9.761 24.114 0 53.6-10.5 29.487-10.5 57.487-28.261 10.196-6.478 23.033-6.478 12.837 0 22.793 6.478 16.283 10.283 32.854 19.483 16.571 9.2 33.994 13.8 20.479 5.879 32.653 19.759 12.173 13.879 12.173 32.784 0 22.391-15.554 33.75-15.555 11.359-36.468 7.12-22.161-5-42.722-12.761Q768.283-323 749-334.522 716.761-316 683.88-307 651-298 615-298q-34.761 0-71.261-10.5-36.5-10.5-62.739-26.022-31 17.522-65 26.494-34 8.972-69 10.028ZM235.913-429.174q27.804 19.043 53.312 28.663 25.507 9.62 53.311 10.098 3.877 0 7.04-.12 3.163-.119 6.206-.88-20.086-32.609-30.728-70.652-10.641-38.044-10.641-81.522 0-45.652 12.172-86.47 12.172-40.819 35.371-76.247-75.347 40.804-127.662 115.402-52.316 74.598-64.75 175.902h.239q6.097-3.739 10.663-6.968 4.565-3.228 9.641-6.967 8.717-7.478 22.293-7.098 13.577.381 23.533 6.859Zm31.174-119.304Z"/></svg>