<svg xmlns="http://www.w3.org/2000/svg" height="24" viewBox="0 -960 960 960" width="24"><path d="M733.846-309.231q-68.923-1.538-118.923-44.615-50-43.077-60.154-115.385H433.462l-24.154-40h145.461q3.462-32 22.346-67 18.885-35 50.577-54.538H339.539l-24.154-40.001h329.692L575.692-860H449.231v-40H604l83.769 229.23h46.077q76.847 0 128.423 52.347 51.577 52.346 51.577 129.192 0 74.7-52.65 127.35-52.65 52.65-127.35 52.65Zm.091-40q58.371 0 99.14-40.833 40.769-40.834 40.769-99.167 0-60-40-100.769-40-40.769-100-40.769-9.461 0-17.269 1.538-7.807 1.539-14.192 3.077l41.308 110.846-37.539 13.923-39.539-110.384Q632.769-594 613.308-559.231q-19.462 34.769-19.462 70 0 58.333 40.86 99.167 40.86 40.833 99.231 40.833ZM310.86-58.461q-41.629 0-70.86-29.167t-29.231-70.834q0-6.153.769-10.769.769-4.615 2.308-10.769H50.769v-40h181.015q14.216-17.308 34.908-27.885 20.692-10.577 44.222-10.577 21.009 0 41.701 8.846 20.693 8.847 37.154 29.616h121v-100h-460v-40h80v-140h-80v-40H299.23l104.615 180h146.923v180H407.692q1.539 6.154 2.308 10.769.769 4.616.769 10.769 0 41.667-29.14 70.834T310.86-58.461ZM170.769-360h187l-80.462-140H170.769v140Zm140 261.538q24.692 0 42.346-17.653 17.654-17.654 17.654-42.347 0-24.692-17.654-42.346-17.654-17.653-42.346-17.653-24.692 0-42.346 17.653-17.654 17.654-17.654 42.346 0 24.693 17.654 42.347 17.654 17.653 42.346 17.653Zm-30-171.538Z"/></svg>