<svg xmlns="http://www.w3.org/2000/svg" height="20" viewBox="0 -960 960 960" width="20"><path d="M136-280v-400h688v400H136Zm172-100h32v-84h84v-32h-84v-84h-32v84h-84v32h84v84Zm267.909-12q16.63 0 28.36-11.64Q616-415.28 616-431.91q0-16.629-11.64-28.359Q592.719-472 576.091-472q-16.63 0-28.36 11.64Q536-448.72 536-432.09q0 16.629 11.64 28.359Q559.281-392 575.909-392Zm120-96q16.63 0 28.36-11.64Q736-511.28 736-527.909q0-16.63-11.64-28.36Q712.719-568 696.091-568q-16.63 0-28.36 11.64Q656-544.719 656-528.091q0 16.63 11.64 28.36Q679.281-488 695.909-488Z"/></svg>