<svg xmlns="http://www.w3.org/2000/svg" height="20" viewBox="0 -960 960 960" width="20"><path d="M697-68q-74 0-114.5-47T525-215q-15.062-49.333-32.531-81.667Q475-329 429-353q-62-31-101.5-99T288-596q0-119 84-202.5T575-882q119 0 203 90.225T862-572H744q0-80-49.342-136t-119.5-56Q505-764 455.5-715.112 406-666.225 406-596q0 49 26 89t72 64q59 30 81 66.5t45 107.477Q646-220 662.25-203q16.25 17 32.75 17 22 0 35.5-19t13.5-53h118q0 90-48.256 140Q765.487-68 697-68ZM226-261q-64-72-96-158T98-595q0-86 32-172.5T226-926l80 83q-47 56-68.5 120.5T216-595q0 62 22.5 128T308-345l-82 84Zm349-238q-40 0-68-28t-28-68q0-40 28-68t68-28q40 0 68 28t28 68q0 40-28 68t-68 28Z"/></svg>