<svg xmlns="http://www.w3.org/2000/svg" height="20" viewBox="0 -960 960 960" width="20"><path d="M186.74-397.695q4.304 16.652 10.978 32.869 6.673 16.217 16.717 31.999 9.695 20.218 7.848 41.088-1.848 20.869-16.805 35.826-15.522 15.522-35.044 13.174-19.522-2.348-29.783-17.739-20.304-30.304-33.456-64.609-13.152-34.304-21.152-70.608-3.566-18.522 9.326-33.414Q108.26-444 128.348-444q20.087 0 36.109 13.109 16.022 13.109 22.283 33.196Zm27.695-229.478Q204.391-612.391 198-595.391q-6.391 17-10.695 33.086-6.261 21.087-22.566 33.696Q148.435-516 128.348-516q-20.088 0-32.98-15.739-12.89-15.74-9.325-34.262 8-35.739 20.586-68.13 12.587-32.391 32.326-63.26 10.261-17.522 30.631-19.87 20.37-2.348 35.892 13.174 14.957 14.957 17.305 35.826 2.347 20.87-8.348 41.088Zm118.392 412.738q14.782 10.044 31.782 16.435 17 6.391 33.651 10.695 21.653 6.826 33.979 23.131 12.326 16.304 12.326 36.392 0 20.087-15.456 33.261-15.457 13.174-34.544 9.044-35.739-8-69.544-20.87-33.804-12.869-64.108-33.174-16.957-10.261-18.74-30.63-1.782-20.37 13.74-35.327 14.391-14.957 35.544-17.305 21.152-2.347 41.37 8.348Zm65.433-559.956q-17.217 4.304-33.716 11.261-16.5 6.956-32.282 17-19.653 10.26-40.24 8.13-20.587-2.13-35.544-17.087-14.957-15.522-13.174-35.609 1.783-20.088 18.305-30.914 29.739-20.304 64.043-33.456 34.304-13.152 70.043-20.587 18.522-4.131 33.696 9.326t15.174 33.544q0 20.087-13.109 36.109-13.108 16.022-33.196 22.283Zm81.175 433.609q-57.914 0-98.284-40.652-40.369-40.653-40.369-98.566 0-57.913 40.369-98.566 40.37-40.652 98.284-40.652 57.913 0 98.566 40.652 40.652 40.653 40.652 98.566 0 57.913-40.652 98.566-40.653 40.652-98.566 40.652Zm147.738 126.347q20.218-11.261 40.805-8.63 20.587 2.63 35.544 17.587 14.957 14.957 13.174 35.327-1.783 20.369-18.739 31.196-30.305 20.304-63.544 33.173-33.239 12.87-68.978 20.87-18.522 4.13-33.696-9.326-15.174-13.457-15.174-33.544 0-20.088 12.326-35.827 12.327-15.739 33.979-22.565 16.087-4.305 32.804-11.261 16.717-6.956 31.499-17ZM562.87-773.826q-20.652-6.261-33.479-22.565-12.826-16.305-12.826-36.392 0-20.087 15.457-33.261 15.457-13.174 34.544-9.044 35.174 8 68.63 20.587 33.456 12.587 63.761 32.891 15.956 10.826 18.022 30.914 2.065 20.087-13.457 35.044-14.392 14.956-35.261 16.804-20.87 1.848-40.523-7.848-15.217-10.043-31.716-16.434-16.5-6.391-33.152-10.696ZM773.26-398.26q5.696-20.653 22.001-33.762 16.304-13.108 36.391-13.108 20.088 0 32.979 14.891 12.892 14.891 9.326 33.413-8 36.305-20.587 70.609-12.586 34.304-32.891 65.174-10.261 15.956-30.348 18.022-20.087 2.065-35.609-13.457-14.957-14.957-16.805-35.827-1.847-20.869 7.848-41.087 10.044-15.217 16.717-31.999 6.674-16.783 10.978-32.869ZM745-628.869q-10.13-19.652-7.783-40.24 2.348-20.587 17.305-35.543 15.522-15.522 35.327-13.457 19.804 2.065 30.63 19.587 19.739 29.739 32.326 62.695 12.587 32.957 20.587 68.696 4.131 18.522-8.761 34.261-12.891 15.74-32.979 15.74-20.087 0-36.391-12.609-16.305-12.609-22.566-34.262-4.304-16.651-10.978-33.369-6.674-16.717-16.717-31.499Z"/></svg>