<svg xmlns="http://www.w3.org/2000/svg" height="24" viewBox="0 -960 960 960" width="24"><path d="M180.74-388.695q4.304 15.652 9.978 29.869 5.673 14.217 12.717 26.999 10.695 21.218 7.848 43.588-2.848 22.369-17.805 37.326-15.522 15.522-36.544 14.174-21.022-1.348-32.283-18.739-19.304-30.304-32.956-62.609-13.652-32.304-21.652-68.608-4.566-20.522 9.326-36.914Q93.26-440 115.348-440q22.087 0 40.109 14.109 18.022 14.109 25.283 37.196Zm22.695-239.478q-7.044 12.782-12.435 27.282-5.391 14.5-9.695 29.586-7.261 23.087-25.566 37.196Q137.435-520 115.348-520q-22.088 0-35.98-16.239-13.89-16.24-9.325-36.762 8-36.739 21.586-69.63 13.587-32.891 32.326-61.76 11.261-17.522 32.631-18.87 21.37-1.348 36.892 14.174 14.957 14.957 17.805 37.326 2.847 22.37-7.848 43.588Zm127.392 422.738q13.782 8.044 28.282 13.935t29.151 10.195q22.653 7.826 36.479 25.631 13.826 17.804 13.826 39.892 0 22.087-15.956 35.761-15.957 13.674-37.044 9.544-34.739-8-67.544-20.87-32.804-12.869-63.108-32.174-17.957-11.261-19.74-33.13-1.782-21.87 13.74-37.827 15.391-15.957 38.044-18.805 22.652-2.847 43.87 7.848Zm59.433-574.956q-15.217 4.304-29.216 10.261-14 5.956-27.782 14-21.653 11.26-44.24 8.63-22.587-2.63-38.544-18.587-15.957-16.522-14.674-37.609 1.283-21.088 19.805-32.914 30.739-19.304 64.543-32.956 33.804-13.652 69.543-21.087 19.522-4.131 35.196 9.826t15.674 36.044q0 22.087-14.109 39.609-14.108 17.522-36.196 24.783Zm89.175 439.609q-57.914 0-98.284-40.652-40.369-40.653-40.369-98.566 0-57.913 40.369-98.566 40.37-40.652 98.284-40.652 57.913 0 98.566 40.652 40.652 40.653 40.652 98.566 0 57.913-40.652 98.566-40.653 40.652-98.566 40.652Zm147.738 136.347q21.218-11.261 43.805-8.63 22.587 2.63 38.544 18.587 15.957 15.957 14.674 37.827-1.283 21.869-19.239 32.696-30.305 19.304-64.044 32.673-33.739 13.37-69.478 21.37-20.522 4.13-36.696-9.826-16.174-13.957-16.174-36.044 0-22.088 14.326-39.327 14.327-17.239 36.979-25.065 15.087-4.305 29.304-10.261 14.217-5.956 27.999-14ZM570.87-779.826q-22.652-7.261-36.479-25.065-13.826-17.805-13.826-39.892 0-22.087 15.957-35.761 15.957-13.674 36.044-9.544 35.174 8 68.63 21.087 33.456 13.087 63.761 32.391 17.956 11.826 19.522 32.914 1.565 21.087-13.957 37.044-15.392 15.956-37.761 18.804-22.37 2.848-44.023-7.848-14.217-8.043-28.716-13.934-14.5-5.891-29.152-10.196ZM779.26-390.26q6.696-22.653 25.001-36.762 18.304-14.108 40.391-14.108 22.088 0 35.979 16.391 13.892 16.391 9.326 36.913-8 36.305-22.087 69.609-14.086 33.304-32.391 62.174-11.261 16.956-32.348 18.522-21.087 1.565-36.609-13.957-14.957-14.957-17.805-37.827-2.847-22.869 7.848-44.087 7.044-13.217 12.717-27.499 5.674-14.283 9.978-29.369ZM756-629.869q-10.13-20.652-7.283-42.74 2.848-22.087 17.805-37.043 15.522-15.522 36.327-13.957 20.804 1.565 32.63 19.087 19.739 29.739 33.326 62.195 13.587 32.457 21.587 68.196 4.131 20.522-9.761 36.761-13.891 16.24-35.979 16.24-22.087 0-40.391-14.109-18.305-14.109-25.566-37.762-4.304-15.651-9.978-29.869-5.674-14.217-12.717-26.999Z"/></svg>