<svg xmlns="http://www.w3.org/2000/svg" height="20" viewBox="0 -960 960 960" width="20"><path d="M360-584h240v-96q0-50-35-85t-85-35q-50 0-85 35t-35 85v96Zm107.923 448H288.615q-23.354 0-39.984-16.631Q232-169.261 232-192.615v-334.77q0-23.354 16.631-39.984Q265.261-584 288.615-584H328v-96q0-63.526 44.303-107.763T480.226-832q63.62 0 107.697 44.237Q632-743.526 632-680v96h39.385q23.354 0 39.984 16.631Q728-550.739 728-527.385V-465q-16.846-8.462-34.692-11.039t-37.462-2.577q-92.622 0-157.926 65.305-65.305 65.304-65.305 158.181 0 32.084 8.923 62.568 8.923 30.485 26.385 56.562Zm188.466 32.616q-63.62 0-107.697-44.303-44.077-44.304-44.077-107.924 0-63.62 44.303-107.697 44.303-44.077 107.924-44.077 63.62 0 107.697 44.303 44.077 44.304 44.077 107.924 0 63.62-44.303 107.697-44.304 44.077-107.924 44.077ZM676-263.522v-63.863q0-7.753-5.815-13.569-5.816-5.815-13.57-5.815-7.753 0-13.569 5.815-5.815 5.816-5.815 13.569v69.308q0 6.127 2.231 10.871 2.23 4.745 6.552 9.066l51.678 51.679q5.826 5.461 13.721 5.846 7.895.384 14.126-5.846 6.23-6.231 6.23-13.742 0-7.51-6.23-14.105L676-263.522Z"/></svg>