<svg xmlns="http://www.w3.org/2000/svg" height="20" viewBox="0 -960 960 960" width="20"><path d="M360-624h240v-96q0-50-35-85t-85-35q-50 0-85 35t-35 85v96Zm91 528H264q-29.7 0-50.85-21.15Q192-138.3 192-168v-384q0-29.7 21.15-50.85Q234.3-624 264-624h24v-96q0-79.68 56.226-135.84t136-56.16Q560-912 616-855.84T672-720v96h24q29.7 0 50.85 21.15Q768-581.7 768-552v67q-23-10-47-14.5t-49-4.5q-110.314 0-187.157 76.843Q408-350.314 408-240q0 38.492 12 74.746T451-96Zm220.774 48Q592-48 536-104.226t-56-136Q480-320 536.226-376t136-56Q752-432 808-375.774t56 136Q864-160 807.774-104t-136 56ZM696-250v-62q0-9.6-7.2-16.8-7.2-7.2-16.8-7.2-9.6 0-16.8 7.2-7.2 7.2-7.2 16.8v67q0 8 3 14.5t8.091 11.591L710-168q7.364 7 17.182 7Q737-161 744-168q7-7 7-16.818 0-9.818-7-17.182l-48-48Z"/></svg>