<svg xmlns="http://www.w3.org/2000/svg" height="20" viewBox="0 -960 960 960" width="20"><path d="M360-572h240v-96q0-50-35-85t-85-35q-50 0-85 35t-35 85v96Zm113 424H296q-21.45 0-36.725-15.275Q244-178.55 244-200v-320q0-21.45 15.275-36.725Q274.55-572 296-572h44v-96q0-58.68 40.726-99.34 40.726-40.66 99.5-40.66t99.274 40.66Q620-726.68 620-668v96h44q21.45 0 36.725 15.275Q716-541.45 716-520v61q-15-8-31-10t-34-2q-87.314 0-149.157 61.843Q440-347.314 440-259.669q0 30.161 8 58.915Q456-172 473-148Zm178.774 28Q593-120 552.5-160.726t-40.5-99.5Q512-319 552.726-359.5t99.5-40.5Q711-400 751.5-359.274t40.5 99.5Q792-201 751.274-160.5t-99.5 40.5ZM670-267.579V-332q0-7.2-5.4-12.6-5.4-5.4-12.6-5.4-7.2 0-12.6 5.4-5.4 5.4-5.4 12.6v70q0 5.565 2 9.783 2 4.217 6.091 8.308L694-192q5.364 5 12.682 5.5Q714-186 720-192t6-12.818q0-6.818-6-13.182l-50-49.579Z"/></svg>