<svg xmlns="http://www.w3.org/2000/svg" height="20" viewBox="0 -960 960 960" width="20"><path d="M660-150q-90-9-177.5-54.5T320.5-325Q246-400 202-486.5T148-663q-2-21.429 12.286-37.214Q174.571-716 196-716h54q20 0 34 11.5t21 31.5l16 48q3 14-1.5 28T305-575l-85 77q26 48 55 87.5t61.453 73.484Q371-302 412.5-272q41.5 30 92.5 56l88-87q8.579-10 17.789-12.5Q620-318 634-315l37 9q20 4 31.5 19.5T714-250v52q0 21.429-16.286 35.714Q681.429-148 660-150ZM212-518l84-76q5-4 6.5-11t-.5-13l-18.16-62q-2-8-7-12t-13-4H183q-6 0-10 4t-4 10q0 38 12.5 79.5T212-518Zm316 311q37.1 18.243 80.55 26.122Q652-173 680-171q6 0 10-4t4-10v-80q0-8-4-13t-12-7l-49-11q-6-2-10.5-.5T609-290l-81 83ZM212-518Zm316 311Zm117.922-273Q577-480 528.5-528.578q-48.5-48.577-48.5-117.5Q480-715 528.578-763.5q48.577-48.5 117.5-48.5Q715-812 763.5-763.422q48.5 48.577 48.5 117.5Q812-577 763.422-528.5q-48.577 48.5-117.5 48.5Zm.078-76q7.2 0 12.6-5.4 5.4-5.4 5.4-12.6v-38q0-7.2-5.4-12.6-5.4-5.4-12.6-5.4-7.2 0-12.6 5.4-5.4 5.4-5.4 12.6v38q0 7.2 5.4 12.6 5.4 5.4 12.6 5.4Zm0-128q9.6 0 16.8-7.2 7.2-7.2 7.2-16.8 0-9.6-7.2-16.8-7.2-7.2-16.8-7.2-9.6 0-16.8 7.2-7.2 7.2-7.2 16.8 0 9.6 7.2 16.8 7.2 7.2 16.8 7.2Z"/></svg>