<svg xmlns="http://www.w3.org/2000/svg" height="24" viewBox="0 -960 960 960" width="24"><path d="M480-60.782q-87.522 0-163.906-32.96-76.385-32.96-132.888-89.464-56.504-56.503-89.464-132.888Q60.782-392.478 60.782-480t32.96-163.906q32.96-76.385 89.464-132.888 56.503-56.504 132.888-89.464 76.384-32.96 163.906-32.96t163.906 32.96q76.385 32.96 132.888 89.464 56.504 56.503 89.464 132.888 32.96 76.384 32.96 163.906t-32.96 163.906q-32.96 76.385-89.464 132.888-56.503 56.504-132.888 89.464Q567.522-60.782 480-60.782ZM451.521-591.52v267.564q0 18.682 12.8 31.319Q477.121-280 496.043-280q18.682 0 31.319-12.8Q540-305.6 540-324.522v-302.477q0-22.088-15.457-37.544Q509.087-680 486.999-680h-71.521q-18.682 0-31.319 12.64-12.638 12.641-12.638 31.327 0 18.685 12.8 31.599 12.8 12.913 31.722 12.913h35.478Z"/></svg>