<svg xmlns="http://www.w3.org/2000/svg" height="24" viewBox="0 -960 960 960" width="24"><path d="M228.761-191.63 60.869-359.522l62.218-63.739 61.369 61.37v-275.957q0-70.304 49.75-120.174 49.75-49.869 120.055-49.869 70.304 0 120.054 49.869 49.75 49.87 49.75 120.174v276.413q0 33.478 23.979 57.098 23.978 23.62 57.456 23.62t57.457-23.62q23.978-23.62 23.978-57.098v-276.674l-61.37 61.609-61.978-63.978 167.652-167.653 167.892 167.892-62.218 63.739-61.369-61.609v276.674q0 70.305-49.87 119.935-49.869 49.631-120.174 49.631-70.304 0-120.174-49.631-49.87-49.63-49.87-119.935v-276.413q0-33.478-23.858-57.456-23.859-23.979-57.337-23.979-33.479 0-57.337 23.979-23.859 23.978-23.859 57.456v275.957l61.37-61.37 61.978 63.978L228.761-191.63Z"/></svg>