<svg xmlns="http://www.w3.org/2000/svg" height="24" viewBox="0 -960 960 960" width="24"><path d="M29.674-678.565q0-104.544 73.608-178.153 73.609-73.608 178.153-73.608v91.761q-66 0-113 47t-47 113H29.674Zm173.478 477.13q-93.391-93.391-93.87-224.38-.478-130.989 92.674-224.142l78.609-79.369 14.87 14.869q29 29 28.522 70.261-.479 41.261-29.24 70.022l-48.695 48.696 63.76 64.761q24.566 24.565 24.566 59.293 0 34.728-24.566 59.293l-6.695 6.696 46.108 46.109 6.696-6.696q43.761-43.761 43.761-105.022 0-61.26-44.522-105.782l-18.413-18.413 3.348-3.348q26.957-26.957 38.555-60.772 11.598-33.815 9.119-69.011l203.218-202.978 61.065 61.065-219.348 219.348 38.891 38.892 272.587-272.066 60.305 60.305L532.63-480.978l38.413 38.652 244.109-244.109 61.305 61.065-244.348 244.109L671-342.37l191-191 61.065 61.066-272.108 271.348q-93.153 93.152-223.903 92.913-130.75-.239-223.902-93.392ZM678.565-29.674v-91.761q66 0 113-47t47-113h91.761q0 104.544-73.608 178.153-73.609 73.608-178.153 73.608Z"/></svg>