<svg xmlns="http://www.w3.org/2000/svg" height="20" viewBox="0 -960 960 960" width="20"><path d="M70.434-116.303q-16.996 0-28.476-11.703-11.48-11.702-11.48-28.608 0-16.907 11.762-28.537Q54.004-196.782 71-196.782h818.566q16.996 0 28.476 11.42 11.481 11.42 11.481 28.327 0 16.906-11.763 28.819-11.764 11.913-28.759 11.913H70.434Zm109.034-128.479q-42.99 0-72.838-27.348-29.848-27.348-29.848-70.653V-516H314l62 113q5 8.565 13.833 13.783Q398.665-384 408.565-384q8.871 0 16.936-4.783 8.064-4.782 13.064-13.347L554-584.435l33.609 42.087q8.695 11.826 21.521 19.087Q621.957-516 636.913-516h246.305v173.217q0 43.305-29.912 70.653-29.912 27.348-72.902 27.348H179.468ZM410-490.435 371-563q-6-11.565-17-18.283Q343-588 329-588H76.782v-149.072q0-43.45 29.912-70.798t72.902-27.348h600.936q42.99 0 72.838 27.348 29.848 27.348 29.848 70.798V-588H642l-61-82q-5-6.435-13.095-9.652-8.095-3.218-17-3.218t-16.97 4.218q-8.065 4.217-13.065 12.782L410-490.435Z"/></svg>