<svg xmlns="http://www.w3.org/2000/svg" height="20" viewBox="0 -960 960 960" width="20"><path d="M62-588v-143.855Q62-784 97.564-817q35.563-33 87.249-33h590.502Q827-850 862.5-817t35.5 85.145V-588H780v-144H180v144H62Zm122.685 358Q133-230 97.5-263T62-348v-168h118v168h600v-168h118v168q0 52-35.564 85t-87.249 33H184.685ZM60-95q-18.275 0-30.637-12.589Q17-120.179 17-138.789q0-18.186 12.65-30.699Q42.3-182 61-182h839q18.275 0 30.637 12.307Q943-157.386 943-139.193 943-121 930.35-108T899-95H60Zm420-445ZM62-516v-72h267q14 0 25 6.5t17 18.5l39 73 110-175q5-9 13.425-13t17.5-4Q560-682 568-679t13 9l61 82h256v72H643q-18 0-33-9t-25-23l-31-36-115 181q-5 9-13.065 14-8.064 5-16.935 5-9.9 0-18.95-5-9.05-5-14.05-14l-62-113H62Z"/></svg>