<svg xmlns="http://www.w3.org/2000/svg" height="20" viewBox="0 -960 960 960" width="20"><path d="M94.77-205.538q-6.8 0-11.4-4.547-4.601-4.548-4.601-11.27 0-6.722 4.6-11.453 4.6-4.73 11.4-4.73h770.462q6.8 0 11.4 4.547 4.6 4.547 4.6 11.269t-4.6 11.453q-4.6 4.731-11.4 4.731H94.769Zm102.53-80q-26.3 0-43.8-15-17.5-15-17.5-41.616v-175.384h190.308l67.384 123.769q2.575 3.105 6.518 5.668 3.943 2.563 8.509 2.563 3.537 0 6.678-2.193 3.142-2.192 5.68-5.577L554-610.384l51.615 77.692q6.231 6.692 14.246 10.923t16.831 4.231H824v175.384q0 26.616-17.564 41.616-17.563 15-43.864 15H197.3ZM410-427.154l-56.692-108.154q-3.543-6.105-9.628-10.168-6.086-4.063-14.68-4.063H136v-151.239q0-26.761 17.564-41.761 17.563-15 43.864-15H762.7q26.3 0 43.8 15 17.5 15 17.5 41.761v151.239H629.692l-66.384-92.769q-2.693-1.615-5.843-1.654-3.15-.038-6.615-.038-3.465 0-6.735 1.038-3.269 1.039-5.961 5.193L410-427.154Z"/></svg>