<svg xmlns="http://www.w3.org/2000/svg" height="20" viewBox="0 -960 960 960" width="20"><path d="M60-95q-18.3 0-30.65-12.789-12.35-12.79-12.35-31Q17-157 29.85-169.5T61-182h839q18.3 0 30.65 12.289 12.35 12.29 12.35 30.5Q943-121 930.15-108T899-95H60Zm124.685-135Q133-230 97.5-263T62-348v-168h252l62 113q5 9 14.05 14t18.95 5q8.871 0 16.935-5Q434-394 439-403l115-181 31 36q10 14 25 23t33 9h255v168q0 52-35.564 85t-87.249 33H184.685ZM410-490l-39-73q-6-12-17-18.5t-25-6.5H62v-143.855Q62-784 97.564-817q35.563-33 87.249-33h590.502Q827-850 862.5-817t35.5 85.145V-588H642l-61-82q-5-6-13.095-9t-17-3q-8.905 0-17.405 4-8.5 4-13.5 13L410-490Z"/></svg>