<svg xmlns="http://www.w3.org/2000/svg" height="20" viewBox="0 -960 960 960" width="20"><path d="M265-169v-61h-12.789Q228-230 210.5-247.289q-17.5-17.29-17.5-41.5 0-24.211 17.35-41.842T252-348.262h13V-791q0-24.3 17.35-41.65Q299.7-850 324-850h336q24.3 0 41.65 17.289 17.35 17.29 17.35 41.5Q719-767 701.65-749.5T660-732H383v181h253q24.3 0 41.65 17.289 17.35 17.29 17.35 41.5Q695-468 677.65-450.5T636-433H383v85h109q24.3 0 41.65 17.289 17.35 17.29 17.35 41.5Q551-265 533.65-247.5T492-230H383v61q0 24.3-17.289 41.65-17.29 17.35-41.5 17.35Q300-110 282.5-127.35T265-169Z"/></svg>