<svg xmlns="http://www.w3.org/2000/svg" height="20" viewBox="0 -960 960 960" width="20"><path d="M374.615-136q-23.354 0-39.984-16.631Q318-169.261 318-192.615v-170.308h-76q-28.91 0-49.955-21.056Q171-405.035 171-435.115q0-21.808 11.269-39.039t31.115-26.154L464-611.769v-47.846q-29.923-4.847-48.654-27.865-18.731-23.019-18.731-52.833 0-35.046 24.162-59.367Q444.939-824 479.456-824q24.852 0 45.313 13.269 20.462 13.269 31.154 37.115 1.769 3.539.693 6.539 0 7.127-4.843 11.948-4.842 4.821-11.999 4.821-4.774 0-8.774-2.154-4-2.153-6.099-7.595-5.945-14.641-17.836-23.292Q495.175-792 479.983-792q-21.521 0-36.444 14.713-14.924 14.712-14.924 36.461t14.199 36.672q14.198 14.923 35.186 14.923 7.65 0 12.825 5.75 5.175 5.75 5.175 14.25v57.462l249.846 111.461q19.793 9.089 31.474 26.145Q789-457.107 789-435.374q0 29.976-21.269 51.214-21.269 21.237-50.5 21.237H642v170.308q0 23.354-16.631 39.984Q608.739-136 585.385-136h-210.77ZM242.154-394.923h89.23q6.924-10.231 18.231-15.962 11.308-5.73 24.686-5.73h211.398q13.378 0 24.686 5.73 11.307 5.731 18.231 15.962h88.461q16.986 0 28.454-11.616Q757-418.154 757-434.308q0-12.115-5.558-22.365-5.557-10.25-16.673-15.558L480-583.385 227-471.231q-10.615 5.308-17.308 15.558Q203-445.423 203-433.308q0 16.376 11.012 27.381 11.012 11.004 28.142 11.004Z"/></svg>