<svg xmlns="http://www.w3.org/2000/svg" height="24" viewBox="0 -960 960 960" width="24"><path d="M386.001-60.782q-44.305 0-75.153-30.848Q280-122.478 280-166.783v-132.303h-66.826q-46.83 0-79.611-33.111-32.781-33.11-32.781-80.412 0-35.217 19.742-64.258 19.742-29.04 51.824-43.264L425.869-632.74v-19.782q-36-11.869-57.152-43.5-21.152-31.63-21.152-69.63 0-55.653 38.391-94.61 38.392-38.956 93.867-38.956 39.943 0 73.228 22.355 33.286 22.355 48.819 58.123.565 1.131 4.565 20.392 0 20.603-13.937 34.541-13.938 13.937-34.541 13.937-15.261 0-27.305-8.413-12.043-8.413-17.609-21.674-4.476-9.963-13.43-15.851-8.953-5.888-19.697-5.888-15.22 0-25.59 10.36-10.369 10.359-10.369 25.674 0 15.314 10.362 25.966 10.363 10.652 25.681 10.652 20.363 0 34.138 13.938 13.775 13.937 13.775 34.541v44.999l259.739 115.435q32.082 14.224 51.824 43.264 19.742 29.041 19.742 64.258 0 47.302-32.781 80.412-32.781 33.111-79.611 33.111h-66.261v132.303q0 44.305-30.848 75.153-30.848 30.848-75.153 30.848H386.001ZM213.174-396.609h94.783q14.392-16.869 34.37-26.456 19.979-9.587 43.674-9.587h188.563q23.696 0 43.674 9.587 19.978 9.587 34.37 26.456h94.218q7 0 11.5-4.754t4.5-12.361q0-4.754-2.5-8.694-2.5-3.939-7.5-6.191L480-549.739 207.225-428.627q-5.051 2.018-7.269 6.084-2.217 4.065-2.217 8.819 0 7.607 4.5 12.361 4.5 4.754 10.935 4.754Z"/></svg>