<svg xmlns="http://www.w3.org/2000/svg" height="20" viewBox="0 -960 960 960" width="20"><path d="M423-104q-131.122 0-223.061-93.106Q108-290.211 108-423q0-132.308 92.332-222.654Q292.665-736 425-736h54.461l-68.615-67.615q-5.615-5.616-4.231-10.77 1.385-5.154 7-10.769 5.616-5.615 10.77-5.615t10.769 5.615l84.769 85.539q5 5 6.731 9.609 1.731 4.609 1.731 10.038 0 5.43-1.731 10.006-1.731 4.577-6.731 9.577l-85.538 85.539q-5.616 5.615-10.385 5.231-4.769-.385-10.385-6-5.615-5.616-6.115-11.27t5.115-11.269L479.461-704H428q-119.461 0-203.731 81.739Q140-540.522 140-423q0 119.461 82.321 203.231Q304.642-136 423-136q39.264 0 76.244-8.692 36.981-8.693 70.14-28.385 6.308-2.923 13.385-1.385 7.077 1.539 11.269 7.847 4.193 6.307 2.885 12.115-1.308 5.808-6.615 9.5-38.565 21.889-80.969 31.444Q466.935-104 423-104Zm229.846-152.538L509-400.385q-4.231-4.63-6.347-9.392-2.115-4.761-2.115-10.423t2.115-10.423q2.116-4.762 6.347-8.992l143.846-143.847q4.631-4.231 9.392-6.346 4.762-2.115 10.423-2.115 5.662 0 10.424 2.115 4.761 2.115 8.992 6.346l143.846 143.847q4.231 4.63 6.347 9.392 2.115 4.761 2.115 10.423t-2.115 10.423q-2.116 4.762-6.347 8.992L692.077-256.538q-4.631 4.231-9.392 6.346-4.762 2.115-10.424 2.115-5.661 0-10.423-2.115-4.761-2.115-8.992-6.346ZM672.461-282l138-138-138-138-138 138 138 138Zm0-138Z"/></svg>