<svg xmlns="http://www.w3.org/2000/svg" height="20" viewBox="0 -960 960 960" width="20"><path d="M222.074-333.999q-20.379 0-34.836-14.246-14.456-14.246-14.456-34.544 0-20.298 14.301-34.754Q201.384-432 221.763-432h516.163q20.379 0 34.836 14.246 14.456 14.246 14.456 34.544 0 20.298-14.301 34.755-14.301 14.456-34.68 14.456H222.074Zm0-194.001q-20.379 0-34.836-14.246-14.456-14.246-14.456-34.544 0-20.298 14.301-34.755 14.301-14.456 34.68-14.456h516.163q20.379 0 34.836 14.246 14.456 14.246 14.456 34.544 0 20.298-14.301 34.754Q758.616-528 738.237-528H222.074Z"/></svg>