<svg xmlns="http://www.w3.org/2000/svg" height="20" viewBox="0 -960 960 960" width="20"><path d="M164.001-116.001v-591.69h92.539v-168.922h447.305v168.922h92.154v591.69H164.001Zm144.537-591.69h343.308v-116.923H308.538v116.923ZM216-168h528v-487.693H216V-168Zm263.841-63.386q75.145 0 127.882-52.956 52.738-52.957 52.738-127.538 0-74.581-52.964-127.504-52.963-52.923-128.108-52.923-74.825 0-127.337 53.149-52.513 53.149-52.513 127.73t52.739 127.312q52.738 52.73 127.563 52.73Zm-.289-34.922q-60.321 0-102.514-42.435-42.192-42.434-42.192-102.961t42.468-102.719q42.468-42.193 102.544-42.193 60.395 0 102.845 42.435 42.451 42.435 42.451 102.962 0 60.526-42.641 102.719-42.64 42.192-102.961 42.192Zm53.909-61.154L564-358l-62.693-63.077v-82.154h-42.614v100.615l74.768 75.154ZM480-411.846Z"/></svg>