<svg xmlns="http://www.w3.org/2000/svg" height="24" viewBox="0 -960 960 960" width="24"><path d="m315.846-758.693-36.153-108.076 44.461-14.538 36.153 107.461-44.461 15.153Zm140.308-47.461v-107.692h47.692v107.692h-47.692Zm188 47.461-44.461-15.153 36.153-107.461 44.461 15.153-36.153 107.461ZM865.153-49.616 874.076-109l-242.154-37.154-41.385-132.539 25.154-55.078 33.154 103.077 57.153-18.23-103.231-321.155 16.616-8.769 177.539 338.462h98.845v-59.998h-62.154L643.305-661.537l-112.306 63.076 57.924 180.386-62.846 135.306 60.23 190.538 278.846 42.615ZM648.845-230.693l-59.922-187.382 59.922 187.382Zm57.153-18.23ZM94.847-49.616 85.924-109l241.539-37.154 42-132.539-25.77-55.078-32.538 103.077-57.153-18.23 102.231-321.155-15.616-8.769-178.154 338.462h-98.23v-59.998h62.154l190.308-361.154 112.306 63.076-57.924 180.386 62.846 135.306-61.23 190.538L94.847-49.616Zm216.308-181.077 59.922-187.382-59.922 187.382Zm-57.153-18.23Z"/></svg>