<svg xmlns="http://www.w3.org/2000/svg" height="20" viewBox="0 -960 960 960" width="20"><path d="M476.077-563.615 358.538-681.456q3.616-.39 7.303.533 3.688.923 6.744.923 43.723 0 73.8 30.077 30.077 30.077 30.077 73.923 0 2.41-.346 5.974-.346 3.565-.039 6.411ZM124.461-214.769v-45.846q0-20.616 9.423-32.885 9.424-12.269 26.808-22.962 52.693-30.461 109.077-44.384 56.385-13.923 102.693-13.923 42.153 0 82.422 7.884 40.27 7.885 71.423 19.039L400.231-475.461q-7.462 1.23-13.842 2.346Q380.01-472 372.338-472q-43.723 0-73.8-30.077-30.077-30.077-30.077-73.799 0-7.672.116-14.436.115-6.765 3.346-13.457L106.154-768l23.308-23.308 654.923 647.231-24.846 21.77-139.077-137.539v45.077H124.461Zm32.001-32h432v-13.846q0-7.539-6.462-17.654-6.461-10.115-16.846-13.115-48.538-29.539-100.538-40.462-52-10.923-92.154-10.923-40.154 0-92.154 10.923-52 10.923-100.539 40.462-9.565 5.248-16.436 12.081-6.871 6.833-6.871 18.688v13.846Zm216 0Zm379.077-144.692-13.693-24.693q34.692-31 54.039-72.577 19.346-41.577 19.346-87.269 0-45.692-19.346-87.038-19.347-41.347-54.039-72.347l13.693-22.154q39.769 35.077 61.884 82.037 22.116 46.96 22.116 99.502 0 53.262-22.116 100.862-22.115 47.6-61.884 83.677Zm-96.616-116.616-12.154-21.154q10.692-8.461 15.269-20.872 4.577-12.41 4.577-25.897 0-13.895-5.077-24.601-5.077-10.707-14.769-19.168l12.154-22.154q14.231 11.538 22.346 28.318 8.116 16.78 8.116 37.605 0 18.923-8.116 37.654-8.115 18.731-22.346 30.269Z"/></svg>