<svg xmlns="http://www.w3.org/2000/svg" height="20" viewBox="0 -960 960 960" width="20"><path d="M528.022-545.218 336.717-736.283q10.196-4.435 22.305-6.391 12.108-1.957 25.695-1.957 63.587 0 107.859 44.272 44.272 44.272 44.272 107.859 0 12.587-2.696 25.076-2.695 12.489-6.13 22.206ZM88.587-136.348v-100.13q0-28.152 13.815-51.685t37.728-37.489q55-32 117.794-49.359 62.793-17.359 126.793-17.359 22.413 0 45 2.022t44.718 6.783l-60.37-60.848q-7.326 1.522-14.532 2.782-7.207 1.261-15.055 1.261-63.587 0-107.5-44.272-43.913-44.271-44.391-106.663 0-7.847.261-15.174.261-7.326 3.782-14.652L90-767.283l53.87-53.869L823.065-143.87l-54.348 53.392-87.869-87.391v41.521H88.587Zm677.631-231-47.196-58.674q37-31 57.739-74.62 20.739-43.619 20.739-92.337 0-48-20.38-90.5-20.381-42.5-56.902-73.5l47.195-56.956q49 42.239 76.5 99.359 27.5 57.119 27.5 121.597 0 66.196-27.858 124.294-27.859 58.098-77.337 101.337Zm-93.435-114.87-46.718-56.435q12.522-9.282 18.544-23.423 6.021-14.142 6.021-30.424 0-15.044-6.641-28.066-6.641-13.021-17.685-22.304l47.196-57.435q24.283 19.522 37.424 47.902 13.141 28.381 13.141 59.903 0 32-13.5 61.38-13.5 29.38-37.782 48.902Z"/></svg>