<svg xmlns="http://www.w3.org/2000/svg" height="24" viewBox="0 -960 960 960" width="24"><path d="M467.077-580.615 331.538-718.154q3.616-.692 8.231-1.269 4.616-.577 8.693-.577 49.846 0 84.923 35.077 35.077 35.077 35.077 84.923 0 4.077-.346 9.308t-1.039 10.077ZM68.461-190.769v-65.846q0-27.616 13.924-47.385 13.923-19.769 39.307-32.462 48.693-24.461 108.077-39.384 59.385-14.923 118.693-14.923 42.153 0 81.422 7.884 39.27 7.885 68.423 17.039L379.231-484.461q-7.462 2.23-14.769 3.346-7.308 1.115-16 1.115-49.847 0-84.924-35.077-35.077-35.077-35.077-84.923 0-8.692 1.116-16.385 1.115-7.692 3.346-14.384L72.153-792l28.309-28.308 706.923 709.231-27.846 28.77-151.077-151.539v43.077h-560ZM789.54-360.461l-29.693-29.693q41.692-41 65.539-95.077Q849.231-539.308 849.231-600q0-60.692-23.846-114.538-23.847-53.847-65.539-94.847l29.693-30.154q46.769 46.077 74.384 108.077 27.616 62 27.616 131.462 0 69.462-27.616 131.462-27.615 62-74.384 108.077ZM656.923-493.077l-30.154-30.154q15.692-15.461 24.769-35.038 9.077-19.577 9.077-41.731 0-23.692-9.077-42.5t-24.769-34.269l30.154-30.154q21.231 20.538 33.846 47.5 12.616 26.961 12.616 59.423 0 30.923-12.616 58.654-12.615 27.731-33.846 48.269Z"/></svg>