<svg xmlns="http://www.w3.org/2000/svg" height="24" viewBox="0 -960 960 960" width="24"><path d="M443.435-589.826q-49.348 0-98.956 14.37-49.609 14.369-96.87 44.239l41.435 364.434h382.477l42.87-382.477h-14.434q-38 0-71.827-5.783-33.826-5.783-88.391-22.348-23-6.435-47.717-9.435-24.718-3-48.587-3Zm-208.652-56.088q51-24.739 103.522-37.043 52.521-12.305 106.13-12.305 31.13 0 62.043 4.283t61.044 12.283q50.565 14 76.5 19 25.935 5 55.369 5h26.826l14.174-138.521H219.609l15.174 147.303ZM193.304-60.782l-92.522-838.436h758.436L767.262-60.782H193.304Zm250.131-106.001h228.086-382.477H443.435Z"/></svg>