<svg xmlns="http://www.w3.org/2000/svg" height="24" viewBox="0 -960 960 960" width="24"><path d="M100.001-180.001v-599.998h759.998v599.998H100.001ZM160-240h420.001v-480H160v480Zm526.154-366.154h67.692v-67.692h-67.692v67.692ZM720-444.616q14.692 0 25.038-10.346T755.384-480q0-14.692-10.346-25.038T720-515.384q-14.692 0-25.038 10.346T684.616-480q0 14.692 10.346 25.038T720-444.616Zm0 160q14.692 0 25.038-10.346T755.384-320q0-14.692-10.346-25.038T720-355.384q-14.692 0-25.038 10.346T684.616-320q0 14.692 10.346 25.038T720-284.616Zm-299.999-45.385q-21.692 0-38.615-8.807-16.923-8.808-29.154-16.423-10.385-7-17.346-10.885-6.962-3.885-14.885-3.885-10.616 0-21.039 7.077-10.423 7.077-16.577 13.077L239.233-392q11-10.461 31.845-24.23 20.846-13.769 48.923-13.769 21.692 0 38.038 8.923 16.346 8.923 28.577 16.538 9.769 6.769 18.115 10.654 8.347 3.885 15.27 3.885 10.615 0 21.038-7.077t16.577-13.077L500.769-368q-11 10.461-31.846 24.23t-48.922 13.769Zm0-200q-21.692 0-38.615-8.807-16.923-8.808-29.154-16.423-10.385-7-17.346-10.885-6.962-3.885-14.885-3.885-10.616 0-21.039 7.077-10.423 7.077-16.577 13.077L239.233-592q11-10.461 31.845-24.23 20.846-13.769 48.923-13.769 21.692 0 38.038 8.923 16.346 8.923 28.577 16.538 9.769 6.769 18.115 10.654 8.347 3.885 15.27 3.885 10.615 0 21.038-7.077t16.577-13.077L500.769-568q-11 10.461-31.846 24.23t-48.922 13.769Z"/></svg>