<svg xmlns="http://www.w3.org/2000/svg" height="20" viewBox="0 -960 960 960" width="20"><path d="M802-276 685-393v-274q0-17.325-11.75-29.662Q661.5-709 645-709H366h5L237-842q5-2 9.5-3t9.5-3v5.841q0-23.341 16.064-39.591Q288.129-898 311.876-898h33.877q24.247 0 41.616 17.35T404.738-839v13H554v-13q0-24.3 17.314-41.65Q588.629-898 612.876-898h31.877Q669-898 686.5-880.65T704-839v23q43 13 70.5 55.5T802-667v391ZM624-453l-37-36h5q13.6 0 22.8 9.2 9.2 9.2 9.2 22.8v4Zm-163-36v85h-83q-17.85 0-29.925-12.307T336-446.807Q336-465 348.362-477q12.363-12 30.638-12h82Zm73-48Zm-79 126ZM200-777l85 86q-4 5-7 11t-3 13v488h410v-109l113 115v24q-11 38.7-42.162 62.85T684.96-62H274.717q-48.279 0-82.498-34.65T158-179v-488q0-30 11-59.5t31-50.5ZM775-79 77-777q-14-14-14-30.567Q63-824.133 76.522-837q13.611-13 31.211-13 17.6 0 30.267 13l699 698q14 14 13.5 30.5T837-79q-14 14-31 14t-31-14Z"/></svg>