<svg xmlns="http://www.w3.org/2000/svg" height="24" viewBox="0 -960 960 960" width="24"><path d="M834-255 709-380v-279q0-20.625-14.1-35.312Q680.8-709 661-709H376h5L236-854q0-25.5 17.25-42.75T296-914h38q26 0 44.5 18.5T397-851v17h165v-17q0-26 18.5-44.5T625-914h36q26 0 44.5 18.5T724-851v29q47 14 78.5 60T834-659v404ZM636-453l-36-36q15.3 0 25.65 10.35Q636-468.3 636-453Zm-184-36v93h-82q-19.55 0-32.775-13.518Q324-423.035 324-443.018 324-463 337.513-476q13.512-13 33.487-13h81Zm93-48Zm-84 149ZM184-792l89 90q-10 7-16 18t-6 25v488h458v-92l121 122q-11 42-44.5 68.5T709-46H251q-51.562 0-88.281-37Q126-120 126-171v-488q0-39 15-74.5t43-58.5ZM795-47 46-796q-14-14-14-33.067Q32-848.133 46-862q14.133-14 33.567-14Q99-876 113-862l749 749q14 14 14 33t-14 33q-14 14-33.5 14T795-47Z"/></svg>