<svg xmlns="http://www.w3.org/2000/svg" height="20" viewBox="0 -960 960 960" width="20"><path d="m787.218-283.826-97.436-97.436V-658.74q0-22.705-15.836-38.874-15.837-16.168-38.076-16.168H356.001h2.826L256.129-815.915q5-2 9.5-3t9.5-3v-14.157q0-19.646 13.565-33.396 13.564-13.75 33.616-13.75h34.746q20.335 0 34.66 14.306 14.326 14.307 14.326 34.694v23H553.13v-23q0-20.387 14.272-34.694 14.271-14.306 34.605-14.306h33.616q20.334 0 34.791 14.306 14.457 14.307 14.457 34.694v30.391q45.174 13 73.76 53.761 28.587 40.761 28.587 91.326v374.914ZM634.434-435.61l-50.477-49.477h16.738q14.339 0 24.039 9.7 9.7 9.7 9.7 24.039v15.738Zm-175.608-49.477v79.348h-93.869q-16.741 0-28.066-11.43t-11.325-28.326q0-16.896 11.487-28.244 11.488-11.348 28.47-11.348h93.303Zm73.87-49.304Zm-77.261 124.695ZM209.999-760.045l70.653 71.219q-4.434 6.739-7.434 14.26-3 7.522-3 15.826v484.522h419.564v-103.348l95.175 96.306v24q-6.217 34.787-33.032 57.633-26.814 22.845-62.183 22.845H269.934q-40.209 0-68.681-28.78-28.471-28.781-28.471-68.656V-658.74q0-27.391 9.913-54.065t27.304-47.24Zm551.089 664.96L93.521-762.654Q80.825-775.349 80.825-790.8q0-15.45 12.217-27.506 12.684-12.13 29.009-12.13 16.325 0 28.122 12.13l668.133 667.568q12.695 12.695 12.413 28.109-.283 15.413-12.413 27.543Q805.61-82.39 789.697-82.39q-15.913 0-28.609-12.696Z"/></svg>