<svg xmlns="http://www.w3.org/2000/svg" height="24" viewBox="0 -960 960 960" width="24"><path d="m646.434-435.61 184.089 184.089v-406.002q0-58.261-37.109-98-37.108-39.739-88.543-54.304v-36.391q0-22.087-15.457-37.544-15.457-15.456-37.544-15.456h-37.739q-22.087 0-37.544 15.456-15.457 15.457-15.457 37.544v27H398.304v-27q0-22.087-15.456-37.544-15.457-15.456-37.544-15.456h-38.87q-21.522 0-36.413 14.891-14.892 14.892-14.892 36.414v19.998l341.828 342.828h11.738q15.87 0 26.804 10.935 10.935 10.934 10.935 26.804v11.738ZM781.088-63.086l-96.609-96.608h121.61l10.868 10.434q-5.652 38.087-34.522 63.283-28.87 25.195-68.653 25.195H246.218q-43.74 0-74.588-30.848-30.848-30.848-30.848-74.588V-650.74q0-37.522 13.63-69.065 13.631-31.544 39.587-55.24l32.217 32.783v125.435L62.521-781.653q-12.696-12.696-12.696-30.609 0-17.913 12.696-31.044 13.13-13.13 31.326-13.13 18.196 0 31.326 13.13l718.133 718.568q12.695 12.695 12.913 30.609.217 17.913-12.913 31.043Q830.61-50.39 812.197-50.39q-18.413 0-31.109-12.696ZM447-397.739l-87.913-87.348h-11.739q-14.174 0-23.978 10.652-9.804 10.652-9.804 32.739 0 18.696 12.63 31.326 12.631 12.631 31.327 12.631H447Z"/></svg>