<svg xmlns="http://www.w3.org/2000/svg" height="20" viewBox="0 -960 960 960" width="20"><path d="M384-256h288v-96H384v96Zm-78 20q-5.2 0-9.6-4.4-4.4-4.4-4.4-9.6v-108q0-5.95 4.4-9.975Q300.8-372 306-372h372q5.95 0 9.975 4.025Q692-363.95 692-358v32h5.789q10.961 0 18.586 7.475Q724-311.05 724-300v-8q0 11.05-7.475 18.525Q709.05-282 698-282h-6v32q0 5.95-4.025 9.975Q683.95-236 678-236H306Zm-19-400 30 67q4 10 12 15.5t18 5.5h266q10 0 18-5.5t12-15.5l29-67H287Zm59 108q-16.059 0-29.029-7Q304-542 298-556l-34-80h-16q-21.45 0-36.725-15.275Q196-666.55 196-688v-76h568v76q0 21.75-15.275 36.875T712-636h-16l-31 76q-6.076 14.154-19.579 23.077Q631.919-528 616-528H346Z"/></svg>