<svg xmlns="http://www.w3.org/2000/svg" height="24" viewBox="0 -960 960 960" width="24"><path d="M364.522-178.521h310.956v-99.651H364.522v99.651ZM237.174-78.171q-22.087 0-37.544-15.457-15.457-15.457-15.457-37.544V-325.52q0-22.087 15.457-37.544 15.457-15.457 37.544-15.457h485.652q22.087 0 37.544 15.457 15.457 15.457 15.457 37.544v35.478h30.391q22.087 0 37.544 15.457 15.456 15.457 15.456 37.544v17.39q-9.609 17-20.544 35-10.934 18.001-32.456 18.001h-30.391v35.478q0 22.087-15.457 37.543-15.457 15.457-37.544 15.457H237.174Zm-53.001-697.656v40h591.654v-40H184.173Zm137.001 146.001 11.435 40h294.782l11.435-40H321.174Zm11.435 146.002q-36.74 0-65.088-22.001-28.349-22-37.479-57.174l-17.739-66.827h-28.13q-44.305 0-75.153-30.848-30.848-30.848-30.848-75.153v-146.001h803.656v146.001q0 44.305-30.848 75.153-30.848 30.848-75.153 30.848h-28.13l-20.913 69.131q-10.13 34.305-38.044 55.588-27.913 21.283-63.653 21.283H332.609ZM184.173-775.827v40-40Z"/></svg>