<svg xmlns="http://www.w3.org/2000/svg" height="24" viewBox="0 -960 960 960" width="24"><path d="M360-230.769h320v-120H360v120Zm-87.693 40q-13.153 0-22.73-9.577T240-223.077v-135.385q0-13.923 9.577-23.115 9.577-9.192 22.73-9.192h415.386q13.923 0 23.115 9.192Q720-372.385 720-358.462v27.693h16.923q13.924 0 23.116 9.192t9.192 23.116v15.384q0 13.923-9.192 23.116-9.192 9.192-23.116 9.192H720v27.692q0 13.924-9.192 23.116t-23.115 9.192H272.307ZM200-760v46.154q0 10.769 6.923 17.692t17.692 6.923h510.77q10.769 0 17.692-6.923T760-713.846V-760H200Zm100.923 110.769 19.692 54.616q3.077 7.692 9.231 11.923 6.154 4.23 13.846 4.23h272.616q7.692 0 13.846-4.23 6.154-4.231 9.231-11.923l19.692-54.616H300.923Zm42.769 110.77q-20.615 0-37.384-11.654-16.77-11.654-24-31.27l-23.847-67.846h-33.846q-26.846 0-45.731-18.884Q160-687 160-713.846V-800h640v86.154q0 26.846-18.884 45.731-18.885 18.884-45.731 18.884h-33.846l-26.77 68.77q-7.461 18.384-23.615 30.192-16.154 11.808-36.539 11.808H343.692ZM200-760v70.769V-760Z"/></svg>