<svg xmlns="http://www.w3.org/2000/svg" height="24" viewBox="0 -960 960 960" width="24"><path d="m52.309-210.001 203.231-519.23q3.461-9.384 14.653-15.076t40.145-5.692q10.353 0 18.199 5.692 7.846 5.692 11.308 15.076l186.231 473.847q6.077 16.615-3.88 30.999-9.958 14.384-27.35 14.384h-.09q-10.448 0-19.371-5.884-8.923-5.885-12.769-16.423l-18.846-49.693q-12.154-32.769-51.132-52.461-38.977-19.693-138.018-19.693-35.082 0-63.789 19.821-28.707 19.82-40.755 52.718l-27.154 71.615H52.309Zm146.767-203.998H394.77l-95.203-252.002h-4.644l-95.847 252.002Zm438.616-36.002q-12.75 0-21.374-8.628-8.625-8.629-8.625-21.384 0-12.756 8.625-21.371 8.624-8.615 21.374-8.615h240q12.75 0 21.375 8.628 8.624 8.629 8.624 21.384 0 12.756-8.624 21.371-8.625 8.615-21.375 8.615h-240Z"/></svg>