<svg xmlns="http://www.w3.org/2000/svg" height="20" viewBox="0 -960 960 960" width="20"><path d="M231.011-348 204-277q-6 15-20.278 26-14.278 11-32.722 11-31.714 0-50.357-26.443Q82-292.885 96-322l153-361q8-17 22.5-27t33.5-10h48.353Q371-720 386.5-709.5T410-682l145.168 358.175Q568-294 549.39-267q-18.61 27-51.39 27-22 0-37.587-11.381-15.587-11.381-22.79-30.423L415-348H231.011ZM259-432h127l-60-174h-4l-63 174Zm372.283 3Q610-429 595-443.789q-15-14.79-15-36Q580-501 594.838-516q14.839-15 36.122-15h208.757Q861-531 876-516.211q15 14.79 15 36Q891-459 876.162-444q-14.839 15-36.122 15H631.283Z"/></svg>