<svg xmlns="http://www.w3.org/2000/svg" height="20" viewBox="0 -960 960 960" width="20"><path d="m113.626-260 178.451-432.462q1.923-2.769 6.53-5.153Q303.214-700 311.678-700q3.992 0 6.542 2.442 2.549 2.442 4.473 5.096l169.461 409.693q3.154 8.231-1.261 15.5T477.692-260h.172q-6.249 0-10.095-2.769-3.846-2.769-5.538-7.846l-20.525-51.21q-12.475-28.713-47.54-46.098-35.064-17.385-128.926-17.385-31.163 0-57.164 17.26-26 17.26-38.299 46.013L145.846-260h-32.22Zm92.528-152h199.384l-96.404-239h-5.288l-97.692 239Zm401.513-52q-6.782 0-11.532-4.547t-4.75-11.269q0-6.723 4.588-11.453Q600.561-496 607.344-496h215.758q6.783 0 11.533 4.547 4.75 4.547 4.75 11.269 0 6.723-4.589 11.453Q830.208-464 823.425-464H607.667Z"/></svg>