<svg xmlns="http://www.w3.org/2000/svg" height="20" viewBox="0 -960 960 960" width="20"><path d="m73.75-240 179.598-447.782q6.695-14.827 24.874-23.522Q296.401-720 341.696-720q16.112 0 29.078 9.036 12.966 9.035 19.662 23.747l147.609 377.129q10.391 25.218-5.066 47.653Q517.523-240 490.174-240h.353q-18.44 0-31.549-9.544-13.108-9.543-18.804-25.5l-7.18-20.563q-10.168-26.045-40.43-42.48-30.262-16.434-106.912-16.434-27.869 0-50.608 15.771-22.739 15.771-32.942 41.598L182.174-240H73.75Zm176.99-192h134.39l-64.347-184.869h-4L250.74-432Zm372.283-3.521q-18.675 0-31.718-12.833-13.044-12.833-13.044-31.435 0-18.602 12.882-31.646t31.556-13.044H834.5q18.674 0 31.718 12.833t13.044 31.435q0 18.602-12.882 31.646t-31.557 13.044h-211.8Z"/></svg>