<svg xmlns="http://www.w3.org/2000/svg" height="24" viewBox="0 -960 960 960" width="24"><path d="m72-226 210-502q1-2 4.5-4t11.581-2q2.919 0 4.919 2 2 2 3 4l201 480q3 8-1.289 15-4.29 7-12.711 7h-.235Q488-226 484-228.5q-4-2.5-6-7.5l-25-62q-14-34-56.141-54-42.14-20-154.047-20-36.812 0-67.45 20.333Q144.724-331.333 131-297l-29 71H72Zm100-172h240L295.674-682H290L172-398Zm462-68q-5.95 0-9.975-4.035-4.025-4.035-4.025-10t4.025-9.965q4.025-4 9.975-4h240q5.95 0 9.975 4.035 4.025 4.035 4.025 10T883.975-470q-4.025 4-9.975 4H634Z"/></svg>