<svg xmlns="http://www.w3.org/2000/svg" height="20" viewBox="0 -960 960 960" width="20"><path d="M89.011-240 259-694q5-12 19.222-19 14.222-7 48.778-7 13.286 0 23.143 7.057Q360-705.885 365-694l151 402q7 19-4.5 35.5T480-240h.353Q467-240 457-247q-10-7-14-19l-12.832-35.825Q420-329 388.89-346 357.78-363 280-363q-29 0-52.587 16.619-23.587 16.619-33.79 43.577L172-240H89.011ZM240-432h144l-70-199h-4l-70 199Zm372.283-12Q597-444 586.5-454.289q-10.5-10.29-10.5-25.5Q576-495 586.338-505.5 596.677-516 611.96-516h215.757Q843-516 853.5-505.711q10.5 10.29 10.5 25.5Q864-465 853.662-454.5 843.323-444 828.04-444H612.283Z"/></svg>