<svg xmlns="http://www.w3.org/2000/svg" height="20" viewBox="0 -960 960 960" width="20"><path d="m480-283.077-122.539 49.308q-27.307 10.923-52.384-6.346T280-286.923v-432.462q0-24.728 16-41.171Q312-777 336.615-776H528v32H336.615q-9.23 0-16.923 7.692Q312-728.615 312-719.385v430.693q0 13.077 11.154 20.769 11.154 7.692 23.461 2.308L480-318l133.385 52.385q12.307 5.384 23.461-2.308Q648-275.615 648-288.692V-528h32v241.077q0 29.539-25.077 46.808t-52.384 6.346L480-283.077ZM480-744H312h216-48Zm193.539 98.923 107.846-108.616q4.513-5.615 10.718-5.615t11.82 5.615q5.616 5.616 5.616 11.436 0 5.821-5.616 11.103L693.154-619.615q-8.329 8.692-19.434 8.692-11.104 0-19.753-8.649l-43.582-43.582q-5.616-5.615-5.116-11.654.5-6.038 5.637-10.885 5.325-5.615 11.94-5.23 6.615.384 11.146 5.33l39.547 40.516Z"/></svg>