<svg xmlns="http://www.w3.org/2000/svg" height="24" viewBox="0 -960 960 960" width="24"><path d="m480-219.086-151.608 64.652q-53.001 22.087-100.305-9.044-47.305-31.131-47.305-88.262v-501.477q0-44.305 30.848-75.153 30.848-30.848 75.153-30.848h275.478q-21.131 30.565-33.109 61.456-11.978 30.892-11.978 67.588 0 72.565 44.369 128.413 44.37 55.848 111.674 73.239 28.087 6.392 52.153 6.392 24.065 0 53.848-6.392v276.782q0 57.131-47.305 88.262-47.304 31.131-100.305 9.044L480-219.086Zm242.609-519.35 106.782-107.348q14.261-14.826 34.153-14.826 19.891 0 34.718 14.826 14.826 14.827 14.543 34.435-.282 19.609-14.543 34.436L760.218-638.74q-15.956 15.957-37.609 15.957-21.652 0-37.609-15.957l-53.609-53.608Q617-706.74 617-726.349q0-19.608 14.391-34.435 14.827-14.826 34.436-14.826 19.608 0 34.435 14.826l22.347 22.348Z"/></svg>