<svg xmlns="http://www.w3.org/2000/svg" height="20" viewBox="0 -960 960 960" width="20"><path d="M222.783-124.782q-41.005 0-69.503-28.498-28.498-28.498-28.498-69.503v-514.434q0-41.005 28.498-69.503 28.498-28.498 69.503-28.498h188.738q20.388 0 34.694 14.246 14.307 14.246 14.307 34.544 0 20.298-14.307 34.754-14.306 14.457-34.694 14.457H222.783v514.434h514.434v-188.738q0-20.388 14.246-34.694 14.246-14.307 34.544-14.307 20.298 0 34.755 14.307 14.456 14.306 14.456 34.694v188.738q0 41.005-28.498 69.503-28.498 28.498-69.503 28.498H222.783Zm417.739-515.992H575.87q-18.126 0-30.737-12.635-12.611-12.635-12.611-30.695 0-18.06 12.611-30.626 12.611-12.566 30.737-12.566h64.652v-64.34q0-18.06 12.55-30.821 12.551-12.761 30.588-12.761 18.036 0 30.672 12.611 12.635 12.611 12.635 30.737v64.652h64.819q18.162 0 30.797 12.611 12.635 12.611 12.635 30.737 0 18.126-12.635 30.737-12.635 12.611-30.797 12.611h-64.819v64.652q0 18.126-12.635 30.737-12.636 12.611-30.462 12.611-18.126 0-30.737-12.635-12.611-12.635-12.611-30.797v-64.82Z"/></svg>