<svg xmlns="http://www.w3.org/2000/svg" height="24" viewBox="0 -960 960 960" width="24"><path d="M247.913-478q0 44.174 17.37 84.348 17.369 40.173 48.108 72.043l5.479 5.478v-39.347q0-18.696 12.913-31.609T363.391-400q18.696 0 31.609 12.913t12.913 31.609v153.782q0 22.087-15.456 37.544-15.457 15.457-37.544 15.457H200.565q-18.695 0-31.326-12.913-12.63-12.913-12.63-31.609t12.913-31.326q12.913-12.631 31.608-12.631h47.391l-9.217-8.347q-46.696-46.696-72.044-106.674Q141.912-412.174 141.912-478q0-45.696 11.848-88.891 11.848-43.196 35.413-82.892L83.435-754.956q-13.13-13.131-12.913-31.609.217-18.478 13.347-31.609 13.131-13.13 31.609-13.13 18.479 0 31.609 13.13L819.87-144.957Q833-131.826 833-113.565q0 18.26-13.13 31.391-13.131 13.13-31.609 13.13-18.479 0-31.609-13.13L645.261-193.13q-12.696 7.565-25.674 13.696-12.978 6.13-26.239 11.696-20.088 7.695-38.262-4.044t-22.609-33.827q-4.434-22.087 8.24-40.674t33.761-28.848q8.174-3.87 14.913-8.174 6.739-4.304 13.913-9.174l-28.261 29.131-307.652-307.651q-9.304 22.173-14.391 45.565-5.087 23.391-5.087 47.434Zm517 164.652-79.783-79.783q9.304-21.174 13.891-43.5T703.608-482q0-44.174-17.37-84.348-17.369-40.173-48.108-72.043l-6.043-5.478v39.912q0 18.696-12.631 31.327Q606.826-560 588.13-560q-18.696 0-31.609-12.913t-12.913-31.609v-153.782q0-22.087 15.457-37.544 15.456-15.457 37.544-15.457h154.347q18.696 0 31.326 12.631 12.631 12.63 12.631 31.326 0 18.696-12.631 31.609-12.63 12.913-31.326 12.913h-47.955l9.217 8.347q46.695 46.696 72.043 106.674Q809.609-547.826 809.609-482q0 44.696-11.282 87.109-11.283 42.413-33.414 81.543ZM387.479-690.782l-78.088-78.088q12.13-7.131 23.826-12.761 11.696-5.631 24.392-10.631 20.521-7.695 39.043 3.479t23.522 33.261q4.566 19.957-4.217 37.631t-27.174 26.239q-.435.435-.652.435-.218 0-.652.435Z"/></svg>