<svg xmlns="http://www.w3.org/2000/svg" height="20" viewBox="0 -960 960 960" width="20"><path d="M503-443 480-44q-.367 3.895-4.083 6.947Q472.2-34 467.867-34q-3.867 0-7.179-3.342Q457.375-40.684 457-45l-10-361-175-113-31 105 59 102q3 4 1 7.5t-6 6.5q-4 3-7.6 1.045-3.6-1.954-6.4-6.045l-57-100q-3-4.194-3.5-9.129-.5-4.936 1.5-9.871l40-137 228-133-88-96q-4-4-3.5-6.5t3.5-5.674q3.667-3.826 6.833-3.826 3.167 0 7.167 4l81.579 85.97Q506-705 505-694.5q-1 10.5-11 18.5l-126 85 132 85 308-270q3-2 6.067-1.964 3.068.035 5.991 2.035Q824-773 824-768.5t-3 7.5L503-443ZM240-640q-23.4 0-39.7-16.3Q184-672.6 184-696q0-23.4 16.3-39.7Q216.6-752 240-752q23.4 0 39.7 16.3Q296-719.4 296-696q0 23.4-16.3 39.7Q263.4-640 240-640Z"/></svg>