<svg xmlns="http://www.w3.org/2000/svg" height="24" viewBox="0 -960 960 960" width="24"><path d="M60.782-237.174v-26.347q0-41.479 22.37-74.436 22.369-32.956 52.369-47.956 51-26 119.24-44.848Q323-449.609 400-449.609h18.805q10.804 0 19.065 2Q397-364.87 402.848-284.26q5.848 80.609 61.848 153.088H166.783q-44.305 0-75.153-30.849-30.848-30.848-30.848-75.153Zm635.045 3.392q30.739 0 53.108-22.652 22.37-22.653 22.37-53.392 0-30.739-22.37-53.108-22.369-22.37-53.108-22.37-30.739 0-53.391 22.37-22.652 22.369-22.652 53.108 0 30.739 22.652 53.392 22.652 22.652 53.391 22.652ZM400-489.609q-74.479 0-126.849-52.37-52.369-52.37-52.369-126.849 0-74.478 52.369-126.565 52.37-52.088 126.849-52.088 74.479 0 126.849 52.088 52.369 52.087 52.369 126.565 0 74.479-52.369 126.849-52.37 52.37-126.849 52.37Zm241.348 351.74-5.435-25.739q-9.739-3.869-19.108-9.087-9.37-5.217-18.674-11.521l-26.174 8.434q-15.261 4.566-30.304-1-15.044-5.565-23.174-19.391l-9.131-16.261q-8.13-14.261-5.565-30.805 2.565-16.543 15.261-27.239l19.739-16.739q-2.565-11.174-2.283-22.326.283-11.152 2.283-22.326l-20.304-17.869q-12.696-10.696-14.979-26.457-2.282-15.761 5.848-30.022l10.131-16.696q8.13-13.261 22.391-19.109 14.261-5.848 29.522-1.282l26.739 8.434q9.304-6.304 18.674-11.521 9.369-5.218 19.108-9.087l5.435-26.174q3.565-16.261 16.044-26.457 12.478-10.195 28.739-10.195h18.826q16.827 0 29.022 10.413 12.196 10.413 15.761 26.674l5.435 25.739q9.739 3.869 19.391 9.304 9.652 5.435 18.957 13.304l24.173-8.434q15.696-5.566 31.24.282 15.543 5.848 24.239 20.109l8.565 15.696q8.696 14.826 5.848 31.087t-15.543 26.957l-19.739 17.304q2.565 9.739 2.282 21.326-.282 11.587-2.282 21.326l19.739 16.739q12.695 10.696 15.543 27.022 2.848 16.326-5.848 30.587l-9.565 16.696q-8.13 13.826-22.957 19.109-14.826 5.282-30.087.717l-25.608-7.869q-9.305 6.304-18.957 11.521-9.652 5.218-19.391 9.087l-5.435 26.174q-3.565 16.261-16.043 26.457-12.479 10.195-28.74 10.195h-18.826q-16.826 0-29.022-10.413-12.196-10.413-15.761-26.674Z"/></svg>