<svg xmlns="http://www.w3.org/2000/svg" height="20" viewBox="0 -960 960 960" width="20"><path d="M384-497q-75 0-126.5-51.5T206-675q0-75 51.5-126T384-852q75 0 126.5 51T562-675q0 75-51.5 126.5T384-497ZM62-259v-10q0-41 22-69.5t44-41.5q55-32 123.5-50.5T384-449q11 0 29 .5t33 1.5q-9 17-20 55t-15 62l-25-1q-46 0-97 11.5T191-281q-4.95 2.941-7.975 6.735Q180-270.471 180-264v5h237q6.846 29.629 24.423 62.815Q459-163 477-141H180q-49.7 0-83.85-34.15Q62-209.3 62-259Zm585 115-6-26.545Q631-174 620.5-180.5T602-193l-27 9q-15 4-28.875-1.048Q532.25-190.095 525-204l-10-17q-7-13-5-28t13-26l20-19q-5-9-4-22.5t4-22.5l-20-20q-11-11-13-25t5-28l10-16q7-14 21-19.5t29-1.5l26 8q8-7 19-14t21-9l6-27q3.447-14.839 15.513-24.419Q674.579-525 690-525h19q16 0 28 9t15 24l6 28q10 3 21.5 9t19.5 14l26-8q14-4 28 2t22 19l9 16q8 14 5 28.5T875-358l-18 18q3 11 2.5 23.553Q859-303.895 856-294l19 18q11 11 14 26.5t-5 28.5l-9 16q-7.419 13.905-21.71 18.452Q839-182 824-186l-26-7q-8 6-19 13t-21 9l-7 27q-3.368 14.839-15.158 24.419Q724.053-110 709-110h-20q-16.053 0-27.342-9.531Q650.368-129.062 647-144Zm53.212-109Q726-253 745-272.712q19-19.713 19-45.5Q764-344 744.788-363q-19.213-19-45-19Q674-382 654.5-362.788q-19.5 19.213-19.5 45Q635-292 654.712-272.5q19.713 19.5 45.5 19.5Zm-316-362Q409-615 426.5-632.712q17.5-17.713 17.5-42.5Q444-700 426.288-717q-17.713-17-42.5-17Q359-734 341.5-716.788q-17.5 17.213-17.5 42Q324-650 341.712-632.5q17.713 17.5 42.5 17.5ZM384-675Zm33 416Z"/></svg>