<svg xmlns="http://www.w3.org/2000/svg" height="20" viewBox="0 -960 960 960" width="20"><path d="M480-570q-44.591 0-67.795 14.223Q389-541.554 389-525v107q0 13 8.6 21t21.4 8h16v91.695q0 19.465 13.07 32.385 13.071 12.92 32 12.92Q499-252 512-265.05T525-297v-92h17q13 0 21-8.6t8-21.4v-106q0-16.554-23.205-30.777Q524.591-570 480-570Zm0 508q-85.553 0-161.717-33.24Q242.12-128.48 185.3-185.3q-56.82-56.82-90.06-132.983Q62-394.447 62-480q0-85.68 33.24-161.78T185.3-774.7q56.82-56.82 132.983-90.06Q394.447-898 480-898q85.68 0 161.684 33.022 76.004 33.023 133.137 90.157 57.134 57.133 90.157 133.137Q898-565.68 898-480q0 85.553-33.24 161.717Q831.52-242.12 774.7-185.3q-56.82 56.82-132.92 90.06T480-62Zm.221-118Q605-180 692.5-267.721q87.5-87.72 87.5-212.5Q780-605 692.279-692.5t-212.5-87.5Q355-780 267.5-692.279t-87.5 212.5Q180-355 267.721-267.5q87.72 87.5 212.5 87.5ZM480-618q17 0 31-14t14-31q0-17-14-31t-31-14q-17 0-31 14t-14 31q0 17 14 31t31 14Zm0 138Z"/></svg>