<svg xmlns="http://www.w3.org/2000/svg" height="20" viewBox="0 -960 960 960" width="20"><path d="M480-572.609q-45.638 0-69.406 14.561-23.768 14.561-23.768 31.744v115.26q0 10.826 7.035 17.522 7.035 6.696 17.748 6.696h22.087v93.567q0 19.767 13.425 33.121 13.426 13.355 32.87 13.355 19.444 0 32.879-13.428 13.434-13.428 13.434-32.876v-93.739h22.652q10.826 0 17.522-7.035 6.696-7.035 6.696-17.748v-114.695q0-17.183-23.768-31.744T480-572.609Zm0 495.827q-82.583 0-156.101-31.935-73.519-31.936-128.382-86.8-54.864-54.863-86.8-128.382Q76.782-397.417 76.782-480q0-83.071 31.935-156.346 31.936-73.274 86.8-128.137 54.863-54.864 128.382-86.8Q397.417-883.218 480-883.218q83.071 0 156.291 31.812 73.22 31.813 128.261 86.854t86.854 128.261q31.812 73.22 31.812 156.291 0 82.583-31.935 156.101-31.936 73.519-86.8 128.382-54.863 54.864-128.137 86.8Q563.071-76.782 480-76.782Zm0-543.827q18.304 0 32.304-14 14-14 14-32.304 0-18.304-14-32.304-14-14-32.304-14-18.304 0-32.304 14-14 14-14 32.304 0 18.304 14 32.304 14 14 32.304 14Z"/></svg>