<svg xmlns="http://www.w3.org/2000/svg" height="24" viewBox="0 -960 960 960" width="24"><path d="M360-606v126q0 17 11.5 28.5T400-440q17 0 28.5-11.5T440-480v-126l36 35q11 11 27.5 11t28.5-12q11-11 11-28t-11-28l-87-87q-18.667-19-44.333-19Q375-734 356-715l-88 87q-11 11-11.5 27.5T268-572q11 11 27.5 11.5T324-571l36-35Zm160 252-36-35q-11-11-27.5-11T428-388q-11 11-11 28t11 28l88 88q18.667 19 44.333 19Q586-225 605-244l87-88q11-11 11.5-27.5T692-388q-11-11-27.5-11.5T636-389l-36 35v-126q0-17-11.5-28.5T560-520q-17 0-28.5 11.5T520-480v126ZM480-46q-91 0-169.987-34.084-78.988-34.083-137.417-92.512T80.084-310.013Q46-389 46-480t34.084-169.987q34.083-78.988 92.512-137.417t137.417-92.512Q389-914 480-914t169.987 34.084q78.988 34.083 137.417 92.512t92.512 137.417Q914-571 914-480t-34.084 169.987q-34.083 78.988-92.512 137.417T649.987-80.084Q571-46 480-46Zm0-126q130 0 219-89t89-219q0-130-89-219t-219-89q-130 0-219 89t-89 219q0 130 89 219t219 89Zm0-308Z"/></svg>