<svg xmlns="http://www.w3.org/2000/svg" height="24" viewBox="0 -960 960 960" width="24"><path d="M480-440q-22.087 0-37.544-15.457-15.457-15.456-15.457-37.544v-313.217q0-22.087 15.457-37.544 15.457-15.456 37.544-15.456 22.087 0 37.544 15.456 15.457 15.457 15.457 37.544v313.217q0 22.088-15.457 37.544Q502.087-440 480-440Zm0 339.218q-78.391 0-147.566-29.913-69.174-29.913-120.5-81.239-51.326-51.326-81.239-120.5Q100.782-401.609 100.782-480q0-67.87 23.021-130.87 23.022-63 67.196-114.565 14.391-17.087 37.326-18.217 22.935-1.131 39.457 14.826 14.957 14.391 14.805 36.261-.152 21.87-13.413 39.392-29.913 36.739-46.152 80.717T206.783-480q0 114.174 79.522 193.695Q365.826-206.783 480-206.783q114.174 0 193.695-79.522Q753.217-365.826 753.217-480q0-47.913-16.739-92.891-16.739-44.978-46.652-81.717-13.261-17.087-12.913-38.457.348-21.37 15.305-35.761 16.522-15.957 39.457-14.826 22.935 1.13 37.326 18.217 44.174 51.565 67.196 114.565 23.021 63 23.021 130.87 0 78.391-29.913 147.566-29.913 69.174-81.239 120.5-51.326 51.326-120.5 81.239Q558.391-100.782 480-100.782Z"/></svg>