<svg xmlns="http://www.w3.org/2000/svg" height="24" viewBox="0 -960 960 960" width="24"><path d="M479.987-440q-12.756 0-21.371-8.625-8.615-8.625-8.615-21.374v-323.077q0-12.75 8.628-21.375 8.629-8.625 21.384-8.625 12.756 0 21.371 8.625 8.615 8.625 8.615 21.375v323.077q0 12.749-8.628 21.374Q492.742-440 479.987-440Zm.035 299.999q-70.791 0-132.637-26.77-61.846-26.769-107.846-72.768-45.999-46-72.768-107.831-26.77-61.831-26.77-132.63 0-67.461 25.577-128.731Q191.155-670 238.925-718.692q8.692-8.923 21.268-8.73 12.577.192 21.567 9.182 8.24 8.24 7.447 20.463-.792 12.223-9.514 21.853-38.847 39.77-59.27 90.26Q200-535.174 200-480q0 117 81.5 198.5T480-200q117 0 198.5-81.5T760-480q0-55.308-20.731-106.346-20.731-51.039-59.577-90.808-8.692-8.923-9.192-21.007-.5-12.083 7.89-20.391 8.867-9.063 21.43-9.063 12.563 0 21.255 8.923 47.77 48.692 73.347 109.961 25.577 61.27 25.577 128.731 0 70.799-26.77 132.63-26.769 61.831-72.768 107.831-46 45.999-107.824 72.768-61.824 26.77-132.615 26.77Z"/></svg>