<svg xmlns="http://www.w3.org/2000/svg" height="20" viewBox="0 -960 960 960" width="20"><path d="M480-441q-22.087 0-38.544-16.457-16.457-16.456-16.457-38.544v-308.217q0-22.087 16.457-38.544 16.457-16.456 38.544-16.456 22.087 0 38.544 16.456 16.457 16.457 16.457 38.544v308.217q0 22.088-16.457 38.544Q502.087-441 480-441Zm0 340.218q-78.391 0-147.566-29.913-69.174-29.913-120.5-81.239-51.326-51.326-81.239-120.5Q100.782-401.609 100.782-480q0-66.87 22.521-129.37 22.522-62.5 64.696-114.065 15.391-19.087 38.826-20.717 23.435-1.631 40.957 15.326 15.957 15.391 16.805 38.261.848 22.87-12.413 40.392-28.913 36.739-45.152 79.717T210.783-480q0 112.174 78.522 190.695Q367.826-210.783 480-210.783q112.174 0 190.695-78.522Q749.217-367.826 749.217-480q0-46.913-15.239-90.891-15.239-43.978-45.152-79.717-13.261-18.087-13.413-40.457-.152-22.37 15.805-37.761 17.522-16.957 41.957-15.326 24.435 1.63 39.826 20.717 43.174 51.565 64.696 114.065 21.521 62.5 21.521 129.37 0 78.391-29.913 147.566-29.913 69.174-81.239 120.5-51.326 51.326-120.5 81.239Q558.391-100.782 480-100.782Z"/></svg>