<svg xmlns="http://www.w3.org/2000/svg" height="24" viewBox="0 -960 960 960" width="24"><path d="M484.522-473.782Zm0 0Zm0 0Zm0 0ZM812.479-20.52 31.259-801.74l62.653-62.652 390.61 390.61 390.61 390.61-62.653 62.652Zm-34.566-274.306-81.348-81.348q4.434-15.739 6.586-31.625 2.153-15.886 2.153-32.201 0-43.782-15.45-83.82-15.45-40.037-44.68-71.527-20 10.739-41.435 16.391-21.435 5.652-42.739 5.652-59.739 0-106.652-36.478-46.913-36.478-61.827-93.086-3.478 2.608-6.521 5.434-3.043 2.826-6.521 5.869l-73.958-75.087q39.024-37.927 85.295-70.833 46.271-32.907 100.489-60.603V-748q0 29.195 20.22 48.945T561-679.305q15.498 0 28.844-6.945 13.345-6.945 23.677-19.098l23.653-29.348Q717.957-688.74 764.631-609.5q46.674 79.239 46.674 169.5 0 39.391-8.631 75.652-8.63 36.261-24.761 69.522ZM480-108.695q-138.734 0-235.019-96.286Q148.695-301.266 148.695-440q0-70.13 26.348-137.326t76.044-129.457l75.087 75.088q-35.173 47.174-53.325 95.065-18.153 47.891-18.153 96.63 0 40.13 13.652 76.455 13.652 36.326 40.217 66.239-.435-2.174-.435-3.913v-3.913q3.391-28.043 15.674-52.369t33.022-45.065l99.608-98.869 75.653 75.653-101.174 98.304q-9.378 9.409-14.493 21.385t-5.115 24.807q0 27.373 20.208 46.981 20.209 19.609 48.587 19.609 28.378 0 48.487-19.667 20.108-19.666 20.108-47.028 0-13.174-5.369-24.761-5.37-11.587-14.674-20.891l51.087-51.087 152.609 152.609q-46.496 54.314-111.074 85.57Q556.696-108.695 480-108.695Z"/></svg>