<svg xmlns="http://www.w3.org/2000/svg" height="20" viewBox="0 -960 960 960" width="20"><path d="M83.216-545.478q21.87-144.174 134.522-240.957Q330.391-883.218 480-883.218q73.696 0 141.326 25.5 67.631 25.5 124.892 75.5-15.348 30.739-23.327 60.044-7.978 29.304-7.978 47.696-45.87-54.435-105.957-82.587Q548.87-785.217 480-785.217q-96.174 0-175.413 54.674-79.239 54.673-109.674 143.413-30.913-8.349-62.392 3.63-31.478 11.978-49.305 38.022ZM480-76.782q-149.609 0-260.762-95.283-111.152-95.283-136.022-244.457 16.696 24.652 41.218 35.913 24.522 11.261 58.175 10l17.522 10.74q38.131 86.521 112.891 135.804Q387.783-174.783 480-174.783q127.174 0 216.195-88.739Q785.217-352.261 785.217-480q0-23-3.283-43.217-3.282-20.218-9.717-43.087 14.696 9.13 31.892 13.978 17.195 4.848 35.891 4.848 13.652 0 21.174-2.261t14.479-6.652q4.565 15.565 6.065 35.195 1.5 19.631 1.5 41.196 0 83.522-31.413 156.913-31.413 73.392-86.456 128.436-55.044 55.043-127.936 86.456Q564.522-76.782 480-76.782ZM348.782-576l-31.608 31.609q-8.131 8.13-8.413 19.891-.283 11.761 7.848 19.891 8.13 8.131 20.391 7.848 12.261-.282 20.391-8.413l36.218-36.217q14.956-14.957 14.956-34.609t-14.956-34.609l-35.783-36.782q-8.696-8.696-19.826-8.696t-19.826 8.696q-8.131 8.13-8.131 20.108 0 11.979 8.131 20.109L348.782-576ZM840-595.478q-32.261 0-54.391-22.131-22.131-22.13-22.131-54.391 0-37.435 13.217-73.5 13.218-36.065 33.218-67.5 3.13-5.13 7.761-8.478 4.63-3.348 11.326-3.348 6.696 0 11.826 2.848 5.131 2.848 9.261 7.978 23 32 44.718 66.283 21.717 34.282 21.717 75.717 0 32.261-22.131 54.391-22.13 22.131-54.391 22.131ZM611.218-576l32.173-31.174q8.131-8.13 7.848-20.109-.282-11.978-8.413-20.108-8.13-8.131-20.109-8.131-11.978 0-20.108 8.131l-36.218 36.782Q551.435-595.652 551.435-576t14.956 34.609l35.218 36.217q8.13 8.131 20.108 8.413 11.979.283 20.109-7.848 8.131-8.13 8.131-20.108 0-11.979-8.131-20.109L611.218-576ZM474-480ZM347.783-287q6.13 0 14.326-3.848 8.196-3.848 14.457-9.978 18.869-24.478 44.978-37.587 26.108-13.108 58.456-13.108 31.348 0 56.956 13.108 25.609 13.109 44.478 37.587 6.261 6.13 14.239 9.978Q603.652-287 609.782-287q17.261 0 25.109-14.761 7.848-14.761-3.413-30.457-24-34.173-64.087-54.978Q527.304-408 480-408q-25.13 0-46.913 5.565-21.783 5.565-41.783 15.565l-159.217-89.956q-1.131-17.565-8.414-33.348-7.282-15.783-22.847-23.783-22.131-12.13-46.609-5.565-24.479 6.565-37.044 28.261-13.13 22.696-6.565 47.674 6.565 24.978 29.261 37.544 14 8.565 31.565 7.282 17.565-1.282 32.696-8.717l135.522 78.391q-3.609 4.609-6.5 8.435-2.891 3.826-6.63 9.434-11.696 16.827-3.848 30.522Q330.522-287 347.783-287Z"/></svg>