<svg xmlns="http://www.w3.org/2000/svg" height="24" viewBox="0 -960 960 960" width="24"><path d="m353.692-581-30.461 30.461q-5.154 5.154-5.423 12.154-.27 7 5.653 12.924 5.924 5.923 12.539 5.923 6.615 0 12.539-5.923l31.153-31.924q9.693-9.692 9.693-22.615 0-12.923-9.693-22.615l-32.923-32.924q-4.923-4.923-11.769-4.923t-11.769 4.923q-5.154 5.154-5.154 12.154t5.154 12.154L353.692-581ZM840-612.308q-27.615 0-47.654-20.038-20.038-20.039-20.038-47.654 0-32.154 18.153-62.154 18.154-30 35.616-55.923 2.231-3.462 5.961-5.462 3.731-2 7.962-2t7.577 2q3.346 2 5.577 5.462 17.461 25.923 36 55.923 18.538 30 18.538 62.154 0 27.615-20.038 47.654-20.039 20.038-47.654 20.038ZM607.308-581l30.231-30.231q5.153-5.154 4.769-12.154-.385-7-5.539-12.154-5.154-5.153-12.154-5.153t-12.154 5.153l-32.153 32.924q-9.693 9.692-9.693 22.615 0 12.923 9.693 22.615l32.153 32.154q5.154 5.154 12.27 5.423 7.115.27 13.038-5.653 5.923-5.924 5.923-12.654 0-6.731-5.923-12.654L607.308-581ZM480-120q-74.769 0-140.462-28.423-65.692-28.423-114.692-77.423t-76.923-114.308Q120-405.461 120-480t27.923-139.846q27.923-65.308 76.923-114.308t114.692-77.423Q405.231-840 480-840q68.615 0 129.115 23.615 60.5 23.616 108.654 66.077-7.846 17.539-12.807 34.308Q700-699.231 700-680q0 55.154 36.385 94.5 36.384 39.346 90.538 44.731 2.077 0 4.154-.231t3.923-.692q2.769 15.23 3.885 30.346Q840-496.231 840-480q0 74.539-28.423 140.231t-77.038 114.308q-48.616 48.615-114.308 77.038Q554.539-120 480-120ZM333.461-304.615q3.924 0 7.193-2.077 3.269-2.077 5.731-5 22-33.077 56.153-53 34.154-19.923 77.462-19.923t77.462 19.923q34.153 19.923 56.153 53 2.462 2.923 6 5 3.539 2.077 6.693 2.077 11.846 0 16.884-9.462 5.039-9.461-1.577-19-28.307-43.615-71.846-65.269Q526.231-420 480-420q-27.538 0-54.846 7.808-27.308 7.807-51.615 24.192l-111.231-64.308q0-14.461-5.693-28.077-5.692-13.615-18.154-20.846-17.384-9.692-36.269-4.731-18.885 4.962-28.808 22.116-9.692 17.384-4.73 36.654 4.961 19.269 22.115 29.192 12.462 7.231 26.923 5.308 14.462-1.923 26.923-9.154l99.539 57.231q-7.231 7.23-13.616 15.23-6.384 8-12.384 16.77-6.385 10.077-.962 19.038 5.423 8.962 16.269 8.962Z"/></svg>