<svg xmlns="http://www.w3.org/2000/svg" height="24" viewBox="0 -960 960 960" width="24"><path d="M766-693.846H550.769q-8.538 0-14.269-5.731t-5.731-14.269q0-8.539 5.731-14.269 5.731-5.731 14.269-5.731H766l-69.385-69.385q-5.615-5.615-6.115-13.654-.5-8.038 5.885-14.654 6.615-6.615 14.384-6.73 7.77-.116 14.385 6.5L820.462-736q9.692 9.692 9.692 22.615 0 12.923-9.692 22.616l-95.539 95.077q-5.846 5.615-13.769 6-7.923.384-14.539-6-6.615-6.616-6.73-14.27-.116-7.653 6.5-14.269L766-693.846ZM757.231-160q-101.154 0-207.385-50.654-106.231-50.653-197.769-142.192-90.77-91.539-141.423-197.385Q160-656.077 160-757.231q0-18 12-30.385Q184-800 202-800h98.923q16.308 0 28.462 10.269t16.461 26.346L365.692-668q2.77 16.769-1 29.308-3.769 12.538-13.307 20.538l-87.77 81.846q24.616 44.693 54.424 83.039 29.807 38.346 63.576 72.654 34.847 34.846 75 64.807 40.154 29.962 88.154 56.577l85.539-87.077q9.769-10.538 21.961-13.884 12.192-3.347 26.962-1.347l84.154 17.231q16.308 4 26.461 16.423Q800-315.462 800-299.385V-202q0 18-12.384 30-12.385 12-30.385 12ZM244.846-573.846l76.769-70.616q3.846-3.077 5-8.461 1.154-5.385-.384-10l-17.77-84.769q-1.538-6.154-5.384-9.231t-10-3.077H211q-4.615 0-7.692 3.077t-3.077 7.692q1.154 41 12.846 85.616 11.692 44.615 31.769 89.769Zm338 333.384q40.539 20.077 86.423 29.693 45.885 9.615 79.962 10.307 4.615 0 7.692-3.076 3.077-3.077 3.077-7.693v-80.307q0-6.154-3.077-10-3.077-3.847-9.231-5.385l-74-15.154q-4.615-1.538-8.077-.384-3.461 1.153-7.307 5l-75.462 76.999Zm-338-333.384Zm338 333.384Z"/></svg>