<svg xmlns="http://www.w3.org/2000/svg" height="24" viewBox="0 -960 960 960" width="24"><path d="M83.824-83.824v-606.35h606.35v606.35H83.824Zm94.697-157.306h418.088L454.391-428.479 345.304-282.826l-66.827-89.957-99.956 131.653Zm591.653-28.696v-86.783h106.002v86.783H770.174Zm0-166.783v-86.782h106.002v86.782H770.174Zm0-166.782v-86.783h106.002v86.783H770.174ZM269.826-770.174v-106.002h86.783v106.002h-86.783Zm166.783 0v-106.002h86.782v106.002h-86.782Zm166.782 0v-106.002h86.783v106.002h-86.783Zm-519.567 0v-106.002h106.002v106.002H83.824Zm792.352 0H770.174v-106.002h106.002v106.002ZM770.174-83.824v-106.002h106.002v106.002H770.174Z"/></svg>