<svg xmlns="http://www.w3.org/2000/svg" height="24" viewBox="0 -960 960 960" width="24"><path d="M100.001-140.001V-200h80v-619.999h599.998V-200h80v59.999H100.001ZM240-664.999h325V-760H240v95.001Zm0 155h325V-605H240v95.001ZM240-200h480v-250.001h-95.001v81.462q12.846 8.077 20.269 20.769 7.423 12.692 7.423 27.769 0 23.901-16.916 40.796-16.916 16.896-40.845 16.896-23.93 0-40.776-16.896-16.846-16.895-16.846-40.796 0-15.077 7.423-27.769 7.423-12.692 20.269-20.769v-81.462H240V-200Zm384.999-464.999H720V-760h-95.001v95.001Zm0 155H720V-605h-95.001v95.001Z"/></svg>