<svg xmlns="http://www.w3.org/2000/svg" height="20" viewBox="0 -960 960 960" width="20"><path d="M324.308-404h215.384q17.324 0 28.816-11.492Q580-426.985 580-444.308v-92.153l81 73q4.231 3.23 8.077 1.323t3.846-6.785v-166.154q0-4.878-3.846-6.785T661-640.539l-81 73v-92.153q0-17.324-11.492-28.816Q557.016-700 539.692-700H324.308q-17.323 0-28.816 11.492Q284-677.016 284-659.692v215.384q0 17.323 11.492 28.816Q306.985-404 324.308-404Zm-81.231 124-59.037 59.037q-13.271 13.271-30.656 6.173Q136-221.889 136-240.692v-526.693q0-24.315 16.15-40.465Q168.3-824 192.615-824h574.77q24.315 0 40.465 16.15Q824-791.7 824-767.385v430.77q0 24.315-16.15 40.465Q791.7-280 767.385-280H243.077ZM230-312h537.385q9.23 0 16.923-7.692Q792-327.385 792-336.615v-430.77q0-9.23-7.692-16.923Q776.615-792 767.385-792h-574.77q-9.23 0-16.923 7.692Q168-776.615 168-767.385v518.154L230-312Zm-62 0v-480 480Z"/></svg>