<svg xmlns="http://www.w3.org/2000/svg" height="20" viewBox="0 -960 960 960" width="20"><path d="M312-384h240q20.4 0 34.2-13.8Q600-411.6 600-432v-86l75.348 67.348q6.695 5.695 13.674 2.579 6.978-3.116 6.978-11.84v-184.174q0-8.724-6.978-11.84-6.979-3.116-13.674 2.579L600-586v-86q0-20.4-13.8-34.2Q572.4-720 552-720H312q-20.4 0-34.2 13.8Q264-692.4 264-672v240q0 20.4 13.8 34.2Q291.6-384 312-384Zm-91.218 163.218-60.273 60.273q-23.335 23.335-53.531 10.714-30.196-12.621-30.196-45.075v-590.347q0-41.005 28.498-69.503 28.498-28.498 69.503-28.498h610.434q41.005 0 69.503 28.498 28.498 28.498 28.498 69.503v466.434q0 41.005-28.498 69.503-28.498 28.498-69.503 28.498H220.782Zm-30-98.001h594.435v-466.434H174.783v482.998l15.999-16.564Zm-15.999 0v-466.434 466.434Z"/></svg>