<svg xmlns="http://www.w3.org/2000/svg" height="20" viewBox="0 -960 960 960" width="20"><path d="M672.184-164q-6.723 0-11.327-4.6-4.605-4.6-4.605-11.4v-92h-92.168q-6.836 0-11.46-4.608Q548-281.215 548-288.027t4.624-11.392q4.624-4.581 11.46-4.581h92.168v-92q0-6.8 4.632-11.4 4.631-4.6 11.377-4.6 6.745 0 11.281 4.6 4.536 4.6 4.536 11.4v92h91.688q6.734 0 11.484 4.547t4.75 11.269q0 6.723-4.6 11.303-4.6 4.581-11.4 4.581h-92v92q0 6.8-4.547 11.55-4.547 4.75-11.269 4.75ZM180-212q-6.8 0-11.4-4.547-4.6-4.547-4.6-11.269 0-6.723 4.6-11.453Q173.2-244 180-244h271.692Q456-235.404 460-226.817q4 8.586 9.692 14.817H180Zm0-168q-6.8 0-11.4-4.547-4.6-4.547-4.6-11.269 0-6.723 4.6-11.453Q173.2-412 180-412h307.154q-.462 9.308-1.5 16.808-1.039 7.5-2.423 15.192H180Zm0-168q-6.8 0-11.4-4.547-4.6-4.547-4.6-11.269 0-6.723 4.6-11.453Q173.2-580 180-580h600q6.8 0 11.4 4.547 4.6 4.547 4.6 11.269 0 6.723-4.6 11.453Q786.8-548 780-548H180Zm0-168q-6.8 0-11.4-4.547-4.6-4.547-4.6-11.269 0-6.723 4.6-11.453Q173.2-748 180-748h600q6.8 0 11.4 4.547 4.6 4.547 4.6 11.269 0 6.723-4.6 11.453Q786.8-716 780-716H180Z"/></svg>