<svg xmlns="http://www.w3.org/2000/svg" height="24" viewBox="0 -960 960 960" width="24"><path d="M140-120v-40h280v40H140Zm540.279-38.461q-25.587 0-43.702-18.5-18.116-18.5-18.116-43.808H481.538V-249q0-68.462 53.539-115.346Q588.615-411.231 660-418.308V-800.77h40v382.462q72.385 7.077 125.808 53.962Q879.231-317.462 879.231-249v28.231H742.308q0 25.308-17.833 43.808-17.834 18.5-44.196 18.5ZM260-220v-300H80.307l74.462-280H406l74.462 280H300v300h-40Zm264-40h312q-6.615-55.539-52.316-87.769Q737.983-380 679.818-380q-57.126 0-103.049 32.231Q530.846-315.539 524-260ZM132-560h296l-53-200H186l-54 200Zm148-100Zm400 340Z"/></svg>