<svg xmlns="http://www.w3.org/2000/svg" height="20" viewBox="0 -960 960 960" width="20"><path d="M133.001-116.001V-168h286.998v51.999H133.001Zm538.706-23.231q-24.861 0-42.668-18.5-17.808-18.5-19.808-44.653h-155.46V-234q0-86.23 54.769-144.922 54.769-58.692 137.461-69.23v-376.23h51.998v376.23q82.692 10.538 137.653 69.23Q890.614-320.23 890.614-234v31.615H735.153q-1 26.153-19.416 44.653-18.417 18.5-44.03 18.5Zm-410.706-62.769V-528H66.156l84.23-295.997h275.613L510.229-528h-197.23v325.999h-51.998ZM506-253.999h332q-11.307-67.77-58.602-105.885-47.295-38.115-107.489-38.115-58.063 0-106.525 38.115Q516.923-321.769 506-253.999Zm-371-326h306l-54.971-192H190l-55 192Zm145-92Zm392 348Z"/></svg>