<svg xmlns="http://www.w3.org/2000/svg" height="20" viewBox="0 -960 960 960" width="20"><path d="M143-136v-32h267v32H143Zm528.846-22.461q-21.154 0-36.269-16-15.116-16-17.116-38.308H474.538V-239q0-75.462 53.039-124.346Q580.615-412.231 656-419.308V-784.77h32v365.462q75.385 7.077 128.808 55.962Q870.231-314.462 870.231-239v26.231H726.308q-1 22.308-16.833 38.308-15.834 16-37.629 16ZM271-212v-316H92.307l73.462-256H411l73.462 256H303v316h-32Zm235-32h332q-8.615-68.539-56.761-106.269Q733.094-388 671.818-388q-59.126 0-108.549 37.731Q513.846-312.539 506-244ZM135-560h306l-54.971-192H190l-55 192Zm145-92Zm392 338Z"/></svg>