<svg xmlns="http://www.w3.org/2000/svg" height="20" viewBox="0 -960 960 960" width="20"><path d="m351-480 40 40q18 18 17.5 41.667Q408-374.667 390-357q-16.667 18-40.833 18.5-24.167.5-42.41-17.743l-81.514-81.514Q207-456 207-480.182T225-522l80.84-80.84Q324-621 348.5-621q24.5 0 42.978 18Q409-585 408.5-561t-17.824 41.324L351-480Zm258 0-40-40q-18-18-17.5-41.667Q552-585.333 570-603q16.667-18 40.833-18.5 24.167-.5 42.41 17.743l81.514 81.514Q753-504 753-479.818T735-438l-80.84 80.84Q636-339 611.818-339.462 587.636-339.923 570-358q-18-18-17.5-42t17.655-41.155L609-480ZM228-110q-49.7 0-83.85-34.15Q110-178.3 110-228v-97q0-24.3 17.289-41.65 17.29-17.35 41.5-17.35Q193-384 210.5-366.65T228-325v97h97q24.3 0 41.65 17.289 17.35 17.29 17.35 41.5Q384-145 366.65-127.5T325-110h-97Zm504 0h-97q-24.3 0-41.65-17.289-17.35-17.29-17.35-41.5Q576-193 593.35-210.5T635-228h97v-97q0-24.3 17.289-41.65 17.29-17.35 41.5-17.35Q815-384 832.5-366.65T850-325v97q0 49.7-34.15 83.85Q781.7-110 732-110ZM110-635v-97q0-49.7 34.15-83.85Q178.3-850 228-850h97q24.3 0 41.65 17.289 17.35 17.29 17.35 41.5Q384-767 366.65-749.5T325-732h-97v97q0 24.3-17.289 41.65-17.29 17.35-41.5 17.35Q145-576 127.5-593.35T110-635Zm622 0v-97h-97q-24.3 0-41.65-17.289-17.35-17.29-17.35-41.5Q576-815 593.35-832.5T635-850h97q49.7 0 83.85 34.15Q850-781.7 850-732v97q0 24.3-17.289 41.65-17.29 17.35-41.5 17.35Q767-576 749.5-593.35T732-635Z"/></svg>