<svg xmlns="http://www.w3.org/2000/svg" height="20" viewBox="0 -960 960 960" width="20"><path d="M144-448v-72h72v72h-72Zm0-152v-72h72v72h-72Zm144-144v-72h72v72h-72Zm152 600v-72h72v72h-72Zm0-600v-72h72v72h-72Zm152 600v-72h72v72h-72Zm152-152v-72h72v72h-72Zm0-152v-72h72v72h-72Zm36.211-152Q765-600 754.5-610.35 744-620.7 744-636v-108H628q-15.3 0-25.65-10.289-10.35-10.29-10.35-25.5Q592-795 602.35-805.5 612.7-816 628-816h116q29.7 0 50.85 21.118Q816-773.765 816-744.111v107.835Q816-621 805.711-610.5q-10.29 10.5-25.5 10.5Zm-564.46 456Q186-144 165-165.15 144-186.3 144-216v-116q0-15.3 10.289-25.65 10.29-10.35 25.5-10.35Q195-368 205.5-357.65 216-347.3 216-332v116h107.737Q339-216 349.5-205.711q10.5 10.29 10.5 25.5Q360-165 349.632-154.5 339.264-144 323.938-144H215.751ZM744-144v-72h72q0 30-21.15 51T744-144ZM144-744q0-29.7 21.15-50.85Q186.3-816 216-816v72h-72Z"/></svg>