<svg xmlns="http://www.w3.org/2000/svg" height="24" viewBox="0 -960 960 960" width="24"><path d="M306-186v-96h-66q-5.95 0-9.975-4.035-4.025-4.035-4.025-10t4.025-9.965q4.025-4 9.975-4h66v-118h-66q-5.95 0-9.975-4.035-4.025-4.035-4.025-10t4.025-9.965q4.025-4 9.975-4h66v-302q0-12.75 8.625-21.375T336-788h218q75.273 0 127.636 52.308Q734-683.385 734-608.192 734-533 681.636-480.5 629.273-428 554-428H334v118h146q5.95 0 9.975 4.035 4.025 4.035 4.025 10T489.975-286q-4.025 4-9.975 4H334v96q0 5.95-4.035 9.975-4.035 4.025-10 4.025T310-176.025q-4-4.025-4-9.975Zm28-270h220q62.971 0 107.486-44.52Q706-545.04 706-608.02T661.486-715.5Q616.971-760 554-760H334v304Z"/></svg>