<svg xmlns="http://www.w3.org/2000/svg" height="20" viewBox="0 -960 960 960" width="20"><path d="M456-108q-81 0-136.5-59T264-306v-421q0-57.338 40.212-98.169Q344.425-866 402-866q59.575 0 98.788 43.213Q540-779.575 540-721v331h-40v-337q0-40.88-28.387-69.94-28.388-29.06-69.5-29.06Q361-826 332.5-796.44T304-725v426q0 64 44.538 107.5T455.619-148Q490-148 519-162.5t51-38.5v55.819Q546-127 517.052-117.5T456-108Zm206-170.252h-98q-4.25 0-7.125-2.909T554-288.269q0-4.199 2.875-7.004 2.875-2.805 7.125-2.805h98v-97.688q0-4.184 2.825-7.209 2.824-3.025 7-3.025 4.175 0 7.049 2.875 2.874 2.875 2.874 7.125v98h98.168q4.286 0 7.185 2.885t2.899 7.15q0 4.265-2.899 7.115-2.899 2.85-7.185 2.85h-98.168v98q0 4.25-2.909 7.125T671.965-170q-4.265 0-7.115-2.899-2.85-2.899-2.85-7.185v-98.168ZM456-285v39q-37 0-60.5-26.52T372-334v-386q0-8.067 5.953-14.033 5.954-5.967 14-5.967Q400-740 406-734.033q6 5.966 6 14.033v391q0 18.7 12.65 31.35Q437.3-285 456-285Zm152-207v-228q0-8.067 5.953-14.033 5.954-5.967 14-5.967Q636-740 642-734.033q6 5.966 6 14.033v228h-40Z"/></svg>