<svg xmlns="http://www.w3.org/2000/svg" height="20" viewBox="0 -960 960 960" width="20"><path d="M577-96v-240h72v141q51-59 73.5-133T745-480q0-78-22.5-152T649-765v141h-72v-240h240v72h-98q51 67 74.5 147T817-480q0 85-23.5 165T719-168h98v72H577ZM299-289h-67v46h67v-46Zm113 0h-67v46h67v-46Zm0-163v28.784h76V-381h-76.41v33H370v-33h-96v33h-42v-33.228h-76V-423h76.41v-29H274v29h96v-29h42ZM172.785-96Q168-108 160.5-118.5T144-138q40.264-5.613 78.132-17.306Q260-167 282-201H152v-42h38.408v-87.786H298.91V-368H345v37.214h113.373V-243H492v42H361q27.874 28.079 63.437 44.54Q460-140 500-138q-8 9-14 20t-10.808 22Q430-101 391-123q-39-22-67-57-23.926 37.895-65.558 55.447Q216.81-107 172.785-96Zm32.722-445L160-563q27-39 46.11-82.043Q225.22-688.087 236-734h-76v-51h88.126Q252-805 254-824.667q2-19.666 3-39.333l50 17q0 17-3.5 33.5T295-780h29q29 0 48 21t20 49.897q1 34.677-4 68.39T371-575q-2.906 9-9.203 17-6.297 8-14.047 13-7.75 5-16.75 7.5t-18.655.682L266-545l-9-46h46.316Q312-591 321-593.436q9-2.436 12-10.231Q342-629 344-655.5t1-52.5q0-13.6-9.5-23.8Q326-742 312-742h-26q-12 54-32.5 103.5T205.507-541ZM438-813q20 32 37 67t30 71l-50 21q-8-38-24-72.5T392-792l46-21Z"/></svg>