<svg xmlns="http://www.w3.org/2000/svg" height="24" viewBox="0 -960 960 960" width="24"><path d="M360-480q-17 0-28.5-11.5T320-520q0-17 11.5-28.5T360-560h240q17 0 28.5 11.5T640-520q0 17-11.5 28.5T600-480H360Zm0-160q-17 0-28.5-11.5T320-680q0-17 11.5-28.5T360-720h240q17 0 28.5 11.5T640-680q0 17-11.5 28.5T600-640H360ZM246.783-413.001h281.912q32.074 0 59.723 13.825 27.65 13.825 46.452 39.263l78.347 102.086v-535.39H246.783v380.216Zm0 246.218h402.433l-97.695-128.304q-4.15-5.606-10.03-8.759-5.879-3.153-12.796-3.153H246.783v140.216ZM713.217-60.782H246.783q-44.305 0-75.153-30.848-30.848-30.848-30.848-75.153v-626.434q0-44.305 30.848-75.153 30.848-30.848 75.153-30.848h466.434q44.305 0 75.153 30.848 30.848 30.848 30.848 75.153v626.434q0 44.305-30.848 75.153-30.848 30.848-75.153 30.848ZM246.783-166.783v-626.434 626.434Zm0-140.216v-106.002 106.002Z"/></svg>