<svg xmlns="http://www.w3.org/2000/svg" height="20" viewBox="0 -960 960 960" width="20"><path d="M371.96-500h215.757q6.783 0 11.533-4.547 4.75-4.547 4.75-11.269 0-6.723-4.588-11.453Q594.823-532 588.04-532H372.283q-6.783 0-11.533 4.547-4.75 4.547-4.75 11.269 0 6.723 4.588 11.453Q365.177-500 371.96-500Zm0-144h215.757q6.783 0 11.533-4.547 4.75-4.547 4.75-11.269 0-6.723-4.588-11.453Q594.823-676 588.04-676H372.283q-6.783 0-11.533 4.547-4.75 4.547-4.75 11.269 0 6.723 4.588 11.453Q365.177-644 371.96-644Zm353.502 466.462L609.34-329.303q-12.186-16.543-30.039-25.62Q561.448-364 540-364H232v-403.385q0-24.315 16.162-40.465Q264.324-824 288.656-824h383.012Q696-824 712-807.85t16 40.465v574.77q0 4.313-.384 8.195-.385 3.882-2.154 6.882ZM288.615-136q-24.315 0-40.465-16.15Q232-168.3 232-192.615V-332h308q12.662 0 24.625 5.536 11.962 5.537 20.12 16.356l123.717 162.616q-7.308 4.877-16.916 8.185Q681.938-136 671.385-136h-382.77Z"/></svg>