<svg xmlns="http://www.w3.org/2000/svg" height="20" viewBox="0 -960 960 960" width="20"><path d="M91.478-379.478v-201.044h153.044v131.218h-27.67l29.931 69.826h-57.609l-29-64h-11.652v64H91.478Zm192 0v-57.044h96v-14.956h-96v-129.044h153.044v57.044h-96v14.956h96v129.044H283.478Zm261.174 0-74.826-201.044h57.044l44.608 108.695 45.174-108.695h56.478l-74.26 201.044h-54.218Zm170.826 0v-201.044h153.044v153.044h-96v48h-57.044ZM148.522-500.522h38.956v-22.956h-38.956v22.956Zm624 16h38.956v-38.956h-38.956v38.956Z"/></svg>