<svg xmlns="http://www.w3.org/2000/svg" height="20" viewBox="0 -960 960 960" width="20"><path d="M94.087-382.087v-195.826h147.826v127.63h-28.322l29.279 68.196h-52.066l-29-64h-15.891v64H94.087Zm192 0v-51.826h96v-20.174h-96v-123.826h147.826v51.826h-96v20.174h96v123.826H286.087Zm262.804 0-73.195-195.826h51.826l46.565 115.217 46.804-115.217h51.587l-72.956 195.826h-50.631Zm169.196 0v-195.826h147.826v147.826h-96v48h-51.826ZM145.913-497.913h44.174v-28.174h-44.174v28.174Zm624 16h44.174v-44.174h-44.174v44.174Z"/></svg>