<svg xmlns="http://www.w3.org/2000/svg" height="24" viewBox="0 -960 960 960" width="24"><path d="M570.001-333.847h59.998v-116.154h116.154v-59.998H629.999v-116.154h-59.998v116.154H453.847v59.998h116.154v116.154ZM240-161.54q-99.769-38-159.883-124.961Q20-373.462 20-480t60.115-193.499Q140.232-760.46 240-798.46V-732q-74 35-117 103T80-480q0 81 43 149t117 103v66.46Zm360.022 21.539q-70.791 0-132.637-26.77-61.846-26.769-107.846-72.768-45.999-46-72.768-107.824-26.77-61.824-26.77-132.615 0-70.791 26.77-132.637 26.769-61.846 72.768-107.846 46-45.999 107.824-72.768 61.824-26.77 132.615-26.77 70.791 0 132.637 26.77 61.846 26.769 107.846 72.768 45.999 46 72.768 107.824 26.77 61.824 26.77 132.615 0 70.791-26.77 132.637-26.769 61.846-72.768 107.846-46 45.999-107.824 72.768-61.824 26.77-132.615 26.77Z"/></svg>