<svg xmlns="http://www.w3.org/2000/svg" height="24" viewBox="0 -960 960 960" width="24"><path d="m241.086-296.043 55.739-95.478q-67.696-4.522-112.717-53.501Q139.086-494 139.086-560q0-71.087 49.826-120.631 49.826-49.543 120.914-49.543 71.087 0 120.63 49.543Q480-631.087 480-560q0 23.21-5.217 42.887-5.218 19.678-15.087 37.113L325.348-246.999q-6.696 11.261-17.653 17.891-10.956 6.631-24.348 6.631-28 0-42.326-24.522-14.327-24.522.065-49.044Zm380.349.565 55.739-96.043q-67.696-4.522-112.435-53.501Q520-494 520-560q0-71.087 49.544-120.631 49.543-49.543 120.63-49.543 71.088 0 120.914 49.543Q860.914-631.087 860.914-560q0 23.21-5.217 42.887-5.218 19.678-15.087 37.113L705.696-246.999q-6.695 11.261-17.652 17.891-10.957 6.631-24.348 6.631-28 0-42.044-24.24-14.043-24.239-.217-48.761ZM309.826-506.783q22.173 0 37.412-15.522 15.239-15.521 15.239-37.695t-15.356-37.695q-15.357-15.522-37.295-15.522-22.174 0-37.696 15.522-15.521 15.521-15.521 37.695t15.521 37.695q15.522 15.522 37.696 15.522Zm380.348 0q22.174 0 37.696-15.522 15.521-15.521 15.521-37.695t-15.521-37.695q-15.522-15.522-37.696-15.522-22.173 0-37.412 15.522-15.239 15.521-15.239 37.695t15.356 37.695q15.357 15.522 37.295 15.522ZM690.74-560Zm-380.914 0Z"/></svg>