<svg xmlns="http://www.w3.org/2000/svg" height="24" viewBox="0 -960 960 960" width="24"><path d="m280.461-297.692 78.77-136.923q-6.924 3.846-16.154 5.384-9.231 1.539-18.462 1.539-56 0-94.154-38.866-38.154-38.865-38.154-93.442 0-56 38.154-94.154 38.154-38.154 94.154-38.154 54.577 0 93.443 38.154 38.865 38.154 38.865 93.886 0 19.422-4.731 36.23-4.73 16.807-13.423 31.73L314.846-277.692q-2.503 4.5-7.009 7.25t-10.014 2.75q-11.515 0-17.246-10-5.731-10-.116-20Zm350.77 0L710-434.615q-6.923 3.846-16.154 5.384-9.231 1.539-18.461 1.539-56 0-94.154-38.866-38.154-38.865-38.154-93.442 0-56.769 38.154-94.539 38.154-37.769 94.154-37.769 54.577 0 93.442 38.154 38.866 38.154 38.866 93.886 0 19.422-4.731 36.23-4.731 16.807-13.423 31.73L665.616-277.692q-2.504 4.5-7.01 7.25t-10.014 2.75q-11.515 0-17.246-10-5.731-10-.115-20ZM324.615-472.308q36.539 0 62.116-25.577 25.576-25.577 25.576-62.115t-25.576-62.115q-25.577-25.577-62.116-25.577-36.538 0-62.115 25.577-25.577 25.577-25.577 62.115t25.577 62.115q25.577 25.577 62.115 25.577Zm350.77 0q36.538 0 62.115-25.577 25.577-25.577 25.577-62.115T737.5-622.115q-25.577-25.577-62.115-25.577-36.539 0-62.116 25.577-25.576 25.577-25.576 62.115t25.576 62.115q25.577 25.577 62.116 25.577Zm0-87.692Zm-350.77 0Z"/></svg>