<svg xmlns="http://www.w3.org/2000/svg" height="24" viewBox="0 -960 960 960" width="24"><path d="M440-504.615q-49.846 0-84.923-35.077Q320-574.769 320-624.615q0-49.847 35.077-84.924 35.077-35.077 84.923-35.077 49.846 0 84.923 35.077Q560-674.462 560-624.615q0 49.846-35.077 84.923-35.077 35.077-84.923 35.077ZM834.462-97.23l-92.308-92.308q-19.462 13.538-40.385 20-20.923 6.461-41.769 6.461-57.308 0-97.116-39.807-39.807-39.808-39.807-97.116t39.807-97.116q39.808-39.807 97.116-39.807t97.116 39.807q39.807 39.808 39.807 97.116 0 20.846-6.461 41.769-6.462 20.923-20 40.385l92.308 92.308q5.615 5.615 6 13.769.384 8.154-6 14.538-6.385 6.385-14.154 6.385-7.77 0-14.154-6.385ZM660-203.077q41.231 0 69.077-27.846 27.846-27.846 27.846-69.077 0-41.231-27.846-69.077-27.846-27.846-69.077-27.846-41.231 0-69.077 27.846-27.846 27.846-27.846 69.077 0 41.231 27.846 69.077 27.846 27.846 69.077 27.846ZM474.846-413.846Q449-366.462 444.384-315.385 439.769-264.307 461-215.384H201.538q-17.615 0-29.577-11.962Q160-239.307 160-256.923V-281q0-25.538 14.307-46.462 14.308-20.923 38.924-33.615 43.307-21.385 112.307-40.154 69-18.769 149.308-12.615Z"/></svg>