<svg xmlns="http://www.w3.org/2000/svg" height="24" viewBox="0 -960 960 960" width="24"><path d="M440-504.615q-49.5 0-84.75-35.25T320-624.615q0-49.501 35.25-84.751 35.25-35.25 84.75-35.25t84.75 35.25Q560-674.116 560-624.615q0 49.5-35.25 84.75T440-504.615Zm0-40q33 0 56.5-23.5t23.5-56.5q0-33-23.5-56.5t-56.5-23.5q-33 0-56.5 23.5t-23.5 56.5q0 33 23.5 56.5t56.5 23.5ZM834.462-97.23l-92.308-92.308q-19.462 13.538-40.385 20-20.923 6.461-41.611 6.461-57.466 0-97.274-39.988-39.807-39.989-39.807-97.116t39.988-96.935q39.989-39.807 97.116-39.807t96.935 39.936q39.807 39.936 39.807 96.987 0 20.846-6.461 41.769-6.462 20.923-20 40.385l92.308 92.308q5.615 5.615 6 13.769.384 8.154-6 14.538-6.385 6.385-14.154 6.385-7.77 0-14.154-6.385ZM660-203.077q41.231 0 69.077-27.846 27.846-27.846 27.846-69.077 0-41.231-27.846-69.077-27.846-27.846-69.077-27.846-41.231 0-69.077 27.846-27.846 27.846-27.846 69.077 0 41.231 27.846 69.077 27.846 27.846 69.077 27.846Zm-500-53.846V-281q0-25.538 14.307-46.462 14.308-20.923 38.924-33.615 43.307-21.385 112.307-40.154 69-18.769 149.308-12.615-5.846 10.307-10.483 19.794-4.636 9.487-7.363 19.667-71.539-3.461-132.385 14.347-60.846 17.807-92.077 34.038-15.384 7.308-23.961 19.244Q200-294.82 200-281v25.615h247.769q1.923 9.693 5.423 20.078 3.5 10.384 7.808 19.923H201.538q-17.615 0-29.577-11.962Q160-239.307 160-256.923Zm280-367.692Zm7.769 369.23Z"/></svg>