<svg xmlns="http://www.w3.org/2000/svg" height="24" viewBox="0 -960 960 960" width="24"><path d="M134.564-200.565v-558.87q0-44.305 30.848-75.153 30.848-30.848 75.153-30.848h478.87q44.305 0 75.153 30.848 30.848 30.848 30.848 75.153v558.87h26.999q22.088 0 37.544 15.456 15.457 15.457 15.457 37.544 0 22.088-15.457 37.544-15.456 15.457-37.544 15.457h-744.87q-22.088 0-37.544-15.457-15.457-15.456-15.457-37.544 0-22.087 15.457-37.544 15.456-15.456 37.544-15.456h26.999Zm106.001-326.783h478.87v-232.087h-478.87v232.087Zm0 326.783h478.87v-232.087H527.348v59q14 10.584 22 26.461 8 15.877 8 34.93 0 32.391-22.478 54.87-22.479 22.478-54.87 22.478t-54.87-22.478q-22.478-22.479-22.478-54.87 0-19.249 8-34.756 8-15.507 22-26.201v-59.434H240.565v232.087Zm0-558.87h478.87-478.87Z"/></svg>