<svg xmlns="http://www.w3.org/2000/svg" height="24" viewBox="0 -960 960 960" width="24"><path d="M111.521-141.912v-242.261L457.523-480l-346.002-95.827v-242.261l624.568 264.871q-6.391-2.261-19-4.522-12.61-2.261-28.61-2.261-117 0-198.5 81.935t-81.5 198.935v5.369q0 2.544 1.13 5.37L111.521-141.912ZM688.479-80q-83 0-141.5-58.5t-58.5-141.5q0-83 58.5-141.5t141.5-58.5q83 0 141.5 58.5t58.5 141.5q0 83-58.5 141.5T688.479-80Zm0-74.913L814.696-281.13l-34.217-33.653-67.478 67.478v-157.782h-48.479v157.782l-68.043-67.478-33.653 33.653 125.653 126.217Z"/></svg>