<svg xmlns="http://www.w3.org/2000/svg" height="20" viewBox="0 -960 960 960" width="20"><path d="m664.308-215.846 97.231-97.231-27.847-27.846-50 50v-100h-38.769v100l-50-50-27.846 27.846 97.231 97.231Zm-472.616-34.615v-462.155l461.231 186h9.231q-23.077 1.539-37.385 2.808-14.308 1.269-33.923 9.577L223.692-661v124.385L393.539-480l-169.847 56.615V-299l235.385-93.769q-4.923 8.461-8.654 21.115-3.731 12.654-5.5 19.039V-354.154L191.692-250.461Zm472.616 99.077q-63.847 0-107.923-44.077-44.078-44.077-44.078-107.924 0-63.846 44.078-107.923 44.076-44.077 107.923-44.077 63.846 0 107.923 44.077 44.077 44.077 44.077 107.923 0 63.847-44.077 107.924-44.077 44.077-107.923 44.077ZM223.692-418.769V-661v362-119.769Z"/></svg>