<svg xmlns="http://www.w3.org/2000/svg" height="24" viewBox="0 -960 960 960" width="24"><path d="m672.308-183.846 109.231-109.231-21.847-21.846-72 72v-164h-30.769v164l-72-72-21.846 21.846 109.231 109.231Zm-504.616-34.615v-526.155l491.231 210h-2.769q-18.077 1.539-36.385 5.308-18.308 3.769-31.923 10.077L207.692-680v155.385L401.539-480l-193.847 44.615V-280l241.385-102.769q-4.923 11.461-8.154 25.115-3.231 13.654-4 23.039v.461L167.692-218.461Zm504.616 83.077q-66.847 0-113.423-46.577-46.578-46.577-46.578-113.424 0-66.846 46.578-113.423 46.576-46.577 113.423-46.577 66.846 0 113.423 46.577t46.577 113.423q0 66.847-46.577 113.424-46.577 46.577-113.423 46.577ZM207.692-382.769V-680v400-102.769Z"/></svg>