<svg xmlns="http://www.w3.org/2000/svg" height="24" viewBox="0 -960 960 960" width="24"><path d="M116.413-152.348v-240.956l331-86.696-331-86.696v-240.956l594.24 250.522q-4.435-.957-11.501-1.913-7.065-.957-15.565-.957-117 0-198.5 82.261t-81.5 199.261v2.272q0 1.076.478 2.271L116.413-152.348ZM683.587-80q-83 0-141.5-58.5t-58.5-141.5q0-83 58.5-141.5t141.5-58.5q83 0 141.5 58.5t58.5 141.5q0 83-58.5 141.5T683.587-80Zm0-77.848 122.631-122.63-30.631-30.392-70.087 70.087v-161.369h-43.587v161.369l-70.326-70.087-30.391 30.392 122.391 122.63Z"/></svg>