<svg xmlns="http://www.w3.org/2000/svg" height="24" viewBox="0 -960 960 960" width="24"><path d="m683.587-157.848 122.631-122.63-30.631-30.392-70.087 70.087v-161.369h-43.587v161.369l-70.326-70.087-30.391 30.392 122.391 122.63Zm-567.174 5.5v-655.304l594.24 250.522q-4.435-.957-11.501-1.913-7.065-.957-15.565-.957-35.717 0-68.152 8.359Q583-543.283 554-527.848L203.587-676.413v132.826L447.413-480l-243.826 63.587v132.826L421.5-376.304q-8.956 24.434-13.435 48.13-4.478 23.696-4.478 48.174v3.033q0 1.837.478 3.032L116.413-152.348ZM683.587-80q-83 0-141.5-58.5t-58.5-141.5q0-83 58.5-141.5t141.5-58.5q83 0 141.5 58.5t58.5 141.5q0 83-58.5 141.5T683.587-80Zm-480-296.304v-300.109 392.826-92.717Z"/></svg>