<svg xmlns="http://www.w3.org/2000/svg" height="20" viewBox="0 -960 960 960" width="20"><path d="M140.413-184.348v-192.956l299-102.696-299-102.696v-192.956l564.24 226.522q-4.935-.957-12.501-1.913-7.565-.957-16.565-.957-107 0-184 73.261t-80 180.261v2.272q0 1.076.478 2.271L140.413-184.348ZM675.361-96q-79.774 0-135.774-56.226t-56-136q0-79.774 56.226-135.774t136-56q79.774 0 135.774 56.226t56 136q0 79.774-56.226 135.774t-136 56Zm.226-93.848 110.631-110.63-36.631-36.392-48.087 48.087v-97.369h-51.587v97.369l-48.326-48.087-36.391 36.392 110.391 110.63Z"/></svg>