<svg xmlns="http://www.w3.org/2000/svg" height="20" viewBox="0 -960 960 960" width="20"><path d="M327.391-603.391h312q15.3 0 25.651-10.29 10.349-10.289 10.349-25.5 0-15.21-10.349-25.71-10.351-10.5-25.651-10.5h-312q-15.3 0-25.65 10.289-10.35 10.29-10.35 25.5 0 15.211 10.35 25.711 10.35 10.5 25.65 10.5Zm0 315.391h209.218q15.3 0 25.65-10.289 10.35-10.29 10.35-25.5 0-15.211-10.35-25.711-10.35-10.5-25.65-10.5H327.391q-15.3 0-25.65 10.289-10.35 10.29-10.35 25.5 0 15.211 10.35 25.711 10.35 10.5 25.65 10.5Zm0-152.609h305.218q15.3 0 25.65-10.289 10.35-10.289 10.35-25.5t-10.35-25.711q-10.35-10.5-25.65-10.5H327.391q-15.3 0-25.65 10.29-10.35 10.289-10.35 25.5 0 15.21 10.35 25.71t25.65 10.5ZM222.783-124.782q-41.005 0-69.503-28.498-28.498-28.498-28.498-69.503v-514.434q0-41.005 28.498-69.503 28.498-28.498 69.503-28.498h514.434q41.005 0 69.503 28.498 28.498 28.498 28.498 69.503v514.434q0 41.005-28.498 69.503-28.498 28.498-69.503 28.498H222.783Zm0-98.001h514.434v-514.434H222.783v514.434Zm0-514.434v514.434-514.434Z"/></svg>