<svg xmlns="http://www.w3.org/2000/svg" height="20" viewBox="0 -960 960 960" width="20"><path d="M261.717-151.869q-95.363 0-162.246-66.653-66.884-66.652-66.884-161.299 0-80.853 46.858-142.625 46.859-61.772 124.533-80.25 27.435-91.956 103.631-148.695 76.195-56.74 172.391-56.74 118.196 0 202.25 80.575t86.685 196.86q68.855 10.775 113.667 64.877 44.811 54.102 44.811 124.536 0 78.089-56.511 133.751-56.511 55.663-134.619 55.663H531.087q-39.187 0-67.094-27.907-27.906-27.906-27.906-67.094v-184.934l-33.478 33.478q-12.718 12.718-30.316 12.718-17.597 0-30.315-12.718-12.717-12.717-12.717-30.315t12.717-30.315l104.25-104.011q6.807-6.859 15.811-10.739 9.004-3.881 17.961-3.881 8.957 0 17.961 3.881 9.004 3.88 15.811 10.739l104.25 104.011q12.717 12.717 12.717 30.315t-12.717 30.315q-12.718 12.718-30.315 12.718-17.598 0-30.316-12.718l-33.478-33.478v184.934h213.171q39.764 0 67.546-27.67 27.783-27.669 27.783-67.347t-27.703-67.461q-27.702-27.782-67.427-27.782h-62.531v-82.445q0-80.325-57.12-136.94-57.121-56.615-137.695-56.615-81.107 0-137.631 57.909-56.525 57.909-56.525 139.254h-22.644q-56.156 0-95.853 39.576-39.697 39.577-39.697 95.214 0 55.638 39.281 94.973 39.281 39.334 94.849 39.334h42.87q19.152 0 33.326 14.174t14.174 33.326q0 19.153-14.174 33.327t-33.326 14.174h-42.87ZM480-432.5Z"/></svg>