<svg xmlns="http://www.w3.org/2000/svg" height="20" viewBox="0 -960 960 960" width="20"><path d="M377-427.087 174.826-224.913Q160.391-210.478 140-210.978t-34.826-14.935q-14.435-14.435-14.435-35.446 0-21.011 14.435-35.445l238-238q13.435-13.435 33.826-13.435t33.826 13.435L536.522-408.87l56.5-63.782-213.979-198.044-204.217 204.218Q160.391-452.043 140-452.043t-34.826-14.435q-14.435-14.435-14.435-35.326 0-20.892 14.435-35.327l239.522-240.76q13.913-13.914 32.804-13.674 18.891.239 33.326 13.152l248.609 231.391 126.261-141.543q13.434-15.674 33.326-16.294 19.891-.619 34.804 14.055 13.674 13.434 14.294 32.206.619 18.772-11.816 32.446L728.848-482.413l119.456 109.609q15.435 14.913 15.816 35.685.38 20.771-15.055 36.206-14.913 14.913-34.424 15.294-19.511.38-34.945-13.772l-117.5-108.652-90.892 103.891q-13.674 15.674-34.445 15.913-20.772.239-35.685-14.674L377-427.087Z"/></svg>