<svg xmlns="http://www.w3.org/2000/svg" height="24" viewBox="0 -960 960 960" width="24"><path d="M380-409.477 179.044-208.521Q162.652-192.129 140-192.129q-22.652 0-39.044-16.392-16.391-16.391-16.391-39.326 0-22.935 16.391-39.327l242-242q15.392-15.391 37.044-15.391 21.652 0 37.044 15.391L538.87-406.783l53.999-61.304-212.13-204.739L179.044-471.13Q162.652-454.739 140-454.739q-22.652 0-39.044-16.391-16.391-16.392-16.391-39.044 0-22.653 16.391-39.044l241.87-242.435Q358.348-807.175 380-807.11q21.652.065 37.044 15.587L667.391-550.87l118.435-134.739q14.391-16.956 37.544-17.239 23.152-.282 39.674 15.674 14.957 14.392 15.739 35.262.783 20.869-13.609 36.826l-122.26 137.565 115.26 110.347q17.392 16.522 17.109 39.892-.282 23.37-16.674 39.761-16.522 16.522-39.457 16.24-22.935-.283-39.326-16.37l-111-106.087-90.652 102.652q-14.956 16.957-37.826 18.022-22.87 1.065-39.392-15.457L380-409.477Z"/></svg>