<svg xmlns="http://www.w3.org/2000/svg" height="24" viewBox="0 -960 960 960" width="24"><path d="M384.065-888.131q84.674 0 159.109 32.098t129.631 87.294q55.195 55.195 87.293 129.63Q792.196-564.674 792.196-480t-32.098 159.109Q728-246.456 672.805-191.261q-55.196 55.196-129.631 87.294T384.065-71.869q-57.543 0-111.989-16.49Q217.63-104.848 167.804-134q93.957-54.717 151.044-145.88 57.087-91.163 57.087-200.12 0-108.957-57.087-200.12Q261.761-771.283 167.804-826q49.826-29.152 104.272-45.641 54.446-16.49 111.989-16.49Z"/></svg>