<svg xmlns="http://www.w3.org/2000/svg" height="24" viewBox="0 -960 960 960" width="24"><path d="M476.767-260Q494-260 505.5-271.267q11.5-11.268 11.5-28.5Q517-317 505.733-328.5q-11.268-11.5-28.5-11.5Q460-340 448.5-328.733q-11.5 11.268-11.5 28.5Q437-283 448.267-271.5q11.268 11.5 28.5 11.5Zm0-180Q494-440 505.5-451.267q11.5-11.268 11.5-28.5Q517-497 505.733-508.5q-11.268-11.5-28.5-11.5Q460-520 448.5-508.733q-11.5 11.268-11.5 28.5Q437-463 448.267-451.5q11.268 11.5 28.5 11.5Zm0-180Q494-620 505.5-631.267q11.5-11.268 11.5-28.5Q517-677 505.733-688.5q-11.268-11.5-28.5-11.5Q460-700 448.5-688.733q-11.5 11.268-11.5 28.5Q437-643 448.267-631.5q11.268 11.5 28.5 11.5ZM329-172v-104q-35-8-49.5-28.5T265-348h64v-108q-35-8-49.5-28.5T265-528h64v-108q-35-8-49.5-28.5T265-708h64v-80h296v80h70q0 23-17.5 43.5T625-636v108h70q0 23-17.5 43.5T625-456v108h70q0 23-17.5 43.5T625-276v104H329Zm28-28h240v-560H357v560Zm0 0v-560 560Z"/></svg>