<svg xmlns="http://www.w3.org/2000/svg" height="20" viewBox="0 -960 960 960" width="20"><path d="M476.767-284q11.233 0 19.733-8.267 8.5-8.268 8.5-19.5 0-11.233-8.267-19.733-8.268-8.5-19.5-8.5-11.233 0-19.733 8.267-8.5 8.268-8.5 19.5 0 11.233 8.267 19.733 8.268 8.5 19.5 8.5Zm0-168q11.233 0 19.733-8.267 8.5-8.268 8.5-19.5 0-11.233-8.267-19.733-8.268-8.5-19.5-8.5-11.233 0-19.733 8.267-8.5 8.268-8.5 19.5 0 11.233 8.267 19.733 8.268 8.5 19.5 8.5Zm0-168q11.233 0 19.733-8.267 8.5-8.268 8.5-19.5 0-11.233-8.267-19.733-8.268-8.5-19.5-8.5-11.233 0-19.733 8.267-8.5 8.268-8.5 19.5 0 11.233 8.267 19.733 8.268 8.5 19.5 8.5ZM337-196v-122q-29-6-34.5-23t-5.5-31h40v-95q-29-5-34.5-22t-5.5-31h40v-95q-29-5-34.5-22t-5.5-31h40v-96h280v96h46q0 14-8.5 30.5T617-615v95h46q0 14-8.5 30.5T617-467v95h46q0 14-8.5 31T617-318v122H337Z"/></svg>