<svg xmlns="http://www.w3.org/2000/svg" height="24" viewBox="0 -960 960 960" width="24"><path d="M360-380h250q29.846 0 49.923-20.726T680-450.149q0-28.697-19.346-49.043-19.346-20.347-48.192-20.808H584l-8.461-29.231q-9.286-31.846-35.715-51.308-26.428-19.461-60-19.461-29.286 0-53.286 15.731-24 15.73-36.384 42.192l-10 22.308h-23.846q-32.13 1.335-54.219 24.372Q280-492.361 280-460.31q0 33.387 23.333 56.849Q326.667-380 360-380Zm0-40q-17 0-28.5-11.5T320-460q0-17 11-28t27-12h48l20-45q8-17 22.5-26t31.5-9q20 0 36 11.5t21 31.5l16 57h58q13 0 21 8.5t8 21.5q0 12-8.5 21t-21.5 9H360Zm120.134 300q-74.673 0-140.41-28.339-65.737-28.34-114.365-76.922-48.627-48.582-76.993-114.257Q120-405.194 120-479.866q0-74.673 28.339-140.41 28.34-65.737 76.922-114.365 48.582-48.627 114.257-76.993Q405.194-840 479.866-840q74.673 0 140.41 28.339 65.737 28.34 114.365 76.922 48.627 48.582 76.993 114.257Q840-554.806 840-480.134q0 74.673-28.339 140.41-28.34 65.737-76.922 114.365-48.582 48.627-114.257 76.993Q554.806-120 480.134-120Z"/></svg>