<svg xmlns="http://www.w3.org/2000/svg" height="20" viewBox="0 -960 960 960" width="20"><path d="M479.789-288q10.596 0 18.788-7.982t8.192-18.577q0-10.595-7.982-18.787-7.981-8.193-18.576-8.193-10.596 0-18.788 7.982t-8.192 18.577q0 10.595 7.982 18.788Q469.194-288 479.789-288Zm-156 0q10.596 0 18.788-7.982t8.192-18.577q0-10.595-7.982-18.787-7.981-8.193-18.576-8.193-10.596 0-18.788 7.982t-8.192 18.577q0 10.595 7.982 18.788Q313.194-288 323.789-288Zm312 0q10.596 0 18.788-7.982t8.192-18.577q0-10.595-7.982-18.787-7.981-8.193-18.576-8.193-10.596 0-18.788 7.982t-8.192 18.577q0 10.595 7.982 18.788Q625.194-288 635.789-288ZM184-184v-592h592v592H184Zm32-32h528v-528H216v528Zm0-528v528-528Z"/></svg>