<svg xmlns="http://www.w3.org/2000/svg" height="24" viewBox="0 -960 960 960" width="24"><path d="M480-280q14.692 0 25.038-10.346t10.346-25.038q0-14.692-10.346-25.038-10.346-10.347-25.038-10.347t-25.038 10.347q-10.346 10.346-10.346 25.038t10.346 25.038Q465.308-280 480-280Zm-160 0q14.692 0 25.038-10.346t10.346-25.038q0-14.692-10.346-25.038-10.346-10.347-25.038-10.347t-25.038 10.347q-10.346 10.346-10.346 25.038t10.346 25.038Q305.308-280 320-280Zm320 0q14.692 0 25.038-10.346t10.346-25.038q0-14.692-10.346-25.038-10.346-10.347-25.038-10.347t-25.038 10.347q-10.346 10.346-10.346 25.038t10.346 25.038Q625.308-280 640-280ZM140.001-140.001v-679.998h679.998v679.998H140.001ZM200-200h560v-560H200v560Zm0-560v560-560Z"/></svg>