<svg xmlns="http://www.w3.org/2000/svg" height="20" viewBox="0 -960 960 960" width="20"><path d="M213.739-213.739h532.522v-532.522H213.739v532.522Zm-88.957-9.044v-514.434q0-41.005 28.498-69.503 28.498-28.498 69.503-28.498h514.434q41.005 0 69.503 28.498 28.498 28.498 28.498 69.503v514.434q0 41.005-28.498 69.503-28.498 28.498-69.503 28.498H222.783q-41.005 0-69.503-28.498-28.498-28.498-28.498-69.503Zm355.429-368.391q-18.814 0-31.752-12.727-12.938-12.727-12.938-31.541t12.727-31.752q12.727-12.937 31.541-12.937t31.752 12.727q12.938 12.727 12.938 31.541t-12.727 31.752q-12.727 12.937-31.541 12.937ZM325.123-435.521q-18.814 0-31.751-12.727-12.938-12.727-12.938-31.541t12.727-31.752q12.727-12.938 31.541-12.938t31.752 12.727q12.937 12.727 12.937 31.541t-12.727 31.752q-12.727 12.938-31.541 12.938Zm155.088 0q-18.814 0-31.752-12.727-12.938-12.727-12.938-31.541t12.727-31.752q12.727-12.938 31.541-12.938t31.752 12.727q12.938 12.727 12.938 31.541t-12.727 31.752q-12.727 12.938-31.541 12.938Zm155.652 0q-18.814 0-31.752-12.727-12.937-12.727-12.937-31.541t12.727-31.752q12.727-12.938 31.541-12.938t31.752 12.727q12.937 12.727 12.937 31.541t-12.727 31.752q-12.727 12.938-31.541 12.938ZM480.211-280.434q-18.814 0-31.752-12.727-12.938-12.727-12.938-31.541t12.727-31.752q12.727-12.937 31.541-12.937t31.752 12.727q12.938 12.727 12.938 31.541t-12.727 31.751q-12.727 12.938-31.541 12.938Z"/></svg>