<svg xmlns="http://www.w3.org/2000/svg" height="20" viewBox="0 -960 960 960" width="20"><path d="M225.231-225.231h509.538v-509.538H225.231v509.538ZM184-240.615v-478.77q0-23.354 16.631-39.984Q217.261-776 240.615-776h478.77q23.354 0 39.984 16.631Q776-742.739 776-719.385v478.77q0 23.354-16.631 39.984Q742.739-184 719.385-184h-478.77q-23.354 0-39.984-16.631Q184-217.261 184-240.615Zm296.211-356.462q-8.673 0-14.75-5.866-6.076-5.867-6.076-14.539t5.866-14.749q5.866-6.077 14.538-6.077 8.673 0 14.75 5.867 6.076 5.866 6.076 14.538t-5.866 14.749q-5.866 6.077-14.538 6.077ZM342.518-459.385q-8.672 0-14.749-5.866t-6.077-14.538q0-8.673 5.867-14.75 5.866-6.076 14.538-6.076t14.749 5.866q6.077 5.866 6.077 14.538 0 8.673-5.866 14.75-5.867 6.076-14.539 6.076Zm137.693 0q-8.673 0-14.75-5.866-6.076-5.866-6.076-14.538 0-8.673 5.866-14.75 5.866-6.076 14.538-6.076 8.673 0 14.75 5.866 6.076 5.866 6.076 14.538 0 8.673-5.866 14.75-5.866 6.076-14.538 6.076Zm137.692 0q-8.672 0-14.749-5.866t-6.077-14.538q0-8.673 5.866-14.75 5.867-6.076 14.539-6.076t14.749 5.866q6.077 5.866 6.077 14.538 0 8.673-5.867 14.75-5.866 6.076-14.538 6.076ZM480.211-321.692q-8.673 0-14.75-5.867-6.076-5.866-6.076-14.538t5.866-14.749q5.866-6.077 14.538-6.077 8.673 0 14.75 5.866 6.076 5.867 6.076 14.539t-5.866 14.749q-5.866 6.077-14.538 6.077Z"/></svg>