<svg xmlns="http://www.w3.org/2000/svg" height="20" viewBox="0 -960 960 960" width="20"><path d="M680.738-195.086v39.521q0 12.992 9.744 22.736 9.744 9.743 22.735 9.743t22.735-9.743q9.744-9.744 9.744-22.736v-39.521h39.521q12.991 0 22.735-9.743 9.744-9.744 9.744-22.736 0-12.991-9.744-22.735-9.744-9.743-22.735-9.743h-39.521v-39.522q0-12.991-9.744-22.735-9.744-9.743-22.735-9.743t-22.735 9.743q-9.744 9.744-9.744 22.735v39.522h-39.521q-12.991 0-22.735 9.743-9.744 9.744-9.744 22.735 0 12.992 9.744 22.736 9.744 9.743 22.735 9.743h39.521Zm32.253 159.521q-79.774 0-135.774-56.226t-56-136q0-79.774 56.226-135.774t136-56q79.774 0 135.774 56.227 56 56.226 56 136 0 79.773-56.226 135.773t-136 56ZM330.783-591.52h298.434q15.3 0 25.65-10.29 10.35-10.289 10.35-25.5 0-15.21-10.35-25.71t-25.65-10.5H330.783q-15.3 0-25.65 10.289-10.35 10.29-10.35 25.5 0 15.211 10.35 25.711 10.35 10.5 25.65 10.5Zm139.391 468.435H222.783q-40.426 0-69.213-28.788-28.788-28.788-28.788-69.213v-514.434q0-40.426 28.788-69.214 28.787-28.788 69.213-28.788h514.434q40.426 0 69.213 28.788 28.788 28.788 28.788 69.214v277.218q-28.814-15.348-59.451-23.022-30.637-7.674-62.55-7.674-12 0-23.793.405-11.793.406-24.207 2.029-3.304-12.522-13.804-20.13-10.5-7.609-22.196-7.609H330.783q-15.3 0-25.65 10.289-10.35 10.29-10.35 25.5 0 15.211 10.35 25.711 10.35 10.5 25.65 10.5h228.869q-22 15.304-40.565 34.608-18.565 19.305-32.696 42.609H330.783q-15.3 0-25.65 10.289-10.35 10.29-10.35 25.5 0 15.211 10.35 25.711 10.35 10.5 25.65 10.5h123.826q-3.696 15.957-5.544 32.761-1.848 16.805-.848 33.327 1 24.695 6.913 52.739 5.913 28.044 15.044 51.174Z"/></svg>