<svg xmlns="http://www.w3.org/2000/svg" height="24" viewBox="0 -960 960 960" width="24"><path d="M206.783-99.086q-43.726 0-74.863-31.138-31.138-31.138-31.138-74.863v-546.434q0-43.726 31.138-74.864 31.137-31.138 74.863-31.138h546.434q43.726 0 74.863 31.138 31.138 31.138 31.138 74.864v287.218q-24.087-15.218-50.587-25.674-26.501-10.457-55.414-14.588v-246.956H206.783v546.434h227.304q1.869 29.348 9.782 55.848 7.913 26.501 20.305 50.153H206.783Zm0-127.913v21.912-546.434 246.956-2.434 280Zm80-98.088q0 17 11.5 28.5t28.5 11.5h112.826q4.13-21 12.043-41 7.913-20 18.174-39H326.783q-17 0-28.5 11.5t-11.5 28.5Zm0-153.217q0 17 11.5 28.5t28.5 11.5h202.869q29.739-26.044 66.131-42.935 36.391-16.891 77.434-23.326-7.304-6.522-18.304-10.13-11-3.609-21.696-3.609H326.783q-17 0-28.5 11.5t-11.5 28.5Zm0-153.217q0 17 11.5 28.5t28.5 11.5h306.434q17 0 28.5-11.5t11.5-28.5q0-17-11.5-28.5t-28.5-11.5H326.783q-17 0-28.5 11.5t-11.5 28.5ZM713.217-27.565q-83 0-141.5-58.5t-58.5-141.5q0-83 58.5-141.5t141.5-58.5q83 0 141.5 58.5t58.5 141.5q0 83-58.5 141.5t-141.5 58.5Zm-28.479-171.521v71.521q0 11.392 8.544 19.936 8.544 8.543 19.935 8.543 11.392 0 19.935-8.543 8.544-8.544 8.544-19.936v-71.521h71.521q11.392 0 19.935-8.543 8.544-8.544 8.544-19.936 0-11.391-8.544-19.935-8.543-8.543-19.935-8.543h-71.521v-71.522q0-11.391-8.544-19.935-8.543-8.543-19.935-8.543-11.391 0-19.935 8.543-8.544 8.544-8.544 19.935v71.522h-71.521q-11.391 0-19.935 8.543-8.544 8.544-8.544 19.935 0 11.392 8.544 19.936 8.544 8.543 19.935 8.543h71.521Z"/></svg>