<svg xmlns="http://www.w3.org/2000/svg" height="24" viewBox="0 -960 960 960" width="24"><path d="m480-607.913-35.696 52.826q-28.695 44.826-39.326 69.304-10.63 24.479-10.63 47.479 0 35.261 25.195 60.456 25.196 25.196 60.457 25.196 35.261 0 60.457-25.196 25.195-25.195 25.195-60.456 0-23-10.63-47.479-10.631-24.478-39.326-69.304L480-607.913Zm0 382.435q-106.261 0-180.391-74.131-74.131-74.13-74.131-180.391t74.131-180.391q74.13-74.131 180.391-74.131t180.391 74.131q74.131 74.13 74.131 180.391t-74.131 180.391Q586.261-225.478 480-225.478Zm362.261-235.304v-51.305h-38.304q-9.304-92.435-64-164.414-54.696-71.978-137.131-104.978h239.435v-51.305H942.61v372.002H842.261ZM17.391-127.216v-372.002h100.348v51.305h38.304q9.304 92.435 64 164.414 54.696 71.978 137.131 104.978H117.739v51.305H17.39Z"/></svg>