<svg xmlns="http://www.w3.org/2000/svg" height="20" viewBox="0 -960 960 960" width="20"><path d="M479.789-309.538q8.673 0 14.75-5.867 6.076-5.866 6.076-14.538t-5.866-14.749q-5.866-6.077-14.538-6.077-8.673 0-14.75 5.866-6.076 5.867-6.076 14.539t5.866 14.749q5.866 6.077 14.538 6.077Zm.027-116.308q6.723 0 11.453-4.6 4.731-4.6 4.731-11.4v-208q0-6.8-4.547-11.4-4.547-4.6-11.269-4.6-6.723 0-11.453 4.6-4.731 4.6-4.731 11.4v208q0 6.8 4.547 11.4 4.547 4.6 11.269 4.6ZM480.409-136q-70.948 0-133.685-26.839-62.737-26.84-109.865-73.922-47.127-47.082-73.993-109.716Q136-409.111 136-480.325q0-71.214 26.839-133.451 26.84-62.237 73.922-109.365 47.082-47.127 109.716-73.993Q409.111-824 480.325-824q71.214 0 133.451 26.839 62.237 26.84 109.365 73.922 47.127 47.082 73.993 109.482Q824-551.357 824-480.409q0 70.948-26.839 133.685-26.84 62.737-73.922 109.865-47.082 47.127-109.482 73.993Q551.357-136 480.409-136ZM480-168q130 0 221-91t91-221q0-130-91-221t-221-91q-130 0-221 91t-91 221q0 130 91 221t221 91Zm0-312Z"/></svg>