<svg xmlns="http://www.w3.org/2000/svg" height="24" viewBox="0 -960 960 960" width="24"><path d="M388.326-242.87v-138.326h-59.522v-142.087q0-23 31.142-39.141 31.141-16.141 77.663-16.141 46.521 0 77.663 16.141 31.141 16.141 31.141 39.141v142.087h-59.522v138.326h-98.565Zm49.283-355.695q-25.283 0-42.283-17t-17-42.283q0-25.282 17-42.282 17-17 42.283-17 25.282 0 42.282 17 17 17 17 42.282 0 25.283-17 42.283t-42.282 17Zm0 486.696q-153.587 0-260.859-107.272Q69.478-326.413 69.478-480q0-76.674 29.098-143.609t78.793-116.63Q227.065-789.935 294-819.033t143.609-29.098q76.913 0 143.967 29.098 67.054 29.098 116.631 78.794 49.576 49.695 78.554 116.511 28.978 66.815 28.978 143.011v6.087l73-74L938.131-490 760.239-312.109 582.348-490l59.391-58.63 73 73v-5.327q.239-114.804-81.283-195.489-81.521-80.684-195.847-80.684-115.044 0-196.087 81.043Q160.478-595.043 160.478-480q.761 115.043 81.424 196.087 80.663 81.043 195.707 81.043 56.761 0 107.239-21.858 50.478-21.859 89.435-61.25l64.652 64.891q-50.196 50.87-117.087 80.044t-144.239 29.174Z"/></svg>