<svg xmlns="http://www.w3.org/2000/svg" height="20" viewBox="0 -960 960 960" width="20"><path d="M444-164.771q-98.538-13.615-165.268-88.153Q212.001-327.462 212.001-430q0-56 21.077-103.884t56.461-84.192l36.768 36.769q-28.846 28.615-45.576 68.038Q264-473.846 264-430q0 81 51.692 139.615Q367.385-231.769 444-217.769v52.998Zm72 .77V-217q76.615-14.539 128.308-73.462Q696-349.385 696-430q0-90-63-153t-153-63h-18.155l56.001 56.001-37.153 36.153L362.54-671.999l118.153-118.153 37.153 37.153-55.001 55H480q111.538 0 189.768 78.231 78.231 78.23 78.231 189.768 0 102.922-66.923 177.576Q614.153-177.771 516-164.001Z"/></svg>