<svg xmlns="http://www.w3.org/2000/svg" height="20" viewBox="0 -960 960 960" width="20"><path d="M444-124.216q-114.348-15.131-192.783-100.435-78.435-85.305-78.435-204.219 0-62.695 23-116.891 23-54.196 63-96.587l69.653 69.088q-26.044 27.869-41.848 65.326-15.804 37.456-15.804 79.064 0 78.74 49.804 135.196T444-223.783v99.567Zm72 0v-99.567q74.174-11.869 123.695-69.391 49.522-57.522 49.522-135.696 0-83.782-57.065-143.956-57.065-60.173-140.282-64.695h-9.261l49.392 49.391-57.218 56.218-158.567-158.567 158.567-159.132 57.218 57.218-56.305 56.305h8.826q126.218 0 214.457 90.218 88.239 90.218 88.239 217 0 118.914-78.435 205.001T516-124.216Z"/></svg>