<svg xmlns="http://www.w3.org/2000/svg" height="24" viewBox="0 -960 960 960" width="24"><path d="M426.999-153.782v-503.26l-26.956 26.956q-14.956 14.957-36.544 14.957-21.587 0-37.544-15.957-14.956-14.957-14.956-37.044 0-22.087 14.956-37.044l116.436-116.435q7.696-7.696 17.522-11.609 9.826-3.913 20.087-3.913t20.087 3.913q9.826 3.913 17.522 11.609l116.436 116.435q14.956 14.957 15.456 36.544.5 21.587-15.456 37.544-14.957 14.957-37.044 15.239-22.088.283-37.044-14.674l-26.956-26.521v68.347q0 95.999 61.717 170.673T730.174-292.87q18.957 13.392 23.305 34.697 4.348 21.304-10.609 36.261-17.957 17.957-42.392 19.522-24.435 1.565-44.957-12.826-37.651-26.478-68.064-54.826-30.413-28.347-54.456-59.565v175.825q0 22.087-15.457 37.544-15.457 15.456-37.544 15.456-22.087 0-37.544-15.456-15.457-15.457-15.457-37.544Z"/></svg>