<svg xmlns="http://www.w3.org/2000/svg" height="20" viewBox="0 -960 960 960" width="20"><path d="M222-196q-11.05 0-18.525-7.475Q196-210.95 196-222v-121q0-11.05 7.475-18.525Q210.95-369 222-369h517q10.625 0 17.812 7.475Q764-354.05 764-343v121q0 11.05-7.188 18.525Q749.625-196 739-196H222Zm0-193q-11.05 0-18.525-7.625Q196-404.25 196-414v-131q0-10.625 7.475-17.812Q210.95-570 222-570h517q10.625 0 17.812 7.188Q764-555.625 764-545v131q0 9.75-7.188 17.375Q749.625-389 739-389H222Zm0-201q-11.05 0-18.525-7.475Q196-604.95 196-616v-123q0-10.625 7.475-17.812Q210.95-764 222-764h517q10.625 0 17.812 7.188Q764-749.625 764-739v123q0 11.05-7.188 18.525Q749.625-590 739-590H222Z"/></svg>