<svg xmlns="http://www.w3.org/2000/svg" height="24" viewBox="0 -960 960 960" width="24"><path d="M241.769-160q-21.615 0-39.154-12.654-17.538-12.653-23.231-34.038L91.231-519Q87-534.154 96.577-547.077 106.154-560 122.307-560H310l154.461-232.77q2.693-4.154 7.077-6.461 4.385-2.308 9-2.308 4.616 0 9.001 2.308 4.384 2.307 7.076 6.461L649.539-560h188.154q16.153 0 26.115 12.923T868.77-519l-89.693 312.308q-5.692 21.385-23.231 34.038Q738.308-160 716.692-160H241.769ZM480-320q16.077 0 28.039-11.961Q520-343.923 520-360t-11.961-28.039Q496.077-400 480-400t-28.039 11.961Q440-376.077 440-360t11.961 28.039Q463.923-320 480-320ZM358.539-560h242.692L479.769-744.923 358.539-560Z"/></svg>