<svg xmlns="http://www.w3.org/2000/svg" height="20" viewBox="0 -960 960 960" width="20"><path d="M168-552h623-623Zm72 371.934v-108.196H132q-15.3 0-25.65-10.369Q96-309 96-324v-204q0-40 28-68t68-28h576q40 0 68 28t28 68v21q-17-8-35.065-12.529Q810.871-524.059 791-526q-5-11-15-18.5t-23-7.5H206q-16.15 0-27.075 11.04T168-513.6V-360h72v-36q0-15.3 10.35-25.65Q260.7-432 276-432h299q-12 16-21.559 33.778Q543.882-380.444 538-360H312v144h227q6.482 19.871 15.741 37.935Q564-160 576-144H276q-15.3 0-25.65-10.369Q240-164.738 240-180.066ZM720-291l94-93q11-11 25-11t25 10.522Q875-373 875-359q0 14-11 25L746-215q-11.182 11-26.091 11T694-215l-46-47q-11-10.636-11-24.818 0-14.182 11-25.66Q659-323 673-323.5t25 10.5l22 22ZM240-624v-120q0-30 21.15-51T312-816h336q29.7 0 50.85 21.15Q720-773.7 720-744v120h-72v-120H312v120h-72Z"/></svg>