<svg xmlns="http://www.w3.org/2000/svg" height="24" viewBox="0 -960 960 960" width="24"><path d="M172-548h615-615Zm34 416v-120h-97q-26 0-44.5-18.5T46-315v-205q0-64 44-109t107-45h566q64 0 107.5 45T914-520v36q-28-18-60-30t-67-15q-2-8-9-13.5t-16-5.5H197q-11 0-18 8.5t-7 19.5v142h34q0-8 5.5-13.5T225-397h298q-17 28-28 59.5T482-271H332v83h156q8 34 23 63.5T548-69H269q-26 0-44.5-18.5T206-132Zm512-166 97-97q18-18 43.5-18.5T903-396q19 19 19.5 45T904-306L762-165q-19 18-44 18t-44-18l-57-56q-19-19-19-45t19-45q18-18 44-18t44 18l13 13ZM206-674v-74q0-53 36.5-89.5T332-874h296q53 0 89.5 36.5T754-748v74H628v-74H332v74H206Z"/></svg>