<svg xmlns="http://www.w3.org/2000/svg" height="20" viewBox="0 -960 960 960" width="20"><path d="M198-572h570-570Zm94 349.934v-118.196h-88q-11.05 0-18.525-7.494Q178-355.25 178-366v-182q0-17.9 12.5-30.95T222-592h516q17.9 0 30.95 13.05T782-548v24q-6 1-11.065 2.471-5.064 1.47-9.935 2.529v-27q-5-11-15-18.5t-23-7.5H236q-16.15 0-27.075 11.04T198-533.6V-360h94v-22q0-11.05 7.475-18.525Q306.95-408 318-408h255q-1 6-2.059 10.278-1.059 4.278-2.941 9.722H312v172h246q1.482 5.871 4.241 10.435Q565-201 566-196H318q-11.05 0-18.525-7.494Q292-210.988 292-222.066ZM720-254l113-112q3.75-4 6.875-4t6.125 3.522q4 3.478 3.5 6.978-.5 3.5-3.5 6.5L739-245q-8.182 8-19.091 8T701-245l-35-35q-4-2.727-4-6.364 0-3.636 4-8.332 4-4.304 7-4.804t7 4.5l40 41ZM292-592v-88q0-21.75 15.275-36.875T344-732h272q21.45 0 36.725 15.275Q668-701.45 668-680v88h-20v-88q0-14-9-23t-23-9H344q-14 0-23 9t-9 23v88h-20Z"/></svg>