<svg xmlns="http://www.w3.org/2000/svg" height="20" viewBox="0 -960 960 960" width="20"><path d="M180-540h598-598Zm26 387.934v-108.196h-85q-24.3 0-41.65-17.369Q62-295 62-319v-209q0-53 37-91.5t90-38.5h582q53 0 90 38.5t37 91.5v27q-27-16-57.065-25.529Q810.871-536.059 778-538v3q-7-2-12.5-3.5T755-540H203q-10.15 0-16.575 8.04Q180-523.92 180-513.6V-378h26v4q0-6.3 4.35-10.65Q214.7-389 221-389h297q-13 27-20.559 56.278Q489.882-303.444 490-271H324v67h179q7.482 31.871 21.741 59.435Q539-117 559-93H265q-24.3 0-41.65-17.369Q206-127.738 206-152.066ZM720-323l78-77q18-18 41-18.5t41 17.022Q898-383 898.5-359.5T881-318L762-199q-18.182 17-42.091 17Q696-182 678-199l-46-46q-18-17.636-18-41.818t18-42.66Q649-347 673-347.5t41 17.5l6 7ZM206-658v-74q0-50 34.15-84T324-850h312q49.7 0 83.85 34.15Q754-781.7 754-732v74H636v-74H324v74H206Z"/></svg>