<svg xmlns="http://www.w3.org/2000/svg" height="20" viewBox="0 -960 960 960" width="20"><path d="m720-262.539 108.615-107.615q5.423-5.615 11.058-5.615t10.481 5.615q5.615 4.846 5.231 10.769-.385 5.924-5.231 10.77L740.615-238.077q-8.692 8.693-20.615 8.693-11.923 0-20.615-8.693l-37.539-37.769q-5.615-4.916-5.615-10.804 0-5.889 5.615-11.671 5.615-6.218 11.154-6.718t11.154 5.885L720-262.539ZM308.307-184q-11.73 0-20.019-8.288Q280-200.577 280-212.307V-328h-92.616q-11.731 0-20.019-8.288-8.288-8.289-8.288-20.019v-187.078q0-23 16.077-39.5t39.923-16.5h529.846q23 0 39.5 16.5t16.5 39.5v23.308q-8.268-1.308-16.672-.769-8.405.538-16.713.538-69 0-125.077 37.654t-81.384 101.116H312V-216h241.615q2.154 9.231 6.654 16.846 4.5 7.616 8.039 15.154H308.307ZM280-638.154v-56.752q0-23.71 16.481-40.094 16.48-16.385 40.134-16.385h286.77q23.654 0 40.134 16.481Q680-718.423 680-694.77v56.616H280Z"/></svg>