<svg xmlns="http://www.w3.org/2000/svg" height="24" viewBox="0 -960 960 960" width="24"><path d="M200-99.23v-40.001h160V-210H120v-40h240v-70.769H80v-40h280v-70.769H160v-40.001h290.154l-69.693-121.615 42.924-38.308 281.23 210.693V-99.23H200Zm95.384-446.078-37.769-27.615L280-601.615l23.923 18.153 19.462 38.154h-28.001Zm38.77-107.615L259.461-709l24.462-31.923 80.846 60-30.615 28Zm460.077 205.308L516.615-655.846 294.077-822.077l24.692-31.385 223.924 167.154 42.461-57.384-160.693-119.154 24.462-31.693 232.308 172.846 18.307-138.384 55.616-6.308 99.462 337.846-60.385 80.924Z"/></svg>