<svg xmlns="http://www.w3.org/2000/svg" height="20" viewBox="0 -960 960 960" width="20"><path d="m532.769-649.308-241.23-208.23 35.846-36.691 239.46 206.076-34.076 38.845Zm-118.385-20.153-40.306 35.999L253.232-738l36.23-38.46 124.922 106.999Zm303.23 27.46L441.231-880.922l35.23-37.845 211.154 179.923 24.154-119.693 77.307-6.154 52.23 359.922-59.691 68.46L741.77-470l46.615-53.692-45.078-250.926-25.693 132.617ZM314.693-534.154l-63.384-54.308 38.692-42.845 54.462 46.077 26.23 51.076h-56ZM408-308.386H92.001v-51.999H408v51.999Zm0 115.384H140.001V-245H408v51.998ZM236.001-77.618v-51.998h448.308V-378.77L488.921-542.31l65.309 118.54H188.001v-51.999h278.078l-59.847-109.308 55.461-53.153 274.614 236.845v323.767H236.001Zm391.845-493.306ZM528.154-278.77Z"/></svg>