<svg xmlns="http://www.w3.org/2000/svg" height="20" viewBox="0 -960 960 960" width="20"><path d="M236.001-77.618v-51.998H372v-63.386H140.001V-245H372v-63.386H92.001v-51.999H372v-63.385H188.001v-51.999h278.078l-59.847-109.308 55.461-53.153 274.614 236.845v323.767H236.001Zm78.692-456.536-63.384-54.308 38.692-42.845 54.462 46.077 26.23 51.076h-56Zm59.385-99.308L253.232-738l36.23-38.46 124.922 106.999-40.306 35.999Zm407.537 197.153L497.307-679.924 291.539-857.538l35.846-36.691 212.46 182.076 40.231-48.693-138.845-120.076 35.23-37.845 211.154 179.923 24.154-119.693 77.307-6.154 52.23 359.922-59.691 68.46Z"/></svg>