<svg xmlns="http://www.w3.org/2000/svg" height="24" viewBox="0 -960 960 960" width="24"><path d="M740-60v-120H620v-40h120v-120h40v120h120v40H780v120h-40ZM480.181-495.385q43.665 0 74.05-30.565 30.384-30.566 30.384-74.231 0-43.665-30.565-74.05-30.566-30.384-74.231-30.384-43.665 0-74.05 30.565-30.384 30.566-30.384 74.231 0 43.665 30.565 74.05 30.566 30.384 74.231 30.384ZM160-160v-640h640v369.385q-10-2.385-20-3.577-10-1.193-20-1.193-98.077 0-166.731 68.654T524.615-200q0 10 1.193 20 1.192 10 3.577 20H160Zm240-420v-40h40v40h-40Zm60 0v-40h40v40h-40Zm60 0v-40h40v40h-40Z"/></svg>