<svg xmlns="http://www.w3.org/2000/svg" height="20" viewBox="0 -960 960 960" width="20"><path d="M76.782-172.782v-614.436h806.436v255.002h-45l-53.001-.566v-53.912L480-407.694l-305.217-179v315.911h479.435v98.001H76.782ZM480-510.217l305.217-179H174.783l305.217 179ZM174.783-270.783V-689.217-270.783Zm551.435 98.001v-192h48v-48q0-29.7 21.212-50.85 21.213-21.15 51-21.15 29.788 0 50.788 21.15 21 21.15 21 50.85v48h48v192h-240Zm84-192h72v-48q0-15.3-10.29-25.65-10.289-10.35-25.5-10.35-15.21 0-25.71 10.35t-10.5 25.65v48Z"/></svg>