<svg xmlns="http://www.w3.org/2000/svg" height="20" viewBox="0 -960 960 960" width="20"><path d="m480-467.384 312-188.231L779.692-696 480-517 180.308-696 168-655.615l312 188.231ZM136-232v-496h688v145.231h-12q-74.445 0-126.915 52.65-52.47 52.65-52.47 126.581V-232H136Zm568.615 0v-182.769h48v-52.615q0-27.797 19.857-47.591t47.741-19.794q27.883 0 47.528 19.794 19.644 19.794 19.644 47.591v52.615h48V-232h-230.77Zm74.77-182.769h81.23v-52.318q0-17.136-11.827-29.024Q836.96-508 820.211-508q-16.749 0-28.788 11.889-12.038 11.888-12.038 29.024v52.318Z"/></svg>