<svg xmlns="http://www.w3.org/2000/svg" height="20" viewBox="0 -960 960 960" width="20"><path d="m480-449.694 312-183.615L785.846-696 480-517 174.154-696 168-633.309l312 183.615ZM116.001-212.001v-535.998h727.998v180.613h-22q-75.402 0-128.547 52.65-53.145 52.65-53.145 126.966v175.769H116.001Zm596.306 0v-187.385h48v-50.308q0-28.748 20.535-49.22 20.534-20.472 49.37-20.472 28.835 0 49.157 20.472 20.322 20.472 20.322 49.22v50.308h48v187.385H712.307Zm79.384-187.385h76.616v-50.159q0-16.218-11.059-27.337-11.058-11.119-27.038-11.119t-27.249 11.119q-11.27 11.119-11.27 27.337v50.159Z"/></svg>