<svg xmlns="http://www.w3.org/2000/svg" height="24" viewBox="0 -960 960 960" width="24"><path d="M467.692-120q-74.7 0-140.4-28.339-65.7-28.34-114.3-76.922-48.6-48.582-76.95-114.257-28.35-65.676-28.35-140.348 0-74.673 28.35-140.41t76.95-114.365q48.6-48.627 114.3-76.993Q392.992-840 467.692-840q65.77 0 128.654 23.384 62.885 23.385 110.591 68.06 10.602 9.928 10.602 23.165 0 13.237-9.693 22.929L522.616-518q-15.154 15.154-35.039 6.841-19.885-8.312-19.885-29.687V-800q-134 0-227 93t-93 227q0 134 93 227t227 93q77.462 0 145.077-36.192 67.616-36.193 114.923-98.423v60.769q-51.461 53.385-118.615 83.616Q541.923-120 467.692-120Zm359.973-120q-8.511 0-14.242-5.75-5.731-5.75-5.731-14.25v-260q0-8.5 5.758-14.25t14.269-5.75q8.512 0 14.243 5.75t5.731 14.25v260q0 8.5-5.758 14.25t-14.27 5.75Zm.027 106.154q-10.461 0-17.538-7.077t-7.077-17.538q0-10.462 7.077-17.539 7.077-7.077 17.538-7.077 10.462 0 17.539 7.077 7.077 7.077 7.077 17.539 0 10.461-7.077 17.538t-17.539 7.077Z"/></svg>