<svg xmlns="http://www.w3.org/2000/svg" height="20" viewBox="0 -960 960 960" width="20"><path d="M480-96q-79.376 0-149.188-30Q261-156 208.5-208.5T126-330.958q-30-69.959-30-149.5Q96-560 126-629.5t82.5-122Q261-804 330.812-834T480-864q75 0 145.5 29.5T749-751q11 10.636 11 24.818Q760-712 749-701L541-493q-17 17-39 7.594-22-9.406-22-33.594v-273q-130 0-221 91t-91 221q0 130 91 221t221 91q70 0 132.5-29.5T720-281v101q-51 41-112.652 62.5Q545.695-96 480-96Zm348.211-144Q813-240 802.5-250.35 792-260.7 792-276l-1-264q0-15.3 10.289-25.65 10.29-10.35 25.5-10.35Q842-576 852.5-565.65 863-555.3 863-540l1 264q0 15.3-10.289 25.65-10.29 10.35-25.5 10.35Zm0 144Q813-96 802.5-106.289q-10.5-10.29-10.5-25.5Q792-147 802.289-157.5q10.29-10.5 25.5-10.5Q843-168 853.5-157.711q10.5 10.29 10.5 25.5Q864-117 853.711-106.5q-10.29 10.5-25.5 10.5Z"/></svg>