<svg xmlns="http://www.w3.org/2000/svg" height="20" viewBox="0 -960 960 960" width="20"><path d="M372-148q-16.4 0-27.2-10.8T334-186v-543q0-16.4 10.8-27.2T372-767h52v-7q0-16.4 10.8-27.2T462-812h36q16.4 0 27.2 10.8T536-774v7h52q16.4 0 27.2 10.8T626-729v543q0 16.4-10.8 27.2T588-148H372Zm62-248q0 14 6 29t16.08 25.08L465-334q4 4 7 5t7-3.522q4-3.478 4-7.45t-2.857-7.861L471-357q-8-7.667-12.5-17.8-4.5-10.133-4.5-20.733 0-10.534 4.5-21.167Q463-427.333 471-435l33.074-33.074Q514-478 520-491.887q6-13.887 6-29.113 0-14.484-6-28.742Q514-564 504-574l-8-8q-3-3-6.5-3.5t-7.978 3.5q-3.522 3-3.022 6.5t3.5 6.5l7 9q8 8 12.5 18.029 4.5 10.028 4.5 21.428 0 11.486-4.5 21.014Q497-490 490-483l-32.811 33.778Q447-439 440.5-424.5 434-410 434-396Z"/></svg>