<svg xmlns="http://www.w3.org/2000/svg" height="20" viewBox="0 -960 960 960" width="20"><path d="M325.826-76.782q-25.488 0-43.244-17.756-17.757-17.757-17.757-43.244v-612.436q0-25.487 17.757-43.244 17.756-17.756 43.244-17.756h69.173v-11q0-25.487 17.757-43.244 17.757-17.756 43.244-17.756h48q25.487 0 43.244 17.756 17.757 17.757 17.757 43.244v11h69.173q25.488 0 43.244 17.756 17.757 17.757 17.757 43.244v612.436q0 25.487-17.757 43.244-17.756 17.756-43.244 17.756H325.826Zm37-98.001h234.348v-538.434H362.826v538.434Zm0 0h234.348-234.348ZM405.174-382q0 20 8 39.848t22.645 34.493l8.485 7.92q12.131 12.13 27.479 12.63 15.347.5 27.478-11.717 12.13-12.044 12.13-27.864t-11.422-27.839l-8.708-8.732q-4.435-4.101-6.435-8.669-2-4.569-2-9.603 0-5.403 2-10.254t6.435-8.952l33.074-33.074q14.491-14.491 22.491-33.444 8-18.952 8-39.743 0-20.484-8-39.59t-22.565-33.671l-8-8Q504.13-599.826 489-600.326q-15.13-.5-27.739 11.63-11.652 11.566-11.37 27.196.283 15.63 11.848 27.196l7 8.565q4.435 4.435 6.435 9.181 2 4.746 2 10.015 0 4.921-2.5 9.384t-5.935 7.898l-32.811 34.343q-14.754 14.788-22.754 33.853-8 19.065-8 39.065Z"/></svg>