<svg xmlns="http://www.w3.org/2000/svg" height="24" viewBox="0 -960 960 960" width="24"><path d="M663.222-473Q650-473 637.5-477.5 625-482 615-490q-88-80-151.5-153.5T400-786q0-65 45-110t110-45q30 0 58 11t50 29q22-18 50-29t58-11q65 0 110 45t45 110q0 69-63.5 142.5T711-490q-10 8-22.278 12.5-12.278 4.5-25.5 4.5ZM663-597q57-54 104.5-106.031Q815-755.062 815-786q0-19-12.269-32T771-831q-11 0-22.5 5.5T729-812l-66 80-66-80q-8-8-19.5-13.5t-22.851-5.5Q536-831 523.5-818T511-786q0 29 47.5 82T663-597ZM543-130l238-74q-5-9-14.5-15.5T745-226H533q-19 0-34-2t-32-7.944l-57-18.822q-16-4.954-23-19.813-7-14.86-2-30.711 5-15.85 19.5-23.28Q419-336 435-331l54 17q11 4 30 6t55.229 2H585q0-11-6.5-21T563-340l-234-86h-49v223l263 73ZM509-24 280-89q-17 26-51 39.5T154-36h-34q-51.975 0-88.987-37.013Q-6-110.025-6-162v-249q0-51.975 37.013-88.987Q68.025-537 120-537h206q11 0 22 2t22 6l231 86q42 16 68 52.5t26 84.5h50q62.5 0 106.25 28.5T895-186q0 33-17.5 53.5T828-102L581-25q-17 5-36 5.5T509-24Zm154-690ZM105-146h64v-280h-64v280Z"/></svg>