<svg xmlns="http://www.w3.org/2000/svg" height="20" viewBox="0 -960 960 960" width="20"><path d="M631.113-468.54q-7.267 0-13.806-2.807-6.538-2.808-12.153-7.039-83.462-74.538-142.346-141.499t-58.884-125.346q0-50.23 35.345-85.576 35.346-35.346 85.577-35.346 30.076 0 57.884 13.769 27.808 13.77 48.346 39.616 20.539-25.846 48.347-39.616 27.807-13.769 57.884-13.769 50.23 0 85.576 35.346t35.346 85.576q0 58.385-58.884 125.346-58.884 66.961-142.346 141.499-5.23 4.231-11.924 7.039-6.694 2.807-13.962 2.807Zm-.037-72.998q61.616-56.154 112.385-111.459 50.77-55.305 50.77-92.234 0-23.692-16.616-40.308-16.615-16.615-40.308-16.615-15.154 0-29.616 7.423-14.461 7.423-28 24.655l-47.615 57.306-47.614-57.306q-14.539-17.232-29.501-24.655-14.961-7.423-30.115-7.423-23.693 0-40.308 16.615-16.616 16.616-16.616 40.308 0 36.929 50.769 92.234 50.77 55.305 112.385 111.459Zm-83.461 393.384q1.923.769 3.461.769 1.539 0 3.462-.769L785.846-221q-3.077-13.616-13.076-19.885-9.999-6.269-22.386-6.269H552.539q-20.231 0-38.039-2.193-17.808-2.192-37.116-7.577l-59.769-19.538q-12.954-4.145-18.323-16.578-5.369-12.434-1.523-25.543 3.846-12.724 16.173-18.301 12.327-5.577 25.903-1.731l55.001 19.231q15.154 5.77 33.615 7.193 18.462 1.423 55.308 1.038h10.615q0-14.846-6.692-24.616-6.692-9.769-17.616-14.538L342-433.538q-1.154-.384-2.116-.577-.962-.192-2.115-.192h-70.001v207.153l279.847 79ZM531-87.386l-263.232-74.77q-6.846 27.846-26.846 41.885-20 14.038-49.461 14.038h-54.383q-31.573 0-53.94-22.367-22.367-22.367-22.367-53.94v-239.459q0-31.572 22.367-53.94 22.367-22.367 53.94-22.367h200.306q7.231 0 13.654 1.308t13.038 3.308l229.077 84.846q28.23 11.077 46.23 37.653 18 26.577 18 60.038h93.001q45.16 0 73.733 29.807 28.573 29.808 28.573 72.192 0 16.999-10.5 28.884-10.499 11.884-24.73 16.961L574.769-87.001q-10.847 3.23-21.693 2.923-10.846-.308-22.076-3.308Zm100.076-584.46ZM123.769-182.54q0 5.385 3.462 8.847 3.462 3.462 8.847 3.462h55.383q5.385 0 8.846-2.885 3.462-2.885 3.462-9.424v-251.767h-67.691q-5.385 0-8.847 3.462-3.462 3.461-3.462 8.846v239.459Z"/></svg>