<svg xmlns="http://www.w3.org/2000/svg" height="24" viewBox="0 -960 960 960" width="24"><path d="M440-400v60q0 16.667 11.64 28.333Q463.28-300 479.91-300q16.629 0 28.359-11.667Q520-323.333 520-340v-60h60q16.667 0 28.333-11.64Q620-423.28 620-439.91q0-16.629-11.667-28.359Q596.667-480 580-480h-60v-60q0-16.667-11.64-28.333Q496.72-580 480.09-580q-16.629 0-28.359 11.667Q440-556.667 440-540v60h-60q-16.667 0-28.333 11.64Q340-456.72 340-440.09q0 16.629 11.667 28.359Q363.333-400 380-400h60ZM264.615-160q-26.654 0-45.634-18.981Q200-197.961 200-224.615v-323.077q0-15.347 6.865-29.077 6.866-13.731 18.981-22.616l215.385-162.308q16.907-12.923 38.646-12.923 21.738 0 38.892 12.923l215.385 162.308q12.115 8.885 18.981 22.616Q760-563.039 760-547.692v323.077q0 26.654-18.981 45.634Q722.039-160 695.385-160h-430.77Z"/></svg>