<svg xmlns="http://www.w3.org/2000/svg" height="20" viewBox="0 -960 960 960" width="20"><path d="M452-404v68q0 11.667 8.14 19.833Q468.28-308 479.91-308q11.629 0 19.859-8.167Q508-324.333 508-336v-68h68q11.667 0 19.833-8.14Q604-420.28 604-431.91q0-11.629-8.167-19.859Q587.667-460 576-460h-68v-68q0-11.667-8.14-19.833Q491.72-556 480.09-556q-11.629 0-19.859 8.167Q452-539.667 452-528v68h-68q-11.667 0-19.833 8.14Q356-443.72 356-432.09q0 11.629 8.167 19.859Q372.333-404 384-404h68ZM288.332-184q-23.371 0-39.851-16.631Q232-217.261 232-240.615v-311.077q0-13.196 5.865-25.002 5.866-11.806 16.981-20.691l191.385-144.308q15.907-10.923 33.646-10.923 17.738 0 33.892 10.923l191.385 144.308q11.115 8.885 16.981 20.691Q728-564.888 728-551.692v311.077q0 23.354-16.642 39.984Q694.715-184 671.344-184H288.332Z"/></svg>