<svg xmlns="http://www.w3.org/2000/svg" height="20" viewBox="0 -960 960 960" width="20"><path d="M464-534.461v154.841q0 6.808 4.52 11.368 4.52 4.56 11.269 4.56 6.75 0 11.48-4.623Q496-372.937 496-379.837V-535.23l65.846 66.615Q566.692-463 573.115-463q6.424 0 12.039-5.615 5.615-5.616 5.615-11.436 0-5.821-5.615-11.103l-85.677-85.676q-8.554-8.555-19.659-8.555-11.105 0-19.433 8.693l-85.677 85.676q-4.708 4.708-5.016 10.813-.308 6.105 5.385 11.357 5.615 6.385 11.654 6 6.038-.385 11.377-5.723L464-534.461ZM192.615-232q-24.315 0-40.465-16.162Q136-264.324 136-288.656v-383.012Q136-696 152.15-712t40.465-16h574.77q24.315 0 40.465 16.162Q824-695.676 824-671.344v383.012Q824-264 807.85-248t-40.465 16h-574.77Zm0-32h574.77q9.23 0 16.923-7.692Q792-279.385 792-288.615v-382.77q0-9.23-7.692-16.923Q776.615-696 767.385-696h-574.77q-9.23 0-16.923 7.692Q168-680.615 168-671.385v382.77q0 9.23 7.692 16.923Q183.385-264 192.615-264ZM168-264v-432 432Z"/></svg>