<svg xmlns="http://www.w3.org/2000/svg" height="20" viewBox="0 -960 960 960" width="20"><path d="M433-459v97.072q0 19.269 14.289 33.099Q461.579-315 480.789-315 500-315 514-329.392q14-14.391 14-33.753V-460l15 16q14 15 33.5 14.5T610-444q14-14 14-33.167 0-19.166-14-32.833l-87.138-87.138Q505-615 480.818-615T439-597l-87.138 87.138Q338-496 337.962-476.818 337.923-457.636 352-444q14 15 33.5 14t33.223-14.723L433-459ZM180-158q-49.7 0-83.85-34.162Q62-226.324 62-276.04v-408.243Q62-734 96.15-768T180-802h600q49.7 0 83.85 34.162Q898-733.676 898-683.96v408.243Q898-226 863.85-192T780-158H180Z"/></svg>