<svg xmlns="http://www.w3.org/2000/svg" height="20" viewBox="0 -960 960 960" width="20"><path d="M240.615-136q-24.315 0-40.465-16.15Q184-168.3 184-192.615v-430.77q0-24.315 16.15-40.465Q216.3-680 240.615-680H328q0-63.526 44.303-107.763T480.226-832q63.62 0 107.697 44.237Q632-743.526 632-680h87.385q24.315 0 40.465 16.15Q776-647.7 776-623.385v430.77q0 24.315-16.15 40.465Q743.7-136 719.385-136h-478.77ZM360-680h240q0-50-35-85t-85-35q-50 0-85 35t-35 85Zm120.769 256q65.693 0 112.77-45.846t47.846-100.462q0-4.769-6.616-10.23Q628.154-586 619.615-586q-7.076 0-12.692 5.538-5.615 5.539-7.538 11.539-6.385 42.385-40.237 71.654Q525.296-468 480.769-468q-44.154 0-77.807-29.269-33.654-29.269-39.808-71.654-.923-3.231-7.808-10.154T340.385-586q-8.539 0-14.27 4.583-5.731 4.584-5.731 11.109 0 54.616 47.347 100.462Q415.077-424 480.769-424Z"/></svg>