<svg xmlns="http://www.w3.org/2000/svg" height="20" viewBox="0 -960 960 960" width="20"><path d="M451.326-384H509l4-42q11.429-3.818 20.714-8.909Q543-440 552-448l37.522 17L619-481l-33-24q2-11.5 2-23t-2-23l33-24-29.478-50L552-608q-8-8-18-13t-21-9l-4.326-42H451l-4 42q-11.429 3.818-20.714 8.909Q417-616 408-608l-37.522-17L341-575l33 24q-2 11.5-2 23t2 23l-33 24 29.478 50L408-448q8 8 18 13t21 9l4.326 42ZM480-480q-20 0-34-14t-14-34q0-20 14-34t34-14q20 0 34 14t14 34q0 20-14 34t-34 14ZM256.826-88.826V-267.89q-56.761-48.957-88.381-117.483Q136.826-453.9 136.826-529q0-142.692 100.324-242.433Q337.475-871.174 481-871.174q111.391 0 200.304 60.054 88.914 60.055 117.631 156.446l82.391 277.848H775.174v192h-168v96H256.826Z"/></svg>