<svg xmlns="http://www.w3.org/2000/svg" height="24" viewBox="0 -960 960 960" width="24"><path d="M457.692-376.923h44.616l2.923-36.923q15.692-3 29.884-10.462 14.193-7.461 23.808-19.384l32.154 16.154 22.308-38.001-29.231-21.538q6.615-16.462 6.615-32.923 0-16.461-6.615-32.923l29.231-21.538-22.308-38.001-32.154 16.154q-9.615-11.923-23.808-19.384-14.192-7.462-29.884-10.462l-2.923-36.923h-44.616l-2.923 36.923q-15.692 3-29.884 10.462-14.193 7.461-23.808 19.384l-32.154-16.154-22.308 38.001 29.231 21.538q-6.615 16.462-6.615 32.923 0 16.461 6.615 32.923l-29.231 21.538 22.308 38.001 32.154-16.154q9.615 11.923 23.808 19.384 14.192 7.462 29.884 10.462l2.923 36.923ZM480-445.385q-31.154 0-52.885-21.73-21.73-21.731-21.73-52.885 0-31.154 21.73-52.885 21.731-21.73 52.885-21.73 31.154 0 52.885 21.73 21.73 21.731 21.73 52.885 0 31.154-21.73 52.885-21.731 21.73-52.885 21.73ZM280-120v-150.461q-57-52-88.5-116.885T160-520.769q0-133.077 93.461-226.154Q346.923-840 480-840q108.077 0 195.346 65.807 87.27 65.808 113.193 169.962L839.462-400H720v200H560v80H280Z"/></svg>