<svg xmlns="http://www.w3.org/2000/svg" height="20" viewBox="0 -960 960 960" width="20"><path d="M451.326-384H509l4-42q11.429-3.818 20.714-8.909Q543-440 551.889-448l36.981 17L619-481l-33-24q2-11.5 2-23t-2-23l33-24-30.13-50-36.981 17Q544-616 534-621t-21-9l-4.326-42H451l-4 42q-11.429 3.818-20.714 8.909Q417-616 408.111-608l-36.981-17L341-575l33 24q-2 11.5-2 23t2 23l-33 24 30.13 50 36.981-17Q416-440 426-435t21 9l4.326 42ZM480-480q-20 0-34-14t-14-34q0-20 14-34t34-14q20 0 34 14t14 34q0 20-14 34t-34 14ZM247.043-79.043v-184.609q-56.435-50.261-88.218-120.091Q127.043-453.574 127.043-529q0-146.649 103.186-249.303 103.187-102.654 250.596-102.654 114.827 0 206.349 62.174 91.522 62.174 121.218 161.826l85.653 289.914H784.957v192h-168v96h-98.001v-194.001h168v-192h77.739l-49.174-161.695q-22-68.043-87.239-112.13Q563.043-782.956 481-782.956q-107.253 0-181.605 73.994Q225.044-634.967 225.044-529q0 56.668 24.152 108.573 24.152 51.905 68.022 87.644l27.826 24.826v228.914h-98.001ZM494.87-430.999Z"/></svg>