<svg xmlns="http://www.w3.org/2000/svg" height="24" viewBox="0 -960 960 960" width="24"><path d="M311.521-392.087h336.958v-26.522q0-45.695-46.544-74.108Q555.391-521.13 480-521.13t-121.935 28.413q-46.544 28.413-46.544 74.108v26.522ZM480-561.13q35.261 0 59.891-24.348 24.631-24.348 24.631-59.609t-24.631-59.892q-24.63-24.63-59.891-24.63-35.261 0-59.891 24.63-24.631 24.631-24.631 59.892t24.631 59.609Q444.739-561.13 480-561.13ZM220.782-220.782l-69.391 69.391q-25.217 25.217-57.913 11.502-32.696-13.714-32.696-48.981v-604.347q0-44.305 30.848-75.153 30.848-30.848 75.153-30.848h626.434q44.305 0 75.153 30.848 30.848 30.848 30.848 75.153v466.434q0 44.305-30.848 75.153-30.848 30.848-75.153 30.848H220.782Zm-34-106.001h606.435v-466.434H166.783v485.998l19.999-19.564Zm-19.999 0v-466.434 466.434Z"/></svg>