<svg xmlns="http://www.w3.org/2000/svg" height="20" viewBox="0 -960 960 960" width="20"><path d="M612.283-181Q588-181 570.5-198.289q-17.5-17.29-17.5-41.5Q553-264 570.338-281.5 587.677-299 611.96-299h215.757Q852-299 869.5-281.711q17.5 17.29 17.5 41.5Q887-216 869.662-198.5 852.323-181 828.04-181H612.283ZM228-228v-504 504Zm252-480q-50 0-85 35t-35 85q0 50 35 85t85 35q50 0 85-35t35-85q0-50-35-85t-85-35Zm-66 102q8 0 13 5t5 13q0 8-5 13t-13 5q-8 0-13-5t-5-13q0-8 5-13t13-5Zm66 0q8 0 13 5t5 13q0 8-5 13t-13 5q-8 0-13-5t-5-13q0-8 5-13t13-5Zm66 0q8 0 13 5t5 13q0 8-5 13t-13 5q-8 0-13-5t-5-13q0-8 5-13t13-5ZM227.815-110Q178-110 144-144.15T110-228v-504q0-49.7 34.15-83.85Q178.3-850 228-850h504q49.7 0 83.85 34.194Q850-781.613 850-731.851v194.519Q850-513 832.711-495.5q-17.29 17.5-41.5 17.5Q767-478 749.5-495.386T732-537.125V-732H228v504h224.882q24.35 0 41.734 17.289Q512-193.421 512-169.211 512-145 494.61-127.5T452.861-110H227.815Z"/></svg>