<svg xmlns="http://www.w3.org/2000/svg" height="24" viewBox="0 -960 960 960" width="24"><path d="M640-186q-5.95 0-9.975-4.035-4.025-4.035-4.025-10t4.025-9.965q4.025-4 9.975-4h240q5.95 0 9.975 4.035 4.025 4.035 4.025 10T889.975-190q-4.025 4-9.975 4H640Zm-440-14v-560 560Zm279.765-500Q438-700 409-670.765q-29 29.236-29 71Q380-558 409.235-529q29.236 29 71 29Q522-500 551-529.235q29-29.236 29-71Q580-642 550.765-671q-29.236-29-71-29ZM420-620q8 0 14 6t6 14q0 8-6 14t-14 6q-8 0-14-6t-6-14q0-8 6-14t14-6Zm60 0q8 0 14 6t6 14q0 8-6 14t-14 6q-8 0-14-6t-6-14q0-8 6-14t14-6Zm60 0q8 0 14 6t6 14q0 8-6 14t-14 6q-8 0-14-6t-6-14q0-8 6-14t14-6ZM232-172q-26 0-43-17t-17-43v-496q0-26 17-43t43-17h496q26 0 43 17t17 43v280q0 5.95-4.035 9.975-4.035 4.025-10 4.025T764-438.025q-4-4.025-4-9.975v-280q0-12-10-22t-22-10H232q-12 0-22 10t-10 22v496q0 12 10 22t22 10h287q5.95 0 9.975 4.035 4.025 4.035 4.025 10T528.975-176q-4.025 4-9.975 4H232Z"/></svg>