<svg xmlns="http://www.w3.org/2000/svg" height="20" viewBox="0 -960 960 960" width="20"><path d="M312.615-136q-28.654 0-42.634-13.981Q256-163.961 256-192.615v-430.77q0-27.654 13.981-42.134Q283.961-680 312.615-680h430.77q27.654 0 42.134 14.481Q800-651.039 800-623.385v430.77q0 28.654-14.481 42.634Q771.039-136 743.385-136h-430.77Zm41.231-341.846h348.308q27.384 0 46.615-19.231T768-543.693v-38.461q0-27.384-19.231-46.615T702.154-648H353.846q-27.384 0-46.615 19.231T288-582.154v38.461q0 27.385 19.231 46.616 19.231 19.231 46.615 19.231Zm112.308 155.692h123.692v-123.692H466.154v123.692Zm0 154.154h123.692v-122.154H466.154V-168ZM288-322.154h146.154v-123.692H288v123.692Zm333.846 0H768v-123.692H621.846v123.692ZM312.615-168h121.539v-122.154H288v97.539q0 10.769 6.923 17.692T312.615-168Zm309.231 0h121.539q10.769 0 17.692-6.923T768-192.615v-97.539H621.846V-168ZM168.615-280q-20.654 0-38.634-19.481Q112-318.961 112-347.615v-419.77q0-27.654 13.981-42.134Q139.961-824 168.615-824h419.77q28.654 0 48.134 17.981Q656-788.039 656-767.385V-752h-32v-15.385q0-10.769-6.923-17.692T599.385-792h-430.77q-10.769 0-17.692 6.923T144-767.385v430.77q0 10.769 6.923 17.692T168.615-312H184v32h-15.385Z"/></svg>