<svg xmlns="http://www.w3.org/2000/svg" height="20" viewBox="0 -960 960 960" width="20"><path d="M327.827-68.303q-45.726 0-71.864-26.138-26.137-26.138-26.137-71.863v-465.869q0-44.726 26.137-71.363 26.138-26.638 71.864-26.638h465.869q44.725 0 71.363 26.638 26.638 26.637 26.638 71.363v465.869q0 45.725-26.638 71.863-26.638 26.138-71.363 26.138H327.827Zm69.739-424.957h326.956q28.799 0 48.986-20.316 20.188-20.316 20.188-49.304 0-28.989-20.188-49.141-20.187-20.152-48.986-20.152H397.001q-28.799 0-48.987 20.316-20.187 20.315-20.187 49.304 0 28.988 20.35 49.141 20.35 20.152 49.389 20.152ZM514.74-329.782h92.043v-91.478H514.74v91.478Zm0 163.478h92.043v-91.478H514.74v91.478ZM327.827-329.782H442.74v-91.478H327.827v91.478Zm350.956 0h114.913v-91.478H678.783v91.478ZM327.827-166.304H442.74v-91.478H327.827v91.478q0 5-2.5 2.5t2.5-2.5Zm350.956 0h114.913q5 0 2.5 2.5t-2.5-2.5v-91.478H678.783v91.478Zm-512.479-63.522q-37.725 0-67.863-31.637-30.138-31.638-30.138-77.364v-454.869q0-44.725 26.138-71.363 26.138-26.638 71.863-26.638h454.869q45.726 0 77.363 30.138 31.638 30.138 31.638 67.863v-8.478h-98.001v8.478H166.304v465.869h-8.478v98.001h8.478Z"/></svg>