<svg xmlns="http://www.w3.org/2000/svg" height="24" viewBox="0 -960 960 960" width="24"><path d="M375.827-92.303q-43.726 0-74.864-31.138-31.137-31.138-31.137-74.863v-385.869q0-43.726 31.137-74.863 31.138-31.138 74.864-31.138h385.869q43.725 0 74.863 31.138 31.138 31.137 31.138 74.863v385.869q0 43.725-31.138 74.863-31.138 31.138-74.863 31.138H375.827Zm37.739-416.957h310.956q15.799 0 26.486-10.816 10.688-10.816 10.688-26.804 0-15.989-10.688-26.641-10.687-10.652-26.486-10.652H413.001q-15.799 0-26.487 10.816-10.687 10.815-10.687 26.804 0 15.988 10.85 26.641 10.85 10.652 26.889 10.652ZM530.74-353.782h76.043v-75.478H530.74v75.478Zm0 155.478h76.043v-75.478H530.74v75.478ZM375.827-353.782h74.913v-75.478h-74.913v75.478Zm310.956 0h74.913v-75.478h-74.913v75.478ZM375.827-198.304h74.913v-75.478h-74.913v75.478Zm310.956 0h74.913v-75.478h-74.913v75.478Zm-488.479-71.522q-43.725 0-74.863-31.137-31.138-31.138-31.138-74.864v-385.869q0-43.725 31.138-74.863 31.138-31.138 74.863-31.138h385.869q43.726 0 74.863 31.138 31.138 31.138 31.138 74.863v31.522H584.173v-31.522H198.304v385.869h31.522v106.001h-31.522Z"/></svg>