<svg xmlns="http://www.w3.org/2000/svg" height="20" viewBox="0 -960 960 960" width="20"><path d="M837.479-500.609v382.61H122.521v-380.783q-33.566-27.522-40.087-66.348-6.522-38.827 2.478-79.957l66.957-190.131h656.262l66.957 190.131q9 40 1.696 78.543-7.305 38.544-39.305 65.935ZM568-558.783q17.609 0 30.413-11.456 12.804-11.457 10.804-28.631l-23.435-138.347h-58.999V-600q0 17.739 12.022 29.478 12.021 11.739 29.195 11.739Zm-176 0q16.609 0 28.913-11.739 12.304-11.739 12.304-29.478v-137.217h-58.999L350.783-598.87q-1.435 16.044 10.522 28.065 11.956 12.022 30.695 12.022Zm-176 0q15.739 0 27.261-9.869 11.521-9.87 12.956-23.478l23.87-145.087h-59l-43.304 122.913q-7.435 21.304 4.304 38.413 11.739 17.108 33.913 17.108Zm528 0q22.174 0 34.13-17.108 11.957-17.109 5.087-38.413l-44.304-122.913h-59l23.87 145.087q1.435 13.608 13.456 23.478 12.022 9.869 26.761 9.869ZM220.522-216h518.956v-244.216q2.261-1.131 2.826-.848.566.282 1.696.282-21.043 0-44.674-8.086-23.63-8.087-43.326-25.826-19.13 17.739-41.63 25.826-22.5 8.086-46.37 8.086-23.87 0-45.87-8.586-22-8.587-42.13-25.326-18.13 16.739-41.13 25.326-23 8.586-46.87 8.586-23.304 0-45.587-7.086-22.283-7.087-42.413-26.826-24.261 19.739-47.174 26.826-22.913 7.086-40.826 7.086 1.13 0 2.261-.282 1.13-.283 2.261.848V-216Zm518.956 0H216h528-4.522ZM288-230.391h144v-48h-96v-24h96v-120H288v48h96v24h-96v120Zm336 0h48v-192h-48v96h-48v-96h-48v144h96v48Z"/></svg>