<svg xmlns="http://www.w3.org/2000/svg" height="20" viewBox="0 -960 960 960" width="20"><path d="M196-148v-568h164v-108h24v108h196v-108h20v108h164v276h-20v-56H216v328h303v20H196ZM768-16q-61 0-109-39t-61-97h17q17 58 57.612 89Q713.223-32 768-32q66.286 0 113.143-46.928T928-192.242q0-66.387-46.857-113.072Q834.286-352 768-352q-41 0-79.5 22.5T621-272h83v16H592v-112h16v87q30-40 71.956-63.5Q721.911-368 768-368q73.04 0 124.52 51.546Q944-264.908 944-191.774q0 73.134-51.48 124.454Q841.04-16 768-16ZM216-516h528v-180H216v180Zm0 0v-180 180Z"/></svg>