<svg xmlns="http://www.w3.org/2000/svg" height="20" viewBox="0 -960 960 960" width="20"><path d="M164.001-116.001v-631.998h151.693v-100.615h53.537v100.615h223.076v-100.615h51.999v100.615h151.693v298.153H744v-65.845H216V-168h293.77v51.999H164.001ZM768-6.154q-68.384 0-120.384-44.538-52-44.539-62.538-111.154h36.691q14.538 57.385 53.851 88.693Q714.932-41.846 768-41.846q62.207 0 106.181-44.045 43.973-44.044 43.973-106.351 0-62.308-43.973-106.11Q830.207-342.154 768-342.154q-34.846 0-66.578 16.654-31.731 16.654-56.423 43.654h68.847v35.692H582.154v-131.692h35.692v73.462q28.769-34.461 67.648-53.962 38.879-19.5 82.506-19.5 77.126 0 131.486 54.426 54.36 54.426 54.36 131.646 0 77.22-54.36 131.42-54.36 54.2-131.486 54.2ZM216-567.69h528V-696H216v128.31Zm0 0V-696v128.31Z"/></svg>