<svg xmlns="http://www.w3.org/2000/svg" height="24" viewBox="0 -960 960 960" width="24"><path d="M160-120v-640h135.384v-89.231h43.077V-760h286.154v-89.231h40.001V-760H800v292.308h-40v-67.693H200V-160h291.538v40H160ZM760-12.308q-63.769 0-113.269-38.577-49.5-38.577-66.577-96.807h37.385q16.076 44.769 54.201 72.384Q709.864-47.692 760-47.692q63.099 0 107.703-44.605Q912.308-136.9 912.308-200q0-63.099-44.605-107.703Q823.099-352.308 760-352.308q-36.692 0-70.154 17.808-33.461 17.808-57.846 46.808h75.692v35.384H572.308v-135.384h35.384v73.923q28.539-32.923 68.385-53.423 39.846-20.5 83.923-20.5 77.892 0 132.792 54.9 54.9 54.9 54.9 132.792t-54.9 132.792q-54.9 54.9-132.792 54.9ZM200-575.385h560V-720H200v144.615Zm0 0V-720v144.615Z"/></svg>