<svg xmlns="http://www.w3.org/2000/svg" height="24" viewBox="0 -960 960 960" width="24"><path d="M140.001-100.001v-679.998h127.693v-84.615h61.537v84.615h303.076v-84.615h59.999v84.615h127.693v306.153H760v-73.845H200V-160h285.77v59.999H140.001ZM760-6.154q-68.384 0-120.384-42.038-52-42.039-67.538-105.654h49.691q14.538 44.385 51.851 72.193Q710.932-53.846 760-53.846q60.55 0 103.352-42.802Q906.154-139.45 906.154-200q0-60.55-42.802-103.352Q820.55-346.154 760-346.154q-32.846 0-62.078 14.154-29.231 14.154-50.923 38.154h66.847v47.692H566.154v-147.692h47.692v65.462q27.769-29.461 65.692-47.462 37.923-18 80.462-18 80.446 0 137.146 56.7 56.7 56.7 56.7 137.146 0 80.446-56.7 137.146-56.7 56.7-137.146 56.7ZM200-607.69h560V-720H200v112.31Zm0 0V-720v112.31Z"/></svg>