<svg xmlns="http://www.w3.org/2000/svg" height="20" viewBox="0 -960 960 960" width="20"><path d="M124.782-76.782v-710.436h163.331v-96h84.888v96h213.998v-96h84.888v96h163.331v332.914h-98.001V-528H222.783v353.217h256.911v98.001H124.782ZM768 24.306q-74.696 0-130.891-47.718-56.196-47.717-67.457-116.891h81.784q11.87 43.434 42.739 67.02Q725.044-49.695 768-49.695q53.569 0 91.436-37.938 37.868-37.939 37.868-91.608 0-54.105-37.65-91.583-37.649-37.478-91.654-37.478-25.913 0-48.608 10.174-22.696 10.174-40.174 27.086h50.956v74.002h-178.48v-178.48h74.002v53.13q27.673-28.68 64.192-44.297 36.52-15.616 78.112-15.616 84.767 0 144.036 59.335 59.269 59.335 59.269 143.916 0 84.582-59.269 143.97Q852.767 24.306 768 24.306Z"/></svg>