<svg xmlns="http://www.w3.org/2000/svg" height="20" viewBox="0 -960 960 960" width="20"><path d="M160.184-308q-6.723 0-11.453-4.6Q144-317.2 144-324v-312q0-6.8 4.547-11.4 4.547-4.6 11.269-4.6 6.723 0 11.453 4.6Q176-642.8 176-636v140h208v-140q0-6.5 4.547-11.25t11.269-4.75q6.723 0 11.453 4.6Q416-642.8 416-636v312q0 6.8-4.547 11.4-4.547 4.6-11.269 4.6-6.723 0-11.453-4.6Q384-317.2 384-324v-140H176v140q0 6.5-4.547 11.25T160.184-308Zm356.407 0q-12.014 0-20.302-8.138-8.289-8.139-8.289-20.17v-103.077q0-23.354 16.631-39.984Q521.262-496 544.616-496h134.769q10.769 0 17.692-6.923T704-520.615v-74.77q0-10.769-6.923-17.692T679.385-620H504.277q-6.777 0-11.527-4.547-4.75-4.547-4.75-11.269 0-6.723 4.613-11.453Q497.225-652 504.044-652h175.605q23.39 0 39.871 16.631Q736-618.739 736-595.385v74.77q0 23.354-16.63 39.984Q702.739-464 679.385-464H544.616q-10.77 0-17.693 6.923Q520-450.154 520-439.385V-340h199.724q6.776 0 11.526 4.547t4.75 11.269q0 6.723-4.588 11.453Q726.824-308 720.041-308h-203.45Z"/></svg>