<svg xmlns="http://www.w3.org/2000/svg" height="20" viewBox="0 -960 960 960" width="20"><path d="M480-898q41.725 0 80.362 9Q599-880 634-863l-94 94q-14-5-28.933-8-14.934-3-31.067-3-97.95 0-162.975 64.516Q252-650.968 252-553q0 81 58 158t170 177q112-99 170-176.5T708-553v-10.833Q708-569 707-574l98-100q10 28.451 15.5 58.668T826-553q0 112-74 217.5T541-113q-13.955 11-29.216 16.5-15.262 5.5-32.023 5.5Q463-91 447.91-96.5 432.821-102 419-113q-46-38-96.5-86t-93-104q-42.5-56-69-119T134-553q0-147.719 99.253-246.36Q332.506-898 480-898Zm0 345Zm220.024-187.976L657-784 441-568q-8 7.857-12.5 17.929Q424-540 424-527v11q0 18.367 12.817 31.183Q449.633-472 468-472h11q13 0 23.071-4.5Q512.143-481 520-489l216-216-35.976-35.976ZM780-750l40-40q11-10 11.5-22.5T821-835l-34-34q-10-10-22-11t-22.103 9.103L701-829l79 79Z"/></svg>