<svg xmlns="http://www.w3.org/2000/svg" height="20" viewBox="0 -960 960 960" width="20"><path d="M511.833-934.61q18.037 0 30.797 12.611 12.761 12.611 12.761 30.737v343.608q0 18.126-12.55 30.737-12.55 12.611-30.587 12.611t-30.798-12.611q-12.761-12.611-12.761-30.737v-343.608q0-18.126 12.551-30.737 12.55-12.611 30.587-12.611Zm-147.957 51.392q18.037 0 30.798 12.611t12.761 30.737v292.216q0 18.126-12.551 30.737-12.55 12.611-30.587 12.611t-30.798-12.611q-12.761-12.611-12.761-30.737V-839.87q0-18.126 12.551-30.737 12.55-12.611 30.587-12.611Zm140.42 854.436q-138.209 0-234.862-96.443Q172.782-221.668 172.782-360v-383.87q0-18.126 12.55-30.737 12.551-12.611 30.587-12.611 18.037 0 30.798 12.611t12.761 30.737V-360q0 101.896 71.272 173.209t173.109 71.313q101.837 0 173.25-71.313T748.522-360v-136.652H744q-16.877 0-28.764 11.769-11.888 11.768-11.888 29.166v98.803q0 20.387-14.306 34.694-14.307 14.307-34.694 14.307H564q-31.619 0-54.135 22.516-22.517 22.516-22.517 54.135v24q0 18.127-12.55 30.738-12.551 12.611-30.587 12.611-18.037 0-30.798-12.611t-12.761-30.738v-24q0-68.391 47.478-115.87Q495.609-394.61 564-394.61h52.652v-397.26q0-18.126 12.55-30.737 12.551-12.611 30.587-12.611 18.037 0 30.798 12.611t12.761 30.737v216.261q9.304-4.435 20.015-6.087 10.71-1.652 20.637-1.652h42.218q20.387 0 34.694 14.306 14.306 14.307 14.306 34.694V-360q0 138.332-96.357 234.775-96.357 96.443-234.565 96.443Zm43.052-320.914Z"/></svg>