<svg xmlns="http://www.w3.org/2000/svg" height="24" viewBox="0 -960 960 960" width="24"><path d="M500-20.782q-149.913 0-254.566-104.652Q140.782-230.087 140.782-380v-391.87q0-19.826 13.761-33.587 13.761-13.761 33.587-13.761 19.826 0 33.587 13.761 13.761 13.761 13.761 33.587v259.218h69.26V-851.87q0-19.826 13.761-33.587 13.761-13.761 33.588-13.761 19.826 0 33.587 13.761 13.761 13.761 13.761 33.587v339.218h69.26v-382.61q0-19.826 13.761-33.587 13.761-13.761 33.587-13.761 19.827 0 33.587 13.761 13.761 13.761 13.761 33.587v382.61h69.261V-811.87q0-19.826 13.761-33.587 13.761-13.761 33.587-13.761 19.826 0 33.587 13.761 13.761 13.761 13.761 33.587v246.392q-35.218 20.435-53.261 56.391-18.044 35.957-18.044 76.61v24.564h-51.695q-61.87 0-105.087 43.217-43.218 43.217-43.218 105.087v44.347q0 15.261 10.196 25.457 10.196 10.196 25.457 10.196 15.261 0 25.456-10.196 10.196-10.196 10.196-25.457v-44.347q0-32.348 22.326-54.674t54.674-22.326h70q22.087 0 37.543-15.456 15.457-15.457 15.457-37.544v-42.868q0-37.435 25.718-63.152 25.717-25.718 63.152-25.718 18.087 0 30.544 12.457 12.456 12.457 12.456 30.544V-380q0 149.913-104.652 254.566Q649.913-20.782 500-20.782Z"/></svg>