<svg xmlns="http://www.w3.org/2000/svg" height="24" viewBox="0 -960 960 960" width="24"><path d="M511.035-842q5.965 0 9.965 4.025t4 9.975v308q0 5.95-4.035 9.975-4.035 4.025-10 4.025T501-510.025q-4-4.025-4-9.975v-308q0-5.95 4.035-9.975 4.035-4.025 10-4.025Zm-143 40q5.965 0 9.965 4.025t4 9.975v268q0 5.95-4.035 9.975-4.035 4.025-10 4.025T358-510.025q-4-4.025-4-9.975v-268q0-5.95 4.035-9.975 4.035-4.025 10-4.025ZM500.199-92Q380-92 296-175.859 212-259.718 212-380v-354q0-5.95 4.035-9.975 4.035-4.025 10-4.025t9.965 4.025q4 4.025 4 9.975v354q0 109 75.5 184.5T500-120q109 0 184.5-75.5T760-380v-166h-26q-27 0-46.5 19.5T668-480v74q0 12.75-8.625 21.375T638-376h-34q-45 0-75.5 30.5T498-270v14q0 5.95-4.035 9.975-4.035 4.025-10 4.025T474-246.025q-4-4.025-4-9.975v-14q0-56 39-95t95-39h36v-344q0-5.95 4.035-9.975 4.035-4.025 10-4.025t9.965 4.025q4 4.025 4 9.975v201q13-13 29.783-20 16.784-7 36.217-7h24q12.75 0 21.375 8.625T788-544v164q0 120.282-83.801 204.141T500.199-92ZM514-347Z"/></svg>