<svg xmlns="http://www.w3.org/2000/svg" height="20" viewBox="0 -960 960 960" width="20"><path d="M480.071-308.001q-45.301 0-87.301-16.423t-76.076-46.269q-4.231-3.846-6.462-8.423t-2.231-11.038q0-10.625 7.523-17.812 7.522-7.187 18.178-7.187 5.991 0 10.116 1.731 4.125 1.73 7.875 5.192 26.384 23.692 59.889 32.961Q445.086-366 480-366q34.461 0 67.692-9.769 33.231-9.769 59.615-32.077 3.761-3.718 8.652-5.82 4.891-2.103 10.108-2.103 11.086 0 18.701 7.625t7.615 18.675q0 5.661-2.231 10.488-2.23 4.827-6.461 8.673-34.692 28.845-76.505 45.576-41.813 16.731-87.115 16.731Zm-.042 148.615q-76.029 0-145.298-28Q265.463-215.385 210.77-267q-4.198-3.846-6.637-8.866-2.439-5.019-2.439-10.68 0-11.05 7.924-18.675 7.925-7.624 19.639-7.624 5.513 0 9.638 2.102 4.124 2.103 7.874 5.821 48.385 45.076 108.503 69.307 60.117 24.231 125.23 24.231t124.921-24.231q59.808-24.231 108.192-69.307 3.761-3.718 8.652-5.821 4.891-2.102 10.108-2.102 11.086 0 18.701 7.624 7.615 7.625 7.615 18.675 0 5.661-2.439 10.68-2.439 5.02-6.638 8.866-55.077 51.999-124.317 79.807-69.24 27.807-145.268 27.807Zm-174.568-469.23 23.846 55.309q1.539 3.846 4.616 5.961 3.077 2.116 6.923 2.116h278.308q3.846 0 6.923-2.116 3.077-2.115 4.616-5.961l22.846-55.309H305.461Zm34.385 115.385q-20.293 0-36.685-10.077-16.391-10.077-23.006-28.385l-30.924-76.923h-20.922q-26.527 0-45.417-18.89-18.891-18.89-18.891-45.417v-103.076h631.998v103.076q0 26.827-18.891 45.567-18.89 18.74-45.417 18.74h-20.922l-30.385 75.385q-7.423 17.692-23.919 28.846-16.497 11.154-36.158 11.154H339.846Z"/></svg>