<svg xmlns="http://www.w3.org/2000/svg" height="20" viewBox="0 -960 960 960" width="20"><path d="M480.071-351.308q-32.418 0-62.46-12.717-30.043-12.717-54.738-32.89-7.826-6.696-11.957-14.891-4.13-8.196-4.13-18.457 0-17.701 12.797-30.307 12.798-12.606 30.551-12.606 9.696 0 16.543 3.065 6.848 3.065 13.544 9.196 12.434 10.173 28.281 13.542 15.847 3.369 30.933 3.369t30.432-3.869q15.347-3.869 28.347-13.042 6.695-6.696 14.293-9.979 7.598-3.282 16.494-3.282 18.126 0 30.887 12.761t12.761 30.887q0 10.026-4.13 18.472-4.131 8.445-11.957 15.141-25.13 19.173-54.884 32.39-29.754 13.217-61.607 13.217Zm-.211 339.576q-102.339 0-194.775-40.11-92.436-40.109-164.132-111.805-6.696-6.696-9.979-14.294-3.282-7.598-3.282-16.493 0-18.127 13.325-31.17 13.324-13.044 32.088-13.044 9.196 0 16.044 3.283 6.848 3.282 13.543 9.978 60.436 59.436 136.946 93.197 76.509 33.761 160.48 33.761 83.97 0 160.645-33.478 76.674-33.479 137.11-92.915 6.696-6.695 14.294-9.695 7.597-3 16.493-3 18.126 0 30.605 12.478 12.478 12.478 12.478 30.605 0 8.895-3 16.493-3 7.598-9.696 14.294-71.696 71.696-164.272 111.805-92.576 40.11-194.915 40.11ZM314.174-613.826l19.435 48h292.782l18.435-48H314.174Zm18.435 146.002q-33.681 0-59.559-18.501-25.878-18.5-34.008-49.674l-26.739-77.827h-12.13q-41.005 0-69.503-28.498-28.498-28.498-28.498-69.503v-146.001h755.656v146.001q0 41.305-28.498 69.653-28.498 28.348-69.503 28.348h-12.13l-24.913 76.131q-9.396 31.209-35.676 50.54-26.281 19.331-59.021 19.331H332.609Z"/></svg>