<svg xmlns="http://www.w3.org/2000/svg" height="24" viewBox="0 -960 960 960" width="24"><path d="M479.5-232q-54.5 0-105-21T282-309q-10-8-15.5-19t-5.5-23q0-22 15.918-38 15.919-16 38.47-16Q326-405 335-401q9 4 17 12 27 23 60 37t68 14q35 0 67.5-13.5T608-388q8-8 17-12t19.667-4q22.666 0 38 15.5Q698-373 698-351q0 13-5.5 23.5T677-309q-42 35-92.5 56t-105 21Zm.5 186q-94 0-178.5-38T151.222-187.778Q143-196 139-205q-4-9-4-19.56Q135-247 151-263q16-16 38.44-16 10.56 0 19.56 4 9 4 17 12 51 51 116.605 81 65.604 30 137.5 30Q552-152 618-181.5 684-211 735-262q8-8 17-11.5t19.5-3.5q22.312 0 37.406 15.094Q824-246.812 824-224.5q0 10.5-3.5 19.5t-11.722 17.222Q743-122 658.5-84 574-46 480-46ZM172-788v40h616v-40H172Zm147 166 11 40h300l11-40H319Zm11 166q-45 0-79-27t-44-70l-16-69h-19q-53 0-89.5-36.5T46-748v-166h868v166q0 53-36.5 89.5T788-622h-19l-17 70q-11 43-45 69.5T629-456H330ZM172-788v40-40Z"/></svg>