<svg xmlns="http://www.w3.org/2000/svg" height="20" viewBox="0 -960 960 960" width="20"><path d="M672-288q30 0 51-21t21-51q0-30-21-51t-51-21q-30 0-51 21t-21 51q0 30 21 51t51 21Zm0 144q38.385 0 70.692-18.959 32.308-18.958 52.693-50.656Q767-232 736.231-242q-30.769-10-64-10T608-242q-31 10-59.385 28.385 20.385 31.698 52.693 50.656Q633.615-144 672-144Zm-192 27.229q-123.769-30.384-207.884-143.768Q188.001-373.924 188.001-515v-215.153L480-842.46l291.999 112.307v220.616q-17-7.693-29.384-11.769-12.385-4.077-22.615-5.693v-168.386L480-787l-240 91.615V-515q0 55.154 15 105.808 15 50.655 42.847 93.693 27.846 43.039 66.962 76.577t85.962 56.461l1.154-.384q4.923 12.999 17.038 29.652t26.191 32.114q-1.538.77-7.577 2.154-6.038 1.385-7.577 2.154Zm191.774.77q-71.696 0-121.735-50.265-50.038-50.264-50.038-121.96t50.265-121.735q50.264-50.038 121.96-50.038t121.735 50.265q50.038 50.264 50.038 121.96t-50.265 121.735q-50.264 50.038-121.96 50.038ZM480-474.23Z"/></svg>