<svg xmlns="http://www.w3.org/2000/svg" height="20" viewBox="0 -960 960 960" width="20"><path d="M672-288q30 0 51-21t21-51q0-30-21-51t-51-21q-30 0-51 21t-21 51q0 30 21 51t51 21Zm0 144q39 0 71-18.651T796-213q-29-19-59.769-29t-64-10Q639-252 608-242q-31 10-60 29 21 31.698 53 50.349Q633-144 672-144Zm-192-6q-109-31-184.5-133T220-515v-193l260-100 260 100v220q-9-4-14-5t-6-2v-201l-240-91-240 91v181q0 65 19 121.5t53 102q34 45.5 80.5 77.5t99.5 50l3-1q0-3 3.5-.5t6.5 7.5q-4 2-12.5 4t-12.5 4Zm191.774 2Q613-148 572.5-188.726t-40.5-99.5Q532-347 572.726-387.5t99.5-40.5Q731-428 771.5-387.274t40.5 99.5Q812-229 771.274-188.5t-99.5 40.5ZM480-465Z"/></svg>