<svg xmlns="http://www.w3.org/2000/svg" height="20" viewBox="0 -960 960 960" width="20"><path d="M672-288q30 0 51-21t21-51q0-30-21-51t-51-21q-30 0-51 21t-21 51q0 30 21 51t51 21Zm0 144q38.769 0 70.885-18.766 32.115-18.767 52.884-50.465Q767-232 736.231-242t-64-10Q639-252 608-242q-31 10-59.769 28.769 20.769 31.698 52.884 50.465Q633.231-144 672-144Zm-192 6.462q-114.539-30.769-193.269-137.039Q208-380.846 208-515v-201.308l272-104.615 272 104.615v220.231q-12-5.385-19.769-7.539Q724.462-505.769 720-507v-188.769L480-787l-240 91.231V-515q0 61.308 17.5 115.615 17.5 54.308 49.192 98.885 31.692 44.577 75.423 77.154t94.423 52.423l2.308-.769q1.846 3 8.577 10.807 6.731 7.808 13.885 16.731-3.077 1.539-10.654 3.308T480-137.538ZM671.774-136q-63.62 0-107.697-44.303Q520-224.606 520-288.226q0-63.62 44.303-107.697Q608.606-440 672.226-440q63.62 0 107.697 44.303Q824-351.394 824-287.774q0 63.62-44.303 107.697Q735.394-136 671.774-136ZM480-468.462Z"/></svg>