<svg xmlns="http://www.w3.org/2000/svg" height="24" viewBox="0 -960 960 960" width="24"><path d="M306.999-252.868q-105.417 0-179.208-75.087-73.792-75.088-73.792-181.305v-97.523q0-107.348 73.109-183.848 73.108-76.501 179.891-76.501 55.417 0 94.209 39.946T440-730.174q0 55.416-38.792 94.208t-94.209 38.792h-21.347q-22.087 0-37.543-15.456-15.457-15.457-15.457-37.544 0-22.088 15.457-37.544 15.456-15.457 37.543-15.457h19.652q12.195 0 20.445-8.674t8.25-20.586q0-11.913-8.25-20.304-8.25-8.391-20.445-8.391-61.478 0-103.391 45.869Q160-669.391 160-606.783v98.088q0 61.478 42.195 105.652 42.196 44.173 103.109 44.173 12.195 0 20.445-8.673 8.25-8.674 8.25-20.587t-8.25-20.304q-8.25-8.391-20.445-8.391h-19.652q-22.087 0-37.543-15.457-15.457-15.456-15.457-37.544 0-22.087 15.457-37.544 15.456-15.456 37.543-15.456h21.347q54.946 0 93.408 38.674Q438.87-445.478 440-389.826v240q0 22.088-15.457 37.544-15.456 15.457-37.544 15.457-22.087 0-37.544-15.457-15.456-15.456-15.456-37.544v-106.651q-7.174 2.305-13.283 2.957-6.108.652-13.717.652Zm346.002 0q-7.609 0-13.717-.652-6.109-.652-13.283-2.957v106.651q0 10.556-4.13 20.452-4.131 9.897-11.337 17.225-7.207 7.329-17.035 11.327-9.827 3.997-20.31 3.997-22.276 0-37.732-15.457Q520-127.738 520-149.826v-240q1.13-55.652 39.593-94.326 38.462-38.674 93.408-38.674h21.347q22.087 0 37.543 15.456 15.457 15.457 15.457 37.544 0 22.088-15.457 37.544-15.456 15.457-37.543 15.457h-19.652q-12.195 0-20.445 8.079t-8.25 20.021q0 11.943 8.25 20.616 8.25 8.674 20.445 8.674 60.913 0 103.109-43.845Q800-447.125 800-508.695v-98.088q0-62.608-41.913-108.478-41.913-45.869-103.391-45.869-12.195 0-20.445 8.249-8.25 8.25-8.25 20.446 0 11.912 8.25 20.586 8.25 8.674 20.445 8.674h19.652q22.087 0 37.543 15.457 15.457 15.456 15.457 37.544 0 22.087-15.457 37.544-15.456 15.456-37.543 15.456h-21.347q-55.417 0-94.209-38.792T520-730.174q0-57.066 38.792-97.012t94.209-39.946q106.783 0 179.891 76.501 73.109 76.5 73.109 183.848v97.523q0 106.217-73.792 181.305-73.791 75.087-179.208 75.087ZM160-522.826v-74.348 74.348Zm640-74.348v88.479-88.479Z"/></svg>