<svg xmlns="http://www.w3.org/2000/svg" height="20" viewBox="0 -960 960 960" width="20"><path d="M334-330q-76.5 0-126.25-58.25T158-526v-52q0-79.5 49.75-137.75T334-774q36.667 0 62.333 25.632Q422-722.735 422-686.118q0 36.618-25.667 62.368Q370.667-598 334-598v92q37 0 62 25.667 25 25.666 25 62.333l1 222q0 4.25-2.825 7.125-2.824 2.875-7 2.875-4.175 0-7.175-2.992t-3-7.415V-358q-14 13-31.467 20.5Q353.067-330 334-330Zm292 0q-19.067 0-36.533-7.5Q572-345 558-358v162q0-.2-12.553.925-12.552 1.125-21.982 3.05-9.43 1.925-7.061 3.975 2.368 2.05 31.561 2.05-4.265 0-7.115-2.875Q538-191.75 538-196l1-222q0-37.083 24.917-63.042Q588.833-507 626-507v-91q-36.5 0-62.25-25.632Q538-649.265 538-685.882q0-36.618 25.667-62.368Q589.333-774 626-774q76.5 0 126.25 58.25T802-578v52q0 79.5-49.75 137.75T626-330Z"/></svg>