<svg xmlns="http://www.w3.org/2000/svg" height="20" viewBox="0 -960 960 960" width="20"><path d="M324.154-304.155q-86.345 0-145.326-62.25-58.98-62.25-58.98-149.749v-71.692q0-87.499 58.98-149.749 58.981-62.25 145.326-62.25 43.333 0 73.666 30.32 30.334 30.32 30.334 73.634t-30.334 73.679q-30.333 30.366-73.666 30.366v79.692q43.769 0 73.384 30.334 29.616 30.333 29.616 73.666l1 222q0 11.049-7.419 18.524-7.418 7.475-18.384 7.475-10.966 0-18.581-7.592t-7.615-18.814v-133.287q-11.539 7.462-24.718 11.577-13.18 4.116-27.283 4.116Zm311.692 0q-14.103 0-27.283-4.116-13.179-4.115-24.718-11.577v133.694q0 3-13.751 7.124-13.751 4.125-25.378 8.25-11.626 4.125-12.254 7.375-.627 3.25 25.37 3.25-11.055 0-18.52-7.475-7.466-7.475-7.466-18.524l1-222q0-43.75 29.584-74.375 29.583-30.625 73.416-30.625v-78.692q-43.269 0-73.634-30.32-30.366-30.32-30.366-73.634 0-43.315 30.334-73.68 30.333-30.365 73.666-30.365 86.345 0 145.326 62.25 58.98 62.25 58.98 149.749v71.692q0 87.499-58.98 149.749-58.981 62.25-145.326 62.25Z"/></svg>