<svg xmlns="http://www.w3.org/2000/svg" height="20" viewBox="0 -960 960 960" width="20"><path d="M720-600q-50 0-85-35t-35-85q0-50 35-85t85-35q50 0 85 35t35 85q0 50-35 85t-85 35ZM480.276-96Q401-96 331-126q-70-30-122.5-82.5T126-330.958q-30-69.959-30-149.5Q96-560 126-629.5t82.5-122Q261-804 330.863-834q69.864-30 149.297-30 25.84 0 50.84 3 25 3 49 10-25 27-38.5 60.333Q528-757.333 528-720q0 79.68 56.16 135.84T720-528q37.333 0 70.667-13.5Q824-555 851-580q7 24 10 48.877 3 24.876 3 50.709Q864-401 834-331q-30 70-82.5 122.5T629.276-126q-69.725 30-149 30Z"/></svg>