<svg xmlns="http://www.w3.org/2000/svg" height="20" viewBox="0 -960 960 960" width="20"><path d="m379.848-579.692 31.075 31.384h-95.846v136.616h99.472v-21.744h31.528v53.128H283.692v-199.384h96.156ZM331.692-728H776v445.308l-32-33V-696H363.692l-32-32Zm344.616 294.231v44.231h-7.154l-31.385-31.385h7.154v-12.846h31.385Zm-31.385-90.923v-23.616h-99.615v33.924l-29.846-29.847v-35.461h160.846v55h-31.385Zm-101.461 9.23Zm-95.924 48.847v-.231.231ZM234.384-724.846 263.231-696H216v432h434.154L138.461-775.692 161-798.231l654.923 654.923-22.539 22.539L682.154-232H184v-492.846h50.384Z"/></svg>