<svg xmlns="http://www.w3.org/2000/svg" height="20" viewBox="0 -960 960 960" width="20"><path d="m376.788-592 60.213 60.522H327.827v102.956h57.334v-18.667h64.622V-368h-187v-224h114.005Zm-82.223-195.218h540.653v541.653l-98.001-99.002v-344.65h-344.65l-98.002-98.001Zm402.652 339.696v56.347h-8.174l-45.825-45.826h9.304v-10.521h44.695Zm-65.044-64.956v-19h-54.651v27.216l-56-56V-592h175.695v79.522h-65.044Zm-77.564-14.131ZM414.304-440.87v-.434.434ZM191.652-776.827l87.61 87.61h-56.479v418.434h361.608L87.174-768l56.652-56.652 689.87 689.87-56.652 56.652-94.652-94.652h-557.61v-604.045h66.87Z"/></svg>