<svg xmlns="http://www.w3.org/2000/svg" height="24" viewBox="0 -960 960 960" width="24"><path d="M428.615-127.692q-38.929 0-59.157-23.052-20.227-23.052-20.227-52.528 0-19.651 8.423-38.766 8.423-19.116 27.038-31.27 22.769-15.538 37.808-41.769 15.038-26.231 22.346-58.154Q435-377 425.538-381.923q-9.461-4.923-18.307-12.769l-93.539 33.769q-14.692 5.231-27.835 8.462-13.143 3.23-27.107 3.23-51.75 0-91.404-46.381-39.654-46.382-39.654-135.773 0-38.929 22.917-59.157 22.916-20.227 51.468-20.227 20.615 0 39.846 8.423 19.231 8.423 31.385 27.038 15.538 22.769 41.769 37.808 26.231 15.038 58.154 22.346Q377-525 381.923-534.462q4.923-9.461 12.769-18.307l-33.769-93.539q-5.231-13.923-8.462-27.615-3.23-13.692-3.23-26.616 0-60.923 53.077-96.346 53.076-35.423 129.077-35.423 38.929 0 59.157 22.805 20.227 22.804 20.227 51.217 0 19.44-8.423 39.055-8.423 19.616-27.038 31.769-22.769 15.539-37.808 42.154-15.038 26.616-22.346 58.539 10.615 4.538 20.145 9.615 9.529 5.077 17.47 11.846l93.539-34.769q14.692-5.231 27.419-7.962 12.727-2.73 26.686-2.73 66.51 0 99.203 56.23 32.692 56.231 32.692 125.924 0 38.929-24.308 59.157-24.307 20.227-53.933 20.227-18.99 0-37.105-8.423-18.116-8.423-30.27-27.038-15.538-22.769-41.769-37.808-26.231-15.038-58.154-22.346Q583-435 578.077-425.923q-4.923 9.077-12.769 18.692l33.769 93.539q5.011 13.812 8.352 26.329 3.34 12.517 3.34 24.671-.538 51.923-46.57 93.461-46.031 41.539-135.584 41.539Zm51.566-280q30.204 0 51.165-21.143 20.962-21.142 20.962-51.346 0-30.204-21.143-51.165-21.142-20.962-51.346-20.962-30.204 0-51.165 21.143-20.962 21.142-20.962 51.346 0 30.204 21.143 51.165 21.142 20.962 51.346 20.962Zm-52.335-171.231q11.385-6.616 23.269-9.654 11.885-3.039 24.039-3.269 8-41.231 27.423-74.923 19.423-33.693 50.269-53.847 8.846-6.307 13.385-15.384 4.538-9.077 4.538-21.923 0-14.478-9.461-24.431-9.462-9.954-29.923-9.954-39.72 0-89.892 18.757-50.172 18.756-52.262 73.32 0 10.231 2.884 19Q395-672.462 397-665.462l30.846 86.539ZM258.461-389.231q13.231 0 36.077-7.769l87.308-30.846q-6.615-9.846-10.038-21.731-3.424-11.884-3.654-25.577-41.231-8-74.923-27.423-33.693-19.423-53.847-50.269-6.307-8.846-16.653-13.385-10.347-4.538-20.654-4.538-16.692 0-25.539 9.461-8.846 9.462-8.846 29.923 0 56.444 23.26 99.299 23.259 42.855 67.509 42.855Zm170.154 221.539q48.572 0 95.594-21.693 47.022-21.692 46.56-73.307 0-9.399-2.884-17.623Q565-288.538 563-294.538l-30.846-87.308q-11.385 7.385-24.423 10.423-13.039 3.039-22.885 3.269-8 41.231-27.423 74.923-19.423 33.693-50.269 53.847-8.077 5.538-13.115 15.884-5.039 10.346-4.808 20.423.231 14.154 9.461 24.769 9.231 10.616 29.923 10.616Zm326.334-221.539q14.897 0 26.128-8.461 11.231-8.462 11.231-30.923 0-39.72-18.188-90.414-18.188-50.695-73.889-51.74-10.231 0-18.616 2-8.384 2-16.153 4.769l-86.539 31.846q5.846 10.616 9.27 22.885 3.423 12.269 3.653 24.423 41.231 8 74.923 27.423 33.693 19.423 53.847 50.269 4.538 7.308 14.47 12.615 9.931 5.308 19.863 5.308Zm-163.103-95.615Zm-116.692-107Zm-107 116.692Zm116.692 107Z"/></svg>