<svg xmlns="http://www.w3.org/2000/svg" height="20" viewBox="0 -960 960 960" width="20"><path d="M180-222q-49.7 0-83.85-34.15Q62-290.3 62-340v-392q0-49.7 34.15-83.85Q130.3-850 180-850h193q24.3 0 41.65 17.289 17.35 17.29 17.35 41.5Q432-767 414.65-749.5T373-732H180v392h600v-58q0-24.3 17.289-41.65 17.29-17.35 41.5-17.35Q863-457 880.5-439.65T898-398v58q0 49.7-34.15 83.85Q829.7-222 780-222H624l46 47q8 8 12.5 18t4.5 23v-23q0 20.025-13.487 33.512Q660.025-110 640-110H319.535Q300-110 286.5-123.488 273-136.975 273-157v23q0-13 4.5-23t12.5-18l46-47H180Zm370-373v-196q0-24.3 17.289-41.65 17.29-17.35 41.5-17.35Q633-850 650.5-832.65T668-791v196l41-42q18-18 42-17t41 18q18 18 18 41.5t-17.699 41.199L609-370 425.699-553.301Q408-571 408.5-594.5 409-618 427-636t41.5-18.5Q492-655 510-637l40 42Z"/></svg>