<svg xmlns="http://www.w3.org/2000/svg" height="20" viewBox="0 -960 960 960" width="20"><path d="M777.087-79.956 677-179.804H183.869v-100.609q0-28.152 13.696-51.565 13.696-23.413 37.848-37.37 42.761-25.761 90.522-41.761 47.761-16 98.761-21.239L79.956-777.087l53.392-53.392 697.131 697.131-53.392 53.392Zm-51.5-289.631q20.957 11.717 34.033 31.196 13.076 19.478 16.032 43.674L674.5-395.87q13.761 5.761 26.163 12.142 12.402 6.38 24.924 14.141Zm-163-139.196-210-210q20.717-33.152 54.869-51.228 34.153-18.076 72.544-18.076 63.587 0 107.859 44.152 44.272 44.152 44.272 107.739 0 38.391-18.196 72.544-18.196 34.152-51.348 54.869Z"/></svg>