<svg xmlns="http://www.w3.org/2000/svg" height="24" viewBox="0 -960 960 960" width="24"><path d="m793.308-109.615-105.77-105.769H200v-65.847q0-24.769 14.423-46.346 14.423-21.577 38.808-33.5 52.692-25.308 105.346-38.538 52.653-13.231 105.269-14.847h12.692q6.538 0 12.692.77L109.615-793.308l28.539-28.538 683.692 683.692-28.538 28.539ZM240-255.385h407.538L531.384-371.538q-13.538-1.539-25.692-2.693-12.154-1.154-25.692-1.154-53.692 0-106 12.731T272.308-326q-15.154 8.077-23.731 19.769-8.577 11.693-8.577 25v25.846Zm483.692-97.231q6.693 3.231 10.616 9.808t4.154 14.193l-30.924-30.924q4.154 1.616 8.193 3.231 4.038 1.615 7.961 3.692ZM547.231-525.231l-29-29q19.154-10.538 30.461-29.5Q560-602.692 560-624.615q0-33-23.5-56.5t-56.5-23.5q-21.923 0-40.885 11.307-18.961 11.308-29.5 30.462l-29-29q16.846-25.539 43-39.154 26.154-13.616 56.385-13.616 49.846 0 84.923 35.077Q600-674.462 600-624.615q0 30.23-13.615 56.384-13.616 26.154-39.154 43Zm100.307 269.846H240h407.538ZM463.923-608.539Z"/></svg>