<svg xmlns="http://www.w3.org/2000/svg" height="20" viewBox="0 -960 960 960" width="20"><path d="m806-48-94-93H158v-128q0-35.082 17.695-64.489Q193.391-362.896 224-380q42-25 89-41t98-22L48-806l61-61 758 758-61 61ZM276-259h318l-69-70q-11-1-22.5-1.5T480-331q-52 0-103 13t-90 37q-4.95 2.5-7.975 7Q276-269.5 276-264v5Zm461-122q24 14 40.5 35t22.5 49L692-405q12.629 5.3 23.523 10.991Q726.417-388.317 737-381ZM574-524l-93-92q24.196-1.083 41.598-18.495Q540-651.907 540-675.361q0-24.277-17.513-41.458Q504.974-734 480.381-734 457-734 439.55-717.098 422.1-700.196 421-676l-92-93q23-40 63.829-61.5T480-852q75 0 126.5 51T658-674.579Q658-629 636-588q-22 41-62 64Zm20 265H276h318ZM454-643Z"/></svg>