<svg xmlns="http://www.w3.org/2000/svg" height="24" viewBox="0 -960 960 960" width="24"><path d="M800.087-44.956 697-147.804H151.869v-120.609q0-36.152 18.696-66.565 18.696-30.413 49.848-46.37 44.761-22.761 91.022-36.761 46.261-14 94.261-21.239L44.956-800.087l59.392-59.392 755.131 755.131-59.392 59.392Zm-60.5-336.631q29.957 14.717 48.033 43.696 18.076 28.978 20.032 63.174L671.5-410.87q17.761 6.761 34.663 13.642 16.902 6.88 33.424 15.641Zm-168-129.196-233-233q23.717-36.152 60.869-56.228 37.153-20.076 80.544-20.076 69.587 0 118.859 49.152 49.272 49.152 49.272 118.739 0 43.391-20.196 80.544-20.196 37.152-56.348 60.869Z"/></svg>