<svg xmlns="http://www.w3.org/2000/svg" height="20" viewBox="0 -960 960 960" width="20"><path d="M402-144v-129h-40q-31.733 0-49.867-26Q294-325 306-354l101-234q8.962-21.846 29.481-34.923Q457-636 480-636t43.519 13.077Q544.038-609.846 553-588l101 234q12 29.182-5.933 55.091Q630.133-273 598-273h-40v129q0 24.3-17.325 41.65Q523.35-85 499.088-85h-37.825Q437-85 419.5-102.35 402-119.7 402-144Zm77.885-560Q439-704 410-733.115q-29-29.115-29-70Q381-844 410.115-873q29.115-29 70-29Q521-902 550-872.885q29 29.115 29 70Q579-762 549.885-733q-29.115 29-70 29Z"/></svg>