<svg xmlns="http://www.w3.org/2000/svg" height="20" viewBox="0 -960 960 960" width="20"><path d="M480.276-62Q394-62 318-94.5q-76-32.5-133.5-90t-90-133.458Q62-393.917 62-480.458 62-567 94.5-642.5t90-133q57.5-57.5 133.458-90 75.959-32.5 162.5-32.5Q567-898 642.5-865.5t133 90q57.5 57.5 90 133.224 32.5 75.725 32.5 162Q898-394 865.5-318q-32.5 76-90 133.5t-133.224 90q-75.725 32.5-162 32.5ZM436-183l-8-17q-4-5.214-6-13.464T420-232v-189.03q-30.7-5-51.35-27.985Q348-472 348-504v-43L238-657q-27 37-42.5 82.199-15.5 45.198-15.5 95.02Q180-367 253.5-283T436-183Zm80-1q111-13 187.5-96.5T780-480q0-124.675-87.662-212.338Q604.675-780 480-780q-43 0-82.5 12T324-736v52h131q20 0 37.125 7.7T521-653l50.552 65H624q25.4 0 42.7 17.3Q684-553.4 684-528v33q0 9.56-2.5 18.28T674-461L516-236v52Z"/></svg>