<svg xmlns="http://www.w3.org/2000/svg" height="20" viewBox="0 -960 960 960" width="20"><path d="M69.999-61.52v-487.959H168v96h53.912l140.609-372.695v-107.305h98.001v96h38.956v-96h98.001v107.305l140.609 372.695H792v-96h98.001V-61.52H514.999v-205.001h-69.998V-61.52H69.999Zm282.48-463.959h255.042l-28.651-69.999H381.13l-28.651 69.999Zm63-168h129.042l-19.651-45.999h-89.74l-19.651 45.999ZM168-159.521h178.999v-205.001h266.002v205.001H792v-195.957H669.035l-27.165-72H317.969l-26.839 72H168v195.957Zm312-296.957Z"/></svg>