<svg xmlns="http://www.w3.org/2000/svg" height="24" viewBox="0 -960 960 960" width="24"><path d="M480.061-180.001q-125.599 0-212.829-87.17-87.231-87.169-87.231-212.768t87.17-212.829q87.169-87.231 212.768-87.231t212.829 87.17q87.231 87.169 87.231 212.768t-87.17 212.829q-87.169 87.231-212.768 87.231ZM480-240q100 0 170-70t70-170q0-17.198-2.5-33.89-2.5-16.693-7.5-32.879-15.385 3.384-30.865 5.077Q663.654-540 648.173-540q-65.019 0-123.366-26.116-58.346-26.115-102.577-74.423-26.461 57.385-73.73 99.962Q301.231-498 240-478.231q1.846 98.769 71.538 168.5Q381.231-240 480-240Zm-96.079-165q-16.541 0-27.731-11.19Q345-427.38 345-443.921q0-16.541 11.19-28.041t27.731-11.5q16.541 0 28.041 11.5t11.5 28.041q0 16.541-11.5 27.731-11.5 11.19-28.041 11.19Zm192.307 0q-16.541 0-27.731-11.19-11.19-11.19-11.19-27.731 0-16.541 11.19-28.041t27.731-11.5q16.541 0 28.041 11.5t11.5 28.041q0 16.541-11.5 27.731-11.5 11.19-28.041 11.19ZM60.002-720v-179.999H240V-840H120v120H60.002Zm0 659.999V-240H120v120h120v59.998H60.001Zm659.998 0V-120h120v-120h59.999v179.999H720ZM840-720v-120H720v-59.999h179.999V-720H840Z"/></svg>