<svg xmlns="http://www.w3.org/2000/svg" height="20" viewBox="0 -960 960 960" width="20"><path d="M480-87.87q-80.634 0-152.089-30.717T202.88-202.88q-53.576-53.576-84.293-125.031Q87.869-399.366 87.869-480q0-81.435 32.218-152.489 32.217-71.055 85.793-124.631 53.576-53.576 125.031-84.293Q402.366-872.131 480-872.131q21.504 0 40.535 2 19.03 2 29.791 4.761v241.848q-15.761-47.282-34.641-95.424-18.881-48.141-36.163-67.424-21.044 21.522-35.685 70.283-14.641 48.761-22.641 93.283h129.13v71.617H412.145q-1.949 19.904-2.449 37.046-.5 17.141-.5 34.021 0 16.881.48 34.642.48 17.761 2.44 36.761h135.489q1.96-20 2.221-37.267.261-17.267.261-31.016 0-13.522-.761-33.185-.761-19.663-1.522-38.945h73q.642 23.282 1.462 41.583.821 18.3.821 29.547 0 17.749-.381 35.016-.38 17.267-2.141 34.267H779.72q4.932-19.761 6.932-37.106 2-17.344 2-34.177 0-17.247-2.321-35.047-2.32-17.801-5.961-34.083h85.239q3.522 20.282 5.022 36.065 1.5 15.782 1.5 33.065 0 78.634-30.718 150.089-30.717 71.455-84.293 125.031-53.576 53.576-124.631 85.293Q561.435-87.869 480-87.869ZM179.755-408.716h159.441q-2-19-2.5-37.267-.5-18.267-.5-36.016 0-18 .5-35.141.5-17.142 2.5-34.142H179.87q-5 19.757-7 36.52t-2 34.643q0 16.881 1.971 34.223t6.914 37.18ZM389.717-183.63q-14.478-28.522-24.5-67.522-10.021-39-16.92-86.283H206.63q28.283 56.522 76.419 96.733 48.137 40.212 106.668 57.072ZM206.63-622.804h141.667q6.899-47.283 17.42-86.163 10.522-38.881 25-67.403-58.531 16.813-107.168 56.929-48.636 40.115-76.919 96.637ZM479.522-173.63q16.043-16.522 33.043-62.903 17-46.38 26-100.902H421.196q9 54.522 25.641 100.902 16.641 46.381 32.685 62.903Zm90.043-10q58.522-16.761 106.902-57.022 48.381-40.261 76.663-96.783H611.464q-6.899 47.283-17.16 86.283t-24.739 67.522Zm51.565-437.5v-251.001h251.001v251.001H621.13Zm129.088-129.088h64.586v-64.586h-64.586v64.586Z"/></svg>