<svg xmlns="http://www.w3.org/2000/svg" height="20" viewBox="0 -960 960 960" width="20"><path d="M164.001-164.001V-216H258v51.999h-93.999Zm0-145V-361h273.46v51.999h-273.46Zm0-145v-51.998h631.998v51.998H164.001Zm0-144.999v-51.999h273.46V-599h-273.46Zm0-145v-51.999H258V-744h-93.999Zm179.462 579.999V-216h93.998v51.999h-93.998Zm0-579.999v-51.999h93.998V-744h-93.998Zm179.076 579.999V-216h93.998v51.999h-93.998Zm0-145V-361h273.46v51.999h-273.46Zm0-289.999v-51.999h273.46V-599h-273.46Zm0-145v-51.999h93.998V-744h-93.998ZM702-164.001V-216h93.999v51.999H702ZM702-744v-51.999h93.999V-744H702Z"/></svg>