<svg xmlns="http://www.w3.org/2000/svg" height="20" viewBox="0 -960 960 960" width="20"><path d="M180.695-384q0-90.435 52-187.348 52-96.913 149.565-182.739 36.783-31.087 72.914-18.348t36.131 57.348V-697q0 25.195 17.72 42.945T553-636.305q14.304 0 24.063-4.123 9.759-4.123 16.024-12.485 12.192-14.638 30.618-17.298 18.425-2.659 31.686 8.037 56.392 47.391 90.653 122.435 34.261 75.043 33.261 154.761-1 79.913-37.5 145.989-36.5 66.076-103.065 107.772 17.868-25.128 26.912-53.655t9.044-58.364q0-36.547-12.602-70.161-12.602-33.613-37.66-60.675L480-534.306 335.826-374.131q-24.696 26.696-37.609 60.621-12.913 33.926-12.913 70.27 0 30.675 9.544 59.76 9.544 29.086 28.412 54.263-66.565-40.696-104.565-108.279t-38-146.504ZM480-389.565l71.992 82.494q12.399 13.462 18.551 29.804 6.152 16.342 6.152 33.876 0 40.305-28.241 68.5-28.242 28.195-68.587 28.195t-68.454-28.195q-28.108-28.195-28.108-68.5 0-18.305 6.128-34.374 6.128-16.07 18.48-29.148L480-389.565Z"/></svg>