<svg xmlns="http://www.w3.org/2000/svg" height="24" viewBox="0 -960 960 960" width="24"><path d="m720-375.769-40-40v-247.308H432.692l-46.154-46.154V-840H580v136.923h140v327.308Zm-93.846-93.846L590.769-505v-98.077h35.385v133.462ZM497.692-595l-8.077-8.077h8.077V-595Zm-75.769-108.077h122.692v-101.538H421.923v101.538ZM366.154-120h-61.539v-40H240v-533h27.231L301-659.231h-21V-200h400v-80.231l40 40v80.486h-64.615V-120h-61.539v-40H366.154v40Zm-32.308-150.769v-317.154h35.385v317.154h-35.385Zm128.462 0v-227.154l35.384 35.615v191.539h-35.384Zm128.461 0v-98.462l35.385 35.385v63.077h-35.385Zm-34.307-268.769Zm-80.154 112.461ZM844.384-58.769 75.461-827.692 104-856.231 872.923-87.308l-28.539 28.539Z"/></svg>