<svg xmlns="http://www.w3.org/2000/svg" height="20" viewBox="0 -960 960 960" width="20"><path d="M806.479-273.674 555.304-440.456Q533.913-455.13 533.913-480q0-24.87 21.391-39.544l251.175-165.782q23.869-15.674 48.739-2.739 24.869 12.934 24.869 42.282v332.566q0 29.348-24.989 42.282-24.989 12.935-48.619-2.739Zm-414.457 0L140.848-440.456Q119.456-455.13 119.456-480q0-24.87 21.392-39.544l251.174-165.782q23.869-15.674 48.739-2.739 24.869 12.934 24.869 42.282v332.566q0 29.348-24.989 42.282-24.989 12.935-48.619-2.739ZM370.63-480Zm414.457 0ZM370.63-401.5v-156L252.522-480l118.108 78.5Zm414.457 0v-156L667.218-480l117.869 78.5Z"/></svg>