<svg xmlns="http://www.w3.org/2000/svg" height="20" viewBox="0 -960 960 960" width="20"><path d="M822.132-260.955 561.174-434.26q-24.652-16.957-24.652-45.74t24.652-45.74l260.958-172.305q27.783-17.956 56.566-3.065 28.783 14.892 28.783 48.805v345.61q0 33.913-29.066 48.805-29.065 14.891-56.283-3.065Zm-438.263 0L122.911-434.26Q98.259-451.217 98.259-480t24.652-45.74l260.958-172.305q27.783-17.956 56.566-3.065 28.783 14.892 28.783 48.805v345.61q0 33.913-29.066 48.805-29.065 14.891-56.283-3.065ZM359.216-480Zm438.263 0Zm-438.263 70.999v-140.998L251.87-480l107.346 70.999Zm438.263 0v-140.998L690.698-480l106.781 70.999Z"/></svg>