<svg xmlns="http://www.w3.org/2000/svg" height="20" viewBox="0 -960 960 960" width="20"><path d="M822.132-260.955 561.174-434.26q-25.217-16.957-25.217-45.74t25.217-45.74l260.958-172.305q27.783-18.522 56.566-2.847 28.783 15.674 28.783 48.587v345.61q0 32.913-28.783 48.305-28.783 15.391-56.566-2.565Zm-438.263 0L122.911-434.26Q97.694-451.217 97.694-480t25.217-45.74l260.958-172.305q27.783-18.522 56.566-2.847 28.783 15.674 28.783 48.587v345.61q0 32.913-28.783 48.305-28.783 15.391-56.566-2.565Z"/></svg>