<svg xmlns="http://www.w3.org/2000/svg" height="24" viewBox="0 -960 960 960" width="24"><path d="M820-129h-27q-16.467 0-27.233-10.767Q755-150.533 755-167t10.767-27.233Q776.533-205 793-205h27v-27q0-16.033 10.767-26.517Q841.533-269 858-269q16.033 0 26.517 10.483Q895-248.033 895-232v27h27q16.467 0 27.233 10.767Q960-183.467 960-167t-10.767 27.233Q938.467-129 922-129h-27v27q0 16.033-10.477 26.517Q874.047-65 858.023-65 842-65 831-75.767 820-86.533 820-103v-26ZM520-95v-165q0-16.033 10.767-26.517Q541.533-297 558-297h102q33 0 54 21t21 54v33.016q0 18.984-8 31.484T704-135l13 27q8 18-2.25 34.5T684-57q-11 0-19-5.5T652-77l-20-42h-37v25q0 16.033-10.477 26.517Q574.047-57 558.023-57 542-57 531-67.767 520-78.533 520-95Zm75-94h65v-33h-65v33ZM75-146v52q0 16.033-10.477 26.517Q54.047-57 38.023-57 22-57 11-67.483 0-77.967 0-94v-166q0-16.033 10.767-26.517Q21.533-297 38-297q16.033 0 26.517 10.483Q75-276.033 75-260v46h65v-46q0-16.033 10.767-26.517Q161.533-297 178-297q16.033 0 26.517 10.483Q215-276.033 215-260v166q0 16.033-10.477 26.517Q194.047-57 178.023-57 162-57 151-67.767 140-78.533 140-95v-51H75Zm185 51v-165q0-16.033 10.767-26.517Q281.533-297 298-297h102q33 0 54 21t21 54v90q0 33-21 54t-54 21H298q-16.467 0-27.233-10.767Q260-78.533 260-95Zm75-37h65v-90h-65v90Zm392-406L363-903q26-13 56.333-19.5Q449.667-929 480-929q113 0 193.5 80.5T754-655.302q0 29.302-6.5 59.802T727-538ZM480-382q-113 0-193.5-80T206-655.178Q206-688 214-721t23-61l-30-30q-14-14-14-33.5t14-33.5q14-14 33-14t33 14l431 430q14 14 14 33t-14 33q-14 14-33.5 14T637-383l-31-30q-30 16-61 23.5t-65 7.5Z"/></svg>