<svg xmlns="http://www.w3.org/2000/svg" height="24" viewBox="0 -960 960 960" width="24"><path d="M832.308-172.308H770q-7.667 0-12.68-5.002-5.012-5.003-5.012-12.654t5.012-12.69q5.013-5.038 12.68-5.038h62.308V-270q0-7.667 5.002-12.68 5.003-5.012 12.654-5.012t12.69 5.012q5.038 5.013 5.038 12.68v62.308H930q7.667 0 12.68 5.002 5.012 5.003 5.012 12.654t-5.012 12.69q-5.013 5.038-12.68 5.038h-62.308V-110q0 7.667-5.002 12.68-5.003 5.012-12.654 5.012t-12.69-5.012q-5.038-5.013-5.038-12.68v-62.308Zm-300 62.308v-180q0-7.667 5.012-12.68 5.013-5.012 12.68-5.012h97.692q24 0 42 17.23 18 17.231 18 42.77v15.384q0 18.385-10.5 33.962-10.5 15.577-31.653 23.577l26.153 59.077q3.693 8.615-1.23 16-4.923 7.384-14.77 7.384-4.923 0-9.389-2.461-4.466-2.462-6.38-7.385l-31.308-70.154h-60.923V-110q0 7.667-5.002 12.68-5.003 5.012-12.654 5.012t-12.69-5.012q-5.038-5.013-5.038-12.68Zm35.384-97.692h80q9.231 0 16.923-7.693 7.693-7.692 7.693-16.923v-15.384q0-9.231-7.693-16.923-7.692-7.693-16.923-7.693h-80v64.616Zm-520 15.384V-110q0 7.667-5.002 12.68-5.003 5.012-12.654 5.012t-12.69-5.012q-5.038-5.013-5.038-12.68v-180q0-7.667 5.002-12.68 5.003-5.012 12.654-5.012t12.69 5.012q5.038 5.013 5.038 12.68v62.308h104.616V-290q0-7.667 5.002-12.68 5.003-5.012 12.654-5.012t12.69 5.012q5.038 5.013 5.038 12.68v180q0 7.667-5.002 12.68-5.003 5.012-12.654 5.012t-12.69-5.012q-5.038-5.013-5.038-12.68v-82.308H47.692ZM272.308-110v-180q0-7.667 5.012-12.68 5.013-5.012 12.68-5.012h97.692q24 0 42 18t18 42v95.384q0 24-18 42t-42 18H290q-7.667 0-12.68-5.012-5.012-5.013-5.012-12.68Zm35.384-17.692h80q9.231 0 16.923-7.693 7.693-7.692 7.693-16.923v-95.384q0-9.231-7.693-16.923-7.692-7.693-16.923-7.693h-80v144.616ZM666-566.769 634.769-598q2.769-11 4-21Q640-629 640-640q0-66-47-113t-113-47q-11 0-21.769 1.5-10.769 1.5-19 3.731l-31.693-31.693q16.77-6.615 35.077-10.077Q460.923-840 480-840q83.333 0 141.667 58.333Q680-723.333 680-640q0 17.539-3.307 36.615-3.308 19.077-10.693 36.616ZM480-440q-83.333 0-141.667-58.333Q280-556.667 280-640q0-29.769 8.307-58.077 8.308-28.308 25.693-51.308L259.846-802q-6.385-5.615-6-13.769.385-8.154 6.385-14.539 6-6.384 14.153-6.769 8.154-.385 14.539 6l381.385 381.385q5.615 5.615 6 13.769.384 8.154-6 14.539Q663.923-415 656.154-415T642-421.384L589.385-474q-22.231 15.846-49.731 24.923Q512.154-440 480-440Zm79.692-63.692-216-216q-11.461 17.231-17.577 37.961Q320-661 320-640q0 66 47 113t113 47q23.308 0 42.5-5.731 19.192-5.73 37.192-17.961ZM537-696.769Zm-85.308 85.077Z"/></svg>