<svg xmlns="http://www.w3.org/2000/svg" height="20" viewBox="0 -960 960 960" width="20"><path d="M826-190h-58q-8.067 0-14.033-5.953-5.967-5.954-5.967-14Q748-218 753.967-224q5.966-6 14.033-6h58v-58q0-8.067 5.953-14.033 5.954-5.967 14-5.967Q854-308 860-302.033q6 5.966 6 14.033v58h58q8.067 0 14.033 5.953 5.967 5.954 5.967 14Q944-202 938.033-196q-5.966 6-14.033 6h-58v58q0 8.067-5.953 14.033-5.954 5.967-14 5.967Q838-112 832-117.967q-6-5.966-6-14.033v-58Zm-306 58v-168q0-8.067 5.967-14.033Q531.933-320 540-320h92q30 0 51 20t21 52v-8q0 11-6 31t-30 27l25 54q5 11-1.5 21.5T673-112q-7 0-12.206-3.5-5.206-3.5-8.794-9.5l-26-59h-66v52q0 8.067-5.953 14.033-5.954 5.967-14 5.967Q532-112 526-117.967q-6-5.966-6-14.033Zm40-92h72q12 0 22-10t10-22v8q0-12-10-22t-22-10h-72v56ZM56-196v64q0 8.067-5.953 14.033-5.954 5.967-14 5.967Q28-112 22-117.967q-6-5.966-6-14.033v-168q0-8.067 5.953-14.033 5.954-5.967 14-5.967Q44-320 50-314.033q6 5.966 6 14.033v64h104v-64q0-8.067 5.953-14.033 5.954-5.967 14-5.967Q188-320 194-314.033q6 5.966 6 14.033v168q0 8.067-5.953 14.033-5.954 5.967-14 5.967Q172-112 166-117.967q-6-5.966-6-14.033v-64H56Zm224 64v-168q0-8.067 5.967-14.033Q291.933-320 300-320h68q30 0 51 21t21 51v64q0 30-21 51t-51 21h-68q-8.067 0-14.033-5.967Q280-123.933 280-132Zm40-20h48q12 0 22-10t10-22v-64q0-12-10-22t-22-10h-48v128Zm315-443-15-16q3-9 3.5-18.5t.5-18.5q0-60-42-102t-102-42q-11 0-21 1.5t-17 2.5l-14-13q11-4 24.5-7.5T480-812q68.333 0 116.167 47.833Q644-716.333 644-648q0 12-2 26.5t-7 26.5ZM480-484q-68.333 0-116.167-47.833Q316-579.667 316-648q0-26 8.5-53.5T351-748l-56-54q-5-4-4.5-6.5t5-7.5q4.5-5 7.5-5.5t8 4.5l338 338q4 4 4 6.5t-5 7.5q-5 5-7 5t-7-5l-54-54q-22 16-45.5 25.5T480-484Zm86-48L364-734q-13 22-20.5 43t-7.5 43q0 60 42 102t102 42q26 0 45.5-7t40.5-21Zm-35-168Zm-66 67Z"/></svg>