<svg xmlns="http://www.w3.org/2000/svg" height="24" viewBox="0 -960 960 960" width="24"><path d="m142.308-60 112-577.846-118.154 48.769V-460h-40v-155.692l182.769-76q25.923-11.231 49.769-6.347 23.847 4.885 38.539 28.808L406.462-606q25.461 41.461 70.346 70.654 44.884 29.192 99.346 33.807v40.001q-56-3.846-112.346-35.193-56.346-31.346-97.654-97.884l-35.538 180.769 85.538 83.077v270.77h-40v-226.924L259.846-398.461 183.231-60h-40.923Zm233.846-692.308q-28.385 0-48.039-19.653-19.654-19.654-19.654-48.039t19.654-48.039q19.654-19.653 48.039-19.653t48.038 19.653q19.654 19.654 19.654 48.039t-19.654 48.039q-19.653 19.653-48.038 19.653Zm400 695.385L751.077-82l40.307-40.308H568.461v-35.384h222.923L751.077-198l25.077-25.077L859.231-140l-83.077 83.077Zm-120-170L573.077-310l83.077-83.077L681.231-368l-40.308 40.308h222.923v35.384H640.923L681.231-252l-25.077 25.077Z"/></svg>