<svg xmlns="http://www.w3.org/2000/svg" height="20" viewBox="0 -960 960 960" width="20"><path d="m77.172-111.521 91.87-472.609-64.869 28.913v107.696H14.65v-168.697l196.305-79.695q41.392-17.131 76.435-3.283 35.044 13.848 56.74 48.674l13.13 20q19.435 31.739 49.435 62.891 30 31.152 111.131 31.152v88.958q-60.696 0-110.479-23.457-49.782-23.456-83.913-63.499l-18.478 99.651 68.87 69.435v253.87h-88.958v-218.088l-62.999-61.999-55.304 280.087H77.172ZM324.13-728.479q-38.957 0-65.718-27.043-26.761-27.044-26.761-66.001 0-38.956 26.761-65.717 26.761-26.761 65.718-26.761 38.957 0 66 26.761 27.044 26.761 27.044 65.717 0 38.957-27.044 66.001-27.043 27.043-66 27.043ZM738.653-78.477l-40.218-40.218 42.522-42.522H551.175v-56.479h189.782l-42.522-42.522 40.218-39.652L849.35-189.174 738.653-78.477Zm-78.477-172.828L549.479-362.001l110.697-110.697 39.652 40.218-41.956 41.957h189.782v57.044H657.872l41.956 41.956-39.652 40.218Z"/></svg>