<svg xmlns="http://www.w3.org/2000/svg" height="24" viewBox="0 -960 960 960" width="24"><path d="M120-380q-8 0-14-6t-6-14q0-8 6-14t14-6q8 0 14 6t6 14q0 8-6 14t-14 6Zm0-160q-8 0-14-6t-6-14q0-8 6-14t14-6q8 0 14 6t6 14q0 8-6 14t-14 6Zm120 333.846q-14.385 0-24.115-9.731-9.731-9.73-9.731-24.115 0-14.385 9.731-24.115 9.73-9.731 24.115-9.731 14.385 0 24.115 9.731 9.731 9.73 9.731 24.115 0 14.385-9.731 24.115-9.73 9.731-24.115 9.731Zm0-160q-14.385 0-24.115-9.731-9.731-9.73-9.731-24.115 0-14.385 9.731-24.115 9.73-9.731 24.115-9.731 14.385 0 24.115 9.731 9.731 9.73 9.731 24.115 0 14.385-9.731 24.115-9.73 9.731-24.115 9.731Zm0-160q-14.385 0-24.115-9.731-9.731-9.73-9.731-24.115 0-14.385 9.731-24.115 9.73-9.731 24.115-9.731 14.385 0 24.115 9.731 9.731 9.73 9.731 24.115 0 14.385-9.731 24.115-9.73 9.731-24.115 9.731Zm0-160q-14.385 0-24.115-9.731-9.731-9.73-9.731-24.115 0-14.385 9.731-24.115 9.73-9.731 24.115-9.731 14.385 0 24.115 9.731 9.731 9.73 9.731 24.115 0 14.385-9.731 24.115-9.73 9.731-24.115 9.731Zm160.181 333.846q-19.796 0-33.835-13.857-14.038-13.858-14.038-33.654 0-19.796 13.857-33.835 13.858-14.038 33.654-14.038 19.796 0 33.835 13.857 14.038 13.858 14.038 33.654 0 19.796-13.857 33.835-13.858 14.038-33.654 14.038Zm0-160q-19.796 0-33.835-13.857-14.038-13.858-14.038-33.654 0-19.796 13.857-33.835 13.858-14.038 33.654-14.038 19.796 0 33.835 13.857 14.038 13.858 14.038 33.654 0 19.796-13.857 33.835-13.858 14.038-33.654 14.038ZM400-206.154q-14.385 0-24.115-9.731-9.731-9.73-9.731-24.115 0-14.385 9.731-24.115 9.73-9.731 24.115-9.731 14.385 0 24.115 9.731 9.731 9.73 9.731 24.115 0 14.385-9.731 24.115-9.73 9.731-24.115 9.731Zm0-480q-14.385 0-24.115-9.731-9.731-9.73-9.731-24.115 0-14.385 9.731-24.115 9.73-9.731 24.115-9.731 14.385 0 24.115 9.731 9.731 9.73 9.731 24.115 0 14.385-9.731 24.115-9.73 9.731-24.115 9.731ZM400-100q-8 0-14-6t-6-14q0-8 6-14t14-6q8 0 14 6t6 14q0 8-6 14t-14 6Zm0-720q-8 0-14-6t-6-14q0-8 6-14t14-6q8 0 14 6t6 14q0 8-6 14t-14 6Zm160.181 467.692q-19.796 0-33.835-13.857-14.038-13.858-14.038-33.654 0-19.796 13.857-33.835 13.858-14.038 33.654-14.038 19.796 0 33.835 13.857 14.038 13.858 14.038 33.654 0 19.796-13.857 33.835-13.858 14.038-33.654 14.038Zm0-160q-19.796 0-33.835-13.857-14.038-13.858-14.038-33.654 0-19.796 13.857-33.835 13.858-14.038 33.654-14.038 19.796 0 33.835 13.857 14.038 13.858 14.038 33.654 0 19.796-13.857 33.835-13.858 14.038-33.654 14.038ZM560-206.154q-14.385 0-24.115-9.731-9.731-9.73-9.731-24.115 0-14.385 9.731-24.115 9.73-9.731 24.115-9.731 14.385 0 24.115 9.731 9.731 9.73 9.731 24.115 0 14.385-9.731 24.115-9.73 9.731-24.115 9.731Zm0-480q-14.385 0-24.115-9.731-9.731-9.73-9.731-24.115 0-14.385 9.731-24.115 9.73-9.731 24.115-9.731 14.385 0 24.115 9.731 9.731 9.73 9.731 24.115 0 14.385-9.731 24.115-9.73 9.731-24.115 9.731ZM560-100q-8 0-14-6t-6-14q0-8 6-14t14-6q8 0 14 6t6 14q0 8-6 14t-14 6Zm0-720q-8 0-14-6t-6-14q0-8 6-14t14-6q8 0 14 6t6 14q0 8-6 14t-14 6Zm160 613.846q-14.385 0-24.115-9.731-9.731-9.73-9.731-24.115 0-14.385 9.731-24.115 9.73-9.731 24.115-9.731 14.385 0 24.115 9.731 9.731 9.73 9.731 24.115 0 14.385-9.731 24.115-9.73 9.731-24.115 9.731Zm0-160q-14.385 0-24.115-9.731-9.731-9.73-9.731-24.115 0-14.385 9.731-24.115 9.73-9.731 24.115-9.731 14.385 0 24.115 9.731 9.731 9.73 9.731 24.115 0 14.385-9.731 24.115-9.73 9.731-24.115 9.731Zm0-160q-14.385 0-24.115-9.731-9.731-9.73-9.731-24.115 0-14.385 9.731-24.115 9.73-9.731 24.115-9.731 14.385 0 24.115 9.731 9.731 9.73 9.731 24.115 0 14.385-9.731 24.115-9.73 9.731-24.115 9.731Zm0-160q-14.385 0-24.115-9.731-9.731-9.73-9.731-24.115 0-14.385 9.731-24.115 9.73-9.731 24.115-9.731 14.385 0 24.115 9.731 9.731 9.73 9.731 24.115 0 14.385-9.731 24.115-9.73 9.731-24.115 9.731ZM840-380q-8 0-14-6t-6-14q0-8 6-14t14-6q8 0 14 6t6 14q0 8-6 14t-14 6Zm0-160q-8 0-14-6t-6-14q0-8 6-14t14-6q8 0 14 6t6 14q0 8-6 14t-14 6Z"/></svg>