<svg xmlns="http://www.w3.org/2000/svg" height="20" viewBox="0 -960 960 960" width="20"><path d="M720-96H96v-353l362-295 66 64-80 152h324v72H504v48h360v72H504v48h312v72H504v48h216v72Zm-84.141-504Q601-600 576.5-624.641q-24.5-24.642-24.5-59.5Q552-719 576.641-743.5q24.642-24.5 59.5-24.5Q671-768 695.5-743.359q24.5 24.642 24.5 59.5Q720-649 695.359-624.5q-24.642 24.5-59.5 24.5ZM708-792q-25 0-42.5-17.5T648-852q0-25 17.5-42.5T708-912q25 0 42.5 17.5T768-852q0 25-17.5 42.5T708-792Zm131.788 156Q810-636 789-657.212q-21-21.213-21-51Q768-738 789.212-759q21.213-21 51-21Q870-780 891-758.788q21 21.213 21 51Q912-678 890.788-657q-21.213 21-51 21Z"/></svg>