<svg xmlns="http://www.w3.org/2000/svg" height="20" viewBox="0 -960 960 960" width="20"><path d="M639.767-603.462q-30.689 0-52.305-21.694-21.615-21.695-21.615-52.384 0-30.69 21.695-52.305 21.694-21.615 52.384-21.615 30.689 0 52.305 21.694 21.615 21.695 21.615 52.384 0 30.69-21.695 52.305-21.694 21.615-52.384 21.615ZM820.171-636q-25.941 0-43.864-18.135-17.923-18.136-17.923-44.077t18.135-43.864q18.135-17.923 44.077-17.923 25.941 0 43.864 18.136 17.922 18.135 17.922 44.076t-18.135 43.864Q846.112-636 820.171-636ZM708.045-787.384q-20.814 0-35.429-14.57-14.615-14.57-14.615-35.384t14.57-35.43q14.57-14.615 35.384-14.615t35.429 14.57q14.615 14.57 14.615 35.384t-14.57 35.43q-14.57 14.615-35.384 14.615Zm-8.046 671.383H116.001v-323.768l354.692-289.999 51.384 50.922-86.539 164.693h312.461v51.999h-395.92l92.155-173.771L168-416.539V-168h531.999v51.999ZM524.001-346.77v-51.999h319.998v51.999H524.001Zm0 115.384v-51.998h271.998v51.998H524.001Zm-178-129.309Z"/></svg>