<svg xmlns="http://www.w3.org/2000/svg" height="24" viewBox="0 -960 960 960" width="24"><path d="M778.653-60.782H60.782v-479.436L454.26-795.871l84.784 71.783L474.61-602.61h344.043v94.697H460.782v54.347h437.871v94.696H460.782v54.348h398.436v94.696H460.782v54.348h317.871v94.696ZM636.275-640.565q-31.318 0-53.514-22.139t-22.196-53.457q0-31.318 22.139-53.513 22.139-22.196 53.457-22.196t53.513 22.138q22.196 22.139 22.196 53.457t-22.138 53.514q-22.139 22.196-53.457 22.196Zm83.01-170.74q-27.328 0-46.523-19.129-19.196-19.129-19.196-46.457 0-27.327 19.129-46.523t46.457-19.196q27.327 0 46.523 19.129 19.196 19.13 19.196 46.457 0 27.328-19.129 46.523-19.13 19.196-46.457 19.196Zm139.933 166.783q-36.031 0-61.689-25.659-25.659-25.658-25.659-61.689t25.659-61.69q25.658-25.658 61.689-25.658 36.032 0 61.69 25.658 25.659 25.659 25.659 61.69t-25.659 61.689q-25.658 25.659-61.69 25.659Z"/></svg>