<svg xmlns="http://www.w3.org/2000/svg" height="24" viewBox="0 -960 960 960" width="24"><path d="M640.162-649Q622-649 609-661.838q-13-12.839-13-31Q596-711 608.838-724q12.839-13 31-13Q658-737 671-724.162q13 12.839 13 31Q684-675 671.162-662q-12.839 13-31 13ZM789-640q-23 0-38.5-15.5T735-694q0-23 15.5-38.5T789-748q23 0 38.5 15.5T843-694q0 23-15.5 38.5T789-640Zm-88.882-148Q686-788 676-797.882q-10-9.883-10-24Q666-836 675.882-846q9.883-10 24-10Q714-856 724-846.118q10 9.883 10 24Q734-808 724.118-798q-9.883 10-24 10ZM708-132H132v-365l366-237 27 31-95 159h318v28H381l106-178-327 212v322h548v28ZM532-388v-28h296v28H532Zm0 128v-28h256v28H532ZM346-427Z"/></svg>