<svg xmlns="http://www.w3.org/2000/svg" height="20" viewBox="0 -960 960 960" width="20"><path d="M296-100q-21.45 0-36.725-15.275Q244-130.55 244-152v-656q0-21.45 15.275-36.725Q274.55-860 296-860h368q21.45 0 36.725 15.275Q716-829.45 716-808v656q0 21.45-15.275 36.725Q685.45-100 664-100H296Zm-32-94v42q0 14 9 23t23 9h368q14 0 23-9t9-23v-42H264Zm0-572h432v-42q0-14-9-23t-23-9H296q-14 0-23 9t-9 23v42Zm216.5 402q-58.5 0-113 19T265-292v78h430v-78q-47.014-34.8-101.507-53.4T480.5-364Zm-.5-20q57 0 112 16.062Q647-351.875 696-320v-426H264v426q49-31.875 104-47.938Q423-384 480-384Zm-.118-74Q519-458 546.5-485.382q27.5-27.383 27.5-66.5Q574-591 546.618-618.5q-27.383-27.5-66.5-27.5Q441-646 413.5-618.618q-27.5 27.383-27.5 66.5Q386-513 413.382-485.5q27.383 27.5 66.5 27.5Zm.118-20q-30.4 0-52.2-21.8Q406-521.6 406-552q0-30.4 21.8-52.2Q449.6-626 480-626q30.4 0 52.2 21.8Q554-582.4 554-552q0 30.4-21.8 52.2Q510.4-478 480-478Zm0 264h215-430 215Zm0-338Zm0-214Zm0 572Z"/></svg>