<svg xmlns="http://www.w3.org/2000/svg" height="20" viewBox="0 -960 960 960" width="20"><path d="m728-278.615-32-32.001V-552H454.616l-32.001-32H600v-96q0-50.769-36.538-85.385Q526.923-800 476.154-800q-50.769 0-87.692 35.384-36.923 35.385-36.923 84.616v20.307l-28.847-28.846q3.923-61.923 46.846-102.692Q412.462-832 476.154-832q64.615 0 110.231 44.077Q632-743.846 632-680v96h96v305.385ZM802-56l-79-80H232v-445.539h45.461L56-803l23.308-23.308 746 747L802-56ZM690-168 524.154-333.846q-6.692 12.692-19.231 19.654-12.538 6.961-24.923 6.961-22.308 0-37.154-14.846Q428-336.923 428-359.231q0-12.384 5.961-24.423 5.962-12.038 19.654-20.731L306-552h-42v384h426ZM488-370Zm84.308-64.308Z"/></svg>