<svg xmlns="http://www.w3.org/2000/svg" height="20" viewBox="0 -960 960 960" width="20"><path d="m776.131-296.63-83.001-83.24v-169.978H523.152l-83-83h152.435v-89.065q0-47.21-32.848-80.257-32.848-33.047-79.93-33.047-47.082 0-80.097 32.868-33.016 32.869-33.016 79.719v16.326L295-778q18.196-63.565 68.598-101.891Q414-918.218 479.761-918.218q81.596 0 138.711 56.957 57.115 56.957 57.115 138.631v89.782h100.544v336.218Zm31.847 245.652-36.847-37.609H183.869v-537.391h50.109L56-803.717l53.63-53.631L861.37-104.37l-53.392 53.392ZM687.37-171.587l-149.131-149.13q-9 15-25 23.5t-33 8.5q-30 0-51-21t-21-51q0-17 7.5-32.5t23.5-26.5L309.348-549.848H266.87v378.261h420.5Zm-198.892-199.13Zm116.544-97.261Z"/></svg>