<svg xmlns="http://www.w3.org/2000/svg" height="24" viewBox="0 -960 960 960" width="24"><path d="M779.999-266.307 426.307-619.999H600v-80q0-50.384-35.269-85.192-35.27-34.808-85.654-34.808-50.385 0-85.346 34.693-34.962 34.692-34.962 85.307v10.154l-54.922-54.921q15.461-59.462 64.422-97.346 48.962-37.885 110.808-37.885 75.307 0 128.114 52.538 52.808 52.538 52.808 127.46v80h120v353.692ZM820-28l-72.001-72.001H180.001v-516.767h51.231L28-820l42.153-42.153 792 792L820-28ZM431.308-414.692q-9.846 9.846-15.077 22.615-5.23 12.77-5.23 27.462 0 29.153 20.423 49.576 20.422 20.423 49.576 20.423 14.692 0 27.461-5.231 12.769-5.231 22.615-15.077l-99.768-99.768Z"/></svg>