<svg xmlns="http://www.w3.org/2000/svg" height="24" viewBox="0 -960 960 960" width="24"><path d="M774.769-124.615 576.154-323.23q-89.769 78.923-185.039 121.076Q295.846-160 202.769-160q-19.385 0-31.077-12T160-202v-97.385q0-17.077 10.154-29.115 10.153-12.039 26.461-15.808l84.154-17.231q14.077-2.769 26.346 1.077 12.27 3.846 22.577 14.154l85.539 87.077q31.846-17.154 68.615-43.077 36.769-25.923 63.538-49.692L128.615-770.769q-5.615-5.616-6-13.769-.385-8.154 6-14.539t14.154-6.385q7.769 0 14.154 6.385l646.154 646.154q5.615 5.615 6 13.769.385 8.154-6 14.539t-14.154 6.385q-7.769 0-14.154-6.385ZM376.923-240.923l-75.231-76.769q-3.846-3.846-7.307-5-3.462-1.154-8.077.384l-74 15.385q-6.154 1.538-9.231 5.385-3.077 3.846-3.077 10v80.307q0 4.616 3.077 7.693 3.077 3.076 7.692 3.076 34.077-.692 79.846-10.538 45.77-9.846 86.308-29.923Zm282-169.385-28.308-28.307q16.539-20.077 34.731-47.847 18.192-27.769 31.039-49.846l-87.77-81.846q-10.307-9.538-13.692-22.884-3.385-13.347-.615-26.962l19.846-95.385q3.769-16.308 15.807-26.461Q642-800 659.077-800H758q18 0 30 12.384 12 12.385 12 30.385 0 89.231-38.923 180.269-38.923 91.039-102.154 166.654Zm56-163.538Q735-619 746.692-663.615q11.693-44.616 12.846-85.616 0-4.615-3.076-7.692-3.077-3.077-7.693-3.077h-81.846q-6.154 0-10 3.077t-5.384 9.231l-18 84.769q-1.539 4.615-.385 9.615t5 8.846l76.769 70.616Zm0 0Zm-338 332.923Z"/></svg>