<svg xmlns="http://www.w3.org/2000/svg" height="24" viewBox="0 -960 960 960" width="24"><path d="M761.174-85.653 583.001-262.695q-91.261 74.261-198.588 118.087-107.326 43.826-222.978 43.826-29.087 0-44.588-17.329-15.5-17.33-15.5-43.324v-165.956q0-24.74 14.652-42.306 14.653-17.565 38.827-22.826l122.739-26.305q19.478-4.261 41.631 1.87 22.152 6.13 36.37 19.783l97.957 96.261q12.912-7.609 27.412-17.935 14.5-10.325 25.978-19.934L86.261-759.435q-12.696-12.695-12.413-31.391.282-18.696 12.978-31.392 12.696-12.695 31.109-12.413 18.413.283 31.109 12.979l674.347 674.347q12.696 12.696 12.414 30.826-.283 18.13-12.979 30.826Q810.13-72.957 792-72.957q-18.13 0-30.826-12.696ZM355.478-249.087l-65.435-64.304-82.695 18.304v85.174q38.174-4.131 75.348-14 37.174-9.87 72.782-25.174Zm352.523-139.478-76.914-74.653q9.296-10.394 18.902-23.845 9.606-13.45 15.184-25.067l-100.391-93.478q-15.349-13.652-19.762-33.24-4.413-19.587-.717-38.761l25.435-128.13q5.826-25.87 23.957-39.675 18.131-13.804 44.001-13.804H799.13q27.044 0 43.566 16.804 16.522 16.805 16.522 43.849 0 107.739-40.021 213.369-40.022 105.631-111.196 196.631Zm7.738-220.479q15.353-35.11 23.481-71.12 8.128-36.01 11.997-73.053h-84.608l-16.305 83.26 65.435 60.913Zm0 0ZM355.478-249.087Z"/></svg>