<svg xmlns="http://www.w3.org/2000/svg" height="20" viewBox="0 -960 960 960" width="20"><path d="M322-9.23q-12.385 0-22.577-10.193Q289.231-29.615 289.231-42q0-12.385 10.192-22.577Q309.615-74.769 322-74.769q12.385 0 22.577 10.192Q354.769-54.385 354.769-42q0 12.385-10.192 22.577Q334.385-9.231 322-9.231Zm159 0q-12.385 0-22.577-10.193Q448.231-29.615 448.231-42q0-12.385 10.192-22.577Q468.615-74.769 481-74.769q12.385 0 22.577 10.192Q513.769-54.385 513.769-42q0 12.385-10.192 22.577Q493.385-9.231 481-9.231Zm159 0q-12.385 0-22.577-10.193Q607.231-29.615 607.231-42q0-12.385 10.192-22.577Q627.615-74.769 640-74.769q12.385 0 22.577 10.192Q672.769-54.385 672.769-42q0 12.385-10.192 22.577Q652.385-9.231 640-9.231ZM481.176-434q-35.022 0-59.599-24.577Q397-483.154 397-518v-239q0-35.096 24.577-59.048Q446.154-840 481.176-840q35.023 0 58.924 23.952Q564-792.096 564-757v239q0 34.846-23.9 59.423Q516.199-434 481.176-434ZM481-637Zm0 497q-8.539 0-15.269-6.731Q459-153.461 459-162v-113.384q-87.134-8.839-148.182-70.304-61.049-61.466-69.126-147.62-.692-10.119 5.922-17.406Q254.229-518 264.923-518q7.077 0 12.692 5 5.616 5 7.077 14.077 6.649 74.873 63.119 126.398Q404.281-321 481-321q76.344 0 132.535-51.525 56.19-51.525 62.773-126.398Q677.769-508 682.615-513q4.847-5 13.73-5 10.407 0 17.031 7.286 6.624 7.287 5.932 17.406-6.9 86.373-68 147.738-61.1 61.366-148.308 70.186V-162q0 8.539-6.731 15.269Q489.539-140 481-140Zm0-338q17 0 28-11.461 11-11.462 11-28.404v-239.192Q520-774 508.788-785 497.575-796 481-796q-17 0-28.5 11.213Q441-773.575 441-757v239.143q0 16.939 11.5 28.398T481-478Z"/></svg>