<svg xmlns="http://www.w3.org/2000/svg" height="20" viewBox="0 -960 960 960" width="20"><path d="M322-4.616q-14.692 0-26.038-11.346T284.616-42q0-14.692 11.346-26.038T322-79.384q14.692 0 26.038 11.346T359.384-42q0 14.692-11.346 26.038T322-4.616Zm159 0q-14.692 0-26.038-11.346T443.616-42q0-14.692 11.346-26.038T481-79.384q14.692 0 26.038 11.346T518.384-42q0 14.692-11.346 26.038T481-4.616Zm159 0q-14.692 0-26.038-11.346T602.616-42q0-14.692 11.346-26.038T640-79.384q14.692 0 26.038 11.346T677.384-42q0 14.692-11.346 26.038T640-4.616ZM481.176-414q-43.098 0-73.637-30.538-30.538-30.539-30.538-73.461v-239q0-43.172 30.538-73.086 30.539-29.913 73.637-29.913 43.099 0 72.961 29.913 29.862 29.914 29.862 73.086v239q0 42.922-29.862 73.461-29.862 30.538-72.961 30.538ZM481-637Zm0 506.999q-12.769 0-22.384-9.615T449.001-162v-95.694q-89.441-10.377-152.028-73.38-62.587-63.004-74.125-151.081-1.847-14.35 7.845-25.098Q240.384-518 256.462-518q10.538 0 18.846 7.5 8.307 7.5 10.538 20.038 9.725 71.797 65.041 120.629Q406.204-321 481-321q74.421 0 129.458-48.833 55.037-48.832 64.696-120.629Q677.385-503 685.307-510.5q7.923-7.5 19.883-7.5 15.407 0 25.108 10.747 9.701 10.748 7.854 25.098-10.361 88.296-72.999 151.199-62.639 62.904-152.154 73.262V-162q0 12.769-9.615 22.384T481-130.001ZM481-478q17 0 28-11.461 11-11.462 11-28.404v-239.192Q520-774 508.788-785 497.575-796 481-796q-17 0-28.5 11.213Q441-773.575 441-757v239.143q0 16.939 11.5 28.398T481-478Z"/></svg>