<svg xmlns="http://www.w3.org/2000/svg" height="20" viewBox="0 -960 960 960" width="20"><path d="M180-528q-14 0-25-11t-11-25v-216q0-15.3 11-25.65Q166-816 180-816h216q15.3 0 25.65 10.35Q432-795.3 432-780v216q0 14-10.35 25T396-528H180Zm384 0q-14 0-25-11t-11-25v-216q0-15.3 11-25.65Q550-816 564-816h216q15.3 0 25.65 10.35Q816-795.3 816-780v216q0 14-10.35 25T780-528H564ZM180-144q-14 0-25-11t-11-25v-216q0-15.3 11-25.65Q166-432 180-432h216q15.3 0 25.65 10.35Q432-411.3 432-396v216q0 14-10.35 25T396-144H180Zm492 0q-14 0-25-11t-11-25v-72h-71.908Q549-252 538.5-262.289q-10.5-10.29-10.5-25.5Q528-303 539-313.5q11-10.5 25-10.5h72v-72.9q0-15.3 10.35-25.2Q656.7-432 672-432q15.275 0 25.609 10.35 10.333 10.35 10.333 25.65v72h72.783Q796-324 806-314q10 10 10 26 0 14-10.35 25T780-252h-72v71.908Q708-165 698-154.5 688-144 672-144Z"/></svg>