<svg xmlns="http://www.w3.org/2000/svg" height="24" viewBox="0 -960 960 960" width="24"><path d="M139.086-515.478q-22.087 0-37.544-15.457-15.457-15.456-15.457-37.544v-252.435q0-22.087 15.457-37.544 15.457-15.457 37.544-15.457h252.435q22.088 0 37.544 15.457 15.457 15.457 15.457 37.544v252.435q0 22.088-15.457 37.544-15.456 15.457-37.544 15.457H139.086Zm53.001-252.435v146.434-146.434Zm376.392 252.435q-22.088 0-37.544-15.457-15.457-15.456-15.457-37.544v-252.435q0-22.087 15.457-37.544 15.456-15.457 37.544-15.457h252.435q22.087 0 37.544 15.457 15.457 15.457 15.457 37.544v252.435q0 22.088-15.457 37.544-15.457 15.457-37.544 15.457H568.479Zm53-252.435v146.434-146.434ZM139.086-86.085q-22.087 0-37.544-15.457-15.457-15.457-15.457-37.544v-252.435q0-22.088 15.457-37.544 15.457-15.457 37.544-15.457h252.435q22.088 0 37.544 15.457 15.457 15.456 15.457 37.544v252.435q0 22.087-15.457 37.544-15.456 15.457-37.544 15.457H139.086Zm53.001-252.436v146.434-146.434ZM694.696-86.085q-22.087 0-37.544-15.457-15.456-15.457-15.456-37.544v-73.217h-74.217q-22.088 0-37.044-15.457-14.957-15.456-14.957-37.544 0-22.087 15.457-37.544 15.456-15.456 37.544-15.456h73.217v-74.217q0-22.088 15.456-37.044 15.457-14.957 37.544-14.957 22.088 0 37.544 15.457 15.457 15.456 15.457 37.544v73.217h74.217q22.087 0 37.044 15.456 14.957 15.457 14.957 37.544 0 22.088-15.457 37.544-15.457 15.457-37.544 15.457h-73.217v74.217q0 22.087-15.457 37.044-15.456 14.957-37.544 14.957Zm-73.217-681.828v146.434h146.434v-146.434H621.479Zm-429.392 0v146.434h146.434v-146.434H192.087Zm0 429.392v146.434h146.434v-146.434H192.087Z"/></svg>