<svg xmlns="http://www.w3.org/2000/svg" height="24" viewBox="0 -960 960 960" width="24"><path d="M172.308-540q-13.731 0-23.02-9.288-9.288-9.289-9.288-23.02v-215.384q0-13.731 9.288-23.02 9.289-9.288 23.02-9.288h215.384q13.731 0 23.02 9.288 9.288 9.289 9.288 23.02v215.384q0 13.731-9.288 23.02-9.289 9.288-23.02 9.288H172.308Zm400 0q-13.731 0-23.02-9.288-9.288-9.289-9.288-23.02v-215.384q0-13.731 9.288-23.02 9.289-9.288 23.02-9.288h215.384q13.731 0 23.02 9.288 9.288 9.289 9.288 23.02v215.384q0 13.731-9.288 23.02-9.289 9.288-23.02 9.288H572.308Zm-400 400q-13.731 0-23.02-9.288-9.288-9.289-9.288-23.02v-215.384q0-13.731 9.288-23.02 9.289-9.288 23.02-9.288h215.384q13.731 0 23.02 9.288 9.288 9.289 9.288 23.02v215.384q0 13.731-9.288 23.02-9.289 9.288-23.02 9.288H172.308Zm507.665 0q-8.512 0-14.242-5.75Q660-151.5 660-160v-100H559q-7.769 0-13.385-5.758Q540-271.515 540-280.027t5.75-14.242Q551.5-300 560-300h100v-101q0-7.769 5.758-13.385Q671.515-420 680.027-420t14.242 5.75Q700-408.5 700-400v100h101q7.769 0 13.385 5.758Q820-288.485 820-279.973t-5.75 14.242Q808.5-260 800-260H700v101q0 7.769-5.758 13.385Q688.485-140 679.973-140Z"/></svg>