<svg xmlns="http://www.w3.org/2000/svg" height="20" viewBox="0 -960 960 960" width="20"><path d="M750-35H228q-64.165 0-98.582-53Q95-141 120-200l69-161q13-32 42.452-51.5Q260.905-432 297-432h66l22-108q11-37 42.692-60.5Q459.385-624 498-624h155q39.261 0 71.13 24Q756-576 766-538l97 353q15 58-19.773 104Q808.455-35 750-35ZM540-819.912v-71.825Q540-913 555.289-928q15.29-15 36.5-15Q613-943 628-927.675t15 36.587v71.825Q643-798 628.211-783q-14.79 15-36 15Q571-768 555.5-783.325T540-819.912ZM707-804l51-51q16-16 35.5-15.5t35.5 16.022q16 16.478 16 37.394 0 20.916-15.783 36.728L778-730q-16 16-36.5 15.5T706-731q-16-16-15.5-36.5T707-804Zm-303 73-51-52q-16-16-16-35.5t15.522-35.5q15.478-16 36.894-15.5 21.416.5 36.228 15.283L477-803q16 16 15.5 36.5T477-731q-17 17-36.5 17T404-731Z"/></svg>