<svg xmlns="http://www.w3.org/2000/svg" height="24" viewBox="0 -960 960 960" width="24"><path d="M296-126q-23 0-38.5-15.5T242-180q0-23 15.5-38.5T296-234q23 0 38.5 15.5T350-180q0 23-15.5 38.5T296-126Zm368 0q-23 0-38.5-15.5T610-180q0-23 15.5-38.5T664-234q23 0 38.5 15.5T718-180q0 23-15.5 38.5T664-126ZM162-826h-56q-5.95 0-9.975-4.035-4.025-4.035-4.025-10T96.025-850q4.025-4 9.975-4h54.857q9.143 0 16.343 4.435Q184.4-845.13 188-837l154 323h261q9 0 16-4.5t12-12.5l131-236q2-3 5.115-5 3.116-2 6.923-2Q782-774 786-767t0 14L654-514q-8 13-20.542 20.5Q620.915-486 606-486H324l-50 92q-8 12-.5 26t22.5 14h408q5.95 0 9.975 4.035 4.025 4.035 4.025 10T713.975-330q-4.025 4-9.975 4H296q-32 0-47.5-26.5T248-406l62-110-148-310Zm318 246q-8.5 0-14.25-5.75T460-600q0-8.5 5.75-14.25T480-620q8.5 0 14.25 5.75T500-600q0 8.5-5.75 14.25T480-580Zm-.035-114Q474-694 470-698.025T466-708v-172q0-5.95 4.035-9.975 4.035-4.025 10-4.025t9.965 4.025q4 4.025 4 9.975v172q0 5.95-4.035 9.975-4.035 4.025-10 4.025Z"/></svg>