<svg xmlns="http://www.w3.org/2000/svg" height="24" viewBox="0 -960 960 960" width="24"><path d="m360.478-111.521 18.826-118.958h93.566l78.608-499.042h-81.347l-29 180H316.478l47.826-298.958h536.523l-46.696 298.958H729.478l28-180h-81.347l-79.174 499.042h93.566l-18.827 118.958H360.478ZM134.173-675.478l14.696-89.044H311.87l-14.696 89.044H134.173Zm-25 160 14.131-89.044h163l-14.13 89.044H109.173Zm-50 320 13.696-89.044h253.957l-13.696 89.044H59.173Zm25-160 14.13-89.044h254.523l-14.696 89.044H84.173Z"/></svg>