<svg xmlns="http://www.w3.org/2000/svg" height="24" viewBox="0 -960 960 960" width="24"><path d="M373.001-413.001h400l-138-180-92 120-62-80-108 140Zm-33.217 179.219q-44.305 0-75.154-30.848-30.848-30.849-30.848-75.154v-466.434q0-44.305 30.848-75.153 30.849-30.848 75.154-30.848h466.434q44.305 0 75.153 30.848 30.848 30.848 30.848 75.153v466.434q0 44.305-30.848 75.154-30.848 30.848-75.153 30.848H339.784Zm0-106.002h466.434v-466.434H339.784v466.434ZM153.782-47.781q-44.305 0-75.153-30.848-30.848-30.848-30.848-75.153v-572.436h106.001v572.436h572.436v106.001H153.782Zm186.002-758.437h466.434v466.434H339.784v-466.434Z"/></svg>