<svg xmlns="http://www.w3.org/2000/svg" height="20" viewBox="0 -960 960 960" width="20"><path d="M394.769-349.846q-10.516 0-18.027-7.511-7.511-7.512-7.511-18.028v-122.461q0-10.516 7.511-18.027 7.511-7.512 18.027-7.512H418v-24q0-25.923 18.135-44.346 18.136-18.423 44.847-18.423 26.71 0 44.633 18.423 17.924 18.423 17.924 44.346v24h23.23q9.883 0 16.941 7.512 7.059 7.511 7.059 18.027v122.461q0 10.516-7.511 18.028-7.511 7.511-18.027 7.511H394.769Zm50-173.539h72v-24q0-15.3-10.289-25.65-10.29-10.35-25.5-10.35-15.211 0-25.711 10.35-10.5 10.35-10.5 25.65v24ZM144.615-232q-24.315 0-40.465-16.15Q88-264.3 88-288.615v-382.77q0-24.315 16.15-40.465Q120.3-728 144.615-728h670.77q24.315 0 40.465 16.15Q872-695.7 872-671.385v382.77q0 24.315-16.15 40.465Q839.7-232 815.385-232h-670.77ZM220-264h520v-432H220v432Z"/></svg>