<svg xmlns="http://www.w3.org/2000/svg" height="24" viewBox="0 -960 960 960" width="24"><path d="M404.769-333.846q-14.633 0-25.086-10.453-10.452-10.452-10.452-25.086v-110.461q0-14.634 10.452-25.086 10.453-10.453 25.086-10.453H410v-40q0-29.923 20.423-50.346t50.346-20.423q29.923 0 50.346 20.423 20.424 20.423 20.424 50.346v40h5.23q14 0 24 10.453 10 10.452 10 25.086v110.461q0 14.634-10.452 25.086-10.453 10.453-25.086 10.453H404.769Zm36-181.539h80v-40q0-17-11.5-28.5t-28.5-11.5q-17 0-28.5 11.5t-11.5 28.5v40ZM144.615-240Q117-240 98.5-258.5 80-277 80-304.615v-350.77Q80-683 98.5-701.5 117-720 144.615-720h670.77Q843-720 861.5-701.5 880-683 880-655.385v350.77Q880-277 861.5-258.5 843-240 815.385-240h-670.77ZM220-280h520v-400H220v400Z"/></svg>