<svg xmlns="http://www.w3.org/2000/svg" height="20" viewBox="0 -960 960 960" width="20"><path d="M384-336q-9.882 0-16.941-7.059Q360-350.118 360-360v-144q0-9.882 7.059-16.941Q374.118-528 384-528h24v-24q0-29 21.212-50.5 21.213-21.5 51-21.5Q510-624 531-602.5q21 21.5 21 50.5v24h24q9.882 0 16.941 7.059Q600-513.882 600-504v144q0 9.882-7.059 16.941Q585.882-336 576-336H384Zm60-192h72v-24q0-15.3-10.289-25.65-10.29-10.35-25.5-10.35Q465-588 454.5-577.65 444-567.3 444-552v24ZM135-161q-49.7 0-83.85-34.15Q17-229.3 17-279v-402q0-49.7 34.15-83.85Q85.3-799 135-799h690q49.7 0 83.85 34.15Q943-730.7 943-681v402q0 49.7-34.15 83.85Q874.7-161 825-161H135Zm120-118h450v-402H255v402Z"/></svg>