<svg xmlns="http://www.w3.org/2000/svg" height="20" viewBox="0 -960 960 960" width="20"><path d="M398-354q-10.882 0-18.441-7.559Q372-369.118 372-380v-116q0-10.882 7.559-18.441Q387.118-522 398-522h23v-24q0-25 17.212-42.5 17.213-17.5 43-17.5Q507-606 524-588.5q17 17.5 17 42.5v24h23q9.882 0 16.941 7.559Q588-506.882 588-496v116q0 10.882-7.559 18.441Q572.882-354 562-354H398Zm47-168h72v-24q0-15.3-10.289-25.65-10.29-10.35-25.5-10.35Q466-582 455.5-571.65 445-561.3 445-546v24ZM152-244q-22.7 0-37.35-14.65Q100-273.3 100-296v-368q0-22.7 14.65-37.35Q129.3-716 152-716h656q22.7 0 37.35 14.65Q860-686.7 860-664v368q0 22.7-14.65 37.35Q830.7-244 808-244H152Zm42-20v-432h-42q-12 0-22 10t-10 22v368q0 12 10 22t22 10h42Zm20 0h532v-432H214v432Zm552 0h42q12 0 22-10t10-22v-368q0-12-10-22t-22-10h-42v432ZM194-696h-74 74Zm572 0h74-74Z"/></svg>