<svg xmlns="http://www.w3.org/2000/svg" height="24" viewBox="0 -960 960 960" width="24"><path d="M404.769-333.846q-14.769 0-25.154-10.385-10.384-10.384-10.384-25.154v-110.461q0-14.769 10.384-25.154 10.385-10.385 25.154-10.385H410v-40q0-29.923 20.423-50.346t50.346-20.423q29.923 0 50.346 20.423 20.424 20.423 20.424 50.346v40h5.23q14 0 24 10.385t10 25.154v110.461q0 14.77-10.384 25.154-10.385 10.385-25.154 10.385H404.769Zm36-181.539h80v-40q0-17-11.5-28.5t-28.5-11.5q-17 0-28.5 11.5t-11.5 28.5v40ZM144.615-240Q117-240 98.5-258.5 80-277 80-304.615v-350.77Q80-683 98.5-701.5 117-720 144.615-720h670.77Q843-720 861.5-701.5 880-683 880-655.385v350.77Q880-277 861.5-258.5 843-240 815.385-240h-670.77ZM180-280v-400h-35.385q-9.23 0-16.923 7.692Q120-664.615 120-655.385v350.77q0 9.23 7.692 16.923Q135.385-280 144.615-280H180Zm40 0h520v-400H220v400Zm560 0h35.385q9.23 0 16.923-7.692Q840-295.385 840-304.615v-350.77q0-9.23-7.692-16.923Q824.615-680 815.385-680H780v400ZM180-680H120h60Zm600 0H840h-60Z"/></svg>