<svg xmlns="http://www.w3.org/2000/svg" height="20" viewBox="0 -960 960 960" width="20"><path d="M192.615-232Q169-232 152.5-248.5 136-265 136-288.615v-382.77q0-24.315 16.5-40.465Q169-728 192.615-728h151.028q11.272 0 21.969 4.231 10.696 4.23 19.388 12.923L463.846-632h303.539q24.315 0 40.465 16.15Q824-599.7 824-575.385v286.77Q824-265 807.85-248.5 791.7-232 767.385-232h-574.77Zm0-32h574.77q10.769 0 17.692-6.923T792-288.615v-286.77q0-10.769-6.923-17.692T767.385-600H450.769l-89.077-89.077q-3.846-3.846-8.077-5.385-4.23-1.538-8.846-1.538H192.615q-10.769 0-17.692 6.923T168-671.385v382.77q0 10.769 6.923 17.692T192.615-264ZM168-264v-432 432Zm339.692-51.692h232.616v-5.616q0-19-35.154-34.692T623.5-371.692q-46.5 0-81.154 15.192-34.654 15.192-34.654 35.192v5.616Zm116.52-128.616q22.096 0 36.942-15.058Q676-474.425 676-496.52q0-22.095-15.058-36.942-15.059-14.846-37.154-14.846-22.096 0-36.942 15.059Q572-518.191 572-496.095q0 22.095 15.058 36.941 15.059 14.846 37.154 14.846Z"/></svg>