<svg xmlns="http://www.w3.org/2000/svg" height="20" viewBox="0 -960 960 960" width="20"><path d="M200-244q-22 0-37-15t-15-37v-368q0-22.7 15-37.35Q178-716 200-716h140.643q10.349 0 20.353 4Q371-708 379-700l80 80h301q22.7 0 37.35 14.65Q812-590.7 812-568v272q0 22-14.65 37T760-244H200Zm0-20h560q14 0 23-9t9-23v-272q0-14-9-23t-23-9H451l-87-87q-5-5-10.5-7t-11.5-2H200q-14 0-23 9t-9 23v368q0 14 9 23t23 9Zm-32 0v-432 432Zm348-60h216v-1q0-16-32.5-29.5t-76-13.5q-43.5 0-75.5 13t-32 30v1Zm108.212-124Q644-448 657-461.212q13-13.213 13-33Q670-514 656.788-527q-13.213-13-33-13Q604-540 591-526.788q-13 13.213-13 33Q578-474 591.212-461q13.213 13 33 13Z"/></svg>