<svg xmlns="http://www.w3.org/2000/svg" height="24" viewBox="0 -960 960 960" width="24"><path d="M587.692-215.384H241.538q-17.615 0-29.577-11.962Q200-239.307 200-256.923v-24.308q0-24.769 14.423-46.346 14.423-21.577 38.808-33.5 56.615-27.154 113.307-40.731Q423.231-415.385 480-415.385q26.923 0 53.846 3.231t53.846 9.692v40.231q-26.923-7.077-53.846-10.115-26.923-3.039-53.846-3.039-53.405 0-105.856 12.731Q321.692-349.923 272.308-326q-15.154 8.077-23.731 19.769-8.577 11.693-8.577 25v25.846h347.692v40.001ZM240-255.385h347.692H240Zm240-249.23q-49.5 0-84.75-35.25T360-624.615q0-49.501 35.25-84.751 35.25-35.25 84.75-35.25t84.75 35.25Q600-674.116 600-624.615q0 49.5-35.25 84.75T480-504.615Zm0-40q33 0 56.5-23.5t23.5-56.5q0-33-23.5-56.5t-56.5-23.5q-33 0-56.5 23.5t-23.5 56.5q0 33 23.5 56.5t56.5 23.5Zm0-80Zm260 396.923h-24.616q-13.73 0-23.019-9.217-9.288-9.217-9.288-22.843V-387.99q0-13.625 9.288-22.818Q701.654-420 715.384-420h92.539q13.638 0 20.857 11.692 7.22 11.693.759 23.616l-54.923 109.307h31.076q13.924 0 20.885 11.923 6.962 11.924.5 23.847l-71.923 135.077q-3.231 5.462-9.193 4.231Q740-101.538 740-108v-119.692Z"/></svg>