<svg xmlns="http://www.w3.org/2000/svg" height="24" viewBox="0 -960 960 960" width="24"><path d="M547-109H252q-53 0-89.5-36.5T126-235v-22q0-43.302 22.695-79.599Q171.391-372.896 209-392q65-32 132.959-48.5T480-457q16.75 0 33.5 1t33.5 3v127q-17-2-33.667-3.5Q496.667-331 480-331q-54 0-108 12.5T272-283q-9 4.559-14.5 12.765T252-252v17h295v126ZM252-235h295-295Zm228-262q-81 0-137.5-56.5T286-691q0-81 56.5-137T480-884q81 0 137.5 56T674-691q0 81-56.5 137.5T480-497Zm-.035-126Q508-623 528-642.965q20-19.964 20-48Q548-719 528.035-738.5q-19.964-19.5-48-19.5Q452-758 432-738.319 412-718.638 412-691q0 28.05 19.965 48.025 19.964 19.975 48 19.975Zm.035-68Zm227 504h-17q-26 0-44.5-18.5T627-250v-140q0-26 18.5-44.5T690-453h135q26.229 0 40.114 22.5Q879-408 867-385l-46 92q27.5 0 41.25 24t-.25 47L736-3q-6 11-17.5 8T707-10v-177Z"/></svg>