<svg xmlns="http://www.w3.org/2000/svg" height="20" viewBox="0 -960 960 960" width="20"><path d="M588-264H265.728Q256-264 250-270.15T244-286v-10q0-11 8.5-24.5T277-344q48-27 99.808-41.5Q428.617-400 479.841-400 508-400 534-396.25t54 10.964V-365q-28-8-53.5-11.5t-54.237-3.5q-51.889 0-100.576 13Q331-354 291-330q-13 8-20 17t-7 17v12h324v20Zm-324-20h324-324Zm216-228q-38.55 0-65.275-26.725Q388-565.45 388-604q0-38.55 26.725-65.275Q441.45-696 480-696q38.55 0 65.275 26.725Q572-642.55 572-604q0 38.55-26.725 65.275Q518.55-512 480-512Zm.212-20Q510-532 531-553.212q21-21.213 21-51Q552-634 530.788-655q-21.213-21-51-21Q450-676 429-654.788q-21 21.213-21 51Q408-574 429.212-553q21.213 21 51 21ZM480-604Zm242 328h-15.789q-10.961 0-18.586-7.382Q680-290.765 680-301.677v-126.71q0-10.913 7.475-18.263Q694.95-454 706-454h87q9.629 0 15.814 9Q815-436 811-426l-52 120h27q11.5 0 17.25 9.5T803-277l-69 110q-2.579 4-7.289 3-4.711-1-4.711-6v-106Z"/></svg>