<svg xmlns="http://www.w3.org/2000/svg" height="20" viewBox="0 -960 960 960" width="20"><path d="M744-613.231q-41.539 0-70.769-29.231Q644-671.692 644-713.231q0-41.538 29.231-70.769 29.23-29.231 70.769-29.231T814.769-784Q844-754.769 844-713.231q0 41.539-29.231 70.769-29.23 29.231-70.769 29.231ZM192.615-232q-24.315 0-40.465-16.162Q136-264.324 136-288.656v-383.012Q136-696 152.15-712t40.465-16h378.846q.308 7 .924 14.615.615 7.616 2.538 17.385 1.615 25.462 12.115 50.577t28.885 45.885L480-517 203.769-683.231q-9.769-4.846-18.538-.953-8.77 3.894-11.077 13.988-3.077 6.658.5 13.619 3.577 6.962 9.269 10.423l281.154 170.308q6.461 4.231 14.923 4.231t14.923-4.231l164.616-98.308q13.615 14.308 36.096 23.616 22.48 9.307 48.365 9.307 20.462 0 37.077-4.5 16.616-4.5 42.923-17.5v274.616Q824-265 807.85-248.5 791.7-232 767.385-232h-574.77Z"/></svg>