<svg xmlns="http://www.w3.org/2000/svg" height="20" viewBox="0 -960 960 960" width="20"><path d="M110-562q0 65 46 109.5T266-408h19l-19-19q-17-17-17-37t15.522-36q16.478-16 37.145-16 20.666 0 36.333 16l94 94q18 17.636 17.5 41.318T432-323l-93 92q-17 17-36 16.5T268-231q-17-17-17-38.045 0-21.046 17-36.955l9-7h-18q-104-3-177.5-74.5T8-562q0-113.3 81.35-192.15Q170.7-833 285-833h112q21.3 0 36.15 14.789 14.85 14.79 14.85 36Q448-761 433.15-746T397-731H285q-72.7 0-123.85 48.65Q110-633.7 110-562Zm469 374q-24.3 0-41.65-17.35Q520-222.7 520-247v-156q0-24.3 17.35-41.65Q554.7-462 579-462h261q24.3 0 41.65 17.35Q899-427.3 899-403v156q0 24.3-17.35 41.65Q864.3-188 840-188H579Zm0-370q-24.3 0-41.65-17.35Q520-592.7 520-617v-156q0-24.3 17.35-41.65Q554.7-832 579-832h261q24.3 0 41.65 17.35Q899-797.3 899-773v156q0 24.3-17.35 41.65Q864.3-558 840-558H579Zm59-118h143v-38H638v38Z"/></svg>