<svg xmlns="http://www.w3.org/2000/svg" height="20" viewBox="0 -960 960 960" width="20"><path d="M132-546q0 91 78 144t176 41h19l-75-75q-4-4-5-7.5t3.304-7.5q4.696-4 7.863-4 3.166 0 6.833 4l77 77q8 7.636 8 17.818Q428-346 420-338l-76 76q-4 4-6.5 4t-6.717-4.217Q326-267 326-270.545q0-3.546 5-7.455l67-65h-18q-104 9-186-48t-82-155q0-85.3 62.35-142.65Q236.7-746 323-746h97q4.25 0 7.125 2.825 2.875 2.824 2.875 7 0 4.175-2.875 7.175T420-726h-96q-78.7 0-135.35 51.65Q132-622.7 132-546Zm448.451 272q-11.751 0-19.101-7.475T554-300v-125.604q0-11.696 7.475-19.046T580-452h205.549q11.751 0 19.101 7.475T812-426v125.604q0 11.696-7.475 19.046T786-274H580.451Zm0-294q-11.751 0-19.101-7.475T554-594v-125.604q0-11.696 7.475-19.046T580-746h205.549q11.751 0 19.101 7.475T812-720v125.604q0 11.696-7.475 19.046T786-568H580.451ZM574-588h218v-138H574v138Z"/></svg>