<svg xmlns="http://www.w3.org/2000/svg" height="20" viewBox="0 -960 960 960" width="20"><path d="M744-584.307 515.615-355.923q-8.692 8.692-18.615 12.154-9.923 3.461-20.846 3.461t-20.846-3.461q-9.923-3.462-18.947-12.485L194.384-598.231q-5.615-5.615-5.5-11.654.116-6.038 6.022-11.654 6.094-5.615 11.914-5.615 5.821 0 11.103 5.615L458.462-380q6.923 6.923 17.692 6.923T493.846-380l226.846-226.846H543.87q-6.783 0-11.327-4.52-4.543-4.521-4.543-11.27t4.569-11.48q4.569-4.73 11.391-4.73h203.45q12.206 0 20.398 8.03Q776-622.785 776-610.579v203.45q0 6.821-4.52 11.552t-11.269 4.731q-6.749 0-11.48-4.6Q744-400.045 744-406.912v-177.395Z"/></svg>