<svg xmlns="http://www.w3.org/2000/svg" height="20" viewBox="0 -960 960 960" width="20"><path d="M737.217-524.303 551.914-339q-14.957 14.957-32.479 21.652-17.522 6.696-36.609 6.696-19.087 0-36.609-6.696-17.522-6.695-32.81-21.983L159.391-593.348q-15.522-15.522-15.022-35.109.5-19.587 15.544-34.544 15.435-14.956 35.188-14.956 19.754 0 34.378 14.956l253.347 254.913 184.738-185.303h-97.477q-20.332 0-34.601-14.246-14.269-14.246-14.269-34.544 0-20.298 14.295-34.754 14.295-14.457 34.665-14.457h215.758q20.37 0 34.827 14.295 14.456 14.295 14.456 34.665v215.758q0 20.37-14.246 34.826-14.246 14.457-34.544 14.457-20.298 0-34.754-14.325-14.457-14.326-14.457-34.741v-97.846Z"/></svg>