<svg xmlns="http://www.w3.org/2000/svg" height="24" viewBox="0 -960 960 960" width="24"><path d="M400-680h160v-55.385q0-10.769-6.923-17.692T535.385-760h-110.77q-10.769 0-17.692 6.923T400-735.385V-680ZM720-80q-66.846 0-113.423-46.577T560-240q0-66.846 46.577-113.423T720-400q66.846 0 113.423 46.577T880-240q0 66.846-46.577 113.423T720-80Zm-535.385-80Q157-160 138.5-178.5 120-197 120-224.615v-390.77Q120-643 138.5-661.5 157-680 184.615-680H360v-55.385Q360-763 378.5-781.5 397-800 424.615-800h110.77Q563-800 581.5-781.5 600-763 600-735.385V-680h175.385Q803-680 821.5-661.5 840-643 840-615.385v167.923Q812.693-464 782.077-472q-30.615-8-62.077-8-99.846 0-169.923 70.077T480-240q0 20.231 3.423 40.346 3.423 20.116 10.5 39.654H184.615ZM720-143.077q8 0 13.231-5.231 5.231-5.23 5.231-13.23t-5.231-13.231Q728-180 720-180t-13.231 5.231q-5.231 5.231-5.231 13.231t5.231 13.23Q712-143.077 720-143.077Zm0-73.846q6.462 0 10.923-4.462 4.462-4.461 4.462-10.923v-89.231q0-6.461-4.462-10.923-4.461-4.461-10.923-4.461t-10.923 4.461q-4.462 4.462-4.462 10.923v89.231q0 6.462 4.462 10.923 4.461 4.462 10.923 4.462Z"/></svg>