<svg xmlns="http://www.w3.org/2000/svg" height="24" viewBox="0 -960 960 960" width="24"><path d="M408.479-730.174h143.042v-80H408.479v80ZM720-40q-83 0-141.5-58.5T520-240q0-83 58.5-141.5T720-440q83 0 141.5 58.5T920-240q0 83-58.5 141.5T720-40Zm-553.217-60.782q-44.305 0-75.153-30.848-30.848-30.848-30.848-75.153v-417.39q0-44.305 30.848-75.153 30.848-30.848 75.153-30.848h135.694v-80q0-44.305 30.849-75.154 30.848-30.848 75.153-30.848h143.042q44.305 0 75.153 30.848 30.849 30.849 30.849 75.154v80h135.694q44.305 0 75.153 30.848 30.848 30.848 30.848 75.153v171q-38.391-32.348-83.348-49.588Q770.913-520 720-520q-116 0-198 82t-82 198q0 37.218 9.326 72.24 9.326 35.022 28.414 66.978H166.783ZM720-112.087q11.391 0 19.087-7.695 7.696-7.696 7.696-19.088 0-11.391-7.696-19.369-7.696-7.979-19.087-7.979t-19.087 7.979q-7.696 7.978-7.696 19.369 0 11.392 7.696 19.088 7.696 7.695 19.087 7.695Zm0-95.826q9.696 0 17.109-7.414 7.413-7.413 7.413-17.108v-110.956q0-9.696-7.131-17.109-7.13-7.413-17.391-7.413-9.696 0-17.109 7.413-7.413 7.413-7.413 17.109v110.956q0 9.695 7.131 17.108 7.13 7.414 17.391 7.414Z"/></svg>