<svg xmlns="http://www.w3.org/2000/svg" height="20" viewBox="0 -960 960 960" width="20"><path d="M671.478-288.522V-398q0-18.696 13.913-32.609T718-444.522q19.696 0 33.109 13.413T764.522-399v148.521q0 22.088-16.457 38.544-16.456 16.457-38.544 16.457H292.174l22.652 22.652q14.131 14.13 14.131 32.826 0 18.696-14.131 32.826-14.13 14.13-32.543 14.413-18.413.283-32.109-13.413l-97.348-96.782Q135.87-219.913 135.87-242q0-22.087 16.956-39.044l92.348-91.782q14.13-14.131 32.826-14.131 18.696 0 32.826 14.131 13.131 13.13 13.631 32.326.5 19.196-12.631 32.326l-19.652 19.652h379.304ZM288.522-671.478V-562q0 18.696-13.913 32.609T242-515.478q-19.696 0-33.109-13.413T195.478-561v-148.521q0-22.088 16.457-38.544 16.456-16.457 38.544-16.457h417.347l-22.652-22.652q-14.131-14.13-14.131-32.826 0-18.696 14.131-32.826 13.13-13.131 32.043-13.913 18.913-.783 32.609 12.913l97.348 96.782Q824.13-740.087 824.13-718q0 22.087-16.956 39.044l-93.348 92.782q-14.13 14.131-32.826 14.131-18.696 0-32.826-14.131-14.131-14.13-14.131-32.826 0-18.696 13.131-31.826l20.652-20.652H288.522Z"/></svg>