<svg xmlns="http://www.w3.org/2000/svg" height="24" viewBox="0 -960 960 960" width="24"><path d="M113.782-60.782q-22.087 0-37.544-15.456-15.456-15.457-15.456-37.544v-732.436q0-22.087 15.456-37.544 15.457-15.456 37.544-15.456 22.088 0 37.544 15.456 15.457 15.457 15.457 37.544v732.436q0 22.087-15.457 37.544-15.456 15.456-37.544 15.456ZM560-266.999q-22.087 0-37.544-15.457-15.457-15.457-15.457-37.544v-320q0-22.087 15.457-37.544 15.457-15.457 37.544-15.457h40q22.087 0 37.544 15.457 15.457 15.457 15.457 37.544v320q0 22.087-15.457 37.544-15.457 15.457-37.544 15.457h-40Zm-240 0q-22.087 0-37.544-15.457-15.457-15.457-15.457-37.544v-320q0-22.087 15.457-37.544 15.457-15.457 37.544-15.457h40q22.087 0 37.544 15.457 15.457 15.457 15.457 37.544v320q0 22.087-15.457 37.544-15.457 15.457-37.544 15.457h-40Z"/></svg>