<svg xmlns="http://www.w3.org/2000/svg" height="24" viewBox="0 -960 960 960" width="24"><path d="M480.306-346q58.306 0 126-19T791-435q5-18 7-36t2-38q0-11-8.5-18t-19.5-4q-14 5-31 10.5T698-504q-69 29-118 40.5T480-452q-52 0-102-12t-122-41q-26-11-40-16l-28-10q-11-4-19.5 3.5T160-509q0 20 2 38.5t7 36.5q98 45 175.5 66.5T480.306-346Zm-.745 134Q585-212 664.5-263.5T779-399q-96 42-166.47 61.5T480.004-318Q419-318 344-338t-163-60q34 85 113 135.5T479.561-212ZM480-560q-56 0-95-39t-39-95q0-56 39-95t95-39q56 0 95 39t39 95q0 56-39 95t-95 39Zm.195-28Q524-588 555-619.195q31-31.194 31-75Q586-738 554.805-769q-31.194-31-75-31Q436-800 405-768.805q-31 31.194-31 75Q374-650 405.195-619q31.194 31 75 31Zm-.287 404Q328-184 230-274t-98-235q0-26 20-41.5t44-7.5q15.147 4.821 31.713 11.089Q244.28-540.643 267-531q71 29 117.233 40 46.232 11 95.767 11 48 0 93.5-10.5T687-529q27-11 44.5-17.5T764-558q24-8 44 8t20 41q0 69-27.5 128T726-278q-47 44-110.5 69t-135.592 25Z"/></svg>