<svg xmlns="http://www.w3.org/2000/svg" height="24" viewBox="0 -960 960 960" width="24"><path d="M761.692-94.77 106.309-750.153q-8.307-8.307-8.5-20.884-.192-12.577 8.5-21.269 8.692-8.692 21.077-8.692 12.384 0 21.076 8.692l655.383 655.383q8.307 8.308 8.5 20.884.192 12.577-8.5 21.269-8.692 8.692-21.076 8.692-12.385 0-21.077-8.692ZM549.999-504.384l-59.998-59.998v-179.463q0-29.827 21.24-51.067t51.067-21.24h80q26.971 0 46.177 19.18 19.206 19.181 19.206 46.115t-19.206 46.203q-19.206 19.269-46.177 19.269h-92.309v181.001ZM410.001-143.848q-57.75 0-98.874-41.124-41.125-41.125-41.125-98.874 0-57.75 41.125-98.874 41.124-41.125 98.874-41.125 23 0 43.077 6.846 20.077 6.847 36.923 20.539v-54.307l59.998 59.998v106.923q0 57.749-41.124 98.874-41.125 41.124-98.874 41.124Z"/></svg>