<svg xmlns="http://www.w3.org/2000/svg" height="20" viewBox="0 -960 960 960" width="20"><path d="M480.45-148q-68.45 0-129.008-25.891-60.559-25.892-106.075-71.348-45.515-45.457-71.441-105.893Q148-411.569 148-480.284q0-68.716 25.891-128.774 25.892-60.059 71.348-105.574 45.457-45.516 105.893-71.442Q411.569-812 480.284-812q68.716 0 128.774 25.891 60.059 25.892 105.574 71.348 45.516 45.457 71.442 105.659Q812-548.899 812-480.45q0 68.45-25.891 129.008-25.892 60.559-71.348 106.075-45.457 45.515-105.659 71.441Q548.899-148 480.45-148ZM396-314h126q22.7 0 37.35-14.65Q574-343.3 574-366v-72q0-22.7-14.65-37.35Q544.7-490 522-490H406v-136h158q4.25 0 7.125-2.825 2.875-2.824 2.875-7 0-4.175-2.875-7.175T564-646H412q-11.05 0-18.525 7.35Q386-631.3 386-619.505v123.01q0 11.795 7.475 19.145T412-470h110q14 0 23 9t9 23v72q0 14-9 23t-23 9H396q-4.25 0-7.125 2.825-2.875 2.824-2.875 7 0 4.175 2.875 7.175t7.125 3Z"/></svg>