<svg xmlns="http://www.w3.org/2000/svg" height="24" viewBox="0 -960 960 960" width="24"><path d="M480.174-132Q408-132 344.442-159.391q-63.559-27.392-110.575-74.348-47.015-46.957-74.441-110.435Q132-407.652 132-479.826q0-72.174 27.391-135.732 27.392-63.559 74.348-110.574 46.957-47.016 110.435-74.442Q407.652-828 479.826-828q72.174 0 135.732 27.391 63.559 27.392 110.574 74.348 47.016 46.957 74.442 110.435Q828-552.348 828-480.174q0 72.174-27.391 135.732-27.392 63.559-74.348 110.575-46.957 47.015-110.435 74.441Q552.348-132 480.174-132ZM466-160v-640q-128 17-217 105.5T160-480q0 126 89 214.5T466-160Zm28 0q50-2 96.5-17.5T674-226H494v66Zm0-94h212q21-20 37-43t27-49H494v92Zm0-120h288q8-23 12-46t6-46H494v92Zm0-120h306q-2-23-6-46t-12-46H494v92Zm0-120h276q-11-26-27-49t-37-43H494v92Zm0-120h180q-37-33-83.5-48.5T494-800v66Z"/></svg>