<svg xmlns="http://www.w3.org/2000/svg" height="20" viewBox="0 -960 960 960" width="20"><path d="m395-285 339-339-49.435-51-289 288.565L275.435-505 226-455.565 395-285Zm-68.088 69.653-170-170q-14.957-14.957-21.935-32.761-6.978-17.805-6.978-36.892 0-19.087 6.978-36.609 6.978-17.522 21.935-32.479l50-50q14.957-14.957 32.761-21.652 17.805-6.696 36.327-6.696t36.327 6.196q17.804 6.195 32.761 21.152L395-525.176l220.477-219.477q15.522-14.957 33.044-21.935 17.522-6.979 36.609-6.979 19.088 0 36.61 6.979 17.522 6.978 32.478 22.5l51 51q14.957 14.957 21.653 32.761 6.696 17.805 6.696 36.327t-6.979 36.327q-6.978 17.804-21.935 32.761L465.088-215.347q-14.957 14.957-32.479 21.653-17.522 6.695-36.609 6.695-19.087 0-36.609-6.695-17.522-6.696-32.479-21.653Z"/></svg>