<svg xmlns="http://www.w3.org/2000/svg" height="20" viewBox="0 -960 960 960" width="20"><path d="M576.923-561.231q-6.923 0-11.615-4.692-4.693-4.692-4.693-11.615v-140.924q0-6.923 4.693-11.615 4.692-4.692 11.615-4.692l25.539 21.538 6.153-69.538q0-26.923 18.424-44.846 18.423-17.924 44.346-17.924 26.923 0 44.846 17.924 17.923 17.923 17.923 44.846L728-713.231l37.846-21.538q6.923 0 11.616 4.692 4.692 4.692 4.692 11.615v140.924q0 6.923-4.692 11.615-4.693 4.692-11.616 4.692H576.923Zm52.308-152h72l6.154-69.538q0-15-10.5-25.5t-25.5-10.5q-15 0-25.5 10.5t-10.5 25.5l-6.154 69.538Zm93 528.231q-97.154-9-189.885-55.654-92.731-46.653-170.269-124.192-76.77-77.539-122.923-169.885Q193-627.077 184-724.231q-2-21 12.5-36.885Q211-777 232-777h72.923q19.308 0 32.962 11.269 13.654 11.269 19.961 30.346L375.692-673q2.77 13.769-1.5 27.308-4.269 13.538-13.807 21.538l-87.77 81.846q24.616 45.693 52.924 84.539 28.307 38.846 61.076 72.154 33.847 33.846 74 62.807 40.154 28.962 88.154 53.577l90.539-89.077q8.769-9.538 18.461-11.884 9.692-2.347 23.462-.347l53.154 12.231q19.308 5 30.461 19.423Q776-324.462 776-304.385V-233q0 21-16.384 35.5-16.385 14.5-37.385 12.5Z"/></svg>