<svg xmlns="http://www.w3.org/2000/svg" height="20" viewBox="0 -960 960 960" width="20"><path d="M623-552q-19.2 0-33.1-13.9Q576-579.8 576-599v-117q0-13.2 6.4-24.1Q588.8-751 600-757h24v-52q0-36.713 26.491-62.856Q676.982-898 713.487-898q36.504 0 62.509 26.144Q802-845.713 802-809v52h24q11.2 6 17.6 16.9 6.4 10.9 6.4 24.1v117q0 19.2-13.9 33.1Q822.2-552 803-552H623Zm60-211h60v-57q0-12.75-8.564-21.375Q725.871-850 713.211-850q-12.661 0-21.436 8.625T683-820v57Zm82 652q-127.098-9-241.549-62Q409-226 317-317.5T173-523.282Q121-637.564 111-765q-2-35.143 21.429-60.071Q155.857-850 191-850h135q40 0 64.5 19t34.5 56l23 85q6 28-1 51t-27 40l-103 90q16 27 36 54t47.969 53.984Q426-376 450-357.5t48 30.5l106-100q19-18 41-23.5t50 .5l80 20q38 11 56.5 34t18.5 61v143q0 35.571-25.5 59.286Q799-109 765-111ZM261-616l69-61-15.16-55H232q3 31 10.457 59.441Q249.914-644.118 261-616Zm348 349q29.1 11.243 60.05 18.622Q700-241 732-234v-85l-55-14-68 66ZM261-616Zm348 349Z"/></svg>