<svg xmlns="http://www.w3.org/2000/svg" height="20" viewBox="0 -960 960 960" width="20"><path d="M217.292-182Q193-182 175.5-199.289q-17.5-17.29-17.5-41.5Q158-265 175.35-282.5T217-300h-23v-206q0-100 59-178.5T409-782v-45q0-29.583 20.708-50.292Q450.417-898 480-898q29.583 0 50.292 20.708Q551-856.583 551-827v45q98 19 156.5 97T766-506v206h-23q24.3 0 41.65 17.289 17.35 17.29 17.35 41.5Q802-217 784.656-199.5 767.311-182 743.019-182H217.292ZM480.788-51q-34.738 0-59.263-24.381Q397-99.763 397-134h167q0 35-24.444 59-24.443 24-58.768 24ZM543-372q13.75 0 23.375-9.676 9.625-9.677 9.625-23.5 0-13.824-9.625-23.324Q556.75-438 543-438h-77l103-105q3.5-3.37 5.25-7.413 1.75-4.044 1.75-9.087v-14.895Q576-584 569-591t-17-7H417q-13.75 0-23.375 9.677Q384-578.647 384-564.824q0 13.824 9.625 23.324Q403.25-532 417-532h61l-84 84q-4 4.37-7 10.413-3 6.044-3 12.087v20.958q0 13.559 9.625 23.05Q403.25-372 417-372h126Z"/></svg>