<svg xmlns="http://www.w3.org/2000/svg" height="24" viewBox="0 -960 960 960" width="24"><path d="M400-512q20.4 0 34.2-13.8Q448-539.6 448-560q0-20.4-13.8-34.2Q420.4-608 400-608q-20.4 0-34.2 13.8Q352-580.4 352-560q0 20.4 13.8 34.2Q379.6-512 400-512Zm0 160q20.4 0 34.2-13.8Q448-379.6 448-400q0-20.4-13.8-34.2Q420.4-448 400-448q-20.4 0-34.2 13.8Q352-420.4 352-400q0 20.4 13.8 34.2Q379.6-352 400-352ZM280-532q12 0 20-8t8-20q0-12-8-20t-20-8q-12 0-20 8t-8 20q0 12 8 20t20 8Zm120 280q12 0 20-8t8-20q0-12-8-20t-20-8q-12 0-20 8t-8 20q0 12 8 20t20 8ZM280-372q12 0 20-8t8-20q0-12-8-20t-20-8q-12 0-20 8t-8 20q0 12 8 20t20 8Zm120-280q12 0 20-8t8-20q0-12-8-20t-20-8q-12 0-20 8t-8 20q0 12 8 20t20 8Zm160 140q20.4 0 34.2-13.8Q608-539.6 608-560q0-20.4-13.8-34.2Q580.4-608 560-608q-20.4 0-34.2 13.8Q512-580.4 512-560q0 20.4 13.8 34.2Q539.6-512 560-512Zm0-140q12 0 20-8t8-20q0-12-8-20t-20-8q-12 0-20 8t-8 20q0 12 8 20t20 8Zm120 280q12 0 20-8t8-20q0-12-8-20t-20-8q-12 0-20 8t-8 20q0 12 8 20t20 8Zm0-160q12 0 20-8t8-20q0-12-8-20t-20-8q-12 0-20 8t-8 20q0 12 8 20t20 8ZM480-57q-87.349 0-164.175-33.5Q239-124 181.5-181.5 124-239 90.5-315.825 57-392.651 57-480q0-87.349 33.5-164.175Q124-721 181.5-778.5q57.5-57.5 134.325-91Q392.651-903 480-903q87.349 0 164.175 33.5Q721-836 778.5-778.5q57.5 57.5 91 134.325Q903-567.349 903-480q0 87.349-33.5 164.175Q836-239 778.5-181.5 721-124 644.175-90.5 567.349-57 480-57Zm80-195q12 0 20-8t8-20q0-12-8-20t-20-8q-12 0-20 8t-8 20q0 12 8 20t20 8Zm0-100q20.4 0 34.2-13.8Q608-379.6 608-400q0-20.4-13.8-34.2Q580.4-448 560-448q-20.4 0-34.2 13.8Q512-420.4 512-400q0 20.4 13.8 34.2Q539.6-352 560-352Z"/></svg>