<svg xmlns="http://www.w3.org/2000/svg" height="20" viewBox="0 -960 960 960" width="20"><path d="M480-594q-38.55 0-65.275-26.725Q388-647.45 388-686q0-38.55 26.725-65.275Q441.45-778 480-778q38.55 0 65.275 26.725Q572-724.55 572-686q0 38.55-26.725 65.275Q518.55-594 480-594Zm-35 372q-21 0-36.5-15.5T393-274q0-21 15.5-36.5t36.635-15.5H536l-51 104h-40Zm-201 20v-196.925Q244-414 253.5-426t23.5-20q43.094-26.161 94.02-41.081Q421.945-502 480-502q34 0 67 5t65 17l-66 134H445q-29.945 0-50.973 21.038-21.027 21.039-21.027 51Q373-244 394.027-223q21.028 21 50.973 21H244Zm378 0v-273q17 6 31.5 13.5T683-446q15 7 24 19.604 9 12.605 9 27.396v145q0 21.75-15.125 36.875T664-202h-42Z"/></svg>