<svg xmlns="http://www.w3.org/2000/svg" height="20" viewBox="0 -960 960 960" width="20"><path d="M335.575-116.001q-51.324 0-87.449-36.125T212.001-240v-351.386q0-42.384 24.539-74.845 24.538-32.462 66.846-42.076v-135.692h353.228v135.692q42.308 9.614 66.846 42.076 24.539 32.461 24.539 74.845V-240q0 51.749-36.125 87.874-36.125 36.125-87.449 36.125h-288.85ZM264-441.692h432v-149.694q0-29.7-21.166-50.85-21.167-21.15-50.889-21.15H335.723q-29.723 0-50.723 21.15t-21 50.85v149.694ZM336.055-168h288.222Q654-168 675-189.15T696-240v-149.694H264V-240q0 29.7 21.166 50.85Q306.333-168 336.055-168ZM480-441.692Zm0 51.998Zm0-25.999Zm31.384-299.691h93.232V-792H355.384v76.616h93.232v-31.385h62.768v31.385Z"/></svg>