<svg xmlns="http://www.w3.org/2000/svg" height="24" viewBox="0 -960 960 960" width="24"><path d="M180.001-437.692v-137.694q0-52.384 33.039-90.345 33.038-37.962 82.346-46.576v-147.692h369.228v147.692q49.308 8.614 82.346 46.576 33.039 37.961 33.039 90.345v137.694H180.001ZM320-100.001q-57.922 0-98.961-41.038-41.038-41.039-41.038-98.961v-137.694h599.998V-240q0 57.922-41.038 98.961-41.039 41.038-98.961 41.038H320Zm35.384-615.383h89.232v-35.385h70.768v35.385h89.232v-72.307q0-5.385-3.462-8.847-3.462-3.462-8.847-3.462H367.693q-5.385 0-8.847 3.462-3.462 3.462-3.462 8.847v72.307Z"/></svg>