<svg xmlns="http://www.w3.org/2000/svg" height="24" viewBox="0 -960 960 960" width="24"><path d="M480-218.261q-12.826 0-25.152-4.13-12.327-4.131-23.153-12.392-105.306-83.914-175.001-178.001-69.695-94.087-69.695-194.217 0-73.826 26.631-129.869 26.63-56.044 68.609-93.74 41.978-37.696 94.239-56.543Q428.739-906.001 480-906.001t103.522 18.848q52.261 18.847 94.239 56.543 41.979 37.696 68.609 93.74 26.631 56.043 26.631 129.869 0 100.13-69.695 194.217-69.695 94.087-175.001 178.001-10.826 8.261-23.153 12.392-12.326 4.13-25.152 4.13ZM480-520q38.652 0 65.827-27.174 27.174-27.174 27.174-65.827 0-38.652-27.174-65.826-27.175-27.174-65.827-27.174t-65.827 27.174q-27.174 27.174-27.174 65.826 0 38.653 27.174 65.827Q441.348-520 480-520ZM240-53.999q-22.087 0-37.544-15.456Q186.999-84.912 186.999-107q0-22.088 15.457-37.544Q217.913-160 240-160h480q22.087 0 37.544 15.457 15.457 15.456 15.457 37.544 0 22.087-15.457 37.544Q742.087-54 720-54H240Z"/></svg>