<svg xmlns="http://www.w3.org/2000/svg" height="24" viewBox="0 -960 960 960" width="24"><path d="M480-268q112-88 169-168.5T706-594q0-63.052-23-107.526T625.5-773.5q-34.5-27.5-73.742-40Q512.515-826 480-826q-32.515 0-71.758 12.5Q369-801 334.5-773.5 300-746 277-701.526 254-657.052 254-594q0 77 57 157.5T480-268Zm0 24q-7.568 0-14.757-2.5T452-254q-75-60-150.5-148T226-594q0-64.219 23-112.61Q272-755 308.332-788t81.747-49.5Q435.493-854 480-854q44.507 0 89.921 16.5 45.415 16.5 81.747 49.5T711-706.61q23 48.391 23 112.61 0 104-75.5 192T508-254q-6.054 5-13.243 7.5T480-244Zm0-302q23 0 38.5-15.5T534-600q0-23-15.5-38.5T480-654q-23 0-38.5 15.5T426-600q0 23 15.5 38.5T480-546ZM240-106q-5.95 0-9.975-4.035-4.025-4.035-4.025-10t4.025-9.965q4.025-4 9.975-4h480q5.95 0 9.975 4.035 4.025 4.035 4.025 10T729.975-110q-4.025 4-9.975 4H240Zm240-488Z"/></svg>