<svg xmlns="http://www.w3.org/2000/svg" height="20" viewBox="0 -960 960 960" width="20"><path d="M480-360q81-70 125-135.625 44-65.624 44-121.895 0-48.48-17-81.98-17-33.5-42.846-53.62-25.846-20.119-55.125-29.5Q504.75-792 480.734-792q-24.015 0-53.375 9.5Q398-773 371.5-753T328-699.389q-17 33.611-17 82.348 0 55.792 44.5 121.416Q400-430 480-360Zm.128 125q-14.094 0-27.611-5-13.517-5-26.157-14.826Q306-353 249.5-441.914 193-530.829 193-617.037q0-72.963 26.158-127.707 26.157-54.744 67.189-91.582 41.031-36.837 92.321-55.255Q429.957-910 479.979-910q50.021 0 101.32 18.419 51.298 18.418 92.337 55.255 41.039 36.838 67.202 91.582Q767-690 767-616.716 767-530 711-442q-56 88-177.27 187.087Q521-245 507.611-240t-27.483 5Zm.084-293Q520-528 547.5-555.712q27.5-27.713 27.5-67.5Q575-663 547.288-690.5q-27.713-27.5-67.5-27.5Q440-718 412.5-690.288q-27.5 27.713-27.5 67.5Q385-583 412.712-555.5q27.713 27.5 67.5 27.5ZM252-50q-24.3 0-41.65-17.29Q193-84.579 193-108.788 193-133 210.35-150.5T252-168h456q24.3 0 41.65 17.289 17.35 17.29 17.35 41.5Q767-85 749.65-67.5T708-50H252Zm228-567Z"/></svg>