<svg xmlns="http://www.w3.org/2000/svg" height="20" viewBox="0 -960 960 960" width="20"><path d="M480-252.538q-7.094 0-13.834-2.616-6.74-2.615-12.883-7.672-72.745-58.866-145.014-144.511Q236-492.983 236-594.037q0-62.747 22.142-109.082 22.142-46.334 57.069-77.85 34.927-31.516 78.586-47.273Q437.456-844 480-844q42.544 0 86.203 15.758 43.659 15.757 78.586 47.273 34.927 31.516 57.069 77.85Q724-656.784 724-593.716q0 101.562-71.769 186.293-71.769 84.731-145.424 144.51-6.233 5.144-12.973 7.759-6.74 2.616-13.834 2.616ZM480.212-542q22.096 0 36.942-15.584Q532-573.167 532-596q0-23.245-15.058-39.123Q501.883-651 479.788-651q-22.096 0-36.942 15.89Q428-619.219 428-595.956q0 23.264 15.058 38.61Q458.117-542 480.212-542ZM252-116q-6.8 0-11.4-4.547-4.6-4.547-4.6-11.269 0-6.723 4.6-11.453Q245.2-148 252-148h456q6.8 0 11.4 4.547 4.6 4.547 4.6 11.269 0 6.723-4.6 11.453Q714.8-116 708-116H252Z"/></svg>