<svg xmlns="http://www.w3.org/2000/svg" height="24" viewBox="0 -960 960 960" width="24"><path d="M276.609-140.782H60.782v-678.436h758.436v106.001H166.783v466.434h109.826v106.001Zm159.966-117.522q23.338 0 39.425-16.22 16.087-16.22 16.087-39.391 0-23.172-16.22-39.258-16.22-16.087-39.391-16.087-23.172 0-39.541 16.22-16.37 16.219-16.37 39.391 0 23.171 16.336 39.258 16.337 16.087 39.674 16.087Zm462.643 117.522H596.609v-463.74h302.609v463.74ZM685.087-229.26H810.74v-286.783H685.087v286.783Zm-328.478 88.478v-78.348Q335.913-236.695 324-261.108t-11.913-52.674q0-28.261 11.913-52.674 11.913-24.414 32.609-41.979v-78.348h160v78.348q20.695 17.565 32.326 41.979 11.63 24.413 11.63 52.674t-11.63 52.674q-11.631 24.413-32.326 41.978v78.348h-160Zm328.478-88.478H810.74 685.087Z"/></svg>