<svg xmlns="http://www.w3.org/2000/svg" height="20" viewBox="0 -960 960 960" width="20"><path d="M284.609-172.782H76.782v-614.436h734.436v98.001H174.783v418.434h109.826v98.001Zm143.966-137.522q18.338 0 30.925-12.72t12.587-30.891q0-18.172-12.72-30.758-12.72-12.587-30.891-12.587-18.172 0-31.041 12.72-12.87 12.719-12.87 30.891 0 18.171 12.836 30.758 12.837 12.587 31.174 12.587Zm454.643 137.522H596.609v-431.74h286.609v431.74Zm-526.609 0v-79.348q-23.696-17.565-38.109-44.214-14.413-26.65-14.413-57.438 0-30.789 14.413-57.438 14.413-26.65 38.109-44.408v-79.155h144v79.348q23.695 17.565 37.826 44.215 14.13 26.649 14.13 57.438 0 30.788-14.13 57.438-14.131 26.649-37.826 44.407v79.155h-144Z"/></svg>