<svg xmlns="http://www.w3.org/2000/svg" height="24" viewBox="0 -960 960 960" width="24"><path d="M477 0Q307 0 178-105T11-371q-5-23 8.5-41.5t36.5-21Q79-436 97-423t23 35q26 103 104 176.5T408-118l-8-8q-14-14-14-33t14-33q14-14 33.5-14.5T467-193L612.295-47.705Q620-40 617.5-29.5 615-19 604-16q-31 8-63 12t-64 4ZM375-280q-39.188 0-67.094-27.906Q280-335.812 280-375v-210h-33q-19.975 0-33.488-13.8Q200-612.6 200-633q0-19.975 13.8-33.487Q227.6-680 248-680h32v-33q0-19.975 13.8-33.487Q307.6-760 328-760q19.975 0 33.487 13.513Q375-732.975 375-713v338h338q19.975 0 33.487 13.518Q760-347.965 760-327.982 760-308 746.487-294 732.975-280 713-280h-33v33q0 19.975-13.518 33.488Q652.965-200 632.982-200 613-200 599-213.8T585-248v-32H375Zm210-160v-145H440v-95h145q39.188 0 67.094 27.906Q680-624.188 680-585v145h-95ZM483-960q170 0 299 105t167 266q5 23-8.5 42t-36.733 21q-23.234 2-41-11Q845-550 840-572q-26-103-104-176.5T552-842l8 8q14 14 14 33t-14 33q-14 14-33.5 14.5T493-767L347.705-912.295Q340-920 342.5-930.5 345-941 356-944q31-8 63-12t64-4Z"/></svg>