<svg xmlns="http://www.w3.org/2000/svg" height="20" viewBox="0 -960 960 960" width="20"><path d="M475 0Q304 0 176-105T10-370q-5-20.356 8-36.678Q31-423 51.5-425.5t38.052 8.842Q107.103-405.316 112-386q28 106 109.5 182.5T413-109l-16-17q-14-14-14-30t14-30q14-14 31-15t31 13L599.547-47.453Q607-40 604.321-28.6 601.643-17.2 590-14q-33 7-62.5 10.5T475 0ZM375-288q-35.888 0-61.444-25.556Q288-339.112 288-375v-210h-53q-18.275 0-30.638-12.589Q192-610.179 192-628.789q0-18.186 12.65-30.698Q217.3-672 236-672h52v-53q0-18.275 12.589-30.637Q313.179-768 331.789-768q18.186 0 30.698 12.363Q375-743.275 375-725v350h350q18.275 0 30.637 12.307Q768-350.386 768-332.193 768-314 755.637-301 743.275-288 725-288h-53v53q0 18.275-12.307 30.638Q647.386-192 629.193-192 611-192 598-204.65T585-236v-52H375Zm210-144v-153H432v-87h153q35.888 0 61.444 25.556Q672-620.888 672-585v153h-87ZM485-960q171 0 299 106t166 265q5 19.978-8 36.489Q929-536 908.267-534q-20.734 2-38.052-9.342Q852.897-554.684 848-574q-28-106-109.5-182.5T547-851l16 17q14 14 14 30t-14 30q-14 14-31 15t-31-13L360.453-912.547Q353-920 355.679-931.4 358.357-942.8 370-946q33-7 62.5-10.5T485-960Z"/></svg>