<svg xmlns="http://www.w3.org/2000/svg" height="24" viewBox="0 -960 960 960" width="24"><path d="M481.538-40q-164.461 0-288.115-105.115-123.654-105.116-149.5-265.423-2.23-10.077 2.27-18.308T60-438.308q9.308-1.23 15.385 5.423 6.076 6.654 7.538 15.962 22.923 144.077 132.577 239t257.731 97.462L410-143.692q-5.615-5.616-6-13.769-.385-8.154 6-14.539t14.154-6.385q7.769 0 14.154 6.385L551.077-59.23q3.923 3.922 2.193 8.692-1.731 4.769-6.885 6-16.231 3.154-32.193 3.846-15.961.692-32.654.692Zm-96.923-280q-26.846 0-45.731-18.884Q320-357.769 320-384.615V-600h-60q-8.539 0-14.269-5.731Q240-611.462 240-620q0-8.539 5.731-14.269Q251.461-640 260-640h60v-60q0-8.539 5.731-14.269Q331.461-720 340-720q8.538 0 14.269 5.731Q360-708.539 360-700v315.385q0 9.23 7.692 16.923Q375.385-360 384.615-360H740q8.538 0 14.269 5.731T760-340q0 8.539-5.731 14.269Q748.538-320 740-320H640v60q0 8.539-5.731 14.269Q628.539-240 620-240q-8.538 0-14.269-5.731Q600-251.461 600-260v-60H384.615ZM600-400v-175.385q0-9.23-7.692-16.923Q584.615-600 575.385-600H400v-40h175.385q26.846 0 45.731 18.884Q640-602.231 640-575.385V-400h-40ZM478.462-920q164.461 0 288.115 105.384 123.654 105.385 149.5 265.924 2.231 10.077-2.269 17.923-4.5 7.846-13.808 9.077-9.308 1.23-15.385-5.423-6.077-6.654-7.538-15.962-22.923-144.077-132.577-239t-257.731-97.461L550-816.308q5.615 5.616 6 13.769.385 8.154-6 14.539t-14.154 6.385q-7.769 0-14.154-6.385L408.923-900.769q-3.923-3.923-2.193-8.693 1.731-4.769 6.885-6 16.231-3.154 32.193-3.846 15.961-.692 32.654-.692Z"/></svg>