<svg xmlns="http://www.w3.org/2000/svg" height="24" viewBox="0 -960 960 960" width="24"><path d="M480-326q-64 0-109-45t-45-109q0-64 45-109t109-45q64 0 109 45t45 109q0 64-45 109t-109 45Zm0 129 70-69q18-18 44-17.5t44 18.5q18 18 18 44t-18 44L524-63q-18 18-44 18t-44-18L322-177q-18-18-18.5-43.5T322-265q18-18 44-18.5t44 17.5l70 69ZM197-480l69 70q18 18 17.5 44T265-322q-18 18-44 18t-44-18L63-436q-18-18-18-44t18-44l114-114q18-18 43.5-18.5T265-638q18 18 18.5 44T266-550l-69 70Zm283-283-70 69q-18 18-44 17.5T322-695q-18-18-18-44t18-44l114-114q18-18 44-18t44 18l114 114q18 18 18.5 43.5T638-695q-18 18-44 18.5T550-694l-70-69Zm283 283-69-70q-18-18-17.5-44t18.5-44q18-18 44-18t44 18l114 114q18 18 18 44t-18 44L783-322q-18 18-43.5 18.5T695-322q-18-18-18.5-44t17.5-44l69-70Z"/></svg>