<svg xmlns="http://www.w3.org/2000/svg" height="24" viewBox="0 -960 960 960" width="24"><path d="M480-400q-33.846 0-56.923-23.077Q400-446.154 400-480q0-33.846 23.077-56.923Q446.154-560 480-560q33.846 0 56.923 23.077Q560-513.846 560-480q0 33.846-23.077 56.923Q513.846-400 480-400Zm0 207.538 99.846-99.615q5.846-5.615 13.769-6 7.924-.384 14.539 6.231 6.385 6.385 6.385 14.154t-6.385 14.154L502.615-158q-9.692 9.693-22.615 9.693-12.923 0-22.615-9.693L351.846-263.538q-5.615-5.616-6.115-13.654-.5-8.039 6.115-14.654 6.385-6.385 14.039-6.385t14.269 6.385L480-192.462ZM192.462-480l99.615 99.846q5.615 5.846 6 13.769.384 7.924-6.231 14.539-6.385 6.385-14.154 6.385t-14.154-6.385L158-457.385q-9.693-9.692-9.693-22.615 0-12.923 9.693-22.615l105.538-105.539q5.616-5.615 13.654-6.115 8.039-.5 14.654 6.115 6.385 6.385 6.385 14.039t-6.385 14.269L192.462-480ZM480-767.538l-99.846 99.615q-5.846 5.615-13.769 6-7.924.384-14.539-6.231-6.385-6.385-6.385-14.154t6.385-14.154L457.385-802q9.692-9.693 22.615-9.693 12.923 0 22.615 9.693l105.539 105.538q5.615 5.616 6.115 13.654.5 8.039-6.115 14.654-6.385 6.385-14.039 6.385t-14.269-6.385L480-767.538ZM767.538-480l-99.615-99.846q-5.615-5.846-6-13.769-.384-7.924 6.231-14.539 6.385-6.385 14.154-6.385t14.154 6.385L802-502.615q9.693 9.692 9.693 22.615 0 12.923-9.693 22.615L696.462-351.846q-5.616 5.615-13.654 6.115-8.039.5-14.654-6.115-6.385-6.385-6.385-14.039t6.385-14.269L767.538-480Z"/></svg>