<svg xmlns="http://www.w3.org/2000/svg" height="24" viewBox="0 -960 960 960" width="24"><path d="M353.958-100.782q-105.263 0-179.22-73.956-73.956-73.957-73.956-179.22v-252.63q0-105.263 73.956-178.947 73.957-73.683 179.22-73.683h252.63q105.263 0 178.947 73.683 73.683 73.684 73.683 178.947v252.63q0 105.263-73.683 179.22-73.684 73.956-178.947 73.956h-252.63ZM206.783-382.045h546.434v-224.738q0-60.913-43.181-103.673-43.181-42.761-103.818-42.761H353.217q-60.913 0-103.673 42.761-42.761 42.76-42.761 103.673v224.738Zm18.043 97.523q17.609 33.739 51.065 55.739 33.457 22 77.326 22h253.001q43.869 0 77.608-22 33.739-22 51.348-55.739H224.826ZM480-382.045Z"/></svg>