<svg xmlns="http://www.w3.org/2000/svg" height="20" viewBox="0 -960 960 960" width="20"><path d="m82-416 233-374q69.675 29.994 127.837 87.497Q501-645 537-574q35-37 77.5-58T736-676q40-11 71-22t57-25v431L591-120q-17 11-45 18.5T495.091-94q-28.636 0-62.364-11.5Q399-117 374-142L82-416Zm473.789 167Q576-249 590.5-263.35T605-298q0-9-9-28l112-73q8 9 18.123 15 10.124 6 22.033 6 20.247 0 34.545-14.522Q797-407.043 797-426.637q0-16.137-8-28.25T767-472.8q0-3.2-.5-4.2t-.5-3q0-20.3-14.289-34.65-14.29-14.35-34.5-14.35Q697-529 682.5-514.65T668-480q0 4 5 23l-115 75q-8-9-16.6-13.5-8.6-4.5-20.543-4.5-20.157 0-34.507 14.183Q472-371.633 472-350.667q0 16.334 9.812 29.02Q491.625-308.96 507-304q.5 2 .25 3.667-.25 1.666-.25 2.333 0 20.3 14.289 34.65 14.29 14.35 34.5 14.35Z"/></svg>