<svg xmlns="http://www.w3.org/2000/svg" height="20" viewBox="0 -960 960 960" width="20"><path d="M295.717-148Q273-148 258.5-162.65T244-200v-560q0-22.7 14.662-37.35Q273.324-812 296.04-812h368.243Q687-812 701.5-797.35T716-760v560q0 22.7-14.662 37.35Q686.676-148 663.96-148H295.717Zm.283-20h368q12 0 22-10t10-22v-560q0-12-10-22t-22-10h-40v246q0 7.957-6.5 11.978Q611-530 604-534l-40-17q-6.065-4-11.532-4Q547-555 541-551l-40 17q-7 4-12-.022-5-4.021-5-11.978v-246H296q-12 0-22 10t-10 22v560q0 12 10 22t22 10Zm-32 0v-624 624Zm220-377v-1q0 7.957 5 11.978 5 4.022 12 .022l40-17q6.065-4 11.532-4Q558-555 564-551l40 17q7 4 13.5-.022Q624-538.043 624-546v1q0 6.957-6.5 10.978Q611-530 604-533l-40-18q-6.065-4-11.532-4Q547-555 541-551l-40 18q-7 3-12-1.022-5-4.021-5-10.978Z"/></svg>