<svg xmlns="http://www.w3.org/2000/svg" height="20" viewBox="0 -960 960 960" width="20"><path d="m421-442 46 46q11 11 25.5 11t25.5-11l106-105v34q0 14 10.35 24.5T660-432q14 0 25-10.35T696-468v-120q0-14-11-25t-25-11H539q-14 0-24.5 11T504-587.5q0 14.5 10.35 25T540-552h33l-80 80-47-46q-11-11-25.5-11T395-518L289-412q-11 11-11 25.5t11 25.5q11 11 25.5 11t25.5-11l81-81ZM222.783-124.782q-41.005 0-69.503-28.498-28.498-28.498-28.498-69.503v-514.434q0-41.005 28.498-69.503 28.498-28.498 69.503-28.498h514.434q41.005 0 69.503 28.498 28.498 28.498 28.498 69.503v514.434q0 41.005-28.498 69.503-28.498 28.498-69.503 28.498H222.783Zm0-98.001h514.434v-514.434H222.783v514.434Zm0-514.434v514.434-514.434Z"/></svg>