<svg xmlns="http://www.w3.org/2000/svg" height="20" viewBox="0 -960 960 960" width="20"><path d="m421-470.461 51.385 51.384q8.692 9.462 19.73 9.462 11.039 0 20.5-9.462L644-548.692V-467q0 4.769 4.731 9.885Q653.461-452 660-452q4.769 0 10.385-4.731Q676-461.461 676-468v-107.692q0-10.154-9.077-19.231Q657.846-604 647.692-604H539q-4.769 0-9.885 5.615Q524-592.769 524-588q0 6.539 4.731 11.269Q533.461-572 540-572h80.692L493-443.539l-52.385-51.384q-9.461-8.693-20.5-8.693-11.038 0-19.73 8.693l-97.539 96.769Q298-391.769 298-386.115t4.846 11.269q6.385 5.615 12.039 5.615t11.269-5.615L421-470.461ZM240.615-184Q216-184 200-200q-16-16-16-40.615v-478.77Q184-744 200-760q16-16 40.615-16h478.77Q744-776 760-760q16 16 16 40.615v478.77Q776-216 760-200q-16 16-40.615 16h-478.77Z"/></svg>