<svg xmlns="http://www.w3.org/2000/svg" height="24" viewBox="0 -960 960 960" width="24"><path d="M362.639-200h-98.024q-26.654 0-45.634-18.981Q200-237.961 200-264.615v-98.024l-71.616-72.13Q110-453.396 110-480.121q0-26.725 18.384-45.11L200-597.361v-98.024q0-26.654 18.981-45.634Q237.961-760 264.615-760h98.024l72.13-71.616Q453.396-850 480.121-850q26.725 0 45.11 18.384L597.361-760h98.024q26.654 0 45.634 18.981Q760-722.039 760-695.385v98.024l71.616 72.13Q850-506.604 850-479.879q0 26.725-18.384 45.11L760-362.639v98.024q0 26.654-18.981 45.634Q722.039-200 695.385-200h-98.024l-72.13 71.616Q506.604-110 479.879-110q-26.725 0-45.11-18.384L362.639-200ZM480-310.769q70.231 0 119.731-49.5T649.231-480q0-70.231-49.5-119.731T480-649.231q-70.231 0-119.731 49.5T310.769-480q0 70.231 49.5 119.731T480-310.769ZM480-480Zm0 129.231q53.077 0 91.154-38.077T609.231-480q0-53.077-38.077-91.154T480-609.231q-53.077 0-91.154 38.077T350.769-480q0 53.077 38.077 91.154T480-350.769ZM480-140l100-100h140v-140l100-100-100-100v-140H580L480-820 380-720H240v140L140-480l100 100v140h140l100 100Zm0-210.769q53.077 0 91.154-38.077T609.231-480q0-53.077-38.077-91.154T480-609.231q-53.077 0-91.154 38.077T350.769-480q0 53.077 38.077 91.154T480-350.769Z"/></svg>