<svg xmlns="http://www.w3.org/2000/svg" height="20" viewBox="0 -960 960 960" width="20"><path d="M362.606-200h-93.991q-28.304 0-48.459-20.156Q200-240.311 200-268.615v-93.991l-68.616-69.163Q111-452.396 111-480.121q0-27.725 20.384-48.11L200-597.818v-94.567q0-28.304 20.156-48.459Q240.311-761 268.615-761h93.991l69.163-68.616Q452.396-850 480.121-850q27.725 0 48.11 20.384L597.818-761h94.567q28.304 0 48.459 20.156Q761-720.689 761-692.385v94.567l68.616 69.587Q850-507.604 850-479.879q0 27.725-20.384 48.11L761-362.606v93.991q0 28.304-20.156 48.459Q720.689-200 692.385-200h-94.567l-69.587 68.616Q507.604-111 479.879-111q-27.725 0-48.11-20.384L362.606-200ZM480-309.769q71.231 0 120.731-49.5T650.231-480q0-71.231-49.5-120.731T480-650.231q-71.231 0-120.731 49.5T309.769-480q0 71.231 49.5 120.731T480-309.769Z"/></svg>