<svg xmlns="http://www.w3.org/2000/svg" height="20" viewBox="0 -960 960 960" width="20"><path d="M340.543-149H278q-53.625 0-91.812-38.188Q148-225.375 148-279v-62.543L102-390q-38-39-38-91t38-91l46-47v-64q0-53.625 38.188-91.812Q224.375-813 278-813h62.543L389-860q39-38 91-38t91 38l47 47h64q53.625 0 91.812 38.188Q812-736.625 812-683v65l47 48q38 39 38 91t-38 91l-47 47v62q0 53.625-38.188 91.812Q735.625-149 682-149h-64l-47 45q-39 37-91.5 37.5T389-103l-48.457-46ZM480-302q75 0 126.5-51.5T658-480q0-75-51.5-126.5T480-658q-75 0-126.5 51.5T302-480q0 75 51.5 126.5T480-302Zm0-179Zm1 72q29 0 49.5-21.5T551-481q0-29-20.708-49.5Q509.583-551 480-551q-28 0-49.5 20.708Q409-509.583 409-480q0 28 21.5 49.5T481-409Zm-1 215 84.216-84.338h117.902v-118.074L767-480l-84.632-84.632v-118.486H563.882L480-768l-84.338 84.632H277.588v118.486L194-481l84.333 84.75V-279H395l85 85Zm1-215q29 0 49.5-21.5T551-481q0-29-20.708-49.5Q509.583-551 480-551q-28 0-49.5 20.708Q409-509.583 409-480q0 28 21.5 49.5T481-409Z"/></svg>