<svg xmlns="http://www.w3.org/2000/svg" height="20" viewBox="0 -960 960 960" width="20"><path d="M344.533-157.37h-92.402q-39.194 0-67.097-27.903-27.904-27.903-27.904-67.097v-92.402l-67.543-68.576Q61.478-441.696 61.478-480t28.109-66.652l67.543-69v-93.217q0-39.194 27.904-67.097 27.903-27.904 67.097-27.904h92.402l68.336-67.543q28.348-28.109 66.772-28.109 38.424 0 66.772 28.109l68.761 67.543h93.456q39.194 0 67.097 27.904 27.903 27.903 27.903 67.097v93.217l67.305 69q28.108 28.348 28.108 66.652t-28.108 66.652l-67.305 68.576v92.402q0 39.194-27.903 67.097-27.903 27.903-67.097 27.903h-93.456l-68.761 67.305q-28.348 28.108-66.772 28.108-38.424 0-66.772-28.108l-68.336-67.305ZM479.522-284.5q81.848 0 138.674-56.826Q675.022-398.152 675.022-480q0-81.848-56.826-138.674Q561.37-675.5 479.522-675.5q-81.848 0-138.674 56.826Q284.022-561.848 284.022-480q0 81.848 56.826 138.674Q397.674-284.5 479.522-284.5Z"/></svg>