<svg xmlns="http://www.w3.org/2000/svg" height="24" viewBox="0 -960 960 960" width="24"><path d="M343.609-153.782h-83.391q-43.739 0-74.87-31.131-31.131-31.131-31.131-74.871v-83.39l-61.738-62.738Q62.13-436.826 62.13-480q0-43.174 30.349-74.088l61.738-62.738v-83.956q0-43.739 31.131-74.87 31.131-31.131 74.87-31.131h83.391l62.173-61.738q30.913-30.349 74.37-30.349 43.457 0 74.371 30.349l62.173 61.738h84.52q43.74 0 74.871 31.131 31.131 31.131 31.131 74.87v83.956l61.173 62.738q30.348 30.914 30.348 74.088 0 43.174-30.348 74.088l-61.173 62.738v83.39q0 43.74-31.131 74.871-31.131 31.131-74.871 31.131h-84.52l-62.173 61.173q-30.914 30.348-74.371 30.348-43.457 0-74.37-30.348l-62.173-61.173ZM479.87-293.001q77.912 0 132.456-54.543Q666.869-402.087 666.869-480q0-77.913-54.543-132.456-54.544-54.543-132.456-54.543-77.913 0-132.457 54.543Q292.87-557.913 292.87-480q0 77.913 54.543 132.456 54.544 54.543 132.457 54.543Z"/></svg>