<svg xmlns="http://www.w3.org/2000/svg" height="20" viewBox="0 -960 960 960" width="20"><path d="M25.955-106.694v-181q0-35.088 24.957-60.044 24.957-24.957 60.044-24.957h136.392q19.695 0 32.717 6.804 13.022 6.804 22.891 19.109 30.131 44.826 76.392 69.456Q425.609-252.695 480-252.695q53.826 0 100.37-24.631 46.543-24.63 77.239-69.456 8.739-12.305 22.043-19.109 13.305-6.804 33-6.804h136.957q35.087 0 60.044 24.957 24.957 24.956 24.957 60.044v181H620.609v-95.087q-31 19.609-67.653 27.695-36.652 8.087-72.956 8.087t-72.174-7.804q-35.869-7.804-67.869-27.413v94.522H25.955ZM480-300q-39.174 0-72.63-18.37-33.457-18.369-55.761-50.108Q334.218-392 311.544-404t-51.327-14q52.653-30.87 107.718-47.283Q423-481.696 480-481.696t112.348 16.413q55.348 16.413 108 47.283-29.218 2-51.609 13.717-22.391 11.718-39.783 35.805-22.304 31.174-56.043 49.826Q519.174-300 480-300ZM168-443.305q-52.261 0-88.957-36.696-36.696-36.695-36.696-88.956 0-51.696 36.696-88.674Q115.74-694.61 168-694.61q51.696 0 88.674 36.979 36.978 36.978 36.978 88.674 0 52.261-36.978 88.956-36.978 36.696-88.674 36.696Zm624 0q-52.261 0-88.957-36.696-36.695-36.695-36.695-88.956 0-51.696 36.695-88.674Q739.739-694.61 792-694.61q51.696 0 88.674 36.979 36.978 36.978 36.978 88.674 0 52.261-36.978 88.956-36.978 36.696-88.674 36.696ZM480-552.306q-52.261 0-88.957-36.695-36.695-36.696-36.695-88.957 0-51.696 36.695-88.674 36.696-36.979 88.957-36.979 51.696 0 88.674 36.979 36.978 36.978 36.978 88.674 0 52.261-36.978 88.957-36.978 36.695-88.674 36.695Z"/></svg>