<svg xmlns="http://www.w3.org/2000/svg" height="24" viewBox="0 -960 960 960" width="24"><path d="M440-320v-240H320v-80h320v80H520v240h-80ZM32.587-32.587v-251h80v-392.826h-80v-251h251v80h392.826v-80h251v251h-80v392.826h80v251h-251v-80H283.587v80h-251Zm251-171h392.826v-80h80v-392.826h-80v-80H283.587v80h-80v392.826h80v80ZM116.413-760H200v-83.587h-83.587V-760ZM760-760h83.587v-83.587H760V-760Zm0 643.587h83.587V-200H760v83.587Zm-643.587 0H200V-200h-83.587v83.587ZM200-760Zm560 0Zm0 560Zm-560 0Z"/></svg>