<svg xmlns="http://www.w3.org/2000/svg" height="20" viewBox="0 -960 960 960" width="20"><path d="M444-336v-216H336v-72h288v72H516v216h-72ZM30.477-30.477V-296.48h84v-367.042h-84v-266.002H296.48v84h367.042v-84h266.002v266.002h-84v367.042h84v266.002H663.521v-84H296.479v84H30.477ZM296.48-212.48h367.042v-84h84v-367.042h-84v-84H296.479v84h-84v367.042h84v84ZM111.521-744H216v-104.479H111.521V-744ZM744-744h104.479v-104.479H744V-744Zm0 632.479h104.479V-216H744v104.479Zm-632.479 0H216V-216H111.521v104.479ZM216-744Zm528 0Zm0 528Zm-528 0Z"/></svg>