<svg xmlns="http://www.w3.org/2000/svg" height="20" viewBox="0 -960 960 960" width="20"><path d="M40.587-240q0-91.533 34.39-171.276 34.388-79.744 94.196-139.551 59.807-59.808 139.551-94.197Q388.467-679.413 480-679.413q91.533 0 171.276 34.389 79.744 34.389 139.551 94.197 59.808 59.807 94.197 139.551Q919.413-331.533 919.413-240H840q0-150-105-255T480-600q-150 0-255 105T120-240H40.587Zm147.826 0q0-121.435 85.04-206.511t206.511-85.076q121.471 0 206.547 85.05Q771.587-361.486 771.587-240h-79.174q0-88.205-62.223-150.309-62.224-62.104-150.19-62.104-87.966 0-150.19 62.131Q267.587-328.151 267.587-240h-79.174Z"/></svg>