<svg xmlns="http://www.w3.org/2000/svg" height="24" viewBox="0 -960 960 960" width="24"><path d="M60.002-280q0-86.769 32.96-163.307 32.962-76.538 90.077-133.654 57.116-57.115 133.654-90.076Q393.231-699.999 480-699.999q86.769 0 163.307 32.962 76.538 32.961 133.654 90.076 57.115 57.116 90.076 133.654Q899.999-366.769 899.999-280H840q0-149-105.5-254.5T480-640q-149 0-254.5 105.5T120-280H60.002ZM220-280q0-107.922 76.038-183.961Q372.078-539.999 480-539.999q107.922 0 183.961 76.038Q739.999-387.922 739.999-280H680q0-83-58.5-141.5T480-480q-83 0-141.5 58.5T280-280h-59.999Z"/></svg>