<svg xmlns="http://www.w3.org/2000/svg" height="24" viewBox="0 -960 960 960" width="24"><path d="M80-280q0-82.539 31.423-155.615 31.423-73.077 85.654-127.308 54.231-54.231 127.308-85.654Q397.461-680 480-680q82.539 0 155.615 31.423 73.077 31.423 127.308 85.654 54.231 54.231 85.654 127.308Q880-362.539 880-280h-40q0-149-105.5-254.5T480-640q-149 0-254.5 105.5T120-280H80Zm160 0q0-99.846 70.077-169.923T480-520q99.846 0 169.923 70.077T720-280h-40q0-83-58.5-141.5T480-480q-83 0-141.5 58.5T280-280h-40Z"/></svg>