<svg xmlns="http://www.w3.org/2000/svg" height="24" viewBox="0 -960 960 960" width="24"><path d="M22.477-280q0-94.624 35.874-177.81t98.264-145.575q62.389-62.39 145.575-98.264 83.186-35.874 177.81-35.874t177.81 35.874q83.186 35.874 145.575 98.264 62.39 62.389 98.264 145.575 35.874 83.186 35.874 177.81H840q0-149-105.5-254.5T480-640q-149 0-254.5 105.5T120-280H22.477Zm169.044 0q0-119.391 84.458-203.935t203.935-84.544q119.477 0 204.021 84.483Q768.479-399.513 768.479-280h-96.958q0-79.609-56.239-135.565T480-471.521q-79.043 0-135.282 56.02-56.239 56.02-56.239 135.501h-96.958Z"/></svg>