<svg xmlns="http://www.w3.org/2000/svg" height="24" viewBox="0 -960 960 960" width="24"><path d="M265.965-306Q260-306 256-310.025T252-320v-320q0-5.95 4.035-9.975 4.035-4.025 10-4.025t9.965 4.025q4 4.025 4 9.975v146h212v-146q0-5.95 4.035-9.975 4.035-4.025 10-4.025t9.965 4.025q4 4.025 4 9.975v320q0 5.95-4.035 9.975-4.035 4.025-10 4.025T496-310.025q-4-4.025-4-9.975v-146H280v146q0 5.95-4.035 9.975-4.035 4.025-10 4.025Zm428 0Q688-306 684-310.025T680-320v-306h-66q-5.95 0-9.975-4.035-4.025-4.035-4.025-10t4.025-9.965q4.025-4 9.975-4h63.505q13.495 0 21.995 8.625Q708-636.75 708-624v304q0 5.95-4.035 9.975-4.035 4.025-10 4.025Z"/></svg>