<svg xmlns="http://www.w3.org/2000/svg" height="20" viewBox="0 -960 960 960" width="20"><path d="M355.232-552H216.769q-22.007 0-37.387-15.38-15.381-15.381-15.381-37.388v-138.463q0-22.007 15.381-37.387 15.38-15.381 37.387-15.381h138.463q22.007 0 37.388 15.381Q408-765.238 408-743.231v138.463q0 22.007-15.38 37.388Q377.239-552 355.232-552Zm0 387.999H216.769q-22.007 0-37.387-15.381-15.381-15.38-15.381-37.387v-138.463q0-22.007 15.381-37.388Q194.762-408 216.769-408h138.463q22.007 0 37.388 15.38Q408-377.239 408-355.232v138.463q0 22.007-15.38 37.387-15.381 15.381-37.388 15.381ZM743.231-552H604.768q-22.007 0-37.388-15.38Q552-582.761 552-604.768v-138.463q0-22.007 15.38-37.387 15.381-15.381 37.388-15.381h138.463q22.007 0 37.387 15.381 15.381 15.38 15.381 37.387v138.463q0 22.007-15.381 37.388Q765.238-552 743.231-552Zm0 387.999H604.768q-22.007 0-37.388-15.381Q552-194.762 552-216.769v-138.463q0-22.007 15.38-37.388Q582.761-408 604.768-408h138.463q22.007 0 37.387 15.38 15.381 15.381 15.381 37.388v138.463q0 22.007-15.381 37.387-15.38 15.381-37.387 15.381Z"/></svg>