<svg xmlns="http://www.w3.org/2000/svg" height="20" viewBox="0 -960 960 960" width="20"><path d="M328.826-548.174H223.174q-34.483 0-58.741-24.259-24.259-24.258-24.259-58.741v-105.652q0-34.483 24.259-58.741 24.258-24.259 58.741-24.259h105.652q34.483 0 58.741 24.259 24.259 24.258 24.259 58.741v105.652q0 34.483-24.259 58.741-24.258 24.259-58.741 24.259Zm-108.043-80.609h110.434v-110.434H220.783v110.434Zm108.043 488.609H223.174q-34.483 0-58.741-24.259-24.259-24.258-24.259-58.741v-105.652q0-34.483 24.259-58.741 24.258-24.259 58.741-24.259h105.652q34.483 0 58.741 24.259 24.259 24.258 24.259 58.741v105.652q0 34.483-24.259 58.741-24.258 24.259-58.741 24.259Zm-108.043-80.609h110.434v-110.434H220.783v110.434Zm516.043-327.391H631.174q-34.483 0-58.741-24.259-24.259-24.258-24.259-58.741v-105.652q0-34.483 24.259-58.741 24.258-24.259 58.741-24.259h105.652q34.483 0 58.741 24.259 24.259 24.258 24.259 58.741v105.652q0 34.483-24.259 58.741-24.258 24.259-58.741 24.259Zm-108.043-80.609h110.434v-110.434H628.783v110.434Zm108.043 488.609H631.174q-34.483 0-58.741-24.259-24.259-24.258-24.259-58.741v-105.652q0-34.483 24.259-58.741 24.258-24.259 58.741-24.259h105.652q34.483 0 58.741 24.259 24.259 24.258 24.259 58.741v105.652q0 34.483-24.259 58.741-24.258 24.259-58.741 24.259Zm-108.043-80.609h110.434v-110.434H628.783v110.434Zm-297.566-408Zm0 297.566Zm297.566-297.566Zm0 297.566Z"/></svg>