<svg xmlns="http://www.w3.org/2000/svg" height="24" viewBox="0 -960 960 960" width="24"><path d="M397-397v42q0 34.583 24.208 58.792Q445.417-272 480-272t58.792-24.208Q563-320.417 563-355v-42h42q34.583 0 58.792-24.208Q688-445.417 688-480t-24.208-58.792Q639.583-563 605-563h-42v-42q0-34.583-24.208-58.792Q514.583-688 480-688t-58.792 24.208Q397-639.583 397-605v42h-42q-34.583 0-58.792 24.208Q272-514.583 272-480t24.208 58.792Q320.417-397 355-397h42ZM212-86q-53 0-89.5-36.5T86-212v-536q0-53 36.5-89.5T212-874h536q53 0 89.5 36.5T874-748v536q0 53-36.5 89.5T748-86H212Zm0-126h536v-536H212v536Zm0-536v536-536Z"/></svg>