<svg xmlns="http://www.w3.org/2000/svg" height="24" viewBox="0 -960 960 960" width="24"><path d="M450-450v120q0 12.5 8.789 21.25 8.79 8.75 21.347 8.75 12.556 0 21.21-8.75Q510-317.5 510-330v-120h120q12.5 0 21.25-8.789 8.75-8.79 8.75-21.347 0-12.556-8.75-21.21Q642.5-510 630-510H510v-120q0-12.5-8.789-21.25-8.79-8.75-21.347-8.75-12.556 0-21.21 8.75Q450-642.5 450-630v120H330q-12.5 0-21.25 8.789-8.75 8.79-8.75 21.347 0 12.556 8.75 21.21Q317.5-450 330-450h120ZM224.615-160Q197-160 178.5-178.5 160-197 160-224.615v-510.77Q160-763 178.5-781.5 197-800 224.615-800h510.77Q763-800 781.5-781.5 800-763 800-735.385v510.77Q800-197 781.5-178.5 763-160 735.385-160h-510.77Z"/></svg>