<svg xmlns="http://www.w3.org/2000/svg" height="24" viewBox="0 -960 960 960" width="24"><path d="M224.615-360q-49.5 0-84.75-35.25T104.615-480q0-49.5 35.25-84.75t84.75-35.25q49.5 0 84.75 35.25t35.25 84.75q0 49.5-35.25 84.75T224.615-360Zm430.951 80q-83.258 0-141.72-58.28-58.461-58.281-58.461-141.539 0-83.258 58.28-141.72Q571.946-680 655.204-680q83.258 0 141.719 58.28 58.462 58.281 58.462 141.539 0 83.258-58.281 141.72Q738.824-280 655.566-280Zm-.181-40q66 0 113-47t47-113q0-66-47-113t-113-47q-66 0-113 47t-47 113q0 66 47 113t113 47Z"/></svg>