<svg xmlns="http://www.w3.org/2000/svg" height="20" viewBox="0 -960 960 960" width="20"><path d="M299-336h266q18.417 0 26.208-16.5Q599-369 588-384l-67.21-89.214Q516-479 510.167-482q-5.834-3-12-3Q492-485 486-482t-11.091 9.186l-43.818 58.628q-5 6.186-10.879 8.686t-12.045 2.5q-6.167 0-12.212-2.5Q389.909-408 385-414l-20-27q-4.625-6-10.625-9T342-453q-6.375 0-12.375 3T319-441l-43 57q-11 15-3.208 31.5Q280.583-336 299-336Zm-71 178q-49 0-83.5-34.5T110-276v-408q0-49.7 34.5-83.85Q179-802 228-802h408q49.7 0 83.85 34.15Q754-733.7 754-684v156l93-93q13-13 32-5.833 19 7.166 19 25.833v241.877Q898-340 879-333t-32-6l-93-93v156q0 49-34.15 83.5T636-158H228Zm0-118h408v-408H228v408Zm0 0v-408 408Z"/></svg>