<svg xmlns="http://www.w3.org/2000/svg" height="20" viewBox="0 -960 960 960" width="20"><path d="M364-605.539h232v-65.846q0-9.23-7.692-16.923Q580.615-696 571.385-696h-182.77q-9.23 0-16.923 7.692Q364-680.615 364-671.385v65.846ZM212.307-232q-12.03 0-20.169-8.138Q184-248.277 184-260.307v-142.462h119.385v20q0 6.8 4.607 11.4 4.608 4.6 11.42 4.6 6.811 0 11.392-4.6 4.581-4.6 4.581-11.4v-20h289.23v20q0 6.5 4.547 11.25 4.548 4.75 11.27 4.75 6.722 0 11.322-4.6 4.599-4.6 4.599-11.4v-20H776v142.462q0 12.03-8.138 20.169Q759.723-232 747.693-232H212.307ZM184-441.538v-107.13q0-24.571 16.15-40.721 16.15-16.15 40.465-16.15H332v-66.058Q332-696 348.15-712t40.465-16h182.77q24.315 0 40.465 16.15Q628-695.7 628-671.385v65.846h91.385q24.315 0 40.465 16.15Q776-573.239 776-548.668v107.13H656.615v-13.231q0-6.8-4.547-11.4-4.547-4.6-11.269-4.6t-11.453 4.6q-4.731 4.6-4.731 11.4v13.231h-289.23v-13.231q0-6.8-4.548-11.4-4.547-4.6-11.269-4.6t-11.453 4.6q-4.73 4.6-4.73 11.4v13.231H184Z"/></svg>