<svg xmlns="http://www.w3.org/2000/svg" height="20" viewBox="0 -960 960 960" width="20"><path d="M565.001-508.522q52.261 0 88.391-36.154 36.131-36.154 36.131-87.803 0-52.261-36.131-88.391-36.13-36.131-88.391-36.131t-88.392 36.131q-36.13 36.13-36.13 88.109 0 51.978 36.13 88.109 36.131 36.13 88.392 36.13Zm-331.219 274.74v-662.437h662.437v662.437H233.782ZM63.781-63.781v-650.001h98.001v552h552v98.001H63.781Zm268.003-268.003h466.434v-31q-41.609-56.826-102.186-89.435-60.578-32.609-131.087-32.609-70.51 0-131.031 32.609-60.522 32.609-102.13 89.435v31Z"/></svg>