<svg xmlns="http://www.w3.org/2000/svg" height="20" viewBox="0 -960 960 960" width="20"><path d="M551.955-494.769q45.814 0 77.929-32.07 32.115-32.069 32.115-77.884 0-45.814-32.07-77.929t-77.884-32.115q-45.814 0-77.929 32.07t-32.115 77.884q0 45.814 32.07 77.929t77.884 32.115ZM260.001-260.001v-583.998h583.998v583.998H260.001Zm-144 144v-583.998H168V-168h531.999v51.999H116.001ZM323.539-312h456.922v-31q-45-49-103.833-75.615-58.833-26.615-124.615-26.615t-124.628 26.615Q368.539-392 323.539-343v31Z"/></svg>