<svg xmlns="http://www.w3.org/2000/svg" height="24" viewBox="0 -960 960 960" width="24"><path d="m871-648-64 62q-4 4-4.5 10t3.5 10.174q4 4.826 10 4.326t10-4.5l76-75q9-9 9-21t-9-21l-76-76q-4-4-10-4.5t-10 4.5q-4 4-4 9.5t4 9.5l64 64H760q-39.167 0-66.583 27.417Q666-621.167 666-582v216q0 27-19.5 46.5T600-300q-27 0-46.5-19.5T534-366v-176q0-39.167-27.382-66.583Q479.235-636 440.118-636 401-636 373.5-608.583 346-581.167 346-542v176q0 27-19.5 46.5T280-300q-27 0-46.5-19.5T214-366v-256q0-5.95-4.035-9.975-4.035-4.025-10-4.025T190-631.975q-4 4.025-4 9.975v256q0 39.167 27.382 66.583Q240.765-272 279.882-272 319-272 346.5-299.417 374-326.833 374-366v-176q0-27 19.5-46.5T440-608q27 0 46.5 19.5T506-542v176q0 39.167 27.382 66.583Q560.765-272 599.882-272 639-272 666.5-299.417 694-326.833 694-366v-216q0-27 19.5-46.5T760-648h111ZM152-148q-24.75 0-42.375-17.625T92-208v-230q0-12.75 8.625-21.375T122-468h716q12.75 0 21.375 8.625T868-438v230q0 24.75-17.625 42.375T808-148H152Z"/></svg>