<svg xmlns="http://www.w3.org/2000/svg" height="24" viewBox="0 -960 960 960" width="24"><path d="M856.23-649.846H760q-24.692 0-42.346 17.654Q700-614.539 700-589.846v230.769q0 41.539-29.231 70.77-29.23 29.23-70.769 29.23t-70.769-29.23Q500-317.538 500-359.077v-190.769q0-24.693-17.654-42.346-17.654-17.654-42.346-17.654-24.692 0-42.346 17.654Q380-574.539 380-549.846v190.769q0 41.539-29.231 70.77-29.23 29.23-70.769 29.23t-70.769-29.23Q180-317.538 180-359.077v-270.769q0-8.539 5.731-14.27 5.73-5.73 14.269-5.73t14.269 5.73q5.731 5.731 5.731 14.27v270.769q0 24.692 17.654 42.346 17.654 17.654 42.346 17.654 24.692 0 42.346-17.654Q340-334.385 340-359.077v-190.769q0-41.539 29.231-70.77 29.23-29.23 70.769-29.23t70.769 29.23Q540-591.385 540-549.846v190.769q0 24.692 17.654 42.346 17.654 17.654 42.346 17.654 24.692 0 42.346-17.654Q660-334.385 660-359.077v-230.769q0-41.539 29.231-70.77 29.23-29.23 70.769-29.23h95.461l-53.615-53.616q-5.615-5.615-5.615-13.654 0-8.038 5.615-13.884 5.846-6.616 14.269-6.231 8.424.385 14.27 6.231l78.538 78.538q9.693 9.693 9.693 22.616t-9.693 22.615l-78.769 77.769q-5.846 5.616-14.269 6.116-8.424.5-14.039-6.116-5.615-5.846-5.231-14.384.385-8.539 6.231-14.154l53.384-51.846ZM144.615-136q-26.846 0-45.73-18.884Q80-173.769 80-200.615v-241.539q0-13.923 9.192-23.115 9.192-9.193 23.115-9.193h735.386q13.923 0 23.115 9.193Q880-456.077 880-442.154v241.539q0 26.846-18.884 45.731Q842.231-136 815.385-136h-670.77Zm0-40h670.77q10.769 0 17.692-6.923T840-200.615v-233.846H120v233.846q0 10.769 6.923 17.692T144.615-176Zm670.77-258.461H840 120h695.385Z"/></svg>