<svg xmlns="http://www.w3.org/2000/svg" height="20" viewBox="0 -960 960 960" width="20"><path d="m886-631-74 73q-3 4-3.5 7.5t3.5 6.674q4 3.826 7.5 3.826t6.5-4l79-79q8-7.636 8-17.818Q913-651 905-659l-79-80q-2.667-3-6.833-3.5-4.167-.5-7.645 3.5-3.522 3-4.022 6.5-.5 3.5 3.5 7.5l74 74H732q-34.167 0-58.083 23.917Q650-603.167 650-569v212q0 25.3-18.289 43.65-18.29 18.35-43.5 18.35Q563-295 544.5-313.35T526-357v-212q0-34.167-23.882-58.083-23.883-23.917-58-23.917Q410-651 386-627.083 362-603.167 362-569v212q0 25.3-18.289 43.65-18.29 18.35-43.5 18.35Q275-295 256.5-313.35T238-357v-284q0-4.25-2.825-7.125-2.824-2.875-7-2.875-4.175 0-7.175 2.875T218-641v284q0 34.167 23.882 58.083 23.883 23.917 58 23.917Q334-275 358-298.917q24-23.916 24-58.083v-212q0-25.3 18.289-43.65 18.29-18.35 43.5-18.35Q469-631 487.5-612.65T506-569v212q0 34.167 23.882 58.083 23.883 23.917 58 23.917Q622-275 646-298.917q24-23.916 24-58.083v-212q0-25.3 18.35-43.65Q706.7-631 732-631h154ZM152-163q-21.45 0-36.725-15.275Q100-193.55 100-215v-226q0-11.05 7.475-18.525Q114.95-467 126-467h708q11.05 0 18.525 7.475Q860-452.05 860-441v226q0 21.45-15.275 36.725Q829.45-163 808-163H152Z"/></svg>