<svg xmlns="http://www.w3.org/2000/svg" height="20" viewBox="0 -960 960 960" width="20"><path d="m772-626-10 11q-9 10-9 20.5t10 19.5q26 25 46.5 28t35.5-13l73-73q18-17.636 18-41.818T918-717l-72-73q-14.667-15-34.333-15-19.667 0-35.145 15Q757-771 755-757.5t8 23.5l10 10h-64q-50 0-85.5 35.5T588-603v254q0 6.3-4.789 11.15-4.79 4.85-11 4.85Q566-333 561-337.85T556-349v-254q0-49-32.5-85T442-724q-49 0-81.5 36T328-603v254q0 6.3-4.789 11.15-4.79 4.85-11 4.85Q306-333 301-337.85T296-349v-326q0-20.3-14.289-34.65-14.29-14.35-34.5-14.35Q227-724 212.5-709.65T198-675v319q0 49 32.5 85t81.5 36q49 0 81.5-36t32.5-85v-254q0-6.3 4.789-11.15 4.79-4.85 11-4.85Q448-626 453-621.15t5 11.15v254q0 49 32.5 85t81.5 36q49 0 81.5-36t32.5-85v-247q0-9.3 6.85-16.15Q699.7-626 709-626h63ZM126-81q-49.7 0-83.85-34.15Q8-149.3 8-199v-270q0-24.3 17.35-41.65Q42.7-528 67-528h796q24.3 0 41.65 17.35Q922-493.3 922-469v270q0 49.7-34.15 83.85Q853.7-81 804-81H126Z"/></svg>