<svg xmlns="http://www.w3.org/2000/svg" height="24" viewBox="0 -960 960 960" width="24"><path d="m517.37-117.609 34-331.478q-52.457-14.043-82.533-37.826T410-539.696L319.304-450l86.196 88.587v244.522h-86.217v-206.891l-36.261-34.696 5.326 64.522-143.652 183.26-67.783-52.826L197.89-317.869 127.565-492.87l167.283-165.282q12.478-12.478 27.576-18.718 15.098-6.239 30.576-6.239 24.957 0 39.554 9.479 14.598 9.478 19.598 14.478l77.609 76.608q28.435 28.196 68.272 44.174 39.837 15.979 85.076 15.979h118.282L793.63-209.37q13.479 8.24 21.837 22.457 8.359 14.217 8.359 31.696 0 25.956-18.217 44.174-18.218 18.217-44.174 18.217-25.957 0-44.674-18.217-18.718-18.218-18.718-44.174 0-17 7.761-30.62 7.761-13.619 21.283-22.098l-5.239-49.674H596.152l-14 140H517.37ZM501.913-660q-33.956 0-58.174-24.217-24.217-24.218-24.217-58.174 0-34.196 24.217-58.294 24.218-24.098 58.174-24.098 34.196 0 58.294 24.098 24.097 24.098 24.097 58.294 0 33.956-24.097 58.174Q536.109-660 501.913-660ZM602.63-322.391h112.74l-13.522-135.218h-84.696L602.63-322.391Z"/></svg>