<svg xmlns="http://www.w3.org/2000/svg" height="20" viewBox="0 -960 960 960" width="20"><path d="M439.73-507.521v67.478q0 17.222 11.674 28.872 11.674 11.65 28.83 11.65 17.155 0 28.761-11.65 11.605-11.65 11.605-28.872v-67.478h67.731q16.916 0 28.553-11.59 11.638-11.589 11.638-28.722 0-16.892-11.488-28.404-11.487-11.511-28.469-11.511h-68.043v-67.646q0-17.258-11.65-28.932T480-696q-17.222 0-28.872 11.674-11.65 11.674-11.65 28.932v67.646h-68.043q-16.982 0-28.469 11.514-11.488 11.515-11.488 28.201 0 16.985 11.674 28.749 11.674 11.763 28.932 11.763h67.646ZM480-206.262Q595.043-308.74 654.13-391.674q59.087-82.935 59.087-159.587 0-101.025-66.541-167.491-66.542-66.465-166.696-66.465t-166.675 66.465q-66.522 66.466-66.522 167.491 0 76.652 59.087 159.304T480-206.262Zm-.135 103.089q-15.126 0-28.655-5.065-13.529-5.066-26.123-15.196-43.392-36.696-92.153-84.261T242.76-310.391q-41.413-55.13-67.696-116.174-26.282-61.044-26.282-124.696 0-141.755 94.795-236.856 94.796-95.101 235.923-95.101t236.423 95.101q95.295 95.101 95.295 236.856 0 63.652-26.782 125.196-26.783 61.544-67.696 116.674-40.913 55.131-89.674 102.196-48.761 47.065-92.153 83.761-12.67 10.13-26.296 15.196-13.626 5.065-28.752 5.065ZM480-552Z"/></svg>