<svg xmlns="http://www.w3.org/2000/svg" height="20" viewBox="0 -960 960 960" width="20"><path d="M470.252-542v98q0 4.25 2.909 7.125t7.108 2.875q4.199 0 7.004-2.875 2.805-2.875 2.805-7.125v-98h97.688q4.184 0 7.209-2.825 3.025-2.824 3.025-7 0-4.175-2.875-7.049-2.875-2.874-7.125-2.874h-98v-98.168q0-4.286-2.885-7.185t-7.15-2.899q-4.265 0-7.115 2.899-2.85 2.899-2.85 7.185v98.168h-98q-4.25 0-7.125 2.909T362-551.965q0 4.265 2.899 7.115 2.899 2.85 7.185 2.85h98.168ZM480-159q-7 0-12.5-2t-12.5-7q-11-8-49.5-43.5t-81.5-87Q281-350 248-414t-33-130q0-104 71-186t193.5-82q122.5 0 194 82T745-544q0 66-33.5 130T636-298q-42 52-80.5 86.5T506-169q-6.642 5-12.594 7.5Q487.453-159 480-159Z"/></svg>