<svg xmlns="http://www.w3.org/2000/svg" height="20" viewBox="0 -960 960 960" width="20"><path d="M358.911-430.999H125.782q-20.387 0-34.694-14.247-14.306-14.246-14.306-34.543 0-20.298 14.306-34.755 14.307-14.457 34.694-14.457h233.129l-58.52-57.955q-14.957-14.957-13.892-34.827 1.066-19.869 15.457-34.261 14.957-14.957 34.544-14.957 19.587 0 34.544 14.957l140.435 141.435q14.956 14.593 14.956 34.427t-14.956 34.791L370.044-303.956Q355.087-288.999 336-289.499q-19.087-.5-34.044-15.457-14.957-14.957-14.957-34.544 0-19.587 14.957-34.544l56.955-56.955Zm222.612 230.001q-20.388 0-34.694-14.246-14.307-14.246-14.307-34.544 0-20.298 14.307-34.755 14.306-14.456 34.694-14.456h252.695q20.387 0 34.694 14.246 14.306 14.246 14.306 34.544 0 20.298-14.306 34.754-14.307 14.457-34.694 14.457H581.523Zm0-460.003q-20.388 0-34.694-14.246-14.307-14.246-14.307-34.544 0-20.298 14.307-34.754 14.306-14.457 34.694-14.457h252.695q20.387 0 34.694 14.246 14.306 14.246 14.306 34.544 0 20.298-14.306 34.755-14.307 14.456-34.694 14.456H581.523Zm96 230.002q-20.388 0-34.694-14.247-14.307-14.246-14.307-34.543 0-20.298 14.307-34.755 14.306-14.457 34.694-14.457h156.695q20.387 0 34.694 14.247 14.306 14.246 14.306 34.543 0 20.298-14.306 34.755-14.307 14.457-34.694 14.457H677.523Z"/></svg>