<svg xmlns="http://www.w3.org/2000/svg" height="20" viewBox="0 -960 960 960" width="20"><path d="M452-470H158q-4.25 0-7.125-2.825-2.875-2.824-2.875-7 0-4.175 2.875-7.175t7.125-3h294L328-615q-4-4-2.5-7.5t4.5-6.674q3.667-3.826 6.833-3.826 3.167 0 7.167 4l129 131q8 7.636 8 17.818Q481-470 473-462L342-331q-4 4-7 2.5t-6.174-4.674Q325-337 325-339.5q0-2.5 4-6.5l123-124Zm82 192q-4.25 0-7.125-2.825-2.875-2.824-2.875-7 0-4.175 2.875-7.175t7.125-3h268q4.25 0 7.125 2.825 2.875 2.824 2.875 7 0 4.175-2.875 7.175T802-278H534Zm0-384q-4.25 0-7.125-2.825-2.875-2.824-2.875-7 0-4.175 2.875-7.175t7.125-3h268q4.25 0 7.125 2.825 2.875 2.824 2.875 7 0 4.175-2.875 7.175T802-662H534Zm96 192q-4.25 0-7.125-2.825-2.875-2.824-2.875-7 0-4.175 2.875-7.175t7.125-3h172q4.25 0 7.125 2.825 2.875 2.824 2.875 7 0 4.175-2.875 7.175T802-470H630Z"/></svg>