<svg xmlns="http://www.w3.org/2000/svg" height="20" viewBox="0 -960 960 960" width="20"><path d="M165-246.893V-466l-14.815 11.22Q134-442 112.538-444.625q-21.461-2.625-34.5-19Q65-480 67.5-501.5t19.207-34.482L408-781q16-13 34.363-18 18.362-5 36.5-5Q497-804 516-799t35 18l319.324 245.018q17.029 13.03 19.853 34.506Q893-480 880-463.556q-12.81 16.909-33.838 19.732Q825.133-441 808-454l-15-12v219.107q0 49.656-34.162 83.774Q724.676-129 674.96-129H282.717Q233-129 199-163.119q-34-34.118-34-83.774ZM268-231h423v-313.334L479-706 268-545.395V-231Zm78.86-131q20.28 0 34.21-13.719 13.93-13.72 13.93-34Q395-430 381.281-444q-13.72-14-34-14Q327-458 312.5-444.281q-14.5 13.72-14.5 34Q298-390 312.289-376q14.29 14 34.571 14Zm131.859-1Q499-363 513.5-376.719q14.5-13.72 14.5-34Q528-431 513.711-445.5 499.421-460 479.14-460q-20.28 0-34.21 14.289Q431-431.421 431-411.14q0 20.28 13.719 34.21 13.72 13.93 34 13.93Zm133.141 0q20.28 0 34.21-13.719 13.93-13.72 13.93-34Q660-431 646.281-445.5q-13.72-14.5-34-14.5Q592-460 577.5-445.711 563-431.421 563-411.14q0 20.28 14.289 34.21Q591.579-363 611.86-363ZM268-231h423-423Z"/></svg>