<svg xmlns="http://www.w3.org/2000/svg" height="24" viewBox="0 -960 960 960" width="24"><path d="M144.738-49.477q-22.087 0-37.544-15.456-15.456-15.457-15.456-37.544v-362.262q0-9.261 1-17.739 1-8.479 4.13-16.74l59-170.304q13.261-39.652 51.066-55.913 37.804-16.261 75.457.565l163.174 71.869h59.173q22.088 0 37.544 15.457 15.457 15.457 15.457 37.544 0 22.087-15.457 37.544-15.456 15.457-37.544 15.457h-60.173q-10.827 0-21.653-2.566-10.826-2.565-21.087-6.695l-77.173-33.217-46.913 141.738v345.262q0 22.087-15.457 37.544-15.456 15.456-37.544 15.456h-80Zm169.044-719.002q-36.391 0-62.717-26.326-26.327-26.326-26.327-62.718 0-36.391 26.327-62.435 26.326-26.043 62.717-26.043 36.392 0 62.435 26.043 26.044 26.044 26.044 62.435 0 36.392-26.044 62.718-26.043 26.326-62.435 26.326Zm93.001 625.004q-22.087 0-37.544-15.457-15.457-15.457-15.457-37.544 0-22.087 15.457-37.544 15.457-15.457 37.544-15.457h408.479q22.087 0 37.544 15.457 15.456 15.457 15.456 37.544 0 22.087-15.456 37.544-15.457 15.457-37.544 15.457H406.783Zm393.001-146.002q-28.392 0-48.718-20.326-20.326-20.326-20.326-48.718 0-28.391 20.326-48.435 20.326-20.043 48.718-20.043 28.391 0 48.435 20.043 20.043 20.044 20.043 48.435 0 28.392-20.043 48.718-20.044 20.326-48.435 20.326Zm-269.044 0q-44.305 0-70.631-26.891-26.327-26.892-26.327-70.631v-22.478h-31.521q-20.391 0-34.435-14.326-14.044-14.326-14.044-34.718 0-20.391 14.044-34.435 14.044-14.043 34.435-14.043h75.478q22.087 0 37.544 15.456 15.457 15.457 15.457 37.544v27h63.042v-31.522q0-20.391 14.044-34.435 14.044-14.043 34.435-14.043 20.391 0 34.435 14.043 14.044 14.044 14.044 34.435v71.522q0 44.305-26.327 70.913-26.326 26.609-70.631 26.609H530.74Z"/></svg>