<svg xmlns="http://www.w3.org/2000/svg" height="20" viewBox="0 -960 960 960" width="20"><path d="M162-80q-17 0-29.5-12.5T120-121.867v-344.289q0-6.946 1-13.395T124-493l59-173q12-35 45.673-49 33.674-14 66.327 0l165.322 73h61.747Q539-642 551.5-629.5T564-600q0 17-12.5 29.5T522-558h-63q-9 0-17-1.5t-16-5.5l-91-39-51 154v328.098Q284-105 271.5-92.5T242-80h-80Zm160-680q-33 0-56.5-23.5T242-840q0-33 23.5-56.5T322-920q33 0 56.5 23.5T402-840q0 33-23.5 56.5T322-760Zm77.922 568Q383-192 370.5-204.5T358-234q0-17 12.5-29.5t29.422-12.5h398.156Q815-276 827.5-263.5T840-234q0 17-12.5 29.5T798.078-192H399.922Zm377.96-126Q752-318 734-336.118q-18-18.117-18-44Q716-406 734.118-424q18.117-18 44-18Q804-442 822-423.882q18 18.117 18 44Q840-354 821.882-336q-18.117 18-44 18ZM522-318q-34.65 0-59.325-24.675Q438-367.35 438-402v-36h-38q-17 0-29.5-12.5T358-480q0-17 12.5-29.5T400-522h80q17 0 29.5 12.5T522-480v38h76v-38q0-17 12.5-29.5T640-522q17 0 29.5 12.5t12.5 29.149V-402q0 34.65-24.675 59.325Q632.65-318 598-318h-76Z"/></svg>