<svg xmlns="http://www.w3.org/2000/svg" height="20" viewBox="0 -960 960 960" width="20"><path d="M168.154-90q-15.365 0-26.759-11.395-11.394-11.394-11.394-26.626v-327.75q0-6.137.807-11.837.808-5.699 2.808-12.314l59-173q10.846-30.769 40.096-43.038 29.25-12.269 58.057.192l167.63 73.769h63.67q12.681 0 22.306 9.629 9.624 9.629 9.624 22.384 0 12.756-9.624 22.371Q534.75-558 522-558h-62.615q-8.231 0-15.462-1.28-7.23-1.28-14.461-4.951l-100.616-43.231-54.847 165.924v313.482q0 15.267-11.394 26.661-11.394 11.394-26.759 11.394h-67.692Zm150-662.307q-30.462 0-52.154-21.692-21.692-21.692-21.692-52.154 0-30.461 21.692-52.153 21.692-21.693 52.154-21.693 30.461 0 52.153 21.693 21.692 21.692 21.692 52.153 0 30.462-21.692 52.154-21.692 21.692-52.153 21.692Zm81.768 520.304q-12.672 0-22.296-9.629-9.625-9.628-9.625-22.384 0-12.755 9.625-22.37 9.624-9.615 22.296-9.615h398.156q12.672 0 22.297 9.628 9.624 9.629 9.624 22.384 0 12.756-9.624 22.371-9.625 9.615-22.297 9.615H399.922Zm361.896-105.998q-23.281 0-39.55-16.297-16.269-16.296-16.269-39.576 0-23.281 16.297-39.55 16.296-16.269 39.576-16.269t39.55 16.296q16.269 16.297 16.269 39.577 0 23.28-16.297 39.549-16.296 16.27-39.576 16.27Zm-237.51 0q-31.477 0-53.892-22.416-22.415-22.415-22.415-53.892v-43.692H400q-12.75 0-22.374-9.629-9.625-9.629-9.625-22.384 0-12.756 9.625-22.371Q387.25-522 400-522h73.655q15.652 0 26.998 11.394 11.346 11.394 11.346 26.76V-442h96.002v-48.001q0-12.749 9.628-22.374Q627.258-522 640.013-522q12.756 0 22.371 9.625 9.615 9.625 9.615 22.024v76.042q0 31.477-22.415 53.892-22.415 22.416-53.892 22.416h-71.384Z"/></svg>