<svg xmlns="http://www.w3.org/2000/svg" height="20" viewBox="0 -960 960 960" width="20"><path d="M211.497-294.154q-23.497 0-39.882-16.641-16.385-16.641-16.385-40.01v-274.604q0-23.368 16.671-39.903 16.671-16.534 40.081-16.534 17.71 0 32.595 10 14.884 10 20.884 26.846 25.077-43.385 68.654-67.693Q377.692-737 429-737q42.109 0 78.901 15.307 36.791 15.308 65.638 44.154l152.077 152.077q8.692 8.749 12.538 18.865Q742-496.482 742-486.164t-3.846 21.097q-3.846 10.78-12.759 19.705L522.516-242.63q-8.17 8.038-18.217 12.334Q494.251-226 483.164-226q-11.087 0-21.273-3.796t-19.122-12.588L316.461-368.461l-25.384-25.385Q278.692-406.231 268.461-424v73.231q0 23.354-16.733 39.985-16.733 16.63-40.231 16.63ZM264-537q0 57 25 89t50 57l125.308 125.308Q472-258 482.385-258q10.384 0 17.307-7.692l202.616-202.616q6.923-7.692 6.923-18.077 0-10.384-6.923-17.307L551-655q-24-24-55-36.5T429-704q-68.75 0-116.875 49T264-537Zm235.154 73.154Z"/></svg>