<svg xmlns="http://www.w3.org/2000/svg" height="20" viewBox="0 -960 960 960" width="20"><path d="M478-110q-154 0-262-107.5T109-480h117q1 104 74.5 178T478-228q104 0 178-74t74-178q0-104-74-178t-178-74q-50 0-94.547 17.1Q338.907-697.8 306-665h79v89H118v-265h87v115q51-58 120.5-91T478-850q76 0 143.633 29.1 67.634 29.1 117.9 79.367 50.267 50.266 79.367 117.9Q848-556 848-480q0 76-29.1 143.633-29.1 67.634-79.367 117.9-50.266 50.267-117.9 79.367Q554-110 478-110Zm95-226L437-472v-200h87v162l112 111-63 63Z"/></svg>