<svg xmlns="http://www.w3.org/2000/svg" height="20" viewBox="0 -960 960 960" width="20"><path d="M352-464v80q0 54 37 91t91 37q54 0 91-37t37-91v-80H352Zm128.169 168Q444-296 418-321.88T392-384v-40h176v40q0 36.24-25.831 62.12-25.831 25.88-62 25.88ZM336-656q-28.608 0-52.304 19.5T249-585l39 11q8-19 20.435-30 12.436-11 27.5-12Q351-615 363.5-604q12.5 11 20.5 30l39-11q-11-32-34.696-51.5Q364.608-656 336-656Zm288 0q-28.608 0-52.304 19.5T537-585l39 11q8-20 19.935-31 11.936-11 28-11Q640-616 652-605t20 31l39-11q-11-32-34.696-51.5Q652.608-656 624-656ZM480.45-148q-68.45 0-129.008-25.891-60.559-25.892-106.075-71.348-45.515-45.457-71.441-105.893Q148-411.569 148-480.284q0-68.716 25.891-128.774 25.892-60.059 71.348-105.574 45.457-45.516 105.893-71.442Q411.569-812 480.284-812q68.716 0 128.774 25.891 60.059 25.892 105.574 71.348 45.516 45.457 71.442 105.659Q812-548.899 812-480.45q0 68.45-25.891 129.008-25.892 60.559-71.348 106.075-45.457 45.515-105.659 71.441Q548.899-148 480.45-148Z"/></svg>