<svg xmlns="http://www.w3.org/2000/svg" height="24" viewBox="0 -960 960 960" width="24"><path d="M310-490v80q0 70 49.938 120Q409.875-240 480-240q71 0 120.5-49.938Q650-339.875 650-410v-80H310Zm170 170q-37 0-63.5-26.5T390-410h180q0 37-26.1 63.5T480-320ZM339.941-670Q298-670 265.5-643T219-560l77 19q6-26 17.822-37.5T340-590q14.356 0 26.178 11.5Q378-567 384-541l77-19q-14-56-46.559-83-32.56-27-74.5-27Zm280 0Q578-670 545.5-643T499-560l77 19q6-26 17.822-37.5T620-590q14.356 0 26.178 11.5Q658-567 664-541l77-19q-14-56-46.559-83-32.56-27-74.5-27ZM479.917-46Q390-46 311-80t-138-93q-59-59-93-138.083-34-79.084-34-169Q46-570 80-649t93-138q59-59 138.083-93 79.084-34 169-34Q570-914 649-880t138 93q59 59 93 138.083 34 79.084 34 169Q914-390 880-311t-93 138q-59 59-138.083 93-79.084 34-169 34ZM480-480Zm0 308q128 0 218-90t90-218q0-128-90-218t-218-90q-128 0-218 90t-90 218q0 128 90 218t218 90Z"/></svg>