<svg xmlns="http://www.w3.org/2000/svg" height="20" viewBox="0 -960 960 960" width="20"><path d="M180.309-212.001q-27.008 0-45.658-18.65-18.65-18.65-18.65-45.658v-3.077H168v3.077q0 4.616 3.846 8.463 3.847 3.846 8.463 3.846h3.077v51.999h-3.077Zm-64.308-139.385v-72H168v72h-51.999Zm0-144v-72H168v72h-51.999Zm0-144v-44.305q0-27.008 18.65-45.658 18.65-18.65 45.658-18.65H240V-696h-59.691q-5.77 0-9.04 3.269-3.269 3.27-3.269 9.04v44.305h-51.999Zm151.385 427.385V-264h72v51.999h-72ZM324-696v-51.999h72V-696h-72Zm99.386 483.999V-264h72v51.999h-72ZM480-592.307v-155.692h299.691q27.008 0 45.658 18.65 18.65 18.65 18.65 45.658V-528H544.307q-26.623 0-45.465-18.842Q480-565.684 480-592.307Zm99.386 380.306V-264h72v51.999h-72Zm156 0V-264h44.305q5.77 0 9.04-3.269 3.269-3.27 3.269-9.04V-336h51.999v59.691q0 27.008-18.65 45.658-18.65 18.65-45.658 18.65h-44.305ZM792-396v-72h51.999v72H792Z"/></svg>