<svg xmlns="http://www.w3.org/2000/svg" height="24" viewBox="0 -960 960 960" width="24"><path d="M382.477-116.783v-224.738h-26.999q-22.087 0-37.544-15.457-15.457-15.457-15.457-37.544v-173.999q0-43.739 31.131-74.87 31.131-31.131 74.871-31.131h143.042q43.74 0 74.871 31.131 31.131 31.131 31.131 74.87v173.999q0 22.087-15.457 37.544-15.457 15.457-37.544 15.457h-26.999v224.738q0 22.087-15.457 37.544-15.457 15.457-37.544 15.457h-89.044q-22.087 0-37.544-15.457-15.457-15.457-15.457-37.544Zm59.914-625.348-23.261-23.26q-15.956-15.957-15.956-37.61 0-21.652 15.956-37.609l23.261-23.26q15.957-15.957 37.609-15.957t37.609 15.957l23.261 23.26q15.956 15.957 15.956 37.609 0 21.653-15.956 37.61l-23.261 23.26Q501.652-726.174 480-726.174t-37.609-15.957Z"/></svg>