<svg xmlns="http://www.w3.org/2000/svg" height="20" viewBox="0 -960 960 960" width="20"><path d="M180-158q-49 0-83.5-34.5T62-276v-408q0-34 17-62t45-43h24l111 111h-79v402h357l-59-60H276q-15.3 0-25.65-10.289-10.35-10.29-10.35-25.5Q240-387 250.35-397.5 260.7-408 276-408h130L60-751q-14-14-13.5-31.5T60-813q14-14 31.5-14t31.5 14l680 679q14 14 13.5 31.5T803-72q-14 14-31 14t-31-14l-86-86H180Zm688-35-88-88v-403H377L259-802h521q49 0 83.5 34.5T898-684v411.016q0 18.855-8 41.419Q882-209 868-193ZM581.482-480 509-552h175q15.3 0 25.65 10.289 10.35 10.29 10.35 25.5Q720-501 709.65-490.5 699.3-480 684-480H581.482ZM564-497Zm-200 60Zm-87.789-43Q261-480 250.5-490.289q-10.5-10.29-10.5-25.5Q240-531 250.289-541.5q10.29-10.5 25.5-10.5Q291-552 301.5-541.711q10.5 10.29 10.5 25.5Q312-501 301.711-490.5q-10.29 10.5-25.5 10.5Z"/></svg>