<svg xmlns="http://www.w3.org/2000/svg" height="20" viewBox="0 -960 960 960" width="20"><path d="M144-96q-20 0-34-14t-14-34v-273.889q0-6.704 1.5-13.407Q99-438 101-445l73.193-181.544Q182-647 200.5-659.5 219-672 241-672h95v-35.789Q336-723 346.35-733.5 356.7-744 372-744h46q-11 34-10.5 70.5T419-600H241l-48 120h298q38 35 84 53.5t97 18.5q25.517 0 49.759-4.5Q746-417 768-426v282q0 20-14 34t-34 14q-20 0-34-14t-14-34v-24H192v24q0 20-14 34t-34 14Zm120-180q20 0 34-14t14-34q0-20-14-34t-34-14q-20 0-34 14t-14 34q0 20 14 34t34 14Zm336 0q20 0 34-14t14-34q0-20-14-34t-34-14q-20 0-34 14t-14 34q0 20 14 34t34 14Zm71.774-204Q592-480 536-536.226t-56-136Q480-752 536.226-808t136-56Q752-864 808-807.774t56 136Q864-592 807.774-536t-136 56ZM672-672q9.6 0 16.8-7.2 7.2-7.2 7.2-16.8v-48q0-9.6-7.2-16.8-7.2-7.2-16.8-7.2-9.6 0-16.8 7.2-7.2 7.2-7.2 16.8v48q0 9.6 7.2 16.8 7.2 7.2 16.8 7.2Zm0 96q9.6 0 16.8-7.2 7.2-7.2 7.2-16.8 0-9.6-7.2-16.8-7.2-7.2-16.8-7.2-9.6 0-16.8 7.2-7.2 7.2-7.2 16.8 0 9.6 7.2 16.8 7.2 7.2 16.8 7.2Z"/></svg>