<svg xmlns="http://www.w3.org/2000/svg" height="20" viewBox="0 -960 960 960" width="20"><path d="m438-356-82-82q-18-18-18-42t18-42l82-82q18-18 42-18t42 18l82 82q18 18 18 42t-18 42l-82 82q-18 18-42 18t-42-18Zm122.774 250.226Q543-88 522-80t-43 8q-22 0-42.5-7.5t-38.274-25.274L104.774-398.226Q87-416 79-437t-8-43q0-22 8.5-43t25.5-39l294-293q17-17 38.336-25t42.5-8Q501-888 523-880t38 25l294.201 293.201Q873-544 881-523t8 43q0 22-8.5 43t-26.274 38.774L560.774-105.774ZM480-220l260-260-260-260-260 260 260 260Z"/></svg>