<svg xmlns="http://www.w3.org/2000/svg" height="24" viewBox="0 -960 960 960" width="24"><path d="M200-290.001q-80.769 0-135.384-54.615Q10-399.231 10-480q0-80 55.615-135.384Q121.23-670.769 200-670.769q72.769 0 124.692 46.193 51.923 46.192 62.846 114.577h48.309l-78.923-220.002h-66.923v-59.998h179.998v59.998h-48.615l20.923 59.232h214.309l-65.308-179.232H490.001v-59.998h144.075l87 238H760q78.769 0 134.384 55.615Q949.999-560.769 949.999-482q0 79.384-55.307 135.307Q839.384-290.77 760-290.77q-70.461 0-122.846-45.192-52.384-45.193-64.692-114.039H387.538q-10.923 69-63.961 114.5-53.039 45.5-123.577 45.5Zm10.001-160h115.077v-59.998H210.001v59.998ZM516.923-46.924 294.616-158.46h147.692v-74.615l222.306 111.537H516.923v74.615Zm-15.847-463.075h71.386q4.231-25.308 16.962-53.963 12.731-28.654 35.962-46.808H463.384l37.692 100.771Zm225.078 30.921 56.768-21.076-40.769-108.308-54.768 21.076 38.769 108.308Z"/></svg>