<svg xmlns="http://www.w3.org/2000/svg" height="20" viewBox="0 -960 960 960" width="20"><path d="M610.001-298.001h51.998v-72h72v-51.998h-72v-72h-51.998v72h-72v51.998h72v72Zm-312-72h99.998v-51.998h-99.998v51.998Zm0-120h243.998v-51.998H298.001v51.998Zm0-120h243.998v-51.998H298.001v51.998Zm182.342 494q-75.112 0-141.48-28.42-66.369-28.42-116.182-78.21-49.814-49.791-78.247-116.087t-28.433-141.673q0-75.378 28.42-141.246 28.42-65.869 78.21-115.682 49.791-49.814 116.087-78.247t141.673-28.433q75.378 0 141.246 28.42 65.869 28.42 115.682 78.21 49.814 49.791 78.247 115.853t28.433 141.173q0 75.112-28.42 141.48-28.42 66.369-78.21 116.182-49.791 49.814-115.853 78.247t-141.173 28.433Z"/></svg>