<svg xmlns="http://www.w3.org/2000/svg" height="20" viewBox="0 -960 960 960" width="20"><path d="M172.782-76.782V-658.74q0-51.765 28.239-92.143 28.239-40.379 73.969-53.253v-79.082h131.314v72H553.13v-72h131.741v79.071q45.304 12.885 73.826 53.264 28.521 40.378 28.521 92.143v581.958H172.782Zm97.436-97.436h419.564V-658.74q0-23.005-15.853-39.024-15.853-16.018-38.114-16.018H323.287q-22.374 0-37.722 16.168-15.347 16.169-15.347 38.874v484.522Zm286.564-162.347h77.652v-148.522H325.566v79.348h231.216v69.174ZM480-444Z"/></svg>