<svg xmlns="http://www.w3.org/2000/svg" height="24" viewBox="0 -960 960 960" width="24"><path d="M519.935-160q-56.012 0-108.195-18.988-52.183-18.987-95.048-53.166-7-5.615-7.538-14.038-.539-8.423 6.077-15.039 6.615-6.615 15.423-6.231 8.808.385 15.885 6.539 37.307 29.077 80.346 45Q469.923-200 520-200q116.769 0 198.385-81.615Q800-363.231 800-480q0-116-82-198t-198-82q-116 0-198 82t-82 198v55.461l72.692-72.692q5.423-5.615 13.558-5.615t13.981 5.615q6.615 5.846 6.231 14.269-.385 8.424-6.231 14.27l-97.616 97.615q-9.692 9.693-22.615 9.693-12.923 0-22.616-9.693l-97.846-97.846q-5.846-5.846-6.115-14.269-.27-8.423 5.961-14.039 6.231-5.615 14.654-5.346 8.423.269 14.039 6.115L200-423.539V-480q0-66.598 25.038-124.761 25.039-58.162 68.539-101.662 43.5-43.5 101.648-68.539Q453.374-800 519.956-800q66.583 0 124.775 25.038 58.192 25.039 101.692 68.539 43.5 43.5 68.539 101.64Q840-546.642 840-480.069q0 133.146-93.352 226.608Q653.295-160 519.935-160ZM440-329.231q-15.038 0-25.212-10.173-10.173-10.173-10.173-25.211v-120q0-15.039 11.5-25.212t28.5-10.173v-44.615q0-31.097 22.145-53.241Q488.904-640 520-640q31.096 0 53.24 22.144 22.145 22.144 22.145 53.241V-520q17 0 28.5 10.173t11.5 25.212v120q0 15.038-10.173 25.211-10.174 10.173-25.212 10.173H440ZM475.385-520h89.23v-44.318q0-18.836-13.038-31.874-13.039-13.039-31.577-13.039-18.538 0-31.577 13.039-13.038 13.038-13.038 31.874V-520Z"/></svg>