<svg xmlns="http://www.w3.org/2000/svg" height="20" viewBox="0 -960 960 960" width="20"><path d="M480-480Zm-332-90v-146h664v236h-20v-216H168v126h-20Zm0 326v-146h20v126h275v20H148Zm580 128-33-28q-75-66-95.5-89.573Q579-257.146 579-279.89q0-29.363 19.521-49.737Q618.042-350 646.103-350q13.568 0 25.733 6.5Q684-337 698-326l30 27 28-26q15-11 28.223-18 13.222-7 27.18-7 27.688 0 47.142 20.373Q878-309.253 878-280.224 878-257 856.5-232.5 835-208 762-144l-34 28Zm0-28 30.333-25.704Q822-224 840-243.5q18-19.5 18-37.5 0-19.6-13.4-34.3Q831.2-330 812-330q-11.048 0-20.024 4T773-311l-45 43-43.771-43.369Q674-322 664.25-326T644-330q-18 0-32 14.649-14 14.65-14 34.182 0 16.422 20.5 39.296Q639-219 701-168l27 24ZM148-470v-20h84l68 125 147-274h-5.885L521-490h125v20H510l-67-125-148 275h8l-81-150h-74Zm580 233Z"/></svg>