<svg xmlns="http://www.w3.org/2000/svg" height="24" viewBox="0 -960 960 960" width="24"><path d="M120-500v-260h720v294.769q-7.769-2.384-14.885-3.192-7.115-.808-15.115-.808-23 0-45.615 6-22.616 6-44.385 17-14.385-8.846-29.385-14.384-15-5.539-30.615-7.77V-500H532.692l-74.384-148.769q-2.693-4.616-7.693-6.923Q445.615-658 440-658t-10.231 2.308q-4.615 2.307-7.308 6.923L280-365.385l-62.461-123.384q-2.693-5.616-7.308-8.423Q205.615-500 200-500h-80Zm0 300v-260h67.308l74.384 148.769q2.693 5.616 7.693 8.423Q274.385-300 280-300t10.231-2.808q4.615-2.807 7.308-7.653L440-594.615l62.461 123.384q2.693 5.154 6.731 7.962 4.039 2.808 9.423 3.269H584q-56.308 13.693-94.769 62.308-38.462 48.615-38.462 110 0 26.615 5.577 45.884 5.577 19.27 19.731 41.808H120Zm510-173.846q18.539 0 35 8.154 16.462 8.153 32.692 24.23l22.308 20 21.538-19.23q17-16.847 33.462-25 16.461-8.154 35-8.154 34.462 0 59.154 25.461 24.692 25.462 24.692 60.693 0 27.538-23.692 55.654Q846.462-203.923 763.077-132L720-94.615 676.923-132q-83.385-71.923-107.077-100.038-23.692-28.116-23.692-55.654 0-35.231 24.692-60.693 24.692-25.461 59.154-25.461Z"/></svg>