<svg xmlns="http://www.w3.org/2000/svg" height="24" viewBox="0 -960 960 960" width="24"><path d="M278.826-480q0 9-1 18.5t-3 18.5q-3 17 4 32.5t23 21.5q16 6 30.5-1t18.5-23q4-16 6-33t2-34q0-17-2-34t-6-33q-4-16-18.5-23t-30.5-1q-16 6-23 21.5t-4 32.5q2 9 3 18.5t1 18.5Zm140 0q0 24-3 47t-9 45q-5 17 1.5 32t21.5 21q16 7 31.5-.5t20.5-24.5q9-29 13-59t4-61q0-31-4-61t-13-59q-5-17-20.5-24.5t-31.5-.5q-15 6-21.5 21t-1.5 32q6 22 9 45t3 47Zm140 0q0 37-5 72.5t-16 69.5q-5 17 .5 33t21.5 23q16 7 31.5 0t20.5-24q14-42 20.5-85t6.5-89q0-46-6.5-89t-20.5-85q-5-17-20.5-24t-31.5 0q-16 7-21.5 23t-.5 33q11 34 16 69.5t5 72.5ZM480-60.782q-87.522 0-163.906-32.96-76.385-32.96-132.888-89.464-56.504-56.503-89.464-132.888Q60.782-392.478 60.782-480t32.96-163.906q32.96-76.385 89.464-132.888 56.503-56.504 132.888-89.464 76.384-32.96 163.906-32.96t163.906 32.96q76.385 32.96 132.888 89.464 56.504 56.503 89.464 132.888 32.96 76.384 32.96 163.906t-32.96 163.906q-32.96 76.385-89.464 132.888-56.503 56.504-132.888 89.464Q567.522-60.782 480-60.782Zm0-106.001q131.739 0 222.478-90.739T793.217-480q0-131.739-90.739-222.478T480-793.217q-131.739 0-222.478 90.739T166.783-480q0 131.739 90.739 222.478T480-166.783ZM480-480Z"/></svg>