<svg xmlns="http://www.w3.org/2000/svg" height="20" viewBox="0 -960 960 960" width="20"><path d="M290.826-480q0 8.667-.714 17.815-.714 9.148-2.143 17.815-2.143 16.37 4.357 29.87t20.5 19q14 5.5 27.5-.5t16.5-20.788q3-14.788 4.5-30.5t1.5-32.712q0-17-1.5-32.712-1.5-15.712-4.5-30.5t-16.5-21.288q-13.5-6.5-27.5-1t-20.5 19.5q-6.5 14-4.357 30.37 1.429 8.667 2.143 17.815.714 9.148.714 17.815Zm144 0q0 23.657-3 46.329-3 22.671-9 43.671-4 15 1.5 29.5t19.049 19.577Q457.826-335 471.326-342t18.5-21q8-27 12.5-56.67 4.5-29.671 4.5-60.33t-4.5-60.33q-4.5-29.67-12.5-56.67-5-14-18.5-21t-27.951-1.077Q429.826-614 424.326-599.5q-5.5 14.5-1.5 29.5 6 21 9 43.671 3 22.672 3 46.329Zm144-.021q0 38.021-6 74.521t-17 68.5q-5 14 .5 28.5t19.5 20q14 5.5 28.5-2t19.237-22.771q13.263-37.729 20.263-79.763 7-42.033 7-87 0-44.966-7-86.966-7-42-20.263-79.729Q618.826-662 604.326-669.5q-14.5-7.5-28.5-2t-19.5 20q-5.5 14.5-.5 28.5 11 32 17 68.479 6 36.48 6 74.5Zm-98.55 403.24q-83.798 0-157.182-31.461-73.385-31.46-128.388-86.464-55.004-55.003-86.464-128.346t-31.46-157.406q0-84.064 31.46-156.948 31.46-72.885 86.464-127.888 55.003-55.004 128.346-86.464t157.406-31.46q84.064 0 156.948 31.46 72.885 31.46 127.888 86.464 55.004 55.003 86.464 128.112t31.46 156.906q0 83.798-31.46 157.182-31.46 73.385-86.464 128.388-55.003 55.004-128.112 86.464t-156.906 31.46ZM480-174.784q127.739 0 216.478-88.739T785.217-480q0-127.739-88.739-216.478T480-785.217q-127.739 0-216.478 88.739T174.783-480q0 127.739 88.739 216.478T480-174.783ZM480-480Z"/></svg>