<svg xmlns="http://www.w3.org/2000/svg" height="24" viewBox="0 -960 960 960" width="24"><path d="M743.077-666.154v-14.615q0-6.462 4.846-11.308t11.308-4.846h9.231q5.846 0 10.23 4.384 4.385 4.385 4.385 10.231v16.154h46.154q13.077 0 21.923 8.846Q860-648.462 860-635.385v344.616q0 13.077-8.846 21.923Q842.308-260 829.231-260H696.923q-13.077 0-21.923-8.846-8.846-8.846-8.846-21.923v-344.616q0-13.077 8.846-21.923 8.846-8.846 21.923-8.846h46.154ZM706.154-300H820 706.154Zm-483.33 40q-51.747 0-87.286-35.444Q100-330.889 100-382.692v-246.539q0-28.384 19.654-48.038 19.654-19.654 48.038-19.654 28.385 0 48.039 19.654t19.654 48.038q0 28.385-19.654 48.039t-48.039 19.654q-8.333 0-16.666-2.539-8.334-2.538-15.641-7.615v189q0 36.615 25.346 61.961 25.346 25.346 61.961 25.346 36.616 0 61.962-25.346Q310-346.077 310-382.692v-191.271q0-51.917 35.406-87.438 35.406-35.522 87.154-35.522t87.286 35.154q35.539 35.154 35.539 87.538v246.539q0 28.384-19.654 48.038Q516.077-260 487.692-260q-28.384 0-48.038-19.654Q420-299.308 420-327.692q0-28.385 19.654-48.039t48.038-19.654q8.334 0 16.667 2.539 8.333 2.538 15.641 7.615v-189q0-36.615-25.346-61.961-25.346-25.346-61.962-25.346-36.615 0-61.961 25.346-25.346 25.346-25.346 61.961v191.271q0 51.917-35.407 87.438Q274.572-260 222.824-260Zm483.33-40H820v-326.154H706.154V-300Z"/></svg>