<svg xmlns="http://www.w3.org/2000/svg" height="20" viewBox="0 -960 960 960" width="20"><path d="M698.261-676.522v-23.782q0-10.826 7.035-17.522 7.035-6.696 17.748-6.696h55.478q10.826 0 17.522 6.696 6.696 6.696 6.696 17.522v23.782h19.478q22.322 0 37.422 15.1 15.1 15.1 15.1 37.422v340.522q0 22.082-15.1 37.019-15.1 14.938-37.422 14.938h-144q-22.082 0-37.019-14.938-14.938-14.937-14.938-37.019V-624q0-22.322 14.938-37.422 14.937-15.1 37.019-15.1h20.043ZM706.74-312h87.521-87.521Zm-475.133 85.001q-60.524 0-103.436-42.95-42.91-42.949-42.91-103.529V-648q0-33.657 23.473-57.068t57.217-23.411q33.745 0 57.288 23.474 23.544 23.473 23.544 57.217 0 33.745-23.807 57.006-23.806 23.261-57.237 23.261 2.073 0 4.145.282 2.073.283 4.334 1.413v192.348q0 23.141 17.239 40.049 17.239 16.907 40.282 16.907 23.043 0 40.282-16.907 17.239-16.908 17.239-40.049V-582q0-60.58 42.911-103.529 42.912-42.95 103.436-42.95 60.523 0 103.567 42.95Q582.218-642.58 582.218-582v274.522q0 33.657-23.474 57.068-23.473 23.411-57.217 23.411-33.745 0-57.006-23.474-23.261-23.473-23.261-57.217 0-33.745 23.705-57.288 23.705-23.544 57.774-23.544-1.739 0-3.478-.283-1.74-.282-5.001-1.413V-582q0-23.043-17.239-40.282-17.239-17.239-40.851-17.239t-40.499 16.659Q378.783-606.203 378.783-582v208.522q0 60.58-43.326 103.529-43.327 42.95-103.85 42.95ZM706.74-312h87.521v-283.478H706.74V-312Z"/></svg>