<svg xmlns="http://www.w3.org/2000/svg" height="24" viewBox="0 -960 960 960" width="24"><path d="M722.261-684.522v-13.782q0-10.826 8.035-18.522 8.035-7.696 18.748-7.696h35.478q10.826 0 18.522 7.696 7.696 7.696 7.696 18.522v13.782h35.478q18.922 0 31.722 12.8T890.74-640v364.522q0 18.682-12.8 31.319-12.8 12.638-31.722 12.638h-160q-18.682 0-31.319-12.638-12.638-12.637-12.638-31.319V-640q0-18.922 12.638-31.722 12.637-12.8 31.319-12.8h36.043ZM212.607-226.999q-60.524 0-101.936-41.45-41.41-41.449-41.41-102.029V-640q0-36.957 25.76-62.718 25.761-25.761 62.718-25.761 36.957 0 63 25.761 26.044 25.761 26.044 62.718 0 36.957-26.157 62.718-26.156 25.761-62.887 25.761-2.927 0-5.855-.718-2.927-.717-5.666-1.587v183.348q0 28.141 19.239 47.049 19.239 18.907 47.282 18.907 28.043 0 47.282-18.907 19.239-18.908 19.239-47.049V-585q0-60.58 41.411-102.029 41.412-41.45 101.936-41.45 60.523 0 102.067 41.45Q566.218-645.58 566.218-585v269.522q0 36.957-25.761 62.718-25.761 25.761-62.718 25.761-36.957 0-62.718-25.761-25.761-25.761-25.761-62.718 0-36.957 25.761-63 25.761-26.044 62.718-26.044 2.927 0 5.855.717 2.927.718 5.666 1.587V-585q0-28.043-19.239-47.282-19.239-19.239-47.351-19.239t-46.999 19.239Q356.783-613.043 356.783-585v214.522q0 60.58-41.826 102.029-41.827 41.45-102.35 41.45Z"/></svg>