<svg xmlns="http://www.w3.org/2000/svg" height="20" viewBox="0 -960 960 960" width="20"><path d="M719.077-658.154v-24.615q0-6.462 3.846-10.308t10.308-3.846h29.231q5.846 0 9.23 3.384 3.385 3.385 3.385 9.231v26.154h30.154q16.477 0 27.623 11.146T844-619.385v320.616q0 16.477-11.146 27.623T805.231-260H688.923q-16.477 0-27.623-11.146t-11.146-27.623v-320.616q0-16.477 11.146-27.623t27.623-11.146h30.154ZM241.824-260q-51.747 0-88.786-36.944Q116-333.889 116-385.692v-251.539q0-25.084 17.366-42.388t42.539-17.304q25.172 0 42.326 17.366t17.154 42.539q0 25.172-17.304 42.326t-42.389 17.154q-3.333 0-6.666-1.539-3.334-1.538-5.641-4.615v198q0 31.615 23.346 54.961t54.961 23.346q31.616 0 54.962-23.346Q320-354.077 320-385.692v-185.271q0-51.917 36.906-88.938 36.906-37.022 88.654-37.022t88.786 36.654q37.039 36.654 37.039 89.038v251.539q0 25.084-17.367 42.388Q536.652-260 511.48-260q-25.172 0-42.326-17.366T452-319.905q0-25.172 17.598-42.326 17.597-17.154 43.094-17.154 3.667 0 7.334 1.539 3.666 1.538 4.974 4.615v-198q0-31.615-23.346-54.961t-55.462-23.346q-32.115 0-55.461 22.766-23.346 22.766-23.346 55.541v185.271q0 51.917-36.907 88.938Q293.572-260 241.824-260Z"/></svg>