<svg xmlns="http://www.w3.org/2000/svg" height="20" viewBox="0 -960 960 960" width="20"><path d="M480-432q-20 1-34-13.5T432-480q0-20 14-34t34-14q20 0 34 14t14 34q0 20-14 34t-34 14Zm.134 296q-70.673 0-133.41-26.839-62.737-26.84-109.865-73.922-47.127-47.082-73.993-109.757Q136-409.194 136-479.866q0-71.673 26.839-133.91 26.84-62.237 73.922-109.365 47.082-47.127 109.757-73.993Q409.194-824 479.866-824q71.673 0 133.91 26.839 62.237 26.84 109.365 73.922 47.127 47.082 73.993 109.257Q824-551.806 824-480.134q0 70.673-26.839 133.41-26.84 62.737-73.922 109.865-47.082 47.127-109.257 73.993Q551.806-136 480.134-136ZM480-168q130 0 221-91t91-221q0-130-91-221t-221-91q-130 0-221 91t-91 221q0 130 91 221t221 91Zm0-312ZM341.846-322.077l194.231-92q4.462-1.231 7.038-3.807 2.577-2.577 3.808-7.039l92-194.231q4.77-9-2.692-16.385-7.462-7.384-17.077-3.384l-195.231 92q-4.462 1.231-7.039 3.808-2.576 2.576-3.807 7.038l-91 194.231q-4.77 9.769 2.615 17.154t17.154 2.615Z"/></svg>