<svg xmlns="http://www.w3.org/2000/svg" height="24" viewBox="0 -960 960 960" width="24"><path d="M480-440q-17 0-28.5-11.5T440-480q0-17 11.5-28.5T480-520q17 0 28.5 11.5T520-480q0 17-11.5 28.5T480-440Zm0 379.218q-87.522 0-163.906-32.96-76.385-32.96-132.888-89.464-56.504-56.503-89.464-132.888Q60.782-392.478 60.782-480t32.96-163.906q32.96-76.385 89.464-132.888 56.503-56.504 132.888-89.464 76.384-32.96 163.906-32.96t163.906 32.96q76.385 32.96 132.888 89.464 56.504 56.503 89.464 132.888 32.96 76.384 32.96 163.906t-32.96 163.906q-32.96 76.385-89.464 132.888-56.503 56.504-132.888 89.464Q567.522-60.782 480-60.782Zm0-106.001q131.739 0 222.478-90.739T793.217-480q0-131.739-90.739-222.478T480-793.217q-131.739 0-222.478 90.739T166.783-480q0 131.739 90.739 222.478T480-166.783Zm0 0q-131.739 0-222.478-90.739T166.783-480q0-131.739 90.739-222.478T480-793.217q131.739 0 222.478 90.739T793.217-480q0 131.739-90.739 222.478T480-166.783Zm65.87-218.738q9.391-4.131 16.935-11.674 7.543-7.544 11.674-16.935l106.26-247.174q4.435-9.435-2.783-16.652-7.217-7.218-16.652-2.783L414.13-574.479q-9.391 4.131-16.935 11.674-7.543 7.544-11.674 16.935l-106.26 247.174q-4.435 9.435 2.783 16.652 7.217 7.218 16.652 2.783l247.174-106.26Z"/></svg>