<svg xmlns="http://www.w3.org/2000/svg" height="24" viewBox="0 -960 960 960" width="24"><path d="M288.479-22.477q-43.726 0-74.864-31.138-31.138-31.138-31.138-74.864v-703.042q0-43.726 31.138-74.864 31.138-31.138 74.864-31.138h383.042q43.726 0 74.864 31.138 31.138 31.138 31.138 74.864V-680H671.521v-31.521H288.479v463.042h383.042V-280h106.002v151.521q0 43.726-31.138 74.864-31.138 31.138-74.864 31.138H288.479Zm0-146.002v40h383.042v-40H288.479Zm0-623.042h383.042v-40H288.479v40Zm0 0v-40 40Zm0 623.042v40-40ZM686-440H488.479v71.521q0 17-11.5 28.5t-28.5 11.5q-17 0-28.5-11.5t-11.5-28.5V-440q0-33 23.5-56.5t56.5-23.5H686l-35-36q-11-11-11-27.5t12-28.5q11-11 28-11t28 11l94.391 94.391q15.957 16.162 15.957 37.712 0 21.549-15.957 37.506L708-348q-11 11-27.5 11.5T652-348q-11-11-11.5-27.5T651-404l35-36Z"/></svg>