<svg xmlns="http://www.w3.org/2000/svg" height="20" viewBox="0 -960 960 960" width="20"><path d="M272.479-30.477q-40.426 0-69.214-28.788-28.788-28.788-28.788-69.214v-703.042q0-40.426 28.788-69.214 28.788-28.788 69.214-28.788h415.042q40.426 0 69.214 28.788 28.788 28.788 28.788 69.214V-672h-98.002v-39.521H272.479v463.042h415.042V-288h98.002v159.521q0 40.426-28.788 69.214-28.788 28.788-69.214 28.788H272.479ZM726-444H512.479v87.521q0 15.3-10.29 25.65-10.289 10.35-25.5 10.35-15.21 0-25.71-10.35t-10.5-25.65V-444q0-29.7 21.15-50.85 21.15-21.15 50.85-21.15H726l-32-32q-11-11-11-25.667 0-14.666 11-25.333 11-11 25.5-11t25.5 11l84.529 84.529q14.819 15.024 14.819 34.756 0 19.731-14.957 34.324L745-361q-11 11-25 10.5T695-362q-11-11-11-25.5t11-25.5l31-31Z"/></svg>