<svg xmlns="http://www.w3.org/2000/svg" height="24" viewBox="0 -960 960 960" width="24"><path d="M81.538-153.846V-480h120v326.154h-120Zm464.616 32.308-304.615-89V-480h95.153L630.77-371.539v63.847H510.769l-103.846-37-12.461 30.077 114.769 37.692h316.923v63.077l-280 92.308ZM580-470.923l-223.308-84.462H223.846q11.615-54.846 51.115-94.923 39.5-40.077 105.039-48.769V-820h-60v-40h200q24 0 46.308 6.385 22.308 6.384 41.154 17.692l-29.308 29.308q-13.231-6.462-27.577-9.923Q536.231-820 520-820H420v120.923q73.615 9.385 116.808 61.577Q580-585.308 580-520v49.077Zm129.231-135.231q-25.308 0-42.654-17.346-17.346-17.346-17.346-42.654 0-19.154 13.538-47.769 13.539-28.615 46.462-76.846 32.923 48.231 46.462 76.461 13.538 28.231 13.538 48.154 0 25.308-17.346 42.654-17.346 17.346-42.654 17.346Z"/></svg>