<svg xmlns="http://www.w3.org/2000/svg" height="24" viewBox="0 -960 960 960" width="24"><path d="M604.522-510.957 497.39-551.132q-3.696-40.652-33.391-68.999-29.695-28.348-72.478-28.348-29.608 0-53.386 13.858-23.778 13.857-37.613 36.533H186.825q15.304-56.087 56.5-96.479 41.196-40.391 95.196-53.087v-60.825h-60V-914.48h233.218q36.043 0 71.131 14.109 35.087 14.109 67.435 38.196l-74.523 75.088q-16.261-9.696-32.609-15.544-16.347-5.848-31.652-5.848h-66.999v60.825q69.565 17.392 114.783 74.435 45.217 57.044 45.217 131.74v30.522ZM555.478-33.999l-270.956-76.304v55.174H18.521v-474.48H356.87l336.131 125.087v92.435h200v173.001L555.478-33.999Zm-440-118.088h71.521v-280h-71.521v280Zm438 16 238-74v-22H506.217l-122.739-42 24-76 116.435 38h71.565v-26l-256-94h-54.956v221.696l268.956 74.304ZM370.13-598.088Zm402.285 51.089q-35.806 0-61.284-25.493-25.479-25.492-25.479-61.29 0-26.429 19.544-65.498 19.544-39.068 67.239-108.633 47.131 67.869 66.957 107.571 19.826 39.702 19.826 66.56 0 35.798-25.498 61.29-25.498 25.493-61.305 25.493Z"/></svg>