<svg xmlns="http://www.w3.org/2000/svg" height="24" viewBox="0 -960 960 960" width="24"><path d="m608-524-128-48q-5-35-31-59t-64-24q-27 0-47.915 11.825Q316.169-631.35 304-612H169q14-60 56.5-103t96.5-57v-43h-60v-126h243.386Q543-941 582-924.5q39 16.5 77 44.5l-88 89q-18-11-35-17.5t-31-6.5h-57v43q70 20 115 79t45 135v34ZM552-14 288-89v53H2v-501h354l347 129v102h200v183L552-14ZM112-146h65v-280h-65v280Zm438 16 238-74v-22H501l-121-42 24-76 116 38h72v-26l-256-94h-48v223l262 73ZM371-612Zm410.965 75Q744-537 717-564.025T690-629q0-29.066 21.5-72.033T782-814q48 67 70 111.088 22 44.088 22 73.912 0 37.95-27.035 64.975-27.036 27.025-65 27.025Z"/></svg>