<svg xmlns="http://www.w3.org/2000/svg" height="24" viewBox="0 -960 960 960" width="24"><path d="m601.913-501.174-91.478-34.305q-2.718-44.891-35.185-76.499-32.468-31.609-78.837-31.609-31.565 0-57.491 15.382-25.925 15.382-41.009 40.553h-97.718q16.283-53.153 56.5-91.587 40.218-38.435 94.218-50.153v-74.195h-60v-91h225.592q34.865 0 67.017 12.315 32.152 12.315 60.261 33.467l-64.413 64.653q-14.957-8.718-30.816-14.076-15.858-5.359-32.141-5.359h-74.5v74.195q69.239 15.435 114.62 71.011 45.38 55.576 45.38 129.294v27.913ZM558.087-49l-276.174-77.282v56.804h-251v-454.587h326.609L685.5-401.913v85.261h200v165.5L558.087-49Zm-440-107.652H194.5v-280h-76.413v280Zm438 16 238-74v-22H510.13l-124.043-42 24-76 116.761 38h71.239v-26l-256-94h-60.174v220.717l274.174 75.283Zm-186.609-447ZM765.253-554.5q-34.188 0-58.525-24.343-24.337-24.343-24.337-58.527 0-24.45 18.076-60.594 18.077-36.145 64.794-105.384 46.478 68.522 64.674 104.934 18.196 36.413 18.196 61.044 0 34.184-24.346 58.527Q799.44-554.5 765.253-554.5Z"/></svg>