<svg xmlns="http://www.w3.org/2000/svg" height="24" viewBox="0 -960 960 960" width="24"><path d="m589.999-482.461-59.998-22.307v-17.693q-1.231-53.001-38.808-90.27-37.577-37.27-91.193-37.27-42.231 0-73.77 23.232-31.539 23.231-45.616 59.078h-63.69q14.307-52.924 53.807-91.462 39.5-38.539 99.27-48.385v-102.463h-60v-59.998H520q29 0 55.153 8.692 26.154 8.692 48.077 23.846l-43.153 43.152q-13.616-7.23-28.539-11.461-14.923-4.231-31.538-4.231h-90.001v102.463q71.308 11.692 115.654 65.038 44.346 53.346 44.346 122.5v37.539ZM553.076-88.464l-292.308-83.385v54.923H60.771v-383.073H347.23l308.153 113.846v72.307h197.692v131.537L553.076-88.464Zm-432.307-88.46h80V-440h-80v263.076Zm430.307 25.231 239.539-74.385v-27.769H510.307l-124.615-41.231 18.615-57.152 117 38.384h74.077v-31.385L337.076-440h-76.308v206.153l290.308 82.154Zm-188.23-415.998Zm371.768-15.388q-29.154 0-49.577-20.422-20.423-20.423-20.423-49.577 0-21.077 15.269-52.384 15.269-31.308 54.731-89.922 39.461 58.614 54.73 89.73 15.269 31.115 15.269 52.576 0 29.154-20.423 49.577-20.423 20.422-49.576 20.422Z"/></svg>