<svg xmlns="http://www.w3.org/2000/svg" height="20" viewBox="0 -960 960 960" width="20"><path d="M280-265v-118h155q-5-10-10.477-19.254Q419.045-411.508 418-421H169v-118h249q1.045-9.492 6.523-18.746Q430-567 435-577H265v-118h359q89.225 0 152.112 62.841Q839-569.318 839-480.159 839-391 776.112-328 713.225-265 624-265H280Zm344.412-118Q665-383 693-411.412q28-28.412 28-69T692.794-549q-28.206-28-68.5-28T555.5-548.794q-28.5 28.206-28.5 68.5t28.412 68.794q28.412 28.5 69 28.5ZM121-265v-118h111v118H121Zm509-215Z"/></svg>