<svg xmlns="http://www.w3.org/2000/svg" height="24" viewBox="0 -960 960 960" width="24"><path d="M682.308-120q-7.667 0-12.68-5.002-5.013-5.003-5.013-12.654 0-7.652 5.013-12.69 5.013-5.039 12.68-5.039h82.307V-210h-42.307q-7.667 0-12.68-5.002-5.013-5.003-5.013-12.654 0-7.652 5.013-12.69 5.013-5.039 12.68-5.039h42.307V-300h-82.307q-7.667 0-12.68-5.002-5.013-5.003-5.013-12.654 0-7.652 5.013-12.69 5.013-5.039 12.68-5.039h90q11.769 0 19.731 7.962Q800-319.461 800-307.692v55.384q0 11.77-7.961 19.731-7.962 7.962-19.731 7.962 11.769 0 19.731 7.961Q800-208.692 800-196.923v49.231q0 11.769-7.961 19.731Q784.077-120 772.308-120h-90Zm6.923-252.308q-9.923 0-17.269-7.346-7.347-7.346-7.347-17.269V-470q0-11.769 7.962-19.731 7.962-7.961 19.731-7.961h72.307v-54.616h-82.307q-7.667 0-12.68-5.002-5.013-5.003-5.013-12.654t5.013-12.69q5.013-5.038 12.68-5.038h90q11.769 0 19.731 7.961Q800-571.769 800-560v70q0 11.769-7.961 19.731-7.962 7.961-19.731 7.961H700v54.616h82.308q7.667 0 12.679 5.002Q800-397.687 800-390.036t-5.013 12.69q-5.012 5.038-12.679 5.038h-93.077Zm53.113-252.307q-7.652 0-12.69-5.013-5.039-5.013-5.039-12.68v-162.307h-42.307q-7.667 0-12.68-5.003t-5.013-12.654q0-7.651 5.013-12.69 5.013-5.038 12.68-5.038h53.846q9.923 0 16.885 6.961Q760-826.077 760-816.154v173.846q0 7.667-5.002 12.68-5.003 5.013-12.654 5.013ZM180-220q-8.5 0-14.25-5.758-5.75-5.757-5.75-14.269t5.75-14.242Q171.5-260 180-260h375.385q8.5 0 14.25 5.758 5.75 5.757 5.75 14.269t-5.75 14.242q-5.75 5.731-14.25 5.731H180Zm0-240q-8.5 0-14.25-5.758-5.75-5.757-5.75-14.269t5.75-14.242Q171.5-500 180-500h375.385q8.5 0 14.25 5.758 5.75 5.757 5.75 14.269t-5.75 14.242q-5.75 5.731-14.25 5.731H180Zm0-240q-8.5 0-14.25-5.758-5.75-5.757-5.75-14.269t5.75-14.242Q171.5-740 180-740h375.385q8.5 0 14.25 5.758 5.75 5.757 5.75 14.269t-5.75 14.242q-5.75 5.731-14.25 5.731H180Z"/></svg>