<svg xmlns="http://www.w3.org/2000/svg" height="24" viewBox="0 -960 960 960" width="24"><path d="M723.566-60.782q-15.449 0-25.551-10.064-10.102-10.064-10.102-25.457 0-15.392 10.102-25.588 10.102-10.196 25.551-10.196h64.347v-24.347h-30q-13 0-21.5-8.5t-8.5-21.5q0-13 8.5-21.5t21.5-8.5h30v-24.348h-64.347q-15.449 0-25.551-10.064-10.102-10.064-10.102-25.457 0-15.392 10.102-25.588 10.102-10.196 25.551-10.196h90q19.402 0 32.527 13.126 13.125 13.125 13.125 32.527v34.347q0 19.403-13.125 32.528t-32.527 13.125q19.402 0 32.527 13.125t13.125 32.527v34.348q0 19.402-13.125 32.527t-32.527 13.125h-90Zm3.957-293.566q-17.164 0-28.387-11.222-11.223-11.223-11.223-28.387v-70.391q0-19.402 13.126-32.527Q714.164-510 733.566-510h54.347v-24.348h-64.347q-15.449 0-25.551-10.064-10.102-10.064-10.102-25.457 0-15.392 10.102-25.588 10.102-10.195 25.551-10.195h90q19.402 0 32.527 13.125T859.218-560v64.348q0 19.402-13.125 32.527T813.566-450h-54.348v24.348h64.348q15.449 0 25.551 10.064 10.101 10.064 10.101 25.457 0 15.392-10.101 25.588-10.102 10.195-25.551 10.195h-96.043Zm56.174-293.565q-15.392 0-25.588-10.102-10.196-10.102-10.196-25.551v-150H720.74q-13.566 0-23.196-9.63-9.631-9.631-9.631-23.196 0-13.565 9.631-23.196 9.63-9.63 23.196-9.63h58.869q17.164 0 28.387 11.222 11.222 11.223 11.222 28.387v176.043q0 15.449-10.064 25.551-10.064 10.102-25.457 10.102ZM167.348-186.999q-22.087 0-37.544-15.457-15.456-15.457-15.456-37.544 0-22.087 15.456-37.544 15.457-15.457 37.544-15.457h387.565q22.087 0 37.544 15.457 15.456 15.457 15.456 37.544 0 22.087-15.456 37.544-15.457 15.457-37.544 15.457H167.348Zm0-240q-22.087 0-37.544-15.457-15.456-15.457-15.456-37.544 0-22.087 15.456-37.544 15.457-15.457 37.544-15.457h387.565q22.087 0 37.544 15.457 15.456 15.457 15.456 37.544 0 22.087-15.456 37.544-15.457 15.457-37.544 15.457H167.348Zm0-240q-22.087 0-37.544-15.457-15.456-15.457-15.456-37.544 0-22.087 15.456-37.544 15.457-15.457 37.544-15.457h387.565q22.087 0 37.544 15.457 15.456 15.457 15.456 37.544 0 22.087-15.456 37.544-15.457 15.457-37.544 15.457H167.348Z"/></svg>