<svg xmlns="http://www.w3.org/2000/svg" height="20" viewBox="0 -960 960 960" width="20"><path d="M660-396h-84q-15.3 0-25.65 10.289-10.35 10.29-10.35 25.5Q540-345 550.35-334.5 560.7-324 576-324h97q24.3 0 41.65-17.35Q732-358.7 732-383v-97q0-15.3-10.289-25.65-10.29-10.35-25.5-10.35Q681-516 670.5-505.65 660-495.3 660-480v84ZM300-564h84q15.3 0 25.65-10.289 10.35-10.29 10.35-25.5Q420-615 409.65-625.5 399.3-636 384-636h-97q-24.3 0-41.65 17.35Q228-601.3 228-577v97q0 15.3 10.289 25.65 10.29 10.35 25.5 10.35Q279-444 289.5-454.35 300-464.7 300-480v-84ZM180-158q-49.7 0-83.85-34.162Q62-226.324 62-276.04v-408.243Q62-734 96.15-768T180-802h600q49.7 0 83.85 34.162Q898-733.676 898-683.96v408.243Q898-226 863.85-192T780-158H180Z"/></svg>