<svg xmlns="http://www.w3.org/2000/svg" height="20" viewBox="0 -960 960 960" width="20"><path d="M692-364H588q-6.8 0-11.4 4.547-4.6 4.547-4.6 11.269 0 6.723 4.6 11.453Q581.2-332 588-332h107.692q12.031 0 20.17-8.138 8.138-8.139 8.138-20.17V-468q0-6.8-4.547-11.4-4.547-4.6-11.269-4.6-6.723 0-11.453 4.6Q692-474.8 692-468v104ZM268-596h104q6.8 0 11.4-4.547 4.6-4.547 4.6-11.269 0-6.723-4.6-11.453Q378.8-628 372-628H264.308q-12.031 0-20.17 8.138-8.138 8.139-8.138 20.17V-492q0 6.8 4.547 11.4 4.547 4.6 11.269 4.6 6.723 0 11.453-4.6Q268-485.2 268-492v-104Zm-75.385 364q-24.315 0-40.465-16.162Q136-264.324 136-288.656v-383.012Q136-696 152.15-712t40.465-16h574.77q24.315 0 40.465 16.162Q824-695.676 824-671.344v383.012Q824-264 807.85-248t-40.465 16h-574.77Z"/></svg>