<svg xmlns="http://www.w3.org/2000/svg" height="20" viewBox="0 -960 960 960" width="20"><path d="M336-96q-69.72 0-118.86-49.14T168-264v-384H96v-216h480v216h-72v152q-33 20-58.5 48.5T405-384h-69v-72h96v-48h-96v-72h96v-72H240v384q0 40 28 68t68 28q20.25 0 37.125-7.5T403-196q8 17 17 33t21 30q-22 17-48.308 27T336-96Zm0-168v-72h54q-4 18-5 36t1 36h-50ZM168-720h336v-72H168v72Zm0 0v-72 72Zm455.775 528Q664-192 692-219.775q28-27.774 28-68Q720-328 692.225-356q-27.774-28-68-28Q584-384 556-356.225q-28 27.774-28 68Q528-248 555.775-220q27.774 28 68 28ZM813-48l-98-98q-20 13-43.5 19.5t-47.733 6.5q-69.903 0-118.835-49Q456-218 456-288t49-119q49-49 119-49t119 48.932q49 48.932 49 118.835 0 24.233-6.5 47.733Q779-217 766-197l98 98-51 51Z"/></svg>