<svg xmlns="http://www.w3.org/2000/svg" height="20" viewBox="0 -960 960 960" width="20"><path d="M336-158.307q-56.312 0-96.002-39.69-39.691-39.69-39.691-96.003v-378.615h-41.23v-159.078h353.846v159.078h-41.23v220.461q-6.847 6.154-15.039 10.039-8.193 3.884-18.577 8.115H356v-32h83.692v-88H356v-32h83.692v-86.615H232.308V-294q0 43.205 30.154 73.449 30.153 30.243 73.23 30.243 22.096 0 40.125-8.269t31.798-21.269q3.605 7.934 7.11 15.775 3.506 7.841 7.044 14.917-18.154 14.693-39.585 22.77-21.432 8.077-46.184 8.077ZM356-314v-32h47.077q-3.231 8-5.769 15.616-2.539 7.615-4.385 16.384H356ZM191.077-704.615h289.846v-95.077H191.077v95.077Zm0 0v-95.077 95.077Zm432.698 524.923q44.84 0 76.686-31.621 31.847-31.621 31.847-76.462 0-44.84-31.621-76.686-31.621-31.847-76.462-31.847-44.84 0-76.686 31.621-31.847 31.621-31.847 76.462 0 44.84 31.621 76.686 31.621 31.847 76.462 31.847ZM813-76.462 711.923-177.537Q693.462-163 670.461-155.346q-23.002 7.654-46.694 7.654-58.365 0-99.22-40.923T483.692-288q0-58.462 40.923-99.385T624-428.308q58.462 0 99.385 40.855t40.923 99.22q0 23.692-7.654 46.694-7.654 23.001-22.192 41.462L835.539-99 813-76.461Z"/></svg>