<svg xmlns="http://www.w3.org/2000/svg" height="24" viewBox="0 -960 960 960" width="24"><path d="M320-111.156q-76.296 0-130.07-53.775-53.775-53.774-53.775-130.07v-357.308H71.541v-211.536h496.918v211.536h-64.614l-.385 155.234q-28.922 20.076-49.575 48.46-20.653 28.384-30.345 63.613h-93.539V-445h113.845v-60.002H330.001V-565h113.845v-87.309H196.154v357.308q0 51.603 36.077 87.724 36.077 36.122 87.615 36.122 30.923 0 56.5-13.384 25.577-13.385 42.962-36.385 5.802 15.467 13.054 29.387 7.253 13.92 17.022 27.458-25.077 24.846-58.139 38.884-33.061 14.039-71.245 14.039Zm10.001-153.846V-325h77.538q-1.615 14.999-.885 29.807.731 14.807 3.808 30.191h-80.461ZM660-193.846q44.308 0 75.231-30.923 30.923-30.923 30.923-75.231 0-44.308-30.923-75.231-30.923-30.923-75.231-30.923-44.308 0-75.231 30.923-30.923 30.923-30.923 75.231 0 44.308 30.923 75.231 30.923 30.923 75.231 30.923ZM864-54.232 754.461-163.77q-21.23 14.769-44.981 22.346-23.75 7.577-49.48 7.577-69.23 0-117.692-48.461Q493.847-230.77 493.847-300q0-69.23 48.461-117.692Q590.77-466.153 660-466.153q69.23 0 117.692 48.461Q826.153-369.23 826.153-300q0 25.73-7.577 49.48-7.577 23.751-22.346 44.981L905.768-96 864-54.232Z"/></svg>