<svg xmlns="http://www.w3.org/2000/svg" height="20" viewBox="0 -960 960 960" width="20"><path d="M738-184q-93.077 0-191.231-46.769T363.077-363.077q-84.77-85.538-131.923-184.846Q184-647.231 184-739v-38h162.539l34.923 132.308-110.847 103.384q28.385 47.462 57.193 86.693 28.807 39.23 59.027 69.752 30.627 32.632 69.396 60.824 38.769 28.193 91.307 58.577L656-374.769l120 25.23V-184h-38ZM256.846-570.846l89.692-83.769L322.903-745H215.231q.154 38.769 10.307 83.192 10.154 44.423 31.308 90.962Zm325 315.384q26.923 15.539 71.577 26.924 44.654 11.384 90.577 14.076v-110.153l-76.538-16-85.616 85.153Zm-325-315.384Zm325 315.384ZM653-550.538 484.307-721.462q34.77-24.307 82.501-41.461 47.73-17.154 86.13-17.154 38.293 0 87.408 16.769 49.116 16.769 82.116 40.308L653-550.538Zm0-46.078 114.846-116.615Q732.538-731.923 705.538-740q-27-8.077-52.538-8.077-26.769 0-54.269 8.077t-60.808 27.538L653-596.616Zm0 0Z"/></svg>