<svg xmlns="http://www.w3.org/2000/svg" height="24" viewBox="0 -960 960 960" width="24"><path d="M797.043-111.869q-125 0-249.054-54.957Q423.935-221.782 322.5-322.739 221.065-423.935 166.467-546.772q-54.598-122.837-54.598-250.032v-51.327h254.175l40.587 212.001-120.696 117.152q20.804 36.608 46.489 69.576 25.685 32.967 55.489 61.772 27.804 27.565 60.033 52.51 32.228 24.946 68.88 46.272L638.804-409.87l209.327 44.109v253.892h-51.088ZM669.805-540.478l-223.631-224.87q53.109-39.674 109.511-59.554 56.402-19.881 114.12-19.881 56.956 0 113.337 20.5 56.38 20.5 109.771 60.696L669.805-540.478Z"/></svg>