<svg xmlns="http://www.w3.org/2000/svg" height="20" viewBox="0 -960 960 960" width="20"><path d="M304-136v-153.461q-57-48-88.5-110.955Q184-463.37 184-529.556q0-122.685 86.625-208.565Q357.25-824 481-824q92.077 0 169.846 50.807 77.77 50.808 102.693 130.962L820.462-424H728v192H560v96h-32v-128h168v-192h80l-52-173q-22-72.769-90.269-117.885Q565.462-792 481-792q-111 0-188 76.854-77 76.853-77 186.915 0 58.732 25 111.59 25 52.858 70 90.72L336-304v168h-32Zm192-328Zm-23.719 120.308q12.411 0 19.834-7.993 7.424-7.992 7.424-19.808 0-11.815-7.397-19.738-7.396-7.923-19.807-7.923-12.412 0-19.835 7.821t-7.423 19.383q0 11.987 7.396 20.122 7.396 8.136 19.808 8.136Zm-15.896-103.539H489q0-23.077 8.154-39.346 8.154-16.269 31.154-35.5 22.231-20.231 31.692-38.962 9.462-18.73 9.462-36.346 0-36.637-27.385-61.934-27.385-25.297-67.769-25.297-32.077 0-57.577 16.116-25.5 16.115-38.27 45.423l28.924 13.538q9.747-19.563 27.962-31.358 18.215-11.795 38.996-11.795 25.58 0 43.926 16.934 18.346 16.935 18.346 42.373 0 21.539-15.653 35.654-15.654 14.115-29.885 28.115-22 20.231-28.346 39.731t-6.346 42.654Z"/></svg>