<svg xmlns="http://www.w3.org/2000/svg" height="20" viewBox="0 -960 960 960" width="20"><path d="M234-66v-192q-56-52-88-123.569-32-71.57-32-147.431 0-152.083 106.951-258.542Q327.903-894 480.691-894 600-894 695-829t126 169l90 306H798v192H630v96H512v-214h168v-192h76l-47-153q-22-65-85.5-108T481-776q-104.371 0-176.686 71.968Q232-632.065 232-529q0 54.929 23.5 105.964Q279-372 322-338l30 27v245H234Zm260-355Zm-24 117q22 0 35-13.971 13-13.972 13-34.625 0-20.654-13.5-34.529Q491-401 469.825-401q-21.176 0-34.5 13.75Q422-373.501 422-353.175q0 20.75 13.375 34.963Q448.75-304 470-304Zm-39-134h78q0-35 8-52t36-42q31-28 34.5-47t3.5-33q0-45.36-34.974-76.68Q521.052-720 471.66-720q-42.66 0-76.16 25.5T348-624l70 29q7.671-22.102 22.16-36.051Q454.649-645 472.035-645q16.651 0 28.308 11T512-608q0 12-9.5 22.5T475-557q-30 29-37 54t-7 65Z"/></svg>