<svg xmlns="http://www.w3.org/2000/svg" height="24" viewBox="0 -960 960 960" width="24"><path d="M223.043-63.043v-181.609q-56.435-54.261-88.218-126.022Q103.043-442.435 103.043-520q0-157.066 109.895-267.011 109.894-109.946 266.887-109.946 130.827 0 231.849 77.174 101.022 77.174 131.718 200.826l69.653 275.914H776.957v200h-160v80H510.956v-186.001h160v-200h105.739l-35.174-143.695q-23-87.043-95.739-142.63Q573.043-790.956 480-790.956q-112.253 0-191.605 78.365Q209.044-634.226 209.044-522q0 57.739 23.652 110.609 23.652 52.869 67.522 92.608l28.826 26.826v228.914H223.043ZM492.87-426.999Zm-18.522 125.087q19.826 0 32.739-13.125Q520-328.162 520-347.565q0-19.402-13.196-32.527-13.195-13.125-32.556-13.125-19.36 0-32.456 13.097-13.097 13.096-13.097 32.456 0 19.36 13.125 32.556 13.125 13.196 32.528 13.196Zm-35.653-134.783H511q0-27.826 7.065-44.174t29.892-41.174q22.522-23.957 35.282-44.174Q596-586.435 596-614.348q0-44.374-34.181-75.013Q527.638-720 477.155-720q-42.068 0-76.264 25.261t-48.326 66.783l65.174 26.957q7.565-22.566 23.829-36.631 16.263-14.065 35.78-14.065 19.561 0 32.454 10.587t12.893 26.76q0 16.478-9.674 30.718-9.673 14.239-28.369 33.5-24.522 25.521-35.24 49.63-10.717 24.109-10.717 63.805Z"/></svg>