<svg xmlns="http://www.w3.org/2000/svg" height="20" viewBox="0 -960 960 960" width="20"><path d="M234-66v-192q-56-52-88-123.5T114-529q0-152.5 107.16-258.75T480.691-894Q600-894 695-829t126 169l90 306H798v192H630v96H234Zm236-238q22 0 35-13.875T518-353q0-20.25-13.5-34.125T469.825-401q-21.176 0-34.5 13.825-13.325 13.824-13.325 34Q422-332 435.375-318 448.75-304 470-304Zm-39-134h78q0-35 8-52t36-42q31-28 34.5-47t3.5-33q0-45.2-34.974-76.6Q521.052-720 471.66-720q-42.66 0-76.16 25.5T348-624l70 29q8-22 22.312-36 14.313-14 31.688-14 16.686 0 28.343 11T512-608q0 12-9.5 22.5T475-557q-30 29-37 54t-7 65Z"/></svg>