<svg xmlns="http://www.w3.org/2000/svg" height="24" viewBox="0 -960 960 960" width="24"><path d="M670.769-120q-69.923 0-119.577-49.654-49.654-49.654-49.654-119.577t49.654-119.577q49.654-49.654 119.577-49.654t119.577 49.654Q840-359.154 840-289.231t-49.654 119.577Q740.692-120 670.769-120Zm-5.23-60.231q28.615 1 50.653-13.577 22.039-14.576 41.193-35.961-28.616-5.462-51.885-17.039-23.269-11.577-37.961-35.961-14.693-24.385-12.577-50.385 2.115-26 11.577-53.385-33.616 7.231-58.731 22.654-25.116 15.423-36.577 47.27Q561.769-290 566-265.231q4.231 24.77 22.154 46.923 14.692 18.154 33.846 28 19.154 9.847 43.539 10.077ZM405.384-120l-14.461-115.692q-22.231-6.539-42.192-18.154-19.962-11.615-37.116-26.538L204.923-235l-74.616-130 92.231-69.539q-1.769-10.846-2.923-21.961-1.154-11.115-1.154-22.731 0-11.615 1.154-23.115 1.154-11.5 2.923-23.115L130.307-595l74.616-128.462 105.923 44.616q17.923-14.923 37.5-26.539 19.577-11.615 41.808-18.923L405.384-840h149.232l14.461 116.461q21.462 7.308 40.654 18.539 19.192 11.231 36.346 26.154l109-44.616L829.693-595l-74 56q-20.77-7.308-42-11.077-21.231-3.769-42.924-3.769-27.692 0-53.884 6.577t-51.346 17.73q-12.846-23-36.5-36.73Q505.385-580 478.923-580q-41.846 0-70.923 29.077-29.077 29.077-29.077 70.923 0 26.462 13.115 49.616 13.116 23.153 35.885 36.769-12.154 28.461-16.577 58.807-4.423 30.347-4.423 61.346 2.538 42.154 17.885 81.885 15.346 39.731 43.038 71.577h-62.462Z"/></svg>