<svg xmlns="http://www.w3.org/2000/svg" height="24" viewBox="0 -960 960 960" width="24"><path d="M708.262-60.782q-90.348 0-153.935-63.587T490.74-278.304q0-90.348 63.587-153.653 63.587-63.305 153.935-63.305 90.349 0 153.653 63.305 63.305 63.305 63.305 153.653 0 90.348-63.305 153.935-63.304 63.587-153.653 63.587Zm-6.565-77.217q36.826 1 64.87-16.348 28.044-17.348 52.174-46.74-36.261-7.565-66.305-22.195-30.043-14.631-48.739-46.457-18.696-31.826-16.196-65.37 2.5-33.543 15.196-68.37-42.391 7.435-75.718 28.479-33.326 21.043-47.456 61.87-12.131 34.26-6.283 66.087 5.848 31.826 28.544 60.087 18.695 24.261 43.956 36.109 25.261 11.848 55.957 12.848ZM353.608-60.782l-17.131-134.217q-8.478-3.305-16.304-8.044-7.825-4.739-15.434-9.912l-124.652 52.826L53.129-380.652l107.522-81.392q-.435-4.739-.435-8.978v-17.956q0-4.239.435-8.978L53.129-579.348 180.087-798.74l125.783 52.261q7.608-5.174 14.869-9.63 7.26-4.457 15.738-7.761l17.131-135.348h252.784l17.131 135.348q8.478 3.304 16.304 7.761 7.825 4.456 15.434 9.63l124.652-52.261 126.958 219.392-54.782 41.304q-32.826-18.391-68.783-27.805-35.956-9.413-74.478-9.413-28.479 0-55.74 6.327-27.262 6.326-53.61 16.978-19-31.304-50.652-49.673Q517.174-620 480.304-620q-58 0-99 41t-41 99q0 40.826 21.892 74.522 21.891 33.696 58.413 51.565-5.435 18.304-7.652 37.543-2.217 19.24-2.217 37.979.434 62.217 24.761 118.935 24.326 56.718 69.978 98.674H353.608Z"/></svg>