<svg xmlns="http://www.w3.org/2000/svg" height="20" viewBox="0 -960 960 960" width="20"><path d="M372-213.137 252-451v-146.838q0-13.147 8.625-21.655Q269.25-628 282-628h10v-84q0-27.65 18.175-45.825Q328.35-776 356.332-776h247.336q27.982 0 46.157 18.175Q668-739.65 668-712v84h10q12.75 0 21.375 8.507Q708-610.985 708-597.838V-451L588-213.137v49.288q0 12.599-9.625 22.224T556.248-132H403.752q-12.502 0-22.127-9.625Q372-151.25 372-163.849v-49.288ZM323-628h84v-65.232q0-5.242 4.2-8.505Q415.4-705 421-705q5.6 0 9.3 3.9 3.7 3.9 3.7 9.1v64h91v-64q0-5.474 4.2-9.237T539-705q5.6 0 9.8 4.2 4.2 4.2 4.2 9.8v63h84v-84q0-14-9-23t-23-9H355q-14 0-23 9t-9 23v84Zm81 464h152v-58l120-235.579V-595H284v137.421L404-222v58Zm76-216Z"/></svg>