<svg xmlns="http://www.w3.org/2000/svg" height="20" viewBox="0 -960 960 960" width="20"><path d="m300.782-181.918-120-237.864v-221.056q0-17.07 11.5-28.116t28.5-11.046v-119.391q0-45.955 32.023-77.979 32.023-32.023 77.978-32.023h298.434q45.955 0 77.978 32.023 32.023 32.024 32.023 77.979V-680q17 0 28.5 11.046t11.5 28.116v221.056l-120 237.864v76.461q0 21.936-16.456 38.393-16.457 16.457-38.296 16.457H355.534q-21.839 0-38.296-16.457-16.456-16.457-16.456-38.393v-76.461ZM330.783-680h63.434v-52.449q0-11.16 7.696-17.855Q409.609-757 421-757t18.587 7.396q7.196 7.396 7.196 18.387V-680h65.434v-51.217q0-11.392 7.696-18.587Q527.609-757 539-757t19.087 7.696q7.696 7.695 7.696 19.087V-680h63.434v-119.391H330.783V-680Z"/></svg>