<svg xmlns="http://www.w3.org/2000/svg" height="24" viewBox="0 -960 960 960" width="24"><path d="M423.848-115.387V-249l329.46-328.614L885.306-445.77 555.538-115.387h-131.69Zm324.383-277.229L800-445.386l-45.923-47.692-53.154 53.154 47.308 47.308ZM430-588.846l-42.153-42.768 83.386-83.001H310.692q-7.461 23.692-24.538 40.769-17.077 17.077-40.769 24.538v338.616q30.384 9.923 50.192 35.807 19.807 25.884 19.807 59.499 0 41.538-29.23 70.768-29.23 29.231-70.768 29.231t-70.768-29.231q-29.231-29.23-29.231-70.768 0-33.615 19.808-59.191 19.807-25.577 50.191-35.5v-339.231q-30.384-9.923-50.191-35.807-19.808-25.884-19.808-59.499 0-41.538 29.231-70.768 29.23-29.231 70.768-29.231 33.615 0 59.499 19.808 25.884 19.807 35.807 50.191h160.541l-83.386-83L430-900.382l155.768 155.768L430-588.846Zm314.614-255.767q41.538 0 70.768 29.231 29.231 29.23 29.231 70.768t-29.231 70.768q-29.23 29.23-70.768 29.23t-70.768-29.23q-29.23-29.23-29.23-70.768t29.23-70.768q29.23-29.231 70.768-29.231Z"/></svg>