<svg xmlns="http://www.w3.org/2000/svg" height="20" viewBox="0 -960 960 960" width="20"><path d="M455.848-131.387V-246l296.46-296.614L865.306-428.77 568.538-131.387h-112.69Zm291.383-252.229L792-428.386l-38.923-40.692-46.154 46.154 40.308 39.308ZM420-586.846l-37.153-36.768 79.386-79.001H327.692q-8.461 24.692-26.538 42.769-18.077 18.077-43.769 26.538v304.616q31.384 10.923 52.692 37.307 21.307 26.384 21.307 59.999 0 41.538-29.23 70.768-29.23 29.231-70.768 29.231-41.538-1-70.768-30.231-29.231-29.23-29.231-70.768 0-33.615 21.308-60.191 21.307-26.577 52.691-37.5v-303.231q-31.384-10.923-52.691-36.807-21.308-25.884-21.308-58.499 0-42.538 29.231-71.268 29.23-28.731 70.768-28.731 33.615 0 59.499 20.808 25.884 20.807 36.807 53.191h134.541l-79.386-79L420-870.382l141.768 141.768L420-586.846Zm308.614-242.767q42.538 0 71.268 28.731 28.731 28.73 28.731 71.268t-28.731 71.268q-28.73 28.73-71.268 28.73t-71.268-28.73q-28.73-28.73-28.73-71.268t28.73-71.268q28.73-28.731 71.268-28.731Z"/></svg>