<svg xmlns="http://www.w3.org/2000/svg" height="20" viewBox="0 -960 960 960" width="20"><path d="M439.348-75.651v-161.392l323.653-323.218 159.957 161.392L600.74-75.651H439.348ZM805.74-401l-39.478-38.044 39.478 38.044ZM526.045-162.348h39.478l138.26-138.26-17.739-16.739-20.739-21.739-139.26 137.695v39.043Zm159.999-154.999-20.739-21.739 20.739 21.739 17.739 16.739-17.739-16.739ZM426.218-569.912 356.565-639l55.999-55.999h-65.607q-11.27 27.218-32.613 48.24-21.343 21.021-49.343 32.716v266.086q39.956 16.826 65.652 52.153 25.696 35.327 25.696 79.804 0 58.479-40.935 99.414T216-75.651q-58.479-1-99.414-41.935T75.651-217q0-44.087 25.696-79.892 25.696-35.804 65.652-52.631v-264.52q-39.956-16.826-65.652-51.848Q75.651-700.913 75.651-744q0-59.479 40.935-99.914T216-884.349q44.087 0 79.109 25.196 35.022 25.196 51.848 66.152h65.607L356.565-849l69.653-69.088L600.871-744 426.218-569.912ZM744-885.349q59.479 0 99.914 40.435T884.349-745q0 59.479-40.435 99.914T744-604.651q-59.479 0-99.914-40.435T603.651-745q0-59.479 40.435-99.914T744-885.349ZM216.283-174.652q17.856 0 29.96-12.387 12.105-12.387 12.105-30.244 0-17.856-12.175-29.96-12.175-12.105-30.173-12.105-17.574 0-29.961 12.175-12.387 12.175-12.387 30.173 0 17.574 12.387 29.961 12.387 12.387 30.244 12.387Zm0-527q17.856 0 29.96-12.387 12.105-12.387 12.105-30.244 0-17.856-12.175-29.96-12.175-12.105-30.173-12.105-17.574 0-29.961 12.175-12.387 12.175-12.387 30.173 0 17.574 12.387 29.961 12.387 12.387 30.244 12.387Zm528-1q17.856 0 29.96-12.387 12.105-12.387 12.105-30.244 0-17.856-12.175-29.96-12.175-12.105-30.173-12.105-17.574 0-29.961 12.175-12.387 12.175-12.387 30.173 0 17.574 12.387 29.961 12.387 12.387 30.244 12.387ZM216-217Zm0-527Zm528-1Z"/></svg>