<svg xmlns="http://www.w3.org/2000/svg" height="24" viewBox="0 -960 960 960" width="24"><path d="M403.109-67.087v-170.935L756.5-589.652l169.174 169.935-351.63 352.63H403.109ZM751.87-366.76l51.956-52.956-47.326-48.087-52.956 52.717 48.326 48.326ZM432.63-582.348 368.739-647l67.5-67.5H320.174q-9.717 26-29.196 45.478-19.478 19.479-45.478 29.196v319.652q36.674 14.196 59.891 46.609 23.218 32.413 23.218 73.565 0 53.587-37.511 91.098-37.511 37.51-91.098 37.51-53.587 0-91.098-37.51-37.51-37.511-37.51-91.098 0-41.152 23.217-73.185t59.891-46.228v-320.413q-36.674-14.196-59.891-46.609Q71.39-718.848 71.39-760q0-53.587 37.511-91.098 37.511-37.511 91.098-37.511 41.152 0 73.565 23.218 32.413 23.217 46.609 59.891h116.065l-67.5-67.5 63.891-64.652L610.522-760 432.63-582.348ZM760-888.609q53.587 0 91.098 37.511 37.511 37.511 37.511 91.098 0 53.587-37.511 91.098-37.511 37.511-91.098 37.511-53.587 0-91.098-37.511-37.511-37.511-37.511-91.098 0-53.587 37.511-91.098 37.511-37.511 91.098-37.511Z"/></svg>