<svg xmlns="http://www.w3.org/2000/svg" height="24" viewBox="0 -960 960 960" width="24"><path d="M321.077-140q-17.385 0-32.308-8.577-14.923-8.577-23.615-23.731L105.461-447.692Q96.769-462.846 96.769-480t8.692-32.308l159.693-275.384q8.692-15.154 23.615-23.731Q303.692-820 321.077-820h317.846q17.385 0 32.308 8.577 14.923 8.577 23.615 23.731l159.693 275.384q8.692 15.154 8.692 32.308t-8.692 32.308L694.846-172.308q-8.692 15.154-23.615 23.731Q656.308-140 638.923-140H321.077Zm-.769-40h318.615q6.154 0 11.923-3.077t9.615-9.231l158.693-275.384Q823-473.846 823-480t-3.846-12.308L660.461-767.692q-3.846-6.154-9.615-9.231T638.923-780H320.308q-6.154 0-11.539 3.077-5.384 3.077-9.23 9.231L139.846-492.308Q136-486.154 136-480t3.846 12.308l159.693 275.384q3.846 6.154 9.23 9.231Q314.154-180 320.308-180ZM480-480Z"/></svg>