<svg xmlns="http://www.w3.org/2000/svg" height="20" viewBox="0 -960 960 960" width="20"><path d="M316.913-238.999q3.217 17 13.5 22.826 10.282 5.825 26.891.173l223.348 13.001q16.608-5.653 33.108-22.501 16.5-16.848 29.892-39.501L746.304-444q13.391-22.652 19.609-45.327 6.217-22.674 3-39.674l-125.826-192q-3.217-17-13.5-22.826-10.282-5.825-26.891-.173l-223.348-13.001q-16.608 5.653-33.108 22.501-16.5 16.848-29.892 39.501L213.696-516q-13.391 22.652-19.609 45.327-6.217 22.674-3 39.674l125.826 192Z"/></svg>