<svg xmlns="http://www.w3.org/2000/svg" height="20" viewBox="0 -960 960 960" width="20"><path d="M310.539-262.001q12.307 17 30.346 27.462 18.039 10.461 39.193 12.385l217.153 2.308q21.154 1.923 37.654-5.654 16.5-7.577 25.346-22.654l108.847-189.692q8.846-15.076 7.307-33.115-1.539-18.038-13.846-35.038l-113.078-192q-12.307-17-30.346-27.462-18.039-10.461-39.193-12.385l-217.153-2.308q-21.154-1.923-37.654 5.654-16.5 7.577-25.346 22.654L190.922-522.154q-8.846 15.076-7.307 33.115 1.539 18.038 13.846 35.038l113.078 192Z"/></svg>