<svg xmlns="http://www.w3.org/2000/svg" height="24" viewBox="0 -960 960 960" width="24"><path d="M480-252q95 0 161.5-66.5T708-480q0-95-66.5-161.5T480-708q-95 0-161.5 66.5T252-480q0 95 66.5 161.5T480-252Zm-73-173q-23.375 0-39.188-15.812Q352-456.625 352-480t15.812-39.188Q383.625-535 407-535h146q23.375 0 39.188 15.812Q608-503.375 608-480t-15.812 39.188Q576.375-425 553-425H407Zm73 379q-91 0-169.987-34.084-78.988-34.083-137.417-92.512T80.084-310.013Q46-389 46-480t34.084-169.987q34.083-78.988 92.512-137.417t137.417-92.512Q389-914 480-914t169.987 34.084q78.988 34.083 137.417 92.512t92.512 137.417Q914-571 914-480t-34.084 169.987q-34.083 78.988-92.512 137.417T649.987-80.084Q571-46 480-46Z"/></svg>