<svg xmlns="http://www.w3.org/2000/svg" height="24" viewBox="0 -960 960 960" width="24"><path d="M90-50V-110h30q32 0 61.808-10 29.807-10 58.192-28.846 28.385 18.846 58.192 28.846 29.808 10 61.808 10t62.308-10q30.307-10 57.692-28.846 28.385 18.846 58.192 28.846 29.808 10 61.808 10t62.308-10q30.307-10 57.692-28.846 27.385 18.846 57.692 28.846 30.308 10 62.308 10h29.999v59.998H840q-29.846 0-59.846-7.692-30-7.692-60.154-23.462-30.154 15.77-60.154 23.462-30 7.692-59.846 7.692-29.846 0-59.846-7.692-30-7.692-60.154-23.462-30.154 15.77-60.154 23.462-30 7.692-59.846 7.692-29.846 0-59.846-7.692-30-7.692-60.154-23.462-30.154 15.77-60.154 23.462-30 7.692-59.846 7.692H90Zm270-147.692q-33.692 0-65.077-14.308-31.384-14.307-54.923-40.307-12.769 13.384-27.307 24.23-14.538 10.846-32.999 17.692-39.461-9.461-79.73-22.731Q59.693-246.385 27.31-260q51.692-20.692 123.345-41.807 71.654-21.115 142.038-32.346l57.846-176.616q9.462-28.231 35.346-38.269 25.884-10.038 49.422 2.038l106.616 54.308L658-556.538l68.693-153.77-20-53 47.615-106.691L871.153-818l-47.615 106.692-53 20-155.308 349.77q89.538 10.231 175.538 34.346Q876.767-283.077 932.69-260q-33.231 13.385-74.846 26.961-41.615 13.577-77.923 22.654-18.076-6.231-32.806-17.077-14.731-10.845-27.115-24.845-23.923 26-55.116 40.307-31.192 14.308-64.884 14.308t-64.884-14.5q-31.193-14.5-55.116-40.5-23.923 26-55.116 40.5-31.192 14.5-64.884 14.5Zm204.923-148.923 54.155-121.541-77.155 43.155-75.769-39.077-38.77 116.002q11.692-.769 25.231-1.346 13.539-.577 27.385-.577 20.231 0 42 .692t42.923 2.692ZM480-586.154q-30.307 0-52.077-21.769-21.769-21.77-21.769-52.077t21.769-52.077q21.77-21.769 52.077-21.769t52.077 21.769q21.769 21.77 21.769 52.077t-21.769 52.077q-21.77 21.769-52.077 21.769Z"/></svg>