<svg xmlns="http://www.w3.org/2000/svg" height="20" viewBox="0 -960 960 960" width="20"><path d="m377-309.477-197.189 197.19Q163.652-96.129 140-96.629q-23.652-.5-40.044-16.892-16.391-16.391-16.391-40.826 0-24.435 16.196-40.632l238.375-238.375q15.212-15.211 38.864-15.211 23.652 0 38.877 15.225L535.87-312.783l243.956-273.826q15.391-17.956 38.544-18.739 23.152-.782 40.674 16.063 15.873 15.206 16.698 37.224.824 22.018-13.494 37.904L577.174-192.086q-15.956 17.957-39.826 18.522-23.87.565-41.392-16.957L377-309.477Zm0-254.61-197.189 197.19Q163.652-350.739 140-351.239q-23.652-.5-40.044-16.891-16.391-16.392-16.391-40.827t16.196-40.632l238.375-238.374q15.212-15.212 38.864-15.212 23.652 0 38.877 15.225L535.87-567.393l243.956-273.825q15.391-17.957 38.544-18.74 23.152-.782 40.674 16.063 15.873 15.207 16.698 37.225.824 22.018-13.494 37.903L577.174-446.696q-15.956 17.957-39.826 18.522-23.87.565-41.392-16.956L377-564.087Z"/></svg>