<svg xmlns="http://www.w3.org/2000/svg" height="20" viewBox="0 -960 960 960" width="20"><path d="M574.348-306.999 430.999-450.535v-205.378h98.002v164.261l114.434 115-69.087 69.653Zm-143.349-409.61v-98.001h98.002v98.001h-98.002Zm285.61 285.61v-98.002h98.001v98.002h-98.001ZM430.999-145.39v-98.001h98.002v98.001h-98.002ZM145.39-430.999v-98.002h98.001v98.002H145.39ZM480-76.782q-83.898 0-157.094-31.46-73.197-31.46-128.2-86.464-55.004-55.003-86.464-128.346t-31.46-157.406q0-84.064 31.46-157.448 31.46-73.385 86.464-127.888 55.003-54.504 128.346-85.964t157.406-31.46q84.064 0 157.455 31.7 73.39 31.7 127.679 86.044 54.289 54.343 85.958 127.808Q883.218-564.202 883.218-480q0 83.898-31.46 157.094-31.46 73.197-85.964 128.2-54.503 55.004-128.019 86.464Q564.26-76.782 480-76.782Zm.458-98.001q128.197 0 216.478-88.739t88.281-216.936q0-128.197-88.281-216.478t-216.478-88.281q-128.197 0-216.936 88.281t-88.739 216.478q0 128.197 88.739 216.936t216.936 88.739ZM480-480Z"/></svg>