<svg xmlns="http://www.w3.org/2000/svg" height="24" viewBox="0 -960 960 960" width="24"><path d="M480-60.782q-87.522 0-163.913-32.913-76.392-32.913-132.936-89.456-56.543-56.544-89.456-132.936Q60.782-392.478 60.782-480q0-65.391 18.13-124 18.13-58.609 51.826-108.87L55-789.174q-13.13-13.13-13.13-31.326 0-18.196 13.13-31.326 13.13-13.131 31.326-13.131 18.196 0 31.326 13.131L859.87-109.609q13.131 13.131 12.848 31.11-.283 17.978-13.413 31.108-13.131 13.13-31.044 13.13t-31.043-13.13l-84.348-83.347Q662.609-97.043 604-78.912q-58.609 18.13-124 18.13Zm356.479-197.522L616.131-478.522l61.304-61.304q14.391-14.391 14.391-35.63 0-21.24-14.391-35.631-14.826-14.826-36.131-14.826t-35.696 14.826l-60.738 61.173-286.566-286.565q48.566-29.87 104.348-46.305Q418.435-899.218 480-899.218q87.522 0 163.913 32.913 76.392 32.913 132.936 89.456 56.543 56.544 89.456 132.936Q899.218-567.522 899.218-480q0 61.565-16.434 117.348-16.435 55.782-46.305 104.348ZM275.782-431.217l108.913 108.913q15.957 15.956 37.609 15.956 21.653 0 37.609-15.956l30.913-31.478-71.261-71.262-4.609 4.609-75.26-75.261q-13.261-13.261-32.24-12.978-18.978.283-31.674 13.544-12.695 13.26-12.695 32.239 0 18.978 12.695 31.674Z"/></svg>