<svg xmlns="http://www.w3.org/2000/svg" height="20" viewBox="0 -960 960 960" width="20"><path d="M480-76.782q-83.522 0-156.913-31.413-73.392-31.413-128.436-86.456-55.043-55.044-86.456-128.436Q76.782-396.478 76.782-480q0-61.391 18.13-119.5 18.131-58.109 51.826-108.37L115-740.174q-12.13-12.13-12.13-28.326 0-16.196 12.13-28.326 12.13-12.131 28.326-12.131 16.196 0 28.326 12.131L805.87-162.609q12.131 12.131 11.848 28.109-.283 15.979-12.413 28.109-12.131 12.13-28.044 12.13t-28.043-12.13l-41.348-40.347q-50.261 33.695-108.37 51.826-58.109 18.13-119.5 18.13Zm339.479-185.522L591.131-488.522l50.304-50.304q14.391-14.391 13.891-32.63-.5-18.24-14.891-32.631-13.826-13.826-32.631-13.826t-33.196 13.826l-48.738 48.173-263.566-263.565q48.566-30.87 103.848-47.305Q421.435-883.218 480-883.218q84.522 0 157.413 31.413 72.892 31.413 127.936 86.456 55.043 55.044 86.456 127.936Q883.218-564.522 883.218-480q0 58.565-16.434 113.848-16.435 55.282-47.305 103.848ZM310.782-442.217l81.913 82.913q14.957 14.956 34.609 14.956 19.653 0 34.609-14.956l15.913-16.478-65.261-66.262 3.391-3.391-51.26-51.261q-12.261-12.261-27.24-12.478-14.978-.217-26.674 12.044-11.695 12.26-11.695 27.739 0 15.478 11.695 27.174Z"/></svg>