<svg xmlns="http://www.w3.org/2000/svg" height="20" viewBox="0 -960 960 960" width="20"><path d="M480-96q-79.376 0-149.188-30Q261-156 208.5-208.5T126-330.812Q96-400.624 96-480q0-58 17-112.5T162-696l-47-47q-11-10.667-11-25.333Q104-783 115-794q11-11 25.667-11 14.666 0 25.333 11l628 628q11 10.636 11 24.818Q805-127 794-116q-11 11-25.667 11-14.666 0-25.333-11l-47-46q-49 32-103.5 49T480-96Zm.11-72Q524-168 565-181t79-34L476-383l-22 22q-11 11-25 11t-25-11l-86-86q-11-11-10.5-25.5T319-498q11-11 25.5-11t25.5 11l59 60-4 4-210-210q-21 38-34 79t-13 84.89q0 129.721 91.195 220.915Q350.389-168 480.11-168ZM798-264l-53-52q22-38 34.5-79t12.5-84.89q0-129.721-91.195-220.915Q609.611-792 479.89-792 436-792 395-779.5T316-745l-52-53q48-32 103-49t113.266-17q79.279 0 149.006 30Q699-804 751.5-751.5T834-629.272q30 69.727 30 149.006Q864-422 847-367q-17 55-49 103ZM577-484l-50-51 64-64q11-11 25-11t25 11q11 11 11 25.5T641-548l-64 64Zm-50-51ZM420-420Z"/></svg>