<svg xmlns="http://www.w3.org/2000/svg" height="24" viewBox="0 -960 960 960" width="24"><path d="M277.739-631.654q-35.826 0-60.739-24.913-24.913-24.913-24.913-60.739 0-35.827 24.913-60.74 24.913-24.913 60.739-24.913 35.826 0 60.739 24.913 24.913 24.913 24.913 60.74 0 35.826-24.913 60.739-24.913 24.913-60.739 24.913ZM214.131-60.782q-20.391 0-34.152-13.76-13.761-13.762-13.761-33.588-43.74 0-74.588-30.848-30.848-30.848-30.848-74.588v-204.522q0-22.087 15.456-37.544 15.457-15.457 37.544-15.457h78.305v-23.782q0-41.957 29.674-71.065 29.674-29.109 72.196-29.109 24.522 0 45.761 10.261 21.239 10.261 37.5 28.217l55.435 58.609q7.435 7.435 14.935 14.152 7.5 6.717 15.935 12.717h249.694v-290.389q0-13.435-9.717-22.87-9.718-9.434-23.152-9.434-5.435 0-10.37 2.5t-9.369 6.369l-40.391 38.13q5 22.653-2.805 43.957-7.804 21.305-22.457 38.696L463.477-796.479q17.391-15.217 38.196-22.239 20.804-7.022 43.022-2.153l48.87-47.174q17.13-16.565 39.891-23.869 22.761-7.304 46.892-7.304 58.174 0 98.522 39.783 40.348 39.783 40.348 97.957v290.389h27q22.087 0 37.544 15.457 15.456 15.457 15.456 37.544v204.522q0 43.74-30.848 74.588-30.848 30.848-74.588 30.848 0 19.826-13.761 33.587-13.761 13.761-34.152 13.761H214.131Z"/></svg>