<svg xmlns="http://www.w3.org/2000/svg" height="24" viewBox="0 -960 960 960" width="24"><path d="M212.309-140.001q-30.308 0-51.308-21t-21-51.308v-437.692q0-12.749 8.629-21.374Q157.259-680 170.014-680q12.756 0 21.371 8.625Q200-662.75 200-650.001v437.692q0 4.616 3.846 8.463 3.847 3.846 8.463 3.846h437.692q12.749 0 21.374 8.629Q680-182.743 680-169.987q0 12.755-8.625 21.37-8.625 8.616-21.374 8.616H212.309Zm147.691-160q-25.692 0-42.845-17.154-17.154-17.153-17.154-42.845H360v59.999ZM300.001-440v-80H360v80h-59.999Zm0-160v-80H360v80h-59.999Zm0-160q0-24.749 17.625-42.374 17.625-17.625 42.374-17.625V-760h-59.999ZM440-300.001V-360h80v59.999h-80ZM440-760v-59.999h80V-760h-80Zm160 459.999V-360h80v59.999h-80ZM600-760v-59.999h80V-760h-80Zm160 459.999V-360h59.999q0 24.922-17.625 42.461-17.625 17.538-42.374 17.538ZM760-440v-80h59.999v80H760Zm0-160v-80h59.999v80H760Zm0-160v-59.999q24.749 0 42.374 17.625 17.625 17.625 17.625 42.374H760Z"/></svg>