<svg xmlns="http://www.w3.org/2000/svg" height="20" viewBox="0 -960 960 960" width="20"><path d="M470-242h-61.789q-4.161 0-7.186-2.825-3.025-2.824-3.025-7 0-4.175 2.875-7.1T408-261.85h62V-386q-70-7-119-57.074Q302-493.147 302-562q0-75.138 51.5-127.569T480-742q75 0 126.5 52.431T658-562q0 68.853-49 118.926Q560-393 490-386v123.871h62q4.25 0 7.125 2.922t2.875 7.242q0 4.265-2.908 7.115-2.909 2.85-7.209 2.85h-62.116v62q0 4.25-2.919 7.125Q483.93-170 479.754-170q-4.175 0-6.965-2.875Q470-175.75 470-180v-62Zm10.384-164Q546-406 592-452.384t46-112Q638-630 591.616-676t-112-46Q414-722 368-675.616t-46 112Q322-498 368.384-452t112 46Z"/></svg>