<svg xmlns="http://www.w3.org/2000/svg" height="24" viewBox="0 -960 960 960" width="24"><path d="M597.13-121.435v-328.696h51.001q62.413 0 105.706-44.684Q797.13-539.5 797.13-602.63q0-63.848-45.326-109.174-45.326-45.326-109.174-45.326-63.13 0-107.815 43.293-44.684 43.293-44.684 105.706v51.001H245.674l64 64-64.413 63.652L72.109-602.63 245.26-775.783l63.652 63.652-63.239 64H406q16.87-85 82.37-142.5t154.26-57.5q102.153 0 173.827 71.674 71.674 71.674 71.674 173.827 0 89.478-57.142 156.293-57.141 66.815-142.858 82.728v242.174H597.13Z"/></svg>