<svg xmlns="http://www.w3.org/2000/svg" height="20" viewBox="0 -960 960 960" width="20"><path d="M480-164.001q-101.852 0-172.925-71.074Q236.001-306.148 236.001-408q0-79.846 47.308-144.23 47.307-64.384 122.922-87.692-16.615-5.615-32.807-13.346-16.193-7.731-29.193-21.731-29.922-29.307-38.653-69.884-8.731-40.576-5.265-81.765 40.226-2.888 80.033 5.651 39.808 8.538 69.73 36.692 16.385 15.846 25.693 35.653 9.307 19.808 13.923 41.808 13.846-25.307 30.346-48.692 16.499-23.384 42.422-41.846l37.769 35.768q-25.923 23.462-47.423 51.654-21.5 28.192-32.269 61.73 88 15.692 145.731 83.23 57.731 67.539 57.731 157 0 101.852-71.545 172.925Q580.909-164.001 480-164.001Zm.226-51.999Q560-216 616-271.746q56-55.745 56-136.48Q672-488 615.766-544t-136.02-56Q399-600 343.5-543.766 288-487.532 288-407.746 288-327 343.746-271.5q55.745 55.5 136.48 55.5ZM480-408Z"/></svg>