<svg xmlns="http://www.w3.org/2000/svg" height="20" viewBox="0 -960 960 960" width="20"><path d="M479.789-544q18.611 0 31.411-12.589 12.8-12.59 12.8-31.2 0-18.611-12.589-31.411-12.59-12.8-31.2-12.8-18.611 0-31.411 12.589-12.8 12.59-12.8 31.2 0 18.611 12.589 31.411 12.59 12.8 31.2 12.8ZM480-138q-123 0-193-16t-70-45v-51h-55q-51 0-86.5-38T44-376l24-297q4-48 37.615-78.5Q139.231-782 186-782h588q46.769 0 80.385 30.5Q888-721 892-673l24 297q4 49-31.5 87.5T798-250h-55v51q0 29.587-68 45.293Q607-138 480-138ZM163-368h634l-22-296H185.955L163-368Zm317-148Z"/></svg>