<svg xmlns="http://www.w3.org/2000/svg" height="24" viewBox="0 -960 960 960" width="24"><path d="M206.783-100.782q-43.74 0-74.871-31.13-31.13-31.131-31.13-74.871v-546.999q0-43.74 31.13-74.588 31.131-30.848 74.871-30.848h546.999q43.74 0 74.588 30.848 30.848 30.848 30.848 74.588v546.999q0 43.74-30.848 74.871-30.848 31.13-74.588 31.13H206.783ZM441.13-520v78.304h77.74V-520h-77.74Zm-156.608 0v78.304h78.304V-520h-78.304Zm78.304 78.304v78.305h78.304v-78.305h-78.304Zm156.044 0v78.305h78.304v-78.305H518.87Zm-312.087 0v78.305h77.739v-78.305h-77.739ZM597.174-520v78.304h78.021v78.305h78.022v-78.305h-78.022V-520h-78.021ZM284.522-363.391v78.304h-77.739v78.304h78.022v-78.304h78.021v78.304h78.022v-78.304h78.022v78.304h78.304v-78.304h78.304v78.304h77.739v-78.304h-78.022v-78.304h-78.021v78.304h-78.022v-78.304H441.13v78.304h-78.304v-78.304h-78.304ZM753.217-520v78.304V-520Zm0 156.609v78.304-78.304Z"/></svg>