<svg xmlns="http://www.w3.org/2000/svg" height="24" viewBox="0 -960 960 960" width="24"><path d="M76.413-32.587V-120H120q31.283 0 61.402-10.239 30.12-10.239 58.598-30.478 28.239 20.239 58.478 29.978T360-121q31.283 0 61.902-9.859 30.62-9.858 58.098-30.098 28.239 20.24 58.478 30.098Q568.717-121 600-121q31.283 0 61.902-9.859 30.62-9.858 58.098-30.098 27.478 20.24 58.098 30.598Q808.717-120 840-120h43.587v87.413H840q-30.761 0-60.88-7.5-30.12-7.5-59.12-22.26-29 14.76-59.12 22.26-30.119 7.5-60.88 7.5-30.761 0-60.88-7.5-30.12-7.5-59.12-22.26-29 14.76-59.12 22.26-30.119 7.5-60.88 7.5-30.761 0-60.88-7.5-30.12-7.5-59.12-22.26-29 14.76-59.12 22.26-30.119 7.5-60.88 7.5H76.413ZM685.5-745.739q-34.435 0-59.011-24.576t-24.576-59.011q0-34.435 24.576-59.011t59.011-24.576q34.435 0 59.011 24.576t24.576 59.011q0 34.435-24.576 59.011T685.5-745.739ZM360-200.239q-10.239 0-20.098-1.5-9.859-1.5-19.337-4.739-86.956-59.479-145.554-120.435-58.598-60.957-58.598-105.913 0-33.152 25.196-43.87 25.195-10.717 52.391-10.717 28.283 0 65.087 8.022 36.804 8.021 78.369 23.065l-29.478-164.696 120.457-80.891L358.717-715l-114.674 78.196-49.065-71.979 144.305-98.869 223.195 41.239q14.718 2.239 28.435 11.478 13.717 9.239 23.196 26.196l35 62q25.282 44.282 71.641 71.804 46.359 27.522 102.837 27.522v87.174q-79.913 0-144.989-38.522-65.076-38.522-102.794-101.043l-82.586 56.217 150.369 117.848v154q16.239 11.478 31.837 23.717 15.598 12.239 30.315 23.957-22.435 20.63-49.228 32.228-26.794 11.598-56.511 11.598-35.761 0-66.761-16.402-31-16.402-53.239-41.685-22.239 25.283-53.239 41.685-31 16.402-66.761 16.402Zm196.413-150.044v-51.63L417.022-510.978l16.326 94.521q26.761 12.761 63.532 32.587 36.772 19.826 59.533 33.587Z"/></svg>