<svg xmlns="http://www.w3.org/2000/svg" height="20" viewBox="0 -960 960 960" width="20"><path d="M100-60v-44h20q32 0 61.615-10 29.616-10 58.385-27.692 28.769 17.692 58.385 28.076Q328-103.231 360-103.231t62.115-10.385Q452.231-124 480-141.692q28.769 17.692 58.385 28.076Q568-103.231 600-103.231t62.115-10.385Q692.231-124 720-141.692 747.769-124 777.885-114 808-104 840-104h20v44h-20q-28.692 0-58.692-7.885-30-7.884-61.308-24.423-31.308 16.539-61.308 24.424Q628.692-60 600-60t-58.692-7.885q-30-7.884-61.308-24.423-31.308 16.539-61.308 24.424Q388.692-60 360-60t-58.692-7.885q-30-7.884-61.308-24.423-31.308 16.539-61.308 24.424Q148.692-60 120-60h-20Zm580-692.308q-27.615 0-47.654-20.038-20.038-20.039-20.038-47.654 0-27.615 20.038-47.654 20.039-20.038 47.654-20.038 27.615 0 47.654 20.038 20.038 20.039 20.038 47.654 0 27.615-20.038 47.654-20.039 20.038-47.654 20.038ZM373.846-201.154q-2.308 0-4.839-.346-2.532-.346-4.93-1.039-97.77-60.769-161.923-124.192Q138-390.154 138-429.389q0-19.672 18.461-26.141Q174.923-462 194-462q27.462 0 76.811 12.473 49.35 12.473 113.573 40.296l-51.615-197.231L487.615-719l-131.153-24.769-104.001 71.846-24.692-36.923 119.923-80.846L562-750.231q9.385 2 19.423 8.308 10.039 6.308 16.962 18.692l35 61.62q26 44.724 71.615 74.475 45.615 29.751 100.077 34.367V-508q-69.769-5.384-126.962-43.5-57.192-38.115-92.884-104.192l-129.077 94.154L622-431v154q14.462 10.231 34.5 25.231 20.039 15 33.5 26.23-13.538 11.308-37.068 18.231-23.53 6.923-52.932 6.923-31.385 0-62.769-11.5-31.385-11.5-57.231-37.5-25.846 26-53.385 36.346-27.538 10.347-52.769 11.885ZM578-308.616v-92.692L409.308-517.692l21.923 127.461q31.892 15.381 69.253 36.883 37.362 21.502 77.516 44.732Z"/></svg>