<svg xmlns="http://www.w3.org/2000/svg" height="20" viewBox="0 -960 960 960" width="20"><path d="M76.413-32.587V-124H120q31.283 0 61.402-10.239 30.12-10.239 58.598-30.478 28.239 20.239 58.478 30.478T360-124q31.283 0 61.902-10.359 30.62-10.358 58.098-30.598 28.239 20.24 58.478 30.598Q568.717-124 600-124q31.283 0 61.902-10.359 30.62-10.358 58.098-30.598 27.478 20.24 58.098 30.598Q808.717-124 840-124h43.587v91.413H840q-30.761 0-60.88-7.5-30.12-7.5-59.12-22.26-29 14.76-59.12 22.26-30.119 7.5-60.88 7.5-30.761 0-60.88-7.5-30.12-7.5-59.12-22.26-29 14.76-59.12 22.26-30.119 7.5-60.88 7.5-30.761 0-60.88-7.5-30.12-7.5-59.12-22.26-29 14.76-59.12 22.26-30.119 7.5-60.88 7.5H76.413ZM685.5-745.739q-34.435 0-59.011-24.576t-24.576-59.011q0-34.435 24.576-59.011t59.011-24.576q34.435 0 59.011 24.576t24.576 59.011q0 34.435-24.576 59.011T685.5-745.739ZM360-205.239q-10.239 0-20.437-1.5t-19.998-4.739q-87.956-60.479-146.554-117.935-58.598-57.457-58.598-103.803 0-34.131 26.196-45.164 26.195-11.033 53.391-11.033 28.283 0 64.129 7.764 35.846 7.764 76.327 22.323l-27.478-163.696 116.457-77.891L358.717-713l-115.674 79.196-51.065-75.979 147.305-99.869 223.195 41.239q14.718 2.239 28.935 11.478 14.217 9.239 24.696 27.196l35 61.619q25.282 44.007 71.641 71.357 46.359 27.35 102.837 27.35v91.174q-80.913 0-146.489-38.022-65.576-38.022-104.294-100.543l-78.586 53.217 149.369 116.848v154q16.239 11.478 30.337 21.717 14.098 10.239 29.815 22.957-23.435 21.63-49.912 32.228Q629.35-205.239 600-205.239q-35.761 0-66.761-15.902-31-15.902-53.239-41.185-22.239 25.283-53.239 41.185-31 15.902-66.761 15.902Zm194.413-149.044v-46.63l-132.391-94.065 13.326 77.521q25.499 12.065 60.402 30.739 34.902 18.674 58.663 32.435Z"/></svg>