<svg xmlns="http://www.w3.org/2000/svg" height="20" viewBox="0 -960 960 960" width="20"><path d="m480-102 99.077-99.077q4.846-4.846 11.269-5.615 6.423-.769 12.517 4.846 5.906 5.615 5.522 11.654-.385 6.038-6 11.654L499.894-76.048q-4.509 4.51-9.271 6.625-4.761 2.116-10.423 2.116t-10.423-2.116q-4.762-2.115-9.392-6.346L356.846-178.538q-6.385-5.616-5.5-11.654.885-6.039 6.5-11.654 6.385-6.385 11.654-6 5.269.385 11.654 6L480-102Zm0-192 99.077-99.077q4.846-4.846 11.269-5.615 6.423-.769 12.517 4.846 5.906 5.615 5.522 11.654-.385 6.038-6 11.654L499.894-268.047q-4.509 4.509-9.271 6.624-4.761 2.116-10.423 2.116t-10.423-2.116q-4.762-2.115-9.392-6.346L356.846-370.538q-6.385-5.616-5.5-11.654.885-6.039 6.5-11.654 6.385-6.385 11.654-6 5.269.385 11.654 6L480-294Zm-.769-371.231-99.077 99.077q-5.615 5.615-11.269 5.615t-11.27-5.615q-4.846-5.615-5.231-11.436-.384-5.82 5.231-11.103l101.762-102.491q4.469-4.509 9.231-6.624 4.761-2.115 10.423-2.115 5.661 0 10.423 2.115 4.761 2.115 9.392 6.346l103.539 102.769q4.846 4.483 5.23 10.588.385 6.105-5.23 11.72-5.616 5.616-11.436 5.231-5.821-.385-11.103-5.231l-100.615-98.846Zm0-192-99.077 99.077q-5.615 5.615-11.269 5.615t-11.27-5.615q-4.846-5.615-5.231-11.436-.384-5.82 5.231-11.103l101.762-102.491q4.469-4.509 9.231-6.624 4.761-2.115 10.423-2.115 5.661 0 10.423 2.115 4.761 2.115 9.392 6.346l103.539 102.769q4.846 4.483 5.23 10.588.385 6.105-5.23 11.72-5.616 5.616-11.436 5.231-5.821-.385-11.103-5.231l-100.615-98.846Z"/></svg>