<svg xmlns="http://www.w3.org/2000/svg" height="20" viewBox="0 -960 960 960" width="20"><path d="M240.226-400Q299-400 339.5-359.274t40.5 99.5Q380-201 339.274-160.5t-99.5 40.5Q181-120 140.5-160.726t-40.5-99.5Q100-319 140.726-359.5t99.5-40.5ZM239-240l56 55 20-21-55-55 55-55-21-21-55 55-55-55-21 21 55 55-55 55 21 21 55-55Zm457-410q-21.292 0-39.646-8T626-684L352-515q4 18 5 29t-1 27q-26-16-55.196-24.5Q271.609-492 240-492q-19 0-35.5 2t-34.5 7q1-38 28.5-64.5T264-574q21.292 0 39.646 8.5T334-540l274-169q-3-10-4.5-18t-1.5-17q0-39 27.5-66.5T696-838q39 0 66.5 27.5T790-744q0 39-27.5 66.5T696-650Zm0 528q-39 0-66.5-27.5T602-216q0-9 1.5-17t4.5-18l-147-90q-7-19-17.5-34.5T418-404l208 128q12-19 30.354-26.5T696-310q39 0 66.5 27.5T790-216q0 39-27.5 66.5T696-122Z"/></svg>