<svg xmlns="http://www.w3.org/2000/svg" height="24" viewBox="0 -960 960 960" width="24"><path d="M240-427.691q74.922 0 127.461 52.538 52.538 52.538 52.538 127.46 0 74.923-52.538 127.461Q314.922-67.694 240-67.694t-127.461-52.538Q60.001-172.77 60.001-247.693q0-74.922 52.538-127.46Q165.078-427.691 240-427.691Zm0 204.921 70 70.615 25.538-24.923-70.615-70.615 70.615-70.615-24.923-24.923L240-272.616l-70.615-70.615-24.923 24.923 70.615 70.615-70.615 70.615 24.923 24.923L240-222.77Zm480-427.231q-22.615 0-42.846-8.884-20.231-8.885-36.077-24.654L345.23-510.308q1.385 4.385 2.077 8.846.692 4.462 1.692 9.616-25.077-11.461-52.384-17.5-27.308-6.038-56.615-6.038-29.307 0-56.615 6.038-27.307 6.039-52.384 17.5 4.615-41.154 35.23-69.653 30.615-28.5 73.769-28.5 22.615 0 42.846 8.884 20.231 8.885 36.077 24.654L614.77-729.692q-2.385-6.769-3.577-14.846-1.192-8.077-1.192-15.462 0-45.769 32.115-77.884T720-869.999q45.769 0 77.884 32.115T829.999-760q0 45.769-32.115 77.884T720-650.001Zm0 560q-45.769 0-77.884-32.115T610.001-200q0-7.385 1.192-15.462t3.577-14.846l-112.002-65.386q-3.615-20.845-10.192-40.076-6.577-19.23-16.5-37.23l165.001 96.539q15.846-15.769 36.077-24.654 20.231-8.884 42.846-8.884 45.769 0 77.884 32.115T829.999-200q0 45.769-32.115 77.884T720-90.001Z"/></svg>