<svg xmlns="http://www.w3.org/2000/svg" height="20" viewBox="0 -960 960 960" width="20"><path d="M240.226-432Q320-432 376-375.774t56 136Q432-160 375.774-104t-136 56Q160-48 104-104.226t-56-136Q48-320 104.226-376t136-56Zm-1.465 225.261 56 55.761 34.261-34.261-55.761-55.522 56-56L295-331.022l-55.761 55.761-56-56L148.978-297l55.761 55.761-56 56L183-150.978l55.761-55.761ZM696-616.587q-23.488 0-45.037-7.239-21.55-7.239-37.267-24.196L387.413-510.196q3.239 18.674 3.859 28.37.619 9.696-1.62 23.891-32.434-21.913-70.543-33.989Q281-504 240-504q-28.391 0-53.804 5.576-25.414 5.576-49.848 16.489.804-52.304 38.315-88.891 37.511-36.587 89.337-36.587 23.488 0 45.038 7.978 21.549 7.978 37.266 23.935l226.283-138.304q-2-8.479-3-15.218-1-6.739-1-14.978 0-53.109 37.152-90.261 37.152-37.152 90.261-37.152 53.109 0 90.261 37.152 37.152 37.152 37.152 90.261 0 53.109-37.152 90.261-37.152 37.152-90.261 37.152Zm0 528q-53.109 0-90.261-37.152-37.152-37.152-37.152-90.261 0-8.239 1-14.978 1-6.739 3-15.218l-74.109-45.695q-7.761-37.631-24.337-70.163-16.576-32.533-41.25-59.968l180.805 110.044q15.717-17.957 37.267-24.696 21.549-6.739 45.037-6.739 53.109 0 90.261 37.152 37.152 37.152 37.152 90.261 0 53.109-37.152 90.261Q749.109-88.587 696-88.587Z"/></svg>