<svg xmlns="http://www.w3.org/2000/svg" height="20" viewBox="0 -960 960 960" width="20"><path d="M696-696q20.4 0 34.2-13.8Q744-723.6 744-744q0-20.4-13.8-34.2Q716.4-792 696-792q-20.4 0-34.2 13.8Q648-764.4 648-744q0 20.4 13.8 34.2Q675.6-696 696-696Zm0 528q20.4 0 34.2-13.8Q744-195.6 744-216q0-20.4-13.8-34.2Q716.4-264 696-264q-20.4 0-34.2 13.8Q648-236.4 648-216q0 20.4 13.8 34.2Q675.6-168 696-168Zm0-576Zm0 528ZM239.774-48Q160-48 104-104.226t-56-136Q48-320 104.226-376t136-56Q320-432 376-375.774t56 136Q432-160 375.774-104t-136 56ZM125.912-476.391q-.826-58.174 40.109-99.653 40.935-41.479 97.979-41.479 25.119 0 48.299 8.631 23.18 8.63 39.875 25.891l210.303-129.173q-2-9.13-3-16.196-1-7.065-1-15.63 0-57.348 40.088-97.435 40.087-40.088 97.435-40.088t97.435 40.088q40.088 40.087 40.088 97.435t-40.088 97.435Q753.348-606.477 696-606.477q-25.119 0-48.299-7.566-23.18-7.565-39.875-25.826L397.523-511.826q3.565 20.956 4.348 32.283.782 11.326-1.783 27.152-34.392-24.522-75.109-38.065Q284.261-504 240-504q-31.652 0-59.674 7.044-28.022 7.043-54.414 20.565ZM696-78.477q-57.348 0-97.435-40.088-40.088-40.087-40.088-97.435 0-8.565 1-15.63 1-7.066 3-16.196l-63.347-39.826q-7.434-41.218-25.478-76.522-18.043-35.305-45-64.696l179.174 108.739q16.695-19.261 39.875-26.326 23.18-7.066 48.299-7.066 57.348 0 97.435 40.088 40.088 40.087 40.088 97.435t-40.088 97.435Q753.348-78.477 696-78.477ZM238.435-199.565l56 55.435 41.435-41.435-55.435-54.87 56-56L295-337.87l-55.435 55.435-56-56L142.13-297l55.435 55.435-56 56L183-144.13l55.435-55.435Z"/></svg>