<svg xmlns="http://www.w3.org/2000/svg" height="24" viewBox="0 -960 960 960" width="24"><path d="M418.521-397.739h89.044v-280h-89.044v280Zm129.044-65.652h89.044v-174.348h-89.044v174.348Zm-258.088-14.348h89.044v-160h-89.044v160ZM223.043-63.043v-181.609q-56.435-54.261-88.218-126.022Q103.043-442.435 103.043-520q0-157.066 109.895-267.011 109.894-109.946 266.887-109.946 130.827 0 231.849 77.174 101.022 77.174 131.718 200.826l70.087 275.914H776.957v200h-160v80H510.956v-186.001h160v-200h105.739l-35.174-143.695q-23-87.043-95.739-142.63Q573.043-790.956 480-790.956q-112.253 0-191.605 78.365Q209.044-634.226 209.044-522q0 57.739 23.652 110.609 23.652 52.869 67.522 92.608l28.826 26.826v228.914H223.043ZM492.87-426.999Z"/></svg>