<svg xmlns="http://www.w3.org/2000/svg" height="24" viewBox="0 -960 960 960" width="24"><path d="M435.478-276.609h89.044V-521.13h-89.044v244.521ZM480-588.13q20.603 0 34.541-13.937 13.938-13.938 13.938-34.542 0-20.603-13.938-34.541-13.938-13.937-34.541-13.937-20.603 0-34.541 13.937-13.938 13.938-13.938 34.541 0 20.604 13.938 34.542Q459.397-588.13 480-588.13Zm0 527.914Q332.652-96.805 236.717-226.954 140.782-357.103 140.782-516v-257.262L480-899.784l339.218 126.522V-516q0 158.897-95.935 289.046Q627.348-96.804 480-60.216Z"/></svg>