<svg xmlns="http://www.w3.org/2000/svg" height="20" viewBox="0 -960 960 960" width="20"><path d="M454.001-303.386h51.998v-233.076h-51.998v233.076ZM479.789-600q11.942 0 20.23-8.078t8.288-20.019q0-11.941-8.078-20.229-8.077-8.288-20.018-8.288-11.942 0-20.23 8.078-8.288 8.077-8.288 20.018t8.078 20.23Q467.848-600 479.789-600ZM480-116.771q-125.769-33.384-208.884-146.111Q188.001-375.609 188.001-515v-215.153L480-842.46l291.999 112.307V-515q0 139.391-83.115 252.118T480-116.771ZM480-171q104-32.25 172-129t68-215v-180l-240-91.615L240-695v180q0 118.25 68 215t172 129Zm0-307.615Z"/></svg>