<svg xmlns="http://www.w3.org/2000/svg" height="20" viewBox="0 -960 960 960" width="20"><path d="M436-282h88v-248h-88v248Zm43.789-297q21.586 0 36.399-14.602Q531-608.204 531-629.789q0-21.586-14.602-36.399Q501.796-681 480.211-681q-21.586 0-36.399 14.602Q429-651.796 429-630.211q0 21.586 14.602 36.399Q458.204-579 479.789-579ZM480-61Q330.231-96.81 232.116-226.647 134-356.484 134-515v-252.462L480-899l346 131.538V-515q0 158.516-98.116 288.353Q629.769-96.81 480-61Zm0-121q97-38.25 162.5-129T708-514.535V-686l-228-87-228 87.484V-515q0 113.25 65.5 204T480-182Zm0-295Z"/></svg>