<svg xmlns="http://www.w3.org/2000/svg" height="24" viewBox="0 -960 960 960" width="24"><path d="M448.173-213.001 118.304-542.87q-14.391-14.391-14.109-34.217.283-19.826 14.675-34.218 14.391-13.826 34.217-14.109 19.826-.282 34.218 14.109l329.304 330.434v-13.825q0-20.392 14.326-34.436 14.326-14.043 34.717-14.043 20.392 0 34.436 14.043 14.043 14.044 14.043 34.436v126.217q0 22.088-15.457 37.544-15.456 15.457-37.544 15.457H434.348q-20.392 0-34.436-14.326-14.043-14.326-14.043-34.718 0-20.391 14.326-34.435 14.326-14.044 34.718-14.044h13.26Zm45.35-416.129-67.043 32.217q-12.826 6.695-27 4.347-14.174-2.347-24.435-12.608-17.392-17.392-13.044-41.327 4.348-23.935 26.435-34.196l337.651-153.521q13.261-6.131 27.087-3.283 13.827 2.848 23.522 12.544l24.522 24.522q9.696 9.695 12.261 23.522 2.566 13.826-3.565 27.087l-153.825 336.39q-10.827 22.652-35.044 26.783-24.218 4.13-41.74-13.392-11.392-11.391-13.957-26.63-2.565-15.24 4.696-29.631L602-520.088 493.523-629.13Zm69.913-38.479 76.738 78.173L714-738l-2.565-2.565-147.999 72.956Z"/></svg>