<svg xmlns="http://www.w3.org/2000/svg" height="20" viewBox="0 -960 960 960" width="20"><path d="M564.283-586.999q-20.37 0-34.827-14.246-14.457-14.247-14.457-34.544 0-20.298 14.307-34.624 14.307-14.325 34.694-14.325h58.999v-95.196q0-20.415 14.307-34.741T672-829.001q20.387 0 34.694 14.326 14.307 14.326 14.307 34.741v95.196H780q20.387 0 34.694 14.325 14.307 14.326 14.307 34.624 0 20.297-14.295 34.544-14.296 14.246-34.666 14.246H564.283Zm107.928 456q-20.298 0-34.755-14.307-14.457-14.307-14.457-34.694v-294.477q0-20.388 14.246-34.694 14.247-14.307 34.544-14.307 20.298 0 34.755 14.307 14.457 14.306 14.457 34.694V-180q0 20.387-14.246 34.694-14.247 14.307-34.544 14.307Zm-384.211 0q-20.387 0-34.694-14.326-14.307-14.325-14.307-34.741v-95.196H180q-20.387 0-34.694-14.325-14.307-14.326-14.307-34.624 0-20.297 14.295-34.543 14.296-14.247 34.666-14.247h215.757q20.37 0 34.827 14.247 14.457 14.246 14.457 34.543 0 20.298-14.307 34.624-14.307 14.325-34.694 14.325h-58.999v95.196q0 20.416-14.307 34.741-14.307 14.326-34.694 14.326Zm.211-305.523q-20.298 0-34.755-14.307-14.457-14.306-14.457-34.694V-780q0-20.387 14.247-34.694 14.246-14.307 34.543-14.307 20.298 0 34.755 14.307 14.457 14.307 14.457 34.694v294.477q0 20.388-14.247 34.694-14.246 14.307-34.543 14.307Z"/></svg>