<svg xmlns="http://www.w3.org/2000/svg" height="20" viewBox="0 -960 960 960" width="20"><path d="M564.283-577Q540-577 522.5-594.289q-17.5-17.29-17.5-41.5 0-24.211 17.35-41.58T564-694.738h49v-85.196q0-24.328 17.35-41.697Q647.7-839 672-839q24.3 0 41.65 17.369Q731-804.262 731-779.934v85.196h49q24.3 0 41.65 17.369Q839-660 839-635.789q0 24.21-17.338 41.5Q804.323-577 780.04-577H564.283Zm107.928 456Q648-121 630.5-138.35T613-180v-281q0-24.3 17.289-41.65 17.29-17.35 41.5-17.35Q696-520 713.5-502.65T731-461v281q0 24.3-17.289 41.65-17.29 17.35-41.5 17.35ZM288-121q-24.3 0-41.65-17.369Q229-155.738 229-180.066v-85.196h-49q-24.3 0-41.65-17.369Q121-300 121-324.211q0-24.21 17.338-41.5Q155.677-383 179.96-383h215.757Q420-383 437.5-365.711q17.5 17.29 17.5 41.5 0 24.211-17.35 41.58T396-265.262h-49v85.196q0 24.328-17.35 41.697Q312.3-121 288-121Zm.211-319Q264-440 246.5-457.35T229-499v-281q0-24.3 17.289-41.65 17.29-17.35 41.5-17.35Q312-839 329.5-821.65T347-780v281q0 24.3-17.289 41.65-17.29 17.35-41.5 17.35Z"/></svg>