<svg xmlns="http://www.w3.org/2000/svg" height="20" viewBox="0 -960 960 960" width="20"><path d="M288-292q-78.333 0-133.167-54.765Q100-401.529 100-479.765 100-558 154.833-613 209.667-668 288-668h384q78.333 0 133.167 54.765Q860-558.471 860-480.235 860-402 805.167-347 750.333-292 672-292H288Zm0-20h384q70 0 119-49t49-119q0-70-49-119t-119-49H288q-70 0-119 49t-49 119q0 70 49 119t119 49Zm-.118-74Q327-386 354.5-413.382q27.5-27.383 27.5-66.5Q382-519 354.618-546.5q-27.383-27.5-66.5-27.5Q249-574 221.5-546.618q-27.5 27.383-27.5 66.5Q194-441 221.382-413.5q27.383 27.5 66.5 27.5ZM480-480Z"/></svg>