<svg xmlns="http://www.w3.org/2000/svg" height="24" viewBox="0 -960 960 960" width="24"><path d="m348.615-151.461-33.769-66.77q-13.883-28.815-21.288-59.49-7.404-30.675-7.404-62.279 0-35.614 10.836-70.29 10.837-34.677 26.856-67.479 16.538-34.308 29.423-69.57 12.885-35.262 12.885-72.661 0-27.371-5.885-53.647t-18.423-50.584l-32.462-66.231 34.308-18.308 33.77 67.001q13.883 28.815 21.287 59.49 7.405 30.675 7.405 62.279 0 36.568-10.837 71.26-10.836 34.692-26.855 67.509-16.539 34.308-29.423 69.058-12.885 34.75-12.885 72.173 0 27.371 5.885 53.647 5.884 26.276 18.423 50.584l32.461 66-34.308 18.308Zm-146.154 0-33.769-66.77q-13.883-28.815-21.288-59.49Q140-308.396 140-340q0-35.614 10.836-70.29 10.837-34.677 26.856-67.479 16.539-34.308 29.423-69.57Q220-582.601 220-620q0-27.634-5.5-54.163-5.5-26.529-18.808-50.068l-34.769-64.692 36.615-19.847 33.77 67.001q13.883 28.815 21.288 59.49Q260-651.604 260-620q0 36.568-10.837 71.26-10.836 34.692-26.855 67.509-16.539 34.308-29.423 69.058Q180-377.423 180-340q0 27.371 5.885 53.647 5.884 26.276 18.423 50.584l32.461 66-34.308 18.308Zm332.924-142.231V-100h-40v-760h40v193.692l150-148.231L713.693-786 535.385-607.692V-500h107.692l178.308-178.308 27.538 27.539L701.693-500h193.692v40H701.693l148.23 149.769-28.538 28.539L643.077-460H535.385v107.692L713.693-174l-27.539 27.539-150.769-147.231Z"/></svg>