<svg xmlns="http://www.w3.org/2000/svg" height="20" viewBox="0 -960 960 960" width="20"><path d="m188.782-122.022-44.913-90.587q-13.478-26.478-21.978-55.576-8.5-29.098-10.5-58.815-2-40.957 7.12-80.435 9.119-39.478 26.358-75.956 14.761-31.283 26.642-62.685 11.88-31.402 11.88-65.924 0-25.522-5.88-48.804-5.881-23.283-16.642-45.805l-46.434-93.869L188-837.739l46.913 93.348q15.478 31.478 23.478 64.576 8 33.098 8 67.815 0 36.717-11.119 71.696-11.12 34.978-26.359 68.456-13.761 31.283-24.641 62.805-10.881 31.521-9.881 66.043 1 24.522 6.881 47.304 5.88 22.783 16.641 44.305l45.435 92.108-74.566 37.261Zm157 0-44.913-90.587q-13.478-26.478-21.978-55.576-8.5-29.098-10.5-58.815-2-40.957 7.119-80.435 9.12-39.478 26.359-75.956 14.761-31.283 26.641-62.685 11.881-31.402 11.881-65.924 0-25.522-5.881-48.804-5.88-23.283-16.641-45.805l-46.435-93.869L345-837.739l46.913 93.348q15.478 31.478 23.478 64.576 8 33.098 8 67.815 0 36.717-11.119 71.696-11.12 34.978-26.359 68.456-13.761 31.283-24.641 62.805-10.881 31.521-9.881 66.043 1 24.522 6.881 47.304 5.88 22.783 16.641 44.305l45.435 92.108-74.566 37.261Zm227.783-130.13v159.739h-79.174v-775.174h79.174v159.739l125.413-125.174 56.261 54.783-181.674 181.674v76.978h76.979l180.434-180.435L887.239-645 761.826-519.587h159.739v79.174H761.826L887-316l-54.782 54.783-181.674-179.196h-76.979v76.978L754-183l-55.022 55.022-125.413-124.174Z"/></svg>