<svg xmlns="http://www.w3.org/2000/svg" height="20" viewBox="0 -960 960 960" width="20"><path d="m345.923-558.923 25.462 26.462q3.923 3.923 8.038 3.923 4.116 0 9.039-4.923 3.923-3.924 3.923-8.039t-3.923-9.039L363-576l24.692-25.461q3.923-3.924 4.308-8.039.385-4.115-3.538-9.039-4.923-3.923-9.039-3.923-4.115 0-8.038 3.923l-25.462 25.462-26.461-24.692q-3.923-3.923-8.039-4.308-4.115-.385-8.038 3.538-4.924 4.924-4.539 9.039.385 4.115 4.539 8.039L328.846-576l-26.461 26.461q-3.924 3.924-3.924 8.039t4.924 8.039q3.923 4.923 8.038 4.538 4.116-.385 9.039-4.538l25.461-25.462Zm269.154 0 25.461 25.692q3.923 3.923 8.039 4.308 4.115.385 9.038-4.538 3.924-3.924 3.924-8.039t-3.924-9.039L632.154-576l24.692-25.461q3.923-3.924 4.308-8.039.385-4.115-3.539-9.039-4.923-3.923-9.038-3.538-4.116.385-8.039 3.538l-25.461 25.462-26.462-25.462q-3.923-3.923-8.038-3.923-4.116 0-8.039 3.923-4.923 4.924-4.538 9.039.385 4.115 4.538 8.039L598-576l-26.462 26.461q-3.923 3.924-3.923 8.039t4.923 8.039q3.923 4.923 8.039 4.923 4.115 0 9.038-4.923l25.462-25.462ZM480-136q-71.539 0-134.231-26.538-62.692-26.539-109.692-73.539-47-47-73.539-109.692Q136-408.461 136-480q0-71.539 26.538-134.115 26.539-62.577 73.539-109.308 47-46.731 109.692-73.654Q408.461-824 480-824q71.539 0 134.115 26.923 62.577 26.923 109.308 73.654 46.731 46.731 73.654 109.308Q824-551.539 824-480q0 71.539-26.923 134.231-26.923 62.692-73.654 109.692-46.731 47-109.308 73.539Q551.539-136 480-136Zm0-344Zm0 312q130 0 221-90.5T792-480q0-130-91-221t-221-91q-131 0-221.5 91T168-480q0 131 90.5 221.5T480-168Zm0-235q-43.308 0-80.115 18-36.808 18-65.501 49.539-6.23 7.692-1.769 15.269 4.462 7.577 13.154 7.577h267.462q8.692 0 13.154-7.577 4.461-7.577-1.769-15.269Q595.923-367 559.231-385 522.539-403 480-403Z"/></svg>