<svg xmlns="http://www.w3.org/2000/svg" height="20" viewBox="0 -960 960 960" width="20"><path d="m349-542 17.111 16.8q7.333 7.2 17.111 7.2T400-525q7-7 7-16.778 0-9.778-7.2-17.111L383-576l17-17q7-7.364 7-17.182Q407-620 400-627q-7-7-16.778-7-9.778 0-17.111 7.2L349-610l-17-17q-7.364-7-17.182-7Q305-634 298-627q-7 7-7 17t7 17l17 17-16.8 17.111q-7.2 7.333-7.2 17.111T298-525q7 7 17 7t17-7l17-17Zm263 0 17 17q7.364 7 17.182 7Q656-518 663-525q7-7 7-16.778 0-9.778-7.2-17.111L646-576l17-17q7-7.364 7-17.182Q670-620 663-627q-7-7-17-7t-17 7l-17 17-17.111-16.8q-7.333-7.2-17.111-7.2T561-627q-7 7-7 17t7 17l17 17-16.8 17.111q-7.2 7.333-7.2 17.111T561-525q7 7 16.778 7 9.778 0 17.111-7.2L612-542ZM480.276-96Q401-96 331-126q-70-30-122.5-82.5T126-330.958q-30-69.959-30-149.5Q96-560 126-629.5t82.5-122Q261-804 330.958-834q69.959-30 149.5-30Q560-864 629.5-834t122 82.5Q804-699 834-629.276q30 69.725 30 149Q864-401 834-331q-30 70-82.5 122.5T629.276-126q-69.725 30-149 30Zm-.719-307Q429-403 384-380.5T309-318q-6 10-.5 20t16.5 10h310q11 0 16.5-10t-.667-20Q620-358 575.5-380.5T479.557-403Z"/></svg>