<svg xmlns="http://www.w3.org/2000/svg" height="24" viewBox="0 -960 960 960" width="24"><path d="m356-522 21 21.435Q385-492 397.5-492t21.5-9q8-8 8-20.5t-8-21.5l-21-21 22-23q8-8 7.5-20.5T419-629q-9-8-21.5-8t-20.5 8l-21 21-23.435-22q-8.565-8-21.065-7.5-12.5.5-20.935 8.935Q282-620 281.783-607.5 281.565-595 290-587l22 23-21.435 21.435Q282-534 282-521.5q0 12.5 9 20.935 8 8.565 20.5 8.782 12.5.218 21.065-8.217L356-522Zm248 0 23 22.435q8 8 20.5 7.782Q660-492 669-501q8-8 8-20.5t-8-21.5l-21-21 22-23q8-8 7.5-20.5t-8.935-21.5q-8.565-8-21.065-8.5-12.5-.5-20.5 7.935L604-608l-21.435-21q-8.565-8-21.065-8-12.5 0-20.935 8.435Q532-620 531.783-607.5 531.565-595 540-587l22 23-21.435 21.435Q532-534 532-521.5q0 12.5 9 20.5 8 9 20.5 9t21.5-9l21-21ZM480-60.782q-86.957 0-163.348-32.913-76.392-32.913-133.218-89.739-56.826-56.826-89.74-133.218Q60.783-393.043 60.783-480q0-86.957 32.913-163.131t89.739-133.218q56.826-57.043 133.218-89.956Q393.043-899.218 480-899.218q86.957 0 163.131 32.913t133.218 89.956q57.043 57.044 89.956 133.218Q899.218-566.957 899.218-480t-32.913 163.348q-32.913 76.392-89.956 133.218-57.044 56.826-133.218 89.74Q566.957-60.783 480-60.783ZM480-480Zm0 313.217q130.174 0 221.695-91.022Q793.217-348.826 793.217-480q0-130.174-91.522-221.695Q610.174-793.217 480-793.217q-131.174 0-222.195 91.522Q166.783-610.174 166.783-480q0 131.174 91.022 222.195Q348.826-166.783 480-166.783ZM480-420q-57 0-106.152 27.717-49.152 27.718-76.891 76.718-6.566 12.565.717 24.065 7.283 11.5 21.848 11.5h318.826q14 0 21.565-11.5 7.565-11.5 1.565-24.065Q633.174-364 584.522-392T480-420Z"/></svg>