<svg xmlns="http://www.w3.org/2000/svg" height="24" viewBox="0 -960 960 960" width="24"><path d="M610.524-508.695q-29.655 0-50.547-20.84-20.891-20.84-20.891-50.612 0-13.983 11.333-34.075 11.334-20.091 24.457-38.435 13.123-18.344 24.319-31.322l11.196-12.978 11.196 12.978q11.195 12.978 24.318 31.322 13.124 18.344 24.457 38.435 11.334 20.092 11.334 34.075 0 29.772-20.759 50.612-20.758 20.84-50.413 20.84ZM780.133-640q-29.655 0-50.546-20.84-20.892-20.84-20.892-50.612 0-13.983 11.334-34.075 11.333-20.091 24.456-38.435 13.124-18.344 24.319-31.322L780-828.262l11.196 12.978q11.195 12.978 24.319 31.322 13.123 18.344 24.456 38.435 11.334 20.092 11.334 34.075 0 29.772-20.759 50.612Q809.788-640 780.133-640Zm0 262.61q-29.655 0-50.546-20.84-20.892-20.84-20.892-50.612 0-13.984 11.334-34.075 11.333-20.091 24.456-38.435 13.124-18.344 24.319-31.322L780-565.652l11.196 12.978q11.195 12.978 24.319 31.322 13.123 18.344 24.456 38.435 11.334 20.091 11.334 34.075 0 29.772-20.759 50.612-20.758 20.84-50.413 20.84ZM342.521-100.782q-90.957 0-154.827-64.121-63.87-64.121-63.87-155.097 0-49.696 21-93.457 21-43.761 59-75.022V-720q0-58.008 40.47-98.613 40.469-40.605 98.283-40.605t98.466 40.605q40.653 40.605 40.653 98.613v231.521q38 31.261 59 75.022 21 43.761 21 93.457 0 90.976-64.109 155.097-64.108 64.121-155.066 64.121ZM229.826-320h225.868q0-31.261-14.478-57.674t-39.739-42.848l-25.783-17.782V-720q0-13.609-9.804-23.413t-23.413-9.804q-13.608 0-23.13 9.804-9.521 9.804-9.521 23.413v281.696l-25.217 17.782q-25.827 17-40.305 43.431Q229.826-350.66 229.826-320Z"/></svg>