<svg xmlns="http://www.w3.org/2000/svg" height="20" viewBox="0 -960 960 960" width="20"><path d="M618-536q-14.039 0-24.019-9.981Q584-555.961 584-570q0-5.846 3.5-14.039 3.5-8.192 8.785-16.423 5.284-8.231 11.142-15.807 5.858-7.577 10.473-12.962 4.615 5.385 10.473 12.962 5.858 7.576 11.242 15.807 5.385 8.231 8.885 16.423Q652-575.846 652-570q0 14.039-9.981 24.019Q632.039-536 618-536Zm144 108q-14.039 0-24.019-9.981Q728-447.961 728-462q0-5.846 3.5-14.039 3.5-8.192 8.785-16.423 5.284-8.231 11.142-15.807 5.858-7.577 10.473-12.962 4.615 5.385 10.473 12.962 5.858 7.576 11.242 15.807 5.385 8.231 8.885 16.423Q796-467.846 796-462q0 14.039-9.981 24.019Q776.039-428 762-428Zm0-216q-14.039 0-24.019-9.981Q728-663.961 728-678q0-5.846 3.5-14.039 3.5-8.192 8.785-16.423 5.284-8.231 11.142-15.807 5.858-7.577 10.473-12.962 4.615 5.385 10.473 12.962 5.858 7.576 11.242 15.807 5.385 8.231 8.885 16.423Q796-683.846 796-678q0 14.039-9.981 24.019Q776.039-644 762-644ZM389.928-184q-63.62 0-107.697-44.237Q238.154-272.474 238.154-336q0-43.846 22.5-80.846 22.5-37 61.5-56.616V-708q0-28.846 19.577-48.423T390.154-776q28.846 0 48.423 19.577T458.154-708v234.538q39 19.616 61.5 56.616t22.5 80.846q0 63.526-44.303 107.763T389.928-184ZM270.154-336h240q0-25.769-13.962-50.962-13.961-25.192-40.884-46.807L426.154-456v-252q0-15.3-10.29-25.65-10.289-10.35-25.5-10.35-15.21 0-25.71 10.35t-10.5 25.65v252L326-433.769q-26.923 22.615-41.385 48.307-14.461 25.693-14.461 49.462Z"/></svg>