<svg xmlns="http://www.w3.org/2000/svg" height="20" viewBox="0 -960 960 960" width="20"><path d="M347.789-672Q363-672 373.5-682.289q10.5-10.29 10.5-25.5Q384-723 373.711-733.5q-10.29-10.5-25.5-10.5Q333-744 322.5-733.711q-10.5 10.29-10.5 25.5Q312-693 322.289-682.5q10.29 10.5 25.5 10.5Zm120 0Q483-672 493.5-682.289q10.5-10.29 10.5-25.5Q504-723 493.711-733.5q-10.29-10.5-25.5-10.5Q453-744 442.5-733.711q-10.5 10.29-10.5 25.5Q432-693 442.289-682.5q10.29 10.5 25.5 10.5Zm11.739 432Q539-240 580.5-280.385 622-320.77 622-379q0-28-10.5-53.5T581-478l-101-98-99.529 98.129q-20.275 19.989-30.873 45.43Q339-407 339-378.957 339-321 380-280.5q41 40.5 99.528 40.5Zm.59-72Q451-312 430.5-331 410-350 410-378.667q0-14.333 5.5-25.833Q421-416 431-426l49.495-49L529-426q10.043 9.308 15.522 21.154Q550-393 550-378.667 550-350 529.618-331q-20.383 19-49.5 19ZM192-96v-768h576v768H192Z"/></svg>