<svg xmlns="http://www.w3.org/2000/svg" height="20" viewBox="0 -960 960 960" width="20"><path d="M351.377-663.63q16.645 0 28.341-11.321 11.695-11.321 11.695-28.056t-11.485-28.266q-11.485-11.531-28.13-11.531-16.646 0-28.222 11.32Q312-720.163 312-703.428t11.321 28.267q11.32 11.531 28.056 11.531Zm123.826 0q16.645 0 28.221-11.321T515-703.007q0-16.735-11.32-28.266-11.321-11.531-28.056-11.531-16.646 0-28.341 11.32-11.696 11.321-11.696 28.056t11.485 28.267q11.485 11.531 28.131 11.531Zm4.325 427.934q60.265 0 102.325-40.743 42.06-40.744 42.06-99.952 0-28.457-10.619-54.196-10.62-25.739-31.098-46.217L480-575.283l-100.721 98.725q-20.518 20.111-31.235 45.911-10.718 25.799-10.877 54.233-.319 58.762 41.312 99.74 41.631 40.978 101.049 40.978Zm.59-79.174q-26.826 0-45.722-17.395-18.896-17.396-18.896-43.771 0-13.115 5.022-23.519 5.022-10.403 14.065-19.51l45.669-45.174 44.679 45.413q9.326 8.59 14.445 19.121 5.12 10.531 5.12 23.669 0 26.275-18.778 43.721-18.778 17.445-45.604 17.445Zm-296.249 227V-872.13h592.262v784.262H183.869Zm83.001-83h426.26v-618.26H266.87v618.26Zm0 0v-618.26 618.26Z"/></svg>