<svg xmlns="http://www.w3.org/2000/svg" height="20" viewBox="0 -960 960 960" width="20"><path d="M422.001-116.001q-19.677 0-36.569-8.039-16.892-8.038-29.874-23.613L81.079-477l23.923-24.153q12.769-12.384 31.499-14.538 18.731-2.154 35.115 7l136.385 75.923v-385.616q0-11.05 7.419-18.524 7.418-7.475 18.384-7.475 10.966 0 18.581 7.475Q360-829.434 360-818.384v417.844q0 18.755-15.692 28.07-15.692 9.315-31.769.238l-146.387-85.002L396.63-180.63q5.147 5.907 11.72 9.268Q414.924-168 422.001-168h239.617q34.997 0 58.689-23.842Q744-215.685 744-250.001v-348q0-11.049 7.418-18.524Q758.836-624 769.802-624q10.966 0 18.581 7.475 7.616 7.475 7.616 18.524v348q0 56.154-38.923 95.077-38.923 38.923-95.077 38.923H422.001Zm31.462-360v-218q0-11.049 7.418-18.524Q468.299-720 479.265-720q10.966 0 18.581 7.475t7.615 18.524v218h-51.998Zm145.461 0v-165.877q0-11.026 7.418-18.651t18.384-7.625q10.966 0 18.581 7.475t7.615 18.525v166.153h-51.998Zm-143.54 143.386Z"/></svg>