<svg xmlns="http://www.w3.org/2000/svg" height="20" viewBox="0 -960 960 960" width="20"><path d="M412-62q-25 0-46-10.5T328-102L3-480l37-41q27-29 68.5-32t77.5 20l89 48v-377q0-20.3 14.289-34.65 14.29-14.35 34.5-14.35Q344-911 358.5-896.65T373-862v402h61v-259q0-20.3 14.289-34.65 14.29-14.35 34.5-14.35Q503-768 517.5-753.65T532-719v259h61v-178q0-20.3 14.289-34.65 14.29-14.35 34.5-14.35Q662-687 676.5-672.65T691-638v178h61v-120q0-20.3 14.289-34.65 14.29-14.35 34.5-14.35Q821-629 835.5-614.65T850-580v361q0 66-45.5 111.5T693-62H412Z"/></svg>