<svg xmlns="http://www.w3.org/2000/svg" height="20" viewBox="0 -960 960 960" width="20"><path d="M412-62q-25 0-46-10.5T328-102L3-480l37-41q27-29 68.5-32t77.5 20l89 48v-377q0-20.3 14.289-34.65 14.29-14.35 34.5-14.35Q344-911 358.5-896.65T373-862v444q0 35.234-30 52.117Q313-349 283-368l-112-65 238 269q1.416 1.867 3.305 2.933Q414.194-160 416-160h276.619q25.019 0 42.2-17.331Q752-194.663 752-219v-361q0-20.3 14.289-34.65 14.29-14.35 34.5-14.35Q821-629 835.5-614.65T850-580v361q0 66-45.5 111.5T693-62H412Zm22-360v-297.105q0-20.195 14.289-34.545 14.29-14.35 34.5-14.35Q503-768 517.5-753.65t14.5 34.545V-422h-98Zm159 0v-215.724Q593-658 607.289-672.5q14.29-14.5 34.5-14.5Q662-687 676.5-672.65T691-638v216h-98ZM462-310Z"/></svg>