<svg xmlns="http://www.w3.org/2000/svg" height="20" viewBox="0 -960 960 960" width="20"><path d="M432-136q-17.354 0-32.139-7.077-14.784-7.077-26.747-21.226L114.153-472 135-492.308q8.538-7.769 21.5-8.577 12.961-.808 24.731 4.5L328-418.539v-390.23q0-6.8 4.547-11.4 4.547-4.6 11.269-4.6t11.453 4.6q4.731 4.6 4.731 11.4v391.692q0 16.063-13.385 24.416-13.384 8.354-27.538 1.2l-181.769-105L399.26-184.26q6.747 7.614 15.167 11.937Q422.846-168 432-168h219.619q39.612 0 65.996-26.535Q744-221.069 744-260v-348q0-6.8 4.547-11.4 4.547-4.6 11.27-4.6 6.722 0 11.452 4.6Q776-614.8 776-608v348q0 52.308-35.846 88.154T652-136H432Zm34.923-360v-208q0-6.8 4.547-11.4 4.547-4.6 11.269-4.6 6.723 0 11.453 4.6 4.731 4.6 4.731 11.4v208h-32Zm138.923 0v-152.031q0-6.777 4.547-11.527 4.548-4.75 11.27-4.75 6.722 0 11.452 4.6 4.731 4.6 4.731 11.4V-496h-32ZM440.769-327.231Z"/></svg>