<svg xmlns="http://www.w3.org/2000/svg" height="20" viewBox="0 -960 960 960" width="20"><path d="M412-87.87q-22.717 0-42.196-9.358-19.478-9.359-34.195-26.837L37.239-481.522 66.63-512.63q19.392-19.87 47.957-23.251 28.565-3.38 53.152 12.011l117.152 67.783v-380.044q0-16.495 11.246-27.802 11.246-11.306 27.652-11.306 16.407 0 27.863 11.306 11.457 11.307 11.457 27.802v444q0 24.744-20.87 36.601-20.869 11.856-41.739-1.057l-111.239-65 208.326 247.696q3.036 3.642 7.085 5.723 4.048 2.081 8.285 2.081h263.684q29.099 0 49.185-20.237 20.087-20.237 20.087-48.654v-351.109q0-16.496 11.246-27.802 11.246-11.307 27.652-11.307 16.407 0 27.863 11.307 11.457 11.306 11.457 27.802v351.109q0 61.435-42.837 104.272T677.022-87.869H412Zm26.565-359.999v-244.526q0-16.47 11.246-27.777 11.246-11.307 27.652-11.307 16.407 0 27.863 11.307 11.457 11.307 11.457 27.777v244.526h-78.218Zm153.674 0v-188.333q0-16.472 11.246-27.928 11.246-11.457 27.652-11.457 16.407 0 27.863 11.306 11.457 11.307 11.457 27.803v188.609h-78.218ZM468.087-331.304Z"/></svg>