<svg xmlns="http://www.w3.org/2000/svg" height="20" viewBox="0 -960 960 960" width="20"><path d="M412-96q-22 0-41-9t-33-26L48-482l27-28q17-17 41.5-20.5T162-521l126 74v-381q0-15.3 10.289-25.65 10.29-10.35 25.5-10.35Q339-864 349.5-853.65 360-843.3 360-828v320h80v-176q0-15.3 10.289-25.65 10.29-10.35 25.5-10.35Q491-720 501.5-709.65 512-699.3 512-684v176h80v-128q0-15.3 10.289-25.65 10.29-10.35 25.5-10.35Q643-672 653.5-661.65 664-651.3 664-636v128h80v-80q0-15.3 10.289-25.65 10.29-10.35 25.5-10.35Q795-624 805.5-613.65 816-603.3 816-588v348q0 60-42 102T672-96H412Z"/></svg>