<svg xmlns="http://www.w3.org/2000/svg" height="20" viewBox="0 -960 960 960" width="20"><path d="M225.788-146Q189-146 163.5-171.212q-25.5-25.213-25.5-62Q138-270 163.712-295.5q25.713-25.5 62.5-25.5Q263-321 288-295.288q25 25.713 25 62.5Q313-196 287.788-171q-25.213 25-62 25Zm349 0Q538-146 513-171.212q-25-25.213-25-62Q488-270 513.212-295.5q25.213-25.5 62-25.5Q612-321 637-295.288q25 25.713 25 62.5Q662-196 636.788-171q-25.213 25-62 25Zm-175-159Q363-305 338-330.712q-25-25.713-25-62.5Q313-430 338.212-455q25.213-25 62-25Q437-480 462.5-454.788q25.5 25.213 25.5 62Q488-356 462.288-330.5q-25.713 25.5-62.5 25.5Zm334 0Q697-305 672-330.712q-25-25.713-25-62.5Q647-430 672.212-455q25.213-25 62-25Q771-480 796.5-454.788q25.5 25.213 25.5 62Q822-356 796.288-330.5q-25.713 25.5-62.5 25.5Zm-508-175Q189-480 163.5-505.212q-25.5-25.213-25.5-62Q138-604 163.712-629.5q25.713-25.5 62.5-25.5Q263-655 288-629.288q25 25.713 25 62.5Q313-530 287.788-505q-25.213 25-62 25Zm349 0Q538-480 513-505.212q-25-25.213-25-62Q488-604 513.212-629.5q25.213-25.5 62-25.5Q612-655 637-629.288q25 25.713 25 62.5Q662-530 636.788-505q-25.213 25-62 25Zm-175-159Q363-639 338-664.712q-25-25.713-25-62.5Q313-764 338.212-789q25.213-25 62-25Q437-814 462.5-788.788q25.5 25.213 25.5 62Q488-690 462.288-664.5q-25.713 25.5-62.5 25.5Zm334 0Q697-639 672-664.712q-25-25.713-25-62.5Q647-764 672.212-789q25.213-25 62-25Q771-814 796.5-788.788q25.5 25.213 25.5 62Q822-690 796.288-664.5q-25.713 25.5-62.5 25.5Z"/></svg>