<svg xmlns="http://www.w3.org/2000/svg" height="24" viewBox="0 -960 960 960" width="24"><path d="M327-86q-101 0-171-70T86-327v-306q0-101 70-171t171-70h306q101 0 171 70t70 171v306q0 101-70 171T633-86H327Zm-.143-126h306.286Q681-212 714.5-245.5t33.5-81.357v-306.286Q748-681 714.5-714.5T633.143-748H326.857Q279-748 245.5-714.5T212-633.143v306.286Q212-279 245.5-245.5t81.357 33.5Zm153.084-50Q557-262 611-315.735q54-53.736 54-130.5Q665-523 611.059-577q-53.941-54-131-54T349-577.059q-54 53.941-54 131T348.941-315.5q53.941 53.5 131 53.5Zm.327-95Q443-357 417-382.937q-26-25.936-26-63.5Q391-484 416.937-509.5q25.936-25.5 63.5-25.5Q518-535 543.5-509.268q25.5 25.733 25.5 63Q569-409 543.268-383q-25.733 26-63 26ZM480-649q17 0 28.5-11.5T520-689q0-17-11.5-28.5T480-729q-17 0-28.5 11.5T440-689q0 17 11.5 28.5T480-649Zm0 203Z"/></svg>