<svg xmlns="http://www.w3.org/2000/svg" height="20" viewBox="0 -960 960 960" width="20"><path d="M339.957-124.782q-89.855 0-152.515-62.66-62.66-62.66-62.66-152.515v-280.086q0-89.855 62.66-152.515 62.66-62.66 152.515-62.66h280.086q89.855 0 152.515 62.66 62.66 62.66 62.66 152.515v280.086q0 89.855-62.66 152.515-62.66 62.66-152.515 62.66H339.957Zm-.081-98.001h280.248q48.789 0 82.941-34.152t34.152-82.941v-280.248q0-48.789-34.152-82.941t-82.941-34.152H339.876q-48.789 0-82.941 34.152t-34.152 82.941v280.248q0 48.789 34.152 82.941t82.941 34.152Zm140.15-66.043q69.104 0 117.452-47.948t48.348-116.446q0-68.914-48.373-117.303-48.374-48.39-117.479-48.39-69.104 0-117.452 48.374-48.348 48.373-48.348 117.478 0 69.105 48.373 116.67 48.374 47.565 117.479 47.565Zm.28-80.478q-35.48 0-60.284-24.41-24.804-24.409-24.804-59.76 0-35.352 24.613-59.873 24.614-24.522 60.261-24.522 35.647 0 60.169 24.498 24.521 24.498 24.521 59.978 0 35.48-24.498 59.784-24.498 24.305-59.978 24.305Zm-.517-272.478q15.211 0 25.711-10.29 10.5-10.289 10.5-25.5 0-15.21-10.289-25.71-10.29-10.5-25.5-10.5-15.211 0-25.711 10.289-10.5 10.29-10.5 25.5 0 15.211 10.289 25.711 10.29 10.5 25.5 10.5ZM480-453.087Z"/></svg>