<svg xmlns="http://www.w3.org/2000/svg" height="24" viewBox="0 -960 960 960" width="24"><path d="M314-172q-58.93 0-100.465-41.535Q172-255.07 172-314v-332q0-58.93 41.535-100.465Q255.07-788 314-788h332q58.93 0 100.465 41.535Q788-704.93 788-646v332q0 58.93-41.535 100.465Q704.93-172 646-172H314Zm0-28h332q47.5 0 80.75-33.25T760-314v-332q0-47.5-33.25-80.75T646-760H314q-47.5 0-80.75 33.25T200-646v332q0 47.5 33.25 80.75T314-200Zm166.059-113Q543-313 587-357.059t44-107Q631-527 586.941-571t-107-44Q417-615 373-570.941t-44 107Q329-401 373.059-357t107 44ZM480-341q-51 0-87-36t-36-87q0-51 36-87t87-36q51 0 87 36t36 87q0 51-36 87t-87 36Zm.07-318q11.93 0 19.93-8.07t8-20q0-11.93-8.07-19.93t-20-8Q468-715 460-706.93t-8 20q0 11.93 8.07 19.93t20 8ZM480-464Z"/></svg>