<svg xmlns="http://www.w3.org/2000/svg" height="24" viewBox="0 -960 960 960" width="24"><path d="M220.782-753.217v-40q0-44.305 30.848-75.153 30.848-30.848 75.153-30.848h306.434q44.305 0 75.153 30.848 30.848 30.848 30.848 75.153v40H220.782ZM480-343.391q22.174 0 37.695-15.522 15.522-15.522 15.522-37.696 0-22.173-15.522-37.695-15.521-15.522-37.695-15.522t-37.695 15.522q-15.522 15.522-15.522 37.695 0 22.174 15.522 37.696 15.521 15.522 37.695 15.522ZM300.782-166.783v-340.216l-62.478-93.217q-9.435-13.34-13.479-28.015-4.043-14.674-4.043-30.682v-14.304h518.436v14.304q0 16.008-4.043 30.682-4.044 14.675-13.479 28.015l-62.478 93.217v340.216q0 44.305-30.848 75.153-30.848 30.848-75.153 30.848H406.783q-44.305 0-75.153-30.848-30.848-30.848-30.848-75.153Z"/></svg>