<svg xmlns="http://www.w3.org/2000/svg" height="24" viewBox="0 -960 960 960" width="24"><path d="M280-740v-35.385q0-26.654 18.981-45.634Q317.961-840 344.615-840h270.77q26.654 0 45.634 18.981Q680-802.039 680-775.385V-740H280Zm199.91 380q16.629 0 28.359-11.64Q520-383.28 520-399.91q0-16.629-11.64-28.359Q496.72-440 480.09-440q-16.629 0-28.359 11.64Q440-416.72 440-400.09q0 16.629 11.64 28.359Q463.28-360 479.91-360ZM360-184.615v-347.693l-69.308-103.846q-5.461-8.461-8.077-17.221Q280-662.136 280-671.692V-700h400v28.308q0 9.556-2.615 18.317-2.616 8.76-8.077 17.221L600-532.308v347.693q0 26.654-18.981 45.634Q562.039-120 535.385-120h-110.77q-26.654 0-45.634-18.981Q360-157.961 360-184.615Z"/></svg>