<svg xmlns="http://www.w3.org/2000/svg" height="24" viewBox="0 -960 960 960" width="24"><path d="M292-734v-34q0-24.75 17.625-42.375T352-828h256q24.75 0 42.375 17.625T668-768v34H292Zm187.882 368Q494-366 504-375.882q10-9.883 10-24Q514-414 504.118-424q-9.883-10-24-10Q466-434 456-424.118q-10 9.883-10 24Q446-386 455.882-376q9.883 10 24 10ZM372-192v-344l-70-105q-5-8-7.5-16.088Q292-665.176 292-674v-32h376v32q0 8.824-2.5 16.912T658-641l-70 105v344q0 24.75-17.625 42.375T528-132h-96q-24.75 0-42.375-17.625T372-192Z"/></svg>