<svg xmlns="http://www.w3.org/2000/svg" height="24" viewBox="0 -960 960 960" width="24"><path d="M540-460v140q0 8.5 5.758 14.25 5.757 5.75 14.269 5.75t14.242-5.75Q580-311.5 580-320v-320q0-8.5-5.758-14.25-5.757-5.75-14.269-5.75t-14.242 5.75Q540-648.5 540-640v140H420v-140q0-8.5-5.758-14.25-5.757-5.75-14.269-5.75t-14.242 5.75Q380-648.5 380-640v147.692q0 13.731 9.288 23.02 9.289 9.288 23.02 9.288H540ZM224.615-160Q197-160 178.5-178.5 160-197 160-224.615v-510.77Q160-763 178.5-781.5 197-800 224.615-800h510.77Q763-800 781.5-781.5 800-763 800-735.385v510.77Q800-197 781.5-178.5 763-160 735.385-160h-510.77Z"/></svg>