<svg xmlns="http://www.w3.org/2000/svg" height="20" viewBox="0 -960 960 960" width="20"><path d="M516-250.001q40.384 0 69.192-28.807 28.807-28.808 28.807-69.192H561.82q0 19.146-13.213 32.574-13.214 13.427-32.747 13.427-14.937 0-27.63-9.923-12.692-9.924-16.461-24.616-7.699-27.216-20.273-48.954t-28.42-36.584l-30-28q-21.538-19.539-32.307-42.078-10.77-22.538-10.77-47.846 0-49.56 34.397-83.781 34.398-34.22 83.604-34.22 37.231 0 67.616 22.693 30.385 22.692 43.769 58.923h54.614q-7-57.384-54.017-95.499Q532.965-709.999 468-709.999q-70.833 0-120.416 49.423-49.583 49.422-49.583 120.559 0 36.094 12.73 67.171 12.731 31.076 37.577 52.922l37.616 33.616q12.769 11.769 21.538 26.731 8.769 14.961 14.154 36.115 9.904 35.129 34.746 54.295 24.843 19.166 59.638 19.166Zm24-162q20.384 0 35.192-14.583 14.807-14.583 14.807-35.416 0-20.384-14.807-35.192-14.808-14.807-35.788-14.807-20.173 0-34.788 14.807-14.615 14.808-14.615 35.788 0 20.173 14.583 34.788 14.583 14.615 35.416 14.615Zm-59.933 296q-75.211 0-141.392-28.42t-115.994-78.21q-49.814-49.791-78.247-116.087t-28.433-141.673q0-75.378 28.42-141.746 28.42-66.369 78.21-115.682 49.791-49.314 116.087-77.747t141.673-28.433q75.378 0 141.753 28.66 66.374 28.66 115.473 77.79 49.099 49.131 77.74 115.549 28.642 66.417 28.642 141.933 0 75.211-28.42 141.392t-77.71 115.994q-49.291 49.814-115.76 78.247-66.468 28.433-142.042 28.433Zm.391-51.999q130.458 0 221-91T792-480.458q0-130.458-90.542-221t-221-90.542Q350-792 259-701.458t-91 221Q168-350 259-259t221.458 91Z"/></svg>