<svg xmlns="http://www.w3.org/2000/svg" height="20" viewBox="0 -960 960 960" width="20"><path d="M516-227q50 0 85.5-35.292Q637-297.583 637-348h-98.18q0 9.3-6.639 16.15-6.638 6.85-16.452 6.85Q509-325 502-331q-7-6-8-13-9-31-23-54.5T439-438l-30-29q-18.065-15.778-27.032-33.889Q373-519 373-539.742q0-40.618 27.82-67.938T468.316-635q28.128 0 51.906 15.5T557-578h100q-7-67-60.732-111-53.731-44-127.78-44Q388-733 331.5-677T275-540q0 40.49 14.5 75.745T332-404l38 34q10 9 18 22t12 32q12 43 42.5 66t73.5 23Zm29-175q25 0 42.5-17.5T605-462q0-25-17.5-42.5T544.51-522q-24.51 0-42.01 17.5Q485-487 485-461.51q0 24.51 17.5 42.01Q520-402 545-402ZM480-62q-87.376 0-163.175-32.584-75.8-32.583-132.729-89.512-56.929-56.929-89.512-132.875Q62-392.917 62-480.458 62-568 94.584-643.987q32.583-75.988 89.512-132.417t132.875-89.012Q392.917-898 480.458-898q87.542 0 163.536 32.824 75.993 32.823 132.208 89.092 56.214 56.269 89.006 132.337Q898-567.68 898-480q0 87.376-32.584 163.175-32.583 75.8-89.012 132.729-56.429 56.929-132.548 89.512Q567.738-62 480-62Zm.458-118q126.458 0 213-87T780-480.458q0-126.458-86.542-213t-213-86.542Q354-780 267-693.458t-87 213Q180-354 267-267t213.458 87Z"/></svg>