<svg xmlns="http://www.w3.org/2000/svg" height="24" viewBox="0 -960 960 960" width="24"><path d="M520-227q56 0 94.5-38.792Q653-304.583 653-360H547q0 11-7.763 19-7.762 8-19.237 8-8 0-15-5.5T495-352q-7-20-16.5-37.5T454-421l-54-55q-13.065-12.778-20.032-29.389Q373-522 373-539.742 373-577 398.5-602t61.816-25q31.128 0 54.906 18T546-562h106q-8-74-62.732-122.5-54.731-48.5-128.78-48.5Q380-733 323.5-677T267-540q0 39.49 15 75.245T325-401l55 55q5 5 8.5 12.5T394-318q14 41 48.5 66t77.5 25Zm25-173q26 0 43-17.5t17-42.5q0-26-17-43t-43-17q-25 0-42.5 17T485-460q0 25 17.5 42.5T545-400ZM480-46q-91 0-169.987-34.084-78.988-34.083-137.417-92.512T80.084-310.013Q46-389 46-480t34.084-169.987q34.083-78.988 92.512-137.417t137.417-92.512Q389-914 480-914t169.987 34.084q78.988 34.083 137.417 92.512t92.512 137.417Q914-571 914-480t-34.084 169.987q-34.083 78.988-92.512 137.417T649.987-80.084Q571-46 480-46Zm0-126q130 0 219-89t89-219q0-130-89-219t-219-89q-130 0-219 89t-89 219q0 130 89 219t219 89Z"/></svg>