<svg xmlns="http://www.w3.org/2000/svg" height="20" viewBox="0 -960 960 960" width="20"><path d="M110-161v-571q0-49.7 34.15-83.85Q178.3-850 228-850h571q21.675 0 36.338 14.602Q850-820.796 850-799.211q0 21.586-14.662 36.399Q820.675-748 799-748H212v587q0 21.675-14.602 36.338Q182.796-110 161.211-110q-21.586 0-36.399-14.662Q110-139.325 110-161Zm689.211-428q-21.586 0-36.399-14.602Q748-618.204 748-639.789q0-21.586 14.602-36.399Q777.204-691 798.789-691q21.586 0 36.399 14.602Q850-661.796 850-640.211q0 21.586-14.602 36.399Q820.796-589 799.211-589Zm0 160q-21.586 0-36.399-14.602Q748-458.204 748-479.789q0-21.586 14.602-36.399Q777.204-531 798.789-531q21.586 0 36.399 14.602Q850-501.796 850-480.211q0 21.586-14.602 36.399Q820.796-429 799.211-429Zm0 159q-21.586 0-36.399-14.602Q748-299.204 748-320.789q0-21.586 14.602-36.399Q777.204-372 798.789-372q21.586 0 36.399 14.602Q850-342.796 850-321.211q0 21.586-14.602 36.399Q820.796-270 799.211-270Zm-478 160q-21.586 0-36.399-14.602Q270-139.204 270-160.789q0-21.586 14.602-36.399Q299.204-212 320.789-212q21.586 0 36.399 14.602Q372-182.796 372-161.211q0 21.586-14.602 36.399Q342.796-110 321.211-110Zm159 0q-21.586 0-36.399-14.602Q429-139.204 429-160.789q0-21.586 14.602-36.399Q458.204-212 479.789-212q21.586 0 36.399 14.602Q531-182.796 531-161.211q0 21.586-14.602 36.399Q501.796-110 480.211-110Zm160 0q-21.586 0-36.399-14.602Q589-139.204 589-160.789q0-21.586 14.602-36.399Q618.204-212 639.789-212q21.586 0 36.399 14.602Q691-182.796 691-161.211q0 21.586-14.602 36.399Q661.796-110 640.211-110Zm159 0q-21.586 0-36.399-14.602Q748-139.204 748-160.789q0-21.586 14.602-36.399Q777.204-212 798.789-212q21.586 0 36.399 14.602Q850-182.796 850-161.211q0 21.586-14.602 36.399Q820.796-110 799.211-110Z"/></svg>