<svg xmlns="http://www.w3.org/2000/svg" height="20" viewBox="0 -960 960 960" width="20"><path d="M480-280q-49.308 0-98.231-3.731-48.923-3.73-99-10.961-21.385-4.231-36.077-19.615Q232-329.692 232-351.077V-358q-45.846-6.692-75.616-41.308-29.769-34.615-29.769-80.692 0-46.846 29.769-80.962 29.77-34.115 75.616-40.807v-18.539q0-24.615 18.692-41t44.846-14.846q19.077 1.538 36.385 3.731 17.308 2.192 36.385 4.192 28.23 1.231 55.346 2.731Q450.769-664 479-664q24.385 0 47.269-1.5 22.885-1.5 47.27-2.731 23.692-2 46.615-3.808 22.923-1.807 45.846-4.115 25.385-2.308 43.693 14.077Q728-645.693 728-620.308v18.539q45.846 6.692 75.616 41.192 29.769 34.5 29.769 80.577t-29.769 81.077q-29.77 35-75.616 41.692v6.923q0 20.616-14.807 36.001-14.808 15.384-36.193 19.615-49.308 6.461-98.115 10.577Q530.077-280 480-280Zm0-100q31.231 0 62.577-4 31.346-4 61.808-12 4.769-1.692 8.423-7.769t1.961-11.616q-1.692-5.538-7.769-9.307-6.077-3.77-11.615-1.077Q567.615-418 538.577-415q-29.039 3-58.577 3-30.538 0-59.192-3.269-28.654-3.27-56.423-11.27-5.539-2.692-11.616 1.347-6.077 4.038-7.769 10.577-1.692 5.538 1.961 11.615 3.654 6.077 9.193 7.769Q386.615-388 417.577-384q30.961 4 62.423 4Zm-248-8.154v-183.461q-32 8-52.692 33.307Q158.615-513 158.615-480q0 32.231 20.693 58.038Q200-396.154 232-388.154Zm496 0q31.769-8 52.577-33.808 20.808-25.807 20.808-58.038 0-33.769-20.808-58.692-20.808-24.923-52.577-32.923v183.461ZM480-512q31.231 0 62.577-4 31.346-4 61.808-12 4.769-1.692 8.423-7.769t1.961-11.616q-1.692-5.538-7.769-9.307-6.077-3.77-11.615-1.077Q567.615-550 538.577-547q-29.039 3-58.577 3-30.538 0-59.192-2.885-28.654-2.884-56.423-11.654-5.539-2.692-11.616 1.847-6.077 4.538-7.769 9.307-1.692 5.539 1.961 11.616 3.654 6.077 8.424 7.769 30.461 8 61.807 12 31.346 4 62.808 4Z"/></svg>