<svg xmlns="http://www.w3.org/2000/svg" height="24" viewBox="0 -960 960 960" width="24"><path d="M300-360.769q14.692 0 25.038-10.346t10.346-25.039q0-14.692-10.346-25.038T300-431.538q-14.692 0-25.038 10.346t-10.346 25.038q0 14.693 10.346 25.039 10.346 10.346 25.038 10.346Zm60-120q14.692 0 25.038-10.346t10.346-25.039q0-14.692-10.346-25.038T360-551.538q-14.692 0-25.038 10.346t-10.346 25.038q0 14.693 10.346 25.039 10.346 10.346 25.038 10.346Zm0 240q14.692 0 25.038-10.346t10.346-25.039q0-14.692-10.346-25.038T360-311.538q-14.692 0-25.038 10.346t-10.346 25.038q0 14.693 10.346 25.039 10.346 10.346 25.038 10.346Zm60-120q14.692 0 25.038-10.346t10.346-25.039q0-14.692-10.346-25.038T420-431.538q-14.692 0-25.038 10.346t-10.346 25.038q0 14.693 10.346 25.039 10.346 10.346 25.038 10.346Zm0-240q14.692 0 25.038-10.346t10.346-25.039q0-14.692-10.346-25.038T420-671.538q-14.692 0-25.038 10.346t-10.346 25.038q0 14.693 10.346 25.039 10.346 10.346 25.038 10.346Zm60 120q14.692 0 25.038-10.346t10.346-25.039q0-14.692-10.346-25.038T480-551.538q-14.692 0-25.038 10.346t-10.346 25.038q0 14.693 10.346 25.039 10.346 10.346 25.038 10.346Zm0 240q14.692 0 25.038-10.346t10.346-25.039q0-14.692-10.346-25.038T480-311.538q-14.692 0-25.038 10.346t-10.346 25.038q0 14.693 10.346 25.039 10.346 10.346 25.038 10.346Zm60-120q14.692 0 25.038-10.346t10.346-25.039q0-14.692-10.346-25.038T540-431.538q-14.692 0-25.038 10.346t-10.346 25.038q0 14.693 10.346 25.039 10.346 10.346 25.038 10.346Zm0-240q14.692 0 25.038-10.346t10.346-25.039q0-14.692-10.346-25.038T540-671.538q-14.692 0-25.038 10.346t-10.346 25.038q0 14.693 10.346 25.039 10.346 10.346 25.038 10.346Zm60 120q14.692 0 25.038-10.346t10.346-25.039q0-14.692-10.346-25.038T600-551.538q-14.692 0-25.038 10.346t-10.346 25.038q0 14.693 10.346 25.039 10.346 10.346 25.038 10.346Zm0 240q14.692 0 25.038-10.346t10.346-25.039q0-14.692-10.346-25.038T600-311.538q-14.692 0-25.038 10.346t-10.346 25.038q0 14.693 10.346 25.039 10.346 10.346 25.038 10.346Zm60-120q14.692 0 25.038-10.346t10.346-25.039q0-14.692-10.346-25.038T660-431.538q-14.692 0-25.038 10.346t-10.346 25.038q0 14.693 10.346 25.039 10.346 10.346 25.038 10.346ZM479.929-100.001q-128.467 0-214.197-88.268Q180.001-276.537 180.001-408q0-93.076 74.5-204.037Q329.001-722.999 480-853.844q150.999 130.845 225.499 241.807 74.5 110.961 74.5 204.037 0 131.463-85.801 219.731-85.802 88.268-214.269 88.268ZM480-160q104 0 172-70.5T720-408q0-73-60.5-165T480-774Q361-665 300.5-573T240-408q0 107 68 177.5T480-160Zm0-316.923Z"/></svg>