<svg xmlns="http://www.w3.org/2000/svg" height="24" viewBox="0 -960 960 960" width="24"><path d="M304.254-360q16.572 0 27.833-11.211 11.261-11.21 11.261-27.782t-11.211-27.833q-11.21-11.261-27.782-11.261t-27.833 11.211q-11.261 11.21-11.261 27.782t11.21 27.833Q287.682-360 304.254-360Zm58.565-117.13q16.572 0 27.833-11.211 11.261-11.21 11.261-27.782 0-16.573-11.21-27.833-11.211-11.261-27.783-11.261-16.572 0-27.833 11.21-11.261 11.211-11.261 27.783 0 16.572 11.211 27.833 11.21 11.261 27.782 11.261Zm0 234.26q16.572 0 27.833-11.21 11.261-11.211 11.261-27.783 0-16.572-11.21-27.833-11.211-11.261-27.783-11.261-16.572 0-27.833 11.211t-11.261 27.783q0 16.572 11.211 27.833 11.21 11.26 27.782 11.26ZM421.384-360q16.573 0 27.833-11.211 11.261-11.21 11.261-27.782t-11.21-27.833q-11.211-11.261-27.783-11.261-16.572 0-27.833 11.211-11.261 11.21-11.261 27.782t11.211 27.833Q404.812-360 421.384-360Zm0-234.261q16.573 0 27.833-11.21 11.261-11.211 11.261-27.783 0-16.572-11.21-27.833-11.211-11.261-27.783-11.261-16.572 0-27.833 11.211-11.261 11.21-11.261 27.782 0 16.573 11.211 27.833 11.21 11.261 27.782 11.261ZM479.95-477.13q16.572 0 27.833-11.211 11.26-11.21 11.26-27.782 0-16.573-11.21-27.833-11.211-11.261-27.783-11.261-16.572 0-27.833 11.21-11.26 11.211-11.26 27.783 0 16.572 11.21 27.833 11.211 11.261 27.783 11.261Zm0 234.26q16.572 0 27.833-11.21 11.26-11.211 11.26-27.783 0-16.572-11.21-27.833-11.211-11.261-27.783-11.261-16.572 0-27.833 11.211-11.26 11.211-11.26 27.783 0 16.572 11.21 27.833 11.211 11.26 27.783 11.26ZM538.515-360q16.572 0 27.833-11.211 11.261-11.21 11.261-27.782t-11.211-27.833q-11.21-11.261-27.782-11.261-16.573 0-27.833 11.211-11.261 11.21-11.261 27.782t11.21 27.833Q521.943-360 538.515-360Zm0-234.261q16.572 0 27.833-11.21 11.261-11.211 11.261-27.783 0-16.572-11.211-27.833-11.21-11.261-27.782-11.261-16.573 0-27.833 11.211-11.261 11.21-11.261 27.782 0 16.573 11.21 27.833 11.211 11.261 27.783 11.261ZM597.08-477.13q16.572 0 27.833-11.211 11.261-11.21 11.261-27.782 0-16.573-11.211-27.833-11.21-11.261-27.782-11.261t-27.833 11.21q-11.261 11.211-11.261 27.783 0 16.572 11.21 27.833 11.211 11.261 27.783 11.261Zm0 234.26q16.572 0 27.833-11.21 11.261-11.211 11.261-27.783 0-16.572-11.211-27.833-11.21-11.261-27.782-11.261t-27.833 11.211q-11.261 11.211-11.261 27.783 0 16.572 11.21 27.833 11.211 11.26 27.783 11.26ZM655.645-360q16.572 0 27.833-11.211 11.261-11.21 11.261-27.782t-11.21-27.833q-11.211-11.261-27.783-11.261-16.572 0-27.833 11.211-11.261 11.21-11.261 27.782t11.211 27.833Q639.073-360 655.645-360ZM480-71.87q-140.481 0-234.306-96.329Q151.869-264.53 151.869-408q0-101.913 81.413-221.924Q314.696-749.935 480-890.522q165.304 140.587 246.718 260.598Q808.131-509.913 808.131-408q0 143.47-93.825 239.801Q620.481-71.869 480-71.869Zm.033-91q102.771 0 169.934-69.684T717.13-408q0-71.326-59.543-162.011Q598.043-660.696 480-769.696q-118.043 109-177.587 199.685Q242.87-479.326 242.87-408q0 105.762 67.196 175.446t169.967 69.684ZM480-481.196Z"/></svg>