<svg xmlns="http://www.w3.org/2000/svg" height="20" viewBox="0 -960 960 960" width="20"><path d="M196-553.96v-183.757q0-11.033 7.463-18.658Q210.927-764 221.96-764h183.757q11.033 0 18.658 7.463Q432-749.073 432-738.04v183.757q0 11.033-7.463 18.658Q417.073-528 406.04-528H222.283q-11.033 0-18.658-7.463Q196-542.927 196-553.96Zm20 5.96h196v-196H216v196Zm-20 326.04v-183.757q0-11.033 7.463-18.658Q210.927-432 221.96-432h183.757q11.033 0 18.658 7.463Q432-417.073 432-406.04v183.757q0 11.033-7.463 18.658Q417.073-196 406.04-196H222.283q-11.033 0-18.658-7.463Q196-210.927 196-221.96Zm20 5.96h196v-196H216v196Zm312-337.96v-183.757q0-11.033 7.463-18.658Q542.927-764 553.96-764h183.757q11.033 0 18.658 7.463Q764-749.073 764-738.04v183.757q0 11.033-7.463 18.658Q749.073-528 738.04-528H554.283q-11.033 0-18.658-7.463Q528-542.927 528-553.96Zm20 5.96h196v-196H548v196Zm157 352v-59h59v59h-59ZM528-373v-59h59v59h-59Zm59 59v-59h59v59h-59Zm-59 59v-59h59v59h-59Zm59 59v-59h59v59h-59Zm59-59v-59h59v59h-59Zm0-118v-59h59v59h-59Zm59 59v-59h59v59h-59Z"/></svg>