<svg xmlns="http://www.w3.org/2000/svg" height="20" viewBox="0 -960 960 960" width="20"><path d="M117.999-576.96v-215.758q0-20.37 14.295-34.827 14.295-14.456 34.665-14.456h215.757q20.371 0 34.827 14.295Q432-813.411 432-793.041v215.757q0 20.371-14.295 34.827Q403.41-528 383.04-528H167.282q-20.37 0-34.827-14.295-14.456-14.295-14.456-34.665ZM216-626.001h117.999V-744H216v117.999Zm-98.001 459.042v-215.757q0-20.371 14.295-34.827Q146.589-432 166.959-432h215.757q20.371 0 34.827 14.295Q432-403.41 432-383.04v215.758q0 20.37-14.295 34.827-14.295 14.456-34.665 14.456H167.282q-20.37 0-34.827-14.295-14.456-14.295-14.456-34.665ZM216-216h117.999v-117.999H216V-216Zm312-360.96v-215.758q0-20.37 14.295-34.827 14.295-14.456 34.665-14.456h215.758q20.37 0 34.827 14.295 14.456 14.295 14.456 34.665v215.757q0 20.371-14.295 34.827Q813.411-528 793.041-528H577.284q-20.371 0-34.827-14.295Q528-556.59 528-576.96Zm98.001-49.041H744V-744H626.001v117.999Zm137.783 508.002v-78.783h78.217v78.783h-78.217ZM528-353.782V-432h78.783v78.218H528Zm78.783 78.783v-78.783h78.218v78.783h-78.218ZM528-196.782v-78.217h78.783v78.217H528Zm78.783 78.783v-78.783h78.218v78.783h-78.218Zm78.218-78.783v-78.217h78.783v78.217h-78.783Zm0-157V-432h78.783v78.218h-78.783Zm78.783 78.783v-78.783h78.217v78.783h-78.217Z"/></svg>