<svg xmlns="http://www.w3.org/2000/svg" height="24" viewBox="0 -960 960 960" width="24"><path d="M480-93.847 323.847-250l42.768-42.768 83.386 83.385v-240.618l-240.003-.615 83.386 83.385L250-323.847 93.847-480l155.538-155.537 42.768 42.768-82.77 82.77h240.618v-240.618l-83.386 83.385L323.847-710 480-866.153 636.153-710l-42.768 42.768-83.386-83.385v240.618l240.003.615-83.386-83.385L710-636.153 866.153-480 710-323.847l-42.768-42.768 83.385-83.386H509.999l-.615 240.003 83.385-83.386L636.153-250 480-93.847Z"/></svg>