<svg xmlns="http://www.w3.org/2000/svg" height="24" viewBox="0 -960 960 960" width="24"><path d="m438-627.385 40-109.846h2.462L522-627.385h-84ZM480.181-440q-83.258 0-141.72-58.28Q280-556.561 280-639.819q0-83.258 58.28-141.72Q396.561-840 479.819-840q83.258 0 141.72 58.28Q680-723.439 680-640.181q0 83.258-58.28 141.72Q563.439-440 480.181-440Zm-111.72-90.769h32.616l26-67.385h105.846l26 67.385h35.692L491.692-789.231h-25.384l-97.847 258.462ZM832.308-92.308v-80h-80v-35.384h80v-80h35.384v80h80v35.384h-80v80h-35.384Zm-300 0v-215.384h175.384v132.923h-42.153l36 82.461h-36.924l-36-80h-60.923v80h-35.384Zm35.384-115.384h104.616v-64.616H567.692v64.616ZM12.308-92.308v-215.384h35.384v80h104.616v-80h35.384v215.384h-35.384v-100H47.692v100H12.308Zm260 0v-215.384H430L447.692-290v180L430-92.308H272.308Zm35.384-35.384h104.616v-144.616H307.692v144.616Z"/></svg>