<svg xmlns="http://www.w3.org/2000/svg" height="20" viewBox="0 -960 960 960" width="20"><path d="m444-634.692 35-97.923h1.231L516-634.692h-72Zm36.091 182.691q-81.629 0-138.859-57.14-57.231-57.14-57.231-138.768 0-81.629 57.14-138.859 57.14-57.231 138.768-57.231 81.629 0 138.859 57.14 57.231 57.14 57.231 138.768 0 81.629-57.14 138.859-57.14 57.231-138.768 57.231Zm-103.86-93.384h34.114l22.645-59.692h94.471l22.136 59.692h34.71l-89.513-232.23h-30.64l-87.923 232.23Zm439.923 443.231v-78h-78v-59.692h78v-78h59.692v78h78v59.692h-78v78h-59.692Zm-306 0v-227.692h203.692v140.461h-31.077l40 87.231h-67.461l-33-72h-52.462v72h-59.692Zm59.692-131.692h84.308v-36.308h-84.308v36.308ZM6.154-102.154v-227.692h59.692v84h84.308v-84h59.692v227.692h-59.692v-84H65.846v84H6.154Zm264 0v-227.692H420L449.846-300v168L420-102.154H270.154Zm59.692-59.692h60.308v-108.308h-60.308v108.308Z"/></svg>