<svg xmlns="http://www.w3.org/2000/svg" height="20" viewBox="0 -960 960 960" width="20"><path d="m444-632.385 35-94.846h.462L516-632.385h-72ZM480.181-472q-73.258 0-124.72-51.28Q304-574.561 304-647.819q0-73.258 51.28-124.72Q406.561-824 479.819-824q73.258 0 124.72 51.28Q656-721.439 656-648.181q0 73.258-51.28 124.72Q553.439-472 480.181-472Zm-94.72-78.769h26.422l22.646-57.385h91.394l22.135 57.385h28.557l-87.974-221.462h-18.333l-84.847 221.462Zm436.847 442.461v-78h-78v-47.384h78v-78h47.384v78h78v47.384h-78v78h-47.384Zm-306 0v-215.384h191.384v128.923h-34.153l40 86.461h-55.924l-33-72h-60.923v72h-47.384Zm47.384-119.384h96.616v-48.616h-96.616v48.616ZM12.308-108.308v-215.384h47.384v84h96.616v-84h47.384v215.384h-47.384v-84H59.692v84H12.308Zm264 0v-215.384H420L443.692-300v168L420-108.308H276.308Zm47.384-47.384h72.616v-120.616h-72.616v120.616Z"/></svg>