<svg xmlns="http://www.w3.org/2000/svg" height="20" viewBox="0 -960 960 960" width="20"><path d="M223.765-238Q182-238 153-267.167 124-296.333 124-338h-14q-11.05 0-18.525-7.475Q84-352.95 84-364v-324q0-22.7 14.65-37.35Q113.3-740 136-740h460q21.45 0 36.725 15.275Q648-709.45 648-688v72h57q12.458 0 23.604 5.875Q739.75-604.25 748-594l123 174q2 3.75 3.5 7.166 1.5 3.415 1.5 7.4V-364q0 11.05-7.475 18.525Q861.05-338 850-338h-26q0 41.667-29.235 70.833-29.236 29.167-71 29.167Q682-238 653-267.167 624-296.333 624-338H324q0 42-29.235 71-29.236 29-71 29Zm.235-20q33.4 0 56.7-23.3Q304-304.6 304-338q0-33.4-23.3-56.7Q257.4-418 224-418q-33.4 0-56.7 23.3Q144-371.4 144-338q0 33.4 23.3 56.7Q190.6-258 224-258ZM104-358h16q6-34 36.5-57t67.5-23q35 0 66.5 22.5t37.029 57.5H628v-330q0-14-9-23t-23-9H136q-12 0-22 10t-10 22v330Zm620 100q33.4 0 56.7-23.3Q804-304.6 804-338q0-33.4-23.3-56.7Q757.4-418 724-418q-33.4 0-56.7 23.3Q644-371.4 644-338q0 33.4 23.3 56.7Q690.6-258 724-258Zm-76-172 192-1-111-152q-5-6-11.5-9.5T703-596h-55v166ZM366-539Z"/></svg>