<svg xmlns="http://www.w3.org/2000/svg" height="20" viewBox="0 -960 960 960" width="20"><path d="M287-164.001q-70.903 0-120.951-50.048Q116.001-264.097 116.001-335q0-74.461 56.731-123.768 56.731-49.308 132.192-46.615 3.846 0 7.692.577 3.847.577 7.693 1.346L180.926-813.227h219.381L480-639.841l79.693-173.386h219.381L639.691-505.845q3.461-.769 7.116-1.154 3.654-.384 7.5-.384 77.23-3.077 133.461 46.73Q843.999-410.846 843.999-336q0 71.829-50.085 121.914Q743.829-164.001 672-164.001q-12.154 0-23.308-1.885t-21.923-4.654q39.153-26.307 56.192-71.027 17.038-44.719 17.038-94.433 0-91.538-64.231-155.768-64.23-64.231-155.768-64.231t-155.768 64.231Q260.001-427.538 260.001-336q0 48.461 17.808 92.845 17.807 44.385 55.807 72.615-12.154 2.769-23.116 4.654-10.961 1.885-23.5 1.885ZM480-168q-70 0-119-49t-49-119q0-70 49-119t119-49q70 0 119 49t49 119q0 70-49 119t-119 49Zm-68.23-69.231L480-289l68.23 51.769-25.692-84.077 68.231-48.769h-84.077L480-458.769l-26.692 88.692h-84.077l68.231 48.769-25.692 84.077Z"/></svg>