<svg xmlns="http://www.w3.org/2000/svg" height="20" viewBox="0 -960 960 960" width="20"><path d="M479.917-62q-86.293 0-162.105-32.5Q242-127 184.5-184.5 127-242 94.5-318.042 62-394.083 62-480.542 62-567 94.5-643t90-133q57.5-57 133.369-89.5T480-898h300q49.7 0 83.85 34.15Q898-829.7 898-780v300q0 86.262-32.5 162.131T776-184.5q-57 57.5-133.214 90Q566.571-62 479.917-62Zm.541-118q124.458 0 212-88T780-480.458V-780H480.458Q356-780 268-692.458t-88 212Q180-356 268-268t212.458 88ZM288-360h264v-89l120 89v-240l-120 89v-89H288v240Zm192-120Z"/></svg>