<svg xmlns="http://www.w3.org/2000/svg" height="20" viewBox="0 -960 960 960" width="20"><path d="M480.134-136q-71.048 0-133.598-26.839-62.549-26.84-109.677-73.922-47.127-47.082-73.993-109.716Q136-409.111 136-480.325q0-71.214 26.85-133.951 26.85-62.737 73.95-109.365 47.1-46.627 109.612-73.493Q408.924-824 480-824h287.385q24.315 0 40.465 16.15Q824-791.7 824-767.385V-480q0 71.076-26.839 133.588-26.84 62.512-73.422 109.612-46.582 47.1-109.388 73.95Q551.544-136 480.134-136ZM318.769-386.154h224v-89l120 89v-200l-120 89v-89h-224v200Z"/></svg>