<svg xmlns="http://www.w3.org/2000/svg" height="24" viewBox="0 -960 960 960" width="24"><path d="M73.957-45.52.435-108.303 136.26-257.694 76.956-425.521l162.782-170.695q13.131-13.696 28.827-19.979 15.695-6.282 34.391-6.282 18.696 0 34.392 6.565 15.695 6.565 28.826 19.696l80 78q25.869 25.869 60.065 38.543 34.195 12.674 75.238 12.674v97.522q-60 0-110.869-18.152-50.87-18.152-88.87-56.152l-21.782-22.347-78.173 80.434 97.566 86.565v250.218h-97.523v-204.913l-46.347-40.087v69.912L73.957-45.52Zm508.086-3.391v-277.174l83.434-83.392-23.434-141.13q-12.739 14.043-28.196 25.499-15.456 11.457-34.195 21.196-35.826-2-63.913-14.283-28.087-12.282-54.305-38.5 51.218-8.565 84.022-31.631 32.804-23.065 53.674-56.369l40-64q18.696-29.826 54.631-37.631 35.935-7.804 67.196 5.327l198.608 84.304v202.696h-97.522V-593.39l-56.173-20.087L908.826-48.911h-99.262l-64.087-287.565-65.912 65.869v221.696h-97.522Zm-127-556.958q-36.956 0-62.717-26.043-25.761-26.044-25.761-63.001 0-36.957 25.761-62.717 25.761-25.761 62.717-25.761 36.957 0 62.718 25.761 25.761 25.76 25.761 62.717 0 36.957-25.761 63.001-25.761 26.043-62.718 26.043Zm196.609-165.652q-36.957 0-62.718-25.761-25.761-25.761-25.761-62.718 0-36.957 25.761-62.718 25.761-25.761 62.718-25.761 36.957 0 62.718 25.761 25.76 25.761 25.76 62.718 0 36.957-25.76 62.718-25.761 25.761-62.718 25.761Z"/></svg>