<svg xmlns="http://www.w3.org/2000/svg" height="24" viewBox="0 -960 960 960" width="24"><path d="M477.739-140.782q-141.348 0-240.283-98.935Q138.521-338.652 138.521-480q0-141.348 98.935-240.283 98.935-98.935 240.283-98.935 74.087 0 140.761 30.195 66.674 30.196 113.935 87.153v-117.348h89.044v307.697H513.217V-600h164.609q-32-52.609-84.957-82.913-52.956-30.304-115.13-30.304-97.174 0-165.195 68.022Q244.522-577.174 244.522-480q0 97.174 68.022 165.195 68.021 68.022 165.195 68.022 73.609 0 133.63-42.304Q671.391-331.391 696.956-400h110.567q-28.566 113.913-120.218 186.566-91.653 72.652-209.566 72.652Z"/></svg>