<svg xmlns="http://www.w3.org/2000/svg" height="20" viewBox="0 -960 960 960" width="20"><path d="M481.539-212.001q-111.625 0-189.812-78.17-78.187-78.169-78.187-189.768t78.187-189.829q78.187-78.231 189.812-78.231 66.154 0 121.269 29.693 55.115 29.692 91.653 78.539v-108.232h51.999v204.613H541.847v-51.998h120.999q-28.615-45.923-76.192-73.27Q539.077-696 481.539-696q-90 0-153 63t-63 153q0 90 63 153t153 63q84 0 144-55.5t69-136.5h53.229q-8.231 103.922-84.269 173.961-76.038 70.038-181.96 70.038Z"/></svg>