<svg xmlns="http://www.w3.org/2000/svg" height="20" viewBox="0 -960 960 960" width="20"><path d="M786.088-299.259 622.304-463.043l163.784-163.783 65.696 65.131-53.043 52.478H934.61v92.349H798.741l53.043 52.478-65.696 65.131ZM73.39-67.738v-824.524h500.914v824.524H73.39Zm92.349-468.871q16.304-9.174 35.224-14.543 18.92-5.37 39.732-5.37h166.304q20.812 0 39.732 5.37 18.92 5.369 35.224 14.543v-263.304H165.739v263.304Zm158.178-65.913q-30.918 0-52.2-21.495-21.283-21.495-21.283-52.413 0-30.918 21.495-52.201 21.495-21.282 52.413-21.282 30.918 0 52.201 21.495t21.283 52.413q0 30.918-21.495 52.2-21.495 21.283-52.414 21.283Zm-44.266 394.435h86.697v-60.695h60.695v-86.696h-60.695v-60.695h-86.697v60.695h-60.695v86.696h60.695v60.695Z"/></svg>