<svg xmlns="http://www.w3.org/2000/svg" height="24" viewBox="0 -960 960 960" width="24"><path d="M361.538-560h-55.384q-8.5 0-14.25-5.758-5.75-5.757-5.75-14.269t5.75-14.242q5.75-5.731 14.25-5.731h55.384v-55.385q0-8.5 5.758-14.25t14.269-5.75q8.512 0 14.243 5.75t5.731 14.25V-600h55.384q8.5 0 14.25 5.758 5.75 5.757 5.75 14.269t-5.75 14.242q-5.75 5.731-14.25 5.731h-55.384v55.385q0 8.5-5.758 14.25t-14.27 5.75q-8.511 0-14.242-5.75-5.731-5.75-5.731-14.25V-560Zm20 209.231q-96.1 0-162.665-66.529-66.566-66.529-66.566-162.577t66.529-162.702q66.529-66.654 162.577-66.654 96.049 0 162.702 66.565Q610.769-676.101 610.769-580q0 41.692-14.769 80.692-14.769 39-38.769 66.693l236.308 236.307q5.615 5.616 6 13.77.384 8.153-6 14.538-6.385 6.385-14.154 6.385-7.77 0-14.154-6.385L528.923-404.307q-30 25.538-69 39.538-39 14-78.385 14Zm0-40q79.616 0 134.423-54.808Q570.769-500.385 570.769-580q0-79.615-54.808-134.423-54.807-54.808-134.423-54.808-79.615 0-134.423 54.808Q192.308-659.615 192.308-580q0 79.615 54.807 134.423 54.808 54.808 134.423 54.808Z"/></svg>