<svg xmlns="http://www.w3.org/2000/svg" height="20" viewBox="0 -960 960 960" width="20"><path d="M340.233-540h-30.116q-15.35 0-25.734-10.35Q274-560.7 274-576q0-15.3 10.383-25.65Q294.767-612 310.117-612h30.116v-30q0-15.3 10.384-25.65Q361-678 376.211-678q15.21 0 25.5 10.35Q412-657.3 412-642v30h29.789Q457-612 467.5-601.711q10.5 10.29 10.5 25.5 0 15.211-10.35 25.594-10.35 10.384-25.65 10.384h-30v30.116q0 15.35-10.35 25.734Q391.3-474 376-474q-15 0-25.383-10.35-10.384-10.35-10.384-25.65v-30Zm35.802 227Q267-313 190-390t-77-186q0-109 77-186t186-77q109 0 186 77t77 186.035q0 42.381-10.5 76.673T600-437l206 207q18 19 18 41.5T805.5-148q-18.5 18-42 18T722-148L517-352q-29 18-64.292 28.5T376.035-313ZM376-431q61 0 103-42t42-103q0-61-42-103t-103-42q-61 0-103 42t-42 103q0 61 42 103t103 42Z"/></svg>