<svg xmlns="http://www.w3.org/2000/svg" height="20" viewBox="0 -960 960 960" width="20"><path d="M216.599-284q-82.235 0-139.417-56.931T20-479.7q0-81.839 57.186-139.069Q134.37-676 216.576-676q32.358 0 62.122 11.346 29.764 11.346 54.456 33.039l95.923 81.769-24.77 20.308-90.461-78.847q-20.077-17.153-44.814-26.384Q244.295-644 218.181-644q-68.847 0-117.514 47.982Q52-548.037 52-479.788t48.667 116.519Q149.334-315 218.181-315q26.114 0 50.851-9.231t44.814-26.384l313-281q23.923-21.462 53.913-32.924Q710.749-676 743.385-676q82.221 0 139.418 57.11T940-480.069q0 82.608-57.6 139.338Q824.8-284 742-284q-32.449 0-61.571-11.731-29.121-11.73-54.583-32.654l-95.384-82.769 25.231-20.077 90.461 79.616q20.077 18.076 44.814 26.846Q715.705-316 741.819-316q68.847 0 117.514-47.982Q908-411.963 908-480.212t-48.667-116.519Q810.666-645 741.819-645q-26.114 0-50.851 9.231t-44.814 26.384l-312.76 280.922q-24.163 22.54-54.158 33.502Q249.241-284 216.599-284Z"/></svg>