<svg xmlns="http://www.w3.org/2000/svg" height="24" viewBox="0 -960 960 960" width="24"><path d="M220-286q-81.127 0-137.564-56.41Q26-398.821 26-479.91 26-561 82.436-617.5 138.873-674 220-674q31.714 0 60.857 11.5T334-630l90 76-22 18-86-74q-20-16.8-45-26.4-25-9.6-51.074-9.6-68.741 0-117.333 48.662Q54-548.677 54-479.838 54-411 102.593-362.5 151.185-314 219.926-314 246-314 271-323.6q25-9.6 45-26.4l310-280q23-22 52.467-33 29.466-11 61.533-11 81.127 0 137.564 56.41Q934-561.18 934-480.09T877.564-342.5Q821.127-286 740-286q-32 0-60.5-12T626-330l-88-76 20-19 86 75q20 18 45 27t51.074 9q68.741 0 117.333-48.662Q906-411.323 906-480.162 906-549 857.407-597.5 808.815-646 740.074-646 714-646 689-636.4q-25 9.6-45 26.4L334-330q-23 22-52.467 33-29.466 11-61.533 11Z"/></svg>