<svg xmlns="http://www.w3.org/2000/svg" height="24" viewBox="0 -960 960 960" width="24"><path d="M480-640q-138.304 0-240.022 91.739-101.717 91.739-117.413 226.478-2.565 18.826-17.109 30.305Q90.913-280 71.521-280q-20.391 0-34.652-13.609-14.261-13.609-12.261-32.565 8.696-86.261 47.674-161.392 38.978-75.13 99.957-130.761 60.978-55.63 140.239-87.413Q391.739-737.523 480-737.523t167.522 31.783q79.261 31.783 140.239 87.413 60.979 55.631 99.957 130.761 38.978 75.131 47.674 161.392 2 18.956-11.978 32.565Q909.435-280 889.044-280q-19.392 0-34.218-11.478-14.826-11.479-17.391-30.305-15.696-134.739-117.413-226.478Q618.304-640 480-640Zm0 168.479q-69.913 0-122.087 43.76Q305.74-384 292.609-317.652q-3.696 17.826-18.739 27.739Q258.826-280 240-280q-20.391 0-34.152-12.478-13.761-12.479-11.196-30.305 15.696-104.696 96.174-175.196 80.478-70.5 189.174-70.5 108.696 0 189.174 70.5 80.478 70.5 96.174 175.196 2.565 17.826-11.196 30.305Q740.391-280 720-280q-18.826 0-33.87-9.913-15.043-9.913-18.739-27.739Q654.26-384 602.087-427.761q-52.174-43.76-122.087-43.76Z"/></svg>