<svg xmlns="http://www.w3.org/2000/svg" height="24" viewBox="0 -960 960 960" width="24"><path d="M480-640q-143.846 0-247.385 98.231-103.538 98.23-112.153 239.846-.462 9.077-5.924 15.5Q109.077-280 100-280q-9.308 0-14.77-6.654-5.461-6.654-5-16.269 4.693-78.616 37.462-147.231 32.769-68.615 86.769-119.654 54-51.038 124.847-80.615Q400.154-680 480-680t150.692 29.577q70.847 29.577 124.847 80.615 54 51.039 86.769 119.654 32.769 68.615 37.461 147.231.462 9.615-5 16.269Q869.308-280 860-280q-9.077 0-14.538-6.423-5.462-6.423-5.924-15.5-8.615-141.616-112.153-239.846Q623.846-640 480-640Zm0 160q-77.308 0-134.231 52.231-56.923 52.23-64.307 128.077-1.231 8.846-7.193 14.269Q268.308-280 260-280q-8.539 0-14.654-5.885-6.115-5.884-4.885-13.961 7.846-93 76.347-156.577Q385.308-520 480-520q94.692 0 163.192 63.577 68.501 63.577 76.347 156.577 1.23 8.077-4.885 13.961Q708.539-280 700-280q-8.308 0-14.269-5.423-5.962-5.423-7.193-14.269-7.384-75.847-63.923-128.077Q558.077-480 480-480Z"/></svg>