<svg xmlns="http://www.w3.org/2000/svg" height="20" viewBox="0 -960 960 960" width="20"><path d="M480-600q-139.304 0-240.554 91.739-101.249 91.739-116.881 226.478-2.565 17.826-15.845 29.805Q93.44-240 75.732-240q-18.602 0-31.863-13.434t-11.261-32.14q8.696-84.861 46.903-158.552 38.208-73.691 97.957-128.261 59.749-54.57 137.727-85.853Q393.172-689.523 480-689.523q86.82 0 164.79 31.234 77.971 31.233 137.96 85.913 59.99 54.68 97.968 128.31 37.978 73.631 46.674 158.492 2 18.706-10.978 32.14Q903.435-240 884.833-240q-17.707 0-31.27-11.978-13.563-11.979-16.128-29.805-15.632-134.739-116.881-226.478Q619.304-600 480-600Zm0 152.479q-75.913 0-134.087 48.76Q287.74-350 275.609-277.652q-3.696 16.826-17.231 27.239Q244.843-240 227.948-240q-18.339 0-31.1-11.603-12.761-11.604-10.196-28.18 13.696-110.696 96.674-183.696 82.978-73 196.674-73 113.696 0 196.674 73 82.978 73 96.674 183.696 2.565 16.576-10.029 28.18Q750.725-240 732.222-240q-17.048 0-30.592-10.413-13.543-10.413-17.239-27.239Q672.26-350 614.087-398.761q-58.174-48.76-134.087-48.76Z"/></svg>