<svg xmlns="http://www.w3.org/2000/svg" height="20" viewBox="0 -960 960 960" width="20"><path d="M480-600q-144.846 0-247.917 98.231-103.07 98.23-111.621 239.846-.462 8.077-4.66 15Q111.603-240 104.21-240q-7.518 0-11.98-6.479-4.461-6.479-4-15.844 4.693-77.216 36.691-144.391 31.999-67.176 84.77-117.154 52.77-49.978 122.333-79.055Q401.587-632 480-632q78.405 0 147.961 29.027 69.555 29.028 122.566 79.116 53.012 50.088 84.781 117.203 31.769 67.115 36.461 144.331.462 9.365-4 15.844Q863.308-240 855.79-240q-7.393 0-11.592-6.923-4.198-6.923-4.66-15-8.551-141.616-111.621-239.846Q624.846-600 480-600Zm0 144q-83.308 0-146.231 57.231-62.923 57.23-69.307 139.077-1.231 7.846-5.684 13.769T247.948-240q-6.487 0-11.602-5.01-5.115-5.009-3.885-11.836 5.846-99 76.847-165.077Q380.308-488 480-488q99.692 0 170.692 66.077 71.001 66.077 76.847 165.077 1.23 6.827-3.718 11.836-4.949 5.01-11.599 5.01-6.53 0-10.991-5.923-4.462-5.923-5.693-13.769-6.384-81.847-68.923-139.077Q564.077-456 480-456Z"/></svg>