<svg xmlns="http://www.w3.org/2000/svg" height="24" viewBox="0 -960 960 960" width="24"><path d="M186.369-111.869V-717.37h-45.5v-91H354.5v-45.5h250.522v45.5h213.87v91h-45.5v172.718q-18.913-7.87-44.522-12.446-25.609-4.576-46.479-4.576-17.761 0-39.543 2.88-21.783 2.881-38.544 7.642V-640h-85.5v129.761q-21.282 15.522-42.684 38.185-21.403 22.663-35.163 44.706V-640h-85.501v360h42.87q-.239 41.391 15.196 88.283 15.435 46.891 40.065 79.848H186.369Zm494.348 34.978q-84.195 0-143.293-59.098-59.098-59.098-59.098-143.294 0-84.195 59.098-143.413 59.098-59.217 143.293-59.217 84.196 0 143.413 59.217 59.218 59.218 59.218 143.413 0 84.196-59.218 143.294-59.217 59.098-143.413 59.098Zm66-105.761 30.392-30.631L702.391-288v-113.196h-43.587v130.631l87.913 87.913Z"/></svg>