<svg xmlns="http://www.w3.org/2000/svg" height="24" viewBox="0 -960 960 960" width="24"><path d="M280-720v520-520Zm154.615 560H240v-560h-40v-40h160v-30.77h240V-760h160v40h-40v169.692q-8.538-1.923-19.775-2.73-11.236-.808-20.225-.808V-720H280v520h138.154q2.805 10.839 7.479 21.419Q430.308-168 434.615-160Zm-48.461-120h20q0-42.231 10-71.193l10-28.961V-640h-40v360Zm147.692-231.538q8.5-5.616 19.25-11.231 10.75-5.616 20.75-9.077V-640h-40v128.462Zm145.98 425.384q-80.518 0-137.095-56.751t-56.577-137.269q0-80.518 56.751-137.095t137.269-56.577q80.518 0 137.095 56.751t56.577 137.269q0 80.518-56.751 137.095T679.826-86.154Zm66.174-106L767.846-214l-72.461-72.164v-109.221h-30.77v121.847L746-192.154Z"/></svg>