<svg xmlns="http://www.w3.org/2000/svg" height="24" viewBox="0 -960 960 960" width="24"><path d="M167.781-100.782v-613H114.78v-106.002h232.219v-53H611.87v53h232.784v106.002h-53v173.695q-21.522-11.783-51.37-17.826-29.849-6.044-54.632-6.044-17.434 0-38.239 2.718-20.804 2.717-37.239 7.152V-640h-93v129.435q-20.304 14.869-40.891 36.391t-34.022 42.261V-640H349.26v360h46.783q-.565 44.652 16.827 94.805 17.391 50.152 45.609 84.413H167.781Zm513.915 28.13q-85.826 0-145.74-59.913-59.913-59.913-59.913-145.739 0-85.826 59.913-146.022 59.914-60.196 145.74-60.196 85.826 0 146.022 60.196 60.195 60.196 60.195 146.022t-60.195 145.739q-60.196 59.913-146.022 59.913Zm66-105.435 33.652-34.217L705.652-288v-114.826h-48.478v134.217l90.522 90.522Z"/></svg>