<svg xmlns="http://www.w3.org/2000/svg" height="20" viewBox="0 -960 960 960" width="20"><path d="M174.783-172.782q-41.005 0-69.503-28.51-28.498-28.51-28.498-69.531V-689.5q0-41.022 28.498-69.37 28.498-28.348 69.503-28.348h610.434q41.005 0 69.503 28.474 28.498 28.475 28.498 69.446v162.841q0 20.37-14.246 34.827-14.246 14.456-34.544 14.456-20.298 0-34.754-14.306-14.457-14.307-14.457-34.694v-163.043H174.783v418.434h353.912q20.387 0 34.694 14.246 14.307 14.246 14.307 34.544 0 20.298-14.307 34.755-14.307 14.456-34.694 14.456H174.783Zm375.435-363.391 70.826 70.26q14.391 13.826 14.109 31.218-.283 17.391-13.508 31.218-14.427 13.826-32.203 13.826-17.775 0-31.268-13.826l-70.826-69.826v32.725q0 19.076-12.727 31.98t-31.541 12.904q-18.602 0-31.928-13.194-13.326-13.193-13.326-31.909V-576.37q0-20.412 14.323-34.869 14.324-14.457 34.736-14.457h136.138q18.929 0 31.866 12.727 12.938 12.727 12.938 31.541 0 18.602-12.788 31.929-12.787 13.326-31.691 13.326h-33.13Zm215.857 363.957q-48.492 0-82.435-33.944-33.944-33.944-33.944-82.435 0-48.492 33.944-82.535 33.943-34.044 82.435-34.044 48.491 0 82.817 33.944 34.326 33.944 34.326 82.435t-34.326 82.535q-34.326 34.044-82.817 34.044Z"/></svg>