<svg xmlns="http://www.w3.org/2000/svg" height="24" viewBox="0 -960 960 960" width="24"><path d="M184.615-200Q157-200 138.5-218.5 120-237 120-264.615v-430.77Q120-723 138.5-741.5 157-760 184.615-760h590.77Q803-760 821.5-741.5 840-723 840-695.385v184.616q0 8.5-5.758 14.25-5.757 5.75-14.269 5.75-8.511 0-14.242-5.75-5.731-5.75-5.731-14.25v-184.616q0-10.769-6.923-17.692T775.385-720h-590.77q-10.769 0-17.692 6.923T160-695.385v430.77q0 10.769 6.923 17.692T184.615-240h344.616q8.5 0 14.25 5.758t5.75 14.269q0 8.512-5.75 14.242-5.75 5.731-14.25 5.731H184.615Zm262.924-380 153.076 152.307Q607-422.269 607-414.135q0 8.135-6.217 14.75-6.783 6.616-14.437 6.616-7.654 0-14.269-6.616L420-551.461V-454q0 8.5-5.758 14.25-5.757 5.75-14.269 5.75t-14.242-5.75Q380-445.5 380-454v-133.692q0-13.731 9.288-23.02 9.289-9.288 23.02-9.288H546q8.5 0 14.25 5.758 5.75 5.757 5.75 14.269t-5.75 14.242Q554.5-580 546-580h-98.461Zm295.538 380q-40.385 0-68.654-28.269t-28.269-68.654q0-40.385 28.269-68.654t68.654-28.269q40.385 0 68.654 28.269T840-296.923q0 40.385-28.269 68.654T743.077-200Z"/></svg>