<svg xmlns="http://www.w3.org/2000/svg" height="20" viewBox="0 -960 960 960" width="20"><path d="M180-158q-49.7 0-83.85-34.162Q62-226.324 62-276.04v-408.243Q62-734 96.15-768T180-802h600q49.7 0 83.85 34.126Q898-733.747 898-684.081v149.798Q898-510 880.711-492.5q-17.29 17.5-41.5 17.5Q815-475 797.5-492.35T780-534v-150H180v408h340q24.3 0 41.65 17.289 17.35 17.29 17.35 41.5Q579-193 561.65-175.5T520-158H180Zm385-366 63 62q17 16 16.5 36t-15.804 36Q612-374 591.833-374q-20.166 0-35.833-16l-63-62v23.596q0 21.846-14.602 36.625T442.211-377Q421-377 405.5-392.367T390-429.059v-138.616Q390-592 407.367-609.5q17.367-17.5 41.692-17.5h139.616q21.7 0 36.513 14.602Q640-597.796 640-576.211 640-555 625.338-539.5 610.675-524 589-524h-24Zm208.824 367q-51.177 0-87.001-35.824-35.823-35.823-35.823-87Q651-331 686.823-367q35.824-36 87.001-36Q825-403 861.5-367.176q36.5 35.823 36.5 87Q898-229 861.5-193t-87.676 36Z"/></svg>