<svg xmlns="http://www.w3.org/2000/svg" height="24" viewBox="0 -960 960 960" width="24"><path d="M479.91-380q41.629 0 70.859-29.14Q580-438.28 580-479.91q0-41.629-29.14-70.859Q521.719-580 480.09-580t-70.859 29.14Q380-521.719 380-480.09t29.14 70.859Q438.28-380 479.91-380Zm-2.218 56.923q-58 0-112.5 18.039-54.5 18.038-101.961 52.115-8.923 6.231-16.077 14.385Q240-230.385 240-219.461v2.538q0 7.692 5.769 12.308Q251.538-200 260-200h440q8.462 0 14.231-5T720-217.692v-1.769q0-10.924-7.154-19.462-7.154-8.539-16.077-14.769-48.231-34.077-103.986-51.731-55.755-17.654-115.091-17.654ZM264.615-160q-26.654 0-45.634-18.981Q200-197.961 200-224.615v-323.077q0-15.347 6.865-29.077 6.866-13.731 18.981-22.616l215.385-162.308q16.907-12.923 38.646-12.923 21.738 0 38.892 12.923l215.385 162.308q12.115 8.885 18.981 22.616Q760-563.039 760-547.692v323.077q0 26.654-18.981 45.634Q722.039-160 695.385-160h-430.77Z"/></svg>