<svg xmlns="http://www.w3.org/2000/svg" height="20" viewBox="0 -960 960 960" width="20"><path d="M479.934-390.783q47.327 0 80.523-33.013 33.195-33.013 33.195-80.174 0-47.161-33.129-80.357t-80.457-33.196q-47.327 0-80.523 33.13-33.195 33.129-33.195 80.456 0 47.328 33.129 80.241t80.457 32.913Zm1.184 41.217q-48.727 0-96.362 13.334t-89.408 38.144q-11.435 7-18 18.822-6.565 11.821-6.565 25.613v30.87h418.434v-32.001q0-13.423-6.783-24.929-6.782-11.505-17.782-19.505-41.08-26.262-87.943-38.305-46.864-12.043-95.591-12.043ZM270.5-124.782q-41.022 0-69.37-28.498-28.348-28.498-28.348-69.503v-337.826q0-22.928 10.043-43.442 10.044-20.515 29.131-35.472l209.217-156.912q27.348-19.653 58.827-19.653t58.827 19.653l209.217 156.912q19.087 14.957 29.131 35.472 10.043 20.514 10.043 43.442v337.826q0 41.005-28.51 69.503-28.51 28.498-69.531 28.498H270.5Z"/></svg>