<svg xmlns="http://www.w3.org/2000/svg" height="24" viewBox="0 -960 960 960" width="24"><path d="M479.934-366.783q52.327 0 89.023-36.513 36.695-36.513 36.695-88.674 0-52.161-36.629-88.857t-88.957-36.696q-52.327 0-89.023 36.63-36.695 36.629-36.695 88.956 0 52.328 36.629 88.741t88.957 36.413Zm1.184 33.217q-55.727 0-108.862 15.334t-100.908 44.144q-11.435 7-18 18.822-6.565 11.821-6.565 25.613v22.87h466.434v-24.001q0-13.791-6.283-25.613-6.282-11.821-18.282-18.821-47.08-28.262-99.443-43.305-52.364-15.043-108.091-15.043ZM246.783-100.782q-44.305 0-75.153-30.848-30.848-30.848-30.848-75.153v-349.826q0-25.079 11.043-47.518 11.044-22.439 31.131-37.396l233.217-174.912q28.348-21.653 63.827-21.653t63.827 21.653l233.217 174.912q20.087 14.957 31.131 37.396 11.043 22.439 11.043 47.518v349.826q0 44.305-30.848 75.153-30.848 30.848-75.153 30.848H246.783Z"/></svg>