<svg xmlns="http://www.w3.org/2000/svg" height="24" viewBox="0 -960 960 960" width="24"><path d="m518.769-761.693 215.385 162.308q12.115 8.885 18.981 22.616Q760-563.039 760-547.692v323.077q0 26.654-18.981 45.634Q722.039-160 695.385-160h-430.77q-26.654 0-45.634-18.981Q200-197.961 200-224.615v-323.077q0-15.347 6.865-29.077 6.866-13.731 18.981-22.616l215.385-162.308q16.907-12.923 38.646-12.923 21.738 0 38.892 12.923ZM479.91-380q41.629 0 70.859-29.14Q580-438.28 580-479.91q0-41.629-29.14-70.859Q521.719-580 480.09-580t-70.859 29.14Q380-521.719 380-480.09t29.14 70.859Q438.28-380 479.91-380Zm.09-40q-24.692 0-42.346-17.654Q420-455.308 420-480q0-24.692 17.654-42.346Q455.308-540 480-540q24.692 0 42.346 17.654Q540-504.692 540-480q0 24.692-17.654 42.346Q504.692-420 480-420Zm-2.058 160q-51.25 0-99.48 15.385-48.231 15.384-90.923 44.615h381.076q-41.923-29.231-90.673-44.615-48.75-15.385-100-15.385ZM240-547.692v335.384q50.462-42.077 111.212-64.884Q411.962-300 477.692-300q67.081 0 129.079 22.423 61.998 22.423 113.229 64.5v-334.615q0-6.154-2.692-11.154-2.693-5-7.308-8.846L494.615-729.231q-6.154-5.384-14.615-5.384t-14.615 5.384L250-567.692q-4.615 3.846-7.308 8.846-2.692 5-2.692 11.154ZM480-480Z"/></svg>