<svg xmlns="http://www.w3.org/2000/svg" height="24" viewBox="0 -960 960 960" width="24"><path d="M460-200H184.615Q157-200 138.5-218.5 120-237 120-264.615v-430.77Q120-723 138.5-741.5 157-760 184.615-760h590.77Q803-760 821.5-741.5 840-723 840-695.385V-540q0 8.538-5.731 14.269Q828.539-520 820-520q-8.538 0-14.269-5.731T800-540v-155.385q0-10.769-6.923-17.692T775.385-720h-590.77q-10.769 0-17.692 6.923T160-695.385v430.77q0 10.769 6.923 17.692T184.615-240H460q8.538 0 14.269 5.731T480-220q0 8.539-5.731 14.269Q468.538-200 460-200Zm-60-181.154v-197.692q0-14.923 12.808-21.885 12.807-6.962 24.73 1.5L591-500.385q11.693 7.462 11.693 20.385 0 12.923-11.693 20.385l-153.462 98.846q-11.923 8.462-24.73 1.5Q400-366.231 400-381.154Zm312.538 239.001-2.846-20.154q-22.769-5-37.5-13.962-14.73-8.961-28.038-22.346l-19.923 8.385q-5.462 2.769-11.077 1.423-5.616-1.346-8.846-6.577L598-206.154q-4-5.23-2.769-11.461 1.23-6.231 6.23-10.462l16.077-13.615q-7.384-21.692-7.384-41.385 0-19.692 7.384-41.384l-16.077-13.616q-5-4.23-6.23-10.461Q594-354.769 598-360l6.308-10.769q3.23-5.231 8.846-6.577 5.615-1.346 11.077 1.423l19.923 8.385q13.308-13.385 28.038-22.346 14.731-8.962 37.5-13.962L712.538-424q1.231-6.231 5.347-10.346 4.115-4.116 10.577-4.116h11.077q6.461 0 10.577 4.116 4.115 4.115 5.346 10.346l2.846 20.154q22.769 5 37.5 14.077 14.731 9.077 28.038 22.692l19.693-8.846q5.461-2.769 11.192-1.423t8.962 6.577L870-359.538q4 5.231 2.885 11.461-1.115 6.231-6.115 10.462L850.462-324q7.384 21.231 7.384 41.154 0 19.923-7.384 41.154l16.077 13.615q5 4.231 6.231 10.462 1.23 6.231-2.77 11.461l-6.307 10.77q-3.231 5.231-8.847 6.577-5.615 1.346-11.076-1.423l-19.924-8.385q-13.307 13.385-28.038 22.346-14.731 8.962-37.5 13.962l-2.846 20.154q-1.231 6.23-5.346 10.346-4.116 4.115-10.577 4.115h-11.077q-6.462 0-10.577-4.115-4.116-4.116-5.347-10.346ZM734-196.923q35.308 0 60.731-25.423 25.423-25.423 25.423-60.731 0-35.307-25.423-60.73Q769.308-369.23 734-369.23q-35.308 0-60.731 25.423-25.423 25.423-25.423 60.73 0 35.308 25.423 60.731 25.423 25.423 60.731 25.423Z"/></svg>