<svg xmlns="http://www.w3.org/2000/svg" height="24" viewBox="0 -960 960 960" width="24"><path d="M415.694-140.782H155.478q-44.305 0-75.153-30.848-30.848-30.848-30.848-75.153v-466.434q0-44.305 30.848-75.153 30.848-30.848 75.153-30.848h626.434q44.305 0 75.153 30.848 30.848 30.848 30.848 75.153v140.216q0 22.088-15.456 37.544Q857-520 834.913-520q-22.087 0-37.544-15.457-15.457-15.456-15.457-37.544v-140.216H155.478v466.434h260.216q22.088 0 37.544 15.457 15.457 15.456 15.457 37.544 0 22.087-15.457 37.544-15.456 15.456-37.544 15.456Zm-51.521-224.392v-229.652q0-23.652 20.87-34.978t40.392 1.5l179.173 114.825Q623.13-501.652 623.13-480t-18.522 33.479L425.435-331.696q-19.522 12.826-40.392 1.5-20.87-11.326-20.87-34.978Zm332.696 321.61-9-41.74q-9.739-3.87-19.109-9.087-9.369-5.217-18.673-11.521l-40.174 12.435q-9.261 3.13-17.805-.218-8.543-3.348-13.109-11.609l-25.695-42.826q-5.131-8.261-3.131-17.522 2-9.261 9.261-15.957l31.87-27.304q-2.566-11.174-2.283-22.608.283-11.435 2.283-22.609l-31.87-27.304q-7.261-6.696-8.978-15.957-1.718-9.261 3.413-17.522l25.13-42.826q4.566-7.696 13.109-11.044 8.544-3.347 17.805-.782l40.174 12.435q9.304-6.305 18.673-11.24 9.37-4.934 19.109-8.804l9-41.739q2-9.261 8.761-15.174Q712.391-440 722.087-440h51.391q9.696 0 16.739 5.913 7.044 5.913 9.044 15.174l8.435 41.739q9.739 3.87 19.108 9.022 9.37 5.152 18.674 13.022L885.782-369q9.261-3.13 18.022.217 8.761 3.348 13.326 11.609l25.131 44.261q4.565 8.261 2.783 17.522-1.783 9.261-8.479 15.957l-31.739 27.304q2.565 9.739 2.283 21.609-.283 11.869-2.283 21.608l31.304 27.304q6.696 6.696 8.979 15.957 2.282 9.261-2.848 17.522l-25.131 42.826q-4.565 8.261-13.108 11.327-8.544 3.065-17.805.5l-40.739-12.435q-9.304 6.304-18.674 11.522-9.369 5.217-19.108 9.086l-8.435 41.74q-2 9.26-9.044 15.174-7.043 5.913-16.739 5.913h-51.391q-9.696 0-16.457-5.913-6.761-5.914-8.761-15.175Zm50.913-111.914q30.739 0 53.391-22.652 22.653-22.652 22.653-53.391 0-30.739-22.653-53.109-22.652-22.369-53.391-22.369-30.739 0-53.108 22.369-22.37 22.37-22.37 53.109t22.37 53.391q22.369 22.652 53.108 22.652Z"/></svg>