<svg xmlns="http://www.w3.org/2000/svg" height="20" viewBox="0 -960 960 960" width="20"><path d="M288.332-136Q264-136 248-152.15t-16-40.465v-574.77q0-24.315 16.15-40.465Q264.3-824 288.615-824h283.539q10.923 0 22.115 4.231 11.192 4.23 18.885 12.923l97.692 97.692q8.693 7.693 12.923 18.885Q728-679.077 728-668.154v475.539q0 24.315-16.162 40.465Q695.676-136 671.344-136H288.332ZM568-692.307q0 12.223 8.042 20.265T596.307-664H696L568-792v99.693ZM439.769-335.692l-69.578-70.482q.271-.826-12.027 7.212-12.297 8.039-22.192 13.039t-11.434 2.961Q323-385 344.41-406.41q-5.949 5.949-5.949 13.602 0 7.654 5.616 13.27L419.385-305q4.63 4.231 9.392 6.346 4.761 2.116 10.423 2.116t10.423-2.116q4.762-2.115 8.992-6.346l161.308-161.307q4.846-5.064 5.231-12.109.385-7.045-5.403-12.661-5.788-5.615-12.385-5.615-6.597 0-12.212 5.615L439.769-335.692Z"/></svg>