<svg xmlns="http://www.w3.org/2000/svg" height="20" viewBox="0 -960 960 960" width="20"><path d="M275.717-62Q226-62 192-96.15T158-180v-600q0-49.7 34.15-83.85Q226.3-898 276-898h265q23 0 45 8.5t39 26.5l142 142q18 17 26.5 39t8.5 45v457q0 49.7-34.162 83.85Q733.676-62 683.96-62H275.717ZM516-671q0 24.3 17.35 41.65Q550.7-612 575-612h109L516-780v109Zm-76 303-49.194-50.097Q387-423 369.241-417q-17.758 6-33 11-15.241 5-21.741 5t10.833-17.333Q312-405 312-385t13 33l72 71q8.4 8 19.7 13 11.3 5 22.5 5t22.5-5q11.3-5 19.3-13l158-158q13-13.217 13-32.109Q652-490 638.828-503q-13.173-13-32-13Q588-516 575-503L440-368Z"/></svg>