<svg xmlns="http://www.w3.org/2000/svg" height="20" viewBox="0 -960 960 960" width="20"><path d="M92.413-390.348q-38.348 0-65.38-26.413Q0-443.174 0-481.522V-699.63q0-19.152 7.457-36.805 7.456-17.652 20.89-31.087l154.457-154.695q10.957-10.957 28.511-14.316 17.555-3.358 31.989 4.12 14.196 6.478 21.033 21.913 6.837 15.435 4.359 30.87l-22.565 121.065h149.565q53.021 0 80.054 37.869 27.033 37.87 5.163 88.37l-78.935 184.761q-11.434 25.63-34.565 41.424-23.13 15.793-52.478 15.793H92.413ZM721.13-27.63q-14.674-6.479-22.989-22.153-8.315-15.674-5.837-31.587l22.565-120.065H565.065q-49.022 0-77.815-37.989-28.794-37.989-7.163-88.25l77.935-185.761q11.434-25.63 35.065-41.424 23.63-15.793 52.978-15.793h222.522q38.348 0 64.88 26.413Q960-517.826 960-479.478v219.347q0 19.153-6.957 36.185-6.956 17.033-20.391 30.468L779.196-38.783q-10.239 10.24-27.174 13.696-16.935 3.456-30.892-2.544Z"/></svg>