<svg xmlns="http://www.w3.org/2000/svg" height="20" viewBox="0 -960 960 960" width="20"><path d="M102.523-379.912q-42.976 0-72.75-29.197Q0-438.306 0-480.87v-207.346q0-22.23 8.783-42.853t24.13-35.801l148.492-149.056q12.03-12.03 31.704-15.878 19.674-3.848 35.783 3.783 16.109 7.63 24.087 25.022 7.978 17.391 4.848 34.783l-20.609 111.607h132.608q59.87 0 89.674 41.783 29.805 41.783 4.022 99.784l-73.601 169.744q-13.181 28.907-40.218 47.147-27.036 18.239-60.312 18.239H102.523ZM314.478-480.87l75.913-174.042v-.174H146.305l20.304-101.608-65.086 64.217v211.607h212.955ZM717.217-31.218q-16.957-7.13-27.066-25.087-10.108-17.957-6.978-36.479l20.609-110.607H570.609q-55.87 0-87.109-42.066-31.24-42.066-6.022-99.501l72.707-170.641q13.075-29.01 40.421-47.25 27.346-18.239 61.003-18.239h206.868q42.564 0 72.043 29.197Q960-522.694 960-480.13v208.912q0 21.936-8.261 41.816-8.261 19.88-23.652 35.272L780.826-45.305Q770.261-34.74 751.37-29.979q-18.892 4.761-34.153-1.239ZM646.522-480.13l-75.913 174.042v1.174h244.086l-20.304 100.608 64.086-64.217V-480.13H646.522Zm-544.999-.74v-211.607 211.607Zm756.954.74v211.607-211.607Z"/></svg>