<svg xmlns="http://www.w3.org/2000/svg" height="24" viewBox="0 -960 960 960" width="24"><path d="M97.523-381.912q-40.914 0-69.218-28.022Q0-437.956 0-478.87v-212.346q0-21.088 8.261-40.675 8.261-19.587 22.652-33.979l152.261-152.825q12.261-12.261 30.935-14.609 18.674-2.348 34.065 6.783 14.827 9.13 22.805 26.022 7.978 16.891 3.848 34.283l-23.609 109.607h140.608q59.87 0 85.674 43.783 25.805 43.783 3.022 94.784l-75.391 172.433q-13.391 29.218-39.109 46.458-25.718 17.239-57.631 17.239H97.523ZM707.217-37.218q-13.957-9.13-19.566-25.087-5.608-15.957-2.478-31.479l23.609-109.607H569.609q-59.87 0-86.609-43.566-26.74-43.566-3.522-95.001l75.391-172.433q13.391-29.218 39.109-46.458 25.718-17.239 57.631-17.239h210.868q40.914 0 69.218 28.022Q960-522.044 960-481.13v212.912q0 21.087-8.261 40.391-8.261 19.305-22.652 33.697L776.826-41.305Q763.261-27.74 742.87-26.979q-20.392.761-35.653-10.239Z"/></svg>