<svg xmlns="http://www.w3.org/2000/svg" height="20" viewBox="0 -960 960 960" width="20"><path d="M116-366q-49.063 0-82.531-32.675Q0-431.35 0-480v-193q0-26.143 10.522-50.679Q21.044-748.214 39-766l140.231-141.231Q193-921 215.5-925.5q22.5-4.5 41 4t28 28.5q9.5 20 5.5 40l-18 99h110q69 0 102.5 47t2.5 115l-66.211 149.311Q405-409 373.119-387.5T302-366H116Zm195-114 72-161v2H155l19-99-59 59v199h196ZM712-36q-20-8-32.5-29t-8.5-43l18-98H578q-65 0-99.5-47.5T474-368l65.316-150.207Q555-552 587.19-573.5 619.381-595 659-595h186q48.65 0 81.825 32.675Q960-529.65 960-481v195q0 25.956-10 49.478Q940-213 922-195L783-54q-11 11-32.5 17.5T712-36Zm-62-445-72 161v-1h228l-19 98 58-59v-199H650Zm-535 1v-199 40-2 161Zm730-1v199-39 1-161Z"/></svg>