<svg xmlns="http://www.w3.org/2000/svg" height="24" viewBox="0 -960 960 960" width="24"><path d="M125.304-140.782q-27.261 0-45.892-18.63-18.63-18.631-18.63-45.892 0-27.261 18.63-45.891 18.63-18.631 45.892-18.631 27.261 0 45.891 18.631 18.631 18.63 18.631 45.891t-18.631 45.892q-18.63 18.63-45.891 18.63Zm189.044 0q-17.696 0-31.109-10.347-13.413-10.348-16.979-27.479-12.13-64.696-58.761-110.674-46.63-45.978-111.326-57.544-16.13-2.565-25.76-16.478-9.631-13.913-9.631-31.044 0-18.13 11.347-30.761 11.348-12.63 27.479-10.63 100.218 13.13 171.174 83.805 70.957 70.674 84.522 170.891 2 16.566-10.13 28.414-12.131 11.847-30.826 11.847Zm168.478 0q-18.13 0-31.326-11.565-13.196-11.565-15.196-29.13-14-133.088-107.891-226.327-93.892-93.239-226.979-107.935-17.696-2-29.174-15.131Q60.782-544 60.782-562.261q0-18.696 12.478-31.826 12.478-13.131 30.305-11.131 168.348 15.261 287 133.979 118.653 118.718 134.218 287.196 2 18.131-10.631 30.696-12.63 12.565-31.326 12.565Zm123.957 0q0-114.087-42.761-213.674T447.087-527.935q-74.174-73.891-173.696-116.37-99.522-42.478-212.61-42.478v-26.434q0-44.305 30.849-75.153 30.848-30.848 75.153-30.848h626.434q44.305 0 75.153 30.848 30.848 30.848 30.848 75.153v466.434q0 44.305-30.848 75.153-30.848 30.848-75.153 30.848H606.783Z"/></svg>