<svg xmlns="http://www.w3.org/2000/svg" height="20" viewBox="0 -960 960 960" width="20"><path d="M360-144q-29.7 0-50.85-21.15Q288-186.3 288-216v-72h193q35 0 59-24.748t24-59.5Q564-407 540-431.5T481-456H288v-288.272Q288-774 309.15-795T360-816h240q29.7 0 50.85 21.15Q672-773.7 672-744v528q0 29.7-21.15 50.85Q629.7-144 600-144H360ZM228.285-336Q213-336 202.5-346.289q-10.5-10.29-10.5-25.5Q192-387 202.34-397.5q10.34-10.5 25.624-10.5h251.751Q495-408 505.5-397.711q10.5 10.29 10.5 25.5Q516-357 505.66-346.5 495.32-336 480.036-336H228.285Zm251.504-216Q495-552 505.5-562.289q10.5-10.29 10.5-25.5Q516-603 505.711-613.5q-10.29-10.5-25.5-10.5Q465-624 454.5-613.711q-10.5 10.29-10.5 25.5Q444-573 454.289-562.5q10.29 10.5 25.5 10.5Zm300.422-41Q765-593 754.5-603.35 744-613.7 744-629v-150q0-15.3 10.289-25.65 10.29-10.35 25.5-10.35Q795-815 805.5-804.65 816-794.3 816-779v150q0 15.3-10.289 25.65-10.29 10.35-25.5 10.35Z"/></svg>