<svg xmlns="http://www.w3.org/2000/svg" height="24" viewBox="0 -960 960 960" width="24"><path d="M369.609-103.608q-44.305 0-75.153-30.848-30.848-30.848-30.848-75.153v-57.39H480q38.652 0 65.827-27.174 27.174-27.175 27.174-65.827t-27.174-65.827Q518.652-453.001 480-453.001H263.608v-297.39q0-44.305 30.848-75.153 30.848-30.848 75.153-30.848h220.782q44.305 0 75.153 30.848 30.848 30.848 30.848 75.153v540.782q0 44.305-30.848 75.153-30.848 30.848-75.153 30.848H369.609ZM200-306.999q-22.087 0-37.544-15.457-15.457-15.457-15.457-37.544 0-22.087 15.457-37.544 15.457-15.457 37.544-15.457h280q22.087 0 37.544 15.457 15.457 15.457 15.457 37.544 0 22.087-15.457 37.544-15.457 15.457-37.544 15.457H200Zm280-240q22.087 0 37.544-15.457 15.457-15.457 15.457-37.544 0-22.087-15.457-37.544-15.457-15.457-37.544-15.457-22.087 0-37.544 15.457-15.457 15.457-15.457 37.544 0 22.087 15.457 37.544 15.457 15.457 37.544 15.457Zm326.783-40q-22.087 0-37.544-15.457-15.457-15.457-15.457-37.544v-160q0-22.087 15.457-37.544 15.457-15.457 37.544-15.457 22.087 0 37.544 15.457 15.457 15.457 15.457 37.544v160q0 22.087-15.457 37.544-15.457 15.457-37.544 15.457Z"/></svg>