<svg xmlns="http://www.w3.org/2000/svg" height="24" viewBox="0 -960 960 960" width="24"><path d="M360-360v-400 560-160Zm-28 14h28v114q0 14 9 23t23 9h176q14 0 23-9t9-23v-496q0-14-9-23t-23-9H392q-14 0-23 9t-9 23v354h-28v-354q0-24.75 17.625-42.375T392-788h176q24.75 0 42.375 17.625T628-728v496q0 24.75-17.625 42.375T568-172H392q-24.75 0-42.375-17.625T332-232v-114Zm148-226q11 0 19.5-8.5T508-600q0-11-8.5-19.5T480-628q-11 0-19.5 8.5T452-600q0 11 8.5 19.5T480-572Zm293.965-54Q768-626 764-630.025T760-640v-160q0-5.95 4.035-9.975 4.035-4.025 10-4.025t9.965 4.025q4 4.025 4 9.975v160q0 5.95-4.035 9.975-4.035 4.025-10 4.025ZM246-346q-5.95 0-9.975-4.035-4.025-4.035-4.025-10t4.025-9.965q4.025-4 9.975-4h248q5.95 0 9.975 4.035 4.025 4.035 4.025 10T503.975-350q-4.025 4-9.975 4H246Z"/></svg>