<svg xmlns="http://www.w3.org/2000/svg" height="24" viewBox="0 -960 960 960" width="24"><path d="M168.479 0q-36.957 0-62.718-26.044Q80-52.087 80-89.044t26.044-62.718q26.043-25.761 63-25.761h622.477q36.957 0 62.718 25.761Q880-126.001 880-89.044q0 36.957-26.044 63Q827.913 0 790.956 0H168.479ZM594.74-498.088 493.566-599.262 359.002-464.698l100.739 101.174L594.74-498.088ZM569.219-674.48l100.739 100.739 127.781-126.781-101.174-101.739L569.219-674.48Zm-112.262-37.479 251.045 250.48-173.173 173.608q-30.783 30.783-74.588 30.783-43.805 0-74.588-30.783l-2.174 1.739q-14.956 13.522-33.326 21.066-18.37 7.543-38.588 7.543h-94.303q-17.956 0-24.87-16.239-6.913-16.239 5.914-29.066l86.912-85.912-.565-.566q-31.348-31.348-31.783-74.74-.435-43.391 30.914-74.74l173.173-173.173Zm0 0 164.955-164.955q31.914-31.914 74.871-31.914 42.957 0 74.87 31.914L872.827-775.61q31.913 31.914 31.913 74.871 0 42.957-31.913 74.87l-164.825 164.39-251.045-250.48Z"/></svg>