<svg xmlns="http://www.w3.org/2000/svg" height="20" viewBox="0 -960 960 960" width="20"><path d="M200.479 0q-43.957 0-74.218-30.544Q96-61.087 96-105.044t30.544-74.218q30.543-30.261 74.5-30.261h558.477q43.957 0 74.218 30.261Q864-149.001 864-105.044q0 43.957-30.544 74.5Q802.913 0 758.956 0H200.479ZM478.61-709.612l226.48 226.48-147.261 147.261q-28.783 26.783-68.588 28.283-39.805 1.5-66.588-25.283l2.826-2.261q-13.956 14.522-31.326 22.066-17.37 7.543-37.588 7.543h-93.303q-15.956 0-21.37-15.739-5.413-15.739 5.414-26.566l79.912-79.912q-28.348-27.349-27.065-67.023 1.282-39.674 30.631-67.023L478.61-709.612Zm51.13-50.565 103.172-103.737q28.914-28.914 69.371-28.914 40.457 0 69.37 28.914l87.174 88.304q27.913 29.914 27.913 69.371 0 39.457-27.913 69.37L755.655-533.697 529.74-760.177Z"/></svg>