<svg xmlns="http://www.w3.org/2000/svg" height="24" viewBox="0 -960 960 960" width="24"><path d="M120 0q-16.077 0-28.038-11.577Q80-23.154 80-40q0-16.077 11.962-28.039Q103.923-80 120-80h720q16.077 0 28.038 11.578Q880-56.847 880-40q0 16.077-11.962 28.038Q856.077 0 840 0H120Zm307.846-600.769 160.616 160.846-155.385 155.385q-19.384 19.384-45.346 19.384-25.962 0-45.346-19.384l-7.692-7.693-27.308 27.077q-8.692 8.231-20.539 13.231-11.846 5-24.307 5h-45.847q-10.923 0-14.885-10.077-3.961-10.077 3.731-17.769l73.539-73.308-6.154-6.154q-19.385-19.384-19.615-45.577-.231-26.192 19.153-45.577l155.385-155.384Zm28.308-28.539 182.308-182.077q19.384-19.385 45.346-19.385 25.961 0 45.346 19.385l70.154 69.923q19.385 19.385 19.385 45.347 0 25.961-19.385 45.346L617-468.462 456.154-629.308Z"/></svg>