<svg xmlns="http://www.w3.org/2000/svg" height="20" viewBox="0 -960 960 960" width="20"><path d="M482.211-193Q458-193 440.5-210.35T423-252v-276H270q-36.211 0-57.105-28.269Q192-584.538 202-619l56-200q11.368-38.214 42.711-61.607Q332.053-904 372-904h220q39.947 0 71.289 23.393Q694.632-857.214 706-819l56 200q10 34.462-10.895 62.731Q730.211-528 694-528H541v276q0 24.3-17.289 41.65-17.29 17.35-41.5 17.35ZM333-646h298l-39-140H371l-38 140Zm41.283 595Q350-51 332.5-68.29 315-85.579 315-109.788 315-134 332.338-151.5 349.677-169 373.96-169h215.757Q614-169 631.5-151.711q17.5 17.29 17.5 41.5Q649-86 631.662-68.5 614.323-51 590.04-51H374.283ZM482-713Z"/></svg>