<svg xmlns="http://www.w3.org/2000/svg" height="24" viewBox="0 -960 960 960" width="24"><path d="M501-320q38 0 74.5-16t63.5-48q7-8 3-18t-14-12q-38-6-72-28.5T501-502q-20-35-23.5-75.5T488-656q4-10-2.5-18t-17.5-6q-69 13-109 65t-40 115q0 75 53.5 127.5T501-320ZM480-65.912q-8.696 0-16.957-1.283-8.261-1.282-16.522-3.848-138.956-46.13-222.348-173.848Q140.782-372.609 140.782-516v-183.913q0-33.478 19.022-60.261t49.935-38.61l233.217-87.173q17.957-6.696 37.044-6.696 19.087 0 37.044 6.696l233.217 87.173q30.913 11.827 49.935 38.61 19.022 26.783 19.022 60.261V-516q0 143.391-83.391 271.109-83.392 127.718-222.348 173.848-8.261 2.566-16.522 3.848-8.261 1.283-16.957 1.283Z"/></svg>