<svg xmlns="http://www.w3.org/2000/svg" height="20" viewBox="0 -960 960 960" width="20"><path d="M497-362q26 0 48-8t40-22q4-5 4-7.5t-8-5.5q-37-13-62.5-34.5T475-492q-18-32-26.5-65.86-8.5-33.861 5.5-65.915Q457-631 451-635t-10.625-2.267Q404-620 379.5-584.5T355-504q0 59 41 100.5T497-362Zm-17 207q-4 0-10-.5t-10-2.5q-109-43-174.5-141T220-515v-157q0-16.692 9-30.346T253-722l208-79q10-4 19-4t19 4l208 79q15 6 24 19.654T740-672v157q0 118-65.5 216T500-158q-4 2-10 2.5t-10 .5Zm0-16q104-32.25 172-129t68-215v-158q0-10-5.5-18T699-703l-208-79q-5-2-11-2t-11 2l-208 79q-10 4-15.5 12t-5.5 18v158q0 118.25 68 215t172 129Zm0-306Z"/></svg>