<svg xmlns="http://www.w3.org/2000/svg" height="24" viewBox="0 -960 960 960" width="24"><path d="M515.478-660.914v-160q0-22.087 15.457-37.544 15.456-15.457 37.544-15.457h252.435q22.087 0 37.544 15.457 15.457 15.457 15.457 37.544v160q0 22.087-15.457 37.544-15.457 15.457-37.544 15.457H568.479q-22.088 0-37.544-15.457-15.457-15.457-15.457-37.544ZM86.085-478.304v-342.61q0-22.087 15.457-37.544 15.457-15.457 37.544-15.457h252.435q22.088 0 37.544 15.457 15.457 15.457 15.457 37.544v342.61q0 22.087-15.457 37.544-15.456 15.456-37.544 15.456H139.086q-22.087 0-37.544-15.456-15.457-15.457-15.457-37.544Zm429.393 337.522v-342.609q0-22.088 15.457-37.544 15.456-15.457 37.544-15.457h252.435q22.087 0 37.544 15.457 15.457 15.456 15.457 37.544v342.609q0 22.088-15.457 37.544-15.457 15.457-37.544 15.457H568.479q-22.088 0-37.544-15.457-15.457-15.456-15.457-37.544Zm-429.393 0v-160q0-22.087 15.457-37.544 15.457-15.456 37.544-15.456h252.435q22.088 0 37.544 15.456 15.457 15.457 15.457 37.544v160q0 22.088-15.457 37.544-15.456 15.457-37.544 15.457H139.086q-22.087 0-37.544-15.457-15.457-15.456-15.457-37.544Zm106.002-390.523h146.434v-236.608H192.087v236.608Zm429.392 337.523h146.434v-236.609H621.479v236.609Zm0-520.133h146.434v-53.998H621.479v53.998ZM192.087-193.782h146.434v-53.999H192.087v53.999Zm146.434-337.523Zm282.958-182.61Zm0 283.524Zm-282.958 182.61Z"/></svg>