<svg xmlns="http://www.w3.org/2000/svg" height="20" viewBox="0 -960 960 960" width="20"><path d="M571.891-631.913q-20.5 0-34.456-14.307-13.957-14.307-13.957-34.694v-121q0-19.962 14.019-33.982 14.019-14.019 33.982-14.019h230.023q20.499 0 34.456 14.019 13.957 14.02 13.957 33.982v121q0 20.387-14.019 34.694-14.02 14.307-33.982 14.307H571.891ZM159.229-417.304q-20.448 0-34.796-14.456-14.348-14.457-14.348-33.544v-336.61q0-19.962 14.348-33.982 14.348-14.019 34.796-14.019h229.292q19.088 0 33.544 14.019 14.457 14.02 14.457 33.982v336.61q0 19.087-14.457 33.544-14.456 14.456-33.544 14.456H159.229Zm412.662 305.523q-20.5 0-34.456-14.307-13.957-14.306-13.957-34.694v-334.609q0-20.388 14.019-34.694 14.019-14.307 33.982-14.307h230.023q20.499 0 34.456 14.307 13.957 14.306 13.957 34.694v334.609q0 20.388-14.019 34.694-14.02 14.307-33.982 14.307H571.891Zm-412.662 0q-20.448 0-34.796-14.307-14.348-14.306-14.348-34.694v-122q0-19.962 14.348-33.981 14.348-14.019 34.796-14.019h229.292q19.088 0 33.544 14.019 14.457 14.019 14.457 33.981v122q0 20.388-14.457 34.694-14.456 14.307-33.544 14.307H159.229Z"/></svg>