<svg xmlns="http://www.w3.org/2000/svg" height="20" viewBox="0 -960 960 960" width="20"><path d="M548-652.688v-95.624q0-12.179 7.918-19.933Q563.836-776 575.541-776h172.832q12.243 0 19.935 7.755Q776-760.491 776-748.312v95.624q0 12.603-7.918 20.646Q760.164-624 748.459-624H575.627q-12.242 0-19.935-8.042Q548-640.085 548-652.688ZM184-499.001v-250.014q0-11.476 8.246-19.23Q200.493-776 212.683-776h172.103q10.829 0 19.022 7.763Q412-760.474 412-748.999v250.014q0 10.601-8.355 18.793Q395.289-472 384.459-472H212.357q-12.19 0-20.274-8.2Q184-488.401 184-499.001Zm364 287v-248.014q0-11.901 7.918-19.943Q563.836-488 575.541-488h172.832q12.243 0 19.935 8.05Q776-471.899 776-459.999v248.014q0 11.901-7.918 19.943Q760.164-184 748.459-184H575.627q-12.242 0-19.935-8.05Q548-200.101 548-212.001Zm-364-.687v-96.624q0-12.178 8.246-19.933Q200.493-337 212.683-337h172.103q10.829 0 19.022 7.755Q412-321.49 412-309.312v96.624q0 12.604-8.355 20.646Q395.289-184 384.459-184H212.357q-12.19 0-20.274-8.042Q184-200.084 184-212.688ZM216-504h164v-240H216v240Zm364 288h164v-240H580v240Zm0-439h164v-89H580v89ZM216-216h164v-89H216v89Zm164-288Zm200-151Zm0 199ZM380-305Z"/></svg>