<svg xmlns="http://www.w3.org/2000/svg" height="24" viewBox="0 -960 960 960" width="24"><path d="M763.462-52.308q-17.462 0-28.039-2-10.577-2-20.808-5.23L53.846-275.231l11.077-33.154 158.769 51 25.693-80.076-157.77-51 11.308-33.154L180-396v-171.692l207.461-87.077q5.693-2.462 11.27-3.462t12.269-1q32.462 0 48.462 22.577t5 57.577l-48.923 146.154 150.615-24 109.769 221.384 73.154 24.231L738-178.154l-132.231-43-26.692 80.077 144.538 46.846q9.539 2.77 18.039 4.654 8.5 1.885 21.808 1.885 45.23 0 76.269-31.039 31.038-31.038 31.038-76.269 0-40.154-17.654-66.538-17.654-26.385-50.807-41.154l12.077-33.154q41.23 17 66.5 54 25.269 37 25.269 86.846 0 59.692-41.5 101.192-41.5 41.5-101.192 41.5Zm-218.308-99.077 26.692-81.076-289.307-92.924-25.693 80.077 288.308 93.923Zm78.307-101.231-70.076-140.461-198.231 53.462 268.307 86.999ZM300.769-357l-7.077-69.846 54.077-167.769L220-540.846v157.769L300.769-357Zm177.693-355.308q-27.616 0-47.654-20.038-20.039-20.039-20.039-47.654 0-27.615 20.039-47.654 20.038-20.038 47.654-20.038 27.615 0 47.653 20.038 20.039 20.039 20.039 47.654 0 27.615-20.039 47.654-20.038 20.038-47.653 20.038Z"/></svg>