<svg xmlns="http://www.w3.org/2000/svg" height="20" viewBox="0 -960 960 960" width="20"><path d="M765.462-60.308q-9.462 0-18.539-1.5-9.077-1.5-19.308-4.73L61.846-284.231l8.077-21.154 150.769 49 29.693-92.076-150.77-49 7.308-21.154L188-392v-171.692l199.461-83.077q4.693-1.462 9.77-2.962 5.077-1.5 10.769-1.5 35.462 0 51.962 22.077t5.5 57.077l-44.923 139.154 140.615-24 109.769 220.384 88.154 29.231L751-185.154l-136.231-45-29.692 92.077 148.538 47.846q9.539 2.77 16.039 4.654 6.5 1.885 16.808 1.885 48.23 0 78.769-29.539 30.538-29.538 30.538-77.769 0-37.154-19.654-63.038-19.654-25.885-45.807-36.654l8.077-22.154q34.23 14 57 47.5 22.769 33.5 22.769 73.346 0 57.692-37.5 94.692-37.5 37-95.192 37Zm-203.308-85.077 29.692-91.076-319.307-103.924-29.693 92.077 319.308 102.923Zm66.307-104.231-76.076-156.461-206.231 64.462 282.307 91.999ZM316.769-351l-16.077-79.846 51.077-166.769L220-541.846v159.769L316.769-351Zm161.693-357.308q-29.616 0-50.654-21.038-21.039-21.039-21.039-50.654 0-29.615 21.039-50.654 21.038-21.038 50.654-21.038 29.615 0 50.653 21.038 21.039 21.039 21.039 50.654 0 29.615-21.039 50.654-21.038 21.038-50.653 21.038Z"/></svg>