<svg xmlns="http://www.w3.org/2000/svg" height="24" viewBox="0 -960 960 960" width="24"><path d="M764.231-46.154q-18.231 0-29.769-2-11.539-2-22.154-5.616L46.924-270.616l14.538-45.076 158.384 51 21.847-68.539-157.385-51 15.154-45.076L170-405.999v-167.847l213.23-90.538q6.846-3.231 13.385-4.231 6.538-1 14.384-1 33.231 0 51.731 26.039 18.499 26.038 7.499 61.038l-45.461 138.077 148.307-24 109.385 228.692 75.077 24.615L743-170.078l-132.616-43-22.846 68.54 138.769 44.923q8.77 2.385 17.27 4.077 8.5 1.692 20.654 1.692 40.615 0 70.885-30.269 30.269-30.269 30.269-70.885 0-37.077-17.077-63.269-17.077-26.193-52.154-40.577l15.539-45.076q46.614 17 73.999 56.499 27.384 39.5 27.384 92.423 0 60.846-43.999 104.846-44 44-104.846 44ZM542.077-158.692l22.847-69.539-278.155-89.462-21.847 68.539 277.155 90.462Zm62.155-106.615-58.539-121.232-178.617 44.232 237.156 77ZM290.385-366.999l-5.538-62.924 47.539-147.386-102.387 43.385v147.386l60.386 19.539Zm188.846-339.155q-30.308 0-52.077-21.769-21.769-21.77-21.769-52.077t21.769-52.077q21.769-21.769 52.077-21.769 30.307 0 52.076 21.769 21.769 21.77 21.769 52.077t-21.769 52.077q-21.769 21.769-52.076 21.769Z"/></svg>