<svg xmlns="http://www.w3.org/2000/svg" height="20" viewBox="0 -960 960 960" width="20"><path d="M180-158q-49 0-83.5-33.5T62-273v-411q0-49 33.5-83.5T180-802h48l72 144h96l-72-144h72l72 144h96l-72-144h72l72 144h96l-72-144h120q50 0 84 34.5t34 83.5v143q-40-21-85-15t-78 39L533-316q-18 18-26.5 39.5T498-232v74H180Zm390-11v-58q0-13 5-23t13-18l198-198q10-10 22.5-15t25.5-5q13 0 25.5 5t22.5 15l44 45q10 10 15 22.5t5 25.5q0 14-5 26t-15 22L728-127q-8 8-18 12.5t-23 4.5h-58q-24 0-41.5-17.5T570-169Zm273-168 35-36-45-45-35 36 45 45Z"/></svg>