<svg xmlns="http://www.w3.org/2000/svg" height="20" viewBox="0 -960 960 960" width="20"><path d="M174.783-270.783v-274.434 302.348-27.914Zm0 98.001q-40.305 0-69.153-28.283-28.848-28.283-28.848-68.022v-420.13q0-40.305 27.848-69.153 27.848-28.848 70.153-28.848h48l72 144h96l-72-144h72l72 144h96l-72-144h72l72 144h96l-72-144h130.434q41.005 0 69.503 28.848 28.498 28.848 28.498 69.153v144H174.783v274.434h325.826v98.001H174.783Zm397.826-1v-60.172q0-10.394 4.13-18.872 4.131-8.478 10.826-15.174L786-466q8.954-9.207 19.897-13.299 10.944-4.092 21.776-4.092 11.816 0 22.581 4.347 10.765 4.348 19.573 13.044l44 45q8.184 8.954 12.788 19.897 4.603 10.944 4.603 21.776 0 11.585-4.142 22.438-4.142 10.854-13.249 19.716l-198 198q-6.615 6.696-15.134 10.544-8.519 3.847-18.912 3.847h-60.172q-20.387 0-34.694-14.306-14.306-14.307-14.306-34.694Zm299.304-205.305-45-45 45 45Zm-240 195h45l112.739-112.739-22-23-22-22-113.739 112.739v45Zm135.739-135.739-22-22 44 45-22-23Z"/></svg>