<svg xmlns="http://www.w3.org/2000/svg" height="20" viewBox="0 -960 960 960" width="20"><path d="M168-264v-328 328Zm24.615 32Q169-232 152.5-248.5 136-265 136-288.615v-382.77Q136-695 151.5-711.5 167-728 192.615-728h48l52 104h96l-52-104h72l52 104h96l-52-104h72l52 104h96l-52-104h94.77q24.315 0 40.465 16.5Q824-695 824-671.385v112.462h-32V-592H168v303.385q0 10.769 6.923 17.692T192.615-264h305.231v32H192.615Zm392.616 19.693v-39.356q0-6.029 2.23-10.606 2.231-4.577 6.462-8.808l193.615-192.615q4.182-4.335 8.437-5.706 4.256-1.371 8.4-1.371 4.171 0 8.699 1.577 4.529 1.577 7.849 4.73l44 45.77q3.512 4.181 5.294 8.436Q872-406 872-401.856t-1.755 8.301q-1.756 4.158-5.322 8.248L672.308-192.692q-4.231 4.231-8.808 6.461Q658.923-184 652.894-184h-39.356q-12.223 0-20.265-8.042t-8.042-20.265Zm263.384-189.308-45-45.77 45 45.77Zm-240 194.23h45l132.693-131.922-22.77-23-21.23-23.539-133.693 133.461v45Zm154.923-154.922-21.23-23.539 44 46.539-22.77-23Z"/></svg>