<svg xmlns="http://www.w3.org/2000/svg" height="24" viewBox="0 -960 960 960" width="24"><path d="M246.783-60.782q-43.74 0-74.871-31.13-31.13-31.131-31.13-74.871v-47.216q0-22.087 15.456-37.544 15.457-15.456 37.544-15.456h572.436q22.087 0 37.544 15.456 15.456 15.457 15.456 37.544v47.216q0 43.74-31.13 74.87-31.131 31.131-74.871 31.131H246.783Zm266.434-732.435v146.999q0 22.088 15.457 37.544 15.456 15.457 37.544 15.457h146.999l-200-200Zm-372.435 0q0-43.74 31.13-74.871 31.131-31.13 74.871-31.13h277.391q21.087 0 40.392 7.978 19.304 7.978 34.261 22.935l191.174 191.174q14.391 14.391 21.804 32.565 7.413 18.175 7.413 38.131v20.434q0 22.087-15.456 37.544-15.457 15.456-37.544 15.456H193.782q-22.087 0-37.544-15.456-15.456-15.457-15.456-37.544v-207.216Zm267.697 446.218q-22.088 0-37.544-15.457-15.457-15.457-15.457-37.544 0-22.087 15.457-37.544 15.456-15.457 37.544-15.457h143.042q22.088 0 37.544 15.457 15.457 15.457 15.457 37.544 0 22.087-15.457 37.544-15.456 15.457-37.544 15.457H408.479Zm329.044 0q-22.088 0-37.544-15.457-15.457-15.457-15.457-37.544 0-22.087 15.457-37.544 15.456-15.457 37.544-15.457H880q22.087 0 37.544 15.457 15.457 15.457 15.457 37.544 0 22.087-15.457 37.544-15.457 15.457-37.544 15.457H737.523Zm-657.523 0q-22.087 0-37.544-15.457Q27-377.913 27-400q0-22.087 15.457-37.544Q57.913-453.001 80-453.001h142.477q22.088 0 37.544 15.457 15.457 15.457 15.457 37.544 0 22.087-15.457 37.544-15.456 15.457-37.544 15.457H80Z"/></svg>