<svg xmlns="http://www.w3.org/2000/svg" height="24" viewBox="0 -960 960 960" width="24"><path d="M246.783-60.782q-43.74 0-74.871-31.13-31.13-31.131-31.13-74.871v-47.216q0-22.087 15.456-37.544 15.457-15.456 37.544-15.456 22.088 0 37.544 15.456 15.457 15.457 15.457 37.544v47.216h466.434v-47.216q0-22.087 15.457-37.544 15.456-15.456 37.544-15.456 22.087 0 37.544 15.456 15.456 15.457 15.456 37.544v47.216q0 43.74-31.13 74.87-31.131 31.131-74.871 31.131H246.783ZM140.782-793.217q0-44.305 30.848-75.153 30.848-30.848 75.153-30.848h277.391q21.087 0 40.392 7.978 19.304 7.978 34.261 22.935l189.478 189.478q14.957 14.957 22.935 34.261 7.978 19.305 7.978 40.392v20.434q0 21.522-15.456 36.131-15.457 14.608-37.544 14.608-20.392 0-35.848-11.782-15.457-11.783-17.153-31.044v-17.39H566.218q-22.088 0-37.544-15.457-15.457-15.456-15.457-37.544v-146.999H246.783v207.216q0 22.087-15.457 37.544-15.456 15.456-37.544 15.456-22.087 0-37.544-15.456-15.456-15.457-15.456-37.544v-207.216Zm267.697 446.218q-22.088 0-37.544-15.457-15.457-15.457-15.457-37.544 0-22.087 15.457-37.544 15.456-15.457 37.544-15.457h143.042q22.088 0 37.544 15.457 15.457 15.457 15.457 37.544 0 22.087-15.457 37.544-15.456 15.457-37.544 15.457H408.479Zm329.044 0q-22.088 0-37.544-15.457-15.457-15.457-15.457-37.544 0-22.087 15.457-37.544 15.456-15.457 37.544-15.457H880q22.087 0 37.544 15.457 15.457 15.457 15.457 37.544 0 22.087-15.457 37.544-15.457 15.457-37.544 15.457H737.523Zm-657.523 0q-22.087 0-37.544-15.457Q27-377.913 27-400q0-22.087 15.457-37.544Q57.913-453.001 80-453.001h142.477q22.088 0 37.544 15.457 15.457 15.457 15.457 37.544 0 22.087-15.457 37.544-15.456 15.457-37.544 15.457H80Zm400-186.002Zm0 266.002Z"/></svg>