<svg xmlns="http://www.w3.org/2000/svg" height="20" viewBox="0 -960 960 960" width="20"><path d="M126-80q-51.667 0-87.833-35.875Q2-151.75 2-203v-554q0-51.25 36.167-87.125Q74.333-880 126-880h354q51.667 0 87.833 35.875Q604-808.25 604-757v281h57q43.312 0 74.156 31.138Q766-413.725 766-370v122q0 5.6 3.2 8.8 3.2 3.2 8.8 3.2 5.6 0 8.8-3.2 3.2-3.2 3.2-8.412V-542q-42-9-69.5-41.5T693-658v-108h48v-84h76v84h48v-84h76v84h48v108q0 42-27.5 74.5T892-542v292q0 47.22-33.641 81.11t-81 33.89Q730-135 696.5-168.35 663-201.7 663-250v-123h-59v201q0-81.387-57.806-139.194Q488.388-369 408-369H267q-52.5 0-89.75 36.944-37.25 36.943-37.25 89Q140-191 177.25-153.5T267-116h135q21.675 0 36.337-14.602Q453-145.204 453-166.789 453-188 438.337-203.5 423.675-219 402-219H267q-10.6 0-17.3-6.571-6.7-6.572-6.7-17 0-10.429 6.7-16.929 6.7-6.5 17.3-6.5h141q40-1 66.5 26.525T501-172q0 38.712-26.5 65.356Q448-80 408-80H126Z"/></svg>