<svg xmlns="http://www.w3.org/2000/svg" height="20" viewBox="0 -960 960 960" width="20"><path d="M164-184q-31.667 0-53.834-22.166Q88-228.333 88-260v-440q0-31.667 22.166-53.834Q132.333-776 164-776h296q31.667 0 53.834 22.166Q536-731.667 536-700v252h86.154q26.958 0 45.479 18.521T686.154-384v95.846q0 18 11.539 29.539 11.538 11.538 29.538 11.538t29.538-11.538q11.539-11.539 11.539-29.151V-549q-32.923-5-53.847-28.923-20.923-23.923-20.923-56.846V-700h38.77v-56.616h23.384V-700h57.231v-56.616h23.385V-700h38.769v65.231q0 32.923-20.923 56.846Q833.231-554 800.308-549v262.923q0 30.528-21.526 52.302Q757.257-212 727.09-212t-51.552-21.775q-21.384-21.774-21.384-52.302v-105.308q0-10.769-6.923-17.692T629.539-416H536v115.615q0 48.597-34.482 82.491Q467.037-184 418.615-184H164Zm0-32h254.861q36.216 0 60.677-24.788Q504-265.576 504-300.385q0-36.046-24.644-61.715-24.644-25.669-60.741-24.669H253.077q-16.846 0-27.269 10.423-10.423 10.423-10.423 27.269 0 16.846 10.423 27.269 10.423 10.423 27.269 10.423h159.538q6.8 0 11.4 4.548 4.6 4.547 4.6 11.269t-4.6 11.453q-4.6 4.73-11.4 4.73H253.077q-28.431 0-49.062-20.63-20.63-20.631-20.63-49.062 0-28.431 20.63-49.062 20.631-20.631 49.062-20.631h165.538q23.189 0 45.825 5.731Q487.077-407.308 504-391v-309q0-17.892-13.054-30.946Q477.892-744 460-744H164q-17.892 0-30.946 13.054Q120-717.892 120-700v440q0 17.892 13.054 30.946Q146.108-216 164-216Zm0 0h254.615H120h44Z"/></svg>