<svg xmlns="http://www.w3.org/2000/svg" height="20" viewBox="0 -960 960 960" width="20"><path d="M75.289-784Q51-784 33.5-801.289q-17.5-17.29-17.5-41.5Q16-867 33.342-884.5 50.685-902 74.974-902H495.71Q520-902 537.5-884.711q17.5 17.29 17.5 41.5Q555-819 537.658-801.5 520.315-784 496.026-784H75.289ZM286-250q23 0 39-16.5t16-39.5v-47h48q24 0 40-16t16-40q0-24-16-40t-40-16h-48v-48q0-23-16-39t-39-16q-23 0-39.5 16T230-513v48h-48q-24 0-40 16t-16 40q0 24 16 40t40 16h48v48q0 23 16.5 39t39.5 16ZM80-58Q31-58-3.5-92.5T-38-176v-442q0-49.7 34.5-83.85Q31-736 80-736h411q49.7 0 83.85 34.15Q609-667.7 609-618v442q0 49-34.15 83.5T491-58H80Zm702-285q-13-13-16-28t2-31l17-18h-69q-24.3 0-41.65-17.289-17.35-17.29-17.35-41.5Q657-503 674.35-520.5T716-538h68l-18-18q-4-15 0-30.5t16-27.5q18-18 41-18t41 18l93 94q18 17.636 18 41.818T957-436l-93 93q-18 18-41 18t-41-18Z"/></svg>