<svg xmlns="http://www.w3.org/2000/svg" height="20" viewBox="0 -960 960 960" width="20"><path d="M100.505-766.61q-20.376 0-34.833-14.246-14.457-14.246-14.457-34.544 0-20.298 14.3-34.754 14.298-14.457 34.674-14.457h394.218q20.376 0 34.833 14.246 14.456 14.246 14.456 34.544 0 20.298-14.299 34.754-14.299 14.457-34.675 14.457H100.505Zm197.233 500.089q21.696 0 36.827-15.413 15.13-15.413 15.13-37.109v-47.434h48q22.261 0 37.392-15.131 15.13-15.13 15.13-37.391 0-22.261-15.13-37.392-15.131-15.13-37.392-15.13h-48v-48q0-21.696-15.13-36.827-15.131-15.13-36.827-15.13-21.695 0-37.109 15.13-15.413 15.131-15.413 36.827v48h-48q-22.261 0-37.391 15.13-15.131 15.131-15.131 37.392 0 22.261 15.131 37.391 15.13 15.131 37.391 15.131h48v48q0 21.695 15.413 36.826 15.414 15.13 37.109 15.13ZM97.825-95.389q-40.305 0-69.153-28.848Q-.176-153.085-.176-193.39v-427.219q0-41.004 28.848-69.503Q57.52-718.61 97.825-718.61h399.262q41.004 0 69.503 28.498 28.498 28.499 28.498 69.503v427.219q0 40.305-28.498 69.153-28.499 28.848-69.503 28.848H97.825Zm667.22-255.002q-12.131-12.13-13.827-26.696-1.695-14.565 5.913-28.391l23.521-24.521h-88.563q-20.388 0-34.694-14.247-14.307-14.246-14.307-34.543 0-20.298 14.307-34.755 14.306-14.457 34.694-14.457h87.998l-24.521-24.521q-7.043-13.261-4.565-28.109 2.478-14.848 14.044-26.413 14.956-14.957 34.044-14.957 19.087 0 34.044 14.957l93.434 94q14.957 14.593 14.957 34.427 0 19.835-14.957 34.791l-93.434 93.435q-14.957 14.957-34.044 14.957-19.088 0-34.044-14.957Z"/></svg>