<svg xmlns="http://www.w3.org/2000/svg" height="20" viewBox="0 -960 960 960" width="20"><path d="M164.615-232q-23.354 0-39.985-16.631Q108-265.261 108-288.615v-382.77q0-23.354 16.63-39.984Q141.261-728 164.615-728h382.77q23.354 0 39.984 16.631Q604-694.739 604-671.385v382.77q0 23.354-16.631 39.984Q570.739-232 547.385-232h-382.77Zm528.074-284q-7.504 0-12.097-4.592Q676-525.185 676-532.688v-178.624q0-7.504 4.592-12.096Q685.185-728 692.689-728h142.623q7.504 0 12.096 4.592Q852-718.816 852-711.312v178.624q0 7.503-4.592 12.096Q842.816-516 835.312-516H692.689ZM708-548h112v-148H708v148ZM164.615-264h382.77q10.769 0 17.692-6.923T572-288.615v-382.77q0-10.769-6.923-17.692T547.385-696h-382.77q-10.769 0-17.692 6.923T140-671.385v382.77q0 10.769 6.923 17.692T164.615-264ZM224-339.846h264q7.808 0 11.711-7.692 3.904-7.693-.788-15.154l-73-96q-4.231-5.462-11.423-5.462t-11.423 5.462L332-366.846l-47.077-61.846q-4.668-6.462-11.423-6.462t-11.423 6.462l-49 66q-4.693 7.461-.789 15.154 3.904 7.692 11.712 7.692ZM692.689-232q-7.504 0-12.097-4.592Q676-241.184 676-248.688v-178.624q0-7.503 4.592-12.096Q685.185-444 692.689-444h142.623q7.504 0 12.096 4.592Q852-434.815 852-427.312v178.624q0 7.504-4.592 12.096Q842.816-232 835.312-232H692.689ZM708-264h112v-148H708v148Zm-568 0v-432 432Zm568-284v-148 148Zm0 284v-148 148Z"/></svg>