<svg xmlns="http://www.w3.org/2000/svg" height="20" viewBox="0 -960 960 960" width="20"><path d="M806.826-50.978 700.304-156.261v69.348H85v-496.5h169.195l9.718-9.478L54.804-803l53.392-52.391L859.218-104.37l-52.392 53.392ZM376.848-479.957q-49 8.283-82.478 44.925-33.479 36.642-33.479 85.924 0 54.912 38.261 93.054 38.261 38.141 93.261 38.141 50.811 0 88.286-32.859 37.475-32.858 41.997-83.098l.119-.119-.119.119-145.848-146.087ZM392.236-293.5q-23.146 0-39.452-16.413-16.306-16.412-16.306-39.46 0-23.146 16.484-39.452 16.483-16.305 39.63-16.305 23.147 0 39.332 16.306 16.185 16.307 16.185 40.13 0 23.824-16.413 39.509-16.413 15.685-39.46 15.685ZM701.5-368.87 438.957-631.413h67.434l48 48H701.5v214.543Zm48-134.652v-175.413h-47.043v-194.152h172.065l-69.848 138.978h70.565L749.5-503.522Z"/></svg>