<svg xmlns="http://www.w3.org/2000/svg" height="20" viewBox="0 -960 960 960" width="20"><path d="M240-384q0 25 6.5 48.5T266-289l-.5-1-.5-1q6-20 16.5-37t23.5-32l125-139 126 139q13 16 23.5 33t15.5 36l-.5 1.5-.5 1.5q12-20 19-44.5t7-51.5q0-40-12.104-81.605Q595.792-507.21 573-543q-17 7-34.5 11.5T502-527q-48 0-90-24t-66-69q-26.152 27.923-45.576 56.962Q281-534 267.5-504 254-474 247-444t-7 60Zm190 58-38.75 45.803q-6.25 8.211-9.75 16.162-3.5 7.95-3.5 18.148Q378-224 393.177-209t37 15Q452-194 467-209.103q15-15.102 15-36.897 0-9-3.435-17.803Q475.13-272.605 469-280l-39-46Zm20-522v151q0 21.5 15.198 36.75Q480.395-645 502-645q12.592 0 23.296-5.5Q536-656 543-665l26-33q76 45 122.5 133T738-384q0 128.375-89.812 218.188Q558.375-76 430-76t-218.188-89.812Q122-255.625 122-384q0-119 85.5-243.5T450-848Zm409 367q-24 0-41.5-17.5T800-540q0-24 17.5-41.5T859-599q24 0 41.5 17.5T918-540q0 24-17.5 41.5T859-481Zm-59-166v-238h118v238H800Z"/></svg>