<svg xmlns="http://www.w3.org/2000/svg" height="20" viewBox="0 -960 960 960" width="20"><path d="M214-384q0 62.923 35.269 115.577 35.269 52.654 93.346 78.5-7.923-11.923-12.269-25.769Q326-229.539 326-243q0-18.539 7.307-35.115 7.308-16.577 18.154-29.424L430-399.846l79.308 92.307q10.846 13.847 17.769 30.424Q534-260.539 534-243q0 13.461-4.346 27.808-4.346 14.346-12.269 26.269 58.077-22.846 93.346-76.5Q646-319.077 646-384q0-51-17.5-100.5T578-576q-17 11-35.5 17t-40.5 6q-52.769 0-92.269-32-39.5-32-48.731-84.538-36 32.23-63 66.73-27 34.5-46 71.27-19 36.769-28.5 73.769-9.5 37-9.5 73.769Zm216 36-53 60q-9 11-14 22.5t-5 25.5q0 30 21 51t51 21q30 0 51-21t21-51q0-14-5-26t-14-22l-53-60Zm-40-396.462V-697q0 46.923 32.539 79.461Q455.077-585 502-585q17.769 0 34.577-5.846 16.808-5.847 30.654-15.77l15.23-11.538q42.462 34.923 69.001 100.423Q678-452.231 678-384q0 103.077-72.461 175.539Q533.077-136 430-136q-103.077 0-175.539-72.461Q182-280.923 182-384q0-85.846 54.077-182.654Q290.154-663.462 390-744.462ZM828-524q-6.539 0-11.269-4.731Q812-533.461 812-540t4.731-11.269Q821.461-556 828-556t11.269 4.731Q844-546.539 844-540t-4.731 11.269Q834.539-524 828-524Zm-16-110.769V-796h32v161.231h-32Z"/></svg>