<svg xmlns="http://www.w3.org/2000/svg" height="24" viewBox="0 -960 960 960" width="24"><path d="M160-120v-40h66.923v-139.538Q195-306.923 177.5-329.731 160-352.539 160-383.077V-660h173.846v276.923q0 29-17.884 52.577-17.885 23.577-49.039 30.962V-160h66.923v40H160Zm40-362.308h93.846V-620H200v137.692Zm46.923 146.154q19.308 0 33.115-13.808 13.808-13.807 13.808-33.115v-59.231H200v59.231q0 19.308 13.808 33.115 13.807 13.808 33.115 13.808Zm230 216.154v-454.154l121.538-47.077V-840h120.001v218.769L840-574.923V-120H476.923Zm161.539-636.154h40V-800h-40v43.846Zm-121.539 300H800v-91.231l-121.538-46.307v-122.462h-40v122.462l-121.539 46.307v91.231Zm0 296.154H800v-107.692H516.923V-160Zm0-147.692H800v-108.462H516.923v108.462Zm-270-134.616Zm270 134.616v-108.462 108.462Z"/></svg>