<svg xmlns="http://www.w3.org/2000/svg" height="20" viewBox="0 -960 960 960" width="20"><path d="M135.869-87.87v-80.608h84.718v-121.935q-36.044-11.478-60.381-44.435-24.337-32.956-24.337-74.109v-317.5h248.848v317.5q0 41.153-24.217 74.109-24.217 32.957-60.261 44.435v121.935h84.478v80.609H135.869Zm80.609-442.76h87.631v-115.218h-87.631v115.218ZM427.935-87.87v-489.565l117.608-53.261v-241.435h209.218V-630.5l117.37 53.587v489.044H427.935Zm198.217-655.652h48v-48h-48v48ZM508.544-480.478h282.978v-45.805l-117.37-55.891v-89.348h-48v89.739l-117.608 55.5v45.805Zm0 312h282.978v-72H508.544v72Z"/></svg>