<svg xmlns="http://www.w3.org/2000/svg" height="24" viewBox="0 -960 960 960" width="24"><path d="M100.782-60.782V-161.13h81.695v-118.391q-32.739-13.131-57.217-45.892t-24.478-76.848v-333.001h260.914v333.001q0 44.087-24.196 76.848-24.196 32.761-56.935 45.892v118.391h81.131v100.348H100.782ZM201.13-526.218h60.217v-108.695H201.13v108.695Zm30.481 160q12.954 0 21.345-8.9 8.391-8.899 8.391-22.056v-49.044H201.13v49.044q0 13.157 8.764 22.056 8.763 8.9 21.717 8.9Zm198.78 305.436V-601.39l114.347-54.74v-243.087h240.698v243.087l113.782 53.609v541.74H430.391ZM645.087-758.87h40v-40h-40v40ZM530.74-481.13h268.13v-59.174L685.087-597.87v-81h-40v81L530.74-540.304v59.174Zm0 320h268.13v-80H530.74v80Zm0-160h268.13v-80H530.74v80ZM231.521-446.218ZM530.74-321.13v-80 80Z"/></svg>