<svg xmlns="http://www.w3.org/2000/svg" height="24" viewBox="0 -960 960 960" width="24"><path d="M632.652-592.346 298.696-258.391q-15.522 15.522-37.044 15.24-21.522-.283-37.043-15.805-15.522-15.522-15.522-37.327 0-21.804 15.522-37.326l333.39-333.39H285.652q-22.087 0-37.543-15.457-15.457-15.457-15.457-37.544 0-22.087 15.457-37.544 15.456-15.457 37.543-15.457h400q22.088 0 37.544 15.457 15.457 15.457 15.457 37.544v400q0 22.087-15.457 37.544-15.456 15.457-37.544 15.457-22.087 0-37.543-15.457-15.457-15.457-15.457-37.544v-272.346Z"/></svg>