<svg xmlns="http://www.w3.org/2000/svg" height="24" viewBox="0 -960 960 960" width="24"><path d="M166.783-100.782q-44.305 0-75.153-30.848-30.848-30.848-30.848-75.153v-546.434q0-44.305 30.848-75.153 30.848-30.848 75.153-30.848h626.434q44.305 0 75.153 30.848 30.848 30.848 30.848 75.153v546.434q0 44.305-30.848 75.153-30.848 30.848-75.153 30.848H166.783ZM376.392-280q17 0 28.5-11.5t11.5-28.5q0-17-11.5-28.5t-28.5-11.5H260.914q-17 0-28.5 11.5t-11.5 28.5q0 17 11.5 28.5t28.5 11.5h115.478ZM582-473l-29-29q-12-12-28-11.5T497-501q-11 12-11.5 28t11.5 28l47.391 47.391q16.162 15.957 37.712 15.957 21.549 0 37.506-15.957l127.869-127.869q12-12 12-28t-12-28q-12-12-28.5-12t-28.5 12L582-473Zm-205.608 33q17 0 28.5-11.5t11.5-28.5q0-17-11.5-28.5t-28.5-11.5H260.914q-17 0-28.5 11.5t-11.5 28.5q0 17 11.5 28.5t28.5 11.5h115.478Zm0-160q17 0 28.5-11.5t11.5-28.5q0-17-11.5-28.5t-28.5-11.5H260.914q-17 0-28.5 11.5t-11.5 28.5q0 17 11.5 28.5t28.5 11.5h115.478Z"/></svg>