<svg xmlns="http://www.w3.org/2000/svg" height="20" viewBox="0 -960 960 960" width="20"><path d="M200-196q-22.7 0-37.35-14.65Q148-225.3 148-248v-464q0-22.7 14.65-37.35Q177.3-764 200-764h560q22.7 0 37.35 14.65Q812-734.7 812-712v464q0 22.7-14.65 37.35Q782.7-196 760-196H200Zm167-117q4.25 0 7.125-2.825 2.875-2.824 2.875-7 0-4.175-2.875-7.175T367-333H247q-4.25 0-7.125 2.825-2.875 2.824-2.875 7 0 4.175 2.875 7.175t7.125 3h120Zm215-112-43.822-44.1q-2.685-2.9-6.931-3.4-4.247-.5-7.725 3.5-3.522 3-2.522 7.5t3.815 7.315l39.37 39.37Q572-407 582.182-407q10.182 0 17.818-8l108-108q3-2.909 3.5-6.955Q712-534 708-538t-7.167-4q-3.166 0-6.833 4L582-425Zm-215-45q4.25 0 7.125-2.825 2.875-2.824 2.875-7 0-4.175-2.875-7.175T367-490H247q-4.25 0-7.125 2.825-2.875 2.824-2.875 7 0 4.175 2.875 7.175t7.125 3h120Zm0-156q4.25 0 7.125-2.825 2.875-2.824 2.875-7 0-4.175-2.875-7.175T367-646H247q-4.25 0-7.125 2.825-2.875 2.824-2.875 7 0 4.175 2.875 7.175t7.125 3h120Z"/></svg>