<svg xmlns="http://www.w3.org/2000/svg" height="24" viewBox="0 -960 960 960" width="24"><path d="M200.453-306q-74.143 0-124.298-50.025T26-480q0-72 50.895-124T200-656q66 0 117 46.5T374-494h84l-90-252h-48q-5.95 0-9.975-4.035-4.025-4.035-4.025-10t4.025-9.965q4.025-4 9.975-4h120q5.95 0 9.975 4.035 4.025 4.035 4.025 10T449.975-750q-4.025 4-9.975 4h-42l32 90h250l-70-192q-3-9-10-13.5t-16-4.5h-64q-5.95 0-9.975-4.035-4.025-4.035-4.025-10t4.025-9.965q4.025-4 9.975-4h64q17 0 31.35 9.692Q629.7-874.615 636-858l74 202h50q72.21 0 123.105 50.895Q934-554.21 934-482q0 72.356-51 123.178T760-308q-68 0-117-45.5T586-466H374q-6 69-57.5 114.5T200.453-306ZM200-334q53 0 94-34.5t52-97.5H240q-5.95 0-9.975-4.035-4.025-4.035-4.025-10t4.025-9.965q4.025-4 9.975-4h106q-11-63-52-97.5T200-626q-62.05 0-104.025 41.975Q54-542.05 54-480q0 60 41.975 103T200-334Zm290-160h96q3-29 22.5-71.5T666-628H440l50 134Zm269.965 160Q822-334 864-377t42-103.396Q906-542 864.025-584T760-626q-11 0-21 .5t-19 3.5l37 99q2 5-.333 10.386-2.334 5.385-7.667 7.614-5 2-10.417-.333-5.416-2.334-7.583-7.667l-35-99q-39 20-60.5 57T614-480q0 60 41.965 103t104 43ZM512-124v42q0 8.13-7 12.565-7 4.435-15.306.25L346-142q-5-3-3.909-8.5 1.091-5.5 6.909-5.5h97v-42q0-8.13 7-12.565 7-4.435 15.306-.25L612-138q5 3 3.909 8.5-1.091 5.5-6.909 5.5h-97ZM200-480Zm560 0Z"/></svg>