<svg xmlns="http://www.w3.org/2000/svg" height="20" viewBox="0 -960 960 960" width="20"><path d="M192.453-290q-70.143 0-118.298-48.025T26-456q0-66 45.395-117T192-624q58 0 109 45t57 113h105l-92-256h-47q-4.25 0-7.125-2.825-2.875-2.824-2.875-7 0-4.175 2.875-7.175t7.125-3h120q4.25 0 7.125 2.825 2.875 2.824 2.875 7 0 4.175-2.875 7.175T444-722h-52l35 98h262l-74-200q-3-9-10-13.5t-16-4.5h-73q-4.25 0-7.125-2.825-2.875-2.824-2.875-7 0-4.175 2.875-7.175t7.125-3h73q18 0 27.85 7.692Q626.7-846.615 633-830l76.04 208H760q70.21 0 121.605 47.895Q933-526.21 933-456q0 68.198-49 116.099Q835-292 768-292q-65 0-113-44.5T601-446H358q-6 69-56 112.5T192.453-290ZM192-310q49 0 92-33.5T340-446H228q-4.25 0-7.125-2.825-2.875-2.824-2.875-7 0-4.175 2.875-7.175t7.125-3h112q-10-64-54.5-100T192-602q-61.05 0-103.525 42.975Q46-516.05 46-456q0 60 42.475 103T192-310Zm294-156h116q3-29 23.5-72.5T685-604H435l51 138Zm281.465 156Q828-310 871-353.5t43-102.411Q914-516 868.025-562T755-600q-10 0-19 .5t-17 3.5l40 110q1 3-.833 7.386-1.834 4.385-5.167 5.614-3 1-6.75-.4T741-478l-39-107q-38.048 20-59.024 57T622-456q0 60 42.465 103t103 43ZM513-166v46q0 6.908-6.017 10.954t-13.289-.139L339-186q-5-2-3.909-7 1.091-5 6.909-5h104v-46q0-6.908 6.017-10.954t13.289.139L618-178q4 2 3.045 7-.954 5-6.045 5H513ZM196-457Zm567 9Z"/></svg>