<svg xmlns="http://www.w3.org/2000/svg" height="20" viewBox="0 -960 960 960" width="20"><path d="M192.348-284Q119.7-284 69.85-333.75 20-383.5 20-456q0-69 47.15-121.269 47.15-52.27 124.85-52.27 60.539 0 111.885 44.885Q355.231-539.769 363.077-472h91.615l-87.846-244H324q-6.5 0-11.25-4.758-4.75-4.757-4.75-11.269 0-6.512 4.75-11.242Q317.5-748 324-748h120q6.5 0 11.25 4.758 4.75 4.757 4.75 11.269 0 6.512-4.75 11.242Q450.5-716 444-716h-43.231l30.846 86.461h248.616L609-822.154q-2.308-6.923-7.692-10.384Q595.923-836 589-836h-73q-6.5 0-11.25-4.758-4.75-4.757-4.75-11.269 0-6.512 4.75-11.242Q509.5-868 516-868h73q20.077 0 31.346 8.686 11.269 8.687 18.193 27.006L713.154-628H760q72.7 0 125.85 49.65Q939-528.7 939-456q0 71.043-50.615 120.753Q837.769-285.538 768-285.538q-65.923 0-115.192-44.385-49.27-44.385-56.885-110.077H363.077q-7.846 69-58.423 112.5T192.348-284Zm139.806-156v-32H228q-6.5 0-11.25 4.758-4.75 4.757-4.75 11.269 0 6.512 4.75 11.242Q221.5-440 228-440h104.154Zm158-32h106.769q3.462-27.615 21.423-65.923 17.961-38.308 51.423-59.615h-226L490.154-472Zm208.615-103.769 36.462 99.846q2.542 5.795 8.425 8.205 5.882 2.41 11.421.487 5.538-1.923 8.577-8.115 3.038-6.192 1.115-11.731l-37.461-103.846-28.539 15.154ZM514.846-124.077v47.385q0 7.792-6.577 12.088-6.577 4.296-14.274-.076L332.538-144.77q-5.461-2.231-4.276-7.693 1.185-5.461 7.507-5.461h108.846v-47.385q0-7.792 6.577-12.088 6.577-4.296 14.274.077l159.457 80.088q4.462 2.231 3.276 7.693-1.185 5.461-6.507 5.461H514.846Z"/></svg>