<svg xmlns="http://www.w3.org/2000/svg" height="20" viewBox="0 -960 960 960" width="20"><path d="M192.348-284Q119.7-284 69.85-333.75 20-383.5 20-456q0-69 47.15-121.269 47.15-52.27 124.85-52.27 60.539 0 111.885 44.885Q355.231-539.769 363.077-472h91.615l-87.846-244H324q-6.8 0-11.4-4.547-4.6-4.547-4.6-11.269 0-6.723 4.6-11.453Q317.2-748 324-748h120q6.8 0 11.4 4.547 4.6 4.547 4.6 11.269 0 6.723-4.6 11.453Q450.8-716 444-716h-43.231l30.846 86.461h248.616L609-822.154q-2.308-6.923-7.692-10.384Q595.923-836 589-836h-73q-6.8 0-11.4-4.547-4.6-4.547-4.6-11.269 0-6.723 4.6-11.453Q509.2-868 516-868h73q20.077 0 31.346 8.686 11.269 8.687 18.193 27.006L713.194-628H760q72.7 0 125.85 49.65Q939-528.7 939-456q0 70.885-50.615 120.673Q837.769-285.538 768-285.538q-65.923 0-115.192-44.385-49.27-44.385-56.885-110.077H363.077q-7.846 69-58.423 112.5T192.348-284ZM192-316q46.231 0 86.577-30.731T332.154-440H228q-6.8 0-11.4-4.547-4.6-4.547-4.6-11.269 0-6.723 4.6-11.453Q221.2-472 228-472h104.154q-10.231-57.769-52.077-90.885Q238.231-596 192-596q-58.5 0-99.25 41.25T52-456q0 57.692 40.75 98.846T192-316Zm298.154-156h106.769q3.462-27.615 21.423-65.923 17.961-38.308 51.423-59.615h-226L490.154-472Zm277.319 156q57.988 0 99.258-41.654Q908-399.308 908-455.82q0-57.641-44.25-101.911Q819.5-602 755-594q-7.923 0-14.615.385-6.693.384-13.077 2.692l37.461 103.077q1.923 5.538-.987 12.027-2.91 6.489-8.705 8.588-5.539 1.923-11.5-.553-5.962-2.477-8.346-8.139l-36.462-99.846q-33.663 19.308-52.216 53.077Q628-488.923 628-456q0 57.692 40.742 98.846Q709.485-316 767.473-316ZM514.846-165.077v47.385q0 7.57-6.594 11.977t-14.257.034l-161.457-80.088q-5.461-2.231-4.276-7.693 1.185-5.461 7.507-5.461h108.846v-47.385q0-7.57 6.595-11.977 6.594-4.407 14.256-.034l159.457 80.088q4.462 2.231 3.413 7.693-1.049 5.461-6.644 5.461H514.846ZM195.077-457ZM763-448Z"/></svg>