<svg xmlns="http://www.w3.org/2000/svg" height="20" viewBox="0 -960 960 960" width="20"><path d="M607-591v206q0 7.583 9 10.292Q625-372 630-377l59.904-59.904Q698-445 702-454.667q4-9.666 4-20.333v-189q0-21.45-15.275-36.725Q675.45-716 654-716H465q-10.667 0-20.333 4-9.667 4-17.763 12.096L367-640q-5 5-2.292 14 2.709 9 10.292 9h206q11.05 0 18.525 7.475Q607-602.05 607-591ZM436-420v206q0 7.583 9 10.292Q454-201 459-206l59.904-59.904Q527-274 531-283.667q4-9.666 4-20.333v-189q0-21.45-15.275-36.725Q504.45-545 483-545H294q-10.667 0-20.333 4-9.667 4-17.763 12.096L196-469q-5 5-2.292 14 2.709 9 10.292 9h206q11.05 0 18.525 7.475Q436-431.05 436-420Z"/></svg>