<svg xmlns="http://www.w3.org/2000/svg" height="24" viewBox="0 -960 960 960" width="24"><path d="M640-586.999v259.564q0 17.957 16.239 24.653 16.24 6.695 29.066-6.131l95.086-95.086q14.957-14.957 22.936-34.262 7.978-19.304 7.978-40.391v-226.652q0-44.305-30.848-75.153-30.848-30.848-75.153-30.848H478.652q-21.087 0-40.391 7.978-19.305 7.979-34.262 22.936l-95.086 95.086q-12.826 12.826-6.131 29.066Q309.478-640 327.435-640h259.564q22.088 0 37.544 15.457Q640-609.087 640-586.999ZM388.695-335.694V-76.13q0 17.957 16.239 24.653 16.24 6.695 29.066-6.13l95.087-95.087q14.956-14.957 22.935-34.262Q560-206.26 560-227.348v-226.651q0-44.305-30.848-75.153Q498.304-560 453.999-560H227.348q-21.088 0-40.392 7.978-19.305 7.979-34.262 22.935L57.608-434q-12.826 12.826-6.13 29.066 6.695 16.239 24.652 16.239h259.564q22.088 0 37.544 15.457 15.457 15.456 15.457 37.544Z"/></svg>