<svg xmlns="http://www.w3.org/2000/svg" height="24" viewBox="0 -960 960 960" width="24"><path d="M231.521-142.477q-36.73 0-62.887-26.157-26.157-26.157-26.157-62.887 0-36.957 26.157-62.718Q194.791-320 231.521-320q6.696 0 13.392.565t13.391 3.131l136.913-136.913q-7.261-23.826-1.761-48t23.326-42.001q17.827-17.826 42.001-23.326 24.174-5.5 48 1.761l136.913-136.913q-2-6.695-2.848-13.391-.848-6.696-.848-13.392 0-36.73 25.761-62.887 25.761-26.157 62.718-26.157 36.956 0 63 26.157 26.044 26.157 26.044 62.887 0 36.957-26.157 62.718Q765.209-640 728.479-640q-3.957 0-26.783-3.696L564.783-507.783q7.261 23.826 1.761 48.5t-23.326 42.501q-18.261 18.261-42.435 24.043-24.174 5.783-48.001-2.478L328.087-271.521h73.739q11.565-21.957 32.527-35.218Q455.315-320 479.771-320q25.62 0 46.947 12.761 21.326 12.761 32.891 35.718h89.261q12.13-22.392 33.289-35.435Q703.317-320 728.479-320q36.73 0 62.887 25.761 26.157 25.761 26.157 62.718 0 36.956-26.157 63-26.157 26.044-62.887 26.044-25.162 0-46.32-13.544-21.159-13.544-33.289-35.5h-89.261q-12.13 22.391-33.289 35.717-21.158 13.327-46.32 13.327-24.957 0-45.5-13.544-20.544-13.544-32.674-35.5h-92.13q-12.131 21.956-32.674 35.5-20.544 13.544-45.501 13.544Zm0-249.044q-36.73 0-62.887-25.761-26.157-25.761-26.157-62.718 0-36.957 26.086-62.718 26.087-25.761 62.718-25.761 36.632 0 62.675 25.969Q320-516.542 320-480.075q0 36.466-25.991 62.51-25.99 26.044-62.488 26.044ZM231.281-640q-36.631 0-62.718-25.761-26.086-25.761-26.086-62.718 0-36.956 26.157-63 26.157-26.044 62.887-26.044 36.957 0 62.718 26.074Q320-765.375 320-728.761q0 36.614-26.044 62.687Q267.913-640 231.281-640Zm248.794 0q-36.466 0-62.51-25.991-26.044-25.99-26.044-62.488 0-36.73 25.761-62.887 25.761-26.157 62.718-26.157 36.957 0 62.718 26.086 25.761 26.087 25.761 62.718 0 36.632-25.969 62.675Q516.542-640 480.075-640Zm248.644 248.479q-36.632 0-62.675-25.969Q640-443.458 640-479.925q0-36.466 25.991-62.51 25.99-26.044 62.488-26.044 36.73 0 62.887 25.761 26.157 25.761 26.157 62.718 0 36.957-26.086 62.718-26.087 25.761-62.718 25.761Z"/></svg>