<svg xmlns="http://www.w3.org/2000/svg" height="20" viewBox="0 -960 960 960" width="20"><path d="M241.696-172.782q-87.639 0-149.429-60.376-61.79-60.377-61.79-148.016 0-82.783 52.348-143.935 52.348-61.153 132.305-66.718 25.261-88.261 98.87-141.826 73.609-53.565 166-53.565 110.957 0 192.848 69.348 81.892 69.347 87.544 174.043 70 6.218 119.565 58.609 49.566 52.392 49.566 127.479 0 76.961-54.088 130.959Q821.348-172.782 744-172.782H241.696Zm.565-98.001h500.043q36.929 0 63.073-26.079t26.144-62.913q0-36.834-26.144-63.138-26.144-26.304-63.073-26.304h-78.783v-80.479q0-69.608-54.956-114.565Q553.609-689.217 480-689.217q-55.217 0-98.847 30.913-43.63 30.913-62.5 79.738 63.957 19.261 99.109 75.414Q452.914-447 452.914-384h-98.001q0-46.888-33.224-80.053-33.224-33.164-80.195-33.164-46.972 0-79.994 33.224-33.021 33.223-33.021 80.195 0 46.972 33.447 79.993 33.447 33.022 80.335 33.022Z"/></svg>