<svg xmlns="http://www.w3.org/2000/svg" height="20" viewBox="0 -960 960 960" width="20"><path d="M240.717-183.869q-81.347 0-140.739-53.533-59.391-53.533-59.391-133.402 0-78.913 58.315-130.653 58.315-51.739 138.228-51.739 71.913 0 122.109 49.12Q409.435-454.957 409.435-384h75.587q-.957-100.826-70.642-171.62-69.684-70.793-178.185-73.402 35.587-71.674 104.457-109.391 68.87-37.718 147.348-37.718 106.674 0 183.489 68.859t79.446 172.576q72.152 3.826 120.315 54.142 48.163 50.315 48.163 121.271 0 73.109-51.152 124.261Q817.109-183.869 744-183.869H240.717Z"/></svg>