<svg xmlns="http://www.w3.org/2000/svg" height="24" viewBox="0 -960 960 960" width="24"><path d="M260.717-151.869q-95.108 0-161.62-65.913-66.51-65.914-66.51-161.022 0-80.87 48.858-142.761 48.859-61.892 123.533-79.131 25.957-90.956 101.272-149.195 75.315-58.24 173.75-58.24 120.674 0 202.609 82.859t84.326 198.576q75 10.631 117.739 66.066 42.739 55.434 42.739 120.587 0 78.108-54.652 133.141Q818.109-151.869 740-151.869H260.717Zm.24-91.001h478.326q40.565 0 68.847-28.282 28.283-28.283 28.283-68.848t-28.283-68.848q-28.282-28.282-68.847-28.282h-62.87v-83.587q0-81.566-57.424-138.989Q561.565-717.13 480-717.13q-60.13 0-106.859 32.347-46.728 32.348-69.25 82.044 79.674 13.956 132.316 76.848Q488.848-463 488.848-380h-91q0-56.804-40.163-96.967t-96.968-40.163q-56.804 0-96.967 40.163T123.587-380q0 56.804 40.283 96.967 40.282 40.163 97.087 40.163Z"/></svg>