<svg xmlns="http://www.w3.org/2000/svg" height="20" viewBox="0 -960 960 960" width="20"><path d="m675.525-181.955 15.043 15.042q14.391 13.826 14.109 32.283-.283 18.457-14.109 32.283t-32.732 14.109q-18.906.283-32.399-13.544l-91.452-91.877q-14.809-14.818-14.809-34.653 0-19.834 14.957-34.427l91.452-91.877q13.678-13.688 32.301-13.688 18.624 0 32.117 13.826 13.826 13.826 14.391 32.566.565 18.739-13.826 32.565l-15.043 15.043h187.26q19.257 0 32.716 13.398 13.458 13.398 13.458 32.566 0 19.167-13.458 32.776-13.459 13.609-32.716 13.609h-187.26ZM127.172-434.261H99.781q-20.387 0-34.694-14.307-14.307-14.306-14.307-34.694v-27.391q0-20.387 14.307-34.694 14.307-14.307 34.694-14.307h27.391q20.388 0 34.694 14.307 14.307 14.307 14.307 34.694v27.391q0 20.388-14.307 34.694-14.306 14.307-34.694 14.307Zm307.043 0q-58.735 0-99.779-41.201-41.043-41.2-41.043-99.843v-168q0-58.642 41.266-99.843 41.265-41.201 100-41.201 58.734 0 99.778 41.201 41.044 41.201 41.044 99.843v168q0 58.643-41.266 99.843-41.266 41.201-100 41.201Zm.222-92.349q20.478 0 34.586-14.108 14.109-14.109 14.109-34.587v-168q0-20.478-14.109-34.586Q454.915-792 434.437-792q-20.478 0-34.587 14.109-14.108 14.108-14.108 34.586v168q0 20.478 14.108 34.587 14.109 14.108 34.587 14.108Z"/></svg>