<svg xmlns="http://www.w3.org/2000/svg" height="24" viewBox="0 -960 960 960" width="24"><path d="M273.782-100.782q-44.305 0-75.153-30.848-30.848-30.848-30.848-75.153v-506.999q-22.087 0-37.544-15.457-15.457-15.457-15.457-37.544 0-22.087 15.457-37.544 15.457-15.457 37.544-15.457h179.218q0-22.087 15.457-37.544 15.457-15.456 37.544-15.456h158.87q22.087 0 37.543 15.456 15.457 15.457 15.457 37.544h180.349q22.087 0 37.544 15.457 15.457 15.457 15.457 37.544 0 22.087-15.457 37.544-15.457 15.457-37.544 15.457v506.999q0 44.305-30.848 75.153-30.848 30.848-75.153 30.848H273.782Zm412.436-613H273.782v506.999h412.436v-506.999ZM349.826-280.565h93v-360h-93v360Zm167.348 0h93v-360h-93v360ZM273.782-713.782v506.999-506.999Z"/></svg>