<svg xmlns="http://www.w3.org/2000/svg" height="24" viewBox="0 -960 960 960" width="24"><path d="M398.385-193.076q-55.722 0-92.362-41.424-36.639-41.423-28.946-96.5l46.538-348.923q1.011-4.956 4.044-8.786 3.033-3.83 7.879-6.291l268.308-106.77q8.77-3.384 16.923 1.347 8.154 4.73 9.385 14.73L684.923-329q5.923 54.308-29.653 95.116-35.577 40.808-90.655 40.808h-166.23ZM335.923-470h291.616l-34.462-285.462-230.154 93.385-27 192.077Zm62.462 236.923h166.23q37.001 0 61.155-27.384 24.153-27.385 19.384-64.154L633.18-430H331.077l-14 104.385q-5 36.608 19.384 64.573 24.385 27.965 61.924 27.965ZM482-430v-40 40Zm.231-40ZM481-430Z"/></svg>