<svg xmlns="http://www.w3.org/2000/svg" height="20" viewBox="0 -960 960 960" width="20"><path d="M391.385-217.076q-48.722 0-79.862-35.924-31.139-35.923-25.446-84l45.538-337.923q1.011-6.956 5.544-12.786 4.533-5.83 10.379-9.291l236.308-94.77q12.77-4.384 23.923 1.847 11.154 6.23 13.385 20.23L673.923-335q4.923 47.308-25.653 82.616-30.577 35.308-79.655 35.308h-177.23ZM338.923-494h283.616l-31.462-266.462-228.154 92.385-24 174.077Zm52.462 244.923h177.23q33.001 0 55.655-24.684 22.653-24.685 17.884-57.854L626.18-462H336.077l-19 129.385q-5 33.048 17.479 58.293 22.48 25.245 56.829 25.245ZM481-462v-32 32Zm-.769-32ZM480-462Z"/></svg>