<svg xmlns="http://www.w3.org/2000/svg" height="20" viewBox="0 -960 960 960" width="20"><path d="M374.087-132.282q-69.587 0-114.239-51.631-44.653-51.63-36.413-120.217l55.195-408.414q2-14.434 10.576-26.13t21.772-17.413l289.739-116.392q24.631-9.717 46.903 3.598 22.271 13.316 25.75 40.185l63.195 526.805q8.479 68.348-36.293 118.978-44.772 50.631-114.359 50.631H374.087ZM334.87-508.304h293.5l-32.283-272.022L357.913-685 334.87-508.304Zm39.217 293.021h211.826q30.565 0 51.609-23.223 21.043-23.224 17.043-54.19l-16.761-132.608H324.196l-18.761 131.608q-5 31.005 16.138 54.709 21.139 23.704 52.514 23.704ZM481-425.304v-83 83Zm0-83Zm-1 83Z"/></svg>