<svg xmlns="http://www.w3.org/2000/svg" height="20" viewBox="0 -960 960 960" width="20"><path d="M480-76.782q-106.599 0-194.604-48.565-88.005-48.565-141.831-131.261l157.13-156.565 74.995 76.167q14.918 14.311 33.924 14.007 19.007-.305 33.56-14.653l143.825-143.825v68.825q0 16.982 11.59 28.469 11.589 11.488 28.722 11.488 16.892 0 28.529-11.65 11.638-11.65 11.638-28.872v-158.956q0-20.387-14.307-34.694-14.306-14.307-34.694-14.307H458.956q-16.982 0-28.469 11.43-11.488 11.43-11.488 28.326 0 16.897 11.65 28.81t28.872 11.913h73.261L409.695-418.609l-73.994-75.167q-14.919-14.311-34.425-14.006-19.507.304-34.06 14.652L105.043-330.956q-14.696-34.261-21.479-71.72-6.782-37.459-6.782-77.081 0-84.445 31.668-157.909 31.669-73.465 85.958-127.808 54.289-54.344 127.679-86.044 73.391-31.7 157.751-31.7t157.964 31.671q73.603 31.67 128.049 85.963 54.447 54.293 85.907 127.87 31.46 73.577 31.46 157.906 0 84.33-31.7 157.721-31.7 73.39-86.044 127.679-54.343 54.289-127.808 85.958Q564.202-76.782 480-76.782Z"/></svg>