<svg xmlns="http://www.w3.org/2000/svg" height="20" viewBox="0 -960 960 960" width="20"><path d="M65-538q22-155 139-257.5T478-898q86.822 0 162.661 32.804t132.849 89.56q57.01 56.756 89.75 132.716Q896-566.961 896-480q0 86.72-32.804 162.812-32.804 76.092-89.56 132.9Q716.88-127.48 640.92-94.74 564.961-62 478-62q-66.51 0-128.255-21.5Q288-105 237-145q-22-15-22.5-42.5t19.349-47.224q13.415-12.345 32.129-15.31Q284.692-253 302-243q36.308 31.238 81.808 47.119Q429.308-180 478-180q124.688 0 212.344-87.721Q778-355.441 778-480.221 778-605 690.344-692.5T478-780q-108 0-190.5 68.5T185-538q-5.81 25.3-23.714 41.65Q143.381-480 118.754-480q-24.456 0-41.105-17.8Q61-515.6 65-538Zm415 58Zm97 12v61q0 18.275 12.589 30.638Q602.179-364 620.789-364q18.186 0 30.698-12.65Q664-389.3 664-408v-152q0-24.3-17.35-41.65Q629.3-619 605-619H452q-18.275 0-30.638 12.307Q409-594.386 409-576.193 409-558 421.65-545T453-532h65L401-416l-68.038-70.08Q315-503 292.143-502.462q-22.857.539-40.344 17.663L105-338q-12 12-12 29t12.647 30.069Q119-265 136.788-265q17.789 0 31.212-13l124-123 68.038 70.08Q378-314 400.857-314.538 423.714-315.077 441-332l136-136Z"/></svg>