<svg xmlns="http://www.w3.org/2000/svg" height="20" viewBox="0 -960 960 960" width="20"><path d="M479.922-122Q411-122 362.5-170.582 314-219.165 314-288.094v-384.187q0-68.929 48.578-117.324Q411.155-838 480.078-838 549-838 597.5-789.418 646-740.835 646-671.906v384.187q0 68.929-48.578 117.324Q548.845-122 479.922-122Zm.29-460q27.313 0 46.551-19.45Q546-620.9 546-648.212q0-27.313-19.45-46.551Q507.1-714 479.788-714q-27.313 0-46.551 19.45Q414-675.1 414-647.788q0 27.313 19.45 46.551Q452.9-582 480.212-582Zm0 336q27.313 0 46.551-19.45Q546-284.9 546-312.212q0-27.313-19.45-46.551Q507.1-378 479.788-378q-27.313 0-46.551 19.45Q414-339.1 414-311.788q0 27.313 19.45 46.551Q452.9-246 480.212-246Zm-.001-24Q463-270 450.5-282.289q-12.5-12.29-12.5-29.5Q438-329 450.289-341.5q12.29-12.5 29.5-12.5Q497-354 509.5-341.711q12.5 12.29 12.5 29.5Q522-295 509.711-282.5q-12.29 12.5-29.5 12.5Z"/></svg>