<svg xmlns="http://www.w3.org/2000/svg" height="20" viewBox="0 -960 960 960" width="20"><path d="M21.999-117.999v-551.48q0-55.653 41.217-96.588 41.218-40.935 96.305-40.935 53.261 0 90.87 36.185 37.609 36.184 44.392 89.815v-5.087L480-855.002l185.782 169.478v5.087q6.783-53.63 44.109-90.098 37.327-36.467 90.088-36.467 56.152 0 97.087 40.935t40.935 96.588v551.48h-418.48v-192h-79.042v192H21.999Zm739.524-512.524H840v-38.596q0-16.404-11.539-28.143t-28.062-11.739q-16.522 0-27.699 11.539-11.177 11.539-11.177 28.062v38.877Zm-641.523 0h78.477v-38.596q0-16.404-11.177-28.143t-27.699-11.739q-16.523 0-28.062 11.539Q120-685.923 120-669.4v38.877ZM120-216h78.477v-316.522H120V-216Zm168 0h54.477v-192h275.046v192H672v-330.826L480-723.522 288-547.068V-216Zm473.523 0H840v-316.522h-78.477V-216ZM479.5-504q-23.5 0-41.5-18.5T420-564q0-23 18-41.5t41.5-18.5q23.5 0 42 18.5T540-564q0 23-18.5 41.5t-42 18.5Z"/></svg>