<svg xmlns="http://www.w3.org/2000/svg" height="20" viewBox="0 -960 960 960" width="20"><path d="M200-244q-22 0-37-15t-15-37v-368q0-22.7 15-37.35Q178-716 199.821-716h140.611q10.869 0 20.718 4 9.85 4 17.85 12l80 80h301q22.7 0 37.35 14.65Q812-590.7 812-568v272q0 22-14.65 37T760-244H200Zm386-88h92q13.333 0 22.667-9.333Q710-350.667 710-364v-148h6q3.467 0 5.733-2.253 2.267-2.254 2.267-5.7 0-3.447-2.267-5.747-2.266-2.3-5.733-2.3h-54v9q0-6-3.5-9.5T649-532h-34q-6 0-9.5 3.5T602-519v-9h-54q-3.467 0-5.733 2.253-2.267 2.254-2.267 5.7 0 3.047 4.467 2.547 4.466-.5 3.533 5.5h6v148q0 13.333 9.333 22.667Q572.667-332 586-332Zm-16-180h124v148q0 7-4.5 11.5T678-348h-92q-7 0-11.5-4.5T570-364v-148Z"/></svg>