<svg xmlns="http://www.w3.org/2000/svg" height="20" viewBox="0 -960 960 960" width="20"><path d="M174.783-172.782q-40.305 0-69.153-28.848-28.848-28.848-28.848-69.153v-418.434q0-41.005 28.848-69.503 28.848-28.498 69.153-28.498h159.641q19.575 0 37.315 6.978 17.739 6.978 32.696 21.935L480-682.74h305.217q41.005 0 69.503 28.499 28.498 28.498 28.498 69.503v313.955q0 40.305-28.498 69.153-28.498 28.848-69.503 28.848H174.783Zm0-98.001h610.434v-313.955H439.26L334.782-689.217H174.783v418.434Zm0 0v-418.434V-270.783Zm418.434-48.565h72q20 0 34-14t14-34v-97.39q10.4 0 17.2-6.8 6.8-6.8 6.8-17.2 0-10.4-6.8-17.2-6.8-6.8-17.2-6.8h-48v.217q0-10.826-7.035-17.522-7.035-6.695-17.748-6.695h-22.999q-10.826 0-17.522 6.695-6.696 6.696-6.696 17.522v-.217h-48q-10.4 0-17.2 6.8-6.8 6.8-6.8 17.2 0 10 9 14t15 10v97.39q0 20 14 34t34 14Zm0-145.39h72v97.39h-72v-97.39Z"/></svg>