<svg xmlns="http://www.w3.org/2000/svg" height="24" viewBox="0 -960 960 960" width="24"><path d="M192-212q-26 0-43-17t-17-43v-416q0-26 17-43t42.821-17h161.968q12.52 0 23.865 5Q389-738 397-730l62 62h309q26 0 43 17t17 43v336q0 26-17 43t-43 17H192Zm374-88h100q18.333 0 31.167-12.833Q710-325.667 710-344v-188h16q6.067 0 10.033-3.953 3.967-3.954 3.967-10Q740-552 736.033-556q-3.966-4-10.033-4h-76v-5q0-6-4.5-10.5T635-580h-38q-6 0-10.5 4.5T582-565v5h-76q-6.067 0-10.033 3.953-3.967 3.954-3.967 10Q492-540 495.967-536q3.966 4 10.033 4h16v188q0 18.333 12.833 31.167Q547.667-300 566-300Zm-16-232h132v188q0 7-4.5 11.5T666-328H566q-7 0-11.5-4.5T550-344v-188Z"/></svg>