<svg xmlns="http://www.w3.org/2000/svg" height="24" viewBox="0 -960 960 960" width="24"><path d="M166.783-140.782q-44.305 0-75.153-30.848-30.848-30.848-30.848-75.153v-466.434q0-44.305 30.848-75.153 30.848-30.848 75.153-30.848h180.999q21.225 0 40.461 7.978 19.235 7.978 34.192 22.935L480-730.74h313.217q44.305 0 75.153 30.849 30.848 30.848 30.848 75.153v377.955q0 44.305-30.848 75.153-30.848 30.848-75.153 30.848H166.783Zm406.434-146.566h80q25 0 42.5-17.5t17.5-42.5v-137.39h10q13 0 21.5-8.5t8.5-21.5q0-13-8.5-21.5t-21.5-8.5h-70v-13.783q0-10.826-8.035-18.522-8.035-7.695-18.748-7.695h-26.999q-10.826 0-18.522 7.695-7.696 7.696-7.696 18.522v13.783h-70q-13 0-21.5 8.5t-8.5 21.5q0 13 8.5 21.5t21.5 8.5h10v137.39q0 25 17.5 42.5t42.5 17.5Zm0-197.39h80v137.39h-80v-137.39Z"/></svg>