<svg xmlns="http://www.w3.org/2000/svg" height="24" viewBox="0 -960 960 960" width="24"><path d="M320-764.522q-36.391 0-62.435-26.044-26.044-26.043-26.044-62.435 0-36.391 26.044-62.435 26.044-26.043 62.435-26.043 36.391 0 62.435 26.043 26.044 26.044 26.044 62.435 0 36.392-26.044 62.435-26.044 26.044-62.435 26.044Zm333.435-48.913q-10.13-10.131-10.13-24.109 0-13.979 10.13-24.109l62.869-62.869h95.87L701.653-813.435q-10.13 10.13-24.109 10.13-13.978 0-24.109-10.13ZM360-200.565q-30.696 0-58.239-11.565-27.544-11.566-50.24-32.392 13.435-11 27.87-22.435 14.435-11.434 29.304-21.869l-58.608-112.217q-9.566-18.131-14.066-38.261-4.5-20.131-4.5-40.696v-160q0-36.391 26.044-62.435 26.044-26.044 62.435-26.044h120q39.739 0 76.022-16.348Q552.304-761.174 582-789.87L649.87-722q-41.957 41.957-96.065 66.218Q499.696-631.521 440-631.521h-47.521v123.042h60.608q22.652 0 43.522 8.761 20.87 8.761 35.261 25.718l34.391 38.826q57.869-23.87 109.587-38.587 51.717-14.718 90.152-14.718 28.826 0 55.652 11.696 26.827 11.696 26.827 47.783 0 42.304-50.935 98.913-50.934 56.608-130.716 113.913-16.349 7.522-33.479 11.565-17.131 4.044-33.349 4.044-35.435 0-66.435-15.587T480-256.043q-22.565 24.304-53.565 39.891-31 15.587-66.435 15.587Zm37.522-147.87q15.739-9.87 38.673-22.913 22.935-13.043 37.674-20.478l-17.826-19.695-83.608 4 25.087 59.086ZM120-22.477q-20.391 0-34.435-14.327Q71.52-51.13 71.52-71.52q0-20.392 14.044-34.435Q99.609-120 120-120q23.739 0 47.261-6.5 23.521-6.5 46.521-19.37Q225.043-152 240-152t26.218 6.13q23 12.87 46.521 19.37Q336.261-120 360-120q23.739 0 47.826-6.5t46.522-19.37Q465.609-152 480.5-152q14.891 0 25.718 6.13 23 12.87 46.521 19.087 23.522 6.218 47.261 6.218 23.739 0 47.543-6.218 23.805-6.217 46.239-19.087 10.827-6.13 25.935-6.13 15.109 0 25.935 6.13 22.435 12.87 46.522 19.37Q816.261-120 840-120q20.391 0 34.435 14.044 14.044 14.043 14.044 34.435 0 20.391-14.044 34.717Q860.391-22.477 840-22.477q-30.435 0-60.717-7.5Q749-37.477 720-51.912q-29 14.435-59.283 21.935-30.282 7.5-60.717 7.5t-60.717-7.5Q509-37.477 480-51.912q-29 14.435-59.283 21.935-30.282 7.5-60.717 7.5t-60.717-7.5Q269-37.477 240-51.912q-29 14.435-59.283 21.935-30.282 7.5-60.717 7.5Z"/></svg>