<svg xmlns="http://www.w3.org/2000/svg" height="24" viewBox="0 -960 960 960" width="24"><path d="M320-776q-26 0-45-19t-19-45q0-26 19-45t45-19q26 0 45 19t19 45q0 26-19 45t-45 19Zm326-16q-4-4-4-9.5t4-9.5l93-93h38L664-791q-4 4-9 3.5t-9-4.5ZM360-194q-27 0-50.5-6.5T270-217q11-8 40-29.5t43-31.5l-72-139q-8-14-11.5-30t-3.5-33v-160q0-23 15.5-38.5T320-694h120q41 0 76-12.5t65-35.5l19 19q-33 26-73.5 41.5T440-666h-82v192h100q13 0 24 5.5t20 14.5l55 60q64-27 118.5-43.5T766-454q17 0 32.5 5t15.5 20q0 40-69 105.5T573-196q-23-3-47-13.5T480-241q-27 26-58.5 36.5T360-194Zm21-104q28-17 75.5-43.5T530-381l-48-53q-5-5-12.5-8t-15.5-2l-131 17 58 129ZM120-66q-6 0-10-4t-4-10q0-6 4-10t10-4q28 0 55-8t53-22q5-3 12-3t12 3q26 14 53 22t55 8q28 0 55-8t53-22q5-3 12-3t12 3q26 14 53 22t55 8q28 0 55-8t53-22q5-3 12-3t12 3q26 14 53 22t55 8q6 0 10 4t4 10q0 6-4 10t-10 4q-28 0-58-8t-62-25q-32 17-62 25t-58 8q-28 0-58-8t-62-25q-32 17-62 25t-58 8q-28 0-58-8t-62-25q-32 17-62 25t-58 8Z"/></svg>