<svg xmlns="http://www.w3.org/2000/svg" height="24" viewBox="0 -960 960 960" width="24"><path d="m540-450 62 79q2 3 22 11 17 0 25-15.5t-3-29.5l-56-75 57-76q11-14 3-29t-26-15q-7 0-12.5 3t-9.5 8l-62 79v-60q0-13-8.5-21.5T510-600q-13 0-21.5 8.5T480-570v180q0 13 8.5 21.5T510-360q13 0 21.5-8.5T540-390v-60Zm-200-90v150q0 13 8.5 21.5T370-360q13 0 21.5-8.5T400-390v-180q0-13-8.5-21.5T370-600h-60q-13 0-21.5 8.5T280-570q0 13 8.5 21.5T310-540h30ZM206.783-100.782q-44.305 0-75.153-30.848-30.848-30.848-30.848-75.153v-546.434q0-44.305 30.848-75.153 30.848-30.848 75.153-30.848h546.434q44.305 0 75.153 30.848 30.848 30.848 30.848 75.153v546.434q0 44.305-30.848 75.153-30.848 30.848-75.153 30.848H206.783Z"/></svg>