<svg xmlns="http://www.w3.org/2000/svg" height="20" viewBox="0 -960 960 960" width="20"><path d="M320-467.923 430.923-552 320-636.077l-28.616 38.769L352.461-552l-61.077 45.308L320-467.923Zm320 0 28.616-38.769L607.539-552l61.077-45.308L640-636.077 529.077-552 640-467.923Zm-218 179 58-60 58 60 58-60 32 33L663.077-349 596-419.077l-58 60-58-60-58 60-58-60L296.923-349 332-315.923l32-33 58 60ZM480.134-136q-70.673 0-133.41-26.839-62.737-26.84-109.865-73.922-47.127-47.082-73.993-109.757Q136-409.194 136-479.866q0-71.673 26.839-133.91 26.84-62.237 73.922-109.365 47.082-47.127 109.757-73.993Q409.194-824 479.866-824q71.673 0 133.91 26.839 62.237 26.84 109.365 73.922 47.127 47.082 73.993 109.257Q824-551.806 824-480.134q0 70.673-26.839 133.41-26.84 62.737-73.922 109.865-47.082 47.127-109.257 73.993Q551.806-136 480.134-136ZM480-480Zm0 312q130 0 221-91t91-221q0-130-91-221t-221-91q-130 0-221 91t-91 221q0 130 91 221t221 91Z"/></svg>