<svg xmlns="http://www.w3.org/2000/svg" height="24" viewBox="0 -960 960 960" width="24"><path d="M450.539-340H560q8.5 0 14.25-5.758 5.75-5.757 5.75-14.269t-5.75-14.242Q568.5-380 560-380H454.692l10.385-96.307q2-23.462 18.946-38.962 16.946-15.5 40.054-15.5h119q8.5 0 14.25-5.758 5.75-5.757 5.75-14.269t-5.75-14.242q-5.75-5.731-14.25-5.731h-118q-39.167 0-67.5 25.922-28.334 25.921-32.5 64.386l-35.539 338.769q-.23 4.384 1.245 8.341 1.475 3.956 4.18 6.923 2.705 2.967 6.393 4.697Q405.044-120 409.47-120q7.376 0 13.215-5.115 5.838-5.116 6.854-12.423l21-202.462ZM280-270.461q-57-52-88.5-116.885T160-520.556q0-133.102 93.333-226.273Q346.667-840 480-840q108.077 0 195.346 65.807 87.27 65.808 113.193 169.962l41.473 164.169q3.988 15.216-5.704 27.639T798.462-400H720v135.385q0 26.654-18.981 45.634Q682.039-200 655.385-200H560v60q0 8.5-5.758 14.25-5.757 5.75-14.269 5.75-8.511 0-14.242-5.75Q520-131.5 520-140v-67.312q0-14.303 9.288-23.496 9.289-9.192 23.02-9.192h103.077q10.769 0 17.692-6.923T680-264.615v-143.077q0-13.731 9.288-23.02 9.289-9.288 23.02-9.288H788l-38-155q-23-91.769-98.769-148.385Q575.462-800 480-800q-116 0-198 81.224t-82 197.545q0 59.803 24.5 113.625 24.5 53.823 69.5 95.685L320-288v148q0 8.5-5.758 14.25T299.973-120q-8.512 0-14.242-5.75Q280-131.5 280-140v-130.461ZM494-460Z"/></svg>