<svg xmlns="http://www.w3.org/2000/svg" height="24" viewBox="0 -960 960 960" width="24"><path d="M479.174-312.087h81.391q19.826 0 33.587-13.761 13.761-13.761 13.761-33.587 0-19.826-13.761-33.587-13.761-13.761-33.587-13.761h-74.521l5-66.61q.869-6.521 5.652-11.086 4.782-4.565 11.303-4.565h115.609q19.826 0 33.587-13.761 13.761-13.761 13.761-33.587 0-19.826-13.761-33.587-13.761-13.761-33.587-13.761H523.13q-49.26 0-86.369 32.978t-40.979 81.805l-27.217 355.131q-1 10.425 2.565 19.691 3.566 9.266 10.043 16.159 6.477 6.892 15.309 10.913 8.833 4.02 19.431 4.02 18.124 0 32.019-12.76 13.895-12.762 15.895-31.153l15.347-205.131Zm-256.131 67.435q-56.435-54.261-88.218-126.022Q103.043-442.435 103.043-520q0-157.066 109.895-267.011 109.894-109.946 266.887-109.946 130.827 0 231.849 77.174 101.022 77.174 131.718 200.826l53.131 210.087q6.695 25.218-9.159 45.523-15.854 20.304-42.277 20.304h-68.13v93.999q0 44.305-30.848 75.153-30.848 30.848-75.153 30.848h-53.999v27q0 22.087-15.456 37.544-15.457 15.456-37.544 15.456-22.087 0-37.544-15.456-15.457-15.457-15.457-37.544v-80q0-22.087 15.457-37.544 15.457-15.457 37.544-15.457h106.999v-146.999q0-22.087 15.457-37.544 15.457-15.457 37.544-15.457h52.738l-35.174-143.695q-23-87.043-95.739-142.63Q573.043-790.956 480-790.956q-112.253 0-191.605 78.365Q209.044-634.226 209.044-522q0 57.739 23.652 110.609 23.652 52.869 67.522 92.608l28.826 26.826v175.914q0 22.087-15.457 37.544-15.457 15.456-37.544 15.456-22.087 0-37.544-15.456-15.456-15.457-15.456-37.544v-128.609ZM492.87-426.999Z"/></svg>