<svg xmlns="http://www.w3.org/2000/svg" height="24" viewBox="0 -960 960 960" width="24"><path d="M160-666v86q0 8.538-5.731 14.269T140-560q-8.539 0-14.269-5.731Q120-571.462 120-580v-227.693q0-13.923 9.192-23.115Q138.384-840 152.307-840h143.078Q323-840 341.5-821.5 360-803 360-775.385V-726q0 18.615-14.769 35.423-14.769 16.808-36.308 21.654l35.231 82.538q4.154 9.539-1.462 17.962Q337.077-560 326.308-560q-5.616 0-10.385-2.923t-7.462-8.308L267.846-666H160Zm0-40h135.385q10.769 0 17.692-6.923T320-730.615v-44.77q0-10.769-6.923-17.692T295.385-800H160v94Z"/></svg>