<svg xmlns="http://www.w3.org/2000/svg" height="24" viewBox="0 -960 960 960" width="24"><path d="M149.826-676.174v61.478q0 18.921-12.801 31.722-12.8 12.8-31.721 12.8-18.922 0-31.722-12.8-12.8-12.801-12.8-31.722v-231.522q0-22.087 15.456-37.544 15.457-15.456 37.544-15.456h130.042q44.305 0 75.153 30.848 30.849 30.848 30.849 75.153v32.521q0 24-13.718 44.065-13.717 20.065-33.717 31.63l24.869 57.609q9.131 20.261-3.202 38.739-12.332 18.479-34.754 18.479-12.501 0-22.729-6.848t-15.228-17.979l-34.87-81.173h-66.651Zm0-89.044h110.956v-44.956H149.826v44.956Z"/></svg>