<svg xmlns="http://www.w3.org/2000/svg" height="20" viewBox="0 -960 960 960" width="20"><path d="M809.647-313.478q-24.343 0-41.256-17.116t-16.913-41.244v-89.73q0-24.693 17.06-41.823 17.06-17.131 41.109-17.131 24.614 0 41.744 16.928 17.131 16.928 17.131 41.756v90.27q0 24.264-16.983 41.177-16.984 16.913-41.892 16.913Zm-22.169 142.392v-54.349q-52.087-8.781-88.522-48.25-36.435-39.468-36.435-98.315h44.478q0 42.887 30.057 72.944 30.057 30.057 72.944 30.057 42.087 0 72.381-30.057 30.293-30.057 30.293-72.944h44.805q0 58.747-36.985 98.142-36.985 39.395-87.972 48.337v54.435h-45.044ZM303.781-491.87q-65.087-6.783-104.544-53.87-39.456-47.088-39.456-107.088 0-60 39.739-106.804 39.739-46.805 104.826-54.153 10.856 0 21.667 3.152 10.811 3.152 21.158 8.891-23.391 29.696-38.913 68.696-15.522 39.001-15.522 80.218 0 41.218 14.563 80.589 14.563 39.37 38.742 68.326-10.348 5.739-20.876 8.891-10.529 3.152-21.384 3.152ZM6.737-163.172v-112.349q0-22.305 8.826-42.326 8.826-20.022 25.739-36.848 38.52-29.131 85.151-47.109 46.63-17.978 99.804-21.848-37.739 26.392-57.63 64.761-19.891 38.37-19.891 83.37v112.349H6.737Zm521.217-326.437q-67.913 0-115.566-47.653-47.652-47.652-47.652-115.566 0-67.913 47.652-115.283 47.653-47.37 115.566-47.37 67.913 0 115.566 47.37 47.652 47.37 47.652 115.283 0 67.914-47.652 115.566-47.653 47.653-115.566 47.653ZM220.736-163.172v-112.349q0-31.348 15.609-56.74 15.608-25.391 41.13-41.218 55-33 118.761-50.565 63.761-17.565 131.718-17.565 20.392 0 43.827 2.348t45.957 4.913q-38.783 74.478-10.457 153.718t105.501 117.458H220.736Z"/></svg>