<svg xmlns="http://www.w3.org/2000/svg" height="20" viewBox="0 -960 960 960" width="20"><path d="M809.913-313.478q-24.642 0-41.538-17.022-16.897-17.021-16.897-41.338v-89.73q0-24.693 17.044-41.823 17.043-17.131 41.391-17.131t41.478 16.928q17.131 16.928 17.131 41.756v90.27q0 24.452-16.983 41.271-16.984 16.819-41.626 16.819Zm-22.435 142.392v-54.349q-52.087-8.781-88.522-48.25-36.435-39.468-36.435-98.315h44.478q0 42.887 30.057 72.944 30.057 30.057 72.944 30.057 42.087 0 72.381-30.057 30.293-30.057 30.293-72.944h44.805q0 58.747-36.985 98.142-36.985 39.395-87.972 48.337v54.435h-45.044ZM303.781-491.87q-65.087-6.783-104.544-53.87-39.456-47.088-39.456-107.088 0-60 39.739-106.804 39.739-46.805 104.826-54.153 11.065 0 21.735 3.121 10.669 3.12 21.09 8.922-23.391 29.696-38.913 68.696-15.522 39.001-15.522 80.218 0 41.218 14.563 80.589 14.563 39.37 38.742 68.326-10.285 5.801-20.813 8.922-10.529 3.121-21.447 3.121ZM6.737-163.172v-112.349q0-22.305 8.826-42.326 8.826-20.022 25.739-36.848 38.52-29.131 85.151-47.109 46.63-17.978 99.804-21.848-37.739 26.392-57.63 64.761-19.891 38.37-19.891 83.37v112.349H6.737Zm521.227-326.437q-67.923 0-115.576-47.643-47.652-47.642-47.652-115.566 0-67.923 47.642-115.293 47.643-47.37 115.566-47.37t115.576 47.48q47.652 47.479 47.652 115.173 0 67.928-47.642 115.573-47.642 47.646-115.566 47.646Zm-.526-98.002q26.69 0 46.211-19.006 19.522-19.006 19.522-45.695t-19.502-45.928q-19.501-19.239-46.191-19.239-26.689 0-45.715 19.341-19.026 19.342-19.026 45.806 0 26.698 19.006 45.71 19.006 19.011 45.695 19.011ZM220.736-163.172V-275.51q0-31.359 15.609-56.751 15.608-25.391 41.13-41.218 55-33 118.761-50.565 63.761-17.565 131.718-17.565 20.392 0 43.827 2.348t45.957 4.913q-11.392 22.087-15.674 48.218-4.283 26.131-2.587 48.218-17.522-3.131-35.262-4.413-17.739-1.283-36.261-1.283-52.174 0-102.478 12.304-50.304 12.305-96.304 40.305-5 4-7.718 8.35-2.717 4.351-2.717 9.389v12.086H619.52q13.435 29.783 37.239 56.197 23.805 26.413 56.023 41.805H220.736Zm307.218-489.656Zm0 391.654Z"/></svg>