<svg xmlns="http://www.w3.org/2000/svg" height="24" viewBox="0 -960 960 960" width="24"><path d="M820.091-310.769q-16.63 0-28.36-11.667Q780-334.103 780-350.769v-100q0-16.667 11.64-28.334 11.641-11.666 28.269-11.666 16.63 0 28.36 11.666Q860-467.436 860-450.769v100q0 16.666-11.64 28.333-11.641 11.667-28.269 11.667Zm-15.476 146.154v-61.231q-49.461-8-78.961-41.885-29.5-33.884-31.808-83.038h30.769q0 39.692 27.662 67.538 27.661 27.846 67.723 27.846t67.723-27.661q27.662-27.662 27.662-67.723h30.769q-2.308 49.154-31.423 83.038-29.116 33.885-79.346 41.797v61.319h-30.77ZM346.154-506.154q-44.462-1.538-76.846-35.461-32.385-33.923-32.385-83 0-49.078 32.385-83.001 32.384-33.923 76.846-35.461 2.968 0 5.83.461 2.862.462 6.632 1.616-19.077 21-28.846 49.884-9.77 28.885-9.77 66.501 0 37.615 9.385 65.73 9.385 28.116 29.231 50.654-3 1.154-6.116 1.616-3.115.461-6.346.461ZM76.923-215.384V-281q0-20.923 11.23-40.692 11.231-19.77 34.308-34.77 18.001-10.769 40.578-19.5t47.115-13.654q-23.846 17.231-37 44.847Q160-317.154 160-281v65.616H76.923ZM520-504.615q-49.5 0-84.75-35.25T400-624.615q0-49.501 35.25-84.751 35.25-35.25 84.75-35.25 49.501 0 84.751 35.25 35.25 35.25 35.25 84.751 0 49.5-35.25 84.75T520-504.615ZM240-215.384V-281q0-24.769 14.308-46.462 14.308-21.692 38.923-33.615 47.923-23.692 107.423-39T520-415.385q25.847 0 54.654 3.962 28.808 3.961 53.654 10.346-18.154 49.077-4.462 99.539 13.693 50.461 49.154 86.154H240Z"/></svg>