<svg xmlns="http://www.w3.org/2000/svg" height="24" viewBox="0 -960 960 960" width="24"><path d="M480-290.769q62.692 0 105.962-43.269 43.269-43.27 43.269-105.962t-43.269-105.962Q542.692-589.231 480-589.231t-105.962 43.269Q330.769-502.692 330.769-440t43.269 105.962q43.27 43.269 105.962 43.269Zm0-40q-46.615 0-77.923-31.308T370.769-440q0-46.615 31.308-77.923T480-549.231q46.615 0 77.923 31.308T589.231-440q0 46.615-31.308 77.923T480-330.769ZM120-160v-560h182.923l74-80h206.154l74 80H840v560H120Zm360-40h320v-480H639.538l-73.769-80H480v560Zm0-240Z"/></svg>