<svg xmlns="http://www.w3.org/2000/svg" height="24" viewBox="0 -960 960 960" width="24"><path d="M480-108.695q-121.522 0-206.413-84.892Q188.695-278.478 188.695-400q0-92.304 52.109-167.087 52.108-74.783 138.151-105.87-42.609-13.478-67.827-49.262-25.218-35.784-31.739-79.047-14.347-20.564-18.195-45.998-3.847-25.434-.543-52.085 26.651-3.304 52.085.543 25.434 3.848 45.998 18.195 54.089 9.999 92.851 49.174 38.763 39.174 45.719 96.045 13.566-31.565 31.5-59.631 17.935-28.065 41.5-51.63 14.392-14.392 35.348-14.392 20.957 0 35.349 14.392 14.391 14.391 14.391 35.348t-14.391 35.348q-21.435 21.435-37.022 47.087-15.587 25.652-24.152 55.087 86.869 31.392 139.174 106.305Q771.305-492.565 771.305-400q0 121.522-84.892 206.413Q601.522-108.695 480-108.695Z"/></svg>