<svg xmlns="http://www.w3.org/2000/svg" height="20" viewBox="0 -960 960 960" width="20"><path d="M480-184q-93.077 0-158.539-65.461Q256-314.923 256-408q0-74.462 44.731-133.962 44.73-59.5 115.73-80.115-17-4.231-33.884-12.462-16.885-8.23-29.116-20.461-25.846-25.846-33.807-62-7.962-36.154-6.808-72.924 35.231-1.153 70.231 6.424 35 7.576 60.846 31.884 16 13.693 24.731 33.808 8.731 20.115 12.961 41.346 10.231-18.461 21.577-36.308 11.347-17.846 28.347-34.846 5.615-5.615 11.654-6.115 6.038-.5 11.653 4.115 5.616 5.616 5.616 11.654 0 6.039-4.616 11.654-19.23 20.231-33.461 43.308-14.231 23.077-24.539 49.769 88 7.385 147.077 72.346Q704-495.923 704-408q0 93.077-65.461 158.539Q573.077-184 480-184Z"/></svg>