<svg xmlns="http://www.w3.org/2000/svg" height="20" viewBox="0 -960 960 960" width="20"><path d="M222.783-124.782q-41.005 0-69.503-28.498-28.498-28.498-28.498-69.503v-514.434q0-41.005 28.498-69.503 28.498-28.498 69.503-28.498H583.26q19.31 0 37.003 6.978 17.694 6.978 32.4 21.685l153.892 153.892q14.707 14.706 21.685 32.4 6.978 17.693 6.978 37.003v360.477q0 41.005-28.498 69.503-28.498 28.498-69.503 28.498H222.783Zm337.39-612.435v128.043q0 20.387 14.307 34.694 14.307 14.307 34.694 14.307h128.043L560.173-737.217Zm80.349 444.695q15.865 0 26.78-11.137 10.916-11.138 10.916-26.913 0-15.776-10.916-26.841-10.915-11.066-26.78-11.066H319.478q-15.865 0-26.78 10.855-10.916 10.855-10.916 26.631 0 15.775 11.198 27.123t27.063 11.348h320.479ZM458.99-574.999q15.837 0 27.185-11.138 11.348-11.137 11.348-26.913t-11.179-27.123q-11.178-11.348-27.015-11.348H332.314q-15.836 0-27.184 11.137t-11.348 26.913q0 15.776 11.179 27.124 11.178 11.348 27.014 11.348H458.99Zm180.967 159.521q15.865 0 27.063-11.137 11.198-11.138 11.198-26.914 0-15.775-11.198-27.123T639.957-492H320.043q-15.865 0-27.063 11.137-11.198 11.138-11.198 26.913 0 15.776 11.198 27.124 11.198 11.348 27.063 11.348h319.914Z"/></svg>