<svg xmlns="http://www.w3.org/2000/svg" height="20" viewBox="0 -960 960 960" width="20"><path d="M205.749-210.153q-6.749 0-11.48-4.581-4.731-4.581-4.731-11.42v-60H144q-23.846 0-39.923-16.077T88-342.154v-168q0-22.008 15.058-37.004 15.059-14.996 37.154-14.996 22.096 0 36.942 14.996T192-510.154v118h576v-118q0-22.008 15.059-37.004 15.058-14.996 37.154-14.996 22.095 0 36.941 14.996Q872-532.162 872-510.154v168q0 23.846-16.077 39.923T816-286.154h-45.538v60q0 6.07-4.136 11.035-4.136 4.966-10.115 4.966-6.75 0-11.48-4.581-4.731-4.581-4.731-11.42v-60H221.539v60q0 6.839-4.521 11.42-4.52 4.581-11.269 4.581ZM224-424.154v-86q0-21.427-7.346-38.137Q209.308-565 192-574.154v-96.616q0-23.846 16.077-39.923T248-726.77h464q23.846 0 39.923 16.077T768-670.77v96.616q-18.539 13-25.269 28.115Q736-530.923 736-510.154v86H224Z"/></svg>