<svg xmlns="http://www.w3.org/2000/svg" height="20" viewBox="0 -960 960 960" width="20"><path d="M217.211-104.998q-20.298 0-34.754-14.307Q168-133.611 168-153.999v-68.478q-57.348 0-97.435-40.111Q30.477-302.699 30.477-360v-168q0-52.261 34.435-90.935t85.565-43.761l24 2V-720q0-47.301 33.111-80.412 33.111-33.111 80.412-33.111h384q47.301 0 80.412 33.111 33.111 33.111 33.111 80.412v59.304l24-2q51.13 5.087 85.565 43.761 34.435 38.674 34.435 90.935v168q0 57.301-40.111 97.412-40.111 40.111-97.412 40.111v68.478q0 20.388-14.246 34.694-14.246 14.307-34.544 14.307-20.298 0-34.755-14.307-14.456-14.306-14.456-34.694v-68.478H266.001v68.478q0 20.388-14.246 34.694-14.246 14.307-34.544 14.307ZM168-320.479h624q16.797 0 28.159-11.539 11.362-11.539 11.362-27.982v-168q0-16.797-11.291-28.159-11.291-11.362-27.982-11.362t-28.23 11.362Q752.479-544.797 752.479-528v152.479H207.521V-528q0-16.797-11.291-28.159-11.291-11.362-27.982-11.362t-28.23 11.362Q128.479-544.797 128.479-528v168q0 16.443 11.539 27.982 11.539 11.539 27.982 11.539Zm137.523-153.044h348.954V-528q0-20.391 6.979-43.413 6.978-23.022 26.065-43.414V-720q0-6.597-4.462-11.059-4.462-4.462-11.059-4.462H288q-6.243 0-10.882 4.462-4.639 4.462-4.639 11.059v105.173q19.087 20.392 26.065 43.414 6.979 23.022 6.979 43.413v54.477Zm174.477 0Zm0 153.044ZM480-384Z"/></svg>