<svg xmlns="http://www.w3.org/2000/svg" height="20" viewBox="0 -960 960 960" width="20"><path d="M62-62v-836h836v836H62Zm322.211-322Q369-384 358.5-394.289q-10.5-10.29-10.5-25.5Q348-435 358.289-445.5q10.29-10.5 25.5-10.5Q399-456 409.5-445.711q10.5 10.29 10.5 25.5Q420-405 409.711-394.5q-10.29 10.5-25.5 10.5Zm192 0Q561-384 550.5-394.289q-10.5-10.29-10.5-25.5Q540-435 550.289-445.5q10.29-10.5 25.5-10.5Q591-456 601.5-445.711q10.5 10.29 10.5 25.5Q612-405 601.711-394.5q-10.29 10.5-25.5 10.5ZM252-492v226h72v-34h312v34h72v-226l-71-192H324l-72 192Zm95-48 27-72h214l26 72H347Z"/></svg>