<svg xmlns="http://www.w3.org/2000/svg" height="20" viewBox="0 -960 960 960" width="20"><path d="m783.783-72.39-3.826-4.392H673.001q-20.388 0-34.694-14.246Q624-105.274 624-125.572q0-20.298 9.219-32.493 9.22-12.196 22.824-15.022h27.609l-61.261-61.261H283.348q-20.387 0-34.694-14.246-14.306-14.246-14.306-34.544V-308q0-21.61 9.347-40.283 9.348-18.674 27.479-30.804 32.869-19.435 77.021-35.152 44.153-15.718 75.022-19.283l-250.13-247.999v26.043q-2.826 13.604-15.376 22.541Q145.16-624 125.993-624q-20.298 0-34.755-14.307-14.456-14.306-14.456-34.694v-107.087l-.304-1.303q-8.174-12.131-6.826-25.283Q71-819.826 82-830.826q12.13-12.131 27.544-12.131 15.413 0 27.895 12.468l702.645 701.544q12.482 12.467 12.482 28.345 0 15.877-12.131 27.644-11.797 12.13-28.159 12.413-16.363.283-28.493-11.848ZM539.087-317.653l-35.696-35.696v-1q-54.478 0-94.26 9.174-39.782 9.174-69.695 25.522v2h199.651Zm66.565-288q0 27.304-10.804 49.673-10.804 22.37-29.108 39.37l-59.479-59.479q7.609-4.304 11.848-12.272 4.239-7.968 4.239-17.292 0-17.574-12.387-29.961Q497.574-648 480-648q-9.324 0-17.292 4.239-7.968 4.239-12.273 11.848l-59.478-59.479q17-18.304 39.369-29.109 22.37-10.804 49.674-10.804 52.261 0 88.957 36.696 36.695 36.696 36.695 88.957Zm277.566 318.653v87.869l-96.87-96.871v-26.609q8.478-5.691 21.311-9.54 12.833-3.85 26.913-3.85 20.298 0 34.755 14.307 14.457 14.306 13.891 34.694ZM174.783-76.782q-40.305 0-69.153-28.848-28.848-28.848-28.848-69.153v-112.216q0-20.388 14.246-34.694Q105.274-336 125.572-336q20.298 0 34.754 14.307 14.457 14.306 14.457 34.694v112.216h112.216q20.388 0 34.694 14.246Q336-146.291 336-125.993q0 20.298-14.307 34.755-14.306 14.456-34.694 14.456H174.783ZM785.217-673v-112.216H673.001q-20.388 0-34.694-14.246Q624-813.709 624-834.007q0-20.298 14.307-34.755 14.306-14.456 34.694-14.456h112.216q40.305 0 69.153 28.848 28.848 28.848 28.848 69.153v112.216q0 20.388-14.246 34.694Q854.726-624 834.428-624q-20.298 0-34.754-14.307-14.457-14.306-14.457-34.694Zm-306.869 69Zm25.043 286.349ZM199.13-883.218h87.869q20.388 0 34.694 13.963Q336-855.291 336-834.993q0 14.08-3.85 27.123-3.849 13.044-9.54 21.522h-26.609l-96.871-96.87Z"/></svg>