<svg xmlns="http://www.w3.org/2000/svg" height="24" viewBox="0 -960 960 960" width="24"><path d="M345-160q-77.077 0-131.039-53.961Q160-267.923 160-345q0-37.308 14.307-71.385 14.308-34.077 40.154-59.923l269.231-269.231q25.846-25.846 59.923-40.154Q577.692-800 615-800q77.077 0 131.039 53.961Q800-692.077 800-615q0 37.308-14.307 71.385-14.308 34.077-40.154 59.923L476.308-214.461q-25.846 25.846-59.923 40.154Q382.308-160 345-160Zm252.154-232.154L718-512q20-20 31-47t11-56q0-60-42.5-102.5T615-760q-29 0-56 11t-47 31L392.154-597.154l205 205ZM345-200q29 0 56-11t47-31l119.846-120.846-205-205L242-448q-20 20-31 47t-11 56q0 60 42.5 102.5T345-200Z"/></svg>