<svg xmlns="http://www.w3.org/2000/svg" height="20" viewBox="0 -960 960 960" width="20"><path d="m621-224 121-121q4-4 7-4.5t8 4.5q5 5 5 7.5t-5 7.5L640.309-213.309Q632-205 621.818-205T604-213l-42-42q-4-4-3-7t5-7q4-4 7.167-4 3.166 0 6.833 4l43 45Zm-415 28q-4.25 0-7.125-2.825-2.875-2.824-2.875-7 0-4.175 2.875-7.175t7.125-3h264q4.25 0 7.125 2.825 2.875 2.824 2.875 7 0 4.175-2.875 7.175T470-196H206Zm0-137q-4.25 0-7.125-2.825-2.875-2.824-2.875-7 0-4.175 2.875-7.175t7.125-3h264q4.25 0 7.125 2.825 2.875 2.824 2.875 7 0 4.175-2.875 7.175T470-333H206Zm0-137q-4.25 0-7.125-2.825-2.875-2.824-2.875-7 0-4.175 2.875-7.175t7.125-3h548q4.25 0 7.125 2.825 2.875 2.824 2.875 7 0 4.175-2.875 7.175T754-470H206Zm0-137q-4.25 0-7.125-2.825-2.875-2.824-2.875-7 0-4.175 2.875-7.175t7.125-3h548q4.25 0 7.125 2.825 2.875 2.824 2.875 7 0 4.175-2.875 7.175T754-607H206Zm0-137q-4.25 0-7.125-2.825-2.875-2.824-2.875-7 0-4.175 2.875-7.175t7.125-3h548q4.25 0 7.125 2.825 2.875 2.824 2.875 7 0 4.175-2.875 7.175T754-744H206Z"/></svg>