<svg xmlns="http://www.w3.org/2000/svg" height="20" viewBox="0 -960 960 960" width="20"><path d="M481.154-140.001q-141.153 0-240.576-99.423T141.155-480q0-115.383 66.268-202.459 66.268-87.077 178.19-120.693 37.231-10.077 54.154 7.346 16.923 17.423.769 53.884-7.384 19.538-11.384 39.64-4 20.101-4 42.282 0 98.334 68.834 167.168 68.834 68.833 167.168 68.833 25.461 0 46.807-4.961 21.346-4.961 40.5-10.807 37.076-14.615 51.807.231 14.73 14.846 6.169 48.944-29.286 108.054-114.785 179.322-85.499 71.269-210.498 71.269Zm0-63.999q86 0 153.5-45t99.5-120q-18 5-36 7t-37 2q-124.662 0-212.331-87.669Q361.154-535.338 361.154-660q0-19 2-37t7-36q-75 32-120 99.5t-45 153.5q0 115 80.5 195.5t195.5 80.5Zm-11-265Z"/></svg>