<svg xmlns="http://www.w3.org/2000/svg" height="20" viewBox="0 -960 960 960" width="20"><path d="m348.26-525.696 84.913-84.913-42.13-42.565-48.261 46.696-52.826-52.826 47.826-48.261-50.347-48.783-84.348 84.913L348.26-525.696ZM672-202.522l84.348-84.348-48.913-49.912-48.261 47.261-52.826-52.827 47.826-48.261-44.13-43.695-85.478 85.478L672-202.522Zm17.609-539.782 51 51.565-51-51.565ZM302.652-124.782h-177.87v-179.001L285.39-463.391 76.782-672l210.653-210.653 208.608 208.608 193-194L868.61-689.609 673.479-497.174l209.739 209.739L672.565-76.782 462.261-286.52 302.652-124.782Zm-88.348-89.522h51.566l350.694-351.26-51-51.565L214.304-267v52.696Zm377.26-377.825-26-25 51 51.565-25-26.565Z"/></svg>