<svg xmlns="http://www.w3.org/2000/svg" height="20" viewBox="0 -960 960 960" width="20"><path d="m371.308-478.693 95.384-94.615-80.153-80.384-48.308 47.307-22.308-22.308L364-677l-89.077-88.077-94.615 94.615 191 191.769Zm298.384 297.616 94.616-94.615-87.077-88.077-48.308 48.077L606.615-338l48.077-48.308-80.615-80.384-95.384 95.384 190.999 190.231ZM679.923-744l63.308 63.308L679.923-744ZM293.154-184H184v-109.154l164.769-163.769L136-670.462l138.923-138.923 213.539 212.769 192.23-192.461 108.385 109.923-191.692 190.692 212 213.539L670.462-136 456.923-348.769 293.154-184ZM216-216h64.077l375.769-376.538-63.308-63.308L216-280.077V-216Zm408.692-409.461-32.154-30.385 63.308 63.308-31.154-32.923Z"/></svg>