<svg xmlns="http://www.w3.org/2000/svg" height="20" viewBox="0 -960 960 960" width="20"><path d="m354.456-517.218 87.848-87.847-48.978-49.739-46.956 45.717-51.196-51.196 46.196-46.956-53.609-52.37-87.609 87.848 154.304 154.543ZM672-199.913l87.609-87.609-51.848-52.848-46.957 45.957-51.195-51.196 46.195-46.956-50.978-50.217-88.087 88.086L672-199.913Zm-35.978-488.543 51.239 51.717 55.304-55.304-51-51.24-55.543 54.827ZM299.391-135.869H135.869V-299.87l162.566-161.565L87.869-672l199.892-199.891 210.565 210.565 193-194 164.239 163.761-194.478 192.761 211.044 211.043L672.239-87.869 460.957-298.913 299.391-135.869Z"/></svg>