<svg xmlns="http://www.w3.org/2000/svg" height="24" viewBox="0 -960 960 960" width="24"><path d="m358.154-505.845 88.693-89.308-69.078-69.693-45.154 45.154-42.153-42.153 44.539-45.154-61.54-61.54-89.308 89.308 174.001 173.386Zm320.692 321.307 89.308-89.308-61.54-61.539-45.154 44.538L619.307-333l44.539-45.154-69.309-68.693-88.692 88.693 173.001 173.616ZM697.461-760l63.154 63.154L697.461-760ZM288.077-140.001H140.001v-148.076l175.385-175.384-215.385-215.77 173.46-173.459L490.23-636.306l208.616-209.23 145.69 148.46L637.69-489.23l215 215.769-173.459 173.46-215.77-215.385-175.384 175.385ZM200-200h62.539l392.385-391.769-63.155-63.155L200-262.539V-200Zm423.846-423.231-32.077-31.693 63.155 63.155-31.078-31.462Z"/></svg>