<svg xmlns="http://www.w3.org/2000/svg" height="24" viewBox="0 -960 960 960" width="24"><path d="m341.26-536.696 80.913-81.913-44.13-44.565-46.261 45.696-58.826-58.826 45.826-46.261-39.347-38.783-81.348 81.913L341.26-536.696ZM680-197.522l81.348-81.348-39.913-39.912-46.261 45.261-58.826-58.827 45.826-46.261-45.13-44.695-81.478 81.478L680-197.522Zm20.609-560.782 57 57.565-57-57.565ZM295.652-100.782h-194.87v-196.001L272.39-468.391 60.782-680l218.653-218.653 212.608 212.608 209-210L895.61-700.609 686.479-492.174l212.739 212.739L680.565-60.782 467.261-273.52 295.652-100.782Zm-97.348-97.522h56.566l367.694-367.26-57-57.565L198.304-256v57.696Zm396.26-395.825-29-29 57 57.565-28-28.565Z"/></svg>