<svg xmlns="http://www.w3.org/2000/svg" height="20" viewBox="0 -960 960 960" width="20"><path d="m96-288 135.148-358.728Q236-658 249-665q13-7 47-7 12 0 21.5 7t14.5 18l116 309q6.752 18-3.743 34t-30.138 16h-.485q-11.644 0-21.639-7t-14.183-17.542l-6.549-20.599Q363-354 339.5-367T257-380q-23 0-40 12.788-17 12.789-25 34.212l-16 45H96Zm135-158h100l-48-143h-4l-48 143Zm390 89h161q14.167 0 24.083 9.882 9.917 9.883 9.917 24Q816-309 806-298.5 796-288 781.554-288h-223.44q-9.631 0-16.372-6.708Q535-301.417 535-311v-37q0-6.3 2-12.15 2-5.85 6-10.85l187-232H578.393Q564-603 554-613.5t-10-24.618q0-14.117 10.5-24Q565-672 579.31-672h211.793q9.541 0 16.219 6.708Q814-658.583 814-649v37q0 6.3-2 12.15-2 5.85-6 10.85L621-357ZM375.16-759.16 467-851q5-5 13-5t13 5l91.84 91.84Q590-754 587-749t-9 5H382q-6 0-9-5t2.16-10.16ZM467-109l-91.84-91.84Q370-206 373-211t9-5h196q6 0 9 5t-2.16 10.16L493-109q-5 5-13 5t-13-5Z"/></svg>