<svg xmlns="http://www.w3.org/2000/svg" height="24" viewBox="0 -960 960 960" width="24"><path d="m185.231-391.385-33 82.308q-2.462 5.616-7.077 8.885t-11.135 3.269q-10.865 0-16.827-8.423-5.961-8.423-1.807-18.423l133.076-327.154q2.399-5.61 7.195-8.882 4.796-3.272 11.032-3.272h14.389q6.03 0 10.669 3.154t7.331 9l131 326.077q3.923 10.538-2.269 19.231-6.193 8.692-16.962 8.692-6.461 0-11.846-3.654t-7.846-10.038l-30.385-80.77H185.231Zm13.231-35.692h147.076l-71.076-183.846H270l-71.538 183.846Zm414.923 93.538h191.384q7.628 0 12.968 5.34t5.34 12.968q0 7.628-5.34 12.968t-12.968 5.34H575.846q-4.551 0-7.737-3.092t-3.186-7.509v-16.784q0-5.115 1.615-9.865 1.616-4.75 4.308-8.981l202.231-283.307H591.231q-7.628 0-12.968-5.34t-5.34-12.968q0-7.628 5.34-12.968t12.968-5.34h218.923q4.551 0 7.737 3.092t3.186 7.509v16.784q0 5.115-1.615 9.865-1.616 4.75-4.308 8.981L613.385-333.539ZM392.423-781.654l75.992-75.992q5.123-5.123 11.725-5.123 6.601 0 11.552 5.23l75.891 75.891q4.263 4.263 2.244 9.11-2.019 4.846-7.673 4.846H397.846q-5.654 0-7.673-4.846-2.019-4.847 2.25-9.116Zm75.885 679.193-75.891-75.891q-4.263-4.263-2.244-9.11 2.019-4.846 7.673-4.846h164.308q5.654 0 7.673 4.846 2.019 4.847-2.25 9.116l-75.992 75.992q-5.123 5.123-11.725 5.123-6.601 0-11.552-5.23Z"/></svg>