<svg xmlns="http://www.w3.org/2000/svg" height="20" viewBox="0 -960 960 960" width="20"><path d="m128-310 140.148-332.728Q270-646 273-648q3-2 14.125-2 2.875 0 5.375 2t4.5 5l129 313q2.37 7.308-.89 13.654Q421.851-310 414.413-310h-.779q-4.704 0-8.669-2-3.965-2-6.153-6.542l-9.549-29.599Q380-371 350.4-385.5T244.8-400q-25.8 0-43.8 13.288-18 13.289-28 34.712l-19 42h-26Zm75-114h156l-78-187h-2l-76 187Zm386 91h194q4.583 0 7.792 3.174 3.208 3.174 3.208 7.708 0 4.535-3.292 8.326-3.291 3.792-8.154 3.792h-219.44q-2.547 0-4.331-1.628-1.783-1.627-1.783-3.953V-325q0-3.85 1.5-7.425Q560-336 561-340l199-287H577.393q-4.81 0-8.101-3.792-3.292-3.791-3.292-8.326 0-4.534 3.792-7.708Q573.583-650 578.31-650h207.793q2.457 0 4.177 1.628 1.72 1.627 1.72 3.953V-635q0 3.85-1.5 7.425Q789-624 788-620L589-333ZM395.21-765.21l74.93-74.93Q474-844 480.182-844t9.818 4l74.798 74.798Q569-761 566.625-757.5T560-754H400q-4.25 0-6.625-3.5t1.835-7.71ZM470-120l-74.798-74.798Q391-199 393.375-202.5T400-206h160q4.25 0 6.625 3.5t-1.835 7.71l-74.93 74.93Q486-116 479.818-116T470-120Z"/></svg>