<svg xmlns="http://www.w3.org/2000/svg" height="20" viewBox="0 -960 960 960" width="20"><path d="m211-372-22.852 63.272Q183-295 172.5-287.5 162-280 147-280q-25 0-37.5-20.5T105-342l116-308q4.752-13 16.757-21.5 12.005-8.5 26.362-8.5h34.515q14.356 0 26.361 8.5t16.817 21.958l114.451 305.401Q465-321 452-300.5T413-280q-16 0-29-8.712-13-8.711-18-23.288l-20-60H211Zm28-82h78l-37-109h-4l-37 109Zm407 89h139q17.167 0 29.583 12.382Q827-340.235 827-323.118 827-306 814.5-293t-29.946 13h-228.44q-10.631 0-18.372-7.708Q530-295.417 530-306v-37q0-10.3 3-19.65 3-9.35 9-17.35l170-215H581.393Q564-595 551.5-608T539-638.118q0-17.117 13-29.5Q565-680 582.31-680h217.793q10.541 0 17.719 7.208Q825-665.583 825-655v39q0 10.3-3 19.15-3 8.85-9 16.85L646-365ZM367.16-761.16 459-853q8-8 21-8t21 8l91.84 91.84Q601-753 596.5-744.5T582-736H378q-10 0-14.5-8.5t3.66-16.66ZM459-107l-91.84-91.84Q359-207 363.5-215.5T378-224h204q10 0 14.5 8.5t-3.66 16.66L501-107q-8 8-21 8t-21-8Z"/></svg>