<svg xmlns="http://www.w3.org/2000/svg" height="24" viewBox="0 -960 960 960" width="24"><path d="M720-134.232 677.847-176l73.001-74.001H570.001v-59.998h180.847L677.847-384 720-425.768 865.768-280 720-134.232Zm-589.999-10.001v-645.766h619.998v271.845q-7.5-1.231-14.999-1.538-7.5-.308-15-.308t-15 .308q-7.499.307-14.999 1.538v-211.847H189.999v420.002h291.847q-1.231 7.5-1.538 14.999-.308 7.5-.308 15t.308 15q.307 7.499 1.538 14.999H235.769L130.001-144.233Zm152.307-425.768h315.384v-59.998H282.308v59.998Zm0 160h195.384v-59.998H282.308v59.998Zm-92.309 100.002v-420.002 420.002Z"/></svg>