<svg xmlns="http://www.w3.org/2000/svg" height="24" viewBox="0 -960 960 960" width="24"><path d="M329.538-240 160-480l171.077-240H800v480H329.538Zm45.847-209.231q12.384 0 21.577-9.192 9.192-9.192 9.192-21.577 0-12.385-9.192-21.577-9.193-9.192-21.577-9.192-12.385 0-21.577 9.192-9.193 9.192-9.193 21.577 0 12.385 9.193 21.577 9.192 9.192 21.577 9.192Zm140 0q12.384 0 21.577-9.192 9.192-9.192 9.192-21.577 0-12.385-9.192-21.577-9.193-9.192-21.577-9.192-12.385 0-21.577 9.192-9.193 9.192-9.193 21.577 0 12.385 9.193 21.577 9.192 9.192 21.577 9.192Zm140 0q12.384 0 21.577-9.192 9.192-9.192 9.192-21.577 0-12.385-9.192-21.577-9.193-9.192-21.577-9.192-12.385 0-21.577 9.192-9.193 9.192-9.193 21.577 0 12.385 9.193 21.577 9.192 9.192 21.577 9.192Z"/></svg>