<svg xmlns="http://www.w3.org/2000/svg" height="24" viewBox="0 -960 960 960" width="24"><path d="M274-103.384 102.615-274.769l581.847-581.847 171.384 171.385L274-103.384Zm227.846-184.154 169.847-169.847 184.153 184.154L686-103.384 501.846-287.538Zm-21.711-95.539q13.788 0 22.98-9.327 9.193-9.327 9.193-23.115 0-13.789-9.328-22.981-9.327-9.192-23.115-9.192-13.788 0-22.98 9.327-9.193 9.327-9.193 23.115 0 13.789 9.328 22.981 9.327 9.192 23.115 9.192Zm-64.616-64.615q13.789 0 22.981-9.328 9.192-9.327 9.192-23.115 0-13.788-9.327-22.98-9.327-9.193-23.115-9.193-13.789 0-22.981 9.328-9.192 9.327-9.192 23.115 0 13.788 9.327 22.98 9.327 9.193 23.115 9.193Zm129.231 0q13.789 0 22.981-9.328 9.192-9.327 9.192-23.115 0-13.788-9.327-22.98-9.327-9.193-23.115-9.193-13.789 0-22.981 9.328-9.192 9.327-9.192 23.115 0 13.788 9.327 22.98 9.327 9.193 23.115 9.193Zm-257.443-55.923L104.154-686.769 274-856.616l183.385 183.385-170.078 169.616Zm192.828-8.693q13.788 0 22.98-9.327 9.193-9.327 9.193-23.115 0-13.789-9.328-22.981-9.327-9.192-23.115-9.192-13.788 0-22.98 9.327-9.193 9.327-9.193 23.115 0 13.789 9.328 22.981 9.327 9.192 23.115 9.192Z"/></svg>