<svg xmlns="http://www.w3.org/2000/svg" height="20" viewBox="0 -960 960 960" width="20"><path d="M287-68 66-287l607-605 221 219L287-68Zm227-157 221-221 158 158L673-66 514-225Zm-34.211-142Q495-367 505.5-377.289q10.5-10.29 10.5-25.5Q516-418 505.711-428.5q-10.29-10.5-25.5-10.5Q465-439 454.5-428.711q-10.5 10.29-10.5 25.5Q444-388 454.289-377.5q10.29 10.5 25.5 10.5Zm-77-77Q418-444 428.5-454.289q10.5-10.29 10.5-25.5Q439-495 428.711-505.5q-10.29-10.5-25.5-10.5Q388-516 377.5-505.711q-10.5 10.29-10.5 25.5Q367-465 377.289-454.5q10.29 10.5 25.5 10.5Zm154 0Q572-444 582.5-454.289q10.5-10.29 10.5-25.5Q593-495 582.711-505.5q-10.29-10.5-25.5-10.5Q542-516 531.5-505.711q-10.5 10.29-10.5 25.5Q521-465 531.289-454.5q10.29 10.5 25.5 10.5ZM225-514 65-674l222-220 159 159-221 221Zm254.789-7Q495-521 505.5-531.289q10.5-10.29 10.5-25.5Q516-572 505.711-582.5q-10.29-10.5-25.5-10.5Q465-593 454.5-582.711q-10.5 10.29-10.5 25.5Q444-542 454.289-531.5q10.29 10.5 25.5 10.5Z"/></svg>