<svg xmlns="http://www.w3.org/2000/svg" height="20" viewBox="0 -960 960 960" width="20"><path d="m480-314.384-194 191-165.385-164.385 193.769-193.769-192.23-195.231L287-838.616l192.231 192.231 193.231-190.231 165.384 164.385-193 193 191 194L673-121.384l-193-193Zm-.076-198.924q11.999 0 20.191-8.116 8.193-8.117 8.193-20.116 0-11.999-8.117-20.191-8.117-8.192-20.115-8.192-11.999 0-20.191 8.116-8.193 8.117-8.193 20.116 0 11.999 8.117 20.191 8.117 8.192 20.115 8.192Zm-143.001 9.231 119-119L287-792 168-675l168.923 170.923Zm81.386 52.385q11.999 0 20.191-8.117 8.192-8.117 8.192-20.115 0-11.999-8.116-20.191-8.117-8.193-20.116-8.193-11.999 0-20.191 8.117-8.192 8.117-8.192 20.115 0 11.999 8.117 20.191 8.116 8.193 20.115 8.193Zm61.615 61.615q11.999 0 20.191-8.117 8.193-8.116 8.193-20.115 0-11.999-8.117-20.191-8.117-8.192-20.115-8.192-11.999 0-20.191 8.116-8.193 8.117-8.193 20.116 0 11.999 8.117 20.191 8.117 8.192 20.115 8.192Zm61.616-61.615q11.999 0 20.191-8.117 8.192-8.117 8.192-20.115 0-11.999-8.116-20.191-8.117-8.193-20.116-8.193-11.999 0-20.191 8.117-8.192 8.117-8.192 20.115 0 11.999 8.116 20.191 8.117 8.193 20.116 8.193Zm-38.232 114L673-168l119-119-169.692-169.692-119 119ZM381.077-577.923Zm196.077 196.077Z"/></svg>