<svg xmlns="http://www.w3.org/2000/svg" height="20" viewBox="0 -960 960 960" width="20"><path d="M287-140 137-288l534-532 150 148-534 532Zm219-165 148-148 166 166-147 149-167-167Zm-26.035-92q11.035 0 18.535-7.465t7.5-18.5q0-11.035-7.465-18.535t-18.5-7.5Q469-449 461.5-441.535t-7.5 18.5q0 11.035 7.465 18.535t18.5 7.5Zm-57-57q11.035 0 18.535-7.465t7.5-18.5q0-11.035-7.465-18.535t-18.5-7.5Q412-506 404.5-498.535t-7.5 18.5q0 11.035 7.465 18.535t18.5 7.5Zm114 0q11.035 0 18.535-7.465t7.5-18.5q0-11.035-7.465-18.535t-18.5-7.5Q526-506 518.5-498.535t-7.5 18.5q0 11.035 7.465 18.535t18.5 7.5ZM306-507 138-675l149-147 166 166-147 149Zm173.965-4q11.035 0 18.535-7.465t7.5-18.5q0-11.035-7.465-18.535t-18.5-7.5Q469-563 461.5-555.535t-7.5 18.5q0 11.035 7.465 18.535t18.5 7.5Z"/></svg>