<svg xmlns="http://www.w3.org/2000/svg" height="20" viewBox="0 -960 960 960" width="20"><path d="M806.826-50.978 521.913-334.652l-18.043 93.935H349.217L385.022-422.5l-72.783 31.37v104.804h-79.413v-157.73l127.109-53.814L54.805-803l53.391-53.391L859.218-104.37l-52.392 53.392ZM87.869-87.87V-288h83.001v117.13H288v83H87.87ZM789.13-672v-117.13H672v-83.001h200.131V-672H789.13Zm-701.26 0v-120.478h83V-672h-83ZM672-87.87v-83h121.478v83H672ZM281.239-789.13l-83-83.001h99.326v83.001h-16.326ZM872.131-198l-83.001-83v-16.326h83.001V-198ZM531.283-565.587q-33.674 0-57.75-24.416-24.077-24.416-24.077-58.702 0-34.382 24.037-58.339Q497.529-731 531.283-731q34.674 0 59.13 24.163 24.457 24.162 24.457 58.424 0 34.261-24.457 58.544-24.456 24.282-59.13 24.282Z"/></svg>