<svg xmlns="http://www.w3.org/2000/svg" height="20" viewBox="0 -960 960 960" width="20"><path d="M697.913-86.956q-45.392 0-71.131-19.913-25.739-19.913-37-33.174l2.543 2.543 2.544 2.544H562.87q-49.172 0-78.934-33.739-29.762-33.74-29.762-76.499 0-23.415 11.196-45.459 11.195-22.043 33.456-40.304l26.348-22.044v-176.825L474-604.434q-10.13-15.696-15.478-30.892-5.348-15.195-5.348-32.022 0-44.172 31.262-76.934t79.434-32.762h151.043q48.652 0 79.957 33.522 31.304 33.522 31.304 77.49 0 16.248-4.847 32.299-4.848 16.051-14.979 29.864l-52.739 75.043v187.956l28.478 27.478q19.696 18.696 31.609 44.978 11.913 26.283 11.913 53.956 0 53.126-37.245 90.314-37.244 37.188-90.451 37.188Zm-323.478-60.131q-12.695 7.131-26.239 9.631t-26.155 2.5q-44.041 0-79.28-31.769-35.24-31.769-35.24-82.927v-352.304l-63.269-129.193q-5.165-10.427-6.948-21.351-1.783-10.924-1.783-21.848 0-38.652 28.022-68.674 28.022-30.022 70.675-30.022h183.391v99.392q35 0 57.174 28.881 22.174 28.882 22.174 66.989 0 14.695-5.348 30.956t-16.479 30.522l-40.173 47.478 1 179.13 44.173 67.609q9.696 12.696 12.761 25.856 3.066 13.161 3.066 27.057 0 29.045-15.761 51.892-15.761 22.848-39.718 35.109l-66.043 35.086Z"/></svg>