<svg xmlns="http://www.w3.org/2000/svg" height="24" viewBox="0 -960 960 960" width="24"><path d="M714.348-72.956q-25.392 0-50.131-9.913-24.74-9.913-41.001-26.174L621.26-111l-1.956-1.956h-67.999q-48.173 0-81.435-33.739-33.261-33.74-33.261-82.314 0-26.6 11.695-49.644 11.696-23.043 33.957-41.304l34.348-28.044v-198.825l-59.174-84.608q-10.131-14.696-15.479-31.392-5.347-16.695-5.347-33.522 0-48.172 33.261-81.434 33.262-33.262 81.435-33.262h183.043q47.652 0 80.957 33.022 33.304 33.022 33.304 80.674 0 17.564-4.848 33.956-4.848 16.393-14.978 30.523l-59.739 86.043v201.956l34.478 34.478q21.696 21.696 33.609 48.304 11.913 26.609 11.913 54.63 0 56.043-39.286 95.272-39.287 39.23-95.41 39.23Zm0-94.696q17 0 28.5-11.5t11.5-28.5q0-15-8.5-25l-8.5-10-39-39q-11.435-12-17.718-26.718-6.282-14.717-6.282-30.282v-211.696q0-12 3.5-24t10.5-22l62-89q.869-1.304 4-12 0-8-6-13.5t-14-5.5H551.305q-8 0-14 6t-6 14q0 3 1 5.783 1 2.783 3 5.217l62 89q7 10 10.5 21.5t3.5 24.5v209.696q0 17.8-8 34.117-8 16.317-22 27.883l-40 33q-5 4.565-7.5 8.726-2.5 4.16-2.5 9.708 0 8.238 5.783 13.902 5.782 5.664 14.217 5.664h72.043q18 0 32 6.5t30 22.5q5 5 12.5 8t16.5 3ZM364.87-126.087q-12.696 6.131-25.739 8.631-13.044 2.5-26.655 2.5-51.041 0-86.281-34.769-35.239-34.769-35.239-84.927v-349.304L122.087-728.13q-5.566-11.446-8.348-24.036-2.783-12.591-2.783-25.182 0-47.652 33.522-80.674 33.522-33.022 81.174-33.022h183.392v83.392q42 0 68.174 33.522 26.173 33.521 26.173 78.348 0 18.695-5.847 35.456-5.848 16.761-16.979 32.022l-37.174 49.478v188.13l40.174 61.609q9.696 14.696 14.761 30.891 5.065 16.196 5.065 33.022 0 33.045-17.261 60.392-17.26 27.348-46.217 41.609l-75.043 37.086Zm-41.218-85.565 74.043-36.522q5-2 8-7t3-10q0-1.13-4-12l-36-55q-10-15-15-32.5t-5-34.272v-171.669q0-19.733 6-37.733 6-18 18-34l32-42q2-2.434 4-11.734 0-8.266-6-14.266t-14-6h-34.347q-17 0-28.5-11.5t-11.5-28.5v-40h-88.696q-8 0-14 5.664t-6 13.902q0 1.826 2 8.434l66 138q6 12 9 25t3 27v343.696q0 11 8 18.5t19 7.5q3 0 11-3ZM642.826-442Zm-335.652-61Z"/></svg>