<svg xmlns="http://www.w3.org/2000/svg" height="24" viewBox="0 -960 960 960" width="24"><path d="M187.26-421.913q10.153-12.152 14.99-27.131 4.837-14.978 4.837-36.456 0-29.761-20-75.163t-20-69.837q0-13.196 3.217-27.152 3.217-13.957 14.457-31.435h68.609q-11.957 17.717-15.414 31.793-3.456 14.076-3.456 26.794 0 23.717 20 68.761 20 45.043 20 76.239 0 21.717-4.478 36.054-4.479 14.337-13.196 27.533H187.26Zm263.827 0q10.152-12.152 14.989-27.131 4.837-14.978 4.837-36.456 0-30.239-20-75.283-20-45.043-20-69.717 0-13.196 3.217-27.152 3.218-13.957 14.457-31.435h68.609q-11.957 17.717-15.533 31.793-3.576 14.076-3.576 26.794 0 23.717 20 68.761 20 45.043 20 76.239 0 21.717-4.478 36.054-4.479 14.337-13.196 27.533h-69.326Zm-131.913 0q10.152-12.152 14.989-27.131Q339-464.022 339-485.5q0-30.239-20-75.283-20-45.043-20-69.717 0-13.196 3.217-27.152 3.218-13.957 14.457-31.435h68.609q-11.957 17.717-15.413 31.793-3.457 14.076-3.457 26.794 0 23.717 20 68.761 20 45.043 20 76.239 0 21.717-4.478 36.054-4.479 14.337-13.196 27.533h-69.565ZM390-74.5q-102.913 0-182.641-69.652-79.729-69.652-92.859-171.805-1.761-19.913 11.913-34.728Q140.087-365.5 160-365.5h415.978L619.5-774.478q5.239-47.152 40.293-79.087Q694.848-885.5 744-885.5q52.391 0 88.946 36.554Q869.5-812.391 869.5-760q0 14.239-2.859 40.228l-2.858 25.99-89.761-11.435 2.239-23.011Q778.5-751.239 778.5-760q0-14.848-9.826-24.674Q758.848-794.5 744-794.5q-13.848 0-23.293 8.946-9.446 8.945-11.207 22.032l-46 435q-11.239 107.913-88.793 180.968Q497.152-74.5 390-74.5Z"/></svg>