<svg xmlns="http://www.w3.org/2000/svg" height="20" viewBox="0 -960 960 960" width="20"><path d="M246.847-438.154q6.846-13.385 9.577-25.346 2.73-11.962 2.73-23.5 0-32.923-18.5-67.769-18.5-34.846-18.5-66.231 0-14.461 3.308-25.307 3.308-10.847 9-19.539h34.691q-5.692 8.692-9 19.346-3.307 10.654-3.307 25.5 0 31.077 18.5 65t18.5 69q0 13.923-2.923 25.461Q288-450 281.538-438.154h-34.691Zm228 0q6.846-12.385 9.577-23.346 2.73-10.962 2.73-25.5 0-33.923-18.5-68.269-18.5-34.346-18.5-65.731 0-14.461 3.308-25.307 3.308-10.847 9-19.539h34.691q-5.692 8.692-9 19.346-3.307 10.654-3.307 25.5 0 31.077 18.5 65t18.5 69q0 14.923-2.923 26.461Q516-449 509.538-438.154h-34.691Zm-114 0q6.846-13.385 9.577-24.346 2.73-10.962 2.73-24.5 0-33.923-18.5-68.269-18.5-34.346-18.5-65.731 0-14.461 3.308-25.307 3.308-10.847 9-19.539h34.691q-5.692 8.692-9 19.346-3.307 10.654-3.307 25.5 0 31.077 18.5 65t18.5 69q0 14.923-2.923 26.461Q402-449 395.538-438.154h-34.691ZM403-106.001q-99.154 0-166.269-61.192-67.115-61.192-82.73-168.961-1.616-5.769 2.615-9.807 4.23-4.038 11.384-4.038h431.847l46.154-416.847q4.615-38.154 32.423-62.653 27.807-24.5 65.576-24.5 40.769 0 69.384 28.615 28.615 28.615 28.615 69.384 0 11.538.27 21.153.269 9.615-2.116 27.692l-51.383-7.692q1.385-13.692 1.308-22.692-.077-9-.077-18.461 0-18.846-13.577-32.424-13.578-13.577-32.424-13.577-17.846 0-30.924 11.5-13.077 11.501-15.077 29.347l-48 429Q639.384-233 569.269-169.501q-70.115 63.5-166.269 63.5Zm0-51.998q62.924 0 114.193-37.578 51.27-37.577 74.423-102.424H212.999q24.154 66.847 74.616 103.424Q338.076-157.999 403-157.999Zm5-140.002Z"/></svg>