<svg xmlns="http://www.w3.org/2000/svg" height="20" viewBox="0 -960 960 960" width="20"><path d="M198.433-436.522q13.087-18.087 18.565-32.718 5.479-14.63 5.479-30.761 0-30.434-18.5-67.521t-18.5-66.479q0-18.826 5.195-33.087 5.196-14.261 13.761-26.391h67.349q-10.261 12.695-16.022 27.239-5.761 14.544-5.761 32.239 0 29.696 18.5 64.435 18.5 34.739 18.5 69.565 0 18.696-4.63 33.174-4.631 14.479-14.326 30.305h-69.61Zm237.044 0q13.087-17.087 18.565-30.718 5.479-13.63 5.479-32.761 0-32.565-18.5-68.304-18.5-35.739-18.5-65.696 0-18.826 5.195-33.087 5.196-14.261 13.761-26.391h67.349q-10.261 12.695-16.304 27.239-6.044 14.544-6.044 32.239 0 29.696 18.5 64.435 18.5 34.739 18.5 69.565 0 19.696-4.63 34.174-4.631 14.479-14.327 29.305h-69.044Zm-118.522 0q13.087-18.087 18.565-31.718 5.479-13.63 5.479-31.761 0-32.565-18.5-68.304-18.5-35.739-18.5-65.696 0-18.826 5.195-33.087 5.196-14.261 13.761-26.391h67.349q-10.261 12.695-16.022 27.239-5.761 14.544-5.761 32.239 0 29.696 18.5 64.435 18.5 34.739 18.5 69.565 0 19.696-4.63 34.174-4.631 14.479-14.326 29.305h-69.61ZM403-82.999q-107.522 0-185.153-68.588-77.631-68.587-86.848-185.674-1.434-14.522 10.022-25.131 11.457-10.609 26.979-10.609h411.13l43.869-396.129q5.566-47.088 39.74-77.479 34.174-30.392 81.261-30.392 50.652 0 85.827 35.174 35.174 35.175 35.174 85.827 0 15.565-1.348 37.631-1.348 22.065-3.348 37.065l-96.436-13.391q1-11 2.065-30.935t1.065-30.37q0-9.913-6.543-16.456-6.543-6.543-16.456-6.543-8.913 0-15.239 5.326-6.326 5.325-7.76 14.803l-48 429q-11.566 107.522-88.24 177.197Q508.087-82.999 403-82.999Z"/></svg>