<svg xmlns="http://www.w3.org/2000/svg" height="20" viewBox="0 -960 960 960" width="20"><path d="M480.45-148q-68.45 0-129.008-25.891-60.559-25.892-106.075-71.348-45.515-45.457-71.441-105.893Q148-411.569 148-480.284q0-68.716 25.891-128.774 25.892-60.059 71.348-105.574 45.457-45.516 105.893-71.442Q411.569-812 480.284-812q68.716 0 128.774 25.891 60.059 25.892 105.574 71.348 45.516 45.457 71.442 105.659Q812-548.899 812-480.45q0 68.45-25.891 129.008-25.892 60.559-71.348 106.075-45.457 45.515-105.659 71.441Q548.899-148 480.45-148ZM432-172v-68q-20 0-34-14.1T384-288v-48L175-545q-4 19-5.5 35t-1.5 30q0 115 74.5 203T432-172Zm288-109q18-21 31.5-44t22.359-48.553q8.86-25.553 13.5-52.5Q792-453 792-480q0-95.362-51.5-174.181Q689-733 600-770v26q0 29.7-21.15 50.85Q557.7-672 528-672h-96v48q0 20.4-13.8 34.2Q404.4-576 384-576h-48v96h240q20.4 0 34.2 13.8Q624-452.4 624-432v96h41q23 0 39 16t16 39Z"/></svg>