<svg xmlns="http://www.w3.org/2000/svg" height="20" viewBox="0 -960 960 960" width="20"><path d="M347.077-184H184v-295.894q0-61.645 23.238-115.47 23.239-53.826 63.676-94.093 40.436-40.266 94.448-63.405Q419.374-776 480.456-776q61.083 0 114.908 23.138 53.826 23.139 94.093 63.405 40.266 40.267 63.405 94.101Q776-541.522 776-479.88V-184H612.923v-214.154H744V-480q0-110.314-76.778-187.157Q590.443-744 480.222-744 370-744 293-667.157 216-590.314 216-480v81.846h131.077V-184Zm-32-182.154H216V-216h99.077v-150.154Zm329.846 0V-216H744v-150.154h-99.077Zm-329.846 0H216h99.077Zm329.846 0H744h-99.077Z"/></svg>