<svg xmlns="http://www.w3.org/2000/svg" height="24" viewBox="0 -960 960 960" width="24"><path d="M389.231-449.231q12.384 0 21.577-9.192Q420-467.615 420-480q0-12.385-9.192-21.577-9.193-9.192-21.577-9.192-12.385 0-21.577 9.192-9.193 9.192-9.193 21.577 0 12.385 9.193 21.577 9.192 9.192 21.577 9.192Zm181.538 0q12.385 0 21.577-9.192 9.193-9.192 9.193-21.577 0-12.385-9.193-21.577-9.192-9.192-21.577-9.192-12.384 0-21.577 9.192Q540-492.385 540-480q0 12.385 9.192 21.577 9.193 9.192 21.577 9.192ZM180-160v-40h40v-600h244.615v600h30.77v-600H740v600h40v40H180Z"/></svg>