<svg xmlns="http://www.w3.org/2000/svg" height="20" viewBox="0 -960 960 960" width="20"><path d="M537-110q-45.782 0-90.032-10.017T363-154q-3-3-3.5-6.5t3-7.5q3.5-4 8.5-4.5t9 1.5q35.236 22 74.986 31.5Q494.736-130 537-130q120.896 0 204.948-85.5T826-423q0-120.061-86-203.53Q654-710 532-710h-66l77 76q4 4 3.5 7t-4.5 7q-4 4-6 4.5t-6-3.5l-83-83q-5-5-6.5-9.032-1.5-4.033-1.5-9 0-4.968 1.5-8.968t6.5-9l82-83q4-4 6.5-4t6.5 4q4 4 5.5 6.5T545-808l-79 78h69q130.028 0 220.514 88.5Q846-553 846-422.5q0 129.5-90.208 221Q665.583-110 537-110ZM284.8-264q-5.2 0-9.5-2t-8.3-6L137-402q-4-4.4-6-8.7-2-4.3-2-9.5t2-9.5q2-4.3 6-8.3l130-130q4.4-4 8.7-6 4.3-2 9.5-2t9.5 2q4.3 2 8.3 6l130 130q4 4.4 6 8.7 2 4.3 2 9.5t-2 9.5q-2 4.3-6 8.3L303-272q-4.4 4-8.7 6-4.3 2-9.5 2Z"/></svg>