<svg xmlns="http://www.w3.org/2000/svg" height="20" viewBox="0 -960 960 960" width="20"><path d="M456-888.871q176.174 158.479 253.696 271.414Q787.218-504.522 787.218-408q0 14.826-1 29.087t-3.565 29.087h-99.001q2.565-14.826 4.065-29.087 1.5-14.261 1.5-29.087 0-64.043-51.739-141.934Q585.739-627.826 456-758.826q-129.739 131-181.478 208.892Q222.783-472.043 222.783-408q0 44.869 23.174 85.26 23.173 40.39 61.521 63.216v150.569q-81.783-41.827-132.24-120.979Q124.782-309.087 124.782-408q0-101.522 79.022-215.457Q282.826-737.392 456-888.871Zm0 414.524ZM379.478-76.782v-201.044h153.044v201.044H379.478Zm57.044-57.044h38.956v-86.956h-38.956v86.956Zm134.956 57.044v-201.044h153.044v126.218h-29.87l32.131 74.826h-57.609l-31-72h-9.652v72h-57.044Zm192 0v-201.044h153.044v129.044h-96v72h-57.044ZM628.522-205.826h38.956v-14.956h-38.956v14.956Zm192 0h38.956v-14.956h-38.956v14.956Z"/></svg>