<svg xmlns="http://www.w3.org/2000/svg" height="20" viewBox="0 -960 960 960" width="20"><path d="M396.308-136v-167.385h119.384V-136H396.308Zm23.384-23.385h72.616V-280h-72.616v120.615ZM588.308-136v-167.385h119.384v98.462h-36.384L701.539-136h-25.693l-31-72h-33.154v72h-23.384Zm192 0v-167.385h119.384V-208h-96v72h-23.384Zm-168.616-95.385h72.616V-280h-72.616v48.615Zm192 0h72.616V-280h-72.616v48.615Zm-479.384 54.231q-61.924-32.077-101.116-93.23Q184-331.537 184-408q0-83.154 64.5-178.077T456-811.693q142.154 134.616 205.154 225.847T728-417.231q0 10.462-1 20.923-1 10.462-3 20.923H324.308v198.231Z"/></svg>