<svg xmlns="http://www.w3.org/2000/svg" height="20" viewBox="0 -960 960 960" width="20"><path d="M456-837.844q154.076 142.307 222.076 241.422 67.999 99.115 69.923 183.806 0 11.231-1 22.462-1 11.23-3 22.461H691q2-11.231 3.5-22.461 1.5-11.231 1.5-22.462-1.923-67.615-55.731-147.461Q586.461-639.923 456-769 324-638 270-557t-54 149q0 62.846 27.731 115.924 27.731 53.077 74.423 88.385v49.612q-68.461-35.538-111.307-102.864Q164.001-324.269 164.001-408q0-90.076 69.5-191.537Q303.001-700.999 456-837.844Zm0 350.998Zm-65.846 370.845v-179.692h131.692v179.692H390.154Zm35.692-35.692h60.308v-108.308h-60.308v108.308Zm156.308 35.692v-179.692h131.692v109.23h-33.693l30.616 70.462h-36.846l-31-72h-25.077v72h-35.692Zm192 0v-179.692h131.692v107.692h-96v72h-35.692ZM617.846-223.693h60.308v-36.308h-60.308v36.308Zm192 0h60.308v-36.308h-60.308v36.308Z"/></svg>