<svg xmlns="http://www.w3.org/2000/svg" height="24" viewBox="0 -960 960 960" width="24"><path d="M204-132q-24.75 0-42.375-17.625T144-192v-576q0-24.75 17.625-42.375T204-828h296q24.75 0 42.375 17.625T560-768v576q0 24.75-17.625 42.375T500-132H204Zm-32-341q15-17 35.5-26t44.5-9h200q24 0 44.5 9t35.5 26v-295q0-14-9-23t-23-9H204q-14 0-23 9t-9 23v295Zm180-127q-23 0-38.5-15.5T298-654q0-23 15.5-38.5T352-708q23 0 38.5 15.5T406-654q0 23-15.5 38.5T352-600Zm-14 294v66q0 5.95 4.035 9.975 4.035 4.025 10 4.025t9.965-4.025q4-4.025 4-9.975v-66h66q5.95 0 9.975-4.035 4.025-4.035 4.025-10T441.975-330q-4.025-4-9.975-4h-66v-66q0-5.95-4.035-9.975-4.035-4.025-10-4.025T342-409.975q-4 4.025-4 9.975v66h-66q-5.95 0-9.975 4.035-4.025 4.035-4.025 10t4.025 9.965q4.025 4 9.975 4h66Zm405.5-80q-4.5 4-10 4t-9.5-4l-72-73q-9-9-9-21t9-21l72-72q4-4 9.5-4.5t10 3.5q4.5 4 4.5 9.867 0 5.866-4 10.133l-61 60h151q5.95 0 9.975 4.035 4.025 4.035 4.025 10T843.975-470q-4.025 4-9.975 4H684l60 60q4 4.267 4 10.133 0 5.867-4.5 9.867Z"/></svg>