<svg xmlns="http://www.w3.org/2000/svg" height="20" viewBox="0 -960 960 960" width="20"><path d="M480-269.087q61.304 0 118.891-19.152t105.891-56.022q12.435-9.435 15.218-24.435 2.782-15-7.652-27-9.435-11-24.435-12.282-15-1.283-26.435 7.717-2 2-4.217 3.283-2.218 1.282-4.783 3.282l-31.869-56.434v-76.74h23.434q10 0 16.718-7 6.717-7 6.717-17t-6.717-16.717q-6.718-6.717-16.718-6.717H433.13l-34.043-66.956q-6.696-11.827-17.522-19.022-10.826-7.196-25.217-7.196h-58.13q-8.696 0-10.196 8.261t5.761 11.696l10.739 6.043-56.87 64.869q-5.434 7-4.934 15.718.5 8.717 5.934 14.152l10.435 11q5 5 10.718 6.217 5.717 1.218 11.717-.782l57.869-18.87v100.044l-31.869 55.434q-3-2-5.5-4t-4.5-4q-12-9-25.935-7-13.935 2-23.935 13-10.434 12-7.652 26.718 2.783 14.717 15.218 24.717 48.869 36.87 106.173 56.022Q418.696-269.087 480-269.087Zm0-70.304q-28.87 0-56.522-5.783-27.652-5.783-53.087-15.652l35.435-61.87q18 5.435 36.37 8.935 18.369 3.5 37.804 3.5 18.87 0 37.804-3.5 18.935-3.5 36.37-8.935l35.435 61.87q-25.435 10.435-53.087 15.935-27.652 5.5-56.522 5.5ZM174.783-76.781q-41.305 0-69.653-28.349-28.348-28.348-28.348-69.653v-610.434q0-41.305 28.348-69.653 28.348-28.348 69.653-28.348h610.434q41.305 0 69.653 28.348 28.348 28.348 28.348 69.653v610.434q0 41.305-28.348 69.653-28.348 28.348-69.653 28.348H174.783Z"/></svg>