<svg xmlns="http://www.w3.org/2000/svg" height="20" viewBox="0 -960 960 960" width="20"><path d="M480.513-273Q540-273 596.5-291.5 653-310 700-346q12-9 15-24t-7-27q-9-11-24-12.5t-26.333 7.5q-1.81 2-3.667 3.7-1.857 1.7-5 3.3l-31-56v-75h23.571q9.429 0 15.929-7.2T664-550q0-9.6-6.932-16.3-6.932-6.7-16.175-6.7H434l-31-60q-7.714-13.95-20.871-22.475Q368.971-664 352-664h-49q-9.667 0-11.333 10-1.667 10 7.242 13.118L308-638l-56 64q-5 6.724-4.5 15.362t5.357 14.067L263-534q5 5 10.5 6t11.186-.697L342-547v97l-31.3 55q-2.309-1.882-4.917-3.765-2.609-1.882-4.783-4.235-12-9-25.607-7t-22.918 12.824Q242-385 245-370.5q3 14.5 15 24.5 48 36 104.088 54.5Q420.176-273 480.513-273Zm-.078-69Q452-342 425-348q-27-6-52-15l35-61q18 5 35.5 8.5t35.83 3.5q19.009 0 37.34-3.5Q535-419 552-424l35 61q-25 10-51.565 15.5-26.564 5.5-55 5.5ZM180-62q-49.7 0-83.85-34.15Q62-130.3 62-180v-600q0-49.7 34.15-83.85Q130.3-898 180-898h600q49.7 0 83.85 34.15Q898-829.7 898-780v600q0 49.7-34.15 83.85Q829.7-62 780-62H180Zm0-118h600v-600H180v600Zm0 0v-600 600Z"/></svg>