<svg xmlns="http://www.w3.org/2000/svg" height="24" viewBox="0 -960 960 960" width="24"><path d="M274.5-192.587q-39-10-79.5-15t-80.5-5H70.913V-300H114.5q40 0 80.5-5t79.5-15v127.413ZM788.609-53.37 649.391-192.587H318.087V-320h203.891L53.37-788.609 112-848l735.239 736-58.63 58.63Zm91.804-139.217L753-320h134.413v127.413h-7ZM416.379-234.5q8.751 0 15.23-6.564 6.478-6.563 6.478-15.315 0-8.751-6.513-15.23-6.512-6.478-15.195-6.478t-15.281 6.513q-6.598 6.512-6.598 15.195t6.564 15.281q6.563 6.598 15.315 6.598ZM823.587-360v-89q0-68-46-115.5t-114-47.5v-63.587q30.761 0 52.38-21.62 21.62-21.619 21.62-52.38 0-30.761-21.62-52.38-21.619-21.62-52.38-21.62v-63.826q57.435 0 97.631 40.195 40.195 40.196 40.195 97.631 0 29.435-10.978 54.533-10.978 25.097-30.935 42.38 57.718 25.087 92.815 80.261 35.098 55.174 35.098 122.276V-360h-63.826ZM720-360v-51.814q0-38.861-23.5-60.284-23.5-21.424-55.5-21.424H579.478L442.413-630.557v-1.03q0-57.399 40.044-97.374 40.044-39.974 97.543-39.974v63.587q-31 0-52.5 19.859T506-634.63q0 31 21.5 55.021 21.5 24.022 52.5 24.022h61.239q58.373 0 100.36 37.025 41.988 37.025 41.988 92.562v66H720Z"/></svg>