<svg xmlns="http://www.w3.org/2000/svg" height="24" viewBox="0 -960 960 960" width="24"><path d="M140-120q-8.5 0-14.25-5.758-5.75-5.757-5.75-14.269 0-8.511 5.75-14.242Q131.5-160 140-160h680q8.5 0 14.25 5.758t5.75 14.269q0 8.512-5.75 14.242Q828.5-120 820-120H140Zm200-320q-16.667 0-28.333-11.64Q300-463.28 300-479.91q0-16.629 11.667-28.359Q323.333-520 340-520h280q16.667 0 28.333 11.64Q660-496.72 660-480.09q0 16.629-11.667 28.359Q636.667-440 620-440H340ZM140-800q-8.5 0-14.25-5.758T120-820.027q0-8.512 5.75-14.242Q131.5-840 140-840h680q8.5 0 14.25 5.758 5.75 5.757 5.75 14.269 0 8.511-5.75 14.242Q828.5-800 820-800H140Z"/></svg>