<svg xmlns="http://www.w3.org/2000/svg" height="20" viewBox="0 -960 960 960" width="20"><path d="M430.742-289Q392-289 365.5-315.65 339-342.3 339-381v-198q0-38.7 26.68-65.35Q392.361-671 431.103-671h98.155Q568-671 594.5-644.35 621-617.7 621-579v198q0 38.7-26.68 65.35Q567.639-289 528.897-289h-98.155Zm-234.631 0h-95.835Q76-289 58.5-306.289q-17.5-17.29-17.5-41.5Q41-372 58.35-389.5T100-407h70v-14h-37.212Q94-421 67.5-447.65T41-513v-66q0-38.7 26.618-65.35Q94.235-671 132.889-671h95.835Q253-671 270.5-653.711q17.5 17.29 17.5 41.5Q288-588 270.65-570.5T229-553h-70v14h37.212Q235-539 261.5-512.35T288-447v66q0 38.7-26.617 65.35Q234.765-289 196.111-289Zm631 0h-95.835Q707-289 689.5-306.289q-17.5-17.29-17.5-41.5Q672-372 689.35-389.5T731-407h70v-14h-37.212Q725-421 698.5-447.65T672-513v-66q0-38.7 26.618-65.35Q725.235-671 763.889-671h95.835Q884-671 901.5-653.711q17.5 17.29 17.5 41.5Q919-588 901.65-570.5T860-553h-70v14h37.212Q866-539 892.5-512.35T919-447v66q0 38.7-26.618 65.35Q865.765-289 827.111-289ZM457-407h46v-146h-46v146Z"/></svg>