<svg xmlns="http://www.w3.org/2000/svg" height="20" viewBox="0 -960 960 960" width="20"><path d="M473-252.924 102.54-623.385 239.615-760.46 611.076-391 473-252.924Zm0-74.306L536.77-391 240-686.77 177.23-624 473-327.23Zm245 217.383L556.461-271.386l37.153-37.153L755.153-147 718-109.847Zm1.828-480.769q-53.674 0-91.443-37.942-37.769-37.941-37.769-91.614 0-53.674 37.942-91.443 37.941-37.769 91.614-37.769 53.674 0 91.443 37.942 37.769 37.941 37.769 91.614 0 53.674-37.942 91.443-37.941 37.769-91.614 37.769Zm.217-51.999q32.263 0 54.801-22.584 22.539-22.584 22.539-54.846 0-32.263-22.584-54.801-22.584-22.539-54.846-22.539-32.263 0-54.801 22.584-22.539 22.584-22.539 54.846 0 32.263 22.584 54.801 22.584 22.539 54.846 22.539ZM720-720ZM360-504Z"/></svg>