<svg xmlns="http://www.w3.org/2000/svg" height="24" viewBox="0 -960 960 960" width="24"><path d="M415.488-435.478q18.686 0 31.599-12.8T460-480q0-18.922-12.8-31.722t-31.722-12.8q-18.682 0-31.319 12.8-12.638 12.8-12.638 31.722t12.641 31.722q12.64 12.8 31.326 12.8Zm-128.489 0q18.922 0 31.722-12.8t12.8-31.722q0-18.922-12.8-31.722t-31.722-12.8q-18.922 0-31.722 12.8T242.477-480q0 18.922 12.8 31.722t31.722 12.8Zm257.523 0q18.682 0 31.319-12.8 12.638-12.8 12.638-31.722t-12.641-31.722q-12.64-12.8-31.326-12.8t-31.599 12.8Q500-498.922 500-480t12.8 31.722q12.8 12.8 31.722 12.8Zm128.479 0q18.921 0 31.722-12.8 12.8-12.8 12.8-31.722t-12.8-31.722q-12.801-12.8-31.722-12.8-18.922 0-31.722 12.8T628.479-480q0 18.922 12.8 31.722t31.722 12.8ZM260.782-180.782h-67q-71.362 0-122.181-50.819-50.82-50.818-50.82-122.181v-252.436q0-71.652 50.82-122.326 50.819-50.674 122.181-50.674h572.436q71.652 0 122.326 50.674 50.674 50.674 50.674 122.326v252.436q0 71.362-50.674 122.181t-122.326 50.819h-67q0 17-11.5 28.5t-28.5 11.5H300.782q-17 0-28.5-11.5t-11.5-28.5Z"/></svg>