<svg xmlns="http://www.w3.org/2000/svg" height="20" viewBox="0 -960 960 960" width="20"><path d="M410.789-468Q426-468 436.5-478.35 447-488.7 447-504q0-14-10.289-25-10.29-11-25.5-11Q396-540 385.5-529 375-518 375-503.5t10.289 25q10.29 10.5 25.5 10.5ZM276-468q14 0 25-10.35T312-504q0-14-11-25t-25.5-11q-14.5 0-25 11T240-503.5q0 14.5 10.35 25T276-468Zm271.789 0Q563-468 573.5-478.35 584-488.7 584-504q0-14-10.289-25-10.29-11-25.5-11Q533-540 522.5-529 512-518 512-503.5t10.289 25q10.29 10.5 25.5 10.5ZM684-468q14 0 25-10.35T720-504q0-14-11-25t-25.5-11q-14.5 0-25 11T648-503.5q0 14.5 10.35 25T684-468ZM288-228v-12h-96q-60 0-102-42T48-384v-240q0-60 42-102t102-42h576q60 0 102 42t42 102v240q0 60-42 102t-102 42h-96v12q0 15.3-10.35 25.65Q651.3-192 636-192H324q-15.3 0-25.65-10.35Q288-212.7 288-228Z"/></svg>