<svg xmlns="http://www.w3.org/2000/svg" height="24" viewBox="0 -960 960 960" width="24"><path d="M420-449.231q12.385 0 21.577-8.807 9.192-8.808 9.192-21.962 0-12.385-9.192-21.577-9.192-9.192-21.577-9.192-13.154 0-21.962 9.192-8.807 9.192-8.807 21.577 0 13.154 8.807 21.962 8.808 8.807 21.962 8.807Zm-120 0q12.385 0 21.577-8.807 9.192-8.808 9.192-21.962 0-12.385-9.192-21.577-9.192-9.192-21.577-9.192-13.154 0-21.962 9.192-8.807 9.192-8.807 21.577 0 13.154 8.807 21.962 8.808 8.807 21.962 8.807Zm240 0q12.385 0 21.577-8.807 9.192-8.808 9.192-21.962 0-12.385-9.192-21.577-9.192-9.192-21.577-9.192-13.154 0-21.962 9.192-8.807 9.192-8.807 21.577 0 13.154 8.807 21.962 8.808 8.807 21.962 8.807Zm120 0q12.385 0 21.577-8.807 9.192-8.808 9.192-21.962 0-12.385-9.192-21.577-9.192-9.192-21.577-9.192-13.154 0-21.962 9.192-8.807 9.192-8.807 21.577 0 13.154 8.807 21.962 8.808 8.807 21.962 8.807ZM220-280h520q41.462 0 70.731-29.269Q840-338.538 840-380v-200q0-41.462-29.269-70.731Q781.462-680 740-680H220q-41.462 0-70.731 29.269Q120-621.462 120-580v200q0 41.462 29.269 70.731Q178.538-280 220-280Zm100 40H220q-58.308 0-99.154-40.846T80-380v-200q0-58.308 40.846-99.154T220-720h520q58.308 0 99.154 40.846T880-580v200q0 58.308-40.846 99.154T740-240H640q0 12.385-9.192 21.577-9.192 9.193-21.577 9.193H350.769q-12.385 0-21.577-9.193Q320-227.615 320-240Zm160-240Z"/></svg>