<svg xmlns="http://www.w3.org/2000/svg" height="20" viewBox="0 -960 960 960" width="20"><path d="M725.262-76.782v-418.48q14.131 0 27.261 2.566 13.131 2.565 25.827 5.565v402.219q-12.696 3-25.827 5.565-13.13 2.565-27.261 2.565Zm-105.044-28.261v-361.958q12.131-7.565 25.544-12.348 13.413-4.782 27.544-8.347v403.35q-14.131-3.566-27.544-8.349-13.413-4.782-25.544-12.348Zm209.523-1v-360.958q46.957 28.261 75.718 75.501 28.761 47.239 28.761 105.761T905.459-180.26q-28.761 46.956-75.718 74.217Zm-260.914-41.261q-24.261-28.261-38.674-63.652-14.413-35.392-14.413-75.348 0-39.957 14.413-74.501 14.413-34.543 38.674-63.369v276.87ZM480-480ZM386.608-76.782l-23.131-120.217q-18.478-7.305-36.304-17.044-17.825-9.739-33.434-22.912l-115.652 39.826-93.958-163.523 91.522-79.392q-1.435-9.739-2.435-19.478t-1-20.478q0-10.739 1-20.478t2.435-19.478l-91.522-79.392 93.958-162.392 116.783 39.261q15.608-13.174 32.586-22.63 16.978-9.457 36.021-16.761l23.131-121.348h186.784l23.131 121.348q18.478 7.304 36.304 16.761 17.825 9.456 33.434 22.63l115.652-39.261 93.958 162.392-55.782 50.304q-29.783-12.087-62.109-17.565-32.327-5.479-64.371-1.783l56.347-54.304-12.347-19.825-94.87 32q-24-30.696-58.413-50.544-34.413-19.848-73.544-26.283l-19-97.869h-24.13l-17.869 97.304q-39.696 6.435-74.392 26.283-34.695 19.848-59.261 51.109l-94.304-32-11.782 19.825 73.739 65.305q-6 18.13-10.065 37.478-4.066 19.348-4.066 39.913 0 20.565 4.066 40.196 4.065 19.63 10.065 37.761l-73.739 64.739 11.782 19.825 94.304-31.434q24.696 29.261 58.022 48.891 33.327 19.631 70.588 27.631 3.434 57.782 27.761 108.783 24.326 51 64.978 86.826H386.608Zm62.001-260.131q4-21.391 10.848-41.217 6.848-19.827 16.544-38.088-24.566-3.739-40.913-21.043Q418.74-454.565 418.74-480q0-24.913 17.326-42.239 17.325-17.326 42.238-17.326 21.305 0 36.761 12.435 15.456 12.435 21.761 31.304 15.565-14.956 34.043-26.13 18.479-11.174 37.174-20.566-17.565-36.304-51.717-58.891Q522.174-624 478.304-624q-59.434 0-101.717 42t-42.283 102q0 53.957 32.674 92.087 32.674 38.131 81.631 51Z"/></svg>