<svg xmlns="http://www.w3.org/2000/svg" height="24" viewBox="0 -960 960 960" width="24"><path d="M670.769-120v-338.462q13.693 0 26.385 2.116 12.692 2.115 24.385 6.346v321.539q-11.693 4.23-24.385 6.346Q684.462-120 670.769-120Zm-84.615-23.384v-291.693q11.692-7.231 24.269-12.192 12.577-4.962 26.5-7.962v332q-13.923-3-26.5-7.961-12.577-4.962-24.269-12.192Zm169.231 0v-291.693q38.077 22.154 61.346 60.231T840-289.231q0 47.539-23.269 85.616t-61.346 60.231Zm-203.077-25.385q-23.385-23.154-37.077-53.885-13.693-30.731-13.693-66.577t13.693-66.692q13.692-30.846 37.077-54v241.154ZM405.384-120l-14.461-115.692q-22.231-6.539-42.192-18.154-19.962-11.615-37.116-26.538L204.923-235l-74.616-130 92.231-69.539q-1.769-10.846-2.923-21.961-1.154-11.115-1.154-22.731 0-11.615 1.154-23.115 1.154-11.5 2.923-23.115L130.307-595l74.616-128.462 105.923 44.616q17.923-14.923 37.5-26.539 19.577-11.615 41.808-18.923L405.384-840h149.232l14.461 116.461q21.462 7.308 40.654 18.539 19.192 11.231 36.346 26.154l109-44.616L829.693-595l-74 56q-20.77-7.308-42-11.077-21.231-3.769-42.924-3.769-27.692 0-53.884 6.577t-51.346 17.73q-12.846-23-36.5-36.73Q505.385-580 478.923-580q-41.846 0-70.923 29.077-29.077 29.077-29.077 70.923 0 26.462 13.115 49.616 13.116 23.153 35.885 36.769-12.154 28.461-16.577 58.807-4.423 30.347-4.423 61.346 2.538 42.154 17.885 81.885 15.346 39.731 43.038 71.577h-62.462Z"/></svg>