<svg xmlns="http://www.w3.org/2000/svg" height="24" viewBox="0 -960 960 960" width="24"><path d="M691.957-71.87v-414.587q16.478 0 31.956 2.739 15.479 2.74 30.196 7.74v393.63q-14.717 5-30.196 7.74-15.478 2.739-31.956 2.739Zm-103.826-28.956V-457.5q14.478-8.239 29.576-14.859 15.098-6.619 32.576-9.859v406.11q-17.478-3.24-32.576-9.86-15.098-6.619-29.576-14.858Zm207.413 0V-457.5q46.674 26.956 75.13 73.75 28.457 46.793 28.457 104.707 0 57.913-28.457 104.587-28.456 46.674-75.13 73.63Zm-248.848-30.956q-28.957-27.957-45.555-65.892-16.597-37.935-16.597-81.609 0-43.674 16.597-81.75 16.598-38.076 45.555-66.271v295.522ZM363.065-71.869 346.587-202.5q-11.087-4.282-21.033-10.326-9.945-6.043-19.511-12.848l-121.391 51.196L67.478-377.391l104.913-79.435q-.761-6.044-.761-11.587v-23.174q0-5.543.761-11.587L67.478-582.609l117.174-202.435 121.87 50.957q9.565-6.804 19.271-12.728 9.707-5.924 20.794-10.207l16.478-131.109h233.87l16.478 131.109q11.087 4.283 21.033 10.207 9.945 5.924 19.511 12.728l121.391-50.957 117.174 202.435-65.869 49.783q-31.196-16.435-64.87-25.033-33.674-8.598-69.587-8.598-23.587 0-45.794 4.696-22.206 4.696-44.315 12.087-19-32.283-51.141-51.304Q518.804-620 481.283-620q-58 0-99 41t-41 99q0 39.196 19.934 71.913 19.935 32.717 53.848 51.239-5.761 19.283-8.141 39.826-2.38 20.544-2.38 40.587.76 58.631 23.456 111.761 22.696 53.131 65.087 92.805H363.065Z"/></svg>