<svg xmlns="http://www.w3.org/2000/svg" height="24" viewBox="0 -960 960 960" width="24"><path d="M269.231-440q-27.616 0-46.116-18.5t-18.5-46.115v-190.77q0-27.615 18.5-46.115 18.5-18.5 46.116-18.5h135.384q8.539 0 14.27 5.731 5.73 5.73 5.73 14.269 0 8.538-5.73 14.269-5.731 5.731-14.27 5.731H269.231q-10.77 0-17.693 6.923-6.923 6.923-6.923 17.692V-620H360q27.615 0 46.115 18.5 18.5 18.5 18.5 46.115v50.77q0 27.615-18.5 46.115Q387.615-440 360-440h-90.769Zm0-40H360q10.769 0 17.692-6.923t6.923-17.692v-50.77q0-10.769-6.923-17.692T360-580H244.615v75.385q0 10.769 6.923 17.692T269.231-480ZM600-440q-27.615 0-46.115-18.5-18.5-18.5-18.5-46.115v-190.77q0-27.615 18.5-46.115Q572.385-760 600-760h90.769q27.616 0 46.116 18.5t18.5 46.115v190.77q0 27.615-18.5 46.115-18.5 18.5-46.116 18.5H600Zm0-40h90.769q10.77 0 17.693-6.923 6.923-6.923 6.923-17.692v-190.77q0-10.769-6.923-17.692T690.769-720H600q-10.769 0-17.692 6.923t-6.923 17.692v190.77q0 10.769 6.923 17.692T600-480ZM173.846-100q-8.538 0-14.269-5.731-5.731-5.73-5.731-14.269v-120q0-8.539 5.731-14.269Q165.308-260 173.846-260q8.539 0 14.269 5.731 5.731 5.73 5.731 14.269v120q0 8.539-5.731 14.269-5.73 5.731-14.269 5.731Zm135.385 0q-8.539 0-14.269-5.731-5.731-5.73-5.731-14.269v-120q0-8.539 5.731-14.269 5.73-5.731 14.269-5.731 8.538 0 14.269 5.731 5.731 5.73 5.731 14.269v120q0 8.539-5.731 14.269Q317.769-100 309.231-100Zm135.385 0q-8.539 0-14.27-5.731-5.731-5.73-5.731-14.269v-120q0-8.539 5.731-14.269 5.731-5.731 14.27-5.731 8.538 0 14.269 5.731 5.731 5.73 5.731 14.269v120q0 8.539-5.731 14.269Q453.154-100 444.616-100ZM580-100q-8.538 0-14.269-5.731Q560-111.461 560-120v-120q0-8.539 5.731-14.269Q571.462-260 580-260h206.154q8.538 0 14.269 5.731 5.731 5.73 5.731 14.269v120q0 8.539-5.731 14.269Q794.692-100 786.154-100H580Z"/></svg>