<svg xmlns="http://www.w3.org/2000/svg" height="24" viewBox="0 -960 960 960" width="24"><path d="M323.077-123.846q-13.847-26.923-22.693-81.846-8.846-54.923-8.846-112.615 0-80.539 18.154-140.039Q327.846-517.846 360-560v-149.231L460-880h40l100 170.769V-560q33.154 42.154 50.808 101.654 17.654 59.5 17.654 140.039 0 56.923-8.462 112.23-8.461 55.308-22.307 82.231-31.231-9.923-45.847-39.423-14.615-29.5-14.384-63.5 0-24.231 5.5-52.461 5.5-28.231 5.5-54.924 0-58-28.039-110.076Q532.385-496.307 480-544.615q-52.154 49.846-80.308 100.385-28.154 50.538-28.154 105.461 0 29.769 6 59.154 6 29.385 6.231 54.385 0 33.23-14.731 62.077-14.731 28.846-45.961 39.307ZM480-644.615q-14.692 0-25.038-9.962-10.347-9.961-10.347-24.654 0-10.231 5-18.846t15-13.615V-809L400-698v98h160v-98l-64.615-111v97.308q10 5 15 13.615t5 18.846q0 14.693-10.347 24.654-10.346 9.962-25.038 9.962ZM495.385-809h-30.77 30.77Zm-30.77 0h30.77-30.77Z"/></svg>