<svg xmlns="http://www.w3.org/2000/svg" height="20" viewBox="0 -960 960 960" width="20"><path d="m775-152.538 27.846-27.847-63.461-63.461v-82.923h-38.77v99.846L775-152.538Zm-55.226 69.154q-63.62 0-107.697-44.304Q568-171.991 568-235.611q0-63.62 44.303-107.697 44.303-44.077 107.923-44.077 63.62 0 107.697 44.303Q872-298.779 872-235.158q0 63.62-44.303 107.697-44.303 44.077-107.923 44.077ZM308-610.77h344v-32H308v32ZM466.846-184H184v-592h592v284.615q-14.496-.307-29.017-.846-14.521-.538-26.983-.538-21.231 0-42.846 3.692-21.615 3.692-42.077 9.538V-496H308v32h284.461q-34.307 20.846-60.769 49.923-26.461 29.077-43.307 64.846H308v32h165.385q-4.308 18.923-7.231 38.616-2.923 19.692-1.923 38.615 1 8.385 1.654 27.346.653 18.962.961 28.654Z"/></svg>