<svg xmlns="http://www.w3.org/2000/svg" height="24" viewBox="0 -960 960 960" width="24"><path d="m784.13-139.739 28-28-75-75v-112h-40v128l87 87Zm-67 105q-83 0-141.5-58.5t-58.5-141.5q0-83 58.5-141.5t141.5-58.5q83 0 141.5 58.5t58.5 141.5q0 83-58.5 141.5t-141.5 58.5ZM282.87-596.413h394.26v-80H282.87v80Zm182.934 485.261H111.869v-736.261h736.262v367.131q-31.153-17.109-63.403-25.663-32.25-8.555-67.598-8.555-11 0-20.5.5t-19.5 2.5v-7.783H282.87v80h244.521q-18 16.283-32.739 35.566-14.739 19.282-26.217 41.565H282.87v80h158.695q-2.717 11.674-3.576 23.206-.859 11.533-.859 24.446 0 33.718 6.598 63.294 6.598 29.576 22.076 60.054Z"/></svg>