<svg xmlns="http://www.w3.org/2000/svg" height="20" viewBox="0 -960 960 960" width="20"><path d="m763-129 34-34-65-65v-86h-48v106l79 79Zm-653 22v-740h740v410q-26.1-16.76-55.6-27.92T732-480v-249H228v504h215q-.125 32.516 6.438 61.758Q456-134 468-107H110Zm118-110v-512 249-1 264Zm72-80h154q6-19 14.69-36.966Q477.381-351.932 489-369H300v72Zm0-144h262q22-13 46.5-22t51.5-14v-36H300v72Zm0-144h360v-72H300v72ZM707.774-26Q628-26 572-82.226t-56-136Q516-298 572.226-354t136-56Q788-410 844-353.774t56 136Q900-138 843.774-82t-136 56Z"/></svg>