<svg xmlns="http://www.w3.org/2000/svg" height="20" viewBox="0 -960 960 960" width="20"><path d="M158.769-177.846q-14.315 0-23.927-9.622-9.611-9.622-9.611-23.952v-541.173q0-14.33 9.611-23.792 9.612-9.461 23.927-9.461h276.923q14.316 0 23.927 9.611 9.612 9.612 9.612 23.928v110.461h332q14.315 0 23.927 9.625 9.611 9.626 9.611 23.96v397.157q0 14.335-9.611 23.796-9.612 9.462-23.927 9.462H158.769Zm-1.538-32h280v-112h-280v112Zm0-144h280v-112h-280v112Zm0-144h280v-112h-280v112Zm0-144h280v-112h-280v112Zm312 432h333.538v-400H469.231v400Zm103.384-256q-6.8 0-11.4-4.547-4.6-4.547-4.6-11.27 0-6.722 4.6-11.452 4.6-4.731 11.4-4.731H684q6.8 0 11.4 4.547 4.6 4.547 4.6 11.269t-4.6 11.453q-4.6 4.731-11.4 4.731H572.615Zm0 144q-6.8 0-11.4-4.547-4.6-4.547-4.6-11.27 0-6.722 4.6-11.452 4.6-4.731 11.4-4.731H684q6.8 0 11.4 4.547 4.6 4.547 4.6 11.269t-4.6 11.453q-4.6 4.731-11.4 4.731H572.615Z"/></svg>