<svg xmlns="http://www.w3.org/2000/svg" height="20" viewBox="0 -960 960 960" width="20"><path d="M183-98q-49.7 0-83.85-34.16Q65-166.321 65-216.036v-473.249Q65-739 99.15-773T183-807h210q49.7 0 83.85 34.15Q511-738.7 511-689v26h266q49.7 0 83.85 34.164Q895-594.672 895-544.953v329.234Q895-166 860.85-132 826.7-98 777-98H183Zm-15-103h240v-72H168v72Zm0-144h240v-72H168v72Zm0-144h240v-72H168v72Zm0-144h240v-72H168v72Zm312 432h312v-360H480v360Zm108-216q-15.3 0-25.65-10.289-10.35-10.29-10.35-25.5Q552-468 562.35-478.5 572.7-489 588-489h96q15.3 0 25.65 10.289 10.35 10.29 10.35 25.5Q720-438 709.65-427.5 699.3-417 684-417h-96Zm0 144q-15.3 0-25.65-10.289-10.35-10.29-10.35-25.5Q552-324 562.35-334.5 572.7-345 588-345h96q15.3 0 25.65 10.289 10.35 10.29 10.35 25.5Q720-294 709.65-283.5 699.3-273 684-273h-96Z"/></svg>