<svg xmlns="http://www.w3.org/2000/svg" height="20" viewBox="0 -960 960 960" width="20"><path d="M480-76.782q-82.957 0-156.348-31.695-73.392-31.696-128.718-87.022-55.326-55.327-86.739-129.001-31.413-73.674-31.413-156.63 0-83.957 31.413-156.566 31.413-72.609 86.739-127.653 55.326-55.043 128.718-86.456Q397.043-883.218 480-883.218q83.957 0 156.848 31.413 72.892 31.413 128.218 86.456 55.326 55.044 86.739 127.653 31.413 72.609 31.413 156.566 0 82.956-31.413 156.63-31.413 73.674-86.739 129.001-55.326 55.326-128.218 87.022Q563.957-76.782 480-76.782Zm0-98.001q50.478 0 96.087-15.174 45.608-15.173 82.217-44.347l-425.13-424.565q-28.044 37.739-43.217 82.782-15.174 45.044-15.174 94.957 0 127.173 89.304 216.76Q353.391-174.783 480-174.783Zm247.391-128.609q27.479-37.739 42.652-82.782 15.174-45.044 15.174-94.956 0-126.609-89.304-215.348Q606.609-785.217 480-785.217q-49.913 0-94.673 14.608-44.761 14.609-82.5 42.087l424.564 425.13Z"/></svg>