<svg xmlns="http://www.w3.org/2000/svg" height="20" viewBox="0 -960 960 960" width="20"><path d="M396-444.615H228q-6.8 0-11.4-4.548-4.6-4.547-4.6-11.269t4.6-11.453q4.6-4.73 11.4-4.73h168q6.8 0 11.4 4.547 4.6 4.547 4.6 11.269t-4.6 11.453q-4.6 4.731-11.4 4.731Zm270.077-193.462-76.664 52.385q-5.105 3.154-10.782 2.447-5.677-.706-8.932-6.063-2.93-5-2.453-10.352.477-5.353 4.754-8.34l98.538-68.539q2.462-.461 3.52-1.192 1.057-.731 2.747-.731h7.434q4.064 0 7.605 3.457 3.541 3.457 3.541 7.389v371.611q0 6.245-4.094 10.356t-10.077 4.111q-5.983 0-10.56-4.378-4.577-4.378-4.577-10.776v-341.385Z"/></svg>