<svg xmlns="http://www.w3.org/2000/svg" height="20" viewBox="0 -960 960 960" width="20"><path d="M225.479-275.911v61.521q0 9.696-3.283 18.174t-9.413 14.609L109.349-69.868Q96.653-55.477 79.044-54.564q-17.609.913-32-11.782-15.522-12.696-16.652-30.87-1.131-18.174 12.13-33.131l91.738-97.347-8.739-160.435q-1.565-19.392 6.131-36.153t18.13-28.326l100.956-106.608q12.131-12.696 26.827-17.979 14.695-5.282 30.391-5.282 15.696 0 29.892 5.065 14.195 5.065 26.326 17.196l99 99q21.869 21.869 44.565 30.043 22.695 8.174 50.738 8.174v89.522q-46 0-86.369-16.652-40.37-16.652-72.37-48.652l-52.782-53.347-84.173 86.434 111.783 101.608q8.391 7.261 13.087 16.87 4.696 9.609 4.696 21V-85.39q0 18.391-13.044 31.435-13.043 13.044-31.435 13.044-18.391 0-31.718-13.327-13.326-13.326-13.326-31.717v-117.869l-77.347-72.087Zm423.086 29.304V-85.39q0 18.391-13.043 31.435-13.044 13.044-31.435 13.044-18.392 0-31.718-13.327-13.326-13.326-13.326-31.717v-165.608q0-9.261 3.13-17.24 3.131-7.978 9.261-14.674l90.043-103-27.434-138.13q-18.739 20.043-43.696 33.499-24.956 13.457-53.695 20.196-15.826-4-25.913-11.283-10.087-7.282-25.305-22.5l-36-36q44.218-.565 74.022-9.131 29.804-8.565 57.674-35.869l71-71q21.696-22.826 56.131-27.131 34.435-4.304 63.696 7.827l157.695 62.912q14.391 5.696 22.652 18.088 8.261 12.391 8.261 27.348v141.174q0 18.391-13.043 31.435-13.044 13.043-31.435 13.043-18.392 0-31.718-13.326t-13.326-31.718V-541.39l-64.173-23.087 86.39 472.652q3.566 20.392-9.978 35.653-13.544 15.26-33.935 15.26-16.392 0-28.087-9.978-11.696-9.978-14.261-25.804l-53.522-289.782-104.912 119.869ZM452.043-585.869q-33.956 0-57.217-23.543-23.261-23.544-23.261-57.501 0-33.957 23.261-57.217 23.261-23.261 57.217-23.261 33.957 0 57.218 23.261 23.261 23.26 23.261 57.217 0 33.957-23.261 57.501-23.261 23.543-57.218 23.543Zm188.609-125.652q-33.957 0-57.218-23.261-23.261-23.261-23.261-57.218 0-33.957 23.261-57.218 23.261-23.261 57.218-23.261 33.957 0 57.218 23.261 23.26 23.261 23.26 57.218 0 33.957-23.26 57.218-23.261 23.261-57.218 23.261Z"/></svg>