<svg xmlns="http://www.w3.org/2000/svg" height="24" viewBox="0 -960 960 960" width="24"><path d="M235.479-293.911v49.521q0 9.696-3.283 19.174t-10.413 16.609L105.349-80.868Q92.653-66.477 72.544-65.064q-20.109 1.413-34.5-11.282-15.522-12.696-16.652-33.37-1.131-20.674 12.13-35.631L136.26-257.694 94.521-375.129q-7.565-21.392-1.87-47.153 5.697-25.761 24.131-45.326l122.956-128.608q13.131-13.696 28.827-19.979 15.695-6.282 34.391-6.282 18.696 0 34.392 6.565 15.695 6.565 28.826 19.696l80 78q25.869 25.869 60.065 38.543 34.195 12.674 75.238 12.674v97.522q-60 0-110.869-18.152-50.87-18.152-88.87-56.152l-21.782-22.347-78.173 80.434 79.783 70.608q8.391 7.261 13.087 17.87 4.696 10.609 4.696 22V-97.39q0 20.391-14.044 34.435-14.043 14.044-34.435 14.044-20.391 0-34.718-14.327-14.326-14.326-14.326-34.717v-155.869l-46.347-40.087Zm444.086 23.304V-97.39q0 20.391-14.043 34.435-14.044 14.044-34.435 14.044-20.392 0-34.718-14.327-14.326-14.326-14.326-34.717v-206.608q0-10.261 4.13-19.74 4.131-9.478 11.261-17.174l68.043-68-23.434-141.13q-12.739 14.043-28.196 25.499-15.456 11.457-34.195 21.196-35.826-2-63.913-14.283-28.087-12.282-54.305-38.5 51.218-8.565 84.022-31.631 32.804-23.065 53.674-56.369l40-64q18.696-29.826 54.631-37.631 35.935-7.804 67.196 5.327l166.695 70.912q14.391 6.696 23.152 19.588 8.761 12.891 8.761 28.848v119.174q0 20.391-14.043 34.435-14.044 14.043-34.435 14.043-20.392 0-34.718-14.326-14.326-14.326-14.326-34.718v-90.347l-56.173-20.087 92.39 507.652q4.566 22.392-10.478 39.653-15.044 17.26-39.435 17.26-17.392 0-30.587-10.478-13.196-10.478-16.761-27.304l-55.522-249.782-65.912 65.869ZM455.043-605.869q-36.956 0-62.717-26.043-25.761-26.044-25.761-63.001 0-36.957 25.761-62.717 25.761-25.761 62.717-25.761 36.957 0 62.718 25.761 25.761 25.76 25.761 62.717 0 36.957-25.761 63.001-25.761 26.043-62.718 26.043Zm196.609-165.652q-36.957 0-62.718-25.761-25.761-25.761-25.761-62.718 0-36.957 25.761-62.718 25.761-25.761 62.718-25.761 36.957 0 62.718 25.761 25.76 25.761 25.76 62.718 0 36.957-25.76 62.718-25.761 25.761-62.718 25.761Z"/></svg>