<svg xmlns="http://www.w3.org/2000/svg" height="24" viewBox="0 -960 960 960" width="24"><path d="M360-140q-58.308 0-99.154-40.846T220-280v-340.846q-35-13-57.5-39.654-22.5-26.654-22.5-59.239 0-41.775 29.14-71.018Q198.28-820 239.91-820q41.629 0 70.859 29.243Q340-761.514 340-719.739q0 32.585-22.5 59.239-22.5 26.654-57.5 39.654V-280q0 41.25 29.419 70.625T360.15-180q41.311 0 70.581-29.375Q460-238.75 460-280v-400q0-58.308 40.846-99.154T600-820q58.308 0 99.154 40.846T740-680v340.846q35 13 57.5 39.654 22.5 26.654 22.5 59.239 0 41.775-29.14 71.018Q761.719-140 720.091-140q-41.63 0-70.86-29.243Q620-198.486 620-240.261q0-32.585 22.5-59.739 22.5-27.154 57.5-39.154V-680q0-41.25-29.419-70.625T599.85-780q-41.311 0-70.581 29.375Q500-721.25 500-680v400q0 58.308-40.846 99.154T360-140ZM240-660q24.692 0 42.346-17.654Q300-695.308 300-720q0-24.692-17.654-42.346Q264.692-780 240-780q-24.692 0-42.346 17.654Q180-744.692 180-720q0 24.692 17.654 42.346Q215.308-660 240-660Zm480 480q24.692 0 42.346-17.654Q780-215.308 780-240q0-24.692-17.654-42.346Q744.692-300 720-300q-24.692 0-42.346 17.654Q660-264.692 660-240q0 24.692 17.654 42.346Q695.308-180 720-180ZM240-720Zm480 480Z"/></svg>