<svg xmlns="http://www.w3.org/2000/svg" height="20" viewBox="0 -960 960 960" width="20"><path d="M233-575q-21-30-33.5-62.69T187-705.954q0-6.73.5-12.835.5-6.106 1.5-13.211 1.913-21.927 17.957-37.963Q223-786 243.314-786q22.791 0 38.739 15.868Q298-754.263 296-731.783q-.5 5.3-.75 11.041Q295-715 295-709.207q0 28.108 15.082 52.588Q325.163-632.138 341-609q21 26 34 57.689 13 31.69 13 66.35V-477q0 4-1 8-3 22-17.911 38.5-14.91 16.5-36.5 16.5Q308-414 292-429.978t-14-38.466q1-4.45 1.5-8.865.5-4.414.5-8.999 0-26.593-15.5-47.143Q249-554 233-575Zm163 0q-21-30-33.5-62.69T350-705.954q0-6.73.5-12.835.5-6.106 1.5-13.211 1.913-21.927 17.957-37.963Q386-786 406.314-786q22.791 0 38.739 15.868Q461-754.263 459-731.783q-.5 5.3-.75 11.041Q458-715 458-709.207q0 28.108 15.082 52.588Q488.163-632.138 504-609q21 26 34 57.689 13 31.69 13 66.35V-477q0 4-1 8-3 22-17.911 38.5-14.91 16.5-36.5 16.5Q471-414 455-429.978t-14-38.466q1-4.45 1.5-8.865.5-4.414.5-8.999 0-26.593-15.5-47.143Q412-554 396-575Zm163 0q-21-30-33.5-62.69T513-705.954q0-6.73.5-12.835.5-6.106 1.5-13.211 1.913-21.927 17.957-37.963Q549-786 569.314-786q22.791 0 38.739 15.868Q624-754.263 622-731.783q-.5 5.3-.75 11.041Q621-715 621-709.207q0 28.108 15.082 52.588Q651.163-632.138 667-609q21 26 34 57.689 13 31.69 13 66.35V-477q0 4-1 8-3 22-17.911 38.5-14.91 16.5-36.5 16.5Q634-414 618-429.978t-14-38.466q1-4.45 1.5-8.865.5-4.414.5-8.999 0-26.593-15.5-47.143Q575-554 559-575Zm-81 411q-180 0-296-60.15T66-378q0-42 32.5-77t99.5-65v115q-9 3-16.5 11.286Q174-385.429 174-378q0 43.5 90.541 74.75 90.542 31.25 213 31.25Q600-272 693-303.75T786-378q0-7.429-7.5-15.714Q771-402 762-405v-115q67 29 99.5 64.5T894-378q0 93.7-117 153.85Q660-164 478-164Z"/></svg>