<svg xmlns="http://www.w3.org/2000/svg" height="20" viewBox="0 -960 960 960" width="20"><path d="M184.587-64.587v-72h590.826v72H184.587Zm0-758.826v-72h590.826v72H184.587Zm295.413 395q50.957 0 86.435-35.359 35.478-35.358 35.478-86.315 0-50.956-35.478-86.435Q530.957-672 480-672t-86.435 35.478q-35.478 35.479-35.478 86.435 0 50.957 35.478 86.315 35.478 35.359 86.435 35.359ZM88.587-184.587v-590.826h782.826v590.826H88.587ZM219.413-264h521.174q-46.565-58.239-114.761-90.913T480-387.587q-77.63 0-145.826 33.174T219.413-264Z"/></svg>