<svg xmlns="http://www.w3.org/2000/svg" height="24" viewBox="0 -960 960 960" width="24"><path d="M170.001-72.31v-59.999h619.998v59.999H170.001Zm0-755.381v-59.999h619.998v59.999H170.001Zm309.954 407.692q45.814 0 77.929-32.069 32.115-32.07 32.115-77.885 0-45.814-32.07-77.929t-77.884-32.115q-45.814 0-77.929 32.07t-32.115 77.884q0 45.814 32.07 77.929t77.884 32.115ZM100.001-180.001v-599.998h759.998v599.998H100.001ZM256.156-240h447.688q-45-48.307-101.692-74.153Q545.461-339.999 480-339.999t-122.152 25.846Q301.156-288.307 256.156-240Z"/></svg>