<svg xmlns="http://www.w3.org/2000/svg" height="24" viewBox="0 -960 960 960" width="24"><path d="M170.001-72.31v-59.999h619.998v59.999H170.001Zm0-755.381v-59.999h619.998v59.999H170.001Zm309.954 407.692q45.814 0 77.929-32.069 32.115-32.07 32.115-77.885 0-45.814-32.07-77.929t-77.884-32.115q-45.814 0-77.929 32.07t-32.115 77.884q0 45.814 32.07 77.929t77.884 32.115ZM100.001-180.001v-599.998h759.998v599.998H100.001ZM256.156-240q45-48.307 101.692-74.153Q414.539-339.999 480-339.999t122.152 25.846Q658.844-288.307 703.844-240H800v-480H160v480h96.156ZM348-240h264q-29-20-62.5-30T480-280q-36 0-69.5 10T348-240Zm132-239.997q-20.846 0-35.424-14.577-14.577-14.577-14.577-35.424 0-20.846 14.577-35.423 14.578-14.578 35.424-14.578t35.424 14.578q14.577 14.577 14.577 35.423 0 20.847-14.577 35.424-14.578 14.577-35.424 14.577Zm0-.003Z"/></svg>