<svg xmlns="http://www.w3.org/2000/svg" height="20" viewBox="0 -960 960 960" width="20"><path d="M198.477-87.521V-384h-72v-264H432v264h-72v296.479H198.477Zm80.796-600q-38.708 0-65.752-27.009-27.044-27.009-27.044-65.718t27.405-65.47q27.404-26.761 65.887-26.761 38.709 0 65.47 27.009Q372-818.461 372-779.752t-27.009 65.47q-27.009 26.761-65.718 26.761ZM600-87.521v-182.956H476.609L602.826-648h107.87l126.218 377.523H713.523v182.956H600Zm56.231-600q-38.709 0-65.47-27.009Q564-741.539 564-780.248t27.009-65.47q27.009-26.761 65.718-26.761 38.708 0 65.752 27.009 27.044 27.009 27.044 65.718t-27.405 65.47q-27.404 26.761-65.887 26.761Z"/></svg>