<svg xmlns="http://www.w3.org/2000/svg" height="24" viewBox="0 -960 960 960" width="24"><path d="m338-620-28.769-28.769q34.846-34.385 79.038-52.808Q432.461-720 480-720q47.539 0 91.731 18.423 44.192 18.423 79.038 52.808L622-620q-29-29-65-44.5T480-680q-41 0-77 15.5T338-620ZM226-736l-28.308-28.308q56.077-55.846 129.423-85.769Q400.461-880 480-880q79.539 0 152.885 29.923 73.346 29.923 129.423 85.769L734-736q-51-50-117-77t-137-27q-71 0-137 27t-117 77Zm124.769 625.231v-418.462h258.462v418.462H350.769Zm218.462-40v-338.462H390.769v338.462h178.462Zm0 0H390.769h178.462Z"/></svg>