<svg xmlns="http://www.w3.org/2000/svg" height="24" viewBox="0 -960 960 960" width="24"><path d="m344.218-613.782-69.305-69.305q41.565-40.696 94.196-63.044 52.63-22.348 110.891-22.348t110.891 22.348q52.631 22.348 94.196 63.044l-69.305 69.305q-27.304-27.305-62.173-42.522-34.87-15.217-73.609-15.217t-73.609 15.217q-34.869 15.217-62.173 42.522ZM226-736l-67.87-67.87q65.261-64.261 147.87-98.957 82.609-34.696 174-34.696t174 34.696q82.609 34.696 147.87 98.957L734-736q-51-50-117-77t-137-27q-71 0-137 27t-117 77Zm74.782 690.48v-517.871h358.436V-45.52H300.782Z"/></svg>