<svg xmlns="http://www.w3.org/2000/svg" height="24" viewBox="0 -960 960 960" width="24"><path d="m340.63-617.37-62.782-62.782q41.239-39.718 93.217-61.576Q423.043-763.587 480-763.587t108.935 21.859q51.978 21.858 93.217 61.576L619.37-617.37q-28.283-28.282-63.805-43.663-35.522-15.38-75.565-15.38t-75.565 15.38q-35.522 15.381-63.805 43.663ZM226-736l-61.022-61.022q63.957-62.956 144.772-96.674 80.815-33.717 170.25-33.717t170.25 33.717q80.815 33.718 144.772 96.674L734-736q-51-50-117-77t-137-27q-71 0-137 27t-117 77Zm85.869 670.587v-496.022h336.262v496.022H311.869Z"/></svg>