<svg xmlns="http://www.w3.org/2000/svg" height="24" viewBox="0 -960 960 960" width="24"><path d="M429-136v-216h-85q-15.867 0-24.933-13Q310-378 316-393l94-236q8.942-21.692 27.721-34.346Q456.5-676 479.75-676q23.25 0 42.231 12.654T550-629l94 236q6 15-3.067 28-9.066 13-24.933 13h-85v216q0 12.75-8.625 21.375T501-106h-42q-12.75 0-21.375-8.625T429-136Zm51-594q-26.4 0-45.2-18.8Q416-767.6 416-794q0-26.4 18.8-45.2Q453.6-858 480-858q26.4 0 45.2 18.8Q544-820.4 544-794q0 26.4-18.8 45.2Q506.4-730 480-730Z"/></svg>