<svg xmlns="http://www.w3.org/2000/svg" height="24" viewBox="0 -960 960 960" width="24"><path d="M413.782-126.783v-184.738H349.74q-27.859 0-43.778-23.153-15.919-23.152-5.658-49.37l98.305-248.478q10.543-25.043 32.684-39.652 22.142-14.609 48.707-14.609t48.707 14.609q22.141 14.609 32.684 39.652l98.305 248.478q10.261 26.218-5.658 49.37-15.919 23.153-43.778 23.153h-64.042v184.738q0 22.087-15.457 37.544-15.457 15.457-37.544 15.457h-26.434q-22.087 0-37.544-15.457-15.457-15.457-15.457-37.544Zm66.293-597.739q-36.466 0-62.51-25.969-26.044-25.968-26.044-62.435 0-36.466 25.969-62.51 25.968-26.043 62.435-26.043 36.466 0 62.51 25.968 26.044 25.969 26.044 62.435 0 36.467-25.969 62.51-25.968 26.044-62.435 26.044Z"/></svg>