<svg xmlns="http://www.w3.org/2000/svg" height="20" viewBox="0 -960 960 960" width="20"><path d="M421-144v-129h-59q-31.733 0-49.867-26Q294-325 306-354l101-234q9.615-22.154 29.808-35.077Q457-636 480.128-636q23.127 0 43.019 13.077Q543.038-609.846 553-588l101 234q12 29.182-5.933 55.091Q630.133-273 598-273h-59v129q0 24.3-17.35 41.65Q504.3-85 480-85q-24.3 0-41.65-17.35Q421-119.7 421-144Zm58.885-560Q439-704 410-733.115q-29-29.115-29-70Q381-844 410.115-873q29.115-29 70-29Q521-902 550-872.885q29 29.115 29 70Q579-762 549.885-733q-29.115 29-70 29Z"/></svg>