<svg xmlns="http://www.w3.org/2000/svg" height="24" viewBox="0 -960 960 960" width="24"><path d="M206.154-360v-240q0-8.5 5.757-14.25 5.758-5.75 14.27-5.75 8.511 0 14.242 5.75 5.731 5.75 5.731 14.25v220h100q8.5 0 14.25 5.758 5.75 5.757 5.75 14.269t-5.75 14.242q-5.75 5.731-14.25 5.731h-120q-8.5 0-14.25-5.75t-5.75-14.25Zm263.077-220h-60q-8.5 0-14.25-5.758-5.75-5.757-5.75-14.269t5.75-14.242q5.75-5.731 14.25-5.731h160q8.5 0 14.25 5.758 5.75 5.757 5.75 14.269t-5.75 14.242q-5.75 5.731-14.25 5.731h-60v220q0 8.5-5.758 14.25T489.204-340q-8.512 0-14.243-5.75-5.73-5.75-5.73-14.25v-220ZM660-360v-240q0-8.5 5.75-14.25T680-620h120q8.5 0 14.25 5.758 5.75 5.757 5.75 14.269t-5.75 14.242Q808.5-580 800-580H700v80h100q8.5 0 14.25 5.758 5.75 5.757 5.75 14.269t-5.75 14.242Q808.5-460 800-460H700v80h100q8.5 0 14.25 5.758 5.75 5.757 5.75 14.269t-5.75 14.242Q808.5-340 800-340H680q-8.5 0-14.25-5.75T660-360Z"/></svg>