<svg xmlns="http://www.w3.org/2000/svg" height="24" viewBox="0 -960 960 960" width="24"><path d="M145-361v-247q0-19.975 13.8-33.487Q172.6-655 193-655q19.975 0 33.488 13.513Q240-627.975 240-608v208h73q19.975 0 33.487 13.518Q360-372.965 360-352.982 360-333 346.487-319 332.975-305 313-305H201q-23 0-39.5-16.5T145-361Zm287-199h-33q-19.975 0-33.487-13.8Q352-587.6 352-608q0-19.975 13.513-33.487Q379.025-655 399-655h162q19.975 0 33.487 13.518Q608-627.965 608-607.982 608-588 594.487-574 580.975-560 561-560h-33v207q0 20.4-13.8 34.2Q500.4-305 480-305q-20.4 0-34.2-13.8Q432-332.6 432-353v-207Zm216 199v-239q0-23.375 16.5-39.188Q681-655 704-655h112q19.975 0 33.487 13.518Q863-627.965 863-607.982 863-588 849.487-574 835.975-560 816-560h-73v40h80q17 0 28.5 11.5T863-480q0 17-11.5 28.5T823-440h-80v40h73q19.975 0 33.487 13.518Q863-372.965 863-352.982 863-333 849.487-319 835.975-305 816-305H704q-23 0-39.5-16.5T648-361Z"/></svg>