<svg xmlns="http://www.w3.org/2000/svg" height="24" viewBox="0 -960 960 960" width="24"><path d="M264-187q-51-48-80-112.895-29-64.894-29-139.806 0-72.299 27.405-135.857 27.405-63.559 74.385-110.574 46.98-47.016 110.49-74.442Q430.79-788 503-788q89 0 163 40.5T788-640h-35q-45-55-109.5-87.5T503-760q-134 0-227 93t-93 227q0 69 27 129t74 104l-20 20Zm113-113q-29-26-45.5-62.021T315-440q0-78.333 54.765-133.167Q424.529-628 502.765-628 581-628 636-573.051q55 54.949 55 133.447Q691-398 674.5-362T629-300l-20-20q25-23 39.5-54t14.5-66q0-66-47-113t-113-47q-66 0-113 47t-47 113q0 36 14.5 66.5T397-320l-20 20Zm126-112q-11 0-19.5-8.5T475-440q0-11 8.5-19.5T503-468q11 0 19.5 8.5T531-440q0 11-8.5 19.5T503-412Zm282.351 186Q777-226 771-231.851t-6-14.5q0-8.649 5.851-14.149t14.5-5.5q8.649 0 14.149 5.649t5.5 14Q805-238 799.351-232t-14 6ZM771-332v-228h28v228h-28Z"/></svg>