<svg xmlns="http://www.w3.org/2000/svg" height="20" viewBox="0 -960 960 960" width="20"><path d="M208-144q-52-53-82-122.428Q96-335.855 96-416q0-80 30-149.5t82.5-122Q261-740 330.812-770T480-800q115 0 206.5 59.5T825-584h-82q-42-65-111-104.5T480-728q-130 0-221 91t-91 221q0 64.984 24.5 121.492Q217-238 259-195l-51 51Zm101.576-102Q278-279 259-322.288T240-416q0-100 70-170t170-70q100 0 170 70t70 170q0 50-19 94t-52 76l-50-51q22.685-22.808 35.843-53.55Q648-381.292 648-416q0-70-49-119t-119-49q-70 0-119 49t-49 119q0 35 13.157 65.5Q338.315-320 361-297l-51.424 51Zm170.212-98Q450-344 429-365.212q-21-21.213-21-51Q408-446 429.212-467q21.213-21 51-21Q510-488 531-466.788q21 21.213 21 51Q552-386 530.788-365q-21.213 21-51 21Zm348.423 192Q813-152 802.5-162.289q-10.5-10.29-10.5-25.5Q792-203 802.289-213.5q10.29-10.5 25.5-10.5Q843-224 853.5-213.711q10.5 10.29 10.5 25.5Q864-173 853.711-162.5q-10.29 10.5-25.5 10.5ZM792-272v-240h72v240h-72Z"/></svg>