<svg xmlns="http://www.w3.org/2000/svg" height="20" viewBox="0 -960 960 960" width="20"><path d="m287.043-189.043 156-98-156-98v196Zm241.914-474.066h144v-48h-144v48ZM38.435-38.435v-497.217h641.217v497.217H38.435Zm689.217-361.913v-184.261h-39.348q42.609-.761 72.435-30.206 29.826-29.446 29.826-72.294 0-44.003-30.802-74.806-30.803-30.802-74.806-30.802h-60v48h60q24.043 0 40.826 16.81 16.782 16.811 16.782 40.826 0 24.016-16.802 40.798Q708.96-629.5 684.957-629.5h-60v45.848h-48V-629.5h-60q-24.004 0-40.807-16.811-16.802-16.811-16.802-40.826t16.802-40.798q16.803-16.782 40.807-16.782h60v-48h-60q-44.004 0-74.807 30.782-30.802 30.783-30.802 74.826 0 43.087 30.185 73.511 30.184 30.424 73.51 29.946H280.348v-337.913h641.217v521.217H727.652Z"/></svg>