<svg xmlns="http://www.w3.org/2000/svg" height="24" viewBox="0 -960 960 960" width="24"><path d="M128-291q8-86 53.036-157.845Q226.072-520.691 301-563l-59-102q-5-8-2.5-15.5T250-693q8-4 15-1.5t11.8 9.726L336-582q68.8-28.905 144-28.905T624-582l59.2-102.774Q688-692 695-694.5q7-2.5 15 1.5 8 5 10.5 12.5T718-665l-59 102q74.928 42.309 119.964 114.155Q824-377 832-291H128Zm192.141-88Q337-379 348.5-390.641t11.5-28.5Q360-436 348.359-447.5t-28.5-11.5Q303-459 291.5-447.359t-11.5 28.5Q280-402 291.641-390.5t28.5 11.5Zm320 0Q657-379 668.5-390.641t11.5-28.5Q680-436 668.359-447.5t-28.5-11.5Q623-459 611.5-447.359t-11.5 28.5Q600-402 611.641-390.5t28.5 11.5Z"/></svg>