<svg xmlns="http://www.w3.org/2000/svg" height="20" viewBox="0 -960 960 960" width="20"><path d="M756.045-154.001q-20.814 0-35.429-14.57-14.615-14.57-14.615-35.384t14.57-35.429q14.57-14.615 35.384-14.615t35.429 14.57q14.615 14.57 14.615 35.384t-14.57 35.429q-14.57 14.615-35.384 14.615Zm-372 48q-95.814 0-162.929-21.563-67.115-21.564-67.115-52.319 0-22.318 40.885-40.409 40.885-18.092 100.346-26.015v80.615h62.769v-682.153L637.691-708 409.999-594.154v340.385q90 5 147 25.201t57 48.389q0 31.333-68.07 52.755-68.07 21.423-161.884 21.423Z"/></svg>