<svg xmlns="http://www.w3.org/2000/svg" height="24" viewBox="0 -960 960 960" width="24"><path d="M780.091-140q-16.63 0-28.36-11.64Q740-163.28 740-179.91q0-16.629 11.64-28.359Q763.281-220 779.909-220q16.63 0 28.36 11.64Q820-196.72 820-180.09q0 16.629-11.64 28.359Q796.719-140 780.091-140ZM400.09-100q-91.629 0-155.859-17.346Q180-134.692 180-160q0-19.402 43.769-34.585 43.769-15.184 94.692-20.03v59.23H380v-692.308L635.385-724 420-612.308v392.769q86 5 143 21.063T620-160q0 25.308-64.14 42.654Q491.72-100 400.09-100Z"/></svg>