<svg xmlns="http://www.w3.org/2000/svg" height="24" viewBox="0 -960 960 960" width="24"><path d="M801.479-115.478q-26.695 0-45.326-18.913-18.63-18.913-18.63-45.609t18.63-45.609q18.631-18.913 45.326-18.913 27.261 0 45.892 18.631 18.63 18.63 18.63 45.891t-18.63 45.891q-18.631 18.631-45.892 18.631ZM400-62.478q-107.348 0-182.435-28.587-75.088-28.587-75.088-68.935 0-26.391 36.109-48.913t92.935-36.914V-160h80v-743.175L717.872-724 448.479-585.304v330.912q92.217 6.696 150.63 32.152 58.414 25.457 58.414 62.24 0 36.957-71.696 67.24Q514.131-62.477 400-62.477Z"/></svg>