<svg xmlns="http://www.w3.org/2000/svg" height="20" viewBox="0 -960 960 960" width="20"><path d="M777.479-139.478q-26.695 0-45.326-18.913-18.63-18.913-18.63-45.609t18.63-45.609q18.631-18.913 45.326-18.913 27.261 0 45.892 18.631 18.63 18.63 18.63 45.891t-18.63 45.891q-18.631 18.631-45.892 18.631ZM384-78.478q-107.348 0-182.435-29.727-75.088-29.728-75.088-71.678 0-27.508 38.609-51.53 38.609-24.022 102.435-38.414V-168h72v-719.175L697.872-708 428.479-573.304v293.912q96.217 6.696 154.63 33.572 58.414 26.877 58.414 65.641 0 39.136-72.696 70.419Q496.131-78.477 384-78.477Z"/></svg>