<svg xmlns="http://www.w3.org/2000/svg" height="24" viewBox="0 -960 960 960" width="24"><path d="M244.522-178.521v23.043q0 20.603-13.938 34.541-13.937 13.938-34.541 13.938-20.391 0-34.717-14.327-14.327-14.326-14.327-34.717v-648.479q0-20.603 14.327-34.541 14.326-13.938 34.717-13.938 20.392 0 34.435 13.938 14.044 13.938 14.044 34.541v23.043h70.956V-800q0-22.087 15.457-37.544 15.456-15.457 37.544-15.457h223.042q22.088 0 37.544 15.457 15.457 15.457 15.457 37.544v18.521h70.956v-23.043q0-20.603 14.326-34.541 14.326-13.938 34.718-13.938 20.391 0 34.435 13.938 14.044 13.938 14.044 34.541v649.044q0 20.603-13.938 34.541-13.938 13.938-34.541 13.938-20.392 0-34.718-14.327-14.326-14.326-14.326-34.717v-22.478h-70.956V-160q0 22.087-15.457 37.544-15.456 15.457-37.544 15.457H368.479q-22.088 0-37.544-15.457-15.457-15.457-15.457-37.544v-18.521h-70.956Zm0-96.957h70.956v-71.521h-70.956v71.521Zm0-169.044h70.956v-70.956h-70.956v70.956Zm0-168.479h70.956v-71.521h-70.956v71.521Zm400 337.523h70.956v-71.521h-70.956v71.521Zm0-169.044h70.956v-70.956h-70.956v70.956Zm0-168.479h70.956v-71.521h-70.956v71.521Z"/></svg>