<svg xmlns="http://www.w3.org/2000/svg" height="20" viewBox="0 -960 960 960" width="20"><path d="M391.385-836q-6.8 0-11.4-4.547-4.6-4.547-4.6-11.269 0-6.723 4.6-11.453 4.6-4.731 11.4-4.731h177.23q6.8 0 11.4 4.547 4.6 4.547 4.6 11.269 0 6.723-4.6 11.453-4.6 4.731-11.4 4.731h-177.23Zm88.431 437.615q6.723 0 11.453-4.6 4.731-4.6 4.731-11.4v-177.23q0-6.8-4.547-11.4-4.547-4.6-11.269-4.6-6.723 0-11.453 4.6-4.731 4.6-4.731 11.4v177.23q0 6.8 4.547 11.4 4.547 4.6 11.269 4.6ZM480-136q-61.948 0-115.74-23.045-53.792-23.046-93.98-63.235-40.189-40.188-63.235-93.98Q184-370.052 184-432q0-61.948 23.045-115.74 23.046-53.792 63.235-93.98 40.188-40.189 93.98-63.235Q418.052-728 479.56-728q54.434 0 105.322 20.269 50.887 20.269 92.272 55.269l28.82-28.82q5.334-5.334 10.488-5.218 5.154.115 11.538 6.5 6.385 6.384 6.385 11.154 0 4.769-6.385 11.154l-27.538 28.538q35 40.385 55.269 91.5Q776-486.538 776-431.856q0 61.804-23.045 115.596-23.046 53.792-63.235 93.98-40.188 40.189-93.98 63.235Q541.948-136 480-136Z"/></svg>