<svg xmlns="http://www.w3.org/2000/svg" height="20" viewBox="0 -960 960 960" width="20"><path d="M696.607-430.999H126.348q-20.388 0-34.694-14.247-14.307-14.246-14.307-34.543 0-20.298 14.307-34.755 14.306-14.457 34.694-14.457h569.694l-131.85-130.784q-15.323-14.693-15.041-34.845.283-20.153 15.24-34.544 14.957-14.957 34.826-14.675 19.87.283 34.827 15.24l214.565 214.565q6.696 7.096 10.326 16.222 3.631 9.126 3.631 18.587t-3.631 18.305q-3.63 8.843-10.326 15.539L634.044-230.26q-14.957 14.956-34.327 14.739-19.369-.217-34.326-15.261-14.957-15.435-14.957-35.189 0-19.754 14.957-34.377l131.216-130.651Z"/></svg>