<svg xmlns="http://www.w3.org/2000/svg" height="24" viewBox="0 -960 960 960" width="24"><path d="M91.738-91.738v-254.696h106.001v148.695h148.695v106.001H91.738Zm521.828 0v-106.001h148.695v-148.695h106.001v254.696H613.566ZM284.174-312.304 212.477-383l46.826-46.826H51.738v-100.348h207.565L212.477-577l71.697-70.696L451.305-480 284.174-312.304Zm392.217 0L509.26-480l167.131-167.696L748.088-577l-46.826 46.826h207v100.348h-207L748.088-383l-71.697 70.696ZM91.738-613.566v-254.696h254.696v106.001H197.739v148.695H91.738Zm670.523 0v-148.695H613.566v-106.001h254.696v254.696H762.261Z"/></svg>