<svg xmlns="http://www.w3.org/2000/svg" height="20" viewBox="0 -960 960 960" width="20"><path d="M313-785v-51q0-38.7 26.676-65.35Q366.352-928 405.088-928h150.176Q594-928 620.5-901.35 647-874.7 647-836v51h85q48.675 0 83.338 34.662Q850-715.675 850-667v40H111v-40q0-48.675 34.663-83.338Q180.325-785 229-785h84ZM229-93q-47.975 0-82.988-34.662Q111-162.325 111-211v-313h162v44q0 38.7 26.65 65.35Q326.3-388 365-388h230q38.7 0 65.35-26.65Q687-441.3 687-480v-44h163v313q0 48.675-34.662 83.338Q780.675-93 732-93H229Zm94.789-136q21.586 0 36.399-14.602Q375-258.204 375-279.789q0-21.586-14.602-36.399Q345.796-331 324.211-331q-21.586 0-36.399 14.602Q273-301.796 273-280.211q0 21.586 14.602 36.399Q302.204-229 323.789-229Zm156 0q21.586 0 36.399-14.602Q531-258.204 531-279.789q0-21.586-14.602-36.399Q501.796-331 480.211-331q-21.586 0-36.399 14.602Q429-301.796 429-280.211q0 21.586 14.602 36.399Q458.204-229 479.789-229Zm156 0q21.586 0 36.399-14.602Q687-258.204 687-279.789q0-21.586-14.602-36.399Q657.796-331 636.211-331q-21.586 0-36.399 14.602Q585-301.796 585-280.211q0 21.586 14.602 36.399Q614.204-229 635.789-229ZM375-491v-33h210v33H375Zm41-294h128v-41H416v41Z"/></svg>