<svg xmlns="http://www.w3.org/2000/svg" height="20" viewBox="0 -960 960 960" width="20"><path d="M765.174-213.174h-73.261q-16.501 0-27.663-11.088-11.163-11.087-11.163-27.478 0-16.39 11.163-27.738 11.162-11.348 27.663-11.348h73.261v-73.261q0-16.501 11.087-27.663 11.088-11.163 27.479-11.163 16.39 0 27.738 11.163 11.348 11.162 11.348 27.663v73.261h73.261q16.501 0 27.663 11.088 11.163 11.087 11.163 27.478 0 16.39-11.163 27.738-11.162 11.348-27.663 11.348h-73.261v73.261q0 16.501-11.087 27.663-11.088 11.163-27.479 11.163-16.39 0-27.738-11.163-11.348-11.162-11.348-27.663v-73.261ZM174.783-481.696h610.434v-144H174.783v144Zm0 308.914q-40.305 0-69.153-28.51-28.848-28.51-28.848-69.531V-689.5q0-41.022 28.848-69.37 28.848-28.348 69.153-28.348h610.434q40.305 0 69.153 28.498 28.848 28.498 28.848 69.503v214.304H756.174q-76.716 0-125.901 54.186-49.186 54.185-49.186 127.901v120.044H174.783Z"/></svg>