<svg xmlns="http://www.w3.org/2000/svg" height="20" viewBox="0 -960 960 960" width="20"><path d="M788-236H684q-6.8 0-11.4-4.547-4.6-4.547-4.6-11.269 0-6.723 4.6-11.453Q677.2-268 684-268h104v-104q0-6.8 4.547-11.4 4.547-4.6 11.269-4.6 6.723 0 11.453 4.6Q820-378.8 820-372v104h104q6.8 0 11.4 4.547 4.6 4.547 4.6 11.269 0 6.723-4.6 11.453Q930.8-236 924-236H820v104q0 6.8-4.547 11.4-4.547 4.6-11.269 4.6-6.723 0-11.453-4.6Q788-125.2 788-132v-104ZM168-512.307h624v-79.386H168v79.386ZM192.615-232Q169-232 152.5-248.162 136-264.324 136-288.656v-383.012Q136-696 152.5-712t40.115-16h574.77Q791-728 807.5-711.85 824-695.7 824-671.385V-460h-45q-80 0-131.5 56.5T596-270v38H192.615Z"/></svg>