<svg xmlns="http://www.w3.org/2000/svg" height="24" viewBox="0 -960 960 960" width="24"><path d="M128.479-180.782q-44.305 0-75.153-30.848-30.849-30.848-30.849-75.153v-386.434q0-44.305 30.849-75.153 30.848-30.848 75.153-30.848h386.434q44.305 0 75.153 30.848 30.848 30.848 30.848 75.153v386.434q0 44.305-30.848 75.153-30.848 30.848-75.153 30.848H128.479Zm0-106.001h386.434v-386.434H128.479v386.434Zm606.217 106.001q-18.921 0-31.722-12.8-12.8-12.8-12.8-31.722v-509.392q0-18.922 12.8-31.722 12.801-12.8 31.722-12.8 18.922 0 31.722 12.8t12.8 31.722v509.392q0 18.922-12.8 31.722t-31.722 12.8Zm158.305 0q-18.922 0-31.722-12.8t-12.8-31.722v-509.392q0-18.922 12.8-31.722t31.722-12.8q18.921 0 31.722 12.8 12.8 12.8 12.8 31.722v509.392q0 18.922-12.8 31.722-12.801 12.8-31.722 12.8ZM128.479-286.783v-386.434 386.434Z"/></svg>