<svg xmlns="http://www.w3.org/2000/svg" height="24" viewBox="0 -960 960 960" width="24"><path d="M140-252q-26 0-43-17t-17-43v-336q0-26 17-43t43-17h336q26 0 43 17t17 43v336q0 26-17 43t-43 17H140Zm553.965 0Q688-252 684-256.025T680-266v-428q0-5.95 4.035-9.975 4.035-4.025 10-4.025t9.965 4.025q4 4.025 4 9.975v428q0 5.95-4.035 9.975-4.035 4.025-10 4.025Zm172 0Q860-252 856-256.025T852-266v-428q0-5.95 4.035-9.975 4.035-4.025 10-4.025t9.965 4.025q4 4.025 4 9.975v428q0 5.95-4.035 9.975-4.035 4.025-10 4.025Z"/></svg>