<svg xmlns="http://www.w3.org/2000/svg" height="24" viewBox="0 -960 960 960" width="24"><path d="M113.782-60.782q-22.087 0-37.544-15.456-15.456-15.457-15.456-37.544 0-22.088 15.456-37.544 15.457-15.457 37.544-15.457h732.436q22.087 0 37.544 15.457 15.456 15.456 15.456 37.544 0 22.087-15.456 37.544-15.457 15.456-37.544 15.456H113.782Zm221.696-186.001q-30.417 0-51.709-21.292t-21.292-51.709v-506.434q0-30.417 21.292-51.709 21.292-21.291 51.709-21.291t51.709 21.291q21.292 21.292 21.292 51.709v506.434q0 30.417-21.292 51.709t-51.709 21.292Zm289.044 0q-30.417 0-51.709-21.292t-21.292-51.709v-266.434q0-30.417 21.292-51.709 21.292-21.291 51.709-21.291t51.709 21.291q21.292 21.292 21.292 51.709v266.434q0 30.417-21.292 51.709t-51.709 21.292Z"/></svg>