<svg xmlns="http://www.w3.org/2000/svg" height="20" viewBox="0 -960 960 960" width="20"><path d="M125.782-76.782q-20.387 0-34.694-14.246-14.306-14.246-14.306-34.544 0-20.298 14.306-34.754 14.307-14.457 34.694-14.457h708.436q20.387 0 34.694 14.246 14.306 14.246 14.306 34.544 0 20.298-14.306 34.755-14.307 14.456-34.694 14.456H125.782Zm205.696-170.001q-25.417 0-43.209-17.792t-17.792-43.209v-514.434q0-25.417 17.792-43.209 17.792-17.791 43.209-17.791t43.209 17.791q17.792 17.792 17.792 43.209v514.434q0 25.417-17.792 43.209t-43.209 17.792Zm297.044 0q-25.417 0-43.209-17.792t-17.792-43.209v-274.434q0-25.417 17.792-43.209 17.792-17.791 43.209-17.791t43.209 17.791q17.792 17.792 17.792 43.209v274.434q0 25.417-17.792 43.209t-43.209 17.792Z"/></svg>