<svg xmlns="http://www.w3.org/2000/svg" height="24" viewBox="0 -960 960 960" width="24"><path d="M206.783-100.782q-44.305 0-75.153-30.848-30.848-30.848-30.848-75.153v-546.434q0-44.305 30.848-75.153 30.848-30.848 75.153-30.848h546.434q44.305 0 75.153 30.848 30.848 30.848 30.848 75.153v546.434q0 44.305-30.848 75.153-30.848 30.848-75.153 30.848H206.783Zm0-106.001h546.434v-546.434H206.783v546.434Zm0-546.434v546.434-546.434Zm124.738 357.739h43.967q18.686 0 31.599-12.8T420-440v-20.565q0-9.583-7.211-16.77-7.211-7.187-16.826-7.187t-17.029 7.187q-7.413 7.187-7.413 16.77v16.043h-36.043v-70.956h60q9.809 0 17.165-7.131 7.357-7.13 7.357-17.108 0-9.979-7.357-17.392-7.356-7.413-17.165-7.413h-63.957q-18.922 0-31.722 12.8T286.999-520v80q0 18.922 12.8 31.722t31.722 12.8Zm148.196 0q9.979 0 17.392-7.357 7.413-7.356 7.413-17.165v-120q0-9.809-7.131-17.165-7.13-7.357-17.108-7.357-9.979 0-17.392 7.357-7.413 7.356-7.413 17.165v120q0 9.809 7.131 17.165 7.13 7.357 17.108 7.357Zm84.724 0q9.777 0 16.907-7.357 7.131-7.356 7.131-17.165v-26.999h36.043q9.583 0 16.77-7.333 7.187-7.332 7.187-17.109 0-9.776-7.187-16.907-7.187-7.13-16.77-7.13h-36.043v-20h55.478q9.809 0 17.165-7.131 7.357-7.13 7.357-17.108 0-9.979-7.357-17.392-7.356-7.413-17.165-7.413h-79.435q-9.809 0-17.165 7.357Q540-549.809 540-540v120.565q0 9.583 7.332 16.77 7.333 7.187 17.109 7.187Z"/></svg>