<svg xmlns="http://www.w3.org/2000/svg" height="24" viewBox="0 -960 960 960" width="24"><path d="M224.615-160Q197-160 178.5-178.5 160-197 160-224.615v-510.77Q160-763 178.5-781.5 197-800 224.615-800h510.77Q763-800 781.5-781.5 800-763 800-735.385v510.77Q800-197 781.5-178.5 763-160 735.385-160h-510.77ZM340-404.615h40q15.038 0 25.212-10.173 10.173-10.174 10.173-25.212v-20q0-6.154-4.616-10.769-4.615-4.616-10.769-4.616t-10.769 4.616q-4.616 4.615-4.616 10.769v20q0 1.538-1.538 3.077-1.539 1.538-3.077 1.538h-40q-1.538 0-3.077-1.538-1.538-1.539-1.538-3.077v-80q0-1.538 1.153-3.077 1.154-1.538 2.693-1.538h60q6.154 0 10.769-4.616 4.615-4.615 4.615-10.769T410-550.769q-4.615-4.616-10.769-4.616H340q-15.038 0-25.212 10.173-10.173 10.174-10.173 25.212v80q0 15.038 10.173 25.212 10.174 10.173 25.212 10.173Zm140 0q6.154 0 10.769-4.616 4.616-4.615 4.616-10.769v-120q0-6.154-4.616-10.769-4.615-4.616-10.769-4.616t-10.769 4.616q-4.616 4.615-4.616 10.769v120q0 6.154 4.616 10.769 4.615 4.616 10.769 4.616Zm80 0q6.154 0 10.769-4.616 4.616-4.615 4.616-10.769v-44.615H620q6.154 0 10.769-4.616 4.616-4.615 4.616-10.769t-4.616-10.769q-4.615-4.616-10.769-4.616h-44.615v-29.23H640q6.154 0 10.769-4.616 4.616-4.615 4.616-10.769t-4.616-10.769q-4.615-4.616-10.769-4.616h-80q-6.154 0-10.769 4.616-4.616 4.615-4.616 10.769v120q0 6.154 4.616 10.769 4.615 4.616 10.769 4.616Z"/></svg>