<svg xmlns="http://www.w3.org/2000/svg" height="24" viewBox="0 -960 960 960" width="24"><path d="M224.615-160Q197-160 178.5-178.5 160-197 160-224.615v-510.77Q160-763 178.5-781.5 197-800 224.615-800h510.77Q763-800 781.5-781.5 800-763 800-735.385v510.77Q800-197 781.5-178.5 763-160 735.385-160h-510.77Zm0-40h510.77q9.23 0 16.923-7.692Q760-215.385 760-224.615v-510.77q0-9.23-7.692-16.923Q744.615-760 735.385-760h-510.77q-9.23 0-16.923 7.692Q200-744.615 200-735.385v510.77q0 9.23 7.692 16.923Q215.385-200 224.615-200ZM200-760v560-560Zm140 355.385h40q14.692 0 25.038-10.347 10.347-10.346 10.347-25.038v-20q0-6.462-4.462-10.923-4.461-4.462-10.923-4.462t-10.923 4.462q-4.462 4.461-4.462 10.923v20q0 1.538-1.538 3.077-1.539 1.538-3.077 1.538h-40q-1.538 0-3.077-1.538-1.538-1.539-1.538-3.077v-80q0-1.538 1.153-3.077 1.154-1.538 2.693-1.538h60q6.461 0 10.923-4.462 4.461-4.461 4.461-10.923t-4.461-10.923q-4.462-4.462-10.923-4.462H340q-14.692 0-25.038 10.347-10.347 10.346-10.347 25.038v80q0 14.692 10.347 25.038 10.346 10.347 25.038 10.347Zm140 0q6.462 0 10.923-4.462 4.462-4.461 4.462-10.923v-120q0-6.462-4.462-10.923-4.461-4.462-10.923-4.462t-10.923 4.462q-4.462 4.461-4.462 10.923v120q0 6.462 4.462 10.923 4.461 4.462 10.923 4.462Zm80 0q6.462 0 10.923-4.462 4.462-4.461 4.462-10.923v-44.615H620q6.462 0 10.923-4.462 4.462-4.461 4.462-10.923t-4.462-10.923q-4.461-4.462-10.923-4.462h-44.615v-29.23H640q6.462 0 10.923-4.462 4.462-4.461 4.462-10.923t-4.462-10.923q-4.461-4.462-10.923-4.462h-80q-6.462 0-10.923 4.462-4.462 4.461-4.462 10.923v120q0 6.462 4.462 10.923 4.461 4.462 10.923 4.462Z"/></svg>