<svg xmlns="http://www.w3.org/2000/svg" height="20" viewBox="0 -960 960 960" width="20"><path d="M192.615-184q-24.315 0-40.465-16.15Q136-216.3 136-240.615V-320q0-6.8 4.547-11.4 4.547-4.6 11.269-4.6t11.453 4.6Q168-326.8 168-320v79.385q0 9.23 7.692 16.923Q183.385-216 192.615-216H272q6.8 0 11.4 4.547 4.6 4.548 4.6 11.27 0 6.722-4.6 11.452Q278.8-184 272-184h-79.385Zm186-128.615 38.539-197.231L292-455.077V-372q0 6.8-4.547 11.4-4.547 4.6-11.269 4.6-6.723 0-11.453-4.6Q260-365.2 260-372v-86.308q0-8.915 5.189-15.974 5.189-7.058 12.965-10.872l140.384-58q7.77-2.385 19.477-7.615Q449.722-556 464.079-556q19.221 0 35.922 8.896 16.702 8.897 26.979 25.636l9.097 16.853.513.102q.256.052.41 1.205-40.615 35.539-59.961 85.385-19.347 49.846-13.193 105.308h-85.231Zm149.137-299.693q-30.137 0-50.791-20.901-20.653-20.902-20.653-51.039t20.901-50.791q20.902-20.653 51.039-20.653t50.791 20.901q20.653 20.902 20.653 51.039t-20.901 50.791q-20.902 20.653-51.039 20.653ZM136-736v-79.385q0-24.315 16.15-40.465Q168.3-872 192.615-872H272q6.8 0 11.4 4.547 4.6 4.547 4.6 11.269t-4.6 11.453Q278.8-840 272-840h-79.385q-9.23 0-16.923 7.692Q168-824.615 168-815.385V-736q0 6.8-4.547 11.4-4.548 4.6-11.27 4.6-6.722 0-11.452-4.6Q136-729.2 136-736Zm656 0v-79.385q0-9.23-7.692-16.923Q776.615-840 767.385-840H688q-6.8 0-11.4-4.547-4.6-4.548-4.6-11.27 0-6.722 4.6-11.452Q681.2-872 688-872h79.385q24.315 0 40.465 16.15Q824-839.7 824-815.385V-736q0 6.8-4.547 11.4-4.547 4.6-11.269 4.6t-11.453-4.6Q792-729.2 792-736ZM681.313-190.615q-63.621 0-107.698-44.303-44.077-44.303-44.077-107.923 0-63.62 44.304-107.697 44.303-44.077 107.923-44.077 63.62 0 107.697 44.303 44.077 44.303 44.077 107.923 0 63.62-44.303 107.697-44.303 44.077-107.923 44.077ZM681.539-358q7.754 0 13.569-5.815 5.815-5.815 5.815-13.569v-17.231q0-7.754-5.815-13.569Q689.293-414 681.539-414q-7.754 0-13.57 5.816-5.815 5.815-5.815 13.569v17.231q0 7.754 5.815 13.569 5.816 5.815 13.57 5.815Zm0 89.847q9.6 0 16.03-6.431Q704-281.015 704-290.615q0-9.6-6.431-16.031-6.43-6.43-16.03-6.43-9.6 0-16.031 6.43-6.431 6.431-6.431 16.031 0 9.6 6.431 16.031 6.431 6.431 16.031 6.431Z"/></svg>