<svg xmlns="http://www.w3.org/2000/svg" height="20" viewBox="0 -960 960 960" width="20"><path d="M751-528q-35 0-71-18t-78-56q-39-36-59.5-82T528-768q2-11 6.5-20.5T546-805q26-26 99.553-43.5T783.87-863q23.13 2 38.63 5.5Q838-854 846-846q7 7 10.682 20.363Q860.364-812.275 862-792q5 64.008-12.5 141.004T805.73-547.73Q796-538 782-533t-31 5Zm36-184q2-17 3-37t2-42.957q-19-1.043-39.5.457T711-787q13 9 23 17t19 17q9.259 9.333 17.13 18.667Q778-725 787-712Zm-32 112q2-17-13.5-47.5T702-702q-25-25-52-39t-50-14q-2 20 13.5 49.5T653-653q25 23 57 39.5t45 13.5Zm83 384L657-408H274L72-598l48-52 182 170h385l203 216-52 48ZM336-96v-168q0-29.7 21.176-50.85Q378.352-336 408.088-336h144.176Q582-336 603-314.85q21 21.15 21 50.85v168H336Zm72-72h144v-96H408v96Zm0 0v-96 96Z"/></svg>