<svg xmlns="http://www.w3.org/2000/svg" height="20" viewBox="0 -960 960 960" width="20"><path d="m136-289-78-79q-22-23-23-61.5T57-490q85-81 185.5-127T480-663q137 0 238 44.5T903-490q23 22 22.5 60.5T902-368l-78 79q-15 15-44.5 18T724-287l-102-71q-13-10-21-26t-8-31.645V-546q-30-9-56.238-12-26.237-3-56.762-3-30.525 0-56.762 3Q397-555 367-546v130.355Q367-400 359-384t-21 26l-102 71q-23 17-54.5 14.5T136-289Zm128-221q-32 16-63 37.5T144-426l46 46 74-51v-79Zm432-1v80l74 51 46-48q-26-25-56.5-46.5T696-511Zm-432 1Zm432-1Z"/></svg>