<svg xmlns="http://www.w3.org/2000/svg" height="24" viewBox="0 -960 960 960" width="24"><path d="M480-620q111.077 0 219.423 44.423T886-451.538q12.769 12.769 13.154 29.923.385 17.153-12.385 29.153L826.308-334Q813-321.461 797.346-319.692q-15.654 1.769-29.192-8l-85.231-64.923q-11.846-9.077-17.385-19.385Q660-422.308 660-435.385v-111.692q-48.769-17.384-91.077-25.154Q526.615-580 480-580t-88.923 7.769q-42.308 7.77-91.077 25.154v111.692q0 13.077-5.538 23.385-5.539 10.308-17.385 19.385l-85.231 64.923q-13.538 9.769-29.192 8Q147-321.461 133.692-334l-60.461-58.462q-12.77-12-12.385-29.153.385-17.154 13.154-29.923 78-79.616 186.461-124.039Q368.923-620 480-620Z"/></svg>