<svg xmlns="http://www.w3.org/2000/svg" height="20" viewBox="0 -960 960 960" width="20"><path d="m136.692-347-47.461-48.462q-14.77-14-14.885-34.653-.115-20.654 14.654-35.423 69-69.616 170.356-116.039T479.894-628q119.183 0 221.029 46.423Q802.769-535.154 871-465.538q14.769 14.769 14.654 35.423-.115 20.653-14.885 34.653L823.308-347Q810-334.461 791.846-330.692t-36.692-9l-84.231-58.923q-12.846-10.077-19.885-22.944Q644-434.426 644-448.03v-119.047q-45.769-16.384-83.815-22.654Q522.14-596 480-596t-80.185 6.269q-38.046 6.27-83.815 22.654v119.047q0 13.604-7.038 26.471-7.039 12.867-19.885 22.944l-84.231 58.923q-18.538 12.769-37.192 8.5T136.692-347ZM284-558.769q-50.846 22.615-98.423 55.692Q138-470 107-437.154q-3.846 3.846-3.846 7.692 0 3.847 3.846 7.693l56.692 55.923q3.847 3.846 9.616 5t10.384-2.693l91.077-63.769q3.846-3.077 6.539-7.692 2.692-4.615 2.692-8.462v-115.307Zm392-1.538v116.845q0 3.847 2.692 8.462 2.693 4.615 6.539 7.692l91.077 63.769q4.615 3.847 10.384 2.693t9.616-5L853-423.308q3.846-3.846 3.846-7.692T853-438.692Q822-471 774.923-503.961 727.846-536.923 676-560.307Zm-392 1.538Zm392-1.538Z"/></svg>