<svg xmlns="http://www.w3.org/2000/svg" height="24" viewBox="0 -960 960 960" width="24"><path d="m133.692-334-60.461-58.462q-12.77-12-12.385-29.153.385-17.154 13.154-29.923 78-79.616 186.356-124.039T479.894-620q111.183 0 219.529 44.423Q807.769-531.154 886-451.538q12.769 12.769 13.154 29.923.385 17.153-12.385 29.153L826.308-334Q813-321.461 797.346-319.692q-15.654 1.769-29.192-8l-85.231-64.923q-11.846-9.077-17.385-19.444Q660-422.426 660-435.385v-111.692q-48.769-17.384-91.077-25.154Q526.615-580 480-580t-88.923 7.769q-42.308 7.77-91.077 25.154v111.692q0 12.959-5.538 23.326-5.539 10.367-17.385 19.444l-85.231 64.923q-13.538 9.769-29.192 8Q147-321.461 133.692-334ZM260-532.769q-42.846 19.615-82.923 47.192Q137-458 108-430.154q-3.846 3.846-3.846 7.692 0 3.847 3.846 7.693l47.692 46.923q3.847 3.846 9.616 5t10.384-2.693l75.077-56.769q3.846-3.077 6.539-7.692 2.692-4.615 2.692-8.462v-94.307Zm440 .462v93.845q0 3.847 2.692 8.462 2.693 4.615 6.539 7.692l75.077 56.769q4.615 3.847 10.384 2.693t9.616-5L852-414.308q3.846-3.846 3.846-7.692T852-429.692Q823-458 782.923-485.461 742.846-512.923 700-532.307Zm-440-.462Zm440 .462Z"/></svg>