<svg xmlns="http://www.w3.org/2000/svg" height="20" viewBox="0 -960 960 960" width="20"><path d="M338-256h284q-4.929-32.656-22.464-58.828Q582-341 554-358l23.5-40q1.5-4 .5-7.5t-4.833-5.5q-3.067-2-6.517-1t-5.162 4.973L536.627-367q-11.627-6-26.261-8.5-14.634-2.5-30-2.5t-29.866 2.676Q436-372.647 423.373-367L399-407q-2-3-6-5t-7 1q-4 2-3 13l24 40q-27.714 15.961-45.847 42.645Q343.02-288.671 338-256Zm81-39q-6 0-9.5-3.5T406-308q0-6 3.5-9.5t9.5-3.5q6 0 9 3.5t3 9.5q0 6-3.2 9.5T419-295Zm123 0q-6 0-9.5-3.5T529-308q0-6 3.5-9.5t9.5-3.5q6 0 9.5 3.5t3.5 9.5q0 6-3.5 9.5T542-295ZM295.717-148Q273-148 258.5-162.65T244-200v-560q0-22.7 14.65-37.35Q273.3-812 296-812h284q10.667 0 20.333 4Q610-804 618-796l82 82q8 8 12 17.667 4 9.666 4 20.333v476q0 22.7-14.662 37.35Q686.676-148 663.96-148H295.717ZM580-701.6V-792H296q-12 0-22 10t-10 22v560q0 12 10 22t22 10h368q12 0 22-10t10-22v-476h-90.418q-10.882 0-18.232-7.36T580-701.6ZM264-792v116-116 624-624Z"/></svg>