<svg xmlns="http://www.w3.org/2000/svg" height="24" viewBox="0 -960 960 960" width="24"><path d="M330-240h300q-2.929-36.656-21.964-67.328Q589-338 557-356l28.5-51q1.5-3 0-6.5t-4.833-5.5Q578-421 575-420t-4.512 3.973L541-364q-14-6-29.366-9t-31.5-3Q464-376 449-372.824q-15 3.177-30 8.824l-29-52q-2-3-5.5-4t-6.5 1q-1 0-3 12l29 51q-31.714 17.961-51.347 48.645Q333.02-276.671 330-240Zm83-45q-6 0-10.5-4.5T398-300q0-6 4.5-10.5T413-315q6 0 10 4.5t4 10.5q0 6-4.2 10.5T413-285Zm135 0q-6 0-10.5-4.5T533-300q0-6 4.5-10.5T548-315q6 0 10.5 4.5T563-300q0 6-4.5 10.5T548-285ZM272-132q-26 0-43-17t-17-43v-576q0-26 17-43t43-17h289q12.444 0 23.722 5T604-810l126 126q8 8 13 19.278 5 11.278 5 23.722v449q0 26-17 43t-43 17H272Zm300-549.6V-800H272q-12 0-22 10t-10 22v576q0 12 10 22t22 10h416q12 0 22-10t10-22v-460H601.582Q589-652 580.5-660.51T572-681.6ZM240-800v148-148 640-640Z"/></svg>