<svg xmlns="http://www.w3.org/2000/svg" height="20" viewBox="0 -960 960 960" width="20"><path d="m648-360-29.695 29.695q-10.826 10.826-26.566 4.964Q576-331.204 576-346.827v-228.172q0-20.388 14.307-34.694Q604.613-624 625.001-624h237.998q20.388 0 34.694 14.307Q912-595.387 912-574.999v165.998q0 20.388-14.307 34.694Q883.387-360 862.999-360H648ZM272.479-30.477q-40.44 0-69.221-28.781-28.781-28.781-28.781-69.221v-703.042q0-40.44 28.781-69.221 28.781-28.781 69.221-28.781h415.042q40.44 0 69.221 28.781 28.781 28.781 28.781 69.221V-672h-98.002v-39.521H272.479v463.042h415.042V-288h98.002v159.521q0 40.44-28.781 69.22-28.781 28.782-69.221 28.782H272.479Z"/></svg>