<svg xmlns="http://www.w3.org/2000/svg" height="20" viewBox="0 -960 960 960" width="20"><path d="M666-450h156v-84H666v84Zm-18 90-21 21q-13 13-32 5.833-19-7.166-19-25.833v-206q0-24.3 17.35-41.65Q610.7-624 635-624h218q24.3 0 41.65 17.35Q912-589.3 912-565v146q0 24.3-17.35 41.65Q877.3-360 853-360H648ZM279-17q-48.675 0-83.337-34.663Q161-86.325 161-135v-690q0-48.675 34.663-83.338Q230.325-943 279-943h402q48.675 0 83.338 34.662Q799-873.675 799-825v153H681v-33H279v450h402v-33h118v153q0 48.675-34.662 83.338Q729.675-17 681-17H279Zm0-166v48h402v-48H279Zm0-594h402v-48H279v48Zm0 0v-48 48Zm0 594v48-48Zm387-267v-84 84Z"/></svg>