<svg xmlns="http://www.w3.org/2000/svg" height="24" viewBox="0 -960 960 960" width="24"><path d="M650.174-450.174h179.652v-99.652H650.174v99.652ZM640-360l-34.695 34.695q-12.826 12.826-29.066 6.131Q560-325.87 560-343.827v-243.172q0-22.088 15.457-37.544Q590.913-640 613.001-640h253.998q22.088 0 37.544 15.457Q920-609.087 920-586.999v173.998q0 22.088-15.457 37.544Q889.087-360 866.999-360H640ZM288.479-22.477q-43.726 0-74.864-31.138-31.138-31.138-31.138-74.864v-703.042q0-43.726 31.138-74.864 31.138-31.138 74.864-31.138h383.042q43.726 0 74.864 31.138 31.138 31.138 31.138 74.864V-680H671.521v-31.521H288.479v463.042h383.042V-280h106.002v151.521q0 43.726-31.138 74.864-31.138 31.138-74.864 31.138H288.479Zm0-146.002v40h383.042v-40H288.479Zm0-623.042h383.042v-40H288.479v40Zm0 0v-40 40Zm0 623.042v40-40Zm361.695-281.695v-99.652 99.652Z"/></svg>