<svg xmlns="http://www.w3.org/2000/svg" height="24" viewBox="0 -960 960 960" width="24"><path d="M702.477-480v-284.522q0-22.087 15.457-37.544 15.457-15.457 37.544-15.457 22.087 0 37.544 15.457 15.457 15.457 15.457 37.544V-480q0 22.087-15.457 37.544-15.457 15.457-37.544 15.457-22.087 0-37.544-15.457-15.457-15.457-15.457-37.544Zm-594.48 284.522v-569.044q0-22.087 15.457-37.544 15.457-15.457 37.544-15.457 22.087 0 37.544 15.457 15.457 15.457 15.457 37.544v569.044q0 22.087-15.457 37.544-15.457 15.457-37.544 15.457-22.087 0-37.544-15.457-15.457-15.457-15.457-37.544ZM405.52-693.001v-71.521q0-22.087 15.457-37.544 15.456-15.457 37.544-15.457 22.087 0 37.544 15.457 15.456 15.457 15.456 37.544v71.521q0 22.088-15.456 37.544Q480.608-640 458.521-640q-22.088 0-37.544-15.457-15.457-15.456-15.457-37.544Zm0 248.479v-70.956q0-22.087 15.457-37.544 15.456-15.457 37.544-15.457 22.087 0 37.544 15.457 15.456 15.457 15.456 37.544v70.956q0 22.087-15.456 37.544-15.457 15.457-37.544 15.457-22.088 0-37.544-15.457-15.457-15.457-15.457-37.544Zm0 249.044v-71.521q0-22.088 15.457-37.544Q436.433-320 458.521-320q22.087 0 37.544 15.457 15.456 15.456 15.456 37.544v71.521q0 22.087-15.456 37.544-15.457 15.457-37.544 15.457-22.088 0-37.544-15.457-15.457-15.457-15.457-37.544Zm296.957 53.001h-53.998q-22.088 0-37.544-15.457-15.457-15.457-15.457-37.544 0-22.087 15.457-37.544 15.456-15.457 37.544-15.457h53.998v-53.998q0-22.088 15.457-37.544 15.457-15.457 37.544-15.457 22.087 0 37.544 15.457 15.457 15.456 15.457 37.544v53.998h53.998q22.088 0 37.544 15.457 15.457 15.457 15.457 37.544 0 22.087-15.457 37.544-15.456 15.457-37.544 15.457h-53.998v53.998q0 22.088-15.457 37.544-15.457 15.457-37.544 15.457-22.087 0-37.544-15.457-15.457-15.456-15.457-37.544v-53.998Z"/></svg>