<svg xmlns="http://www.w3.org/2000/svg" height="24" viewBox="0 -960 960 960" width="24"><path d="M480.296-46q-89.994 0-169.145-34Q232-114 173-173q-59-59-93-138.083-34-79.084-34-169Q46-570 80-649t93-138q59-59 138.083-93 79.084-34 169-34Q570-914 649-880t138 93q59 59 93 138.151 34 79.151 34 169.145V-46H480.296Zm-.422-126Q608-172 698-262t90-218q0-128-90-218t-218-90q-128 0-218 90t-90 218q0 11 1.5 23.5T177-433l103-103 131 110 100-100h-64v-106h245v245H586v-64L415-280 286-392l-69 69q42 69 110.366 110t152.508 41ZM783-122q25 0 40-17t15-38q0-25-17-40t-38-15q-21 0-38 15t-17 40q0 21 17 38t38 17ZM430-480Z"/></svg>