<svg xmlns="http://www.w3.org/2000/svg" height="24" viewBox="0 -960 960 960" width="24"><path d="M480.167-60.782q-86.953 0-163.43-32.913t-133.303-89.739q-56.826-56.826-89.74-133.265-32.912-76.438-32.912-163.348 0-86.91 32.913-163.301 32.913-76.392 89.739-133.218 56.826-56.826 133.265-89.739 76.438-32.913 163.348-32.913 86.91 0 163.301 32.913 76.392 32.913 133.218 89.739 56.826 56.826 89.739 133.303 32.913 76.477 32.913 163.43v419.051H480.167Zm-.238-106.001q130.68 0 221.984-91.304T793.217-480q0-130.609-91.304-221.913T480-793.217q-130.609 0-221.913 91.304T166.783-480q0 16.217 2.152 32.847 2.152 16.63 5.891 31.978L297.39-537.739l131.435 110.435 113.477-113.478h-63.565v-94.696h225.436v225.436h-94.696v-63.565L432.825-297.39l-129.87-112-90.303 90.303q42 69 111.729 110.652 69.728 41.652 155.548 41.652Zm301.767 36.957q21.522 0 35-14.608 13.478-14.609 13.478-33.87 0-21.522-14.608-35.001-14.609-13.478-33.87-13.478-19.261 0-33.87 13.478-14.609 13.479-14.609 35.001 0 19.261 14.609 33.87 14.609 14.608 33.87 14.608ZM440.869-480Z"/></svg>