<svg xmlns="http://www.w3.org/2000/svg" height="20" viewBox="0 -960 960 960" width="20"><path d="M755.789-180q9.211 0 16.711-7.289 7.5-7.29 7.5-16.5 0-9.211-7.289-16.711-7.29-7.5-16.5-7.5-9.211 0-16.711 7.289-7.5 7.29-7.5 16.5 0 9.211 7.289 16.711 7.29 7.5 16.5 7.5ZM480-148q-87.275 0-164.638-41.5Q238-231 191-317l144-145 120 117 219-219v106h20v-140H554v20h106L458-376 337-493 181-337q-17-34-25-69.631-8-35.632-8-73.369 0-69.21 25.891-129.22 25.892-60.01 71.348-105.49 45.457-45.48 105.893-71.385Q411.569-812 480.284-812q68.716 0 128.774 25.905 60.059 25.905 105.574 71.385 45.516 45.48 71.442 105.49Q812-549.21 812-480.265V-148H480Z"/></svg>