<svg xmlns="http://www.w3.org/2000/svg" height="20" viewBox="0 -960 960 960" width="20"><path d="M480-96q-79.376 0-149.188-30Q261-156 208.5-208.5T126-330.958q-30-69.959-30-149.5Q96-560 126-629.5t82.5-122Q261-804 330.958-834q69.959-30 149.5-30Q560-864 629.5-834t122 82.5Q804-699 834-629.5t30 149.235V-96H480Zm0-72q130 0 221-91t91-221q0-130-91-221t-221-91q-130 0-221 91t-91 221q0 26 4 52t13 51l151-151 120 117 141-141h-69v-72h192v192h-72v-70L456-310 336-427 219-309q44 66 113 103.5T480-168Zm287.789 12Q783-156 793.5-166.289q10.5-10.29 10.5-25.5Q804-207 793.711-217.5q-10.29-10.5-25.5-10.5Q753-228 742.5-217.711q-10.5 10.29-10.5 25.5Q732-177 742.289-166.5q10.29 10.5 25.5 10.5ZM457-480Z"/></svg>