<svg xmlns="http://www.w3.org/2000/svg" height="24" viewBox="0 -960 960 960" width="24"><path d="M480-120q-74.7 0-140.4-28.339-65.7-28.34-114.3-76.922-48.6-48.582-76.95-114.257Q120-405.194 120-479.866q0-74.673 28.339-140.41 28.34-65.737 76.922-114.365 48.582-48.627 114.257-76.993Q405.194-840 479.866-840q74.673 0 140.41 28.35t114.365 76.95q48.627 48.6 76.993 114.3Q840-554.7 840-480v360H480Zm0-40q134 0 227-93t93-227q0-134-93-227t-227-93q-134 0-227 93t-93 227q0 28.385 4.538 55.769 4.539 27.385 14.385 53l141.846-141.846 132.769 111L631.461-580H540v-40h160v160h-40v-90.692L455.231-346.923l-131-112L197-331.692Q236.692-255 312.002-207.5 387.311-160 480-160Zm290.769 1.539q12.385 0 21.577-9.193 9.193-9.192 9.193-21.577 0-12.384-9.193-21.577Q783.154-220 770.769-220q-12.384 0-21.577 9.192Q740-201.615 740-189.231q0 12.385 9.192 21.577 9.193 9.193 21.577 9.193ZM474.231-480Z"/></svg>