<svg xmlns="http://www.w3.org/2000/svg" height="24" viewBox="0 -960 960 960" width="24"><path d="M151.869-191.869v-91.001H229v-271.869q0-36.348 9.695-71.337 9.696-34.989 29.087-66.142l68.131 68.131q-7.956 16.478-11.935 33.925Q320-572.715 320-554.739v271.869h240.109L49.782-793.196l58.631-58.391 747.239 747.239-58.63 58.63-147.674-146.151H151.869ZM731-348.022l-91-91v-115.717q0-66-47-113t-113-47q-24.087 0-46.533 6.804-22.445 6.805-41.249 21.131l-66.37-66.609q19.761-14.805 41.804-26.207 22.044-11.402 46.848-16.924v-91.587h131v91.587q83.109 20.24 134.305 87.848Q731-641.087 731-554.739v206.717Zm-290.826-55.021Zm40.065 333.804q-34.184 0-58.527-24.273-24.342-24.272-24.342-58.357h165.5q0 34.195-24.273 58.413-24.273 24.217-58.358 24.217Zm35.87-493.674Z"/></svg>