<svg xmlns="http://www.w3.org/2000/svg" height="20" viewBox="0 -960 960 960" width="20"><path d="M232-225.231v-32h32.615v-276.923q0-31 10.039-59.765 10.038-28.766 26.115-53.85L324.539-624q-13.462 19.508-20.693 42.72-7.231 23.211-7.231 47.126v276.923h350.154l-506-502.923 23.308-24.308 633.385 634.385-23.308 23.308-96.923-98.462H232Zm463.385-130.461-32-32.001v-146.461q0-76.923-53.231-130.154-53.231-53.23-130.154-53.23-30.135 0-57.952 9.461-27.817 9.462-51.663 27.385l-22.77-23.283q22.308-19.102 49.039-30.025 26.731-10.923 55.346-15.154V-824h56v74.846q81.923 9.077 134.654 70.462 52.731 61.384 52.731 144.538v178.462Zm-223.693-75.846Zm7.959 310.923q-23.497 0-39.882-16.631-16.384-16.631-16.384-39.985h113.23q0 23.846-16.733 40.231t-40.231 16.385Zm37.734-414.077Z"/></svg>