<svg xmlns="http://www.w3.org/2000/svg" height="24" viewBox="0 -960 960 960" width="24"><path d="M180.001-204.616v-59.998h72.308v-298.463q0-28 6.769-55.632 6.769-27.633 20.307-52.675L324.769-626q-6.231 15.254-9.347 30.985-3.115 15.73-3.115 31.938v298.463h291.08l-522-520.462 42.152-42.153 713.691 713.69-42.153 42.153-134.461-133.23H180.001Zm527.69-153.23-59.998-59.999v-145.232q0-69.462-49.116-118.577Q549.462-730.77 480-730.77q-29.649 0-57.017 9.731-27.368 9.731-49.292 29.193l-43.383-43.384q21.154-18.308 46.269-31.269 25.116-12.962 53.424-18.577v-74.923h99.998v74.923q78.462 16.538 128.077 78.73 49.615 62.192 49.615 143.269v205.231ZM457.847-409.77Zm22.085 317.461q-29.855 0-51.047-21.24-21.192-21.24-21.192-51.067h144.614q0 29.923-21.26 51.115-21.26 21.192-51.115 21.192Zm30.76-462.537Z"/></svg>