<svg xmlns="http://www.w3.org/2000/svg" height="20" viewBox="0 -960 960 960" width="20"><path d="M183.869-207.869v-83.001H229v-231.869q0-44.348 14.695-84.837 14.696-40.489 40.087-75.642l61.131 61.131q-15.956 21.478-24.435 47.175Q312-549.215 312-522.739v231.869h256.109L83.782-775.196l53.631-54.391 689.239 690.239-53.63 53.63-121.674-122.151H183.869ZM731-342.022l-83-83v-97.717q0-70-49-119t-119-49q-20.925 0-40.451 4.804-19.527 4.805-38.331 14.131l-60.37-61.123q19.761-13.291 41.304-21.693 21.544-8.402 44.348-12.924v-104.587h107v104.587q88.109 16.24 142.805 85.348Q731-613.087 731-522.739v180.717Zm-290.826-77.021Zm39.853 333.804q-30.972 0-52.815-21.923-21.842-21.922-21.842-52.707h149.5q0 31.195-21.985 52.913-21.986 21.717-52.858 21.717Zm45.082-463.674Z"/></svg>