<svg xmlns="http://www.w3.org/2000/svg" height="20" viewBox="0 -960 960 960" width="20"><path d="M826.233-470h-62.116q-4.3 0-7.209-2.885-2.908-2.885-2.908-7.15 0-4.265 2.908-7.115 2.909-2.85 7.209-2.85h62.116v-62q0-4.25 2.919-7.125Q832.07-562 836.246-562q4.175 0 6.965 2.875Q846-556.25 846-552v62h61.789q4.161 0 7.186 2.825 3.025 2.824 3.025 7 0 4.175-2.875 7.058-2.875 2.884-7.125 2.884h-62v62.116q0 4.3-2.885 7.208-2.885 2.909-7.15 2.909-3.965 0-6.848-2.875-2.884-2.875-2.884-7.125v-62ZM442-314q-21.45 0-36.725-15.275Q390-344.55 390-366v-228q0-21.45 15.275-36.725Q420.55-646 442-646h222q4.25 0 7.125 2.825 2.875 2.824 2.875 7 0 4.175-2.875 7.175T664-626H442q-14 0-23 9t-9 23v228q0 14 9 23t23 9h180q14 0 23-9t9-23v-104H544q-4.25 0-7.125-2.825-2.875-2.824-2.875-7 0-4.175 2.875-7.175t7.125-3h120q4.25 0 7.125 2.875T674-480v114q0 21.45-15.275 36.725Q643.45-314 622-314H442ZM110-636v182h124v-182q0-4.25 2.825-7.125 2.824-2.875 7-2.875 4.175 0 7.175 2.875t3 7.125v182h38q4.25 0 7.125 2.825 2.875 2.824 2.875 7 0 4.175-2.875 7.175T292-434h-38v110q0 4.25-2.825 7.125-2.824 2.875-7 2.875-4.175 0-7.175-2.875T234-324v-110H100.263q-4.213 0-7.238-2.875Q90-439.75 90-444v-192q0-4.25 2.825-7.125 2.824-2.875 7-2.875 4.175 0 7.175 2.875t3 7.125Z"/></svg>