<svg xmlns="http://www.w3.org/2000/svg" height="24" viewBox="0 -960 960 960" width="24"><path d="M807.692-460h-60q-8.5 0-14.25-5.758-5.75-5.757-5.75-14.269t5.75-14.242q5.75-5.731 14.25-5.731h60v-60q0-8.5 5.758-14.25t14.269-5.75q8.512 0 14.243 5.75t5.731 14.25v60h59.999q8.5 0 14.251 5.758 5.75 5.757 5.75 14.269t-5.75 14.242Q916.192-460 907.692-460h-59.999v60q0 8.5-5.758 14.25t-14.27 5.75q-8.511 0-14.242-5.75-5.731-5.75-5.731-14.25v-60Zm-360 160q-26.654 0-45.634-18.981-18.981-18.98-18.981-45.634v-230.77q0-26.654 18.981-45.634Q421.038-660 447.692-660h195.385q8.5 0 14.25 5.758 5.75 5.757 5.75 14.269t-5.75 14.242q-5.75 5.731-14.25 5.731H447.692q-10.769 0-17.692 6.923t-6.923 17.692v230.77q0 10.769 6.923 17.692T447.692-340h150.77q10.769 0 17.692-6.923t6.923-17.692V-460h-60q-8.5 0-14.25-5.758-5.75-5.757-5.75-14.269t5.75-14.242q5.75-5.731 14.25-5.731h80q8.5 0 14.25 5.75t5.75 14.25v115.385q0 26.654-18.981 45.634Q625.115-300 598.462-300h-150.77ZM112.308-640v180h119.999v-180q0-8.5 5.758-14.25t14.27-5.75q8.511 0 14.242 5.75 5.731 5.75 5.731 14.25v180h20q8.5 0 14.25 5.758 5.75 5.757 5.75 14.269t-5.75 14.242q-5.75 5.731-14.25 5.731h-20v100q0 8.5-5.758 14.25T252.281-300q-8.512 0-14.243-5.75T232.307-320v-100h-140q-8.5 0-14.25-5.75T72.308-440v-200q0-8.5 5.758-14.25t14.27-5.75q8.511 0 14.242 5.75 5.731 5.75 5.731 14.25Z"/></svg>