<svg xmlns="http://www.w3.org/2000/svg" height="24" viewBox="0 -960 960 960" width="24"><path d="M220.782-264.173h-107q-22.087 0-37.544-15.457-15.456-15.457-15.456-37.544V-520q0-54.391 35-93.131 35-38.739 86.695-44.392h3.739L61.521-781.653q-13.13-13.131-12.848-30.826.282-17.696 13.848-31.261 12.695-12.696 31.158-12.696 18.462 0 31.494 12.696l719.133 719.567q13.13 13.13 12.847 30.826-.282 17.696-13.472 30.826-13.19 13.13-31.326 13.13-18.137 0-31.267-13.13L676.566-167.043l62.652-62.217v32.086q0 43.726-31.138 74.864-31.137 31.138-74.863 31.138H326.783q-43.726 0-74.863-31.138-31.138-31.138-31.138-74.864v-66.999Zm106.001-45.52v116.476h306.434v-17.305l-99.736-99.171H326.783Zm501.697 43.824L723.609-370.174h69.608V-520q0-13.609-8.674-23.413-8.673-9.804-22.282-9.804H541.132L435.13-659.218h326.566q58.447 0 97.985 40.435 39.537 40.435 39.537 98.783v202.826q0 17.565-11.782 32.74-11.783 15.174-33.305 18.565H828.48ZM633.217-659.218v-93.999H341.132L234.565-859.218h451.653q22.087 0 37.544 15.456 15.456 15.457 15.456 37.544v147H633.217ZM166.783-370.174h53.999v-45.52h206.697L290.522-553.217h-92.218q-13.396 0-22.459 9.804-9.062 9.804-9.062 23.413v149.826ZM720-442.477q18.922 0 31.722-12.8t12.8-31.722q0-18.922-12.8-31.722T720-531.521q-18.922 0-31.722 12.8t-12.8 31.722q0 18.922 12.8 31.722t31.722 12.8Zm-521.696-110.74h92.218-123.739 31.521Zm563.957 0h30.956-252.085 221.129Z"/></svg>