<svg xmlns="http://www.w3.org/2000/svg" height="20" viewBox="0 -960 960 960" width="20"><path d="M330.783-293.693v96.476h298.434v-12.305l-84.736-84.171H330.783Zm513.697 40.824h7.651q21.522-3.391 34.305-19.565 12.782-16.175 12.782-34.21V-515q0-58.348-41.037-100.283-41.038-41.935-99.485-41.935H441.13l403.35 404.349ZM736.957-448.435q-18.921 0-32.722-13.8-13.8-13.8-13.8-32.722t13.8-32.722q13.801-13.8 32.722-13.8 18.922 0 32.722 13.8t13.8 32.722q0 18.922-13.8 32.722t-32.722 13.8Zm2.261-250.783H399.13l-160.565-160h445.989q21.751 0 38.208 16.456 16.456 16.457 16.456 38.296v105.248ZM220.782-251.173H115.534q-21.839 0-38.296-16.457-16.456-16.457-16.456-39.014V-515q0-54.391 35.875-94.631 35.875-40.239 88.82-45.892h-1.261L63.521-775.653q-13.13-13.552-12.848-31.809.282-18.257 13.848-32.278 13.695-13.696 32.158-13.196 18.462.5 31.494 14.196l711.133 710.567q13.13 13.559 12.847 31.826-.282 18.267-13.472 31.826-14.19 14.13-32.326 14.13-18.137 0-32.267-14.13l-98.522-99.522 63.652-64.217v27.086q0 45.376-32.312 77.689-32.313 32.313-77.689 32.313H330.783q-45.376 0-77.688-32.313-32.313-32.313-32.313-77.689v-49.999Z"/></svg>