<svg xmlns="http://www.w3.org/2000/svg" height="20" viewBox="0 -960 960 960" width="20"><path d="M324-344v140h312v-1L497-344H324Zm486 77h28q17 0 29.5-12.5t12.5-29.97V-515q0-51-36-87t-87-36H440l370 371Zm-90-182q-17 0-29.5-12.5T678-491q0-17 12.5-29.5T720-533q17 0 29.5 12.5T762-491q0 17-12.5 29.5T720-449Zm0-231H398L238-840h440.337Q695-840 707.5-827.5t12.5 29.252V-680ZM240-267H121.752Q105-267 92.5-279.5T80-309.47V-515q0-51 35.875-87T203-638h1L85-757q-12-12.421-12-28.982Q73-802.544 86-816q12-12 29-11.5t29 12.5l671 671q12 12.429 12 29 0 16.571-12 29-13 13-29.5 13T756-86l-94-95 58-58v35q0 34.65-24.675 59.325Q670.65-120 636-120H324q-34.65 0-59.325-24.675Q240-169.35 240-204v-63Z"/></svg>