<svg xmlns="http://www.w3.org/2000/svg" height="20" viewBox="0 -960 960 960" width="20"><path d="M206-239h-95.248Q85-239 65.5-258.5 46-278 46-304.47V-515q0-57 35.875-100.5T172-669h-3L47-790q-14-14.421-13.5-33.982Q34-843.544 48-858q15-15 34.587-14.5Q102.174-872 116-857l742 741q14 14.429 13.5 34-.5 19.571-14.605 34-15.106 15-34.5 15Q803-33 788-48L686-151l68-69v21q0 53.625-38.188 91.812Q677.625-69 624-69H336q-53.625 0-91.812-38.188Q206-145.375 206-199v-40Zm130-16v63h288v-21l-43-42H336Zm535 13L743-369h41v-142q0-12.275-5.5-21.638Q773-542 761-542H572L442-672h318q64.175 0 109.088 46.5Q914-579 914-515v210.53Q914-286 901-267t-38 25h8ZM624-672v-72H370L239-874h450.22q25.78 0 45.28 19.5T754-809v137H624ZM176-369h30v-16h246L296-542h-92q-11.9 0-19.95 9.362Q176-523.275 176-511v142Zm544-49q20.4 0 35.2-14.8Q770-447.6 770-468q0-20.4-14.8-35.2Q740.4-518 720-518q-20.4 0-35.2 14.8Q670-488.4 670-468q0 20.4 14.8 35.2Q699.6-418 720-418ZM204-542h92-120 28Zm557 0h23-212 189Z"/></svg>