<svg xmlns="http://www.w3.org/2000/svg" height="20" viewBox="0 -960 960 960" width="20"><path d="m690-159-15-14 83-83H479v-20h279l-83-83 15-14 107 107-107 107ZM213-441v-28h28v28h-28Zm212.667 0Q387-441 360-468.236 333-495.471 333-534v-168q0-38.529 27.333-65.764 27.334-27.236 66-27.236Q465-795 492-767.764q27 27.235 27 65.764v168q0 38.529-27.333 65.764-27.334 27.236-66 27.236Zm278 0Q665-441 638-468.236 611-495.471 611-534v-168q0-38.529 27.333-65.764 27.334-27.236 66-27.236Q743-795 770-767.764q27 27.235 27 65.764v168q0 38.529-27.333 65.764-27.334 27.236-66 27.236ZM426-461q30.417 0 51.708-21.292Q499-503.583 499-534v-168q0-30.417-21.292-51.708Q456.417-775 426-775q-30.417 0-51.708 21.292Q353-732.417 353-702v168q0 30.417 21.292 51.708Q395.583-461 426-461Zm278 0q30.417 0 51.708-21.292Q777-503.583 777-534v-168q0-30.417-21.292-51.708Q734.417-775 704-775q-30.417 0-51.708 21.292Q631-732.417 631-702v168q0 30.417 21.292 51.708Q673.583-461 704-461Z"/></svg>