<svg xmlns="http://www.w3.org/2000/svg" height="24" viewBox="0 -960 960 960" width="24"><path d="m690-143-20-19 89-90H479v-28h280l-89-90 20-19 123 123-123 123ZM197-449v-52h52v52h-52Zm212.889 0Q368-449 338.5-478.579 309-508.157 309-550v-160q0-41.843 29.611-71.421Q368.222-811 410.111-811 452-811 481.5-781.421 511-751.843 511-710v160q0 41.843-29.611 71.421Q451.778-449 409.889-449Zm302 0Q670-449 640.5-478.579 611-508.157 611-550v-160q0-41.843 29.611-71.421Q670.222-811 712.111-811 754-811 783.5-781.421 813-751.843 813-710v160q0 41.843-29.611 71.421Q753.778-449 711.889-449ZM410-477q30.417 0 51.708-21.292Q483-519.583 483-550v-160q0-30.417-21.292-51.708Q440.417-783 410-783q-30.417 0-51.708 21.292Q337-740.417 337-710v160q0 30.417 21.292 51.708Q379.583-477 410-477Zm302 0q30.417 0 51.708-21.292Q785-519.583 785-550v-160q0-30.417-21.292-51.708Q742.417-783 712-783q-30.417 0-51.708 21.292Q639-740.417 639-710v160q0 30.417 21.292 51.708Q681.583-477 712-477Z"/></svg>