<svg xmlns="http://www.w3.org/2000/svg" height="20" viewBox="0 -960 960 960" width="20"><path d="M172.782-163.172v-112.349q0-28.258 15.436-55.165 15.437-26.908 42.303-43.227 56.696-32.566 120.434-50.131Q414.692-441.609 480-441.609q17.163 0 32.326 1.217 15.163 1.218 32.326 3.652v273.568h-371.87ZM480-489.609q-68.479 0-115.849-47.37-47.369-47.37-47.369-115.849 0-68.478 47.369-115.565 47.37-47.088 115.849-47.088 68.479 0 115.849 47.088 47.369 47.087 47.369 115.565 0 68.479-47.369 115.849-47.37 47.37-115.849 47.37ZM688.652-20.303v-212.349h-72v-254.696H875.87l-72 168h72.565L688.652-20.303Z"/></svg>