<svg xmlns="http://www.w3.org/2000/svg" height="24" viewBox="0 -960 960 960" width="24"><path d="M180.001-187.694v-88.922q0-29.384 15.962-54.422 15.961-25.038 42.653-38.5 59.308-29.077 119.654-43.615T480-427.691q23.462 0 46.924 2.365 23.461 2.365 46.923 7.096v60.614q-23.462-5.538-46.923-7.808-23.462-2.269-46.924-2.269-54.702 0-108.428 13.115-53.726 13.116-105.418 38.577-12.077 6.539-19.115 16.885Q240-288.77 240-276.616v28.923h333.847v59.999H180.001ZM240-247.693h333.847H240Zm240-244.616q-57.749 0-98.874-41.124-41.125-41.125-41.125-98.874 0-57.75 41.125-98.874 41.125-41.125 98.874-41.125 57.749 0 98.874 41.125 41.125 41.124 41.125 98.874 0 57.749-41.125 98.874-41.125 41.124-98.874 41.124Zm0-59.998q33 0 56.5-23.5t23.5-56.5q0-33-23.5-56.5t-56.5-23.5q-33 0-56.5 23.5t-23.5 56.5q0 33 23.5 56.5t56.5 23.5Zm0-80ZM730.001-37.695v-176.152H661.54v-216.152h202.305l-76.538 152.307h75.384L730.001-37.695Z"/></svg>