<svg xmlns="http://www.w3.org/2000/svg" height="20" viewBox="0 -960 960 960" width="20"><path d="M232-247.384v-45.847q0-13.769 9.423-29.346t26.808-26.5q49.615-28.154 103.807-43.231Q426.231-407.385 480-407.385q25.923 0 49.846 3.231t49.846 9.692v147.078H232Zm248-257.231q-43.5 0-73.75-30.25T376-608.615q0-43.501 30.25-73.751 30.25-30.25 73.75-30.25t73.75 30.25Q584-652.116 584-608.615q0 43.5-30.25 73.75T480-504.615Zm236 381.231v-144.308h-48.923V-460h164.616l-65.077 152.615h62.769L716-123.384Z"/></svg>