<svg xmlns="http://www.w3.org/2000/svg" height="20" viewBox="0 -960 960 960" width="20"><path d="M244-264v-32q0-11 8.5-24.5T277-344q48-27 99.808-41.5Q428.617-400 479.841-400 508-400 534-396.25t54 10.964V-365q-28-8-53.5-11.5t-54.237-3.5q-51.889 0-100.576 13Q331-354 291-330q-13 8-20 17t-7 17v12h324v20H244Zm20-20h324-324Zm216-228q-38.55 0-65.275-26.725Q388-565.45 388-604q0-38.55 26.725-65.275Q441.45-696 480-696q38.55 0 65.275 26.725Q572-642.55 572-604q0 38.55-26.725 65.275Q518.55-512 480-512Zm.212-20Q510-532 531-553.212q21-21.213 21-51Q552-634 530.788-655q-21.213-21-51-21Q450-676 429-654.788q-21 21.213-21 51Q408-574 429.212-553q21.213 21 51 21ZM480-604Zm242 458v-130h-42v-178h142l-63 148h60l-97 160Z"/></svg>