<svg xmlns="http://www.w3.org/2000/svg" height="24" viewBox="0 -960 960 960" width="24"><path d="M626.999-107.999v-120h-120v-106.002h120v-120h106.002v120h120v106.002h-120v120H626.999Zm-524.522-92.999v-106.001h106.002v106.001H102.477Zm186.002 0v-106.001h140.39q-1.304 28.348 1.457 53.566 2.761 25.217 13.109 52.435H288.479ZM102.477-378.521v-106.001h106.002v106.001H102.477Zm186.002 0v-106.001h241.694q-27.522 20.522-48 47.305-20.479 26.783-33.348 58.696H288.479ZM102.477-555.478v-106.001h106.002v106.001H102.477Zm186.002 0v-106.001h489.044v106.001H288.479ZM102.477-733.001v-106.001h106.002v106.001H102.477Zm186.002 0v-106.001h489.044v106.001H288.479Z"/></svg>