<svg xmlns="http://www.w3.org/2000/svg" height="20" viewBox="0 -960 960 960" width="20"><path d="M622.999-130.999v-108h-108v-98.002h108v-108h98.002v108h108v98.002h-108v108h-98.002Zm-496.522-21.999v-98.001h98.002v98.001h-98.002Zm170.002 0v-98.001h123.39q3.994 26.348 10.106 50.566 6.112 24.217 21.46 47.435H296.479ZM126.477-338.521v-98.001h98.002v98.001h-98.002Zm170.002 0v-98.001h168.694q-16.522 21.522-28 45.805-11.479 24.283-16.348 52.196H296.479ZM126.477-523.478v-98.001h98.002v98.001h-98.002Zm170.002 0v-98.001h537.044v98.001H296.479ZM126.477-709.001v-98.001h98.002v98.001h-98.002Zm170.002 0v-98.001h537.044v98.001H296.479Z"/></svg>