<svg xmlns="http://www.w3.org/2000/svg" height="24" viewBox="0 -960 960 960" width="24"><path d="M557.739-149.653v-91.609q88.87-22.044 144.435-93.217 55.565-71.174 55.565-163.478 0-92.305-55.565-163.478-55.565-71.174-144.435-93.217v-91.61Q684-822.784 765.109-724.718q81.109 98.065 81.109 226.761 0 128.695-81.109 226.761Q684-173.131 557.739-149.653Zm-80-8.651-210.74-210.74H113.782v-255.827h153.217l210.74-210.74v677.307Zm80-183.175v-312.956q49.261 18.043 78.87 61.195t29.609 96.283q0 52.695-29.609 95.347-29.609 42.653-78.87 60.131ZM20.782-680v-259.218H280v106.001H126.783V-680H20.782ZM680-20.782v-106.001h153.217V-280h106.001v259.218H680Z"/></svg>