<svg xmlns="http://www.w3.org/2000/svg" height="20" viewBox="0 -960 960 960" width="20"><path d="M722-84v-134H270q-22.7 0-37.35-14.65Q218-247.3 218-270v-452H84.263q-4.213 0-7.238-2.825-3.025-2.824-3.025-7 0-4.175 2.875-7.044 2.875-2.869 7.125-2.869h134v-134.196q0-4.278 2.885-7.172t7.15-2.894q4.265 0 7.115 2.875Q238-880.25 238-876v606q0 12 10 22t22 10h606q4.25 0 7.125 2.825 2.875 2.824 2.875 7 0 4.175-2.875 7.044-2.875 2.869-7.125 2.869H742v134.196q0 4.278-2.885 7.172T731.965-74q-4.265 0-7.115-2.875Q722-79.75 722-84Zm0-174v-432q0-12-10-22t-22-10H258v-20h432q22.7 0 37.35 14.65Q742-712.7 742-690v432h-20Z"/></svg>