<svg xmlns="http://www.w3.org/2000/svg" height="20" viewBox="0 -960 960 960" width="20"><path d="M780.693-105.386 635.615-250.079 480-97.464 94.464-480l155.615-155.615-136.846-136.231 37.768-36.769 666.46 666.461-36.768 36.768ZM599.847-286.847l-67.923-67.924L480-301.847 442.847-339l52.308-52.924-62.077-62.077H301.847v-51.998h79.233l-94.233-93.848L168-480l312 312 119.847-118.847Zm123.152-50.616-36.768-35.768L792-480 480-792 373.231-686.231l-35.768-36.768L480-865.536 865.536-480 722.999-337.463ZM617.384-442.078l36.538-37.537-178.153-178.153-37.538 36.538 179.153 179.152Zm-89.077-90.076Zm-84.46 88.307Z"/></svg>