<svg xmlns="http://www.w3.org/2000/svg" height="20" viewBox="0 -960 960 960" width="20"><path d="M793.384-120.769 635.231-278.154 480-125.923 122.923-480l155.231-155.231-140.693-140.461L161-798.231l654.923 654.923-22.539 22.539ZM613.692-300.692l-74.846-74.846L480-315.692 456.692-339l59.615-59.846L451.154-464H315.692v-32h103.461L300.692-613.692 168-480l312 312 133.692-132.692ZM708-350.923l-22.538-21.539L792-480 480-792 372.462-685.462 350.923-708 480-837.077 837.077-480 708-350.923Zm-100.231-99.231 28.077-29.077-164.307-164.308-29.078 28.077 165.308 165.308Zm-82.154-83.154Zm-67.923 75.616Z"/></svg>