<svg xmlns="http://www.w3.org/2000/svg" height="24" viewBox="0 -960 960 960" width="24"><path d="m396-337.174 84-84 84 84 62.218-62.217-84-84 84-84L564-629.609l-84 84-84-84-62.218 62.218 84 84-84 84L396-337.174Zm84 276.958Q332.652-96.805 236.717-226.954 140.782-357.103 140.782-516v-257.262L480-899.784l339.218 126.522V-516q0 158.897-95.935 289.046Q627.348-96.804 480-60.216Zm0-110.002q100.043-36.391 166.63-132 66.587-95.608 66.587-213.519v-184.176L480-787.087l-233.217 87.448V-516q0 118.174 66.587 213.782 66.587 95.609 166.63 132Zm0-308.652Z"/></svg>