<svg xmlns="http://www.w3.org/2000/svg" height="24" viewBox="0 -960 960 960" width="24"><path d="M480-120q-117.077 0-198.539-81.461Q200-282.923 200-400q0-89.923 50.077-177.385 50.077-87.461 137.077-154.692 16.615-13.462 35.5-4.193 18.885 9.27 18.885 29.347v15.846q0 39.385 36.192 71.231Q513.923-588 561-588q18.538 0 36.346-6.346 17.808-6.347 33.654-18.039 8-6.154 17.423-6.346 9.423-.192 17.346 6.269 44.539 39.616 69.385 95.385Q760-461.308 760-400q0 117.077-81.461 198.539Q597.077-120 480-120ZM240-400q0 68.923 36.769 126.577 36.769 57.654 98.846 86.5-7.923-11.923-11.769-24.769Q360-224.539 360-238q0-23.539 9.307-44.615 9.308-21.077 26.154-37.924L480-403.846l85.308 83.307q16.846 16.847 25.769 37.924Q600-261.539 600-238q0 13.461-3.846 26.308-3.846 12.846-11.769 24.769 62.077-28.846 98.846-86.5Q720-331.077 720-400q0-50-18.5-94.5T648-574q-20 13-42 19.5t-45 6.5q-62.769 0-108.269-41-45.5-41-51.731-102.538-78 65.23-119.5 140.884Q240-475 240-400Zm240 52-57 56q-11 11-17 25t-6 29q0 32 23.5 55t56.5 23q33 0 56.5-23t23.5-55q0-16-6-29.5T537-292l-57-56Z"/></svg>