<svg xmlns="http://www.w3.org/2000/svg" height="24" viewBox="0 -960 960 960" width="24"><path d="M513-328.692q-39 .23-76.269-8.347-37.269-8.576-64.192-35.5-21.539-21.538-33.193-49.23-11.654-27.693-11.654-58 0-13.077 1.77-24.885 1.769-11.807 6.307-23.884 2.462-7.385-.5-14.385-2.961-7-9.346-9.692-6.615-2.693-13.5.384t-9.346 10.462q-5 15-7.885 30.384Q292.308-496 292.308-480q0 37.692 14.346 71.885 14.346 34.192 40.807 60.654 30.847 31.846 73.885 43 43.038 11.153 87.423 11.384l-38.538 38.538q-5.154 5.154-5.539 12.154-.384 7 5.539 12.924 5.923 5.923 12.538 5.923 6.616 0 12.539-5.923l60.923-60.924q9.692-9.692 9.692-22.615 0-12.923-9.692-22.615l-60.923-60.924q-5.154-5.153-12.154-5.538-7-.385-12.923 5.538-5.923 5.924-5.923 12.539 0 6.615 5.923 12.539L513-328.692Zm-65.461-302.846q39 0 76.384 8.577 37.385 8.576 64.308 35.5 21.538 21.538 33.192 49.23 11.654 27.693 11.654 58 0 13.077-1.769 24.885-1.77 11.807-6.308 23.884-2.462 7.385.5 14.5 2.961 7.116 9.346 9.808 6.616 2.693 13.5 0 6.885-2.692 9.346-10.077 5-15 7.885-30.884Q668.462-464 668.462-480q0-37.692-14.116-71.885-14.115-34.192-40.807-60.884-31.077-31.846-74.116-42.885-43.038-11.038-87.423-11.038l38.769-38.769q4.923-5.154 5.308-12.154.385-7-5.538-12.924-5.924-5.923-12.539-5.923-6.615 0-12.539 5.923l-60.923 60.924q-9.692 9.692-9.692 22.615 0 12.923 9.692 22.615l60.923 60.924q5.154 5.153 12.154 5.538 7 .385 12.924-5.538 5.923-5.924 5.923-12.539 0-6.615-5.923-12.539l-43-42.999ZM480-120q-74.539 0-140.231-28.423t-114.308-77.038q-48.615-48.616-77.038-114.308Q120-405.461 120-480t28.423-140.231q28.423-65.692 77.038-114.308 48.616-48.615 114.308-77.038Q405.461-840 480-840t140.231 28.423q65.692 28.423 114.308 77.038 48.615 48.616 77.038 114.308Q840-554.539 840-480t-28.423 140.231q-28.423 65.692-77.038 114.308-48.616 48.615-114.308 77.038Q554.539-120 480-120Zm0-40q134 0 227-93t93-227q0-134-93-227t-227-93q-134 0-227 93t-93 227q0 134 93 227t227 93Zm0-320Z"/></svg>