<svg xmlns="http://www.w3.org/2000/svg" height="20" viewBox="0 -960 960 960" width="20"><path d="M522-321q-42-1-83.5-8.5T367-367q-22-22-34.5-51.782Q320-448.564 320-481q0-13.737 1.8-25.987 1.8-12.25 6.2-25.013 0-4-1.656-6.323-1.656-2.324-4.594-3.001-2.75-.676-5.375 1.013t-3.625 5.743Q309-522 306.5-508.13 304-494.261 304-480q0 35 13.212 67.416T355-355q33 33 78 42t91 8l-55 55q-2 2.364-2.5 5.682Q466-241 469-238q3 3 5.818 3 2.818 0 6.182-3l55.789-55.789Q545-302 545-312.182T537-330l-55-56q-2.364-2-5.682-2.5Q473-389 470-386q-3 3-3 5.818 0 2.818 3 6.182l52 53Zm-83-318q42.699 0 83.849 8Q564-623 594-593q22 22 34.5 51.782Q641-511.436 641-479q0 13-1.8 25.5T633-428q0 4 1.5 6t4.587 2q2.913 0 5.897-1.324 2.985-1.325 4.11-5.703Q653-440 655-453q2-13 2-27 0-35-14.5-67.5T604-604q-32-33-77.5-42t-91.5-8l56-56q3-2.364 3.5-5.682Q495-719 492-722q-3-3-5.818-3-2.818 0-6.182 3l-55.789 55.789Q416-658 416-647.818T424-630l56 56q2.364 2 5.682 2.5Q489-571 492-574q3-3 3-5.818 0-2.818-3-6.182l-53-53Zm41.276 491Q412-148 351.5-174q-60.5-26-106-71.5T174-351.458q-26-60.459-26-129Q148-549 174-609t71.5-105.5Q291-760 351.458-786q60.459-26 129-26Q549-812 609-786t105.5 71.5Q760-669 786-608.776q26 60.225 26 128.5Q812-412 786-351.5q-26 60.5-71.5 106T608.776-174q-60.225 26-128.5 26ZM480-168q130 0 221-91t91-221q0-130-91-221t-221-91q-130 0-221 91t-91 221q0 130 91 221t221 91Zm0-312Z"/></svg>