<svg xmlns="http://www.w3.org/2000/svg" height="20" viewBox="0 -960 960 960" width="20"><path d="M513-324.692q-39-.77-77.269-8.847-38.269-8.076-66.192-36-21.539-21.538-33.693-50.512-12.154-28.975-12.154-60.718 0-12.814 1.57-24.372 1.569-11.557 5.507-23.397.462-5.385-1.656-9.209-2.118-3.823-6.44-5.192-4.365-1.369-8.375.897t-5.471 7.705q-3.75 12.568-6.135 26.322-2.384 13.754-2.384 28.015 0 35.692 13.558 68.8 13.558 33.109 38.595 58.739 31.847 31.846 74.885 42 43.038 10.153 87.423 9.384l-48.538 48.538q-3.154 3.518-3.539 8.336-.384 4.818 3.539 8.742 3.923 3.923 8.356 3.923 4.434 0 8.721-3.923l56.712-56.713q8.903-8.903 8.903-20.008 0-11.105-8.692-19.433l-55.923-56.924q-3.518-3.153-8.336-3.538-4.818-.385-8.741 3.538-3.923 3.924-3.923 8.357 0 4.434 3.923 8.721L513-324.692Zm-65.461-310.846q39.698 0 77.734 8.577 38.035 8.576 65.958 36.5 21.538 21.538 33.692 50.512 12.154 28.975 12.154 60.718 0 12.077-1.569 23.885-1.57 11.807-5.508 23.884-.462 5.385 1.5 9 1.961 3.616 6.433 4.308 4.529.693 8.898-1.324t5.955-7.78q3.906-12.973 5.791-25.857Q660.462-466 660.462-480q0-35.692-14.616-68.885-14.615-33.192-39.307-57.884-31.077-31.846-74.616-41.885-43.538-10.038-87.923-9.038l49.769-49.769q3.923-3.518 4.308-8.336.385-4.818-3.538-8.742-3.924-3.923-8.357-3.923-4.434 0-8.721 3.923l-56.712 56.713q-8.903 8.903-8.903 20.008 0 11.105 8.692 19.433l56.923 56.924q3.518 3.153 8.336 3.538 4.818.385 8.742-3.538 3.923-3.924 3.923-8.357 0-4.434-3.923-8.721l-47-46.999ZM480.276-136q-70.815 0-133.507-26.923-62.692-26.923-109.808-74.038-47.115-47.116-74.038-109.766Q136-409.378 136-480.458q0-71.081 26.923-133.273 26.923-62.192 74.038-109.308 47.116-47.115 109.766-74.038Q409.378-824 480.458-824q71.081 0 133.273 26.923 62.192 26.923 109.308 74.038 47.115 47.116 74.038 109.533Q824-551.09 824-480.276q0 70.815-26.923 133.507-26.923 62.692-74.038 109.808-47.116 47.115-109.533 74.038Q551.09-136 480.276-136ZM480-168q130 0 221-91t91-221q0-130-91-221t-221-91q-130 0-221 91t-91 221q0 130 91 221t221 91Zm0-312Z"/></svg>