<svg xmlns="http://www.w3.org/2000/svg" height="20" viewBox="0 -960 960 960" width="20"><path d="M400-404h80q6.8 0 11.4-4.626 4.6-4.626 4.6-11.464V-524h80q6.8 0 11.4-4.548 4.6-4.549 4.6-11.273V-644h68q6.8 0 11.4-4.547 4.6-4.547 4.6-11.269 0-6.723-4.6-11.453Q666.8-676 660-676h-84.237q-6.263 0-11.013 4.626T560-659.91V-556h-80q-6.8 0-11.4 4.626-4.6 4.626-4.6 11.464V-436h-80q-6.8 0-11.4 4.548-4.6 4.549-4.6 11.273V-316h-68q-6.8 0-11.4 4.547-4.6 4.547-4.6 11.269 0 6.723 4.6 11.453Q293.2-284 300-284h84.237q6.263 0 11.013-4.626T400-300.09V-404ZM240.615-184q-24.315 0-40.465-16.15Q184-216.3 184-240.615v-478.77q0-24.315 16.15-40.465Q216.3-776 240.615-776h478.77q24.315 0 40.465 16.15Q776-743.7 776-719.385v478.77q0 24.315-16.15 40.465Q743.7-184 719.385-184h-478.77Z"/></svg>