<svg xmlns="http://www.w3.org/2000/svg" height="20" viewBox="0 -960 960 960" width="20"><path d="M432-433ZM126.783-124.782q-40.305 0-69.153-28.848-28.848-28.848-28.848-69.153v-418.434q0-40.305 28.848-69.153 28.848-28.848 69.153-28.848h103.043l51.13-63.044q14.392-16.261 33.525-24.608 19.134-8.348 39.171-8.348h201.304q20.387 0 34.694 14.246 14.307 14.246 14.307 34.544 0 20.298-14.307 34.754-14.307 14.457-34.694 14.457H354.218l-81.609 96H126.783v418.434h610.434v-332.738q0-20.388 14.246-34.694 14.246-14.307 34.544-14.307 20.298 0 34.755 14.307 14.456 14.306 14.456 34.694v332.738q0 40.305-28.498 69.153-28.498 28.848-69.503 28.848H126.783ZM754.407-754.74H716.03q-17.031 0-28.552-11.65t-11.521-28.872q0-16.981 11.683-28.469 11.684-11.487 28.955-11.487h37.812v-37.696q0-17.222 11.684-28.872 11.684-11.65 28.816-11.65 17.132 0 28.722 11.65 11.589 11.65 11.589 28.872v37.696h37.486q16.892 0 28.529 11.429 11.638 11.43 11.638 28.327 0 16.896-11.488 28.693-11.487 11.796-28.469 11.796h-37.696v37.813q0 17.271-11.65 28.954-11.65 11.684-28.872 11.684-16.921 0-28.605-11.65-11.684-11.65-11.684-28.872v-37.696Zm-322.54 495.262q73.829 0 123.242-50.28 49.413-50.28 49.413-122.109 0-70.829-49.28-121.742-49.28-50.913-123.109-50.913t-123.242 50.78q-49.413 50.78-49.413 122.109t49.28 121.742q49.28 50.413 123.109 50.413Zm.133-86.696q-38.043 0-61.934-25.022-23.892-25.021-23.892-61.804 0-35.943 23.892-60.384 23.891-24.442 61.934-24.442t61.934 24.442q23.892 24.441 23.892 60.384 0 36.783-23.892 61.804-23.891 25.022-61.934 25.022Z"/></svg>