<svg xmlns="http://www.w3.org/2000/svg" height="24" viewBox="0 -960 960 960" width="24"><path d="M773.965-680Q768-680 764-684.025T760-694v-66h-66q-5.95 0-9.975-4.035-4.025-4.035-4.025-10t4.025-9.965q4.025-4 9.975-4h66v-66q0-5.95 4.035-9.975 4.035-4.025 10-4.025t9.965 4.025q4 4.025 4 9.975v66h66q5.95 0 9.975 4.035 4.025 4.035 4.025 10T863.975-764q-4.025 4-9.975 4h-66v66q0 5.95-4.035 9.975-4.035 4.025-10 4.025ZM440-300q59 0 99.5-40.5T580-440q0-59-40.5-99.5T440-580q-59 0-99.5 40.5T300-440q0 59 40.5 99.5T440-300Zm0-28q-48 0-80-32t-32-80q0-48 32-80t80-32q48 0 80 32t32 80q0 48-32 80t-80 32ZM152-172q-26 0-43-17t-17-43v-416q0-26 17-43t43-17h116l56-61q8.203-8.769 19.763-13.885Q355.322-788 368-788h198q5.95 0 9.975 4.025Q580-779.95 580-774v69q0 18.75 13.125 31.875T625-660h35v35q0 18.75 13.125 31.875T705-580h69q5.95 0 9.975 4.025Q788-571.95 788-566v334q0 26-17 43t-43 17H152Z"/></svg>