<svg xmlns="http://www.w3.org/2000/svg" height="20" viewBox="0 -960 960 960" width="20"><path d="M432-433ZM132-110q-49 0-83.5-34.5T14-228v-408q0-49 34.5-83.5T132-754h90l52-60q17-18 39.177-27T358-850h190q24.3 0 41.65 17.289 17.35 17.29 17.35 41.5Q607-767 589.65-749.5T548-732H359l-89 96H132v408h600v-321q0-24.3 17.289-41.65 17.29-17.35 41.5-17.35Q815-608 832.5-590.65T850-549v321q0 49-34.15 83.5T732-110H132Zm630.233-653h-40.116q-18.325 0-30.721-12.65T679-807q0-18.275 12.683-30.637Q704.367-850 723.117-850h39.116v-39q0-18.7 12.684-31.35Q787.6-933 806.211-933q18.61 0 31.2 12.65Q850-907.7 850-889v39h38.789q18.186 0 30.698 12.307Q932-825.386 932-807.193q0 18.193-12.363 31.076-12.362 12.884-30.637 12.884h-39v39.116q0 18.75-12.65 31.434Q824.7-680 806-680q-18.4 0-31.083-12.65-12.684-12.65-12.684-31.35v-39ZM431.765-256Q507-256 557.5-307.265q50.5-51.264 50.5-124.5Q608-504 557.735-556q-50.264-52-125.5-52Q357-608 306.5-556.235q-50.5 51.764-50.5 124.5Q256-359 306.265-307.5q50.264 51.5 125.5 51.5Zm.235-98q-35 0-56.5-22.63T354-433q0-32.9 21.5-54.95Q397-510 432-510t56.5 22.05Q510-465.9 510-433q0 33.74-21.5 56.37Q467-354 432-354Z"/></svg>