<svg xmlns="http://www.w3.org/2000/svg" height="20" viewBox="0 -960 960 960" width="20"><path d="M760.184-672q-6.722 0-11.337-4.6-4.614-4.6-4.614-11.4v-56h-56.116q-6.85 0-11.483-4.608Q672-753.216 672-760.027q0-6.812 4.634-11.392Q681.267-776 688.117-776h56.116v-56q0-6.8 4.641-11.4 4.642-4.6 11.364-4.6t11.242 4.6Q776-838.8 776-832v56h55.79q6.71 0 11.46 4.547 4.75 4.547 4.75 11.269t-4.6 11.303q-4.6 4.581-11.4 4.581h-56v56q0 6.8-4.547 11.55-4.547 4.75-11.269 4.75ZM432-294.769q59.692 0 98.462-39.769 38.769-39.77 38.769-97.462 0-56.692-38.769-96.962-38.77-40.269-98.462-40.269t-98.462 40.269q-38.769 40.27-38.769 97.462t38.769 96.962q38.77 39.769 98.462 39.769Zm0-32q-46.615 0-75.923-29.308T326.769-430.5q0-45.115 29.308-75.923T432-537.231q46.615 0 75.923 30.808t29.308 75.923q0 45.115-29.308 74.423T432-326.769ZM144.615-184Q121-184 104.5-200.5 88-217 88-240.615v-382.77Q88-647 104.5-663.5 121-680 144.615-680h112.308l54.615-72.385q8.849-11.515 20.995-17.565Q344.679-776 358-776h210.615q6.8 0 11.4 4.6 4.6 4.6 4.6 11.4v60.923q0 17.692 12.385 30.077 12.385 12.385 30.077 12.385h29.538v29.538q0 17.692 12.385 30.077 12.385 12.385 30.077 12.385H760q6.8 0 11.4 4.6 4.6 4.6 4.6 11.4v328Q776-217 759.85-200.5 743.7-184 719.385-184h-574.77Z"/></svg>