<svg xmlns="http://www.w3.org/2000/svg" height="20" viewBox="0 -960 960 960" width="20"><path d="M754.175-672q-4.175 0-7.058-2.875-2.884-2.875-2.884-7.125v-62h-62.116q-4.3 0-7.209-2.885-2.908-2.885-2.908-7.15 0-4.265 2.908-7.115 2.909-2.85 7.209-2.85h62.116v-62q0-4.25 2.919-7.125Q750.07-836 754.246-836q4.175 0 6.965 2.875Q764-830.25 764-826v62h61.789q4.161 0 7.186 2.825 3.025 2.824 3.025 7 0 4.175-2.875 7.025-2.875 2.85-7.125 2.85h-62v62q0 4.25-2.825 7.275-2.824 3.025-7 3.025ZM432-304q56 0 92-37t36-91q0-53-36-90.5T432-560q-56 0-92 37.5t-36 91q0 53.5 36 90.5t92 37Zm0-20q-48 0-78-30t-30-76.5q0-46.5 30-78t78-31.5q48 0 78 31.5t30 78q0 46.5-30 76.5t-78 30ZM152-196q-22 0-37-15t-15-37v-368q0-22 15-37t37-15h110l56-74q8.203-10.769 19.44-16.385Q348.676-764 361-764h209q4.25 0 7.125 2.875T580-754v63q0 16.25 11.375 27.625T619-652h33v33q0 16.25 11.375 27.625T691-580h63q4.25 0 7.125 2.875T764-570v322q0 22-14.65 37T712-196H152Z"/></svg>