<svg xmlns="http://www.w3.org/2000/svg" height="24" viewBox="0 -960 960 960" width="24"><path d="M253.001-67q-43.726 0-74.864-31.137-31.138-31.138-31.138-74.864v-613.998q0-43.726 31.138-74.864 31.138-31.138 74.864-31.138h453.998q43.726 0 74.864 31.138 31.138 31.138 31.138 74.864v613.998q0 43.726-31.138 74.864Q750.725-67 706.999-67H253.001Zm345.254-345.652q28.657 0 48.701-19.973 20.043-19.973 20.043-48.505 0-28.769-19.761-48.907-19.761-20.137-48.584-20.137-28.824 0-49.001 20.176-20.176 20.177-20.176 49.001 0 28.823 20.06 48.584 20.06 19.761 48.718 19.761Z"/></svg>