<svg xmlns="http://www.w3.org/2000/svg" height="20" viewBox="0 -960 960 960" width="20"><path d="M336-159q-134.132 0-227.566-93.407T15-479.907Q15-614 108.434-707.5T336-801h288q134.132 0 227.566 93.407T945-480.093Q945-346 851.566-252.5T624-159H336Zm0-118h288q84.245 0 143.622-59.378Q827-395.755 827-480t-59.378-143.622Q708.245-683 624-683H336q-84.245 0-143.622 59.378Q133-564.245 133-480t59.378 143.622Q251.755-277 336-277Zm-27-100h88v-59h59v-88h-59v-59h-88v59h-59v88h59v59Zm295 0h88v-206H556v88h48v118ZM480-480Z"/></svg>