<svg xmlns="http://www.w3.org/2000/svg" height="20" viewBox="0 -960 960 960" width="20"><path d="M720-240q30 0 51-21t21-51q0-30-21-51t-51-21q-30 0-51 21t-21 51q0 30 21 51t51 21Zm.232 144Q758-96 790.5-115t52.5-51q-27-19-58.618-28.5-31.617-9.5-64.5-9.5-32.882 0-64.382 9.5Q624-185 597-166q20 32 52.732 51t70.5 19ZM216-144q-29.7 0-50.85-21.15Q144-186.3 144-216v-528q0-29.7 21.15-50.85Q186.3-816 216-816h528q29.7 0 50.85 21.15Q816-773.7 816-744v258q-17.1-5.76-35.1-9.92T744-502v-242H216v528h241q1.875 19.516 5.938 37.258Q467-161 473-144H216Zm0-96v24-528 242-2 264Zm72-84.211Q288-309 298.35-298.5 308.7-288 324-288h136q4-19 10.19-36.966Q476.381-342.932 484-360H324q-15.3 0-25.65 10.289-10.35 10.29-10.35 25.5Zm0-156Q288-465 298.35-454.5 308.7-444 324-444h228q26-20 56-34.5t64-20.5q-5-8-15.5-12.5T636-516H324q-15.3 0-25.65 10.289-10.35 10.29-10.35 25.5Zm0-156Q288-621 298.35-610.5 308.7-600 324-600h312q15.3 0 25.65-10.289 10.35-10.29 10.35-25.5Q672-651 661.65-661.5 651.3-672 636-672H324q-15.3 0-25.65 10.289-10.35 10.29-10.35 25.5ZM719.774-48Q640-48 584-104.226t-56-136Q528-320 584.226-376t136-56Q800-432 856-375.774t56 136Q912-160 855.774-104t-136 56Z"/></svg>