<svg xmlns="http://www.w3.org/2000/svg" height="20" viewBox="0 -960 960 960" width="20"><path d="M169-110q-24.3 0-41.65-17.289-17.35-17.29-17.35-41.5Q110-193 127.35-210.5T169-228h13v-504q0-49.7 34.15-83.85Q250.3-850 300-850h360q49.7 0 83.85 34.15Q778-781.7 778-732v504h12.789Q815-228 832.5-210.711q17.5 17.29 17.5 41.5Q850-145 832.65-127.5T791-110H169Zm131-118h360v-504H300v504Zm95.509-228q15.509 0 26-10.491t10.491-26Q432-508 421.509-518t-26-10Q380-528 370-518t-10 25.509q0 15.509 10 26T395.509-456ZM300-732v504-504Z"/></svg>