<svg xmlns="http://www.w3.org/2000/svg" height="20" viewBox="0 -960 960 960" width="20"><path d="M206-196q-4.3 0-7.15-2.789-2.85-2.79-2.85-7 0-4.211 2.85-7.211t7.15-3h62v-496q0-22.7 14.65-37.35Q297.3-764 320-764h320q22.7 0 37.35 14.65Q692-734.7 692-712v496h61.789q4.211 0 7.211 2.789 3 2.79 3 7 0 4.211-2.85 7.211t-7.15 3H206Zm82-20h384v-496q0-12-10-22t-22-10H320q-12 0-22 10t-10 22v496Zm95.509-252q9.509 0 17-7.491t7.491-17Q408-502 400.509-509t-17-7Q374-516 367-509t-7 16.509q0 9.509 7 17T383.509-468ZM288-744v528-528Z"/></svg>