<svg xmlns="http://www.w3.org/2000/svg" height="20" viewBox="0 -960 960 960" width="20"><path d="M173.782-124.782q-20.387 0-34.694-14.246-14.306-14.246-14.306-34.544 0-20.298 14.306-34.754 14.307-14.457 34.694-14.457h23v-514.434q0-41.005 28.498-69.503 28.498-28.498 69.503-28.498h370.434q41.005 0 69.503 28.498 28.498 28.498 28.498 69.503v514.434h22.789q20.298 0 34.755 14.246 14.456 14.246 14.456 34.544 0 20.298-14.306 34.755-14.307 14.456-34.694 14.456H173.782Zm121.001-98.001h370.434v-514.434H294.783v514.434ZM395.509-456q15.509 0 26-10.491t10.491-26Q432-508 421.509-518t-26-10Q380-528 370-518t-10 25.509q0 15.509 10 26T395.509-456ZM294.783-737.217v514.434-514.434Z"/></svg>