<svg xmlns="http://www.w3.org/2000/svg" height="20" viewBox="0 -960 960 960" width="20"><path d="M227.913-471.521h113.739q11.842 0 21.965 6.13 10.123 6.131 15.845 17.049L408-398.87l100.13-181.695q13.261-22.391 38.5-22.391 25.24 0 37.401 22.249l59.839 109.186h88.217q-19.261-87.913-88.712-144.891-69.451-56.978-163.152-56.978t-163.375 56.978q-69.674 56.978-88.935 144.891Zm252.087 312q99.478 0 171.652-64.478 72.174-64.478 83.435-160.826H618.348q-12.261 0-21.675-6.13-9.413-6.131-15.237-17.049L552-457.476 451.87-276.347q-13.261 22.392-38 22.957-24.74.565-38-22.392l-59.74-109.043h-91.217q11.261 96.348 83.435 160.826T480-159.521Zm0 98.001q-74.522 0-138.833-27.92-64.311-27.92-112.428-75.755-48.117-47.834-76.037-112.145-27.92-64.311-27.92-138.833h98.001q0 107.739 74.739 182.195Q372.261-159.521 480-159.521t182.478-74.457q74.739-74.456 74.739-182.195h98.001q0 74.522-27.92 138.833-27.92 64.311-76.037 112.145-48.117 47.835-112.428 75.755Q554.522-61.52 480-61.52ZM124.782-416.173q0-74.522 27.92-138.833 27.92-64.311 76.037-112.428 48.117-48.117 112.428-76.037 64.311-27.92 138.393-27.92 59.411 0 115.252 19.5 55.84 19.5 102.406 55.065l27.847-27.848q14.109-14.109 31.218-13.609t31.501 14.892q14.391 14.391 14.391 31.5t-14.391 31.5l-26.566 27.565q35.566 45.566 54.783 101.305 19.217 55.74 19.217 115.348h-98.001q0-107.739-74.739-182.478T480-673.39q-107.739 0-182.478 74.739t-74.739 182.478h-98.001ZM386.956-816q-18.691 0-31.585-13.116-12.894-13.115-12.894-31.717 0-18.602 13.177-31.646 13.176-13.044 31.867-13.044h185.523q18.691 0 31.585 12.833 12.894 12.833 12.894 31.436 0 18.602-12.894 31.928T573.044-816H386.956ZM480-159.521q-107.739 0-182.478-74.457-74.739-74.456-74.739-182.195 0-107.739 74.739-182.478T480-673.39q107.739 0 182.478 74.739t74.739 182.478q0 107.739-74.739 182.195Q587.739-159.521 480-159.521Zm0-256.652Z"/></svg>