<svg xmlns="http://www.w3.org/2000/svg" height="20" viewBox="0 -960 960 960" width="20"><path d="m769.154-123.31-71.231-71.23q-46.846 34.692-102.423 53.615-55.577 18.924-115.5 18.924-74.769 0-141.115-28.462-66.346-28.461-116.153-78.269-49.808-49.807-78.269-116.153Q116.001-411.231 116.001-486q0-59.923 18.924-115.5 18.923-55.577 53.615-102.423l-71.23-72.231 36.768-36.768 651.844 652.844-36.768 36.768ZM289.078-296.078l212.153-95.154-116.23-116.23-95.923 211.384Zm494.306 12.231L585.769-481.462l85.153-195.46-195.46 85.153-197.615-197.615q44.923-29.307 96.269-44.961Q425.462-849.999 480-849.999q75.769 0 141.615 28.462 65.846 28.461 115.653 78.269 49.808 49.807 78.269 115.653Q843.999-561.769 843.999-486q0 54.538-16.154 105.384-16.154 50.846-44.461 96.769Z"/></svg>