<svg xmlns="http://www.w3.org/2000/svg" height="20" viewBox="0 -960 960 960" width="20"><path d="M537.067-410.109q-58.118 0-99.266-38.573-41.149-38.573-41.149-94.438 0-44.88 25.5-79.641t65.739-48.761q-3-.478-5.356-1.076-2.356-.598-3.492-.598-79.931 0-134.889 56.598Q289.196-560 289.196-478.804q0 81.478 55.261 137.695 55.26 56.218 135.304 56.457 80 0 136.054-55.5t56.108-136.5q1.512-8 1.849-16.576.337-8.576-1.663-17.839-11 43.723-48.382 72.34-37.383 28.618-86.66 28.618Zm4.216-157.413-21.923 64.649 54.094-40.649 54.359 41.026-21.922-63.352 55.957-39.239-67.522 1.435-19.761-66.435-19.804 65.239-68.718-.717 55.24 38.043ZM480-68.413 358.898-189.406H189.37v-169.398L68.413-480l120.993-121.202V-770.87h169.398L480-892.065l121.205 121.187h169.673v169.673L892.065-480 770.874-358.898v169.528H601.196L480-68.413Zm.239-412.826ZM480-185.718l86.624-86.553h121.274v-121.175L774.521-480l-86.623-86.624v-121.274H566.624L480-774.521l-86.554 86.623H272.271v121.274L185.718-480l86.652 86.652v120.978h120.978L480-185.718Z"/></svg>