<svg xmlns="http://www.w3.org/2000/svg" height="24" viewBox="0 -960 960 960" width="24"><path d="m313-390.308-42.077-42.077q-5.846-5.846-13.769-6.115-7.923-.269-14.539 6.346-6.384 6.615-6.5 14.154-.115 7.539 6.5 14.154l47.77 47.769q9.692 9.693 22.615 9.693 12.923 0 22.615-9.693l132.77-132.769q5.846-5.846 6.231-13.769.384-7.924-6.231-14.539-6.616-6.615-14.27-6.615t-14.269 6.615L313-390.308Zm327-62.231-50.615-50.615q-5.616-5.615-13.385-5.615t-13.385 5.615Q557-497.539 557-489.385t5.615 13.77L612.461-425l-50.615 50.615q-5.615 5.616-5.231 13.385.385 7.769 6 13.385 5.616 5.615 13.77 5.615t13.769-5.615L640-397.461l50.615 50.615q5.616 5.615 13.77 5.231 8.154-.385 13.769-6 5.615-5.616 5.615-13.77t-5.615-13.769L667.539-425l50.615-50.615q5.615-5.616 5.615-13.77t-5.615-13.769q-5.615-5.615-13.769-5.615t-13.77 5.615L640-452.539ZM184.615-200Q157-200 138.5-218.5 120-237 120-264.615v-430.77Q120-723 138.5-741.5 157-760 184.615-760H357q12.923 0 25.115 5.231 12.193 5.23 20.885 13.923L463.846-680h311.539Q803-680 821.5-661.5 840-643 840-615.385v350.77Q840-237 821.5-218.5 803-200 775.385-200h-590.77Zm0-40h590.77q10.769 0 17.692-6.923T800-264.615v-350.77q0-10.769-6.923-17.692T775.385-640H447.769l-73.077-73.077q-3.846-3.846-8.077-5.385-4.23-1.538-8.846-1.538H184.615q-10.769 0-17.692 6.923T160-695.385v430.77q0 10.769 6.923 17.692T184.615-240ZM160-240v-480 480Z"/></svg>