<svg xmlns="http://www.w3.org/2000/svg" height="20" viewBox="0 -960 960 960" width="20"><path d="m316-442-10.171-10.171Q293-465 275.218-464.92q-17.782.08-32.096 13Q230-439 230.5-421t13.315 30.815l30.37 30.37Q292.364-342 316.364-342q24 0 41.636-18l84-85q13-13 12.5-31T441-507q-13-13-30.5-12.5T380-506l-64 64Zm317-60-16-16q-14-14-31-14t-31 14q-14 14-14 31t14 31l16 16-17 17q-14 14-13.5 30.5T555-362q14 14 31.5 14t31.5-14l15-15 16 16q14 14 31.5 13.5T712-362q14-14 14-31t-14-31l-17-16 17-16q14-14 14-31t-14-31q-14-14-31.5-14T649-518l-16 16ZM180-158q-49 0-83.5-34.5T62-276v-408q0-49.7 34.5-83.85Q131-802 180-802h139.643q23.594 0 44.975 8.5Q386-785 404-767l76 76h300q49.7 0 83.85 34.15Q898-622.7 898-573v297q0 49-34.15 83.5T780-158H180Zm0-118h600v-297H431L320-684H180v408Zm0 0v-408 408Z"/></svg>