<svg xmlns="http://www.w3.org/2000/svg" height="24" viewBox="0 -960 960 960" width="24"><path d="M480.066-389.826q-107.979 0-183.632-75.469-75.652-75.47-75.652-183.283 0-107.814 75.586-183.467 75.586-75.652 183.566-75.652 107.979 0 183.632 75.586 75.652 75.586 75.652 183.566t-75.586 183.35q-75.586 75.369-183.566 75.369ZM480-486.783q67.13 0 114.413-47.283 47.283-47.282 47.283-114.413 0-67.13-47.283-114.413Q547.13-810.174 480-810.174t-114.413 47.282q-47.283 47.283-47.283 114.413 0 67.131 47.283 114.413Q412.87-486.783 480-486.783Zm-40-121.696v40q0 17 11.5 28.5t28.5 11.5q17 0 28.5-11.5t11.5-28.5v-40h40q17 0 28.5-11.5t11.5-28.5q0-17-11.5-28.5t-28.5-11.5h-40v-40q0-17-11.5-28.5t-28.5-11.5q-17 0-28.5 11.5t-11.5 28.5v40h-40q-17 0-28.5 11.5t-11.5 28.5q0 17 11.5 28.5t28.5 11.5h40Zm40-40Zm340 506.002h-36.999q-14.96 0-24.741-9.782-9.781-9.781-9.781-24.74 0-14.96 9.781-24.741 9.781-9.781 24.741-9.781H820v-37q0-14.714 9.781-24.335t24.741-9.621q14.715 0 24.336 9.621 9.621 9.621 9.621 24.335v37h36.999q14.96 0 24.741 9.781Q960-191.959 960-176.999q0 14.959-9.781 24.74-9.781 9.782-24.741 9.782h-36.999v36.999q0 14.715-9.618 24.336-9.617 9.62-24.326 9.62t-24.622-9.78Q820-91.084 820-106.043v-36.434Zm-300 40.956v-171.522q0-14.714 9.781-24.335t24.741-9.621H660q29.087 0 48.783 19.695 19.696 19.696 19.696 48.783v36.053q0 20.73-9.087 33.23-9.087 12.5-24.087 21.63l16.043 35.26q7.131 16.261-2.141 30.805t-27.816 14.544q-9.695 0-17.261-4.848-7.565-4.848-11.695-13.413l-23.913-51.565h-40.043v35.869q0 14.715-9.618 24.336Q569.244-67 554.535-67t-24.622-9.78Q520-86.563 520-101.522Zm68.479-100.956H660v-36.044h-71.521v36.044Zm-520 41.695v59.826q0 14.715-9.618 24.336Q49.244-67 34.535-67T9.913-76.62Q0-86.241 0-100.956v-172.087q0-14.714 9.781-24.335t24.741-9.621q14.715 0 24.336 9.621 9.62 9.621 9.62 24.335v47.739H140v-47.739q0-14.714 9.781-24.335t24.741-9.621q14.715 0 24.336 9.621 9.621 9.621 9.621 24.335v172.087q0 14.715-9.618 24.336Q189.244-67 174.535-67t-24.622-9.78Q140-86.563 140-101.522v-59.261H68.479ZM260-101.521v-171.522q0-14.714 9.781-24.335t24.741-9.621H400q29.087 0 48.783 19.695 19.696 19.696 19.696 48.783v103.043q0 29.087-19.696 48.783T400-67H294.522q-14.96 0-24.741-9.782Q260-86.56 260-101.52Zm68.479-33.957H400v-103.043h-71.521v103.043Z"/></svg>