<svg xmlns="http://www.w3.org/2000/svg" height="20" viewBox="0 -960 960 960" width="20"><path d="M480.118-366Q366-366 286-445.676q-80-79.677-80-193.5Q206-753 285.882-833q79.883-80 194-80Q594-913 674-833.118q80 79.883 80 194Q754-525 674.118-445.5q-79.883 79.5-194 79.5ZM444-603v48q0 15.3 10.289 25.65 10.29 10.35 25.5 10.35Q495-519 505.5-529.35 516-539.7 516-555v-48h48q15.3 0 25.65-10.289 10.35-10.29 10.35-25.5Q600-654 589.65-664.5 579.3-675 564-675h-48v-48q0-15.3-10.289-25.65-10.29-10.35-25.5-10.35Q465-759 454.5-748.65 444-738.3 444-723v48h-48q-15.3 0-25.65 10.289-10.35 10.29-10.35 25.5Q360-624 370.35-613.5 380.7-603 396-603h48Zm366 460h-19q-18.467 0-31.233-12.767Q747-168.533 747-187t12.767-31.233Q772.533-231 791-231h19v-19q0-18.033 12.767-30.517Q835.533-293 854-293q18.033 0 30.517 12.483Q897-268.033 897-250v19h19q18.467 0 31.233 12.767Q960-205.467 960-187t-12.767 31.233Q934.467-143 916-143h-19v19q0 18.033-12.477 30.517Q872.047-81 854.023-81 836-81 823-93.767 810-106.533 810-125v-18Zm-306 26v-153q0-18.033 12.767-30.517Q529.533-313 548-313h100q39 0 63 24t24 63v17.016Q735-196 731.5-180T712-155l10 18q10 22-2.5 43T682-73q-14 0-23.5-7T642-98l-14-29h-37v11q0 18.033-12.477 30.517Q566.047-73 548.023-73 530-73 517-85.767 504-98.533 504-117Zm87-92h57v-17h-57v17ZM87-146v30q0 18.033-12.477 30.517Q62.047-73 44.023-73 26-73 13-85.483 0-97.967 0-116v-154q0-18.033 12.767-30.517Q25.533-313 44-313q18.033 0 30.517 12.483Q87-288.033 87-270v44h57v-44q0-18.033 12.767-30.517Q169.533-313 188-313q18.033 0 30.517 12.483Q231-288.033 231-270v154q0 18.033-12.477 30.517Q206.047-73 188.023-73 170-73 157-85.767 144-98.533 144-117v-29H87Zm177 29v-153q0-18.033 12.767-30.517Q289.533-313 308-313h76q39 0 63 24t24 63v66q0 39-24 63t-63 24h-76q-18.467 0-31.233-12.767Q264-98.533 264-117Zm87-43h33v-66h-33v66Z"/></svg>