<svg xmlns="http://www.w3.org/2000/svg" height="24" viewBox="0 -960 960 960" width="24"><path d="m789.539-360.461-29.693-29.693q41.692-41 65.539-95.077Q849.231-539.308 849.231-600q0-60.692-23.846-114.538-23.847-53.847-65.539-94.847l29.693-30.154q46.769 46.077 74.384 108.077 27.616 62 27.616 131.462 0 69.462-27.616 131.462-27.615 62-74.384 108.077ZM656.923-493.077l-30.154-30.154q15.692-15.461 24.769-35.038 9.077-19.577 9.077-41.731 0-23.692-9.077-42.5t-24.769-34.269l30.154-30.154q21.231 20.538 33.846 47.5 12.616 26.961 12.616 59.423 0 30.923-12.616 58.654-12.615 27.731-33.846 48.269ZM348.462-480q-49.847 0-84.924-35.077-35.077-35.077-35.077-84.923 0-49.846 35.077-84.923Q298.615-720 348.462-720q49.846 0 84.923 35.077 35.077 35.077 35.077 84.923 0 49.846-35.077 84.923Q398.308-480 348.462-480Zm-280 289.231v-65.846q0-27.616 13.922-47.77 13.924-20.153 39.308-32.077 48.693-23.692 108.077-39 59.385-15.307 118.693-15.307 59.307 0 118.692 15.307 59.385 15.308 108.077 39 25.385 11.924 39.308 32.077 13.923 20.154 13.923 47.77v65.846h-560Z"/></svg>