<svg xmlns="http://www.w3.org/2000/svg" height="24" viewBox="0 -960 960 960" width="24"><path d="m804.218-336.348-63.196-63.674q44-41 69.239-97.12Q835.5-553.261 835.5-616.979q0-63-24.88-118-24.881-55-68.402-96l63.195-64.956q56 53.239 89 125.359 33 72.119 33 153.597 0 82.196-33.358 154.794-33.359 72.598-89.837 125.837Zm-129.435-130.87-64.718-65.435q17.522-16.282 28.044-37.423 10.521-21.142 10.521-46.424 0-25.044-10.641-46.066-10.641-21.021-27.685-37.304l65.196-65.435q31.283 28.522 48.924 66.902 17.641 38.381 17.641 81.903 0 44-18 82.38-18 38.38-49.282 66.902ZM360.717-448.37q-69.587 0-118.858-49.272-49.272-49.271-49.272-118.858t49.272-118.859q49.271-49.272 118.858-49.272t118.859 49.272q49.272 49.272 49.272 118.859 0 69.587-49.152 118.858-49.152 49.272-118.979 49.272ZM32.587-112.348v-120.369q0-36.587 19.272-67.261 19.271-30.674 49.271-45.674 51-26 116.794-44.359 65.793-18.359 142.793-18.359t142.794 18.12q65.793 18.119 116.793 44.119 30 15 49.272 45.913 19.272 30.914 19.272 67.501v120.369H32.587Z"/></svg>