<svg xmlns="http://www.w3.org/2000/svg" height="20" viewBox="0 -960 960 960" width="20"><path d="m760-353-46-57q37-31 57.5-73.824 20.5-42.823 20.5-91Q792-623 771.5-666T714-740l46-56q49 42 76.5 99.28T864-575q0 64-28 122t-76 100Zm-92-112-46-55q13-10 19.5-24.5T648-575q0-16-6.5-30T622-629l46-56q25 20 38.5 49t13.5 61q0 32-13.5 61T668-465Zm-284 33q-60 0-102-41.5t-42-101.367q0-59.867 42-102.5T384-720q60 0 102 42.633t42 102.5Q528-515 486-473.5 444-432 384-432ZM96-144v-97q0-24 13-44t34-33q55-33 116-50t125-17q64 0 125 17t116 50q20 13 33.5 33t13.5 44v97H96Zm72-72h432v-25q0-4.552-3-8.276T589-256q-47-29-99-43t-106-14q-54 0-106 14t-99 43q-5 3-8 6.724T168-241v25Zm216.212-288Q414-504 435-524.5q21-20.5 21-50.58 0-30.079-21.212-51.5-21.213-21.42-51-21.42Q354-648 333-626.58q-21 21.421-21 51.5 0 30.08 21.212 50.58 21.213 20.5 51 20.5ZM384-575Zm0 359Z"/></svg>