<svg xmlns="http://www.w3.org/2000/svg" height="24" viewBox="0 -960 960 960" width="24"><path d="M22.477-102.477v-715.046h915.046v715.046H22.477ZM128.48-208.479h703.042v-503.042H128.479v503.042Zm186.999-66.999h329.044v-49.044H315.478v49.044Zm-120-120h89.044v-89.044h-89.044v89.044Zm160 0h89.044v-89.044h-89.044v89.044Zm160 0h89.044v-89.044h-89.044v89.044Zm160 0h89.044v-89.044h-89.044v89.044Zm-480-160h89.044v-89.044h-89.044v89.044Zm160 0h89.044v-89.044h-89.044v89.044Zm160 0h89.044v-89.044h-89.044v89.044Zm160 0h89.044v-89.044h-89.044v89.044ZM128.479-208.479v-503.042 503.042Z"/></svg>