<svg xmlns="http://www.w3.org/2000/svg" height="20" viewBox="0 -960 960 960" width="20"><path d="M88-184v-592h784v592H88Zm32-32h720v-528H120v528Zm220.615-100.615h278.77v-38.77h-278.77v38.77ZM237.231-441.231h53.538v-53.538h-53.538v53.538Zm144 0h53.538v-53.538h-53.538v53.538Zm144 0h53.538v-53.538h-53.538v53.538Zm144 0h53.538v-53.538h-53.538v53.538Zm-432-144h53.538v-53.538h-53.538v53.538Zm144 0h53.538v-53.538h-53.538v53.538Zm144 0h53.538v-53.538h-53.538v53.538Zm144 0h53.538v-53.538h-53.538v53.538ZM120-216v-528 528Z"/></svg>