<svg xmlns="http://www.w3.org/2000/svg" height="20" viewBox="0 -960 960 960" width="20"><path d="m638-202.539 107.846-108.615Q750.399-316 756.469-316q6.07 0 11.685 4.846t5.231 11.436q-.385 6.59-5.231 11.103L657.615-178.077q-8.41 8.693-19.974 8.693t-20.056-8.525l-41.939-42.22q-4.646-4.678-5.031-11.044-.384-6.366 5.231-11.981 4.846-4.846 11.014-5.103 6.168-.256 11.294 5.103L638-202.539ZM355.385-168Zm8.307 32q-17.131 0-28.719-11.588-11.589-11.589-11.589-28.719v-556.155q0-17.13 11.589-28.719 11.588-11.588 28.719-11.588h56.616v-10.924q0-17.13 11.588-28.719Q443.485-824 460.615-824h38.77q17.13 0 28.719 11.588 11.588 11.589 11.588 28.719v10.924h56.774q17.165 0 28.657 11.588 11.493 11.589 11.493 28.719v284.154q-9 1.539-16.582 3-7.582 1.462-15.419 3.616v-299.846h-249.23V-168h116.461q4.154 8.462 8.116 16.077 3.961 7.616 8.73 15.923h-125Z"/></svg>