<svg xmlns="http://www.w3.org/2000/svg" height="20" viewBox="0 -960 960 960" width="20"><path d="m638-194 112-113q2.727-3 6.364-3 3.636 0 7.636 3t3.5 7.167q-.5 4.166-3.5 6.833L656-185q-7.733 8-18.367 8-10.633 0-18.433-7.832l-39.4-39.451q-2.8-2.832-3.3-6.775Q576-235 580-239q3-3 6.818-3.333 3.818-.334 7.182 3.333l44 45Zm-304 8v-543q0-16.15 10.925-27.075T372-767h52v-7q0-16.15 10.925-27.075T462-812h36q16.15 0 27.075 10.925T536-774v7h52.206q16.194 0 26.994 10.925T626-729v283q-7 2-12.071 2.964-5.072.965-11.643 2.893Q539-418 499-365t-40 123q0 24.5 5.689 47.9Q470.377-170.7 482-148H372q-16.15 0-27.075-10.925T334-186Z"/></svg>