<svg xmlns="http://www.w3.org/2000/svg" height="24" viewBox="0 -960 960 960" width="24"><path d="M200.957-111.869q-36.749 0-62.918-26.17-26.17-26.169-26.17-62.918h89.088v89.088Zm80 0v-89.088H360v89.088h-79.043Zm159.043 0v-89.088h80v89.088h-80Zm0-647.174v-89.088h80v89.088h-80Zm160 647.174v-89.088h79.043v89.088H600Zm0-647.174v-89.088h79.043v89.088H600Zm159.043 0v-89.088q36.749 0 62.918 26.17 26.17 26.169 26.17 62.918h-89.088Zm41.044 713.326-235.239-235.24H280.957v-283.891L45.717-800.087l58.631-59.392 755.131 755.131-59.392 58.63Zm-4.457-235.24-36.587-36.587V-360h89.088v79.043H795.63Zm-423.673-91h101.891L371.957-473.848v101.891Zm307.086-25.587-91-91v-99.499h-99.499l-91-91h281.499v281.499ZM317.544-759.043l-36.587-36.587v-52.501H360v89.088h-42.456ZM111.869-280.957V-360h89.088v79.043h-89.088Zm0-159.043v-80h89.088v80h-89.088Zm0-160v-79.043h89.088V-600h-89.088Zm647.174 160v-80h89.088v80h-89.088Zm0-160v-79.043h89.088V-600h-89.088Z"/></svg>