<svg xmlns="http://www.w3.org/2000/svg" height="20" viewBox="0 -960 960 960" width="20"><path d="M216-164.001q-21.622 0-36.811-15.188-15.188-15.189-15.188-36.811H216v51.999Zm78 0V-216h72v51.999h-72Zm150 0V-216h72v51.999h-72ZM444-744v-51.999h72V-744h-72Zm150 579.999V-216h72v51.999h-72ZM594-744v-51.999h72V-744h-72Zm150 0v-51.999q21.622 0 36.811 15.188 15.188 15.189 15.188 36.811H744Zm25.154 576.075L643.079-294H294v-349.079L116.925-820.154l37.153-36.768 651.844 651.844-36.768 37.153Zm44.923-130.998L747-366h48.999v67.077h18.078Zm-468.078-47.076H591.08L345.999-591.08v245.081ZM666-447l-51.999-51.999v-115.002H498.999L447-666h219v219ZM366-747l-67.077-67.077v18.078H366V-747ZM164.001-294v-72H216v72h-51.999Zm0-150v-72H216v72h-51.999Zm0-150v-72H216v72h-51.999ZM744-444v-72h51.999v72H744Zm0-150v-72h51.999v72H744Z"/></svg>