<svg xmlns="http://www.w3.org/2000/svg" height="20" viewBox="0 -960 960 960" width="20"><path d="M218.261-124.782q-38.56 0-66.02-27.459-27.459-27.46-27.459-66.02h93.479v93.479Zm78 0v-93.479H366v93.479h-69.739Zm147.739 0v-93.479h72v93.479h-72Zm0-616.957v-93.479h72v93.479h-72Zm150 616.957v-93.479h69.739v93.479H594Zm0-616.957v-93.479h69.739v93.479H594Zm147.739 0v-93.479q38.56 0 66.02 27.459 27.459 27.46 27.459 66.02h-93.479Zm47.74 625.045L609.913-296.261H296.261v-313.652L65.694-840.479l57.218-56.653 723.22 723.22-56.653 57.218Zm32.739-182.567-77.479-77.479V-366h90.479v66.739h-13Zm-427.956-95.001h117.649L394.262-511.911v117.649Zm269.477-63.478-98.001-98.001v-9.997h-9.997l-98.001-98.001h205.999v205.999ZM376.74-744.739l-77.479-77.479v-13H366v90.479h10.74ZM124.782-296.261V-366h93.479v69.739h-93.479Zm0-147.739v-72h93.479v72h-93.479Zm0-150v-69.739h93.479V-594h-93.479Zm616.957 150v-72h93.479v72h-93.479Zm0-150v-69.739h93.479V-594h-93.479Z"/></svg>