<svg xmlns="http://www.w3.org/2000/svg" height="20" viewBox="0 -960 960 960" width="20"><path d="M216.957-135.869q-33.449 0-57.268-23.82-23.82-23.819-23.82-57.268h81.088v81.088Zm78 0v-81.088H366v81.088h-71.043Zm149.043 0v-81.088h72v81.088h-72Zm0-607.174v-81.088h72v81.088h-72Zm150 607.174v-81.088h71.043v81.088H594Zm0-607.174v-81.088h71.043v81.088H594Zm149.043 0v-81.088q33.449 0 57.268 23.82 23.82 23.819 23.82 57.268h-81.088Zm34.044 612.326-164.239-164.24H294.957v-317.891L79.717-828.087l53.631-53.392 697.131 697.131-53.392 53.631Zm41.543-167.24-72.587-72.587V-366h78.088v68.043h-5.501Zm-440.673-80h151.891L377.957-529.848v151.891Zm287.086-73.587-83-83v-47.499h-47.499l-83-83h213.499v213.499ZM370.544-746.043l-72.587-72.587v-5.501H366v78.088h4.544ZM135.869-294.957V-366h81.088v71.043h-81.088Zm0-149.043v-72h81.088v72h-81.088Zm0-150v-71.043h81.088V-594h-81.088Zm607.174 150v-72h81.088v72h-81.088Zm0-150v-71.043h81.088V-594h-81.088Z"/></svg>