<svg xmlns="http://www.w3.org/2000/svg" height="20" viewBox="0 -960 960 960" width="20"><path d="M497-356q28.769 0 53.423-9.731 24.654-9.73 44.27-27.192 4.461-5.692 3.769-9.577-.693-3.885-9.154-6.654-37.231-11.385-64-32.885t-45-52.961q-18.231-32.462-25.577-67.13-7.346-34.668 6.654-67.415 3.231-7.686-2.885-12.609-6.115-4.923-11.894-3.19-41.914 15.882-69.76 54.152Q349-552.923 349-504q0 61.539 42.846 104.769Q434.692-356 497-356Zm-17 218.462Q363.461-171.307 285.731-276.92 208-382.532 208-515v-201.308l272-104.615 272 104.615V-515q0 132.468-77.731 238.08Q596.539-171.307 480-137.538ZM480-171q104-32.25 172-129t68-215v-180l-240-91.231L240-695v180q0 118.25 68 215t172 129Zm0-307.231Z"/></svg>