<svg xmlns="http://www.w3.org/2000/svg" height="20" viewBox="0 -960 960 960" width="20"><path d="M284.307-184q-12.03 0-20.169-8.138Q256-200.277 256-212.307V-536q0-6.8 4.547-11.4 4.547-4.6 11.269-4.6t11.453 4.6Q288-542.8 288-536v320h320q6.8 0 11.4 4.547 4.6 4.548 4.6 11.27 0 6.722-4.6 11.452Q614.8-184 608-184H284.307Zm152.001-151.231q-12.031 0-20.17-8.138-8.138-8.139-8.138-20.17v-323.692q0-6.8 4.547-11.4 4.548-4.6 11.27-4.6 6.722 0 11.452 4.6 4.731 4.6 4.731 11.4v320h320q6.8 0 11.4 4.547 4.6 4.548 4.6 11.27 0 6.722-4.6 11.452-4.6 4.731-11.4 4.731H436.308Z"/></svg>