<svg xmlns="http://www.w3.org/2000/svg" height="24" viewBox="0 -960 960 960" width="24"><path d="M140-160q-8.539 0-14.269-5.731Q120-171.461 120-180q0-8.538 5.731-14.269Q131.461-200 140-200h320v-442.385q-28.308-5.154-50-25.692T382.385-720h-137.77l107.693 269.538q4.23 9.462 4.461 19.423.231 9.962-1.769 19.654-9 36.77-44.115 56.385-35.116 19.615-70.885 19.615-35.769 0-70.885-19.615Q134-374.615 125-411.385q-2-9.692-1.769-19.654.23-9.961 4.461-19.423L235.384-720H180q-8.539 0-14.269-5.731Q160-731.462 160-740q0-8.539 5.731-14.269Q171.461-760 180-760h202.385q6.615-33.462 33.384-56.731T480-840q37.462 0 64.231 23.269Q571-793.462 577.615-760H780q8.539 0 14.269 5.731Q800-748.539 800-740q0 8.538-5.731 14.269Q788.539-720 780-720h-55.384l107.692 269.538q4.231 9.462 4.461 19.423.231 9.962-1.769 19.654-9 36.77-44.115 56.385-35.116 19.615-70.885 19.615-35.769 0-70.885-19.615Q614-374.615 605-411.385q-2-9.692-1.769-19.654.231-9.961 4.461-19.423L715.385-720h-137.77q-5.923 31.385-27.615 51.923t-50 25.692V-200h320q8.539 0 14.269 5.731Q840-188.538 840-180q0 8.539-5.731 14.269Q828.539-160 820-160H140Zm499.616-275.385h160.769L720-636.308l-80.384 200.923Zm-480.001 0h160.769L240-636.308l-80.385 200.923ZM480-680q24.692 0 42.346-17.654Q540-715.308 540-740q0-24.692-17.654-42.346Q504.692-800 480-800q-24.692 0-42.346 17.654Q420-764.692 420-740q0 24.692 17.654 42.346Q455.308-680 480-680Z"/></svg>