<svg xmlns="http://www.w3.org/2000/svg" height="24" viewBox="0 -960 960 960" width="24"><path d="M113.782-100.782q-22.087 0-37.544-15.456-15.456-15.457-15.456-37.544 0-22.088 15.456-37.544 15.457-15.457 37.544-15.457h313.217v-437.391q-23.739-10.13-41.043-27.717-17.304-17.587-27.435-41.326H253.566l100.391 235.39q6.695 14.392 7.978 29.848 1.283 15.457-1.283 30.849-9 48.826-54.587 76.369-45.587 27.544-92.283 27.544-46.695 0-92.283-27.544-45.587-27.543-54.587-76.369-2.565-15.392-1.283-30.849 1.283-15.456 7.979-29.848l100.956-235.39h-20.782q-22.087 0-37.544-15.457-15.456-15.456-15.456-37.544 0-22.087 15.456-37.544 15.457-15.456 37.544-15.456h204.739q14.827-36.131 47.522-58.066 32.696-21.934 73.957-21.934 41.261 0 73.957 21.934 32.695 21.935 47.522 58.066h204.739q22.087 0 37.544 15.456 15.456 15.457 15.456 37.544 0 22.088-15.456 37.544-15.457 15.457-37.544 15.457h-20.782l100.956 235.39q6.696 14.392 7.978 29.848 1.283 15.457-1.282 30.849-9 48.826-54.587 76.369-45.588 27.544-92.283 27.544-46.696 0-92.283-27.544-45.587-27.543-54.587-76.369-2.566-15.392-1.283-30.849 1.283-15.456 7.978-29.848l100.391-235.39H601.479q-10.131 23.739-27.435 41.326t-41.043 27.717v437.391h313.217q22.087 0 37.544 15.457 15.456 15.456 15.456 37.544 0 22.087-15.456 37.544-15.457 15.456-37.544 15.456H113.782Zm565.914-353.914h133.043l-66.521-154.217-66.522 154.217Zm-531.87 0h133.043l-67.087-154.217-65.956 154.217ZM480-730.174q15.304 0 25.391-10.653 10.087-10.652 10.087-25.391 0-15.304-10.087-25.391-10.087-10.087-25.391-10.087-14.739 0-25.109 10.087-10.369 10.087-10.369 25.391 0 14.739 10.369 25.391 10.37 10.653 25.109 10.653Z"/></svg>