<svg xmlns="http://www.w3.org/2000/svg" height="20" viewBox="0 -960 960 960" width="20"><path d="m391-585.692-97.154-99.693Q315.385-700 339-708.192q23.615-8.193 47.077-11.962 13.502-2.769 21.174 7.5 7.672 10.269 2.318 22.401-9.184 18.714-14.492 40.449-5.308 21.734-6.077 44.65 0 4.923.5 9.731t1.5 9.731Zm291.308 294.923L619.846-353q14.615 1.461 28.462.961 13.846-.5 28.231-3.653 13.076-2.385 21.807 7.384 8.731 9.769 4.188 22.077-4.543 9.616-9.289 18.231-4.745 8.615-10.937 17.231Zm-93.847 47.308L243.692-588.23q-23.077 31.045-35.384 66.974Q196-485.327 196-447q0 105.461 72.769 178.231Q341.539-196 446.552-196q38.753 0 74.716-12.192 35.963-12.193 67.193-35.269ZM447-164q-117.651 0-200.325-82.675Q164-329.349 164-447q0-44.154 13.962-86.87 13.963-42.717 40.961-79.13l-97.462-97.461q-4.846-4.513-5.231-10.718-.384-6.206 5.231-11.821 5.616-5.615 11.436-5.615 5.821 0 11.103 5.615l600.994 600.994q5.083 5.083 5.468 11.188.384 6.105-5.231 11.357-5.282 5.615-11.103 5.615-5.82 0-11.436-5.615L613-218.923q-36.413 26.998-79.13 40.961Q491.154-164 447-164Zm-31.308-252.231ZM638.96-613l-20.992 63.426q-2.199 5.728-6.273 8.651T601.615-538q-8.538 0-13.538-6.692-5-6.693-2.077-16l94.461-278.77q2.462-7.153 6.981-10.846Q691.961-854 698.615-854h15.401q7.523 0 12.676 3.692 5.154 3.693 7.616 10.846L828-558.923q2.923 9.308-1.692 15.115Q821.692-538 813.154-538q-6.051 0-10.163-2.768-4.112-2.767-6.453-8.694L775.461-613H638.96Zm9.655-30h116.77L707-822.307 648.615-643Z"/></svg>