<svg xmlns="http://www.w3.org/2000/svg" height="20" viewBox="0 -960 960 960" width="20"><path d="M66.953-308q-6.723 0-11.453-4.6-4.731-4.6-4.731-11.4v-216q0-6.8 4.547-11.4 4.547-4.6 11.27-4.6 6.722 0 11.452 4.6 4.731 4.6 4.731 11.4v216q0 6.8-4.547 11.4-4.547 4.6-11.27 4.6Zm110.769-96q-6.722 0-11.453-4.6-4.731-4.6-4.731-11.4v-216q0-6.8 4.547-11.4 4.548-4.6 11.27-4.6 6.722 0 11.453 4.6 4.73 4.6 4.73 11.4v216q0 6.8-4.547 11.4-4.547 4.6-11.269 4.6Zm151.201 268q-24.315 0-40.465-16.15-16.151-16.15-16.151-40.465v-574.77q0-24.315 16.151-40.465Q304.608-824 328.923-824h302.154q24.315 0 40.465 16.15 16.151 16.15 16.151 40.465v574.77q0 24.315-16.151 40.465Q655.392-136 631.077-136H328.923Zm326.769-100H304.308v43.385q0 9.23 7.692 16.923Q319.692-168 328.923-168h302.154q9.231 0 16.923-7.692 7.692-7.693 7.692-16.923V-236ZM304.308-724h351.384v-43.385q0-9.23-7.692-16.923Q640.308-792 631.077-792H328.923q-9.231 0-16.923 7.692-7.692 7.693-7.692 16.923V-724Zm478.337 416q-6.722 0-11.453-4.6-4.73-4.6-4.73-11.4v-216q0-6.8 4.547-11.4 4.547-4.6 11.269-4.6t11.453 4.6q4.731 4.6 4.731 11.4v216q0 6.8-4.547 11.4-4.548 4.6-11.27 4.6Zm110.769-96q-6.722 0-11.452-4.6-4.731-4.6-4.731-11.4v-216q0-6.8 4.547-11.4 4.547-4.6 11.269-4.6t11.453 4.6q4.731 4.6 4.731 11.4v216q0 6.8-4.547 11.4-4.547 4.6-11.27 4.6ZM304.308-724v-68 68Zm0 488v68-68Zm0-32h351.384v-424H304.308v424Z"/></svg>