<svg xmlns="http://www.w3.org/2000/svg" height="20" viewBox="0 -960 960 960" width="20"><path d="M596.13-604.783q12.196-47.63-4.304-76.913-16.5-29.282-39.174-60.195-32.239-43-39.522-74.022-7.282-31.022.957-81.652h74.217q-11 47.76 2.707 74.782 13.706 27.022 37.619 57.174 33.196 42.435 42.577 77.696 9.38 35.261.141 83.13H596.13Zm148.544 0q12.196-47.63-4.065-76.913-16.261-29.282-38.935-60.195-32.239-43-39.761-74.022-7.522-31.022.717-81.652h74.457q-11 47.76 2.707 74.782 13.706 27.022 37.619 57.174 33.196 42.435 42.576 77.696 9.381 35.261.142 83.13h-75.457ZM727.891-87.869H87.869v-369.262l365.587-297.391 74.37 66.87-74.261 150.087h322.326v78.217H330.218l78.608-156.826-242.739 196.152v253.935h561.804v78.218ZM495.869-335.522v-78.217h376.022v78.217H495.869Zm0 123.826v-78.217h328.262v78.217H495.869ZM330.978-328.239Z"/></svg>