<svg xmlns="http://www.w3.org/2000/svg" height="24" viewBox="0 -960 960 960" width="24"><path d="M611.693-633.846q3.846-37.538-2.423-60.269-6.269-22.73-29.5-51.961-29.077-36.923-39-70.653-9.923-33.731-4.846-77.115h57.922q-5.692 43.692 5 66.922 10.692 23.231 34.846 56.385 24.461 33.077 32.846 64.692 8.384 31.615 3.308 71.999h-58.153Zm148.307 0q3.846-37.538-2.731-60.269-6.577-22.73-29.808-51.961-29.076-36.923-38.692-70.653-9.615-33.731-4.538-77.115h57.306q-5.692 43.692 5 66.922 10.692 23.231 34.846 56.385 24.462 33.077 32.846 64.692 8.385 31.615 3.308 71.999H760Zm-20.001 533.845H100.001v-411.768l377.692-244.999 50.384 51.922-84.539 138.693h336.461v59.999h-443.92l88.155-144.771L160-479.539V-160h579.999v59.999ZM500.001-370.77v-59.999h359.998v59.999H500.001Zm0 135.384v-59.998h319.998v59.998H500.001Zm-170-139.309Z"/></svg>