<svg xmlns="http://www.w3.org/2000/svg" height="20" viewBox="0 -960 960 960" width="20"><path d="M611.693-593.846q9.846-41.538-7.423-70.769-17.269-29.23-37.5-57.461-30.077-39.923-37.5-68.153-7.423-28.231-1.346-71.615h49.922q-8.692 40.692 4.5 67.422 13.192 26.731 36.346 55.885 30.461 39.077 40.346 71.692 9.884 32.615 2.808 72.999h-50.153Zm131.307 0q9.846-41.538-7.231-70.769-17.077-29.23-37.308-57.461-30.076-39.923-37.692-68.153-7.615-28.231-1.538-71.615h50.306q-8.692 40.692 4.5 67.422 13.192 26.731 36.346 55.885 30.462 39.077 40.346 71.692 9.885 32.615 2.808 72.999H743Zm-43.001 477.845H116.001v-323.768l354.692-289.999 51.384 50.922-86.539 164.693h312.461v51.999h-395.92l92.155-173.771L168-416.539V-168h531.999v51.999ZM524.001-346.77v-51.999h319.998v51.999H524.001Zm0 115.384v-51.998h271.998v51.998H524.001Zm-178-129.309Z"/></svg>