<svg xmlns="http://www.w3.org/2000/svg" height="20" viewBox="0 -960 960 960" width="20"><path d="M554.479-155.607q-13.566 16.696-35.044 18.696-21.478 2-38.044-13.131L339.826-270.347q-49.957-42.391-72.718-103.261-22.761-60.87-11.065-125.522l-49.088-37.392q-13.565-10-17.413-26.283-3.848-16.282 1.587-30.847h-40.652v86.826q0 37.348-25.804 63.435-25.805 26.087-63.153 26.087v-439.394q37.348 0 63.153 26.087 25.804 26.088 25.804 63.436v84h112.218l58-67q13.565-16.131 34.261-17.631 20.696-1.5 36.261 12.631l46.087 37.391q61.522-23.391 126.957-11.913 65.435 11.479 114.957 52.87l147.001 123.305q15.565 13 18.065 33.913 2.5 20.913-12.065 38.609l-277.74 325.393Z"/></svg>