<svg xmlns="http://www.w3.org/2000/svg" height="20" viewBox="0 -960 960 960" width="20"><path d="M480-125.587 0-624q93.76-91.196 216.641-143.63Q339.522-820.065 480-820.065q140.478 0 263.359 52.435Q866.239-715.196 960-624L834-494.413q-15.522-4.283-31.185-6.424-15.663-2.141-32.185-2.141-94.222 0-160.578 66.117-66.356 66.117-66.356 160.818 0 10.195.619 18.913.62 8.717 2.444 17.966 1.825 9.249 4.457 17.935 2.632 8.686 5.11 17.403L480-125.587Zm249.13-.956v-108h-108v-83h108v-108h83.001v108h108v83h-108v108H729.13Z"/></svg>