<svg xmlns="http://www.w3.org/2000/svg" height="20" viewBox="0 -960 960 960" width="20"><path d="M120-129v-118h478v118H120Zm503.625-277Q533-406 469.5-469.875q-63.5-63.874-63.5-154.5Q406-715 469.875-778.5q63.874-63.5 154.5-63.5Q715-842 778.5-778.125q63.5 63.874 63.5 154.5Q842-533 778.125-469.5q-63.874 63.5-154.5 63.5ZM120-469v-118h214.27q4.73 33 17.23 62t29.5 56H120Zm0 170v-118h296q38.227 34.242 83.613 54.621Q545-342 598-337v38H120Zm462-211h84v-96h-84v96Zm42-144q17.6 0 29.8-12.2T666-696q0-17.6-12.2-29.8T624-738q-17.6 0-29.8 12.2T582-696q0 17.6 12.2 29.8T624-654Z"/></svg>