<svg xmlns="http://www.w3.org/2000/svg" height="20" viewBox="0 -960 960 960" width="20"><path d="M559.755-178.848q-47.668 0-91.842-13.478t-81.609-37.195q-54.152-3.24-112.007-23.636-57.855-20.397-105.565-66.87-47.711-46.473-77.787-121.254Q60.87-516.063 60.87-627.996v-24.688q0-53.447 37.311-90.958 37.311-37.51 90.82-37.51 49.913 0 84.967 32.239 35.055 32.239 40.968 79.674 32.804-9 59.684-23.381Q401.5-707 428.022-721q28.467-14.547 59.425-24.991 30.958-10.444 72.239-10.444 42.227 0 72.926 10.563 30.698 10.564 59.366 25.111 26.761 14 53.522 28.261t59.565 23.261q5.913-48.435 40.968-80.174 35.054-31.739 84.967-31.739 53.509 0 90.82 37.31 37.31 37.311 37.31 90.82v24.718q0 112.065-30.08 186.934-30.071 74.87-77.865 121.164-47.793 46.293-105.065 66.869T733.777-229.13q-37.516 23.326-81.935 36.804-44.419 13.478-92.087 13.478ZM276.869-346.326q-20.169-33.629-31.454-73.861-11.285-40.233-11.285-84.423v-148.385q0-18.977-13.082-32.067-13.083-13.09-32.048-13.09-18.965 0-32.048 13.082-13.083 13.083-13.083 32.048v24.718q0 128.652 41.392 192.076 41.391 63.423 91.608 89.902Zm134.827-165.609q26.956-8.478 46.554-18.217 19.598-9.739 36.775-19.756 17.656-10.256 31.928-17.098 14.272-6.842 32.899-6.842 18.626 0 32.78 6.778 14.154 6.777 31.281 16.94 17.478 10.478 37.076 20.097 19.598 9.62 47.315 18.098v-53.629q-18.478-6.197-32.956-13.316-14.478-7.12-26.718-15.598-19.478-11.239-39.817-21.098-20.339-9.859-48.813-9.859-28.474 0-48.813 9.859-20.339 9.859-40.817 21.098-12.24 8.478-26.598 15.598-14.359 7.119-32.076 13.316v53.629Zm431.435 165.609q50.217-26.479 91.608-89.991 41.392-63.512 41.392-191.733v-24.639q0-18.898-13.083-32.181-13.083-13.282-32.048-13.282-18.965 0-32.048 13.106-13.082 13.105-13.082 32.105v148.547q0 44.242-11.185 84.111-11.185 39.87-31.554 73.957Z"/></svg>