<svg xmlns="http://www.w3.org/2000/svg" height="24" viewBox="0 -960 960 960" width="24"><path d="M446.783-182.477q-107.301 0-182.412-75.111T189.26-440q0-8.739.718-16.63.717-7.891 1.587-16.63-3.305.869-6.913 1.304-3.609.435-6.913.435-49.359 0-83.441-33.918t-34.082-83.04q0-49.359 31.457-83.441 31.457-34.081 80.805-34.081 36.957 0 67.979 19.348 31.022 19.347 43.717 48.347 30.739-26.043 72.674-42.63 41.935-16.587 89.935-16.587h400q22.087 0 37.544 15.457 15.457 15.457 15.457 37.544v71.521q0 22.088-15.457 37.544Q868.87-520 846.783-520H703.74v80q0 107.301-74.946 182.412-74.945 75.111-182.011 75.111ZM177.739-548.479q17 0 28.5-11.5t11.5-28.5q0-17-11.5-28.5t-28.5-11.5q-17 0-28.5 11.5t-11.5 28.5q0 17 11.5 28.5t28.5 11.5ZM446.783-300q58 0 99-41t41-99q0-58-41-99t-99-41q-58 0-99 41t-41 99q0 58 41 99t99 41Zm0-60q33 0 56.5-23.5t23.5-56.5q0-33-23.5-56.5t-56.5-23.5q-33 0-56.5 23.5t-23.5 56.5q0 33 23.5 56.5t56.5 23.5Zm0-80Z"/></svg>