<svg xmlns="http://www.w3.org/2000/svg" height="24" viewBox="0 -960 960 960" width="24"><path d="M118.087-358.087v-243.826h203.826v158.63h-35.761l36.718 85.196h-64.066l-36-80h-40.891v80h-63.826Zm233.109 0 61.434-243.826H515.5l61.435 243.826h-64.783L498.87-414.5h-69.283l-14.804 56.413h-63.587Zm276.935 0-60.718-243.826H631l29.522 118.326 29.283-118.326h60.717l29.283 118.326 29.76-118.326h64.066l-61.196 243.826h-63.587l-28.565-116.261-28.565 116.261h-63.587ZM443.587-474.5h39.761l-11.196-45.022h-17.369L443.587-474.5Zm-261.674-23.587h76.174v-40h-76.174v40Z"/></svg>