<svg xmlns="http://www.w3.org/2000/svg" height="24" viewBox="0 -960 960 960" width="24"><path d="M750-105 476-379l-82 82q5 14 7.5 28.333Q404-254.333 404-240q0 70-49 119T236-72q-70 0-118.5-49T69-240q0-70 48.5-119T236-408q14.333 0 28.667 2.5Q279-403 293-398l82-82-82-82q-14 5-28.333 7.5Q250.333-552 236-552q-70 0-118.5-49T69-720q0-70 48.5-119T236-888q70 0 119 49t49 119q0 14.333-2.5 28.667Q399-677 394-663l497 497v61H750ZM618-520 516-621l234-234h142v61L618-520ZM236.212-648Q266-648 287.5-669.212q21.5-21.213 21.5-51Q309-750 287.58-771q-21.421-21-51.5-21Q206-792 185-770.788q-21 21.213-21 51Q164-690 185.212-669q21.213 21 51 21ZM476-437q18 0 30.5-12.5T519-480q0-18-12.5-30.5T476-523q-18 0-30.5 12.5T433-480q0 18 12.5 30.5T476-437ZM236.212-168Q266-168 287.5-189.212q21.5-21.213 21.5-51Q309-270 287.58-291q-21.421-21-51.5-21Q206-312 185-290.788q-21 21.213-21 51Q164-210 185.212-189q21.213 21 51 21Z"/></svg>