<svg xmlns="http://www.w3.org/2000/svg" height="24" viewBox="0 -960 960 960" width="24"><path d="M780-144 484-440 350-306q9 15 13.5 31.5T368-240q0 51.15-36.394 87.575Q295.212-116 244.106-116T156.5-152.394q-36.5-36.394-36.5-87.5t36.425-87.606Q192.85-364 244-364q18 0 34.5 4.5T310-346l134-134-134-134q-15 9-31.5 13.5T244-596q-51.15 0-87.575-36.394Q120-668.788 120-719.894t36.394-87.606q36.394-36.5 87.5-36.5t87.606 36.425Q368-771.15 368-720q0 18-4.5 34.5T350-654l490 490v20h-60ZM580-536l-40-40 240-240h60v20L580-536Zm-336-88q39.6 0 67.8-28.2Q340-680.4 340-720q0-39.6-28.2-67.8Q283.6-816 244-816q-39.6 0-67.8 28.2Q148-759.6 148-720q0 39.6 28.2 67.8Q204.4-624 244-624Zm240 138q-2.4 0-4.2 1.8-1.8 1.8-1.8 4.2 0 2.4 1.8 4.2 1.8 1.8 4.2 1.8 2.4 0 4.2-1.8 1.8-1.8 1.8-4.2 0-2.4-1.8-4.2-1.8-1.8-4.2-1.8ZM244-144q39.6 0 67.8-28.2Q340-200.4 340-240q0-39.6-28.2-67.8Q283.6-336 244-336q-39.6 0-67.8 28.2Q148-279.6 148-240q0 39.6 28.2 67.8Q204.4-144 244-144Z"/></svg>