<svg xmlns="http://www.w3.org/2000/svg" height="20" viewBox="0 -960 960 960" width="20"><path d="M751.693-153.231 481.539-422.386 379.153-319q8.384 16 12.461 32.662 4.077 16.663 4.077 33.902 0 59.724-40.92 101.156-40.92 41.433-101.192 41.433-58.621 0-100.407-41.421-41.786-41.42-41.786-100.691t41.432-100.733q41.433-41.461 101.156-41.461 17.24 0 33.902 4.577 16.663 4.577 32.663 12.962L423.924-479 320.539-582.386q-16 8.385-32.663 12.462-16.662 4.077-33.902 4.077-59.723 0-101.156-41.421-41.432-41.42-41.432-100.691t41.42-100.733q41.421-41.461 100.692-41.461 59.271 0 100.732 41.433 41.461 41.432 41.461 101.156 0 17.239-4.077 33.902Q387.537-657 379.153-641l469.461 467.461v20.308h-96.921ZM587.307-526.154l-58.614-58.615 223-222h96.921v20.308L587.307-526.154Zm-333.521-91.692q37.291 0 63.599-26.555 26.308-26.556 26.308-63.847t-26.556-63.598q-26.555-26.308-63.846-26.308t-63.599 26.555q-26.308 26.556-26.308 63.847t26.556 63.598q26.555 26.308 63.846 26.308Zm227.753 151.845q5.599 0 9.799-4.2 4.2-4.199 4.2-9.799t-4.2-9.799q-4.2-4.2-9.799-4.2-5.6 0-9.8 4.2-4.2 4.199-4.2 9.799t4.2 9.799q4.2 4.2 9.8 4.2ZM253.786-161.846q37.291 0 63.599-26.555 26.308-26.556 26.308-63.847t-26.556-63.598q-26.555-26.308-63.846-26.308t-63.599 26.555q-26.308 26.556-26.308 63.847t26.556 63.598q26.555 26.308 63.846 26.308Z"/></svg>