<svg xmlns="http://www.w3.org/2000/svg" height="20" viewBox="0 -960 960 960" width="20"><path d="M312.239-312.239v-119.857q20.4 0 34.2-13.786 13.8-13.786 13.8-34.166 0-20.379-13.8-34.166-13.8-13.786-34.2-13.786v-119.761h335.522v119.857q-20.4 0-34.2 13.786-13.8 13.786-13.8 34.166 0 20.379 13.8 34.166 13.8 13.786 34.2 13.786v119.761H312.239Zm167.761-63q9 0 15-6t6-15q0-9-6-14.881-6-5.88-15-5.88t-15 5.928q-6 5.929-6 14.833 0 9 6 15t15 6ZM480-459q9 0 15-6t6-15q0-9-6-15t-15-6q-9 0-15 6t-6 15q0 9 6 15t15 6Zm0-84q9 0 15-5.928 6-5.929 6-14.833 0-9-6-15t-15-6q-9 0-15 6t-6 15q0 9 6 14.881 6 5.88 15 5.88ZM184.587-40.587v-878.826h590.826v878.826H184.587Zm83-203h424.826v-472.826H267.587v472.826Z"/></svg>