<svg xmlns="http://www.w3.org/2000/svg" height="24" viewBox="0 -960 960 960" width="24"><path d="M206.783-100.782q-44.305 0-75.153-30.848-30.848-30.848-30.848-75.153v-265.13l107.261 107.261q15.957 15.957 37.609 15.957 21.653 0 37.61-15.957l118.434-118.434 118.999 118.999q15.957 15.957 37.609 15.957 21.653 0 37.609-15.957l117.869-118.434 145.436 145.436v130.302q0 44.305-30.848 75.153-30.848 30.848-75.153 30.848H206.783Zm0-758.436h546.434q44.305 0 75.153 30.848 30.848 30.848 30.848 75.153v264.696L752.522-595.218q-15.957-15.956-37.609-15.956-21.653 0-37.609 15.956l-119 119-118.999-119q-15.957-15.956-37.609-15.956-21.653 0-37.609 15.956L246.218-477.349 100.782-622.785v-130.432q0-44.305 30.848-75.153 30.848-30.848 75.153-30.848Z"/></svg>