<svg xmlns="http://www.w3.org/2000/svg" height="20" viewBox="0 -960 960 960" width="20"><path d="M455.46-192.384q94.001-42.615 145.194-116.961Q651.846-383.692 651.846-480t-51.192-170.655q-51.193-74.346-145.194-116.961 54.924 59.615 82.193 133 27.269 73.385 27.269 154.116 0 80.731-27.269 154.616-27.269 73.885-82.193 133.5Zm-115.614 76.383q-9.614 0-29.566-2.27-19.952-2.269-39.661-6.807 115.306-47.385 178.306-143.098 62.999-95.712 62.999-211.652 0-115.941-62.999-211.825-63-95.884-178.306-143.269 11.384-3.538 32.498-6.307 21.115-2.77 36.729-2.77 74.863 0 140.706 28.42 65.844 28.42 115.564 77.627 49.721 49.208 78.725 115.73 29.004 66.521 29.004 142.155 0 75.211-28.925 141.392t-78.725 115.994q-49.799 49.814-115.643 78.247-65.843 28.433-140.706 28.433ZM564.922-480Z"/></svg>