<svg xmlns="http://www.w3.org/2000/svg" height="24" viewBox="0 -960 960 960" width="24"><path d="M358.87-60.782q-44.436 0-86.089-8.174t-80.262-23.957q140.697-39.304 227.871-146Q507.565-345.609 507.565-480T420.39-721.087q-87.174-106.696-227.871-146 38.609-15.783 80.262-23.957 41.653-8.174 86.089-8.174 86.956 0 163.065 32.913t132.935 89.739q56.826 56.826 89.739 133.218Q777.523-566.957 777.523-480q0 86.957-32.914 163.348-32.913 76.392-89.739 133.218-56.826 56.826-132.935 89.74-76.109 32.912-163.065 32.912Z"/></svg>