<svg xmlns="http://www.w3.org/2000/svg" height="24" viewBox="0 -960 960 960" width="24"><path d="M363.846-100.001q-21.044 0-40.444-2.77-19.399-2.769-38.783-8.307 112.922-46.385 180.113-146.769Q531.924-358.231 531.924-480q0-121.769-67.192-222.153-67.191-100.384-180.113-146.769 19.384-5.538 38.783-8.307 19.4-2.77 40.444-2.77 78.85 0 148.2 29.92t120.649 81.21q51.3 51.291 81.225 120.629 29.925 69.337 29.925 148.173T713.92-331.863q-29.925 69.369-81.225 120.682-51.299 51.314-120.649 81.247t-148.2 29.933Z"/></svg>