<svg xmlns="http://www.w3.org/2000/svg" height="24" viewBox="0 -960 960 960" width="24"><path d="M359.522-71.87q-37.261 0-71.903-6.054-34.641-6.054-67.706-17.924 132.217-40.282 213.522-146Q514.739-347.565 514.739-480t-81.304-238.152q-81.305-105.718-213.522-146 33.065-11.87 67.706-17.924 34.642-6.055 71.903-6.055 84.674 0 158.989 32.098t129.511 87.294q55.196 55.195 87.293 129.63Q767.413-564.674 767.413-480t-32.098 159.109q-32.097 74.435-87.293 129.63-55.196 55.196-129.511 87.294T359.522-71.869Z"/></svg>