<svg xmlns="http://www.w3.org/2000/svg" height="20" viewBox="0 -960 960 960" width="20"><path d="M247.538-333.384q-12.384-5.692-20.461-20.135Q219-367.961 219-383.538v-157.077l-71.693-34.308q-7.692-4.231-11.923-10.706-4.231-6.476-4.231-14.39 0-7.915 4.231-14.371t11.923-10.687L418.12-757.88q5.844-3.043 12.08-4.274 6.236-1.231 12.8-1.231 6.564 0 12.8 1.231 6.236 1.231 12.111 4.256L776.77-608.462q7.461 5 11.307 11.285 3.847 6.285 3.847 13.562v215q0 5.5-5.258 10.75t-11.27 5.25q-6.011 0-10.742-5.25-4.731-5.25-4.731-10.75v-216.923L667-540.615v157.077q0 15.577-7.577 29.519-7.577 13.943-20.961 20.635l-170.385 84.923q-6.462 3.231-12.493 3.962-6.031.73-12.379.73t-12.584-.73q-6.236-.731-12.698-3.962l-170.385-84.923Zm186.231-136.231q5.385 3.077 9.616 3.077 4.23 0 9.615-3.077L713.231-600 453-729.615q-5.385-3.077-9.615-3.077-4.231 0-9.616 3.077L172.769-600l261 130.385ZM433-278.307q5.385 3.077 10 3.077t10-3.077l170.462-83.462q6.153-3.846 8.846-8.846 2.692-5 2.692-12.692v-140.308l-164.692 81.077q-7.462 4.231-13.821 5.461-6.359 1.231-13.487 1.231-8.462 0-14.654-1.231-6.192-1.23-12.654-5.461L251-523.615v140.308q0 6.153 2.692 11.923 2.693 5.769 8.846 9.615L433-278.307Zm11-180.462Zm-1 62.154Zm0 0Z"/></svg>