<svg xmlns="http://www.w3.org/2000/svg" height="20" viewBox="0 -960 960 960" width="20"><path d="M796.923-368.615v-216.923l-291.846 144q-11.865 6.461-25.048 6.461-13.183 0-25.106-6.461L183.538-574.923q-7.692-4.231-12.308-10.652-4.615-6.421-4.615-14.269t4.615-14.425q4.616-6.577 12.308-10.808l271.356-132.98q5.857-3.049 12.04-4.573 6.183-1.524 13.066-1.524 6.883 0 13.056 1.615 6.173 1.616 12.021 4.846L812.77-608.462q7.168 4.121 11.661 10.451 4.493 6.33 4.493 15.313v214.083q0 6.8-4.548 11.4-4.547 4.6-11.269 4.6t-11.453-4.6q-4.731-4.6-4.731-11.4Zm-342 120.154-167.385-82.923q-13.384-6.692-22.461-20.455Q256-365.602 256-381.538v-87.308l198.923 98.308q11.865 6.461 25.048 6.461 13.183 0 25.106-6.461L704-468.846v87.449q0 16.179-9.077 29.75-9.077 13.571-22.461 20.263l-167.385 82.923q-5.939 3.231-12.209 4.846-6.269 1.616-12.868 1.616t-12.868-1.616q-6.27-1.615-12.209-4.846Z"/></svg>