<svg xmlns="http://www.w3.org/2000/svg" height="20" viewBox="0 -960 960 960" width="20"><path d="M838.87-324.565v-229.826L524.435-397.739q-21.424 10.826-44.538 11.109-23.115.282-44.332-11.109L117.087-556.695q-13.391-6.696-20.37-18.13-6.978-11.434-6.978-25T96.717-625q6.979-11.609 20.37-18.305l318.478-158.391q10.405-5.695 21.514-8.543 11.108-2.848 22.921-2.848 11.813 0 22.921 2.848 11.109 2.848 21.514 8.543l377.174 187.739q11.826 6.696 19.305 17.805 7.478 11.109 7.478 25.418V-324q0 18.691-12.833 31.585-12.833 12.894-31.435 12.894-18.602 0-31.928-13.177-13.326-13.176-13.326-31.867ZM435.565-158.304 261.652-244.13q-24.217-12.391-38.891-35.743-14.674-23.352-14.674-50.867v-91.259L435.565-308.26q21.424 10.826 44.538 10.826 23.115 0 44.332-10.826l227.478-113.739v91.259q0 27.515-14.674 50.867-14.674 23.352-38.891 35.743l-173.913 85.826q-10.405 5.695-21.514 8.261-11.108 2.565-22.921 2.565-11.813 0-22.921-2.565-11.109-2.566-21.514-8.261Z"/></svg>