<svg xmlns="http://www.w3.org/2000/svg" height="20" viewBox="0 -960 960 960" width="20"><path d="M188-176q-13.546 0-22.773-9.227T156-208h32v32Zm-32-110v-72h32v72h-32Zm0-150v-72h32v72h-32Zm0-150v-72h32v72h-32Zm0-150q0-13.546 9.227-22.773T188-768v32h-32Zm110 560v-32h72v32h-72Zm150 0v-32h72v32h-72Zm150 0v-32h72v32h-72Zm150 0v-32h32q0 13.846-9.227 22.923Q729.546-176 716-176ZM316.615-280q-24.315 0-40.465-16.15Q260-312.3 260-336.615v-430.77q0-24.315 16.15-40.465Q292.3-824 316.615-824h430.77q24.315 0 40.465 16.15Q804-791.7 804-767.385v430.77q0 24.315-16.15 40.465Q771.7-280 747.385-280h-430.77Zm0-32h430.77q9.231 0 16.923-7.692Q772-327.385 772-336.615v-373.846H567.077q-12.223 0-20.265-8.043-8.043-8.042-8.043-20.265V-792H316.615q-9.23 0-16.923 7.692Q292-776.615 292-767.385v430.77q0 9.23 7.692 16.923Q307.385-312 316.615-312ZM292-792v480-480Z"/></svg>