<svg xmlns="http://www.w3.org/2000/svg" height="20" viewBox="0 -960 960 960" width="20"><path d="M194-200q-8.25 0-14.125-5.875T174-220h20v20Zm-20-98v-72h20v72h-20Zm0-150v-72h20v72h-20Zm0-150v-72h20v72h-20Zm0-150q0-8.25 5.875-14.125T194-768v20h-20Zm98 548v-20h72v20h-72Zm150 0v-20h72v20h-72Zm150 0v-20h72v20h-72Zm150 0v-20h20q0 9-5.875 14.5T722-200Zm-404-92q-22.7 0-37.35-14.65Q266-321.3 266-344v-416q0-22.7 14.65-37.35Q295.3-812 318-812h416q22.7 0 37.35 14.65Q786-782.7 786-760v416q0 22.7-14.65 37.35Q756.7-292 734-292H318Zm448-430v-38q0-12-10-22t-22-10H542v44q0 11.05 7.475 18.525Q556.95-722 568-722h198Z"/></svg>