<svg xmlns="http://www.w3.org/2000/svg" height="20" viewBox="0 -960 960 960" width="20"><path d="M194-200q-8.7 0-14.35-5.65T174-220h20v20Zm-20-98v-72h20v72h-20Zm0-150v-72h20v72h-20Zm0-150v-72h20v72h-20Zm0-150q0-8.7 5.65-14.35T194-768v20h-20Zm98 548v-20h72v20h-72Zm150 0v-20h72v20h-72Zm150 0v-20h72v20h-72Zm150 0v-20h20q0 9-5.65 14.5T722-200Zm-404-92q-22.7 0-37.35-14.65Q266-321.3 266-344v-416q0-22.7 14.65-37.35Q295.3-812 318-812h416q22.7 0 37.35 14.65Q786-782.7 786-760v416q0 22.7-14.65 37.35Q756.7-292 734-292H318Zm0-20h416q12 0 22-10t10-22v-378H568q-11.3 0-18.65-7.35Q542-736.7 542-748v-44H318q-12 0-22 10t-10 22v416q0 12 10 22t22 10Zm-32-480v480-480Z"/></svg>