<svg xmlns="http://www.w3.org/2000/svg" height="24" viewBox="0 -960 960 960" width="24"><path d="m610-462-24-24q9-54-29-92t-91-28l-24-24q9-4 18.5-5t19.5-1q57 0 96.5 39.5T616-500q0 10-.5 19.5T610-462Zm126 122-22-18q38-29 68-64.5t50-77.5q-50-101-144.5-160.5T480-720q-29 0-56.5 4T368-704l-22-22q32-12 65.5-17t68.5-5q116 0 215 59t154 161q4 7 5.5 13.5T856-500q0 8-1.5 14.5T849-472q-20 39-49 72t-64 60Zm-256 88q-114 0-210-59.5T115-469q-5-7-7-15t-2-16q0-8 2-16t7-15q26-42 57-79.5t72-65.5L142-778q-4-4-4.5-9.5T142-798q5-5 10-5t10 5l636 636q4 4 4.5 9.5T798-142q-5 5-10 5t-10-5L636-284q-36 18-75.5 25t-80.5 7ZM264-656q-45 29-79.5 68.5T128-500q50 101 144.5 160.5T480-280q35 0 69.5-5t66.5-19l-74-74q-14 9-29.5 11.5T480-364q-57 0-96.5-39.5T344-500q0-17 3-32.5t11-29.5l-94-94Zm277 125Zm-101 51Z"/></svg>