<svg xmlns="http://www.w3.org/2000/svg" height="24" viewBox="0 -960 960 960" width="24"><path d="M788.923-114.461 633.231-269.692q-35.77 16.385-74.462 23.038Q520.077-240 480-240q-118.615 0-217.692-62.384-99.077-62.385-159.001-164.231-5-8.231-7.115-16.577-2.115-8.346-2.115-16.808t2.5-17.192q2.5-8.731 7.5-16.193 25.846-40.538 54.692-77.923 28.846-37.384 67.231-65.615l-111.539-112 28.308-28.308 674.462 674.462-28.308 28.308ZM480-353.846q15.615 0 29.846-2.154t27.308-9.769L345.769-557.154q-6.846 13.077-9.385 27.308-2.538 14.231-2.538 29.846 0 61.154 42.5 103.654 42.5 42.5 103.654 42.5Zm264.308 22.615L620.385-454.154q3.154-11.615 4.461-22.692 1.308-11.077 1.308-23.154 0-61.154-42.5-103.654-42.5-42.5-103.654-42.5-12.077 0-23.154 1.692-11.077 1.693-21.923 6.616l-98.154-97.385q34.308-13.154 70.116-18.962Q442.692-760 480-760q119.385 0 219.346 62.5 99.962 62.5 159.116 165.885 4.231 7.23 6.731 15.192 2.5 7.961 2.5 16.423 0 8.462-2.385 16.423-2.385 7.962-6.615 15.192-22.462 40.077-50.5 74.539-28.039 34.462-63.885 62.615ZM587.769-486 467-606q24.462-5 47.808 3.231t41.115 25.692q18.539 18 26.808 41.769Q591-511.538 587.769-486Z"/></svg>