<svg xmlns="http://www.w3.org/2000/svg" height="20" viewBox="0 -960 960 960" width="20"><path d="M643-442 538-547q-4 1-2.5 1.5t3.5-1.5l-97-97q10.151-2 19.575-3Q471-648 480-648q70 0 119 49t49 119q0 9-.5 19t-4.5 19Zm159 161-72-74q30-27 55.5-58t45.5-67q-51-100-145-158t-206-58q-20.893 0-41.446 1.75Q418-692.5 398-688l-84-84q40-16 81.545-21.5Q437.091-799 480-799q141 0 260.5 73t180.625 202.123Q926-513 928.5-501.981T931-480q0 10.962-2 22.481Q927-446 923-435q-23 44-54 82t-67 72ZM480-161q-137 0-253.5-71.5T44.928-426.19Q38-440 35.5-453.026q-2.5-13.025-2.5-27Q33-494 35.5-508t9.5-27q21-42 49.764-76.981Q123.53-646.961 158-678l-65-64q-14-13-14.5-29.5T92-802q14-14 31-14t31 14l633 633q14 14 13.5 30.5T787-109q-14 14-30.5 14T726-109l-82-82q-39.403 16-80.903 23-41.5 7-83.097 7ZM232-606q-31 28-57 58.5T130-480q49 101 143.5 158.5T480-264q21.207 0 42.103-2.5Q543-269 563-274l-45-45q-9 4-19 5.5t-19 1.5q-70 0-119-49t-49-119q0-9 2-19t3-19l-85-88Zm311 70ZM418-425Z"/></svg>