<svg xmlns="http://www.w3.org/2000/svg" height="24" viewBox="0 -960 960 960" width="24"><path d="M280-222.477q-107.301 0-182.412-75.121-75.11-75.12-75.11-182.435t75.11-182.402Q172.7-737.523 280-737.523h400q107.301 0 182.412 75.121 75.111 75.12 75.111 182.435t-75.111 182.402Q787.301-222.477 680-222.477H280ZM280-320h400q66 0 113-47t47-113q0-66-47-113t-113-47H280q-66 0-113 47t-47 113q0 66 47 113t113 47Zm400-40q50 0 85-35t35-85q0-50-35-85t-85-35q-50 0-85 35t-35 85q0 50 35 85t85 35ZM480-480Z"/></svg>