<svg xmlns="http://www.w3.org/2000/svg" height="20" viewBox="0 -960 960 960" width="20"><path d="M479.8-362.87q-9.461 0-18.587-3.913t-15.822-10.609L294.912-527.871q-14.391-14.3-14.174-34.498.217-20.198 14.696-34.59 15.435-14.956 35.022-14.674 19.587.283 34.544 15.24l65.999 66.999v-256.824q0-20.387 14.247-34.694 14.246-14.306 34.543-14.306 20.298 0 34.755 14.306 14.457 14.307 14.457 34.694v256.824L596-596.393q14.058-14.957 33.812-15.022 19.754-.066 35.189 14.891 15.044 14.957 14.761 34.827-.283 19.869-15.239 34.826L514.609-377.392q-7.096 6.696-16.222 10.609-9.126 3.913-18.587 3.913ZM270.5-172.782q-41.022 0-69.37-28.498-28.348-28.498-28.348-69.503v-22.999q0-20.387 14.246-34.694 14.246-14.307 34.544-14.307 20.298 0 34.754 14.307 14.457 14.307 14.457 34.694v22.999h418.434v-22.999q0-20.387 14.246-34.694 14.246-14.307 34.544-14.307 20.298 0 34.755 14.307 14.456 14.307 14.456 34.694v22.999q0 41.005-28.51 69.503-28.51 28.498-69.531 28.498H270.5Z"/></svg>