<svg xmlns="http://www.w3.org/2000/svg" height="20" viewBox="0 -960 960 960" width="20"><path d="M479.8-372q-11.2 0-22.5-5T438-390L281-547q-17-16.909-17-41.455Q264-613 281.522-630 300-648 323.5-647.5T365-629l56 57v-219q0-24.3 17.289-41.65 17.29-17.35 41.5-17.35Q504-850 521.5-832.65T539-791v219l57-57q16.667-18 40.333-18.5Q660-648 678.478-630 697-612 696.5-588T678-546L522-390q-8.4 8-19.7 13-11.3 5-22.5 5ZM275.717-158Q226-158 192-192.15T158-276v-13q0-24.3 17.289-41.65 17.29-17.35 41.5-17.35Q241-348 258.5-330.65T276-289v13h408v-13q0-24.3 17.289-41.65 17.29-17.35 41.5-17.35Q767-348 784.5-330.65T802-289v13q0 49.7-34.162 83.85Q733.676-158 683.96-158H275.717Z"/></svg>