<svg xmlns="http://www.w3.org/2000/svg" height="24" viewBox="0 -960 960 960" width="24"><path d="M301.538-332.308v-35.384h115.385v-56.923h-83.077v-30.77h83.077v-56.923H301.538v-35.384h150.77v215.384h-150.77Zm206.154 0v-215.384h150.77v215.384h-150.77Zm35.385-35.384h80v-144.616h-80v144.616ZM480.044-120q-66.583 0-124.775-25.038-58.192-25.039-101.692-68.539-43.5-43.5-68.539-101.648Q160-373.374 160-439.956q0-66.583 25.038-124.775 25.039-58.192 68.539-101.692 43.5-43.5 101.662-68.539Q413.402-760 480-760h15.231l-66.616-66.616 28.308-28.769 115.385 114.616-113.846 114.615-28.308-28.769L495.231-720H480q-117 0-198.5 81.5T200-440q0 117 81.5 198.5T480-160q117 0 198.5-81.5T760-440h40q0 66.539-25.038 124.731-25.039 58.192-68.539 101.692-43.5 43.5-101.648 68.539Q546.626-120 480.044-120Z"/></svg>