<svg xmlns="http://www.w3.org/2000/svg" height="20" viewBox="0 -960 960 960" width="20"><path d="M313.538-342.308v-23.384h111.385v-44.923h-71.077v-30.77h71.077v-44.923H313.538v-23.384h134.77v167.384h-134.77Zm198.154 0v-167.384h134.77v167.384h-134.77Zm23.385-23.384h88v-120.616h-88v120.616ZM480.044-130q-61.583 0-115.408-23.138-53.826-23.139-94.093-63.405-40.266-40.267-63.405-94.049Q184-364.374 184-425.956q0-61.583 23.138-115.408 23.139-53.826 63.405-94.093 40.267-40.266 94.063-63.405Q418.402-722 480-722h14.231l-54.616-55.616 23.308-21.769 93.385 92.616-91.846 92.615-23.308-21.769L496.231-690H480q-109 0-186.5 77.5T216-426q0 109 77.5 186.5T480-162q109 0 186.5-77.5T744-426h32q0 61.539-23.138 115.364-23.139 53.826-63.405 94.093-40.267 40.266-94.049 63.405Q541.626-130 480.044-130Z"/></svg>