<svg xmlns="http://www.w3.org/2000/svg" height="20" viewBox="0 -960 960 960" width="20"><path d="M559.437-250.828q51.086-42.435 79.585-102.5 28.499-60.064 28.499-127.172t-28.499-126.672q-28.499-59.565-79.585-102 29.13 52.087 43.629 109.972 14.5 57.885 14.5 119.2 0 60.13-14.5 118.608-14.499 58.477-43.629 110.564ZM777.523-480q0 84.522-31.761 160.044T659.327-187.89q-54.675 56.543-128.049 90.174-73.374 33.63-158.452 35.934-24.353.435-40.96-15.446-16.606-15.882-16.606-37.554 0-14.503 7.195-26.491 7.196-11.988 17.457-19.684 76.131-53.434 121.892-139.087Q507.565-385.696 507.565-480q0-94.304-45.761-179.956-45.761-85.653-121.892-139.087-10.261-7.696-17.457-19.684-7.195-11.988-7.195-26.491 0-21.672 16.606-37.554 16.607-15.881 40.96-15.446 85.078 2.304 158.452 35.934 73.374 33.631 128.049 90.175 54.674 56.543 86.435 132.065Q777.523-564.522 777.523-480Zm-159.957 0Z"/></svg>