<svg xmlns="http://www.w3.org/2000/svg" height="20" viewBox="0 -960 960 960" width="20"><path d="M465-181q98-29 159.5-112.5t61.5-187Q686-584 624.5-666T465-777q59 59 88.5 135.908Q583-564.185 583-480q0 83-29.5 161.5T465-181Zm253-299q0 64-21.5 121.5t-58.5 103q-37 45.5-87.787 76Q499.426-149 440-138q-15.7 2-23.35-3.707Q409-147.415 409-155q0-6.111 3-11.056 3-4.944 7-8.944 65-53 98.5-133.5T551-480q0-91-33.5-171.5T419-785q-4-4-7-8.944-3-4.945-3-11.056 0-7.585 7.65-13.293Q424.3-824 440-822q59.426 10 110.213 41Q601-750 638-704.5q37 45.5 58.5 103T718-480Zm-135 0Z"/></svg>