<svg xmlns="http://www.w3.org/2000/svg" height="24" viewBox="0 -960 960 960" width="24"><path d="M727.693-480q0 68.986-23.347 129.454Q681-290.077 639.769-242.615q-41.231 47.461-98.269 78.423-57.039 30.962-123.654 40.346-14.692 1.769-22.346-5.738-7.654-7.508-7.654-17.718 0-6.006 2.077-11.044 2.077-5.039 7-8.5 74.308-57.231 110.615-137.615Q543.846-384.846 543.846-480q0-95.154-36.308-175.539-36.307-80.384-110.615-137.615-4.923-3.461-7-8.544-2.077-5.082-2.077-11.061 0-10.164 7.654-17.664 7.654-7.5 22.346-5.731 66.615 8.615 123.654 39.961 57.038 31.347 98.269 78.808Q681-669.923 704.346-609.454 727.693-548.986 727.693-480Z"/></svg>