<svg xmlns="http://www.w3.org/2000/svg" height="20" viewBox="0 -960 960 960" width="20"><path d="M521-209q72-43 113.5-115.5t41.5-156q0-83.5-41.5-155.5T521-751q41 60 62 128.908Q604-553.185 604-480q0 72-21 141.5T521-209Zm239-271q0 80-29.5 151T650-204q-51 54-119.287 86.5T383-81q-18.7 1-31.35-11.207Q339-104.415 339-121q0-11.111 5.5-20.556Q350-151 358-157q75-54 118.5-140.5T520-480q0-96-43.5-182.5T358-803q-8-6-13.5-15.444Q339-827.889 339-839q0-16.585 12.65-28.793Q364.3-880 383-879q79.426 4 147.713 36.5Q599-810 650-756t80.5 125Q760-560 760-480Zm-156 0Z"/></svg>