<svg xmlns="http://www.w3.org/2000/svg" height="24" viewBox="0 -960 960 960" width="24"><path d="m507.769-230.692-79.615-199-199.77-81.154q-10.692-4.231-15.538-12.808-4.847-8.577-4.847-17.269 0-8.692 4.962-17.269 4.962-8.577 15.654-12.808l157.923-59.385-205.769-205.769q-5.846-5.846-6.231-13.884-.384-8.039 6.231-14.654 6.615-6.616 14.269-6.616t14.27 6.616l655.384 655.384q5.847 5.847 6.231 13.77.385 7.923-6.231 14.538-6.615 6.616-14.269 6.616T836.154-181L628.077-388.846l-60.154 157.923q-4.231 10.693-12.808 15.654-8.576 4.962-17.269 4.962-8.692 0-17.269-4.846-8.577-4.846-12.808-15.539Zm167.693-281.077L644-542.462l64.615-167.692-168.461 63.846L509.461-677l200.078-76.077q9.692-4.231 18.884-1.616 9.193 2.616 15.654 9.077 6.462 6.462 9.077 15.654 2.616 9.192-1.615 18.885l-76.077 199.308ZM537.385-264.923l59.461-155.154L417-599.923l-155.154 59.461 196 79.539 79.539 196ZM592.462-594Zm-85.539 84Z"/></svg>