<svg xmlns="http://www.w3.org/2000/svg" height="20" viewBox="0 -960 960 960" width="20"><path d="m478.39-164.521-87.261-236.783-236.783-87.261q-14.957-6.695-23.218-19.087-8.261-12.391-8.261-27.348 0-14.957 8.261-26.848 8.261-11.892 23.381-18.225l158.707-64.45-164.9-164.9q-12.361-12.361-12.361-28.723t12.131-28.16q11.797-12.13 28.159-12.13 16.363 0 28.471 12.108l661.612 661.612q12.108 12.108 11.825 28.268-.282 16.161-12.413 27.927-11.797 12.131-27.877 12.131-16.079 0-28.44-12.356l-175.64-174.645-63.884 158.707q-6.334 15.12-18.225 23.098-11.892 7.979-26.848 7.979-14.957 0-27.349-7.979-12.391-7.978-19.087-22.935Zm219.741-321.697L473.478-707.306 740.13-814.262q14.803-6.696 28.872-2.614 14.068 4.083 23.56 13.575 9.492 9.491 13.857 23.56 4.365 14.068-2.331 28.871L698.131-486.218Z"/></svg>