<svg xmlns="http://www.w3.org/2000/svg" height="24" viewBox="0 -960 960 960" width="24"><path d="M484.39-121.521 377.129-387.304 111.346-494.565q-16.957-6.695-25.218-20.587-8.26-13.891-8.26-28.848 0-14.957 8.76-28.848 8.761-13.892 25.718-20.587l182.87-69.088-176.13-176.13q-13.131-13.131-13.131-31.326 0-18.196 13.131-31.327 13.13-13.13 31.326-13.13 18.196 0 31.326 13.13l719.568 719.568q13.13 13.13 12.847 31.109-.282 17.978-13.413 31.108-13.13 13.131-31.043 13.131-17.913 0-31.044-13.131l-186.87-185.87-68.522 182.87q-6.696 16.957-20.587 25.436-13.892 8.478-28.848 8.478-14.957 0-28.849-7.978-13.891-7.979-20.587-24.936Zm236.741-365.697L476.478-731.306 759.13-838.262q15.957-6.696 31.131-2.566 15.174 4.131 25.435 14.392t14.674 25.435q4.414 15.174-2.282 31.131L721.131-487.218Z"/></svg>