<svg xmlns="http://www.w3.org/2000/svg" height="20" viewBox="0 -960 960 960" width="20"><path d="M440-728h85v-86h-85v86ZM329-49q-22 0-38.5-16.5T274-104v-6q-41 0-69.5-27T176-205v-426q0-36.092 21-63.046T250-725l532 532h1q-6 35-31.5 59T686-110v6q0 22-16.5 38.5T631-49q-22 0-38.5-16.5T576-104v-6H384v6q0 22-16.5 38.5T329-49Zm425-51L115-738q-13-12.667-13-30.333Q102-786 115-799t30.667-13q17.666 0 30.333 13l639 639q13 12.636 13 29.818Q828-113 815-100t-30.667 13Q766.667-87 754-100Zm30-194L648-430v-120q0-17.4-12.3-29.7T606-592q-17.4 0-29.7 12.3T564-550v35L356-764v-50q0-35 24.5-59.5T440-898h85q35 0 59.5 24.5T609-814v86h77q41 0 69.5 27t28.5 68v339Zm-430 48q17.4 0 29.7-12.3T396-288v-289h-84v289q0 17.4 12.3 29.7T354-246Zm126 0q17.4 0 29.7-12.3T522-288v-166l-84-82v248q0 17.4 12.3 29.7T480-246Zm126 0q17.4 0 29.7-12.3T648-288v-40l-84-84v124q0 17.4 12.3 29.7T606-246Z"/></svg>