<svg xmlns="http://www.w3.org/2000/svg" height="24" viewBox="0 -960 960 960" width="24"><path d="m720-375.769-40-40v-222.693q0-10.769-6.923-17.692t-17.692-6.923H432.692l-46.154-46.154v-93.846q0-15.385 10.77-26.154Q408.077-840 423.461-840h119.616q15.385 0 26.154 10.769T580-803.077v100h75.385q26.654 0 45.634 18.992Q720-665.093 720-638.424v262.655Zm-93.846-93.846L590.769-505v-80.385q0-7.666 5.003-12.679t12.654-5.013q7.651 0 12.689 5.013 5.039 5.013 5.039 12.679v115.77ZM421.923-703.077h122.692v-101.538H421.923v101.538ZM335.331-120q-13.1 0-21.908-8.846-8.808-8.846-8.808-21.923V-160q-26.654 0-45.634-18.981Q240-197.961 240-224.615V-640q0-16.615 6.731-30.808 6.73-14.192 20.5-22.192L301-659.231h-21v434.616q0 10.769 6.923 17.692T304.615-200h350.77q10.769 0 17.692-6.923T680-224.615v-55.616l40 40v15.616q0 26.654-18.981 45.634Q682.039-160 655.385-160v9.231q0 13.077-8.862 21.923Q637.661-120 624.562-120q-13.1 0-21.908-8.846-8.808-8.846-8.808-21.923V-160H366.154v9.231q0 13.077-8.862 21.923Q348.43-120 335.331-120Zm16.243-150.769q-7.651 0-12.689-5.013-5.039-5.013-5.039-12.679v-299.462h35.385v299.462q0 7.666-5.003 12.679t-12.654 5.013Zm128.462 0q-7.651 0-12.69-5.013-5.038-5.013-5.038-12.679v-209.462l35.384 35.615v173.847q0 7.666-5.002 12.679-5.003 5.013-12.654 5.013Zm128.461 0q-7.651 0-12.689-5.013-5.039-5.013-5.039-12.679v-80.77l35.385 35.385v45.385q0 7.666-5.003 12.679t-12.654 5.013Zm-52.035-268.769Zm-80.154 112.461ZM830.231-73.154 89.615-813.538q-5.846-5.847-6.23-13.885-.385-8.039 6.23-14.654 6.616-6.615 14.269-6.615 7.654 0 14.27 6.615l740.615 740.615q5.846 5.847 6.231 13.77.385 7.923-6.231 14.538-6.615 6.616-14.269 6.616t-14.269-6.616Z"/></svg>