<svg xmlns="http://www.w3.org/2000/svg" height="24" viewBox="0 -960 960 960" width="24"><path d="M419.522-724.522h118.782v-94.348H419.522v94.348ZM319.435-53.433q-19.826 0-33.587-13.761-13.761-13.761-13.761-33.588-39.783 0-67.24-27.456-27.457-27.457-27.457-67.24v-433.217q0-34.175 19-61.175 19.001-27 51.61-31.609l534.479 534.48h-.434q-3.392 35.826-30.001 61.022-26.609 25.195-64.131 25.195 0 19.827-13.761 33.588-13.761 13.76-33.587 13.76-19.826 0-33.587-13.76-13.761-13.761-13.761-33.588H366.783q0 19.827-13.761 33.588-13.761 13.76-33.587 13.76Zm477.783 5.477L55-789.174q-13.13-13.13-13.13-31.326 0-18.196 13.13-31.326 13.13-13.131 31.326-13.131 18.196 0 31.326 13.131L859.87-109.609q13.131 13.131 13.131 30.827 0 17.695-13.131 30.826-13.13 13.13-31.326 13.13-18.196 0-31.326-13.13ZM782.61-301.434 653.566-430.478v-124.826q0-16.956-11.609-28.565-11.609-11.609-28.566-11.609-16.956 0-28.565 11.609-11.609 11.609-11.609 28.565v43.912L339.173-744.871v-73.999q0-33.478 23.435-56.913 23.435-23.435 56.914-23.435h118.782q33.479 0 56.914 23.435 23.435 23.435 23.435 56.913v94.348h69.26q39.783 0 67.24 27.457 27.457 27.456 27.457 67.239v328.392Zm-436.001 71.608q16.956 0 28.565-11.608 11.609-11.609 11.609-28.566v-312.13h-80.349V-270q0 16.957 11.609 28.566 11.609 11.608 28.566 11.608Zm133.391 0q16.957 0 28.566-11.608 11.608-11.609 11.608-28.566v-178.87l-80.348-80.218V-270q0 16.957 11.608 28.566 11.609 11.608 28.566 11.608Zm133.391 0q16.957 0 28.566-11.608 11.609-11.609 11.609-28.566v-45.478l-80.349-80.349V-270q0 16.957 11.609 28.566 11.609 11.608 28.565 11.608Z"/></svg>