<svg xmlns="http://www.w3.org/2000/svg" height="20" viewBox="0 -960 960 960" width="20"><path d="m744-318-72-72v-258H414l-72-72h42v-96q0-20 14-34t34-14h96q20 0 34 14t14 34v96h96q29 0 50.5 20t21.5 49v333ZM624-438l-48-48v-90q0-10.4 6.8-17.2 6.8-6.8 17.2-6.8 10.4 0 17.2 6.8 6.8 6.8 6.8 17.2v138ZM432-720h96v-96h-96v96ZM330-96q-17 0-29.5-12.5T288-138v-6q-29 0-50.5-20T216-213v-438q0-18.092 9.5-33.546T250-710l62 62h-24v432h384v-72l72 71.579v.895Q744-186 724-165q-20 21-52 21v6q0 17-12.5 29.5T630-96q-17 0-29.5-12.5T588-138v-6H372v6q0 17-12.5 29.5T330-96Zm30-168q-10.4 0-17.2-6.8-6.8-6.8-6.8-17.2v-287h48v287q0 10.4-6.8 17.2-6.8 6.8-17.2 6.8Zm120 0q-10.4 0-17.2-6.8-6.8-6.8-6.8-17.2v-216l48 48v168q0 10.4-6.8 17.2-6.8 6.8-17.2 6.8Zm120 0q-10.4 0-17.2-6.8-6.8-6.8-6.8-17.2v-96l48 48v48q0 10.4-6.8 17.2-6.8 6.8-17.2 6.8Zm-57-255Zm-78 126Zm278 277L115-743q-11-10.667-11-25.333Q104-783 115-794q11-11 25.667-11 14.666 0 25.333 11l628 628q11 10.636 11 24.818Q805-127 794-116q-11 11-25.667 11-14.666 0-25.333-11Z"/></svg>