<svg xmlns="http://www.w3.org/2000/svg" height="20" viewBox="0 -960 960 960" width="20"><path d="M821-470H406q-4.3 0-7.15-2.789-2.85-2.79-2.85-7 0-4.211 2.85-7.211t7.15-3h415l-77.783-77.783Q740-571 739-575q-1-4 3.522-8 4.478-4 7.478-3.5t6.961 4.461l84.078 84.078Q849-490 849-479.818T841-462l-84.043 84.043Q754-375 751-374.5t-7.478-3.5q-4.522-4-4.022-7.5t4.457-7.457L821-470ZM621-612v-100q0-14-9-23t-23-9H248q-14 0-23 9t-9 23v464q0 14 9 23t23 9h341q14 0 23-9t9-23v-100q0-4.3 2.789-7.15 2.79-2.85 7-2.85 4.211 0 7.211 2.85t3 7.15v100q0 21.7-15.15 36.85Q610.7-196 589-196H248q-21.7 0-36.85-15.15Q196-226.3 196-248v-464q0-21.7 15.15-36.85Q226.3-764 248-764h341q21.7 0 36.85 15.15Q641-733.7 641-712v100q0 4.3-2.789 7.15-2.79 2.85-7 2.85-4.211 0-7.211-2.85t-3-7.15Z"/></svg>