<svg xmlns="http://www.w3.org/2000/svg" height="20" viewBox="0 -960 960 960" width="20"><path d="M329.385-210q-42.231-9-69.808-42.077Q232-285.154 232-327.385V-672q0-53.769 55.461-78.885Q342.923-776 480-776q132.462 0 190.231 26.269Q728-723.462 728-672v344.615q0 42.231-27.577 75.308Q672.846-219 630.615-210l21.514 29.154q5.64 6.462 2.025 14.885-3.615 8.423-12.538 8.423H318.384q-8.923 0-12.538-8.423t2.025-14.885L329.385-210ZM264-464h200v-178.461H264V-464Zm362.615 32H264h432-69.385ZM496-464h200v-178.461H496V-464ZM360-303.385q13.846 0 23.231-9.384 9.384-9.385 9.384-23.231 0-13.846-9.384-23.231-9.385-9.384-23.231-9.384-13.846 0-23.231 9.384-9.384 9.385-9.384 23.231 0 13.846 9.384 23.231 9.385 9.384 23.231 9.384Zm240 0q13.846 0 23.231-9.384 9.384-9.385 9.384-23.231 0-13.846-9.384-23.231-9.385-9.384-23.231-9.384-13.846 0-23.231 9.384-9.384 9.385-9.384 23.231 0 13.846 9.384 23.231 9.385 9.384 23.231 9.384ZM351.385-240h257.23Q644-240 670-266t26-61.385V-432H264v104.615Q264-292 290-266t61.385 26ZM480-744q-125.846 0-167.231 15.5-41.384 15.5-57.615 54.038h447.615Q680.692-716 636.308-730 591.923-744 480-744Zm.448 69.538H702.769 255.154 480.448Z"/></svg>