<svg xmlns="http://www.w3.org/2000/svg" height="24" viewBox="0 -960 960 960" width="24"><path d="M610.001-229.999h299.998v59.998H610.001v-59.998ZM200-200v-560 560Zm-59.999 59.999v-679.998h679.998v382.307H760V-760H200v560h322.308V-140.001H140.001Zm340.09-347.692q46.832 0 79.524-32.783 32.692-32.782 32.692-79.615 0-46.832-32.783-79.524-32.782-32.692-79.615-32.692-46.832 0-79.524 32.783-32.692 32.782-32.692 79.615 0 46.832 32.783 79.524 32.782 32.692 79.615 32.692ZM400-580v-40h40v40h-40Zm60 0v-40h40v40h-40Zm60 0v-40h40v40h-40Z"/></svg>