<svg xmlns="http://www.w3.org/2000/svg" height="20" viewBox="0 -960 960 960" width="20"><path d="M664.392-363.304v-233.392q0-16.206-14.739-22.56-14.74-6.353-26.566 4.473l-107.174 99.174q-14.956 15.344-14.956 35.803 0 20.458 14.956 35.415l107.174 99.174q11.65 10.826 26.478 4.348 14.827-6.479 14.827-22.435ZM217.783-124.782q-38.942 0-65.972-27.029-27.029-27.03-27.029-65.972v-524.434q0-38.942 27.029-65.972 27.03-27.029 65.972-27.029h524.434q38.942 0 65.972 27.029 27.029 27.03 27.029 65.972v524.434q0 38.942-27.029 65.972-27.03 27.029-65.972 27.029H217.783Zm113.695-98.001v-514.434H222.783v514.434h108.695Zm98.001 0h307.738v-514.434H429.479v514.434Zm-98.001 0H222.783h108.695Z"/></svg>