<svg xmlns="http://www.w3.org/2000/svg" height="24" viewBox="0 -960 960 960" width="24"><path d="M272-132q-26 0-43-17t-17-43v-576q0-26 17-43t43-17h289q12.444 0 23.722 5T604-810l126 126q8 8 13 19.278 5 11.278 5 23.722v116q-19 2-35.491 11.026Q696.018-504.949 682-491L460-270q-8 8-13 19.278-5 11.278-5 23.722v95H272Zm270-30v-36q0-5.565 2-10.783Q546-214 551-219l202-201q5-4 9.889-6 4.889-2 9.778-2 5.333 0 10.656 2 5.322 2 9.677 6l37 38q4 5 6 10t2 10q0 5-2 10t-6 10L629-141q-5 5-10.217 7-5.218 2-10.783 2h-36q-12.75 0-21.375-8.625T542-162Zm231-162 37-38-37-38-38 38 38 38ZM601.6-652H720L572-800l148 148-148-148v118.4q0 12.58 8.51 21.09T601.6-652Z"/></svg>