<svg xmlns="http://www.w3.org/2000/svg" height="20" viewBox="0 -960 960 960" width="20"><path d="m552-456 49 63q1 1 17.757 9Q633-384 639-396.5q6-12.5-2-23.5l-45-60 46-61q8-11 1.647-23T619-576q-5 0-9.767 2.455-4.766 2.454-8.233 6.545l-49 63v-48q0-10.4-6.8-17.2-6.8-6.8-17.2-6.8-10.4 0-17.2 6.785-6.8 6.785-6.8 17.161v143.677Q504-398 510.8-391q6.8 7 17.2 7 10.4 0 17.2-6.8 6.8-6.8 6.8-17.2v-48Zm-210.913 72h96q10.2 0 17.1-6.9 6.9-6.9 6.9-17.1v-144q0-10.2-6.9-17.1-6.9-6.9-17.1-6.9h-96q-10.2 0-17.1 6.9-6.9 6.9-6.9 17.1v144q0 10.2 6.9 17.1 6.9 6.9 17.1 6.9Zm24-116v-36h48v36h-48Zm0 76v-36h48v36h-48ZM222.783-124.782q-41.005 0-69.503-28.498-28.498-28.498-28.498-69.503v-514.434q0-41.005 28.498-69.503 28.498-28.498 69.503-28.498h514.434q41.005 0 69.503 28.498 28.498 28.498 28.498 69.503v514.434q0 41.005-28.498 69.503-28.498 28.498-69.503 28.498H222.783Z"/></svg>