<svg xmlns="http://www.w3.org/2000/svg" height="20" viewBox="0 -960 960 960" width="20"><path d="M788-176 214-751l-1 1.5q-1 1.5.5.5t-.5-.5q-2 .5-1 1.5l574 574q0-.4.5-1.7.5-1.3-.5-.3t.8 1q1.8 0 1.2-1ZM654-515l-28 109-25-25-33-118q-2-4.278.75-7.639Q571.5-560 576-560q3 0 4 1.5t2.692 4.463L616-437l31.37-118.037q.63-1.963 1.784-3.463T652-560h3.667q2.333 0 2.833 1.5t1.192 3.463L692-437l32.37-117.037Q726-557 727.7-558.5q1.7-1.5 4.45-1.5 3.85 0 6.35 3.5 2.5 3.5 1.269 7.646l-40.154 143.893Q699-403 697.846-401.5 696.692-400 695-400h-4.667q-2.333 0-3.555-1.409T685-405l-31-110ZM384-412l38-100 15-1-16 49 62 12 5 2h-73l-17.333 45.083Q396-402 394.951-401q-1.049 1-3.366 1-4.585 0-6.585-4t-1-8Zm-176 4v-133q0-7 6.5-13t13.5-6h44q20 0 34 14t14 33.5v.5q0 13-9 27.5T283-465l24.154 53.8Q309-407 306-403.5t-7 3.5q-3 0-4.5-1.5L291-405l-26-59h-41v55.683q0 3.317-2.3 5.817T216-400q-3.4 0-5.7-2.3-2.3-2.3-2.3-5.7Zm16-72h48q12 0 22-10t10-22q0-12-10-22t-22-10h-48v64Z"/></svg>