<svg xmlns="http://www.w3.org/2000/svg" height="20" viewBox="0 -960 960 960" width="20"><path d="M775.538-171.846 201.077-747.308q-1.616-1.615-2.5-2.769-.885-1.154 2-3.538 2.884-2.385 3.654-1.885.769.5 3.154 2.885l574.461 574.461q1.615 1.215 2 2.569.385 1.354-2 3.739t-3.354 2.385q-.969 0-2.954-2.385ZM658.154-506.923l-27.077 106-33.769-33.308-31.385-114.307q-2.231-5.894 1.558-10.524 3.788-4.63 9.904-4.63 4.154 0 6.307 2.307 2.154 2.308 3.847 6.425l30.307 108.037 28.832-108.806q.86-3.348 3.168-5.656 2.308-2.307 5.385-2.307h5.513q3.718 0 5.487 2.307 1.769 2.308 2.692 5.656l29.539 108.806 29.601-108.037q1.629-4.117 4.368-6.425 2.738-2.307 6.642-2.307 5.466 0 9.12 4.769 3.653 4.769 1.961 10.53l-39.461 144.124q-.847 3.346-3.154 5.654-2.308 2.307-5.385 2.307h-6.282q-3.718 0-6.094-2.216-2.376-2.217-3.163-5.784l-28.461-102.615Zm-275.308 94.692 34.539-98.384 21.23 5.231-12.307 37.692 46.999 12 12.847 9.846h-67.231l-15.256 41.622q-1.667 4.07-3.87 5.993-2.202 1.923-5.904 1.923-5.97 0-9.239-5.153-3.269-5.154-1.808-10.77ZM204.308-408v-134.846q0-7.923 6.846-14.385 6.846-6.461 14.769-6.461h49.769q20 0 34 14t14 33.5v7.884q0 13.231-8.769 27.27-8.769 14.038-26.384 19.269l22.307 49.877q2.539 5.815-1.384 10.7-3.923 4.884-9.77 4.884-3.923 0-6.23-1.961-2.308-1.962-4.539-4.885l-25.308-57.154h-35.923v51.991q0 4.932-3.338 8.471-3.339 3.538-8.354 3.538-5.015 0-8.354-3.338-3.338-3.339-3.338-8.354Zm23.384-75.692h48q9.231 0 16.923-7.693 7.693-7.692 7.693-16.923v-7.384q0-9.231-7.693-16.923-7.692-7.693-16.923-7.693h-48v56.616Z"/></svg>