<svg xmlns="http://www.w3.org/2000/svg" height="20" viewBox="0 -960 960 960" width="20"><path d="M550-314q-66.593 0-113.797-44.5Q389-403 383.438-470H187l84 83-15 15-108-108 108-108 14 15-83 83h196.438q5.562-67 52.711-111.5t113.67-44.5q69.391 0 117.786 48.578Q716-548.845 716-479.922 716-411 667.445-362.5T550-314Zm.118-20Q611-334 653.5-376.618q42.5-42.617 42.5-103.5Q696-541 653.382-583.5q-42.617-42.5-103.5-42.5Q489-626 446.5-583.382q-42.5 42.617-42.5 103.5Q404-419 446.618-376.5q42.617 42.5 103.5 42.5ZM550-480Z"/></svg>