<svg xmlns="http://www.w3.org/2000/svg" height="20" viewBox="0 -960 960 960" width="20"><path d="M582.218-274.999q-72.289 0-127.536-44.5t-71.201-111.5H265.089l52.478 52.478-69.654 69.653L77.347-480l170.566-171.132 69.654 69.653-52.478 52.478h118.392q15.954-67 71.146-111.5 55.193-44.5 127.41-44.5 85.576 0 145.379 60.029 59.802 60.029 59.802 145.198 0 85.169-59.962 144.972-59.963 59.803-145.038 59.803Zm0-98.002q44.912 0 75.956-31.043 31.043-31.043 31.043-75.956 0-44.913-31.043-75.956-31.044-31.043-75.956-31.043-44.913 0-75.956 31.043-31.044 31.043-31.044 75.956 0 44.913 31.044 75.956 31.043 31.043 75.956 31.043Zm0-106.999Z"/></svg>