<svg xmlns="http://www.w3.org/2000/svg" height="24" viewBox="0 -960 960 960" width="24"><path d="M606.218-266.999q-74.696 0-131.74-45.5-57.043-45.5-74.435-114.5H264.089l58.478 59.478-74.654 74.653L61.347-480l186.566-187.132 75.654 74.653-59.478 59.478h135.954q17.392-69 74.435-114.5 57.044-45.5 131.74-45.5 88.395 0 150.698 62.303Q819.218-568.395 819.218-480q0 88.395-62.302 150.698-62.303 62.303-150.698 62.303Zm0-106.002q44.912 0 75.956-31.043 31.043-31.043 31.043-75.956 0-44.913-31.043-75.956-31.044-31.043-75.956-31.043-44.913 0-75.956 31.043-31.044 31.043-31.044 75.956 0 44.913 31.044 75.956 31.043 31.043 75.956 31.043Zm0-106.999Z"/></svg>