<svg xmlns="http://www.w3.org/2000/svg" height="24" viewBox="0 -960 960 960" width="24"><path d="M580-300q-69.923 0-120.192-45.5Q409.539-391 400.923-460H196.846l83.769 84-28.307 28.308L120-480l132.308-132.308L280.846-584l-84 84h204.077q8.616-69 58.885-114.5T580-660q74.7 0 127.35 52.617Q760-554.767 760-480.114t-52.65 127.383Q654.7-300 580-300Zm.091-40q58.371 0 99.14-40.86T720-480.09q0-58.371-40.86-99.141Q638.281-620 579.91-620t-99.141 40.86Q440-538.281 440-479.91t40.86 99.141Q521.72-340 580.091-340ZM580-480Z"/></svg>