<svg xmlns="http://www.w3.org/2000/svg" height="24" viewBox="0 -960 960 960" width="24"><path d="M589.999-290.001q-71.461 0-123.846-45.5-52.384-45.5-63.692-114.5H214.922L288.307-376l-42.153 42.153L100.001-480l146.153-146.153L288.922-584l-74 74.001h187.539q11.308-69 63.692-114.5 52.385-45.5 123.846-45.5 78.85 0 134.425 55.558 55.575 55.558 55.575 134.384t-55.575 134.441q-55.575 55.615-134.425 55.615Zm.045-59.998q54.186 0 92.071-37.93T720-480.045q0-54.186-37.93-92.071t-92.116-37.885q-54.186 0-92.071 37.93-37.884 37.93-37.884 92.116t37.93 92.071q37.93 37.885 92.115 37.885ZM589.999-480Z"/></svg>