<svg xmlns="http://www.w3.org/2000/svg" height="24" viewBox="0 -960 960 960" width="24"><path d="M354.5-316.413h251v-125.739h-87.413v38.565h-76.174v-152.826h76.174v38.565H605.5v-125.739h-251v327.174ZM480-71.869q-84.913 0-159.345-32.118t-129.491-87.177q-55.059-55.059-87.177-129.491Q71.869-395.087 71.869-480t32.118-159.345q32.118-74.432 87.177-129.491 55.059-55.059 129.491-87.177Q395.087-888.131 480-888.131t159.345 32.118q74.432 32.118 129.491 87.177 55.059 55.059 87.177 129.491Q888.131-564.913 888.131-480t-32.118 159.345q-32.118 74.432-87.177 129.491-55.059 55.059-129.491 87.177Q564.913-71.869 480-71.869Z"/></svg>