<svg xmlns="http://www.w3.org/2000/svg" height="24" viewBox="0 -960 960 960" width="24"><path d="M348.022-82.129q-129.328 0-219.589-90.055T38.172-391.521q0-116.291 74.717-201.864 74.718-85.572 186.197-103.399v-55q0-69.577 48.255-117.832 48.255-48.256 117.833-48.256 38.522 0 72.131 16.414 33.608 16.413 57.435 45.804l221.261 278.653 24.696-20.695 126.827 159.348-127.523 101.132-125.827-159.349 24.696-20.696-220.131-278.088q-10.565-12-24.065-18.782-13.5-6.783-29.5-6.783-29 0-48.783 20.065-19.782 20.065-19.782 49.26v55.371q111.478 17.826 186.196 103.23t74.718 201.467q0 129.282-90.087 219.337-90.087 90.055-219.414 90.055Zm.108-106.001q84.13 0 143.761-59.492 59.63-59.492 59.63-143.899 0-84.408-59.492-143.9-59.492-59.492-143.899-59.492-84.131 0-144.044 59.492-59.913 59.492-59.913 143.9 0 84.407 59.913 143.899 59.913 59.492 144.044 59.492Z"/></svg>