<svg xmlns="http://www.w3.org/2000/svg" height="20" viewBox="0 -960 960 960" width="20"><path d="M379.174-79.978q-125.457 0-213.163-87.448-87.707-87.448-87.707-212.987 0-115.354 75.63-199.557 75.631-84.204 187.218-98.4 8-65.205 56.723-109.429 48.724-44.223 114.929-44.223 39.492 0 74.518 17.098t60.222 47.532L776-607.5l27.718-22.718 126.695 159.609L810-375.63 684.304-535.239l28.718-22.718-126.979-159.652q-14.012-16.8-32.607-26.019-18.594-9.22-40.632-9.22-34 0-59.619 21.739-25.62 21.739-32.62 53.822v.156q109.587 15.196 184.218 99.008 74.63 83.812 74.63 197.71 0 125.539-87.391 212.987T379.174-79.978Zm-.196-83q90.118 0 153.777-63.6 63.658-63.599 63.658-153.835 0-90.235-63.6-153.835-63.599-63.6-153.835-63.6-90.118 0-153.896 63.6-63.778 63.6-63.778 153.835 0 90.236 63.778 153.835 63.778 63.6 153.896 63.6Z"/></svg>