<svg xmlns="http://www.w3.org/2000/svg" height="20" viewBox="0 -960 960 960" width="20"><path d="M412.433-168Q314-168 245-236.693 176-305.386 176-404q0-83 59.5-156.5T404-641v17.393Q412-666 444.797-694q32.796-28 76.038-28 26.744 0 50.784 11.679Q595.659-698.643 613-678l91 114 23-18 76 95-63 49-75-95 23-18-91-114q-14.774-18.8-33.93-27.9-19.157-9.1-41.862-9.1Q486-702 458.5-679T424-623v-17q107 8 165.5 81.179Q648-485.641 648-404q0 98.614-68.567 167.307Q510.867-168 412.433-168ZM412-188q89.64 0 152.82-63.18Q628-314.36 628-404q0-89.64-63.18-152.82Q501.64-620 412-620q-89.64 0-152.82 63.18Q196-493.64 196-404q0 89.64 63.18 152.82Q322.36-188 412-188Z"/></svg>