<svg xmlns="http://www.w3.org/2000/svg" height="20" viewBox="0 -960 960 960" width="20"><path d="M174.783-222.783v-409.39 409.39-6.739 6.739Zm0 98.001q-41.005 0-69.503-28.498-28.498-28.498-28.498-69.503v-409.39q0-41.005 28.498-69.503 28.498-28.498 69.503-28.498h143.694v-72.213q0-41.092 28.524-69.441 28.524-28.348 69.566-28.348h127.218q41.041 0 69.389 28.498 28.349 28.499 28.349 69.504v72h143.694q41.005 0 69.503 28.498 28.498 28.498 28.498 69.503v227q-20.522-22.783-45.305-41.37-24.783-18.587-52.696-30.718v-154.912H174.783v409.39H407.87q3.565 25.913 9.391 50.914 5.826 25 19.479 47.087H174.783Zm241.696-605.392h127.042v-72H416.479v72ZM671.774-48Q592-48 536-104.226t-56-136Q480-320 536.226-376t136-56Q752-432 808-375.774t56 136Q864-160 807.774-104t-136 56Zm28.183-203.934v-60.631q0-11.183-8.412-19.57-8.411-8.387-19.626-8.387-11.215 0-19.828 8.557-8.613 8.556-8.613 19.965v63.609q0 10.826 3.848 19.344 3.848 8.519 10.634 15.225l49.214 49.213q8.494 8.131 20.008 7.848 11.514-.282 19.644-8.494 8.131-8.211 8.131-19.644 0-11.433-8.131-19.927l-46.869-47.108Z"/></svg>