<svg xmlns="http://www.w3.org/2000/svg" height="20" viewBox="0 -960 960 960" width="20"><path d="M168-216v-432 432Zm32 20q-22.7 0-37.35-14.65Q148-225.3 148-248v-368q0-22.7 14.65-37.35Q177.3-668 200-668h188v-40.212Q388-731 402.676-745.5q14.676-14.5 37.412-14.5h80.176Q543-760 557.5-745.35 572-730.7 572-708v40h188q22.7 0 37.35 14.65Q812-638.7 812-616v223q-5-7-9.5-14T792-421v-195q0-14-9-23t-23-9H200q-14 0-23 9t-9 23v368q0 14 9 23t23 9h261q2 5 .5 10t-.5 10H200Zm208-472h144v-40q0-14-9-23t-23-9h-80q-14 0-23 9t-9 23v40Zm263.774 568Q613-100 572.5-140.726t-40.5-99.5Q532-299 572.726-339.5t99.5-40.5Q731-380 771.5-339.274t40.5 99.5Q812-181 771.274-140.5t-99.5 40.5ZM690-248v-64q0-7.6-5.2-12.8-5.2-5.2-12.8-5.2-7.6 0-12.8 5.2-5.2 5.2-5.2 12.8v70q0 6 2 10t6.091 8.091L714-172q5.364 5 12.682 5.5Q734-166 740-172t6-12.818q0-6.818-6-13.182l-50-50Z"/></svg>