<svg xmlns="http://www.w3.org/2000/svg" height="24" viewBox="0 -960 960 960" width="24"><path d="M89.23-430v-40h120.001v40h-120ZM274-627.692 188.461-713 217-741.308 301.539-656 274-627.692Zm-34.13 395.385q-13.947 0-23.447-9.631-9.5-9.63-9.5-23.577 0-13.946 9.63-23.447 9.63-9.5 23.577-9.5 13.947 0 23.447 9.63 9.5 9.631 9.5 23.577 0 13.947-9.63 23.447-9.63 9.501-23.577 9.501ZM320-410v-40q0-66.846 46.577-113.423T480-610q66.846 0 113.423 46.577T640-450v40h-40v-40q0-50-35-85t-85-35q-50 0-85 35t-35 85v40h-40Zm39.87 337.692q-13.947 0-23.447-9.63t-9.5-23.577q0-13.946 9.63-23.447 9.63-9.5 23.577-9.5 13.947 0 23.447 9.63 9.5 9.631 9.5 23.577 0 13.947-9.63 23.447t-23.577 9.5Zm120-159.999q-13.947 0-23.447-9.631-9.5-9.63-9.5-23.577 0-13.946 9.63-23.447 9.63-9.5 23.577-9.5 13.947 0 23.447 9.63 9.5 9.631 9.5 23.577 0 13.947-9.63 23.447-9.63 9.501-23.577 9.501ZM460-720.769V-840.77h40v120.001h-40ZM599.87-72.307q-13.947 0-23.447-9.63t-9.5-23.578q0-13.946 9.63-23.447 9.63-9.5 23.577-9.5 13.947 0 23.447 9.63 9.5 9.631 9.5 23.577 0 13.947-9.63 23.447t-23.577 9.5ZM686-627.692 657.461-656 743-741.308 770.539-713 686-627.692Zm33.87 395.385q-13.947 0-23.447-9.631-9.5-9.63-9.5-23.577 0-13.946 9.63-23.447 9.63-9.5 23.577-9.5 13.947 0 23.447 9.63 9.5 9.631 9.5 23.577 0 13.947-9.63 23.447-9.63 9.501-23.577 9.501ZM750.769-430v-40H870.77v40H750.769ZM480-410Z"/></svg>