<svg xmlns="http://www.w3.org/2000/svg" height="24" viewBox="0 -960 960 960" width="24"><path d="M775.846-121.384 96.769-800.462l28.308-28.308 679.077 679.078-28.308 28.308Zm47.231-207.846L701.539-450.769v84.692L489.231-578.385V-600q0-27.615-20.039-47.654-20.038-20.038-47.654-20.038-5.077 0-9.923.5t-9.154 2.038L307.615-760h393.924v250.769L823.077-630.77v301.54ZM141.538-200v-558.462h53.846L700-253.846V-200H437.231v-102q35.461-3.461 67.077-19.808 31.615-16.346 54.846-44.577l-24.077-24.077q-20 26-50.269 40.116-30.27 14.115-63.27 14.115-56.923 0-98.038-37.654-41.116-37.654-44.962-93.807h-34.692q4.615 65.769 50.423 112.538Q340.077-308.385 405.846-302v102H141.538Zm212.308-343.385V-480q0 27.615 20.038 47.654 20.039 20.038 47.654 20.038 13.077 0 24.77-4.153Q458-420.615 467-430.231L353.846-543.385Z"/></svg>