<svg xmlns="http://www.w3.org/2000/svg" height="24" viewBox="0 -960 960 960" width="24"><path d="M830.479-14.695 14.695-831.61l62.218-62.218L893.827-76.913l-63.348 62.218ZM899.218-260l-160-160v75.479L478.87-604.87v-3.609q0-29.043-20.674-49.151-20.674-20.109-49.717-21.24-.87 0-1.587.5-.718.5-1.587-.065L264.521-819.218h474.697V-540l160-160v440ZM60.782-140.782v-677.306h91.87l585.436 585.436v91.87H436.479v-142.914q34.739-6.695 64.478-24.761 29.739-18.065 51.478-47.065l-42.131-42.696Q492-370.522 462.783-354.326 433.565-338.13 400-338.13q-55.478 0-94.152-38.957-38.674-38.956-38.674-94.434h-58.695q0 69.347 43.412 121.956 43.413 52.608 111.63 65.869v142.914H60.781ZM320-525.739v54.218q0 33 23.5 56.5t56.5 23.5q11.13 0 21.544-3 10.413-3 20.543-9.131L320-525.739Z"/></svg>