<svg xmlns="http://www.w3.org/2000/svg" height="24" viewBox="0 -960 960 960" width="24"><path d="M260-200q-74.846 0-127.423-52.057T80-379.308q0-71.077 48.923-123.231 48.923-52.153 114.923-56.077Q257.308-646 324.231-703 391.154-760 480-760q100.286 0 170.143 69.857T720-520v40h24.615q57.462 1.846 96.424 42.192Q880-397.462 880-340q0 58.846-39.807 99.423Q800.385-200 741.538-200H524.615Q497-200 478.5-218.5 460-237 460-264.615V-497.23l-70.615 70.615Q384.026-421 375.744-421q-8.283 0-14.283-5.615-6-5.616-5.615-14.154.385-8.539 6-14.154l95.273-95.273q5.496-5.496 11.06-7.612 5.565-2.115 11.924-2.115 6.359 0 11.82 2.115 5.462 2.116 10.958 7.612l95.273 95.273q5.615 5.615 6 14.154.385 8.538-5.615 14.154-6 5.615-14.539 5.231-8.539-.385-14.154-6.001L500-497.23v232.615q0 9.23 7.692 16.923Q515.385-240 524.615-240H740q42 0 71-29t29-71q0-42-29-71t-71-29h-60v-80q0-83-58.5-141.5T480-720q-83 0-141.5 58.5T280-520h-21.538q-55.693 0-97.077 41Q120-438 120-380t41 99q41 41 99 41h80q8.5 0 14.25 5.758t5.75 14.269q0 8.512-5.75 14.242Q348.5-200 340-200h-80Zm220-260Z"/></svg>