<svg xmlns="http://www.w3.org/2000/svg" height="20" viewBox="0 -960 960 960" width="20"><path d="M287.774-144Q208-144 152-200.226t-56-136Q96-416 152.226-472t136-56Q368-528 424-471.774t56 136Q480-256 423.774-200t-136 56ZM819-154 569-404q-3 2-6.5 4t-7.5 3q-7-34-18.5-59T510-502q31-20 49-51.5t18-70.342q0-61.066-42-103.112Q493-769 432-769t-103 42q-42 42-42 103 0 6.706.5 12.353Q288-606 289-601q-30 2-59.5 8.5T175-572q-3-13.071-4.5-27.143-1.5-14.071-1.5-25.058Q169-733 246-810t186-77q109 0 186 76.769t77 186.495q0 39.736-10.941 75.764Q673.118-511.945 655-485l247 248-83 83Zm-588-77 55-55 56 55 51-51-55-54 56-56-51-51-55 55-56-56-51 51 55 55-56 56 51 51Z"/></svg>