<svg xmlns="http://www.w3.org/2000/svg" height="20" viewBox="0 -960 960 960" width="20"><path d="M287.774-171.694q-71.696 0-121.735-50.265-50.038-50.264-50.038-121.96t50.265-121.734q50.264-50.038 121.96-50.038t121.735 50.264q50.038 50.264 50.038 121.96 0 71.697-50.265 121.735-50.264 50.038-121.96 50.038Zm522.149-37.23L566.231-452.616q-5.385 4.615-12.886 8.846-7.5 4.231-14.039 6.539-7.154-8.692-14.423-17.499-7.269-8.808-14.422-17.115 41.154-21.462 67.654-60.847 26.501-39.384 26.501-91.15 0-71.989-50.347-122.381Q503.923-796.616 432-796.616t-122.269 50.347Q259.384-695.923 259.384-624q0 9.783 1.77 19.392 1.769 9.609 3.538 18.301-14.384 1.231-26.499 3.885-12.115 2.653-24.884 6.346-2.769-10.841-4.346-23.028t-1.577-25.097q0-93.26 65.576-158.837Q338.539-848.614 432-848.614q93.461 0 159.038 65.345 65.576 65.346 65.576 159.533 0 39.736-13.21 75.571-13.211 35.835-34.944 63.857l238.616 238.231-37.153 37.153Zm-578.538-54.231L287-318.77l56 55.615 25.538-25.923-55.615-55.615 55.615-55.615-25.923-25.923L287-370.616l-55.615-55.615-25.923 25.923 55.615 55.615-55.615 55.615 25.923 25.923Z"/></svg>