<svg xmlns="http://www.w3.org/2000/svg" height="20" viewBox="0 -960 960 960" width="20"><path d="M287.774-144Q208-144 152-200.226t-56-136Q96-416 152.226-472t136-56Q368-528 424-471.774t56 136Q480-256 423.774-200t-136 56Zm528.617-26.521L568.13-418.782q-1.695 1.131-3.674 2.261-1.978 1.131-4.239 1.696-8.739-24.001-20.239-43.131-11.5-19.131-24.761-35.784 32.739-21.304 52.261-54.978 19.521-33.673 19.521-75.124 0-64.979-45.043-110.068T432-778.999q-64.913 0-109.956 45.043Q277.001-688.913 277.001-624q0 6.706.717 12.57.717 5.865 1.717 11.3-25.217 2-49.5 7.413t-45.805 15.935q-2.565-11.767-3.848-24.1-1.283-12.332-1.283-23.319 0-104.886 73.957-178.843T432-877.001q105.087 0 179.044 73.726 73.957 73.726 73.957 179.539 0 39.736-11.594 75.764-11.593 36.027-31.45 64.276l243.522 244.087-69.088 69.088ZM231-240.13l55.435-55.435 56 55.435 41.435-41.435-55.435-54.87 56-56L343-433.87l-55.435 55.435-56-56L190.13-393l55.435 55.435-56 56L231-240.13Z"/></svg>