<svg xmlns="http://www.w3.org/2000/svg" height="24" viewBox="0 -960 960 960" width="24"><path d="M863.218-235.696 618.217-480.132q13.957-14.826 32.631-23.739t43.326-8.913h63.043v-23.043q0-114.043-79.739-193.347Q597.739-808.479 484-808.479q-42.87 0-79.261 11.652-36.391 11.653-68.826 32.957l-76.087-75.219q43.304-35 101.195-55.195Q418.913-914.48 484-914.48q77.957 0 146.848 29.413 68.892 29.413 120.718 80.957 51.826 51.543 81.739 120.435 29.913 68.891 29.913 147.848v300.131ZM531.913-31.521q-20.391 0-34.152-13.479Q484-58.478 484-78.87q0-20.391 13.761-34.152 13.761-13.761 34.152-13.761h196.609l-40-40q-38.652 0-69.501-29.435-30.848-29.435-30.848-70.914L227.522-628.348q-9 24-12.87 46.739-3.869 22.739-3.869 45.782v23.043h63.043q43.739 0 74.87 31.131 31.131 31.13 31.131 74.87v133.999q0 43.739-31.131 74.87-31.131 31.131-74.87 31.131h-63.043q-44.305 0-75.153-30.848-30.848-30.848-30.848-75.153v-263.043q0-47.261 10.913-91.565 10.913-44.305 30.913-82.305l-88.912-88.912q-11.435-11.435-11.218-27.718.218-16.282 11.652-28.282 12-11.565 28.283-11.783 16.283-.217 28.283 11.783l749.696 750.131q11 11 11 27.5t-11 28.5q-12 12-27.783 12.717-15.782.718-25.478-8.978l-1.13-1.13q-9.957 7.26-23.61 10.804-13.652 3.544-29.174 3.544H531.913Z"/></svg>