<svg xmlns="http://www.w3.org/2000/svg" height="24" viewBox="0 -960 960 960" width="24"><path d="M792-278 661-408q9-13 21.5-20.5T712-436h52v-84q0-116-82-198t-198-82q-44 0-86.5 14T322-748l-20-20q30-24 78-42t104-18q64 0 120 24t98 66q42 42 66 98t24 120v242ZM498-124q-6 0-10-4t-4-10q0-6 4-10t10-4h234q6 0 12-2t11-7l-51-51h8q-25 0-42.5-17.5T652-272v8L246-670q-18 30-30 70.5T204-520v84h52q25 0 42.5 17.5T316-376v104q0 25-17.5 42.5T256-212h-20q-26 0-43-17t-17-43v-248q0-48 13.5-91t36.5-79L74-842q-4-4-4.5-9.5T74-862q5-5 10-5t10 5L866-90q4 4 4.5 9.5T866-70q-5 5-10 5t-10-5l-72-72q-8 9-19.5 13.5T732-124H498Z"/></svg>