<svg xmlns="http://www.w3.org/2000/svg" height="20" viewBox="0 -960 960 960" width="20"><path d="m776-279.846-32-32v-102.308h-52.462q-8.461 0-14.615 10.308t-8.461 17.231l-28.77-28.77q10.231-14.769 23.308-22.769 13.077-8 29.003-8H744V-528q0-108.462-77-186.231Q590-792 480-792q-43 0-85.308 14.154-42.307 14.154-76.307 40.923l-22.77-23.308q33.462-27.538 81.962-45.654Q426.077-824 479.866-824q62.442 0 116.134 23.423t93.83 63.654q40.138 40.23 63.154 93.898Q776-589.358 776-528v248.154ZM496-136.615q-6.838 0-11.419-4.52-4.581-4.521-4.581-11.27t4.581-11.479q4.581-4.731 11.419-4.731h224.154q4.615 0 9.231-1.539 4.615-1.538 8.461-5.384L680.385-232h.153q-23.546 0-40.08-16.534-16.535-16.535-16.535-40.081v-.846L251.692-661.692q-16.923 27.615-26.307 63.538Q216-562.231 216-528v81.846h74.462q23.546 0 40.081 16.474 16.534 16.475 16.534 39.936v100.513q0 23.462-16.384 39.847Q314.308-233 290.462-232h-49.847q-24.315 0-40.465-16.215Q184-264.43 184-288.837V-517q0-44.308 11.077-88t33.384-80.154L83.846-828.769q-4.846-4.846-5.615-11.269-.77-6.423 4.846-12.517 5.615-5.906 12.154-5.522 6.538.385 12.154 6l734.461 734.692q5.615 5.616 6 11.821.385 6.205-6 11.487-4.615 5.616-11.039 4.846-6.423-.769-14.972-9.461l-55.384-55.384q-9.682 8.076-21.374 12.769-11.692 4.692-20.692 4.692H496ZM240.615-264h49.847q10.769 0 17.692-6.923t6.923-17.692v-100.924q0-10.769-6.923-17.692t-17.692-6.923H216v125.539q0 10.769 6.923 17.692T240.615-264Zm0-150.154H216h99.077-74.462Zm427.847 0H744h-75.538Z"/></svg>