<svg xmlns="http://www.w3.org/2000/svg" height="20" viewBox="0 -960 960 960" width="20"><path d="M501.769-88q-67.384 0-125.269-31.115-57.885-31.116-98.269-85.346l-167.154-213q-5.923-7.154-6.193-16.424-.269-9.269 7.423-16.961l3-3q7.77-8 18.154-9.962 10.385-1.961 19.847 2.577L328-358.769V-740q0-4.77 4.75-10.385T344-756q4.769 0 10.385 5.615Q360-744.77 360-740v381.692q0 16.287-13.769 24.528-13.77 8.242-27.923.319L149.385-434.615l157.769 214.23q34 48.924 85.643 75.154Q444.439-119 503.769-120q100.834 0 170.533-73.423Q744-266.846 744-371.461V-712q0-4.769 4.75-10.385Q753.5-728 760-728q4.769 0 10.385 5.615Q776-716.769 776-712v350.539q0 114.827-80.041 194.144Q615.918-88 501.769-88ZM482.95-852q5.512 0 10.742 5.615 5.231 5.615 5.231 10.385v320q0 6.5-4.758 11.25-4.757 4.75-11.269 4.75-6.511 0-11.242-4.75-4.731-4.75-4.731-11.25v-320q0-4.77 4.758-10.385T482.95-852Zm138.923 48q5.512 0 10.742 5.615 5.231 5.615 5.231 10.385v272q0 6.5-4.757 11.25-4.758 4.75-11.27 4.75-6.511 0-11.242-4.75-4.731-4.75-4.731-11.25v-272q0-4.77 4.758-10.385T621.873-804ZM446.692-310Z"/></svg>