<svg xmlns="http://www.w3.org/2000/svg" height="20" viewBox="0 -960 960 960" width="20"><path d="M704.999-116.001q-101.538 0-206.614-48.885-105.077-48.884-194.653-138.653-89.577-89.769-138.654-195.423-49.077-105.653-49.077-207.037v-43h191.768l36.461 151.153-113.923 110.692q25.693 43.231 53.347 80.346 27.653 37.116 57.488 66.868 29.089 30.325 64.974 57.171Q442-255.922 488.77-228.23L603-341.384l144.999 30.615v194.768h-43ZM206.923-535.922l80.847-78.385L267.212-697h-99.597q2.077 38.385 11.654 79.346 9.577 40.962 27.654 81.732Zm334.999 327.691q28.462 14.77 70.039 25.962T696-167.231v-102.077l-75.769-16-78.309 77.077ZM206.923-535.922Zm334.999 327.691ZM661.83-480q-75.6 0-128.715-53.284Q480-586.568 480-662.168t53.284-128.715q53.284-53.116 128.884-53.116t128.715 53.285q53.116 53.284 53.116 128.884t-53.285 128.715Q737.43-480 661.83-480Zm-21.523-88.307h43.384v-87.538h-43.384v87.538Zm-2.308-137.846h48v-48h-48v48Z"/></svg>