<svg xmlns="http://www.w3.org/2000/svg" height="20" viewBox="0 -960 960 960" width="20"><path d="M109.522-790q13.611-13 31.578-13t30.9 13l648 649-62 62-130-130H328v-127h173L109-729q-14-14-13.5-31t14.022-30ZM265-336v127q-35.1-6-71.55-9-36.45-3-72.45-3h-12q-21.675 0-36.338-15.196Q58-251.393 58-273.857 58-295 70-315t39-9h12q36 0 72.45-3t71.55-9Zm461 0h106q27 0 45 18t18 45q0 23.405-14 40.203Q867-216 848-213L726-336Zm-309.286 39q-9.714 0-17.214 7.286-7.5 7.285-7.5 17 0 9.714 7.5 17.214Q407-248 417-248t17-7.5q7-7.5 7-17.5t-7.286-17q-7.285-7-17-7ZM600-797q13.867 0 22.933 8.777 9.067 8.776 9.067 22.2 0 13.423-9.067 22.723Q613.867-734 600-734q-30.162 0-51.081 22.5Q528-689 528-659t20.919 49q20.919 19 51.081 19h49q55.741 0 94.87 39.286Q783-512.429 783-456v72h-63v-71.224q0-29.418-21-50.097Q678-526 648-526h-46q-25 0-46.5-9T517-561l-17-16.873q-17-17-26-38.564Q465-638 465-663q0-56 39.291-95T600-797Zm63-98q57.149 1 96.575 40.291Q799-815.418 799-759q0 31.937-11.975 57.132Q775.05-676.674 753-663q63 16 102.5 77.115Q895-524.77 895-456.573V-384h-64v-72q0-70.086-49-119.043Q733-624 663-624q-13.433 0-22.217-9.067Q632-642.133 632-656q0-13.433 8.783-22.217Q649.567-687 663-687q29.162 0 50.581-21.386Q735-729.771 735-758.886 735-788 713.581-809.5 692.162-831 663-831q-13.867 0-22.933-9.067Q631-849.133 631-863q0-13.867 9.067-22.933Q649.133-895 663-895Z"/></svg>