<svg xmlns="http://www.w3.org/2000/svg" height="20" viewBox="0 -960 960 960" width="20"><path d="M240.615-88q-23.354 0-39.984-16.631Q184-121.261 184-144.615v-670.77q0-23.354 16.631-39.984Q217.261-872 240.615-872h478.77q23.354 0 39.984 16.631Q776-838.739 776-815.385v670.77q0 23.354-16.631 39.984Q742.739-88 719.385-88h-478.77ZM216-314.462h528V-740H216v425.538Zm220.615 132.616h86.77q7.753 0 13.569-5.815 5.815-5.816 5.815-13.57 0-7.754-5.815-13.569-5.816-5.815-13.569-5.815h-86.77q-7.754 0-13.569 5.815-5.815 5.815-5.815 13.569 0 7.754 5.815 13.57 5.815 5.815 13.569 5.815Z"/></svg>