<svg xmlns="http://www.w3.org/2000/svg" height="20" viewBox="0 -960 960 960" width="20"><path d="M671.774-96Q592-96 536-152.226t-56-136Q480-368 536.226-424t136-56Q752-480 808-423.774t56 136Q864-208 807.774-152t-136 56ZM682-264l75-75-34-34-75 75 34 34ZM87.87-520.304v-255.827H872.13v316.175q-38.161-44.568-90.112-68.306Q730.068-552 672-552q-36.094 0-69.112 9.402-33.018 9.402-61.703 25.685l-62.359-114q-5.717-9.957-14.674-15.174-8.956-5.217-20.152-5.217-11.435 0-20.891 5.217-9.457 5.217-14.935 15.174L300-432.565l-37.174-66.348q-5.478-9.957-14.668-15.674-9.19-5.717-20.158-5.717H87.87Zm0 336.435v-255.827h115.26l60.805 110.848q5.717 8.718 14.793 14.435 9.076 5.717 21.229 5.717 11.478 0 20.434-5.717 8.957-5.717 14.435-14.674L444-527.435l34.13 60.783q-32.804 34.761-51.467 80.568Q408-340.277 408-288q0 27.228 5.696 53.342 5.695 26.115 16.848 50.789H87.869Z"/></svg>