<svg xmlns="http://www.w3.org/2000/svg" height="20" viewBox="0 -960 960 960" width="20"><path d="M671.774-96Q592-96 536-152.226t-56-136Q480-368 536.226-424t136-56Q752-480 808-423.774t56 136Q864-208 807.774-152t-136 56ZM682-264l75-75-34-34-75 75 34 34ZM62-534v-268h836v374q-37.4-59.024-97.34-91.512Q740.72-552 672-552q-32.29 0-62.645 7.5Q579-537 552.598-523L491-637q-8-13-20-20.5t-27-7.5q-16 0-28.5 7.5T396-637l-96 174-25-42q-7-13-19.233-21-12.234-8-27.767-8H62Zm0 376v-268h132l57 104q8 11 20.5 19t28.457 8Q316-295 328-303t19-20l97-174 25 41q-29 34-45 77.144-16 43.144-16 90.856 0 35.598 9.5 67.799Q427-188 445-158H62Z"/></svg>