<svg xmlns="http://www.w3.org/2000/svg" height="24" viewBox="0 -960 960 960" width="24"><path d="M100.001-597.692v-109.999q0-30.308 21-51.308t51.308-21h615.382q30.308 0 51.308 21t21 51.308v220H800v-220q0-4.616-3.846-8.463-3.847-3.846-8.463-3.846H172.309q-4.616 0-8.463 3.846-3.846 3.847-3.846 8.463v109.999h-59.999Zm332.384 417.691H172.309q-30.308 0-51.308-21t-21-51.308v-109.999H160v109.999q0 4.616 3.846 8.463 3.847 3.846 8.463 3.846h243q2.615 16 6.692 30.807 4.077 14.807 10.384 29.192ZM480-480Zm200 379.999q-74.922 0-127.461-52.538Q500.001-205.078 500.001-280t52.538-127.461Q605.078-459.999 680-459.999t127.461 52.538Q859.999-354.922 859.999-280t-52.538 127.461Q754.922-100.001 680-100.001Zm8-163.076 84.076-84.077-24.922-24.922L663.077-288 688-263.077ZM100.001-450.001v-59.998h117.845L280-386.691l143.616-289.847h31.383l84.924 169.078q-13.384 8.692-25.846 17.807-12.461 9.115-22.999 20.269l-51.463-102.925-144.616 289.232h-30.768l-83.077-166.924h-81.153Z"/></svg>