<svg xmlns="http://www.w3.org/2000/svg" height="20" viewBox="0 -960 960 960" width="20"><path d="M679-210h18q14 0 23-9t9-23v-464q0-14-9-23t-23-9h-18q-14 0-23 9t-9 23v464q0 14 9 23t23 9ZM320.754-421q9.246 0 15.746-6.254 6.5-6.255 6.5-15.5 0-9.246-6.254-15.746-6.255-6.5-15.5-6.5-9.246 0-15.746 6.254-6.5 6.255-6.5 15.5 0 9.246 6.254 15.746 6.255 6.5 15.5 6.5Zm0 95q9.246 0 15.746-6.254 6.5-6.255 6.5-15.5 0-9.246-6.254-15.746-6.255-6.5-15.5-6.5-9.246 0-15.746 6.254-6.5 6.255-6.5 15.5 0 9.246 6.254 15.746 6.255 6.5 15.5 6.5Zm4.206-228h207.757q11.033 0 18.658-7.475Q559-568.95 559-580v-16q0-11.05-7.463-18.525Q544.073-622 533.04-622H325.283q-11.033 0-18.658 7.475Q299-607.05 299-596v16q0 11.05 7.463 18.525Q313.927-554 324.96-554Zm103.794 133q9.246 0 15.746-6.254 6.5-6.255 6.5-15.5 0-9.246-6.254-15.746-6.255-6.5-15.5-6.5-9.246 0-15.746 6.254-6.5 6.255-6.5 15.5 0 9.246 6.254 15.746 6.255 6.5 15.5 6.5Zm0 95q9.246 0 15.746-6.254 6.5-6.255 6.5-15.5 0-9.246-6.254-15.746-6.255-6.5-15.5-6.5-9.246 0-15.746 6.254-6.5 6.255-6.5 15.5 0 9.246 6.254 15.746 6.255 6.5 15.5 6.5Zm108-95q9.246 0 15.746-6.254 6.5-6.255 6.5-15.5 0-9.246-6.254-15.746-6.255-6.5-15.5-6.5-9.246 0-15.746 6.254-6.5 6.255-6.5 15.5 0 9.246 6.254 15.746 6.255 6.5 15.5 6.5Zm0 95q9.246 0 15.746-6.254 6.5-6.255 6.5-15.5 0-9.246-6.254-15.746-6.255-6.5-15.5-6.5-9.246 0-15.746 6.254-6.5 6.255-6.5 15.5 0 9.246 6.254 15.746 6.255 6.5 15.5 6.5ZM627-258v-432H263q-14 0-23 9t-9 23v368q0 14 9 23t23 9h364Zm52 68q-20.224 0-36.612-14T623-238H263q-21.45 0-36.725-15.287Q211-268.574 211-290.04v-368.243q0-21.467 15.275-36.592T263-710h360q3-20 19.388-34T679-758h18q21.45 0 36.725 15.275Q749-727.45 749-706v464q0 21.45-15.275 36.725Q718.45-190 697-190h-18Zm-448-68v-432 432Z"/></svg>