<svg xmlns="http://www.w3.org/2000/svg" height="24" viewBox="0 -960 960 960" width="24"><path d="M687-194h26q14 0 23-9t9-23v-496q0-14-9-23t-23-9h-26q-14 0-23 9t-9 23v496q0 14 9 23t23 9ZM300.965-414q11.035 0 18.535-7.465t7.5-18.5q0-11.035-7.465-18.535t-18.5-7.5Q290-466 282.5-458.535t-7.5 18.5q0 11.035 7.465 18.535t18.5 7.5Zm0 120q11.035 0 18.535-7.465t7.5-18.5q0-11.035-7.465-18.535t-18.5-7.5Q290-346 282.5-338.535t-7.5 18.5q0 11.035 7.465 18.535t18.5 7.5ZM305-546h232q12.75 0 21.375-8.625T567-576v-48q0-12.75-8.625-21.375T537-654H305q-12.75 0-21.375 8.625T275-624v48q0 12.75 8.625 21.375T305-546Zm115.965 132q11.035 0 18.535-7.465t7.5-18.5q0-11.035-7.465-18.535t-18.5-7.5Q410-466 402.5-458.535t-7.5 18.5q0 11.035 7.465 18.535t18.5 7.5Zm0 120q11.035 0 18.535-7.465t7.5-18.5q0-11.035-7.465-18.535t-18.5-7.5Q410-346 402.5-338.535t-7.5 18.5q0 11.035 7.465 18.535t18.5 7.5Zm120-120q11.035 0 18.535-7.465t7.5-18.5q0-11.035-7.465-18.535t-18.5-7.5Q530-466 522.5-458.535t-7.5 18.5q0 11.035 7.465 18.535t18.5 7.5Zm0 120q11.035 0 18.535-7.465t7.5-18.5q0-11.035-7.465-18.535t-18.5-7.5Q530-346 522.5-338.535t-7.5 18.5q0 11.035 7.465 18.535t18.5 7.5ZM627-234v-480H247q-14 0-23 9t-9 23v416q0 14 9 23t23 9h380Zm60 68q-20.224 0-35.612-11.5Q636-189 630-206H247q-24.75 0-42.375-17.625T187-266v-416q0-24.75 17.625-42.375T247-742h383q6-17 21.388-28.5Q666.776-782 687-782h26q24.75 0 42.375 17.625T773-722v496q0 24.75-17.625 42.375T713-166h-26Zm-472-68v-480 480Z"/></svg>