<svg xmlns="http://www.w3.org/2000/svg" height="20" viewBox="0 -960 960 960" width="20"><path d="M700-226h52v-526h-52v526ZM291.789-407Q307-407 317.5-417.289q10.5-10.29 10.5-25.5Q328-458 317.711-468.5q-10.29-10.5-25.5-10.5Q277-479 266.5-468.711q-10.5 10.29-10.5 25.5Q256-428 266.289-417.5q10.29 10.5 25.5 10.5Zm0 95Q307-312 317.5-322.289q10.5-10.29 10.5-25.5Q328-363 317.711-373.5q-10.29-10.5-25.5-10.5Q277-384 266.5-373.711q-10.5 10.29-10.5 25.5Q256-333 266.289-322.5q10.29 10.5 25.5 10.5Zm23.171-216h169.757Q509-528 526.5-545.35T544-587v-2q0-24.3-17.338-41.65Q509.323-648 485.04-648H315.283Q291-648 273.5-630.65T256-589v2q0 24.3 17.338 41.65Q290.677-528 314.96-528Zm84.829 121Q415-407 425.5-417.289q10.5-10.29 10.5-25.5Q436-458 425.711-468.5q-10.29-10.5-25.5-10.5Q385-479 374.5-468.711q-10.5 10.29-10.5 25.5Q364-428 374.289-417.5q10.29 10.5 25.5 10.5Zm0 95Q415-312 425.5-322.289q10.5-10.29 10.5-25.5Q436-363 425.711-373.5q-10.29-10.5-25.5-10.5Q385-384 374.5-373.711q-10.5 10.29-10.5 25.5Q364-333 374.289-322.5q10.29 10.5 25.5 10.5Zm108-95Q523-407 533.5-417.289q10.5-10.29 10.5-25.5Q544-458 533.711-468.5q-10.29-10.5-25.5-10.5Q493-479 482.5-468.711q-10.5 10.29-10.5 25.5Q472-428 482.289-417.5q10.29 10.5 25.5 10.5Zm0 95Q523-312 533.5-322.289q10.5-10.29 10.5-25.5Q544-363 533.711-373.5q-10.29-10.5-25.5-10.5Q493-384 482.5-373.711q-10.5 10.29-10.5 25.5Q472-333 482.289-322.5q10.29 10.5 25.5 10.5ZM592-264v-432H208v432h384Zm118 146q-23 0-45-10.5T629-156H218q-49.7 0-83.85-34.162Q100-224.324 100-274.04v-412.243Q100-736 134.15-770T218-804h394q14-25 41-40.5t57-15.5h32q49.7 0 83.85 34.15Q860-791.7 860-742v506q0 49.7-34.15 83.85Q791.7-118 742-118h-32ZM208-264v-432 432Z"/></svg>