<svg xmlns="http://www.w3.org/2000/svg" height="20" viewBox="0 -960 960 960" width="20"><path d="M373.846-200.923q-46.154 0-78.154-32-32-32-32-78.154v-294.462q0-64.295 45.006-108.917 45.006-44.621 108.533-44.621h125.538q64.296 0 108.917 44.621 44.622 44.622 44.622 108.917v294.462q0 46.154-32 78.154-32 32-78.154 32H373.846Zm11.79-252.308q10.595 0 18.787-7.982 8.192-7.981 8.192-18.576 0-10.596-7.981-18.788-7.982-8.192-18.577-8.192-10.596 0-18.788 7.982-8.192 7.981-8.192 18.576 0 10.596 7.982 18.788 7.981 8.192 18.577 8.192Zm94.153 0q10.596 0 18.788-7.982 8.192-7.981 8.192-18.576 0-10.596-7.982-18.788-7.981-8.192-18.576-8.192-10.596 0-18.788 7.982-8.192 7.981-8.192 18.576 0 10.596 7.982 18.788 7.981 8.192 18.576 8.192Zm94.154 0q10.596 0 18.788-7.982 8.192-7.981 8.192-18.576 0-10.596-7.982-18.788-7.981-8.192-18.577-8.192-10.595 0-18.787 7.982-8.192 7.981-8.192 18.576 0 10.596 7.981 18.788 7.982 8.192 18.577 8.192Z"/></svg>