<svg xmlns="http://www.w3.org/2000/svg" height="20" viewBox="0 -960 960 960" width="20"><path d="M373.846-200.923q-46.038 0-78.096-32.057-32.058-32.058-32.058-78.097v-294.462q0-64.295 44.91-108.917 44.91-44.621 108.629-44.621h125.538q64.296 0 108.917 44.621 44.622 44.622 44.622 108.917v294.462q0 46.039-32.058 78.097-32.057 32.057-78.096 32.057H373.846Zm0-32h212.308q32.238 0 55.196-22.958 22.958-22.957 22.958-55.196v-294.462q0-50.641-35.449-86.089-35.449-35.449-86.09-35.449H417.231q-50.641 0-86.09 35.449-35.449 35.448-35.449 86.089v294.462q0 32.239 22.958 55.196 22.958 22.958 55.196 22.958Zm11.79-220.308q10.595 0 18.787-7.982 8.192-7.981 8.192-18.576 0-10.596-7.981-18.788-7.982-8.192-18.577-8.192-10.596 0-18.788 7.982-8.192 7.981-8.192 18.576 0 10.596 7.982 18.788 7.981 8.192 18.577 8.192Zm94.153 0q10.596 0 18.788-7.982 8.192-7.981 8.192-18.576 0-10.596-7.982-18.788-7.981-8.192-18.576-8.192-10.596 0-18.788 7.982-8.192 7.981-8.192 18.576 0 10.596 7.982 18.788 7.981 8.192 18.576 8.192Zm94.154 0q10.596 0 18.788-7.982 8.192-7.981 8.192-18.576 0-10.596-7.982-18.788-7.981-8.192-18.577-8.192-10.595 0-18.787 7.982-8.192 7.981-8.192 18.576 0 10.596 7.981 18.788 7.982 8.192 18.577 8.192ZM480-480Z"/></svg>