<svg xmlns="http://www.w3.org/2000/svg" height="24" viewBox="0 -960 960 960" width="24"><path d="M148-164q-13 0-21.5-8.5T118-194v-608q0-13 8.5-21.5T148-832h288q13 0 21.5 8.5T466-802v130h346q13 0 21.5 8.5T842-642v292q0 5.95-4.035 9.975-4.035 4.025-10 4.025T818-340.025q-4-4.025-4-9.975v-294H466v132h100v28H466v132h100v28H466v132h186q5.95 0 9.975 4.035 4.025 4.035 4.025 10T661.975-168q-4.025 4-9.975 4H148Zm-2-28h132v-132H146v132Zm0-160h132v-132H146v132Zm0-160h132v-132H146v132Zm0-160h132v-132H146v132Zm160 480h132v-132H306v132Zm0-160h132v-132H306v132Zm0-160h132v-132H306v132Zm0-160h132v-132H306v132ZM827.965-84Q822-84 818-88.025T814-98v-66h-66q-5.95 0-9.975-4.035-4.025-4.035-4.025-10t4.025-9.965q4.025-4 9.975-4h66v-66q0-5.95 4.035-9.975 4.035-4.025 10-4.025t9.965 4.025q4 4.025 4 9.975v66h66q5.95 0 9.975 4.035 4.025 4.035 4.025 10T917.975-168q-4.025 4-9.975 4h-66v66q0 5.95-4.035 9.975-4.035 4.025-10 4.025ZM666-484v-28h28v28h-28Zm0 160v-28h28v28h-28Z"/></svg>