<svg xmlns="http://www.w3.org/2000/svg" height="20" viewBox="0 -960 960 960" width="20"><path d="M183-98q-49.7 0-83.85-34.15Q65-166.3 65-216v-497q0-49.7 34.15-83.85Q133.3-831 183-831h210q49.7 0 83.85 34.15Q511-762.7 511-713v26h266q49.7 0 83.85 34.15Q895-618.7 895-569v163q0 21.675-14.602 36.337Q865.796-355 844.211-355 823-355 807.5-370.35T792-407v-178H480v80h72v72h-72v80h72v72h-72v80h106q21.675 0 36.338 14.602Q637-171.796 637-150.211 637-129 622.338-113.5 607.675-98 586-98H183Zm-15-103h72v-72h-72v72Zm0-152h72v-72h-72v72Zm0-152h72v-72h-72v72Zm0-152h72v-72h-72v72Zm168 456h72v-72h-72v72Zm0-152h72v-72h-72v72Zm0-152h72v-72h-72v72Zm0-152h72v-72h-72v72ZM836.193-31Q818-31 805.117-43.65 792.233-56.3 792.233-75v-38h-39.116q-18.75 0-31.434-12.65Q709-138.3 709-157q0-18.7 12.683-31.35Q734.367-201 753.117-201h39.116v-39q0-18.275 12.684-30.638Q817.6-283 836.211-283q18.185 0 30.487 12.362Q879-258.275 879-240v39h38.789q18.611 0 31.411 12.589 12.8 12.59 12.8 31.2 0 18.611-12.65 31.261Q936.7-113.3 918-113.3h-39v39q0 18.275-12.307 30.787Q854.386-31 836.193-31ZM648-433v-72h72v72h-72Zm0 152v-72h72v72h-72Z"/></svg>