<svg xmlns="http://www.w3.org/2000/svg" height="20" viewBox="0 -960 960 960" width="20"><path d="M158.769-177.846q-14.315 0-23.927-9.612-9.611-9.611-9.611-23.927v-564.922q0-14.316 9.611-23.928 9.612-9.611 23.927-9.611h276.923q14.316 0 23.927 9.611 9.612 9.612 9.612 23.928v110.461h332q14.315 0 23.927 9.611 9.611 9.612 9.611 23.928v274.768q0 6.8-4.547 11.4-4.547 4.6-11.269 4.6t-11.453-4.6q-4.731-4.6-4.731-11.4v-276.307H469.231v120h87.384v32h-87.384v120h87.384v32h-87.384v120H652q6.8 0 11.4 4.547 4.6 4.547 4.6 11.269t-4.6 11.453q-4.6 4.731-11.4 4.731H158.769Zm-1.538-32h112v-112h-112v112Zm0-152h112v-112h-112v112Zm0-152h112v-112h-112v112Zm0-152h112v-112h-112v112Zm168 456h112v-112h-112v112Zm0-152h112v-112h-112v112Zm0-152h112v-112h-112v112Zm0-152h112v-112h-112v112Zm493.722 560q-6.722 0-11.337-4.6-4.614-4.6-4.614-11.4v-56h-56.116q-6.85 0-11.483-4.608-4.634-4.608-4.634-11.419 0-6.812 4.634-11.392 4.633-4.581 11.483-4.581h56.116v-56q0-6.8 4.641-11.4 4.642-4.6 11.364-4.6t11.242 4.6q4.52 4.6 4.52 11.4v56h55.79q6.71 0 11.46 4.547 4.75 4.547 4.75 11.269t-4.6 11.303q-4.6 4.581-11.4 4.581h-56v56q0 6.8-4.547 11.55-4.547 4.75-11.269 4.75ZM668-481.846v-32h32v32h-32Zm0 152v-32h32v32h-32Z"/></svg>