<svg xmlns="http://www.w3.org/2000/svg" height="24" viewBox="0 -960 960 960" width="24"><path d="M159.973-60q-8.512 0-14.242-5.75Q140-71.5 140-80v-141.846q-35-8.923-57.5-35.192Q60-283.308 60-320v-347.692q0-13.731 9.288-23.02Q78.577-700 92.308-700H140v-180q0-8.5 5.758-14.25 5.757-5.75 14.269-5.75t14.242 5.75Q180-888.5 180-880v180h47.692q13.731 0 23.02 9.288 9.288 9.289 9.288 23.02V-320q0 36.692-22.5 62.962-22.5 26.269-57.5 35.192V-79q0 7.77-5.758 13.385Q168.485-60 159.973-60Zm320 0q-8.512 0-14.242-5.75Q460-71.5 460-80v-141.846q-35-8.923-57.5-35.192Q380-283.308 380-320v-347.692q0-13.731 9.288-23.02 9.289-9.288 23.02-9.288H460v-180q0-8.5 5.758-14.25 5.757-5.75 14.269-5.75t14.242 5.75Q500-888.5 500-880v180h47.692q13.731 0 23.02 9.288 9.288 9.289 9.288 23.02V-320q0 36.692-22.5 62.962-22.5 26.269-57.5 35.192V-79q0 7.77-5.758 13.385Q488.485-60 479.973-60Zm320 0q-8.512 0-14.242-5.75Q780-71.5 780-80v-141.846q-35-8.923-57.5-35.192Q700-283.308 700-320v-347.692q0-13.731 9.288-23.02 9.289-9.288 23.02-9.288H780v-180q0-8.5 5.758-14.25 5.757-5.75 14.269-5.75t14.242 5.75Q820-888.5 820-880v180h47.692q13.731 0 23.02 9.288 9.288 9.289 9.288 23.02V-320q0 36.692-22.5 62.962-22.5 26.269-57.5 35.192V-79q0 7.77-5.758 13.385Q808.485-60 799.973-60ZM100-660v200h120v-200H100Zm320 0v200h120v-200H420Zm320 0v200h120v-200H740ZM160-260q24.692 0 42.346-17.654Q220-295.308 220-320v-100H100v100q0 24.692 17.654 42.346Q135.308-260 160-260Zm320 0q24.692 0 42.346-17.654Q540-295.308 540-320v-100H420v100q0 24.692 17.654 42.346Q455.308-260 480-260Zm320 0q24.692 0 42.346-17.654Q860-295.308 860-320v-100H740v100q0 24.692 17.654 42.346Q775.308-260 800-260ZM160-440Zm320 0Zm320 0Zm-700-20h120-120Zm320 0h120-120Zm320 0h120-120Zm-580 40h-60 120-60Zm320 0h-60 120-60Zm320 0h-60 120-60Z"/></svg>