<svg xmlns="http://www.w3.org/2000/svg" height="20" viewBox="0 -960 960 960" width="20"><path d="M160.965-66Q155-66 150-71.025T145-82v-146q-34-7-56.5-32T66-322v-103h190v103q0 37-22 62t-57 32v147q0 5-5.035 10t-11 5Zm319 0Q474-66 469-71.025T464-82v-146q-34-7-56.5-32T385-322v-103h190v103q0 37-22.5 62T496-228v147q0 5-5.035 10t-11 5Zm319 0Q793-66 788-71.025T783-82v-146q-34-7-56.5-32T704-322v-103h190v103q0 37-22.5 62T815-228v147q0 5-5.035 10t-11 5ZM66-457v-205q0-12.75 9.625-22.375T98-694h47v-184q0-6.95 4.535-11.475 4.535-4.525 11.5-4.525t11.465 4.525Q177-884.95 177-878v184h47q12.75 0 22.375 9.625T256-662v205H66Zm319 0v-205q0-12.75 9.625-22.375T417-694h47v-184q0-6.95 4.535-11.475 4.535-4.525 11.5-4.525t11.465 4.525Q496-884.95 496-878v184h47q12.75 0 22.375 9.625T575-662v205H385Zm319 0v-205q0-12.75 9.625-22.375T736-694h47v-184q0-6.95 4.535-11.475 4.535-4.525 11.5-4.525t11.465 4.525Q815-884.95 815-878v184h47q12.75 0 22.375 9.625T894-662v205H704Z"/></svg>