<svg xmlns="http://www.w3.org/2000/svg" height="24" viewBox="0 -960 960 960" width="24"><path d="M159.987-50q-12.756 0-21.371-8.626-8.615-8.624-8.615-21.374v-134.924q-35-10.461-57.5-38.845Q50-282.154 50-320v-353.846q0-15.365 10.394-25.759t25.76-10.394H130V-880q0-12.75 8.628-21.375 8.629-8.624 21.384-8.624 12.756 0 21.371 8.624 8.615 8.625 8.615 21.375v170.001h43.847q15.365 0 25.759 10.394t10.394 25.759V-320q0 37.846-22.5 66.231-22.5 28.384-57.5 38.845V-79q0 12.384-8.628 20.692-8.629 8.307-21.384 8.307Zm320 0q-12.756 0-21.371-8.626-8.615-8.624-8.615-21.374v-134.924q-35-10.461-57.5-38.845-22.5-28.385-22.5-66.231v-353.846q0-15.365 10.394-25.759t25.759-10.394h43.847V-880q0-12.75 8.628-21.375 8.629-8.624 21.384-8.624 12.756 0 21.371 8.624 8.615 8.625 8.615 21.375v170.001h43.847q15.365 0 25.759 10.394t10.394 25.759V-320q0 37.846-22.5 66.231-22.5 28.384-57.5 38.845V-79q0 12.384-8.628 20.692-8.629 8.307-21.384 8.307Zm320 0q-12.756 0-21.371-8.626-8.615-8.624-8.615-21.374v-134.924q-35-10.461-57.5-38.845-22.5-28.385-22.5-66.231v-353.846q0-15.365 10.394-25.759t25.759-10.394h43.847V-880q0-12.75 8.628-21.375 8.629-8.624 21.384-8.624 12.756 0 21.371 8.624 8.615 8.625 8.615 21.375v170.001h43.847q15.365 0 25.759 10.394t10.394 25.759V-320q0 37.846-22.5 66.231-22.5 28.384-57.5 38.845V-79q0 12.384-8.628 20.692-8.629 8.307-21.384 8.307ZM109.999-650.002v180.002h100.002v-180.002H109.999Zm320 0v180.002h100.002v-180.002H429.999Zm320 0v180.002h100.002v-180.002H749.999ZM160-269.999q20.846 0 35.424-14.577 14.577-14.578 14.577-35.424v-90.001H109.999V-320q0 20.846 14.577 35.424 14.578 14.577 35.424 14.577Zm320 0q20.846 0 35.424-14.577 14.577-14.578 14.577-35.424v-90.001H429.999V-320q0 20.846 14.577 35.424 14.578 14.577 35.424 14.577Zm320 0q20.846 0 35.424-14.577 14.577-14.578 14.577-35.424v-90.001H749.999V-320q0 20.846 14.577 35.424 14.578 14.577 35.424 14.577ZM160-440Zm320 0Zm320 0Zm-690.001-29.999h100.002-100.002Zm320 0h100.002-100.002Zm320 0h100.002-100.002ZM160-410.001h-50.001 100.002H160Zm320 0h-50.001 100.002H480Zm320 0h-50.001 100.002H800Z"/></svg>