<svg xmlns="http://www.w3.org/2000/svg" height="24" viewBox="0 -960 960 960" width="24"><path d="M160-35.478q-18.922 0-31.722-12.8T115.478-80v-125.174q-35-13.13-57.5-43.913-22.5-30.783-22.5-70.913v-75.478h249.044V-320q0 40.13-22.5 70.913-22.5 30.783-57.5 43.913V-79q0 18.971-12.8 31.246-12.8 12.276-31.722 12.276Zm320 0q-18.922 0-31.722-12.8T435.478-80v-125.174q-35-13.13-57.5-43.913-22.5-30.783-22.5-70.913v-75.478h249.044V-320q0 40.13-22.5 70.913-22.5 30.783-57.5 43.913V-79q0 18.971-12.8 31.246-12.8 12.276-31.722 12.276Zm320 0q-18.922 0-31.722-12.8T755.478-80v-125.174q-35-13.13-57.5-43.913-22.5-30.783-22.5-70.913v-75.478h249.044V-320q0 40.13-22.5 70.913-22.5 30.783-57.5 43.913V-79q0 18.971-12.8 31.246-12.8 12.276-31.722 12.276ZM35.478-484.522v-186.999q0-22.088 15.457-37.544 15.456-15.457 37.544-15.457h26.999V-880q0-18.922 12.8-31.722t31.722-12.8q18.922 0 31.722 12.8t12.8 31.722v155.478h26.999q22.088 0 37.544 15.457 15.457 15.456 15.457 37.544v186.999H35.478Zm320 0v-186.999q0-22.088 15.457-37.544 15.456-15.457 37.544-15.457h26.999V-880q0-18.922 12.8-31.722t31.722-12.8q18.922 0 31.722 12.8t12.8 31.722v155.478h26.999q22.088 0 37.544 15.457 15.457 15.456 15.457 37.544v186.999H355.478Zm320 0v-186.999q0-22.088 15.457-37.544 15.456-15.457 37.544-15.457h26.999V-880q0-18.922 12.8-31.722t31.722-12.8q18.922 0 31.722 12.8t12.8 31.722v155.478h26.999q22.088 0 37.544 15.457 15.457 15.456 15.457 37.544v186.999H675.478Z"/></svg>