<svg xmlns="http://www.w3.org/2000/svg" height="20" viewBox="0 -960 960 960" width="20"><path d="M161-40q-17 0-29.5-12.5T119-82v-128q-34-11-56.5-41.5T40-322v-356.18Q40-695 52.5-707.5T82-720h37v-158q0-17.85 12.105-29.925 12.106-12.075 30-12.075Q179-920 191-907.925T203-878v158h37q17 0 29.5 12.5t12.5 29.32V-322q0 40-22 70.5T203-210v129q0 17-12.5 29T161-40Zm319 0q-17 0-29.5-12.5T438-82v-128q-34-11-56.5-41.5T359-322v-356.18q0-16.82 12.5-29.32T401-720h37v-158q0-17.85 12.105-29.925 12.106-12.075 30-12.075Q498-920 510-907.925T522-878v158h37q17 0 29.5 12.5t12.5 29.32V-322q0 40-22.5 70.5T522-210v129q0 17-12.5 29T480-40Zm319 0q-17 0-29.5-12.5T757-82v-128q-34-11-56.5-41.5T678-322v-356.18q0-16.82 12.5-29.32T720-720h37v-158q0-17.85 12.105-29.925 12.106-12.075 30-12.075Q817-920 829-907.925T841-878v158h37q17 0 29.5 12.5t12.5 29.32V-322q0 40-22.5 70.5T841-210v129q0 17-12.5 29T799-40ZM125-636v153h72v-153h-72Zm319 0v153h72v-153h-72Zm320 0v153h72v-153h-72ZM159.789-286Q175-286 185.5-296.35 196-306.7 196-322v-77h-72v77q0 15.3 10.289 25.65 10.29 10.35 25.5 10.35Zm320 0Q495-286 505.5-296.35 516-306.7 516-322v-77h-72v77q0 15.3 10.289 25.65 10.29 10.35 25.5 10.35Zm320 0Q815-286 825.5-296.35 836-306.7 836-322v-77h-72v77q0 15.3 10.289 25.65 10.29 10.35 25.5 10.35ZM161-441Zm319 0Zm319 0Zm-674-42h72-72Zm319 0h72-72Zm320 0h72-72Zm-604 84h-36 72-36Zm320 0h-36 72-36Zm320 0h-36 72-36Z"/></svg>