<svg xmlns="http://www.w3.org/2000/svg" height="24" viewBox="0 -960 960 960" width="24"><path d="M160-35.478q-18.922 0-31.722-12.8T115.478-80v-125.174q-35-13.13-57.5-43.913-22.5-30.783-22.5-70.913v-351.521q0-22.088 15.457-37.544 15.456-15.457 37.544-15.457h26.999V-880q0-18.922 12.8-31.722t31.722-12.8q18.922 0 31.722 12.8t12.8 31.722v155.478h26.999q22.088 0 37.544 15.457 15.457 15.456 15.457 37.544V-320q0 40.13-22.5 70.913-22.5 30.783-57.5 43.913V-79q0 18.971-12.8 31.246-12.8 12.276-31.722 12.276Zm320 0q-18.922 0-31.722-12.8T435.478-80v-125.174q-35-13.13-57.5-43.913-22.5-30.783-22.5-70.913v-351.521q0-22.088 15.457-37.544 15.456-15.457 37.544-15.457h26.999V-880q0-18.922 12.8-31.722t31.722-12.8q18.922 0 31.722 12.8t12.8 31.722v155.478h26.999q22.088 0 37.544 15.457 15.457 15.456 15.457 37.544V-320q0 40.13-22.5 70.913-22.5 30.783-57.5 43.913V-79q0 18.971-12.8 31.246-12.8 12.276-31.722 12.276Zm320 0q-18.922 0-31.722-12.8T755.478-80v-125.174q-35-13.13-57.5-43.913-22.5-30.783-22.5-70.913v-351.521q0-22.088 15.457-37.544 15.456-15.457 37.544-15.457h26.999V-880q0-18.922 12.8-31.722t31.722-12.8q18.922 0 31.722 12.8t12.8 31.722v155.478h26.999q22.088 0 37.544 15.457 15.457 15.456 15.457 37.544V-320q0 40.13-22.5 70.913-22.5 30.783-57.5 43.913V-79q0 18.971-12.8 31.246-12.8 12.276-31.722 12.276Zm-675.478-600v150.956h70.956v-150.956h-70.956Zm320 0v150.956h70.956v-150.956h-70.956Zm320 0v150.956h70.956v-150.956h-70.956ZM160.159-284.522q15.145 0 25.232-10.369 10.087-10.37 10.087-25.109v-75.478h-70.956V-320q0 14.739 10.246 25.109 10.245 10.369 25.391 10.369Zm320 0q15.145 0 25.232-10.369 10.087-10.37 10.087-25.109v-75.478h-70.956V-320q0 14.739 10.246 25.109 10.245 10.369 25.391 10.369Zm320 0q15.145 0 25.232-10.369 10.087-10.37 10.087-25.109v-75.478h-70.956V-320q0 14.739 10.246 25.109 10.245 10.369 25.391 10.369ZM160-440Zm320 0Zm320 0Zm-675.478-44.522h70.956-70.956Zm320 0h70.956-70.956Zm320 0h70.956-70.956Zm-604.284 89.044h-35.716 70.956-35.24Zm320 0h-35.716 70.956-35.24Zm320 0h-35.716 70.956-35.24Z"/></svg>