<svg xmlns="http://www.w3.org/2000/svg" height="24" viewBox="0 -960 960 960" width="24"><path d="M0-195.478v-89.044h152.13q9.304-68.565 57.63-123.522 48.327-54.957 115.457-73.261l-54.043-234.173H115.478v-89.044h227.044l90.869 400h-35.087q-67.695 0-115.261 48.131-47.565 48.13-47.565 116.391v44.522H0Zm400 80q-52.261 0-88.391-36.131-36.131-36.13-36.131-88.391t36.131-88.391q36.13-36.131 88.391-36.131t88.391 36.131q36.131 36.13 36.131 88.391t-36.131 88.391q-36.13 36.131-88.391 36.131Zm355.478-121.131q-72 0-127.63-45.065-55.631-45.065-71.761-113.804h-79.869l-19.696-89.044h99.565q5-20.174 12.369-37.913 7.37-17.739 18.543-33.043H440.218l-19.696-89.044h211.304l-40.609-110.956H489.478v-89.044H653.87l72.434 198h29.174q85.826 0 145.174 59.348Q960-527.826 960-442q0 86.13-60.196 145.761-60.195 59.63-144.326 59.63Zm-42.261-184.304 83.913-30.261-38.304-103.739-83.044 30.826 37.435 103.174Z"/></svg>