<svg xmlns="http://www.w3.org/2000/svg" height="20" viewBox="0 -960 960 960" width="20"><path d="M0-223.478v-81.044h159.13q9.304-70.565 57.13-126.022 47.827-55.457 113.957-72.761l-43.043-188.173H139.478v-81.044h213.044l75.869 338h-32.087q-67.695 0-113.761 50.631-46.065 50.63-46.065 123.891v36.522H0Zm408 84q-52.261 0-88.391-36.131-36.131-36.13-36.131-88.391t36.131-88.391q36.13-36.131 88.391-36.131t88.391 36.131q36.131 36.13 36.131 88.391t-36.131 88.391q-36.13 36.131-88.391 36.131Zm0-81.044q18.139 0 30.809-12.669 12.669-12.67 12.669-30.809 0-18.139-12.669-30.809-12.67-12.669-30.809-12.669-18.139 0-30.809 12.669-12.669 12.67-12.669 30.809 0 18.139 12.669 30.809 12.67 12.669 30.809 12.669Zm355.478-16.087q-81 0-137.63-56.065-56.631-56.065-57.761-134.804h-87.869l-18.696-81.044h120.565q5-11.174 11.369-20.413 6.37-9.239 12.543-18.543H452.218l-17.696-81.044h215.304l-40.609-110.956H427.478v-81.044H665.87l69.653 192h27.955q84.826 0 140.674 58.348Q960-511.826 960-430.94q0 81.07-57.856 137.701-57.855 56.63-138.666 56.63Zm0-79.913q48.304 0 82.174-33.869 33.869-33.87 33.869-80.609 0-50.304-36.521-85.043-36.522-34.739-78.87-29.87h1.696l37.304 104.739-75.913 26.261-37.435-104.174q-18.173 12.87-29.978 37.892Q648-456.174 648-432q0 47.739 33.587 81.609 33.587 33.869 81.891 33.869ZM408-264Zm355.478-167.435Z"/></svg>