<svg xmlns="http://www.w3.org/2000/svg" height="20" viewBox="0 -960 960 960" width="20"><path d="M352.923-232H240.615Q217-232 200.5-248.5 184-265 184-288.615v-478.77Q184-791 200.5-807.5 217-824 240.615-824h478.77q24.315 0 40.465 16.5Q776-791 776-767.385v478.77Q776-265 759.85-248.5 743.7-232 719.385-232H607.077L499.615-124.538q-8.328 8.692-19.433 8.692t-19.797-8.692L352.923-232Zm-112.308-32h125.923L480-150.538 592.462-264h126.923q10.769 0 17.692-6.923T744-288.615v-478.77q0-10.769-6.923-17.692T719.385-792h-478.77q-10.769 0-17.692 6.923T216-767.385v478.77q0 10.769 6.923 17.692T240.615-264ZM480-528Zm3.846 184.462q12.308 0 19.423-7.89 7.116-7.89 7.116-19.424 0-11.533-7.686-18.648t-18.923-7.115q-11.238 0-18.853 7.115-7.615 7.115-7.615 18.648 0 11.534 7.665 19.424 7.665 7.89 18.873 7.89Zm65.385-273.154q0 25.307-15.846 41.538-15.847 16.231-30.231 30.385-12.462 13.23-19.462 21.461-7 8.231-10.049 15.602-2.951 5.86-4.284 11.783-1.333 5.923-2.667 12.846-1.231 6.861 4.154 11.969T482.405-466q5.98 0 11.134-4.303 5.153-4.304 6.538-11.005 3-11.538 9.5-22.577 6.5-11.038 21.269-25.807 14.616-14.616 31.193-34.347 16.577-19.73 16.577-54.653 0-43.77-30.231-68.77-30.231-25-69.654-25-25.962 0-50.116 14.923T389.769-662q-3.923 5.668-1.885 12.257 2.039 6.589 8.885 9.281 5.18 2.693 11.128 1 5.949-1.692 10.872-8.077 11.077-16.384 26-25.538t34.462-9.154q38.923 0 54.461 19.308 15.539 19.308 15.539 46.231Z"/></svg>