<svg xmlns="http://www.w3.org/2000/svg" height="20" viewBox="0 -960 960 960" width="20"><path d="M328.087-172.782H222.783q-40.305 0-69.153-28.848-28.848-28.848-28.848-69.153v-514.434q0-40.305 28.848-69.153 28.848-28.848 69.153-28.848h514.434q41.005 0 69.503 28.848 28.498 28.848 28.498 69.153v514.434q0 40.305-28.498 69.153-28.498 28.848-69.503 28.848H631.913L514.609-55.477q-14.593 14.956-34.427 14.956t-34.791-14.956L328.087-172.782Zm-105.304-98.001h145.608L480-159.174l110.609-111.609h146.608v-514.434H222.783v514.434ZM480-528Zm2.826 216.565q22.261 0 36.74-15.253 14.478-15.253 14.478-36.739 0-21.486-15.049-35.965-15.049-14.478-36.239-14.478-21.191 0-36.169 14.478-14.978 14.479-14.978 35.965 0 21.486 15.028 36.739 15.028 15.253 36.189 15.253Zm47.565-312.478q0 21.304-16.718 36.609-16.717 15.304-28.369 26.521-16.261 16.826-23.826 25.826-7.565 9-10.818 17.909-1.617 4.526-2.667 10.064-1.051 5.539-2.384 11.897-2.566 16.045 9.413 27.848 11.978 11.804 28.106 11.804 13.829 0 25.961-10.049 12.132-10.05 18.085-28.038 4.131-8.869 10.631-18.369t18.239-20.674q14.347-14.348 32.847-35.13 18.5-20.783 18.5-62.175 0-55.826-36.847-85.26-36.848-29.435-85.957-29.435-38.63 0-68.043 19.413Q387.13-705.739 369-679.739q-8.696 13.314-2.348 27.548 6.348 14.235 22.174 20.365 13.595 6.131 27.754 1 14.16-5.13 24.421-17.826 6.304-8.739 16.478-15.326 10.173-6.587 24.217-6.587 28.043 0 38.369 15.305 10.326 15.304 10.326 31.347Z"/></svg>