<svg xmlns="http://www.w3.org/2000/svg" height="24" viewBox="0 -960 960 960" width="24"><path d="M480-243q-18 0-31.5-13.5T435-288q0-18 13.5-31t31.5-13q18 0 31.5 13t13.5 31q0 18-13.5 31.5T480-243Zm-40-157v-120l80 80v40q0 17-11.5 28.5T480-360q-17 0-28.5-11.5T440-400Zm477 242L614-461 480-692l-36 61-81-81 62-108q18-32 54.5-32t54.5 32l383 662Zm-714-56h409L353-473 203-214ZM814-13l-91-90H120q-37 0-54.5-31.5T66-198l206-356L12-814q-14-14-13.5-33.5T13-881q14-14 33.5-14T80-881L881-79q14 14 14 33t-14 33Q867 1 847.5 1T814-13ZM483-343Zm46-203Z"/></svg>