<svg xmlns="http://www.w3.org/2000/svg" height="24" viewBox="0 -960 960 960" width="24"><path d="M480-241.696q-17.565 0-30.196-12.63-12.63-12.631-12.63-30.196t12.63-29.913q12.631-12.348 30.196-12.348t30.196 12.348q12.63 12.348 12.63 29.913 0 17.565-12.63 30.196-12.631 12.63-30.196 12.63ZM440-400v-120.435l80 80V-400q0 17-11.5 28.5T480-360q-17 0-28.5-11.5T440-400Zm457.871 222.871L631.825-442.74 480-704.173l-40.782 69.26-71.001-71L433.695-820q14.957-26.783 46.022-26.783 31.066 0 46.023 26.783l372.131 642.871Zm-705.74-30.784h435.085l-275.52-275.521-159.565 275.521Zm611.87 175.784-79.262-78.262H115.218q-30.914 0-45.588-26.5t.283-53.283l210.782-364.261-250-250q-13.131-13.131-12.631-31.327.5-18.195 13.63-31.326 13.13-13.13 31.327-13.13 18.195 0 31.326 13.13L866.653-93.782q13.131 13.13 13.131 30.827 0 17.695-13.131 30.826Q853.523-19 835.327-19q-18.196 0-31.326-13.13ZM489.956-345.174Zm45.565-193.435Z"/></svg>