<svg xmlns="http://www.w3.org/2000/svg" height="20" viewBox="0 -960 960 960" width="20"><path d="M480-312.615q49.231 0 92.423-24.077 43.193-24.077 71.423-66.308H316.154q28.23 42.231 71.423 66.308 43.192 24.077 92.423 24.077ZM326-541.923l34-35.538 35.538 35.538L412.615-559 360-610.077 308.923-559 326-541.923Zm238.462 0L600-577.461l34 35.538L651.077-559 600-610.077 547.385-559l17.077 17.077ZM480.134-136q-70.673 0-133.41-26.839-62.737-26.84-109.865-73.922-47.127-47.082-73.993-109.757Q136-409.194 136-479.866q0-71.673 26.839-133.91 26.84-62.237 73.922-109.365 47.082-47.127 109.757-73.993Q409.194-824 479.866-824q71.673 0 133.91 26.839 62.237 26.84 109.365 73.922 47.127 47.082 73.993 109.257Q824-551.806 824-480.134q0 70.673-26.839 133.41-26.84 62.737-73.922 109.865-47.082 47.127-109.257 73.993Q551.806-136 480.134-136ZM480-480Zm0 312q130 0 221-91t91-221q0-130-91-221t-221-91q-130 0-221 91t-91 221q0 130 91 221t221 91Z"/></svg>