<svg xmlns="http://www.w3.org/2000/svg" height="20" viewBox="0 -960 960 960" width="20"><path d="M582.218-376.652V-574.87h149.087v198.218H582.218Zm51.956-53.087h44.609v-91.478h-44.609v91.478Zm-405.479 53.087v-122.826h94.304v-22.304h-94.304v-53.088h149.087v122.827h-94.304v22.304h94.304v53.087H228.695Zm214.304-134.869v-61.001h74.002v61.001h-74.002Zm0 132.522V-440h74.002v61.001h-74.002ZM61.52-157.52v-636.481h195.957v-80.479h89.522v80.479h266.002v-80.479h89.522v80.479H898.48v636.481H61.52Zm88.957-88.957h292.522v-61.001h74.002v61.001h292.522v-458.002H517.001v61.001h-74.002v-61.001H150.477v458.002Zm0 0v-458.002 458.002Z"/></svg>