<svg xmlns="http://www.w3.org/2000/svg" height="20" viewBox="0 -960 960 960" width="20"><path d="M578.63-380.891v-194.631h146.153v194.631H578.63Zm49.674-50.152h46.566v-94.087h-46.566v94.087Zm-393.087 50.152v-121.196H330.5v-23.283h-95.283v-50.152H381.37v121.196h-95.283v23.283h95.283v50.152H235.217ZM450.5-516.413v-53.5h59v53.5h-59Zm0 129.913V-440h59v53.5h-59ZM81.413-177.413V-779h193.674v-75.587H354.5V-779h251v-75.587h79.413V-779h193.674v601.587H81.413Zm79.174-79.174H450.5v-53.5h59v53.5h289.913v-443H509.5v53.5h-59v-53.5H160.587v443Zm0 0v-443 443Z"/></svg>