<svg xmlns="http://www.w3.org/2000/svg" height="20" viewBox="0 -960 960 960" width="20"><path d="M871-20 744-147q-13.828 6-29.914 10Q698-133 682-133q-60.412 0-102.706-42.416Q537-217.832 537-278.416T579.416-381q42.416-42 103-42T785-381q42 42 42 103 0 17.484-3.5 32.242Q820-231 813-215L939-88l-68 68ZM682.434-231Q702-231 715.5-244.934q13.5-13.933 13.5-33.5Q729-298 715.066-311.5q-13.933-13.5-33.5-13.5Q662-325 648.5-311.066q-13.5 13.933-13.5 33.5Q635-258 648.934-244.5q13.933 13.5 33.5 13.5ZM98-73v-279q0-47.083 33.25-80.042Q164.5-465 212-465h191q18 0 29.5-1.5T444-483q0-39.25-27.375-66.625T350-577q-24.75 0-42.375-17.625T290-637v-250h308v97q113 9 188.5 87.5T862-506v108q-31-48-79-72.5T679-495q-85.75 0-147.375 58.222T465-293.667Q463-263 470-232t22 59h-90q1.7 0 2.85-1.15Q406-175.3 406-177v104H98Z"/></svg>