<svg xmlns="http://www.w3.org/2000/svg" height="24" viewBox="0 -960 960 960" width="24"><path d="M93.999-67v-268.827q0-51.13 36.13-86.978 36.131-35.848 87.261-35.848h106.567q40.391 0 68.042-21.999 27.652-22 27.652-60.695 0-19.261-13.196-32.457-13.195-13.195-32.456-13.195-33 0-56.5-23.5t-23.5-56.5v-226.002H400v203.392q55.652 4.522 90.652 48.283t35 99.979q0 82.435-58.5 135.565-58.5 53.13-143.195 53.13H217.39q-7.391 0-12.39 5-5 5-5 12.39v268.263H93.999ZM400-691.87v-201.131 203.392q55.652 4.522 90.652 48.283t35 99.979q0 82.435-58.5 135.565-58.5 53.13-143.195 53.13H217.39q-7.391 0-12.39 5-5 5-5 12.39v268.263-268.263q0-7.39 5-12.39 4.999-5 12.39-5h106.567q84.695 0 143.195-53.13t58.5-135.565q0-56.218-35-99.979-35-43.761-90.652-48.283v-2.261Zm466.001 260.002q-20.391-25.044-47.457-43.327-27.065-18.283-58.544-27.979v-11.174q0-77.912-49.173-135.282-49.174-57.369-124.26-57.369-44.305 0-75.436-30.849Q480-768.696 480-813.001v-80h106.001v80.566q119.261 5.087 199.631 91.674 80.369 86.587 80.369 206.413v82.48ZM280-66.999v-91.305q0-51.131 35.848-87.261 35.848-36.131 87.543-36.131h41.696q-1.13 27.783 4.631 54.566t17.283 51.436h-63.61q-7.39 0-12.39 4.999-5 5-5 12.391v91.305H280Zm405.652-141.48q27.348 0 46.609-19.26 19.26-19.261 19.26-46.609 0-27.347-19.26-46.608-19.261-19.26-46.609-19.26-27.347 0-46.608 19.26-19.26 19.261-19.26 46.608 0 27.348 19.26 46.609 19.261 19.26 46.608 19.26Zm183 184.306L760.435-132.391q-16.87 9.304-35.457 13.957-18.587 4.652-39.326 4.652-66 0-113.282-47.283-47.283-47.283-47.283-113.283 0-66.565 47.283-113.565 47.282-47 113.282-47 66.566 0 113.566 47t47 113.565q0 21.305-5.152 39.826-5.153 18.522-14.457 35.957L934.827-90.347l-66.175 66.174Z"/></svg>