<svg xmlns="http://www.w3.org/2000/svg" height="20" viewBox="0 -960 960 960" width="20"><path d="M98-73v-279q0-47 33.5-80t80.5-33h191q18 0 29.5-1.5T444-483q0-39-27.5-66.5T350-577q-24.75 0-42.375-17.625T290-637v-250h118v198q71 13 112.5 73.5T562-483q0 63.74-45.63 99.87T403-347H212q1.7 0 2.85-1.15Q216-349.3 216-351v278H98Zm310-620v-194 198q71 13 112.5 73.5T562-483q0 63.74-45.63 99.87T403-347H212q1.7 0 2.85-1.15Q216-349.3 216-351v278-278q0 1.7-1.15 2.85Q213.7-347 212-347h191q67.74 0 113.37-36.13Q562-419.26 562-483q0-72-41.5-132.5T408-689v-4Zm454 295q-22-30-52.278-53.5T744-486v-20q0-65.7-36.15-116.35Q671.7-673 611-673q-54.65 0-92.825-37.675Q480-748.35 480-803v-84h118v97q113 9 188.5 87.5T862-506v108ZM288-73v-104q0-47 33-80.5t81-33.5h63q-2 31 5.5 61t21.5 57h-90q1.7 0 2.85-1.15Q406-175.3 406-177v104H288Zm394.212-158Q702-231 715.5-244.712q13.5-13.713 13.5-33.5Q729-298 715.288-311.5q-13.713-13.5-33.5-13.5Q662-325 648.5-311.288q-13.5 13.713-13.5 33.5Q635-258 648.712-244.5q13.713 13.5 33.5 13.5ZM871-20 744-147q-14 6-30 10t-32 4q-60 0-102.5-42.5T537-278q0-61 42.5-103T682-423q61 0 103 42t42 103q0 17.484-3.5 32.242Q820-231 813-215L939-88l-68 68Z"/></svg>