<svg xmlns="http://www.w3.org/2000/svg" height="20" viewBox="0 -960 960 960" width="20"><path d="M200-148q-22.7 0-37.35-14.65Q148-177.3 148-200v-560q0-22.7 14.65-37.35Q177.3-812 200-812h560q22 0 37 14.65T812-760v560q0 22.7-15 37.35Q782-148 760-148H200Zm0-20h560q12 0 22-10t10-22v-560q0-12-10-22t-22-10H200q-12 0-22 10t-10 22v560q0 12 10 22t22 10Zm152.211-240q-9.211 0-16.711-7.289-7.5-7.29-7.5-16.5 0-9.211 7.289-16.711 7.29-7.5 16.5-7.5 9.211 0 16.711 7.289 7.5 7.29 7.5 16.5 0 9.211-7.289 16.711-7.29 7.5-16.5 7.5Zm256 0q-9.211 0-16.711-7.289-7.5-7.29-7.5-16.5 0-9.211 7.289-16.711 7.29-7.5 16.5-7.5 9.211 0 16.711 7.289 7.5 7.29 7.5 16.5 0 9.211-7.289 16.711-7.29 7.5-16.5 7.5ZM301-316q6 0 10-4.5t2-10.5l-1-33h336v37q0 4 3.5 7.5t7.5 2.5q4-1 6.5-3.562 2.5-2.563 2.5-6.438v-159q0-4.731-.5-9.481T665-505l-41-106q-6-15-18.529-24-12.53-9-29.471-9H385q-16.941 0-29.471 9Q343-626 337-611l-41 106q-2 5-3 9.675-1 4.675-1 9.325v161q0 3 3 6t6 3Zm16-184 38-103q3-10 11-15.5t19-5.5h192q11 0 19 5.5t11 15.5l37 103H317ZM168-792v624-624Zm144 408v-96h336v96H312Z"/></svg>