<svg xmlns="http://www.w3.org/2000/svg" height="20" viewBox="0 -960 960 960" width="20"><path d="M192.615-136q-24.315 0-40.465-16.15Q136-168.3 136-192.615v-574.77q0-24.315 16.15-40.465Q168.3-824 192.615-824h574.77Q791-824 807.5-807.85 824-791.7 824-767.385v574.77q0 24.315-16.5 40.465Q791-136 767.385-136h-574.77Zm0-32h574.77q9.23 0 16.923-7.692Q792-183.385 792-192.615v-574.77q0-9.23-7.692-16.923Q776.615-792 767.385-792h-574.77q-9.23 0-16.923 7.692Q168-776.615 168-767.385v574.77q0 9.23 7.692 16.923Q183.385-168 192.615-168Zm164.211-237.231q-10.595 0-18.787-7.982-8.193-7.981-8.193-18.576 0-10.596 7.982-18.788t18.577-8.192q10.595 0 18.787 7.982 8.193 7.981 8.193 18.576 0 10.596-7.982 18.788t-18.577 8.192Zm246.769 0q-10.595 0-18.787-7.982-8.193-7.981-8.193-18.576 0-10.596 7.982-18.788t18.577-8.192q10.595 0 18.787 7.982 8.193 7.981 8.193 18.576 0 10.596-7.982 18.788t-18.577 8.192ZM295-304q8.538 0 14.269-6.231Q315-316.461 313-325l-1-27h336v31q0 6.539 5.231 11.769Q658.462-304 665-305q6.539-1 10.769-5.293Q680-314.586 680-321v-166.154q0-5.192-.615-10.288-.616-5.097-2.616-10.097l-42.846-112.23q-6.461-16.385-20.375-26.308Q599.634-656 581.308-656H379.692q-18.326 0-32.24 9.923-13.914 9.923-20.375 26.308l-42.846 112.23q-2 5.231-3.116 10.252Q280-492.265 280-487.154V-319q0 5.539 4.731 10.269Q289.461-304 295-304Zm26.154-208 35.461-95.846q2.308-7.693 8.462-11.923Q371.231-624 379.692-624h202.616q8.461 0 14.615 4.231 6.154 4.23 8.462 11.923L639.846-512H321.154ZM168-792v624-624Zm144 408v-96h336v96H312Z"/></svg>