<svg xmlns="http://www.w3.org/2000/svg" height="20" viewBox="0 -960 960 960" width="20"><path d="M769.539-74.156 598.385-245.309l-36.309 36.308-28.615-28.615 36.309-36.308-147.771-147.771v129.849q0 52.691-36.23 88.345-36.23 35.653-87.768 35.653-51.538 0-87.768-35.461-36.231-35.461-36.231-88.537 0-51.923 36.038-87.961t87.961-36.038q22.308 0 40.5 7.616 18.192 7.615 31.5 17.769v-83.234L122.31-722.384l37.153-37.153 647.228 648.228-37.152 37.153Zm12.999-163.306L531.923-490.077l29.384-29.384 106.847 106.846V-576h28.615l116.153 116.923-96 95.231 96 96-30.384 30.384Zm-74.077-175.153 47.231-46.462-47.231-48.001v94.463ZM421.999-598.001l-51.998-51.998v-142.153h193.69v114.767H421.999v79.384Z"/></svg>