<svg xmlns="http://www.w3.org/2000/svg" height="20" viewBox="0 -960 960 960" width="20"><path d="M760-336q-66 0-120-39.5T569-478h-55q-18.7 0-31.35-12.589-12.65-12.59-12.65-31.2 0-18.611 12.65-31.411T514-566h50q1.864-21.032 10.432-41.516Q583-628 596-646H422q-18.7 0-31.35-12.589-12.65-12.59-12.65-31.2 0-18.611 12.65-31.411T422-734h217l-37-104H487q-18.7 0-31.35-12.589-12.65-12.59-12.65-31.2 0-18.611 12.65-31.411T487-926h103q33.413 0 60.183 19.425Q676.953-887.151 689-855l43.241 120H760q84.68 0 142.34 57.726t57.66 143.5q0 82.264-59.16 140.019Q841.68-336 760-336Zm-.5-87q47.5 0 80.5-31.5t33-79.5q0-44-29-76.5T770-645h-2q-2.667 0-4 1l26 69q6 17-2 32.5T762.806-520q-17.193 7-33-.167Q714-527.333 708-544l-25.727-70Q663-596 655.5-576.306q-7.5 19.693-7.5 41.903Q648-486 680-454.5q32 31.5 79.5 31.5ZM276-40q-48 0-82.5-29.708Q159-99.417 151-144H51q-21.675 0-36.337-15.289Q0-174.579 0-195.789 0-217 15.35-232T52-247h125q17.506-23 43.281-36T276-296q29.843 0 55.618 13 25.775 13 43.824 36H457v-82H51q-21.675 0-36.337-15.289Q0-359.579 0-380.789 0-402 15.35-417T52-432h17v-104H51q-21.675 0-36.337-14.602Q0-565.204 0-586.789q0-21.586 14.662-36.399Q29.325-638 51-638h214q15.819 0 29.481 8.421T316-607l96 175h42q43.725 0 74.862 31.138Q560-369.725 560-326v76q0 43.725-31.138 74.863Q497.725-144 454-144h-53q-8 46-43.5 75T276-40ZM171-432h124l-57-104h-67v104Zm105.281 304q17.119 0 28.419-11.581 11.3-11.58 11.3-28.7 0-17.119-11.379-28.419t-28.2-11.3q-16.821 0-28.621 11.379-11.8 11.379-11.8 28.2 0 16.821 11.581 28.621 11.58 11.8 28.7 11.8ZM265-288Z"/></svg>