<svg xmlns="http://www.w3.org/2000/svg" height="24" viewBox="0 -960 960 960" width="24"><path d="M726-306q-68-2-116.5-44.5T552-466H444q-5.95 0-9.975-4.035-4.025-4.035-4.025-10t4.025-9.965q4.025-4 9.975-4h108q3-35 25-74.5t59-59.5H351q-5.95 0-9.975-4.035-4.025-4.035-4.025-10t4.025-9.965q4.025-4 9.975-4h295l-69-189q-4-10-12-15.5t-18-5.5h-81q-5.95 0-9.975-4.035-4.025-4.035-4.025-10t4.025-9.965q4.025-4 9.975-4h81q19.413 0 34.347 10.67Q596.28-872.66 603-855l73 199h50q75 0 124.5 50.5T900-480q0 72.21-50.895 123.105Q798.21-306 726-306Zm.118-28Q787-334 829.5-376.583 872-419.167 872-480q0-63-41.5-105.5T726-628q-12 0-22 2t-18 4l37 99q2 5-.333 10.597-2.334 5.597-7.667 7.403-5 2-10.417-.333-5.416-2.334-7.583-7.667l-35-99q-38 18-60 56t-22 76q0 60.833 42.618 103.417Q665.235-334 726.118-334Zm-406 270Q281-64 253.5-91.417 226-118.833 226-158q0-8 1-14t3-14H80q-5.95 0-9.975-4.025Q66-194.05 66-200v-134q0-5.95 4.025-9.975Q74.05-348 80-348h66v-146H80q-5.95 0-9.975-4.035-4.025-4.035-4.025-10T70.025-518q4.025-4 9.975-4h208q8.171 0 15.229 3.947Q310.286-514.105 314-507l91 159h83q24.75 0 42.375 17.625T548-288v42q0 24.75-17.625 42.375T488-186h-78q2 8 3 14t1 14q0 39.167-27.382 66.583Q359.235-64 320.118-64ZM174-348h199l-83-146H174v146ZM320-92q27 0 46.5-19.5T386-158q0-27-19.5-46.5T320-224q-27 0-46.5 19.5T254-158q0 27 19.5 46.5T320-92Z"/></svg>