<svg xmlns="http://www.w3.org/2000/svg" height="24" viewBox="0 -960 960 960" width="24"><path d="M702.308-197.692q-49.431 0-83.562-34.131t-34.131-83.562q0-49.43 34.131-83.561 34.131-34.131 83.562-34.131t83.561 34.131Q820-364.815 820-315.385q0 49.431-34.131 83.562-34.13 34.131-83.561 34.131Zm-.078-40q32.155 0 54.962-22.73Q780-283.152 780-315.307q0-32.154-22.73-54.962t-54.885-22.808q-32.154 0-54.962 22.73t-22.808 54.885q0 32.154 22.73 54.962t54.885 22.808Zm-232.999-57.692H220q-8.5 0-14.25-5.758T200-315.411q0-8.512 5.75-14.243t14.25-5.731h249.231q8.5 0 14.25 5.758t5.75 14.269q0 8.512-5.75 14.243t-14.25 5.731ZM257.692-526.923q-49.431 0-83.561-34.131Q140-595.185 140-644.615q0-49.431 34.131-83.562 34.13-34.131 83.561-34.131 49.431 0 83.562 34.131t34.131 83.562q0 49.43-34.131 83.561-34.131 34.131-83.562 34.131Zm-.077-40q32.154 0 54.962-22.73t22.808-54.885q0-32.154-22.73-54.962t-54.885-22.808q-32.155 0-54.962 22.73Q180-676.848 180-644.693q0 32.154 22.73 54.962t54.885 22.808ZM740-624.615H490.769q-8.5 0-14.25-5.758t-5.75-14.269q0-8.512 5.75-14.243t14.25-5.731H740q8.5 0 14.25 5.758t5.75 14.269q0 8.512-5.75 14.243T740-624.615Zm-37.692 309.23Zm-444.616-329.23Z"/></svg>