<svg xmlns="http://www.w3.org/2000/svg" height="20" viewBox="0 -960 960 960" width="20"><path d="M712-100q-67.48 0-114.74-47.26Q550-194.52 550-262q0-67.48 47.26-114.74Q644.52-424 712-424q67.48 0 114.74 47.26Q874-329.48 874-262q0 67.48-47.26 114.74Q779.48-100 712-100ZM419-203H153q-24.3 0-41.65-17.289Q94-237.579 94-261.789 94-286 111.35-303.5T153-321h266q24.3 0 41.65 17.289 17.35 17.29 17.35 41.5Q478-238 460.65-220.5T419-203ZM248-536q-67.48 0-114.74-47.26Q86-630.52 86-698q0-67.48 47.26-114.74Q180.52-860 248-860q67.48 0 114.74 47.26Q410-765.48 410-698q0 67.48-47.26 114.74Q315.48-536 248-536Zm559-103H541q-24.3 0-41.65-17.289-17.35-17.29-17.35-41.5Q482-722 499.35-739.5T541-757h266q24.3 0 41.65 17.289 17.35 17.29 17.35 41.5Q866-674 848.65-656.5T807-639Z"/></svg>