<svg xmlns="http://www.w3.org/2000/svg" height="24" viewBox="0 -960 960 960" width="24"><path d="M700-212q-45.36 0-76.68-31.32Q592-274.64 592-320q0-45.36 31.32-76.68Q654.64-428 700-428q45.36 0 76.68 31.32Q808-365.36 808-320q0 45.36-31.32 76.68Q745.36-212 700-212Zm-.101-28Q733-240 756.5-263.399t23.5-56.5Q780-353 756.601-376.5t-56.5-23.5Q667-400 643.5-376.601t-23.5 56.5Q620-287 643.399-263.5t56.5 23.5ZM478-306H226q-5.95 0-9.975-4.035-4.025-4.035-4.025-10t4.025-9.965q4.025-4 9.975-4h252q5.95 0 9.975 4.035 4.025 4.035 4.025 10T487.975-310q-4.025 4-9.975 4ZM260-532q-45.36 0-76.68-31.32Q152-594.64 152-640q0-45.36 31.32-76.68Q214.64-748 260-748q45.36 0 76.68 31.32Q368-685.36 368-640q0 45.36-31.32 76.68Q305.36-532 260-532Zm-.101-28Q293-560 316.5-583.399t23.5-56.5Q340-673 316.601-696.5t-56.5-23.5Q227-720 203.5-696.601t-23.5 56.5Q180-607 203.399-583.5t56.5 23.5ZM734-626H482q-5.95 0-9.975-4.035-4.025-4.035-4.025-10t4.025-9.965q4.025-4 9.975-4h252q5.95 0 9.975 4.035 4.025 4.035 4.025 10T743.975-630q-4.025 4-9.975 4Zm-34 306ZM260-640Z"/></svg>