<svg xmlns="http://www.w3.org/2000/svg" height="20" viewBox="0 -960 960 960" width="20"><path d="M764.13-125.782q-124.391-9-236.282-60.913-111.892-51.913-201.283-140.739Q237.173-416.826 185.76-529q-51.413-112.174-60.413-236.565-2-28.914 17.587-49.784 19.587-20.869 48.501-20.869H326.87q30 0 49.283 15.304 19.283 15.305 26.675 43.175l23.434 95.13q4.261 21.479-1.217 39.696-5.478 18.218-20.261 31.305L304.392-518.13q17.739 31.782 40.348 62.26 22.608 30.479 52.347 59.218 27.174 27.173 55.522 48.717 28.347 21.543 58.434 37.021l102.956-98.261q14.218-13.653 31.871-18.283 17.652-4.631 39.131-.37l91.738 21.305q28.87 8.391 43.675 26.826 14.804 18.435 14.804 47.306v139.956q0 28.914-21.369 48.784-21.37 19.869-49.719 17.869Zm-91.565-398.524v-134.173l-78.043 77.478q-5.565 5.565-14.696 5.565-9.13 0-14.696-5.565-5.565-5.566-5.065-14.696.5-9.131 6.065-14.696l90.305-89.304-91.305-91.304q-5.565-5.566-5.847-13.913-.283-8.348 5.847-14.479 5.566-5.565 14.696-5.565 9.131 0 14.696 5.565l78.043 77.478v-133.173q0-15.957 15.74-21.652 15.739-5.696 26.565 5.13l61.304 61.869q14.391 14.957 14.674 34.044.282 19.087-14.674 34.044l-61.956 61.956 61.956 61.956q14.956 14.957 14.674 34.327-.283 19.369-14.674 34.326l-61.304 61.304q-10.826 10.826-26.565 5.13-15.74-5.696-15.74-21.652Zm41.087-40.609 38.783-38.782-38.783-39.782v78.564Zm0-192 38.783-38.782-38.783-39.782v78.564Z"/></svg>