<svg xmlns="http://www.w3.org/2000/svg" height="24" viewBox="0 -960 960 960" width="24"><path d="M480-336.087 281.739-137.826q-14.957 14.957-36.827 15.175-21.869.217-37.261-15.175-14.957-14.956-14.957-37.044 0-22.087 14.957-37.043l176.305-177.305q20.739-20.739 31.891-47.761 11.152-27.022 11.152-56.195v-163.303l-26.956 26.956q-14.956 14.957-36.544 14.957-21.587 0-37.544-15.957-14.956-14.956-14.956-37.044 0-22.087 14.956-37.044l116.436-116.435q15.957-15.957 37.609-15.957t37.609 15.957l116.436 116.435q14.956 14.957 15.456 36.544.5 21.588-15.456 37.544-14.957 14.957-37.044 15.24-22.088.282-37.044-14.674l-26.956-26.522v163.303q0 29.173 11.152 56.195 11.152 27.022 31.891 47.761l176.305 177.305q14.957 14.956 15.174 36.826.217 21.87-15.174 37.261-14.957 14.957-37.044 14.957-22.087 0-37.044-14.957L480-336.087Z"/></svg>