<svg xmlns="http://www.w3.org/2000/svg" height="24" viewBox="0 -960 960 960" width="24"><path d="M540-770q-7 143-107 243T190-420q-7 0-12.5-4.035t-5.5-10q0-5.965 4.5-9.965t11.5-4q132-6 225-98.5T512-771q0-7 4.2-12t9.8-5q7 0 10.5 5.5T540-770Zm-160-4q-5 78-59 132.5T189-581q-7 1-12-3t-5-10.182q0-5.818 3.8-9.818t10.2-5q66-5 113-51.5T351-773q1-6 5-10.5t9.714-4.5q6.072 0 10.179 4T380-774Zm53.965 602Q428-172 424-177.5t-4-12.5q7-143 107-243t243-107q7 0 12.5 3.5t5.5 10.197Q788-520 783-516q-5 4-12 4-132 6-224.5 99T448-188q0 7-4.035 11.5t-10 4.5Zm159.985 0q-5.95 0-9.95-5-4-5-3-12 6-78 60.5-132T774-380q6 0 10 4.107t4 10.179q0 5.714-4.5 9.714t-10.5 5q-66 5-112.5 52T609-186q-1.05 6.4-5.25 10.2-4.2 3.8-9.8 3.8ZM212-768q0 8.4-5.8 14.2-5.8 5.8-14.2 5.8-8.4 0-14.2-5.8-5.8-5.8-5.8-14.2 0-8.4 5.8-14.2 5.8-5.8 14.2-5.8 8.4 0 14.2 5.8 5.8 5.8 5.8 14.2Zm576 576q0 8.4-5.8 14.2-5.8 5.8-14.2 5.8-8.4 0-14.2-5.8-5.8-5.8-5.8-14.2 0-8.4 5.8-14.2 5.8-5.8 14.2-5.8 8.4 0 14.2 5.8 5.8 5.8 5.8 14.2Z"/></svg>