<svg xmlns="http://www.w3.org/2000/svg" height="24" viewBox="0 -960 960 960" width="24"><path d="M332-226v-66h-50q-12.75 0-21.375-8.625T252-322v-315.588q0-13.412 8.625-21.912Q269.25-668 282-668h50v-66q0-5.95 4.035-9.975 4.035-4.025 10-4.025t9.965 4.025q4 4.025 4 9.975v66h50q12.75 0 21.375 8.625T440-638v315.588q0 13.412-8.625 21.912Q422.75-292 410-292h-50v66q0 5.95-4.035 9.975-4.035 4.025-10 4.025T336-216.025q-4-4.025-4-9.975Zm268 0v-166h-50q-12.75 0-21.375-8.625T520-422v-146q0-12.75 8.625-21.375T550-598h50v-136q0-5.95 4.035-9.975 4.035-4.025 10-4.025t9.965 4.025q4 4.025 4 9.975v136h50q12.75 0 21.375 8.625T708-568v146q0 12.75-8.625 21.375T678-392h-50v166q0 5.95-4.035 9.975-4.035 4.025-10 4.025T604-216.025q-4-4.025-4-9.975Z"/></svg>