<svg xmlns="http://www.w3.org/2000/svg" height="20" viewBox="0 -960 960 960" width="20"><path d="M303.611-589.26h234.41q18.675 0 31.718-12.833 13.044-12.833 13.044-31.436 0-18.601-12.882-31.645t-31.556-13.044H303.934q-18.674 0-31.718 12.833t-13.044 31.435q0 18.602 12.882 31.646t31.557 13.044Zm.04 139.478h138.653q18.692 0 31.585-12.833 12.894-12.833 12.894-31.435 0-18.602-12.894-31.646-12.893-13.044-31.585-13.044H303.651q-18.691 0-31.585 12.833-12.894 12.834-12.894 31.435 0 18.602 12.894 31.646t31.585 13.044Zm367.348 162.531H612q-20.387 0-34.694-14.331-14.307-14.331-14.307-34.652t14.307-34.583q14.307-14.262 34.694-14.262h58.999v-58.687q0-20.321 14.246-34.778 14.247-14.457 34.544-14.457 20.298 0 34.629 14.307T768.749-444v58.999h59.167q20.423 0 34.754 14.307T877.001-336q0 20.387-14.331 34.694-14.331 14.307-34.754 14.307h-59.167V-228q0 20.387-14.331 34.694-14.331 14.307-34.418 14.307-20.387 0-34.694-14.331-14.307-14.331-14.307-34.754v-59.167Zm-424.522-11.748-95.783 95.783q-10.826 10.826-26.565 4.963-15.74-5.862-15.74-21.485v-510.856q0-41.71 28.511-70.058 28.51-28.349 69.531-28.349h428.852q41.021 0 69.369 28.499 28.349 28.498 28.349 69.503v156.825q-2.827-1.696-6.218-2.261Q723.391-577 720-577q-90.261 1-165.13 65.435Q480-447.13 480-346q0 11.391.565 23.783.565 12.391 4.261 23.218H246.477Z"/></svg>