<svg xmlns="http://www.w3.org/2000/svg" height="20" viewBox="0 -960 960 960" width="20"><path d="M480-76.782q-83.522 0-156.906-31.46-73.385-31.46-128.388-86.464-55.004-55.003-86.464-128.388Q76.782-396.478 76.782-480q0-84.522 31.46-157.406 31.46-72.885 86.464-127.888 55.003-55.004 128.388-86.464 73.384-31.46 156.906-31.46 84.522 0 157.406 31.46 72.885 31.46 127.888 86.464 55.004 55.003 86.464 127.888 31.46 72.884 31.46 157.406 0 83.522-31.46 156.906-31.46 73.385-86.464 128.388-55.003 55.004-127.888 86.464Q564.522-76.782 480-76.782Zm-130-493 31.174 30.608q8.387 8.131 20.237 8.131 11.85 0 19.98-8.131 8.131-8.13 8.131-20.001 0-11.87-8.131-20.216L390.218-610l30.608-30.174q8.131-8.387 8.131-19.737 0-11.35-8.131-20.48-8.13-9.131-20.001-9.131-11.87 0-21.216 9.131L350-650.218l-30.174-30.608q-8.387-9.131-19.737-9.131-11.35 0-20.48 9.131-9.131 9.13-9.131 20.501 0 11.37 9.131 20.716L309.782-610l-30.608 31.174q-8.131 8.387-8.131 20.237 0 11.85 9.131 19.98 9.13 8.131 20.501 8.631 11.37.5 19.716-8.631L350-569.782Zm129.896 394.999q128.278 0 216.799-88.739Q785.217-352.261 785.217-480q0-59.435-22.399-115.5-22.398-56.066-66.34-100.978L263.522-263.522q45.099 44.942 101.412 66.84 56.313 21.899 114.962 21.899ZM559-348.218l73.174-73.173q8.13-8.696 19.826-8.414 11.696.283 19.826 8.414 8.131 8.13 8.131 19.98t-8.131 20.237l-78.217 78.783q-15.162 14.956-34.712 14.956-19.549 0-34.506-14.956l-36.782-36.783q-8.131-8.387-8.131-20.237 0-11.85 8.131-19.98 8.13-8.131 20-8.131 11.871 0 20.217 8.131L559-348.218Z"/></svg>