<svg xmlns="http://www.w3.org/2000/svg" height="24" viewBox="0 -960 960 960" width="24"><path d="M390.693-156.541q-64.36 0-106.68-47.961-42.319-47.961-33.473-111.499l50.769-380.459q1.506-7.978 6.022-14.143 4.517-6.164 12.439-9.395l292.152-116.384q13.385-5.692 25.961 1.923 12.577 7.615 14.192 22.615l59.385 497.843q7.461 63.153-34.077 110.306-41.538 47.154-105.076 47.154H390.693ZM332.462-475h299.307l-35.231-291.23-237.076 95.692-27 195.538Zm58.231 258.46h181.614q36.501 0 60.327-27.192 23.827-27.192 19.442-63.577L639.59-415.001H324.539l-14 106.692q-5 36.304 19.192 64.037 24.193 27.732 60.962 27.732ZM482-415.001V-475v59.999Zm.615-59.999ZM481-415.001Z"/></svg>