<svg xmlns="http://www.w3.org/2000/svg" height="20" viewBox="0 -960 960 960" width="20"><path d="M299.001-260.001H109.156q-22.692 0-33.73-20.077-11.039-20.077 1.807-39.154l117.77-174.769h-7.693q-26.692 0-36.807-18.385-10.116-18.384 5.73-41.461l172.844-246.766q11.846-16.462 30.923-16.462 19.077 0 30.923 16.462L480-673.382l89.077-127.231q11.846-16.462 30.923-16.462 19.077 0 30.923 16.462l173.844 246.766q15.846 23.077 6.23 41.461-9.615 18.385-37.307 18.385h-7.693l116.77 174.769q12.846 19.077 1.807 39.154-11.038 20.077-33.73 20.077H660.999V-161q0 25.538-17.538 43.268-17.539 17.731-43.461 17.731-25.538 0-43.268-17.731-17.731-17.73-17.731-43.268v-99.001H420.999V-161q0 25.538-17.538 43.268-17.539 17.731-43.461 17.731-25.538 0-43.268-17.731-17.731-17.73-17.731-43.268v-99.001ZM639.614-324h161.847L647.538-558H723L600-733l-79.924 115.309 45.46 63.844q15.461 23.077 6.038 41.461-9.423 18.385-37.115 18.385h-8.462L639.614-324Zm-481.075 0h402.922L407.538-558H483L360-733 238-558h76.462L158.539-324Zm0 0h155.923H238h245-75.462 153.923-402.922Zm481.075 0H525.997h45.577H520.076 723h-75.462 153.923-161.847Zm-100.613 63.999h121.998-121.998Zm71.458 0Z"/></svg>