<svg xmlns="http://www.w3.org/2000/svg" height="24" viewBox="0 -960 960 960" width="24"><path d="M615-46q-39 0-67-28.5T520-142v-30h191v30q0 39-28.5 67.5T615-46Zm-270 0q-39 0-67.5-28.5T249-142v-64H39q-38 0-55.5-33t3.5-65l93-142q-25-14-26-43.5T70-545l223-319q19-27 51.5-27t51.5 27l224 319q17 26 15.5 55.5T609-446l94 142q18 27 2 62.5T651-206H440v64q0 39-28 67.5T345-46Zm400-160q18-22 23.5-56.5T754-327l-74-113q13-17 13.5-55.5T670-569L514-794l50-70q19-27 51.5-27t51.5 27l223 319q17 26 16 55.5T880-446l94 142q21 32 3 65t-56 33H745Z"/></svg>