<svg xmlns="http://www.w3.org/2000/svg" height="24" viewBox="0 -960 960 960" width="24"><path d="M262.477-220.782H53.782q-31.963 0-46.613-27.783-14.649-27.783 2.873-54.565l102.13-157.652q-24.566-7.913-29.478-33.935-4.913-26.022 10.783-49.413l214.305-306.393q15.768-22.652 43.362-22.652 27.595 0 43.552 22.652L480-728.914l85.304-121.609q15.769-22.652 43.363-22.652 27.595 0 43.551 22.652L866.523-544.13q15.696 23.391 10.783 49.413t-29.478 33.935L950.523-303.13q17.522 26.782 2.566 54.565-14.957 27.783-46.871 27.783H697.523v70.956q0 36.392-26.327 62.718-26.326 26.326-62.792 26.326-36.467 0-62.435-26.326Q520-113.434 520-149.826v-70.956h-80v70.956q0 36.392-25.969 62.718-25.968 26.326-62.435 26.326-36.466 0-62.792-26.326-26.327-26.326-26.327-62.718v-70.956Zm415.002-106.001h130.303l-157.261-240h70.957L608.479-728.13l-63.652 90.826 64.739 93.174q15.696 23.391 10.5 49.413-5.195 26.022-29.76 33.935l87.173 133.999Zm-525.261 0h398.607l-157.261-240h70.957l-113-161.347-112.999 161.347h70.957l-157.261 240Zm0 0h157.261-70.957 225.999-70.957 157.261-398.607Zm525.261 0h-87.173 29.76-75.239 176.651-70.957 157.261-130.303ZM520-220.782h177.523H520Zm129.261 0Z"/></svg>