<svg xmlns="http://www.w3.org/2000/svg" height="24" viewBox="0 -960 960 960" width="24"><path d="M332-292H154q-18 0-26.5-16t1.5-31l129-193h-20q-18 0-27-16t2-31l122-175q9-13 25-13t25 13l95 136 95-136q9-13 25-13t25 13l122 175q11 15 2 31t-27 16h-20l129 193q10 15 1.5 31T806-292H628v132q0 11-8 19.5t-20 8.5q-11 0-19.5-8.5T572-160v-132H388v132q0 11-8 19.5t-20 8.5q-11 0-19.5-8.5T332-160v-132Zm271-28h207L650-560h76L600-740 498-594l11 15q10 15 1.5 31T484-532h-22l141 212Zm-453 0h420L410-560h76L360-740 234-560h76L150-320Zm0 0h160-76 252-76 160-420Zm453 0H462h48.5H498h228-76 160-207Zm-31 28h56-56Zm-7 0Z"/></svg>