<svg xmlns="http://www.w3.org/2000/svg" height="20" viewBox="0 -960 960 960" width="20"><path d="M279-240H78q-25 0-37-22t2-43l112-169q-29 0-39.5-20.5T122-540l204-291q13-18 34-18t34 18l86 123 86-123q13-18 34-18t34 18l205 291q17 25 7 45.5T806-474l111 169q14 21 2 43t-37 22H681v79q0 34-23.5 57.5T600-80q-34 0-57.5-23.5T519-161v-79h-78v79q0 34-23.5 57.5T360-80q-34 0-57.5-23.5T279-161v-79Zm386-84h138L651-558h72L600-733l-68 98 67 95q17 25 7 45.5T566-474l99 150Zm-508 0h406L411-558h72L360-733 238-558h73L157-324Zm0 0h154-73 245-72 152-406Zm508 0h-99 40-74 191-72 152-138Zm-146 84h162-162Zm123 0Z"/></svg>