<svg xmlns="http://www.w3.org/2000/svg" height="20" viewBox="0 -960 960 960" width="20"><path d="M324.211 0Q309 0 298.5-10.29 288-20.578 288-35.79 288-51 298.289-61.5q10.29-10.5 25.5-10.5Q339-72 349.5-61.71 360-51.422 360-36.21 360-21 349.711-10.5 339.421 0 324.211 0Zm156 0Q465 0 454.5-10.29 444-20.578 444-35.79 444-51 454.289-61.5q10.29-10.5 25.5-10.5Q495-72 505.5-61.71 516-51.422 516-36.21 516-21 505.711-10.5 495.421 0 480.211 0Zm156 0Q621 0 610.5-10.29 600-20.578 600-35.79 600-51 610.289-61.5q10.29-10.5 25.5-10.5Q651-72 661.5-61.71 672-51.422 672-36.21 672-21 661.711-10.5 651.421 0 636.211 0ZM480-384q-50 0-85-35t-35-85v-240q0-50 35-85t85-35q50 0 85 35t35 85v240q0 50-35 85t-85 35Zm0-240Zm-36 480v-99q-98.8-13.181-163.4-87.091Q216-404 216-504h72q0 79.68 56.226 135.84t136 56.16Q560-312 616-368.16T672-504h72q0 100-64.6 173.909Q614.8-256.181 516-243v99h-72Zm36-312q20.4 0 34.2-13.8Q528-483.6 528-504v-240q0-20.4-13.8-34.2Q500.4-792 480-792q-20.4 0-34.2 13.8Q432-764.4 432-744v240q0 20.4 13.8 34.2Q459.6-456 480-456Z"/></svg>