<svg xmlns="http://www.w3.org/2000/svg" height="24" viewBox="0 -960 960 960" width="24"><path d="M320-4.616q-14.692 0-25.038-10.346T284.616-40q0-14.692 10.346-25.038T320-75.384q14.692 0 25.038 10.346T355.384-40q0 14.692-10.346 25.038T320-4.616Zm160 0q-14.692 0-25.038-10.346T444.616-40q0-14.692 10.346-25.038T480-75.384q14.692 0 25.038 10.346T515.384-40q0 14.692-10.346 25.038T480-4.616Zm160 0q-14.692 0-25.038-10.346T604.616-40q0-14.692 10.346-25.038T640-75.384q14.692 0 25.038 10.346T675.384-40q0 14.692-10.346 25.038T640-4.616ZM480-420q-41.922 0-70.961-29.038-29.038-29.039-29.038-70.961v-240q0-41.922 29.038-70.961 29.039-29.038 70.961-29.038t70.961 29.038q29.038 29.039 29.038 70.961v240q0 41.922-29.038 70.961-29.039 29.038-70.961 29.038ZM480-640Zm-29.999 509.999v-131.693q-99-11.692-164.5-85.191-65.5-73.5-65.5-173.115H280q0 83 58.5 141.5T480-320q83 0 141.5-58.5T680-520h59.999q0 99.615-65.5 173.115-65.5 73.499-164.5 85.191v131.693h-59.998ZM480-480q17 0 28.5-11.5T520-520v-240q0-17-11.5-28.5T480-800q-17 0-28.5 11.5T440-760v240q0 17 11.5 28.5T480-480Z"/></svg>