<svg xmlns="http://www.w3.org/2000/svg" height="20" viewBox="0 -960 960 960" width="20"><path d="M528-288q35.918 0 58.198-22.28 22.281-22.281 22.281-58.199V-432q0-20-14-34t-34-14q20 0 34-14t14-34v-63.521q0-35.918-22.281-58.198Q563.918-672 528-672H391.478q-16.982 0-28.469 11.43-11.488 11.43-11.488 28.326t11.65 28.81q11.65 11.913 28.872 11.913H528V-516h-68.479q-15.3 0-25.65 10.289-10.35 10.29-10.35 25.5 0 15.211 10.35 25.711 10.35 10.5 25.65 10.5H528v75.521H391.478q-16.982 0-28.469 11.43-11.488 11.43-11.488 28.326 0 16.897 11.65 28.81T392.043-288H528ZM222.783-124.782q-41.005 0-69.503-28.498-28.498-28.498-28.498-69.503v-514.434q0-41.005 28.498-69.503 28.498-28.498 69.503-28.498h514.434q41.005 0 69.503 28.498 28.498 28.498 28.498 69.503v514.434q0 41.005-28.498 69.503-28.498 28.498-69.503 28.498H222.783Zm0-98.001h514.434v-514.434H222.783v514.434Zm0-514.434v514.434-514.434Z"/></svg>