<svg xmlns="http://www.w3.org/2000/svg" height="24" viewBox="0 -960 960 960" width="24"><path d="M113.782-793.217q-22.087 0-37.544-15.457-15.456-15.456-15.456-37.544 0-22.087 15.456-37.544 15.457-15.456 37.544-15.456h732.436q22.087 0 37.544 15.456 15.456 15.457 15.456 37.544 0 22.088-15.456 37.544-15.457 15.457-37.544 15.457H113.782ZM460-166.783q-22.087 0-37.544-15.457-15.457-15.456-15.457-37.544V-680q0-22.087 15.457-37.544 15.457-15.457 37.544-15.457h40q22.087 0 37.544 15.457 15.457 15.457 15.457 37.544v460.216q0 22.088-15.457 37.544-15.457 15.457-37.544 15.457h-40Z"/></svg>