<svg xmlns="http://www.w3.org/2000/svg" height="20" viewBox="0 -960 960 960" width="20"><path d="M192-202.001q-76.769 0-129.384-52.615Q10-307.231 10-384q0-74 50.115-128.384Q110.23-566.769 192-566.769q64.769 0 116.692 44.693 51.923 44.692 62.846 112.077h69.309l-80.923-224.002h-61.923v-51.998h171.998v51.998h-54.615l23.923 67.232h226.309l-69.308-187.232H490.001v-51.998h143.426l86.649 240H760q76.769 0 132.884 52.615Q948.999-460.769 948.999-384q0 75.226-53.307 128.228Q842.384-202.77 768-202.77q-67.461 0-118.846-44.192-51.384-44.193-61.692-111.039H371.538q-10.923 69-62.461 112.5-51.539 43.5-117.077 43.5Zm0-51.998q41.616 0 77.539-26.116 35.924-26.116 49.539-77.886H202.001v-51.998h117.077q-10.615-47.386-48.039-75.694-37.423-28.308-79.039-28.308-54.231 0-92.116 38.385T62-384q0 53.846 37.885 91.924Q137.77-253.999 192-253.999Zm305.076-156h91.386q4.231-25.308 17.962-54.963 13.731-29.654 37.962-49.808H458.384l38.692 104.771Zm270.424 156q53.731 0 92.116-38.577 38.385-38.578 38.385-90.939 0-53.716-41.385-95.101T755-512.001q-4.462 0-7.308.193-2.847.192-6.539 1.346l41.769 116.308-48.768 17.076-40.769-111.308q-26.356 18.154-40.871 46.539T637.999-384q0 53.846 37.885 91.924 37.885 38.077 91.616 38.077ZM193.539-381ZM762-376Z"/></svg>