<svg xmlns="http://www.w3.org/2000/svg" height="20" viewBox="0 -960 960 960" width="20"><path d="M192-212q-72.539 0-122.27-49.731Q20-311.461 20-384q0-69 47.23-121.269 47.231-52.27 124.77-52.27 60.539 0 111.885 44.885Q355.231-467.769 363.077-400h91.615l-87.846-244H308v-32h152v32h-59.231l30.846 86.461h248.616L603.615-764H500v-32h126.505l86.649 240H760q72.539 0 125.769 49.731Q939-456.539 939-384q0 70.611-50.615 120.536Q837.769-213.538 768-213.538q-65.923 0-115.192-44.385-49.27-44.385-56.885-110.077H363.077q-7.846 69-58.423 112.5T192-212Zm0-32q46.231 0 86.577-30.731T332.154-368H212v-32h120.154q-10.231-57.769-52.077-90.885Q238.231-524 192-524q-58.461 0-99.23 41.269Q52-441.461 52-384q0 57.692 40.77 98.846Q133.538-244 192-244Zm298.154-156h106.769q3.462-27.615 21.423-65.923 17.961-38.308 51.423-59.615h-226L490.154-400ZM767.5-244q57.961 0 99.231-41.654Q908-327.308 908-383.515q0-57.946-44.269-102.216Q819.461-530 755-522q-7.923 0-14.615.385-6.693.384-13.077 2.692l42.538 118.615-29.538 10.154-41.539-113.615q-33.663 19.308-52.216 53.077Q628-416.923 628-384q0 57.692 40.769 98.846Q709.539-244 767.5-244ZM195.077-381ZM762-376Z"/></svg>