<svg xmlns="http://www.w3.org/2000/svg" height="20" viewBox="0 -960 960 960" width="20"><path d="M480-123.692 339.692-264l22.539-22.539L464-184.77V-388h32l.769 204 101.769-101.769L620.308-264 480-123.692Zm-216-216L123.692-480l141.077-141.077 22.539 22.539L184.77-496H388v32H184l101.769 102.538L264-339.692Zm432 0-22.539-22.539L775.23-464H572v-32l204-.769-101.769-101.769L696-620.308 836.308-480 696-339.692ZM464-572v-203.23L362.231-673.461 339.692-696 480-836.308 620.308-696l-22.539 22.539L496-775.23V-572h-32Z"/></svg>