<svg xmlns="http://www.w3.org/2000/svg" height="20" viewBox="0 -960 960 960" width="20"><path d="M650.154-260v-398.154h68.923v-38.769h56v38.769H844V-260H650.154Zm-408.33 0q-51.747 0-88.786-37Q116-334 116-385.885v-311.038h119.385v119.385h-72v191.846q0 31.615 23.346 54.961t54.961 23.346q31.616 0 54.962-23.346Q320-354.077 320-385.692v-185.271q0-51.917 36.906-88.938 36.906-37.022 88.654-37.022t88.786 36.654q37.039 36.654 37.039 89.038V-260H452v-119.385h73v-191.846q0-31.615-23.346-54.961t-54.962-23.346q-32.615 0-55.961 22.846-23.346 22.846-23.346 55.461v185.271q0 51.917-36.907 88.938Q293.572-260 241.824-260Z"/></svg>