<svg xmlns="http://www.w3.org/2000/svg" height="20" viewBox="0 -960 960 960" width="20"><path d="M626.261-231.521v-445.001h72v-48H802.74v48h72v445.001H626.261ZM706.74-312h87.521-87.521Zm-475.133 85.001q-60.524 0-103.436-42.95-42.91-42.949-42.91-103.104v-355.426h161.522v160.958h-72.565v194.043q0 23.141 17.239 40.049 17.239 16.907 40.282 16.907 23.043 0 40.282-16.907 17.239-16.908 17.239-40.049V-582q0-60.58 42.911-103.529 42.912-42.95 103.436-42.95 60.523 0 103.567 42.95 43.044 42.949 43.044 103.104v355.426H421.26v-161.523h73V-582q0-23.043-17.239-40.282-17.239-17.239-40.851-17.239t-40.499 16.659Q378.783-606.203 378.783-582v208.522q0 60.58-43.326 103.529-43.327 42.95-103.85 42.95ZM706.74-312h87.521v-283.478H706.74V-312Z"/></svg>