<svg xmlns="http://www.w3.org/2000/svg" height="24" viewBox="0 -960 960 960" width="24"><path d="M653.078-250.001v-423.075h78.461v-35.385h59.999v35.385h78.461v423.075H653.078Zm-434.165 0q-54.374 0-91.643-37.25Q90-324.5 90-378.943v-329.518h147.692v147.692h-100v181.923q0 34.307 23.423 57.731 23.424 23.423 57.731 23.423 34.308 0 57.732-23.423 23.423-23.424 23.423-57.731v-200.635q0-54.458 37.203-91.719 37.203-37.261 91.576-37.261 54.374 0 91.643 37.077t37.269 91.769v329.614H410.001v-147.691h100v-181.923q0-34.308-23.423-57.731-23.424-23.423-57.732-23.423-34.307 0-57.731 23.423-23.423 23.423-23.423 57.731v200.635q0 54.458-37.203 91.719-37.203 37.26-91.576 37.26Z"/></svg>