<svg xmlns="http://www.w3.org/2000/svg" height="24" viewBox="0 -960 960 960" width="24"><path d="M147.692-800v-40h108.462v40H147.692Zm-19.231 678.462H460V-260H155.846l-27.385 138.462Zm111.924-469.308-28.539-27.539 76.539-76.538 28.538 27.538-76.538 76.539ZM164.154-300H460v-140.769H192.307L164.154-300ZM480-679.231q-67.615 0-114.577-46.961-46.962-46.962-46.962-114.577h323.078q0 67.615-46.962 114.577Q547.615-679.231 480-679.231Zm-20 166.923v-108.461h40v108.461h-40Zm40 390.77h330.77L803.385-260H500v138.462ZM500-300h295.077l-28.154-140.769H500V-300Zm221.154-290.077-77.077-77.308 27.538-27.538 78.077 76.307-28.538 28.539ZM703.846-800v-40h108.462v40H703.846Z"/></svg>