<svg xmlns="http://www.w3.org/2000/svg" height="24" viewBox="0 -960 960 960" width="24"><path d="M480-103.079q0-120.845 84.384-215.498 84.385-94.653 202.537-111.115 16.923-2.615 29.615 10.077 12.693 12.692 10.077 29.615-16.461 118.153-111.115 202.537Q600.845-103.079 480-103.079Zm0 0q0-120.845-84.384-215.498-84.385-94.653-202.537-111.115-16.923-2.615-29.615 10.077-12.693 12.692-10.077 29.615 16.461 118.153 111.115 202.537Q359.155-103.079 480-103.079Zm0-444.999q38.923 0 65.423-26.499 26.499-26.5 26.499-65.423t-26.499-65.423q-26.5-26.499-65.423-26.499t-65.423 26.499q-26.499 26.5-26.499 65.423t26.499 65.423q26.5 26.499 65.423 26.499Zm0 159.999q-34 0-62.615-19.961-28.615-19.962-40.307-51.885-6.154 0-10.346.308-4.193.308-10.347.308-45.461 0-77.653-32-32.192-32-32.192-77.461 0-18.307 7-36.846 7-18.538 20.231-34.384-12.231-15.846-19.231-34.384-7-18.539-7-36.846 0-45.461 31.692-77.461t77.153-32q6.154 0 10.347.308 4.192.308 10.346.308 11.692-31.923 40.307-51.885Q446-891.921 480-891.921t62.615 19.961q28.615 19.962 40.307 51.885 6.154 0 10.346-.308 4.193-.308 10.347-.308 45.461 0 77.153 32 31.692 32 31.692 77.461 0 18.307-6.5 36.846-6.5 18.538-19.731 34.384 12.231 15.461 19.231 34.192 7 18.731 7 37.038 0 45.461-31.692 77.461t-77.153 32q-6.154 0-10.347-.308-4.192-.308-10.346-.308-11.692 31.923-40.307 51.885Q514-388.079 480-388.079Z"/></svg>