<svg xmlns="http://www.w3.org/2000/svg" height="20" viewBox="0 -960 960 960" width="20"><path d="M480-103.079q0-116.845 79.884-209.498 79.885-92.653 193.037-114.115 12.22-1.615 21.923 1.808 9.702 3.423 16.692 10.269 6.846 6.99 10.269 16.693 3.424 9.702 1.808 21.922-21.461 113.153-114.115 193.037Q596.845-103.079 480-103.079Zm80.844-80.844q57.77-17 104.655-63.885t63.885-104.655q-57.77 17-104.655 63.885t-63.885 104.655ZM480-103.079q0-116.845-79.884-209.498-79.885-92.653-193.037-114.115-11.319-1.615-21.484 1.808-10.165 3.423-17.071 10.269-6.906 6.846-10.329 16.621-3.424 9.774-1.808 21.994 21.461 113.153 114.115 193.037Q363.155-103.079 480-103.079Zm-80.844-80.844q-57.77-17-104.655-63.885t-63.885-104.655q57.77 17 104.655 63.885t63.885 104.655Zm204.866-335.385q18.747 0 32.9-13.979 14.154-13.979 14.154-33.183 0-15.992-8.846-27.261-8.846-11.27-21-14.731l-37.231-12.154q-3.231 18.462-12.962 34.923-9.73 16.462-23.961 29.308l28.347 25.527q5.884 5.627 12.961 8.589 7.077 2.961 15.638 2.961Zm-19.023-136.076 36.252-12.415q12.133-4.2 20.671-15.234 8.539-11.034 8.539-26.469 0-19.216-13.885-33.203-13.884-13.987-32.577-13.987-8.45 0-15.748 2.961-7.299 2.962-13.098 8.885l-28.692 25.231q15.359 12.566 24.833 28.86 9.474 16.294 13.705 35.371Zm-141.306-82.23q8.23-2.808 17.461-4.712 9.231-1.904 18.846-1.904t18.846 1.904q9.231 1.904 17.461 4.712l10.77-48.077q4.308-16.315-12.5-29.273-16.808-12.958-34.577-12.958t-34.577 12.958q-16.808 12.958-12.5 29.273l10.77 48.077Zm36.289 141.845q17.941 0 30.095-12.136 12.154-12.137 12.154-30.077 0-17.941-12.136-30.095-12.137-12.154-30.077-12.154-17.941 0-30.095 12.136-12.154 12.137-12.154 30.077 0 17.941 12.136 30.095 12.137 12.154 30.077 12.154ZM480-448.078q17.769 0 34.577-14.73 16.808-14.731 12.5-31.501l-10.77-44.077q-8.23 2.808-17.461 4.712-9.231 1.904-18.846 1.904t-18.846-1.904q-9.231-1.904-17.461-4.712l-10.77 44.077q-4.308 19.77 12.5 33.001 16.808 13.23 34.577 13.23ZM375.001-655.384q3.231-21.077 12.962-36.231 9.73-15.154 24.961-28l-28.347-25.527q-5.884-5.627-12.961-8.589-7.077-2.961-15.615-2.961-18.693 0-32.885 13.987-14.192 13.987-14.192 33.203 0 15.435 8.846 26.469t20.979 15.234l36.252 12.415Zm-18.308 135.461q8.769 0 15.077-2.962 6.308-2.961 13.077-8.885l28.692-24.615q-15.359-12.566-24.833-28.86-9.474-16.294-13.705-35.371l-36.252 11.676q-12.133 3.939-20.864 15.516-8.731 11.577-8.731 26.436.616 18.372 14.366 32.719 13.75 14.346 33.173 14.346Zm123.328 135.844q-34.329 0-63.21-19.961-28.881-19.962-40.691-51.885-6.196 0-10.081.308-3.884.308-9.654.308-46.158 0-79.001-32.503-32.844-32.503-32.844-78.635 0-18.63 6.75-37.169 6.75-18.538 19.481-34.384-11.231-15.846-18.231-34.384-7-18.539-7-36.883 0-46.25 32.345-78.837 32.344-32.587 78.423-32.587 6.231 0 10.116.308t9.654.308q11.81-31.923 40.691-51.885 28.881-19.961 63.21-19.961t63.21 19.961q28.881 19.962 40.691 51.885 6.196 0 10.081-.308 3.884-.308 9.654-.308 46.111 0 78.478 32.503t32.367 78.635q0 18.63-6.26 37.169-6.259 18.538-18.971 34.384 11.231 15.461 18.231 34.192 7 18.731 7 37.075 0 46.25-32.345 78.837-32.344 32.587-78.423 32.587-6.231 0-10.116-.308t-9.654-.308q-11.81 31.923-40.691 51.885-28.881 19.961-63.21 19.961ZM480-744.23Zm66.461 24.615Zm.615 163.23ZM480-531.77Zm-66.461-24.615Zm-.615-163.23Zm-13.768 535.692Zm161.688 0Z"/></svg>