<svg xmlns="http://www.w3.org/2000/svg" height="20" viewBox="0 -960 960 960" width="20"><path d="M480-126.154q0-100.692 75.269-187 75.27-86.308 174.577-106.231 19.847-4.23 33.731 9.654 13.885 13.885 9.654 33.731Q753.308-276.692 667-201.423q-86.307 75.269-187 75.269Zm0 0q0-100.692-75.269-187-75.27-86.308-174.577-106.231-19.847-4.23-33.731 9.654-13.885 13.885-9.654 33.731Q206.692-276.692 293-201.423q86.307 75.269 187 75.269Zm0-450q25.846 0 43.846-18 18-18 18-43.846 0-25.846-18-43.846-18-18-43.846-18-25.846 0-43.846 18-18 18-18 43.846 0 25.846 18 43.846 18 18 43.846 18Zm.021 164q-29.329 0-55.326-18.423-25.996-18.423-35.499-47.269-7.35 0-11.427.116-4.077.115-11 .115-39.748 0-67.72-27.504-27.972-27.503-27.972-67.134 0-15.901 6.75-33.478T296.538-638q-10.461-14.692-17.461-32.269-7-17.577-7-33.193 0-39.748 27.446-67.335 27.446-27.588 67.169-27.588 7.385 0 11.462.115 4.077.116 11 .116 9.502-28.846 35.499-47.269t55.326-18.423q29.329 0 55.326 18.423 25.996 18.423 35.499 47.269 7.35 0 11.427-.116 4.077-.115 11-.115 39.755 0 67.224 27.504 27.468 27.503 27.468 67.134 0 15.901-6.259 33.478T663.462-638q10.461 13.923 17.461 31.885 7 17.961 7 33.577 0 39.748-27.446 67.336-27.446 27.587-67.169 27.587-7.385 0-11.462-.115-4.077-.116-11-.116-9.502 28.846-35.499 47.269t-55.326 18.423Z"/></svg>