<svg xmlns="http://www.w3.org/2000/svg" height="24" viewBox="0 -960 960 960" width="24"><path d="m436.804-294.652 228.631-228.631-59.631-59.63-169 169-85-85-59.391 59.63 144.391 144.631ZM480-71.869q-76.435 0-143.489-29.098-67.055-29.098-116.75-78.794-49.696-49.695-78.794-116.75Q111.869-363.565 111.869-440t29.098-143.489q29.098-67.055 78.794-116.75 49.695-49.696 116.75-78.794Q403.565-808.131 480-808.131t143.489 29.098q67.055 29.098 116.75 78.794 49.696 49.695 78.794 116.75Q848.131-516.435 848.131-440t-29.098 143.489q-29.098 67.055-78.794 116.75-49.695 49.696-116.75 78.794Q556.435-71.869 480-71.869ZM220.413-876.044l58.87 58.631-176.696 176.696-58.63-58.87 176.456-176.457Zm519.174 0 176.457 176.457-58.631 58.87-176.696-176.696 58.87-58.631Z"/></svg>