<svg xmlns="http://www.w3.org/2000/svg" height="24" viewBox="0 -960 960 960" width="24"><path d="M438-311.847 650.153-524l-42.768-42.768L438-397.384l-85.385-85.384L309.847-440 438-311.847Zm42 211.846q-70.769 0-132.615-26.77-61.846-26.769-107.846-72.768-45.999-46-72.768-107.846-26.77-61.846-26.77-132.615t26.77-132.615q26.769-61.846 72.768-107.846 46-45.999 107.846-72.768 61.846-26.77 132.615-26.77t132.615 26.77q61.846 26.769 107.846 72.768 45.999 46 72.768 107.846 26.77 61.846 26.77 132.615t-26.77 132.615q-26.769 61.846-72.768 107.846-46 45.999-107.846 72.768-61.846 26.77-132.615 26.77ZM230.154-844.46l42.153 42.153-154.614 154.614-42.153-42.153L230.154-844.46Zm499.692 0L884.46-689.846l-42.153 42.153-154.614-154.614 42.153-42.153Z"/></svg>