<svg xmlns="http://www.w3.org/2000/svg" height="24" viewBox="0 -960 960 960" width="24"><path d="M100.001-100.001V-160H629.23v59.999H100.001Zm0-147.692v-59.998h184.615v-63.076h160v63.076H629.23v59.998H100.001Zm627.692 147.692v-246.308q-32.154-33.307-53-71.192-20.846-37.884-20.846-89.115v-353.383h206.152v353.383q0 51.231-19.77 89.423-19.769 38.192-52.538 70.884V-160h72.308v59.999H727.693Zm-13.847-532.306H800V-800h-86.154v167.693Zm43.846 229.691q18-17.538 30.154-45.5Q800-476.077 800-506.616v-65.693h-86.154v65.693q0 30.539 12.308 58.5 12.307 27.962 31.538 45.5Zm-.769 0Z"/></svg>