<svg xmlns="http://www.w3.org/2000/svg" height="24" viewBox="0 -960 960 960" width="24"><path d="M71.87-71.87v-91h555.695v91H71.869Zm0-171v-91h197.847v-80h160v80h197.848v91H71.869Zm642.869 171v-249.5q-37.435-41.478-60.033-82.944-22.597-41.466-22.597-100.556v-383.261h256.022v383.261q0 59.153-22.098 100.968-22.098 41.815-60.294 82.532v158.5h82.392v91H714.739Zm8.37-571.239h74.021V-797.13h-74.021v154.021Zm37.13 237.696q17.044-20.522 26.967-45.848 9.924-25.326 9.924-53.609v-58.239h-74.021v58.239q0 27.58 9.282 53.258 9.283 25.677 27.848 46.199Zm0 0Z"/></svg>