<svg xmlns="http://www.w3.org/2000/svg" height="24" viewBox="0 -960 960 960" width="24"><path d="M60.782-60.782v-106.001h549.825v106.001H60.782Zm0-186.001v-106.001h194.912v-80h160v80h194.913v106.001H60.782ZM707.565-60.782v-257q-39.392-42.131-62.805-85.597-23.413-43.465-23.413-105.404v-390.435h277.871v390.435q0 62.087-22.913 105.696-22.913 43.609-62.739 85.305v150.999h85.652v106.001H707.565Zm19.783-586.566h65.869v-145.869h-65.869v145.869Zm33.217 231.825q15.739-19.869 24.196-42.912 8.456-23.044 8.456-50.348v-58.565h-65.869v58.565q0 25.643 8.304 49.517 8.305 23.874 24.913 43.743Zm0 0Z"/></svg>