<svg xmlns="http://www.w3.org/2000/svg" height="24" viewBox="0 -960 960 960" width="24"><path d="M120-120v-40h498.462v40H120Zm0-135.385v-40h169.231v-46.154h160v46.154h169.231v40H120ZM735.385-120v-248.615Q707.077-394.231 687.384-430q-19.692-35.769-19.692-81.231V-840H840v328.769q0 45.462-18.038 81.347-18.039 35.884-46.577 61.269V-160H840v40H735.385Zm-27.693-504.615H800V-800h-92.308v175.385Zm47.693 217.384q18-14.077 31.307-43 13.308-28.923 13.308-61v-73.384h-92.308v73.384q0 32.077 14.616 61 14.615 28.923 33.077 43Zm-1.539 0Z"/></svg>