<svg xmlns="http://www.w3.org/2000/svg" height="20" viewBox="0 -960 960 960" width="20"><path d="M116.001-116.001V-168H613.23v51.999H116.001Zm0-131.692v-51.998h176.615v-55.076h144v55.076H613.23v51.998H116.001Zm599.692 131.692v-249.308q-36.154-15.307-57-53.192-20.846-37.884-20.846-78.115v-347.383h206.152v347.383q0 40.231-20.27 77.923-20.269 37.692-56.038 53.384V-168h76.308v51.999H715.693Zm-25.847-500.306H792V-792H689.846v175.693Zm51.846 205.691q23-10.538 36.654-34.5Q792-469.077 792-496.616v-67.693H689.846v67.693q0 27.539 14.808 51.5 14.807 23.962 37.038 34.5Zm-.769 0Z"/></svg>