<svg xmlns="http://www.w3.org/2000/svg" height="20" viewBox="0 -960 960 960" width="20"><path d="M183.869-87.87V-872.13h395.479l196.783 196.783v484.131l-167.827-166.87q9.761-15 14.881-34.5 5.119-19.5 5.119-41.413 0-62.152-43.076-105.228Q542.152-582.304 480-582.304q-62.152 0-105.228 43.076Q331.696-496.152 331.696-434q0 62.152 43.076 105.228Q417.848-285.696 480-285.696q21.435 0 40.674-4.5t34.239-14.739L771.5-87.869H183.869Zm295.919-277q-28.831 0-48.875-20.255-20.043-20.256-20.043-49.087 0-28.831 20.255-48.875 20.256-20.043 49.087-20.043 28.831 0 48.875 20.255 20.043 20.256 20.043 49.087 0 28.831-20.255 48.875-20.256 20.043-49.087 20.043Z"/></svg>