<svg xmlns="http://www.w3.org/2000/svg" height="20" viewBox="0 -960 960 960" width="20"><path d="M688.217-172.522q12.991 0 22.735-9.744 9.744-9.743 9.744-22.735v-39.521h39.521q12.991 0 22.735-9.744 9.744-9.743 9.744-22.735 0-12.991-9.744-22.735-9.744-9.743-22.735-9.743h-39.521v-39.522q0-12.991-9.744-22.735-9.744-9.743-22.735-9.743t-22.735 9.743q-9.744 9.744-9.744 22.735v39.522h-39.521q-12.991 0-22.735 9.743-9.744 9.744-9.744 22.735 0 12.992 9.744 22.735 9.744 9.744 22.735 9.744h39.521v39.521q0 12.992 9.744 22.735 9.744 9.744 22.735 9.744Zm-.226 87.521q-79.774 0-135.774-56.226t-56-136q0-79.774 56.226-135.774t136-56q79.774 0 135.774 56.226 56 56.227 56 136 0 79.774-56.226 135.774t-136 56ZM412.957-634.999q-20.387 0-34.694-14.247-14.306-14.246-14.306-34.543 0-20.298 14.306-34.755 14.307-14.457 34.694-14.457h373.261q20.387 0 34.694 14.247 14.306 14.246 14.306 34.543 0 20.298-14.306 34.755-14.307 14.457-34.694 14.457H412.957ZM207.739-192.13q-34.74 0-59.131-24.739-24.392-24.739-24.392-59.478 0-34.74 24.739-59.132 24.739-24.391 59.479-24.391 34.74 0 59.131 24.739 24.392 24.739 24.392 59.478 0 34.74-24.739 59.132-24.739 24.391-59.479 24.391Zm0-204q-34.74 0-59.131-24.739-24.392-24.739-24.392-59.478 0-34.74 24.739-59.132 24.739-24.391 59.479-24.391 34.74 0 59.131 24.739 24.392 24.739 24.392 59.478 0 34.74-24.739 59.132-24.739 24.391-59.479 24.391Zm0-204q-34.74 0-59.131-24.739-24.392-24.739-24.392-59.478 0-34.74 24.739-59.132 24.739-24.391 59.479-24.391 34.74 0 59.131 24.739 24.392 24.739 24.392 59.478 0 34.74-24.739 59.132-24.739 24.391-59.479 24.391Zm205.218 373.131q-20.387 0-34.694-14.247-14.306-14.246-14.306-34.543 0-20.298 14.348-34.755 14.348-14.457 34.797-14.457h15.115q-4.13 24.783-3.435 49.566.696 24.783 6.653 48.436h-18.478Zm0-204q-20.387 0-34.694-14.247-14.306-14.246-14.306-34.543 0-20.298 14.306-34.755 14.307-14.457 34.694-14.457h196.26q-42.044 11-77.544 36.349-35.501 25.348-58.501 61.653h-60.215Z"/></svg>