<svg xmlns="http://www.w3.org/2000/svg" height="20" viewBox="0 -960 960 960" width="20"><path d="M668.479-776.479h72v-24q0-14-10.5-25t-25.5-11q-14 0-25 11t-11 25v24ZM481.13-94.869q-79 0-149-30.001-70-30-122.5-82.5t-82.5-122.5q-30-70-30-149h80.479q0 45.913 13.739 88.739 13.739 42.826 38 79.565t57.825 64.891q33.565 28.152 74.782 47.413L322.217-238 384-294.783l188.783 188.615q-21 5.168-45.326 8.233-24.327 3.066-46.327 3.066Zm101.479-58.087L154.652-582.044l277.957-277.957 79.87 93.306v254.216h257.608l82.565 89.48-270.043 270.043Zm1.87-431.523v-192h48v-24q0-30 21-51t51-21q30 0 51 21t21 51v24h48v192h-240Z"/></svg>