<svg xmlns="http://www.w3.org/2000/svg" height="24" viewBox="0 -960 960 960" width="24"><path d="M520.478-41.522q-99 0-186.5-38t-152.5-103q-65-65-103-152.5t-38-186.5h83.587q0 69.848 23.544 133.294 23.543 63.445 64.75 114.489 41.206 51.043 97.695 87.184 56.489 36.142 121.62 51.098L333.13-234 392-292.87 630.87-54.071q-27 6.071-54.196 9.31-27.196 3.24-56.196 3.24Zm83.109-562.065v-200h40v-40q0-33 23.5-56.5t56.5-23.5q33 0 56.5 23.5t23.5 56.5v40h40v200h-240Zm80-200h80v-40q0-17-11.5-28.5t-28.5-11.5q-17 0-28.5 11.5t-11.5 28.5v40Zm22.934 313.891 63.892-63.652 105.413 105.413-281.761 281.761-429.174-429.652 281.522-281.522 105.174 105.413-61.891 65.414-43.283-43.283-154.217 154.217 301.869 301.869 154.217-154.217-41.761-41.761Zm-186.282-32.065Z"/></svg>