<svg xmlns="http://www.w3.org/2000/svg" height="20" viewBox="0 -960 960 960" width="20"><path d="M711.845-158.232 674.693-195l66-67.001H574.846v-51.998h165.847l-66-67.001 37.152-36.768L838.614-288 711.845-158.232Zm-183.461 42.231q-89.922 0-152.653-63.023-62.73-63.023-62.73-152.976v-28.846q-80-7.538-135.999-66.23-56-58.692-56-140.923v-217.999h120v-48H293v147.999h-51.998v-48H173v166.461q0 64.539 45.5 110.039t110.5 45.5q65 0 110.5-45.5T485-567.538v-166.461h-68.001v48H365v-147.999h51.999v48h120v217.999q0 78.581-49 136.098-49 57.517-122.999 69.055V-331q0 68.333 47.654 116.167Q460.307-167 528.384-167v50.999Z"/></svg>