<svg xmlns="http://www.w3.org/2000/svg" height="20" viewBox="0 -960 960 960" width="20"><path d="M465-233 94-604q-4-4-5-7.667-1-3.666-1-8.395 0-5.738 2.5-10.496T98-639q88-62 180.5-93.5T480-764q109 0 201.5 31.5T862-639q5 3.8 7.5 8.708Q872-625.383 872-620q0 5-1 8.5t-5 7.5l-63 63q-20-3-38.5-3.5T729-542q-70 9-121 59.5T548-362q-3 17-2.5 36t3.5 39l-54 54q-4 4-7.566 4.5-3.565.5-7.5.5-3.934 0-7.434-.5T465-233Zm281-91.252h-98q-4.25 0-7.125-2.909T638-334.269q0-4.199 2.875-7.004 2.875-2.805 7.125-2.805h98v-97.688q0-4.184 2.825-7.209 2.824-3.025 7-3.025 4.175 0 7.049 2.875 2.874 2.875 2.874 7.125v98h98.168q4.286 0 7.185 2.885t2.899 7.15q0 4.265-2.899 7.115-2.899 2.85-7.185 2.85h-98.168v98q0 4.25-2.909 7.125T755.965-216q-4.265 0-7.115-2.899-2.85-2.899-2.85-7.185v-98.168Z"/></svg>