<svg xmlns="http://www.w3.org/2000/svg" height="20" viewBox="0 -960 960 960" width="20"><path d="M435.783-148.65 61.653-555.565q-12.131-13.261-17.414-28.522-5.282-15.261-5.282-32.149 0-19.329 7.63-36.779 7.63-17.449 22.892-31.159 87.261-68.305 193.043-104.87Q368.304-825.609 480-825.609q111.696 0 217.478 36.565 105.782 36.565 193.043 104.87 15.261 13.826 22.892 31.426 7.63 17.599 7.63 36.574 0 16.826-5.282 32.087-5.283 15.261-17.413 28.522L834-489.521q-23.304-4.739-43.674-6.174-20.369-1.435-43.108 1.565-81.218 9-139.805 67.087-58.587 58.088-67.587 139.305-3 28.957.978 55.196 3.978 26.24 13.239 53.501l-27 27q-8.739 11.565-20.162 16.848-11.423 5.282-24.456 5.847-13.034.566-24.903-4.152-11.87-4.717-21.739-15.152Zm289.434-62.339h-58.999q-20.387 0-34.694-14.331-14.307-14.33-14.307-34.651 0-20.321 14.307-34.583 14.307-14.262 34.694-14.262h58.999v-58.688q0-20.321 14.246-34.778 14.246-14.456 34.544-14.456 20.298 0 34.629 14.306 14.331 14.307 14.331 34.694v59h59.167q20.423 0 34.754 14.306 14.33 14.307 14.33 34.694 0 20.388-14.33 34.694-14.331 14.307-34.754 14.307h-59.167v58.999q0 20.388-14.331 34.694-14.331 14.307-34.418 14.307-20.387 0-34.694-14.331-14.307-14.331-14.307-34.754v-59.167Z"/></svg>