<svg xmlns="http://www.w3.org/2000/svg" height="20" viewBox="0 -960 960 960" width="20"><path d="M429-195 56-568q-11-11-16-24t-5-27.062q0-15.938 6.5-29.996Q48-663.116 61-674q85-70 197-106t222-36q110 0 222 36t197 106q13 11 19.5 25.208Q925-634.583 925-619q0 14-5 27t-16 24l-70 70q-25-7-46.5-9t-46.5 1q-75 9-128.5 62T550-316q-3 25-1 47t9 47l-27 27q-11 11-23.836 16-12.836 5-27 5T453-179q-13-5-24-16Zm303-57.252h-72q-15.3 0-25.65-10.374Q624-273 624-288.234t10.35-25.539q10.35-10.305 25.65-10.305h72v-71.688Q732-411 742.289-421.5q10.29-10.5 25.5-10.5 15.211 0 25.585 10.35T803.748-396v72h72.168q15.336 0 25.71 10.35T912-288q0 15.3-10.374 25.65Q891.252-252 875.916-252h-72.168v72q0 15.3-10.374 25.65Q783-144 768-144q-15.3 0-25.65-10.374Q732-164.748 732-180.084v-72.168Z"/></svg>