<svg xmlns="http://www.w3.org/2000/svg" height="24" viewBox="0 -960 960 960" width="24"><path d="M730.769-295.384h-100q-8.5 0-14.25-5.758t-5.75-14.269q0-8.512 5.75-14.243t14.25-5.731h100v-99.999q0-8.5 5.758-14.25 5.758-5.751 14.269-5.751 8.512 0 14.243 5.751 5.73 5.75 5.73 14.25v99.999h100q8.5 0 14.25 5.758t5.75 14.27q0 8.511-5.75 14.242-5.75 5.731-14.25 5.731h-100v100q0 8.5-5.757 14.25-5.758 5.75-14.27 5.75-8.511 0-14.242-5.75-5.731-5.75-5.731-14.25v-100Zm-280.077 89.153L90.231-566.692q-6.616-6.616-9.539-14.436-2.923-7.821-2.923-15.641 0-9.154 3.923-17.5 3.923-8.347 11.77-14.808 84.307-64.846 182.307-97.885Q373.769-760 480-760t204.231 33.038q98 33.039 182.308 97.885 7.846 6.461 11.769 14.808 3.923 8.346 3.923 17.5 0 8.077-2.923 15.769t-9.539 14.308l-30.615 30.615q-11-4.615-22.077-7.423-11.077-2.808-23-4.577L844-598q-79-60-172-91t-192-31q-99 0-192 31t-172 91l364 364 38.077-38.077q1.769 11.923 4.577 23T530.077-227l-20.769 20.769q-6.616 6.616-13.984 9.154-7.369 2.539-15.501 2.539-8.131 0-15.323-2.539-7.192-2.538-13.808-9.154ZM480-477Z"/></svg>