<svg xmlns="http://www.w3.org/2000/svg" height="24" viewBox="0 -960 960 960" width="24"><path d="m421-451-61-61q-17-17-41.5-16.5T277-511q-17 17-17 41t17 41l99 100q19.364 19 45.182 19T466-329l211-212q17-17 17-41.5T677-624q-17-17-41.5-17T594-624L421-451ZM212-86q-51.975 0-88.988-37.012Q86-160.025 86-212v-536q0-51.975 37.012-88.987Q160.025-874 212-874h135q20-38 55.5-59t77.5-21q42 0 77.5 21t55.5 59h135q51.975 0 88.987 37.013Q874-799.975 874-748v536q0 51.975-37.013 88.988Q799.975-86 748-86H212Zm0-126h536v-536H212v536Zm268-570q16.467 0 27.233-10.767Q518-803.533 518-820t-10.767-27.233Q496.467-858 480-858t-27.233 10.767Q442-836.467 442-820t10.767 27.233Q463.533-782 480-782ZM212-212v-536 536Z"/></svg>