<svg xmlns="http://www.w3.org/2000/svg" height="24" viewBox="0 -960 960 960" width="24"><path d="m422.462-400.769-99.847-99.846q-5.615-5.616-13.769-6.001-8.154-.384-14.538 6.001-6.385 6.384-6.385 14.153 0 7.77 6.385 14.154l105.538 105.539q9.692 9.692 22.616 9.692 12.923 0 22.615-9.692l219.077-219.077q5.615-5.615 6-13.769.385-8.154-6-14.539T650-620.539q-7.769 0-14.154 6.385L422.462-400.769ZM224.615-160q-26.846 0-45.731-18.884Q160-197.769 160-224.615v-510.77q0-26.846 18.884-45.731Q197.769-800 224.615-800h188q-5.461-30.616 14.654-55.308Q447.385-880 480-880q33.385 0 53.5 24.692 20.116 24.692 13.885 55.308h188q26.846 0 45.731 18.884Q800-762.231 800-735.385v510.77q0 26.846-18.884 45.731Q762.231-160 735.385-160h-510.77Zm0-40h510.77q9.23 0 16.923-7.692Q760-215.385 760-224.615v-510.77q0-9.23-7.692-16.923Q744.615-760 735.385-760h-510.77q-9.23 0-16.923 7.692Q200-744.615 200-735.385v510.77q0 9.23 7.692 16.923Q215.385-200 224.615-200ZM480-782.308q13 0 21.5-8.5t8.5-21.5q0-13-8.5-21.5t-21.5-8.5q-13 0-21.5 8.5t-8.5 21.5q0 13 8.5 21.5t21.5 8.5ZM200-200v-560 560Z"/></svg>