<svg xmlns="http://www.w3.org/2000/svg" height="20" viewBox="0 -960 960 960" width="20"><path d="M216-144q-29.7 0-50.85-21.15Q144-186.3 144-216v-528q0-29.7 21.15-50.85Q186.3-816 216-816h171q8-32 34.029-52 26.03-20 59-20Q513-888 539-868t34 52h171q29.7 0 50.85 21.15Q816-773.7 816-744v528q0 29.7-21.15 50.85Q773.7-144 744-144H216Zm264-624q10.4 0 17.2-6.8 6.8-6.8 6.8-17.2 0-10.4-6.8-17.2-6.8-6.8-17.2-6.8-10.4 0-17.2 6.8-6.8 6.8-6.8 17.2 0 10.4 6.8 17.2 6.8 6.8 17.2 6.8Zm.242 360Q540-408 582-450.242q42-42.243 42-102Q624-612 581.758-654q-42.243-42-102-42Q420-696 378-653.758q-42 42.243-42 102Q336-492 378.242-450q42.243 42 102 42ZM216-216h528v-53q-57-45-124.5-68T480-360q-72 0-139.5 23T216-269v53Z"/></svg>