<svg xmlns="http://www.w3.org/2000/svg" height="20" viewBox="0 -960 960 960" width="20"><path d="M680.977-351.262q-56.151 0-95.39-39.306-39.239-39.305-39.239-95.457 0-56.151 39.305-95.39 39.306-39.239 95.457-39.239 56.152 0 95.391 39.305 39.239 39.306 39.239 95.457 0 56.152-39.305 95.391-39.306 39.239-95.458 39.239Zm.166-92.349q18.04 0 30.144-12.203t12.104-30.243q0-18.04-12.203-30.144-12.203-12.105-30.243-12.105t-30.144 12.204q-12.105 12.203-12.105 30.243t12.204 30.144q12.203 12.104 30.243 12.104ZM426.348-36.565v-196.747q44.391-26.384 91.701-42.832 47.309-16.448 97.995-25.944l65 70.652 64.435-70.652q50.332 7.131 97.601 25.826 47.269 18.696 92.66 43.392v196.305H426.348Zm92.914-92.348H649l-62.782-70.565q-18.162 3.542-35.473 9.945-17.31 6.403-31.483 16.046v44.574Zm193.826 0h130.303l2.827-44.348q-15.87-9.869-33.957-16.391-18.087-6.522-36.391-9.826l-62.782 70.565Zm-64.088 0Zm64.088 0Zm-358.74 5.827H124.782v-710.437h710.436v209.825q-19.522-22.652-44.87-37.348-25.348-14.696-53.131-24.391v-50.084H222.783v514.434h131.565v98.001Zm-59.565-468.435h210.65q17.521-24.696 40.912-42.849 23.391-18.152 51.608-27.761v-1.39h-303.17v72Zm0 149.217h183.521q-4.826-17.435-5.217-35.935-.392-18.5 2.217-36.065H294.783v72Zm0 149.217h97.999l94.044-41.74v-30.26H294.783v72Zm59.565 72H222.783v-514.434h514.434v50.649q-14.174-4.174-27.837-5.978-13.664-1.804-28.336-1.804-85.779 0-146.238 60.458-60.458 60.459-60.458 146.238 0 39.522 13.761 73.696t36.587 62l-170.348 72.957v56.218Zm326.696-264.871Z"/></svg>