<svg xmlns="http://www.w3.org/2000/svg" height="24" viewBox="0 -960 960 960" width="24"><path d="M695.882-347Q635-347 592.5-389.618q-42.5-42.617-42.5-103.5Q550-554 592.618-596.5q42.617-42.5 103.5-42.5Q757-639 799.5-596.382q42.5 42.617 42.5 103.5Q842-432 799.382-389.5q-42.617 42.5-103.5 42.5Zm.293-116q12.825 0 21.325-8.675 8.5-8.676 8.5-21.5 0-12.825-8.675-21.325-8.676-8.5-21.5-8.5-12.825 0-21.325 8.675-8.5 8.676-8.5 21.5 0 12.825 8.675 21.325 8.676 8.5 21.5 8.5ZM430-18v-215q48-28 99-45.5T634-307l62 62 61-62q54 8 105.5 28t99.5 46v215H430Zm116-116h96l-43-44q-14 2-27.5 6.5T546-160.4v26.4Zm204 0h96l5-26q-14-8-28.5-12t-29.5-6l-43 44Zm-108 0Zm108 0ZM350-83H86v-788h788v239q-24-30-56-51t-70-30v-32H212v536h138v126Zm-58-502h198q11-23 25-43t34-37H292v80Zm0 148h185q-5-20-6.5-40t.5-40H292v80Zm0 148h80l100-46v-34H292v80Zm58 80H212v-536h536v32q-13-3-25.5-4.5T696-719q-93.79 0-159.895 66.105T470-493q0 39 12.5 74t34.5 64l-167 76v70Zm346-284Z"/></svg>