<svg xmlns="http://www.w3.org/2000/svg" height="24" viewBox="0 -960 960 960" width="24"><path d="M695.882-347Q635-347 592.5-389.618q-42.5-42.617-42.5-103.5Q550-554 592.618-596.5q42.617-42.5 103.5-42.5Q757-639 799.5-596.382q42.5 42.617 42.5 103.5Q842-432 799.382-389.5q-42.617 42.5-103.5 42.5ZM430-18v-215q48-28 99-45.5T634-307l62 62 61-62q54 8 105.5 28t99.5 46v215H430Zm-80-65H86v-788h788v239q-32-42-79-64.5T696-719q-42 0-80 14t-67 40H292v80h198q-7 16-12 33t-7 35H292v80h185q5 19 12 35.5t18 32.5H292v80h58v206Z"/></svg>