<svg xmlns="http://www.w3.org/2000/svg" height="20" viewBox="0 -960 960 960" width="20"><path d="M259.478-279.521h-34.999q-38.179 0-63.568-25.39-25.39-25.389-25.39-63.568v-271.042q-16.695-1.696-28.609-14.246-11.913-12.551-11.913-30.022 0-18.814 12.788-31.752 12.788-12.938 31.691-12.938h120v-58.999H240q-18.903 0-31.691-13.116-12.788-13.115-12.788-31.717 0-18.602 12.788-31.646T240-877.001h120q18.903 0 31.691 12.727t12.788 31.542q0 18.602-12.788 31.928T360-787.478h-19.478v58.999h120q18.903 0 31.691 12.727t12.788 31.541q0 17.472-11.763 30.233-11.764 12.761-28.759 14.457v271.042q0 38.179-25.39 63.568-25.389 25.39-63.568 25.39h-34.999v175.478q0 17.222-11.59 28.872-11.589 11.65-28.721 11.65-17.133 0-28.933-11.65t-11.8-28.872v-175.478Zm-34.999-88.958h151.042v-58.999H312q-11.409 0-19.965-8.532-8.557-8.533-8.557-19.909 0-11.377 8.557-19.99 8.556-8.613 19.965-8.613h63.521v-38.956H312q-11.409 0-19.965-8.532-8.557-8.533-8.557-19.909 0-11.377 8.557-19.99 8.556-8.613 19.965-8.613h63.521v-58.999H224.479v271.042Zm356.043 285.48q-38.179 0-63.851-25.672-25.672-25.672-25.672-63.851V-408q0-23.565 7.718-47.761 7.717-24.196 23.413-42.065 16.913-14.392 27.131-25.392 10.217-11 10.217-23.304v-10q-16.696-1.696-28.326-14.246-11.631-12.551-11.631-30.022 0-18.814 12.788-31.752 12.788-12.937 31.691-12.937h192q18.903 0 31.691 12.727t12.788 31.541q0 17.471-11.481 30.232-11.48 12.761-28.476 14.457v10q0 13.304 11.5 23.804 11.5 10.5 27.848 25.892 15.696 16.869 22.413 36.782 6.718 19.914 6.718 40.044v247.478q0 38.179-25.672 63.851-25.672 25.672-63.851 25.672H580.522Zm0-305.523h158.956V-408q0-15.87-9.717-30.152-9.718-14.283-19.587-26.022-16.131-18.565-23.413-31.369-7.283-12.805-7.283-27.935v-33.044h-38.956v33.044q0 12.13-6.783 23.435-6.782 11.304-22.913 30.869-9.304 12.304-19.804 27.462-10.5 15.158-10.5 33.712v19.478Zm0 96h158.956v-38.956H580.522v38.956Zm0 120h158.956v-62.956H580.522v62.956Zm0-120h158.956-158.956Z"/></svg>