<svg xmlns="http://www.w3.org/2000/svg" height="24" viewBox="0 -960 960 960" width="24"><path d="M235.478-271.521h-26.999q-41.479 0-69.218-27.74-27.74-27.739-27.74-69.218v-283.042q-18.695-1.696-31.609-15.457Q67-680.739 67-700q0-20.603 13.938-34.541 13.938-13.938 34.541-13.938h120v-46.999H220q-20.603 0-34.541-14.326-13.938-14.326-13.938-34.718 0-20.391 13.938-34.435 13.938-14.044 34.541-14.044h120q20.603 0 34.541 13.938 13.938 13.938 13.938 34.541 0 20.392-13.938 34.718-13.938 14.326-34.541 14.326h-15.478v46.999h120q20.603 0 34.541 13.938 13.938 13.938 13.938 34.541 0 19.261-12.913 33.022-12.914 13.761-31.609 15.457v283.042q0 41.479-27.74 69.218-27.739 27.74-69.218 27.74h-26.999v175.478q0 18.922-12.8 31.722T280-51.521q-18.922 0-31.722-12.8t-12.8-31.722v-175.478Zm-26.999-96.958h143.042v-46.999H290q-13.809 0-24.165-10.332-10.357-10.333-10.357-24.109 0-13.777 10.357-24.19 10.356-10.413 24.165-10.413h61.521v-50.956H290q-13.809 0-24.165-10.332-10.357-10.333-10.357-24.109 0-13.777 10.357-24.19 10.356-10.413 24.165-10.413h61.521v-46.999H208.479v283.042Zm396.043 301.48q-41.479 0-69.501-28.022-28.022-28.022-28.022-69.501V-420q0-29.565 9.718-50.261 9.717-20.696 22.413-33.565 18.913-17.392 27.631-25.892 8.717-8.5 8.717-14.804v-20q-18.696-1.696-31.326-15.457-12.631-13.761-12.631-33.022 0-20.603 13.938-34.541 13.938-13.937 34.541-13.937h200q20.603 0 34.541 13.937 13.938 13.938 13.938 34.541 0 19.261-12.631 33.022-12.63 13.761-31.326 15.457v20q0 6.304 10 16.304 10 10 29.348 27.392 12.696 12.869 20.913 33.282 8.218 20.414 8.218 47.544v255.478q0 41.479-28.022 69.5-28.022 28.023-69.501 28.023H604.522Zm0-337.523h150.956V-420q0-13.87-8.717-25.152-8.718-11.283-18.587-22.022-12.131-13.565-22.413-27.869-10.283-14.305-10.283-40.435v-29.044h-30.956v29.044q0 25.13-9.783 39.435-9.782 14.304-21.913 27.869-9.304 11.304-18.804 22.462-9.5 11.158-9.5 25.712v15.478Zm0 120h150.956v-50.956H604.522v50.956Zm0 120h150.956v-50.956H604.522v50.956Zm0-120h150.956-150.956Z"/></svg>