<svg xmlns="http://www.w3.org/2000/svg" height="20" viewBox="0 -960 960 960" width="20"><path d="M330.154-595.385q-6.8 0-11.4-4.547-4.6-4.547-4.6-11.269t4.6-11.453q4.6-4.731 11.4-4.731H760q6.8 0 11.4 4.547 4.6 4.548 4.6 11.27 0 6.722-4.6 11.453-4.6 4.73-11.4 4.73H330.154Zm0 131.385q-6.8 0-11.4-4.547-4.6-4.547-4.6-11.269 0-6.723 4.6-11.453 4.6-4.731 11.4-4.731H760q6.8 0 11.4 4.547 4.6 4.547 4.6 11.269 0 6.723-4.6 11.453Q766.8-464 760-464H330.154Zm0 131.385q-6.8 0-11.4-4.547-4.6-4.548-4.6-11.27 0-6.722 4.6-11.453 4.6-4.73 11.4-4.73H760q6.8 0 11.4 4.547 4.6 4.547 4.6 11.269t-4.6 11.453q-4.6 4.731-11.4 4.731H330.154ZM204.615-590.769q-7.461 0-14.038-6.798T184-612.654q0-7.635 6.577-13.49Q197.154-632 205.115-632q7.962 0 14.039 5.706 6.077 5.705 6.077 14.14 0 7.789-5.927 14.587t-14.689 6.798Zm0 130.615q-7.461 0-14.038-6.356Q184-472.865 184-480.5q0-9.115 6.577-15t14.538-5.885q7.962 0 14.039 5.735t6.077 15.65q0 7.135-5.927 13.49-5.927 6.356-14.689 6.356Zm0 132.154q-7.461 0-14.038-6.798T184-349.884q0-7.635 6.577-13.491t14.538-5.856q7.962 0 14.039 5.706t6.077 14.141q0 7.788-5.927 14.586T204.615-328Z"/></svg>