<svg xmlns="http://www.w3.org/2000/svg" height="24" viewBox="0 -960 960 960" width="24"><path d="M584-480h-24q-17 0-28.5 11.5T520-440q0 17 11.5 28.5T560-400h97q26 0 44.5-18.5T720-463v-97q0-17-11.5-28.5T680-600q-17 0-28.5 11.5T640-560v22q-32-38-76.5-60T466-620q-83 0-143.5 49.5T245-446q-4 18 7 32t28 14q17 0 29.5-12.5T327-442q14-43 52-70.5t87-27.5q36 0 67 16.5t51 43.5ZM480-46q-91 0-169.987-34.084-78.988-34.083-137.417-92.512T80.084-310.013Q46-389 46-480t34.084-169.987q34.083-78.988 92.512-137.417t137.417-92.512Q389-914 480-914t169.987 34.084q78.988 34.083 137.417 92.512t92.512 137.417Q914-571 914-480t-34.084 169.987q-34.083 78.988-92.512 137.417T649.987-80.084Q571-46 480-46Z"/></svg>