<svg xmlns="http://www.w3.org/2000/svg" height="20" viewBox="0 -960 960 960" width="20"><path d="M232-136v-358.846h32V-168h308v-190.539l72.846-68.615q35.308-32.308 53.962-77.038 18.653-44.731 18.653-92.808 0-46.846-15.884-90.692-15.885-43.846-49.962-77.154L624-791.461 501.539-668H377.538l-70.999 71L281-616.539 364.461-700h124L624-835.539l46.154 44.385q38.923 37.923 58.731 87.846Q748.692-653.385 749.462-599q-.77 55.385-21.077 106.808-20.308 51.423-61.231 89.346L604-344.461V-136H232Zm183.231-169.231L225.846-494.846q-5.692-8.692-8.269-16.846T215-529q0-10.154 2.577-19.808t11.269-16.346L301-636.539l110.154 95.385q26.692 26.692 37.884 59.846 11.193 33.154 11.193 70.308 0 29.769-12.616 57.077-12.615 27.308-32.384 48.692Z"/></svg>