<svg xmlns="http://www.w3.org/2000/svg" height="24" viewBox="0 -960 960 960" width="24"><path d="M180.999-67v-398.956h106.002v292.955h253.998v-185.086l108.957-108.957q26.739-26.739 41.326-61.043T705.869-600q0-37.174-14.804-71.195-14.805-34.022-41.109-60.761L634-748.347 512.087-626.999H358.305l-32.826 32.825-77.349-78.044 60.783-60.783h160L634-898.088l91.044 91.044q41.696 41.131 64.261 94.739Q811.87-658.696 811.87-600q0 58.696-22.565 112.022-22.565 53.326-64.261 95.022l-78.043 78.043v247.914H180.999ZM391-248.911 173.956-465.956q-12.696-12.696-19.826-30.239-7.131-17.544-7.131-35.805t7.131-35.305q7.13-17.043 19.826-29.739l94.174-95.174 131.914 133.174q30.261 30.261 46.609 69.022 16.348 38.761 16.348 81.587 0 45.653-19.805 86.392T391-248.912Z"/></svg>