<svg xmlns="http://www.w3.org/2000/svg" height="24" viewBox="0 -960 960 960" width="24"><path d="M138.521-111.521v-77.174q0-38.087 26.608-64.696Q191.738-280 229.826-280h8.695v-62.477h-8.695q-38.088 0-64.697-26.609-26.608-26.609-26.608-64.696v-92.436q0-38.087 26.608-64.696 26.609-26.609 64.697-26.609h8.695V-680h-8.695q-38.088 0-64.697-26.609-26.608-26.609-26.608-64.696v-77.174q0-44.305 30.848-75.153 30.848-30.848 75.153-30.848h97.955q44.305 0 75.153 30.848 30.849 30.848 30.849 75.153v77.174q0 38.087-26.609 64.696Q395.261-680 357.174-680h-8.695v62.477h15.478q35.261 0 59.891 24.631 24.631 24.63 24.631 59.891h103.042q0-35.261 24.631-59.891 24.63-24.631 59.891-24.631h119.435q44.305 0 75.153 30.849 30.848 30.848 30.848 75.153v63.042q0 44.305-30.848 75.153-30.848 30.849-75.153 30.849H636.043q-35.261 0-59.891-24.631-24.631-24.63-24.631-59.891H448.479q0 35.261-24.631 59.891-24.63 24.631-59.891 24.631h-15.478V-280h8.695q38.087 0 64.696 26.609 26.609 26.609 26.609 64.696v77.174q0 44.305-30.849 75.153Q386.782-5.52 342.477-5.52h-97.955q-44.305 0-75.153-30.848-30.848-30.848-30.848-75.153Z"/></svg>