<svg xmlns="http://www.w3.org/2000/svg" height="20" viewBox="0 -960 960 960" width="20"><path d="M238-140.124v-80.125Q238-230 244.15-236t15.85-6h54v-176h-54q-9.7 0-15.85-6.187-6.15-6.186-6.15-15.937v-80.125Q238-530 244.15-536t15.85-6h54v-152h-54q-9.7 0-15.85-6.187-6.15-6.186-6.15-15.937v-80.125Q238-806 244.15-812t15.85-6h128q9.7 0 15.85 6.187 6.15 6.186 6.15 15.937v80.125Q410-706 403.85-700T388-694h-54v152h54q9.7 0 15.85 6.15T410-520v30h188v-30q0-10 6.15-16t15.85-6h128q9.7 0 15.85 6.187 6.15 6.186 6.15 15.937v80.125Q770-430 763.85-424T748-418H620q-9.7 0-15.85-6.15T598-440v-30H410v30q0 10-6.15 16T388-418h-54v176h54q9.7 0 15.85 6.187 6.15 6.186 6.15 15.937v80.125Q410-130 403.85-124T388-118H260q-9.7 0-15.85-6.187-6.15-6.186-6.15-15.937Z"/></svg>