<svg xmlns="http://www.w3.org/2000/svg" height="20" viewBox="0 -960 960 960" width="20"><path d="M333.441-480q-6.749 0-11.48 4.581-4.73 4.581-4.73 11.419v140q0 6.839 4.52 11.419Q326.271-308 333.02-308q6.749 0 11.48-4.581 4.731-4.58 4.731-11.419v-140q0-6.838-4.52-11.419Q340.19-480 333.441-480ZM626.98-672q-6.749 0-11.48 4.581-4.731 4.581-4.731 11.419v332q0 6.839 4.52 11.419Q619.81-308 626.559-308t11.48-4.581q4.73-4.58 4.73-11.419v-332q0-6.838-4.52-11.419T626.98-672ZM480.211-432q-6.75 0-11.48 4.581Q464-422.838 464-416v92q0 6.839 4.52 11.419Q473.04-308 479.789-308q6.75 0 11.48-4.581Q496-317.161 496-324v-92q0-6.838-4.52-11.419T480.211-432ZM240.615-184q-24.315 0-40.465-16.15Q184-216.3 184-240.615v-478.77q0-24.315 16.15-40.465Q216.3-776 240.615-776h478.77q24.315 0 40.465 16.15Q776-743.7 776-719.385v478.77q0 24.315-16.15 40.465Q743.7-184 719.385-184h-478.77Zm0-32h478.77q9.23 0 16.923-7.692Q744-231.385 744-240.615v-478.77q0-9.23-7.692-16.923Q728.615-744 719.385-744h-478.77q-9.23 0-16.923 7.692Q216-728.615 216-719.385v478.77q0 9.23 7.692 16.923Q231.385-216 240.615-216ZM216-744v528-528Zm263.789 244q6.75 0 11.48-4.52Q496-509.04 496-515.789q0-6.75-4.52-11.48Q486.96-532 480.211-532q-6.75 0-11.48 4.52Q464-522.96 464-516.211q0 6.75 4.52 11.48Q473.04-500 479.789-500Z"/></svg>