<svg xmlns="http://www.w3.org/2000/svg" height="20" viewBox="0 -960 960 960" width="20"><path d="m181.847-106.001 62.769-271.845h36.306l-62.768 271.845h-36.307Zm129.231 0 93-482.923-102.079 43.385v103.538h-51.998v-137.845l175.384-72.999q32.23-13.616 63.269-5.039 31.038 8.577 50.884 41.269L554.153-591q20 33 49.808 63.27 29.808 30.269 106.038 32.961v51.999q-57.077-1.923-105.23-31.193Q556.615-503.232 524-555.31l-28.77 150.387 70.769 71.154v227.768h-51.998v-206.461l-92.155-91.77-59.308 298.231h-51.46ZM528-702.154q-32.307 0-55.077-22.769-22.769-22.77-22.769-55.077t22.769-55.077q22.77-22.769 55.077-22.769t55.077 22.769q22.769 22.77 22.769 55.077t-22.769 55.077q-22.77 22.769-55.077 22.769Zm150.154 596.153v-271.845h35.692v271.845h-35.692Z"/></svg>