<svg xmlns="http://www.w3.org/2000/svg" height="20" viewBox="0 -960 960 960" width="20"><path d="M277.847-55.693v-154.001h-30.154q-36.12 0-61.06-24.868-24.939-24.868-24.939-60.884 0-36.016 24.939-61.131 24.94-25.115 61.06-25.115h30.154v-60.309H161.694v-171.998h116.153v-60.309h-30.154q-36.12 0-61.06-24.868-24.939-24.868-24.939-60.884 0-36.016 24.939-61.131 24.94-25.115 61.06-25.115h30.154v-58.001h35.692v58.001h30.154q36.12 0 61.059 24.868 24.94 24.868 24.94 60.884 0 36.016-24.94 61.131-24.939 25.115-61.059 25.115h-30.154v60.309h116.153v171.998H313.539v60.309h30.154q36.12 0 61.059 24.868 24.94 24.868 24.94 60.884 0 36.016-24.94 61.131-24.939 25.115-61.059 25.115h-30.154v154.001h-35.692Zm368.614 0v-154.001h-30.154q-36.12 0-61.059-24.868-24.94-24.868-24.94-60.884 0-36.016 24.94-61.131 24.939-25.115 61.059-25.115h30.154v-60.309H530.308v-171.998h116.153v-60.309h-30.154q-36.12 0-61.059-24.868-24.94-24.868-24.94-60.884 0-36.016 24.94-61.131 24.939-25.115 61.059-25.115h30.154v-58.001h35.692v58.001h30.154q36.12 0 61.06 24.868 24.939 24.868 24.939 60.884 0 36.016-24.939 61.131-24.94 25.115-61.06 25.115h-30.154v60.309h116.153v171.998H682.153v60.309h30.154q36.12 0 61.06 24.868 24.939 24.868 24.939 60.884 0 36.016-24.939 61.131-24.94 25.115-61.06 25.115h-30.154v154.001h-35.692Z"/></svg>