<svg xmlns="http://www.w3.org/2000/svg" height="24" viewBox="0 -960 960 960" width="24"><path d="M277.692-55.385v-179.999h-42.307q-33.601 0-56.801-23.188-23.2-23.187-23.2-56.769 0-33.582 23.2-56.813t56.801-23.231h42.307V-460H155.384v-160h122.308v-64.615h-42.307q-33.601 0-56.801-23.188-23.2-23.187-23.2-56.769 0-33.582 23.2-56.813t56.801-23.231h42.307v-59.999h35.385v59.999h42.308q33.6 0 56.8 23.188 23.2 23.187 23.2 56.769 0 33.582-23.2 56.813t-56.8 23.231h-42.308V-620h122.308v160H313.077v64.615h42.308q33.6 0 56.8 23.188 23.2 23.187 23.2 56.769 0 33.582-23.2 56.813t-56.8 23.231h-42.308v180h-35.385Zm369.231 0v-179.999h-42.308q-33.6 0-56.8-23.188-23.2-23.187-23.2-56.769 0-33.582 23.2-56.813t56.8-23.231h42.308V-460H524.615v-160h122.308v-64.615h-42.308q-33.6 0-56.8-23.188-23.2-23.187-23.2-56.769 0-33.582 23.2-56.813t56.8-23.231h42.308v-59.999h35.385v59.999h42.307q33.601 0 56.801 23.188 23.2 23.187 23.2 56.769 0 33.582-23.2 56.813t-56.801 23.231h-42.307V-620h122.308v160H682.308v64.615h42.307q33.601 0 56.801 23.188 23.2 23.187 23.2 56.769 0 33.582-23.2 56.813t-56.801 23.231h-42.307v180h-35.385ZM235.385-724.615h120q16.461 0 28.23-11.769 11.769-11.769 11.769-28.23 0-16.462-11.769-28.231-11.769-11.769-28.23-11.769h-120q-16.462 0-28.231 11.769-11.769 11.769-11.769 28.231 0 16.461 11.769 28.23 11.769 11.769 28.231 11.769Zm369.23 0h120q16.462 0 28.231-11.769 11.769-11.769 11.769-28.23 0-16.462-11.769-28.231-11.769-11.769-28.231-11.769h-120q-16.461 0-28.23 11.769-11.769 11.769-11.769 28.231 0 16.461 11.769 28.23 11.769 11.769 28.23 11.769ZM195.385-500h199.999v-80H195.385v80Zm369.231 0h199.999v-80H564.616v80ZM235.385-275.385h120q16.461 0 28.23-11.769 11.769-11.769 11.769-28.231 0-16.461-11.769-28.23-11.769-11.769-28.23-11.769h-120q-16.462 0-28.231 11.769-11.769 11.769-11.769 28.23 0 16.462 11.769 28.231 11.769 11.769 28.231 11.769Zm369.23 0h120q16.462 0 28.231-11.769 11.769-11.769 11.769-28.231 0-16.461-11.769-28.23-11.769-11.769-28.231-11.769h-120q-16.461 0-28.23 11.769-11.769 11.769-11.769 28.23 0 16.462 11.769 28.231 11.769 11.769 28.23 11.769Zm-409.23-449.231V-804.615-724.616Zm369.231 0V-804.615-724.616ZM195.385-500v-80 80Zm369.231 0v-80 80ZM195.385-275.385V-355.384-275.385Zm369.231 0V-355.384-275.385Z"/></svg>