<svg xmlns="http://www.w3.org/2000/svg" height="20" viewBox="0 -960 960 960" width="20"><path d="M262.087-48v-134.195H240q-41.037 0-69.714-28.612t-28.677-69.554q0-40.943 28.677-69.78 28.677-28.837 69.714-28.837h22.087v-46.087H141.609v-196.783h120.478v-46.087H240q-41.037 0-69.714-28.611-28.677-28.612-28.677-69.555 0-40.942 28.677-69.779 28.677-28.837 69.714-28.837h22.087V-912h51.826v47.283H336q41.037 0 69.714 28.611 28.677 28.612 28.677 69.555 0 40.942-28.677 69.779-28.677 28.837-69.714 28.837h-22.087v46.087h120.478v196.783H313.913v46.087H336q41.037 0 69.714 28.611 28.677 28.612 28.677 69.555 0 40.943-28.677 69.78-28.677 28.837-69.714 28.837h-22.087V-48h-51.826Zm384 0v-134.195H624q-41.037 0-69.714-28.612t-28.677-69.554q0-40.943 28.677-69.78 28.677-28.837 69.714-28.837h22.087v-46.087H525.609v-196.783h120.478v-46.087H624q-41.037 0-69.714-28.611-28.677-28.612-28.677-69.555 0-40.942 28.677-69.779 28.677-28.837 69.714-28.837h22.087V-912h51.826v47.283H720q41.037 0 69.714 28.611 28.677 28.612 28.677 69.555 0 40.942-28.677 69.779-28.677 28.837-69.714 28.837h-22.087v46.087h120.478v196.783H697.913v46.087H720q41.037 0 69.714 28.611 28.677 28.612 28.677 69.555 0 40.943-28.677 69.78-28.677 28.837-69.714 28.837h-22.087V-48h-51.826Z"/></svg>