<svg xmlns="http://www.w3.org/2000/svg" height="24" viewBox="0 -960 960 960" width="24"><path d="m435.174-416.522-53.609-53.608q-13.13-13.131-31.391-13.131-18.261 0-31.392 13.131-13.13 13.13-13.13 31.326 0 18.195 13.13 31.326l78.783 79.782q15.956 15.957 37.609 15.957 21.652 0 37.609-15.957L636-490.913q13.13-13.13 13.13-31.609 0-18.478-13.13-31.608-13.13-13.131-31.609-13.131-18.478 0-31.609 13.131L435.174-416.522ZM480-60.782q-78.391 0-147.566-29.913-69.174-29.913-120.5-81.239-51.326-51.326-81.239-120.5Q100.782-361.609 100.782-440t29.913-147.566q29.913-69.174 81.239-120.5 51.326-51.326 120.5-81.239Q401.609-819.218 480-819.218t147.566 29.913q69.174 29.913 120.5 81.239 51.326 51.326 81.239 120.5Q859.218-518.391 859.218-440t-29.913 147.566q-29.913 69.174-81.239 120.5-51.326 51.326-120.5 81.24Q558.391-60.783 480-60.783ZM480-440ZM61.086-673.087q-12.696-12.696-12.413-31.392.282-18.695 12.978-31.391l123.044-123.044q12.696-12.696 31.109-12.696 18.413 0 31.109 12.696 12.696 12.696 12.696 31.391 0 18.696-12.696 31.392L123.869-673.087q-12.696 12.696-31.392 12.696-18.695 0-31.391-12.696Zm837.828 0q-12.696 12.696-31.391 12.696-18.696 0-31.392-12.696L713.087-796.131q-12.696-12.696-12.696-31.392 0-18.695 12.696-31.391 12.696-12.696 31.392-12.413 18.695.282 31.391 12.978l123.044 123.044q12.696 12.696 12.696 31.109 0 18.413-12.696 31.109ZM480-166.783q114.174 0 193.695-79.522Q753.217-325.826 753.217-440q0-114.174-79.522-193.695Q594.174-713.217 480-713.217q-114.174 0-193.695 79.522Q206.783-554.174 206.783-440q0 114.174 79.522 193.695Q365.826-166.783 480-166.783Z"/></svg>