<svg xmlns="http://www.w3.org/2000/svg" height="20" viewBox="0 -960 960 960" width="20"><path d="M477.513-279.385q13.256 0 23.026-9.59 9.769-9.59 9.769-22.846t-9.591-23.025q-9.59-9.769-22.846-9.769t-23.025 9.59q-9.769 9.59-9.769 22.846t9.59 23.025q9.591 9.769 22.846 9.769Zm0-168q13.256 0 23.026-9.59 9.769-9.59 9.769-22.846t-9.591-23.025q-9.59-9.769-22.846-9.769t-23.025 9.59q-9.769 9.59-9.769 22.846t9.59 23.025q9.591 9.769 22.846 9.769Zm0-168q13.256 0 23.026-9.59 9.769-9.59 9.769-22.846t-9.591-23.025q-9.59-9.769-22.846-9.769t-23.025 9.59q-9.769 9.59-9.769 22.846t9.59 23.025q9.591 9.769 22.846 9.769ZM325.692-374.769v-80.692q-25-5.154-36.808-21.5-11.808-16.347-15.251-33.946-1.172-6.785 4.328-11.632 5.5-4.846 12.577-4.846h35.154v-80.692q-25-5.154-36.808-21.5t-15.251-33.946q-1.172-6.785 4.328-11.631T290.538-680h35.154v-60.923q0-17.692 9.25-26.385 9.25-8.692 22.75-8.692h240q13.5 0 22.751 8.692 9.25 8.693 9.25 26.385V-680h40.769q7.077 0 11.692 5.231 4.616 5.23 3.326 11.79-4.095 17.056-17.441 32.902t-38.346 22v80.692h40.769q7.077 0 11.692 5.231 4.616 5.231 3.326 11.791-4.095 17.055-17.441 32.902-13.346 15.846-38.346 22v80.692h39.769q7.077 0 12.192 5.231 5.116 5.23 3.826 11.79-4.095 17.056-17.441 33.402t-38.346 22.5V-216q0 13.5-9.25 22.75-9.251 9.25-22.751 9.25h-240q-13.5 0-22.75-9.25t-9.25-22.75v-85.846q-25-6.154-36.808-22.5t-15.251-33.946q-1.172-6.785 4.328-11.631t12.577-4.846h35.154Zm32 158.769h240v-528h-240v528Zm0 0v-528 528Z"/></svg>