<svg xmlns="http://www.w3.org/2000/svg" height="20" viewBox="0 -960 960 960" width="20"><path d="M479.789-358q21.586 0 36.399-15.289Q531-388.579 531-409.789 531-431 516.398-446t-36.187-15q-21.586 0-36.399 14.602Q429-431.796 429-410.211 429-389 443.602-373.5t36.187 15.5Zm0-114q18.611 0 31.411-12.65T524-516v-184q0-18.7-12.589-31.35-12.59-12.65-31.2-12.65-18.611 0-31.411 12.65T436-700v184q0 18.7 12.589 31.35 12.59 12.65 31.2 12.65ZM206-206l-42.883 42.883Q135-135 98.5-150.094 62-165.188 62-204v-576q0-49.7 34.15-83.85Q130.3-898 180-898h600q49.7 0 83.85 34.15Q898-829.7 898-780v456q0 49.7-34.15 83.85Q829.7-206 780-206H206Zm-30-118h604v-456H180v453l-4 3Zm4 0v-456 456Z"/></svg>