<svg xmlns="http://www.w3.org/2000/svg" height="20" viewBox="0 -960 960 960" width="20"><path d="M490-374v-165.855q0-4.362-2.789-7.253-2.79-2.892-7-2.892-4.211 0-7.211 2.892-3 2.891-3 7.253V-374l-76-75q-5-4-7.5-4.5T380-450q-5 5-5 7.5t5 7.5l82.241 83.138Q470-344 480.182-344q10.182 0 17.818-8l83-83q4-4 4-7.5t-4-7.5q-4-4-7.5-3.5T566-449l-76 75ZM295.717-148Q273-148 258.5-162.65T244-200v-428q0-10.222 4-20.111Q252-658 260-666l130-130q8-8 17.889-12T428-812h236q22.7 0 37.35 14.65Q716-782.7 716-760v560q0 22.7-14.662 37.35Q686.676-148 663.96-148H295.717Z"/></svg>