<svg xmlns="http://www.w3.org/2000/svg" height="20" viewBox="0 -960 960 960" width="20"><path d="M626.154-214.462H668v-41.846h-41.846v41.846Zm72.923 0h41.846v-41.846h-41.846v41.846Zm72.923 0h41.846v-41.846H772v41.846ZM184-184v-592h592v284.615q-8.638-.375-16.254-.304-7.615.071-15.746-1.08V-744H216v528h250.231q.336 8.747.168 16.104-.168 7.358.447 15.896H184Zm32-56v24-528 251.231-2V-240Zm92-77.231h167.385q3.23-8.23 6.728-15.812 3.499-7.582 7.272-16.188H308v32ZM308-464h283.231q13.692-3.846 23.307-7.962 9.616-4.115 20.539-8.577V-496H308v32Zm0-146.769h344v-32H308v32ZM719.774-83.384q-63.62 0-107.697-44.304Q568-171.991 568-235.611q0-63.62 44.303-107.697 44.303-44.077 107.923-44.077 63.62 0 107.697 44.303Q872-298.779 872-235.158q0 63.62-44.303 107.697-44.303 44.077-107.923 44.077Z"/></svg>