<svg xmlns="http://www.w3.org/2000/svg" height="20" viewBox="0 -960 960 960" width="20"><path d="M593.217-203.565h48v-48h-48v48Zm96 0h48v-48h-48v48Zm96 0h48v-48h-48v48Zm-72.226 168q-79.774 0-135.774-56.226t-56-136q0-79.774 56.226-135.774t136-56q79.774 0 135.774 56.227 56 56.226 56 136 0 79.773-56.226 135.773t-136 56ZM294.783-591.52h370.434v-72H294.783v72Zm175.391 468.435H124.782v-710.437h710.436v375.22q-28.814-15.348-59.451-23.022-30.637-7.674-62.55-7.674-12 0-24 1t-24 3v-29.305H294.783v72h264.869q-22 15.304-40.565 34.608-18.565 19.305-32.696 42.609H294.783v72h159.826q-3.696 15.957-5.544 32.761-1.848 16.805-.848 33.327 1 24.695 6.913 52.739 5.913 28.044 15.044 51.174Z"/></svg>