<svg xmlns="http://www.w3.org/2000/svg" height="20" viewBox="0 -960 960 960" width="20"><path d="M359.846-312.308h32.525l26.783-77.384h118.69l26.884 77.384h33.118l-98.769-284h-40.462l-98.769 284Zm69.385-107.307 50-144.616 48 144.616h-98ZM375.385-836v-32h209.23v32h-209.23ZM480-136q-62.308 0-115.92-23.045-53.612-23.046-93.8-63.235-40.189-40.188-63.235-93.8Q184-369.692 184-432t23.045-115.92q23.046-53.612 63.235-93.8 40.188-40.189 93.8-63.235Q417.692-728 479.56-728q54.434 0 105.322 20.269 50.887 20.269 92.272 55.269l39.692-38.692 22.308 22.308-38.692 39.692q35 40.385 55.269 91.5Q776-486.538 776-431.856q0 62.164-23.045 115.776-23.046 53.612-63.235 93.8-40.188 40.189-93.8 63.235Q542.308-136 480-136Z"/></svg>