<svg xmlns="http://www.w3.org/2000/svg" height="24" viewBox="0 -960 960 960" width="24"><path d="M480.134-120q-74.673 0-140.41-28.339-65.737-28.34-114.365-76.922-48.627-48.582-76.993-114.257Q120-405.194 120-479.866q0-74.673 28.339-140.41 28.34-65.737 76.922-114.365 48.582-48.627 114.257-76.993Q405.194-840 479.866-840q74.673 0 140.41 28.339 65.737 28.34 114.365 76.922 48.627 48.582 76.993 114.257Q840-554.806 840-480.134q0 74.673-28.339 140.41-28.34 65.737-76.922 114.365-48.582 48.627-114.257 76.993Q554.806-120 480.134-120ZM540-460v140q0 8.5 5.758 14.25 5.757 5.75 14.269 5.75t14.242-5.75Q580-311.5 580-320v-320q0-8.5-5.758-14.25-5.757-5.75-14.269-5.75t-14.242 5.75Q540-648.5 540-640v140H420v-140q0-8.5-5.758-14.25-5.757-5.75-14.269-5.75t-14.242 5.75Q380-648.5 380-640v147.692q0 13.731 9.288 23.02 9.289 9.288 23.02 9.288H540Z"/></svg>