<svg xmlns="http://www.w3.org/2000/svg" height="20" viewBox="0 -960 960 960" width="20"><path d="M425.001-459.999q-23.871 0-39.089-17.861t-11.372-41.676l9.077-58.999q6.461-35.692 33.769-58.576 27.307-22.885 62.702-22.885 36.219 0 63.526 22.885 27.308 22.884 33.769 58.576l9.077 58.999q3.846 23.815-11.372 41.676t-39.089 17.861H425.001Zm-285.877 38.231q-21.584 1-36.398-8.126-14.814-9.126-19.186-28.291-2-8.326-.808-16.46 1.193-8.134 4.423-15.481 0 .871-1-3.731-3.316-4.452-5.388-9.795-2.073-5.342-2.945-11.833-1.743-11.128 2.509-20.436 4.252-9.307 11.855-16.876.385 0 1.815-1.816 1.873-17.506 14.514-29.483 12.64-11.978 29.563-11.978 2.846 0 17.307 4.231 1 0 2.616-1.615 4.564-4.424 11.866-6.635 7.303-2.212 15.518-2.212 9.882 0 17.518 3.423 7.636 3.424 11.914 9.75.856 0 1.534.452t2.034.452q11.692 1 21.794 7.367t14.436 18.069q1.615 6.589 1.308 12.269-.308 5.679-2.308 11.218 0-.385 1 4.615 6.231 6.231 9.461 13.192 3.231 6.962 3.231 15.808 0 1.846-4.846 18.923-.615.23 0 4.615.385 1.154 1.615 14.124 0 18.559-15.919 32.409-15.92 13.851-38.662 13.851h-70.371Zm648.182 1.154q-29.922 0-51.152-21.335-21.231-21.334-21.231-51.293 0-10.824 2.982-20.224 2.983-9.399 8.095-18.352l-25.032-22.315q-8.583-7.287-2.925-18.306 5.658-11.019 16.609-11.019h73.002q30.114 0 51.152 21.302 21.039 21.301 21.039 51.215v18.129q0 29.737-21.309 50.967-21.308 21.231-51.23 21.231ZM56.616-248.462q-14.71 0-25.663-10.952-10.951-10.952-10.951-25.663v-16.153q0-41.539 42.76-68.192 42.761-26.654 111.279-26.654 10.19 0 20.613.308 10.424.307 20.654 2.489-13.407 19.371-20.203 42.056-6.796 22.685-6.796 47.24v55.521H56.617Zm241.541 0q-15.463 0-26.809-11.394-11.347-11.394-11.347-26.76v-15.845q0-57.308 60.731-92.423 60.73-35.115 159.116-35.115 99.305 0 159.728 35.115t60.423 92.423v15.845q0 15.366-11.395 26.76-11.394 11.394-26.602 11.394H298.157Zm473.534 0v-55.521q0-25.083-6.703-47.504-6.704-22.421-20.296-41.792 10.23-2.182 20.616-2.489 10.386-.308 20.691-.308 68.5 0 111.25 26.654 42.75 26.653 42.75 68.192v16.153q0 14.711-10.952 25.663t-25.663 10.952H771.691Z"/></svg>