<svg xmlns="http://www.w3.org/2000/svg" height="24" viewBox="0 -960 960 960" width="24"><path d="M213.001-133.999v25.695q0 22.087-15.457 37.544Q182.087-55.304 160-55.304h-51.305q-22.087 0-37.544-15.456-15.457-15.457-15.457-37.544v-78.695q0-22.088 15.457-37.544Q86.608-240 108.695-240h742.61q22.087 0 37.544 15.457 15.457 15.456 15.457 37.544v78.695q0 22.087-15.457 37.544-15.457 15.456-37.544 15.456H800q-22.087 0-37.544-15.456-15.457-15.457-15.457-37.544v-25.695H558.653v25.695q0 22.087-15.457 37.544-15.456 15.456-37.544 15.456h-51.304q-22.088 0-37.544-15.456-15.457-15.457-15.457-37.544v-25.695H213.001Zm26.999-173q-22.087 0-37.544-15.457-15.457-15.457-15.457-37.544v-480q0-22.087 15.457-37.544 15.457-15.457 37.544-15.457h480q22.087 0 37.544 15.457 15.457 15.457 15.457 37.544v480q0 22.087-15.457 37.544-15.457 15.457-37.544 15.457H240Zm316.609-316.609q22.087 0 37.543-15.457 15.457-15.456 15.457-37.544 0-22.087-15.457-37.543-15.456-15.457-37.543-15.457H403.391q-22.087 0-37.543 15.457-15.457 15.456-15.457 37.543 0 22.088 15.457 37.544 15.456 15.457 37.543 15.457h153.218Z"/></svg>