<svg xmlns="http://www.w3.org/2000/svg" height="20" viewBox="0 -960 960 960" width="20"><path d="m720.615-349.538-516-144.154q-9.692-2.231-15.154-10.193Q184-511.846 184-520.769V-657q0-5.918 5-9.805 5-3.888 10.524-1.79l5.944 1.469q3.147 1.049 5.609 3.51 2.461 2.462 3.692 4.385l27.539 86.923L404-527v-273q0-10.077 6.732-14.577 6.733-4.5 15.268-1.808l10.077 4.462q3.927.964 6.463 3.52 2.537 2.557 3.768 6.711l102.307 316.461 196.77 54.692q13.077 3.462 21.846 14.651T776-390.539q0 21.644-17.307 34.669-17.308 13.024-38.078 6.332ZM200-184q-6.839 0-11.419-4.52Q184-193.04 184-199.789q0-6.749 4.581-11.48Q193.161-216 200-216h560q6.839 0 11.419 4.52Q776-206.959 776-200.21t-4.581 11.479Q766.839-184 760-184H200Z"/></svg>