<svg xmlns="http://www.w3.org/2000/svg" height="24" viewBox="0 -960 960 960" width="24"><path d="M756.826-313.26 139.391-484.087q-16.957-5.13-27.783-19.087-10.826-13.956-10.826-31.913v-158.957q0-18.087 14.739-28.413 14.739-10.327 31.261-4.631l20.653 6.696q8.261 2.565 13.956 8.261 5.696 5.696 8.261 13.957l22.305 67.478 175.042 48.347v-258.869q0-22.087 17.174-35.913 17.175-13.826 39.262-8.261l22.087 5.13q11.826 2.566 20.022 10.761 8.196 8.196 12.326 20.022l102.304 326.478 199.435 56q26.957 7.131 43.283 28.74 16.326 21.609 16.326 49.131 0 39.782-31.804 63.174-31.805 23.391-70.588 12.696ZM153.782-100.782q-22.087 0-37.544-15.739-15.456-15.739-15.456-37.827 0-22.087 15.739-37.543 15.739-15.457 37.827-15.457h651.87q22.087 0 37.544 15.739 15.456 15.739 15.456 37.827 0 22.087-15.739 37.544-15.739 15.456-37.827 15.456h-651.87Z"/></svg>