<svg xmlns="http://www.w3.org/2000/svg" height="24" viewBox="0 -960 960 960" width="24"><path d="M206.783-100.782h93.434v-200H100.782v93.999q0 44.305 30.848 75.153 30.848 30.848 75.153 30.848Zm173.434 0h199.566v-200H380.217v200Zm279.566 0h93.434q44.305 0 75.153-30.848 30.848-30.848 30.848-75.153v-93.999H659.783v200Zm-559.001-280h199.435v-198.436H100.782v198.436Zm279.435 0h199.566v-198.436H380.217v198.436Zm279.566 0h199.435v-198.436H659.783v198.436ZM100.782-659.218h199.435v-200h-93.434q-44.305 0-75.153 30.848-30.848 30.848-30.848 75.153v93.999Zm279.435 0h199.566v-200H380.217v200Zm279.566 0h199.435v-93.999q0-44.305-30.848-75.153-30.848-30.848-75.153-30.848h-93.434v200Z"/></svg>