<svg xmlns="http://www.w3.org/2000/svg" height="24" viewBox="0 -960 960 960" width="24"><path d="M206.783-100.782q-44.305 0-75.153-30.848-30.848-30.848-30.848-75.153v-546.434q0-44.305 30.848-75.153 30.848-30.848 75.153-30.848h546.434q44.305 0 75.153 30.848 30.848 30.848 30.848 75.153v546.434q0 44.305-30.848 75.153-30.848 30.848-75.153 30.848H206.783Zm0-106.001h111.521v-111.521H206.783v111.521Zm217.522 0h111.39v-111.521h-111.39v111.521Zm217.391 0h111.521v-111.521H641.696v111.521ZM206.783-424.305h111.521v-111.39H206.783v111.39Zm217.522 0h111.39v-111.39h-111.39v111.39Zm217.391 0h111.521v-111.39H641.696v111.39ZM206.783-641.696h111.521v-111.521H206.783v111.521Zm217.522 0h111.39v-111.521h-111.39v111.521Zm217.391 0h111.521v-111.521H641.696v111.521Z"/></svg>