<svg xmlns="http://www.w3.org/2000/svg" height="24" viewBox="0 -960 960 960" width="24"><path d="M335.478-100.782q-30.417 0-51.709-21.291-21.292-21.292-21.292-51.709v-253.217H113.782q-22.087 0-37.544-15.457Q60.782-457.913 60.782-480q0-22.087 15.456-37.544 15.457-15.457 37.544-15.457h148.695v-253.217q0-30.417 21.292-51.709 21.292-21.291 51.709-21.291t51.709 21.291q21.292 21.292 21.292 51.709v253.217h143.042v-133.217q0-30.417 21.292-51.709 21.292-21.291 51.709-21.291t51.709 21.291q21.292 21.292 21.292 51.709v133.217h148.695q22.087 0 37.544 15.457 15.456 15.457 15.456 37.544 0 22.087-15.456 37.544-15.457 15.457-37.544 15.457H697.523v133.217q0 30.417-21.292 51.709-21.292 21.291-51.709 21.291t-51.709-21.291q-21.292-21.292-21.292-51.709v-133.217H408.479v253.217q0 30.417-21.292 51.709-21.292 21.291-51.709 21.291Z"/></svg>