<svg xmlns="http://www.w3.org/2000/svg" height="20" viewBox="0 -960 960 960" width="20"><path d="M340.615-184q-11.538 0-20.154-8.615-8.615-8.616-8.615-20.154V-464H152q-6.8 0-11.4-4.547-4.6-4.547-4.6-11.269 0-6.723 4.6-11.453Q145.2-496 152-496h159.846v-251.231q0-11.538 8.615-20.154Q329.077-776 340.615-776q11.539 0 20.154 8.615 8.616 8.616 8.616 20.154V-496h197.23v-143.231q0-11.538 8.616-20.154Q583.846-668 595.385-668q11.538 0 20.154 8.615 8.615 8.616 8.615 20.154V-496H808q6.8 0 11.4 4.547 4.6 4.547 4.6 11.269 0 6.723-4.6 11.453Q814.8-464 808-464H624.154v143.231q0 11.538-8.615 20.154Q606.923-292 595.385-292q-11.539 0-20.154-8.615-8.616-8.616-8.616-20.154V-464h-197.23v251.231q0 11.538-8.616 20.154Q352.154-184 340.615-184Z"/></svg>