<svg xmlns="http://www.w3.org/2000/svg" height="20" viewBox="0 -960 960 960" width="20"><path d="M424.174-361.196q0-76.782 15.815-115.152 15.815-38.37 62.533-76.935 42.043-34.608 55.848-56.391 13.804-21.783 13.804-49.304 0-35.848-25.685-59.033-25.685-23.185-64.337-23.185-34.848 0-63.326 21.924t-40.717 64.794L270.63-699.261q22.674-71.022 80.805-112.576 58.13-41.555 130.717-41.555 91.87 0 149.424 53.653 57.555 53.652 57.555 138 0 45.826-18.5 82.359-18.5 36.532-66.979 80.576-40.043 35.847-49.782 58.467-9.739 22.62-10.739 79.141H424.174Zm57.978 226.283q-33.109 0-56.141-23.032-23.033-23.033-23.033-56.142t23.033-56.261q23.032-23.152 56.141-23.152 33.109 0 56.261 23.152t23.152 56.261q0 33.109-23.152 56.142-23.152 23.032-56.261 23.032Z"/></svg>