<svg xmlns="http://www.w3.org/2000/svg" height="24" viewBox="0 -960 960 960" width="24"><path d="M453.231-338.461q0-54.847 16.807-91.501 16.808-36.653 69.193-82.5 36.384-32.923 54.807-62.5 18.423-29.576 18.423-66.653 0-53.308-36.73-88.769Q539-765.846 475.385-765.846q-51.77 0-82.5 24.077-30.731 24.077-49.423 59.923L300.461-702q25.616-50.923 68.539-80.615 42.923-29.693 106.385-29.693 88.846 0 136.884 50.808 48.039 50.808 48.039 118.962 0 43.846-19.192 80.115-19.193 36.269-55.962 68.962-55.154 48.538-69.5 79.192-14.346 30.654-14.346 75.808h-48.077ZM475.385-120q-16.077 0-28.039-11.961-11.962-11.962-11.962-28.039t11.962-28.039Q459.308-200 475.385-200t28.038 11.961q11.962 11.962 11.962 28.039t-11.962 28.039Q491.462-120 475.385-120Z"/></svg>