<svg xmlns="http://www.w3.org/2000/svg" height="24" viewBox="0 -960 960 960" width="24"><path d="M420.174-321.196q0-85.782 15.815-124.152 15.815-38.37 63.533-78.935 40.043-33.608 60.348-59.391 20.304-25.783 20.304-59.304 0-38.848-26.185-64.533-26.185-25.685-71.837-25.685-48.848 0-75.826 29.924-26.978 29.924-38.217 64.794L253.63-687.261q22.674-69.022 81.305-117.576 58.63-48.555 147.217-48.555 107.87 0 165.924 60.653 58.055 60.652 58.055 146 0 53.826-21.5 91.359-21.5 37.532-67.979 81.576-48.043 44.847-58.782 69.467-10.739 24.62-10.739 83.141H420.174Zm61.978 250.283q-36.109 0-61.641-25.532-25.533-25.533-25.533-61.642t25.533-61.761q25.532-25.652 61.641-25.652 36.109 0 61.761 25.652t25.652 61.761q0 36.109-25.652 61.641-25.652 25.533-61.761 25.533Z"/></svg>