<svg xmlns="http://www.w3.org/2000/svg" height="20" viewBox="0 -960 960 960" width="20"><path d="M776-129 325-579q-14 20-21 44.5t-7 51.5q0 25 6 48.5t17 43.5q9 19 9.5 38.5T314-317q-16 16-36 14.5T245-320q-25-34-38-75.5T194-483q0-48 15-92t41-80l-40-39q-34 44-53.5 98T137-483q0 57 18 109t49 96q12 18 12 39t-15 36q-16 16-37.5 13T128-210q-44-58-68.5-127T35-483q0-80 27.5-153T137-767l-59-60q-13-13-13-30.5T78-888q13-13 30.5-13t30.5 13l698 698q13 13 12.5 30.5T836-129q-13 13-30 13t-30-13Zm98-145-77-76q12-32 19-65t7-68q0-142-100.5-242.5T480-826q-35 0-68 7t-64 19l-77-77q48-24 100-37.5T480-928q93 0 173.5 34.5T795-798q61 61 95.5 141.5T925-483q0 57-13.5 109T874-274ZM753-396l-88-88q-1 0-1.5.5l-.5.5q0-76-53.5-129.5T480-666h.5q.5 0 .5-1l-88-88q21-6 43-10t44-4q119 0 202.5 83.5T766-483q0 23-3.5 44.5T753-396Z"/></svg>