<svg xmlns="http://www.w3.org/2000/svg" height="20" viewBox="0 -960 960 960" width="20"><path d="M195.262-605.087h570.042l-33.478-77.912H228.174l-32.912 77.912Zm285.303-38.956Zm174.478 136.957H293.392l-13.565 66.913h389.346l-14.13-66.913ZM140.695-236.261l54.696-270.825h-53.652q-32.218 0-51.174-26.87-18.957-26.87-6.261-55.522l60.261-151.913q6.565-17.957 22.239-28.783 15.674-10.827 35.196-10.827h556q18.957 0 34.631 10.827 15.674 10.826 22.804 28.783l60.827 151.913q13.261 29.218-5.979 55.805-19.239 26.587-52.022 26.587h-65.217l55.261 270.825q4.696 23.218-9.261 40.24-13.957 17.022-37.174 17.022-17.522 0-30.914-10.827-13.391-10.826-16.522-28.348l-26.608-123.998H261.174l-26.608 123.998q-3.131 17.522-16.522 28.348-13.392 10.827-30.914 10.827-23.217 0-37.174-17.022t-9.261-40.24Z"/></svg>