<svg xmlns="http://www.w3.org/2000/svg" height="20" viewBox="0 -960 960 960" width="20"><path d="M827-575q0 48.413-19.67 91.106t-51.961 75.651Q752-406 750-407q-2-1-3.185-4.185Q745-415 745.962-417.5q.961-2.5 5.038-4.5 30.762-31.071 48.381-70.027Q817-530.984 817-575q0-44.448-17.619-84.028Q781.762-698.608 751-730q-3-1-4.5-4.688-1.5-3.687.82-5.5Q749-742 751-742.5q2-.5 5.444 1.485Q789-709 808-666.242q19 42.757 19 91.242Zm-152 0q0 14.209-5 28.104-5 13.896-14.655 24.021Q654-522 652.5-523.5q-1.5-1.5-2.537-4.093Q649-530 649.5-531.5q.5-1.5 1.5-3.5 8-10 12-19.666 4-9.665 4-20.075 0-12.259-3.692-21.312Q659.615-605.105 652-613q-1-2-2-4.5t-.037-5.389Q651-626 652.5-627q1.5-1 2.845-.125 9.866 10.387 14.76 23.256Q675-591 675-575Zm-306 91q-38.55 0-65.275-26.225Q277-536.45 277-574.867q0-38.417 26.725-65.775Q330.45-668 369-668q38.55 0 65.275 27.358Q461-613.284 461-574.867t-26.725 64.642Q407.55-484 369-484ZM133-258v-15q0-17 9-25.5t24-17.5q52-30 107-43.5t96-13.5q41 0 96 13.5T572-316q14 9 23.5 17.5T605-273v15q0 9.7-6.162 15.85T582.96-236H154.717Q145-236 139-242.15T133-258Zm20 2h432v-17q0-11.552-8-17.276T558-302q-49-31-101-41t-88-10q-36 0-88 10t-101 41q-11 6-19 11.724T153-273v17Zm216.212-248Q399-504 420-524.5q21-20.5 21-50.58 0-30.079-21.212-51.5-21.213-21.42-51-21.42Q339-648 318-626.58q-21 21.421-21 51.5 0 30.08 21.212 50.58 21.213 20.5 51 20.5ZM369-575Zm0 319Z"/></svg>