<svg xmlns="http://www.w3.org/2000/svg" height="24" viewBox="0 -960 960 960" width="24"><path d="M937.523-640.133q0 70.696-24.5 134.327-24.5 63.63-67.066 114.63-12.565 15.131-31.978 15.848-19.413.717-33.413-13.848-13.565-13.565-13.131-32.413.435-18.848 12-34.413 29.435-38 46.5-85 17.066-47 17.066-99.131 0-51-15.935-96.434-15.935-45.435-45.37-83.435-12-15.565-11.934-34.413.065-18.848 13.63-32.848 13.565-14 32.631-13.5 19.065.5 31.63 15.63 42 51 65.935 113.5 23.935 62.5 23.935 131.5Zm-189.914 1.131q0 31.435-9.435 60.369-9.434 28.935-26.869 53.37-11 15.565-29.783 15.5-18.782-.065-32.782-14.63-13.566-13.566-14.066-32.914-.5-19.347 7.935-37.478 4.87-9.869 7.239-20.891 2.37-11.022 2.37-23.326 0-11.174-2.652-22.195-2.653-11.022-6.957-20.761-8.435-18.131-7.369-37.544 1.065-19.413 14.63-32.978 14-14.565 33.348-14.348 19.348.217 30.348 16.348 16.304 23.869 25.174 52.522 8.869 28.652 8.869 58.956ZM361.696-459.784q-74.479 0-126.849-52.369-52.37-52.37-52.37-126.849 0-74.479 52.37-126.849 52.37-52.369 126.849-52.369 74.478 0 126.848 52.369 52.37 52.37 52.37 126.849 0 74.479-52.087 126.849-52.087 52.369-127.131 52.369ZM22.477-207.913v-25.783q0-41.478 22.37-74.435t52.37-47.957q51-26 119.239-44.848 68.24-18.848 145.24-18.848 77 0 145.239 18.283t119.239 44.283q30 15 52.37 48.522 22.37 33.522 22.37 75v25.783q0 44.304-30.848 75.153-30.848 30.848-75.153 30.848H128.479q-44.305 0-75.153-30.848-30.849-30.849-30.849-75.153Z"/></svg>