<svg xmlns="http://www.w3.org/2000/svg" height="20" viewBox="0 -960 960 960" width="20"><path d="M827-575q0 48.413-19.67 91.106t-51.961 75.651Q752-406 750-407q-2-1-3-4-2-4-1-6.5t5-4.5q30.762-31.071 48.381-70.027Q817-530.984 817-575q0-44.448-17.619-84.028Q781.762-698.608 751-730q-3-1-4.5-4.5t.5-5.5q2-2 4-2.5t5.444 1.485Q789-709 808-666.242q19 42.757 19 91.242Zm-152 0q0 14-5 28t-14.655 24.125Q654-522 652.5-523.5q-1.5-1.5-2.352-3.907Q649-530 649.5-531.5q.5-1.5 1.5-3.5 8-10 12-19.741t4-20Q667-587 663.5-596T652-613q-1-2-2-4.5t.148-5.574Q651-626 652.5-627t2.845-.125Q665-617 670-604t5 29Zm-306 91q-39 0-65.5-26.294T277-575.867q0-38.455 26.5-65.294T369-668q39 0 65.5 26.839t26.5 65.294q0 39.279-26.5 65.573Q408-484 369-484ZM133-258v-15q0-17 9-25.5t24-17.5q52-30 107-43.5t96-13.5q41 0 96 13.5T572-316q14 9 23.5 17.5T605-273v15q0 9.7-6.162 15.85T582.96-236H154.717Q145-236 139-242.15T133-258Z"/></svg>