<svg xmlns="http://www.w3.org/2000/svg" height="20" viewBox="0 -960 960 960" width="20"><path d="M881.523-615.133q0 57.109-21.17 108.433-21.17 51.323-58.027 92.281-10.934 12.374-26.347 10.591-15.413-1.783-25.413-14.348-10.565-12.565-9.631-27.913.935-15.348 11.5-27.913 24.197-29.071 38.381-65.027 14.185-35.957 14.185-76.104 0-39.447-13.054-74.462t-37.251-64.407q-10-11.565-10.934-27.913-.935-16.348 9.531-27.348 10.467-11 25.631-12.5t26.174 10.615q36.555 40.015 56.49 90.273 19.935 50.258 19.935 105.742Zm-151.914 1.131q0 22.376-6.554 43.801-6.553 21.425-19.405 39.063-8.345 11.44-23.128 9.375-14.782-2.065-24.634-14.038-9.673-11.18-9.693-26.517-.021-15.336 5.414-30.467 1.87-5.869 2.239-10.773.37-4.904.37-10.185 0-4.433-.152-9.454-.153-5.022-1.457-8.761-5.435-15.131-5.369-31.544.065-16.413 9.778-28.052 9.852-12.491 25.2-13.774 15.348-1.283 23.693 10.723 11.959 16.994 17.829 38.147 5.869 21.152 5.869 42.456ZM385.978-451.784q-68.761 0-116.131-46.869-47.37-46.87-47.37-115.216t47.37-116.349q47.37-48.002 115.849-48.002 68.478 0 115.848 48.002 47.37 48.003 47.37 116.349t-47.087 115.216q-47.087 46.869-115.849 46.869Zm-307.5 227.871v-18.783q0-32.478 18.37-56.435 18.369-23.957 39.369-36.957 55-33 120.239-50.848 65.24-17.848 129.24-17.848 64 0 129.239 17.283t120.239 50.283q20 13 38.87 37.522 18.87 24.522 18.87 57v18.783q0 41.004-28.51 69.503-28.51 28.498-69.532 28.498H176.195q-41.021 0-69.369-28.498-28.349-28.499-28.349-69.503Zm98.001 0h418.434v-15.957q0-4.551-3-7.428-3-2.876-8-5.876-47-29-97.87-41.304-50.869-12.304-100.347-12.304-49.478 0-100.348 12.587-50.869 12.586-97.869 41.144-5 2.877-8 5.753-3 2.877-3 7.428v15.957Zm209.409-325.872q26.982 0 46.003-18.502 19.022-18.501 19.022-45.775 0-27.273-19.214-46.715-19.214-19.442-46.196-19.442-26.981 0-46.003 19.422-19.021 19.422-19.021 46.695 0 27.274 19.214 45.795 19.214 18.522 46.195 18.522Zm-.192-64.217Zm0 390.089Z"/></svg>