<svg xmlns="http://www.w3.org/2000/svg" height="20" viewBox="0 -960 960 960" width="20"><path d="M216.478-187.217v-75.587h66.109l3.109 2.391Q239.978-301.37 213-357.826 186.022-414.283 186.022-480q0-104.826 64.706-183.598 64.707-78.772 163.25-101.815v86q-63.239 20.848-104.097 74.87Q269.022-550.522 269.022-480q0 46.565 19.141 86.489 19.141 39.924 51.185 68.446l-1.913-1.913V-384h75.587v196.783H216.478Zm329.544-7.37v-86q63.239-20.848 104.097-74.87Q690.978-409.478 690.978-480q0-46.565-19.141-86.489-19.141-39.924-51.185-68.446l1.913 1.913V-576h-75.587v-196.783h196.544v75.587h-66.109l-3.109-2.391Q720.022-658.63 747-602.174 773.978-545.717 773.978-480q0 104.826-64.706 183.598-64.707 78.772-163.25 101.815Z"/></svg>