<svg xmlns="http://www.w3.org/2000/svg" height="20" viewBox="0 -960 960 960" width="20"><path d="M480.07-31.608q-33.461 0-57.005-23.703-23.544-23.703-23.544-56.988 0-33.518 23.703-57.175 23.703-23.656 56.988-23.656 33.745 0 57.006 23.798 23.261 23.799 23.261 57.218 0 33.419-23.474 56.963-23.473 23.543-56.935 23.543ZM261.201-766.87q-33.419 0-56.962-23.916-23.544-23.916-23.544-57.5t23.703-56.845q23.703-23.261 56.988-23.261 33.518 0 57.175 23.473 23.657 23.474 23.657 57.058t-23.799 57.288q-23.798 23.703-57.218 23.703Zm0 245.088q-33.419 0-56.962-23.916-23.544-23.916-23.544-57.501 0-33.584 23.703-56.845 23.703-23.261 56.988-23.261 33.518 0 57.175 23.473 23.657 23.474 23.657 57.058t-23.799 57.288q-23.798 23.704-57.218 23.704Zm0 245.087q-33.419 0-56.962-23.703-23.544-23.703-23.544-56.988 0-33.518 23.703-57.175 23.703-23.657 56.988-23.657 33.518 0 57.175 23.799 23.657 23.798 23.657 57.218 0 33.419-23.799 56.962-23.798 23.544-57.218 23.544ZM698.774-766.87q-33.584 0-57.288-23.916-23.704-23.916-23.704-57.5t23.916-56.845q23.916-23.261 57.501-23.261 33.584 0 56.845 23.473 23.261 23.474 23.261 57.058t-23.473 57.288q-23.474 23.703-57.058 23.703ZM480.07-276.695q-33.461 0-57.005-23.703-23.544-23.703-23.544-56.988 0-33.518 23.703-57.175 23.703-23.657 56.988-23.657 33.745 0 57.006 23.799 23.261 23.798 23.261 57.218 0 33.419-23.474 56.962-23.473 23.544-56.935 23.544Zm218.704 0q-33.584 0-57.288-23.703-23.704-23.703-23.704-56.988 0-33.518 23.916-57.175 23.916-23.657 57.501-23.657 33.584 0 56.845 22.343 23.261 22.343 23.261 55.805 0 33.461-23.473 58.418-23.474 24.957-57.058 24.957Zm0-245.087q-33.584 0-57.288-23.916-23.704-23.916-23.704-57.501 0-33.584 23.916-56.845 23.916-23.261 57.501-23.261 33.584 0 56.845 23.473 23.261 23.474 23.261 57.058t-23.473 57.288q-23.474 23.704-57.058 23.704Zm-218.704 0q-33.461 0-57.005-23.916-23.544-23.916-23.544-57.501 0-33.584 23.703-56.845 23.703-23.261 56.988-23.261 33.745 0 57.006 23.473 23.261 23.474 23.261 57.058t-23.474 57.288q-23.473 23.704-56.935 23.704Zm0-245.088q-33.461 0-57.005-23.916-23.544-23.916-23.544-57.5t23.703-56.845q23.703-23.261 56.988-23.261 33.745 0 57.006 23.473 23.261 23.474 23.261 57.058t-23.474 57.288q-23.473 23.703-56.935 23.703Z"/></svg>