<svg xmlns="http://www.w3.org/2000/svg" height="20" viewBox="0 -960 960 960" width="20"><path d="m365-696-20-20h409q4.25 0 7.125 2.825 2.875 2.824 2.875 7 0 4.175-2.875 7.175T754-696H365Zm448 436-20-20v-304H609v132l-20-20v-106q0-11.05 7.463-18.525Q603.927-604 614.96-604h171.757q11.033 0 18.658 7.475Q813-589.05 813-578v318Zm-198 16q-11.05 0-18.525-7.475Q589-258.95 589-270v-70L264-665v403h180q3.75 0 6.375 2.676 2.625 2.677 2.625 6.5 0 3.824-2.625 6.324T444-244H157q-3.75 0-6.375-2.676-2.625-2.677-2.625-6.5 0-3.824 2.625-6.324T157-262h87v-423l-75.874-75.874Q164-765 163.5-768t4.5-8q5-5 7.5-5t7.5 5l600 600q4 4 4.5 6.5T783-162q-5 5-7.5 5t-7.626-5L685-244h-70Zm86-122Z"/></svg>