<svg xmlns="http://www.w3.org/2000/svg" height="20" viewBox="0 -960 960 960" width="20"><path d="M479.283-240q20.956 0 35.793-14.837t14.837-35.827q0-20.99-14.837-35.674-14.837-14.684-35.793-14.684-20.957 0-35.794 14.684-14.837 14.684-14.837 35.674 0 20.99 14.837 35.827T479.283-240Zm-38.631-153h77.783q0-36.043 6.619-51.783 6.62-15.739 30.424-38.782 34.283-33.044 47.663-57.416 13.381-24.371 13.381-53.894 0-55.886-37.022-90.745-37.022-34.858-95.022-34.858-51.956 0-90.652 28.195-38.696 28.196-54.174 75.631l70.261 28.674q9.478-28.478 28.381-43.739 18.902-15.261 42.989-15.261 25.13 0 41.934 14.804 16.805 14.804 16.805 39.37 0 21.804-15.142 39.445-15.141 17.642-32.467 33.207-34.043 31.522-42.902 52.858-8.859 21.337-8.859 74.294ZM480-87.87q-80.913 0-152.345-30.617-71.432-30.618-124.991-84.177-53.559-53.559-84.177-124.991Q87.869-399.087 87.869-480q0-81.913 30.618-152.845t84.177-124.491q53.559-53.559 124.991-84.177Q399.087-872.131 480-872.131q81.913 0 152.845 30.618t124.491 84.177q53.559 53.559 84.177 124.491Q872.131-561.913 872.131-480q0 80.913-30.618 152.345t-84.177 124.991q-53.559 53.559-124.491 84.177Q561.913-87.869 480-87.869Zm0-83q129.043 0 219.087-90.043Q789.13-350.957 789.13-480t-90.043-219.087Q609.043-789.13 480-789.13t-219.087 90.043Q170.87-609.043 170.87-480t90.043 219.087Q350.957-170.87 480-170.87ZM480-480Z"/></svg>