<svg xmlns="http://www.w3.org/2000/svg" height="20" viewBox="0 -960 960 960" width="20"><path d="m480-456.692 129.846 129.846q5.615 5.615 11.269 5.5 5.654-.115 12.039-6.5t6.385-11.654q0-5.269-6.385-11.611L503.308-480.5l129.846-129.389q5.615-5.572 6-11.226.385-5.654-6-12.039t-11.654-6.385q-5.269 0-11.654 6.385L480-503.308 350.154-633.154q-5.615-5.615-10.769-6-5.154-.385-11.539 6t-6.385 11.654q0 5.269 6.298 11.654L456.692-480 326.846-350.154q-5.615 5.615-5.5 10.769.115 5.154 6.5 11.539t11.654 6.385q5.269 0 11.567-6.298L480-456.692ZM480.409-136q-70.948 0-133.685-26.839-62.737-26.84-109.865-73.922-47.127-47.082-73.993-109.716Q136-409.111 136-480.325q0-71.214 26.839-133.451 26.84-62.237 73.922-109.365 47.082-47.127 109.716-73.993Q409.111-824 480.325-824q71.214 0 133.451 26.839 62.237 26.84 109.365 73.922 47.127 47.082 73.993 109.482Q824-551.357 824-480.409q0 70.948-26.839 133.685-26.84 62.737-73.922 109.865-47.082 47.127-109.482 73.993Q551.357-136 480.409-136Z"/></svg>