<svg xmlns="http://www.w3.org/2000/svg" height="20" viewBox="0 -960 960 960" width="20"><path d="m480-465 134 134q4 4 7 4t8-5q5-5 5-7.5t-5-7.457L495-480.5l134-133.543q4-3.957 4.5-6.957t-4.5-8q-5-5-7.5-5t-7.5 5L480-495 346-629q-4-4-6.5-4.5T332-629q-5 5-5 7.5t4.913 7.5L465-480 331-346q-4 4-4 6.5t5 7.5q5 5 7.5 5t7.413-4.913L480-465Zm.45 317q-68.45 0-129.008-25.891-60.559-25.892-106.075-71.348-45.515-45.457-71.441-105.893Q148-411.569 148-480.284q0-68.716 25.891-128.774 25.892-60.059 71.348-105.574 45.457-45.516 105.893-71.442Q411.569-812 480.284-812q68.716 0 128.774 25.891 60.059 25.892 105.574 71.348 45.516 45.457 71.442 105.659Q812-548.899 812-480.45q0 68.45-25.891 129.008-25.892 60.559-71.348 106.075-45.457 45.515-105.659 71.441Q548.899-148 480.45-148Z"/></svg>