<svg xmlns="http://www.w3.org/2000/svg" height="24" viewBox="0 -960 960 960" width="24"><path d="M225-385h-65q-23.375 0-39.188-15.812Q105-416.625 105-440t15.812-39.188Q136.625-495 160-495h65v-65q0-23.375 15.812-39.188Q256.625-615 280-615t39.188 15.812Q335-583.375 335-560v65h65q23.375 0 39.188 15.812Q455-463.375 455-440t-15.812 39.188Q423.375-385 400-385h-65v65q0 23.375-15.812 39.188Q303.375-265 280-265t-39.188-15.812Q225-296.625 225-320v-65Zm405-261-45 32q-20 14-43.009 9.333-23.009-4.666-36.158-24.666Q494-648 497.9-669.488 501.8-690.977 520-704l106-76q8-5 16.25-8t17.417-3H700q24 0 41 17t17 41v500q0 26-19 45t-45 19q-26 0-45-19t-19-45v-413Z"/></svg>