<svg xmlns="http://www.w3.org/2000/svg" height="20" viewBox="0 -960 960 960" width="20"><path d="M337.846-407.154q4.923-17.615 6.616-36.461 1.692-18.846 1.692-36.385 0-17.539-1.692-36.385-1.693-18.846-6.616-36.461l-31.077 13.154q3.692 13.923 5.539 29.23 1.846 15.308 1.846 30.462t-1.846 30.462q-1.847 15.307-5.539 29.23l31.077 13.154Zm132.539 53q9.096-28.777 14.432-59.727 5.337-30.951 5.337-66.073 0-35.123-5.337-66.104-5.336-30.981-14.432-59.788l-30.078 11.615q7.154 25.692 12.501 54.885 5.346 29.192 5.346 59.346 0 30.154-5.346 59.346-5.347 29.193-12.501 54.885l30.078 11.615Zm132 52q15.384-39.12 23.577-83.829 8.192-44.709 8.192-94.017 0-49.308-8.192-94.017-8.193-44.709-23.577-83.829l-30.078 10.615q13.924 35.472 21.885 78.203 7.962 42.73 7.962 88.841 0 46.11-7.962 88.969-7.961 42.86-21.885 78.449l30.078 10.615ZM480.134-136q-70.673 0-133.41-26.839-62.737-26.84-109.865-73.922-47.127-47.082-73.993-109.757Q136-409.194 136-479.866q0-71.673 26.839-133.91 26.84-62.237 73.922-109.365 47.082-47.127 109.757-73.993Q409.194-824 479.866-824q71.673 0 133.91 26.839 62.237 26.84 109.365 73.922 47.127 47.082 73.993 109.257Q824-551.806 824-480.134q0 70.673-26.839 133.41-26.84 62.737-73.922 109.865-47.082 47.127-109.257 73.993Q551.806-136 480.134-136ZM480-168q130 0 221-91t91-221q0-130-91-221t-221-91q-130 0-221 91t-91 221q0 130 91 221t221 91Zm0-312Z"/></svg>