<svg xmlns="http://www.w3.org/2000/svg" height="24" viewBox="0 -960 960 960" width="24"><path d="M337.196-374q9-24 14.5-50.5t5.5-55.5q0-29-5.5-55.5t-14.5-50.5l-74 30q6 18 10 37t4 39q0 20-4 39t-10 37l74 30Zm128 54q17-38 24.5-78t7.5-82q0-42-7.5-82t-24.5-78l-74 30q14 30 20 62.5t6 67.5q0 35-6 67.5t-20 62.5l74 30Zm130 54q21-50 31.5-103.5t10.5-110.5q0-57-10.5-110.5t-31.5-103.5l-74 32q18 42 27 88t9 94q0 48-9 94t-27 88l74 32ZM480-71.87q-84.913 0-159.345-32.117-74.432-32.118-129.491-87.177-55.059-55.059-87.177-129.491Q71.869-395.087 71.869-480t32.118-159.345q32.118-74.432 87.177-129.491 55.059-55.059 129.491-87.177Q395.087-888.131 480-888.131t159.345 32.118q74.432 32.118 129.491 87.177 55.059 55.059 87.177 129.491Q888.131-564.913 888.131-480t-32.118 159.345q-32.118 74.432-87.177 129.491-55.059 55.059-129.491 87.177Q564.913-71.869 480-71.869Z"/></svg>