<svg xmlns="http://www.w3.org/2000/svg" height="20" viewBox="0 -960 960 960" width="20"><path d="M340.923-394.078q6.461-20.307 9.307-42.23T353.076-480q0-21.769-2.846-43.692-2.846-21.923-9.307-42.23l-49.537 20.076q4.846 15.462 7.269 32.115 2.423 16.654 2.423 33.731t-2.423 33.731q-2.423 16.653-7.269 32.115l49.537 20.076Zm131.769 53q11.548-31.888 17.966-66.113 6.418-34.225 6.418-72.786t-6.418-72.802q-6.418-34.24-17.966-66.143l-48.537 19.307q9.077 26.846 15 57.192T445.078-480q0 32.077-5.923 62.423-5.923 30.346-15 57.192l48.537 19.307Zm132 52q17.692-42.06 27.038-89.914T641.076-480q0-53.154-9.346-101.008-9.346-47.854-27.038-89.914l-48.537 18.307q15.461 36.736 24.192 80.851t8.731 91.67q0 47.555-8.731 91.735t-24.192 80.974l48.537 18.307ZM480.067-116.001q-74.836 0-141.204-28.42-66.369-28.42-116.182-78.21-49.814-49.791-78.247-116.129-28.433-66.337-28.433-141.173 0-75.836 28.42-141.704 28.42-65.869 78.21-115.682 49.791-49.814 116.129-78.247 66.337-28.433 141.173-28.433 75.836 0 141.704 28.42 65.869 28.42 115.682 78.21 49.814 49.791 78.247 115.629 28.433 65.837 28.433 141.673 0 74.836-28.42 141.204-28.42 66.369-78.21 116.182-49.791 49.814-115.629 78.247-65.837 28.433-141.673 28.433ZM480-168q130 0 221-91t91-221q0-130-91-221t-221-91q-130 0-221 91t-91 221q0 130 91 221t221 91Zm0-312Z"/></svg>