<svg xmlns="http://www.w3.org/2000/svg" height="20" viewBox="0 -960 960 960" width="20"><path d="M349-381q8-23 12-48t4-51q0-26-4-51t-12-48l-68 27q6 17 9 35t3 37q0 19-3 37t-9 35l68 27Zm131 53q14-35 21.5-72.5T509-480q0-42-7.5-79.5T480-632l-67 27q11 28 17.5 59.5T437-480q0 34-6.5 65.5T413-355l67 27Zm132 52q20-45 30.5-96T653-480q0-57-10.5-108T612-684l-67 26q17 38 26.5 83.5T581-480q0 49-9.5 94.5T545-302l67 26ZM480-62q-87 0-162.987-32.584-75.988-32.583-132.917-89.512T94.584-317.013Q62-393 62-480q0-88 32.584-163.487 32.583-75.488 89.512-132.417t132.917-89.512Q393-898 480-898q88 0 163.487 32.584 75.488 32.583 132.417 89.512t89.512 132.417Q898-568 898-480q0 87-32.584 162.987-32.583 75.988-89.512 132.917T643.487-94.584Q568-62 480-62Z"/></svg>