<svg xmlns="http://www.w3.org/2000/svg" height="24" viewBox="0 -960 960 960" width="24"><path d="M328-408q5-17 7.5-35.5T338-480q0-18-2.5-36.5T328-552l-26 12q3 14 5.5 29.5T310-480q0 15-2.5 30.5T302-420l26 12Zm130 54q10.625-29.911 15.312-61.396Q478-446.881 478-479.941q0-33.059-4.688-64.584Q468.625-576.051 458-606l-26 10q9 27 13.5 56.5T450-480q0 30-4.5 59.5T432-364l26 10Zm130 54q15-42.357 22.5-87.678Q618-433 618-480t-7.5-92.322Q603-617.643 588-660l-26 12q14 38.713 21 81.113t7 86.644q0 44.243-7 86.81T562-312l26 12ZM480.174-132Q408-132 344.442-159.391q-63.559-27.392-110.575-74.348-47.015-46.957-74.441-110.435Q132-407.652 132-479.826q0-72.174 27.391-135.732 27.392-63.559 74.348-110.574 46.957-47.016 110.435-74.442Q407.652-828 479.826-828q72.174 0 135.732 27.391 63.559 27.392 110.574 74.348 47.016 46.957 74.442 110.435Q828-552.348 828-480.174q0 72.174-27.391 135.732-27.392 63.559-74.348 110.575-46.957 47.015-110.435 74.441Q552.348-132 480.174-132ZM480-160q134 0 227-93t93-227q0-134-93-227t-227-93q-134 0-227 93t-93 227q0 134 93 227t227 93Zm0-320Z"/></svg>