<svg xmlns="http://www.w3.org/2000/svg" height="24" viewBox="0 -960 960 960" width="24"><path d="M200-146.999q-22.087 0-37.544-15.457-15.457-15.457-15.457-37.544v-560q0-22.087 15.457-37.544 15.457-15.457 37.544-15.457 22.087 0 37.544 15.457 15.457 15.457 15.457 37.544v560q0 22.087-15.457 37.544-15.457 15.457-37.544 15.457Zm560 0q-22.087 0-37.544-15.457-15.457-15.457-15.457-37.544v-226.999H386.001q-22.087 0-37.544-15.457-15.456-15.457-15.456-37.544 0-22.087 15.456-37.544 15.457-15.457 37.544-15.457h320.998V-760q0-22.087 15.457-37.544 15.457-15.457 37.544-15.457 22.087 0 37.544 15.457 15.457 15.457 15.457 37.544v560q0 22.087-15.457 37.544-15.457 15.457-37.544 15.457Z"/></svg>