<svg xmlns="http://www.w3.org/2000/svg" height="24" viewBox="0 -960 960 960" width="24"><path d="M440-172v-28h80v28h-80Zm0-588v-28h80v28h-80Zm160 588v-28h80v28h-80Zm0-588v-28h80v28h-80Zm134 294H454q-5.95 0-9.975-4.035-4.025-4.035-4.025-10t4.025-9.965q4.025-4 9.975-4h280l-79-80q-4-4-4.5-10t4.196-10.174Q659-598 665-597.5t10 4.5l92 92q9 9 9 21t-9 21l-93 93q-4 4-9 4t-10.217-4.174Q650-370 650.5-376t4.5-10l79-80ZM232-172q-24.75 0-42.375-17.625T172-232v-496q0-24.75 17.625-42.375T232-788h68q24.75 0 42.375 17.625T360-728v496q0 24.75-17.625 42.375T300-172h-68Zm528-588v-28q11.55 0 19.775 8.225Q788-771.55 788-760h-28Zm0 588v-28h28q0 12-8.225 20T760-172Z"/></svg>