<svg xmlns="http://www.w3.org/2000/svg" height="24" viewBox="0 -960 960 960" width="24"><path d="M440-172v-28h80v28h-80Zm0-588v-28h80v28h-80Zm160 588v-28h80v28h-80Zm0-588v-28h80v28h-80Zm134 294H454q-6 0-10-4t-4-10q0-6 4-10t10-4h280l-79-80q-4-4-4.5-10t4.5-10q4-4 10-3.5t10 4.5l92 92q9 9 9 21t-9 21l-93 93q-4 4-9 4t-10-4q-5-4-4.5-10t4.5-10l79-80ZM200-200h132v-560H200v560Zm2 28q-13 0-21.5-8.5T172-202v-556q0-13 8.5-21.5T202-788h128q13 0 21.5 8.5T360-758v556q0 13-8.5 21.5T330-172H202Zm-2-28h132-132Zm560-560v-28q12 0 20 8t8 20h-28Zm0 588v-28h28q0 12-8 20t-20 8Z"/></svg>