<svg xmlns="http://www.w3.org/2000/svg" height="20" viewBox="0 -960 960 960" width="20"><path d="m442.154-443.692-170.539-61.154q-8.692-4.231-13.654-11.165-4.962-6.934-4.962-15.769t4.462-15.412q4.462-6.577 13.154-10.808l420.211-172.084q8.405-3.993 16.982-1.518 8.577 2.476 14.178 8.077 5.602 5.602 8.077 14.179 2.476 8.576-1.552 16.971L554.825-272.663q-4.029 8.178-10.488 12.767-6.459 4.589-15.321 4.589t-15.998-5.392q-7.136-5.393-11.249-13.993l-59.615-169Zm89.231 146.769 161.23-397.231-398.769 159.692 171 66.539 66.539 171Zm-66.539-171Z"/></svg>