<svg xmlns="http://www.w3.org/2000/svg" height="20" viewBox="0 -960 960 960" width="20"><path d="M192-192q-29.7 0-50.85-21.107Q120-234.214 120-263.854v-257.775Q120-536 125-549q5-13 16-24l144.186-144.186Q296-728 309-733t27-5q14 0 27 5t23.814 15.814L531-573q11 11 16 24.03 5 13.03 5 27.408v257.907Q552-234 530.85-213T480-192h-90q-8 0-13-5t-5-13v-126q0-15.3-10.289-25.65-10.29-10.35-25.5-10.35Q321-372 310.5-361.65 300-351.3 300-336v126q0 8-5 13t-13 5h-90Zm432.272-36.014v-353.837L499-707q-17-17-7.5-39t33.5-22q8 0 14.5 3t11.5 8l124 124q11 11 16 24.034 5 13.034 5 27.417v353.268Q696-213 685.711-202.5q-10.29 10.5-25.5 10.5-15.211 0-25.575-10.354-10.364-10.354-10.364-25.66Zm143.884 0v-413.26L702-707q-17-17-7.5-39t33.5-22q8 0 14.5 3t11.5 8l65 65q11 11 16 24.025 5 13.025 5 27.397v412.307Q840-213 829.711-202.5q-10.29 10.5-25.5 10.5-15.211 0-25.633-10.354-10.422-10.354-10.422-25.66ZM335.789-444Q351-444 361.5-454.289q10.5-10.29 10.5-25.5Q372-495 361.711-505.5q-10.29-10.5-25.5-10.5Q321-516 310.5-505.711q-10.5 10.29-10.5 25.5Q300-465 310.289-454.5q10.29 10.5 25.5 10.5Z"/></svg>