<svg xmlns="http://www.w3.org/2000/svg" height="24" viewBox="0 -960 960 960" width="24"><path d="M160-146.434q-44.305 0-75.153-30.848-30.848-30.848-30.848-75.153v-272.304q0-21.087 7.978-40.392 7.978-19.304 22.935-34.261L227.39-741.87q15.957-15.956 35.479-23.652 19.522-7.696 39.609-7.696 20.088 0 39.61 7.696t35.478 23.652l143.043 142.478q14.957 14.957 22.935 33.979 7.978 19.022 7.978 40.674v272.304q0 44.305-30.848 75.153-30.848 30.848-75.153 30.848h-67.781q-10.826 0-18.522-7.696-7.696-7.696-7.696-18.522v-142.826q0-20.392-14.043-34.435-14.044-14.044-34.435-14.044-20.392 0-34.718 14.327-14.326 14.326-14.326 34.717v142.261q0 10.826-7.696 18.522-7.696 7.696-18.522 7.696H160Zm471.521-48.479v-406.566L486.869-746.131q-22.957-22.957-10.696-52.827 12.261-29.87 44.914-29.87 9.695 0 18.826 3.783 9.13 3.783 15.826 10.478L697.565-672.74q14.957 14.956 22.935 34.261 7.979 19.305 7.979 40.392v403.174q0 20.392-14.044 34.435-14.044 14.044-34.435 14.044-20.391 0-34.435-14.044-14.044-14.043-14.044-34.435Zm176.958-.565v-479.349l-71.305-71.304q-22.956-22.957-10.978-52.827 11.978-29.87 45.196-29.87 9.696 0 18.826 3.783 9.131 3.783 15.827 10.478l69.043 68.478q14.957 14.957 22.935 34.262 7.978 19.304 7.978 40.957v475.957q0 20.392-14.043 34.435-14.044 14.044-34.435 14.044-20.392 0-34.718-14.326-14.326-14.327-14.326-34.718ZM303.043-426.434q20.391 0 34.435-14.326 14.043-14.327 14.043-34.718 0-20.392-14.043-34.435-14.044-14.044-34.435-14.044-20.392 0-34.718 14.044-14.326 14.043-14.326 34.435 0 20.391 14.326 34.718 14.326 14.326 34.718 14.326Z"/></svg>