<svg xmlns="http://www.w3.org/2000/svg" height="24" viewBox="0 -960 960 960" width="24"><path d="M264-212q-24.75 0-42.375-17.625T204-272v-241q0-12.444 5-23.722T222-556l128-128q9-9 20-13t22-4q11 0 22 4t20 13l128 128q8 8 13 19.278 5 11.278 5 23.722v241q0 24.75-17.625 42.375T520-212h-85q-6 0-10.5-4.5T420-227v-69q0-11-8.05-19.5T392-324q-11 0-19.5 8.5T364-296v69q0 6-4.5 10.5T349-212h-85Zm376-13v-325q0-6-2-11.5t-7-10.5L501-702q-7-7-3.364-15.5 3.637-8.5 13.455-8.5 2.909 0 5.576 1.167 2.666 1.166 4.333 2.833l129 129q8 8 13 19.278 5 11.278 5 23.722v325q0 5.95-4.035 9.975-4.035 4.025-10 4.025T644-215.025q-4-4.025-4-9.975Zm88 0v-362q0-6-2-11.5t-7-10.5l-92-92q-7-7-3.364-16 3.637-9 13.455-9 2.909 0 5.576 1.167 2.666 1.166 4.333 2.833l92 92q8.13 8.446 12.565 19.58Q756-599.286 756-587v362q0 5.95-4.035 9.975-4.035 4.025-10 4.025T732-215.025q-4-4.025-4-9.975ZM392-452q11 0 19.5-8.5T420-480q0-11-8.5-19.5T392-508q-11 0-19.5 8.5T364-480q0 11 8.5 19.5T392-452Z"/></svg>