<svg xmlns="http://www.w3.org/2000/svg" height="20" viewBox="0 -960 960 960" width="20"><path d="M500-148q-30 0-57.5-12T396-195L218-411q-4-7-4.5-13.5T219-437l5-5q2-2 4.5-5t7.5-5l136 49v-289q0-3.95 3.035-6.975 3.035-3.025 7-3.025t6.465 3.025Q391-695.95 391-692v216h257q27.5 0 47.75 18.25T716-412v145.929Q716-216 681.344-182T597-148h-97Zm5-439q-4 0-7.5-3.025T494-597q0-4 2-6 8-14 13-30.5t5-34.5q0-55-38.5-93.5T382-800q-55 0-93.5 38.5T250-668q0 18 5 34.5t13 30.5q.2.757 1.1 2.514.9 1.756.9 3.513 0 3.973-3.46 6.973t-7.58 3q-3.96 0-5.627-1.5-1.666-1.5-3.333-3.5-10-18-15-36.594t-5-39.675Q230-732 274-776q44-44 108-44t108 44q44 44 44 107.731 0 21.081-5 39.675Q524-610 514-592q-1.765 2-3.441 3.5-1.677 1.5-5.559 1.5Z"/></svg>