<svg xmlns="http://www.w3.org/2000/svg" height="20" viewBox="0 -960 960 960" width="20"><path d="M446.477-76.782q-33.26 0-62.363-13.98-29.103-13.982-50.725-39.281L134.041-362.956q-13.522-17.218-11.609-38.849 1.914-21.63 18.696-36.152l7.261-6.696q20.653-16.696 47.588-21.131 26.935-4.434 52.588 6.392l59.173 19.26v-294.694q0-18.957 13.609-32.566 13.608-13.609 32.585-13.609 18.976 0 32.283 13.609 13.306 13.609 13.306 32.566v220.086h250.695q55.827 0 96.415 38.588 40.587 38.587 40.587 94.414v150.782q0 64.522-44.826 109.348-44.826 44.826-109.348 44.826H446.477Zm61.914-498.217q-18.957 0-33.066-13.609-14.109-13.609-14.109-32.566 0-5.826 6.696-24.087 8-14 13-30.5t5-34.5q0-55-38.5-93.5t-93.5-38.5q-55 0-93.5 38.5t-38.5 93.5q0 18 5 34.5t13 30.5q2.565 5.131 4.631 11.367 2.065 6.236 2.065 12.473 0 19.204-13.892 32.813-13.891 13.609-32.848 13.609-14.391 0-24.37-6.913-9.978-6.914-16.674-17.74-13.565-25.261-21.413-52.647-7.848-27.385-7.848-57.962 0-93.445 65.459-158.897t158.914-65.452q93.455 0 158.89 65.473 65.435 65.472 65.435 158.946 0 30.756-7.848 58.017-7.848 27.261-21.413 52.522-6.696 10.826-16.457 17.74-9.761 6.913-24.152 6.913Z"/></svg>