<svg xmlns="http://www.w3.org/2000/svg" height="20" viewBox="0 -960 960 960" width="20"><path d="M672-194.826q12.426 0 21.039-8.613 8.613-8.613 8.613-21.04v-19.737q0-12.427-8.613-21.04T672-273.869q-12.426 0-21.039 8.613-8.613 8.613-8.613 21.04v19.737q0 12.427 8.613 21.04T672-194.826Zm-.904-126.478q12.923 0 21.74-8.195 8.816-8.196 8.816-20.957 0-13.326-8.895-21.739-8.896-8.414-20.757-8.414-13.826 0-21.739 8.896t-7.913 20.757q0 13.261 7.913 21.457 7.913 8.195 20.835 8.195ZM222.783-785.217v610.434-610.434V-617.217v-168Zm105.739 402.913h96.913q9.13-22.826 21.223-42.81 12.092-19.983 28.69-37.669h-147.54q-16.533 0-28.17 11.43Q288-439.923 288-423.027q0 16.897 11.65 28.81t28.872 11.913Zm0 144H412q-3.565-19.696-4.283-40.24-.717-20.543 2.413-40.239h-82.173q-16.982 0-28.469 11.43Q288-295.923 288-279.027q0 16.897 11.65 28.81t28.872 11.913ZM222.783-76.782q-41.005 0-69.503-28.498-28.498-28.498-28.498-69.503v-610.434q0-41.005 28.498-69.503 28.498-28.498 69.503-28.498h272.391q19.447 0 37.072 6.978 17.624 6.978 32.581 21.935l145.478 145.478q14.957 14.957 21.935 32.581 6.978 17.625 6.978 37.072v97.957q-23.652-7.522-48.718-10.218-25.065-2.695-49.283.435v-66.217H522.218q-20.387 0-34.694-14.307-14.307-14.307-14.307-34.694v-118.999H222.783v610.434h211.391q14.391 29.044 34.174 53.827 19.783 24.783 46.392 44.174H222.783ZM672.226-480Q752-480 808-423.774t56 136Q864-208 807.774-152t-136 56Q592-96 536-152.226t-56-136Q480-368 536.226-424t136-56Z"/></svg>