<svg xmlns="http://www.w3.org/2000/svg" height="20" viewBox="0 -960 960 960" width="20"><path d="M672-197q14.6 0 24.3-9.7 9.7-9.7 9.7-24.3v2q0-14.6-9.7-24.3-9.7-9.7-24.3-9.7-14.6 0-24.3 9.7-9.7 9.7-9.7 24.3v-2q0 14.6 9.7 24.3 9.7 9.7 24.3 9.7Zm-1.214-113q14.785 0 25-9.5Q706-329 706-343.5q0-15.5-10.2-25T672-378q-16 0-25 10.2t-9 23.8q0 15 9 24.5t23.786 9.5ZM228-780v600-600 168-168Zm104 399h93q10-25 23.702-46.509Q462.404-449.018 481-468H330.852q-17.827 0-30.339 12.307Q288-443.386 288-425.193 288-407 300.65-394T332-381Zm0 144h80q-4-21-4.5-43.5T411-324h-80q-18.275 0-30.638 12.307Q288-299.386 288-281.193 288-263 300.65-250T332-237ZM228-62q-49.7 0-83.85-34.15Q110-130.3 110-180v-600q0-49.7 34.15-83.85Q178.3-898 228-898h265q23.467 0 44.733 8.5Q559-881 577-863l142 142q18 18 26.5 39.267Q754-660.467 754-637v101q-28-11-58.5-15t-59.5 0v-61H527q-24.3 0-41.65-17.35Q468-646.7 468-671v-109H228v600h204q17 36 42 66t59 52H228Zm444.226-418Q752-480 808-423.774t56 136Q864-208 807.774-152t-136 56Q592-96 536-152.226t-56-136Q480-368 536.226-424t136-56Z"/></svg>