<svg xmlns="http://www.w3.org/2000/svg" height="24" viewBox="0 -960 960 960" width="24"><path d="M167.692-218.461v-207.693L401.539-480l-233.847-53.846v-210.77l491.231 210h-2.769q-84.693 6.923-148.116 62.116-63.423 55.192-71.115 138.346L167.692-218.461Zm504.616 83.077q-66.847 0-113.423-46.577-46.578-46.577-46.578-113.424 0-66.846 46.578-113.423 46.576-46.577 113.423-46.577 66.846 0 113.423 46.577t46.577 113.423q0 66.847-46.577 113.424-46.577 46.577-113.423 46.577Zm66-72.154 21.846-21.847-72.462-72.163v-109.221h-30.769v121.846l81.385 81.385Z"/></svg>