<svg xmlns="http://www.w3.org/2000/svg" height="20" viewBox="0 -960 960 960" width="20"><path d="M522.088-477.479v-47h96q35.918 0 58.481-22.563 22.563-22.563 22.563-58.481v-46.999q0-35.918-22.563-58.198-22.563-22.281-58.481-22.281H483.262q-16.996 0-28.477 11.42-11.48 11.42-11.48 28.327 0 16.906 11.763 28.819t28.759 11.913h134.261v46.999h-96q-35.918 0-58.198 22.563-22.281 22.564-22.281 58.481v78.478q0 20.387 14.307 34.694 14.307 14.306 34.694 14.306h157.825q16.996 0 28.477-11.702 11.48-11.703 11.48-28.609 0-16.906-11.48-28.537-11.481-11.63-28.477-11.63H522.088ZM331.784-233.782q-41.005 0-69.504-28.498-28.498-28.499-28.498-69.504v-466.434q0-41.005 28.498-69.503 28.499-28.498 69.504-28.498h466.434q41.005 0 69.503 28.498 28.498 28.498 28.498 69.503v466.434q0 41.005-28.498 69.504-28.498 28.498-69.503 28.498H331.784ZM161.782-63.781q-41.005 0-69.503-28.498-28.498-28.498-28.498-69.503v-515.435q0-20.387 14.246-34.694 14.246-14.307 34.544-14.307 20.298 0 34.755 14.307 14.456 14.307 14.456 34.694v515.435h515.435q20.387 0 34.694 14.246 14.307 14.246 14.307 34.544 0 20.298-14.307 34.754-14.307 14.457-34.694 14.457H161.782Z"/></svg>