<svg xmlns="http://www.w3.org/2000/svg" height="20" viewBox="0 -960 960 960" width="20"><path d="M479.774-81.869q-85.992 0-145.383-59.617-59.392-59.618-59.392-145.61 0-85.991 59.618-145.383 59.618-59.391 145.609-59.391 85.992 0 145.383 59.617 59.392 59.618 59.392 145.61 0 85.991-59.618 145.383-59.618 59.391-145.609 59.391ZM480-171.39q47.739 0 81.609-33.87 33.869-33.869 33.869-81.609 0-47.739-33.869-81.891-33.87-34.152-81.609-34.152t-81.609 34.152q-33.869 34.152-33.869 81.891 0 47.74 33.869 81.609 33.87 33.87 81.609 33.87ZM262.609-482.826 76.782-668.088q78.956-84.522 183.421-130.913Q364.667-845.393 480-845.393t219.797 46.392q104.465 46.391 183.421 130.913L697.391-482.826q-42.71-45.565-98.843-71.065t-118.87-25.5q-62.738 0-118.621 25.5-55.883 25.5-98.448 71.065ZM269-602.175q47.13-32.87 101.13-49.804 54-16.935 109.87-16.935 55.87 0 110.435 16.935Q645-635.045 691-602.175l61.087-61.652q-58.87-46.869-128.892-69.456Q553.174-755.87 480-755.87q-73.174 0-143.761 23.087-70.587 23.087-129.456 68.956L269-602.175Zm210.435-66.739ZM480-286.87Z"/></svg>