<svg xmlns="http://www.w3.org/2000/svg" height="20" viewBox="0 -960 960 960" width="20"><path d="M479.774-180Q421-180 380.5-220.726t-40.5-99.5Q340-379 380.726-419.5t99.5-40.5Q539-460 579.5-419.274t40.5 99.5Q620-261 579.274-220.5t-99.5 40.5Zm.226-20q50 0 85-35t35-85q0-50-35-85t-85-35q-50 0-85 35t-35 85q0 50 35 85t85 35ZM268-518l-96-98q64-56 143.442-86Q394.884-732 480-732t164.558 30Q724-672 788-616l-96 98q-43-37-98.25-57.5t-114-20.5Q421-596 366-575.5T268-518Zm1-29q46-34 100-51.5T480-616q57 0 111 17.5T691-547l69-69q-60-48-132-72t-148-24q-76 0-148 24.5T200-616l69 69Zm211-69Zm0 296Z"/></svg>