<svg xmlns="http://www.w3.org/2000/svg" height="20" viewBox="0 -960 960 960" width="20"><path d="M480-518q-62.261 0-121.696-26.739-59.435-26.74-107.783-73.088l87.609-52.001q22.435 16.87 45.544 29.087 23.108 12.218 47.325 17.783v-189.391L480-844.262l49.001 31.913v189.391q24.912-6.131 48.021-18.348 23.108-12.217 43.848-28.522l87.609 52.001q-47.348 46.348-106.783 73.088Q542.261-518 480-518Zm-48.522 382.219-89.61-47.435q2.565-12.522 3.348-22.435.783-9.914.783-17.348 0-17.913-2.587-33.543-2.587-15.63-8.326-31.674L168.565-186.303l-50.566-26.783v-57.262L283.52-371.26q-18.304-18.478-40.043-32.652t-47.478-24.043v-101.002q107.87 28.827 177.935 112.348Q444-333.087 444-222.999q0 18.565-3.413 39.87-3.413 21.304-9.109 47.348Zm97.044 0q-6.131-23.218-9.326-43.674Q516-199.912 516-222.999q0-110.088 69.848-193.61 69.848-83.521 178.153-112.348v101.002q-27.434 10.434-49.108 24.326-21.674 13.891-39.413 31.803l166.521 99.478v57.262l-50.566 26.783-167.521-99.913q-5.739 16.044-7.826 31.674-2.087 15.63-2.087 33.543 0 7.434.783 17.348.783 9.913 3.348 22.435l-89.61 47.435Z"/></svg>