<svg xmlns="http://www.w3.org/2000/svg" height="20" viewBox="0 -960 960 960" width="20"><path d="M287.719-328q-63.565 0-107.642-44.303T136-480.226q0-63.62 44.264-107.697Q224.529-632 288.094-632h384.187q63.565 0 107.642 44.303T824-479.774q0 63.62-44.264 107.697Q735.471-328 671.906-328H287.719Zm.281-32h384q50 0 85-35t35-85q0-50-35-85t-85-35H288q-50 0-85 35t-35 85q0 50 35 85t85 35Zm60.615-70.077L434-516.461q4.154-4.154 5.039-11.654.884-7.5-4.039-12.424-4.923-4.923-12.038-4.923-7.116 0-12.039 4.923L328-457.615l-25.923-25.924q-4.154-4.153-11.154-4.538-7-.385-11.923 4.538-4.923 4.924-4.923 11.539 0 6.615 4.923 11.539l29.385 29.384q8.692 8.692 20.115 9.192 11.423.5 20.115-8.192ZM480-480Z"/></svg>