<svg xmlns="http://www.w3.org/2000/svg" height="24" viewBox="0 -960 960 960" width="24"><path d="M280-246q-97.11 0-165.555-68.422Q46-382.845 46-479.922 46-577 114.445-645.5T280-714h400q97.11 0 165.555 68.422Q914-577.155 914-480.078 914-383 845.555-314.5T680-246H280Zm0-126h400q45 0 76.5-31.5T788-480q0-45-31.5-76.5T680-588H280q-45 0-76.5 31.5T172-480q0 45 31.5 76.5T280-372Zm87-64 70-70q9-9 9-21t-9-21q-9-9-21-9t-21 9l-73 73-19-19q-9-9-21-9t-21 9q-9 9-9 21t9 21l16 16q19.364 19 45.182 19T367-436Zm113-44Z"/></svg>