<svg xmlns="http://www.w3.org/2000/svg" height="20" viewBox="0 -960 960 960" width="20"><path d="M783.539-276.923 748.462-312H792v-336H412.462l-32.001-32H824v403.077h-40.461ZM696.091-488q-16.63 0-28.36-11.64Q656-511.28 656-527.909q0-16.63 11.64-28.36Q679.281-568 695.909-568q16.63 0 28.36 11.64Q736-544.719 736-528.091q0 16.63-11.64 28.36Q712.719-488 696.091-488Zm-262.168 12Zm146.539 0ZM136-280v-399.231h144.769L312-648H168v336h434.923L144.615-770.308l22.539-22.538 625.692 625.692-22.538 22.539L634.923-280H136Zm172-100v-84h-84v-32h84v-84h32v84h84v32h-84v84h-32Z"/></svg>