<svg xmlns="http://www.w3.org/2000/svg" height="20" viewBox="0 -960 960 960" width="20"><path d="M292-136v-149.154q2.307 1.539-22.193-8-24.5-9.538-53.884-36.192-29.385-26.654-54.654-74.808Q136-452.308 136-528q0-128.077 99.282-212.039Q334.564-824 479.936-824t244.718 83.961Q824-656.077 824-528q0 75.692-25.269 123.846-25.269 48.154-54.654 74.808-29.384 26.654-53.884 36.192-24.5 9.539-22.193 8.14V-136H292Zm32-32h52.923v32h53.539v-32h99.076v32h53.539v-32H636v-139q-1.538-2.308 22.962-10.192 24.5-7.885 54-31.036 29.501-23.152 54.269-66.231Q792-457.538 792-528q0-114-89-189t-223-75q-134 0-223 75t-89 189q0 70.462 24.269 113.541 24.268 43.079 54.269 66.231 30 23.151 54.116 31.036Q324.769-309.308 324-307v139Zm103.692-191.077h104.616L480-463.692l-52.308 104.615Zm-91.556-112.308q23.71 0 40.095-16.52 16.384-16.521 16.384-40.231t-16.52-40.095q-16.521-16.384-40.231-16.384t-40.095 16.52q-16.384 16.521-16.384 40.231t16.52 40.095q16.521 16.384 40.231 16.384Zm288 0q23.71 0 40.095-16.52 16.384-16.521 16.384-40.231t-16.52-40.095q-16.521-16.384-40.231-16.384t-40.095 16.52q-16.384 16.521-16.384 40.231t16.52 40.095q16.521 16.384 40.231 16.384ZM324-168v-139q.769-2.308-23.346-10.192-24.116-7.885-54.116-31.036-30.001-23.152-54.269-66.231Q168-457.538 168-528q0-114 89-189t223-75q134 0 223 75t89 189q0 70.462-24.769 113.541-24.768 43.079-54.269 66.231-29.5 23.151-54 31.036Q634.462-309.308 636-307v139h-52.923v-36.923h-53.539V-168h-99.076v-36.923h-53.539V-168H324Z"/></svg>