<svg xmlns="http://www.w3.org/2000/svg" height="24" viewBox="0 -960 960 960" width="24"><path d="M228.13-68.695v-173.392q-36.174-18.13-65.391-47.478-29.218-29.348-50.283-65.913t-32.413-78.696Q68.695-476.304 68.695-520q0-163.652 115.109-267.479Q298.913-891.305 480-891.305q181.087 0 296.196 103.826Q891.305-683.652 891.305-520q0 43.696-11.348 85.826-11.348 42.131-32.413 78.696-21.065 36.565-50.283 65.913-29.217 29.348-65.391 47.478v173.392H228.13Zm106.001-94.696h17.39v94.696h85.653v-94.696h85.652v94.696h85.653v-94.696h17.39v-142.566q37.435-12.391 66.935-33.956 29.5-21.566 50-49.718 20.5-28.152 31.5-61.174 11-33.021 11-69.195 0-118.782-84.544-192.043-84.543-73.261-220.76-73.261-136.217 0-220.76 73.261Q174.696-638.782 174.696-520q0 36.174 11 69.195 11 33.022 31.5 61.174t50.218 49.718q29.717 21.565 66.717 33.956v142.566Zm74.564-145.13h142.61L480-451.13l-71.305 142.609ZM340-434.348q35.826 0 60.739-25.195 24.913-25.196 24.913-60.457 0-35.826-24.913-60.739-24.913-24.913-60.739-24.913-35.261 0-60.457 24.913-25.195 24.913-25.195 60.739 0 35.261 25.195 60.457 25.196 25.195 60.457 25.195Zm280 0q35.826 0 60.739-25.195 24.913-25.196 24.913-60.457 0-35.826-24.913-60.739-24.913-24.913-60.739-24.913-35.261 0-60.457 24.913-25.195 24.913-25.195 60.739 0 35.261 25.195 60.457 25.196 25.195 60.457 25.195ZM334.131-163.391v-142.566q-37-12.391-66.717-33.956-29.718-21.566-50.218-49.718-20.5-28.152-31.5-61.174-11-33.021-11-69.195 0-118.782 84.544-192.043 84.543-73.261 220.76-73.261 136.217 0 220.76 73.261Q785.304-638.782 785.304-520q0 36.174-11 69.195-11 33.022-31.5 61.174t-50 49.718q-29.5 21.565-66.935 33.956v142.566H334.131Z"/></svg>