<svg xmlns="http://www.w3.org/2000/svg" height="20" viewBox="0 -960 960 960" width="20"><path d="M287.517-96v-240H226q-39 0-67-27.776t-28-67.456Q131-460 146.5-483t41.5-35l256-113v-24q-33-11-52.5-38.634T372-755.698Q372-801 403.5-832.5 435-864 480-864t76.5 31.5Q588-801 588-756h-72q0-15.3-10.35-25.65Q495.3-792 480-792q-15.3 0-25.65 10.289-10.35 10.29-10.35 25.5 0 15.211 9.775 25.711Q463.55-720 478-720q16.15 0 27.075 11.5T516-680v49l256 113q26 12 41.5 35t15.5 51.768q0 39.68-28 67.456Q773-336 734.154-336H672v240H287.517ZM226-408h61.517v-24H672v24h62q10.062 0 16.531-7Q757-422 757-432q0-7.5-3.25-12.75T744-453L480-568 217-452q-6 3-10 8.25T203-431q0 10.222 6.469 16.611Q215.938-408 226-408Z"/></svg>