<svg xmlns="http://www.w3.org/2000/svg" height="20" viewBox="0 -960 960 960" width="20"><path d="M760-184H200q-6.539 0-11.269-4.731Q184-193.461 184-200q0-6.538 4.731-11.269Q193.461-216 200-216h560q6.539 0 11.269 4.731Q776-206.538 776-200q0 6.539-4.731 11.269Q766.539-184 760-184ZM249.846-435.308l164.538-44.077-139.769-235.923q-4.923-7.846-.846-14.538 4.077-6.693 12.385-8.385l10.308-3.462q4.153-1.23 6.923.885 2.769 2.115 5.692 4.039L559-519.154l203.154-53.692q16.769-4.924 32.077 3.538t21.308 23.923q5 17.846-3.385 33.462-8.385 15.615-26.231 21.077L253.538-347.077q-9.692 2.231-18.769-1-9.077-3.231-13.538-11.923l-68.693-115.769q-2.923-6.385-.231-11.116 2.693-4.731 7.539-7.731l8.077-1.461q1.923-2 5.385-1.269 3.461.73 6.153 3.192l70.385 58.846Z"/></svg>