<svg xmlns="http://www.w3.org/2000/svg" height="20" viewBox="0 -960 960 960" width="20"><path d="M496-148H240q-19 0-31.5-12.5T196-192v-106q0-11.05 7.475-18.525Q210.95-324 222-324h70v-436q0-21.45 15.275-36.725Q322.55-812 344-812h368q21.45 0 36.725 15.275Q764-781.45 764-760v249q-8 4-12 8t-8 10v-267q0-14-9-23t-23-9H344q-14 0-23 9t-9 23v436h255l-55 55q-8 8-12 17.676-4 9.676-4 20.353V-148Zm92-26v-32.432q0-5.568 2-9.068t6-8.5l192-191q3.258-2.412 6.018-3.706t5.408-1.294q2.889 0 5.971 1 3.081 1 5.603 3l44 46q2.588 3.258 3.794 6.129Q860-361 860-358.241q0 2.76-.794 5.417T855-347L663.601-155.601Q659-151 655.5-149.5q-3.5 1.5-9.068 1.5H614q-11.05 0-18.525-7.475Q588-162.95 588-174Zm211-139 45-45-45-46-45 46 45 45ZM390-544h276q4.25 0 7.125 2.825 2.875 2.824 2.875 7 0 4.175-2.875 7.175T666-524H390q-4.25 0-7.125-2.825-2.875-2.824-2.875-7 0-4.175 2.875-7.175t7.125-3Zm0-108h276q4.25 0 7.125 2.825 2.875 2.824 2.875 7 0 4.175-2.875 7.175T666-632H390q-4.25 0-7.125-2.825-2.875-2.824-2.875-7 0-4.175 2.875-7.175t7.125-3Z"/></svg>