<svg xmlns="http://www.w3.org/2000/svg" height="24" viewBox="0 -960 960 960" width="24"><path d="M395.385-664.615h289.23q8.5 0 14.25 5.757 5.75 5.758 5.75 14.27 0 8.511-5.75 14.242-5.75 5.731-14.25 5.731h-289.23q-8.5 0-14.25-5.758t-5.75-14.269q0-8.512 5.75-14.243 5.75-5.73 14.25-5.73Zm0 110.769h289.23q8.5 0 14.25 5.758 5.75 5.757 5.75 14.269 0 8.511-5.75 14.242-5.75 5.731-14.25 5.731h-289.23q-8.5 0-14.25-5.758t-5.75-14.269q0-8.512 5.75-14.242 5.75-5.731 14.25-5.731ZM473.846-160H200h273.846Zm0 40H240q-33.846 0-56.923-23.077Q160-166.154 160-200v-78.462q0-13.73 9.288-23.019 9.289-9.288 23.019-9.288H280v-464.616q0-26.654 18.981-45.634Q317.961-840 344.615-840h390.77q26.654 0 45.634 18.981Q800-802.039 800-775.385v251q-10.769.308-20.5 2.27-9.731 1.961-19.5 5.577v-258.847q0-10.769-6.923-17.692T735.385-800h-390.77q-10.769 0-17.692 6.923T320-775.385v464.616h213.846l-40 40H200V-200q0 17 11.5 28.5T240-160h233.846v40Zm95.385-32.307v-42.924q0-6.127 2.23-11.871 2.231-5.744 7.462-10.975l203.615-202.615q5.924-5.923 12.223-8t12.598-2.077q6.872 0 13.505 2.577 6.632 2.577 12.059 7.73l37 37.77q4.923 5.923 7.5 12.307Q880-364 880-357.615q0 6.384-2.461 12.884-2.462 6.5-7.616 12.424L667.308-129.692q-5.231 5.231-10.975 7.461Q650.589-120 644.462-120h-42.924q-13.73 0-23.019-9.288-9.288-9.289-9.288-23.019Zm275.384-205.308-37-37.77 37 37.77Zm-240 202.23h38l138.693-138.922-18.77-19-18.23-19.539-139.693 139.461v38Zm157.923-157.922-18.23-19.539 37 38.539-18.77-19Z"/></svg>