<svg xmlns="http://www.w3.org/2000/svg" height="24" viewBox="0 -960 960 960" width="24"><path d="m668.462-304-90.616 90.616q-5.615 5.615-13.384 5.23-7.77-.384-13.385-6-5.616-5.615-5.616-13.897t5.616-13.641l89.846-89.846-90.615-90.616q-5.616-5.615-5.231-13.769.384-8.154 6-13.769 5.615-5.616 13.897-5.616 8.283 0 13.642 5.616l89.846 90.615 90.615-90.615q5.359-5.616 13.641-5.616t13.898 5.616q5.615 5.615 5.615 13.897t-5.615 13.641L696-331.538l90.616 90.615q5.615 5.615 5.615 13.385 0 7.769-5.615 13.384-5.616 5.616-13.898 5.616t-13.641-5.616L668.462-304Zm-25.231-285.154L799.077-745q5.846-5.846 14.154-6.116 8.308-.269 14.154 6.347Q833-738.643 833-730.476q0 8.168-5.615 14.014l-160.539 160.77Q657.154-546 644.231-546q-12.923 0-22.616-9.692l-77.538-77.539q-5.616-5.615-5.231-13.769.385-8.154 6-13.769 5.616-5.616 13.898-5.616t13.641 5.616l70.846 71.615ZM140-355.385h280q8.5 0 14.25 5.758t5.75 14.269q0 8.512-5.75 14.243T420-315.384H140q-8.5 0-14.25-5.758T120-335.411q0-8.512 5.75-14.243t14.25-5.731Zm0-289.231h280q8.5 0 14.25 5.758t5.75 14.269q0 8.512-5.75 14.243T420-604.615H140q-8.5 0-14.25-5.758T120-624.642q0-8.512 5.75-14.243t14.25-5.731Z"/></svg>