<svg xmlns="http://www.w3.org/2000/svg" height="24" viewBox="0 -960 960 960" width="24"><path d="m663.608-232.911-57.347 57.346q-14.957 14.957-37.044 14.957-22.087 0-37.044-14.957-14.957-14.956-14.957-37.044 0-22.087 14.957-37.043l57.347-57.347-57.347-57.347q-14.957-14.957-14.957-37.044 0-22.087 14.957-37.044 14.957-14.957 37.044-14.957 22.087 0 37.044 14.957l57.347 57.347 57.347-57.347q14.956-14.957 37.044-14.957 22.087 0 37.044 14.957 14.956 14.957 14.956 37.044 0 22.087-14.956 37.044l-57.347 57.347 57.347 57.347q14.956 14.956 14.956 37.043 0 22.088-14.956 37.044-14.957 14.957-37.044 14.957-22.088 0-37.044-14.957l-57.347-57.346Zm-11.869-418.177L784.13-784.044q15.957-15.957 37.609-15.457t37.609 16.457q14.957 15.957 14.674 37.327-.282 21.369-15.239 36.761l-169 169.435q-15.957 15.956-37.327 16.239-21.369.283-37.326-15.674l-85.435-86Q514.173-639.913 514.173-662q0-22.087 15.522-37.044 14.957-14.957 37.044-14.957 22.087 0 37.044 14.957l47.956 47.956ZM117.174-373.001h266.999q22.087 0 37.544 15.457 15.457 15.457 15.457 37.544 0 22.087-15.457 37.544-15.457 15.457-37.544 15.457H117.174q-22.088 0-37.544-15.457Q64.173-297.913 64.173-320q0-22.087 15.457-37.544 15.457-15.457 37.544-15.457Zm0-320h266.999q22.087 0 37.544 15.457 15.457 15.457 15.457 37.544 0 22.087-15.457 37.544-15.457 15.457-37.544 15.457H117.174q-22.088 0-37.544-15.457Q64.173-617.913 64.173-640q0-22.087 15.457-37.544 15.457-15.457 37.544-15.457Z"/></svg>