<svg xmlns="http://www.w3.org/2000/svg" height="20" viewBox="0 -960 960 960" width="20"><path d="M481-196q-59 0-110.633-22.1-51.634-22.1-90.4-60.867-38.767-38.766-60.867-90.4Q197-421 197-480q0-52 18-99.5t51-86.5l-98.269-98.269Q165-767 164.5-770t3.447-7q3.948-4 7.5-4 3.553 0 7.615 4.08l594.876 595.84Q781-178 781.5-174.318q.5 3.682-3.5 7.318-3.667 4-6.833 4-3.167 0-6.898-3.835L668-264q-40 33-88 50.5T481-196Zm.051-20Q529-216 573-233.5t80-46.5L280-653q-29 37-46 80.5t-17 92.449q0 110.336 76.858 187.193Q370.715-216 481.051-216ZM481-744q-35 0-68 9t-63 25l-14-14q33-20 70-30t75-10q60.703 0 115.852 25Q652-714 693-668v-122q0-4.3 2.789-7.15 2.79-2.85 7-2.85 4.211 0 7.211 2.85t3 7.15v108q0 11.3-7.35 18.65Q698.3-656 687-656H579q-4.3 0-7.15-2.789-2.85-2.79-2.85-7 0-4.211 2.85-7.211t7.15-3h83q-39-33-84.381-50.5T481-744Zm10 175-20-20v-73q0-4.3 2.789-7.15 2.79-2.85 7-2.85 4.211 0 7.211 2.85t3 7.15v93Zm234 234-16-16q17-26 26.5-56.5T748-469q-1-5 1-8.5t6.061-4.5q4.939-1 7.939 2t3 9q-1 39-10 73t-31 63Z"/></svg>