<svg xmlns="http://www.w3.org/2000/svg" height="20" viewBox="0 -960 960 960" width="20"><path d="M222.783-76.782q-41.005 0-69.503-28.498-28.498-28.498-28.498-69.503v-514.434q0-41.005 28.498-69.503 28.498-28.498 69.503-28.498H288v-96h85.001v96h213.998v-96H672v96h65.217q41.005 0 69.503 28.498 28.498 28.498 28.498 69.503v514.434q0 41.005-28.498 69.503-28.498 28.498-69.503 28.498H222.783Zm0-98.001h514.434v-514.434H222.783v514.434Zm150.477 0v-75.26l-67.739-67.174q-13.565-14.696-21.195-32.73-7.631-18.034-7.631-38.053 0-11.632 2.872-22.816 2.871-11.184 7.563-22.141-5-10.043-7.718-21.326-2.717-11.282-2.717-21.717 0-20.019 7.631-38.053 7.63-18.034 22.195-33.73l66.174-67.174v-74.26h74.001V-601q0 8.996-9.826 26.044l-76.565 77.565q-4.739 5.033-7.174 10.381-2.435 5.348-2.435 11.01 0 10.217 7.978 19.76 7.978 9.544 18.761 9.544 5.043 0 12.282-2.957 7.239-2.956 15.543-8.521 23.261-19.827 37.992-25.675 14.731-5.847 36.653-5.847 21.921 0 37.247 5.847 15.327 5.848 37.588 25.675 6.739 6.304 14.195 8.891 7.456 2.587 13.065 2.587 11.625 0 19.182-9.244 7.556-9.243 7.556-20.692 0-5.824-1.934-11.422-1.935-5.598-5.9-9.783l-77.209-75.989q-3.435-3.434-7.196-9.978-3.761-6.544-3.761-17.196v-88.217h74.002v74.26l67.739 67.174q15.13 15.131 21.695 33.495 6.566 18.364 6.566 37.774 0 11.514-2.152 22.514-2.153 11-7.153 22 4.435 10 7.153 21.184 2.717 11.184 2.717 22.816 0 20.019-8.131 38.053-8.13 18.034-21.695 32.73l-67.174 67.174v75.26h-74.001V-262q0-7.957 9.826-28.044l71.347-70.782q4.121-3.171 5.886-6.737 1.766-3.567-.234-9.48-3.347 2.174-7.643 3.261-4.296 1.087-9.856 1.087-21.891 0-41.652-8.848-19.761-8.848-34.457-21.544-13.869-10.304-16.326-11.456-2.456-1.152-8.978-1.152-8.728 0-14.059 4.152-5.332 4.152-11.679 9.456-13.131 10.566-32.892 19.979-19.761 9.413-44.152 9.413-5.097 0-9.157-1.087t-7.407-3.261q-2 5.913-.696 9.326 1.304 3.413 5.348 6.891l71.347 70.782q5.131 5.131 7.761 11.892 2.631 6.761 2.631 15.834v87.535H373.26Zm-150.477 0v-514.434 514.434Z"/></svg>