<svg xmlns="http://www.w3.org/2000/svg" height="24" viewBox="0 -960 960 960" width="24"><path d="M146.999-67q-22.087 0-37.544-15.456Q93.999-97.913 93.999-120v-215.827q0-51.13 36.13-86.978 36.131-35.848 87.261-35.848h106.567q40.391 0 68.042-21.999 27.652-22 27.652-60.695 0-19.261-13.196-32.457-13.195-13.195-32.456-13.195-33 0-56.5-23.5t-23.5-56.5V-840q0-22.087 15.456-37.544 15.457-15.457 37.544-15.457h186.002q22.087 0 37.544 15.457 15.456 15.457 15.456 37.544v27.565q119.261 5.087 199.631 91.674 80.369 86.587 80.369 206.413v40q0 123.783-84.891 211.219-84.892 87.435-208.109 87.435h-169.61q-7.39 0-12.39 4.999-5 5-5 12.391V-120q0 22.087-15.456 37.544Q355.088-67 333.001-67H146.999Z"/></svg>