<svg xmlns="http://www.w3.org/2000/svg" height="24" viewBox="0 -960 960 960" width="24"><path d="M171-320q0-39.167 27.417-66.583Q225.833-414 265-414h80q60.833 0 103.417-42.583Q491-499.167 491-560q0-27-19.5-46.5T425-626q-23 0-38.5-15.5T371-680v-160q0-5.95 4.312-9.975Q379.625-854 386-854q5.95 0 9.975 4.025Q400-845.95 400-840v160q0 11 7 18.5t18 7.5q39.167 0 66.583 27.417Q519-599.167 519-560q0 72.21-50.895 123.105Q417.21-386 345-386h-80q-27 0-46.5 19.5T199-320v200q0 5.95-4.035 9.975-4.035 4.025-10 4.025T175-110.025q-4-4.025-4-9.975v-200Zm109 160q0-39.167 27.417-66.583Q334.833-254 374-254h160q93.79 0 159.895-66.105T760-480v-40q0-91-57.5-158.5T557-746q-31.763 0-54.381-23Q480-792 480-823v-17q0-5.95 4.035-9.975 4.035-4.025 10-4.025t9.965 4.025q4 4.025 4 9.975v17q0 20 14.5 34.5T557-774q100 0 165.5 75.5T788-520v40q0 106.136-73.932 180.068Q640.136-226 534-226H374q-27 0-46.5 19.5T308-160v40q0 5.95-4.035 9.975-4.035 4.025-10 4.025T284-110.025q-4-4.025-4-9.975v-40Zm-81 54v-214q0-27 19.5-46.5T265-386h80q72.21 0 123.105-50.895Q519-487.79 519-560q0-39.167-30.5-66.583Q458-654 400-654v-200 200q58 0 88.5 27.417Q519-599.167 519-560q0 72.21-50.895 123.105Q417.21-386 345-386h-80q-27 0-46.5 19.5T199-320v214Z"/></svg>