<svg xmlns="http://www.w3.org/2000/svg" height="20" viewBox="0 -960 960 960" width="20"><path d="M167.276-83q-20.364 0-34.821-14.306-14.456-14.307-14.456-34.694v-207.827q0-46.13 32.63-78.478 32.631-32.348 78.761-32.348h170.567q25.391 0 42.542-11.499 17.152-11.5 17.152-35.195 0-37.261-26.196-63.457-26.195-26.195-63.456-26.195-24.75 0-42.375-17.625t-17.625-42.375V-828q0-20.387 14.29-34.694 14.291-14.307 34.655-14.307h169.78q20.364 0 34.821 14.307 14.456 14.307 14.456 34.694v47.565q111.261 5.087 187.631 79.674 76.369 74.587 76.369 190.413v48q0 112.083-76.741 191.369-76.742 79.285-188.259 79.285h-177.61q-5.69 0-9.54 3.849-3.85 3.85-3.85 9.541V-132q0 20.387-14.29 34.694Q357.42-83 337.056-83h-169.78Z"/></svg>