<svg xmlns="http://www.w3.org/2000/svg" height="24" viewBox="0 -960 960 960" width="24"><path d="M132-448q0-25.063 17.625-42.532Q167.25-508 192-508h20v-88q0-24.75 17.625-42.375T272-656h416q24.75 0 42.375 17.625T748-596v88h20q24.75 0 42.375 17.625T828-448v88q0 11-8.5 19.5t-19.744 8.5L789-259q-.889 3.231-3.111 5.115Q783.667-252 781-252h-2q-2.667 0-4.889-1.885-2.222-1.884-3.111-5.115l-11-73H200l-11 73q-.889 3.231-3.111 5.115Q183.667-252 181-252h-2q-2.667 0-4.889-1.885-2.222-1.884-3.111-5.115l-10.756-73Q149-332 140.5-340.5T132-360v-88Zm362-60h226v-88q0-14-9-23t-23-9H494v120Zm-254 0h226v-120H272q-14 0-23 9t-9 23v88Z"/></svg>