<svg xmlns="http://www.w3.org/2000/svg" height="20" viewBox="0 -960 960 960" width="20"><path d="M116.001-260.001v-439.998h727.998v439.998H116.001ZM168-312h624v-336H168v336Zm172.616-28.616h278.768v-62.768H340.616v62.768Zm-96-120h62.768v-62.768h-62.768v62.768Zm102 0h62.768v-62.768h-62.768v62.768Zm102 0h62.768v-62.768h-62.768v62.768Zm102 0h62.768v-62.768h-62.768v62.768Zm102 0h62.768v-62.768h-62.768v62.768Zm-408-96h62.768v-62.768h-62.768v62.768Zm102 0h62.768v-62.768h-62.768v62.768Zm102 0h62.768v-62.768h-62.768v62.768Zm102 0h62.768v-62.768h-62.768v62.768Zm102 0h62.768v-62.768h-62.768v62.768ZM168-312v-336 336Z"/></svg>