<svg xmlns="http://www.w3.org/2000/svg" height="24" viewBox="0 -960 960 960" width="24"><path d="M120-240v-480h720v480H120Zm209.231-89.231h301.538v-61.538H329.231v61.538Zm-120-120h61.538v-61.538h-61.538v61.538Zm120 0h61.538v-61.538h-61.538v61.538Zm120 0h61.538v-61.538h-61.538v61.538Zm120 0h61.538v-61.538h-61.538v61.538Zm120 0h61.538v-61.538h-61.538v61.538Zm-480-120h61.538v-61.538h-61.538v61.538Zm120 0h61.538v-61.538h-61.538v61.538Zm120 0h61.538v-61.538h-61.538v61.538Zm120 0h61.538v-61.538h-61.538v61.538Zm120 0h61.538v-61.538h-61.538v61.538Z"/></svg>