<svg xmlns="http://www.w3.org/2000/svg" height="20" viewBox="0 -960 960 960" width="20"><path d="M480.133-100.001q-26.055 0-43.978-17.829-17.923-17.829-17.923-43.939v-98.232H228.387q-22.692 0-33.538-20.077-10.846-20.077 2-39.154l115.846-174.769h-6.539q-23.839-3-32.804-22.885-8.965-19.884 2.881-36.961l172.844-247.151q5.441-8.276 13.601-12.368 8.161-4.093 17.322-4.093t17.322 4.093q8.16 4.092 13.601 12.368l173.844 247.151q11.846 17.077 2.881 36.961-8.965 19.885-32.804 22.885h-6.539l114.846 174.769q12.846 19.077 2.5 39.154t-34.038 20.077H541.768v98.232q0 26.11-17.79 43.939t-43.845 17.829ZM277-324h155-73 243-73 155-407Zm0 0h406L531-558h72L480-733 358-558h73L277-324Z"/></svg>