<svg xmlns="http://www.w3.org/2000/svg" height="24" viewBox="0 -960 960 960" width="24"><path d="M480.133-100.001q-24.055 0-41.478-17.329-17.423-17.329-17.423-41.439v-101.232H225.387q-21.692 0-32.538-19.077-10.846-19.077 2-37.154l122.846-183.769h-9.539q-21.839 0-32.304-19.385-10.465-19.384 2.381-37.461l171.844-246.151q5.441-7.276 13.601-11.368 8.161-4.093 16.322-4.093t16.322 4.093q8.16 4.092 13.601 11.368l171.844 246.151q12.846 18.077 2.381 37.461-10.465 19.385-32.304 19.385h-9.539l122.846 183.769q12.846 18.077 2 37.154t-32.538 19.077H538.768v101.232q0 24.11-17.29 41.439t-41.345 17.329ZM270-320h160-76 252-76 160-420Zm0 0h420L530-560h76L480-740 354-560h76L270-320Z"/></svg>