<svg xmlns="http://www.w3.org/2000/svg" height="20" viewBox="0 -960 960 960" width="20"><path d="M480.345-132Q467-132 458-140.756q-9-8.757-9-22.244v-129H277q-19 0-28-17t2-33l122-184h-17q-20.383-3-27.691-19.5Q321-562 331-576l123-177q4.545-7.118 11.364-10.559Q472.182-767 480-767t14.636 3.441Q501.455-760.118 506-753l124 177q10 14 2.692 30.5Q625.383-529 605-526h-17l121 184q11 16 2.5 33T683-292H511v129q0 13.487-8.655 22.244-8.654 8.756-22 8.756ZM277-324h155-73 243-73 155-407Zm0 0h406L531-558h72L480-733 358-558h73L277-324Z"/></svg>