<svg xmlns="http://www.w3.org/2000/svg" height="24" viewBox="0 -960 960 960" width="24"><path d="M212-172q-53 0-89.5-36.5T86-298v-250q0-80.783 31.192-152.287 31.193-71.505 84.822-124.996 53.629-53.492 125.317-84.605Q399.018-941 480.009-941T632.5-910.5Q704-880 758-826.5t85 125Q874-630 874-548v397q0 53-36.5 89.5T748-25H533q-22 0-37.5-15.535t-15.5-38.5Q480-102 495.525-117 511.05-132 534-132h214v-40h-50q-53 0-89.5-36.5T572-298v-114q0-53 36.5-89.5T698-538h50v-10q0-112-78-189.5T480-815q-110 0-189 77.5T212-548v10h50q53 0 89.5 36.5T388-412v114q0 53-36.5 89.5T262-172h-50Zm0-126h50v-114h-50v114Zm486 0h50v-114h-50v114ZM212-412h50-50Zm486 0h50-50Z"/></svg>