<svg xmlns="http://www.w3.org/2000/svg" height="20" viewBox="0 -960 960 960" width="20"><path d="M248-244q-22-2-37-15.5T196-296v-231.835q0-59.728 22-111.946Q240-692 279-730.5q39-38.5 90.539-60 51.54-21.5 110.5-21.5Q539-812 591-790.5t90.5 60Q720-692 742-639.834T764-528v320q0 22-14.65 37T712-156H490q-4.3 0-7.15-2.789-2.85-2.79-2.85-7 0-4.211 2.85-7.211t7.15-3h222q14 0 23-9t9-23v-36h-68q-21.7 0-36.85-15.176Q624-274.352 624-296.088v-88.176Q624-406 639.15-421q15.15-15 36.85-15h68v-92q0-112-77.237-188-77.238-76-186.5-76Q371-792 293.5-716T216-528v92h68q21.7 0 36.85 15.176Q336-405.648 336-383.912v88.176Q336-274 320.85-259 305.7-244 284-244h-36Zm0-20h36q14 0 23-9t9-23v-88q0-14-9-23t-23-9h-68v120q0 14 9 23t23 9Zm428 0h68v-152h-68q-14 0-23 9t-9 23v88q0 14 9 23t23 9ZM248-416h-32 100-68Zm428 0h-32 100-68Z"/></svg>