<svg xmlns="http://www.w3.org/2000/svg" height="20" viewBox="0 -960 960 960" width="20"><path d="M248-244q-22-2-37-15.5T196-296v-231.835q0-59.26 22-111.712Q240-692 279-730.5t90.774-60Q421.547-812 480.039-812q58.493 0 110.727 21.5t90.734 60Q720-692 742-639.6q22 52.4 22 111.6v320q0 22-14.65 37T712-156H490q-4.25 0-7.125-2.825-2.875-2.824-2.875-7 0-4.175 2.875-7.175t7.125-3h222q14 0 23-9t9-23v-36h-68q-21.45 0-36.725-15.301Q624-274.602 624-296.088v-88.176q0-21.486 15.275-36.611Q654.55-436 676-436h68v-92q0-112-77.237-188-77.238-76-186.5-76Q371-792 293.5-716T216-528v92h68q21.45 0 36.725 15.301Q336-405.398 336-383.912v88.176q0 21.486-15.275 36.611Q305.45-244 284-244h-36Z"/></svg>