<svg xmlns="http://www.w3.org/2000/svg" height="20" viewBox="0 -960 960 960" width="20"><path d="m255.153-102.539-31.845-36.076 107.924-132.309-8.462-171.998q-3.077-34.539 2.769-71.078t18.847-72.771l-87.694 42.001v102.769h-51.999V-580.23l151.845-64.384q17.462-8.308 32.693-12.077 15.23-3.77 30.769-3.77 14.923 0 28.153 5.769 13.231 5.77 24.616 18.616l28.769 31.999q35.231 43.693 77.539 76.001 42.308 32.307 90.23 32.307v51.999l-15.846-2L823.46-117.846l-27.153 14.922L614.385-453.77q-43.923-12.769-80.769-40.654-36.847-27.885-66.462-72.732-13.385 38.924-18.616 72.694-5.231 33.769-2.077 64.308l70.384 106.463v221.537h-51.998V-293l-74.924-93.386-6.308 132.923-128.462 150.924Zm224.462-599.615q-32.307 0-55.076-22.769Q401.77-747.693 401.77-780t22.769-55.077q22.769-22.769 55.076-22.769 32.308 0 55.077 22.769 22.769 22.77 22.769 55.077t-22.769 55.077q-22.769 22.769-55.077 22.769Z"/></svg>