<svg xmlns="http://www.w3.org/2000/svg" height="24" viewBox="0 -960 960 960" width="24"><path d="M222.308-73.077 190.615-97.23l127.846-163.615-16.923-173q-6.153-44.077 2.039-99.654t27.192-104.038l-105.384 64V-440h-40.001v-156.462l173.693-103.769q14.923-9.615 27.385-13.154 12.461-3.538 25.538-3.538 17.846 0 31.308 8.538 13.461 8.539 24.231 27.231l32.538 57q28.462 49.385 74.077 76 45.615 26.615 100.461 26.615v40.001h-36.692l189 395.846-27.307 13.846-200.847-420.692q-43.846-14.539-79.038-44.808-35.193-30.269-67.423-82.961-20.769 52.846-29.731 101.884-8.961 49.038-4.654 84.115l79.769 138.923v223.077h-40V-270l-94.846-132.769-3.615 155.846L222.308-73.077Zm236.923-699.231q-27.616 0-47.654-20.038-20.039-20.039-20.039-47.654 0-27.615 20.039-47.654 20.038-20.038 47.654-20.038 27.615 0 47.654 20.038 20.038 20.039 20.038 47.654 0 27.615-20.038 47.654-20.039 20.038-47.654 20.038Z"/></svg>