<svg xmlns="http://www.w3.org/2000/svg" height="20" viewBox="0 -960 960 960" width="20"><path d="M370-512q15-27 44-45.5t66-18.5q49.846 0 84.923 35.109 35.077 35.108 35.077 85Q600-406 564.923-371 529.846-336 480-336q-27 0-49-11t-37-30q-4-1-7-1t-5 4q-2 5 .5 8t5.5 4q19 21 42.5 31.5T480-320q58 0 97-39t39-97q0-58-39-97t-97-39q-44.365 0-75.683 22.5Q373-547 356-520v-60q0-3.4-2.3-5.7-2.3-2.3-5.7-2.3-3.4 0-5.7 2.3-2.3 2.3-2.3 5.7v64.008q0 6.992 6.5 13.492 6.5 6.5 13.492 6.5H424q3.4 0 5.7-2.3 2.3-2.3 2.3-5.7 0-3.4-2.3-5.7-2.3-2.3-5.7-2.3h-54Zm-74.283 364Q273-148 258.5-162.65T244-200v-560q0-22.7 14.65-37.35Q273.3-812 296-812h236q10.222 0 20.111 4Q562-804 570-796l130 130q8 8 12 17.889T716-628v428q0 22.7-14.662 37.35Q686.676-148 663.96-148H295.717Zm.283-20h368q12 0 22-10t10-22v-442L546-792H296q-12 0-22 10t-10 22v560q0 12 10 22t22 10Zm-32 0v-624 624Z"/></svg>