<svg xmlns="http://www.w3.org/2000/svg" height="24" viewBox="0 -960 960 960" width="24"><path d="M345.714-332h286.531Q680-332 714-365.559q34-33.559 34-81.5T714.167-528.5Q680.333-562 632-562q-6-55-48-94t-99-39q-47 0-88 25t-59 70q-54 4-90 42t-36 92q0 55.514 39.159 94.757T345.714-332Zm.286-80q-21 0-37.5-16.5t-16.5-38q0-21.5 16.5-37.5t37.5-16h69v-25q0-30 20-50t49-20q29 0 48.5 20t19.5 50v63h80q14 0 25 10.5t11 24q0 13.5-11 24.5t-25 11H346ZM480-46q-91 0-169.987-34.084-78.988-34.083-137.417-92.512T80.084-310.013Q46-389 46-480t34.084-169.987q34.083-78.988 92.512-137.417t137.417-92.512Q389-914 480-914t169.987 34.084q78.988 34.083 137.417 92.512t92.512 137.417Q914-571 914-480t-34.084 169.987q-34.083 78.988-92.512 137.417T649.987-80.084Q571-46 480-46Zm0-126q130 0 219-89t89-219q0-130-89-219t-219-89q-130 0-219 89t-89 219q0 130 89 219t219 89Zm0-308Z"/></svg>