<svg xmlns="http://www.w3.org/2000/svg" height="20" viewBox="0 -960 960 960" width="20"><path d="M242-342h112v-102h-91.338q-4.662 25-10.218 50.5Q246.889-368 242-342Zm225 80H75q-17 0-28.5-11.5T35-302q0-17 11.5-28.5T75-342h82q6.259-26 11.63-51.5Q174-419 179-444h-54q-17 0-28.5-11.5T85-484q0-17 11.5-28.5T125-524h70q3-18 6-34t5-34h-98q-17 0-28.5-11.5T68-632q0-17 11.5-28.5T108-672h323q17 0 28.5 11.5T471-632q0 17-11.5 28.5T431-592H291.836Q288-574 285.5-558q-2.5 16-6.5 34l95-1q24.3 0 41.65 17.35Q433-490.3 433-466v124h34q17 0 28.5 11.5T507-302q0 17-11.5 28.5T467-262Zm243-90q20.037 0 44.019-12Q778-376 801-397v-75q-19 3-36.393 7.615Q747.214-459.769 731-454q-35 12-50.5 26.5T665-393.519Q665-375 678-363.5t32 11.5Zm-26 84q-52 0-85-31.157T566-384q0-52.678 34.5-87.339T704-526q20.209-6.3 42.459-10.55Q768.709-540.8 800-545q-3-34-18.5-50T735-611q-16.967 0-35.484 4.5Q681-602 661-589q-16.733 9-33.944 5-17.212-4-26.056-19-11-17-6.078-36 4.921-19 21.686-29Q650-687 685-696q35-9 65-9 72 0 110.5 46.5T899-525v207q0 17.303-11.882 29.152Q875.235-277 857.882-277h-7.411Q835-277 823.5-286T810-311l-1-7q-28 25-61 37.5T684-268Z"/></svg>