<svg xmlns="http://www.w3.org/2000/svg" height="24" viewBox="0 -960 960 960" width="24"><path d="M453.001-286.783h247.215q22.088 0 37.544-15.457 15.457-15.456 15.457-37.544v-133.998q0-22.088-15.457-37.544-15.456-15.457-37.544-15.457H453.001q-22.088 0-37.544 15.457Q400-495.87 400-473.782v133.998q0 22.088 15.457 37.544 15.456 15.457 37.544 15.457ZM166.783-140.782q-44.305 0-75.153-30.848-30.848-30.848-30.848-75.153v-466.434q0-44.305 30.848-75.153 30.848-30.848 75.153-30.848h626.434q44.305 0 75.153 30.848 30.848 30.848 30.848 75.153v466.434q0 44.305-30.848 75.153-30.848 30.848-75.153 30.848H166.783Z"/></svg>