<svg xmlns="http://www.w3.org/2000/svg" height="20" viewBox="0 -960 960 960" width="20"><path d="M188.001-408q0-90.076 69.5-191.537Q327.001-700.999 480-837.844q117.076 108.153 184.153 190.538 67.077 82.384 91.769 151.384h-56.076q-22.846-52.154-76-117.77Q570.693-679.307 480-769 348-638 294-557t-54 149q0 100 70 170t170 70q7.539 0 14.577-.192 7.039-.193 14.577-1.193v52.384q-7.538 1-14.577 1H480q-121.437 0-206.718-85.268Q188.001-286.537 188.001-408Zm276.153-56Zm141.923 354.922-13.307-31.23q-5.616-13.615-8.616-26.98t-3-26.712q0-19.609 5.693-37.728 5.692-18.118 12.478-36.118 6.829-17 12.329-35.374 5.5-18.374 5.5-36.78 0-9.805-2-20.056-2-10.252-6.384-18.637l-13.308-31.23 32.461-13.999 14.307 31.615q5.616 12.615 8.116 26.538t2.5 26.769q0 19.603-5.693 37.725-5.692 18.121-12.478 36.121-6.829 17-11.829 34.878-5 17.877-5 37.276 0 10.788 1.5 20.548 1.5 9.76 5.884 18.145l14.692 31.23-33.845 13.999Zm108 0-13.307-31.23q-5.616-13.615-8.616-26.98t-3-26.712q0-19.609 5.693-37.728 5.692-18.118 12.478-36.118 6.829-17 12.329-35.374 5.5-18.374 5.5-36.78 0-9.805-2-20.056-2-10.252-6.384-18.637l-13.308-31.23 32.461-13.999 14.307 31.615q5.616 12.615 8.116 26.538t2.5 26.769q0 19.231-5.308 37.346-5.308 18.115-11.923 35.346-7.308 17.617-12.539 35.77-5.23 18.153-5.23 37.538 0 10.788 1.5 20.548 1.5 9.76 5.884 18.145l14.692 31.23-33.845 13.999Zm108 0-13.307-31.23q-5.616-13.615-8.616-26.98t-3-26.712q0-19.609 5.693-37.728 5.692-18.118 12.478-36.118 6.829-17 12.329-35.374 5.5-18.374 5.5-36.78 0-9.805-2-20.056-2-10.252-6.384-18.637l-13.308-31.23 32.461-13.999 14.307 31.615q6 12.615 8.308 26.038T868.846-340q0 19.303-5.308 37.122t-11.923 35.185q-7.308 17.755-12.539 36.532-5.23 18.776-5.23 38.161 0 10.788 1.5 20.548 1.5 9.76 5.884 18.145l14.692 31.23-33.845 13.999Z"/></svg>