<svg xmlns="http://www.w3.org/2000/svg" height="24" viewBox="0 -960 960 960" width="24"><path d="M583.521-53.652 564.26-96.174q-8-17.565-11.782-36.913-3.783-19.348-3.783-38.913 0-23.13 5.565-45.478 5.566-22.348 16.131-43.479 8-15.869 13.152-32.521 5.152-16.652 5.152-34.522 0-14.435-3.217-27.87-3.218-13.434-9.218-26.869l-16.261-35.087 65.175-28.522 19.261 41.652q8 18.131 11.782 37.413Q660-348 660-328q0 22.565-5.283 44.413-5.282 21.848-15.282 42.413-8 16.435-13.718 33.587Q620-190.435 620-172q0 13.435 3 26.37 3 12.934 8.435 25.369l17.261 38.087-65.175 28.522Zm125.653 0-19.261-42.522q-8-17.565-11.783-36.913-3.782-19.348-3.782-38.913 0-23.13 5.565-45.478 5.565-22.348 16.13-43.479 8-15.869 13.152-32.521 5.153-16.652 5.153-34.522 0-14.435-3.218-27.87-3.217-13.434-9.217-26.869l-16.261-35.087 65.174-28.522 19.261 41.652q8 18.566 11.783 37.631Q785.652-348 785.652-328q0 22.565-5.282 44.413-5.283 21.848-15.283 42.413-8 16.435-13.717 33.587-5.718 17.152-5.718 35.587 0 13.435 3 26.37 3 12.934 8.435 25.369l17.261 38.087-65.174 28.522Zm125.652 0-19.261-42.522q-8-17.565-11.782-36.913Q800-152.435 800-172q0-23.13 5.565-45.478 5.565-22.348 16.131-43.479 8-15.869 13.152-32.521Q840-310.13 840-328q0-14.435-3.217-27.87-3.218-13.434-9.218-26.869l-16.261-35.087 65.175-28.522 19.261 41.652q8 18.131 11.782 37.413Q911.305-348 911.305-328q0 22.565-5.283 44.63-5.282 22.066-15.282 42.631-8 16.435-13.718 33.369-5.717 16.935-5.717 35.37 0 13.435 3 26.37 3 12.934 8.435 25.369l17.261 38.087-65.175 28.522ZM140.782-408q0-104.522 84.022-227.957Q308.826-759.392 480-904.871q124.783 106.218 202.805 200.175 78.022 93.956 111.718 178.348H574.696q-44.305 0-75.153 30.848-30.848 30.848-30.848 75.153v359Q327.738-65.869 234.26-164.39 140.782-262.913 140.782-408Z"/></svg>