<svg xmlns="http://www.w3.org/2000/svg" height="20" viewBox="0 -960 960 960" width="20"><path d="M220-408q0-79 61.5-170T480-796q106 102 166 177t81 136h-21q-21-54-76-123T480-769Q348-638 294-557t-54 149q0 100 70 170t170 70q10 0 19.5-.5T519-170v21q-10 1-19.5 1H480q-107.737 0-183.869-76.098Q220-300.195 220-408Zm238-48Zm153 334-9-22q-5-13-8-25.348-3-12.348-3-24.652 0-18.985 6-36.492Q603-248 609.444-266 616-283 621.5-301.972 627-320.944 627-340q0-11.093-2-22.547Q623-374 618-383l-9-22 14-6 10 23q5 12 7.5 25t2.5 24q0 18.969-6 36.484Q631-285 624.556-267 618-250 613-231.518q-5 18.482-5 38.518 0 12.049 1.5 23.024Q611-159 616-150l11 22-16 6Zm108 0-9-22q-5-13-8-25.348-3-12.348-3-24.652 0-18.985 6-36.492Q711-248 717.444-266 724-283 729.5-301.972 735-320.944 735-340q0-11.093-2-22.547Q731-374 726-383l-9-22 14-6 10 23q5 12 7.5 25t2.5 24q0 18-5 35.5T735-270q-7.8 18.604-13.4 37.802Q716-213 716-193q0 12.049 1.5 23.024Q719-159 724-150l11 22-16 6Zm108 0-9-22q-5-13-8-25.348-3-12.348-3-24.652 0-18.985 6-36.492Q819-248 825.444-266 832-283 837.5-301.972 843-320.944 843-340q0-11.093-2-22.547Q839-374 834-383l-9-22 14-6 10 23q6 12 8 24.5t2 23.5q0 18.188-5 34.918-5 16.729-11 33.082-7.8 18.962-13.4 38.981Q824-213 824-193q0 12.049 1.5 23.024Q827-159 832-150l11 22-16 6Z"/></svg>