<svg xmlns="http://www.w3.org/2000/svg" height="20" viewBox="0 -960 960 960" width="20"><path d="m606.077-109.078-13.307-31.23q-5.616-13.615-8.616-27.038t-3-26.654q0-19.615 5.693-37.731 5.692-18.115 12.307-36.115 7-17 12.5-35.385 5.5-18.384 5.5-36.769 0-9.769-2-20.039-2-10.269-6.384-18.654l-13.308-31.23 32.461-13.999 14.307 31.615q5.616 12.615 8.116 26.538t2.5 26.769q0 19.615-5.693 37.731-5.692 18.115-12.307 36.115-7 17-12 34.885-5 17.884-5 37.269 0 10.769 1.5 20.539 1.5 9.769 5.884 18.154l14.692 31.23-33.845 13.999Zm108 0-13.307-31.23q-5.616-13.615-8.616-27.038t-3-26.654q0-19.615 5.693-37.731 5.692-18.115 12.307-36.115 7-17 12.5-35.385 5.5-18.384 5.5-36.769 0-9.769-2-20.039-2-10.269-6.384-18.654l-13.308-31.23 32.461-13.999 14.307 31.615q5.616 12.615 8.116 26.538t2.5 26.769q0 19.231-5.308 37.346-5.308 18.115-11.923 35.346-7.385 17.769-12.577 35.846-5.192 18.077-5.192 37.462 0 10.769 1.5 20.539 1.5 9.769 5.884 18.154l14.692 31.23-33.845 13.999Zm108 0-13.307-31.23q-5.616-13.615-8.616-27.038t-3-26.654q0-19.615 5.693-37.731 5.692-18.115 12.307-36.115 7-17 12.5-35.385 5.5-18.384 5.5-36.769 0-9.769-2-20.039-2-10.269-6.384-18.654l-13.308-31.23 32.461-13.999 14.307 31.615q6 12.615 8.308 26.038T868.846-340q0 19.231-5.308 37.154-5.308 17.923-11.923 35.153-7.385 17.77-12.577 36.539-5.192 18.769-5.192 38.154 0 10.769 1.5 20.539 1.5 9.769 5.884 18.154l14.692 31.23-33.845 13.999ZM188.001-408q0-90.076 69.5-191.537Q327.001-700.999 480-837.844q117.076 108.153 184.153 190.538 67.077 82.384 91.769 151.384H573.461q-26.922 0-45.615 18.692-18.692 18.692-18.692 45.615v314.614q-7.538 1-14.577 1H480q-121.538 0-206.768-85.231-85.231-85.23-85.231-206.768Z"/></svg>