<svg xmlns="http://www.w3.org/2000/svg" height="20" viewBox="0 -960 960 960" width="20"><path d="m246.173-242.522 37.435-81q9.696-23.391 30.804-36.435 21.109-13.044 46.066-13.044h70.521v-133.52q-153.652-6.695-253.087-44.152t-99.435-92.805q0-62.044 115.109-99.783 115.109-37.74 286.414-37.74 170.74 0 286.131 37.74 115.392 37.739 115.392 99.783 0 55.348-99.935 92.805-99.935 37.457-252.587 44.152v133.52h70.521q24.957 0 46.348 13.044 21.392 13.044 30.522 36.435l37.435 81q10.261 22.218-2.631 42.87-12.891 20.653-38.674 20.653-12.957 0-24.631-7.544t-16.804-18.935l-35.609-69.521H364.522l-35.609 69.521q-5.13 11.391-16.522 18.935-11.391 7.544-25.913 7.544-24.783 0-37.674-20.153-12.892-20.152-2.631-43.37Z"/></svg>