<svg xmlns="http://www.w3.org/2000/svg" height="20" viewBox="0 -960 960 960" width="20"><path d="m282-252.615 41.077-89.462q4.154-8.461 11.538-12.808 7.385-4.346 18.077-4.346H464v-199.538q-131.846-2.692-221.077-27.731-89.231-25.038-89.231-61.5 0-40.692 94.308-64.577 94.308-23.885 232-23.885 136.923 0 231.616 23.885 94.692 23.885 94.692 64.577 0 37.231-90.115 61.885Q626.077-561.461 496-558.769v199.538h111.308q11.461 0 18.461 4.346 7 4.347 11.154 12.808L678-252.615q4.154 7.538.423 14.461t-13.5 6.923q-4.385 0-7.769-2.307-3.385-2.308-5.077-4.923l-42.846-88.77H350.769l-43.615 88.77q-1.692 2.615-4.692 4.923-3 2.307-8.385 2.307-8.769 0-12.5-6.423t.423-14.961Zm198-338.924q102.769 0 183.654-17.076Q744.538-625.692 763.769-648q-19.231-23.308-100.115-39.885Q582.769-704.461 480-704.461q-103.769 0-184.154 16.576-80.384 16.577-99.615 39.885 19.231 22.308 99.615 39.385Q376.231-591.539 480-591.539ZM480-642Z"/></svg>