<svg xmlns="http://www.w3.org/2000/svg" height="24" viewBox="0 -960 960 960" width="24"><path d="M695.385-277.231v-93.538q0-6.462-4.462-10.923-4.461-4.462-10.923-4.462t-10.923 4.462q-4.462 4.461-4.462 10.923v93.308q0 6.461 2.231 12.038t7.462 10.808l60.769 60.769q4.461 4.462 10.538 4.846 6.077.385 11.308-4.846t5.231-10.923q0-5.692-5.231-10.923l-61.538-61.539ZM447.692-827.462q15.154-8.692 32.308-8.692t32.308 8.692l255.385 147.154q15.153 8.692 23.73 23.616Q800-641.769 800-624.385v112.078q-27.077-14-57.577-21.616-30.5-7.615-63.192-7.615-17.769 0-34.808 1.884-17.038 1.885-33.808 6.654L760-619.077v-9.692q0-3.846-1.923-7.693-1.923-3.846-5.769-6.153L737-651.462 480-502.923 223-651.462l-15.308 8.847q-3.846 2.307-5.769 6.153-1.923 3.847-1.923 7.693v9.692l260 150.539v39.923q-24.385 33.538-37.577 73-13.192 39.461-13.192 84.077 0 38.154 9.961 73.077 9.962 34.923 27.885 65.615-.231-.231-.462-.231-.23 0-.461-.23L192.307-279.692q-15.153-8.692-23.73-23.616Q160-318.231 160-335.615v-288.77q0-17.384 8.577-32.307 8.577-14.924 23.73-23.616l255.385-147.154ZM680-110.769q-66.846 0-113.423-46.577T520-270.769q0-66.846 46.577-113.423T680-430.769q66.846 0 113.423 46.577T840-270.769q0 66.846-46.577 113.423T680-110.769Z"/></svg>