<svg xmlns="http://www.w3.org/2000/svg" height="24" viewBox="0 -960 960 960" width="24"><path d="M244.522-200q-44.913 0-78.217-29.348-33.304-29.347-39.522-73.129-41.479 0-70.631-29.153-29.153-29.152-29.153-70.631v-269.26q0-44.305 30.848-75.153 30.849-30.849 75.154-30.849h506.086q21.225 0 40.46 7.979 19.236 7.978 34.193 22.935l188.347 188.913q14.957 14.956 22.935 34.192 7.979 19.235 7.979 40.461v80.782q0 41.479-29.153 70.631-29.152 29.153-70.631 29.153-6.218 43.782-39.522 73.129Q760.391-200 715.478-200t-77.934-29.348q-33.022-29.347-39.24-73.129H361.696q-6.218 43.782-39.24 73.129Q289.435-200 244.522-200Zm350.956-360h150.391L634.913-671.521h-39.435V-560Zm-230.956 0h150.956v-111.521H364.522V-560Zm-231.521 0h151.521v-111.521H133.001V-560Zm111.521 290q21 0 35.5-14.5t14.5-35.5q0-21-14.5-35.5t-35.5-14.5q-21 0-35.5 14.5t-14.5 35.5q0 21 14.5 35.5t35.5 14.5Zm470.956 0q21 0 35.5-14.5t14.5-35.5q0-21-14.5-35.5t-35.5-14.5q-21 0-35.5 14.5t-14.5 35.5q0 21 14.5 35.5t35.5 14.5ZM332.522-400h294.956q17-18 39-29t49-11q27 0 49 11t39 29h23.521v-80H133.001v80h23.521q17-18 39-29t49-11q27 0 49 11t39 29Zm494.477-80H133.001h693.998Z"/></svg>