<svg xmlns="http://www.w3.org/2000/svg" height="20" viewBox="0 -960 960 960" width="20"><path d="M278.615-264.307q-36.538 0-62.115-25.577-25.577-25.577-25.577-62.116h-36.308q-23.354 0-39.985-16.631Q98-385.261 98-408.615V-647.07q0-23.861 16.63-40.396Q131.261-704 154.615-704h468.154q10.706 0 20.408 3.595 9.702 3.595 18.488 12.224l182.209 171.439q9.665 8.896 13.896 19.554Q862-486.53 862-474.769v66.154q0 23.354-16.63 39.984Q828.739-352 805.385-352h-24q0 36.539-25.577 62.116-25.577 25.577-62.116 25.577-36.538 0-62.115-25.577Q606-315.461 606-352H366.308q0 36.154-25.577 61.923-25.577 25.77-62.116 25.77ZM522-528.923h268.461L645.077-665.077q-3.846-3.077-8.077-5T628.154-672H522v143.077Zm-196 0h164V-672H326v143.077Zm-196 0h164V-672H154.615q-10.769 0-17.692 6.923T130-647.385v118.462ZM278.503-304q20.112 0 34.112-13.887 14-13.887 14-34T312.728-386q-13.887-14-34-14t-34.113 13.888q-14 13.887-14 34 0 20.112 13.888 34.112 13.887 14 34 14Zm415.077 0q20.112 0 34.112-13.887 14-13.887 14-34T727.805-386q-13.887-14-34-14t-34.113 13.888q-14 13.887-14 34 0 20.112 13.888 34.112 13.887 14 34 14Zm-329.734-80h244.615q8.539-23 32.385-39.346 23.846-16.346 52.846-16.346 29 0 51.193 15.192 22.192 15.192 34.038 40.5h26.462q10.769 0 17.692-6.923T830-408.615v-88.308H130v88.308q0 10.769 6.923 17.692T154.615-384h38.769q9.539-23 32.885-39.346 23.346-16.346 52.346-16.346 29 0 51.693 15.192Q353-409.308 363.846-384ZM830-496.923H130h700Z"/></svg>