<svg xmlns="http://www.w3.org/2000/svg" height="20" viewBox="0 -960 960 960" width="20"><path d="M324-290.826h312q15.3 0 25.65-10.29 10.35-10.289 10.35-25.5 0-15.21-10.35-25.71t-25.65-10.5H324q-15.3 0-25.65 10.289-10.35 10.29-10.35 25.5 0 15.211 10.35 25.711 10.35 10.5 25.65 10.5ZM444-546l-32-32q-11-11-25.667-11-14.666 0-25.333 11-11 11-11 25.5t11 25.5l84.529 84.529q15.024 14.819 34.756 14.819 19.731 0 34.324-14.957L599-527q11-11 11-25.5T599-578q-11-11-25.5-11T548-578l-32 32v-113.855q0-15.362-10.289-25.753Q495.421-696 480.211-696 465-696 454.5-685.608 444-675.217 444-659.855V-546Zm36.276 469.218q-83.798 0-157.182-31.46-73.385-31.46-128.388-86.464-55.004-55.003-86.464-128.346t-31.46-157.406q0-84.064 31.46-156.948 31.46-72.885 86.464-127.888 55.003-55.004 128.346-86.464t157.406-31.46q84.064 0 156.948 31.46 72.885 31.46 127.888 86.464 55.004 55.003 86.464 128.112t31.46 156.906q0 83.798-31.46 157.182-31.46 73.385-86.464 128.388-55.003 55.004-128.112 86.464t-156.906 31.46Z"/></svg>