<svg xmlns="http://www.w3.org/2000/svg" height="20" viewBox="0 -960 960 960" width="20"><path d="M276.769-440.692h116l25.616 69.538q2 5.462 5.192 8.308t9.654 2.846q8.923 0 14.884-7.808 5.962-7.807 1.731-16.5l-98.461-256.153q-1.462-2.385-4.77-4.962-3.307-2.577-6.692-2.577h-8.769q-3.385 0-6.693 2.077-3.307 2.077-4.769 5.462l-99.231 257.922q-3.461 7.924 1.231 15.231Q226.385-360 235.308-360q5.692 0 10.269-2.962 4.577-2.961 6.577-8.423l24.615-69.307Zm11.923-30.693L333.769-595h2l45.077 123.615h-92.154ZM334.769-244q-98.077 0-167.038-68.961Q98.769-381.923 98.769-480q0-98.077 68.962-167.039Q236.692-716 334.769-716q75.539 0 135.962 42.423 60.423 42.423 81.577 116.346l-30.385-68.461q-2.231-8.693 2.846-15.5 5.077-6.808 14.77-6.808 6.461 0 10.654 4.231 4.192 4.231 6.192 9.923l49.846 211.231h3L669-636.077q2-5.461 6.462-8.692 4.461-3.231 9.923-3.231h9.923q6.461 0 10.423 3.731 3.962 3.731 5.962 9.192l56.769 212.462h.461l49.846-211.231q2-5.692 6.962-9.923T837.154-648q9.692 0 15.154 7.192 5.462 7.193 3.231 15.885l-63 251.769q-2 5.692-6.962 9.423Q780.616-360 774.923-360H765q-5.692 0-9.769-3.346t-6.077-9.808l-57.538-218.231h-3l-62.077 220q-2 4.693-5.693 8.039-3.692 3.346-9.384 3.346h-8.923q-5.693 0-9.654-2.962-3.962-2.961-5.193-8.653l-26.538-103.462q2 93.616-63.116 162.347Q432.923-244 334.769-244Z"/></svg>