<svg xmlns="http://www.w3.org/2000/svg" height="24" viewBox="0 -960 960 960" width="24"><path d="M264.739-430.304h108.609l18.739 56.434q2.565 8.696 9.413 13.827 6.848 5.13 16.109 5.13 14.261 0 22.174-11.196 7.913-11.195 3.347-24.456l-79.651-235.696q-3.566-10.261-12.109-16.239-8.544-5.979-19.37-5.979h-21.957q-10.826 0-19.37 5.979-8.543 5.978-12.108 16.239l-82.478 236.826q-4.566 12.696 3.347 23.609 7.914 10.913 21.609 10.913 9.131 0 15.761-4.848 6.631-4.848 9.196-13.543l18.739-57Zm14-45.087 39.435-121.088h4l38.304 121.088h-81.739Zm43.131 292.914q-124.349 0-210.936-86.588Q24.347-355.652 24.347-480t86.587-210.935q86.587-86.588 210.936-86.588 81.956 0 151.348 43.674 69.391 43.675 104.826 119.458h-25.74q-3.566-12.696 4.847-23.392 8.414-10.696 21.675-10.696 9.695 0 16.826 5.348 7.13 5.348 9.13 15.044l44.566 197.174h2l51.173-195.217q2.566-9.827 10.327-16.088 7.761-6.261 18.152-6.261h15.957q10.391 0 18.152 6.261 7.761 6.261 10.326 16.088l51.739 195.217h2.87l44.565-197.174q2-9.696 9.131-15.044 7.13-5.348 16.826-5.348 13.261 0 21.674 10.696t4.848 23.392l-60.87 237.261q-2.565 10.26-10.326 16.239-7.761 5.978-18.587 5.978h-15.957q-10.826 0-18.804-6.478-7.979-6.479-10.544-16.305l-52.739-200.783h-2l-51.304 200.783q-2.566 10.261-10.827 16.522-8.26 6.261-19.087 6.261h-15.522q-10.826 0-18.804-6.196-7.979-6.195-10.544-16.456l-10.999-44.737q-14.697 103.13-93.588 171.477-78.891 68.348-184.716 68.348Z"/></svg>