<svg xmlns="http://www.w3.org/2000/svg" height="24" viewBox="0 -960 960 960" width="24"><path d="M480-100.782q-68.826 0-121.479-46.434-52.652-46.435-60-113.566h-91.738q-44.305 0-75.153-30.848-30.848-30.848-30.848-75.153 0-142.261 93.978-246.022t232.239-122.718v-76.347q0-22.087 15.457-37.544 15.457-15.457 37.544-15.457 22.087 0 37.544 15.457 15.457 15.457 15.457 37.544v76.347q138.261 18.957 232.239 122.718 93.978 103.761 93.978 246.022 0 44.305-30.848 75.153-30.848 30.848-75.153 30.848h-91.738q-7.348 67.131-60 113.566Q548.826-100.782 480-100.782ZM206.783-366.783h546.434q0-110.347-79.739-188.391Q593.739-633.217 480-633.217t-193.478 78.043q-79.739 78.044-79.739 188.391Z"/></svg>