<svg xmlns="http://www.w3.org/2000/svg" height="24" viewBox="0 -960 960 960" width="24"><path d="M380-510v230q0 17 11.5 28.5T420-240q17 0 28.5-11.5T460-280v-230.478q0-9.345-2.065-18.689-2.065-9.345-6.196-17.355L393.435-662q-7.937-15-23.316-20.5-15.378-5.5-30.26 2.5-14.883 8-20.371 23.5Q314-641 322-626l58 116Zm200-.435 58-116.13q7.565-15 2.283-30.218Q635-672 620-680q-15-8-30.5-2.5T566-662l-57.739 115.043q-4.131 8.01-6.196 17.355Q500-520.258 500-510.913V-280q0 17 11.5 28.5T540-240q17 0 28.5-11.5T580-280v-230.435ZM640-440q15 8 30.5 2.5T694-458l44-88q8-15 2.5-30.5T720-600q-15-8-30.5-2.5T666-582l-44 88.483q-8 15.082-2.5 30.3Q625-448 640-440Zm-320 0q15-8 20.5-23.5T338-494l-44-88q-8-15-23.5-20.5T240-600q-15 8-20.5 23.5T222-546l44 88q8 15 23.5 20.5T320-440ZM480-60.782q-87.522 0-163.906-32.96-76.385-32.96-132.888-89.464-56.504-56.503-89.464-132.888Q60.782-392.478 60.782-480t32.96-163.906q32.96-76.385 89.464-132.888 56.503-56.504 132.888-89.464 76.384-32.96 163.906-32.96t163.906 32.96q76.385 32.96 132.888 89.464 56.504 56.503 89.464 132.888 32.96 76.384 32.96 163.906t-32.96 163.906q-32.96 76.385-89.464 132.888-56.503 56.504-132.888 89.464Q567.522-60.782 480-60.782Z"/></svg>