<svg xmlns="http://www.w3.org/2000/svg" height="24" viewBox="0 -960 960 960" width="24"><path d="M380-504.348v218.696q0 17 11.5 28.5t28.5 11.5q17 0 28.5-11.5t11.5-28.5v-219.174q0-9.344-2.065-18.689t-6.196-17.355L393-656.348q-8-15-23-20.5t-30 2.5q-15 8-20.5 23.5t2.5 30.5l58 116Zm200 0 58-117q8-15 2.5-30t-20.5-23q-15-8-30.5-2.5t-23.5 20.5L508.261-540.87q-4.131 8.01-6.196 17.355Q500-514.17 500-504.826v219.174q0 17 11.5 28.5t28.5 11.5q17 0 28.5-11.5t11.5-28.5v-218.696Zm60 70q15 8 30.5 2.5t23.5-20.5l44-88q8-15 2.5-30.5t-20.5-23.5q-15-8-30.5-2.5t-23.5 20.5l-44 89q-8 15-2.5 30t20.5 23Zm-320 0q15-8 20.5-23.5t-2.5-30.5l-44-88q-8-15-23.5-20.5t-30.5 2.5q-15 8-20.5 23.5t2.5 30.5l44 88q8 15 23.5 20.5t30.5-2.5ZM480-60.782q-87.522 0-163.906-32.96-76.385-32.96-132.888-89.464-56.504-56.503-89.464-132.888Q60.782-392.478 60.782-480t32.96-163.906q32.96-76.385 89.464-132.888 56.503-56.504 132.888-89.464 76.384-32.96 163.906-32.96t163.906 32.96q76.385 32.96 132.888 89.464 56.504 56.503 89.464 132.888 32.96 76.384 32.96 163.906t-32.96 163.906q-32.96 76.385-89.464 132.888-56.503 56.504-132.888 89.464Q567.522-60.782 480-60.782Zm0-106.001q131.739 0 222.478-90.739T793.217-480q0-131.739-90.739-222.478T480-793.217q-131.739 0-222.478 90.739T166.783-480q0 131.739 90.739 222.478T480-166.783ZM480-480Z"/></svg>