<svg xmlns="http://www.w3.org/2000/svg" height="24" viewBox="0 -960 960 960" width="24"><path d="M480-100.001q-78.769 0-148.115-29.962-69.346-29.961-120.653-81.269-51.308-51.307-81.269-120.653Q100.001-401.231 100.001-480q0-126.23 74.693-226.73 74.692-100.5 195.307-137.192v64.46q-94.847 34.692-152.424 116.539Q160-581.077 160-480q0 134 93 227t227 93q134 0 227-93t93-227q0-101.077-57.577-182.923-57.577-81.847-152.424-116.539v-64.46Q710.614-807.23 785.306-706.73q74.693 100.5 74.693 226.73 0 78.769-29.962 148.115-29.961 69.346-81.269 120.653-51.307 51.308-120.653 81.269Q558.769-100.001 480-100.001Zm0-234.231L293.847-520.385 336-562.537l114.001 113.385v-410.462h59.998v410.462L624-562.537l42.153 42.152L480-334.232Z"/></svg>