<svg xmlns="http://www.w3.org/2000/svg" height="20" viewBox="0 -960 960 960" width="20"><path d="M480-136q-70.539 0-133.231-26.923-62.692-26.923-109.808-73.538-47.115-46.616-74.038-109.308Q136-408.461 136-479q0-117.462 71.884-209.462 71.885-92 184.116-123.384v32.923q-99.692 30.385-161.846 113.077Q168-583.154 168-478q0 129 91 219.5T480-168q130 0 221-91t91-220q0-105.154-62.154-187.846Q667.692-749.538 568-778.923v-32.923q112.231 31.384 184.116 123.384Q824-596.462 824-479q0 70.539-26.923 133.231-26.923 62.692-74.038 109.308-47.116 46.615-109.308 73.538Q551.539-136 480-136Zm0-228.461L315.692-528.769 339-552.077l125 125.769v-396.923h32v396.923l125-125.769 23.308 23.308L480-364.461Z"/></svg>