<svg xmlns="http://www.w3.org/2000/svg" height="24" viewBox="0 -960 960 960" width="24"><path d="m214.913-24.522-71.109-46.152 175.413-269.739q-73.435-33.478-119.913-105.446Q152.826-517.826 154.5-605.5h571q1.674 87.674-44.804 159.641-46.478 71.968-119.913 105.446l19.413 30.261q-21.957 9.522-36.772 20.598-14.815 11.076-30.576 29.554l-36.652-56.5q-11.913 2-36.196 2h-17.88q-8.881 0-18.316-2l-74.456 114.587h197.217q13.239-36.239 44.098-58.12 30.859-21.88 69.337-21.88 50.957 0 86.435 35.478T761.913-160q0 50.957-35.478 86.435T640-38.087q-38.478 0-69.337-21.88t-44.098-58.12H275.196l-60.283 93.565ZM640-121.913q16.283 0 27.185-10.902 10.902-10.902 10.902-27.185t-10.902-27.185Q656.283-198.087 640-198.087t-27.185 10.902Q601.913-176.283 601.913-160t10.902 27.185q10.902 10.902 27.185 10.902ZM440-401.674q58.565 0 107.228-31.924t73.902-84.489H258.87q26 52.565 74.282 84.489Q381.435-401.674 440-401.674ZM329.304-647.891q5.239-29-.543-49.24-5.783-20.239-25.587-44.087-21.435-26.478-28.294-51.891-6.858-25.413-1.141-58.37h43.587q-5.239 29.24.783 48.979 6.021 19.739 25.587 43.587 21.956 26.956 28.554 52.25 6.598 25.293.88 58.772h-43.826Zm104.544 0q5.478-29-.044-49.24-5.521-20.239-25.326-44.087-22.195-25.717-29.174-51.01-6.978-25.294-1.261-59.251h43.587q-5.239 29.24.783 48.979T448-758.913q21.196 26.195 28.174 51.489 6.978 25.293 1.261 59.533h-43.587Zm104.304 0q5.478-29-.043-49.24-5.522-20.239-25.326-44.087-22.196-25.717-29.055-51.01-6.858-25.294-1.141-59.251h43.587q-5.239 29.24.663 48.979t25.467 43.587q21.196 26.195 28.294 51.489 7.098 25.293 1.38 59.533h-43.826ZM440-401.674Z"/></svg>