<svg xmlns="http://www.w3.org/2000/svg" height="20" viewBox="0 -960 960 960" width="20"><path d="m215.913-23.522-73.109-49.152 173.413-265.739q-73.435-34.478-119.913-106.946Q149.826-517.826 153.5-607.5h574q3.674 89.674-42.804 162.85-46.478 73.176-119.913 107.237l12.413 20.261q-22.957 8.522-39.772 21.098-16.815 12.576-30.291 31.054l-30.937-47.5q-11.913 2-36.196 2h-17.88q-8.881 0-18.316-2l-68.456 105.587h188.217q14.239-36.239 45.516-58.12 31.276-21.88 70.275-21.88 51.642 0 87.599 35.788 35.958 35.788 35.958 87.935 0 52.147-35.958 88.125-35.957 35.978-87.599 35.978-38.999 0-70.275-21.88-31.277-21.88-45.516-58.12H278.196l-62.283 95.565Zm422.982-103.391q15.388 0 25.79-10.297t10.402-25.685q0-15.388-10.297-25.79t-25.685-10.402q-15.388 0-25.79 10.297t-10.402 25.685q0 15.388 10.297 25.79t25.685 10.402Zm-198.62-273.761q58.29 0 106.453-31.424 48.163-31.424 72.402-83.989H261.87q24 52.565 72.057 83.989 48.058 31.424 106.348 31.424ZM323.304-649.891q5.239-28-.543-47.805-5.783-19.804-25.587-43.087-21.435-25.913-27.794-51.326-6.358-25.413-.391-59.37h45.337q-5.239 29.24.283 48.479 5.521 19.239 25.087 42.89 21.956 26.759 28.554 51.875 6.598 25.115.88 58.344h-45.826Zm109.544 0q5.478-29-.044-48.634-5.521-19.633-25.326-42.693-21.195-24.717-28.174-50.01-6.978-25.294-2.261-60.251h45.587q-4.239 29.24 1.283 48.979T449-759.933q21.196 25.215 28.174 51.009 6.978 25.793 1.011 59.033h-45.337Zm109.304 0q5.478-29-.043-48.634-5.522-19.633-25.326-42.693-21.196-24.717-28.555-50.01-7.358-25.294-1.391-60.251h45.337q-5.239 29.24.663 48.545 5.902 19.306 25.467 42.576 21.196 25.64 28.294 51.434 7.098 25.793 1.13 59.033h-45.576ZM440-400.674Z"/></svg>