<svg xmlns="http://www.w3.org/2000/svg" height="20" viewBox="0 -960 960 960" width="20"><path d="m197.846-320 113.846 113.846q4.847 4.846 5.616 11.269.769 6.424-4.846 12.517-5.616 5.907-11.654 5.522-6.039-.385-11.654-6L155.615-316.385q-4.231-4.63-6.346-9.392-2.115-4.761-2.115-10.423t2.115-10.423q2.115-4.762 6.346-8.992l133.681-133.681q5.473-5.473 11.678-5.858 6.205-.385 11.488 6 5.615 5.282 5.615 11.103 0 5.82-5.615 11.436L197.846-352H760q6.839 0 11.419 4.52Q776-342.96 776-336.211q0 6.75-4.581 11.48Q766.839-320 760-320H197.846Zm564.308-288H200q-6.839 0-11.419-4.52Q184-617.04 184-623.789q0-6.75 4.581-11.48Q193.161-640 200-640h562.154L648.308-753.846q-4.847-4.846-5.616-11.269-.769-6.424 4.846-12.517 5.616-5.907 11.654-5.522 6.039.385 11.654 6l133.539 133.539q4.231 4.63 6.346 9.392 2.115 4.761 2.115 10.423t-2.115 10.423q-2.115 4.762-6.346 8.992L670.704-470.704q-5.473 5.473-11.012 5.358-5.538-.115-11.154-6.022-5.615-6.093-5.615-11.914t5.615-11.103L762.154-608Z"/></svg>