<svg xmlns="http://www.w3.org/2000/svg" height="20" viewBox="0 -960 960 960" width="20"><path d="M240-129q-26.775 0-44.887-18.113Q177-165.225 177-192v-9h-12q-21 11-28.5-4.5T129-237v-147q0-26.775 18.113-44.888Q165.225-447 192-447h21v-225q2-67 47.5-113t111.783-46q66.283 0 112.5 46T531-672v384q0 23.513 16.637 40.256 16.637 16.744 40 16.744t39.863-16.594Q644-264.188 645-288v-225h-21q-26.35 0-44.175-18.312Q562-549.625 561-576v-147q0-16 7.5-31.5T597-759h12v-9q0-26.775 18.112-44.888Q645.225-831 672-831h48q26.775 0 44.888 18.112Q783-794.775 783-768v9h12q21-11 28.5 4.5T831-723v147q0 26.775-18.112 44.888Q794.775-513 768-513h-21v225q-2 67-47.5 113t-111.783 46q-66.283 0-112.5-46T429-288v-384q0-23.513-16.637-40.256-16.637-16.744-40-16.744T332.5-712.406Q316-695.812 315-672v225h21q26.35 0 44.175 18.312Q398-410.375 399-384v147q0 16-7.5 31.5T363-201h-12v9q0 26.775-18.112 44.887Q314.775-129 288-129h-48Z"/></svg>