<svg xmlns="http://www.w3.org/2000/svg" height="20" viewBox="0 -960 960 960" width="20"><path d="M479.703-113.477q-37.051 0-63.138-26.384-26.088-26.385-26.088-63.436t26.385-63.138q26.385-26.087 63.435-26.087 37.051 0 63.138 26.385 26.088 26.384 26.088 63.435t-26.385 63.138q-26.385 26.087-63.435 26.087Zm.367-275.045q-33.461 0-57.005-23.657-23.544-23.657-23.544-56.877V-761.8q0-33.22 23.474-56.711 23.473-23.49 56.935-23.49 33.461 0 57.005 23.657 23.544 23.656 23.544 56.877v292.743q0 33.221-23.474 56.711-23.473 23.491-56.935 23.491Z"/></svg>