<svg xmlns="http://www.w3.org/2000/svg" height="20" viewBox="0 -960 960 960" width="20"><path d="M168.769-300.693 40.847-430.385l34.692-37.691q77.615-79.077 181.577-124.5Q361.077-637.999 480-637.999q117.923 0 221.884 45.423 103.962 45.423 181.192 124.5l36.077 37.691-127.922 129.692-157.23-111.923v-148.308q-38.847-12.923-77.039-19-38.193-6.077-76.962-6.077-38.769 0-76.962 6.077-38.192 6.077-77.039 19v148.308l-157.23 111.923Zm105.232-242.693q-46.078 21.077-87.386 50.001-41.308 28.923-73.462 62.385l62.078 62.078 98.77-70.693v-103.771Zm411.998-.769v103.771l98.77 71.462L847.616-431q-34.846-33.846-75-62.578-40.155-28.731-86.617-50.577Zm-411.998.769Zm411.998-.769Z"/></svg>