<svg xmlns="http://www.w3.org/2000/svg" height="20" viewBox="0 -960 960 960" width="20"><path d="M480.409-136q-70.948 0-133.685-26.839-62.737-26.84-109.865-73.922-47.127-47.082-73.993-109.716Q136-409.111 136-480.325q0-71.214 26.839-133.451 26.84-62.237 73.922-109.365 47.082-47.127 109.716-73.993Q409.111-824 480.325-824q71.214 0 133.451 26.839 62.237 26.84 109.365 73.922 47.127 47.082 73.993 109.482Q824-551.357 824-480.409q0 70.948-26.839 133.685-26.84 62.737-73.922 109.865-47.082 47.127-109.482 73.993Q551.357-136 480.409-136ZM468-168l-26-35q-5-6.214-7.5-13.464T432-232v-200.03q-29.7 0-50.85-20.985Q360-474 360-504v-48L237-675q-32 41-50.5 90.199-18.5 49.198-18.5 105.02Q168-353 255-263t213 95Zm36-1q121-9 204.5-98T792-480q0-129.675-91.162-220.838Q609.675-792 480-792q-47 0-89.5 13T312-743v71h143q17 0 31.625 7.2T511-645l54.552 69H624q20.4 0 34.2 13.8Q672-548.4 672-528v33q0 7.56-2 14.28T663-468L504-240v71Z"/></svg>