<svg xmlns="http://www.w3.org/2000/svg" height="24" viewBox="0 -960 960 960" width="24"><path d="M153-212q-8.75 0-14.875-6.176-6.125-6.177-6.125-15Q132-242 138.125-248T153-254h59v-434q0-24.75 17.625-42.375T272-748h502q5.95 0 9.975 4.035 4.025 4.035 4.025 10T783.975-724q-4.025 4-9.975 4H272q-14 0-23 9t-9 23v434h192q8.75 0 14.875 6.176 6.125 6.177 6.125 15Q453-224 446.875-218T432-212H153Zm450 0q-12.75 0-21.375-8.625T573-242v-348q0-12.75 8.625-21.375T603-620h196q12.75 0 21.375 8.625T829-590v348q0 12.75-8.625 21.375T799-212H603Zm-2-42h200v-338H601v338Zm0 0h200-200Z"/></svg>