<svg xmlns="http://www.w3.org/2000/svg" height="24" viewBox="0 -960 960 960" width="24"><path d="M133.782-140.782q-30.652 0-51.826-22.022t-21.174-52.674q0-29.522 20.891-50.413 20.892-20.892 50.414-20.892h8.695v-426.434q0-44.305 30.848-75.153 30.848-30.848 75.153-30.848h559.435q22.087 0 37.544 15.456 15.456 15.457 15.456 37.544 0 22.088-15.456 37.544-15.457 15.457-37.544 15.457H246.783v426.434h153.433q30.653 0 51.827 21.174t21.174 51.827q0 30.652-21.174 51.826t-51.827 21.174H133.782Zm472.436 0q-22.088 0-37.544-15.456-15.457-15.457-15.457-37.544v-386.434q0-22.088 15.457-37.544 15.456-15.457 37.544-15.457h240q22.087 0 37.544 15.457 15.456 15.456 15.456 37.544v386.434q0 22.087-15.456 37.544-15.457 15.456-37.544 15.456h-240Zm41.695-146.001h156.609v-251.738H647.913v251.738Zm0 0h156.609-156.609Z"/></svg>