<svg xmlns="http://www.w3.org/2000/svg" height="20" viewBox="0 -960 960 960" width="20"><path d="M450-483q26-30 40-66.119T504-624q0-38.413-14-74.206Q476-734 450-765q8-2 15-2.5t15-.5q60 0 102 42t42 102q0 60-42 102t-102 42q-8 0-15.5-.5T450-483Zm198 291v-92q0-41-19-76.5T576-421q68 16 130 44t62 93v92H648Zm132-240v-84h-84v-72h84v-84h72v84h84v72h-84v84h-72Zm-492-48q-60 0-102-42t-42-102q0-60 42-102t102-42q60 0 102 42t42 102q0 60-42 102t-102 42ZM0-192v-92q0-25.407 12.5-46.703Q25-352 47-366q54-34 115.538-50 61.539-16 125-16Q351-432 412-415t117 49q21 14 34 35.297 13 21.296 13 46.703v92H0Zm287.504-360Q317-552 338.5-573.004q21.5-21.005 21.5-50.5Q360-653 338.5-674.5 317-696 287.504-696q-29.495 0-50.5 21.5Q216-653 216-623.504q0 29.495 21.004 50.5Q258.009-552 287.504-552ZM72-264h432v-20q0-6.069-3-11.034-3-4.966-8-8.966-48-26-99.5-41t-106-15q-54.5 0-106 14.5T83-304q-5 4-8 8.966-3 4.965-3 11.034v20Zm216-360Zm0 360Z"/></svg>