<svg xmlns="http://www.w3.org/2000/svg" height="24" viewBox="0 -960 960 960" width="24"><path d="M650.913-175.217q0-15.696 1.065-30.892 1.065-15.195 8.631-28.326 11.13-19.261 28.326-32.391 17.195-13.131 29.891-31.392 3-4 8.131-25.826 0-18.696-14.696-31.391-14.696-12.696-33.957-12.696-18.695 0-33.109 12.696-14.413 12.695-20.543 31.391l-49.087-20.696q11.13-33.391 39.239-53.935 28.109-20.543 63.5-20.543 41.522 0 72.131 26.826t30.609 67.348q0 12.131-3 22.478-3 10.348-10.131 20.044-12.695 18.261-29.391 32.457-16.696 14.195-26.826 32.891-7.696 13.826-6.566 41.957h-54.217Zm27.391 114.435q-15.695 0-26.826-10.913-11.13-10.913-11.13-26.609 0-15.695 11.13-26.543 11.131-10.848 26.826-10.848 15.696 0 26.326 10.848 10.631 10.848 10.631 26.543 0 15.696-10.631 26.61Q694-60.783 678.304-60.783Zm-368.478 0q-22.088 0-37.544-15.456-15.457-15.457-15.457-37.544v-652.436q0-22.087 15.457-37.544 15.456-15.456 37.544-15.456h77.173v-80h186.002v80h77.173q22.088 0 37.544 15.456 15.457 15.457 15.457 37.544v268.13q-5.652-1.13-11.022-1.413-5.37-.283-11.588-.283-108.478.435-184.131 75.87Q420.782-348.479 420.782-240q0 52.218 19.108 98.022 19.109 45.805 53.197 81.196H309.826Z"/></svg>