<svg xmlns="http://www.w3.org/2000/svg" height="24" viewBox="0 -960 960 960" width="24"><path d="M680-280q25 0 42.5-17.5T740-340q0-25-17.5-42.5T680-400q-25 0-42.5 17.5T620-340q0 25 17.5 42.5T680-280Zm0 120q31.769 0 57.385-14.115 25.615-14.116 42.384-38.116Q757-226 732-233q-25-7-52-7t-52 7q-25 7-47.769 20.769 16.769 24 42.384 38.116Q648.231-160 680-160Zm0 40q-66.846 0-113.423-46.577T520-280q0-66.846 46.577-113.423T680-440q66.846 0 113.423 46.577T840-280q0 66.846-46.577 113.423T680-120Zm-200-1.538q-120.539-35.769-200.269-146.039Q200-377.846 200-516v-171.308q0-20.384 11.807-36.923 11.808-16.538 30.193-24l215.385-80q11.692-4.231 22.615-4.231 10.923 0 22.615 4.231l215.385 80q18.385 7.462 30.193 24Q760-707.692 760-687.308v181.231q-16.769-6.846-38.5-10.385Q699.769-520 680-520q-99.846 0-169.923 70.077T440-280q0 41.231 13.884 80.462 13.885 39.231 41.424 72.384-4.077 1.539-7.654 2.808T480-121.538Z"/></svg>