<svg xmlns="http://www.w3.org/2000/svg" height="24" viewBox="0 -960 960 960" width="24"><path d="M681.13-280q25 0 42.5-17.5t17.5-42.5q0-25-17.5-42.5t-42.5-17.5q-25 0-42.5 17.5t-17.5 42.5q0 25 17.5 42.5t42.5 17.5Zm0 120q31.566 0 57-14.217 25.435-14.218 42-38.218Q757.565-226 732.848-233q-24.718-7-51.718-7-27 0-52 7t-47.565 20.565q16.565 24 42.283 38.218Q649.565-160 681.13-160ZM680-80q-83 0-141.5-58.5T480-280q0-83 58.5-141.5T680-480q83 0 141.5 58.5T880-280q0 83-58.5 141.5T680-80ZM480-60.216Q332.521-96.912 236.651-227.065 140.782-357.217 140.782-516v-183.913q0-33.478 19.022-60.261t49.935-38.61l233.217-87.173q17.957-6.696 37.044-6.696 19.087 0 37.044 6.696l233.217 87.173q30.913 11.827 49.935 38.61 19.022 26.783 19.022 60.261v178.218q-30.522-18.653-66.978-28.479Q715.783-560 680-560q-116 0-198 82t-82 198q0 65.391 27.457 120.761 27.456 55.37 73.631 92.935-5.522 2.261-10.544 3.61-5.022 1.347-10.544 2.478Z"/></svg>