<svg xmlns="http://www.w3.org/2000/svg" height="24" viewBox="0 -960 960 960" width="24"><path d="M199.973-147.692q-8.512 0-14.242-5.75-5.731-5.75-5.731-14.25v-115.385q0-26.654 18.981-45.635 18.98-18.98 45.634-18.98h470.77q26.654 0 45.634 18.98Q780-309.731 780-283.077v115.385q0 8.5-5.758 14.25-5.757 5.75-14.269 5.75t-14.242-5.75q-5.731-5.75-5.731-14.25v-115.385q0-10.769-6.923-17.692t-17.692-6.923h-470.77q-10.769 0-17.692 6.923T220-283.077v115.385q0 8.5-5.758 14.25-5.757 5.75-14.269 5.75Zm.117-266.154q-16.629 0-28.359-11.64Q160-437.127 160-453.756q0-16.629 11.64-28.36 11.64-11.73 28.269-11.73 16.629 0 28.36 11.64Q240-470.566 240-453.937q0 16.629-11.64 28.36-11.641 11.731-28.27 11.731Zm110.679-4.615v-324.616q0-26.654 18.981-45.635 18.981-18.981 45.635-18.981h209.23q26.654 0 45.635 18.981 18.981 18.981 18.981 45.635v324.616H310.769Zm449.322 4.615q-16.629 0-28.36-11.64Q720-437.127 720-453.756q0-16.629 11.64-28.36 11.641-11.73 28.27-11.73 16.629 0 28.359 11.64Q800-470.566 800-453.937q0 16.629-11.64 28.36-11.64 11.731-28.269 11.731Zm-409.322-44.616h258.462v-284.615q0-10.769-6.923-17.692t-17.693-6.923h-209.23q-10.77 0-17.693 6.923-6.923 6.923-6.923 17.692v284.615Zm0 0h258.462-258.462Z"/></svg>