<svg xmlns="http://www.w3.org/2000/svg" height="24" viewBox="0 -960 960 960" width="24"><path d="M818.567-696.567q14.956 14.957 14.956 37.044 0 22.088-14.956 37.044l-29 29q-15.957 15.957-37.544 16.24-21.588.282-37.544-15.674-15.957-15.957-15.457-37.827.5-21.87 16.457-37.827l29-29q15.956-14.956 37.544-14.456 21.587.5 36.544 15.456ZM120-129.477q-22.087 0-37.544-15.456Q67-160.39 67-182.477q0-22.088 15.457-37.544Q97.913-235.478 120-235.478h720q22.087 0 37.544 15.457 15.457 15.456 15.457 37.544 0 22.087-15.457 37.544-15.457 15.456-37.544 15.456H120Zm360-701.046q22.087 0 37.544 15.456 15.457 15.457 15.457 37.544v40q0 22.088-15.457 37.544-15.457 15.457-37.544 15.457-22.087 0-37.544-15.457-15.457-15.456-15.457-37.544v-40q0-22.087 15.457-37.544 15.457-15.456 37.544-15.456ZM143.433-698.567q14.957-14.956 37.044-14.956 22.088 0 37.044 14.956l29 29q15.957 15.957 16.24 37.544.282 21.588-15.674 37.544-15.957 15.522-38.044 15.24-22.088-.283-37.61-16.24l-29-29q-14.956-15.956-14.456-37.544.5-21.587 15.456-36.544Zm168.829 291.219h335.476q-24.13-48.348-68.043-76.826-43.913-28.478-99.695-28.478t-99.695 28.478q-43.913 28.478-68.043 76.826ZM186.999-306.999q0-126.044 84.609-216.023T480-613.001q123.783 0 208.392 89.979t84.609 216.023H186.999ZM480-407.348Z"/></svg>