<svg xmlns="http://www.w3.org/2000/svg" height="24" viewBox="0 -960 960 960" width="24"><path d="m620-295.349 183.304-183.303q14.391-14.392 35.913-14.392t35.913 14.392q14.392 14.391 14.109 35.63-.282 21.24-14.674 35.631L657.609-189.87q-16.162 15.957-37.712 15.957-21.549 0-37.506-15.957L476.87-295.391q-14.392-14.391-14.392-35.631 0-21.239 14.392-35.63 14.391-14.392 35.913-14.392t35.913 14.392L620-295.349ZM206.783-100.782q-43.726 0-74.863-31.138-31.138-31.137-31.138-74.863v-546.434q0-43.726 31.138-74.863 31.137-31.138 74.863-31.138h145.521q14.391-36.696 49.938-59.761 35.546-23.066 77.758-23.066 42.826 0 78.283 23.066 35.457 23.065 50.413 59.761h144.521q43.726 0 74.863 31.138 31.138 31.137 31.138 74.863v140.216q0 22.088-15.456 37.544Q828.305-560 806.218-560q-22.088 0-37.544-15.457-15.457-15.456-15.457-37.544v-140.216h-76.043v76.043q0 22.087-15.457 37.544-15.457 15.457-37.544 15.457H335.827q-22.087 0-37.544-15.457-15.457-15.457-15.457-37.544v-76.043h-76.043v546.434h180.216q22.088 0 37.544 15.457Q440-175.87 440-153.782q0 22.087-15.457 37.544-15.456 15.456-37.544 15.456H206.783ZM480-761.696q17 0 28.5-11.5t11.5-28.5q0-17-11.5-28.5t-28.5-11.5q-17 0-28.5 11.5t-11.5 28.5q0 17 11.5 28.5t28.5 11.5Z"/></svg>