<svg xmlns="http://www.w3.org/2000/svg" height="20" viewBox="0 -960 960 960" width="20"><path d="M267.462-423.462q43-23.769 89.615-36.154Q403.692-472 453.462-472q28.23 0 55.846 4.115 27.615 4.116 53.846 12.116Q597.231-446 625.885-441q28.653 5 53.961 5h14.692l44.077-356h-518l46.847 368.538ZM324.769-136q-20.846 0-37.885-13.769-17.038-13.769-20.269-35.385l-77.231-600.923q-2.461-15.846 8.385-26.885Q208.615-824 223.692-824h512.616q15.077 0 25.923 11.038 10.846 11.039 8.385 26.885l-76.462 600.923q-3.231 21.616-20.654 35.385Q656.077-136 635.231-136H324.769Z"/></svg>