<svg xmlns="http://www.w3.org/2000/svg" height="20" viewBox="0 -960 960 960" width="20"><path d="M275.783-466.479q43-21.305 87.739-32.457 44.739-11.152 90.913-11.152 30.13 0 59.543 4.783 29.413 4.782 57.544 13.348 31 9 58.217 14 27.218 5 49.652 5h7.391l37.609-312.26H235.609l40.174 318.738Zm36.696 389.697q-36.609 0-64.458-24.217-27.848-24.218-32.978-61.392l-76.87-611q-5.13-44.435 24.5-77.131 29.631-32.696 73.501-32.696h487.652q43.87 0 73.783 32.696 29.914 32.696 24.783 77.131l-76.869 611q-5.131 37.174-32.979 61.392-27.848 24.217-64.457 24.217H312.479Z"/></svg>