<svg xmlns="http://www.w3.org/2000/svg" height="20" viewBox="0 -960 960 960" width="20"><path d="m295-358 24 178h323l26-190h.34q-28.34-1-57.84-7.5Q581-384 542-394q-22-6-44.167-9.5Q475.667-407 455-407q-37.205 0-78.103 12.5Q336-382 295-358Zm-14-125q43-20 86.199-30.5Q410.399-524 454-524q30.652 0 61.326 5T575-505q31 9 58 14t49 5l35-294H243l38 297Zm38.125 421Q275-62 241.5-91T202-165l-76-601q-6-53.854 29.5-92.927Q191-898 244-898h472q53 0 89 39.073T835-766l-76 601q-6 45-39.5 74t-77.625 29h-322.75ZM319-180q24.418 0 61.823.5t73.897.5H542q39 0 65-.5t35-.5H319Z"/></svg>