<svg xmlns="http://www.w3.org/2000/svg" height="20" viewBox="0 -960 960 960" width="20"><path d="m287.609-361.913 24.435 187.13h336.477l26.435-201.304h-3.138q-30.079-.565-58.927-6.63-28.848-6.065-69.152-16.935-22-6.435-44.384-9.717-22.384-3.283-43.92-3.283-41.988 0-84.624 12.935-42.637 12.935-83.202 37.804Zm-11.826-104.566q43-21.305 87.938-32.457 44.939-11.152 90.714-11.152 29.782 0 59.369 4.783 29.587 4.782 57.718 13.348 31 9 58.217 14 27.218 5 49.652 5h7.391l37.609-312.26H235.609l40.174 318.738Zm36.821 389.697q-36.734 0-64.583-24.217-27.848-24.218-32.978-61.392l-76.87-611q-5.13-44.289 24.5-77.058 29.631-32.769 73.501-32.769h487.652q43.87 0 73.783 32.769 29.914 32.769 24.783 77.058l-76.869 611q-5.131 37.174-32.979 61.392-27.848 24.217-64.582 24.217H312.604Zm-.56-98.001q23.114 0 62.475.283 39.361.282 80.635.282H543.739q40.304 0 66.304-.282 26-.283 38.478-.283H312.044Z"/></svg>