<svg xmlns="http://www.w3.org/2000/svg" height="20" viewBox="0 -960 960 960" width="20"><path d="m270-396 26 200q2 12 10.5 20t21.5 8h305q13 0 21.5-8t10.5-20l27-214h-10.66q-30.34 0-57.84-5.5Q596-421 555-432q-25-8-50.167-11-25.166-3-50.833-3-49.205 0-95.603 12.5Q312-421 270-396Zm-3-21q43-24 89.699-36.5Q403.399-466 453-466q27.652 0 55.326 4T562-450q35 10 64 15t55 5h14l45-362H219l48 375Zm64.125 269Q312-148 296-160.5T277-193l-77-594q-2-10.854 5.5-17.927T223-812h514q10 0 17.5 7.073T760-787l-76 594q-3 20-19.5 32.5T628.875-148h-297.75ZM296-168h369-369Z"/></svg>