<svg xmlns="http://www.w3.org/2000/svg" height="24" viewBox="0 -960 960 960" width="24"><path d="M243.462-452.462q47-23.769 97.115-35.654Q390.692-500 443.462-500q29.23 0 58.346 3.615 29.115 3.616 57.346 11.616Q612.231-470 639.885-465q27.653 5 59.961 5h16.692l38.077-340h-550l38.847 347.538ZM299.769-120q-24.846 0-43.885-16.269-19.038-16.269-21.269-40.885l-69.231-616.923q-2.461-18.846 9.885-32.385Q187.615-840 206.692-840h546.616q19.077 0 31.423 13.538 12.346 13.539 9.885 32.385l-68.462 616.923q-2.231 24.616-21.654 40.885Q685.077-120 660.231-120H299.769Z"/></svg>