<svg xmlns="http://www.w3.org/2000/svg" height="20" viewBox="0 -960 960 960" width="20"><path d="M323.789-288Q339-288 349.5-298.35 360-308.7 360-324v-216q0-15.3-10.289-25.65-10.29-10.35-25.5-10.35Q309-576 298.5-565.65 288-555.3 288-540v216q0 15.3 10.289 25.65 10.29 10.35 25.5 10.35Zm312 0Q651-288 661.5-298.35 672-308.7 672-324v-72q0-15.3-10.289-25.65-10.29-10.35-25.5-10.35Q621-432 610.5-421.65 600-411.3 600-396v72q0 15.3 10.289 25.65 10.29 10.35 25.5 10.35Zm-156 0Q495-288 505.5-298.35 516-308.7 516-324v-312q0-15.3-10.289-25.65-10.29-10.35-25.5-10.35Q465-672 454.5-661.65 444-651.3 444-636v312q0 15.3 10.289 25.65 10.29 10.35 25.5 10.35ZM216-144q-29.7 0-50.85-21.15Q144-186.3 144-216v-528q0-29.7 21.15-50.85Q186.3-816 216-816h528q29.7 0 50.85 21.15Q816-773.7 816-744v528q0 29.7-21.15 50.85Q773.7-144 744-144H216Z"/></svg>