<svg xmlns="http://www.w3.org/2000/svg" height="20" viewBox="0 -960 960 960" width="20"><path d="M329.789-288Q345-288 355.5-298.35 366-308.7 366-324v-216q0-15.3-10.289-25.65-10.29-10.35-25.5-10.35Q315-576 304.5-565.65 294-555.3 294-540v216q0 15.3 10.289 25.65 10.29 10.35 25.5 10.35Zm306 0Q651-288 661.5-298.35 672-308.7 672-324v-72q0-15.3-10.289-25.65-10.29-10.35-25.5-10.35Q621-432 610.5-421.65 600-411.3 600-396v72q0 15.3 10.289 25.65 10.29 10.35 25.5 10.35Zm-162 0Q489-288 499.5-298.35 510-308.7 510-324v-312q0-15.3-10.289-25.65-10.29-10.35-25.5-10.35Q459-672 448.5-661.65 438-651.3 438-636v312q0 15.3 10.289 25.65 10.29 10.35 25.5 10.35ZM228-110q-49.7 0-83.85-34.15Q110-178.3 110-228v-504q0-49.7 34.15-83.85Q178.3-850 228-850h504q49.7 0 83.85 34.15Q850-781.7 850-732v504q0 49.7-34.15 83.85Q781.7-110 732-110H228Zm0-118h504v-504H228v504Zm0-504v504-504Z"/></svg>