<svg xmlns="http://www.w3.org/2000/svg" height="20" viewBox="0 -960 960 960" width="20"><path d="M333.02-308q6.749 0 11.48-4.581 4.731-4.58 4.731-11.419v-216q0-6.839-4.52-11.419Q340.19-556 333.441-556t-11.48 4.581q-4.73 4.58-4.73 11.419v216q0 6.839 4.52 11.419Q326.271-308 333.02-308Zm302.769 0q6.75 0 11.48-4.581Q652-317.161 652-324v-72q0-6.839-4.52-11.419Q642.96-412 636.211-412q-6.75 0-11.48 4.581Q620-402.839 620-396v72q0 6.839 4.52 11.419Q629.04-308 635.789-308Zm-165.23 0q6.749 0 11.48-4.581 4.73-4.58 4.73-11.419v-312q0-6.839-4.52-11.419Q477.729-652 470.98-652q-6.749 0-11.48 4.581-4.731 4.58-4.731 11.419v312q0 6.839 4.52 11.419Q463.81-308 470.559-308ZM240.615-184q-24.315 0-40.465-16.15Q184-216.3 184-240.615v-478.77q0-24.315 16.15-40.465Q216.3-776 240.615-776h478.77q24.315 0 40.465 16.15Q776-743.7 776-719.385v478.77q0 24.315-16.15 40.465Q743.7-184 719.385-184h-478.77Zm0-32h478.77q9.23 0 16.923-7.692Q744-231.385 744-240.615v-478.77q0-9.23-7.692-16.923Q728.615-744 719.385-744h-478.77q-9.23 0-16.923 7.692Q216-728.615 216-719.385v478.77q0 9.23 7.692 16.923Q231.385-216 240.615-216ZM216-744v528-528Z"/></svg>