<svg xmlns="http://www.w3.org/2000/svg" height="24" viewBox="0 -960 960 960" width="24"><path d="M206.783-100.782q-44.305 0-75.153-30.848-30.848-30.848-30.848-75.153v-546.434q0-44.305 30.848-75.153 30.848-30.848 75.153-30.848h546.434q44.305 0 75.153 30.848 30.848 30.848 30.848 75.153v546.434q0 44.305-30.848 75.153-30.848 30.848-75.153 30.848H206.783ZM520-289.826l233.217-232.651v-230.74H206.783v456.608l115.608-115.607q16.162-15.957 37.712-15.957 21.549 0 37.506 15.957L520-289.826Zm-10-183.391q-13 0-21.5-8.5t-8.5-21.5v-180q0-13 8.5-21.5t21.5-8.5q13 0 21.5 8.5t8.5 21.5v180q0 13-8.5 21.5t-21.5 8.5Zm98-120 51 76q9 14 1 29t-25 15q-7 0-13-3.5t-10-9.5l-72-107 72-107q4-6 10-9.5t13-3.5q17 0 25.5 15t-1.5 29l-51 76Zm-268 60h70q13 0 21.5 8.5t8.5 21.5q0 13-8.5 21.5t-21.5 8.5H310q-13 0-21.5-8.5t-8.5-21.5v-90q0-13 8.5-21.5t21.5-8.5h70v-30h-70q-13 0-21.5-8.5t-8.5-21.5q0-13 8.5-21.5t21.5-8.5h100q13 0 21.5 8.5t8.5 21.5v90q0 13-8.5 21.5t-21.5 8.5h-70v30Zm20 195.827L229.393-206.783h523.824V-417.39L554.218-218.391q-16.163 15.957-37.712 15.957-21.55 0-37.507-15.957L360-337.39ZM206.783-206.783v-546.434 546.434Z"/></svg>