<svg xmlns="http://www.w3.org/2000/svg" height="20" viewBox="0 -960 960 960" width="20"><path d="M222.783-124.782q-40.305 0-69.153-28.848-28.848-28.848-28.848-69.153v-514.434q0-41.005 28.848-69.503 28.848-28.498 69.153-28.498h514.434q41.005 0 69.503 28.498 28.498 28.498 28.498 69.503v514.434q0 40.305-28.498 69.153-28.498 28.848-69.503 28.848H222.783ZM516-301.826l221.217-220.651v-214.74H222.783v432.608l110.608-111.607q15.344-14.957 35.803-14.957 20.458 0 35.415 15.207L516-301.826Zm-12-195.391q-10.4 0-17.2-6.785-6.8-6.785-6.8-17.161V-664.84q0-10.377 6.8-17.377 6.8-7 17.2-7 10.4 0 17.2 6.785 6.8 6.784 6.8 17.161v143.677q0 10.377-6.8 17.377-6.8 7-17.2 7Zm78-96 41 61q8 11 1.4 23t-20.625 12q-5.775 0-10.65-2.692-4.875-2.693-8.125-7.308l-57-86 56.842-86.168q3.158-4.832 8.158-7.332t10.833-2.5q14.167 0 20.667 12.5 6.5 12.5-1.533 23.544L582-593.217Zm-230 48h56q10.4 0 17.2 6.8 6.8 6.8 6.8 17.2 0 10.4-6.776 17.2-6.776 6.8-17.14 6.8h-79.72q-10.364 0-17.364-6.774-7-6.775-7-17.136v-71.729q0-10.361 6.8-17.233 6.8-6.873 17.2-6.873h56v-24.255h-56q-10.4 0-17.2-6.8-6.8-6.8-6.8-17.2 0-10.4 6.776-17.2 6.776-6.8 17.14-6.8h79.72q10.364 0 17.364 6.774 7 6.775 7 17.136v71.729q0 10.361-6.8 17.233-6.8 6.873-17.2 6.873h-56v24.255Zm15 203.827L248.393-222.783h488.824V-418.39L549.218-229.391q-15.072 14.957-35.167 14.957-20.095 0-35.385-15.29L367-341.39ZM222.783-222.783v-514.434 514.434Z"/></svg>