<svg xmlns="http://www.w3.org/2000/svg" height="24" viewBox="0 -960 960 960" width="24"><path d="M224.615-160Q197-160 178.5-178.5 160-197 160-224.615v-510.77Q160-763 178.5-781.5 197-800 224.615-800h510.77Q763-800 781.5-781.5 800-763 800-735.385v510.77Q800-197 781.5-178.5 763-160 735.385-160h-510.77ZM760-455.385v-53.846l-240 240-137.385-137.385q-9.692-9.692-22.615-9.692-12.923 0-22.615 9.692L200-269.231v53.846l160-160L497.385-238q9.692 9.692 22.615 9.692 12.923 0 22.615-9.692L760-455.385Zm-250.036-36.923q7.651 0 12.69-5.012 5.038-5.013 5.038-12.68v-180q0-7.667-5.002-12.68-5.003-5.012-12.654-5.012t-12.69 5.012q-5.038 5.013-5.038 12.68v180q0 7.667 5.002 12.68 5.003 5.012 12.654 5.012ZM571.077-600l64.846-79.846q6.923-8.616 1.772-18.231-5.151-9.615-15.453-9.615-4.242 0-7.646 1.843t-5.673 5.003L527.692-600l81.231 100.846q2.261 3.16 5.652 5.003 3.392 1.843 7.348 1.843 10.66 0 15.676-9.23 5.017-9.231-1.676-17.847L571.077-600Zm-243.385 72.308v-54.616H410q7.667 0 12.68-5.012 5.012-5.013 5.012-12.68v-90q0-7.667-5.012-12.68-5.013-5.012-12.68-5.012H310q-7.667 0-12.68 5.002-5.012 5.003-5.012 12.654t5.012 12.69q5.013 5.038 12.68 5.038h82.308v54.616H310q-7.667 0-12.68 5.012-5.012 5.013-5.012 12.68v90q0 7.667 5.012 12.68 5.013 5.012 12.68 5.012h100q7.667 0 12.68-5.002 5.012-5.003 5.012-12.654t-5.012-12.69q-5.013-5.038-12.68-5.038h-82.308Z"/></svg>