<svg xmlns="http://www.w3.org/2000/svg" height="20" viewBox="0 -960 960 960" width="20"><path d="M248-196q-22 0-37-15t-15-37v-464q0-22.7 15-37.35Q226-764 248-764h464q22.7 0 37.35 14.65Q764-734.7 764-712v464q0 22-14.65 37T712-196H248Zm268-76 228-228v-212q0-12-10-22t-22-10H248q-12 0-22 10t-10 22v444l134-135q8.182-8 19.091-8T388-402.75L516-272Zm-12-248q-3.4 0-5.7-2.285-2.3-2.285-2.3-5.661v-143.677q0-3.377 2.3-5.877t5.7-2.5q3.4 0 5.7 2.285 2.3 2.285 2.3 5.661v143.677q0 3.377-2.3 5.877T504-520Zm30-80 59 67q5 4 2.4 8.5t-8.625 4.5q-1.775 0-3.15-.692-1.375-.693-2.625-1.308l-69-78 68.842-78.168Q582-679 583.5-679.5q1.5-.5 3.333-.5 6.167 0 8.167 5.5t-2.033 9.544L534-600Zm-198 64h72q3.4 0 5.7 2.3 2.3 2.3 2.3 5.7 0 3.4-2.276 5.7-2.276 2.3-5.64 2.3h-79.72q-3.364 0-5.864-2.274-2.5-2.275-2.5-5.636v-71.729q0-3.361 2.3-5.733 2.3-2.373 5.7-2.373h72V-664h-72q-3.4 0-5.7-2.3-2.3-2.3-2.3-5.7 0-3.4 2.276-5.7 2.276-2.3 5.64-2.3h79.72q3.364 0 5.864 2.274 2.5 2.275 2.5 5.636v71.729q0 3.361-2.3 5.733-2.3 2.373-5.7 2.373h-72V-536Zm31 152L219-236q1 5 9.5 12.5T251-216h461q12 0 22-10t10-22v-213L536-252q-7.909 8-18.455 8-10.545 0-18.878-8.333L367-384ZM216-248v32-528 496Z"/></svg>