<svg xmlns="http://www.w3.org/2000/svg" height="20" viewBox="0 -960 960 960" width="20"><path d="M381-298q-75 0-128.5-53.5T199-480q0-14.667 3-31.333Q205-528 208-536q.211 0 2.105-1 1.895-1 1.384-1Q182-538 164.5-556.22 147-574.44 147-601.521q0-27.081 19.495-45.78T213-666q22 0 39 11.5t18 32.5q22-23 53-31.5t58-8.5h432v40H563v142q0 75.833-53.083 128.917Q456.833-298 381-298ZM210.86-578q10.14 0 17.14-6.86 7-6.859 7-17 0-10.14-6.86-17.14-6.859-7-17-7-10.14 0-17.14 6.86-7 6.859-7 17 0 10.14 6.86 17.14 6.859 7 17 7Zm170.529 150Q403-428 418-443.389q15-15.39 15-37Q433-502 417.611-517q-15.39-15-37-15Q359-532 344-516.611q-15 15.39-15 37Q329-458 344.389-443q15.39 15 37 15Z"/></svg>