<svg xmlns="http://www.w3.org/2000/svg" height="20" viewBox="0 -960 960 960" width="20"><path d="M432-240q-100 0-170-70t-70-170q0-11 1.5-24t3.5-24h-5q-42 0-69-27.5t-27-68.021q0-40.521 28-68.5T192-720q29 0 53.5 14.5T279-664q32-29 71.5-42.5T432-720h432v144H672v96q0 100-70 170t-170 70ZM191.86-600q10.14 0 17.14-6.86 7-6.859 7-17 0-10.14-6.86-17.14-6.859-7-17-7-10.14 0-17.14 6.86-7 6.859-7 17 0 10.14 6.86 17.14 6.859 7 17 7Zm240.352 192Q462-408 483-429.212q21-21.213 21-51Q504-510 482.788-531q-21.213-21-51-21Q402-552 381-530.788q-21 21.213-21 51Q360-450 381.212-429q21.213 21 51 21Z"/></svg>