<svg xmlns="http://www.w3.org/2000/svg" height="20" viewBox="0 -960 960 960" width="20"><path d="M480-160.615q-63.846 0-107.923-44.077Q328-248.769 328-312.615q0-63.846 44.077-107.923Q416.154-464.615 480-464.615q63.846 0 107.923 44.077Q632-376.461 632-312.615q0 63.846-44.077 107.923Q543.846-160.615 480-160.615Zm0-430.77q-53 0-102.385 16.962-49.384 16.962-90.461 48.885-8.692 6.154-19.231 6.154-10.538 0-19.231-8.693l-71.846-73.385q-9.462-9.461-7.808-21 1.654-11.538 10.346-20.231 64.77-51.615 141.154-80.153Q396.923-751.385 480-751.385q83.077 0 159.462 29.039 76.384 29.038 141.154 79.653 8.692 8.693 10.346 20.231 1.654 11.539-7.808 21l-71.846 73.385q-8.693 8.693-19.231 8.693-10.539 0-19.231-6.154-41.077-31.923-90.461-48.885Q533-591.385 480-591.385Z"/></svg>