<svg xmlns="http://www.w3.org/2000/svg" height="24" viewBox="0 -960 960 960" width="24"><path d="M450-676q-20.4 0-34.2 13.8Q402-648.4 402-628v184q0 20.4 13.8 34.2Q429.6-396 450-396q20.4 0 34.2-13.8Q498-423.6 498-444v-184q0-20.4-13.8-34.2Q470.4-676 450-676Zm136 40q-20.4 0-34.2 13.8Q538-608.4 538-588v74q0 20.4 13.8 34.2Q565.6-466 586-466q20.4 0 34.2-13.8Q634-493.6 634-514v-74q0-20.4-13.8-34.2Q606.4-636 586-636Zm-272 0q-20.4 0-34.2 13.8Q266-608.4 266-588v64q0 20.4 13.8 34.2Q293.6-476 314-476q20.4 0 34.2-13.8Q362-503.6 362-524v-64q0-20.4-13.8-34.2Q334.4-636 314-636ZM210-50v-189q-56-56-88-129.5T90-520q0-162.5 113.66-276.25T479.691-910Q615-910 719.5-830T856-622l54 214q8 30-10.818 54-18.818 24-50.182 24h-59v74q0 53-36.5 89.5T664-130h-34v80H504v-206h160v-200h104l-33-135q-23-84-94-138.5T480-784q-109.371 0-186.686 76.338Q216-631.324 216-522q0 56 23 108t66 90l31 29v245H210Zm282-367Z"/></svg>