<svg xmlns="http://www.w3.org/2000/svg" height="20" viewBox="0 -960 960 960" width="20"><path d="M316-148v-147q-57-48-88.5-109.569-31.5-61.57-31.5-125.154 0-117.615 83.125-199.946T481-812q87 0 162 48.5T742-639l52.316 169.92q3.684 12.56-3.816 22.82T770-436h-54v140q0 21.45-15.275 36.725Q685.45-244 664-244H548v96H316Zm164.175-498Q476-646 473-643.125T470-636v192q0 4.25 2.825 7.125 2.824 2.875 7 2.875 4.175 0 7.175-2.875t3-7.125v-192q0-4.25-2.825-7.125-2.824-2.875-7-2.875Zm-120 48Q356-598 353-595.125T350-588v72q0 4.25 2.825 7.125 2.824 2.875 7 2.875 4.175 0 7.175-2.875t3-7.125v-72q0-4.25-2.825-7.125-2.824-2.875-7-2.875Zm240-24Q596-622 593-619.125T590-612v96q0 4.25 2.825 7.125 2.824 2.875 7 2.875 4.175 0 7.175-2.875t3-7.125v-96q0-4.25-2.825-7.125-2.824-2.875-7-2.875Z"/></svg>