<svg xmlns="http://www.w3.org/2000/svg" height="20" viewBox="0 -960 960 960" width="20"><path d="M478.174-562.522v-121.59q0-18.845-13.398-32.454-13.398-13.608-32.565-13.608-19.168 0-32.777 13.458-13.608 13.459-13.608 32.716v139.87q0 10.22 3.847 19.163 3.848 8.942 10.544 15.88l81.477 80.913q13.993 13.826 32.649 13.826t32.483-13.826q13.826-13.827 13.826-32.119 0-18.293-13.826-32.013l-68.652-70.216ZM368.782-282.435q21.261-40 60.457-63.87 39.196-23.869 86.761-23.869h114.348q26.739-33.305 41.108-73.511 14.37-40.206 14.37-84.315 0-106.063-73.817-179.944-73.817-73.882-179.787-73.882-105.971 0-180.009 73.882Q178.174-634.063 178.174-528q0 89.618 54.478 157.026 54.478 67.408 136.13 88.539ZM516-37.825q-66.246 0-112.949-44.783t-51.53-108.913q-115.13-27.827-190.413-120.732-75.282-92.905-75.282-216.146 0-143.84 100.967-244.808Q287.761-874.174 432-874.174q144.239 0 245.207 100.967Q778.174-672.239 778.174-528q0 43.452-10.086 83.552-10.087 40.1-29.826 75.404h33q63.304 5.653 107.108 52.566Q922.174-269.565 922.174-204q0 69.522-48.326 117.848Q825.522-37.826 756-37.826H516ZM432-532.13ZM636-204Zm-120 73.826h240q30.453 0 52.139-21.759 21.687-21.76 21.687-52.315 0-30.555-21.687-52.066-21.686-21.512-52.139-21.512H516q-30.453 0-52.139 21.759-21.687 21.76-21.687 52.315 0 30.555 21.687 52.066 21.686 21.512 52.139 21.512Zm.211-37.826Q501-168 490.5-178.289q-10.5-10.29-10.5-25.5Q480-219 490.289-229.5q10.29-10.5 25.5-10.5Q531-240 541.5-229.711q10.5 10.29 10.5 25.5Q552-189 541.711-178.5q-10.29 10.5-25.5 10.5Zm120 0Q621-168 610.5-178.289q-10.5-10.29-10.5-25.5Q600-219 610.289-229.5q10.29-10.5 25.5-10.5Q651-240 661.5-229.711q10.5 10.29 10.5 25.5Q672-189 661.711-178.5q-10.29 10.5-25.5 10.5Zm120 0Q741-168 730.5-178.289q-10.5-10.29-10.5-25.5Q720-219 730.289-229.5q10.29-10.5 25.5-10.5Q771-240 781.5-229.711q10.5 10.29 10.5 25.5Q792-189 781.711-178.5q-10.29 10.5-25.5 10.5Z"/></svg>