<svg xmlns="http://www.w3.org/2000/svg" height="24" viewBox="0 -960 960 960" width="24"><path d="M76.413-72.587V-160q40.391 0 60.207-20 19.815-20 77.38-20t77.12 20q19.554 20 55.88 20 36.326 0 55.88-20 19.555-20 77.12-20 55.565 0 77.5 20 21.935 20 56.5 20 36.326 0 56-20t77-20q57.326 0 76.641 20 19.316 20 59.946 20v87.413q-58.717 0-79.391-20-20.674-20-57.196-20t-56.478 20q-19.957 20-76.522 20-56.326 0-76.902-20t-57.098-20q-37.283 0-56.478 20-19.196 20-76.522 20-57.326 0-76.522-20-19.195-20-56.478-20-36.522 0-57.315 20-20.794 20-80.272 20Zm0-183.826v-87.174q40.391 0 59.467-19.761 19.077-19.761 76.642-20.239 5.043 0 9.728.38 4.685.381 8.967 1.142l-34.891-128.522L143-441.696 74.26-496l315.783-388.304L857.022-706.63l-31.631 81.934-80.891-32.326 79.087 293.109q14 7.283 27.62 13.685 13.619 6.402 32.38 6.641v87.174q-57.957-.761-79.391-20.38-21.435-19.62-57.196-19.62-37.283 0-56.478 20-19.196 20-76.522 20-55.565 0-76.902-20-21.337-20-57.098-20-37.283 0-56.478 20-19.196 20-76.522 20-55.565 0-76.402-20-20.837-20-56.598-20-35 0-57.315 20-22.315 20-80.272 20Zm541.109-88.174L559.37-563.522l-155 41 38.673 142.935q8.24-2 16.979-3 8.739-1 19.978-1 56.283 0 80.783 21.402t56.739 17.598Z"/></svg>