<svg xmlns="http://www.w3.org/2000/svg" height="20" viewBox="0 -960 960 960" width="20"><path d="M81-65v-103q51-4 74-21t68-17q48 0 74.5 19t54.5 19q28 0 54-19t73.897-19Q529-206 554.5-187q25.5 19 54.176 19Q637-168 662.5-187q25.5-19 75.5-19 46 0 66.851 17 20.852 17 74.149 21v103q-55 0-82.5-19T736-103q-33 0-56 19t-71.5 19Q561-65 537-84t-56.533-19Q448-103 424-84t-72 19q-48 0-71-19t-55.467-19Q193-103 165-84T81-65Zm270.612-160Q302-225 280-244q-22-19-56.493-19Q189-263 165.5-244T81-225v-102q44.757-3 69.378-19.5Q175-363 214-365h1.5q-2.5 0-3.5-1l-26-96-33 38-81-62 316-396 471 186-38 95-48-17 79 293q6.341.091 12.671-1.955Q871-329 878-327v102q-61 2-84.5-18T735-263q-32 0-53.5 19t-74.888 19Q559-225 536.5-244 514-263 480-263q-32 0-55.5 19t-72.888 19ZM351-327q17 2 40-12.5t37-19.5l-46-177 186-48 68 252q9-8 39-20.5t61-7.5l-81.721-304.222L421-759 267-561l59 224q5 4 11 7t14 3Zm123-213Z"/></svg>