<svg xmlns="http://www.w3.org/2000/svg" height="24" viewBox="0 -960 960 960" width="24"><path d="M572.489-160q-37.104 0-63.258-25.973-26.154-25.973-26.154-63.077t25.973-63.258q25.973-26.154 63.077-26.154t63.258 25.973q26.154 25.973 26.154 63.077t-25.973 63.258Q609.593-160 572.489-160ZM660-440q-75.846 0-127.923-52.077T480-620q0-75.846 52.077-127.923T660-800q75.846 0 127.923 52.077T840-620q0 75.846-52.077 127.923T660-440ZM289.231-270.769q-53.308 0-91.27-37.962Q160-346.692 160-400q0-53.308 37.961-91.269 37.962-37.962 91.27-37.962 53.307 0 91.269 37.962 37.962 37.961 37.962 91.269 0 53.308-37.962 91.269-37.962 37.962-91.269 37.962Z"/></svg>