<svg xmlns="http://www.w3.org/2000/svg" height="20" viewBox="0 -960 960 960" width="20"><path d="M168.769-574q0 92.924 51.424 169.77 51.423 76.846 137.04 113.615 11.692 5.308 16.115 14.461 4.423 9.154-1.654 18.692-6.461 10.538-18.807 13.577-12.346 3.038-24.269-2.654-97-44.076-154.424-132.999-57.423-88.923-57.423-195.847 0-34.692 6.154-68.269 6.154-33.577 18.846-65.885L72.923-670q-9.538 6.077-19.5 2.539-9.96-3.539-16.038-13.077-6.076-9.538-3.23-19.307 2.846-9.769 12.384-15.846l120-68.923q11.846-7.23 24.115-3.807 12.269 3.423 19.5 15.269l68.922 121q6.077 9.538 3.231 19.307-2.846 9.769-12.384 15.845-9.538 6.077-19.307 3.231-9.769-2.846-15.846-12.384l-41.077-70.463q-12.154 28.77-18.539 60.116-6.385 31.346-6.385 62.5ZM480-887.231q-50.154 0-96.347 15.847-46.193 15.846-86.27 45.77-10.153 6.846-20.307 5.807-10.154-1.038-16.23-10.576-6.077-10.154-3.731-22t12.115-18.307q46.154-33.385 99.539-50.962Q422.154-939.229 480-939.229q82.615 0 156.269 34.961 73.654 34.962 125.961 99.501v-81.234q0-10.769 7.616-18.384Q777.461-912 788.23-912t18.384 7.615q7.615 7.615 7.615 18.384v137.846q0 13.461-9.346 22.807-9.346 9.347-22.808 9.347H644.23q-10.769 0-18.384-7.616-7.616-7.615-7.616-18.384t7.616-18.384Q633.461-768 644.23-768h81.001q-44.616-57-109.116-88.115-64.5-31.116-136.115-31.116Zm232.846 516.616q44.385-50.77 63.616-113.232 19.231-62.462 10.307-128.386-1.769-12.153 4.846-21.961 6.615-9.807 17.384-9.807 13.538 0 22.346 9.307 8.807 9.308 9.576 22.846 8.924 74.385-14.076 145.116-23 70.731-72.385 127.578-42.385 49.076-98.885 80.884-56.5 31.807-121.73 42.73l69.617 39.925q9.538 6.076 12.577 15.845 3.038 9.769-3.039 19.307-6.076 9.539-16.038 12.577-9.961 3.038-19.499-3.038l-119.23-69.308q-11.847-7.231-15.27-19.5t3.808-24.115l68.923-119.23q6.077-9.538 16.038-12.577 9.961-3.038 19.499 3.039 9.539 6.076 12.885 16.345 3.346 10.269-2.731 19.807l-40.693 69.078q56.385-8 105.769-34.615 49.385-26.615 86.385-68.615Z"/></svg>