<svg xmlns="http://www.w3.org/2000/svg" height="20" viewBox="0 -960 960 960" width="20"><path d="M168-574q0 86 44.5 159T333-301q14 8 19 21t-3 26q-8 14-24 18t-31-4q-92-51-145-140.5T96-575q0-32 5-62.5t15-60.5l-40 23q-13 8-27 3.5T27-689q-8-13-4-27t17-22l125-72q13-8 27-4t22 17l72 126q8 13 4 27t-17 22q-13 8-27 4t-22-17l-33-57q-11 28-17 58t-6 60Zm312-314q-44 0-85 12t-78 35q-14 8-28 6t-22-15q-8-14-4.5-29.5T280-903q45-28 95.5-42.5T480-960q83 0 158 34t130 97v-47q0-15 10.5-25.5T804-912q15 0 25.5 10.5T840-876v144q0 15-10.5 25.5T804-696H660q-15 0-25.5-10.5T624-732q0-15 10.5-25.5T660-768h66q-45-57-109.5-88.5T480-888Zm234 517q39-45 59-99t18-113q-1-16 8.5-28.5T824-624q17 0 28.5 12t11.5 29q2 69-21 133t-67 117q-42 51-98.5 85.5T555-199l40 23q13 8 17 22t-4 27q-8 13-22 17t-27-4l-125-72q-13-8-17-22t4-27l72-125q8-13 22-17t27 4q13 8 17.5 22.5T556-323l-33 56q56-8 105-35t86-69Z"/></svg>