<svg xmlns="http://www.w3.org/2000/svg" height="20" viewBox="0 -960 960 960" width="20"><path d="M170-574q0 104 62.5 187T396-274q8 1 11.5 4t.5 7q-4 5-10.5 6.5T384-257q-105-33-169.5-121T150-576q0-39 8-77.5t25-74.5L68-662q-4 3-7.5 1t-6.5-6q-3-4-2-7t5-6l112-64q10-6 19.5-3.5T204-735l64 113q3 4 2 7t-5 6q-4 3-7 2t-6-5l-54-92q-14 30-21 63.5t-7 66.5Zm310-312q-60 0-114.5 22T266-801q-4 5-8 5.5t-7-3.5q-3-4-2.5-10t3.5-10q48-42 106-64.5T480-906q82 0 153.5 36.5T753-766v-136q0-4 3-7t7-3q4 0 7 3t3 7v128q0 11-7.5 18.5T747-748H619q-4 0-7-3t-3-7q0-4 3-7t7-3h105q-44-57-108.5-87.5T480-886Zm231 516q53-60 71-136t-2-153q-3-6-1-11.5t6-5.5q8 0 12.5 5t6.5 13q20 83-3 164.5T720-349q-43 46-99.5 73.5T500-242l117 67q4 3 5.5 6t-1.5 7q-3 4-6.5 5.5T607-158l-110-65q-10-6-12.5-15.5T488-258l64-110q3-4 6.5-5.5t7.5 1.5q4 3 5.5 6.5T570-358l-53 90q57-8 107-34t87-68Z"/></svg>