<svg xmlns="http://www.w3.org/2000/svg" height="20" viewBox="0 -960 960 960" width="20"><path d="M179.718-574q0 80.022 40.315 148.358 40.315 68.337 109.619 108.142 15.435 9.913 20.435 24.945 5 15.033-4.196 29.946-9.195 15.913-27.109 20.511-17.913 4.598-34.108-5.076-87.457-51.717-137.707-138.946-50.25-87.228-50.25-189.119 0-29.37 4.522-57.598 4.522-28.228 13.565-55.837l-37.13 21.326q-13.718 8.718-28.076 2.066-14.359-6.653-23.076-21.088-9.196-15.152-4.837-31.065 4.359-15.913 19.51-25.109l125.24-72.239q15.152-9.195 31.185-4.717 16.032 4.478 25.228 19.63l71.761 126.24q9.196 15.152 4.717 31.184-4.478 16.033-19.63 25.229-15.152 9.195-31.185 4.717-16.033-4.478-25.228-19.63l-24.87-43.13q-8.848 23.934-13.771 49.869-4.924 25.935-4.924 51.391ZM480-876.282q-38.739 0-74.956 10.206-36.218 10.207-69.391 29.859-16.631 8-32.664 4.924-16.032-3.077-25.228-18.229-9.196-15.674-5.098-33.326t20.011-25.652q42.37-25.13 89.641-37.957 47.272-12.826 97.685-12.826 80.37 0 153.217 32.326 72.848 32.327 126.892 91.979v-43.413q0-15.718 12.532-25.739 12.533-10.022 28.968-10.022 17.152 0 29.326 12.174t12.174 29.326v144q0 17.152-12.174 29.326t-29.326 12.174h-144q-17.153 0-29.327-12.174-12.173-12.174-12.173-29.326t12.173-29.326q12.174-12.174 29.327-12.174h49.978q-42.848-50.544-102.207-78.337-59.358-27.793-125.38-27.793Zm230.174 491.173q33.261-39.5 50.75-86.326 17.489-46.826 16.684-97.934.435-18.152 11.968-31.968 11.533-13.815 28.685-13.815 19.152 0 32.087 13.435 12.935 13.435 11.978 32.348.565 63.978-21.359 123.195-21.924 59.217-62.576 108.63-40.565 50.522-95.271 85.022-54.707 34.5-118.794 49.696l37.609 21.565q13.956 8.717 16.88 24.152 2.924 15.435-6.032 29.87-9.435 15.152-25.468 19.63-16.032 4.479-31.185-4.717l-124.76-72q-15.153-9.196-19.631-25.348t4.717-31.304l72-124.761q9.196-15.152 25.348-19.75 16.153-4.598 31.305 4.837 14.913 9.195 20.011 25.608 5.098 16.414-4.098 31.327l-24.152 40.934q51.456-9.674 95.674-36.196 44.217-26.521 77.63-66.13Z"/></svg>