<svg xmlns="http://www.w3.org/2000/svg" height="24" viewBox="0 -960 960 960" width="24"><path d="M776.615-99.077 644.538-231.154q-15.153 10.231-31.038 18.462t-33.5 15v-42.462q9.846-4.308 18.538-9.115 8.693-4.808 17.769-10.116L260.154-615.538q-19.462 30.384-29.808 65.73Q220-514.461 220-476.462q0 48.847 18.539 94.808 18.538 45.962 57.615 85.039l40.769 40.769v-121.077h40v190.769H186.154v-40H310l-42.154-41.692q-45.923-45.923-66.885-99.577Q180-421.077 180-476.462q0-46.538 13.038-88.807 13.039-42.269 38.116-79.269L99.077-776.615l28.538-28.539 677.539 677.539-28.539 28.538Zm-46.538-217.615-29.231-29.231q18.692-30.154 28.923-65Q740-445.769 740-483.538q0-48.847-18.539-94.808-18.538-45.962-57.615-85.039l-40.769-40.769v121.077h-40v-190.769h190.769v40H650l42.154 41.692q45.923 45.923 66.885 99.577Q780-538.923 780-483.538q0 45.769-13.038 87.807-13.039 42.039-36.885 79.039ZM345.154-701.615l-28.462-28.462q15.154-10.231 30.539-17.846 15.384-7.616 32.769-14.385v42.462q-9.615 4.308-18.192 8.615-8.577 4.308-16.654 9.616Z"/></svg>