<svg xmlns="http://www.w3.org/2000/svg" height="20" viewBox="0 -960 960 960" width="20"><path d="M760.307-162.54 625.769-297.078q-15.076 9.615-30.769 17.731-15.692 8.115-32.999 13.5v-55.229q6.923-3.154 13.269-6.808t12.885-6.808L284.077-639.77q-14.231 23.692-22.155 51.616-7.923 27.923-7.923 57.923 0 49.924 20.27 92.654 20.269 42.731 54.807 73.27l15.386 15.386v-74.54h51.999v167.383H229.078v-51.998h80.923l-13.077-13.848q-43.462-38.461-69.193-92.038-25.73-53.577-25.73-116.269 0-40.769 11.269-78.154 11.269-37.384 31.808-69.384L111.54-812.307l36.768-36.768 648.767 649.767-36.768 36.768Zm-45.77-221.306-38.614-38.614q13.847-24.077 21.962-51.501 8.116-27.423 8.116-57.808 0-49.924-20.27-93.154-20.269-43.231-54.807-73.77l-15.386-15.386v75.54h-51.999v-167.383h167.383v51.998h-80.923l13.077 13.848q43.462 38.461 69.193 92.038 25.73 53.577 25.73 116.269 0 40.384-11.269 78.154-11.269 37.769-32.193 69.769ZM371.076-727.308l-37.23-38.229q15.077-9.616 30.769-17.424 15.692-7.807 33.384-13.192v55.229q-7.308 3.154-13.846 6.808-6.539 3.654-13.077 6.808Z"/></svg>