<svg xmlns="http://www.w3.org/2000/svg" height="20" viewBox="0 -960 960 960" width="20"><path d="M403.03-416Q376-416 358-435.042 340-454.083 340-479q0-27 14-37.5t13-33.5q0-12-4-22.225-4-10.226-4-21.451 0-19.654 11-36.489Q381-647 410-659q14-13 28.5-25t42-12q29.5 0 42.5 13t27 24q29 12 40 28.835t11 36.489q0 11.225-4 21.451-4 10.225-4 21.84-1 22.385 13 32.682 14 10.298 14 38.505Q620-454 601.879-435t-45.152 19H403.03Zm-.03-20h154q18.275 0 30.638-12.5Q600-461 600-479.286q0-8-3-14.857Q594-501 589-507q-8-10-12.5-21.5T572-553q0-11 4-21.5t4-21.5q0-13-7-23t-19-15q-8.1-3.636-14.85-8.182Q532.4-646.727 527-654q-8-11-20.5-16.5T480-676q-14 0-26.5 5.5T433-654q-5.429 7-12.214 12Q414-637 406-634q-12 5-19 15t-7 23q0 11 4 21.5t4 21.5q0 13-4.5 24.5T371-507q-5 6-8 12.857-3 6.857-3 14.857Q360-461 372.362-448.5 384.725-436 403-436ZM244-168v-36q0-11 8.5-23t24.5-21q50-27 101.201-41.5Q429.402-304 480-304q47.876 0 96.438 12.5Q625-279 672-255q21 10 32.5 23.5T716-204v36H244Zm20-20h432v-16q0-7.931-7-15.466Q682-227 669-234q-44.318-24-92.255-37T480-284q-50.626 0-98.813 13Q333-258 291-234q-13 7-20 14.534-7 7.535-7 15.466v16Zm216 1Zm0-249Z"/></svg>