<svg xmlns="http://www.w3.org/2000/svg" height="20" viewBox="0 -960 960 960" width="20"><path d="M403.03-401q-56.363 0-95.697-39.375Q268-479.75 268-536q0-21.143 6.5-41.156Q281-597.169 293-614q-3-8.75-4.5-17.6-1.5-8.851-1.5-19.076Q287-690 309-723.5t58-50.5q22-24 52-37.5t61.5-13.5q31.5 0 61 13.5T593-774q36 17 58 50.5t22 72.824q0 10.225-1.5 19.076-1.5 8.85-4.5 17.215 12 16.216 18.5 36.026 6.5 19.811 6.5 42.161 0 56.531-39.455 95.865Q613.091-401 556.727-401H403.03ZM158-45v-132q0-32.302 17.695-61.099Q193.391-266.896 224-284q60-33 124.66-51T480-353q65.876 0 127.938 15.5T725-292q35.609 17.958 56.305 47.979Q802-214 802-177.055V-45H158Z"/></svg>