<svg xmlns="http://www.w3.org/2000/svg" height="24" viewBox="0 -960 960 960" width="24"><path d="M400-409.609q-54.71 0-93.008-38.297-38.297-38.298-38.297-93.008 0-22.646 6.717-42.719 6.718-20.072 20.153-36.542-3.435-9.294-5.153-19.516-1.717-10.223-1.717-21.223 0-40.261 21.913-72.305 21.913-32.043 56.609-47.739 21.131-23.565 50.109-37.413 28.978-13.848 62.674-13.848t62.674 13.848q28.978 13.848 50.109 37.413 34.696 15.696 56.609 47.739 21.913 32.044 21.913 72.305 0 11-1.717 21.223-1.718 10.222-5.153 19.516 13.435 16.47 20.153 36.542 6.717 20.073 6.717 42.719 0 54.71-38.297 93.008Q614.71-409.609 560-409.609H400ZM140.782-51.172v-132.349q0-39.258 20.436-72.165 20.437-32.908 54.303-50.227 63.696-31.566 129.934-47.631Q411.692-369.609 480-369.609q69.391 0 135.652 15.782 66.261 15.783 128.827 47.348 33.866 17.238 54.303 49.989 20.436 32.751 20.436 72.938v132.38H140.782Z"/></svg>