<svg xmlns="http://www.w3.org/2000/svg" height="24" viewBox="0 -960 960 960" width="24"><path d="M400-424.615q-33.846 0-56.923-23.846Q320-472.308 320-504.615q0-27.385 12.384-40.347 12.385-12.961 15.616-34.346-.923-11.538-4.462-22.538-3.538-11-3.538-22.769 0-25.693 13.961-45.962 13.962-20.269 43.885-32.731 15.385-15.308 33.154-28.308 17.769-13 49-13 32.769 0 49.769 13.77 17 13.769 32.385 27.538 29.923 12.462 43.885 32.731Q620-650.308 620-624.615q0 11.769-3.538 22.769-3.539 11-4.462 22.538 3.231 21.385 15.616 34.346Q640-532 640-504.615q0 32.307-23.077 56.154-23.077 23.846-56.923 23.846H400ZM200-135.384v-65.847q0-24.769 14.423-46.346 14.423-21.577 38.808-33.5 56.615-27.154 113.307-40.731Q423.231-335.385 480-335.385q56.769 0 113.462 13.577 56.692 13.577 113.307 40.731 24.385 11.923 38.808 33.5Q760-226 760-201.231v65.847H200Z"/></svg>