<svg xmlns="http://www.w3.org/2000/svg" height="24" viewBox="0 -960 960 960" width="24"><path d="M790.523-47.216q-44.305 0-75.153-30.848-30.848-30.848-30.848-75.153v-38.348q-71.261-17.391-117.892-74.599Q520-323.372 520-400v-188.695q0-44.305 30.631-75.153 30.631-30.848 75.37-30.848h217.39q44.305 0 75.154 30.848 30.848 30.848 30.848 75.153V-400q0 76.628-46.631 133.836-46.63 57.208-117.891 74.599v44h69.825q20.957 0 35.566 14.609 14.609 14.609 14.609 35.566t-14.609 35.565q-14.609 14.61-35.566 14.61h-64.173Zm14.173-400.132h44.348v-147H620.349v67h24.347q34.622 0 65.572 15.565 30.95 15.565 52.081 43.261 7.435 10.304 18.781 15.739 11.347 5.435 23.566 5.435Zm-589.567 195.61h-18.52q-44.305 0-75.154-30.848-30.848-30.848-30.848-75.153v-312.435q-20.957 0-35.565-14.609-14.61-14.609-14.61-35.566t14.61-35.565q14.608-14.609 35.565-14.609H215.13v-48.695h-20q-20.957 0-35.565-14.609-14.609-14.609-14.609-35.566t14.609-35.565q14.608-14.609 35.565-14.609h140.349q20.957 0 35.566 14.609 14.608 14.608 14.608 35.565 0 20.957-14.608 35.566-14.609 14.609-35.566 14.609h-20v48.695H440q20.957 0 35.566 14.609 14.608 14.608 14.608 35.565 0 20.957-14.608 35.566-14.609 14.609-35.566 14.609v312.435q0 44.305-30.848 75.153-30.848 30.848-75.153 30.848h-18.521v172.652q0 16.522-14.391 23.935-14.392 7.413-27.783-2.848L236.216-85.39q-10.261-7.696-15.674-18.805t-5.413-23.935v-123.608Zm-24.173-100.349h148.695v-48.695h-56.999q-17.2 0-30.101-12.876-12.9-12.876-12.9-30.044t12.9-30.124q12.901-12.957 30.101-12.957h56.999v-48.695h-56.999q-17.2 0-30.101-12.876-12.9-12.876-12.9-30.044t12.9-30.125q12.901-12.956 30.101-12.956h56.999v-48.695H190.956v318.087Z"/></svg>