<svg xmlns="http://www.w3.org/2000/svg" height="20" viewBox="0 -960 960 960" width="20"><path d="M729.611-154.461q-23.419 0-39.899-16.631-16.481-16.631-16.481-39.985v-69.615q-58.769-5.077-97.385-47.962Q537.231-371.538 537.231-432v-143.385q0-22.654 16.577-39.634Q570.385-632 593.846-632h190.77q22.654 0 39.634 16.981 16.981 16.98 16.981 39.634V-432q0 60.462-38.615 103.346-38.616 42.885-97.385 47.962v69.615q0 10.77 6.923 17.693 6.923 6.923 17.692 6.923h67.138q6.747 0 11.497 4.547t4.75 11.269q0 6.722-4.622 11.453-4.623 4.731-11.456 4.731h-67.542ZM756.231-436h53v-139.385q0-10-7.308-17.307Q794.616-600 784.616-600h-190.77q-10.769 0-17.692 7.308-6.923 7.307-6.923 17.307V-508h52q23.67 0 45.412 11.692 21.742 11.693 35.434 32.616 9.693 13.846 24.142 20.769Q740.669-436 756.231-436ZM307.077-312.615H256q-23.354 0-39.985-16.631t-16.631-39.985V-648h-10.769q-6.5 0-11.25-4.547t-4.75-11.27q0-6.722 4.6-11.452 4.6-4.731 11.4-4.731h118.462v-81.231h-36.308q-6.8 0-11.4-4.547-4.6-4.547-4.6-11.27 0-6.722 4.6-11.452 4.6-4.731 11.4-4.731h104.616q6.8 0 11.4 4.547 4.6 4.547 4.6 11.269t-4.6 11.453q-4.6 4.731-11.4 4.731h-36.308V-680h118.461q6.801 0 11.401 4.547t4.6 11.269q0 6.722-4.6 11.453-4.6 4.731-11.401 4.731h-10.769v278.769q0 23.354-16.631 39.985-16.63 16.631-39.984 16.631h-51.077v154.207q0 5.793-6.116 6.908-6.115 1.116-9.5-3.038l-13.384-17.693q-.846-1.923-1.923-4.597-1.077-2.675-1.077-6.018v-129.769Zm-51.077-32h134.154q10.769 0 17.692-6.924 6.923-6.923 6.923-17.692v-68.923h-79.692q-4.677 0-8.185-3.507-3.508-3.508-3.508-8.185 0-4.677 3.508-8.185 3.508-3.508 8.185-3.508h79.692v-69.538h-79.692q-4.677 0-8.185-3.508-3.508-3.507-3.508-8.184t3.508-8.185q3.508-3.508 8.185-3.508h79.692V-648H231.385v278.769q0 10.769 6.923 17.692 6.923 6.924 17.692 6.924Z"/></svg>