<svg xmlns="http://www.w3.org/2000/svg" height="20" viewBox="0 -960 960 960" width="20"><path d="M479-136q-70.539 0-133.231-26.923-62.692-26.923-109.808-74.038-47.115-47.116-74.038-109.808Q135-409.461 135-480q0-71.539 26.923-133.731 26.923-62.192 74.038-109.308 47.116-47.115 109.808-74.038Q408.461-824 479-824q71.539 0 133.731 26.923 62.192 26.923 109.308 74.038 47.115 47.116 74.038 109.308Q823-551.539 823-480q0 70.539-26.923 133.231-26.923 62.692-74.038 109.808-47.116 47.115-109.308 74.038Q550.539-136 479-136Zm278-204H361.539l-84 84h419q18.23-18.692 33.538-39.577Q745.385-316.461 757-340Zm32.538-116H477.539l-84 84h378.307q7.616-20.231 12.039-41.615Q788.308-435 789.538-456Zm-12.692-116H594.308l-84.769 84h281.999q-.23-21-4.153-42.385-3.923-21.384-10.539-41.615Zm-65.923-117.385L625.539-604H766q-11.615-24-25-45.731-13.385-21.73-30.077-39.654Zm-463.846 418.77 440.538-440.539q-41.538-38.154-95.269-59.5Q538.615-792 479-792q-130 0-221 91t-91 221q0 60.385 21.346 114.115 21.346 53.731 58.731 95.27ZM479-168q48.231 0 93.308-15.269Q617.384-198.538 654-224H304q36.616 25.462 81.692 40.731Q430.769-168 479-168Z"/></svg>