<svg xmlns="http://www.w3.org/2000/svg" height="24" viewBox="0 -960 960 960" width="24"><path d="M184.615-160q-26.846 0-45.731-18.884Q120-197.769 120-224.615v-78.462q0-13.923 9.192-23.115 9.192-9.193 23.115-9.193h655.386q13.923 0 23.115 9.193Q840-317 840-303.077v78.462q0 26.846-18.884 45.731Q802.231-160 775.385-160h-590.77ZM480-455.384q-35.231 0-54.308 20-19.077 20-65.846 20-46.769 0-65.615-20-18.847-20-54.077-20-30.308 0-47.808 16.192t-50.577 21.885q-8.308 1.923-15.038-3.808-6.731-5.731-6.731-14.27 0-8.538 6.115-14.5 6.116-5.961 14.423-9.346 23.923-5.923 42.77-21.038 18.846-15.116 56.846-15.116 46.769 0 65.615 20 18.846 20 54.077 20 35.231 0 54.308-20 19.077-20 65.846-20 46.769 0 65.846 20 19.077 20 54.308 20 35.231 0 53.308-20 18.077-20 64.846-20 37.538 0 57.385 15 19.846 15 43.769 20.923 8.307 3.385 14.423 9.462Q840-443.923 840-435.385q0 8.539-6.615 14.27-6.616 5.731-14.923 3.808Q786.385-423 769.5-439.192q-16.884-16.192-47.192-16.192-35.231 0-55.308 20-20.077 20-66.846 20-46.769 0-65.846-20-19.077-20-54.308-20ZM480-800q65.539 0 129.731 9.269T725.039-759.5q51.115 21.961 83.038 59.385Q840-662.692 840-606.154q0 12.385-9.192 21.577-9.192 9.192-21.577 9.192H150.769q-12.385 0-21.577-9.192Q120-593.769 120-606.154q0-56.538 31.923-93.961 31.923-37.424 83.038-59.385 51.116-21.962 115.308-31.231Q414.461-800 480-800Z"/></svg>