<svg xmlns="http://www.w3.org/2000/svg" height="20" viewBox="0 -960 960 960" width="20"><path d="m133.002-502.768 158.461-159.461q10.846-10.846 24.422-15.769 13.577-4.923 28.654-2.308l73.308 9.385q-40.384 49.384-76.038 103.038-35.654 53.653-60.269 113.268l-148.538-48.153ZM316-448.846q26.539-66.23 67-123.807 40.462-57.577 90.846-104.961 68.461-65.461 148.46-105.884 79.999-40.423 183.923-29.192 11.23 102.923-29.885 182.422t-104.577 147.96q-47.768 51.769-105.46 92.654-57.692 40.884-123.923 67.423L316-448.846Zm223.384-96.384q18.307 18.307 44.076 18.307 25.769 0 44.077-18.307 18.307-18.308 18.307-43.884 0-25.577-18.307-43.885-18.308-18.307-44.077-18.307t-44.076 18.307q-18.308 18.308-18.308 43.885 0 25.576 18.308 43.884Zm-43.232 406.766-47.768-148.537q59.615-25.616 113.576-60.962 53.961-35.346 102.345-75.73l21.77 48.308q4.615 22.076-5.116 41.961-9.73 19.884-25.577 35.73l-159.23 159.23ZM197.925-329.077q26.23-26.23 63.96-26.345 37.73-.116 63.961 26.115 26.23 26.23 24.23 62.46-2 36.23-28.23 63.461-41.692 44.692-97.461 55.461-55.769 10.769-96.844 14.538 3.769-41.076 15.73-97.037 11.962-55.961 54.654-98.653Z"/></svg>