<svg xmlns="http://www.w3.org/2000/svg" height="20" viewBox="0 -960 960 960" width="20"><path d="m243.391-554.652 72.5 23.847q13.805-25.369 28.37-49.597 14.565-24.228 30.891-48.076l-51.652-6.283-80.109 80.109Zm141.348 69.065L484.587-385.5q49.435-26.674 91.239-55.098t79.565-66.185q58.805-58.804 98.066-130.011 39.26-71.206 40.217-156.88-86.674.957-157.761 39.717-71.087 38.761-129.891 97.566-37.761 37.761-66.685 79.565-28.924 41.804-54.598 91.239Zm172.87-71.783q-20.522-20.521-20.522-49.804t20.522-49.804q20.522-20.522 49.685-20.522 29.163 0 49.684 20.522 20.522 20.521 20.522 49.804t-20.522 49.804q-20.521 20.522-49.684 20.522-29.163 0-49.685-20.522Zm-3.196 313.979 80.348-80.109-6.283-51.652q-23.848 16.326-48.076 31.011-24.228 14.685-49.597 28.489l23.608 72.261Zm313.935-625.718q25.283 111.565-19.815 222.076T722.674-455.761q-.478.478-9.076 9.696-8.598 9.217-9.076 9.695l12 101.718q2.478 19.63-3.739 37.761-6.218 18.13-20.37 32.283L518.826-91.021l-73.022-214.957-138.826-139.826-215.957-73.022 173.827-174.587q14.152-14.152 32.163-20.37 18.011-6.217 37.641-3.739l101.718 13q.478-.478 10.576-9.837 10.097-9.359 10.576-9.837 80.761-80.761 190.011-125.978 109.25-45.218 220.815-18.935ZM168.195-329.804q34.392-32.392 80.642-31.892 46.25.5 80.641 34.892 32.392 32.391 32.892 77.641.5 45.25-29.892 79.642-44.913 50.913-114.196 64.728Q149-90.978 82.847-80.934q10.044-65.153 23.24-133.555 13.195-68.402 62.108-115.315Zm52.892 64.891q-16.522 16.522-21.065 36.891-4.544 20.37-11.544 41.696 21.326-6 41.196-11.283 19.869-5.282 35.391-21.804 10.044-11.043 12.304-25.25 2.261-14.206-7.782-24.25-10.044-10.043-23.75-8.043-13.707 2-24.75 12.043Z"/></svg>