<svg xmlns="http://www.w3.org/2000/svg" height="20" viewBox="0 -960 960 960" width="20"><path d="m246.652-565.088 65 20.913q12.174-21.782 24.782-42.913 12.609-21.13 26.652-42.042l-47.087-5.305-69.347 69.347Zm145.914 74.609 96.913 97.478q51.391-28.956 91.565-55.913 40.174-26.956 77.608-64.391 57.174-57.174 96.109-125.934Q793.696-708 795.957-795.957 707-793.696 638.522-755.261q-68.478 38.435-125.652 95.609-37.435 37.434-64.891 77.608-27.456 40.174-55.413 91.565Zm176.783-78.305q-19.87-19.869-19.87-48.173 0-28.305 19.87-48.174 19.869-19.87 47.891-19.87t47.891 19.87q19.87 19.869 19.87 48.174 0 28.304-19.87 48.173-19.869 19.87-47.891 19.87t-47.891-19.87Zm-4.826 322.132 69.912-69.347-5.305-47.087q-20.912 14.043-42.042 26.935-21.131 12.891-42.913 25.064l20.348 64.435ZM887.915-888.35q24.304 124.61-21.609 238.545-45.913 113.935-126.348 194.37-1.13 1.131-10.544 11.326-9.413 10.196-10.543 11.327l12 102.695q3.13 23.218-4.065 44.936-7.196 21.718-24.283 38.805L524.044-67.868l-79.87-231.262L300.13-444.174l-232.262-79.87L246.91-703.523q17.088-17.087 38.523-24.283 21.435-7.195 44.653-4.065l102.695 13q1.131-1.13 12.044-10.978 10.913-9.848 12.044-10.979 80.434-80.434 193.435-126.63 113-46.196 237.61-20.892Zm-733.09 560.176q37.652-35.652 87.653-35.152 50 .5 87.652 38.152 35.653 35.653 36.153 84.653.5 49-33.153 86.653-47.521 53.522-123.326 69.13-75.805 15.61-144.893 24.349 8.74-68.088 23.566-143.175 14.826-75.088 66.348-124.61Zm63.653 75.653q-15.869 15.87-19.108 32.652-3.24 16.782-10.24 35.826 19.044-6 35.326-10.305 16.282-4.304 31.152-20.173 8.739-9.739 10.674-21.5 1.934-11.761-6.805-20.5-8.739-8.739-19.999-6.739-11.261 2-21 10.739Z"/></svg>