<svg xmlns="http://www.w3.org/2000/svg" height="24" viewBox="0 -960 960 960" width="24"><path d="m228.391-566.652 72.5 30.847q12.805-25.369 26.37-49.097 13.565-23.728 29.891-47.576L304.5-642.761l-76.109 76.109Zm145.348 87.065L485.587-368.5q43.435-17.674 90.239-49.598t88.565-73.685q68.805-68.804 108.066-152.511 39.26-83.706 35.217-157.38-73.674-4.043-157.761 35.217-84.087 39.261-152.891 108.066-41.761 41.761-73.685 88.565-31.924 46.804-49.598 90.239Zm180.87-69.783q-22.522-22.521-22.522-55.304t22.522-55.304q22.522-22.522 55.685-22.522 33.163 0 55.684 22.522 22.522 22.521 22.522 55.304t-22.522 55.304q-22.521 22.522-55.684 22.522t-55.685-22.522Zm17.804 326.979 76.348-76.109-10.283-52.652q-23.848 16.326-47.576 29.511-23.728 13.185-49.097 25.989l30.608 73.261Zm319.935-664.718q18.283 130.565-24.815 247.576T720.674-418.761q-.478.478-1.076 1.196-.598.717-1.076 1.195l20 99.718q4.478 22.63-2.239 44.261-6.718 21.63-22.87 37.783L541.826-63.021l-89.022-208.957-174.826-174.826-208.957-89.022 170.827-171.587q16.152-16.152 38.163-22.87 22.011-6.717 44.641-2.239l99.718 20q.478-.478 1.076-.837.597-.359 1.076-.837 103.761-103.761 220.511-147.478 116.75-43.718 247.315-25.435ZM147.195-319.804q37.392-37.392 90.642-37.892 53.25-.5 90.641 36.892 37.392 37.391 36.892 90.641-.5 53.25-37.892 90.642-26.913 26.913-90.196 46.228Q174-73.978 68.847-60.934q13.044-105.153 32.24-168.555 19.195-63.402 46.108-90.315Zm64.892 63.891q-9.522 9.522-18.565 33.391-9.044 23.87-13.044 49.196 25.326-4 49.196-12.783 23.869-8.782 33.391-18.304 11.044-11.043 11.804-26.25.761-15.206-10.282-26.25-11.044-11.043-26.25-10.543-15.207.5-26.25 11.543Z"/></svg>