<svg xmlns="http://www.w3.org/2000/svg" height="24" viewBox="0 -960 960 960" width="24"><path d="m123.002-522.768 156.461-156.461q12.846-12.846 29.922-18.269 17.077-5.423 35.154-1.808l54.308 11.385q-49.384 59.384-79.038 107.538-29.654 48.153-58.269 116.768l-138.538-59.153ZM308-444.846q24.539-66.23 62.5-125.807 37.962-59.577 89.346-110.961 81.461-81.461 181.96-121.884 100.499-40.423 200.423-29.192 11.23 99.923-28.885 200.422t-121.577 181.96q-50.768 50.769-110.96 89.154-60.192 38.384-126.423 62.923L308-444.846ZM569.384-560.23q20.307 20.307 49.576 20.307 29.269 0 49.577-20.307 20.307-20.308 20.307-49.384 0-29.077-20.307-49.385-20.308-20.307-49.577-20.307t-49.576 20.307q-20.308 20.308-20.308 49.385 0 29.076 20.308 49.384Zm-37.232 446.766-59.768-138.537q68.615-28.616 117.076-58.462 48.461-29.846 107.845-79.23l10.77 54.308q3.615 18.076-1.616 35.461-5.23 17.384-18.077 30.23l-156.23 156.23ZM183.925-316.077q29.23-29.23 70.96-29.345 41.73-.116 70.961 29.115 29.23 29.23 29.23 70.96 0 41.73-29.23 70.961-22.692 22.692-74.461 38.961t-132.844 26.038q9.769-81.076 26.23-132.537 16.462-51.461 39.154-74.153Z"/></svg>