<svg xmlns="http://www.w3.org/2000/svg" height="20" viewBox="0 -960 960 960" width="20"><path d="M329.86-312q10.14 0 17.14-6.86 7-6.859 7-17 0-10.14-6.86-17.14-6.859-7-17-7-10.14 0-17.14 6.86-7 6.859-7 17 0 10.14 6.86 17.14 6.859 7 17 7Zm0-144q10.14 0 17.14-6.86 7-6.859 7-17 0-10.14-6.86-17.14-6.859-7-17-7-10.14 0-17.14 6.86-7 6.859-7 17 0 10.14 6.86 17.14 6.859 7 17 7Zm0-144q10.14 0 17.14-6.86 7-6.859 7-17 0-10.14-6.86-17.14-6.859-7-17-7-10.14 0-17.14 6.86-7 6.859-7 17 0 10.14 6.86 17.14 6.859 7 17 7ZM452-326h188q4.25 0 7.125-2.825 2.875-2.824 2.875-7 0-4.175-2.875-7.175T640-346H452q-4.25 0-7.125 2.825-2.875 2.824-2.875 7 0 4.175 2.875 7.175t7.125 3Zm0-144h188q4.25 0 7.125-2.825 2.875-2.824 2.875-7 0-4.175-2.875-7.175T640-490H452q-4.25 0-7.125 2.825-2.875 2.824-2.875 7 0 4.175 2.875 7.175t7.125 3Zm0-144h188q4.25 0 7.125-2.825 2.875-2.824 2.875-7 0-4.175-2.875-7.175T640-634H452q-4.25 0-7.125 2.825-2.875 2.824-2.875 7 0 4.175 2.875 7.175t7.125 3ZM248-196q-22.7 0-37.35-14.65Q196-225.3 196-248v-464q0-22.7 14.65-37.35Q225.3-764 248-764h464q22.7 0 37.35 14.65Q764-734.7 764-712v464q0 22.7-14.65 37.35Q734.7-196 712-196H248Z"/></svg>