<svg xmlns="http://www.w3.org/2000/svg" height="20" viewBox="0 -960 960 960" width="20"><path d="M323.789-294Q339-294 349.5-304.289q10.5-10.29 10.5-25.5Q360-345 349.711-355.5q-10.29-10.5-25.5-10.5Q309-366 298.5-355.711q-10.5 10.29-10.5 25.5Q288-315 298.289-304.5q10.29 10.5 25.5 10.5Zm0-150Q339-444 349.5-454.289q10.5-10.29 10.5-25.5Q360-495 349.711-505.5q-10.29-10.5-25.5-10.5Q309-516 298.5-505.711q-10.5 10.29-10.5 25.5Q288-465 298.289-454.5q10.29 10.5 25.5 10.5Zm0-150Q339-594 349.5-604.289q10.5-10.29 10.5-25.5Q360-645 349.711-655.5q-10.29-10.5-25.5-10.5Q309-666 298.5-655.711q-10.5 10.29-10.5 25.5Q288-615 298.289-604.5q10.29 10.5 25.5 10.5ZM468-294h168q15.3 0 25.65-10.289 10.35-10.29 10.35-25.5Q672-345 661.65-355.5 651.3-366 636-366H468q-15.3 0-25.65 10.289-10.35 10.29-10.35 25.5Q432-315 442.35-304.5 452.7-294 468-294Zm0-150h168q15.3 0 25.65-10.289 10.35-10.29 10.35-25.5Q672-495 661.65-505.5 651.3-516 636-516H468q-15.3 0-25.65 10.289-10.35 10.29-10.35 25.5Q432-465 442.35-454.5 452.7-444 468-444Zm0-150h168q15.3 0 25.65-10.289 10.35-10.29 10.35-25.5Q672-645 661.65-655.5 651.3-666 636-666H468q-15.3 0-25.65 10.289-10.35 10.29-10.35 25.5Q432-615 442.35-604.5 452.7-594 468-594ZM228-110q-49.7 0-83.85-34.15Q110-178.3 110-228v-504q0-49.7 34.15-83.85Q178.3-850 228-850h504q49.7 0 83.85 34.15Q850-781.7 850-732v504q0 49.7-34.15 83.85Q781.7-110 732-110H228Z"/></svg>