<svg xmlns="http://www.w3.org/2000/svg" height="20" viewBox="0 -960 960 960" width="20"><path d="M384.615-142.154q-23.546 0-40.081-16.534Q328-175.223 328-198.769V-328H198.769q-23.546 0-40.081-16.534-16.534-16.535-16.534-40.081v-190.77q0-23.546 16.534-40.081Q175.223-632 198.769-632H328v-129.231q0-23.546 16.534-40.081 16.535-16.534 40.081-16.534h190.77q23.546 0 40.081 16.534Q632-784.777 632-761.231V-632h129.231q23.546 0 40.081 16.534 16.534 16.535 16.534 40.081v190.77q0 23.546-16.534 40.081Q784.777-328 761.231-328H632v129.231q0 23.546-16.534 40.081-16.535 16.534-40.081 16.534h-190.77ZM174.154-496H360q4.313 0 7.349 1.308 3.036 1.307 5.853 5.728l58.952 88.348 82.077-196.23q3.461-4.616 6.339-5.885Q523.448-604 528-604q4.313 0 7.734 1.308 3.42 1.307 6.112 5.461L608.231-496h177.615v-79.385q0-10.769-6.923-17.692T761.231-600H628.308q-12.223 0-20.266-8.042Q600-616.085 600-628.308v-132.923q0-10.769-6.923-17.692t-17.692-6.923h-190.77q-10.769 0-17.692 6.923T360-761.231v132.923q0 12.223-8.042 20.266Q343.915-600 331.692-600H198.769q-10.769 0-17.692 6.923t-6.923 17.692V-496Zm0 32v79.385q0 10.769 6.923 17.692T198.769-360h132.923q12.223 0 20.266 8.042Q360-343.915 360-331.692v132.923q0 10.769 6.923 17.692t17.692 6.923h190.77q10.769 0 17.692-6.923T600-198.769v-132.923q0-12.223 8.042-20.266Q616.085-360 628.308-360h132.923q10.769 0 17.692-6.923t6.923-17.692V-464H600q-4.313 0-7.734-1.192-3.42-1.193-5.343-5.346l-59.077-87.846-82.077 195.23q-3.461 4.616-6.192 5.885-2.731 1.269-7.992 1.269-4.165 0-7.067-1.308-2.903-1.307-5.595-5.461L351.769-464H174.154Zm-32 0h32v79.385q0 10.769 6.923 17.692T198.769-360h132.923q12.223 0 20.266 8.042Q360-343.915 360-331.692v132.923q0 10.769 6.923 17.692t17.692 6.923h190.77q10.769 0 17.692-6.923T600-198.769v-132.923q0-12.223 8.042-20.266Q616.085-360 628.308-360h132.923q10.769 0 17.692-6.923t6.923-17.692V-464h32v-32h-32v-79.385q0-10.769-6.923-17.692T761.231-600H628.308q-12.223 0-20.266-8.042Q600-616.085 600-628.308v-132.923q0-10.769-6.923-17.692t-17.692-6.923h-190.77q-10.769 0-17.692 6.923T360-761.231v132.923q0 12.223-8.042 20.266Q343.915-600 331.692-600H198.769q-10.769 0-17.692 6.923t-6.923 17.692V-496h-32v32Z"/></svg>