<svg xmlns="http://www.w3.org/2000/svg" height="20" viewBox="0 -960 960 960" width="20"><path d="M384.615-142.154q-23.354 0-39.984-16.63Q328-175.415 328-198.769V-328H198.769q-23.354 0-39.985-16.631-16.63-16.63-16.63-39.984V-464h209.615l67.154 101.231q2.692 4.154 5.595 5.461 2.902 1.308 7 1.308 5.328 0 8.059-1.269 2.731-1.269 6.192-5.885l82.077-195.23 59.077 87.846q2.014 4.239 5.57 5.389Q596.049-464 600-464h217.846v79.385q0 23.354-16.63 39.984Q784.585-328 761.231-328H632v129.231q0 23.354-16.631 39.985-16.63 16.63-39.984 16.63h-190.77Zm47.539-258.462-58.952-88.348q-2.817-4.421-5.853-5.728Q364.313-496 360-496H142.154v-79.385q0-23.354 16.63-39.984Q175.415-632 198.769-632H328v-129.231q0-23.354 16.631-39.985 16.63-16.63 39.984-16.63h190.77q23.354 0 39.984 16.63Q632-784.585 632-761.231V-632h129.231q23.354 0 39.985 16.631 16.63 16.63 16.63 39.984V-496H608.231l-66.385-101.231q-2.575-3.897-6.113-5.333-3.538-1.436-7.469-1.436-5.11 0-7.841 1.269t-6.192 5.885l-82.077 196.23Z"/></svg>