<svg xmlns="http://www.w3.org/2000/svg" height="20" viewBox="0 -960 960 960" width="20"><path d="M392-156q-21.7 0-36.85-15.15Q340-186.3 340-208v-132H208q-21.7 0-36.85-15.15Q156-370.3 156-392v-176q0-21.7 15.15-36.85Q186.3-620 208-620h132v-132q0-21.7 15.15-36.85Q370.3-804 392-804h176q21.7 0 36.85 15.15Q620-773.7 620-752v132h132q21.7 0 36.85 15.15Q804-589.7 804-568v176q0 21.7-15.15 36.85Q773.7-340 752-340H620v132q0 21.7-15.15 36.85Q589.7-156 568-156H392ZM176-490h184q2.929 0 4.464.5 1.536.5 3.661 3.767L434-387l86-208q3-3 4.147-3H528q2.929 0 4.964.5Q535-597 537-594l68 104h179v-78q0-14-9-23t-23-9H626q-11.3 0-18.65-7.35Q600-614.7 600-626v-126q0-14-9-23t-23-9H392q-14 0-23 9t-9 23v126q0 11.3-7.35 18.65Q345.3-600 334-600H208q-14 0-23 9t-9 23v78Zm0 20v78q0 14 9 23t23 9h126q11.3 0 18.65 7.35Q360-345.3 360-334v126q0 14 9 23t23 9h176q14 0 23-9t9-23v-126q0-11.3 7.35-18.65Q614.7-360 626-360h126q14 0 23-9t9-23v-78H600q-2.929 0-4.964-.5Q593-471 592-474l-66-98-86 207q-3 3-4 3h-4.415q-2.78 0-4.183-.5Q426-363 424-366l-69-104H176Zm-20 0h20v78q0 14 9 23t23 9h126q11.3 0 18.65 7.35Q360-345.3 360-334v126q0 14 9 23t23 9h176q14 0 23-9t9-23v-126q0-11.3 7.35-18.65Q614.7-360 626-360h126q14 0 23-9t9-23v-78h20v-20h-20v-78q0-14-9-23t-23-9H626q-11.3 0-18.65-7.35Q600-614.7 600-626v-126q0-14-9-23t-23-9H392q-14 0-23 9t-9 23v126q0 11.3-7.35 18.65Q345.3-600 334-600H208q-14 0-23 9t-9 23v78h-20v20Z"/></svg>