<svg xmlns="http://www.w3.org/2000/svg" height="24" viewBox="0 -960 960 960" width="24"><path d="M384.615-126.154q-26.654 0-45.634-18.98Q320-164.115 320-190.769V-320H190.769q-26.654 0-45.635-18.981-18.98-18.98-18.98-45.634V-460h222.615l74.154 111.231q2.692 4.154 6.692 6.461 4 2.308 9.318 2.308 6.913 0 12.144-3.769t7.692-10.385l67.077-201.23 57.077 85.846q3.014 4.239 7.534 6.889Q594.977-460 600-460h233.846v75.385q0 26.654-18.98 45.634Q795.885-320 769.231-320H640v129.231q0 26.654-18.981 45.635-18.98 18.98-45.634 18.98h-190.77Zm49.539-278.462-58.077-86.615q-2.692-4.154-6.692-6.461-4-2.308-9.385-2.308H126.154v-75.385q0-26.654 18.98-45.634Q164.115-640 190.769-640H320v-129.231q0-26.654 18.981-45.635 18.98-18.98 45.634-18.98h190.77q26.654 0 45.634 18.98Q640-795.885 640-769.231V-640h129.231q26.654 0 45.635 18.981 18.98 18.98 18.98 45.634V-500H610.231l-73.385-111.231q-2.575-3.897-7.211-6.333Q525-620 519.849-620q-6.695 0-11.426 3.769t-7.192 10.385l-67.077 201.23Z"/></svg>