<svg xmlns="http://www.w3.org/2000/svg" height="20" viewBox="0 -960 960 960" width="20"><path d="M168-540.615q0 76.103 53.077 130.398t129.154 53.987h22.694l-35.77-37.155q-8.307-8.692-7.807-18.332.5-9.641 8.807-17.82 8.693-8.693 18.077-8.693 9.384 0 18.076 8.693l76.773 77.157q4.688 4.688 6.996 10.27 2.307 5.582 2.307 11.961 0 6.38-2.307 11.91-2.308 5.531-6.923 10.546l-76.846 77.615q-8.179 8.692-17.82 8.692-9.64 0-18.333-8.692-8.692-8.692-8.499-19.076.192-10.385 8.499-19.077l36.001-36.77h-22.694q-97.615.308-166.538-68.653Q116.001-442.615 116.001-541q0-98.461 68.809-167.73 68.809-69.269 166.864-69.269h96.172q11.05 0 18.525 7.419 7.475 7.418 7.475 18.384 0 10.966-7.475 18.581T447.846-726h-96q-76.602 0-130.224 54.021Q168-617.957 168-540.615Zm650.04 236.614H603.436q-11.032 0-18.657-7.418t-7.625-18.384q0-10.966 7.463-18.581t18.496-7.615h214.603q11.033 0 18.658 7.418 7.625 7.418 7.625 18.384 0 10.966-7.464 18.581-7.463 7.615-18.495 7.615Zm1.538-213.692L603.436-515q-10.869 0-18.383-7.419-7.514-7.418-7.514-18.384 0-10.966 7.463-18.581t18.495-7.615h215.758q10.667 0 17.705 7.108 7.039 7.108 7.039 17.615 0 10.507-6.877 17.545-6.877 7.038-17.544 7.038ZM813.999-721l-211.846-4q-10.624 0-17.812-8.129-7.187-8.128-7.187-19.094 0-10.966 7.393-18.371 7.392-7.405 18.32-7.405h213.132q11.9 0 19.95 8.054 8.05 8.054 8.05 19.959 0 12.331-8.625 20.658Q826.749-721 813.999-721Z"/></svg>