<svg xmlns="http://www.w3.org/2000/svg" height="20" viewBox="0 -960 960 960" width="20"><path d="M451-199v-231L251-314q-11 6-22.167 2.508-11.166-3.493-17-14.206Q206-336 209.051-347.6 212.103-359.2 223-365l199-115-199-115q-10.897-5.521-13.949-16.761Q206-623 211.833-633.922q5.834-10.922 17.5-14.5Q241-652 252-646l199 116v-231q0-12.014 8.49-20.507 8.49-8.493 20.5-8.493t20.51 8.493Q509-773.014 509-761v231l200-116q11-6 22.167-2.422 11.166 3.578 17 14.5Q754-623 751.312-611.838 748.625-600.676 738-595L538-480l199 115q10.897 5.8 13.949 17.4 3.051 11.6-2.782 22.314-5.834 10.301-17.5 13.794Q719-308 708-314L509-430v231q0 12.014-8.49 20.507-8.49 8.493-20.5 8.493t-20.51-8.493Q451-186.986 451-199Z"/></svg>