<svg xmlns="http://www.w3.org/2000/svg" height="20" viewBox="0 -960 960 960" width="20"><path d="M480.211-728.077q-6.75 0-11.48-4.556Q464-737.188 464-743.99v-87.209q0-6.801 4.52-11.532t11.269-4.731q6.75 0 11.48 4.556Q496-838.351 496-831.549v87.209q0 6.801-4.52 11.532t-11.269 4.731Zm174.981 72.385q-5.884-6.385-6.884-11.539t5.384-11.538l62.652-62.044q5.733-5.572 11.938-5.572 6.205 0 11.487 5.616 6.385 6.384 6.385 11.654 0 5.269-6.385 11.653L678-655.692q-6.384 6.384-11.654 6.384-5.269 0-11.154-6.384ZM743.34-465q-6.801 0-11.532-4.52t-4.731-11.269q0-6.75 4.556-11.48Q736.188-497 742.99-497h87.209q6.801 0 11.532 4.52t4.731 11.269q0 6.75-4.556 11.48Q837.351-465 830.549-465H743.34Zm-26.82 243.813-61.828-62.044q-5.384-6.384-5.384-12.038t5.884-12.039q5.885-6.384 11.039-6.384t11.538 6.384l62.044 61.828q5.572 5.557 5.572 11.762t-5.616 11.487q-5.615 5.616-11.654 6.116-6.038.5-11.595-5.072ZM283.769-653.923l-62.538-63.539q-6.385-6.384-6.385-12.038t6.385-11.269q5.015-5.616 10.469-5.616t11.187 5.398L306.308-679q6.384 6.384 6.769 12.038.384 5.654-6 12.039-6.385 6.384-11.654 6.884t-11.654-5.884Zm3.308 442.538h140.615q32.693 0 56.346-23.859 23.654-23.86 23.654-56.846 0-32.987-23.057-56.256-23.058-23.269-56.174-23.269h-23.692l3.385-1.923q-8.539-48.077-44.231-79.116-35.692-31.038-84.538-31.038-55.385 0-93.847 37.961-38.461 37.962-38.461 93.641 0 58.755 40.769 99.73t99.231 40.975Zm0 32.001q-71.219 0-121.61-50.664-50.39-50.664-50.39-122.269 0-69.298 47.698-116.337 47.699-47.038 116.61-47.038 54.615 0 97.615 31.461 43 31.462 60.615 82.616 40.308 8 70.808 32.307 30.5 24.308 31.269 71.539 1.539 47.308-31.431 82.846-32.97 35.539-80.569 35.539H287.077Zm249.077-158.77q-5.692-6-11.885-12.884-6.192-6.885-11.884-12.885 40.307-11.769 63.961-44.092Q600-440.338 600-481q0-50-35.25-84.5T480-600q-47.308 0-81.597 30.388-34.29 30.388-37.172 75.304-7-3.692-13.731-8.654-6.731-4.961-13.731-8.653 12.385-51.693 52.846-86.039Q427.077-632 480-632q63.077 0 107.539 44.17Q632-543.66 632-481q0 46.923-25.692 85.923t-70.154 56.923ZM481-481Z"/></svg>