<svg xmlns="http://www.w3.org/2000/svg" height="20" viewBox="0 -960 960 960" width="20"><path d="M480.211-723Q476-723 473-725.825t-3-7.087v-91.825q0-4.263 2.789-7.263 2.79-3 7-3 4.211 0 7.211 2.825t3 7.087v91.825q0 4.263-2.789 7.263-2.79 3-7 3ZM651.5-652q-4.5-5-5.5-7.5t4-7.5l65.882-65.043Q720-736 723.667-736q3.666 0 7.333 4 5 5 5 7.5t-5 7.5l-65 65q-5 5-7.5 5t-7-5Zm80.763 181Q728-471 725-473.789q-3-2.79-3-7 0-4.211 2.825-7.211t7.087-3h91.825q4.263 0 7.263 2.789 3 2.79 3 7 0 4.211-2.825 7.211t-7.087 3h-91.825Zm-16.204 241.043L651-295q-4-5-4-8t4.5-8q4.5-5 7-5t7.5 5l65.043 65.059Q735-242 735-238.333q0 3.666-4 7.333-4 4-7.5 4.5t-7.441-3.457ZM296-650l-66-67q-5-5-5-8t5-7q3.4-4 6.2-4 2.8 0 6.918 3.783L310-667q5 5 5.5 8t-4.5 8q-5 5-7.5 5.5T296-650Zm-2 440h136q35 0 60.5-25.706t25.5-61Q516-332 491.212-357T431-382h-20l5 2q-9-49-45.5-80.5T284-492q-57 0-96.5 39T148-356.706q0 61.294 42.5 104T294-210Zm0 20q-68.68 0-117.34-48.933t-48.66-118Q128-423 173.16-467.5T284-512q53 0 94.5 31t57.5 81q38 8 68.5 28.5T536-304q2 45-29.239 79.5T430-190H294Zm238-159q-5-3-10.5-7t-10.5-7q41-12 65-44.438T600-481q0-50-35.25-84.5T480-600q-48 0-82.52 31.196Q362.959-537.609 361-492q-4-3-7.5-7.5T346-507q11-48 48-80.5t86-32.5q58 0 99 40.708 41 40.709 41 98.292 0 43-23.5 79T532-349Zm-51-132Z"/></svg>