<svg xmlns="http://www.w3.org/2000/svg" height="20" viewBox="0 -960 960 960" width="20"><path d="m716.52-221.187-61.828-62.044q-6.384-5.615-5.884-11.653.5-6.039 5.735-12.424 5.236-6.384 11.55-6.384 6.315 0 11.676 6.384l62.044 61.828q5.572 5.557 5.572 11.762t-5.616 11.487q-5.615 5.616-11.654 6.116-6.038.5-11.595-5.072Zm-429.443-33.274q-39.981 0-68.452-28.221-28.471-28.222-28.471-69.203 0-37.807 26.211-63.269 26.212-25.461 63.02-25.461 34.982 0 60.029 24.115 25.048 24.115 28.74 59.115l7.385 28.846h52.922q15.339 0 25.747 10.488 10.407 10.488 10.407 25.677 0 15.61-10.707 26.761-10.708 11.152-26.216 11.152H287.077Zm245.231-82.923q-13.385-28.462-40.192-44.924-26.808-16.461-56.039-17-11.769-38.538-38.462-67.731-26.692-29.192-65.384-40.5 10.846-54.23 52.631-89.346Q426.647-632 480-632q63.333 0 107.667 44.042Q632-543.917 632-481q0 48.636-27.615 87.934-27.616 39.297-72.077 55.682ZM743.34-465q-6.763 0-11.513-4.547t-4.75-11.269q0-6.723 4.575-11.453Q736.227-497 742.99-497h87.209q6.763 0 11.513 4.547t4.75 11.269q0 6.723-4.575 11.453Q837.312-465 830.549-465H743.34ZM283.769-653.923l-62.538-63.539q-6.385-6.384-6.385-12.166t6.217-11.141q5.783-3.847 11.322-4.347 5.538-.5 10.502 4.129L306.308-679q6.384 5.282 6.769 11.487.384 6.205-6 12.59-6.385 6.384-11.654 6.884t-11.654-5.884Zm371.423-1.769q-5.884-6.385-6.884-11.924-1-5.538 5.384-11.153l62.652-62.044q5.733-5.572 11.938-5.572 6.205 0 11.655 5.783 6.217 6.217 6.217 11.487 0 5.269-6.385 11.653L678-655.692q-6.384 6.384-11.654 6.384-5.269 0-11.154-6.384Zm-175.008-72.385q-6.723 0-11.453-4.575Q464-737.227 464-743.99v-87.209q0-6.763 4.547-11.513t11.269-4.75q6.723 0 11.453 4.575Q496-838.312 496-831.549v87.209q0 6.763-4.547 11.513t-11.269 4.75Z"/></svg>