<svg xmlns="http://www.w3.org/2000/svg" height="20" viewBox="0 -960 960 960" width="20"><path d="M480.211-736.521q-20.298 0-34.755-14.282-14.457-14.281-14.457-34.631v-71.825q0-20.35 14.247-34.807 14.246-14.457 34.543-14.457 20.298 0 34.755 14.282 14.457 14.281 14.457 34.631v71.825q0 20.35-14.247 34.807-14.246 14.457-34.543 14.457Zm181.071 74.739q-14.456-14.957-15.456-34.044-1-19.087 13.956-34.044l51.883-52.044q15.074-14.913 34.828-14.913 19.754 0 34.377 14.957 14.957 14.957 14.957 34.544 0 19.587-14.957 34.544l-51 51q-14.957 14.956-34.544 14.956-19.587 0-34.044-14.956Zm123.503 229.783q-20.35 0-34.807-14.247-14.457-14.246-14.457-34.543 0-20.298 14.282-34.755 14.281-14.457 34.631-14.457h71.825q20.35 0 34.807 14.247 14.457 14.246 14.457 34.543 0 20.298-14.282 34.755-14.281 14.457-34.631 14.457h-71.825Zm-72.944 251.913-51.059-52.044q-14.522-15.522-14.522-34.826 0-19.305 15.022-34.827 14.457-14.957 33.544-14.957 19.087 0 34.044 14.957l52.044 51.059q14.913 14.898 14.913 34.934 0 20.037-14.957 34.66-14.957 14.957-34.544 15.457-19.587.5-34.485-14.413ZM231.13-660.782l-51-52q-14.957-14.957-14.957-34.544 0-19.587 14.957-34.544 14.357-14.957 33.744-14.957t34.461 14.739l51.883 51.218q14.956 14.957 14.956 34.544 0 19.587-14.956 34.544-14.957 14.956-34.544 15.456-19.587.5-34.544-14.456ZM264-229.001h154.87q19.347 0 33.173-14.031 13.826-14.032 13.826-33.674 0-20.207-13.614-34.033t-33.951-13.826h-42.783l-5.391-22.348q-5.304-41.043-35.196-67.999-29.891-26.957-70.934-26.957-44.348 0-75.673 30.261-31.326 30.26-31.326 74.902 0 45.207 31.043 76.456 31.043 31.249 75.956 31.249Zm0 98.002q-85.332 0-145.167-60.107-59.834-60.107-59.834-145.827 0-86.85 62.943-145.459 62.943-58.609 150.537-57.478 59.434 0 106.869 33.282 47.435 33.283 72.131 87.153 49.13 8 80.761 45.565 31.63 37.565 31.63 86.696 3.392 62.913-39.304 109.544Q481.87-130.999 420-130.999H264Zm297.87-181.175q-11.957-21.088-24.696-42.958-12.739-21.869-25.261-42.957 27.26-8.173 42.412-31.633 15.152-23.459 15.152-51.278 0-38.13-25.924-63.303Q517.63-569.477 480-569.477q-33.13 0-58.172 19.783-25.041 19.782-29.87 49.955-22.652-9.391-45.24-19.566-22.587-10.174-45.239-19.565 19.261-57.782 68.434-93.195Q419.087-667.478 480-667.478q78.304 0 132.891 54.295Q667.478-558.888 667.478-481q0 54.348-28.195 100.239-28.196 45.891-77.413 68.587ZM481-481Z"/></svg>