<svg xmlns="http://www.w3.org/2000/svg" height="24" viewBox="0 -960 960 960" width="24"><path d="M480-751.521q-22.087 0-37.544-15.457-15.457-15.457-15.457-37.544v-80q0-22.087 15.457-37.544 15.457-15.457 37.544-15.457 22.087 0 37.544 15.457 15.457 15.457 15.457 37.544v80q0 22.087-15.457 37.544-15.457 15.457-37.544 15.457Zm191.782 79.739q-14.956-14.957-14.956-37.044 0-22.087 14.956-37.044l56-57q15.957-15.957 37.544-15.957 21.587 0 37.544 15.957 14.957 14.957 14.957 37.044 0 22.087-14.957 37.044l-57 57q-14.957 14.956-37.044 14.956-22.087 0-37.044-14.956Zm132.74 244.783q-22.087 0-37.544-15.457-15.457-15.457-15.457-37.544 0-22.087 15.457-37.544 15.457-15.457 37.544-15.457h80q22.087 0 37.544 15.457 15.457 15.457 15.457 37.544 0 22.087-15.457 37.544-15.457 15.457-37.544 15.457h-80Zm-76.74 269.869-56-57q-15.522-15.522-15.522-37.326 0-21.805 15.522-37.327 14.957-14.957 37.044-14.957 22.087 0 37.044 14.957l57 56q15.957 15.957 15.957 37.827 0 21.869-15.957 37.826t-37.544 15.957q-21.587 0-37.544-15.957ZM214.13-671.782l-57-57q-14.957-14.957-14.957-37.044 0-22.087 14.957-37.044 15.957-15.957 37.544-15.957 21.587 0 37.544 15.957l56 57q14.956 14.957 14.956 37.044 0 22.087-14.956 37.044-14.957 14.956-37.044 14.956-22.087 0-37.044-14.956ZM240-213.001h178.87q19.347 0 33.173-13.826 13.826-13.825 13.826-33.173 0-19.913-13.326-33.739-13.326-13.826-33.239-13.826h-57.783l-23.391-55.348q-12.304-29.043-39.196-45.999-26.891-16.957-58.934-16.957-44.348 0-75.673 30.761-31.326 30.76-31.326 75.108 0 44.913 31.043 75.956 31.043 31.043 75.956 31.043Zm0 106.002q-88.652 0-150.827-62.174Q27-231.348 27-320q0-89.783 65.283-151.392 65.283-61.609 156.197-60.478 59.434 0 108.369 32.782 48.935 32.783 74.631 86.653 59.13 0 99.761 43.565 40.63 43.565 40.63 104.696 1.392 64.913-43.065 111.044T420-106.999H240Zm331.87-157.175q-8.957-25.088-18.196-49.458-9.239-24.369-18.761-49.457 34.26-16.173 54.412-47.695 20.152-31.521 20.152-69.216 0-54.13-37.674-91.803Q534.13-609.477 480-609.477q-48.13 0-84.651 31.087-36.521 31.086-43.391 78.651-25.652-8.391-51.74-16.066-26.087-7.674-51.739-16.065 16.261-81.782 81.934-132.695Q396.087-715.478 480-715.478q98.304 0 166.891 68.587Q715.478-578.304 715.478-480q0 71.348-39.195 129.739-39.196 58.391-104.413 86.087ZM481-480Z"/></svg>