<svg xmlns="http://www.w3.org/2000/svg" height="24" viewBox="0 -960 960 960" width="24"><path d="M180-324.615q-8.5 0-14.25-5.758T160-344.642q0-8.512 5.75-14.243 5.75-5.73 14.25-5.73h450q8.5 0 14.25 5.757 5.75 5.758 5.75 14.27 0 8.511-5.75 14.242-5.75 5.731-14.25 5.731H180ZM254.615-460q-8.5 0-14.25-5.758-5.75-5.757-5.75-14.269t5.75-14.242q5.75-5.731 14.25-5.731h450q8.501 0 14.251 5.758 5.75 5.757 5.75 14.269t-5.75 14.242Q713.116-460 704.615-460h-450ZM330-595.385q-8.5 0-14.25-5.757-5.75-5.758-5.75-14.27 0-8.511 5.75-14.242 5.75-5.731 14.25-5.731h450q8.5 0 14.25 5.758t5.75 14.269q0 8.512-5.75 14.243-5.75 5.73-14.25 5.73H330Z"/></svg>