<svg xmlns="http://www.w3.org/2000/svg" height="20" viewBox="0 -960 960 960" width="20"><path d="M173.217-249.563q-20.585 0-34.51-14.246-13.925-14.247-13.925-34.683 0-20.437 13.925-34.472t34.51-14.035h453.739q20.585 0 34.51 14.246 13.925 14.246 13.925 34.683 0 20.436-13.925 34.471-13.925 14.036-34.51 14.036H173.217Zm79.913-181.436q-20.585 0-34.51-14.247-13.925-14.246-13.925-34.682 0-20.437 13.925-34.472t34.51-14.035h453.74q20.585 0 34.51 14.246 13.925 14.246 13.925 34.683 0 20.436-13.925 34.471-13.925 14.036-34.51 14.036H253.13Zm79.914-181.436q-20.585 0-34.51-14.247-13.925-14.246-13.925-34.682 0-20.437 13.925-34.472 13.925-14.036 34.51-14.036h453.739q20.585 0 34.51 14.247 13.925 14.246 13.925 34.682 0 20.437-13.925 34.472-13.925 14.036-34.51 14.036H333.044Z"/></svg>