<svg xmlns="http://www.w3.org/2000/svg" height="24" viewBox="0 -960 960 960" width="24"><path d="M64.477-534.001q6.696-47.608 21-88.869 14.305-41.26 38.913-79 33.304 33.74 55.674 76.152 22.369 42.413 30.5 91.717H64.477Zm684.959 0q8.131-49.304 30.565-92.065 22.435-42.76 55.044-75.934 24.608 37.304 39.195 79.065 14.587 41.761 21.283 88.934H749.436ZM124.955-256.87q-24.608-37.304-39.478-79.412-14.87-42.109-21-89.717h146.087q-8.131 49.304-30.217 92.63-22.087 43.326-55.392 76.499Zm710.09-1.13q-32.609-33.174-55.044-75.934-22.434-42.761-30.565-92.065h146.087q-6.696 47.173-21.283 88.934-14.587 41.761-39.195 79.065ZM319.826-534.001q-9.696-75.391-42.956-138.087-33.261-62.696-84.957-112.826 47.435-45.174 106.391-73.043 58.956-27.87 127.695-37.566v361.522H319.826Zm214.175 0v-361.522q68.739 9.696 127.695 37.566 58.956 27.869 106.391 73.043-51.565 49.696-84.891 112.609-33.326 62.913-43.022 138.304H534.001ZM425.999-64.477q-68.608-10.261-127.347-38.066-58.739-27.804-106.174-72.412 51.565-49.696 84.609-112.674 33.043-62.979 42.739-138.37h106.173v361.522Zm108.002 0V-426h106.173q9.696 75.391 43.022 138.304t84.891 112.609q-47.435 45.174-106.391 72.761-58.956 27.587-127.695 37.848Z"/></svg>