<svg xmlns="http://www.w3.org/2000/svg" height="20" viewBox="0 -960 960 960" width="20"><path d="M480-87.87q-61.109 0-118.739-18.315-57.631-18.315-107.305-52.706l59.892-60.892q38.239 22.718 79.837 35.816Q435.283-170.87 480-170.87t85.815-13.097q41.098-13.098 79.337-35.816l60.892 59.892Q656.37-125.5 598.739-106.685 541.109-87.869 480-87.869ZM159.891-253.955Q125.5-303.63 106.685-361.261 87.869-418.891 87.869-480t18.816-118.739q18.815-57.631 53.206-107.305l59.892 59.892q-22.718 38.239-35.816 79.837Q170.87-524.717 170.87-480t13.097 85.815q13.098 41.098 35.816 79.337l-59.892 60.892Zm641.218 0-60.892-59.892q21.718-38.239 35.316-79.837Q789.13-435.283 789.13-480t-13.597-85.815q-13.598-41.098-35.316-79.337l59.892-60.892q34.391 49.674 53.206 107.305 18.816 57.63 18.816 118.739t-18.316 118.739Q835.5-303.63 801.109-253.956ZM314.848-740.217l-60.892-59.892q49.674-34.391 107.305-53.206 57.63-18.816 118.739-18.816t118.739 18.316q57.631 18.315 107.305 52.706l-59.892 60.892q-38.239-21.718-79.837-35.316Q524.717-789.13 480-789.13t-85.815 13.597q-41.098 13.598-79.337 35.316ZM516-236.891q-39.196 0-67.413-21.479-28.217-21.478-39.457-60.673-4.76-19.761-12.76-33.522t-19.522-24.283l-38-34q-26.478-23.478-40.218-57.076-13.739-33.598-13.739-72.076 0-76.435 53.457-129.772Q391.804-723.109 468-723.109q70.435 0 121.272 41.718 50.837 41.717 57.837 104.913H566.13q-13-30.565-39.663-49.489-26.663-18.924-58.467-18.924-43.565 0-74.228 30.543-30.663 30.544-30.663 74.348 0 22.522 9.761 42.804 9.76 20.283 29.282 37.805l30 28.239q17.239 16 30.478 38.739 13.24 22.739 21.479 51.456 2.521 10.805 11.804 18.327 9.283 7.521 20.087 7.521 13.565 0 23.228-9.663 9.663-9.663 9.663-23.228h78.218q0 46.196-32.457 78.652-32.456 32.457-78.652 32.457ZM541.196-402q-25 0-42.5-17.5t-17.5-42.5q0-25 17.5-42.5t42.5-17.5q25 0 42.5 17.5t17.5 42.5q0 25-17.5 42.5t-42.5 17.5Z"/></svg>