<svg xmlns="http://www.w3.org/2000/svg" height="20" viewBox="0 -960 960 960" width="20"><path d="M480-340.782q-57.913 0-98.566-40.652-40.652-40.653-40.652-98.566 0-57.913 40.652-98.566 40.653-40.652 98.566-40.652 57.913 0 98.566 40.652 40.652 40.653 40.652 98.566 0 57.913-40.652 98.566-40.653 40.652-98.566 40.652Zm0 279.262L293.912-247.608 363-316.696l117 117 117-117 69.088 69.088L480-61.52ZM247.608-293.912 61.52-480l186.088-186.088L316.696-597l-117 117 117 117-69.088 69.088ZM363-643.304l-69.088-69.088L480-898.48l186.088 186.088L597-643.304l-117-117-117 117Zm349.392 349.392L643.304-363l117-117-117-117 69.088-69.088L898.48-480 712.392-293.912Z"/></svg>