<svg xmlns="http://www.w3.org/2000/svg" height="20" viewBox="0 -960 960 960" width="20"><path d="M816.308-453.769q0 42.692-19.077 72.115-19.077 29.423-63.846 29.423-11.462 0-32.974-7.807-21.513-7.808-33.795-16.731L481.615-560.231q3.154-53.615 24.731-96.423t51.5-60.5q8.776-4.629 13.85-13.776 5.073-9.147 5.073-20.762 0-14.693-11.666-24.154-11.667-9.462-26.718-9.462-72.693 0-103.423 30.077-30.731 30.077-32.731 56.692-1 15.193 9.072 43.437 10.073 28.243 16.389 42.487l-63-63.001Q354.231-754.231 416-788.27q61.769-34.038 122.035-34.038 30.734 0 53.234 17.269 22.5 17.27 22.5 53.419 0 22.312-9.192 39.158-9.192 16.847-24.269 27-20 14-35.923 40.231-15.923 26.231-23.231 63.403 12 4.891 20.063 10.321 8.064 5.43 15.552 12.199l76.539-29.769q16.692-7.231 30.46-9.462 13.767-2.23 27.771-2.23 49.23 0 87 34.577 37.769 34.577 37.769 112.423ZM424.692-149.692q-30.384 0-54.423-17.539-24.038-17.538-24.038-54.153 0-22.077 9.692-39.808 9.692-17.731 23.639-27.516 19.899-13.369 35.438-40.1 15.538-26.73 23.846-61.423-11.385-4.538-19.461-10.461-8.077-5.923-16.103-13l-92.59 35.769q-14.692 6.231-21.429 6.462-6.737.23-20.802.23-67.692 0-96.23-45.846-28.539-45.846-28.539-102.001 0-45.907 21.5-73.299 21.5-27.392 66.808-27.392 18.769 0 38.769 7.307 20 7.308 32.615 19.308L124.231-771.538q-4.846-4.847-5.231-10.385-.385-5.539 5.231-11.154 5.615-5.615 11.436-5.615 5.82 0 11.102 5.615l632.616 632.615q4.846 4.763 4.846 11.112 0 6.35-4.846 11.196t-11.052 4.846q-6.205 0-10.718-4.846L594.539-301.23q1.538 3.846 1.538 7.692v7.692q1 64.769-49.115 100.462-50.116 35.692-122.27 35.692Zm308.693-239.539q21.077 0 33.5-18.807 12.423-18.808 12.423-45.731 0-68.231-28.693-88.5-28.692-20.269-58.781-21.5-5.526 0-12.411 1.115-6.884 1.116-16.961 4.654l-88.539 31.023q7.385 13.515 10.818 24.289 3.432 10.773 3.413 20.303 28.923 8.77 45.231 25.5 16.308 16.731 46.769 45.654 11.692 9.616 24.616 15.808 12.923 6.192 28.615 6.192Zm-466.462-19q10.37 0 19.185-1.115 8.815-1.116 24.43-7.654l76.308-29.21q-7.385-12.559-10.433-27.179-3.048-14.619-1.49-28.765-24.769-9.769-44.808-23.961-20.039-14.193-34.885-32.577-14-8.846-33.846-16.962-19.846-8.115-34.298-8.115-19.24 0-32.817 17.269-13.577 17.269-13.577 47.269 0 52.385 24.462 81.692 24.461 29.308 61.769 29.308Zm157.769 221.539q57.691 0 93.615-22.923 35.924-22.923 39.462-58.693 1-23.846-10.769-53.038-11.769-29.192-16.231-42.654l-21.461-22.461q-8.385 3.538-18.269 4.807-9.885 1.27-19.27 1.27-6.692 43-24.615 73.692-17.923 30.692-45 49.308-8.308 5.538-14.115 15.628-5.808 10.089-4.808 20.679-.539 14.923 12.5 24.654 13.038 9.731 28.961 9.731Zm163.462-295.693Zm-213.231-19.769Zm96.846 121.77Zm9.846-179.847Z"/></svg>