<svg xmlns="http://www.w3.org/2000/svg" height="20" viewBox="0 -960 960 960" width="20"><path d="M801-423q0 45-26 72.5T705-323q-3 0-10.5-.5T679-326L274-731q8-64 64-101.5T480-870q45 0 72.5 26.5T580-774q0 27-11.5 50T535-687q-20 14-34 36t-19 50q6 3 11 6.5t10 7.5l75-29q19-8 35.5-11t33.5-3q70 0 112 56.5T801-423ZM354-102q-45 0-72.5-26T254-198q0-27 12-50.5t33-37.5q19-13 33-35.5t20-49.5q-6-3-11-7l-10-8-91 35q-17 7-26.5 8t-26.5 1q-70 0-112-57T33-550q0-45 26.5-72t69.5-27h13q5 0 13 2L52-750q-11-11-11-25t11-25q11-11 25.5-11t25.5 11l628 628q11 11 11 25t-11 25q-11 11-25.5 11T680-122L560-242q-9 64-64.5 102T354-102Z"/></svg>