<svg xmlns="http://www.w3.org/2000/svg" height="24" viewBox="0 -960 960 960" width="24"><path d="m568.922-505.078-82.613-82.613h39.076v-66.153l96.152 96.152-52.615 52.614Zm247.539 247.539-53.999-53.999H800v-439.231H323.231l-59.998-59.998h596.766v553.228h-43.538Zm17.386 215.692L724.923-150.771H55.386v-59.999h608.923l-40-40H100.001v-511.384h12.309l-70.463-71.693L84-876 876-84l-42.153 42.153ZM401.539-472.925q-3.078 3.462-4.616 7.116-1.539 3.654-1.539 9.039v59.078h-59.998v-80q0-14.847 3.5-27.154 3.5-12.308 10.039-21.308L169.616-705.463H160v394.694h403.695L401.539-472.925Zm141.308-58.228Zm-175.999 22.537Z"/></svg>