<svg xmlns="http://www.w3.org/2000/svg" height="24" viewBox="0 -960 960 960" width="24"><path d="M421.461-480 251.846-649.846q-5.615-5.615-6.115-13.654t6.115-14.654q6.385-6.385 14.154-6.385t14.154 6.385l175.538 175.539q5.231 5.23 7.347 10.692 2.115 5.461 2.115 11.923t-2.115 11.923q-2.116 5.462-7.347 10.692L280.154-281.846q-5.616 5.615-13.654 6.115-8.039.5-14.654-6.115-6.385-6.385-6.385-14.154t6.385-14.154L421.461-480Zm244 0L495.846-649.846q-5.615-5.615-6.115-13.654t6.115-14.654q6.385-6.385 14.154-6.385t14.154 6.385l175.539 175.539q5.23 5.23 7.346 10.692 2.115 5.461 2.115 11.923t-2.115 11.923q-2.116 5.462-7.346 10.692L524.154-281.846q-5.615 5.615-13.654 6.115-8.038.5-14.654-6.115-6.385-6.385-6.385-14.154t6.385-14.154L665.461-480Z"/></svg>