<svg xmlns="http://www.w3.org/2000/svg" height="20" viewBox="0 -960 960 960" width="20"><path d="M363.348-600.478v-78.218H693.37v78.218H363.348Zm0 126.217v-78.217H693.37v78.217H363.348ZM502.565-170.87H218.87h283.695Zm0 83H242.87q-44.584 0-75.792-31.208-31.209-31.208-31.209-75.792v-154.522h96.479v-522.739H824.37v315.479l-83 82V-789.13H315.348v439.738h299.761l-83 83.001H218.87v71.521q0 10.2 6.9 17.1 6.9 6.9 17.1 6.9h259.695v83Zm72 0v-119.695l248.783-247.783 118.696 119.696L694.701-87.869H574.565Zm292.783-247.782-45-45 45 45Zm-240 195h45l114.043-114.044-22-23-22-22-115.043 114.044v45Zm137.043-137.044-22-22 44 45-22-23Z"/></svg>