<svg xmlns="http://www.w3.org/2000/svg" height="24" viewBox="0 -960 960 960" width="24"><path d="M367.913-601.13v-94.697h345.869v94.697H367.913Zm0 134.696v-94.696h345.869v94.696H367.913Zm108.696 299.651H206.783h269.826Zm0 106.001H246.783q-60.834 0-103.418-42.583-42.583-42.584-42.583-103.418v-144.871h121.13v-547.564h637.872v281.13L753.782-512.087v-281.13H327.913v441.563H593.35L487.348-245.652H206.783v38.869q0 17 11.5 28.5t28.5 11.5h229.826v106.001Zm80 0v-138.827l274.304-273.304L969.74-335.087 695.435-60.782H556.609Zm311.304-274.305-37-37 37 37Zm-240 203h38l118.739-119.739-18-19-19-18-119.739 118.739v38Zm138.739-138.739-19-18 37 37-18-19Z"/></svg>