<svg xmlns="http://www.w3.org/2000/svg" height="20" viewBox="0 -960 960 960" width="20"><path d="M313.524-174.783h357.258L492.435-353.694 313.524-174.783ZM194.87-76.782q-32.479 0-45.087-30.196-12.609-30.196 10.608-53.413l262.391-262.391-284.653-285.219q-12.13-12.695-12.696-28.891-.565-16.196 12.131-28.326 12.13-12.131 28.326-12.131 16.196 0 28.326 12.131l664.741 663.741q12.131 12.13 12.413 28.326.283 16.196-11.847 28.326-12.131 12.696-29.109 12.413-16.979-.282-29.109-12.413l-32.522-31.957H194.87Zm688.348-102-98.001-98.001v-369.693L600.088-461.912 531-531.565l269.174-268.609q23.217-23.217 53.131-10.326 29.913 12.891 29.913 45.37v586.348ZM692.652-369.348ZM581.609-263.956Z"/></svg>