<svg xmlns="http://www.w3.org/2000/svg" height="24" viewBox="0 -960 960 960" width="24"><path d="M216.846-160h526.308L480-423.154 216.846-160Zm-19.077 40q-21.615 0-29.808-19.884-8.192-19.885 6.962-35.039l276.769-276.769L160.154-743q-5.847-5.615-6.116-13.654-.269-8.038 6.116-14.654 6.615-6.615 14.269-6.615t14.269 6.615l665.154 665.154q5.846 5.846 6.116 13.77.269 7.923-6.347 14.538-6.615 6.385-14.154 6.5-7.538.115-14.153-6.5L783.154-120H197.769ZM840-232.231l-40-40v-470.923L564.539-507.692 536-536l249.077-249.077q15.154-15.154 35.039-6.962Q840-783.846 840-762.231v530ZM682.385-390.077Zm-70.693 98.385Z"/></svg>