<svg xmlns="http://www.w3.org/2000/svg" height="20" viewBox="0 -960 960 960" width="20"><path d="M154.001-106.001v-51.998h51.998v51.998h-51.998Zm0-131.691v-72h51.998v72h-51.998Zm0-151.693v-72h51.998v72h-51.998Zm0-151.693v-72h51.998v72h-51.998Zm0-151.693v-51.998h51.998v51.998h-51.998Zm131.691 586.77v-51.998h72v51.998h-72Zm12.309-144v-603.998h507.998v603.998H298.001Zm51.998-51.998h404.002v-500.002H349.999v500.002Zm87.386 195.998v-51.998h72v51.998h-72Zm151.693 0v-51.998h51.998v51.998h-51.998Z"/></svg>