<svg xmlns="http://www.w3.org/2000/svg" height="24" viewBox="0 -960 960 960" width="24"><path d="M748.461-159.231q34.154 0 58.615-24.461 24.462-24.462 24.462-58.616 0-34.154-24.462-58.615-24.461-24.462-58.615-24.462t-58.616 24.462q-24.461 24.461-24.461 58.615t24.461 58.616q24.462 24.461 58.616 24.461Zm-30 94.614-8.153-47.692q-17.385-5-30.001-11.846-12.615-6.846-24.769-18.308l-45.692 15.692-30.768-50.306 36.768-31.538q-4.307-16.616-4.307-33.693 0-17.077 4.307-33.693l-36.768-31.538 30.768-50.306 45.692 15.692q12.154-11.846 24.769-18.5 12.616-6.654 30.001-11.654l8.153-47.692h59.999l8.154 47.692q17.385 5 30 11.654 12.616 6.654 24.77 18.5l45.691-15.692 30.769 50.306-36.769 31.538q4.308 16.616 4.308 33.693 0 17.077-4.308 33.693l36.769 31.538-30.769 50.306-45.691-15.692q-12.154 11.462-24.77 18.308-12.615 6.846-30 11.846l-8.154 47.692h-59.999Zm-618.46-35.384 759.998-759.998v376.384q-24.847-12.23-54.462-18.346-29.615-6.115-57.461-6.115-111.23 0-188.999 77.461-77.769 77.461-77.769 188.692 0 37.692 10.269 73.999 10.269 36.308 30.653 67.923H100.001Z"/></svg>