<svg xmlns="http://www.w3.org/2000/svg" height="24" viewBox="0 -960 960 960" width="24"><path d="m120-120 720-720v366.769q-9.769-4.385-19.385-7.961Q811-484.769 800-487v-256.154L216.846-160h281.615q3.693 10.462 7.924 20.346 4.23 9.885 10.077 19.654H120Zm96.846-40L800-743.154 508.423-451.577 216.846-160Zm500.077 70.77-4.308-35.385q-18.923-4.231-35.576-12.808-16.654-8.577-29.962-23.5l-33.385 13.385-21.538-32.616 27.538-23.077q-6.615-20.692-6.615-41.384 0-20.693 6.615-41.385l-27.538-23.077 21.538-32.616 33.385 13.385q12.538-14.923 29.577-23.5 17.038-8.577 35.961-12.807L716.923-400h40l4.308 35.385q18.923 4.23 35.962 12.807 17.038 8.577 29.576 23.5l33.385-13.385 21.539 32.616L854.154-286q6.616 20.692 6.616 41.385 0 20.692-6.616 41.384l27.539 23.077-21.539 32.616-33.385-13.385q-13.307 14.923-29.961 23.5-16.654 8.577-35.577 12.808l-4.308 35.384h-40Zm20-69.232q36.077 0 61.116-25.038 25.038-25.038 25.038-61.115t-25.038-61.116Q773-330.769 736.923-330.769t-61.115 25.038q-25.039 25.039-25.039 61.116t25.039 61.115q25.038 25.038 61.115 25.038Z"/></svg>