<svg xmlns="http://www.w3.org/2000/svg" height="20" viewBox="0 -960 960 960" width="20"><path d="M574-136q-15.183 0-29.053-6.077-13.87-6.077-25.563-17l-213.538-223q-8.692-8.923-8.05-21.221.643-12.298 11.511-20.24l15.924-12.77q14.153-10.923 31.538-11.423 17.385-.5 32.539 9.193L472-385.846V-780q0-6.839 4.52-11.419Q481.04-796 487.789-796q6.749 0 11.48 4.581Q504-786.839 504-780v401.693q0 16.384-14.269 24.961-14.27 8.577-28.423-.115l-116.616-74.385q-6.153-3.846-13.846-3.846-7.692 0-13.846 4.615l-2.307 1.539 219.999 234.153q11.752 14 22.678 18.693Q568.295-168 588.615-168H724q38.162 0 65.465-26.919 27.304-26.919 27.304-65.081v-295.385q0-6.838 4.52-11.419 4.521-4.581 11.27-4.581t11.48 4.581q4.73 4.581 4.73 11.419V-260q0 52.308-36.23 88.154Q776.308-136 724-136H574Zm12.923-316v-207.077q0-6.838 4.52-11.419t11.27-4.581q6.749 0 11.479 4.581 4.731 4.581 4.731 11.419V-452h-32Zm114.923 0v-151.385q0-6.838 4.52-11.419 4.521-4.581 11.27-4.581t11.479 4.581q4.731 4.581 4.731 11.419V-452h-32ZM180.442-597q-46.981 0-79.711-31.991Q68-660.983 68-706.977q0-28.177 10.577-46.831 10.577-18.654 57.231-72.133l22.577-26.213q8.442-10.692 21.105-10.692 12.664 0 21.556 10.884l21.569 25.039q47.693 53.923 58.539 72.461Q292-735.923 292-707.467q0 46.006-32.374 78.236Q227.252-597 180.442-597ZM180-629q33.461 0 56.731-22.769Q260-674.539 260-707q0-18.149-10.039-33.805-10.038-15.656-52.884-66.81L179.231-827l-17.308 19.385q-45.692 51.23-53.807 64.73Q100-729.385 100-707q0 33.461 23.154 55.731Q146.308-629 180-629Zm0-78Zm606 539H534.692 786Z"/></svg>