<svg xmlns="http://www.w3.org/2000/svg" height="20" viewBox="0 -960 960 960" width="20"><path d="M580-148q-13.788 0-26.394-5.5Q541-159 530-169L319-389q-8-8-7.588-19.375Q311.824-419.75 322-427l12-10q13.143-10.471 29.071-10.735Q379-448 393-439l91 58v-399q0-4.25 2.825-7.125 2.824-2.875 7-2.875 4.175 0 7.175 2.875t3 7.125v322h91v-208q0-4.25 2.825-7.125 2.824-2.875 7-2.875 4.175 0 7.175 2.875t3 7.125v208h91v-150q0-4.25 2.825-7.125 2.824-2.875 7-2.875 4.175 0 7.175 2.875t3 7.125v150h91v-102q0-4.25 2.825-7.125 2.824-2.875 7-2.875 4.175 0 7.175 2.875t3 7.125v294q0 50-34.656 84T718-148H580ZM180.852-603Q136-603 105-633.145q-31-30.146-31-73.832Q74-734 84-751.5q10-17.5 56.193-70.287L160-845q7.75-10 19.375-10t19.825 10.192L218-823q47 53 57.5 70.5t10.5 45.033q0 43.728-30.528 74.097Q224.945-603 180.852-603Z"/></svg>