<svg xmlns="http://www.w3.org/2000/svg" height="20" viewBox="0 -960 960 960" width="20"><path d="M199.289-212q-6.789 0-11.539-4.547T183-227.816q0-6.723 4.592-11.453Q192.185-244 198.974-244h359.737q6.789 0 11.539 4.547t4.75 11.269q0 6.723-4.592 11.453Q565.815-212 559.026-212H199.289Zm424.599-240q-71.427 0-121.657-50.343Q452-552.685 452-624.112t50.343-121.657Q552.685-796 624.112-796t121.657 50.343Q796-695.315 796-623.888t-50.343 121.657Q695.315-452 623.888-452Zm-425.117-60q-6.271 0-11.021-4.547-4.75-4.547-4.75-11.269 0-6.723 4.6-11.453Q192.2-544 199-544h171.077q1.923 9.231 4.692 16.346 2.77 7.116 5.846 15.654H198.771ZM199-362q-6.8 0-11.4-4.547-4.6-4.547-4.6-11.269 0-6.723 4.6-11.453Q192.2-394 199-394h300.615q17.304 11.319 36.229 19.467 18.925 8.148 39.156 12.61v-2.308q0 2.77-5.25 2.5Q564.5-362 559-362H199Zm425-271.231q7.754 0 13.569-5.815 5.816-5.816 5.816-13.569v-40.308q0-7.754-5.816-13.569-5.815-5.816-13.569-5.816-7.754 0-13.569 5.816-5.816 5.815-5.816 13.569v40.308q0 7.753 5.816 13.569 5.815 5.815 13.569 5.815Zm0 100.616q9.6 0 16.8-7.2 7.2-7.2 7.2-16.8 0-9.6-7.2-16.8-7.2-7.2-16.8-7.2-9.6 0-16.8 7.2-7.2 7.2-7.2 16.8 0 9.6 7.2 16.8 7.2 7.2 16.8 7.2Z"/></svg>