<svg xmlns="http://www.w3.org/2000/svg" height="20" viewBox="0 -960 960 960" width="20"><path d="m708-352.924-8.461-33.538q-14.847-3-26.347-9.539-11.5-6.538-20.654-16.462L619-402.155l-13.999-24.306 24.076-24.615q-2.538-10.462-3.538-24.539-1-14.078 3.538-32.539l-24.076-22.615 13.23-25.076 33.307 10.077q9.154-10.308 21.154-17.039 12-6.731 26.847-10.731L708-607.076h27.999l8.461 33.538q14.846 4 26.847 10.731 12 6.731 21.154 17.039l33.307-10.077 13.23 25.076-24.077 22.615q2.539 8.461 3.539 23.039 1 14.577-3.539 34.039l24.077 23.615-13.999 24.306-32.538-9.308q-9.154 9.924-21.154 15.962-12.001 6.039-26.847 10.039l-8.461 33.538H708Zm13.999-78.307q20 0 34.385-14.384Q770.769-460 770.769-480t-14.385-34.385q-14.385-14.384-34.385-14.384t-34.384 14.384Q673.23-500 673.23-480t14.385 34.385q14.384 14.384 34.384 14.384ZM212.001-68.001V-892h535.998v218.46H696v-56.462H264v500.002h432v-56.462h51.999v218.46H212.001Zm51.999-110V-120h432v-58.001H264Zm0-603.998h432V-840H264v58.001Zm0 0V-840v58.001Zm0 603.998V-120v-58.001Z"/></svg>