<svg xmlns="http://www.w3.org/2000/svg" height="20" viewBox="0 -960 960 960" width="20"><path d="M480.276-76.782q-83.798 0-157.182-31.46-73.385-31.46-128.388-86.464-55.004-55.003-86.464-128.346t-31.46-157.406q0-84.064 31.46-156.948 31.46-72.885 86.464-127.888 55.003-55.004 128.346-86.464t157.406-31.46q84.064 0 156.948 31.46 72.885 31.46 127.888 86.464 55.004 55.003 86.464 128.112t31.46 156.906q0 83.798-31.46 157.182-31.46 73.385-86.464 128.388-55.003 55.004-128.112 86.464t-156.906 31.46ZM480-174.783q127.739 0 216.478-88.739T785.217-480q0-127.739-88.739-216.478T480-785.217q-127.739 0-216.478 88.739T174.783-480q0 127.739 88.739 216.478T480-174.783ZM480-480Zm-48 192h96q33.197 0 56.838-23.641 23.641-23.64 23.641-56.838v-223.042q0-33.198-23.641-56.838Q561.197-672 528-672h-96q-33.197 0-56.838 23.641-23.641 23.64-23.641 56.838v223.042q0 33.198 23.641 56.838Q398.803-288 432-288Zm0-303.521h96v223.042h-96v-223.042Z"/></svg>