<svg xmlns="http://www.w3.org/2000/svg" height="24" viewBox="0 -960 960 960" width="24"><path d="M615.911-426.999H193.782q-22.087 0-37.544-15.457-15.456-15.457-15.456-37.544 0-22.087 15.456-37.544 15.457-15.457 37.544-15.457h422.129L441.956-706.956q-15.957-15.957-15.739-37.609.217-21.653 16.174-37.609 15.957-14.957 37.609-15.175 21.652-.217 37.609 15.74l264 264q7.696 7.696 11.609 17.522 3.913 9.826 3.913 20.087t-3.913 20.087q-3.913 9.826-11.609 17.522L517.044-177.826q-15.522 15.522-37.109 15.522-21.587 0-37.544-15.522-15.957-15.956-15.957-37.826t15.957-37.827l173.52-173.52Z"/></svg>