<svg xmlns="http://www.w3.org/2000/svg" height="20" viewBox="0 -960 960 960" width="20"><path d="M526-164q-6.539 0-11.269-4.731Q510-173.461 510-180t4.731-11.269Q519.461-196 526-196h189.077L561.538-304.154q-5.077-2.615-6.923-8.923t1.539-12.385q3.384-6.077 9.808-7.423 6.423-1.346 11.5 2.039l156.307 107.923-66.308-178q-1.923-6.308 2-12.5 3.924-6.192 9.462-8.116 5.539-1.923 12.616 1.5 7.076 3.424 9 8.962l62.538 176.461 50.154-179.999q1.692-5.539 7.269-9.693t11.115-2.461q5.539 1.692 9.693 7.269t2.461 11.115l-62.769 232q-1.461 5.077-6.077 8.731-4.615 3.654-9.692 3.654H526Zm-410-48v-32h287.692Q408-235.769 412-227t9.692 15H116Zm0-168v-32h323.154q-.462 9.308-1.5 16.808-1.039 7.5-2.423 15.192H116Zm0-168v-32h632v32H116Zm0-168v-32h632v32H116Z"/></svg>