<svg xmlns="http://www.w3.org/2000/svg" height="24" viewBox="0 -960 960 960" width="24"><path d="M520-130.001q-12.769 0-21.384-8.615T490.001-160q0-12.769 8.615-21.384T520-189.999h144.541L546.77-273.078q-10.539-7.307-12.462-18.961-1.923-11.653 4.77-22.191 6.692-10.539 18.653-12.462 11.961-1.923 22.499 4.77l119.156 82.078-50.155-135.618q-4.461-11.769 1-22.807 5.462-11.038 17.231-15.5 11.769-4.461 23.307 1 11.538 5.462 16 17.231l48.385 135.617 38.462-139.386q3.846-11.769 13.884-18.346 10.039-6.577 21.807-2.731 11.769 3.846 18.846 13.884 7.077 10.039 3.231 21.807l-62 232q-3.231 10.539-11.038 16.615-7.808 6.077-18.346 6.077H520Zm-389.999-120v-59.998h281.846q-1.846 15.615-1.346 29.999.5 14.384 2.346 29.999H130.001Zm0-160v-59.998h379.076q-17.23 12.153-31.499 27.153-14.269 15-25.961 32.845H130.001Zm0-160v-59.998h579.998v59.998H130.001Zm0-160v-59.998h579.998v59.998H130.001Z"/></svg>