<svg xmlns="http://www.w3.org/2000/svg" height="20" viewBox="0 -960 960 960" width="20"><path d="M526-138.5q-17.248 0-29.374-12.126Q484.5-162.752 484.5-180q0-17.248 12.126-29.374Q508.752-221.5 526-221.5h108.782l-87.891-62.196q-13.674-9.195-17.272-25.467-3.597-16.272 5.79-30.975 9.387-14.703 26.087-17.772 16.7-3.068 30.613 6.366l89.652 61.196-37.783-101.739q-5.717-16.152 2.239-31.565 7.957-15.413 23.989-21.37 16.033-5.956 32.066 1.54 16.032 7.496 21.75 23.569l35.261 101.739 29.456-103.261q4.463-16.13 19.003-25.217 14.541-9.087 30.664-4.622 16.124 4.465 25.228 19.011 9.105 14.546 4.627 30.698l-62 232q-3.239 13.674-14.817 22.369Q779.865-138.5 766-138.5H526Zm-437.413-37v-83h291.435q2.717 22.109 7.674 42.739 4.956 20.631 16.065 40.261H88.587Zm0-175.413v-83h337.717Q412.391-415 402.054-394.63q-10.337 20.369-15.859 43.717H88.587Zm0-175.174v-83h686.826v83H88.587Zm0-175.413v-83h686.826v83H88.587Z"/></svg>