<svg xmlns="http://www.w3.org/2000/svg" height="24" viewBox="0 -960 960 960" width="24"><path d="M479.91-400q41.629 0 70.859-29.141Q580-458.281 580-499.91q0-41.629-29.14-70.86Q521.719-600 480.09-600t-70.859 29.14Q380-541.72 380-500.091q0 41.629 29.14 70.86T479.91-400ZM184.615-200Q157-200 138.5-218.5 120-237 120-264.615v-430.77Q120-723 138.5-741.5 157-760 184.615-760h590.77Q803-760 821.5-741.5 840-723 840-695.385v430.77Q840-237 821.5-218.5 803-200 775.385-200h-590.77Zm97.692-40h395.386q-45-40.615-94.385-60.308Q533.923-320 480-320q-53.923 0-103.308 19.692-49.385 19.693-94.385 60.308ZM200-104.615q-8.5 0-14.25-5.758T180-124.642q0-8.512 5.75-14.242 5.75-5.731 14.25-5.731h560q8.5 0 14.25 5.758Q780-133.1 780-124.588q0 8.511-5.75 14.242-5.75 5.731-14.25 5.731H200Zm0-710.77q-8.5 0-14.25-5.758Q180-826.9 180-835.412q0-8.511 5.75-14.242 5.75-5.731 14.25-5.731h560q8.5 0 14.25 5.758t5.75 14.269q0 8.512-5.75 14.242-5.75 5.731-14.25 5.731H200Z"/></svg>