<svg xmlns="http://www.w3.org/2000/svg" height="20" viewBox="0 -960 960 960" width="20"><path d="M480-423.521q52.261 0 88.391-35.848 36.131-35.848 36.131-88.109 0-52.261-36.131-88.392Q532.261-672 480-672t-88.391 36.13q-36.131 36.131-36.131 88.392 0 52.261 36.131 88.109 36.13 35.848 88.391 35.848ZM176.479-174.477q-41.005 0-69.503-28.51-28.499-28.511-28.499-69.532v-415.286q0-41.021 28.499-69.369 28.498-28.349 69.503-28.349h607.042q41.005 0 69.503 28.51 28.499 28.511 28.499 69.532v415.286q0 41.021-28.499 69.369-28.498 28.349-69.503 28.349H176.479ZM214.521-264h530.958q-44.609-58.565-114.435-93.522Q561.218-392.479 480-392.479q-81.218 0-151.044 35.457Q259.13-321.565 214.521-264Zm-3.752 209.523q-15.292 0-25.792-10.29-10.5-10.29-10.5-25.5t10.345-25.71q10.344-10.5 25.636-10.5h538.773q15.292 0 25.792 10.289 10.5 10.29 10.5 25.5t-10.345 25.71q-10.344 10.5-25.636 10.5H210.769Zm0-779.046q-15.292 0-25.792-10.289-10.5-10.29-10.5-25.5 0-15.211 10.345-25.711 10.344-10.5 25.636-10.5h538.773q15.292 0 25.792 10.29 10.5 10.289 10.5 25.5 0 15.21-10.345 25.71-10.344 10.5-25.636 10.5H210.769Z"/></svg>