<svg xmlns="http://www.w3.org/2000/svg" height="20" viewBox="0 -960 960 960" width="20"><path d="M346-164h268l38-152H308l38 152Zm-1 84q-29.455 0-51.545-17.836Q271.364-115.672 264-144l-43-172h518l-43 172q-7.364 28.328-29.455 46.164Q644.455-80 615-80H345ZM204-400h552v-76H204v76Zm66-478q82 11 140.5 70T480-667q11-82 69.5-141T690-878q12.857-2 22.429 7.571Q722-860.857 720-848q-11 80-65.707 136.945Q599.585-654.11 522-640v80h276.229Q815-560 827.5-547.5t12.5 29.252V-400q0 34.65-24.675 59.325Q790.65-316 756-316H204q-34.65 0-59.325-24.675Q120-365.35 120-400v-118.248Q120-535 132.5-547.5t29.271-12.5H438v-80q-77.585-14.11-132.293-71.055Q251-768 240-848q-2-12.857 7.571-22.429Q257.143-880 270-878Z"/></svg>