<svg xmlns="http://www.w3.org/2000/svg" height="24" viewBox="0 -960 960 960" width="24"><path d="M353.87-146.434h252.26l37.174-148.695H316.696l37.174 148.695Zm0 106.001q-37.044 0-65.392-22.652-28.348-22.653-37.609-58.131l-43.304-173.913h544.87l-43.304 173.913q-9.261 35.478-37.609 58.13-28.348 22.653-65.392 22.653H353.87ZM201.696-401.13h556.043v-63.043H201.696v63.043Zm55.303-520.394q95.218 15.522 159.11 89.522Q480-758.001 480-658.088q0-99.913 63.891-173.914 63.892-74 159.11-89.522 17.087-3.13 30.044 9.261 12.956 12.391 9.826 30.044-12.826 85.783-70.935 145.674-58.109 59.892-138.935 73.327v93.044H810.74q22.087 0 37.544 15.456 15.456 15.457 15.456 37.544v116.044q0 44.304-30.565 75.153-30.566 30.848-72.045 30.848H198.87q-42.044 0-72.61-30.848-30.566-30.849-30.566-75.153v-116.044q0-22.087 15.457-37.544 15.457-15.456 37.544-15.456h278.304v-92.479q-81.391-13.435-139.217-73.609-57.827-60.174-70.653-145.957-3.13-17.653 9.826-30.044 12.957-12.391 30.044-9.261Z"/></svg>