<svg xmlns="http://www.w3.org/2000/svg" height="24" viewBox="0 -960 960 960" width="24"><path d="M353.539-100.001q-24.923 0-43.999-15.27-19.077-15.269-25.692-39.576l-43.077-170.538h478.458l-43.077 170.538q-6.615 24.307-25.692 39.576-19.076 15.27-43.999 15.27H353.539Zm-65.076-741.843q79.384 12.539 133.73 72.923Q476.538-708.537 480-626.537q3.462-82 57.807-142.384 54.346-60.384 133.73-72.923 10.462-2 18.308 5.847 7.846 7.846 5.846 18.307-11.924 71.692-63.269 123.191-51.346 51.5-122.423 65.115v89.385h266.922q15.462 0 25.808 10.347 10.346 10.346 10.346 25.807v70.769q0 29.922-21.192 51.115-21.192 21.192-51.115 21.192H220.001q-29.922 0-51.115-21.192-21.192-21.193-21.192-51.115v-70.769q0-15.461 10.346-25.807 10.346-10.347 25.808-10.347h266.153v-89.385q-71.077-13.615-122.423-65.115-51.345-51.499-63.269-123.191-2-10.461 5.846-18.307 7.846-7.847 18.308-5.847Z"/></svg>