<svg xmlns="http://www.w3.org/2000/svg" height="24" viewBox="0 -960 960 960" width="24"><path d="M747.692-481q0-81.462-44.384-149.577-44.385-68.115-119.154-101.346-8.077-3.923-12.385-11.5-4.307-7.577-.846-14.885 3.692-8.308 12.539-10.692 8.846-2.385 17.923 1.538 83.923 39.154 135.115 116Q787.693-574.615 787.693-481T736.5-310.538q-51.192 76.846-135.115 116-9.077 3.923-17.923 1.538-8.847-2.384-12.539-10.692-3.461-7.308.846-14.885 4.308-7.577 12.385-11.5 74.769-33.231 119.154-101.346Q747.692-399.538 747.692-481Zm-438.461 81H204.615q-13.923 0-23.115-9.192-9.193-9.192-9.193-23.115v-95.386q0-13.923 9.193-23.115Q190.692-560 204.615-560h104.616l107.384-107.385q9.77-9.769 22.731-4.654 12.962 5.116 12.962 19.039v346q0 13.923-12.962 19.039-12.961 5.115-22.731-4.654L309.231-400Zm323.077-80q0 31.769-11.731 61.346-11.731 29.577-33.5 51.5-7.154 5.693-15.577 1.962t-8.423-13.116v-205.384q0-9.385 8.808-12.731 8.807-3.346 15.961 2.346 22.539 22.692 33.5 52.385Q632.308-512 632.308-480ZM100-680q-8.539 0-14.27-5.731Q80-691.462 80-700v-115.385q0-26.846 18.884-45.731Q117.77-880 144.615-880H260q8.538 0 14.269 5.731Q280-868.539 280-860q0 8.538-5.731 14.269T260-840H144.615q-10.769 0-17.692 6.923T120-815.385V-700q0 8.538-5.731 14.269T99.999-680ZM700-80q-8.538 0-14.269-5.73Q680-91.462 680-100q0-8.538 5.731-14.269T700-120h115.385q10.769 0 17.692-6.923T840-144.615V-260q0-8.538 5.731-14.269T860-280q8.539 0 14.269 5.731Q880-268.538 880-260v115.385q0 26.846-18.884 45.73Q842.231-80 815.385-80H700Z"/></svg>