<svg xmlns="http://www.w3.org/2000/svg" height="20" viewBox="0 -960 960 960" width="20"><path d="M707.692-480q0-64.462-37.384-117.577-37.385-53.115-98.154-78.346-7.043-2.951-10.868-8.514-3.824-5.563-.363-11.871 2.692-6.308 9.539-9.192 6.846-2.885 13.923-.962 67.923 28.154 111.615 89.5Q739.693-555.615 739.693-480q0 73.728-42.193 134.518-42.192 60.79-109.115 89.944-7.077 2.923-15.923 1.038-8.847-1.884-11.993-9.16-3.007-6.34.817-11.903 3.825-5.563 10.868-8.514 60.769-25.231 98.154-78.346Q707.692-415.538 707.692-480Zm-390.461 56h-92.616q-12.223 0-20.265-8.042-8.043-8.042-8.043-20.265v-55.386q0-12.223 8.043-20.265Q212.392-536 224.615-536h92.616l106.384-106.385q7.77-7.769 18.231-3.702 10.462 4.068 10.462 15.296v301.486q0 11.228-10.462 15.344-10.461 4.115-18.231-3.654L317.231-424Zm303.077-55.542q0 28.311-10.731 52.888-10.731 24.577-31.5 40.5-6.154 2.693-14.577 2.462-8.423-.231-8.423-11.616v-170.384q0-11.385 8.808-11.231 8.807.154 14.961 2.846 21.539 16.692 31.5 41.385 9.962 24.692 9.962 53.15ZM420.308-366v-228l-90 90h-102v48h102l90 90ZM116.21-648q-6.749 0-11.479-4.581Q100-657.162 100-664v-127.385q0-23.546 16.534-40.081Q133.069-848 156.615-848H284q6.838 0 11.419 4.52T300-832.211q0 6.749-4.581 11.48Q290.838-816 284-816H156.615q-10.769 0-17.692 6.923T132-791.385V-664q0 6.838-4.52 11.419Q122.959-648 116.21-648ZM664-112q-6.838 0-11.419-4.52T648-127.789q0-6.749 4.581-11.48Q657.162-144 664-144h127.385q10.769 0 17.692-6.923T816-168.615V-296q0-6.838 4.52-11.419Q825.041-312 831.79-312t11.479 4.581Q848-302.838 848-296v127.385q0 23.546-16.534 40.081Q814.931-112 791.385-112H664ZM324.308-480Z"/></svg>