<svg xmlns="http://www.w3.org/2000/svg" height="20" viewBox="0 -960 960 960" width="20"><path d="M717.739-496.957q0-63.174-36.435-113.848-36.434-50.674-94.174-73.847-15.661-6.593-22.743-20.493-7.083-13.899-1.517-29.595 5.565-16.261 19.978-25.174t30.109-3.348q81 30.305 133.13 102.805 52.131 72.5 52.131 163.5 0 89.112-50.631 161.056-50.63 71.944-130.63 103.248-15.696 6.565-32.109-1.348-16.413-7.913-22.433-25.142-5.111-15.728 1.972-29.627 7.082-13.899 22.743-20.492 57.74-23.174 94.174-73.848 36.435-50.674 36.435-113.847Zm-442.74 103.913h-88.216q-20.387 0-34.694-14.307-14.307-14.306-14.307-34.694V-551.87q0-20.387 14.307-34.694 14.307-14.307 34.694-14.307h88.216l119.13-119.13q23.218-23.217 53.414-10.656 30.196 12.56 30.196 45.344v376.615q0 32.784-30.196 45.393-30.196 12.609-53.414-10.609l-119.13-119.13ZM654.218-496.5q0 38.673-18.479 69.89-18.478 31.218-50.739 47.957-11.696 3.869-23.478.891-11.783-2.978-11.783-19.544v-199.738q0-16.565 11.783-19.544 11.782-2.978 23.478.892 32.261 17.304 50.739 48.739 18.479 31.434 18.479 70.457ZM89.993-648q-20.298 0-34.755-14.307-14.456-14.306-14.456-34.694v-112.216q0-41.005 28.498-69.503 28.498-28.498 69.503-28.498h112.216q20.388 0 34.694 14.246Q300-878.726 300-858.428q0 20.298-14.307 34.754-14.306 14.457-34.694 14.457H138.783v112.216q0 20.388-14.246 34.694Q110.291-648 89.993-648ZM697-52.782q-20.388 0-34.694-14.246Q648-81.274 648-101.572q0-20.298 14.307-34.754 14.306-14.457 34.694-14.457h112.216v-112.216q0-20.388 14.246-34.694Q837.709-312 858.007-312q20.298 0 34.755 14.307 14.456 14.306 14.456 34.694v112.216q0 41.005-28.498 69.503-28.498 28.498-69.503 28.498H697.001Z"/></svg>