<svg xmlns="http://www.w3.org/2000/svg" height="20" viewBox="0 -960 960 960" width="20"><path d="M856.053-663Q841-663 829.5-673.963T818-700q0-69.045-48.478-118.022Q721.045-867 651.714-867q-14.381 0-25.547-11.551Q615-890.103 615-905.051 615-920 626.259-931.5 637.518-943 653-943q102 0 171.5 70.222T894-700.951q0 15.025-11.244 26.488Q871.513-663 856.053-663Zm-134.979 0q-16.664 0-28.869-10.385Q680-683.769 680-699q0-12.6-8.41-21.3-8.41-8.7-20.59-8.7-15.231 0-25.615-12.205Q615-753.41 615-770.074q0-16.663 10.667-28.294Q636.333-810 652-810q45.721 0 77.361 32.26Q761-745.481 761-700q0 15.667-11.632 26.333Q737.737-663 721.074-663ZM479.765-256Q555-256 605.5-307.265q50.5-51.264 50.5-124.5Q656-504 605.735-556q-50.264-52-125.5-52Q405-608 354.5-556.235q-50.5 51.764-50.5 124.5Q304-359 354.265-307.5q50.264 51.5 125.5 51.5Zm.235-98q-35 0-56.5-21.5t-21.5-55q0-33.5 21.5-56.5t56.5-23q35 0 56.5 23t21.5 56.5q0 33.5-21.5 55T480-354ZM180-110q-49 0-83.5-34.5T62-228v-408q0-49 34.5-83.5T180-754h90l52-60q17-18 39.177-27T406-850h102.148Q532-850 549.5-832.65 567-815.3 567-791v80q40 0 68 28.2t28 67.8h176q24.3 0 41.65 17.35Q898-580.3 898-556v328q0 49-34.15 83.5T780-110H180Z"/></svg>