<svg xmlns="http://www.w3.org/2000/svg" height="20" viewBox="0 -960 960 960" width="20"><path d="M172.782-340.782v-278.436h614.436v278.436H172.782Zm262.739-420.741V-898.48h88.958v136.957h-88.958Zm314.48 101.392-62.87-62.87 79.87-79.871 62.871 62.871-79.871 79.87ZM435.521-61.52v-136.957h88.958V-61.52h-88.958Zm331.48-95.608-79.87-79.871 62.87-62.87 79.871 79.87-62.871 62.871ZM209.999-660.131l-79.871-79.87 62.871-62.871 79.87 79.871-62.87 62.87Zm-17 503.003-62.871-62.871 79.871-79.87 62.87 62.87-79.87 79.871Zm77.784-281.655h418.434v-82.434H270.783v82.434Zm0 0v-82.434 82.434Z"/></svg>