<svg xmlns="http://www.w3.org/2000/svg" height="20" viewBox="0 -960 960 960" width="20"><path d="M464-308v35.385q0 5.692 3.461 9.154 3.462 3.461 9.154 3.461h5.231q6.462 0 10.308-3.846T496-274.154V-308h32q11.939 0 19.969-8.031Q556-324.061 556-336v-72q0-11.939-8.031-19.969Q539.939-436 528-436H412v-112h140q1.739 0 2.869-1.09 1.131-1.091 1.131-2.77t-1.131-2.909Q553.739-556 552-556h-56v-35.385q0-5.692-3.461-9.154-3.462-3.461-9.154-3.461h-5.231q-6.462 0-10.308 3.846T464-589.846V-556h-32q-11.939 0-19.969 8.031Q404-539.939 404-528v72q0 11.939 8.031 19.969Q420.061-428 432-428h116v112H408q-1.739 0-2.869 1.09-1.131 1.091-1.131 2.77t1.131 2.909Q406.261-308 408-308h56ZM288.332-136Q264-136 248-152.15t-16-40.465v-574.77q0-24.315 16.15-40.465Q264.3-824 288.615-824h246.616q11.145 0 21.726 4.231 10.582 4.23 19.274 12.923l134.615 134.615q8.693 8.692 12.923 19.274Q728-642.376 728-631.231v438.616q0 24.315-16.162 40.465Q695.676-136 671.344-136H288.332Zm.283-32h382.77q9.23 0 16.923-7.692Q696-183.385 696-192.615V-642L546-792H288.615q-9.23 0-16.923 7.692Q264-776.615 264-767.385v574.77q0 9.23 7.692 16.923Q279.385-168 288.615-168ZM264-168v-624 624Z"/></svg>