<svg xmlns="http://www.w3.org/2000/svg" height="20" viewBox="0 -960 960 960" width="20"><path d="M433.26-272.738v23.217q0 10.713 7.035 17.748 7.035 7.035 17.748 7.035h36q10.827 0 17.522-7.035 6.696-7.035 6.696-17.748v-23.217h14.261q22.661 0 38.439-16.061 15.779-16.061 15.779-38.722V-408q0-22.661-15.779-38.439-15.778-15.779-38.439-15.779h-98.261v-68.043h122.261q12.461 0 21.339-9.121 8.879-9.12 8.879-21.522 0-12.401-8.879-21.379-8.878-8.979-21.339-8.979H526.74v-23.782q0-10.826-6.696-17.522-6.696-6.696-17.522-6.696h-36q-10.713 0-17.748 6.696-7.035 6.696-7.035 17.522v23.782h-14.261q-22.661 0-38.439 16.061-15.779 16.061-15.779 38.722V-456q0 22.661 15.779 38.439 15.778 15.779 38.439 15.779h98.261v68.043H403.478q-12.461 0-21.339 8.838-8.879 8.838-8.879 21.239 0 12.402 9.161 21.663 9.161 9.261 21.622 9.261h29.217ZM270.5-76.782q-41.022 0-69.37-28.498-28.348-28.498-28.348-69.503v-610.434q0-41.005 28.498-69.503 28.498-28.498 69.503-28.498h272.391q19.447 0 37.072 6.978 17.624 6.978 32.581 21.935l145.478 145.478q14.957 14.957 21.935 32.581 6.978 17.625 6.978 37.072v464.391q0 41.005-28.51 69.503-28.51 28.498-69.531 28.498H270.5Zm.283-98.001h418.434v-464.391L543.174-785.217H270.783v610.434Zm0 0v-610.434 610.434Z"/></svg>