<svg xmlns="http://www.w3.org/2000/svg" height="20" viewBox="0 -960 960 960" width="20"><path d="M470-314v37q0 5.2 2.9 8.1 2.9 2.9 8.1 2.9h-4q6 0 9.5-3.5t3.5-9.5v-35h38q9.35 0 15.675-6.325Q550-326.65 550-336v-72q0-9.35-6.325-15.675Q537.35-430 528-430H406v-124h146q-.85 0-1.425.605-.575.606-.575 1.5 0 .895.575 1.395t1.425.5h-62v-37q0-5.2-2.9-8.1-2.9-2.9-8.1-2.9h4q-6 0-9.5 3.5T470-585v35h-38q-9.35 0-15.675 6.325Q410-537.35 410-528v72q0 9.35 6.325 15.675Q422.65-434 432-434h122v124H408q.85 0 1.425-.605.575-.606.575-1.5 0-.895-.575-1.395T408-314h62ZM295.717-148Q273-148 258.5-162.65T244-200v-560q0-22.7 14.65-37.35Q273.3-812 296-812h236q10.667 0 20.333 4Q562-804 570-796l130 130q8 8 12 17.667 4 9.666 4 20.333v428q0 22.7-14.662 37.35Q686.676-148 663.96-148H295.717Z"/></svg>