<svg xmlns="http://www.w3.org/2000/svg" height="20" viewBox="0 -960 960 960" width="20"><path d="M464-308v35.385q0 5.846 3.385 9.23 3.384 3.385 9.23 3.385h5.231q6.462 0 10.308-3.846T496-274.154V-308h32q11.9 0 19.95-8.05Q556-324.1 556-336v-72q0-11.9-8.05-19.95Q539.9-436 528-436H412v-112h140q1.7 0 2.85-1.117 1.15-1.118 1.15-2.77t-1.15-2.882Q553.7-556 552-556h-56v-35.385q0-5.846-3.385-9.23-3.384-3.385-9.23-3.385h-5.231q-6.462 0-10.308 3.846T464-589.846V-556h-32q-11.9 0-19.95 8.05Q404-539.9 404-528v72q0 11.9 8.05 19.95Q420.1-428 432-428h116v112H408q-1.7 0-2.85 1.117-1.15 1.118-1.15 2.77t1.15 2.882Q406.3-308 408-308h56ZM288.332-136Q264-136 248-152.15t-16-40.465v-574.77q0-24.315 16.15-40.465Q264.3-824 288.615-824h246.616q11.487 0 21.897 4.231 10.411 4.23 19.103 12.923l134.615 134.615q8.693 8.692 12.923 19.103Q728-642.718 728-631.231v438.616q0 24.315-16.162 40.465Q695.676-136 671.344-136H288.332Z"/></svg>