<svg xmlns="http://www.w3.org/2000/svg" height="20" viewBox="0 -960 960 960" width="20"><path d="M648-301q74.285 0 126.642-52.424Q827-405.847 827-480.226t-52.358-126.576Q722.285-659 648-659q-23.74 0-44.05 6.093Q583.64-646.815 567-635q19.717 33.645 30.858 73.032Q609-522.581 609-479.79q0 42.79-11.142 81.967Q586.717-358.645 567-325q16.64 11.815 36.95 17.907Q624.26-301 648-301ZM480-410q4.825-16.64 7.913-34.49Q491-462.341 491-480.171q0-17.829-3.087-35.509Q484.825-533.36 480-550q-4.825 16.64-7.913 34.49Q469-497.659 469-479.829q0 17.829 3.087 35.509Q475.175-426.64 480-410ZM312-301q23.74 0 44.05-6.093Q376.36-313.185 393-325q-19.717-33.645-30.858-73.032Q351-437.419 351-480.21q0-42.79 11.142-81.967Q373.283-601.355 393-635q-16.64-11.815-36.95-17.907Q335.74-659 312-659q-74.285 0-126.642 52.424Q133-554.153 133-479.774t52.358 126.576Q237.715-301 312-301Zm0 118q-124.104 0-210.552-86.427T15-479.927Q15-604 101.448-690.5 187.896-777 312-777q46.5 0 89.25 14T480-723q36-26 78.75-40T648-777q124.104 0 210.552 86.427T945-480.073Q945-356 858.552-269.5 772.104-183 648-183q-46.5 0-89.25-14T480-237q-36 26-78.75 40T312-183Z"/></svg>