<svg xmlns="http://www.w3.org/2000/svg" height="24" viewBox="0 -960 960 960" width="24"><path d="M186-776h348q5.95 0 9.975 4.035 4.025 4.035 4.025 10T543.975-752q-4.025 4-9.975 4H186q-5.95 0-9.975-4.035-4.025-4.035-4.025-10t4.025-9.965q4.025-4 9.975-4Zm134 396v60q0 16.667 11.735 28.333Q343.471-280 360.235-280 377-280 388.5-291.667 400-303.333 400-320v-60h60q16.667 0 28.333-11.735Q500-403.471 500-420.235 500-437 488.333-448.5 476.667-460 460-460h-60v-60q0-16.667-11.735-28.333Q376.529-560 359.765-560 343-560 331.5-548.333 320-536.667 320-520v60h-60q-16.667 0-28.333 11.735Q220-436.529 220-419.765 220-403 231.667-391.5 243.333-380 260-380h60ZM192-172q-26 0-43-17t-17-43v-376q0-26 17-43t43-17h336q26 0 43 17t17 43v376q0 26-17 43t-43 17H192Zm0-28h336q12 0 22-10t10-22v-376q0-12-10-22t-22-10H192q-12 0-22 10t-10 22v376q0 12 10 22t22 10Zm556-201q-35-17-57.5-52T668-533.59q0-57.41 27.5-95.91T762-668q39 0 66.5 38.525T856-534q0 46-22.5 81T776-401v215q0 5.95-4.035 9.975-4.035 4.025-10 4.025T752-176.025q-4-4.025-4-9.975v-215Zm14.154-27Q782-428 805-456.483q23-28.483 23-77.5Q828-583 804.846-611.5q-23.154-28.5-43-28.5T719-611.517q-23 28.483-23 77.5Q696-485 719.154-456.5q23.154 28.5 43 28.5ZM360-420Zm402-114Z"/></svg>