<svg xmlns="http://www.w3.org/2000/svg" height="24" viewBox="0 -960 960 960" width="24"><path d="M180-790.77h360q8.5 0 14.25 5.758t5.75 14.27q0 8.511-5.75 14.242-5.75 5.731-14.25 5.731H180q-8.5 0-14.25-5.758T160-770.796q0-8.512 5.75-14.243T180-790.77Zm135.385 415.385V-320q0 18.59 13.065 31.603 13.066 13.012 31.731 13.012t31.55-13.012Q404.615-301.41 404.615-320v-55.385H460q18.59 0 31.603-13.065 13.012-13.066 13.012-31.731t-13.012-31.55Q478.59-464.615 460-464.615h-55.385V-520q0-18.59-13.065-31.603-13.066-13.012-31.731-13.012t-31.55 13.012Q315.385-538.59 315.385-520v55.385H260q-18.59 0-31.603 13.065-13.012 13.066-13.012 31.731t13.012 31.55Q241.41-375.385 260-375.385h55.385ZM184.615-160Q157-160 138.5-178.5 120-197 120-224.615v-390.77Q120-643 138.5-661.5 157-680 184.615-680h350.77Q563-680 581.5-661.5 600-643 600-615.385v390.77Q600-197 581.5-178.5 563-160 535.385-160h-350.77Zm0-40h350.77q9.23 0 16.923-7.692Q560-215.385 560-224.615v-390.77q0-9.23-7.692-16.923Q544.615-640 535.385-640h-350.77q-9.23 0-16.923 7.692Q160-624.615 160-615.385v390.77q0 9.23 7.692 16.923Q175.385-200 184.615-200Zm566.154-203.077q-35-17-57.5-53.038-22.5-36.039-22.5-83.57 0-59.854 29.116-100.084Q729-680 770.769-680q41.77 0 70.885 40.25Q870.77-599.5 870.77-540q0 47.846-22.5 83.885-22.5 36.038-57.5 53.038V-180q0 8.5-5.758 14.25t-14.27 5.75q-8.511 0-14.242-5.75-5.731-5.75-5.731-14.25v-223.077ZM770.888-440q18.035 0 38.958-26.872 20.923-26.871 20.923-73.115t-21.041-73.128Q788.687-640 770.651-640q-18.035 0-38.958 26.871-20.923 26.872-20.923 73.116t21.041 73.128Q752.852-440 770.888-440ZM360-420Zm410.769-120Z"/></svg>