<svg xmlns="http://www.w3.org/2000/svg" height="24" viewBox="0 -960 960 960" width="24"><path d="M108-926h461q26 0 44.5 18.5T632-863q0 26-18.5 44.5T569-800H108q-26 0-44.5-18.5T45-863q0-26 18.5-44.5T108-926Zm163 597v40q0 27.917 19.765 47.458 19.764 19.542 48 19.542Q367-222 386.5-241.833 406-261.667 406-290v-39h40q29 0 48.5-19.5T514-397q0-29-19.5-48.5T446-465h-40v-40q0-27.917-19.559-47.458Q366.882-572 338.941-572T291-552.458Q271-532.917 271-505v40h-40q-29 0-48.5 19.5T163-397q0 29 19.5 48.5T231-329h40ZM125-34q-53 0-89.5-36.5T-1-160v-474q0-53 36.5-89.5T125-760h427q53 0 89.5 36.5T678-634v474q0 53-36.5 89.5T552-34H125Zm0-126h427v-474H125v474Zm686-216q-42-23-67.5-71T718-558q0-85 44.789-143.5 44.79-58.5 111-58.5Q940-760 984.5-701.5T1029-558q0 63-25 111t-67 71v279q0 26-18.5 44.5T874-34q-26 0-44.5-18.5T811-97v-279Zm63-107q8 0 18.5-20.214 10.5-20.213 10.5-55Q903-593 892.5-613.5T874-634q-8 0-19 20.397-11 20.398-11 55.5Q844-523 855-503t19 20Zm-535 86Zm535-161Z"/></svg>