<svg xmlns="http://www.w3.org/2000/svg" height="24" viewBox="0 -960 960 960" width="24"><path d="M130.607-888.611h434.48q22.087 0 37.544 15.457 15.457 15.456 15.457 37.543 0 22.088-15.457 37.544-15.457 15.457-37.544 15.457h-434.48q-22.087 0-37.544-15.457-15.457-15.456-15.457-37.544 0-22.087 15.457-37.543 15.457-15.457 37.544-15.457Zm153.001 546.134v40q0 26.648 18.78 45.302t45.609 18.654q26.829 0 45.459-18.819 18.631-18.818 18.631-45.703v-39.434h40q27.261 0 45.891-18.631 18.631-18.63 18.631-45.891t-18.631-45.892q-18.63-18.63-45.891-18.63h-40v-40q0-26.649-18.664-45.303-18.664-18.654-45.326-18.654-26.663 0-45.576 18.654t-18.913 45.303v40h-40q-27.261 0-45.892 18.63-18.63 18.631-18.63 45.892 0 27.261 18.63 45.891 18.631 18.631 45.892 18.631h40ZM140.216-71.389q-44.305 0-75.153-30.848-30.848-30.848-30.848-75.153v-459.219q0-44.304 30.848-75.153 30.848-30.848 75.153-30.848h415.262q44.305 0 75.153 30.848 30.848 30.849 30.848 75.153v459.219q0 44.305-30.848 75.153-30.848 30.848-75.153 30.848H140.216Zm0-106.001h415.262v-459.219H140.216v459.219Zm648.612-213.392q-38.957-20.391-63.153-64.696-24.196-44.304-24.196-103.392 0-77.609 40.316-130.674 40.317-53.066 99.914-53.066 59.598 0 99.75 53.066 40.153 53.065 40.153 130.674 0 59.088-23.913 103.392-23.913 44.305-62.87 64.696v266.393q0 22.087-15.457 37.543-15.457 15.457-37.544 15.457-22.087 0-37.544-15.457-15.456-15.456-15.456-37.543v-266.393Zm53-90.914q9.739 0 21.761-20.773 12.022-20.773 12.022-56.521 0-35.749-12.022-56.684-12.022-20.935-21.761-20.935-9.739 0-22.043 20.877-12.304 20.877-12.304 56.805 0 35.927 12.304 56.579t22.043 20.652ZM348.13-406.999ZM841.828-558.87Z"/></svg>