<svg xmlns="http://www.w3.org/2000/svg" height="20" viewBox="0 -960 960 960" width="20"><path d="M150.581-864.611h394.217q20.376 0 34.833 14.246 14.457 14.246 14.457 34.544 0 20.298-14.299 34.754-14.299 14.457-34.676 14.457H150.896q-20.376 0-34.833-14.246-14.456-14.246-14.456-34.544 0-20.298 14.299-34.754 14.299-14.457 34.675-14.457Zm145.027 498.134v48q0 21.695 15.413 36.826 15.413 15.13 37.109 15.13t36.826-15.413q15.131-15.413 15.131-37.109v-47.434h48q22.261 0 37.391-15.131 15.131-15.13 15.131-37.391 0-22.261-15.131-37.392-15.13-15.13-37.391-15.13h-48v-48q0-21.696-15.131-36.827-15.13-15.13-36.826-15.13-21.696 0-37.109 15.13-15.413 15.131-15.413 36.827v48h-48q-22.261 0-37.392 15.13-15.13 15.131-15.13 37.392 0 22.261 15.13 37.391 15.131 15.131 37.392 15.131h48ZM148.216-95.389q-40.305 0-69.153-28.848-28.848-28.848-28.848-69.153v-427.219q0-41.004 28.848-69.503 28.848-28.498 69.153-28.498h399.262q41.005 0 69.503 28.498 28.498 28.499 28.498 69.503v427.219q0 40.305-28.498 69.153-28.498 28.848-69.503 28.848H148.216Zm636.612-277.026q-38.957-17.758-65.153-62.36-26.196-44.601-26.196-104.095 0-75.909 41.935-127.824 41.936-51.916 98.414-51.916 56.479 0 98.131 51.916 41.653 51.915 41.653 127.824 0 59.494-25.913 104.095-25.913 44.602-64.87 62.36v227.659q0 19.454-14.246 34.41-14.246 14.957-34.544 14.957-20.298 0-34.755-14.957-14.456-14.956-14.456-34.41v-227.659Z"/></svg>