<svg xmlns="http://www.w3.org/2000/svg" height="24" viewBox="0 -960 960 960" width="24"><path d="M515.769-100.001q-47.05 0-92.256-12.847-45.205-12.846-85.128-37.768L381.769-194q31 17 65 25.5t69 8.5q117 0 198.5-81.5t81.5-198.5q0-117-81.5-198.5t-198.5-81.5H486.69l71.232 71.231-42.153 44.923-146.153-146.153 146.153-146.153 42.153 44.922-71.232 71.231h29.079q141.666 0 240.832 99.151t99.166 240.795q0 70.822-26.769 132.668-26.769 61.846-72.769 107.846-45.999 45.999-107.83 72.768-61.831 26.77-132.63 26.77Zm-240-128.463L64.233-440l211.536-211.536L487.305-440 275.769-228.464Zm0-85.536 126-126-126-126-126 126 126 126Zm0-126Z"/></svg>