<svg xmlns="http://www.w3.org/2000/svg" height="24" viewBox="0 -960 960 960" width="24"><path d="M526.783-60.216q-54.392 0-106.5-14.848-52.109-14.848-97.37-45.109l76.653-77.218q29.304 16.434 61.608 23.804 32.305 7.369 65.609 7.369 114.174 0 193.695-79.239Q800-324.696 800-438.87q0-111.912-76.695-190.869-76.696-78.956-188.609-82.348h-3.173l48.999 49-68.435 69.87-171.871-171.87 171.871-172.436 68.435 69.305-50.13 50.13h3.739q156.218 2.826 264.044 112.914Q906.001-595.087 906.001-438.87q0 78.392-29.913 147.566t-81.239 120.218q-51.326 51.043-120.5 80.957-69.175 29.913-147.566 29.913ZM271.521-181.912 13.999-438.87 271.52-696.392 528.479-438.87 271.521-181.912Z"/></svg>