<svg xmlns="http://www.w3.org/2000/svg" height="24" viewBox="0 -960 960 960" width="24"><path d="M480-242.826q-56 0-107 17.5t-93 52.5v6.043h400v-6.043q-42-35-93-52.5t-107-17.5Zm-273.217 18.738q54-50.174 122.108-78.695Q397-331.305 480-331.305q83 0 151.109 27.956 68.108 27.957 122.108 78.131v-487.999H206.783v489.129ZM480-388.695q-60.261 0-102.391-42.131-42.131-42.13-42.131-102.391t42.131-102.109q42.13-41.848 102.391-41.848t102.391 41.848q42.131 41.848 42.131 102.109 0 60.261-42.131 102.391-42.13 42.131-102.391 42.131Zm.133-88.479q23.171 0 39.258-16.336 16.087-16.336 16.087-39.674 0-23.337-16.22-39.424t-39.391-16.087q-23.171 0-39.258 16.22-16.087 16.22-16.087 39.391t16.22 39.541q16.22 16.369 39.391 16.369ZM100.782-60.782v-758.436h139.331v-80h92.888v80h293.998v-80h92.888v80h139.331v758.436H100.782ZM480-533.217Zm0 366.434h200-400 200Z"/></svg>