<svg xmlns="http://www.w3.org/2000/svg" height="24" viewBox="0 -960 960 960" width="24"><path d="M480-254.616q-62.154 0-119.693 21.346-57.539 21.346-106.078 64.809V-160h450.388V-168.461q-47.769-43.463-104.853-64.809Q542.68-254.616 480-254.616Zm-280 54.001q54-53 125.5-83.5t154.5-30.5q83 0 154.5 30.5t125.5 83.5V-720H200v519.385Zm280-209.386q-54.154 0-92.076-37.923-37.923-37.922-37.923-92.076 0-54.154 37.923-92.076 37.922-37.923 92.076-37.923 54.154 0 92.076 37.923 37.923 37.922 37.923 92.076 0 54.154-37.923 92.076-37.922 37.923-92.076 37.923Zm0-59.998q28.846 0 49.424-20.577 20.577-20.578 20.577-49.424t-20.577-49.424Q508.846-610.001 480-610.001t-49.424 20.577Q409.999-568.846 409.999-540t20.577 49.424q20.578 20.577 49.424 20.577ZM140.001-100.001v-679.998h127.693v-84.615h61.537v84.615h303.076v-84.615h59.999v84.615h127.693v679.998H140.001ZM480-540Zm.192 380h224.425-450.388H480.192Z"/></svg>