<svg xmlns="http://www.w3.org/2000/svg" height="24" viewBox="0 -960 960 960" width="24"><path d="M810.769-92.615 622.923-280H243.077L120-156.923v-638.462h44.615l266.154 266.154h-56.615L40.308-863.077l28.307-28.308 770.462 770.462-28.308 28.308ZM788-281.384 531.692-540H700v-40H491.692L414-660h286v-40H397.692v23.692L234-840h606v558.616h-52ZM286.154-409.231q12.384 0 21.577-9.192 9.192-9.192 9.192-21.577 0-12.385-9.192-21.577-9.193-9.192-21.577-9.192-12.385 0-21.577 9.192-9.192 9.192-9.192 21.577 0 12.385 9.192 21.577 9.192 9.192 21.577 9.192Zm0-120q12.384 0 21.577-9.192 9.192-9.192 9.192-21.577 0-12.385-9.192-21.577-9.193-9.192-21.577-9.192-12.385 0-21.577 9.192-9.192 9.192-9.192 21.577 0 12.385 9.192 21.577 9.192 9.192 21.577 9.192Z"/></svg>