<svg xmlns="http://www.w3.org/2000/svg" height="24" viewBox="0 -960 960 960" width="24"><path d="M452.826-61.912q-34.13 0-68.196-6.935-34.065-6.935-67.934-20.37 6.913-126.087 65.478-236.456Q440.739-436.043 534-521.13 420.609-462.87 339.826-365.5T221.391-146.173q-4.565-4.131-9.196-8.196-4.63-4.065-9.196-8.63Q153.738-212.26 127.26-274.5q-26.478-62.239-26.478-129.196 0-71.391 28.413-135.652 28.413-64.261 78.674-114.522 86.087-86.087 223.848-112.566 137.762-26.478 379.806-3.087 22.522 243.522-3.457 379.762-25.978 136.24-111.065 221.892-50.696 51.261-113.74 78.609-63.043 27.348-130.435 27.348Z"/></svg>