<svg xmlns="http://www.w3.org/2000/svg" height="20" viewBox="0 -960 960 960" width="20"><path d="m480-277-82.615 82.616q-5.616 5.615-10.385 4.73-4.769-.884-10.385-6.5Q371-201.769 371-207.423t5.615-11.269l80.846-80.846-82.615-82.616q-5.615-5.615-4.731-11.269.885-5.654 6.5-11.269 5.616-5.616 11.27-5.616t11.269 5.616L480-322.077l82.615-82.615q5.616-5.616 11.27-5.616t11.269 5.616q5.615 5.615 5.615 11.269t-5.615 11.269l-82.615 82.616 82.615 82.615q5.615 5.615 5.615 10.385 0 4.769-5.615 10.384-5.615 5.616-11.269 5.616t-11.27-5.616L480-277ZM293.923-633.231l27.692 62.616q3.077 7.692 9.231 11.923 6.154 4.23 13.846 4.23h270.616q7.692 0 13.846-4.23 6.154-4.231 9.231-11.923l26.692-62.616H293.923Zm49.769 110.77q-17.615 0-31.884-8.154-14.27-8.154-20.5-23.77l-32.847-78.846h-17.846q-23.846 0-40.231-16.384Q184-666 184-689.846V-776h592v86.154q0 23.846-16.384 40.231-16.385 16.384-40.231 16.384h-17.846l-30.77 75.77q-6.461 15.384-21.115 25.192-14.654 9.808-32.039 9.808H343.692Z"/></svg>