<svg xmlns="http://www.w3.org/2000/svg" height="24" viewBox="0 -960 960 960" width="24"><path d="m480-170.302-55.651 55.652q-15.522 15.522-37.044 15.239-21.522-.283-37.044-15.805-15.522-15.522-15.522-37.326 0-21.805 15.522-37.327l55.086-55.086-55.651-55.651q-15.522-15.522-15.24-37.326.283-21.805 15.805-37.327 15.522-15.522 37.327-15.522 21.804 0 37.326 15.522L480-319.608l55.651-55.651q15.522-15.522 37.327-15.522 21.804 0 37.326 15.522 15.522 15.522 15.522 37.327 0 21.804-15.522 37.326l-55.651 55.651 55.651 55.651q15.522 15.522 15.522 37.044t-15.522 37.044q-15.522 15.522-37.326 15.522-21.805 0-37.327-15.522L480-170.302ZM321.174-629.826l11.435 40h294.782l11.435-40H321.174Zm11.435 146.002q-36.74 0-65.088-22.001-28.349-22-37.479-57.174l-17.739-66.827h-28.13q-44.305 0-75.153-30.848-30.848-30.848-30.848-75.153v-146.001h803.656v146.001q0 44.305-30.848 75.153-30.848 30.848-75.153 30.848h-28.13l-20.913 69.131q-10.13 34.305-38.044 55.588-27.913 21.283-63.653 21.283H332.609Z"/></svg>