<svg xmlns="http://www.w3.org/2000/svg" height="24" viewBox="0 -960 960 960" width="24"><path d="m480-264-90.615 90.616q-5.616 5.615-13.385 5.23-7.769-.384-13.385-6Q357-179.769 357-187.923t5.615-13.769l89.846-89.846-90.615-90.616q-5.615-5.615-5.231-13.769.385-8.154 6-13.769 5.616-5.616 13.77-5.616t13.769 5.616L480-319.077l90.615-90.615q5.616-5.616 13.77-5.616t13.769 5.616q5.615 5.615 5.615 13.769t-5.615 13.769l-90.615 90.616 90.615 90.615q5.615 5.615 5.615 13.385 0 7.769-5.615 13.384-5.615 5.616-13.769 5.616t-13.77-5.616L480-264ZM200-760v46.154q0 10.769 6.923 17.692t17.692 6.923h510.77q10.769 0 17.692-6.923T760-713.846V-760H200Zm100.923 110.769 19.692 54.616q3.077 7.692 9.231 11.923 6.154 4.23 13.846 4.23h272.616q7.692 0 13.846-4.23 6.154-4.231 9.231-11.923l19.692-54.616H300.923Zm42.769 110.77q-20.615 0-37.384-11.654-16.77-11.654-24-31.27l-23.847-67.846h-33.846q-26.846 0-45.731-18.884Q160-687 160-713.846V-800h640v86.154q0 26.846-18.884 45.731-18.885 18.884-45.731 18.884h-33.846l-26.77 68.77q-7.461 18.384-23.615 30.192-16.154 11.808-36.539 11.808H343.692ZM200-760v70.769V-760Z"/></svg>