<svg xmlns="http://www.w3.org/2000/svg" height="20" viewBox="0 -960 960 960" width="20"><path d="M532-244H324.41q-22.16 0-37.285-15.275Q272-274.55 272-296v-208q0-108.588 75.585-184.294Q423.17-764 531.585-764T716-688.415q76 75.585 76 184T716.294-320Q640.588-244 532-244Zm.222-154Q577-398 607.5-428.722q30.5-30.722 30.5-75.5T607.278-579.5q-30.722-30.5-75.5-30.5T456.5-579.278q-30.5 30.722-30.5 75.5t30.722 75.278q30.722 30.5 75.5 30.5Zm-.34-20Q496-418 471-443.118q-25-25.117-25-61Q446-540 471.118-565q25.117-25 61-25Q568-590 593-564.882q25 25.117 25 61Q618-468 592.882-443q-25.117 25-61 25ZM202.175-244Q198-244 195-246.875T192-254v-120q0-4.25 2.825-7.125 2.824-2.875 7-2.875 4.175 0 7.175 2.875t3 7.125v120q0 4.25-2.825 7.125-2.824 2.875-7 2.875Z"/></svg>