<svg xmlns="http://www.w3.org/2000/svg" height="20" viewBox="0 -960 960 960" width="20"><path d="M128.479-126.477q-41.005 0-69.503-28.499-28.499-28.498-28.499-69.503v-511.042q0-41.005 28.499-69.503 28.498-28.499 69.503-28.499h703.042q41.005 0 69.503 28.499 28.499 28.498 28.499 69.503v511.042q0 41.005-28.499 69.503-28.498 28.499-69.503 28.499H128.479ZM360-307.478h240q11.409 0 19.965-8.331 8.557-8.33 8.557-19.908 0-11.579-8.557-20.192-8.556-8.613-19.965-8.613H360q-11.409 0-19.965 8.331-8.557 8.33-8.557 19.908 0 11.579 8.557 20.192 8.556 8.613 19.965 8.613Zm-136.522-120h81.044v-81.044h-81.044v81.044Zm144 0h81.044v-81.044h-81.044v81.044Zm144 0h81.044v-81.044h-81.044v81.044Zm144 0h81.044v-81.044h-81.044v81.044Zm-432-144h81.044v-81.044h-81.044v81.044Zm144 0h81.044v-81.044h-81.044v81.044Zm144 0h81.044v-81.044h-81.044v81.044Zm144 0h81.044v-81.044h-81.044v81.044Z"/></svg>