<svg xmlns="http://www.w3.org/2000/svg" height="24" viewBox="0 -960 960 960" width="24"><path d="M132.309-140.001q-30.308 0-51.308-21t-21-51.308v-495.382q0-30.308 21-51.308t51.308-21h695.382q30.308 0 51.308 21t21 51.308v495.382q0 30.308-21 51.308t-51.308 21H132.309ZM340-282.308h280q7.077 0 12.385-5.308 5.307-5.307 5.307-12.384t-5.307-12.384q-5.308-5.308-12.385-5.308H340q-7.077 0-12.384 5.308-5.308 5.307-5.308 12.384t5.308 12.384q5.307 5.308 12.384 5.308ZM204.616-404.616h70.768v-70.768h-70.768v70.768Zm160 0h70.768v-70.768h-70.768v70.768Zm160 0h70.768v-70.768h-70.768v70.768Zm160 0h70.768v-70.768h-70.768v70.768Zm-480-160h70.768v-70.768h-70.768v70.768Zm160 0h70.768v-70.768h-70.768v70.768Zm160 0h70.768v-70.768h-70.768v70.768Zm160 0h70.768v-70.768h-70.768v70.768Z"/></svg>