<svg xmlns="http://www.w3.org/2000/svg" height="24" viewBox="0 -960 960 960" width="24"><path d="M152-172q-26 0-43-17t-17-43v-456q0-26 17-43t43-17h656q26 0 43 17t17 43v456q0 26-17 43t-43 17H152Zm0-28h656q12 0 22-10t10-22v-456q0-12-10-22t-22-10H152q-12 0-22 10t-10 22v456q0 12 10 22t22 10Zm188-86h280q6 0 10-4t4-10q0-6-4-10t-10-4H340q-6 0-10 4t-4 10q0 6 4 10t10 4Zm-220 86v-520 520Zm92-212h56v-56h-56v56Zm160 0h56v-56h-56v56Zm160 0h56v-56h-56v56Zm160 0h56v-56h-56v56ZM212-572h56v-56h-56v56Zm160 0h56v-56h-56v56Zm160 0h56v-56h-56v56Zm160 0h56v-56h-56v56Z"/></svg>