<svg xmlns="http://www.w3.org/2000/svg" height="20" viewBox="0 -960 960 960" width="20"><path d="M449-64q-80-6-150.5-40.5t-123.5-91Q122-252 92.5-324.827 63-397.655 63-480.458q0-86.428 32.5-161.985Q128-718 185.5-775.5q57.5-57.5 133.369-90T481-898q156 0 269.506 98.341Q864.012-701.318 892-553H772.119q-16.319-68.963-62.735-122.283Q662.968-728.604 597-756v21q0 28.463-21.15 48.731Q554.7-666 526.46-666H434v44.701q0 19.699-13.8 33.499T386.701-574H342v92h42v91h-44L188-543q-2.625 15-4.812 30Q181-498 181-482q0 118 78 203.5T449-182v118Zm370-16L695-205q-19 10-38.9 15t-41.1 5q-76 0-130-54t-54-130.176q0-76.177 54-129.5Q539-552 615.176-552q76.177 0 129.501 53.324Q798-445.351 798-369.174q0 21.174-5 41.674T778-288l125 124-84 84ZM614.775-303q27.205 0 46.215-19.075 19.01-19.074 19.01-46.7 0-27.205-18.789-46.215-18.789-19.01-46-19.01T568.5-415.211q-19.5 18.788-19.5 46Q549-342 568.075-322.5q19.074 19.5 46.7 19.5Z"/></svg>