<svg xmlns="http://www.w3.org/2000/svg" height="20" viewBox="0 -960 960 960" width="20"><path d="M480-96q-79 0-149-30t-122.5-82.5Q156-261 126-330.958q-30-69.959-30-149.5Q96-560 126-629.5t82.5-122Q261-804 330.812-834T480-864q142 0 246.604 88.935Q831.207-686.131 857-552h-73.881Q766-625 717.5-681.5T600-767v23q0 29.7-21.15 50.85Q557.7-672 528-672h-96v48q0 20.4-13.8 34.2Q404.4-576 384-576h-48v96h48v96h-48L175-545q-2.625 16-4.812 32Q168-497 168-480q0 130 91 221t221 91v72Zm333-24L690-243q-20 13-42.4 20t-47.6 7q-70 0-119-49t-49-119q0-70 49-119t119-49q70 0 119 48.949 49 48.95 49 118.877 0 25.174-7 47.674T741-294l123 123-51 51ZM599.775-288Q640-288 668-315.775q28-27.774 28-68Q696-424 668.225-452q-27.774-28-68-28Q560-480 532-452.225q-28 27.774-28 68Q504-344 531.775-316q27.774 28 68 28Z"/></svg>