<svg xmlns="http://www.w3.org/2000/svg" height="20" viewBox="0 -960 960 960" width="20"><path d="M175.781-190.347q-57.957-58.522-91.479-132.479Q50.78-396.782 50.78-480q0-82.652 33.522-157.174t91.479-132.914L246.434-701q-45.565 44-71.609 100.717Q148.782-543.565 148.782-480q0 62.565 26.043 118.5 26.044 55.935 70.609 101.5l-69.653 69.653ZM372-226.999q-30.652 0-51.827-21.174-21.174-21.175-21.174-51.827 0-30.652 21.174-51.827 21.175-21.174 51.827-21.174 30.652 0 51.827 21.174 21.174 21.175 21.174 51.827 0 30.652-21.174 51.827-21.175 21.174-51.827 21.174Zm124.652-197.653v-76.347l-66.478 38.173-43.348-75L453.304-576l-66.478-38.174 43.348-75 66.478 38.173v-76.347h86.696v76.347l66.478-38.173 43.348 75L626.696-576l66.478 38.174-43.348 75-66.478-38.173v76.347h-86.696Zm287.567 234.305L714.566-260q44.565-44 70.609-100.217Q811.218-416.435 811.218-480t-25.543-120q-25.544-56.435-71.109-101l69.653-69.088q57.957 58.957 91.479 133.196Q909.22-562.652 909.22-480q0 83.218-33.522 157.74t-91.479 131.913Z"/></svg>