<svg xmlns="http://www.w3.org/2000/svg" height="24" viewBox="0 -960 960 960" width="24"><path d="M164.781-180.347q-59.957-61.522-94.979-138.479Q34.78-395.782 34.78-482q0-85.652 34.522-163.174t95.479-137.914L240.434-708q-46.565 45-73.109 103.217Q140.782-546.565 140.782-482t27.043 122.5q27.044 57.935 72.609 103.5l-75.653 75.653ZM380-226.999q-30.652 0-51.827-21.174-21.174-21.175-21.174-51.827 0-30.652 21.174-51.827 21.175-21.174 51.827-21.174 30.652 0 51.827 21.174 21.174 21.175 21.174 51.827 0 30.652-21.174 51.827-21.175 21.174-51.827 21.174Zm131.652-205.653v-65.347l-56.478 33.173-47.348-83L464.304-580l-56.478-32.174 47.348-83 56.478 33.173v-65.347h94.696v65.347l56.478-33.173 47.348 83L653.696-580l56.478 32.174-47.348 83-56.478-33.173v65.347h-94.696Zm283.567 252.305L719.566-256q46.565-45 73.109-103.217Q819.218-417.435 819.218-482t-27.043-122.5q-27.044-57.935-72.609-103.5l75.653-75.088q59.957 60.957 94.979 138.196Q925.22-567.652 925.22-482q0 86.218-34.522 163.74t-95.479 137.913Z"/></svg>