<svg xmlns="http://www.w3.org/2000/svg" height="24" viewBox="0 -960 960 960" width="24"><path d="M332-312 192-172q-4 4-9.5 4.5T172-172q-5-5-5-10t5-10l140-140H186q-5.95 0-9.975-4.035-4.025-4.035-4.025-10t4.025-9.965q4.025-4 9.975-4h144q12.75 0 21.375 8.625T360-330v144q0 5.95-4.035 9.975-4.035 4.025-10 4.025T336-176.025q-4-4.025-4-9.975v-126Zm296 0v126q0 5.95-4.035 9.975-4.035 4.025-10 4.025T604-176.025q-4-4.025-4-9.975v-144q0-12.75 8.625-21.375T630-360h144q5.95 0 9.975 4.035 4.025 4.035 4.025 10T783.975-336q-4.025 4-9.975 4H648l140 140q4 4 4.5 9.5T788-172q-5 5-10 5t-10-5L628-312ZM312-628 172-768q-4-4-4.5-9.5T172-788q5-5 10-5t10 5l140 140v-126q0-5.95 4.035-9.975 4.035-4.025 10-4.025t9.965 4.025q4 4.025 4 9.975v144q0 12.75-8.625 21.375T330-600H186q-5.95 0-9.975-4.035-4.025-4.035-4.025-10t4.025-9.965q4.025-4 9.975-4h126Zm336 0h126q5.95 0 9.975 4.035 4.025 4.035 4.025 10T783.975-604q-4.025 4-9.975 4H630q-12.75 0-21.375-8.625T600-630v-144q0-5.95 4.035-9.975 4.035-4.025 10-4.025t9.965 4.025q4 4.025 4 9.975v126l140-140q4-4 9.5-4.5T788-788q5 5 5 10t-5 10L648-628Z"/></svg>