<svg xmlns="http://www.w3.org/2000/svg" height="24" viewBox="0 -960 960 960" width="24"><path d="m269.826-195.172-73.956 73.955q-15.522 15.522-37.044 15.239-21.522-.282-37.044-15.804-15.522-15.522-15.522-37.327 0-21.804 15.522-37.326l73.39-73.391h-41.39q-22.087 0-37.544-15.456-15.456-15.457-15.456-37.544 0-22.087 15.456-37.544 15.457-15.457 37.544-15.457h169.044q22.087 0 37.544 15.457 15.457 15.457 15.457 37.544v169.044q0 22.087-15.457 37.544-15.457 15.456-37.544 15.456-22.087 0-37.544-15.456-15.456-15.457-15.456-37.544v-41.39Zm420.348 0v41.39q0 22.087-15.456 37.544-15.457 15.456-37.544 15.456-22.087 0-37.544-15.456-15.457-15.457-15.457-37.544v-169.044q0-22.087 15.457-37.544 15.457-15.457 37.544-15.457h169.044q22.087 0 37.544 15.457 15.456 15.457 15.456 37.544 0 22.087-15.456 37.544-15.457 15.456-37.544 15.456h-41.39l73.955 73.956q15.522 15.522 15.522 37.044t-15.522 37.044q-15.522 15.522-37.327 15.522-21.804 0-37.326-15.522l-73.956-73.39ZM195.172-690.174l-73.955-73.956q-15.522-15.522-15.239-37.326.282-21.805 15.804-37.327 15.522-15.522 37.327-15.522 21.804 0 37.326 15.522l73.391 73.955v-41.39q0-22.087 15.456-37.544 15.457-15.456 37.544-15.456 22.087 0 37.544 15.456 15.457 15.457 15.457 37.544v169.044q0 22.087-15.457 37.544-15.457 15.457-37.544 15.457H153.782q-22.087 0-37.544-15.457-15.456-15.457-15.456-37.544 0-22.087 15.456-37.544 15.457-15.456 37.544-15.456h41.39Zm569.656 0h41.39q22.087 0 37.544 15.456 15.456 15.457 15.456 37.544 0 22.087-15.456 37.544-15.457 15.457-37.544 15.457H637.174q-22.087 0-37.544-15.457-15.457-15.457-15.457-37.544v-169.044q0-22.087 15.457-37.544 15.457-15.456 37.544-15.456 22.087 0 37.544 15.456 15.456 15.457 15.456 37.544v41.39l73.956-73.955q15.522-15.522 37.326-15.522 21.805 0 37.327 15.522 15.522 15.522 15.522 37.327 0 21.804-15.522 37.326l-73.955 73.956Z"/></svg>