<svg xmlns="http://www.w3.org/2000/svg" height="20" viewBox="0 -960 960 960" width="20"><path d="M352-328.692 226.154-202.846q-5.616 5.615-10.77 5.5-5.153-.115-11.538-6.5-6.385-6.385-6.385-11.654t6.385-11.654L328.692-352H248q-6.8 0-11.4-4.547-4.6-4.547-4.6-11.269t4.6-11.453Q241.2-384 248-384h107.692q12.031 0 20.17 8.138 8.138 8.139 8.138 20.17V-248q0 6.8-4.547 11.4-4.548 4.6-11.27 4.6-6.722 0-11.452-4.6Q352-241.2 352-248v-80.692Zm256 0V-248q0 6.8-4.547 11.4-4.547 4.6-11.269 4.6t-11.453-4.6Q576-241.2 576-248v-107.692q0-12.031 8.138-20.17 8.139-8.138 20.17-8.138H712q6.8 0 11.4 4.547 4.6 4.548 4.6 11.27 0 6.722-4.6 11.452Q718.8-352 712-352h-80.692l125.846 125.846q5.615 5.616 6 10.77.385 5.153-6 11.538-6.385 6.385-11.654 6.385t-11.654-6.385L608-328.692ZM328.692-608 202.846-733.846q-5.615-5.616-5.5-11.269.115-5.654 6.5-12.039t11.654-6.385q5.269 0 11.654 6.385L352-631.308V-712q0-6.8 4.547-11.4 4.547-4.6 11.269-4.6t11.453 4.6Q384-718.8 384-712v107.692q0 12.031-8.138 20.17-8.139 8.138-20.17 8.138H248q-6.8 0-11.4-4.547-4.6-4.547-4.6-11.27 0-6.722 4.6-11.452Q241.2-608 248-608h80.692Zm302.616 0H712q6.8 0 11.4 4.547 4.6 4.547 4.6 11.269t-4.6 11.453Q718.8-576 712-576H604.308q-12.031 0-20.17-8.138-8.138-8.139-8.138-20.17V-712q0-6.8 4.547-11.4 4.547-4.6 11.27-4.6 6.722 0 11.452 4.6Q608-718.8 608-712v80.692l125.846-125.846q5.616-5.615 11.269-6 5.654-.385 12.039 6t6.385 11.654q0 5.269-6.385 11.654L631.308-608Z"/></svg>