<svg xmlns="http://www.w3.org/2000/svg" height="24" viewBox="0 -960 960 960" width="24"><path d="M465.692-484.308h149.077l36.539 93q2.231 5.693 6.654 8.5Q662.385-380 668.308-380q9.615 0 15.038-7.5t1.962-16.885L555.923-732.538q-1.461-3.616-4.461-5.539-3-1.923-6.616-1.923h-9.692q-3.615 0-6.616 1.923-3 1.923-4.461 5.539L395.462-403.846q-3.462 8.615 1.961 16.231Q402.846-380 412.692-380q6.154 0 10.193-3.192 4.038-3.193 6.269-8.347l36.538-92.769Zm11.847-32 59.692-160.769h4l61.231 160.769H477.539ZM324.615-280Q297-280 278.5-298.5 260-317 260-344.615v-430.77Q260-803 278.5-821.5 297-840 324.615-840h430.77Q783-840 801.5-821.5 820-803 820-775.385v430.77Q820-317 801.5-298.5 783-280 755.385-280h-430.77Zm0-40h430.77q9.231 0 16.923-7.692Q780-335.385 780-344.615v-430.77q0-9.23-7.692-16.923Q764.616-800 755.385-800h-430.77q-9.23 0-16.923 7.692Q300-784.615 300-775.385v430.77q0 9.23 7.692 16.923Q315.385-320 324.615-320Zm-120 160Q177-160 158.5-178.5 140-197 140-224.615v-450.77q0-8.538 5.73-14.269 5.731-5.731 14.27-5.731 8.538 0 14.269 5.731T180-675.385v450.77q0 9.231 7.692 16.923Q195.384-200 204.615-200h450.77q8.538 0 14.269 5.731T675.385-180q0 8.539-5.731 14.27-5.731 5.73-14.269 5.73h-450.77ZM300-800v480-480Z"/></svg>