<svg xmlns="http://www.w3.org/2000/svg" height="24" viewBox="0 -960 960 960" width="24"><path d="M474.565-15.13 54.695-435 369.13-748.87 527-591l27.435-27.435-220.783-221.348-271.87 271.87 35.044 35.043L27.39-464-74.523-566.479l409.61-409.61 135.304 135.305 133.044-133.044 414.915 414.349-543.785 544.35ZM475-152l405.479-407.479-277.478-278.043-64.174 64.739L692.175-618.87 527-453.694 369.13-612.13 192-435l29 29 141.087-141.087 56 56L277-350l28 28 141.087-141.087 57 57L362-265l28 28 141.087-141.087 56 56L446-181l29 29ZM336.39-681.957Z"/></svg>