<svg xmlns="http://www.w3.org/2000/svg" height="20" viewBox="0 -960 960 960" width="20"><path d="m278.195-187.702 1.914-170.994q-83-15.913-137.5-79.75T88.109-588q0-97.152 68.173-165.326Q224.456-821.5 321.609-821.5q85.717 0 149.554 54.5t79.75 137.5l160.021-2.631-28.173-28.173q-12.674-12.674-12.674-29.613 0-16.938 12.434-29.04 12.674-12.674 29.327-12.674 16.652 0 29.326 12.674l98.861 99.131q6.117 6.133 9.215 13.647t3.098 15.691q0 8.178-3.098 15.692-3.098 7.513-8.815 13.231l-99.261 99.261Q728.5-449.63 712.228-450.13q-16.272-.5-28.707-12.696-12.434-12.913-12.434-29.829 0-16.915 12.158-29l27.689-27.475-164.325 2.63q-28.55 0-50.01-18.33-21.461-18.33-26.49-46.213-8.761-55.087-50.587-91.272-41.826-36.185-97.969-36.185-62.792 0-106.618 44.039-43.826 44.038-43.826 106.077 0 55.471 35.685 97.297 35.684 41.826 90.771 51.587 27.913 5.478 46.729 24.913 18.815 19.435 18.815 48.038l-1.913 179.848q-.479 17.419-12.203 29.342-11.724 11.924-29.206 11.924-17.483 0-29.776-12.277-12.294-12.277-11.816-29.99Z"/></svg>