<svg xmlns="http://www.w3.org/2000/svg" height="20" viewBox="0 -960 960 960" width="20"><path d="m264.825-198.137 4.522-154.689q-83-18.522-137.5-83.5-54.5-64.978-54.5-151.674 0-100.087 70.457-170.544 70.456-70.457 170.544-70.457 86.695 0 151.674 54.5 64.978 54.5 83.5 137.5l136.867-6.217-22.956-22.956q-14.956-14.957-14.956-34.994 0-20.036 14.391-34.094 14.957-14.957 34.544-14.957 19.587 0 34.544 14.957l106.035 106.305q7.096 7.112 11.009 16.256 3.913 9.144 3.913 18.626 0 9.482-3.913 18.626-3.913 9.145-10.609 15.84L735.956-453.173q-14.957 14.957-34.326 14.457-19.37-.5-33.762-14.979-14.391-14.87-14.391-34.883 0-20.014 14.115-34.055l22.797-22.584-147.041 6.218q-31.485 0-54.902-20.124t-29.099-50.616q-8.435-52.478-47.978-86.869t-93.077-34.391q-59.857 0-101.401 41.755-41.543 41.756-41.543 100.86 0 52.862 33.891 92.405 33.891 39.544 86.37 48.978 30.521 6.131 51.13 27.522 20.609 21.392 20.609 52.93l-4.522 171.369q-1.13 20.028-14.811 33.908-13.681 13.881-34.262 13.881-20.58 0-35.319-14.887-14.74-14.886-13.609-35.859Z"/></svg>