<svg xmlns="http://www.w3.org/2000/svg" height="20" viewBox="0 -960 960 960" width="20"><path d="M337-238H227q-14.39 0-25.695-6.5T183-263l-43-74q-7-13-7.5-27t6.5-27l52-89-52-89q-7-13.1-7-27.05 0-13.95 7-26.95l43-74q7-12 18.305-18.5T226-722h110l54-92q7-12 18.305-18T434-838h92q14.39 0 25.695 6T570-814l54 92h110q14.39 0 25.695 6.5T778-697l43 74q7 13.1 7 27.05 0 13.95-7 26.95l-52 89 52 89q7 13 6.5 27t-7.5 27l-43 74q-7 12-18.305 18.5T733-238H623l-53 91q-6.625 11.683-17.812 18.341Q541-122 526-122h-92q-15 0-26.188-6.659Q396.625-135.317 390-147l-53-91Zm287-252h128l53-90q4-8 4-16t-4-16l-44-74q-5-8-12-12t-16-4H624l-63 106 63 106ZM416-374h128l62-106-62-106H416l-62 106 62 106Zm0-232h128l62-106-53-90q-5-8-12.5-12t-15.5-4h-90q-8 0-15.5 4T407-802l-53 90 62 106Zm-17 10-63-106H227q-9 0-16 4t-12 12l-44 74q-5 8-5 16t5 16l53 90h128l63-106Zm0 232-62-106H209l-54 90q-4 8-4 16t4 16l44 74q5 8 12 12t16 4h110l62-106Zm17 10-62 106 53 90q5 8 12.5 12t15.5 4h90q8 0 15.5-4t12.5-12l53-90-62-106H416Zm208 96h109q9 0 16-4t12-12l44-74q5-8 5-16t-5-16l-53-90H624l-63 106 63 106Z"/></svg>