<svg xmlns="http://www.w3.org/2000/svg" height="20" viewBox="0 -960 960 960" width="20"><path d="M333.538-232h-107.23q-15.544 0-28.003-7.077t-20.151-20.231l-43.923-75.384q-7.693-13.923-8.193-29.308t7.193-29.308L184.077-480l-50.846-86.692q-7.693-14.023-7.693-29.358t7.693-29.258l43.923-75.384q7.692-13.154 20.151-20.231Q209.764-728 225.308-728h107.23l52.616-89.462q7.692-13.153 20.151-19.846Q417.764-844 433.308-844h93.384q15.544 0 28.003 6.692 12.459 6.693 20.151 19.846L627.462-728h107.23q15.544 0 28.003 7.077t20.151 20.231l43.923 75.384q7.693 14.023 7.693 29.358t-7.693 29.258L775.923-480l50.846 86.692q7.693 13.923 7.193 29.308t-8.193 29.308l-43.923 75.384q-7.692 13.154-20.151 20.231Q749.236-232 733.692-232h-107.23l-51.616 88.462q-7.317 12.836-19.658 20.187Q542.846-116 526.692-116h-93.384q-16.154 0-28.496-7.351-12.341-7.351-19.658-20.187L333.538-232Zm293.924-264h121.076l51.616-87.692q3.077-6.154 3.077-12.308t-3.077-12.308l-44.693-75.384q-3.846-6.154-9.23-9.231Q740.846-696 733.923-696H627.462l-59.539 100 59.539 100Zm-208 116h121.076l58.539-100-58.539-100H419.462l-58.539 100 58.539 100Zm0-232h121.076l58.539-100-51.616-87.692q-3.846-6.154-9.615-9.231T525.923-812h-91.846q-6.154 0-11.923 3.077t-9.615 9.231L360.923-712l58.539 100Zm-27.385 16-59.539-100H226.077q-6.923 0-12.308 3.077-5.384 3.077-9.23 9.231l-44.693 75.384Q156-602.154 156-596t3.846 12.308L211.462-496h121.076l59.539-100Zm0 232-58.539-100H212.462l-52.616 87.692q-3.077 6.154-3.077 12.308t3.077 12.308l44.693 75.384q3.846 6.154 9.23 9.231Q219.154-264 226.077-264h107.461l58.539-100Zm27.385 16-58.539 100 51.616 87.692q3.846 6.154 9.615 9.231T434.077-148h91.846q6.154 0 11.923-3.077t9.615-9.231L599.077-248l-58.539-100H419.462Zm208 84h106.461q6.923 0 12.308-3.077 5.384-3.077 9.23-9.231l44.693-75.384Q804-357.846 804-364t-3.846-12.308L748.538-464H627.462l-59.539 100 59.539 100Z"/></svg>