<svg xmlns="http://www.w3.org/2000/svg" height="24" viewBox="0 -960 960 960" width="24"><path d="M637.923-495.385h127.846l47.539-84.846Q822-595.154 822-611.539q0-16.384-8.692-31.307l-29.154-51.539q-8.692-15.154-23.346-24.23-14.654-9.077-32.808-9.077h-90.077L573-611.539l64.923 116.154ZM416.077-363.846h127.846L608.846-480l-64.923-116.154H416.077L351.154-480l64.923 116.154Zm0-263.846h127.846l64.923-116.154-46.538-82.846q-8.693-15.154-23.346-24.231Q524.308-860 506.154-860h-52.308q-18.154 0-32.808 9.077-14.653 9.077-23.346 24.231l-46.538 82.846 64.923 116.154Zm-29.769 16.153-64.231-116.153H232q-18.154 0-32.808 9.077-14.654 9.076-23.346 24.23l-29.154 51.539Q138-627.923 138-611.539q0 16.385 8.692 31.308l47.539 84.846h127.846l64.231-116.154Zm0 263.078-64.231-116.154H194.231l-47.539 84.846Q138-364.846 138-348.461q0 16.384 8.692 31.307l29.154 51.539q8.692 15.154 23.346 24.23 14.654 9.077 32.808 9.077h90.077l64.231-116.153Zm29.769 16.153-64.923 116.154 47.461 83.308q8.693 14.923 23.231 23.885Q436.385-100 454.308-100h51.846q18.154 0 32.808-9.077 14.653-9.077 23.346-24.231l46.538-82.846-64.923-116.154H416.077Zm221.846 100H728q18.154 0 32.808-9.077 14.654-9.076 23.346-24.23l29.154-51.539Q822-332.077 822-348.461q0-16.385-8.692-31.308l-47.539-84.846H637.923L573-348.461l64.923 116.153Z"/></svg>