<svg xmlns="http://www.w3.org/2000/svg" height="20" viewBox="0 -960 960 960" width="20"><path d="M387-429h186q21.675 0 36.338-14.602Q624-458.204 624-479.789q0-21.586-14.662-36.399Q594.675-531 573-531H387q-21.675 0-36.337 14.602Q336-501.796 336-480.211q0 21.586 14.663 36.399Q365.325-429 387-429ZM228-110q-49.7 0-83.85-34.15Q110-178.3 110-228v-504q0-49.7 34.15-83.85Q178.3-850 228-850h504q49.7 0 83.85 34.15Q850-781.7 850-732v504q0 49.7-34.15 83.85Q781.7-110 732-110H228Zm0-118h504v-504H228v504Zm0-504v504-504Z"/></svg>