<svg xmlns="http://www.w3.org/2000/svg" height="24" viewBox="0 -960 960 960" width="24"><path d="M480.01-509.826q-73.923 0-126.576-52.479-52.652-52.479-52.652-126.174 0-73.927 52.642-126.573 52.643-52.645 126.566-52.645t126.576 52.642q52.652 52.643 52.652 126.566 0 73.924-52.642 126.294-52.643 52.369-126.566 52.369ZM262.487-100.782q-73.923 0-126.293-52.642-52.37-52.643-52.37-126.566t52.48-126.576q52.479-52.652 126.173-52.652 73.928 0 126.573 52.642 52.646 52.643 52.646 126.566t-52.643 126.576q-52.642 52.652-126.566 52.652Zm435.036 0q-73.928 0-126.573-52.642-52.646-52.643-52.646-126.566t52.643-126.576q52.642-52.652 126.566-52.652 73.923 0 126.293 52.642 52.37 52.643 52.37 126.566t-52.48 126.576q-52.479 52.652-126.173 52.652Z"/></svg>