<svg xmlns="http://www.w3.org/2000/svg" height="20" viewBox="0 -960 960 960" width="20"><path d="M427.462-362.154 639.308-573 616-596.308 427.462-408.769l-85-84-23.308 23.307 108.308 107.308ZM184-184v-592h247.615q-10.461-25.616 4.654-48.808Q451.385-848 480.385-848t44.115 23.192q15.116 23.192 3.885 48.808H776v592H184Zm32-32h528v-528H216v528Zm264-544.308q10.4 0 17.2-6.8 6.8-6.8 6.8-17.2 0-10.4-6.8-17.2-6.8-6.8-17.2-6.8-10.4 0-17.2 6.8-6.8 6.8-6.8 17.2 0 10.4 6.8 17.2 6.8 6.8 17.2 6.8ZM216-216v-528 528Z"/></svg>