<svg xmlns="http://www.w3.org/2000/svg" height="24" viewBox="0 -960 960 960" width="24"><path d="M423.283-309.869 708.87-595.696l-62.457-62.456-223.13 223.13-111.131-111.13-62.456 62.456 173.587 173.827Zm-311.414 198v-736.262h251.109q14.674-36.478 46.37-58.239 31.695-21.761 70.652-21.761t70.652 21.761q31.696 21.761 46.37 58.239h251.109v736.262H111.869ZM480-788.087q13.829 0 22.871-9.042 9.042-9.042 9.042-22.871 0-13.829-9.042-22.871-9.042-9.042-22.871-9.042-13.829 0-22.871 9.042-9.042 9.042-9.042 22.871 0 13.829 9.042 22.871 9.042 9.042 22.871 9.042Z"/></svg>