<svg xmlns="http://www.w3.org/2000/svg" height="24" viewBox="0 -960 960 960" width="24"><path d="M480.049-70.435q-76.723 0-143.777-29.097-67.055-29.098-116.75-78.794-49.696-49.696-78.794-116.75T111.63-438.565h91q0 115.801 80.735 196.465Q364.099-161.435 480-161.435t196.635-80.734q80.735-80.735 80.735-196.635 0-115.801-80.903-196.466-80.902-80.665-196.706-80.665h-6.239l60.087 60.087-58.631 60.631-166.217-166.218 166.217-166.217 58.631 60.869-59.848 59.848h6q76.741 0 143.762 29.098t116.836 78.793q49.815 49.696 78.913 116.645 29.098 66.95 29.098 143.609 0 76.66-29.098 143.714t-78.794 116.75q-49.695 49.696-116.7 78.794-67.005 29.097-143.729 29.097ZM298.087-316.413v-61.674h100v-39.681h-60v-39.681h60v-39.681h-100v-60.718h162.87v241.435h-162.87Zm200.717 0v-242.391h165.74v242.391h-165.74Zm62.87-61.674h40V-497.13h-40v119.043Z"/></svg>