<svg xmlns="http://www.w3.org/2000/svg" height="20" viewBox="0 -960 960 960" width="20"><path d="M480.022-110.001q-65.791 0-123.27-24.87-57.479-24.869-100.246-67.635-42.766-42.767-67.635-100.231-24.87-57.464-24.87-123.263H216q0 109 77.5 186.5T480-162q109 0 186.5-77.5T744-426q0-109-77.5-186.5T479.61-690h-10.226l52.539 52.539-37.153 36.383-114.921-115.306 115.69-115.306 37.153 36.384-54.308 53.307H480q65.799 0 123.263 24.87 57.464 24.869 100.231 67.635 42.766 42.767 67.635 100.224 24.87 57.457 24.87 123.248t-24.87 123.27q-24.869 57.479-67.635 100.246-42.767 42.766-100.224 67.635-57.457 24.87-123.248 24.87ZM312.769-336.154v-35.692h103.693v-36.462h-59.539v-35.384h59.539v-36.462H312.769v-35.692h139.385v179.692H312.769Zm195.077 0v-179.692h139.385v179.692H507.846Zm35.692-35.692h68.001v-108.308h-68.001v108.308Z"/></svg>