<svg xmlns="http://www.w3.org/2000/svg" height="24" viewBox="0 -960 960 960" width="24"><path d="M480.022-100.001q-70.791 0-132.637-26.77-61.846-26.769-107.846-72.768-45.999-46-72.768-107.831-26.77-61.831-26.77-132.63H200q0 117 81.5 198.5T480-160q117 0 198.5-81.5T760-440q0-117-81.5-198.5T480-720h-10.616l63.539 63.539-42.153 43.383-136.921-137.306 137.69-137.306 42.153 43.384-64.308 64.307H480q70.799 0 132.63 26.77 61.831 26.769 107.831 72.768 45.999 46 72.768 107.824 26.77 61.824 26.77 132.615 0 70.791-26.77 132.637-26.769 61.846-72.768 107.846-46 45.999-107.824 72.768-61.824 26.77-132.615 26.77ZM300.769-326.154v-47.692h107.693v-48.462h-71.539v-35.384h71.539v-48.462H300.769v-47.692h155.385v227.692H300.769Zm203.077 0v-227.692h155.385v227.692H503.846Zm47.692-47.692h60.001v-132.308h-60.001v132.308Z"/></svg>