<svg xmlns="http://www.w3.org/2000/svg" height="24" viewBox="0 -960 960 960" width="24"><path d="M480-169.477q-114.827 0-183.914-14.913-69.087-14.913-69.087-40.131v-34h-63.39q-46.871 0-78.502-34.196-31.63-34.196-27.5-79.935l25.304-311.522q3.13-41.739 33.465-69.522 30.333-27.783 72.537-27.783h582.174q42.204 0 72.537 27.783 30.334 27.783 33.465 69.522l25.304 311.522q4.13 45.739-27.501 79.935-31.63 34.196-78.501 34.196h-63.39v34q0 25.218-69.087 40.131T480-169.477ZM164.174-364.522h631.652l-24.739-310.956H188.913l-24.739 310.956ZM480-520Z"/></svg>