<svg xmlns="http://www.w3.org/2000/svg" height="24" viewBox="0 -960 960 960" width="24"><path d="M140.522-202.477 66.434-278l316.392-316.392 159.435 158.869 108.087-122.086q-51-57.739-117.457-89.065Q466.435-678 387.957-678q-71 0-134 26.5t-114 71.5l-74.088-76.088q64.261-58.261 145.5-93.087 81.24-34.826 176.588-34.826 99.13 0 185.239 39.217 86.109 39.217 149.239 109.087l97.043-110.216 74.653 74.392-106.999 121.303q34.13 51.87 55.761 116.979Q864.523-368.13 869.958-298H763.957q-6-48.87-18.805-91.543-12.804-42.674-32.978-78.587L546.826-282.216l-164-162.566-242.304 242.305Z"/></svg>