<svg xmlns="http://www.w3.org/2000/svg" height="20" viewBox="0 -960 960 960" width="20"><path d="M480-141q-72 0-96-11t-33-10q-10.083-3.459-17.542-12.691Q326-183.922 326-195v-30h-19.789q-10.961 0-18.586-7.475Q280-239.95 280-251v-35.532q0-11.768 7.475-19.118Q294.95-313 306-313h20v-128h-19.789q-10.961 0-18.586-7.475Q280-455.95 280-467v-35.532q0-11.768 7.475-19.118Q294.95-529 306-529h20v-118h-19.789q-10.961 0-18.586-7.475Q280-661.95 280-673v-35.532q0-11.768 7.475-19.118Q294.95-735 306-735h20v-39q0-9.5 6-14.25t14.143-1.75Q383-778 416-773.5t64 4.5q31 0 63.977-4.864 32.976-4.863 69.883-16.863Q623-794 628.5-789.489 634-784.977 634-775v40h19.789q10.961 0 18.586 7.475Q680-720.05 680-709v35.532q0 11.768-7.475 19.118Q665.05-647 654-647h-20v118h19.789q10.961 0 18.586 7.475Q680-514.05 680-503v35.532q0 11.768-7.475 19.118Q665.05-441 654-441h-20v128h19.789q10.961 0 18.586 7.475Q680-298.05 680-287v35.532q0 11.768-7.475 19.118Q665.05-225 654-225h-20v29q0 10.875-7.5 19.938Q619-167 609-163q-9-1-33 10.5T480-141Zm0-435q46 0 79.5-8.5T614-601v-169q-26 8-59 14.5t-75.493 6.5Q437-749 404-755.5q-33-6.5-58-14.5v169q22 8 55 16.5t79 8.5Zm0 220q47 0 80.5-9t53.5-16v-197q-20 6-55 14t-79 8q-42 0-75.5-7.5T346-578v197q20 7 53.5 16t80.5 9Zm.5 195q45.5 0 79-8t54.5-16v-172q-26 8-59 14.5t-75.493 6.5Q437-336 404-342.5q-33-6.5-58-14.5v171q22 8 55.5 16.5t79 8.5Z"/></svg>