<svg xmlns="http://www.w3.org/2000/svg" height="20" viewBox="0 -960 960 960" width="20"><path d="M414.348-573.022 275.696-712.674q39.195-25.239 82.271-37.859 43.076-12.619 89.033-12.619 7.391 0 14.663.239t14.424 2.434q-30.152 33.435-46.946 73.229-16.793 39.793-16.793 83.946 0 7.76.5 15.141.5 7.38 1.5 15.141Zm297.131 296.131-99.261-98.261q37.913 5 75.826-2.478 37.913-7.479 71.826-25.196-5.478 33.674-17.576 65.467-12.098 31.794-30.815 60.468ZM546.413-525.37l120.957-341.5h79.5l120.717 341.5h-76.5l-26-75H648.913l-26 75h-76.5Zm121.174-130.5h78.826L707-780.913 667.587-655.87Zm125.37 568-53.392 53.392L601.37-172.674q-35.674 20.913-74.946 31.37-39.272 10.456-79.424 10.456-132.261 0-224.207-91.945Q130.848-314.739 130.848-447q0-40.152 10.337-79.663 10.336-39.511 30.771-75.424L51.066-722.978l53.39-53.392 688.501 688.5Z"/></svg>