<svg xmlns="http://www.w3.org/2000/svg" height="20" viewBox="0 -960 960 960" width="20"><path d="M289-288H180q-21.675 0-36.337-15.289Q129-318.579 129-339.789 129-361 144.35-376T181-391h108v-45H181q-21.3 0-36.65-15.35Q129-466.7 129-488v-133q0-21.675 14.663-36.338Q158.325-672 180-672h161q21.675 0 36.337 14.602Q392-642.796 392-621.211 392-600 377.337-584.5 362.675-569 341-569H231v45h73q36.3 0 62.15 25.85T392-436v45q0 42.488-30.256 72.744T289-288Zm286 0q-42.487 0-72.744-30.256Q472-348.512 472-391v-178q0-42.487 30.256-72.744Q532.513-672 575-672h205q21.675 0 36.338 14.602Q831-642.796 831-621.211 831-600 816.338-584.5 801.675-569 780-569H575v178h154v-39h-61q-18.7 0-31.35-12.589-12.65-12.59-12.65-31.2 0-18.611 12.65-31.411T668-518h112q21.675 0 36.338 14.663Q831-488.675 831-467v76q0 42.488-29.65 72.744T729-288H575Z"/></svg>