<svg xmlns="http://www.w3.org/2000/svg" height="24" viewBox="0 -960 960 960" width="24"><path d="m58.891-456.174-48.217-48.217 110.782-111.544H30.435v-68.609h208.608v208.609h-68.608v-91.021L58.891-456.174Zm216.805-264.783v-208.608h68.608v91.782l110.783-111.304 48.978 48.739-111.543 110.783h91.782v68.608H275.696ZM526.739-30.435 282.478-278.326l64.913-70.022 117.304 35.587v-368.913h86.218v482.805l-98.196-29.87 110.891 112.087h279.74v-287.413h86.217v373.63H526.739Zm64.174-285.021v-208.609h86.217v208.609h-86.217Zm126.217 0v-168.609h86.218v168.609H717.13Zm-20 79.043Z"/></svg>