<svg xmlns="http://www.w3.org/2000/svg" height="24" viewBox="0 -960 960 960" width="24"><path d="m724.616-110.308-277.539-278.77q-21.154 9.154-43 14.116-21.846 4.961-46.385 4.961-95.769 0-162.884-67.115Q127.693-504.231 127.693-600q0-31 7.884-59.269 7.885-28.268 22.423-53.807l143.692 142.923L387.539-656 245.386-798.923q25.538-14.538 53.422-22.807 27.885-8.269 58.884-8.269 95.769 0 162.884 67.115Q587.691-695.769 587.691-600q0 25.308-4.769 47.154-4.769 21.846-14.308 42.231l278.77 277.539-122.768 122.768Z"/></svg>