<svg xmlns="http://www.w3.org/2000/svg" height="20" viewBox="0 -960 960 960" width="20"><path d="M719.231-143.615 481.154-380.154q-22.308 10.308-48.5 16.731Q406.462-357 379.385-357q-90.539 0-155.27-64.231-64.73-64.23-64.73-154.769 0-28 5.269-53.539 5.269-25.538 17.346-47.615l139.385 137.846L419.077-637 282.769-774.846q22.077-10.077 46.346-15.616 24.27-5.538 50.27-5.538 91.538 0 155.769 65.231 64.231 65.23 64.231 155.769 0 27.615-6.039 49.808-6.038 22.192-17.115 42.961l241.538 242.077-98.538 96.539Zm0-45.078 54.23-53.23-235.769-233.769q17.693-25.539 23.693-54.039t6-45.269q0-80.077-65.577-143.038Q436.231-781 337.693-764l128 127-144.308 143.308-130-130q-17.692 109 46.038 171.846Q301.154-389 379.385-389q17.769 0 48.153-6.616 30.385-6.615 57.924-26.846l233.769 233.769ZM476-484.923Z"/></svg>