<svg xmlns="http://www.w3.org/2000/svg" height="20" viewBox="0 -960 960 960" width="20"><path d="M106.001-184.233v-51.998q28.461-1.539 46.692-11.039t35.269-20.423q17.038-10.923 39.692-19.846T288-296.462q38.692 0 61.807 9.5 23.116 9.5 41.693 21 18.577 11.5 38.346 21 19.769 9.5 50.154 9.5 31.385 0 50.654-9.5 19.269-9.5 37.846-21 18.577-11.5 42.193-21 23.615-9.5 61.307-9.5 38.692 0 60.846 8.923 22.154 8.923 39.192 19.846t35.077 20.423q18.038 9.5 46.884 11.039v51.998q-34.999-1.154-56.692-10.654-21.692-9.5-39.115-20.423-17.423-10.923-36.807-20.038Q702-244.464 672-244.464q-31 0-50.462 9.5-19.461 9.5-38.231 21-18.769 11.5-41.884 21-23.116 9.5-61.423 9.5-37.307 0-60.923-9.5-23.615-9.5-42.384-21-18.77-11.5-38.731-21-19.962-9.5-49.962-9.5-30 0-49.385 9.116-19.384 9.115-36.807 20.038-17.423 10.923-38.615 20.423-21.193 9.5-57.192 10.654Zm0-159.691v-51.999q28.461-1.538 46.692-11.038t35.269-20.423q17.038-10.923 39.692-19.847 22.654-8.923 60.346-8.923 38.692 0 61.807 9.5 23.116 9.5 41.693 21 18.577 11.5 38.346 21 19.769 9.5 50.154 9.5 31.385 0 50.654-9.5 19.269-9.5 37.846-21 18.577-11.5 41.693-21 23.115-9.5 61.807-9.5 38.692 0 60.846 8.923 22.154 8.924 39.192 19.847 17.038 10.923 35.077 20.423 18.038 9.5 46.884 11.038v51.999q-34.999-1.154-56.692-10.654-21.692-9.5-39.115-20.423-17.423-10.923-36.807-20.039Q702-404.155 672-404.155q-30.615 0-50.077 9.5t-38.231 21q-18.769 11.5-42.077 21t-61.615 9.5q-37.307 0-60.923-9.5-23.615-9.5-42.384-21-18.77-11.5-38.731-21-19.962-9.5-49.962-9.5-30 0-49.385 9.115-19.384 9.116-36.807 20.039-17.423 10.923-38.615 20.423-21.193 9.5-57.192 10.654Zm0-160.692v-51.998q28.461-1.539 46.692-11.039t35.269-20.423q17.038-10.923 39.692-19.846T288-616.845q38.692 0 61.807 9.5 23.116 9.5 41.693 21 18.577 11.5 38.346 21 19.769 9.5 50.154 9.5 31.385 0 50.654-9.5 19.269-9.5 37.846-21 18.577-11.5 41.693-21 23.115-9.5 61.807-9.5 38.692 0 60.846 8.923 22.154 8.923 39.192 19.846t35.077 20.423q18.038 9.5 46.884 11.039v51.998Q819-505.77 797.307-515.27q-21.692-9.5-39.115-20.423-17.423-10.923-36.807-20.038Q702-564.846 672-564.846q-31 0-50.462 9.5-19.461 9.5-38.231 21-18.769 11.5-41.884 21-23.116 9.5-61.423 9.5-37.307 0-60.923-9.5-23.615-9.5-42.384-21-18.77-11.5-38.731-21-19.962-9.5-49.962-9.5-30 0-49.385 9.115-19.384 9.115-36.807 20.038-17.423 10.923-38.615 20.423-21.193 9.5-57.192 10.654Zm0-159.691v-51.999q28.461-1.538 46.692-11.038t35.269-20.423Q205-758.69 227.654-767.613T288-776.536q38.692 0 61.807 9.5 23.116 9.5 41.693 21 18.577 11.5 38.346 21 19.769 9.5 50.154 9.5 31.385 0 50.654-9.5 19.269-9.5 37.846-21 18.577-11.5 42.193-21 23.615-9.5 61.307-9.5 38.692 0 60.846 8.923 22.154 8.923 39.192 19.846t35.077 20.423q18.038 9.5 46.884 11.038v51.999q-34.999-1.154-56.692-10.654-21.692-9.5-39.115-20.423-17.423-10.923-36.807-20.038Q702-724.538 672-724.538q-31 0-50.462 9.5-19.461 9.5-38.231 21-18.769 11.5-41.884 21-23.116 9.5-61.423 9.5-37.307 0-60.923-9.5-23.615-9.5-42.384-21-18.77-11.5-38.731-21-19.962-9.5-49.962-9.5-30 0-49.385 9.116-19.384 9.115-36.807 20.038-17.423 10.923-38.615 20.423-21.193 9.5-57.192 10.654Z"/></svg>