<svg xmlns="http://www.w3.org/2000/svg" height="20" viewBox="0 -960 960 960" width="20"><path d="M116-213.461v-32q26.923-3.077 44.385-12.577 17.461-9.5 33.538-19.846 16.077-10.347 37.385-18.693 21.307-8.346 56.692-8.346 36.385 0 59.115 9.5 22.731 9.5 41.885 21 19.154 11.5 39.692 21 20.539 9.5 51.308 9.5 31.769 0 51.808-9.5 20.038-9.5 39.192-21t42.385-21q23.23-9.5 58.615-9.5 36.385 0 57.192 8.346 20.808 8.346 36.885 18.693 16.077 10.346 33.154 19.846T844-245.461v32q-30-2.308-49.385-11.808-19.384-9.5-36.23-19.846-16.847-10.346-36.616-19.077Q702-272.923 672-272.923q-31 0-51.423 9.5-20.423 9.5-39.962 21-19.538 11.5-42.269 21-22.731 9.5-58.346 9.5-34.615 0-57.846-9.5-23.231-9.5-42.769-21-19.539-11.5-40.462-21-20.923-9.5-50.923-9.5-30 0-49.769 8.731t-36.616 19.077q-16.846 10.346-35.73 19.846Q147-215.769 116-213.461Zm0-147.385v-32q26.923-3.077 44.385-12.577 17.461-9.5 33.538-19.846 16.077-10.346 37.385-18.693 21.307-8.346 56.692-8.346 36.385 0 59.115 9.5 22.731 9.5 41.885 21 19.154 11.5 39.692 21 20.539 9.5 51.308 9.5 31.769 0 51.808-9.5 20.038-9.5 39.192-21t41.885-21q22.73-9.5 59.115-9.5 36.385 0 57.192 8.346 20.808 8.347 36.885 18.693 16.077 10.346 33.154 19.846T844-392.846v32q-30-2.308-49.385-11.808-19.384-9.5-36.23-19.846-16.847-10.346-36.616-19.077-19.769-8.73-49.769-8.73-30.231 0-50.654 9.5-20.423 9.5-39.961 21-19.539 11.5-42.654 21-23.116 9.5-58.731 9.5-34.615 0-57.846-9.5-23.231-9.5-42.769-21-19.539-11.5-40.462-21-20.923-9.5-50.923-9.5-30 0-49.769 8.73-19.769 8.731-36.616 19.077-16.846 10.346-35.73 19.846Q147-363.154 116-360.846Zm0-148.385v-32q26.923-3.077 44.385-12.577 17.461-9.5 33.538-19.846Q210-584 231.308-592.346q21.307-8.347 56.692-8.347 36.385 0 59.115 9.5 22.731 9.5 41.885 21 19.154 11.5 39.692 21 20.539 9.5 51.308 9.5 31.769 0 51.808-9.5 20.038-9.5 39.192-21t41.885-21q22.73-9.5 59.115-9.5 36.385 0 57.192 8.347Q750-584 766.077-573.654q16.077 10.346 33.154 19.846T844-541.231v32q-30-2.307-49.385-11.807-19.384-9.5-36.23-19.847-16.847-10.346-36.616-19.076Q702-568.692 672-568.692q-31 0-51.423 9.5-20.423 9.5-39.962 21-19.538 11.5-42.269 21-22.731 9.5-58.346 9.5-34.615 0-57.846-9.5-23.231-9.5-42.769-21-19.539-11.5-40.462-21-20.923-9.5-50.923-9.5-30 0-49.769 8.731-19.769 8.73-36.616 19.076-16.846 10.347-35.73 19.847Q147-511.538 116-509.231Zm0-147.384v-32.001q26.923-3.077 44.385-12.577 17.461-9.5 33.538-19.846 16.077-10.346 37.385-18.692 21.307-8.346 56.692-8.346 36.385 0 59.115 9.5 22.731 9.5 41.885 21 19.154 11.5 39.692 21 20.539 9.5 51.308 9.5 31.769 0 51.808-9.5 20.038-9.5 39.192-21t42.385-21q23.23-9.5 58.615-9.5 36.385 0 57.192 8.346 20.808 8.346 36.885 18.692 16.077 10.346 33.154 19.846T844-688.616v32.001q-30-2.308-49.385-11.808-19.384-9.5-36.23-19.846-16.847-10.346-36.616-19.077Q702-716.077 672-716.077q-31 0-51.423 9.5-20.423 9.5-39.962 21-19.538 11.5-42.269 21-22.731 9.5-58.346 9.5-34.615 0-57.846-9.5-23.231-9.5-42.769-21-19.539-11.5-40.462-21-20.923-9.5-50.923-9.5-30 0-49.769 8.731t-36.616 19.077q-16.846 10.346-35.73 19.846Q147-658.923 116-656.615Z"/></svg>