<svg xmlns="http://www.w3.org/2000/svg" height="20" viewBox="0 -960 960 960" width="20"><path d="M65-80v-119q32 0 52.482-10.192 20.482-10.193 40-22.5Q177-244 203.226-254.5t69.457-10.5Q317-265 343-254.5q26 10.5 45 23t39.479 22.5q20.479 10 52.521 10 34 0 53.5-10.192 19.5-10.193 38.5-22.5Q591-244 617.2-254.5q26.2-10.5 69.456-10.5Q731-265 757-254.5q26 10.5 45.5 23T842-209q20 10 53 10v119q-42 0-67.919-9.962-25.92-9.961-45.5-22Q762-124 740.5-134.5 719-145 687-145q-34 0-53.5 10.5t-39.068 22.538q-19.567 12.039-45.017 22Q523.965-80 479.982-80 437-80 411.06-89.962q-25.94-9.961-45.5-22Q346-124 325.551-134.5 305.101-145 273-145q-32.841 0-53.92 10.5Q198-124 178.557-111.962q-19.442 12.039-44.694 22Q108.611-80 65-80Zm0-204v-120q32 0 52.482-9.962 20.482-9.961 40-22Q177-448 203.226-458.5t69.457-10.5Q317-469 343-458.5q26 10.5 45 22.5t39.479 22q20.479 10 52.521 10 34 0 53.5-9.962 19.5-9.961 38.5-22Q591-448 616.7-458.5q25.7-10.5 69.956-10.5Q731-469 757-458.5q26 10.5 45.5 22.5t39.5 22q20 10 53 10v120q-42 0-67.919-10.192-25.92-10.193-45.5-22.5Q762-329 740.5-339.5 719-350 686.929-350q-33.072 0-53.036 10.395-19.964 10.394-39.429 23Q575-304 549.547-294q-25.453 10-69.5 10-43.047 0-68.987-10.192-25.94-10.193-45.5-22.5Q346-329 325.551-339.5 305.101-350 273-350q-32.841 0-53.92 10.5Q198-329 178.557-316.692q-19.442 12.307-44.694 22.5Q108.611-284 65-284Zm0-205v-120q32 0 52.482-9.962 20.482-9.961 40-22Q177-653 203.226-663.5t69.457-10.5Q317-674 343-663.5q26 10.5 45 22.5t39.479 22q20.479 10 52.521 10 34 0 53.5-9.962 19.5-9.961 38.5-22Q591-653 616.7-663.5q25.7-10.5 69.956-10.5Q731-674 757-663.5q26 10.5 45.5 22.5t39.5 22q20 10 53 10v120q-42 0-67.919-10.192-25.92-10.193-45.5-22.5Q762-534 740.5-544.5 719-555 687-555q-34 0-53.5 10.5t-39.068 22.808q-19.567 12.307-45.017 22.5Q523.965-489 479.982-489 437-489 411.06-499.192q-25.94-10.193-45.5-22.5Q346-534 325.551-544.5 305.101-555 273-555q-32.841 0-53.92 10.5Q198-534 178.557-521.692q-19.442 12.307-44.694 22.5Q108.611-489 65-489Zm0-204v-120q32 0 52.482-10.192 20.482-10.193 40-22.5Q177-858 203.226-868.5t69.457-10.5Q317-879 343-868.5q26 10.5 45 23t39.479 22.5q20.479 10 52.521 10 34 0 53.5-10.192 19.5-10.193 38.5-22.5Q591-858 617.2-868.5q26.2-10.5 69.456-10.5Q731-879 757-868.5q26 10.5 45.5 23T842-823q20 10 53 10v120q-42 0-67.919-10.192-25.92-10.193-45.5-22.5Q762-738 740.5-748.5 719-759 687-759q-34 0-53.5 10.5t-39.068 22.808q-19.567 12.307-45.017 22.5Q523.965-693 479.982-693 437-693 411.06-703.192q-25.94-10.193-45.5-22.5Q346-738 325.551-748.5 305.101-759 273-759q-32.841 0-53.92 10.5Q198-738 178.557-725.692q-19.442 12.307-44.694 22.5Q108.611-693 65-693Z"/></svg>