<svg xmlns="http://www.w3.org/2000/svg" height="24" viewBox="0 -960 960 960" width="24"><path d="M480-84.39q-107.348 0-183.001-75.652-75.652-75.652-75.652-183.001 0-93.956 58.63-164.696 58.631-70.739 147.022-88.696v-263.914h106.002v263.914q88.826 17.957 147.239 88.414 58.413 70.456 58.413 164.978 0 107.349-75.37 183.001Q587.913-84.389 480-84.389Zm0-106.001q50.348 0 89.173-28.913 38.826-28.912 54.522-73.564h-287.39q15.696 44.652 54.804 73.564 39.109 28.913 88.891 28.913ZM336.305-393.217h287.39q-15.696-45.217-54.522-73.847-38.825-28.63-89.173-28.63-49.782 0-88.891 28.63-39.108 28.63-54.804 73.847Z"/></svg>