<svg xmlns="http://www.w3.org/2000/svg" height="20" viewBox="0 -960 960 960" width="20"><path d="M237.231-236.461q-50.462-53-75.462-112.5t-25-131.039q0-71.539 25-131.039 25-59.5 75.462-112.5l16.307 16.308q-46 46-69.692 104.692Q160.154-543.846 160.154-480q0 63.846 23.692 122.539 23.692 58.692 69.692 104.692l-16.307 16.308Zm61.077-61.077q-36.693-39-55.731-83.423-19.039-44.424-19.039-99.039t19.039-99.039q19.038-44.423 55.731-83.423l17.077 17.077q-31.231 33-49.847 74.193Q246.923-530 246.923-480q0 50 18.615 91.192 18.616 41.193 50.847 73.193l-18.077 18.077Zm156.461-50.77q-3.846-27.923-16.692-48.807-12.846-20.885-26.269-39.308-13.423-18.423-24.347-38.577-10.923-20.154-10.923-45.615 0-44.77 29.347-72.616 29.346-27.846 74.115-27.846 44.769 0 74.115 27.846 29.347 27.846 29.347 72.616 0 25.461-10.923 45.23-10.924 19.77-24.347 38.577-13.423 18.808-26.269 39.693-12.846 20.884-16.692 48.807h-50.462Zm1.539 96v-32.615h47.384v32.615h-47.384Zm206.923-45.23-17.077-17.077q31.231-33 49.846-74.193Q714.615-430 714.615-480q0-50-18.615-91.192-18.615-41.193-49.846-74.193l17.077-17.077q36.692 39 55.731 83.423Q738-534.615 738-480t-19.038 99.039q-19.039 44.423-55.731 83.423Zm61.077 61.077L708-252.769q46-46 69.692-104.692Q801.385-416.154 801.385-480q0-63.846-23.693-122.539Q754-661.231 708-707.231l16.308-16.308q49.692 53 75.077 112.5 25.384 59.5 25.384 131.039 0 71.539-25.384 131.039-25.385 59.5-75.077 112.5Z"/></svg>