<svg xmlns="http://www.w3.org/2000/svg" height="20" viewBox="0 -960 960 960" width="20"><path d="M480-427.174 534.174-373q12.696 12.696 28.109 12.413 15.413-.283 28.108-12.978 12.696-12.696 12.696-28.109 0-15.413-12.696-28.109l-54.173-53.608 54.173-54.174q12.696-12.696 12.696-28.109 0-15.413-12.696-28.109-12.695-12.696-28.108-12.696t-28.109 12.696L480-539.609l-54.174-54.174Q413.13-606.479 398-606.479t-27.826 12.696q-12.696 12.696-12.696 28.109 0 15.413 12.696 28.109l53.608 54.174-54.173 54.173q-12.696 12.696-12.414 27.827.283 15.13 12.979 27.826 12.696 12.695 28.109 12.695 15.413 0 28.108-12.695L480-427.174Zm0 345.262q-7.696 0-15.957-.783-8.261-.782-15.522-3.348-134.956-44.13-217.348-166.348Q148.782-374.609 148.782-515v-174.913q0-31.478 17.022-56.261t45.935-35.61l233.217-89.173q16.957-6.696 35.044-6.696 18.087 0 35.044 6.696l233.217 89.173q28.913 10.827 45.935 35.61 17.022 24.783 17.022 56.261V-515q0 140.391-82.391 262.609-82.392 122.218-217.348 166.348-7.261 2.566-15.522 3.348-8.261.783-15.957.783Z"/></svg>