<svg xmlns="http://www.w3.org/2000/svg" height="20" viewBox="0 -960 960 960" width="20"><path d="m480-427.174 54.01 54.01q12.86 12.86 28.273 12.577 15.413-.283 28.108-12.978 12.696-12.696 12.696-28.109 0-15.413-12.86-28.273l-54.009-53.444 54.009-54.01q12.86-12.86 12.86-28.273t-12.696-28.109q-12.695-12.696-28.108-12.696t-28.273 12.86L480-539.609l-54.01-54.01q-12.86-12.86-27.99-12.86-15.13 0-27.826 12.696t-12.696 28.109q0 15.413 12.86 28.273l53.444 54.01-54.009 54.009q-12.86 12.86-12.578 27.991.283 15.13 12.979 27.826 12.696 12.695 28.109 12.695 15.413 0 28.273-12.859L480-427.174Zm0 345.262q-7.696 0-15.957-.783-8.261-.782-15.522-3.348-134.956-44.13-217.348-166.348Q148.782-374.609 148.782-515v-174.913q0-31.171 17.022-56.108 17.022-24.936 45.935-35.763l233.217-89.173q16.957-6.696 35.044-6.696 18.087 0 35.044 6.696l233.217 89.173q28.913 10.827 45.935 35.763 17.022 24.937 17.022 56.108V-515q0 140.391-82.391 262.609-82.392 122.218-217.348 166.348-7.261 2.566-15.522 3.348-8.261.783-15.957.783Zm0-95.306q100.043-35.641 166.63-129Q713.217-399.576 713.217-515v-174.913L480-779.087l-233.217 89.174V-515q0 115.424 66.587 208.782 66.587 93.359 166.63 129Zm0-300.652Z"/></svg>