<svg xmlns="http://www.w3.org/2000/svg" height="20" viewBox="0 -960 960 960" width="20"><path d="M480-220.782q-79.479 0-139.196-47.043-59.718-47.044-72.979-120.566-3.696-19.818 9.615-35.105 13.31-15.287 33.559-15.287 18.522 0 34.262 10.495 15.739 10.495 21 28.114 12.826 37.609 43.413 59.5 30.587 21.891 70.326 21.891 39.739 0 70.326-21.891 30.587-21.891 43.413-59.5 5.261-17.619 21-28.114 15.74-10.495 34.762-10.495 19.587 0 32.978 15.287 13.392 15.287 9.696 35.67-13.261 72.957-72.979 120.001Q559.479-220.782 480-220.782Zm-49.001-405.177v-134.869q0-20.387 14.247-34.693 14.246-14.307 34.543-14.307 20.298 0 34.755 14.307 14.457 14.306 14.457 34.693v134.869l18.119-18.684q14.141-14.707 34.576-14.99 20.435-.282 35.87 14.674 14.479 14.957 14.196 35.109-.283 20.153-15.101 34.972L514.609-472.827q-6.796 7.15-15.289 10.836-8.494 3.686-19.32 3.686t-19.32-3.686q-8.493-3.686-15.289-10.836L342.912-575.306q-14.957-14.956-14.457-34.544.5-19.587 14.979-34.543 15.435-14.957 35.448-14.957 20.014 0 34.621 14.935l17.496 18.456Z"/></svg>