<svg xmlns="http://www.w3.org/2000/svg" height="24" viewBox="0 -960 960 960" width="24"><path d="M453-280q-99 0-170-65.5T212-508v-252q0-11 8.5-19.5T240-788h487q41.843 0 71.421 27.5Q828-733 828-692q0 43.914-29 74.957Q770-586 727-586h-43v78q0 95.271-67.5 161.636Q549-280 453-280ZM240-614h416v-146H240v146Zm213 306q85 0 144-58t59-142v-78H240v78q0 85 63 142.5T453-308Zm231-306h43q31 0 52-22.75T800-692q0-29-22-48.5T727-760h-43v146ZM226-172q-5.95 0-9.975-4.035-4.025-4.035-4.025-10t4.025-9.965q4.025-4 9.975-4h508q5.95 0 9.975 4.035 4.025 4.035 4.025 10T743.975-176q-4.025 4-9.975 4H226Zm222-414Z"/></svg>