<svg xmlns="http://www.w3.org/2000/svg" height="24" viewBox="0 -960 960 960" width="24"><path d="M160-210.001q-62.154 0-106.076-43.923Q10-297.846 10-360q0-56.615 37.461-98.692 37.462-42.077 94.077-48.846h14.617l-45.694-38.616H10.001v-47.692h160.768l108.462 64.616 162.308-60.769h145.232l-78.155-100.002h-98.615v-59.998h127.383l79.385 101.845 126.307-55.691v94.614h-95.077l87.693 113.54q15-7.539 31.269-10.924 16.27-3.384 33.039-3.384 62.154 0 106.076 43.923Q949.999-422.154 949.999-360q0 62.154-43.923 106.076Q862.154-210.001 800-210.001q-62.154 0-106.076-43.923Q650.001-297.846 650.001-360q0-27.769 10.269-53.077t28.808-46.154l-33.847-42.463-139.847 211.693H403.846l-93.847-81.539v17.694q-3.077 60.307-46.384 102.076Q220.307-210.001 160-210.001Zm0-59.998q37.616 0 63.808-26.193 26.193-26.192 26.193-63.808t-26.193-63.808Q197.616-450.001 160-450.001t-63.808 26.193Q69.999-397.616 69.999-360t26.193 63.808q26.192 26.193 63.808 26.193Zm292.461-260.002-161.693 60.155 161.693-60.155h150.002-150.002ZM800-269.999q37.616 0 63.808-26.193 26.193-26.192 26.193-63.808t-26.193-63.808Q837.616-450.001 800-450.001t-63.808 26.193Q709.999-397.616 709.999-360t26.193 63.808q26.192 26.193 63.808 26.193Zm-316.615-80 119.078-180.002H452.461l-161.693 60.155 135.386 119.847h57.231Z"/></svg>