<svg xmlns="http://www.w3.org/2000/svg" height="24" viewBox="0 -960 960 960" width="24"><path d="M164.522-195.478q-68.261 0-116.391-48.131Q0-291.739 0-360q0-56.435 34.804-100.717Q69.61-505 124.913-517.696l-20.087-17.782H0v-77.523h185.087l100 67.914 158.304-59.435h109.608l-55.217-70.956H400v-89.044h140.87l83.434 107.435L760-726.783v131.305h-87.478l62.652 82.391q14.435-5.435 29.652-8.435 15.217-3 30.652-3 68.261 0 116.392 48.131Q960-428.261 960-360t-48.13 116.391q-48.131 48.131-116.392 48.131t-116.109-48.131Q631.521-291.739 631.521-360q0-27 8.935-52.783 8.935-25.782 25.935-47.217l-14.913-17.217-133.174 201.739H402.826l-74.913-66.043q-7.261 62.434-53.826 104.239-46.565 41.804-109.565 41.804Zm0-89.044q31.304 0 53.391-22.087T240-360q0-31.304-22.087-53.391t-53.391-22.087q-31.304 0-53.674 22.087T88.478-360q0 31.304 22.37 53.391t53.674 22.087Zm294.565-230.956-136.086 51.174 136.086-51.174H572.13 459.087Zm336.391 230.956q31.304 0 53.674-22.087 22.369-22.087 22.369-53.391t-22.369-53.391q-22.37-22.087-53.674-22.087t-53.391 22.087Q720-391.304 720-360t22.087 53.391q22.087 22.087 53.391 22.087Zm-324.261-80L572.13-515.478H459.087l-136.086 51.174 113.217 99.782h34.999Z"/></svg>