<svg xmlns="http://www.w3.org/2000/svg" height="20" viewBox="0 -960 960 960" width="20"><path d="M553.539-176.617v-54.999q82.538-24.538 133.422-93.5Q737.846-394.077 737.846-480q0-85.923-51.385-153.884-51.384-67.962-132.922-95.5v-54.999Q657.23-757.46 723.537-672.96q66.307 84.499 66.307 191.96 0 107.461-65.807 192.46-65.807 85-170.498 111.923ZM170.156-405.001v-151.998h132.46l163.537-163.536v479.07L302.616-405.001h-132.46Zm383.383 61.154v-274.306q38.461 20 59.537 56.961Q634.153-524.23 634.153-481q0 43.615-21.269 79.884t-59.345 57.269Z"/></svg>