<svg xmlns="http://www.w3.org/2000/svg" height="20" viewBox="0 -960 960 960" width="20"><path d="M87.87-135.869v-592.262h195.826l75.347-96h241.914l75.347 96h195.827v592.262H87.869ZM332.412-285.13h295.174v-34.674q0-38.718-40.837-63.816-40.837-25.097-106.75-25.097T373.25-383.62q-40.837 25.098-40.837 63.816v34.674Zm147.799-147.587q30.745 0 52.223-21.691 21.478-21.691 21.478-52.435 0-30.744-21.691-52.103-21.69-21.358-52.434-21.358-30.745 0-52.223 21.571-21.478 21.571-21.478 52.315 0 30.744 21.691 52.222 21.69 21.479 52.434 21.479Z"/></svg>