<svg xmlns="http://www.w3.org/2000/svg" height="24" viewBox="0 -960 960 960" width="24"><path d="M100.001-140.001v-599.998h194.461l74-80h223.076l74 80h194.461v599.998H100.001ZM160-200h640v-480H638.769l-73.384-80h-170.77l-73.384 80H160v480Zm320-240ZM333.847-297.694h292.306v-14.307q0-39.999-39.577-62.845Q547-397.692 480-397.692t-106.576 22.846Q333.847-352 333.847-312.001v14.307ZM480-450.001q29.154 0 49.576-20.423 20.423-20.422 20.423-49.576t-20.423-49.576Q509.154-589.999 480-589.999t-49.576 20.423Q410.001-549.154 410.001-520t20.423 49.576q20.422 20.423 49.576 20.423Z"/></svg>