<svg xmlns="http://www.w3.org/2000/svg" height="24" viewBox="0 -960 960 960" width="24"><path d="M480-46q-91 0-169.987-34.084-78.988-34.083-137.417-92.512T80.084-310.013Q46-389 46-480t34.084-169.987q34.083-78.988 92.512-137.417t137.417-92.512Q389-914 480-914t169.987 34.084q78.988 34.083 137.417 92.512t92.512 137.417Q914-571 914-480t-34.084 169.987q-34.083 78.988-92.512 137.417T649.987-80.084Q571-46 480-46Zm0-126q130 0 219-89t89-219q0-130-89-219t-219-89q-130 0-219 89t-89 219q0 130 89 219t219 89Zm0-308Zm-87 200h127q44 0 69.5-25.5T615-375v-45q0-26-17-43t-43-17q26 0 43-17t17-43v-45q0-44-25.5-69.5T520-680H392q-19.975 0-33.487 13.518Q345-652.965 345-632.982 345-613 358.8-599t34.2 14h127v65h-55q-17 0-28.5 11.5T425-480q0 17 11.5 28.5T465-440h55v65H392q-19.975 0-33.487 13.518Q345-347.965 345-327.982 345-308 358.8-294t34.2 14Z"/></svg>