<svg xmlns="http://www.w3.org/2000/svg" height="20" viewBox="0 -960 960 960" width="20"><path d="M580-232q-12.777 0-22.389-9.611Q548-251.223 548-264v-432q0-12.777 9.611-22.389Q567.223-728 580-728h116q12.777 0 22.389 9.611Q728-708.777 728-696v432q0 12.777-9.611 22.389Q708.777-232 696-232H580Zm-316 0q-12.777 0-22.389-9.611Q232-251.223 232-264v-432q0-12.777 9.611-22.389Q251.223-728 264-728h116q12.777 0 22.389 9.611Q412-708.777 412-696v432q0 12.777-9.611 22.389Q392.777-232 380-232H264Zm316-32h116v-432H580v432Zm-316 0h116v-432H264v432Zm0-432v432-432Zm316 0v432-432Z"/></svg>