<svg xmlns="http://www.w3.org/2000/svg" height="24" viewBox="0 -960 960 960" width="24"><path d="M656.947-165.52q-43.729 0-74.86-31.138t-31.131-74.863v-416.958q0-43.725 31.141-74.863 31.141-31.138 74.87-31.138 43.73 0 74.861 31.138 31.131 31.138 31.131 74.863v416.958q0 43.725-31.141 74.863-31.141 31.138-74.871 31.138Zm-353.914 0q-43.73 0-74.861-31.138-31.131-31.138-31.131-74.863v-416.958q0-43.725 31.141-74.863 31.141-31.138 74.871-31.138 43.729 0 74.86 31.138t31.131 74.863v416.958q0 43.725-31.141 74.863-31.141 31.138-74.87 31.138Z"/></svg>