<svg xmlns="http://www.w3.org/2000/svg" height="20" viewBox="0 -960 960 960" width="20"><path d="M625.436-157.52q-40.425 0-69.213-28.788-28.788-28.788-28.788-69.213v-448.958q0-40.425 28.788-69.213 28.788-28.788 69.213-28.788h79.043q40.425 0 69.213 28.788 28.788 28.788 28.788 69.213v448.958q0 40.425-28.788 69.213-28.788 28.788-69.213 28.788h-79.043Zm-369.915 0q-40.425 0-69.213-28.788-28.788-28.788-28.788-69.213v-448.958q0-40.425 28.788-69.213 28.788-28.788 69.213-28.788h79.043q40.425 0 69.213 28.788 28.788 28.788 28.788 69.213v448.958q0 40.425-28.788 69.213-28.788 28.788-69.213 28.788h-79.043Zm369.915-98.001h79.043v-448.958h-79.043v448.958Zm-369.915 0h79.043v-448.958h-79.043v448.958Zm0-448.958v448.958-448.958Zm369.915 0v448.958-448.958Z"/></svg>