<svg xmlns="http://www.w3.org/2000/svg" height="20" viewBox="0 -960 960 960" width="20"><path d="M355.696-79.5q-31.853 0-54.677-22.824-22.824-22.824-22.824-54.676v-29.5h403.61v29.5q0 31.852-22.705 54.676Q636.396-79.5 604.304-79.5H355.696Zm-77.501-155v-203h403.61v203h-403.61Zm5.283-251q11.957-52.826 48.674-90.142 36.717-37.315 84.196-53.75-8.753-5.629-16.257-12.673-7.504-7.044-16.265-19.044L210.5-697.87v-44.848l167.428-35.131q15.246-28.347 42.8-45.206 27.555-16.859 59.272-16.859 19.815 0 38.125 6.881 18.31 6.88 33.363 18.641l130.317-26.717v241.63l-134.326-27.043h.619-.619q48.195 14.478 83.478 52.772 35.282 38.293 45.565 88.25H283.478Zm196.311-203q15.211 0 25.711-10.35Q516-709.2 516-724.5q-.761-14.761-10.702-25.381-9.941-10.619-25.119-10.619-15.179 0-25.679 10.289-10.5 10.29-10.5 25.5Q444-709.5 454.289-699q10.29 10.5 25.5 10.5Z"/></svg>