<svg xmlns="http://www.w3.org/2000/svg" height="24" viewBox="0 -960 960 960" width="24"><path d="M371.539-110.002q-29.153 0-49.576-20.423-20.423-20.423-20.423-49.576v-30h356.92v30q0 29.153-20.423 49.576-20.423 20.423-49.576 20.423H371.539ZM301.54-250.001v-200h356.92v200H301.54Zm2.461-240q9.616-41.769 41.039-78.615 31.423-36.845 82.346-51.999v-4.231q-12.692-6.461-22.808-16.731-10.115-10.269-16.115-21.654l-147.691-33.307v-31.538l147.306-33.308q13.077-25.153 37.307-40.345 24.231-15.192 54.615-15.192 18.692 0 35.384 6.038t30.154 17.269l112.922-26.385v215.383l-110.845-29.077q-3.077 3.077-6.731 5.193-3.654 2.115-8.27 4.039v3.846q47.769 14.769 80.654 50.576 32.884 35.808 42.731 80.038H304.001ZM480-672.307q16.615 0 28.308-11.692Q520-695.692 520-712.307q-.615-17.615-12-28.808-11.385-11.192-28-11.192-17 0-28.5 11.5t-11.5 28.5q0 17 11.5 28.5t28.5 11.5Z"/></svg>