<svg xmlns="http://www.w3.org/2000/svg" height="20" viewBox="0 -960 960 960" width="20"><path d="M390-174q-19.7 0-32.85-13.15Q344-200.3 344-220v2h272v-2q0 19.7-13.15 32.85Q589.7-174 570-174H390Zm-46-92v-192h272v192H344Zm2-240q10-38 44.5-64.5T477-602v-11q-16.231-1.63-29.115-10.315Q435-632 426-645l-104-30v-14l94.711-27.892Q426-735 443.5-745.5T480-756q13.576 0 25.288 4.5t22.286 14.5L616-764v164l-94-36q-7 8-17 13.5T483-612v10q49 3 86 32.5t45 63.5H346Zm133.789-146Q494-652 505-662.85q11-10.85 11-25.15 0-14-10.821-25-10.822-11-25-11Q465-724 454.5-713.711q-10.5 10.29-10.5 25.5Q444-673 454.289-662.5q10.29 10.5 25.5 10.5Z"/></svg>