<svg xmlns="http://www.w3.org/2000/svg" height="24" viewBox="0 -960 960 960" width="24"><path d="m890.218-204.13-278.13-277.566h181.129v-160H452.088L275.13-819.218h518.087q44.305 0 75.153 30.848 30.848 30.848 30.848 75.153v466.434q0 11.696-2 22.326-2 10.631-7 20.327ZM166.783-481.696h194.695l-160-160h-34.695v160Zm630 433.74-93.826-92.826H166.783q-44.305 0-75.153-30.848-30.848-30.848-30.848-75.153v-466.434q0-39.783 26.043-69.218 26.044-29.435 64.131-35.088l104.306 104.306H129.957L54-789.174q-13.13-13.13-12.848-31.326.283-18.196 13.413-31.326 13.13-13.131 31.326-13.131 18.196 0 31.327 13.131l742.217 742.217q13.131 13.131 13.131 30.827 0 17.695-13.131 30.826-13.13 13.13-31.326 13.13-18.196 0-31.326-13.13Z"/></svg>