<svg xmlns="http://www.w3.org/2000/svg" height="20" viewBox="0 -960 960 960" width="20"><path d="m865.218-217.13-80.001-80.002v-184.564H600.088l-144-144h329.129v-63.521H393.132l-98.002-98.001h490.087q41.005 0 69.503 28.498 28.498 28.498 28.498 69.503v418.434q0 15.696-4 28.789-4 13.094-14 24.864ZM376.304-478.87Zm215.87-11.304Zm-218.696 8.478H174.783v210.913h410.173L373.478-481.696ZM174.783-172.782q-41.005 0-69.503-28.51-28.498-28.51-28.498-69.531V-689.5q0-36.5 23.399-63.435 23.4-26.935 57.775-32.588h25l102.306 102.306H174.783v57.521h54.695L81-775.174Q68.87-787.304 69.652-803q.783-15.696 12.973-27.826 12.19-12.131 27.826-12.131 15.636 0 28.104 12.468l701.544 701.544q12.467 12.57 12.467 28.396t-12.19 27.593q-12.19 12.13-28.326 12.63-16.137.5-28.267-11.63L682.957-172.782H174.783Z"/></svg>