<svg xmlns="http://www.w3.org/2000/svg" height="24" viewBox="0 -960 960 960" width="24"><path d="m890.218-204.13-97.001-97.002v-180.564H612.088l-160-160h341.129v-71.521H381.132L275.13-819.218h518.087q44.305 0 75.153 30.848 30.848 30.848 30.848 75.153v466.434q0 11.696-2 22.326-2 10.631-7 20.327ZM383.304-460.87Zm203.87-46.304Zm-225.696 25.478H166.783v234.913h430.173L361.478-481.696ZM166.783-140.782q-44.305 0-75.153-30.848-30.848-30.848-30.848-75.153v-466.434q0-39.783 26.043-69.218 26.044-29.435 64.131-35.088l104.306 104.306h-88.479v71.521h34.695L54-789.174q-13.13-13.13-12.848-31.326.283-18.196 13.473-31.326 13.19-13.131 31.326-13.131 18.136 0 31.267 13.131l742.217 742.217q13.131 13.234 13.131 30.878t-13.19 30.775q-13.19 13.13-31.326 13.13-18.137 0-31.267-13.13l-93.826-92.826H166.783Z"/></svg>