<svg xmlns="http://www.w3.org/2000/svg" height="24" viewBox="0 -960 960 960" width="24"><path d="M272-172q-24.75 0-42.375-17.625T212-232v-312q0-14.25 6.375-27T236-592l208-157q15.68-12 35.84-12Q500-761 516-749l208 157q11.25 8.25 17.625 21T748-544v312q0 24.75-17.625 42.375T688-172H272Zm160-102q7 0 11.5-4.5T448-290v-112q20 0 34-14t14-34v-80q0-7-4.5-11.5T480-546q-7 0-11.5 4.5T464-530v80h-16v-80q0-7-4.5-11.5T432-546q-7 0-11.5 4.5T416-530v80h-16v-80q0-7-4.5-11.5T384-546q-7 0-11.5 4.5T368-530v80q0 20 14 34t34 14v112q0 7 4.5 11.5T432-274Zm128 0q7 0 11.5-4.5T576-290v-235.2q0-8.8-6.085-14.8t-15.009-6Q533-546 522.5-526T512-482v65.833q0 13.167 8.5 21.667Q529-386 542-386h2v96q0 7 4.5 11.5T560-274Z"/></svg>