<svg xmlns="http://www.w3.org/2000/svg" height="20" viewBox="0 -960 960 960" width="20"><path d="M295.717-196q-21.467 0-36.592-15.275T244-248v-300q0-12.099 5.375-22.925Q254.75-581.75 265-590l184-139q14.68-10 30.84-10T511-729l184 139q10.25 8.25 15.625 19.075Q716-560.099 716-548v300q0 21.45-15.287 36.725Q685.426-196 663.96-196H295.717ZM438-286q7 0 10.5-3.5T452-300v-98q17.5 0 29.75-12.25T494-440v-70q0-7-3.5-10.5T480-524q-7 0-10.5 3.5T466-510v70h-14v-70q0-7-3.5-10.5T438-524q-7 0-10.5 3.5T424-510v70h-14v-70q0-7-3.5-10.5T396-524q-7 0-10.5 3.5T382-510v70q0 17.5 12.25 29.75T424-398v98q0 7 3.5 10.5T438-286Zm124 0q7 0 10.5-3.5T576-300v-205.318q0-7.682-5.236-13.182t-12.915-5.5Q539-524 529.5-506.557t-9.5 38.375v57.652q0 11.53 7.05 19.398t18.95 6.799h2V-300q0 7 3.5 10.5T562-286Z"/></svg>