<svg xmlns="http://www.w3.org/2000/svg" height="20" viewBox="0 -960 960 960" width="20"><path d="M192.615-232Q169-232 152.5-248.5 136-265 136-288.615v-382.77q0-24.315 16.5-40.465Q169-728 192.615-728h151.028q11.272 0 21.969 4.231 10.696 4.23 19.388 12.923L463.846-632h303.539q24.315 0 40.465 16.15Q824-599.7 824-575.385v286.77Q824-265 807.85-248.5 791.7-232 767.385-232h-574.77Zm0-32h574.77q10.769 0 17.692-6.923T792-288.615v-286.77q0-10.769-6.923-17.692T767.385-600H450.769l-89.077-89.077q-3.846-3.846-8.077-5.385-4.23-1.538-8.846-1.538H192.615q-10.769 0-17.692 6.923T168-671.385v382.77q0 10.769 6.923 17.692T192.615-264ZM168-264v-432 432Zm311.789-54.769q6.75 0 11.48-4.499Q496-327.766 496-334.483v-154.286l66.615 66.615q5.616 5.616 11.27 6 5.654.385 12.038-6 6.385-6.384 6.385-11.654 0-5.269-6.385-11.654l-86.446-86.445q-8.554-8.555-19.659-8.555-11.105 0-19.433 8.693L375.615-447q-5.615 5.615-5.5 10.769.116 5.154 6.5 11.539 6.385 6.384 11.654 6.384 5.27 0 11.654-6.384L464-488.769v154.286q0 6.717 4.52 11.215 4.52 4.499 11.269 4.499Z"/></svg>