<svg xmlns="http://www.w3.org/2000/svg" height="20" viewBox="0 -960 960 960" width="20"><path d="M200-244q-22 0-37-15t-15-37v-368q0-22.7 15-37.35Q178-716 200-716h140.643q10.349 0 20.353 4Q371-708 379-700l80 80h301q22.7 0 37.35 14.65Q812-590.7 812-568v272q0 22-14.65 37T760-244H200Zm279.789-84q4.211 0 7.211-2.768t3-6.946V-504l77 77q4 4 7 4.5t8-4.5q5-5 5-7.5t-5-7.5l-84.138-84.138Q490-534 479.818-534T462-526l-82 82q-4 4-4 6.5t5 7.5q5 5 7.5 5t7.5-5l74-74v166.286q0 4.178 2.789 6.946 2.79 2.768 7 2.768Z"/></svg>