<svg xmlns="http://www.w3.org/2000/svg" height="24" viewBox="0 -960 960 960" width="24"><path d="M166.783-140.782q-44.305 0-75.153-30.848-30.848-30.848-30.848-75.153v-466.434q0-44.305 30.848-75.153 30.848-30.848 75.153-30.848h180.999q21.225 0 40.461 7.978 19.235 7.978 34.192 22.935L480-730.74h313.217q44.305 0 75.153 30.849 30.848 30.848 30.848 75.153v377.955q0 44.305-30.848 75.153-30.848 30.848-75.153 30.848H166.783Zm0-106.001h626.434v-377.955H436.26l-88.478-88.479H166.783v466.434Zm0 0v-466.434V-246.783ZM480-276.609q19.826 0 33.587-13.761 13.761-13.76 13.761-33.587v-85.041l15.651 15.651q12.696 12.696 31.392 12.696 18.696 0 33.087-14.392 13.261-13.261 13.261-33.087 0-19.826-13.261-33.087l-89.869-89.869q-16.162-15.957-37.712-15.957-21.549 0-37.506 15.957l-89.869 89.869q-13.261 13.261-13.261 33.087 0 19.826 14.957 34.783 12.695 12.696 31.391 12.696 18.696 0 31.392-12.696l15.651-15.651v85.041q0 19.827 13.761 33.587 13.761 13.761 33.587 13.761Z"/></svg>