<svg xmlns="http://www.w3.org/2000/svg" height="24" viewBox="0 -960 960 960" width="24"><path d="M300-727.692q-27.923 0-47.808-19.885t-19.885-47.808q0-27.923 19.885-47.807 19.885-19.885 47.808-19.885t47.807 19.885q19.885 19.884 19.885 47.807 0 27.923-19.885 47.808-19.884 19.885-47.807 19.885Zm366.154 220q-21.154 0-36.731-15.257-15.577-15.256-15.577-37.051 0-22.692 15.577-37.5t36.731-14.808q22.692 0 37.5 14.808t14.808 37.115q0 22.308-14.808 37.5-14.808 15.193-37.5 15.193ZM229.23-132.308v-230.769h-33.846q-13.73 0-23.019-9.288-9.288-9.289-9.288-23.02v-203.077q0-26.653 18.98-45.634 18.981-18.981 45.635-18.981h116.923q20.462 0 36.539 11.269t23.231 30.269l99.923 263.923 91.769-91.769q7.231-7.384 16.28-11.307 9.049-3.923 19.104-3.923h79.308q20.513 0 34.872 14.359Q760-435.897 760-415.385v106.154q0 13.692-9.884 21.731-9.885 8.038-22.423 10.577H720v144.615q0 13.731-9.288 23.02Q701.423-100 687.693-100h-43.078q-13.73 0-23.019-9.288-9.288-9.289-9.288-23.02v-276.307l-68.462 66.461q-4.23 4.923-10.423 7.385-6.192 2.461-12.423 2.461h-31.846q-10.231 0-17.577-5.384-7.346-5.385-10.808-14.385L380-573.692v441.384q0 13.731-9.288 23.02-9.289 9.288-23.02 9.288h-86.154q-13.731 0-23.019-9.288-9.289-9.289-9.289-23.02Z"/></svg>