<svg xmlns="http://www.w3.org/2000/svg" height="24" viewBox="0 -960 960 960" width="24"><path d="M260-724.522q-36.391 0-62.435-26.044-26.044-26.043-26.044-62.435 0-36.391 26.044-62.435 26.044-26.043 62.435-26.043 36.391 0 62.435 26.043 26.044 26.044 26.044 62.435 0 36.392-26.044 62.435-26.044 26.044-62.435 26.044Zm420 217.523q-28.391 0-48.435-20.044-20.044-20.044-20.044-48.435 0-28.392 20.044-48.718 20.044-20.326 48.435-20.326 28.391 0 48.435 20.326 20.044 20.326 20.044 48.718 0 28.391-20.044 48.435-20.044 20.044-48.435 20.044ZM162.477-126.783v-224.738h-8.695q-21.522 0-36.413-14.892-14.892-14.891-14.892-36.413v-175.695q0-43.739 31.131-74.87 31.131-31.131 74.871-31.131h103.042q32.175 0 57.806 17.283 25.63 17.283 38.326 46.457l115.868 240.783 42.696-59.305q11.392-14.826 28.566-23.522 17.174-8.695 36.13-8.695h89.303q33.479 0 56.632 23.435Q800-424.651 800-391.172v92.651q0 16.566-12.804 25.892-12.805 9.326-27.196 14.108v131.738q0 22.087-15.457 37.544-15.456 15.457-37.544 15.457h-53.998q-22.088 0-37.544-15.457Q600-104.696 600-126.783v-228.738l-29.609 39.87q-6.131 8-15.196 12.565-9.065 4.565-19.196 4.565h-46q-12.695 0-22.891-6.413-10.196-6.413-15.196-17.674L380-468.868v342.085q0 22.087-15.457 37.544-15.456 15.457-37.544 15.457H215.478q-22.087 0-37.544-15.457-15.457-15.457-15.457-37.544Z"/></svg>