<svg xmlns="http://www.w3.org/2000/svg" height="24" viewBox="0 -960 960 960" width="24"><path d="M538.562-120q-91.746 0-156.308-64.077T317.692-340v-20.692q-76-7.077-128-63.962-52-56.885-52-135.346v-187.693q0-13.73 9.288-23.019Q156.269-780 170-780h87.692v-20q0-8.5 5.758-14.25t14.269-5.75q8.512 0 14.242 5.75 5.731 5.75 5.731 14.25v80q0 8.5-5.758 14.25-5.757 5.75-14.269 5.75-8.511 0-14.242-5.75-5.731-5.75-5.731-14.25v-20h-80v180q0 66 47 113t113 47q66 0 113-47t47-113v-180h-80v20q0 8.5-5.757 14.25-5.758 5.75-14.27 5.75-8.511 0-14.242-5.75-5.731-5.75-5.731-14.25v-80q0-8.5 5.758-14.25t14.269-5.75q8.512 0 14.243 5.75 5.73 5.75 5.73 14.25v20h87.693q13.73 0 23.019 9.288 9.288 9.289 9.288 23.019V-560q0 78.461-52 135.346-52 56.885-128 63.962V-340q0 75 52.725 127.5Q463.141-160 538.462-160q75 0 127.5-52.5t52.5-127.5v-62.385q-28.077-6.846-46.347-29.838-18.269-22.993-18.269-52.393 0-35.256 24.706-59.936 24.706-24.679 60-24.679t59.91 24.679q24.615 24.68 24.615 59.936 0 29.4-18.269 52.393-18.269 22.992-46.346 29.838V-340q0 91.846-64.077 155.923T538.562-120Zm199.9-320q18.538 0 31.577-13.039 13.038-13.038 13.038-31.577 0-18.538-13.038-31.577-13.039-13.038-31.577-13.038-18.539 0-31.577 13.038-13.039 13.039-13.039 31.577 0 18.539 13.039 31.577Q719.923-440 738.462-440Zm0-44.616Z"/></svg>