<svg xmlns="http://www.w3.org/2000/svg" height="20" viewBox="0 -960 960 960" width="20"><path d="M550-36q-120.615 0-203.808-85.485Q263-206.969 263-328v-9q-104-17-175.5-94.5T16-616v-191q0-24.3 17.35-41.65Q50.7-866 75-866h98v-12q5-20.3 20.789-33.15 15.79-12.85 37-12.85Q255-924 272.5-906.65T290-865v116q0 24.3-17.289 41.65-17.29 17.35-41.5 17.35Q210-690 194-702.85T173-736v-12h-39v132.46Q134-545 184.5-498T306-451q71 0 121.5-47T478-615.54V-748h-39v12q-5 20.3-20.789 33.15-15.79 12.85-37 12.85Q357-690 339.5-707.35T322-749v-116q0-24.3 17.289-41.65 17.29-17.35 41.5-17.35Q402-924 418-911.15T439-878v12h98q24.3 0 41.65 17.35Q596-831.3 596-807v191q0 100.35-61 175.675Q474-365 381-341v14q0 71.333 49.059 122.667Q479.118-153 550.059-153T669.5-204.333Q718-255.667 718-327v-49.625Q675-393 648.5-431.5T622-520q0-65 45-110t110-45q65 0 110 45t45 110q0 50-26.5 88.5T836-376.788V-328q0 121.031-82.692 206.515Q670.615-36 550-36Z"/></svg>