<svg xmlns="http://www.w3.org/2000/svg" height="24" viewBox="0 -960 960 960" width="24"><path d="M346.154-506.154h47.692v-227.692H286.154v47.692h60v180Zm136.154 0h167.691v-227.692H482.308v47.692h120v48.462h-83.847v35.384h83.847v48.462h-120v47.692Zm-236.154 280h47.692v-180h52.308v120h47.692v-120h52.308v180h47.692v-227.692H246.154v227.692Zm300 0h47.692v-60h120v-167.692H546.154v227.692Zm47.692-107.692v-72.308h72.308v72.308h-72.308ZM140.001-140.001v-679.998h679.998v679.998H140.001ZM200-200h560v-560H200v560Zm0 0v-560 560Z"/></svg>