<svg xmlns="http://www.w3.org/2000/svg" height="24" viewBox="0 -960 960 960" width="24"><path d="M332.308-212.308h35.384v-259.23q28.308-5.693 47.231-26.193 18.923-20.5 18.923-50.269v-144.308h-30.769v127.692h-37.692v-127.692h-30.77v127.692h-37.692v-127.692h-30.769V-548q0 29.769 18.923 50.269t47.231 26.193v259.23Zm240 0h35.384v-249.384q32.231-12.154 51.116-44.846 18.884-32.693 18.884-78.154 0-53.154-25.038-88.077-25.039-34.923-62.654-34.923t-62.654 34.923q-25.038 34.923-25.038 88.077 0 45.461 18.884 78.154 18.885 32.692 51.116 44.846v249.384ZM120-120v-720h720v720H120Zm40-40h640v-640H160v640Zm0 0v-640 640Z"/></svg>