<svg xmlns="http://www.w3.org/2000/svg" height="20" viewBox="0 -960 960 960" width="20"><path d="m747-429-86 85q-11 11-25 11t-25-11q-11-11-11-25.5t11-25.5l85-85-85-85q-11-11-11-25.5t11-25.5q11-11 25-11t25 11l86 85 85-85q11-11 25.5-11t25.5 11q11 11 11 25.5T883-565l-85 85 85 85q11 11 11 25t-11 25q-11 11-25.5 11T832-345l-85-84ZM279-17q-48.975 0-83.488-34.513Q161-86.025 161-135v-690q0-48.975 34.512-83.487Q230.025-943 279-943h402q48.975 0 83.487 34.513Q799-873.975 799-825v153H681v-33H279v450h402v-33h118v153q0 48.975-34.513 83.487Q729.975-17 681-17H279Z"/></svg>