<svg xmlns="http://www.w3.org/2000/svg" height="20" viewBox="0 -960 960 960" width="20"><path d="m747-429-86 85q-11 11-25 11t-25-11q-11-11-11-25.5t11-25.5l85-85-85-85q-11-11-11-25.5t11-25.5q11-11 25-11t25 11l86 85 85-85q11-11 25.5-11t25.5 11q11 11 11 25.5T883-565l-85 85 85 85q11 11 11 25t-11 25q-11 11-25.5 11T832-345l-85-84ZM279-17q-48.675 0-83.337-34.663Q161-86.325 161-135v-690q0-48.675 34.663-83.338Q230.325-943 279-943h402q48.675 0 83.338 34.662Q799-873.675 799-825v153H681v-33H279v450h402v-33h118v153q0 48.675-34.662 83.338Q729.675-17 681-17H279Zm0-166v48h402v-48H279Zm0-594h402v-48H279v48Zm0 0v-48 48Zm0 594v48-48Z"/></svg>