<svg xmlns="http://www.w3.org/2000/svg" height="24" viewBox="0 -960 960 960" width="24"><path d="M225.133-129Q186-129 157.5-157.5 129-186 129-225.133q0-39.132 28.5-67Q186-320 225.133-320q39.132 0 67 27.867 27.867 27.868 27.867 67Q320-186 292.133-157.5q-27.868 28.5-67 28.5Zm0-256Q186-385 157.5-412.867q-28.5-27.868-28.5-67Q129-519 157.5-547q28.5-28 67.633-28 39.132 0 67 27.867 27.867 27.867 27.867 67Q320-441 292.133-413q-27.868 28-67 28Zm0-255Q186-640 157.5-667.867q-28.5-27.867-28.5-67Q129-774 157.5-802.5 186-831 225.133-831q39.132 0 67 28.5Q320-774 320-734.867q0 39.133-27.867 67-27.868 27.867-67 27.867Zm255 511Q441-129 413-157.5q-28-28.5-28-67.633 0-39.132 27.867-67 27.868-27.867 67-27.867Q519-320 547-292.133q28 27.868 28 67Q575-186 547.133-157.5q-27.867 28.5-67 28.5Zm0-256Q441-385 413-412.867q-28-27.868-28-67Q385-519 412.867-547q27.868-28 67-28Q519-575 547-547.133q28 27.867 28 67Q575-441 547.133-413q-27.867 28-67 28ZM480-640q-39.188 0-67.094-27.906Q385-695.812 385-735q0-39 28.042-67.5T480-831q6 0 11.5.5T502-828q-3 13-4 26t-1 27q0 32.871 7.54 64.151Q512.08-679.569 526-652q-10 6-21.368 9-11.369 3-24.632 3Zm297 65q-83 0-141.5-58.5T577-775q0-83 58.5-141.5T777-975q83 0 141.5 58.5T977-775q0 83-58.5 141.5T777-575Zm-42.133 446q-39.133 0-67-28.5Q640-186 640-225.133q0-39.132 27.867-67 27.867-27.867 67-27.867Q774-320 802.5-292.133q28.5 27.868 28.5 67Q831-186 802.5-157.5 774-129 734.867-129ZM735-385q-39.188 0-67.094-27.906Q640-440.812 640-480q0-12.895 3-23.947Q646-515 652-525q29 14 60 22t65 8q13.933 0 25.967-1.5Q815-498 828-500q2 5 2.5 10t.5 10q0 38.916-28.5 66.958T735-385Zm42-255q14 0 23-9t9-23q0-14-9-23.5t-23-9.5q-14 0-23 9.5t-9 23.5q0 14 9 23t23 9Zm-.5-108q11.5 0 20-8.4T805-776v-104q0-11.2-8-19.6-8-8.4-19.5-8.4t-20 8.4q-8.5 8.4-8.5 19.6v104q0 11.2 8 19.6 8 8.4 19.5 8.4Z"/></svg>