<svg xmlns="http://www.w3.org/2000/svg" height="20" viewBox="0 -960 960 960" width="20"><path d="M808.184-136q-6.722 0-11.453-4.6Q792-145.2 792-152v-656q0-6.8 4.547-11.4 4.547-4.6 11.27-4.6 6.722 0 11.452 4.6Q824-814.8 824-808v656q0 6.8-4.547 11.4-4.547 4.6-11.269 4.6Zm-656.001 0q-6.722 0-11.452-4.6Q136-145.2 136-152v-656q0-6.8 4.547-11.4 4.547-4.6 11.269-4.6t11.453 4.6Q168-814.8 168-808v656q0 6.8-4.547 11.4-4.548 4.6-11.27 4.6Zm372.125-460q-12.031 0-20.169-8.138-8.139-8.139-8.139-20.17v.616q0-12.031 8.139-20.17Q512.277-652 524.308-652h147.384q12.031 0 20.17 8.138 8.138 8.139 8.138 20.17v-.616q0 12.031-8.138 20.17-8.139 8.138-20.17 8.138H524.308Zm-236 0q-12.031 0-20.17-8.138-8.138-8.139-8.138-20.17v.616q0-12.031 8.138-20.17 8.139-8.138 20.17-8.138h147.384q12.031 0 20.169 8.138 8.139 8.139 8.139 20.17v-.616q0 12.031-8.139 20.17Q447.723-596 435.692-596H288.308Zm236 288q-12.031 0-20.169-8.138-8.139-8.139-8.139-20.17v.616q0-12.031 8.139-20.17Q512.277-364 524.308-364h147.384q12.031 0 20.17 8.138 8.138 8.139 8.138 20.17v-.616q0 12.031-8.138 20.17-8.139 8.138-20.17 8.138H524.308Zm-236 0q-12.031 0-20.17-8.138-8.138-8.139-8.138-20.17v.616q0-12.031 8.138-20.17 8.139-8.138 20.17-8.138h147.384q12.031 0 20.169 8.138 8.139 8.139 8.139 20.17v-.616q0 12.031-8.139 20.17Q447.723-308 435.692-308H288.308Z"/></svg>