<svg xmlns="http://www.w3.org/2000/svg" height="24" viewBox="0 -960 960 960" width="24"><path d="M480-70.956q-46.13 0-80.478-9.783-34.348-9.782-75.218-35.782l-110.13-70q-27.304-18-42.435-47.631-15.13-29.63-15.13-61.196 0-65.608 46.021-104 46.022-38.391 109.37-38.391 34.652 0 63 11.196 28.348 11.195 52.044 34.717 2.174 2.174 4.565 3.478 2.391 1.305 5 2.609l.565-75.391q-54.392-3-98.957-12.566-44.565-9.565-76.283-25.413-31.717-15.848-49.086-37.196-17.37-21.347-17.37-48.347 0-20 13.435-37.783t37.869-33.348q-5.434-9-8.369-19.217-2.935-10.218-2.935-21.652 0-22.131 16.217-41.914 16.218-19.782 45.218-35.347-1.435-4.435-1.435-7.87v-7.869q0-27.696 29.478-51.436 29.479-23.739 75.044-34.739v73.436q-7.217 2.739-13.608 5.543-6.391 2.804-10.261 6.674 5.565 5 19.674 10.369 14.108 5.37 41.369 7.804V-902.61h85.652v130.609q27.261-2.434 41.369-7.804 14.109-5.369 19.674-10.369-3.87-3.435-10.043-6.239-6.174-2.805-13.391-5.544v-73.87q45.565 11 74.826 34.957 29.261 23.957 29.261 51.218 0 .565-1.435 15.739 29 15.565 45.218 35.13 16.217 19.565 16.217 42.131 0 11.434-2.935 21.652-2.935 10.217-8.369 19.217 24.434 15.565 37.869 33.348 13.435 17.783 13.435 37.783 0 27-17.37 48.347-17.369 21.348-49.086 37.196-31.718 15.848-76.283 25.413-44.565 9.566-98.957 12.566v75.391q2.609-1.304 5-2.609 2.391-1.304 4.565-3.478 22.565-23.522 52.891-34.717 30.327-11.196 62.718-11.196 62.783 0 109.087 38.891 46.304 38.892 46.304 104.5 0 32.696-15.13 61.761-15.131 29.066-43.565 47.066l-109 69q-41.435 26-75.218 35.782-33.782 9.783-80.478 9.783ZM480-160q32 0 55.652-7t52.522-24.87l109-69q8.304-5.434 12.739-14.239 4.435-8.804 4.435-19.239 0-25.043-20.174-39.695Q674-348.695 648-348.695q-14.435 0-27.304 4.217-12.87 4.218-22.739 12.652-25.131 22.131-55.261 33.631-30.131 11.5-62.696 11.5t-62.696-11.5q-30.13-11.5-55.261-33.631-9.869-8.434-22.739-12.652-12.869-4.217-27.304-4.217-26 0-46.174 14.435-20.174 14.434-20.174 38.912 0 9.87 4.435 19.457 4.435 9.587 12.739 15.021l109.565 69.435q28.305 17.87 51.957 24.652Q448-160 480-160Zm-42.826-372.435v-48.695q-39.565-2-71.239-8.435-31.674-6.435-57.674-17.87-16.217 7.174-26.152 13.978-9.935 6.805-13.63 11.37 9.348 14.391 51.978 29.804 42.631 15.413 116.717 19.848ZM330-254.348q12 0 21-9t9-21q0-12-9-21t-21-9q-12 0-21 9t-9 21q0 12 9 21t21 9Zm107.174-398.653v-47.129q-26.435-2-47.609-6.935-21.174-4.935-38.608-12.37-17.913 6.739-28.348 13.544-10.435 6.804-14.696 11.934 5.522 12.87 39.675 24.696 34.152 11.826 89.586 16.26Zm85.652 120.566q74.086-4.435 116.717-19.848 42.63-15.413 51.978-29.804-3.695-4.565-13.413-11.37-9.717-6.804-25.934-13.978-26 11.435-57.674 17.87-31.674 6.435-71.674 8.435v48.695Zm0-120q55.434-3.87 89.304-16.261 33.869-12.391 39.957-25.261-4.261-4.695-14.044-11.5-9.783-6.804-28.565-13.978-17.435 7.87-38.608 12.587-21.174 4.718-48.044 6.718v47.695ZM630-254.348q12 0 21-9t9-21q0-12-9-21t-21-9q-12 0-21 9t-9 21q0 12 9 21t21 9Zm-150 0Z"/></svg>