<svg xmlns="http://www.w3.org/2000/svg" height="24" viewBox="0 -960 960 960" width="24"><path d="M240-384.614q43.384 0 79.538 23.5 36.153 23.499 53.23 63.884l13.847 32.616H422q35.076 0 58.845 24.884T504.614-180q0 35.461-24.576 60.038Q455.461-95.386 420-95.386H240q-59.846 0-102.23-42.384Q95.386-180.154 95.386-240q0-60.846 42.384-102.73 42.384-41.884 102.23-41.884ZM427.306-812.69q-11.076 96.307 19.847 186.768 30.923 90.462 99.615 159.154t159.154 99.615q90.461 30.923 186.768 19.847-31 125.845-131.73 205.267-100.73 79.422-229.499 82.037 25.461-23.307 39.307-54.422 13.846-31.115 13.846-65.576 0-64.154-41.538-110.384-41.539-46.231-103.692-52-28.923-56.23-82.307-89.23-53.385-33-117.077-33-26.23 0-51.538 6.077-25.307 6.076-48.461 18.23v-6.154q1.231-130.769 81.038-232.499 79.807-101.73 206.267-133.73Z"/></svg>