<svg xmlns="http://www.w3.org/2000/svg" height="24" viewBox="0 -960 960 960" width="24"><path d="M434.5-756.413v-171h91v171h-91Zm272.696 112.87-63.653-63.653 120.653-121.652 63.652 64.652-120.652 120.653ZM756.413-434.5v-91h171v91h-171Zm7.783 302.587-120.653-121.13 63.653-63.653 121.652 119.892-64.652 64.891Zm-511.392-511.63L132.152-764.196l64.652-64.413 119.653 121.413-63.653 63.653ZM240-205.5h179.522q22.608 0 38.554-15.946 15.946-15.945 15.946-38.554 0-22.848-15.446-38.793-15.446-15.946-38.293-15.946h-53.87l-21.435-51.109q-13.282-31.326-41.967-49.75T240-434.022q-47.609 0-81.054 33.207Q125.5-367.609 125.5-320q0 47.848 33.326 81.174Q192.152-205.5 240-205.5Zm0 91q-85.391 0-145.446-60.054Q34.5-234.609 34.5-320q0-85.87 61.37-145.685 61.369-59.815 147.717-59.337 59.761 0 109.022 32.62 49.261 32.619 73.978 87.141 58.478 0 98.457 43.239 39.978 43.239 39.978 103.718-.565 60.347-42.739 102.076Q480.109-114.5 420-114.5H240Zm325.022-143.804q-6.674-22.153-13.468-43.424-6.793-21.272-13.706-43.424 40.456-17.805 64.847-54.218 24.392-36.413 24.392-80.63 0-60.978-43.055-104.032Q540.978-627.087 480-627.087q-54.978 0-96.391 35.652-41.413 35.653-48.935 90.392-22.391-6.435-45.543-11.99-23.153-5.554-45.544-11.989 14.957-85.369 82.261-139.217Q393.152-718.087 480-718.087q99.283 0 168.685 69.402T718.087-480q0 74.609-41.967 134.793-41.968 60.185-111.098 86.903ZM481-480Z"/></svg>