<svg xmlns="http://www.w3.org/2000/svg" height="24" viewBox="0 -960 960 960" width="24"><path d="M460-743.077v-135.385h40v135.385h-40Zm219.846 91.539-28.308-29.078 96.077-96.307 28.308 29.308-96.077 96.077ZM743.077-460v-40h135.385v40H743.077Zm4.538 275.923-96.077-96.077 29.078-29.077 96.307 95.846-29.308 29.308ZM280.923-650.769l-97.616-97.616 29.308-27.769 96.616 97.077-28.308 28.308Zm-17.846 455.384h164.615q32.693 0 56.346-23.653 23.654-23.654 23.654-56.347 0-32.692-22.769-55.961t-55.462-23.269h-38.692l-14.615-34.923q-15.539-36.077-48.231-57.116-32.692-21.038-72.538-21.038-55.385 0-93.847 38.461-38.461 38.462-38.461 93.846 0 58.462 40.769 99.231 40.769 40.769 99.231 40.769Zm0 40.001q-74.539 0-127.27-52.731-52.73-52.731-52.73-127.27 0-72.23 50.038-122.269 50.039-50.038 122.27-50.038 54.615 0 99.115 30.961 44.5 30.962 63.115 82.116 50.308 0 89.808 30.307 39.5 30.308 40.269 89.539-.461 49.308-35.192 84.346-34.731 35.039-84.808 35.039H263.077Zm283.077-134.77q-2.692-10-5.385-19.384-2.692-9.385-5.384-19.385 47.307-19.769 75.961-60.154Q640-429.462 640-480q0-66-47-113t-113-47q-62.308 0-108.077 41.692-45.769 41.693-50.692 104-10-2.692-20.231-5.154-10.231-2.461-20.231-5.153 9.385-75.693 66.346-125.539Q404.077-680 480-680q83.077 0 141.539 58.461Q680-563.077 680-480q0 63.923-36.692 115.423t-97.154 74.423ZM481-480Z"/></svg>