<svg xmlns="http://www.w3.org/2000/svg" height="20" viewBox="0 -960 960 960" width="20"><path d="M264-202.434q-56.218 0-94.892-38.674-38.674-38.674-38.674-95.892 0-55.652 38.957-93.544 38.957-37.891 94.609-37.891 48.957 0 85.566 31.195 36.608 31.196 44.869 79.588l-1.391 6.521h25.26q30.653 0 52.392 21.739 21.739 21.74 21.739 52.392 0 31.087-21.739 52.827-21.739 21.739-51.826 21.739H264Zm297.305-112.567q-11.957-39.434-42.022-66.587-30.065-27.152-68.935-37.847-21-46.435-59.435-77.935-38.434-31.5-87.739-40.5 18.131-58.782 67.305-94.195Q419.652-667.478 480-667.478q78.304 0 132.891 54.087Q667.478-559.304 667.478-481q0 54.348-28.761 99.391-28.76 45.043-77.412 66.608Zm-130.306-421.52v-170.002h98.002v170.002h-98.002Zm263.827 109.783-68.088-70.088 120.088-120.088 68.088 70.088-120.088 120.088Zm40.695 194.739v-98.002h170.002v98.002H735.521Zm10.305 285.913L627.738-266.739l66.088-70.088 122.088 120.653-70.088 70.088ZM266.174-625.738 145.086-748.826l70.088-66.088 119.088 117.088-68.088 72.088Z"/></svg>