<svg xmlns="http://www.w3.org/2000/svg" height="20" viewBox="0 -960 960 960" width="20"><path d="M287.077-254.461q-40.77 0-68.846-28.077-28.077-28.077-28.077-69.847 0-37.692 25.769-62.961t63.462-25.269q35 0 60.038 24.115 25.039 24.115 28.731 59.115l7.385 28.846h52.922q15.001 0 25.578 10.577 10.576 10.577 10.576 25.577 0 16.001-10.961 26.962-10.962 10.962-25.962 10.962H287.077Zm245.231-82.923q-13.385-28.462-40.192-44.924-26.808-16.461-56.039-17-11.769-38.538-38.462-67.731-26.692-29.192-65.384-40.5 10.846-54.23 52.461-89.346Q426.308-632 480-632q63.077 0 107.539 43.961Q632-544.077 632-481q0 48.462-27.615 87.846-27.616 39.385-72.077 55.77ZM464-728.077v-119.385h32v119.385h-32Zm201.846 84.539-22.308-25.078 85.847-84.307 21.538 24.308-85.077 85.077ZM727.077-465v-32h119.385v32H727.077Zm1.308 254.154-83.847-84.308 21.078-25.077 86.307 85.846-23.538 23.539ZM295.923-641.769l-87.616-89.616 25.078-18 84.846 81.308-22.308 26.308Z"/></svg>