<svg xmlns="http://www.w3.org/2000/svg" height="20" viewBox="0 -960 960 960" width="20"><path d="M275.539-235.232q-45.384 0-76.922-31.538-31.538-31.539-31.538-77.923 0-43.846 30.384-73.73 30.384-29.884 74.23-29.884 40 0 69.268 26.807 29.269 26.808 34.115 66.807l4.693 21.924h44.462q20 0 34.038 14.038 14.038 14.038 14.038 34.038 0 21-14.23 35.23-14.231 14.231-34.231 14.231H275.539Zm265.614-84.462q-10.692-34.23-38.846-56.46-28.154-22.231-62.769-27-16.384-42.768-49.23-73.115-32.845-30.346-77.691-40.5 13.923-59.615 60.73-97.422Q420.154-651.999 480-651.999q71.538 0 121.768 49.731 50.231 49.73 50.231 121.268 0 54.23-30.308 98.422-30.307 44.192-80.538 62.884Zm-87.152-416.844v-131.691h51.998v131.691h-51.998Zm224.921 93.769-36.153-38.538 93.923-93.153 35.768 38.153-93.538 93.538Zm56.616 187.768v-51.998h131.691v51.998H735.538Zm.154 266.076-91.923-93.153 34.538-38.537 95.153 93.922-37.768 37.768Zm-453.229-452.46-95.308-97.307 38.538-32.999 92.922 90.154-36.152 40.152Z"/></svg>