<svg xmlns="http://www.w3.org/2000/svg" height="20" viewBox="0 -960 960 960" width="20"><path d="M480-398.826q-104.348 0-178.283-72.152-73.935-72.152-73.935-173.501 0-101.348 73.935-174.283Q375.652-891.697 480-891.697q104.348 0 178.783 72.935 74.435 72.935 74.435 174.283 0 101.349-74.435 173.501T480-398.826Zm330 242.349h-28.999q-16.96 0-28.741-11.782-11.781-11.781-11.781-28.74 0-16.96 11.781-28.741 11.781-11.781 28.741-11.781H810v-29q0-16.714 11.781-28.335 11.781-11.621 28.741-11.621 16.715 0 28.336 11.621 11.621 11.621 11.621 28.335v29h28.999q16.96 0 28.741 11.781Q960-213.959 960-196.999q0 16.959-11.781 28.74-11.781 11.782-28.741 11.782h-28.999v28.999q0 16.715-11.618 28.336-11.617 11.62-28.326 11.62t-28.622-11.78Q810-111.084 810-128.043v-28.434Zm-306 32.956v-159.522q0-16.714 11.781-28.335 11.781-11.621 28.741-11.621H648q35.087 0 57.783 22.695 22.696 22.696 22.696 57.783v20.053q0 14.73-4.587 30.73t-20.587 24.13l13.043 26.26q9.131 20.261-2.641 39.305t-34.316 19.044q-12.695 0-21.761-6.348-9.065-6.348-15.195-16.913l-17.913-38.565h-40.043v21.869q0 16.715-11.618 28.336Q561.244-83 544.535-83t-28.622-11.78Q504-106.563 504-123.522Zm80.479-98.956H648v-20.044h-63.521v20.044Zm-504 61.695v37.826q0 16.715-11.618 28.336Q57.244-83 40.535-83T11.913-94.62Q0-106.241 0-122.956v-160.087q0-16.714 11.781-28.335 11.781-11.621 28.741-11.621 16.715 0 28.336 11.621 11.62 11.621 11.62 28.335v45.739H144v-45.739q0-16.714 11.781-28.335 11.781-11.621 28.741-11.621 16.715 0 28.336 11.621 11.621 11.621 11.621 28.335v160.087q0 16.715-11.618 28.336Q201.244-83 184.535-83t-28.622-11.78Q144-106.563 144-123.522v-37.261H80.479ZM264-123.521v-159.522q0-16.714 11.781-28.335 11.781-11.621 28.741-11.621H384q35.087 0 57.783 22.695 22.696 22.696 22.696 57.783v79.043q0 35.087-22.696 57.783Q419.087-82.999 384-82.999h-79.478q-16.96 0-28.741-11.782Q264-106.562 264-123.52Zm80.479-39.957H384v-79.043h-39.521v79.043Z"/></svg>