<svg xmlns="http://www.w3.org/2000/svg" height="20" viewBox="0 -960 960 960" width="20"><path d="M228-196q-13.6 0-22.8-9.2-9.2-9.2-9.2-22.8v-504q0-13.6 9.2-22.8 9.2-9.2 22.8-9.2 13.6 0 22.8 9.2 9.2 9.2 9.2 22.8v504q0 13.6-9.2 22.8-9.2 9.2-22.8 9.2Zm504 0q-13.6 0-22.8-9.2-9.2-9.2-9.2-22.8v-504q0-13.6 9.2-22.8 9.2-9.2 22.8-9.2 13.6 0 22.8 9.2 9.2 9.2 9.2 22.8v504q0 13.6-9.2 22.8-9.2 9.2-22.8 9.2Zm-304-90-85-85q-11-10.636-11-24.818Q332-410 343-421l85-85q9-9 22.5-9t22.5 9.643q9 9.643 9 22.5T473-461l-32 32 63 1q32 0 54-22t22-54q0-32-22-54t-54-22H348q-13.6 0-22.8-9.2-9.2-9.2-9.2-22.8 0-13.6 9.2-22.8 9.2-9.2 22.8-9.2h156q57.75 0 98.875 41.177t41.125 99Q644-446 602.875-405 561.75-364 504-364h-64l33 33q9 9 9.5 22t-9.5 23q-9 9-22.5 9t-22.5-9Z"/></svg>