<svg xmlns="http://www.w3.org/2000/svg" height="24" viewBox="0 -960 960 960" width="24"><path d="M155-117q-26 0-44.5-18.5T92-180v-560q0-26 18.5-44.5T155-803q26 0 44.5 18.5T218-740v560q0 26-18.5 44.5T155-117Zm652 0q-26 0-44.5-18.5T744-180v-560q0-26 18.5-44.5T807-803q26 0 44.5 18.5T870-740v560q0 26-18.5 44.5T807-117ZM399-218l-97-98q-19-19-19-44.5t19-44.5l97-97q17-17 41-17t41 17q17 17 17 41t-17 41l-2 2h27q34 0 58-24t24-58q0-34-24-58t-58-24H315q-24 0-40.5-17T258-640q0-24 17-41t41-17h190q82 0 140 58t58 140q0 82-58 140t-140 58h-27l2 2q17 17 17 40.5T481-219q-17 17-41 17.5T399-218Z"/></svg>