<svg xmlns="http://www.w3.org/2000/svg" height="20" viewBox="0 -960 960 960" width="20"><path d="M203.129-171.694q-18.687 0-31.844-13.157t-13.157-31.844v-504q0-18.687 13.157-31.844t31.844-13.157q18.687 0 31.844 13.157t13.157 31.844v504q0 18.687-13.157 31.844t-31.844 13.157Zm556.003 0q-18.687 0-31.844-13.157t-13.157-31.844v-504q0-18.687 13.157-31.844t31.844-13.157q18.687 0 31.844 13.157t13.157 31.844v504q0 18.687-13.157 31.844t-31.844 13.157Zm-328.306-75.304-91.783-92.348q-14.956-14.593-14.956-34.145 0-19.552 14.956-34.508l91.783-91.783q11.826-11.827 29.566-11.827 17.739 0 29.565 12.47 11.827 12.469 11.827 29.848 0 17.379-11.827 29.205l-23.521 23.521 30.216 1q32.565 0 54.848-22.282 22.282-22.283 22.282-54.848T551.5-547.543q-22.283-22.283-54.848-22.283H345.739q-17.557 0-29.583-12.308Q304.13-594.443 304.13-612q0-17.557 12.309-29.866 12.309-12.308 29.865-12.308h150.348q66.794 0 114.136 47.394 47.343 47.395 47.343 114.262 0 66.867-47.343 114.085-47.342 47.217-114.136 47.217h-31.216l24.521 24.522q11.827 11.826 12.327 29.065.5 17.24-12.327 30.066-11.826 11.826-29.565 12.109-17.74.282-29.566-11.544Z"/></svg>