<svg xmlns="http://www.w3.org/2000/svg" height="24" viewBox="0 -960 960 960" width="24"><path d="M209.987-170.001q-12.755 0-21.37-8.625-8.616-8.624-8.616-21.374v-560q0-12.75 8.629-21.375 8.629-8.624 21.384-8.624 12.756 0 21.371 8.624Q240-772.75 240-760v560q0 12.75-8.629 21.374-8.628 8.625-21.384 8.625Zm539.999 0q-12.756 0-21.371-8.625Q720-187.25 720-200v-560q0-12.75 8.629-21.375 8.628-8.624 21.384-8.624 12.755 0 21.37 8.624 8.616 8.625 8.616 21.375v560q0 12.75-8.629 21.374-8.629 8.625-21.384 8.625ZM407.693-293.924l-80.769-80.769Q316.078-385.539 316.078-400q0-14.461 10.846-25.307l80.769-80.769q8.923-8.923 21.192-8.923t21.192 8.923Q459-497.154 459-485.07t-8.923 21.146l-33.925 33.925h98.463q37.616 0 63.808-26.193 26.193-26.192 26.193-63.808t-26.193-63.808q-26.192-26.193-63.808-26.193h-189.23q-12.75 0-21.374-8.628-8.625-8.629-8.625-21.384 0-12.756 8.625-21.371 8.624-8.615 21.374-8.615h189.23q62.154 0 106.076 43.923Q664.614-582.154 664.614-520q0 62.154-43.923 106.076-43.922 43.923-106.076 43.923h-98.463l34.309 33.925q8.923 8.922 8.731 20.884-.192 11.961-9.115 21.076t-21.192 9.115q-12.269 0-21.192-8.923Z"/></svg>