<svg xmlns="http://www.w3.org/2000/svg" height="24" viewBox="0 -960 960 960" width="24"><path d="M231.869-107.804v-165.5h-160v-374.827h810.457v91.001H162.87v192.826h68.999v-65.413H634.5v91H322.87v141.587H634.5v89.326H231.869Zm0-540.327v-200h496.262v200H637.13V-757.13H322.87v108.999h-91.001ZM760-107.804q-19.152 0-32.326-13.174T714.5-153.304q0-19.152 13.174-32.326T760-198.804q19.152 0 32.326 13.174t13.174 32.326q0 19.152-13.174 32.326T760-107.804Zm-45.5-160V-477.13h91v209.326h-91ZM162.87-557.13h719.456H162.87Z"/></svg>