<svg xmlns="http://www.w3.org/2000/svg" height="20" viewBox="0 -960 960 960" width="20"><path d="M728-136H429.615L194.231-417.769l31.461-31.462 138 43.923v-311.923h31.231v341.77L227.77-434.23 443.923-168H696v-282.461H497.692v-32.001H728V-136ZM237.307-595.231q-10.692-19.154-16.153-39.373-5.462-20.219-5.462-42.627 0-68.846 47.577-116.423t116.423-47.577q68.847 0 116.424 47.577 47.577 47.577 47.577 116.325 0 22.713-5.462 42.829-5.462 20.115-16.154 39.269l-28.385-16q8-14 13-31t5-35q0-55-38.5-93.5t-93.5-38.5q-55 0-93.5 38.5t-38.5 93.5q0 18 5 35t13 31l-28.385 16Zm333.155 286Z"/></svg>