<svg xmlns="http://www.w3.org/2000/svg" height="24" viewBox="0 -960 960 960" width="24"><path d="M819.218-60.782H324.259L52.171-409.218l95.089-82.261 124.478 72.347v-353.869h100.783v530.088l-118.479-70.174L375.129-161.13H718.87v-269.261H452.521V-530.74h366.697v469.958ZM131.389-612.087q-14.36-24.242-22.093-52.341-7.733-28.099-7.733-57.852 0-91.46 64.459-155.895 64.459-64.435 155.914-64.435 91.455 0 155.89 64.473 64.435 64.472 64.435 155.946 0 29.756-7.733 57.823-7.732 28.067-22.093 52.281l-86.523-50.174q8-14 12-28.5t4-31.5q0-50-35-85t-85-35q-50 0-85 35t-35 85q0 17 4 31.5t12 28.5l-86.523 50.174Zm415.61 316.044Z"/></svg>