<svg xmlns="http://www.w3.org/2000/svg" height="24" viewBox="0 -960 960 960" width="24"><path d="M760-120H375.615L146.231-423.769l32.461-35.462 149 74.923v-324.923h40.231v392.77L224.77-387.23 396.923-160H720v-298.461H478.692v-40.001H760V-120ZM209.307-609.231q-10.692-18.154-16.153-38.373-5.462-20.219-5.462-41.627 0-66.846 46.577-113.423t113.423-46.577q66.847 0 113.424 46.577 46.577 46.577 46.577 113.325 0 21.713-5.462 41.829-5.462 20.115-16.154 38.269l-34.385-20q8-14 12-28.5t4-31.5q0-50-35-85t-85-35q-50 0-85 35t-35 85q0 17 4 31.5t12 28.5l-34.385 20Zm349.155 300Z"/></svg>