<svg xmlns="http://www.w3.org/2000/svg" height="20" viewBox="0 -960 960 960" width="20"><path d="M776.131-87.87H399.456L131.804-399.63l76.152-69.457 116.087 44.608V-773.5h80.37v468.652l-130.087-52.304 162.152 188.674h259.044v-259.457H476.413v-80.609h299.718v420.675ZM179.934-602.651q-13.575-23.949-20.885-50.548-7.31-26.6-7.31-55.764 0-88.58 62.021-150.591 62.021-62.01 150.598-62.01 88.577 0 150.588 62.026 62.011 62.027 62.011 150.612 0 29.166-7.31 55.752-7.31 26.586-20.886 50.523l-70.413-40.305q8-14 13-31t5-35q0-55-38.5-93.5t-93.5-38.5q-55 0-93.5 38.5t-38.5 93.5q0 18 5 35t13 31l-70.414 40.305ZM566.5-298.326Z"/></svg>