<svg xmlns="http://www.w3.org/2000/svg" height="20" viewBox="0 -960 960 960" width="20"><path d="M787.218-76.782H378.259L100.171-403.218l94.089-78.261 113.478 41.347v-340.869h91.783v266.261h387.697v437.958ZM159.389-598.087q-14.36-25.242-22.093-53.341-7.733-28.099-7.733-58.852 0-93.46 65.459-158.895 65.459-65.435 158.914-65.435 93.455 0 158.89 65.473 65.435 65.472 65.435 158.946 0 30.756-7.733 58.823-7.732 28.067-22.093 53.281l-80.523-46.174q8-14 13-31t5-35q0-55-38.5-93.5t-93.5-38.5q-55 0-93.5 38.5t-38.5 93.5q0 18 5 35t13 31l-80.523 46.174Z"/></svg>