<svg xmlns="http://www.w3.org/2000/svg" height="24" viewBox="0 -960 960 960" width="24"><path d="M60.782-140.782v-546.001h106.001v440h560v106.001H60.782Zm186.001-186.001v-515.045h394.088L534.87-735.827H352.784v303.043h440.433v-170.781l106.001-106.001v382.783H246.783Zm313.001-171.305q-28.088 0-52.979-13.609-24.892-13.609-39.457-38.261 17 3.957 31.044-6.413 14.043-10.369 14.043-29.2 0-27.691 19.644-47.452 19.643-19.761 47.705-19.761 28.061 0 47.705 19.643 19.643 19.643 19.643 47.705 0 36.031-25.659 61.69-25.658 25.658-61.689 25.658ZM698.697-622.61l-81.74-81.74 175.174-174.739 81.305 81.305L698.697-622.61Z"/></svg>