<svg xmlns="http://www.w3.org/2000/svg" height="24" viewBox="0 -960 960 960" width="24"><path d="M376.923-200H224.615Q197-200 178.5-218.5 160-237 160-264.615v-510.77Q160-803 178.5-821.5 197-840 224.615-840h510.77Q763-840 781.5-821.5 800-803 800-775.385v510.77Q800-237 781.5-218.5 763-200 735.385-200H583.077l-80.462 80.462q-9.692 9.692-22.615 9.692-12.923 0-22.615-9.692L376.923-200ZM480-340q77.539 0 128.769-54.231Q660-448.461 660-520v-180H480q-72.539 0-126.269 51.231Q300-597.539 300-520q0 26.923 9.654 54.692 9.654 27.77 27.73 55.385l-27.538 26.769q-6.615 6.615-6.615 14.154t6.615 14.154q6.615 6.615 14.039 6.115 7.423-.5 14.269-6.884l27.308-24.769q24.769 19.307 55.192 29.846Q451.077-340 480-340Zm36.154-221.154q6.615 6.615 6.615 14.654t-6.615 14.654L409.616-425.308q-6.616 6.616-14.27 6.231-7.654-.385-14.269-6.231-6.385-6.615-6.769-14.269-.385-7.654 6-14.039l107.538-107.538q6.615-6.615 14.154-6.615t14.154 6.615Z"/></svg>