<svg xmlns="http://www.w3.org/2000/svg" height="24" viewBox="0 -960 960 960" width="24"><path d="M280-114.5q-85.283 0-145.391-60.088-60.11-60.089-60.11-145.343 0-74.982 47.175-131.634 47.174-56.653 120.239-70.413v86.587Q205-423.63 181.543-391.823 158.087-360.016 158.087-320q0 50.478 35.541 86.196 35.542 35.717 86.316 35.717 50.773 0 86.371-35.558 35.598-35.558 35.598-86.355v-41.913h232.37q8.478-9 20.052-14.5 11.575-5.5 25.665-5.5 25.957 0 43.935 17.978t17.978 43.822q0 25.844-17.978 43.935T680-258.087q-14.09 0-25.665-5.5-11.574-5.5-20.052-14.5H481.261q-14.717 70.674-70.578 117.131Q354.822-114.5 280-114.5Zm400 0q-56.478 0-103.772-27.859-47.293-27.858-74.489-75.728h111.783q14 10 31.358 15 17.359 5 35.12 5 50.797 0 86.355-35.541 35.558-35.542 35.558-86.316 0-50.773-35.558-86.371-35.558-35.598-86.355-35.598-20.717 0-38.554 6.098-17.837 6.098-32.837 17.337L487.804-619.326q-21.478-4.478-35.598-20.861-14.119-16.383-14.119-39.933 0-25.597 18.091-43.695t43.935-18.098q25.844 0 43.822 18.058T561.913-680q0 5-.119 8.38-.12 3.381-1.881 8.381L643.804-522.5q7.761-1.761 17.598-2.381 9.837-.619 18.598-.619 85.283 0 145.391 59.935Q885.5-405.63 885.5-320q0 85.152-60.109 145.326Q765.283-114.5 680-114.5ZM280.113-258.087q-25.844 0-43.935-18.058T218.087-320q0-22.585 14.119-39.01 14.12-16.425 34.598-21.664l90.892-150.739q-29.718-27.478-46.457-66.413Q294.5-636.761 294.5-680q0-85.283 60.131-145.391Q414.762-885.5 500.077-885.5q85.314 0 145.369 60.109Q705.5-765.283 705.5-680h-83.587q0-50.717-35.541-86.315-35.542-35.598-86.316-35.598-50.773 0-86.371 35.558-35.598 35.558-35.598 86.355 0 43.957 26.717 76.815 26.718 32.859 67.913 42.098L338.913-337.724q2 4.963 2.5 8.89.5 3.926.5 8.834 0 25.797-17.978 43.855-17.978 18.058-43.822 18.058Z"/></svg>