<svg xmlns="http://www.w3.org/2000/svg" height="20" viewBox="0 -960 960 960" width="20"><path d="M288.181-96Q208-96 152-152.16 96-208.32 96-288q0-67 40.5-118.5T240-474v76q-32 14-52 43.465-20 29.466-20 66.535 0 50 35 85t85 35q50 0 85-35t35-85v-36h232q6-6 14.5-9t17.5-3q20 0 34 14t14 34q0 20-14 34t-34 14q-9 0-17.5-3t-14.5-9H477q-13 67-65.649 111.5T288.181-96Zm383.631 0Q618-96 574-122t-69-70h95q15 11 33.635 17.5Q652.269-168 672-168q50 0 85-35t35-85q0-50-35-85t-85-35q-25 0-46.5 9.5T587-372L483-580q-12-6-19.5-18t-7.5-26q0-20 14-34t34-14q20 0 34 14t14 34q0 2-.5 4.5t-.5 4.5l71 142q12-3 24.667-5 12.666-2 25.333-2 79.68 0 135.84 56.226t56.16 136Q864-208 807.785-152T671.812-96ZM288-240q-20 0-34-14t-14-34q0-16.296 9-28.148T272-333l98-153q-27.129-25.697-42.565-61.386Q312-583.076 312-624q0-79.68 56.226-135.84t136-56.16Q584-816 640-759.84T696-624h-72q0-50-35-85t-85-35q-50 0-85 35t-35 84.684q0 42.727 26 75.022Q436-517 475-507L336-292q0 21-13 36.5T288-240Z"/></svg>