<svg xmlns="http://www.w3.org/2000/svg" height="20" viewBox="0 -960 960 960" width="20"><path d="M288.181-122Q219-122 170.5-170.66T122-288q0-49 25-89.5t67-61.5v24q-32 20-52 53.465-20 33.466-20 73.535 0 60 43 103t103 43q60 0 103-43t43-103v-10h207q3-11 12-17.5t19-6.5q14 0 24 10t10 24q0 14-10 24t-24 10q-11 0-19.5-6T641-278H455q-7 73-56.649 114.5T288.181-122Zm383.631 0Q636-122 604-136t-58-42h29q18 15 43.635 25.5Q644.269-142 672-142q60 0 103-43t43-103q0-60-43-103t-103-43q-22 0-41 7.5T596-407l-91-187q-12 3-23.5-6.5T470-624q0-14 10-24t24-10q14 0 24 10t10 24q0 5-3.5 12t-6.5 9l81 159q15-3 30.167-6.5Q654.333-454 672-454q68.68 0 117.34 48.726t48.66 117.5Q838-219 789.285-170.5T671.812-122ZM288-254q-14 0-24-10t-10-24q0-14.296 10.5-25.148T295-319l109-172q-33.129-24.697-49.565-59.386Q338-585.076 338-624q0-68.68 48.726-117.34t117.5-48.66Q573-790 621.5-741.34T670-624h-20q0-60-43-103t-103-43q-60 0-103 43t-43 102.684q0 41.727 21 75.022Q400-516 437-493L314-304q3 1 5.5 5t2.5 7q0 15-9 26.5T288-254Z"/></svg>