<svg xmlns="http://www.w3.org/2000/svg" height="24" viewBox="0 -960 960 960" width="24"><path d="M280-140q-74.539 0-127.269-52.731Q100-245.461 100-320q0-59.154 33.577-105.192 33.577-46.039 86.423-63.885v43q-35 16.616-57.5 50.692Q140-361.308 140-320q0 57.692 41.154 98.846T280-180q57.692 0 98.846-41.154T420-320v-20h215.769q5.693-12.846 17.577-21.039 11.885-8.192 26.654-8.192 20.385 0 34.808 14.423 14.423 14.423 14.423 34.808 0 20.385-14.423 34.808-14.423 14.423-34.808 14.423-15.538 0-27.038-7.808T635.769-300H459.077q-9.385 73.615-61.577 116.808Q345.308-140 280-140Zm400 0q-42.154 0-78.423-18.269-36.27-18.269-63.039-50.962h56.231q16.308 13.077 38.693 21.154Q655.846-180 680-180q57.692 0 98.846-41.154T820-320q0-57.692-41.154-98.846T680-460q-17.692 0-32.769 3.962-15.077 3.961-29.308 11.115l-112-186.846q-21 2.923-38.077-11.154Q450.769-657 450.769-680q0-20.385 14.423-34.808 14.423-14.423 34.808-14.423 20.385 0 34.808 14.423 14.423 14.423 14.423 34.808 0 7.308-2.308 14.269-2.308 6.962-6.615 11.962L635-494.692q10.308-2 21.231-3.654Q667.154-500 680-500q74.539 0 127.269 52.731Q860-394.539 860-320q0 74.539-52.731 127.269Q754.539-140 680-140ZM280-270.769q-20.385 0-34.808-14.423-14.423-14.423-14.423-34.808 0-20.462 15.154-35.692 15.154-15.231 39.769-12.539l102.462-170.615q-33.616-26.231-50.885-62.962Q320-638.538 320-680q0-74.539 52.731-127.269Q425.461-860 500-860q74.539 0 127.269 52.731Q680-754.539 680-680h-40q0-57.692-41.154-98.846T500-820q-57.692 0-98.846 41.154T360-680q0 42.231 22.154 75.5t60.615 52.269l-122.692 205q4.308 5.77 6.731 12.846 2.423 7.077 2.423 14.385 0 20.385-14.423 34.808-14.423 14.423-34.808 14.423Z"/></svg>