<svg xmlns="http://www.w3.org/2000/svg" height="24" viewBox="0 -960 960 960" width="24"><path d="M280-97q-92.545 0-157.772-65.143Q57-227.286 57-319.711 57-401 109.5-464.5 162-528 248-541v98q-43 11-69.5 45.376T152-320q0 52 37.265 90 37.264 38 90.5 38Q333-192 370.5-229.333 408-266.667 408-320v-48h224q10-9 21.811-14.5T680-388q29 0 48.5 19.5t19.5 48.029q0 28.53-19.5 48.5Q709-252 680-252q-14.378 0-26.189-5.5T632-272H498q-17 76-77.19 125.5Q360.621-97 280-97Zm400 0q-58 0-111-29t-84-86h127q14 10 32.5 15t35.5 5q53.333 0 90.667-37.265Q808-266.529 808-319.765 808-373 770.667-410.5 733.333-448 680-448q-23 0-43.5 8T601-420L484-614q-23-6-37.5-23.6T432-680.5q0-27.5 19.971-47.5 19.97-20 48.5-20Q529-748 548.5-728.167 568-708.333 568-680q0 5-.5 8t-1.5 8l74 124q7-1 19.5-2t20.5-1q92.545 0 157.772 64.5Q903-414 903-320q0 92-65.228 157.5Q772.545-97 680-97ZM280.471-252q-28.53 0-48.5-19.833Q212-291.667 212-320q0-24.444 14.5-42.222Q241-380 263-386l81-134q-32-29-49.5-72.5T277-680q0-92.545 65.322-157.772Q407.643-903 500.322-903 593-903 658-837.772 723-772.545 723-680h-95q0-53-37.265-90.5-37.264-37.5-90.5-37.5Q447-808 409.5-770.667 372-733.333 372-680q0 47 29 81t74 44L345-336.848q2 4.848 2.5 8.54.5 3.693.5 8.308 0 28.333-19.5 48.167Q309-252 280.471-252Z"/></svg>