<svg xmlns="http://www.w3.org/2000/svg" height="24" viewBox="0 -960 960 960" width="24"><path d="M479.992-65.413q-34.188 0-58.525-25.054-24.337-25.054-24.337-60.685h165.74q0 35.631-24.346 60.685-24.345 25.054-58.532 25.054ZM317.848-193.065v-83.587h324.304v83.587H317.848Zm10-125.5Q256.696-361 214.282-432.033q-42.413-71.032-42.413-154.663 0-128.288 89.864-218.09 89.863-89.801 218.239-89.801t218.267 89.801q89.892 89.802 89.892 218.09 0 83.87-42.413 154.783Q703.304-361 632.152-318.565H327.848Zm27.348-91h249.608q44.283-31.522 68.305-77.566 24.021-46.043 24.021-99.512 0-91.096-63.043-154.02Q571.043-803.587 480-803.587q-91.043 0-154.087 62.924-63.043 62.924-63.043 154.02 0 53.469 24.021 99.512 24.022 46.044 68.305 77.566Zm124.804 0Z"/></svg>