<svg xmlns="http://www.w3.org/2000/svg" height="24" viewBox="0 -960 960 960" width="24"><path d="M479.98-45.52q-35.806 0-61.285-27.174-25.478-27.174-25.478-66.392h173.566q0 39.218-25.498 66.392Q515.786-45.52 479.98-45.52ZM314.913-183.608v-88.479h330.174v88.479H314.913Zm10-133.001Q250.826-361 205.804-434.805q-45.022-73.804-45.022-161.022 0-132.772 93.086-225.713 93.086-92.94 226.066-92.94 132.979 0 226.132 92.94 93.152 92.941 93.152 225.713 0 87.783-45.022 161.305T635.087-316.609H324.913Z"/></svg>