<svg xmlns="http://www.w3.org/2000/svg" height="24" viewBox="0 -960 960 960" width="24"><path d="M160-770.174q-22.087 0-37.544-15.457-15.457-15.457-15.457-37.544 0-22.087 15.457-37.544 15.457-15.457 37.544-15.457h640q22.087 0 37.544 15.457 15.457 15.457 15.457 37.544 0 22.087-15.457 37.544-15.457 15.457-37.544 15.457H160Zm282.391 471.218-104-104q-14.957-14.957-14.892-37.109.066-22.153 17.153-39.24 14.391-14.391 35.348-14.391t35.348 14.391l15.651 15.216V-640q0-22.087 15.457-37.544 15.457-15.457 37.544-15.457 22.087 0 37.544 15.457 15.457 15.457 15.457 37.544v175.911l15.651-15.651q14.391-14.391 35.131-14.109 20.739.283 37.261 16.805 15.522 14.957 15.522 37.044 0 22.087-15.522 37.609L517.609-298.956Q501.652-282.999 480-282.999t-37.609-15.957ZM160-83.824q-22.087 0-37.544-15.457-15.457-15.457-15.457-37.544 0-22.087 15.457-37.544 15.457-15.457 37.544-15.457h640q22.087 0 37.544 15.457 15.457 15.457 15.457 37.544 0 22.087-15.457 37.544Q822.087-83.824 800-83.824H160Z"/></svg>