<svg xmlns="http://www.w3.org/2000/svg" height="20" viewBox="0 -960 960 960" width="20"><path d="M440.609-107.824v-98.002h78.782v98.002h-78.782Zm0-646.35v-98.002h78.782v98.002h-78.782Zm156.782 646.35v-98.002h78.783v98.002h-78.783Zm0-646.35v-98.002h78.783v98.002h-78.783Zm156.783 646.35v-98.002h98.002v98.002h-98.002Zm0-646.35v-98.002h98.002v98.002h-98.002Zm-646.35 646.35v-98.002h87.392v-548.348h-87.392v-98.002h272.785v98.002h-87.392v548.348h87.392v98.002H107.824Zm581.699-209.523L620.435-387l44.564-43.999H416.347v-98.002h248.652L620.435-573l69.088-69.653L852.176-480 689.523-317.347Z"/></svg>