<svg xmlns="http://www.w3.org/2000/svg" height="20" viewBox="0 -960 960 960" width="20"><path d="M363.82-136q-17.451 0-28.943-11.588-11.493-11.589-11.493-28.719v-556.155q0-17.13 11.589-28.719 11.588-11.588 28.719-11.588h56.616v-10.924q0-17.13 11.588-28.719Q443.485-824 460.615-824h38.77q17.13 0 28.719 11.588 11.588 11.589 11.588 28.719v10.924h56.774q17.165 0 28.657 11.588 11.493 11.589 11.493 28.719v556.155q0 17.13-11.589 28.719Q613.439-136 596.308-136H363.82Zm115.996-269.231q6.723 0 11.453-4.6 4.731-4.6 4.731-11.4v-168q0-6.8-4.547-11.4-4.547-4.6-11.269-4.6-6.723 0-11.453 4.6-4.731 4.6-4.731 11.4v168q0 6.8 4.547 11.4 4.547 4.6 11.269 4.6Zm-.054 100.924q10.623 0 18.046-7.186t7.423-17.808q0-10.622-7.186-18.045-7.185-7.423-17.807-7.423-10.623 0-18.046 7.186-7.423 7.185-7.423 17.807t7.186 18.046q7.185 7.423 17.807 7.423Z"/></svg>