<svg xmlns="http://www.w3.org/2000/svg" height="24" viewBox="0 -960 960 960" width="24"><path d="M309.826-60.782q-22.088 0-37.544-15.456-15.457-15.457-15.457-37.544v-652.436q0-22.087 15.457-37.544 15.456-15.456 37.544-15.456h77.173v-27q0-22.087 15.457-37.544 15.457-15.456 37.544-15.456h80q22.087 0 37.544 15.456 15.457 15.457 15.457 37.544v27h77.173q22.088 0 37.544 15.456 15.457 15.457 15.457 37.544v652.436q0 22.087-15.457 37.544-15.456 15.456-37.544 15.456H309.826ZM480-394.348q20.957 0 35.566-14.608 14.608-14.609 14.608-35.566v-160q0-20.957-14.608-35.566-14.609-14.608-35.566-14.608t-35.566 14.608q-14.608 14.609-14.608 35.566v160q0 20.957 14.608 35.566 14.609 14.608 35.566 14.608Zm0 169.044q20.957 0 35.566-14.608 14.608-14.609 14.608-35.566t-14.608-35.566Q500.957-325.652 480-325.652t-35.566 14.608q-14.608 14.609-14.608 35.566t14.608 35.566q14.609 14.608 35.566 14.608Z"/></svg>