<svg xmlns="http://www.w3.org/2000/svg" height="20" viewBox="0 -960 960 960" width="20"><path d="M372.166-148q-16.566 0-27.366-10.925T334-186v-543q0-16.15 10.925-27.075T372-767h52v-7q0-16.15 10.925-27.075T462-812h36q16.15 0 27.075 10.925T536-774v7h52.206q16.194 0 26.994 10.925T626-729v543q0 16.15-10.925 27.075T588-148H372.166Zm107.659-260q4.175 0 7.175-2.875t3-7.125v-168q0-4.25-2.825-7.125-2.824-2.875-7-2.875-4.175 0-7.175 2.875T470-586v168q0 4.25 2.825 7.125 2.824 2.875 7 2.875Zm-.071 88q9.246 0 15.746-6.254 6.5-6.255 6.5-15.5 0-9.246-6.254-15.746-6.255-6.5-15.5-6.5-9.246 0-15.746 6.254-6.5 6.255-6.5 15.5 0 9.246 6.254 15.746 6.255 6.5 15.5 6.5Z"/></svg>