<svg xmlns="http://www.w3.org/2000/svg" height="20" viewBox="0 -960 960 960" width="20"><path d="M218-154v-324q-56-1-94-35.5T77-598q0-4.25 2.825-7.125 2.824-2.875 7-2.875Q91-608 94-605.125T97-598q12 41 43.5 68.5T215-502h51v-134q-35-12-58-41t-35-64q0-4.25 2.825-7.125 2.824-2.875 7-2.875 4.175 0 7.175 2.875t3 7.125q12 38 42 66t62 28h13l145-190q5.517-6 11.836-9 6.318-3 13.008-3 6.69 0 12.923 3T505-837l145 189h13q32 0 62-28t42-66q0-4.25 2.825-7.125 2.824-2.875 7-2.875 4.175 0 7.175 2.875t3 7.125q-8 34-31.5 63.5T694-636v134h51q42 0 73.5-27.5T863-598q0-4.25 2.825-7.125 2.824-2.875 7-2.875 4.175 0 7.175 2.875t3 7.125q-8 50-45.5 85T742-478v324q0 12.65-9.675 22.325Q722.65-122 710-122H580q-11.05 0-18.525-7.475Q554-136.95 554-148v-92q0-30.4-21.8-52.2Q510.4-314 480-314q-30.4 0-52.2 21.8Q406-270.4 406-240v92q0 11.05-7.475 18.525Q391.05-122 380-122H250q-12.65 0-22.325-9.675Q218-141.35 218-154Zm116-492h292L480-837 334-646Zm-48 144h388v-124H286v124Zm-48 360h148v-98q0-39.167 27.382-66.583Q440.765-334 479.882-334 519-334 546.5-306.583 574-279.167 574-240v98h148v-340H238v340Zm242-339Zm0-167Zm0 147Z"/></svg>