<svg xmlns="http://www.w3.org/2000/svg" height="24" viewBox="0 -960 960 960" width="24"><path d="M166.783-60.782q-44.305 0-75.153-30.848-30.848-30.848-30.848-75.153v-626.434q0-44.305 30.848-75.153 30.848-30.848 75.153-30.848h626.434q44.305 0 75.153 30.848 30.848 30.848 30.848 75.153v626.434q0 44.305-30.848 75.153-30.848 30.848-75.153 30.848H166.783Zm0-106.001h626.434v-626.434H166.783v626.434ZM295.827-240h368.346q36.731 0 62.887-25.761 26.157-25.761 26.157-62.718V-460q0-28.13-13.5-52.139-13.5-24.009-36.5-38.948v-42.695q0-53.769-37.638-91.406-37.638-37.638-91.406-37.638H385.827q-53.768 0-91.406 37.638-37.638 37.637-37.638 91.406v42.695q-23 14.939-36.5 38.948T206.783-460v131.521q0 36.957 26.157 62.718Q259.096-240 295.827-240Zm0-68.479q-9 0-14.5-5.5t-5.5-14.5V-460q0-17 11.5-28.5t28.5-11.5q17 0 28.5 11.5t11.5 28.5v88.479h248.346V-460q0-17 11.5-28.5t28.5-11.5q17 0 28.5 11.5t11.5 28.5v131.521q0 9-5.5 14.5t-14.5 5.5H295.827ZM424.306-440v-20q0-45.783-30.24-75.196-30.239-29.413-68.239-31.358v-27.228q0-26 17-43t43-17h188.346q26 0 43 17t17 43v27.228q-38 1.945-68.239 31.358-30.24 29.413-30.24 75.196v20H424.306ZM166.783-166.783v-626.434 626.434Z"/></svg>