<svg xmlns="http://www.w3.org/2000/svg" height="20" viewBox="0 -960 960 960" width="20"><path d="M456-376q-13.6 0-22.8-9.2-9.2-9.2-9.2-22.8v-144q0-13.6 9.2-22.8 9.2-9.2 22.8-9.2h96q13.6 0 22.8 9.2 9.2 9.2 9.2 22.8v144q0 13.6-9.2 22.8-9.2 9.2-22.8 9.2h-96Zm32-64h32v-80h-32v80Zm176 128v-72q0-13.6 9.2-22.8 9.2-9.2 22.8-9.2h64v-8h-65.33q-13.67 0-22.17-8.726-8.5-8.726-8.5-23.051 0-13.223 8.767-22.723 8.766-9.5 23.542-9.5H792q13.175 0 22.088 9.3Q823-469.4 824-456v72q1 13.4-8.487 22.7Q806.025-352 792-352h-64v8h64q13.6 0 22.8 9.2 9.2 9.2 9.2 22.8 0 14.467-9.6 23.233Q804.8-280 792-280h-96q-14.467 0-23.233-8.767Q664-297.533 664-312Zm-449-64q-13.975 0-22.488-8.8Q184-393.6 184-408v-144q0-13.6 8.512-22.8Q201.025-584 215-584h96q13.6 0 22.8 9.2 9.2 9.2 9.2 22.8v32.636q0 13.881-9.502 22.623Q323.995-488 311.326-488 297-488 288.5-496.767 280-505.533 280-520h-33v80h33q0-12.6 8.524-21.8 8.524-9.2 22.539-9.2 12.937 0 22.437 9.3 9.5 9.3 9.5 21.7v32q0 14.4-9.2 23.2-9.2 8.8-22.8 8.8h-96Z"/></svg>