<svg xmlns="http://www.w3.org/2000/svg" height="24" viewBox="0 -960 960 960" width="24"><path d="M443.077-372.308q-12.385 0-21.577-9.192-9.192-9.192-9.192-21.577v-153.846q0-12.385 9.192-21.577 9.192-9.192 21.577-9.192h113.846q12.385 0 21.577 9.192 9.192 9.192 9.192 21.577v153.846q0 12.385-9.192 21.577-9.192 9.192-21.577 9.192H443.077Zm4.615-35.384h104.616v-144.616H447.692v144.616ZM692.308-270v-74.615q0-12.385 9.192-21.577 9.192-9.193 21.577-9.193h89.231v-56.923H709.769q-7.384 0-12.423-5.038-5.038-5.039-5.038-12.654 0-7.385 5.038-12.539 5.039-5.153 12.654-5.153h106.923q12.385 0 21.577 9.192 9.192 9.192 9.192 21.577v61.538q0 12.385-9.192 21.577-9.192 9.193-21.577 9.193h-89.231v56.923H830q7.385 0 12.539 5.153 5.153 5.154 5.153 12.539 0 7.615-5.153 12.654-5.154 5.038-12.539 5.038H710q-7.615 0-12.654-5.038-5.038-5.039-5.038-12.654ZM163.077-372.308q-12.385 0-21.577-9.192-9.192-9.192-9.192-21.577v-153.846q0-12.385 9.192-21.577 9.192-9.192 21.577-9.192h113.846q12.385 0 21.577 9.192 9.192 9.192 9.192 21.577v33.308q0 6.615-5.153 11.653-5.154 5.039-12.539 5.039-7.615 0-12.654-5.039-5.038-5.038-5.038-12.653v-27.693H167.692v144.616h104.616v-27.693q0-7.384 5.038-12.538 5.039-5.154 12.654-5.154 7.385 0 12.539 5.154 5.153 5.154 5.153 12.538v32.308q0 12.385-9.192 21.577-9.192 9.192-21.577 9.192H163.077Z"/></svg>