<svg xmlns="http://www.w3.org/2000/svg" height="20" viewBox="0 -960 960 960" width="20"><path d="M136-168h466.462v5.02q0 10.596-8.043 18.788Q586.377-136 575.692-136H162.769q-10.685 0-18.727-8.042T136-162.769V-168Zm0-87.385v-5.02q0-10.595 8.042-18.787 8.042-8.193 18.727-8.193h134.462v-9.636q0-11.941 8.113-20.229 8.113-8.289 20.107-8.289h87.209q11.994 0 20.282 8.139 8.289 8.138 8.289 20.169v9.846h134.461q10.685 0 18.727 8.043 8.043 8.042 8.043 18.727v5.23H136Zm587.385-132.23q-32.308-7.616-52.001-43.385-19.692-35.769-19.692-70.231v-294.462q0-12.03 8.139-20.169Q667.969-824 680-824h115.693q12.03 0 20.169 8.138Q824-807.723 824-795.693v294.462q0 34.462-18.538 69.847-18.539 35.384-50.077 43.769V-168H808q6.8 0 11.4 4.547 4.6 4.548 4.6 11.27 0 6.722-4.6 11.452Q814.8-136 808-136h-56.308q-12.031 0-20.169-8.138-8.138-8.139-8.138-20.169v-223.308Zm-39.693-221H792V-792H683.692v183.385Zm55.693 193.384q23-7.077 37.807-32 14.808-24.923 14.808-54v-75.384H683.692v75.384q0 29.077 17.116 54 17.115 24.923 38.577 32Zm-1.539 0Z"/></svg>