<svg xmlns="http://www.w3.org/2000/svg" height="24" viewBox="0 -960 960 960" width="24"><path d="m864-310-20-20q29.852-29.538 45.926-68.734Q906-437.929 906-479.965 906-522 890-561t-45-69l19-20q34 34 52 78t18 92q0 48-18 92t-52 78Zm-107-80-21-20q14-14 22-31.756T766-480q0-20.488-8-38.244T736-550l21-20q18.089 18.36 27.544 41.309 9.456 22.95 9.456 48.82 0 25.871-9.456 48.728Q775.089-408.286 757-390ZM480.148-106Q408-106 357-156.895T306-280v-400q0-72.21 50.852-123.105Q407.703-854 479.852-854 552-854 603-803.105T654-680v400q0 72.21-50.852 123.105Q552.297-106 480.148-106ZM480-246q30.525 0 52.263-21.737Q554-289.475 554-320t-21.737-52.263Q510.525-394 480-394t-52.263 21.737Q406-350.525 406-320t21.737 52.263Q449.475-246 480-246Zm0-28q-19 0-32.5-13.5T434-320q0-19 13.5-32.5T480-366q19 0 32.5 13.5T526-320q0 19-13.5 32.5T480-274Zm0-292q30.525 0 52.263-21.737Q554-609.475 554-640t-21.737-52.263Q510.525-714 480-714t-52.263 21.737Q406-670.525 406-640t21.737 52.263Q449.475-566 480-566Z"/></svg>