<svg xmlns="http://www.w3.org/2000/svg" height="20" viewBox="0 -960 960 960" width="20"><path d="m869.154-306.846-23.308-23.308q30.963-29.722 46.558-68.799Q908-438.029 908-479.938q0-41.908-16.057-80.959t-45.328-68.949l22.539-23.308q34.923 33.923 52.885 79.346Q940-528.385 940-480q0 48.385-17.961 93.808-17.962 45.423-52.885 79.346Zm-85-85-23.308-23.308q12.808-13.308 19.981-29.966Q788-461.779 788-480q0-18.221-7.173-34.88-7.173-16.658-19.981-29.966l23.308-23.308q16.991 17.2 26.419 40.2Q820-504.955 820-479.9q0 25.054-9.427 47.982-9.428 22.929-26.419 40.072ZM479.888-116q-71.427 0-121.657-50.337Q308-216.675 308-288.094v-384.187q0-71.419 50.343-121.569Q408.685-844 480.112-844t121.657 50.337Q652-743.325 652-671.906v384.187q0 71.419-50.343 121.569Q551.315-116 479.888-116Zm.324-128.615q27.884 0 47.528-19.857 19.645-19.857 19.645-47.74 0-27.884-19.857-47.528-19.857-19.645-47.74-19.645-27.884 0-47.528 19.857-19.645 19.857-19.645 47.74 0 27.884 19.857 47.528 19.857 19.645 47.74 19.645Zm-.001-26.77q-16.749 0-28.788-11.828-12.038-11.827-12.038-28.576 0-16.749 11.828-28.788 11.827-12.038 28.576-12.038 16.749 0 28.788 11.828 12.038 11.827 12.038 28.576 0 16.749-11.828 28.788-11.827 12.038-28.576 12.038Zm.001-309.23q27.884 0 47.528-19.857 19.645-19.857 19.645-47.74 0-27.884-19.857-47.528-19.857-19.645-47.74-19.645-27.884 0-47.528 19.857-19.645 19.857-19.645 47.74 0 27.884 19.857 47.528 19.857 19.645 47.74 19.645Z"/></svg>