<svg xmlns="http://www.w3.org/2000/svg" height="24" viewBox="0 -960 960 960" width="24"><path d="m868.154-305.846-28.308-28.308q28.963-28.722 44.558-66.834Q900-439.099 900-479.973q0-40.873-15.539-78.835-15.538-37.961-43.846-67.038l27.539-28.308q34.923 34.923 53.385 79.846Q940-529.385 940-480q0 49.385-18.461 94.308-18.462 44.923-53.385 79.846Zm-107-80-29.308-28.308q13.308-13.308 20.731-29.966Q760-460.779 760-480q0-19.221-7.423-35.88-7.423-16.658-20.731-29.966l29.308-28.308q18.991 19.2 28.919 43.2Q800-506.955 800-479.9q0 27.054-9.927 50.982-9.928 23.929-28.919 43.072ZM480.114-100q-74.653 0-127.383-52.65Q300-205.3 300-280v-400q0-74.7 52.617-127.35Q405.233-860 479.886-860t127.383 52.65Q660-754.7 660-680v400q0 74.7-52.617 127.35Q554.767-100 480.114-100ZM480-244.615q31.096 0 53.24-22.145 22.145-22.144 22.145-53.24 0-31.096-22.145-53.24-22.144-22.145-53.24-22.145-31.096 0-53.24 22.145-22.145 22.144-22.145 53.24 0 31.096 22.145 53.24 22.144 22.145 53.24 22.145Zm0-30.77q-18.538 0-31.577-13.038-13.038-13.039-13.038-31.577 0-18.538 13.038-31.577 13.039-13.038 31.577-13.038 18.538 0 31.577 13.038 13.038 13.039 13.038 31.577 0 18.538-13.038 31.577-13.039 13.038-31.577 13.038Zm0-289.23q31.096 0 53.24-22.145 22.145-22.144 22.145-53.24 0-31.096-22.145-53.24-22.144-22.145-53.24-22.145-31.096 0-53.24 22.145-22.145 22.144-22.145 53.24 0 31.096 22.145 53.24 22.144 22.145 53.24 22.145Z"/></svg>