<svg xmlns="http://www.w3.org/2000/svg" height="20" viewBox="0 -960 960 960" width="20"><path d="M822.218-425.217q-25.653 0-43.327-17.674t-17.674-43.327v-240q0-25.652 17.674-43.326t43.327-17.674q25.652 0 43.326 17.674t17.674 43.326v240q0 25.653-17.674 43.327t-43.326 17.674ZM306.695-147.391q-15.13 0-28.13-5.283-13-5.283-25.696-17.978L90.39-329.174Q79-340.001 78.933-354.305q-.065-14.305 10.327-26.827l-1.696 1.131q16.261-18.392 38.87-21.827 22.609-3.434 47.696 5.261l105.391 36.827v-406.434q0-28.957 19.761-48.718 19.761-19.761 48.718-19.761 28.957 0 48.718 19.761 19.761 19.761 19.761 48.718v222.912h80q1.13 0 .848-.282l.282.282 136.087 67.478q24.391 12.696 35.109 36.781 10.717 24.086 6.152 50.959l-31.261 175q-5.157 28.913-28.188 47.283-23.03 18.37-51.856 18.37H306.695ZM318-227.87l-50-50 68 22v-494.783q0-5.4 3.3-8.7 3.3-3.3 8.7-3.3 5.4 0 8.7 3.3 3.3 3.3 3.3 8.7v282.783h111l130 63-31 178-252-1Z"/></svg>