<svg xmlns="http://www.w3.org/2000/svg" height="20" viewBox="0 -960 960 960" width="20"><path d="M827-420q-30 0-50.5-20.5T756-491v-240q0-30 20.5-50.5T827-802q30 0 50.5 20.5T898-731v240q0 30-20.5 50.5T827-420ZM298-150q-16 0-29-5.5T242-175L73-337q-14-13-14.5-31T71-402l-3 2q18-21 43-24t54 7l108 39v-396q0-32 21.5-53.5T348-849q32 0 53.5 21.5T423-774v219h80q2 0 1.5-.5l.5.5 130 64q27 14 37.5 40.042Q683-424.917 678-395l-33 175q-5.592 31.087-30.796 50.543Q589-150 558-150H298Zm20-87-50-50 68 22v-500q0-5.4 3.3-8.7 3.3-3.3 8.7-3.3 5.4 0 8.7 3.3 3.3 3.3 3.3 8.7v288h111l130 63-31 178-252-1Z"/></svg>