<svg xmlns="http://www.w3.org/2000/svg" height="20" viewBox="0 -960 960 960" width="20"><path d="M800.615-473.538q-9.23 0-16.307-7.077-7.077-7.077-7.077-16.308v-207.692q0-9.231 7.077-16.308T800.615-728q9.231 0 16.308 7.077T824-704.615v207.692q0 9.231-7.077 16.308t-16.308 7.077ZM298-184q-4.769 0-7.769-1.923t-9.385-8.308L131.461-335.923q-6.461-5.692-5.961-11.731.5-6.038 5.961-12.5l-3.846 3.846q11.693-12.692 27.346-15.923 15.654-3.231 31.039 3.769L297.231-336v-389.231q0-21.154 14.807-35.962Q326.846-776 348-776q21.154 0 35.962 14.807 14.807 14.808 14.807 35.962v206.462h84.616q-3.077 0-8.077-.77-5-.769-8.846-2.307l111.692 55.077q25.616 14.077 37 41.388Q626.539-398.071 621-369l-31.307 161.154q-2.285 10.702-11.335 17.274-9.05 6.572-20.435 6.572H298Zm20-32-50-48.462L336-244v-488q0-5.4 3.3-8.7 3.3-3.3 8.7-3.3 5.4 0 8.7 3.3 3.3 3.3 3.3 8.7v276h111l97.693 47.615q17.692 8.462 23.076 26.154 5.385 17.692 1.539 33.846L570-215l-252-1Z"/></svg>