<svg xmlns="http://www.w3.org/2000/svg" height="24" viewBox="0 -960 960 960" width="24"><path d="M804.615-481.538q-14.23 0-24.807-10.577-10.577-10.577-10.577-24.808v-207.692q0-14.231 10.577-24.808T804.615-760q14.231 0 24.808 10.577T840-724.615v207.692q0 14.231-10.577 24.808t-24.808 10.577ZM313.308-160q-8.539 0-16-3.423-7.462-3.423-13.847-9.808L125.692-330.692q-9.462-9.693-9.462-22.616t9.462-22.615l7.231-7.462q6.308-6.308 13.923-9.231t15.846-.461l128.846 28.307V-740q0-25.077 17.462-42.539Q326.461-800 351.538-800q25.077 0 42.539 17.461 17.462 17.462 17.462 42.539v204.615h38.307q4.231 0 7.846 1 3.616 1 7.077 3l129.693 57q28.615 13.308 40.615 43.077 12 29.769 6.231 61.154l-30.846 177.769Q607.769-178 596.808-169q-10.962 9-26.116 9H313.308Zm.23-40h257.154l30.846-178q3.077-16.154-1.923-33.846-5-17.692-22.692-26.154l-135.385-60.385h-70V-740q0-9-5.5-14.5t-14.5-5.5q-9 0-14.5 5.5t-5.5 14.5v424l-171.615-37.308L313.538-200Zm0 0H568.385 313.538Z"/></svg>