<svg xmlns="http://www.w3.org/2000/svg" height="24" viewBox="0 -960 960 960" width="24"><path d="M162.538-165.384 43.692-281.769l25.385-26.385q84.231-87.154 193.654-129.5Q372.154-480 480-480t216.269 42.846q108.423 42.846 193.885 129l26.154 26.385-118.846 116.385L660-269.231v-138.615q-45.692-15.846-91.077-24T480-440q-43.538 0-88.923 8.154-45.385 8.154-91.077 24v138.615L162.538-165.384ZM260-392.769q-45.154 21.154-86.769 49.5T100.308-284l66.154 66.154L260-289.231v-103.538Zm440 .462v101.538l93.538 72.923L861.231-282q-36.693-33.692-76-61.154-39.308-27.461-85.231-49.153Zm-440-.462Zm440 .462ZM480.308-532.154 280.769-731.692V-600h-40v-200h200v40H309.077l171 171L693-801.923l28.539 28.538-241.231 241.231Z"/></svg>