<svg xmlns="http://www.w3.org/2000/svg" height="20" viewBox="0 -960 960 960" width="20"><path d="M169.538-165.384 54.692-282.769l27.385-30.385q76.461-77.923 179.269-122.384Q364.154-480 480-480q114.846 0 217.654 44.462 102.808 44.461 178.5 122.384l29.154 30.385-114.846 117.385L644-269.231v-150.615q-42.692-14.846-83.577-21.5T480-448q-39.538 0-80.423 6.654-40.885 6.654-83.577 21.5v150.615L169.538-165.384Zm312.77-385.77L312.769-720.692V-624h-32v-152h152v32h-96.692l147 147L659-772.923l22.539 22.538-199.231 199.231Z"/></svg>