<svg xmlns="http://www.w3.org/2000/svg" height="20" viewBox="0 -960 960 960" width="20"><path d="M526.999-435.521q18.392 0 30.87-13.261 12.479-13.261 12.479-30.088 0-3.434.282-7.217.283-3.783-1.152-6.783 11.565-4.695 19.565-15.326 8-10.63 8-24.761 0-18.391-12.478-30.87-12.478-12.478-30.87-12.478-13.13 0-23.261 6.783-10.13 6.782-15.826 16.782L405.13-597.261q2-4.565 3.283-9.13 1.283-4.566 1.283-10.131 0-18.391-12.479-30.87-12.478-12.478-30.869-12.478-16.827 0-30.088 12.478-13.261 12.479-13.261 30.87 0 2.435-.065 5.37-.065 2.934 1.37 5.934-13.261 4.131-22.109 15.609-8.848 11.479-8.848 26.174 0 16.826 13.261 30.087t30.087 13.261q13.131 0 23.261-6.782 10.131-6.783 15.826-17.783L488.651-498q-1 2-5 19.13 0 16.827 13.261 30.088t30.087 13.261ZM387.173-96.565q-15.435-41.609-21.087-83.565-5.652-41.957-7.152-80.261-1.5-38.304.5-70.239 2-31.935 4.435-53.5h-.283.283q-21.565-4.565-48.283-12.63-26.717-8.066-56.087-20.566-29.369-12.5-60.456-31.217-31.087-18.717-62.391-43.022L183.13-565q39.435 35 81.935 55t77.218 30.5Q377-469 399.5-465.5L422-462q17 .565 26.5 13.283Q458-436 455-419l-4.5 30.5Q446-358 445-311t6 104q7 57 29 111l-92.827-.565ZM734.696-96H648v-401q0-45-24-82.5T558-636L296.87-753.87l47.043-75.131 250.305 113.435q64.522 28.696 102.5 88.153Q734.696-567.957 734.696-497v401ZM480-96q-22-54-29-111t-6-104q1-47 5.5-77.5L455-419q3-17-6.5-29.717Q439-461.435 422-462l-22.5-3.5q-22.5-3.5-57.217-14-34.718-10.5-77.218-30.5t-81.935-55q39.435 35 81.935 55t77.218 30.5Q377-469 399.5-465.5L422-462q17 .565 26.5 13.283Q458-436 455-419l-4.5 30.5Q446-358 445-311t6 104q7 57 29 111Z"/></svg>