<svg xmlns="http://www.w3.org/2000/svg" height="20" viewBox="0 -960 960 960" width="20"><path d="M527.499-435.521q17.892 0 30.37-13.261 12.479-13.261 12.479-30.088 0 2.261-.87-14 11.565-4.695 19.565-15.523 8-10.827 8-24.564 0-18.691-12.393-31.02-12.394-12.328-31.181-12.328-12.904 0-23.035 6.783-10.13 6.782-15.826 16.782L405.13-597.261q2.566-3.565 4.566-19.261 0-18.691-12.329-31.02-12.328-12.328-31.019-12.328-16.827 0-30.088 12.328-13.261 12.329-13.261 31.02 0 .435 1.305 11.304-13.261 4.131-22.109 15.521-8.848 11.39-8.848 26.262 0 16.826 13.261 30.087t30.345 13.261q12.873 0 23.17-6.949 10.297-6.949 15.659-17.616L488.651-498q-1 2-5 19.13 0 16.827 13.261 30.088t30.587 13.261Zm-390.847-56.044 207.261-337.436 250.305 113.435q64.437 28.842 102.458 88.027 38.02 59.185 38.02 130.539v401l-347.523-.565q-15.435-41.609-20.987-83.772-5.552-42.162-7.152-80.26-1.6-38.098.4-70.033 2-31.935 4.435-53.189h-.283.283q-21.565-4.876-48.148-12.758-26.582-7.883-56.086-20.566-29.505-12.683-60.592-31.4t-62.391-43.022Z"/></svg>