<svg xmlns="http://www.w3.org/2000/svg" height="24" viewBox="0 -960 960 960" width="24"><path d="M526.999-431.521q20.392 0 33.87-13.761 13.479-13.761 13.479-33.588 0-3.739-4.87-23 11.565-5.695 19.065-16.826 7.5-11.13 7.5-25.261 0-20.391-13.478-33.87-13.478-13.478-33.87-13.478-14.13 0-25.261 7.283-11.13 7.282-16.826 19.282L378.13-626.261q1.566-3.565 3.566-18.261 0-20.391-13.479-33.87-13.478-13.478-33.869-13.478-19.827 0-33.588 13.478-13.761 13.479-13.761 33.87 0 5.435 5.305 20.304-13.261 5.131-22.109 17.109-8.848 11.979-8.848 27.674 0 19.826 13.761 33.587 13.761 13.761 33.587 13.761 15.131 0 26.261-7.782 11.131-7.783 16.826-19.783L483.651-497l-4 18.13q0 19.827 13.761 33.588t33.587 13.761Zm-415.347-56.044 258.261-364.436 255.305 116.435q68.522 30.696 109 93.653Q774.696-578.957 774.696-503v423l-396.523-.565q-15.435-43.609-22.587-86.565-7.152-42.957-9.152-81.761-2-38.804-.5-72.239t3.935-58h-.283.283q-22.565-5.565-50.783-13.63-28.217-8.066-59.587-21.066-31.369-13-63.956-31.217t-63.891-42.522Z"/></svg>