<svg xmlns="http://www.w3.org/2000/svg" height="20" viewBox="0 -960 960 960" width="20"><path d="M325.826-69.999q-25.488 0-43.244-17.756-17.757-17.757-17.757-43.244v-626.002q0-25.487 17.757-43.244 17.756-17.756 43.244-17.756l69.173 6.783v-11q0-25.487 17.757-43.244 17.757-17.756 43.244-17.756h48q25.487 0 43.244 17.756 17.757 17.757 17.757 43.244v11l69.173-6.783q25.488 0 43.244 17.756 17.757 17.757 17.757 43.244v626.002q0 25.487-17.757 43.244Q659.662-70 634.174-70H325.826Zm37-415.653h234.348v-227.565H362.826v227.565Z"/></svg>