<svg xmlns="http://www.w3.org/2000/svg" height="24" viewBox="0 -960 960 960" width="24"><path d="M309.826-59.651q-22.088 0-37.544-15.457-15.457-15.457-15.457-37.544v-654.696q0-22.087 15.457-37.544 15.456-15.457 37.544-15.457l77.173 1.131v-27q0-22.087 15.457-37.544 15.457-15.456 37.544-15.456h80q22.087 0 37.544 15.456 15.457 15.457 15.457 37.544v27l77.173-1.131q22.088 0 37.544 15.457 15.457 15.457 15.457 37.544v654.696q0 22.087-15.457 37.544-15.456 15.457-37.544 15.457H309.826Zm53-426.001h234.348v-227.565H362.826v227.565Z"/></svg>