<svg xmlns="http://www.w3.org/2000/svg" height="20" viewBox="0 -960 960 960" width="20"><path d="M827.263-628.886q.619.04.286.463-.333.423.657.423 2.09 0 3.442 1.493 1.352 1.492 1.352 3.674 0 2.833-1.077 4.42-1.077 1.587-3.923 2.413-9 7-13 18.287-4 11.287-4 22.713 0 11 5 24t15 21q.133.113 1.067 1.026.933.914.933 1.988 0 2.042-1.843 3.514-1.842 1.472-3.324 1.472-.833 0-.42.423t-.15.463Q816-530 809.5-545q-6.5-15-6.5-30 0-17 6.5-31t17.763-22.886ZM727.871-745.22q1.049-.626 1.791-.203t1.576.423q1.762 0 3.262 1.418t1.5 3.491q0 1.091-.533 2.569-.534 1.478-1.467 2.522-35 31-54 73t-19 87q0 45 19.5 86.5t54.48 72.904q.887.478 1.953 1.828 1.067 1.35 1.067 2.938 0 2.858-2.42 4.844-2.42 1.986-4.693 1.986-1.887 0-2.432-.077-.546-.077-1.584-.703-35.937-32.804-55.904-77.512Q651-527 651-575.676q0-48.677 20.5-92.501Q692-712 727.871-745.22ZM369-484q-38.55 0-65.275-26.725Q277-537.45 277-575.867q0-38.417 26.725-65.275Q330.45-668 369-668q38.55 0 65.275 26.858Q461-614.284 461-575.867t-26.725 65.142Q407.55-484 369-484ZM133-258v-15q0-17 9-25.5t24-17.5q51-29 106.5-43t96.5-14q40 0 95.5 13.5T572-316q14 9 23.5 18t9.5 25v15q0 9.7-6.162 15.85T582.96-236H154.717Q145-236 139-242.15T133-258Z"/></svg>