<svg xmlns="http://www.w3.org/2000/svg" height="24" viewBox="0 -960 960 960" width="24"><path d="M174 0q-20.4 0-34.2-13.8Q126-27.6 126-48q0-20.4 13.8-34.2Q153.6-96 174-96h195v-40H93.514Q74-136 60-149.8 46-163.6 46-184q0-20.4 13.8-34.2Q73.6-232 94-232h275v-40H47.519Q28-272 14-285.8T0-320q0-20.4 13.8-34.2Q27.6-368 48-368h321v-40H133.977Q114-408 100-421.8 86-435.6 86-456q0-20.4 13.8-34.2Q113.6-504 134-504h257l-22-39q-16-28-12-58.5t27-53.5q11-11 25.5-12t26.5 8l242 181q24 18 37.5 45t13.5 57v248q0 54-37 91T601 0H174Zm64-543-18-13q-17-12-19.5-31.13Q198-606.261 210-623q11.905-17.111 30.952-19.556Q260-645 277-633l22 17q-3 18-2 36.5t7 36.5h-66Zm75-114-76-56q-17.111-11.905-19.556-30.952Q215-763 226.923-780.062q11.923-17.063 31-19.5Q277-802 294.419-790L384-724q-24 8-42 26t-29 41Zm475 266q-3-40-22.604-75.361Q745.791-501.722 714-526L534-661 281-850q-17.111-11.905-19.556-30.952Q259-900 271-917q12-17 31.13-19.5Q321.261-939 338-927l258 192 24-32-189-140q-17-12-19-31t9.923-36.062q11.923-17.063 31-19.5Q472-996 489-984l206 153 5-44q4-32 25.5-54t53.5-27q15.341-2 27.614 6 12.272 8 17.386 22l85 290q8 28.528 2.947 58.113Q906.895-550.302 889-526L788-391Z"/></svg>