<svg xmlns="http://www.w3.org/2000/svg" height="24" viewBox="0 -960 960 960" width="24"><path d="M290.565-831.306q-15.759-11.076-18.01-28.799-2.251-17.723 8.879-33.418 11.131-15.696 28.9-18.196 17.77-2.5 33.318 8.63l207.261 154.74q15.131 11.131 17.696 29.392 2.565 18.261-8.63 33.497-11.196 15.237-29.109 17.413-17.913 2.177-33.044-8.954L290.565-831.306Zm-42.261 129.61q-15.759-11.077-18.01-28.8-2.251-17.722 8.836-33.453 11.087-15.732 28.826-17.979t33.671 8.883l81.938 61.218q-20.956 7.131-38.739 22.739-17.783 15.609-28.783 37.305l-67.739-49.913Zm393.957 132.13ZM434.478-884.828q-15.696-11.13-17.913-28.826-2.217-17.696 8.87-33.427 11.087-15.731 28.826-17.978 17.739-2.247 33.435 8.883l201.652 149.957 6.739-54.869q3.565-28.522 22.674-48.348 19.109-19.826 47.196-24.392l2.609-.434q15.193-2 27.347 6 12.154 8 17.218 22l84.565 286.956q8 27.864 2.971 56.76-5.03 28.896-22.536 52.632l-94.044 125.435q-2-26.826-11.895-51.283-9.895-24.456-26.192-46.195l60.783-81.044q5.435-6.87 6.435-15.116 1-8.247-1-16.493l-41.783-142.651-2.608 16.955q-3.377 25.854-27.015 35.971-23.638 10.117-44.464-5.579l-261.87-194.914ZM251.912-538.652l-16.261-11.696q-15.696-11.131-18.196-28.9-2.5-17.77 8.631-33.318 11.077-15.758 28.799-18.01 17.723-2.251 33.419 8.88l12.87 10.044q-3.87 18-2.652 36.5 1.217 18.5 7.217 36.5h-53.827Zm-190 263.174q-18.922 0-31.722-12.8T17.39-320q0-18.922 12.8-31.722t31.722-12.8h258.653q18.922 0 31.722 12.8t12.8 31.722q0 18.922-12.8 31.722t-31.722 12.8H61.912Zm43.392 129.044q-18.922 0-31.722-12.8t-12.8-31.722q0-18.922 12.8-31.722t31.722-12.8h215.261q18.922 0 31.722 12.8t12.8 31.722q0 18.922-12.8 31.722t-31.722 12.8H105.304Zm80 129.044q-18.922 0-31.722-12.8t-12.8-31.722q0-18.922 12.8-31.722t31.722-12.8h415.261q15.078 0 25.278-10.2t10.2-25.278v-227.132q0-8.913-3.717-16.043-3.717-7.131-10.713-12.377l-118.917-89.188 8.261 15.217q12.695 22.826-.218 44.869-12.913 22.044-38.739 22.044H145.304q-18.922 0-31.722-12.8t-12.8-31.722q0-18.922 12.8-31.722t31.722-12.8h251.348l-27.217-48.13q-14.261-24.956-10.913-52.413 3.348-27.457 23.739-47.848l1.739-1.739q11-11 25.5-11.783 14.5-.783 26.664 8.355l239.227 178.689q23.566 17.565 36.631 43.695 13.065 26.131 13.065 55.696v227.132q0 52.26-36.13 88.391-36.131 36.13-88.392 36.13H185.304Zm315.261-239.436Z"/></svg>