<svg xmlns="http://www.w3.org/2000/svg" height="20" viewBox="0 -960 960 960" width="20"><path d="M117.999-528v-314.001H432V-528H117.999ZM216-626.001h117.999V-744H216v117.999Zm-98.001 508.002V-432H432v314.001H117.999ZM216-216h117.999v-117.999H216V-216Zm312-312v-314.001h314.001V-528H528Zm98.001-98.001H744V-744H626.001v117.999Zm137.783 508.002v-78.783h78.217v78.783h-78.217ZM528-353.782V-432h78.783v78.218H528Zm78.783 78.783v-78.783h78.218v78.783h-78.218ZM528-196.782v-78.217h78.783v78.217H528Zm78.783 78.783v-78.783h78.218v78.783h-78.218Zm78.218-78.783v-78.217h78.783v78.217h-78.783Zm0-157V-432h78.783v78.218h-78.783Zm78.783 78.783v-78.783h78.217v78.783h-78.217Z"/></svg>