<svg xmlns="http://www.w3.org/2000/svg" height="20" viewBox="0 -960 960 960" width="20"><path d="M164.001-528v-267.999H432V-528H164.001ZM216-579.999h164.001V-744H216v164.001Zm-51.999 415.998V-432H432v267.999H164.001ZM216-216h164.001v-164.001H216V-216Zm312-312v-267.999h267.999V-528H528Zm51.999-51.999H744V-744H579.999v164.001Zm149 415.998v-67h67v67h-67ZM528-365v-67h67v67h-67Zm67 66.999V-365h66.999v66.999H595Zm-67 67v-67h67v67h-67Zm67 67v-67h66.999v67H595Zm66.999-67v-67h67v67h-67Zm0-133.999v-67h67v67h-67Zm67 66.999V-365h67v66.999h-67Z"/></svg>