<svg xmlns="http://www.w3.org/2000/svg" height="24" viewBox="0 -960 960 960" width="24"><path d="M411.846-475.384q14.692 0 25.038-10.346t10.346-25.039q0-14.692-10.346-25.038t-25.038-10.346q-14.692 0-25.038 10.346t-10.346 25.038q0 14.693 10.346 25.039 10.346 10.346 25.038 10.346Zm-135.692 0q14.692 0 25.038-10.346t10.346-25.039q0-14.692-10.346-25.038t-25.038-10.346q-14.693 0-25.039 10.346-10.346 10.346-10.346 25.038 0 14.693 10.346 25.039 10.346 10.346 25.039 10.346Zm272 0q14.692 0 25.038-10.346t10.346-25.039q0-14.692-10.346-25.038t-25.038-10.346q-14.692 0-25.038 10.346t-10.346 25.038q0 14.693 10.346 25.039 10.346 10.346 25.038 10.346Zm135.692 0q14.693 0 25.039-10.346 10.346-10.346 10.346-25.039 0-14.692-10.346-25.038t-25.039-10.346q-14.692 0-25.038 10.346t-10.346 25.038q0 14.693 10.346 25.039 10.346 10.346 25.038 10.346ZM160-310.769h640v-400H160v400ZM480-170.77q-98.231 0-164.115-12.538-65.884-12.539-65.884-31.154v-36.308h-150v-519.997h759.998v519.997h-150v36.308q0 18.615-65.884 31.154Q578.231-170.77 480-170.77ZM160-310.769v-400 400Z"/></svg>