<svg xmlns="http://www.w3.org/2000/svg" height="20" viewBox="0 -960 960 960" width="20"><path d="M444-744v-51.999h72V-744h-72Zm0 579.999V-216h72v51.999h-72ZM294-744v-51.999h72V-744h-72Zm0 579.999V-216h72v51.999h-72ZM164.001-744v-51.999H216V-744h-51.999Zm0 579.999V-216H216v51.999h-51.999ZM293.77-350.232 164.001-480 293.77-609.768 330.922-573l-67 67.001H528v51.998H263.922l67 67.001-37.152 36.768ZM645.999-216H744v-528h-98.001v528ZM594-164.001v-631.998h201.999v631.998H594ZM645.999-216H744h-98.001Z"/></svg>