<svg xmlns="http://www.w3.org/2000/svg" height="20" viewBox="0 -960 960 960" width="20"><path d="M406-426q-12.4 0-21.2-8.8-8.8-8.8-8.8-21.2v-72q0-12.4 8.8-21.2 8.8-8.8 21.2-8.8 12.4 0 21.2 8.8 8.8 8.8 8.8 21.2v72q0 12.4-8.8 21.2-8.8 8.8-21.2 8.8Zm74 0q-12.4 0-21.2-8.767-8.8-8.767-8.8-21.116v-47.767q0-12.35 8.8-21.35 8.8-9 21.2-9 12.4 0 21.2 8.767 8.8 8.767 8.8 21.116v47.767q0 12.35-8.8 21.35-8.8 9-21.2 9Zm74 0q-12.4 0-21.2-8.8-8.8-8.8-8.8-21.2v-24q0-12.4 8.8-21.2 8.8-8.8 21.2-8.8 12.4 0 21.2 8.8 8.8 8.8 8.8 21.2v24q0 12.4-8.8 21.2-8.8 8.8-21.2 8.8ZM462-35q-41 0-72.5-25T348-123l-35-139q-47-37-77-93t-30-125q0-69 30.5-125t78.5-93l34-139q10-38 41.5-63t72.5-25h34q41 0 72.5 25t41.5 63l34 139q48 37 78.5 93T754-480q0 69-30 125t-77 93l-35 139q-10 38-41.5 63T498-35h-36Zm18.198-289Q545-324 590.5-369.698t45.5-110.5Q636-545 590.302-590.5t-110.5-45.5Q415-636 369.5-590.302t-45.5 110.5Q324-415 369.698-369.5t110.5 45.5ZM433-749q8-3 20.8-3.5t26-.5q13.2 0 25.7.5T526-749l-18-74h-56l-19 74Zm19 612h56l20-74q-8 2-21.196 3.5Q493.607-206 480-206q-14 0-26.5-1.5T433-211l19 74Zm-19-686h93-93Zm19 686h-19 95-76Z"/></svg>