<svg xmlns="http://www.w3.org/2000/svg" height="24" viewBox="0 -960 960 960" width="24"><path d="M402.343-404.615q-7.651 0-12.689-5.013-5.039-5.013-5.039-12.68v-115.384q0-7.667 5.003-12.68t12.654-5.013q7.651 0 12.69 5.013 5.038 5.013 5.038 12.68v115.384q0 7.667-5.003 12.68-5.002 5.013-12.654 5.013Zm77.693 0q-7.651 0-12.69-5.013-5.038-5.013-5.038-12.68v-75.384q0-7.667 5.002-12.68 5.003-5.013 12.654-5.013t12.69 5.013q5.038 5.013 5.038 12.68v75.384q0 7.667-5.002 12.68-5.003 5.013-12.654 5.013Zm77.692 0q-7.651 0-12.69-5.013-5.038-5.013-5.038-12.68v-35.384q0-7.667 5.003-12.68 5.002-5.013 12.654-5.013 7.651 0 12.689 5.013 5.039 5.013 5.039 12.68v35.384q0 7.667-5.003 12.68t-12.654 5.013ZM420.769-152.307q-13.532 0-24.723-8.179-11.19-8.179-15.354-21.898l-27-95.001q-50.308-29.538-82-83.461T240-480q0-65.231 31.692-119.154t82-83.461l27-95.001q4.164-13.719 15.354-21.898 11.191-8.179 24.723-8.179h118.462q13.532 0 24.723 8.179 11.19 8.179 15.354 21.898l27 95.001q50.308 29.538 82 83.461T720-480q0 65.231-31.692 119.154t-82 83.461l-27 95.001q-4.164 13.719-15.354 21.898-11.191 8.179-24.723 8.179H420.769ZM480-280q83 0 141.5-58.5T680-480q0-83-58.5-141.5T480-680q-83 0-141.5 58.5T280-480q0 83 58.5 141.5T480-280Zm-77.538-426.923q20.769-6.539 39.523-9.923 18.754-3.385 38.015-3.385t38.015 3.385q18.754 3.384 39.523 9.923L540-767.693H420l-17.538 60.77ZM420-192.307h120l17.538-60.77q-20.769 6.539-39.523 9.423-18.754 2.885-38.015 2.885t-38.015-2.885q-18.754-2.884-39.523-9.423L420-192.307Zm-17.538-575.386H557.538 402.462ZM420-192.307h-17.538H557.538 420Z"/></svg>