<svg xmlns="http://www.w3.org/2000/svg" height="24" viewBox="0 -960 960 960" width="24"><path d="M406.047-406Q400-406 396-409.967q-4-3.966-4-10.033v-120q0-6.067 3.953-10.033 3.954-3.967 10-3.967Q412-554 416-550.033q4 3.966 4 10.033v120q0 6.067-3.953 10.033-3.954 3.967-10 3.967Zm74 0Q474-406 470-409.967q-4-3.966-4-10.033v-80q0-6.067 3.953-10.033 3.954-3.967 10-3.967Q486-514 490-510.033q4 3.966 4 10.033v80q0 6.067-3.953 10.033-3.954 3.967-10 3.967Zm74 0Q548-406 544-409.967q-4-3.966-4-10.033v-40q0-6.067 3.953-10.033 3.954-3.967 10-3.967Q560-474 564-470.033q4 3.966 4 10.033v40q0 6.067-3.953 10.033-3.954 3.967-10 3.967ZM444-174q-19.971 0-36.486-12Q391-198 386-218l-18-64q-51-27-83.5-80T252-480q0-65 32.5-118t83.5-80l18-64q5-20 21.514-32 16.515-12 36.486-12h72q19.971 0 36.485 12Q569-762 574-742l18 64q51 27 83.5 80T708-480q0 65-32.5 118T592-282l-18 64q-5 20-21.515 32-16.514 12-36.485 12h-72Zm36-106q83 0 141.5-58.5T680-480q0-83-58.5-141.5T480-680q-83 0-141.5 58.5T280-480q0 83 58.5 141.5T480-280Z"/></svg>