<svg xmlns="http://www.w3.org/2000/svg" height="24" viewBox="0 -960 960 960" width="24"><path d="M189-129q-74 0-124.805-52.096-50.804-52.096-53.195-126Q11-318 12.5-328.5T16-350l84-337q17-63 68.234-103.5Q219.468-831 285-831h390q65.532 0 116.766 40.5Q843-750 860-687l84 336q3 11 4.5 22.52t1.5 22.434q0 73.971-52.484 125.509Q845.032-129 770.984-129 720-129 676.5-155.5 633-182 611-229l-28-57q-1-2-3.258-2.5T575-289H385q-2.484 0-4.742.5T377-286l-28 57q-22 47-65.579 73.5Q239.842-129 189-129Zm3-126q14.06 0 25.53-8T236-284l28-57q16.963-34.758 49.757-54.379Q346.551-415 385-415h190q38.407 0 71.167 20.182Q678.926-374.636 697-341l28 57q7 13 18.47 21 11.47 8 25.53 8 21.824 0 37.412-14.5Q822-284 823-305q0-5-2-15l-84-335q-5-22-22.1-36T675-705H285q-22.545 0-39.857 13.934Q227.831-677.131 223-655l-84 335-2 14q0 21.636 16.107 36.318Q169.214-255 192-255Zm348-265q17 0 28.5-11.5T580-560q0-17-11.5-28.5T540-600q-17 0-28.5 11.5T500-560q0 17 11.5 28.5T540-520Zm80-80q17 0 28.5-11.5T660-640q0-17-11.5-28.5T620-680q-17 0-28.5 11.5T580-640q0 17 11.5 28.5T620-600Zm0 160q17 0 28.5-11.5T660-480q0-17-11.5-28.5T620-520q-17 0-28.5 11.5T580-480q0 17 11.5 28.5T620-440Zm80-80q17 0 28.5-11.5T740-560q0-17-11.5-28.5T700-600q-17 0-28.5 11.5T660-560q0 17 11.5 28.5T700-520Zm-360 60q13 0 21.5-8.5T370-490v-40h40q13 0 21.5-8.5T440-560q0-13-8.5-21.5T410-590h-40v-40q0-13-8.5-21.5T340-660q-13 0-21.5 8.5T310-630v40h-40q-13 0-21.5 8.5T240-560q0 13 8.5 21.5T270-530h40v40q0 13 8.5 21.5T340-460Zm140-20Z"/></svg>