<svg xmlns="http://www.w3.org/2000/svg" height="20" viewBox="0 -960 960 960" width="20"><path d="M217.706-218q-45.706 0-76.309-30.865Q110.793-279.731 111-325.28q0-6.72.412-12.792t2.235-13.144l76.588-301.352q10.507-39.506 41.571-64.469Q262.871-742 303.72-742h352.56q40.849 0 71.914 24.963 31.064 24.963 41.583 64.473l76.66 301.377q1.825 7.072 2.694 13.593t.869 13.18q0 45.565-31 75.989Q788-218 742.398-218 711-218 686-234q-25-16-40-43l-26.455-52.176Q612-344.5 597.5-353.25 583-362 565-362H394q-17.742 0-31.871 8.5Q348-345 340.294-329.132l-27.353 52.434Q299-249 273.816-233.5q-25.184 15.5-56.11 15.5Zm.913-20Q242-238 263-251.5t31.556-34.432L321-337q10.918-20.955 30.459-32.977Q371-382 393.837-382h172.326q23.446 0 42.614 12.864Q627.946-356.273 639-336l26 50q11 22 31.76 35t45.665 13q36.06 0 61.818-25Q830-288 829-323q0-10-3-22l-74.769-301.685Q743-679 716-700.5T655.746-722H304q-34.525 0-61.035 21.049Q216.455-679.902 209-648l-75.209 301.588Q133-343.01 131-324.207q0 36.237 25.966 61.222Q182.933-238 218.619-238Zm321.17-290q9.211 0 16.711-7.289 7.5-7.29 7.5-16.5 0-9.211-7.289-16.711-7.29-7.5-16.5-7.5-9.211 0-16.711 7.289-7.5 7.29-7.5 16.5 0 9.211 7.289 16.711 7.29 7.5 16.5 7.5Zm72-72q9.211 0 16.711-7.289 7.5-7.29 7.5-16.5 0-9.211-7.289-16.711-7.29-7.5-16.5-7.5-9.211 0-16.711 7.289-7.5 7.29-7.5 16.5 0 9.211 7.289 16.711 7.29 7.5 16.5 7.5Zm0 144q9.211 0 16.711-7.289 7.5-7.29 7.5-16.5 0-9.211-7.289-16.711-7.29-7.5-16.5-7.5-9.211 0-16.711 7.289-7.5 7.29-7.5 16.5 0 9.211 7.289 16.711 7.29 7.5 16.5 7.5Zm72-72q9.211 0 16.711-7.289 7.5-7.29 7.5-16.5 0-9.211-7.289-16.711-7.29-7.5-16.5-7.5-9.211 0-16.711 7.289-7.5 7.29-7.5 16.5 0 9.211 7.289 16.711 7.29 7.5 16.5 7.5Zm-323.836 44q3.447 0 5.747-2.267 2.3-2.266 2.3-5.733v-52h52q3.467 0 5.733-2.253 2.267-2.254 2.267-5.7 0-3.447-2.267-5.747-2.266-2.3-5.733-2.3h-52v-52q0-3.467-2.253-5.733-2.254-2.267-5.7-2.267-3.447 0-5.747 2.267-2.3 2.266-2.3 5.733v52h-52q-3.467 0-5.733 2.253-2.267 2.254-2.267 5.7 0 3.447 2.267 5.747 2.266 2.3 5.733 2.3h52v52q0 3.467 2.253 5.733 2.254 2.267 5.7 2.267ZM480-480Z"/></svg>