<svg xmlns="http://www.w3.org/2000/svg" height="24" viewBox="0 -960 960 960" width="24"><path d="M189-142.477q-67.913 0-115.108-48.142-47.194-48.141-49.415-116.435 0-10.076 1.283-19.924 1.283-9.848 3.283-19.979l84-336.565q15.695-59.087 63.35-96.544Q224.047-817.523 285-817.523h390q60.953 0 108.607 37.457 47.655 37.457 63.35 96.544l84 336q2.566 10.131 4.066 20.772 1.5 10.642 1.5 20.724 0 68.332-48.579 115.94-48.578 47.609-116.953 47.609-47.078 0-87.318-24.544-40.239-24.544-60.5-67.631l-28-57.435q-2.739-5.478-8.363-7.934-5.624-2.456-11.81-2.456H385q-6.186 0-11.81 2.456-5.624 2.456-8.363 7.934l-28 57.435q-20.261 43.087-60.545 67.631-40.284 24.544-87.282 24.544Zm3-106.002q16.208 0 29.43-8.869 13.222-8.87 20.657-23.609l28-57q16.109-33.124 47.254-51.823 31.144-18.699 67.659-18.699h190q36.491 0 67.616 19.234 31.125 19.233 48.297 51.288l28 57q7.435 14.739 20.657 23.609 13.222 8.869 29.43 8.869 24.509 0 42.015-16.239T829.521-305q0-2.391-2-16.739l-84-335q-5.869-24.174-24.665-39.478-18.795-15.304-43.856-15.304H285q-24.917 0-44.049 15.267-19.133 15.267-24.472 39.515l-84 335q-.87 2.609-2 15.739 0 24.403 18.017 40.962 18.017 16.559 43.504 16.559ZM540-520q17 0 28.5-11.5T580-560q0-17-11.5-28.5T540-600q-17 0-28.5 11.5T500-560q0 17 11.5 28.5T540-520Zm80-80q17 0 28.5-11.5T660-640q0-17-11.5-28.5T620-680q-17 0-28.5 11.5T580-640q0 17 11.5 28.5T620-600Zm0 160q17 0 28.5-11.5T660-480q0-17-11.5-28.5T620-520q-17 0-28.5 11.5T580-480q0 17 11.5 28.5T620-440Zm80-80q17 0 28.5-11.5T740-560q0-17-11.5-28.5T700-600q-17 0-28.5 11.5T660-560q0 17 11.5 28.5T700-520Zm-360 60q13 0 21.5-8.5T370-490v-40h40q13 0 21.5-8.5T440-560q0-13-8.5-21.5T410-590h-40v-40q0-13-8.5-21.5T340-660q-13 0-21.5 8.5T310-630v40h-40q-13 0-21.5 8.5T240-560q0 13 8.5 21.5T270-530h40v40q0 13 8.5 21.5T340-460Zm140-20Z"/></svg>