<svg xmlns="http://www.w3.org/2000/svg" height="24" viewBox="0 -960 960 960" width="24"><path d="M507-404 280-178q-16.267 16-38.633 16Q219-162 203-178.211q-16-16.21-16-38.5Q187-239 203-255l329-330h-72v15q0 23.375-15.812 39.188Q428.375-515 405-515t-39.188-15.812Q350-546.625 350-570v-62q0-26 18.5-44.5T413-695h193q25.244 0 48.122 9.5T695-658l110 110q20 20 44 31t50 16q23 5 40 21.737 17 16.738 17 39.5Q956-417 938-401q-18 16-41 12-46-7-88-25t-76-52l-30-30-67 66 35 35q22 22 18.023 52.643Q685.045-311.714 658-296L485-196q-20 11-42.134 5.364Q420.732-196.273 410-216q-11-20-5.5-42t25.5-33l120-69-43-44Zm-372-1q-23.375 0-39.188-15.812Q80-436.625 80-460t15.813-39.188Q111.624-515 135-515h120q23.375 0 39.188 15.812Q310-483.375 310-460t-15.812 39.188Q278.375-405 255-405H135ZM55-555q-23.375 0-39.188-15.812Q0-586.625 0-610t15.813-39.188Q31.624-665 55-665h120q23.375 0 39.188 15.812Q230-633.375 230-610t-15.812 39.188Q198.375-555 175-555H55Zm761-82q-40 0-67.5-27.5T721-732q0-40 27.5-67.5t67-27.5q39.5 0 67.5 27.867t28 67Q911-693 882.852-665 854.704-637 816-637Zm-681-68q-23.375 0-39.188-15.812Q80-736.625 80-760t15.813-39.188Q111.624-815 135-815h120q23.375 0 39.188 15.812Q310-783.375 310-760t-15.812 39.188Q278.375-705 255-705H135Z"/></svg>