<svg xmlns="http://www.w3.org/2000/svg" height="24" viewBox="0 -960 960 960" width="24"><path d="M235-160v-143q-31-6-47-26.5T172-378v-234q0-12.75 8.625-21.375T202-642h94q12.75 0 21.375 8.625T326-612v234q0 26-16.5 47.5T263-303v143h49q5.95 0 9.975 4.035 4.025 4.035 4.025 10T321.975-136q-4.025 4-9.975 4H186q-5.95 0-9.975-4.035-4.025-4.035-4.025-10t4.025-9.965q4.025-4 9.975-4h49Zm-35-311h98v-143h-98v143Zm49 142q20 0 34.5-14.5T298-378v-65h-98v65q0 20 14.5 34.5T249-329Zm267 197q-11.55 0-19.775-8.225Q488-148.45 488-160v-389q0-8.925 6-15.963Q500-572 508-575l38-15q30-11 47-28.5t17-59.5v-121.818Q610-812 618.05-820q8.05-8 19.95-8h40q11.9 0 19.95 8.05Q706-811.9 706-800v122q0 42 17.5 59.5T771-590l39 15q8 3.079 13 10.092T828-549v389q0 11.55-8.225 19.775Q811.55-132 800-132H516Zm122-623h40v-45h-40v45ZM516-449h284v-100l-39-15q-38-14-60.5-37.5T678-678v-49h-40v49q0 53-22.5 76.5T555-564l-39 15v100Zm0 289h284v-116H516v116Zm0-144h284v-117H516v117ZM249-443Zm267 139v-117 117Z"/></svg>