<svg xmlns="http://www.w3.org/2000/svg" height="20" viewBox="0 -960 960 960" width="20"><path d="M222.783-124.782q-41.005 0-69.503-28.848-28.498-28.848-28.498-69.153v-514.434q0-40.305 28.498-69.153 28.498-28.848 69.503-28.848h514.434q41.005 0 69.503 28.848 28.498 28.848 28.498 69.153v514.434q0 40.305-28.498 69.153-28.498 28.848-69.503 28.848H222.783Zm0-98.001h514.434v-514.434H222.783v514.434Zm0 0v-514.434 514.434Zm79.478-58.434h355.672q15.328 0 21.458-13.392 6.131-13.391-2.565-25.782l-105.739-144Q564.141-475.218 552-475.5q-12.141-.283-19.652 10.543L444-347.305l-52.348-69.652Q384.141-427.783 372-427.5q-12.141.282-19.087 11.109l-69.557 96.025q-8.878 12.366-2.497 25.757 6.38 13.392 21.402 13.392Z"/></svg>