<svg xmlns="http://www.w3.org/2000/svg" height="20" viewBox="0 -960 960 960" width="20"><path d="M396-256q-18.562 0-31.781-12.725Q351-281.45 352-300v6q0-11.05 7.475-18.525Q366.95-320 378-320h58v-118q-28 10-58 8t-54-17q-4.615-3.714-7.308-8.357Q314-460 314-467v-67h-69q-4.186 0-8.11-1.5-3.924-1.5-7.779-5.389l-96.333-89.333Q123-639 125.5-652q2.5-13 13.5-20 35-14 62-23t65-9q46.038 0 89.519 17Q399-670 436-640v-19q0-22.164 15.418-37.582T489-712h223.186q21.348 0 36.581 15.275Q764-681.45 764-660v360q0 19-12.5 31.5T720-256H396Zm60-64h192q9.3 0 16.65 7.35Q672-305.3 672-296v-16q0 15.3 10.289 25.65 10.29 10.35 25.5 10.35Q723-276 733.5-286.35 744-296.7 744-312v-348q0-14-9-23t-23-9H488q-14 0-23 9t-9 23v47l186.908 186.908q2.554 2.186 2.823 5.139.269 2.953-.531 6.039-.8 3.085-3.54 5-2.74 1.914-6.267 1.914-2.015 0-3.829-.667-1.814-.666-3.564-2.333L521-519l-53 54q-3.844 3.611-5.922 4.806Q460-459 456-454.036V-320ZM243-554h65q11.05 0 18.525 7.475Q334-539.05 334-528v61q16.769 8.286 29.019 11.143Q375.269-453 385.405-453 405-453 423-461t31-21l51-51-85-86q-31.02-31-71.51-47.5Q308-683 266-683q-32.357 0-63.179 9.5Q172-664 149-648l94 94Zm409 254H372q0 8 4.5 16t18.5 8h271q-7-5-10-11.323-3-6.322-4-12.677Zm-280 0v24-24Z"/></svg>