<svg xmlns="http://www.w3.org/2000/svg" height="20" viewBox="0 -960 960 960" width="20"><path d="M264.181-303.385q13.665 0 23.05-9.565 9.384-9.566 9.384-23.231 0-13.665-9.565-23.05-9.566-9.384-23.231-9.384-13.665 0-23.05 9.565-9.384 9.566-9.384 23.231 0 13.665 9.565 23.05 9.566 9.384 23.231 9.384Zm240 0q13.665 0 23.05-9.565 9.384-9.566 9.384-23.231 0-13.665-9.565-23.05-9.566-9.384-23.231-9.384-13.665 0-23.05 9.565-9.384 9.566-9.384 23.231 0 13.665 9.565 23.05 9.566 9.384 23.231 9.384ZM230.769-208v59.385q0 5.256-3.706 8.936-3.706 3.679-9 3.679-5.294 0-8.909-3.679-3.616-3.68-3.616-8.936v-70.231Q181-226.308 158.5-256.385q-22.5-30.076-22.5-71V-672q0-38.923 24.577-61 24.577-22.077 68.423-32.654 43.846-10.577 105.115-11.962 61.269-1.384 135.423 1.077Q451-755.308 445-712.885t-3.692 70.424H168V-464h407.692q13.231 6.615 29.231 12.923T632-442.769v115.384q0 39.641-22.5 70.359-22.5 30.718-47.038 38.18v70.231q0 5.256-3.706 8.936-3.706 3.679-9 3.679-5.294 0-8.91-3.679-3.615-3.68-3.615-8.936V-208H230.769Zm437.634-320.615q-58.634 0-99.211-40.789t-40.577-99.424q0-58.634 40.789-99.211t99.424-40.577q58.634 0 99.211 40.789t40.577 99.424q0 58.634-40.789 99.211t-99.424 40.577ZM670.615-684q7.754 0 13.57-5.815 5.815-5.816 5.815-13.57v-17.231q0-7.753-5.815-13.569-5.816-5.815-13.57-5.815-7.753 0-13.569 5.815-5.815 5.816-5.815 13.569v17.231q0 7.754 5.815 13.57Q662.862-684 670.615-684Zm0 89.846q9.6 0 16.031-6.431 6.431-6.43 6.431-16.03 0-9.6-6.431-16.031-6.431-6.431-16.031-6.431-9.599 0-16.03 6.431-6.431 6.431-6.431 16.031 0 9.6 6.431 16.03 6.431 6.431 16.03 6.431Z"/></svg>