<svg xmlns="http://www.w3.org/2000/svg" height="20" viewBox="0 -960 960 960" width="20"><path d="M264-288q20 0 34-14t14-34q0-20-14-34t-34-14q-20 0-34 14t-14 34q0 20 14 34t34 14Zm240 0q20 0 34-14t14-34q0-20-14-34t-34-14q-20 0-34 14t-14 34q0 20 14 34t34 14ZM240-168v24q0 20-14 34t-34 14q-20 0-34-14t-14-34v-61q-23-19-35.5-46T96-312v-360q0-42 21.5-71t66.5-46.5Q229-807 299.5-813t168.5-2q-27 42-33 92.5t4 98.5H168v120h340q34 32 75 51t89 21v120q0 32.718-12.5 60.359T624-205v61q0 20-14 34t-34 14q-20 0-34-14t-14-34v-24H240Zm443.788-336Q609-504 556.5-556.712t-52.5-127.5Q504-759 556.712-811.5t127.5-52.5Q759-864 811.5-811.288t52.5 127.5Q864-609 811.288-556.5t-127.5 52.5ZM686-684q9.6 0 16.8-7.2 7.2-7.2 7.2-16.8v-48q0-9.6-7.2-16.8-7.2-7.2-16.8-7.2-9.6 0-16.8 7.2-7.2 7.2-7.2 16.8v48q0 9.6 7.2 16.8 7.2 7.2 16.8 7.2Zm0 96q9.6 0 16.8-7.2 7.2-7.2 7.2-16.8 0-9.6-7.2-16.8-7.2-7.2-16.8-7.2-9.6 0-16.8 7.2-7.2 7.2-7.2 16.8 0 9.6 7.2 16.8 7.2 7.2 16.8 7.2Z"/></svg>