<svg xmlns="http://www.w3.org/2000/svg" height="24" viewBox="0 -960 960 960" width="24"><path d="M260.181-295.385q18.665 0 31.55-13.065 12.884-13.066 12.884-31.731t-13.065-31.55q-13.066-12.884-31.731-12.884t-31.55 13.065q-12.884 13.066-12.884 31.731t13.065 31.55q13.066 12.884 31.731 12.884Zm280 0q18.665 0 31.55-13.065 12.884-13.066 12.884-31.731t-13.065-31.55q-13.066-12.884-31.731-12.884t-31.55 13.065q-12.884 13.066-12.884 31.731t13.065 31.55q13.066 12.884 31.731 12.884ZM230.769-200v55.385q0 10.256-7.206 17.436-7.206 7.179-17.5 7.179t-17.409-7.179q-7.116-7.18-7.116-17.436v-71.231Q162-224.308 141-251.885q-21-27.576-21-63.5V-680q0-26.923 14.577-50.5t52.923-40.654q38.346-17.077 106.115-24.962 67.769-7.884 173.923-3.423Q456-772.308 451.5-730.385q-4.5 41.923 2.808 71.924H160V-480h431.692q17.231 12.615 42.731 20.923 25.5 8.308 45.577 8.308v135.384q0 35.924-21 63.5-21 27.577-40.538 36.039v71.231q0 10.256-7.206 17.436-7.206 7.179-17.5 7.179t-17.41-7.179q-7.115-7.18-7.115-17.436V-200H230.769Zm473.846-344.615q-66.846 0-113.423-46.577t-46.577-113.423q0-66.847 46.577-113.424 46.577-46.577 113.423-46.577 66.847 0 113.424 46.577 46.577 46.577 46.577 113.424 0 66.846-46.577 113.423t-113.424 46.577Zm0-135.385q6.154 0 10.77-4.615 4.615-4.616 4.615-10.77v-89.231q0-6.153-4.615-10.769-4.616-4.615-10.77-4.615-6.153 0-10.769 4.615-4.615 4.616-4.615 10.769v89.231q0 6.154 4.615 10.77Q698.462-680 704.615-680Zm0 73.846q8 0 13.231-5.231 5.231-5.23 5.231-13.23t-5.231-13.231q-5.231-5.231-13.231-5.231t-13.23 5.231q-5.231 5.231-5.231 13.231t5.231 13.23q5.23 5.231 13.23 5.231Z"/></svg>