<svg xmlns="http://www.w3.org/2000/svg" height="20" viewBox="0 -960 960 960" width="20"><path d="M264.235-308Q276-308 284-316.235q8-8.236 8-20Q292-348 283.765-356q-8.236-8-20-8Q252-364 244-355.765q-8 8.236-8 20Q236-324 244.235-316q8.236 8 20 8Zm240 0Q516-308 524-316.235q8-8.236 8-20Q532-348 523.765-356q-8.236-8-20-8Q492-364 484-355.765q-8 8.236-8 20Q476-324 484.235-316q8.236 8 20 8ZM228-220v70q0 .833-.618 1.417-.617.583-1.5.583-.882 0-1.382-.583-.5-.584-.5-1.417v-73q-25-4-50.5-35T148-332v-340q0-38 25.5-58t69-28.5q43.5-8.5 102-8.5t125.5 2.08q-2.947.472-7.974 8.696Q457-748 454-744q-181-5-236 14.5T155-668h289q-1 16-.25 19t-1.75 1H168v196h428q7-1 15.5 1.5t8.5 4.5v114q0 41.718-25.5 73.359Q569-227 544-223v73q0 .833-.618 1.417-.617.583-1.5.583-.882 0-1.382-.583-.5-.584-.5-1.417v-70H228Zm299-212H168h432-73Zm136.788-104Q610-536 573-573.212t-37-91Q536-718 573.212-755t91-37Q718-792 755-754.788t37 91Q792-610 754.788-573t-91 37ZM666-684q7.2 0 12.6-5.4 5.4-5.4 5.4-12.6v-8q0-7.2-5.4-12.6-5.4-5.4-12.6-5.4-7.2 0-12.6 5.4-5.4 5.4-5.4 12.6v8q0 7.2 5.4 12.6 5.4 5.4 12.6 5.4Zm0 88q9.6 0 15.8-6.2 6.2-6.2 6.2-15.8 0-9.6-6.2-15.8-6.2-6.2-15.8-6.2-9.6 0-15.8 6.2-6.2 6.2-6.2 15.8 0 9.6 6.2 15.8 6.2 6.2 15.8 6.2ZM240.055-240h288.222Q558-240 579-261.15T600-312v-120H168v120q0 30 21.166 51 21.167 21 50.889 21ZM444-668H155h289Z"/></svg>