<svg xmlns="http://www.w3.org/2000/svg" height="24" viewBox="0 -960 960 960" width="24"><path d="M260.235-300Q277-300 288.5-311.735q11.5-11.736 11.5-28.5Q300-357 288.265-368.5q-11.736-11.5-28.5-11.5Q243-380 231.5-368.265q-11.5 11.736-11.5 28.5Q220-323 231.735-311.5q11.736 11.5 28.5 11.5Zm280 0Q557-300 568.5-311.735q11.5-11.736 11.5-28.5Q580-357 568.265-368.5q-11.736-11.5-28.5-11.5Q523-380 511.5-368.265q-11.5 11.736-11.5 28.5Q500-323 511.735-311.5q11.736 11.5 28.5 11.5ZM228-212v66q0 5.833-4.118 9.917-4.117 4.083-10 4.083-5.882 0-9.882-4.083-4-4.084-4-9.917v-74q-20-5-44-33.5T132-320v-360q0-26 15.5-47.5T201-764q38-15 103-21.5t164-2.5q-9 21-13.5 60.5t.5 63.5H160v196h452q11 5 29 9.5t27 4.5v134q0 38-24 66.5T600-220v74q0 5.833-4.118 9.917-4.117 4.083-10 4.083-5.882 0-9.882-4.083-4-4.084-4-9.917v-66H228Zm472-340q-62 0-105-43t-43-105q0-62 43-105t105-43q62 0 105 43t43 105q0 62-43 105t-105 43Zm0-128q5.6 0 9.8-4.2 4.2-4.2 4.2-9.8v-80q0-5.6-4.2-9.8-4.2-4.2-9.8-4.2-5.6 0-9.8 4.2-4.2 4.2-4.2 9.8v80q0 5.6 4.2 9.8 4.2 4.2 9.8 4.2Zm0 72q8 0 13-5t5-13q0-8-5-13t-13-5q-8 0-13 5t-5 13q0 8 5 13t13 5Z"/></svg>