<svg xmlns="http://www.w3.org/2000/svg" height="24" viewBox="0 -960 960 960" width="24"><path d="M60.782-140.782v-678.436H391.52L480-730.74h419.218v589.958H60.782Zm106.001-106.001h626.434v-377.955H436.26l-88.478-88.479H166.783v466.434Zm0 0v-466.434V-246.783Zm145.087-55.956 190.651-190.652-63.217-63.783L311.87-428.74l-51.348-51.347-62.218 63.783L311.87-302.739Zm268.087-5.652 58.347-58.348 58.348 58.348 62.218-62.218-58.348-58.348 58.348-58.347-62.218-62.783-58.348 58.347-58.347-58.347-62.218 62.783 58.348 58.347-58.348 58.348 62.218 62.218Z"/></svg>