<svg xmlns="http://www.w3.org/2000/svg" height="24" viewBox="0 -960 960 960" width="24"><path d="m802-40-7-6H189q-26 0-44.5-18.5T126-109q0-26 18.5-44.5T189-172h17v-108q0-57 23-109.5t65-90.5q-32-29-52.5-67.5T213-629L55-787q-14-14-13.5-33.5T56-854q14-14 33.5-14t33.5 14l746 747q14 14 13.5 33.5T868-40q-14 14-33 14t-33-14ZM646-464l-90-90q33-20 52.5-53.5T628-680v-108H332v11l-10-11-126-126h575q26 0 44.5 18.5T834-851q0 26-18.5 44.5T771-788h-17v108q0 64-28.5 121T646-464ZM332-172h296v-42L424-417q-42 17-67 54.5T332-280v108Zm422 0Z"/></svg>