<svg xmlns="http://www.w3.org/2000/svg" height="24" viewBox="0 -960 960 960" width="24"><path d="m842-78-54-54H226q-6 0-10-4t-4-10q0-6 4-10t10-4h56v-120q0-81 48.5-134T440-478v-5q-39-8-89-47t-64-103L100-820q-4-4-4.5-9.5T100-840q5-5 10-5t10 5L862-98q4 4 4.5 9.5T862-78q-5 5-10 5t-10-5ZM564-508l-18-18q39-24 71.5-65.5T650-680v-120H310v38l-28-28v-10h-10l-28-28h490q6 0 10 4t4 10q0 6-4 10t-10 4h-56v120q0 51-36 97t-78 75ZM310-160h340v-110L466-453q-57 5-106.5 50.5T310-280v120Zm368 0h70l-70-82v82Z"/></svg>