<svg xmlns="http://www.w3.org/2000/svg" height="24" viewBox="0 -960 960 960" width="24"><path d="m797.218-47.39-14.391-13.392H193.782q-22.087 0-37.544-15.456-15.456-15.457-15.456-37.544 0-22.088 15.456-37.544 15.457-15.457 37.544-15.457h27V-280q0-58.739 25.391-111.674 25.391-52.935 71.304-88.326-32-25.087-53.37-59.022-21.369-33.935-31.978-73.023L55-789.174q-13.13-13.13-12.848-31.326.283-18.196 13.413-31.326 13.13-13.131 31.326-13.131 18.196 0 31.327 13.131L859.87-109.609q13.131 13.131 12.848 31.11-.283 17.978-13.413 31.108-13.131 13.13-31.044 13.13t-31.043-13.13ZM626.871-468.349l-76.958-76.522q38.217-19.565 60.761-55.891 22.543-36.326 22.543-79.239v-113.217H326.783v25.782l-25.216-25.782-106.002-106.001h570.653q22.087 0 37.544 15.456 15.456 15.457 15.456 37.544 0 22.088-15.456 37.544-15.457 15.457-37.544 15.457h-27V-680q0 64-29.587 120.13-29.586 56.131-82.76 91.522ZM326.783-166.783h306.434v-44.174L421.826-421.782q-43.304 17.869-69.174 56.456-25.869 38.587-25.869 85.326v113.217Zm412.435 0Z"/></svg>