<svg xmlns="http://www.w3.org/2000/svg" height="20" viewBox="0 -960 960 960" width="20"><path d="M480-240q0-32.198-13.21-60.815-13.21-28.618-35.726-51.168-20.064-20.094-43.795-32.171-23.731-12.077-51.346-15.077-6.604-1-11.379 3.775-4.775 4.775-3.775 11.379 3 27.615 14.692 51.731 11.693 24.115 31.632 44.054 22.368 22.369 51.715 35.33Q448.154-240 480-240Zm-.091-198.154q17.783 0 29.091-11.243t11.308-29.065v-11.461l11 6q4.541 2.231 10.232 3.346 5.691 1.115 10.152 1.115 17.402 0 29.124-11.722 11.723-11.722 11.723-29.124 0-10.692-4.847-19.769-4.846-9.077-14.538-16.077l-11-6 11-6q9.692-7 14.538-16.077 4.847-9.077 4.847-19.769 0-17.821-12.013-29.834-12.012-12.012-29.834-12.012-4.461 0-10.192.615t-9.192 3.846l-11 7v-13q0-17.821-11.217-29.064-11.217-11.244-29-11.244T451-676.449q-11.308 11.243-11.308 29.064v13l-11-7q-3.461-3.231-9.192-3.846-5.731-.615-10.192-.615-17.822 0-29.834 12.012-12.013 12.013-12.013 29.834 0 10.692 4.847 19.769 4.846 9.077 14.538 16.077l11 6-11 6q-9.692 7-14.538 16.077-4.847 9.077-4.847 19.769 0 17.822 12.013 29.834 12.012 12.012 29.834 12.012 4.461 0 10.192-.615t9.192-3.846l11-7v11.461q0 17.822 11.217 29.065 11.217 11.243 29 11.243Zm.182-59.077q-27.014 0-46.014-19.385-19-19.384-19-45.915 0-26.546 18.909-45.546t45.923-19q27.014 0 46.014 18.936 19 18.935 19 45.987 0 26.154-18.909 45.538-18.909 19.385-45.923 19.385ZM480-240q32.198 0 60.815-13.21 28.618-13.21 51.168-35.726 20.094-20.064 32.171-43.795 12.077-23.731 15.077-51.346 1-6.604-3.775-11.379-4.774-4.775-11.379-3.775-27.615 3-51.85 15.259-24.235 12.259-44.064 32.03-22.24 22.173-35.201 50.899Q480-272.317 480-240ZM192.615-136q-24.315 0-40.465-16.15Q136-168.3 136-192.615v-574.77q0-24.315 16.15-40.465Q168.3-824 192.615-824h574.77q24.315 0 40.465 16.15Q824-791.7 824-767.385v574.77q0 24.315-16.15 40.465Q791.7-136 767.385-136h-574.77Z"/></svg>