<svg xmlns="http://www.w3.org/2000/svg" height="20" viewBox="0 -960 960 960" width="20"><path d="M480-409.461 302.154-230.846q-5.615 5.615-11.654 5.615t-11.654-5.615q-6.385-6.385-6.385-11.654t6.385-11.654l181.539-181.538q4.23-4.231 9.192-6.347 4.961-2.115 10.423-2.115t10.423 2.115q4.962 2.116 9.192 6.347l181.539 181.538q5.615 5.615 5.615 11.154t-5.615 11.154q-6.385 6.385-11.654 6.385t-11.654-6.385L480-409.461Zm0-285L302.154-515.846q-5.615 5.615-11.654 5.615t-11.654-5.615q-6.385-6.385-6.385-11.654t6.385-11.654l181.539-181.538q4.23-4.231 9.192-6.347 4.961-2.115 10.423-2.115t10.423 2.115q4.962 2.116 9.192 6.347l181.539 181.538q5.615 5.615 5.615 11.154t-5.615 11.154q-6.385 6.385-11.654 6.385t-11.654-6.385L480-694.461Z"/></svg>