<svg xmlns="http://www.w3.org/2000/svg" height="24" viewBox="0 -960 960 960" width="24"><path d="M642.348-152.348h44.782V-317.13h-44.782v164.782Zm104.782 0h44.783V-317.13H747.13v164.782ZM242.87-596.413h474.26v-80H242.87v80ZM717.13-34.739q-83 0-141.5-58.5t-58.5-141.5q0-83 58.5-141.5t141.5-58.5q83 0 141.5 58.5t58.5 141.5q0 83-58.5 141.5t-141.5 58.5ZM111.869-66.847v-780.566h736.262v365.892q-29.913-16.87-63.164-25.044-33.25-8.174-67.597-8.174v-4.544h-474.5v80h283.521q-17.265 16.359-31.991 35.603-14.726 19.245-26.204 41.528H242.87v80h198.456q-2.717 11.913-3.696 23.446-.978 11.532-.978 24.684 0 43.674 12.696 83.968 12.695 40.293 37.848 76.01L480-66.846l-61.435-61.435-61.435 61.435-61.434-61.435-61.674 61.435-61.435-61.435-60.718 61.435Z"/></svg>