<svg xmlns="http://www.w3.org/2000/svg" height="20" viewBox="0 -960 960 960" width="20"><path d="M660.308-166h38.769v-138.769h-38.769V-166Zm80.615 0h38.769v-138.769h-38.769V-166ZM318.769-586.769h322.462v-32H318.769v32ZM719.774-83.384q-63.62 0-107.697-44.304Q568-171.991 568-235.611q0-63.62 44.303-107.697 44.303-44.077 107.923-44.077 63.62 0 107.697 44.303Q872-298.779 872-235.158q0 63.62-44.303 107.697-44.303 44.077-107.923 44.077ZM184-145.23V-776h592v286.385q-30.559-7.026-62.39-5.206Q681.779-493 651.077-483v-13H318.769v32h272.462q-28.969 16.671-50.984 39.835-22.016 23.165-36.862 50.934H318.769v32h162.385q-7.308 23.154-11.731 48.077T465-242.308q0 20.385 3.731 43.347Q472.462-176 478.923-155l-7.384 4.385-41.385-18.077-49.846 23.462-49.847-23.462-49.846 23.462-49.846-23.462L184-145.23Z"/></svg>