<svg xmlns="http://www.w3.org/2000/svg" height="24" viewBox="0 -960 960 960" width="24"><path d="M446.154-266.154H184.615q-27.615 0-46.115-18.5-18.5-18.5-18.5-46.115v-404.616Q120-763 138.5-781.5 157-800 184.615-800h590.77Q803-800 821.5-781.5 840-763 840-735.385v404.616q0 27.615-18.5 46.115-18.5 18.5-46.115 18.5H513.846l70.924 70.923q2 2 4.461 10.924v8.923q0 6.461-4.461 10.923Q580.308-160 573.846-160H381.692q-4.462 0-7.692-3.231-3.231-3.23-3.231-7.692v-15.384q0-2 3.231-7.693l72.154-72.154ZM160-366.154h640v-369.231q0-9.23-7.692-16.923Q784.615-760 775.385-760h-590.77q-9.23 0-16.923 7.692Q160-744.615 160-735.385v369.231Zm0 0V-760v393.846Z"/></svg>