<svg xmlns="http://www.w3.org/2000/svg" height="24" viewBox="0 -960 960 960" width="24"><path d="m480.478-567.652-61.261-61.261 63.239-64H316.652v-87.174h165.804l-64-64 62.022-61.261L649.087-736.5 480.478-567.652ZM280-76.413q-33 0-56.5-23.5t-23.5-56.5q0-33 23.5-56.5t56.5-23.5q33 0 56.5 23.5t23.5 56.5q0 33-23.5 56.5t-56.5 23.5Zm400 0q-33 0-56.5-23.5t-23.5-56.5q0-33 23.5-56.5t56.5-23.5q33 0 56.5 23.5t23.5 56.5q0 33-23.5 56.5t-56.5 23.5Zm-643.587-720v-87.174h136.978l168.087 356.174h279.044l154.087-276.174h99.609L672.826-440H328.065l-41.847 76.413h477.369v87.174H138.065L259.935-496 117.848-796.413H36.413Z"/></svg>