<svg xmlns="http://www.w3.org/2000/svg" height="24" viewBox="0 -960 960 960" width="24"><path d="m481.13-578.088-68.435-68.435 63.565-64H312.087v-96.958H476.26l-64-64 68.87-68.435 180.349 180.914L481.13-578.088ZM280-71.521q-33 0-56.5-23.5t-23.5-56.5q0-33 23.5-56.5t56.5-23.5q33 0 56.5 23.5t23.5 56.5q0 33-23.5 56.5t-56.5 23.5Zm400 0q-33 0-56.5-23.5t-23.5-56.5q0-33 23.5-56.5t56.5-23.5q33 0 56.5 23.5t23.5 56.5q0 33-23.5 56.5t-56.5 23.5Zm-648.479-720v-96.958h145.131L342.13-537.523h277.74l151.478-270.956h111.348L678.044-440H333.609l-38.913 71.521h473.783v96.958H128.608L254.391-496 114.913-791.521H31.521Z"/></svg>