<svg xmlns="http://www.w3.org/2000/svg" height="20" viewBox="0 -960 960 960" width="20"><path d="M444-196v-20h72v20h-72Zm0-548v-20h72v20h-72Zm150 548v-20h72v20h-72Zm0-548v-20h72v20h-72Zm131 274H482q-4.25 0-7.125-2.825-2.875-2.824-2.875-7 0-4.175 2.875-7.175t7.125-3h243l-75-76q-4-4-4-8t3.696-7.174Q654-585 657.5-584.5t7.5 4.5l81.241 82.138Q754-490 754-479.818T746-462l-83 83q-4 4-6.5 3t-6.717-4.174Q645-384 645.5-387.5q.5-3.5 4.5-7.5l75-75ZM280-216v-528h-74q-4.25 0-7.125-2.825-2.875-2.824-2.875-7 0-4.175 2.875-7.175t7.125-3h168q4.25 0 7.125 2.825 2.875 2.824 2.875 7 0 4.175-2.875 7.175T374-744h-74v528h74q4.25 0 7.125 2.825 2.875 2.824 2.875 7 0 4.175-2.875 7.175T374-196H206q-4.25 0-7.125-2.825-2.875-2.824-2.875-7 0-4.175 2.875-7.175t7.125-3h74Zm464-528v-20q8.25 0 14.125 5.875T764-744h-20Zm0 548v-20h20q0 9-5.875 14.5T744-196Z"/></svg>