<svg xmlns="http://www.w3.org/2000/svg" height="20" viewBox="0 -960 960 960" width="20"><path d="M205.826-107.824q-41.005 0-69.504-28.498-28.498-28.499-28.498-69.504v-335.175h335.175q41.005 0 69.503 28.499 28.499 28.498 28.499 69.503v335.175H205.826Zm391.565 0v-98.002h78.783v98.002h-78.783Zm156.783 0v-98.002h98.002q0 41.305-28.498 69.654-28.499 28.348-69.504 28.348ZM219.859-208.087h210.933q15.295 0 21.425-13.391 6.131-13.392-2.565-25.783l-53.348-66.087q-7.568-9.826-19.241-9.826-11.672 0-18.933 9.826l-38.348 42.087q-7.568 9.826-19.241 9.826-11.672 0-18.933-9.826l-12.217-15.391q-7.261-9.826-19.587-9.609-12.327.218-19.588 10.044l-29.217 38.956q-8.695 12.391-2.565 25.783 6.131 13.391 21.425 13.391Zm534.315-75.739v-78.783h98.002v78.783h-98.002Zm0-156.783v-78.782h98.002v78.782h-98.002Zm-646.35-156.782v-78.783h98.002v78.783h-98.002Zm646.35 0v-78.783h98.002v78.783h-98.002Zm-646.35-156.783q0-41.005 28.498-69.504 28.499-28.498 69.504-28.498v98.002h-98.002Zm176.002 0v-98.002h78.783v98.002h-78.783Zm156.783 0v-98.002h78.782v98.002h-78.782Zm156.782 0v-98.002h78.783v98.002h-78.783Zm156.783 0v-98.002q41.005 0 69.504 28.498 28.498 28.499 28.498 69.504h-98.002Z"/></svg>