<svg xmlns="http://www.w3.org/2000/svg" height="24" viewBox="0 -960 960 960" width="24"><path d="M182-56q-53 0-89.5-36.5T56-182v-361h361q53 0 89.5 36.5T543-417v361H182Zm424 0v-126h92v126h-92Zm172 0v-126h126q0 53-36.5 89.5T778-56ZM186-186h232q20 0 28-17t-3-33l-54-73q-10-13-25-13t-25 13l-34 44q-10 13-25 13t-25-13l-12-15q-10-13-25-13t-25 13l-33 44q-11 16-2.5 33t28.5 17Zm592-76v-92h126v92H778Zm0-172v-92h126v92H778ZM56-606v-92h126v92H56Zm722 0v-92h126v92H778ZM56-778q0-53 36.5-89.5T182-904v126H56Zm206 0v-126h92v126h-92Zm172 0v-126h92v126h-92Zm172 0v-126h92v126h-92Zm172 0v-126q53 0 89.5 36.5T904-778H778Z"/></svg>