<svg xmlns="http://www.w3.org/2000/svg" height="24" viewBox="0 -960 960 960" width="24"><path d="M220.001-140.001q-33 0-56.5-23.5t-23.5-56.5V-520h307.692q29.923 0 51.115 21.192Q520-477.616 520-447.693v307.692H220.001Zm379.999 0V-200h80v59.999h-80Zm160 0V-200h59.999q0 24.922-17.538 42.461-17.539 17.538-42.461 17.538Zm-543.845-80h228.076q10.846 0 16.077-9.847 5.231-9.846-1.615-19.076l-61.308-83.539q-5.615-7.23-14.461-7.23t-14.462 7.23l-42.461 55.693q-5.616 7.23-14.462 7.423-8.846.192-14.461-7.039l-24-31.615q-5.615-7.231-14.462-6.923-8.846.308-14.461 7.538l-43.461 58.462q-6.846 9.23-1.116 19.076 5.731 9.847 16.577 9.847ZM760-280v-80h59.999v80H760Zm0-160v-80h59.999v80H760ZM140.001-600v-80H200v80h-59.999ZM760-600v-80h59.999v80H760ZM140.001-760q0-24.922 17.538-42.461 17.539-17.538 42.461-17.538V-760h-59.999ZM280-760v-59.999h80V-760h-80Zm160 0v-59.999h80V-760h-80Zm160 0v-59.999h80V-760h-80Zm160 0v-59.999q24.922 0 42.461 17.538 17.538 17.539 17.538 42.461H760Z"/></svg>