<svg xmlns="http://www.w3.org/2000/svg" height="24" viewBox="0 -960 960 960" width="24"><path d="M760-224.615v-122.308H200v122.308q0 10.769 6.923 17.692T224.615-200h510.77q10.769 0 17.692-6.923T760-224.615Zm0-162.308v-186.154H200v186.154h560Zm0-226.154v-122.308q0-10.769-6.923-17.692T735.385-760h-510.77q-10.769 0-17.692 6.923T200-735.385v122.308h560ZM224.615-160Q197-160 178.5-178.5 160-197 160-224.615v-510.77Q160-763 178.5-781.5 197-800 224.615-800h510.77Q763-800 781.5-781.5 800-763 800-735.385v510.77Q800-197 781.5-178.5 763-160 735.385-160h-510.77Z"/></svg>