<svg xmlns="http://www.w3.org/2000/svg" height="20" viewBox="0 -960 960 960" width="20"><path d="M813-92 79-826q-4-4-4-6.5t5-7.5q5-5 7-5t7 5l734 734q4 4 4.5 6.5T828-92q-5 5-7.5 5t-7.5-5ZM244-671l20 20v437h429l18 18v54q0 17.575-14 29.787Q683-100 664-100H296q-21.7 0-36.85-15.15Q244-130.3 244-152v-519Zm20 477v42q0 14 9 23t23 9h363q14 0 23-9t9-23v-42H264Zm452-614v490l-20-20v-408H289l-46-46v-13q-2-23 13-39t40-16h368q22 0 37 15t15 37Zm-446 42h426v-42q0-14-9-23t-23-9H302q-14 0-23 9t-9 23v42Zm-6 572v74-74Zm6-572v-74 74Z"/></svg>