<svg xmlns="http://www.w3.org/2000/svg" height="20" viewBox="0 -960 960 960" width="20"><path d="M791.696-72.956 67.434-796.653q-12.696-12.696-12.196-27.826.5-15.131 13.196-27.827 12.696-12.695 28.392-12.695 15.695 0 28.391 12.695l723.132 723.697q12.696 12.696 12.696 27.827 0 15.13-12.696 27.826T820.023-60.26q-15.631 0-28.327-12.696ZM174.477-740.828l98.002 98.002v394.347h406.347l101.697 101.697v29.434q0 36.314-27.638 61.593-27.638 25.278-65.364 25.278H272.479q-41.005 0-69.503-28.499-28.499-28.498-28.499-69.503v-612.349Zm98.002 564.349v48h410.042v-48H272.479Zm513.044-655.042V-294l-98.002-98.001v-319.52H367.436L195.87-881.957q10.826-22.696 31.5-35.131 20.674-12.435 47.935-12.435h412.216q40.305 0 69.153 28.849 28.849 28.848 28.849 69.153Zm-494.609 48h396.607v-48H290.914v48Zm-18.435 607.042v48-48Zm18.435-607.042v-48 48Z"/></svg>