<svg xmlns="http://www.w3.org/2000/svg" height="20" viewBox="0 -960 960 960" width="20"><path d="M168-213.999q-41.005 0-69.503-28.498Q69.999-270.995 69.999-312v-336q0-41.005 28.498-69.503 28.498-28.498 69.503-28.498h624q41.005 0 69.503 28.498 28.498 28.498 28.498 69.503v336q0 41.005-28.498 69.503-28.498 28.498-69.503 28.498H168ZM371.96-336h215.757Q603-336 613.5-346.289q10.5-10.29 10.5-25.5Q624-387 613.662-397.5 603.323-408 588.04-408H372.283Q357-408 346.5-397.711q-10.5 10.29-10.5 25.5Q336-357 346.338-346.5 356.677-336 371.96-336ZM240-456h72v-72h-72v72Zm102 0h72v-72h-72v72Zm102 0h72v-72h-72v72Zm102 0h72v-72h-72v72Zm102 0h72v-72h-72v72Zm-408-96h72v-72h-72v72Zm102 0h72v-72h-72v72Zm102 0h72v-72h-72v72Zm102 0h72v-72h-72v72Zm102 0h72v-72h-72v72Z"/></svg>