<svg xmlns="http://www.w3.org/2000/svg" height="24" viewBox="0 -960 960 960" width="24"><path d="M184.615-240Q157-240 138.5-258.5 120-277 120-304.615v-350.77Q120-683 138.5-701.5 157-720 184.615-720h590.77Q803-720 821.5-701.5 840-683 840-655.385v350.77Q840-277 821.5-258.5 803-240 775.385-240h-590.77ZM360-329.231h240q12.385 0 21.577-8.807 9.192-8.808 9.192-21.962 0-12.385-9.192-21.577-9.192-9.192-21.577-9.192H360q-12.385 0-21.577 8.807-9.192 8.808-9.192 21.962 0 12.385 9.192 21.577 9.192 9.192 21.577 9.192Zm-150.769-120h61.538v-61.538h-61.538v61.538Zm120 0h61.538v-61.538h-61.538v61.538Zm120 0h61.538v-61.538h-61.538v61.538Zm120 0h61.538v-61.538h-61.538v61.538Zm120 0h61.538v-61.538h-61.538v61.538Zm-480-120h61.538v-61.538h-61.538v61.538Zm120 0h61.538v-61.538h-61.538v61.538Zm120 0h61.538v-61.538h-61.538v61.538Zm120 0h61.538v-61.538h-61.538v61.538Zm120 0h61.538v-61.538h-61.538v61.538Z"/></svg>