<svg xmlns="http://www.w3.org/2000/svg" height="24" viewBox="0 -960 960 960" width="24"><path d="M347.326-73.391V-173.63Q242.043-213.5 175.88-307.076T109.717-519.37q0-77.152 29.218-144.445 29.217-67.294 79.152-117.348 49.935-50.055 117.348-79.272Q402.848-889.652 479-889.652t143.946 29.217q67.793 29.217 118.228 79.272 50.435 50.054 79.772 117.348 29.337 67.293 29.337 144.445 0 118.718-66.544 211.533-66.543 92.815-171.065 133.446v101h-91v-77.935q-10.478 2-20.957 2.12-10.478.119-21.717.119-10.478 0-20.457-.5-9.978-.5-20.217-1.739v77.935h-91Zm-22.543-522.305h310.434v-89.565H324.783v89.565Zm127.608 322.392 123.587-123.587-50-50 47.609-47.609-65.978-65.978-123.587 123.587 50 50-47.609 47.608 65.978 65.979Z"/></svg>