<svg xmlns="http://www.w3.org/2000/svg" height="20" viewBox="0 -960 960 960" width="20"><path d="M330.042-75.651v-119.565q-97.304-41.783-153.826-130.327-56.522-88.544-56.522-196.239 0-75.088 28.296-140.46 28.296-65.373 76.954-114.314 48.658-48.94 114.313-77.236Q404.913-882.088 480-882.088q75.087 0 140.497 28.296 65.41 28.296 114.217 77.236 48.806 48.941 77.199 114.314 28.393 65.372 28.393 140.46 0 106.695-56.239 195.804-56.239 89.109-154.109 131.327v119h-98.001v-90.391q-13.131 2-26.261 3.283-13.131 1.282-25.696 1.282-13.544 0-26.468-1.5-12.923-1.5-25.489-3.065v90.39h-98.001Zm17.263-514.175h265.39v-94.609h-265.39v94.609Zm104.347 305.653 126.479-126.479-48-48 42.348-42.347-64.131-64.131-126.479 126.478 48 48-42.348 42.348 64.131 64.131Z"/></svg>