<svg xmlns="http://www.w3.org/2000/svg" height="20" viewBox="0 -960 960 960" width="20"><path d="M307-60v-120q-96-47-151-137.5T101-517q0-79 29.6-147.633 29.6-68.634 80.867-120.4 51.266-51.767 120.4-81.367Q401-896 480-896q79 0 147.671 29.6 68.67 29.6 120.085 81.367 51.415 51.766 81.329 120.4Q859-596 859-517q0 108-54.5 199.5T653-179v119H535v-83q-14 2-28 3.5t-27 1.5q-14.414 0-28.207-1.5Q438-141 425-143v83H307Zm49-522h248v-112H356v112Zm100 310 133-133-48-48 38-38-75-75-133 133 48 48-38 38 75 75Z"/></svg>