<svg xmlns="http://www.w3.org/2000/svg" height="24" viewBox="0 -960 960 960" width="24"><path d="M607.783-340q58.371 0 99.14-40.86t40.769-99.23q0-58.371-40.86-99.141Q665.973-620 607.602-620t-99.14 40.86q-40.77 40.859-40.77 99.23t40.86 99.141Q549.412-340 607.783-340Zm-.091 40Q538-300 486.846-345.384 435.692-390.769 428.615-460H278.462q-8.501 0-14.251-5.758-5.75-5.757-5.75-14.269t5.75-14.242q5.75-5.731 14.251-5.731h150.153q3.462-36.615 21.577-67.5 18.115-30.885 47.5-52.5H200q-8.5 0-14.25-5.758-5.75-5.757-5.75-14.269t5.75-14.242Q191.5-660 200-660h407.692q74.7 0 127.35 52.617 52.65 52.616 52.65 127.269t-52.65 127.383Q682.392-300 607.692-300Z"/></svg>