<svg xmlns="http://www.w3.org/2000/svg" height="24" viewBox="0 -960 960 960" width="24"><path d="M480-315.696q105.348-95.108 135.065-133.445 29.718-38.337 29.718-76.549 0-37.18-26.778-63.897-26.777-26.717-63.853-26.717-21.717 0-41.695 8.739-19.979 8.739-32.457 24.217-12.478-15.478-32.046-24.217-19.568-8.739-42.226-8.739-37.076 0-63.793 26.755-26.718 26.755-26.718 63.801 0 19.552 5.239 36.031 5.24 16.478 22.598 38.576 17.359 22.098 49.816 53.935 32.456 31.836 87.13 81.51Zm0 244.066q-142.532-35.672-235.331-162.562-92.8-126.89-92.8-281.808v-249.61L480-888.37l328.131 122.76V-516q0 154.918-92.8 281.808Q622.532-107.302 480-71.63Z"/></svg>