<svg xmlns="http://www.w3.org/2000/svg" height="20" viewBox="0 -960 960 960" width="20"><path d="M480-320q114-103 145-142.5t31-81.568q0-40.114-28.773-68.523T558.615-641Q535-641 514-631q-21 10-34 26-14-16-35.375-26T400.5-641q-39.682 0-68.091 28.43Q304-584.14 304-544.776q0 20.776 6.5 39.276 6.5 18.5 24.433 41.797 17.934 23.298 52.384 56.785Q421.767-373.431 480-320Zm0 259Q330.231-96.81 232.116-226.647 134-356.484 134-515v-252.462L480-899l346 131.538V-515q0 158.516-98.116 288.353Q629.769-96.81 480-61Z"/></svg>