<svg xmlns="http://www.w3.org/2000/svg" height="24" viewBox="0 -960 960 960" width="24"><path d="M480-356q78-71 99.5-98.5t21.5-55.324q0-27.072-19.795-46.624Q561.409-576 534-576q-17 0-31.147 6.375Q488.706-563.25 480-552q-9-11.25-23.25-17.625T426-576q-27 0-47 19.5t-20 46.638q0 14.324 3.864 26.385 3.863 12.062 17 28.269Q393-439 416.625-415.609 440.25-392.218 480-356Zm0 222q-115-36-191.5-142T212-516v-208l268-100 268 100v208q0 134-76.5 240T480-134Zm0-30q104-33 172-132t68-220v-189l-240-89-240 89v189q0 121 68 220t172 132Zm0-315Z"/></svg>