<svg xmlns="http://www.w3.org/2000/svg" height="20" viewBox="0 -960 960 960" width="20"><path d="M480-374q76-69 96.5-95t20.5-53.824q0-26.254-19.318-45.215Q558.363-587 531.615-587q-16.615 0-30.262 6.875Q487.706-573.25 480-563q-9-10.25-23.25-17.125T428-587q-26.182 0-45.591 18.771Q363-549.458 363-523.329q0 13.791 4.364 26.352 4.363 12.562 16.933 28.067t35.145 37.883Q442.017-408.65 480-374Zm0 224q-111-34-185.5-135.343Q220-386.686 220-515v-193l260-100 260 100v193q0 128.314-74.5 229.657Q591-184 480-150Z"/></svg>