<svg xmlns="http://www.w3.org/2000/svg" height="24" viewBox="0 -960 960 960" width="24"><path d="M927.413-562.348q-72.717 0-139.435-27.619-66.717-27.62-118.434-79.337-51.718-51.718-79.337-118.492-27.62-66.773-27.62-139.617h86.935q0 56.282 20.88 106.804 20.881 50.522 60.401 90.055 39.519 39.534 89.907 60.783 50.388 21.249 106.703 21.249v86.174Zm0-162.587q-41 0-77.5-15.061t-65.5-44.178q-29-29-44.119-65.577-15.12-36.576-15.12-77.662h86.652q0 23.565 8.903 44.511 8.902 20.945 24.945 37.108 16.044 16.163 37.16 24.685 21.117 8.522 44.579 8.522v87.652ZM395.337-448.37q-69.707 0-118.979-49.272-49.271-49.271-49.271-118.858t49.271-118.859q49.272-49.272 118.859-49.272 69.587 0 118.859 49.272 49.272 49.272 49.272 118.859 0 69.587-49.152 118.858-49.153 49.272-118.859 49.272ZM67.087-112.348v-120.369q0-36.587 19.272-67.261 19.271-30.674 49.271-45.674 51-26 116.794-44.359 65.793-18.359 142.793-18.359t142.794 18.12q65.793 18.119 116.793 44.119 30 15 49.272 45.913 19.272 30.914 19.272 67.501v120.369H67.087Zm91-91h474.261v-28.174q0-11-5.5-19.641-5.5-8.641-14.5-13.641-36-18-92.022-35.283-56.022-17.283-125.109-17.283-69.087 0-125.108 17.403-56.022 17.402-92.022 35.215-9 4.948-14.5 13.589t-5.5 19.641v28.174ZM395.209-539.37q31.813 0 54.476-22.655 22.663-22.654 22.663-54.467t-22.655-54.476q-22.654-22.663-54.467-22.663t-54.476 22.655q-22.663 22.654-22.663 54.467t22.654 54.476q22.655 22.663 54.468 22.663Zm.008-77.13Zm0 413.152Z"/></svg>