<svg xmlns="http://www.w3.org/2000/svg" height="20" viewBox="0 -960 960 960" width="20"><path d="M480-148q-59 0-110.633-22.1-51.634-22.1-90.4-60.867-38.767-38.766-60.867-90.4Q196-373 196-432q0-59 22.1-110.633 22.1-51.634 60.867-90.4 38.766-38.767 90.4-60.867Q421-716 480-716q59 0 110.633 22.1 51.634 22.1 90.4 60.867 38.767 38.766 60.867 90.4Q764-491 764-432q0 59-22.1 110.633-22.1 51.634-60.867 90.4-38.766 38.767-90.4 60.867Q539-148 480-148Zm0-284Zm118 118 15-15-123-123v-172h-20v182l128 128ZM253-789l15 15-130 130-15-15 130-130Zm454 0 130 130-15 15-130-130 15-15ZM479.778-168Q589-168 666.5-245.278q77.5-77.279 77.5-186.5Q744-541 666.722-618.5q-77.279-77.5-186.5-77.5Q371-696 293.5-618.722q-77.5 77.279-77.5 186.5Q216-323 293.278-245.5q77.279 77.5 186.5 77.5Z"/></svg>