<svg xmlns="http://www.w3.org/2000/svg" height="24" viewBox="0 -960 960 960" width="24"><path d="M480-120q-66.539 0-124.731-25.038-58.192-25.039-101.692-68.539-43.5-43.5-68.539-101.692Q160-373.461 160-440q0-66.539 25.038-124.731 25.039-58.192 68.539-101.692 43.5-43.5 101.692-68.539Q413.461-760 480-760q66.539 0 124.731 25.038 58.192 25.039 101.692 68.539 43.5 43.5 68.539 101.692Q800-506.539 800-440q0 66.539-25.038 124.731-25.039 58.192-68.539 101.692-43.5 43.5-101.692 68.539Q546.539-120 480-120Zm125.846-165.846 28.308-28.308L500-448.308V-640h-40v208.308l145.846 145.846ZM236.308-822.923l28.307 28.308-139.23 139.23-28.308-28.307 139.231-139.231Zm487.384 0 139.231 139.231-28.308 28.307-139.23-139.23 28.307-28.308Z"/></svg>