<svg xmlns="http://www.w3.org/2000/svg" height="20" viewBox="0 -960 960 960" width="20"><path d="M324-268v70q0 .833-.618 1.417-.617.583-1.5.583-.882 0-1.382-.583-.5-.584-.5-1.417v-73q-25-4-50.5-36T244-380v-340q0-45.025 45.48-68.513Q334.959-812 479.967-812 623-812 669.5-788.025T716-720v340q0 41-25.5 73T640-271v73q0 .833-.618 1.417-.617.583-1.5.583-.882 0-1.382-.583-.5-.584-.5-1.417v-70H324Zm156.18-448H706 251h229.18ZM624-480H264h432-72Zm-360-20h432v-196H264v196Zm96.235 144Q372-356 380-364.235q8-8.236 8-20Q388-396 379.765-404q-8.236-8-20-8Q348-412 340-403.765q-8 8.236-8 20Q332-372 340.235-364q8.236 8 20 8Zm240 0Q612-356 620-364.235q8-8.236 8-20Q628-396 619.765-404q-8.236-8-20-8Q588-412 580-403.765q-8 8.236-8 20Q572-372 580.235-364q8.236 8 20 8ZM251-716h455q-14-47-65.5-61.5T478-792q-107 0-160 14t-67 62Zm85.055 428h288.222Q654-288 675-309.15T696-360v-120H264v120q0 30 21.166 51 21.167 21 50.889 21Z"/></svg>