<svg xmlns="http://www.w3.org/2000/svg" height="20" viewBox="0 -960 960 960" width="20"><path d="M145-624q-18.7 0-31.35-12.589-12.65-12.59-12.65-31.2 0-18.186 12.65-30.698Q126.3-711 145-711h156q24.388 0 39.194 19Q355-673 356-648v24H145Zm91.706 360Q278-264 306-292.583q28-28.584 28-70.417 0-40.167-28-67.583Q278-458 236-458t-69.5 27.417Q139-403.167 139-363q0 41.833 28.206 70.417Q195.412-264 236.706-264Zm535.235 15Q799-249 817.5-267.735q18.5-18.736 18.5-45.5Q836-340 817.265-358.5q-18.736-18.5-45.5-18.5Q745-377 726-358.265q-19 18.736-19 45.5Q707-286 725.941-267.5t46 18.5Zm-536.117-79Q222-328 213-337.676q-9-9.677-9-23.5 0-13.824 9-23.324 9-9.5 22.824-9.5 13.823 0 23.5 9.676 9.676 9.677 9.676 23.5 0 13.824-9.676 23.324-9.677 9.5-23.5 9.5ZM791-479.049Q818-476 846-462.5t48 36.5v-210q0-48.675-34.662-83.338Q824.675-754 776-754H564l-57-56 48-48-55-55-153 152 55 55 48-48 56 54v76q0 22.7-14.65 39.85Q476.7-567 454-567H314q37 17 61.5 37t42.5 50h42q55.925 0 94.463-42Q593-564 593-624v-27h198v171.951ZM604-305q0-31 6.5-55t27.5-48H446q6 24 5.5 50.5T445-305h159Zm167.758 159q-69.287 0-118.022-48.978Q605-243.956 605-313.242q0-69.287 48.978-118.022Q702.956-480 772.242-480q69.287 0 118.022 49.185Q939-381.63 939-312.051q0 69.58-48.978 117.815Q841.044-146 771.758-146ZM237-146q-90.545 0-153.272-63.473Q21-272.945 21-363q0-88.395 62.954-150.698Q146.907-576 236.226-576q89.319 0 152.547 62.302Q452-451.395 452-363q0 90.055-62.888 153.527Q326.225-146 237-146Zm395-384Z"/></svg>