<svg xmlns="http://www.w3.org/2000/svg" height="20" viewBox="0 -960 960 960" width="20"><path d="M140-610q-4.25 0-7.125-2.825-2.875-2.824-2.875-7 0-4.175 2.875-7.175t7.125-3h162q1.388 0 4.194-2T318-634v24H140Zm86.706 358Q282-252 320.5-291.083 359-330.167 359-386q0-54.167-38.5-92.083Q282-516 226-516t-94 37.917Q94-440.167 94-386q0 55.833 38.706 94.917 38.706 39.083 94 39.083ZM768-252q40 0 69-29t29-69q0-40-29-69t-69-29q-40 0-69 29t-29 69q0 40 29 69t69 29ZM225.765-356Q214-356 206-364.235q-8-8.236-8-20Q198-396 206.235-404q8.236-8 20-8Q238-412 246-403.765q8 8.236 8 20Q254-372 245.765-364q-8.236 8-20 8ZM790-466q2 0 10 2t10 1v-165q0-21.45-15.275-36.725Q779.45-680 758-680H588l-59-59 51-51-34-34-136 136 34 34 51-51 59 59v22q0 46.2-32.9 79.1Q488.2-512 442-512H307q9 5 19 11l15 9h107q52.925 0 89.463-38Q574-568 574-624v-36h184q14 0 23 9t9 23v162ZM653-362q-3-1-4.571-8.226Q646.857-377.453 644-382H381q-1 .07-2.5 9.035T376-362h277Zm114.758 130Q718-232 684-266.242q-34-34.243-34-84Q650-400 684.242-434q34.243-34 84-34Q818-468 852-433.551q34 34.45 34 84.5Q886-299 851.758-265.5q-34.243 33.5-84 33.5ZM227-232q-64.4 0-108.7-45.045T74-386q0-62.25 44.526-106.125T226.226-536q63.174 0 107.974 43.875Q379-448.25 379-386q0 63.91-44.46 108.955T227-232Zm361-289Z"/></svg>