<svg xmlns="http://www.w3.org/2000/svg" height="24" viewBox="0 -960 960 960" width="24"><path d="M229.231-190.769q-70.231 0-119.731-49.5T60-360q0-70.231 49.5-119.731t119.731-49.5q70.231 0 119.731 49.5T398.462-360q0 70.231-49.5 119.731t-119.731 49.5Zm-.181-124.616q-18.665 0-31.55-13.065-12.885-13.066-12.885-31.731t13.066-31.55q13.066-12.884 31.731-12.884t31.55 13.065q12.884 13.066 12.884 31.731t-13.065 31.55q-13.066 12.884-31.731 12.884ZM780-190.769q-50.308 0-85.154-34.846T660-310.769q0-50.308 34.846-85.154T780-430.769q50.308 0 85.154 34.846T900-310.769q0 50.308-34.846 85.154T780-190.769ZM147.692-589.231q-8.5 0-14.25-5.758-5.75-5.757-5.75-14.269 0-8.511 5.75-14.242 5.75-5.731 14.25-5.731h124.616q19.154 0 34.192 11.192 15.039 11.193 21.193 28.808H147.692Zm81.539 358.462q53.846 0 91.538-37.693 37.693-37.692 37.693-91.538t-37.693-91.538q-37.692-37.693-91.538-37.693t-91.539 37.693Q100-413.846 100-360t37.692 91.538q37.693 37.693 91.539 37.693Zm550.769 0q32.692 0 56.346-23.654Q860-278.077 860-310.769q0-32.692-23.654-56.346-23.654-23.654-56.346-23.654-32.692 0-56.346 23.654Q700-343.461 700-310.769q0 32.692 23.654 56.346 23.654 23.654 56.346 23.654ZM427.539-340H632q13.077-55.077 55.894-87.308 42.817-32.231 96.644-32.231 13.566 0 26.86 2.385 13.295 2.385 27.064 7.923v-175.384q0-26.654-18.981-45.635-18.981-18.981-45.635-18.981H568l-42-44 42-42q6-6 6-14t-6-14q-6-6-14-6t-14 6l-113 113q-6 6-5.5 14.5t6.5 14.5q6 6 14 6t14-6l42-42 42 42V-600q0 45.692-32.539 78.231-32.538 32.538-78.23 32.538h-47.385q23.077 27.615 35.5 60.923Q429.77-395 429-359.231q0 4.872-.5 9.744t-.961 9.487Z"/></svg>