<svg xmlns="http://www.w3.org/2000/svg" height="20" viewBox="0 -960 960 960" width="20"><path d="M217.292-110Q193-110 175.5-127.289q-17.5-17.29-17.5-41.5Q158-193 175.344-210.5q17.345-17.5 41.637-17.5h525.727Q767-228 784.5-210.711q17.5 17.29 17.5 41.5Q802-145 784.656-127.5 767.311-110 743.019-110H217.292ZM329-280q-72 0-121.5-49.5T158-451v-265q0-55.708 39.146-94.854T292-850h489q48.263 0 82.631 34.65Q898-780.7 898-733v144q0 47.7-34.369 82.35Q829.263-472 781-472h-53v21q0 72-50.225 121.5T556-280H329Zm1-452h280-334 54Zm398 143h52v-144h-52v144ZM555-398q22.688 0 38.844-15.862Q610-429.725 610-452v-280H444v48l65 65q3 3 7 17v134q0 9.6-7.2 16.8-7.2 7.2-16.8 7.2H348q-9.6 0-16.8-7.2-7.2-7.2-7.2-16.8v-134.419Q324-604 331-619l65-65v-48H276v280q0 22.275 15.862 38.138Q307.725-398 330-398h225ZM376-732h48-48Z"/></svg>