<svg xmlns="http://www.w3.org/2000/svg" height="24" viewBox="0 -960 960 960" width="24"><path d="M160-295.385q-16.846-6.153-28.423-21.192Q120-331.615 120-350.769v-306.308q0-10.385 5.423-19.116 5.423-8.73 15.808-14.423l269.692-134.461q13.923-7.231 29.077-7.346 15.154-.116 29.077 7.346l263.692 134.461q8.923 3.693 13.962 12.847 5.038 9.153 7.269 19.307h-45.462L440-794.615l-280 139v360.23ZM295.385-160q-26.847 0-45.731-18.884-18.885-18.885-18.885-45.731v-298.462q0-26.846 18.885-45.731 18.884-18.885 45.731-18.885h480q26.846 0 45.731 18.885Q840-549.923 840-523.077v298.462q0 26.846-18.884 45.731Q802.231-160 775.385-160h-480Zm240-218.308q7.692 0 15.269-2t14.038-5.461l224.769-113.462q5.154-2.692 7.847-7.346Q800-511.231 800-516.615q0-10.77-8.923-16.539-8.923-5.769-19.231-.615L535.385-413.692 298.923-533.769q-9.538-5.154-18.846.615t-9.308 16.539q0 5.384 2.693 10.038 2.692 4.654 7.846 7.346l224.769 113.462q6.461 3.461 14.038 5.461 7.577 2 15.27 2Z"/></svg>