<svg xmlns="http://www.w3.org/2000/svg" height="20" viewBox="0 -960 960 960" width="20"><path d="M480.044-130q-61.583 0-115.408-23.138-53.826-23.139-94.093-63.405-40.266-40.267-63.405-94.049Q184-364.374 184-425.956q0-61.583 23.138-115.408 23.139-53.826 63.405-94.093 40.267-40.266 94.063-63.405Q418.402-722 480-722h16.231l-44.462-44.462q-5.615-5.615-6-11.654-.384-6.038 5.355-11.654 6.261-5.615 11.799-4.846 5.539.77 10.385 5.616l63.385 62.615q8.692 8.329 8.692 19.434t-8.692 19.797l-60.847 61.616q-5.615 5.615-11.269 6-5.654.384-11.915-5.231-5.739-5.616-5.47-11.721.27-6.104 5.116-10.587L495.231-690H480q-109 0-186.5 77.5T216-426q0 109 77.5 186.5T480-162q109 0 186.5-77.5T744-426q0-6.8 4.547-11.4 4.547-4.6 11.27-4.6 6.722 0 11.452 4.6Q776-432.8 776-426q0 61.598-23.138 115.394-23.139 53.796-63.405 94.063-40.267 40.266-94.049 63.405Q541.626-130 480.044-130ZM377.087-486.308h-31.528q-4.995 0-8.508-3.302-3.513-3.303-3.513-8.354 0-5.051 3.28-8.39 3.28-3.338 8.296-3.338h43.152q5.016 0 8.529 3.297 3.513 3.298 3.513 8.341v143.677q0 5.044-3.303 8.557-3.303 3.512-8.354 3.512-4.98 0-8.272-3.312-3.292-3.313-3.292-8.38v-132.308Zm110.605 144q-10.2 0-17.1-6.9-6.9-6.9-6.9-17.1v-119.384q0-10.2 6.9-17.1 6.9-6.9 17.1-6.9h86.77q10.2 0 17.1 6.9 6.9 6.9 6.9 17.1v119.384q0 10.2-6.9 17.1-6.9 6.9-17.1 6.9h-86.77Zm8.616-23.384h69.538q4.615 0 6.923-2.308t2.308-6.923v-102.154q0-4.615-2.308-6.923t-6.923-2.308h-69.538q-4.616 0-6.923 2.308-2.308 2.308-2.308 6.923v102.154q0 4.615 2.308 6.923 2.307 2.308 6.923 2.308Z"/></svg>