<svg xmlns="http://www.w3.org/2000/svg" height="24" viewBox="0 -960 960 960" width="24"><path d="M480.117-57.39q-79.074 0-148.248-29.913-69.174-29.913-120.5-81.24-51.326-51.326-81.24-120.383-29.913-69.058-29.913-148.131t29.913-147.965q29.914-68.891 81.522-120.218 51.609-51.326 120.704-81.239 69.094-29.913 148.21-29.913h6l-25.521-25.521q-13.131-13.131-13.196-31.392-.065-18.261 12.631-31.391 13.13-13.696 31.891-13.913 18.761-.218 31.892 12.913l104.695 104.695q15.957 16.163 15.957 37.712 0 21.55-15.957 37.507L524.262-621.087q-13.131 13.131-31.892 12.914-18.761-.218-31.891-13.348-12.696-13.131-12.913-31.109-.218-17.979 12.913-31.109l26.651-26.652h-6.565q-114.174 0-194.26 79.528-80.087 79.527-80.087 193.695 0 114.168 79.69 193.972 79.69 79.805 194.092 79.805 114.402 0 194.092-79.526 79.69-79.526 79.69-193.692 0-22.087 15.457-37.543 15.457-15.457 37.544-15.457 22.087 0 37.544 15.457 15.457 15.456 15.457 37.543 0 78.392-29.914 147.566-29.913 69.174-81.239 120.5-51.326 51.327-120.384 81.24Q559.19-57.39 480.117-57.39ZM350.391-493.217h-24.913q-13.735 0-22.715-9.348-8.981-9.348-8.981-23.031 0-13.684 9.348-22.631 9.348-8.947 22.913-8.947h59.435q13.735 0 22.715 8.981 8.981 8.98 8.981 22.715v180.565q0 14.131-9.631 23.761-9.63 9.631-23.761 9.631-14.13 0-23.761-9.631-9.63-9.63-9.63-23.761v-148.304Zm146.783 181.696q-17 0-28.5-11.5t-11.5-28.5v-165.653q0-17 11.5-28.5t28.5-11.5h94.131q17 0 28.5 11.5t11.5 28.5v165.653q0 17-11.5 28.5t-28.5 11.5h-94.131Zm27.348-63.957h40v-117.739h-40v117.739Z"/></svg>