<svg xmlns="http://www.w3.org/2000/svg" height="20" viewBox="0 -960 960 960" width="20"><path d="M231-17q-48.675 0-83.337-34.663Q113-86.325 113-135v-690q0-48.675 34.663-83.338Q182.325-943 231-943h402q48.675 0 83.338 34.662Q751-873.675 751-825v153H633v-33H231v450h402v-33h118v153q0 48.675-34.662 83.338Q681.675-17 633-17H231Zm401-472 171.105-170.105Q820-676 841.5-675q21.5 1 38.5 18t17 38.5q0 21.5-16.721 38.221L675-374q-18.273 18-42.636 18Q608-356 590-374L486-479q-17-17-16.5-38.5T487-556q17-17 38.5-17t38.5 17l68 67Z"/></svg>