<svg xmlns="http://www.w3.org/2000/svg" height="24" viewBox="0 -960 960 960" width="24"><path d="M264.615-80q-26.846 0-45.731-18.884Q200-117.77 200-144.615v-670.77q0-26.846 18.884-45.731Q237.769-880 264.615-880h350.77q26.846 0 45.731 18.884Q680-842.231 680-815.385v132.308h-40V-740H240v520h400v-56.923h40v132.308q0 26.846-18.884 45.73Q642.231-80 615.385-80h-350.77ZM240-180v35.385q0 9.23 7.692 16.923Q255.385-120 264.615-120h350.77q9.23 0 16.923-7.692Q640-135.385 640-144.615V-180H240Zm358-224.308 213.385-213.384q5.615-5.616 13.769-6 8.154-.385 14.538 6 6.385 6.384 6.385 14.154 0 7.769-6.385 14.153L620.615-370.308q-9.692 9.693-22.615 9.693-12.923 0-22.615-9.693L469.846-475.846q-5.615-5.615-6-13.769-.385-8.154 6-14.539T484-510.539q7.769 0 14.154 6.385L598-404.308ZM240-780h400v-35.385q0-9.23-7.692-16.923Q624.615-840 615.385-840h-350.77q-9.23 0-16.923 7.692Q240-824.615 240-815.385V-780Zm0 0V-840v60Zm0 600V-120v-60Z"/></svg>