<svg xmlns="http://www.w3.org/2000/svg" height="20" viewBox="0 -960 960 960" width="20"><path d="M240.615-88q-23.546 0-40.081-16.534Q184-121.069 184-144.615v-670.77q0-23.546 16.534-40.081Q217.069-872 240.615-872h382.77q23.546 0 40.081 16.534Q680-838.931 680-815.385v140.308h-32V-740H216v520h432v-64.923h32v140.308q0 23.546-16.534 40.081Q646.931-88 623.385-88h-382.77ZM592-410.308l211.49-211.49q5.51-5.51 10.664-5.394 5.154.115 11.538 6.5 6.385 6.384 6.385 11.654 0 5.269-6.106 11.375L612.615-384.308q-8.601 8.693-20.07 8.693-11.468 0-20.16-8.693L461.846-494.846q-5.615-5.615-6-10.769-.385-5.154 6-11.539t11.654-6.385q5.269 0 11.654 6.385L592-410.308Z"/></svg>