<svg xmlns="http://www.w3.org/2000/svg" height="24" viewBox="0 -960 960 960" width="24"><path d="M432.308-215.384H159.231q-17.616 0-29.577-11.962-11.962-11.961-11.962-29.577v-24.308q0-30.692 15.077-49.307 15.077-18.616 38.154-30.539 51-26 100.385-40.154 49.384-14.154 126.384-14.154 30 0 53.116 1.846 23.115 1.847 40.884 5.539l-36.154 36.154q-11-2-26.115-2.769-15.115-.77-31.731-.77-71 0-121.346 14.693Q226-346 190-326q-18.231 9.615-25.269 20.154-7.039 10.538-7.039 24.615v25.846h234.616l40 40.001ZM612-228.308l187.846-187.846q5.616-5.615 13.769-6 8.154-.385 14.539 6T834.539-402q0 7.769-6.385 14.154L634.615-194.308q-9.692 9.693-22.615 9.693-12.923 0-22.615-9.693l-73.539-73.538q-5.615-5.615-6-13.769-.385-8.154 6-14.539T530-302.539q7.769 0 14.154 6.385L612-228.308ZM397.692-504.615q-49.5 0-84.75-35.25t-35.25-84.75q0-49.501 35.25-84.751 35.25-35.25 84.75-35.25t84.751 35.25q35.25 35.25 35.25 84.751 0 49.5-35.25 84.75-35.251 35.25-84.751 35.25Zm-5.384 248.461Zm5.384-288.461q33 0 56.5-23.5t23.5-56.5q0-33-23.5-56.5t-56.5-23.5q-33 0-56.5 23.5t-23.5 56.5q0 33 23.5 56.5t56.5 23.5Zm0-80Z"/></svg>