<svg xmlns="http://www.w3.org/2000/svg" height="20" viewBox="0 -960 960 960" width="20"><path d="M425.692-470.461 370-271.077q-1 1.154-11.692 3.077-10.693 1.923-19.885 4-9.192 2.077-7.731 3.039Q332.154-260 356-260q-7 0-11.846-5.808-4.846-5.807-2.385-12.807l80.769-327.231-125.153 54v59.077q0 6.538-4.731 11.269t-11.269 4.731q-6.539 0-11.27-4.731t-4.731-11.269v-81.693l160.385-68q10-4 16.423-6 6.423-2 13.116-4.307Q479-655.077 494.923-648q15.923 7.077 28.154 25.769l13.692 22q31.539 52 55.423 76.616Q616.077-499 647.615-491q5.539 2.461 9.27 8.192t3.731 12.27q0 5.538-4.231 8.769t-8.77 1q-47.307-13.308-75.192-43.115-27.884-29.808-53.423-78.731l-32.231 123.538L556-375.231V-276q0 6.539-4.731 11.269Q546.539-260 540-260t-11.269-4.731Q524-269.461 524-276v-87.923l-98.308-106.538Zm101.539-224.77q-30.385 0-51.039-20.654t-20.654-51.038q0-30.385 20.654-51.039t51.039-20.654q30.384 0 51.038 20.654 20.654 20.654 20.654 51.039 0 30.384-20.654 51.038-20.654 20.654-51.038 20.654ZM480-136q-70.539 0-133.231-26.923-62.692-26.923-109.808-74.038-47.115-47.116-74.038-109.808Q136-409.461 136-480q0-96.308 49.692-178.769 49.692-82.462 134.077-126.539 6.077-4.154 13.154-1.077t8.462 9.385q1.384 7.077-.923 13-2.308 5.923-8.385 9.308-75.385 41.231-119.731 114.538Q168-566.846 168-480q0 130 91 221t221 91q125.846 0 216.769-86.385 90.923-86.384 95.769-210.769.462-6.307 4.808-9.808 4.346-3.5 10.654-3.5 6.539 0 11.269 6.5 4.731 6.501 4.27 13.039-7.846 135.231-107.616 229.077Q616.154-136 480-136Z"/></svg>