<svg xmlns="http://www.w3.org/2000/svg" height="24" viewBox="0 -960 960 960" width="24"><path d="M183.846-478q-10.231 0-16.192-6.923-5.962-6.923-3.27-16.923 6-31.923 17.923-59.923 11.924-28 28.77-53.077 5.384-7.769 14.884-8.616 9.5-.846 16.808 6.231 5.154 5.154 5.616 11.731.461 6.577-3.462 12.192-15.385 23.154-25.577 48.193-10.192 25.038-15.961 51.73-1.462 6.846-7.193 11.116Q190.461-478 183.846-478ZM438-144.615q0 11.231-7.308 17.077-7.307 5.846-17.308 3.154-30.153-7-58.538-18.808-28.385-11.808-53.692-28.654-7.769-5.385-8.616-14.5-.846-9.115 6.231-16.423 5.154-5.154 11.731-5.616 6.577-.461 12.192 3.462 23.154 15.385 48.193 25.192 25.038 9.808 50.961 14.808 6.846 1.461 11.5 7.577Q438-151.231 438-144.615ZM242.769-258.769q-7.308 7.077-16.808 6.231-9.5-.847-14.884-8.616-17.616-26.077-29.039-54.461-11.423-28.385-17.654-58.539-2.692-10 3.154-16.923Q173.384-398 183.846-398q6.846 0 12.462 4.269 5.615 4.27 7.077 11.116 5.769 26.692 15.961 51.73 10.192 25.039 25.577 48.193Q248.846-277.077 248-270q-.846 7.077-5.231 11.231Zm298.847 134.154q-10.001 2.692-16.808-3.154Q518-133.615 518-143.846q0-6.846 4.269-12.462 4.27-5.615 11.116-7.077 98.154-20.923 161.384-97.73Q758-337.923 758-438q0-117-81.5-198.5T478-718h-31.077l69.846 69.846q6.385 6.385 6.385 14.154t-6.385 14.154q-6.384 6.384-14.154 6.384-7.769 0-14.154-6.384l-95.538-95.539q-5.231-5.23-7.346-10.692-2.116-5.462-2.116-11.923 0-6.462 2.116-11.923 2.115-5.462 7.346-10.693l95.308-95.538q6.615-6.385 14.384-6.385 7.77 0 14.154 6.385 6.616 6.615 6.616 14.385 0 7.769-6.385 14.154L447.385-758H478q133.077 0 226.539 93.461Q798-571.077 798-438q0 115.539-72.538 203.077-72.539 87.539-183.846 110.308Z"/></svg>