<svg xmlns="http://www.w3.org/2000/svg" height="24" viewBox="0 -960 960 960" width="24"><path d="M168.911-750.173v540.346q-18.13-20.957-33.13-44.196-15-23.239-26.87-48.327v-355.3q11.87-25.088 26.87-48.327 15-23.239 33.13-44.196Zm174.697-119.74v779.827q-21-7.566-41-16.914-20-9.348-39-20.913v-704.174q19-11.565 39-20.913t41-16.913Zm309.393 765.392v-750.958q106.565 49.261 173.282 149.522Q893.001-605.696 893.001-480t-66.718 225.957q-66.717 100.261-173.282 149.522ZM480-66.999q-10.565 0-20.848-.5-10.282-.5-20.848-1.5v-822.002q10.566-1 20.848-1.5 10.283-.5 20.848-.5 20 0 39.435 1.718 19.435 1.717 38.869 5.717v811.132q-19.434 4-38.869 5.717Q500-66.999 480-66.999Z"/></svg>