<svg xmlns="http://www.w3.org/2000/svg" height="24" viewBox="0 -960 960 960" width="24"><path d="M210.769-748.308v536.616Q186.846-235.615 168-263.461t-32.615-58.616v-315.846q13.769-30.77 32.615-58.616 18.846-27.846 42.769-51.769Zm150.769-92.923v722.462q-30.23-10.077-58.307-24.731-28.077-14.654-52.462-34.115v-604.77q24.385-19.461 52.462-34.115 28.077-14.654 58.307-24.731Zm230.77 723.616v-724.77q116.769 35.462 192.231 134.231Q860-609.385 860-480t-75.461 228.154q-75.462 98.769-192.231 134.231ZM480-100q-20 0-39.615-2.423-19.616-2.423-38.846-6.5v-742.154q19.23-4.077 38.846-6.5Q460-860 480-860q18.462 0 36.538 2 18.077 2 35.77 5.231v745.538Q534.615-104 516.538-102q-18.076 2-36.538 2Z"/></svg>