<svg xmlns="http://www.w3.org/2000/svg" height="24" viewBox="0 -960 960 960" width="24"><path d="M480-491q-26 0-44.5-18.5T417-554v-286q0-26 18.5-44.5T480-903q26 0 44.5 18.5T543-840v286q0 26-18.5 44.5T480-491Zm0 314q-147 0-250.5-103.5T126-531q0-69 23-130.5T213-765q18-20 44-21.5t46 15.5q21 17 21 44t-17 49q-26 30-40.5 67.5T252-531q0 95 66.5 161.5T480-303q95 0 161.5-66.5T708-531q0-45-16.5-85.5T643-690q-19-20-18-47t22.391-44.217Q667-797 692-795.5t43 19.5q48 46 73.5 110.076T834-531q0 147-103.5 250.5T480-177ZM305.07 0Q283 0 267.5-14.93t-15.5-37Q252-74 267.5-89.5t37.57-15.5q22.07 0 37 15.5T357-51.93q0 22.07-14.93 37T305.07 0ZM480 0q-21 0-36-14.93t-15-37Q429-74 444-89.5t36.5-15.5q21.5 0 36.5 15.5t15 37.57q0 22.07-14.95 37T480 0Zm177.07 0Q635 0 620-14.93t-15-37Q605-74 619.93-89.5t37-15.5Q679-105 694-89.5t15 37.57q0 22.07-14.93 37T657.07 0Z"/></svg>