<svg xmlns="http://www.w3.org/2000/svg" height="24" viewBox="0 -960 960 960" width="24"><path d="M479.965-480Q474-480 470-484.025T466-494v-286q0-5.95 4.035-9.975 4.035-4.025 10-4.025t9.965 4.025q4 4.025 4 9.975v286q0 5.95-4.035 9.975-4.035 4.025-10 4.025Zm.194 228Q368-252 290-329.888 212-407.775 212-520q0-65 29.5-121t80.5-96q5-4 11.5-4t10.326 4.783Q348-731 346.5-725.5 345-720 340-716q-46 35-73 86.5T240-520q0 100 70 170t170 70q100 0 170-70t70-170q0-59.214-26.5-110.607T620-716q-5-4-6.5-9.5t2.674-10.717Q620-741 626.5-741.5T638-737q51 42 80.5 97.5T748-520q0 112.225-77.841 190.112Q592.317-252 480.159-252ZM320-12q-11 0-19.5-8.5T292-40q0-11 8.5-19.5T320-68q11 0 19.5 8.5T348-40q0 11-8.5 19.5T320-12Zm160 0q-11 0-19.5-8.5T452-40q0-11 8.5-19.5T480-68q11 0 19.5 8.5T508-40q0 11-8.5 19.5T480-12Zm160 0q-11 0-19.5-8.5T612-40q0-11 8.5-19.5T640-68q11 0 19.5 8.5T668-40q0 11-8.5 19.5T640-12Z"/></svg>