<svg xmlns="http://www.w3.org/2000/svg" height="24" viewBox="0 -960 960 960" width="24"><path d="M480-486.218q-22.087 0-37.544-15.456-15.457-15.457-15.457-37.544V-840q0-22.087 15.457-37.544 15.457-15.457 37.544-15.457 22.087 0 37.544 15.457 15.457 15.457 15.457 37.544v300.782q0 22.087-15.457 37.544-15.457 15.456-37.544 15.456Zm0 299.219q-141.348 0-240.283-98.935-98.935-98.936-98.935-240.284 0-68.565 25.173-130.065 25.174-61.5 71.391-106.108 14.957-16.088 36.609-16.066 21.653.022 37.74 14.413 17.087 14.826 17.087 37.261 0 22.435-15.261 39.653-31.217 31.739-48.977 72.935-17.761 41.195-17.761 87.977 0 97.174 68.022 165.196Q382.826-293.001 480-293.001q97.174 0 165.195-68.021 68.022-68.022 68.022-165.196 0-48.478-18.891-91.369t-53.5-76.326Q624.435-710 624.565-732.435q.131-22.435 17.439-37.384 15.866-13.704 36.953-14.16 21.088-.456 36.044 14.5 50.609 47.739 77.413 110.695 26.804 62.956 26.804 132.566 0 141.348-98.935 240.284Q621.348-186.999 480-186.999ZM311.561 0q-19.866 0-33.627-13.439-13.761-13.438-13.761-33.304t13.761-33.627q13.761-13.761 33.627-13.761 19.866 0 33.305 13.76 13.438 13.762 13.438 33.628T344.866-13.44Q331.427 0 311.561 0ZM480 0q-19.261 0-32.739-13.439-13.479-13.438-13.479-33.304t13.479-33.627q13.478-13.761 33.022-13.761 19.543 0 33.022 13.76 13.478 13.762 13.478 33.628t-13.45 33.304Q499.883 0 480 0Zm169.649 0q-19.866 0-33.344-13.439-13.479-13.438-13.479-33.304t13.439-33.627q13.439-13.761 33.305-13.761 19.865 0 33.344 13.76 13.478 13.762 13.478 33.628T682.953-13.44Q669.515 0 649.649 0Z"/></svg>