<svg xmlns="http://www.w3.org/2000/svg" height="20" viewBox="0 -960 960 960" width="20"><path d="M481-482.218q-22.087 0-38.544-16.456-16.457-16.457-16.457-38.544V-838q0-22.087 16.457-38.544 16.457-16.457 38.544-16.457 22.087 0 38.544 16.457 16.457 16.457 16.457 38.544v300.782q0 22.087-16.457 38.544-16.457 16.456-38.544 16.456Zm0 301.219q-141.348 0-241.283-99.935-99.935-99.936-99.935-241.284 0-67.853 24.673-128.709 24.674-60.856 65.891-102.464 17.957-19.088 42.609-20.566 24.653-1.478 43.74 15.913 16.087 14.826 14.587 37.761-1.5 22.935-16.761 39.909-31.217 30.983-47.977 72.179-16.761 41.195-16.761 85.977 0 96.341 67.022 163.779 67.021 67.438 163.695 67.438 96.674 0 163.695-67.438 67.022-67.438 67.022-163.779 0-46.478-16.891-89.369t-51.5-75.57Q626.435-703 626.065-725.435q-.369-22.435 15.939-38.384 17.866-17.704 42.453-15.16 24.588 2.544 42.544 20.5 44.609 42.739 69.413 105.051 24.804 62.312 24.804 131.21 0 141.348-99.225 241.284Q622.767-180.999 481-180.999ZM315.157 0q-20.462 0-35.223-14.044t-14.761-34.805q0-20.76 14.624-35.021 14.623-14.261 35.764-14.261 20.291 0 34.017 14.366 13.726 14.366 13.726 35.127 0 20.76-13.842 34.7Q335.62 0 315.157 0ZM480.5 0q-19.761 0-33.739-14.044-13.979-14.044-13.979-34.805 0-20.76 14.054-35.021 14.053-14.261 34.447-14.261 19.543 0 34.022 14.366 14.478 14.366 14.478 35.127 0 20.76-14.45 34.7Q500.883 0 480.5 0Zm168.044 0q-20.761 0-34.739-14.044-13.979-14.044-13.979-34.805 0-20.76 14.044-35.021t34.805-14.261q20.76 0 34.739 14.366 13.978 14.366 13.978 35.127 0 20.76-14.044 34.7Q669.304 0 648.544 0Z"/></svg>