<svg xmlns="http://www.w3.org/2000/svg" height="24" viewBox="0 -960 960 960" width="24"><path d="M200-160v-100l557.077-556.616 99.539 99.539L300-160H200Zm542.923-499.769L800-716.846 756.846-760l-57.077 57.077 43.154 43.154ZM750.769-280q0-34.461-23.23-61.231Q704.308-368 660-385.461l-30.538 30.538q38.384 13.077 59.846 32.385 21.461 19.307 21.461 42.538 0 33.769-43.808 56.885Q623.154-200 550.769-200v40q81.692 0 140.846-31.615 59.154-31.616 59.154-88.385ZM224.538-419.077l29.231-30Q226.615-460.154 213.308-473 200-485.846 200-500q0-18.923 23.115-36.423 23.116-17.5 83.193-43.039 74.846-31.923 104.269-58.577Q440-664.692 440-700q0-44.693-34.5-72.346Q371-800 310-800q-36.308 0-76.193 17-39.884 17-64.961 45.308l25.769 26.846q22.693-23.462 54.885-36.308Q281.692-760 310-760q43.231 0 66.615 16.538Q400-726.923 400-700q0 20.923-21.5 37.807-21.5 16.885-88.039 45.885Q216.154-582.923 188.077-558 160-533.077 160-500q0 24.385 16.269 44.808t48.269 36.115Z"/></svg>