<svg xmlns="http://www.w3.org/2000/svg" height="20" viewBox="0 -960 960 960" width="20"><path d="M762.615-137.538q-48.461 0-81.615-33.154-33.154-33.154-33.154-81.616v-144q0-29.981 20.636-50.683 20.636-20.701 50.523-20.701 29.887 0 50.749 20.701 20.862 20.702 20.862 50.683v144h-32.001v-144q0-16.523-11.43-27.953-11.431-11.431-27.954-11.431-16.523 0-27.954 11.431-11.431 11.43-11.431 27.953v144q0 34.143 24.412 58.456 24.412 24.314 58.692 24.314 34.281 0 58.452-24.314 24.172-24.313 24.172-58.456v-144h31.811v144.425q0 48.037-33.154 81.191t-81.616 33.154ZM82.615-328v-496h688.001v311.385h-51.385q-49.46 0-84.422 33.709-34.963 33.71-34.963 82.598V-328H82.616Zm344-235.384 312-188.231L726.308-792 426.615-613 126.923-792l-12.308 40.385 312 188.231Z"/></svg>