<svg xmlns="http://www.w3.org/2000/svg" height="24" viewBox="0 -960 960 960" width="24"><path d="M364.615-295.385q-27.615 0-46.115-18.5Q300-332.385 300-360v-240q0-27.615 18.5-46.115 18.5-18.5 46.115-18.5h223.077q8.539 0 14.27 5.73 5.731 5.731 5.731 14.27 0 8.538-5.731 14.269t-14.27 5.731H364.615q-10.769 0-17.692 6.923T340-600v240q0 10.769 6.923 17.692t17.692 6.923h190.77q10.769 0 17.692-6.923T580-360v-100h-75.385q-8.538 0-14.269-5.731-5.731-5.73-5.731-14.269t5.731-14.269Q496.077-500 504.615-500H600q8.539 0 14.269 5.731Q620-488.539 620-480v120q0 27.615-18.5 46.115-18.5 18.5-46.115 18.5h-190.77Z"/></svg>