<svg xmlns="http://www.w3.org/2000/svg" height="20" viewBox="0 -960 960 960" width="20"><path d="M364.615-303.385q-24.315 0-40.465-16.15Q308-335.685 308-360v-240q0-24.315 16.15-40.465 16.15-16.15 40.465-16.15h211.077q6.839 0 11.42 4.52 4.581 4.52 4.581 11.269 0 6.749-4.581 11.48-4.581 4.731-11.42 4.731H364.615q-10.769 0-17.692 6.923T340-600v240q0 10.769 6.923 17.692t17.692 6.923h182.77q10.769 0 17.692-6.923T572-360v-116h-71.385q-6.838 0-11.419-4.52t-4.581-11.269q0-6.75 4.556-11.48Q493.727-508 500.528-508h87.209q6.802 0 11.532 4.581Q604-498.839 604-492v132q0 24.315-16.15 40.465-16.15 16.15-40.465 16.15h-182.77Z"/></svg>