<svg xmlns="http://www.w3.org/2000/svg" height="24" viewBox="0 -960 960 960" width="24"><path d="M335.262-65.869q-44.305 0-75.153-30.848-30.849-30.848-30.849-75.153v-289.477q0-44.305 30.849-75.153 30.848-30.848 75.153-30.848h289.476q44.305 0 75.153 30.848 30.849 30.848 30.849 75.153v289.477q0 44.305-30.849 75.153-30.848 30.848-75.153 30.848H335.262Zm289.476-395.478H335.262v289.477h289.476v-289.477ZM229.26-624.738V-730.74h106.002v106.002H229.26Zm395.478 0V-730.74H730.74v106.002H624.738ZM426.999-788.13v-106.001h106.002v106.001H426.999ZM480-316.609ZM229.26-788.13q0-44.305 30.849-75.153 30.848-30.848 75.153-30.848v106.001H229.26Zm395.478 0v-106.001q44.305 0 75.153 30.848 30.849 30.848 30.849 75.153H624.738Z"/></svg>