<svg xmlns="http://www.w3.org/2000/svg" height="24" viewBox="0 -960 960 960" width="24"><path d="M334.031-101.54q-30.107 0-51.299-21.192t-21.192-51.299v-291.938q0-30.107 21.192-51.299t51.299-21.192h291.938q30.107 0 51.299 21.192t21.192 51.299v291.938q0 30.107-21.192 51.299t-51.299 21.192H334.031Zm292.122-376.921H333.847q-5.385 0-8.847 3.461-3.461 3.462-3.461 8.847v292.306q0 5.385 3.461 8.847 3.462 3.461 8.847 3.461h292.306q5.385 0 8.847-3.461 3.461-3.462 3.461-8.847v-292.306q0-5.385-3.461-8.847-3.462-3.461-8.847-3.461Zm-364.613-160v-59.999h59.999v59.999H261.54Zm376.921 0v-59.999h59.999v59.999h-59.999Zm-188.46-160v-59.999h59.998v59.999h-59.998ZM480-320ZM261.54-798.461q0-24.75 17.625-42.374 17.624-17.625 42.374-17.625v59.999H261.54Zm376.921 0v-59.999q24.75 0 42.374 17.625 17.625 17.624 17.625 42.374h-59.999Z"/></svg>