<svg xmlns="http://www.w3.org/2000/svg" height="24" viewBox="0 -960 960 960" width="24"><path d="M656.059-622Q639-622 627-633.818t-12-28.701Q615-674 626-693.5t30-42.5q19 23 30 42.5t11 30.981q0 16.883-11.941 28.701-11.941 11.818-29 11.818Zm85.152 224Q714-398 695-416.904q-19-18.903-19-46.281Q676-486 695.5-519.5T741-585q26 32 45.5 65.475Q806-486.05 806-463.3q0 27.3-18.789 46.3-18.788 19-46 19ZM404-284h28v-80h80v-28h-80v-80h-28v80h-80v28h80v80ZM234-160v-320q0-72 48.5-124.5T404-664v-108h-68v-28h184q19.532 0 36.766 5Q574-790 590-782l-21 21q-11.065-4.889-23.315-7.944Q533.435-772 520-772h-88v108q73 7 121.5 59.736 48.5 52.737 48.5 124.65V-160H234Z"/></svg>