<svg xmlns="http://www.w3.org/2000/svg" height="20" viewBox="0 -960 960 960" width="20"><path d="M173.217-244.782q-20.585 0-34.51-14.246-13.925-14.246-13.925-34.683 0-20.436 13.925-34.471 13.925-14.036 34.51-14.036H564.26q20.585 0 34.51 14.247 13.925 14.246 13.925 34.682 0 20.437-13.925 34.472t-34.51 14.035H173.217Zm560.142-62.222-137.62-138.952q-14.391-14.028-14.391-33.862 0-19.834 14.391-34.226l137.055-139.881q14.815-15.38 34.402-15.38 19.587 0 35.109 15.522 14.391 14.957 14.674 33.979.283 19.022-14.109 33.978L699.871-480 802.87-373.609q14.392 14.957 14.109 33.479-.283 18.521-15.239 33.478-14.957 14.957-34.262 14.957-19.304 0-34.119-15.309ZM173.217-430.999q-20.585 0-34.51-14.247-13.925-14.246-13.925-34.682 0-20.437 13.925-34.472t34.51-14.035h299.565q20.585 0 34.51 14.246 13.925 14.246 13.925 34.683 0 20.436-13.925 34.471-13.925 14.036-34.51 14.036H173.217Zm0-186.783q-20.585 0-34.51-14.246-13.925-14.247-13.925-34.683 0-20.437 13.925-34.472t34.51-14.035H564.26q20.585 0 34.51 14.246 13.925 14.246 13.925 34.683 0 20.436-13.925 34.471-13.925 14.036-34.51 14.036H173.217Z"/></svg>