<svg xmlns="http://www.w3.org/2000/svg" height="24" viewBox="0 -960 960 960" width="24"><path d="M186-292q-5.95 0-9.975-4.035-4.025-4.035-4.025-10t4.025-9.965q4.025-4 9.975-4h410q5.95 0 9.975 4.035 4.025 4.035 4.025 10T605.975-296q-4.025 4-9.975 4H186Zm572-45L635-459q-9-9-9-21t9-21l123-121q4-4 9.5-4.5T778-622q5 5 5 10t-5 10L653-480l125 123q5 3.667 5 9.333Q783-342 778-337q-3.667 4-9.333 4Q763-333 758-337ZM186-466q-5.95 0-9.975-4.035-4.025-4.035-4.025-10t4.025-9.965q4.025-4 9.975-4h298q5.95 0 9.975 4.035 4.025 4.035 4.025 10T493.975-470q-4.025 4-9.975 4H186Zm0-174q-5.95 0-9.975-4.035-4.025-4.035-4.025-10t4.025-9.965q4.025-4 9.975-4h410q5.95 0 9.975 4.035 4.025 4.035 4.025 10T605.975-644q-4.025 4-9.975 4H186Z"/></svg>