<svg xmlns="http://www.w3.org/2000/svg" height="24" viewBox="0 -960 960 960" width="24"><path d="M637.692-380h-320q-25.307 0-42.654-17.346-17.346-17.347-17.346-42.654v-380h200v280h193.847q25.307 0 42.654 17.346 17.346 17.346 17.346 42.654v269.231h72.307q17.539 0 28 9.549 10.462 9.549 10.462 24.154t-10.462 24.297q-10.461 9.692-28 9.692H657.692q-8.5 0-14.25-5.75t-5.75-14.25V-380Zm-103.077 80H242.307q-27.615 0-46.115-18.5-18.5-18.5-18.5-46.115V-800q0-8.5 5.758-14.25t14.269-5.75q8.512 0 14.242 5.75 5.731 5.75 5.731 14.25v435.385q0 9.23 7.692 16.923Q233.077-340 242.307-340h292.308q8.5 0 14.25 5.758 5.75 5.757 5.75 14.269t-5.75 14.242q-5.75 5.731-14.25 5.731Z"/></svg>