<svg xmlns="http://www.w3.org/2000/svg" height="20" viewBox="0 -960 960 960" width="20"><path d="M621.692-388h-264q-23.307 0-49.654-27.346-26.346-27.347-26.346-48.288V-796h176v280h185.847q23.307 0 37.654 14.996 14.346 14.996 14.346 37.004v229.231h72.307q14.539 0 26.5 11.049 11.962 11.049 11.962 22.654t-11.962 22.797q-11.961 11.192-26.5 11.192H637.692q-6.8 0-11.4-4.6-4.6-4.6-4.6-11.4V-388Zm-67.077 80H258.307q-24.315 0-40.465-16.15-16.15-16.15-16.15-40.465V-780q0-6.8 4.547-11.4 4.547-4.6 11.27-4.6 6.722 0 11.452 4.6 4.731 4.6 4.731 11.4v415.385q0 9.23 7.692 16.923Q249.077-340 258.307-340h296.308q6.8 0 11.4 4.547 4.6 4.547 4.6 11.269 0 6.723-4.6 11.453-4.6 4.731-11.4 4.731Z"/></svg>