<svg xmlns="http://www.w3.org/2000/svg" height="24" viewBox="0 -960 960 960" width="24"><path d="M640-400H363.524q-51.653 0-87.589-35.935Q240-471.871 240-523.524v-333.999h266.001v249.044h167.216q40.348 0 68.653 28.305 28.304 28.304 28.304 68.653v273.217h53.217q28.261 0 46.675 17.848 18.413 17.847 18.413 45.543 0 27.696-18.413 45.544-18.414 17.848-46.675 17.848H689.044q-20.392 0-34.718-14.327Q640-140.174 640-160.565V-400ZM511.521-262.477H208.479q-44.305 0-75.153-30.849-30.849-30.848-30.849-75.153v-440.565q0-20.391 14.327-34.435 14.326-14.044 34.717-14.044 20.392 0 34.435 14.044Q200-829.435 200-809.044V-360h311.521q20.392 0 34.435 14.044Q560-331.913 560-311.521q0 20.391-14.044 34.717-14.043 14.327-34.435 14.327Z"/></svg>