<svg xmlns="http://www.w3.org/2000/svg" height="20" viewBox="0 -960 960 960" width="20"><path d="m343.652-61.717-76.674-127.348-144.826-32.717L135.63-369.37 37.478-480l98.152-110.63-13.478-147.588 144.826-32.717 76.674-127.348L480-839.848l136.348-58.435 76.674 127.348 144.826 32.717L824.37-590.63 922.522-480 824.37-369.37l13.478 147.588-144.826 32.717-76.674 127.348L480-120.152 343.652-61.717Zm33.544-104.87L480-210.348l102.804 43.761 57.283-96.043 108.565-24.522-9.522-110.044L811.935-480l-72.805-82.804 9.522-110.044-108.565-24.522-57.283-96.043L480-749.652l-102.804-43.761-57.283 96.043-108.565 23.522 9.522 111.044L148.065-480l73.805 82.804-10.522 111.044 108.565 24.522 57.283 95.043ZM480-480Zm-51 146.63L669.63-573l-53.869-53.391L429-440.63l-84.761-84.24L290.37-471 429-333.37Z"/></svg>