<svg xmlns="http://www.w3.org/2000/svg" height="24" viewBox="0 -960 960 960" width="24"><path d="m623.283-94.913-104-176H399.761q-18.435 0-31.131-12.576-12.695-12.576-12.695-31.011t12.695-31.13q12.696-12.696 31.131-12.696h119.522l104-176h50.935l-52 176h109.217l30-40h46.696L782.935-314.5l25.196 83.587h-46.696l-30-40H622.218l52 176h-50.935ZM285.782-425.674l52-176H228.565l-30 40h-46.696l25.196-83.826-25.196-83.587h46.696l30 40h109.217l-52-176h50.935l104 176h119.522q18.435 0 31.131 12.576 12.695 12.576 12.695 31.011t-12.695 31.13q-12.696 12.696-31.131 12.696H440.717l-104 176h-50.935Z"/></svg>