<svg xmlns="http://www.w3.org/2000/svg" height="20" viewBox="0 -960 960 960" width="20"><path d="M147-217v-526q0-49.7 34.162-83.85Q215.324-861 265.04-861h430.243Q745-861 779-826.85T813-743v526h37q24.3 0 41.65 17.289 17.35 17.29 17.35 41.5Q909-134 891.65-116.5T850-99H637q0 30-19.101 51.5t-48 21.5Q539-26 518-47.071 497-68.143 497-99H110.267q-24.414 0-41.84-17.289Q51-133.579 51-157.789 51-182 68.35-199.5T110-217h37Zm118-462h256v-64H265v64Zm354 0h76v-64h-76v64ZM265-529h256v-52H265v52Zm354 0h76v-52h-76v52ZM265-379h256v-52H265v52Zm354 0h76v-52h-76v52ZM265-217h256v-64H265v64Zm354 0h76v-64h-76v64Z"/></svg>