<svg xmlns="http://www.w3.org/2000/svg" height="20" viewBox="0 -960 960 960" width="20"><path d="M196-206v-596q0-4.25 2.825-7.125 2.824-2.875 7-2.875 4.175 0 7.175 2.875t3 7.125v86h528v-86q0-4.25 2.825-7.125 2.824-2.875 7-2.875 4.175 0 7.175 2.875t3 7.125v596q0 4.25-2.825 7.125-2.824 2.875-7 2.875-4.175 0-7.175-2.875T744-206v-358H216v358q0 4.25-2.825 7.125-2.824 2.875-7 2.875-4.175 0-7.175-2.875T196-206Zm274 0v-101h-88.753q-4.197 0-7.222-2.825-3.025-2.824-3.025-7 0-4.175 2.863-7.175 2.864-3 7.097-3h196.757q4.233 0 7.258 2.825 3.025 2.824 3.025 7 0 4.175-2.875 7.175T578-307h-88v101q0 4.25-2.825 7.125-2.824 2.875-7 2.875-4.175 0-7.175-2.875T470-206Z"/></svg>