<svg xmlns="http://www.w3.org/2000/svg" height="24" viewBox="0 -960 960 960" width="24"><path d="M111-126q-26.813 0-45.906-19.094Q46-164.188 46-191v-578q0-26.812 19.094-45.906Q84.188-834 111-834h106q26.812 0 45.906 19.094Q282-795.812 282-769v578q0 26.812-19.094 45.906Q243.812-126 217-126H111Zm315 0q-27 0-45.5-19.094T362-191v-578q0-26.812 18.5-45.906Q399-834 426-834h108q27 0 45.5 19.094T598-769v578q0 26.812-18.5 45.906Q561-126 534-126H426Zm317 0q-27 0-45.5-19.094T679-191v-578q0-26.812 18.5-45.906Q716-834 743-834h106q26.812 0 45.906 19.094Q914-795.812 914-769v578q0 26.812-19.094 45.906Q875.812-126 849-126H743Z"/></svg>