<svg xmlns="http://www.w3.org/2000/svg" height="20" viewBox="0 -960 960 960" width="20"><path d="M172-244q-10.7 0-17.35-6.662-6.65-6.662-6.65-17.378v-424.243q0-10.717 6.65-17.217Q161.3-716 172-716h160q9.7 0 16.85 7.162 7.15 7.162 7.15 16.878v424.243Q356-258 348.85-251q-7.15 7-16.85 7H172Zm227 0q-9.7 0-16.85-7.162-7.15-7.162-7.15-16.878v-424.243Q375-702 382.15-709q7.15-7 16.85-7h161q9.7 0 16.85 7.162 7.15 7.162 7.15 16.878v424.243Q584-258 576.85-251q-7.15 7-16.85 7H399Zm229 0q-9.7 0-16.85-7.162-7.15-7.162-7.15-16.878v-424.243Q604-702 611.15-709q7.15-7 16.85-7h160q10.7 0 17.35 6.662 6.65 6.662 6.65 17.378v424.243q0 10.717-6.65 17.217Q798.7-244 788-244H628Z"/></svg>