<svg xmlns="http://www.w3.org/2000/svg" height="20" viewBox="0 -960 960 960" width="20"><path d="M235.943-290q-29.488 0-50.215-20.784Q165-331.568 165-361.057q0-29.488 20.784-50.216Q206.568-432 236.057-432q29.488 0 50.216 20.784Q307-390.432 307-360.943q0 29.488-20.784 50.215Q265.432-290 235.943-290Zm.763 106q-73.628 0-125.167-52.26T60-363.176q0-72.991 51.471-123.907 51.47-50.917 125-50.917Q310-538 362-486.907t52 124.083q0 74.657-51.625 126.741Q310.75-184 236.706-184Zm535.052 38q-69.287 0-117.522-48.236Q606-242.471 606-312.051q0-69.579 48.236-118.764Q702.471-480 771.758-480q69.286 0 118.264 49.185Q939-381.63 939-312.051q0 69.58-48.978 117.815Q841.044-146 771.758-146ZM301-711q25 0 39.5 19t15.5 44v24H101v-87h200Zm-64 447q42 0 69.5-28.583Q334-321.167 334-363q0-41-28.292-68-28.291-27-69.708-27-41 0-69 27t-28 68.5q0 41.5 28 70t70 28.5Zm534.941 15Q799-249 817.5-267.735q18.5-18.736 18.5-45.5Q836-340 817.265-358.5q-18.736-18.5-45.5-18.5Q745-377 726-358.265q-19 18.736-19 45.5Q707-286 725.941-267.5t46 18.5ZM495-305h61q1-98 68-159t150-61q31.081 0 61.541 9.5Q866-506 894-484v-270H564l-57-56 47-47-55-55-152 151 55 55 48-48 56 54v76q0 22.7-14.65 39.85Q476.7-567 454-567h-51q47 41 71.5 97.583Q499-412.833 499-350.73q0 11.73-1 22.73t-3 23Z"/></svg>