<svg xmlns="http://www.w3.org/2000/svg" height="24" viewBox="0 -960 960 960" width="24"><path d="M280.001-723.846q-30.461 0-52.153-21.693-21.692-21.692-21.692-52.153 0-30.462 21.692-52.154 21.692-21.692 52.153-21.692 30.462 0 52.154 21.692 21.692 21.692 21.692 52.154 0 30.461-21.692 52.153-21.692 21.693-52.154 21.693Zm393.075 210q-23.076 0-39.615-16.378-16.538-16.378-16.538-39.775 0-23.846 16.538-40 16.539-16.154 39.615-16.154 23.846 0 40 16.154t16.154 39.807q0 23.654-16.154 40t-40 16.346ZM204.617-90.001v-271.384H141.54v-310.153h235.615l140.998 296.232 81.848-97.001h179.998v193.846h-40v188.46H606.154v-296.308l-54.078 60.155h-77.615L380-534.849v444.848H204.617Z"/></svg>