<svg xmlns="http://www.w3.org/2000/svg" height="20" viewBox="0 -960 960 960" width="20"><path d="M287.827-700.522q-38.218 0-65.262-27.216-27.044-27.217-27.044-65.435 0-38.219 27.217-65.263 27.216-27.043 65.435-27.043 38.218 0 65.262 27.216 27.044 27.216 27.044 65.435t-27.217 65.262q-27.216 27.044-65.435 27.044ZM696.1-514.999q-28.491 0-48.535-19.944-20.044-19.944-20.044-48.435 0-28.492 19.944-48.818 19.944-20.326 48.435-20.326 28.491 0 48.535 20.326 20.044 20.326 20.044 48.818 0 28.491-19.944 48.435-19.944 19.944-48.435 19.944ZM198.477-89.782v-261.739h-72v-301.001h294.524l122.52 257.523 79.914-76.522H816v205h-48v176.739H624v-279.739l-53.305 55h-77.218L408-480.868v391.086H198.477Z"/></svg>