<svg xmlns="http://www.w3.org/2000/svg" height="20" viewBox="0 -960 960 960" width="20"><path d="M608.479-376.652h96.565q10.765 0 18.513-7.748 7.748-7.748 7.748-18.513v-145.696q0-10.765-7.748-18.513-7.748-7.748-18.513-7.748h-96.565q-10.766 0-18.513 7.748-7.748 7.748-7.748 18.513v145.696q0 10.765 7.748 18.513 7.747 7.748 18.513 7.748Zm25.695-53.087h44.609v-91.478h-44.609v91.478Zm-379.218 53.087h96.565q10.966 0 18.613-7.93 7.648-7.931 7.648-18.896t-7.648-18.613q-7.647-7.648-18.613-7.648h-68.043v-22.304h68.043q10.766 0 18.513-7.748 7.748-7.748 7.748-18.513v-70.305q0-10.765-7.748-18.513-7.747-7.748-18.513-7.748h-96q-10.965 0-18.895 7.648-7.931 7.648-7.931 18.613 0 10.966 7.648 18.896 7.648 7.931 18.613 7.931h68.043v22.304h-68.043q-10.765 0-18.513 7.748-7.748 7.748-7.748 18.513v70.304q0 10.765 7.748 18.513 7.748 7.748 18.513 7.748ZM159.521-157.52q-40.305 0-69.153-28.848-28.848-28.848-28.848-69.153V-696q0-40.305 28.848-69.153 28.848-28.848 69.153-28.848h97.956v-35.79q0-18.602 13.115-31.645 13.116-13.044 31.718-13.044t31.646 12.894q13.043 12.893 13.043 31.585v36h266.002v-35.79q0-18.602 13.115-31.645 13.116-13.044 31.718-13.044t31.646 12.894q13.043 12.893 13.043 31.585v36h97.956q41.005 0 69.503 28.848Q898.48-736.305 898.48-696v440.479q0 40.305-28.498 69.153-28.498 28.848-69.503 28.848H159.521ZM480-511.521q12.661 0 21.722-9.061 9.061-9.061 9.061-21.722 0-12.661-9.061-21.44-9.061-8.778-21.722-8.778-12.661 0-21.439 8.778-8.779 8.779-8.779 21.44 0 12.661 8.779 21.722 8.778 9.061 21.439 9.061Zm0 132.522q12.661 0 21.722-9.061 9.061-9.061 9.061-21.722 0-12.661-9.061-21.44Q492.661-440 480-440q-12.661 0-21.439 8.778-8.779 8.779-8.779 21.44 0 12.661 8.779 21.722 8.778 9.061 21.439 9.061Zm0-264.479q15.487 0 26.244-10.757 10.757-10.756 10.757-26.244 0-15.487-10.757-26.244-10.757-10.756-26.244-10.756t-26.244 10.756q-10.757 10.757-10.757 26.244 0 15.488 10.757 26.244 10.757 10.757 26.244 10.757Zm0 410.001q15.487 0 26.244-10.756 10.757-10.757 10.757-26.244 0-15.488-10.757-26.244-10.757-10.757-26.244-10.757t-26.244 10.757q-10.757 10.756-10.757 26.244 0 15.487 10.757 26.244 10.757 10.756 26.244 10.756Z"/></svg>