<svg xmlns="http://www.w3.org/2000/svg" height="24" viewBox="0 -960 960 960" width="24"><path d="M628.479-352.652h100.565q17.565 0 29.913-12.348 12.348-12.348 12.348-29.913v-161.696q0-17.565-12.348-29.913-12.348-12.348-29.913-12.348H628.479q-17.566 0-29.913 12.348-12.348 12.348-12.348 29.913v161.696q0 17.565 12.348 29.913 12.347 12.348 29.913 12.348Zm21.695-65.087h56.609v-115.478h-56.609v115.478Zm-419.218 65.087h110.565q13.566 0 22.913-9.63 9.348-9.631 9.348-23.196 0-13.565-9.348-22.913-9.347-9.348-22.913-9.348h-86.043v-38.304h76.043q17.566 0 29.913-12.348 12.348-12.348 12.348-29.913v-58.305q0-17.565-12.348-29.913-12.347-12.348-29.913-12.348h-110q-13.565 0-23.195 9.348-9.631 9.348-9.631 22.913 0 13.566 9.348 23.196 9.348 9.631 22.913 9.631h86.043v38.304h-76.043q-17.565 0-29.913 12.348-12.348 12.348-12.348 29.913v58.304q0 17.565 12.348 29.913 12.348 12.348 29.913 12.348ZM151.521-125.52q-44.305 0-75.153-30.848-30.848-30.848-30.848-75.153V-720q0-44.305 30.848-75.153 30.848-30.848 75.153-30.848h97.956v-40q0-20.392 14.326-34.435 14.326-14.044 34.718-14.044 20.391 0 34.435 14.044 14.043 14.043 14.043 34.435v40h266.002v-40q0-20.392 14.326-34.435 14.326-14.044 34.718-14.044 20.391 0 34.435 14.044 14.043 14.043 14.043 34.435v40h97.956q44.305 0 75.153 30.848Q914.48-764.305 914.48-720v488.479q0 44.305-30.848 75.153-30.848 30.848-75.153 30.848H151.521ZM480-511.521q15.261 0 26.022-10.761t10.761-26.022q0-15.261-10.761-25.74-10.761-10.478-26.022-10.478t-25.739 10.478q-10.479 10.479-10.479 25.74t10.479 26.022q10.478 10.761 25.739 10.761Zm0 144.522q15.261 0 26.022-10.761t10.761-26.022q0-15.261-10.761-25.74Q495.261-440 480-440t-25.739 10.478q-10.479 10.479-10.479 25.74t10.479 26.022q10.478 10.761 25.739 10.761Zm0-288.479q18.087 0 30.544-12.457 12.457-12.456 12.457-30.544 0-18.087-12.457-30.544-12.457-12.456-30.544-12.456t-30.544 12.456q-12.457 12.457-12.457 30.544 0 18.088 12.457 30.544 12.457 12.457 30.544 12.457Zm0 446.001q18.087 0 30.544-12.456 12.457-12.457 12.457-30.544 0-18.088-12.457-30.544-12.457-12.457-30.544-12.457t-30.544 12.457q-12.457 12.456-12.457 30.544 0 18.087 12.457 30.544 12.457 12.456 30.544 12.456Z"/></svg>