<svg xmlns="http://www.w3.org/2000/svg" height="20" viewBox="0 -960 960 960" width="20"><path d="M613.001-397.001q35.917 0 58.198-22.28 22.28-22.281 22.28-58.198v-15.522q0-30-21-51t-51-21q30 0 51-21t21-51v-15.521q0-35.918-22.28-58.198-22.281-22.281-58.198-22.281H476.479q-16.982 0-28.469 11.43-11.488 11.43-11.488 28.326 0 16.897 11.65 28.81t28.872 11.913h135.957v51.521h-69.61q-15.3 0-25.65 10.29-10.35 10.289-10.35 25.5 0 15.21 10.35 25.71t25.65 10.5h69.61v51.522H476.479q-16.982 0-28.469 11.43-11.488 11.429-11.488 28.326 0 16.896 11.65 28.809t28.872 11.913h135.957ZM331.784-233.782q-41.005 0-69.504-28.498-28.498-28.499-28.498-69.504v-466.434q0-41.005 28.498-69.503 28.499-28.498 69.504-28.498h466.434q41.005 0 69.503 28.498 28.498 28.498 28.498 69.503v466.434q0 41.005-28.498 69.504-28.498 28.498-69.503 28.498H331.784ZM161.782-63.781q-41.005 0-69.503-28.498-28.498-28.498-28.498-69.503v-515.435q0-20.387 14.246-34.694 14.246-14.307 34.544-14.307 20.298 0 34.755 14.307 14.456 14.307 14.456 34.694v515.435h515.435q20.387 0 34.694 14.246 14.307 14.246 14.307 34.544 0 20.298-14.307 34.754-14.307 14.457-34.694 14.457H161.782Z"/></svg>