<svg xmlns="http://www.w3.org/2000/svg" height="24" viewBox="0 -960 960 960" width="24"><path d="M430.308-352.308q18.615 18.616 47.769 16.962t42.538-20.962l153.664-214.368q8.183-11.863-1.394-21.44-9.577-9.577-21.48-1.432L436.308-440.615q-20.077 13.384-22.347 41.538-2.269 28.154 16.347 46.769ZM480-760q42.923 0 79.846 8.307 36.923 8.308 72.231 25.154 8.308 3.693 14.385 12.116t2.307 15.731q-3.769 7.307-14.846 9.615t-19.616-1.385q-31.153-15.153-63.961-22.346Q517.538-720 480-720q-133 0-226.5 93.5T160-400q0 42 11.5 83t32.5 77h552q23-38 33.5-79t10.5-85q0-30.615-6.808-65.231-6.807-34.615-21.961-65.538-3.692-8.539-2-16.846 1.692-8.308 8.912-13.264 6.703-4.506 14.511-2.044 7.808 2.461 11.5 10.308 19.615 40.384 27.615 76.884T840-404.462q.231 51.616-11.461 96.308-11.693 44.693-36.385 90.154-4.846 8-14.615 13-9.77 5-21.539 5H204q-11 0-20.385-5.384-9.384-5.385-15.769-15.693-19.846-35-33.846-78.961Q120-344 120-400q0-73.769 27.978-139.243 27.978-65.474 76.385-114.693 48.406-49.218 114.483-77.641Q404.923-760 480-760Zm1.615 278.385Z"/></svg>