<svg xmlns="http://www.w3.org/2000/svg" height="24" viewBox="0 -960 960 960" width="24"><path d="M494-494h306q-6-125-93.5-213T494-800v306Zm-28 334v-640q-128 5-217 97.5T160-480q0 130 89 222.5T466-160Zm28 0q125-5 212.5-93T800-466H494v306Zm-14-320Zm.174 348Q408-132 344.442-159.391q-63.559-27.392-110.575-74.348-47.015-46.957-74.441-110.435Q132-407.652 132-479.826q0-72.174 27.391-135.732 27.392-63.559 74.348-110.574 46.957-47.016 110.435-74.442Q407.652-828 479.826-828 552-828 615.5-800.5T726-726q47 47 74.5 110.379Q828-552.242 828-479.684q0 71.684-27.391 135.042-27.392 63.359-74.348 110.661-46.957 47.302-110.435 74.641Q552.348-132 480.174-132Z"/></svg>