<svg xmlns="http://www.w3.org/2000/svg" height="20" viewBox="0 -960 960 960" width="20"><path d="M85.478-88.587q26.239-79.956 35.054-159.054 8.816-79.098 11.055-149.055-38.478-15.434-64.74-50.391-26.26-34.956-26.26-80.913v-77.022q117.152-25.956 237.565-106.391T480-874.283q82.435 85.435 200.848 163.87 118.413 78.435 238.565 105.391V-528q0 45.957-26.761 80.913-26.761 34.957-65.239 50.391 2.239 69.957 11.555 149.055 9.315 79.098 35.554 159.054H85.478ZM251.804-600h456.392q-80-42-131.598-85.239Q525-728.478 480-766.478q-46 38-97.098 81.239Q331.804-642 251.804-600ZM579-465q26 0 44.5-18.5T642-528H516q0 26 18 44.5t45 18.5Zm-198 0q26 0 44.5-18.5T444-528H318q0 26 18 44.5t45 18.5Zm-198 0q27 0 45-18.5t18-44.5H120q0 26 18.5 44.5T183-465Zm6.522 297h113.239q9-58 13.619-118Q321-346 324-406q-11-4-23-13.38-12-9.381-19-17.381-15 15-32 25.381Q233-401 211-396q-2 56-5.739 114.5T189.522-168ZM376-168h208q-8-55.239-11.88-113.239-3.881-58-6.881-114-27-2-48.619-13-21.62-11-36.62-29-16 18-37.5 29t-47.5 13q-3 56-7 114T376-168Zm281.239 0h113.239q-12-55-15.739-113.5Q751-340 749-396q-21-5-38.88-15.38-17.881-10.381-31.881-25.381-8 8-19.5 16.881-11.5 8.88-22.5 12.88 3 60 8 120.5t13 118.5ZM777-465q26 0 44.5-18.5T840-528H714q0 26 18 44.5t45 18.5Z"/></svg>