<svg xmlns="http://www.w3.org/2000/svg" height="24" viewBox="0 -960 960 960" width="24"><path d="M55.13-62.477q29.564-76.261 42.173-156.174 12.609-79.914 15.174-161.175-40.13-18.391-65.065-55.652Q22.477-472.739 22.477-520v-91.87q120.088-40.261 244.11-121.653Q390.609-814.914 480-904.306q89.391 89.392 213.413 170.783 124.022 81.392 244.11 121.653V-520q0 47.261-24.935 84.522t-65.065 55.652q2.565 81.261 15.174 161.175 12.609 79.913 42.174 156.174H55.129ZM233.173-600h493.652q-78-44-141.913-91.065Q521-738.13 480-773.13q-41 35-104.913 82.065T233.174-600ZM580-460q25 0 42.5-17.5T640-520H520q0 25 17.5 42.5T580-460Zm-200 0q25 0 42.5-17.5T440-520H320q0 25 17.5 42.5T380-460Zm-200 0q25 0 42.5-17.5T240-520H120q0 25 17.5 42.5T180-460Zm4.87 300h107.565q9-60 14.282-119Q312-338 315-398q-9-5-18-10.217-9-5.218-17-13.218-15 15-32.5 24.218Q230-388 210-383q-2 57-7.565 112.5T184.87-160ZM374-160h212q-8-55.565-12.217-110.565-4.218-55-7.218-111-26-2-47.782-12.5-21.783-10.5-38.783-27.5-17 17-39.5 27.5t-46.5 12.5q-3 56-7.5 111T374-160Zm293.565 0H775.13q-12-55-17.565-110.5Q752-326 750-383q-20-5-37.717-14.217-17.718-9.218-31.718-24.218-8 8-17 13.218-9 5.217-18 10.217 3 60 8.5 119t13.5 119ZM780-460q25 0 42.5-17.5T840-520H720q0 25 17.5 42.5T780-460Z"/></svg>