<svg xmlns="http://www.w3.org/2000/svg" height="20" viewBox="0 -960 960 960" width="20"><path d="m694.846-206.539-31.231-31.23q-3.3-3.154-7.842-3.154t-7.696 3.154q-3.154 3.154-3.154 7.972 0 4.818 3.154 8.336l33.384 33.384q6.462 6.462 14.77 5.962 8.307-.5 14.769-6.962l80.923-85.692q3.154-4.154 3.539-7.978.384-3.824-4.539-7.654-4.154-3.061-8.154-2.561t-7.154 3.654l-80.769 82.769Zm-69.615-380.23q6.838 0 11.419-4.52 4.581-4.521 4.581-11.27t-4.581-11.48q-4.581-4.73-11.419-4.73H334.769q-6.838 0-11.419 4.52t-4.581 11.269q0 6.749 4.581 11.48 4.581 4.731 11.419 4.731h290.462Zm94.543 503.385q-63.62 0-107.697-44.304Q568-171.991 568-235.611q0-63.62 44.303-107.697 44.303-44.077 107.923-44.077 63.62 0 107.697 44.303Q872-298.779 872-235.158q0 63.62-44.303 107.697-44.303 44.077-107.923 44.077ZM240.615-776h478.77q23.546 0 40.081 16.534Q776-742.931 776-719.385v229.77q-30.559-7.026-62.39-5.206Q681.779-493 651.077-483v-13H334.603q-6.768 0-11.301 4.52t-4.533 11.269q0 6.75 4.581 11.48Q327.931-464 334.769-464h256.462q-28.969 16.671-50.984 39.835-22.016 23.165-36.862 50.934H334.769q-6.838 0-11.419 4.52-4.581 4.521-4.581 11.27t4.581 11.48q4.581 4.73 11.419 4.73h146.385q-7.308 23.154-11.731 48.077T465-242.308q0 20.385 3.731 43.347Q472.462-176 478.923-155l-6 4q-1.154-.769-.923.154.231.923-.915.778l-34.547-16.547q-3.097-.923-6.202-.923t-6.567.923l-37.077 19.308q-3.098.923-6.203.923-3.104 0-6.566-.923l-37.077-19.308q-3.098-.923-6.203-.923-3.105 0-6.566.923L287-147.307q-3.098.923-6.203.923-3.105 0-6.566-.923l-37.077-19.308q-3.098-.923-6.203-.923-3.105 0-6.567.923l-34.23 19.308q-2.308 1.538-6.154.153v-572.231q0-23.546 16.534-40.081Q217.069-776 240.615-776Z"/></svg>