<svg xmlns="http://www.w3.org/2000/svg" height="24" viewBox="0 -960 960 960" width="24"><path d="m684.217-230.478-13.043-13.609q-10.696-10.695-25.457-10.413-14.761.283-25.457 10.979-10.695 10.695-10.695 24.956t10.695 24.957l36.174 36.174q12.083 11.826 28.194 11.826 16.111 0 27.937-11.826l93.609-92.174q10.696-10.646 10.696-25.432 0-14.786-10.696-25.481-10.696-10.696-25.457-10.413-14.761.282-25.457 10.413l-71.043 70.043Zm-11-361.043q17 0 28.5-11.5t11.5-28.5q0-17-11.5-28.5t-28.5-11.5H286.783q-17 0-28.5 11.5t-11.5 28.5q0 17 11.5 28.5t28.5 11.5h386.434Zm40 563.956q-83 0-141.5-58.5t-58.5-141.5q0-83 58.5-141.5t141.5-58.5q83 0 141.5 58.5t58.5 141.5q0 83-58.5 141.5t-141.5 58.5ZM206.783-857.523h546.434q43.726 0 74.863 31.138 31.138 31.138 31.138 74.864v285.653q-32.522-20.783-69.522-31.24-37-10.457-75.914-10.457v-10.739H286.783q-17 0-28.5 11.5t-11.5 28.5q0 17 11.5 28.5t28.5 11.5h242.869q-17.626 15.482-32.661 33.697-15.034 18.216-27.165 39.52H286.783q-17 0-28.5 11.5t-11.5 28.5q0 17 11.5 28.5t28.5 11.5h152.26q-3.695 14.522-5.326 28.826-1.63 14.305-1.63 30.392 0 45.957 14.326 88.696 14.326 42.74 42.413 79.435-7.261.435-14.456-1.782-7.196-2.218-12.327-7.348L435.13-93.781q-7.695-7.696-18.521-7.696-10.827 0-18.522 7.696l-26.348 26.348q-7.696 7.695-18.522 7.695-10.826 0-18.522-7.695l-26.347-26.348q-7.696-7.696-18.522-7.696-10.827 0-18.522 7.696l-26.913 26.348q-7.696 7.695-18.522 7.695-10.826 0-18.522-7.695l-25.782-25.783q-8.159-8.261-19.036-8.261-10.878 0-18.574 8.261l-25.217 25.783q-1.13 1.695-17.956 9v-693.088q0-43.726 31.138-74.864 31.137-31.138 74.863-31.138Z"/></svg>