<svg xmlns="http://www.w3.org/2000/svg" height="20" viewBox="0 -960 960 960" width="20"><path d="M346.565-708.175q-14.957 14.957-34.044 14.957-19.088 0-33.916-14.829l-43.473-42.907q-14.828-14.829-14.828-33.916 0-19.087 14.956-34.327 14.957-15.239 34.044-15.239 19.087 0 34.482 15.394l42.906 42.907q14.829 14.829 15.112 33.633.283 18.805-15.239 34.327Zm266.87 0q-14.956-14.957-14.956-34.044 0-19.087 14.828-33.916l43.473-43.472q14.829-14.829 33.916-14.829 19.087 0 34.044 15.522 14.956 15.522 15.239 34.326.283 18.805-15.111 33.634l-43.473 42.907q-14.828 14.829-33.916 14.829-19.087 0-34.044-14.957Zm-133.224-34.044q-20.298 0-34.755-14.307-14.457-14.307-14.457-34.694v-66.983q0-20.102 14.247-34.559 14.246-14.456 34.543-14.456 20.298 0 34.755 14.306 14.457 14.307 14.457 34.694v66.984q0 20.101-14.247 34.558-14.246 14.457-34.543 14.457ZM124.782-65.217v-281.237q0-8.965 1.782-17.364 1.783-8.4 4.913-17.661l71.497-176.457q11.199-28.369 35.634-45.391 24.435-17.022 54.914-17.022h372.956q30.479 0 54.914 17.022 24.435 17.022 35.634 45.391l71.497 176.457q3.13 9.261 4.913 17.661 1.782 8.399 1.782 17.364v281.802q0 24.24-16.967 41.207-16.968 16.968-41.207 16.968-23.957 0-41.348-17.392-17.392-17.391-17.392-41.348v-13.26H241.696v13.825q0 24.24-16.968 41.207-16.967 16.968-41.207 16.968-23.956 0-41.348-17.392-17.391-17.391-17.391-41.348ZM248.913-409.13h462.174l-45.174-113.218H294.087L248.913-409.13Zm66.478 200.608q20 0 34-14t14-34q0-20-14-34t-34-14q-20 0-34 14t-14 34q0 20 14 34t34 14Zm329.218 0q20 0 34-14t14-34q0-20-14-34t-34-14q-20 0-34 14t-14 34q0 20 14 34t34 14Z"/></svg>