<svg xmlns="http://www.w3.org/2000/svg" height="24" viewBox="0 -960 960 960" width="24"><path d="M335.565-755.175q-14.957 14.957-37.044 14.957-22.088 0-37.044-14.957l-44.217-43.651q-14.956-14.957-14.956-37.044 0-22.087 14.956-37.327 14.957-15.239 37.044-15.239 22.087 0 37.609 15.522l43.652 43.651q14.956 14.957 15.239 36.761.283 21.805-15.239 37.327Zm288.87 0q-14.956-14.957-14.956-37.044 0-22.087 14.956-37.044l44.217-44.216q14.957-14.957 37.044-14.957 22.087 0 37.044 15.522 14.956 15.522 15.239 37.326.283 21.805-15.239 36.762l-44.217 43.651q-14.956 14.957-37.044 14.957-22.087 0-37.044-14.957ZM480-792.219q-22.087 0-37.544-15.457-15.457-15.457-15.457-37.544v-80.998q0-22.087 15.457-37.544 15.457-15.456 37.544-15.456 22.087 0 37.544 15.456 15.457 15.457 15.457 37.544v80.998q0 22.087-15.457 37.544-15.457 15.457-37.544 15.457ZM100.782-53.217V-347.13q0-9.261 1.282-17.957 1.283-8.696 4.413-16.957l73.305-207.913q11.391-31.913 38.326-51.435 26.935-19.522 61.414-19.522h400.956q34.479 0 61.414 19.522 26.935 19.522 38.326 51.435l73.305 207.913q3.13 8.261 4.413 16.957 1.282 8.696 1.282 17.957v294.478q0 29.24-20.467 49.707-20.468 20.468-49.707 20.468-28.957 0-49.848-20.892-20.892-20.891-20.892-49.848v-9.26H241.696v9.825q0 29.24-20.468 49.707-20.467 20.468-49.707 20.468-28.956 0-49.848-20.892-20.891-20.891-20.891-49.848Zm139.131-388.479h480.174l-39.174-113.217H279.087l-39.174 113.217Zm-33.13 273.217v-193.217 193.217Zm96.608-36.608q25 0 42.5-17.5t17.5-42.5q0-25-17.5-42.5t-42.5-17.5q-25 0-42.5 17.5t-17.5 42.5q0 25 17.5 42.5t42.5 17.5Zm353.218 0q25 0 42.5-17.5t17.5-42.5q0-25-17.5-42.5t-42.5-17.5q-25 0-42.5 17.5t-17.5 42.5q0 25 17.5 42.5t42.5 17.5Zm-449.826 36.608h546.434v-193.217H206.783v193.217Z"/></svg>