<svg xmlns="http://www.w3.org/2000/svg" height="20" viewBox="0 -960 960 960" width="20"><path d="M136-184v-32h96v-560h496v560h96v32H136Zm128-32h173.231q-8-84.692-50.385-156.346Q344.461-444 264-462.769V-216Zm0-528v246.769Q344.461-516 386.846-587.654 429.231-659.308 437.231-744H264Zm43.385 264q62.538 23.231 99.692 77.808Q444.231-347.615 460-283h40q15.769-64.615 52.923-119.192T652.615-480q-63.308-22.231-100.461-76.808Q515-611.385 499.231-676H460q-16.769 64.615-53.423 119.192T307.385-480ZM696-744H522q9 84.692 50.885 156.346Q614.769-516 696-497.231V-744Zm0 528v-246.769Q614.769-444 572.885-372.346 531-300.692 522-216h174ZM264-744v246.769V-744Zm432 0v246.769V-744Zm0 528v-246.769V-216Zm-432 0v-246.769V-216Z"/></svg>