<svg xmlns="http://www.w3.org/2000/svg" height="24" viewBox="0 -960 960 960" width="24"><path d="M120-160v-40h80v-600h560v600h80v40H120Zm120-40h177.231q-8-77.692-51.385-155.346Q322.461-433 240-454.769V-200Zm0-560v254.769Q322.461-527 365.846-604.654 409.231-682.308 417.231-760H240Zm44.385 280q79.538 34.231 122.692 115.308Q450.231-283.615 458-200h44q7.769-83.615 50.923-164.692Q596.077-445.769 675.615-480q-80.308-34.231-123.461-115.308Q509-676.385 501.231-760H458q-7.769 83.615-50.923 164.692Q363.923-514.231 284.385-480ZM720-760H542q8 77.692 51.385 155.346Q636.769-527 720-505.231V-760Zm0 560v-254.769Q636.769-433 593.885-355.346 551-277.692 543-200h177ZM240-760v254.769V-760Zm480 0v254.769V-760Zm0 560v-254.769V-200Zm-480 0v-254.769V-200Z"/></svg>