<svg xmlns="http://www.w3.org/2000/svg" height="24" viewBox="0 -960 960 960" width="24"><path d="M224.615-160q-26.846 0-45.731-18.884Q160-197.769 160-224.615v-503.154q0-3.846.384-6.923.385-3.077 1.923-6.154l-21.615-21.616q-5.615-5.615-6-13.653-.385-8.039 6.231-14.654 6.384-6.385 14.154-6.385 7.769 0 14.154 6.385l621.538 621.538q5.847 5.847 6.116 13.77.269 7.923-6.346 14.538-6.616 6.385-14.154 6.5-7.539.116-14.154-6.5l-20.616-20.615q-3.846.769-6.923 1.154-3.077.384-6.923.384H224.615Zm0-40h478.539L200-703.154v478.539q0 10.769 6.923 17.692T224.615-200ZM800-273l-40-40v-320.846H439.154L273-800h462.385q26.846 0 45.731 18.884Q800-762.231 800-735.385V-273Z"/></svg>