<svg xmlns="http://www.w3.org/2000/svg" height="20" viewBox="0 -960 960 960" width="20"><path d="m246.616-464 131.846 131.846q5.615 5.615 6 11.269.384 5.654-6 12.039-6.385 6.385-11.654 6.385-5.27 0-11.654-6.385L203.826-460.174q-4.442-4.441-6.557-9.203-2.115-4.761-2.115-10.423t2.115-10.423q2.115-4.762 6.346-9.392l151.539-151.539q5.615-5.615 11.269-6 5.654-.385 12.039 6 6.384 6.385 6.384 11.654t-6.384 11.654L246.616-496h472.769q10.769 0 17.692-6.923T744-520.615V-588q0-6.839 4.52-11.419Q753.041-604 759.79-604t11.479 4.581Q776-594.839 776-588v67.385q0 23.546-16.534 40.08Q742.931-464 719.385-464H246.616Z"/></svg>