<svg xmlns="http://www.w3.org/2000/svg" height="20" viewBox="0 -960 960 960" width="20"><path d="m312.523-430.999 75.956 75.955q14.956 14.957 14.956 34.544 0 19.587-14.956 34.544-14.957 14.957-34.544 14.957-19.587 0-34.544-14.957L159.601-445.18q-6.906-6.907-10.819-16.033-3.913-9.126-3.913-18.587t3.913-18.587q3.913-9.126 10.609-16.222l160-159.435q14.957-14.957 34.544-14.957 19.587 0 34.544 14.957 14.956 14.957 14.956 34.544 0 19.587-14.956 34.544l-75.956 75.955h424.694V-588q0-20.387 14.246-34.694 14.246-14.307 34.544-14.307 20.298 0 34.755 14.307 14.456 14.307 14.456 34.694v58.999q0 41.005-28.498 69.503-28.498 28.499-69.503 28.499H312.523Z"/></svg>