<svg xmlns="http://www.w3.org/2000/svg" height="24" viewBox="0 -960 960 960" width="24"><path d="M480-200q0-91.538-66.538-158.076t-158.076-66.538q0 91.538 66.538 158.076T480-200Zm0-205.077q24.846 0 41.5-16.654t16.654-41.5v-5.23q7.23 5.615 15.306 8.423 8.077 2.807 18.528 2.807 24.704 0 41.742-17.071 17.039-17.071 17.039-41.73 0-18.968-8.923-33.006-8.924-14.038-24.77-20.038 15.846-6 24.77-20.077 8.923-14.077 8.923-32.846 0-24.71-17.052-41.816-17.052-17.107-41.682-17.107-10.42 0-18.535 2.808-8.116 2.807-15.346 8.423v-6q0-24.846-16.654-41.5T480-733.845q-24.846 0-41.5 16.654t-16.654 41.5v6q-7.23-5.616-15.306-8.423-8.077-2.808-18.528-2.808-24.704 0-41.742 17.071-17.039 17.071-17.039 41.73 0 18.968 8.923 33.006 8.924 14.039 24.77 20.039-15.846 6-24.77 20.076-8.923 14.077-8.923 32.846 0 24.71 17.052 41.817 17.052 17.106 41.682 17.106 10.42 0 18.535-2.807 8.116-2.808 15.346-8.423v5.23q0 24.846 16.654 41.5t41.5 16.654Zm.061-93.537q-29.523 0-50.023-20.193-20.5-20.192-20.5-50.269 0-29.549 20.439-50.006t49.962-20.457q29.523 0 50.023 20.457 20.5 20.457 20.5 50.006 0 30.077-20.439 50.269-20.439 20.193-49.962 20.193ZM480-200q91.538 0 158.076-66.538t66.538-158.076q-91.538 0-158.076 66.538T480-200Zm-379.999 99.999v-759.998h759.998v759.998H100.001Z"/></svg>