<svg xmlns="http://www.w3.org/2000/svg" height="24" viewBox="0 -960 960 960" width="24"><path d="M480-212q0-93-66-159t-159-66q0 93 66 159t159 66Zm0-190q24 0 41.5-17.5T539-461v-6q6 6 14.5 9t19.048 3q24.931 0 42.192-17.5Q632-490 632-513.739 632-532 622.5-547q-9.5-15-24.5-21 15-6 24.5-20.7T632-623q0-24-17.26-41.5-17.261-17.5-42.192-17.5-10.548 0-19.048 3-8.5 3-14.5 9v-6q0-24-17.5-41.5T480-735q-24 0-41.5 17.5T421-676v6q-6-6-14.5-9t-19.048-3q-24.931 0-42.192 17.5Q328-647 328-623q0 19.6 9.5 34.3Q347-574 362-568q-15 6-24.5 21t-9.5 33.261Q328-490 345.26-472.5q17.261 17.5 42.192 17.5 10.548 0 19.048-3 8.5-3 14.5-9v6q0 24 17.5 41.5T480-402Zm0-107q-26 0-42.5-16.653T421-568q0-26 16.5-42.5T480-627q26 0 42.5 16.5t16.5 42.009Q539-542 522.5-525.5T480-509Zm0 297q93 0 159-66t66-159q-93 0-159 66t-66 159ZM46-46v-868h868v868H46Zm126-126h616v-616H172v616Zm0 0v-616 616Z"/></svg>