<svg xmlns="http://www.w3.org/2000/svg" height="20" viewBox="0 -960 960 960" width="20"><path d="m287.609-361.913 24.435 187.13h336.477l26.435-201.304h-3.478q-29.739-.565-58.587-6.63-28.848-6.065-69.152-16.935-22-6.435-44.217-9.717-22.218-3.283-44.087-3.283-41.783 0-84.522 12.935-42.739 12.935-83.304 37.804Zm-11.826-104.566q43-21.305 87.739-32.457 44.739-11.152 90.913-11.152 30.13 0 59.543 4.783 29.413 4.782 57.544 13.348 31 9 58.217 14 27.218 5 49.652 5h7.391l37.609-312.26H235.609l40.174 318.738ZM225.304-76.782 124.782-883.218h710.436L735.262-76.782H225.304Zm86.74-98.001H648.521 312.044Z"/></svg>