<svg xmlns="http://www.w3.org/2000/svg" height="20" viewBox="0 -960 960 960" width="20"><path d="M125.782-76.782q-20.387 0-34.694-14.246-14.306-14.246-14.306-34.544 0-20.298 14.306-34.754 14.307-14.457 34.694-14.457h708.436q20.387 0 34.694 14.246 14.306 14.246 14.306 34.544 0 20.298-14.306 34.755-14.307 14.456-34.694 14.456H125.782ZM468-226.999q-20.387 0-34.694-14.307-14.307-14.307-14.307-34.694v-460.216q0-20.388 14.307-34.694 14.307-14.307 34.694-14.307h24q20.387 0 34.694 14.307 14.307 14.306 14.307 34.694V-276q0 20.387-14.307 34.694-14.307 14.307-34.694 14.307h-24Z"/></svg>