<svg xmlns="http://www.w3.org/2000/svg" height="20" viewBox="0 -960 960 960" width="20"><path d="M125.217-196.782q-20.585 0-34.51-14.246-13.925-14.246-13.925-34.683 0-20.436 13.925-34.471 13.925-14.036 34.51-14.036H420.26q20.585 0 34.51 14.247 13.925 14.246 13.925 34.682 0 20.437-13.925 34.472t-34.51 14.035H125.217Zm0-186.783q-20.585 0-34.51-14.246-13.925-14.246-13.925-34.683 0-20.436 13.925-34.471 13.925-14.036 34.51-14.036H252q20.585 0 34.51 14.247 13.925 14.246 13.925 34.682 0 20.437-13.925 34.472T252-383.565H125.217Zm0-186.783q-20.585 0-34.51-14.246-13.925-14.246-13.925-34.683 0-20.436 13.925-34.471 13.925-14.036 34.51-14.036H252q20.585 0 34.51 14.247 13.925 14.246 13.925 34.682 0 20.437-13.925 34.472T252-570.348H125.217Zm438.088 237.739q-83.637 0-142.058-59.497-58.421-59.498-58.421-143.914 0-84.415 58.487-143.807 58.488-59.391 141.935-59.391 83.448 0 141.992 59.466 58.544 59.467 58.544 143.839 0 30.19-7.653 57.877-7.652 27.688-23.652 50.688l120.492 122.752q13.986 13.987 13.704 30.53-.283 16.544-14.109 30.37t-31.435 13.826q-17.609 0-31.596-14.471L670.174-365.043q-23 16-49.934 24.217-26.935 8.217-56.935 8.217Zm-.283-88.957q46.891 0 79.63-33.371 32.739-33.37 32.739-81.043 0-47.672-32.691-81.259-32.692-33.587-79.395-33.587-47.174 0-79.63 33.487-32.457 33.487-32.457 81.326 0 47.839 32.457 81.143 32.456 33.304 79.347 33.304Z"/></svg>