<svg xmlns="http://www.w3.org/2000/svg" height="20" viewBox="0 -960 960 960" width="20"><path d="M152-257.538q-6.8 0-11.4-4.547-4.6-4.548-4.6-11.27 0-6.722 4.6-11.453 4.6-4.73 11.4-4.73h334.307q6.8 0 11.401 4.547 4.6 4.547 4.6 11.269t-4.6 11.453q-4.601 4.731-11.401 4.731H152Zm0-171.539q-6.8 0-11.4-4.547-4.6-4.547-4.6-11.269t4.6-11.453q4.6-4.731 11.4-4.731h138.461q6.8 0 11.4 4.547 4.6 4.548 4.6 11.27 0 6.722-4.6 11.452-4.6 4.731-11.4 4.731H152Zm0-171.538q-6.8 0-11.4-4.547-4.6-4.548-4.6-11.27 0-6.722 4.6-11.453 4.6-4.73 11.4-4.73h138.461q6.8 0 11.4 4.547 4.6 4.547 4.6 11.269t-4.6 11.453q-4.6 4.731-11.4 4.731H152Zm396.923 225.384q-64.038 0-109.173-44.303-45.135-44.303-45.135-108.308 0-64.004 45.255-108.081Q485.124-680 549.331-680q64.208 0 109.054 44.237Q703.231-591.526 703.231-528q0 27.692-8.885 52.115-8.884 24.424-24.884 44.347l143.224 140.916q6.545 5.519 6.545 10.802 0 5.282-6.385 11.666-5.359 5.616-11.141 5.616t-12.327-5.696L646.154-408.231Q625.462-393 601.039-384.115q-24.424 8.884-52.116 8.884Zm0-32q50.962 0 86.635-35t35.673-85.384q0-50.385-35.673-85.385-35.673-35-86.635-35-50.961 0-86.635 35-35.673 35-35.673 85.385 0 50.384 35.673 85.384 35.674 35 86.635 35Z"/></svg>