<svg xmlns="http://www.w3.org/2000/svg" height="20" viewBox="0 -960 960 960" width="20"><path d="M276.623-144.461q-45.404 0-77.321-32.079-31.918-32.08-31.918-77.46v-287.461q-25.153-22.154-54.577-49.385-29.423-27.231-29.423-63.323 0-20.139 12.847-32.985Q109.077-700 129.156-700q17.03 0 31.398 9.577 14.369 9.577 22.831 25.423 8.461-15.846 22.83-25.423Q220.583-700 237.613-700q20.079 0 32.925 12.846 12.847 12.846 12.847 32.985 0 36.092-29.423 63.323t-54.577 49.385V-254q0 32.724 22.575 55.631 22.576 22.908 54.827 22.908t54.963-22.908q22.711-22.907 22.711-55.631v-404q0-68.423 47.25-115.673 47.251-47.25 115.674-47.25t115.673 47.25q47.25 47.25 47.25 115.673v26.692q57.769 6.077 96.885 49.165Q816.308-539.055 816.308-480v192q0 63.526-44.303 107.763T664.082-136q-63.621 0-107.697-44.237Q512.307-224.474 512.307-288v-192q0-59.456 39.616-102.844 39.615-43.387 97.385-48.464V-658q0-54.551-38.16-92.737-38.159-38.186-92.673-38.186-54.513 0-92.763 38.186-38.25 38.186-38.25 92.737v404q0 45.38-32.718 77.46-32.717 32.079-78.121 32.079ZM664.308-168q50 0 85-35t35-85v-192q0-50-35-85t-85-35q-50 0-85 35t-35 85v192q0 50 35 85t85 35Zm-.213-172q-22.095 0-36.941 15.058-14.846 15.059-14.846 37.154 0 22.096 15.058 36.942Q642.425-236 664.52-236q22.095 0 36.942-15.058 14.846-15.059 14.846-37.154 0-22.096-15.059-36.942Q686.191-340 664.095-340Zm.213 52Z"/></svg>