<svg xmlns="http://www.w3.org/2000/svg" height="20" viewBox="0 -960 960 960" width="20"><path d="M584-896q129.343 0 220.171 90.829Q895-714.343 895-585H777q0-31-9.5-60T741-698l-15 34q-8.273 15.63-16.136 31.815Q702-616 689-604q-17.5 17-42.75 18T603-604q-18-19-17.5-43.395Q586-671.789 603-690q12.359-12.278 27.679-21.139Q646-720 662-728l34-15q-24-17-52.5-26t-59.5-9v-118ZM483.105-76q-84.487 0-158.413-32.162-73.927-32.162-129.147-87.383-55.221-55.22-87.383-129.147Q76-398.618 76-483.105 76-635 174-749.5 272-864 422-891q-8 103 17.5 196T535-532q68 68 162.5 91.5T889-418q-24 147-139 244.5T483.105-76Z"/></svg>