<svg xmlns="http://www.w3.org/2000/svg" height="20" viewBox="0 -960 960 960" width="20"><path d="M576-864q120.343 0 204.171 83.829Q864-696.343 864-576h-72q0-43-16-81t-43-67l-40 77q-7.273 13.63-15.636 29.815Q669-601 658-590q-13.5 14-33.75 14T590-590q-14-14-14-33.895 0-19.894 14-34.105 11.359-11.278 27.179-20.139Q633-687 647-694l77-40q-29-27-67-42.5T576-792v-72ZM483.105-96q-80.487 0-150.913-30.662-70.427-30.662-122.647-82.883-52.221-52.22-82.883-122.647Q96-402.618 96-483.105 96-623 184-730.5T412-864q-17 99 11.5 188T521-518q67 67 158 95t185 11q-24 138-132.5 227T483.105-96Z"/></svg>