<svg xmlns="http://www.w3.org/2000/svg" height="20" viewBox="0 -960 960 960" width="20"><path d="m216.825-178.999 89.174-194.002h125v-133.52q-153.652-6.695-253.087-44.152t-99.435-92.805q0-62.044 115.109-99.783 115.109-37.74 285.962-37.74 171.248 0 286.611 37.74 115.364 37.739 115.364 99.783 0 55.348-99.935 92.805-99.935 37.457-252.587 44.363v133.309h125l89.174 194.002h-99.697l-48-96H364.522l-48 96h-99.697ZM479.5-604.522q84.587 0 157.456-11.174 72.869-11.174 108.347-28.282-35.478-17.109-108.347-28.065T479.5-682.999q-84.587 0-156.956 10.956-72.369 10.956-107.847 28.065 35.478 17.108 107.847 28.282T479.5-604.522Zm.5-32.956Z"/></svg>