<svg xmlns="http://www.w3.org/2000/svg" height="24" viewBox="0 -960 960 960" width="24"><path d="m254.616-179.617 72.308-179.998h123.077v-176.771q-144.923-3.846-243.038-39.615Q108.848-611.77 108.848-660q0-51.846 108.153-88.038Q325.155-784.23 480-784.23q155.461 0 263.306 36.192Q851.152-711.846 851.152-660q0 48.615-98.308 84.192-98.307 35.576-242.845 39.422v176.771h123.077l72.308 179.998h-60.768l-48-120H363.384l-48 120h-60.768ZM480-595.769q102.385 0 188.577-18.538Q754.77-632.846 784.384-660q-29.614-27.154-115.807-45.693Q582.385-724.231 480-724.231t-188.577 18.538Q205.23-687.154 175.616-660q29.614 27.154 115.807 45.693Q377.615-595.769 480-595.769ZM480-660Z"/></svg>