<svg xmlns="http://www.w3.org/2000/svg" height="20" viewBox="0 -960 960 960" width="20"><path d="M158-148q-4.25 0-7.125-2.825-2.875-2.824-2.875-7 0-4.175 2.875-7.175t7.125-3h644q4.25 0 7.125 2.825 2.875 2.824 2.875 7 0 4.175-2.875 7.175T802-148H158Zm182-406q-11.05 0-18.525-7.475Q314-568.95 314-580v8q0-11.05 7.475-18.525Q328.95-598 340-598h280q11.05 0 18.525 7.475Q646-583.05 646-572v-8q0 11.05-7.475 18.525Q631.05-554 620-554H340Zm0 240q-11.05 0-18.525-7.475Q314-328.95 314-340v8q0-11.05 7.475-18.525Q328.95-358 340-358h280q11.05 0 18.525 7.475Q646-343.05 646-332v-8q0 11.05-7.475 18.525Q631.05-314 620-314H340Z"/></svg>