<svg xmlns="http://www.w3.org/2000/svg" height="24" viewBox="0 -960 960 960" width="24"><path d="M240-186.999q-22.087 0-37.544-15.457-15.457-15.457-15.457-37.544v-320q0-22.087 15.457-37.544 15.457-15.457 37.544-15.457 22.087 0 37.544 15.457 15.457 15.457 15.457 37.544v192.911l413.955-413.955q14.957-14.957 37.044-14.957 22.087 0 37.044 14.957 14.957 14.957 14.957 37.327 0 22.369-14.957 37.326l-413.955 413.39H560q22.087 0 37.544 15.457 15.457 15.457 15.457 37.544 0 22.087-15.457 37.544-15.457 15.457-37.544 15.457H240Z"/></svg>