<svg xmlns="http://www.w3.org/2000/svg" height="20" viewBox="0 -960 960 960" width="20"><path d="M242-186.999q-22.087 0-38.544-16.457-16.457-16.457-16.457-38.544v-316q0-22.087 16.457-38.544 16.457-16.457 38.544-16.457 22.087 0 38.544 16.457 16.457 16.457 16.457 38.544v182.911l403.955-403.955q16.957-16.957 39.044-16.957 22.087 0 39.044 16.957 16.957 16.957 16.957 39.327 0 22.369-16.957 39.326l-403.955 403.39H558q22.087 0 38.544 16.457 16.457 16.457 16.457 38.544 0 22.087-16.457 38.544-16.457 16.457-38.544 16.457H242Z"/></svg>