<svg xmlns="http://www.w3.org/2000/svg" height="20" viewBox="0 -960 960 960" width="20"><path d="M248-244q-22.7 0-37.35-14.65Q196-273.3 196-296v-464q0-22.7 14.65-37.35Q225.3-812 248-812h464q22.7 0 37.35 14.65Q764-782.7 764-760v265q-3.241 1-6.621 2-3.379 1-5.379 1H541q-32.462 0-60.231 10T427-454H314v92h23q-8 24-12.5 49t-4.5 49q0 3.548-1 8.274Q318-251 312-244h-64Zm66-358h92v-92h-92v92Zm240 0h92v-92h-92v92Zm-2 454q-48.55 0-82.275-33.725Q436-215.45 436-264q0-48.55 33.725-82.275Q503.45-380 552-380h64q4.25 0 7.125 2.825 2.875 2.824 2.875 7 0 4.175-2.875 7.175T616-360h-64q-39.6 0-67.8 28.2Q456-303.6 456-264q0 39.6 28.2 67.8Q512.4-168 552-168h64q4.25 0 7.125 2.825 2.875 2.824 2.875 7 0 4.175-2.875 7.175T616-148h-64Zm22.276-106q-4.226 0-7.251-2.825-3.025-2.824-3.025-7 0-4.175 2.859-7.175t7.086-3h195.779q4.226 0 7.251 2.825 3.025 2.824 3.025 7 0 4.175-2.859 7.175t-7.086 3H574.276ZM792-148h-64q-4.25 0-7.125-2.825-2.875-2.824-2.875-7 0-4.175 2.875-7.175t7.125-3h64q39.6 0 67.8-28.2Q888-224.4 888-264q0-39.6-28.2-67.8Q831.6-360 792-360h-64q-4.25 0-7.125-2.825-2.875-2.824-2.875-7 0-4.175 2.875-7.175t7.125-3h64q48.55 0 82.275 33.949Q908-312.102 908-263.186 908-215 874.275-181.5 840.55-148 792-148Z"/></svg>