<svg xmlns="http://www.w3.org/2000/svg" height="24" viewBox="0 -960 960 960" width="24"><path d="M872.479-12.868 762.218-123.13q-22 11.869-45.435 18.239-23.435 6.37-48.304 6.37-80.417 0-136.709-56.292t-56.292-136.709q0-80.417 56.292-136.709t136.709-56.292q80.417 0 136.709 56.292 56.291 56.292 56.291 136.709 0 24.869-6.369 48.304-6.37 23.435-18.239 45.435l110.261 110.26-74.653 74.654ZM668.343-204.522q36.483 0 61.809-25.191 25.326-25.19 25.326-61.673 0-36.483-25.191-61.809-25.19-25.326-61.673-25.326-36.483 0-61.809 25.191-25.326 25.19-25.326 61.673 0 36.483 25.191 61.809 25.19 25.326 61.673 25.326ZM859.218-560H753.217v-193.217h-76.043v129.044H282.826v-129.044h-76.043v546.434h188.695v106.001H100.782v-758.436h251.522q14.391-36.696 49.938-59.761 35.546-23.066 77.758-23.066 42.826 0 78.283 23.066 35.457 23.065 50.413 59.761h250.522V-560ZM480-761.696q17 0 28.5-11.5t11.5-28.5q0-17-11.5-28.5t-28.5-11.5q-17 0-28.5 11.5t-11.5 28.5q0 17 11.5 28.5t28.5 11.5Z"/></svg>