<svg xmlns="http://www.w3.org/2000/svg" height="20" viewBox="0 -960 960 960" width="20"><path d="m815-130-91-90q-16 10-34.177 17-18.178 7-37.87 7-45.981 0-78.967-33.227Q540-262.455 540-308q0-46 33-79t79-33q46 0 79 32.986t33 78.967q0 19.26-6 38.153Q752-251 739-236l91 91-15 15Zm-163.451-86Q690-216 717-242.549q27-26.55 27-65Q744-346 717.451-373q-26.55-27-65-27Q614-400 587-373.451q-27 26.55-27 65Q560-270 586.549-243q26.55 27 65 27ZM764-576h-20v-168H620v80H340v-80H216v528h242v20H196v-568h247q1-16 10-28t27-12q16 0 25.5 12t10.5 28h248v188ZM479.965-732q11.035 0 18.535-7.465t7.5-18.5q0-11.035-7.465-18.535t-18.5-7.5Q469-784 461.5-776.535t-7.5 18.5q0 11.035 7.465 18.535t18.5 7.5Z"/></svg>