<svg xmlns="http://www.w3.org/2000/svg" height="24" viewBox="0 -960 960 960" width="24"><path d="M624-152q-5.95 0-9.975-4.035-4.025-4.035-4.025-10t4.025-9.965q4.025-4 9.975-4h106v-52H624q-5.95 0-9.975-4.035-4.025-4.035-4.025-10t4.025-9.965q4.025-4 9.975-4h106v-52H624q-5.95 0-9.975-4.035-4.025-4.035-4.025-10t4.025-9.965q4.025-4 9.975-4h106v-52H624q-5.95 0-9.975-4.035-4.025-4.035-4.025-10t4.025-9.965q4.025-4 9.975-4h106v-52H624q-5.95 0-9.975-4.035-4.025-4.035-4.025-10t4.025-9.965q4.025-4 9.975-4h106v-52H624q-5.95 0-9.975-4.035-4.025-4.035-4.025-10t4.025-9.965q4.025-4 9.975-4h120q23 0 38.5 20.5T798-516v310q0 23-15.5 38.5T744-152H624ZM362-360q66 0 113-65t47-155q0-90-47-155t-113-65q-66 0-113 65t-47 155q0 90 47 155t113 65Zm0 208q-25 0-39-19t-12-42l14-124q-65-17-108-84.5T174-580q0-103.333 54.765-175.667Q283.529-828 361.765-828 440-828 495-755.667 550-683.333 550-580q0 91-43 158.5T399-337l14 124q3 23-12.218 42T362-152Z"/></svg>