<svg xmlns="http://www.w3.org/2000/svg" height="20" viewBox="0 -960 960 960" width="20"><path d="m194-288 32-190q3.829-23.672 21.914-42.336Q266-539 291-547l370-114 66-131q1-2 11.794-14.74L835-900q15-14 35-13t35 15q14 14 13.5 33T905-831l-70 71-69.621 175.695Q762-575 755.192-568.1 748.385-561.2 740-556L535-441l-191 61-36.111 122.756Q306-252 304-248.5q-2 3.5-5 8.5l-97 123q-13.821 17-35.536 20.5Q144.75-93 126-107q-18-14.238-21.5-37.119T115-184l79-104ZM94.788-393Q59-393 33-418.712q-26-25.713-26-61.5Q7-516 33.212-541.5q26.213-25.5 62-25.5Q131-567 156.5-541.288q25.5 25.713 25.5 61.5Q182-444 156.288-418.5q-25.713 25.5-61.5 25.5ZM351-623q-28.925 8-55.463-6.5Q269-644 260.5-673t6-55.5q14.5-26.5 43.638-35.182L439-808q24-8 46.152 4.177Q507.303-791.647 514-768l7 28q7 23-4.177 43.651Q505.647-675.697 483-668l-132 45Z"/></svg>