<svg xmlns="http://www.w3.org/2000/svg" height="20" viewBox="0 -960 960 960" width="20"><path d="M706-110q-29.4 0-50.2-20.8Q635-151.6 635-181v-270q0-29.4 20.8-50.2Q676.6-522 706-522h121q29.4 0 50.2 20.8Q898-480.4 898-451v270q0 29.4-20.8 50.2Q856.4-110 827-110H706Zm0-103h121v-206H706v206ZM360-110q-15.3 0-25.65-10.289-10.35-10.29-10.35-25.5Q324-161 334.35-171.5 344.7-182 360-182h36v-59H180q-49.7 0-83.85-34.15Q62-309.3 62-359v-373q0-49.7 34.15-83.85Q130.3-850 180-850h504q49.7 0 83.85 34.15Q802-781.7 802-732v78.957Q802-629 784.711-611.5q-17.29 17.5-41.5 17.5Q719-594 701.5-611.35T684-653v-79H180v373h324q24.3 0 41.65 17.289 17.35 17.29 17.35 41.5Q563-276 545.65-258.5T504-241h-36v59h25q15.3 0 25.65 10.289 10.35 10.29 10.35 25.5Q529-131 518.65-120.5 508.3-110 493-110H360Zm72-360 53 41q8 6 17-.34t6-17.06L487-511l56-45q9-6.444 5-16.222Q544-582 533.196-582h-66.303L446-647q-3.778-10-13.889-10Q422-657 418-647l-20.893 65h-66.303Q320-582 316-572.222T321-556l56 45-21 64.6q-3 10.72 6 17.06 9 6.34 17 .34l53-41Zm0-76Z"/></svg>