<svg xmlns="http://www.w3.org/2000/svg" height="20" viewBox="0 -960 960 960" width="20"><path d="M644-196q-14.4 0-25.2-10.8Q608-217.6 608-232v-252q0-14.4 10.8-25.2Q629.6-520 644-520h132q14.4 0 25.2 10.8Q812-498.4 812-484v252q0 14.4-10.8 25.2Q790.4-196 776-196H644Zm0-60h132v-204H644v204Zm-290 60q-4.25 0-7.125-2.825-2.875-2.824-2.875-7 0-4.175 2.875-7.175t7.125-3h68v-124H200q-21.45 0-36.725-15.275Q148-370.55 148-392v-320q0-21.45 15.275-36.725Q178.55-764 200-764h464q21.45 0 36.725 15.275Q716-733.45 716-712v109.957q0 3.993-2.825 7.018-2.824 3.025-7 3.025-4.175 0-7.175-2.875T696-602v-110q0-14-9-23t-23-9H200q-14 0-23 9t-9 23v320q0 14 9 23t23 9h326q4.25 0 7.125 2.825 2.875 2.824 2.875 7 0 4.175-2.875 7.175T526-340h-84v124h68q4.25 0 7.125 2.825 2.875 2.824 2.875 7 0 4.175-2.875 7.175T510-196H354Zm78-300 50.459 41.893q3.541 3.107 8.041.334 4.5-2.774 2.5-7.627L473-525l54-44q4-2.444 2-6.722-2-4.278-7.148-4.278H459l-21.357-60.809Q436.222-645 432.111-645t-5.754 4.191L405-580h-62.852Q337-580 335-575.722t2 6.722l54 44-20 63.6q-2 4.853 2.5 7.627 4.5 2.773 8.041-.334L432-496Zm0-56Z"/></svg>