<svg xmlns="http://www.w3.org/2000/svg" height="20" viewBox="0 -960 960 960" width="20"><path d="M706-110q-29.4 0-50.2-20.8Q635-151.6 635-181v-270q0-29.4 20.8-50.2Q676.6-522 706-522h121q29.4 0 50.2 20.8Q898-480.4 898-451v270q0 29.4-20.8 50.2Q856.4-110 827-110H706Zm0-103h121v-206H706v206ZM379-429l53-41 53 41q8 6 17-.34t6-17.06L487-511l56-45q9-6.444 5-16.222Q544-582 533.196-582H467l-21-65q-3.778-10-13.889-10Q422-657 418-647l-21 65h-66.196Q320-582 316-572.222T321-556l56 45-21 64.6q-3 10.72 6 17.06 9 6.34 17 .34Zm-19 319q-15.3 0-25.65-10.289-10.35-10.29-10.35-25.5Q324-161 334.35-171.5 344.7-182 360-182h36v-59H180q-49.7 0-83.85-34.15Q62-309.3 62-359v-373q0-49.7 34.15-83.85Q130.3-850 180-850h504q49.7 0 83.85 34.15Q802-781.7 802-732v78.957Q802-629 784.65-611.5T743-594h-43q-59 0-98 43.5T563-447v147q0 24.3-17.35 41.65Q528.3-241 504-241h-36v59h25q15.3 0 25.65 10.289 10.35 10.29 10.35 25.5Q529-131 518.65-120.5 508.3-110 493-110H360Z"/></svg>