<svg xmlns="http://www.w3.org/2000/svg" height="24" viewBox="0 -960 960 960" width="24"><path d="M400-400H140q-8.5 0-14.25-5.758-5.75-5.757-5.75-14.269 0-8.511 5.75-14.242Q131.5-440 140-440h260v-80H140q-8.5 0-14.25-5.758T120-540.027q0-8.512 5.75-14.242Q131.5-560 140-560h260v-260q0-8.5 5.758-14.25 5.757-5.75 14.269-5.75 8.511 0 14.242 5.75Q440-828.5 440-820v260h80v-260q0-8.5 5.758-14.25t14.269-5.75q8.512 0 14.242 5.75Q560-828.5 560-820v260h260q8.5 0 14.25 5.758 5.75 5.757 5.75 14.269 0 8.511-5.75 14.242Q828.5-520 820-520H560v80h260q8.5 0 14.25 5.758t5.75 14.269q0 8.512-5.75 14.242Q828.5-400 820-400H560v260q0 8.5-5.758 14.25-5.757 5.75-14.269 5.75-8.511 0-14.242-5.75Q520-131.5 520-140v-260h-80v260q0 8.5-5.758 14.25T419.973-120q-8.512 0-14.242-5.75Q400-131.5 400-140v-260Zm40-40h80v-80h-80v80Z"/></svg>