<svg xmlns="http://www.w3.org/2000/svg" height="20" viewBox="0 -960 960 960" width="20"><path d="M240.615-184q-24.315 0-40.465-16.15Q184-216.3 184-240.615V-368q0-6.838 4.52-11.419T199.789-384q6.749 0 11.48 4.581Q216-374.838 216-368v127.385q0 9.23 7.692 16.923Q231.385-216 240.615-216H368q6.838 0 11.419 4.52Q384-206.959 384-200.21t-4.581 11.479Q374.838-184 368-184H240.615Zm478.77 0H592q-6.838 0-11.419-4.52T576-199.789q0-6.749 4.581-11.48Q585.162-216 592-216h127.385q9.23 0 16.923-7.692Q744-231.385 744-240.615V-368q0-6.838 4.52-11.419Q753.041-384 759.79-384t11.479 4.581Q776-374.838 776-368v127.385q0 24.315-16.15 40.465Q743.7-184 719.385-184ZM184-592v-127.385q0-24.315 16.15-40.465Q216.3-776 240.615-776H368q6.838 0 11.419 4.52T384-760.211q0 6.749-4.581 11.48Q374.838-744 368-744H240.615q-9.23 0-16.923 7.692Q216-728.615 216-719.385V-592q0 6.838-4.52 11.419Q206.959-576 200.21-576t-11.479-4.581Q184-585.162 184-592Zm560 0v-127.385q0-9.23-7.692-16.923Q728.615-744 719.385-744H592q-6.838 0-11.419-4.52Q576-753.041 576-759.79t4.581-11.479Q585.162-776 592-776h127.385q24.315 0 40.465 16.15Q776-743.7 776-719.385V-592q0 6.838-4.52 11.419T760.211-576q-6.749 0-11.48-4.581Q744-585.162 744-592ZM479.774-328q-63.62 0-107.697-44.303Q328-416.606 328-480.226q0-63.62 44.303-107.697Q416.606-632 480.226-632q63.62 0 107.697 44.303Q632-543.394 632-479.774q0 63.62-44.303 107.697Q543.394-328 479.774-328Zm.226-32q50 0 85-35t35-85q0-50-35-85t-85-35q-50 0-85 35t-35 85q0 50 35 85t85 35Zm0-120Z"/></svg>