<svg xmlns="http://www.w3.org/2000/svg" height="20" viewBox="0 -960 960 960" width="20"><path d="M212.001-164.001v-332.385l-66.692 51.308-32.076-41.845L480-766.998l366.767 280.075-32.076 42.23-66.692-51.693v332.385H212.001ZM264-216h432v-320.334L480-701 264-537v321Zm0 0h432-432Zm72.211-148.616q-12.903 0-22.249-9.135-9.346-9.136-9.346-22.038 0-12.903 9.135-22.249 9.136-9.346 22.038-9.346 12.903 0 22.249 9.135 9.346 9.136 9.346 22.038 0 12.903-9.135 22.249-9.136 9.346-22.038 9.346Zm144 0q-12.903 0-22.249-9.135-9.346-9.136-9.346-22.038 0-12.903 9.135-22.249 9.136-9.346 22.038-9.346 12.903 0 22.249 9.135 9.346 9.136 9.346 22.038 0 12.903-9.135 22.249-9.136 9.346-22.038 9.346Zm144 0q-12.903 0-22.249-9.135-9.346-9.136-9.346-22.038 0-12.903 9.135-22.249 9.136-9.346 22.038-9.346 12.903 0 22.249 9.135 9.346 9.136 9.346 22.038 0 12.903-9.135 22.249-9.136 9.346-22.038 9.346Z"/></svg>