<svg xmlns="http://www.w3.org/2000/svg" height="24" viewBox="0 -960 960 960" width="24"><path d="M144.738-111.521v-375L77.26-434.348l-58.174-78.131 460.349-351.827 460.914 351.827-58.74 76.566-67.478-50.608v375H144.738ZM326.257-361.13q-19.786 0-33.587-13.439-13.8-13.439-13.8-33.305t13.8-33.344q13.801-13.478 33.587-13.478 19.787 0 33.265 13.438 13.479 13.439 13.479 33.305t-13.479 33.344q-13.478 13.479-33.265 13.479Zm153.138-.566q-19.786 0-33.265-13.438-13.478-13.439-13.478-33.305t13.478-33.627q13.479-13.761 33.265-13.761 19.787 0 33.587 13.761 13.801 13.761 13.801 33.627 0 19.866-13.801 33.305-13.8 13.438-33.587 13.438Zm153.862 0q-19.787 0-33.588-13.438-13.8-13.439-13.8-33.305t13.8-33.627q13.801-13.761 33.588-13.761 19.786 0 33.265 13.761Q680-428.305 680-408.439q0 19.866-13.478 33.305-13.479 13.438-33.265 13.438Z"/></svg>