<svg xmlns="http://www.w3.org/2000/svg" height="20" viewBox="0 -960 960 960" width="20"><path d="M244-196v-325l-71 55-13-16 320-245 320 245-13 17-71-56v325H244Zm20-20h432v-320.334L480-701 264-537v321Zm0 0h432-432Zm72.211-156q-9.211 0-16.711-7.289-7.5-7.29-7.5-16.5 0-9.211 7.289-16.711 7.29-7.5 16.5-7.5 9.211 0 16.711 7.289 7.5 7.29 7.5 16.5 0 9.211-7.289 16.711-7.29 7.5-16.5 7.5Zm144 0q-9.211 0-16.711-7.289-7.5-7.29-7.5-16.5 0-9.211 7.289-16.711 7.29-7.5 16.5-7.5 9.211 0 16.711 7.289 7.5 7.29 7.5 16.5 0 9.211-7.289 16.711-7.29 7.5-16.5 7.5Zm144 0q-9.211 0-16.711-7.289-7.5-7.29-7.5-16.5 0-9.211 7.289-16.711 7.29-7.5 16.5-7.5 9.211 0 16.711 7.289 7.5 7.29 7.5 16.5 0 9.211-7.289 16.711-7.29 7.5-16.5 7.5Z"/></svg>