<svg xmlns="http://www.w3.org/2000/svg" height="20" viewBox="0 -960 960 960" width="20"><path d="M174.783-76.782q-41.005 0-69.503-28.498-28.498-28.498-28.498-69.503v-112.216q0-20.388 14.246-34.694Q105.274-336 125.572-336q20.298 0 34.754 14.307 14.457 14.306 14.457 34.694v112.216h112.216q20.388 0 34.694 14.246Q336-146.291 336-125.993q0 20.298-14.307 34.755-14.306 14.456-34.694 14.456H174.783ZM76.782-673v-112.216q0-41.005 28.498-69.503 28.498-28.498 69.503-28.498h112.216q20.388 0 34.694 14.246Q336-854.726 336-834.428q0 20.298-14.307 34.754-14.306 14.457-34.694 14.457H174.783v112.216q0 20.388-14.246 34.694Q146.291-624 125.993-624q-20.298 0-34.755-14.307-14.456-14.306-14.456-34.694Zm403.006 278.002q-35.44 0-60.115-24.701-24.674-24.7-24.674-59.879 0-36.073 24.701-60.748 24.7-24.674 59.879-24.674 36.073 0 60.748 24.435 24.674 24.436 24.674 60.778 0 35.44-24.435 60.115-24.436 24.674-60.778 24.674ZM785.217-76.782H673.001q-20.388 0-34.694-14.246Q624-105.274 624-125.572q0-20.298 14.307-34.754 14.306-14.457 34.694-14.457h112.216v-112.216q0-20.388 14.246-34.694Q813.709-336 834.007-336q20.298 0 34.755 14.307 14.456 14.306 14.456 34.694v112.216q0 41.005-28.498 69.503-28.498 28.498-69.503 28.498Zm0-596.219v-112.216H673.001q-20.388 0-34.694-14.246Q624-813.709 624-834.007q0-20.298 14.307-34.755 14.306-14.456 34.694-14.456h112.216q41.005 0 69.503 28.498 28.498 28.498 28.498 69.503v112.216q0 20.388-14.246 34.694Q854.726-624 834.428-624q-20.298 0-34.754-14.307-14.457-14.306-14.457-34.694ZM254.502-452q-21.816 0-33.594 19.638-11.778 19.638-3.387 41.624 22.261 60.912 66.305 105.369 44.043 44.456 104.956 65.587 22.217 8.956 41.935-4.5 19.718-13.457 19.718-37.805 0-17.392-9.413-29.653t-24.109-19.522q-36.522-14.869-64.021-42.717-27.5-27.847-40.935-63.803-7.558-15.745-23.062-24.981Q273.391-452 254.502-452Zm.933-56q-22.232 0-33.703-19.587-11.472-19.587-2.954-43.091 21.74-59.369 65.915-103.889 44.176-44.52 104.089-65.651 23.217-8.956 42.718 4.5 19.5 13.457 19.5 37.805 0 17.392-9.413 29.653t-24.109 19.522q-36.521 14.869-63.521 42.217-27 27.347-40.434 63.303-8.392 16.392-24.15 25.805T255.435-508Zm450.695 56q22.653 0 33.414 19.638 10.761 19.638 2.369 41.624-22.261 60.912-66.021 105.369-43.761 44.456-103.674 65.587-23.217 8.956-42.935-4.5-19.718-13.457-19.718-37.805 0-17.392 10.196-29.653t24.891-19.522q36.522-14.869 63.239-42.717 26.717-27.847 41.152-63.803 7.63-15.745 23.315-24.981Q688.043-452 706.13-452Zm0-56q22.653 0 33.414-19.587 10.761-19.587 2.161-43.119-22.053-59.468-65.531-103.925-43.478-44.456-103.39-65.587-23.218-8.956-43.218 4.5-20.001 13.457-20.001 37.805 0 17.392 9.913 29.653t24.609 19.522q36.522 14.869 63.368 42.064 26.846 27.194 41.588 63.456 7.63 16.186 23.315 25.702Q688.043-508 706.13-508Z"/></svg>