<svg xmlns="http://www.w3.org/2000/svg" height="24" viewBox="0 -960 960 960" width="24"><path d="m215.565-232.587 94.63-163.826q-66.717-1.913-112.88-49.75T151.152-560q0-68.152 48.196-116.228 48.195-48.076 116.348-48.076 68.152 0 116.228 48.076Q480-628.152 480-560q0 23.089-5.38 42.664-5.381 19.575-15.903 37.336L316.413-232.587H215.565Zm368.848 0 94.391-163.826q-66.717-1.913-112.761-49.75Q520-494 520-560q0-68.152 48.076-116.228 48.076-48.076 116.228-48.076 68.153 0 116.348 48.076Q848.848-628.152 848.848-560q0 23.089-5.38 42.664-5.381 19.575-15.903 37.336L685.022-232.587H584.413ZM315.696-502.87q23.804 0 40.347-16.663 16.544-16.663 16.544-40.467t-16.593-40.467Q339.4-617.13 315.696-617.13q-23.805 0-40.468 16.663-16.663 16.663-16.663 40.467t16.663 40.467q16.663 16.663 40.468 16.663Zm368.608 0q23.805 0 40.468-16.663 16.663-16.663 16.663-40.467t-16.663-40.467q-16.663-16.663-40.468-16.663-23.804 0-40.347 16.663-16.544 16.663-16.544 40.467t16.593 40.467q16.594 16.663 40.298 16.663Zm.24-57.13Zm-368.848 0Z"/></svg>