<svg xmlns="http://www.w3.org/2000/svg" height="24" viewBox="0 -960 960 960" width="24"><path d="m198.607-222.477 98.218-169.044q-67.696-4.522-112.717-53.501Q139.086-494 139.086-560q0-71.087 49.826-120.631 49.826-49.543 120.914-49.543 71.087 0 120.63 49.543Q480-631.087 480-560q0 23-5.217 42.783-5.218 19.782-15.087 37.217L311.521-222.477H198.607Zm380.914 0 97.653-169.044q-67.696-4.522-112.435-53.501Q520-494 520-560q0-71.087 49.544-120.631 49.543-49.543 120.63-49.543 71.088 0 120.914 49.543Q860.914-631.087 860.914-560q0 23-5.217 42.783-5.218 19.782-15.087 37.217L691.87-222.477H579.521Z"/></svg>