<svg xmlns="http://www.w3.org/2000/svg" height="20" viewBox="0 -960 960 960" width="20"><path d="m270.694-301.847 75.923-132.462q-3.462 1.923-8.078 2.693-4.615.769-9.231.769-42 0-73.576-33.239-31.577-33.238-31.577-79.914 0-49 32.577-81.576 32.576-32.577 81.576-32.577 48.288 0 81.22 32.577 32.933 32.576 32.933 81.442 0 13.211-4.116 27.365-4.115 14.153-11.961 29.615L330.615-301.847h-59.921Zm283.384 0 75.923-132.462q-3.462 1.923-8.077 2.693-4.616.769-9.232.769-41.999 0-73.576-33.239-31.577-33.238-31.577-79.914 0-49.384 32.577-81.769 32.577-32.384 81.576-32.384 48.288 0 81.221 32.577 32.932 32.576 32.932 81.442 0 15.211-4.115 29.865-4.116 14.653-10.962 27.115L613.999-301.847h-59.921ZM338.073-474.153q29.005 0 49.543-20.303 20.539-20.304 20.539-49.309t-20.303-49.543q-20.304-20.539-49.309-20.539t-49.544 20.303q-20.538 20.304-20.538 49.309t20.303 49.543q20.304 20.539 49.309 20.539Zm283.384 0q29.005 0 49.544-20.303 20.538-20.304 20.538-49.309t-20.303-49.543q-20.304-20.539-49.309-20.539t-49.543 20.303q-20.539 20.304-20.539 49.309t20.303 49.543q20.304 20.539 49.309 20.539Zm.235-69.847Zm-283.384 0Z"/></svg>