<svg xmlns="http://www.w3.org/2000/svg" height="20" viewBox="0 -960 960 960" width="20"><path d="M850.515-562.999q-20.298 0-34.755-14.307-14.456-14.307-14.456-34.694v-168q0-20.387 14.246-34.694 14.246-14.307 34.544-14.307 20.297 0 34.754 14.307 14.457 14.307 14.457 34.694v168q0 20.387-14.246 34.694-14.246 14.307-34.544 14.307Zm-724.603 432v-698.002h602.001v698.002H125.912Zm146.001-398.002h93.999v-36h122.001v36h93.999v-153.998H271.913v153.998Zm0 251h309.999v-152.998H271.913v152.998Zm-48 49h405.999v-501.998H223.913v501.998Z"/></svg>