<svg xmlns="http://www.w3.org/2000/svg" height="20" viewBox="0 -960 960 960" width="20"><path d="M159.652-405.652q-35-32.239-52.217-76.076Q90.217-525.565 90.217-575q0-100.391 66.174-173.087Q222.565-820.783 320-820.783q45.522 0 86.522 18.402 41 18.403 73.478 50.685 31.478-33.282 72.978-51.185 41.5-17.902 87.022-17.902 97.435 0 163.609 72.696T869.783-575q0 48.435-16.598 92.272t-50.837 76.076L481-107.304 159.652-405.652ZM320-740.174q-64.087 0-106.63 48.685Q170.826-642.804 170.826-575q0 14.761 2.5 29.402 2.5 14.641 7.022 27.924H376.37l50.673 63.174 72.022-141.196h56.065l63.153 78.022h162.13q4.761-13.283 6.641-27.924 1.881-14.641 1.881-30.402.478-65.804-42.185-115.228-42.663-49.424-106.75-49.424-29.043 0-56.206 12.88-27.164 12.881-47.924 34.402l-39.718 42.957h-30.304L424.13-693.37q-20.76-22.521-47.543-34.663-26.783-12.141-56.587-12.141Zm157.609 519.326 241.586-218.608H582.87l-49.913-62.174-71.305 140.195h-56.543l-63.392-78.021H239.805l237.804 218.608ZM480-480.63Z"/></svg>