<svg xmlns="http://www.w3.org/2000/svg" height="24" viewBox="0 -960 960 960" width="24"><path d="M435.478-435.478V-320q0 18.922 12.8 31.722t31.722 12.8q18.922 0 31.722-12.8t12.8-31.722v-115.478H640q18.922 0 31.722-12.8t12.8-31.722q0-18.922-12.8-31.722T640-524.522H524.522V-640q0-18.922-12.8-31.722T480-684.522q-18.922 0-31.722 12.8T435.478-640v115.478H320q-18.922 0-31.722 12.8T275.478-480q0 18.922 12.8 31.722t31.722 12.8h115.478ZM480-60.782q-87.522 0-163.906-32.96-76.385-32.96-132.888-89.464-56.504-56.503-89.464-132.888Q60.782-392.478 60.782-480t32.96-163.906q32.96-76.385 89.464-132.888 56.503-56.504 132.888-89.464 76.384-32.96 163.906-32.96t163.906 32.96q76.385 32.96 132.888 89.464 56.504 56.503 89.464 132.888 32.96 76.384 32.96 163.906t-32.96 163.906q-32.96 76.385-89.464 132.888-56.503 56.504-132.888 89.464Q567.522-60.782 480-60.782Zm0-106.001q131.739 0 222.478-90.739T793.217-480q0-131.739-90.739-222.478T480-793.217q-131.739 0-222.478 90.739T166.783-480q0 131.739 90.739 222.478T480-166.783ZM480-480Z"/></svg>