<svg xmlns="http://www.w3.org/2000/svg" height="24" viewBox="0 -960 960 960" width="24"><path d="M480-120q-75.308 0-141-28.038-65.692-28.039-114.308-76.654Q176.077-273.308 148.038-339 120-404.692 120-480t28.038-141q28.039-65.692 76.654-114.308Q273.308-783.923 339-811.962 404.692-840 480-840t141 28.038q65.692 28.039 114.308 76.654Q783.923-686.692 811.962-621 840-555.308 840-480t-28.038 141q-28.039 65.692-76.654 114.308Q686.692-176.077 621-148.038 555.308-120 480-120Zm0-40q61.385 0 115.115-21.346 53.731-21.346 96.27-58.731L571.461-360h56.847l91.384 91.385q37.385-42.539 58.846-96.27Q800-418.615 800-480q0-133-93.5-226.5T480-800q-61.385 0-115.115 21.462-53.731 21.461-96.27 59.615L387.769-600h-56.077l-91.384-91.385q-37.385 42.539-58.846 96.27Q160-541.385 160-480q0 133 93.5 226.5T480-160ZM215.385-407.692 270-480l-54.615-72.308h40.769L290-506.923l33.846-45.385h40.769L310.769-480l53.846 72.308h-40.769L290-453.077l-33.846 45.385h-40.769Zm190 0L460-480l-54.615-72.308h40.769L480-506.923l33.846-45.385h40.769L500.769-480l53.846 72.308h-40.769L480-453.077l-33.846 45.385h-40.769Zm190 0L650-480l-54.615-72.308h40.769L670-506.923l33.846-45.385h40.769L690.769-480l53.846 72.308h-40.769L670-453.077l-33.846 45.385h-40.769Z"/></svg>