<svg xmlns="http://www.w3.org/2000/svg" height="24" viewBox="0 -960 960 960" width="24"><path d="M367.385-518.231q0 26.692 11.884 50.077 11.885 23.385 33.116 38.385-1.539-3.077-1.924-6.154-.384-3.077-.384-6.923.461-12.769 5.692-24.269 5.231-11.5 15-21.039L480-536.923l49.769 49q9.77 9.538 14.616 20.923 4.846 11.385 5.307 24.154 0 3.846-.384 6.923-.385 3.077-1.923 6.154 21-15 33.346-38.154 12.346-23.154 12.346-49.846 0-22.846-7.923-43.039-7.923-20.192-23.769-36.73-9.462 5.769-20.193 9.153Q530.462-585 519.231-585q-29.231 0-52.308-18.923-23.077-18.923-28.385-47.692-16.615 14.307-30.076 30.5Q395-604.923 385.962-588q-9.039 16.923-13.808 34.461-4.769 17.539-4.769 35.308ZM480-486.769l-24.692 23.923q-4.769 4.769-7.423 10.692t-2.654 13.231q0 14.615 10.077 24.077 10.077 9.461 24.692 9.461t24.692-9.461q10.077-9.462 10.077-24.077 0-7.308-2.654-13.231t-7.423-10.692L480-486.769Zm-7.692-231.693v52.154q0 19.308 13.923 32.731 13.923 13.423 33.231 13.423 9.461 0 17.307-3.808 7.846-3.807 14.846-11.269l7.77-9.231q32.538 19.923 50.807 54.039 18.27 34.115 18.27 72.654 0 62.307-43.077 105.038Q542.308-370 480-370q-62.308 0-105.154-42.846T332-518q0-60.077 38.615-112.769 38.616-52.693 101.693-87.693ZM244.615-100q-26.846 0-45.73-18.885Q180-137.769 180-164.615V-720q0-58.308 40.846-99.154T320-860h320q58.308 0 99.154 40.846T780-720v555.385q0 26.846-18.885 45.73Q742.231-100 715.385-100h-470.77ZM220-260v95.385q0 10.769 6.923 17.692T244.615-140h470.77q10.769 0 17.692-6.923T740-164.615V-260q-53.077 0-73 20-19.923 20-67 20-47.846 0-64.346-20-16.5-20-55.654-20t-55.654 20q-16.5 20-64.346 20-47.077 0-65.5-20-18.423-20-74.5-20Zm140 0q39.154 0 55.654-20T480-300q48.615 0 66.231 20 17.615 20 53.769 20 35.385 0 55.308-20 19.923-20 84.692-20v-420q0-41.461-29.269-70.731Q681.461-820 640-820H320q-41.461 0-70.731 29.269Q220-761.461 220-720v420q64 0 82.808 20 18.807 20 57.192 20Z"/></svg>