<svg xmlns="http://www.w3.org/2000/svg" height="24" viewBox="0 -960 960 960" width="24"><path d="M480-654Zm174 174Zm-348 0Zm174 174Zm0-262.464-99.999-99.998v-191.537h199.998v191.537L480-568.464Zm188.462 188.463L568.464-480l99.998-99.999h191.537v199.998H668.462Zm-568.461 0v-199.998h191.537L391.536-480l-99.998 99.999H100.001Zm280 280v-191.537L480-391.536l99.999 99.998v191.537H380.001ZM480-654l40-40v-106h-80v106l40 40ZM160-440h106l40-40-40-40H160v80Zm280 280h80v-106l-40-40-40 40v106Zm254-280h106v-80H694l-40 40 40 40Z"/></svg>