<svg xmlns="http://www.w3.org/2000/svg" height="20" viewBox="0 -960 960 960" width="20"><path d="M220.403-164.001q-23.441 0-39.921-16.693-16.481-16.693-16.481-40.134t16.693-39.922q16.693-16.48 40.134-16.48t39.922 16.693q16.48 16.693 16.48 40.134t-16.693 39.921q-16.693 16.481-40.134 16.481Zm510.367 0q0-118.077-44.532-220.881t-121.45-179.781q-76.919-76.976-179.646-121.542-102.726-44.565-221.141-44.565v-65.229q131.538 0 246.051 49.492 114.512 49.492 200.705 135.628 86.193 86.136 135.717 200.495 49.525 114.359 49.525 246.383H730.77Zm-230.769 0q0-70-26-131t-72-107q-46-46-107-72t-131-26v-65.229q83.982 0 156.759 31.229 72.776 31.229 127.701 85.54 54.311 54.879 85.54 127.595 31.229 72.716 31.229 156.865h-65.229Z"/></svg>