<svg xmlns="http://www.w3.org/2000/svg" height="24" viewBox="0 -960 960 960" width="24"><path d="M283.616-359.231q46.462-4.616 95.269-6.923 48.808-2.308 101.115-2.308 51.692 0 100.5 2.308 48.807 2.307 95.884 6.923 13.923 1.615 19.077-8.077 5.153-9.692-3.539-21L573.846-530.076q-5.615-6.615-13.846-6.615t-13.846 6.615l-96.692 114.923-66.154-79.154q-5-6.615-13.539-6.615-8.538 0-14.153 7.23l-87.538 104.999q-8.692 10.923-3.846 21t19.384 8.462ZM139.232-186.156q-16.231 1.923-27.731-7.653-11.5-9.577-11.5-26.962V-738.46q0-17.385 11.5-26.961 11.5-9.577 27.731-7.654 28.539 5 115.539 29.038T480-719.999q139.229 0 225.344-23.845 86.115-23.846 114.655-29.231 16.23-1.923 28.115 7.654 11.885 9.576 11.885 26.961v517.689q0 17.385-11.885 26.962-11.885 9.576-28.115 7.653-28.54-5.385-114.655-29.615-86.115-24.23-225.344-24.23-138.229 0-225.229 24.23t-115.539 29.615ZM160-254q78-23 158.5-34.5T480-300q81 0 161.5 11.5T800-254v-450.615q-78 23-158.5 33.807Q561-660 480-660t-161.5-10.808Q238-681.615 160-704.615V-254Zm320-225.615Z"/></svg>