<svg xmlns="http://www.w3.org/2000/svg" height="20" viewBox="0 -960 960 960" width="20"><path d="M279.231-366.461q47.923-4.231 97.038-7.347 49.116-3.115 103.731-3.115 52.385 0 102 3.115 49.615 3.116 97.769 7.347 7.847 1.23 10.154-3.154 2.308-4.385-2.077-10L573.692-519.154q-6.23-7.231-14.692-7.231t-14.692 7.231l-91.385 107.846-64.308-76.307q-7-7.231-15.077-7.231t-14.307 6.461l-88.077 108q-4.385 4.847-1.693 10 2.693 5.154 9.77 3.924Zm-120.77 154.154Q143-208.461 131.5-216.115q-11.5-7.654-11.5-25.423v-475.385q0-17.77 11.5-25.423 11.5-7.654 26.961-3.808 40.077 10 122.077 28.077T480-700q118.462 0 199.193-17.693 80.73-17.692 120.807-28.461 15.462-3.846 27.731 3.808Q840-734.693 840-716.923v475.385q0 17.769-12.269 25.423T800-212.307q-40.077-10.77-120.807-29.231Q598.462-260 480-260q-117.462 0-199.462 18.462-82 18.461-122.077 29.231ZM164-259q77-23 156-34t160-11q81 0 160 11t156 34v-440.231q-78 22-156.5 32.616Q561-656 480-656t-159.5-10.115Q242-676.231 164-699.231V-259Zm316-220.231Z"/></svg>