<svg xmlns="http://www.w3.org/2000/svg" height="24" viewBox="0 -960 960 960" width="24"><path d="M293.231-368.461q44.923-4.231 91.038-6.347 46.116-2.115 95.731-2.115 49.385 0 95.5 2.115 46.115 2.116 91.269 6.347 10.847 1.23 14.654-6.154 3.808-7.385-2.577-16L572.692-518.154q-5.23-6.231-12.692-6.231t-12.692 6.231l-94.385 111.846-67.308-80.307q-5-6.231-12.577-6.231t-12.807 6.461l-79.077 95q-6.385 7.847-2.693 16 3.693 8.154 14.77 6.924Zm-134.77 156.154Q143-208.461 131.5-216.115q-11.5-7.654-11.5-25.423v-475.385q0-17.77 11.5-25.423 11.5-7.654 26.961-3.808 40.077 10 122.077 28.077T480-700q118.462 0 199.193-17.693 80.73-17.692 120.807-28.461 15.462-3.846 27.731 3.808Q840-734.693 840-716.923v475.385q0 17.769-12.269 25.423T800-212.307q-40.077-10.77-120.807-29.231Q598.462-260 480-260q-117.462 0-199.462 18.462-82 18.461-122.077 29.231Z"/></svg>