<svg xmlns="http://www.w3.org/2000/svg" height="20" viewBox="0 -960 960 960" width="20"><path d="M270.74-349.13q49.304-4.435 100.695-7.653Q422.826-360 480-360q54.174 0 106.348 3.217 52.173 3.218 101.912 7.653 17.392 2 23.805-9.544t-4.848-24.805L581.652-536.782q-9.261-10.261-22.652-10.261-13.391 0-22.652 10.261L446-429l-56.348-67.217q-9.261-10.261-22.652-10.261-13.391 0-22.652 9.696l-92.565 113.303q-11.261 13.827-4.848 25.088 6.413 11.261 23.805 9.261ZM120-140.782q-24.348 0-41.783-17.435Q60.782-175.652 60.782-200v-560q0-24.348 17.435-41.783Q95.652-819.218 120-819.218q26.609 0 112.109 30t247.891 30q163.391 0 248.391-30t111.609-30q24.348 0 41.783 17.435 17.435 17.435 17.435 41.783v560q0 24.348-17.435 41.783-17.435 17.435-41.783 17.435-26.609 0-111.609-30t-248.391-30q-162.391 0-247.891 30t-112.109 30Zm50.783-127.827q75.304-22.435 152.608-32.304 77.305-9.87 156.609-9.87t156.609 9.87q77.304 9.869 152.608 32.304v-422.347q-76.304 21.435-153.108 31.587Q559.304-649.217 480-649.217t-156.109-9.652q-76.804-9.652-153.108-32.087v422.347ZM480-480Z"/></svg>