<svg xmlns="http://www.w3.org/2000/svg" height="20" viewBox="0 -960 960 960" width="20"><path d="M376-376H232q-6.8 0-11.4-4.547-4.6-4.547-4.6-11.269t4.6-11.453Q225.2-408 232-408h147.692q12.031 0 20.17 8.138 8.138 8.139 8.138 20.17V-232q0 6.8-4.547 11.4-4.548 4.6-11.27 4.6-6.722 0-11.452-4.6Q376-225.2 376-232v-144Zm208 0v144q0 6.8-4.547 11.4-4.547 4.6-11.269 4.6t-11.453-4.6Q552-225.2 552-232v-147.692q0-12.031 8.138-20.17 8.139-8.138 20.17-8.138H728q6.8 0 11.4 4.547 4.6 4.548 4.6 11.27 0 6.722-4.6 11.452Q734.8-376 728-376H584ZM376-584v-144q0-6.8 4.547-11.4 4.547-4.6 11.269-4.6t11.453 4.6Q408-734.8 408-728v147.692q0 12.031-8.138 20.17-8.139 8.138-20.17 8.138H232q-6.8 0-11.4-4.547-4.6-4.547-4.6-11.27 0-6.722 4.6-11.452Q225.2-584 232-584h144Zm208 0h144q6.8 0 11.4 4.547 4.6 4.547 4.6 11.269t-4.6 11.453Q734.8-552 728-552H580.308q-12.031 0-20.17-8.138-8.138-8.139-8.138-20.17V-728q0-6.8 4.547-11.4 4.547-4.6 11.27-4.6 6.722 0 11.452 4.6Q584-734.8 584-728v144Z"/></svg>