<svg xmlns="http://www.w3.org/2000/svg" height="20" viewBox="0 -960 960 960" width="20"><path d="M499-432h96.072q19.269 0 33.099-14.289Q642-460.579 642-479.789 642-499 628.171-513q-13.83-14-33.099-14H499l15-16q14-15 14.5-33.667Q529-595.333 515-609q-15-15-33.5-15T448-609l-87.138 87.138Q343-503.636 343-479.636T361-438l87 87q15 15 34 14t33-15q15-15 14.5-33.5T514-419l-15-13ZM228-110q-48.675 0-83.337-34.663Q110-179.325 110-228v-504q0-48.675 34.663-83.338Q179.325-850 228-850h138q15-33 45.5-52.5T480-922q38 0 68.5 19.5T594-850h138q48.675 0 83.338 34.662Q850-780.675 850-732v504q0 48.675-34.662 83.337Q780.675-110 732-110H228Zm0-118h504v-504H228v504Zm252-532q13.867 0 22.933-9.067Q512-778.133 512-792q0-13.867-9.067-22.933Q493.867-824 480-824q-13.867 0-22.933 9.067Q448-805.867 448-792q0 13.867 9.067 22.933Q466.133-760 480-760ZM228-228v-504 504Z"/></svg>