<svg xmlns="http://www.w3.org/2000/svg" height="20" viewBox="0 -960 960 960" width="20"><path d="M479.752-799.692q-30.137 0-50.791-20.902-20.653-20.902-20.653-51.038 0-30.137 20.901-50.791 20.902-20.654 51.039-20.654t50.791 20.902q20.653 20.901 20.653 51.038 0 30.137-20.901 50.791-20.902 20.654-51.039 20.654Zm-87.445 575.077v-465.579q-52.923-4.652-100.115-12.152-47.192-7.5-92.192-19.5-7.308-2.462-10.693-8.269-3.384-5.808-1.692-11.347 1.692-6.307 7.76-8.577 6.068-2.269 13.086.193 69.77 17.769 134.27 26.269 64.5 8.5 137.269 8.5t137.269-8.5q64.5-8.5 134.27-26.269 7.018-2.462 13.086-.193 6.068 2.27 7.76 8.577 1.692 5.539-1.692 11.347-3.385 5.807-10.693 8.269-45 12-92.192 19.5-47.192 7.5-100.115 12.152v465.579q0 6.838-4.521 11.419-4.52 4.581-11.269 4.581-6.749 0-11.48-4.581-4.731-4.581-4.731-11.419v-225.539H424.308v225.539q0 6.838-4.521 11.419-4.52 4.581-11.269 4.581-6.749 0-11.48-4.581-4.731-4.581-4.731-11.419ZM324-21.231q-11.385 0-19.077-7.192-7.692-7.192-7.692-19.577 0-12.385 7.692-19.577 7.692-7.192 19.077-7.192 11.385 0 19.077 7.192 7.692 7.192 7.692 19.577 0 12.385-7.692 19.577-7.692 7.192-19.077 7.192Zm156 0q-11.385 0-19.077-7.192-7.692-7.192-7.692-19.577 0-12.385 7.692-19.577 7.692-7.192 19.077-7.192 11.385 0 19.077 7.192 7.692 7.192 7.692 19.577 0 12.385-7.692 19.577-7.692 7.192-19.077 7.192Zm156 0q-11.385 0-19.077-7.192-7.692-7.192-7.692-19.577 0-12.385 7.692-19.577 7.692-7.192 19.077-7.192 11.385 0 19.077 7.192 7.692 7.192 7.692 19.577 0 12.385-7.692 19.577-7.692 7.192-19.077 7.192Z"/></svg>