<svg xmlns="http://www.w3.org/2000/svg" height="24" viewBox="0 -960 960 960" width="24"><path d="M480.075-782.477q-36.466 0-62.51-26.327-26.044-26.326-26.044-62.792 0-36.467 25.969-62.435Q443.458-960 479.925-960q36.466 0 62.51 25.969 26.044 25.968 26.044 62.435 0 36.466-25.969 62.792-25.968 26.327-62.435 26.327ZM349.826-238.304v-409.752q-46.739-3.725-93.631-10.16-46.891-6.434-93.195-16.869-20.391-4.565-32.305-22.392-11.913-17.826-6.347-38.217 5.565-20.392 24.674-30.088 19.108-9.695 41.065-5.13 70 14.435 144.37 21.435 74.369 7 145.543 7t145.543-7q74.37-7 144.935-21.435 21.957-4.565 41.066 5.13 19.108 9.696 24.674 30.088 5.565 20.391-6.348 38.217-11.913 17.827-32.305 22.392-46.304 10.435-93.478 16.869-47.174 6.435-93.913 10.16v409.752q0 20.603-13.937 34.541-13.938 13.937-34.541 13.937-20.604 0-34.541-13.937-13.938-13.938-13.938-34.541v-180.217h-66.434v180.217q0 20.603-13.938 34.541-13.937 13.937-34.541 13.937-20.603 0-34.541-13.937-13.937-13.938-13.937-34.541ZM311.521 0q-19.261 0-33.304-13.761-14.044-13.761-14.044-33.022 0-19.26 14.044-33.305Q292.26-94.13 311.521-94.13q19.261 0 33.022 14.043 13.761 14.044 13.761 33.305t-13.761 33.022Q330.782 0 311.521 0ZM480 0q-19.261 0-32.739-13.761-13.479-13.761-13.479-33.022 0-19.26 13.479-33.305Q460.739-94.13 480-94.13q19.261 0 33.022 14.043 13.761 14.044 13.761 33.305t-13.761 33.022Q499.261 0 480 0Zm169.609 0q-19.261 0-33.022-13.761t-13.761-33.022q0-19.26 13.761-33.305 13.761-14.043 33.022-14.043t33.022 14.043q13.761 14.044 13.761 33.305t-13.761 33.022Q668.87 0 649.609 0Z"/></svg>