<svg xmlns="http://www.w3.org/2000/svg" height="24" viewBox="0 -960 960 960" width="24"><path d="M480.133-769Q441-769 413-797.5q-28-28.5-28-67.633 0-39.133 27.867-67 27.868-27.867 67-27.867Q519-960 547-932.133q28 27.867 28 67Q575-826 547.133-797.5q-27.867 28.5-67 28.5ZM342-237v-386.487Q297-627 252.5-633T163-649q-23-5-36-25t-7-43q6-23 27.5-34t46.5-6q70 14 143.5 21t142.5 7q69 0 142.5-7T767-757q25-5 46.5 6t27.5 34q6 23-7 43t-36 25q-45 10-90 16t-90 9.513V-237q0 23.375-15.812 39.188Q586.375-182 563-182t-39.188-15.812Q508-213.625 508-237v-165h-56v165q0 23.375-15.812 39.188Q420.375-182 397-182t-39.188-15.812Q342-213.625 342-237ZM305 0q-21 0-37-15.5T252-52q0-21 16-37t37-16q21 0 36.5 16T357-52q0 21-15.5 36.5T305 0Zm175 0q-21 0-36-15.5T429-52q0-21 15-37t36-16q21 0 36.5 16T532-52q0 21-15.5 36.5T480 0Zm177 0q-21 0-36.5-15.5T605-52q0-21 15.5-37t36.5-16q21 0 36.5 16T709-52q0 21-15.5 36.5T657 0Z"/></svg>