<svg xmlns="http://www.w3.org/2000/svg" height="20" viewBox="0 -960 960 960" width="20"><path d="M167.788-434Q148-434 135-447.212q-13-13.213-13-33Q122-500 135.212-513q13.213-13 33-13Q188-526 201-512.788q13 13.213 13 33Q214-460 200.788-447q-13.213 13-33 13Zm59.291 191.921 118.842-118.842Q350-365 352.5-365t7.5 5q5 5 5 7.5t-5.079 7.579L241.079-226.079Q237-222 234.5-222t-7.5-5q-5-5-5-7.5t5.079-7.579Zm118.764-358L226.157-718.921Q222-723 222-725.5t5-7.5q5-5 7.5-5t7.579 5.079l118.842 118.842Q365-610 365.5-607.5T361-600q-5 5-7.5 5t-7.657-5.079ZM479.788-122Q460-122 447-135.212q-13-13.213-13-33Q434-188 447.212-201q13.213-13 33-13Q500-214 513-200.788q13 13.213 13 33Q526-148 512.788-135q-13.213 13-33 13Zm0-624Q460-746 447-759.212q-13-13.213-13-33Q434-812 447.212-825q13.213-13 33-13Q500-838 513-824.788q13 13.213 13 33Q526-772 512.788-759q-13.213 13-33 13ZM600-615l119.084-118.915Q723-738 726-737.5q3 .5 7 4.5 5 5 5 7.5t-5 7.5L613-600q-3 3-6 3t-7.478-4q-4.522-4-4.022-7t4.5-7Zm118.843 387.921L599.157-345.921Q595-350 595-352.5t5-7.5q5-5 7.5-5t7.579 5.079l118.842 118.842Q738-237 738.5-234.5T734-227q-5 5-7.5 5t-7.657-5.079ZM791.788-434Q772-434 759-447.212q-13-13.213-13-33Q746-500 759.212-513q13.213-13 33-13Q812-526 825-512.788q13 13.213 13 33Q838-460 824.788-447q-13.213 13-33 13Z"/></svg>