<svg xmlns="http://www.w3.org/2000/svg" height="20" viewBox="0 -960 960 960" width="20"><path d="M167.788-385q-39.276 0-67.032-27.969Q73-440.937 73-480.212q0-39.275 27.969-67.032Q128.937-575 168.212-575q39.276 0 67.032 27.969Q263-519.063 263-479.788q0 39.275-27.969 67.032Q207.063-385 167.788-385Zm25.291 108.921 118.842-118.842Q330-413 353-412.5t41 18.5q18 18 18 41.5t-18.079 41.579L275.079-192.079Q257-174 234-174.5T193-193q-18-18-18-41.5t18.079-41.579Zm118.764-290L192.157-684.921Q174-703 174.5-726t18.5-41q18-18 41.5-18t41.579 18.079l118.842 118.842Q413-630 413-607t-18 41q-18 18-41.5 18t-41.657-18.079ZM479.788-73q-39.275 0-67.032-27.969Q385-128.937 385-168.212q0-39.276 27.969-67.032Q440.937-263 480.212-263q39.275 0 67.032 27.969Q575-207.063 575-167.788q0 39.276-27.969 67.032Q519.063-73 479.788-73Zm0-624q-39.275 0-67.032-27.969Q385-752.937 385-792.212q0-39.275 27.969-67.032Q440.937-887 480.212-887q39.275 0 67.032 27.969Q575-831.063 575-791.788q0 39.275-27.969 67.032Q519.063-697 479.788-697ZM566-649l119.084-118.915Q703-786 726.5-785q23.5 1 40.5 18 18 18 18 41.5T767-684L648-565q-17.933 18-41.467 17.5Q583-548 565.522-566 548-584 548-608t18-41Zm118.843 455.921L565.157-311.921Q547-330 547.5-353t18.5-41q18-18 41.5-18t41.579 18.079l118.842 118.842Q786-257 786-234t-18 41q-18 18-41.5 18t-41.657-18.079ZM791.788-385q-39.275 0-67.032-27.969Q697-440.937 697-480.212q0-39.275 27.969-67.032Q752.937-575 792.212-575q39.275 0 67.032 27.969Q887-519.063 887-479.788q0 39.275-27.969 67.032Q831.063-385 791.788-385Z"/></svg>