<svg xmlns="http://www.w3.org/2000/svg" height="20" viewBox="0 -960 960 960" width="20"><path d="M526-164q-6.5 0-11.25-4.758-4.75-4.757-4.75-11.269 0-6.512 4.75-11.242Q519.5-196 526-196h189.077L561.538-304.154q-5.198-2.934-6.983-9.082-1.786-6.149 1.645-12.296 3.431-6.146 9.808-7.423 6.377-1.276 11.454 2.109l156.307 107.153-66.308-177.23q-1.923-5.539 2-12.116 3.924-6.576 9.462-8.5 5.539-1.923 12.616 1.5 7.076 3.424 9 8.962l61.769 177.23 50.923-180.768q1.692-5.539 7.269-9.693t11.115-2.461q5.539 1.692 9.693 7.269t2.461 11.115l-62 232q-1.461 5.077-6.154 8.731Q770.923-164 766-164H526Zm-362-48v-32h32v32h-32Zm104 0v-32h183.692Q456-235.404 460-226.817q4 8.586 9.692 14.817H268ZM164-380v-32h32v32h-32Zm104 0v-32h219.154q-.462 9.308-1.5 16.808-1.039 7.5-2.423 15.192H268ZM164-548v-32h32v32h-32Zm104 0v-32h528v32H268ZM164-716v-32h32v32h-32Zm104 0v-32h528v32H268Z"/></svg>