<svg xmlns="http://www.w3.org/2000/svg" height="20" viewBox="0 -960 960 960" width="20"><path d="M217.292-182Q193-182 175.5-199.289q-17.5-17.29-17.5-41.5Q158-265 175.35-282.5T217-300h-23v-206q0-100 59-178.5T409-782v-45q0-30 20.5-50.5T480-898q30 0 50.5 20.5T551-827v45q98 19 156.5 97T766-506v206h-23q24.3 0 41.65 17.289 17.35 17.29 17.35 41.5Q802-217 784.656-199.5 767.311-182 743.019-182H217.292ZM480.788-51Q446-51 421.5-75.15T397-134h167q0 35-24.212 59-24.213 24-59 24ZM438-433v39q0 17.3 12.289 29.65 12.29 12.35 29.5 12.35Q497-352 509.5-364.35T522-394v-39h39q17.3 0 29.65-12.289 12.35-12.29 12.35-29.5Q603-492 590.65-504.5T561-517h-39v-39q0-17.3-12.289-29.65-12.29-12.35-29.5-12.35Q463-598 450.5-585.65T438-556v39h-39q-17.3 0-29.65 12.289-12.35 12.29-12.35 29.5Q357-458 369.35-445.5T399-433h39Z"/></svg>