<svg xmlns="http://www.w3.org/2000/svg" height="20" viewBox="0 -960 960 960" width="20"><path d="M222.074-196.782q-20.379 0-34.836-14.246-14.456-14.246-14.456-34.544 0-20.298 14.306-34.754 14.307-14.457 34.694-14.457h-7.783v-220.782q0-94.348 56.609-167.413 56.608-73.066 148.391-90.762v-48.478q0-25.417 17.792-43.209 17.792-17.791 43.209-17.791t43.209 17.791q17.792 17.792 17.792 43.209v48.478q92.348 17.696 148.674 90.479 56.326 72.783 56.326 167.696v220.782h-7.783q20.387 0 34.694 14.246 14.306 14.246 14.306 34.544 0 20.298-14.301 34.755-14.301 14.456-34.68 14.456H222.074ZM480-489.174Zm.353 418.61q-32.586 0-55.578-22.976-22.993-22.977-22.993-55.242h157.001q0 32.827-23.039 55.522-23.039 22.696-55.391 22.696ZM312-294.783h336v-220.782q0-70-49-119t-119-49q-70 0-119 49t-49 119v220.782Zm128.609-142.999v42.912q0 16.431 11.42 27.911 11.419 11.481 27.76 11.481t27.972-11.481q11.63-11.48 11.63-27.911v-42.912h42.913q16.431 0 27.911-11.42 11.481-11.42 11.481-27.761t-11.481-27.972q-11.48-11.63-27.911-11.63h-42.913v-42.913q0-16.431-11.42-27.911-11.419-11.481-27.76-11.481t-27.972 11.481q-11.63 11.48-11.63 27.911v42.913h-42.913q-16.431 0-27.911 11.42-11.481 11.42-11.481 27.761t11.481 27.971q11.48 11.631 27.911 11.631h42.913Z"/></svg>