<svg xmlns="http://www.w3.org/2000/svg" height="24" viewBox="0 -960 960 960" width="24"><path d="M354-386q-89.167 0-151.583-62.417Q140-510.833 140-600q0-11.333 1.5-22.667Q143-634 145-645q2-8 7-11.5t12-5.5q7-2 13.5 0t11.5 7l109 107 108-108-106-107q-5-5-7-12.189t0-14Q295-796 299-801t11-7q11-3 22-4.5t22-1.5q89.167 0 151.583 62.417Q568-689.167 568-600q0 29-6 53t-18 45l242 242q19 18.735 19 45.867Q805-187 786.211-168q-18.788 19-46 19Q713-149 694-168L452-410q-23 11-47.023 17.5Q380.953-386 354-386Zm0-28q26.667 0 53.333-7.5Q434-429 457-445l257 257q11 11 26 11t26-11q11-11 11-26t-11-26L509-497q15-22 23-48.5t8-54.5q0-77-62-139t-160-45l107 107q9 9 9 21t-9 21L319-529q-9 9-21 9t-21-9L170-636q-14 109 49 165.5T354-414Zm112-76Z"/></svg>