<svg xmlns="http://www.w3.org/2000/svg" height="24" viewBox="0 -960 960 960" width="24"><path d="M351.521-346.999q-106.783 0-182.153-75.37-75.37-75.37-75.37-182.153 0-20 3.566-40 3.565-20 10.435-39.13 5.565-11.696 14.761-18.392 9.195-6.696 20.456-8.696t22.457 1.066q11.196 3.065 20.326 12.195l100.478 100.478 72-72-100.478-100.478q-9.13-9.13-12.195-20.517-3.066-11.387-1.066-22.174 2-10.787 8.413-19.983 6.414-9.196 18.109-14.761 19.131-7.435 39.979-11 20.848-3.565 40.282-3.565 107.066 0 182.012 74.946 74.946 74.945 74.946 182.011 0 21.578-3.152 40.811-3.153 19.232-10.022 39.232L806.914-314.87q34.087 34.088 34.087 82.871 0 48.783-33.963 82.87-33.964 34.087-83.153 34.087-49.189 0-83.276-34.522l-209.61-210.609q-18.304 6.304-36.826 9.739-18.521 3.435-42.652 3.435Zm0-97.523q26 0 52-8t47-25l260.523 260.523q5 5 13.5 4.5t13.5-5.5q5-5 5-13.5t-5-13.5L477.521-504.522q18-20 26-46.5t8-53.5q0-60-38.5-104.5t-95.5-53.5l64.391 64.391q15.957 16.162 15.957 37.712 0 21.549-15.957 37.506L333.13-514.131q-16.162 15.957-37.711 15.957-21.55 0-37.507-15.957l-64.391-64.391q9 57 53.5 95.5t104.5 38.5ZM469-486.478Z"/></svg>