<svg xmlns="http://www.w3.org/2000/svg" height="24" viewBox="0 -960 960 960" width="24"><path d="M760-673.001q18.922 0 31.722-12.8t12.8-31.722q0-18.681-12.8-31.319-12.8-12.637-31.722-12.637t-31.722 12.64q-12.8 12.64-12.8 31.326t12.8 31.599q12.8 12.913 31.722 12.913Zm-160 0q18.922 0 31.722-12.8t12.8-31.722q0-18.681-12.8-31.319-12.8-12.637-31.722-12.637t-31.722 12.64q-12.8 12.64-12.8 31.326t12.8 31.599q12.8 12.913 31.722 12.913Zm80 55.478q-27.304 0-52.674 10.37-25.369 10.369-38.5 34.108-6.696 10.566 1.37 21.044 8.065 10.478 22.891 10.478h133.826q14.826 0 22.891-10.478 8.066-10.478 1.37-21.044-13.131-23.739-38.5-34.108-25.37-10.37-52.674-10.37ZM280-45.52q-106.783 0-182.153-74.946-75.37-74.946-75.37-182.011v-191.522q0-44.305 30.849-75.153Q84.174-600 128.479-600h303.042q44.305 0 75.153 30.848 30.849 30.848 30.849 75.153v191.522q0 107.065-75.37 182.011T280-45.52Zm0-96.957q66 0 113-47t47-113v-200H120v200q0 66 47 113t113 47ZM680-360q-20.913 0-41.891-3.804-20.978-3.805-40.586-11.978v-107.001q18.608 11.913 39.488 18.587 20.881 6.673 42.989 6.673 66 0 113-47t47-113v-200H520V-660h-97.523v-148.479q0-44.305 30.849-75.153 30.848-30.848 75.153-30.848h303.042q44.305 0 75.153 30.848 30.849 30.848 30.849 75.153v190.956q0 107.301-75.111 182.412T680-360Zm-480 1.479q18.922 0 31.722-12.64t12.8-31.326q0-18.686-12.8-31.599T200-446.999q-18.922 0-31.722 12.8t-12.8 31.722q0 18.681 12.8 31.319 12.8 12.637 31.722 12.637Zm160 0q18.922 0 31.722-12.64t12.8-31.326q0-18.686-12.8-31.599T360-446.999q-18.922 0-31.722 12.8t-12.8 31.722q0 18.681 12.8 31.319 12.8 12.637 31.722 12.637Zm-80 132.044q26.87 0 51.428-10.189 24.558-10.189 38.311-32.42 6.696-11-.435-22.196-7.13-11.195-21.522-11.195H212.218q-14.392 0-21.522 11.195-7.131 11.196-.435 22.196 13.753 22.231 38.311 32.42T280-226.477Zm0-96Zm385.478-315.046Z"/></svg>