<svg xmlns="http://www.w3.org/2000/svg" height="20" viewBox="0 -960 960 960" width="20"><path d="M126-244v-472h472v472H126Zm544-272v-200h164v200H670Zm20-20h124v-160H690v160ZM146-264h432v-432H146v432Zm524 20v-200h164v200H670Zm20-20h124v-160H690v160Zm-544 0v-432 432Zm544-272v-160 160Zm0 272v-160 160Zm-232.118-98q9.118 0 15.618-6.382 6.5-6.383 6.5-15.5 0-9.118-6.382-15.618-6.383-6.5-15.5-6.5-9.118 0-15.618 6.382-6.5 6.383-6.5 15.5 0 9.118 6.382 15.618 6.383 6.5 15.5 6.5ZM269-373l200-200-14-14-200 200 14 14Zm-3.118-181q9.118 0 15.618-6.382 6.5-6.383 6.5-15.5 0-9.118-6.382-15.618-6.383-6.5-15.5-6.5-9.118 0-15.618 6.382-6.5 6.383-6.5 15.5 0 9.118 6.382 15.618 6.383 6.5 15.5 6.5Z"/></svg>