<svg xmlns="http://www.w3.org/2000/svg" height="24" viewBox="0 -960 960 960" width="24"><path d="M70.002-220.001v-519.998H590v519.998H70.002ZM670-520v-219.999h219.999V-520H669.999Zm59.999-59.999h100.001V-680H729.998v100.001ZM130.001-280h400v-400h-400v400Zm539.998 59.999V-440h219.999v219.999H669.999ZM729.998-280h100.001v-100.001H729.998V-280Zm-599.997 0v-400 400Zm599.997-299.999V-680v100.001Zm0 299.999v-100.001V-280Zm-300.043-50.001q20.815 0 35.43-14.57Q480-359.141 480-379.955t-14.57-35.429q-14.57-14.615-35.384-14.615t-35.429 14.57q-14.616 14.57-14.616 35.384t14.57 35.429q14.57 14.615 35.384 14.615Zm-201.954-6.231L473.769-582l-41.768-41.768L186.233-378l41.768 41.768Zm1.954-193.769q20.815 0 35.43-14.57Q280-559.141 280-579.955t-14.57-35.429q-14.57-14.615-35.384-14.615t-35.429 14.57q-14.616 14.57-14.616 35.384t14.57 35.429q14.57 14.615 35.384 14.615Z"/></svg>