<svg xmlns="http://www.w3.org/2000/svg" height="24" viewBox="0 -960 960 960" width="24"><path d="M100-240v-480h480v480H100Zm560-280v-200h200v200H660Zm0 280v-200h200v200H660ZM439.909-340q16.629 0 28.36-11.64Q480-363.28 480-379.91q0-16.629-11.64-28.359Q456.719-420 440.09-420q-16.629 0-28.359 11.64Q400-396.72 400-380.09q0 16.629 11.64 28.359Q423.28-340 439.909-340ZM238-350.461 469.539-582 442-609.539 210.461-378 238-350.461ZM239.909-540q16.629 0 28.36-11.64Q280-563.281 280-579.909q0-16.63-11.64-28.36Q256.719-620 240.09-620q-16.629 0-28.359 11.64Q200-596.719 200-580.091q0 16.63 11.64 28.36Q223.28-540 239.909-540Z"/></svg>