<svg xmlns="http://www.w3.org/2000/svg" height="24" viewBox="0 -960 960 960" width="24"><path d="M35.217-195.217v-569.566h569.566v569.566H35.217Zm640-320v-249.566h249.566v249.566H675.217Zm88.609-88.609h72.348v-72.348h-72.348v72.348Zm-640 320h392.348v-392.348H123.826v392.348Zm551.391 88.609v-249.566h249.566v249.566H675.217Zm88.609-88.609h72.348v-72.348h-72.348v72.348Zm-640 0v-392.348 392.348Zm640-320v-72.348 72.348Zm0 320v-72.348 72.348ZM420-320q25 0 42.5-17.5T480-380q0-25-17.5-42.5T420-440q-25 0-42.5 17.5T360-380q0 25 17.5 42.5T420-320Zm-202-2 260-260-56-56-260 260 56 56Zm2-198q25 0 42.5-17.5T280-580q0-25-17.5-42.5T220-640q-25 0-42.5 17.5T160-580q0 25 17.5 42.5T220-520Z"/></svg>