<svg xmlns="http://www.w3.org/2000/svg" height="24" viewBox="0 -960 960 960" width="24"><path d="M465.539-328.461Q436.308-300 396.615-300.384q-39.692-.385-68.154-28.077-27.692-28.462-28.077-68.039-.384-39.577 28.077-68.039l166-167Q522.923-660 563.385-660q40.461 0 68.923 28.461 28.461 28.462 28.077 68.039-.385 39.577-28.077 68.039l-166.769 167ZM356-357q23 23 47.5 16.5T437-356l68.846-69.846-80-80L356-437q-17 17-17 40t17 40Zm248-246q-23-23-47.5-16.5T523-604l-68.846 69.846 80 80L604-523q17-17 17-40t-17-40ZM224.615-160q-26.846 0-45.731-18.884Q160-197.769 160-224.615v-510.77q0-26.846 18.884-45.731Q197.769-800 224.615-800h188q-5.461-30.616 14.654-55.308Q447.385-880 480-880q33.385 0 53.5 24.692 20.116 24.692 13.885 55.308h188q26.846 0 45.731 18.884Q800-762.231 800-735.385v510.77q0 26.846-18.884 45.731Q762.231-160 735.385-160h-510.77Zm0-40h510.77q9.23 0 16.923-7.692Q760-215.385 760-224.615v-510.77q0-9.23-7.692-16.923Q744.615-760 735.385-760h-510.77q-9.23 0-16.923 7.692Q200-744.615 200-735.385v510.77q0 9.23 7.692 16.923Q215.385-200 224.615-200ZM480-782.308q13 0 21.5-8.5t8.5-21.5q0-13-8.5-21.5t-21.5-8.5q-13 0-21.5 8.5t-8.5 21.5q0 13 8.5 21.5t21.5 8.5ZM200-200v-560 560Z"/></svg>