<svg xmlns="http://www.w3.org/2000/svg" height="20" viewBox="0 -960 960 960" width="20"><path d="M213-767v30l-94-94q-4-4-4.5-6.5t4.5-7.5q5-5 7.5-5t7.5 5l674 674q4 4 4.5 6.5T808-157q-5 5-7 5t-7-5L658-292H500v72h62q4.3 0 7.15 2.789 2.85 2.79 2.85 7 0 4.211-2.838 7.211-2.839 3-7.122 3H398.283Q394-200 391-202.789q-3-2.79-3-7 0-4.211 2.85-7.094 2.85-2.884 7.15-2.884h62V-292H200q-22.7 0-37.35-14.65Q148-321.3 148-344v-368q0-23.466 19.5-39.233Q187-767 213-767Zm571 470L317-764h443q22.7 0 37.35 14.65Q812-734.7 812-712v368q0 15-7 28.5T784-297Z"/></svg>