<svg xmlns="http://www.w3.org/2000/svg" height="24" viewBox="0 -960 960 960" width="24"><path d="m192-788 28 28h-28q-12 0-22 10t-10 22v376q0 14 9 23t23 9h428L94-846q-4-4-4.5-9.5T94-866q5-5 10-5t10 5l714 714q4 4 4.5 9.5T828-132q-5 5-10 5t-10-5L648-292H508v80h66q6 0 10 4t4 10q0 6-4 10t-10 4H386q-6 0-10-4t-4-10q0-6 4-10t10-4h66v-80H192q-26 0-43-17t-17-43v-376q0-26 17-43t43-17Zm603 490-22-22q10-2 18.5-10t8.5-22v-376q0-14-9-23t-23-9H333l-28-28h463q26 0 43 17t17 43v376q0 18-9 32.5T795-298ZM553-540Zm-152 1Z"/></svg>