<svg xmlns="http://www.w3.org/2000/svg" height="24" viewBox="0 -960 960 960" width="24"><path d="m120.217-848.262 95.045 95.045h-48.479v417.955h342.564l-462.39-462.39Q34.26-810.348 34.26-828.479q0-18.13 12.696-30.826 12.696-12.696 31.109-12.696 18.413 0 31.109 12.696L859.87-108.609q12.696 12.696 12.413 30.827-.282 18.13-12.978 30.826-12.696 12.696-30.826 12.696-18.131 0-30.827-12.696L615.348-229.26h-46.869v80h26.999q22.087 0 37.544 15.456 15.457 15.457 15.457 37.544 0 22.088-15.457 37.544-15.457 15.457-37.544 15.457H364.522q-22.087 0-37.544-15.457-15.457-15.456-15.457-37.544 0-22.087 15.457-37.544 15.457-15.456 37.544-15.456h26.999v-80H166.783q-44.305 0-75.153-30.849-30.848-30.848-30.848-75.153v-417.955q0-47.174 29.717-71.11l29.718-23.935Zm725.306 611.306-90.958-89.827h38.652v-426.434H328.131L222.13-859.218h571.087q44.305 0 75.153 30.848 30.848 30.848 30.848 75.153v426.434q0 29.392-15.065 53.066-15.065 23.674-38.63 36.761ZM541.348-540Zm-203 33.739Z"/></svg>