<svg xmlns="http://www.w3.org/2000/svg" height="20" viewBox="0 -960 960 960" width="20"><path d="M141.217-827.262v113.871l-69.26-69.261Q59.26-795.348 59.26-810.479q0-15.13 12.696-27.826t28.609-12.696q15.913 0 28.609 12.696L839.87-127.609q12.696 12.696 12.413 27.827-.282 15.13-12.978 27.826T811.479-59.26q-15.131 0-27.827-12.696L625.348-229.26h-64.869v72h22.999q20.387 0 34.694 14.246 14.307 14.246 14.307 34.544 0 20.298-14.295 34.754-14.296 14.457-34.666 14.457H376.805q-20.37 0-34.827-14.246-14.457-14.246-14.457-34.544 0-20.298 14.307-34.638t34.694-14.34h22.999v-72.233H174.783q-41.005 0-69.503-28.499-28.498-28.498-28.498-69.503v-409.955q0-44.64 32.217-67.342l32.218-22.703Zm693.306 591.306L234.13-835.218h551.087q41.005 0 69.503 28.498 28.498 28.498 28.498 69.503v418.434q0 26.392-13.065 49.066-13.065 22.674-35.63 33.761Z"/></svg>