<svg xmlns="http://www.w3.org/2000/svg" height="20" viewBox="0 -960 960 960" width="20"><path d="M198-777.385v46.616l-87.769-87.769q-5.616-5.616-6-10.769-.385-5.154 6-11.539 6.384-6.385 11.654-6.385 5.269 0 11.653 6.385l679.077 679.077q5.616 5.615 6 10.769.385 5.154-6 11.539-6.384 6.384-11.153 6.384-4.77 0-11.154-6.384L648.769-280H512v72h56q6.839 0 11.419 4.521Q584-198.959 584-192.21q0 6.749-4.569 11.48-4.569 4.73-11.39 4.73H392.283q-6.822 0-11.552-4.52Q376-185.04 376-191.789q0-6.749 4.581-11.363 4.58-4.615 11.419-4.615h56V-280H192.615q-24.315 0-40.465-16.15Q136-312.3 136-336.615v-382.77q0-26.004 21-42.002 21-15.998 41-15.998ZM791.616-285 300.615-776h466.77q24.315 0 40.465 16.15Q824-743.7 824-719.385v382.77q0 16.846-8.269 31.615-8.269 14.769-24.115 20Z"/></svg>