<svg xmlns="http://www.w3.org/2000/svg" height="20" viewBox="0 -960 960 960" width="20"><path d="m826-268-20-20v-356H450l-4-4v-140H304l-20-20h160q9.7 0 15.85 6.15T466-786v122h338q9.7 0 15.85 6.15T826-642v374Zm35 152-71-72H156q-9.7 0-15.85-6.15T134-210v-633l-47-47q-4-4-4.5-6.5T87-904q5-5 7.5-5t7.5 5l774 774q4 4 4 7t-4 7q-5 5-8.167 5-3.166 0-6.833-5Zm-707-92h124v-124H154v124Zm0-153h124v-124H154v124Zm0-151h124v-124H154v124Zm168 304h124v-124H322v124Zm0-153h124v-124H322v124Zm144 153h304L638-341H466v133Zm228-284h-20v-20h20v20Z"/></svg>