<svg xmlns="http://www.w3.org/2000/svg" height="24" viewBox="0 -960 960 960" width="24"><path d="M911-182 800-292v-293H508L400-692v-53h-52L237-855h148q53 0 89.5 36.5T511-729v34h274q53 0 89.5 36.5T911-569v387ZM825 2l-76-76H175q-53 0-89.5-36.5T49-200v-574l-24-24q-14-14-13.5-33T26-864q14-14 33-14t33 14L892-65q14 14 14 33.5T892 2q-14 14-33.5 14T825 2ZM160-185h80v-80h-80v80Zm0-160h80v-80h-80v80Zm0-160h80v-80h-80v80Zm160 320h80v-80h-80v80Zm0-160h80v-80h-80v80Zm160 160h160l-80-80h-80v80Zm240-240h-51l-29-29v-51h80v80Z"/></svg>