<svg xmlns="http://www.w3.org/2000/svg" height="24" viewBox="0 -960 960 960" width="24"><path d="m842-246-28-28v-370H444l-6-6v-154H282l-28-28h182q13 0 21.5 8.5T466-802v130h346q13 0 21.5 8.5T842-642v396Zm34 174-92-92H148q-13 0-21.5-8.5T118-194v-636l-56-56q-4-4-4.5-9.5T62-906q5-5 10-5t10 5L896-92q4 4 4.5 9.5T896-72q-5 5-10 5t-10-5ZM146-192h132v-132H146v132Zm0-160h132v-132H146v132Zm0-160h132v-132H146v132Zm160 320h132v-132H306v132Zm0-160h132v-132H306v132Zm160 160h290L624-324H466v132Zm228-292h-28v-28h28v28Z"/></svg>