<svg xmlns="http://www.w3.org/2000/svg" height="24" viewBox="0 -960 960 960" width="24"><path d="m850.769-234-40-40v-359.846H450.923l-21.692-21.693v-138.307H289.385l-40-40h178.307q17.616 0 29.577 11.961 11.962 11.962 11.962 29.578v118.461h340q17.615 0 29.577 11.961 11.961 11.962 11.961 29.578V-234Zm5.846 165.923-86-85.769H150.769q-17.615 0-29.577-11.962-11.961-11.961-11.961-29.577v-620.307l-48.616-48.615q-5.615-5.616-6-13.77-.384-8.153 6-14.538Q67-899 74.77-899q7.77 0 14.154 6.385l796 796q5.615 5.615 6.115 13.653.5 8.039-6.115 14.654-6.385 6.385-14.039 6.5-7.654.116-14.269-6.269ZM149.231-193.846h120v-120h-120v120Zm0-160h120v-120h-120v120Zm0-160h120v-120h-120v120Zm160 320h120v-120h-120v120Zm0-160h120v-120h-120v120Zm160 160h261.384l-120-120H469.231v120Zm230.769-280h-40v-40h40v40Z"/></svg>