<svg xmlns="http://www.w3.org/2000/svg" height="20" viewBox="0 -960 960 960" width="20"><path d="M38.913-92.413v-780.674H437.5v780.674h-83v-96H121.913v96h-83Zm588.674 0V-335.13l69.043-69.283-20.565-104.5q-32.717 43.761-78.782 64.044-46.065 20.282-113.696 20.282V-504q58.196 0 92.12-20.239 33.923-20.239 61.489-68.565l15.043-27.044q20.957-35.674 56.989-47.891 36.033-12.218 74.859 4.217l192.892 80.152v154.957h-79.174v-101.696l-75.892-32.565 95.392 470.261h-80.414l-58.195-279.869-71.935 70.934v208.935h-79.174ZM178.087-456l120-72-120-72v144Zm501.804-241.435q-36.673 0-62.13-25.456-25.457-25.457-25.457-62.131t25.457-62.25q25.457-25.576 62.13-25.576 36.674 0 62.131 25.576t25.457 62.25q0 36.674-25.457 62.131-25.457 25.456-62.131 25.456Z"/></svg>