<svg xmlns="http://www.w3.org/2000/svg" height="24" viewBox="0 -960 960 960" width="24"><path d="M-21.48-31.521V-941.48h474.481v909.958H346.999v-80H84.522v80H-21.479Zm649.959 0v-265.696l83.739-80.304-17.609-91q-40.696 44.435-92.804 65.239-52.109 20.805-113.326 20.805V-480q50.826 0 93.282-23.565 42.457-23.565 68.065-66.609l27.739-46.739q17.261-28.957 51.066-39.652 33.804-10.696 68.848 3.695l202.651 83.088v198.261h-96.955v-132.826l-49.652-20.608L956.176-31.521h-99.523l-63.826-266.782-67.391 62.391v204.39h-96.957ZM84.522-217.523h262.477v-617.955H84.522v617.955ZM155.478-440l140-80-140-80v160Zm543.175-243.391q-36.957 0-62.718-25.761-25.761-25.761-25.761-62.718 0-36.957 25.761-63 25.761-26.044 62.718-26.044 36.957 0 62.718 26.044 25.761 26.043 25.761 63t-25.761 62.718q-25.761 25.761-62.718 25.761ZM84.522-217.523h262.477H84.522Z"/></svg>