<svg xmlns="http://www.w3.org/2000/svg" height="24" viewBox="0 -960 960 960" width="24"><path d="M445-255.386q-110.076 0-187.537-75.345-77.462-75.346-77.462-184.653v-304.615H735q51.785 0 88.392 35.808 36.607 35.807 36.607 87.268 0 52.582-36.385 89.752-36.384 37.17-88.614 37.17h-28.847v54.617q0 108.642-76.115 184.32T445-255.386ZM240-629.999h406.154V-760H240v130.001Zm205 314.615q83.77 0 142.462-58.308Q646.154-432 646.154-515.384v-54.617H240v54.617q0 83.769 60.231 141.884Q360.462-315.384 445-315.384Zm261.153-314.615H735q27.307 0 46.154-19.52Q800-669.038 800-696.923q0-26.538-19.231-44.808Q761.538-760 735-760h-28.847v130.001ZM180.001-140.001V-200h599.998v59.999H180.001Zm263.076-430Z"/></svg>