<svg xmlns="http://www.w3.org/2000/svg" height="20" viewBox="0 -960 960 960" width="20"><path d="M446.612-270.218q-113.613 0-193.722-78.817-80.108-78.817-80.108-191.966v-294.217h564.305q60.904 0 103.517 43.17 42.614 43.17 42.614 104.239 0 61.07-42.614 103.244-42.613 42.174-103.517 42.174h-12.565v1.39q-2.826 113.706-83.561 192.245-80.735 78.538-194.349 78.538ZM270.783-640.392h355.738v-96.825H270.783v96.825Zm453.739 0h-1.696q24.478 0 43.435-12.543 18.956-12.544 18.956-35.055 0-20.511-14.956-34.869-14.957-14.358-35.435-14.358h-10.304v96.825Zm-551.74 515.61v-97.436h590.696v97.436H172.782Z"/></svg>