<svg xmlns="http://www.w3.org/2000/svg" height="24" viewBox="0 -960 960 960" width="24"><path d="M450-270.769q-103.154 0-176.577-69.192Q200-409.154 200-510.769V-800h530q45.572 0 77.786 30.615Q840-738.769 840-693.846q0 47.165-31.769 80.505Q776.462-580 730-580h-37.692v69.231q0 100.286-70.731 170.143T450-270.769ZM240-620h412.308v-140H240v140Zm210 309.231q84.538 0 143.423-58.116Q652.308-427 652.308-510.769V-580H240v69.231q0 84.538 61.962 142.269Q363.923-310.769 450-310.769ZM692.308-620H730q29.615 0 49.808-21.539Q800-663.077 800-693.846q0-28.077-20.962-47.116Q758.077-760 730-760h-37.692v140ZM200-160v-40h560v40H200Zm246.154-420Z"/></svg>