<svg xmlns="http://www.w3.org/2000/svg" height="20" viewBox="0 -960 960 960" width="20"><path d="M180-62q-49.7 0-83.85-34.162Q62-130.324 62-180.04v-408.243Q62-638 96.15-672T180-706h88v118h-88v408h600v-408h-88v-118h88q49.7 0 83.85 34.162Q898-637.676 898-587.96v408.243Q898-130 863.85-96T780-62H180Zm108-274q-20 0-34-14t-14-34q0-20 14-34t34-14q20 0 34 14t14 34q0 20-14 34t-34 14Zm-72 120v-23.684Q216-270 237.5-291q21.5-21 50.818-21Q302-312 316-305.5q14 6.5 23 17.5l44 49q5 6 11.19 12 6.191 6 13.81 11H216Zm156-120v-26q0-32 30-51t78-19q48 0 78 19t30 51v26H372Zm372 120H552q8-5.294 14.5-11.647Q573-234 578-240l44-49q9-11 23.5-17t28.5-6q29 0 49.5 21.12T744-240v24ZM480-456q-20 0-34-14t-14-34q0-20 14-34t34-14q20 0 34 14t14 34q0 20-14 34t-34 14Zm192 120q-20 0-34-14t-14-34q0-20 14-34t34-14q20 0 34 14t14 34q0 20-14 34t-34 14ZM302-724q-23-27-33-52.036-10-25.037-10-54.582v-12.004q0-6.287 1-13.378 1.34-13.167 10.769-21.583Q280.197-886 294.091-886q11.909 0 19.409 9 7.5 9 5.5 21-1 7.5-1.5 13.75t-.5 11.685q0 18.618 6.5 34.091Q330-781 347-761q23 27 32.5 51.379 9.5 24.38 9.5 50.921 0 4.424-.5 8.562-.5 4.138-.5 8.609-2 12.529-9.907 21.029t-19.07 8.5Q346-612 336.5-620.758t-7.5-20.139q0-.413 2-20.103 0-14.97-6.774-30.44Q317.452-706.909 302-724Zm116 0q-23-27-33-52.036-10-25.037-10-54.582v-12.004q0-6.287 1-13.378 1.348-13.167 10.989-21.583 9.64-8.417 22.833-8.417 12.178 0 19.678 9t5.5 21q-1 8-1.5 14t-.5 11.435q0 18.618 6.5 34.091Q446-781 463-761q23 27 33 51.379 10 24.38 10 50.921v8.562q0 4.138-1 8.373Q502-630 494.093-621t-19.07 9Q462-612 452.5-621t-7.5-21l2-19q0-14.97-6.766-30.44Q433.469-706.909 418-724Zm120 0q-23-27-33-52.036-10-25.037-10-54.582v-12.004q0-6.287 1-13.378 1.348-13.167 10.989-21.583 9.64-8.417 22.833-8.417 12.178 0 19.678 9t5.5 21q-1 8-1.5 14t-.5 11.435q0 18.618 6.5 34.091Q566-781 583-761q23 27 33 51.379 10 24.38 10 50.921v8.562q0 4.138-1 8.373Q622-630 614.093-621t-19.07 9Q582-612 572.5-620.758t-7.5-20.139q0-.413 2-20.103 0-14.97-6.774-30.44Q553.452-706.909 538-724Z"/></svg>