<svg xmlns="http://www.w3.org/2000/svg" height="20" viewBox="0 -960 960 960" width="20"><path d="M200-148q-22.7 0-37.35-14.662Q148-177.324 148-200.04v-368.243Q148-591 162.65-605.5T200-620h88v20h-88q-12 0-22 10t-10 22v368q0 12 10 22t22 10h560q12 0 22-10t10-22v-368q0-12-10-22t-22-10h-88v-20h88q22.7 0 37.35 14.662Q812-590.676 812-567.96v368.243Q812-177 797.35-162.5T760-148H200Zm88.235-204Q275-352 265.5-361.265q-9.5-9.264-9.5-22.5 0-13.235 9.265-22.735 9.264-9.5 22.5-9.5 13.235 0 22.735 9.265 9.5 9.264 9.5 22.5 0 13.235-9.265 22.735-9.264 9.5-22.5 9.5ZM232-233v-6.684q0-23.489 16.75-39.903Q265.5-296 288.341-296q10.659 0 21.172 4.875Q320.025-286.25 327-278l30 34q3 3 5.69 6 2.691 3 5.31 5H232Zm156-119v-10q0-24.986 26.5-39.493Q441-416 480-416t65.5 14.507Q572-386.986 572-362v10H388Zm340 119H593q2-2.294 5.079-5.489 3.079-3.195 4.921-5.511l31-35q7-9 17.809-13 10.809-4 21.902-4Q696-296 712-279.573q16 16.426 16 39.573v7ZM480.235-472Q467-472 457.5-481.265q-9.5-9.264-9.5-22.5 0-13.235 9.265-22.735 9.264-9.5 22.5-9.5 13.235 0 22.735 9.265 9.5 9.264 9.5 22.5 0 13.235-9.265 22.735-9.264 9.5-22.5 9.5Zm192 120Q659-352 649.5-361.265q-9.5-9.264-9.5-22.5 0-13.235 9.265-22.735 9.264-9.5 22.5-9.5 13.235 0 22.735 9.265 9.5 9.264 9.5 22.5 0 13.235-9.265 22.735-9.264 9.5-22.5 9.5ZM322-728q-20-23-29-45.303-9-22.303-9-49.069v-11.44Q284-840 285-847q-.064-4.067 2.694-6.533 2.758-2.467 6.822-2.467 3.484 0 5.484 3t1 7q-1 6.5-1 12.75v11.685q0 22.565 8 41.065 8 18.5 26 41.5 22 25 30 45.78t8 43.934v8.786q0 3.5-1 7.5t-2.721 6.5q-1.721 2.5-4.937 2.5-3.751 0-7.047-2.258Q353-628.516 354-632q0 1 2-20 0-18.652-7.903-36.953Q340.194-707.255 322-728Zm116 0q-20-23-29.5-45.303-9.5-22.303-9.5-49.069v-11.44Q399-840 400-847q-.043-4.067 2.989-6.533Q406.021-856 410.17-856q3.83 0 5.83 3t1 7q-1 7-1.5 13t-.5 11.435q0 22.565 8.5 41.065Q432-762 450-739q22 25 30.5 45.78t8.5 43.934q0 5.286.5 8.786T488-633q-2 4-3.721 6.5t-4.748 2.5Q476-624 472-626.5q-4-2.5-3-6.5 0 1 2-19 0-18.652-7.703-36.953Q455.594-707.255 438-728Zm120 0q-20-23-29-45.303-9-22.303-9-49.069 0-5.253-.25-11.44Q519.5-840 520-847q-.043-4.067 2.989-6.533Q526.021-856 530.17-856q3.83 0 5.83 3t1 7q-1 7-1.5 13t-.5 11.435q0 22.565 8.5 41.065Q552-762 570-739q22 25 30.5 45.78t8.5 43.934q0 5.286.5 8.786T608-633q-2 4-3.721 6.5t-4.937 2.5q-3.751 0-7.047-2.258Q589-628.516 590-632q0 1 2-20 0-18.652-7.903-36.953Q576.194-707.255 558-728Z"/></svg>