<svg xmlns="http://www.w3.org/2000/svg" height="24" viewBox="0 -960 960 960" width="24"><path d="M166.783-60.782q-44.305 0-75.153-30.848-30.848-30.848-30.848-75.153v-466.434q0-44.305 30.848-75.153 30.848-30.848 75.153-30.848h101.912v106.001H166.783v466.434h626.434v-466.434H691.305v-106.001h101.912q44.305 0 75.153 30.848 30.848 30.848 30.848 75.153v466.434q0 44.305-30.848 75.153-30.848 30.848-75.153 30.848H166.783ZM260-320q-25 0-42.5-17.5T200-380q0-25 17.5-42.5T260-440q25 0 42.5 17.5T320-380q0 25-17.5 42.5T260-320Zm-60 120v-25q0-32 22-53.5t52-21.5q14 0 29.5 6.5T328-276l45 52q6 7 12.5 13t14.5 11H200Zm160-120v-27q0-32 33-52.5t87-20.5q54 0 87 20.5t33 52.5v27H360Zm400 120H560q8-5 14.5-11t12.5-13l45-52q8-10 24.5-17t29.5-7q30 0 52 22t22 53v25ZM480-440q-25 0-42.5-17.5T420-500q0-25 17.5-42.5T480-560q25 0 42.5 17.5T540-500q0 25-17.5 42.5T480-440Zm220 120q-25 0-42.5-17.5T640-380q0-25 17.5-42.5T700-440q25 0 42.5 17.5T760-380q0 25-17.5 42.5T700-320ZM305.739-747.348q-23-27.565-34.783-57.368-11.782-29.803-11.782-60.111v-10.608q0-5.557 1-10.608 2.192-14.225 12.606-23.526t25.761-9.301q13.155 0 21.72 9.848t6.565 22.979q-1 6-1.5 11t-.5 10q0 17.464 7.718 36.384 7.717 18.92 23.717 38.92 23 30 34.283 55.997 11.282 25.997 11.282 50.465 0 4.078-.5 8.156t-.5 8.344q-1.565 13.864-10.735 23.712-9.171 9.848-22.117 9.848-15.104 0-24.952-9.848-9.848-9.848-7.848-23.355 1-6.233 1-16.623 0-14.615-6.873-29.717-6.872-15.101-23.562-34.588Zm118.739 0q-23-27.565-34.283-57.368-11.282-29.803-11.282-60.111v-10.608q0-5.557 1-10.608 2.196-14.225 12.63-23.526 10.434-9.301 24.712-9.301 13.18 0 21.745 9.848 8.565 9.848 6.565 22.979-1 6-1 11v10q0 17.464 7.218 36.384Q459-809.739 475-789.739q23 30 34.283 55.997 11.282 25.997 11.282 50.465 0 4.078-.5 8.156t-.5 8.211Q518-653.478 508.83-643.348q-9.171 10.131-22.117 10.131-15.104 0-24.452-9.848-9.348-9.848-7.348-22.978 1-6 1-17 0-14.615-7.368-29.717-7.367-15.101-24.067-34.588Zm120.565 0q-23-27.565-34.782-57.368-11.783-29.803-11.783-60.111 0-5.052.5-10.608.5-5.557 1.5-10.608 2.197-14.225 12.631-23.526 10.433-9.301 24.711-9.301 13.18 0 21.745 9.848 8.565 9.848 6.565 22.979-1 6-1 11v10q0 17.464 7.218 36.384 7.217 18.92 23.217 38.92 23 30 34.283 55.997 11.282 25.997 11.282 50.465 0 4.078-.5 8.156t-.5 8.211q-1.565 13.432-10.735 23.562-9.171 10.131-22.117 10.131-15.104 0-24.952-9.848-9.848-9.848-7.848-23.355 1-6.233 1-16.623 0-14.615-6.872-29.717-6.873-15.101-23.563-34.588Z"/></svg>