<svg xmlns="http://www.w3.org/2000/svg" height="24" viewBox="0 -960 960 960" width="24"><path d="M256.825-60.782v-758.436h130.174v-80h186.002v80h130.174v758.436h-446.35Zm106.001-106.001h234.348v-546.434H362.826v546.434Zm0 0h234.348-234.348ZM470-250.043 530.957-310l-39.696-40.261q-4.435-4.435-6.435-9.369-2-4.935-2-10.37 0-5.87 2-11.087t6.435-9.652l38-38q16.565-16.565 25.065-37.131 8.5-20.565 8.5-43.13 0-23-8.5-44.348t-25.065-37.913L489-630.957 429.043-570l38.696 39.261q4.435 4.435 6.935 9.652t2.5 11.087q0 5.435-2.5 10.37-2.5 4.934-6.935 9.369l-37 38.565q-16.565 16.566-25.065 37.131t-8.5 43.565q0 23 8.5 44.348t25.065 37.913L470-250.043Z"/></svg>