<svg xmlns="http://www.w3.org/2000/svg" height="24" viewBox="0 -960 960 960" width="24"><path d="m252-108-87-87q-19-19.364-19-45.182T165-285l87-87q12-12 28-12t28 12q12 12 11.5 28.5T308-315l-35 35h487q17 0 28.5 11.5T800-240q0 17-11.5 28.5T760-200H273l35 35q11 12 11.5 28.5T308-108q-12 12-28 12t-28-12Zm3-332q-39 0-67-28t-28-67v-291q0-39.167 28-66.583Q216-920 255-920h451q39.167 0 66.583 27.417Q800-865.167 800-826v291q0 39-27.417 67-27.416 28-66.583 28H255Zm-15-280h200v-120H240v120Zm280 0h200v-120H520v120Zm-80 200v-120H240v120h200Zm80 0h200v-120H520v120Z"/></svg>