<svg xmlns="http://www.w3.org/2000/svg" height="24" viewBox="0 -960 960 960" width="24"><path d="M776.957-360q-18.695 0-31.326-12.913-12.63-12.913-12.63-31.609t12.913-31.326q12.913-12.631 31.609-12.631h48.478q18.696 0 31.609 12.631 12.913 12.63 12.913 31.326 0 18.696-12.913 31.609T826.001-360h-49.044Zm0 168.479q-18.695 0-31.326-12.913-12.63-12.914-12.63-31.609 0-18.696 12.913-31.327Q758.827-280 777.523-280h48.478q18.696 0 31.609 12.913t12.913 31.609q0 18.696-12.913 31.326-12.913 12.631-31.609 12.631h-49.044ZM560-146.999q-35.261 0-61.022-22.935-25.761-22.935-30.283-57.065H440q-22.087 0-37.544-15.457-15.457-15.457-15.457-37.544v-80q0-22.087 15.457-37.544 15.457-15.457 37.544-15.457h28.695q4.522-34.13 30.283-57.065 25.761-22.935 61.022-22.935h80q22.087 0 37.544 15.457 15.457 15.457 15.457 37.544v240q0 22.087-15.457 37.544-15.457 15.457-37.544 15.457h-80Zm-306.001-120q-71.088 0-122.044-50.957Q80.998-368.913 80.998-440q0-71.652 50.957-122.327 50.956-50.674 122.044-50.674h60q19.912 0 33.456-13.826 13.543-13.825 13.543-33.173 0-19.913-13.543-33.456-13.544-13.543-33.456-13.543h-140q-22.088 0-37.544-15.457-15.457-15.457-15.457-37.544 0-22.087 15.457-37.544 15.456-15.457 37.544-15.457h140q63.652 0 108.326 44.674Q466.999-723.652 466.999-660q0 63.087-44.674 108.044-44.674 44.957-108.326 44.957h-60q-27.348 0-47.174 19.543T186.999-440q0 27.348 19.826 47.173 19.826 19.826 47.174 19.826h40q22.087 0 37.544 15.457 15.456 15.457 15.456 37.544 0 22.087-15.456 37.544-15.457 15.457-37.544 15.457h-40Z"/></svg>