<svg xmlns="http://www.w3.org/2000/svg" height="20" viewBox="0 -960 960 960" width="20"><path d="M692.247-398q-4.197 0-7.222-2.825-3.025-2.824-3.025-7 0-4.175 2.839-7.175 2.84-3 7.037-3h87.877q4.197 0 7.222 2.825 3.025 2.824 3.025 7 0 4.175-2.839 7.175-2.84 3-7.037 3h-87.877Zm0 144q-4.197 0-7.222-2.825-3.025-2.824-3.025-7 0-4.175 2.839-7.175 2.84-3 7.037-3h87.877q4.197 0 7.222 2.825 3.025 2.824 3.025 7 0 4.175-2.839 7.175-2.84 3-7.037 3h-87.877Zm-114.482 36q-29.765 0-50.859-21.15-21.095-21.15-21.095-50.85h-45.905q-11.01 0-18.458-7.475Q434-304.95 434-316v-40q0-11.05 7.475-18.525Q448.95-382 460-382h46q0-29.7 21.15-50.85Q548.3-454 578-454h30q11.05 0 18.525 7.463Q634-439.073 634-428.04v183.757q0 11.033-7.498 18.658-7.497 7.625-18.58 7.625h-30.157ZM287.671-326Q238-326 204-360q-34-34-34-84t34-84q34-34 84-34h66q32.5 0 56.25-23.75T434-642q0-32.5-23.75-56.25T354-722H228q-4.25 0-7.125-2.885t-2.875-7.15q0-4.265 2.875-7.115Q223.75-742 228-742h126q43 0 71.5 28.5T454-642q0 43-28.5 71.5T354-542h-66q-40.425 0-69.213 28.907Q190-484.186 190-443.593t28.787 69.107q28.788 28.515 69.213 28.515h88q4.25 0 7.125 2.819 2.875 2.818 2.875 6.985T383.078-329q-2.923 3-7.242 3h-88.165Z"/></svg>