<svg xmlns="http://www.w3.org/2000/svg" height="20" viewBox="0 -960 960 960" width="20"><path d="M741.37-609.87q-17.152 0-29.326-12.174T699.87-650.37v-85.26q0-17.153 12.174-28.827 12.174-11.674 29.326-11.674h90.26q16.153 0 28.327 11.674 12.174 11.674 12.174 28.827v85.26q0 16.152-12.174 28.326T831.63-609.87h-90.26Zm-1 236.5q-17.152 0-29.326-12.173-12.174-12.174-12.174-28.327v-84.5q0-17.152 12.174-28.826t29.326-11.674h91.26q16.153 0 28.327 11.674 12.174 11.674 12.174 28.826v84.5q0 16.153-12.174 28.327-12.174 12.173-28.327 12.173h-91.26Zm-612 237.501q-16.153 0-28.327-11.674-12.174-11.674-12.174-28.827v-559.26q0-17.153 12.174-28.827 12.174-11.674 28.327-11.674h458q17.152 0 28.826 11.674t11.674 28.827v559.26q0 17.153-11.674 28.827-11.674 11.674-28.826 11.674h-458Zm612 0q-17.152 0-29.326-11.674T698.87-176.37v-85.499q0-16.153 12.174-27.827 12.174-11.674 29.326-11.674h91.26q16.153 0 28.327 11.674 12.174 11.674 12.174 27.827v85.499q0 17.153-12.174 28.827-12.174 11.674-28.327 11.674h-91.26Z"/></svg>