<svg xmlns="http://www.w3.org/2000/svg" height="20" viewBox="0 -960 960 960" width="20"><path d="M671-555q-10.75 0-18.375-7.625T645-580v-111q0-10.75 7.625-17.875T671-716h116q9.75 0 17.375 7.125T812-691v111q0 9.75-7.625 17.375T787-555H671Zm-1 179q-10.75 0-18.375-7.625T644-401v-110q0-10.75 7.625-17.875T670-536h117q9.75 0 17.375 7.125T812-511v110q0 9.75-7.625 17.375T787-376H670ZM173-196q-9.75 0-17.375-7.125T148-221v-470q0-10.75 7.625-17.875T173-716h426q10.75 0 17.875 7.125T624-691v470q0 10.75-7.125 17.875T599-196H173Zm497 0q-10.75 0-18.375-7.125T644-221v-111q0-9.75 7.625-16.875T670-356h117q9.75 0 17.375 7.125T812-332v111q0 10.75-7.625 17.875T787-196H670Z"/></svg>