<svg xmlns="http://www.w3.org/2000/svg" height="24" viewBox="0 -960 960 960" width="24"><path d="M795-652q-26 0-44.5-18.5T732-715v-56q0-26 18.5-44.5T795-834h56q26 0 44.5 18.5T914-771v56q0 26-18.5 44.5T851-652h-56Zm0 263q-26 0-44.5-18.5T732-452v-57q0-26 18.5-44.5T795-572h56q26 0 44.5 18.5T914-509v57q0 26-18.5 44.5T851-389h-56ZM109-126q-26 0-44.5-18.5T46-189v-582q0-26 18.5-44.5T109-834h480q26 0 44.5 18.5T652-771v582q0 26-18.5 44.5T589-126H109Zm686 0q-26 0-44.5-18.5T732-189v-57q0-26 18.5-44.5T795-309h56q26 0 44.5 18.5T914-246v57q0 26-18.5 44.5T851-126h-56Z"/></svg>