<svg xmlns="http://www.w3.org/2000/svg" height="20" viewBox="0 -960 960 960" width="20"><path d="M685.308-567q-11.731 0-20.019-8.289Q657-583.577 657-594.308v-106.385q0-11.73 8.289-19.519Q673.577-728 685.308-728h111.385q10.73 0 19.019 7.788Q824-712.423 824-700.693v106.385q0 10.731-8.288 19.019Q807.423-567 796.693-567H685.308Zm-1 191q-11.731 0-20.019-8.288-8.289-8.289-8.289-19.02v-105.384q0-11.731 8.289-19.52Q672.577-536 684.308-536h112.385q10.73 0 19.019 7.788 8.288 7.789 8.288 19.52v105.384q0 10.731-8.288 19.02Q807.423-376 796.693-376H684.308ZM163.307-184q-10.73 0-19.019-7.788Q136-199.577 136-211.307v-489.386q0-11.73 8.288-19.519Q152.577-728 163.307-728h433.385q11.731 0 19.52 7.788Q624-712.423 624-700.693v489.386q0 11.73-7.788 19.519-7.789 7.788-19.52 7.788H163.307Zm521.001 0q-11.731 0-20.019-7.788Q656-199.577 656-211.307v-106.385q0-10.731 8.289-18.519Q672.577-344 684.308-344h112.385q10.73 0 19.019 7.789Q824-328.423 824-317.692v106.385q0 11.73-8.288 19.519Q807.423-184 796.693-184H684.308Z"/></svg>