<svg xmlns="http://www.w3.org/2000/svg" height="20" viewBox="0 -960 960 960" width="20"><path d="M768-619q-24 0-41.5-17.5T709-677v-67q0-24 17.5-41t41.5-17h72q23 0 40.5 17t17.5 41v67q0 23-17.5 40.5T840-619h-72Zm-1 254q-24 0-41.5-17.5T708-423v-67q0-24 17.5-41t41.5-17h73q23 0 40.5 17t17.5 41v67q0 23-17.5 40.5T840-365h-73ZM120-110q-23 0-40.5-17T62-168v-576q0-24 17.5-41t40.5-17h458q24 0 41 17t17 41v576q0 24-17 41t-41 17H120Zm647 0q-24 0-41.5-17T708-168v-68q0-23 17.5-40t41.5-17h73q23 0 40.5 17t17.5 40v68q0 24-17.5 41T840-110h-73Z"/></svg>