<svg xmlns="http://www.w3.org/2000/svg" height="24" viewBox="0 -960 960 960" width="24"><path d="M779.784-646.783q-22.088 0-37.544-15.457-15.457-15.456-15.457-37.544v-66.434q0-22.087 15.457-37.544 15.456-15.456 37.544-15.456h66.434q22.087 0 37.544 15.456 15.456 15.457 15.456 37.544v66.434q0 22.088-15.456 37.544-15.457 15.457-37.544 15.457h-66.434Zm0 253.001q-22.088 0-37.544-15.457-15.457-15.457-15.457-37.544v-66.999q0-22.088 15.457-37.544 15.456-15.457 37.544-15.457h66.434q22.087 0 37.544 15.457 15.456 15.456 15.456 37.544v66.999q0 22.087-15.456 37.544-15.457 15.457-37.544 15.457h-66.434Zm-666.002 253q-22.087 0-37.544-15.456-15.456-15.457-15.456-37.544v-572.436q0-22.087 15.456-37.544 15.457-15.456 37.544-15.456h480q22.088 0 37.544 15.456 15.457 15.457 15.457 37.544v572.436q0 22.087-15.457 37.544-15.456 15.456-37.544 15.456h-480Zm666.002 0q-22.088 0-37.544-15.456-15.457-15.457-15.457-37.544v-67q0-22.087 15.457-37.544 15.456-15.456 37.544-15.456h66.434q22.087 0 37.544 15.456 15.456 15.457 15.456 37.544v67q0 22.087-15.456 37.544-15.457 15.456-37.544 15.456h-66.434Z"/></svg>