<svg xmlns="http://www.w3.org/2000/svg" height="24" viewBox="0 -960 960 960" width="24"><path d="m378.462-689.385-126.001-126q9.385-4.077 17.539-5.115 8.154-1.039 14.615-1.039 41.539 0 70.77 29.116 29.23 29.115 29.23 70.884 0 8-1.269 15.27-1.269 7.269-4.884 16.884ZM753.846-314l-40-40v-335.231q0-39.154-26.577-65.731-26.577-26.577-65.73-26.577-39.154 0-65.731 26.577-26.577 26.577-26.577 65.731v150.616l-40-40v-110.616q0-54.923 38.923-93.615 38.923-38.693 93.385-38.693 54.461 0 93.384 38.693 38.923 38.692 38.923 93.615V-314ZM792-106.769 529.231-369.538v98.769q0 54.462-38.923 93.385t-93.385 38.923q-54.462 0-93.385-38.923t-38.923-93.385h-1.692q-12.154 0-21.231-8.577-9.077-8.577-11.077-20.5l-28.923-283.077q-2-14.923 7.692-25.231 9.693-10.308 24.616-10.308h45.846L96-802.769q-5.616-5.616-6.116-13.654-.5-8.039 6.116-14.654 6.384-6.385 14.154-6.385 7.769 0 14.154 6.385l696 696q5.615 5.616 6 13.77.385 8.153-6 14.538t-14.154 6.385q-7.769 0-14.154-6.385Zm-522.308-204h29.846l25.847-262.615-5.539-5.077h-77.231l27.077 267.692Zm127.231 132.308q39.154 0 65.731-26.577 26.577-26.577 26.577-65.731v-138.769L362-536.769l-23.384 236.923q-2 11.923-11.077 20.5t-21.231 8.577h-1.693q0 39.154 26.577 65.731 26.577 26.577 65.731 26.577Zm-127.231-400h-27.077 82.77-55.693Z"/></svg>