<svg xmlns="http://www.w3.org/2000/svg" height="20" viewBox="0 -960 960 960" width="20"><path d="M388.304-685.001 211.999-861.306q14-11 36.348-19.847 22.348-8.848 43.174-8.848 50.957 0 89.718 38.543Q420-812.914 420-761.523q0 22.261-11.348 42.674-11.348 20.414-20.348 33.848Zm421.219 421.219L720-353.305v-378.218q0-28.608-20.456-48.282-20.457-19.674-49.065-19.674-28.609 0-48.783 19.674-20.173 19.674-20.173 48.282v239.741L492-581.305v-150.218q0-66.391 45.761-112.435 45.761-46.043 112.718-46.043 66.956 0 113 45.761t46.044 112.717v467.741ZM774.174-71.956 581.523-264.607v27.086q0 70.348-48.588 118.935Q484.348-69.999 414-69.999q-69.348 0-118.435-46.587-49.088-46.587-49.088-114.935h-19.956q-18.522 0-32.196-12.109-13.675-12.109-16.24-31.196l-40.13-302.956q-2.566-21.653 11.326-38.175 13.891-16.522 37.109-16.522h27.826L71.956-774.174Q59.26-786.87 59.543-802.283q.283-15.413 12.413-27.543 12.696-12.696 28.609-12.696 15.913 0 28.609 12.696l702.217 702.217q12.696 12.696 12.414 27.827-.283 15.13-12.979 27.826T802.5-59.26q-15.63 0-28.326-12.696ZM270.521-320.48h42l25-188.13-34.347-34.912h-61.653l29 223.042ZM414-159.521q32 0 55-23t23-55V-354.13l-66.173-66.173-20.87 145.477q-2.565 19.087-16.239 31.196-13.674 12.109-32.196 12.109H337q0 31 22.5 51.5t54.5 20.5Zm-143.479-384h-29 96-67Z"/></svg>