<svg xmlns="http://www.w3.org/2000/svg" height="20" viewBox="0 -960 960 960" width="20"><path d="M413.129-166.999h-66.648q-13.35 39.956-49.872 65.652Q260.087-75.651 216-75.651q-58.479 0-99.414-40.935T75.651-216q0-44.087 25.696-80.609 25.696-36.522 65.652-51.037v-266.397q-40.956-12.826-66.152-49.848Q75.651-700.913 75.651-744q0-59.479 40.935-99.914T216-884.349q44.087 0 80.109 25.196 36.022 25.196 50.848 66.152h65.607l-22.152-22.151q-15.325-15.326-14.543-34.913.783-19.587 15.826-34.544 15.435-14.957 34.907-14.674 19.471.282 34.094 14.674l105.43 105.768q15.092 15.189 15.092 35.023 0 19.834-14.956 34.427l-106 105.435q-7.096 6.696-15.94 10.044-8.843 3.347-18.387 3.63-9.544.283-18.305-3.848-8.76-4.13-15.456-10.826-15.522-14.957-15.24-34.827.283-19.869 15.24-34.826l20.39-20.39h-65.607q-10.695 29-31.826 49.13-21.13 20.131-50.13 31.826v267.086q28 12.695 49.13 33.326 21.131 20.63 32.826 48.63h65.607l-22.152-22.151q-14.76-14.761-14.26-34.348t15.543-34.544q14.87-14.957 34.907-14.957 20.036 0 34.66 14.392l104.864 105.768q15.092 15.189 15.092 35.023 0 19.834-14.956 34.427l-106 105.435q-5.4 5-22.157-.13-16.757-5.132-32.236-9.936-15.479-4.805-22.261-5.261-6.783-.457 8.566 14.892-15.522-14.956-15.24-34.826.283-19.87 15.24-34.827l20.955-20.955ZM744-75.651q-59.479 0-99.914-40.435T603.651-216q0-42.522 24.696-78.044t66.652-51.913v-268.086q-41.956-16.391-66.652-51.913-24.696-35.522-24.696-78.044 0-59.479 40.435-99.914T744-884.349q59.479 0 99.914 40.435T884.349-744q0 42.522-24.696 78.044t-66.652 51.913v267.086q40.956 16.826 66.152 51.848 25.196 35.022 25.196 79.109 0 58.479-40.435 99.414T744-75.651Zm-528-98.001q18.139 0 30.243-12.387 12.105-12.387 12.105-29.961 0-18.139-12.105-30.243-12.104-12.105-30.243-12.105-17.574 0-29.961 12.105-12.387 12.104-12.387 30.243 0 17.574 12.387 29.961 12.387 12.387 29.961 12.387Zm528 0q18.139 0 30.243-12.387 12.105-12.387 12.105-29.961 0-18.139-12.105-30.243-12.104-12.105-30.243-12.105-17.574 0-29.961 12.105-12.387 12.104-12.387 30.243 0 17.574 12.387 29.961 12.387 12.387 29.961 12.387Zm-528-528q18.139 0 30.243-12.387 12.105-12.387 12.105-29.961 0-18.139-12.105-30.243-12.104-12.105-30.243-12.105-17.574 0-29.961 12.105-12.387 12.104-12.387 30.243 0 17.574 12.387 29.961 12.387 12.387 29.961 12.387Zm528 0q18.139 0 30.243-12.387 12.105-12.387 12.105-29.961 0-18.139-12.105-30.243-12.104-12.105-30.243-12.105-17.574 0-29.961 12.105-12.387 12.104-12.387 30.243 0 17.574 12.387 29.961 12.387 12.387 29.961 12.387Zm-528 528q-17.574 0-29.961-12.387-12.387-12.387-12.387-29.961 0-18.139 12.387-30.243 12.387-12.105 29.961-12.105 18.139 0 30.243 12.105 12.105 12.104 12.105 30.243 0 17.574-12.105 29.961-12.104 12.387-30.243 12.387Zm528 0q-17.574 0-29.961-12.387-12.387-12.387-12.387-29.961 0-18.139 12.387-30.243 12.387-12.105 29.961-12.105 18.139 0 30.243 12.105 12.105 12.104 12.105 30.243 0 17.574-12.105 29.961-12.104 12.387-30.243 12.387Zm-528-528q-17.574 0-29.961-12.387-12.387-12.387-12.387-29.961 0-18.139 12.387-30.243 12.387-12.105 29.961-12.105 18.139 0 30.243 12.105 12.105 12.104 12.105 30.243 0 17.574-12.105 29.961-12.104 12.387-30.243 12.387Zm528 0q-17.574 0-29.961-12.387-12.387-12.387-12.387-29.961 0-18.139 12.387-30.243 12.387-12.105 29.961-12.105 18.139 0 30.243 12.105 12.105 12.104 12.105 30.243 0 17.574-12.105 29.961-12.104 12.387-30.243 12.387Z"/></svg>