<svg xmlns="http://www.w3.org/2000/svg" height="20" viewBox="0 -960 960 960" width="20"><path d="M501-246H323.524Q321-222 301-205t-45 17q-28.333 0-48.167-19.833Q188-227.667 188-256q0-25 17-45t41-23.689V-637q-25-2-41.5-22.5T188-704q0-29.333 19.833-48.667Q227.667-772 256-772q25 0 44.5 16.5T324-714h177l-89.196-88.196q-4.804-3.554-4.304-7.179.5-3.625 4.804-7.625 4.696-4 7.863-4 3.166 0 6.833 4l93.864 94.768Q529-714 529-703.818q0 10.182-8 17.818l-94 94q-1.5 1-3.25 1.5t-3.75 1q-2 .5-3.857-.5-1.857-1-3.143-2-5-4-4.5-7.5t4.5-7.5l88-87H324q-5 23-20 37t-38 20v313q22 7 37 21.5t21 36.5h176l-88.196-89.196q-3.804-3.554-3.304-7.179.5-3.625 4.022-6.625 3.478-4 7.645-3.5 4.166.5 6.833 3.5l93.864 94.768Q529-266 529-255.818q0 10.182-8 17.818l-94 94q-1.5 1-3.25 1.5t-4.25 1q-2.5.5-4.078-.5-1.578-1-2.641-2-3.781-3-2.781-7.5t4-7.5l87-87Zm203.235 58Q675-188 655.5-207.333 636-226.667 636-256q0-22.554 16-42.277Q668-318 694-323v-314.145q-26-3.855-42-24.078T636-704q0-29.333 19.265-48.667Q674.529-772 703.765-772 733-772 752.5-752.667 772-733.333 772-704q0 22.554-16 42.777-16 20.223-42 24.044V-324q24.75 5.115 41.375 23.885Q772-281.345 772-256q0 28.333-19.265 48.167Q733.471-188 704.235-188ZM256-208q20.4 0 34.2-13.8Q304-235.6 304-256q0-20.4-13.8-34.2Q276.4-304 256-304q-20.4 0-34.2 13.8Q208-276.4 208-256q0 20.4 13.8 34.2Q235.6-208 256-208Zm448 0q20.4 0 34.2-13.8Q752-235.6 752-256q0-20.4-13.8-34.2Q724.4-304 704-304q-20.4 0-34.2 13.8Q656-276.4 656-256q0 20.4 13.8 34.2Q683.6-208 704-208ZM256-656q20.4 0 34.2-13.8Q304-683.6 304-704q0-20.4-13.8-34.2Q276.4-752 256-752q-20.4 0-34.2 13.8Q208-724.4 208-704q0 20.4 13.8 34.2Q235.6-656 256-656Zm448 0q20.4 0 34.2-13.8Q752-683.6 752-704q0-20.4-13.8-34.2Q724.4-752 704-752q-20.4 0-34.2 13.8Q656-724.4 656-704q0 20.4 13.8 34.2Q683.6-656 704-656ZM256-256Zm448 0ZM256-704Zm448 0Z"/></svg>