<svg xmlns="http://www.w3.org/2000/svg" height="20" viewBox="0 -960 960 960" width="20"><path d="M420.097-356q6.749 0 11.48-4.569 4.731-4.569 4.731-11.391v-215.757q0-6.822-4.521-11.552-4.52-4.731-11.269-4.731-6.749 0-11.48 4.569-4.731 4.569-4.731 11.391v215.757q0 6.822 4.521 11.552 4.52 4.731 11.269 4.731Zm119.385 0q6.749 0 11.48-4.569 4.731-4.569 4.731-11.391v-215.757q0-6.822-4.521-11.552-4.52-4.731-11.269-4.731-6.749 0-11.48 4.569-4.731 4.569-4.731 11.391v215.757q0 6.822 4.521 11.552 4.52 4.731 11.269 4.731ZM192.615-232q-24.315 0-40.465-16.162Q136-264.324 136-288.656v-383.012Q136-696 152.15-712t40.465-16h574.77q24.315 0 40.465 16.162Q824-695.676 824-671.344v383.012Q824-264 807.85-248t-40.465 16h-574.77Zm0-32h574.77q9.23 0 16.923-7.692Q792-279.385 792-288.615v-382.77q0-9.23-7.692-16.923Q776.615-696 767.385-696h-574.77q-9.23 0-16.923 7.692Q168-680.615 168-671.385v382.77q0 9.23 7.692 16.923Q183.385-264 192.615-264ZM168-264v-432 432Z"/></svg>