<svg xmlns="http://www.w3.org/2000/svg" height="20" viewBox="0 -960 960 960" width="20"><path d="M423.825-362q4.175 0 7.175-2.863 3-2.864 3-7.097v-215.757q0-4.233-2.825-7.258-2.824-3.025-7-3.025-4.175 0-7.175 2.863-3 2.864-3 7.097v215.757q0 4.233 2.825 7.258 2.824 3.025 7 3.025Zm112 0q4.175 0 7.175-2.863 3-2.864 3-7.097v-215.757q0-4.233-2.825-7.258-2.824-3.025-7-3.025-4.175 0-7.175 2.863-3 2.864-3 7.097v215.757q0 4.233 2.825 7.258 2.824 3.025 7 3.025ZM200-244q-22.7 0-37.35-14.662Q148-273.324 148-296.04v-368.243Q148-687 162.65-701.5T200-716h560q22.7 0 37.35 14.662Q812-686.676 812-663.96v368.243Q812-273 797.35-258.5T760-244H200Z"/></svg>