<svg xmlns="http://www.w3.org/2000/svg" height="24" viewBox="0 -960 960 960" width="24"><path d="M480-106q-118 0-213.5-66.5T131-348q-2-7-1-13.5t7-8.5q6-2 11.386 1.984Q153.771-364.031 156-357q38 101 126.42 162T480-134q105 0 190-60t136-152H680q-5.95 0-9.975-4.035-4.025-4.035-4.025-10t4.025-9.965q4.025-4 9.975-4h144q12.75 0 21.375 8.625T854-344v144q0 5.95-4.035 9.975-4.035 4.025-10 4.025T830-190.025q-4-4.025-4-9.975v-126q-54 97-144.5 158.5T480-106Zm0-720q-105 0-190 60T154-614h126q5.95 0 9.975 4.035 4.025 4.035 4.025 10T289.975-590q-4.025 4-9.975 4H136q-12.75 0-21.375-8.625T106-616v-144q0-5.95 4.035-9.975 4.035-4.025 10-4.025t9.965 4.025q4 4.025 4 9.975v126q54-97 144.5-158.5T480-854q118 0 214 66.5T830-612q2 7 .5 13.5T823-590q-6 2-11.386-1.984Q806.229-595.969 804-603q-38-101-126.42-162T480-826Zm0 414q-29 0-48.5-19.5T412-480q0-29 19.5-48.5T480-548q29 0 48.5 19.5T548-480q0 29-19.5 48.5T480-412Z"/></svg>