<svg xmlns="http://www.w3.org/2000/svg" height="20" viewBox="0 -960 960 960" width="20"><path d="M244-332v-340q0-18 10-35t36-30q26-13 72.5-20t117.5-7q67 0 111.5 7t72.015 19.844q27.514 12.844 40 30Q716-690 716-672v340q0 40-25.5 71T625-222l49 49q7 7 3.327 16-3.674 9-13.47 9-3.857 0-6.385-1.5-2.528-1.5-4.472-3.5l-67-67H374l-67 67q-2.083 2-4.792 3.5-2.708 1.5-6.625 1.5Q285-148 282-157.5t4-16.5l48-48q-39-8-64.5-39T244-332Zm20-120h206v-196H264v196Zm226 0h206v-196H490v196ZM359.767-308q11.233 0 19.733-8.267 8.5-8.268 8.5-19.5 0-11.233-8.267-19.733-8.268-8.5-19.5-8.5-11.233 0-19.733 8.267-8.5 8.268-8.5 19.5 0 11.233 8.267 19.733 8.268 8.5 19.5 8.5Zm240 0q11.233 0 19.733-8.267 8.5-8.268 8.5-19.5 0-11.233-8.267-19.733-8.268-8.5-19.5-8.5-11.233 0-19.733 8.267-8.5 8.268-8.5 19.5 0 11.233 8.267 19.733 8.268 8.5 19.5 8.5Z"/></svg>