<svg xmlns="http://www.w3.org/2000/svg" height="24" viewBox="0 -960 960 960" width="24"><path d="M126-355v-365q0-65.793 33-104.897Q192-864 243-883.5t114-25q63-5.5 123-5.5 66 0 129.5 5.5t113.5 25q50 19.5 80.5 58.603Q834-785.793 834-720v365q0 78-51.5 135T657-157l20 20q22 22 10.5 50t-43.242 28Q635-59 627-62.5T612-72l-83-82h-98l-83 82q-7 6-15.125 9.5T316-59q-31 0-43-28t10-50l20-20q-74-6-125.5-63T126-355Zm126-193h188v-120H252v120Zm268 0h188v-120H520v120ZM346-314q26 0 43-17t17-43q0-26-17-43t-43-17q-26 0-43 17t-17 43q0 26 17 43t43 17Zm268 0q26 0 43-17t17-43q0-26-17-43t-43-17q-26 0-43 17t-17 43q0 26 17 43t43 17Z"/></svg>