<svg xmlns="http://www.w3.org/2000/svg" height="24" viewBox="0 -960 960 960" width="24"><path d="M480-464.615q-49.5 0-84.75-35.25T360-584.615v-110.001q0-18.91 13.013-32.147Q386.025-740 404.615-740q11.923 0 21.577 5.461 9.654 5.462 16.116 14.616 6.461-9.154 16.115-14.616Q468.077-740 480-740q11.923 0 21.577 5.461 9.654 5.462 16.115 14.616 6.462-9.154 16.116-14.616Q543.462-740 555-740q19.231 0 32.116 13.237Q600-713.526 600-694.616v110.001q0 49.5-35.25 84.75T480-464.615Zm0-40q33 0 56.5-23.5t23.5-56.5v-100H400v100q0 33 23.5 56.5t56.5 23.5ZM200-216.923v-24.308q0-24.769 14.423-46.346 14.423-21.577 38.808-33.5 56.615-27.154 113.307-40.731Q423.231-375.385 480-375.385q56.769 0 113.462 13.577 56.692 13.577 113.307 40.731 24.385 11.923 38.808 33.5Q760-266 760-241.231v24.308q0 17.616-11.961 29.577-11.962 11.962-29.577 11.962H241.538q-17.615 0-29.577-11.962Q200-199.307 200-216.923Zm40 1.538h480v-25.846q0-13.307-8.577-25-8.577-11.692-23.731-19.769-49.384-23.923-101.836-36.654Q533.405-335.385 480-335.385q-53.405 0-105.856 12.731Q321.692-309.923 272.308-286q-15.154 8.077-23.731 19.769-8.577 11.693-8.577 25v25.846Zm240 0Zm0-469.23Z"/></svg>