<svg xmlns="http://www.w3.org/2000/svg" height="24" viewBox="0 -960 960 960" width="24"><path d="M480-464.615q-49.846 0-84.923-35.077Q360-534.769 360-584.615v-110.001q0-18.846 12.884-32.115Q385.769-740 404.615-740q11.923 0 21.577 5.461 9.654 5.462 16.116 14.616 6.461-9.154 16.115-14.616Q468.077-740 480-740q11.923 0 21.577 5.461 9.654 5.462 16.115 14.616 6.462-9.154 16.116-14.616Q543.462-740 555.385-740q18.846 0 31.731 13.269Q600-713.462 600-694.616v110.001q0 49.846-35.077 84.923-35.077 35.077-84.923 35.077ZM200-216.923v-24.308q0-24.769 14.423-46.346 14.423-21.577 38.808-33.5 56.615-27.154 113.307-40.731Q423.231-375.385 480-375.385q56.769 0 113.462 13.577 56.692 13.577 113.307 40.731 24.385 11.923 38.808 33.5Q760-266 760-241.231v24.308q0 17.616-11.961 29.577-11.962 11.962-29.577 11.962H241.538q-17.615 0-29.577-11.962Q200-199.307 200-216.923Z"/></svg>