<svg xmlns="http://www.w3.org/2000/svg" height="20" viewBox="0 -960 960 960" width="20"><path d="M275.717-62Q226-62 192-96.15T158-180v-600q0-49.7 34.162-83.85Q226.324-898 276.04-898h408.243Q734-898 768-863.85T802-780v600q0 49.7-34.162 83.85Q733.676-62 683.96-62H275.717Zm204.481-190Q545-252 590.5-297.698t45.5-110.5Q636-473 590.302-518.5t-110.5-45.5Q415-564 369.5-518.302t-45.5 110.5Q324-343 369.698-297.5t110.5 45.5Zm-.274-81q-15.924 0-29.078-5.5Q437.691-344 427-355l106-106q11 10.772 16.5 24.03 5.5 13.259 5.5 29.104Q555-377 532.978-355t-53.054 22ZM368.789-641Q388-641 401.5-654.289q13.5-13.29 13.5-32.5Q415-705 401.211-718.5q-13.79-13.5-32-13.5Q351-732 337.5-718.711q-13.5 13.29-13.5 31.5Q324-669 337.289-655q13.29 14 31.5 14Zm139 0Q526-641 539.5-654.789q13.5-13.79 13.5-32Q553-705 539.711-718.5q-13.29-13.5-31.5-13.5Q490-732 476.5-718.711q-13.5 13.29-13.5 31.5Q463-669 476.289-655q13.29 14 31.5 14Z"/></svg>