<svg xmlns="http://www.w3.org/2000/svg" height="20" viewBox="0 -960 960 960" width="20"><path d="M288.332-136q-23.563 0-39.948-16.534Q232-169.069 232-192.615v-574.77q0-23.546 16.546-40.081Q265.093-824 288.656-824h383.012q23.563 0 39.948 16.534Q728-790.931 728-767.385v574.77q0 23.546-16.546 40.081Q694.907-136 671.344-136H288.332Zm.283-32h382.77q9.23 0 16.923-7.692Q696-183.385 696-192.615v-574.77q0-9.23-7.692-16.923Q680.615-792 671.385-792h-382.77q-9.23 0-16.923 7.692Q264-776.615 264-767.385v574.77q0 9.23 7.692 16.923Q279.385-168 288.615-168Zm191.583-102.769q56.725 0 96.879-40.352t40.154-97.077q0-56.725-40.352-96.879t-97.077-40.154q-56.725 0-96.879 40.352t-40.154 97.077q0 56.725 40.352 96.879t97.077 40.154ZM479.924-312q-18.924 0-36.194-7.385-17.27-7.384-30.192-20.615L548-474.462q13.231 13.003 20.615 30.377Q576-426.711 576-407.866 576-368 547.978-340t-68.054 28ZM347.789-672Q363-672 373.5-682.289q10.5-10.29 10.5-25.5Q384-723 373.711-733.5q-10.29-10.5-25.5-10.5Q333-744 322.5-733.711q-10.5 10.29-10.5 25.5Q312-693 322.289-682.5q10.29 10.5 25.5 10.5Zm120 0Q483-672 493.5-682.289q10.5-10.29 10.5-25.5Q504-723 493.711-733.5q-10.29-10.5-25.5-10.5Q453-744 442.5-733.711q-10.5 10.29-10.5 25.5Q432-693 442.289-682.5q10.29 10.5 25.5 10.5ZM264-168v-624 624Z"/></svg>