<svg xmlns="http://www.w3.org/2000/svg" height="20" viewBox="0 -960 960 960" width="20"><path d="M434-109q0-12 12.15-17.5T482-132h12v-231.305Q469-367 450-383t-29-40l-92 54q-3 3-6.5 2.5T315-368l-173.11-49.271Q130-421 123.5-429.959t-6.5-20.295Q117-465 126.544-475q9.544-10 24.456-10h297q9-15 23.5-25.5T506-522v-143q0-3.241 1.22-7.19 1.22-3.948 4.78-6.81l131-123q7.857-8.214 19.526-9.607 11.669-1.393 21.617 4.506 11.832 7.334 15.344 20.717Q703-773 697-760L544-506.131Q565-495 575.5-469.5t1.396 48.833l116.768 30.845Q698-388 701.5-387t5.5 6l86.708 158.131Q800-212 798.133-201.195 796.267-190.39 788-182q-9.676 10-23.838 9.5t-25.01-10.348L535-387q-5 3-10 5t-11 3v247h12q23.7 0 35.85 5.531Q574-120.938 574-109H434ZM206-753q-4.25 0-7.125-2.825-2.875-2.824-2.875-7 0-4.175 2.875-7.175t7.125-3h168q4.25 0 7.125 2.825 2.875 2.824 2.875 7 0 4.175-2.875 7.175T374-753H206Zm320 88v136q-1 0 3.5.5t3.5.5l147-241.902q3-5.03 1.667-11.201-1.334-6.17-6.667-8.897-5-2-9-1.5t-8 3.5L526-665Zm-416 80q-4.25 0-7.125-2.825-2.875-2.824-2.875-7 0-4.175 2.875-7.175t7.125-3h120q4.25 0 7.125 2.825 2.875 2.824 2.875 7 0 4.175-2.875 7.175T230-585H110Zm393.825 202q24.575 0 41.375-16.625 16.8-16.624 16.8-41.2 0-24.575-16.625-41.375-16.624-16.8-41.2-16.8-24.575 0-41.375 16.625-16.8 16.624-16.8 41.2 0 24.575 16.625 41.375 16.624 16.8 41.2 16.8ZM318-387l107-66q0-2 .5-5.5t2.5-6.5H151.275q-6.639 0-10.457 4.5Q137-456 137-450q0 4.8 3 8.4 3 3.6 8 5.6l170 49Zm371 17-118-32q0 2-3.5 5.5L562-391l188.818 191.772Q756-194 761.5-194.5t10.5-4.45q4-2.951 4-7.393t-2-9.375L689-370ZM206-205q-4.25 0-7.125-2.825-2.875-2.824-2.875-7 0-4.175 2.875-7.175t7.125-3h120q4.25 0 7.125 2.825 2.875 2.824 2.875 7 0 4.175-2.875 7.175T326-205H206Zm298-236Zm29-87Zm-105 63Zm134 74Z"/></svg>