<svg xmlns="http://www.w3.org/2000/svg" height="20" viewBox="0 -960 960 960" width="20"><path d="M345-17q0-39 28.15-67.5T443-118h12v-197q12 5 24.5 8t24.5 3q56 0 96-39.953t40-97.462q0-5.453-.5-11.519T638-462l86 21q17 5 31.5 15t24.5 28l86.708 157.131Q883-210 878-177q-5 33-28 58-31 31-72.795 31-41.796 0-72.569-30.848L553-270v152h12q41.7 5 69.85 33.531Q663-55.938 663-17H345ZM180-140q-20.3 0-34.65-14.289-14.35-14.29-14.35-34.5Q131-209 145.35-223.5T180-238h120q20.3 0 34.65 14.289 14.35 14.29 14.35 34.5Q349-169 334.65-154.5T300-140H180Zm100-163-173.11-49.271Q73-362 52.5-389.047 32-416.093 32-450.254 32-493 61.544-523 91.088-553 134-553h293q-26.8 18.055-42.9 48.027Q368-475 368-441q0 27 9.5 52t30.5 43l-59 35q-16 10-34 11.5t-35-3.5Zm224-100q-16 0-27-11t-11-27q0-16 11-27t27-11q16 0 27 11t11 27q0 16-11 27t-27 11Zm120-96q-17-35-49.5-56.5T504-577q-10.387 0-20.194 2Q474-573 464-568v-130.273q0-18.093 7-34.41Q478-749 491-762l131-123q25-24 59.5-28t63.155 15Q781-874 791.5-833.5T781-758L624-499ZM84-572q-20.3 0-34.65-14.289Q35-600.579 35-620.789 35-641 49.35-655.5T84-670h120q20.3 0 34.65 14.289 14.35 14.29 14.35 34.5Q253-601 238.65-586.5T204-572H84Zm96-168q-20.3 0-34.65-14.289-14.35-14.29-14.35-34.5Q131-809 145.35-823.5T180-838h168q20.3 0 34.65 14.289 14.35 14.29 14.35 34.5Q397-769 382.65-754.5T348-740H180Z"/></svg>