<svg xmlns="http://www.w3.org/2000/svg" height="24" viewBox="0 -960 960 960" width="24"><path d="M450-92q0-14 14.5-21t41.5-7v-244q4 1 7.226 1H520q25 0 45-14.5t28-37.5l128 32q6 2 10.5 4.5t6.5 7.5l91 165q7 12 5.133 24.805Q832.267-168.39 822-159q-11 11-27 10.5T767-160L556-372q-5 3-10.5 4.5T534-364v244q27 0 41.5 7T590-92H450Zm-264-80q-5.95 0-9.975-4.035-4.025-4.035-4.025-10t4.025-9.965q4.025-4 9.975-4h120q5.95 0 9.975 4.035 4.025 4.035 4.025 10T315.975-176q-4.025 4-9.975 4H186Zm131-168-180-51q-13-4-20.5-14.413Q109-415.825 109-429q0-17 11-28t28-11h300q-2 7-3.5 13.523Q443-447.955 443-440q0 8 1.5 15.5T449-410l-110 68q-4 3-9.5 3.5T317-340Zm202.882-50Q499-390 484.5-404.618q-14.5-14.617-14.5-35.5Q470-461 484.618-475.5q14.617-14.5 35.5-14.5Q541-490 555.5-475.382q14.5 14.617 14.5 35.5Q570-419 555.382-404.5q-14.617 14.5-35.5 14.5ZM561-505q-9-6-19.5-9t-21.663-3H513q-3 0-7 1v-140q0-5 2-10.5t7-9.5l137-128q9.857-10.214 22.929-11.607Q688-817 699.143-810.101q13.714 8.624 17.786 24.362Q721-770 713-756L561-505Zm-455-95q-5.95 0-9.975-4.035-4.025-4.035-4.025-10T96.025-624q4.025-4 9.975-4h120q5.95 0 9.975 4.035 4.025 4.035 4.025 10T235.975-604q-4.025 4-9.975 4H106Zm120-160q-5.95 0-9.975-4.035-4.025-4.035-4.025-10t4.025-9.965q4.025-4 9.975-4h160q5.95 0 9.975 4.035 4.025 4.035 4.025 10T395.975-764q-4.025 4-9.975 4H226Z"/></svg>