<svg xmlns="http://www.w3.org/2000/svg" height="20" viewBox="0 -960 960 960" width="20"><path d="M434-109q0-12 12.15-17.5T482-132h12v-209q4 0 6.226-.5T504-342q33 0 59.5-20.953t34.5-53.462v-1.019V-416l96 26q4 2 7.5 3t5.5 6l86.708 158.131Q800-212 798.133-201.195 796.267-190.39 788-182q-10 10-24.295 9.5-14.296-.5-25.069-10.348L536-387q-5 3-10.5 4.5T514-379v247h12q23.7 0 35.85 5.531Q574-120.938 574-109H434Zm-228-96q-4.25 0-7.125-2.825-2.875-2.824-2.875-7 0-4.175 2.875-7.175t7.125-3h120q4.25 0 7.125 2.825 2.875 2.824 2.875 7 0 4.175-2.875 7.175T326-205H206Zm109-163-173.11-49.271Q130-421 123.5-429.959t-6.5-20.295Q117-465 126.544-475q9.544-10 24.456-10h268q-5.8 10.055-9.4 21.05Q406-452.955 406-441q0 5-2 13t-1 17l-74 42q-3 3-6.5 2.5T315-368Zm188.882-35Q488-403 477-414.118q-11-11.117-11-27Q466-457 477.118-468q11.117-11 27-11Q520-479 531-467.882q11 11.117 11 27Q542-425 530.882-414q-11.117 11-27 11ZM556-527q-15-6-28-9t-24.163-3q.776 0 1.969-1.5Q507-542 506-543v-122.273q0-3.093 1-6.91t5-6.817l131-123q7.857-8.214 19.429-10.107Q674-814 683.798-807.101q12.059 8.624 15.631 21.862Q703-772 697-760L556-527Zm-446-58q-4.25 0-7.125-2.825-2.875-2.824-2.875-7 0-4.175 2.875-7.175t7.125-3h120q4.25 0 7.125 2.825 2.875 2.824 2.875 7 0 4.175-2.875 7.175T230-585H110Zm96-168q-4.25 0-7.125-2.825-2.875-2.824-2.875-7 0-4.175 2.875-7.175t7.125-3h168q4.25 0 7.125 2.825 2.875 2.824 2.875 7 0 4.175-2.875 7.175T374-753H206Z"/></svg>