<svg xmlns="http://www.w3.org/2000/svg" height="20" viewBox="0 -960 960 960" width="20"><path d="M325.999-92.001 274.001-149v-149.001h-120v-360h-36v-51.998h156v-92.002h-60v-51.998h171.998v51.998h-60v92.002h156v51.998h-36v360h-120v206ZM205.999-350h188.002v-88.155h-99.847v-35.692h99.847v-60.308h-99.847v-35.692h99.847v-88.155H205.999v308.002Zm308.002 243.998V-408q0-22.834 9.154-45.224 9.154-22.391 23.154-40.622 8.615-9.846 18.153-21.038 9.539-11.193 9.539-27.116v-20.001h-36v-51.998h243.998v51.998h-36V-542q0 16.923 10.154 27.039 10.154 10.115 18.384 20.961 14 17.231 22.731 35.538 8.731 18.308 8.731 38.462v313.999H514.001Zm51.998-271.845h188.002V-408q0-19.308-10-34.462-10-15.154-21.77-29.538-14.727-17.111-21.478-30.517-6.752-13.406-6.752-25.483v-34.001h-68.002V-528q0 9.352-6.5 21.253t-21.115 30.131q-11.769 14.385-22.077 30.847-10.308 16.461-10.308 37.769v30.154Zm0 96h188.002v-60.308H565.999v60.308Zm0 123.847h188.002v-88.155H565.999v88.155Zm0-123.847h188.002-188.002Z"/></svg>