<svg xmlns="http://www.w3.org/2000/svg" height="24" viewBox="0 -960 960 960" width="24"><path d="M360-506q23 0 38.5-15.5T414-560q0-23-15.5-38.5T360-614q-23 0-38.5 15.5T306-560q0 23 15.5 38.5T360-506Zm240 0q23 0 38.5-15.5T654-560q0-23-15.5-38.5T600-614q-23 0-38.5 15.5T546-560q0 23 15.5 38.5T600-506ZM334-172v-102q0-14 9-23t23-9h100v134H334Zm160 0v-134h100q14 0 23 9t9 23v102H494Zm-262 0q-24.75 0-42.375-17.625T172-232v-368q0-78.333 54.833-133.167Q281.667-788 360-788h240q78.333 0 133.167 54.833Q788-678.333 788-600v368q0 24.75-17.625 42.375T728-172h-74v-102q0-24.75-17.625-42.375T594-334H366q-24.75 0-42.375 17.625T306-274v102h-74Z"/></svg>