<svg xmlns="http://www.w3.org/2000/svg" height="20" viewBox="0 -960 960 960" width="20"><path d="m462-620-42-42q-4-4-6-8.217-2-4.218-2-9.877V-786q0-11.05 7.475-18.525Q426.95-812 438-812h84q11.05 0 18.525 7.475Q548-797.05 548-786v105.906q0 5.659-2 9.877-2 4.217-6 8.217l-42 42q-4.4 4-8.833 6-4.434 2-9.5 2-5.067 0-9.367-2-4.3-2-8.3-6Zm158 158q-4-4.4-6-8.833-2-4.434-2-9.5 0-5.067 2-9.367 2-4.3 6-8.3l42-42q4-4 8.217-6 4.218-2 9.877-2H786q11.05 0 18.525 7.475Q812-533.05 812-522v84q0 11.05-7.475 18.525Q797.05-412 786-412H680.094q-5.659 0-9.877-2-4.217-2-8.217-6l-42-42Zm-472 24v-84q0-11.05 7.475-18.525Q162.95-548 174-548h105.906q5.659 0 9.877 2 4.217 2 8.217 6l42 42q4 4.4 6 8.833 2 4.434 2 9.5 0 5.067-2 9.367-2 4.3-6 8.3l-42 42q-4 4-8.217 6-4.218 2-9.877 2H174q-11.05 0-18.525-7.475Q148-426.95 148-438Zm264 264v-105.906q0-5.659 2-9.877 2-4.217 6-8.217l42-42q4.4-4 8.833-6 4.434-2 9.5-2 5.067 0 9.367 2 4.3 2 8.3 6l42 42q4 4 6 8.217 2 4.218 2 9.877V-174q0 11.05-7.475 18.525Q533.05-148 522-148h-84q-11.05 0-18.525-7.475Q412-162.95 412-174Z"/></svg>