<svg xmlns="http://www.w3.org/2000/svg" height="20" viewBox="0 -960 960 960" width="20"><path d="M789.077-504.615q-9.231 0-16.308-7.077T765.692-528v-207.693q0-9.23 7.077-16.307 7.077-7.077 16.308-7.077T805.385-752q7.077 7.077 7.077 16.307V-528q0 9.231-7.077 16.308t-16.308 7.077Zm-405.077 0q-43.5 0-73.75-30.25T280-608.615q0-43.501 30.25-73.751 30.25-30.25 73.75-30.25t73.75 30.25Q488-652.116 488-608.615q0 43.5-30.25 73.75T384-504.615ZM136-247.384v-45.847q0-17.158 10.192-31.54 10.192-14.383 26.039-24.306 48.846-27.385 102.509-42.846 53.663-15.462 109.406-15.462 55.743 0 109.26 15.462 53.517 15.461 102.363 42.846 15.847 9.923 26.039 24.306Q632-310.389 632-293.231v45.847H136Z"/></svg>