<svg xmlns="http://www.w3.org/2000/svg" height="20" viewBox="0 -960 960 960" width="20"><path d="M186.971-260h-9.953q-23.441 0-39.922-16.631-16.481-16.63-16.481-39.984v-176.923q0-84.744 59.374-144.065 59.373-59.32 144.192-59.32 84.819 0 144.011 59.32 59.193 59.321 59.193 144.065v176.923q0 23.354-16.58 39.984Q494.226-260 470.944-260h-9.758q-11.994 0-20.282-8.138-8.289-8.139-8.289-20.17v-110.769q0-12.031 8.139-20.169 8.138-8.139 20.169-8.139H480v-66.153q0-65-45.5-110.5t-110.5-45.5q-65 0-110.5 45.5t-45.5 110.5v66.153h19.077q12.031 0 20.169 8.139 8.139 8.138 8.139 20.169v110.769q0 12.031-8.169 20.17Q199.047-260 186.971-260ZM728-658.154v-24.615q0-6.462 3.846-10.308t10.308-3.846h5.231q5.846 0 9.23 3.384 3.385 3.385 3.385 9.231v26.154h42.154q16.477 0 27.623 11.146t11.146 27.623v320.616q0 16.477-11.146 27.623T802.154-260H685.846q-16.477 0-27.623-11.146t-11.146-27.623v-320.616q0-16.477 11.146-27.623t27.623-11.146H728ZM679.077-292h129.846-129.846Zm0 0h129.846v-334.154H679.077V-292Z"/></svg>