<svg xmlns="http://www.w3.org/2000/svg" height="20" viewBox="0 -960 960 960" width="20"><path d="M849.384-236.001 797.385-288v-328.924H468.461l-45.845-45.845v-98.155h-98.925l-51.998-51.999h202.922v144h374.769v432.922ZM828.386-87.078l-74.077-73.846H110.616v-643.924l-45.385-45.385 37.153-37.153 762.155 763.155-36.153 37.153ZM162.615-212.923h92.001v-92.001h-92.001v92.001Zm0-153h92.001v-92.001h-92.001v92.001Zm0-151h92.001v-92.001h-92.001v92.001Zm168 304h92.001v-92.001h-92.001v92.001Zm0-153h92.001v-92.001h-92.001v92.001Zm144 153h227.696L602.309-313.924H474.615v101.001Zm235.384-252.001h-51.998v-51.999h51.998v51.999Z"/></svg>