<svg xmlns="http://www.w3.org/2000/svg" height="24" viewBox="0 -960 960 960" width="24"><path d="M887.413-191.13 800-278.304v-318.109H482.131L400-678.304v-78.109h-77.869l-87.414-87.174h252.696v160h400v492.457ZM829.087-12.934 731.5-109H72.587v-660.435L19.63-822.63l58.392-58.392L887.718-71.565l-58.631 58.63ZM160-196.413h80v-80h-80v80Zm0-160h80v-80h-80v80Zm0-160h80v-80h-80v80Zm160 320h80v-80h-80v80Zm0-160h80v-80h-80v80Zm160 160h164.565l-80-80H480v80Zm240-240h-73.065L640-443.348v-73.065h80v80Z"/></svg>