<svg xmlns="http://www.w3.org/2000/svg" height="24" viewBox="0 -960 960 960" width="24"><path d="M897.523-187.217 800-284.174v-307.347H493.218L400-684.174v-67.347h-66.782l-97.522-96.958h261.827v160h400v501.262ZM841.479 7.611 739.001-94H62.477V-771.39l-54.26-54.827 61.652-61.652L903.697-54.607 841.479 7.61ZM160-191.521h80v-80h-80v80Zm0-160h80v-80h-80v80Zm0-160h80v-80h-80v80Zm160 320h80v-80h-80v80Zm0-160h80v-80h-80v80Zm160 160h162.609l-80-80H480v80Zm240-240h-63.608L640-447.913v-63.608h80v80Z"/></svg>