<svg xmlns="http://www.w3.org/2000/svg" height="20" viewBox="0 -960 960 960" width="20"><path d="M480.156-83q-81.982 0-154.243-30.847-72.261-30.848-126.74-85.326-54.478-54.479-85.326-126.818-30.848-72.339-30.848-154.587 0-82.248 30.848-154.009 30.848-71.761 85.326-126.24 54.479-54.478 126.818-85.326 72.339-30.848 154.587-30.848 82.248 0 154.009 30.848 71.761 30.848 126.24 85.326 54.478 54.479 85.326 126.584 30.848 72.105 30.848 154.087 0 81.982-30.848 154.243t-85.326 126.74q-54.479 54.478-126.584 85.326-72.105 30.848-154.087 30.848Zm.297-98.001q124.46 0 211.503-87.496 87.043-87.496 87.043-211.956T691.62-691.956q-87.38-87.043-211.674-87.043-124.294 0-211.619 87.379-87.326 87.38-87.326 211.674 0 124.294 87.496 211.619 87.496 87.326 211.956 87.326ZM480-331.478q-62.261 0-105.391-43.131-43.131-43.13-43.131-105.391t43.131-105.391q43.13-43.131 105.391-43.131t105.391 43.131q43.131 43.13 43.131 105.391t-43.131 105.391Q542.261-331.478 480-331.478Z"/></svg>