<svg xmlns="http://www.w3.org/2000/svg" height="24" viewBox="0 -960 960 960" width="24"><path d="M479.88-67q-85.706 0-160.967-32.347-75.261-32.348-131.24-88.326-55.978-55.979-88.326-131.359Q67-394.413 67-480.12q0-85.706 32.348-160.967 32.348-75.261 88.326-131.24 55.979-55.978 131.359-88.326 75.381-32.348 161.088-32.348 85.706 0 160.967 32.348 75.261 32.348 131.24 88.326 55.978 55.979 88.326 131.359 32.348 75.381 32.348 161.088 0 85.706-32.348 160.967-32.348 75.261-88.326 131.24-55.979 55.978-131.359 88.326Q565.587-67 479.88-67ZM480.223-173q127.69 0 217.233-89.766 89.543-89.767 89.543-217.456 0-127.69-89.65-217.233t-217.173-89.543q-127.524 0-217.349 89.65-89.826 89.65-89.826 217.173 0 127.524 89.766 217.349 89.767 89.826 217.456 89.826ZM480-315.478q-68.261 0-116.391-48.131-48.131-48.13-48.131-116.391t48.131-116.391q48.13-48.131 116.391-48.131t116.391 48.131q48.131 48.13 48.131 116.391t-48.131 116.391Q548.261-315.478 480-315.478Z"/></svg>