<svg xmlns="http://www.w3.org/2000/svg" height="24" viewBox="0 -960 960 960" width="24"><path d="m333.218-375.131 101.564-283.043q3.566-10.696 12.696-16.826 9.131-6.13 20.392-6.13h24.26q11.261 0 20.392 6.13 9.13 6.13 12.696 16.826l102.695 284.347q6.13 17.392-4.131 31.935-10.261 14.544-28.652 14.544-11.826 0-21.805-7.196-9.978-7.196-13.543-19.022l-18.783-58.999H419.305l-19.348 61.13q-3.565 10.695-12.695 17.391-9.131 6.696-20.392 6.696-18.826 0-29.304-14.979-10.479-14.978-4.348-32.804Zm102.956-96.217h87.652L482-604.956h-4l-41.826 133.608ZM22.477-75.478v-160q0-22.087 15.457-37.544 15.457-15.457 37.544-15.457h26.999v-383.042H75.478q-22.087 0-37.544-15.457-15.457-15.457-15.457-37.544v-160q0-22.087 15.457-37.544 15.457-15.457 37.544-15.457h160q22.087 0 37.544 15.457 15.457 15.457 15.457 37.544v26.999h383.042v-26.999q0-22.087 15.457-37.544 15.457-15.457 37.544-15.457h160q22.087 0 37.544 15.457 15.457 15.457 15.457 37.544v160q0 22.087-15.457 37.544-15.457 15.457-37.544 15.457h-26.999v383.042h26.999q22.087 0 37.544 15.457 15.457 15.457 15.457 37.544v160q0 22.087-15.457 37.544-15.457 15.457-37.544 15.457h-160q-22.087 0-37.544-15.457-15.457-15.457-15.457-37.544v-26.999H288.479v26.999q0 22.087-15.457 37.544-15.457 15.457-37.544 15.457h-160q-22.087 0-37.544-15.457-15.457-15.457-15.457-37.544ZM288.48-208.479h383.042v-26.999q0-22.087 15.457-37.544 15.457-15.457 37.544-15.457h26.999v-383.042h-26.999q-22.087 0-37.544-15.457-15.457-15.457-15.457-37.544v-26.999H288.479v26.999q0 22.087-15.457 37.544-15.457 15.457-37.544 15.457h-26.999v383.042h26.999q22.087 0 37.544 15.457 15.457 15.457 15.457 37.544v26.999ZM111.521-760H200v-88.479h-88.479V-760ZM760-760h88.479v-88.479H760V-760Zm0 648.479h88.479V-200H760v88.479Zm-648.479 0H200V-200h-88.479v88.479ZM200-760Zm560 0Zm0 560Zm-560 0Z"/></svg>