<svg xmlns="http://www.w3.org/2000/svg" height="24" viewBox="0 -960 960 960" width="24"><path d="m336.231-344.077 127.846-328.461q1.187-3.535 4.351-5.498 3.165-1.964 6.726-1.964h9.444q3.864 0 7.005 1.964 3.142 1.963 4.32 5.498l129.385 328.384q3.461 9.385-1.769 16.769Q618.308-320 608.5-320q-5.885 0-10.423-2.808-4.539-2.807-6.769-8.731l-36.539-92.769H405.692l-36.538 93q-2.231 5.154-6.385 8.231T353.077-320q-9.846 0-15.077-7.615-5.231-7.616-1.769-16.462Zm81.308-112.231h124.922l-61.23-160.769h-4l-59.692 160.769ZM95.384-127.692v-104.616q0-13.731 9.289-23.019 9.288-9.288 23.019-9.288H160v-430.77h-32.443q-13.788 0-22.98-9.288-9.193-9.288-9.193-23.019v-104.616q0-13.731 9.289-23.019 9.288-9.289 23.019-9.289h104.616q13.731 0 23.019 9.289 9.288 9.288 9.288 23.019V-800h430.77v-32.443q0-13.788 9.288-22.98 9.288-9.193 23.019-9.193h104.616q13.731 0 23.019 9.289 9.289 9.288 9.289 23.019v104.616q0 13.731-9.289 23.019-9.288 9.288-23.019 9.288H800v430.77h32.443q13.788 0 22.98 9.288 9.193 9.288 9.193 23.019v104.616q0 13.731-9.289 23.019-9.288 9.289-23.019 9.289H727.692q-13.731 0-23.019-9.289-9.288-9.288-9.288-23.019V-160h-430.77v32.443q0 13.788-9.288 22.98-9.288 9.193-23.019 9.193H127.692q-13.731 0-23.019-9.289-9.289-9.288-9.289-23.019ZM264.615-200h430.77v-32.443q0-13.788 9.288-22.98t23.019-9.192H760v-430.77h-32.443q-13.788 0-22.98-9.288t-9.192-23.019V-760h-430.77v32.443q0 13.788-9.288 22.98t-23.019 9.192H200v430.77h32.443q13.788 0 22.98 9.288t9.192 23.019V-200Z"/></svg>