<svg xmlns="http://www.w3.org/2000/svg" height="20" viewBox="0 -960 960 960" width="20"><path d="M542-244h-62q-118.612 0-201.306-82.568Q196-409.137 196-527.568 196-646 278.712-729q82.713-83 201.351-83 59.319 0 111.128 22.5T681-729q38 38 60.5 89.673Q764-587.655 764-528q0 100-68.5 185T555-203q-3 2.5-6 2.25t-7-2.25q-4-2-5-4.5t0-7.5l5-29Zm10 20q80-60 136-139.5T744-528q0-109-77.5-186.5T480-792q-109 0-186.5 77.5T216-528q0 109 77.5 186.5T480-264h72v40Zm-68.845-133q10.43 0 17.638-7.362Q508-371.725 508-382.155t-7.362-17.638Q493.275-407 482.845-407t-17.638 7.362Q458-392.275 458-381.845t7.362 17.638Q472.725-357 483.155-357Zm-79.894-281q5.739 2 10.929-1.105 5.189-3.106 9.81-8.895 7-13 22.429-20 15.428-7 35.714-7 29.968 0 48.913 15.438Q550-644.125 550-617.206 550-591 535-575q-15 16-29.682 30.366Q485-524 477.5-510.5T470-487q0 8.69 3.646 14.845 3.647 6.155 10.5 6.155 4.997 0 8.425-3 3.429-3 1.429-9-2-8 4.5-20.5T522-528q18-18 35-36.167 17-18.166 17-52.833 0-37.686-26-61.343Q522-702 487-702q-29.651 0-52.326 12-22.674 12-28.761 21.763Q400-660 398.5-650q-1.5 10 4.761 12ZM480-508Z"/></svg>