<svg xmlns="http://www.w3.org/2000/svg" height="24" viewBox="0 -960 960 960" width="24"><path d="M532-252h-72q-120.282 0-204.141-83.801t-83.859-204Q172-660 255.825-744q83.825-84 204.058-84Q520-828 572.5-805.5 625-783 664-744t61.5 91.307Q748-600.387 748-540q0 98-46.5 184.5T580-206q-8 4.5-15.5 5.25T549-204q-8-4-12.5-10.5T532-230v-22Zm-69.845-90q10.845 0 18.345-7.655 7.5-7.655 7.5-18.5 0-10.845-7.655-18.345-7.655-7.5-18.5-7.5-10.845 0-18.345 7.655-7.5 7.655-7.5 18.5 0 10.845 7.655 18.345 7.655 7.5 18.5 7.5Zm-81.894-292q5.739 2 11.429-.605 5.689-2.606 9.31-8.395 8-14 24-22.5t37-8.5q31.111 0 50.556 16Q532-642 532-614.206q0 17.206-8 31.706T497-549q-26 26-37 43.5T449-472q0 6.621 4.146 11.31 4.147 4.69 10 4.69 5.854 0 9.854-4.5 4-4.5 4-11.5 1-11 12-26.5t29-33.5q23-23 32.5-42.667Q560-594.333 560-614q0-39.686-27.5-63.843Q505-702 464-702q-28.651 0-52.826 14-24.174 14-35.261 31.763Q372-649 373-642.5t7.261 8.5Z"/></svg>