<svg xmlns="http://www.w3.org/2000/svg" height="20" viewBox="0 -960 960 960" width="20"><path d="M227-110q-49.7 0-83.35-33.788Q110-177.575 110-227h117v117ZM110-300v-65h117v65H110Zm0-139v-65h117v65H110Zm0-139v-65h117v65H110Zm190 468v-117h65v117h-65Zm109-182q-49.7 0-83.35-33.994Q292-359.987 292-409v-324q0-48.95 33.65-82.975Q359.3-850 409-850h324q49.013 0 83.006 34.025Q850-781.95 850-733v324q0 49.013-33.994 83.006Q782.013-292 733-292H409Zm0-117h324v-324H409v324Zm30 299v-117h65v117h-65Zm138 0v-117h66v117h-66Z"/></svg>