<svg xmlns="http://www.w3.org/2000/svg" height="20" viewBox="0 -960 960 960" width="20"><path d="M216-184q-13.546 0-22.773-9.227T184-216h32v32Zm-32-112v-72h32v72h-32Zm0-152v-72h32v72h-32Zm0-152v-72h32v72h-32Zm112 416v-32h72v32h-72Zm88.615-144q-24.315 0-40.465-16.15Q328-360.3 328-384.615v-334.77q0-24.315 16.15-40.465Q360.3-776 384.615-776h334.77q24.315 0 40.465 16.15Q776-743.7 776-719.385v334.77q0 24.315-16.15 40.465Q743.7-328 719.385-328h-334.77Zm0-32h334.77q9.23 0 16.923-7.692Q744-375.385 744-384.615v-334.77q0-9.23-7.692-16.923Q728.615-744 719.385-744h-334.77q-9.23 0-16.923 7.692Q360-728.615 360-719.385v334.77q0 9.23 7.692 16.923Q375.385-360 384.615-360ZM448-184v-32h72v32h-72Zm152 0v-32h72v32h-72Z"/></svg>