<svg xmlns="http://www.w3.org/2000/svg" height="24" viewBox="0 -960 960 960" width="24"><path d="M728.965-481Q723-481 719-485.025T715-495v-277q0-5.95 4.035-9.975 4.035-4.025 10-4.025t9.965 4.025q4 4.025 4 9.975v277q0 5.95-4.035 9.975-4.035 4.025-10 4.025ZM351-174q-19.971 0-36.486-12Q298-198 293-218l-18-64q-51-27-83.5-80T159-480q0-65 32.5-118t83.5-80l18-64q5-20 21.514-32 16.515-12 36.486-12h72q19.971 0 36.486 12Q476-762 481-742l18 64q51 27 83.5 80T615-480q0 65-32.5 118T499-282l-18 64q-5 20-21.514 32-16.515 12-36.486 12h-72Zm36-106q83 0 141.5-58.5T587-480q0-83-58.5-141.5T387-680q-83 0-141.5 58.5T187-480q0 83 58.5 141.5T387-280Z"/></svg>