<svg xmlns="http://www.w3.org/2000/svg" height="24" viewBox="0 -960 960 960" width="24"><path d="M430-195.478q39.909 0 67.216-27.131 27.306-27.13 27.306-66.261v-159.609h120v-80h-160v161.218q-11.565-8.565-25.478-12.913-13.914-4.348-29.044-4.348-39.909 0-67.216 27.306-27.306 27.307-27.306 67.216 0 39.909 27.306 67.216 27.307 27.306 67.216 27.306ZM140.782-60.782v-838.436h427.131l251.305 251.531v586.905H140.782Zm372.435-532.435v-200H246.783v626.434h466.434v-426.434h-200Zm-266.434-200v200-200 626.434-626.434Z"/></svg>