<svg xmlns="http://www.w3.org/2000/svg" height="20" viewBox="0 -960 960 960" width="20"><path d="M735.652-119.174 624.305-231.086l-26.565 107q-6.696 24.653-26.783 40.61Q550.87-67.52 524.652-67.52h-89.304q-26.218 0-46.305-15.957-20.087-15.956-26.783-40.609l-39.261-156.783q-44-33-73.109-85.109Q220.782-418.087 220.782-486q0-30 7.282-60.544 7.283-30.543 21.413-58.935L114.435-740.956q-12.131-12.131-12.131-28.109 0-15.978 12.131-28.109 12.13-12.13 28.609-12.13 16.478 0 28.608 12.13L792.87-175.957Q805-163.826 805-147.565t-12.13 28.391q-12.131 12.131-28.609 12.131-16.479 0-28.609-12.131ZM480-324.783q11.609 0 23.065-1.652 11.456-1.652 21.065-4.391L325.391-529.565q-2.739 9.609-4.673 20.783-1.935 11.173-1.935 22.782 0 67.174 47.022 114.195Q412.826-324.783 480-324.783Zm227.696-39.347-74.218-74.218q3.87-11.304 5.804-22.543 1.935-11.239 1.935-25.109 0-67.174-47.022-114.195Q547.174-647.217 480-647.217q-13.304 0-26.174 2.217-12.869 2.218-22.478 5.522l-95.783-95.784 27.695-112.652q6.696-25.218 26.283-40.892 19.587-15.674 45.805-15.674h89.304q26.218 0 45.805 15.957 19.587 15.956 26.283 40.609l38.261 154.783q51.217 39.218 77.717 93.174Q739.218-546 739.218-486q0 33.957-8.695 64.848-8.696 30.892-22.827 57.022ZM446.218-156.477h67.564l19.435-76.044q-12.869 3.435-25.326 4.587-12.456 1.152-27.891 1.152-15.435 0-27.891-1.152-12.457-1.152-25.326-4.587l19.435 76.044Zm-18.435-583.002q12.869-3.435 25.043-4.587Q465-745.218 480-745.218q14.435 0 26.391 1.152 11.957 1.152 24.826 4.587l-18.435-76.044h-65.564l-19.435 76.044Zm18.435 583.002h-19.435 106.434-86.999Zm-18.435-659.046h103.434-103.434Z"/></svg>