<svg xmlns="http://www.w3.org/2000/svg" height="20" viewBox="0 -960 960 960" width="20"><path d="m154.693-117.925-36.768-36.768 93-93.385-94.924-25.538 13.615-49.768 95.309 24.538-25.924-94.923 50.768-12.615 24.539 94.923 154.924-154.924-94.923-25.539 13.615-49.767 95.308 24.923-24.923-95.308 49.767-13.615 25.539 94.923 154.924-154.924-94.923-24.539 12.615-50.768 94.923 25.924-24.538-95.309 49.768-13.615 25.538 94.924 93.385-93 36.768 36.768-93 93.385 94.924 25.538-13.615 49.768-95.309-24.538 25.924 94.923-50.768 12.615-24.539-94.923-154.924 154.924 94.923 25.539-13.615 49.767-95.308-24.923 24.923 95.308-49.767 13.615-25.539-94.923-154.924 154.924 94.923 24.539-12.615 50.768-94.923-25.924 24.538 95.309-49.768 13.615-25.538-94.924-93.385 93Z"/></svg>