<svg xmlns="http://www.w3.org/2000/svg" height="20" viewBox="0 -960 960 960" width="20"><path d="M215.736-98Q166-98 132-132.15 98-166.3 98-216v-384q0-49.7 34.116-83.85Q166.232-718 215.884-718h25.884v-26q0-49.7 34.116-83.85Q310-862 359.728-862h216.204q49.728 0 83.898 34.15Q694-793.7 694-744v170h50q49.7 0 83.85 34.15Q862-505.7 862-456v240q0 49.7-34.15 83.85Q793.7-98 744-98H528v-190h-96v190H215.736ZM216-216h72v-72h-72v72Zm0-156h72v-72h-72v72Zm0-156h72v-72h-72v72Zm144 156h72v-72h-72v72Zm0-156h72v-72h-72v72Zm0-144h72v-72h-72v72Zm144 300h72v-72h-72v72Zm0-156h72v-72h-72v72Zm0-144h72v-72h-72v72Zm168 456h72v-72h-72v72Zm0-156h72v-72h-72v72Z"/></svg>