<svg xmlns="http://www.w3.org/2000/svg" height="24" viewBox="0 -960 960 960" width="24"><path d="M312.087-60.782q-71.088 0-121.197-50.108-50.108-50.109-50.108-121.197v-307.564q0-59.826 35.761-104.976 35.762-45.149 90.456-60.199v-88.391q0-44.305 30.849-75.153 30.848-30.848 75.153-30.848h213.998q44.305 0 75.153 30.848 30.849 30.848 30.849 75.153v88.391q54.694 15.05 90.456 60.199 35.761 45.15 35.761 104.976v307.564q0 71.088-50.109 121.197-50.108 50.108-121.196 50.108H312.087ZM246.783-438.87h466.434v-100.781q0-27.348-18.978-46.326t-46.326-18.978H312.087q-27.348 0-46.326 18.978t-18.978 46.326v100.781Zm65.304 272.087h335.826q27.348 0 46.326-18.978t18.978-46.326v-100.781H246.783v100.781q0 27.348 18.978 46.326t46.326 18.978ZM480-438.87Zm0 106.002Zm0-53.001Zm53.001-325.087h53.998v-82.261H373.001v82.261h53.998q0-22.087 15.457-37.544 15.457-15.457 37.544-15.457 22.087 0 37.544 15.457 15.457 15.457 15.457 37.544Z"/></svg>