<svg xmlns="http://www.w3.org/2000/svg" height="20" viewBox="0 -960 960 960" width="20"><path d="M174-196q-11.05 0-18.525-7.475Q148-210.95 148-222v-249.666q0-22.034 15.275-37.184Q178.55-524 200-524h186q5.565 0 9.783 2.5 4.217 2.5 6.717 5t5 6.717q2.5 4.218 2.5 9.783v20q0 29.167 20.382 49.583Q450.765-410 479.882-410 509-410 529.5-430.417 550-450.833 550-480v-20q0-5.565 2.5-9.783 2.5-4.217 5-6.717t7.065-5Q569.13-524 574-524h186q21.45 0 36.725 15.275Q812-493.45 812-472v249.935q0 11.365-7.475 18.715T786-196H174Zm-6-20h624v-256q0-14-9-23t-23-9H570v24q0 37.72-26.383 63.86T479.802-390q-37.432 0-63.617-26.325Q390-442.65 390-480v-24H200q-14 0-23 9t-9 23v256Zm311.965-263q-4.265 0-7.115-2.587Q470-484.175 470-488q-5-96.548 17-189.274T580-835q3-2 7.384-2.188 4.383-.187 7.616 2.688 3 2.5 2.688 7.384-.313 4.883-3.688 7.116-70 58-87 148.274T490-490q0 4.25-3.035 7.125t-7 3.875ZM239.814-364q8.586 0 14.386-5.614 5.8-5.614 5.8-14.2 0-8.586-5.614-14.386-5.614-5.8-14.2-5.8-8.586 0-14.386 5.614-5.8 5.614-5.8 14.2 0 8.586 5.614 14.386 5.614 5.8 14.2 5.8Zm72 96q8.586 0 14.386-5.614 5.8-5.614 5.8-14.2 0-8.586-5.614-14.386-5.614-5.8-14.2-5.8-8.586 0-14.386 5.614-5.8 5.614-5.8 14.2 0 8.586 5.614 14.386 5.614 5.8 14.2 5.8Zm408-96q8.586 0 14.386-5.614 5.8-5.614 5.8-14.2 0-8.586-5.614-14.386-5.614-5.8-14.2-5.8-8.586 0-14.386 5.614-5.8 5.614-5.8 14.2 0 8.586 5.614 14.386 5.614 5.8 14.2 5.8ZM168-216h624-624Z"/></svg>