<svg xmlns="http://www.w3.org/2000/svg" height="24" viewBox="0 -960 960 960" width="24"><path d="M152.307-160q-13.73 0-23.019-9.288Q120-178.577 120-192.307v-262.821q0-27.103 18.981-45.988Q157.961-520 184.615-520h163.077q4.923 0 10.885 9.923 5.961 9.923 10.692 19.269 4.731 9.346 7.731 13t3-9.885V-480q0 41.667 29.14 70.833Q438.28-380 479.91-380q41.629 0 70.859-29.167Q580-438.333 580-480v-7.693q0 13.539 3 9.885t7.731-13q4.731-9.346 10.692-19.269Q607.385-520 612.308-520h163.077q26.654 0 45.634 18.981Q840-482.039 840-455.385v263.027q0 13.974-9.288 23.166Q821.423-160 807.693-160H152.307Zm327.666-300q-8.512 0-14.242-5.75Q460-471.5 460-480q0-104.037 23.846-205.211t102.462-169.404q6.846-4.847 14.769-4.5 7.923.346 13.538 6.807 5.616 6.462 4.885 14.77-.731 8.307-7.577 13.153-73.077 62.077-92.5 155.134Q500-576.194 500-480q0 8.5-5.758 14.25-5.757 5.75-14.269 5.75ZM229.857-343.077q11.605 0 19.335-7.588 7.731-7.587 7.731-19.192t-7.588-19.335q-7.587-7.731-19.192-7.731t-19.335 7.588q-7.731 7.587-7.731 19.192t7.588 19.335q7.587 7.731 19.192 7.731Zm40 100q11.605 0 19.335-7.588 7.731-7.587 7.731-19.192t-7.588-19.335q-7.587-7.731-19.192-7.731t-19.335 7.588q-7.731 7.587-7.731 19.192t7.588 19.335q7.587 7.731 19.192 7.731Zm460-100q11.605 0 19.335-7.588 7.731-7.587 7.731-19.192t-7.588-19.335q-7.587-7.731-19.192-7.731t-19.335 7.588q-7.731 7.587-7.731 19.192t7.588 19.335q7.587 7.731 19.192 7.731Z"/></svg>