<svg xmlns="http://www.w3.org/2000/svg" height="20" viewBox="0 -960 960 960" width="20"><path d="M76.782-318.823V-737.5q0-41.022 28.848-69.37 28.848-28.348 69.153-28.348h610.434q41.005 0 69.503 28.51 28.498 28.51 28.498 69.531V-318.5q0 41.022-28.498 69.37-28.498 28.348-69.503 28.348h-84.389v-98.001h84.389v-418.434H174.783v418.434h84.389v98.001h-84.389q-41.005 0-69.503-28.51-28.498-28.51-28.498-69.531ZM480-468.999Zm-199.652 281.26 165.043-165.043q14.798-14.957 34.53-14.957 19.731 0 34.688 14.957l165.043 165.043q18.088 18.087 8.687 40.522-9.401 22.435-34.469 22.435H306.13q-25.068 0-34.469-22.435t8.687-40.522Z"/></svg>