<svg xmlns="http://www.w3.org/2000/svg" height="20" viewBox="0 -960 960 960" width="20"><path d="m280.348-187.739 165.043-165.043q14.593-14.957 34.427-14.957t34.791 14.957l165.043 165.043q18.088 18.087 8.687 40.522-9.401 22.435-34.469 22.435H306.13q-25.068 0-34.469-22.435t8.687-40.522Zm-108.957-33.043q-38.178 0-66.394-28.51-28.215-28.51-28.215-69.531V-737.5q0-41.022 28.848-69.37 28.848-28.348 69.153-28.348h610.434q41.005 0 69.503 28.51 28.498 28.51 28.498 69.531V-318.5q0 41.022-28.215 69.37-28.216 28.348-66.394 28.348h-43.391l-196.13-196.13Q520.174-445.826 480-445.826q-40.174 0-69.088 28.914l-196.13 196.13h-43.391Z"/></svg>