<svg xmlns="http://www.w3.org/2000/svg" height="24" viewBox="0 -960 960 960" width="24"><path d="M60.782-286.783v-466.434q0-44.305 30.848-75.153 30.848-30.848 75.153-30.848h626.434q44.305 0 75.153 30.848 30.848 30.848 30.848 75.153v466.434q0 44.305-30.848 75.153-30.848 30.848-75.153 30.848h-84.389v-106.001h84.389v-466.434H166.783v466.434h84.389v106.001h-84.389q-44.305 0-75.153-30.848-30.848-30.848-30.848-75.153ZM480-466.999Zm-194.652 298.26 157.043-157.043q16.162-15.957 37.712-15.957 21.549 0 37.506 15.957l157.043 157.043q19.088 19.087 9.044 43.522t-36.826 24.435H313.13q-26.782 0-36.826-24.435t9.044-43.522Z"/></svg>