<svg xmlns="http://www.w3.org/2000/svg" height="24" viewBox="0 -960 960 960" width="24"><path d="M55.386-220.001v-519.998h519.997v519.998H55.386Zm59.998-124.46q44-27.154 94-42.116t106-14.962q56 0 106 14.962t94 42.116V-680h-400v335.539Zm200 2.921q-43.692 0-86.539 12.116-42.846 12.115-81.693 36.731V-280h338.387v-12.693q-38.461-23.462-81.885-36.155-43.423-12.692-88.27-12.692Zm0-94.614q-42.692 0-73.269-30.577-30.576-30.577-30.576-73.269 0-42.692 30.576-73.269 30.577-30.577 73.269-30.577 42.692 0 73.269 30.577Q419.23-582.692 419.23-540q0 42.692-30.577 73.269-30.577 30.577-73.269 30.577Zm0-56.307q19.808 0 33.674-13.865 13.866-13.866 13.866-33.674t-13.866-33.674q-13.866-13.865-33.674-13.865t-33.673 13.865Q267.845-559.808 267.845-540t13.866 33.674q13.865 13.865 33.673 13.865ZM680-220.001v-519.998h59.999v519.998H680Zm164.616 0v-519.998h59.998v519.998h-59.998ZM315.384-540Zm1.154 260Z"/></svg>