<svg xmlns="http://www.w3.org/2000/svg" height="24" viewBox="0 -960 960 960" width="24"><path d="M70.769-240v-480H550.77v480H70.769Zm40-102.923q44-28.308 94-44.231 50-15.923 106-15.923t106 15.923q50 15.923 94 44.231V-680h-400v337.077Zm200-20.154q-46.384 0-93.077 14.231-46.692 14.231-89.384 43.462V-280h368.769v-25.384q-41.923-26.923-89.769-42.308-47.846-15.385-96.539-15.385Zm0-79.231q-40.384 0-69.038-28.653-28.654-28.654-28.654-69.039 0-40.385 28.654-69.039 28.654-28.653 69.038-28.653 40.385 0 69.039 28.653 28.654 28.654 28.654 69.039 0 40.385-28.654 69.039-28.654 28.653-69.039 28.653Zm0-38.615q24.616 0 41.846-17.231 17.231-17.231 17.231-41.846 0-24.615-17.231-41.846-17.23-17.231-41.846-17.231-24.615 0-41.846 17.231-17.23 17.231-17.23 41.846 0 24.615 17.23 41.846 17.231 17.231 41.846 17.231ZM680-240v-480h40v480h-40Zm169.231 0v-480h40v480h-40ZM310.769-540Zm2.308 260Z"/></svg>