<svg xmlns="http://www.w3.org/2000/svg" height="20" viewBox="0 -960 960 960" width="20"><path d="M718 0v-204l50 12-9-59q0-32.175 23.5-55.088Q806-329 839-329t56.5 22.912Q919-283.175 919-251l-7 59 48-12V0H718Zm86-192h72l3-59q0-17.425-11.5-29.212Q856-292 839-292t-28.5 11.788Q799-268.425 799-251l5 59ZM243.022-380.978 170-453.522q63-60 143-91.239Q393-576 479.955-576q86.956 0 166.5 31.5Q726-513 790-454l-73.022 73.022q-49.282-43.565-110.049-67.587-60.766-24.022-127.011-24.022-66.244 0-126.929 23.522t-109.967 68.087Zm-170-169L0-624q97-95 220.783-143.5 123.783-48.5 259-48.5Q615-816 739-767q124 49 221 143l-73.022 74.022q-84.522-76.565-188.967-119.587Q593.565-712.587 480-712.587t-218.011 42.522Q157.544-627.543 73.022-549.978ZM480-144 340-284q30-24 66-38.5t74.5-14.5q38.5 0 74 15t66.5 38L480-144Z"/></svg>