<svg xmlns="http://www.w3.org/2000/svg" height="24" viewBox="0 -960 960 960" width="24"><path d="M688-14v-176h41v-40q0-29 19.5-48.5T797-298q29 0 48.5 19.5T865-230v40h39v176H688Zm69-176h80v-40q0-17-11.5-28.5T797-270q-17 0-28.5 11.5T757-230v40ZM254-346l-28-28q50.784-51.344 116.312-78.672Q407.839-480 479.92-480q72.08 0 137.58 27.5Q683-425 734-374l-28 28q-45-45-103.5-69.5T480-440q-64 0-122.5 24.5T254-346ZM84-516l-28-28q85-85 194.684-130.5 109.685-45.5 229.5-45.5Q600-720 709.5-674.5T904-544l-28 28q-79-79-181.5-121.5T480-680q-112 0-214.5 42.5T84-516Zm396 396-85-85q16.862-16.897 38.843-25.948Q455.823-240 479.912-240q24.088 0 46.133 9.052Q548.089-221.897 565-205l-85 85Z"/></svg>