<svg xmlns="http://www.w3.org/2000/svg" height="20" viewBox="0 -960 960 960" width="20"><path d="M686-14v-180l51 12-9-59q0-28.175 19.5-47.088Q767-307 796-307t48.5 18.912Q864-269.175 864-241l-7 59 47-12v180H686Zm75-168h72l3-59q0-17.425-11.5-29.212Q813-282 796-282t-28.5 11.788Q756-258.425 756-241l5 59ZM238-386l-12-10q51.784-49.344 117.312-74.672Q408.839-496 479.875-496q71.036 0 135.58 25.5Q680-445 734-398l-12 12q-50-45-112.082-69.5-62.081-24.5-130-24.5Q412-480 350-456t-112 70ZM68-555l-12-13q87-83 195.967-125.5 108.968-42.5 228-42.5Q599-736 708-693q109 43 196 125l-12 13q-85-78-191-121.5T480-720q-115 0-221 43T68-555Zm412 411-84-83q18.862-12.897 40.343-21.448Q457.823-257 480.412-257q22.588 0 43.633 9.052Q545.089-238.897 565-227l-85 83Z"/></svg>