<svg xmlns="http://www.w3.org/2000/svg" height="20" viewBox="0 -960 960 960" width="20"><path d="M705.691-5.385v-194.769l50.385 12-9-59q0-30.636 21.961-52.01 21.962-21.374 53.423-21.374 31.462 0 53.423 21.374 21.962 21.374 21.962 52.01l-7 59 47.615-12V-5.385H705.691Zm81.769-182.769h72l3-59q0-17.425-11.5-29.212-11.5-11.788-28.5-11.788t-28.5 11.788q-11.5 11.787-11.5 29.212l5 59ZM238-386l-46.46-45.691q58.686-55.901 133.119-84.719 74.433-28.819 155.266-28.819 80.832 0 154.606 29.193 73.775 29.192 133.929 83.576L722-386q-50-45-112.082-69.5-62.081-24.5-130-24.5Q412-480 350-456t-112 70ZM68-555l-46.46-47.46q93.154-90.384 211.238-136.576 118.084-46.193 247.076-46.193t247.222 46.693q118.23 46.692 211.384 136.076L892-555q-85-78-191-121.5T480-720q-115 0-221 43T68-555Zm412 411L361.54-262.075q25.716-19.729 56.131-31.941 30.415-12.213 62.795-12.213t62.32 12.713q29.939 12.712 56.674 31.441L480-144Z"/></svg>