<svg xmlns="http://www.w3.org/2000/svg" height="20" viewBox="0 -960 960 960" width="20"><path d="m769-273-23-24q19.289-16.717 36.144-36.358Q799-353 813-377.4q-80-7.6-151-41.1T534-509l-27-28q-56-57-90-127t-40.667-150Q352-800 332-783t-36 36l-23-23q18.8-21.381 40.9-39.69Q336-828 364-846q15.119-8 29.059 0Q407-838 409-822q10 81 43.5 153T542-540.5q56 56.5 128.5 89T822-410q15 2 23 19.5t0 31.5q-17 24-36 45.5T769-273Zm-8 152-92-92q-31 12-63.523 19T539-187q-73.091 0-137.045-27.5Q338-242 290-290t-75.5-111.955Q187-465.909 187-539q0-34.303 7-67.151Q201-639 213-670l-91-91q-4-4-5-10t4-11q5.421-5 11-5t11 5l640 639q4 4.429 4.5 10.5T783-121q-5.421 5-11 5t-11-5Zm-222-98q28 0 54.966-4.5T645-237L440.969-441.031 237-645q-9 24-13.5 51.102Q219-566.797 219-539q0 134 93 227t227 93Zm-98-222Zm80-81Z"/></svg>