<svg xmlns="http://www.w3.org/2000/svg" height="20" viewBox="0 -960 960 960" width="20"><path d="M777.769-264.692 746.462-297q18.068-16.09 33.918-35.007 15.851-18.916 29.158-41.931-71.23-6.908-135.076-35.1Q610.616-437.23 558-485.23L483.23-561q-47-52.616-75.692-115.462-28.692-62.846-34.666-134.076-22.949 13.307-42.141 29.269-19.193 15.961-34.731 33.807l-31.308-31.307q21.8-23.92 47.362-43.499 25.561-19.578 56.561-37.117 16.965-8 32.175 1.5 15.21 9.5 16.518 27.346 7.461 81.693 40.269 154.731 32.808 73.039 89.5 130.116 56.692 57.077 130.115 89 73.424 31.923 153.577 38.384 17.308 1.308 26.577 19.731 9.27 18.423 1.039 34.731-16.539 27-36.808 52.077-20.269 25.077-43.808 47.077ZM756.154-109l-88.539-88.307q-31.461 12-64.446 18.884-32.984 6.885-67.631 6.885-75.608 0-141.765-28.539-66.158-28.538-115.658-78.038t-78.038-115.658q-28.539-66.157-28.539-141.765 0-34.995 6.885-68.306 6.884-33.31 18.884-64.771l-87.538-87.539q-5.846-5.846-6.615-14.384-.77-8.539 5.846-15.154 7.036-6.616 15.269-6.616t15.269 6.616l647.154 646.384q5.847 6.275 6.231 14.77.385 8.494-6.231 15.538-7.036 6.616-15.269 6.616T756.154-109ZM535.538-215.538q25.923 0 50.813-3.923 24.889-3.924 47.341-11.77L432.438-432.485 231.231-633.692q-7.846 22.385-11.77 47.427-3.923 25.042-3.923 50.727 0 134 93 227t227 93ZM432.461-432.461Zm88.77-89.77Z"/></svg>