<svg xmlns="http://www.w3.org/2000/svg" height="20" viewBox="0 -960 960 960" width="20"><path d="M777.769-264.692 265.461-778q22-25.077 47.462-46 25.462-20.923 52.616-37.693 17.615-9.538 35.192.731t18.885 29.654q7.461 80.154 39.884 152.039 32.423 71.884 89.115 128.577 56.693 56.692 128.962 89 72.269 32.307 151.654 38.769 20.385 1.307 29 22.423 8.615 21.115-2.923 42.038-12.462 22.385-33.231 47.077-20.769 24.693-44.308 46.693ZM756.154-109l-89.308-89.077q-29.923 10.462-61.731 16.577-31.807 6.116-65.73 6.116-75.539 0-141.731-28.539-66.193-28.538-115.693-78.038t-78.038-115.693q-28.539-66.192-28.539-141.731 0-33.153 6.5-65.461t16.962-62.231l-89.077-89.077q-5.846-5.846-6.615-14.384-.77-8.539 5.846-15.154 6.615-6.616 15.269-6.616t15.269 6.616l647.154 646.384q5.847 5.847 6.231 14.77.385 8.923-6.231 15.538-6.615 6.616-15.269 6.616T756.154-109Z"/></svg>