<svg xmlns="http://www.w3.org/2000/svg" height="20" viewBox="0 -960 960 960" width="20"><path d="m814.652-237.957-66.891-67.891q10.652-11.13 20.641-24.043 9.989-12.913 19.076-27.726-32.674-3.883-63.945-11.752-31.272-7.87-61.38-21.087L388.217-665.392q-12.287-29.92-20.502-60.166-8.215-30.246-11.404-62.681-14.473 8.977-27.403 18.901-12.93 9.925-24.06 20.577l-66.652-66.891q30.126-29.99 64.715-52.484 34.589-22.494 70.806-37.777 26.945-10.631 50.929 5.663 23.984 16.293 24.18 45.315 1.392 81.848 31.168 156.279 29.777 74.431 87.354 131.83 57.087 57.326 131.554 86.489 74.468 29.163 156.076 30.033 29.065.434 45.316 25.402 16.25 24.967 5.576 51.837-15.24 35.326-38.424 70.054-23.185 34.728-52.794 65.054ZM747.891-60.152l-81.782-81.022q-33.479 12.239-68.858 19.098-35.38 6.859-73.251 6.859-84.994 0-159.365-32.379-74.37-32.379-129.515-87.524-55.145-55.145-87.524-129.515Q115.217-439.006 115.217-524q0-38.259 6.859-73.825t19.098-69.045l-81.022-81.021q-12.478-12.511-12.478-30.212 0-17.702 12.503-30.18 12.925-12.478 30.696-12.478t30.67 12.478l687.74 687.74q12.478 12.95 12.478 30.217t-12.503 30.174q-12.925 12.478-30.696 12.478t-30.671-12.478ZM524-210.218q17.565 0 33.857-1.76 16.292-1.761 32.165-5.044l-186.261-186.5-186.739-186.5q-3.283 15.566-5.044 32.242-1.76 16.676-1.76 33.78 0 131.609 91.086 222.696Q392.391-210.218 524-210.218ZM403.761-403.522Zm122.543-123.782Z"/></svg>