<svg xmlns="http://www.w3.org/2000/svg" height="20" viewBox="0 -960 960 960" width="20"><path d="M248.226-520q-6.896 0-11.561-4.547T232-535.817q0-6.722 4.665-11.452Q241.33-552 248.226-552h410.697q49.173 0 83.125 34.837T776-433.385q0 48.942-33.952 84.164Q708.096-314 658.923-314H520.77l55.999 58.308q4.847 5.615 5.103 12.003.256 6.388-4.624 11.304-6.094 5.616-12.133 5.231-6.038-.384-10.884-6l-75.693-77.231q-3.916-4.33-5.804-8.844-1.888-4.515-1.888-10.874 0-6.359 2.273-10.77 2.272-4.412 6.189-8.742l74.923-76.462q4.846-5.615 10.384-5.615 5.539 0 11.8 5.615 5.739 5.615 4.97 11.269-.769 5.654-5.616 11.27L519.77-346h139.153q35.983 0 60.53-25.581Q744-397.162 744-433.35t-24.547-61.419Q694.906-520 658.923-520H248.226ZM248-314q-6.8 0-11.4-4.547-4.6-4.547-4.6-11.269 0-6.723 4.6-11.453Q241.2-346 248-346h112.308q6.8 0 11.4 4.547 4.6 4.547 4.6 11.269 0 6.723-4.6 11.453-4.6 4.731-11.4 4.731H248Zm.292-412q-6.792 0-11.542-4.547-4.75-4.548-4.75-11.27 0-6.722 4.594-11.452Q241.189-758 247.98-758h466.036q6.792 0 11.542 4.547t4.75 11.269q0 6.722-4.594 11.453Q721.119-726 714.327-726H248.292Z"/></svg>