<svg xmlns="http://www.w3.org/2000/svg" height="20" viewBox="0 -960 960 960" width="20"><path d="M744.091-689.539q-41.63 0-70.86-29.14Q644-747.819 644-789.448q0-41.629 29.14-70.86 29.141-29.231 70.769-29.231 41.63 0 70.86 29.141Q844-831.258 844-789.629q0 41.629-29.14 70.86-29.141 29.23-70.769 29.23ZM136-172.923V-824h439q-1.462 8.333-1.846 16.282-.385 7.949-1.231 15.718.154 29.154 5.885 49.654 5.73 20.5 18.5 42.346H260v32h353.693q26.769 24.462 59.923 37.461 33.153 13 70.384 13 14.462 0 33.577-3.5 19.116-3.5 46.423-18.5V-280H243.077L136-172.923ZM260-536h440v-32H260v32Zm0 132h296v-32H260v32Z"/></svg>