<svg xmlns="http://www.w3.org/2000/svg" height="24" viewBox="0 -960 960 960" width="24"><path d="M480-120q-74.539 0-140.231-28.423t-114.308-77.038q-48.615-48.616-77.038-114.308Q120-405.461 120-480q0-138.846 91.461-240.539Q302.923-822.231 440-838v49.231q-117.077 15.538-193.923 103.384Q169.231-597.538 169.231-480q0 130.077 90.346 220.423T480-169.231q73.231 0 138.423-31.231 65.192-31.23 109.269-89.692L770.154-264Q717.769-195.231 642-157.615 566.231-120 480-120Zm330.616-218-42.462-24.615q12.846-28.077 17.73-57.424 4.885-29.346 4.885-59.961 0-117.538-76.846-205.769Q637.077-774 520-788.769V-838q137.846 12.692 228.923 115.923T840-480q0 36.615-6.731 72.615-6.73 36-22.653 69.385Z"/></svg>