<svg xmlns="http://www.w3.org/2000/svg" height="20" viewBox="0 -960 960 960" width="20"><path d="M184-274v20q0-14.4 10.8-25.2Q205.6-290 220-290h-8v52h8q-14.4 0-25.2-10.8Q184-259.6 184-274Zm76 36v-52h139l40-86 5 9-50 109q-4 8-11.742 14-7.742 6-16.258 6H260Zm516-36q0 14.4-10.8 25.2Q754.4-238 740-238h8v-52h-8q14.4 0 25.2 10.8Q776-268.4 776-254v-20Zm-76 36H593.789Q585-238 578-244t-11-14L361-721q0-1-.224-1h.948q.276 0 .618-.111.342-.111.658.111l117 259 117-259q.4-.222 1-.111t1 .111h.464q-.464 0-.464 1L485-460l76 170h139v52Z"/></svg>