<svg xmlns="http://www.w3.org/2000/svg" height="20" viewBox="0 -960 960 960" width="20"><path d="M157-66v-118h65v-60H114v-276h108v-71h-65v-118h76q24-82 92-133.5T480-894q87 0 155 51.5T727-709h76v118h-65v71h108v276H738v60h65v118H157Zm323.424-204Q527-270 559.5-302.924q32.5-32.925 32.5-79.5Q592-429 559.076-461.5q-32.925-32.5-79.5-32.5Q433-494 400.5-461.076q-32.5 32.925-32.5 79.5Q368-335 400.924-302.5q32.925 32.5 79.5 32.5Zm-.189-92Q472-362 466-367.765q-6-5.764-6-14Q460-390 465.765-396q5.764-6 14-6Q488-402 494-396.235q6 5.764 6 14Q500-374 494.235-368q-5.764 6-14 6Z"/></svg>