<svg xmlns="http://www.w3.org/2000/svg" height="20" viewBox="0 -960 960 960" width="20"><path d="M223.077-136v-32H292v-156.154h-84.923v-143.692H292V-635h-68.923v-32h71.692Q307-736.231 359.192-780.116 411.385-824 480-824q68.615 0 120.808 43.884Q653-736.231 665.231-667h71.692v32H668v167.154h84.923v143.692H668V-168h68.923v32H223.077Zm104.308-531h305.23q-11.538-55.154-54.307-90.077Q535.538-792 480-792q-55.538 0-98.308 34.923-42.769 34.923-54.307 90.077ZM324-168h312v-188.154h84.923v-79.692H636V-635H324v199.154h-84.923v79.692H324V-168Zm156.191-114.461q47.117 0 80.232-33.307 33.116-33.307 33.116-80.423 0-47.117-33.307-80.232-33.307-33.116-80.423-33.116-47.117 0-80.232 33.307-33.116 33.307-33.116 80.423 0 47.117 33.307 80.232 33.307 33.116 80.423 33.116Zm-.372-32.001q-34.05 0-57.704-23.834-23.653-23.835-23.653-57.885t23.834-57.704q23.835-23.653 57.885-23.653t57.704 23.834q23.653 23.835 23.653 57.885t-23.835 57.704q-23.834 23.653-57.884 23.653ZM480-396Zm0-239Z"/></svg>