<svg xmlns="http://www.w3.org/2000/svg" height="24" viewBox="0 -960 960 960" width="24"><path d="M216-132v-28h76v-167h-90v-146h90v-167h-76v-28h78q11-69 63-114.5T480-828q71 0 123 45.5T666-668h78v28h-76v167h90v146h-90v167h76v28H216Zm263.96-152Q528-284 562-317.96q34-33.959 34-82Q596-448 562.04-482q-33.959-34-82-34Q432-516 398-482.04q-34 33.959-34 82Q364-352 397.96-318q33.959 34 82 34Zm-.195-28Q443-312 417.5-337.735q-25.5-25.736-25.5-62.5Q392-437 417.735-462.5q25.736-25.5 62.5-25.5Q517-488 542.5-462.265q25.5 25.736 25.5 62.5Q568-363 542.265-337.5q-25.736 25.5-62.5 25.5Z"/></svg>