<svg xmlns="http://www.w3.org/2000/svg" height="24" viewBox="0 -960 960 960" width="24"><path d="M146.999-63.043v-106.001h76.044v-86.085h-120v-273.915h120v-86.085h-76.044V-721.13h89.478q25.566-76.783 91.87-126.305Q394.652-896.957 480-896.957q85.348 0 151.653 49.522 66.304 49.522 91.87 126.305h89.478v106.001h-76.044v86.085h120v273.915h-120v86.085h76.044v106.001H146.999ZM352.87-721.13h254.26q-20.435-31.479-53.438-50.652-33.003-19.174-73.692-19.174-40.689 0-73.692 19.174-33.003 19.173-53.438 50.652Zm-23.826 552.086h301.912V-361.13h120v-61.913h-120v-192.086H329.044v192.086h-120v61.913h120v192.086Zm151.07-94.347q53.364 0 90.973-37.723 37.608-37.723 37.608-91.087 0-53.364-37.723-90.972-37.722-37.609-91.086-37.609t-90.973 37.723q-37.608 37.723-37.608 91.087 0 53.363 37.723 90.972 37.722 37.609 91.086 37.609Zm.019-91.305q-15.524 0-26.523-10.867-11-10.867-11-26.391 0-15.523 10.867-26.523 10.866-11 26.39-11 15.524 0 26.523 10.867 11 10.867 11 26.39 0 15.524-10.867 26.524-10.866 11-26.39 11ZM480-392.087Zm0-223.042Z"/></svg>