<svg xmlns="http://www.w3.org/2000/svg" height="24" viewBox="0 -960 960 960" width="24"><path d="M747-480q0 24-9.5 45T711-397q-5 5-10.5 5.5T690-396q-4-4-4-9.5t5-10.5q13-14 20.5-30t7.5-34q0-18-7.5-34T691-544q-5-5-5-10.5t4-9.5q5-5 10.5-4.5T711-563q17 17 26.5 38t9.5 45Zm107 0q0 46-15.5 87.5T793-316q-5 5-10.5 6t-10.5-4q-5-5-4-10.5t5-10.5q26-30 39.5-67.5T826-480q0-40-13.5-77.5T773-625q-4-5-5-10.5t4-10.5q5-5 10.5-4t10.5 6q30 35 45.5 76.5T854-480ZM312-92q-25 0-42.5-17.5T252-152v-656q0-25 17.5-42.5T312-868h336q25 0 42.5 17.5T708-808v124h-28v-62H280v532h400v-62h28v124q0 25-17.5 42.5T648-92H312Z"/></svg>