<svg xmlns="http://www.w3.org/2000/svg" height="20" viewBox="0 -960 960 960" width="20"><path d="M222.074-196.782q-20.379 0-34.836-14.246-14.456-14.246-14.456-34.544 0-20.298 14.306-34.754 14.307-14.457 34.694-14.457h-7.783v-220.782q0-94.348 56.609-167.413 56.608-73.066 148.391-90.762v-48.478q0-25.652 17.674-43.326 17.675-17.674 43.327-17.674 25.652 0 43.327 17.674 17.674 17.674 17.674 43.326v48.478q92.348 17.696 148.674 90.479 56.326 72.783 56.326 167.696v220.782h-7.783q20.387 0 34.694 14.246 14.306 14.246 14.306 34.544 0 20.298-14.301 34.755-14.301 14.456-34.68 14.456H222.074ZM480.353-70.564q-32.614 0-55.592-22.846-22.979-22.845-22.979-55.372h157.001q0 32.827-22.908 55.522-22.908 22.696-55.522 22.696Z"/></svg>