<svg xmlns="http://www.w3.org/2000/svg" height="24" viewBox="0 -960 960 960" width="24"><path d="M189-166q-26 0-44.5-18.5T126-229q0-26 18.5-44.5T189-292h5v-246q0-96 55.5-173T397-811v-20q0-34.583 24.208-58.792Q445.417-914 480-914t58.792 24.208Q563-865.583 563-831v20q93 23 148 99.5T766-538v246h5q26 0 44.5 18.5T834-229q0 26-18.5 44.5T771-166H189Zm291-329Zm1 460q-37.95 0-64.975-26.731Q389-88.463 389-126h183q0 38-26.731 64.5Q518.537-35 481-35ZM320-292h320v-246q0-66-47-113t-113-47q-66 0-113 47t-47 113v246Z"/></svg>