<svg xmlns="http://www.w3.org/2000/svg" height="24" viewBox="0 -960 960 960" width="24"><path d="m565.349-449.609 125.956-353.782h74.174l127.956 353.782h-76.696l-26.913-85.217H667.262l-26.912 85.217h-75.001Zm118.783-144h88.52l-42.26-133.608h-2.565l-43.695 133.608ZM302.477-100.782q-90.913 0-154.783-64.152Q83.824-229.087 83.824-320q0-49.696 21-93.457 21-43.761 59-75.022V-720q0-57.913 40.37-98.566 40.37-40.652 98.283-40.652 57.914 0 98.566 40.652 40.653 40.653 40.653 98.566v231.521q38 31.261 59 75.022 21 43.761 21 93.457 0 90.913-64.153 155.066-64.152 64.152-155.066 64.152ZM189.826-320h225.868q0-31.261-14.478-57.674t-39.739-42.848l-25.783-17.782V-720q0-13.609-9.804-23.413t-23.413-9.804q-13.608 0-23.13 9.804-9.521 9.804-9.521 23.413v281.696l-25.217 17.782q-25.827 17-40.305 43.413-14.478 26.413-14.478 57.109Z"/></svg>