<svg xmlns="http://www.w3.org/2000/svg" height="20" viewBox="0 -960 960 960" width="20"><path d="m588-449 110.181-325H776l110 325h-84.043L781-523h-91.489L669-449h-81Zm118-135h62l-30.145-110H735l-29 110ZM304.774-110Q211-110 145.5-176.16T80-336q0-53 22.5-99t61.5-75v-198q0-59 41-100.5T305-850q59 0 100.5 41.5T447-708v198q39 29 61.5 75t22.5 99q0 93.68-66.226 159.84t-160 66.16ZM198-336h215q0-29-14-54t-38-41l-32-22v-255q0-9.3-7.289-16.65-7.29-7.35-16.5-7.35Q296-732 289-724.65q-7 7.35-7 16.65v255l-30 22q-25 18-39.5 43.5T198-336Z"/></svg>