<svg xmlns="http://www.w3.org/2000/svg" height="24" viewBox="0 -960 960 960" width="24"><path d="m553.609-444.065 131.174-357.37h68.304l133.174 357.37h-68.218l-29.847-89.131H650.957l-29.848 89.131h-67.5Zm114.87-144h100.912L720.935-731.13h-2.239l-50.217 143.065ZM312.587-111.869q-86.348 0-147.12-60.892Q104.695-233.652 104.695-320q0-48.717 21-91.174 21-42.456 59-72.413V-720q0-53.348 37.272-90.739 37.272-37.392 90.62-37.392 53.348 0 90.739 37.392 37.391 37.391 37.391 90.739v236.413q38 29.957 59 72.413 21 42.457 21 91.174 0 86.348-60.891 147.239-60.891 60.892-147.239 60.892ZM195.696-320h234.021q0-29.957-13.337-55.554-13.337-25.598-37.293-42.359l-29.37-21.37V-720q0-15.565-10.782-26.348-10.783-10.782-26.348-10.782t-26.228 10.782Q275.696-735.565 275.696-720v280.717l-29.131 21.37q-24.195 17-37.532 42.598-13.337 25.598-13.337 55.315Z"/></svg>