<svg xmlns="http://www.w3.org/2000/svg" height="20" viewBox="0 -960 960 960" width="20"><path d="M320-260q-28.1-4-52.05-5.5Q244-267 216-267h-40v-42h40q28 0 51.95-1.5Q291.9-312 320-316v56Zm48 0v-56h436v56H368Zm64.143-11Q439-271 444-276.143q5-5.143 5-12T443.857-300q-5.143-5-12-5T420-299.857q-5 5.143-5 12T420.143-276q5.143 5 12 5ZM724-384v-72q0-26-21.231-50T652-530h-48q-36.149 0-62.075-26.745Q516-583.491 516-621.895q0-35.06 25.925-59.583Q567.851-706 604-706h24v16h-24q-30 0-51 19.811-21 19.812-21 48Q532-594 553-570t51 24h48q38 0 63 31.5t25 72.5v58h-16Zm64 0v-72q0-70-49-111t-119-41v-16q30 0 50-20t20-50q0-32-20-53t-50-21v-16q36 0 61 26.932 25 26.933 25 63.093Q706-668 695-649t-29 26.87Q721-610 762.5-568T804-456v72h-16Z"/></svg>