<svg xmlns="http://www.w3.org/2000/svg" height="24" viewBox="0 -960 960 960" width="24"><path d="M266.999-182.477q-39-10-79.5-15t-80.5-5H58.521V-300h48.478q40 0 80.5-5t79.5-15v137.523Zm48.479 0V-320h582.045v137.523H315.478Zm96.043-44.522q10.261 0 17.109-7.357 6.848-7.357 6.848-17.165 0-10.261-6.848-17.109-6.848-6.848-16.826-6.848-9.978 0-17.392 6.848-7.413 6.848-7.413 16.826 0 9.978 7.357 17.392 7.357 7.413 17.165 7.413ZM720-360v-50.87q0-39-23-60.065Q674-492 642-492h-62q-59.543 0-101.011-41.437-41.468-41.436-41.468-100.935 0-59.498 41.468-101.324Q520.457-777.523 580-777.523v69.044q-30 0-52 21t-22 53q0 32 22 53t52 21h62q60.522 0 103.5 38.827 42.979 38.826 42.979 95.652v66H720Zm108.479 0v-90q0-66-46-114t-114-48v-68.479q30 0 52-22t22-52q0-30-22-52t-52-22v-69.044q59.391 0 101.217 41.827 41.827 41.826 41.827 101.217 0 32.392-12.131 57.588-12.13 25.195-32.391 42.369 54.869 20.913 92.695 77.895Q897.523-519.645 897.523-450v90h-69.044Z"/></svg>