<svg xmlns="http://www.w3.org/2000/svg" height="20" viewBox="0 -960 960 960" width="20"><path d="M300.309-247.693q-32.408-5.231-64.05-7.654-31.642-2.423-64.565-2.423h-44.923v-60.46h44.923q32.923 0 64.565-2.423 31.642-2.423 64.05-7.654v80.614Zm48 0v-80.614h492.612v80.614H348.309ZM432.143-271Q439-271 444-276.143q5-5.143 5-12T443.857-300q-5.143-5-12-5T420-299.857q-5 5.143-5 12T420.143-276q5.143 5 12 5Zm289.396-113v-72q0-28.461-21.231-50.615-21.231-22.154-50.769-22.154h-48q-44.765 0-76.228-31.76-31.464-31.761-31.464-77.365 0-44.318 31.464-75.288 31.463-30.97 76.228-30.97h24v35.691h-24q-30 0-51 20.543t-21 49.846q0 29.303 21 51.457t51 22.154h48q45.384 0 76.537 33.654 31.154 33.654 31.154 80.192V-384h-35.691Zm83.691 0v-72q0-70-49-115.923t-119-45.923v-35.691q30 0 50.615-20.615 20.616-20.616 20.616-50.616 0-30.769-20.616-51.769-20.615-21-50.615-21v-35.692q44.615 0 75.769 31.856 31.153 31.855 31.153 76.63 0 25.975-10.385 47.129-10.384 21.154-28.384 34.642 58.077 19.434 96.807 68.818Q840.921-524.769 840.921-456v72H805.23Z"/></svg>