<svg xmlns="http://www.w3.org/2000/svg" height="24" viewBox="0 -960 960 960" width="24"><path d="M277.872-246.783h404.822L480.565-395.129 277.872-246.783Zm152.78-433.826q-6.13 14.392-19.022 23.653-12.891 9.261-29.848 9.261-22.087 0-37.544-15.457-15.456-15.457-15.456-37.544 0-6.13.782-11.326.783-5.196 3.348-10.326 19.261-43.653 59.348-70.261 40.088-26.609 88.305-26.609 66.479 0 113.414 46.435t46.935 112.913q0 50.392-30.044 89.653-30.043 39.261-77.869 56.652v25.261l345.13 252.347q10.261 7.261 15.957 18.305 5.696 11.043 5.696 23.87 0 22.087-15.74 37.544-15.739 15.456-37.826 15.456h-731.87q-22.088 0-37.827-15.456-15.74-15.457-15.74-37.544 0-12.827 5.696-23.87 5.696-11.044 15.957-18.305l345.131-252.347v-64.348q0-22.087 15.674-37.261 15.674-15.174 37.761-15.174 22.739 0 38.326-16.022 15.587-16.021 15.587-38.761 0-22.173-16.087-37.76t-38.261-15.587q-16.304 0-29.891 8.652t-20.022 23.956Z"/></svg>