<svg xmlns="http://www.w3.org/2000/svg" height="20" viewBox="0 -960 960 960" width="20"><path d="M225.583-76.782 124.782-883.218h710.436L735.262-76.782H225.583ZM258.479-600l53.565 425.217h336.477L702.087-600H258.479Zm-10-72h463.042l12.87-113.217H235.609L248.479-672ZM480-324.435q-11.609 0-19.282-7.674-7.674-7.674-7.674-19.282 0-8.739 6.239-19.934 6.239-11.194 20.717-30.674 14.478 18.48 20.717 30.174 6.239 11.695 6.239 20.434 0 11.608-7.674 19.282-7.673 7.674-19.282 7.674Zm0 81.044q45 0 76.5-31.5t31.5-76.5q0-32-24-71.5t-84-108.5q-61 71-84.5 110t-23.5 70q0 45 31.5 76.5t76.5 31.5Zm-167.956 68.608h336.477-336.477Z"/></svg>