<svg xmlns="http://www.w3.org/2000/svg" height="20" viewBox="0 -960 960 960" width="20"><path d="M21.999-232.522v-363.957q0-20.387 14.246-34.694 14.246-14.306 34.544-14.306 20.297 0 34.754 14.306Q120-616.866 120-596.479v47h50.521v-287q0-20.387 14.246-34.694 14.246-14.306 34.544-14.306 20.298 0 34.754 14.306 14.457 14.307 14.457 34.694v47h73.955v-47q0-20.387 14.247-34.694 14.246-14.306 34.543-14.306 20.298 0 34.755 14.306 14.457 14.307 14.457 34.694v47h79.042v-47q0-20.387 14.246-34.694 14.247-14.306 34.544-14.306 20.298 0 34.755 14.306 14.457 14.307 14.457 34.694v47h73.955v-47q0-20.387 14.246-34.694 14.246-14.306 34.544-14.306 20.298 0 34.755 14.306 14.456 14.307 14.456 34.694v287H840v-47q0-20.387 14.246-34.694 14.246-14.306 34.544-14.306 20.298 0 34.755 14.306 14.456 14.307 14.456 34.694v363.957q0 45.955-32.023 77.978-32.023 32.023-77.978 32.023H625.001q-20.388 0-34.694-14.306Q576-151.134 576-171.521V-240q0-39.6-28.2-67.8Q519.6-336 480-336q-39.6 0-67.8 28.2Q384-279.6 384-240v68.479q0 20.387-14.307 34.694-14.306 14.306-34.694 14.306H132q-45.955 0-77.978-32.023-32.023-32.023-32.023-77.978ZM367.87-480h47.217q5.63 0 9.011-3.63 3.38-3.631 3.38-8.761V-588q0-15.3-10.289-25.65-10.29-10.35-25.5-10.35-15.211 0-25.711 10.35-10.5 10.35-10.5 25.65v95.609q0 5.13 3.381 8.761 3.38 3.63 9.011 3.63Zm177.043 0h47.217q5.631 0 9.011-3.63 3.381-3.631 3.381-8.761V-588q0-15.3-10.289-25.65Q583.943-624 568.732-624q-15.21 0-25.71 10.35t-10.5 25.65v95.609q0 5.13 3.38 8.761 3.381 3.63 9.011 3.63Z"/></svg>