<svg xmlns="http://www.w3.org/2000/svg" height="24" viewBox="0 -960 960 960" width="24"><path d="M428.308-397.846 351-75.076Q349.539-68 343.808-64q-5.731 4-13.039 4-10 0-16.231-6.923-6.23-6.923-3.769-16.692l112.769-554.231-118.153 48v109.077q0 8.538-5.731 14.269t-14.269 5.731q-8.539 0-14.27-5.731t-5.731-14.269v-114.308q0-9.692 5.347-17.654 5.346-7.961 14.038-12.192l158-66.769q14-6 26.423-7.385 12.423-1.385 24.116 1.308Q505-695.077 514.423-688q9.423 7.077 16.654 18.769l27.692 44q16.847 26.923 37.039 48.769 20.192 21.847 42.961 37.923 18.616 13.385 39.462 21.808 20.846 8.423 43.231 12.962 8.307 1.461 13.423 7.577Q740-490.077 740-481.538q0 8.538-6.231 13.769-6.23 5.231-14.769 4-59.077-10.308-106.654-43.846-47.577-33.539-82.115-87.692l-36.539 182.999 77.385 81.077q4.462 5.231 6.692 10.808Q580-314.846 580-308.385V-80q0 8.538-5.731 14.27Q568.539-60 560-60t-14.269-5.73Q540-71.462 540-80v-214.615L428.308-397.846ZM540-752.308q-28.385 0-48.039-19.653-19.653-19.654-19.653-48.039t19.653-48.039q19.654-19.653 48.039-19.653t48.039 19.653q19.653 19.654 19.653 48.039t-19.653 48.039Q568.385-752.308 540-752.308Z"/></svg>