<svg xmlns="http://www.w3.org/2000/svg" height="20" viewBox="0 -960 960 960" width="20"><path d="m439-334-50.397 215.288Q384-102 370.284-91.5 356.569-81 338.897-81 316-81 301.5-98.5T291-140l80-411-54 25v58q0 21.3-14.789 36.15-14.79 14.85-36 14.85Q245-417 229.5-431.85T214-468v-88q0-18.929 10.453-33.58 10.453-14.652 27.527-22.206L419-678q13-5 24.5-6.5T467-686q29 0 50.5 13.5T555-637l11 13q11 17 22 34.5t28 33.5q12 12 27.5 20t41.5 12q22 4 36 19.289 14 15.29 14 36.5Q735-447 720-431.5T685-420q-48-6-88-23t-62-45l-12 75 50.077 50.811Q581-354 586-343t5 24v187q0 21.3-14.789 36.15-14.79 14.85-36 14.85Q519-81 504-95.85T489-132v-153l-50-49Zm100.752-377Q498-711 469.5-740.248q-28.5-29.248-28.5-71Q441-853 469.748-881.5q28.748-28.5 70.5-28.5Q582-910 611-881.252q29 28.748 29 70.5Q640-769 610.752-740q-29.248 29-71 29Z"/></svg>