<svg xmlns="http://www.w3.org/2000/svg" height="20" viewBox="0 -960 960 960" width="20"><path d="M476.887-240Q501-240 518.5-257.387q17.5-17.388 17.5-41.641 0-24.254-17.387-41.113Q501.225-357 477.113-357 453-357 435.5-340.254q-17.5 16.747-17.5 41Q418-275 435.387-257.5q17.388 17.5 41.5 17.5Zm3.389 178Q393-62 317.013-94.584q-75.988-32.583-132.917-89.512T94.584-316.971Q62-392.917 62-480.458 62-568 94.584-643.487q32.583-75.488 89.512-132.417t132.875-89.512Q392.917-898 480.458-898q87.542 0 163.029 32.584 75.488 32.583 132.417 89.512t89.512 132.641Q898-567.551 898-480.276q0 87.276-32.584 163.263-32.583 75.988-89.512 132.917T643.263-94.584Q567.551-62 480.276-62ZM480-180q126 0 213-87t87-213q0-126-87-213t-213-87q-126 0-213 87t-87 213q0 126 87 213t213 87Zm0-300Zm.225-151q17.248 0 30.012 11.634Q523-607.733 523-590.282 523-573 513.5-559T491-535q-23 20-41.5 46T432-432q0 17.394 12.81 28.197T474.7-393q18.3 0 31.3-11t20-28q7-18 17.5-31.344Q554-476.688 567-489q23-21 35.5-49.5T615-597q0-53-38-89t-91.409-36Q444-722 409-703.5q-35 18.5-59.16 52.767Q340-636 344.438-618.029 348.875-600.059 366-592q17 10 35.5 4.5T433-606q9-10 21.118-17.5 12.117-7.5 26.107-7.5Z"/></svg>