<svg xmlns="http://www.w3.org/2000/svg" height="24" viewBox="0 -960 960 960" width="24"><path d="M800-580q-8.539 0-14.269-5.731Q780-591.461 780-600t5.731-14.269Q791.461-620 800-620t14.269 5.731Q820-608.539 820-600t-5.731 14.269Q808.539-580 800-580ZM420-100V-272.46l-124 124L268.461-176 420-327.539V-420h-92.461L176-268.461 148.461-296l124-124H100v-40H272.46l-124-124L176-611.539 327.539-460H420v-92.461L268.461-704 296-731.539l124 124V-780h40v172.461l124-124L611.539-704 460-552.461V-460h320v40H607.539l124 124L704-268.461 552.461-420H460v92.461L611.539-176 584-148.461l-124-124V-100h-40Zm360-590.769V-860h40v169.231h-40Z"/></svg>