<svg xmlns="http://www.w3.org/2000/svg" height="20" viewBox="0 -960 960 960" width="20"><path d="M159.521-148.476q-36.928 0-63.225-26.385-26.297-26.384-26.297-63.435t26.297-63.138q26.297-26.087 63.225-26.087h640.958q36.928 0 63.225 26.384 26.297 26.385 26.297 63.436t-26.297 63.138q-26.297 26.087-63.225 26.087H159.521Zm0-484.003q-36.928 0-63.225-26.384-26.297-26.385-26.297-63.436t26.297-63.138q26.297-26.087 63.225-26.087h640.958q36.928 0 63.225 26.385 26.297 26.384 26.297 63.435t-26.297 63.138q-26.297 26.087-63.225 26.087H159.521Zm0 242.002q-36.928 0-63.225-26.385-26.297-26.385-26.297-63.435 0-37.051 26.297-63.138 26.297-26.088 63.225-26.088h640.958q36.928 0 63.225 26.385 26.297 26.385 26.297 63.435 0 37.051-26.297 63.138-26.297 26.088-63.225 26.088H159.521Zm48.79-291.002q17.133 0 28.933-11.59 11.8-11.589 11.8-28.722 0-17.132-11.59-28.932-11.589-11.8-28.722-11.8-17.132 0-28.932 11.589-11.8 11.59-11.8 28.722t11.59 28.933q11.589 11.8 28.721 11.8Zm0 242.001q17.133 0 28.933-11.59 11.8-11.589 11.8-28.721 0-17.133-11.59-28.933-11.589-11.8-28.722-11.8-17.132 0-28.932 11.59-11.8 11.589-11.8 28.721 0 17.133 11.59 28.933 11.589 11.8 28.721 11.8Zm0 242.001q17.133 0 28.933-11.589 11.8-11.59 11.8-28.722 0-17.133-11.59-28.933-11.589-11.8-28.722-11.8-17.132 0-28.932 11.59-11.8 11.589-11.8 28.722 0 17.132 11.59 28.932 11.589 11.8 28.721 11.8Z"/></svg>