<svg xmlns="http://www.w3.org/2000/svg" height="20" viewBox="0 -960 960 960" width="20"><path d="M184-214q-20.625 0-35.312-14.765Q134-243.531 134-264.266 134-285 148.688-299.5 163.375-314 184-314h592q20.625 0 35.312 14.766Q826-284.469 826-263.734 826-243 811.312-228.5 796.625-214 776-214H184Zm0-432q-20.625 0-35.312-14.766Q134-675.531 134-696.266 134-717 148.688-731.5 163.375-746 184-746h592q20.625 0 35.312 14.766Q826-716.469 826-695.734 826-675 811.312-660.5 796.625-646 776-646H184Zm0 216q-20.625 0-35.312-14.766Q134-459.531 134-480.266 134-501 148.688-515.5 163.375-530 184-530h592q20.625 0 35.312 14.766Q826-500.469 826-479.734 826-459 811.312-444.5 796.625-430 776-430H184Zm23.965-240q11.035 0 18.535-7.465t7.5-18.5q0-11.035-7.465-18.535t-18.5-7.5Q197-722 189.5-714.535t-7.5 18.5q0 11.035 7.465 18.535t18.5 7.5Zm0 216q11.035 0 18.535-7.465t7.5-18.5q0-11.035-7.465-18.535t-18.5-7.5Q197-506 189.5-498.535t-7.5 18.5q0 11.035 7.465 18.535t18.5 7.5Zm0 216q11.035 0 18.535-7.465t7.5-18.5q0-11.035-7.465-18.535t-18.5-7.5Q197-290 189.5-282.535t-7.5 18.5q0 11.035 7.465 18.535t18.5 7.5Z"/></svg>