<svg xmlns="http://www.w3.org/2000/svg" height="24" viewBox="0 -960 960 960" width="24"><path d="M191.521-116.476q-40.228 0-68.875-28.672-28.647-28.673-28.647-68.936 0-40.263 28.647-68.85 28.647-28.587 68.875-28.587h576.958q40.228 0 68.875 28.672t28.647 68.935q0 40.264-28.647 68.851-28.647 28.587-68.875 28.587H191.521Zm0-532.003q-40.228 0-68.875-28.672t-28.647-68.935q0-40.264 28.647-68.851 28.647-28.587 68.875-28.587h576.958q40.228 0 68.875 28.672 28.647 28.673 28.647 68.936 0 40.263-28.647 68.85-28.647 28.587-68.875 28.587H191.521Zm0 266.002q-40.228 0-68.875-28.673-28.647-28.672-28.647-68.935 0-40.263 28.647-68.85 28.647-28.588 68.875-28.588h576.958q40.228 0 68.875 28.673 28.647 28.672 28.647 68.935 0 40.263-28.647 68.85-28.647 28.588-68.875 28.588H191.521Zm53.001-319.002q18.922 0 31.722-12.8 12.8-12.801 12.8-31.722 0-18.922-12.8-31.722t-31.722-12.8q-18.922 0-31.722 12.8T200-746.001q0 18.921 12.8 31.722 12.8 12.8 31.722 12.8Zm0 266.001q18.922 0 31.722-12.8t12.8-31.722q0-18.922-12.8-31.722t-31.722-12.8q-18.922 0-31.722 12.8T200-480q0 18.922 12.8 31.722t31.722 12.8Zm0 266.001q18.922 0 31.722-12.8t12.8-31.722q0-18.922-12.8-31.722t-31.722-12.8q-18.922 0-31.722 12.8T200-213.999q0 18.922 12.8 31.722t31.722 12.8Z"/></svg>