<svg xmlns="http://www.w3.org/2000/svg" height="20" viewBox="0 -960 960 960" width="20"><path d="M180.308-208.923q-22.72 0-38.899-16.253-16.178-16.254-16.178-39.077 0-22.824 16.178-38.824 16.179-16 38.899-16h599.384q22.72 0 38.899 16.253 16.178 16.254 16.178 39.077 0 22.824-16.178 38.824-16.179 16-38.899 16H180.308Zm0-432q-22.72 0-38.899-16.253-16.178-16.254-16.178-39.077 0-22.824 16.178-38.824 16.179-16 38.899-16h599.384q22.72 0 38.899 16.253 16.178 16.254 16.178 39.077 0 22.824-16.178 38.824-16.179 16-38.899 16H180.308Zm0 216q-22.72 0-38.899-16.253-16.178-16.254-16.178-39.077 0-22.824 16.178-38.824 16.179-16 38.899-16h599.384q22.72 0 38.899 16.253 16.178 16.254 16.178 39.077 0 22.824-16.178 38.824-16.179 16-38.899 16H180.308Zm26.693-242.769q11.999 0 20.191-8.117 8.193-8.117 8.193-20.115 0-11.999-8.117-20.191-8.117-8.193-20.116-8.193-11.998 0-20.191 8.117-8.192 8.117-8.192 20.115 0 11.999 8.117 20.191 8.117 8.193 20.115 8.193Zm0 216q11.999 0 20.191-8.117 8.193-8.117 8.193-20.115 0-11.999-8.117-20.191-8.117-8.193-20.116-8.193-11.998 0-20.191 8.117-8.192 8.117-8.192 20.115 0 11.999 8.117 20.191 8.117 8.193 20.115 8.193Zm0 216q11.999 0 20.191-8.117 8.193-8.117 8.193-20.115 0-11.999-8.117-20.191-8.117-8.193-20.116-8.193-11.998 0-20.191 8.117-8.192 8.117-8.192 20.115 0 11.999 8.117 20.191 8.117 8.193 20.115 8.193Z"/></svg>