<svg xmlns="http://www.w3.org/2000/svg" height="20" viewBox="0 -960 960 960" width="20"><path d="M122-680v-76q0-4.25 2.825-7.125 2.824-2.875 7-2.875 4.175 0 7.175 2.875t3 7.125v76q0 4.25-2.825 7.125-2.824 2.875-7 2.875-4.175 0-7.175-2.875T122-680Zm0 476v-76q0-4.25 2.825-7.125 2.824-2.875 7-2.875 4.175 0 7.175 2.875t3 7.125v76q0 4.25-2.825 7.125-2.824 2.875-7 2.875-4.175 0-7.175-2.875T122-204Zm209-458-53 53q-2.667 3-6.333 3.5Q268-605 264-609t-4-7.167q0-3.166 4-6.833l54-53q3-3 6-3t7 4q4 4 4 6.5t-4 6.5Zm-13 378-54-54q-3-3-3-6t4-7q4-4 6.5-4t6.5 4l53 53q3 3 4 6.5t-3 7.5q-4 4-7.167 4-3.166 0-6.833-4Zm288-206-93-127q-3-3-1.5-7t4.5-7q3-3 7-1.5t7 4.5l97 136q5 7 .808 14.5Q623.617-470 616-470H347q-4.25 0-7.125-2.825-2.875-2.824-2.875-7 0-4.175 2.971-7.175t7.362-3H606Zm185.118 224q-9.118 0-15.618-6.417Q769-278.833 769-288v-384q0-9.167 6.382-15.583 6.383-6.417 15.5-6.417 9.118 0 15.618 6.417Q813-681.167 813-672v384q0 9.167-6.382 15.583-6.383 6.417-15.5 6.417ZM125-362v-20q40.425 0 69.212-28.907Q223-439.814 223-480.407t-28.788-69.187Q165.425-578.189 125-578.189V-598q50 0 84 34t34 84q0 50-34 84t-84 34Z"/></svg>