<svg xmlns="http://www.w3.org/2000/svg" height="20" viewBox="0 -960 960 960" width="20"><path d="M73-754v-48q0-24.3 17.29-41.65Q107.579-861 131.788-861 156-861 173.5-843.65T191-802v48q0 24.3-17.289 41.65-17.29 17.35-41.5 17.35Q108-695 90.5-712.35T73-754Zm0 596v-48q0-24.3 17.29-41.65Q107.579-265 131.788-265 156-265 173.5-247.65T191-206v48q0 24.3-17.289 41.65Q156.421-99 132.211-99 108-99 90.5-116.35T73-158Zm333-509-33 33q-17.667 18-41.833 18Q307-616 289-634t-18-42.167q0-24.166 18-41.833l34-33q18-18 41.5-17.5T406-750q18 18 18 41.5T406-667Zm-83 458-34-34q-18-18-17.5-41.5T290-326q18-18 41.5-18t41.5 18l33 33q18 18 18.5 42T407-209q-18 18-42.167 18-24.166 0-41.833-18Zm218-330-35-49q-15-19-10-43t24-39q19-15 43-10.5t39 23.5l116 161q17 24 4 49.5T681-421H405q-24.3 0-41.65-17.289-17.35-17.29-17.35-41.5Q346-504 363.446-521.5t41.887-17.5H541Zm332 322q-30 0-50.5-20.5T802-288v-384q0-30 20.5-50.5T873-743q30 0 50.5 20.5T944-672v384q0 30-20.5 50.5T873-217ZM73-313v-118q19.7 0 34.35-14.712 14.65-14.713 14.65-34.5 0-19.788-14.65-34.382Q92.7-529.189 73-529.189V-647q70 0 118.5 48.5T240-480q0 70-48.5 118.5T73-313Z"/></svg>