<svg xmlns="http://www.w3.org/2000/svg" height="24" viewBox="0 -960 960 960" width="24"><path d="M106-692v-68q0-5.95 4.035-9.975 4.035-4.025 10-4.025t9.965 4.025q4 4.025 4 9.975v68q0 5.95-4.035 9.975-4.035 4.025-10 4.025T110-682.025q-4-4.025-4-9.975Zm0 492v-68q0-5.95 4.035-9.975 4.035-4.025 10-4.025t9.965 4.025q4 4.025 4 9.975v68q0 5.95-4.035 9.975-4.035 4.025-10 4.025T110-190.025q-4-4.025-4-9.975Zm222-468-48 48q-4 4-9.5 4.5T260-620q-5-5-5-10t5-10l48-48q4-4 9.5-4.5T328-688q5 5 5 10t-5 10Zm-20 396-48-48q-4-4-4.5-9.5T260-340q5-5 10-5t10 5l48 48q4 4 4.5 9.5T328-272q-5 5-10 5t-10-5Zm304-222-79-106q-4-5-3-10.5t6-9.5q5-4 10.5-3t9.5 6l76 103q11 15 2.808 31.5Q626.617-466 608-466H335q-5.95 0-9.975-4.035-4.025-4.035-4.025-10t4.025-9.965q4.025-4 9.975-4h277Zm183.118 268Q781-226 771-235.917q-10-9.916-10-24.083v-440q0-14.167 9.882-24.083 9.883-9.917 24-9.917Q809-734 819-724.083q10 9.916 10 24.083v440q0 14.167-9.882 24.083-9.883 9.917-24 9.917ZM109-346v-28q43.725 0 74.863-31.195 31.137-31.194 31.137-75Q215-524 183.863-555 152.725-586 109-586v-28q56 0 95 39t39 95q0 56-39 95t-95 39Z"/></svg>