<svg xmlns="http://www.w3.org/2000/svg" height="24" viewBox="0 -960 960 960" width="24"><path d="M126.348-471.521q-18.522 0-24.936-17.24-6.413-17.239 7.414-29.065l300.217-269.652q14.956-13.826 33.413-20.587 18.457-6.761 37.544-6.761 19.087 0 37.544 6.478 18.457 6.478 33.413 20.305l80.564 72.825v-40.26q0-22.087 15.457-37.544 15.457-15.457 37.544-15.457h30.956q22.087 0 37.544 15.457 15.457 15.457 15.457 37.544v163.521l82.695 74.131q14.392 11.826 7.696 29.065-6.696 17.24-25.218 17.24h-48.87q-19.522 0-38.044-6.913-18.522-6.914-32.913-20.305L480-708.825 246.175-498.739q-14.391 13.391-32.913 20.305-18.522 6.913-38.044 6.913h-48.87Zm220.651 266.999v-160q0-22.087 15.457-37.544 15.457-15.457 37.544-15.457h160q22.087 0 37.544 15.457 15.457 15.457 15.457 37.544v160q0 22.087-15.457 37.544-15.457 15.457-37.544 15.457H400q-22.087 0-37.544-15.457-15.457-15.457-15.457-37.544Z"/></svg>