<svg xmlns="http://www.w3.org/2000/svg" height="24" viewBox="0 -960 960 960" width="24"><path d="M235-532q-5.25 0-7.125-5t2.125-8l210-189q7.975-8.25 18.487-11.625Q469-749 480-749q11 0 21.513 3.375Q512.025-742.25 520-734l112 102v-58q0-12.75 8.625-21.375T662-720q7.65 0 12.825 5.175Q680-709.65 680-702v112l50 45q4 3 2.125 8T725-532q-11.163 0-21.581-3.5Q693-539 685-547L480-732 275-547q-8 8-18.419 11.5Q246.163-532 235-532Zm161 290.323v-118.71q0-12.613 8.625-21.113T426-390h108q12.75 0 21.375 8.532Q564-372.935 564-360.323v118.71q0 12.613-8.625 21.113T534-212H426q-12.75 0-21.375-8.532Q396-229.065 396-241.677Z"/></svg>