<svg xmlns="http://www.w3.org/2000/svg" height="20" viewBox="0 -960 960 960" width="20"><path d="M480.494-62Q393.94-62 317.97-94.5t-133.47-90Q127-242 94.5-317.958 62-393.917 62-480.458 62-567 94.5-642.5t90-133q57.5-57.5 133.312-90Q393.624-898 480-898q38 0 77 7t75 22q22 8 28 31t-7 44q-13 22-38 29t-49-1q-20-7-42.159-10.5Q501.683-780 480-780q-124 0-212 88t-88 212q0 124 88 212t212 88q14 0 27.5-2t26.5-4q24-5 48 5.5t34 33.5q10 23-1 45t-33 27q-25 6-50 9.5T480.494-62ZM721-265h-61q-24.3 0-41.65-17.289-17.35-17.29-17.35-41.5Q601-348 618.35-365.5T660-383h61v-61q0-24.3 17.289-41.65 17.29-17.35 41.5-17.35Q804-503 821.5-485.65T839-444v61h61q24.3 0 41.65 17.289 17.35 17.29 17.35 41.5Q959-300 941.65-282.5T900-265h-61v61q0 24.3-17.289 41.65-17.29 17.35-41.5 17.35Q756-145 738.5-162.35T721-204v-61ZM423-445l357.287-357.315Q797-819 819-819t39 17q17 17 17 39.5t-16.679 39.18L464-329q-17.636 18-41.818 18T380-329l-95.352-95.352Q268-441 268-463.5q0-22.5 17-39.5t40-17q23 0 39.773 16.773L423-445Z"/></svg>