<svg xmlns="http://www.w3.org/2000/svg" height="20" viewBox="0 -960 960 960" width="20"><path d="M192.615-184q-24.315 0-40.465-16.15Q136-216.3 136-240.615v-382.77q0-24.315 16.15-40.465Q168.3-680 192.615-680H376v-47.597Q376-752 392.176-768q16.175-16 40.527-16h94.945Q552-784 568-767.85q16 16.15 16 40.465V-680h183.385q24.315 0 40.465 16.15Q824-647.7 824-623.385v382.77q0 24.315-16.15 40.465Q791.7-184 767.385-184h-574.77Zm0-32h574.77q9.23 0 16.923-7.692Q792-231.385 792-240.615v-382.77q0-9.23-7.692-16.923Q776.615-648 767.385-648h-574.77q-9.23 0-16.923 7.692Q168-632.615 168-623.385v382.77q0 9.23 7.692 16.923Q183.385-216 192.615-216ZM408-680h144v-47.385q0-9.231-7.692-16.923Q536.615-752 527.385-752h-94.77q-9.23 0-16.923 7.692Q408-736.616 408-727.385V-680ZM168-216v-432 432Zm357.692-216-81.846 81.846q-5.615 5.615-6 11.269-.385 5.654 6 12.039t11.654 6.385q5.269 0 11.654-6.385l85.676-85.677q8.555-8.554 8.555-19.659 0-11.105-8.693-19.433l-85.538-85.539q-5.615-5.615-10.769-6-5.154-.385-11.539 6t-6.385 11.654q0 5.269 6.385 11.654L525.692-432Z"/></svg>