<svg xmlns="http://www.w3.org/2000/svg" height="24" viewBox="0 -960 960 960" width="24"><path d="M166.783-100.782q-44.305 0-75.153-30.848-30.848-30.848-30.848-75.153v-417.39q0-44.305 30.848-75.153 30.848-30.848 75.153-30.848h135.694v-80q0-44.305 30.849-75.154 30.848-30.848 75.153-30.848h143.042q44.305 0 75.153 30.848 30.849 30.849 30.849 75.154v80h135.694q44.305 0 75.153 30.848 30.848 30.848 30.848 75.153v417.39q0 44.305-30.848 75.153-30.848 30.848-75.153 30.848H166.783Zm241.696-629.392h143.042v-80H408.479v80Zm73.303 314.696-73.173 73.174q-12.696 12.695-12.696 30.826 0 18.13 12.696 30.826 12.695 12.696 31.108 12.696t31.109-12.696l97.783-97.217q15.956-15.957 15.956-37.609t-15.956-37.609l-97.783-97.783Q458.13-563.565 440-563.565q-18.13 0-30.826 12.695-12.696 12.696-12.696 31.109 0 18.413 12.696 31.109l72.608 73.174Z"/></svg>