<svg xmlns="http://www.w3.org/2000/svg" height="24" viewBox="0 -960 960 960" width="24"><path d="M308.978-60.782q-86.674 0-147.718-60.98-61.044-60.98-61.044-147.498 0-86.957 60.98-147.718 60.98-60.761 147.499-60.761v96.957q-46.608 0-79.065 32.527-32.456 32.527-32.456 78.995 0 46.043 32.739 78.782t79.065 32.739q46.326 0 78.782-32.739 32.456-32.739 32.456-78.782h96.958q0 86.518-60.761 147.498-60.761 60.98-147.435 60.98ZM428.695-309.26q-44 0-68-37.5t-6-78.5l78.522-173.044h-89.304l-9.87 24.608q-6.13 15.696-21.418 23.479-15.289 7.782-31.669 2.782-19.261-5.565-28.109-23.609-8.848-18.043-1.282-36.739l9.173-22.521q11.261-27.522 34.022-42.001 22.761-14.478 51.849-14.478h204.608q51.218 0 75.566 38.196 24.347 38.196 3.521 84.283l-62.608 137.521h92.52q40.349 0 68.653 28.647 28.305 28.648 28.305 68.876v180q0 20.603-13.938 34.541-13.937 13.937-34.541 13.937-20.603 0-34.541-13.937-13.938-13.938-13.938-34.541v-160H428.695Zm215.827-393.566q-36.957 0-62.718-25.761-25.761-25.761-25.761-62.718 0-36.957 25.761-62.718 25.761-25.761 62.718-25.761 36.957 0 62.718 25.761 25.761 25.761 25.761 62.718 0 36.957-25.761 62.718-25.761 25.761-62.718 25.761Z"/></svg>