<svg xmlns="http://www.w3.org/2000/svg" height="24" viewBox="0 -960 960 960" width="24"><path d="M479.823-112Q455-112 437.5-129.625T420-172h120q0 25-17.677 42.5t-42.5 17.5ZM226-212q-5.95 0-9.975-4.035-4.025-4.035-4.025-10t4.025-9.965q4.025-4 9.975-4h46v-328q0-77 49.5-135T446-774v-20q0-14.167 9.882-24.083 9.883-9.917 24-9.917Q494-828 504-818.083q10 9.916 10 24.083v19.515q17 3.485 32.612 8.572Q562.224-760.826 576-753q-4.875 5.333-8.438 11.167Q564-736 560-730q-18-9-38.059-13.5Q501.882-748 480-748q-75 0-127.5 52.5T300-568v328h360v-143q7 3 13.667 6.03 6.666 3.031 14.333 4.97v132h46q5.95 0 9.975 4.035 4.025 4.035 4.025 10T743.975-216q-4.025 4-9.975 4H226Zm254-282Zm268-92H642q-5.95 0-9.975-4.035-4.025-4.035-4.025-10t4.025-9.965q4.025-4 9.975-4h106v-106q0-5.95 4.035-9.975 4.035-4.025 10-4.025t9.965 4.025q4 4.025 4 9.975v106h106q5.95 0 9.975 4.035 4.025 4.035 4.025 10T891.975-590q-4.025 4-9.975 4H776v106q0 5.95-4.035 9.975-4.035 4.025-10 4.025T752-470.025q-4-4.025-4-9.975v-106Z"/></svg>