<svg xmlns="http://www.w3.org/2000/svg" height="20" viewBox="0 -960 960 960" width="20"><path d="M479.611-128Q458-128 443-143.275 428-158.55 428-180h104q0 22-15.389 37-15.39 15-37 15ZM272-248v-288q0-81 53-140.5T458-745v-45q0-9.167 6.382-15.583 6.383-6.417 15.5-6.417 9.118 0 15.618 6.417Q502-799.167 502-790v44.515q25 3.485 47.112 12.572Q571.224-723.826 590-712q-9 20-13.5 40.942t-4.5 43.472q0 58.287 31 108.437Q634-469 688-444v196h18q4.25 0 7.125 2.825 2.875 2.824 2.875 7 0 4.175-2.869 7.175-2.87 3-7.112 3H254.292q-4.242 0-7.267-2.825-3.025-2.824-3.025-7 0-4.175 2.875-7.175t7.125-3h18Zm496-369H667q-2.975 0-4.988-2.018-2.012-2.017-2.012-5 0-2.982 2.012-4.982 2.013-2 4.988-2h101v-101q0-4.25 2.825-7.125 2.824-2.875 7-2.875 4.175 0 7.175 2.875t3 7.125v101h101q2.975 0 4.988 2.018 2.012 2.017 2.012 5 0 2.982-2.012 4.982-2.013 2-4.988 2H788v101q0 4.25-2.825 7.125-2.824 2.875-7 2.875-4.175 0-7.175-2.875T768-516v-101Z"/></svg>