<svg xmlns="http://www.w3.org/2000/svg" height="20" viewBox="0 -960 960 960" width="20"><path d="M674.211-340h-24q-4.161 0-7.186-2.825-3.025-2.824-3.025-7 0-4.175 2.814-7.175 2.815-3 6.975-3h24q4.161 0 7.186 2.825 3.025 2.824 3.025 7 0 4.175-2.814 7.175-2.815 3-6.975 3ZM722-458h-72q-4.25 0-7.125-2.825-2.875-2.824-2.875-7 0-4.175 2.875-7.175t7.125-3h72q4.25 0 7.125 2.825 2.875 2.824 2.875 7 0 4.175-2.875 7.175T722-458Zm48-118H650q-4.25 0-7.125-2.825-2.875-2.824-2.875-7 0-4.175 2.875-7.175t7.125-3h120q4.25 0 7.125 2.897 2.875 2.896 2.875 7 0 4.103-2.875 7.103T770-576ZM363-190q-9.176 0-16.505-5.569Q339.167-201.138 337-210l-19-98q-47-22-76.5-67.5T212-480q0-59 30-104.5t78-67.5l17-97q2.167-8.862 9.495-14.931Q353.824-770 363-770h74q9.176 0 16.505 6.069Q460.833-757.862 463-749l17 97q48 22 78 67.5T588-480q0 59-29.5 104.5T482-308l-19 98q-2.167 8.862-9.495 14.431Q446.176-190 437-190h-74Zm37.198-122Q470-312 519-361.198t49-119Q568-550 518.802-599t-119-49Q330-648 281-598.802t-49 119Q232-410 281.198-361t119 49ZM339-656q15-6 30.13-8.5 15.131-2.5 30.67-2.5 15.539 0 30.37 2.5Q445-662 460-656l-21-94h-78l-22 94Zm22 446h78l23-94q-15 6-30.527 8.5Q415.946-293 400-293q-16.339 0-31.17-2.5Q354-298 339-304l22 94Zm-22-540h121-121Zm22 540h-22 123-101Z"/></svg>