<svg xmlns="http://www.w3.org/2000/svg" height="20" viewBox="0 -960 960 960" width="20"><path d="M405.128-76.782q-25.13 0-48.826-9.565-23.695-9.565-41.261-27.696L123.212-310.452q-8.563-8.505-8.28-18.265.282-9.761 8.456-18.5l4.304-4.304q19.653-23.044 47.262-30.37 27.609-7.327 56.218 2.195l65.261 17.87V-684q0-18.126 12.55-30.737 12.551-12.611 30.587-12.611 18.037 0 30.798 12.611T383.129-684v379.783q0 19.826-16.661 32.457-16.661 12.63-35.687 5.369l-61.478-17.565 105.913 108.739q6.434 6.435 14.152 9.087 7.717 2.652 15.76 2.652H611.87q36.774 0 62.713-25.939t25.939-62.713v-197.522q0-18.127 12.55-30.738 12.551-12.611 30.588-12.611 18.036 0 30.797 12.611t12.761 30.738v197.522q0 73.392-50.978 124.37-50.978 50.978-124.37 50.978H405.128ZM474.267-589q18.037 0 30.798 12.611t12.761 30.738V-420q0 18.126-12.551 30.737-12.55 12.611-30.587 12.611t-30.798-12.611Q431.129-401.874 431.129-420v-125.652q0-18.127 12.551-30.738 12.55-12.611 30.587-12.611Zm134.696 48q18.037 0 30.798 12.586t12.761 30.675v77.477q0 18.089-12.55 30.85-12.551 12.761-30.588 12.761-18.036 0-30.797-12.586-12.761-12.585-12.761-30.674v-77.478q0-18.089 12.55-30.85 12.55-12.761 30.587-12.761Zm156.253-198.217q-46.608-61.652-120.173-94.348-73.565-32.695-159.652-32.695-98.912 0-182.434 43.87-83.522 43.869-130.783 117.173-10.956 14.392-25.62 24.37-14.663 9.978-32.166 9.978-14.258 0-20.454-13.466-6.196-13.467 1.63-27.404 54.479-101.783 158.806-162.326 104.326-60.544 231.021-60.544 101.305 0 187.174 38.522 85.87 38.521 142.305 108.695v-61.651q0-14.357 9.908-24.266 9.909-9.908 24.266-9.908 14.357 0 24.266 9.908 9.908 9.909 9.908 24.266v129.174q0 20.387-14.306 34.694-14.307 14.306-34.694 14.306H705.044q-14.357 0-24.266-9.908-9.908-9.909-9.908-24.266 0-14.357 9.908-24.266 9.909-9.908 24.266-9.908h60.172ZM540.348-294.913Z"/></svg>