<svg xmlns="http://www.w3.org/2000/svg" height="20" viewBox="0 -960 960 960" width="20"><path d="M443-136q-20.154 0-37.923-7.461-17.769-7.462-32.462-22.154L196.362-340.388q-6.593-6.919-6.401-15.15.193-8.231 8.116-14.616l3.692-3.692q7.077-6.308 15.077-7.731t17.77.5L356-353.615V-684q0-6.8 4.547-11.4 4.547-4.6 11.269-4.6 6.723 0 11.453 4.6Q388-690.8 388-684v336.846q0 13.154-11.041 22.347-11.04 9.192-23.959 4.961L228.539-352.23l165.615 164.845q10.077 10.077 22.719 14.731Q429.515-168 443-168h137q48.831 0 82.415-33.585Q696-235.169 696-284v-180q0-6.8 4.547-11.4 4.547-4.6 11.27-4.6 6.722 0 11.452 4.6Q728-470.8 728-464v180q0 62.308-42.846 105.154T580.152-136H443Zm41.893-440q6.722 0 11.453 4.6 4.731 4.6 4.731 11.4v140q0 6.8-4.547 11.4-4.547 4.6-11.27 4.6-6.722 0-11.452-4.6-4.731-4.6-4.731-11.4v-140q0-6.8 4.547-11.4 4.547-4.6 11.269-4.6Zm113.847 48q6.722 0 11.453 4.575 4.73 4.575 4.73 11.338v91.824q0 6.763-4.547 11.513T599.107-404q-6.722 0-11.453-4.575-4.731-4.575-4.731-11.337v-91.825q0-6.763 4.547-11.513 4.548-4.75 11.27-4.75ZM785-680q-61.538-74.385-138.731-111.885-77.192-37.5-166.577-37.5-94.769 0-177.577 43.462-82.807 43.461-131.654 116.154-4.692 4.846-9.908 9-5.217 4.154-11.894 4.154-4.352 0-5.39-5.382-1.038-5.381 3.192-10.542Q197.846-755.231 286.654-804q88.807-48.77 193.038-48.77 94.539 0 175.385 39.347 80.846 39.346 145.538 114.653v-113.538q0-5.067 3.303-8.379 3.303-3.313 8.354-3.313 5.051 0 8.39 3.313 3.338 3.312 3.338 8.379v127.385q0 12.031-8.138 20.169-8.139 8.139-20.169 8.139H668.308q-5.067 0-8.38-3.303-3.313-3.303-3.313-8.354 0-5.051 3.313-8.39 3.313-3.338 8.38-3.338H785ZM542.923-294.615Z"/></svg>