<svg xmlns="http://www.w3.org/2000/svg" height="20" viewBox="0 -960 960 960" width="20"><path d="M443-148q-19 0-35.5-7T377-176L199.824-351.234Q194.5-357 194.75-363.5T202-375l3-3q5-4 10-4.5t12 .5l135 30v-332q0-4.25 2.825-7.125 2.824-2.875 7-2.875 4.175 0 7.175 2.875t3 7.125v326q0 12-10.118 20.5Q361.765-329 350-333l-142-37 182 181q11 11 24.696 16 13.695 5 28.304 5h131q51.6 0 86.8-35.2Q696-238.4 696-290v-180q0-4.25 2.825-7.125 2.824-2.875 7-2.875 4.175 0 7.175 2.875t3 7.125v180q0 60-41 101t-100.803 41H443Zm39.825-428q4.175 0 7.175 2.875t3 7.125v146q0 4.25-2.825 7.125-2.824 2.875-7 2.875-4.175 0-7.175-2.875T473-420v-146q0-4.25 2.825-7.125 2.824-2.875 7-2.875Zm112 48q4.175 0 7.175 2.85t3 7.062v97.825q0 4.213-2.825 7.238-2.824 3.025-7 3.025-4.175 0-7.175-2.85t-3-7.062v-97.825q0-4.213 2.825-7.238 2.824-3.025 7-3.025ZM785-668q-65-76-141.5-113.5T479-819q-92 0-174 43T173-661q-4 3-7.739 6t-8.525 3Q154-652 154-656.227q0-4.228 4-7.773 53-79 138-125t183-46q92 0 171 39t146 115v-123q0-3.467 2.253-5.733 2.254-2.267 5.7-2.267 3.447 0 5.747 2.267 2.3 2.266 2.3 5.733v126q0 11.05-7.475 18.525Q797.05-652 786-652H660q-3.467 0-5.733-2.253-2.267-2.254-2.267-5.7 0-3.447 2.267-5.747 2.266-2.3 5.733-2.3h125ZM542-293Z"/></svg>