<svg xmlns="http://www.w3.org/2000/svg" height="20" viewBox="0 -960 960 960" width="20"><path d="M486-220.615q-61.231 0-106-32t-61.231-84.077l33.308-12.231q21.385 48.692 54.577 73.154 33.192 24.461 79.808 24.461 54.23 0 91.499-28.423 37.27-28.423 37.27-78.269 0-25.356-6.385-41.87-6.385-16.515-20.692-32.13h43q9.615 9.462 14.192 27.731Q649.923-386 649.923-359q0 60.462-45.846 99.423Q558.231-220.615 486-220.615ZM132-504q-6.839 0-11.419-4.52Q116-513.04 116-519.789q0-6.75 4.581-11.48Q125.161-536 132-536h696q6.839 0 11.419 4.52Q844-526.96 844-520.211q0 6.75-4.581 11.48Q834.839-504 828-504H132Zm348-240.308q51.692 0 82.539 17.385 30.846 17.384 56.846 57.154l-29.539 13.231Q572.692-685 542.577-700.807q-30.115-15.808-62.115-15.808-57.885 0-90.02 33.769-32.134 33.769-25.673 74.846h-34.692q-6.462-55.308 37.154-95.808 43.615-40.5 112.769-40.5Z"/></svg>