<svg xmlns="http://www.w3.org/2000/svg" height="20" viewBox="0 -960 960 960" width="20"><path d="M186-319h368v-100H240.656q-22.581 0-38.618 18Q186-383 186-358.356V-319Zm368 0v-100 100Zm313-412q24.3 0 41.65 17.289 17.35 17.29 17.35 41.5Q926-648 908.65-630.5T867-613q-10.2 0-17.1 7.188Q843-598.625 843-588v127q0 59.167-41.417 100.583Q760.167-319 701-319h-24v59q0 24.3-17.35 41.65Q642.3-201 618-201H121q-24.3 0-41.65-17.35Q62-235.7 62-260v-108q0-71 48.5-120T229-537h330v-41q-1-4.475-3.3-7.737Q553.4-589 550-589H373q-1.379 0-2.672.042-1.292.041-2.328.958-8 9.091-18.5 14.545Q339-568 325-568q-24.3 0-41.65-17.5Q266-603 266-627.65q0-11.6 5-22.475Q276-661 284-669q16-17 38.765-27.5Q345.529-707 372-707h179q52.083 0 88.542 38Q676-631 677-578v141h24q10.2 0 17.1-7.188Q725-451.375 725-462v-127q0-59.167 42-100.583Q809-731 867-731Z"/></svg>