<svg xmlns="http://www.w3.org/2000/svg" height="24" viewBox="0 -960 960 960" width="24"><path d="M173-303h386v-100H231q-23.925 0-40.962 16.5Q173-370 173-344v41Zm386 0v-100 100Zm332-452q26 0 44.5 18.5T954-692q0 26-18.5 44.5T891-629q-17 0-28.5 11.787Q851-605.425 851-588v119q0 69.167-48.417 117.583Q754.167-303 685-303v63q0 26-18.5 44.5T622-177H109q-26 0-44.5-18.5T46-240v-104q0-77 53.5-131T229-529h330v-33q0-11.475-7.188-19.237Q544.625-589 534-589H389q-4.522 0-8.761 1.5Q376-586 373-583q-8 9.091-20 14.545Q341-563 327-563q-26 0-44.5-18.5T264-626.35q0-12.4 5.5-24.025Q275-662 283-670q20-21 46.875-33T388-715h147q62.5 0 106.25 45T685-562v133q17 0 28.5-11.788Q725-452.575 725-470v-119q0-69.167 49-117.583Q823-755 891-755Z"/></svg>