<svg xmlns="http://www.w3.org/2000/svg" height="20" viewBox="0 -960 960 960" width="20"><path d="M798.308-656q6.8 0 11.4 4.547 4.6 4.547 4.6 11.269t-4.6 11.453q-4.6 4.731-11.4 4.731-19.681 0-32.994 13.054Q752-597.892 752-580v146.462q0 31.666-23.064 53.833-23.064 22.167-56.013 22.167h-26.307v25.231q0 12.03-8.139 20.169Q630.339-304 618.308-304H164.307q-12.03 0-20.169-8.138Q136-320.277 136-332.307v-54.77q0-48.577 34.692-82.442 34.692-33.866 85.462-33.866h358.461V-556q-1-17.692-14.026-30.846T568.308-600H417.846q-9.138 0-17.705 3.195-8.567 3.196-15.449 9.19-2.521 2.902-4.803 4.643-2.282 1.741-6.317 1.741-6.872 0-11.453-4.971-4.581-4.971-4.581-12.098 0-3.354 1.032-6.354 1.031-3 3.584-5.5 10.538-10.011 24.815-15.929Q401.245-632 417.846-632h150.462q32.66 0 54.984 22.166 22.324 22.167 23.324 53.834v166.461h26.307q19.431 0 33.254-13.053Q720-415.646 720-433.538V-580q0-31.667 22.615-53.834Q765.231-656 798.308-656Z"/></svg>