<svg xmlns="http://www.w3.org/2000/svg" height="20" viewBox="0 -960 960 960" width="20"><path d="M430.999-486.218v-390.783h98.002v390.783h-98.002ZM480-178.999q-137.348 0-234.283-96.32-96.935-96.319-96.935-233.887 0-80.778 34.782-151.33 34.783-70.552 97.348-112.291l67.958 68.523q-50.609 37-76.348 87.021-25.739 50.021-25.739 107.065 0 97.174 68.022 165.196Q382.826-277.001 480-277.001q97.174 0 165.195-68.605 68.022-68.605 68.022-166.612 0-59.929-27.087-110.138t-81.217-87.035l67.957-68.523q66.522 43.13 102.435 114.675 35.913 71.544 35.913 153.457 0 137.912-96.935 234.348Q617.348-178.999 480-178.999ZM315.772 0q-18.077 0-30.838-12.228t-12.761-30.305q0-18.076 12.551-30.837 12.55-12.761 30.626-12.761 18.077 0 30.516 12.55 12.438 12.55 12.438 30.627 0 18.077-12.228 30.515Q333.848 0 315.772 0Zm164.439 0q-17.472 0-29.95-12.228-12.479-12.228-12.479-30.305 0-18.076 12.268-30.837t30.022-12.761q17.754 0 30.233 12.55 12.478 12.55 12.478 30.627 0 18.077-12.24 30.515Q498.304 0 480.211 0Zm165.648 0q-18.076 0-30.554-12.228-12.479-12.228-12.479-30.305 0-18.076 12.228-30.837 12.229-12.761 30.305-12.761t30.555 12.55q12.478 12.55 12.478 30.627 0 18.077-12.228 30.515Q663.936 0 645.859 0Z"/></svg>