<svg xmlns="http://www.w3.org/2000/svg" height="24" viewBox="0 -960 960 960" width="24"><path d="M224.615-280Q197-280 178.5-298.5 160-317 160-344.615v-270.77Q160-643 178.5-661.5 197-680 224.615-680h510.77Q763-680 781.5-661.5 800-643 800-615.385v270.77Q800-317 781.5-298.5 763-280 735.385-280h-510.77Zm0-40h510.77q9.23 0 16.923-7.692Q760-335.385 760-344.615v-270.77q0-9.23-7.692-16.923Q744.615-640 735.385-640h-510.77q-9.23 0-16.923 7.692Q200-624.615 200-615.385v270.77q0 9.23 7.692 16.923Q215.385-320 224.615-320ZM200-320v-320 320Z"/></svg>