<svg xmlns="http://www.w3.org/2000/svg" height="24" viewBox="0 -960 960 960" width="24"><path d="M406-422q15.889 0 29.944-4Q450-430 464-436l169 168 54-54-169-168q7-12 10.5-26.5T532-548q0-51.63-36.978-88.315Q458.043-673 406-673q-14 0-25.9 2.912-11.9 2.912-23.1 8.088l80 81-64 64-82-81q-5 11-8 23.5t-3 26.5q0 52.043 36.978 89.022Q353.957-422 406-422Zm74.174 290Q408-132 344.442-159.391q-63.559-27.392-110.575-74.348-47.015-46.957-74.441-110.435Q132-407.652 132-479.826q0-72.174 27.391-135.732 27.392-63.559 74.348-110.574 46.957-47.016 110.435-74.442Q407.652-828 479.826-828q72.174 0 135.732 27.391 63.559 27.392 110.574 74.348 47.016 46.957 74.442 110.435Q828-552.348 828-480.174q0 72.174-27.391 135.732-27.392 63.559-74.348 110.575-46.957 47.015-110.435 74.441Q552.348-132 480.174-132ZM480-160q134 0 227-93t93-227q0-134-93-227t-227-93q-134 0-227 93t-93 227q0 134 93 227t227 93Zm0-320Z"/></svg>