<svg xmlns="http://www.w3.org/2000/svg" height="20" viewBox="0 -960 960 960" width="20"><path d="M405.636-442q14.253 0 27.808-3.5Q447-449 461-456l165 165 38-38-166-163.897q7-11.701 10.5-25.902T512-547q0-45.022-31.478-77.011Q449.043-656 403-656q-10.955 0-19.81 2.118-8.856 2.117-17.19 5.882l71 72-59 59-73-72q-3.588 8.134-5.794 17.59Q297-561.955 297-551q0 45.022 31.882 77.011Q360.764-442 405.636-442Zm74.814 294q-68.45 0-129.008-25.891-60.559-25.892-106.075-71.348-45.515-45.457-71.441-105.893Q148-411.569 148-480.284q0-68.716 25.891-128.774 25.892-60.059 71.348-105.574 45.457-45.516 105.893-71.442Q411.569-812 480.284-812q68.716 0 128.774 25.891 60.059 25.892 105.574 71.348 45.516 45.457 71.442 105.659Q812-548.899 812-480.45q0 68.45-25.891 129.008-25.892 60.559-71.348 106.075-45.457 45.515-105.659 71.441Q548.899-148 480.45-148Zm-.45-20q130 0 221-91t91-221q0-130-91-221t-221-91q-130 0-221 91t-91 221q0 130 91 221t221 91Zm0-312Z"/></svg>