<svg xmlns="http://www.w3.org/2000/svg" height="20" viewBox="0 -960 960 960" width="20"><path d="M406.679-429.609q10.647 0 21.527-1.261 10.881-1.26 21.881-5.782l147.239 147.478L668.674-361 521.435-508.136q3.522-9.984 5.282-20.565 1.761-10.582 1.761-21.342 0-51.109-35.358-87.272-35.359-36.163-87.077-36.163-14.672 0-29.943 4.303-15.27 4.304-27.926 11.371l82.608 82.608-47.652 47.892-82.608-82.609q-7.067 12.895-11.49 28.046t-4.423 29.824q0 50.695 35.762 86.565 35.763 35.869 86.308 35.869Zm73.597 341.74q-81.189 0-152.624-30.598t-125.011-84.174q-53.576-53.576-84.174-124.969-30.598-71.394-30.598-152.848 0-81.455 30.598-152.39 30.598-70.935 84.174-124.511 53.576-53.576 124.969-84.174 71.394-30.598 152.848-30.598 81.455 0 152.39 30.598 70.935 30.598 124.511 84.174 53.576 53.576 84.174 124.735 30.598 71.16 30.598 152.348 0 81.189-30.598 152.624t-84.174 125.011q-53.576 53.576-124.735 84.174-71.16 30.598-152.348 30.598Z"/></svg>