<svg xmlns="http://www.w3.org/2000/svg" height="24" viewBox="0 -960 960 960" width="24"><path d="M62.477-93.999v-754.48h435.046v160h400v331.305H800v-234.347H480v80h80v80h-80v80h80v80h-80v80h153.782v97.522H62.477ZM160-191.52h80v-80h-80v80Zm0-160h80v-80h-80v80Zm0-160h80v-80h-80v80Zm0-160h80v-80h-80v80Zm160 480h80v-80h-80v80Zm0-160h80v-80h-80v80Zm0-160h80v-80h-80v80Zm0-160h80v-80h-80v80ZM800-16.825v-85.652h-86.218v-89.044H800v-85.653h88.479v85.653h86.217v89.044h-86.217v85.652H800ZM640-431.52v-80h80v80h-80Zm0 160v-80h80v80h-80Z"/></svg>