<svg xmlns="http://www.w3.org/2000/svg" height="20" viewBox="0 -960 960 960" width="20"><path d="M78.477-117.999v-706.48h419.046v144h384v323.305H792v-234.347H480v80h72v72h-72v80h72v72h-72v80h161.782v89.522H78.477ZM168-207.521h72v-72h-72v72Zm0-152h72v-72h-72v72Zm0-152h72v-72h-72v72Zm0-152h72v-72h-72v72Zm168 456h72v-72h-72v72Zm0-152h72v-72h-72v72Zm0-152h72v-72h-72v72Zm0-152h72v-72h-72v72ZM792-48.825v-77.652h-78.218v-81.044H792v-77.653h80.479v77.653h78.217v81.044h-78.217v77.652H792ZM648-439.52v-72h72v72h-72Zm0 152v-72h72v72h-72Z"/></svg>