<svg xmlns="http://www.w3.org/2000/svg" height="24" viewBox="0 -960 960 960" width="24"><path d="M109.231-153.846v-680h360v160h381.538v332.307h-40v-292.307H469.231v120h95.384v40h-95.384v120h95.384v40h-95.384v120H660v40H109.231Zm40-40h120v-120h-120v120Zm0-160h120v-120h-120v120Zm0-160h120v-120h-120v120Zm0-160h120v-120h-120v120Zm160 480h120v-120h-120v120Zm0-160h120v-120h-120v120Zm0-160h120v-120h-120v120Zm0-160h120v-120h-120v120Zm501.538 600v-80h-80v-40h80v-80h40v80h80v40h-80v80h-40ZM660-473.846v-40h40v40h-40Zm0 160v-40h40v40h-40Z"/></svg>