<svg xmlns="http://www.w3.org/2000/svg" height="20" viewBox="0 -960 960 960" width="20"><path d="M698.308-242.308h43.384v-72h72v-43.384h-72v-72h-43.384v72h-72v43.384h72v72Zm21.466 78.307q-71.696 0-121.735-50.265-50.038-50.264-50.038-121.96t50.265-121.735q50.264-50.038 121.96-50.038t121.735 50.265q50.038 50.264 50.038 121.96t-50.265 121.735q-50.264 50.038-121.96 50.038Zm-507.773-96v-425.998L480-887.767l267.999 201.768v91.384q-7-.385-14-.577-6.999-.192-13.999-.192-108.386 0-183.885 75.499T460.616-336q0 19.622 2.961 38.426 2.962 18.804 8.115 37.573H212.001Z"/></svg>