<svg xmlns="http://www.w3.org/2000/svg" height="24" viewBox="0 -960 960 960" width="24"><path d="M684.738-191.521h56.958v-100h100v-56.958h-100v-100h-56.958v100h-100v56.958h100v100ZM713.217-120q-83 0-141.5-58.5t-58.5-141.5q0-83 58.5-141.5t141.5-58.5q83 0 141.5 58.5t58.5 141.5q0 83-58.5 141.5t-141.5 58.5Zm-572.435-60.782v-508.827L480-944.306l339.218 254.697v111.783q-25.087-11.087-51.87-16.63Q740.565-600 713.217-600q-117 0-198.5 81.5t-81.5 198.5q0 37.652 9.326 72.457 9.327 34.805 28.414 66.761H140.782Z"/></svg>