<svg xmlns="http://www.w3.org/2000/svg" height="20" viewBox="0 -960 960 960" width="20"><path d="M689.543-236.413h55.174v-72h72v-55.174h-72v-72h-55.174v72h-72v55.174h72v72ZM716.904-144q-79.774 0-135.774-56.226t-56-136Q525.13-416 581.357-472q56.226-56 136-56 79.773 0 135.773 56.226t56 136Q909.13-256 852.904-200t-136 56Zm-533.035-87.869v-468.196L480-922.283l296.131 222.218v109.369q-14.153-4.652-29.022-6.978Q732.239-600 717.13-600q-110.314 0-187.157 76.843Q453.13-446.314 453.13-336q0 27.783 5.696 53.62 5.696 25.837 16.848 50.511H183.869Z"/></svg>