<svg xmlns="http://www.w3.org/2000/svg" height="24" viewBox="0 -960 960 960" width="24"><path d="M524.615-547.692H422.308q-7.667 0-12.68 5.002-5.013 5.003-5.013 12.654t5.013 12.69q5.013 5.038 12.68 5.038h110q12.384 0 20.038-7.653Q560-527.615 560-540v-160q0-12.385-7.654-20.039-7.654-7.653-20.038-7.653h-110q-7.667 0-12.68 5.002-5.013 5.003-5.013 12.654t5.013 12.69q5.013 5.038 12.68 5.038h102.307v56.923H460q-6.154 0-10.769 4.616-4.616 4.615-4.616 10.769t4.616 10.769q4.615 4.616 10.769 4.616h64.615v56.923ZM224.615-160Q197-160 178.5-178.5 160-197 160-224.615v-510.77Q160-763 178.5-781.5 197-800 224.615-800h510.77Q763-800 781.5-781.5 800-763 800-735.385v510.77Q800-197 781.5-178.5 763-160 735.385-160h-510.77Zm63.077-252.308h64.616V-310q0 7.667 5.002 12.68 5.003 5.012 12.654 5.012t12.69-5.012q5.038-5.013 5.038-12.68v-102.308h64.616V-250q0 7.667 5.002 12.68 5.003 5.012 12.654 5.012t12.69-5.012q5.038-5.013 5.038-12.68v-170q0-12.385-7.653-20.039-7.654-7.653-20.039-7.653H280q-12.385 0-20.039 7.653-7.653 7.654-7.653 20.039v170q0 7.667 5.002 12.68 5.003 5.012 12.654 5.012t12.69-5.012q5.038-5.013 5.038-12.68v-162.308Zm300 120H680q12.385 0 20.039-7.653 7.653-7.654 7.653-20.039v-100q0-12.385-7.653-20.039-7.654-7.653-20.039-7.653H570q-7.667 0-12.68 5.012-5.012 5.013-5.012 12.68v180q0 7.667 5.002 12.68 5.003 5.012 12.654 5.012t12.69-5.012q5.038-5.013 5.038-12.68v-42.308Zm0-35.384v-84.616h84.616v84.616h-84.616Z"/></svg>