<svg xmlns="http://www.w3.org/2000/svg" height="24" viewBox="0 -960 960 960" width="24"><path d="M342.477-458.521q-20.391 0-34.435-13.937-14.043-13.938-14.043-34.541 0-20.604 13.937-34.541 13.938-13.938 34.541-13.938 20.392 0 34.718 13.938 14.326 13.937 14.326 34.541 0 20.603-14.326 34.541-14.326 13.937-34.718 13.937Zm275.046 0q-20.392 0-34.718-13.937-14.326-13.938-14.326-34.541 0-20.604 14.326-34.541 14.326-13.938 34.718-13.938 20.391 0 34.435 13.938 14.043 13.937 14.043 34.541 0 20.603-13.937 34.541-13.938 13.937-34.541 13.937Zm-426.002 400q-40.228 0-68.875-28.304-28.647-28.305-28.647-68.653v-143.043q0-23.391 10.065-43.587 10.065-20.196 29.935-34.457v-178.913q0-67.696 26.13-130.435 26.131-62.739 72.174-110.761 46.044-48.022 109.631-76.414Q405.521-901.479 480-901.479t138.066 28.391q63.587 28.392 109.631 76.414 46.043 48.022 72.174 110.761 26.13 62.739 26.13 130.435v178.913q19.305 14.261 29.652 34.457 10.348 20.196 10.348 43.587v143.043q0 40.348-28.647 68.653-28.647 28.304-68.875 28.304H191.521Zm0-240v143.043h70.956v-143.043h-70.956ZM360-155.478h71.521v-143.043H360v143.043Zm-128.479-240h200v-404.348q-81.478 15.13-140.739 82.761-59.261 67.63-59.261 161.587v160Zm296.958 0h200v-160q0-93.957-59.261-161.587-59.261-67.631-140.739-82.761v404.348Zm0 240H600v-143.043h-71.521v143.043Zm169.044 0h70.956v-143.043h-70.956v143.043Z"/></svg>