<svg xmlns="http://www.w3.org/2000/svg" height="20" viewBox="0 -960 960 960" width="20"><path d="M216-184q-13.2 0-22.6-9.4-9.4-9.4-9.4-22.6h32v32Zm-32-110v-72h32v72h-32Zm0-150v-72h32v72h-32Zm0-150v-72h32v72h-32Zm0-150q0-13.2 9.4-22.6 9.4-9.4 22.6-9.4v32h-32Zm110 560v-32h72v32h-72Zm0-560v-32h72v32h-72Zm150 560v-32h72v32h-72Zm0-560v-32h72v32h-72Zm150 560v-32h72v32h-72Zm0-560v-32h72v32h-72Zm150 560v-32h32q0 13.846-9.4 22.923Q757.2-184 744-184Zm0-110v-72h32v72h-32Zm0-150v-72h32v72h-32Zm0-150v-72h32v72h-32Zm0-150v-32q13.2 0 22.6 9.4 9.4 9.4 9.4 22.6h-32Z"/></svg>