<svg xmlns="http://www.w3.org/2000/svg" height="20" viewBox="0 -960 960 960" width="20"><path d="M218.261-124.782q-38.56 0-66.02-27.459-27.459-27.46-27.459-66.02h93.479v93.479Zm-93.479-171.479V-366h93.479v69.739h-93.479Zm0-147.739v-72h93.479v72h-93.479Zm0-150v-69.739h93.479V-594h-93.479Zm0-147.739q0-38.56 27.459-66.02 27.46-27.459 66.02-27.459v93.479h-93.479Zm171.479 616.957v-93.479H366v93.479h-69.739Zm0-616.957v-93.479H366v93.479h-69.739ZM444-124.782v-93.479h72v93.479h-72Zm0-616.957v-93.479h72v93.479h-72Zm150 616.957v-93.479h69.739v93.479H594Zm0-616.957v-93.479h69.739v93.479H594Zm147.739 616.957v-93.479h93.479q0 39.044-27.459 66.262-27.46 27.217-66.02 27.217Zm0-171.479V-366h93.479v69.739h-93.479Zm0-147.739v-72h93.479v72h-93.479Zm0-150v-69.739h93.479V-594h-93.479Zm0-147.739v-93.479q38.56 0 66.02 27.459 27.459 27.46 27.459 66.02h-93.479Z"/></svg>