<svg xmlns="http://www.w3.org/2000/svg" height="24" viewBox="0 -960 960 960" width="24"><path d="M204-86q-48.675 0-83.338-34.662Q86-155.325 86-204h118v118ZM86-284v-76h118v76H86Zm0-156v-80h118v80H86Zm0-160v-76h118v76H86Zm0-156q0-48.675 34.662-83.338Q155.325-874 204-874v118H86ZM284-86v-118h76v118h-76Zm0-670v-118h76v118h-76ZM440-86v-118h80v118h-80Zm0-670v-118h80v118h-80ZM600-86v-118h76v118h-76Zm0-670v-118h76v118h-76ZM756-86v-118h118q0 49-34.662 83.5Q804.675-86 756-86Zm0-198v-76h118v76H756Zm0-156v-80h118v80H756Zm0-160v-76h118v76H756Zm0-156v-118q48.675 0 83.338 34.662Q874-804.675 874-756H756Z"/></svg>