<svg xmlns="http://www.w3.org/2000/svg" height="20" viewBox="0 -960 960 960" width="20"><path d="M294-330h152q10 0 17-7t7-17v-30q0-10-7-17t-17-7H294q-10 0-17 7t-7 17v30q0 10 7 17t17 7Zm-11.027-251h167.838q4.189 0 8.189-3.857t4-8q0-4.143-3.892-8.143-3.892-4-8.081-4H283.189Q279-605 275-601.143t-4 8q0 4.143 3.892 8.143 3.892 4 8.081 4Zm0-73h167.838q4.189 0 8.189-3.857t4-8q0-4.143-3.892-8.143-3.892-4-8.081-4H283.189Q279-678 275-674.143t-4 8q0 4.143 3.892 8.143 3.892 4 8.081 4ZM572-546v-20h16q14 0 23-9t9-23v-52q0-14-9-23t-23-9h-16v-20h16q21.45 0 36.725 15.275Q640-671.45 640-650v16h116q4.25 0 7.125 2.825 2.875 2.824 2.875 7 0 4.175-2.875 7.175T756-614H640v16q0 21.45-15.275 36.725Q609.45-546 588-546h-16ZM438-428h-20v-86h102q14 0 23-9t9-23v-156q0-14-9-23t-23-9H260q-29.7 0-50.85 21.15Q188-691.7 188-662v76q0 29.7 21.15 50.85Q230.3-514 260-514h62v86h-20v-66h-42q-38.55 0-65.275-26.725Q168-547.45 168-586v-76q0-38.55 26.725-65.275Q221.45-754 260-754h260q21.45 0 36.725 15.275Q572-723.45 572-702v156q0 21.45-15.275 36.725Q541.45-494 520-494h-82v66ZM283-310q-13.75 0-23.375-9.625T250-343v-52q0-17.75 18.125-25.375T307-428h150q13.75 0 23.375 9.625T490-395v52q0 13.75-9.625 23.375T457-310H283Zm90-320Zm73 300H270h200-24Z"/></svg>