<svg xmlns="http://www.w3.org/2000/svg" height="20" viewBox="0 -960 960 960" width="20"><path d="M828.211-240Q813-240 802.5-250.35 792-260.7 792-276v-264q0-15.3 10.289-25.65 10.29-10.35 25.5-10.35Q843-576 853.5-565.65 864-555.3 864-540v264q0 15.3-10.289 25.65-10.29 10.35-25.5 10.35ZM828-96q-17 0-26.5-9.5T792-132q0-17 9.5-26.5T828-168q17 0 26.5 9.5T864-132q0 17-9.5 26.5T828-96Zm-348 0q-13.636 0-26.818-5Q440-106 429-117L117-429q-11-11-16-24.182-5-13.182-5-26.818 0-13.636 5-26.818Q106-520 117-531l312-312q11-11 24.182-16 13.182-5 26.818-5 13.636 0 26.818 5Q520-854 531-843l189 189v136L480-758 202-480l278 278 240-240v136L531-117q-11 11-24.182 16-13.182 5-26.818 5Zm-25-241L337-455q-11-10.636-11-24.818Q326-494 337-505l118-118q10.636-11 24.818-11Q494-634 505-623l118 118q11 10.636 11 24.818Q634-466 623-455L505-337q-10.636 11-24.818 11Q466-326 455-337Z"/></svg>