<svg xmlns="http://www.w3.org/2000/svg" height="24" viewBox="0 -960 960 960" width="24"><path d="M254-136v-244h-30q-12.75 0-21.375-8.625T194-410v-190q0-23 15.5-38.5T248-654h104q23 0 38.5 15.5T406-600v190q0 12.75-8.625 21.375T376-380h-30v244q0 12.75-8.625 21.375T316-106h-32q-12.75 0-21.375-8.625T254-136Zm46-560q-27 0-45.5-18.5T236-760q0-27 18.5-45.5T300-824q27 0 45.5 18.5T364-760q0 27-18.5 45.5T300-696Zm326 560v-184h-52q-14 0-23.5-11.5T545-357l65-261q5.02-17.333 18.51-26.667Q642-654 660-654t31.49 9.333Q704.98-635.333 710-618l65 261q4 14-5.5 25.5T746-320h-52v184q0 12.75-8.625 21.375T664-106h-8q-12.75 0-21.375-8.625T626-136Zm34-560q-27 0-45.5-18.5T596-760q0-27 18.5-45.5T660-824q27 0 45.5 18.5T724-760q0 27-18.5 45.5T660-696Z"/></svg>