<svg xmlns="http://www.w3.org/2000/svg" height="20" viewBox="0 -960 960 960" width="20"><path d="M198.477-136.522V-384h-24.695q-19.822 0-33.563-13.741-13.742-13.742-13.742-33.564V-576q0-29.7 21.15-50.85 21.15-21.15 50.85-21.15H360q29.7 0 50.85 21.15Q432-605.7 432-576v144.939q0 19.278-13.741 33.17Q404.517-384 384.695-384H360v247.478q0 20.387-14.282 34.694-14.281 14.307-34.631 14.307h-63.346q-20.35 0-34.807-14.307t-14.457-34.694Zm80.796-550.999q-38.708 0-65.752-27.009-27.044-27.009-27.044-65.718t27.292-65.47q27.291-26.761 66-26.761t65.47 27.009Q372-818.461 372-779.752t-27.009 65.47q-27.009 26.761-65.718 26.761ZM600-136.522v-133.955h-55.304q-25.783 0-40.522-20.37-14.739-20.37-6.478-43.588L585-595.782q8.13-22.261 27.591-37.24Q632.052-648 656.479-648q24.426 0 44.17 14.978 19.743 14.979 27.874 37.24l87.304 261.347q8.261 23.218-6.478 43.588-14.74 20.37-40.523 20.37h-55.303v133.955q0 20.387-14.307 34.694-14.307 14.307-34.694 14.307h-15.521q-20.388 0-34.694-14.307Q600-116.135 600-136.522Zm56.231-550.999q-38.709 0-65.47-27.009Q564-741.539 564-780.248t27.009-65.47q27.009-26.761 65.718-26.761 38.708 0 65.752 27.009 27.044 27.009 27.044 65.718t-27.292 65.47q-27.291 26.761-66 26.761Z"/></svg>