<svg xmlns="http://www.w3.org/2000/svg" height="24" viewBox="0 -960 960 960" width="24"><path d="M803-254H545q-4.966 0-8.483-3.4-3.517-3.4-3.517-8.2v-17.2q0-1.2 3-8.2l165-169q35-37 51.5-61.5T769-576q0-45-30-73.5T659-678q-32 0-56.5 12.5T562-630q-3.659 4.667-9.329 6.333-5.671 1.667-10.359-.179Q537-626 535-631.5t1-10.5q20-29 49.697-46.5Q615.394-706 659-706q63 0 100.5 38t37.5 92q0 36.302-18.5 66.151Q760-480 723-442L569-284v2h234q5.95 0 9.975 4.035 4.025 4.035 4.025 10T812.975-258q-4.025 4-9.975 4ZM263-432H157q-5.95 0-9.975-4.035-4.025-4.035-4.025-10t4.025-9.965q4.025-4 9.975-4h106v-106q0-5.95 4.035-9.975 4.035-4.025 10-4.025t9.965 4.025q4 4.025 4 9.975v106h106q5.95 0 9.975 4.035 4.025 4.035 4.025 10T406.975-436q-4.025 4-9.975 4H291v106q0 5.95-4.035 9.975-4.035 4.025-10 4.025T267-316.025q-4-4.025-4-9.975v-106Z"/></svg>