<svg xmlns="http://www.w3.org/2000/svg" height="20" viewBox="0 -960 960 960" width="20"><path d="m777.044-78.13-69.174-68.608q-51.261 33.695-108.824 51.826-57.564 18.13-118.986 18.13-83.958 0-157.154-31.46-73.197-31.46-128.2-86.464-55.004-55.003-86.464-128.2-31.46-73.196-31.46-157.154 0-61.422 18.13-118.986 18.131-57.563 51.826-108.824L87.174-768l56.652-56.652 689.87 689.87-56.652 56.652ZM480.11-174.783q41.629 0 81.216-11.869 39.587-11.87 75.891-31.739L479.391-376.217l-52.087 51.522-144.478-144.479 58.913-59.478 78.217 78.217-6.826 7.391-194.739-194.738q-19.869 36.304-31.739 75.85-11.869 39.547-11.869 81.822 0 127.46 89.213 216.394 89.212 88.933 216.114 88.933Zm339.369-87.521-72.783-71.219q17.953-34.418 28.237-71.274 10.284-36.855 10.284-75.093 0-127.46-89.213-216.394-89.212-88.933-216.114-88.933-38.238 0-75.093 10.284-36.856 10.284-71.274 28.237l-71.219-72.783q48.37-30.922 103.798-47.331 55.428-16.408 114.164-16.408 83.801 0 156.913 31.46 73.112 31.46 128.115 86.464 55.004 55.003 86.464 128.115 31.46 73.112 31.46 156.913 0 58.736-16.408 114.164-16.409 55.428-47.331 103.798ZM591.131-488.522l-65.261-66.827 81.651-81.652 66.262 65.827-82.652 82.652Zm-54.522-56.087ZM418.304-418.304Z"/></svg>