<svg xmlns="http://www.w3.org/2000/svg" height="20" viewBox="0 -960 960 960" width="20"><path d="m784-69-67-66q-53 35-112.92 54T480.105-62q-87.481 0-163.28-32.584-75.8-32.583-132.729-89.512-56.929-56.929-89.512-132.729Q62-392.624 62-480.105q0-64.055 19-123.975Q100-664 135-717l-50-51 61-61 699 699-61 61ZM480.11-180q39.89 0 78.39-11t73.5-30L482-371l-56 55-151-151 65-66 73 73-9 10-183-183q-19 35-30 73.429-11 38.428-11 79.461 0 125.721 87.688 212.915Q355.377-180 480.11-180ZM836-261l-88-86q14.841-31.664 23.42-65.332Q780-446 780-479.89q0-125.721-87.688-212.915Q604.623-780 479.89-780q-33.89 0-67.558 8.58Q378.664-762.841 347-748l-86-88q48.655-30.092 104.411-46.046Q421.168-898 480.266-898q87.279 0 162.994 32.584 75.715 32.583 132.644 89.512t89.512 132.644Q898-567.545 898-480.266q0 59.098-15.954 114.855Q866.092-309.655 836-261ZM602-492l-77-79 76-76 78 78-77 77Zm-58-60ZM417-417Z"/></svg>