<svg xmlns="http://www.w3.org/2000/svg" height="24" viewBox="0 -960 960 960" width="24"><path d="M822.826-22.978 706.022-139.543q-48.957 32.717-105.772 50.195Q543.435-71.869 480-71.869q-84.913 0-159.348-32.098-74.435-32.098-129.511-87.174-55.076-55.076-87.174-129.511Q71.869-395.087 71.869-480q0-63.435 17.479-120.25 17.478-56.815 50.195-105.772L25.804-820l59.392-59.391L882.218-82.37l-59.392 59.392Zm1.261-236.305-216.109-216.63L708.87-576.804 646.413-639.5 545.522-537.848 259.283-824.087q48.239-30.522 103.858-47.283 55.62-16.761 116.859-16.761 84.913 0 159.348 32.098 74.435 32.098 129.511 87.174 55.076 55.076 87.174 129.511Q888.131-564.913 888.131-480q0 61.239-16.761 116.859-16.761 55.619-47.283 103.858Zm-400.804-31.934 65.913-66.153-62.457-62.456-6.565 6.565-111.131-111.13-59.347 59.587 173.587 173.587Z"/></svg>