<svg xmlns="http://www.w3.org/2000/svg" height="24" viewBox="0 -960 960 960" width="24"><path d="M835-7 722-119q-52 35-112.92 54T480.105-46Q389-46 310.013-80.084q-78.988-34.083-137.417-92.512T80.084-310.013Q46-389 46-480.105q0-68.055 19-128.975Q84-670 119-722l-97-98 67-67L902-74 835-7ZM480-172q41 0 79-10t71-29L493-348l-72 72-185-185 70-71 102 102 2-2-199-199q-19 33-29 70.929-10 37.928-10 80.071 0 129 89.994 218.5Q351.987-172 480-172Zm373-85-94-93q13.841-28.664 21.42-61.832Q788-445 788-480q0-129-89.994-218.5Q608.013-788 480-788q-35 0-68.168 7.58Q378.664-772.841 350-759l-93-94q48.655-29.092 104.911-45.046Q418.168-914 480-914q91 0 169.987 34.084 78.988 34.083 137.417 92.512t92.512 137.417Q914-571 914-480q0 61.832-15.954 118.089Q882.092-305.655 853-257ZM627-482l-83-84 91-91 83 84-91 91Zm-72-73ZM421-421Z"/></svg>