<svg xmlns="http://www.w3.org/2000/svg" height="20" viewBox="0 -960 960 960" width="20"><path d="M416.766-338Q393-338 375.5-355.289q-17.5-17.29-17.5-41.5Q358-421 375.35-438.5T417-456h79.234Q520-456 537.5-438.711q17.5 17.29 17.5 41.5Q555-373 537.65-355.5T496-338h-79.234Zm268 0Q661-338 644-355.289q-17-17.29-17-41.5Q627-421 644.35-438.5T686-456h85.234Q795-456 812.5-438.711q17.5 17.29 17.5 41.5Q830-373 812.65-355.5T771-338h-86.234Zm-469 0Q192-338 175-355.289q-17-17.29-17-41.5Q158-421 175.35-438.5T217-456h78.234Q319-456 336.5-438.711q17.5 17.29 17.5 41.5Q354-373 336.65-355.5T295-338h-79.234ZM169-528q-24 0-41.5-17.289-17.5-17.29-17.5-41.5Q110-611 127.35-628.5T169-646h622q24 0 41.5 17.289 17.5 17.29 17.5 41.5Q850-563 832.65-545.5T791-528H169Z"/></svg>