<svg xmlns="http://www.w3.org/2000/svg" height="20" viewBox="0 -960 960 960" width="20"><path d="M421.549-357.999q-19.854 0-34.311-14.246-14.456-14.246-14.456-34.544 0-20.298 14.306-34.754Q401.395-456 421.782-456h90.103q19.853 0 34.31 14.246t14.457 34.544q0 20.298-14.307 34.755-14.307 14.456-34.694 14.456h-90.102Zm259.305 0q-19.854 0-34.028-14.246t-14.174-34.544q0-20.298 14.306-34.754Q661.265-456 681.652-456h93.494q19.854 0 34.311 14.246 14.456 14.246 14.456 34.544 0 20.298-14.306 34.755-14.307 14.456-34.694 14.456h-94.059Zm-480.739 0q-19.853 0-34.027-14.246-14.175-14.246-14.175-34.544 0-20.298 14.307-34.754Q180.527-456 200.914-456h89.537q19.854 0 34.311 14.246 14.456 14.246 14.456 34.544 0 20.298-14.306 34.755-14.307 14.456-34.694 14.456h-90.103ZM173.782-528q-20.087 0-34.544-14.246-14.456-14.246-14.456-34.544 0-20.298 14.306-34.755 14.307-14.456 34.694-14.456h612.436q20.087 0 34.544 14.246 14.456 14.246 14.456 34.544 0 20.298-14.306 34.754Q806.605-528 786.218-528H173.782Z"/></svg>