<svg xmlns="http://www.w3.org/2000/svg" height="24" viewBox="0 -960 960 960" width="24"><path d="M534-146q-5.95 0-9.975-4.035-4.025-4.035-4.025-10t4.025-9.965q4.025-4 9.975-4h240q5.95 0 9.975 4.035 4.025 4.035 4.025 10T783.975-150q-4.025 4-9.975 4H534ZM242-588h154v-140q0-14-9-23t-23-9h-26q-10 0-17.5 5T309-741l-67 153Zm411.965 334Q648-254 644-258.025T640-268v-368q0-27-19.5-46.5T574-702H424v112q0 12.75-8.625 21.375T394-560H245q-17 0-25.5-13.5T218-602l65-150q8-17 22.548-26.5Q320.095-788 338-788h26q24.337 0 41.669 17Q423-754 424-730h150q39.167 0 66.583 27.417Q668-675.167 668-636v368q0 5.95-4.035 9.975-4.035 4.025-10 4.025ZM242-588h154-154Z"/></svg>