<svg xmlns="http://www.w3.org/2000/svg" height="24" viewBox="0 -960 960 960" width="24"><path d="M587.692-300q13.923 0 23.116-9.192Q620-318.385 620-332.308v-295.384q0-13.923-9.192-23.116Q601.615-660 587.692-660H372.308q-13.923 0-23.116 9.192Q340-641.615 340-627.692v295.384q0 13.923 9.192 23.116Q358.385-300 372.308-300h215.384ZM380-340v-280h200v280H380ZM224.615-160Q197-160 178.5-178.5 160-197 160-224.615v-510.77Q160-763 178.5-781.5 197-800 224.615-800h510.77Q763-800 781.5-781.5 800-763 800-735.385v510.77Q800-197 781.5-178.5 763-160 735.385-160h-510.77Zm0-40h510.77q9.23 0 16.923-7.692Q760-215.385 760-224.615v-510.77q0-9.23-7.692-16.923Q744.615-760 735.385-760h-510.77q-9.23 0-16.923 7.692Q200-744.615 200-735.385v510.77q0 9.23 7.692 16.923Q215.385-200 224.615-200ZM200-760v560-560Zm280 272.308q13.923 0 23.115-9.193 9.193-9.192 9.193-23.115 0-13.923-9.193-23.115-9.192-9.193-23.115-9.193-13.923 0-23.115 9.193-9.193 9.192-9.193 23.115 0 13.923 9.193 23.115 9.192 9.193 23.115 9.193Z"/></svg>