<svg xmlns="http://www.w3.org/2000/svg" height="24" viewBox="0 -960 960 960" width="24"><path d="M659.784-69.651q-38.435 0-73.935-10.87t-65.065-30.739l-25.652 25.652Q480.175-70.65 458.088-70.65q-22.087 0-37.044-14.957-14.957-14.957-14.957-37.044 0-22.087 14.957-37.044l25.652-25.652q-19.87-29.565-30.739-65.065-10.87-35.5-10.87-73.935 0-106.217 74.24-180.674 74.239-74.457 180.408-74.022H913.48v254.763q.87 106.151-73.305 180.391-74.174 74.239-180.391 74.239Zm-98.956-155.74q14.956 14.956 37.044 14.956 22.087 0 37.043-14.956l61.913-61.913q14.956-14.956 14.956-37.044 0-22.087-14.956-37.043-14.957-14.957-37.044-14.957-22.088 0-37.044 14.957l-61.912 61.912q-14.957 14.956-14.957 37.044 0 22.087 14.957 37.044ZM206.434-423.433q-66.43 0-113.39-46.96-46.959-46.959-46.959-113.389v-160.349h160.349q66.43 0 113.39 46.959 46.959 46.959 46.959 113.39v160.349H206.434Zm216.043-253.001v-120.349q0-50.546 34.902-85.448 34.901-34.901 85.447-34.901h120.349v120.349q0 50.547-34.901 85.448-34.901 34.901-85.448 34.901H422.477Z"/></svg>