<svg xmlns="http://www.w3.org/2000/svg" height="24" viewBox="0 -960 960 960" width="24"><path d="M487.692-649.231v-60q0-25.2 17.4-42.6 17.4-17.401 42.6-17.401h60.001v60.001q0 25.2-17.401 42.6-17.4 17.4-42.6 17.4h-60Zm-195.68 200q-41.551 0-70.628-29.077-29.077-29.077-29.077-70.628v-100.295h100.296q41.551 0 70.627 29.077 29.077 29.077 29.077 70.628v100.295H292.012ZM640-130q-35.727 0-68.248-12-32.521-12-58.444-33l-59.154 59.154q-5.359 5.615-13.641 5.615t-14.667-5.615q-5.615-6.385-5.615-14.667t5.615-13.641L485-203.308q-21-25.923-33-58.444T440-330q0-83.083 58.461-141.657Q556.923-530.231 640.132-530H839v199.819q.462 83.258-57.887 141.72Q722.764-130 640-130Zm0-40q67 0 114-47t45-113v-160H640q-66-1-113 46t-47 114q0 27.615 8.962 52.731 8.961 25.115 24.576 45.423l112.308-112.308q6.385-6.385 14.667-6.385t13.641 6.385q6.385 5.359 6.385 13.641t-6.385 14.667L541.846-203.538q20.308 15.615 45.243 24.576Q612.024-170 640-170Zm1-161Z"/></svg>