<svg xmlns="http://www.w3.org/2000/svg" height="20" viewBox="0 -960 960 960" width="20"><path d="M648-148q-28.745 0-56.873-10.5Q563-169 539-189l-64 64q-2.667 3-5.833 3-3.167 0-8.167-3-3-5-3-8.167 0-3.166 3-6.833l63-64q-20-23-30-51.127-10-28.128-10-56.873 0-69.008 48.132-116.504Q580.263-476 648.622-476H812v163.765Q810-244 763.297-196 716.593-148 648-148Zm-79-85.5q5 4.5 7 3t7-6.5l58-58q5-5 5.5-7t-3.5-6q-5-5-7-5t-7 5l-60 60q-5 5-5 7.5t5 7ZM333.616-431q-38.273 0-64.945-26.671Q242-484.343 242-522.616V-615h92.384q38.273 0 64.945 26.671Q426-561.657 426-523.384V-431h-92.384ZM494-619v-44.479q0-18.681 12.76-31.101Q519.52-707 538-707h44v44q0 18.48-12.42 31.24Q557.16-619 538.479-619H494Z"/></svg>