<svg xmlns="http://www.w3.org/2000/svg" height="20" viewBox="0 -960 960 960" width="20"><path d="M470.252-422v98q0 4.25 2.909 7.125t7.108 2.875q4.199 0 7.004-2.875 2.805-2.875 2.805-7.125v-98h97.688q4.184 0 7.209-2.825 3.025-2.824 3.025-7 0-4.175-2.875-7.049-2.875-2.874-7.125-2.874h-98v-98.168q0-4.286-2.885-7.185t-7.15-2.899q-4.265 0-7.115 2.899-2.85 2.899-2.85 7.185v98.168h-98q-4.25 0-7.125 2.909T362-431.965q0 4.265 2.899 7.115 2.899 2.85 7.185 2.85h98.168Zm9.805 274q-59.057 0-110.69-22.1-51.634-22.1-90.4-60.867Q240.2-269.733 218.1-321.31 196-372.886 196-431.943q0-59.057 22.1-110.69 22.1-51.634 60.867-90.4Q317.733-671.8 369.31-693.9 420.886-716 479.943-716q59.057 0 110.69 22.1 51.634 22.1 90.4 60.867Q719.8-594.267 741.9-542.69 764-491.114 764-432.057q0 59.057-22.1 110.69-22.1 51.634-60.867 90.4Q642.267-192.2 590.69-170.1 539.114-148 480.057-148ZM131-652q-5-5-5-7.5t5-7.5l115-115q4-4 7-4.5t8 4.5q5 5 5 7.5t-5 7.5L145-651q-4 4-6.5 4t-7.5-5Zm699 0q-5 5-7.5 5t-7.5-5L700-767q-4-4-4.5-7t4.5-8q5-5 7.5-5t7.5 5l115 116q4 4 4.5 6.5T830-652Z"/></svg>