<svg xmlns="http://www.w3.org/2000/svg" height="24" viewBox="0 -960 960 960" width="24"><path d="M323-145v2q0 32.5-22.75 55.25T245-65q-32 0-55.5-23.5T166-144v-64q-18-23.188-29-51.594Q126-288 126-319v-396l-71-72q-14-14.133-14-33.567Q41-840 55.105-854t33.5-14Q108-868 122-854l747 747q14 14.182 14 33.09Q883-55 868.895-41q-14.106 14-33.5 14Q816-27 802-41L661-181h134v37q0 32.603-23.198 55.802Q748.603-65 716-65q-32.603 0-55.802-23.198Q637-111.397 637-144v-1H323Zm506-136L571-539h137v-120H451L240-870q43-17 102.5-26t137.5-9q190.275 0 272.138 44.862Q834-815.275 834-711v392q0 9.852-1.364 19.352-1.363 9.5-3.636 18.648Zm-483-24q25 0 42.5-17.5T406-365q0-25-17.5-42.5T346-425q-25 0-42.5 17.5T286-365q0 25 17.5 42.5T346-305Zm-94-234h51l-51-50v50Z"/></svg>