<svg xmlns="http://www.w3.org/2000/svg" height="20" viewBox="0 -960 960 960" width="20"><path d="M326.769-256v59.385q0 5.256-3.706 8.936-3.706 3.679-9 3.679-5.294 0-8.909-3.679-3.616-3.68-3.616-8.936v-70.231Q277-272.308 254.5-303.385q-22.5-31.076-22.5-72v-306.769l-82.385-82.384q-4.846-4.513-5.231-10.718-.384-6.206 5.231-11.821 5.616-5.615 11.436-5.615 5.821 0 11.103 5.615l632.615 632.615q4.846 4.483 5.231 10.588.385 6.105-5.231 11.72-5.615 5.616-11.436 5.616-5.82 0-11.102-5.616l-173.462-173.23h45.078v111.076q0 4.254-3.102 7.281-3.103 3.027-7.462 3.027-4.36 0-7.206-3.027t-2.846-7.281V-256H326.769ZM336-288h290.154l-192-192H264v120q0 29.7 21.15 50.85Q306.3-288 336-288Zm385.616-50.077L696-363.692V-480H579.692l-32-32H696v-178.461H369.231l-32-32.001h365.538q-7.384-39.846-64.615-54.692Q580.923-792 478.462-792q-62.924 0-107.193 4.731T292.692-767l-22.231-21.231q33.47-19.385 82.442-27.577Q401.874-824 480-824q142.5 0 195.25 25.75T728-720v344.615q0 6.273-1.346 13.713-1.346 7.441-5.038 23.595Zm-361.435-13.308q13.665 0 23.05-9.565 9.384-9.566 9.384-23.231 0-13.665-9.565-23.05-9.566-9.384-23.231-9.384-13.665 0-23.05 9.565-9.384 9.566-9.384 23.231 0 13.665 9.565 23.05 9.566 9.384 23.231 9.384ZM264-512h138.153L264-650.154V-512Zm73.231-210.462H702.769 337.231ZM434.154-480Zm259.538 0Z"/></svg>