<svg xmlns="http://www.w3.org/2000/svg" height="20" viewBox="0 -960 960 960" width="20"><path d="M888.769-264 781.385-371.385q-4.077-4.14-4.462-9.762-.385-5.622 4.512-10.468 4.896-4.847 10.115-4.847t10.065 4.847l108.001 108q8.692 8.328 8.692 19.433t-8.692 19.797l-108.001 108q-4.076 4.077-9.23 3.962-5.154-.115-10-5.012-4.847-4.896-4.847-10.115t4.847-10.065L888.769-264Zm-484.277 80q-12.408 0-20.45-8.138Q376-200.277 376-212.307V-280H192.615Q169-280 152-296q-17-16-16-40.615v-382.77Q137-744 152.856-760q15.856-16 39.759-16h574.77Q791-776 807.5-759.85 824-743.7 824-719.385V-496q0 6.8-4.547 11.4-4.547 4.6-11.269 4.6t-11.453-4.6Q792-489.2 792-496v-223.385q0-9.23-7.692-16.923Q776.615-744 767.385-744h-574.77q-9.23 0-16.923 7.692Q168-728.615 168-719.385v382.77q0 9.23 7.692 16.923Q183.385-312 192.615-312H656q6.8 0 11.4 4.547 4.6 4.548 4.6 11.27 0 6.722-4.6 11.452Q662.8-280 656-280h-89.231v67.693q0 12.03-8.138 20.169Q550.492-184 538.462-184h-133.97Zm59.76-328v92q0 6.8 4.632 11.4 4.631 4.6 11.377 4.6 6.745 0 11.281-4.6 4.536-4.6 4.536-11.4v-92h91.688q6.734 0 11.484-4.547t4.75-11.269q0-6.723-4.6-11.327-4.6-4.605-11.4-4.605h-92v-92.168q0-6.836-4.608-11.46Q486.785-652 479.973-652t-11.392 4.624Q464-642.752 464-635.916v92.168h-92q-6.8 0-11.4 4.632-4.6 4.631-4.6 11.143 0 6.812 4.624 11.392 4.624 4.581 11.46 4.581h92.168ZM168-312v-432 432Z"/></svg>