<svg xmlns="http://www.w3.org/2000/svg" height="24" viewBox="0 -960 960 960" width="24"><path d="M880-240 770-350q-4-4-4.5-9.5T770-370q5-5 10-5t10 5l109 109q9 9 9 21t-9 21L790-110q-4 4-9.5 4.5T770-110q-5-5-5-10t5-10l110-110Zm-477.76 68q-13.24 0-21.74-8.625Q372-189.25 372-202v-50H192q-26 0-43-17t-17-43v-416q0-26 17-43t43-17h576q26 0 43 17t17 43v234q0 5.95-4.035 9.975-4.035 4.025-10 4.025T804-484.025q-4-4.025-4-9.975v-234q0-12-10-22t-22-10H192q-12 0-22 10t-10 22v416q0 12 10 22t22 10h474q5.95 0 9.975 4.035 4.025 4.035 4.025 10T675.975-256q-4.025 4-9.975 4h-78v50q0 12.75-8.625 21.375T558-172H402.24ZM466-506v106q0 5.95 4.035 9.975 4.035 4.025 10 4.025t9.965-4.025q4-4.025 4-9.975v-106h106q5.95 0 9.975-4.035 4.025-4.035 4.025-10T609.975-530q-4.025-4-9.975-4H494v-106q0-5.95-4.035-9.975-4.035-4.025-10-4.025T470-649.975q-4 4.025-4 9.975v106H360q-5.95 0-9.975 4.035-4.025 4.035-4.025 10t4.025 9.965q4.025 4 9.975 4h106ZM160-280v-480 480Z"/></svg>