<svg xmlns="http://www.w3.org/2000/svg" height="24" viewBox="0 -960 960 960" width="24"><path d="M435.478-476.043v71.521q0 18.696 12.913 31.609T480-360q18.696 0 31.609-12.913t12.913-31.609v-71.521h71.521q18.696 0 31.327-12.913Q640-501.87 640-520.565q0-18.696-12.63-31.326-12.631-12.631-31.327-12.631h-71.521v-70.956q0-18.696-12.913-31.609T480-680q-18.696 0-31.609 12.913t-12.913 31.609v70.956h-71.521q-18.696 0-31.327 12.631Q320-539.261 320-520.565q0 18.695 12.913 31.609 12.913 12.913 31.609 12.913h70.956Zm409.609 238.304-87.739-87.739q-13.565-13.565-13.282-32.544.282-18.978 13.847-32.543 13.566-13.565 32.261-13.565 18.696 0 32.261 13.565l115.783 115.217q15.956 15.957 15.956 37.609t-15.956 37.609L823.001-84.913q-13.566 13.566-32.827 13.566-19.261 0-32.826-13.566-13.565-13.565-13.282-32.826.282-19.261 13.847-32.826l87.174-87.174ZM362.826-100.782q-22.087 0-37.544-15.456-15.456-15.457-15.456-37.544v-27H166.783q-44.305 0-75.153-30.848-30.848-30.848-30.848-75.153v-466.434q0-44.305 30.848-75.153 30.848-30.848 75.153-30.848h626.434q44.305 0 75.153 30.848 30.848 30.848 30.848 75.153v220.216q0 22.088-15.456 37.544Q868.305-480 846.218-480h-70.391q-38.087 0-64.414 26.326-26.326 26.326-26.326 64.414v157.173q0 21.522-14.891 36.414-14.892 14.891-36.414 14.891h-17.39v27q0 22.087-15.457 37.544-15.456 15.456-37.544 15.456H362.826Z"/></svg>