<svg xmlns="http://www.w3.org/2000/svg" height="20" viewBox="0 -960 960 960" width="20"><path d="M898-264 786-376q-2-2.064-2.5-5.032t2.55-5.968q3.05-3 5.5-3t5.45 3l105 105q8 7.636 8 17.818Q910-254 902-246L797-141q-2 2-4.5 2t-5.5-3.05q-3-3.05-3-5.5t3-5.45l111-111Zm-483.76 68q-11.54 0-18.89-7.475Q388-210.95 388-222v-70H200q-22 0-37.5-14.5T148-344v-368q1-23 15.356-37.5T200-764h560q22 0 37 14.65T812-712v222q0 4.25-2.825 7.125-2.824 2.875-7 2.875-4.175 0-7.175-2.875T792-490v-222q0-12-10-22t-22-10H200q-12 0-22 10t-10 22v368q0 12 10 22t22 10h462q4.25 0 7.125 2.825 2.875 2.824 2.875 7 0 4.175-2.875 7.175T662-292h-98v70q0 11.05-7.475 18.525Q549.05-196 538-196H414.24Zm56.012-322v98q0 4.25 2.909 7.125t7.108 2.875q4.199 0 7.004-2.875 2.805-2.875 2.805-7.125v-98h97.688q4.184 0 7.209-2.825 3.025-2.824 3.025-7 0-4.175-2.875-7.049-2.875-2.874-7.125-2.874h-98v-98.168q0-4.286-2.885-7.185t-7.15-2.899q-4.265 0-7.115 2.899-2.85 2.899-2.85 7.185v98.168h-98q-4.25 0-7.125 2.909T362-527.965q0 4.265 2.899 7.115 2.899 2.85 7.185 2.85h98.168ZM168-312v-432 432Z"/></svg>