<svg xmlns="http://www.w3.org/2000/svg" height="24" viewBox="0 -960 960 960" width="24"><path d="m849-236-86-86q-14-14-13.5-34.5T764-391q14-14 34-14t34 14l111 110q19 19.364 19 45.182T943-191L833-81q-14 14-35 14t-35-14q-14-14-13.5-35t14.5-35l85-85ZM365-86q-26 0-44.5-18.5T302-149v-17H172q-53 0-89.5-36.5T46-292v-456q0-53 36.5-89.5T172-874h616q53 0 89.5 36.5T914-748v205q0 26-18.5 44.5T851-480q-26 0-44.5-18.5T788-543v-205H172v456h454q26 0 44.5 18.5T689-226q0 25.5-17.25 42.75T629-166v17q0 26-18.5 44.5T566-86H365Zm67-387v65q0 20.4 13.8 34.2Q459.6-360 480-360q20.4 0 34.2-13.8Q528-387.6 528-408v-65h65q19.975 0 33.487-13.8Q640-500.6 640-521q0-19.975-13.513-33.487Q612.975-568 593-568h-65v-64q0-20.4-13.8-34.2Q500.4-680 480-680q-20.4 0-34.2 13.8Q432-652.4 432-632v64h-65q-19.975 0-33.487 13.518Q320-540.965 320-520.982 320-501 333.8-487t34.2 14h64ZM172-292v-456 456Z"/></svg>