<svg xmlns="http://www.w3.org/2000/svg" height="20" viewBox="0 -960 960 960" width="20"><path d="m867-260-88-88q-12-12.064-11.5-30.032T780.05-408q12.05-12 29.5-12T839-408l107 106q18 18 18 42t-18 42L840-112q-12 12-30 11.5t-30-12.55q-12-12.05-11.5-30.5T781-174l86-86ZM377-110q-24.3 0-41.65-17.35Q318-144.7 318-169v-37H180q-49 0-84-34t-34-84v-408q1-50 34.856-84T180-850h600q49 0 83.5 34.15T898-732v193q0 24.3-17.289 41.65-17.29 17.35-41.5 17.35Q815-480 797.5-497.35T780-539v-193H180v408h442q24.3 0 41.65 17.289 17.35 17.29 17.35 44.5 0 23.711-16.1 39.961T625-206h-20v37q0 24.3-17.35 41.65Q570.3-110 546-110H377Zm59.252-375v57q0 18.7 12.674 31.35Q461.6-384 480.234-384t31.239-12.65q12.605-12.65 12.605-31.35v-57h56.688q18.209 0 30.721-12.589Q624-510.179 624-528.789q0-18.186-12.363-30.573-12.362-12.386-30.637-12.386h-57v-56.168q0-18.736-12.65-31.41T480-672q-18.7 0-31.35 12.674Q436-646.652 436-627.916v56.168h-57q-18.275 0-30.638 12.391Q336-546.965 336-528.982q0 18.282 12.674 31.132Q361.348-485 380.084-485h56.168ZM180-324v-408 408Z"/></svg>