<svg xmlns="http://www.w3.org/2000/svg" height="20" viewBox="0 -960 960 960" width="20"><path d="M422-300q-4-112-93.5-181T121-565q-23.954-3.767-41.477-21.367Q62-603.967 62-627.983 62-652 79.415-669 96.829-686 122-684q107 9 203 55t154 136q32-55 81.5-94.5T664-660h-71q-24.3 0-41.65-17.289-17.35-17.29-17.35-41.5Q534-743 551.35-760.5T593-778h198q24.3 0 41.65 17.35Q850-743.3 850-719v206q0 24.3-17.289 41.65-17.29 17.35-41.5 17.35Q767-454 749.5-471.35T732-513v-50q-78 43-135.5 109T539-300h16q24.3 0 41.65 17.289 17.35 17.29 17.35 41.5Q614-217 596.666-199.5T555.055-182H407.276Q383-182 365.5-199.289q-17.5-17.29-17.5-41.5Q348-265 365.35-282.5T407-300h15Z"/></svg>