<svg xmlns="http://www.w3.org/2000/svg" height="24" viewBox="0 -960 960 960" width="24"><path d="M246.783-62.477q-43.726 0-74.863-31.138-31.138-31.138-31.138-74.864v-386.434q0-43.725 31.138-74.863 31.137-31.138 74.863-31.138h335.694v-63.608q0-43.405-29.63-73.789T480-828.695q-33.182 0-58.069 18.434-24.886 18.435-35.886 46.26-7.957 17.957-24.979 28.718t-36.791 10.761q-22.405 0-36.732-16.652-14.326-16.653-8.5-37.871 17.957-67.304 73.24-111.478Q407.565-934.696 480-934.696q86.957 0 147.718 61.326 60.761 61.326 60.761 148.848v63.608h24.738q43.726 0 74.863 31.138 31.138 31.138 31.138 74.863v386.434q0 43.726-31.138 74.864-31.137 31.138-74.863 31.138H246.783Zm0-106.002h466.434v-386.434H246.783v386.434ZM480-281.696q33 0 56.5-23.5t23.5-56.5q0-33-23.5-56.5t-56.5-23.5q-33 0-56.5 23.5t-23.5 56.5q0 33 23.5 56.5t56.5 23.5ZM246.783-168.479v-386.434 386.434Z"/></svg>