<svg xmlns="http://www.w3.org/2000/svg" height="24" viewBox="0 -960 960 960" width="24"><path d="M476-327Zm-304 83v-108q0-62 43-105t105-43h429q16.286 0 27.643 10.978T788-462q0 14-8 24t-21 14l-121 32v150q0 15.909-7.057 28.788T612-192q-12.148 8.25-26.574 10.125Q571-180 555.593-186.244L410-244H172Zm438-120H365q-15 0-25 10t-10 24q0 10 5.5 19.5T353-296l213 84q16 6 30-3.5t14-26.5v-122Zm-410 92h141q-17-9-28-24.158-11-15.158-11-32.842 0-25.863 18.568-44.432Q339.137-392 365-392h157l230-59q5-2 7-5t1-7q-1-4-3.5-6.5T749-472H320q-50 0-85 35t-35 85v80Zm200-288q-44.55 0-76.275-31.725Q292-623.45 292-668q0-44.55 31.725-76.275Q355.45-776 400-776q44.55 0 76.275 31.725Q508-712.55 508-668q0 44.55-31.725 76.275Q444.55-560 400-560Zm0-28q33 0 56.5-23.5T480-668q0-33-23.5-56.5T400-748q-33 0-56.5 23.5T320-668q0 33 23.5 56.5T400-588Zm76 261Zm-76-341Z"/></svg>