<svg xmlns="http://www.w3.org/2000/svg" height="20" viewBox="0 -960 960 960" width="20"><path d="M439.478-172.782H241.696q-87.914 0-149.566-61.587-61.653-61.587-61.653-148.935 0-83.653 52.348-145.523 52.348-61.869 132.305-63 26.391-88.261 99.718-141.826Q388.174-787.218 480-787.218q109.826 0 192 69.065t88.392 174.326q71.696 6.218 120.413 59.175 48.718 52.956 48.718 125.348 0 77.348-54.088 131.935Q821.348-172.782 744-172.782H520.522v-237.521l60.957 62.087 57.217-56.652L480-564.13 321.304-404.868l57.217 56.652 60.957-62.087v237.521Z"/></svg>