<svg xmlns="http://www.w3.org/2000/svg" height="20" viewBox="0 -960 960 960" width="20"><path d="M240-212.001q-71.922 0-121.961-51.029-50.038-51.028-50.038-123.124 0-72.538 52.462-123.615 52.462-51.076 123.461-48.537 17.657-83.44 83.896-136.566 66.239-53.127 152.18-53.127 98.642 0 171.32 62.679 72.679 62.678 72.679 157.32v20.001h12.308q64.23-3.077 109.961 40.346Q891.999-424.23 891.999-361q0 62.339-42.654 105.669-42.653 43.33-104.576 43.33H518.308q-27.008 0-45.657-18.65-18.65-18.65-18.65-45.658v-187.077L387-395.616l-37.153-36.769L480-562.537l130.153 130.152L573-395.616l-67.001-67.77v187.077q0 4.616 3.847 8.463 3.846 3.846 8.462 3.846H744q40.32 0 68.16-27.775 27.84-27.774 27.84-68Q840-400 812.16-428q-27.84-28-68.16-28h-72v-72q0-73-57.5-120.5t-135-47.5Q402-696 348-639.5T283-504h-43.769q-48.561 0-83.896 35.202t-35.335 85Q120-334 155.143-299T240-264h132v51.999H240Zm240-236Z"/></svg>