<svg xmlns="http://www.w3.org/2000/svg" height="24" viewBox="0 -960 960 960" width="24"><path d="M100.782-100.782v-758.436h758.436v758.436H100.782Zm106.001-106.001h111.521v-111.521H206.783v111.521Zm217.522 0h111.39v-111.521h-111.39v111.521Zm217.391 0h111.521v-111.521H641.696v111.521ZM206.783-424.305h111.521v-111.39H206.783v111.39Zm217.522 0h111.39v-111.39h-111.39v111.39Zm217.391 0h111.521v-111.39H641.696v111.39ZM206.783-641.696h111.521v-111.521H206.783v111.521Zm217.522 0h111.39v-111.521h-111.39v111.521Zm217.391 0h111.521v-111.521H641.696v111.521Z"/></svg>