<svg xmlns="http://www.w3.org/2000/svg" height="24" viewBox="0 -960 960 960" width="24"><path d="M140.001-140.001v-679.998h679.998v679.998H140.001ZM200-200h146.463v-146.463H200V-200Zm206.461 0h147.078v-146.463H406.461V-200Zm207.076 0H760v-146.463H613.537V-200ZM200-406.461h146.463v-147.078H200v147.078Zm206.461 0h147.078v-147.078H406.461v147.078Zm207.076 0H760v-147.078H613.537v147.078ZM200-613.537h146.463V-760H200v146.463Zm206.461 0h147.078V-760H406.461v146.463Zm207.076 0H760V-760H613.537v146.463Z"/></svg>