<svg xmlns="http://www.w3.org/2000/svg" height="24" viewBox="0 -960 960 960" width="24"><path d="M480-67q-85.826 0-161.087-32.347-75.261-32.348-131.24-88.326-55.978-55.979-88.326-131.24Q67-394.174 67-480q0-82.913 31.827-158.022 31.826-75.109 87.217-131.892 55.392-56.782 130.935-90.152 75.544-33.369 162.544-33.369 23.826 0 48.652 2.565 24.827 2.565 50.088 8.696-9.566 47.261 2.891 86.978 12.456 39.717 40.76 65.652 28.305 25.935 69.239 35.37 40.935 9.434 88.327-4.435-22.609 61.261 9.195 114.413 31.805 53.152 101.196 51.761 1.565 12.695 2.348 25.022.783 12.326.783 25.022 0 84.826-31.783 160.152t-87.196 132.087q-55.413 56.761-130.956 89.957Q567.522-66.999 480-66.999Zm-60-493q25 0 42.5-17.5T480-620q0-25-17.5-42.5T420-680q-25 0-42.5 17.5T360-620q0 25 17.5 42.5T420-560Zm-80 200q25 0 42.5-17.5T400-420q0-25-17.5-42.5T340-480q-25 0-42.5 17.5T280-420q0 25 17.5 42.5T340-360Zm260 40q17 0 28.5-11.5T640-360q0-17-11.5-28.5T600-400q-17 0-28.5 11.5T560-360q0 17 11.5 28.5T600-320Z"/></svg>