<svg xmlns="http://www.w3.org/2000/svg" height="20" viewBox="0 -960 960 960" width="20"><path d="M480-83q-82.202 0-154.275-30.847-72.073-30.848-126.552-85.326-54.478-54.479-85.326-126.552Q82.999-397.798 82.999-480q0-88.913 33.827-162.522 33.826-73.609 88.717-126.392 54.892-52.782 125.435-82.152 70.544-29.369 143.544-29.369 25.826 0 50.652 3.565 24.827 3.565 50.088 10.696-8.566 47.261 2.391 83.978 10.956 36.717 37.792 60.111 26.836 23.394 65.739 31.869 38.903 8.476 86.295-.393-20.609 59.261 9.707 109.91 30.315 50.648 96.773 49.164 1.521 12.186 2.281 24.072.761 11.886.761 24.072 0 80.826-30.523 153.636-30.523 72.811-83.776 127.68-53.253 54.87-125.876 86.973Q564.202-82.999 480-82.999Zm-60-469q25 0 42.5-17.5T480-612q0-25-17.5-42.5T420-672q-25 0-42.5 17.5T360-612q0 25 17.5 42.5T420-552Zm-96 192q25 0 42.5-17.5T384-420q0-25-17.5-42.5T324-480q-25 0-42.5 17.5T264-420q0 25 17.5 42.5T324-360Zm275.789 36Q615-324 625.5-334.289q10.5-10.29 10.5-25.5Q636-375 625.711-385.5q-10.29-10.5-25.5-10.5Q585-396 574.5-385.711q-10.5 10.29-10.5 25.5Q564-345 574.289-334.5q10.29 10.5 25.5 10.5Z"/></svg>