<svg xmlns="http://www.w3.org/2000/svg" height="20" viewBox="0 -960 960 960" width="20"><path d="M480-122q-73.981 0-139.048-27.952-65.067-27.953-114.057-76.943-48.99-48.99-76.943-114.057Q122-406.019 122-480q0-84 32-150.5T236.5-744q50.5-47 113-72.5T473-842q15.569 0 29.785 2Q517-838 531-835q0 45 12 77.5t36.531 55.459q24.532 22.959 60 35.5Q675-654 723-647q-6 57 30.511 99.497 36.511 42.496 84.578 51.404-.045-.51-.067-.951-.022-.44-.022-.95 0 76.292-28.398 144.765-28.398 68.474-77.08 119.948-48.682 51.473-113.662 81.38Q553.881-122 480-122Zm-59.5-440q20.5 0 35-15t14.5-35.5q0-20.5-14.583-35Q440.833-662 420-662q-20 0-35 14.583-15 14.584-15 35.417 0 20 15 35t35.5 15Zm-96 192q20.5 0 35-15t14.5-35.5q0-20.5-14.583-35Q344.833-470 324-470q-20 0-35 14.583-15 14.584-15 35.417 0 20 15 35t35.5 15Zm275.789 36q10.711 0 18.211-7.789 7.5-7.79 7.5-18.5 0-10.711-7.414-18.211-7.415-7.5-18.375-7.5Q590-386 582-378.586q-8 7.415-8 18.375Q574-350 581.789-342q7.79 8 18.5 8Z"/></svg>