<svg xmlns="http://www.w3.org/2000/svg" height="24" viewBox="0 -960 960 960" width="24"><path d="M558.826-282.435q-14.565-6.565-21.282-21.438-6.718-14.872-1.718-30.257 7-20.131 11.731-40.378 4.732-20.248 6.834-41.014l69.566 69q-2.566 10.696-5.566 21.326-3 10.631-7.13 21.326-5 15.689-20.5 22.062-15.5 6.373-31.935-.627Zm-129-52.565q-15-6-21.5-20.5t-1.5-31.5q7-23 9.5-46t2.5-47q0-21.261-1.565-40.957-1.565-19.695-6.131-38.391l87.696 87.696q-.435 29.695-4.935 58.326-4.5 28.63-13.065 56.326-5 15-20 21.5t-31 .5Zm-131.13-55q-14-5.435-20.718-19.435-6.717-14-3.717-29.435 2-10.565 3.283-20.565 1.282-10 1.282-20.565 0-10.565-1.282-20.565-1.283-10-3.283-20.565-3-15.398 4-29.351 7-13.954 20.435-18.954 17.565-7.565 32.848 0 15.282 7.565 19.282 24.334 4 15.782 6 32.057 2 16.276 2 33.044 0 16.768-2 33.044-2 16.275-6 32.057-4 16.769-19.565 24.334-15.565 7.565-32.565.565Zm339.695-67.392L555-540.784q-2-21.782-7.152-43.289t-12.022-41.797q-5-15.578 1.5-30.636 6.5-15.059 21.065-21.059 16.435-7.435 32.191-.699 15.755 6.736 20.679 22.134 14 42 20.783 85.869 6.782 43.87 6.782 90.261v11.304q0 5.826-.435 11.304ZM480.06-60.782q-87.582 0-163.966-32.96-76.385-32.96-132.888-89.464-56.504-56.503-89.464-132.888-32.96-76.384-32.96-163.966 0-65.422 18.13-123.986 18.13-58.563 51.826-108.824L56-789.174q-13.13-13.206-13.13-31.364t13.19-31.288q13.19-13.131 31.326-13.131 18.136 0 31.266 13.131L859.87-110.609q13.131 13.206 13.131 31.364 0 18.159-13.19 31.289-13.19 13.13-31.327 13.13-18.136 0-31.266-13.13l-84.348-82.782q-50.261 33.695-108.824 51.826-58.564 18.13-123.986 18.13ZM480-166.783q42.739 0 81.826-10.869 39.087-10.87 73.391-30.739L208.391-635.782q-19.869 34.304-30.739 73.35-10.869 39.047-10.869 82.432 0 130.739 91.518 221.978T480-166.783Zm356.479-91.521-78.783-78.219q16.953-31.418 26.237-67.774 9.284-36.355 9.284-75.703 0-130.739-91.518-221.978T480-793.217q-39.348 0-75.703 9.284-36.356 9.284-67.774 26.237l-78.219-78.783q48.37-29.922 104.298-46.331Q418.53-899.218 480-899.218q87.522 0 163.906 32.96 76.385 32.96 132.888 89.464 56.504 56.503 89.464 132.888 32.96 76.384 32.96 163.906 0 61.47-16.408 117.398-16.409 55.928-46.331 104.298Zm-288.87-289.305ZM422.304-422.304Z"/></svg>