<svg xmlns="http://www.w3.org/2000/svg" height="24" viewBox="0 -960 960 960" width="24"><path d="M561-282q-15-7-21.5-22.159Q533-319.318 538-335q7-21 11.909-41.822Q554.818-397.644 557-419l70 69q-3 12-6 23.5t-8 23.5q-5 15.448-20.5 21.724T561-282Zm-129-53q-15-6-21.5-20.5T409-387q7-23 9.5-46t2.5-47q0-23-2-44t-7-41l89 89q0 31-4.5 60.5T483-357q-5 15-20 21.5t-31 .5Zm-132-55q-14-5-20.5-19t-3.5-29q2-11 3.5-21t1.5-21q0-11-1.5-21t-3.5-21q-3-14.933 4-28.467Q287-564 300-569q18-8 33.5 0t19.5 24.59q4 15.615 6 31.717 2 16.103 2 32.693 0 16.59-2 32.693-2 16.102-6 31.717Q349-399 333-391t-33 1Zm341-80-86-86q-2-17-6.5-34.667Q544-608.333 538-625q-5-16.023 1.5-31.511Q546-672 561-678q16-7 31.568-.467Q608.135-671.933 613-657q14 42 21 86.154 7 44.154 7 90.846v10ZM480.105-46Q389-46 310.013-80.084q-78.988-34.083-137.417-92.512T80.084-310.013Q46-389 46-480.105q0-68.055 19-128.975Q84-670 119-722l-63-65q-14-14.133-14-33.567Q42-840 56.105-854t33.5-14Q109-868 123-854l746 746q14 14.133 14 33.567Q883-55 868.895-41q-14.106 14-33.5 14Q816-27 802-41l-80-78q-52 35-112.92 54T480.105-46ZM480-172q41 0 79-10t71-29L211-631q-19 33-29 70.929-10 37.928-10 80.071 0 129 89.994 218.5Q351.987-172 480-172Zm373-85-94-93q13.841-28.664 21.42-61.832Q788-445 788-480q0-129-89.994-218.5Q608.013-788 480-788q-35 0-68.168 7.58Q378.664-772.841 350-759l-93-94q48.655-29.092 104.911-45.046Q418.168-914 480-914q91 0 169.987 34.084 78.988 34.083 137.417 92.512t92.512 137.417Q914-571 914-480q0 61.832-15.954 118.089Q882.092-305.655 853-257ZM555-555ZM421-421Z"/></svg>