<svg xmlns="http://www.w3.org/2000/svg" height="24" viewBox="0 -960 960 960" width="24"><path d="M557.826-282.435q16.435 7 31.935.5t20.5-21.935q4.13-10.695 6.63-21.326 2.5-10.63 4.5-21.326l-68.434-69q-2 20.565-6.566 40.913-4.565 20.348-11.565 40.479-5 15.565 1.718 30.347 6.717 14.783 21.282 21.348Zm-129-52.565q16 6 31-.5t20-21.5q8.565-27.696 13.065-56.326 4.5-28.631 3.935-58.326l-87.261-87.696q5.131 18.696 6.696 38.391 1.565 19.696 1.565 40.957 0 24-2.5 47t-9.5 46q-5 17 1.5 31.5t21.5 20.5Zm-131.13-55q17 7 32.565-.565 15.565-7.565 19.565-24.565 4-15.435 6-31.653 2-16.217 2-33.217t-2-33.217q-2-16.218-6-31.653-4-17-19.282-24.565-15.283-7.565-32.848 0-13.435 5-20.435 18.935-7 13.935-4 29.37 2 10.565 3.283 20.565 1.282 10 1.282 20.565 0 10.565-1.282 20.565-1.283 10-3.283 20.565-3 15.435 3.717 29.435 6.718 14 20.718 19.435ZM479-60.782q-87.522 0-163.913-32.913-76.392-32.913-132.936-89.456-56.543-56.544-89.456-132.936Q59.782-392.478 59.782-480q0-68.391 20.13-129.718 20.131-61.326 56.826-113.152h109.871l590.566 592.132H711.87L55-789.174q-13.13-13.13-13.13-31.326 0-18.196 13.13-31.326 13.13-13.131 31.326-13.131 18.196 0 31.326 13.131l739.653 741.217q13.13 13.131 13.913 31.327.783 18.195-12.348 31.326-13.13 13.13-31.326 13.13-18.196 0-31.326-13.13l-84.348-82.782Q661.609-97.043 603-78.912q-58.609 18.13-124 18.13Zm356.479-197.522L636.391-457.392q1.435-5.478 1.435-11.304V-480q0-46.565-6.782-90.348-6.783-43.782-20.783-85.782-5-15.435-20.717-22.153-15.718-6.717-32.153.718-14.565 6-21.065 21.065-6.5 15.065-1.5 30.63 6.87 20.479 11.522 41.891Q551-562.566 553-540.784L257.304-836.479q48.566-29.87 104.348-46.305Q417.435-899.218 479-899.218q87.522 0 163.913 32.913 76.392 32.913 132.936 89.456 56.543 56.544 89.456 132.936Q898.218-567.522 898.218-480q0 61.565-16.434 117.348-16.435 55.782-46.305 104.348Z"/></svg>