<svg xmlns="http://www.w3.org/2000/svg" height="24" viewBox="0 -960 960 960" width="24"><path d="M644.461-497.692 578-615.769l66.461-118.077h130.923l66.461 118.077-66.461 118.077H644.461ZM414.539-361.923 348.077-480l66.462-118.077h130.922L611.923-480l-66.462 118.077H414.539Zm0-271.923-66.462-118.076 66.462-118.077h130.922l66.462 118.077-66.462 118.076H414.539ZM184.616-497.692l-66.461-118.077 66.461-118.077h130.923l64.615 118.077-64.615 118.077H184.616Zm0 271.538-66.461-118.077 66.461-118.077h130.923l64.615 118.077-64.615 118.077H184.616ZM417-90.001l-68.923-118.077 66.462-118.076h130.922l66.462 118.076-66.462 118.077H417Zm227.461-136.153L578-344.231l66.461-118.077h130.923l66.461 118.077-66.461 118.077H644.461Z"/></svg>