<svg xmlns="http://www.w3.org/2000/svg" height="24" viewBox="0 -960 960 960" width="24"><path d="m401.538-100-68-120h-132l-78.461-140 68-120-68-120 78.461-140h132l68-120h156.924l68 120h132l78.461 140-68 120 68 120-78.461 140h-132l-68 120H401.538Zm224.924-400h109.076l55.539-100-55.539-100H626.462l-56.539 100 56.539 100Zm-200 120h107.076l56.539-100-56.539-100H426.462l-56.539 100 56.539 100Zm0-240h107.076l57.539-101-56.539-99H425.462l-56.539 99 57.539 101Zm-201 120h108.076l56.539-100-56.539-100H225.462l-56.539 100 56.539 100Zm0 240h108.076l56.539-100-56.539-100H224.462l-55.539 100 56.539 100Zm200 120h109.076l56.539-99-57.539-101H426.462l-57.539 101 56.539 99Zm201-120h108.076l56.539-100-56.539-100H626.462l-56.539 100 56.539 100Z"/></svg>