<svg xmlns="http://www.w3.org/2000/svg" height="20" viewBox="0 -960 960 960" width="20"><path d="m401.538-116-68-116h-139l-78.461-132 68-116-69-116 78.461-132h139l69-116h156.924l69 116h139l78.461 132-69 116 68 116-78.461 132h-139l-68 116H401.538Zm225.924-380h121.076l58.539-100-58.539-100H627.462l-59.539 100 59.539 100Zm-208 116h121.076l58.539-100-58.539-100H419.462l-58.539 100 58.539 100Zm0-232h121.076l58.539-100-58.539-100H419.462l-58.539 100 58.539 100Zm-208 116h121.076l59.539-100-59.539-100H211.462l-58.539 100 58.539 100Zm0 232h122.076l58.539-100-58.539-100H212.462l-59.539 100 58.539 100Zm208 116h121.076l58.539-100-58.539-100H419.462l-58.539 100 58.539 100Zm208-116h121.076l58.539-100-58.539-100H627.462l-59.539 100 59.539 100Z"/></svg>