<svg xmlns="http://www.w3.org/2000/svg" height="24" viewBox="0 -960 960 960" width="24"><path d="M655.304-501.913 587.065-622.63l68.239-120.479h134.24l68.478 120.479-68.478 120.717h-134.24Zm-242.543 142.63L344.522-480l68.239-120.717h134.717L615.717-480l-68.239 120.717H412.761Zm0-285.021-68.239-120.718L412.761-885.5h134.478l68.239 120.478-68.239 120.718H412.761ZM170.456-501.913 101.978-622.63l68.478-120.479h134.957L371.13-622.63l-65.717 120.717H170.456Zm0 285.022L101.978-337.37l68.478-120.717h134.957L371.13-337.37l-65.717 120.479H170.456ZM416.043-74.5l-71.521-120.478 68.239-120.718h134.478l68.239 120.718L547.239-74.5H416.043ZM655.304-216.89 587.065-337.37l68.239-120.717h134.24l68.478 120.717-68.478 120.479h-134.24Z"/></svg>