<svg xmlns="http://www.w3.org/2000/svg" height="20" viewBox="0 -960 960 960" width="20"><path d="M116.001-212.001v-535.998h259.921l96 96h372.077v123.691q-26.693-11.538-54.038-17.615Q762.615-552 734.846-552q-113.923 0-188.154 84.192-74.23 84.192-62.23 194.577 2 15.922 5.538 31.23 3.539 15.307 8.615 30H116.001Zm491.692 0v-26.308q0-34.489 34.384-54.09Q676.461-312 737.846-312q61.384 0 95.768 19.601 34.385 19.601 34.385 54.09v26.308H607.693Zm129.94-136.308q-25.941 0-43.864-18.135t-17.923-44.076q0-25.941 18.136-43.864 18.135-17.923 44.076-17.923t43.864 18.135q17.923 18.135 17.923 44.077 0 25.941-18.135 43.864-18.136 17.922-44.077 17.922Z"/></svg>