<svg xmlns="http://www.w3.org/2000/svg" height="24" viewBox="0 -960 960 960" width="24"><path d="M166.783-246.783v-466.434V-534.434v-6.348V-246.783ZM60.782-140.782v-678.436H391.52L480-730.74h419.218v240.393q-23.652-16.391-50.152-27.304-26.501-10.914-55.849-16.783v-90.304H436.26l-88.478-88.479H166.783v466.434h293.74q.739 27.218 7.521 54.283 6.783 27.066 18.609 51.718H60.782Zm518.436 0v-22q0-45 44-71.5t116-26.5q72 0 116 26.5t44 71.5v22h-320Zm160-160q-33 0-56.5-23.5t-23.5-56.5q0-33 23.5-56.5t56.5-23.5q33 0 56.5 23.5t23.5 56.5q0 33-23.5 56.5t-56.5 23.5Z"/></svg>