<svg xmlns="http://www.w3.org/2000/svg" height="24" viewBox="0 -960 960 960" width="24"><path d="M198.154-240h497.384l90-450.769q2.308-11.539-5-20.385Q773.231-720 761.692-720H565.077q-6.154 0-11.154 2.692-5 2.693-8.846 7.308L198.154-240Zm-59.231 14.385 373.231-507.847q8.692-12.384 22.731-19.461Q548.923-760 564.308-760h197.384q31.123 0 50.369 23.615 19.247 23.616 13.016 53.693l-91.384 456.615q-2.231 11.693-11.116 18.885Q713.693-200 702.385-200H151.846q-9.592 0-13.988-8.577-4.397-8.577 1.065-17.038Zm432.616-199q31.984 0 54.069-21.774 22.085-21.773 22.085-53.308 0-31.534-22.085-53.611-22.085-22.077-54.069-22.077-31.339 0-52.977 21.931-21.639 21.931-21.639 53.692 0 31.762 21.639 53.454 21.638 21.693 52.977 21.693ZM198.154-240h497.384-497.384Z"/></svg>