<svg xmlns="http://www.w3.org/2000/svg" height="24" viewBox="0 -960 960 960" width="24"><path d="M480-60.782q-85.863 0-162.301-33.195-76.439-33.196-133.482-90.24-57.044-57.043-90.24-133.482Q60.782-394.137 60.782-480q0-86.391 33.195-162.566 33.196-76.174 90.24-133.217 57.043-57.044 133.482-90.24Q394.137-899.218 480-899.218q86.391 0 162.511 33.072 76.12 33.073 133.341 90.294 57.221 57.221 90.294 133.341 33.072 76.12 33.072 162.511 0 85.863-33.195 162.301-33.196 76.439-90.24 133.482-57.043 57.044-133.217 90.24Q566.391-60.782 480-60.782Zm-.133-195.045q93.35 0 158.828-65.345 65.478-65.345 65.478-158.695t-65.345-158.828q-65.345-65.478-158.695-65.478t-158.828 65.345q-65.478 65.345-65.478 158.695t65.345 158.828q65.345 65.478 158.695 65.478Z"/></svg>