<svg xmlns="http://www.w3.org/2000/svg" height="24" viewBox="0 -960 960 960" width="24"><path d="M789-266H600q-5.95 0-9.975-4.035-4.025-4.035-4.025-10t4.025-9.965q4.025-4 9.975-4h189l-79-80q-3.667-4-3.833-9.5Q706-389 710-393t9.818-4q5.818 0 10.182 4l92 92q9 9 9 21t-9 21l-92 92q-4.364 4-10.182 4-5.818 0-9.818-4t-3.833-9.5q.166-5.5 3.833-9.5l79-80ZM300-586h280q5.95 0 9.975-4.035 4.025-4.035 4.025-10T589.975-610q-4.025-4-9.975-4H300q-5.95 0-9.975 4.035-4.025 4.035-4.025 10t4.025 9.965q4.025 4 9.975 4Zm0 160h160q5.95 0 9.975-4.035 4.025-4.035 4.025-10T469.975-450q-4.025-4-9.975-4H300q-5.95 0-9.975 4.035-4.025 4.035-4.025 10t4.025 9.965q4.025 4 9.975 4Zm-71 160-57.333 57.333Q165-202 155.5-205.542 146-209.083 146-219v-495q0-24.75 17.625-42.375T206-774h468q24.75 0 42.375 17.625T734-714v194h-28q-94 0-160 65.917Q480-388.167 480-294v28H229Z"/></svg>