<svg xmlns="http://www.w3.org/2000/svg" height="20" viewBox="0 -960 960 960" width="20"><path d="M615-473q2 76-37 126t-98 50q-9 0-16.5-1t-16-3q-5.5-1-8.5.5t-4.294 5.441Q434-292 436.05-290.014q2.05 1.986 4.95 3.014 8 4 18.587 5.5 10.588 1.5 20.605 1.5Q548-280 592-335.5T631-474l38 34q4 2 6.5 1.5t5.5-3.5q3.2-3.147 3.1-5.574-.1-2.426-4.2-5.776L638-491q-7-6-14.5-6.5t-14.951 6.486l-39.817 37.662Q565-450 565-447.5q0 2.5 4 6.5 3 3 5.5 2.5t6.5-2.5l34-32Zm-287 81-39-34q-4-2-6.5-2t-5.5 3q-3.2 3.147-3.1 5.574Q274-417 278-414l42 39q7 7 14.5 7t14.5-7l41.05-37.65Q394-416 394-418.5q0-2.5-4-6.5-3-3-5.5-2.5T378-425l-34 32q-2-70 37-122.5t99.462-52.5q8.179 0 16.358 1 8.18 1 16.18 3 3.538 2 7.269.5 3.731-1.5 5.025-6.441Q526-573 525-575.5t-3.5-3.5q-9.5-2-19.7-4t-21.333-2Q412-585 367.5-527T328-392ZM200-196q-22 0-37-15t-15-37v-368q0-22 15-37t37-15h110l56-74q8-11 19.177-16.5T409-764h142.182Q564-764 575-758.5q11 5.5 19 16.5l56 74h110q22.7 0 37.35 15Q812-638 812-616v368q0 22-14.65 37T760-196H200Zm0-20h560q14 0 23-9t9-23v-368q0-14-9-23t-23-9H638l-73.099-96H395l-73 96H200q-14 0-23 9t-9 23v368q0 14 9 23t23 9Zm280-217Z"/></svg>