<svg xmlns="http://www.w3.org/2000/svg" height="20" viewBox="0 -960 960 960" width="20"><path d="M864-646q-17-14-34.5-27T792-694.443V-792H192v-72h672v218ZM96-288v-408h264v408H96Zm552 96v-199q-12-5-18-16.5t-6-24.5q0-20.16 14-34.08Q652-480 671.512-480 692-480 706-466.08T720-432q0 14-6 25t-18 16v199h-48Zm-146-70q-34-34-52-78.247-18-44.246-18-91.753 0-100 70.027-170t169.539-70Q772-672 842-602t70 170q0 51-21.5 97T832-254l-32-36q29-28 46.5-64.5T864-432q0-80-56-136t-136.451-56q-79.493 0-135.521 55.816Q480-512.368 480-431.531 480-394 494-358q14 36 42 62l-34 34Zm68-68q-21-20-31.5-46.422Q528-402.844 528-432q0-60.3 42.238-102.15Q612.476-576 671.789-576 732-576 774-534.15T816-432q0 31-12.5 58.5T768-325l-32-36q16-14 24-32.321 8-18.322 8-38.679 0-40.32-27.775-68.16-27.774-27.84-68-27.84Q632-528 604-500.16q-28 27.84-28 68.16 0 19.643 7 37.321Q590-377 604-364l-34 34Z"/></svg>