<svg xmlns="http://www.w3.org/2000/svg" height="20" viewBox="0 -960 960 960" width="20"><path d="M758.696-480.657q0-77.213-42.717-141.43-42.717-64.217-111.43-97.124-15.287-7.224-22.287-22.419-7-15.196.13-30.892 6.565-16.696 23.478-23.261 16.914-6.565 33.053.58 92.122 42.681 146.187 127.594 54.065 84.913 54.065 187.739 0 102.825-54.065 187.109-54.065 84.283-146.187 126.964-16.139 7.145-33.053.58-16.913-6.565-23.478-23.261-7.13-15.696-.13-30.892 7-15.195 22.287-22.419 68.713-32.907 111.43-97.281 42.717-64.374 42.717-141.587ZM276.13-364.782H169.826q-20.388 0-34.694-14.306-14.307-14.307-14.307-34.694v-132.436q0-20.387 14.307-34.694 14.306-14.306 34.694-14.306H276.13l134.957-134.957q23.217-23.218 53.413-10.657 30.196 12.561 30.196 45.345v430.878q0 32.784-30.196 45.393-30.196 12.609-53.413-10.609L276.13-364.782ZM671.175-480q0 38.13-19.13 77.978-19.131 39.848-54.392 61.544-10.696 6.13-20.826.5-10.131-5.631-10.131-18.801v-242.442q0-13.17 10.131-18.518 10.13-5.348 20.826.782 35.261 20.696 54.392 60.761 19.13 40.066 19.13 78.196Zm-274.48-97.608-80.391 80.391h-97.478v34.434h97.478l80.391 80.391v-195.216ZM306.478-480Z"/></svg>