<svg xmlns="http://www.w3.org/2000/svg" height="20" viewBox="0 -960 960 960" width="20"><path d="M374.674-47.435v-81.217h90.217V-324.13q-16.043-4.761-30.326-14.783-14.282-10.022-24.804-23.304l-94.804 57.282L44.174-383.13v-157.696h386.152q10.522-7.283 21.544-12.544 11.021-5.26 24.304-7.233v-170.071l203.348-192.348 135.261 82.587-203.479 340.674q6.522 11.522 10.283 22.685 3.761 11.163 4.908 24.594l127.135 31.895 133.435 245.065L778-61.739 543.109-297.391v168.739h90.217v81.217H374.674ZM140.891-749.89v-78.218h246.218v78.218H140.891Zm413.5 52.848v100.238q-.239 0 4.642.88 4.88.881 4.641.881l113.217-190.347-16.696-8.608-105.804 96.956Zm-509.5 115.152v-78.218H243.11v78.218H44.891Zm459.151 186.5q19.401 0 32.484-13.125 13.083-13.124 13.083-32.526 0-19.401-13.125-32.484-13.124-13.083-32.526-13.083-19.401 0-32.484 13.125-13.083 13.124-13.083 32.526 0 19.401 13.125 32.484 13.124 13.083 32.526 13.083Zm-201.281 5.761 58.76-34.609q-.761-5.804-.261-12.348.5-6.543 2.5-13.347H164.958v20.217l137.803 40.087Zm398.565 36.782-68.738-17.782q-1.522 3.521-6.544 9.304-5.022 5.783-8.543 9.304l138.455 138.695 15.413-12.413-70.043-127.108ZM140.891-149.891v-78.218h198.218v78.218H140.891ZM504-441Zm59.674-129.413ZM385.043-462.609Zm208.783 104.848Z"/></svg>