<svg xmlns="http://www.w3.org/2000/svg" height="20" viewBox="0 -960 960 960" width="20"><path d="M422.461-97v-35H488v-205.538q5.154.692 8.769.653 3.616-.038 7.231-.038 36.923 0 65.385-24.184Q597.846-385.29 604-422.184v-2.058.396l110.846 29.923L824-194.692l-58 56.923-229.077-230.538q-3.846 2.307-8.077 3.461T520-362.154V-132h65.539v35H422.461ZM184-193v-32h152v32H184Zm-82.923-223v-81H422q-9.723 11.67-15.4 25.873-5.677 14.204-5.677 30.127 0 8.462-.269 19.116-.269 10.653 3.731 21.269l-84.231 48.538L101.077-416ZM504-400.692q-16.923 0-28.615-11.693-11.693-11.692-11.693-28.615t11.693-28.615q11.692-11.693 28.615-11.693t28.615 11.693q11.693 11.692 11.693 28.615t-11.693 28.615Q520.923-400.692 504-400.692Zm63.769-120.077q-15.461-10.846-31.692-17.077-16.231-6.231-32.077-6.231-1.003 0-1.424-1.038-.422-1.039-2.576-1.347v-139.461l166.385-158.462 69.769 45.077-168.385 278.539ZM87.999-585v-32H240v32H88ZM184-753v-32h200v32H184Z"/></svg>