<svg xmlns="http://www.w3.org/2000/svg" height="24" viewBox="0 -960 960 960" width="24"><path d="M438.461-80v-40H500v-235.692q-18.154-4.231-31.731-14.962-13.577-10.73-21.808-26.423l-118.307 74L93.077-390v-90h351.231q8.461-16.385 22.769-28.231 14.308-11.846 32.923-16.39v-156.302l178.385-167.462 76.769 48.077-179.615 296.693q17.769 11.23 26.269 35.615t1.808 46.308l140.23 34.769L862-173.692l-63 59.923-242.846-239.538q-3.846 2.307-7.692 3.846-3.847 1.538-8.462 2.307V-120h61.539v40H438.461ZM200-760v-40h200v40H200Zm340 96.384v139.308q.231 0 .346.115.116.116.346.116L701-787.559l-18-10.057-143 134ZM80-600v-40h160v40H80Zm439.865 207.692q20.212 0 34.02-13.672 13.807-13.673 13.807-33.885 0-20.212-13.672-34.02-13.673-13.807-33.885-13.807-20.212 0-34.02 13.672-13.807 13.673-13.807 33.885 0 20.212 13.672 34.02 13.673 13.807 33.885 13.807ZM320.538-366l113-69.846q-.231-1.154-.231-2.077V-440h-300.23v20l187.461 54Zm396.693 13.462-130.923-32.154q-.462.461-.923 1.154-.462.692-.923 1.154l212.23 213.538 15-14.814-94.461-168.878ZM160-160v-40h160v40H160Zm360-280Zm20.692-84.077ZM433.307-440Zm151.155 57.616Z"/></svg>