<svg xmlns="http://www.w3.org/2000/svg" height="20" viewBox="0 -960 960 960" width="20"><path d="M304.587-87.87v-143.999H29.347l153.957-240h-58.435L380.413-877.87 480-718.848l99.587-159.022 255.544 406.001h-58.435l153.957 240h-275.24v144H504v-144h-48v144H304.587Zm373-227h99.783l-152.957-240h59.674l-104.5-168.108-50.891 81.695 107.022 169.414h-58.435L677.587-314.87Zm-495.957 0h397.565l-153.956-240h59.674l-104.5-168.108-104.5 168.108h59.674l-153.957 240Zm0 0h140.957-61.674 216-61.674 163.956H181.63Zm495.957 0H568.283h91.435-128.022H700.087h-29.674H777.37h-99.783ZM504-231.869h151.413H504Zm243.479 0Z"/></svg>