<svg xmlns="http://www.w3.org/2000/svg" height="20" viewBox="0 -960 960 960" width="20"><path d="M298-165q-31.167 0-52.083-20.935Q225-206.871 225-238.065 225-260 237.5-278q12.5-18 31.5-27l124-54v-74q-44 29-97.416 45T177-372v-103q64 0 115.5-23.5T375-564v-1q12-15 29.4-22.5T442-595h76q20.2 0 37.6 8 17.4 8 29.4 23v2q31 42 82.5 64.5T783-475v103q-65.168 0-118.584-16T567-433v74l124 54q19 8 31.5 26.716t12.5 40.42Q735-207 714.083-186 693.167-165 662-165H396v-27q0-28 19-44t41-16h108q5.4 0 8.7-3.3 3.3-3.3 3.3-8.7 0-5.4-3.3-8.7-3.3-3.3-8.7-3.3H456q-34.28 0-59.14 24.36T372-192v27h-74Zm181.752-466Q438-631 409.5-659.748q-28.5-28.748-28.5-70.5Q381-772 409.748-800.5q28.748-28.5 70.5-28.5Q522-829 550.5-800.252q28.5 28.748 28.5 70.5Q579-688 550.252-659.5q-28.748 28.5-70.5 28.5Z"/></svg>