<svg xmlns="http://www.w3.org/2000/svg" height="20" viewBox="0 -960 960 960" width="20"><path d="M275-187.692q-23.141 0-38.571-13.985Q221-215.662 221-238.938q0-16.293 9.423-28.87 9.423-12.577 23.269-18.269L418-350.692v-142Q349.308-411.154 288.815-377.5q-60.493 33.654-142.661 42.115v-44.769q62.077-3.846 115.154-32.115 53.077-28.27 98.077-79.27l54-61.461q8.923-10.154 21.076-16 12.154-5.846 25.539-5.846h40q13.385 0 25.539 5.846 12.153 5.846 21.076 16l54 61.461q45 51 98.577 79.27Q752.769-384 813.846-380.154v44.769q-82.168-8.461-142.661-42.115Q610.692-411.154 542-492.692v142l164.308 64.615q13.846 5.692 23.269 18.27Q739-255.23 739-238.479q0 22.838-15.429 36.812-15.43 13.975-38.571 13.975H401v-7.154q0-23.692 14.038-37.231 14.039-13.538 37.731-13.538H579q9 0 14.5-5.5t5.5-14.5q0-9-5.5-14.5t-14.5-5.5H452.769q-40.112 0-65.941 25.538Q361-234.538 361-194.846v7.154h-86Zm205-441.539q-28.385 0-48.039-19.654-19.653-19.654-19.653-48.038 0-28.385 19.653-48.039 19.654-19.654 48.039-19.654t48.039 19.654q19.653 19.654 19.653 48.039 0 28.384-19.653 48.038-19.654 19.654-48.039 19.654Z"/></svg>