<svg xmlns="http://www.w3.org/2000/svg" height="24" viewBox="0 -960 960 960" width="24"><path d="M272-151.521q-33.957 0-57.218-23.261-23.261-23.261-23.261-57.218 0-23.826 13.696-44.587 13.696-20.761 35.392-29.326l150.912-60.305v-70.781q-54 57.347-124.934 87.173Q195.652-320 111.521-320v-97.523q70.261 0 126.609-26.869 56.348-26.87 99.087-77.739l54-64.565q13.131-15.696 30.826-23.261 17.696-7.566 37.957-7.566h40q20.261 0 37.957 7.848 17.695 7.848 30.826 23.544l54 65.13q42.739 50.87 99.087 77.174 56.348 26.304 126.609 26.304V-320q-84.131 0-155.066-29.826-70.934-29.826-124.934-87.173v70.781l150.912 60.305q21.696 8.565 35.392 29.326 13.696 20.761 13.696 44.587 0 33.957-23.261 57.218-23.261 23.261-57.218 23.261H400V-180q0-27.696 17.848-43.848Q435.696-240 460-240h120q9 0 14.5-5.5T600-260q0-9-5.5-14.5T580-280H460q-41.435 0-70.717 29Q360-222 360-180v28.479h-88Zm208-506.002q-36.957 0-62.718-25.761-25.761-25.761-25.761-62.717 0-36.957 25.761-62.718Q443.043-834.48 480-834.48q36.957 0 62.718 25.761 25.761 25.761 25.761 62.718 0 36.956-25.761 62.717-25.761 25.761-62.718 25.761Z"/></svg>