<svg xmlns="http://www.w3.org/2000/svg" height="20" viewBox="0 -960 960 960" width="20"><path d="M298-176.413q-25.841 0-43.714-17.892-17.873-17.892-17.873-43.76 0-18.131 10.217-33.087 10.218-14.957 26.935-23.196l130.848-56.282v-99.87q-44 36.609-98.177 57.554Q252.059-372 188.413-372v-79.413q60.957 0 111.315-25.022 50.359-25.022 84.402-68.543v-.24q10.479-12.717 25.596-19.456 15.117-6.739 32.274-6.739h76q17.157 0 32.274 6.858 15.117 6.859 25.596 19.577v.478q34.043 43.522 84.402 68.304 50.358 24.783 111.315 24.783V-372q-63.646 0-117.823-20.946-54.177-20.945-98.177-57.554v99.87l130.848 56.282q16.717 7.239 26.935 22.912 10.217 15.672 10.217 33.572 0 25.538-17.873 43.494-17.873 17.957-43.714 17.957H396V-192q0-25.717 17.859-42.859Q431.717-252 456-252h108q5.4 0 8.7-3.3 3.3-3.3 3.3-8.7 0-5.4-3.3-8.7-3.3-3.3-8.7-3.3H456q-35.041 0-59.52 24.36Q372-227.28 372-192v15.587h-74Zm181.752-431q-36.426 0-61.882-25.705-25.457-25.704-25.457-62.13t25.704-61.883q25.705-25.456 62.131-25.456t61.882 25.704q25.457 25.704 25.457 62.131 0 36.426-25.704 61.882-25.705 25.457-62.131 25.457Z"/></svg>