<svg xmlns="http://www.w3.org/2000/svg" height="20" viewBox="0 -960 960 960" width="20"><path d="M275-156.413q-32.507 0-55.047-22.634t-22.54-55.276q0-22.873 13.217-43.329 13.218-20.457 33.935-28.696l149.848-59.282v-73.87q-51 57.609-123.177 88.554Q199.059-320 116.413-320v-91.413q69.957 0 125.315-27.022 55.359-27.022 99.402-77.543l54-63.24q12.479-14.717 29.196-21.956 16.717-7.239 35.674-7.239h40q18.957 0 35.674 7.358 16.717 7.359 29.196 22.077l54 63.478q44.043 50.522 99.902 77.304 55.858 26.783 124.815 26.783V-320q-82.646 0-154.823-30.946-72.177-30.945-123.177-88.554v73.87l149.848 59.282q20.717 8.239 33.935 28.696 13.217 20.457 13.217 43.788 0 32.205-22.54 54.828-22.54 22.623-55.047 22.623H401V-181q0-26.717 17.859-43.359Q436.717-241 462-241h117q9 0 14.5-5.5T599-261q0-9-5.5-14.5T579-281H462q-42.181 0-71.59 29Q361-223 361-181v24.587h-86Zm205-491q-34.674 0-59.13-24.457-24.457-24.456-24.457-59.13 0-34.674 24.457-59.131 24.456-24.456 59.13-24.456 34.674 0 59.13 24.456 24.457 24.457 24.457 59.131t-24.457 59.13q-24.456 24.457-59.13 24.457Z"/></svg>