<svg xmlns="http://www.w3.org/2000/svg" height="20" viewBox="0 -960 960 960" width="20"><path d="M298-207.692q-16.474 0-27.237-9.243Q260-226.179 260-242.68q0-11.551 6.423-18.628t16.269-12.769L428-335.692v-168q-61.692 60.538-104.185 84.192-42.493 23.654-105.661 32.115v-32.769q53.077-3.846 101.154-30.115 48.077-26.27 83.077-70.27V-519q6.923-8.154 17.476-13.5 10.554-5.346 22.139-5.346h76q11.585 0 22.139 5.346 10.553 5.346 17.476 13.5v-1.539q35 44 83.077 70.27Q688.769-424 741.846-420.154v32.769q-63.168-8.461-105.661-32.115Q593.692-443.154 532-503.692v168l145.308 61.615q9.846 4.692 16.269 12.485Q700-253.799 700-242.479q0 16.171-10.763 25.479T662-207.692H396v1.846q0-22.692 14.038-36.731 14.039-14.038 36.731-14.038H564q5.4 0 8.7-3.3 3.3-3.3 3.3-8.7 0-5.4-3.3-8.7-3.3-3.3-8.7-3.3H446.769q-32.972 0-53.871 20.898Q372-238.818 372-205.846v-1.846h-74Zm181.752-381.539q-30.137 0-50.791-20.902-20.653-20.901-20.653-51.038 0-30.137 20.901-50.791 20.902-20.654 51.039-20.654t50.791 20.902q20.653 20.902 20.653 51.039 0 30.136-20.901 50.79-20.902 20.654-51.039 20.654Z"/></svg>