<svg xmlns="http://www.w3.org/2000/svg" height="20" viewBox="0 -960 960 960" width="20"><path d="M298-180q-24.167 0-41.083-16.935Q240-213.871 240-238.065 240-255 249.5-269t25.5-22l133-57v-108q-44 39-98.416 61.5T192-372v-72q60 0 110-25.5t85-69.5q10-12 24.4-18.5 14.4-6.5 30.6-6.5h76q16.2 0 30.6 6.5Q563-551 573-539q35 44 85 69.5T768-444v72q-63.168 0-117.584-22.5Q596-417 552-456v108l133 57q16 7 25.5 21.716 9.5 14.716 9.5 31.42Q720-214 703.083-197 686.167-180 662-180H396v-12q0-25 17.5-42.5T456-252h108q5.4 0 8.7-3.3 3.3-3.3 3.3-8.7 0-5.4-3.3-8.7-3.3-3.3-8.7-3.3H456q-35.28 0-59.64 24.36T372-192v12h-74Zm181.752-420Q445-600 420.5-624.748t-24.5-59.5Q396-719 420.748-743.5t59.5-24.5Q515-768 539.5-743.252t24.5 59.5Q564-649 539.252-624.5t-59.5 24.5Z"/></svg>