<svg xmlns="http://www.w3.org/2000/svg" height="24" viewBox="0 -960 960 960" width="24"><path d="m781.653-62.52-69.652-68.652H246.783q-44.305 0-75.153-30.849-30.848-30.848-30.848-75.153v-26.347q0-39.258 20.436-72.165 20.437-32.908 54.303-50.227 44.435-22.435 90.37-36.435 45.935-14 93.935-21.565l-337.74-337.74q-13.13-13.206-12.63-31.364t13.69-31.289q13.19-13.13 31.326-13.13 18.136 0 31.266 13.13l718.568 719.568q13.13 13.13 12.847 31.109-.282 17.978-13.353 31.108-13.071 13.13-31.044 13.13-17.972 0-31.103-13.13Zm-534.87-174.654H606L500.696-342.477q-5.391-.566-10.348-.848-4.957-.283-10.348-.283-54.87 0-109.304 12.935-54.435 12.935-103.913 37.674-9 4.75-14.5 13.301-5.5 8.552-5.5 19.003v23.521Zm497.696-149.305q31.261 15.696 50.804 45.327 19.544 29.63 22.805 65.456L679.001-414.783q17.434 6.435 33.603 13.091 16.168 6.656 31.875 15.213Zm-168-130.826-81.045-81.045q24.696-5.043 41.239-24.978 16.544-19.934 16.544-45.5 0-29.968-21.507-51.31-21.508-21.341-51.71-21.341-25.565 0-45.5 16.261t-24.978 40.956l-81.045-81.044q24.696-39.087 64.687-60.631 39.99-21.544 86.836-21.544 74.479 0 126.849 52.088 52.369 52.087 52.369 126.803 0 46.415-21.826 86.502-21.826 40.087-60.913 64.783ZM606-237.174H246.783 606ZM452.478-641.306Z"/></svg>