<svg xmlns="http://www.w3.org/2000/svg" height="24" viewBox="0 -960 960 960" width="24"><path d="M240-74.78q-22.087 0-37.544-15.457-15.457-15.457-15.457-37.544 0-22.087 15.457-37.544 15.457-15.457 37.544-15.457h480q22.087 0 37.544 15.457 15.457 15.457 15.457 37.544 0 22.087-15.457 37.544Q742.087-74.78 720-74.78H240Zm240-176.958q-112.305 0-176.784-67.522-64.478-67.522-64.478-181.131v-273.913q0-26.087 18.891-44.761 18.892-18.674 44.979-18.674t44.761 18.674q18.674 18.674 18.674 44.761v276.522q0 54.869 29.979 87.891Q426-376.87 480-376.87q54 0 83.978-33.021 29.979-33.022 29.979-87.891v-276.522q0-26.087 18.891-44.761 18.892-18.674 44.979-18.674t44.761 18.674q18.674 18.674 18.674 44.761v273.913q0 113.609-64.478 181.131Q592.305-251.738 480-251.738Z"/></svg>