<svg xmlns="http://www.w3.org/2000/svg" height="20" viewBox="0 -960 960 960" width="20"><path d="M286-388h388q-.85 0-1.425.605-.575.606-.575 1.5 0 .895.575 1.395t1.425.5H286q.85 0 1.425-.605.575-.606.575-1.5 0-.895-.575-1.395T286-388Zm33-108q29-41 69.5-68.5T480-592q51.382 0 94.772 28.1Q618.163-535.8 641-489l5.5 5.5q2.5 2.5 5.5.5 2-4 2.5-9t-1.5-8q-24-50-70.562-79Q535.875-608 480-608q-55 0-100 29t-76 75v-80q0-3.467-2.253-5.733-2.254-2.267-5.7-2.267-3.447 0-5.747 2.267-2.3 2.266-2.3 5.733v84q0 7 6.5 13.5T308-480h84q3.467 0 5.733-2.253 2.267-2.254 2.267-5.7 0-3.447-2.267-5.747-2.266-2.3-5.733-2.3h-73Zm161.45 348q-68.45 0-129.008-25.891-60.559-25.892-106.075-71.348-45.515-45.457-71.441-105.893Q148-411.569 148-480.284q0-68.716 25.891-128.774 25.892-60.059 71.348-105.574 45.457-45.516 105.893-71.442Q411.569-812 480.284-812q68.716 0 128.774 25.891 60.059 25.892 105.574 71.348 45.516 45.457 71.442 105.659Q812-548.899 812-480.45q0 68.45-25.891 129.008-25.892 60.559-71.348 106.075-45.457 45.515-105.659 71.441Q548.899-148 480.45-148Zm-.45-20q130 0 221-91t91-221q0-130-91-221t-221-91q-130 0-221 91t-91 221q0 130 91 221t221 91Zm0-312Z"/></svg>