<svg xmlns="http://www.w3.org/2000/svg" height="20" viewBox="0 -960 960 960" width="20"><path d="m464-246.616-.769-468.307-65.077 65.077q-5.423 5.615-11.558 5.615t-11.114-4.846Q370-654.436 370-660.218t5.615-11.398l84.546-84.545q4.454-4.455 9.698-6.57 5.244-2.115 10.808-2.115t10.525 2.115q4.962 2.115 9.416 6.57l84.546 84.545q5.615 5.616 6 10.77.385 5.154-5.833 10.769-5.782 5.616-11.436 5.616t-11.27-5.616L496-714.923v468.307l65.846-64.307q5.423-5.616 11.558-5.616t11.114 4.847Q590-306.333 590-300.551t-5.615 11.397l-84.546 84.546q-4.454 4.454-9.518 6.57-5.065 2.115-10.424 2.115-5.359 0-10.782-2.15-5.423-2.151-9.5-6.311l-84.769-84.77q-5.359-5.423-4.603-11.557.757-6.135 5.603-11.115 5.359-5.482 11.141-5.482t11.398 5.616L464-246.616Z"/></svg>