<svg xmlns="http://www.w3.org/2000/svg" height="20" viewBox="0 -960 960 960" width="20"><path d="m438-246 127.176-127.176Q576-384 590-384q14 0 25 11t11.5 25.5q.5 14.5-10.332 25.263L462.717-169.763Q451.885-159 437.442-159 423-159 412-170l-68-68q-11-10.636-10.5-24.818.5-14.182 11.5-25.66Q356-299 370-299t25 11l43 42ZM317-624l20 48h286l19-48H317Zm19 120q-22.941 0-41.471-12Q276-528 269-549l-29-75h-24q-29.7 0-50.85-21.15Q144-666.3 144-696v-120h672v120q0 30-21.15 51T744-624h-24l-30 75q-8.265 19.904-26.633 32.452Q645-504 623-504H336Z"/></svg>