<svg xmlns="http://www.w3.org/2000/svg" height="24" viewBox="0 -960 960 960" width="24"><path d="m831.078-43.386-780.46-780.46 42.767-42.769L873.846-86.154l-42.768 42.768ZM440-210q-62.154 0-106.076-43.923Q290.001-297.846 290.001-360q0-62.154 43.923-106.076Q377.846-509.999 440-509.999h10.001l59.998 59.998H440q-37.231 0-63.616 26.385-26.385 26.385-26.385 63.616 0 37.231 26.385 63.616 26.385 26.385 63.616 26.385h250.001l124.691 124.691q-12.462 6.846-26.038 11.077-13.577 4.23-28.654 4.23-37.461 0-66.731-22.5-29.269-22.5-38.576-57.5H440Zm424.922 1.693L728.308-344.922q7.462-2.231 15.231-3.654T760-349.999q45.769 0 77.884 32.115T869.999-240q0 8.692-1.423 16.461-1.423 7.769-3.654 15.231ZM600.307-472.924l-44.383-44.383q24.154-10.539 39.115-32.654 14.962-22.116 14.962-50.039 0-37.231-26.385-63.616-26.385-26.385-63.616-26.385H383.23l-59.999-59.998H520q62.154 0 106.076 43.923Q669.999-662.154 669.999-600q0 40.077-19.23 73.538-19.231 33.462-50.462 53.538ZM200-610.001q-45.769 0-77.884-32.115T90.001-720q0-30.077 15.23-55.154 15.231-25.076 40.077-39.538l149.768 149.768q-14.461 24.846-39.922 39.885-25.462 15.038-55.154 15.038Z"/></svg>