<svg xmlns="http://www.w3.org/2000/svg" height="20" viewBox="0 -960 960 960" width="20"><path d="m288-299 41 41q18 18 18 41.667 0 23.666-18 41.333-16.667 18-40.833 18Q264-157 246-174L104-316q-8-8.4-13-19.7-5-11.3-5-22.5t5-22.5q5-11.3 13-19.3l142-141q18-17 42-17.5t41.478 17.5Q347-524 346.5-499.5T329-458l-41 41h183q24.3 0 41.65 17.289 17.35 17.29 17.35 41.5Q530-334 512.65-316.5T471-299H288Zm384-244H489q-24.3 0-41.65-17.289-17.35-17.29-17.35-41.5Q430-626 447.35-643.5T489-661h183l-41-41q-18-18-18-41.667 0-23.666 18-41.333 16.667-18 40.833-18Q696-803 714-786l142 142q8 8.4 13 19.7 5 11.3 5 22.5t-5 22.5q-5 11.3-13 19.3L714-419q-17.636 17-41.318 17t-41.16-18Q614-437 614.5-461.5T632-503l40-40Z"/></svg>