<svg xmlns="http://www.w3.org/2000/svg" height="20" viewBox="0 -960 960 960" width="20"><path d="M200-244q-22 0-37-15t-15-37v-368q0-22.7 15-37.35Q178-716 200-716h140.643q10.349 0 20.353 4Q371-708 379-700l80 80h301q22.7 0 37.35 14.65Q812-590.7 812-568v272q0 22-14.65 37T760-244H200Zm0-20h560q14 0 23-9t9-23v-272q0-14-9-23t-23-9H451l-87-87q-5-5-10.5-7t-11.5-2H200q-14 0-23 9t-9 23v368q0 14 9 23t23 9Zm-32 0v-432 432Zm405-107 51 40q4 2 8-.84t2-7.56L614-401l54-44q4-2.444 2-6.722-2-4.278-6.804-4.278H600l-21-62q-1.667-4-5.333-4-3.667 0-5.667 4l-20.563 62h-64.555Q478-456 476-451.722t2 6.722l54 44-20 61.6q-2 4.72 2 7.56t8 .84l51-40Z"/></svg>