<svg xmlns="http://www.w3.org/2000/svg" height="24" viewBox="0 -960 960 960" width="24"><path d="M166.783-140.782q-44.305 0-75.153-30.848-30.848-30.848-30.848-75.153v-466.434q0-44.305 30.848-75.153 30.848-30.848 75.153-30.848h180.999q21.225 0 40.461 7.978 19.235 7.978 34.192 22.935L480-730.74h313.217q44.305 0 75.153 30.849 30.848 30.848 30.848 75.153v377.955q0 44.305-30.848 75.153-30.848 30.848-75.153 30.848H166.783Zm0-106.001h626.434v-377.955H436.26l-88.478-88.479H166.783v466.434Zm0 0v-466.434V-246.783ZM596-362l60.087 45.348q7.695 6.13 15.174.717 7.478-5.413 4.913-14.674L654-406l62.652-50.348q7.261-6.13 4.13-14.891-3.13-8.761-12.391-8.761h-76.452l-23.113-72.391q-3.13-9.261-12.826-9.261-9.696 0-12.826 9.261L560.061-480h-76.452q-9.261 0-12.391 8.761-3.131 8.761 4.13 14.891L538-406l-22.174 75.391q-2.565 9.261 4.913 14.674 7.479 5.413 15.174-.717L596-362Z"/></svg>