<svg xmlns="http://www.w3.org/2000/svg" height="24" viewBox="0 -960 960 960" width="24"><path d="M160-342.477q-56.218 0-96.87-40.653Q22.477-423.782 22.477-480q0-57.348 40.653-97.435 40.652-40.088 96.87-40.088 44.087 0 79.392 25.892 35.304 25.891 48.435 63.152h95.216q20.391 0 34.435 14.044 14.043 14.044 14.043 34.435 0 20.391-14.043 34.435-14.044 14.044-34.435 14.044h-95.216q-13.131 37.261-48.435 63.152-35.305 25.892-79.392 25.892ZM160-440q17 0 28.5-11.5T200-480q0-17-11.5-28.5T160-520q-17 0-28.5 11.5T120-480q0 17 11.5 28.5T160-440Zm351.521-40q0-118.348-78.891-205.239T236.565-788.391q-19.391-3.13-32.217-17.391-12.827-14.261-12.827-34.218 0-20.391 13.327-34.152 13.326-13.761 32.152-11.761 145.696 15.261 248.609 115.978 102.913 100.717 120.304 241.456h145.391l-29.348-29.782q-14.391-14.391-14.391-34t14.826-34.435q14.391-14.392 34.218-14.392 19.826 0 34.217 14.392l109.087 109.087q7.696 7.696 11.609 17.522 3.913 9.826 3.913 20.087t-3.913 20.087q-3.913 9.826-11.609 17.522L790.826-333.304q-14.391 14.392-34 14.609-19.609.218-34.435-14.609-14.392-14.391-14.609-34-.217-19.609 14.174-34.435l29.348-29.782H605.913q-17.391 140.739-120.304 241.456Q382.696-89.347 237-74.087q-18.826 2-32.152-11.76Q191.521-99.61 191.521-120q0-19.391 11.696-33.935 11.696-14.544 30.522-17.109Q351.478-186.74 431.5-273.913 511.521-361.087 511.521-480Z"/></svg>