<svg xmlns="http://www.w3.org/2000/svg" height="20" viewBox="0 -960 960 960" width="20"><path d="M382-27q-69 63-162 63T59-30q-61-72-43-181.5T120-394q0-3 6-4.5t10-10.5q-69-53-86-137t28-158q32-61 87.5-102.5t130.337-22.938Q326-890 379.5-940.5T498-996q67 3 120.389 43 53.389 40 74.5 107Q760-858 822-827.5q62 30.5 91 92.5 33 80 12 172t-83.838 137.562Q846-433 837.5-420T824-406q81 62 88.5 163.5T848-69Q787 6 701.5 9.5T548-47q-20 15-33.5 26T488-11q-27 0-53.5-4.5T382-27ZM79-101q42 24 105 30.5t114.22-9.404Q231-111 175.5-165T90-292q-19 19-29.5 42t-12 50q-1.5 27 5 52T79-101Zm618 25q19 12 39.981 18.38Q757.963-51.24 779-52q22-1 43.5-8T863-81q36-48 32.5-116.5t-40.72-120.404Q838-249 800-187.5T697-76Zm-217-56q136 0 230.5-86.931T805-430q0-23-14-48t-35-58q-24 11-49.5 17.5T655-512q-85 0-149-62t-72-153q-2.111 0-4.056 1.5Q428-724 428-721q-117 13-194 96.5T157-430q0 124.138 93.5 211.069Q344-132 480-132ZM364.887-357Q383-357 396.5-371.387q13.5-14.388 13.5-36.5Q410-430 396.613-444.5q-13.388-14.5-31.5-14.5Q347-459 333.5-444.613q-13.5 14.388-13.5 36.5Q320-386 333.387-371.5q13.388 14.5 31.5 14.5Zm230 0Q613-357 626.5-371.387q13.5-14.388 13.5-36.5Q640-430 626.613-444.5q-13.388-14.5-31.5-14.5Q577-459 563.5-444.613q-13.5 14.388-13.5 36.5Q550-386 563.387-371.5q13.388 14.5 31.5 14.5ZM81-542q24-64 68-116.5t97-87.5q-55 6-113 28t-95 55q-4.408 16.765-3.704 33.882Q35-612 42-595q7 17 16 30t23 23Zm797 0q14-11 23-24t16.036-30.235q7.036-17.236 8-34.5Q926-648 921-665q-37-32-94.5-53.5T713-746q53 35 97 87.5T878-542Zm-211-71q22.855 0 42.927 1Q730-611 745-612q-41-56-100-90t-128-40v10q-6 2-10.486.966-4.486-1.035-8.5-3Q494-736 491-740t-4-8q11.254 57.765 61.127 96.382Q598-613 667-613ZM288-833q45-8 93.753-12.5T481-850q49.812 0 97.906 4.5Q627-841 672-833q-20-28-73-45.5T480-896q-66 0-118.5 17.5T288-833ZM42-595Zm439-255Zm17 116Zm419 138ZM779-52ZM48-200Z"/></svg>