<svg xmlns="http://www.w3.org/2000/svg" height="24" viewBox="0 -960 960 960" width="24"><path d="M157.37-111.63q-19.153 0-32.327-13.174t-13.174-32.326v-88.152q0-18.153 6.837-34.685 6.837-16.533 19.511-29.207L642.5-812.696q11.717-11.717 27.196-17.837 15.478-6.119 31.956-6.119t31.576 6.119q15.098 6.12 27.576 18.598l52.131 52.413q12.478 11.718 18.456 26.935 5.979 15.217 5.979 31.696 0 15.717-5.859 31.315T813.174-641.5L309.413-137.978q-12.674 12.674-29.207 19.511-16.532 6.837-34.685 6.837H157.37Zm537.543-530.631 58.391-58.391-52.174-52.413-58.63 58.63 52.413 52.174Z"/></svg>