<svg xmlns="http://www.w3.org/2000/svg" height="24" viewBox="0 -960 960 960" width="24"><path d="M200-200h49.461l402.77-402.155-25.153-25.538-24.923-24.538L200-249.461V-200Zm-23.845 59.999q-15.461 0-25.807-10.347-10.347-10.346-10.347-25.807v-68.921q0-14.461 5.616-27.808 5.615-13.346 15.461-23.192l498.077-497.461q8.692-8.692 20.038-13.153 11.346-4.462 23.114-4.462 12.154 0 23 4.462 10.846 4.461 20.153 13.769l48.077 48.691q9.307 8.693 13.461 19.538 4.154 10.846 4.154 23 0 11.153-4.154 22.499-4.154 11.346-13.461 20.654L296.076-161.078q-9.846 9.846-23.192 15.461-13.347 5.616-27.808 5.616h-68.921Zm574.998-561.691-49.461-49.461 49.461 49.461Zm-98.922 99.537-25.153-25.538-24.923-24.538 50.076 50.076Z"/></svg>