<svg xmlns="http://www.w3.org/2000/svg" height="24" viewBox="0 -960 960 960" width="24"><path d="M194.5-760v-91h571v91h-571Zm285.492 651q-120.101 0-203.753-83.652-83.652-83.652-83.652-203.683 0-120.03 83.66-203.641 83.66-83.611 203.761-83.611t203.753 83.611q83.652 83.611 83.652 203.641 0 120.031-83.66 203.683Q600.093-109 479.992-109Zm-.006-114.587q71.905 0 122.253-50.383t50.348-122.359q0-71.975-50.334-122.323T480.014-569q-71.905 0-122.253 50.338t-50.348 122.249q0 72.011 50.334 122.418 50.334 50.408 122.239 50.408Z"/></svg>