<svg xmlns="http://www.w3.org/2000/svg" height="24" viewBox="0 -960 960 960" width="24"><path d="M380-192.307v-169.847l-89 55.462q-10.769 6.846-20.885.791Q260-311.956 260-324.065q0-5.55 2.571-10.035t7.198-6.977L380-410.231v-140.923l-89.769 56.231q-10 6.615-20.116.615-10.115-6-10.115-17.904 0-5.456 2.436-9.921 2.436-4.464 6.333-6.944L380-599.231V-780q0-8.5 5.758-14.25 5.757-5.75 14.269-5.75t14.242 5.75Q420-788.5 420-780v156.154l129.769-81.231q10-6.846 20.116-.731Q580-699.692 580-687.788q0 5.456-2.571 9.921-2.571 4.464-7.198 6.944L420-575.769v140.923l129.769-81.231q10-6.846 20.116-.731Q580-510.692 580-498.788q0 5.456-2.571 9.921-2.571 4.464-7.198 6.944L420-386.769V-200h20q78.846 0 140.769-49.923t75.462-131.923q1.23-8.077 7.867-13.116Q670.735-400 679.231-400q8.173 0 13.702 6t4.298 14.077q-14 94.769-85.864 157.346Q539.504-160 440-160h-27.692q-13.731 0-23.02-9.288Q380-178.577 380-192.307Z"/></svg>