<svg xmlns="http://www.w3.org/2000/svg" height="20" viewBox="0 -960 960 960" width="20"><path d="M490.281-499Q470-499 456-512.719q-14-13.72-14-34Q442-567 455.719-581q13.72-14 34-14Q510-595 524-581.281q14 13.72 14 34Q538-527 524.281-513q-13.72 14-34 14Zm0-246Q470-745 456-759.289q-14-14.29-14-34.571 0-20.28 13.719-34.21 13.72-13.93 34-13.93Q510-842 524-828.281q14 13.72 14 34Q538-774 524.281-759.5q-13.72 14.5-34 14.5Zm59 123Q529-622 515-635.719q-14-13.72-14-34Q501-690 514.719-704.5q13.72-14.5 34-14.5Q569-719 583-704.711q14 14.29 14 34.571 0 20.28-13.719 34.21-13.72 13.93-34 13.93Zm67.859 123q-20.28 0-34.21-13.719-13.93-13.72-13.93-34Q569-567 582.719-581q13.72-14 34-14Q637-595 651.5-581.281q14.5 13.72 14.5 34Q666-527 651.711-513q-14.29 14-34.571 14Zm0-246q-20.28 0-34.21-14.289Q569-773.579 569-793.86q0-20.28 13.719-34.21 13.72-13.93 34-13.93Q637-842 651.5-828.281q14.5 13.72 14.5 34Q666-774 651.711-759.5 637.421-745 617.14-745Zm59 123q-20.28 0-34.21-13.719-13.93-13.72-13.93-34Q628-690 641.719-704.5q13.72-14.5 34-14.5Q696-719 710.5-704.711q14.5 14.29 14.5 34.571 0 20.28-14.289 34.21Q696.421-622 676.14-622Zm69.141 123Q725-499 710.5-512.719q-14.5-13.72-14.5-34Q696-567 710.289-581q14.29-14 34.571-14 20.28 0 34.21 13.719 13.93 13.72 13.93 34Q793-527 779.281-513q-13.72 14-34 14Zm0-246Q725-745 710.5-759.289 696-773.579 696-793.86q0-20.28 14.289-34.21Q724.579-842 744.86-842q20.28 0 34.21 13.719 13.93 13.72 13.93 34Q793-774 779.281-759.5q-13.72 14.5-34 14.5Zm59 123Q784-622 769.5-635.719q-14.5-13.72-14.5-34Q755-690 769.289-704.5q14.29-14.5 34.571-14.5 20.28 0 34.21 14.289Q852-690.421 852-670.14q0 20.28-13.719 34.21-13.72 13.93-34 13.93Zm68 123Q852-499 838-512.719q-14-13.72-14-34Q824-567 837.719-581q13.72-14 34-14Q892-595 906-581.281q14 13.72 14 34Q920-527 906.281-513q-13.72 14-34 14Zm0-246Q852-745 838-759.289q-14-14.29-14-34.571 0-20.28 13.719-34.21 13.72-13.93 34-13.93Q892-842 906-828.281q14 13.72 14 34Q920-774 906.281-759.5q-13.72 14.5-34 14.5ZM764-110q-110 0-228.5-55T317-318.5q-100-98.5-153.5-214T110-764v-87h297l53 216-145 127q18 29 39 55.5t45.45 50.483Q422-380 445.5-361q23.5 19 50.5 37l145-138 209 49v303h-86Z"/></svg>