<svg xmlns="http://www.w3.org/2000/svg" height="24" viewBox="0 -960 960 960" width="24"><path d="M479.769-19Q384-19 300-55t-146.5-98.5Q91-216 55-300.231t-36-180Q19-576 55-660t98.5-146.5Q216-869 300.231-905t180-36Q576-941 660-905t146.5 98.5Q869-744 905-659.769t36 180Q941-384 905-300t-98.5 146.5Q744-91 659.769-55t-180 36ZM480-129q62.142 0 117.071-20.5Q652-170 697-205l-46-46q-35 27-78.891 42-43.891 15-92.109 15-119.167 0-202.583-83.382Q194-360.765 194-479.882 194-599 277.382-682.5q83.383-83.5 202.5-83.5Q599-766 682.5-682.583 766-599.167 766-480q0 49-15.467 93.554Q735.067-341.891 708-306l45 45q36-45 57-100.5T831-480q0-146-102.5-248.5T480-831q-146 0-248.5 102.5T129-480q0 146 102.5 248.5T480-129Zm0-176q26 0 49-7t43-19l-48-47q-10 5-21.333 7-11.334 2-22.667 2-45.788 0-78.394-32.65Q369-434.301 369-480.15q0-45.85 32.65-78.35 32.651-32.5 78.5-32.5 45.85 0 78.35 32.606Q591-525.787 591-480q0 12.353-3 23.676Q585-445 580-434l48 47q12.913-20.415 19.957-43.665Q655-453.915 655-480q0-72.188-51.367-123.594Q552.266-655 480.133-655 408-655 356.5-603.633t-51.5 123.5Q305-408 356.406-356.5T480-305Z"/></svg>