<svg xmlns="http://www.w3.org/2000/svg" height="24" viewBox="0 -960 960 960" width="24"><path d="M498.088-405.087q39.218 0 64.131-24.913 24.913-24.913 24.913-64.131V-651.87q0-39.218-24.913-64.131-24.913-24.913-64.131-24.913h-38.304q-39.218 0-63.849 24.913-24.63 24.913-24.63 64.131v34.347q0 39.218 24.63 64.131 24.631 24.913 63.849 24.913h38.304v34.348h-42.261q-18.922 0-31.722 12.8t-12.8 31.722q0 18.922 12.8 31.722t31.722 12.8h42.261Zm0-212.436h-38.304v-34.347h38.304v34.347Zm308.13-188.695ZM683.74-533.001v35.478q0 17 11.5 28.5t28.5 11.5q17 0 28.5-11.5t11.5-28.5v-35.478h35.478q17 0 28.5-11.5t11.5-28.5q0-17-11.5-28.5t-28.5-11.5H763.74v-35.478q0-17-11.5-28.5t-28.5-11.5q-17 0-28.5 11.5t-11.5 28.5v35.478h-35.478q-17 0-28.5 11.5t-11.5 28.5q0 17 11.5 28.5t28.5 11.5h35.478ZM339.784-233.782q-44.305 0-75.154-30.848-30.848-30.849-30.848-75.154v-466.434q0-44.305 30.848-75.153 30.849-30.848 75.154-30.848h466.434q44.305 0 75.153 30.848 30.848 30.848 30.848 75.153v466.434q0 44.305-30.848 75.154-30.848 30.848-75.153 30.848H339.784ZM153.782-47.781q-44.305 0-75.153-30.848-30.848-30.848-30.848-75.153v-519.435q0-22.087 15.457-37.544 15.456-15.457 37.544-15.457 22.087 0 37.544 15.457 15.456 15.457 15.456 37.544v519.435h519.435q22.087 0 37.544 15.456 15.457 15.457 15.457 37.544 0 22.088-15.457 37.544-15.457 15.457-37.544 15.457H153.782Z"/></svg>