<svg xmlns="http://www.w3.org/2000/svg" height="20" viewBox="0 -960 960 960" width="20"><path d="M512-417q40.7 0 64.35-23.65Q600-464.3 600-505v-164q0-40.7-23.65-64.35Q552.7-757 512-757h-45q-40.7 0-63.85 23.65T380-669v50q0 40.7 23.15 64.35Q426.3-531 467-531h45v26h-64q-18.7 0-31.35 12.589-12.65 12.59-12.65 31.2 0 18.611 12.65 31.411T448-417h64Zm0-202h-45v-50h45v50Zm291-184ZM702-539v40q0 15.3 10.289 25.65 10.29 10.35 25.5 10.35Q753-463 763.5-473.35 774-483.7 774-499v-40h40q15.3 0 25.65-10.289 10.35-10.29 10.35-25.5Q850-590 839.65-600.5 829.3-611 814-611h-40v-40q0-15.3-10.289-25.65-10.29-10.35-25.5-10.35Q723-687 712.5-676.65 702-666.3 702-651v40h-40q-15.3 0-25.65 10.289-10.35 10.29-10.35 25.5Q626-560 636.35-549.5 646.7-539 662-539h40ZM347-229q-49.7 0-83.85-34.15Q229-297.3 229-347v-456q0-49.7 34.15-83.85Q297.3-921 347-921h456q49.7 0 83.85 34.15Q921-852.7 921-803v456q0 49.7-34.15 83.85Q852.7-229 803-229H347ZM157-39q-49.7 0-83.85-34.15Q39-107.3 39-157v-515q0-24.3 17.29-41.65Q73.578-731 97.79-731q24.21 0 41.71 17.35T157-672v515h515q24.3 0 41.65 17.289 17.35 17.29 17.35 41.5Q731-74 713.65-56.5T672-39H157Z"/></svg>