<svg xmlns="http://www.w3.org/2000/svg" height="24" viewBox="0 -960 960 960" width="24"><path d="M419.478-35.91q-60.147 0-91.4-36.153-31.253-36.153-31.253-83.631 0-29.919 13.196-58.112 13.195-28.193 41.717-47.02 20.87-13.434 33.805-33.739 12.934-20.304 19.065-43.608-3.739-2.435-7.761-4.022-4.021-1.587-7.326-4.456l-95.391 34.13q-19.261 7.131-37.805 11.413-18.543 4.283-37.932 4.283-71.852 0-127.167-62.052Q35.91-420.93 35.91-540.522q0-59.479 35.87-91.066 35.869-31.587 81.253-31.587 31.052 0 60.009 13.196 28.956 13.195 47.783 41.717 13.434 20.87 33.739 33.805 20.304 12.934 43.608 19.065 2.435-3.739 4.022-7.761 1.587-4.021 4.456-7.326l-34.13-95.391q-7.131-18.696-11.413-36.957-4.283-18.261-4.283-36.522 0-73.044 61.783-128.892t181.914-55.848q59.479 0 91.066 35.87 31.587 35.869 31.587 81.218 0 29.956-13.196 59.478-13.195 29.522-41.717 48.349-20.87 13.434-33.805 33.739-12.934 20.304-19.065 43.608 3.739 2.435 7.761 4.022 4.021 1.587 7.326 4.456l95.391-35.13q18.696-7.131 36.739-10.913 18.044-3.783 36.74-3.783 93.435 0 139.088 75.591 45.652 75.591 45.652 168.106 0 60.044-37.794 91.631-37.793 31.587-83.855 31.587-29.526 0-56.983-13.761-27.456-13.761-46.283-41.717-13.434-20.87-33.739-33.805-20.304-12.934-43.608-19.065-2.435 3.739-4.022 7.761-1.587 4.021-4.456 7.326l34.13 95.391q7.131 18.261 11.413 35.305 4.283 17.043 4.283 35.276.435 74.072-61.442 130.855Q539.856-35.91 419.478-35.91Zm60.788-388.612q23.005 0 39.109-16.369 16.103-16.37 16.103-39.375t-16.103-39.109q-16.104-16.103-39.109-16.103-23.005 0-39.375 16.103-16.369 16.104-16.369 39.109 0 23.005 16.369 39.375 16.37 16.369 39.375 16.369ZM435.13-636.871q3.74-1.435 7.131-2.087 3.391-.652 7.13-1.087 8.565-39.739 32.196-79.413 23.63-39.674 68.543-68.761 3.459-2.767 5.534-6.917 2.075-4.15 2.075-10.375 0-5.534-4.304-9.055-4.305-3.522-12.913-3.522-38 0-86.848 16.218-48.848 16.217-50.848 62.313 0 8.643 2.5 16.643t4.383 14.662l25.421 71.381ZM219.026-402.826q13.495 0 32.495-7l71.608-25.304q-1.435-3.74-2.087-7.131-.652-3.391-1.087-7.13-43.695-9.696-82.522-34.457-38.826-24.761-65.087-65.152-2.824-3.715-7.414-5.945-4.589-2.229-10.238-2.229-5.608 0-9.195 4.163-3.587 4.163-3.587 12.489 0 54.673 19.76 96.185 19.761 41.511 57.354 41.511Zm200.452 260.914q46.435 0 92.783-18.717 46.348-18.718 44.913-62.892 0-8-2.5-14.434-2.5-6.435-4.5-13.566l-25.304-71.608q-3.74 1.435-7.131 2.087-3.391.652-7.13 1.087-9.696 44.826-35.022 83.369-25.326 38.544-65.717 64.805-3.116 2.67-5.297 7.009-2.182 4.339-1.747 9.228.435 5.589 4.304 9.61 3.87 4.022 12.348 4.022Zm383.41-260.914q6.287 0 10.743-3.87 4.457-3.869 4.457-12.782 0-38.318-16-87.224-16-48.907-62.612-50.472-8.562 0-16.562 2-8 2-14.435 4l-72.173 26.304q1.434 3.74 2.086 7.131.653 3.391 1.087 7.13 45.392 9.696 83.653 34.457 38.261 24.761 64.522 65.152 2.208 3.715 6.626 5.945 4.417 2.229 8.608 2.229ZM639.479-510.609ZM449.391-640.045ZM319.955-449.391Zm190.654 129.436Z"/></svg>