<svg xmlns="http://www.w3.org/2000/svg" height="20" viewBox="0 -960 960 960" width="20"><path d="M408.639-18q-57.822 0-95.23-37.5Q276-93 276-149q0-32.933 14.5-62.967Q305-242 335-261q20-13 32-32.917 12-19.916 19-42.958-2-2.125-3.5-3.625L379-344l-87.028 34.154Q273-302 252.5-298.5t-40.726 3.5q-95.661 0-144.718-75.977Q18-446.954 18-551q0-57 37-95t91.062-38Q181-684 211.5-669.5T261-624q14 20 33.5 31.5T337-573q2.333-1.667 3.167-3.833Q341-579 344-581l-34.154-87.028Q302-686 298.5-706t-3.5-40q1-96 76.5-146T551-942q57 0 95 37t38 91q0 33-14.5 64.5T625-699q-20 14-31.5 33.5T574-623l3.5 3.5 3.5 3.5 84-33q19-8 40-12t41-4q95 0 145.5 75.199T942-408q0 58-37.75 96t-91.07 38q-34.18 0-64.68-16-30.5-16-49.5-45-13-20-32.917-32-19.916-12-42.958-19-2.125 2-3.625 3.5L616-379l33 84q8 20 12 41t4 41.951Q663-124 591.334-71T408.639-18Zm71.832-410q21.47 0 36.5-15.5Q532-459 532-480.471q0-21.47-15.029-36.5Q501.941-532 480.471-532 459-532 443.5-516.971q-15.5 15.03-15.5 36.5Q428-459 443.5-443.5 459-428 480.471-428ZM447-652q1-1 2-.25t3 1.25q9-37 32-78t72-72q3.273-2.818 4.636-5.545 1.364-2.728 1.364-4.819 0-3.636-4-5.636t-7-2q-48 0-90.5 17T418-746.263Q418-739 419.5-731t4.293 15.402L447-652ZM212.894-418Q221-418 248-425l61-22.364q-1-1.636-.625-2.294.375-.658.625-2.342-44-11-83.5-36T160-554q-1.92-3.727-4.607-5.364Q152.707-561 149.4-561q-2.4 0-5.4 3.75-3 3.75-3 6.25 0 49.191 16.191 91.096Q173.383-418 212.894-418ZM409-141q47 0 89.5-17t43.5-54q0-11-2-20.5t-6-21.5l-21-55q-1.76.667-2.5.417-.74-.25-2.5-.417-11 46-37 85t-67 65q-2.667 1.647-3.833 3.824Q399-153 399-148.733q.273 3.333 4.636 5.533Q408-141 409-141Zm404.8-258q3.2 0 4.2-5l1-5q0-48.563-17.5-90.281Q784-541 746.224-542q-9.304 0-18.264 1.5Q719-539 711-535l-61 22q.667 1.76.417 2.5-.25.74-.417 2.5 47 11 85.5 36t64.5 66q2.6 3.727 6.467 5.364Q810.333-399 813.8-399ZM650-508ZM452-651ZM309-452Zm199 143Z"/></svg>