<svg xmlns="http://www.w3.org/2000/svg" height="20" viewBox="0 -960 960 960" width="20"><path d="M421.255-143.692q-29.569 0-52.297-20.052-22.727-20.052-22.727-51.528 0-19.651 8.423-37.766 8.423-18.116 25.038-28.27 22.769-15.538 37.308-42.686 14.538-27.147 21.846-60.112Q429-388 420.538-393.923q-8.461-5.923-17.307-13.769l-82.566 32.923q-12.665 5.077-25.808 7.308-13.143 2.23-26.107 2.23-68.75 0-96.904-54.881-28.154-54.882-28.154-118.273 0-29.929 19.917-52.657 19.916-22.727 51.468-22.727 20.615 0 38.346 8.423 17.731 8.423 27.885 26.038 16.538 22.769 43.269 36.808 26.731 14.038 59.654 22.346 4.102-9.513 9.359-18.641 5.256-9.128 14.102-17.974l-32.923-82.566q-5.077-11.896-7.308-25.588-2.23-13.692-2.23-26.616 1-76.923 62.577-100.846 61.576-23.923 110.577-23.923 29.929 0 52.657 19.805 22.727 19.804 22.727 51.217 0 19.44-8.423 37.555-8.423 18.116-25.038 28.269-22.769 16.539-36.808 43.654-14.038 27.116-22.346 60.039 10.615 4.538 19.145 10.615 8.529 6.077 16.47 12.846l79.539-31.769q13.692-5.231 27.419-7.962 13.727-2.73 27.686-2.73 58.51 0 91.703 49.23 33.192 49.231 33.192 124.924 0 29.929-19.808 52.657-19.807 22.727-51.261 22.727-20.162 0-38.277-8.923-18.116-8.923-28.27-25.538-15.538-22.769-42.686-37.308-27.147-14.538-60.112-21.846Q572-429 566.077-420.923q-5.923 8.077-13.769 17.692l31.769 79.539q5.011 13.812 7.852 28.329 2.84 14.517 2.84 27.671-2.538 58.923-53.07 91.461-50.531 32.539-120.444 32.539Zm58.926-264q30.204 0 51.165-21.143 20.962-21.142 20.962-51.346 0-30.204-21.143-51.165-21.142-20.962-51.346-20.962-30.204 0-51.165 21.143-20.962 21.142-20.962 51.346 0 30.204 21.143 51.165 21.142 20.962 51.346 20.962Zm-41.335-167.231q10.385-6.616 22.269-8.904 11.885-2.289 24.039-2.019 8-40.231 25.923-72.423 17.923-32.193 46.769-50.347 9.846-7.307 14.385-16.384 4.538-9.077 4.538-19.923 0-14.478-10.461-24.431-10.462-9.954-27.923-9.954-49.72 0-92.892 19.757-43.172 19.756-43.262 68.425 0 9.126 1.884 17.895Q406-664.462 409-656.462l29.846 81.539ZM268.461-402.231q8.231 0 39.077-7.769l79.308-29.21q-6.615-9.482-9.663-21.025-3.049-11.542-3.029-24.919-40.231-8-72.423-25.923-32.193-17.923-50.347-46.769-6.307-9.846-16.22-14.385-9.913-4.538-19.687-4.538-16.092 0-25.439 10.461-9.346 10.462-9.346 27.923 0 50.444 20.26 93.299 20.259 42.855 67.509 42.855Zm153.154 221.539q49.572 0 92.094-20.193 42.522-20.192 44.06-66.807 0-12.399-2.384-24.123Q553-303.538 549-313.538l-27.846-73.308q-11.145 7.051-23.923 9.84-12.779 2.788-22.385 2.852-8 40.231-25.923 72.423-17.923 32.193-46.769 50.347-9.077 5.538-14.115 15.384-5.039 9.846-4.808 20.923.503 13.754 11.098 24.069 10.594 10.316 27.286 10.316Zm324.334-202.539q13.897 0 23.628-10.461 9.731-10.462 9.731-27.923 0-49.72-19.688-92.914-19.688-43.195-68.389-43.24-11.311 0-20.655 1.5-9.345 1.5-19.114 6.269l-77.539 28.846q5.513 10.376 8.686 22.385 3.173 12.009 3.237 23.923 40.231 8 72.423 25.923 32.193 17.923 50.347 46.769 5.538 8.308 16.136 13.615 10.599 5.308 21.197 5.308Zm-160.103-91.615Zm-100.692-111Zm-111 100.692Zm100.692 111Z"/></svg>