<svg xmlns="http://www.w3.org/2000/svg" height="24" viewBox="0 -960 960 960" width="24"><path d="M460-293.692 323.154-158.846q-5.615 5.615-13.654 5.615t-13.654-6.615q-6.615-5.615-6.615-13.654t6.615-14.654L460-352.308V-460H352.308L187.154-294.846q-5.615 5.615-13.654 5.615t-14.654-6.615q-5.615-5.615-5.615-13.654t5.615-13.654L293.692-460H119q-7.769 0-13.385-5.731Q100-471.461 100-480q0-7.769 5.731-13.885Q111.461-500 120-500h173.692L158.846-635.846q-5.615-5.615-5.615-13.654t6.615-14.654q5.615-5.615 13.654-5.615t14.654 5.615L352.308-500H460v-107.692L294.846-771.846q-5.615-5.615-5.615-13.654t6.615-14.654q5.615-5.615 13.654-5.615t13.654 5.615L460-666.308V-840q0-7.769 5.731-13.885Q471.461-860 480-860q7.769 0 13.885 6.115Q500-847.769 500-840v173.692l135.846-133.846q5.615-5.615 13.654-5.615t14.654 5.615q5.615 6.615 5.615 14.654t-5.615 13.654L500-607.692V-500h107.692l164.154-164.154q5.615-5.615 13.654-5.615t14.654 6.615q5.615 5.615 5.615 13.654t-5.615 13.654L666.308-500H840q7.769 0 13.885 6.115Q860-487.769 860-480q0 8.539-6.115 14.269Q847.769-460 840-460H666.308l133.846 136.846q5.615 5.615 5.615 13.654t-5.615 13.654q-6.615 6.615-14.654 6.615t-13.654-6.615L607.692-460H500v107.692l164.154 165.154q5.615 5.615 5.615 13.654t-6.615 14.654q-5.615 5.615-13.654 5.615t-13.654-5.615L500-293.692V-119q0 7.769-6.115 13.385Q487.769-100 480-100q-8.539 0-14.269-5.731Q460-111.461 460-120v-173.692Z"/></svg>