<svg xmlns="http://www.w3.org/2000/svg" height="20" viewBox="0 -960 960 960" width="20"><path d="m789-34-46-45q-52 37-118 56.5T480-3q0-80 19.5-145.5T556-266l-79-79q-31-8-56.5-32T390-433l-15-15q-10 5-21.5 6.5T330-440q-44.52 0-75.26-30.74Q224-501.48 224-546q0-12.091 2-23.045Q228-580 233-590L48.33-774.671Q34-789 34.085-808.857q.086-19.857 14.155-34Q62.311-857 82.655-857 103-857 117-843l741 741q14 14.182 14 34.09Q872-48 857.895-34q-14.106 14-34.5 14Q803-20 789-34Zm-180-97q15-5 28-12t27-15l-28-28q-8 14-15 27.25T609-131Zm256-102L710-388q22.024-8.595 45.512-15.297Q779-410 803-419q21-3 40 3t31.5 18q12.5 12 18.5 31t3 40q-8 24-15.056 47.824Q873.889-255.353 865-233ZM661-440q-1 0-1 .5t-1 .5L522-576q19.455-9.2 31.227-25.1Q565-617 565-639q0-29.4-20.3-49.7Q524.4-709 495-709q-22 0-37.4 11.773Q442.2-685.455 433-666L276-823q11.662-7.053 25.273-11.526Q314.883-839 330.442-839 347-839 362-835.5t27 14.5v-8q0-44.52 30.74-75.26Q450.48-935 495-935q44.52 0 75.26 30.611Q601-873.778 601-829.444V-821q12-11 27.5-14.5T661-839q44.52 0 75.26 30.74Q767-777.52 767-733q0 32-18 56t-45 38q27 13 45 37t18 56.083Q767-501 736.26-470.5T661-440Zm-52 309ZM480-3q0-167-84.5-274T161-414q-21-3-39.34 3-18.34 6-31.66 18-12 12-18.5 31T68-322Q98-172 205.5-87.5T480-3ZM342-140q-47-17-88.5-58.5T195-287q47 17 88.5 58.5T342-140Zm0 0Z"/></svg>