<svg xmlns="http://www.w3.org/2000/svg" height="24" viewBox="0 -960 960 960" width="24"><path d="m771.078-89.001-81.463-80.848q-43.461 38.231-97.192 60.501Q538.692-87.078 480-87.078q0-58.077 22.269-112.116 22.27-54.038 60.501-97.5l-78.078-78.077q-40.538 1.846-65.691-24.846-25.154-26.692-25.154-65.999l-1.769-1.77q-10.154 7.462-21.154 11.192-11 3.731-25.384 3.731-36.184 0-61.168-24.984-24.985-24.985-24.985-61.169 0-13.342 3.731-25.017 3.731-11.674 10.577-22.136L103.386-756.078q-8.923-8.922-8.807-20.884.115-11.961 9.422-21.268 9.308-9.308 21.385-9.308 12.076 0 21.384 9.308l667.076 667.076q8.923 8.923 9.115 20.884.192 11.961-9.115 21.269-9.308 9.307-21.384 9.307-12.077 0-21.384-9.307Zm-219.234-69.922q27.54-7.923 51.579-21.385 24.039-13.462 43.808-31.924l-42.077-42.078q-18.463 19.77-31.925 43.809-13.462 24.039-21.385 51.578Zm225.462-122.002-103.46-103.46q22.805-10.943 46.017-19.933 23.213-8.989 48.058-10.374 9.077-1.615 16.351 1.308 7.274 2.923 13.264 8.769 5.846 5.99 8.769 13.264 2.924 7.274 1.308 16.351-2 24.846-10.692 48.153t-19.615 45.922ZM614.43-452.463q-2.585 0-4.624-.308-2.038-.307-4.654-.307L529.231-529q23.077-12.769 36.923-35.807Q580-587.846 580-616.307q0-42-29-71t-71-29q-28.461 0-51.5 13.846-23.038 13.846-35.807 36.923l-98.306-98.306q11.077-7.461 23.769-11.884 12.692-4.423 27.363-4.423t26.322 3.923q11.65 3.923 22.006 11.769v-7.077q0-37.154 24.994-61.73 24.994-24.577 61.192-24.577 36.197 0 61.159 24.577 24.961 24.576 24.961 61.73v7.077q10.351-7.846 21.997-11.769 11.645-3.923 26.31-3.923 36.23 0 61.192 24.984 24.961 24.984 24.961 61.168 0 26.154-13.878 46.769t-36.429 30.923q22.551 10.307 36.429 30.923 13.878 20.615 13.878 46.608 0 36.391-24.993 61.352t-61.19 24.961Zm-62.586 293.54ZM480-87.079q0-120.845-84.384-215.498-84.385-94.653-202.537-111.115-8.462-1.615-16.055 1.308-7.594 2.923-13.5 8.769t-8.829 13.192q-2.924 7.346-1.308 16.423 16.461 118.153 111.115 202.537Q359.155-87.079 480-87.079Zm-71.844-71.844q-67.77-21-116.155-69.385-48.385-48.385-69.385-116.155 67.77 21 116.155 69.385 48.385 48.385 69.385 116.155Zm0 0Z"/></svg>