<svg xmlns="http://www.w3.org/2000/svg" height="24" viewBox="0 -960 960 960" width="24"><path d="M784-121 681-224q-41 45-93.5 72.5T480-124q0-55 27.5-107.5T580-325l-99-99q-27 0-46-19t-19-46l-3-3q-7.2 5-15 7.5t-18 2.5q-26.88 0-45.44-18.56T316-546q0-9.091 2.5-17.045Q321-571 326-579L136-769q-4-4-4.5-9.5T136-789q5-5 10-5t10 5l648 648q4 4 4.5 9.5T804-121q-5 5-10 5t-10-5Zm-274-33q46-11 84.5-34t67.5-55l-63-63q-32 29-55 67.5T510-154Zm231-162-69-69q14.494-6.054 29.247-11.027Q716-401 731-403q6-1 11.312 1 5.313 2 9.688 6 4 4.375 6 9.688Q760-381 759-375q-2 15-7 30t-11 29ZM579.922-482H575l-39-39q20-14 32-35.5t12-47.5q0-42-29-71t-71-29q-26 0-47.5 12T397-660l-54-54q8-5 17-8.5t19.945-3.5q10.945 0 19.637 3T416-714v-5.6q0-29.4 18.585-46.9 18.584-17.5 45.5-17.5Q507-784 525.5-766.5t18.5 46.9v5.6q7.714-6 16.393-9 8.678-3 19.607-3 27 0 45.5 18.56T644-662q0 20-10.483 35.2Q623.034-611.6 606-604q17.034 7.6 27.517 22.8Q644-566 644-546.417 644-519 625.417-500.5 606.835-482 579.922-482ZM510-154Zm-30 30q0-95-77-179.5T230-402q-6-1-11.344 1-5.344 2-9.5 6T203-385.5q-2 5.5-1 11.5 14 96 98.5 173T480-124Zm-30-30q-85-21-142-78t-78-142q85 21 142 78t78 142Zm0 0Z"/></svg>