<svg xmlns="http://www.w3.org/2000/svg" height="20" viewBox="0 -960 960 960" width="20"><path d="M575.967-237.174q21.163 0 36.011-14.814 14.848-14.815 14.848-35.979 0-21.163-14.814-36.011-14.815-14.848-35.979-14.848-21.163 0-36.011 14.814-14.848 14.815-14.848 35.979 0 21.163 14.814 36.011 14.815 14.848 35.979 14.848ZM387-236.043 627.957-477 573-531.957 332.043-291 387-236.043Zm-3.033-193.131q21.163 0 36.011-14.814 14.848-14.815 14.848-35.979 0-21.163-14.814-36.011-14.815-14.848-35.979-14.848-21.163 0-36.011 14.814-14.848 14.815-14.848 35.979 0 21.163 14.814 36.011 14.815 14.848 35.979 14.848ZM172.782-76.782v-806.436h411.131l203.305 203.531v602.905H172.782Zm348.435-540.435v-168H270.783v610.434h418.434v-442.434h-168Zm-250.434-168v189-189 610.434-610.434Z"/></svg>