<svg xmlns="http://www.w3.org/2000/svg" height="20" viewBox="0 -960 960 960" width="20"><path d="M575.882-266q9.118 0 15.618-6.382 6.5-6.383 6.5-15.5 0-9.118-6.382-15.618-6.383-6.5-15.5-6.5-9.118 0-15.618 6.382-6.5 6.383-6.5 15.5 0 9.118 6.382 15.618 6.383 6.5 15.5 6.5ZM387-277l200-200-14-14-200 200 14 14Zm-3.118-181q9.118 0 15.618-6.382 6.5-6.383 6.5-15.5 0-9.118-6.382-15.618-6.383-6.5-15.5-6.5-9.118 0-15.618 6.382-6.5 6.383-6.5 15.5 0 9.118 6.382 15.618 6.383 6.5 15.5 6.5ZM244-148v-664h358l114 114v550H244Zm336-528h116L580-792v116Z"/></svg>