<svg xmlns="http://www.w3.org/2000/svg" height="24" viewBox="0 -960 960 960" width="24"><path d="M579.882-246Q594-246 604-255.882q10-9.883 10-24Q614-294 604.118-304q-9.883-10-24-10Q566-314 556-304.118q-10 9.883-10 24Q546-266 555.882-256q9.883 10 24 10ZM378-259l223-223-19-19-223 223 19 19Zm1.882-187Q394-446 404-455.882q10-9.883 10-24Q414-494 404.118-504q-9.883-10-24-10Q366-514 356-504.118q-10 9.883-10 24Q346-466 355.882-456q9.883 10 24 10ZM212-132v-696h374l162 162v534H212Zm360-520h148L572-800v148Z"/></svg>