<svg xmlns="http://www.w3.org/2000/svg" height="24" viewBox="0 -960 960 960" width="24"><path d="M579.986-218.804q25.492 0 43.351-17.845 17.859-17.845 17.859-43.337 0-25.492-17.845-43.351-17.845-17.859-43.337-17.859-25.492 0-43.351 17.845-17.859 17.845-17.859 43.337 0 25.492 17.845 43.351 17.845 17.859 43.337 17.859ZM378-220.326 639.674-482 582-539.674 320.326-278 378-220.326Zm1.986-198.478q25.492 0 43.351-17.845 17.859-17.845 17.859-43.337 0-25.492-17.845-43.351-17.845-17.859-43.337-17.859-25.492 0-43.351 17.845-17.859 17.845-17.859 43.337 0 25.492 17.845 43.351 17.845 17.859 43.337 17.859ZM151.869-71.869v-816.262h411.479l244.783 244.879v571.383H151.869ZM517.13-597.13h200l-200-200v200Z"/></svg>