<svg xmlns="http://www.w3.org/2000/svg" height="20" viewBox="0 -960 960 960" width="20"><path d="M480.061-62Q346-62 252-155.957T158-384v-192q0-134.086 93.939-228.043 93.94-93.957 228-93.957Q614-898 708-804.043T802-576v192q0 134.086-93.939 228.043Q614.121-62 480.061-62ZM516-600h166q-8-66-52.5-114.5T516-776v176Zm-238 0h166v-176q-69 12-113.5 61T278-600Zm201.986 420q84.654 0 144.334-59.67Q684-299.34 684-384v-144H276v144q0 84.64 59.666 144.32Q395.332-180 479.986-180ZM480-524Zm36-76Zm-72 0Zm36 76Z"/></svg>