<svg xmlns="http://www.w3.org/2000/svg" height="24" viewBox="0 -960 960 960" width="24"><path d="M480-60.782q-87.522 0-163.913-32.913-76.392-32.913-132.936-89.456-56.543-56.544-89.456-132.936Q60.782-392.478 60.782-480t32.913-163.913q32.913-76.392 89.456-132.936 56.544-56.543 132.936-89.456Q392.478-899.218 480-899.218t163.913 32.913q76.392 32.913 132.936 89.456 56.543 56.544 89.456 132.936Q899.218-567.522 899.218-480t-32.913 163.913q-32.913 76.392-89.456 132.936-56.544 56.543-132.936 89.456Q567.522-60.782 480-60.782Zm135.478-414.696q27.261 0 45.892-18.631Q680-512.739 680-540q0-15-6.717-28.217-6.718-13.218-18.153-22.913l3.913-2.174q9.131-5 11.413-14.479 2.283-9.478-2.717-18.608-5-9.131-13.978-11.414-8.979-2.282-18.109 2.718l-103.739 58.869q-9.131 4.566-11.479 14.892-2.347 10.326 5.044 23.413 4.435 6.87 11.652 9.087 7.218 2.217 14.087-2.217l.87-.435q3.695 24 21.261 40 17.565 16 42.13 16Zm-270.956 0q24.565 0 42.13-16 17.566-16 21.261-40l.87.435q6.869 4.434 14.369 1.869 7.5-2.565 14.196-13.391 4.565-9.131 2-18.609-2.565-9.478-11.696-15.044l-103.304-58.869q-9.13-4.565-18.109-2.283-8.978 2.283-13.978 11.413-5 9.131-2.717 18.392 2.282 9.261 11.413 14.261l3.913 2.174q-11.435 9.695-18.153 22.913Q280-555 280-540q0 27.261 18.63 45.891 18.631 18.631 45.892 18.631ZM480-446.783q-72.13 0-126.13 48.044-54 48.043-73.174 118.739h398.608q-19.174-71.261-73.174-119.022-54-47.761-126.13-47.761Z"/></svg>