<svg xmlns="http://www.w3.org/2000/svg" height="24" viewBox="0 -960 960 960" width="24"><path d="M160-129.23v-701.54l50.769 38.462 53.846-38.462 53.846 38.462 53.847-38.462 53.846 38.462L480-830.77l53.846 38.462 53.846-38.462 53.847 38.462 53.846-38.462 53.846 38.462L800-830.77v701.54l-50.769-38.462-53.846 38.462-53.846-38.462-53.847 38.462-53.846-38.462L480-129.23l-53.846-38.462-53.846 38.462-53.847-38.462-53.846 38.462-53.846-38.462L160-129.23Zm100-195.385h440v-40H260v40ZM260-460h440v-40H260v40Zm0-135.385h440v-40H260v40Z"/></svg>