<svg xmlns="http://www.w3.org/2000/svg" height="20" viewBox="0 -960 960 960" width="20"><path d="M164.001-120.617v-718.766l51.385 34.23 52.923-34.23 52.922 34.23 52.923-34.23 52.923 34.23L480-839.383l52.923 34.23 52.923-34.23 52.923 34.23 52.922-34.23 52.923 34.23 51.385-34.23v718.766l-51.385-34.23-52.923 34.23-52.922-34.23-52.923 34.23-52.923-34.23L480-120.617l-52.923-34.23-52.923 34.23-52.923-34.23-52.922 34.23-52.923-34.23-51.385 34.23Zm134-213.692h363.998v-51.999H298.001v51.999Zm0-119.692h363.998v-51.998H298.001v51.998Zm0-119.691h363.998v-51.999H298.001v51.999Z"/></svg>