<svg xmlns="http://www.w3.org/2000/svg" height="20" viewBox="0 -960 960 960" width="20"><path d="m216-481 148 148q19 19 18.5 42T363-249q-19 19-41.5 18.5t-41.838-18.838L90-438q-8-8.4-13-19.7-5-11.3-5-22.5t5-22.5Q82-514 90-522l121-120L78-776q-13-12.667-13-30.333Q65-824 78-837t30.667-13q17.666 0 30.333 13l697.919 697.919Q850-126 849.5-108.318 849-90.636 836-78q-12.667 13-29.833 13Q789-65 775.703-78.296L294-559l-78 78Zm548 148-83-83 63-63-148-148q-19-19-18-42t20-42q19-19 41.5-18.5t41.782 18.838L870-522q8 8.4 13 19.7 5 11.3 5 22.5t-5 22.5q-5 11.3-13 19.3L764-333Z"/></svg>