<svg xmlns="http://www.w3.org/2000/svg" height="20" viewBox="0 -960 960 960" width="20"><path d="M480-505q18.4 0 31.2-12.8T524-549v-127q0-18.4-12.8-31.2T480-720q-18.4 0-31.2 12.8T436-676v127q0 18.4 12.8 31.2T480-505Zm0 129q17.4 0 30.7-12.8T524-420q0-17.4-13.3-30.7T480-464q-18.4 0-31.2 13.3T436-420q0 18.4 12.8 31.2T480-376Zm0 158q112-99 170-176.5T708-553q0-97.968-65.035-162.484t-163-64.516Q382-780 317-715.484T252-553q0 81 58 158t170 177Zm-.239 127Q463-91 447.91-96.5 432.821-102 419-113q-46-38-96.5-86t-93-104q-42.5-56-69-119T134-553q0-147.719 99.253-246.36Q332.506-898 480-898q146.494 0 246.247 98.64Q826-700.719 826-553q0 68-27 131.5T730-302q-42 56-92.5 103.5T541-113q-13.955 11-29.216 16.5-15.262 5.5-32.023 5.5ZM480-552Z"/></svg>