<svg xmlns="http://www.w3.org/2000/svg" height="24" viewBox="0 -960 960 960" width="24"><path d="M480.027-473.077q8.512 0 14.242-5.75 5.731-5.75 5.731-14.25v-187.692q0-8.5-5.758-14.25-5.757-5.75-14.269-5.75t-14.242 5.75q-5.731 5.75-5.731 14.25v187.692q0 8.5 5.758 14.25 5.757 5.75 14.269 5.75ZM480-354.615q10.462 0 17.539-7.077 7.076-7.077 7.076-17.539 0-10.461-7.076-17.538-7.077-7.077-17.539-7.077-10.462 0-17.539 7.077-7.076 7.077-7.076 17.538 0 10.462 7.076 17.539 7.077 7.077 17.539 7.077Zm0 216.846q-9.385 0-18.769-3.077-9.385-3.077-17.308-10-42.692-39.231-86.539-87.385-43.846-48.154-79.654-99.731-35.807-51.577-58.692-105.307Q196.154-497 196.154-548.154q0-126.923 82.654-209.385Q361.461-840 480-840t201.192 82.461q82.654 82.462 82.654 209.385 0 51.154-22.884 104.5-22.885 53.346-58.308 105.308-35.423 51.961-79.269 99.731-43.846 47.769-86.539 87-7.647 6.923-17.38 10.384-9.733 3.462-19.466 3.462Z"/></svg>