<svg xmlns="http://www.w3.org/2000/svg" height="20" viewBox="0 -960 960 960" width="20"><path d="M480.349-490.769q23.497 0 39.882-16.733 16.384-16.734 16.384-40.231 0-23.498-16.733-39.882Q503.149-604 479.651-604q-23.497 0-39.882 16.733-16.384 16.733-16.384 40.231t16.733 39.882q16.733 16.385 40.231 16.385ZM480-135.231Q343.025-254.03 273.589-356.861q-69.435-102.831-69.435-188.293 0-110.923 75.154-194.885Q354.461-824 480-824q12.077 0 22 .461 9.923.462 19.231 2.154v132.154h120v120h112.923q.462 6.83 1.077 12.319.615 5.489.615 11.758 0 85.462-68.923 187.846Q618-254.923 480-135.231ZM720-648v-120H600v-32h120v-120h32v120h120v32H752v120h-32Z"/></svg>