<svg xmlns="http://www.w3.org/2000/svg" height="20" viewBox="0 -960 960 960" width="20"><path d="M480-76.782Q313.981-213.542 231.381-327.4q-82.599-113.859-82.599-223.86 0-141.755 94.795-236.856Q338.373-883.218 480-883.218q11.435 0 23.152.782 11.718.783 23.152 2.025v99.194q-10.576-2-22.173-3-11.597-1-24.131-1-100.146 0-166.681 66.465-66.536 66.466-66.536 167.491 0 76.652 59.087 159.304T480-206.262q109.956-97.956 168.478-177.781 58.521-79.826 63.609-151.956v-11.239q0-5.62-1-11.239h98.566q1 5.869 1 11.405v11.073q-5.087 105.478-86.892 215.783Q641.957-209.912 480-76.782Zm.212-397.566q32.614 0 55.027-22.625 22.413-22.626 22.413-55.239 0-32.614-22.625-55.027-22.626-22.413-55.239-22.413-32.614 0-55.027 22.625-22.413 22.626-22.413 55.239 0 32.614 22.625 55.027 22.626 22.413 55.239 22.413ZM480-552Zm238.304-78.477h89.523v-120h120V-840h-120v-120h-89.523v120h-120v89.523h120v120Z"/></svg>