<svg xmlns="http://www.w3.org/2000/svg" height="20" viewBox="0 -960 960 960" width="20"><path d="M480-87.87Q319.199-221.367 239.534-334.411q-79.665-113.044-79.665-215.545 0-137.28 91.452-229.727T480-872.131q11.761 0 23.641.62 11.881.62 23.642 2.188v84.193q-10.821-2-22.651-3-11.829-1-24.632-1-101.792 0-169.461 67.927-67.669 67.928-67.669 171.246 0 73.392 59.902 160.283Q362.674-302.783 480-197.457 595.174-300.63 654.837-386.326 714.5-472.022 716.652-543.5v-12.543q0-6.272-1-12.544h83.239q1 6.522 1 12.71v12.377q-2.152 100.587-81.184 211.87Q639.674-220.348 480-87.87Zm.212-389.739q30.984 0 52.582-21.81 21.597-21.81 21.597-52.793 0-30.984-21.81-52.582-21.81-21.597-52.793-21.597-30.984 0-52.582 21.81-21.597 21.81-21.597 52.793 0 30.984 21.81 52.582 21.81 21.597 52.793 21.597ZM480-552Zm239.283-88.587h79.413v-120h120V-840h-120v-120h-79.413v120h-120v79.413h120v120Z"/></svg>