<svg xmlns="http://www.w3.org/2000/svg" height="24" viewBox="0 -960 960 960" width="24"><path d="M480-60.782Q309.956-203.434 225.369-322.347q-84.587-118.913-84.587-231.914 0-157.755 102.295-251.356Q345.373-899.218 480-899.218q9.435 0 19.152.282 9.718.283 19.152 1.718v107.001q-9.576-2-18.673-2.5-9.097-.5-19.631-.5-98.146 0-165.681 66.965-67.536 66.966-67.536 171.991 0 76.652 57.587 160.804T480-201.262q112.956-102.956 169.978-184.281 57.021-81.326 62.109-153.456v-3.478h106.566v3.478q-5.087 108.478-89.392 224.283Q644.957-198.912 480-60.782Zm0-413.566q35.826 0 60.739-24.913 24.913-24.913 24.913-60.739 0-35.826-24.913-60.739-24.913-24.913-60.739-24.913-35.826 0-60.739 24.913-24.913 24.913-24.913 60.739 0 35.826 24.913 60.739 24.913 24.913 60.739 24.913ZM480-560Zm238.304-62.477h97.523v-120h120V-840h-120v-120h-97.523v120h-120v97.523h120v120Z"/></svg>