<svg xmlns="http://www.w3.org/2000/svg" height="24" viewBox="0 -960 960 960" width="24"><path d="M480-477.609q34.196 0 58.294-24.097 24.097-24.098 24.097-58.294t-24.097-58.294Q514.196-642.391 480-642.391t-58.294 24.097Q397.609-594.196 397.609-560t24.097 58.294q24.098 24.097 58.294 24.097Zm0 405.74Q315.174-211.261 233.522-329.36q-81.653-118.097-81.653-223.598 0-153.28 98.952-244.227T480-888.131q20 0 39.761 2.381 19.761 2.38 39.522 7.141v166.022h120v120h126.565q1.522 9.082 1.902 19.402.381 10.321.381 20.228 0 105.501-81.653 223.598Q644.826-211.261 480-71.869Zm239.283-560.718v-120h-120V-840h120v-120h87.413v120h120v87.413h-120v120h-87.413Z"/></svg>