<svg xmlns="http://www.w3.org/2000/svg" height="24" viewBox="0 -960 960 960" width="24"><path d="M480.136-490.769q26.71 0 45.595-19.021 18.884-19.021 18.884-45.731t-19.02-45.594Q506.574-620 479.864-620t-45.595 19.021q-18.884 19.02-18.884 45.731 0 26.71 19.02 45.594 19.021 18.885 45.731 18.885ZM480-119.231Q339-243.923 267.577-351.808q-71.423-107.884-71.423-196.346 0-126.923 82.654-209.385Q361.461-840 480-840q13.077 0 25 .961 11.923.962 24.231 3.654v146.154h120v120h113.923q.462 4.83.577 10.319.115 5.489.115 10.758 0 88.462-71.423 196.346Q621-243.923 480-119.231ZM720-640v-120H600v-40h120v-120h40v120h120v40H760v120h-40Z"/></svg>