<svg xmlns="http://www.w3.org/2000/svg" height="20" viewBox="0 -960 960 960" width="20"><path d="M479.789-171Q495-171 505.5-181.289q10.5-10.29 10.5-25.5Q516-222 505.711-232.5q-10.29-10.5-25.5-10.5Q465-243 454.5-232.711q-10.5 10.29-10.5 25.5Q444-192 454.289-181.5q10.29 10.5 25.5 10.5ZM231-17q-48.675 0-83.337-34.663Q113-86.325 113-135v-690q0-48.675 34.663-83.338Q182.325-943 231-943h498q48.675 0 83.338 34.662Q847-873.675 847-825v690q0 48.675-34.662 83.338Q777.675-17 729-17H231Zm0-334h498v-354H231v354Z"/></svg>