<svg xmlns="http://www.w3.org/2000/svg" height="20" viewBox="0 -960 960 960" width="20"><path d="M212.001-164.001v-631.998h343.998v308.306h86.768v288h108.309v-347.461q-11 6.384-22.936 10.461-11.935 4.077-25.064 4.077-35.151 0-59.421-24.27-24.271-24.271-24.271-59.421 0-30.078 18.923-53.577 18.923-23.5 49.769-28.422l-71.154-71.155 25.538-25.538 118.615 119.154q12.461 12.461 19.077 27.896 6.615 15.435 6.615 31.642v452.306H607.076v-288h-51.077v288H212.001ZM264-541.999h240V-744H264v202.001Zm439.076-26.308q20.4 0 34.2-13.8 13.8-13.8 13.8-34.2 0-20.4-13.8-34.2-13.8-13.8-34.2-13.8-20.4 0-34.2 13.8-13.8 13.8-13.8 34.2 0 20.4 13.8 34.2 13.8 13.8 34.2 13.8Z"/></svg>