<svg xmlns="http://www.w3.org/2000/svg" height="24" viewBox="0 -960 960 960" width="24"><path d="M133.999-93.999V-866h452.002v403.524h134.697v300h71.521v-355.697q-8.435 3.304-17.587 4.804-9.152 1.5-18.456 1.5-43.662 0-73.809-30.312-30.148-30.311-30.148-74.21 0-30.87 16.37-56.652 16.369-25.783 44.804-38.479l-82.87-82.869 47.653-48.218 136.13 132.13q19.522 19.522 32.957 43.196 13.435 23.674 13.435 50.892v522.393H652.219v-300h-66.218v300H133.999ZM240-560h240v-200H240v200Zm516.176-20.914q15.318 0 25.681-10.2 10.362-10.2 10.362-25.278t-10.36-25.278q-10.359-10.2-25.673-10.2-15.314 0-25.401 10.2t-10.087 25.278q0 15.078 10.2 25.278t25.278 10.2Z"/></svg>