<svg xmlns="http://www.w3.org/2000/svg" height="20" viewBox="0 -960 960 960" width="20"><path d="M173-490q-9.75 0-17.375-8.125T148-516v-174q0-11.05 7.625-18.525Q163.25-716 173-716h613q11.05 0 18.525 7.475Q812-701.05 812-690v174q0 9.75-7.475 17.875T786-490H173Zm227 246q-10.625 0-17.812-8.125Q375-260.25 375-270v-174q0-11.05 7.188-18.525Q389.375-470 400-470h386q11.05 0 18.525 7.475Q812-455.05 812-444v174q0 9.75-7.475 17.875T786-244H400Zm-227 0q-9.75 0-17.375-8.125T148-270v-174q0-11.05 7.625-18.525Q163.25-470 173-470h157q11.05 0 18.525 7.475Q356-455.05 356-444v174q0 9.75-7.475 17.875T330-244H173Z"/></svg>