<svg xmlns="http://www.w3.org/2000/svg" height="20" viewBox="0 -960 960 960" width="20"><path d="M124.782-516q-19.087 0-33.544-14.957-14.456-14.956-14.456-34.044v-173.217q0-20.387 14.456-34.694 14.457-14.306 33.544-14.306h709.436q20.387 0 34.694 14.306 14.306 14.307 14.306 34.694v173.217q0 19.088-14.306 34.044Q854.605-516 834.218-516H124.782Zm331.914 343.218q-19.962 0-33.981-14.956-14.019-14.957-14.019-34.044v-173.217q0-20.388 14.019-34.694Q436.734-444 456.696-444h377.522q20.387 0 34.694 14.307 14.306 14.306 14.306 34.694v173.217q0 19.087-14.306 34.044-14.307 14.956-34.694 14.956H456.696Zm-331.914 0q-19.087 0-33.544-14.956-14.456-14.957-14.456-34.044v-173.217q0-20.388 14.456-34.694Q105.695-444 124.782-444h163.913q20.387 0 34.694 14.307 14.307 14.306 14.307 34.694v173.217q0 19.087-14.307 34.044-14.307 14.956-34.694 14.956H124.782Z"/></svg>