<svg xmlns="http://www.w3.org/2000/svg" height="24" viewBox="0 -960 960 960" width="24"><path d="M120-264.615v-430.77q0-26.654 18.981-45.634Q157.961-760 184.615-760h590.77q26.654 0 45.634 18.981Q840-722.039 840-695.385v430.77q0 26.654-18.981 45.634Q802.039-200 775.385-200h-590.77q-26.654 0-45.634-18.981Q120-237.961 120-264.615ZM800-500v-195.385q0-10.769-6.923-17.692T775.385-720h-590.77q-10.769 0-17.692 6.923T160-695.385V-500h640ZM375.385-240h400q10.769 0 17.692-6.923T800-264.615V-460H375.385v220Zm-190.77 0h150.77v-220H160v195.385q0 10.769 6.923 17.692T184.615-240Z"/></svg>