<svg xmlns="http://www.w3.org/2000/svg" height="20" viewBox="0 -960 960 960" width="20"><path d="m784.218-71.956-6.391-5.39q-2.261.564-4.239.564H174.783q-40.426 0-69.213-28.788-28.788-28.787-28.788-69.213V-773.588q0-1.978.565-4.239l-4.826-5.825q-12.13-12.206-11.63-27.864.5-15.658 12.57-27.789 12.072-12.13 27.544-12.13 15.473 0 27.94 12.467l710.588 710.023q12.468 12.57 12.468 28.786 0 16.215-12.19 28.274-12.19 12.06-27.827 12.06-15.636 0-27.766-12.131ZM174.783-174.783h505.043L174.783-679.826v505.043Zm708.435-23.782-98.001-98.002v-488.65h-488.65l-98.002-98.001h586.652q40.426 0 69.213 28.788 28.788 28.787 28.788 69.213v586.652ZM632.565-449.218 497.13-585.219l-18.521-53.694h-2.305l-8.043 24.825-56.696-56.13 8.652-23.217q5-12.565 15.213-19.565 10.213-7 23.033-7h39.117q14.516 0 26.086 8.108 11.569 8.108 17.608 21.755l91.291 240.919Zm-207.261 22.914Zm93.305-135.305Zm35.347 147.652 131.001 132q-5.222 13.583-16.386 22.27Q657.408-251 641.634-251q-14.33 0-25.243-8.065-10.913-8.065-16.478-21.761l-45.957-133.131ZM387.16-357.913l-31.899 88.087q-5.565 13.696-16.125 21.761Q328.576-240 314.179-240q-24.701 0-38.049-20.261-13.348-20.261-4.92-41.759l108.964-286.285 62.087 62.653-32.131 91.956h124.752l75.684 75.783H387.16Z"/></svg>