<svg xmlns="http://www.w3.org/2000/svg" height="24" viewBox="0 -960 960 960" width="24"><path d="M797.218-47.956 487.261-356.913l66.695-58.044L861.74-107.738q-13.956 21.695-37.196 34.326-23.239 12.63-50.196 12.63H166.783q-43.74 0-74.87-31.13-31.131-31.131-31.131-74.871V-778.588q0-1.978.565-4.239L46.52-797.652q-13.13-13.131-13.13-31.327 0-18.195 13.13-31.326 13.13-13.13 31.044-13.13 17.913 0 31.044 13.13L859.87-109.609q13.131 13.131 13.131 30.827 0 17.695-13.131 30.826-13.13 13.13-31.326 13.13-18.196 0-31.326-13.13Zm102-147.609L624.565-470.218l-84.652-220.825q-5.565-12.696-16.695-20.827-11.131-8.13-25.392-8.13h-39.044q-12.565 0-22.565 7-10 7-15 18.565l-5.652 15.217-220-220h597.652q43.74 0 74.871 31.13 31.13 31.131 31.13 74.871v597.652ZM384-356.913h103.261l-75.131-74.565-66.348-66.348-76 199.174q-8.565 21.261 4.566 39.956Q287.478-240 310.304-240q14.131 0 25.044-7.848t15.913-20.978L384-356.913Zm99.652-272.522h2.305l11.521 32.129-18.869-18.868 5.043-13.261Zm70.304 214.478 51.957 147.131q4.565 12.696 15.978 20.261Q633.304-240 646.435-240q17.695 0 29.609-11.63 11.913-11.631 13.913-27.327l-136.001-136Z"/></svg>