<svg xmlns="http://www.w3.org/2000/svg" height="24" viewBox="0 -960 960 960" width="24"><path d="M830.231-73.154 525.769-377.385l48.769-8.307 241.924 241.923Q808-133 795.154-126.5q-12.846 6.5-27.385 6.5H184.615q-26.846 0-45.731-18.884Q120-157.769 120-184.615v-583.154q0-3.846.384-6.923.385-3.077 1.923-6.154l-32.692-32.692q-5.846-5.847-6.23-13.885-.385-8.039 6.23-14.654 6.616-6.615 14.269-6.615 7.654 0 14.27 6.615l740.615 740.615q5.846 5.847 6.231 13.77.385 7.923-6.231 14.538-6.615 6.616-14.269 6.616t-14.269-6.616ZM840-232.692 575.539-497.154l-74.308-204.769q-1.923-4.846-6.154-7.615-4.231-2.77-9.308-2.77h-11.538q-5.077 0-9.308 2.77-4.231 2.769-6.154 7.615l-23 65L232.692-840h542.693q26.846 0 45.731 18.884Q840-802.231 840-775.385v542.693ZM382.462-377.385h143.307L487.153-416h-90.768l23.846-66.923-29.77-29.769-82.923 228.923q-3.384 9.769 2.077 18.308 5.462 8.538 16.231 8.538 6.846 0 11.346-3.154t7.193-9.769l38.077-107.539ZM478-646.923h4l30.769 87-48.384-48.385L478-646.923Zm96.538 261.231 41.077 116.077q2.462 6.384 7.077 9.538 4.616 3.154 11.231 3.154 9.846 0 14.962-7.038Q654-271 652.923-279.615l-78.385-106.077Z"/></svg>