<svg xmlns="http://www.w3.org/2000/svg" height="24" viewBox="0 -960 960 960" width="24"><path d="m830.231-73.154-49.385-49.153q-3.077 1.538-6.154 1.923-3.077.384-6.923.384H184.615q-26.846 0-45.731-18.884Q120-157.769 120-184.615v-583.154q0-3.846.384-6.923.385-3.077 1.923-6.154l-32.692-32.692q-5.846-5.847-6.23-13.885-.385-8.039 6.23-14.654 6.616-6.615 14.269-6.615 7.654 0 14.27 6.615l740.615 740.615q5.846 5.847 6.231 13.77.385 7.923-6.231 14.538-6.615 6.616-14.269 6.616t-14.269-6.616ZM184.615-160h558.539L160-743.154v558.539q0 9.23 7.692 16.923Q175.385-160 184.615-160ZM840-232.692l-40-40v-502.693q0-9.23-7.692-16.923Q784.615-800 775.385-800H272.692l-40-40h542.693q26.846 0 45.731 18.884Q840-802.231 840-775.385v542.693ZM575.539-497.154l-62.77-62.769-30.769-87h-4l-13.615 38.615-28.616-28.615 23-65q1.923-4.846 6.154-7.615 4.231-2.77 9.308-2.77h11.538q5.077 0 9.308 2.77 4.231 2.769 6.154 7.615l74.308 204.769Zm-123.847 45.462Zm84.77-84.77Zm38.076 150.77 78.385 106.077Q654-271 648.885-263.961q-5.116 7.038-14.962 7.038-6.615 0-11.231-3.154-4.615-3.154-7.077-9.538l-41.077-116.077Zm-192.076 8.307-38.077 107.77q-2.462 6.384-7.077 9.538-4.616 3.154-11.231 3.154-10.769 0-16.346-8.423t-2.193-18.423l98-270.923 29.077 29.077-38.923 110.538h149.462l37.692 37.692H382.462Z"/></svg>