<svg xmlns="http://www.w3.org/2000/svg" height="20" viewBox="0 -960 960 960" width="20"><path d="M312-696v480-480Zm119 500h-87q-22.7 0-37.35-14.65Q292-225.3 292-248v-448h-30.833q-2.167 0-5.667-2.875T252-706q0-2 2.875-6t7.125-4h122v-12q0-9.3 7.35-16.65Q398.7-752 408-752h144q9.3 0 16.65 7.35Q576-737.3 576-728v12h122q4.25 0 7.125 2.825 2.875 2.824 2.875 7 0 4.175-2.875 7.175T698-696h-30v146q-7 1-10.357 3-3.357 2-9.643 4v-153H312v447.63q0 12 10 22t22 10h82.174q.672 6.16 2.249 11.265T431-196Zm-2.825-428Q424-624 421-621.125T418-614v328q0-.85-.575-1.425Q416.85-288 416-288q0-43 11-69l11-26v-231q0-4.25-2.825-7.125-2.824-2.875-7-2.875ZM522-494q2.95-4 7.475-8.5Q534-507 542-513v-101q0-4.25-2.825-7.125-2.824-2.875-7-2.875-4.175 0-7.175 2.875T522-614v120Zm149.548 390Q595-104 541.5-157.952q-53.5-53.953-53.5-130.5Q488-365 541.82-418.5T672-472q38.123 0 72.061 14Q778-444 803-419t39 58.906q14 33.906 14 71.992Q856-211 802.048-157.5q-53.953 53.5-130.5 53.5ZM690-295.579V-360q0-7.2-5.4-12.6-5.4-5.4-12.6-5.4-7.2 0-12.6 5.4-5.4 5.4-5.4 12.6v70q0 5.565 2 9.783 2 4.217 6.091 8.308L714-220q5.364 5 12.682 5.5Q734-214 740-220t6-12.818q0-6.818-6-13.182l-50-49.579Z"/></svg>