<svg xmlns="http://www.w3.org/2000/svg" height="20" viewBox="0 -960 960 960" width="20"><path d="M305.782-689.782V-222.783v-466.999Zm153.697 565H305.782q-41.005 0-69.503-28.498-28.498-28.498-28.498-69.503v-466.999h-1.116q-18.971 0-33.428-14.307-14.457-14.307-14.457-34.694 0-19.087 14.307-34.044 14.307-14.957 34.694-14.957h163.218v-12q0-20.387 14.307-34.694 14.307-14.306 34.694-14.306h118.87q20.387 0 34.693 14.306 14.307 14.307 14.307 34.694v12h163.784q20.387 0 34.694 14.247 14.306 14.246 14.306 34.544 0 20.297-14.306 34.754-14.307 14.457-34.694 14.457v150.695q-22.522-9.783-47.87-13.826-25.349-4.044-50.132-2.044v-134.825h-347.87v466.629h105.609q5.957 27.283 18.979 52.914 13.021 25.631 29.109 45.457ZM416.254-624q-17.472 0-30.233 12.328-12.761 12.329-12.761 29.89v262.999q0 13.083 8.85 21.933 8.851 8.85 21.933 8.85 0-73.391 26.827-117.218 26.826-43.826 27.391-44.391v-132.173q0-17.561-12.268-29.89Q433.725-624 416.254-624Zm84.92 132q15.696-13.826 38.054-26.478 22.358-12.651 46.946-21.174v-42.13q0-17.561-12.267-29.89Q561.639-624 544.167-624q-17.471 0-30.232 12.328-12.761 12.329-12.761 29.89V-492ZM673.47-88.652q-82.6 0-140.014-57.639-57.413-57.639-57.413-140.239t57.573-140.296q57.574-57.696 140.28-57.696 41.057 0 77.124 15.283 36.067 15.282 63.198 42.413 27.13 27.13 42.413 63.181 15.282 36.051 15.282 77.089 0 83.078-58.044 140.491-58.045 57.413-140.399 57.413Zm28.182-209.586v-60.632q0-11.182-8.411-19.569-8.411-8.387-19.626-8.387-11.215 0-19.828 8.387t-8.613 19.569v64.174q0 10.826 3.848 19.345 3.848 8.519 10.634 15.225l49.214 49.213q8.494 8.131 20.008 7.848 11.513-.283 19.644-8.494 8.13-8.211 8.13-19.644 0-11.433-8.13-19.927l-46.87-47.108Z"/></svg>