<svg xmlns="http://www.w3.org/2000/svg" height="24" viewBox="0 -960 960 960" width="24"><path d="M308.695-527.957q0 58.261 57.538 112.017 57.538 53.755 96.245 89.592 7.938 6.696 17.861 6.696 9.922 0 17.618-6.696 37.812-34.486 95.58-89.352 57.768-54.865 57.768-112.519 0-38.437-27.837-66.196t-66.381-27.759q-22.696 0-43.326 9.065-20.631 9.065-33.761 25.196-13.13-16.131-33.473-25.196-20.342-9.065-43.897-9.065-38.543 0-66.239 27.837-27.696 27.837-27.696 66.38ZM480-65.912q-8.696 0-16.957-1.283-8.261-1.282-16.522-3.848-138.956-46.13-222.348-173.848Q140.782-372.609 140.782-516v-183.913q0-33.478 19.022-60.261t49.935-38.61l233.217-87.173q17.957-6.696 37.044-6.696 19.087 0 37.044 6.696l233.217 87.173q30.913 11.827 49.935 38.61 19.022 26.783 19.022 60.261V-516q0 143.391-83.391 271.109-83.392 127.718-222.348 173.848-8.261 2.566-16.522 3.848-8.261 1.283-16.957 1.283Zm0-104.306q100.043-36.391 166.63-132 66.587-95.608 66.587-213.519v-184.176L480-787.087l-233.217 87.448V-516q0 118.174 66.587 213.782 66.587 95.609 166.63 132Zm0-308.652Z"/></svg>