<svg xmlns="http://www.w3.org/2000/svg" height="20" viewBox="0 -960 960 960" width="20"><path d="M312.695-540.957q0 56.261 56.544 109.587 56.543 53.327 94.239 88.022 6.696 6.696 16.239 6.696 9.544 0 16.24-6.696 36.695-33.695 94.022-86.956 57.326-53.261 57.326-110.653 0-37.826-27.196-65.022-27.196-27.195-65.022-27.195-22.696 0-42.826 9.565-20.131 9.565-32.261 24.696-13.13-15.131-33.544-24.696-20.413-9.565-41.543-9.565-37.826 0-65.022 27.195-27.196 27.196-27.196 65.022ZM480-81.912q-7.696 0-15.957-.783-8.261-.782-15.522-3.348-134.956-44.13-217.348-166.348Q148.782-374.609 148.782-515v-174.913q0-31.478 17.022-56.261t45.935-35.61l233.217-89.173q16.957-6.696 35.044-6.696 18.087 0 35.044 6.696l233.217 89.173q28.913 10.827 45.935 35.61 17.022 24.783 17.022 56.261V-515q0 140.391-82.391 262.609-82.392 122.218-217.348 166.348-7.261 2.566-15.522 3.348-8.261.783-15.957.783Z"/></svg>