<svg xmlns="http://www.w3.org/2000/svg" height="20" viewBox="0 -960 960 960" width="20"><path d="M495.225-384q-42.745 0-72.485-29.451Q393-442.902 393-485.556V-488q-11.077 9-25.038 12Q354-473 341-473q-42.42 0-71.71-29.58Q240-532.16 240-575q0-28 14-51t38-37q-24-14-38-37.5t-14-51.583q0-43.237 29.29-72.577Q298.58-854 341-854q13 0 27 3t25 13v-3q0-42.84 29.515-72.42Q452.029-943 494.775-943q42.745 0 72.485 29.451Q597-884.098 597-841.444V-838q12-7 23-9.5t22 1.5l-73 209q6-38-16.5-65T495-729q-27.3 0-46.15 19.075-18.85 19.074-18.85 46.7 0 27.205 18.85 46.215Q467.7-598 495-598q24.143 0 44.571-11.5Q560-621 573-642q-6 35 19 64t64 29h94q-10 32-37.649 54-27.648 22-62.351 22-13 0-27.462-3-14.461-3-25.538-12v2q0 42.84-29.515 72.42Q537.971-384 495.225-384ZM738-691l-13.837 47.239q-3.861 11.268-13.512 19.014Q701-617 688.927-617q-20.122 0-31.525-15.5Q646-648 653-668l85-248q3-11 12.577-18.5 9.578-7.5 21.071-7.5h25.704q11.386 0 20.874 7.425T832-916l85.375 247.975Q924-649 912.2-633t-32.425 16q-13.775 0-23.88-7.975Q845.789-632.95 842-646l-13-45h-91Zm16-61h62l-30.145-110H783l-29 110ZM598-152q57-20.607 100-62.804Q741-257 760-314q-57 22-100.5 63T598-152ZM480-35q-162 0-263.5-81T90-344q-6-36 19.5-61.5T171-425q147 25 228 126.5T480-35ZM362-152q-19-57-62-99.196Q257-293.393 200-314q18 58 61.5 99.5T362-152Zm236 0Zm-236 0ZM480-35q0-162 81-263.5T789-425q36-6 61.5 19.5T870-344q-25 147-126.5 228T480-35Z"/></svg>