<svg xmlns="http://www.w3.org/2000/svg" height="24" viewBox="0 -960 960 960" width="24"><path d="m652.652-210.696-51.217-50.652q-7.234-7.131-16.878-7.131t-16.775 7.212q-7.13 7.211-7.13 16.826t7.13 16.745l71.217 71.783q16.163 15.956 37.712 15.956 21.55 0 37.507-15.956L786-227.696q7.13-7.13 6.848-16.826-.283-9.696-7.494-16.826-7.211-7.131-16.826-7.131t-16.746 7.131l-50.652 50.652v-133.826q0-9.583-7.211-16.77-7.211-7.187-16.826-7.187t-17.028 7.187q-7.413 7.187-7.413 16.77v133.826Zm-225.653-673q24.653-14.392 53.001-14.392t53.001 14.392l273.217 157.043q24.652 14.391 38.826 38.609 14.174 24.218 14.174 53.001v180.87q-36.261-32.479-82.978-50.849-46.718-18.369-99.631-18.369-7.391 0-14.13.652-6.739.652-13.695 2.391l104.433-60.39v-53.305l-53.74-31.218L480-537.87 260.523-665.261l-53.74 31.218v53.305l223.043 129.39v76.392q-16.174 29.739-24.696 62.63-8.521 32.891-8.521 68.935 0 51.043 17.435 96.392 17.435 45.348 48.044 81.174-8.914-1-17.827-3.26-8.913-2.262-17.262-7.219L153.782-233.347q-24.652-14.391-38.826-38.609-14.174-24.218-14.174-53.001v-310.086q0-28.783 14.174-53.001 14.174-24.218 38.826-38.609l273.217-157.043Zm249.61 840.305q-83 0-141.5-58.5t-58.5-141.5q0-83 58.5-141.5t141.5-58.5q83 0 141.5 58.5t58.5 141.5q0 83-58.5 141.5t-141.5 58.5Z"/></svg>