<svg xmlns="http://www.w3.org/2000/svg" height="20" viewBox="0 -960 960 960" width="20"><path d="m623-262-21-20q-9.545-9-22.273-9Q567-291 558-281.857t-9 21.818q0 12.675 9 22.039l54 55q18 18 42 18t42-18l55-55q9-9.364 8.5-22.182Q759-273 749.857-282q-9.143-9-21.818-9T706-282l-20 20v-58q0-12.4-9.343-21.7-9.343-9.3-21.8-9.3t-22.157 9.3q-9.7 9.3-9.7 21.7v58ZM420-880q27-17 60-17t60 17l251 145q27.1 15.884 43.05 43.058Q850-664.768 850-633v208q-39-41-89.5-63T654-510q-9 0-19.5 3.5T616-497l116-67v-69l-48-28-204 118-204-118-48 28v69l198 115v73q-21 28-28.5 61.5T390-246q0 49 18 93.5T460-74q-14 0-28-4t-27-11L168.839-225.215Q142-241 126-268.138T110-327v-306q0-31.768 15.95-58.942T169-735l251-145ZM653.774-54Q574-54 518-110.226t-56-136Q462-326 518.226-382t136-56Q734-438 790-381.774t56 136Q846-166 789.774-110t-136 56Z"/></svg>