<svg xmlns="http://www.w3.org/2000/svg" height="20" viewBox="0 -960 960 960" width="20"><path d="M480-522Zm-37-332q17-11 37-11t37 11l263 152q17.1 9.884 26.55 26.058T816-640v187q-17-12-34.5-21T744-490v-101L558-484q-35 15-64 38.5T444-392v-67L216-591v270l181 105q3 26 10.5 52t20.5 49L179.839-258.215Q163-268 153.5-284.138 144-300.276 144-320v-320q0-19.768 9.45-35.942T180-702l263-152Zm38 62L245-657l235 135 235-135-234-135Zm155 556-33-33q-7.364-7-17.182-7Q576-276 569-269q-7 7-7 16.818 0 9.818 7 17.182l66 66q10.636 11 24.818 11Q674-158 685-169l66-66q7-7.364 7-17.182Q758-262 751-269q-7-7-16.818-7-9.818 0-17.182 7l-33 33v-76q0-9.6-7.2-16.8-7.2-7.2-16.8-7.2-9.6 0-16.8 7.2-7.2 7.2-7.2 16.8v76Zm23.774 188Q580-48 524-104.226t-56-136Q468-320 524.226-376t136-56Q740-432 796-375.774t56 136Q852-160 795.774-104t-136 56Z"/></svg>