<svg xmlns="http://www.w3.org/2000/svg" height="24" viewBox="0 -960 960 960" width="24"><path d="M160-280v-400 400ZM53.999-173.999v-612.002H906v380.567q-21.522-22.218-48.305-38.24-26.783-16.022-57.696-25.152V-680H160v400h320.609q-3.131 12.826-4.196 25.718-1.065 12.891-1.065 27.283 0 14.391 1.065 27.283 1.065 12.891 4.196 25.717H53.999ZM320-400v80h172.87q9.13-23 21.695-43t29.131-37H320ZM200-520v80h80v-80h-80Zm120 0v80h80v-80h-80Zm120 0v80h80v-80h-80Zm120 0v80h31.391q11.435-7.435 23.587-13.37 12.152-5.934 25.022-10.934V-520h-80Zm120 0v45.13q11.696-2.565 23.174-3.847Q714.652-480 727.348-480q8.739 0 16.543.717 7.805.718 16.109 2.153V-520h-80ZM200-640v80h80v-80h-80Zm120 0v80h80v-80h-80Zm120 0v80h80v-80h-80Zm120 0v80h80v-80h-80Zm120 0v80h80v-80h-80Zm47.348 591.654L653.26-123l50-51H554.348V-280H703.26l-50-50.999 74.088-74.653 178.653 178.653L727.348-48.346Z"/></svg>