<svg xmlns="http://www.w3.org/2000/svg" height="20" viewBox="0 -960 960 960" width="20"><path d="M528-529 407.232-649.768 443-686.536l85 85 187-187 36.768 36.768L528-529Zm17.076 428.536-276.308-86.385v53.923H68.771v-375.073H325.23l264.923 94.462q27.23 10.077 42.23 29.653 15 19.577 15 54.038h68.001q53.077 0 87.384 38.192t34.307 91.961v9.384l-291.999 89.845Zm-424.307-84.46h96V-456h-96v271.076Zm424.307 30.231 235.77-72q-8.846-23.308-26.213-37.231-17.367-13.923-39.249-13.923H565.692q-51.077 0-85.846-3.808-34.769-3.808-54.307-11.654l-56.232-21.769 20.769-49.537 45.693 19q24.153 9.769 57.423 12.769 33.269 3 102.192 3 0-14.846-5.692-22.615Q584-360.231 573.076-364l-256-92h-48.308v214.153l276.308 87.154ZM216.769-322.462Zm378.615-7.384Zm-378.615 7.384Zm51.999 0Z"/></svg>