<svg xmlns="http://www.w3.org/2000/svg" height="24" viewBox="0 -960 960 960" width="24"><path d="M515.87-538.914 327.782-727.567l75.088-74.653 113 113.565 227-226.565 74.653 74.653L515.87-538.914Zm38.478 504.915-270.957-76.304v-419.306h72.348l250.826 93.13q38.087 14.261 61.696 47.935 23.609 33.674 23.609 76.457h-97.522q-42 0-65.718-3-23.717-3-45.109-10.13l-77.173-24.87-17.088 54.393 66.957 23.565q25.739 9.304 51.565 13.152 25.827 3.848 54 3.848h192.566q76.739 0 107.131 17.543 30.391 17.543 30.391 55.109v43.391L554.348-33.999ZM17.39-55.129v-474.48H185.87v474.48H17.39Z"/></svg>