<svg xmlns="http://www.w3.org/2000/svg" height="24" viewBox="0 -960 960 960" width="24"><path d="M517-518 361.232-673.768 404-715.536l113 113 227-226 41.768 41.768L517-518Zm36.076 429.536-292.308-83.385v-328.15h86.462l244.923 90.462q27.23 10.077 45.23 35.653 18 25.577 18 60.038h-59.999q-40.461 0-66.961-3-26.501-3-45.654-9.769l-77.693-26-12 34.154 69.539 24.154q24.923 9.461 49.654 12.653 24.731 3.193 53.423 3.193h189.692q52.153 0 74.922 19.961t22.769 50.807v25.384L553.076-88.464ZM60.771-116.926v-383.073h139.998v383.073H60.771Z"/></svg>