<svg xmlns="http://www.w3.org/2000/svg" height="20" viewBox="0 -960 960 960" width="20"><path d="M528-529 421.461-635.539 443-658.077l85 85 187-187 22.539 22.538L528-529Zm9.154 376.077-311.615-89.769V-488h88.923l259.846 91.923q26.461 10.154 37.962 24.308 11.5 14.154 11.5 48.077h-65.001q-28.923 0-55.423-4-26.5-4-50.807-13.539l-18.385-9-17 41.308 44.077 12.308q21.846 5.923 47.807 8.807 25.962 2.885 54.347 2.885h219.384q1.308 0 14.347 16.423 13.038 16.423 13.038 37.115v-29.23l-273 107.692ZM89.538-169.846V-488h104v318.154h-104Z"/></svg>