<svg xmlns="http://www.w3.org/2000/svg" height="20" viewBox="0 -960 960 960" width="20"><path d="M528-549.914 374.912-703.567 443-773.22l85 85.565L715-875.22l69.653 69.653L528-549.914Zm18.348 503.915-254.957-79.304v54.174h-266v-466.48h308.348l270.826 97.13q38.087 14.261 58.696 41.935 20.609 27.674 20.609 70.457h30.478q67.301 0 114.411 39.457 47.111 39.456 47.111 104.543v37.001L546.348-45.999Zm-432-114.088h87.521v-288h-87.521v288Zm432 21 235-72q-10-21.565-28.163-33.282-18.163-11.718-38.92-11.718H561.782q-50.173 0-86.152-4.282-35.978-4.283-56.152-12.152l-53.13-21.566 25-68 45.173 17.87q26.392 10.13 58.692 13.13 32.301 3 99.135 3 0-11-5.5-18t-14.5-10l-256-92h-26.957v229.696l254.957 79.304ZM201.869-306.652Zm392.479-21.435Zm-392.479 21.435Zm89.522 0Z"/></svg>