<svg xmlns="http://www.w3.org/2000/svg" height="24" viewBox="0 -960 960 960" width="24"><path d="M214.538-360h34.154l29.077-79.692h112L418.846-360h35.692L347.462-640h-25.847L214.538-360Zm74.154-107.385L331.769-588h4l43.077 120.615h-90.154ZM333.769-240q-100.077 0-170.038-69.961Q93.769-379.923 93.769-480q0-100.077 69.962-170.039Q233.692-720 333.769-720q78.846 0 141.192 46.23 62.347 46.231 84.962 121L537.462-640h35.692l51.077 219.385h2l58-219.385h33.231l58 219.385h2.461L829-640h37.231l-70.923 280h-33.692l-60-225.385h-2L640.077-360h-32.154l-38.769-159.077q20 109.616-51.616 194.347Q445.923-240 333.769-240Z"/></svg>