<svg xmlns="http://www.w3.org/2000/svg" height="20" viewBox="0 -960 960 960" width="20"><path d="m640-174 145-145q11-11 25.5-11t25.5 10.941q11 10.941 11 25.53 0 14.588-11 25.529L665-97q-10.636 11-24.818 11Q626-86 615-97l-86-86q-11-11-10.5-25.5T530-234q11-11 25.5-11t25.5 11l59 60ZM372-321l-32 32q-11 11-25 10.5T290-290q-11-11-11-25.5t11-25.5l31-31-32-32q-11-11-10.5-25.5T290-455q11-11 25.5-11t25.5 11l31 32 32-32q11-11 25.5-11t25.5 11q11 11 11 25.5T455-404l-32 32 32 32q11 11 11 25t-11 25q-11 11-25.5 11T404-290l-32-31ZM216.372-96q-29.854 0-51.113-21.15T144-168v-528q0-29 21.5-50.5T216-768h72v-60q0-15.3 10.289-25.65 10.29-10.35 25.5-10.35Q339-864 349.5-853.65 360-843.3 360-828v60h240v-60q0-15.3 10.289-25.65 10.29-10.35 25.5-10.35Q651-864 661.5-853.65 672-843.3 672-828v60h72q30 0 50.5 21.5T816-696v244l-72 72v-148H216v360h226.444L514-96H216.372ZM216-600h528v-96H216v96Zm0 0v-96 96Z"/></svg>