<svg xmlns="http://www.w3.org/2000/svg" height="20" viewBox="0 -960 960 960" width="20"><path d="M480-403q-60 0-110.5 31T290-288h380q-29-53-79.5-84T480-403ZM315-508l34-34 34 34 34-34-34-34 34-34-34-34-34 34-34-34-34 34 34 34-34 34 34 34Zm263 0 34-34 34 34 34-34-34-34 34-34-34-34-34 34-34-34-34 34 34 34-34 34 34 34ZM479.953-76.782q-82.91 0-156.301-31.413-73.392-31.413-128.718-86.739-55.326-55.326-86.739-128.765-31.413-73.438-31.413-156.348 0-83.91 31.413-156.801 31.413-72.892 86.739-128.218 55.326-55.326 128.765-86.739 73.438-31.413 156.348-31.413 83.91 0 156.801 31.413 72.892 31.413 128.218 86.739 55.326 55.326 86.739 128.265 31.413 72.938 31.413 156.848 0 82.91-31.413 156.301-31.413 73.392-86.739 128.718-55.326 55.326-128.265 86.739-72.938 31.413-156.848 31.413ZM480-480Zm0 305.217q126.609 0 215.913-89.304Q785.217-353.391 785.217-480q0-126.609-89.304-215.913Q606.609-785.217 480-785.217q-126.609 0-215.913 89.304Q174.783-606.609 174.783-480q0 126.609 89.304 215.913Q353.391-174.783 480-174.783Z"/></svg>