<svg xmlns="http://www.w3.org/2000/svg" height="20" viewBox="0 -960 960 960" width="20"><path d="M527-290.355q0 22.355 4 42.855 4 20.5 12 40.5l-12 12q-11 11-23.836 16-12.836 5-27 5T453-179q-13-5-24-16L56-568q-11-11-16-24t-5-27.062q0-15.938 6.5-29.996Q48-663.116 61-674q85-70 197-106t222-36q110 0 222 36t197 106q13 11 19.5 25.208Q925-634.583 925-619q0 14-5 27t-16 24l-54 54q-20-7-40-10.5t-42-3.5h-5l91-91q-81-61-175.764-93Q583.472-744 480-744t-198.236 32Q187-680 106-619l148 148q49-40 106.185-60.5Q417.369-552 480-552q48.3 0 93.15 12.5Q618-527 660-503q-60 29-96.5 86T527-290.355ZM672-144q-10.2 0-17.1-6.9-6.9-6.9-6.9-17.1v-144q0-10.2 6.9-17.1 6.9-6.9 17.1-6.9h24v-48q0-29.7 21.212-50.85 21.213-21.15 51-21.15Q798-456 819-434.85q21 21.15 21 50.85v48h24q10.2 0 17.1 6.9 6.9 6.9 6.9 17.1v144q0 10.2-6.9 17.1-6.9 6.9-17.1 6.9H672Zm60-192h72v-48q0-15.3-10.289-25.65-10.29-10.35-25.5-10.35Q753-420 742.5-409.65 732-399.3 732-384v48Z"/></svg>