<svg xmlns="http://www.w3.org/2000/svg" height="20" viewBox="0 -960 960 960" width="20"><path d="M493.154-336.509q0 26.889 6.308 51.66 6.307 24.772 17.384 47.08l-13.538 13.538q-5.616 5.616-11.321 7.154-5.704 1.539-12 1.539-6.295 0-11.987-1.539-5.692-1.538-11.308-7.154L85.231-595.692q-5.616-5.616-7.539-11.436-1.923-5.821-1.923-12.704 0-8.091 3.423-14.995 3.423-6.905 10.27-12.25 87.307-63.846 184.307-96.385Q370.769-776 480-776t206.231 32.538q97 32.539 184.308 96.385 6.846 5.461 10.269 12.516t3.423 14.792q0 7.077-1.923 12.769t-7.539 11.308l-43.23 43.231q-8.462-2.385-15.77-4.346-7.308-1.962-15.462-3.5h-5L854-619q-81-61-175.764-93Q583.472-744 480-744t-198.236 32Q187-680 106-619l148 148q49-40 106.185-60.5Q417.369-552 480-552q28.646 0 55.246 4.423T590-533q-45.384 35.923-71.115 86.769-25.731 50.847-25.731 109.722Zm154.443 135.586q-8.874 0-15.005-6.015-6.13-6.016-6.13-14.908v-131.872q0-8.482 6.015-14.613 6.015-6.13 14.908-6.13h27.846v-48q0-26.623 18.135-44.697 18.136-18.073 44.847-18.073 26.71 0 44.633 18.073 17.923 18.074 17.923 44.697v48h27.847q8.238 0 13.811 6.015T848-353.538v131.872q0 8.482-6.003 14.613-6.003 6.13-14.877 6.13H647.597ZM702-374.461h72v-48q0-15.3-10.289-25.65-10.29-10.35-25.5-10.35-15.211 0-25.711 10.35-10.5 10.35-10.5 25.65v48Z"/></svg>