<svg xmlns="http://www.w3.org/2000/svg" height="20" viewBox="0 -960 960 960" width="20"><path d="m520-531 120 120-186 186q-16 14-36.5 15.5T383-222l-8-8-38 38q-4 4-8.22 6-4.21 2-9.72 2H284q-7.58 0-10.29-9-2.71-9 2.64-14.35L337-268l-6-6q-15-14-14-35.5t17-35.5l186-186Zm15-15 191-191q15-15 37-15t36.84 14.84l46.32 46.32Q861-676 861-654q0 22-15 37L655-426 535-546ZM398-792q-4.25 0-7.12-2.82-2.88-2.83-2.88-7 0-4.18 2.88-7.18 2.87-3 7.12-3h248q5.64 0 8.32 3.07 2.68 3.07 2.68 6.75t-3 6.93q-3 3.25-7 3.25H398ZM254-680q-4.25 0-7.12-2.82-2.88-2.83-2.88-7 0-4.18 2.88-7.18 2.87-3 7.12-3h280q5.64 0 8.32 3.07 2.68 3.07 2.68 6.75t-3 6.93q-3 3.25-7 3.25H254ZM110-568q-4.25 0-7.12-2.82-2.88-2.83-2.88-7 0-4.18 2.88-7.18 2.87-3 7.12-3h312q5.64 0 8.32 3.07 2.68 3.07 2.68 6.75t-3 6.93q-3 3.25-7 3.25H110Z"/></svg>