<svg xmlns="http://www.w3.org/2000/svg" height="24" viewBox="0 -960 960 960" width="24"><path d="M744.846-591.462 629.231-707.077l-85 84.769-56.539-56.308 99.923-100.154q8.923-8.923 19.693-12.884 10.769-3.962 21.923-3.962 11.384 0 22.423 3.962 11.038 3.961 19.731 12.884l61.923 61.924q14.923 14.692 21.885 32.961 6.961 18.269 6.961 38.192 0 13.77-4.269 27.693-4.269 13.923-13.039 26.538ZM290-424.385Q277.384-437 277.384-453.038q0-16.039 12.616-28.654l84.154-84.385 56.538 56.539-85.154 85.153q-12.384 12.616-27.654 12.616-15.269 0-27.884-12.616Zm-75.308 274.693q-8.692-8.923-12.769-20.346t-4.077-23.577q0-12.154 3.961-23.193 3.962-11.038 12.885-19.961l273-272.769-140.846-141.077Q334.231-663 334.615-678.269q.385-15.27 13-27.885 12.385-12.615 28.154-12.231 15.77.385 28.385 13l140.077 140.077 57-57 91.231 91.693q6.615 6.615 6.615 13.769t-6.615 13.769q-6.616 5.846-14.923 5.077-8.308-.769-19.539-10.461l-358 358q-8.923 8.923-19.577 13.269-10.654 4.346-22.577 4.346-11.923 0-23.077-4.077-11.154-4.077-20.077-12.769Z"/></svg>