<svg xmlns="http://www.w3.org/2000/svg" height="24" viewBox="0 -960 960 960" width="24"><path d="M490-171q-31.763 0-54.381-22.5Q413-216 413-247.787t22.596-54.423q22.596-22.636 54.327-22.636L513-347q8-7 18.172-12T552-364q23 0 38.5 16t15.5 39v16.081Q606-274 618.361-261q12.36 13 31.377 13 14.262 0 25.848-8.719Q687.172-265.438 692-279l12-32q8.449-23.127 27.224-38.064Q750-364 774.96-364q10.56-27.045 16.8-56.023Q798-449 798-479.413 798-564 755.5-634.5 713-705 644-746v36.409q0 31.619-22.521 54.135t-54.146 22.516H529v76.652Q529-540 517.5-529t-27.671 11H451.78v65.733q0 21.267-14.268 35.767-14.268 14.5-35.195 14.5-13.317 0-24.817-5.5t-18.248-16.194L297.559-518H259v38.565q0 29.888-19.133 51.099-19.134 21.21-47.867 25.067Q218-303 300-237t190 66Zm77.333-231q-16.291 0-27.312-11.5T529-441q0-16 11.026-27t27.325-11h38.35Q622-479 633-468.105q11 10.894 11 27Q644-425 632.979-413.5T605.667-402h-38.334Zm89.513-116Q638-518 626.5-532.88T621-566l14.211-41.643Q639-619 649-626t21.2-7q18.8 0 30.3 14.769t5.5 32.872l-15 41.925Q687-532 677.577-525q-9.423 7-20.731 7ZM490-46q-91 0-169.987-34.084-78.988-34.083-137.417-92.512T90.084-310.013Q56-389 56-480t34.084-169.987q34.083-78.988 92.512-137.417t137.417-92.512Q399-914 490-914t169.987 34.084q78.988 34.083 137.417 92.512t92.512 137.417Q924-571 924-480t-34.084 169.987q-34.083 78.988-92.512 137.417T659.987-80.084Q581-46 490-46Z"/></svg>