<svg xmlns="http://www.w3.org/2000/svg" height="24" viewBox="0 -960 960 960" width="24"><path d="M480-350.769q10.462 0 17.539-7.077 7.076-7.077 7.076-17.539 0-10.461-7.076-17.538Q490.462-400 480-400q-10.462 0-17.539 7.077-7.076 7.077-7.076 17.538 0 10.462 7.076 17.539 7.077 7.077 17.539 7.077Zm.027-112.308q8.512 0 14.242-5.75 5.731-5.75 5.731-14.25v-146.154q0-8.5-5.758-14.25-5.757-5.75-14.269-5.75t-14.242 5.75q-5.731 5.75-5.731 14.25v146.154q0 8.5 5.758 14.25 5.757 5.75 14.269 5.75ZM480-126.307q-5.462 0-11.462-1t-11.247-3q-118.06-45-187.676-152.654Q200-390.615 200-516v-171.308q0-20.582 11.711-37.048 11.712-16.465 30.289-23.875l215.385-80q11.692-4.231 22.615-4.231 10.923 0 22.615 4.231l215.385 80q18.577 7.41 30.289 23.875Q760-707.89 760-687.308V-516q0 125.385-69.615 233.039-69.616 107.654-187.676 152.654-5.247 2-11.247 3t-11.462 1ZM480-164q104-33 172-132t68-220v-172.077q0-7.692-4.231-13.846-4.23-6.154-11.923-9.231l-215.385-80q-3.846-1.538-8.461-1.538t-8.461 1.538l-215.385 80q-7.693 3.077-11.923 9.231Q240-695.769 240-688.077V-516q0 121 68 220t172 132Zm0-314.462Z"/></svg>