<svg xmlns="http://www.w3.org/2000/svg" height="20" viewBox="0 -960 960 960" width="20"><path d="M468.462-281.538q-79.231-4.616-133.847-61.539Q280-400 280-480q0-83.333 58.333-141.667Q396.667-680 480-680q80 0 136.923 54.231 56.923 54.23 61.539 133.461L646.231-504q-8.936-62-56.224-103T480-648q-70 0-119 49t-49 119q0 63 41.385 110.5Q394.769-322 456-313l12.462 31.462Zm44 143.307q-8.116 1.231-16.231 1.731-8.116.5-16.231.5-70.7 0-133.4-26.839-62.7-26.84-109.8-73.922-47.1-47.082-73.95-109.757Q136-409.194 136-479.866q0-71.673 26.839-133.91 26.84-62.237 73.922-109.365 47.082-47.127 109.757-73.993Q409.194-824 479.866-824q71.673 0 133.91 26.85 62.237 26.85 109.365 73.95 47.127 47.1 73.993 109.3Q824-551.7 824-480q0 7.923-.5 15.846t-.731 15.846L792-458v-22q0-130-91-221t-221-91q-130 0-221 91t-91 221q0 130 91 221t221 91q5 0 11-.5t11-.5l10.462 30.769Zm276.769-2.23L602.462-328.999 561.539-225.23 480-480l254.77 81.539-103.769 39.923 188.538 187.769-30.308 30.308Z"/></svg>