<svg xmlns="http://www.w3.org/2000/svg" height="24" viewBox="0 -960 960 960" width="24"><path d="M453-294q-69-11-115-63t-46-123q0-78.333 54.833-133.167Q401.667-668 480-668q71 0 123 45.5T666-508l-31-9q-12.917-54-55.641-88.5T480-640q-66 0-113 47t-47 113q0 57 35 100t88 56l10 30Zm48 161q-5.25 1-10.5 1H480q-72.21 0-135.72-27.391-63.51-27.392-110.49-74.348-46.98-46.957-74.385-110.435Q132-407.652 132-479.826q0-72.174 27.391-135.732 27.392-63.559 74.348-110.574 46.957-47.016 110.435-74.442Q407.652-828 479.826-828q72.174 0 135.732 27.405 63.559 27.405 110.574 74.385 47.016 46.98 74.442 110.49Q828-552.21 828-480v10q0 5-1 10l-27-8v-12q0-134-93-227t-227-93q-134 0-227 93t-93 227q0 134 93 227t227 93h12l9 27Zm280-16L583-348l-33 100-70-232 232 70-100 33 199 198-30 30Z"/></svg>