<svg xmlns="http://www.w3.org/2000/svg" height="20" viewBox="0 -960 960 960" width="20"><path d="M354.978-366.304q-21.295 0-36.202-14.907-14.907-14.906-14.907-36.202 0-21.295 14.907-36.202 14.907-14.906 36.202-14.906 21.295 0 36.202 14.906 14.907 14.907 14.907 36.202 0 21.296-14.907 36.202-14.907 14.907-36.202 14.907ZM480-240.804q-21.295 0-36.202-14.907-14.907-14.906-14.907-36.202 0-21.295 14.907-36.202 14.907-14.906 36.202-14.906 21.295 0 36.202 14.906 14.907 14.907 14.907 36.202 0 21.296-14.907 36.202-14.907 14.907-36.202 14.907Zm-125.022 125.5q-21.295 0-36.202-14.906-14.907-14.907-14.907-36.202 0-21.296 14.907-36.203 14.907-14.906 36.202-14.906 21.295 0 36.202 14.906 14.907 14.907 14.907 36.203 0 21.295-14.907 36.202-14.907 14.906-36.202 14.906Zm249.805-251q-21.296 0-36.202-14.907-14.907-14.906-14.907-36.202 0-21.295 14.907-36.202 14.906-14.906 36.202-14.906 21.295 0 36.202 14.906 14.906 14.907 14.906 36.202 0 21.296-14.906 36.202-14.907 14.907-36.202 14.907Zm0 251q-21.296 0-36.202-14.906-14.907-14.907-14.907-36.202 0-21.296 14.907-36.203 14.906-14.906 36.202-14.906 21.295 0 36.202 14.906 14.906 14.907 14.906 36.203 0 21.295-14.906 36.202-14.907 14.906-36.202 14.906Zm124.782-125.5q-21.295 0-36.202-14.907-14.906-14.906-14.906-36.202 0-21.295 14.906-36.202 14.907-14.906 36.202-14.906 21.296 0 36.202 14.906 14.907 14.907 14.907 36.202 0 21.296-14.907 36.202-14.906 14.907-36.202 14.907Zm-499.37 0q-21.295 0-36.202-14.907-14.906-14.906-14.906-36.202 0-21.295 14.906-36.202 14.907-14.906 36.202-14.906 21.296 0 36.202 14.906 14.907 14.907 14.907 36.202 0 21.296-14.907 36.202-14.906 14.907-36.202 14.907Zm85.609-428.326 19.761 48h288.87l18.761-48H315.804Zm-41.522 131-46-131H126.304v-214.001h707.392v214.001H731.718l-46.566 131h-410.87Z"/></svg>