<svg xmlns="http://www.w3.org/2000/svg" height="20" viewBox="0 -960 960 960" width="20"><path d="M362.398-423.231q-11.629 0-19.86-8.14-8.23-8.14-8.23-19.769 0-11.629 8.14-19.86t19.769-8.231q11.629 0 19.86 8.141 8.231 8.14 8.231 19.769 0 11.629-8.141 19.86-8.14 8.23-19.769 8.23Zm118.462 120q-11.629 0-19.86-8.14t-8.231-19.769q0-11.629 8.14-19.86 8.141-8.231 19.77-8.231t19.86 8.141q8.23 8.14 8.23 19.769 0 11.629-8.14 19.86-8.14 8.23-19.769 8.23Zm-118.462 120q-11.629 0-19.86-8.14-8.23-8.14-8.23-19.769 0-11.629 8.14-19.86t19.769-8.231q11.629 0 19.86 8.141 8.231 8.14 8.231 19.769 0 11.629-8.141 19.86-8.14 8.23-19.769 8.23Zm236.154-240q-11.629 0-19.86-8.14t-8.231-19.769q0-11.629 8.141-19.86 8.14-8.231 19.769-8.231 11.629 0 19.86 8.141 8.231 8.14 8.231 19.769 0 11.629-8.141 19.86-8.14 8.23-19.769 8.23Zm1.539 240q-11.63 0-19.86-8.14Q572-199.511 572-211.14q0-11.629 8.14-19.86 8.141-8.231 19.769-8.231 11.63 0 19.86 8.141Q628-222.95 628-211.321q0 11.629-8.14 19.86-8.141 8.23-19.769 8.23Zm116.153-120q-11.629 0-19.859-8.14-8.231-8.14-8.231-19.769 0-11.629 8.14-19.86t19.769-8.231q11.629 0 19.86 8.141 8.231 8.14 8.231 19.769 0 11.629-8.14 19.86-8.141 8.23-19.77 8.23Zm-471.538 0q-11.629 0-19.86-8.14t-8.231-19.769q0-11.629 8.141-19.86 8.14-8.231 19.769-8.231 11.629 0 19.86 8.141 8.23 8.14 8.23 19.769 0 11.629-8.14 19.86-8.14 8.23-19.769 8.23Zm49.217-347.231 33.846 78.769h304.462l32.846-78.769H293.923Zm11.308 110.77-46.77-110.77H184v-142.769h592v142.769h-74.461l-44.924 110.77H305.231Z"/></svg>