<svg xmlns="http://www.w3.org/2000/svg" height="20" viewBox="0 -960 960 960" width="20"><path d="m287-329.538 45.077 44.307q4.676 4.462 11.038 4.847 6.363.384 11.808-4.847 5.231-5.437 5.231-11.538t-5.231-11.539l-45.077-44.077 44.308-44.307q4.461-4.676 4.846-11.039.385-6.362-4.846-11.807-5.445-5.231-11.423-5.231t-11.423 5.231L287-375.231l-44.308-44.307q-4.461-4.462-10.538-4.847-6.077-.384-11.308 4.847-5.231 5.445-5.231 11.423t5.231 11.423l43.308 44.307-44.308 44.308q-4.461 4.462-4.846 10.539-.385 6.077 4.846 11.307Q225.505-281 231.769-281t11.923-5.231L287-329.538Zm.774 130.154q-63.62 0-107.697-44.303Q136-287.991 136-351.611q0-63.62 44.303-107.697 44.303-44.077 107.923-44.077 63.62 0 107.697 44.303Q440-414.778 440-351.158q0 63.62-44.303 107.697-44.303 44.077-107.923 44.077Zm277.688-267.847q-10.77 9.231-25.769 17.693-15 8.461-28.077 13.076-3.308-6.384-6.347-12.5-3.038-6.115-6.346-11.73 47.308-19.924 78.808-62.193 31.5-42.269 31.5-100.957 0-73.912-51.693-125.65Q505.846-801.231 432-801.231t-125.538 51.693Q254.769-697.846 254.769-624q0 12.86 2.539 25.93 2.538 13.07 5.077 24.454-9.77.462-16.5 1.77-6.731 1.307-15.27 2.692-3.538-11.61-5.692-25.912-2.154-14.302-2.154-29.135 0-86.722 61.154-147.876Q345.077-833.231 432-833.231t148.077 60.923q61.154 60.923 61.154 148.572 0 39.736-13.98 75.379-13.979 35.643-35.328 61.742L819-260.308q5.616 5.616 5.616 11.154 0 5.539-5.616 11.154-6.385 6.385-11.654 6.385t-11.332-6.017L565.462-467.231Z"/></svg>