<svg xmlns="http://www.w3.org/2000/svg" height="20" viewBox="0 -960 960 960" width="20"><path d="M159.521-303.521v-617.523h347.175v142.61H356.043v48h150.653v-9.609q0 12.695.566 26.826.565 14.13 1.695 26.261H356.043v48h176.775q9.271 7.043 21.184 9.086 11.913 2.044 22.348 6.044l228.651 73.739v246.566h-645.48ZM204.344-8.999q-51.823 0-93.084-38.76-41.261-38.762-41.261-90.585 0-51.824 32.261-84.501 32.261-32.676 84.084-32.676 51.824 0 84.501 32.676 32.676 32.677 32.676 84.501 0 51.823-23.676 90.584-23.677 38.761-75.501 38.761Zm569.312-13q-50.824 0-84.001-32.26-33.176-32.262-33.176-84.085 0-51.824 33.176-84.501 33.177-32.676 84.001-32.676 51.823 0 84.084 32.676 32.261 32.677 32.261 84.501 0 51.823-32.261 84.084t-84.084 32.261Zm-293.656 0q-51.957 0-84.218-32.26-32.261-32.262-32.261-84.085 0-51.824 32.261-84.501 32.261-32.676 84.218-32.676 50.957 0 83.718 32.676 32.761 32.677 32.761 84.501 0 51.823-32.761 84.084T480-21.999Z"/></svg>