<svg xmlns="http://www.w3.org/2000/svg" height="20" viewBox="0 -960 960 960" width="20"><path d="M188-332v-560h296.308v104.615H364.615v38.77h119.693V-717.363q0 14.209.769 25.978H364.615v38.77h130.354q4.493 11 14.223 17 9.731 6 20.731 10l234.385 72.154V-332H188Zm34.09 277q-39.629 0-72.859-30.64Q116-116.28 116-155.91q0-39.629 24.14-63.859Q164.28-244 203.91-244q39.629 0 63.859 24.14Q292-195.72 292-156.09q0 39.629-15.14 70.36Q261.72-55 222.09-55Zm534.001-13q-38.63 0-63.36-24.14Q668-116.28 668-155.91q0-39.629 24.64-63.859Q717.281-244 755.909-244q39.63 0 63.86 24.14Q844-195.72 844-156.09q0 39.629-24.14 63.86Q795.719-68 756.091-68ZM480.09-68q-39.629 0-63.859-24.14Q392-116.28 392-155.91q0-39.629 24.14-63.859Q440.28-244 479.91-244q38.629 0 63.359 24.14Q568-195.72 568-156.09q0 39.629-24.64 63.86Q518.719-68 480.09-68Z"/></svg>