<svg xmlns="http://www.w3.org/2000/svg" height="20" viewBox="0 -960 960 960" width="20"><path d="M153-297v-631h406v220q0 15.972 10.5 28.986Q580-666 595-661l220 66v298H153Zm118-118h426v-92l-133-41q-43-13-70.5-35.5T457-632H353v-48h86q0-8 .5-18.857T441-720h-88v-48h88v-42H271v395Zm0 0ZM172.824-2q-51.177 0-87-35.824Q50-73.647 50-124.823 50-176 85.823-212.5q35.824-36.5 87.001-36.5Q224-249 260.5-212.5t36.5 87.676q0 51.177-36.5 87Q224-2 172.824-2Zm-.035-87Q188-89 198.5-99.29q10.5-10.289 10.5-25.499Q209-140 198.711-150.5q-10.29-10.5-25.5-10.5Q158-161 147.5-150.711q-10.5 10.29-10.5 25.5Q137-110 147.289-99.5q10.29 10.5 25.5 10.5ZM787.176-2Q736-2 699.5-37.824q-36.5-35.823-36.5-87Q663-176 699.5-212.5t87.676-36.5q51.177 0 87.001 36.5Q910-176 910-124.824q0 51.177-35.823 87Q838.353-2 787.176-2Zm-.387-87Q802-89 812.5-99.29q10.5-10.289 10.5-25.499Q823-140 812.711-150.5q-10.29-10.5-25.5-10.5Q772-161 761.5-150.711q-10.5 10.29-10.5 25.5Q751-110 761.289-99.5q10.29 10.5 25.5 10.5ZM480.176-2Q429-2 393-37.824q-36-35.823-36-87Q357-176 392.824-212.5q35.823-36.5 87-36.5Q531-249 567-212.5t36 87.676q0 51.177-35.823 87Q531.353-2 480.176-2Zm-.387-87Q495-89 505.5-99.29q10.5-10.289 10.5-25.499Q516-140 505.711-150.5q-10.29-10.5-25.5-10.5Q465-161 454.5-150.711q-10.5 10.29-10.5 25.5Q444-110 454.289-99.5q10.29 10.5 25.5 10.5ZM173-125Zm307 0Zm307 0Z"/></svg>