<svg xmlns="http://www.w3.org/2000/svg" height="24" viewBox="0 -960 960 960" width="24"><path d="M151.521-311.521v-617.523h343.175v142.61H356.043v40h138.653v10.391q0 6.695 1.066 12.826 1.065 6.13 3.195 12.261H356.043v40h167.775q17.271 19.043 40.184 31.086 22.913 12.044 48.348 20.044l200.651 58.739v249.566h-661.48Zm30.823 297.522q-53.823 0-91.084-37.26-37.261-37.262-37.261-91.085 0-53.824 37.26-91.501 37.262-37.676 91.085-37.676 53.824 0 91.501 37.676 37.676 37.677 37.676 91.501 0 53.823-37.676 91.084-37.677 37.261-91.501 37.261Zm595.312 0q-53.824 0-91.501-37.26-37.676-37.262-37.676-91.085 0-53.824 37.676-91.501 37.677-37.676 91.501-37.676 53.823 0 91.084 37.676 37.261 37.677 37.261 91.501 0 53.823-37.261 91.084t-91.084 37.261Zm-297.656 0q-53.957 0-91.218-37.26-37.261-37.262-37.261-91.085 0-53.824 37.261-91.501 37.261-37.676 91.218-37.676t91.218 37.676q37.261 37.677 37.261 91.501 0 53.823-37.261 91.084T480-13.999Z"/></svg>