<svg xmlns="http://www.w3.org/2000/svg" height="24" viewBox="0 -960 960 960" width="24"><path d="M145-305v-631h361v160H353v40h153v3q0 8 1.5 15t4.5 14H353v40h192.213Q565-648 589-639t49 17l185 57v260H145ZM168.765 6Q112 6 73-33t-39-95.765q0-56.764 39-96.5Q112-265 168.765-265q56.764 0 96.5 39.735Q305-185.529 305-128.765 305-72 265.265-33q-39.736 39-96.5 39Zm622.47 0q-56.764 0-96.5-39Q655-72 655-128.765q0-56.764 39.735-96.5Q734.471-265 791.235-265 848-265 887-225.265q39 39.736 39 96.5Q926-72 887-33T791.235 6ZM480 6q-57 0-96-39t-39-95.765q0-56.764 39-96.5Q423-265 480-265t96 39.735q39 39.736 39 96.5Q615-72 576-33T480 6Z"/></svg>