<svg xmlns="http://www.w3.org/2000/svg" height="24" viewBox="0 -960 960 960" width="24"><path d="M156.413-316.413v-607.413h371v185.5q0 25.181 15.424 45.699 15.424 20.518 39.511 27.04L805.5-602.674v286.261H156.413Zm91-91H714.5v-125.609l-158.022-45.282q-39.348-11.196-67.065-37.413-27.717-26.218-41.239-60.457h-89.848v-40h81.609q-2-11.043-2.381-18.77-.38-7.727-1.141-19.317h-78.087v-40h78.087v-38.565h-189v425.413Zm0 0ZM192.545-29q-51.477 0-87.511-36.034T69-152.545q0-51.477 36.034-87.672 36.034-36.196 87.511-36.196t87.672 36.196q36.196 36.195 36.196 87.672t-36.196 87.511Q244.022-29 192.545-29Zm.042-83.587q17 0 28.5-11.5t11.5-28.5q0-17-11.5-28.5t-28.5-11.5q-17 0-28.5 11.5t-11.5 28.5q0 17 11.5 28.5t28.5 11.5ZM767.455-29q-51.477 0-87.672-36.034-36.196-36.034-36.196-87.511t36.196-87.672q36.195-36.196 87.672-36.196t87.511 36.196Q891-204.022 891-152.545t-36.034 87.511Q818.932-29 767.455-29Zm-.042-83.587q17 0 28.5-11.5t11.5-28.5q0-17-11.5-28.5t-28.5-11.5q-17 0-28.5 11.5t-11.5 28.5q0 17 11.5 28.5t28.5 11.5ZM480.042-29q-51.477 0-87.553-36.034t-36.076-87.511q0-51.477 36.034-87.672 36.034-36.196 87.511-36.196t87.553 36.196q36.076 36.195 36.076 87.672t-36.034 87.511Q531.519-29 480.042-29ZM480-112.587q17 0 28.5-11.5t11.5-28.5q0-17-11.5-28.5t-28.5-11.5q-17 0-28.5 11.5t-11.5 28.5q0 17 11.5 28.5t28.5 11.5Zm-287.413-40Zm287.413 0Zm287.413 0Z"/></svg>