<svg xmlns="http://www.w3.org/2000/svg" height="20" viewBox="0 -960 960 960" width="20"><path d="M200-292v70q0 .833-.618 1.417-.617.583-1.5.583-.882 0-1.382-.583-.5-.584-.5-1.417v-263.889q0-4.704 1-9.407 1-4.704 2.766-10.937l64.427-154.311q5.702-14.234 18.675-22.845Q295.842-692 311-692h121v-21.789q0-10.961 7.475-18.586Q446.95-740 458-740h48q11.05 0 18.525 7.475Q532-725.05 532-714v22h117q15.158 0 28.132 8.611 12.973 8.611 18.675 22.845l64.427 154.311Q762-500 763-495.296q1 4.703 1 9.407V-222q0 .833-.618 1.417-.617.583-1.5.583-.882 0-1.382-.583-.5-.584-.5-1.417v-70H200Zm21-200h519l-62-159q-4-10-12-15.5t-19-5.5H314q-11 0-19 5.5T283-651l-62 159Zm-5 20v160-160Zm92.235 108Q320-364 328-372.235q8-8.236 8-20Q336-404 327.765-412q-8.236-8-20-8Q296-420 288-411.765q-8 8.236-8 20Q280-380 288.235-372q8.236 8 20 8Zm344 0Q664-364 672-372.235q8-8.236 8-20Q680-404 671.765-412q-8.236-8-20-8Q640-420 632-411.765q-8 8.236-8 20Q624-380 632.235-372q8.236 8 20 8ZM216-312h528v-160H216v160Z"/></svg>