<svg xmlns="http://www.w3.org/2000/svg" height="24" viewBox="0 -960 960 960" width="24"><path d="M186.434-43.824q-44.305 0-75.153-30.848-30.848-30.849-30.848-75.154h181.391q-86.652-57.739-137.804-144.283-51.152-86.543-51.152-197.978 0-84.087 32.261-158.174t87.435-129.261q55.174-55.174 129.262-87.435Q395.913-899.218 480-899.218t158.174 32.261q74.088 32.261 129.262 87.435 55.174 55.174 87.435 129.261 32.261 74.087 32.261 158.174 0 111.435-51.152 197.978-51.152 86.544-137.804 144.283h181.391q0 44.305-30.848 75.154-30.848 30.848-75.153 30.848H186.434Zm90.304-311.002H445.13v-52.565h-86.217l-.434-1.435q12.651-12.652 25.304-24.804 12.652-12.152 22.347-21.848 18-19.131 27.783-37.131 9.783-18 9.783-39.261 0-32.652-23.326-55.478-23.327-22.826-60.457-22.826-40.131 0-60.587 22.413-20.457 22.413-26.283 40.196l51.435 20.522q1.565-6.522 9.696-17.827 8.13-11.304 24.739-11.304 17.347 0 22.413 9.674 5.065 9.674 5.065 15.5 0 10.826-5.826 21.87-5.827 11.043-23.653 28.609-10.13 10.565-32.652 31.673-22.522 21.109-47.522 44.978v49.044Zm300.653 5q49.522 0 78.697-38.174 29.174-38.174 29.174-92t-29.674-92q-29.675-38.174-78.197-38.174-49.521 0-78.413 38.174-28.891 38.174-28.891 92t28.891 92q28.892 38.174 78.413 38.174Zm0-54.565q-23.739 0-36.456-20.957-12.717-20.956-12.717-54.652 0-27.391 11-51.5t38.173-24.109q27.174 0 38.457 24.109 11.282 24.109 11.282 51.5 0 33.696-12.717 54.652-12.717 20.957-37.022 20.957Z"/></svg>