<svg xmlns="http://www.w3.org/2000/svg" height="24" viewBox="0 -960 960 960" width="24"><path d="M159.231-100v-220q0-41.539 29.23-70.769Q217.692-420 259.231-420h80q58.461 0 99.23-40.769 40.77-40.77 40.77-99.231 0-24.692-17.654-42.346Q443.923-620 419.231-620q-25.308 0-42.654-17.346-17.346-17.346-17.346-42.654v-180H400v180q0 8.461 5.385 14.231Q410.769-660 419.231-660q41.538 0 70.769 29.231 29.231 29.23 29.231 70.769 0 74.539-52.731 127.269Q413.769-380 339.231-380h-80q-24.693 0-42.346 17.654-17.654 17.654-17.654 42.346v220h-40ZM320-100h-40v-60q0-41.539 29.231-70.769Q338.462-260 380-260h160q91.462 0 155.731-64.269Q760-388.539 760-480v-40q0-89.154-57.731-154.577T557.692-740q-32.23 0-54.961-23.115Q480-786.231 480-817.692V-860h40v42.308q0 15.384 11.154 26.538T557.692-780q103.923 0 173.116 76.885Q800-626.231 800-520v40q0 108.539-75.731 184.269Q648.539-220 540-220H380q-24.692 0-42.346 17.654Q320-184.692 320-160v60Zm-120.769 0v-220q0-24.692 17.654-42.346Q234.538-380 259.231-380h80q74.538 0 127.269-52.731 52.731-52.73 52.731-127.269 0-41.539-31.539-70.769Q456.154-660 400-660v-200 200q56.154 0 87.692 29.231 31.539 29.23 31.539 70.769 0 74.539-52.731 127.269Q413.769-380 339.231-380h-80q-24.693 0-42.346 17.654-17.654 17.654-17.654 42.346v220Z"/></svg>