<svg xmlns="http://www.w3.org/2000/svg" height="24" viewBox="0 -960 960 960" width="24"><path d="M139.617-90v-230q0-45.769 32.115-77.884t77.884-32.115h80q54.231 0 92.116-37.885T459.617-560q0-20.846-14.577-35.424-14.577-14.577-35.424-14.577-29.153 0-49.576-20.423-20.423-20.422-20.423-49.576v-189.999H400V-680q0 4.231 2.693 7.116 2.692 2.885 6.923 2.885 45.769 0 77.884 32.115T519.615-560q0 78.769-55.615 134.384-55.615 55.615-134.384 55.615h-80q-20.846 0-35.423 14.577-14.578 14.578-14.578 35.424v230h-59.998Zm200.382 0H280v-70q0-45.769 32.115-77.884t77.884-32.115h160q87.231 0 148.616-61.385Q760-392.769 760-480v-40q0-86.077-58.115-148.039-58.116-61.962-143.039-61.962-32.615 0-55.731-23.307Q480-776.616 480-808.847v-61.152h59.999v61.152q0 7.693 5.577 13.27 5.577 5.578 13.27 5.578 110.461 0 185.807 79.192Q819.999-631.615 819.999-520v40q0 112.769-78.616 191.384-78.615 78.615-191.384 78.615h-160q-20.846 0-35.423 14.577-14.577 14.578-14.577 35.424v70Zm-140.384 0v-230q0-20.846 14.578-35.424 14.577-14.577 35.423-14.577h80q78.769 0 134.384-55.615Q519.615-481.231 519.615-560q0-45.769-33.269-77.884T400-669.999v-200 200q53.077 0 86.346 32.115 33.269 32.115 33.269 77.884 0 78.769-55.615 134.384-55.615 55.615-134.384 55.615h-80q-20.846 0-35.423 14.577-14.578 14.578-14.578 35.424v230Z"/></svg>