<svg xmlns="http://www.w3.org/2000/svg" height="24" viewBox="0 -960 960 960" width="24"><path d="M93.999-67v-268.827q0-51.13 36.13-86.978 36.131-35.848 87.261-35.848h106.567q40.391 0 68.042-21.999 27.652-22 27.652-60.695 0-19.261-13.196-32.457-13.195-13.195-32.456-13.195-33 0-56.5-23.5t-23.5-56.5v-226.002H400v201.131q55.652 6.218 90.652 49.696 35 43.479 35 100.827 0 82.435-58.5 135.565-58.5 53.13-143.195 53.13H217.39q-7.391 0-12.39 5-5 5-5 12.39v268.263H93.999ZM386-67H280v-91.304q0-51.131 35.848-87.261 35.848-36.131 87.543-36.131h169.61q78.478 0 132.738-56.521Q760-394.739 760-474.348v-40q0-77.912-49.173-135.282-49.174-57.369-124.26-57.369-44.305 0-75.436-30.849Q480-768.696 480-813.001v-80h106.001v80.566q119.261 5.087 199.631 91.674 80.369 86.587 80.369 206.413v40q0 123.783-84.891 211.219-84.892 87.435-208.109 87.435h-169.61q-7.39 0-12.39 4.999-5 5-5 12.391v91.305ZM200-67v-268.262q0-7.39 5-12.39 4.999-5 12.39-5h106.567q84.695 0 143.195-53.13t58.5-135.565q0-56.218-35-100.262-35-44.043-90.652-50.261v-201.131 201.131q55.652 6.218 90.652 50.261 35 44.044 35 100.262 0 82.435-58.5 135.565-58.5 53.13-143.195 53.13H217.39q-7.391 0-12.39 5-5 5-5 12.39v268.263Z"/></svg>