<svg xmlns="http://www.w3.org/2000/svg" height="24" viewBox="0 -960 960 960" width="24"><path d="M788.923-114.461 633.231-269.692q-26.539 11.769-65.885 20.731Q528-240 480-240q-131 0-238.231-71.577T83.077-500q23.307-53 61.461-99.269 38.154-46.269 81.462-77.654l-111.539-112 28.308-28.308 674.462 674.462-28.308 28.308ZM480-353.846q14.077 0 30.885-3.308 16.807-3.307 26.269-8.615L345.769-557.154q-5.308 11-8.615 27.423-3.308 16.423-3.308 29.731 0 61.154 42.5 103.654 42.5 42.5 103.654 42.5Zm264.308 22.615L620.385-454.154q2.384-8.538 4.077-20.269 1.692-11.731 1.692-25.577 0-61.154-42.5-103.654-42.5-42.5-103.654-42.5-13.846 0-24.808 2.077-10.961 2.077-20.269 6.231l-98.154-97.385q34.846-13.154 70.923-18.962Q443.769-760 480-760q130.231 0 238.231 71.577T876.923-500q-21.461 48.231-54.346 90.654-32.884 42.423-78.269 78.115ZM587.769-486 467-606q24.923-5 48.423 3.346 23.5 8.346 40.5 25.577 17.769 17.231 26.423 41.115Q591-512.077 587.769-486Z"/></svg>