<svg xmlns="http://www.w3.org/2000/svg" height="20" viewBox="0 -960 960 960" width="20"><path d="M610.846-451.154 575-487q4-43.385-25.692-68.192Q519.615-580 487-576l-35.846-35.846q6.077-1.154 13.538-1.731 7.462-.577 15.308-.577 56.154 0 95.154 39 39 39 39 95.154 0 7.846-.577 16.077-.577 8.231-2.731 12.769Zm131.462 129.923L718-344q36-28 65.5-61.5T833-480q-49-101-144.5-158.5T480-696q-26 0-51 3t-49 10l-27.231-27.231q31.846-11.154 64.423-14.462Q449.769-728 480-728q122.231 0 230.731 65.577T868.923-480q-20.461 46.231-52.346 84.654-31.884 38.423-74.269 74.115Zm22.615 172.77L647.231-267.692q-29.539 14.769-72.885 25.231Q531-232 480-232q-123 0-230.731-65.577T91.077-480q24.307-57 66.461-104.769 42.154-47.769 92.462-81.154l-101.539-100 23.308-23.308 616.462 617.462-23.308 23.308ZM273.307-641.615Q232.923-615.154 191-572.808 149.077-530.461 127-480q49 101 144.5 158.5T480-264q40.615 0 81.769-7.731 41.154-7.73 63.846-17.577L551.385-362q-12.462 7.308-33.385 11.731t-38 4.423q-56.154 0-95.154-39-39-39-39-95.154 0-16.308 5.423-36.846 5.423-20.539 10.731-34.539l-88.693-90.23ZM528-528Zm-57.539 77.539Z"/></svg>