<svg xmlns="http://www.w3.org/2000/svg" height="20" viewBox="0 -960 960 960" width="20"><path d="M766.461-119.233 642.616-243.848q-33.769 12.385-75.192 22.116Q526-212.001 480-212.001q-132.999 0-246.114-71.538Q120.771-355.078 69.54-480q18.154-52 61.231-101.885 43.077-49.884 89.231-85.576l-100.769-100 37.153-37.153 647.228 648.228-37.153 37.153ZM480-328.924q15.539 0 33.193-4.154 17.654-4.154 30.885-9.308L342.386-544.078q-4.154 14-8.808 31.462T328.924-480q0 63.076 44 107.076 44 44 107.076 44Zm276.153 22.308L624.691-438.078q2.693-8.769 4.539-19.884 1.846-11.115 1.846-22.038 0-63.076-44-107.076-44-44-107.076-44-10.923 0-21.153 1.539-10.231 1.538-20.384 4.615L337.386-725.614q34.923-13.077 70.961-17.731 36.038-4.654 71.653-4.654 132.615 0 246.114 71.538Q839.614-604.922 890.46-480q-21.231 51.615-55.423 94.076-34.192 42.461-78.884 79.308ZM575.385-487 487-576q18.461-2 34.461 3.923t30 19.538q12.385 11.616 18.962 29.308T575.385-487Z"/></svg>