<svg xmlns="http://www.w3.org/2000/svg" height="20" viewBox="0 -960 960 960" width="20"><path d="M566.391-76.782q-82.677 0-156.148-31.935-73.472-31.936-128.335-86.8-54.864-54.863-86.8-128.335Q163.172-397.323 163.172-480q0-83.071 31.936-156.346 31.936-73.274 86.8-128.137 54.863-54.864 128.335-86.8 73.471-31.935 156.148-31.935 54.057 0 114.029 16.739 59.972 16.739 116.408 53.808-96.479 58.758-153.849 146.758-57.37 88-57.37 185.913 0 97.913 57.37 185.913 57.37 88 153.849 146.758-56.436 37.069-116.408 53.808-59.972 16.74-114.029 16.74Z"/></svg>