<svg xmlns="http://www.w3.org/2000/svg" height="20" viewBox="0 -960 960 960" width="20"><path d="M566.619-76.782q-82.664 0-156.256-31.935-73.592-31.936-128.455-86.8-54.864-54.863-86.8-128.382Q163.172-397.417 163.172-480q0-83.071 31.936-156.346 31.936-73.274 86.8-128.137 54.863-54.864 128.455-86.8 73.592-31.935 156.256-31.935 53.829 0 113.801 16.739t116.408 53.808q-96.479 58.758-153.849 146.758-57.37 88-57.37 185.913 0 97.913 57.37 185.913 57.37 88 153.849 146.758-56.436 37.069-116.408 53.808-59.972 16.74-113.801 16.74Zm-.228-98.001q9.174 0 19.76-1.283 10.587-1.282 20.326-2.152-55.304-63.304-87.086-140.805-31.783-77.502-31.783-161.109 0-83.607 31.783-161.485 31.782-77.878 87.086-140.165-9.739-.87-20.608-2.152-10.87-1.283-19.478-1.283-126.284 0-215.75 89.246-89.467 89.246-89.467 216.196 0 126.949 89.467 215.97 89.466 89.022 215.75 89.022ZM487.608-480Z"/></svg>