<svg xmlns="http://www.w3.org/2000/svg" height="20" viewBox="0 -960 960 960" width="20"><path d="M596-136q-71.028 0-133.691-27.039-62.664-27.04-109.447-73.823-46.783-46.783-73.823-109.447Q252-408.972 252-479.757q0-71.648 27.163-134.232 27.163-62.583 73.714-109.134 46.55-46.551 109.488-73.714Q525.303-824 596-824q29.692 0 56.923 4.038 27.231 4.039 55.077 16.522-70.307 60.594-111.154 145.132Q556-573.769 556-480q0 93.769 40.846 178.308Q637.693-217.154 708-156.56q-27.846 12.483-55.077 16.522Q625.692-136 596-136Zm0-32q12 0 24-1t24-3q-57-65-88.5-143.632t-31.5-164.5q0-85.868 31.5-164.877Q587-724.017 644-788q-12-2-24-3t-24-1q-129.675 0-220.838 91.23Q284-609.541 284-479.77 284-350 375.162-259 466.325-168 596-168Zm-72-312Z"/></svg>