<svg xmlns="http://www.w3.org/2000/svg" height="24" viewBox="0 -960 960 960" width="24"><path d="m236.413-199.674 73.261-29.609q-9.044-26.369-16.707-53.619t-12.424-54.619l-44.13 30.086v107.761Zm164.783-41.522h157.608q17.761-42.63 28.522-98.337 10.761-55.706 10.761-114.989 0-97.326-31.685-184.271Q534.717-725.739 480-775.652q-54.717 49.913-86.402 136.859-31.685 86.945-31.685 184.271 0 59.283 10.761 114.989 10.761 55.707 28.522 98.337Zm78.804-200q-32.283 0-55.185-23.021-22.902-23.022-22.902-55.305 0-32.282 22.902-55.184 22.902-22.903 55.185-22.903t55.185 22.903q22.902 22.902 22.902 55.184 0 32.283-22.902 55.305-22.902 23.021-55.185 23.021Zm243.587 241.522v-107.761l-44.13-30.086q-4.761 27.369-12.424 54.619-7.663 27.25-16.707 53.619l73.261 29.609ZM480-895.587q105.218 79.174 157.152 192.565 51.935 113.392 51.935 259.674V-440l84.718 56.478q19.152 12.435 29.967 32.826 10.815 20.392 10.815 43.261v242.022L603.63-150.195H356.37L145.413-65.413v-242.022q0-22.869 10.815-43.261 10.815-20.391 29.967-32.826L270.913-440v-2.63q0-146.761 51.935-260.272Q374.782-816.413 480-895.587Z"/></svg>