<svg xmlns="http://www.w3.org/2000/svg" height="20" viewBox="0 -960 960 960" width="20"><path d="M157.52-85.52v-252.87q0-23.783 10.109-44.653 10.109-20.87 29.196-33.827l58.261-45.26q6.565 74.652 23.761 148.435 17.196 73.783 45.891 146.827L157.52-85.52Zm215.306-111.262q-32.696-78.392-47.261-149.979-14.566-71.587-14.566-141.718 0-117.434 35.392-232.326Q381.782-835.696 480-915.61q98.218 79.914 133.609 194.805 35.392 114.892 35.392 232.326 0 70.696-15.066 142.283-15.065 71.587-46.761 149.414H372.826ZM480-482.826q28.304 0 47.891-19.87 19.587-19.869 19.587-48.174 0-28.304-19.587-47.891T480-618.348q-28.304 0-47.891 19.587t-19.587 47.891q0 28.305 19.587 48.174 19.587 19.87 47.891 19.87ZM802.48-85.52l-167.218-81.348q28.695-73.044 46.391-146.827 17.696-73.783 23.261-148.435l58.261 45.26q19.087 12.957 29.196 33.827 10.109 20.87 10.109 44.653v252.87Z"/></svg>