<svg xmlns="http://www.w3.org/2000/svg" height="20" viewBox="0 -960 960 960" width="20"><path d="m284.769-209.923 93-44.462q-12.077-40-20.346-80.884-8.269-40.885-12.5-83.423l-49.385 37.077q-5.384 3.846-8.077 8.846-2.692 5-2.692 11.154v151.692ZM408-264h144q16-55.461 26-102.961t10-99.808q0-79.539-17.115-152.231Q553.769-691.692 480-776.769q-73.769 86.077-90.885 158.269Q372-546.308 372-466.769q0 52.308 10.5 99.808Q393-319.461 408-264Zm72-212q-22.308 0-37.154-14.846Q428-505.692 428-528q0-22.308 14.846-37.154Q457.692-580 480-580q22.308 0 37.154 14.846Q532-550.308 532-528q0 22.308-14.846 37.154Q502.308-476 480-476Zm195.231 266.077v-150.923q0-6.154-2.692-11.538-2.693-5.385-8.077-9.231l-49.385-37.077q-4.231 42.538-14.423 91.5-10.192 48.961-18.423 73.577l93 43.692ZM480-815.539Q558.846-757 589.423-666.846 620-576.692 620-501.538q0 10.615.385 21.615.384 11-.385 22.385l65.385 52.769q9.923 8.692 15.885 19.731 5.961 11.038 5.961 24.192v208.692l-152-79.846H404l-151.231 79.846v-209.461q0-13.154 5.077-24.693 5.077-11.538 16-19.23L340-458.308v-43.23q0-75.154 31.077-165.308T480-815.539Z"/></svg>