<svg xmlns="http://www.w3.org/2000/svg" height="24" viewBox="0 -960 960 960" width="24"><path d="m817.218-252.521-80.914-80.914q8.174-21.347 12.544-44.173 4.369-22.826 4.369-46.565 0-113.739-79.739-193.478T480-697.39q-22.87 0-45.913 3.869-23.043 3.87-45.825 12.609l-80.914-80.914q39.13-20.565 82.761-31.065 43.63-10.5 89.891-10.5 63.391 0 122.587 20 59.196 20 109.631 58.565l28.565-28.565q14.391-14.392 34.5-14.392t34.501 14.392q14.391 14.391 14.391 34.5t-14.391 34.5l-28.566 28.565q38 49.87 58 109.066 20 59.195 20 122.587 0 45.391-10.5 88.022-10.5 42.63-31.5 83.63ZM528.479-540.695v-45.174q0-17-11.5-28.5t-28.5-11.5q-9.435 0-17.652 3.718-8.218 3.717-13.218 10.586l70.87 70.87ZM480-45.52q-78.522 0-147.413-29.913-68.892-29.913-120.436-81.174-51.543-51.261-81.456-120.153-29.913-68.891-29.913-147.413 0-61.131 18.5-118.326 18.5-57.196 53.5-105.022l-92.174-92.173q-12.695-12.696-12.413-30.827.283-18.13 12.979-30.826Q93.869-814.043 112-814.043q18.13 0 30.826 12.696L820-124.738q12.696 12.695 12.696 30.826 0 18.13-12.696 30.826-12.696 12.696-31.109 12.696-18.413 0-31.109-12.696l-54.999-54.434q-48 35-104.913 53.5T480-45.52Zm0-106.001q39.739 0 76.065-11.022t69.065-31.63l-376-376.565q-20.608 33.305-31.478 70.478-10.869 37.174-10.869 76.087 0 113.739 79.739 193.195Q366.261-151.521 480-151.521ZM390.956-840q-20.391 0-34.435-14.326-14.044-14.326-14.044-34.718 0-20.391 14.044-34.435 14.044-14.044 34.435-14.044h178.088q20.391 0 34.435 14.044 14.044 14.044 14.044 34.435 0 20.392-14.044 34.718Q589.435-840 569.044-840H390.956Zm46.392 457.045Zm125.435-124.436Z"/></svg>