<svg xmlns="http://www.w3.org/2000/svg" height="24" viewBox="0 -960 960 960" width="24"><path d="m768.769-304-30-30q11-26.231 16.116-52.731Q760-413.231 760-440q0-116-82-198t-198-82q-24 0-52.538 5-28.539 5-53.693 16l-30-30q31.346-15.122 66.404-23.061Q445.231-760 480-760q56.571 0 110.786 20.384Q645-719.231 691.385-680.462L720.923-710q5.616-5.616 13.77-6 8.153-.385 14.538 6 6.385 6.384 6.385 14.154 0 7.769-6.385 14.154l-29.538 29.538q38.769 46.385 59.538 100.852Q800-496.835 800-440q0 34.308-7.807 69.269-7.808 34.962-23.424 66.731ZM500-572.769v-31.846q0-8.5-5.75-14.25t-14.25-5.75q-6.011 0-11.121 4t-7.033 9.692L500-572.769ZM480-120q-65.948 0-124.32-25.038-58.372-25.039-101.988-68.654-43.615-43.616-68.654-101.988Q160-374.052 160-440q0-61.538 21.961-117.423 21.962-55.885 63.885-100.115L119.384-784q-5.615-5.615-6-13.769-.384-8.154 6-14.539 6.385-6.384 14.154-6.384 7.77 0 14.154 6.384l664.616 664.616q5.615 5.615 6 13.769.384 8.154-6 14.539Q805.923-113 798.154-113T784-119.384l-86.462-86.462q-42.615 40.385-99.653 63.116Q540.846-120 480-120Zm0-40q51.269 0 100.096-19.538 48.827-19.539 88.442-55.077L274.154-629q-35.539 38.077-54.846 86.539Q200-494 200-440q0 116 82 198t198 82Zm-84.615-700q-8.5 0-14.25-5.758-5.75-5.757-5.75-14.269t5.75-14.242q5.75-5.731 14.25-5.731h169.23q8.5 0 14.25 5.758 5.75 5.757 5.75 14.269t-5.75 14.242q-5.75 5.731-14.25 5.731h-169.23Zm76.076 428.077ZM556.769-517Z"/></svg>