<svg xmlns="http://www.w3.org/2000/svg" height="20" viewBox="0 -960 960 960" width="20"><path d="M480-136q-62.308 0-116-23.038-53.692-23.039-93.808-63.154-40.115-40.116-63.154-93.808Q184-369.692 184-432q0-58.538 21.961-112.423 21.962-53.885 64.885-98.115L150.384-763q-5.615-5.615-6-10.769-.384-5.154 6-11.539 6.385-6.384 11.654-6.384 5.27 0 11.654 6.384l612.616 612.616q5.615 5.615 6 10.769.384 5.154-6 11.539Q779.923-144 774.654-144T763-150.384l-72.462-72.462q-39.615 41.385-94.653 64.116Q540.846-136 480-136Zm-88.615-732h177.23q6.539 0 11.27 4.731 4.73 4.73 4.73 11.269t-4.73 11.269Q575.154-836 568.615-836h-177.23q-6.539 0-11.27-4.731-4.73-4.73-4.73-11.269t4.73-11.269q4.731-4.731 11.27-4.731ZM480-728q54.923 0 105.462 19.884 50.538 19.885 90.923 56.654L704.923-680q5.616-5.616 10.77-5.5 5.153.115 11.538 6.5 6.385 6.384 6.385 11.154 0 4.769-6.385 11.154l-27.538 28.538q36.769 40.385 56.538 91.308Q776-485.923 776-432q0 31.308-6.307 63.269-6.308 31.962-18.924 57.731L496-566.769v-25.846q0-6.539-4.731-11.27-4.73-4.73-11.269-4.73-5.154 0-9.192 3.5-4.039 3.5-5.962 8.192v-1L360.769-702q28.077-14.385 58.769-20.193Q450.231-728 480-728Z"/></svg>