<svg xmlns="http://www.w3.org/2000/svg" height="20" viewBox="0 -960 960 960" width="20"><path d="M629.217-657.218v-91.999H330.783v91.999H220.782v-147q0-22.087 16.456-38.544 16.457-16.456 38.388-16.456h408.748q21.931 0 38.388 16.456 16.456 16.457 16.456 38.544v147H629.217ZM170.783-547.217h618.434-618.434Zm536.782 122.523q20.391 0 35.435-14.938 15.043-14.938 15.043-35.541 0-20.392-14.937-35.718-14.938-15.326-35.541-15.326-20.392 0-35.718 15.326-15.326 15.326-15.326 35.718 0 20.391 15.326 35.435 15.326 15.044 35.718 15.044ZM330.783-197.217h298.434v-96.476H330.783v96.476Zm0 106.045q-45.376 0-77.688-32.313-32.313-32.313-32.313-77.689v-49.999H115.534q-21.839 0-38.296-16.457-16.456-16.457-16.456-39.014V-515q0-58.348 40.985-100.283 40.986-41.935 99.537-41.935h557.392q58.447 0 99.485 41.935Q899.218-573.348 899.218-515v208.356q0 22.557-16.456 39.014-16.457 16.457-38.296 16.457H739.218v49.999q0 45.376-32.312 77.689-32.313 32.313-77.689 32.313H330.783Zm458.434-270.002V-511q0-14.884-7.674-25.55-7.673-10.667-22.282-10.667H205.304q-14.671 0-24.596 10.667-9.925 10.666-9.925 25.55v149.826h49.999v-42.52h518.436v42.52h49.999Z"/></svg>