<svg xmlns="http://www.w3.org/2000/svg" height="24" viewBox="0 -960 960 960" width="24"><path d="M640-608v-120H320v120h-28v-118.418q0-12.582 8.625-21.082T322-756h315.588q13.412 0 21.912 8.51 8.5 8.51 8.5 21.09V-608h-28Zm-450 28h580-580Zm510 100q17 0 28.5-11.5T740-520q0-17-11.5-28.5T700-560q-17 0-28.5 11.5T660-520q0 17 11.5 28.5T700-480ZM352-200h256q14 0 23-9t9-23v-156H320v156q0 14 9 23t23 9Zm0 28q-24.75 0-42.375-17.625T292-232v-100H192q-12.75 0-21.375-8.625T162-362v-178q0-28.9 19.5-48.45Q201-608 230-608h500q28.9 0 48.45 19.55Q798-568.9 798-540v178q0 12.75-8.625 21.375T768-332H668v100q0 24.75-17.625 42.375T608-172H352Zm418-188v-180q0-17-11.5-28.5T730-580H230q-17 0-28.5 11.5T190-540v180h102v-56h376v56h102Z"/></svg>