<svg xmlns="http://www.w3.org/2000/svg" height="24" viewBox="0 -960 960 960" width="24"><path d="M754-714H206v-97q0-26 18.5-44.5T269-874h422q26 0 44.5 18.5T754-811v97Zm-56 297q23 0 39-15.812 16-15.813 16-39.188 0-23-15.812-39.5Q721.375-528 698-528q-23 0-39.5 16.5T642-472q0 23 16.5 39t39.5 16ZM332-188h296v-83H332v83Zm0 119q-51.975 0-88.988-37.012Q206-143.025 206-195v-57h-97q-26 0-44.5-18.5T46-315v-205q0-64 44.042-109Q134.083-674 197-674h566q64.175 0 107.588 45Q914-584 914-520v205q0 26-18.5 44.5T851-252h-97v57q0 51.975-37.013 88.988Q679.975-69 628-69H332Z"/></svg>