<svg xmlns="http://www.w3.org/2000/svg" height="24" viewBox="0 -960 960 960" width="24"><path d="M680-646.154H280v-97.092q0-13.754 9.288-22.947 9.289-9.192 23.019-9.192h335.068q14.241 0 23.433 9.288 9.192 9.289 9.192 23.02v96.923Zm24.615 170.769q17 0 28.5-11.5t11.5-28.5q0-17-11.5-28.5t-28.5-11.5q-17 0-28.5 11.5t-11.5 28.5q0 17 11.5 28.5t28.5 11.5ZM344.615-200h270.77q10.769 0 17.692-6.923T640-224.615v-156.923H320v156.923q0 10.769 6.923 17.692T344.615-200Zm0 40q-26.654 0-45.634-18.981Q280-197.961 280-224.615V-320H175.384q-13.731 0-23.019-9.288-9.288-9.289-9.288-23.019v-183.078q0-34 23.077-57t56.923-23h513.846q34 0 57 23t23 57v183.078q0 13.73-9.288 23.019Q798.346-320 784.616-320H680v95.385q0 26.654-18.981 45.634Q642.039-160 615.385-160h-270.77Z"/></svg>