<svg xmlns="http://www.w3.org/2000/svg" height="20" viewBox="0 -960 960 960" width="20"><path d="M88.348-136.348v-100.369q0-29.587 14.652-52.761 14.652-23.174 36.652-36.174 54-32 116.413-49.359t128.413-17.359q66 0 128.294 17.12 62.293 17.119 116.293 49.119 22 13 36.653 36.413 14.652 23.414 14.652 53.001v100.369H88.348Zm83-83H597.37v-16.174q0-6.47-3.026-11.406-3.024-4.935-7.974-7.876-47-27-98.403-40.783-51.402-13.783-103.489-13.783T280.87-295.967q-51.522 13.402-98.522 41.215-4.95 2.774-7.975 7.502-3.025 4.728-3.025 11.635v16.267Zm213.13-221.022q-63.587 0-107.859-44.032-44.271-44.033-44.271-106.185h-26.153v-28.544h26.153q0-42.109 21.593-76.13 21.594-34.022 57.342-52.653v76.479H336v-87.234q11.084-3.536 23.083-6.032 11.998-2.495 25.197-2.495 13.198 0 25.079 2.5 11.88 2.5 23.358 6.036v87.225h24.718v-76.479q35.748 18.631 57.341 52.653 21.594 34.021 21.594 76.13h26.152v28.544H536.37q0 62.152-44.152 106.185-44.153 44.032-107.74 44.032Zm.204-83q28.601 0 48.644-20.307 20.044-20.307 20.044-48.823H315.348q0 28.804 20.367 48.967t48.967 20.163Zm267.45 127.891-5.077-25.312q-5.077-1.688-9.577-4.807-4.5-3.12-8.5-6.1l-24 8.98-17-29.876 19-15.573q0-2.335-.5-5.323-.5-2.989-.5-5.989t.5-6q.5-3 .5-5.347l-19-15.653 17-30 24 9q4.24-2.76 8.826-5.85 4.587-3.09 9.174-5.15l5.087-25h33.913l4 25q5 2 9.881 5.12 4.88 3.12 9.119 5.88l24-9 17 30-19 15.653q0 2.347.5 5.347.5 3 .5 6t-.5 6q-.5 3-.5 5.348l19 15.652-17 30-24-9q-4 3-8.853 5.858-4.852 2.857-10.147 5.142l-4 25h-33.846Zm16.846-59q11.24 0 18.12-6.88 6.88-6.88 6.88-18.12 0-11.239-6.88-18.119-6.88-6.881-18.12-6.881-11.239 0-18.619 6.881-7.381 6.88-7.381 18.119 0 11.24 7.381 18.12 7.38 6.88 18.619 6.88Zm82.674-135.152-7-37q-8-2-14-6t-12-9l-35 12-24-42 28-24q-1-4-1.5-7t-.5-7q0-4 .5-7.5t1.5-7.5l-28-24 24-42 35 12q6-5 12-9t14-6l6.875-36h48.125l8 36q8 2 14 6t12 9l34-12 24 42-27 24q1 4 1 7.5v7.5q0 4-.5 7.5t-1.5 7.5l28 24-24 42-35-12q-6 5-12 9t-14 6l-6.875 36h-48.125Zm23.958-77q18.042 0 30.542-12.458 12.5-12.457 12.5-30.5 0-18.042-12.457-30.542-12.458-12.5-30.5-12.5-18.043 0-30.543 12.458t-12.5 30.5q0 18.042 12.458 30.542t30.5 12.5ZM384.478-219.348Z"/></svg>