<svg xmlns="http://www.w3.org/2000/svg" height="20" viewBox="0 -960 960 960" width="20"><path d="M88.348-136.348v-100.369q0-29.587 14.652-52.761 14.652-23.174 36.652-36.174 54-32 116.413-49.359t128.413-17.359q66 0 128.294 17.12 62.293 17.119 116.293 49.119 22 13 36.653 36.413 14.652 23.414 14.652 53.001v100.369H88.348Zm296.13-304.022q-63.587 0-107.859-44.032-44.271-44.033-44.271-106.185h-26.153v-28.544h26.153q0-41.674 21.793-75.848 21.794-34.174 57.142-52.935v76.479H336v-86.779q11.084-3.991 23.178-6.487 12.094-2.495 25.197-2.495t24.984 2.5q11.88 2.5 23.358 6.49v86.771h24.718v-76.479q35.348 18.761 57.141 52.935 21.794 34.174 21.794 75.848h26.152v28.544H536.37q0 62.152-44.152 106.185-44.153 44.032-107.74 44.032Zm-.008-83q28.813 0 48.856-20.157 20.044-20.157 20.044-48.973H315.348q0 28.804 20.154 48.967 20.155 20.163 48.968 20.163Zm267.508 127.891-5-25q-5-2-9.5-5.119-4.5-3.12-8.5-6.1l-24 8.98-17-29.876 19-15.92q0-1.988-.5-4.976-.5-2.989-.5-5.989t.5-6q.5-3 .5-5l-19-16 17-30 24 9q4.24-2.76 8.66-5.85t9.34-5.15l5-25h34l4 25q5 2 9.881 5.12 4.88 3.12 9.119 5.88l24-9 17 30-19 16q0 2 .5 5t.5 6q0 3-.5 6t-.5 5l19 16-17 30-24-9q-4 3-9 6t-10 5l-4 25h-34Zm17-59q11.24 0 18.12-6.88 6.88-6.88 6.88-18.12 0-11.239-6.88-18.119-6.88-6.881-18.12-6.881-11.239 0-18.619 6.881-7.381 6.88-7.381 18.119 0 11.24 7.381 18.12 7.38 6.88 18.619 6.88Zm82.674-135.152-7-37q-8-2-14-6t-12-9l-35 12-24-42 28-24q-1-4-1.5-7t-.5-7q0-4 .5-7.5t1.5-7.5l-28-24 24-42 35 12q6-5 12-9t14-6l7-36h48l8 36q8 2 14 6t12 9l34-12 24 42-27 24q1 4 1 7.5v7.5q0 4-.5 7.5t-1.5 7.5l28 24-24 42-35-12q-6 5-12 9t-14 6l-7 36h-48Zm24-77q18 0 30.5-12.5t12.5-30.5q0-18-12.5-30.5t-30.5-12.5q-18 0-30.5 12.5t-12.5 30.5q0 18 12.5 30.5t30.5 12.5Z"/></svg>