<svg xmlns="http://www.w3.org/2000/svg" height="20" viewBox="0 -960 960 960" width="20"><path d="M130.615-176.307v-45.847q0-19.077 9.423-32.115 9.423-13.039 26.808-23.731 51.692-30.462 107.577-44.385 55.885-13.923 104.192-13.923 48.308 0 104.193 13.923T590.385-278q17.384 10.692 26.808 23.731 9.423 13.038 9.423 32.115v45.847H130.615Zm248-257.231q-45.384 0-74.692-29.308-29.308-29.308-29.308-79.308h-17.846v-14.769h17.846q1.539-25.385 10.769-46.731 9.231-21.346 30.462-41.885v71.385h14.769V-655q10.231-4 22.616-7.27 12.384-3.269 25.384-3.269T404-662.27q12.385 3.27 22.615 7.27v80.846h14.77v-71.385q22 20.539 30.846 41.885 8.846 21.346 10.385 46.731h17.846v14.769h-17.846q0 50-29.308 79.308-29.308 29.308-74.693 29.308Zm0-32.001q31.539 0 51.77-20.23 20.23-20.231 20.23-51.77h-144q0 31.539 20.231 51.77 20.231 20.23 51.769 20.23Zm263.539 75.385-1.923-23.461q-6.539-2-13.731-6.923t-11.961-8.693l-22.462 10.539-12.385-20.77 20.539-12.923q-1.539-3.538-2.039-7.307-.5-3.77-.5-8.308t.5-7.923q.5-3.385 2.039-7.692l-20.539-12.923 12.385-20.77 22.462 10.539q5.538-4.539 12.346-9.077 6.807-4.539 13.346-6.539l1.923-23.461h24.769l.923 23.461q6.539 2 13.846 6.539 7.308 4.538 12.847 9.077L717-517.308l12.385 20.77-20.539 12.923q1.539 4.307 2.039 7.692.5 3.385.5 7.923t-.5 8.308q-.5 3.769-2.039 7.307l20.539 12.923L717-418.692l-22.461-10.539q-4.77 3.77-12.462 8.693t-14.231 6.923l-.923 23.461h-24.769Zm12.385-46.692q14.076 0 22.615-8.539 8.538-8.538 8.538-22.615 0-14.077-8.538-22.615-8.539-8.539-22.615-8.539-14.077 0-23.116 8.539-9.038 8.538-9.038 22.615 0 14.077 9.038 22.615 9.039 8.539 23.116 8.539Zm90.23-162.231-2.384-26.231q-10.308-1.23-21.308-7.538T702.539-648l-22.693 10.462-13.231-23.539 20.308-13.231q-1-4.769-2.269-10.846-1.269-6.077-1.269-10.846t1.269-11.346q1.269-6.577 2.269-11.346l-20.308-13.231 13.231-23.539L702.539-745q7.538-8.846 18.538-15.154t21.308-7.538l2.384-25.231h26.462l3.385 25.231q10.307 1.23 21.307 7.538 11 6.308 18.539 15.154l21.692-10.462 13.231 23.539-19.308 13.231q1 4.769 1.769 11.346.77 6.577.77 11.346t-1.27 11.346q-1.269 6.577-2.269 11.346l20.308 13.231-13.231 23.539L813.462-647q-7.539 8.846-18.539 15.154-11 6.308-21.307 7.538l-2.385 25.231h-26.462ZM758-648.385q20.308 0 33.962-13.653 13.653-13.654 13.653-33.962 0-20.308-13.653-33.962-13.654-13.653-33.962-13.653-20.308 0-33.961 13.653-13.654 13.654-13.654 33.962 0 20.308 13.654 33.962 13.653 13.653 33.961 13.653Z"/></svg>