<svg xmlns="http://www.w3.org/2000/svg" height="20" viewBox="0 -960 960 960" width="20"><path d="M64-112v-127q0-41 21.5-69.5T129-350q54-32 122.5-50.5T386-419q66 0 134 17.5T642-352q22 13 43.5 42.5T707-239v127H64Zm322-355q-75 0-126.5-50.5T208-637h-33v-43h33q0-47 27.5-86.5T309-824v78h27v-86.075q11.353-3.962 23.745-6.444Q372.137-841 385.569-841q13.431 0 24.931 2.5 11.5 2.5 24.5 6.461V-746h27v-78q46 18 73.5 57.5T563-680h33v43h-33q0 69-51 119.5T386-467Zm-.035-118Q411-585 428-602.475 445-619.95 445-645H326q0 25 17.465 42.5 17.464 17.5 42.5 17.5ZM671-432l-5-25q-5-2-9.5-5.5t-8.5-6.417L624-460l-17-29.483 19-15.667q0-1.95-.5-4.9T625-516q0-3 .5-6t.5-5l-19-16 17-30 24 9q5-2 9.167-5.375Q661.333-572.75 666-575l5-25h34l4 25q5 2 9.5 5.5t9.5 5.5l24-9 17 30-19 16q0 2 .5 5t.5 6q0 3-.5 6t-.5 5l19 16-17 30-24-9q-4 3-9 6t-10 5l-4 25h-34Zm17-59q12 0 18.5-6.5T713-516q0-12-6.5-18.5T688-541q-12 0-19 6.5t-7 18.5q0 12 7 18.5t19 6.5Zm88-142-7-37q-8-2-14-6t-12-9l-35 12-24-42 28-24q-1-4-1.5-7t-.5-7q0-4 .5-7.5t1.5-7.5l-28-24 24-42 35 12q6-5 12-9t14-6l7-36h48l8 36q8 2 14 6t12 9l34-12 24 42-27 24q1 4 1 7.5v7.5q0 4-.5 7.5T888-738l28 24-24 42-35-12q-6 5-12 9t-14 6l-7 36h-48Zm24-77q18 0 30.5-12.5T843-753q0-18-12.5-30.5T800-796q-18 0-30.5 12.5T757-753q0 18 12.5 30.5T800-710Z"/></svg>