<svg xmlns="http://www.w3.org/2000/svg" height="20" viewBox="0 -960 960 960" width="20"><path d="M696.471-136q-43.53 0-74-30.471-30.471-30.47-30.471-74Q592-284 622.471-314q30.47-30 74-30Q740-344 770-314q30 30 30 73.529 0 43.53-30 74Q740-136 696.471-136Zm-.424-244q-3.447 0-5.747-2.267-2.3-2.266-2.3-5.733v-44q0-3.467 2.253-5.733 2.254-2.267 5.7-2.267 3.447 0 5.747 2.267 2.3 2.266 2.3 5.733v44q0 3.467-2.253 5.733-2.254 2.267-5.7 2.267Zm-.094 280q3.447 0 5.747 2.267Q704-95.467 704-92v44q0 3.467-2.253 5.733-2.254 2.267-5.7 2.267-3.447 0-5.747-2.267Q688-44.533 688-48v-44q0-3.467 2.253-5.733 2.254-2.267 5.7-2.267ZM795-339.116q-3-3.117-3-5.5 0-2.384 3-5.384l31-31q2-2 5.5-3t6.5 2q3 3 3 5.818 0 2.818-3 6.182l-31 31q-2.364 2-5.682 2.5-3.318.5-6.318-2.616ZM597-141q3 3 3 5.818 0 2.818-3 6.182l-31 31q-2.182 2-5.091 2Q558-96 555-98t-2.5-5.318q.5-3.318 2.5-6.682l30-31q2.455-3 5.727-3 3.273 0 6.273 3Zm239-98.953q0-3.447 2.267-5.747 2.266-2.3 5.733-2.3h44q3.467 0 5.733 2.253 2.267 2.254 2.267 5.7 0 3.447-2.267 5.747-2.266 2.3-5.733 2.3h-44q-3.467 0-5.733-2.253-2.267-2.254-2.267-5.7Zm-280-.094q0 3.447-2.267 5.747-2.266 2.3-5.733 2.3h-44q-3.467 0-5.733-2.253-2.267-2.254-2.267-5.7 0-3.447 2.267-5.747 2.266-2.3 5.733-2.3h44q3.467 0 5.733 2.253 2.267 2.254 2.267 5.7ZM795-141q3-3 6-3.5t6 3.5l30 31q2 2.364 2.5 5.682Q840-101 836.884-98q-3.117 3-5.5 3Q829-95 826-98l-31-31q-3.444-2.091-3.222-5.545Q792-138 795-141ZM596.884-339q-3.117 3-5.5 3-2.384 0-5.384-3l-31-31q-3.444-2.091-3.222-5.545Q552-379 555-382t6-3.5q3-.5 6 3.5l30 31q2 2.364 2.5 5.682.5 3.318-2.616 6.318ZM248-148q-22.7 0-37.35-14.65Q196-177.3 196-200v-464q0-22.7 14.65-37.35Q225.3-716 248-716h112v-96q0-5.1 3.43-8.55 3.43-3.45 8.5-3.45t8.57 3.45q3.5 3.45 3.5 8.55v96h196v-98q0-4.25 2.825-7.125 2.824-2.875 7-2.875 4.175 0 7.175 2.875t3 7.125v98h112q22.7 0 37.35 14.65Q764-686.7 764-664v168H216v296q0 12 10 22t22 10h182q4.25 0 7.125 2.825 2.875 2.824 2.875 7 0 4.175-2.875 7.175T430-148H248Z"/></svg>