<svg xmlns="http://www.w3.org/2000/svg" height="24" viewBox="0 -960 960 960" width="24"><path d="M370.001-140.001v-564.693L296-631.308l-42.153-42.153L400-819.614l146.153 146.153L504-630.693l-74.001-74.001v297.157q33.077-39.847 77.654-58.54 44.577-18.692 93.962-18.692 17.154 0 32.924 1.384 15.77 1.385 30.539 4.154l-73.385-74 42.153-42.153 146.153 146.153-146.153 146.152-42.153-42.152 73.385-74.001q-16-2.769-32.77-4.654-16.769-1.885-33.154-1.885-55.924 0-103.155 33.193-47.23 33.192-66 101.808v150.769h-59.998Z"/></svg>