<svg xmlns="http://www.w3.org/2000/svg" height="24" viewBox="0 -960 960 960" width="24"><path d="M380-160v-562.384l-84 83.769-28.308-28.308L400-799.231l132.308 132.308L504-638.385l-84-83.999v333.307q31.154-48.692 76.308-72.577 45.154-23.884 99.923-23.884 23.307 0 44.846 1.769 21.538 1.769 42.077 5.307l-83.769-83.999 28.307-28.308L760-458.461 627.692-326.154l-28.307-28.307 83.769-84q-21-3.539-43.539-5.808-22.538-2.269-44.307-2.269-57.846 0-106.808 35.884-48.961 35.885-68.5 109.116V-160h-40Z"/></svg>