<svg xmlns="http://www.w3.org/2000/svg" height="20" viewBox="0 -960 960 960" width="20"><path d="m727.827-345.478-392.61-393.74h245.87q23.217 0 43.022 8.761 19.804 8.761 33.761 27.848l130.609 162.347q20.522 26.783 20.522 60.262t-20.522 60.262l-60.652 74.26ZM270.783-220.782q-41.305 0-69.653-28.348-28.348-28.348-28.348-69.653v-340.434q0-4.522 1.13-8.196 1.131-3.674 1.696-3.109l-81.522-81.522Q81.39-764.74 81.108-780.653q-.283-15.913 12.413-28.609 12.695-12.695 28.608-12.695 15.914 0 28.609 12.695l647.219 647.219q12.695 12.695 12.695 27.826 0 15.13-12.695 27.826-12.696 12.696-28.609 12.979-15.913.282-28.609-12.414L623.087-222.477q.565.565-2.826 1.13t-5.652.565H270.783Z"/></svg>