<svg xmlns="http://www.w3.org/2000/svg" height="24" viewBox="0 -960 960 960" width="24"><path d="m439.739-380 166-106.565Q626-499.696 626-523.957q0-24.261-20.261-37.391l-166-106.565q-21.696-14.131-44.957-1.718t-23.261 38.674v214q0 26.261 23.261 38.674T439.739-380ZM166.783-180.782q-44.305 0-75.153-30.848-30.848-30.848-30.848-75.153v-466.434q0-44.305 30.848-75.153 30.848-30.848 75.153-30.848h626.434q44.305 0 75.153 30.848 30.848 30.848 30.848 75.153v466.434q0 44.305-30.848 75.153-30.848 30.848-75.153 30.848H650.174v27q0 22.087-15.456 37.544-15.457 15.456-37.544 15.456H362.826q-22.087 0-37.544-15.456-15.456-15.457-15.456-37.544v-27H166.783Z"/></svg>