<svg xmlns="http://www.w3.org/2000/svg" height="20" viewBox="0 -960 960 960" width="20"><path d="M222.783-76.782q-40.305 0-69.153-28.848-28.848-28.848-28.848-69.153v-514.434q0-41.005 28.848-69.503 28.848-28.498 69.153-28.498H288v-53.783q0-17.561 12.55-29.889 12.551-12.328 30.022-12.328 17.472 0 29.95 12.328 12.479 12.328 12.479 29.889v53.783h213.998v-53.783q0-17.561 12.551-29.889 12.55-12.328 30.022-12.328 17.471 0 29.95 12.328Q672-858.562 672-841.001v53.783h65.217q40.305 0 69.153 28.498 28.848 28.498 28.848 69.503v185.912q0 20.387-14.246 34.694-14.246 14.307-34.544 14.307-20.298 0-34.754-14.307-14.457-14.307-14.457-34.694V-528H222.783v353.217h207.911q20.387 0 34.694 14.246 14.306 14.246 14.306 34.544 0 20.298-14.306 34.755-14.307 14.456-34.694 14.456H222.783ZM768 24.306q-64.304 0-114.739-35.609-50.435-35.608-70.826-91.391-5.826-13.826 2.282-25.717 8.109-11.892 25.327-11.892 17.756 0 34.118 9.478 16.361 9.479 29.405 19.914 13.044 30.303 37.804 45.76Q736.131-49.697 768-49.697q53.439 0 91.372-38.003 37.932-38.003 37.932-91.543 0-54.105-37.65-91.583-37.649-37.478-91.654-37.478-25.913 0-48.608 10.174-22.696 10.174-40.174 27.086h20.173q12.661 0 21.722 9.627 9.061 9.626 9.061 27.374 0 15.487-10.756 26.244-10.757 10.757-26.244 10.757h-92.479q-20.387 0-34.694-14.307-14.307-14.307-14.307-34.694v-92.479q0-15.487 11.888-26.244 11.887-10.756 34.722-10.756 11.531 0 19.461 7.93 7.931 7.931 7.931 19.461v25.739q27.434-28.739 64.108-44.326 36.673-15.587 78.196-15.587 84.767 0 144.036 59.335 59.269 59.335 59.269 144.196 0 84.296-59.269 143.687Q852.767 24.306 768 24.306Z"/></svg>