<svg xmlns="http://www.w3.org/2000/svg" height="20" viewBox="0 -960 960 960" width="20"><path d="M465.887-557Q486-557 500-570.887q14-13.888 14-34Q514-625 500.113-639q-13.888-14-34-14Q446-653 432-639.113q-14 13.888-14 34Q418-585 431.887-571q13.888 14 34 14ZM495-391l186-186q11-10.667 11-25.333Q692-617 681-628q-11-11-25.667-11-14.666 0-25.333 11L443-441q-11 10.636-10.5 24.818Q433-402 444-391q11 11 25.667 11 14.666 0 25.333-11Zm162.887 26Q678-365 692-378.887q14-13.888 14-34Q706-433 692.113-447q-13.888-14-34-14Q638-461 624-447.113q-14 13.888-14 34Q610-393 623.887-379q13.888 14 34 14ZM758-207H366q-49 0-83.5-34.5T248-325v-500q0-49 34.5-83.5T366-943h249q23.467 0 44.733 8.5Q681-926 699-908l142 142q18 18 26.5 39.267Q876-705.467 876-682v357q0 49-34.5 83.5T758-207Zm0-490h-39q-36.5 0-62.75-26.25T630-786v-39H366v500h392v-372ZM176-17q-49 0-83.5-34.5T58-135v-481q0-24.3 17.29-41.65Q92.579-675 116.788-675 141-675 158.5-657.65T176-616v481h406q24.3 0 41.65 17.289 17.35 17.29 17.35 41.5Q641-52 623.65-34.5T582-17H176Zm190-808v195-195 500-500Z"/></svg>