<svg xmlns="http://www.w3.org/2000/svg" height="24" viewBox="0 -960 960 960" width="24"><path d="M640-484.231v-295.768h59.999v235.769L640-484.231Zm-459.999 304.23v-599.998H240v599.998h-59.999Zm230-459.614v-140.384h59.998v140.384h-59.998Zm0 229.614v-140.383h59.998v140.383h-59.998Zm0 230v-140.384h59.998v140.384h-59.998Zm154.615 0v-105.692l250.691-249.691 105.307 105.076-250.307 250.307H564.616Zm287.691-250.307-37-37.385 37 37.385Zm-240 202.615h38l129.847-130.462-18.385-19-18.615-18.769-130.847 130.231v38Zm149.462-149.462-18.615-18.769 37 37.769-18.385-19Z"/></svg>