<svg xmlns="http://www.w3.org/2000/svg" height="20" viewBox="0 -960 960 960" width="20"><path d="M308.847-182.001q-97.692 0-166.961-67.346Q72.617-316.693 72.617-414q0-102.307 76.77-169.461 76.769-67.153 181.384-63.691h18l-60.616-59.463 37.153-37.152 123.768 123.768-123.768 123.768-37.153-36.768 63.924-62.924h-19q-83.846-4.616-146.155 48.076Q124.616-495.154 124.616-414q0 75.769 54.038 127.885Q232.693-234 309.231-234h136.768v51.999H308.847Zm229.154-319.845v-216.153h305.998v216.153H538.001Zm0 319.845v-216.153h305.998v216.153H538.001ZM589.999-234H792v-112.155H589.999V-234Z"/></svg>