<svg xmlns="http://www.w3.org/2000/svg" height="20" viewBox="0 -960 960 960" width="20"><path d="M456.692-224.231 85.231-595.692q-4.847-4.846-8.039-11.923Q74-614.692 75-621.231q1-6.538 4.808-12.615 3.807-6.077 8.884-11.693 89.077-65.615 184.693-98.038Q369-776 480-776q110.231 0 206.615 32.038Q783-711.923 871.308-646.308q5.077 5.616 8.885 11.808Q884-628.308 885-622q1 6.308-1.423 13.885t-8.038 12.423l-63.077 63.846q-23.154-35-60.423-55.577Q714.769-608 672-608q-73.077 0-124.539 51.461Q496-505.077 496-432q0 41.769 20.692 78.154 20.693 36.385 55.462 60.769L503.308-225q-5.616 5.616-11.308 7.923-5.692 2.308-12 2.308t-12-1.923q-5.692-1.923-11.308-7.539Zm384.693-19.153L735-349.538q-13.154 10-29.615 15.769Q688.923-328 672-328q-42.308 0-73.154-30.846Q568-389.692 568-432q0-42.308 30.846-73.154Q629.692-536 672-536q42.308 0 73.154 30.846Q776-474.308 776-432q0 15.385-4.5 31.577t-13.961 28.346l107.153 106.385q5.616 5.615 5.616 11.154 0 5.538-5.616 11.154Q858.308-237 853.039-237q-5.27 0-11.654-6.384ZM672-360q29.231 0 50.615-21.385Q744-402.769 744-432t-21.385-50.615Q701.231-504 672-504t-50.615 21.385Q600-461.231 600-432t21.385 50.615Q642.769-360 672-360Z"/></svg>