<svg xmlns="http://www.w3.org/2000/svg" height="20" viewBox="0 -960 960 960" width="20"><path d="M479.869-687.521q-20.912 0-42.086 5.087-21.174 5.086-41.348 12.695-17.391 7.565-36 5.565t-31.87-15.261q-13.826-13.826-12.043-30.652 1.782-16.826 16.043-26.522 32.903-19.455 70.234-29.662 37.331-10.208 77.266-10.208t77.237 10.208q37.303 10.207 70.133 29.662 14.261 9.696 16.043 26.522 1.783 16.826-12.043 30.652-13.261 13.261-31.87 15.261t-36-5.565q-19.174-7.609-40.631-12.695-21.456-5.087-43.065-5.087ZM479.793-840q-51.532 0-100.336 14.587-48.805 14.587-92.368 41.795-15.968 10.227-34.78 9.765-18.811-.462-32.527-13.799-13.826-13.76-12.543-32.185 1.282-18.425 16.109-28.12 56.695-40.566 121.542-61.066 64.847-20.5 135.174-20.5 70.327 0 135.11 20.5 64.783 20.5 121.478 61.066 14.827 9.695 16.327 27.804 1.5 18.109-12.327 31.935-13.261 13.261-32.652 14.044-19.391.783-35.089-9.444-43.563-27.208-92.574-41.795Q531.326-840 479.793-840Zm-89.01 778.48q-44.305 0-71.153-26.848-26.848-26.848-26.848-71.153V-481.39q0-44.305 26.848-71.153 26.848-26.848 71.153-26.848h178.434q44.305 0 71.153 26.848 26.848 26.848 26.848 71.153v321.869q0 44.305-26.848 71.153-26.848 26.848-71.153 26.848H390.783Zm178.434-98.001V-481.39H390.783v321.869h178.434Zm0 0H390.783h178.434Z"/></svg>