<svg xmlns="http://www.w3.org/2000/svg" height="20" viewBox="0 -960 960 960" width="20"><path d="M480.082-696q-30.467 0-58.313 9.577-27.846 9.577-52.384 25.192-7.077 3.154-14.116 2.308-7.038-.846-12.654-6.462Q337-671 339.269-676.539q2.269-5.538 7.346-9.692Q375.769-707 409.367-717.5t70.577-10.5q36.979 0 70.633 10.5 33.654 10.5 62.808 31.269 5.077 4.154 7.346 9.692Q623-671 617.385-665.385q-5.616 5.616-12.654 6.462-7.039.846-14.116-2.308-23.538-15.615-51.769-25.192Q510.615-696 480.082-696Zm-.289-144q-57.639 0-111.985 18.692-54.346 18.693-100.783 53.547-5.948 3.915-13.529 4.607-7.58.692-13.65-5-5.615-5.549-4.231-12.89 1.385-7.341 7.231-10.725 50.385-40 111.257-60.116Q414.975-872 480.064-872q65.09 0 125.898 20.115 60.807 20.116 111.192 60.116 5.846 3.384 7.731 10.692 1.884 7.308-3.731 12.923t-13.923 4.962q-8.308-.654-14.256-4.569-46.437-34.854-100.99-53.547Q537.433-840 479.793-840Zm-80.408 713.231q-27.616 0-42.116-14.5t-14.5-42.116v-305.23q0-27.616 14.5-42.116t42.116-14.5h161.23q27.616 0 42.116 14.5t14.5 42.116v305.23q0 27.616-14.5 42.116t-42.116 14.5h-161.23Zm161.23-32q9.231 0 16.923-7.693 7.693-7.692 7.693-16.923v-305.23q0-9.231-7.693-16.923-7.692-7.693-16.923-7.693h-161.23q-9.231 0-16.923 7.693-7.693 7.692-7.693 16.923v305.23q0 9.231 7.693 16.923 7.692 7.693 16.923 7.693h161.23Zm0 0H374.769 585.231h-24.616Z"/></svg>