<svg xmlns="http://www.w3.org/2000/svg" height="20" viewBox="0 -960 960 960" width="20"><path d="M480-687.521q-21.043 0-42.217 5.087-21.174 5.086-41.348 12.695-17.391 7.565-36 5.565t-31.87-15.261q-13.826-13.826-12.043-30.652 1.782-16.826 16.043-26.522 33-19.435 70.218-29.652Q440-776.479 480-776.479t77.217 10.218q37.218 10.217 70.218 29.652 14.261 9.696 16.043 26.522 1.783 16.826-12.043 30.652-13.261 13.261-31.87 15.261t-36-5.565q-19.174-7.609-40.631-12.695-21.456-5.087-42.934-5.087ZM480-840q-51.739 0-100.543 14.587-48.805 14.587-92.239 41.326-15.827 10.696-35.001 10.196t-32.435-13.761q-13.826-13.827-12.543-32.218 1.282-18.392 16.109-28.087 56.695-40.566 121.608-61.066 64.914-20.5 135.044-20.5 70.13 0 135.044 20.5 64.913 20.5 121.608 61.066 14.827 9.695 16.327 27.804 1.5 18.109-12.327 31.935-13.261 13.261-32.652 14.044-19.391.783-35.218-9.913-43.434-26.739-92.239-41.326Q531.739-840 480-840ZM390.783-61.52q-44.305 0-71.153-26.848-26.848-26.848-26.848-71.153V-481.39q0-44.305 26.848-71.153 26.848-26.848 71.153-26.848h178.434q44.305 0 71.153 26.848 26.848 26.848 26.848 71.153v321.869q0 44.305-26.848 71.153-26.848 26.848-71.153 26.848H390.783Z"/></svg>