<svg xmlns="http://www.w3.org/2000/svg" height="24" viewBox="0 -960 960 960" width="24"><path d="M796-46 312-529q-4 11-5.5 23.5T305-480q0 25 6.5 47.5T329-390q11 20 11 42t-16 38q-17 17-39 16.5T249-312q-26-35-40.5-77.5T194-480q0-37 8.5-71t24.5-63l-47-47q-24 40-37.5 85.5T129-480q0 60 19.5 114.5T202-266q14 19 14 41.5T200-186q-17 17-40 15.5T122-190q-48-60-75.5-133.5T19-480q0-73 21.5-139T100-741l-54-55q-14-14-14-33.5T46-863q14-14 33.5-14t33.5 14l750 750q14 14 13.5 33.5T862-46q-14 14-33 14t-33-14Zm76-191-81-81q19-37 29.5-77.5T831-480q0-146-102.5-248.5T480-831q-44 0-84.5 10.5T318-791l-81-81q54-33 115-51t128-18q96 0 180 36t146.5 98.5Q869-744 905-660t36 180q0 67-18 128t-51 115ZM743-366l-90-90q1-6 1.5-12t.5-12q0-72-51.5-123.5T480-655q-6 0-12 .5t-12 1.5l-90-90q26-11 55-17t59-6q119 0 202.5 83.5T766-480q0 31-6 59.5T743-366Z"/></svg>