<svg xmlns="http://www.w3.org/2000/svg" height="24" viewBox="0 -960 960 960" width="24"><path d="M781.653-62.52 317.652-525.523q-3.131 10.565-4.631 21.978-1.5 11.414-1.5 23.544 0 25.435 6.935 47.717Q325.391-410 337.26-390q10.566 17.391 10.348 37-.217 19.609-14.043 33.435-14.827 14.827-34.653 14.761-19.826-.065-32.087-16.326-24.696-33.261-38.761-73.37-14.065-40.109-14.065-85.5 0-33.087 7.413-63.609t21.239-56.914l-52.217-52.217q-22.696 38.261-35.326 81.588-12.631 43.326-12.631 91.152 0 59.13 19.283 112.326 19.283 53.196 53.717 96.892 12.696 16.391 12.913 36.283.218 19.891-14.043 34.152-14.826 14.826-35.218 13.979-20.391-.848-33.652-16.675-46.696-56.956-73.327-127.196Q45.52-400.478 45.52-480q0-68.218 19.544-129.435 19.543-61.218 54.935-113.74l-57.913-58.478q-13.13-13.131-13.13-31.326 0-18.196 13.13-31.327 13.13-13.13 31.326-13.13 18.196 0 31.326 13.13l719.568 719.568q13.13 13.13 12.847 31.109-.282 17.978-13.413 31.108-13.13 13.13-31.043 13.13-17.913 0-31.044-13.13ZM846.784-247l-71-71.001q19.869-36.13 30.804-76.848 10.935-40.717 10.935-85.152 0-140.783-98.37-239.153T480-817.523q-44.435 0-84.935 10.935T318-775.784l-71.001-71Q298.391-879.35 357-896.915q58.609-17.565 123-17.565 90.348 0 169.566 34.044 79.218 34.043 138.022 92.848 58.805 58.804 92.848 138.022Q914.48-570.348 914.48-480q0 64.391-17.565 123-17.565 58.609-50.131 110.001ZM723.001-370.782l-77.827-77.827q1.435-7.739 2.37-15.478t.935-15.913q0-69.391-49.544-118.935T480-648.479q-8.174 0-15.913.935-7.739.935-15.478 2.37l-77.827-77.827q24.696-11 52.392-17t56.826-6q110.74 0 188.37 77.631 77.631 77.63 77.631 188.37 0 29.696-6 57.109t-17 52.109Z"/></svg>