<svg xmlns="http://www.w3.org/2000/svg" height="20" viewBox="0 -960 960 960" width="20"><path d="M279.521-739.218v-63.169q0-40.527 28.781-69.158t69.221-28.631h204.954q40.74 0 69.371 28.781 28.631 28.781 28.631 69.221v62.956h104.738q40.44 0 69.221 28.63 28.78 28.631 28.78 69.371v418.434q0 40.74-28.78 69.371-28.781 28.63-69.221 28.63H174.783q-40.74 0-69.371-28.63-28.63-28.631-28.63-69.371v-418.434q0-40.74 28.63-69.371 28.631-28.63 69.371-28.63h104.738Zm98.002 0h204.954v-62.956H377.523v62.956Zm-202.74 452.914h610.434v-132.523H174.783v132.523Z"/></svg>