<svg xmlns="http://www.w3.org/2000/svg" height="20" viewBox="0 -960 960 960" width="20"><path d="m768-293-50-51 26-26v-219.111L589-744H371l-27 27-51-51 48-48h278l197 196.828v279.308L768-293ZM516-546v-126h-72v54l72 72ZM803-56 667-191l-48 47H341L144-341.451V-619l48-48L56-802l51-51 746 747-50 50ZM528-528ZM371-216h218l27-26-374-374-26 27v218.525L371-216Zm108.912-84Q465-300 454.5-310.289q-10.5-10.29-10.5-25.5Q444-351 454.289-361.5q10.29-10.5 25.5-10.5Q495-372 505-365.5q10 6.5 10 21.5t-10.088 29.5q-10.087 14.5-25 14.5ZM426-427Z"/></svg>