<svg xmlns="http://www.w3.org/2000/svg" height="24" viewBox="0 -960 960 960" width="24"><path d="m826-268-89-88 11-13v-222.04L591.04-748H369l-13 11-88-89 48-48h328.235L874-643.744V-317l-48 49ZM528-566v-132h-96v37l96 95ZM820-7 692-135l-48 49H315.765L86-317v-327l48-48L7-820l66-67L887-73 820-7ZM547-547ZM368.96-212H591l11-11-379-379-11 11v222.04L368.96-212ZM480-257q-23.375 0-39.188-15.812Q425-288.625 425-312t15.812-39.188Q456.625-367 480-367t39.188 15.812Q535-335.375 535-312t-15.812 39.188Q503.375-257 480-257Zm-68-156Z"/></svg>