<svg xmlns="http://www.w3.org/2000/svg" height="20" viewBox="0 -960 960 960" width="20"><path d="M803-50.978 670.348-182.63l-48 46.761H337.652L135.869-337.413v-284.935l48-48L50.979-802l53.391-53.63 751.26 752.26L803-50.978Zm-26.869-238.674L517.913-549.348v-126.956h-75.826v51.369L289.652-776.131l48-48h284.696l201.783 201.783v285.935l-48 46.761ZM480-294.5q15 0 25.598-14.022 10.598-14.021 12.032-28.782 0-4.522 1.5-.783 1.5 3.739-1.5 1.739l-43.608-36.369q-3-3 1.358-1.5 4.359 1.5-.163 1.5-14.761 1.434-24.782 12.532-10.022 11.098-10.022 26.098 0 16.435 11.576 28.011T480-294.5Z"/></svg>