<svg xmlns="http://www.w3.org/2000/svg" height="20" viewBox="0 -960 960 960" width="20"><path d="M200.289-293.231q-6.789 0-11.539-4.547T184-309.047q0-6.722 4.592-11.453 4.593-4.731 11.382-4.731h319.737q6.789 0 11.539 4.547 4.75 4.548 4.75 11.27 0 6.722-4.592 11.453-4.593 4.73-11.382 4.73H200.289ZM200-464q-6.8 0-11.4-4.547-4.6-4.547-4.6-11.269 0-6.723 4.6-11.453Q193.2-496 200-496h560q6.8 0 11.4 4.547 4.6 4.547 4.6 11.269 0 6.723-4.6 11.453Q766.8-464 760-464H200Zm0-170.769q-6.8 0-11.4-4.547-4.6-4.548-4.6-11.27 0-6.722 4.6-11.453 4.6-4.73 11.4-4.73h560q6.8 0 11.4 4.547 4.6 4.547 4.6 11.269t-4.6 11.453q-4.6 4.731-11.4 4.731H200Z"/></svg>