<svg xmlns="http://www.w3.org/2000/svg" height="20" viewBox="0 -960 960 960" width="20"><path d="M772.913-120.825 535.304-358.869l68.088-70.218 238.609 238.609-69.088 69.653Zm-528.218-25.044Q137.868-248.826 119.868-400.827t64.653-270.045q-4.913 44.218 10.63 96.414 15.544 52.196 43.197 105.261Q266-416.131 302.152-365.892q36.153 50.24 71.022 91.544L244.695-145.869Zm180.479-180.479q-47.522-55.087-85.261-113.631T280.065-550.37q-22.109-51.848-27.087-91.283-4.979-39.435 11.891-56.304 15.869-15.305 54.674-9.826 38.804 5.478 89.804 27.304 51 21.827 110.609 58.566 59.609 36.739 116.957 83.826L425.174-326.348Zm263.304-263.304q-43.869-36.869-95.891-73.022-52.022-36.152-105.153-63.522-53.131-27.37-104.11-42.131-50.978-14.761-93.196-8.847 120.044-83.349 268.327-66.132 148.284 17.217 257.372 126.305L688.478-589.652Z"/></svg>