<svg xmlns="http://www.w3.org/2000/svg" height="24" viewBox="0 -960 960 960" width="24"><path d="M789.348-110.195 531.283-368.022l63.652-64.13L853-174.087l-63.652 63.892Zm-554.131-31.827Q128.521-247.196 111.021-387.446t53.392-259.076q-.348 36.63 14.728 82.598 15.076 45.967 41.968 95.956 26.891 49.99 63.282 101.283 36.392 51.294 76.913 98.576L235.217-142.022Zm181.087-181.087q-49.913-50.152-87.706-107.728-37.794-57.576-59.609-110.935-21.815-53.359-25.152-96.619-3.337-43.261 17.185-63.783 20.521-21.283 63.304-18.446 42.783 2.837 96.283 24.533t111.315 59.989q57.815 38.294 108.924 88.446L416.304-323.109Zm279.783-279.782q-46.522-40.522-97.935-75.913-51.413-35.392-101.141-62.663-49.729-27.272-95.816-42.729-46.087-15.456-82.717-15.108 118.826-68.609 258.696-50.229Q717.043-831.152 820.696-727.5L696.087-602.891Z"/></svg>