<svg xmlns="http://www.w3.org/2000/svg" height="24" viewBox="0 -960 960 960" width="24"><path d="M793.913-96.825 530.304-359.869l74.088-75.218 263.609 263.609-74.088 74.653Zm-565.218-37.044Q112.868-248.826 95.368-400.327q-17.5-151.501 64.153-275.545-4.913 40.218 11.63 90.914 16.544 50.696 46.697 104.761Q248-426.131 287.652-372.392q39.653 53.74 79.522 100.044L228.695-133.869Zm193.479-193.479q-52.522-53.087-92.761-112.131T265.565-552.37q-23.609-53.848-28.087-96.783-4.479-42.935 15.391-62.804 19.869-20.305 61.674-16.326 41.804 3.978 95.304 27.304 53.5 23.327 113.109 64.066 59.609 40.739 114.957 93.826L422.174-327.348Zm271.304-271.304q-45.869-39.869-99.891-78.522-54.022-38.652-108.153-69.022-54.131-30.37-105.11-47.131-50.978-16.761-91.196-11.847 124.044-80.349 275.327-62.132 151.284 18.217 265.372 132.305L693.478-598.652Z"/></svg>