<svg xmlns="http://www.w3.org/2000/svg" height="24" viewBox="0 -960 960 960" width="24"><path d="M774-156.923 532.308-397.077l28.308-28.308 241.692 241.693L774-156.923Zm-535.231-49.538q-40.769-50-60.538-108.846-19.77-58.847-19.77-119.924 0-71.077 26.308-137.769 26.308-66.692 80.154-119.769 53.846-53.847 120.654-80.27 66.808-26.423 136.346-26.423 61.846 0 120.193 19.885 58.346 19.885 109.115 60.654L238.769-206.461Zm4.923-62.001 72.462-72.461q-16-22.538-31.654-47.615t-27.654-53.231q-12-28.154-19.077-59.769-7.077-31.616-7.923-65.692-36.384 72.846-30.731 151.461 5.654 78.615 44.577 147.307Zm102.77-100.769 241.999-244q-43-33-87.653-51.961-44.654-18.962-84.577-25.308-39.923-6.346-72.346.192-32.423 6.539-50.193 24.308-17.769 18-24.307 50.423-6.539 32.423-.577 72.462 5.961 40.038 24.923 84.961 18.961 44.923 52.731 88.923Zm271.846-272.308L691.231-714q-69.923-41.231-148.923-45.846-79-4.616-151.846 30.461 35.077.077 66.692 7.923 31.615 7.847 59.769 19.731 28.154 11.885 53.5 27.539 25.346 15.653 47.885 32.653Z"/></svg>