<svg xmlns="http://www.w3.org/2000/svg" height="20" viewBox="0 -960 960 960" width="20"><path d="M760-162.463 538.154-384.539l36.153-37.153 222.845 222.846L760-162.463Zm-503.615-27.77q-44.384-49-68.769-111.922-24.384-62.923-24.384-135.46 0-72.539 27.654-137.384 27.654-64.846 78.577-114.385 54.922-52.922 119.576-79.384 64.654-26.461 137.422-26.461 69.923 0 131.845 24.192 61.923 24.192 111.307 68.576L256.385-190.233Zm5.461-76.998 58.232-59.231q-16-20.769-29.577-42.308-13.577-21.539-25.077-45.616-11.5-24.077-19.539-51.385-8.038-27.308-11.961-56.847-23.693 61.924-14.617 128.732 9.077 66.808 42.539 126.655Zm95.384-96.384 237.001-238.001q-40-31-82.077-50.23-42.077-19.231-80.538-26.154-38.462-6.923-71.424-.654-32.961 6.269-54.346 25.654-19.385 21-25.654 53.962-6.269 32.961.462 71.231 6.73 38.269 25.961 80.73 19.231 42.462 50.615 83.462Zm275.923-275.154L691.615-698q-57.462-34.616-126.463-42.923-69-8.308-130.924 14.232 27.539 1.538 52.847 9.461t49.885 19.115q24.577 11.193 48.501 26.269 23.923 15.077 47.692 33.077Z"/></svg>