<svg xmlns="http://www.w3.org/2000/svg" height="24" viewBox="0 -960 960 960" width="24"><path d="M774.462-156.923 532.769-397.077l28.308-28.308 241.692 241.693-28.307 26.769Zm-535.231-49.538q-76.154-94.923-80.577-215.385-4.424-120.461 63.961-219.308-8.538 38.616-1.077 81.885Q229-516 246.961-472.461q17.962 43.538 43.885 84.961t53.846 75.577L239.231-206.461ZM372-339.231q-41.846-45.692-68.231-97.192-26.384-51.5-38.038-99.115-11.654-47.616-7.616-86.116 4.039-38.5 23.5-57.961 19.462-19.693 57.962-23.077 38.5-3.385 85.846 8.654 47.346 12.038 98.462 38.923 51.115 26.884 96.038 67.961L372-339.231Zm275.231-275.23q-33.154-27.154-73.808-52.847-40.654-25.692-83.308-44.154-42.653-18.461-85.538-27.192-42.885-8.731-80.731-.962 98.847-64.615 216.885-59.961 118.039 4.654 212.5 79.115l-106 106.001Z"/></svg>