<svg xmlns="http://www.w3.org/2000/svg" height="20" viewBox="0 -960 960 960" width="20"><path d="M666.242-240Q729-240 772.5-283.742q43.5-43.743 43.5-106.5Q816-453 772.258-496.5q-43.743-43.5-106.5-43.5Q603-540 559.5-496.258q-43.5 43.743-43.5 106.5Q516-327 559.742-283.5q43.743 43.5 106.5 43.5ZM222-148q-21.45 0-36.725-15.275Q170-178.55 170-200v-560q0-21.45 15.275-36.725Q200.55-812 222-812h248q21.45 0 36.725 15.275Q522-781.45 522-760v150.639q-5 5.361-9.5 8.861Q508-597 502-593v-105H190v436h248q14 25 33.5 45t41.5 38q-6.13 14.3-18.804 22.65Q481.522-148 465-148H222Zm374-26.154V-234q-45-22-72.5-63.818t-27.5-92Q496-440 523.5-482t72.5-63v-61q0-11.05 7.361-18.525Q610.723-632 621.604-632h88.814q10.882 0 18.232 7.475T736-606v61q45 21 72.5 62.818t27.5 92Q836-340 808.5-298T736-234v59.846q0 11.116-7.361 18.635Q721.277-148 710.396-148h-88.814q-10.882 0-18.232-7.519T596-174.154Z"/></svg>