<svg xmlns="http://www.w3.org/2000/svg" height="24" viewBox="0 -960 960 960" width="24"><path d="M176.923-740h320v-35.385q0-9.23-7.692-16.923Q481.538-800 472.308-800h-270.77q-9.231 0-16.923 7.692-7.692 7.693-7.692 16.923V-740Zm24.615 620q-27.615 0-46.115-18.5-18.5-18.5-18.5-46.115v-590.77q0-27.615 18.5-46.115 18.5-18.5 46.115-18.5h270.77q27.615 0 46.115 18.5 18.5 18.5 18.5 46.115v147.846q-11.461 6.616-21.077 13.654-9.615 7.039-18.923 15.27V-700h-320v440H427q4.923 11.231 10.808 20.846 5.884 9.616 12.961 19.154H176.923v35.385q0 9.23 7.692 16.923Q192.307-160 201.538-160h306.154v-3.692q3.462 3.923 7.385 7.154 3.923 3.23 8.539 5.769-8.693 14.154-22.731 22.462Q486.846-120 468.462-120H201.538Zm475.385-120q60.308 0 102.462-42.154t42.154-102.461q0-60.308-42.154-102.462t-102.462-42.154q-60.307 0-102.461 42.154-42.154 42.154-42.154 102.462 0 60.307 42.154 102.461Q616.616-240 676.923-240Zm-47.692 120q-13.923 0-23.116-9.192-9.192-9.192-9.192-23.115v-65.539q-47.077-22.385-75.846-66.692-28.769-44.308-28.769-100.077 0-55.77 28.769-100.077 28.769-44.308 75.846-66.693v-65.538q0-13.923 9.192-23.116 9.193-9.192 23.116-9.192h95.385q13.923 0 23.115 9.192 9.192 9.193 9.192 23.116v65.538Q804-529 832.77-484.692q28.769 44.307 28.769 100.077 0 55.769-28.769 100.077-28.77 44.307-75.847 66.692v65.539q0 13.923-9.192 23.115Q738.539-120 724.616-120h-95.385ZM176.923-220v60-60Zm0-520V-800v60Z"/></svg>