<svg xmlns="http://www.w3.org/2000/svg" height="20" viewBox="0 -960 960 960" width="20"><path d="M646-480q0 76-28 143.5t-76.041 118.845Q538-214 534.5-214q-3.5 0-7.5-4t-3-9q1-5 6-8 45.847-48.62 70.923-111.221Q626-408.823 626-479.911q0-71.089-25.077-133.753Q575.847-676.329 530-725q-5-3-6-8.5t3-9.5q4-4 7.5-3.5t7.459 4.155Q590-691 618-623.5T646-480Zm-112 0q0 52-18.648 98.469Q496.705-335.061 464-298q-3.778 3.25-7.889 4.125Q452-293 448-296.759q-4-3.758-3-7.5 1-3.741 4-6.741 30-34 47.5-77.179Q514-431.357 514-480t-17.5-91.821Q479-615 448.721-648.854 446-652.438 445-656.219t3-7.781q4-4 8-2.5t8 4.5q32.705 37.061 51.352 83.531Q534-532 534-480Zm-112-.056q0 30.056-10.455 56.006Q401.091-398.1 383-377q-2 3-5.5 4.5T370-375q-4-4-4-7.5t3.1-7.625Q385-409 393.5-431.758 402-454.516 402-480q0-25.484-8.5-48.242Q385-551 369.1-569.875 366-574 366-578t4-8q4-4 7.5-2t5.5 5q18.091 21.067 28.545 46.978Q422-510.112 422-480.056ZM310-480q0 18.7-13.15 31.85Q283.7-435 265-434v206q0 4.3-2.85 7.15Q259.3-218 255-218q-4.3 0-7.15-2.844-2.85-2.845-2.85-7.137v-503.727q0-4.292 2.789-7.292 2.79-3 7-3 4.211 0 7.094 2.85 2.884 2.85 2.884 7.15v206q18.796 1 32.015 14.15Q310-498.7 310-480Z"/></svg>