<svg xmlns="http://www.w3.org/2000/svg" height="20" viewBox="0 -960 960 960" width="20"><path d="M389.04-823H156.283Q138-823 125.5-835.789q-12.5-12.79-12.5-31Q113-885 125.338-897.5 137.677-910 155.96-910h232.757Q407-910 419.5-897.711q12.5 12.29 12.5 30.5Q432-849 419.662-836q-12.339 13-30.622 13ZM229-687.262h-72q-18.3 0-31.15-12.869Q113-713 113-731.211q0-18.21 12.838-31Q138.677-775 156.96-775h230.757Q406-775 419-762.211q13 12.79 13 31 0 18.211-12.85 31.08T388-687.262h-72v116.196q0 18.328-12.35 30.697T273-528q-18.3 0-31.15-12.869Q229-553.738 229-572.066v-115.196ZM598-114q-14 14-30.5 13T537-116q-14-14-14-30.5t14-30.5l243-242q14-14 30-14t30 14q14 14 14 31t-14 31L598-114Zm-22-210q-27 0-46.5-19.5T510-390q0-27 19.5-46.5T576-456q27 0 46.5 19.5T642-390q0 27-19.5 46.5T576-324ZM823-77q-27 0-46.5-19.5T757-143q0-27 19.5-46.5T823-209q27 0 46.5 19.5T889-143q0 27-19.5 46.5T823-77ZM656-528q-44 0-74-30t-30-74q0-44 30-73t74-29q5 0 9 1t7 2v-108q0-23.4 16.3-39.7Q704.6-895 728-895h83q18.3 0 31.15 12.789 12.85 12.79 12.85 31Q855-833 842.15-820T811-807h-52v175q0 44-29.5 74T656-528ZM224-76q-42.54 0-73.77-30Q119-136 119-181q0-20 8.583-38.516 8.584-18.516 24.75-34.718L187-288l-12-12q-16-15-23.5-34.182Q144-353.364 144-374q0-46 30-76t75-30q42.54 0 72.77 30.763Q352-418.475 352-374.5q0 20.5-7 40T322-300l-12 12 25 25 23-23q13-13 30.5-13t30.978 13Q433-273 432.5-255T419-224l-23 22 22.718 22.718Q433-165 432-149t-15 30q-14 14-30 14t-30-14l-21-21-33.789 34.053Q286-90 265.325-83 244.649-76 224-76Zm25-269 12-14q2-3 4-7.5t2-9.857q0-5.643-5.2-11.143-5.2-5.5-12.8-5.5-9 0-13.5 5.5T231-376q0 7 1.5 10t4.206 6.706L249-345Zm-24 182q5 0 8.5-1.5t6.181-4.3L273-202l-26-26-33.319 34.2Q212-192 210-187.738q-2 4.262-2 8.214 0 5.524 5.5 11.024Q219-163 225-163Z"/></svg>