<svg xmlns="http://www.w3.org/2000/svg" height="24" viewBox="0 -960 960 960" width="24"><path d="M479.882-354Q414-354 368-400.083 322-446.167 322-512v-233q0-65.833 46.118-111.917Q414.235-903 480.118-903 546-903 592-856.917 638-810.833 638-745v233q0 65.833-46.118 111.917Q545.765-354 479.882-354ZM480-629ZM425-59v-127q-121-16-199-109.118T148-512h111q0 92 64.701 156.5 64.702 64.5 156.5 64.5Q572-291 636.5-355.643 701-420.285 701-512h111q0 124-78 217T535-186v127H425Zm55-421q13.6 0 22.8-9.2 9.2-9.2 9.2-22.8v-233q0-13.6-9.2-22.8-9.2-9.2-22.8-9.2-13.6 0-22.8 9.2-9.2 9.2-9.2 22.8v233q0 13.6 9.2 22.8 9.2 9.2 22.8 9.2Z"/></svg>