<svg xmlns="http://www.w3.org/2000/svg" height="24" viewBox="0 -960 960 960" width="24"><path d="M66-174v-83q0-5 2.087-10.438Q70.174-272.875 74-277l72-72v-261.818L84-673q-8-8-13-19.278-5-11.278-5-23.722v-84q0-5.95 4.035-9.975 4.035-4.025 10-4.025T90-809.975q4 4.025 4 9.975v66h132v-66q0-5.95 4.035-9.975 4.035-4.025 10-4.025t9.965 4.025q4 4.025 4 9.975v66h132v-66q0-5.95 4.035-9.975 4.035-4.025 10-4.025t9.965 4.025q4 4.025 4 9.975v84q0 12.444-5 23.722T396-673l-62 62v77h292v-77l-62-62q-8-8-13-19.278-5-11.278-5-23.722v-84q0-5.95 4.035-9.975 4.035-4.025 10-4.025t9.965 4.025q4 4.025 4 9.975v66h132v-66q0-5.95 4.035-9.975 4.035-4.025 10-4.025t9.965 4.025q4 4.025 4 9.975v66h132v-66q0-5.95 4.035-9.975 4.035-4.025 10-4.025t9.965 4.025q4 4.025 4 9.975v84q0 12.444-5 23.722T876-673l-62 62.182V-349l72 72q3.826 4.125 5.913 9.562Q894-262 894-257v83q0 11-8.5 19.5T866-146H616q-12.75 0-21.375-8.625T586-176v-64q0-43.725-31.195-74.862-31.194-31.138-75-31.138Q436-346 405-314.862 374-283.725 374-240v63.505q0 13.495-8.625 21.995Q356.75-146 344-146H94q-11 0-19.5-8.5T66-174Zm28 0h252v-66q0-56 39-95t95-39q56 0 95 39t39 95v66h252v-84l-80-80v-284l84-84H570l84 84v116H306v-116l84-84H90l84 84v284l-80 80v84Zm386-266Z"/></svg>