<svg xmlns="http://www.w3.org/2000/svg" height="20" viewBox="0 -960 960 960" width="20"><path d="M74-202v-61q0-6.143 2.609-12.616Q79.217-282.089 84-287l86-86v-213.818L90-667q-8-8-12-17.721-4-9.72-4-20.447v-74.658q0-4.124 2.825-7.149 2.824-3.025 7-3.025Q88-790 91-787.125T94-780v62h136v-61.789q0-4.161 2.825-7.186 2.824-3.025 7-3.025 4.175 0 7.175 2.875t3 7.125v62h136v-61.789q0-4.161 2.825-7.186 2.824-3.025 7-3.025 4.175 0 7.175 2.819 3 2.818 3 6.985v74.874q0 10.766-4 20.544T390-667l-80 80v85h340v-85l-80-80q-8-8-12-17.721-4-9.72-4-20.447v-74.658q0-4.124 2.825-7.149 2.824-3.025 7-3.025 4.175 0 7.175 2.875t3 7.125v62h136v-61.789q0-4.161 2.825-7.186 2.824-3.025 7-3.025 4.175 0 7.175 2.875t3 7.125v62h136v-61.789q0-4.161 2.825-7.186 2.824-3.025 7-3.025 4.175 0 7.175 2.819 3 2.818 3 6.985v74.874q0 10.766-4 20.544T870-667l-80 80.182V-373l86 86q4.783 4.911 7.391 11.384Q886-269.143 886-263v61q0 12.65-9.675 22.325Q866.65-170 854-170H628q-11.05 0-18.525-7.475Q602-184.95 602-196v-44q0-50.325-35.895-86.163Q530.211-362 479.805-362 428-362 393-326.163 358-290.325 358-240v43.505q0 11.795-7.475 19.145T332-170H106q-12.65 0-22.325-9.675Q74-189.35 74-202Zm20 12h244v-50q0-59.3 41-100.65Q420-382 479.504-382q59.505 0 101 41.35Q622-299.3 622-240v50h244v-79l-96-96v-230l103-103H567l103 103v113H290v-113l103-103H87l103 103v230l-96 96v79Zm386-252Z"/></svg>