<svg xmlns="http://www.w3.org/2000/svg" height="24" viewBox="0 -960 960 960" width="24"><path d="M548.385-200.769q-9.462 11.462-23.27 12.577-13.807 1.115-25.269-8.346L369.923-305.307q-42.308-35.077-60.462-86.231-18.154-51.154-9.461-104.924l-47.539-40.077q-11.23-8.692-12.346-21.884-1.115-13.192 7.346-24.654L259-596.923h-80.539v110q0 16.077-11.961 28.038-11.962 11.962-28.039 11.962v-340q16.077 0 28.039 11.961 11.961 11.962 11.961 28.039v110h113.462L356.231-715q10.23-10.693 24.038-11.808 13.808-1.115 24.5 7.577l46.539 39.077q51.769-19.154 105.538-9.692 53.77 9.461 96.077 44.538l129.923 108.769q10.693 9.462 11.808 23.27 1.116 13.807-7.577 24.269L548.385-200.769Zm-26.77-31.462 231.77-278.538-127.077-104.308Q588.154-646 539.269-648.846q-48.884-2.846-95.269 15.077l-61-50.769-100.077 121.23 59.231 49.231q-8.923 49.385 2.769 97.5t50.616 80.039l126.076 104.307Zm-3.076-226.154Z"/></svg>