<svg xmlns="http://www.w3.org/2000/svg" height="24" viewBox="0 -960 960 960" width="24"><path d="M480-474.348q35.826 0 60.739-24.913 24.913-24.913 24.913-60.739 0-35.826-24.913-60.739-24.913-24.913-60.739-24.913-35.826 0-60.739 24.913-24.913 24.913-24.913 60.739 0 35.826 24.913 60.739 24.913 24.913 60.739 24.913Zm0-424.87q11.913 0 24.26.869 12.348.87 24.261 2.304l114.653 115.219-20.652 20.652q-26.392 26.391-26.174 63.348.217 36.956 26.609 63.348 26.391 26.391 64.131 26.391 37.739 0 64.13-26.391l19.652-19.652 44.001 44.436q1.739 13.217 3.043 27.216 1.304 14 1.304 27.217 0 105.87-71.674 214.566T540.913-113.434q-12.695 11.13-28.674 16.696-15.978 5.565-32.239 5.565-16.261 0-32.239-5.565-15.979-5.566-28.674-16.696-68.392-61.696-120.653-119.261-52.261-57.565-87.174-112.196-34.913-54.63-52.696-106.674-17.782-52.044-17.782-102.696 0-157.913 102.435-251.435Q345.652-899.218 480-899.218ZM770.87-710.13l-48.652 48.652q-14.391 14.391-35.348 14.391t-35.348-14.391q-14.392-14.392-14.392-35.348 0-20.957 14.392-35.348l48.652-48.652-48.652-48.652q-14.392-14.392-14.392-35.348 0-20.957 14.392-35.348 14.391-14.392 35.348-14.392t35.348 14.392l48.652 48.651 48.652-48.651q14.391-14.392 35.348-14.392t35.348 14.392q14.392 14.391 14.392 35.348 0 20.956-14.392 35.348l-48.651 48.652 48.651 48.652q14.392 14.391 14.392 35.348 0 20.956-14.392 35.348-14.391 14.391-35.348 14.391t-35.348-14.391L770.87-710.13Z"/></svg>