<svg xmlns="http://www.w3.org/2000/svg" height="20" viewBox="0 -960 960 960" width="20"><path d="M722.231-185q-97.154-9-189.885-55.654-92.731-46.653-169.885-124.192-77.154-77.539-122.807-169.385Q194-626.077 184-723.231q-2-21.33 12.285-37.049Q210.571-776 232-776h72.923q19.308 0 32.962 11.269 13.654 11.269 19.961 30.346L375.692-673q2.77 13.769-1.5 27.308-4.269 13.538-13.807 21.538l-87.77 81.846q24.616 45.693 52.924 84.539 28.307 38.846 61.045 72.138 33.878 33.862 74.031 62.823 40.154 28.962 88.154 53.577l90.539-89.077q8.769-9.538 18.461-11.884 9.692-2.347 23.462-.347l53.154 12.231q19.308 5 30.461 19.423Q776-324.462 776-304.385V-233q0 21.429-16.22 35.715Q743.561-183 722.231-185ZM648-648h-80q-6.8 0-11.4-4.547-4.6-4.547-4.6-11.27 0-6.722 4.6-11.452Q561.2-680 568-680h80v-80q0-6.8 4.547-11.4 4.547-4.6 11.27-4.6 6.722 0 11.452 4.6Q680-766.8 680-760v80h80q6.8 0 11.4 4.547 4.6 4.547 4.6 11.269t-4.6 11.453Q766.8-648 760-648h-80v80q0 6.8-4.547 11.4-4.547 4.6-11.269 4.6t-11.453-4.6Q648-561.2 648-568v-80Z"/></svg>