<svg xmlns="http://www.w3.org/2000/svg" height="20" viewBox="0 -960 960 960" width="20"><path d="M765-111q-127.098-9-241.549-62Q409-226 317-317.5T173-523.282Q121-637.564 111-765q-2-35.143 21.429-60.071Q155.857-850 191-850h135q40 0 64.5 19t34.5 56l23 85q6 28-1 51t-27 40l-103 90q16 27 36 54t47.969 53.984Q426-376 450-357.5t48 30.5l106-100q19-18 41-23.5t50 .5l80 20q38 11 56.5 34t18.5 61v143q0 35.571-25.5 59.286Q799-109 765-111Zm-98-555h-52q-18.7 0-31.35-12.589-12.65-12.59-12.65-31.2 0-18.611 12.65-31.411T615-754h52v-53q0-18.275 12.589-30.637Q692.179-850 710.789-850q18.186 0 30.698 12.363Q754-825.275 754-807v53h52q18.7 0 31.35 12.589 12.65 12.59 12.65 31.2 0 18.611-12.65 31.411T806-666h-52v53q0 18.275-12.307 30.637Q729.386-570 711.193-570 693-570 680-582.65T667-614v-52Z"/></svg>