<svg xmlns="http://www.w3.org/2000/svg" height="20" viewBox="0 -960 960 960" width="20"><path d="M212.001-68.001V-892h535.998v823.998H212.001Zm51.999-110V-120h432v-58.001H264Zm0-603.998h432V-840H264v58.001Zm216.5 449.998q-58.5 0-113 19t-102.5 53v30.002h430v-30.002q-47.014-34.8-101.507-53.4t-112.993-18.6ZM480-384q57 0 112 15.101t104 45.207v-406.309H264v406.309q49-30.106 104-45.207Q423-384 480-384Zm-.045-58.001q45.814 0 77.929-32.07t32.115-77.884q0-45.814-32.07-77.929t-77.884-32.115q-45.814 0-77.929 32.07t-32.115 77.884q0 45.814 32.07 77.929t77.884 32.115Zm.045-51.998q-24.246 0-41.124-16.877-16.877-16.878-16.877-41.124 0-24.246 16.877-41.124 16.878-16.877 41.124-16.877 24.246 0 41.124 16.877 16.877 16.878 16.877 41.124 0 24.246-16.877 41.124-16.878 16.877-41.124 16.877Zm0 264h215-430 215ZM480-552Zm0-229.999Zm0 603.998Z"/></svg>