<svg xmlns="http://www.w3.org/2000/svg" height="20" viewBox="0 -960 960 960" width="20"><path d="M174.477-30.477v-899.046h611.046v899.046H174.477Zm98.002-146.002v48h415.042v-48H272.479Zm0-607.042h415.042v-48H272.479v48ZM480.5-312q-56.239 0-107.63 17.587t-99.391 49.326v-3.392h413.042v3.392q-47.013-32.539-98.398-49.726Q536.739-312 480.5-312Zm-.5-72q53.609 0 106.065 13.087 52.456 13.087 101.456 40.391v-380.999H272.479v380.999q49-27.304 101.456-40.391T480-384Zm0-43.478q50 0 85-35t35-85q0-50-35-85t-85-35q-50 0-85 35t-35 85q0 50 35 85t85 35Zm0-72q-20.4 0-34.2-13.8-13.8-13.8-13.8-34.2 0-20.4 13.8-34.2 13.8-13.8 34.2-13.8 20.4 0 34.2 13.8 13.8 13.8 13.8 34.2 0 20.4-13.8 34.2-13.8 13.8-34.2 13.8Zm0 250.999H686.521 273.479 480Zm0-298.999Zm0-236.043Zm0 607.042Z"/></svg>