<svg xmlns="http://www.w3.org/2000/svg" height="20" viewBox="0 -960 960 960" width="20"><path d="M388.262-388H254.066q-4.278 0-7.172-2.885t-2.894-7.15q0-4.265 2.875-7.115Q249.75-408 254-408h134v-144H254q-4.25 0-7.125-2.825-2.875-2.824-2.875-7 0-4.175 2.875-7.044 2.875-2.869 7.125-2.869h134v-134.196q0-4.278 2.885-7.172t7.15-2.894q4.265 0 7.115 2.875Q408-710.25 408-706v134h144v-134q0-4.25 2.825-7.125 2.824-2.875 7-2.875 4.175 0 7.044 2.875 2.869 2.875 2.869 7.125v134h134.196q4.278 0 7.172 2.885t2.894 7.15q0 4.265-2.875 7.115Q710.25-552 706-552H572v144h134q4.25 0 7.125 2.825 2.875 2.824 2.875 7 0 4.175-2.875 7.044-2.875 2.869-7.125 2.869H572v134.196q0 4.278-2.885 7.172t-7.15 2.894q-4.265 0-7.115-2.875Q552-249.75 552-254v-134H408v134q0 4.25-2.825 7.125-2.824 2.875-7 2.875-4.175 0-7.044-2.875-2.869-2.875-2.869-7.125v-134ZM408-408h144v-144H408v144Z"/></svg>