<svg xmlns="http://www.w3.org/2000/svg" height="24" viewBox="0 -960 960 960" width="24"><path d="m800-274-40-40v-421.385q0-9.23-7.692-16.923Q744.615-760 735.385-760H314l-40-40h461.385Q763-800 781.5-781.5 800-763 800-735.385V-274ZM224.615-160Q197-160 178.5-178.5 160-197 160-224.615v-518.77l-62.154-62.153q-5.615-5.616-6-13.769-.385-8.154 6-14.539T112-840.231q7.769 0 14.154 6.385l707.692 707.692q5.615 5.615 6 13.769.385 8.154-6 14.539t-14.154 6.385q-7.769 0-14.154-6.385L743.385-160h-518.77Zm378.539-140H332.307q-9.692 0-14.153-8.692-4.462-8.693 2-17.154l46.154-60.847q5.23-6.461 12.538-6.461t12.539 5.692l57.077 69L509.154-394 200-703.154v478.539q0 9.23 7.692 16.923Q215.385-200 224.615-200h478.539l-100-100ZM537-537Zm-85.308 85.308Z"/></svg>