<svg xmlns="http://www.w3.org/2000/svg" height="24" viewBox="0 -960 960 960" width="24"><path d="M326.379-624Q301-624 283.5-641.625 266-659.25 266-684v-44q0-24.75 17.625-42.375T326-788h307.621Q659-788 676.5-770.375 694-752.75 694-728v44q0 24.75-17.625 42.375T634-624H326.379ZM326-652h308q14 0 23-9t9-23v-44q0-13.6-9.2-22.8-9.2-9.2-22.8-9.2H326q-13.6 0-22.8 9.2-9.2 9.2-9.2 22.8v44q0 14 9 23t23 9Zm-94 480q-24.75 0-42.375-17.625T172-232v-40h616v40q0 25-17.625 42.5T728-172H232Zm-60-128 99.819-247.597Q279-565 294.238-574.5T327-584h306q17.524 0 32.762 9.5t22.419 26.903L788-300H172Zm180-60h40q5.6 0 9.8-4.2 4.2-4.2 4.2-9.8 0-5.6-4.2-9.8-4.2-4.2-9.8-4.2h-40q-5.6 0-9.8 4.2-4.2 4.2-4.2 9.8 0 5.6 4.2 9.8 4.2 4.2 9.8 4.2Zm0-68h40q5.6 0 9.8-4.2 4.2-4.2 4.2-9.8 0-5.6-4.2-9.8-4.2-4.2-9.8-4.2h-40q-5.6 0-9.8 4.2-4.2 4.2-4.2 9.8 0 5.6 4.2 9.8 4.2 4.2 9.8 4.2Zm0-68h40q5.6 0 9.8-4.2 4.2-4.2 4.2-9.8 0-5.6-4.2-9.8-4.2-4.2-9.8-4.2h-40q-5.6 0-9.8 4.2-4.2 4.2-4.2 9.8 0 5.6 4.2 9.8 4.2 4.2 9.8 4.2Zm108 136h40q5.6 0 9.8-4.2 4.2-4.2 4.2-9.8 0-5.6-4.2-9.8-4.2-4.2-9.8-4.2h-40q-5.6 0-9.8 4.2-4.2 4.2-4.2 9.8 0 5.6 4.2 9.8 4.2 4.2 9.8 4.2Zm0-68h40q5.6 0 9.8-4.2 4.2-4.2 4.2-9.8 0-5.6-4.2-9.8-4.2-4.2-9.8-4.2h-40q-5.6 0-9.8 4.2-4.2 4.2-4.2 9.8 0 5.6 4.2 9.8 4.2 4.2 9.8 4.2Zm0-68h40q5.6 0 9.8-4.2 4.2-4.2 4.2-9.8 0-5.6-4.2-9.8-4.2-4.2-9.8-4.2h-40q-5.6 0-9.8 4.2-4.2 4.2-4.2 9.8 0 5.6 4.2 9.8 4.2 4.2 9.8 4.2Zm108 136h40q5.6 0 9.8-4.2 4.2-4.2 4.2-9.8 0-5.6-4.2-9.8-4.2-4.2-9.8-4.2h-40q-5.6 0-9.8 4.2-4.2 4.2-4.2 9.8 0 5.6 4.2 9.8 4.2 4.2 9.8 4.2Zm0-68h40q5.6 0 9.8-4.2 4.2-4.2 4.2-9.8 0-5.6-4.2-9.8-4.2-4.2-9.8-4.2h-40q-5.6 0-9.8 4.2-4.2 4.2-4.2 9.8 0 5.6 4.2 9.8 4.2 4.2 9.8 4.2Zm0-68h40q5.6 0 9.8-4.2 4.2-4.2 4.2-9.8 0-5.6-4.2-9.8-4.2-4.2-9.8-4.2h-40q-5.6 0-9.8 4.2-4.2 4.2-4.2 9.8 0 5.6 4.2 9.8 4.2 4.2 9.8 4.2Z"/></svg>