<svg xmlns="http://www.w3.org/2000/svg" height="24" viewBox="0 -960 960 960" width="24"><path d="M230.131-148.13 162.261-216l374.956-375.521h-85.912v74.347h-96.957v-171.305h252.783q17.696 0 34.109 6.566 16.413 6.565 29.109 19.261l119.435 119q28.695 28.695 68.826 41.717 40.13 13.022 84 13.456v96.958q-62.565 0-118.153-18.435-55.587-18.435-97.978-60.392l-34.348-35.217L616.001-430l91.696 91.696L429.305-177.13l-48.479-83.696L550-358.696l-53.869-54.434-266 265ZM97.391-420.216v-96.958h216.957v96.958H97.39Zm-80-136.958v-96.957h216.957v96.957H17.39Zm782.523-81.13q-36.957 0-62.935-25.761t-25.978-62.718q0-36.957 25.978-62.718 25.978-25.761 62.935-25.761 36.392 0 62.653 26.044 26.261 26.044 26.261 62.435 0 36.392-26.261 62.435-26.261 26.044-62.653 26.044ZM97.39-694.131v-96.958h216.958v96.958H97.39Z"/></svg>