<svg xmlns="http://www.w3.org/2000/svg" height="24" viewBox="0 -960 960 960" width="24"><path d="m216.769-188.461-28.308-28.308L591.692-620H420v80h-40v-120h246.846q3.692 0 7.154 1.385 3.462 1.384 6 3.923l123.846 123.615q28.539 28.538 65.231 45.462 36.692 16.923 78.615 17.153v40.001q-50.461 0-93.654-19.77-43.192-19.769-77.577-53.923l-50.769-51.23L561.539-430l86.154 86.154-222.001 128.692-20-35.923 175.846-101.308-100.307-100.307-264.462 264.231ZM160-460v-40h160v40H160ZM80-580v-40h160v40H80Zm699-80q-25.308 0-43.154-17.731Q718-695.461 718-720.769q0-25.308 17.846-43.039T779-781.539q25.308 0 43.154 17.731Q840-746.077 840-720.769t-17.846 43.038Q804.308-660 779-660Zm-619-40v-40h160v40H160Z"/></svg>