<svg xmlns="http://www.w3.org/2000/svg" height="20" viewBox="0 -960 960 960" width="20"><path d="M116.001-236.771v-51.998h375.154v51.998H116.001Zm0-175.769v-51.998h181.23v51.998h-181.23Zm0-175.769v-51.998h181.23v51.998h-181.23Zm690.845 352.308-153.77-152.616q-21.846 15.616-47.807 24.308-25.962 8.692-54.808 8.692-71.858 0-122.505-50.264-50.647-50.264-50.647-122.153 0-71.888 50.74-121.927 50.74-50.038 122.73-50.038 71.99 0 122.412 50.198Q723.614-599.602 723.614-528q0 28.846-8.692 54.807-8.693 25.962-24.693 47.423l153.77 152.616-37.153 37.153ZM550.461-407.615q50.481 0 85.818-35 35.336-35 35.336-85.193 0-50.192-35.336-85.192-35.337-35-85.818-35-50.48 0-85.817 35-35.337 35-35.337 85.192 0 50.193 35.337 85.193t85.817 35Z"/></svg>