<svg xmlns="http://www.w3.org/2000/svg" height="20" viewBox="0 -960 960 960" width="20"><path d="M87.87-207.869v-82.761h387.347v82.761H87.869Zm0-182.87V-473.5H293.26v82.761H87.869Zm0-182.87v-82.761H293.26v82.761H87.869Zm728.239 359.522L664.304-367.326q-23 16-50.26 24.38-27.261 8.381-57.261 8.381-81.354 0-138.471-57.61-57.116-57.611-57.116-139.348 0-81.738 57.182-139.173 57.183-57.435 138.511-57.435 81.329 0 138.405 57.559 57.076 57.559 57.076 139.224 0 30.081-8.142 57.66-8.141 27.579-24.141 50.611L872.131-269.87l-56.022 55.783ZM556.663-413.739q48.685 0 82.728-34.311 34.044-34.311 34.044-83.326 0-49.015-34.024-83.418-34.023-34.402-82.628-34.402-48.805 0-82.728 34.36-33.924 34.36-33.924 83.446t33.924 83.368q33.923 34.283 82.608 34.283Z"/></svg>