<svg xmlns="http://www.w3.org/2000/svg" height="24" viewBox="0 -960 960 960" width="24"><path d="M60.782-180.782v-105.436h407.913v105.436H60.782Zm0-206.783v-105.436h231.653v105.436H60.782Zm0-206.783v-105.436h231.653v105.436H60.782Zm770.566 398.87L680.174-350.043q-24 17-51.934 25.217-27.935 8.217-56.935 8.217-86.957 0-147.718-61.771-60.761-61.772-60.761-149.414 0-87.641 60.761-149.533 60.761-61.891 147.435-61.891t147.718 61.806q61.044 61.807 61.044 149.499 0 29.19-7.653 57.877-7.652 28.688-24.652 52.764l151.739 154.489-67.87 67.305ZM571.022-413.566q46.891 0 79.63-33.371 32.739-33.37 32.739-81.043 0-47.672-32.691-81.259-32.692-33.587-79.395-33.587-47.174 0-79.63 33.487-32.457 33.487-32.457 81.326 0 47.839 32.457 81.143 32.456 33.304 79.347 33.304Z"/></svg>