<svg xmlns="http://www.w3.org/2000/svg" height="20" viewBox="0 -960 960 960" width="20"><path d="M532-455.077q-33.846 0-56.923-23.077Q452-501.231 452-535.077q0-33.846 23.077-56.923 23.077-23.077 56.923-23.077 33.846 0 56.923 23.077Q612-568.923 612-535.077q0 33.846-23.077 56.923-23.077 23.077-56.923 23.077ZM219.692-351.385V-718.77h624.616v367.385H219.692Zm88.616-32h447.384q0-23.846 16.631-40.347 16.631-16.5 39.985-16.5v-189.922q-23.546 0-40.081-16.631-16.535-16.63-16.535-39.984H308.308q0 23.846-16.631 40.347-16.631 16.5-39.985 16.5V-440q23.547 0 40.081 16.631 16.535 16.63 16.535 39.984ZM115.692-247.384v-376.924h32v344.923h578.155v32.001H115.692Zm136-136.001v-303.384 303.384Z"/></svg>