<svg xmlns="http://www.w3.org/2000/svg" height="20" viewBox="0 -960 960 960" width="20"><path d="M248-196q-21.45 0-36.725-15.275Q196-226.55 196-248v-464q0-21.45 15.275-36.725Q226.55-764 248-764h197q-16-24-4-48t39.5-24q27.5 0 39.5 24t-5 48h197q21.45 0 36.725 15.275Q764-733.45 764-712v219q-6.1 1.24-10.6 2.58t-9.4.42v-222q0-12-10-22t-22-10H248q-12 0-22 10t-10 22v464q0 12 10 22t22 10h221q-.125 5.516-1.562 9.758Q466-202 465-196H248Zm-32-43.654V-216v-528 254-2 252.346ZM324-326h156q3-5 5.69-9.466 2.691-4.466 5.31-10.534H324q-4.25 0-7.125 2.825-2.875 2.824-2.875 7 0 4.175 2.875 7.175t7.125 3Zm0-144h279q10 1 13.5 0t7.5-5v-15H324q-4.25 0-7.125 2.825-2.875 2.824-2.875 7 0 4.175 2.875 7.175t7.125 3Zm0-144h312q4.25 0 7.125-2.825 2.875-2.824 2.875-7 0-4.175-2.875-7.175T636-634H324q-4.25 0-7.125 2.825-2.875 2.824-2.875 7 0 4.175 2.875 7.175t7.125 3Zm156-144q10.4 0 17.2-6.8 6.8-6.8 6.8-17.2 0-10.4-6.8-17.2-6.8-6.8-17.2-6.8-10.4 0-17.2 6.8-6.8 6.8-6.8 17.2 0 10.4 6.8 17.2 6.8 6.8 17.2 6.8ZM719.774-94Q661-94 620.5-134.726t-40.5-99.5Q580-293 620.726-333.5t99.5-40.5Q779-374 819.5-333.274t40.5 99.5Q860-175 819.274-134.5t-99.5 40.5ZM702-216v54q0 7.2 5.4 12.6 5.4 5.4 12.6 5.4 7.2 0 12.6-5.4 5.4-5.4 5.4-12.6v-54h54q7.2 0 12.6-5.4 5.4-5.4 5.4-12.6 0-7.2-5.4-12.6-5.4-5.4-12.6-5.4h-54v-54q0-7.2-5.4-12.6-5.4-5.4-12.6-5.4-7.2 0-12.6 5.4-5.4 5.4-5.4 12.6v54h-54q-7.2 0-12.6 5.4-5.4 5.4-5.4 12.6 0 7.2 5.4 12.6 5.4 5.4 12.6 5.4h54Z"/></svg>