<svg xmlns="http://www.w3.org/2000/svg" height="20" viewBox="0 -960 960 960" width="20"><path d="M222.783-124.782q-40.426 0-69.213-28.788-28.788-28.787-28.788-69.213v-514.434q0-40.426 28.788-69.213 28.787-28.788 69.213-28.788H375.13q11.957-32.131 40.283-52.066 28.326-19.934 64.587-19.934t64.587 19.934q28.326 19.935 40.283 52.066h152.347q40.426 0 69.213 28.788 28.788 28.787 28.788 69.213v277.218q-22.187-11.977-46.687-20.094-24.5-8.117-51.314-11.167v-245.957H222.783v514.434h226.304q.744 26.864 6.22 51.107 5.475 24.242 14.867 46.894H222.783Zm0-103.913v5.912-514.434 245.957-1.435 264Zm108-66.088h125.826q5.13-19 12.734-36.966 7.603-17.966 17.483-35.034H330.783q-15.3 0-25.65 10.29-10.35 10.289-10.35 25.5 0 15.21 10.35 25.71t25.65 10.5Zm0-149.217h226.869q23.739-16.043 50.631-27.434 26.891-11.392 56.934-16.826V-516H330.783q-15.3 0-25.65 10.289-10.35 10.29-10.35 25.5 0 15.211 10.35 25.711 10.35 10.5 25.65 10.5Zm0-149.217h298.434q15.3 0 25.65-10.289 10.35-10.29 10.35-25.501 0-15.21-10.35-25.71t-25.65-10.5H330.783q-15.3 0-25.65 10.289-10.35 10.29-10.35 25.5 0 15.211 10.35 25.711 10.35 10.5 25.65 10.5ZM480-763.478q12.36 0 20.441-8.081T508.522-792q0-12.36-8.081-20.441T480-820.522q-12.36 0-20.441 8.081T451.478-792q0 12.36 8.081 20.441T480-763.478ZM712.991-37.26q-79.774 0-135.774-56.227-56-56.226-56-135.999 0-79.774 56.226-135.774t136-56q79.774 0 135.774 56.226t56 136q0 79.774-56.226 135.774t-136 56Zm-32.253-159.522v39.522q0 12.991 9.744 22.735 9.744 9.743 22.735 9.743t22.735-9.743q9.744-9.744 9.744-22.735v-39.522h39.521q12.991 0 22.735-9.743 9.744-9.744 9.744-22.735 0-12.992-9.744-22.735-9.744-9.744-22.735-9.744h-39.521v-39.521q0-12.992-9.744-22.735-9.744-9.744-22.735-9.744t-22.735 9.744q-9.744 9.743-9.744 22.735v39.521h-39.521q-12.991 0-22.735 9.744-9.744 9.743-9.744 22.735 0 12.991 9.744 22.735 9.744 9.743 22.735 9.743h39.521Z"/></svg>