<svg xmlns="http://www.w3.org/2000/svg" height="24" viewBox="0 -960 960 960" width="24"><path d="M232-172q-24.75 0-42.375-17.625T172-232v-496q0-24.75 17.625-42.375T232-788h194q-11-29 6-54.5t48.5-25.5q31.5 0 48.5 25.5t5 54.5h194q24.75 0 42.375 17.625T788-728v229q-8-2-14.5-3t-13.5-3v-223q0-12-10-22t-22-10H232q-12 0-22 10t-10 22v496q0 12 10 22t22 10h222q1 8 2 14.5t3 13.5H232Zm-32-67.654V-200v-560 255-3 268.346ZM320-318h143q2-7 5-13.5t6-14.5H320q-5.95 0-9.975 4.035-4.025 4.035-4.025 10t4.025 9.965q4.025 4 9.975 4Zm0-148h255q16-9 29-15.5t28-11.5v-1H320q-5.95 0-9.975 4.035-4.025 4.035-4.025 10t4.025 9.965q4.025 4 9.975 4Zm0-148h320q5.95 0 9.975-4.035 4.025-4.035 4.025-10T649.975-638q-4.025-4-9.975-4H320q-5.95 0-9.975 4.035-4.025 4.035-4.025 10t4.025 9.965q4.025 4 9.975 4Zm160-166q13 0 21.5-8.5T510-810q0-13-8.5-21.5T480-840q-13 0-21.5 8.5T450-810q0 13 8.5 21.5T480-780ZM720-86q-62 0-105-43t-43-105q0-62 43-105t105-43q62 0 105 43t43 105q0 62-43 105T720-86Zm-14-134v86q0 5.6 4.2 9.8 4.2 4.2 9.8 4.2 5.6 0 9.8-4.2 4.2-4.2 4.2-9.8v-86h86q5.6 0 9.8-4.2 4.2-4.2 4.2-9.8 0-5.6-4.2-9.8-4.2-4.2-9.8-4.2h-86v-86q0-5.6-4.2-9.8-4.2-4.2-9.8-4.2-5.6 0-9.8 4.2-4.2 4.2-4.2 9.8v86h-86q-5.6 0-9.8 4.2-4.2 4.2-4.2 9.8 0 5.6 4.2 9.8 4.2 4.2 9.8 4.2h86Z"/></svg>