<svg xmlns="http://www.w3.org/2000/svg" height="20" viewBox="0 -960 960 960" width="20"><path d="M288-336h384v-48H288v48Zm0-144h144v-48h-58q20-23 47.5-35.5T480-576q46 0 82.5 26.5T615-480h50q-17-64-68-104t-117-40q-42 0-79.5 17T336-558v-66h-48v144ZM480-62q-87 0-162.987-32.584-75.988-32.583-132.917-89.512T94.584-317.013Q62-393 62-480q0-88 32.584-163.487 32.583-75.488 89.512-132.417t132.917-89.512Q393-898 480-898q88 0 163.487 32.584 75.488 32.583 132.417 89.512t89.512 132.417Q898-568 898-480q0 87-32.584 162.987-32.583 75.988-89.512 132.917T643.487-94.584Q568-62 480-62Zm0-118q126 0 213-87t87-213q0-126-87-213t-213-87q-126 0-213 87t-87 213q0 126 87 213t213 87Zm0-300Z"/></svg>