<svg xmlns="http://www.w3.org/2000/svg" height="20" viewBox="0 -960 960 960" width="20"><path d="M480.014-135.869q-62.644 0-113.916-34.294-51.272-34.293-72.229-91.924h-110v-75.826h95.761q.18-13.964.209-27.928.03-13.963.03-28.246h-96v-75.826h96q0-14.283-.03-28.246-.029-13.964-.209-27.928h-95.761v-75.826h111.196q7.044-26.957 25.204-48.406 18.16-21.45 41.796-37.746l-81.478-81 54.109-53.87 101 100q21.295-6.435 43.658-6.674 22.363-.239 43.798 5.957L623.63-824.37l53.87 53.87-80.522 80.522q24.435 16.956 42.033 39.511Q656.609-627.913 666.37-600h109.761v73.913H680.37q-.18 13.964-.209 27.928-.03 13.963-.03 28.246h96v75.826h-96q0 14.283-.12 28.207-.12 13.923.12 27.967h96v75.826h-110q-20.957 57.631-72.215 91.924-51.258 34.294-113.902 34.294ZM480-218.87q48.675 0 81.903-34.929 33.227-34.93 35.227-84.831v-186.5q2-50.099-32.065-85.169Q531-645.37 480.5-645.37t-83.565 35.071q-33.065 35.07-34.065 85.169v186.5q-1 49.901 32.565 84.831Q429-218.87 480-218.87Zm-72-115.217h144v-75.826H408v75.826Zm0-120h144v-75.826H408v75.826Zm72 23.848Z"/></svg>