<svg xmlns="http://www.w3.org/2000/svg" height="20" viewBox="0 -960 960 960" width="20"><path d="M480.033-124.782q-66.251 0-120.621-36.739-54.369-36.739-76.63-97.957h-110v-81.044h95.434q.424-12.551.495-25.101.071-12.551.071-25.855h-96v-81.044h96q0-13.304-.071-25.855-.071-12.55-.495-25.101h-95.434v-81.044h112.826q5.739-28.261 24.388-50.2 18.65-21.939 42.612-38.887l-82.131-81 58.349-57.783 101 100q23.252-8.392 48.061-8.957 24.809-.565 48.2 7.261l101.131-101.696 57.783 57.783-79.87 79.87q26.392 18.261 44.805 42.935 18.413 24.674 27.848 55.196h109.434v76.522h-95.434q-.424 12.551-.495 25.101-.071 12.551-.071 25.855h96v81.044h-96q0 13.304-.282 25.761-.283 12.456.282 25.195h96v81.044h-110q-22.261 61.218-76.598 97.957-54.337 36.739-120.587 36.739ZM480-222.783q48.675 0 79.946-34.834t33.271-84.601v-178.999q2-50.233-30.108-85.399Q531-641.782 480.5-641.782q-50.5 0-81.609 35.166-31.108 35.166-32.108 85.399v178.999q-1 49.767 30.608 84.601Q429-222.783 480-222.783Zm-72-108.695h144v-81.044H408v81.044Zm0-120h144v-81.044H408v81.044Zm72 20.913Z"/></svg>