<svg xmlns="http://www.w3.org/2000/svg" height="20" viewBox="0 -960 960 960" width="20"><path d="M192-96v-360h84v-153L141-744l168-168 51 51-117 117 105 105v183h84v360H192Zm336 0v-360h84v-125q-47-12-77.5-49.942T504-720.377Q504-780 546-822q42-42 102-42t102 42.235q42 42.235 42 101.544Q792-669 761.5-631 731-593 684-581v125h84v360H528Zm120.212-552Q678-648 699-669.212q21-21.213 21-51Q720-750 698.788-771q-21.213-21-51-21Q618-792 597-770.788q-21 21.213-21 51Q576-690 597.212-669q21.213 21 51 21Z"/></svg>