<svg xmlns="http://www.w3.org/2000/svg" height="20" viewBox="0 -960 960 960" width="20"><path d="M219.694-123.694V-456h76.307v-139.153L164.848-726.306l154.153-153.769 36.768 36.769-116.615 117L348-617.46V-456h76.307v332.306H219.694Zm315.999 0V-456H612v-123.461q-43.154-8.539-71.73-42.7-28.577-34.161-28.577-80.522 0-52.7 36.615-89.315 36.615-36.615 89.691-36.615 53.077 0 89.692 36.85 36.615 36.85 36.615 89.235 0 46.09-28.577 80.309-28.577 34.219-71.73 42.758V-456h76.307v332.306H535.693Zm102.662-504.305q30.798 0 52.375-21.932t21.577-52.731q0-30.798-21.852-52.375-21.853-21.577-52.539-21.577t-52.455 21.852q-21.77 21.852-21.77 52.539 0 30.686 21.933 52.455 21.932 21.769 52.731 21.769ZM271.693-175.693h100.616v-228.308H271.693v228.308Zm315.998 0h100.616v-228.308H587.691v228.308Zm-315.998 0h100.616-100.616Zm315.998 0h100.616-100.616Z"/></svg>