<svg xmlns="http://www.w3.org/2000/svg" height="24" viewBox="0 -960 960 960" width="24"><path d="M255.384-135.384V-440H320v-156.308L191.692-724.616 324-856.154l27.539 27.538-103.231 104L360-612.923V-440h64.615v304.616H255.384Zm280.001 0V-440H600v-121.923q-44.308-7.077-74.462-41.516-30.153-34.438-30.153-81.177 0-52.154 36.23-88.384 36.231-36.231 88.385-36.231T708.385-773q36.231 36.23 36.231 88.384 0 46.739-30.154 81.177Q684.308-569 640-561.923V-440h64.616v304.616H535.385ZM620.286-600q35.022 0 59.676-24.94 24.653-24.94 24.653-59.961 0-35.022-24.779-59.676-24.78-24.654-59.577-24.654t-59.836 24.78q-25.038 24.78-25.038 59.577t24.94 59.835Q585.264-600 620.286-600Z"/></svg>