<svg xmlns="http://www.w3.org/2000/svg" height="24" viewBox="0 -960 960 960" width="24"><path d="M170.607-67V-453h81.696v-165.347L110.65-760l178.654-178.653L363.957-864l-104 104 98.347 98.348v208.651H440v386.002H170.607ZM520-67V-453h81.696v-102.39q-52.566-17.391-86.283-61.652T481.696-720q0-71.652 50.674-122.327 50.674-50.674 122.326-50.674 71.653 0 122.327 50.674Q827.697-791.652 827.697-720q0 58.696-33.717 102.957-33.718 44.261-86.283 61.652v102.39h81.696v386.002H520ZM654.891-653q27.718 0 47.261-19.738 19.544-19.738 19.544-47.456 0-27.718-19.621-47.261-19.621-19.543-47.174-19.543-27.552 0-47.378 19.62-19.826 19.621-19.826 47.174t19.738 47.378q19.739 19.826 47.456 19.826Zm-378.282 480h57.39v-173.998h-57.39v173.998Zm349.392 0h57.39v-173.998h-57.39v173.998Zm-349.392 0h57.39-57.39Zm349.392 0h57.39-57.39Z"/></svg>