<svg xmlns="http://www.w3.org/2000/svg" height="20" viewBox="0 -960 960 960" width="20"><path d="M254-192v-751h596v751H254Zm298-461q25 0 42.5-17.5T612-713q0-25-17.5-42.5T552-773q-25 0-42.5 17.5T492-713q0 25 17.5 42.5T552-653Zm.465 300Q609-353 648.5-393.172q39.5-40.171 39.5-97Q688-547 648.035-586.5q-39.964-39.5-96.5-39.5Q495-626 455.5-586.035q-39.5 39.964-39.5 96.5Q416-433 455.965-393q39.964 40 96.5 40Zm-.7-72Q525-425 506.5-443.941t-18.5-46Q488-517 506.735-535.5q18.736-18.5 45.5-18.5Q579-554 597.5-535.265q18.5 18.736 18.5 45.5Q616-463 597.265-444q-18.736 19-45.5 19ZM684-17H80v-734h118v616h486v118Z"/></svg>