<svg xmlns="http://www.w3.org/2000/svg" height="24" viewBox="0 -960 960 960" width="24"><path d="M805.769-268.078 762-311.846q19.924-33.692 32.27-72.269 12.346-38.578 15.346-80.424-51.538-21.615-80.615-60-29.077-38.385-36.77-89.231-79.692-9.077-134.884-62.538-55.193-53.462-64.346-134.308-52.462-3.154-98.27 9.615-45.808 12.77-85.039 36.847l-43.153-43.153q58.692-39.692 130.961-55.808 72.269-16.115 154.345-.807-5.923 45 8.501 82.961Q574.769-743 603.23-716.577q28.461 26.423 68.115 37.77 39.654 11.346 85.808 2.885Q735-610.769 775.461-563.307q40.461 47.461 93.308 52.154 4.922 67.384-12.193 128.961-17.115 61.576-50.807 114.114ZM340-363.846q-23.077 0-39.615-16.539-16.539-16.538-16.539-39.615 0-23.461 16.539-39.807 16.538-16.347 39.615-16.347 23.461 0 39.807 16.347 16.347 16.346 16.347 39.807 0 23.077-16.347 39.615-16.346 16.539-39.807 16.539Zm491.693 320.46L702.539-172.54q-47.231 34.692-103.308 53.615Q543.154-100.001 480-100.001q-78.769 0-148.115-29.962-69.346-29.961-120.653-81.269-51.308-51.307-81.269-120.653Q100.001-401.231 100.001-480q0-63.154 18.924-119.231 18.923-56.077 53.615-103.308L51.233-823.846 94-866.615 874.46-86.154l-42.768 42.768ZM480-160q50.385 0 95.308-15.077 44.924-15.077 83.232-41.462L216.539-658.54q-26.385 38.308-41.462 83.232Q160-530.385 160-480q0 133 93.5 226.5T480-160Zm-42.153-277.847ZM535.846-538Z"/></svg>