<svg xmlns="http://www.w3.org/2000/svg" height="20" viewBox="0 -960 960 960" width="20"><path d="M0-135.521v-688.958h960v688.958H0Zm351.827-253.001q52.261 0 88.109-35.848 35.848-35.848 35.848-88.109 0-52.261-35.848-88.391-35.848-36.131-88.109-36.131-52.261 0-88.392 36.131-36.13 36.13-36.13 88.391t36.13 88.109q36.131 35.848 88.392 35.848ZM89.523-224.479h521q-51-54-115.935-87t-141.565-33q-75.5 0-143.5 32.5t-120 87.5Zm587.824-247.042h59.305v-61.044l56.043 28.305 29.653-52.175-56.044-27.739 56.044-29.739-30.653-51.174-55.043 28.304v-62.043h-59.305v62.043l-55.043-28.304-29.653 52.174 56.043 28.739-56.043 27.739 29.653 52.175 55.043-28.305v61.044Z"/></svg>