<svg xmlns="http://www.w3.org/2000/svg" height="24" viewBox="0 -960 960 960" width="24"><path d="M0-116.413v-727.174h960v727.174H0Zm366.696-285.5q50.956 0 86.315-35.359 35.359-35.358 35.359-86.315t-35.359-86.435Q417.652-645.5 366.696-645.5q-50.957 0-86.435 35.478t-35.478 86.435q0 50.957 35.478 86.315 35.478 35.359 86.435 35.359ZM91.413-203.587h552q-42-75-115.761-117.5t-160.239-42.5q-86 0-160 42.5t-116 117.5ZM682.11-476.413h64.782v-66.326l57.326 33.283 32.392-56.305-57.326-33.043 57.326-33.044-32.392-56.304-57.326 33.282v-66.326h-64.782v66.326l-57.327-33.282-32.391 56.304 57.326 33.044-57.326 33.043 32.391 56.305 57.327-33.283v66.326Z"/></svg>