<svg xmlns="http://www.w3.org/2000/svg" height="24" viewBox="0 -960 960 960" width="24"><path d="M20.002-147.694v-664.612h919.997v664.612H20.001Zm339.953-247.69q45.814 0 77.929-32.07t32.115-77.884q0-45.814-32.07-77.93-32.07-32.115-77.884-32.115t-77.929 32.07q-32.115 32.07-32.115 77.884t32.07 77.93q32.07 32.115 77.884 32.115ZM106.309-207.693h507.382q-42-64.614-109.077-102.306Q437.538-347.691 360-347.691q-77.538 0-144.614 37.692-67.077 37.692-109.077 102.306Zm589.845-278.461h47.692v-72.616l62.846 36.308 23.846-41.23L767.691-600l62.847-36.308-23.846-41.23-62.846 36.308v-72.616h-47.692v72.616l-62.846-36.308-23.846 41.23L672.309-600l-62.847 36.308 23.846 41.23 62.846-36.308v72.616Z"/></svg>