<svg xmlns="http://www.w3.org/2000/svg" height="20" viewBox="0 -960 960 960" width="20"><path d="M0-140.413v-679.174h960v679.174H0Zm600.224-79.174h280.363v-520.826H79.413v520.826q52-56 120-88t143.5-32q75.5 0 141 32.5t116.311 87.5ZM342.696-385.913q50.956 0 86.315-35.359 35.359-35.358 35.359-86.315t-35.359-86.435Q393.652-629.5 342.696-629.5q-50.957 0-86.435 35.478t-35.478 86.435q0 50.957 35.478 86.315 35.478 35.359 86.435 35.359ZM201.5-219.587h279.152Q448.848-238 414.199-249.206q-34.649-11.207-72.022-11.207-37.372 0-73.742 9.707Q232.066-241 201.5-219.587ZM342.696-461.5q-19.689 0-33.008-13.25Q296.37-488 296.37-507.587q0-19.689 13.317-33.007 13.318-13.319 33.005-13.319 19.686 0 32.889 13.317 13.202 13.318 13.202 33.005 0 19.687-13.25 32.889-13.25 13.202-32.837 13.202ZM480-480Zm208.109 3.587h52.782v-63.326l58.326 29.283 26.392-46.305-58.326-29.043 58.326-31.044-27.392-45.304-57.326 29.282v-64.326h-52.782v64.326l-57.327-29.282-26.391 46.304 58.326 30.044-58.326 29.043 26.391 46.305 57.327-29.283v63.326Z"/></svg>