<svg xmlns="http://www.w3.org/2000/svg" height="20" viewBox="0 -960 960 960" width="20"><path d="M0-135.521v-688.958h960v688.958H0Zm610.334-88.958h260.143v-511.042H89.523v511.042q52-56 120-88t143.5-32q75.5 0 141 32.5t116.311 87.5ZM351.827-388.522q52.261 0 88.109-35.848 35.848-35.848 35.848-88.109 0-52.261-35.848-88.391-35.848-36.131-88.109-36.131-52.261 0-88.392 36.131-36.13 36.13-36.13 88.391t36.13 88.109q36.131 35.848 88.392 35.848ZM224.002-224.479h252.085Q445.913-238 415.152-246.761q-30.76-8.76-63.869-8.76-33.108 0-65.89 7.26-32.782 7.261-61.391 23.782Zm127.825-244.522q-18.718 0-31.381-12.5-12.662-12.5-12.662-30.978 0-18.718 12.659-31.381 12.66-12.662 31.374-12.662t31.101 12.66q12.387 12.659 12.387 31.373 0 18.715-12.5 31.101-12.5 12.387-30.978 12.387ZM480-480Zm197.347 8.479h59.305v-61.044l56.043 28.305 29.653-52.175-56.044-27.739 56.044-29.739-30.653-51.174-55.043 28.304v-62.043h-59.305v62.043l-55.043-28.304-29.653 52.174 56.043 28.739-56.043 27.739 29.653 52.175 55.043-28.305v61.044Z"/></svg>