<svg xmlns="http://www.w3.org/2000/svg" height="20" viewBox="0 -960 960 960" width="20"><path d="M20.002-171.694v-616.612h919.997v616.612H20.001Zm315.953-207.69q45.814 0 77.929-32.07t32.115-77.884q0-45.814-32.07-77.93-32.07-32.115-77.884-32.115t-77.929 32.07q-32.115 32.07-32.115 77.884t32.07 77.93q32.07 32.115 77.884 32.115ZM94.309-223.693h476.382q-51-43.614-109.577-71.806-58.576-28.192-125.614-28.192-67.038 0-128.114 27.692-61.077 27.692-113.077 72.306Zm607.845-262.461h35.692v-69.616l63.846 32.308 17.846-31.23L755.691-587l63.847-34.308-18.846-30.23-62.846 32.308v-70.616h-35.692v70.616l-62.846-32.308-17.846 31.23L685.309-587l-63.847 32.308 17.846 31.23 62.846-32.308v69.616Z"/></svg>