<svg xmlns="http://www.w3.org/2000/svg" height="24" viewBox="0 -960 960 960" width="24"><path d="M480.206-40Q398-40 326-71q-72-31-125.5-84.5T116-281q-31-72-31-153h126q0 111.986 78.298 189.993Q367.596-166 480-166q111.986 0 189.993-78.298Q748-322.596 748-435q0-111.986-78.298-189.993Q591.404-703 479-703h-7l54 54-67 69-186-186 186-186 67 70-53 53h6q82.282 0 154.141 31T759-713.5q54 53.5 85 125.06 31 71.561 31 153.5Q875-353 844-281t-84.5 125.5Q706-102 634.206-71q-71.793 31-154 31ZM343-305v-183h-54v-67h126v250h-72Zm112 0v-250h185v250H455Zm73-67h40v-116h-40v116Z"/></svg>