<svg xmlns="http://www.w3.org/2000/svg" height="20" viewBox="0 -960 960 960" width="20"><path d="M560.525-299.384q11.629 0 19.86-8.141 8.231-8.14 8.231-19.769 0-11.629-8.141-19.86-8.14-8.231-19.769-8.231-11.629 0-19.86 8.141-8.231 8.14-8.231 19.769 0 11.629 8.141 19.86 8.14 8.231 19.769 8.231Zm-185.679-4.231q4.755 4.846 11.469 4.846 6.713 0 11.839-4.831l186.231-185.969q4.846-5.111 4.846-11.925 0-6.814-4.846-11.66T573.333-518q-6.205 0-10.718 4.846L374.897-325.436Q370-320.539 370-314.333q0 6.205 4.846 10.718Zm24.448-157q11.629 0 19.86-8.141 8.231-8.14 8.231-19.769 0-11.629-8.141-19.86-8.14-8.231-19.769-8.231-11.629 0-19.86 8.141-8.231 8.14-8.231 19.769 0 11.629 8.141 19.86 8.14 8.231 19.769 8.231ZM479.859-136q-112.936 0-192.398-79.505Q208-295.01 208-407.89q0-53.418 24.298-106.22 24.299-52.802 60.747-101.346 36.448-48.544 78.702-91.568 42.253-43.023 78.176-76.284 7.231-5.462 14.735-8.962t15.365-3.5q7.862 0 14.842 3.5 6.981 3.5 13.892 9.962 35.243 33.261 77.32 76.207 42.077 42.947 79.231 91.593 37.154 48.647 61.923 101.56Q752-460.034 752-407.89q0 112.88-79.603 192.385T479.859-136Zm.141-32q100 0 170-70t70-169.867Q720-476 666-557q-54-81-186-212-132 131-186 212t-54 149.133Q240-308 310-238q70 70 170 70Zm0-305.846Z"/></svg>