<svg xmlns="http://www.w3.org/2000/svg" height="24" viewBox="0 -960 960 960" width="24"><path d="M832-166v-640H128v288q0 26-18.5 44.5T65-455q-26 0-44.5-18.5T2-518v-288q0-51.975 37.013-88.987Q76.025-932 128-932h704q51.975 0 88.987 37.013Q958-857.975 958-806v537q0 42.488-37.013 72.744Q883.975-166 832-166ZM355-394q-81 0-137-56.5T162-588q0-81 56-137t137-56q81 0 137.5 56T549-588q0 81-56.5 137.5T355-394ZM128-6Q75-6 38.5-42.5T2-132v-22q0-43.341 22-79.67Q46-270 84-289q65-32 132.959-48.5T355-354q72 0 140.5 16T627-290q38 19 60 55t22 81v22q0 53-36.5 89.5T583-6H128Z"/></svg>