<svg xmlns="http://www.w3.org/2000/svg" height="20" viewBox="0 -960 960 960" width="20"><path d="M840-200.923v-538.462q0-10.769-6.923-17.692T815.385-764h-670.77q-10.769 0-17.692 6.923T120-739.385V-420q0 6.839-4.52 11.419Q110.959-404 104.21-404t-11.48-4.581Q88-413.161 88-420v-319.385q0-23.546 16.534-40.08Q121.069-796 144.615-796h670.77q23.546 0 40.081 16.535Q872-762.931 872-739.385v491.847q0 15.154-8.842 28.192-8.843 13.039-23.158 18.423ZM336-408.615q-43.846 0-73.923-30.077Q232-468.769 232-512.615q0-43.847 30.077-73.924 30.077-30.077 73.923-30.077 43.846 0 73.923 30.077Q440-556.462 440-512.615q0 43.846-30.077 73.923-30.077 30.077-73.923 30.077ZM121.255-151.384q-14.332 0-23.794-9.612Q88-170.607 88-184.923v-12.308q0-16.769 9.423-30.846 9.423-14.077 26.808-25 48.615-29.154 102.998-43.731Q281.612-311.385 336-311.385q54.769 0 107.962 14.577 53.192 14.577 103.807 43.731 17.385 9.923 26.808 24.61Q584-213.78 584-197.231v12.308q0 14.316-9.623 23.927-9.624 9.612-23.956 9.612H121.255Z"/></svg>