<svg xmlns="http://www.w3.org/2000/svg" height="20" viewBox="0 -960 960 960" width="20"><path d="M337.696-528h26v74q0 9 6.5 15.5t15.5 6.5q9 0 15.5-6.5t6.5-15.5v-74h26v120q0 10.4 6.8 17.2 6.8 6.8 17.2 6.8 10.4 0 17.2-6.816 6.8-6.815 6.8-17.239v-136.314q0-13.631-9-22.631t-21.393-9H320.088q-12.392 0-21.392 9.179-9 9.18-9 22.749v135.695q0 10.377 6.8 17.377 6.8 7 17.2 7 10.4 0 17.2-6.8 6.8-6.8 6.8-17.2v-120Zm236.608 96.289h64q13.6 0 22.8-9.144 9.2-9.145 9.2-22.788v-80.255q0-13.643-9.229-22.873Q651.846-576 638.202-576h-80.254q-13.644 0-22.644 9.179-9 9.18-9 22.749v135.695q0 10.377 6.8 17.377 6.8 7 17.2 7 10.4 0 17.2-6.759 6.8-6.759 6.8-17.096v-23.856Zm0-48.289v-48h48v48h-48ZM222.783-124.782q-41.005 0-69.503-28.498-28.498-28.498-28.498-69.503v-514.434q0-41.005 28.498-69.503 28.498-28.498 69.503-28.498h514.434q41.005 0 69.503 28.498 28.498 28.498 28.498 69.503v514.434q0 41.005-28.498 69.503-28.498 28.498-69.503 28.498H222.783Zm0-98.001h514.434v-514.434H222.783v514.434Zm0-514.434v514.434-514.434Z"/></svg>