<svg xmlns="http://www.w3.org/2000/svg" height="24" viewBox="0 -960 960 960" width="24"><path d="M423.435-487.913q-37.15 0-61.032-27.783-23.882-27.783-17.186-64.827l9.739-60.13q8-46.392 43.222-75.87 35.221-29.478 81.822-29.478 47.651 0 82.847 29.478 35.197 29.478 43.197 75.87l9.739 60.13q6.696 37.044-17.186 64.827-23.883 27.783-61.032 27.783h-114.13Zm-300.708 44.02q-24.553 1.067-42.466-9.781t-22.913-33.035q-2-9.509-1-19.357 1-9.847 5.565-17.847 0 1.565-1-4.646-2-2.485-10.566-25.05-2-12.998 3-24.912t13.566-20.48q-.566 0 2.565-2 2.139-20.193 16.573-34.009 14.434-13.817 35.819-13.817 3.565 0 20.041 4l3.089-1q5.565-5 14.068-7.782 8.502-2.783 18.067-2.783 11.691 0 21.039 3.783 9.348 3.782 14.476 11.222 1.026 0 1.539.531.513.532 1.539.532 14.359 1.062 25.809 9.033 11.449 7.971 16.811 21.788 2 7.44 1.5 14.348t-2.5 13.285q0 .435 1 4.565 7.528 7.48 11.829 16.562 4.302 9.082 4.302 18.699 0 5.696-6.566 22.131-1 1.434 0 4.565l2 17.064q0 22.396-18.614 38.394-18.615 15.997-45.303 15.997h-83.269Zm677.158.502q-35.146 0-60.342-25.233-25.195-25.233-25.195-60.666 0-12.884 3.804-23.959 3.804-11.074 10.326-21.621l-30.261-26.696q-10.565-9.13-3.783-21.696 6.783-12.565 19.651-12.565h85.788q35.388 0 60.301 25.098 24.913 25.098 24.913 60.342v21.36q0 35.244-25.028 60.44-25.028 25.196-60.174 25.196ZM-9.044-230.956V-303q0-48.102 47.015-77.073Q84.987-409.044 160-409.044q8.478 0 15.673.217 7.196.218 14.804 1.087-15.13 22.261-22.978 47.97-7.848 25.708-7.848 54.77v74.044H-9.044Zm240 0V-305q0-69.054 68.984-111.549 68.985-42.495 179.982-42.495 112.035 0 180.578 42.495Q729.044-374.054 729.044-305v74.044H230.956ZM800-409.044q76.07 0 122.557 28.971 46.487 28.971 46.487 77.073v72.044H800.349V-305q0-29.035-7.348-54.72t-22.044-48.02q7.609-.869 14.652-1.087 7.042-.217 14.391-.217Z"/></svg>