<svg xmlns="http://www.w3.org/2000/svg" height="20" viewBox="0 -960 960 960" width="20"><path d="M415-440q-12.082 0-19.849-9.923-7.767-9.923-4.074-21.154l13.154-68q4.923-27.385 27.038-44.154 22.116-16.77 48.425-16.77 26.921 0 49.037 16.77 22.115 16.769 27.038 44.154l13.154 68q2.693 12.431-4.668 21.754Q556.894-440 545-440H415Zm9-32h112l-12-60q-3-16-15.54-26t-28.5-10q-15.96 0-28.46 10T436-532l-12 60Zm-265.666 68.461q-15.257 1-26.415-6.185-11.158-7.186-14.842-20.876-2-6.093-.616-12.9 1.385-6.808 3.846-11.757 0-.256-1-1.974-2.23-3-6.323-16.783-.83-8.217 2.174-14.833 3.004-6.615 8.611-12.153.769 0 1.231-2.231 1.469-11.479 10.888-20.701 9.419-9.222 21.266-9.222 2.692 0 13.931 3.461l1.915-.231q3.461-3.846 8.333-6.269t10.353-2.423q7.061 0 13.226 2.346 6.165 2.346 9.723 8 .711 0 1.067.404t1.067.404q8.185 1 14.989 6.233 6.804 5.234 11.187 13.655 1.517 5.112 1.401 9.304-.115 4.193-2.115 7.948 0 .113 1 2.761 4.461 4.638 6.923 10.061 2.461 5.423 2.461 12.115 0-.308-2.692 12.846-.231.462 0 3.231.769 2.308 1.231 11.385 0 14.158-12.564 24.271-12.564 10.113-28.513 10.113h-51.743Zm615.276 2.308q-20.841 0-35.302-14.532-14.462-14.532-14.462-34.938 0-7.421 2.465-13.772 2.464-6.351 5.689-12.374l-24.065-20.424q-5.166-5.576-2.514-12.614 2.653-7.039 12.241-7.039h55.258q20.319 0 34.546 14.281t14.227 34.335v12.154q0 22.175-13.622 38.549-13.621 16.374-34.461 16.374ZM40-256.923v-31.539q0-46.077 44.157-68.769 44.158-22.692 104.634-22.692 13.44 0 26.901 1.884 13.462 1.885 26.923 4.885-12.615 13.385-19.307 34.815-6.693 21.43-6.693 38.569v42.847H40Zm240 0v-39.5q0-44.116 49.975-69.846Q379.951-392 480.212-392q100.096 0 149.942 25.644Q680-340.711 680-296.923v40H280Zm492-123q60 0 104 22.692t44 68.769v31.539H743.385v-42.847q0-17.139-6.193-38.569-6.192-21.43-20.577-34.815 13.462-3 27.237-4.885 13.774-1.884 28.148-1.884ZM479.906-360q-74.675 0-111.291 14.577-36.615 14.577-58.461 48.038v8.462h338.923v-8.462Q627-330.846 590.885-345.423 554.769-360 479.906-360ZM481-288.923ZM480-520Z"/></svg>