<svg xmlns="http://www.w3.org/2000/svg" height="24" viewBox="0 -960 960 960" width="24"><path d="M437-428q-13.562 0-22.281-10.5T408-463l7-46q4-24 23-39.5t42.23-15.5Q504-564 523-548.5q19 15.5 23 39.5l7 46q2 14-6.719 24.5Q537.562-428 524-428h-87Zm-2-28h91l-8-49q-2-14-13-22.5t-25-8.5q-14 0-24.5 8.5T443-505l-8 49Zm-276.881 52q-14.119 1-24.974-5.341Q122.289-415.683 119-429q-2-6-.5-11.5t3.5-10.833q0 .666-1-2.667-1-2-6-15-1-8 2.056-14.6 3.055-6.6 7.944-11.4 1 0 1-1 1.31-11.822 10.155-19.911Q145-524 157-524l12 2h2q3-3.5 7.8-5.25T189-529q7.071 0 12.536 2 5.464 2 8.589 7.25.625 0 .937.375.313.375.938.375 8 1 14.865 5.554Q233.731-508.893 237-501q1 5 1 8.5t-2 7.5l1 3q5 5 7 9.5t2 10.5q0 1-3 13v3q1 3 1 10 0 13.176-11.083 22.588Q221.833-404 206-404h-47.881Zm617.324 4Q755-400 740-414.815q-15-14.815-15-35.62 0-7.565 2.154-14Q729.308-470.871 733-477l-17.684-15.152Q709-497 713.098-504.5q4.098-7.5 11.663-7.5h50.435Q796-512 810.5-497.43 825-482.86 825-462.4v12.4q0 20-14.557 35-14.558 15-35 15ZM52-262v-26q0-35 37.555-58.5t97.474-23.5Q198-370 208-369t19 3q-7 14-11 29.109-4 15.11-4 32.19V-262H52Zm240 0v-39q0-45 52.168-71t136.108-26Q565-398 616.5-372q51.5 26 51.5 71v39H292Zm482-108q60.3 0 97.15 23.5Q908-323 908-288v26H748v-42.701q0-17.08-3.5-32.19Q741-352 734-366q9-2 19.186-3 10.185-1 20.814-1Zm-294.122 0Q409-370 364.5-351T320-301v11h320v-11q0-31-44-50t-116.122-19Zm.122 80Zm1-206Z"/></svg>