<svg xmlns="http://www.w3.org/2000/svg" height="24" viewBox="0 -960 960 960" width="24"><path d="M433-494q-44.188 0-72.594-33Q332-560 340-604l8-51q8-49 45.315-80T480-766q50.459 0 87.729 31Q605-704 613-655l8 51q8 44-20.406 77T528-494h-95Zm14-106h67l-6-37q-2-10-9.5-16.5t-18-6.5q-10.5 0-18 6.5T453-637l-6 37ZM121.748-446.118Q96-445 77-456.5 58-468 53-491.1q-2-9.9-1-20.4 1-10.5 6-18.5 0 2-1-5.143Q55-538 46-561q-2-13.765 3-26.382Q54-600 63-609q-1 0 3-2 2.245-21.111 17.398-35.556Q98.551-661 121-661q4 0 20.842 4l3.158-1q6-5 14.889-8t18.889-3Q191-669 201-665q10 4 15.227 11.778 1.046 0 1.568.555.523.556 1.569.556Q234-651 246.18-642.667q12.18 8.334 17.82 22.778 2 7.778 1.5 15T263-591l1 5q7.933 7.849 12.467 17.379Q281-559.091 281-549q0 7-7 23-1 1 0 5l2 17.882q0 23.471-19.472 40.236-19.471 16.764-47.459 16.764h-87.321Zm678.048.118Q763-446 736.5-472.565t-26.5-63.87q0-13.565 4.038-25.081Q718.077-573.032 725-584l-32-28q-11-10-4-23t20.536-13h90.24Q837-648 863-621.673t26 63.297v22.406q0 36.97-26.204 63.47-26.203 26.5-63 26.5ZM-16-224v-79q0-51.258 48.95-82.129Q81.9-416 160-416h17q-16 24-24.5 51.792Q144-336.417 144-305v81H-16Zm240 0v-81q0-72.172 70.895-116.586T479.862-466Q595-466 665.5-421.586T736-305v81H224Zm576-192q79.2 0 127.6 30.871Q976-354.258 976-303v79H816v-81q0-31.37-8-59.12-8-27.75-24-51.88h16Zm-319.826 56Q443-360 408-351.5q-35 8.5-54 20.5h253q-20-12-54.5-20.5t-72.326-8.5ZM480-331Zm1-299Z"/></svg>