<svg xmlns="http://www.w3.org/2000/svg" height="20" viewBox="0 -960 960 960" width="20"><path d="M689.774-96Q610-96 554-152.226t-56-136Q498-368 554.226-424t136-56Q770-480 826-423.774t56 136Q882-208 825.774-152t-136 56ZM745-189l44-45-67-67v-91h-63v116.716L745-189Zm-635 79v-740h251q14-34 45.775-55.5Q438.549-927 480-927q39 0 71.5 21.5T599-850h251v353q-25-19-55-34t-63-18v-183h-65v136H293v-136h-65v504h205.32q8.68 34 25.18 65t40.5 53H110Zm369.789-640Q495-750 505.5-760.289q10.5-10.29 10.5-25.5Q516-801 505.711-811.5q-10.29-10.5-25.5-10.5Q465-822 454.5-811.711q-10.5 10.29-10.5 25.5Q444-771 454.289-760.5q10.29 10.5 25.5 10.5Z"/></svg>