<svg xmlns="http://www.w3.org/2000/svg" height="20" viewBox="0 -960 960 960" width="20"><path d="M532.808-460.923q10.654 0 18.461-8.692 7.808-8.693 7.808-18.077 0 .769 1.077-6.308 10.231-1.462 17.077-9.235 6.846-7.774 6.846-18.073 0-11.454-7.723-19.111-7.723-7.658-19.273-7.658-9.466 0-16.543 5.731-7.076 5.731-9.538 14.192l-127.769-53.769q4.307-3 10.923-22.385 0-11.454-7.658-19.111-7.658-7.658-19.111-7.658-9.385 0-18.077 7.658-8.693 7.657-8.693 19.111 0 2.539-.077 5.308-10.23 1.462-17.077 8.95-6.846 7.489-6.846 18.358 0 9.384 8.693 18.077 8.692 8.692 18.335 8.692 7.895 0 15.139-4.744 7.244-4.743 10.141-12.333l126.231 53.231q-2.539 3.538-9.616 21.077 0 9.384 8.693 18.077 8.692 8.692 18.577 8.692Zm-370.347-80.769 150.462-241.231 258.923 117.077q49.915 22.53 79.035 67.759Q680-552.859 680-497v401l-233.923-.77q-22.154-50.384-28.17-103.167-6.015-52.783-5.692-97.962.323-45.178 4.631-77.678t5-42.42q-.231-4.616-1.154-8.462-.923-3.846-6.538-4.615-5.616-.464-30.558-4.704-24.941-4.241-60.192-16.154-35.25-11.914-77.366-33.606-42.115-21.693-83.577-56.154Z"/></svg>