<svg xmlns="http://www.w3.org/2000/svg" height="20" viewBox="0 -960 960 960" width="20"><path d="M530.5-466q9.5 0 16.5-8t7-16q0 1 2-4 10-1 16.5-8.197Q579-509.394 579-519q0-10.3-6.915-17.15-6.915-6.85-17.311-6.85-8.774 0-15.274 5.5T531-524l-128-54q5-3 13-24 0-10.3-6.85-17.15Q402.3-626 392-626q-8 0-16 6.85T368-602q0 3-1 3-10 1-16.5 7.912T344-574q0 8 8 16t16.258 8q6.742 0 13.409-4.167Q388.333-558.333 391-565l126 53q-3 4-11 22 0 8 8 16t16.5 8ZM168-553l138-220 261 118q46.915 21.146 73.957 63.374Q668-549.397 668-497v401l-209-1q-24-52-29.9-107.206-5.9-55.207-5-102Q425-353 430-385.5t5-39.19q0-6-1.5-11t-8.5-6q-1 .69-25.365-2.627-24.364-3.317-61-15Q302-471 257-493.5 212-516 168-553Z"/></svg>