<svg xmlns="http://www.w3.org/2000/svg" height="20" viewBox="0 -960 960 960" width="20"><path d="M554-138v-112l136-38-136-38v-112l300 150-300 150Zm-358-58v-196q22-15 33-39t11-49q0-25-11-49t-33-39v-196h188q14-30.32 39.275-47.16 25.274-16.84 56.5-16.84Q511-828 536.5-811.16T576-764h188v351l-20-10v-321H562v8q-6-36.6-30.2-54.3Q507.6-808 480-808q-27.6 0-51.8 17.7Q404-772.6 398-736v-8H216v168q23 17 33.5 43t10.5 53.426Q260-452 249.5-426 239-400 216-384v168h173q15-27 46-38t57-5v21q-30-5-57.5 10T392-196H196Zm284-316Z"/></svg>