<svg xmlns="http://www.w3.org/2000/svg" height="24" viewBox="0 -960 960 960" width="24"><path d="m361-477 59-59q11-11 11-27t-10.522-28Q409-603 392.133-603.5 375.267-604 363-592l-70 70q-19 19.364-19 45.182T293-432l70 70q12 12 28.5 11.5T420-363q11-12 10.5-28.5T419-419l-58-58Zm238 0-59 59q-11 11-11 27t10.522 28q11.478 12 28.345 12.5Q584.733-350 597-362l70-70q19-19.364 19-45.182T667-522l-70-70q-12-12-28.5-11.5T540-591q-11 12-10.5 28.5T541-535l58 58ZM212-86q-51.975 0-88.988-37.012Q86-160.025 86-212v-536q0-51.975 37.012-88.987Q160.025-874 212-874h135q20-38 55.5-59t77.5-21q42 0 77.5 21t55.5 59h135q51.975 0 88.987 37.013Q874-799.975 874-748v536q0 51.975-37.013 88.988Q799.975-86 748-86H212Zm0-126h536v-536H212v536Zm268-570q16.467 0 27.233-10.767Q518-803.533 518-820t-10.767-27.233Q496.467-858 480-858t-27.233 10.767Q442-836.467 442-820t10.767 27.233Q463.533-782 480-782ZM212-212v-536 536Z"/></svg>