<svg xmlns="http://www.w3.org/2000/svg" height="20" viewBox="0 -960 960 960" width="20"><path d="M421-121v-160H289q-29.583 0-50.292-20.708Q218-322.417 218-352q0-29.583 20.708-50.292Q259.417-423 289-423h132v-138H179q-28.75 0-48.875-20T110-630.5q0-29.5 20.125-50T179-701l242-2v-136q0-24.3 17.289-41.65 17.29-17.35 41.5-17.35Q504-898 521.5-880.65T539-839v136l242 2q28.75 0 48.875 20T850-631.5q0 29.5-20.125 50T781-561H539v138h132q29.583 0 50.292 20.708Q742-381.583 742-352q0 29.583-20.708 50.292Q700.583-281 671-281H539v160q0 24.3-17.289 41.65Q504.421-62 480.211-62 456-62 438.5-79.35T421-121Z"/></svg>