<svg xmlns="http://www.w3.org/2000/svg" height="20" viewBox="0 -960 960 960" width="20"><path d="M480.353-70.564q-32.614 0-55.592-22.846-22.979-22.845-22.979-55.372h157.001q0 32.827-22.908 55.522-22.908 22.696-55.522 22.696Zm257.884-126.218H222.074q-20.379 0-34.836-14.246-14.456-14.246-14.456-34.544 0-20.298 14.306-34.754 14.307-14.457 34.694-14.457h-7.783v-220.782q0-94.348 56.609-167.413 56.608-73.066 148.391-90.762v-48.478q0-25.652 17.674-43.326 17.675-17.674 43.327-17.674 25.652 0 43.327 17.674 17.674 17.674 17.674 43.326v48.478q10.608 2.435 20.217 5.522 9.608 3.087 18.782 6.391L432.957-615.784q-14.957 14.957-21.653 32.24-6.695 17.283-6.695 36.848v91.836q0 41.555 28.498 69.903 28.498 28.348 69.503 28.348h81.911q19.001 0 36.566-6.978t32.522-21.935l92.392-91.827v182.566h-7.783q20.387 0 34.694 14.246 14.306 14.246 14.306 34.544 0 20.298-14.301 34.755-14.301 14.456-34.68 14.456ZM476.609-477.609v-60.172q0-10.393 4.13-18.589 4.131-8.196 10.826-15.457l198.435-198q8.954-9.107 19.803-13.249 10.849-4.142 21.87-4.142 11.816 0 22.554 4.348 10.737 4.347 19.6 13.043l44 45q8.849 8.954 13.12 19.803 4.271 10.85 4.271 21.87 0 11.585-4.142 22.438-4.142 10.854-13.249 19.716L619.592-442.765q-7.026 7.026-15.222 10.591-8.196 3.565-18.589 3.565h-60.172q-20.387 0-34.694-14.306-14.306-14.307-14.306-34.694Zm259.957-164.957 39.347-40.347-45-45-39.347 40.347 45 45Z"/></svg>