<svg xmlns="http://www.w3.org/2000/svg" height="24" viewBox="0 -960 960 960" width="24"><path d="M479.864-104.615q-26.71 0-45.595-18.981-18.884-18.981-18.884-45.635h129.23q0 26.846-19.02 45.731-19.021 18.885-45.731 18.885ZM740-209.231H220q-8.5 0-14.25-5.758-5.75-5.757-5.75-14.269 0-8.511 5.75-14.242 5.75-5.731 14.25-5.731h44.615v-316.923q0-78.384 49.616-137.884Q363.846-763.539 440-778.154V-800q0-16.667 11.64-28.334Q463.28-840 479.91-840q16.629 0 28.359 11.666Q520-816.667 520-800v21.846q15.615 3 29.577 7.654 13.962 4.654 27.038 11.961L413.231-596.154q-8.885 8.773-14.135 20.737-5.25 11.963-5.25 24.725v132.23q0 26.654 18.981 45.635 18.981 18.981 45.635 18.981h132.23q12.79 0 24.78-5.231 11.99-5.231 20.682-13.923l59.231-59.462v183.231H740q8.5 0 14.25 5.758t5.75 14.269q0 8.512-5.75 14.242-5.75 5.731-14.25 5.731ZM489.231-481.538v-42.924q0-6.461 2.23-12.154 2.231-5.692 7.462-10.692l203.615-202.615q5.924-5.154 12.223-7.616Q721.06-760 727.359-760q6.872 0 13.505 2.577 6.632 2.577 12.059 7.73l37 37.77q4.923 5.923 7.5 12.307 2.577 6.385 2.577 12.77 0 6.384-2.077 12.884t-8 12.424L587.181-458.797q-4.873 4.874-10.565 7.22-5.693 2.346-12.154 2.346h-42.924q-13.73 0-23.019-9.288-9.288-9.289-9.288-23.019Zm238.384-167.077 37-38.231-37-37.769-38 38 38 38Z"/></svg>