<svg xmlns="http://www.w3.org/2000/svg" height="24" viewBox="0 -960 960 960" width="24"><path d="M480-80q-33 0-56.5-23.5T400-160h160q0 33-23.5 56.5T480-80Zm280-120H200q-17 0-28.5-11.5T160-240q0-17 11.5-28.5T200-280h40v-280q0-83 50-147.5T420-792v-28q0-25 17.5-42.5T480-880q25 0 42.5 17.5T540-820v28q11 3 21.5 6.5T582-777l-63 62q-10-2-19-3.5t-20-1.5q-66 0-113 47t-47 113v280h320v-84l80-80v164h40q17 0 28.5 11.5T800-240q0 17-11.5 28.5T760-200Zm-440-80v-280q0-66 47-113t113-47q11 0 20 1.5t19 3.5l-95 95q-11 11-17.5 26t-6.5 31v123q0 33 23.5 56.5T480-360h156l4-4v84H320Zm160-200v-66q0-8 3-15.5t9-13.5l209-208q9-9 20-13t22-4q12 0 23 4.5t20 13.5l37 37q8 9 12.5 20t4.5 22q0 11-4 22.5T823-660L615-452q-6 6-13.5 9t-15.5 3h-66q-17 0-28.5-11.5T480-480Zm300-223-37-37 37 37ZM540-500h38l121-122-18-19-19-18-122 121v38Zm141-141-19-18 37 37-18-19Z"/></svg>