<svg xmlns="http://www.w3.org/2000/svg" height="20" viewBox="0 -960 960 960" width="20"><path d="M480.788-51Q446-51 421.5-75.15T397-134h167q0 35-24.212 59-24.213 24-59 24Zm262.231-131H217.292Q193-182 175.5-199.289q-17.5-17.29-17.5-41.5Q158-265 175.35-282.5T217-300h-23v-206q0-100 59-178.5T409-782v-45q0-30 20.5-50.5T480-898q30 0 50.5 20.5T551-827v45q8 2 15 4l14 4-144 143q-18 18-26 38.543-8 20.544-8 44.457v75.75Q402-422 436.15-388T520-354h58q22.913 0 43.957-8.5Q643-371 661-389l105-104v193h-23q24.3 0 41.65 17.289 17.35 17.29 17.35 41.5Q802-217 784.656-199.5 767.311-182 743.019-182ZM474-485v-58.432q0-12.568 5-22.068 5-9.5 13-18.5l198-198q10.258-10.412 22.629-15.206Q725-802 737.759-802q13.556 0 25.815 5 12.259 5 22.426 15l44 45q10.588 10.258 15.294 22.629Q850-702 850-689.241q0 13.759-4.794 25.917Q840.412-651.167 830-641L631.765-442.765Q623-434 613.5-430t-22.068 4H533q-24.3 0-41.65-17.35Q474-460.7 474-485Zm273-168 35-36-45-45-35 36 45 45Z"/></svg>