<svg xmlns="http://www.w3.org/2000/svg" height="20" viewBox="0 -960 960 960" width="20"><path d="M216-634h360-36 9-333Zm356 0h174-174Zm-351-20h517l-73-79q-5-5-11.5-8t-13.5-3H319q-7 0-13.5 3t-11.5 8l-73 79Zm187 212 72-36 72 36v-192H408v192Zm142 246H248q-21.45 0-36.725-15.275Q196-226.55 196-248v-392q0-10.85 4.5-20.925Q205-671 212.763-677.778L283-750q8-7.621 16.441-10.81 8.441-3.19 18.712-3.19h321.694q10.624 0 19.763 3.19 9.14 3.189 16.39 10.81l71 74q9 7.412 13 17.678 4 10.266 4 21.322v108q2.838 3.667 5.088 6.333Q771.338-520 775-520q-8 0-15.5.5T744-518v-116H572v214q5 4 4 9t0 4l-96-48-54.967 26.984Q412-421 400-428.604q-12-7.604-12-22.811V-634H216v386q0 14 9 23t23 9h301q.25 4.667 1.125 9.333Q551-202 550-196Zm223.175 31q-4.175 0-7.049-2.875-2.874-2.875-2.874-7.125v-98h-98.168q-4.286 0-7.185-2.885t-2.899-7.15q0-4.265 2.899-7.115 2.899-2.85 7.185-2.85h98.168v-98q0-4.25 2.909-7.125t7.108-2.875q4.199 0 7.004 2.875 2.805 2.875 2.805 7.125v98h97.688q4.184 0 7.209 2.825 3.025 2.824 3.025 7 0 4.175-2.875 7.025-2.875 2.85-7.125 2.85h-98v98q0 4.25-2.825 7.275-2.824 3.025-7 3.025ZM216-634h360-36 9-333Z"/></svg>