<svg xmlns="http://www.w3.org/2000/svg" height="20" viewBox="0 -960 960 960" width="20"><path d="M326-288h-56q-11.05 0-18.525-7.475Q244-302.95 244-314v-446q0-22.7 14.65-37.35Q273.3-812 296-812h368q22.7 0 37.35 14.65Q716-782.7 716-760v446q0 11.05-7.475 18.525Q701.05-288 690-288H502l-53-53q-14.934-15-35.967-15T377-340l-51 52Zm154.266-266Q501-554 515.5-568.766q14.5-14.765 14.5-35.5Q530-625 515.234-639.5q-14.765-14.5-35.5-14.5Q459-654 444.5-639.234q-14.5 14.765-14.5 35.5Q430-583 444.766-568.5q14.765 14.5 35.5 14.5ZM478-194H254q-4.25 0-7.125-2.825-2.875-2.824-2.875-7 0-4.175 2.875-7.175t7.125-3h224l-73-73q-4-4-4-6.5t5-7.5q5-5 7.5-5t7.5 5l79 79q8 7.636 8 17.818Q508-194 500-186l-79 79q-4 4-7 4.5t-8-4.5q-5-5-5-8t5-8l72-71Zm108 0q-4.25 0-7.125-2.825-2.875-2.824-2.875-7 0-4.175 2.875-7.175t7.125-3h120q4.25 0 7.125 2.825 2.875 2.824 2.875 7 0 4.175-2.875 7.175T706-194H586Z"/></svg>