<svg xmlns="http://www.w3.org/2000/svg" height="24" viewBox="0 -960 960 960" width="24"><path d="M339-280h-57q-12.75 0-21.375-8.625T252-310v-458q0-26 17-43t43-17h336q26 0 43 17t17 43v458q0 12.75-8.625 21.375T678-280H501l-39-39q-16.934-17-41.967-17Q395-336 378-319l-39 39Zm141.053-282Q504-562 521-579.053q17-17.053 17-41T520.947-661q-17.053-17-41-17T439-660.947q-17 17.053-17 41T439.053-579q17.053 17 41 17ZM470-186H266q-5.95 0-9.975-4.035-4.025-4.035-4.025-10t4.025-9.965q4.025-4 9.975-4h204l-60-60q-4-4-4.5-9.5T410-294q5-5 10-5t10 5l73 73q9 9 9 21t-9 21l-73 73q-4 4-9.5 4.5T410-106q-5-5-5-10t5-10l60-60Zm104 0q-5.95 0-9.975-4.035-4.025-4.035-4.025-10t4.025-9.965q4.025-4 9.975-4h120q5.95 0 9.975 4.035 4.025 4.035 4.025 10T703.975-190q-4.025 4-9.975 4H574Z"/></svg>