<svg xmlns="http://www.w3.org/2000/svg" height="20" viewBox="0 -960 960 960" width="20"><path d="M158-807q0-49.7 34.15-83.85Q226.3-925 276-925h408q49.7 0 83.85 34.15Q802-856.7 802-807v445q0 24.3-17.35 41.65Q767.3-303 743-303h-59v-504H276v506l2-2h-61q-24.3 0-41.65-17.35Q158-337.7 158-362v-445Zm322.212 266Q514-541 537-564.212q23-23.213 23-57Q560-655 536.788-678q-23.213-23-57-23Q446-701 423-677.788q-23 23.213-23 57Q400-587 423.212-564q23.213 23 57 23ZM346-125H201q-18.275 0-30.638-12.589Q158-150.179 158-168.789q0-18.186 12.65-30.699Q183.3-212 202-212h144l-17-17q-14-14-13-30t15-30q14-14 30.5-14t30.5 14l79 78q18 18 18 42t-18 42l-79 79q-14 14-30.5 14T331-48q-14-14-14-31.5t14-31.5l15-14Zm291 0q-18.275 0-30.637-12.589Q594-150.179 594-168.789q0-18.186 12.65-30.699Q619.3-212 638-212h121q18.275 0 30.637 12.307Q802-187.386 802-169.193 802-151 789.637-138 777.275-125 759-125H637ZM480-621Z"/></svg>