<svg xmlns="http://www.w3.org/2000/svg" height="20" viewBox="0 -960 960 960" width="20"><path d="M768-90 521.579-336H516v106q17.1 8.936 26.55 25.468T552-168q0 29.7-21.212 50.85-21.213 21.15-51 21.15Q450-96 429-117.15 408-138.3 408-168q0-20 9.5-36t26.5-26v-106H324q-29.7 0-50.85-21.041Q252-378.081 252-407.628V-490q-17-8-26.5-25.224T216-552q0-17 8.5-32.5T247-611L90-768l51-51 678 678-51 51Zm-73-277-59-59v-54h-36v-144h144v144h-36v72q0 11.081-2.889 21.608Q702.222-375.865 695-367Zm-371-41h120v-6l-97-97q-5 7-10.5 11.5T324-490v82Zm192-138-72-72v-102h-84l120-144 120 144h-84v174Z"/></svg>