<svg xmlns="http://www.w3.org/2000/svg" height="20" viewBox="0 -960 960 960" width="20"><path d="M765.692-129.231 538.502-356H496v122.923q16.331 5.09 26.166 18.545Q532-201.077 532-183.385q0 22.008-15.058 37.004-15.059 14.997-37.154 14.997-22.096 0-36.942-14.997Q428-161.377 428-183.385q0-17.692 9.5-31 9.5-13.307 26.5-18.692V-356H344q-23.546 0-40.081-16.425-16.535-16.426-16.535-39.818v-74.68q-16.23-4.154-26.115-18.301-9.885-14.147-9.885-31.391 0-21.616 15.423-37.116t36.347-18.038L140-754.923l22.538-22.539 625.693 625.693-22.539 22.538ZM661.923-378.538l-21.308-22.078v-83.999h-36v-104.001h104.001v104.001h-36v72q0 9.542-2.505 17.762-2.504 8.219-8.188 16.315ZM344-388h120v-42.923L358.538-536.384q-1.923 16.999-12.038 29.961-10.115 12.961-27.115 19.5v74.308q0 10.769 6.923 17.692T344-388Zm152-156.462-32-32v-132.769h-64l80-90.154 80 90.154h-64v164.769Z"/></svg>