<svg xmlns="http://www.w3.org/2000/svg" height="20" viewBox="0 -960 960 960" width="20"><path d="M324.211-412.615q-10.596 0-18.788-7.982t-8.192-18.577q0-10.595 7.982-18.788 7.981-8.192 18.576-8.192 10.596 0 18.788 7.982t8.192 18.577q0 10.595-7.982 18.787-7.981 8.193-18.576 8.193Zm156 0q-10.596 0-18.788-7.982t-8.192-18.577q0-10.595 7.982-18.788 7.981-8.192 18.576-8.192 10.596 0 18.788 7.982t8.192 18.577q0 10.595-7.982 18.787-7.981 8.193-18.576 8.193Zm156 0q-10.596 0-18.788-7.982t-8.192-18.577q0-10.595 7.982-18.788 7.981-8.192 18.576-8.192 10.596 0 18.788 7.982t8.192 18.577q0 10.595-7.982 18.787-7.981 8.193-18.576 8.193ZM184-136v-592h159.384v-105.231h35.077V-728h206.154v-105.231h32.001V-728H776v592H184Zm32-32h528v-335.385H216V-168Zm0-367.385h528V-696H216v160.615Zm0 0V-696v160.615Z"/></svg>