<svg xmlns="http://www.w3.org/2000/svg" height="20" viewBox="0 -960 960 960" width="20"><path d="M308.281-411Q288-411 274-424.719q-14-13.72-14-34Q260-479 273.719-493.5q13.72-14.5 34-14.5Q328-508 342-493.711q14 14.29 14 34.571 0 20.28-13.719 34.21-13.72 13.93-34 13.93Zm172 0Q460-411 446-424.719q-14-13.72-14-34Q432-479 445.719-493.5q13.72-14.5 34-14.5Q500-508 514-493.711q14 14.29 14 34.571 0 20.28-13.719 34.21-13.72 13.93-34 13.93Zm172 0Q632-411 618-424.719q-14-13.72-14-34Q604-479 617.719-493.5q13.72-14.5 34-14.5Q672-508 686-493.711q14 14.29 14 34.571 0 20.28-13.719 34.21-13.72 13.93-34 13.93ZM110-62v-740h178.2v-96H383v96h194v-96h94.8v96H850v740H110Zm118-118h504v-348H228v348Z"/></svg>