<svg xmlns="http://www.w3.org/2000/svg" height="24" viewBox="0 -960 960 960" width="24"><path d="M269.826-118.172 78.172-309.26l191.654-191.089 74.522 74.088-64 64h149.478v106.001H280.348l63.565 64-74.087 74.088Zm296.957-133.566q-23.783 0-40.37-16.87-16.587-16.869-16.587-40.652t16.587-40.653q16.587-16.87 40.37-16.87 23.783 0 40.653 16.87 16.87 16.87 16.87 40.653 0 23.783-16.87 40.652-16.87 16.87-40.653 16.87Zm195.045 0q-23.783 0-40.653-16.87-16.869-16.869-16.869-40.652t16.869-40.653q16.87-16.87 40.653-16.87 23.783 0 40.37 16.87 16.588 16.87 16.588 40.653 0 23.783-16.588 40.652-16.587 16.87-40.37 16.87Zm-71.654-207.913-74.522-74.088 64-64H530.174V-703.74h149.478l-63.565-64 74.087-74.088L881.828-650.74 690.174-459.651ZM198.172-593.217q-23.783 0-40.37-16.87-16.588-16.87-16.588-40.653 0-23.783 16.588-40.652 16.587-16.87 40.37-16.87 23.783 0 40.653 16.87 16.869 16.869 16.869 40.652t-16.869 40.653q-16.87 16.87-40.653 16.87Zm195.045 0q-23.783 0-40.653-16.87-16.87-16.87-16.87-40.653 0-23.783 16.87-40.652 16.87-16.87 40.653-16.87 23.783 0 40.37 16.87 16.587 16.869 16.587 40.652t-16.587 40.653q-16.587 16.87-40.37 16.87Z"/></svg>