<svg xmlns="http://www.w3.org/2000/svg" height="24" viewBox="0 -960 960 960" width="24"><path d="M292.308-200 160-332.308l132.308-132.307 28.538 28.307-84 84h251.615v40.001H236.846l83.769 83.999L292.308-200Zm300.04-108.461q-10.117 0-17.002-6.845-6.885-6.844-6.885-16.961 0-10.118 6.844-17.002 6.845-6.885 16.962-6.885t17.002 6.844q6.885 6.844 6.885 16.962 0 10.117-6.844 17.002-6.845 6.885-16.962 6.885Zm127.692 0q-10.117 0-17.002-6.845-6.884-6.844-6.884-16.961 0-10.118 6.844-17.002 6.844-6.885 16.962-6.885 10.117 0 17.002 6.844 6.884 6.844 6.884 16.962 0 10.117-6.844 17.002-6.844 6.885-16.962 6.885Zm-52.348-186.924-28.538-27.538 84.769-84.769H471.539v-40.001h251.615l-83.769-83.999L667.692-760 800-627.692 667.692-495.385ZM240.04-603.846q-10.117 0-17.002-6.844-6.884-6.844-6.884-16.962 0-10.117 6.844-17.002 6.844-6.885 16.962-6.885 10.117 0 17.002 6.845 6.884 6.844 6.884 16.961 0 10.118-6.844 17.002-6.844 6.885-16.962 6.885Zm127.693 0q-10.117 0-17.002-6.844-6.885-6.844-6.885-16.962 0-10.117 6.844-17.002 6.845-6.885 16.962-6.885t17.002 6.845q6.885 6.844 6.885 16.961 0 10.118-6.844 17.002-6.845 6.885-16.962 6.885Z"/></svg>