<svg xmlns="http://www.w3.org/2000/svg" height="20" viewBox="0 -960 960 960" width="20"><path d="M428-447h104l23 66q1.438 4.059 3.719 6.029Q561-373 566-373q6 0 10-5t1-11l-83-228q-1-3-3.602-4.5t-6.112-1.5h-8.776q-4.51 0-7.01 2t-3.5 5l-83 227.366q-2 5.812 1.5 10.723Q387-373 393-373q5 0 8-2t4.444-6.123L428-447Zm7-24 44-119h2l44 119h-90Zm45.276 323Q412-148 351.5-173.5q-60.5-25.5-106-71T174-349.812Q148-409.624 148-478q0-30 4.5-57.5T167-591q2-4 5.5-7t8.5-2q5 2 6 7.5t-1 9.5q-9 26-13.5 51.669Q168-505.662 168-480q0 130 91 221t221 91q130 0 221-91t91-221q0-130-91-221t-221-91q-25.745 0-50.495 4-24.75 4-48.505 12-4 2-9.189-.056-5.189-2.055-7.811-5.944-2-4 0-6.5t5-4.5q26-8 51.5-13.5T474-812q70 0 131 25.5T712.5-715q46.5 46 73 106.224 26.5 60.225 26.5 128.5Q812-412 786-351.5q-26 60.5-71.5 106T608.776-174q-60.225 26-128.5 26ZM250-682q-11 0-19.5-8.5T222-710q0-11 8.5-19.5T250-738q11 0 19.5 8.5T278-710q0 11-8.5 19.5T250-682Zm230 202Z"/></svg>