<svg xmlns="http://www.w3.org/2000/svg" height="20" viewBox="0 -960 960 960" width="20"><path d="M654.914-434.435 268.216-821.133v-7.608q6.783-22.087 32.305-37.151 25.522-15.065 65.697-15.065h214.608q45.74 0 75.153 36.196 29.414 36.196 15.327 80.805l-39.087 124.389h37.348q42.174 0 59.37 34.152 17.196 34.153-7.587 71.327l-66.436 99.653ZM789.479-72.26 563.305-298.434l-105.74 157.262q-7.261 10.826-18.587 14.174-11.326 3.348-22.152.217-10.827-3.13-18.305-12.391t-7.478-22.653v-206.608h-35q-36.783 0-62.305-25.522t-25.522-62.305v-138.263L66.26-796.479l56.652-56.653 723.22 724.22-56.653 56.652Z"/></svg>