<svg xmlns="http://www.w3.org/2000/svg" height="20" viewBox="0 -960 960 960" width="20"><path d="m654.914-434.435-71.218-70.218 24.608-36.913h-61.521l-36.609-36.609 68.391-204.781H366.218v59.825l-98.002-98.002v-7.608q6.783-21.787 32.455-37.001 25.672-15.215 65.547-15.215h214.608q45.895 0 75.231 36.196 29.336 36.196 15.249 80.805l-39.087 124.389h37.348q42.118 0 59.342 34.152 17.224 34.153-7.559 71.327l-66.436 99.653ZM789.479-72.26 563.305-298.434l-105.74 157.262q-7.541 10.626-18.727 14.074-11.186 3.448-22.012.317-10.827-3.13-18.305-12.336t-7.478-22.708v-206.608h-35q-36.228 0-62.027-25.799-25.8-25.799-25.8-62.028v-138.263L66.26-796.479l56.652-56.653 723.22 724.22-56.653 56.652ZM474.957-614.392Z"/></svg>