<svg xmlns="http://www.w3.org/2000/svg" height="24" viewBox="0 -960 960 960" width="24"><path d="m663.914-430.435-76.218-76.218 18.608-26.913h-45.521l-56.609-56.609 70.391-200.781H366.218v62.825L260.216-834.133v-2.608q6.783-25.087 34.805-42.651 28.022-17.565 71.197-17.565h230.608q42.74 0 70.153 33.196 27.414 33.196 14.327 72.805l-49.087 151.389h39.348q46.174 0 65.37 37.652 19.196 37.653-8.587 77.827l-64.436 93.653ZM812.479-31.26 561.305-282.434l-105.74 152.262q-8.261 11.826-20.587 15.674-12.326 3.848-24.152-.283-11.827-4.13-19.805-13.913-7.978-9.783-7.978-24.131v-207.608h-27q-39.528 0-67.677-28.149-28.15-28.149-28.15-67.678v-127.263L31.26-812.479l62.652-62.653 781.22 781.22-62.653 62.652ZM476.957-617.392Z"/></svg>