<svg xmlns="http://www.w3.org/2000/svg" height="20" viewBox="0 -960 960 960" width="20"><path d="M480.5-264q89.5 0 152.5-63.5t63-153q0-89.5-63-152.5t-153-63q-89 0-152.5 63T264-480q0 89 63.5 152.5t153 63.5Zm-.575-80.479q-56.534 0-95.99-39.531-39.456-39.532-39.456-96.065 0-56.534 39.531-95.99 39.532-39.456 96.065-39.456 56.534 0 95.99 39.531 39.456 39.532 39.456 96.065 0 56.534-39.531 95.99-39.532 39.456-96.065 39.456ZM455-455q11 10 25 10t25-10l36-36q11-11 11-25t-11-25q-11-11-25-11t-25 11l-36 36q-10 11-10 25t10 25ZM222.783-124.782q-41.005 0-69.503-28.498-28.498-28.498-28.498-69.503v-514.434q0-41.005 28.498-69.503 28.498-28.498 69.503-28.498h514.434q41.005 0 69.503 28.498 28.498 28.498 28.498 69.503v514.434q0 41.005-28.498 69.503-28.498 28.498-69.503 28.498H222.783Zm0-98.001h514.434v-514.434H222.783v514.434Zm0-514.434v514.434-514.434Z"/></svg>