<svg xmlns="http://www.w3.org/2000/svg" height="20" viewBox="0 -960 960 960" width="20"><path d="M480.5-284q81.039 0 138.269-57.731Q676-399.461 676-480.5q0-81.039-57.231-138.269Q561.539-676 480-676q-80.539 0-138.269 57.231Q284-561.539 284-480q0 80.539 57.731 138.269Q399.461-284 480.5-284Zm-.5-32q-68.461 0-116.231-47.769Q316-411.539 316-480q0-68.461 47.769-116.231Q411.539-644 480-644q68.461 0 116.231 47.769Q644-548.461 644-480q0 68.461-47.769 116.231Q548.461-316 480-316Zm-11.154-152.846q6.385 5.385 11.154 5.385t11.154-5.385l36-36q6.385-6.385 6.385-11.154t-6.385-11.154q-6.385-6.385-11.154-6.385t-11.154 6.385l-36 36q-5.385 6.385-5.385 11.154t5.385 11.154ZM240.615-184q-24.315 0-40.465-16.15Q184-216.3 184-240.615v-478.77q0-24.315 16.15-40.465Q216.3-776 240.615-776h478.77q24.315 0 40.465 16.15Q776-743.7 776-719.385v478.77q0 24.315-16.15 40.465Q743.7-184 719.385-184h-478.77Zm0-32h478.77q9.23 0 16.923-7.692Q744-231.385 744-240.615v-478.77q0-9.23-7.692-16.923Q728.615-744 719.385-744h-478.77q-9.23 0-16.923 7.692Q216-728.615 216-719.385v478.77q0 9.23 7.692 16.923Q231.385-216 240.615-216ZM216-744v528-528Z"/></svg>