<svg xmlns="http://www.w3.org/2000/svg" height="24" viewBox="0 -960 960 960" width="24"><path d="M480-172.923q112.769-98.154 178.308-199.654 65.538-101.5 65.538-175.577 0-109.769-69.5-181.192T480-800.769q-104.846 0-174.346 71.423t-69.5 181.192q0 74.077 65.538 175.577Q367.231-271.077 480-172.923Zm0 35.154q-9.385 0-18.769-3.077-9.385-3.077-17.308-10-42.692-39.231-86.539-87.385-43.846-48.154-79.654-99.731-35.807-51.577-58.692-105.307Q196.154-497 196.154-548.154q0-126.923 82.654-209.385Q361.461-840 480-840t201.192 82.461q82.654 82.462 82.654 209.385 0 51.154-22.884 104.5-22.885 53.346-58.308 105.308-35.423 51.961-79.269 99.731-43.846 47.769-86.539 87-7.923 6.923-17.692 10.384-9.769 3.462-19.154 3.462Zm0-417.616ZM480-380q45.231 0 82.923-20.577 37.693-20.577 62.154-54.808-31.154-22.077-67.846-33.346Q520.539-500 480-500q-40.539 0-77.231 11.269-36.692 11.269-67.846 33.346 24.461 34.231 62.154 54.808Q434.769-380 480-380Zm0-200q25.308 0 42.654-17.346Q540-614.692 540-640q0-25.308-17.346-42.654Q505.308-700 480-700q-25.308 0-42.654 17.346Q420-665.308 420-640q0 25.308 17.346 42.654Q454.692-580 480-580Z"/></svg>