<svg xmlns="http://www.w3.org/2000/svg" height="24" viewBox="0 -960 960 960" width="24"><path d="M480-319.231q66.846 0 113.423-46.577T640-479.231q0-66.846-46.577-113.423T480-639.231q-66.846 0-113.423 46.577T320-479.231q0 66.846 46.577 113.423T480-319.231Zm15.385-166.461 61.538 61.538q4.462 4.462 4.846 10.539.385 6.077-4.846 11.307-5.231 5.231-10.923 5.231t-10.923-5.231l-60.769-60.769q-5.231-5.231-7.462-10.808t-2.231-12.038v-93.308q0-6.461 4.462-10.923 4.461-4.461 10.923-4.461t10.923 4.461q4.462 4.462 4.462 10.923v93.539ZM480-126.307q-5.462 0-11.462-1t-11.23-3q-118.077-45-187.693-152.654Q200-390.615 200-516v-171.308q0-20.384 11.807-36.923 11.808-16.538 30.193-24l215.385-80q11.692-4.231 22.615-4.231 10.923 0 22.615 4.231l215.385 80q18.385 7.462 30.193 24Q760-707.692 760-687.308V-516q0 125.385-69.615 233.039-69.616 107.654-187.693 152.654-5.23 2-11.23 3t-11.462 1Z"/></svg>