<svg xmlns="http://www.w3.org/2000/svg" height="20" viewBox="0 -960 960 960" width="20"><path d="M480.226-339Q539-339 579.5-379.726t40.5-99.5Q620-538 579.274-578.5t-99.5-40.5Q421-619 380.5-578.274t-40.5 99.5Q340-420 380.726-379.5t99.5 40.5ZM498-487l50 50q5 5.364 5.5 12.682Q554-417 548-411t-12.818 6q-6.818 0-13.182-6l-51.909-51.909Q466-467 464-471q-2-4-2-10v-70q0-7.6 5.2-12.8 5.2-5.2 12.8-5.2 7.6 0 12.8 5.2 5.2 5.2 5.2 12.8v64Zm-18 332q-4 0-10-.5t-10-2.5q-109-43-174.5-141T220-515v-157q0-16.692 9-30.346T253-722l208-79q10-4 19-4t19 4l208 79q15 6 24 19.654T740-672v157q0 118-65.5 216T500-158q-4 2-10 2.5t-10 .5Z"/></svg>