<svg xmlns="http://www.w3.org/2000/svg" height="20" viewBox="0 -960 960 960" width="20"><path d="M560.566-129.869q-50.087 0-84.979-37.087-34.891-37.087-34.891-91.87 0-37.392 18.978-71.522 18.978-34.131 48.609-61.131 29.63-27 67.065-45.434 37.435-18.435 74.782-23.305-6.434-40.086-23.239-62.26-16.804-22.174-45.543-22.174-31.435 0-71.217 30.218-39.783 30.217-84.783 102.913-35.347 59.043-81.435 96.652-46.087 37.609-94.478 37.609-50.087 0-81.827-34.392-31.739-34.391-31.739-92.609 0-37.043 18.935-82.152 18.934-45.108 57.543-97.325 38.609-51.871 53.957-81.588 15.348-29.717 15.348-49.717 0-12-4.783-18-4.782-6-12.782-6-10.435 0-28.153 13.217-17.717 13.217-49.413 44.913l-64-61.87q42.304-45.13 77.239-66.239t68.718-21.109q42.652 0 71.327 30.957 28.674 30.956 28.674 74.217 0 41.914-20.413 88.088-20.414 46.174-59.37 98.261-35.261 46.131-49.783 76.565-14.522 30.434-14.522 53.217 0 17.608 8.218 28.413 8.217 10.804 22.087 10.804 21 0 44.369-23.652 23.37-23.652 47.022-62.304 62.695-93.826 120.869-136.218 58.174-42.391 115.392-42.391 58.304 0 103.957 43.956 45.652 43.956 53.348 127.435h97.826v88.957h-94.261q-2.261 111.958-62.826 177.958-60.566 65.999-119.826 65.999Zm3-89.653q26.956 0 57.13-44.239 30.174-44.238 32.434-105.369-44.39 7.304-84.151 40.652-39.761 33.348-39.761 68.782 0 16.305 10.087 28.239 10.087 11.935 24.261 11.935Z"/></svg>