<svg xmlns="http://www.w3.org/2000/svg" height="20" viewBox="0 -960 960 960" width="20"><path d="M572-119q-54 0-92-41.5T442-259q0-41 20.5-76t51-62.5Q544-425 581-443t70-22q-6-34-21-54t-40-20q-34 0-71 26t-66 74q-43 76-98.5 123T253-269q-57 0-92.5-37T125-407q0-33 18-74.5t49-81.5q50-67 67-98t17-54q0-9-5-15t-13-6q-10 0-27.5 13T180-677l-74-71q41-46 80.5-69.5T265-841q47 0 78.5 34t31.5 78q0 49-22.5 99T285-519q-33 41-45.5 66T227-410q0 15 8 24t20 9q22 0 48-28t62-88q45-68 103-108.5T590-642q49 0 101 45t63 129h100v102h-96q-4 125-70 186t-116 61Zm0-104q22 0 50-37.5t32-99.5q-37 6-73.5 35.5T544-257q0 13 9 23.5t19 10.5Z"/></svg>