<svg xmlns="http://www.w3.org/2000/svg" height="20" viewBox="0 -960 960 960" width="20"><path d="M547.769-154.001q-43.076 0-70.922-29.5-27.846-29.499-27.846-75.192 0-36.307 18.538-68.73 18.539-32.423 48.385-57.5Q545.77-410 583.578-426.115q37.808-16.115 77.346-19.807-7.769-56.463-27.808-86.271-20.038-29.808-57.962-29.808-41.232 0-83.809 36.655-42.577 36.654-84.5 104.192-25.999 45.691-68.345 84.422-42.346 38.731-90.808 38.731-41.153 0-64.422-27.538t-23.269-78q0-42.538 20.846-89.5 20.846-46.961 53.615-93.268 30.923-42.692 48.116-76.923 17.192-34.231 17.192-59.232 0-15.846-6.616-23.192-6.615-7.347-18.077-7.347-12.923 0-31.5 12.154-18.577 12.154-48.577 41L157.847-736q41.692-39.769 67.807-54.884 26.116-15.115 50.423-15.115 32.384 0 53.538 22.961 21.154 22.961 21.154 59.345 0 36.308-21.116 79.77-21.116 43.462-52.654 86.615-29.538 40.384-47.769 78.654-18.231 38.269-18.231 73.808 0 25.616 10.423 40.231 10.424 14.616 29.27 14.616 28.693 0 56.655-28.347 27.962-28.346 47.422-61.268 54.077-82.923 109.346-128.654 55.269-45.731 112.039-45.731 53.846 0 92.692 43.807 38.846 43.808 44.076 124.193h93.077v51.998h-90.077q0 104.616-54.076 172.308-54.077 67.692-114.077 67.692ZM550-204.999q39.846 0 77.654-57.039 37.809-57.039 36.655-131.655-59.385 5.153-111.848 46.846-52.462 41.692-52.462 87.693 0 23.385 14.385 38.77 14.385 15.385 35.616 15.385Z"/></svg>