<svg xmlns="http://www.w3.org/2000/svg" height="24" viewBox="0 -960 960 960" width="24"><path d="M182.477-62.477V-168.48h244.522v-136.825H360q-90.976 0-155.097-64.121-64.121-64.121-64.121-155.097 0-63.37 33.282-116.707 33.283-53.337 90.413-80.294 12.957-78.391 73.979-130.022 61.022-51.63 141.544-51.63 80.522 0 141.544 51.63 61.022 51.631 73.979 130.022 57.13 26.957 90.413 80.294 33.282 53.337 33.282 116.707 0 90.976-64.121 155.097Q690.976-305.304 600-305.304h-66.999v136.825h244.522v106.002H182.477ZM360-411.305h240q47.174 0 80.195-32.971 33.022-32.971 33.022-80.072 0-33.913-19.404-62.309t-50.639-41.647l-45.392-18.566-6.565-50.521q-6-42.739-37.239-71.261-31.239-28.522-73.978-28.522-42.739 0-73.978 28.522-31.239 28.522-37.239 71.261l-6.565 50.521-45.392 18.566q-31.235 13.208-50.639 41.513-19.404 28.304-19.404 62.269 0 47.174 33.022 80.195 33.021 33.022 80.195 33.022Zm120-193.217Z"/></svg>