<svg xmlns="http://www.w3.org/2000/svg" height="20" viewBox="0 -960 960 960" width="20"><path d="M232-131.384v-32.001h232v-197.23H360q-63.526 0-107.763-44.237T208-512.615q0-53.077 34.538-92.462 34.539-39.385 85.385-58.846 12.231-72.846 52.538-108.77 40.308-35.923 99.539-35.923t100.039 35.923q40.807 35.924 52.038 108.77 51.616 16.923 85.769 57.577Q752-565.692 752-512.615q0 63.526-44.237 107.763T600-360.615H496v197.23h232v32.001H232Zm128-261.231h240q50 0 85-35t35-85q0-43.385-27.538-74.539-27.539-31.154-69.462-45.692l-18-5.769-3.923-20.001q-6.769-60.692-39.115-89.346-32.347-28.653-81.962-28.653t-81.962 28.653q-32.346 28.654-39.115 89.346L355-638.615l-24.154 7.846Q292-615.231 266-584.846q-26 30.384-26 72.231 0 50 35 85t85 35Zm120-169Z"/></svg>