<svg xmlns="http://www.w3.org/2000/svg" height="24" viewBox="0 -960 960 960" width="24"><path d="M480-64 139.003-405.763q-14.38-14.369-26.191-31.303Q101-454 92-473h389q17 0 28.5 11.5T521-433q0 17-11.5 28.5T481-393q-14 0-25-7.5T442-422l-77 21q11 39 43 63.5t73 24.5q50 0 85-35t35-85q0-11-2-20.5t-5-19.5h45q50 0 85-35t35-85q0-50-35-85t-85-35q-41 0-73 24.5T523-625l77 21q3-14 14-21.5t25-7.5q17 0 28.5 11.5T679-593q0 17-11.5 28.5T639-553H69.048Q68-562 67.5-571t-.5-17.577Q67-699 139-776t175-77q45 0 88 17.5t78 49.5q34-32 76.5-49.5T645-853q103 0 175.5 77T893-589.57q0 52.57-18.5 100.07Q856-442 821-407L480-64Z"/></svg>