<svg xmlns="http://www.w3.org/2000/svg" height="20" viewBox="0 -960 960 960" width="20"><path d="M481-114 163-409q-17-15-29-32.5T114-479h369q15.3 0 25.65 10.289 10.35 10.29 10.35 25.5Q519-428 508.65-417.5 498.3-407 483-407q-12.444 0-22.222-7T448-433l-70 19q9 35 38.257 57 29.257 22 66.743 22 45 0 76.5-31.527 31.5-31.526 31.5-76.565Q591-453 589.5-462q-1.5-9-4.5-17h51q45 0 75-31.5t30-76.5q0-45-31.522-76.5-31.521-31.5-76.553-31.5Q596-695 566.5-673T528-616l70 19q3-12 12.755-19 9.754-7 22.169-7Q648-623 658.5-612.711q10.5 10.29 10.5 25.5Q669-572 658.65-561.5 648.3-551 633-551H95.992Q95-557 95-563v-12q0-98.164 64.444-169.582Q223.888-816 320.074-816q46.168 0 87.047 19T480-745q31-34 72.5-52.5t87.465-18.5q95.759 0 160.397 71.278Q865-673.445 865-575.197 865-528 849-485t-50 75L481-114Z"/></svg>