<svg xmlns="http://www.w3.org/2000/svg" height="20" viewBox="0 -960 960 960" width="20"><path d="M347-109.618q-50.538 0-73.807-20-23.27-20-59.193-20-23.154 0-38.923 9.116-15.77 9.115-33.462 18.115-19.153 9.846-35.384 1.616-16.23-8.231-16.23-29.615 0-9.308 6-17.538 5.999-8.231 16.768-11.923 22.693-8 41.654-20.884 18.962-12.885 59.577-12.885 50.538 0 73.307 20 22.77 20 59.693 20t59.693-20q22.769-20 73.307-20 50.923 0 74.307 20 23.385 20 59.693 20 36.923 0 59.693-20 22.769-20 73.307-20 39.615 0 58.577 12.885 18.961 12.884 41.654 20.884 10.769 3.692 16.768 11.615 6 7.923 6 17.846 0 23.384-15.23 31.307-15.231 7.923-31.384-.923-18.692-11-35.462-20.308-16.769-9.308-40.923-9.308-35.923 0-59.193 20-23.269 20-73.807 20-50.538 0-74.307-20-23.77-20-59.693-20t-59.193 20q-23.269 20-73.807 20ZM137.615-278.385q-19.153 7.846-33.384-.885-14.23-8.73-14.23-30.115 0-9.307 6-17.23 5.999-7.923 16.768-11.615 22.693-8 41.847-20.885 19.153-12.884 58.769-12.884 10.769 0 20.385 2.423 9.616 2.423 25.001 10.347L212.77-532.463l-37.616 47.385q-8.307 11.539-20.768 12.962-12.462 1.423-23-6.885-10.538-8.307-12.153-21.384-1.616-13.076 6.692-23.999l236.076-288.999q15.077-19.077 38.769-26 23.692-6.923 47.384 2.308l349.922 132.076q12.769 5.462 17.345 16.807 4.577 11.346 1.5 24.5-3.076 12.769-16.422 18.23-13.346 5.462-26.115 0l-55.078-22.616 82.693 308.54q13 3.846 23.616 9.923 10.615 6.077 21.616 11 10.769 5.077 16.768 13 6 7.923 6 16.846 0 23.384-15.23 30.307-15.231 6.923-32.384-.923-19.692-10-35.462-19.308-15.769-9.308-39.923-9.308-35.923 0-59.193 20-23.269 20-73.807 20-50.923 0-74.307-20-23.385-20-59.693-20-35.923 0-59.193 20-23.269 20-73.807 20-50.538 0-73.615-20-23.077-20-59.385-20-24.154 0-39.923 10.308-15.77 10.308-36.462 19.308Zm485.078-54.614L563-555l-158 42 39.693 145.616q7.615-2 16.538-3.308 8.923-1.307 18.769-1.307 51.692 0 77.884 22 26.193 22 64.809 17Z"/></svg>