<svg xmlns="http://www.w3.org/2000/svg" height="20" viewBox="0 -960 960 960" width="20"><path d="M347-80q-54 0-76.5-20T214-120q-22 0-37 9.5T142-92q-23 11-42.5-.5T80-130q0-12 8.5-23.5T112-171q20-8 40.5-20.5T214-204q54 0 76 20t57 20q35 0 57-20t76-20q54 0 77 20t57 20q35 0 57-20t76-20q40 0 60.5 12.5T848-171q15 6 23.5 17t8.5 24q0 28-18.5 39T823-90q-21-11-37-20.5t-39-9.5q-34 0-56.5 20T614-80q-54 0-77-20t-57-20q-34 0-56.5 20T347-80ZM138-268q-23 9-40.5-3T80-309q0-12 8.5-23t23.5-17q20-8 40.5-20.5T213-382q5 0 10 .5t10 1.5l-36-134-28 37q-11 15-27.5 17t-30.5-9q-14-11-16-28.5t9-31.5l248-304q17-21 43-28.5t52 2.5l368 139q17 7 23.5 22t1.5 32q-5 17-22 24t-34 0l-42-18 80 297q8 5 14 8l12 6q15 7 23.5 18t8.5 23q0 28-18.5 38t-39.5 1q-22-10-37-19.5t-38-9.5q-34 0-56.5 20T614-258q-54 0-77-20t-57-20q-34 0-56.5 20T347-258q-54 0-76.5-20T214-298q-23 0-38 10.5T138-268Zm482-75-57-212-158 42 37 136q8-2 17.5-3.5T480-382q54 0 80 22t60 17Z"/></svg>