<svg xmlns="http://www.w3.org/2000/svg" height="24" viewBox="0 -960 960 960" width="24"><path d="M347-139.23q-52.077 0-71.69-20t-61.019-20q-31.599 0-49.137 12.73-17.539 12.731-41.923 20.731-9.308 2.692-16.27-2.769Q100-154 100-164.865q0-6.519 4.113-11.885 4.113-5.365 11.425-8.942 24.385-9 40.808-21.269 16.423-12.27 57.654-12.27 52.077 0 71.761 20 19.684 20 61.239 20 41.555 0 61.239-20 19.684-20 72.033-20 50.574 0 71.843 20 21.27 20 61.885 20 41.555 0 61.239-20 19.684-20 71.761-20 41.231 0 57.154 12.27 15.923 12.269 40.308 21.269 7.312 3.633 11.425 8.855T860-164.676q0 10.676-6.961 16.022-6.962 5.347-16.27 2.654-24.384-8-41.359-20.615-16.975-12.615-48.735-12.615-40.521 0-61.06 20-20.538 20-71.615 20t-72.115-20q-21.039-20-61.834-20-41.897 0-61.436 20-19.538 20-71.615 20ZM123.231-286.769q-9.308 2.692-16.27-2.769Q100-295 100-305.865q0-6.52 4.113-11.742 4.113-5.222 11.425-8.855 24.385-9 40.693-21.269Q172.538-360 213.769-360q17.539 0 32.769 4.346 15.231 4.346 41 19.192l-58-218.461-49.23 60.769q-5.359 6.821-12.911 7.795-7.551.975-14.628-4.641-7.077-5.615-7.808-13.269-.731-7.654 4.885-14.5l224.154-277q13.154-16.154 33.538-21.501 20.385-5.346 39.77 2.116L780.154-688q7.663 3.051 11.254 10.679 3.592 7.629.438 14.812-3.153 7.663-10.846 11.086-7.692 3.423-15.231.5l-72.153-28.231L780-355.077q17 1.692 32.231 11.346 15.231 9.654 32.231 16.5 7.312 3.352 11.425 9.099T860-305.445q0 10.676-6.961 16.022-6.962 5.346-16.27 2.654-24.384-8-41.891-20.615Q777.37-320 746.733-320q-41.579 0-61.118 20-19.538 20-71.887 20-50.574 0-71.843-20-21.27-20-61.885-20-41.555 0-61.239 20-19.684 20-71.642 20-50.196 0-71.35-20-21.154-20-61.769-20-29.383 0-47.884 12.616-18.501 12.615-42.885 20.615ZM347-320q33.846 0 51.885-14.385 18.038-14.384 50.5-22.384L407-512l155-41 61.385 232q34.076-2.769 52.076-19.654 18-16.885 61.154-19.115l-89.846-337.154L416.231-784 260.769-593.692l72.636 272.389q4.21 1.072 7.557 1.187 3.346.116 6.038.116Zm152.077-232Z"/></svg>