<svg xmlns="http://www.w3.org/2000/svg" height="20" viewBox="0 -960 960 960" width="20"><path d="M169.471-746.261q-18.814 0-31.752-12.727-12.937-12.727-12.937-31.541t12.727-31.752q12.727-12.937 31.541-12.937t31.751 12.727q12.938 12.727 12.938 31.541t-12.727 31.751q-12.727 12.938-31.541 12.938Zm155.652 0q-18.814 0-31.751-12.727-12.938-12.727-12.938-31.541t12.727-31.752q12.727-12.937 31.541-12.937t31.752 12.727q12.937 12.727 12.937 31.541t-12.727 31.751q-12.727 12.938-31.541 12.938Zm310.74 0q-18.814 0-31.752-12.727-12.937-12.727-12.937-31.541t12.727-31.752q12.727-12.937 31.541-12.937t31.752 12.727q12.937 12.727 12.937 31.541t-12.727 31.751q-12.727 12.938-31.541 12.938Zm155.087 0q-18.814 0-31.751-12.727-12.938-12.727-12.938-31.541t12.727-31.752q12.727-12.937 31.541-12.937t31.752 12.727q12.937 12.727 12.937 31.541t-12.727 31.751q-12.727 12.938-31.541 12.938ZM169.471-591.174q-18.814 0-31.752-12.727-12.937-12.727-12.937-31.541t12.727-31.752q12.727-12.937 31.541-12.937t31.751 12.727q12.938 12.727 12.938 31.541t-12.727 31.752q-12.727 12.937-31.541 12.937Zm621.479 0q-18.814 0-31.751-12.727-12.938-12.727-12.938-31.541t12.727-31.752q12.727-12.937 31.541-12.937t31.752 12.727q12.937 12.727 12.937 31.541t-12.727 31.752q-12.727 12.937-31.541 12.937ZM169.471-435.521q-18.814 0-31.752-12.727-12.937-12.727-12.937-31.541t12.727-31.752q12.727-12.938 31.541-12.938t31.751 12.727q12.938 12.727 12.938 31.541t-12.727 31.752q-12.727 12.938-31.541 12.938Zm155.652 0q-18.814 0-31.751-12.727-12.938-12.727-12.938-31.541t12.727-31.752q12.727-12.938 31.541-12.938t31.752 12.727q12.937 12.727 12.937 31.541t-12.727 31.752q-12.727 12.938-31.541 12.938Zm310.74 0q-18.814 0-31.752-12.727-12.937-12.727-12.937-31.541t12.727-31.752q12.727-12.938 31.541-12.938t31.752 12.727q12.937 12.727 12.937 31.541t-12.727 31.752q-12.727 12.938-31.541 12.938Zm155.087 0q-18.814 0-31.751-12.727-12.938-12.727-12.938-31.541t12.727-31.752q12.727-12.938 31.541-12.938t31.752 12.727q12.937 12.727 12.937 31.541t-12.727 31.752q-12.727 12.938-31.541 12.938ZM169.471-280.434q-18.814 0-31.752-12.727-12.937-12.727-12.937-31.541t12.727-31.752q12.727-12.937 31.541-12.937t31.751 12.727q12.938 12.727 12.938 31.541t-12.727 31.751q-12.727 12.938-31.541 12.938Zm621.479 0q-18.814 0-31.751-12.727-12.938-12.727-12.938-31.541t12.727-31.752q12.727-12.937 31.541-12.937t31.752 12.727q12.937 12.727 12.937 31.541t-12.727 31.751q-12.727 12.938-31.541 12.938ZM169.471-124.782q-18.814 0-31.752-12.727-12.937-12.727-12.937-31.541t12.727-31.751q12.727-12.938 31.541-12.938t31.751 12.727q12.938 12.727 12.938 31.541t-12.727 31.752q-12.727 12.937-31.541 12.937Zm155.652 0q-18.814 0-31.751-12.727-12.938-12.727-12.938-31.541t12.727-31.751q12.727-12.938 31.541-12.938t31.752 12.727q12.937 12.727 12.937 31.541t-12.727 31.752q-12.727 12.937-31.541 12.937Zm310.74 0q-18.814 0-31.752-12.727-12.937-12.727-12.937-31.541t12.727-31.751q12.727-12.938 31.541-12.938t31.752 12.727q12.937 12.727 12.937 31.541t-12.727 31.752q-12.727 12.937-31.541 12.937Zm155.087 0q-18.814 0-31.751-12.727-12.938-12.727-12.938-31.541t12.727-31.751q12.727-12.938 31.541-12.938t31.752 12.727q12.937 12.727 12.937 31.541t-12.727 31.752q-12.727 12.937-31.541 12.937Zm-310.739 0q-18.814 0-31.752-12.787-12.938-12.788-12.938-31.691v-621.48q0-18.903 12.727-31.691 12.727-12.787 31.541-12.787t31.752 12.787q12.938 12.788 12.938 31.691v621.48q0 18.903-12.727 31.691-12.727 12.787-31.541 12.787Z"/></svg>