<svg xmlns="http://www.w3.org/2000/svg" height="20" viewBox="0 -960 960 960" width="20"><path d="M192.519-739.384q-11.941 0-20.229-8.078-8.289-8.078-8.289-20.019 0-11.941 8.078-20.229 8.078-8.289 20.019-8.289 11.941 0 20.229 8.078 8.289 8.078 8.289 20.019 0 11.941-8.078 20.229-8.078 8.289-20.019 8.289Zm143.846 0q-11.941 0-20.23-8.078-8.288-8.078-8.288-20.019 0-11.941 8.078-20.229 8.078-8.289 20.019-8.289 11.941 0 20.229 8.078 8.288 8.078 8.288 20.019 0 11.941-8.077 20.229-8.078 8.289-20.019 8.289Zm287.691 0q-11.941 0-20.229-8.078-8.288-8.078-8.288-20.019 0-11.941 8.077-20.229 8.078-8.289 20.019-8.289 11.941 0 20.23 8.078 8.288 8.078 8.288 20.019 0 11.941-8.078 20.229-8.078 8.289-20.019 8.289Zm143.846 0q-11.941 0-20.229-8.078-8.289-8.078-8.289-20.019 0-11.941 8.078-20.229 8.078-8.289 20.019-8.289 11.941 0 20.229 8.078 8.289 8.078 8.289 20.019 0 11.941-8.078 20.229-8.078 8.289-20.019 8.289ZM192.519-595.539q-11.941 0-20.229-8.077-8.289-8.078-8.289-20.019 0-11.941 8.078-20.23 8.078-8.288 20.019-8.288 11.941 0 20.229 8.078 8.289 8.078 8.289 20.019 0 11.941-8.078 20.229-8.078 8.288-20.019 8.288Zm575.383 0q-11.941 0-20.229-8.077-8.289-8.078-8.289-20.019 0-11.941 8.078-20.23 8.078-8.288 20.019-8.288 11.941 0 20.229 8.078 8.289 8.078 8.289 20.019 0 11.941-8.078 20.229-8.078 8.288-20.019 8.288ZM192.519-451.693q-11.941 0-20.229-8.078-8.289-8.077-8.289-20.018 0-11.942 8.078-20.23t20.019-8.288q11.941 0 20.229 8.078 8.289 8.077 8.289 20.018 0 11.942-8.078 20.23t-20.019 8.288Zm143.846 0q-11.941 0-20.23-8.078-8.288-8.077-8.288-20.018 0-11.942 8.078-20.23t20.019-8.288q11.941 0 20.229 8.078 8.288 8.077 8.288 20.018 0 11.942-8.077 20.23-8.078 8.288-20.019 8.288Zm287.691 0q-11.941 0-20.229-8.078-8.288-8.077-8.288-20.018 0-11.942 8.077-20.23 8.078-8.288 20.019-8.288 11.941 0 20.23 8.078 8.288 8.077 8.288 20.018 0 11.942-8.078 20.23t-20.019 8.288Zm143.846 0q-11.941 0-20.229-8.078-8.289-8.077-8.289-20.018 0-11.942 8.078-20.23t20.019-8.288q11.941 0 20.229 8.078 8.289 8.077 8.289 20.018 0 11.942-8.078 20.23t-20.019 8.288ZM192.519-307.847q-11.941 0-20.229-8.078-8.289-8.078-8.289-20.019 0-11.941 8.078-20.229 8.078-8.288 20.019-8.288 11.941 0 20.229 8.077 8.289 8.078 8.289 20.019 0 11.941-8.078 20.23-8.078 8.288-20.019 8.288Zm575.383 0q-11.941 0-20.229-8.078-8.289-8.078-8.289-20.019 0-11.941 8.078-20.229 8.078-8.288 20.019-8.288 11.941 0 20.229 8.077 8.289 8.078 8.289 20.019 0 11.941-8.078 20.23-8.078 8.288-20.019 8.288ZM192.519-164.001q-11.941 0-20.229-8.078-8.289-8.078-8.289-20.019 0-11.941 8.078-20.229 8.078-8.289 20.019-8.289 11.941 0 20.229 8.078 8.289 8.078 8.289 20.019 0 11.941-8.078 20.229-8.078 8.289-20.019 8.289Zm143.846 0q-11.941 0-20.23-8.078-8.288-8.078-8.288-20.019 0-11.941 8.078-20.229 8.078-8.289 20.019-8.289 11.941 0 20.229 8.078 8.288 8.078 8.288 20.019 0 11.941-8.077 20.229-8.078 8.289-20.019 8.289Zm287.691 0q-11.941 0-20.229-8.078-8.288-8.078-8.288-20.019 0-11.941 8.077-20.229 8.078-8.289 20.019-8.289 11.941 0 20.23 8.078 8.288 8.078 8.288 20.019 0 11.941-8.078 20.229-8.078 8.289-20.019 8.289Zm143.846 0q-11.941 0-20.229-8.078-8.289-8.078-8.289-20.019 0-11.941 8.078-20.229 8.078-8.289 20.019-8.289 11.941 0 20.229 8.078 8.289 8.078 8.289 20.019 0 11.941-8.078 20.229-8.078 8.289-20.019 8.289Zm-287.691 0q-11.942 0-20.23-8.139-8.288-8.138-8.288-20.169v-575.382q0-12.031 8.078-20.169 8.077-8.139 20.018-8.139 11.942 0 20.23 8.139 8.288 8.138 8.288 20.169v575.382q0 12.031-8.078 20.169-8.077 8.139-20.018 8.139Z"/></svg>