<svg xmlns="http://www.w3.org/2000/svg" height="20" viewBox="0 -960 960 960" width="20"><path d="M68.001-164.001v-631.998h465.536v631.998h-183.69v-166.462h-98.156v166.462H68.001ZM120-216h79.693v-166.461h202.153V-216h79.693v-528H120v528Zm79.693-246.154h61.23v-61.23h-61.23v61.23Zm0-140.923h61.23v-61.23h-61.23v61.23Zm140.923 140.923h61.23v-61.23h-61.23v61.23Zm0-140.923h61.23v-61.23h-61.23v61.23Zm421.999 252.845L725.462-387l67.386-67.001H628.616v-51.998h164.232L725.462-573l37.153-36.768L892.383-480 762.615-350.232ZM199.693-216v-166.461h202.153V-216v-166.461H199.693V-216Z"/></svg>