<svg xmlns="http://www.w3.org/2000/svg" height="20" viewBox="0 -960 960 960" width="20"><path d="M141.782-450.217v282l-109-44 109-238Zm195 372h-120v-326l120 326Zm97.783 46.088L183.999-710.87l494.175-179.001L927.175-210.13l-492.61 178Zm15.87-508.479q20.392 0 35.718-14.937 15.326-14.938 15.326-35.542 0-20.391-15.326-35.717t-35.718-15.326q-20.391 0-35.435 15.326-15.043 15.326-15.043 35.717 0 20.392 14.937 35.436 14.938 15.043 35.541 15.043Zm48.391 368.129 285-105.043-171.478-470.999-286 105.043 172.478 470.999ZM326.348-643.478l286-105.043-286 105.043Z"/></svg>