<svg xmlns="http://www.w3.org/2000/svg" height="20" viewBox="0 -960 960 960" width="20"><path d="m398.616-132.156-38.768-163.537q-45.154-28.769-72.5-76.73Q260.001-420.385 260.001-480q0-59.615 27.847-107.577 27.846-47.961 74-76.73l36.768-163.537h162.768l36.768 163.537q46.154 28.769 74 76.73Q699.999-539.615 699.999-480q0 59.615-27.347 107.577-27.346 47.961-72.5 76.73l-38.768 163.537H398.616ZM480-312q70 0 119-49t49-119q0-70-49-119t-119-49q-70 0-119 49t-49 119q0 70 49 119t119 49Zm-59.769-378.46q14.384-4.769 29.577-6.962Q465-699.614 480-699.614t29.692 2.192q14.693 2.193 29.077 6.962L519-775.845h-78l-20.769 85.385ZM441-184.155h78l21.769-85.385q-14.384 4.769-29.577 6.962Q496-260.386 480-260.386t-30.692-2.192q-14.693-2.193-29.077-6.962L441-184.155Zm-20.769-591.69H538.769 420.231ZM441-184.155h-20.769H540.769 441Z"/></svg>