<svg xmlns="http://www.w3.org/2000/svg" height="20" viewBox="0 -960 960 960" width="20"><path d="M280-328v-304h95.385l48-48h113.23l48 48H680v304H280Zm32-32h336v-240H312v240Zm168-71.077q20.769 0 34.846-14.077 14.077-14.077 14.077-34.846t-14.077-34.846Q500.769-528.923 480-528.923t-34.846 14.077Q431.077-500.769 431.077-480t14.077 34.846q14.077 14.077 34.846 14.077Zm-71.616-483.231q18.154-3.846 35.924-4.769 17.769-.923 36.154-.923 83.538 0 159.115 29.923 75.577 29.923 135.077 82.154 59.5 52.231 97.423 123.923Q910-612.308 920-528h-32q-9.769-76.846-44.962-142.538-35.192-65.693-89.423-113.577-54.23-47.885-124.23-75.462-70-27.577-147.616-28.961l82.385 83.384-22.308 23.308-133.462-132.462ZM551.616-45.692q-18.154 3.846-35.923 4.77-17.77.922-36.155.922Q395-40 319.423-69.923q-75.577-29.923-134.577-82.154-59-52.231-97.423-123.923Q49-347.692 40-432h32q9 76.846 44.077 142.538 35.077 65.693 89.808 113.577 54.73 47.885 124.73 75.462 70 27.577 147.616 28.962l-82.385-83.385 22.308-23.308L551.616-45.692ZM482-481Z"/></svg>