<svg xmlns="http://www.w3.org/2000/svg" height="24" viewBox="0 -960 960 960" width="24"><path d="M240-271.521v-400h120l40-40h160l40 40h120v400H240Zm240-123.957q31.304 0 53.391-22.37 22.087-22.369 22.087-53.673 0-31.305-22.087-53.391-22.087-22.087-53.391-22.087t-53.391 22.087q-22.087 22.086-22.087 53.391 0 31.304 22.087 53.673 22.087 22.37 53.391 22.37ZM332.391-937.174q36.261-12.13 73.587-17.478Q443.304-960 481.696-960q93.434 0 176.934 33.783 83.5 33.782 147.718 93Q870.565-774 911.283-693.5 952-613 960-520h-97.523q-6.434-65.217-34.043-122.63-27.608-57.413-71.021-102.586Q714-790.39 657.5-819.608q-56.499-29.217-121.151-38.043l50.13 50.13-61.653 62.217-192.435-191.87ZM627.609-22.826q-36.261 12.13-73.587 17.478Q516.696 0 478.304 0 384.87 0 301.37-33.783q-83.5-33.782-147.718-93Q89.435-186 48.717-266.5 8-347 0-440h97.523q6.869 65.217 34.543 122.63t70.804 102.586Q246-169.61 302.5-140.392q56.499 29.217 121.151 38.043l-50.13-50.13 61.653-62.217 192.435 191.87Z"/></svg>