<svg xmlns="http://www.w3.org/2000/svg" height="20" viewBox="0 -960 960 960" width="20"><path d="M240-279.521v-384h120l48-48h144l48 48h120v384H240ZM320.479-360h319.042v-222.477H320.479V-360ZM480-403.478q28.304 0 47.891-19.87 19.587-19.869 19.587-48.173 0-28.305-19.587-47.891-19.587-19.587-47.891-19.587t-47.891 19.587q-19.587 19.586-19.587 47.891 0 28.304 19.587 48.173 19.587 19.87 47.891 19.87ZM343.391-939.174q34.261-11.13 69.087-15.978Q447.304-960 483.696-960q91.434 0 173.934 33.283 82.5 33.282 146.718 91Q868.565-778 909.283-699 950-620 960-528h-89.523q-8.434-66.217-37.543-124.412-29.108-58.196-73.739-102.87-44.63-44.673-103.129-73.608-58.5-28.935-124.717-37.761l55.13 56.13-55.653 57.217-187.435-185.87ZM616.609-20.826q-34.261 11.13-69.087 15.978Q512.696 0 476.304 0 383.87 0 301.37-33.283q-82.5-33.282-146.218-91Q91.435-182 50.217-261 9-340 0-432h89.523q7.87 66.217 36.76 124.412 28.891 58.196 74.022 102.87 45.13 44.673 103.629 73.608 58.5 28.935 124.717 37.761l-55.13-56.13 55.653-57.217 187.435 185.87ZM482-472.521Z"/></svg>