<svg xmlns="http://www.w3.org/2000/svg" height="24" viewBox="0 -960 960 960" width="24"><path d="M812.479-31.694 564.174-280h-62.695q-44.305 0-75.153-31.131-30.848-31.131-30.848-74.87v-62.129L31.694-812.479l62.218-62.653 781.22 781.22-62.653 62.218ZM395.478-71.521q-86.391 0-147.435-61.044T186.999-280q0-75.261 46.913-132.587 46.914-57.326 121.566-71.892v100.523q-32.174 13-51.565 41.239-19.391 28.239-19.391 62.717 0 46.609 32.174 79.065 32.174 32.456 78.782 32.456 36.174 0 63.5-19.956T499.434-240h101.088q-12.87 72.957-71.609 120.718-58.739 47.76-133.435 47.76Zm86.218-658.653q-36.392 0-62.435-26.327-26.044-26.326-26.044-62.717 0-36.392 26.044-62.435 26.043-26.044 62.435-26.044 36.391 0 62.435 26.044 26.043 26.043 26.043 62.435 0 36.391-26.043 62.717-26.044 26.327-62.435 26.327ZM769.609-451.87q-48.478-1.131-102.195-20.174-53.718-19.043-94.413-49.347v9.609L420.174-664.044q10-11 25.261-18.348 15.261-7.348 36.261-7.348 16.695 0 33.565 7 16.869 7 34.13 23.131l41.391 43.434q32.957 32 81.262 53 48.304 21 97.565 22.261v89.044Z"/></svg>