<svg xmlns="http://www.w3.org/2000/svg" height="20" viewBox="0 -960 960 960" width="20"><path d="M789.479-65.694 567.174-288h-41.695q-41.305 0-69.653-28.631-28.348-28.631-28.348-69.37v-41.129L65.694-789.479l57.218-56.653 723.22 723.22-56.653 57.218ZM379.478-87.521q-83.391 0-141.935-58.544T178.999-288q0-82.261 57.413-141.087 57.414-58.826 143.066-59.392v89.523q-47.174 0-79.065 32.739T268.522-288q0 46.609 32.174 79.065 32.174 32.456 78.782 32.456 34.174 0 60-17.456T480.434-240h93.088q-15.87 66.957-70.609 109.718-54.739 42.76-123.435 42.76Zm126.218-606.653q-38.392 0-65.435-27.327-27.044-27.326-27.044-65.717 0-38.392 27.044-65.435 27.043-27.044 65.435-27.044 38.391 0 65.435 27.044 27.043 27.043 27.043 65.435 0 38.391-27.043 65.717-27.044 27.327-65.435 27.327ZM777.609-443.87q-49.478-1.131-98.195-14.674-48.718-13.543-90.413-43.847v9.609L448.174-633.044q11-12 27.761-19.348 16.761-7.348 32.761-7.348 15.695 0 27.565 5.5 11.869 5.5 24.13 20.631l9.391 12.434q23.957 28 76.762 61 52.804 33 131.065 35.261v81.044Z"/></svg>