<svg xmlns="http://www.w3.org/2000/svg" height="24" viewBox="0 -960 960 960" width="24"><path d="M279.765-160Q238-160 209-189.167 180-218.333 180-260H92v-260h440v-188h134v-44h68v44h68l66 196v252h-88q0 41.667-29.235 70.833-29.236 29.167-71 29.167Q638-160 609-189.167 580-218.333 580-260H380q0 42-29.235 71-29.236 29-71 29Zm.235-28q30 0 51-21t21-50.5q0-29.5-21-51T280-332q-30 0-51 21.5t-21 51q0 29.5 21 50.5t51 21Zm400 0q30 0 51-21t21-50.5q0-29.5-21-51T680-332q-30 0-51 21.5t-21 51q0 29.5 21 50.5t51 21ZM560-520h276l-53-160H560v160ZM92-560v-28h40v-92H92v-28h368v28h-40v92h40v28H92Zm68-28h102v-92H160v92Zm130 0h102v-92H290v92Z"/></svg>