<svg xmlns="http://www.w3.org/2000/svg" height="20" viewBox="0 -960 960 960" width="20"><path d="M180.184-596q-6.723 0-11.453-4.6Q164-605.2 164-612v-127.385q0-23.354 16.631-39.984Q197.261-796 220.615-796H348q6.8 0 11.4 4.547 4.6 4.547 4.6 11.269 0 6.723-4.6 11.453Q354.8-764 348-764H220.615q-10.769 0-17.692 6.923T196-739.385V-612q0 6.8-4.547 11.4-4.547 4.6-11.269 4.6Zm600 0q-6.723 0-11.453-4.6Q764-605.2 764-612v-127.385q0-10.769-6.923-17.692T739.385-764H612q-6.8 0-11.4-4.547-4.6-4.547-4.6-11.269 0-6.723 4.6-11.453Q605.2-796 612-796h127.385q23.354 0 39.984 16.631Q796-762.739 796-739.385V-612q0 6.8-4.547 11.4-4.547 4.6-11.269 4.6ZM660.846-374.846l-84.769-85.539q-8.693-8.328-8.693-19.433t8.693-19.797l84.769-85.539Q665.692-590 671.231-590q5.538 0 11.154 5.008Q688-579.984 688-573.556t-5.615 10.941L617.539-496H828q6.8 0 11.4 4.547 4.6 4.547 4.6 11.269 0 6.723-4.6 11.453Q834.8-464 828-464H617.539l65.846 66.615q4.846 4.846 4.73 10.885-.115 6.039-5.73 11.654Q677.333-370 671.513-370q-5.821 0-10.667-4.846Zm-383.615 0q-5.231-4.846-4.847-11.269.385-6.424 5.231-11.27L342.461-464H132q-6.8 0-11.4-4.547-4.6-4.547-4.6-11.269 0-6.723 4.6-11.453Q125.2-496 132-496h210.461l-64.846-66.615q-4.846-4.846-5.112-11.167t4.343-11.372q5.615-4.846 11.72-5.231 6.105-.384 10.588 5.231l84.769 85.539q8.693 8.328 8.693 19.433t-8.693 19.797l-84.769 85.539Q294.601-370 288.531-370q-6.07 0-11.3-4.846ZM220.615-164q-23.354 0-39.984-16.631Q164-197.261 164-220.615V-348q0-6.8 4.547-11.4 4.547-4.6 11.269-4.6 6.723 0 11.453 4.6Q196-354.8 196-348v127.385q0 10.769 6.923 17.692T220.615-196H348q6.8 0 11.4 4.547 4.6 4.547 4.6 11.269 0 6.723-4.6 11.453Q354.8-164 348-164H220.615ZM612-164q-6.8 0-11.4-4.547-4.6-4.547-4.6-11.269 0-6.723 4.6-11.453Q605.2-196 612-196h127.385q10.769 0 17.692-6.923T764-220.615V-348q0-6.8 4.547-11.4 4.547-4.6 11.269-4.6 6.723 0 11.453 4.6Q796-354.8 796-348v127.385q0 23.354-16.631 39.984Q762.739-164 739.385-164H612Z"/></svg>