<svg xmlns="http://www.w3.org/2000/svg" height="24" viewBox="0 -960 960 960" width="24"><path d="M159.965-626Q154-626 150-630.025T146-640v-114q0-24.75 17.625-42.375T206-814h114q5.95 0 9.975 4.035 4.025 4.035 4.025 10T329.975-790q-4.025 4-9.975 4H206q-14 0-23 9t-9 23v114q0 5.95-4.035 9.975-4.035 4.025-10 4.025Zm640 0Q794-626 790-630.025T786-640v-114q0-14-9-23t-23-9H640q-5.95 0-9.975-4.035-4.025-4.035-4.025-10t4.025-9.965q4.025-4 9.975-4h114q24.75 0 42.375 17.625T814-754v114q0 5.95-4.035 9.975-4.035 4.025-10 4.025ZM663-373l-85-86q-9-9-9-21t9-21l85-86q4-4 9.5-4t10.5 4.211q5 4.21 5 10 0 5.789-5 9.789l-73 73h230q5.95 0 9.975 4.035 4.025 4.035 4.025 10T849.975-470q-4.025 4-9.975 4H610l73 73q4 4 4.5 9.5T683-373q-4.267 4-10.133 4-5.867 0-9.867-4Zm-385.5 0q-4.5-4-4.5-10t4-10l73-73H120q-5.95 0-9.975-4.035-4.025-4.035-4.025-10t4.025-9.965q4.025-4 9.975-4h230l-73-73q-4-4-3.846-9.867.154-5.866 3.846-10.133 5-4 10.5-4.5t9.5 4.5l85 86q9 9 9 21t-9 21l-85 86q-4.091 4-9.545 4-5.455 0-9.955-4ZM206-146q-24.75 0-42.375-17.625T146-206v-114q0-5.95 4.035-9.975 4.035-4.025 10-4.025t9.965 4.025q4 4.025 4 9.975v114q0 14 9 23t23 9h114q5.95 0 9.975 4.035 4.025 4.035 4.025 10T329.975-150q-4.025 4-9.975 4H206Zm434 0q-5.95 0-9.975-4.035-4.025-4.035-4.025-10t4.025-9.965q4.025-4 9.975-4h114q14 0 23-9t9-23v-114q0-5.95 4.035-9.975 4.035-4.025 10-4.025t9.965 4.025q4 4.025 4 9.975v114q0 24.75-17.625 42.375T754-146H640Z"/></svg>