<svg xmlns="http://www.w3.org/2000/svg" height="20" viewBox="0 -960 960 960" width="20"><path d="M480.478-480ZM328.761-329.482q29.552 29.004 69.804 29.504t69.804-28.5L525-385.239 384.522-524.717l-55.761 55.76q-29 29.102-29 69.738 0 40.636 29 69.737Zm303.478-301.475Q603-660.196 561.88-660.576q-41.119-.381-70.704 28.859l-55.654 55L576-436.239l56.133-55.894q29.345-29.345 29.226-69.584-.12-40.24-29.12-69.24Zm-496.37 495.088v-688.262h246.109q9.674-31.478 36.37-51.739 26.695-20.261 61.652-20.261t61.652 20.261q26.696 20.261 36.37 51.739h246.109v688.262H135.869ZM480-766.087q11.229 0 18.571-7.342 7.342-7.342 7.342-18.571 0-11.229-7.342-18.571-7.342-7.342-18.571-7.342-11.229 0-18.571 7.342-7.342 7.342-7.342 18.571 0 11.229 7.342 18.571 7.342 7.342 18.571 7.342Z"/></svg>