<svg xmlns="http://www.w3.org/2000/svg" height="20" viewBox="0 -960 960 960" width="20"><path d="M520.35-301.19Q475.286-256 411.143-256.5T302-301.974q-45-44.974-45-108.5t45.35-108.716l140.3-139.62Q487.974-704 552.487-703.5T662-658.026q45 44.974 45 108.5T661.65-440.81l-141.3 139.62ZM379-379q15 15 33.612 14.614Q431.224-364.773 444-378l34-34-66-65-33 35q-13 12.873-13 31.437Q366-392 379-379Zm205-202q-15-15-33.19-15.114Q532.621-596.227 520-582l-36 35 66 66 34-36q12-13 12.5-32T584-581ZM110-110v-740h256q15-33 45.5-52.5T480-922q38 0 68.5 19.5T594-850h256v740H110Zm118-118h504v-504H228v504Zm252-532q13.867 0 22.933-9.067Q512-778.133 512-792q0-13.867-9.067-22.933Q493.867-824 480-824q-13.867 0-22.933 9.067Q448-805.867 448-792q0 13.867 9.067 22.933Q466.133-760 480-760ZM228-228v-504 504Z"/></svg>