<svg xmlns="http://www.w3.org/2000/svg" height="20" viewBox="0 -960 960 960" width="20"><path d="M480-480ZM336.308-335.924q26.374 25.923 62.449 26.231 36.075.308 62.449-25.615l63.409-63.539-125.768-124.768-62.539 62.539Q310.77-435.538 310.77-398.5t25.538 62.576Zm288.384-287.152q-25.923-25.923-62.884-26.231-36.962-.308-63.23 25.615L436-561.768 561.768-436l62.579-62.578q26.268-26.268 26.268-62.422 0-36.154-25.923-62.076ZM164.001-164.001v-631.998h245.308q-1.231-28.307 19.076-50.153 20.308-21.847 51.615-21.847 31.692 0 51.999 21.847 20.308 21.846 18.692 50.153h245.308v631.998H164.001ZM480-764.154q10.4 0 17.2-6.8 6.8-6.8 6.8-17.2 0-10.4-6.8-17.2-6.8-6.8-17.2-6.8-10.4 0-17.2 6.8-6.8 6.8-6.8 17.2 0 10.4 6.8 17.2 6.8 6.8 17.2 6.8Z"/></svg>