<svg xmlns="http://www.w3.org/2000/svg" height="20" viewBox="0 -960 960 960" width="20"><path d="M164.001-164.001h119.001v-119.001H164.001v119.001Zm170.999 0h119.001v-119.001H335v119.001Zm170.999 0H625v-119.001H505.999v119.001Zm170.999 0h119.001v-119.001H676.998v119.001ZM164.001-676.998h119.001v-119.001H164.001v119.001Zm0 170.999h119.001V-625H164.001v119.001Zm0 170.999h119.001v-119.001H164.001V-335ZM335-676.998h119.001v-119.001H335v119.001Zm0 170.999h119.001V-625H335v119.001ZM335-335h119.001v-119.001H335V-335Zm170.999-341.998H625v-119.001H505.999v119.001Zm0 170.999H625V-625H505.999v119.001Zm0 170.999H625v-119.001H505.999V-335Zm170.999-341.998h119.001v-119.001H676.998v119.001Zm0 170.999h119.001V-625H676.998v119.001Zm0 170.999h119.001v-119.001H676.998V-335Z"/></svg>