<svg xmlns="http://www.w3.org/2000/svg" height="24" viewBox="0 -960 960 960" width="24"><path d="M111.869-111.869h124.066v-124.066H111.869v124.066Zm204.066 0H440v-124.066H315.935v124.066Zm204.065 0h123.826v-124.066H520v124.066Zm204.304 0h123.827v-124.066H724.304v124.066ZM111.869-724.065h124.066v-124.066H111.869v124.066Zm0 204.065h124.066v-124.065H111.869V-520Zm0 204.065h124.066V-440H111.869v124.065Zm204.066-408.13H440v-124.066H315.935v124.066Zm0 204.065H440v-124.065H315.935V-520Zm0 204.065H440V-440H315.935v124.065ZM520-724.065h123.826v-124.066H520v124.066ZM520-520h123.826v-124.065H520V-520Zm0 204.065h123.826V-440H520v124.065Zm204.304-408.13h123.827v-124.066H724.304v124.066Zm0 204.065h123.827v-124.065H724.304V-520Zm0 204.065h123.827V-440H724.304v124.065Z"/></svg>