<svg xmlns="http://www.w3.org/2000/svg" height="24" viewBox="0 -960 960 960" width="24"><path d="M143.077-226.154v-149.231q0-33.846 23.077-56.923 23.077-23.077 56.923-23.077H280v-269.23q0-17.616 11.961-29.577 11.962-11.962 29.577-11.962h316.924q17.615 0 29.577 11.962Q680-742.231 680-724.615v269.23h56.923q33.846 0 56.923 23.077 23.077 23.077 23.077 56.923v149.231q0 17.616-11.961 29.577-11.962 11.962-29.577 11.962h-590.77q-17.615 0-29.577-11.962-11.961-11.961-11.961-29.577ZM320-455.385h320v-270.769H320v270.769Zm-136.923 230.77h593.846v-150.77q0-17-11.5-28.5t-28.5-11.5H223.077q-17 0-28.5 11.5t-11.5 28.5v150.77Zm521.538-86.154q17 0 28.5-11.5t11.5-28.5q0-17-11.5-28.5t-28.5-11.5q-17 0-28.5 11.5t-11.5 28.5q0 17 11.5 28.5t28.5 11.5ZM183.077-415.385h593.846-593.846Z"/></svg>