<svg xmlns="http://www.w3.org/2000/svg" height="20" viewBox="0 -960 960 960" width="20"><path d="M178-246v-182q0-19 12.5-31.5T222-472h70v-230q0-9.7 6.15-15.85T314-724h332q9.7 0 15.85 6.15T668-702v230h70q19 0 31.5 12.5T782-428v182q0 9.7-6.15 15.85T760-224H200q-9.7 0-15.85-6.15T178-246Zm134-226h336v-232H312v232Zm375.789 120Q703-352 713.5-362.289q10.5-10.29 10.5-25.5Q724-403 713.711-413.5q-10.29-10.5-25.5-10.5Q673-424 662.5-413.711q-10.5 10.29-10.5 25.5Q652-373 662.289-362.5q10.29 10.5 25.5 10.5Z"/></svg>