<svg xmlns="http://www.w3.org/2000/svg" height="24" viewBox="0 -960 960 960" width="24"><path d="m460-275.461-202.539-85.385Q246-366 239.154-376.5q-6.847-10.5-6.847-22.961v-79q0-17.616 11.962-29.577Q256.231-520 273.846-520H460v-120h-66.154q-17.615 0-29.577-11.962-11.962-11.961-11.962-29.577v-92.307q0-17.616 11.962-29.577 11.962-11.962 29.577-11.962h172.308q17.615 0 29.577 11.962 11.962 11.961 11.962 29.577v92.307q0 17.616-11.962 29.577Q583.769-640 566.154-640H500v120h186.154q17.615 0 29.577 11.962 11.962 11.961 11.962 29.577v79q0 12.461-6.847 22.961Q714-366 702.539-360.846L500-275.461v107.769q0 8.538-5.731 14.269-5.73 5.731-14.269 5.731t-14.269-5.731Q460-159.154 460-167.692v-107.769ZM392.308-680h175.384v-95.385H392.308V-680ZM460-319.385V-480H272.308v81.308L460-319.385Zm40 0 187.692-79.307V-480H500v160.615ZM392.308-680v-95.385V-680Z"/></svg>