<svg xmlns="http://www.w3.org/2000/svg" height="24" viewBox="0 -960 960 960" width="24"><path d="M480-290.174q-17 0-28.5-11.5t-11.5-28.5q0-17 11.5-28.5t28.5-11.5q17 0 28.5 11.5t11.5 28.5q0 17-11.5 28.5t-28.5 11.5Zm0-139.652q-17 0-28.5-11.445-11.5-11.446-11.5-28.366v-159.246q0-16.92 11.5-28.366 11.5-11.446 28.5-11.446t28.5 11.446q11.5 11.446 11.5 28.366v159.246q0 16.92-11.5 28.366-11.5 11.445-28.5 11.445ZM288.479-22.477q-44.305 0-75.153-30.849-30.849-30.848-30.849-75.153v-703.042q0-44.305 30.849-75.153 30.848-30.849 75.153-30.849h383.042q44.305 0 75.153 30.849 30.849 30.848 30.849 75.153v703.042q0 44.305-30.849 75.153-30.848 30.849-75.153 30.849H288.479Zm0-146.002v40h383.042v-40H288.479Zm0-80h383.042v-463.042H288.479v463.042Zm0-543.042h383.042v-40H288.479v40Zm0 0v-40 40Zm0 623.042v40-40Z"/></svg>