<svg xmlns="http://www.w3.org/2000/svg" height="20" viewBox="0 -960 960 960" width="20"><path d="M690.225-456Q662-456 641-476.775q-21-20.774-21-49Q620-554 640.775-575q20.774-21 49-21Q718-596 739-575.225q21 20.774 21 49Q760-498 739.225-477q-20.774 21-49 21ZM574-264q-11.05 0-18.525-7.475Q548-278.95 548-290v-1q0-4.077-.167-6.568-.166-2.492.167-6.432 30-26 66-39t76-13q40 0 76 13t66 39q.333 3.94.167 6.432Q832-295.077 832-291v1q0 11.05-7.475 18.525Q817.05-264 806-264H574ZM364-512q-38.55 0-65.275-26.725Q272-565.45 272-604q0-38.55 26.725-65.275Q325.45-696 364-696q38.55 0 65.275 26.725Q456-642.55 456-604q0 38.55-26.725 65.275Q402.55-512 364-512ZM128-296.114q0-15.276 9-28.081T161-344q46-28 97.666-42T364-400q35 0 68.5 6.7T497-371l-41 3q-16 13-18 37.5t-2 45.5v-9q0 7.488.868 15.915.869 8.426 4.132 14.085H150q-9.7 0-15.85-6.15T128-286v-10.114Z"/></svg>