<svg xmlns="http://www.w3.org/2000/svg" height="24" viewBox="0 -960 960 960" width="24"><path d="M160-480q0 61.385 20.846 114.731t57.462 94.884q6.384 7.077 7.153 15.5.77 8.424-5.846 15.039-6.615 6.615-14.769 5.731-8.154-.885-14.539-7.962-42-48.154-66.153-108.577Q120-411.077 120-480t24.154-129.462Q168.307-670 210.307-717.923q6.385-7.077 14.539-7.962 8.154-.884 14.769 5.731 6.616 6.615 5.846 15.039-.769 8.423-7.153 15.5-36.616 42.538-57.462 95.884Q160-540.385 160-480Zm160 0q0 27.615 9.077 52.346 9.077 24.731 24.692 45.039 5.154 7.076 5.423 15.23.269 8.154-6.346 14.77-6.615 6.615-15.154 5.731-8.538-.885-13.692-7.962-21-25.923-32.5-57.692Q280-444.308 280-480q0-35.923 11.5-67.577 11.5-31.654 32.5-57.577 5.384-7.077 13.808-7.846 8.423-.769 15.038 5.846t6.346 14.654q-.269 8.039-5.423 15.115-15.615 20.308-24.692 45.039T320-480Zm160 40q-16.077 0-28.039-11.961Q440-463.923 440-480t11.961-28.039Q463.923-520 480-520t28.039 11.961Q520-496.077 520-480t-11.961 28.039Q496.077-440 480-440Zm160-40q0-27.615-9.077-52.346-9.077-24.731-24.692-45.039-5.154-7.076-5.308-15.23-.154-8.154 6.462-14.77 6.615-6.615 14.923-5.73 8.308.884 13.692 7.961 21 25.923 32.5 57.577T680-480q0 35.692-11.5 67.462-11.5 31.769-32.5 57.692-5.154 7.077-13.692 7.846-8.539.769-15.154-5.846t-6.346-14.654q.269-8.039 5.423-15.115 15.615-20.308 24.692-45.039T640-480Zm160 0q0-60.615-20.846-113.961-20.846-53.347-57.462-95.654-6.384-7.077-7.269-15.5-.884-8.424 5.731-15.039t14.885-5.731q8.269.885 14.654 7.962 42 47.923 66.153 108.461Q840-548.923 840-480q0 68.923-24.154 129.346-24.153 60.423-66.153 108.577-6.385 7.077-14.539 7.962-8.154.884-14.769-5.731-6.616-6.615-5.846-15.039.769-8.423 7.153-15.5 36.616-42.538 57.462-95.884Q800-419.615 800-480Z"/></svg>