<svg xmlns="http://www.w3.org/2000/svg" height="20" viewBox="0 -960 960 960" width="20"><path d="M897.385-323.308q-24.623 0-42.158-17.534-17.535-17.535-17.535-42.158v-168q0-24.769 17.385-42.731 17.385-17.961 42.308-16.961h35.692v287.384h-35.692ZM340.03-277q-8.261 0-16.514-3.58t-15.055-9.574L147.95-449.679q-6.066-6.552-9.162-14.591-3.096-8.039-3.096-16.356 0-8.4 3.58-16.986T148.846-512l109.307-109.308q21.314-20.95 49.688-33.321Q336.216-667 367.077-667q66.038 0 112.327 45.563 46.288 45.564 46.288 111.552 0 31.424-11.871 59.767Q501.95-421.775 480-399.461L369.923-289.384q-5.66 5.692-13.646 9.038Q348.291-277 340.03-277Zm28.662-358q-25 0-48.385 10.385-23.384 10.384-39.615 26.615L180.384-497.692q-6.923 6.923-6.923 17.307 0 10.385 6.923 17.308l141.385 141.385q6.923 6.923 17.308 6.923 10.384 0 17.307-6.923L457.692-422q16.231-16.231 26.115-39.229 9.885-22.998 9.885-47.042 0-52.729-36.5-89.729t-88.5-37Zm-45.154 160.154Zm347.231 109.385-16.308-16.308L730-455.308H588.308v-23.384h143.23l-77.846-74.846L670-570.077l105.077 102.308-104.308 102.308Z"/></svg>