<svg xmlns="http://www.w3.org/2000/svg" height="24" viewBox="0 -960 960 960" width="24"><path d="M905.385-320.308q-27.923 0-47.808-19.884-19.885-19.885-19.885-47.808v-160q0-28.769 19.885-48.231 19.885-19.461 47.808-19.461h27.692v295.384h-27.692ZM328.844-279q-12.075 0-24.328-4.58t-22.055-14.574L146.95-432.679q-9.566-9.552-14.412-21.216-4.846-11.664-4.846-23.731 0-12.066 4.58-24.319 4.58-12.253 14.574-22.055l97.307-98.308q23.314-22.95 52.657-34.821Q326.154-669 358.077-669q67.038 0 113.327 46.288 46.288 46.289 46.288 113.327 0 31.924-11.871 61.267Q493.95-418.775 471-395.461l-97.077 97.077q-9.66 9.692-21.332 14.538T328.844-279Zm349.925-85.461-24.308-24.308L714-448.308H572.308v-35.384h147.23l-63.846-63.846L680-571.077l103.077 102.308-104.308 104.308Z"/></svg>