<svg xmlns="http://www.w3.org/2000/svg" height="20" viewBox="0 -960 960 960" width="20"><path d="M365-428q1-9 2.5-15.372T369-457q0-32-15-55t-32-45q-25-33-35.5-61T276-675.952Q276-685 277-694l2-18h20q-1 5-2 14.5t-1 18.058q0 38.741 14.575 64.908 14.574 26.167 31.5 50.35Q369-528 379-504.384q10 23.617 10 49.836 0 6.849-.5 12.699Q388-436 386.326-428H365Zm114 0q1-9 2-15.372T482-457q0-32-14.5-55T436-557q-25-33-36-61t-11-57.952Q389-685 390-694l2-18h20q-1 5-2 14.492-1 9.491-1 18.05 0 38.746 14.643 64.916 14.643 26.169 31.5 50.356Q482-528 492-504.384q10 23.617 10 49.836v12.699Q502-436 500.326-428H479Zm112 0q1-9 2.5-15.372T595-457q0-32-15-55t-32-45q-25-33-35.5-61T502-675.952Q502-685 503-694l2-18h20q-1 5-2 14.492-1 9.491-1 18.05 0 38.746 14.643 64.916 14.643 26.169 31.5 50.356Q595-528 605-504.458q10 23.543 10 49.644 0 6.814-.5 12.814t-2.174 14H591ZM480-248q-118 0-199-39.15T200-383q0-16 11-34.5t33-35.5v25q-12 11-18 22.167-6 11.166-6 21.833 0 47.5 77.041 81.75 77.042 34.25 183 34.25Q586-268 663-302.25T740-384q0-10.667-6-21.833Q728-417 716-428v-25q22 16 33 35t11 35q0 56.7-81.5 95.85Q597-248 480-248Z"/></svg>