<svg xmlns="http://www.w3.org/2000/svg" height="24" viewBox="0 -960 960 960" width="24"><path d="M360-47q-59.583 0-101.292-41.708Q217-130.417 217-190t41.708-101.292Q300.417-333 360-333t101.292 41.708Q503-249.583 503-190T461.292-88.708Q419.583-47 360-47Zm218-189q-14-65-60.5-111.5T405-408l68-69H226q-41.684 0-70.342-28.646T127-575.958Q127-602 140-625t36-37l494-295q26-16 55.412-8.034Q754.824-957.069 771-931q15 26 7.5 55T745-831L432-643h303q41.684 0 70.342 28.553T834-544.362q0 23.362-6.5 44.862Q821-478 805-462L578-236Z"/></svg>