<svg xmlns="http://www.w3.org/2000/svg" height="20" viewBox="0 -960 960 960" width="20"><path d="M215.736-528q-12.813 0-22.275-9.962Q184-547.923 184-560v-184q0-12.777 9.637-22.389Q203.275-776 216.088-776h184.175q12.814 0 22.275 9.611Q432-756.777 432-744v184q0 12.077-9.637 22.038Q412.725-528 399.912-528H215.736Zm0 344q-12.813 0-22.275-9.637Q184-203.275 184-216.088v-184.175q0-12.814 9.637-22.275Q203.275-432 216.088-432h184.175q12.814 0 22.275 9.637Q432-412.725 432-399.912v184.176q0 12.813-9.637 22.275Q412.725-184 399.912-184H215.736ZM560-528q-12.077 0-22.038-9.962Q528-547.923 528-560v-184q0-12.777 9.962-22.389Q547.923-776 560-776h184q12.777 0 22.389 9.611Q776-756.777 776-744v184q0 12.077-9.611 22.038Q756.777-528 744-528H560Zm0 344q-12.077 0-22.038-9.637Q528-203.275 528-216.088v-184.175q0-12.814 9.962-22.275Q547.923-432 560-432h184q12.777 0 22.389 9.637Q776-412.725 776-399.912v184.176q0 12.813-9.611 22.275Q756.777-184 744-184H560ZM216-560h184v-184H216v184Zm344 0h184v-184H560v184Zm0 344h184v-184H560v184Zm-344 0h184v-184H216v184Zm344-344Zm0 160Zm-160 0Zm0-160Z"/></svg>