<svg xmlns="http://www.w3.org/2000/svg" height="20" viewBox="0 -960 960 960" width="20"><path d="M222.519-528q-40.462 0-69.099-29.138-28.638-29.138-28.638-68.863v-111.216q0-40.426 28.813-69.213 28.814-28.788 69.276-28.788h111.391q40.462 0 69.1 28.788Q432-777.643 432-737.217v111.216q0 39.725-28.814 68.863Q374.373-528 333.911-528H222.519Zm0 403.218q-40.462 0-69.099-28.813-28.638-28.814-28.638-69.276v-111.391q0-40.462 28.813-69.1Q182.409-432 222.871-432h111.391q40.462 0 69.1 28.814Q432-374.373 432-333.911v111.392q0 40.462-28.814 69.099-28.813 28.638-69.275 28.638H222.519ZM626.001-528q-39.725 0-68.863-29.138Q528-586.276 528-626.001v-111.216q0-40.426 29.138-69.213 29.138-28.788 68.863-28.788h111.216q40.426 0 69.213 28.788 28.788 28.787 28.788 69.213v111.216q0 39.725-28.788 68.863Q777.643-528 737.217-528H626.001Zm0 403.218q-39.725 0-68.863-28.813Q528-182.409 528-222.871v-111.391q0-40.462 29.138-69.1Q586.276-432 626.001-432h111.216q40.426 0 69.213 28.814 28.788 28.813 28.788 69.275v111.392q0 40.462-28.788 69.099-28.787 28.638-69.213 28.638H626.001ZM222.783-626.001h111.216v-111.216H222.783v111.216Zm403.218 0h111.216v-111.216H626.001v111.216Zm0 403.218h111.216v-111.216H626.001v111.216Zm-403.218 0h111.216v-111.216H222.783v111.216Zm403.218-403.218Zm0 292.002Zm-292.002 0Zm0-292.002Z"/></svg>