<svg xmlns="http://www.w3.org/2000/svg" height="24" viewBox="0 -960 960 960" width="24"><path d="M206.783-520q-43.726 0-74.863-31.138-31.138-31.138-31.138-74.863v-127.216q0-43.726 31.138-74.863 31.137-31.138 74.863-31.138h127.216q43.725 0 74.863 31.138Q440-796.943 440-753.217v127.216q0 43.725-31.138 74.863Q377.724-520 333.999-520H206.783Zm0 419.218q-43.726 0-74.863-31.138-31.138-31.137-31.138-74.863v-127.216q0-43.725 31.138-74.863Q163.057-440 206.783-440h127.216q43.725 0 74.863 31.138Q440-377.724 440-333.999v127.216q0 43.726-31.138 74.863-31.138 31.138-74.863 31.138H206.783ZM626.001-520q-43.725 0-74.863-31.138Q520-582.276 520-626.001v-127.216q0-43.726 31.138-74.863 31.138-31.138 74.863-31.138h127.216q43.726 0 74.863 31.138 31.138 31.137 31.138 74.863v127.216q0 43.725-31.138 74.863Q796.943-520 753.217-520H626.001Zm0 419.218q-43.725 0-74.863-31.138Q520-163.057 520-206.783v-127.216q0-43.725 31.138-74.863Q582.276-440 626.001-440h127.216q43.726 0 74.863 31.138 31.138 31.138 31.138 74.863v127.216q0 43.726-31.138 74.863-31.137 31.138-74.863 31.138H626.001Z"/></svg>