<svg xmlns="http://www.w3.org/2000/svg" height="20" viewBox="0 -960 960 960" width="20"><path d="M283.478-274.999v-98.002H500.39q-9.913-12.912-17.074-27.773-7.16-14.861-9.521-30.225h-94.317v-98.002h93.348q2.33-15.364 9.99-30.225 7.661-14.861 17.574-27.773H130.999v-98.002H672q85.075 0 145.038 59.965 59.963 59.966 59.963 145.044 0 85.079-59.963 145.036Q757.075-274.999 672-274.999H283.478Zm388.755-98.002q44.68 0 75.723-31.276t31.043-75.956q0-44.68-31.159-75.723-31.16-31.043-75.674-31.043-44.514 0-75.839 31.159-31.326 31.16-31.326 75.674 0 44.514 31.276 75.839 31.276 31.326 75.956 31.326ZM82.999-430.999v-98.002h248.479v98.002H82.999Zm48 156v-98.002h104.479v98.002H130.999ZM673-480Z"/></svg>