<svg xmlns="http://www.w3.org/2000/svg" height="24" viewBox="0 -960 960 960" width="24"><path d="M180-386.154q-8.5 0-14.25-5.757-5.75-5.758-5.75-14.27 0-8.511 5.615-14.242 5.616-5.731 13.385-5.731h241q8.5 0 14.25 5.758t5.75 14.269q0 8.512-5.615 14.243-5.616 5.73-13.385 5.73H180ZM180-240q-8.5 0-14.25-5.758-5.75-5.757-5.75-14.269 0-8.511 5.615-14.242Q171.231-280 179-280h241q8.5 0 14.25 5.758t5.75 14.269q0 8.512-5.615 14.242Q428.769-240 421-240H180Zm0-293.846q-8.5 0-14.25-5.758T160-553.873q0-8.512 5.615-14.242 5.616-5.731 13.385-5.731h241q8.5 0 14.25 5.757 5.75 5.758 5.75 14.27 0 8.511-5.615 14.242-5.616 5.731-13.385 5.731H180ZM180-680q-8.5 0-14.25-5.758T160-700.027q0-8.512 5.615-14.242Q171.231-720 179-720h241q8.5 0 14.25 5.758 5.75 5.757 5.75 14.269 0 8.511-5.615 14.242Q428.769-680 421-680H180Zm412.307 440q-13.73 0-23.019-9.288Q560-258.577 560-272.307v-415.386q0-13.73 9.288-23.019Q578.577-720 592.307-720h175.386q13.73 0 23.019 9.288Q800-701.423 800-687.693v415.386q0 13.73-9.288 23.019Q781.423-240 767.693-240H592.307Z"/></svg>