<svg xmlns="http://www.w3.org/2000/svg" height="24" viewBox="0 -960 960 960" width="24"><path d="M280-460h280q8.5 0 14.25-5.758 5.75-5.757 5.75-14.269t-5.75-14.242Q568.5-500 560-500H280q-8.5 0-14.25 5.758-5.75 5.757-5.75 14.269t5.75 14.242Q271.5-460 280-460Zm0-120h280q8.5 0 14.25-5.758 5.75-5.757 5.75-14.269t-5.75-14.242Q568.5-620 560-620H280q-8.5 0-14.25 5.758-5.75 5.757-5.75 14.269t5.75 14.242Q271.5-580 280-580Zm-95.385 380Q157-200 138.5-218.5 120-237 120-264.615v-430.77Q120-723 138.5-741.5 157-760 184.615-760h590.77Q803-760 821.5-741.5 840-723 840-695.385v430.77Q840-237 821.5-218.5 803-200 775.385-200h-590.77Z"/></svg>