<svg xmlns="http://www.w3.org/2000/svg" height="20" viewBox="0 -960 960 960" width="20"><path d="M480.067-116.001q-74.836 0-141.204-28.42-66.369-28.42-116.182-78.21-49.814-49.791-78.247-116.129-28.433-66.337-28.433-141.173 0-75.836 28.42-141.704 28.42-65.869 78.21-115.682 49.791-49.814 116.129-78.247 66.337-28.433 141.173-28.433 75.836 0 141.704 28.42 65.869 28.42 115.682 78.21 49.814 49.791 78.247 115.629 28.433 65.837 28.433 141.673 0 74.836-28.42 141.204-28.42 66.369-78.21 116.182-49.791 49.814-115.629 78.247-65.837 28.433-141.673 28.433ZM480-168q130 0 221-91t91-221q0-130-91-221t-221-91q-130 0-221 91t-91 221q0 130 91 221t221 91ZM348.309-348.309V-444L580-674.691l94.306 96.076L444-348.309h-95.691ZM579-533l45-45.615L579-624l-45 46 45 45Z"/></svg>