<svg xmlns="http://www.w3.org/2000/svg" height="24" viewBox="0 -960 960 960" width="24"><path d="M479.824-105q-156.177 0-265.5-109.324Q105-323.647 105-479.824 105-636 214.375-746T480-856q11 0 22.5.5T525-853q-29 33-47 74t-18 87q0 97.083 68.542 165.042Q597.083-459 695-459q45 0 86-17.5t73-46.5q1 11 1.5 21.207.5 10.208.5 20.793 0 156-110 266T479.824-105ZM480-231q62 0 116-28.5t87-77.5q-10 1-20 1t-19-2q-119-17-203-98.5T338-645q-1-9-1.5-19t1.5-19q-48 34-77.5 88T231-480q0 103.157 72.921 176.079Q376.843-231 480-231Zm-23-226Z"/></svg>