<svg xmlns="http://www.w3.org/2000/svg" height="24" viewBox="0 -960 960 960" width="24"><path d="M479.958-116.413q-151.477 0-257.511-106.034-106.034-106.034-106.034-257.511 0-151.477 106.046-257.672Q328.505-843.826 480-843.826q13.283 0 26.304.88 13.022.881 25.544 2.881-38.131 29.956-61.076 75.141-22.946 45.185-22.946 97.272 0 91.694 64.325 155.879 64.326 64.186 156.219 64.186 52.608 0 97.413-22.826 44.804-22.826 74.521-60.957 1.761 12.522 2.642 25.235.88 12.712.88 25.896 0 151.435-106.196 257.63-106.195 106.196-257.672 106.196Zm.042-91q81.782 0 147.956-43.717 66.174-43.718 98.413-114.783-17.608 4.044-35.217 6.326-17.609 2.283-34.978 1.805-122.044-4.066-207.946-89.37t-90.446-209.261q-.239-17.369 1.924-34.978t6.446-34.978q-70.826 32.478-114.782 98.652Q207.413-561.543 207.413-480q0 112.929 79.829 192.758Q367.071-207.413 480-207.413Zm-13.109-259.478Z"/></svg>