<svg xmlns="http://www.w3.org/2000/svg" height="20" viewBox="0 -960 960 960" width="20"><path d="M481.115-164.001q-131.627 0-223.793-92.167Q165.155-348.334 165.155-480q0-125.768 85.045-215.883 85.045-90.115 208.405-98.192 7.673 0 15.071.615t15.398 1.846q-28.615 28.615-45.268 65.653-16.654 37.039-16.654 77.961 0 93.334 64.334 157.668 64.334 64.333 157.668 64.333 40.538 0 77.768-16.653 37.23-16.653 65.461-45.268 1.231 8 1.846 15.398.616 7.398.616 15.071-7.693 123.36-97.847 208.405-90.155 85.045-215.883 85.045Z"/></svg>