<svg xmlns="http://www.w3.org/2000/svg" height="24" viewBox="0 -960 960 960" width="24"><path d="M160-105q-23.375 0-39.188-15.812Q105-136.625 105-160v-640q0-23.375 15.812-39.188Q136.625-855 160-855t39.188 15.812Q215-823.375 215-800v640q0 23.375-15.812 39.188Q183.375-105 160-105Zm105-320v-110h110v110H265Zm160 0v-110h110v110H425Zm160 0v-110h110v110H585Zm215 320q-23.375 0-39.188-15.812Q745-136.625 745-160v-640q0-23.375 15.812-39.188Q776.625-855 800-855t39.188 15.812Q855-823.375 855-800v640q0 23.375-15.812 39.188Q823.375-105 800-105Z"/></svg>