<svg xmlns="http://www.w3.org/2000/svg" height="20" viewBox="0 -960 960 960" width="20"><path d="M308-610.769h344v-32H308v32ZM719.774-83.384q-63.62 0-107.697-44.304Q568-171.991 568-235.611q0-63.62 44.303-107.697 44.303-44.077 107.923-44.077 63.62 0 107.697 44.303Q872-298.779 872-235.158q0 63.62-44.303 107.697-44.303 44.077-107.923 44.077ZM700.615-144h38.77v-72h72v-38.769h-72v-72h-38.77v72h-72V-216h72v72ZM184-184v-592h592v284.615q-13.769-.307-28.654-1.846-14.884-1.538-27.346-1.538-21.231 0-42.846 3.692-21.615 3.692-42.077 9.538V-496H308v32h282.231q-34.077 20.846-59.539 49.923-25.461 29.077-40.863 64.846H308v32h167.385q-4.308 18.923-7.231 38.616-2.923 19.692-2.923 38.615 0 10.385.654 27.846.653 17.462.961 28.154H184Z"/></svg>