<svg xmlns="http://www.w3.org/2000/svg" height="24" viewBox="0 -960 960 960" width="24"><path d="M300-610.769h360v-40H300v40ZM720-75.384q-66.846 0-113.423-46.577T560-235.385q0-66.846 46.577-113.423T720-395.385q66.846 0 113.423 46.577T880-235.385q0 66.847-46.577 113.424Q786.846-75.384 720-75.384ZM704.615-120h30.77v-100h100v-30.769h-100v-100h-30.77v100h-100V-220h100v100ZM160-160v-640h640v302.615q-19.769-6.307-39.654-9.846-19.884-3.538-40.346-3.538-20.231 0-39.346 3.192-19.115 3.192-37.577 9.038V-500H300v40h263.231q-30.077 20.846-53.039 48.923-22.961 28.077-37.807 61.846H300v40h158.385q-4.308 16.923-6.731 34.116-2.423 17.192-2.423 35.115 0 18.385 2.154 40.346 2.153 21.962 9.461 39.654H160Z"/></svg>