<svg xmlns="http://www.w3.org/2000/svg" height="20" viewBox="0 -960 960 960" width="20"><path d="M290.87-596.413h378.26v-72H290.87v72ZM716.904-42.739q-79.774 0-135.774-56.226t-56-136q0-79.774 56.227-135.774 56.226-56 136-56 79.773 0 135.773 56.226t56 136q0 79.774-56.226 135.774t-136 56Zm-27.361-92.413h55.174v-72h72v-55.174h-72v-72h-55.174v72h-72v55.174h72v72Zm-553.674 0v-688.261h688.262v349.131q-25.153-11.109-52.403-17.663-27.25-6.555-54.598-6.555-12 0-24 1t-24 3v-20.783H290.87v72h262.521q-21.265 16.359-38.491 36.603-17.226 20.245-29.26 44.528H290.87v72h167.695q-2.717 13.674-4.076 27.706-1.359 14.033-1.359 27.946 0 25.718 5.098 50.794 5.098 25.076 13.576 48.554H135.869Z"/></svg>