<svg xmlns="http://www.w3.org/2000/svg" height="24" viewBox="0 -960 960 960" width="24"><path d="M478.462-440q-16.077 0-28.039-11.961-11.962-11.962-11.962-28.039t11.962-28.039Q462.385-520 478.462-520t28.038 11.961q11.962 11.962 11.962 28.039T506.5-451.961Q494.539-440 478.462-440Zm0 280q-122.077 0-212.539-79.961Q175.461-319.923 161.231-440h40.461Q218-336.769 296.039-268.385 374.078-200 478.462-200q117 0 198.5-81.5t81.5-198.5q0-117-81.5-198.5t-198.5-81.5q-62.077 0-116.693 26.231-54.615 26.231-96.384 72.231h99.23v40H198.461v-166.154h40v95.538q46.385-50.923 108.731-79.385Q409.538-800 478.462-800q66.598 0 124.76 25.038 58.163 25.039 101.663 68.539t68.538 101.648q25.039 58.149 25.039 124.731 0 66.583-25.039 124.775-25.038 58.192-68.538 101.692-43.5 43.5-101.663 68.539Q545.06-160 478.462-160Z"/></svg>