<svg xmlns="http://www.w3.org/2000/svg" height="20" viewBox="0 -960 960 960" width="20"><path d="M477.788-460Q470-460 464-466.212q-6-6.213-6-14Q458-488 464.212-494q6.213-6 14-6Q486-500 492-493.788q6 6.213 6 14Q498-472 491.788-466q-6.213 6-14 6ZM478-196q-118 0-201.5-83T195-480h18q5 109 80.901 186.5T478-216q110.314 0 187.157-76.778Q742-369.557 742-479.778 742-590 665.157-667 588.314-744 478-744q-50 0-95.5 18T297-676h93v20H246v-144h20v132q41.909-45.09 96.455-70.545Q417-764 478-764q59.078 0 110.672 22.1 51.595 22.1 90.361 60.867Q717.8-642.267 739.9-590.69 762-539.114 762-480.057q0 59.057-22.1 110.69-22.1 51.634-60.867 90.4-38.766 38.767-90.361 60.867Q537.078-196 478-196Z"/></svg>