<svg xmlns="http://www.w3.org/2000/svg" height="24" viewBox="0 -960 960 960" width="24"><path d="M272-240q43 0 73.5-29.87T376-343q0-29-16-56t-44-39l-8-4v-242q0-15-9.9-25.5T272-720q-14 0-25 10.5T236-684v242l-8 4q-29 13-44.5 39.145Q168-372.71 168-343q0 43.26 30.5 73.13Q229-240 272-240Zm-.5 28q-54.5 0-93-38.5T140-344q0-38.323 18.5-68.661Q177-443 208-460v-224q0-26.88 19-45.44T272-748q28 0 46 18.56T336-684v224q30 17 49 48t19 69q0 54-39 92.5T271.5-212ZM517-370q-41-26-71-69.5T416-546q0-84.167 58.882-143.083Q533.765-748 617.882-748 702-748 761-689.083 820-630.167 820-546q0 63-30 106.5T719-370H517Zm8-28h189q35-26 56.5-63t21.5-85q0-71.775-51.159-122.888-51.16-51.112-123-51.112Q546-720 495-668.888 444-617.775 444-546q0 49 23 86t58 62Zm93 186q-20 0-35-15t-15-35h100q0 20-15 35t-35 15Zm-90-90v-28h180v28H528Zm-256-41Zm346-216Z"/></svg>