<svg xmlns="http://www.w3.org/2000/svg" height="24" viewBox="0 -960 960 960" width="24"><path d="M192.521-555.478h34.913v-149.044q0-7.304-4.935-12.239-4.934-4.935-12.239-4.935-7.869 0-12.804 4.935-4.935 4.935-4.935 12.239v149.044Zm17.739 414.696q-81.217 0-138.24-56.804Q15-254.391 15-336.043q0-48 21.434-88.827 21.435-40.826 59.13-67.652v-212q0-48.218 33.24-81.457 33.24-33.239 81.457-33.239 48.218 0 81.457 33.239 33.24 33.239 33.24 81.457v212q37.695 26.826 59.13 67.652 21.435 40.827 21.435 88.827 0 81.217-57.022 138.239-57.022 57.022-138.24 57.022Zm341.131-211.87q-51.956-35.826-83.087-91.218-31.13-55.391-31.13-120.652 0-106.218 74.239-180.457 74.239-74.239 180.457-74.239 106.218 0 180.175 74.239 73.956 74.239 73.956 180.457 0 65.261-31.13 120.652-31.131 55.392-83.087 91.218H551.391Zm140.479 211.87q-25.696 0-44.543-18.847-18.848-18.848-18.848-44.544h126.217q0 25.696-18.565 44.544-18.565 18.847-44.261 18.847Zm-127.348-83.391v-88.479h254.131v88.479H564.522Z"/></svg>