<svg xmlns="http://www.w3.org/2000/svg" height="24" viewBox="0 -960 960 960" width="24"><path d="M343-488h-21q-14.3 0-23.65-10-9.35-10-9.35-24.209 0-14.21 10-23.5Q309-555 323-555h59q14.3 0 23.65 9.35Q415-536.3 415-522v181q0 15-10.5 25.5T379-305q-15 0-25.5-10.5T343-341v-147Zm152 183q-17 0-28.5-11.5T455-345v-170q0-17 11.5-28.5T495-555h105q17 0 28.5 11.5T640-515v170q0 17-11.5 28.5T600-305H495Zm33-67h40v-116h-40v116ZM480.206-40Q398-40 326-71q-72-31-125.5-84.5T116-281q-31-72-31-153 0-26 18.5-44.5T148-497q26 0 44.5 18.5T211-434q0 111.986 78.298 189.993Q367.596-166 480-166t190.702-78.298Q749-322.596 749-435q0-111.986-79-189.993Q591-703 479-703h-7l21 21q14 14 14 33.5T493-615q-14 14-34.5 14T424-615L318-721q-19-19.364-19-45.182T318-811l106-106q14-14 34.5-14t34.5 15q14 14 13.5 34T492-848l-19 19h6q82.282 0 154.141 31T759-713.5q54 53.5 85 125.06 31 71.561 31 153.5Q875-353 844-281t-84.5 125.5Q706-102 634.206-71q-71.793 31-154 31Z"/></svg>