<svg xmlns="http://www.w3.org/2000/svg" height="20" viewBox="0 -960 960 960" width="20"><path d="M696-670q30.4 0 52.2-21.8Q770-713.6 770-744q0-30.4-21.8-52.2Q726.4-818 696-818q-30.4 0-52.2 21.8Q622-774.4 622-744q0 30.4 21.8 52.2Q665.6-670 696-670Zm0 528q30.4 0 52.2-21.8Q770-185.6 770-216q0-30.4-21.8-52.2Q726.4-290 696-290q-30.4 0-52.2 21.8Q622-246.4 622-216q0 30.4 21.8 52.2Q665.6-142 696-142Zm0-602Zm0 528Zm-456.226 96Q181-120 140.5-160.726t-40.5-99.5Q100-319 140.726-359.5t99.5-40.5Q299-400 339.5-359.274t40.5 99.5Q380-201 339.274-160.5t-99.5 40.5ZM170-483q1-38 28.5-64.5T264-574q21.292 0 39.646 8.5T334-540l274-169q-3-10-4.5-18t-1.5-17q0-39 27.5-66.5T696-838q39 0 66.5 27.5T790-744q0 39-27.5 66.5T696-650q-21.292 0-39.646-8T626-684L352-515q4 18 5 29t-1 27q-26-16-55.196-24.5Q271.609-492 240-492q-19 0-35.5 2t-34.5 7Zm526 361q-39 0-66.5-27.5T602-216q0-9 1.5-17t4.5-18l-147-90q-7-19-17.5-34.5T418-404l208 128q12-19 30.354-26.5T696-310q39 0 66.5 27.5T790-216q0 39-27.5 66.5T696-122ZM239-240l46 45q4.214 4 10 4.5t11-4.5q5-5.207 5-10.5t-5-10.5l-46-45 45-45q4-4.214 4.5-10t-4.5-11q-5.214-5-10.5-5t-10.5 5l-45 45-45-45q-4-4-9.5-4.5T174-327q-5 5.214-5 10.5t5 10.5l44 45-45 45q-4 4-4.5 9.5T173-196q5.429 5 11 5t11-5l44-44Z"/></svg>