<svg xmlns="http://www.w3.org/2000/svg" height="20" viewBox="0 -960 960 960" width="20"><path d="M467-444q16 0 32-4t33-13l59 59q11 11 25.5 10.5T642-403q11-11 11-25.5T642-454l-59-58q8-15 12.5-30.78Q600-558.559 600-576q0-54-38.5-92.5t-94-38.5q-55.5 0-93.5 38.058t-38 93.5Q336-520 374-482q38 38 93 38Zm2-72q-24 0-42.5-17.885t-18.5-43Q408-602 426.5-619.5 445-637 469-637q25 0 42.5 18.5T529-576q0 24-17.625 42T469-516ZM71-116.303q-16.996 0-28.76-11.703-11.763-11.702-11.763-28.608 0-16.907 11.763-28.537Q54.004-196.782 71-196.782H889q16.995 0 28.759 11.42 11.763 11.42 11.763 28.327 0 16.906-11.763 28.819-11.764 11.913-28.759 11.913H70.999Zm103.783-128.479q-41.005 0-69.503-28.498-28.498-28.498-28.498-69.503v-394.434q0-41.005 28.498-69.503 28.498-28.498 69.503-28.498h610.434q41.005 0 69.503 28.498 28.498 28.498 28.498 69.503v394.434q0 41.005-28.498 69.503-28.498 28.498-69.503 28.498H174.783Z"/></svg>