<svg xmlns="http://www.w3.org/2000/svg" height="20" viewBox="0 -960 960 960" width="20"><path d="M467-457.846q16 0 28.923-4 12.923-4 29.923-13l82.846 81.307q7.923 7.154 17.039 7.424 9.115.269 17.038-8.424 7.923-7.923 7.539-16.653-.385-8.731-8.308-16.654l-82.077-81.077q8-15 11.731-26.934 3.731-11.933 3.731-29.374 0-43.231-30.808-74.808-30.808-31.577-77.077-31.577t-76.577 30.577q-30.308 30.577-30.308 75.547 0 44.969 30.308 76.308 30.308 31.338 76.077 31.338Zm2-47.385q-24 0-42.5-17.885t-18.5-43q0-25.115 18.5-42.615 18.5-17.5 42.5-17.5 25.769 0 42.885 18 17.115 18 17.115 42t-17.625 42.5q-17.625 18.5-42.375 18.5ZM94.77-205.538q-6.84 0-11.42-4.52-4.581-4.521-4.581-11.27t4.58-11.48q4.582-4.73 11.42-4.73h770.462q6.838 0 11.419 4.52t4.581 11.269q0 6.749-4.581 11.48-4.581 4.731-11.419 4.731H94.769Zm97.845-80q-24.315 0-40.465-16.15Q136-317.838 136-342.154v-358.769q0-24.316 16.15-40.466 16.15-16.15 40.465-16.15h574.77q24.315 0 40.465 16.15Q824-725.239 824-700.923v358.769q0 24.316-16.15 40.466-16.15 16.15-40.465 16.15h-574.77Zm0-32.001h574.77q9.23 0 16.923-7.692Q792-332.923 792-342.154v-358.769q0-9.231-7.692-16.923-7.693-7.693-16.923-7.693h-574.77q-9.23 0-16.923 7.693Q168-710.154 168-700.923v358.769q0 9.231 7.692 16.923 7.693 7.692 16.923 7.692Zm-24.615 0v-408 408Z"/></svg>