<svg xmlns="http://www.w3.org/2000/svg" height="20" viewBox="0 -960 960 960" width="20"><path d="M467-462q16 0 28-4t29-13l90 88q7 6 14.5 6.5T643-392q7-7 6.5-14t-7.5-14l-89-88q8-15 11.5-25.78Q568-544.559 568-562q0-40-28.5-69.5t-72-29.5q-43.5 0-71.5 29.058t-28 70.5Q368-520 396-491q28 29 71 29Zm2-40q-24 0-42.5-17.885t-18.5-43Q408-588 426.5-605.5 445-623 469-623q26 0 43 18.5t17 42.5q0 24-17.625 42T469-502ZM98-224q-4.3 0-7.15-2.789-2.85-2.79-2.85-7Q88-238 90.85-241t7.15-3h764q4.3 0 7.15 2.789 2.85 2.79 2.85 7 0 4.211-2.85 7.211t-7.15 3H98Zm102-68q-22.7 0-37.35-14.65Q148-321.3 148-344v-344q0-22.7 14.65-37.35Q177.3-740 200-740h560q22.7 0 37.35 14.65Q812-710.7 812-688v344q0 22.7-14.65 37.35Q782.7-292 760-292H200Z"/></svg>