<svg xmlns="http://www.w3.org/2000/svg" height="24" viewBox="0 -960 960 960" width="24"><path d="M460-420q21 0 39.5-5.5T536-442l61 63q8 9 20.5 8.5T639-379q9-9 9.5-21.5T640-422l-62-62q11-17 16.5-36t5.5-40q0-59-41.5-99.5T460-700q-57 0-98.5 40.5T320-560q0 59 41.5 99.5T460-420Zm0-60q-33 0-56.5-23.5T380-560q0-33 23.5-56.5T460-640q32 0 56 23.5t24 56.5q0 33-23.5 56.5T460-480ZM67-92.303q-18.922 0-31.723-12.8-12.8-12.8-12.8-31.722 0-18.682 12.8-31.319 12.8-12.638 31.722-12.638h826.002q18.921 0 31.722 12.641 12.8 12.64 12.8 31.326t-12.8 31.599q-12.801 12.913-31.722 12.913H66.999Zm99.783-128.479q-44.305 0-75.153-30.848-30.848-30.848-30.848-75.153v-426.434q0-44.305 30.848-75.153 30.848-30.848 75.153-30.848h626.434q44.305 0 75.153 30.848 30.848 30.848 30.848 75.153v426.434q0 44.305-30.848 75.153-30.848 30.848-75.153 30.848H166.783Zm0-106.001h626.434v-426.434H166.783v426.434Zm0 0v-426.434 426.434Z"/></svg>