<svg xmlns="http://www.w3.org/2000/svg" height="20" viewBox="0 -960 960 960" width="20"><path d="M480-96Q322-227 245-339.5T168-549q0-134 89-224.5T480-864q12.414 0 24.207 1Q516-862 528-860.193V-787q-12-2.5-24-3.75T480-792q-104 0-172 69.5T240-549q0 72 60 162t180 196q119-106 179.5-196T720-549q0-6.667-.5-13.333Q719-569 718-576h72q1 7 1.5 13.667.5 6.666.5 13.333 0 97-77.513 209.446Q636.975-227.108 480-96Zm0-431Zm195-73 81-81 81 81 51-51-81-81 81-81-50-52-82 82-81-81-51 51 81 81-81 81 51 51ZM480.212-480Q510-480 531-501.212q21-21.213 21-51Q552-582 530.788-603q-21.213-21-51-21Q450-624 429-602.788q-21 21.213-21 51Q408-522 429.212-501q21.213 21 51 21Z"/></svg>