<svg xmlns="http://www.w3.org/2000/svg" height="24" viewBox="0 -960 960 960" width="24"><path d="M480-60.782Q309.956-203.434 225.369-322.347q-84.587-118.913-84.587-231.349 0-158.013 102.125-251.768 102.125-93.754 236.528-93.754 9.805 0 19.12.5 9.315.5 19.749 1.934v107.002q-10-2-19.434-2.718-9.435-.717-19.435-.717-97.609 0-165.13 67.124-67.522 67.124-67.522 172.397 0 76.653 57.587 160.522Q361.957-309.305 480-201.262q112.391-102.39 169.695-183.716 57.304-81.326 62.392-154.021 0-.87-.218-1.739-.217-.87-.217-1.739h106.001q0 .869.217 1.739.218.869.218 1.739-5.087 108.478-89.392 224.283Q644.391-198.912 480-60.782Zm-.565-487.871ZM686.87-626.13l84-84 84 84 70.697-70.696-84-84 84-84-70.697-70.697-84 84-84-84-70.696 70.697 84 84-84 84 70.696 70.696ZM480-474.348q35.826 0 60.739-24.913 24.913-24.913 24.913-60.739 0-35.826-24.913-60.739-24.913-24.913-60.739-24.913-35.826 0-60.739 24.913-24.913 24.913-24.913 60.739 0 35.826 24.913 60.739 24.913 24.913 60.739 24.913Z"/></svg>