<svg xmlns="http://www.w3.org/2000/svg" height="20" viewBox="0 -960 960 960" width="20"><path d="m234-470 75 75q4 3.75 4 7.375t-3.732 7.451q-3.072 3.174-6.67 3.174T295-380l-80.709-81.661Q210-466 208-470.543q-2-4.544-2-10.457 0-4 2-9t6.291-9.291L295-580q3.75-4 7.375-4t7.625 4q3 4 3 7.5t-3 6.5l-75 76h490l-75-75q-4-3.75-4-7.375t3.071-6.799q3.733-3.826 7.331-3.826 3.598 0 6.598 4l81.661 80.709Q749-494 751-489t2 9.5q0 5.5-2 10t-6.291 8.791L664-380q-3.75 4-7.375 4t-6.799-3.071Q646-382.804 646-386.402q0-3.598 4-7.598l75-76H234Z"/></svg>