<svg xmlns="http://www.w3.org/2000/svg" height="20" viewBox="0 -960 960 960" width="20"><path d="m311.958-430.999 20.826 20.695q14.956 15.522 15.239 35.109.283 19.587-15.239 35.109-14.957 14.957-34.544 14.957-19.588 0-35.11-14.957l-104.304-104.87q-6.696-6.696-10.544-15.457-3.848-8.761-3.848-19.587 0-9.261 3.848-18.305 3.848-9.043 10.544-15.739L263.13-618.349q15.522-15.522 35.11-15.239 19.587.282 34.544 15.804 14.391 14.392 14.391 33.979t-14.391 33.979l-20.261 20.825h334.954l-21.826-20.825q-14.957-14.957-14.674-34.544.283-19.587 15.239-34.544 14.957-14.957 34.544-14.957 19.588 0 34.544 14.957l104.87 104.87q6.696 6.696 10.544 15.739 3.848 9.044 3.848 18.305 0 10.826-3.848 19.587t-10.544 15.457L695.87-340.651q-14.957 14.957-34.544 14.957-19.588 0-34.544-14.957-15.522-14.957-15.522-34.544 0-19.587 14.956-35.109l21.261-20.695H311.958Z"/></svg>