<svg xmlns="http://www.w3.org/2000/svg" height="20" viewBox="0 -960 960 960" width="20"><path d="M232-384q0-61.923 23.077-118.616Q278.154-559.308 311-607.577q32.846-48.27 68.616-83.731Q415.385-726.77 440-744.462V-697q0 48.461 33.308 80.231Q506.615-585 553-585q19.308 0 34.731-6.231 15.423-6.231 29.5-15.385l15.23-11.538q42.231 32.923 69.385 98.538Q729-454 728-385q-1 81.846-46.73 144.808-45.731 62.961-123.27 89.115 20.616-17.615 31.308-40.923Q600-215.308 600-240q0-19.923-6.884-40.539-6.885-20.615-21.423-37.154L480-426.154l-91.693 108.461q-13.769 15.77-21.038 36.385Q360-260.692 360-240q0 25.692 11.192 49.5T404-149.077q-77.539-25.154-124.77-89.615Q232-303.154 232-384Zm248 9.692 66.154 76.923q10.923 11.923 16.385 26.577Q568-256.154 568-240q0 36.539-25.731 62.269Q516.539-152 480-152t-62.269-25.731Q392-203.461 392-240q0-16.154 5.077-30.423 5.077-14.269 16.769-26.962L480-374.308Z"/></svg>