<svg xmlns="http://www.w3.org/2000/svg" height="20" viewBox="0 -960 960 960" width="20"><path d="M171.384-332.615v-294.77h32v294.77h-32Zm101.539 59.692v-308.616q0-44.615 30.702-75.077 30.702-30.461 74.836-30.461h203.078q44.615 0 75.077 30.461 30.461 30.462 30.461 75.077v308.616H272.923Zm483.693-59.692v-294.77h32v294.77h-32ZM480-480ZM304.923-304.923H464V-464h-47.693v-32H464v-159.077h-85.634q-30.374 0-51.908 21.602-21.535 21.602-21.535 51.936v276.616Zm191.077 0h159.077v-276.616q0-30.334-21.602-51.936t-51.936-21.602H496V-496h47.693v32H496v159.077Z"/></svg>