<svg xmlns="http://www.w3.org/2000/svg" height="20" viewBox="0 -960 960 960" width="20"><path d="M144-144v-672h672v672H144Zm72-72h528v-528H216v528Zm0 0v-528 528Zm107.789-384Q339-600 349.5-610.289q10.5-10.29 10.5-25.5Q360-651 349.711-661.5q-10.29-10.5-25.5-10.5Q309-672 298.5-661.711q-10.5 10.29-10.5 25.5Q288-621 298.289-610.5q10.29 10.5 25.5 10.5Zm156 0Q495-600 505.5-610.289q10.5-10.29 10.5-25.5Q516-651 505.711-661.5q-10.29-10.5-25.5-10.5Q465-672 454.5-661.711q-10.5 10.29-10.5 25.5Q444-621 454.289-610.5q10.29 10.5 25.5 10.5Zm156 0Q651-600 661.5-610.289q10.5-10.29 10.5-25.5Q672-651 661.711-661.5q-10.29-10.5-25.5-10.5Q621-672 610.5-661.711q-10.5 10.29-10.5 25.5Q600-621 610.289-610.5q10.29 10.5 25.5 10.5Zm0 168Q651-432 661.5-442.289q10.5-10.29 10.5-25.5Q672-483 661.711-493.5q-10.29-10.5-25.5-10.5Q621-504 610.5-493.711q-10.5 10.29-10.5 25.5Q600-453 610.289-442.5q10.29 10.5 25.5 10.5Zm-156 0Q495-432 505.5-442.289q10.5-10.29 10.5-25.5Q516-483 505.711-493.5q-10.29-10.5-25.5-10.5Q465-504 454.5-493.711q-10.5 10.29-10.5 25.5Q444-453 454.289-442.5q10.29 10.5 25.5 10.5Zm-156 0Q339-432 349.5-442.289q10.5-10.29 10.5-25.5Q360-483 349.711-493.5q-10.29-10.5-25.5-10.5Q309-504 298.5-493.711q-10.5 10.29-10.5 25.5Q288-453 298.289-442.5q10.29 10.5 25.5 10.5Z"/></svg>