<svg xmlns="http://www.w3.org/2000/svg" height="20" viewBox="0 -960 960 960" width="20"><path d="M196-196v-568h568v568H196Zm133.789-409q9.211 0 16.711-7.289 7.5-7.29 7.5-16.5 0-9.211-7.289-16.711-7.29-7.5-16.5-7.5-9.211 0-16.711 7.289-7.5 7.29-7.5 16.5 0 9.211 7.289 16.711 7.29 7.5 16.5 7.5Zm150 0q9.211 0 16.711-7.289 7.5-7.29 7.5-16.5 0-9.211-7.289-16.711-7.29-7.5-16.5-7.5-9.211 0-16.711 7.289-7.5 7.29-7.5 16.5 0 9.211 7.289 16.711 7.29 7.5 16.5 7.5Zm150 0q9.211 0 16.711-7.289 7.5-7.29 7.5-16.5 0-9.211-7.289-16.711-7.29-7.5-16.5-7.5-9.211 0-16.711 7.289-7.5 7.29-7.5 16.5 0 9.211 7.289 16.711 7.29 7.5 16.5 7.5Zm0 161q9.211 0 16.711-7.289 7.5-7.29 7.5-16.5 0-9.211-7.289-16.711-7.29-7.5-16.5-7.5-9.211 0-16.711 7.289-7.5 7.29-7.5 16.5 0 9.211 7.289 16.711 7.29 7.5 16.5 7.5Zm-150 0q9.211 0 16.711-7.289 7.5-7.29 7.5-16.5 0-9.211-7.289-16.711-7.29-7.5-16.5-7.5-9.211 0-16.711 7.289-7.5 7.29-7.5 16.5 0 9.211 7.289 16.711 7.29 7.5 16.5 7.5Zm-150 0q9.211 0 16.711-7.289 7.5-7.29 7.5-16.5 0-9.211-7.289-16.711-7.29-7.5-16.5-7.5-9.211 0-16.711 7.289-7.5 7.29-7.5 16.5 0 9.211 7.289 16.711 7.29 7.5 16.5 7.5Z"/></svg>