<svg xmlns="http://www.w3.org/2000/svg" height="20" viewBox="0 -960 960 960" width="20"><path d="M164.001-164.001v-631.998h631.998v631.998H164.001Zm162.096-437.922q12.903 0 22.249-9.136 9.346-9.135 9.346-22.038t-9.135-22.249q-9.136-9.346-22.039-9.346-12.902 0-22.248 9.136-9.346 9.135-9.346 22.038t9.135 22.249q9.136 9.346 22.038 9.346Zm153.692 0q12.903 0 22.249-9.136 9.346-9.135 9.346-22.038t-9.135-22.249q-9.136-9.346-22.038-9.346-12.903 0-22.249 9.136-9.346 9.135-9.346 22.038t9.135 22.249q9.136 9.346 22.038 9.346Zm153.693 0q12.902 0 22.248-9.136 9.346-9.135 9.346-22.038t-9.135-22.249q-9.136-9.346-22.038-9.346-12.903 0-22.249 9.136-9.346 9.135-9.346 22.038t9.135 22.249q9.136 9.346 22.039 9.346Zm0 165.307q12.902 0 22.248-9.135 9.346-9.136 9.346-22.038 0-12.903-9.135-22.249-9.136-9.346-22.038-9.346-12.903 0-22.249 9.135-9.346 9.136-9.346 22.038 0 12.903 9.135 22.249 9.136 9.346 22.039 9.346Zm-153.693 0q12.903 0 22.249-9.135 9.346-9.136 9.346-22.038 0-12.903-9.135-22.249-9.136-9.346-22.038-9.346-12.903 0-22.249 9.135-9.346 9.136-9.346 22.038 0 12.903 9.135 22.249 9.136 9.346 22.038 9.346Zm-153.692 0q12.903 0 22.249-9.135 9.346-9.136 9.346-22.038 0-12.903-9.135-22.249-9.136-9.346-22.039-9.346-12.902 0-22.248 9.135-9.346 9.136-9.346 22.038 0 12.903 9.135 22.249 9.136 9.346 22.038 9.346Z"/></svg>