<svg xmlns="http://www.w3.org/2000/svg" height="20" viewBox="0 -960 960 960" width="20"><path d="M110-110v-740h740v740H110Zm118-118h504v-504H228v504Zm0 0v-504 504Zm98.789-361q18.611 0 31.411-12.589 12.8-12.59 12.8-31.2 0-18.611-12.589-31.411-12.59-12.8-31.2-12.8-18.611 0-31.411 12.589-12.8 12.59-12.8 31.2 0 18.611 12.589 31.411 12.59 12.8 31.2 12.8Zm153 0q18.611 0 31.411-12.589 12.8-12.59 12.8-31.2 0-18.611-12.589-31.411-12.59-12.8-31.2-12.8-18.611 0-31.411 12.589-12.8 12.59-12.8 31.2 0 18.611 12.589 31.411 12.59 12.8 31.2 12.8Zm153 0q18.611 0 31.411-12.589 12.8-12.59 12.8-31.2 0-18.611-12.589-31.411-12.59-12.8-31.2-12.8-18.611 0-31.411 12.589-12.8 12.59-12.8 31.2 0 18.611 12.589 31.411 12.59 12.8 31.2 12.8Zm0 165q18.611 0 31.411-12.589 12.8-12.59 12.8-31.2 0-18.611-12.589-31.411-12.59-12.8-31.2-12.8-18.611 0-31.411 12.589-12.8 12.59-12.8 31.2 0 18.611 12.589 31.411 12.59 12.8 31.2 12.8Zm-153 0q18.611 0 31.411-12.589 12.8-12.59 12.8-31.2 0-18.611-12.589-31.411-12.59-12.8-31.2-12.8-18.611 0-31.411 12.589-12.8 12.59-12.8 31.2 0 18.611 12.589 31.411 12.59 12.8 31.2 12.8Zm-153 0q18.611 0 31.411-12.589 12.8-12.59 12.8-31.2 0-18.611-12.589-31.411-12.59-12.8-31.2-12.8-18.611 0-31.411 12.589-12.8 12.59-12.8 31.2 0 18.611 12.589 31.411 12.59 12.8 31.2 12.8Z"/></svg>