<svg xmlns="http://www.w3.org/2000/svg" height="20" viewBox="0 -960 960 960" width="20"><path d="M412-264q20.846 0 36.423-15.152Q464-294.304 464-316q0-56.077-26.423-98.577T360-489.385V-316q0 21.696 15.577 36.848Q391.154-264 412-264Zm136.105 0q21.741 0 36.818-15.577Q600-295.154 600-316v-173.385q-51.154 32.308-77.577 75.433Q496-370.827 496-316q0 21.696 15.182 36.848Q526.364-264 548.105-264Zm-337.028-82v-365.077q-23.923-22.308-43.693-47.808-19.769-25.5-34.665-53.961-2.873-6-.719-12.347 2.154-6.346 8.461-9.269 7.077-2.923 13.654 1.154t10.44 11.78q48.368 86.22 132.218 139.412 83.85 53.193 183.227 53.193 99.637 0 183.895-53.462 84.259-53.461 131.566-139.846 3.385-7.077 10.577-11.615 7.193-4.539 13.925-1.616 5.114 2.154 7.922 7.962 2.807 5.808-.546 12.326-15.416 28.712-35.124 54.866-19.708 26.154-43.292 48.231V-346q0 48.385 19.693 92 19.692 43.615 54.538 74.923 4.846 7.154 4.539 14.731-.308 7.577-6 12.751-5.693 4.441-13.654 2.711-7.962-1.731-12.039-8.654-36.538-37.693-57.808-86.423Q716.923-292.692 716.923-346v-335q-49.461 39.538-110.577 61.808Q545.231-596.923 480-596.923t-125.962-21.769q-60.73-21.77-110.961-61.308v334q0 53.308-20.385 102.539-20.384 49.23-57.692 85.923-4.077 6.923-12.923 8.654-8.846 1.73-14.539-2.711-5.692-5.174-6-12.751-.307-7.577 4.539-14.731 34.846-32.077 54.923-75.308 20.077-43.23 20.077-91.615ZM412-232q-35.192 0-59.596-24.404Q328-280.808 328-316v-202.923q0-8.707 6.769-13.7 6.769-4.993 16.154-.762l4.077 3.231q45.923 19.846 77.038 51.654 31.116 31.807 47.962 72.807 16.077-41 47.577-71.653Q559.077-508 605-530.154l4.077-3.231q9.385-4.231 16.154.762t6.769 13.7V-316q0 35.192-24.404 59.596Q583.192-232 548-232q-21.461 0-38.935-9.269-17.473-9.269-29.065-24.808-11.592 15.539-29.065 24.808Q433.461-232 412-232Zm136-84Zm-136 0Z"/></svg>