<svg xmlns="http://www.w3.org/2000/svg" height="20" viewBox="0 -960 960 960" width="20"><path d="M737.756-416.479h-37.813q-15.349 0-25.733-10.35-10.383-10.35-10.383-25.65 0-15.3 10.383-25.65 10.384-10.35 25.733-10.35h37.813v-37.695q0-15.3 10.383-25.65 10.384-10.35 25.594-10.35 15.211 0 25.5 10.35 10.29 10.35 10.29 25.65v37.695h37.485q15.21 0 25.71 10.29 10.5 10.289 10.5 25.5 0 15.21-10.35 25.594-10.35 10.383-25.65 10.383h-37.695v37.813q0 15.349-10.35 25.733-10.35 10.383-25.65 10.383-15 0-25.384-10.35-10.383-10.35-10.383-25.65v-37.696ZM516.13-709.52Q470.435-664.477 446-604.738q-24.434 59.739-24.434 124.999 0 82.786 38.674 155.11 38.673 72.324 108.586 118.628 17.522 11.055 24.435 30.031t-3.348 37.212q-10.856 18.606-31.21 23.4-20.355 4.793-38.443-6.359-92.13-59.5-144.413-153.923-52.282-94.424-52.282-204.664 0-86.174 33.673-165.261 33.674-79.087 95.152-139.652h-80.955q-20.387 0-34.694-14.246-14.307-14.246-14.307-34.544 0-20.298 14.307-34.755 14.307-14.456 34.694-14.456H565.13q20.388 0 34.694 14.306 14.307 14.307 14.307 34.694v193.696q0 20.387-14.246 34.694-14.246 14.307-34.544 14.307-20.298 0-34.754-14.307-14.457-14.307-14.457-34.694v-68.998Z"/></svg>