<svg xmlns="http://www.w3.org/2000/svg" height="24" viewBox="0 -960 960 960" width="24"><path d="M720-420h-60q-8.5 0-14.25-5.758-5.75-5.757-5.75-14.269t5.75-14.242Q651.5-460 660-460h60v-60q0-8.5 5.758-14.25t14.269-5.75q8.512 0 14.242 5.75Q760-528.5 760-520v60h60q8.5 0 14.25 5.758 5.75 5.757 5.75 14.269t-5.75 14.242Q828.5-420 820-420h-60v60q0 8.5-5.758 14.25-5.757 5.75-14.269 5.75-8.511 0-14.242-5.75Q720-351.5 720-360v-60ZM541.538-776.461q-75.461 48.692-117.73 126.807-42.269 78.116-42.269 167.962 0 96.384 48.5 178.961 48.5 82.577 132.653 129.808 7.97 4.673 11.1 12.721 3.131 8.048-1.023 15.741-4.154 7.692-12.615 9.73-8.462 2.039-16.308-2.115-94.154-52.846-148.231-144.423t-54.077-199.654q0-95.615 44.077-179.808Q429.692-744.923 508-800H358.462q-8.501 0-14.251-5.758t-5.75-14.269q0-8.512 5.75-14.242 5.75-5.731 14.251-5.731h190.769q13.731 0 23.019 9.288 9.289 9.289 9.289 23.019v190.77q0 8.5-5.758 14.25t-14.27 5.75q-8.511 0-14.242-5.75-5.731-5.75-5.731-14.25v-159.538Z"/></svg>