<svg xmlns="http://www.w3.org/2000/svg" height="20" viewBox="0 -960 960 960" width="20"><path d="M480.225-167.077q-24.071 0-40.917-16.621-16.847-16.621-16.847-40.692 0-24.072 16.621-40.918t40.693-16.846q24.071 0 40.918 16.621 16.846 16.621 16.846 40.692 0 24.072-16.621 40.918t-40.693 16.846ZM479.952-480q-64.295 0-122.239 21.615-57.944 21.616-105.021 61.077-7 4.846-14.457 5.158-7.457.312-12.697-5.411-5.538-4.901-3.654-12.593 1.885-7.692 7.885-12.769 51.616-42.77 114.731-67.154 63.115-24.385 135.5-24.385 72.385 0 135.5 24 63.115 24 114.731 66.769 6 5.077 7.5 12.701 1.5 7.623-3.269 12.53-5.539 5.539-12.847 5.77-7.307.23-14.307-4.616-47.077-39.461-105.069-61.077Q544.247-480 479.952-480Z"/></svg>