<svg xmlns="http://www.w3.org/2000/svg" height="20" viewBox="0 -960 960 960" width="20"><path d="M486-170q10 0 20-4t17-11l286-287q14-14 23-28t9-32.75q0-18.667-9-36.458Q823-587 809-602L649-763q-16-14-30.389-21.5T586-792q-25 0-43 13.5T508-747l-31 31 75 71q12 13 20 28.5t8 32.5q0 26-17.5 43.5T519.121-523q-12.99 0-25.555-4Q481-531 470-542l-84-85-152 152q-7 8-11 17.737-4 9.737-4 19.579Q219-420 230.25-409.5t28.917 10.5q9.833 0 19.333-4 9.5-4 17.5-11l107-106 14 14-108 107q-8 8-11.5 17.677-3.5 9.678-3.5 19.452 0 16.548 11.571 28.21Q317.143-322 334.048-322 344-322 354-326q10-4 17-11l119-120 15 15-120 118q-7 8-11 18.25t-4 20q0 16.5 11.571 28.125Q393.143-246 410.048-246 420-246 430-250q10-4 17-11l119-120 15 15-119 118q-7 8-11 18.921t-4 19.974Q447-191 458.5-180.5T486-170Zm0 18q-29 0-47.5-22T426-227q-33 4-56-17t-20-58.128Q312-300 290-321t-16-57q-31 5-53-11.5t-22-48.19q0-13.31 5-26.81 5-13.5 16-24.5l166-166 96 96q8 7 16.5 11t20.14 4q15.44 0 27.4-11.5Q558-567 558-584.286q0-11.571-4.5-20.643Q549-614 543-621L401-763q-16-15-31.05-22t-33.45-7q-18.5 0-32 7.5T276-763L147.78-635.715Q133-621 125-600q-8 21-6 44 2 10 5 17.5t6 15.5l-17 16q-4.394-8.692-7.697-21.346T100-556q-2-28 6.5-52.5T134-651l127-127q16-17 34.5-25.5T338-812q24 0 42 8.5t35 25.5l47 47 47-48q16-17 34-25.5t42-8.5q24 0 42 8.5t35 25.5l161 161q17 17 27 37.5t10 44.5q0 24-10 42t-27 35L537-172q-12 12-24.526 16-12.527 4-26.474 4ZM292-611Z"/></svg>