<svg xmlns="http://www.w3.org/2000/svg" height="24" viewBox="0 -960 960 960" width="24"><path d="M477.846-125.77q-15.846 0-27.154-10.73-11.308-10.731-11.308-27.346 0-7.385 3.193-15.847 3.192-8.461 9.577-14.846l166.152-166.152-25.538-25.539-165.537 166.153q-6.385 6.384-14.154 9.577-7.77 3.192-16.154 3.192-16.231 0-27.346-11.115-11.116-11.116-11.116-27.346 0-9.616 3.385-17.27t8.769-13.038L536.768-442.23l-24.923-24.922-166.152 165.537q-6 6-13.962 9.384-7.962 3.385-16.962 3.385-15.615 0-27.038-11.423t-11.423-27.038q0-8.385 3.192-16.154 3.193-7.77 9.577-14.154l161.537-161.537-25.538-24.923-160.922 161.537q-5.384 5.384-13.346 8.769t-17.577 3.385q-16.615 0-27.538-10.923-10.923-10.923-10.923-27.539 0-8.384 3.192-16.154 3.192-7.769 9.577-14.154L417.846-649.46 535.92-530.77q11 11 25.423 16.538 14.423 5.538 29.039 5.538 30.461 0 52.153-20.769t21.692-53.076q0-14-5.192-28.616-5.192-14.615-17.423-26.846L499.153-780.46l19.617-19.616q15.077-14.462 34.923-22.385 19.846-7.923 39.692-7.923 22.923 0 43.384 7.923 20.462 7.923 36.154 23.615l170.154 170.77q15.307 15.307 23.23 35.384 7.923 20.077 7.923 45.615 0 20-8.23 39.154-8.231 19.153-22.923 33.845L508.154-138.539q-7.231 7.231-14.577 10-7.347 2.769-15.731 2.769ZM154.463-436.538l-33.693-33.693q-17-16.385-25.808-39.154-8.808-22.769-8.808-46 0-24.846 8.846-45.5T117.308-635l163.23-163.846q14.462-14.461 33.384-23 18.923-8.538 38.769-8.538 23.539 0 42.423 7.308 18.885 7.307 35.807 24.23l185.768 185.768q6 6 9.385 13.962 3.384 7.961 3.384 15.961 0 16-11.23 27.423-11.231 11.423-27.231 11.423-9 0-16.154-2.884-7.154-2.885-14.154-9.885L417.23-699.306 154.463-436.538Z"/></svg>