<svg xmlns="http://www.w3.org/2000/svg" height="20" viewBox="0 -960 960 960" width="20"><path d="M771.348-80.913 668.63-183.869H240q-83.109 0-141.261-58.153-58.152-58.152-58.152-141.261 0-76.956 52.598-134.228 52.597-57.272 128.793-62.511 2.522-9.565 5.304-19.326 2.783-9.761 7.305-18.087L83.065-769.196l53.631-53.391 688.282 688.283-53.63 53.391Zm73.674-135.109L331.978-729.304q32-20.957 69.533-33.174 37.532-12.218 78.489-12.218 104.196 0 181.75 69.859t89.185 171.815q70.717 2.631 119.598 52.946 48.88 50.315 48.88 121.511 0 44.435-20.576 82.109-20.576 37.674-53.815 60.434Z"/></svg>