<svg xmlns="http://www.w3.org/2000/svg" height="20" viewBox="0 -960 960 960" width="20"><path d="M782-52 677.211-158H240q-93.255 0-158.127-64.873Q17-287.745 17-381q0-80 54.5-144.5T206-596q1.333-4.783 1.667-13.891Q208-619 211-622L61-773l62-61 721 721-62 61ZM240-276h319L312-523q-2 8-5 16.984-3 8.984-7 17.016l-68 4q-41.786 4-69.393 33.33T135-380.848q0 43.562 30.75 74.205T240-276Zm195-124Zm426 203-85-85q21-12 35-31.552t14-43.86q0-32.908-23.84-56.748Q777.32-438 744-438h-81l-6-80q-7-67.775-57.612-113.888Q548.775-678 479.781-678q-24.469 0-43.625 6.5T401-658l-85-85q32-24 76.146-38.5Q436.293-796 480-796q108 0 190.5 71T773-549q73 11 121.5 65.5T943-354q0 49-24 92t-58 65ZM589-471Z"/></svg>