<svg xmlns="http://www.w3.org/2000/svg" height="20" viewBox="0 -960 960 960" width="20"><path d="M300-228h360q-6-42-28.5-76T573-360l31.1-53.222Q606-418 605-422q-1-4-5.444-6-4.556-2-9.056-1.5-4.5.5-6.402 5.284L552-370q-16-8-34.524-11.5-18.525-3.5-37.5-3.5-18.976 0-37.476 3.5T408-370l-32-54q-2-4-7-5.5t-9 1.5q-4 3-4 15l31 53q-36 21-58.643 55.496T300-228Zm101-50q-8 0-12-4.7t-4-12.3q0-7.6 4-12.3 4-4.7 12-4.7t12.5 4.7q4.5 4.7 4.5 12.3 0 7.6-4.7 12.3-4.7 4.7-12.3 4.7Zm158 0q-8 0-12.5-4.7T542-295q0-7.6 4.7-12.3 4.7-4.7 12.3-4.7 8 0 12 4.7t4 12.3q0 7.6-4 12.3-4 4.7-12 4.7ZM158-62v-836h432l212 212.4V-62H158Zm358-550h168L516-780v168Z"/></svg>