<svg xmlns="http://www.w3.org/2000/svg" height="20" viewBox="0 -960 960 960" width="20"><path d="M294.783-222.783h370.434q-6-43.304-29.369-78.391-23.37-35.087-60.239-57.522l31.926-54.864q1.943-4.875 1.16-9.31-.782-4.434-5.968-6.434-4.149-2-8.816-1.283-4.668.717-6.813 5.595l-33.297 55.862q-16.497-8-35.214-11.718-18.716-3.717-38.369-3.717t-38.588 3.717q-18.934 3.718-35.431 11.718l-33.242-55.74q-2-4.434-7-5.717-5-1.283-9.435 1.717-3.565 2.566-4 15.435l31.869 54.739q-36.869 21.435-60.319 57.02-23.451 35.584-29.289 78.893Zm104.043-51.739q-8 0-12.435-4.83-4.434-4.831-4.434-12.605t4.434-12.604q4.435-4.83 12.435-4.83t12.718 4.83q4.717 4.83 4.717 12.604 0 7.774-4.83 12.605-4.831 4.83-12.605 4.83Zm162.348 0q-8 0-12.718-4.83-4.717-4.831-4.717-12.605t4.83-12.604q4.831-4.83 12.605-4.83 8 0 12.435 4.83 4.434 4.83 4.434 12.604 0 7.774-4.434 12.605-4.435 4.83-12.435 4.83ZM172.782-76.782v-806.436h411.131l203.305 203.531v602.905H172.782Zm348.435-540.435v-168H270.783v610.434h418.434v-442.434h-168Zm-250.434-168v189-189 610.434-610.434Z"/></svg>