<svg xmlns="http://www.w3.org/2000/svg" height="24" viewBox="0 -960 960 960" width="24"><path d="M560.565-681.13H427.913q-28.768 0-48.906-20.177-20.137-20.177-20.137-49 0-28.824 20.137-48.868 20.138-20.043 48.906-20.043h402.261q28.769 0 48.907 20.176 20.137 20.177 20.137 49.001 0 28.823-20.137 48.867-20.138 20.044-48.907 20.044H698.088v471.87q0 28.956-19.761 48.717t-48.585 19.761q-28.824 0-49-20.137-20.177-20.138-20.177-48.907V-681.13ZM181.347-463.043H129.26q-28.956 0-48.717-20.176-19.761-20.177-19.761-49.001 0-28.823 19.76-48.584 19.762-19.761 48.718-19.761h241.696q28.957 0 48.718 19.761 19.761 19.761 19.761 48.584 0 28.824-19.761 49.001-19.761 20.176-48.718 20.176H318.87v253.783q0 28.956-19.761 48.717t-48.585 19.761q-28.824 0-49.001-20.137-20.176-20.138-20.176-48.907v-253.217Z"/></svg>