<svg xmlns="http://www.w3.org/2000/svg" height="24" viewBox="0 -960 960 960" width="24"><path d="M495.391-293.001q77.913 0 132.457-54.543Q682.391-402.087 682.391-480q0-77.913-54.543-132.456-54.544-54.543-132.457-54.543-17.725 0-34.644 3.369-16.92 3.37-33.529 9.543 48.913 25.566 77.022 72.305Q532.348-535.043 532.348-480T504.24-378.218q-28.109 46.739-77.022 72.305 16.609 6.173 33.529 9.543 16.919 3.369 34.644 3.369ZM480-19.521 343.396-153.868H153.782v-189.306L19.522-480l134.346-136.84v-189.943h189.306L480-941.609l136.849 134.806h189.954v189.954L941.609-480 806.794-343.396v189.614H616.826L480-19.522Zm.565-461.044ZM480-167.697l92.02-91.854h128.828v-128.595L792.868-480l-92.02-92.02v-128.828H572.02L480-792.868l-91.854 92.02H259.551v128.828L167.697-480l92.087 92.087v128.129h128.129L480-167.697Z"/></svg>