<svg xmlns="http://www.w3.org/2000/svg" height="24" viewBox="0 -960 960 960" width="24"><path d="M815.999-670.769q0-77.615-53.776-131.423-53.777-53.807-131.454-53.807v-44q95.384 0 162.307 66.859 66.923 66.859 66.923 162.371h-44Zm-106 0q0-32.615-23.274-55.923-23.274-23.307-55.956-23.307v-44q51.153 0 86.576 35.731 35.423 35.731 36.654 87.499h-44ZM480-275.386q68.846 0 116.73-47.884T644.614-440q0-68.846-47.884-116.73T480-604.614q-68.846 0-116.73 47.884T315.386-440q0 68.846 47.884 116.73T480-275.386Zm0-59.998q-44.308 0-74.462-30.154-30.154-30.154-30.154-74.462 0-44.308 30.154-74.462 30.154-30.154 74.462-30.154 44.308 0 74.462 30.154 30.154 30.154 30.154 74.462 0 44.308-30.154 74.462-30.154 30.154-74.462 30.154ZM100.001-140.001v-599.998h194.461l74-80h222.307v110q32.682 0 55.956 23.274t23.274 55.956h190v490.768H100.001Z"/></svg>