<svg xmlns="http://www.w3.org/2000/svg" height="20" viewBox="0 -960 960 960" width="20"><path d="M480-433Zm325.999-229.769q0-79.615-55.776-135.423-55.777-55.807-135.454-55.807v-38q95.384 0 162.307 66.859 66.923 66.859 66.923 162.371h-38Zm-96 0q0-39.615-27.974-67.423-27.974-27.807-67.256-27.807v-38q56.153 0 94.576 38.731 38.423 38.731 38.654 94.499h-38ZM116.001-164.001v-535.998h180.461l72-96h198.307V-744H395.615l-72.384 96H168v432h624v-398.769h51.999v450.768H116.001ZM480-279.386q65.846 0 109.23-44.384T632.614-432q0-62.846-43.384-107.73-43.384-44.884-109.23-44.884T370.77-539.73q-43.384 44.884-43.384 108.23 0 63.346 43.384 107.73 43.384 44.384 109.23 44.384Zm0-51.998q-44.308 0-72.462-29.284-28.154-29.284-28.154-72.332 0-42.208 28.154-70.912 28.154-28.704 72.462-28.704 44.308 0 72.462 28.704 28.154 28.704 28.154 70.912 0 43.048-28.154 72.332-28.154 29.284-72.462 29.284Z"/></svg>