<svg xmlns="http://www.w3.org/2000/svg" height="24" viewBox="0 -960 960 960" width="24"><path d="M480-440Zm326-221.539q0-77.23-53.553-130.846Q698.893-846 621.539-846v-34q90.769 0 154.615 63.718Q840-752.564 840-661.539h-34Zm-106 0q0-32.23-23.048-55.346Q653.904-740 621.539-740v-34q47.307 0 79.654 32.461 32.346 32.462 32.807 80h-34ZM120-160v-560h182.923l74-80h204.616v40H394.231l-73.769 80H160v480h640v-421.539h40V-160H120Zm360-130.769q62.692 0 105.962-43.269 43.269-43.27 43.269-105.962t-43.269-105.962Q542.692-589.231 480-589.231t-105.962 43.269Q330.769-502.692 330.769-440t43.269 105.962q43.27 43.269 105.962 43.269Zm0-40q-46.615 0-77.923-31.308T370.769-440q0-46.615 31.308-77.923T480-549.231q46.615 0 77.923 31.308T589.231-440q0 46.615-31.308 77.923T480-330.769Z"/></svg>