<svg xmlns="http://www.w3.org/2000/svg" height="20" viewBox="0 -960 960 960" width="20"><path d="M819.348-669.848q0-82.152-57.674-139.826Q704-867.348 621.848-867.348v-52.783q104.284 0 177.283 73 73 72.999 73 177.283h-52.783Zm-101.5 0q0-40-28.2-68t-67.8-28v-52.782q62.152 0 105.206 43.434 43.055 43.435 43.576 105.348h-52.782ZM479.944-262.087q72.773 0 121.371-49.541 48.598-49.542 48.598-120.316 0-69.773-48.541-119.871-48.542-50.098-121.316-50.098-72.773 0-121.371 50.041-48.598 50.042-48.598 120.316 0 70.273 48.541 119.871 48.542 49.598 121.316 49.598Zm.056-78.217q-40.326 0-66.011-25.685-25.685-25.685-25.685-64.511 0-38.826 25.685-66.011 25.685-27.185 66.011-27.185 40.326 0 66.011 27.185 25.685 27.185 25.685 66.011 0 38.826-25.685 64.511-25.685 25.685-66.011 25.685ZM87.87-135.869v-592.262h195.826l75.347-96h214.805v106.283q39.6 0 67.8 28.2 28.2 28.2 28.2 67.8h202.283v485.979H87.869Z"/></svg>