<svg xmlns="http://www.w3.org/2000/svg" height="24" viewBox="0 -960 960 960" width="24"><path d="M704.615-524.615v-54.154L670-544.154 648.154-566l56.461-56.462v-42.153h-42.153L606-608.154 584.154-630l34.615-34.615h-54.154v-30.77h54.154L584.154-730 606-751.846l56.462 55.692h42.153v-41.384L648.154-794 670-815.846l34.615 34.615v-54.154h30.77v54.154L770-815.846 791.846-794l-56.461 56.462v42.153h42.153L834-751.846 855.846-730l-34.615 34.615h54.154v30.77h-54.154L855.846-630 834-608.154l-56.462-56.461h-42.153v42.153L791.846-566 770-544.154l-34.615-34.615v54.154h-30.77Zm-99.076 183.154L560-387v187H240v-188l-37.846 37.846-27.539-27.538L400-603.077 633.077-370l-27.538 28.539ZM280-240h100v-100h40v100h100v-187L400-547 280-427.769V-240Zm0 0h240-240Z"/></svg>