<svg xmlns="http://www.w3.org/2000/svg" height="20" viewBox="0 -960 960 960" width="20"><path d="M526-164q-6.8 0-11.4-4.547-4.6-4.547-4.6-11.269 0-6.723 4.6-11.453Q519.2-196 526-196h189.077L561.538-304.154q-5.198-2.934-6.983-9.082-1.786-6.149 1.745-12.447 3.531-6.298 9.808-7.423 6.277-1.125 11.354 2.26l156.307 107.153-66.308-177.23q-1.923-5.539 2-12.116 3.924-6.576 9.462-8.5 5.539-1.923 12.616 1.5 7.076 3.424 9 8.962l61.769 177.23 50.923-180.768q1.692-5.539 7.269-9.693t11.115-2.461q5.539 1.692 9.693 7.269t2.461 11.115l-62 232q-1.461 5.077-6.154 8.731Q770.923-164 766-164H526Zm-242-48q-6.8 0-11.4-4.547-4.6-4.547-4.6-11.269 0-6.723 4.6-11.453Q277.2-244 284-244h167.692Q456-235.404 460-226.817q4 8.586 9.692 14.817H284Zm0-168q-6.8 0-11.4-4.547-4.6-4.547-4.6-11.269 0-6.723 4.669-11.453 4.67-4.731 11.572-4.731h202.913q-.462 9.308-1.5 16.808-1.039 7.5-2.423 15.192H284Zm0-168q-6.8 0-11.4-4.547-4.6-4.547-4.6-11.269 0-6.723 4.6-11.453Q277.2-580 284-580h496q6.8 0 11.4 4.547 4.6 4.547 4.6 11.269 0 6.723-4.6 11.453Q786.8-548 780-548H284Zm0-168q-6.8 0-11.4-4.547-4.6-4.547-4.6-11.269 0-6.723 4.6-11.453Q277.2-748 284-748h496q6.8 0 11.4 4.547 4.6 4.547 4.6 11.269 0 6.723-4.6 11.453Q786.8-716 780-716H284Zm-103.816 0q-6.723 0-11.453-4.547Q164-725.094 164-731.816q0-6.723 4.547-11.453Q173.094-748 179.816-748q6.723 0 11.453 4.547Q196-738.906 196-732.184q0 6.723-4.547 11.453Q186.906-716 180.184-716Zm0 168q-6.723 0-11.453-4.547Q164-557.094 164-563.816q0-6.723 4.547-11.453Q173.094-580 179.816-580q6.723 0 11.453 4.547Q196-570.906 196-564.184q0 6.723-4.547 11.453Q186.906-548 180.184-548Zm0 168q-6.723 0-11.453-4.547Q164-389.094 164-395.816q0-6.723 4.547-11.453Q173.094-412 179.816-412q6.723 0 11.453 4.547Q196-402.906 196-396.184q0 6.723-4.547 11.453Q186.906-380 180.184-380Zm0 168q-6.723 0-11.453-4.547Q164-221.094 164-227.816q0-6.723 4.547-11.453Q173.094-244 179.816-244q6.723 0 11.453 4.547Q196-234.906 196-228.184q0 6.723-4.547 11.453Q186.906-212 180.184-212Z"/></svg>