<svg xmlns="http://www.w3.org/2000/svg" height="24" viewBox="0 -960 960 960" width="24"><path d="m263.26-262.695-101.695-56.696q-14.957-8.261-17.022-24.848-2.066-16.587 9.326-27.979l15.957-15.956q5.695-5.696 13.456-8.044 7.761-2.348 15.588-.783l83.478 12.566 141.868-141.869L160.13-670.913q-19.522-10.826-22.87-33.196-3.348-22.37 12.609-38.326l12.826-12.827q9.261-9.261 20.587-12.108 11.327-2.848 23.153.282l363 94.696 125.346-125.042q20.957-20.957 51.544-20.957 30.587 0 51.544 20.957 20.957 20.957 20.957 51.544 0 30.587-20.957 51.544L672.957-568.87l94.131 360.435q3.13 12.826-.218 25.718-3.347 12.891-12.608 22.152l-6.696 6.131q-17.957 17.957-42.675 14.391-24.717-3.565-36.543-25.652L526.87-423.651 385.001-281.782l12.565 80.347q1.565 9.826-1.565 18.935-3.131 9.109-9.827 15.805l-7.261 7.261q-13.956 13.957-33.609 11.326-19.652-2.63-29.478-20.152l-52.566-94.435Z"/></svg>