<svg xmlns="http://www.w3.org/2000/svg" height="24" viewBox="0 -960 960 960" width="24"><path d="M575.536-502.308q-15.767 0-26.805-10.886-11.039-10.887-11.039-26.654t10.887-26.806q10.887-11.038 26.654-11.038t26.806 10.886q11.038 10.887 11.038 26.654t-10.887 26.806q-10.887 11.038-26.654 11.038Zm-190.769 0q-15.767 0-26.806-10.886-11.038-10.887-11.038-26.654t10.887-26.806q10.887-11.038 26.654-11.038t26.805 10.886q11.039 10.887 11.039 26.654t-10.887 26.806q-10.887 11.038-26.654 11.038ZM480-310.769q-48.462 0-88.885-24.154T326.154-400h307.692q-24.538 40.923-64.961 65.077-40.423 24.154-88.885 24.154ZM480.044-160q-66.583 0-124.775-25.038-58.192-25.039-101.692-68.539-43.5-43.5-68.539-101.648Q160-413.374 160-479.956q0-66.583 25.038-124.775 25.039-58.192 68.539-101.692 43.5-43.5 101.648-68.539Q413.374-800 479.956-800q66.583 0 124.775 25.038 58.192 25.039 101.692 68.539 43.5 43.5 68.539 101.648Q800-546.626 800-480.044q0 66.583-25.038 124.775-25.039 58.192-68.539 101.692-43.5 43.5-101.648 68.539Q546.626-160 480.044-160ZM480-200q116 0 198-82t82-198q0-116-82-198t-198-82q-10.872 0-21.744.769-10.871.769-20.717 2.769-2.924 7.539-3.385 13-.462 5.462-.462 13.462 0 25.615 18.347 43.961 18.346 18.347 44.192 18.347 11.077 0 17.423-3 6.346-3 14.346-3 6.725 0 11.209 5.342 4.483 5.343 4.483 12.466 0 13.653-15.346 18.615Q513-632.308 496-632.308q-40.385 0-69.039-28.653-28.653-28.654-28.653-69.039v-8.168q0-3.629 1.769-9.678-86.846 25.385-143.462 98.308Q200-576.615 200-480q0 116 82 198t198 82Zm0-280Z"/></svg>