<svg xmlns="http://www.w3.org/2000/svg" height="24" viewBox="0 -960 960 960" width="24"><path d="M480.174-132Q408-132 344.442-159.391q-63.559-27.392-110.575-74.348-47.015-46.957-74.441-110.435Q132-407.652 132-479.826q0-72.174 27.391-135.732 27.392-63.559 74.348-110.574 46.957-47.016 110.435-74.442Q407.652-828 479.826-828q72.174 0 135.732 27.391 63.559 27.392 110.574 74.348 47.016 46.957 74.442 110.435Q828-552.348 828-480.174q0 72.174-27.391 135.732-27.392 63.559-74.348 110.575-46.957 47.015-110.435 74.441Q552.348-132 480.174-132ZM364-182l76-172q-30.175-10.385-52.087-32.192Q366-408 356-438l-176 72q24 64 72 112t112 72Zm-8-340q8-30 30.5-50.5T438-604l-72-176q-65 25-113 73t-73 113l176 72Zm123.765 146Q523-376 553.5-406.265q30.5-30.264 30.5-73.5Q584-523 553.735-553.5q-30.264-30.5-73.5-30.5Q437-584 406.5-553.735q-30.5 30.264-30.5 73.5Q376-437 406.265-406.5q30.264 30.5 73.5 30.5ZM596-182q63-24 110.5-71.5T778-364l-172-76q-9 29-31 51t-51 33l72 174Zm8-342 174-72q-24-63-71.5-110.5T596-778l-72 174q27 12 48 32t32 48Z"/></svg>