<svg xmlns="http://www.w3.org/2000/svg" height="24" viewBox="0 -960 960 960" width="24"><path d="M680.412-332q-9.412 0-17.912 4.5Q654-323 649-315q-5 6-11.5 8t-13.559-1Q616-311 613-318q-3-7 1.098-13.37 10.656-16.723 28.279-26.676Q660-368 680.222-368 709-368 731-348.857T753-301q0 8-2 16t-6.941 14.667Q735-257 723.5-247.5 712-238 704-224q-2 3-4 11-1.6 7.917-6.8 13.458Q688-194 680-194q-8 0-14-5.682t-5-13.257Q662-219 663-225t4-11q8-13.656 20.4-23.295 12.4-9.639 21.2-22.492 2.4-3.213 6.4-18.61 0-13.775-10.627-22.689Q693.745-332 680.412-332ZM680-112q-11.118 0-19.059-7.773Q653-127.545 653-139q0-10.706 7.917-18.353 7.916-7.647 19-7.647Q691-165 699-157.292q8 7.709 8 18.5Q707-128 699.227-120q-7.772 8-19.227 8Zm-324-20q-12.75 0-21.375-8.625T326-162v-583q0-12.75 8.625-21.375T356-775h60v-23q0-12.75 8.625-21.375T446-828h68q12.75 0 21.375 8.625T544-798v23h60.206q12.794 0 21.294 8.625T634-745v275q-81 14-135.5 77.5T444-243q0 30 7 58t21 53H356Z"/></svg>