<svg xmlns="http://www.w3.org/2000/svg" height="24" viewBox="0 -960 960 960" width="24"><path d="M677-379q-14 0-26 7t-20.077 17.588Q624-345 613.5-341q-10.5 4-21.5-1t-16-15.5q-5-10.5 1.111-20.431Q593-404 619.523-419q26.524-15 57.87-15Q722-434 755-404.947q33 29.052 33 72.631Q788-319 785-308q-3 11-11 22-14 20-32 35.5T713-215q-3 5-5 16-2.48 12.083-10.54 20.542Q689.4-170 677-170q-13.391 0-21.696-8.864Q647-187.727 648-199.545q1-9.455 3-17.955 2-8.5 6.857-16.958Q670-255 688.5-269t32.5-34q3-4 9-28 0-20-16.023-34-16.024-14-36.977-14Zm-.021 333Q660-46 648-57.803T636-87q0-17 12.083-28.5 12.084-11.5 29-11.5Q694-127 705.5-115.5T717-87q0 17-11.521 29-11.522 12-28.5 12ZM365-172ZM302-46q-26 0-44.5-18.5T239-109v-662q0-26 18.5-44.5T302-834h75v-17q0-26 18.5-44.5T440-914h80q26 0 44.5 18.5T583-851v17h75q26 0 44.5 18.5T721-771v260q-32-5-64-2.5T595-501v-207H365v536h50q10 37 28 68.5T487-46H302Z"/></svg>