<svg xmlns="http://www.w3.org/2000/svg" height="20" viewBox="0 -960 960 960" width="20"><path d="M673.244-326.077q-9.354 0-17.567 4.181-8.213 4.181-13.292 11.511-5 5.462-9.693 7.193-4.692 1.73-11.968-.5-7.186-3.231-10.916-9.308-3.731-6.077.575-11.593 10.197-16.709 27.215-25.75 17.017-9.042 35.573-9.042 27.675 0 46.944 17.738 19.27 17.737 19.27 44.343 0 7.535-1.84 14.776-1.839 7.242-6.242 13.286-8.072 12.088-18.38 21.28-10.308 9.193-17.538 19.885-4.539 6.539-4.231 12.692-1.559 7.565-6.626 12.859-5.066 5.295-12.316 5.295-7.359 0-12.862-5.192-5.504-5.192-4.504-12.115 1-5.539 1.616-12.154.615-6.616 3.846-11.077 6.461-12.428 18.543-21.248 12.082-8.821 20.657-20.581 2.338-2.941 6.338-18.169 0-11.52-9.675-19.915t-22.927-8.395Zm-1.435 205.462q-10.592 0-17.508-7.363-6.916-7.363-6.916-18.213 0-10.275 7.147-16.965 7.147-6.69 17.154-6.69 10.006 0 17.852 6.767 7.847 6.766 7.847 16.239 0 10.684-7.363 18.454-7.363 7.771-18.213 7.771ZM363.692-136q-17.131 0-28.719-11.588-11.589-11.589-11.589-28.719v-556.155q0-17.13 11.589-28.719 11.588-11.588 28.719-11.588h56.616v-10.924q0-17.13 11.588-28.719Q443.485-824 460.615-824h38.77q17.13 0 28.719 11.588 11.588 11.589 11.588 28.719v10.924h56.774q17.165 0 28.657 11.588 11.493 11.589 11.493 28.719v261.154h-1q-85.385 10-142.962 74.885-57.577 64.884-57.577 154.115 0 28.661 5.577 55.177T457.692-136h-94Z"/></svg>