<svg xmlns="http://www.w3.org/2000/svg" height="20" viewBox="0 -960 960 960" width="20"><path d="m616-377 51-51-84-84q8-15 12.5-30.78Q600-558.559 600-576q0-54-38.5-92.5t-94-38.5q-55.5 0-93.5 37.5t-38 93.239q0 55.738 38 94Q412-444 467-444q16 0 32-4t33-13l84 84ZM469-516q-24 0-42.5-17.885t-18.5-43Q408-602 426.5-619.5 445-637 469-637q25 0 42.5 18t17.5 42q0 24-17.625 42.5T469-516ZM30.477-116.303v-80.479h899.046v80.479H30.477Zm46.305-128.479v-590.436h806.436v590.436H76.782Zm98.001-98.001h610.434v-394.434H174.783v394.434Zm0 0v-394.434 394.434Z"/></svg>