<svg xmlns="http://www.w3.org/2000/svg" height="24" viewBox="0 -960 960 960" width="24"><path d="M431.521-120v-480H128.304q-19.522 0-25.501-18.239-5.978-18.24 9.979-29.631l336.305-239.305q14.391-10.261 30.913-10.261t30.913 10.261L847.218-647.87q15.957 11.391 9.979 29.631Q851.218-600 831.696-600H528.479v480q0 20.391-14.044 34.435Q500.391-71.52 480-71.52q-20.391 0-34.435-14.044Q431.521-99.609 431.521-120ZM85.52-120v-168.87l-25-136.434q-3.565-20.392 7.413-36.218 10.978-15.826 31.37-19.957 19.957-4.13 36.283 7.348 16.326 11.479 19.891 31.435l21.305 114.217h121.739q22.087 0 37.544 15.457 15.456 15.457 15.456 37.544V-120q0 20.391-14.043 34.435-14.044 14.044-34.435 14.044-20.392 0-34.718-14.326-14.326-14.327-14.326-34.718v-110.956h-71.522V-120q0 20.391-14.043 34.435Q154.39-71.52 133.999-71.52q-20.392 0-34.435-14.044Q85.52-99.609 85.52-120Zm522.959-.565v-154.913q0-22.087 15.456-37.544 15.457-15.457 37.544-15.457h121.739l21.305-114.217q3.565-19.956 19.674-31.435 16.109-11.478 36.5-7.348 20.392 4.131 31.37 19.957 10.978 15.826 7.413 36.218l-25 136.434V-120q0 20.391-14.044 34.435-14.043 14.044-34.435 14.044-20.391 0-34.435-14.044Q777.523-99.609 777.523-120v-111.521h-71.522V-120q0 20.391-14.043 34.435-14.044 14.044-34.435 14.044-20.392 0-34.718-14.326-14.326-14.327-14.326-34.718Z"/></svg>