<svg xmlns="http://www.w3.org/2000/svg" height="24" viewBox="0 -960 960 960" width="24"><path d="M520-153.848v-50.848q0-15.913 9.315-28.347 9.315-12.435 24.989-15.914L680-280l-125.696-31.043q-15.674-3.479-24.989-15.914Q520-339.391 520-355.304v-50.848q0-25.87 21.511-39.044 21.511-13.174 44.38-1.739l252.304 126.152q25.109 12.435 25.109 40.783t-25.109 40.783L585.891-113.065q-22.869 11.435-44.38-1.739Q520-127.978 520-153.848Zm-320 41.979q-36.348 0-62.239-25.892-25.892-25.891-25.892-62.239v-156.304q45.609 0 79.218-29.424 33.608-29.424 33.608-74.272 0-44.848-33.608-74.272-33.609-29.424-79.218-29.424V-720q0-36.348 25.892-62.239 25.891-25.892 62.239-25.892h153.065q2.631-43.434 33.305-72.554 30.673-29.12 73.63-29.12 42.957 0 73.63 29.12 30.674 29.12 33.305 72.554H720q36.348 0 62.239 25.892 25.892 25.891 25.892 62.239v293.826l-91.001-45.5V-717.13H480v-81.674q0-8-6-14t-14-6q-8 0-14 6t-6 14v81.674H202.87v84.652q51.13 22.63 82.097 69.272Q315.935-516.565 315.935-460q0 55.804-30.968 102.565Q254-310.674 202.87-287.283v84.413h82.608q17-44.282 57.402-76.587 40.403-32.304 97.12-38.065v91.479q-37.609 7.761-60.772 37.022-23.163 29.26-22.924 77.152H200Zm240-205.653q-56.717 5.761-97.12 38.065-40.402 32.305-57.402 76.587H202.87v-84.413q51.13-23.391 82.097-70.152Q315.935-404.196 315.935-460q0-56.565-30.968-103.206Q254-609.848 202.87-632.478v-84.652H440v-81.674q0-8 6-14t14-6q8 0 14 6t6 14v81.674h237.13v245.456l-145.347-72.674q-45.5-22.869-88.642 3.479Q440-514.521 440-463.304v145.782Z"/></svg>