<svg xmlns="http://www.w3.org/2000/svg" height="24" viewBox="0 -960 960 960" width="24"><path d="M165.385-176.154q-27.924 0-47.808-19.884-19.885-19.885-19.885-47.808v-40q0-27.923 19.885-47.808 19.884-19.885 47.808-19.885 27.923 0 47.807 19.885 19.885 19.885 19.885 47.808v40q0 27.923-19.885 47.808-19.884 19.884-47.807 19.884ZM842-167.692h-58.154q-8.461 0-12.923-6.116-4.462-6.115-2.462-14.269l9.462-34.538q2-5.693 7.231-9.424 5.231-3.73 10.923-2.5l50.154 7.231q11.692 2 18.884 9.808 7.193 7.808 7.193 19.115 0 12.923-9.077 21.808T842-167.692Zm-148.769-14.769-107.077-35.693q-6.462-2.393-9.693-8.773-3.23-6.381 0-12.842l26.924-61.308q3.23-6.462 9.807-8.808t13.039 1.116l89.846 52.154q5.231 2.23 6.962 7.077 1.73 4.846.5 10.307l-9.693 45.077q-2 7.231-7.692 10.577t-12.923 1.116Zm-186-70-74.923-19.231q-10.923-2.462-17.77-11.116-6.846-8.654-6.846-20.192v-37q0-18.385 5.693-35.692 5.692-17.308 19.307-28.539 5-4.538 11.923-4.654 6.923-.115 13.462 3.654l92 50.616q5.654 3.19 7.673 9.172 2.019 5.981-.211 11.443l-31.924 72.846q-2.398 5.532-7.593 8.112-5.196 2.581-10.791.581Zm-204.616-35.231q-5.692 0-10.342-4.5-4.651-4.5-5.581-11.5-7-47.308-42.801-75.654-35.8-28.346-83.891-28.346h-20q-5.692 0-9-3.308t-3.308-9q0-5.692 3.308-9t9-3.308h36q19.451 0 36.956-5 17.506-5 34.506-14.461 5.524-3 12.153-3 6.63 0 12.154 3 20 10.461 39.923 14.961 19.923 4.5 42.154 4.5 9.902 0 14.028 9.039 4.126 9.038-.797 17.961-8.231 14.77-11.5 31.539Q352.308-357 352.308-340v36.154q0 6.461-4.809 11.308-4.809 4.846-11.221 4.846h-33.663ZM177.231-489.231q-33.099 0-55.165-22.5Q100-534.231 100-566.343q0-14.881 5.461-28.979 5.462-14.098 16.385-25.063L180-677.769v-91.462h40v84q0 11.898-4.961 22.68-4.962 10.782-13.654 19.474l-50.231 52q-5.077 5.077-8.115 11.683Q140-572.789 140-566.183q0 15.414 10.882 26.183 10.883 10.769 26.118 10.769 10.308 0 30.077-13.615 11.692-9.693 24.796-16.039 13.103-6.346 28.192-6.346t28.618 6.218q13.53 6.218 25.009 16.167 7.077 5.307 14.154 9.461T343-529.231q15.235 0 26.118-10.961Q380-551.154 380-566.5q0-6.577-2.654-13.038-2.654-6.462-7.731-11.539l-51.769-52q-8.692-8.692-13.269-19.474T300-685.231v-84h40v91.462l58.154 57.384q10.923 11.15 16.385 25.086Q420-581.362 420-566.231q0 31.769-22.066 54.385-22.066 22.615-55.165 22.615-16.692 0-30.231-6.461-13.538-6.462-25.23-16.923-6.308-4.539-12.77-8.577-6.461-4.039-14.538-4.039-7.769 0-28.077 12.616-11.692 9.692-25.731 16.423-14.038 6.731-28.961 6.961Zm82.769-280Z"/></svg>