<svg xmlns="http://www.w3.org/2000/svg" height="24" viewBox="0 -960 960 960" width="24"><path d="M17.39-113.782v-278.87q0-22.087 15.457-37.544 15.457-15.456 37.544-15.456h156.608q22.088 0 37.544 15.456Q280-414.739 280-392.652v278.87q0 22.087-15.457 37.544-15.456 15.456-37.544 15.456H70.391q-22.087 0-37.544-15.456Q17.39-91.695 17.39-113.782Zm331.305 0v-278.87q0-22.087 15.457-37.544 15.457-15.456 37.544-15.456h156.608q22.087 0 37.544 15.456 15.457 15.457 15.457 37.544v278.87q0 22.087-15.457 37.544-15.457 15.456-37.544 15.456H401.696q-22.087 0-37.544-15.456-15.457-15.457-15.457-37.544Zm331.305 0v-278.87q0-22.087 15.457-37.544 15.456-15.456 37.544-15.456h156.608q22.087 0 37.544 15.456 15.457 15.457 15.457 37.544v278.87q0 22.087-15.457 37.544-15.457 15.456-37.544 15.456H733.001q-22.088 0-37.544-15.456Q680-91.695 680-113.782ZM449.044-161.13h61.912v-184.174h-61.912v184.174ZM17.39-567.348v-278.87q0-22.087 15.457-37.544 15.457-15.456 37.544-15.456h156.608q22.088 0 37.544 15.456Q280-868.305 280-846.218v278.87q0 22.087-15.457 37.544-15.456 15.456-37.544 15.456H70.391q-22.087 0-37.544-15.456-15.457-15.457-15.457-37.544Zm331.305 0v-278.87q0-22.087 15.457-37.544 15.457-15.456 37.544-15.456h156.608q22.087 0 37.544 15.456 15.457 15.457 15.457 37.544v278.87q0 22.087-15.457 37.544-15.457 15.456-37.544 15.456H401.696q-22.087 0-37.544-15.456-15.457-15.457-15.457-37.544Zm331.305 0v-278.87q0-22.087 15.457-37.544 15.456-15.456 37.544-15.456h156.608q22.087 0 37.544 15.456 15.457 15.457 15.457 37.544v278.87q0 22.087-15.457 37.544-15.457 15.456-37.544 15.456H733.001q-22.088 0-37.544-15.456Q680-545.261 680-567.348Zm-562.261-47.348h61.912V-798.87h-61.912v184.174Zm662.61 0h61.912V-798.87h-61.912v184.174Z"/></svg>