<svg xmlns="http://www.w3.org/2000/svg" height="20" viewBox="0 -960 960 960" width="20"><path d="M172.615-164q-23.846 0-40.23-16.385Q116-196.769 116-220.615v-529.539q0-4.462 3.846-7.077t8.077 1.615l21.385 21.385Q153.538-730 160-730t10.692-4.231l42.616-42.615q4.23-4.231 10.692-4.231t10.692 4.231l42.616 42.615Q281.538-730 288-730t10.692-4.231l42.616-42.615q4.23-4.231 10.692-4.231t10.692 4.231l42.616 42.615Q409.538-730 416-730t10.692-4.231l42.616-42.615q4.23-4.231 10.692-4.231t10.692 4.231l42.616 42.615Q537.538-730 544-730t10.692-4.231l42.616-42.615q4.23-4.231 10.692-4.231t10.692 4.231l42.616 42.615Q665.538-730 672-730t10.692-4.231l42.616-42.615q4.23-4.231 10.692-4.231t10.692 4.231l42.616 42.615Q793.538-730 800-730t10.692-4.231l21.385-21.385q4.231-4.23 8.077-1.615t3.846 7.077v529.539q0 23.846-16.385 40.23Q811.231-164 787.385-164h-614.77Zm0-32H464v-256H148v231.385q0 10.769 6.923 17.692T172.615-196ZM496-196h291.385q10.769 0 17.692-6.923T812-220.615V-308H496v112Zm0-144h316v-112H496v112ZM148-484h664v-191.692H148V-484Z"/></svg>