<svg xmlns="http://www.w3.org/2000/svg" height="20" viewBox="0 -960 960 960" width="20"><path d="M248.7-161q-36.3 0-62-26.144Q161-213.287 161-250q0-35.875 25.262-60.438Q211.525-335 247-335q8 0 16 1t16 4l120-120q-10-23-4.923-48.17Q399.154-523.339 418-542q19-19 44-25t48 6l119-120.442Q627-689 625-697t-2-16q0-35.475 24.856-60.737Q672.713-799 709-799q37.525 0 63.763 25.704Q799-747.591 799-711.496 799-675 772.856-650T710-625q-13 0-30-5L560-510q10 23 5 48t-24 44q-18 18-42.5 22t-48.5-3L337-285h64.138Q412-309 433.19-322.5q21.19-13.5 45.911-13.5Q505-336 526-322t32.306 37H633q11.586-23.1 32.411-37.05Q686.235-336 711-336q36.3 0 62.15 25.212 25.85 25.213 25.85 62Q799-212 773.15-186.5T711-161q-24.765 0-45.589-14.4Q644.586-189.8 633-213h-74.694Q546-190 525.305-175.5T480-161q-25.924 0-46.645-14.4-20.721-14.4-32.634-37.6H328q-12 24-32.7 38-20.7 14-46.6 14Zm.088-232q-36.388 0-62.088-25.212-25.7-25.213-25.7-62Q161-517 186.788-542q25.787-25 62-25Q285-567 310.5-541.42q25.5 25.579 25.5 61.5 0 35.92-25.619 61.42-25.618 25.5-61.593 25.5Zm-.425-231q-36.213 0-61.788-25.212-25.575-25.213-25.575-62Q161-748 186.912-773.5q25.913-25.5 62.3-25.5Q286-799 311-773.234q25 25.765 25 61.946 0 36.182-25.712 61.735Q284.575-624 248.363-624Zm231.557 0q-35.92 0-61.42-25.619-25.5-25.618-25.5-61.593 0-36.388 25.212-62.088 25.213-25.7 62-25.7Q517-799 542-773.212q25 25.787 25 62Q567-675 541.42-649.5q-25.579 25.5-61.5 25.5Zm231.292 231Q675-393 649.5-418.58q-25.5-25.579-25.5-61.5 0-35.92 25.619-61.42 25.618-25.5 61.593-25.5 36.388 0 62.088 25.212 25.7 25.213 25.7 62Q799-443 773.212-418q-25.787 25-62 25Z"/></svg>