<svg xmlns="http://www.w3.org/2000/svg" height="20" viewBox="0 -960 960 960" width="20"><path d="M148-491v-173.399Q148-687 162.65-701.5T200-716h560q22.7 0 37.35 14.65Q812-686.7 812-664v217q-1 2 0 4t0 2q-23 0-43.44 5.217Q748.119-430.565 728-421q-21-13-41-19.5t-41-7.5v-20q0-9.3-7.85-16.15Q630.3-491 620-491h-98l-69-127q-2-1-4.21-2-2.209-1-4.79-1t-4.29 1q-1.71 1-3.71 2L300-366l-64.408-119.778Q234-488 232.29-489.5q-1.709-1.5-4.29-1.5h-80Zm52 247q-22.7 0-37.35-14.734Q148-273.468 148-296.286V-471h74l69.473 126.993Q293-342 295.21-340.5q2.209 1.5 4.79 1.5t4.29-1.5q1.71-1.5 3.245-2.631L444-596l64 120q2 3 6 5t8 0h154q-78 3-133.5 59T487-280q0 6-3 15.5t-6 20.5H200Zm446-106q13 0 26.5 6.5T700-326l29 26 28-25q14-12 26.925-18.5Q796.849-350 811-350q27.236 0 47.118 20.87T878-280.041Q878-258 856.5-234 835-210 762-146l-16 14q-8 7-18 7t-17.173-7.217l-15.444-13.653Q620-211 599.5-234.577 579-258.154 579-280.013 579-308 598.882-329q19.882-21 47.118-21Z"/></svg>