<svg xmlns="http://www.w3.org/2000/svg" height="20" viewBox="0 -960 960 960" width="20"><path d="M62-535v-149.399Q62-734 96.15-768T180-802h600q49.7 0 83.85 34.15Q898-733.7 898-684v271q-19-13-41-18.5t-45-5.5q-24 0-44.44 5.217Q747.119-426.565 728-417q-10-6-19-9t-19-4v-46q0-24.3-17.35-41.65Q655.3-535 631-535h-82l-57-103q-8-12-20.21-19.5Q459.581-665 444-665t-27.79 7.5Q404-650 396-638l-96 174-24.408-41.778Q269-519 256.29-527q-12.709-8-28.29-8H62Zm118 377q-49.7 0-83.85-34.234Q62-226.468 62-276.286V-410h141l49.473 85.993Q260-311 272.21-303q12.209 8 27.79 8t28.29-8q12.71-8 19.245-21.131L444-498l24 42q6 13 19.5 21t28.5 8h69q-49 19-80.5 62.5T473-265q0 32 11 57t30 50H180Zm466-208q24 0 46 11.5t37 31.5q14-20 35.425-31.5Q785.849-366 811-366q42.236 0 71.618 29.37Q912-307.26 912-265.041 912-232 887.5-201T784-102l-17 15q-18 14-39 14t-38.173-14.217l-16.444-14.653Q592-171 568.5-201.577 545-232.154 545-265.013 545-307 574.382-336.5 603.764-366 646-366Z"/></svg>