<svg xmlns="http://www.w3.org/2000/svg" height="20" viewBox="0 -960 960 960" width="20"><path d="M96-517v-179.399Q96-726 117.15-747T168-768h624q29.7 0 50.85 21.15Q864-725.7 864-696v248q-13-4-25.5-5.5T812-455q-23 0-43.94 5.217Q747.119-444.565 728-435q-14-8-27.5-12.5T672-454v-27q0-15.3-10.35-25.65Q651.3-517 636-517h-98l-62-113q-5-8-13.71-12.5-8.709-4.5-18.29-4.5t-18.29 4.5Q417-638 412-630L300-424l-40.408-73.778Q255-507 246.29-512q-8.709-5-18.29-5H96Zm72 325q-29.7 0-50.85-21.234Q96-234.468 96-264.286V-445h110l62.473 112.993Q273-323 281.71-318q8.709 5 18.29 5t18.29-5q8.71-5 13.245-14.131L444-538l40 74q5 8 13.5 13.5T516-445h69q-49 19-80.5 62.5T473-283q0 26 6 47.5t21 43.5H168Zm478-192q24 0 46 11.5t37 31.5q14-20 35.425-31.5Q785.849-384 811-384q42.236 0 71.618 29.37Q912-325.26 912-283.041 912-250 887.5-219T784-120l-32 28q-11 9-24 9t-23.173-9.217l-31.444-27.653Q592-189 568.5-219.577 545-250.154 545-283.013 545-325 574.382-354.5 603.764-384 646-384Z"/></svg>