<svg xmlns="http://www.w3.org/2000/svg" height="24" viewBox="0 -960 960 960" width="24"><path d="M480.083-316.609q-124.996 0-212.149-87.069-87.152-87.07-87.152-212.066 0-124.996 87.07-211.866 87.069-86.87 212.065-86.87t212.149 86.954q87.152 86.954 87.152 211.783 0 124.83-87.07 211.982-87.069 87.152-212.065 87.152ZM400-608.479q17 0 28.5-11.5t11.5-28.5q0-17-11.5-28.5t-28.5-11.5q-17 0-28.5 11.5t-11.5 28.5q0 17 11.5 28.5t28.5 11.5Zm160 0q17 0 28.5-11.5t11.5-28.5q0-17-11.5-28.5t-28.5-11.5q-17 0-28.5 11.5t-11.5 28.5q0 17 11.5 28.5t28.5 11.5Zm-80-80q17 0 28.5-11.5t11.5-28.5q0-17-11.5-28.5t-28.5-11.5q-17 0-28.5 11.5t-11.5 28.5q0 17 11.5 28.5t28.5 11.5ZM426.999-45.52v-58.088q0-27.637-19.681-47.318-19.681-19.681-47.318-19.681h-81.13v-106.002h402.26v106.002H600q-27.637 0-47.318 19.681-19.681 19.681-19.681 47.318v58.088H426.999Z"/></svg>