<svg xmlns="http://www.w3.org/2000/svg" height="20" viewBox="0 -960 960 960" width="20"><path d="M480.369-376q-93.446 0-158.908-65.092Q256-506.185 256-599.631q0-93.446 65.092-158.908Q386.185-824 479.631-824q93.446 0 158.908 65.092Q704-693.815 704-600.369q0 93.446-65.092 158.908Q573.815-376 480.369-376Zm-.143-32Q560-408 616-464.226t56-136Q672-680 615.774-736t-136-56Q400-792 344-735.774t-56 136Q288-520 344.226-464t136 56Zm-84.437-180Q411-588 421.5-598.289q10.5-10.29 10.5-25.5Q432-639 421.711-649.5q-10.29-10.5-25.5-10.5Q381-660 370.5-649.711q-10.5 10.29-10.5 25.5Q360-609 370.289-598.5q10.29 10.5 25.5 10.5Zm168 0Q579-588 589.5-598.289q10.5-10.29 10.5-25.5Q600-639 589.711-649.5q-10.29-10.5-25.5-10.5Q549-660 538.5-649.711q-10.5 10.29-10.5 25.5Q528-609 538.289-598.5q10.29 10.5 25.5 10.5Zm-84-96Q495-684 505.5-694.289q10.5-10.29 10.5-25.5Q516-735 505.711-745.5q-10.29-10.5-25.5-10.5Q465-756 454.5-745.711q-10.5 10.29-10.5 25.5Q444-705 454.289-694.5q10.29 10.5 25.5 10.5ZM464-140.615v-24q0-38.931-26.535-65.465-26.534-26.535-65.465-26.535h-53.231v-32h322.462v32H588q-38.931 0-65.465 26.535Q496-203.546 496-164.615v24h-32ZM480-597Z"/></svg>