<svg xmlns="http://www.w3.org/2000/svg" height="20" viewBox="0 -960 960 960" width="20"><path d="M815.693-71.386 770.078-116H116.001v-654.077l-35.769-36.768 36.769-35.769 734.46 734.461-35.768 36.768ZM168-168h550.079L168-718.079V-168Zm675.999-48.848L792-268.846V-792H268.846l-51.998-51.999h627.151v627.151ZM607.767-453.079l-93.382-93.382L482-639.462h-4l-14.308 42.308-42.307-42.307 27.924-76.693h61.382l97.076 263.075Zm-166.92 11.232Zm67.384-109.384ZM614-259.462l-45.23-131.384 96.92 96.921 12.539 34.463H614Zm-337.229 11L393.77-565.845l43.537 43.537-34.461 98.77h133.232l52.844 52.845H386.231L344-248.462h-67.229Z"/></svg>