<svg xmlns="http://www.w3.org/2000/svg" height="24" viewBox="0 -960 960 960" width="24"><path d="M844.384-58.769 525.769-377.385l48.769-8.307 241.924 241.923V-120H120v-663.154l-44.539-44.538L104-856.231 872.923-87.308l-28.539 28.539ZM840-232.692 575.539-497.154l-78.154-215.154h-34.77l-26.846 75.385L232.692-840H840v607.308Zm-542.462-24.231H340l42.462-120.462h143.307L487.153-416h-90.768l23.846-66.923-29.77-29.769-92.923 255.769Zm180.462-390h4l30.769 87-48.384-48.385L478-646.923Zm142 390h42.462l-23.077-63.923-64.847-64.846L620-256.923Z"/></svg>