<svg xmlns="http://www.w3.org/2000/svg" height="20" viewBox="0 -960 960 960" width="20"><path d="M240-136q-29.846 0-42.923-12.577Q184-161.154 184-191.638V-296h96v-512.616l48.369 33.385 49.908-33.385 49.908 33.385 49.907-33.385L528-775.231l49.908-33.385 49.907 33.385 49.908-33.385 49.908 33.385L776-808.616V-204q0 30.846-19.077 49.423T708-136H240Zm468-32q16 0 26-9.5t10-26.5v-540H312v448h360v92q0 17 10 26.5t26 9.5ZM375.385-620v-32h189.846v32H375.385Zm0 120v-32h189.846v32H375.385Zm280-109.231q-9.385 0-18.077-7.982-8.693-7.981-8.693-18.576 0-10.596 8.693-18.788 8.692-8.192 18.577-8.192 9.884 0 18.077 7.982 8.192 7.981 8.192 18.576 0 10.596-8.042 18.788-8.043 8.192-18.727 8.192Zm0 120q-9.385 0-18.077-7.982-8.693-7.981-8.693-18.576 0-10.596 8.693-18.788 8.692-8.192 18.577-8.192 9.884 0 18.077 7.982 8.192 7.981 8.192 18.576 0 10.596-8.042 18.788-8.043 8.192-18.727 8.192ZM240-168h400v-96H216v72q0 17 3.5 20.5T240-168Zm-24 0v-96 96Z"/></svg>