<svg xmlns="http://www.w3.org/2000/svg" height="20" viewBox="0 -960 960 960" width="20"><path d="M242.826-61.52q-56.834 0-89.417-32.084-32.584-32.083-32.584-89.917v-162.653h104.479v-530.827l62.687 61.392 61.104-61.392 61.105 61.392 61.104-61.392 61.105 61.392 61.104-61.392 60.992 61.392 60.991-61.392 60.992 61.392 62.687-61.392v681.48q0 57.834-38.584 95.917-38.583 38.084-95.417 38.084H242.826Zm462.348-98.001q16 0 26-9.5t10-26.5v-532.652H323.305v381.999h345.869v150.653q0 17 10 26.5t26 9.5Zm-333.869-420.13v-72h201.869v72H371.305Zm0 120v-72h201.869v72H371.305Zm285.869-120q-14 0-25-10.29-11-10.289-11-25.5 0-15.21 11-25.71t25.5-10.5q14.5 0 25 10.289 10.5 10.29 10.5 25.5 0 15.211-10.35 25.711-10.35 10.5-25.65 10.5Zm0 120q-14 0-25-10.29-11-10.289-11-25.5 0-15.21 11-25.71t25.5-10.5q14.5 0 25 10.289 10.5 10.29 10.5 25.5 0 15.211-10.35 25.711-10.35 10.5-25.65 10.5Zm-414.348 300.13h328.346v-88.652H218.826v64.652q0 17 3.5 20.5t20.5 3.5Zm-24 0v-88.652 88.652Z"/></svg>