<svg xmlns="http://www.w3.org/2000/svg" height="20" viewBox="0 -960 960 960" width="20"><path d="M240-148q-25 0-34.5-9t-9.5-34.529V-284h96v-508l45.6 26 47.6-26 47.6 26 47.6-26 47.6 26 47.6-26 47.6 26 47.6-26 47.6 26 45.6-26v588q0 26-15.5 41T708-148H240Zm468-20q16 0 26-9.5t10-26.5v-540H312v460h360v80q1 17 10.5 26.5T708-168ZM380-626v-20h182v20H380Zm0 120v-20h182v20H380Zm274-106q-8 0-16-7.289-8-7.29-8-16.5 0-9.211 8-16.711 8-7.5 16.5-7.5t16 7.289q7.5 7.29 7.5 16.5 0 9.211-7.35 16.711Q663.3-612 654-612Zm0 120q-8 0-16-7.289-8-7.29-8-16.5 0-9.211 8-16.711 8-7.5 16.5-7.5t16 7.289q7.5 7.29 7.5 16.5 0 9.211-7.35 16.711Q663.3-492 654-492Z"/></svg>