<svg xmlns="http://www.w3.org/2000/svg" height="20" viewBox="0 -960 960 960" width="20"><path d="M187.256-459.616q-19.256 0-33.525-14.09-14.27-14.09-14.27-33.346 0-19.256 14.091-33.525 14.09-14.27 33.346-14.27 19.256 0 33.525 14.091 14.269 14.09 14.269 33.346 0 19.256-14.09 33.525-14.09 14.269-33.346 14.269ZM182.823-100q-13.554 0-23.842-10.2-10.289-10.2-10.289-23.512V-259h-12.846q-8.031 0-13.477-5.446t-5.446-13.54v-122.63q0-9.35 6.75-15.675 6.75-6.325 15.581-6.325H233.9q8.831 0 15.581 6.325t6.75 15.675v122.63q0 8.094-5.446 13.54T237.308-259h-11.846v115h359.615v-245.615h-84q-54.846 0-92.423-37.193Q371.077-464 371.077-515q0-41.769 25.346-77.616 25.346-35.846 68.038-54.307Q468-709.385 512.231-747q44.23-37.616 94.846-37.616 50.615 0 93.846 37.616 43.231 37.615 46.77 100.077 42.692 18.461 69.038 54.307 26.346 35.847 26.346 77.616 0 51-37.577 88.192-37.577 37.193-92.423 37.193h-84V-144h170q8.5 0 15.25 6.758 6.75 6.757 6.75 15.269t-6.75 15.242Q807.577-100 799.253-100h-616.43Z"/></svg>