<svg xmlns="http://www.w3.org/2000/svg" height="24" viewBox="0 -960 960 960" width="24"><path d="M142-552q-32 0-54-22t-22-54q0-32 22-53.5t54-21.5q32 0 53.5 21.5T217-628q0 32-21.5 54T142-552ZM129-34q-26 0-44.5-18.5T66-97v-189H51q-14 0-23-9t-9-23v-124q0-26 18.5-44.5T82-505h120q26 0 44.5 18.5T265-442v124q0 14-9.5 23t-23.5 9h-15v126h348v-209h-47q-85 0-144.5-59.5T314-573q0-59 28.5-106t77.5-73q17-71 74-118t134-47q77 0 133.5 47T835-752q49 26 77.5 73T941-573q0 85-59 144.5T738-369h-47v209h137q26 0 44.5 18.5T891-97q0 26-18.5 44.5T828-34H129Z"/></svg>