<svg xmlns="http://www.w3.org/2000/svg" height="20" viewBox="0 -960 960 960" width="20"><path d="M146-547q-32 0-55.5-23.5T67-626q0-32 23.5-55t55.5-23q32 0 55 22.75T224-626q0 32-22.75 55.5T146-547ZM131.823-34Q106-34 86.5-53.5T67-98.712V-285H53q-14.8 0-24.4-9.6Q19-304.2 19-319v-119q0-26.85 19.5-45.925Q58-503 84.331-503H206.67Q233-503 252.5-483.925 272-464.85 272-438v119q0 14.8-10.1 24.4-10.1 9.6-24.9 9.6h-13v121h343v-210h-41q-85.2 0-144.6-59.4Q322-492.8 322-578q0-57 26.5-104.5T424-756q18-70 75.5-115.5T632-917q75 0 131 45.5T837-756q49 26 76.5 73.5T941-578q0 85.2-59.109 144.6Q822.782-374 738-374h-41v210h127q26 0 45.5 19.5T889-99q0 26-19.5 45.5T824.177-34H131.823Zm394.556-470h211.15Q768-504 789.5-525.889q21.5-21.889 21.5-52.265Q811-603 794.343-620.9 777.685-638.8 755-649l-35.25-16.387L714-704q-4-38-26.508-60.5t-55.5-22.5Q599-787 575-763.5T547-702l-6 37-36 15q-24 9-38.5 28.07-14.5 19.071-14.5 43.776 0 30.376 21.954 52.265T526.379-504ZM632-646Z"/></svg>