<svg xmlns="http://www.w3.org/2000/svg" height="24" viewBox="0 -960 960 960" width="24"><path d="M158.521-538.088q-29.392 0-49.218-19.826-19.826-19.826-19.826-49.218 0-29.391 19.826-48.935 19.826-19.544 49.218-19.544 29.391 0 48.935 19.544 19.543 19.544 19.543 48.935 0 29.392-19.543 49.218-19.544 19.826-48.935 19.826Zm-16.044 484.09q-22.087 0-37.544-15.457Q89.477-84.912 89.477-107v-176.392H72.303q-11.392 0-19.087-7.696-7.696-7.696-7.696-19.087V-441.13q0-22.088 15.457-37.544 15.456-15.457 37.544-15.457h120q22.087 0 37.544 15.457 15.456 15.456 15.456 37.544v130.956q0 11.391-7.978 19.087t-19.37 7.696h-17.174V-160h335.827v-205.087h-56.999q-78.914 0-134.066-55.153-55.152-55.152-55.152-134.066 0-56.391 28.5-101t75.761-68q14.391-68.392 68.13-114.305 53.74-45.913 126.827-45.913 73.087 0 126.544 45.913 53.457 45.913 67.848 114.305 47.261 23.391 75.761 68 28.5 44.609 28.5 101 0 78.914-54.87 134.066-54.87 55.153-133.783 55.153h-56.999V-160h146.999q22.087 0 37.544 15.457 15.457 15.456 15.457 37.544 0 22.087-15.457 37.544Q837.914-54 815.827-54h-673.35Z"/></svg>