<svg xmlns="http://www.w3.org/2000/svg" height="24" viewBox="0 -960 960 960" width="24"><path d="M264.615-120q-26.654 0-45.634-18.981Q200-157.961 200-184.615V-300h40v115.385q0 10.769 6.923 17.692T264.615-160h430.77q10.769 0 17.692-6.923T720-184.615V-300h40v115.385q0 26.654-18.981 45.634Q722.039-120 695.385-120h-430.77ZM200-775.385q0-26.654 18.981-45.634Q237.961-840 264.615-840h288.539q13.265 0 25.286 5.231 12.021 5.23 20.714 13.923l141.692 141.692q8.693 8.693 13.923 20.714Q760-646.419 760-633.154V-500h-40v-140H591.986q-13.602 0-22.794-9.2T560-672v-128H264.615q-10.769 0-17.692 6.923T240-775.385V-500h-40v-275.385ZM876.923-380H83.077q-8.5 0-14.25-5.758-5.75-5.757-5.75-14.269t5.75-14.242Q74.577-420 83.077-420h793.846q8.5 0 14.25 5.758 5.75 5.757 5.75 14.269t-5.75 14.242q-5.75 5.731-14.25 5.731ZM480-500Zm0 200Z"/></svg>