<svg xmlns="http://www.w3.org/2000/svg" height="20" viewBox="0 -960 960 960" width="20"><path d="M828-360H131.794Q117-360 106.5-370.289q-10.5-10.29-10.5-25.5Q96-411 106.35-421.5 116.7-432 132-432h696.206Q843-432 853.5-421.711q10.5 10.29 10.5 25.5Q864-381 853.65-370.5 843.3-360 828-360ZM696-624 528-792v132q0 15.3 10.35 25.65Q548.7-624 564-624h132ZM264-96q-29 0-50.5-21.15T192-168v-120h576v120q0 30-21.5 51T696-96H264Zm-72-408v-288q0-29.7 21.5-50.85Q235-864 264-864h282q14.222 0 27.111 5Q586-854 597-843l150 150q11 11 16 23.889T768-642v138H192Z"/></svg>