<svg xmlns="http://www.w3.org/2000/svg" height="20" viewBox="0 -960 960 960" width="20"><path d="M270.783-76.782q-39.726 0-68.863-28.788-29.138-28.787-29.138-69.213v-100.216h98.001v100.216h418.434v-100.216h98.001v100.216q0 40.726-29.138 69.363-29.137 28.638-68.863 28.638H270.783Zm-98.001-708.435q0-40.426 29.138-69.213 29.137-28.788 68.863-28.788h272.391q19.447 0 37.072 6.978 17.624 6.978 32.581 21.935l145.478 145.478q14.957 14.957 21.935 32.581 6.978 17.625 6.978 37.072v122.173h-98.001v-100.216H570.218q-20.387 0-34.694-14.307-14.307-14.307-14.307-34.694v-118.999H270.783v268.216h-98.001v-268.216ZM828-346.999H131.794q-19.881 0-34.338-14.247Q83-375.492 83-395.789q0-20.298 14.307-34.755 14.307-14.457 34.694-14.457h696.206q19.881 0 34.338 14.247 14.457 14.246 14.457 34.543 0 20.298-14.307 34.755-14.307 14.457-34.694 14.457ZM480-517.001Zm0 242.002Z"/></svg>