<svg xmlns="http://www.w3.org/2000/svg" height="24" viewBox="0 -960 960 960" width="24"><path d="M252-46q-51.975 0-88.988-37.013Q126-120.025 126-172v-85h126v85h456v-85h126v85q0 51.975-37.013 88.987Q759.975-46 708-46H252ZM126-788q0-51.975 37.012-88.987Q200.025-914 252-914h270q25.244 0 48.122 9.5T611-877l186 186q18 18 27.5 40.878T834-602v59H708v-45H571q-26 0-44.5-18.5T508-651v-137H252v245H126v-245Zm754 451H80q-26 0-44.5-18.5T17-400q0-26 18.5-44.5T80-463h800q26 0 44.5 18.5T943-400q0 26-18.5 44.5T880-337ZM480-543Zm0 286Z"/></svg>