<svg xmlns="http://www.w3.org/2000/svg" height="20" viewBox="0 -960 960 960" width="20"><path d="M480-168.519h92.349V-28.17H480V-168.52Zm219.133-105.35 98.131 99.131-65.131 65.131-98.132-99.131 65.132-65.131ZM0-960h82.174q36.522 0 59.349 23.326 22.826 23.326 22.826 58.848v49.825q37.696-44.173 85.848-67.478 48.152-23.304 105.021-23.304h203.565q41.305 0 69.653 28.348 28.348 28.348 28.348 69.653v165.347l-86.739-87.305q-43.391-43.391-99.283-67.369-55.891-23.979-117.978-23.979-53 0-100.37 16.239-47.369 16.239-88.065 49.543v83.74q36.522-48 84.761-69.108 48.239-21.109 103.674-21.109 50.261 0 94.674 19.131 44.413 19.13 80.109 54.826l138.129 139.13q30.914 26.913 29.914 67.087-1 40.175-29.914 69.088L454.872-214.13q-28.914 28.913-68.588 29.196-39.675.282-68.588-28.631l-139.13-139.13q-3.739-3.739-7.043-8.261-3.305-4.521-7.174-8.13v19.26q0 35.522-22.826 58.849-22.827 23.326-59.349 23.326H0V-960Zm754.786 540.695h140.349v92.349H754.786v-92.349Z"/></svg>