<svg xmlns="http://www.w3.org/2000/svg" height="24" viewBox="0 -960 960 960" width="24"><path d="m595.385-557.846-97.308-97.077q-28.615-28.616-65.154-44.923-36.538-16.308-76.846-16.308-58.846 0-105.5 29.538-46.654 29.539-70.577 76.847 23.923-47.308 70.577-76.847 46.654-29.538 105.5-29.538 40.308 0 76.846 16.308 36.539 16.307 65.154 44.923l97.308 97.077ZM60-256.154v-680h60q25.307 0 42.654 17.346Q180-901.462 180-876.154v107.231q24.308-48.462 70.385-77.847 46.077-29.384 102.923-29.384h177.461q26.847 0 45.731 18.885 18.885 18.884 18.885 45.73v253.693l24.461 24.692q18.385 18.385 18.385 45.462t-18.385 45.461L427.539-250.154q-18.385 18.385-45.462 18.385t-45.462-18.385l-121.769-121q-10.538-10.538-19.192-22.23-8.654-11.693-15.654-25v102.23q0 25.308-17.346 42.654-17.347 17.346-42.654 17.346H60Zm293.308-580q-63.846 0-108.577 44.962Q200-746.231 198.154-681.846q0 10 1.154 19.23 1.154 9.231 4.23 18.462 27.385-33.154 67.077-52.577 39.693-19.423 85.462-19.423 40.308 0 76.846 16.308 36.539 16.307 65.154 44.923l57.308 57.076v-213.692q0-10.769-6.923-17.692t-17.693-6.923H353.308Zm-157.923 323q0 32 12.5 61.231t35.5 52.231l121 121.231q7.692 6.923 18.077 6.923 10.384 0 17.307-6.923L591.539-470q7.692-7.692 7.692-18.077 0-10.384-7.692-17.308L469-628.154q-23-23-51.961-35.5-28.962-12.5-60.962-12.5-68 0-114.346 48.5-46.346 48.5-46.346 114.5Zm572.308 177h-95.385v-40h95.385v40Zm-92.001 167.847-67.077-67.078 27.539-27.538 67.077 67.077-27.539 27.539Zm-180.307 64.461v-95.385h40v95.385h-40ZM397.539-473Z"/></svg>