<svg xmlns="http://www.w3.org/2000/svg" height="20" viewBox="0 -960 960 960" width="20"><path d="m451-732 113-113q3.667-4 6.833-4 3.167 0 7.167 4t4 7.167q0 3.166-4 6.833L469-722q-7.636 8-17.818 8-10.182 0-18.139-8.118L393-763q-3-4-3.5-7.667-.5-3.666 3.5-6.333 2.667-4 6.833-3.5 4.167.5 6.967 3.6L451-732ZM196-78v-263.889q0-4.704 1-9.407 1-4.704 2.766-10.937l64.427-154.311q5.702-14.234 18.675-22.845Q295.842-548 311-548h338q15.158 0 28.132 8.611 12.973 8.611 18.675 22.845l64.427 154.311Q762-356 763-351.296q1 4.703 1 9.407V-78q0 .833-.618 1.417-.617.583-1.5.583-.882 0-1.382-.583-.5-.584-.5-1.417v-70H200v70q0 .833-.618 1.417-.617.583-1.5.583-.882 0-1.382-.583-.5-.584-.5-1.417Zm25-270h518l-62-159q-4-10-12-15.5t-19-5.5H314q-11 0-19 5.5T283-507l-62 159Zm87.235 128Q320-220 328-228.235q8-8.236 8-20Q336-260 327.765-268q-8.236-8-20-8Q296-276 288-267.765q-8 8.236-8 20Q280-236 288.235-228q8.236 8 20 8Zm344 0Q664-220 672-228.235q8-8.236 8-20Q680-260 671.765-268q-8.236-8-20-8Q640-276 632-267.765q-8 8.236-8 20Q624-236 632.235-228q8.236 8 20 8Z"/></svg>