<svg xmlns="http://www.w3.org/2000/svg" height="24" viewBox="0 -960 960 960" width="24"><path d="M450.001-90v-114.616h59.998v114.615h-59.998Zm-360-360.001v-59.998h114.615v59.998H90.001Zm665.383 0v-59.998h114.615v59.998H755.384Zm-34.615 272.923-80.153-80.153 42.153-42.153 80.153 80.153-42.153 42.153Zm-481.538 0-42.153-42.153 80.153-80.153 42.153 42.153-80.153 80.153ZM480-300.001q-74.922 0-127.461-52.538Q300.001-405.078 300.001-480q0-45.692 21.5-84.692 21.5-39 58.5-64.538v-176.921h199.998v176.921q37 25.538 58.5 64.538t21.5 84.692q0 74.922-52.538 127.461Q554.922-300.001 480-300.001Zm-40-355.228q10-2.385 19.808-3.577 9.807-1.193 20.192-1.193t20.192 1.193Q510-657.614 520-655.229v-90.924h-80v90.924Z"/></svg>