<svg xmlns="http://www.w3.org/2000/svg" height="24" viewBox="0 -960 960 960" width="24"><path d="M434.5-65.413V-200h91v134.587h-91ZM65.413-434.5v-91H200v91H65.413Zm694.587 0v-91h134.587v91H760Zm-32.587 285.566-94.761-94.762 63.652-63.652 94.762 94.761-63.653 63.653Zm-494.826 0-63.653-63.653 94.762-94.761 63.652 63.652-94.761 94.762ZM480-276.413q-84.674 0-144.13-59.457-59.457-59.456-59.457-144.13 0-48.239 21.38-90.337 21.381-42.098 58.62-71.576v-201.674h247.174v201.674q37.239 29.478 58.62 71.576 21.38 42.098 21.38 90.337 0 84.674-59.457 144.13-59.456 59.457-144.13 59.457Zm-40-403.174q10-2 20-2.956 10-.957 20-.957t20 .957q10 .956 20 2.956V-760h-80v80.413Zm39.986 312.174q46.905 0 79.753-32.834t32.848-79.739q0-46.905-32.834-79.753t-79.739-32.848q-46.905 0-79.753 32.834t-32.848 79.739q0 46.905 32.834 79.753t79.739 32.848ZM480-480Z"/></svg>