<svg xmlns="http://www.w3.org/2000/svg" height="24" viewBox="0 -960 960 960" width="24"><path d="M610.769-128.461 479.231-260l131.538-131.539L639.077-364l-83 84h272.385v40H556.077l83 84-28.308 27.539Zm-440.77-318.462v-67.693h67.693v67.693h-67.693Zm232.992 0q-45.607 0-77.761-32.214-32.153-32.215-32.153-77.786v-160q0-45.572 32.239-77.786t77.846-32.214q45.607 0 77.761 32.214 32.154 32.214 32.154 77.786v160q0 45.571-32.239 77.786-32.24 32.214-77.847 32.214Zm.086-40q29.166 0 49.583-20.417 20.417-20.417 20.417-49.583v-160q0-29.167-20.417-49.583-20.417-20.417-49.583-20.417-29.167 0-49.584 20.417-20.416 20.416-20.416 49.583v160q0 29.166 20.416 49.583 20.417 20.417 49.584 20.417Z"/></svg>