<svg xmlns="http://www.w3.org/2000/svg" height="24" viewBox="0 -960 960 960" width="24"><path d="M571.305-264.173v-106.001h61.912v-466.435H166.783v100.217H60.782v-100.217q0-44.304 30.848-75.153 30.848-30.848 75.153-30.848h466.434q44.305 0 75.153 30.848 30.848 30.849 30.848 75.153v173.218l114.695-114.696q12.827-12.826 29.066-6.13 16.239 6.696 16.239 24.652v312.347q0 17.956-16.239 24.652-16.239 6.696-29.066-6.13L739.218-543.391v173.217q0 44.304-30.848 75.153-30.848 30.848-75.153 30.848h-61.912ZM191.001-132.868q-22.088 0-41.3-8.49-19.213-8.49-33.788-22.858L-13.566-292.695l14-14.565q9.492-9.566 21.094-14.348 11.602-4.783 23.569-4.783 13.055 0 25.022 4.783 11.968 4.782 20.42 14.439l23.243 23.604V-601.87q0-14.96 10.302-24.741 10.301-9.781 24.036-9.781 14.88 0 24.51 9.781 9.631 9.781 9.631 24.741v166.957h34.348V-661.87q0-14.96 10.301-24.741 10.301-9.781 24.036-9.781 14.88 0 24.793 9.781 9.913 9.781 9.913 24.741v226.957H320V-621.87q0-14.96 10.183-24.741 10.183-9.781 23.761-9.781 14.708 0 24.622 9.781 9.913 9.781 9.913 24.741v186.957h34.347v-138.478q0-14.96 10.302-24.741 10.301-9.781 24.036-9.781 14.88 0 24.51 9.781 9.631 9.781 9.631 24.741v334.521q0 43.726-30.631 74.864-30.631 31.138-75.37 31.138H191.001Zm442.216-703.741v466.435-466.435Z"/></svg>