<svg xmlns="http://www.w3.org/2000/svg" height="24" viewBox="0 -960 960 960" width="24"><path d="M191.001-140.782q-22.088 0-41.3-8.49-19.213-8.49-33.788-22.858L-13.566-300.609l14-14.565q9.492-9.565 21.094-14.348 11.602-4.782 23.569-4.782 13.055 0 25.022 4.782 11.968 4.783 20.42 14.439l23.243 23.605v-318.306q0-14.959 10.302-24.74 10.301-9.782 24.036-9.782 14.88 0 24.51 9.782 9.631 9.781 9.631 24.74v166.958h34.348v-226.958q0-14.959 10.301-24.74 10.301-9.782 24.036-9.782 14.88 0 24.793 9.782 9.913 9.781 9.913 24.74v226.958H320v-186.958q0-14.959 10.183-24.74 10.183-9.782 23.761-9.782 14.708 0 24.622 9.782 9.913 9.781 9.913 24.74v186.958h34.347v-138.479q0-14.959 10.302-24.741 10.301-9.781 24.036-9.781 14.88 0 24.51 9.781 9.631 9.782 9.631 24.741v334.522q0 43.726-30.631 74.863-30.631 31.138-75.37 31.138H191.001Zm380.304-131.305v-366.217q0-44.305-30.848-75.153-30.848-30.849-75.153-30.849H60.782v-100.216q0-44.305 30.848-75.153 30.848-30.848 75.153-30.848h466.434q44.305 0 75.153 30.848 30.848 30.848 30.848 75.153v173.217L853.913-786q12.827-12.826 29.066-6.13 16.239 6.695 16.239 24.652v312.346q0 17.957-16.239 24.653-16.239 6.695-29.066-6.131L739.218-551.305v173.217q0 44.305-30.848 75.153-30.848 30.848-75.153 30.848h-61.912Z"/></svg>