<svg xmlns="http://www.w3.org/2000/svg" height="24" viewBox="0 -960 960 960" width="24"><path d="M220-212q-12 0-22.875-4.875T178-230l-74-74 3-4q2-4 6-6t9-2q7 0 11.5 1.5t8.5 6.5l29 29v-184q0-6.067 4.5-10.033Q180-477 185.429-477q5.881 0 9.726 3.967Q199-469.067 199-463v91h28v-136q0-6.067 4.5-10.033Q236-522 241.429-522q5.881 0 9.726 3.967Q255-514.067 255-508v136h28v-116q0-6.067 4.5-10.033Q292-502 297.429-502q5.881 0 9.726 3.967Q311-494.067 311-488v116h28v-86q0-6.067 4.5-10.033Q348-472 353.429-472q5.881 0 9.726 3.967Q367-464.067 367-458v186q0 24.75-17.25 42.375T307-212h-87Zm247-64v-266q0-24.75-17.625-42.375T407-602H157v-150q0-26 17-43t43-17h416q26 0 43 17t17 43v188l84.309-84.309Q784-655 793.5-651.458 803-647.917 803-638v188q0 9.917-9.5 13.458-9.5 3.542-16.191-3.149L693-524v188q0 26-17 43t-43 17H467Z"/></svg>