<svg xmlns="http://www.w3.org/2000/svg" height="24" viewBox="0 -960 960 960" width="24"><path d="M480-102.477q-124.913 0-211.218-88.283-86.305-88.283-86.305-216.588 0-78.868 27.196-158.76 27.196-79.893 69.957-144.806 42.761-64.913 95.917-105.761t104.186-40.848q52.093 0 104.985 40.848 52.891 40.848 95.652 105.761t69.957 144.806q27.196 79.892 27.196 158.76 0 128.305-86.305 216.588Q604.913-102.477 480-102.477Zm24.173-139.219q23.006 0 38.569-13.781 15.562-13.78 15.562-34.152t-13.775-34.133q-13.775-13.761-34.138-13.761-38.695 0-65.782-27.086-27.086-27.087-27.086-65.782 0-20.363-13.781-34.138-13.781-13.775-34.153-13.775-20.371 0-34.132 15.562-13.761 15.563-13.761 38.569 0 75.728 53.374 129.103 53.375 53.374 129.103 53.374Z"/></svg>