<svg xmlns="http://www.w3.org/2000/svg" height="20" viewBox="0 -960 960 960" width="20"><path d="M479.003-195Q390-195 328-258.521q-62-63.521-62-153.96 0-59.519 19.455-122.058 19.454-62.539 50.5-114Q367-700 404.749-732.5q37.748-32.5 73.987-32.5 36.264 0 74.478 31.931 38.215 31.931 69.072 83.258 30.857 51.326 50.285 114.372Q692-472.392 692-412.7q0 90.7-61.997 154.2-61.998 63.5-151 63.5ZM492-315q4.25 0 7.125-2.825 2.875-2.824 2.875-7 0-4.175-2.875-7.175T492-335q-47.833 0-78.917-37.583Q382-410.167 382-469q0-4.25-2.825-7.125-2.824-2.875-7-2.875-4.175 0-7.175 2.875T362-469q0 67.21 36.395 110.605Q434.79-315 492-315Z"/></svg>