<svg xmlns="http://www.w3.org/2000/svg" height="20" viewBox="0 -960 960 960" width="20"><path d="M479.284-183.231q-93.899 0-159.361-66.405-65.462-66.406-65.462-161.159 0-62.359 20.493-127.321 20.493-64.962 53.154-118.269 32.661-53.308 72.593-86.846 39.931-33.538 78.266-33.538 38.572 0 78.813 33.1 40.242 33.101 72.758 86.285 32.516 53.183 52.989 118.511Q704-473.546 704-411.015q0 95.015-65.408 161.4-65.409 66.384-159.308 66.384Zm.173-32q80.543 0 136.543-56.821t56-137.992q0-54.879-18.615-114.494-18.616-59.616-47.201-108.253-28.585-48.636-63.028-80.307t-64.386-31.671q-30.078 0-64.212 31.671-34.135 31.671-62.5 80.692-28.366 49.021-46.981 108.637-18.615 59.615-18.615 113.72 0 80.741 56.226 137.78 56.226 57.038 136.769 57.038Zm12.543-88q6.8 0 11.4-4.547 4.6-4.547 4.6-11.269t-4.6-11.453q-4.6-4.731-11.4-4.731-45.333 0-74.667-35.833Q388-406.897 388-463.231q0-6.8-4.547-11.4-4.547-4.6-11.269-4.6-6.723 0-11.453 4.6-4.731 4.6-4.731 11.4 0 69.7 38.15 114.85 38.15 45.15 97.85 45.15ZM479.231-480Z"/></svg>