<svg xmlns="http://www.w3.org/2000/svg" height="24" viewBox="0 -960 960 960" width="24"><path d="M580-300q-69.923 0-120.192-45.5Q409.539-391 400.923-460H196.846l69.846 69.846q5.616 5.615 6 13.654.385 8.039-6.23 14.654-6.385 6.385-14.154 6.385-7.77 0-14.154-6.385l-95.539-95.539q-5.231-5.23-7.346-10.692-2.115-5.461-2.115-11.923t2.115-11.923q2.115-5.462 7.346-10.692l95.539-95.539q5.615-5.615 13.654-6 8.038-.385 14.654 6 6.615 6.615 6.615 14.269t-6.615 14.27L196.846-500h204.077q8.616-69 58.885-114.5T580-660q74.539 0 127.269 52.731Q760-554.539 760-480q0 74.539-52.731 127.269Q654.539-300 580-300Z"/></svg>