<svg xmlns="http://www.w3.org/2000/svg" height="24" viewBox="0 -960 960 960" width="24"><path d="M606.218-266.999q-74.696 0-131.74-45.5-57.043-45.5-74.435-114.5H264.089l21.868 22.434q14.957 15.522 15.24 36.826.282 21.305-15.674 37.262-15.522 15.522-37.327 15.522t-37.326-15.522L98.39-442.956q-7.695-7.696-11.325-17.239-3.63-9.544-3.63-19.805t3.63-19.805q3.63-9.543 11.326-17.239L210.87-629.523q15.521-15.522 37.109-15.522 21.587 0 37.544 14.957 15.956 15.957 15.956 37.827 0 21.87-15.956 37.826l-21.434 21.434h135.954q17.392-69 74.435-114.5 57.044-45.5 131.74-45.5 88.652 0 150.826 62.174Q819.218-568.652 819.218-480t-62.174 150.827q-62.174 62.174-150.826 62.174Zm0-106.002q44.912 0 75.956-31.043 31.043-31.043 31.043-75.956 0-44.913-31.043-75.956-31.044-31.043-75.956-31.043-44.913 0-75.956 31.043-31.044 31.043-31.044 75.956 0 44.913 31.044 75.956 31.043 31.043 75.956 31.043Zm0-106.999Z"/></svg>