<svg xmlns="http://www.w3.org/2000/svg" height="24" viewBox="0 -960 960 960" width="24"><path d="M430.848-450.001H170.001q-12.75 0-21.375-8.628-8.625-8.629-8.625-21.384 0-12.756 8.625-21.371 8.625-8.615 21.375-8.615h260.847l-52.54-53.309q-8.307-8.308-8.115-20.577.192-12.269 9.115-21.258 8.18-8.241 20.82-8.241 12.641 0 20.948 8.308l99.385 99.769q10.846 10.846 10.846 25.307 0 14.461-10.846 25.307l-99.769 99.769q-8.308 8.308-20.577 8.423-12.269.116-21.258-8.874-8.241-8.241-8.241-20.625t8.308-20.692l51.924-53.309Zm329.152 280v-619.998q0-12.75 8.629-21.375 8.628-8.625 21.384-8.625 12.755 0 21.37 8.625 8.616 8.625 8.616 21.375v619.998q0 12.75-8.629 21.375t-21.384 8.625q-12.756 0-21.371-8.625Q760-157.251 760-170.001ZM600-760v-59.999h80V-760h-80Zm0 619.999V-200h80v59.999h-80ZM440-760v-59.999h80V-760h-80Zm0 619.999V-200h80v59.999h-80ZM280-760v-59.999h80V-760h-80Zm0 619.999V-200h80v59.999h-80Zm-80 0q-24.749 0-42.374-17.625-17.625-17.625-17.625-42.374H200v59.999ZM140.001-760q0-24.749 17.625-42.374 17.625-17.625 42.374-17.625V-760h-59.999Z"/></svg>