<svg xmlns="http://www.w3.org/2000/svg" height="24" viewBox="0 -960 960 960" width="24"><path d="M469-466H186q-5.95 0-9.975-4.035-4.025-4.035-4.025-10t4.025-9.965q4.025-4 9.975-4h283l-79-81q-4-4-3.5-9.5t4.5-9.674q3.667-3.826 9.333-3.826 5.667 0 9.667 4l92 93q9 9 9 21t-9 21l-93 93q-4 4-9.5 3.5t-9.674-4.674Q386-371 386-376t4-9l79-81Zm291 280v-588q0-5.95 4.035-9.975 4.035-4.025 10-4.025t9.965 4.025q4 4.025 4 9.975v588q0 5.95-4.035 9.975-4.035 4.025-10 4.025T764-176.025q-4-4.025-4-9.975ZM600-760v-28h80v28h-80Zm0 588v-28h80v28h-80ZM440-760v-28h80v28h-80Zm0 588v-28h80v28h-80ZM280-760v-28h80v28h-80Zm0 588v-28h80v28h-80Zm-80 0q-11.55 0-19.775-8.225Q172-188.45 172-200h28v28Zm-28-588q0-11.55 8.225-19.775Q188.45-788 200-788v28h-28Z"/></svg>