<svg xmlns="http://www.w3.org/2000/svg" height="24" viewBox="0 -960 960 960" width="24"><path d="M290 31q-18 0-31.5-13.8T245-15q0-18 13.5-31.5T290-60q18 0 31.5 13.5T335-15q0 18-13.5 32T290 31Zm340 0q-18 0-31.5-13.8T585-15q0-18 13.5-31.5T630-60q18 0 31.5 13.5T675-15q0 18-13.5 32T630 31ZM270-72q-48.39 0-89.253-21.125T113-150q-5-7-7-14t-2-14.429q0-17.828 13-31.2Q130-223 149.727-223 161-223 170-218.5t16 13.5q9 13 22.5 22.5T237-168l113-129-65-176 105-169h-58l-79 128-94-58 113-180h236q33 0 52.5 18t27.5 34l21 48q19 45 63.5 72.5T775-552v110q-76 0-136.5-29T540-551l-52 81 167 97v210h3q26 0 44-11.5t32-30.5q7-9 16-13.5t20.429-4.5Q789-223 802.5-209.629q13.5 13.372 13.5 31.2Q816-171 814-164t-7 14q-27 36-68 57t-89 21H270Zm107-91h168v-153l-98-54 30 93-100 114Zm237.867-597q-39.133 0-67-27.867-27.867-27.867-27.867-67Q520-894 547.867-922.5q27.867-28.5 67-28.5Q654-951 682.5-922.5 711-894 711-854.867q0 39.133-28.5 67Q654-760 614.867-760Z"/></svg>