<svg xmlns="http://www.w3.org/2000/svg" height="24" viewBox="0 -960 960 960" width="24"><path d="M290 17.523q-15.391 0-26.935-11.714-11.544-11.713-11.544-27.33 0-15.392 11.544-26.935Q274.609-60 290-60q15.391 0 26.935 11.544 11.544 11.543 11.544 26.935 0 15.391-11.544 27.217Q305.391 17.523 290 17.523Zm340 0q-15.391 0-26.935-11.714-11.544-11.713-11.544-27.33 0-15.392 11.544-26.935Q614.609-60 630-60q15.391 0 26.935 11.544 11.544 11.543 11.544 26.935 0 15.391-11.544 27.217Q645.391 17.523 630 17.523ZM270-75.478q-46.916 0-86.535-20.419-39.618-20.418-65.683-54.973-4.13-6.13-5.913-11.826-1.782-5.695-1.782-12.068 0-15.295 10.826-26.766 10.826-11.471 28.063-11.471 9.85 0 17.329 3.848 7.478 3.848 13.608 11.544 10.305 14.739 25.978 25.108 15.674 10.37 33.283 15.37l118.217-138.565-64.565-186.869 109.347-175.956h-73.651l-77.696 125.392-82.696-51.044 107.348-171.305H508q30.391 0 48.587 16.696 18.196 16.695 25.326 31.391l21 48q19.435 46.304 63.935 75.109 44.5 28.804 101.631 28.804v96.957q-73.392 0-132.805-30.956-59.413-30.956-96.109-83.695l-60.695 95.781 169.609 101.348v223.042h6.912q27.305 0 48.348-12.152t36.348-32.456q6.13-7.696 13.608-11.544 7.479-3.848 17.417-3.848 16.149 0 27.475 11.471t11.326 26.766q0 6.373-1.782 12.068-1.783 5.696-5.913 11.826-26.131 34.696-65.392 55.044-39.261 20.348-85.956 20.348H270Zm92.653-77.523h188.868v-166.477L435.262-388.26l34.347 109.956-106.956 125.303ZM608.404-760q-36.467 0-62.435-25.969Q520-811.937 520-848.404q0-36.466 25.969-62.792 25.968-26.327 62.435-26.327 36.466 0 62.792 26.327 26.327 26.326 26.327 62.792 0 36.467-26.327 62.435Q644.87-760 608.404-760Z"/></svg>