<svg xmlns="http://www.w3.org/2000/svg" height="20" viewBox="0 -960 960 960" width="20"><path d="M841-369v-222h138v222H841ZM202.932-256Q116-256 48.5-304.818-19-353.636-19-422.727v-114.182Q-19-606 48.5-655t154.432-49q48.682 0 82.875 2.5T349-687q22 10 42.66 25 20.66 15 43.7 14H787v336H435.059Q412-313 391.5-298 371-283 349-273q-29 12-63.193 14.5t-82.875 2.5Zm.068-84q33.703 0 60.198-8.174 26.494-8.174 49.913-17.51 28.889-12.909 57.705-21.612Q399.632-396 435.364-396H703v-168H435.365q-35.733 0-64.549-8.704-28.816-8.703-57.705-21.612-23.324-9.336-49.656-17.51Q237.124-620 203.185-620 151-620 108-594.7T65-537v33h27q10.4 0 17.2 6.8 6.8 6.8 6.8 17.2 0 10.4-6.8 17.2-6.8 6.8-17.2 6.8H65v32.882Q65-391 108.125-365.5T203-340ZM65-480Z"/></svg>