<svg xmlns="http://www.w3.org/2000/svg" height="24" viewBox="0 -960 960 960" width="24"><path d="M186.154-186.154v-40h123.615Q238-288.615 209-349.077q-29-60.461-29-127.846 0-98.154 56.077-176.346Q292.154-731.462 380-762.308v42.462q-71.538 29.615-115.769 96.115Q220-557.231 220-476.923q0 60.875 25.731 112.168 25.731 51.293 91.192 108.909v-121.077h40v190.769H186.154ZM740-478.462q0-62.538-25.885-114.346-25.884-51.807-91.038-110.576v120.307h-40v-190.769h190.769v40H650.231q75.923 64.538 103.5 129.269Q781.308-539.846 780-478.462h-40ZM609.231-90.769v-181.539H650v-40q0-29.923 20.423-50.346t50.346-20.423q29.923 0 50.346 20.423 20.424 20.423 20.424 50.346v40h39.23v181.539H609.231Zm71.538-181.539h80v-40q0-17-11.5-28.5t-28.5-11.5q-17 0-28.5 11.5t-11.5 28.5v40Z"/></svg>