<svg xmlns="http://www.w3.org/2000/svg" height="20" viewBox="0 -960 960 960" width="20"><path d="M241.913-184.587q-50.478 0-86.435-34.761-35.956-34.761-36.913-85.239H40.587v-494.826h635V-659h117.609l126.217 176.37v178.043h-76.065q-.957 50.478-36.913 85.239-35.957 34.761-86.435 34.761t-86.435-34.761q-35.956-34.761-36.913-85.239h-231.63q-.957 50.239-36.794 85.12-35.837 34.88-86.315 34.88Zm0-75.826q20.4 0 34.2-13.8 13.8-13.8 13.8-34.2 0-20.4-13.8-34.2-13.8-13.8-34.2-13.8-20.4 0-34.2 13.8-13.8 13.8-13.8 34.2 0 20.4 13.8 34.2 13.8 13.8 34.2 13.8ZM123.587-387.587h25.196q17-21.326 41.282-32.87Q214.348-432 241.913-432q27.565 0 51.962 11.514 24.396 11.513 40.459 32.899h258.253v-328.826h-469v328.826ZM720-260.413q20.4 0 34.2-13.8 13.8-13.8 13.8-34.2 0-20.4-13.8-34.2-13.8-13.8-34.2-13.8-20.4 0-34.2 13.8-13.8 13.8-13.8 34.2 0 20.4 13.8 34.2 13.8 13.8 34.2 13.8ZM675.587-456l160.109-1-85-119h-75.109v120Zm-315.5-93Z"/></svg>