<svg xmlns="http://www.w3.org/2000/svg" height="20" viewBox="0 -960 960 960" width="20"><path d="M223.765-238Q182-238 153-267.167 124-296.333 124-338H84v-402h564v124h84l144 202v76h-52q0 41.667-29.235 70.833-29.236 29.167-71 29.167Q682-238 653-267.167 624-296.333 624-338H324q0 42-29.235 71-29.236 29-71 29Zm.235-20q33.4 0 56.7-23.3Q304-304.6 304-338q0-33.4-23.3-56.7Q257.4-418 224-418q-33.4 0-56.7 23.3Q144-371.4 144-338q0 33.4 23.3 56.7Q190.6-258 224-258Zm500 0q33.4 0 56.7-23.3Q804-304.6 804-338q0-33.4-23.3-56.7Q757.4-418 724-418q-33.4 0-56.7 23.3Q644-371.4 644-338q0 33.4 23.3 56.7Q690.6-258 724-258Zm-76-172 192-1-121-165h-71v166Z"/></svg>