<svg xmlns="http://www.w3.org/2000/svg" height="20" viewBox="0 -960 960 960" width="20"><path d="M441.87-609.392 479-714.523h2l36 105.131h-75.13ZM480-378.913q-99.348 0-167.283-66.935-67.935-66.935-67.935-168.283 0-101.348 67.935-168.001Q380.652-848.784 480-848.784q100.348 0 167.783 66.652 67.435 66.653 67.435 168.001t-67.435 168.283Q580.348-378.913 480-378.913ZM351.13-502.174h53.044l22-62.305h107.652l22 62.305h55.305L510.913-763.218h-60.696L351.13-502.174ZM113.477-96v-192h81.044v192h-81.044Zm153.044 0v-192h80.478v192h-80.478Zm152.478 0v-192h80.479v192h-80.479Zm152.479 0v-192h275.045v192H571.478Z"/></svg>