<svg xmlns="http://www.w3.org/2000/svg" height="24" viewBox="0 -960 960 960" width="24"><path d="m438-587.385 40-109.846h2.462L522-587.385h-84ZM480.181-400q-83.258 0-141.72-58.28Q280-516.561 280-599.819q0-83.258 58.28-141.72Q396.561-800 479.819-800q83.258 0 141.72 58.28Q680-683.439 680-600.181q0 83.258-58.28 141.72Q563.439-400 480.181-400Zm-111.72-90.769h32.616l26-67.385h105.846l26 67.385h35.692L491.692-749.231h-25.384l-97.847 258.462ZM153.846-99.999V-260h40v160h-40Zm135.385 0V-260h40v160h-40Zm135.384 0V-260h40.001v160h-40.001ZM560-100V-260h246.154v160H560Z"/></svg>