<svg xmlns="http://www.w3.org/2000/svg" height="20" viewBox="0 -960 960 960" width="20"><path d="m443-588.385 36-97.846h.462L517-588.385h-74ZM480.181-424q-75.258 0-125.72-49.28Q304-522.561 304-599.819q0-77.258 50.28-126.72Q404.561-776 479.819-776q76.258 0 126.22 49.28Q656-677.439 656-600.181q0 77.258-49.78 126.72Q556.439-424 480.181-424Zm-98.72-78.769h28.616l22-59.385h95.846l22 59.385h31.692l-90.923-230.462h-21.384l-87.847 230.462ZM177.846-116v-152h32v152h-32Zm119.385 0v-152h32v152h-32Zm119.384 0v-152h32.001v152h-32.001ZM536-116v-152h246.154v152H536Z"/></svg>