<svg xmlns="http://www.w3.org/2000/svg" height="24" viewBox="0 -960 960 960" width="24"><path d="M359.965-294q11.035 0 18.535-7.465t7.5-18.5q0-11.035-7.465-18.535t-18.5-7.5Q349-346 341.5-338.535t-7.5 18.5q0 11.035 7.465 18.535t18.5 7.5Zm120 0q11.035 0 18.535-7.465t7.5-18.5q0-11.035-7.465-18.535t-18.5-7.5Q469-346 461.5-338.535t-7.5 18.5q0 11.035 7.465 18.535t18.5 7.5Zm120 0q11.035 0 18.535-7.465t7.5-18.5q0-11.035-7.465-18.535t-18.5-7.5Q589-346 581.5-338.535t-7.5 18.5q0 11.035 7.465 18.535t18.5 7.5ZM438-476l-75-75q-4-4-9.5-4t-10.5 4q-5 4-4.5 9.5t4.5 9.5l79 79q6.667 7 15.833 7Q447-446 454-453l163-163q4-4 4.5-9.5T617-636q-4.364-4-10.182-4-5.818 0-9.818 4L438-476Zm42.174 344Q408-132 344.442-159.391q-63.559-27.392-110.575-74.348-47.015-46.957-74.441-110.435Q132-407.652 132-479.826q0-72.174 27.391-135.732 27.392-63.559 74.348-110.574 46.957-47.016 110.435-74.442Q407.652-828 479.826-828q72.174 0 135.732 27.391 63.559 27.392 110.574 74.348 47.016 46.957 74.442 110.435Q828-552.348 828-480.174q0 72.174-27.391 135.732-27.392 63.559-74.348 110.575-46.957 47.015-110.435 74.441Q552.348-132 480.174-132ZM480-160q134 0 227-93t93-227q0-134-93-227t-227-93q-134 0-227 93t-93 227q0 134 93 227t227 93Zm0-320Z"/></svg>