<svg xmlns="http://www.w3.org/2000/svg" height="20" viewBox="0 -960 960 960" width="20"><path d="M186-292q-17 0-30-16t-9-28l59-303q5-23 23-38t43-15h416q25 0 43 15t23 39l59 303q4 12-9.5 27.5T773-292h-11.5q-5.5 0-9.5-4l-111-92H319l-111 92q-4 4-10 4h-12Zm13-24 114-92h334l114 92q1 1 10 5 10 0 16.5-7.5T792-336l-57-297q-3-17-17-28t-30-11H272q-16 0-30 11t-17 28l-57 297q-2 10 4 17.5t15 7.5q5 0 12-5Zm461-150q10 0 18-8t8-18q0-10-8-18t-18-8q-10 0-18 8t-8 18q0 10 8 18t18 8Zm-72-96q10 0 18-8t8-18q0-10-8-18t-18-8q-10 0-18 8t-8 18q0 10 8 18t18 8Zm-296 30h30q13 0 21.5 9t8.5 28q0 10 6.5 16.5T375-472h-7v-30q0-13 9-21.5t28-8.5q10 0 16.5-6.5T428-555v7h-30q-13 0-21.5-9t-8.5-28q0-10-6.5-16.5T345-608h7v30q0 13-9 21.5t-28 8.5q-10 0-16.5 6.5T292-525v-7Zm189 52Z"/></svg>