<svg xmlns="http://www.w3.org/2000/svg" height="20" viewBox="0 -960 960 960" width="20"><path d="M188-206q-62 0-97.5-48.5T64-358l55-294q10.112-54.609 53.556-90.304Q216-778 273-778h414q57 0 100.444 35.696Q830.888-706.609 841-651l55 294q9 56-28.5 103.5T771.833-206Q750-206 728.5-213T692-235l-86.05-67H355l-86 67q-15 15-37 22t-44 7Zm4-119 117-95h343l117 95 4 2q3.125 0 5.562-4 2.438-4 2.438-7l-57-297q-2-12-12.23-20.5Q701.541-660 689-660H273q-12.541 0-22.77 8.5Q240-643 238-631l-57 297q0 3 1 7t3 4q1 0 7-2Zm463-137q15 0 25.5-10.5T691-498q0-15-10.5-25.5T655-534q-15 0-25.5 10.5T619-498q0 15 10.5 25.5T655-462Zm-62-85q15 0 25.5-10.5T629-583q0-15-10.5-25.5T593-619q-15 0-25.5 10.5T557-583q0 15 10.5 25.5T593-547Zm-309 31h27.143Q323-516 330-509t7 19 7 19q7 7 19 7h22v-26.429Q385-502 392-509q7-7 19-7t19-7q7-7 7-19v-22h-26.429Q399-564 392-571q-7-7-7-19t-7-19q-7-7-19-7h-22v26.429Q337-578 329.357-571q-7.643 7-19.5 7T291-557q-7 7-7 19v22Zm198 36Z"/></svg>