<svg xmlns="http://www.w3.org/2000/svg" height="24" viewBox="0 -960 960 960" width="24"><path d="M213.538-488Q243-577.846 316.577-661.654q73.577-83.808 142.038-146.116 8.693-8.461 21.385-8.461 12.692 0 21.385 8.461 68.461 62.308 142.038 146.116Q717-577.846 746.462-488H704q-23-62-79-133.5T480-774q-88 81-144.5 152.5T256-488h-42.462Zm545.078 96q-2.077 19.77-8.039 38.27-5.962 18.5-15.577 35.039L558.078-142.539q-16.539 9.616-34.654 15.078-18.116 5.461-37.654 6.538L758.616-392Zm-175.308-16h57.846L374.077-141.692q-10.692-3.462-20.654-7.654-9.961-4.192-19.192-10.577L583.308-408Zm-190.539 0h57.847L264.692-222.077q-7.307-7.846-13.115-15.923t-11.423-17.384L392.769-408Zm-193 0h60.847l-55.385 55.385q-3.385-13.923-4.308-27.577Q200-393.846 199.769-408ZM480-488Z"/></svg>