<svg xmlns="http://www.w3.org/2000/svg" height="24" viewBox="0 -960 960 960" width="24"><path d="M341.696-31.521q-20.261 0-47.74-20.13-27.478-20.131-44.043-41.262l-77-98.435q-9.696-12.261-7.631-27.935 2.066-15.674 14.327-25.935t28.186-8.369q15.926 1.891 26.118 14.5l22.478 28.217 105.391-74.217 60.609-307.478-57.869 22.913V-480q0 20.603-13.938 34.541-13.937 13.938-34.541 13.938-20.391 0-34.717-13.938-14.327-13.938-14.327-34.541v-118.609q0-16.521 9.374-29.687 9.374-13.165 24.105-19.748l142.826-58.435q32-13.434 47.789-17.717 15.789-4.283 29.472-4.283 23.444 0 42.981 12.088 19.536 12.089 32.933 31.869l41.13 63.565q20.304 30.739 51.609 54.261 31.304 23.522 73.043 33.087 20.391 4.565 34.152 18.891 13.761 14.327 13.761 34.718 0 20.391-14.326 34.218-14.326 13.826-34.283 10.695-52.304-8-97.326-31.456-45.021-23.456-77.456-56.934l-19.478 100.216 66.913 63.478q7.695 7.696 11.826 17.776 4.13 10.081 4.13 20.833v211q11.609-1.566 22-5.283 10.391-3.717 19.565-8.456 4.565-2.566 9.054-3.566 4.49-1 9.62-1 17.957 0 28.859 12.044 10.902 12.044 10.902 26.152 0 10.261-4.347 18.598-4.348 8.338-14.609 15.033-21.131 13.13-44.721 19.13-23.59 6-49.801 6h-125q-16.674 0-27.577-10.902Q473.217-53.326 473.217-70t10.902-27.576q10.903-10.903 27.577-10.903h41.521v-168.564l-70.999-67-25.217 96.347q-2.679 9.198-8.035 16.426-5.357 7.227-13.053 12.922l-118.217 85.044 1.87 2.304q6.933 8.609 15.792 14.348 8.86 5.739 21.729 10.739 11.826 5.565 17.957 12.902 6.13 7.337 6.13 22.011 0 16.556-11.461 28.017-11.462 11.462-28.017 11.462ZM588.404-748.48q-36.467 0-62.435-26.326Q500-801.131 500-837.598q0-36.466 25.969-62.435 25.968-25.968 62.435-25.968 36.466 0 62.792 25.968 26.327 25.969 26.327 62.435 0 36.467-26.327 62.793-26.326 26.326-62.792 26.326Z"/></svg>