<svg xmlns="http://www.w3.org/2000/svg" height="20" viewBox="0 -960 960 960" width="20"><path d="M435.521-435.521v107.564q0 18.904 12.727 31.691 12.727 12.788 31.541 12.788t31.752-12.788q12.938-12.787 12.938-31.691v-107.564h107.564q18.904 0 31.691-12.727 12.788-12.727 12.788-31.541t-12.788-31.752q-12.787-12.938-31.691-12.938H524.479v-107.564q0-18.904-12.727-31.691-12.727-12.788-31.541-12.788t-31.752 12.788q-12.938 12.787-12.938 31.691v107.564H327.957q-18.904 0-31.691 12.727-12.788 12.727-12.788 31.541t12.788 31.752q12.787 12.938 31.691 12.938h107.564ZM492-76.781q-84.893 0-160.316-31.414-75.424-31.413-132.25-85.901-56.826-54.487-89.739-127.764-32.913-73.277-32.913-156.995 0-83.717 31.413-157.301 31.413-73.584 86.739-128.41 55.326-54.826 128.577-86.739 73.251-31.913 156.536-31.913 84.91 0 158.14 33.097 73.23 33.097 127.718 90.239 54.487 57.142 85.9 132.928Q883.218-551.168 883.218-465v290.217q0 41.005-28.498 69.503-28.498 28.498-69.503 28.498H492Z"/></svg>