<svg xmlns="http://www.w3.org/2000/svg" height="24" viewBox="0 -960 960 960" width="24"><path d="M240-200h480v-95.386H240V-200Zm0-155.384h480v-95.386H240v95.386Zm0-155.385h480V-556l-66.078-50.154H306.078L240-556v45.231Zm144.306-155.384h191.772L480-739l-95.694 72.847ZM180.001-140.001v-370.385l-74.692 57.308-36.076-47.845L180-585.999v-114.769H240v68.77l240-183 410.767 314.075-36.076 47.23-74.692-56.693v370.385H180.001Zm0-604.613q0-43.077 29.038-73.461 29.039-30.384 75.577-30.384 21.615 0 33.115-12.654 11.5-12.654 11.5-31.193h59.999q0 43.077-29.038 73.461t-75.576 30.384q-21.616 0-33.116 12.654T240-744.614h-59.999Z"/></svg>