<svg xmlns="http://www.w3.org/2000/svg" height="20" viewBox="0 -960 960 960" width="20"><path d="M480-78.782q-83.363 0-156.683-31.455-73.32-31.456-128.414-86.475-55.094-55.019-86.608-128.548-31.513-73.53-31.513-156.857 0-158.231 105.62-272.477Q288.023-868.841 444-883.218v122.001q-103.609 12.869-174.413 92.718-70.804 79.848-70.804 186.973 0 116.135 81.739 198.439Q362.261-200.783 480-200.783q71 0 126.891-29.869 55.891-29.87 95.891-81.87l106.61 62.696q-54.13 76.827-140.152 123.936Q583.218-78.782 480-78.782ZM435.521-437.52H348q-18.903 0-31.691-12.727t-12.788-31.541q0-18.814 12.788-31.752 12.788-12.938 31.691-12.938h87.521V-614q0-18.903 12.727-31.691t31.541-12.788q18.814 0 31.752 12.788 12.938 12.788 12.938 31.691v87.521H612q18.903 0 31.691 12.727t12.788 31.541q0 18.814-12.788 31.752-12.788 12.938-31.691 12.938h-87.521V-350q0 18.903-12.727 31.691t-31.541 12.788q-18.814 0-31.752-12.788-12.938-12.788-12.938-31.691v-87.521Zm409.871 125.695-106.61-62.696q11-26 16.718-52.239Q761.217-453 761.217-482q0-107.951-71.087-187.15-71.087-79.198-174.13-92.067v-122.001q155.977 14.397 261.598 128.789Q883.218-640.037 883.218-482q0 42.952-10.413 88.063-10.413 45.111-27.413 82.111Z"/></svg>