<svg xmlns="http://www.w3.org/2000/svg" height="20" viewBox="0 -960 960 960" width="20"><path d="m416.769-453.769 123.77-79.846q8.923-6.803 8.923-18.556 0-11.752-8.923-18.214l-123.77-79.846q-10.923-7.462-21.846-1.229T384-631.846v159.692q0 13.381 10.923 19.614 10.923 6.233 21.846-1.229ZM243.077-280l-59.037 59.037q-13.271 13.271-30.656 6.173Q136-221.889 136-240.692v-526.693q0-24.315 16.15-40.465Q168.3-824 192.615-824h574.77q24.315 0 40.465 16.15Q824-791.7 824-767.385v430.77q0 24.315-16.15 40.465Q791.7-280 767.385-280H243.077Z"/></svg>