<svg xmlns="http://www.w3.org/2000/svg" height="24" viewBox="0 -960 960 960" width="24"><path d="M426.999-113.782v-93.434H277.522q-21.087 0-40.392-7.978-19.304-7.978-34.261-22.935l-64.478-64.478q-15.957-15.957-15.957-37.609 0-21.653 15.957-37.61l64.478-64.478q14.957-14.956 34.261-22.935 19.305-7.978 40.392-7.978h149.477v-80H193.782q-22.087 0-37.544-15.457-15.456-15.456-15.456-37.544v-160q0-22.087 15.456-37.544 15.457-15.456 37.544-15.456h233.217v-27q0-22.087 15.457-37.544 15.457-15.456 37.544-15.456 22.087 0 37.544 15.456 15.457 15.457 15.457 37.544v27h149.477q21.087 0 40.392 7.978 19.304 7.978 34.261 22.935l64.478 64.478q15.957 15.957 15.957 37.609 0 21.653-15.957 37.609l-64.478 64.479q-14.957 14.956-34.261 22.935-19.305 7.978-40.392 7.978H533.001v80h233.217q22.087 0 37.544 15.457 15.456 15.456 15.456 37.544v160q0 22.087-15.456 37.544-15.457 15.456-37.544 15.456H533.001v93.434q0 22.087-15.457 37.544Q502.087-60.782 480-60.782q-22.087 0-37.544-15.456-15.457-15.457-15.457-37.544Z"/></svg>