<svg xmlns="http://www.w3.org/2000/svg" height="24" viewBox="0 -960 960 960" width="24"><path d="M466-146v-146H291q-12.444 0-23.722-5T248-310l-55-55q-9-9-9-21t9-21l55-55q8-8 19.278-13 11.278-5 23.722-5h175v-80H242q-12.75 0-21.375-8.5T212-590.495v-127.01q0-13.495 8.625-21.995Q229.25-748 242-748h224v-66q0-5.95 4.035-9.975 4.035-4.025 10-4.025t9.965 4.025q4 4.025 4 9.975v66h175q12.444 0 23.722 5T712-730l55 55q9 9 9 21t-9 21l-55 55q-8 8-19.278 13-11.278 5-23.722 5H494v80h224q12.75 0 21.375 8.5T748-449.505v127.01q0 13.495-8.625 21.995Q730.75-292 718-292H494v146q0 5.95-4.035 9.975-4.035 4.025-10 4.025T470-136.025q-4-4.025-4-9.975Z"/></svg>