<svg xmlns="http://www.w3.org/2000/svg" height="24" viewBox="0 -960 960 960" width="24"><path d="M140.782-100.782v-106.001h678.436v106.001H140.782Zm0-174.696v-583.74h653q43.493 0 74.465 31.13 30.971 31.131 30.971 74.306v120q0 43.174-30.971 74.305-30.972 31.131-74.465 31.131h-69.26v252.868h-583.74Zm106.001-477.739h371.738-371.738Zm477.739 119.435h68.695v-120h-68.695v120ZM618.521-381.479v-371.738H406.783v29.566l80 64v200h-200v-200l80-64v-29.566h-120v371.738h371.738ZM355.478-753.217h40-40Z"/></svg>