<svg xmlns="http://www.w3.org/2000/svg" height="24" viewBox="0 -960 960 960" width="24"><path d="M279.761-655.305q-33.478 0-57.337-23.739t-23.859-57.217q0-33.479 23.859-57.457t57.337-23.978q33.478 0 57.337 23.978t23.859 57.457q0 33.478-23.859 57.217-23.859 23.739-57.337 23.739ZM71.869-71.869v-412.675h126.218v-34.065q0-38.956 26.837-65.554t65.793-26.598q20.957 0 39.033 8.717 18.076 8.718 32.794 23.435l57.674 64.152q7.478 8.718 15.956 16.076 8.478 7.359 17.957 13.837h434v412.675H71.869Zm653.87-491.718 4.718-27.587q5-24.522-3.5-47.902-8.5-23.381-26.261-41.142-29-28.76-42.881-66.902-13.88-38.141-8.641-79.424l2.717-21.587h83.175l-4.718 27.587q-4 23.761 3.381 46.903 7.38 23.141 24.38 40.141 29.761 29.761 44.261 68.282 14.5 38.522 9.261 80.044l-2.718 21.587h-83.174Zm-166.456 0L564-591.174q5-24.522-3.5-47.902-8.5-23.381-26.261-41.142-28.761-28.76-42.761-66.902-14-38.141-8.761-79.424l2.718-21.587h83.174l-4.718 27.587q-5 23.761 2.881 46.903 7.88 23.141 24.88 40.141 29.761 29.761 44.261 68.282 14.5 38.522 9.261 80.044l-2.717 21.587h-83.174ZM678.326-162.87h79.283v-230.673h-79.283v230.673Zm-158.565 0h79.282v-230.673h-79.282v230.673Zm-158.804 0h79.282v-230.673h-79.282v230.673Zm-158.566 0h79.283v-230.673h-79.283v230.673Z"/></svg>