<svg xmlns="http://www.w3.org/2000/svg" height="20" viewBox="0 -960 960 960" width="20"><path d="M267.391-388.087q44.044 1.131 80.652 26.435 36.609 25.304 51.913 66.348l9.261 25.217 26.783 3q30.478 6 50.434 29.674 19.957 23.674 19.957 54.717 0 35.478-25.174 60.935Q456.043-96.305 420-96.305H264q-61.043 0-103.717-41.891t-42.674-103.5q0-62.043 43.174-104.217t106.608-42.174Zm198.261-443.175q-11.912 99.261 17.892 194.522 29.804 95.261 100.369 165.827 66.566 66.565 157.544 89.021 90.978 22.457 184.674 14.501-24 146.348-137.37 239.37-113.37 93.022-262.848 91.326-11.044 0-21.871-.848-10.826-.848-21.87-1.978 44-17.217 70.11-56.457 26.109-39.239 26.109-85.718 0-51.174-33.718-93.913-33.717-42.739-81.891-57.608-25.304-58.87-79.391-92.87-54.087-34-119.391-34-15.391 0-29.5 4.044t-26.24 10.566q-20.565.043-39.565 3.369-19 3.326-36 10.369-1.13-147.348 93.239-260.153 94.37-112.804 239.718-139.37Z"/></svg>