<svg xmlns="http://www.w3.org/2000/svg" height="20" viewBox="0 -960 960 960" width="20"><path d="M512.696-415.696ZM531-43.217H413.37l11.043-13.174q11.043-13.174 24.164-28.53 13.12-15.356 24.348-27.968l11.227-12.611h45q86.283 1.435 158.565-40.935Q760-208.804 799.478-282.217q-81.087-6.435-154.913-40.935-73.826-34.5-131.869-92.544-59.044-59.043-93.044-132.249-34-73.207-41.674-155.294-72.782 41.283-113.554 114.819-40.772 73.537-41.967 159.084V-422.739l-12.547 5.254q-12.547 5.253-27.812 11.202t-27.812 11.203l-12.547 5.254q-1.761-14.522-2.141-24.929-.381-10.406-.381-19.946 0-143.449 91.216-252.484t231.958-135.272q-14.847 97.957 15.935 191.913 30.783 93.957 101.022 164.196 66.239 66.239 156.076 90.163 89.837 23.924 182.554 10.75-24 141.631-133.619 231.924Q674.74-43.217 531-43.217Zm-267-84.001h156q22.708 0 38.604-15.895 15.896-15.896 15.896-38.604 0-19.709-12.458-34.604-12.458-14.896-32.281-17.896l-43.454-7-16.329-41.348q-13.318-33.08-41.858-52.627-28.539-19.547-62.612-20.025-48.878 0-82.443 33.065T149.5-240.717q0 47.847 33.396 80.673T264-127.218Zm0 84q-81.963 0-139.731-57.834-57.77-57.835-57.77-139.892 0-82.056 57.77-139.665Q182.037-438.218 264-438.218q60.717 0 111.054 32.62t71.533 89.62q47.957 9.434 79.435 47.63 31.478 38.196 31.478 87.631 0 56.964-40.268 97.232T420-43.217H264Z"/></svg>