<svg xmlns="http://www.w3.org/2000/svg" height="24" viewBox="0 -960 960 960" width="24"><path d="M493.826-414.826ZM524-28.696H413.782l17.739-16.456q17.739-16.456 38.413-36.196 20.674-19.739 38.413-36.196l17.739-16.457q79.304-2.608 146.108-39.39 66.805-36.783 107.935-100.304-81.478-11.392-154.521-46.892-73.043-35.5-131.782-94.239-58.739-58.739-94.739-131.499-36-72.761-46.957-154.239-62.304 41.304-98.173 105.499t-38.695 138.63v10.869l-16.24 6.065q-16.239 6.066-36.109 13.196-19.87 7.131-36.109 13.196l-16.239 6.065q-1.435-9.869-1.653-19.156-.217-9.287-.217-17.8 0-152.783 98.087-268.24 98.088-115.456 248.87-143.022-12.912 101.261 14.392 198.022 27.304 96.761 98.869 168.327 71.566 71.565 168.044 98.021 96.478 26.457 197.174 17.501-26 150.217-141.674 247.457Q676.783-28.695 524-28.695Zm-284-106h180q19.583 0 33.291-13.709 13.708-13.708 13.708-33.291t-13.355-33.291q-13.355-13.708-32.209-13.708H361.27l-23.14-55.914q-12.182-28.854-38.287-45.905-26.104-17.051-57.017-18.181-46.608 0-78.217 31.108-31.608 31.109-31.608 75.891 0 44.913 31.208 75.956 31.208 31.044 75.791 31.044Zm0 106q-88.395 0-150.698-62.302Q26.999-153.3 26.999-241.696q0-88.395 62.303-150.698Q151.605-454.696 240-454.696q61.696 0 113.174 32.782 51.478 32.783 78.305 87.783 59.261 5.391 100.391 48.718 41.131 43.326 41.131 103.717 0 63.386-44.808 108.194Q483.386-28.695 420-28.695H240Z"/></svg>