<svg xmlns="http://www.w3.org/2000/svg" height="20" viewBox="0 -960 960 960" width="20"><path d="M550.155-380.306q-30.307-49.615-82.946-75.115-52.639-25.5-113.054-25.5-63.231 0-120.347 24-57.116 24-88.654 76.615h405.001ZM76.848-328.307q0-98.23 85.253-151.422 85.252-53.191 192.054-53.191 102.768 0 183.037 54.691 80.269 54.692 80.269 149.922H76.848Zm0 130.153v-51.999h540.613v51.999H76.848ZM689.461-68.001V-120h79l57-568.307h-382.23l-4.692-51.999h196.307v-144h51.999v144h196.307L817.383-68.001H689.461Zm14-51.999h65-65ZM76.848-68.001V-120h540.613v51.999H76.848Zm277.307-320.305Z"/></svg>