<svg xmlns="http://www.w3.org/2000/svg" height="24" viewBox="0 -960 960 960" width="24"><path d="M554.155-412.306q-29.307-49.615-85.946-67.115-56.639-17.5-117.054-17.5-60.231 0-117.347 17.5-57.116 17.5-85.654 67.115h406.001ZM68.848-352.307q0-98.23 86.769-151.422 86.769-53.191 195.538-53.191 108.768 0 195.537 53.191 86.769 53.192 86.769 151.422H68.848Zm0 146.153v-59.999h564.613v59.999H68.848ZM713.461-60.001V-120h56l56-552.307h-371.23l-7.692-59.999h192.307v-160h59.999v160h192.307L823.383-60.001H713.461Zm0-59.999h56-56ZM68.848-60.002V-120h564.613v59.998H68.848Zm282.307-352.304Z"/></svg>