<svg xmlns="http://www.w3.org/2000/svg" height="24" viewBox="0 -960 960 960" width="24"><path d="M480-164q97-30 162-118.5T718-480H480v-314.231l-223.846 83.077q-7.693 3.077-11.923 9.231Q240-695.769 240-688.077v189.308Q240-491 242-480h238v316Zm0 37.693q-5.462 0-11.462-1t-11.23-3q-118.077-45-187.693-152.654Q200-390.615 200-516v-171.308q0-20.384 11.807-36.923 11.808-16.538 30.193-24l215.385-80q11.692-4.231 22.615-4.231 10.923 0 22.615 4.231l215.385 80q18.385 7.462 30.193 24Q760-707.692 760-687.308V-516q0 125.385-69.615 233.039-69.616 107.654-187.693 152.654-5.23 2-11.23 3t-11.462 1Z"/></svg>