<svg xmlns="http://www.w3.org/2000/svg" height="20" viewBox="0 -960 960 960" width="20"><path d="M480-177.218q93.043-33.391 156.13-115.5Q699.217-374.826 710.217-480H480v-299.087l-233.217 89.174V-515q0 7.87 1 17.5 1 9.63 2 17.5H480v302.782Zm0 95.306q-7.696 0-15.957-.783-8.261-.782-15.522-3.348-134.956-44.13-217.348-166.348Q148.782-374.609 148.782-515v-174.913q0-31.478 17.022-56.261t45.935-35.61l233.217-89.173q16.957-6.696 35.044-6.696 18.087 0 35.044 6.696l233.217 89.173q28.913 10.827 45.935 35.61 17.022 24.783 17.022 56.261V-515q0 140.391-82.391 262.609-82.392 122.218-217.348 166.348-7.261 2.566-15.522 3.348-8.261.783-15.957.783Z"/></svg>