<svg xmlns="http://www.w3.org/2000/svg" height="20" viewBox="0 -960 960 960" width="20"><path d="M126.264-277.001h188.32q32.494 0 55.042-21.724 22.547-21.724 22.547-52.231l-82.216-24.913-183.693 98.868Zm296.258-168h233.957q36.219 0 69.174-9.183 32.955-9.183 37.955-17.816L619.696-615.043 455.218-514.434l-330.147-20.435-7.94 15.521 305.391 74.347Zm25.348-82.303Zm514.87 251.502q0 7.604-2.646 15.209-2.646 7.604-6.615 13.941-18.036 31.107-45.996 49.38-27.961 18.273-64.657 18.273h-204q-20.387 0-34.694-14.247-14.306-14.246-14.306-34.543 0-20.298 14.306-34.755 14.307-14.457 34.694-14.457h70.346l-71.998-69.998H494.696q0 71.695-53.804 119.848-53.805 48.152-126.066 48.152h-240q-36.175 0-60.588-23.74-24.412-23.739-24.412-56.364 0-28.083 10.695-47.012 10.696-18.929 34.087-32.19l141.303-77.304-107.128-31.129q-33.044-10.261-46.436-41.24-13.391-30.979 1.566-62.457l21.913-43.261q11.391-19.087 29.978-30.978 18.587-11.892 41.24-10.327l313.826 21.435 122.39-76.217-28.13-25.695h-58.826q-18.903 0-31.691-13.116-12.787-13.115-12.787-31.717 0-18.602 13.176-31.646t31.868-13.044h53.304q19.08 0 36.888 6.979 17.808 6.978 31.2 20.37l216.043 206.043q40.261 39.261 57.891 62.522 17.631 23.261 17.631 40.087 0 31.435-34.848 59.065-34.848 27.631-85.369 48.414l-28.306-20.48 104.174 105q8.779 0 19.281-5.087 10.501-5.086 15.371-15.391 6.696-12.261 18.564-19.891 11.868-7.631 25.61-7.631 20.083 0 34.259 14.307 14.177 14.307 14.177 34.892Z"/></svg>