<svg xmlns="http://www.w3.org/2000/svg" height="20" viewBox="0 -960 960 960" width="20"><path d="M126.264-277.001h188.562q32.252 0 54.8-21.699 22.547-21.7 22.547-52.256l-82.216-24.913-183.693 98.868ZM962.74-276q0 8-2.566 15.435-2.565 7.435-6.695 13.913-18.036 31.107-45.996 49.38-27.961 18.273-64.657 18.273h-204q-20.387 0-34.694-14.247-14.306-14.246-14.306-34.543 0-20.298 14.306-34.755 14.307-14.457 34.694-14.457h70.346l-71.998-69.998H494.696q0 71.695-53.804 119.848-53.805 48.152-126.066 48.152h-240q-36.217 0-60.609-23.74Q-10.174-226.478-10.174-259q0-28.391 10.695-47.218 10.696-18.826 34.087-32.087l141.303-77.304-107.128-31.129q-33.044-10.261-46.436-41.24-13.391-30.979 1.566-62.457l21.913-43.261q11.391-19.087 29.978-30.978 18.587-11.892 41.24-10.327l313.826 21.435 122.39-76.217-28.13-25.695h-58.826q-18.691 0-31.585-13.116-12.893-13.115-12.893-31.717 0-18.602 13.176-31.646t31.868-13.044h53.304q19.04 0 36.868 6.979 17.828 6.978 31.22 20.37l216.043 206.043q40.261 39.261 57.891 62.522 17.631 23.261 17.631 40.087 0 31.435-34.848 59.065-34.848 27.631-85.369 48.414l-28.306-20.48 104.174 105q8.739 0 19.261-5.087 10.521-5.086 15.391-15.391 6.696-12.261 18.422-19.891 11.727-7.631 25.752-7.631 20.014 0 34.225 14.307Q962.74-296.387 962.74-276Z"/></svg>