<svg xmlns="http://www.w3.org/2000/svg" height="20" viewBox="0 -960 960 960" width="20"><path d="M673-259v-118h118v118H673Zm0-150v-118h173v118H673Zm0-150v-118h231v118H673ZM253-35l-59-227q-47-37-77-93T87-480q0-69 30.5-125t78.5-93l57-227h216l57 227q48 37 78.5 93T635-480q0 69-30 125t-77 93L469-35H253Zm107.986-289Q426-324 471.5-369.486t45.5-110.5Q517-545 471.514-590.5t-110.5-45.5Q296-636 250.5-590.514t-45.5 110.5Q205-415 250.486-369.5t110.5 45.5ZM314-749q8-3 21.027-3.5 13.026-.5 26-.5 12.973 0 25.473.5 12.5.5 20.5 3.5l-18-74h-56l-19 74Zm19 612h56l20-74q-8 2-21.027 3.5-13.026 1.5-27 1.5-13.973 0-26.473-1.5Q322-209 314-211l19 74Zm-19-686h93-93Zm19 686h-19 95-76Z"/></svg>