<svg xmlns="http://www.w3.org/2000/svg" height="24" viewBox="0 -960 960 960" width="24"><path d="M746.999-263.608v-106.001h106.002v106.001H746.999Zm0-163.391v-106.002h149.958v106.002H746.999Zm0-163.392v-107.001H942.61v107.001H746.999ZM260.216-45.52l-60.217-201.784q-49.696-40.261-80.957-100.935Q87.781-408.913 87.781-480q0-71.087 31.261-131.761 31.261-60.674 80.957-100.935l60.217-201.784h253.566L574-712.696q49.696 40.261 80.957 100.935Q686.218-551.087 686.218-480q0 71.087-31.261 131.761Q623.696-287.565 574-247.304L513.782-45.52H260.216Zm126.775-241.263q80.182 0 136.704-56.514 56.521-56.513 56.521-136.695 0-80.182-56.513-136.703-56.514-56.522-136.696-56.522-80.181 0-136.703 56.514-56.522 56.513-56.522 136.695 0 80.182 56.514 136.703 56.514 56.522 136.695 56.522Zm-69.209-484.131q16.609-4.435 33.993-6.587 17.385-2.152 35.239-2.152 17.855 0 35.224 2.152 17.37 2.152 33.978 6.587l-15.434-46.609H333.217l-15.435 46.609Zm15.435 628.437h107.565l15.434-46.609q-16.608 3.87-33.993 6.087-17.384 2.217-35.239 2.217-17.854 0-35.224-2.217-17.369-2.217-33.978-6.087l15.435 46.609Zm-15.435-675.046h138.434-138.434Zm15.435 675.046h-15.435 138.434-122.999Z"/></svg>