<svg xmlns="http://www.w3.org/2000/svg" height="20" viewBox="0 -960 960 960" width="20"><path d="M288.332-136Q264-136 248-152.15t-16-40.465v-438.616q0-11.145 4.231-21.726 4.23-10.582 12.923-19.274l134.615-134.615q8.692-8.693 19.274-12.923Q413.624-824 424.769-824h246.616q24.315 0 40.465 16.15Q728-791.7 728-767.385v574.77q0 24.315-16.162 40.465Q695.676-136 671.344-136H288.332Zm191.457-182.769q10.596 0 17.25-7.213 6.653-7.212 6.653-16.269 0-9.057-6.443-16.48t-17.038-7.423q-10.596 0-17.25 7.213-6.653 7.212-6.653 16.269 0 9.057 6.443 16.48t17.038 7.423Zm0-96.308q6.75 0 11.48-4.581Q496-424.239 496-431.077v-146.154q0-6.838-4.52-11.419t-11.269-4.581q-6.75 0-11.48 4.581Q464-584.069 464-577.231v146.154q0 6.838 4.52 11.419t11.269 4.581Z"/></svg>