<svg xmlns="http://www.w3.org/2000/svg" height="24" viewBox="0 -960 960 960" width="24"><path d="M415.262-624.738v-234.48h338.52q44.305 0 75.153 30.848 30.849 30.848 30.849 75.153v128.479H415.262ZM206.783-100.782q-44.305 0-75.153-30.848-30.848-30.848-30.848-75.153v-337.955h234.48v443.956H206.783ZM100.782-624.738v-128.479q0-44.305 30.848-75.153 30.848-30.848 75.153-30.848h128.479v234.48h-234.48Zm440.35 446.783 23.695 24.129q12.696 12.696 12.696 30.609 0 17.913-13.131 31.044-12.696 12.696-31.109 12.696-18.413 0-31.109-12.696l-93.26-92.695q-15.957-15.957-15.957-37.609 0-21.653 15.957-37.61l93.26-93.26q12.696-12.696 30.892-12.913 18.196-.217 31.326 12.913 12.696 12.696 12.913 30.892.218 18.195-12.478 31.326l-23.695 24.13h76.391q30.739 0 53.108-22.37 22.37-22.369 22.37-53.108v-77.826l-24.13 24.13q-12.696 12.696-30.826 12.978-18.131.283-30.827-12.413-12.695-12.696-12.695-31.109 0-18.413 12.695-31.109l92.695-93.26q15.957-15.957 37.61-15.957 21.652 0 37.609 15.957l93.26 93.26q12.696 12.696 12.696 30.827 0 18.13-12.696 30.826-12.696 12.696-31.109 12.696-18.413 0-31.109-12.696l-24.129-24.13v77.826q0 68.261-48.131 116.391-48.13 48.131-116.391 48.131h-76.391Z"/></svg>