<svg xmlns="http://www.w3.org/2000/svg" height="20" viewBox="0 -960 960 960" width="20"><path d="M475.641-533.304q-16.423 0-27.88-11.246t-11.457-27.669q0-16.423 11.246-27.744 11.246-11.32 27.669-11.32 16.423 0 27.744 11.11 11.32 11.109 11.32 27.532 0 16.423-11.11 27.88-11.109 11.457-27.532 11.457Zm155.966 0q-16.423 0-27.743-11.246t-11.32-27.669q0-16.423 11.109-27.744 11.11-11.32 27.533-11.32 16.423 0 27.879 11.11 11.457 11.109 11.457 27.532 0 16.423-11.246 27.88t-27.669 11.457Zm156.273 0q-16.423 0-27.76-11.246-11.337-11.246-11.337-27.669 0-16.423 11.109-27.744 11.11-11.32 27.533-11.32 16.423 0 27.76 11.11 11.337 11.109 11.337 27.532 0 16.423-11.11 27.88-11.109 11.457-27.532 11.457Zm-20.837 397.435q-110 0-223.554-51.957Q429.935-239.782 334.5-334.859q-95.435-95.076-147.033-207.913-51.598-112.837-51.598-225.032v-57.327h239.175l41.587 181.001-123.696 120.152q21.804 36.608 46.989 69.576 25.185 32.967 53.439 60.755 26.354 26.582 57.083 50.527 30.728 23.946 68.38 47.272L644.804-417.87l179.327 39.109v242.892h-57.088Z"/></svg>