<svg xmlns="http://www.w3.org/2000/svg" height="20" viewBox="0 -960 960 960" width="20"><path d="M455.902-533.616q-12.903 0-22.249-9.135-9.346-9.136-9.346-22.038 0-12.903 9.136-22.249 9.135-9.346 22.038-9.346t22.249 9.135q9.346 9.136 9.346 22.038 0 12.903-9.136 22.249-9.135 9.346-22.038 9.346Zm156 0q-12.903 0-22.249-9.135-9.346-9.136-9.346-22.038 0-12.903 9.136-22.249 9.135-9.346 22.038-9.346t22.249 9.135q9.346 9.136 9.346 22.038 0 12.903-9.136 22.249-9.135 9.346-22.038 9.346Zm156 0q-12.903 0-22.249-9.135-9.346-9.136-9.346-22.038 0-12.903 9.136-22.249 9.135-9.346 22.038-9.346t22.249 9.135q9.346 9.136 9.346 22.038 0 12.903-9.136 22.249-9.135 9.346-22.038 9.346Zm-14.903 369.615q-101.538 0-206.614-48.885-105.077-48.884-194.846-138.653-89.384-89.769-138.461-195.423-49.077-105.653-49.077-207.037v-43h191.768l36.461 151.153-113.923 110.692q25.693 43.231 53.347 80.346 27.653 37.116 57.488 66.868 29.089 30.325 64.974 57.171Q490-303.922 536.77-276.23L651-389.384l144.999 30.615v194.768h-43ZM254.923-583.922l80.847-78.385L315.212-745h-99.597q2.077 38.385 11.654 79.346 9.577 40.962 27.654 81.732Zm334.999 327.691q28.462 14.77 70.039 25.962T744-215.231v-102.077l-75.769-16-78.309 77.077ZM254.923-583.922Zm334.999 327.691Z"/></svg>