<svg xmlns="http://www.w3.org/2000/svg" height="20" viewBox="0 -960 960 960" width="20"><path d="M468.211-529Q453-529 442.5-539.289q-10.5-10.29-10.5-25.5Q432-580 442.289-590.5q10.29-10.5 25.5-10.5Q483-601 493.5-590.711q10.5 10.29 10.5 25.5Q504-550 493.711-539.5q-10.29 10.5-25.5 10.5Zm156 0Q609-529 598.5-539.289q-10.5-10.29-10.5-25.5Q588-580 598.289-590.5q10.29-10.5 25.5-10.5Q639-601 649.5-590.711q10.5 10.29 10.5 25.5Q660-550 649.711-539.5q-10.29 10.5-25.5 10.5Zm156 0Q765-529 754.5-539.289q-10.5-10.29-10.5-25.5Q744-580 754.289-590.5q10.29-10.5 25.5-10.5Q795-601 805.5-590.711q10.5 10.29 10.5 25.5Q816-550 805.711-539.5q-10.29 10.5-25.5 10.5ZM768-144q-110 0-222-51T340-340q-94-94-145-206t-51-223v-48h221l38 170-117 118q23 39 49.5 74t55.95 63.983Q419-363 452-337.5q33 25.5 74 50.5l120-117 170 36v224h-48ZM253-597l72-73-17.481-75H216q4 38 13 75.5t24 72.5Zm345 340q30 14 68.5 25t77.5 16v-94l-75-16-71 69ZM253-597Zm345 340Z"/></svg>