<svg xmlns="http://www.w3.org/2000/svg" height="20" viewBox="0 -960 960 960" width="20"><path d="M384-433.001v-93.998q0-20.388 14.307-34.694Q412.613-576 433.001-576h93.998q20.388 0 34.694 14.307Q576-547.387 576-526.999v93.998q0 20.388-14.307 34.694Q547.387-384 526.999-384h-93.998q-20.388 0-34.694-14.307Q384-412.613 384-433.001Zm-37.001 276.176v-63.957h-28.216q-40.305 0-69.153-28.848-28.848-28.848-28.848-69.153v-28.216h-64.364q-17.154 0-28.635-11.59-11.48-11.589-11.48-28.722 0-16.892 11.65-28.529 11.65-11.638 28.872-11.638h63.957v-105.044h-64.24q-17.101 0-28.67-11.59-11.569-11.589-11.569-28.721 0-16.893 11.65-28.53 11.65-11.638 28.872-11.638h63.957v-28.216q0-40.305 28.848-69.153 28.848-28.848 69.153-28.848h28.216v-64.364q0-17.154 11.59-28.635 11.589-11.48 28.722-11.48 16.892 0 28.529 11.569 11.638 11.569 11.638 28.67v64.24h105.044v-64.24q0-17.101 11.59-28.67 11.589-11.569 28.721-11.569 16.893 0 28.53 11.569 11.638 11.569 11.638 28.67v64.24h28.216q40.305 0 69.153 28.848 28.848 28.848 28.848 69.153v28.216h64.364q17.154 0 28.635 11.427 11.48 11.427 11.48 28.32 0 17.132-11.569 28.932-11.569 11.8-28.67 11.8h-64.24v105.044h64.24q17.101 0 28.67 11.43 11.569 11.43 11.569 28.326t-11.569 28.81q-11.569 11.913-28.67 11.913h-64.24v28.216q0 40.305-28.848 69.153-28.848 28.848-69.153 28.848h-28.216v64.364q0 17.154-11.43 28.635-11.43 11.48-28.326 11.48-16.897 0-28.81-11.65t-11.913-28.872v-63.957H427.478v64.24q0 17.101-11.43 28.67-11.43 11.569-28.326 11.569t-28.81-11.65q-11.913-11.65-11.913-28.872Zm294.218-161.958v-322.434H318.783v322.434h322.434Z"/></svg>