<svg xmlns="http://www.w3.org/2000/svg" height="20" viewBox="0 -960 960 960" width="20"><path d="M384-443v-74q0-24.3 17.35-41.65Q418.7-576 443-576h74q24.3 0 41.65 17.35Q576-541.3 576-517v74q0 24.3-17.35 41.65Q541.3-384 517-384h-74q-24.3 0-41.65-17.35Q384-418.7 384-443Zm-47 304v-67h-13q-49 0-83.5-34.5T206-324v-13h-67.719q-18.581 0-30.931-12.589Q95-362.179 95-380.789q0-18.186 12.65-30.698Q120.3-424 139-424h67v-112h-67.5q-18.488 0-30.994-12.589Q95-561.179 95-579.789q0-18.186 12.65-30.698Q120.3-623 139-623h67v-13q0-49 34.5-83.5T324-754h13v-67.719q0-18.581 12.589-30.931 12.59-12.35 31.2-12.35 18.186 0 30.698 12.506Q424-839.987 424-821.5v67.5h112v-67.5q0-18.487 12.589-30.994Q561.179-865 579.789-865q18.186 0 30.698 12.506Q623-839.987 623-821.5v67.5h13q49 0 83.5 34.5T754-636v13h67.719q18.581 0 30.931 12.302Q865-598.396 865-580.211q0 18.611-12.506 31.411Q839.987-536 821.5-536H754v112h67.5q18.487 0 30.994 12.307Q865-399.386 865-381.193 865-363 852.494-350q-12.507 13-30.994 13H754v13q0 49-34.5 83.5T636-206h-13v67.719q0 18.581-12.307 30.931Q598.386-95 580.193-95 562-95 549-107.65T536-139v-67H424v67.5q0 18.488-12.307 30.994T381.193-95Q363-95 350-107.65T337-139Zm299-185v-312H324v312h312Z"/></svg>