<svg xmlns="http://www.w3.org/2000/svg" height="24" viewBox="0 -960 960 960" width="24"><path d="M375.411-357.692q8.512 0 14.243-5.75t5.731-14.25v-204.616q0-8.5-5.758-14.25t-14.269-5.75q-8.512 0-14.243 5.75t-5.731 14.25v204.616q0 8.5 5.758 14.25t14.269 5.75Zm146.974-24.846 116-77.077q10.923-7.312 10.923-20.31 0-12.998-10.923-20.46l-116-77.077q-11.923-8.461-24.847-1.456-12.923 7.006-12.923 21.841v154.154q0 14.835 12.923 21.841 12.924 7.005 24.847-1.456ZM480.134-120q-74.673 0-140.41-28.339-65.737-28.34-114.365-76.922-48.627-48.582-76.993-114.257Q120-405.194 120-479.866q0-74.673 28.339-140.41 28.34-65.737 76.922-114.365 48.582-48.627 114.257-76.993Q405.194-840 479.866-840q74.673 0 140.41 28.339 65.737 28.34 114.365 76.922 48.627 48.582 76.993 114.257Q840-554.806 840-480.134q0 74.673-28.339 140.41-28.34 65.737-76.922 114.365-48.582 48.627-114.257 76.993Q554.806-120 480.134-120Z"/></svg>