<svg xmlns="http://www.w3.org/2000/svg" height="24" viewBox="0 -960 960 960" width="24"><path d="M360-312q20.4 0 34.2-13.8Q408-339.6 408-360v-240q0-20.4-13.8-34.2Q380.4-648 360-648q-20.4 0-34.2 13.8Q312-620.4 312-600v240q0 20.4 13.8 34.2Q339.6-312 360-312Zm185-42 130-87q21-14.049 21-39.024Q696-505 675-519l-130-87q-23-16-48-3t-25 42v174q0 29 25 42t48-3ZM480-46q-91 0-169.987-34.084-78.988-34.083-137.417-92.512T80.084-310.013Q46-389 46-480t34.084-169.987q34.083-78.988 92.512-137.417t137.417-92.512Q389-914 480-914t169.987 34.084q78.988 34.083 137.417 92.512t92.512 137.417Q914-571 914-480t-34.084 169.987q-34.083 78.988-92.512 137.417T649.987-80.084Q571-46 480-46Z"/></svg>