<svg xmlns="http://www.w3.org/2000/svg" height="24" viewBox="0 -960 960 960" width="24"><path d="M140.001-140.001v-169.998H200V-200h109.999v59.999H140.001Zm510 0V-200H760v-109.999h59.999v169.998H650.001Zm-170.001-80q-107.922 0-183.961-76.038Q220.001-372.078 220.001-480q0-107.922 76.038-183.961Q372.078-739.999 480-739.999q107.922 0 183.961 76.038Q739.999-587.922 739.999-480q0 107.922-76.038 183.961Q587.922-220.001 480-220.001Zm-339.999-430v-169.998h169.998V-760H200v109.999h-59.999Zm619.999 0V-760H650.001v-59.999h169.998v169.998H760Z"/></svg>