<svg xmlns="http://www.w3.org/2000/svg" height="24" viewBox="0 -960 960 960" width="24"><path d="M111.869-111.869V-320h87.414v120.717H320v87.414H111.869Zm528.131 0v-87.414h120.717V-320h87.414v208.131H640Zm-160-87.414q-116.478 0-198.598-82.119-82.119-82.12-82.119-198.598 0-116.478 82.119-198.598 82.12-82.119 198.598-82.119 116.478 0 198.598 82.119 82.119 82.12 82.119 198.598 0 116.478-82.119 198.598-82.12 82.119-198.598 82.119Zm0-91q78.935 0 134.326-55.492Q669.717-401.267 669.717-480q0-78.935-55.391-134.326-55.391-55.391-134.206-55.391-78.816 0-134.326 55.391-55.511 55.391-55.511 134.206 0 78.816 55.492 134.326Q401.267-290.283 480-290.283ZM111.869-640v-208.131H320v87.414H199.283V-640h-87.414Zm648.848 0v-120.717H640v-87.414h208.131V-640h-87.414ZM480-480Z"/></svg>