<svg xmlns="http://www.w3.org/2000/svg" height="20" viewBox="0 -960 960 960" width="20"><path d="M184-184v-132h32v100h100v32H184Zm460 0v-32h100v-100h32v132H644Zm-164-96q-83.846 0-141.923-58.077T280-480q0-83.846 58.077-141.923T480-680q83.846 0 141.923 58.077T680-480q0 83.846-58.077 141.923T480-280Zm.198-32Q550-312 599-361.198t49-119Q648-550 598.802-599t-119-49Q410-648 361-598.802t-49 119Q312-410 361.198-361t119 49ZM184-644v-132h132v32H216v100h-32Zm560 0v-100H644v-32h132v132h-32ZM480-480Z"/></svg>