<svg xmlns="http://www.w3.org/2000/svg" height="24" viewBox="0 -960 960 960" width="24"><path d="M344.522-291.521h62.477q22.088 0 37.544-15.457Q460-322.435 460-344.522v-62.477q0-22.088-15.457-37.544Q429.087-460 406.999-460h-62.477q-22.087 0-37.544 15.457-15.457 15.456-15.457 37.544v62.477q0 22.087 15.457 37.544 15.457 15.457 37.544 15.457Zm0-208.479h62.477q22.088 0 37.544-15.457Q460-530.913 460-553.001v-62.477q0-22.087-15.457-37.544-15.456-15.457-37.544-15.457h-62.477q-22.087 0-37.544 15.457-15.457 15.457-15.457 37.544v62.477q0 22.088 15.457 37.544Q322.435-500 344.522-500Zm208.479 208.479h62.477q22.087 0 37.544-15.457 15.457-15.457 15.457-37.544v-62.477q0-22.088-15.457-37.544Q637.565-460 615.478-460h-62.477q-22.088 0-37.544 15.457Q500-429.087 500-406.999v62.477q0 22.087 15.457 37.544 15.456 15.457 37.544 15.457Zm0-208.479h62.477q22.087 0 37.544-15.457 15.457-15.456 15.457-37.544v-62.477q0-22.087-15.457-37.544-15.457-15.457-37.544-15.457h-62.477q-22.088 0-37.544 15.457Q500-637.565 500-615.478v62.477q0 22.088 15.457 37.544Q530.913-500 553.001-500ZM166.783-140.782q-44.305 0-75.153-30.848-30.848-30.848-30.848-75.153v-466.434q0-44.305 30.848-75.153 30.848-30.848 75.153-30.848h626.434q44.305 0 75.153 30.848 30.848 30.848 30.848 75.153v466.434q0 44.305-30.848 75.153-30.848 30.848-75.153 30.848H166.783Zm0-106.001h626.434v-466.434H166.783v466.434Zm0 0v-466.434 466.434Z"/></svg>