<svg xmlns="http://www.w3.org/2000/svg" height="24" viewBox="0 -960 960 960" width="24"><path d="M369-339h48q12.75 0 21.375-8.625T447-369v-48q0-12.75-8.625-21.375T417-447h-48q-12.75 0-21.375 8.625T339-417v48q0 12.75 8.625 21.375T369-339Zm0-174h48q12.75 0 21.375-8.625T447-543v-48q0-12.75-8.625-21.375T417-621h-48q-12.75 0-21.375 8.625T339-591v48q0 12.75 8.625 21.375T369-513Zm174 174h48q12.75 0 21.375-8.625T621-369v-48q0-12.75-8.625-21.375T591-447h-48q-12.75 0-21.375 8.625T513-417v48q0 12.75 8.625 21.375T543-339Zm0-174h48q12.75 0 21.375-8.625T621-543v-48q0-12.75-8.625-21.375T591-621h-48q-12.75 0-21.375 8.625T513-591v48q0 12.75 8.625 21.375T543-513ZM192-212q-26 0-43-17t-17-43v-416q0-26 17-43t43-17h576q26 0 43 17t17 43v416q0 26-17 43t-43 17H192Z"/></svg>