<svg xmlns="http://www.w3.org/2000/svg" height="20" viewBox="0 -960 960 960" width="20"><path d="M328-215q-23 0-40.5-16.812Q270-248.625 270-272q0-23.375 17.5-39.688Q305-328 328-328t39.5 16.1Q384-295.8 384-272q0 23.375-16.1 40.188Q351.8-215 328-215Zm152 0q-23.8 0-39.9-16.812Q424-248.625 424-272q0-23.375 16.1-39.688Q456.2-328 480-328q23.8 0 39.9 16.1Q536-295.8 536-272q0 23.375-16.1 40.188Q503.8-215 480-215Zm152 0q-23 0-39.5-16.812Q576-248.625 576-272q0-23.375 16.1-39.688Q608.2-328 632-328q23 0 40.5 16.1T690-272q0 23.375-17.5 40.188Q655-215 632-215ZM182-400v-118q0-103.239 69.1-182T421-798v-87h118v87.429Q640-779 709-700.668 778-622.336 778-518v118H182Zm118-118h360q0-72-55.726-120t-124.5-48Q411-686 355.5-637.84T300-518Zm28 443q-23 0-40.5-16.1T270-131q0-23.425 17.5-40.212Q305-188 328-188t39.5 16.788Q384-154.425 384-131q0 23.425-16.1 39.713Q351.8-75 328-75Zm152 0q-23.8 0-39.9-16.1Q424-107.2 424-131q0-23 16.1-40.5T480-189q23.8 0 39.9 17.5Q536-154 536-131t-16.1 39.5Q503.8-75 480-75Zm152 0q-23 0-39.5-16.1T576-131q0-23.425 16.1-40.212Q608.2-188 632-188q23 0 40.5 16.788Q690-154.425 690-131q0 23.425-17.5 39.713Q655-75 632-75ZM480-518Z"/></svg>