<svg xmlns="http://www.w3.org/2000/svg" height="24" viewBox="0 -960 960 960" width="24"><path d="M321.512-261.54q-15.05 0-25.204-10.181t-10.154-25.23q0-15.05 10.181-25.204t25.231-10.154q15.049 0 25.203 10.181t10.154 25.231q0 15.049-10.181 25.203t-25.23 10.154Zm158.461 0q-15.05 0-25.204-10.181-10.153-10.181-10.153-25.23 0-15.05 10.18-25.204 10.181-10.154 25.231-10.154 15.05 0 25.204 10.181 10.153 10.181 10.153 25.231 0 15.049-10.18 25.203-10.181 10.154-25.231 10.154Zm158.461 0q-15.049 0-25.203-10.181t-10.154-25.23q0-15.05 10.181-25.204t25.23-10.154q15.05 0 25.204 10.181t10.154 25.231q0 15.049-10.181 25.203t-25.231 10.154ZM220.001-420.001V-480q0-100.23 65.885-173.422 65.884-73.192 164.115-84.115v-82.462h59.998v82.462q98.231 10.923 164.115 84.115Q739.999-580.23 739.999-480v59.999H220.001Zm101.511 276.922q-15.05 0-25.204-10.18-10.154-10.181-10.154-25.231 0-15.05 10.181-25.203 10.181-10.154 25.231-10.154 15.049 0 25.203 10.181 10.154 10.18 10.154 25.23t-10.181 25.204q-10.181 10.153-25.23 10.153Zm158.461 0q-15.05 0-25.204-10.18-10.153-10.181-10.153-25.231 0-15.05 10.18-25.203 10.181-10.154 25.231-10.154 15.05 0 25.204 10.181 10.153 10.18 10.153 25.23t-10.18 25.204q-10.181 10.153-25.231 10.153Zm158.461 0q-15.049 0-25.203-10.18-10.154-10.181-10.154-25.231 0-15.05 10.181-25.203 10.181-10.154 25.23-10.154 15.05 0 25.204 10.181 10.154 10.18 10.154 25.23t-10.181 25.204q-10.181 10.153-25.231 10.153Z"/></svg>