<svg xmlns="http://www.w3.org/2000/svg" height="24" viewBox="0 -960 960 960" width="24"><path d="M311.521-218.521q-20.391 0-34.717-13.937-14.327-13.938-14.327-34.541 0-20.604 14.327-34.541 14.326-13.938 34.717-13.938 20.392 0 34.435 13.938Q360-287.603 360-266.999q0 20.603-13.938 34.541-13.937 13.937-34.541 13.937Zm168.479 0q-20.603 0-34.541-13.937-13.938-13.938-13.938-34.541 0-20.604 13.938-34.541 13.938-13.938 34.541-13.938 20.603 0 34.541 13.938 13.938 13.937 13.938 34.541 0 20.603-13.938 34.541-13.938 13.937-34.541 13.937Zm168.479 0q-20.392 0-34.435-13.937Q600-246.396 600-266.999q0-20.604 13.938-34.541 13.937-13.938 34.541-13.938 20.391 0 34.717 13.938 14.327 13.937 14.327 34.541 0 20.603-14.327 34.541-14.326 13.937-34.717 13.937ZM180.782-395.478v-106.001q0-107.696 70.543-188.522 70.544-80.827 175.674-98.218v-90.783h106.002v90.783q105.13 17.391 175.674 97.935 70.543 80.544 70.543 188.805v106.001H180.782Zm130.739 314.48q-20.391 0-34.717-13.938-14.327-13.937-14.327-34.541 0-20.391 14.327-34.717 14.326-14.327 34.717-14.327 20.392 0 34.435 14.327Q360-149.868 360-129.477q0 20.392-13.938 34.435-13.937 14.044-34.541 14.044Zm168.479 0q-20.603 0-34.541-13.938-13.938-13.937-13.938-34.541 0-20.391 13.938-34.717 13.938-14.327 34.541-14.327 20.603 0 34.541 14.327 13.938 14.326 13.938 34.717 0 20.392-13.938 34.435Q500.603-80.998 480-80.998Zm168.479 0q-20.392 0-34.435-13.938Q600-108.873 600-129.477q0-20.391 13.938-34.717 13.937-14.327 34.541-14.327 20.391 0 34.717 14.327 14.327 14.326 14.327 34.717 0 20.392-14.327 34.435-14.326 14.044-34.717 14.044Z"/></svg>