<svg xmlns="http://www.w3.org/2000/svg" height="20" viewBox="0 -960 960 960" width="20"><path d="M339.413-243.913q-18.435 0-32.131-13.531-13.695-13.531-13.695-32.056 0-18.524 13.695-31.556 13.696-13.031 32.131-13.031 18.435 0 31.511 12.819T384-289.5q0 18.525-12.819 32.056-12.819 13.531-31.768 13.531Zm140.587 0q-18.949 0-31.768-13.531-12.819-13.531-12.819-32.056 0-18.524 12.819-31.556 12.819-13.031 31.768-13.031 18.949 0 31.768 12.819 12.819 12.819 12.819 31.768 0 18.525-12.819 32.056-12.819 13.531-31.768 13.531Zm140.587 0q-18.435 0-31.511-13.531T576-289.5q0-18.524 12.819-31.556 12.819-13.031 31.768-13.031 18.435 0 32.131 12.819 13.695 12.819 13.695 31.768 0 18.525-13.695 32.056-13.696 13.531-32.131 13.531ZM207.869-406.087v-83q0-100.957 65.677-175.913 65.676-74.957 164.954-89.631V-832.5h83v78.298q99.478 14.006 165.055 88.914 65.576 74.908 65.576 176.201v83H207.869ZM339.413-127.5q-18.435 0-32.131-12.818-13.695-12.819-13.695-31.769 0-18.859 13.695-31.843 13.696-12.983 32.131-12.983 18.435 0 31.511 12.983Q384-190.946 384-172.087q0 18.86-12.819 31.724-12.819 12.863-31.768 12.863Zm140.587 0q-18.949 0-31.768-12.818-12.819-12.819-12.819-31.769 0-18.434 12.819-32.13 12.819-13.696 31.768-13.696 18.949 0 31.768 13.696 12.819 13.696 12.819 32.13 0 18.435-12.819 31.511T480-127.5Zm140.587 0q-18.435 0-31.511-12.818Q576-153.137 576-172.087q0-18.859 12.819-31.843 12.819-12.983 31.768-12.983 18.435 0 32.131 12.983 13.695 12.984 13.695 31.843 0 18.86-13.695 31.724-13.696 12.863-32.131 12.863Z"/></svg>