<svg xmlns="http://www.w3.org/2000/svg" height="20" viewBox="0 -960 960 960" width="20"><path d="M344.512-274.54q-15.05 0-26.204-11.181t-11.154-26.23q0-15.05 11.181-25.704t26.231-10.654q15.049 0 25.703 10.469 10.654 10.468 10.654 25.943 0 15.049-10.468 26.203-10.469 11.154-25.943 11.154Zm135.461 0q-15.475 0-25.916-11.181t-10.441-26.23q0-15.05 10.468-25.704t25.943-10.654q15.475 0 25.916 10.469 10.441 10.468 10.441 25.943 0 15.049-10.468 26.203t-25.943 11.154Zm135.461 0q-15.049 0-25.703-11.181t-10.654-26.23q0-15.05 10.468-25.704 10.469-10.654 25.943-10.654 15.05 0 26.204 10.469 11.154 10.468 11.154 25.943 0 15.049-11.181 26.203t-26.231 11.154ZM236.001-428.001V-480q0-94.469 62.485-163.422 62.484-68.953 155.515-79.115v-73.462h51.998v73.89q93.231 9.495 155.615 78.519 62.385 69.024 62.385 163.59v51.999H236.001Zm108.511 260.922q-15.05 0-26.204-10.468t-11.154-25.943q0-15.475 11.181-25.916t26.231-10.441q15.049 0 25.703 10.468t10.654 25.943q0 15.475-10.468 25.916-10.469 10.441-25.943 10.441Zm135.461 0q-15.475 0-25.916-10.468t-10.441-25.943q0-15.05 10.468-26.203 10.468-11.154 25.943-11.154 15.475 0 25.916 11.181 10.441 11.18 10.441 26.23t-10.468 25.704q-10.468 10.653-25.943 10.653Zm135.461 0q-15.049 0-25.703-10.468t-10.654-25.943q0-15.475 10.468-25.916 10.469-10.441 25.943-10.441 15.05 0 26.204 10.468t11.154 25.943q0 15.475-11.181 25.916t-26.231 10.441Z"/></svg>