<svg xmlns="http://www.w3.org/2000/svg" height="20" viewBox="0 -960 960 960" width="20"><path d="M816.231-97.154 730.154-184H192.615q-23.354 0-39.984-16.642Q136-217.285 136-240.656v-383.012q0-23.371 16.337-39.851Q168.674-680 191.615-680h57.616v15.077L115.248-799.829q-4.479-4.556-4.364-10.094.116-5.539 5.731-11.154 5.616-5.615 10.769-5.615 5.154 0 11.107 5.952l699.941 699.942q5.183 5.183 5.568 11.288.385 6.104-5.231 11.356-5.615 5.616-11.269 6.116t-11.269-5.116ZM824-235.692l-207.769-207q-.385-24.154-11.577-47.577t-29.38-40.594q-17.582-16.599-39.435-26.791-21.852-10.192-45.147-10.577L337.923-721.769l21.615-30.616q8.849-11.515 20.995-17.565Q392.679-776 406-776h148.182q13.493 0 25.462 6.05t20.818 17.565L655.077-680h112.308q23.354 0 39.984 16.631Q824-646.739 824-623.385v387.693Zm-344-59.077q26.485 0 52.242-11.231Q558-317.231 579-335.154L383.154-531q-18.923 20-29.654 46.258-10.731 26.257-10.731 52.742 0 57.18 40.026 97.205Q422.82-294.769 480-294.769Zm.263-32q-43.917 0-74.705-30.311-30.789-30.311-30.789-74.209 0-20.904 8.27-39.615 8.269-18.711 23.179-34.25l147.936 147.308q-15.539 15.538-34.258 23.307-18.72 7.77-39.633 7.77Z"/></svg>