<svg xmlns="http://www.w3.org/2000/svg" height="20" viewBox="0 -960 960 960" width="20"><path d="m783.218-71.39-53.391-53.392H174.783q-41.005 0-69.503-28.51-28.498-28.51-28.498-69.531V-641.5q0-41.022 28.204-69.37 28.205-28.348 68.797-28.348h19.825v78.217L80.633-775.465Q68.87-787.304 69.37-802.717q.5-15.413 12.63-27.544 12.13-12.13 27.826-12.13t28.163 12.467l701.544 700.979q12.468 12.467 12.185 28.627-.283 16.16-12.413 27.927-12.131 12.13-28.044 12.63t-28.043-11.63Zm100-127.74L652.087-429.131q2.174-35.174-11.891-68.565-14.066-33.391-39.771-58.079-25.338-24.355-57.159-37.421-31.821-13.065-66.7-10.891L307.043-774.175l21.913-28.087q14.392-16.261 33.243-24.608 18.851-8.348 39.453-8.348h156.877q20.21 0 39.167 8.348 18.956 8.347 33.348 24.608l51.13 63.044h103.043q41.005 0 69.503 28.498 28.498 28.498 28.498 69.503v442.087Zm-400.957-59.218q23 0 46.065-6.717 23.065-6.717 44.065-17.717L330.782-524.391q-12 20-18.217 43.565-6.217 23.565-6.217 46.565 0 73.391 51.261 124.652 51.261 51.261 124.652 51.261Zm-2.947-87.261q-35.357 0-60.531-24.696t-25.174-60.034q0-17.285 6.652-32.864 6.652-15.579 18.894-28.449l121.497 120.869q-12.87 12.87-28.457 19.022-15.587 6.152-32.881 6.152Z"/></svg>