<svg xmlns="http://www.w3.org/2000/svg" height="24" viewBox="0 -960 960 960" width="24"><path d="M789.848-53.13 688.37-154.37v6.565H33.304v-120.609q0-36.224 18.743-66.589 18.742-30.365 49.801-46.346 62.239-31.239 126.712-46.978 64.474-15.739 130.962-15.739 10.848 0 20.956.5 10.109.5 19.957 1.261l-43.196-43.435H350.674q-63.131-2.631-108.098-47.718t-47.598-107.978V-648L53.848-789.13l59.63-59.392 736 736-59.63 59.392Zm-65.544-357.153V-528.37H606.218v-83.826h118.086v-118.087h83.827v118.087h118.087v83.826H808.131v118.087h-83.827Zm-218.63-159.804-70.457-70.457q1.196-2.195 2.272-5.228 1.076-3.033 1.076-6.424 0-31.718-22.657-54.304-22.657-22.587-54.473-22.587-3.392 0-6.185.837-2.794.837-5.228 2.272l-70.457-70.218q16.913-11.587 38.361-17.739 21.448-6.152 43.509-6.152 69.587 0 118.859 49.152 49.271 49.152 49.271 118.739 0 22.065-6.271 43.87-6.272 21.804-17.62 38.239Zm-381.37 331.283H597.37l-81.457-88.261q-37.761-12.522-76.761-19.261-39-6.739-77.717-6.739-55.522 0-110.283 13.38-54.761 13.381-106.848 39.185-9 4.895-14.5 13.705t-5.5 19.578v28.413Zm310.913-401.74Zm-73.782 401.74Z"/></svg>