<svg xmlns="http://www.w3.org/2000/svg" height="24" viewBox="0 -960 960 960" width="24"><path d="M789.848-53.13 688.37-154.37v6.565H33.304v-120.609q0-36.152 18.696-66.565 18.696-30.413 49.848-46.37 62.239-31.239 126.717-46.978 64.478-15.739 130.957-15.739 10.848 0 20.956.5 10.109.5 19.957 1.261l-43.196-43.435H350.674q-63.131-2.631-108.098-47.718t-47.598-107.978V-648L53.848-789.13l59.63-59.392 736 736-59.63 59.392Zm-65.544-357.153V-528.37H606.218v-83.826h118.086v-118.087h83.827v118.087h118.087v83.826H808.131v118.087h-83.827Zm-218.63-159.804L279.565-796.196q16.913-11.587 38.359-17.739 21.446-6.152 43.511-6.152 69.587 0 118.859 49.152 49.271 49.152 49.271 118.739 0 22.065-6.271 43.87-6.272 21.804-17.62 38.239Z"/></svg>