<svg xmlns="http://www.w3.org/2000/svg" height="20" viewBox="0 -960 960 960" width="20"><path d="M140 0q-17.6 0-30.8-12.7T96-44q0-17.6 13.2-30.8T140-88h680q17.6 0 30.8 12.7T864-44q0 17.6-13.2 30.8T820 0H140Zm124-317h34l331-332-16-18-17-15-332 331v34Zm-20-6.078V-349q0-6 1.5-10t5.5-8l396-396q5-5 8.836-6 3.836-1 7-1 4.164 0 6.664 1t6.604 4.941L709-732q4 5 5.5 8t1.5 7.391q0 3.491-1.448 7.532-1.447 4.041-5.242 7.834L313-305q-4 4-8 6t-10 2h-24.922q-11.333 0-18.705-7.373Q244-311.745 244-323.078ZM696-718l-34-32 34 32Zm-67 69-16-18-17-15 33 33Z"/></svg>