<svg xmlns="http://www.w3.org/2000/svg" height="20" viewBox="0 -960 960 960" width="20"><path d="M200.479 0q-43.557 0-74.018-30.744Q96-61.487 96-105.044t30.744-74.018q30.743-30.461 74.3-30.461h558.477q43.557 0 74.018 30.461T864-105.044q0 43.557-30.744 74.3Q802.513 0 758.956 0H200.479Zm-9.609-354.602v-86.66q0-10.826 3.847-19.304 3.848-8.479 10.544-15.174l383.652-384.783q12.696-12.695 26.662-17.978 13.967-5.283 29.261-5.283 15.294 0 29.708 5.283 14.413 5.283 26.648 17.354l44.112 42.58q12.131 12.696 17.979 27.392 5.847 14.696 5.847 30.217 0 15.187-5.512 29.641-5.513 14.455-17.438 26.378L361.087-319.914q-6.696 6.696-15.174 10.543-8.478 3.848-19.304 3.848h-86.66q-20.421 0-34.75-14.329t-14.329-34.75Zm440.564-349.529 56.653-56.653-41.957-42.521-57.217 57.218 42.521 41.956Z"/></svg>