<svg xmlns="http://www.w3.org/2000/svg" height="20" viewBox="0 -960 960 960" width="20"><path d="M679.769-100q-45.538 0-84.692-31.231-39.154-31.23-56.385-77.615-11.461-31.846-41.807-71.077-30.347-39.231-69.808-71.462-59.462-46.461-92.885-111.769Q300.769-528.461 300.769-598q0-109.308 75.346-184.654Q451.461-858 560.769-858q99.077 0 171.423 61.846Q804.539-734.308 818-639.231q1.231 8.539-5.385 15.885Q806-616 795.231-616q-8.077 0-14.039-6-5.961-6-7.423-14.538-13.231-77.231-72.884-127.347Q641.231-814 560.769-814q-88.692 0-152.346 63.654Q344.769-686.692 344.769-598q0 64.077 34.5 123.885 34.5 59.807 84.27 96.576 43.384 32.693 68.423 64.962 25.038 32.269 41.884 76.885 14.077 33.769 41.577 62.73Q642.923-144 679.769-144q30.692 0 54.962-17.5Q759-179 769.769-206.692q4.154-7.539 9.885-11.923Q785.385-223 792.231-223q16.769 0 21 10.961 4.231 10.962-1.462 27.039-16.23 37.539-51.577 61.269Q724.846-100 679.769-100Zm-434-227.461q-49-57.693-76-125.885-27-68.192-27-144.654 0-74.923 24.846-143.731 24.846-68.808 73.846-126.5 4.847-4.538 12.616-4.269 7.769.269 15.615 6.115 6.616 5.616 7.231 13.77.616 8.154-5 15.23-41.077 51.077-63.115 112.308Q186.769-663.846 186.769-598q0 65.615 22.039 125.461 22.038 59.847 63.115 109.924 5.616 7.076 5.5 15.73-.115 8.654-6.731 15.27-6.077 5.846-13.077 7.269t-11.846-3.115Zm316-184.924q-35.846 0-61.231-25-25.384-25-25.384-61.615 0-35.846 25.384-61.231 25.385-25.384 61.231-25.384 35.846 0 61.231 25.384 25.385 25.385 25.385 61.231 0 36.615-25.385 61.615t-61.231 25Z"/></svg>