<svg xmlns="http://www.w3.org/2000/svg" height="20" viewBox="0 -960 960 960" width="20"><path d="M684.978-73.304q-55.913 0-100.348-33.435-44.434-33.435-62.434-83.957-13.239-38.717-39.979-74.076-26.739-35.358-67.26-67.88-60.044-47.044-97.261-116.239-37.218-69.196-37.218-147.913 0-119.153 83.174-202.326 83.174-83.174 202.326-83.174 106.24 0 185.816 68.597 79.576 68.598 96.489 172.033 3.196 20.587-10.12 36.478-13.315 15.892-37.141 15.892-17.152 0-30.968-12.315-13.815-12.316-17.532-31.229-14.718-66.326-66.065-110.391-51.348-44.065-120.479-44.065-78.608 0-134.554 55.945-55.945 55.946-55.945 134.555 0 60.043 29.38 111.108 29.38 51.066 78.38 87.066 47.283 34.521 75.544 70.782 28.261 36.261 41.261 76.5 11 33.239 32.424 58.141 21.423 24.903 52.271 24.903 21.087 0 38.152-11.424 17.066-11.424 26.109-29.989 8.717-18.153 21.413-27.87 12.696-9.717 26.891-9.717 30.305 0 41.74 20.25 11.435 20.25 1.761 47.315-18.435 47.913-60.772 77.174-42.337 29.26-95.055 29.26ZM212.326-313.978q-48.283-61.913-74.565-133.25-26.283-71.337-26.283-149.576 0-77.283 24.924-149.381t73.206-133.772q12.674-16.587 32.903-17.445 20.228-.859 36.859 13.772 12.717 11.717 13.836 29.913 1.12 18.195-10.119 32.913-37.283 49.195-56.946 106.195-19.663 57-19.663 117.805 0 59.804 19.783 116.163 19.782 56.358 57.065 104.554 11.239 14.957 10.5 33.533-.739 18.576-13.456 31.532-15.392 14.631-35.501 14.011-20.108-.619-32.543-16.967Zm354.652-181.826q-42 0-72-30t-30-72q0-42 30-72t72-30q42 0 72 30t30 72q0 42-30 72t-72 30Z"/></svg>