<svg xmlns="http://www.w3.org/2000/svg" height="20" viewBox="0 -960 960 960" width="20"><path d="M693.131-64.173q-58.522 0-104.913-35.392-46.392-35.391-64.392-85.261-13.565-39.695-40.63-75.543-27.066-35.848-66.935-67.718-58.739-45.739-96.935-116.565-38.196-70.826-38.196-150.522 0-122.087 85.457-207.544 85.457-85.456 207.544-85.456 106.565 0 187.609 69.413 81.044 69.413 100.566 174.804 4.826 25.479-10.283 44.631-15.109 19.153-44.153 19.153-20.087 0-35.696-14.109-15.609-14.109-20.304-35.631-15.696-64.043-64.109-106.152-48.413-42.108-113.63-42.108-75.347 0-129.173 53.826-53.826 53.826-53.826 129.173 0 58.739 29.217 107.848 29.218 49.108 78.218 85.108 46.304 33.87 74.239 69.805 27.934 35.934 40.934 76.5 11 33.565 30.957 57.652 19.956 24.087 47.869 24.087 18.478 0 33.586-9.957 15.109-9.956 22.848-26.565 9.696-21.087 24.022-31.783 14.326-10.695 30.152-10.695 36.175 0 49.566 24 13.392 24 1.435 56.609-20.391 50.522-63.87 79.457-43.478 28.935-97.174 28.935ZM195.042-307.13q-47.304-64.522-72.609-137-25.304-72.479-25.304-151.044 0-76.304 23.457-149.217 23.456-72.913 70.76-136.87 14.957-21.479 39.588-22.827 24.631-1.347 44.848 16.87 13.696 12.696 14.979 32.522 1.282 19.826-10.283 35.522-36.304 50.826-54.826 107.826-18.522 57-18.522 116.174 0 58.174 18.805 115.022 18.804 56.848 55.108 106.674 11.566 16.261 10.5 36.305-1.065 20.043-14.761 34.304-18.652 18.218-43 17.435-24.349-.782-38.74-21.696Zm380.089-187.044q-42 0-72-30t-30-72q0-42 30-72t72-30q42 0 72 30t30 72q0 42-30 72t-72 30Z"/></svg>