<svg xmlns="http://www.w3.org/2000/svg" height="24" viewBox="0 -960 960 960" width="24"><path d="M480-387.692q38.462 0 65.385-26.923 26.923-26.923 26.923-65.385t-26.923-65.385Q518.462-572.308 480-572.308t-65.385 26.923Q387.692-518.462 387.692-480t26.923 65.385q26.923 26.923 65.385 26.923Zm196.462 76.461q30.769-35.384 46.384-78.692 15.616-43.308 15.616-90.077t-15.616-90.077q-15.615-43.308-46.384-78.692l-28.308 28.307q24.384 29.77 37.346 65.885 12.961 36.115 12.961 74.577 0 38.462-12.961 74.577-12.962 36.115-37.346 65.885l28.308 28.307Zm-392.924 0 28.308-28.307q-24.384-29.77-37.346-65.885-12.961-36.115-12.961-74.577 0-38.462 12.961-74.577 12.962-36.115 37.346-65.885l-28.308-28.307q-30.769 35.384-46.384 78.692-15.616 43.308-15.616 90.077t15.616 90.077q15.615 43.308 46.384 78.692ZM120-200v-560h720v560H120Z"/></svg>