<svg xmlns="http://www.w3.org/2000/svg" height="20" viewBox="0 -960 960 960" width="20"><path d="M480-360q50 0 85-35t35-85q0-50-35-85t-85-35q-50 0-85 35t-35 85q0 50 35 85t85 35Zm174 54q36-33 55.5-78.64t19.5-95.5Q729-530 709.5-576T654-655l-50 50q24 24 38.5 56.916T657-480q0 35.168-14 68.584Q629-378 604-355l50 49Zm-348 0 50-49q-25-23-39-56.416T303-480q0-35.168 14.5-68.084Q332-581 356-605l-50-50q-36 34-55.5 79.379-19.5 45.378-19.5 95.5Q231-430 250.5-384.5 270-339 306-306ZM62-158v-644h836v644H62Z"/></svg>