<svg xmlns="http://www.w3.org/2000/svg" height="24" viewBox="0 -960 960 960" width="24"><path d="M280-260q-8.5 0-14.25-5.758-5.75-5.757-5.75-14.269t5.75-14.242Q271.5-300 280-300h400q8.5 0 14.25 5.758 5.75 5.757 5.75 14.269t-5.75 14.242Q688.5-260 680-260H280Zm200-391.692L310.154-481.846q-5.615 5.615-13.769 6-8.154.385-14.539-6T275.461-496q0-7.769 6.385-14.154l175.539-175.538q9.692-9.693 22.615-9.693 12.923 0 22.615 9.693l175.539 175.538q5.615 5.615 6 13.769.385 8.154-6 14.539T664-475.461q-7.769 0-14.154-6.385L480-651.692Z"/></svg>