<svg xmlns="http://www.w3.org/2000/svg" height="24" viewBox="0 -960 960 960" width="24"><path d="M680-107.999q-22.087 0-37.544-15.457-15.457-15.457-15.457-37.544v-66.999H560q-22.087 0-37.544-15.457-15.457-15.457-15.457-37.544 0-22.087 15.457-37.544 15.457-15.457 37.544-15.457h66.999V-401q0-22.087 15.457-37.544 15.457-15.457 37.544-15.457 22.087 0 37.544 15.457 15.457 15.457 15.457 37.544v66.999H800q22.087 0 37.544 15.457 15.457 15.457 15.457 37.544 0 22.087-15.457 37.544-15.457 15.457-37.544 15.457h-66.999V-161q0 22.087-15.457 37.544-15.457 15.457-37.544 15.457Zm-338.521-92.999q-22.087 0-37.544-15.457-15.456-15.456-15.456-37.544 0-22.087 15.456-37.544 15.457-15.456 37.544-15.456h87.39q-1.304 28.348 1.457 53.566 2.761 25.217 13.109 52.435H341.479Zm0-177.523q-22.087 0-37.544-15.456-15.456-15.457-15.456-37.544 0-22.088 15.456-37.544 15.457-15.457 37.544-15.457h188.694q-27.522 20.522-48 47.305-20.479 26.783-33.348 58.696H341.479Zm0-176.957q-22.087 0-37.544-15.457-15.456-15.456-15.456-37.544 0-22.087 15.456-37.544 15.457-15.456 37.544-15.456h383.043q22.087 0 37.544 15.456 15.457 15.457 15.457 37.544 0 22.088-15.457 37.544-15.457 15.457-37.544 15.457H341.479Zm0-177.523q-22.087 0-37.544-15.456-15.456-15.457-15.456-37.544 0-22.088 15.456-37.544 15.457-15.457 37.544-15.457h383.043q22.087 0 37.544 15.457 15.457 15.456 15.457 37.544 0 22.087-15.457 37.544-15.457 15.456-37.544 15.456H341.479Zm-186.001 0q-22.087 0-37.544-15.456-15.457-15.457-15.457-37.544 0-22.088 15.457-37.544 15.457-15.457 37.544-15.457 22.087 0 37.544 15.457 15.457 15.456 15.457 37.544 0 22.087-15.457 37.544-15.457 15.456-37.544 15.456Zm0 177.523q-22.087 0-37.544-15.457-15.457-15.456-15.457-37.544 0-22.087 15.457-37.544 15.457-15.456 37.544-15.456 22.087 0 37.544 15.456 15.457 15.457 15.457 37.544 0 22.088-15.457 37.544-15.457 15.457-37.544 15.457Zm0 176.957q-22.087 0-37.544-15.456-15.457-15.457-15.457-37.544 0-22.088 15.457-37.544 15.457-15.457 37.544-15.457 22.087 0 37.544 15.457 15.457 15.456 15.457 37.544 0 22.087-15.457 37.544-15.457 15.456-37.544 15.456Zm0 177.523q-22.087 0-37.544-15.457-15.457-15.456-15.457-37.544 0-22.087 15.457-37.544 15.457-15.456 37.544-15.456 22.087 0 37.544 15.456 15.457 15.457 15.457 37.544 0 22.088-15.457 37.544-15.457 15.457-37.544 15.457Z"/></svg>