<svg xmlns="http://www.w3.org/2000/svg" height="20" viewBox="0 -960 960 960" width="20"><path d="M672.175-170q-4.175 0-7.049-2.875-2.874-2.875-2.874-7.125v-98h-98.168q-4.286 0-7.185-2.885t-2.899-7.15q0-4.265 2.899-7.115 2.899-2.85 7.185-2.85h98.168v-98q0-4.25 2.909-7.125t7.108-2.875q4.199 0 7.004 2.875 2.805 2.875 2.805 7.125v98h97.688q4.184 0 7.209 2.825 3.025 2.824 3.025 7 0 4.175-2.875 7.025-2.875 2.85-7.125 2.85h-98v98q0 4.25-2.825 7.275-2.824 3.025-7 3.025ZM224-218q-4.25 0-7.125-2.825-2.875-2.824-2.875-7 0-4.175 2.875-7.175t7.125-3h233q5 5.475 9 11.237 4 5.763 9 8.763H224Zm0-168q-4.25 0-7.125-2.825-2.875-2.824-2.875-7 0-4.175 2.944-7.175t7.297-3H489q3 7 4.5 11.5t1.5 8.5H224Zm0-168q-4.25 0-7.125-2.825-2.875-2.824-2.875-7 0-4.175 2.875-7.175t7.125-3h556q4.25 0 7.125 2.825 2.875 2.824 2.875 7 0 4.175-2.875 7.175T780-554H224Zm0-168q-4.25 0-7.125-2.825-2.875-2.824-2.875-7 0-4.175 2.875-7.175t7.125-3h556q4.25 0 7.125 2.825 2.875 2.824 2.875 7 0 4.175-2.875 7.175T780-722H224Zm-91.825 0Q128-722 125-724.825q-3-2.824-3-7 0-4.175 2.825-7.175 2.824-3 7-3 4.175 0 7.175 2.825 3 2.824 3 7 0 4.175-2.825 7.175-2.824 3-7 3Zm0 168Q128-554 125-556.825q-3-2.824-3-7 0-4.175 2.825-7.175 2.824-3 7-3 4.175 0 7.175 2.825 3 2.824 3 7 0 4.175-2.825 7.175-2.824 3-7 3Zm0 168Q128-386 125-388.825q-3-2.824-3-7 0-4.175 2.825-7.175 2.824-3 7-3 4.175 0 7.175 2.825 3 2.824 3 7 0 4.175-2.825 7.175-2.824 3-7 3Zm0 168Q128-218 125-220.825q-3-2.824-3-7 0-4.175 2.825-7.175 2.824-3 7-3 4.175 0 7.175 2.825 3 2.824 3 7 0 4.175-2.825 7.175-2.824 3-7 3Z"/></svg>