<svg xmlns="http://www.w3.org/2000/svg" height="20" viewBox="0 -960 960 960" width="20"><path d="M672.211-144q-15.211 0-25.585-10.35T636.252-180v-72h-72.168q-15.336 0-25.71-10.35T528-288q0-15.3 10.374-25.65Q548.748-324 564.084-324h72.168v-72q0-15.3 10.374-25.65Q657-432 672.234-432t25.539 10.35q10.305 10.35 10.305 25.65v72h71.688Q795-324 805.5-313.711q10.5 10.29 10.5 25.5 0 15.211-10.35 25.561T780-252.3h-72v72q0 15.3-10.289 25.8-10.29 10.5-25.5 10.5ZM324-192q-15.3 0-25.65-10.289-10.35-10.29-10.35-25.5Q288-243 298.35-253.5 308.7-264 324-264h110q2 19 6 37t12 35H324Zm0-168q-15.3 0-25.65-10.289-10.35-10.29-10.35-25.5Q288-411 298.419-421.5q10.419-10.5 25.822-10.5H481q-12 17-21.5 34.5T444-360H324Zm0-168q-15.3 0-25.65-10.289-10.35-10.29-10.35-25.5Q288-579 298.35-589.5 308.7-600 324-600h456q15.3 0 25.65 10.289 10.35 10.29 10.35 25.5Q816-549 805.65-538.5 795.3-528 780-528H324Zm0-168q-15.3 0-25.65-10.289-10.35-10.29-10.35-25.5Q288-747 298.35-757.5 308.7-768 324-768h456q15.3 0 25.65 10.289 10.35 10.29 10.35 25.5Q816-717 805.65-706.5 795.3-696 780-696H324Zm-143.789 0Q165-696 154.5-706.289q-10.5-10.29-10.5-25.5Q144-747 154.289-757.5q10.29-10.5 25.5-10.5Q195-768 205.5-757.711q10.5 10.29 10.5 25.5Q216-717 205.711-706.5q-10.29 10.5-25.5 10.5Zm0 168Q165-528 154.5-538.289q-10.5-10.29-10.5-25.5Q144-579 154.289-589.5q10.29-10.5 25.5-10.5Q195-600 205.5-589.711q10.5 10.29 10.5 25.5Q216-549 205.711-538.5q-10.29 10.5-25.5 10.5Zm0 168Q165-360 154.5-370.289q-10.5-10.29-10.5-25.5Q144-411 154.289-421.5q10.29-10.5 25.5-10.5Q195-432 205.5-421.711q10.5 10.29 10.5 25.5Q216-381 205.711-370.5q-10.29 10.5-25.5 10.5Zm0 168Q165-192 154.5-202.289q-10.5-10.29-10.5-25.5Q144-243 154.289-253.5q10.29-10.5 25.5-10.5Q195-264 205.5-253.711q10.5 10.29 10.5 25.5Q216-213 205.711-202.5q-10.29 10.5-25.5 10.5Z"/></svg>