<svg xmlns="http://www.w3.org/2000/svg" height="20" viewBox="0 -960 960 960" width="20"><path d="M672.184-164q-6.723 0-11.327-4.6-4.605-4.6-4.605-11.4v-92h-92.168q-6.836 0-11.46-4.608Q548-281.215 548-288.027t4.624-11.392q4.624-4.581 11.46-4.581h92.168v-92q0-6.8 4.632-11.4 4.631-4.6 11.377-4.6 6.745 0 11.281 4.6 4.536 4.6 4.536 11.4v92h91.688q6.734 0 11.484 4.547t4.75 11.269q0 6.723-4.6 11.303-4.6 4.581-11.4 4.581h-92v92q0 6.8-4.547 11.55-4.547 4.75-11.269 4.75ZM236-212q-6.8 0-11.4-4.547-4.6-4.547-4.6-11.269 0-6.723 4.6-11.453Q229.2-244 236-244h215.692Q456-235.404 460-226.817q4 8.586 9.692 14.817H236Zm0-168q-6.8 0-11.4-4.547-4.6-4.547-4.6-11.269 0-6.723 4.669-11.453 4.67-4.731 11.572-4.731h250.913q-.462 9.308-1.5 16.808-1.039 7.5-2.423 15.192H236Zm0-168q-6.8 0-11.4-4.547-4.6-4.547-4.6-11.269 0-6.723 4.6-11.453Q229.2-580 236-580h544q6.8 0 11.4 4.547 4.6 4.547 4.6 11.269 0 6.723-4.6 11.453Q786.8-548 780-548H236Zm0-168q-6.8 0-11.4-4.547-4.6-4.547-4.6-11.269 0-6.723 4.6-11.453Q229.2-748 236-748h544q6.8 0 11.4 4.547 4.6 4.547 4.6 11.269 0 6.723-4.6 11.453Q786.8-716 780-716H236Zm-103.816 0q-6.723 0-11.453-4.547Q116-725.094 116-731.816q0-6.723 4.547-11.453Q125.094-748 131.816-748q6.723 0 11.453 4.547Q148-738.906 148-732.184q0 6.723-4.547 11.453Q138.906-716 132.184-716Zm0 168q-6.723 0-11.453-4.547Q116-557.094 116-563.816q0-6.723 4.547-11.453Q125.094-580 131.816-580q6.723 0 11.453 4.547Q148-570.906 148-564.184q0 6.723-4.547 11.453Q138.906-548 132.184-548Zm0 168q-6.723 0-11.453-4.547Q116-389.094 116-395.816q0-6.723 4.547-11.453Q125.094-412 131.816-412q6.723 0 11.453 4.547Q148-402.906 148-396.184q0 6.723-4.547 11.453Q138.906-380 132.184-380Zm0 168q-6.723 0-11.453-4.547Q116-221.094 116-227.816q0-6.723 4.547-11.453Q125.094-244 131.816-244q6.723 0 11.453 4.547Q148-234.906 148-228.184q0 6.723-4.547 11.453Q138.906-212 132.184-212Z"/></svg>