<svg xmlns="http://www.w3.org/2000/svg" height="20" viewBox="0 -960 960 960" width="20"><path d="M125.347-135.869v-83.001h75.587v-605.261h379.131v48h179.001v231.544h-83.001V-693.13h-96v217.195h-83V-741.13h-213.13v522.26h188.652v83.001h-347.24Zm562.37 54.456-12.239-56.956q-13.043-4.522-25.065-10.783-12.022-6.261-22.543-15.543l-56.196 17-34.87-60.022L579-248.435q-2.239-12.565-2.12-27.684.12-15.12 2.12-27.685l-42.196-39.717 34.87-60.783 54.956 16q10.522-9.283 23.164-16.044 12.641-6.761 25.684-11.282l13.239-56.957h69.979l13.239 56.957q13.043 4.521 25.565 11.282 12.522 6.761 23.044 16.522l55.195-15.478 34.87 60.5-41.196 38.717q3.239 12.566 2.62 27.946-.62 15.38-3.62 27.946l42.196 39.717-34.87 59.783-56.195-16q-10.522 9.282-22.544 15.543-12.022 6.261-25.065 10.783l-14.239 56.956h-69.979Zm35.87-125.5q29.043 0 49.685-20.522 20.641-20.521 20.641-49.565 0-29.043-20.641-49.565-20.642-20.522-49.685-20.522-29.043 0-49.565 20.522T653.5-277q0 29.044 20.522 49.565 20.522 20.522 49.565 20.522ZM425.065-442.087q-15.717 0-26.815-11.098T387.152-480q0-15.717 11.098-26.815t26.815-11.098q15.717 0 26.815 11.098T462.978-480q0 15.717-11.098 26.815t-26.815 11.098ZM283.935-218.87v-522.26 522.26Z"/></svg>