<svg xmlns="http://www.w3.org/2000/svg" height="20" viewBox="0 -960 960 960" width="20"><path d="m806-54-88-87q-53 36-113.463 54.5Q544.075-68 480.169-68 393-68 317.013-100.584q-75.988-32.583-132.917-89.512T94.584-323.013Q62-399 62-486.169q0-63.906 18.5-124.368Q99-671 135-724l-87-89 61-61 758 759-61 61ZM268-442h149l-86.603-88H268v88Zm568 174L661-442h1l28-16 10-72-439-312q50-30 105.325-46Q421.649-904 480-904q88 0 163.487 32.584 75.488 32.583 132.417 89.512t89.512 132.417Q898-574 898-486q0 58.351-16 113.175Q866-318 836-268Z"/></svg>