<svg xmlns="http://www.w3.org/2000/svg" height="20" viewBox="0 -960 960 960" width="20"><path d="M359.74-25.39q-36.175 0-64.186-23.174Q267.542-71.74 262.738-108l-77.869-466.087q-4.131-23.217 10.043-39.957 14.175-16.739 37.392-16.739h495.957q23.218 0 37.392 16.739 14.174 16.74 10.043 39.957L697.827-108q-4.804 36.261-32.816 59.436Q637-25.39 600.826-25.39H359.74ZM480-296.738q51.696 0 87.544-35.848 35.847-35.848 35.847-87.544v-26.956q0-18.126-12.55-30.737-12.55-12.611-30.587-12.611t-30.798 12.611q-12.761 12.611-12.761 30.737v26.956q0 15.313-10.691 26.004T480-383.435q-15.313 0-26.004-10.691t-10.691-26.004v-26.956q0-18.126-12.551-30.737-12.55-12.611-30.587-12.611t-30.797 12.611q-12.761 12.611-12.761 30.737v26.956q0 51.696 35.847 87.544 35.848 35.848 87.544 35.848ZM616.957-673.13q-30.652 0-52.674-22.022t-22.022-52.675q0-31.218 22.022-52.957t52.674-21.739q31.218 0 52.957 21.739 21.74 21.739 21.74 52.957 0 30.653-21.74 52.675-21.739 22.022-52.957 22.022Zm-225.689-40.087q-45.878 0-78.4-32.297-32.522-32.296-32.522-78.174 0-46.443 32.297-78.682 32.296-32.24 78.174-32.24 46.443 0 78.683 32.014 32.239 32.014 32.239 78.457 0 45.878-32.014 78.4-32.014 32.522-78.457 32.522Z"/></svg>