<svg xmlns="http://www.w3.org/2000/svg" height="24" viewBox="0 -960 960 960" width="24"><path d="M360.74-17.39q-40.175 0-70.023-25.718T255.738-109l-63.869-478.087q-3.131-24.217 12.543-41.957 15.675-17.739 39.892-17.739h471.957q24.218 0 39.892 17.739 15.674 17.74 12.543 41.957L704.827-109q-5.131 40.174-34.979 65.892Q640-17.39 599.826-17.39H360.74ZM480-304.738q51.696 0 87.544-35.848 35.847-35.848 35.847-87.544v-30.956q0-19.826-13.761-33.587-13.76-13.761-33.587-13.761-19.826 0-33.587 13.761-13.761 13.761-13.761 33.587v30.956q0 11.913-8.391 20.304-8.391 8.391-20.304 8.391-11.913 0-20.304-8.391-8.391-8.391-8.391-20.304v-30.956q0-19.826-13.761-33.587-13.761-13.761-33.587-13.761-19.827 0-33.587 13.761-13.761 13.761-13.761 33.587v30.956q0 51.696 35.847 87.544 35.848 35.848 87.544 35.848ZM616.957-681.13q-30.652 0-52.674-22.022t-22.022-52.675q0-31.218 22.022-52.957t52.674-21.739q31.218 0 52.957 21.739 21.74 21.739 21.74 52.957 0 30.653-21.74 52.675-21.739 22.022-52.957 22.022Zm-233.914-32.087q-47.653 0-81.175-33.522t-33.522-81.174q0-48.218 33.522-81.457 33.522-33.24 81.175-33.24 48.217 0 81.457 33.24 33.239 33.239 33.239 81.457 0 47.652-33.239 81.174-33.24 33.522-81.457 33.522Z"/></svg>