<svg xmlns="http://www.w3.org/2000/svg" height="20" viewBox="0 -960 960 960" width="20"><path d="M480.5-131.384q-57.115 0-111.615-16.077-54.5-16.077-96.308-46-41.808-29.923-67.5-74.462-25.693-44.538-25.693-101.462v-48q0-8.192 8.193-11.904 8.192-3.711 15.862 2.192l46.1 42.097q9.692 7.692 10.692 19.846t-7.692 20.846l-34.77 34.77q38 69.153 97.846 106.115Q375.462-166.462 464-163.077v-337.846h-91.753q-6.786 0-11.516-4.52-4.731-4.521-4.731-11.27t4.581-11.48q4.58-4.73 11.419-4.73h92V-629q-35.231-6.385-59.616-34.259Q380-691.132 380-728.615q0-41.539 29.231-70.77 29.23-29.231 70.769-29.231t70.769 29.231Q580-770.154 580-728.615q0 37.923-24.385 65.576Q531.231-635.385 496-629v96.077h91.753q6.786 0 11.516 4.52 4.731 4.52 4.731 11.269 0 6.749-4.581 11.48-4.58 4.731-11.419 4.731h-92v337.846q88.538-3.385 148.769-40.462 60.231-37.076 97.462-106.23l-33.77-34.539q-8.692-8.692-8.576-20.346.115-11.654 9.807-20.346l46.869-42.097q7.67-5.903 15.862-2.192 8.193 3.712 8.193 11.904v48q0 56.924-25.693 101.462-25.692 44.539-67.5 74.962-41.808 30.423-95.808 46-54 15.577-111.115 15.577Zm-.5-529.232q28.092 0 48.046-19.953Q548-700.523 548-728.615q0-28.093-19.954-48.047-19.954-19.953-48.046-19.953t-48.046 19.953Q412-756.708 412-728.615q0 28.092 19.954 48.046 19.954 19.953 48.046 19.953Z"/></svg>