<svg xmlns="http://www.w3.org/2000/svg" height="24" viewBox="0 -960 960 960" width="24"><path d="M435.478-506.999h89.044V-720h-89.044v213.001ZM480-355.478q18.922 0 31.722-12.8t12.8-31.722q0-18.922-12.8-31.722T480-444.522q-18.922 0-31.722 12.8T435.478-400q0 18.922 12.8 31.722t31.722 12.8Zm0 154.216Q598.043-308.74 655.63-393.174q57.587-84.435 57.587-161.087 0-105.025-67.541-171.991-67.542-66.965-165.696-66.965t-165.675 66.965q-67.522 66.966-67.522 171.991 0 76.652 57.587 160.804T480-201.262Zm0 140.48Q309.956-203.434 225.369-322.347q-84.587-118.913-84.587-231.914 0-157.755 102.295-251.356Q345.373-899.218 480-899.218t236.923 93.601q102.295 93.601 102.295 251.356 0 113.001-84.587 231.914Q650.044-203.434 480-60.782ZM480-560Z"/></svg>