<svg xmlns="http://www.w3.org/2000/svg" height="20" viewBox="0 -960 960 960" width="20"><path d="M479.231-169.386q-49.385-29.693-103-48.154Q322.615-236.001 264-236.001q-51.23 0-100.73 12.73-49.5 12.731-95.269 37.115v-562.305q44.539-23.615 93.154-35.576Q209.77-795.999 260-795.999q58.385 0 113.5 14.539T480-738.921v509.382q50.615-27.384 104.808-42.923Q639-288 696-288q37 0 73 5.5t71 18.885v-508.614q14 4.461 26.807 9.653 12.807 5.192 25.192 13.115v563.305q-43.769-23.384-94.269-35.615-50.5-12.23-101.73-14.23-59-2-113.885 16.384-54.884 18.384-102.884 50.231ZM552-336v-363.999l216-192V-528L552-336Zm-123.999 76.462v-439.077q-38.615-23.231-80.923-34.308Q304.77-744 260-744q-36 0-71.692 7.808-35.693 7.807-68.308 23.961V-268q34-10.231 69.5-15.115Q225-288 260-288q43.77 0 85.962 6.231 42.193 6.231 82.039 22.231Zm0 0v-439.077 439.077Z"/></svg>