<svg xmlns="http://www.w3.org/2000/svg" height="24" viewBox="0 -960 960 960" width="24"><path d="M480.717-146.369q-48.239-37.761-104.239-59.598-56-21.837-116.478-21.837-61.391 0-118.185 20.174-56.793 20.174-109.228 52.326v-584.609q50.152-33.761 108.145-48.239 57.992-14.478 118.551-14.478 58.478 0 114.597 15 56.12 15 106.12 45.717v491.891q50.239-31 105.675-48.097 55.435-17.098 114.367-17.098 35.958 0 70.958 6.358 35 6.359 69 18.359v-489.565q23.152 6.761 45.326 16.478 22.174 9.717 42.087 23.674v584.609q-52.435-32.152-109.228-52.326Q761.391-227.804 700-227.804q-60 0-115.641 21.956-55.642 21.957-103.642 59.479ZM560-353.782v-388.131l200-201.674v407.891L560-353.782ZM392.587-292.37v-395.76q-31.326-13.283-64.922-20.185-33.596-6.902-67.665-6.902-35.92 0-71.34 6.641-35.421 6.641-68.66 20.163v398.435q34-13 69-19.12 35-6.119 71-6.119 34.132 0 67.316 5.402 33.184 5.402 65.271 17.445Zm0 0v-396 396Z"/></svg>