<svg xmlns="http://www.w3.org/2000/svg" height="24" viewBox="0 -960 960 960" width="24"><path d="M0-381.912v-353.609L224.479-960l58.609 58.609-31.87 144.782h235v125.61L377.783-381.912H0Zm97.523-96.958h215.955l76.913-177.042v-3.174H145.305l22.304-104.608-70.086 69.217v215.607ZM735.52 0l-58.609-58.61 31.87-144.781h-235v-125.61l109-249.087H960v353.609L735.521 0Zm56.87-196.306 70.086-69.217V-481.13H646.522l-76.913 177.042v3.174h245.086l-22.304 104.608ZM97.523-478.87v-215.607 215.607Zm764.954 213.347V-481.13v215.607Z"/></svg>