<svg xmlns="http://www.w3.org/2000/svg" height="20" viewBox="0 -960 960 960" width="20"><path d="M489-196q-4.3 0-7.15-2.789-2.85-2.79-2.85-7 0-4.211 2.85-7.211t7.15-3h223q12 0 22-10t10-22v-464q0-12-10-22t-22-10H489q-4.3 0-7.15-2.789-2.85-2.79-2.85-7 0-4.211 2.85-7.211t7.15-3h223q22.7 0 37.35 14.65Q764-734.7 764-712v464q0 22.7-14.65 37.35Q734.7-196 712-196H489Zm38-274H206.963q-4.284 0-7.124-2.789-2.839-2.79-2.839-7 0-4.211 2.839-7.211 2.84-3 7.124-3H527l-60.825-61q-3.957-4-4.457-8.071-.5-4.072 4.457-8 4.957-3.929 7.391-3.429T480-566l68 68q8 7.636 8 17.818Q556-470 548-462l-68 68q-3 3-6 3.5t-7.478-3.5q-4.522-4-5.022-7t4.5-8l61-61Z"/></svg>