<svg xmlns="http://www.w3.org/2000/svg" height="24" viewBox="0 -960 960 960" width="24"><path d="M272.307-120v-150l77.077-65.539L319-532.308H190.769V-800H400v-30.77h160V-800h122.077l-71.461 464.461L687.693-270v150H272.307Zm40.847-452.308L283.769-760h-53v187.692h82.385Zm166.9 363.077q13.1 0 21.908-8.861 8.807-8.862 8.807-21.962t-8.861-21.908q-8.862-8.807-21.962-8.807t-21.908 8.861q-8.807 8.862-8.807 21.962t8.861 21.908q8.862 8.807 21.962 8.807ZM386.462-360h187.076l61.693-400H324.769l61.693 400Z"/></svg>