<svg xmlns="http://www.w3.org/2000/svg" height="20" viewBox="0 -960 960 960" width="20"><path d="M441-148v-192h-55q-11.05 0-18.525-7.488Q360-354.975 360-366.044v-184.22q0-21.486 15.301-36.611Q390.602-602 412.088-602h136.176q21.486 0 36.611 15.251Q600-571.497 600-550.081v183.798q0 11.033-7.475 18.658Q585.05-340 574-340h-55v192q0 11.05-7.475 18.525Q504.05-122 493-122h-26q-11.05 0-18.525-7.475Q441-136.95 441-148Zm38.752-558q-28.152 0-47.952-20.048-19.8-20.048-19.8-48.2 0-28.152 20.048-47.952 20.048-19.8 48.2-19.8 28.152 0 47.952 20.048 19.8 20.048 19.8 48.2 0 28.152-20.048 47.952-20.048 19.8-48.2 19.8Z"/></svg>