<svg xmlns="http://www.w3.org/2000/svg" height="20" viewBox="0 -960 960 960" width="20"><path d="M185.782-318.783h588.436q24.613 0 41.806-17.476 17.193-17.476 17.193-41.523v-252.436q0-24.613-17.193-41.806-17.193-17.193-41.806-17.193H185.782q-24.047 0-41.523 17.193-17.476 17.193-17.476 41.806v252.436q0 24.047 17.476 41.523 17.476 17.476 41.523 17.476Zm83 146.001v-48h-83q-65.087 0-111.044-45.956-45.956-45.957-45.956-111.044v-252.436q0-65.652 45.956-111.326 45.957-45.674 111.044-45.674h588.436q65.652 0 111.326 45.674 45.674 45.674 45.674 111.326v252.436q0 65.087-45.674 111.044-45.674 45.956-111.326 45.956h-83v48H268.782ZM480-504Z"/></svg>