<svg xmlns="http://www.w3.org/2000/svg" height="20" viewBox="0 -960 960 960" width="20"><path d="M579-328.109 427.109-480 579-631.891 637.652-573l-51.5 51.5h245.153v83H586.152l51.5 51.5L579-328.109ZM128.695-128.695v-702.61h83.001v702.61h-83.001Zm161.001 0v-83.001h74.869v83.001h-74.869Zm0-619.609v-83.001h74.869v83.001h-74.869Zm152.869 619.609v-83.001h74.87v83.001h-74.87Zm0-619.609v-83.001h74.87v83.001h-74.87Zm152.87 619.609v-83.001h74.869v83.001h-74.869Zm0-619.609v-83.001h74.869v83.001h-74.869Zm152.869 619.609v-83.001h83.001v83.001h-83.001Zm0-619.609v-83.001h83.001v83.001h-83.001Z"/></svg>