<svg xmlns="http://www.w3.org/2000/svg" height="20" viewBox="0 -960 960 960" width="20"><path d="M247.888-212v-144H216v-32h31.888v-112H216v-32h32v-119.539l87.755-88 71.837 72 72.735-72 71.836 72 71.837-72 88 88V-532h32v32h-32v112h32v32h-32v144H247.888ZM280-532h112v-106.461l-56-56-56 55.905V-532Zm144 0h112v-106.461l-56-56-56 55.905V-532Zm144 0h112v-106.556l-56-55.905-56 56.769V-532ZM280-388h112v-112H280v112Zm144 0h112v-112H424v112Zm144 0h112v-112H568v112ZM280-244h112v-112H280v112Zm144 0h112v-112H424v112Zm144 0h112v-112H568v112Z"/></svg>