<svg xmlns="http://www.w3.org/2000/svg" height="24" viewBox="0 -960 960 960" width="24"><path d="M485.957-232.39 384.262-130.13q-30.914 30.914-74.871 30.914-43.957 0-74.87-30.914L131.13-233.521q-30.914-30.913-30.914-75.37 0-44.457 30.914-75.371l101.26-100.695V-623.87q0-35.479 32.696-48.87 32.696-13.392 57.914 11.826L661.349-323q25.218 25.218 11.609 57.914T623.87-232.39H485.957Zm202.217-456.784q-57.869-57.87-136.239-74.87-78.369-17-153.804 9.304-17.261 5.566-34.174-.782t-23.609-23.044q-7.13-18.13.152-35.609 7.283-17.478 25.413-24.043 99.261-36 203.522-13.37 104.261 22.631 181.392 99.761 76.565 76.565 99.196 179.218 22.63 102.652-11.544 201.782-6.565 18.261-24.261 26.739-17.695 8.479-35.956 1.479-16.696-6-23.609-22.413t-.913-34.109q26.304-75.435 9.304-153.804-17-78.37-74.87-136.239Zm-56 57q33.305 33.304 43.827 77.197 10.522 43.892 1.956 89.023-3.653 2.434-13.522 2.129-9.87-.305-21.783-4.827-18.261-11.305-34-26.827-15.739-15.522-28.783-33.783-1.739-9.478-5.413-17.956-3.674-8.478-11.282-16.086-7.609-7.609-16.522-11.717-8.912-4.109-18.825-5.848-18.261-13.044-34-28.566-15.74-15.522-27.914-34.217-5.392-11.478-5.914-21.783-.522-10.304 1.477-13.956 46.001-9.001 91.48 2.238 45.479 11.239 79.218 44.979Z"/></svg>