<svg xmlns="http://www.w3.org/2000/svg" height="24" viewBox="0 -960 960 960" width="24"><path d="M473.539-303.461 366.692-196.615q-18.384 18.385-45.731 18.385-27.346 0-45.73-18.385L196.846-275q-18.385-18.385-18.385-45.846 0-27.462 18.385-45.846l106.615-105.847v-98.692q0-13.923 12.962-18.923 12.961-5 22.731 4.769l246.462 246.231q9.769 9.77 4.654 22.731-5.116 12.962-19.039 12.962h-97.692Zm196-367.078q-58.231-58.23-137.731-74.076-79.5-15.847-155.5 12.923-8.077 2.692-16.654.653-8.577-2.038-11.269-10.115-2.924-8.539 1.384-17.115 4.308-8.577 13.616-11.501 87.769-32.153 177.846-14.115 90.077 18.039 156.846 84.808T782.5-541.5q17.654 90.808-14.73 178.808-2.924 9.077-11.231 13.269-8.308 4.192-16.616 1.038-8.077-2.923-10.115-11.769-2.039-8.846.884-17.154 28.77-76 12.923-155.5-15.846-79.5-74.076-137.731ZM602.769-602q23.539 23.538 36.039 54.115T652.462-484q.461 8.308-5.154 13.923-5.616 5.615-14.154 5.615-8.308 0-14.039-6-5.73-6-6.654-14.307-1.692-24.77-10.884-47.77-9.192-22.999-27.116-40.922-17.923-17.924-40.769-27.731-22.846-9.808-47.846-10.731-8.307-.923-14.807-6.154t-7.731-13.769q-1.231-8.308 4.269-14.539t13.577-5.769q34.538.923 66.192 13.654Q579-625.769 602.769-602Z"/></svg>