<svg xmlns="http://www.w3.org/2000/svg" height="24" viewBox="0 -960 960 960" width="24"><path d="M832.308-454.769q0 48.692-25.077 77.115-25.077 28.423-64.846 28.423-14.462 0-34.308-7.807-19.846-7.808-30.461-16.731L473.615-577.231q4.154-46.615 25.231-84.923t54-60q9.776-5.629 13.85-14.776 4.073-9.147 4.073-21.762 0-15.693-10.666-24.654-10.667-8.962-28.718-8.962-55.693 0-97.923 24.077-42.231 24.077-44.231 67.692 0 15.193 4.572 29.437 4.573 14.243 11.889 28.487l-54-54.001q-5.461-68.615 53.808-102.154 59.269-33.538 125.535-33.538 36.734 0 58.234 21.269 21.5 21.27 21.5 52.419 0 21.312-9.192 40.158-9.192 18.847-26.269 31-22 14-37.423 40.231-15.423 26.231-22.731 60.462 12.154 4.538 21.14 9.615 8.987 5.077 16.475 11.846l93.539-34.769q14.692-5.231 27.46-7.962 12.767-2.73 26.771-2.73 60.23 0 96 45.077 35.769 45.077 35.769 110.923ZM819-58.769 608.539-270.23q1.538 3.846 1.538 7.692v7.692q-3 54.769-51.115 90.962-48.116 36.192-127.27 36.192-36.384 0-59.423-22.039-23.038-22.038-23.038-53.653 0-21.077 9.192-39.808 9.192-18.731 26.269-30.116 22.769-14.769 37.808-41 15.038-26.23 22.346-58.923-11.385-4.538-20.461-9.461-9.077-4.923-17.154-12l-93.539 33.769q-14.692 5.231-27.929 8.462-13.237 3.23-27.302 3.23-60.692 0-95.73-43.846-35.039-43.846-35.039-112.154 0-51.754 25.5-78.646 25.5-26.892 65.808-26.892 18.769 0 41.884 8.692 23.116 8.692 35.731 19.923L50.077-827.692l28.538-28.539L847.54-87.308 819-58.769Zm-76.615-330.462q22.077 0 36-17.307 13.923-17.308 13.923-48.231 0-47.231-23.693-81.5-23.692-34.269-68.143-34.5-8.164 0-16.549 1.115-8.384 1.116-18.461 5.654l-86.539 31.846q7.385 13.692 11.193 24.808 3.807 11.115 4.038 20.961 28.923 8.77 47.231 25.5 18.308 16.731 50.769 50.654 10.692 9.616 23.616 15.308 12.923 5.692 26.615 5.692Zm-485.462 0q10 0 18.5-2.115 8.5-2.116 19.115-5.654l87.308-30.846q-7.385-12.923-10.808-27.885-3.423-14.961-2.115-29.423-22.769-8.769-43.808-22.961-21.039-14.193-33.885-27.577-19-17.846-40.846-26.462-21.846-8.615-36.769-8.615-19.769 0-32.846 16.769-13.077 16.769-13.077 48.769 0 49.385 23.962 82.692 23.961 33.308 65.269 33.308Zm174.769 221.539q62.691 0 101.115-26.423 38.424-26.423 37.962-66.193 0-13.846-4.769-32.538-4.769-18.692-13.231-33.154l-45.461-45.461q-5.385 1.538-10.769 2.307-5.385.77-10.77.77-8.692 42-28.615 75.692-19.923 33.692-50 53.308-7.308 4.538-12.615 15.128-5.308 10.589-5.308 21.179.461 15.923 12.5 25.654 12.038 9.731 29.961 9.731Zm162.462-318.693Zm-225.231 1.231Zm116.846 116.77Zm-12.154-208.847Z"/></svg>