<svg xmlns="http://www.w3.org/2000/svg" height="24" viewBox="0 -960 960 960" width="24"><path d="M172-338v-28h474v28H172Zm0-128v-28h474v28H172Zm0-128v-28h474v28H172Zm596 262q-8.5 0-14.25-5.462Q748-342.925 748-351q0-8.925 5.75-14.962Q759.5-372 768-372t14.25 6.038Q788-359.925 788-351q0 8.075-5.75 13.538Q776.5-332 768-332Zm0-127q-8.5 0-14.25-5.5T748-480q0-8.075 5.75-13.538Q759.5-499 768-499t14.25 5.462Q788-488.075 788-480q0 10-5.75 15.5T768-459Zm0-129q-8.5 0-14.25-5.463Q748-598.925 748-607q0-8.925 5.75-14.963Q759.5-628 768-628t14.25 6.037Q788-615.925 788-607q0 8.075-5.75 13.537Q776.5-588 768-588Z"/></svg>