<svg xmlns="http://www.w3.org/2000/svg" height="24" viewBox="0 -960 960 960" width="24"><path d="M86-211v-126h593v126H86Zm0-206v-126h593v126H86Zm0-206v-126h593v126H86Zm726.246 412Q786-211 767-229.4q-19-18.4-19-45.6 0-26.35 19-44.175Q786-337 812.246-337q26.245 0 44 17.956Q874-301.088 874-274.544T856.246-229.5q-17.755 18.5-44 18.5Zm0-206Q786-417 767-434.754q-19-17.755-19-44Q748-505 767-524q19-19 45.246-19 26.245 0 44 19Q874-505 874-478.754q0 26.245-17.754 44-17.755 17.754-44 17.754Zm0-205Q786-622 767-640.4q-19-18.4-19-45.6 0-26.35 19-44.175Q786-748 812.246-748q26.245 0 44 17.956Q874-712.088 874-685.544T856.246-640.5q-17.755 18.5-44 18.5Z"/></svg>