<svg xmlns="http://www.w3.org/2000/svg" height="20" viewBox="0 -960 960 960" width="20"><path d="M124.782-248.998v-98.001h546.653v98.001H124.782Zm0-182.001v-98.002h546.653v98.002H124.782Zm0-182.002v-98.001h546.653v98.001H124.782Zm661.64 364.003q-19.726 0-34.466-14.25-14.739-14.25-14.739-35.316 0-19.285 14.589-33.86 14.59-14.575 35.116-14.575 19.226 0 33.761 14.649 14.535 14.649 14.535 34.544 0 19.895-14.535 34.351-14.535 14.457-34.261 14.457Zm0-182.001q-19.726 0-34.466-13.886-14.739-13.885-14.739-34.411 0-19.226 14.589-34.465 14.59-15.24 35.116-15.24 19.226 0 33.761 15.24 14.535 15.239 14.535 34.965 0 19.726-14.535 33.761-14.535 14.036-34.261 14.036Zm0-181.436q-19.726 0-34.466-14.251-14.739-14.25-14.739-35.315 0-19.285 14.589-33.861 14.59-14.575 35.116-14.575 19.226 0 33.761 14.65 14.535 14.649 14.535 34.543 0 19.895-14.535 34.352-14.535 14.457-34.261 14.457Z"/></svg>