<svg xmlns="http://www.w3.org/2000/svg" height="24" viewBox="0 -960 960 960" width="24"><path d="M100.782-240.998v-106.001h578.653v106.001H100.782Zm0-186.001v-106.002h578.653v106.002H100.782Zm0-186.002v-106.001h578.653v106.001H100.782Zm706.14 372.003q-22.226 0-37.966-15.4-15.739-15.4-15.739-38.166 0-22.285 15.739-37.36 15.74-15.075 37.966-15.075t37.261 15.149q15.035 15.149 15.035 37.544 0 22.395-15.035 37.851-15.035 15.457-37.261 15.457Zm0-186.001q-22.226 0-37.966-15.036-15.739-15.035-15.739-37.261 0-22.226 15.739-37.965 15.74-15.74 37.966-15.74t37.261 15.74q15.035 15.739 15.035 37.965 0 22.226-15.035 37.261-15.035 15.036-37.261 15.036Zm0-185.436q-22.226 0-37.966-15.401-15.739-15.4-15.739-38.165 0-22.285 15.739-37.361 15.74-15.075 37.966-15.075t37.261 15.15q15.035 15.149 15.035 37.543 0 22.395-15.035 37.852-15.035 15.457-37.261 15.457Z"/></svg>