<svg xmlns="http://www.w3.org/2000/svg" height="24" viewBox="0 -960 960 960" width="24"><path d="M120-120v-720h366.923l-40 40H160v640h440v-100h40v140H120Zm140-140v-40h240v40H260Zm0-110.769v-40h160v40H260Zm320-30L448.461-532.308H340v-160h108.461L580-823.846v423.077Zm80-94.308v-234.462q30.616 20.231 45.308 52.77Q720-644.231 720-612.308q0 31.923-15.077 64.462-15.077 32.538-44.923 52.769Zm0 157.385v-42.462q61.539-29.615 100.769-93.423Q800-537.385 800-612.308t-39.231-138.731Q721.539-814.846 660-844.462v-42.461q77.846 30.846 128.923 106.73Q840-704.308 840-612.308q0 92-51.077 167.885Q737.846-368.538 660-337.692Z"/></svg>