<svg xmlns="http://www.w3.org/2000/svg" height="24" viewBox="0 -960 960 960" width="24"><path d="M100.001-100.001v-759.998H503.46L443.462-800H160v640h440v-109.999h59.999v169.998H100.001Zm150-150v-59.998h259.998v59.998H250.001Zm0-115.384v-59.999h179.998v59.999H250.001Zm339.998-15.001L444.231-526.154h-114.23v-179.999h114.23l145.768-145.768v471.535Zm80-108.153v-255.229q33.308 20.615 51.654 54.884 18.346 34.269 18.346 72.73 0 38.461-18.539 72.731-18.538 34.269-51.461 54.884Zm0 164.692v-63.229q65.769-27.308 107.884-89.962 42.116-62.654 42.116-139.116 0-76.461-42.116-139.115-42.115-62.654-107.884-89.962v-63.229q90.922 28.923 150.46 109.615 59.538 80.692 59.538 182.691 0 102-59.538 182.692-59.538 80.692-150.46 109.615Z"/></svg>