<svg xmlns="http://www.w3.org/2000/svg" height="20" viewBox="0 -960 960 960" width="20"><path d="M164.001-116.001v-727.998H511.46L531.462-792H216v624h427v-61.999h56.999v113.998H164.001Zm134-134v-51.998h248.998v51.998H298.001Zm0-115.384v-51.999h171.998v51.999H298.001Zm363.998-39.001L532.231-534.154h-138.23v-171.999h138.23l129.768-129.768v431.535Zm72-102.153v-227.229q29.308 19.615 45.654 50.884 16.346 31.269 16.346 62.73 0 32.461-16.039 63.231-16.038 30.769-45.961 50.384Zm0 146.692v-54.229q60.769-25.308 97.384-81.962 36.616-56.654 36.616-124.116 0-67.461-36.116-124.615-36.115-57.154-97.884-81.462v-54.229q83.922 24.923 134.96 97.615 51.038 72.692 51.038 162.691 0 90-51.038 162.692-51.038 72.692-134.96 97.615Z"/></svg>