<svg xmlns="http://www.w3.org/2000/svg" height="20" viewBox="0 -960 960 960" width="20"><path d="M744-336.615V-464H216v127.385q0 9.23 7.692 16.923Q231.385-312 240.615-312h478.77q9.23 0 16.923-7.692Q744-327.385 744-336.615ZM744-496v-127.385q0-9.23-7.692-16.923Q728.615-648 719.385-648h-478.77q-9.23 0-16.923 7.692Q216-632.615 216-623.385V-496h528ZM240.615-280q-24.315 0-40.465-16.15Q184-312.3 184-336.615v-286.77q0-24.315 16.15-40.465Q216.3-680 240.615-680h478.77q24.315 0 40.465 16.15Q776-647.7 776-623.385v286.77q0 24.315-16.15 40.465Q743.7-280 719.385-280h-478.77Z"/></svg>