<svg xmlns="http://www.w3.org/2000/svg" height="20" viewBox="0 -960 960 960" width="20"><path d="M744-324.309v-129.692H216v129.692q0 4.616 3.846 8.463 3.847 3.846 8.463 3.846h503.382q4.616 0 8.463-3.846 3.846-3.847 3.846-8.463Zm0-181.69v-129.692q0-4.616-3.846-8.463-3.847-3.846-8.463-3.846H228.309q-4.616 0-8.463 3.846-3.846 3.847-3.846 8.463v129.692h528ZM228.309-260.001q-27.008 0-45.658-18.65-18.65-18.65-18.65-45.658v-311.382q0-27.008 18.65-45.658 18.65-18.65 45.658-18.65h503.382q27.008 0 45.658 18.65 18.65 18.65 18.65 45.658v311.382q0 27.008-18.65 45.658-18.65 18.65-45.658 18.65H228.309Z"/></svg>