<svg xmlns="http://www.w3.org/2000/svg" height="24" viewBox="0 -960 960 960" width="24"><path d="M186-332q-5.95 0-9.975-4.035-4.025-4.035-4.025-10t4.025-9.965q4.025-4 9.975-4h241q5.95 0 9.975 4.035 4.025 4.035 4.025 10T436.975-336q-4.025 4-9.975 4H186Zm0-160q-5.95 0-9.975-4.035-4.025-4.035-4.025-10t4.025-9.965q4.025-4 9.975-4h398q5.95 0 9.975 4.035 4.025 4.035 4.025 10T593.975-496q-4.025 4-9.975 4H186Zm0-160q-5.95 0-9.975-4.035-4.025-4.035-4.025-10t4.025-9.965q4.025-4 9.975-4h398q5.95 0 9.975 4.035 4.025 4.035 4.025 10T593.975-656q-4.025 4-9.975 4H186Zm500 465q-4 2-7.5 2.5T671-186q-4-2-6-5t-2-8v-158q0-4.8 2-8.4 2-3.6 6-5.6 4-2 7.5-1.5t7.5 2.5l123 79q3.889 2.318 5.444 5.795 1.556 3.478 1.556 7.341 0 3.864-1.556 7.239Q812.889-267.25 809-265l-123 78Z"/></svg>