<svg xmlns="http://www.w3.org/2000/svg" height="20" viewBox="0 -960 960 960" width="20"><path d="M144-594v-72h72v72h-72Zm138 138v-72h72v72h-72Zm12-288v-72h72v72h-72Zm138 138v-72h72v72h-72ZM216-144q-29.7 0-50.85-21.15Q144-186.3 144-216v-264q0-15.3 10.289-25.65 10.29-10.35 25.5-10.35Q195-516 205.5-505.65 216-495.3 216-480v264h528v-528H480q-15.3 0-25.65-10.289-10.35-10.29-10.35-25.5Q444-795 454.35-805.5 464.7-816 480-816h264q29.7 0 50.85 21.15Q816-773.7 816-744v528q0 29.7-21.15 50.85Q773.7-144 744-144H216Zm-72-600q0-29.7 21.15-50.85Q186.3-816 216-816v72h-72Zm288 288v-72h72q0 30-21.15 51T432-456Z"/></svg>