<svg xmlns="http://www.w3.org/2000/svg" height="20" viewBox="0 -960 960 960" width="20"><path d="M656.609-139.478q12.991 0 21.887-8.896 8.895-8.896 8.895-21.887t-8.895-22.17q-8.896-9.178-21.887-9.178-12.992 0-21.888 9.178-8.895 9.179-8.895 22.17 0 12.991 8.895 21.887 8.896 8.896 21.888 8.896Zm-.283-111.827q11.578 0 20.191-8.557 8.613-8.556 8.613-19.965v-38.956q0-11.409-8.33-19.965-8.331-8.557-19.909-8.557t-20.191 8.557q-8.613 8.556-8.613 19.965v38.956q0 11.409 8.33 19.965 8.331 8.557 19.909 8.557ZM429.999-868.696q22.653-14.392 50.001-14.392t50.001 14.392l256.217 148.043q22.752 13.275 35.876 35.667 13.124 22.392 13.124 48.943v198.87q-37.261-34.479-82.978-52.349-45.718-17.869-95.631-17.869-16.391 0-33.63 4.152-17.239 4.152-32.195 11.891l146.433-84.39v-60.305l-39.74-23.218L480-533.87 262.523-659.261l-39.74 23.218v60.305l211.043 122.39v70.392q-23.174 29.739-32.196 65.63-9.021 35.891-9.021 73.935 0 42.043 13.435 80.892 13.435 38.848 40.044 70.674-7.914 0-15.827-2.26-7.913-2.262-15.262-6.219L173.622-239.562q-22.492-13.176-35.666-35.532-13.174-22.356-13.174-48.863v-312.086q0-26.551 13.124-48.943t35.876-35.667l256.217-148.043ZM656.382-51.391q-79.773 0-135.773-56.227-56-56.226-56-136 0-79.773 56.226-135.773t136-56q79.774 0 135.774 56.226t56 136q0 79.774-56.227 135.774-56.226 56-136 56Z"/></svg>