<svg xmlns="http://www.w3.org/2000/svg" height="24" viewBox="0 -960 960 960" width="24"><path d="M181.538-402.077 251-471.539 181.538-541l-69.461 69.461 69.461 69.462Zm527.693-11.769L780-527.693l71.539 113.847H709.231ZM480.271-440q-36.425 0-62.194-25.577-25.77-25.577-25.77-62.116 0-37.269 25.577-62.481 25.577-25.211 62.116-25.211 37.269 0 62.481 25.133 25.212 25.134 25.212 62.288 0 36.425-25.134 62.194Q517.425-440 480.271-440ZM480-575.385q-19.308 0-33.5 13.712-14.192 13.711-14.192 33.98 0 19.308 14.192 33.5Q460.692-480 480.385-480q19.692 0 33.5-14.193 13.807-14.192 13.807-33.884 0-19.693-13.711-33.5-13.712-13.808-33.981-13.808Zm0 47.692ZM40-256.923v-34.539q0-37.077 39.157-61.269 39.158-24.192 101.634-24.192 11.44 0 21.901.884 10.462.885 19.923 2.885-8.615 15.385-13.307 32.315-4.693 16.93-4.693 36.069v47.847H40Zm240 0v-45q0-49.616 55.475-78.846Q390.951-410 480.212-410q90.096 0 144.942 29.231Q680-351.539 680-301.923v45H280Zm500-120q63 0 101.5 24.192t38.5 61.269v34.539H755.385v-47.847q0-19.139-4.193-36.069-4.192-16.93-12.577-32.315 9.462-2 19.951-2.885 10.489-.884 21.434-.884ZM479.906-370q-67.675 0-112.291 18.077-44.615 18.077-46.461 46.538v8.462h317.923v-8.462q-2.077-28.461-46.192-46.538Q548.769-370 479.906-370Zm.094 73.077Z"/></svg>