<svg xmlns="http://www.w3.org/2000/svg" height="24" viewBox="0 -960 960 960" width="24"><path d="m188-397 60-60-60-60-60 60 60 60Zm524-9 62-100 63 100H712Zm-231.647-22Q448-428 425-450.75T402-506q0-33.15 22.75-55.575Q447.5-584 480-584q33.15 0 55.575 22.323Q558-539.353 558-506.353 558-474 535.677-451q-22.324 23-55.324 23ZM480-556q-20 0-35 14.375T430-506q0 20 15 35t35.5 15q20.5 0 35-15t14.5-35.5q0-20.5-14.375-35T480-556Zm0 50ZM52-262v-26q0-35 37.555-58.5t97.474-23.5Q198-370 208-369t19 3q-7 14-11 29.109-4 15.11-4 32.19V-262H52Zm240 0v-39q0-45 52.168-71t136.108-26Q565-398 616.5-372q51.5 26 51.5 71v39H292Zm482-108q60.3 0 97.15 23.5Q908-323 908-288v26H748v-42.701q0-17.08-3.5-32.19Q741-352 734-366q9-2 19.186-3 10.185-1 20.814-1Zm-294.122 0Q409-370 364.5-351T320-301v11h320v-11q0-31-44-50t-116.122-19Zm.122 80Z"/></svg>