<svg xmlns="http://www.w3.org/2000/svg" height="20" viewBox="0 -960 960 960" width="20"><path d="m168-420 106-106-106-106L62-526l106 106Zm516 0 108-188 109 188H684Zm-204-51q-56.667 0-96.333-39.667Q344-550.333 344-607q0-56 39.667-96 39.666-40 96.333-40 56 0 96 40t40 96q0 56.667-40 96.333Q536-471 480-471ZM-16-200v-76q0-60.258 53.95-89.629Q91.9-395 168-395q7 0 13.5 1t15.5 2q-20 22-30.5 54.292Q156-305.417 156-276v76H-16Zm240 0v-76q0-66.172 65.395-107.086T479.862-424Q605-424 670.5-383.086T736-276v76H224Zm568-195q76.2 0 130.1 29.371Q976-336.258 976-276v76H804v-76q0-29.37-10-61.62T762-392q9-1 16.114-2 7.115-1 13.886-1Z"/></svg>