<svg xmlns="http://www.w3.org/2000/svg" height="20" viewBox="0 -960 960 960" width="20"><path d="m196-386 55-55-55-55-55 55 55 55Zm512 12 58-108 59 108H708Zm-227.647-30Q448-404 425-426.75T402-482q0-32.15 22.75-55.075Q447.5-560 480-560q32.15 0 55.075 22.823Q558-514.353 558-482.353 558-450 535.177-427q-22.824 23-54.824 23ZM52-238v-23q0-44 42.555-66t100.474-22Q208-349 221-347t26 5q-11 12-17 31.609-6 19.61-6 34.69V-238H52Zm240 0v-34q0-39 46.668-61.5T480.276-356Q575-356 621.5-333.5 668-311 668-272v34H292Zm474-111q57.3 0 99.65 22Q908-305 908-261v23H736v-37.701q0-15.08-5.5-34.69Q725-330 712-342q13-3 26.686-5 13.685-2 27.314-2Z"/></svg>