<svg xmlns="http://www.w3.org/2000/svg" height="24" viewBox="0 -960 960 960" width="24"><path d="m160-425.783 106.652-106.652L160-639.088 53.347-532.435 160-425.783Zm533.217-21L800-618.088l107.348 171.305H693.217ZM480-488.479q-53.768 0-91.406-37.638-37.638-37.637-37.638-91.406 0-54.391 37.638-91.717 37.638-37.327 91.406-37.327 54.391 0 91.718 37.327 37.326 37.326 37.326 91.717 0 53.769-37.326 91.406-37.327 37.638-91.718 37.638Zm0-163.391q-14.174 0-24.261 9.875t-10.087 24.472q0 14.174 10.087 24.261t24.544 10.087q14.456 0 24.26-10.087 9.805-10.087 9.805-24.543 0-14.457-9.875-24.261-9.875-9.804-24.473-9.804Zm0 34.347ZM-9.044-230.956V-303q0-48.102 47.015-77.073Q84.987-409.044 160-409.044q8.478 0 15.673.217 7.196.218 14.804 1.087-15.13 22.261-22.978 47.97-7.848 25.708-7.848 54.77v74.044H-9.044Zm240 0V-305q0-69.054 68.984-111.549 68.985-42.495 179.982-42.495 112.035 0 180.578 42.495Q729.044-374.054 729.044-305v74.044H230.956ZM800-409.044q76.07 0 122.557 28.971 46.487 28.971 46.487 77.073v72.044H800.349V-305q0-29.035-7.348-54.72t-22.044-48.02q7.609-.869 14.652-1.087 7.042-.217 14.391-.217Zm-319.902 44.696q-45.793 0-85.141 11.326-39.347 11.326-53.565 26.804h278.216q-15.218-15.478-54.065-26.804-38.848-11.326-85.445-11.326Zm-.098 38.13Z"/></svg>