<svg xmlns="http://www.w3.org/2000/svg" height="20" viewBox="0 -960 960 960" width="20"><path d="M178.77-399.538 259-479.767l-80.23-80.23-80.23 80.23 80.23 80.229Zm521.846 4.616 81.383-144.922 81.768 144.922H700.616Zm-220.975-41.077q-42.717 0-73.102-30.288-30.384-30.288-30.384-73.557 0-43.134 30.288-73.489 30.288-30.355 73.557-30.355 43.134 0 73.49 30.316 30.355 30.316 30.355 73.888 0 42.717-30.316 73.101-30.317 30.384-73.888 30.384ZM480-591.69q-21.554 0-36.7 14.906-15.146 14.906-15.146 36.94 0 21.554 15.146 36.701 15.146 15.146 36.892 15.146 21.747 0 36.701-15.146 14.953-15.147 14.953-36.893 0-21.746-14.905-36.7Q502.035-591.69 480-591.69Zm0 51.846ZM20.002-224.462v-45.768q0-49.539 46.828-73.385 46.829-23.846 111.566-23.846 14.22 0 28.451 1.693 14.231 1.692 28.461 4.692-15.307 15.692-23.153 40.157-7.846 24.465-7.846 45.034v51.423H20.001Zm239.999 0v-49.499q0-51.808 55.488-82.923 55.487-31.115 164.617-31.115 109.047 0 164.47 31.029t55.423 82.509v49.999H260.001Zm521.998-142.999q64.5 0 111.25 23.846t46.75 73.385v45.768H755.691v-51.423q0-20.569-7.346-45.034t-24.038-40.157q14.231-3 28.511-4.692 14.28-1.693 29.181-1.693ZM479.953-336q-69.338 0-106.146 13.039-36.807 13.038-61.73 42.269v4.231h335.462v-4.231Q622-309.923 585.693-322.961 549.385-336 479.953-336ZM481-276.461Z"/></svg>