<svg xmlns="http://www.w3.org/2000/svg" height="20" viewBox="0 -960 960 960" width="20"><path d="M613.001-488.479v51.522q0 16.981 11.589 28.469 11.59 11.487 28.722 11.487 16.892 0 28.53-11.487 11.637-11.488 11.637-28.469v-256.087q0-16.982-11.43-28.469-11.429-11.488-28.326-11.488-16.896 0-28.809 11.488-11.913 11.487-11.913 28.469v123.521h-96v-123.521q0-16.982-11.43-28.469-11.43-11.488-28.326-11.488-16.897 0-28.81 11.488-11.913 11.487-11.913 28.469v155.565q0 20.387 14.307 34.694 14.306 14.306 34.694 14.306h127.478ZM331.784-233.782q-41.005 0-69.504-28.498-28.498-28.499-28.498-69.504v-466.434q0-41.005 28.498-69.503 28.499-28.498 69.504-28.498h466.434q41.005 0 69.503 28.498 28.498 28.498 28.498 69.503v466.434q0 41.005-28.498 69.504-28.498 28.498-69.503 28.498H331.784Zm0-98.002h466.434v-466.434H331.784v466.434ZM161.782-63.781q-41.005 0-69.503-28.498-28.498-28.498-28.498-69.503v-515.435q0-20.387 14.246-34.694 14.246-14.307 34.544-14.307 20.298 0 34.755 14.307 14.456 14.307 14.456 34.694v515.435h515.435q20.387 0 34.694 14.246 14.307 14.246 14.307 34.544 0 20.298-14.307 34.754-14.307 14.457-34.694 14.457H161.782Zm170.002-734.437v466.434-466.434Z"/></svg>