<svg xmlns="http://www.w3.org/2000/svg" height="20" viewBox="0 -960 960 960" width="20"><path d="M227.294-330Q203-330 186-347.289q-17-17.29-17-41.5Q169-413 186.346-430.5q17.347-17.5 41.641-17.5h504.719Q757-448 774-430.711q17 17.29 17 41.5Q791-365 773.654-347.5 756.307-330 732.013-330H227.294Zm0 182Q203-148 186-165.289q-17-17.29-17-41.5Q169-231 186.346-248.5q17.347-17.5 41.641-17.5h504.719Q757-266 774-248.711q17 17.29 17 41.5Q791-183 773.654-165.5 756.307-148 732.013-148H227.294Zm0-364Q203-512 186-529.289q-17-17.29-17-41.5Q169-595 186.346-612.5q17.347-17.5 41.641-17.5h504.719Q757-630 774-612.711q17 17.29 17 41.5Q791-547 773.654-529.5 756.307-512 732.013-512H227.294Zm0-182Q203-694 186-711.289q-17-17.29-17-41.5Q169-777 186.346-794.5q17.347-17.5 41.641-17.5h504.719Q757-812 774-794.711q17 17.29 17 41.5Q791-729 773.654-711.5 756.307-694 732.013-694H227.294Z"/></svg>