<svg xmlns="http://www.w3.org/2000/svg" height="24" viewBox="0 -960 960 960" width="24"><path d="M898.088-147.955v-664.09 664.09ZM61.912-617.348v-194.697h178.479v194.697H61.912Zm218.479 0v-194.697H460v194.697H280.391Zm219.609 0v-194.697h179.609v194.697H500Zm219.609 0v-194.697h178.479v194.697H719.609Zm0 234.696v-194.696h178.479v194.696H719.609Zm-219.609 0v-194.696h179.609v194.696H500Zm-219.609 0v-194.696H460v194.696H280.391Zm-218.479 0v-194.696h178.479v194.696H61.912ZM719.61-147.955v-194.697h178.479v194.697H719.609Zm-219.609 0v-194.697h179.609v194.697H500Zm-219.609 0v-194.697H460v194.697H280.391Zm-218.479 0v-194.697h178.479v194.697H61.912Z"/></svg>