<svg xmlns="http://www.w3.org/2000/svg" height="20" viewBox="0 -960 960 960" width="20"><path d="M134.461-225.846v-508.308h691.078v508.308H134.461Zm32.001-349.539h132.769v-126.769H166.462v126.769Zm164.769 0H464v-126.769H331.231v126.769Zm164.769 0h132.769v-126.769H496v126.769Zm164.769 0h132.769v-126.769H660.769v126.769Zm0 158.77h132.769v-126.77H660.769v126.77Zm-164.769 0h132.769v-126.77H496v126.77Zm-164.769 0H464v-126.77H331.231v126.77Zm-32-126.77H166.462v126.77h132.769v-126.77Zm361.538 285.539h132.769v-126.769H660.769v126.769Zm-164.769 0h132.769v-126.769H496v126.769Zm-164.769 0H464v-126.769H331.231v126.769Zm-164.769 0h132.769v-126.769H166.462v126.769Z"/></svg>