<svg xmlns="http://www.w3.org/2000/svg" height="24" viewBox="0 -960 960 960" width="24"><path d="m885-185-90-89q15-14 22.5-29.235 7.5-15.236 7.5-34.177Q825-372 800-397t-60-25h-75v-95q0-76.775-54.112-130.888Q556.775-702 480-702q-27 0-48.5 7T392-678l-91-91q35-28 83-43.5t96-15.5q122 0 210 83t99 204q72 19 117 76t45 131q0 45-19.5 85.5T885-185ZM772-51l-75-75H260q-104.964 0-177.982-73.018T9-377q0-81 50-150.5T189-615q1-2 1-8.5t1-8.5L60-763q-14-14-14-33.5T60-830q14-14 33.5-14t33.5 14l712 712q14 14 14 33.5T839-51q-14 14-33.433 14Q786.133-37 772-51ZM260-252h311L298-525q0 6-.5 11.484T297-502h-37q-51.786 0-88.393 36.652Q135-428.697 135-376.848 135-325 171.607-288.5T260-252Zm334-224Zm-160 87Z"/></svg>