<svg xmlns="http://www.w3.org/2000/svg" height="20" viewBox="0 -960 960 960" width="20"><path d="M76.782-124.782v-614.436h201.044l79.913-96h244.522l79.913 96h201.044v614.436H76.782Zm98.001-98.001h610.434v-418.434H637.696l-78.317-96H402.218l-81.609 96H174.783v418.434ZM480-433Zm0 169q70 0 119-49t49-119q0-6-.457-12-.458-6-1.372-12h-81.65q2 6 2.5 12t.5 12q0 36.363-25.579 61.942T480-344.479H336.913q21.869 34.131 58.204 57.305Q431.451-264 480-264ZM313.829-408h81.65q-2-6-2.5-12t-.5-12q0-36.363 25.579-61.942T480-519.521h143.087q-21.869-34.131-57.921-57.305Q529.115-600 480-600q-70 0-119 49t-49 119q0 6 .457 12 .458 6 1.372 12Z"/></svg>