<svg xmlns="http://www.w3.org/2000/svg" height="20" viewBox="0 -960 960 960" width="20"><path d="M433.615-433.826q19.167 0 32.776-13.681Q480-461.187 480-479.789q0-19.168-13.398-32.777-13.399-13.608-32.566-13.608-18.602 0-32.493 13.398-13.892 13.398-13.892 32.565 0 18.602 13.681 32.494 13.681 13.891 32.283 13.891ZM295.348-126.912v-96.436l221.912-45.174v-415.043l-221.912-48v-97.436l319.914 59.696v579.828l-319.914 62.565Zm-170.001 1.565v-98.001h72v-605.653h565.306v605.653h72v98.001H125.347Zm170.001-98.001h369.304v-507.651l-369.304-.566v508.217Z"/></svg>