<svg xmlns="http://www.w3.org/2000/svg" height="20" viewBox="0 -960 960 960" width="20"><path d="M480-168q19 0 37.5-2t36.5-7l-42-63H384v-48l72-72h72v-120h-48l-48-48v-96H329v-66l58-88q-96 29-157.5 110.5T168-480h48v-72h144v72l-48 48v96H204q39 75 112 121.5T480-168Zm301-233q5-19 8-39t3-40q0-105-61-186T576-777v105l72 72v74h31l102 125ZM480.174-148Q412-148 351.442-173.891q-60.559-25.892-106.075-71.348-45.515-45.457-71.441-105.935Q148-411.652 148-479.826q0-69.174 25.891-129.232 25.892-60.059 71.348-105.574 45.457-45.516 105.935-71.442Q411.652-812 479.826-812q69.174 0 129.232 25.891 60.059 25.892 105.574 71.348 45.516 45.457 71.442 105.435Q812-549.348 812-480.174q0 68.174-25.891 128.732-25.892 60.559-71.348 106.075-45.457 45.515-105.435 71.441Q549.348-148 480.174-148Z"/></svg>