<svg xmlns="http://www.w3.org/2000/svg" height="20" viewBox="0 -960 960 960" width="20"><path d="M83.384-419.384v-409.232h793.232v409.232H83.384Zm32.001-377.231v345.23h729.23v-345.23h-729.23Zm41.153 528.154-2.461-47.385 646.385-33.462 2.461 47.385-646.385 33.462Zm-.23 120.769v-47.385h647.384v47.385H156.308Zm281.384-374.769q65 0 124.539-23.5 59.538-23.5 95.154-78.039 2 34 28.384 55.385 26.385 21.384 60.847 22.923v-156.616q-34.462 2.308-61.231 23.693-26.77 21.384-28 54.615-35.846-53.308-95.27-77.423-59.423-24.116-124.423-24.116-64.787 0-125.047 24.27Q252.384-677 216.461-624q34.154 54 95.124 77.769 60.969 23.77 126.107 23.77ZM115.385-796.615v345.23-345.23Z"/></svg>