<svg xmlns="http://www.w3.org/2000/svg" height="20" viewBox="0 -960 960 960" width="20"><path d="M35-384v-506.001H925V-384H34.999ZM133-792v309.999h693.998V-792H133.001Zm.129 570.088-5.696-98.001 696.436-36.696 5.696 98.001-696.436 36.696Zm-2.131 140.914v-98.001h698.002v98.001H130.999Zm295.219-436.568q69.053 0 131.547-25.956 62.495-25.957 101.8-82.739 6.522 41.739 41.391 64.63 34.87 22.891 78.043 22.891v-196.522q-43.739 0-78.608 23.174-34.87 23.174-41.392 64.348-39.173-55.348-101.586-82.022Q495-756.435 426.218-756.435q-73.001 0-140.457 28.782-67.456 28.783-105.326 90.652 36.87 62.87 104.651 91.152 67.78 28.283 141.132 28.283ZM133.001-792v309.999V-792Z"/></svg>