<svg xmlns="http://www.w3.org/2000/svg" height="24" viewBox="0 -960 960 960" width="24"><path d="M34.5-360v-531h891v531h-891Zm83.478 147.652-3.717-71 729.761-38.717 3.717 71-729.761 38.717ZM114.5-104.5v-71h731v71h-731Zm298.13-401.239q71.37 0 137.598-24.924 66.228-24.924 116.511-76.294 7.913 41.044 45.435 61.729 37.522 20.684 82.326 20.684v-201.913q-45.044 0-82.565 21.305-37.522 21.304-45.435 63.108-51.804-49.608-117.152-76.413Q484-745.261 412.63-745.261q-78.282 0-150.565 27.62-72.282 27.619-116.804 92.141 44.522 64.522 116.804 92.141 72.283 27.62 150.565 27.62Z"/></svg>