<svg xmlns="http://www.w3.org/2000/svg" height="20" viewBox="0 -960 960 960" width="20"><path d="M42.5-384v-491h875v491h-875Zm97.478 151.652-4.717-83 681.761-35.717 4.717 83-681.761 35.717ZM138.5-103.5v-83h683v83h-683Zm284.13-406.239q72.37 0 138.098-27.424 65.728-27.424 106.011-87.794 3.913 43.044 39.435 67.729 35.522 24.684 80.326 24.684v-193.913q-45.044 0-80.565 24.805-35.522 24.804-39.435 67.608-40.804-58.608-106.152-86.913Q495-749.261 422.63-749.261q-74.282 0-142.565 28.62-68.282 28.619-106.804 91.141 37.522 63.522 106.304 91.641 68.783 28.12 143.065 28.12Z"/></svg>