<svg xmlns="http://www.w3.org/2000/svg" height="20" viewBox="0 -960 960 960" width="20"><path d="M183-386q-39 0-66.5-27.5T89-480q0-39 27.5-66.5T183-574q35 0 62 23t34 61h134v20H279q-7 38-33.805 61T183-386Zm0-20q30.4 0 52.2-21.8Q257-449.6 257-480q0-30.4-21.8-52.2Q213.4-554 183-554q-30.4 0-52.2 21.8Q109-510.4 109-480q0 30.4 21.8 52.2Q152.6-406 183-406Zm30 258v-20q132.675 0 222.337-88.23Q525-344.459 525-480.23 525-616 435.337-704 345.675-792 213-792v-20q141 0 235.5 94T545-490h288l-85-83 15-15 108 108-108 108-15-15 85-83H545q-2 134-96.5 228T213-148Z"/></svg>