<svg xmlns="http://www.w3.org/2000/svg" height="20" viewBox="0 -960 960 960" width="20"><path d="M340-266q-11.05 0-18.525-7.475Q314-280.95 314-292v8q0-11.05 7.475-18.525Q328.95-310 340-310h280q11.05 0 18.525 7.475Q646-295.05 646-284v-8q0 11.05-7.475 18.525Q631.05-266 620-266H340Zm0-384q-11.05 0-18.525-7.475Q314-664.95 314-676v8q0-11.05 7.475-18.525Q328.95-694 340-694h280q11.05 0 18.525 7.475Q646-679.05 646-668v-8q0 11.05-7.475 18.525Q631.05-650 620-650H340ZM158-148q-4.25 0-7.125-2.825-2.875-2.824-2.875-7 0-4.175 2.875-7.175t7.125-3h644q4.25 0 7.125 2.825 2.875 2.824 2.875 7 0 4.175-2.875 7.175T802-148H158Zm0-644q-4.25 0-7.125-2.825-2.875-2.824-2.875-7 0-4.175 2.875-7.175t7.125-3h644q4.25 0 7.125 2.825 2.875 2.824 2.875 7 0 4.175-2.875 7.175T802-792H158Z"/></svg>