<svg xmlns="http://www.w3.org/2000/svg" height="20" viewBox="0 -960 960 960" width="20"><path d="M110-75v-805q0-10.417 8.5-14.208 8.5-3.792 16.647 3.326L154-878q8.636 8 19.818 7.5Q185-871 193-879l21-15q7.636-8 18.818-8.5Q244-903 253-895l23 16q7.636 7 18.818 7Q306-872 314-879l24-17q7.636-7 18.818-7Q368-903 376-896l24 17q7.636 7 18.818 6.5Q430-873 438-880l23-15q7.636-7 18.818-7.5Q491-903 499-896l24 17q7.636 7 18.818 7Q553-872 561-879l24-17q7.636-7 18.818-7Q615-903 623-896l24 17q7.636 7 18.818 7Q677-872 685-879l25-17q7.636-7 18.818-7Q740-903 748-896l23 16q8.636 8 19.818 8Q802-872 810-880l14.853-9.882Q833-897 841.5-893.208 850-889.417 850-879v804q0 10.417-8.5 14.208Q833-57 824.853-64.118L810-74q-7.636-8-18.818-8Q780-82 771-74l-23 16q-7.636 7-18.818 7Q718-51 710-58l-25-17q-7.636-7-18.818-7Q655-82 647-75l-24 17q-7.636 7-18.818 7Q593-51 585-58l-24-17q-7.636-7-18.818-7Q531-82 523-75l-24 17q-7.636 7-18.818 7Q469-51 461-58l-24-17q-7.636-7-18.818-7Q407-82 399-75l-24 17q-7.636 7-18.818 7Q345-51 337-58l-24-17q-7.636-7-18.818-7Q283-82 275-75l-25 17q-7.636 7-18.818 7Q220-51 212-58l-23-16q-8.636-8-19.818-8Q158-82 150-74l-14.853 9.882Q127-57 118.5-60.792 110-64.583 110-75Zm234-229h272q18.3 0 31.15-12.789 12.85-12.79 12.85-31Q660-366 647.15-379T616-392H344q-18.3 0-31.15 12.789-12.85 12.79-12.85 31Q300-330 312.85-317T344-304Zm0-132h272q18.3 0 31.15-12.789 12.85-12.79 12.85-31Q660-498 647.15-511T616-524H344q-18.3 0-31.15 12.789-12.85 12.79-12.85 31Q300-462 312.85-449T344-436Zm0-132h272q18.3 0 31.15-12.789 12.85-12.79 12.85-31Q660-630 647.15-643T616-656H344q-18.3 0-31.15 12.789-12.85 12.79-12.85 31Q300-594 312.85-581T344-568ZM228-227h504v-506H228v506Zm0-506v506-506Z"/></svg>