<svg xmlns="http://www.w3.org/2000/svg" height="24" viewBox="0 -960 960 960" width="24"><path d="M160-145.538v-668.924q0-5.461 4.461-7.192 4.462-1.731 8.693.961l28.23 21.308q4.462 2.923 9.385 2.923t9.385-2.923l35.077-24.308q4.461-2.923 9.384-2.923t9.385 2.923l35.077 24.308q4.461 2.923 9.384 2.923 4.924 0 9.385-2.923l35.077-24.308q4.462-2.923 9.385-2.923t9.384 2.923l35.077 24.308q4.462 2.923 9.385 2.923t9.384-2.923l35.077-24.308q4.462-2.923 9.385-2.923t9.385 2.923l35.077 24.308q4.461 2.923 9.384 2.923t9.385-2.923l35.077-24.308q4.461-2.923 9.384-2.923t9.385 2.923l35.077 24.308q4.461 2.923 9.385 2.923 4.923 0 9.384-2.923L686-823.693q4.462-2.923 9.385-2.923t9.384 2.923l35.077 24.308q4.462 2.923 9.385 2.923t9.385-2.923l28.23-21.308q4.231-2.692 8.693-.961 4.461 1.731 4.461 7.192v668.924q0 5.461-4.461 7.192-4.462 1.731-8.693-.961l-28.23-21.308q-4.462-2.923-9.385-2.923t-9.385 2.923l-35.077 24.308q-4.461 2.923-9.384 2.923T686-136.307l-35.077-24.308q-4.461-2.923-9.384-2.923-4.924 0-9.385 2.923l-35.077 24.308q-4.462 2.923-9.385 2.923t-9.384-2.923l-35.077-24.308q-4.462-2.923-9.385-2.923t-9.384 2.923l-35.077 24.308q-4.462 2.923-9.385 2.923t-9.385-2.923l-35.077-24.308q-4.461-2.923-9.384-2.923t-9.385 2.923l-35.077 24.308q-4.461 2.923-9.384 2.923t-9.385-2.923l-35.077-24.308q-4.461-2.923-9.385-2.923-4.923 0-9.384 2.923L274-136.307q-4.462 2.923-9.385 2.923t-9.384-2.923l-35.077-24.308q-4.462-2.923-9.385-2.923t-9.385 2.923l-28.23 21.308q-4.231 2.692-8.693.961-4.461-1.731-4.461-7.192Zm120-179.077h400q8.539 0 14.269-5.731Q700-336.077 700-344.615q0-8.539-5.731-14.27-5.73-5.73-14.269-5.73H280q-8.539 0-14.269 5.73-5.731 5.731-5.731 14.27 0 8.538 5.731 14.269 5.73 5.731 14.269 5.731ZM280-460h400q8.539 0 14.269-5.731Q700-471.461 700-480t-5.731-14.269Q688.539-500 680-500H280q-8.539 0-14.269 5.731Q260-488.539 260-480t5.731 14.269Q271.461-460 280-460Zm0-135.385h400q8.539 0 14.269-5.73 5.731-5.731 5.731-14.27 0-8.538-5.731-14.269-5.73-5.731-14.269-5.731H280q-8.539 0-14.269 5.731Q260-623.923 260-615.385q0 8.539 5.731 14.27 5.73 5.73 14.269 5.73ZM200-196h560v-568H200v568Zm0-568v568-568Z"/></svg>