<svg xmlns="http://www.w3.org/2000/svg" height="24" viewBox="0 -960 960 960" width="24"><path d="M88.479-132.303q-36.498 0-62.488-25.991Q0-184.284 0-220.782h166.783q-44.305 0-75.153-30.848-30.848-30.848-30.848-75.153v-426.434q0-44.305 30.848-75.153 30.848-30.848 75.153-30.848h626.434q44.305 0 75.153 30.848 30.848 30.848 30.848 75.153v426.434q0 44.305-30.848 75.153-30.848 30.848-75.153 30.848H960q0 36.392-25.991 62.435-25.99 26.044-62.488 26.044H88.479ZM480-200q17 0 28.5-11.5T520-240q0-17-11.5-28.5T480-280q-17 0-28.5 11.5T440-240q0 17 11.5 28.5T480-200ZM166.783-326.783h626.434v-426.434H166.783v426.434Zm0 0v-426.434 426.434Z"/></svg>