<svg xmlns="http://www.w3.org/2000/svg" height="24" viewBox="0 -960 960 960" width="24"><path d="M90.77-189.231q-20.693 0-35.732-15.038Q40-219.308 40-240h144.615Q157-240 138.5-258.5 120-277 120-304.615v-430.77Q120-763 138.5-781.5 157-800 184.615-800h590.77Q803-800 821.5-781.5 840-763 840-735.385v430.77Q840-277 821.5-258.5 803-240 775.385-240H920q0 20.692-15.038 35.731-15.039 15.038-35.731 15.038H90.769Zm389.23-20q10.077 0 17.346-7.269t7.269-17.346q0-10.077-7.269-17.346-7.269-7.27-17.346-7.27t-17.346 7.27q-7.269 7.269-7.269 17.346t7.269 17.346q7.269 7.269 17.346 7.269ZM184.615-280h590.77q9.23 0 16.923-7.693Q800-295.385 800-304.615v-430.77q0-9.23-7.692-16.923Q784.615-760 775.385-760h-590.77q-9.23 0-16.923 7.692Q160-744.615 160-735.385v430.77q0 9.23 7.692 16.922Q175.385-280 184.615-280ZM160-280v-480 480Z"/></svg>