<svg xmlns="http://www.w3.org/2000/svg" height="20" viewBox="0 -960 960 960" width="20"><path d="m573-380-91 91q-4.364 4-9.182 4-4.818 0-8.818-4L139-614q-4-4-5-9t3.353-9.353l96.294-96.294q4.136-4.353 5.744-4.353 1.609 0 5.609 4l329 328q5 5.182 4.5 10.591Q578-385 573-380Zm-100 70 81-81-314-313-80 80 313 314Zm238 170L554-296l15-15 157 157q4 4 4.5 6.5T726-140q-5 5-7.5 5t-7.5-5Zm8.939-474Q676-614 645-645.061q-31-31.06-31-75Q614-764 645.061-795q31.06-31 75-31Q764-826 795-794.939q31 31.06 31 75Q826-676 794.939-645q-31.06 31-75 31Zm.179-20Q756-634 781-659.118q25-25.117 25-61Q806-756 780.882-781q-25.117-25-61-25Q684-806 659-780.882q-25 25.117-25 61Q634-684 659.118-659q25.117 25 61 25ZM720-720ZM360-504Z"/></svg>