<svg xmlns="http://www.w3.org/2000/svg" height="24" viewBox="0 -960 960 960" width="24"><path d="M618.088-382.391 496.479-260.782q-16.522 16.522-37.327 16.24-20.804-.283-36.761-16.24L64.303-618.87q-15.957-15.956-15.957-36.609 0-20.652 15.957-36.609l122.174-122.74q16.522-16.522 37.762-16.522 21.239 0 37.761 16.522l356.088 356.654q15.957 15.956 16.239 37.609.283 21.652-16.239 38.174Zm105.26 299.827L578.522-227.39l74.088-74.088 144.826 144.826q14.957 14.957 14.957 37.044 0 22.087-14.957 37.044-14.957 14.957-37.044 14.957-22.087 0-37.044-14.957ZM740-596.609q-65.913 0-112.566-46.652-46.652-46.652-46.652-112.566 0-65.913 46.652-112.283Q674.087-914.48 740-914.48q65.913 0 112.566 46.37 46.652 46.37 46.652 112.283 0 65.914-46.652 112.566Q805.913-596.609 740-596.609Z"/></svg>