<svg xmlns="http://www.w3.org/2000/svg" height="20" viewBox="0 -960 960 960" width="20"><path d="M172.669-121.39q-21.583 0-36.714-15.237-15.13-15.236-15.13-37.002v-79.37l154.174-133.044v264.653h-102.33Zm152.026 0v-154.74h310.61v154.74h-310.61Zm360.306 0v-330.48L518.13-595.609l117.914-101.783 185.001 158.87q8.565 8.131 13.347 18.256 4.783 10.125 4.783 21.57V-173.3q0 21.629-14.989 36.77-14.989 15.14-36.402 15.14H685.001ZM120.825-319.826v-178.61q0-11.366 4.783-21.66 4.782-10.295 13.347-18.426l307.219-262.957q8.13-6.566 16.496-9.848 8.366-3.283 17.131-3.283 8.764 0 17.329 3.283 8.566 3.282 16.696 8.848l84.087 71.956-477.088 410.697Z"/></svg>