<svg xmlns="http://www.w3.org/2000/svg" height="24" viewBox="0 -960 960 960" width="24"><path d="m672.521-102.477-12.565-62.827q-9.739-3.869-19.108-9.086-9.37-5.218-18.674-11.522l-60.826 19.13-46.783-80.435 48.261-41.696q-2-9.739-2-22.608 0-12.87 2-22.609l-48.261-41.696 46.783-79.87 60.826 18.566q9.304-6.305 18.674-11.24 9.369-4.934 19.108-8.804L672.521-520h94.131l13.131 62.826q9.739 3.87 19.108 8.804 9.37 4.935 18.674 11.24l60.261-18.566 47.348 79.87-48.826 41.696q2 9.739 2 22.609 0 12.869-2 22.608l48.826 41.696-47.348 80.435-60.261-19.13q-9.304 6.304-18.674 11.522-9.369 5.217-19.108 9.086l-13.131 62.827h-94.131Zm-571.739-38.305v-758.436h758.436v335.392q-24.087-13.522-50.587-22.13-26.501-8.609-55.414-12.174v-195.087H206.783v349.826H368q8.435 25.304 26.891 43.891 18.457 18.587 42.196 27.717-13.522 60.218-.892 120.566 12.631 60.348 49.718 110.435H100.782Zm619.088-94.696q30.739 0 53.108-22.652 22.37-22.652 22.37-53.391 0-30.739-22.37-53.109-22.369-22.369-53.108-22.369-30.74 0-53.392 22.369-22.652 22.37-22.652 53.109t22.652 53.391q22.652 22.652 53.392 22.652Z"/></svg>