<svg xmlns="http://www.w3.org/2000/svg" height="24" viewBox="0 -960 960 960" width="24"><path d="M680.181-126.154q-47.511 0-80.769-33.258t-33.258-80.769q0-47.511 33.258-80.588 33.258-33.077 80.769-33.077t80.588 33.077q33.077 33.077 33.077 80.588 0 47.511-33.077 80.769t-80.588 33.258Zm-24.027-272.307v-75.385h47.692v75.385h-47.692Zm0 392.307V-81.54h47.692v75.385h-47.692Zm153.461-329.923-34.153-33.538L829-423.153 862.538-389l-52.923 52.923Zm-278.23 278.23L497.847-91l53.538-53.923 33.538 33.538-53.538 53.538Zm307.076-158.307v-47.692h75.385v47.692h-75.385Zm-392.307 0v-47.692h75.385v47.692h-75.385ZM829-57.847l-52.923-53.538 33.538-33.538L863.153-92 829-57.847ZM550.77-335.462 497.847-389l33.538-33.538 53.538 52.923-34.153 34.153ZM140.001-100.001v-679.998h127.693v-84.615h61.537v84.615h303.076v-84.615h59.999v84.615h127.693v232.308H200V-160h172.309v59.999H140.001ZM200-607.69h560V-720H200v112.31Zm0 0V-720v112.31Z"/></svg>