<svg xmlns="http://www.w3.org/2000/svg" height="20" viewBox="0 -960 960 960" width="20"><path d="M476-342Zm82.593 140.756L371-276H222q-11.05 0-18.525-7.475Q196-290.95 196-302v-66q0-58.68 40.66-99.34Q277.32-508 336-508h396.848q13.438 0 22.295 8.956Q764-490.089 764-477q0 10-5.5 17.5T742.615-448L630-416v166q0 14-5.939 25.333-5.94 11.334-15.943 18.667-10.266 7.25-23.192 8.625t-26.333-3.869ZM488.044-372H365q-14 0-23.438 8.692Q332.125-354.615 330-344q-2 11.312 2.8 23.094Q337.6-309.125 351-304l215 84q16 6 30-3.5t14-26.5v-122H488.044ZM216-296h129q-15-5.333-25-16.825-10-11.491-10-24.175 0-22.579 16.211-38.789Q342.421-392 365-392h113l258-75q5-2 7-5t1-7q-1-4-3.5-6.5t-7.278-2.5H336q-50 0-85 35t-35 85v72Zm260-46Zm4-234q-38.55 0-65.275-26.725Q388-629.45 388-668q0-38.55 26.725-65.275Q441.45-760 480-760q38.55 0 65.275 26.725Q572-706.55 572-668q0 38.55-26.725 65.275Q518.55-576 480-576Zm.212-20Q510-596 531-617.212q21-21.213 21-51Q552-698 530.788-719q-21.213-21-51-21Q450-740 429-718.788q-21 21.213-21 51Q408-638 429.212-617q21.213 21 51 21ZM480-668Z"/></svg>