<svg xmlns="http://www.w3.org/2000/svg" height="24" viewBox="0 -960 960 960" width="24"><path d="M46-126v-708h868v126H172v456h308v126H46Zm126-126v-456 456ZM924 56H688v-160q-73-20-120.5-79.291T520-322v-306h452v306q0 79.418-47.5 138.709T804-104v44h120V56ZM816-375h40v-137H636v57h20q35.87 0 67.935 16Q756-423 778-394q7 9 17.075 14T816-375Zm-70 163q32.049 0 57.525-15.5Q829-243 843-269h-27q-35.946 0-68.08-15.795Q715.786-300.589 694-330q-7.125-8.708-17.021-13.854Q667.083-349 656-349h-20v27q0 46 32 78t78 32Zm-52-182ZM246-518h194v-106H246v106Zm0 182h194v-106H246v106Z"/></svg>