<svg xmlns="http://www.w3.org/2000/svg" height="20" viewBox="0 -960 960 960" width="20"><path d="M116.001-212.001v-535.998h727.998v64.308H404.923v93.692H250.001v51.998h154.922v116.002H250.001v51.998h155.922q5 44.154 20.576 84.461 15.577 40.308 45.577 73.539H116.001ZM630.615-77.233v-136.615q-64-8.538-104.999-57.219-41-48.681-41-112.933v-219.999h343.997V-384q0 64.252-41 112.933-41 48.681-104.999 57.219v84.617h108v51.998H630.615Zm92.999-320.766h53V-552h-240v82.001h52q26.571 0 50.324 12.346 23.753 12.346 38.599 35.807 8.346 10.924 20.609 17.385 12.262 6.462 25.468 6.462Z"/></svg>