<svg xmlns="http://www.w3.org/2000/svg" height="20" viewBox="0 -960 960 960" width="20"><path d="M116.001-212.001v-535.998h727.998v64.308H792V-696H168v432h292.616v51.999H116.001ZM168-264v-432 432ZM790.614-77.233H630.615v-136.615q-63.384-8.538-104.692-56.23Q484.616-317.77 484.616-384v-219.999h343.997V-384q0 66.23-41.308 113.922-41.307 47.692-104.691 56.23v84.617h108v51.998Zm-67-320.766h53V-552h-240v82.001h52q26.362 0 50.219 12.846 23.858 12.846 38.704 35.307 8.346 11.924 20.609 17.885 12.262 5.962 25.468 5.962Zm-67 133.999q39.762 0 70.381-23.077 30.62-23.077 41.927-58.924h-45.308q-26.709 0-50.585-12.346t-38.604-34.246q-8.301-12.014-20.323-18.711-12.023-6.697-25.488-6.697h-52V-384q0 51 34.5 85.5t85.5 34.5Zm-22.307-157.846ZM250.001-538.001h154.922v-51.998H250.001v51.998Zm0 168h154.922v-51.998H250.001v51.998Z"/></svg>