<svg xmlns="http://www.w3.org/2000/svg" height="24" viewBox="0 -960 960 960" width="24"><path d="M120-200v-560h720v64.615H433.846V-580H260v40h173.846v120H260v40h173.846q0 49.308 13.654 95.923 13.654 46.616 44.654 84.077H120ZM669.231-98.461v-103.231q-60-7.077-100-52.462-40-45.384-40-105.846v-240h320v240q0 60.462-40 105.846-40 45.385-100 52.462v63.231h120v40h-160Zm90-281.539h50v-180h-240v100h30q28.033 0 53.094 12.692 25.06 12.693 42.752 35.616 10.693 15.846 28.068 23.769Q740.519-380 759.231-380Z"/></svg>