<svg xmlns="http://www.w3.org/2000/svg" height="20" viewBox="0 -960 960 960" width="20"><path d="m707.615-536.308-23.307-21.769 68.077-69.616 22.308 23.308-67.078 68.077ZM116-164v-32h728v32H116Zm348-474.769v-95.385h32v95.385h-32Zm-214.615 104-69.616-68.077 23.308-23.308 68.077 68.077-21.769 23.308ZM276-360h408q-22-64-77.385-104Q551.231-504 480-504t-126.615 40Q298-424 276-360Zm-39.385 32q13.846-90 82.604-149 68.759-59 160.539-59 91.781 0 160.781 58.828 69 58.829 82.846 149.172h-486.77ZM480-360Z"/></svg>