<svg xmlns="http://www.w3.org/2000/svg" height="24" viewBox="0 -960 960 960" width="24"><path d="M97.694-130.001v-499.998h212.305v40h16.155v-193.077h379.999v193.077h144.614v419.998H309.999v40H97.694Zm59.998-59.998h92.309v-380.002h-92.309v380.002Zm228.461-400h260.001v-133.078H386.153v133.078Zm-76.154 360h480.77v-300.002h-480.77v300.002ZM356.154-280h160v-200h-160v200Zm-46.155 50.001v-300.002 300.002ZM556.154-400h80v-80h-80v80Zm116.153 0h80v-80h-80v80ZM556.154-280h80v-80h-80v80Zm116.153 0h80v-80h-80v80Z"/></svg>