<svg xmlns="http://www.w3.org/2000/svg" height="20" viewBox="0 -960 960 960" width="20"><path d="M174.783-172.782q-41.305 0-69.653-28.348-28.348-28.348-28.348-69.653v-418.434q0-41.305 28.348-69.653 28.348-28.348 69.653-28.348h610.434q41.305 0 69.653 28.348 28.348 28.348 28.348 69.653v162.78L673.435-319.218l-9.564-8.564q-28.914-28.914-69.088-28.631-40.174.283-69.088 29.196l-39.086 41.086q-24.913 24.913-24.913 58.088 0 33.174 24.913 58.088l-2.826-2.827h-309ZM480-525.479 241.088-652.695q-22.957-12.696-44.631.848-21.674 13.543-21.674 39.065 0 12.261 7.196 22.74 7.195 10.478 16.891 16.609l257.478 138.216q10.261 6.13 23.652 6.13 13.391 0 23.652-6.13L762.13-573.433q9.696-6.131 16.391-16.327 6.696-10.195 6.696-23.022 0-25.522-21.674-39.065-21.674-13.544-44.631-.848L480-525.479Zm194 308.261 147.869-146.304q14.391-14.391 32.631-14.391 18.239 0 32.63 14.391 14.392 14.392 14.392 33.131T887.13-297.26L709.609-119.739q-14.957 14.957-35.109 14.957t-35.109-14.957L562.87-196.26q-14.392-14.392-14.109-32.631.282-18.239 14.674-32.631 14.391-14.391 32.848-14.391t32.848 14.391L674-217.218Z"/></svg>