<svg xmlns="http://www.w3.org/2000/svg" height="24" viewBox="0 -960 960 960" width="24"><path d="M340-124.642q0-8.512 5.75-14.242 5.75-5.731 14.25-5.731h240q8.5 0 14.25 5.758Q620-133.1 620-124.588q0 8.511-5.75 14.242-5.75 5.731-14.25 5.731H360q-8.5 0-14.25-5.758T340-124.642Zm4.87-99.973q-27.87 0-46.37-18.5-18.5-18.5-18.5-46.116V-800q0-27.616 18.5-46.116t46.37-18.5h270.26q27.87 0 46.37 18.5Q680-827.616 680-800v510.769q0 27.616-18.5 46.116t-46.37 18.5H344.87ZM320-364.616h320v-359.999H320v359.999Z"/></svg>