<svg xmlns="http://www.w3.org/2000/svg" height="24" viewBox="0 -960 960 960" width="24"><path d="M366.923-92.23q-46 0-80.577-27.847-34.577-27.846-47.654-71.384-12.154 20.23-33.577 30.961-21.423 10.731-45.115 10.731-41.77 0-70.885-29.231Q60-208.231 60-249.769q0-36.846 25.692-67.116 25.692-30.269 64.846-30.653-20.154-18.462-31.884-44.424-11.731-25.961-11.731-54.038 0-33.077 16.269-62.308t45.577-48.154q2.692 8.77 7.346 18.885 4.654 10.116 9.5 18.193-18.615 14.076-28.153 33.423-9.539 19.346-9.539 40.961 0 62.154 46 80.154 46 18 94.692 27.538l9 15.847q-11 32-17.846 54.115-6.846 22.115-6.846 40.885 0 37.692 27.269 65.576Q327.461-133 366.154-133q38.923 0 64.884-26.808 25.962-26.807 43.385-65.615 17.423-38.808 27.808-82.115 10.384-43.308 17.153-76.308 2.231-8.539 9.308-13.923 7.077-5.385 15.385-2.693 8.538 2.693 12.808 10.5 4.269 7.808 1.807 17.116-8.23 40.615-20.307 89.538-12.077 48.924-33.27 91.385-21.192 42.462-54.615 71.077-33.423 28.615-83.577 28.615ZM160-189.77q24.692 0 42.346-17.654Q220-225.077 220-249.769q0-24.692-17.654-42.346-17.654-17.654-42.346-17.654-24.693 0-42.346 17.654Q100-274.461 100-249.769q0 24.692 17.654 42.346 17.653 17.654 42.346 17.654Zm255.308-180.846q-6.846 6.846-15.731 5.73-8.885-1.115-15.962-7.961Q310.461-439 265.231-492.539 220-546.077 220-609q0-56.539 38.731-95.269Q297.461-743 354-743q10.923 0 19.692 1.269t16.616 3.577q-4.77-9.231-7.539-18.846Q380-766.616 380-777.616q0-41.538 29.231-70.769 29.23-29.231 70.769-29.231t70.769 29.231Q580-819.154 580-777.616q0 11-2.769 20.5t-7.539 18.731q7.847-2.308 16.616-3.461Q595.077-743 606-743q45.385 0 79.308 25.807 33.923 25.808 46.538 65.885-9.538-1.461-21.269-1.461-11.731 0-21.5 1.231-10.846-23-32.808-37.231Q634.308-703 606-703q-37.308 0-59.5 19.346T488.769-623h-18.538q-36.539-42.538-58.731-61.269T354-703q-40.461 0-67.231 26.769Q260-649.462 260-609q0 44.308 39.885 93.269 39.884 48.962 111.5 114.577 7.077 6.615 8.807 15.269 1.731 8.654-4.884 15.27ZM480-717.616q24.692 0 42.346-17.654Q540-752.923 540-777.616q0-24.692-17.654-42.346-17.654-17.654-42.346-17.654-24.692 0-42.346 17.654Q420-802.308 420-777.616q0 24.693 17.654 42.346 17.654 17.654 42.346 17.654ZM590.539-91.461q-14.308 0-28.116-2.924-13.808-2.923-26.885-9.769 5.616-7.077 11.231-16.846 5.616-9.769 10-18.077 8.693 3.923 17.77 5.385 9.076 1.461 17.769 1.461 38.923 0 66.577-27.884 27.653-27.885 27.653-66.577 0-19-6.846-40.616-6.846-21.615-17.846-53.615l9.769-15.846q49.693-9.539 95.193-27.923 45.5-18.385 45.5-80.539 0-48.461-34.116-71.846-34.115-23.384-76.807-23.384-36.539 0-84.462 11.615t-109.231 31.385q-9.307 2.692-17.615-.731-8.308-3.423-11-12.731-2.692-8.538 2.692-15.962 5.385-7.423 13.923-10.115 60.693-19.231 109.77-32.115Q654.539-582 697-582q60.539 0 107.923 35.615 47.385 35.616 47.385 101.154 0 28.077-11.346 52.885-11.346 24.808-31.5 44.808 39.154 1.153 64.846 30.653T900-249.769q0 40.769-29.115 70.385Q841.77-149.769 800-149.769q-23.692 0-45.115-10.731-21.423-10.731-33.577-30.961-13.077 43.538-48.423 71.769-35.346 28.23-82.346 28.23ZM801-189.77q24.693 0 41.846-17.654Q860-225.077 860-249.769q0-24.692-17.654-42.846-17.653-18.154-42.346-18.154-24.692 0-42.346 17.654Q740-275.461 740-250.769q0 24.692 18.154 42.846 18.154 18.154 42.846 18.154Zm-641-60Zm320-527.847Zm320 526.847Z"/></svg>