<svg xmlns="http://www.w3.org/2000/svg" height="20" viewBox="0 -960 960 960" width="20"><path d="M353-58.891q-46.809 0-84.17-23.587-37.36-23.586-57.982-64.652-17.239 21.913-42.608 33.989-25.369 12.076-52.697 12.076-52.195 0-88.652-36.171-36.456-36.172-36.456-87.674 0-45.416 29.413-81.612 29.413-36.195 74.804-42-13-20.239-19.88-41.894-6.88-21.655-6.88-45.823 0-47.253 26.956-88.42t76.869-61.406q4 20.195 14.837 42.25 10.837 22.054 20.555 40.25-23 10.522-36 28.663t-13 39.902q0 52.756 46.619 64.563 46.62 11.807 84.185 19.567l21.435 37.631q-10.283 29.033-18.761 51.654-8.478 22.622-8.478 41.868 0 28.243 19.815 49.426 19.816 21.182 48.982 21.182 29.659 0 51.322-22.702 21.663-22.701 36.805-56.63 15.141-33.929 24.517-73.137 9.376-39.209 15.146-71.204 3.618-19.455 19.231-30.184 15.613-10.73 33.559-5.73 19.231 5.24 28.21 23.669 8.978 18.43 4.739 38.636-9.239 45.693-23.598 96.39-14.359 50.697-38.598 93.24Q479-114.217 442.668-86.554 406.336-58.891 353-58.891Zm71.63-322.283q-13.717 13.717-34.174 13.076-20.456-.641-35.327-14.515-69.477-63.191-114.857-120.43-45.381-57.24-45.381-123.957 0-67.04 46.035-113.074Q286.96-786.109 354-786.109q2.722 0 5.002-.119 2.281-.12 3.802-.12-3.956-10.225-5.934-20.569-1.979-10.345-1.979-21.735 0-52.029 36.574-88.569 36.575-36.54 88.653-36.54t88.534 36.54q36.457 36.54 36.457 88.569 0 11.195-1.979 21.891-1.978 10.696-6.934 20.652H606q61.913 0 106.109 41.674 44.195 41.674 51.239 101.826-20.435-3.717-45.609-4.217-25.174-.5-45.369 2.739-6.389-22.522-23.819-37.163-17.43-14.641-42.218-14.641-34.333 0-55.29 22.913-20.956 22.913-50.608 57.087h-41.87q-30.413-35.696-51.25-57.848t-53.39-22.152q-29.668 0-49.242 19.595Q285.109-656.7 285.109-627q0 40.804 38.304 85.228 38.304 44.424 96.935 96.936 14.717 12.553 16.478 31.129 1.761 18.576-12.196 32.533ZM606-58.891q-23.633 0-46.871-6.979-23.238-6.978-43.955-20.934 12.623-16.004 25.246-37.535 12.623-21.531 21.863-39.965 10.76 7.717 22 11.576 11.239 3.858 22.35 3.858 30.671 0 50.845-21.548t20.174-50.699q0-19.796-8.359-42.274-8.358-22.479-18.641-51.848l21.196-36.391q39.565-7.761 85.304-19.164 45.739-11.402 45.739-65.039 0-37.971-27.902-55.515-27.902-17.543-61.706-17.543-35.24 0-79.369 11.641-44.13 11.641-95.74 28.728-18.956 6.718-36.793-1.619t-23.077-26.555q-5.239-18.697 5.74-35.392 10.978-16.695 30.413-23.412 56.26-18.326 105.947-30.467 49.687-12.142 93.96-12.142 70.114 0 123.93 42.506Q892.109-513.097 892.109-436q0 23.929-6.881 45.584-6.88 21.655-19.88 41.894 45.391 5.565 74.924 41.687 29.533 36.122 29.533 82.044 0 51.813-36.457 87.769-36.457 35.957-88.652 35.957-27.674 0-52.989-12.196-25.316-12.195-42.555-34.109-21.717 41.24-58.695 64.86Q653.478-58.892 606-58.892Z"/></svg>