<svg xmlns="http://www.w3.org/2000/svg" height="20" viewBox="0 -960 960 960" width="20"><path d="M353-54.652q-47.461 0-85.637-23.75-38.176-23.748-59.45-64.815-17.565 24.522-44.565 38.066-27 13.543-56.61 13.543-53.826 0-91.587-37.476-37.76-37.475-37.76-90.608 0-48.351 32.021-86.178 32.022-37.826 80.674-42-13-20.565-19.717-42.383-6.717-21.818-6.717-46.312 0-49.21 28.26-91.844 28.262-42.635 80.784-63.2 4 21.826 15.978 46t22.674 44q-23 9.87-36 27.522t-13 39.087q0 51.125 46.783 61.954 46.782 10.828 82.391 18.263l23.391 41.218q-9.304 25.445-18.434 48.556-9.131 23.111-9.131 44.313 0 26.939 18.348 47.144 18.348 20.204 46.21 20.204 27.703 0 48.224-21.072 20.522-21.071 35.174-52.717 14.652-31.645 23.702-68.897 9.05-37.252 14.82-68.27 4.271-21.085 21.188-32.303 16.917-11.219 36.493-6.219 21.189 5.566 30.819 25.789 9.631 20.224 5.065 42.386-9.565 45.693-24.413 95.086-14.848 49.392-39.413 90.631-24.565 41.239-61.06 67.76Q406.01-54.651 353-54.651Zm60.216-336.305q-14.695 14.695-36.456 14.543-21.761-.152-37.611-15.004-58.062-52.756-103.28-110.321Q190.652-559.304 190.652-627q0-68.67 47.339-116.009T354-790.348q2.07 0 4.187-.283 2.117-.282 2.987-.282-5.261-11.53-7.892-23.342-2.63-11.812-2.63-24.833 0-53.659 37.878-91.504 37.879-37.844 91.588-37.844 53.708 0 91.469 37.844 37.761 37.845 37.761 91.504 0 12.826-2.63 25.153-2.631 12.326-8.892 23.587H606q64.522 0 110.348 43.957 45.826 43.956 51.565 107.043-22.391-4.695-49.848-5.195-27.456-.5-49.283 3.065-5.736-21.87-22.188-36.022-16.452-14.152-40.261-14.152-34.333 0-56.594 25.522-22.261 25.522-47.348 54.478h-45.782q-25.522-29.825-47.5-54.913-21.979-25.087-55.184-25.087-27.711 0-46.144 18.454T289.348-627q0 39.174 36.674 82.13 36.674 42.957 83.89 85.033 15.696 13.531 17.131 33.575 1.434 20.044-13.827 35.305ZM606-54.652q-24.938 0-49.643-7.63-24.705-7.63-46.401-22.892 13.928-17.634 27.855-41.121 13.928-23.488 23.493-43.879 10.435 8.695 22 13.043 11.566 4.348 23.003 4.348 29.367 0 48.073-20.896 18.707-20.896 18.707-48.417 0-21.426-8.848-44.556-8.848-23.131-18.152-48.913l22.826-39.653q37.608-7.434 83.674-18.021 46.065-10.587 46.065-62.594 0-36.341-27.087-52.58-27.087-16.239-59.261-16.239-35.565 0-78.39 11.152t-85.957 25.63q-20.261 7.696-39.239-1.782-18.978-9.478-24.544-29.001-5.565-20.653 6.066-38.652 11.63-18 33.022-25.696 48.434-16.043 96.653-27.695 48.219-11.652 93.145-11.652 72.07 0 127.679 43.484Q896.348-515.38 896.348-436q0 23.929-6.717 45.747-6.718 21.818-19.718 42.383 48.653 3.609 80.957 41.361 32.305 37.752 32.305 86.936 0 53.443-37.761 90.704-37.761 37.261-91.587 37.261-29.957 0-57.066-13.826t-44.674-38.348q-22.696 41.565-60.326 65.348Q654.13-54.652 606-54.652Z"/></svg>