<svg xmlns="http://www.w3.org/2000/svg" height="20" viewBox="0 -960 960 960" width="20"><path d="M369.923-91.23q-46.331 0-81.17-27.313-34.84-27.313-48.061-69.918-13.154 19.23-34.25 29.461-21.097 10.231-44.442 10.231-41.77 0-71.885-29.446Q60-207.66 60-249.505q0-37.11 25.192-67.88 25.192-30.769 64.346-33.153-19.154-18.462-30.384-43.459-11.231-24.997-11.231-52.003 0-38.895 21.769-73.217 21.769-34.322 62.077-51.245 1.692 9.77 7.846 19.885 6.154 10.116 9 20.193-27.615 14.076-42.153 36.423-14.539 22.346-14.539 48.961 0 60.105 46.5 77.629 46.5 17.525 93.192 27.063l10 18.847q-11 31.663-17.846 53.541-6.846 21.879-6.846 40.459 0 36.892 26.661 64.176Q330.245-136 368.059-136q38.018 0 63.979-26.205Q458-188.41 475.423-226.321q17.423-37.91 27.423-80.861 10-42.951 16.538-75.664 2.372-9.798 10.105-15.553 7.733-5.755 16.791-3.063 9.335 2.693 13.605 12.115 4.269 9.422 1.807 20.501-8.23 40.309-20.307 88.885-12.077 48.577-33.77 90.538-21.692 41.962-54.828 70.077-33.135 28.115-82.864 28.115Zm45.385-277.385q-6.846 6.846-16.731 6.23-9.885-.615-17.116-7.618-74-66.997-118.73-120.536Q218-544.077 218-607q0-57.383 39.309-96.692Q296.617-743 354-743q10.123 0 18.292.769 8.169.769 14.016 3.077-3.77-8.499-6.039-17.383Q378-765.421 378-775.616q0-42.371 29.848-72.186 29.849-29.814 72.27-29.814 42.421 0 72.151 29.814Q582-817.987 582-775.616q0 10-2.269 19.5t-7.039 17.731q5.847-2.308 14.616-3.461Q596.077-743 606-743q45.385 0 80.308 27.307 34.923 27.308 47.538 68.385-10.538-1.461-23.269-1.961-12.731-.5-22.5 1.731-10.713-23-32.322-37.231Q634.146-699 606.333-699q-36.641 0-59.333 19.846T489.769-619h-20.538Q433.692-660.538 411-679.769T353.925-699q-39.564 0-65.744 26.202Q262-646.597 262-607q0 44.308 39.885 93.269 39.884 48.962 111.5 113.741 7.077 6.451 8.307 15.105 1.231 8.654-6.384 16.27ZM587.539-90.461q-14.985 0-29.454-3.424-14.47-3.423-27.547-10.269 6.282-7.884 12.565-18.75 6.282-10.865 10.666-20.173 8.693 3.923 17.77 5.885 9.076 1.961 17.641 1.961 38.551 0 65.955-27.411 27.403-27.411 27.403-65.45 0-18.6-6.846-40.216-6.846-21.615-17.846-53.615l10.769-17.846q48.693-9.539 94.193-26.923 45.5-17.385 45.5-78.372 0-47.628-33.116-71.513-33.115-23.884-75.807-23.884-36.539 0-83.548 11.615t-107.145 31.385q-10.307 3.692-19.615-.731-9.308-4.423-12-13.993-2.692-8.8 3.192-16.461 5.885-7.662 15.423-11.354 59.693-19.231 108.532-32.115Q653.064-585 695.321-585q60.218 0 108.102 36.404 47.885 36.404 47.885 103.365 0 27.006-10.846 50.849-10.846 23.844-30 43.844 39.154 3.153 64.346 33.079Q900-287.533 900-249.386q0 41.386-30.115 71.002Q839.77-148.769 798-148.769q-23.692 0-44.615-10.231-20.923-10.231-34.077-29.461-14.077 42.538-49.423 70.269-35.346 27.73-82.346 27.73Z"/></svg>