<svg xmlns="http://www.w3.org/2000/svg" height="20" viewBox="0 -960 960 960" width="20"><path d="M182.461-244.307q-18.861 3.846-32.661-6.108T136-281.538v-394.385q0-20.77 13.8-31.423 13.8-10.654 32.661-6.808 24.539 5.384 53 12.846 28.462 7.462 65.077 12.615 36.616 5.154 80.923 6.923Q425.769-680 480.5-680t98.154-1.77q43.423-1.769 80.039-6.923 36.615-5.153 65.192-12.615 28.577-7.462 52.115-12.846 18.862-3.846 33.431 6.108Q824-698.093 824-676.923v395.385q0 21.169-14.569 31.123T776-244.307q-23.538-5.385-52.115-12.847-28.577-7.461-65.192-13.384-36.616-5.923-80.039-7.692Q535.231-280 480.5-280q-54.731 0-99.039 1.77-44.307 1.769-80.923 7.692-36.615 5.923-65.077 13.384-28.461 7.462-53 12.847Z"/></svg>