<svg xmlns="http://www.w3.org/2000/svg" height="24" viewBox="0 -960 960 960" width="24"><path d="M164.261-222.022q-39.674-45.956-63.033-101.63Q77.869-379.326 72.108-440h93.001q6.239 42.283 21.761 81.424 15.521 39.141 41.043 72.663l-63.652 63.891ZM72.109-520q7.76-60.674 30-116.348 22.239-55.674 61.913-101.87l63.891 64.131q-25.522 33.522-41.043 72.663-15.522 39.141-21.761 81.424h-93Zm366.13 446.13q-60.674-5.521-115.967-28.499-55.294-22.979-102.25-61.653l63.891-65.891q34.522 25.283 73.283 42.043 38.761 16.761 81.043 23v91ZM285.913-730.086l-65.891-66.131q47.956-38.673 103.63-61.652 55.674-22.978 116.587-28.5v91q-42.522 5.761-81.663 22.642-39.141 16.88-72.663 42.641Zm193.848 378.218q-53.348 0-90.62-37.392-37.272-37.391-37.272-90.739 0-53.348 37.272-90.739 37.272-37.392 90.62-37.392 53.348 0 90.739 37.392 37.391 37.391 37.391 90.739 0 53.348-37.391 90.739-37.391 37.392-90.739 37.392Zm38.478 278v-91.001q43.283-5.76 82.304-22.141 39.022-16.38 73.544-43.141l65.891 66.13q-47.956 39.435-104.011 62.033-56.054 22.598-117.728 28.12Zm157.848-656.696q-34.761-25.283-74.163-41.924-39.402-16.641-81.685-22.881v-91q60.674 5.522 116.728 28.5 56.055 22.979 103.011 61.652l-63.891 65.653Zm119.891 508.543-63.891-64.13q25.522-33.522 41.043-72.783 15.522-39.261 21.761-81.543h93q-7.76 60.674-30 116.467-22.239 55.794-61.913 101.989Zm-1.087-298.456q-6.239-42.283-21.761-81.424-15.521-39.141-41.043-72.663l63.652-63.653q39.674 45.957 63.033 101.511 23.359 55.555 29.119 116.229h-93Z"/></svg>