<svg xmlns="http://www.w3.org/2000/svg" height="24" viewBox="0 -960 960 960" width="24"><path d="M693-610q-42 0-80.5 14T540-556q-14 11-30.5 10.5T481-558q-12-12-11.5-28t13.5-27q45-36 99-56.5T694-690q58 0 111.5 20.5T904-613q13 11 13 27t-12 27.5Q893-547 877-546t-30-10q-34-26-73-40t-81-14Zm1 120q-18 0-35.5 5T625-470q-14 9-30.5 8.5T567-473q-12-12-12-28.5t14-26.5q27-20 58.5-31t65.539-11q34.04 0 65.5 11Q790-548 818-528q14 10 14.5 26.364Q833-485.273 821-473q-11 11-28 11.5t-31-8.5q-16-10-33-15t-35-5Zm.07 144Q672-346 657-360.93t-15-37Q642-420 656.93-435t37-15Q716-450 731-435.07t15 37Q746-376 731.07-361t-37 15ZM481-35q-37.95 0-64.975-26.731Q389-88.463 389-126h183q0 38-26.731 64.5Q518.537-35 481-35ZM194-292v-246q0-96 55.5-173T397-811v-20q0-34.583 24.208-58.792Q445.417-914 480-914t58.792 24.208Q563-865.583 563-831v20q31.984 7.6 60.492 22.8Q652-773 676-750q-45 5-87.5 19T506-696q-6-1-12.452-1.5-6.451-.5-13.548-.5-66 0-113 47t-47 113v246h451q26 0 44.5 18.5T834-229q0 26-18.5 44.5T771-166H189q-26 0-44.5-18.5T126-229q0-26 18.5-44.5T189-292h5Zm307-203Z"/></svg>