<svg xmlns="http://www.w3.org/2000/svg" height="20" viewBox="0 -960 960 960" width="20"><path d="M200-160q-6.8 0-11.4-4.547-4.6-4.547-4.6-11.269t4.6-11.453Q193.2-192 200-192h560q6.8 0 11.4 4.547 4.6 4.548 4.6 11.27 0 6.722-4.6 11.452Q766.8-160 760-160H200Zm0-202.923q-6.8 0-11.4-4.547-4.6-4.547-4.6-11.269 0-6.723 4.6-11.453 4.6-4.731 11.4-4.731h560q6.8 0 11.4 4.547 4.6 4.547 4.6 11.269t-4.6 11.453q-4.6 4.731-11.4 4.731H200Zm0-202.154q-6.8 0-11.4-4.547-4.6-4.547-4.6-11.269t4.6-11.453q4.6-4.731 11.4-4.731h560q6.8 0 11.4 4.547 4.6 4.547 4.6 11.27 0 6.722-4.6 11.452-4.6 4.731-11.4 4.731H200ZM200-768q-6.8 0-11.4-4.547-4.6-4.548-4.6-11.27 0-6.722 4.6-11.452Q193.2-800 200-800h560q6.8 0 11.4 4.547 4.6 4.547 4.6 11.269t-4.6 11.453Q766.8-768 760-768H200Z"/></svg>