<svg xmlns="http://www.w3.org/2000/svg" height="24" viewBox="0 -960 960 960" width="24"><path d="M612.461-641.615q0-56.077-37.73-90.154-37.731-34.077-99.346-34.077-39.77 0-69.423 15.577-29.654 15.577-51.269 48.038-6.77 9.154-17.347 11.5-10.577 2.347-19.038-4.115-7.077-5.308-8.577-13.923-1.5-8.616 3.346-16.385 28.923-44.154 69.192-65.654 40.269-21.5 93.116-21.5 81.615 0 133.269 47.308 51.654 47.308 51.654 122.462 0 41.923-18.231 78.307-18.231 36.385-56.923 70.77-47 41.153-64.615 69.115-17.616 27.961-18.539 62.192-.923 10.154-7.808 16.923-6.884 6.77-16.807 6.77-9.924 0-16.808-7.039-6.885-7.038-6.885-16.962 0-41.307 19.692-75.346 19.693-34.038 65.847-74.654 41-35.769 57.115-65.269 16.115-29.5 16.115-63.884ZM475.385-120q-16.077 0-28.039-11.961-11.962-11.962-11.962-28.039t11.962-28.039Q459.308-200 475.385-200t28.038 11.961q11.962 11.962 11.962 28.039t-11.962 28.039Q491.462-120 475.385-120Z"/></svg>