<svg xmlns="http://www.w3.org/2000/svg" height="20" viewBox="0 -960 960 960" width="20"><path d="M566.956-667.131q0-32.348-23.326-54.021-23.326-21.674-58.543-21.674-22.608 0-41.847 8.956-19.239 8.957-34.109 26-21.348 24.087-50.196 29.37-28.848 5.282-51.24-9.674-23.391-15.957-26.544-41.523-3.152-25.565 16.501-50.653 32.391-44 81.435-67.652 49.043-23.652 106-23.652 95.783 0 155.457 56.587 59.674 56.588 59.674 145.501 0 45.392-23.022 88.653t-74.413 94.479q-18.999 17.695-29.152 33.717-10.152 16.021-16.978 34.499-10.783 26.392-29.392 40.892-18.609 14.5-40.739 14.5-27.087 0-45.761-17.609-18.674-17.609-18.674-41.566 0-41.522 20.326-79.109 20.326-37.587 59.457-66.196 36.217-28.39 50.651-49.825 14.435-21.435 14.435-50Zm-81.869 544.61q-37.348 0-63.153-25.804-25.804-25.805-25.804-63.153t25.804-63.435q25.805-26.088 63.153-26.088t63.436 26.088q26.087 26.087 26.087 63.435t-26.087 63.153q-26.088 25.804-63.436 25.804Z"/></svg>