<svg xmlns="http://www.w3.org/2000/svg" height="20" viewBox="0 -960 960 960" width="20"><path d="M167.259-348.653V-606.85q0-75.237 52-127.52 52.001-52.283 127.175-52.283 75.175 0 127.175 52.283t52 127.457v255.522q0 35.78 25.878 60.738 25.879 24.957 61.761 24.957 35.883 0 61.514-24.957 25.63-24.958 25.63-60.738v-259.956l-19.02 19.021q-13.805 13.805-32.545 14.087-18.739.283-33.044-13.543-13.913-13.827-13.348-32.848.566-19.022 14.225-32.715l95.02-95.304q7.112-7.128 16.258-10.805 9.145-3.677 18.629-3.677 9.483 0 18.628 3.677 9.146 3.677 16.259 10.805l95.584 95.869q13.66 13.693 13.942 32.215.283 18.522-13.63 32.348-14.305 13.826-33.044 13.261-18.739-.565-32.544-14.115l-19.021-18.276v259.893q0 75.237-52.283 126.955-52.283 51.717-127.457 51.717-75.175 0-127.458-51.717-52.283-51.718-52.283-126.892v-255.522q0-35.78-25.595-61.586-25.596-25.805-61.479-25.805-35.882 0-61.23 25.805-25.348 25.806-25.348 61.586v258.26l19.02-19.021q13.805-13.805 32.545-13.805 18.739 0 33.044 13.827 13.913 13.826 13.348 32.848-.566 19.022-14.225 32.714l-95.02 95.304q-7.112 7.129-16.258 10.806-9.145 3.676-18.629 3.676-9.477 0-18.618-3.677-9.141-3.677-16.25-10.807l-95.513-95.884q-13.75-13.694-13.532-32.707.217-19.012 14.13-32.839 14.305-13.826 33.044-13.543 18.739.282 32.289 14.087l18.276 19.021Z"/></svg>