<svg xmlns="http://www.w3.org/2000/svg" height="20" viewBox="0 -960 960 960" width="20"><path d="M116.001-672v-171.999H288V-792H168v120h-51.999Zm0 555.999V-288H168v120h120v51.999H116.001Zm555.999 0V-168h120v-120h51.999v171.999H672ZM792-672v-120H672v-51.999h171.999V-672H792ZM527.752-558.154q-32.444 0-55.021-22.825-22.577-22.824-22.577-55.269 0-32.444 22.825-55.021 22.824-22.577 55.269-22.577 32.444 0 55.021 22.825 22.577 22.824 22.577 55.269 0 32.444-22.825 55.021-22.824 22.577-55.269 22.577ZM366.309-252.309l37.769-192.615-102.079 44.385v102.538h-51.998v-137.845l158.769-66.23q11.384-4.693 25.269-10.308 13.884-5.615 28.961-5.615 21.623 0 40.158 9.153 18.534 9.154 30.38 27.231l34 55q22.615 37.231 57.615 55.385 35 18.154 84.846 20.461v51.999q-51.883-1.923-100.864-29.346Q560.154-355.54 524-411.31l-30.693 159.001H366.309Z"/></svg>