<svg xmlns="http://www.w3.org/2000/svg" height="20" viewBox="0 -960 960 960" width="20"><path d="M62-672v-226h226v118H180v108H62Zm0 610v-226h118v108h108v118H62Zm610 0v-118h108v-108h118v226H672Zm108-610v-108H672v-118h226v226H780ZM524.752-567Q483-567 454-596.248q-29-29.248-29-71Q425-709 454.248-737.5q29.248-28.5 71-28.5Q567-766 595.5-737.252q28.5 28.748 28.5 70.5Q624-625 595.252-596q-28.748 29-70.5 29ZM334-243l32-162-53 23v101H210v-170l177-70q19-7 36-14t35-7q29.316 0 52.158 13.5Q533-515 549-492l36 55q22 34 47.5 48.5T713-374v103q-59.884 0-101.442-21.5Q570-314 533-352l-20 109H334Z"/></svg>