<svg xmlns="http://www.w3.org/2000/svg" height="20" viewBox="0 -960 960 960" width="20"><path d="M570-384v24q0 10.4 6.8 17.2 6.8 6.8 17.2 6.8 10.4 0 17.2-6.8 6.8-6.8 6.8-17.2v-24h24q10.2 0 17.1-6.9 6.9-6.9 6.9-17.1v-144q0-10.2-6.9-17.1-6.9-6.9-17.1-6.9h-96q-10.2 0-17.1 6.9-6.9 6.9-6.9 17.1v144q0 10.2 6.9 17.1 6.9 6.9 17.1 6.9h24Zm-228-72h48v48q0 10.4 6.8 17.2 6.8 6.8 17.2 6.8 10.4 0 17.2-6.785 6.8-6.785 6.8-17.161v-143.677Q438-562 431.2-569q-6.8-7-17.2-7-10.4 0-17.2 6.8-6.8 6.8-6.8 17.2v48h-48v-48q0-10.4-6.8-17.2-6.8-6.8-17.2-6.8-10.4 0-17.2 6.785-6.8 6.785-6.8 17.161v143.677Q294-398 300.8-391q6.8 7 17.2 7 10.4 0 17.2-6.8 6.8-6.8 6.8-17.2v-48Zm228 24v-96h48v96h-48ZM180-158q-49.7 0-83.85-34.162Q62-226.324 62-276.04v-408.243Q62-734 96.15-768T180-802h600q49.7 0 83.85 34.162Q898-733.676 898-683.96v408.243Q898-226 863.85-192T780-158H180Z"/></svg>