<svg xmlns="http://www.w3.org/2000/svg" height="24" viewBox="0 -960 960 960" width="24"><path d="M424.615-173.846h110.77q6.461 0 10.923-4.462 4.461-4.461 4.461-10.923 0-6.461-4.461-10.923-4.462-4.461-10.923-4.461h-110.77q-6.461 0-10.923 4.461-4.461 4.462-4.461 10.923 0 6.462 4.461 10.923 4.462 4.462 10.923 4.462ZM304.615-80Q277-80 258.5-98.5 240-117 240-144.615v-670.77Q240-843 258.5-861.5 277-880 304.615-880h350.77Q683-880 701.5-861.5 720-843 720-815.385v670.77Q720-117 701.5-98.5 683-80 655.385-80h-350.77ZM280-298.462h400V-740H280v441.538Z"/></svg>