<svg xmlns="http://www.w3.org/2000/svg" height="20" viewBox="0 -960 960 960" width="20"><path d="M752.999-164.001q-101.538 0-206.614-48.885-105.077-48.884-194.846-138.653-89.384-89.769-138.461-195.423-49.077-105.653-49.077-207.037v-43h191.768l36.461 151.153-113.923 110.692q25.693 43.231 53.347 80.346 27.653 37.116 57.038 66.885 29.539 30.308 65.424 57.154Q490-303.922 536.77-276.23L651-389.384l144.999 30.615v194.768h-43Zm-226.538-362.46V-698.46h51.999v82.847l174.231-174.231 37.153 36.153L615.613-578.46h82.847v51.999H526.461Z"/></svg>