<svg xmlns="http://www.w3.org/2000/svg" height="20" viewBox="0 -960 960 960" width="20"><path d="M480.211-492q-9.211 0-16.711-7.289-7.5-7.29-7.5-16.5 0-9.211 7.289-16.711 7.29-7.5 16.5-7.5 9.211 0 16.711 7.289 7.5 7.29 7.5 16.5 0 9.211-7.289 16.711-7.29 7.5-16.5 7.5Zm0-156q-9.211 0-16.711-7.289-7.5-7.29-7.5-16.5 0-9.211 7.289-16.711 7.29-7.5 16.5-7.5 9.211 0 16.711 7.289 7.5 7.29 7.5 16.5 0 9.211-7.289 16.711-7.29 7.5-16.5 7.5Zm0-156q-9.211 0-16.711-7.289-7.5-7.29-7.5-16.5 0-9.211 7.289-16.711 7.29-7.5 16.5-7.5 9.211 0 16.711 7.289 7.5 7.29 7.5 16.5 0 9.211-7.289 16.711-7.29 7.5-16.5 7.5Zm108 384q-9.211 0-16.711-7.289-7.5-7.29-7.5-16.5 0-9.211 7.289-16.711 7.29-7.5 16.5-7.5 9.211 0 16.711 7.289 7.5 7.29 7.5 16.5 0 9.211-7.289 16.711-7.29 7.5-16.5 7.5Zm120-108q-9.211 0-16.711-7.289-7.5-7.29-7.5-16.5 0-9.211 7.289-16.711 7.29-7.5 16.5-7.5 9.211 0 16.711 7.289 7.5 7.29 7.5 16.5 0 9.211-7.289 16.711-7.29 7.5-16.5 7.5Zm120-108q-9.211 0-16.711-7.289-7.5-7.29-7.5-16.5 0-9.211 7.289-16.711 7.29-7.5 16.5-7.5 9.211 0 16.711 7.289 7.5 7.29 7.5 16.5 0 9.211-7.289 16.711-7.29 7.5-16.5 7.5Zm-456 216q-9.211 0-16.711-7.289-7.5-7.29-7.5-16.5 0-9.211 7.289-16.711 7.29-7.5 16.5-7.5 9.211 0 16.711 7.289 7.5 7.29 7.5 16.5 0 9.211-7.289 16.711-7.29 7.5-16.5 7.5Zm-120-108q-9.211 0-16.711-7.289-7.5-7.29-7.5-16.5 0-9.211 7.289-16.711 7.29-7.5 16.5-7.5 9.211 0 16.711 7.289 7.5 7.29 7.5 16.5 0 9.211-7.289 16.711-7.29 7.5-16.5 7.5Zm-120-108q-9.211 0-16.711-7.289-7.5-7.29-7.5-16.5 0-9.211 7.289-16.711 7.29-7.5 16.5-7.5 9.211 0 16.711 7.289 7.5 7.29 7.5 16.5 0 9.211-7.289 16.711-7.29 7.5-16.5 7.5ZM470-266H324q-4.25 0-7.125-2.825-2.875-2.824-2.875-7 0-4.175 2.875-7.175t7.125-3h312q4.25 0 7.125 2.825 2.875 2.824 2.875 7 0 4.175-2.875 7.175T636-266H490v133.737q0 4.213-2.825 7.238-2.824 3.025-7 3.025-4.175 0-7.175-2.875T470-132v-134Z"/></svg>