<svg xmlns="http://www.w3.org/2000/svg" height="20" viewBox="0 -960 960 960" width="20"><path d="M248-196q-22.7 0-37.35-14.65Q196-225.3 196-248v-464q0-22.7 14.65-37.35Q225.3-764 248-764h464q22.7 0 37.35 14.65Q764-734.7 764-712v202q0 4.3-2.789 7.15-2.79 2.85-7 2.85-4.211 0-7.211-2.85t-3-7.15v-202q0-12-10-22t-22-10H248q-12 0-22 10t-10 22v464q0 12 10 22t22 10h202q4.3 0 7.15 2.789 2.85 2.79 2.85 7 0 4.211-2.85 7.211t-7.15 3H248Zm482-20L383-562q-4-4-3-8t4-7q4-4 7.5-4t7.5 4l345 347v-144q0-4.3 2.789-7.15 2.79-2.85 7-2.85 4.211 0 7.211 2.85t3 7.15v152q0 11.3-7.35 18.65Q749.3-196 738-196H586q-4.3 0-7.15-2.789-2.85-2.79-2.85-7 0-4.211 2.85-7.211t7.15-3h144Z"/></svg>