<svg xmlns="http://www.w3.org/2000/svg" height="24" viewBox="0 -960 960 960" width="24"><path d="M192-160h-32v-176.539l150-30.23 104.462 108.307q51.538-28.384 91.807-57.577 40.269-29.192 72.346-62.807 31.77-31.539 61.077-70.769 29.308-39.231 56.693-86.693L588.538-636.692 622.461-800H800v32q0 106.769-50.154 216.077-50.153 109.308-140.923 200.846-91.538 91.539-200.192 141.308Q300.077-160 192-160Zm523.154-413.846q21.154-47.539 32.308-93.962 11.153-46.423 12.307-92.192H654.615l-23.153 109.385 83.692 76.769Zm-338 333.384-81.616-83.153-95.538 19v104.153q46.923-.692 93.577-11.076 46.654-10.385 83.577-28.924Zm338-333.384Zm-338 333.384Z"/></svg>