<svg xmlns="http://www.w3.org/2000/svg" height="20" viewBox="0 -960 960 960" width="20"><path d="M480-43.997q-94.376 0-160.428-66.08-66.052-66.079-66.052-160.494v-419.233q0-94.415 66.118-160.307 66.118-65.892 160.588-65.892t160.362 66.052q65.892 66.052 65.892 160.428V-456H582.001q-40.394 0-71.197 21.348Q480-413.304 480-375.521q-33.957 0-57.218 23.848-23.261 23.849-23.261 57.338 0 32.8 23.694 56.311 23.694 23.512 56.785 24.179v169.848Zm82.999 0v-41.479q0-52.087 49.063-75.761Q661.125-184.911 720-184.911t107.938 23.674q49.063 23.674 49.063 75.761v41.479H562.999Zm156.789-165.48q-35.44 0-60.115-24.886-24.674-24.887-24.674-60.327t24.887-60.114q24.886-24.674 60.326-24.674t60.115 24.886q24.674 24.887 24.674 60.327t-24.887 60.114q-24.886 24.674-60.326 24.674Zm-239.577-58.044q-11.608 0-19.67-7.69-8.062-7.689-8.062-19.056 0-11.607 7.852-19.669 7.851-8.063 19.458-8.063 11.608 0 19.67 7.781 8.062 7.78 8.062 19.282 0 11.502-7.852 19.458-7.851 7.957-19.458 7.957Zm.001-316.958q33.745 0 57.006-23.798 23.261-23.799 23.261-57.218 0-33.419-23.681-56.963-23.681-23.543-56.935-23.543-33.254 0-56.798 23.703-23.544 23.703-23.544 56.988 0 33.518 23.474 57.175 23.473 23.656 57.217 23.656Z"/></svg>