<svg xmlns="http://www.w3.org/2000/svg" height="20" viewBox="0 -960 960 960" width="20"><path d="M480-4Q374.32-4 300.66-77.687 227-151.375 227-257.094v-446.187Q227-809 300.726-882.5t179.5-73.5Q586-956 659.5-882.34T733-703v247H602q-47.35 0-84.675 22Q480-412 480-369q-37 0-62 25.892t-25 62.251q0 35.831 25.65 61.522 25.65 25.691 61.35 25.489V-4Zm73 0v-48q0-56 52.188-82.5Q657.375-161 720-161t114.812 26.5Q887-108 887-52v48H553Zm166.788-182Q680-186 652.5-213.712q-27.5-27.713-27.5-67.5Q625-321 652.712-348.5q27.713-27.5 67.5-27.5Q760-376 787.5-348.288q27.5 27.713 27.5 67.5Q815-241 787.288-213.5q-27.713 27.5-67.5 27.5Zm-239.577-75q-8.836 0-15.023-5.689-6.188-5.69-6.188-14.1 0-8.836 5.977-15.023Q470.954-302 479.789-302q8.836 0 15.023 5.851 6.188 5.851 6.188 14.5Q501-273 495.023-267t-14.812 6Zm.001-330Q517-591 542-616.788q25-25.787 25-62Q567-715 541.42-740.5q-25.579-25.5-61.5-25.5-35.92 0-61.42 25.619-25.5 25.618-25.5 61.593 0 36.388 25.212 62.088 25.213 25.7 62 25.7Z"/></svg>