<svg xmlns="http://www.w3.org/2000/svg" height="24" viewBox="0 -960 960 960" width="24"><path d="M720-292q-23 0-38.5-15.5T666-346q0-23 15.5-38.5T720-400q23 0 38.5 15.5T774-346q0 23-15.5 38.5T720-292ZM586-106v-23q0-31 37.5-51t96.5-20q59 0 96.5 20t37.5 51v23H586ZM480-566q30.525 0 52.263-21.737Q554-609.475 554-640t-21.737-52.263Q510.525-714 480-714t-52.263 21.737Q406-670.525 406-640t21.737 52.263Q449.475-566 480-566Zm0 86Zm-74 160q0 30.525 21.737 52.263Q449.475-246 480-246t52.263-21.737Q554-289.475 554-320t-21.737-52.263Q510.525-394 480-394t-52.263 21.737Q406-350.525 406-320Zm74 46q-19 0-32.5-13.5T434-320q0-19 13.5-32.5T480-366q19 0 32.5 13.5T526-320q0 19-13.5 32.5T480-274ZM306-680q0-73 50.5-123.5T480-854q73 0 123.5 50.5T654-680v186q0 5.95-4.035 9.975-4.035 4.025-10 4.025T630-484.025q-4-4.025-4-9.975v-186q0-63-43.5-104.5T480-826q-59 0-102.5 41.5T334-680v400q0 50.944 32.5 90.972Q399-149 447-138q5 2 8.5 5.732t3.5 8.482q0 6.786-5.5 11.286T441-110q-59-14-97-60.367Q306-216.733 306-280v-400Z"/></svg>