<svg xmlns="http://www.w3.org/2000/svg" height="20" viewBox="0 -960 960 960" width="20"><path d="M146.231-116q-11.049 0-17.832-7.692-6.784-7.693-1.861-18.154 17.932-66.872 24.312-134.513Q157.231-344 159-414.846q-44.308-10.923-67.654-49.078Q68-502.078 68-548v-7.302q0-12.975 6.885-22.875 6.884-9.9 19.961-12.823 107.692-30.769 198.462-93 90.769-62.231 171.076-139.692 4.088-4.154 8.314-5.847 4.225-1.692 8.302-1.692t8.539 1.692q4.461 1.693 7.077 5.847Q576.923-746.231 667.692-684q90.77 62.231 198.462 93 13.077 2.923 19.961 12.893 6.885 9.97 6.885 23.03L892-548q0 45.922-23.846 84.076-23.846 38.155-68.154 49.078 1.769 70.846 9.308 138.654 7.538 67.807 25.154 134.346 4.923 9.461-1.27 17.654Q827-116 815.769-116H146.231Zm20.616-464h626.306Q705-618.077 627.38-672.495 549.76-726.913 480-793.692q-69.923 66.231-147.461 120.923Q255-618.077 166.847-580Zm411.977 135q37.714 0 60.445-31.067Q662-507.135 662-548H496q0 40.615 22.554 71.808Q541.109-445 578.824-445Zm-198 0q37.714 0 60.445-31.067Q464-507.135 464-548H298q0 40.615 22.554 71.808Q343.109-445 380.824-445Zm-198 0q37.714 0 60.445-31.067Q266-507.135 266-548H100q0 40.615 22.554 71.808Q145.109-445 182.824-445Zm-18.978 297h156.846q10.13-67.692 15.287-134.769 5.157-67.077 7.252-135.539-19.693-7.307-35.577-23.384Q291.769-457.769 282-477q-13.431 26.257-37.457 43.308-24.026 17.051-53.543 20-2 66.231-6.269 132.846-4.269 66.615-20.885 132.846Zm189.077 0h254.154q-10.308-67-15.202-132.941-4.894-65.94-6.875-133.29-34.593 1.933-63.835-15.418Q491.923-447 480-480.846 467.077-447 438.154-429.649 409.231-412.298 375-414.231q-1.981 67.35-6.875 133.29Q363.231-215 352.923-148Zm286.385 0h156.846q-16.616-66.231-20.885-132.846Q771-347.461 769-413.692q-29.231-2.693-54.129-20.059-24.899-17.366-36.871-44.787-10 19-25.385 35.077-15.384 16.076-35.846 24.153 2.095 68.714 7.345 136.039 5.25 67.325 15.194 135.269Zm137.516-297q37.714 0 60.445-31.067Q860-507.135 860-548H694q0 40.615 22.554 71.808Q739.109-445 776.824-445Z"/></svg>