<svg xmlns="http://www.w3.org/2000/svg" height="20" viewBox="0 -960 960 960" width="20"><path d="M346-499.377v-136.735q0-3.838-2.825-6.863-2.824-3.025-7-3.025-4.175 0-7.175 2.782-3 2.781-3 6.894v135.81q0 4.701 2 9.107 2 4.407 6.339 8.746L430-387q4 4 7 3t7-5q4-4 4-7.167 0-3.166-4-6.833l-98-96.377ZM888-480.5q0-93.5-56.5-164.5T685-742q-5.833.927-10.417-1.537-4.583-2.463-7.85-6.818Q663-755 665-760t8-7q103 22 169 102t66 185q0 105-65.5 185T675-193q-6-1-8.5-6.5t.167-10.145q2.333-4.355 7.125-6.818Q678.583-218.927 685-218q90-27 146.5-98T888-480.5ZM336.057-196q-59.057 0-110.69-22.1-51.634-22.1-90.4-60.867Q96.2-317.733 74.1-369.31 52-420.886 52-479.943 52-539 74.1-590.633q22.1-51.634 60.867-90.4Q173.733-719.8 225.31-741.9 276.886-764 335.943-764q59.057 0 110.69 22.1 51.634 22.1 90.4 60.867Q575.8-642.267 597.9-590.69 620-539.114 620-480.057q0 59.057-22.1 110.69-22.1 51.634-60.867 90.4Q498.267-240.2 446.69-218.1 395.114-196 336.057-196Zm-.279-20Q446-216 523-292.778q77-76.779 77-187Q600-590 523.222-667q-76.779-77-187-77Q226-744 149-667.222q-77 76.779-77 187Q72-370 148.778-293q76.779 77 187 77ZM336-480Z"/></svg>