<svg xmlns="http://www.w3.org/2000/svg" height="20" viewBox="0 -960 960 960" width="20"><path d="M380-513v-84.112q0-18.288-12.589-31.088-12.59-12.8-31.2-12.8-18.611 0-31.411 12.557-12.8 12.556-12.8 31.119v96.81q0 12.136 4.5 22.396 4.5 10.261 12.839 18.457L383-386q14 14 31 13t31-15q14-14 14-31t-14-31l-65-63Zm462 32.5q0-62.5-36-110.5t-90-69q-18-15-24.5-37.5t.967-42.823Q701-762 720.5-772.5t38.5.5q89 31 145 111t56 181q0 101-55.5 181T760-188q-19 11-38.5.5t-28.033-32.177Q686-240 692-262.5t24-37.5q54-22 90-70t36-110.5ZM336-144q-70 0-131.133-26.6-61.134-26.6-106.4-71.867Q53.2-287.733 26.6-348.867 0-410 0-480t26.6-131.133q26.6-61.134 71.867-106.4 45.266-45.267 106.4-71.867Q266-816 336-816t131.133 26.6q61.134 26.6 106.4 71.867 45.267 45.266 71.867 106.4Q672-550 672-480t-26.6 131.133q-26.6 61.134-71.867 106.4-45.266 45.267-106.4 71.867Q406-144 336-144Zm-.065-118Q427-262 490.5-325.435q63.5-63.434 63.5-154.5Q554-571 490.565-634.5q-63.434-63.5-154.5-63.5Q245-698 181.5-634.565q-63.5 63.434-63.5 154.5Q118-389 181.435-325.5q63.434 63.5 154.5 63.5ZM336-480Z"/></svg>