<svg xmlns="http://www.w3.org/2000/svg" height="24" viewBox="0 -960 960 960" width="24"><path d="M672-466v46q0 5.6 4.2 9.8 4.2 4.2 9.8 4.2 5.6 0 9.8-4.2 4.2-4.2 4.2-9.8v-46h46q5.6 0 9.8-4.2 4.2-4.2 4.2-9.8 0-5.6-4.2-9.8-4.2-4.2-9.8-4.2h-46v-46q0-5.6-4.2-9.8-4.2-4.2-9.8-4.2-5.6 0-9.8 4.2-4.2 4.2-4.2 9.8v46h-46q-5.6 0-9.8 4.2-4.2 4.2-4.2 9.8 0 5.6 4.2 9.8 4.2 4.2 9.8 4.2h46Zm-177-6 94 92q2 2 10 4 10 0 13.5-9t-3.5-16l-84-81 85-79q7-6 3-14.5t-13-8.5q-2 0-4.567 1.091-2.566 1.091-4.433 2.909l-96 90v-80q0-6.067-3.953-10.033-3.954-3.967-10-3.967Q475-584 471-580.033q-4 3.966-4 10.033v180q0 6.067 3.953 10.033 3.954 3.967 10 3.967Q487-376 491-379.967q4-3.966 4-10.033v-82Zm-139 36v46q0 6.067 3.953 10.033 3.954 3.967 10 3.967Q376-376 380-379.967q4-3.966 4-10.033v-46h38q6.067 0 10.033-3.953 3.967-3.954 3.967-10Q436-456 432.033-460q-3.966-4-10.033-4h-38v-106q0-6.067-3.953-10.033-3.954-3.967-10-3.967Q364-584 360-580.033q-4 3.966-4 10.033v106h-80v-106q0-6.067-3.953-10.033-3.954-3.967-10-3.967Q256-584 252-580.033q-4 3.966-4 10.033v120q0 6.067 3.967 10.033Q255.933-436 262-436h94ZM232-172q-26 0-43-17t-17-43v-496q0-26 17-43t43-17h496q26 0 43 17t17 43v496q0 26-17 43t-43 17H232Z"/></svg>