<svg xmlns="http://www.w3.org/2000/svg" height="20" viewBox="0 -960 960 960" width="20"><path d="M743.752-703.692q-29.675 0-50.56-21.133-20.884-21.132-20.884-50.807 0-29.676 21.132-50.56 21.133-20.885 50.808-20.885t50.56 21.132q20.884 21.133 20.884 50.808t-21.132 50.56q-21.133 20.885-50.808 20.885ZM685.231-116v-384.154h-38l54.154-144.769h86L912-312.615H785.846V-116H685.231ZM527.909-507.077q-21.832 0-37.024-15.283-15.193-15.283-15.193-37.115 0-21.833 15.283-37.025t37.116-15.192q21.832 0 37.024 15.282 15.193 15.283 15.193 37.116 0 21.832-15.283 37.025-15.283 15.192-37.116 15.192ZM239.752-703.692q-29.675 0-50.56-21.133-20.884-21.132-20.884-50.807 0-29.676 21.132-50.56 21.132-20.885 50.808-20.885 29.675 0 50.56 21.132 20.884 21.133 20.884 50.808t-21.132 50.56q-21.132 20.885-50.808 20.885ZM177.231-116v-247.077H99.077v-268h281.846v268h-78.154V-116H177.231Zm301.538 0v-124h-36v-216h170.462v216h-36v124h-98.462Z"/></svg>