<svg xmlns="http://www.w3.org/2000/svg" height="24" viewBox="0 -960 960 960" width="24"><path d="M720-727.692q-27.923 0-47.808-19.885-19.884-19.885-19.884-47.808t19.884-47.807q19.885-19.885 47.808-19.885t47.808 19.885q19.884 19.884 19.884 47.807 0 27.923-19.884 47.808-19.885 19.885-47.808 19.885ZM669.231-100v-418.154h-63l59.154-158.769h110L900-344.615H793.846V-100H669.231ZM499.91-503.077q-21.833 0-37.025-15.283-15.193-15.283-15.193-37.115 0-21.833 15.283-37.025t37.115-15.192q21.833 0 37.025 15.282 15.193 15.283 15.193 37.116 0 21.832-15.283 37.025-15.283 15.192-37.115 15.192ZM220-727.692q-27.923 0-47.808-19.885-19.884-19.885-19.884-47.808t19.884-47.807q19.885-19.885 47.808-19.885t47.808 19.885q19.884 19.884 19.884 47.807 0 27.923-19.884 47.808-19.885 19.885-47.808 19.885ZM149.231-100v-263.077H83.077v-300h273.846v300h-66.154V-100H149.231Zm301.538 0v-140h-40v-220h178.462v220h-40v140h-98.462Z"/></svg>