<svg xmlns="http://www.w3.org/2000/svg" height="20" viewBox="0 -960 960 960" width="20"><path d="M774.351-700.522q-38.219 0-65.545-27.216-27.327-27.217-27.327-65.435 0-38.219 27.574-65.263 27.574-27.043 65.793-27.043 38.219 0 65.187 27.216 26.969 27.216 26.969 65.435t-27.216 65.262q-27.217 27.044-65.435 27.044Zm-69.872 610.74v-402.913h-38.956l60.435-162.088h97.131l136.392 375.262H825.915v189.739H704.479ZM528.1-499.478q-28.491 0-48.535-20.326-20.044-20.326-20.044-48.818 0-28.491 19.944-48.435 19.944-19.944 48.435-19.944 28.491 0 48.535 19.944 20.044 19.944 20.044 48.435 0 28.492-19.944 48.818-19.944 20.326-48.435 20.326ZM213.826-700.522q-38.219 0-65.262-27.216-27.044-27.217-27.044-65.435 0-38.219 27.216-65.263 27.217-27.043 65.435-27.043 38.219 0 65.263 27.216 27.043 27.216 27.043 65.435t-27.216 65.262q-27.216 27.044-65.435 27.044Zm-89.35 610.74v-261.739h-72v-301.001h323.045v301.001h-72v261.739H124.476Zm335.045 0v-145.696h-36V-456h208.958v220.522h-36v145.696H459.521Z"/></svg>