<svg xmlns="http://www.w3.org/2000/svg" height="24" viewBox="0 -960 960 960" width="24"><path d="M774.133-728Q735-728 706.5-755.867q-28.5-27.867-28.5-67Q678-862 706.5-890q28.5-28 67.633-28 39.133 0 67 27.867 27.867 27.867 27.867 67Q869-784 841.133-756q-27.867 28-67 28ZM695-69v-433h-57l75-190h122l149 387H860v236H695ZM500.176-492Q469-492 447-514.5q-22-22.5-22-53.676 0-31.177 21.824-53.001 21.823-21.823 53-21.823Q531-643 553-621.177q22 21.824 22 53.001Q575-537 553.177-514.5 531.353-492 500.176-492ZM174.133-728Q135-728 107-755.867q-28-27.867-28-67Q79-862 106.867-890q27.868-28 67-28Q213-918 241-890.133q28 27.867 28 67Q269-784 241.133-756q-27.868 28-67 28ZM63-69v-276H3v-343h342v343h-60v276H63Zm362 0v-163h-40v-228h230v228h-40v163H425Z"/></svg>