<svg xmlns="http://www.w3.org/2000/svg" height="24" viewBox="0 -960 960 960" width="24"><path d="M479.859-250Q522-250 561.5-270.5 601-291 636-331l-59-53q-23 26-48 39.5T480-331q-24 0-49-13.5T383-384l-59 53q37 40 75.359 60.5 38.359 20.5 80.5 20.5Zm.058 204Q390-46 311-80t-138-93q-59-59-93-138.083-34-79.084-34-169Q46-570 80-649t93-138q59-59 138.083-93 79.084-34 169-34Q570-914 649-880t138 93q59 59 93 138.083 34 79.084 34 169Q914-390 880-311t-93 138q-59 59-138.083 93-79.084 34-169 34ZM340-470q45 0 76.761-32.573Q448.522-535.146 461-580l-77-19q-5 19-15.634 34-10.635 15-28.5 15Q322-550 311.5-565T296-599l-77 19q12.478 44.854 44.239 77.427Q295-470 340-470Zm280 0q45 0 76.761-32.573Q728.522-535.146 741-580l-77-19q-5 19-15.634 34-10.635 15-28.5 15Q602-550 591.5-565T576-599l-77 19q12.478 44.854 44.239 77.427Q575-470 620-470Z"/></svg>