<svg xmlns="http://www.w3.org/2000/svg" height="20" viewBox="0 -960 960 960" width="20"><path d="M340.9-496q31.1 0 53.6-20.5T428-567l-39-11q-7 17-18.5 29.5T341-536q-18 0-29.5-12.5T293-578l-39 11q11 30 33.4 50.5t53.5 20.5Zm139.382 216q33.772 0 64.745-14.5Q576-309 603-335l-28-27q-22.113 20.02-46.105 30.51Q504.903-321 479.952-321q-24.952 0-48.91-10.49Q407.083-341.98 385-362l-28 27q27 27 58.073 41t65.209 14ZM618.9-496q31.1 0 53.6-20.5T706-567l-39-11q-7 17-18.5 29.5T619-536q-18 0-29.5-12.5T571-578l-39 11q11 30 33.4 50.5t53.5 20.5ZM480.45-148q-68.45 0-129.008-25.891-60.559-25.892-106.075-71.348-45.515-45.457-71.441-105.893Q148-411.569 148-480.284q0-68.716 25.891-128.774 25.892-60.059 71.348-105.574 45.457-45.516 105.893-71.442Q411.569-812 480.284-812q68.716 0 128.774 25.891 60.059 25.892 105.574 71.348 45.516 45.457 71.442 105.659Q812-548.899 812-480.45q0 68.45-25.891 129.008-25.892 60.559-71.348 106.075-45.457 45.515-105.659 71.441Q548.899-148 480.45-148ZM480-480Zm0 312q130 0 221-91t91-221q0-130-91-221t-221-91q-130 0-221 91t-91 221q0 130 91 221t221 91Z"/></svg>