<svg xmlns="http://www.w3.org/2000/svg" height="20" viewBox="0 -960 960 960" width="20"><path d="M335.9-470q44.1 0 75.361-31.073Q442.522-532.146 455-576l-89-23q-4 14-10.634 25.5-6.635 11.5-19.5 11.5Q323-562 316.5-573.5T306-599l-89 23q12.478 43.854 43.639 74.927Q291.8-470 335.9-470Zm143.959 216q43.195 0 83.668-21.5Q604-297 640-337l-67-61q-22.113 25.02-46.105 38.01Q502.903-347 479.952-347q-22.952 0-46.91-12.99Q409.083-372.98 387-398l-67 61q37 40 76.65 61.5Q436.3-254 479.859-254ZM623.9-470q44.1 0 75.361-31.073Q730.522-532.146 743-576l-89-23q-4 14-10.634 25.5-6.635 11.5-19.5 11.5Q611-562 604.5-573.5T594-599l-89 23q12.478 43.854 43.639 74.927Q579.8-470 623.9-470ZM480.192-62Q394-62 318-94.5q-76-32.5-133.5-90t-90-133.542Q62-394.083 62-480.542 62-567 94.5-642.5t90-133q57.5-57.5 133.542-90 76.041-32.5 162.5-32.5Q567-898 642.5-865.5t133 90q57.5 57.5 90 133.308 32.5 75.807 32.5 162Q898-394 865.5-318q-32.5 76-90 133.5t-133.308 90q-75.807 32.5-162 32.5ZM480-480Zm0 300q124 0 212-88t88-212q0-124-88-212t-212-88q-124 0-212 88t-88 212q0 124 88 212t212 88Z"/></svg>