<svg xmlns="http://www.w3.org/2000/svg" height="24" viewBox="0 -960 960 960" width="24"><path d="M315.384-550.769 480-821.539l164.616 270.77H315.384Zm384.616 440q-62.692 0-105.962-43.269-43.269-43.27-43.269-105.962t43.269-105.962q43.27-43.269 105.962-43.269t105.962 43.269q43.269 43.27 43.269 105.962t-43.269 105.962Q762.692-110.769 700-110.769Zm-549.231-20v-258.462h258.462v258.462H150.769Zm549.209-20q45.868 0 77.56-31.671 31.693-31.671 31.693-77.538 0-45.868-31.671-77.56-31.671-31.693-77.538-31.693-45.868 0-77.56 31.671-31.693 31.671-31.693 77.538 0 45.868 31.671 77.56 31.671 31.693 77.538 31.693Zm-509.209-20h178.462v-178.462H190.769v178.462Zm194.308-420h189.846L480-742.923l-94.923 152.154Zm94.923 0ZM369.231-349.231ZM700-260Z"/></svg>