<svg xmlns="http://www.w3.org/2000/svg" height="20" viewBox="0 -960 960 960" width="20"><path d="M303.694-543.386 480-834.767l176.306 291.381H303.694Zm392.306 432q-63.846 0-108.23-44.384-44.384-44.384-44.384-108.23 0-63.846 44.384-108.23 44.384-44.384 108.23-44.384 63.846 0 108.23 44.384 44.384 44.384 44.384 108.23 0 63.846-44.384 108.23-44.384 44.384-108.23 44.384Zm-536.614-24v-257.228h257.228v257.228H159.386Zm536.378-27.998q42.159 0 71.505-29.11 29.347-29.11 29.347-71.27 0-42.159-29.11-71.505-29.11-29.347-71.27-29.347-42.159 0-71.505 29.11-29.347 29.11-29.347 71.27 0 42.159 29.11 71.505 29.11 29.347 71.27 29.347Zm-484.38-24h153.232v-153.232H211.384v153.232Zm184.154-408h168.924L480-733.462l-84.462 138.078Zm84.462 0ZM364.616-340.616ZM691-269Z"/></svg>