<svg xmlns="http://www.w3.org/2000/svg" height="20" viewBox="0 -960 960 960" width="20"><path d="M261.652-519.152 480-878.587l218.348 359.435H261.652Zm441.002 437.74q-73.306 0-124.697-51.315-51.392-51.314-51.392-124.619 0-73.306 51.363-124.697 51.364-51.392 124.74-51.392t124.647 51.363q51.272 51.364 51.272 124.74t-51.314 124.647q-51.314 51.272-124.619 51.272Zm-577.067-24.001v-304.022h304.261v304.022H125.587Zm576.883-59q38.791 0 65.954-26.938 27.163-26.937 27.163-65.728 0-38.79-26.938-66.073-26.937-27.283-65.728-27.283-38.79 0-66.073 27.058-27.283 27.057-27.283 65.847 0 38.791 27.058 65.954 27.057 27.163 65.847 27.163Zm-493.883-24h138.261v-138.022H208.587v138.022ZM409.5-602.152h141L480-718.782l-70.5 116.63Zm70.5 0ZM346.848-326.435Zm350.848 64.131Z"/></svg>