<svg xmlns="http://www.w3.org/2000/svg" height="20" viewBox="0 -960 960 960" width="20"><path d="M73.022-510.978 0-584q94-90 217-141.5T480-777q26 0 50.641 2.5 24.642 2.5 48.207 6.5l-48.826 96.935q-11.848-1.522-24.652-2.022-12.805-.5-25.37-.5-118.326 0-222.75 43.402-104.424 43.403-184.228 119.207Zm170 169L169.522-415q58.521-54.043 134.163-86.283Q379.326-533.522 465.37-536l-54.218 112.718q-48.174 9-90.946 29.945-42.771 20.946-77.184 51.359ZM454.087-154.13q-28.478-10.24-43.337-40.174-14.859-29.935-1.38-56.892l232-481.369q3.478-7.718 10.956-11.055 7.478-3.337 16.674-.858 8.957 3.478 12.696 10.956 3.739 7.479 1.5 15.435L550.63-200.283q-8.478 30.674-38.391 43.413-29.913 12.74-58.152 2.74Zm262.891-187.848q-11.043-10.044-21.728-17.728-10.685-7.685-23.25-15.729l25.435-105.369q25.522 13.521 49.163 30.021T791-414.522l-74.022 72.544Zm170-169q-34.043-32.044-72.967-58.707-38.924-26.663-82.011-46.184l23.435-103.414Q811.957-695 863.957-660.761q52 34.239 96.043 76.761l-73.022 73.022Z"/></svg>