<svg xmlns="http://www.w3.org/2000/svg" height="20" viewBox="0 -960 960 960" width="20"><path d="m68-516-46.46-46.46q89.769-85 206.999-134.384Q345.77-746.229 480-746.229q23.307 0 47.731 2.308 24.423 2.308 44.807 5.923l-28.845 60.767q-15.154-2-31.462-2.884Q495.923-681 480-681q-120 0-225.5 44T68-516Zm170 169-46.46-45.691q53.23-49.23 121.73-79.114 68.499-29.885 151.653-34.193l-31.076 67.921q-58.539 7.846-108.193 32.461Q276-381 238-347Zm222.616 179.23q-23.385-8.077-34.807-31.384-11.423-23.307-.731-45.461l213.537-462.46q2.231-5.077 7.692-7.577 5.462-2.5 11.923-.884 6.846 2.615 9.769 8.269 2.923 5.653.923 11.115l-134 491.306q-7.231 23.999-29.076 34.576-21.846 10.577-45.23 2.5ZM722-347q-13.923-12.923-28.231-23.846-14.308-10.924-31-21.078l16.307-63.92q24.846 12.461 47.884 28.577 23.039 16.115 42.5 34.576L722-347Zm170-169q-35-33-77.116-62.231-42.115-29.231-89.038-49.615l15.845-64.46q55.846 24.231 104.385 56.116 48.538 31.884 92.384 73.73L892-516Z"/></svg>