<svg xmlns="http://www.w3.org/2000/svg" height="20" viewBox="0 -960 960 960" width="20"><path d="m68-516-12-12q83-77 191-123t233-46q19 0 42.5 2t36.5 5l-3 14q-17-2-37-3.5t-39-1.5q-120 0-225.5 44T68-516Zm170 169-12-10q44-40 100.5-66.5T460-458l-4 15q-69 6-124.5 34T238-347Zm230 162q-16-5-22.5-20t.5-31l184-428q1-2 4-4.5t7-1.5q5 2 7 5.5t0 6.5L514-211q-6 16-18 23.5t-28 2.5Zm254-162q-17-16-35-30t-39-26l4-11q23 10 44.5 25.5T735-357l-13 10Zm170-169q-35-33-80.5-65T716-634l6-14q54 23 97 51.5t85 68.5l-12 12Z"/></svg>