<svg xmlns="http://www.w3.org/2000/svg" height="20" viewBox="0 -960 960 960" width="20"><path d="M192.615-232Q169-232 152.5-248.5 136-265 136-288.615v-382.77q0-24.315 16.5-40.465Q169-728 192.478-728h151.003q11.672 0 22.249 4.231 10.578 4.23 19.27 12.923L463.846-632h303.539q24.315 0 40.465 16.15Q824-599.7 824-575.385v286.77Q824-265 807.85-248.5 791.7-232 767.385-232h-574.77ZM596-416.233v56.116q0 6.85 4.608 11.484Q605.215-344 612.027-344t11.392-4.633Q628-353.267 628-360.117v-56.116h56q6.8 0 11.4-4.641 4.6-4.641 4.6-11.364 0-6.722-4.6-11.242Q690.8-448 684-448h-56v-55.789q0-6.711-4.547-11.461T612.184-520q-6.723 0-11.337 4.6t-4.614 11.4v56h-56.116q-6.85 0-11.484 4.608Q524-438.785 524-431.973q0 6.512 4.6 11.126t11.4 4.614h56Z"/></svg>