<svg xmlns="http://www.w3.org/2000/svg" height="24" viewBox="0 -960 960 960" width="24"><path d="M184.615-200Q157-200 138.5-218.5 120-237 120-264.615v-430.77Q120-723 138.5-741.5 157-760 184.478-760h172.36q13.323 0 25.396 5.231 12.074 5.23 20.766 13.923L463.846-680h311.539Q803-680 821.5-661.5 840-643 840-615.385v350.77Q840-237 821.5-218.5 803-200 775.385-200h-590.77ZM580-420v60q0 8.5 5.758 14.25 5.757 5.75 14.269 5.75t14.242-5.75Q620-351.5 620-360v-60h60q8.5 0 14.25-5.758 5.75-5.757 5.75-14.269t-5.75-14.242Q688.5-460 680-460h-60v-60q0-8.5-5.758-14.25-5.757-5.75-14.269-5.75t-14.242 5.75Q580-528.5 580-520v60h-60q-8.5 0-14.25 5.758-5.75 5.757-5.75 14.269t5.75 14.242Q511.5-420 520-420h60Z"/></svg>