<svg xmlns="http://www.w3.org/2000/svg" height="24" viewBox="0 -960 960 960" width="24"><path d="M184.615-200Q157-200 138.5-218.5 120-237 120-264.615v-430.77Q120-723 138.5-741.5 157-760 184.615-760H357q12.923 0 25.115 5.231 12.193 5.23 20.885 13.923L463.846-680h311.539Q803-680 821.5-661.5 840-643 840-615.385v350.77Q840-237 821.5-218.5 803-200 775.385-200h-590.77Zm0-40h590.77q10.769 0 17.692-6.923T800-264.615v-350.77q0-10.769-6.923-17.692T775.385-640H447.769l-73.077-73.077q-3.846-3.846-8.077-5.385-4.23-1.538-8.846-1.538H184.615q-10.769 0-17.692 6.923T160-695.385v430.77q0 10.769 6.923 17.692T184.615-240ZM160-240v-480 480Zm420-180v60q0 8.539 5.731 14.269Q591.461-340 600-340t14.269-5.731Q620-351.461 620-360v-60h60q8.539 0 14.269-5.731Q700-431.461 700-440t-5.731-14.269Q688.539-460 680-460h-60v-60q0-8.539-5.731-14.269Q608.539-540 600-540t-14.269 5.731Q580-528.539 580-520v60h-60q-8.539 0-14.269 5.731Q500-448.539 500-440t5.731 14.269Q511.461-420 520-420h60Z"/></svg>