<svg xmlns="http://www.w3.org/2000/svg" height="20" viewBox="0 -960 960 960" width="20"><path d="M200-244q-22 0-37-15t-15-37v-368q0-22.7 15-37.35Q178-716 199.821-716h140.611q10.869 0 20.718 4 9.85 4 17.85 12l80 80h301q22.7 0 37.35 14.65Q812-590.7 812-568v272q0 22-14.65 37T760-244H200Zm402-178.233v62.116q0 4.3 2.885 7.208 2.885 2.909 7.15 2.909 4.265 0 7.115-2.909 2.85-2.908 2.85-7.208v-62.116h62q4.25 0 7.125-2.919Q694-428.07 694-432.246q0-4.175-2.875-6.965Q688.25-442 684-442h-62v-61.789q0-4.161-2.825-7.186-2.824-3.025-7-3.025-4.175 0-7.058 2.875-2.884 2.875-2.884 7.125v62h-62.116q-4.3 0-7.209 2.885-2.908 2.885-2.908 7.15 0 3.965 2.875 6.848 2.875 2.884 7.125 2.884h62Z"/></svg>