<svg xmlns="http://www.w3.org/2000/svg" height="24" viewBox="0 -960 960 960" width="24"><path d="M166.783-140.782q-44.305 0-75.153-30.848-30.848-30.848-30.848-75.153v-466.434q0-44.305 30.848-75.153 30.848-30.848 75.153-30.848h180.999q21.225 0 40.461 7.978 19.235 7.978 34.192 22.935L480-730.74h313.217q44.305 0 75.153 30.849 30.848 30.848 30.848 75.153v377.955q0 44.305-30.848 75.153-30.848 30.848-75.153 30.848H166.783Zm0-106.001h626.434v-377.955H436.26l-88.478-88.479H166.783v466.434Zm0 0v-466.434V-246.783Zm391.521-144.173v42.261q0 18.922 12.8 31.722t31.722 12.8q18.922 0 31.722-12.8t12.8-31.722v-42.261h43.967q18.686 0 31.599-12.8t12.913-31.722q0-18.922-12.8-31.722T691.305-480h-43.957v-42.826q0-18.922-12.8-31.722t-31.722-12.8q-18.922 0-31.722 12.8t-12.8 31.722V-480h-43.966q-18.686 0-31.599 12.8t-12.913 31.722q0 18.922 12.8 31.722t31.722 12.8h43.956Z"/></svg>