<svg xmlns="http://www.w3.org/2000/svg" height="20" viewBox="0 -960 960 960" width="20"><path d="M496-496h295.538q-5.077-120.539-90.038-205.885-84.961-85.346-205.5-89.653V-496Zm-32 327.538v-623.076q-123.385 6.307-209.692 95.846Q168-606.154 168-480.5q0 125.654 86.308 215.692Q340.615-174.769 464-168.462Zm32 0Q615.539-174.539 700.615-260q85.077-85.461 90.923-204H496v295.538ZM480-480Zm.592 344q-71.214 0-133.909-26.839-62.696-26.84-109.824-73.922-47.127-47.082-73.993-109.716Q136-409.111 136-480.325q0-71.214 26.839-133.951 26.84-62.737 73.922-109.365 47.082-46.627 109.716-73.493Q409.111-824 480.325-824q71.214 0 133.817 27.163 62.604 27.163 109.1 73.714 46.496 46.551 73.627 109.134Q824-551.405 824-479.757q0 70.785-27.047 133.448-27.048 62.664-73.416 109.447-46.367 46.783-109.049 73.823Q551.806-136 480.592-136Z"/></svg>