<svg xmlns="http://www.w3.org/2000/svg" height="20" viewBox="0 -960 960 960" width="20"><path d="M264.281-380h335.123q12.211 0 20.404-8.031 8.192-8.03 8.192-20.236V-599.41q0-12.205-8.035-20.398Q611.931-628 599.719-628H264.596q-12.211 0-20.404 8.031-8.192 8.03-8.192 20.236v191.143q0 12.205 8.035 20.398Q252.069-380 264.281-380Zm-71.666 148q-24.315 0-40.465-16.162Q136-264.324 136-288.656v-383.012Q136-696 152.15-712t40.465-16h574.77q24.315 0 40.465 16.162Q824-695.676 824-671.344v383.012Q824-264 807.85-248t-40.465 16h-574.77Zm0-32h574.77q9.23 0 16.923-7.692Q792-279.385 792-288.615v-382.77q0-9.23-7.692-16.923Q776.615-696 767.385-696h-574.77q-9.23 0-16.923 7.692Q168-680.615 168-671.385v382.77q0 9.23 7.692 16.923Q183.385-264 192.615-264ZM168-264v-432 432Z"/></svg>