<svg xmlns="http://www.w3.org/2000/svg" height="20" viewBox="0 -960 960 960" width="20"><path d="M267.974-386h327.737q11.289 0 18.789-7.338 7.5-7.339 7.5-18.622v-183.757q0-11.283-7.342-18.783-7.343-7.5-18.632-7.5H268.289Q257-622 249.5-614.662q-7.5 7.339-7.5 18.622v183.757q0 11.283 7.342 18.783 7.343 7.5 18.632 7.5ZM200-244q-22.7 0-37.35-14.662Q148-273.324 148-296.04v-368.243Q148-687 162.65-701.5T200-716h560q22.7 0 37.35 14.662Q812-686.676 812-663.96v368.243Q812-273 797.35-258.5T760-244H200Zm0-20h560q12 0 22-10t10-22v-368q0-12-10-22t-22-10H200q-12 0-22 10t-10 22v368q0 12 10 22t22 10Zm-32 0v-432 432Z"/></svg>