<svg xmlns="http://www.w3.org/2000/svg" height="24" viewBox="0 -960 960 960" width="24"><path d="M475.923-449.692 186.077-161.846q-5.615 5.615-13.654 6.115-8.038.5-14.654-6.115-6.384-6.385-6.384-14.154t6.384-14.154L549-581.385q-20.308-48.153-8.846-94.615 11.461-46.462 51.615-86.154 39.154-39.154 98-54.308 58.846-15.153 98.308 24.308 39.462 39.462 24.308 98.308-15.154 58.846-54.308 98-39.692 40.154-86.154 51.615-46.461 11.462-94.615-8.846L504.231-480l289.846 289.846q5.615 5.615 6.115 13.654t-6.115 14.654q-6.385 6.385-14.154 6-7.769-.385-14.154-6L475.923-449.692Zm-181.385-35.385L183.769-595.846Q151-628.615 138.461-681.077q-12.538-52.462 11.924-94.769 7.923-14.231 23.73-16.231 15.808-2 27.27 9.692l195 195.462-101.847 101.846Z"/></svg>