<svg xmlns="http://www.w3.org/2000/svg" height="20" viewBox="0 -960 960 960" width="20"><path d="M476.923-456.692 203.077-182.846q-5.615 5.615-11.154 5.115-5.538-.5-11.154-6.115-6.384-6.385-6.384-11.654t6.384-11.654L557-583.385q-22.308-51.153-8.346-90.615 13.961-39.462 46.115-72.154 31.154-30.154 82.5-47.308 51.346-17.153 91.808 20.308 40.462 39.462 22.308 91.808-18.154 52.346-49.308 83.5-32.692 31.154-71.654 44.615-38.961 13.462-90.115-6.846L500.231-480l273.846 273.846q5.615 5.615 5.615 11.154t-5.615 11.154q-6.385 6.385-11.654 6-5.269-.385-11.654-6L476.923-456.692Zm-166.385-28.385L203.769-590.846Q174-619.615 162.461-668.577q-11.538-48.962 10.924-87.269 6.923-13.231 20.73-14.231 13.808-1 24.27 8.692l185 183.462-92.847 92.846Z"/></svg>