<svg xmlns="http://www.w3.org/2000/svg" height="24" viewBox="0 -960 960 960" width="24"><path d="M480-325.087q17 0 29.5-12.5t12.5-29.5q0-17-12.5-29.5t-29.5-12.5q-17 0-29.5 12.5t-12.5 29.5q0 17 12.5 29.5t29.5 12.5Zm115.13-285.961q0-46.604-31-74.386-31-27.783-80.26-27.783-43.174 0-75.522 21.565-32.348 21.565-32.348 48 0 8.87 4 15.652 4 6.783 12 9.783 11 4 21.5-.5t20.5-15.5q9-11 21.357-16.283 12.357-5.282 26.773-5.282 22.51 0 37.19 12.66Q534-630.461 534-611.217q0 17.435-7.935 29.283-7.935 11.847-27.369 27.717-27.261 22.13-37.544 40.739-10.282 18.608-10.282 36.608 0 13.74 8.347 22.74 8.348 9 21.176 9 11.911 0 20.194-7.718 8.283-7.717 10.848-21.022 3.13-16.13 16.609-29.782 13.478-13.652 25.347-25.522 21.819-21.621 31.779-41.832 9.96-20.211 9.96-40.042ZM480-201.262Q598.043-308.74 655.63-393.174q57.587-84.435 57.587-161.087 0-105.025-67.541-171.991-67.542-66.965-165.696-66.965t-165.675 66.965q-67.522 66.966-67.522 171.991 0 76.652 57.587 160.804T480-201.262Zm-.135 110.089q-16.126 0-32.155-5.565-16.029-5.566-28.623-16.696-68.392-61.696-120.653-119.261-52.261-57.565-87.174-112.196-34.913-54.63-52.696-106.674-17.782-52.044-17.782-102.696 0-157.755 102.295-251.356Q345.373-899.218 480-899.218t236.923 93.601q102.295 93.601 102.295 251.356 0 50.652-17.782 102.696-17.783 52.044-52.696 106.674-34.913 54.631-87.174 112.196-52.261 57.565-120.653 119.261-12.67 11.13-28.796 16.696-16.126 5.565-32.252 5.565ZM480-560Z"/></svg>