<svg xmlns="http://www.w3.org/2000/svg" height="20" viewBox="0 -960 960 960" width="20"><path d="M48-384h72v143.729Q120-225 130.062-214.5 140.125-204 155-204h95v-36h110v-96h72v96h96v-96h72v96h110v36h95q14.875 0 24.938-10.35Q840-224.7 840-240v-144h72v144q0 45-31.208 76.5Q849.583-132 805-132h-95v36H250v-36h-95q-44.583 0-75.792-31.5Q48-195 48-240v-144Zm288-528h72v240H288q-29.7 0-50.85 21.212-21.15 21.213-21.15 51 0 29.788 21.15 50.882 21.15 21.095 50.85 21.095V-456q-60 0-102-42t-42-102q0-60 42-102t102-42h48v-168Zm216 0h72v168h48q60 0 102 42t42 102q0 60-42 102t-102 42v-72q29.7 0 50.85-21.212 21.15-21.213 21.15-51Q744-630 722.85-651 701.7-672 672-672H552v-240Zm-72 456Zm0 48q-44 0-79.5-24T348-497l-9-23q-2-4-5.03-6-3.031-2-6.97-2h-39v-72h40q26 0 47 14.5t31 38.5l9 23q8 20 25.5 32t39.5 12q21.75 0 39.875-12T546-524l9-23q9-24 30.309-38.5T633-600h39v72h-39q-3.824 0-6.912 2T621-520l-9 23q-17 41-52.5 65T480-408Z"/></svg>