<svg xmlns="http://www.w3.org/2000/svg" height="24" viewBox="0 -960 960 960" width="24"><path d="m479.761-109-63.5-57.022q-101.957-91.717-168.555-158.434-66.597-66.718-105.717-119.816-39.12-53.098-54.74-97.815Q71.63-586.804 71.63-634q0-97.587 65.272-162.978 65.272-65.392 162.859-65.392 51.761 0 98.522 21.044 46.76 21.043 81.478 59.847 34.717-38.804 81.478-59.847Q608-862.37 659.761-862.37q97.587 0 163.098 65.392Q888.37-731.587 888.37-634q0 46.957-15.5 91.674-15.5 44.717-54.739 97.696-39.24 52.978-105.957 119.815-66.717 66.837-168.913 158.793L479.761-109Z"/></svg>