<svg xmlns="http://www.w3.org/2000/svg" height="20" viewBox="0 -960 960 960" width="20"><path d="m479-98-73-66q-104-92-171.5-158.5T129-441q-38-52-53-96t-15-92q0-103.955 70.736-174.977Q202.473-875 306-875q47.932 0 92.966 17Q444-841 479-808q35-33 80.034-50 45.034-17 92.966-17 104.382 0 175.691 71.023Q899-732.955 899-629q0 47-14 90t-52.5 94q-38.5 51-107 119T550-162l-71 64Zm0-158q91-83 149.5-139t92.5-98q34-42 47-73.648 13-31.647 13-62.328Q781-684 743.995-720.5 706.989-757 652.481-757 621-757 592.5-742.5T542-702l-35 41h-55l-35-41q-21.526-26-51.763-40.5T306.273-757q-53.546 0-89.909 36.5Q180-684 180-629q0 31.756 12.44 62.995 12.44 31.239 45.5 72.622Q271-452 329-396q58 56 150 140Zm2-251Z"/></svg>