<svg xmlns="http://www.w3.org/2000/svg" height="20" viewBox="0 -960 960 960" width="20"><path d="m480-197.846-22.308-20.385q-96.923-87.461-160-148.653-63.077-61.193-98.654-106.847-35.577-45.654-49.307-82.038Q136-592.154 136-629q0-71.308 49.846-121.154Q235.692-800 307-800q49.769 0 95 26t78 75.538Q512.769-748 558-774t95-26q71.308 0 121.154 49.846Q824-700.308 824-629q0 36.846-13.231 72.231-13.23 35.384-48.807 80.538-35.577 45.154-98.769 107.347Q600-306.692 500.308-216.231L480-197.846ZM480-241q93-83.769 153-142.654 60-58.884 95.5-102.384t49.5-77.116q14-33.615 14-65.846 0-59-40-99t-99-40q-35.769 0-66.654 15.269-30.884 15.269-69.807 55.116l-35 41h-3.078l-35-41q-39.692-40.616-71.192-55.5Q340.769-768 307-768q-58.231 0-98.615 40Q168-688 168-629q0 32.231 13 64.346 13 32.116 47.5 75.116t95 102Q384-328.538 480-241Zm0-264Z"/></svg>