<svg xmlns="http://www.w3.org/2000/svg" height="24" viewBox="0 -960 960 960" width="24"><path d="M103.478-261.782Q89.652-275.609 89.652-296q0-20.391 13.826-34.218l184-184q37.826-37.826 91.218-37.826 53.391 0 91.217 37.826l46 46q9.739 9.739 22.283 9.739 12.543 0 22.282-9.739l163.304-163.303h-42.086q-20.392 0-34.435-14.044-14.044-14.044-14.044-34.435 0-20.391 14.044-34.435 14.043-14.044 34.435-14.044h155.478q22.087 0 37.544 15.457 15.456 15.457 15.456 37.544V-520q0 20.391-14.043 34.435-14.044 14.044-34.435 14.044-20.392 0-34.435-14.044-14.044-14.044-14.044-34.435v-42.086L628.913-398.782q-37.826 37.826-91.217 37.826-53.392 0-91.218-37.826l-47-47q-9.304-9.305-21.782-9.305t-21.783 9.305l-184 184q-13.826 13.826-34.217 13.826-20.392 0-34.218-13.826Z"/></svg>