<svg xmlns="http://www.w3.org/2000/svg" height="24" viewBox="0 -960 960 960" width="24"><path d="M192-212q-26 0-43-17t-17-43v-416q0-26 17-43t43-17h576q26 0 43 17t17 43v416q0 26-17 43t-43 17H192Zm234-162H280q-5.95 0-9.975 4.035-4.025 4.035-4.025 10t4.025 9.965q4.025 4 9.975 4h66v26q0 5.95 4.035 9.975 4.035 4.025 10 4.025t9.965-4.025q4-4.025 4-9.975v-26h52q11.9 0 19.95-8.05Q454-362.1 454-374v-92q0-11.9-8.05-19.95Q437.9-494 426-494H294v-92h146q5.95 0 9.975-4.035 4.025-4.035 4.025-10T449.975-610q-4.025-4-9.975-4h-66v-26q0-5.95-4.107-9.975Q365.786-654 359.714-654 354-654 350-650t-4 10v26h-52q-11.9 0-19.95 8.05Q266-597.9 266-586v92q0 11.9 8.05 19.95Q282.1-466 294-466h132v92Zm219 45 38-38q4-4 2.125-8.5T678-380h-76.235Q597-380 595-375.5t2 8.5l37.966 37.966Q637-327 639.909-327t5.091-2Zm-43-241h76.235q4.765 0 6.765-4.5t-2-8.5l-37.966-37.966Q643-623 640.091-623T635-621l-38 38q-4 4-2.125 8.5T602-570Z"/></svg>