<svg xmlns="http://www.w3.org/2000/svg" height="20" viewBox="0 -960 960 960" width="20"><path d="M200-244q-22.7 0-37.35-14.662Q148-273.324 148-296.04v-368.243Q148-687 162.65-701.5T200-716h560q22.7 0 37.35 14.662Q812-686.676 812-663.96v368.243Q812-273 797.35-258.5T760-244H200Zm0-20h560q12 0 22-10t10-22v-368q0-12-10-22t-22-10H200q-12 0-22 10t-10 22v368q0 12 10 22t22 10Zm-32 0v-432 432Zm266-118H276q-4.3 0-7.15 2.789-2.85 2.79-2.85 7 0 4.211 2.85 7.211t7.15 3h74v38q0 4.3 2.789 7.15 2.79 2.85 7 2.85 4.211 0 7.211-2.85t3-7.15v-38h48q15.4 0 25.7-10.3Q454-382.6 454-398v-56q0-15.4-10.3-25.7Q433.4-490 418-490H286v-88h158q4.3 0 7.15-2.789 2.85-2.79 2.85-7 0-4.211-2.85-7.211t-7.15-3h-74v-38q0-4.3-2.789-7.15-2.79-2.85-7-2.85-4.211 0-7.211 2.85t-3 7.15v38h-48q-15.4 0-25.7 10.3Q266-577.4 266-562v56q0 15.4 10.3 25.7Q286.6-470 302-470h132v88Zm218 28 33-33q4-4 1.5-7.5t-6.722-3.5h-63.556q-4.222 0-6.722 3.5t1.5 7.5l33 33q1.571 2 4 2 2.429 0 4-2Zm-35.778-208h63.556q4.222 0 6.722-3.5T685-573l-33-33q-1.571-2-4-2-2.429 0-4 2l-33 33q-4 4-1.5 7.5t6.722 3.5Z"/></svg>