<svg xmlns="http://www.w3.org/2000/svg" height="20" viewBox="0 -960 960 960" width="20"><path d="M747-62q-93 0-158-65t-65-158q0-93 65-157.5T747-507q93 0 157.5 64.5T969-285q0 93-64.5 158T747-62Zm101-123q5-6 2.5-13.5T840-208q-30-5-55.5-22.5T742-277q-17-29-19-58.5t9-58.5q3-8-2-14t-13-5q-78 14-106.5 88.5T634-188q40 51 105.5 52.5T848-185ZM554-62H424q-22 0-39-14t-20-35l-15-76q-15-6-30-14t-28-19l-73 25q-20 8-40.5 0T147-222L90-322q-11-19-7.5-40t20.5-34l57-51q-1-8-2-16.5t-1-16.5q0-8 1-16.5t2-16.5l-57-50q-17-13-20.5-34.5T90-638l57-99q11-18 31.5-26t40.5-1l75 25q13-11 27-18.5t29-13.5l15-78q3-21 20-35t39-14h112q22 0 39 14t20 35l15 78q15 6 30 13.5t28 18.5l73-25q20-7 40.5 1t31.5 26l60 104q10 17 6.5 35.5T861-567l-7 11q-28-13-58-19t-61-4q-33 1-66.5 10T605-544q-17-37-51.5-58.5T477-624q-60 0-102 42t-42 102q0 53 34.5 94t88.5 53q-2 11-3 20t-1 19q-1 66 25.5 126.5T554-62Z"/></svg>