<svg xmlns="http://www.w3.org/2000/svg" height="20" viewBox="0 -960 960 960" width="20"><path d="M690.154-584H336.615q-10.769 0-17.692 6.923T312-559.385V-248q0 6.839-4.52 11.419Q302.959-232 296.21-232t-11.479-4.581Q280-241.161 280-248v-311.385q0-23.546 16.534-40.08Q313.069-616 336.615-616h353.539L563.712-742.442Q559-747.154 559-753.192q0-6.039 5.615-11.654 5.616-5.616 11.436-5.616 5.821 0 11.103 5.616l144.831 145.145q4.631 4.641 6.746 9.415 2.115 4.773 2.115 10.448 0 5.676-2.115 10.449-2.115 4.774-6.346 9.004l-144.68 144.68q-4.628 4.628-10.733 4.936-6.105.308-11.357-5.385-6.384-5.615-6-11.654.385-6.038 5.688-11.341L690.154-584Z"/></svg>