<svg xmlns="http://www.w3.org/2000/svg" height="20" viewBox="0 -960 960 960" width="20"><path d="M623.477-550.999H318.783v329.217q0 20.387-14.246 34.694-14.246 14.306-34.544 14.306-20.298 0-34.755-14.306-14.456-14.307-14.456-34.694v-329.217q0-41.005 28.498-69.503 28.498-28.499 69.503-28.499h304.694l-83.22-83.219q-14.823-14.823-14.54-34.128.282-19.304 15.239-34.261 14.957-14.957 34.711-14.957 19.754 0 34.377 14.957l166.165 165.914q7.096 7.106 11.009 16.245 3.913 9.138 3.913 18.612 0 9.475-3.913 18.613t-10.609 15.834L610.391-399.173q-14.739 14.739-34.008 14.277-19.269-.461-33.862-15.495-15.522-14.957-15.239-34.826.283-19.87 14.927-34.514l81.268-81.268Z"/></svg>