<svg xmlns="http://www.w3.org/2000/svg" height="24" viewBox="0 -960 960 960" width="24"><path d="M640-167q-25.269 0-49.135-3.5Q567-174 544-182q71-54 110-131.5t39-166q0-88.5-39-166.5T544-778q23-8 46.865-11.5Q614.731-793 640-793q130.789 0 221.895 91.149Q953-610.703 953-479.851 953-349 861.895-258 770.789-167 640-167Zm-320 0q-130.789 0-221.895-91.149Q7-349.297 7-480.149 7-611 98.105-702 189.211-793 320-793q25.269 0 49.135 3.5Q393-786 416-778q-30 23-55 51t-44 60q-77 1-130.5 55.366-53.5 54.365-53.5 131.5Q133-403 186.5-349 240-295 317-293q19 32 44 60t55 51q-23 8-46.865 11.5Q345.269-167 320-167Zm160-59q-10 0-20-3.5t-18-9.5q-56-42-85.5-107T327-480q0-69 29.5-134T442-721q8-6 18-9t20-3q10 0 20 3t18 9q56 42 85.5 107T633-480q0 69-29.5 134T518-239q-8 6-18 9.5t-20 3.5Z"/></svg>