<svg xmlns="http://www.w3.org/2000/svg" height="24" viewBox="0 -960 960 960" width="24"><path d="M297.694-250.001h99.998v-156.153h40v-171.538H257.694v171.538h40v156.153Zm50.053-366.153q19.407 0 32.753-13.4t13.346-32.807q0-19.408-13.4-32.754-13.4-13.346-32.807-13.346-19.408 0-32.754 13.401-13.346 13.4-13.346 32.807 0 19.407 13.401 32.753 13.4 13.346 32.807 13.346Zm186.485 86.153h163.843l-81.921-131.151-81.922 131.151Zm81.922 231.153 81.921-131.151H534.232l81.922 131.151ZM140.001-140.001v-679.998h679.998v679.998H140.001ZM200-200h560v-560H200v560Zm0 0v-560 560Z"/></svg>