<svg xmlns="http://www.w3.org/2000/svg" height="24" viewBox="0 -960 960 960" width="24"><path d="M35.478-390v-174.913q0-17.164 11.223-28.386 11.222-11.223 28.386-11.223h100.391q30.087 0 49.566 19.478 19.478 19.479 19.478 49.566v30.956q0 21.392-10.217 36.957-10.218 15.565-24.653 25.261l18.305 42.608q7.13 15.696-2.721 29.957-9.851 14.261-27.236 14.261-9.696 0-17.261-5.348-7.565-5.348-11.696-14.478l-25.869-60.174h-38.652V-390q0 14.96-9.781 24.741-9.781 9.781-24.741 9.781-14.96 0-24.74-9.781-9.782-9.781-9.782-24.741Zm360-34.522v-20.956h-66.999q-22.088 0-37.544-15.457-15.457-15.456-15.457-37.544v-53.042q0-22.088 15.457-37.544 15.456-15.457 37.544-15.457H430q14.96 0 24.741 9.781 9.781 9.781 9.781 24.741 0 14.96-9.781 24.741-9.781 9.781-24.741 9.781h-85.478v20.956h66.999q22.088 0 37.544 15.457 15.457 15.456 15.457 37.544v53.042q0 22.088-15.457 37.544-15.456 15.457-37.544 15.457H310q-14.96 0-24.741-9.781-9.781-9.781-9.781-24.741 0-14.96 9.781-24.741 9.781-9.781 24.741-9.781h85.478Zm200-54.305 30.043-101.869q3.444-10.211 12.055-17.018 8.61-6.808 20.09-6.808 16.073 0 25.986 13.196T689-562.435l-53.565 183.696q-3 10.13-11.631 16.696-8.63 6.565-19.415 6.565h-17.256q-10.785 0-19.416-6.283-8.63-6.282-11.63-16.413L502.521-561.87q-4.565-15.695 5.33-29.174 9.895-13.478 26.192-13.478 11.357 0 19.874 6.565 8.518 6.566 12.083 17.261l29.478 101.869Zm120 88.827v-174.913q0-17.164 11.223-28.386 11.222-11.223 28.386-11.223h100.391q30.087 0 49.566 19.478 19.478 19.479 19.478 49.566v30.956q0 29.522-19.478 49.283-19.479 19.761-49.566 19.761h-70.956V-390q0 14.96-9.781 24.741-9.781 9.781-24.741 9.781-14.96 0-24.741-9.781-9.781-9.781-9.781-24.741ZM104.522-504.522h70.956v-30.956h-70.956v30.956Zm680 0h70.956v-30.956h-70.956v30.956Z"/></svg>