<svg xmlns="http://www.w3.org/2000/svg" height="24" viewBox="0 -960 960 960" width="24"><path d="M52.308-390v-173.846q0-9.923 7.346-16.885 7.346-6.961 17.269-6.961h101.539q20.512 0 34.871 14.359 14.359 14.359 14.359 34.871V-500q0 19.538-13.192 31.462-13.192 11.923-28.192 15.307l24.615 56.769q3.692 8.616-1.538 16.385-5.231 7.769-14.462 7.769-5.692 0-9.615-2.961-3.923-2.962-6.154-7.885l-29.308-69.154H87.692V-390q0 7.667-5.002 12.68-5.003 5.012-12.654 5.012t-12.69-5.012q-5.038-5.013-5.038-12.68Zm360-17.692v-54.616h-87.693q-13.73 0-23.019-9.288-9.288-9.289-9.288-23.019v-60.77q0-13.73 9.288-23.019 9.289-9.288 23.019-9.288H430q7.667 0 12.68 5.002 5.012 5.003 5.012 12.654t-5.012 12.69q-5.013 5.038-12.68 5.038H327.692v54.616h87.693q13.73 0 23.019 9.288 9.288 9.289 9.288 23.019v60.77q0 13.73-9.288 23.019-9.289 9.288-23.019 9.288H310q-7.667 0-12.68-5.002-5.012-5.003-5.012-12.654t5.012-12.69q5.013-5.038 12.68-5.038h102.308ZM600-419.154l45.538-156q2.231-5.923 6.27-9.231 4.038-3.307 10.286-3.307 8.747 0 14.057 6.884 5.311 6.885 2.849 15.5l-52.231 177.385q-2.176 6.692-7.615 11.154-5.44 4.461-12.692 4.461h-12.687q-7.929 0-13.185-4.461-5.257-4.462-7.359-11.154L521-565.308q-2.462-8.615 2.849-15.5 5.31-6.884 14.057-6.884 6.248 0 10.286 3.307 4.039 3.308 6.27 9.231l45.538 156ZM732.308-390v-173.846q0-9.923 7.346-16.885 7.346-6.961 17.269-6.961h101.539q20.512 0 34.871 14.359 14.359 14.359 14.359 34.871v36.924q0 20.512-14.359 34.871-14.359 14.359-34.871 14.359h-90.77V-390q0 7.667-5.002 12.68-5.003 5.012-12.654 5.012t-12.69-5.012q-5.038-5.013-5.038-12.68ZM87.692-487.692h90.77q6.153 0 9.999-3.077 3.847-3.077 3.847-9.231v-38.462q0-6.153-3.847-9.999-3.846-3.847-9.999-3.847h-90.77v64.616Zm680 0h90.77q6.153 0 9.999-3.847 3.847-3.846 3.847-9.999v-36.924q0-6.153-3.847-9.999-3.846-3.847-9.999-3.847h-90.77v64.616Z"/></svg>