<svg xmlns="http://www.w3.org/2000/svg" height="20" viewBox="0 -960 960 960" width="20"><path d="M153-128q-23 0-40.5-18T95-187.5q0-23.5 18-41t41-17.5h653q24.256 0 41.128 17.35T865-187q0 23-17.35 41T806-128H153Zm0-586q-23 0-40.5-18T95-773.5q0-23.5 18-41t41-17.5h653q24.256 0 41.128 17.35T865-773q0 23-17.35 41T806-714H153Zm60 412q-48.675 0-83.337-35.013Q95-372.025 95-420v-120q0-48.675 34.663-83.338Q164.325-658 213-658h534q48.675 0 83.338 34.662Q865-588.675 865-540v120q0 47.975-34.662 82.987Q795.675-302 747-302H213Zm0-118h534v-120H213v120Zm0-120v120-120Z"/></svg>