<svg xmlns="http://www.w3.org/2000/svg" height="24" viewBox="0 -960 960 960" width="24"><path d="M144.304-123.824q-22.088 0-37.044-15.457-14.957-15.457-14.957-37.544 0-22.087 15.457-37.544 15.456-15.457 37.544-15.457h670.392q22.088 0 37.044 15.457 14.957 15.457 14.957 37.544 0 22.087-15.457 37.544-15.456 15.457-37.544 15.457H144.304Zm0-606.35q-22.088 0-37.044-15.457-14.957-15.457-14.957-37.544 0-22.087 15.457-37.544 15.456-15.457 37.544-15.457h670.392q22.088 0 37.044 15.457 14.957 15.457 14.957 37.544 0 22.087-15.457 37.544-15.456 15.457-37.544 15.457H144.304Zm54 429.392q-43.725 0-74.863-31.137-31.138-31.138-31.138-74.864v-146.434q0-43.726 31.138-74.863 31.138-31.138 74.863-31.138h563.392q43.725 0 74.863 31.138 31.138 31.137 31.138 74.863v146.434q0 43.726-31.138 74.864-31.138 31.137-74.863 31.137H198.304Zm0-106.001h563.392v-146.434H198.304v146.434Zm0-146.434v146.434-146.434Z"/></svg>