<svg xmlns="http://www.w3.org/2000/svg" height="20" viewBox="0 -960 960 960" width="20"><path d="M723-173.912 653.912-243l42.999-43.999H562.999v-98.002h133.912L653.912-429 723-498.088 882.088-336 723-173.912ZM181.001-274.999q-41.005 0-69.503-28.499-28.499-28.498-28.499-69.503v-357.998q0-41.005 28.499-69.503 28.498-28.499 69.503-28.499h453.564q41.739 0 70.087 28.499 28.349 28.498 28.349 69.503l1 144.259q-3.392-1.13-6.501-1.695-3.109-.566-6.5-.566-22.391 1-44 4.348t-42.001 9.479v-93.955L408-512.173 181.001-669.129v296.128H470.26q-2.13 8.522-2.695 17.631-.566 9.109-.566 19.37 0 12.261 2.283 29.652 2.283 17.392 5.413 31.349H181.001Zm82.132-456L408-630.827l143.172-100.172H263.133Zm-82.132 357.998v-357.998 357.998Z"/></svg>