<svg xmlns="http://www.w3.org/2000/svg" height="20" viewBox="0 -960 960 960" width="20"><path d="M480-156.615q-22.154 0-40.154-12.884-18-12.885-19.769-35.116H384q-13.077 0-22.539-9.461Q352-223.538 352-236.615v-128.462q-60.077-35.384-90.039-92.769Q232-515.231 232-576q0-103.846 72.077-175.923T480-824q103.846 0 175.923 72.077T728-576q0 59.231-29.961 117.385-29.962 58.154-90.039 93.538v128.462q0 13.077-9.461 22.539-9.462 9.461-22.539 9.461h-37.077q-1.769 22.231-19.269 35.116-17.5 12.884-39.654 12.884Zm-96-80h192v-51.077H384v51.077Zm0-89.846h192V-376H384v49.539ZM346-408h122.308v-126.923l-75.847-75.846q-3.153-3.154-3.538-8.154-.385-5 3.538-8.923 3.924-3.923 8.539-3.923t8.539 3.923L480-557.385l70.461-70.461q3.154-3.154 8.154-3.539 5-.384 8.924 3.539 3.923 3.923 3.923 8.538 0 4.616-3.923 8.539l-75.847 75.846V-408H614q38-31 60-74.5t22-93.5q0-90-63-153t-153-63q-90 0-153 63t-63 153q0 49 22 93t60 75Zm134-149.385ZM480-600Z"/></svg>