<svg xmlns="http://www.w3.org/2000/svg" height="24" viewBox="0 -960 960 960" width="24"><path d="M309.26-33.999v-221.565q-107.783-8-180.392-88.218-72.608-80.217-72.608-190 0-114.088 76.913-194.675 76.913-80.587 189.87-83.413h15.129l-49.999-51 74.088-74.653L540.349-758.87 362.261-580.782l-74.088-74.088 49.999-50.999h-15.695q-68.217 2.826-114.216 52.783-46 49.956-46 119.304 0 71.608 48.543 122.13 48.544 50.522 118.456 50.522h73.001v92.303l93.434-92.303H630.74q69.912 0 118.456-50.522 48.543-50.522 48.543-122.13 0-71.609-48.543-121.848-48.544-50.239-118.456-50.239h-10.956V-811.87h10.956q115.217 0 194.109 81.152 78.891 81.153 78.891 196.936t-78.891 197.218q-78.892 81.435-194.109 81.435h-91.87L309.26-33.999Z"/></svg>