<svg xmlns="http://www.w3.org/2000/svg" height="20" viewBox="0 -960 960 960" width="20"><path d="M687.077-220v-104.923H582.154v-32h104.923v-104.923h32v104.923H824v32H719.077V-220h-32ZM416.615-324.923H291.077q-64.357 0-109.717-45.413Q136-415.75 136-480.183q0-64.432 45.36-109.663 45.36-45.231 109.717-45.231h125.538v32H291.077q-50.769 0-86.923 36.154T168-480q0 50.769 36.154 86.923t86.923 36.154h125.538v32ZM356-464v-32h248v32H356Zm468-16h-32q0-50.769-36.154-86.923t-86.923-36.154H543.385v-32h125.538q64.357 0 109.717 45.36T824-480Z"/></svg>