<svg xmlns="http://www.w3.org/2000/svg" height="24" viewBox="0 -960 960 960" width="24"><path d="M664.738-140.782v-120h-120v-88.478h120v-120h89.044v120h120v88.478h-120v120h-89.044Zm-233.217-120H280q-90.976 0-155.097-64.108-64.121-64.109-64.121-155.066 0-90.957 64.121-155.11Q189.024-699.218 280-699.218h151.521v106.001H280.242q-47.274 0-80.367 33.022-33.092 33.021-33.092 80.195 0 47.174 33.092 80.195 33.093 33.022 80.367 33.022h151.279v106.001ZM306.999-435.478v-89.044h317.739v89.044H306.999ZM899.218-480H793.217q0-47.174-33.022-80.195-33.021-33.022-80.195-33.022H527.348v-106.001H680q90.976 0 155.097 64.121Q899.218-570.976 899.218-480Z"/></svg>