<svg xmlns="http://www.w3.org/2000/svg" height="20" viewBox="0 -960 960 960" width="20"><path d="M176.479-225.869q-41.005 0-69.503-28.498-28.499-28.498-28.499-69.503v-312.26q0-41.005 28.499-69.503 28.498-28.498 69.503-28.498H288V-516q0 15.3 10.289 25.65 10.29 10.35 25.5 10.35Q339-480 349.5-490.35 360-500.7 360-516v-218.131h84V-516q0 15.3 10.289 25.65 10.29 10.35 25.5 10.35Q495-480 505.5-490.35 516-500.7 516-516v-218.131h84V-516q0 15.3 10.289 25.65 10.29 10.35 25.5 10.35Q651-480 661.5-490.35 672-500.7 672-516v-218.131h111.521q41.005 0 69.503 28.498 28.499 28.498 28.499 69.503v312.26q0 41.005-28.499 69.503-28.498 28.498-69.503 28.498H176.479Z"/></svg>