<svg xmlns="http://www.w3.org/2000/svg" height="20" viewBox="0 -960 960 960" width="20"><path d="M240.615-184q-23.354 0-39.984-16.631Q184-217.261 184-240.615v-478.77q0-23.354 16.631-39.984Q217.261-776 240.615-776h478.77q23.354 0 39.984 16.631Q776-742.739 776-719.385v478.77q0 23.354-16.631 39.984Q742.739-184 719.385-184h-478.77Zm0-32h478.77q10.769 0 17.692-6.923T744-240.615V-672H216v431.385q0 10.769 6.923 17.692T240.615-216ZM304-501q-6.8 0-11.4-4.547-4.6-4.547-4.6-11.269 0-6.723 4.6-11.453Q297.2-533 304-533h352q6.8 0 11.4 4.547 4.6 4.547 4.6 11.269 0 6.723-4.6 11.453Q662.8-501 656-501H304Zm0 145q-6.8 0-11.4-4.547-4.6-4.547-4.6-11.269 0-6.723 4.6-11.453Q297.2-388 304-388h208q6.8 0 11.4 4.547 4.6 4.547 4.6 11.269 0 6.723-4.6 11.453Q518.8-356 512-356H304Z"/></svg>