<svg xmlns="http://www.w3.org/2000/svg" height="24" viewBox="0 -960 960 960" width="24"><path d="M224.615-160q-26.654 0-45.634-18.981Q160-197.961 160-224.615v-510.77q0-26.654 18.981-45.634Q197.961-800 224.615-800h510.77q26.654 0 45.634 18.981Q800-762.039 800-735.385v510.77q0 26.654-18.981 45.634Q762.039-160 735.385-160h-510.77Zm0-40h510.77q10.769 0 17.692-6.923T760-224.615V-680H200v455.385q0 10.769 6.923 17.692T224.615-200ZM300-500q-8.5 0-14.25-5.758-5.75-5.757-5.75-14.269t5.75-14.242Q291.5-540 300-540h360q8.5 0 14.25 5.758 5.75 5.757 5.75 14.269t-5.75 14.242Q668.5-500 660-500H300Zm0 160q-8.5 0-14.25-5.758-5.75-5.757-5.75-14.269t5.75-14.242Q291.5-380 300-380h200q8.5 0 14.25 5.758 5.75 5.757 5.75 14.269t-5.75 14.242Q508.5-340 500-340H300Z"/></svg>