<svg xmlns="http://www.w3.org/2000/svg" height="20" viewBox="0 -960 960 960" width="20"><path d="M224.479-126.477q-40.426 0-69.214-28.788-28.788-28.788-28.788-69.214v-511.042q0-40.426 28.788-69.214 28.788-28.788 69.214-28.788h511.042q40.426 0 69.214 28.788 28.788 28.788 28.788 69.214v511.042q0 40.426-28.788 69.214-28.788 28.788-69.214 28.788H224.479ZM216-216h528v-456H216v456Zm108-265q-15.3 0-25.65-10.289-10.35-10.29-10.35-25.5Q288-532 298.35-542.5 308.7-553 324-553h312q15.3 0 25.65 10.289 10.35 10.29 10.35 25.5Q672-502 661.65-491.5 651.3-481 636-481H324Zm0 145q-15.3 0-25.65-10.289-10.35-10.29-10.35-25.5Q288-387 298.35-397.5 308.7-408 324-408h168q15.3 0 25.65 10.289 10.35 10.29 10.35 25.5Q528-357 517.65-346.5 507.3-336 492-336H324Z"/></svg>