<svg xmlns="http://www.w3.org/2000/svg" height="20" viewBox="0 -960 960 960" width="20"><path d="M248-196q-21.45 0-36.725-15.275Q196-226.55 196-248v-464q0-21.45 15.275-36.725Q226.55-764 248-764h464q21.45 0 36.725 15.275Q764-733.45 764-712v464q0 21.45-15.275 36.725Q733.45-196 712-196H248Zm0-20h464q14 0 23-9t9-23v-424H216v424q0 14 9 23t23 9Zm50-291q-4.25 0-7.125-2.825-2.875-2.824-2.875-7 0-4.175 2.875-7.175t7.125-3h364q4.25 0 7.125 2.825 2.875 2.824 2.875 7 0 4.175-2.875 7.175T662-507H298Zm0 145q-4.25 0-7.125-2.825-2.875-2.824-2.875-7 0-4.175 2.875-7.175t7.125-3h220q4.25 0 7.125 2.825 2.875 2.824 2.875 7 0 4.175-2.875 7.175T518-362H298Z"/></svg>