<svg xmlns="http://www.w3.org/2000/svg" height="24" viewBox="0 -960 960 960" width="24"><path d="M57.823-61.78v-696.092q0-57.913 41.218-99.131 41.217-41.217 99.131-41.217H389.26q57.914 0 98.849 41.217 40.935 41.218 40.935 99.131v80H383.043q-43.74 0-74.871 31.131-31.131 31.131-31.131 74.871v218.088q0 43.739 31.131 74.87 31.131 31.131 74.871 31.131h146.001V-61.78H57.823Zm648.7-153.435q-29.392 0-60.262-8.978-30.87-8.979-61.087-22.24l32.913-100.871q27.653 12.261 49.762 18.892 22.108 6.63 38.674 7.196 11.434 0 23.717-3.783t24.152-12.217q26.392-18.261 56.066-25.609 29.674-7.348 52.5-7.348 28.392 0 59.761 8.978 31.37 8.979 60.588 21.805l-32.914 99.74q-31.652-11.261-53.543-17.891-21.892-6.631-34.327-6.631-13.434 0-28.217 4.5t-28.783 15.5q-19.261 13.696-45.435 21.326-26.174 7.631-53.565 7.631ZM529.044-353.782H383.043V-571.87h146.001v218.088Zm176.479-47.956q-29.392 0-59.762-9.261t-60.587-22.522l32.913-100.871q25.087 11.261 47.979 18.674 22.891 7.413 40.457 7.978 11.434 0 23.434-4 12-4 24.435-12 27.392-18.695 55.066-25.826 27.674-7.13 52.5-7.13 28.392 0 59.979 8.478t61.37 21.739l-32.914 100.306q-28.087-10.826-50.13-17.957-22.044-7.13-38.305-7.13-12 0-26.217 4.782-14.218 4.783-30.218 15.783-24.391 16.261-49 22.609-24.609 6.348-51 6.348Zm1-187.089q-29.392 0-60.479-9.261t-60.87-22.522l32.913-100.871q32.218 13.827 53.044 20.24 20.826 6.413 35.392 6.413 11.434 0 23.152-3.783 11.717-3.782 24.717-12.217 28.392-18.696 55.283-25.544 26.892-6.848 52.283-6.848 27.826 0 58.479 7.913 30.652 7.914 63.435 21.74l-33.479 99.74q-31.652-11.261-53.043-17.326-21.392-6.065-35.392-6.065-12.435 0-25.935 4.282-13.5 4.283-30.5 15.718-20.826 14.695-47 21.543-26.174 6.848-52 6.848Z"/></svg>