<svg xmlns="http://www.w3.org/2000/svg" height="20" viewBox="0 -960 960 960" width="20"><path d="M85.52-149.607v-98.001h220.001q-20.566-79.391-78.392-139.196-57.826-59.805-141.609-82.066 18.696-5 38.109-8.065Q143.042-480 164.303-480q134.696 0 225.197 94.457Q480-291.086 480-149.607H85.52Zm466.48 0q0-40.26-8.283-82.065-8.282-41.805-26.543-82.457Q558-390.304 632.413-435.152 706.827-480 795.697-480q20.261 0 39.674 3.065t39.109 8.065q-80.391 22.261-139.913 83.979-59.522 61.718-79.522 137.283H874.48v98.001H552Zm-70.87-230.826q-3.391-65.349 17.044-125.045 20.435-59.696 61.043-105.196 40.609-45.5 97.61-73.805 57-28.305 128.305-32.435-55.522 34.826-98.609 89.587-43.088 54.762-65.349 116.414-44.956 22.261-81.696 56.544-36.739 34.283-58.348 73.936Zm-68.26-76.044q-15.261-13.827-29.436-24.218-14.174-10.392-23.739-15.957.565-6.261 1.348-16.5.783-10.239.783-17.37 0-72.783-22.979-140.718-22.978-67.935-67.935-124.457 64.087 27.261 114.87 78.761 50.783 51.501 76.044 125.066-18.696 30.827-31.609 66.131-12.913 35.305-17.347 69.262Z"/></svg>