<svg xmlns="http://www.w3.org/2000/svg" height="20" viewBox="0 -960 960 960" width="20"><path d="M388.304-135.869H135.869v-252.435q37.609-2 63.218-28.424 25.608-26.424 25.608-63.272t-25.608-63.272q-25.609-26.424-63.218-28.424v-252.435h241.196q2.631-41.754 32.079-69.714 29.449-27.96 70.631-27.96t70.855 27.96q29.674 27.96 32.305 69.714h241.196v241.196q41.754 2.631 69.714 32.079 27.96 29.449 27.96 70.631t-27.96 70.855q-27.96 29.674-69.714 32.305v241.196H571.696q-2-38.506-28.127-65.46-26.127-26.953-63.451-26.953t-63.569 26.953q-26.245 26.954-28.245 65.46ZM218.87-218.87h109.608q19.044-41.413 59.348-66.913t92.174-25.5q51.152 0 91.457 25.5 40.304 25.5 60.065 66.913H741.13V-456h73.674q9.6 0 16.8-7.2 7.2-7.2 7.2-16.8 0-9.6-7.2-16.8-7.2-7.2-16.8-7.2H741.13v-237.13H504v-73.674q0-9.6-7.2-16.8-7.2-7.2-16.8-7.2-9.6 0-16.8 7.2-7.2 7.2-7.2 16.8v73.674H218.87v108.652q42.13 22.63 65.597 63.772 23.468 41.141 23.468 88.814 0 48.902-23.468 90.06Q261-348.674 218.87-327.283v108.413ZM480-480Z"/></svg>