<svg xmlns="http://www.w3.org/2000/svg" height="20" viewBox="0 -960 960 960" width="20"><path d="M387.077-164.001H164.001v-223.076q33.077-7.001 54.538-33.154Q240-446.385 240-480q0-33.615-21.461-59.769-21.461-26.153-54.538-33.154v-223.076H384q5.385-36.473 32.198-60.082 26.813-23.609 63.577-23.609 36.763 0 63.802 23.609 27.038 23.609 32.423 60.082h219.999V-576q36.473 5.385 60.082 32.198 23.609 26.813 23.609 63.577 0 36.763-23.609 63.802-23.609 27.038-60.082 32.423v219.999H572.923q-7.385-33.077-33.037-54.538Q514.235-240 480.118-240q-34.118 0-59.887 21.461t-33.154 54.538Z"/></svg>