<svg xmlns="http://www.w3.org/2000/svg" height="20" viewBox="0 -960 960 960" width="20"><path d="M680.327-631.846q-12.711 0-22.058-9.06-9.346-9.06-9.346-22.453 0-7.103 2.231-11.949t7.005-9.62q15.457-13.457 44.957-22.034l29.5-8.577q-4.462 17.693-10.462 33.385-5.231 11.692-10.407 24.073-5.175 12.38-9.81 17.107-4.412 4.444-10.02 6.786-5.608 2.342-11.59 2.342ZM218.595-203.23q-23.372 0-39.907-16.631-16.535-16.631-16.535-39.985v-444.923q0-23.354 16.664-39.985t40.063-16.631h170.182q23.4 0 39.784 16.631 16.385 16.631 16.385 39.985v297.23q8.769-8.846 20.577-12.423 11.807-3.577 26.192-3.577 32.821 0 55.795 22.975 22.974 22.974 22.974 55.795V-282q0 19.877 13.454 33.323 13.454 13.446 33.343 13.446 19.888 0 33.315-13.446 13.427-13.446 13.427-33.323v-220.308h-43.385v-33.461q-39.077-18.692-60.615-53.731-21.539-35.039-21.539-73.731 0-59.315 41.462-100.427 41.462-41.112 100.289-41.112 59.403 0 100.365 41.112 40.962 41.112 40.962 100.427 0 38.692-22.039 73.231-22.038 34.539-60.115 54.231v33.461h-43.385V-282q0 32.821-22.948 55.795-22.948 22.975-55.731 22.975t-55.821-22.975Q538.769-249.179 538.769-282v-62.769q0-19.877-13.454-33.323-13.454-13.446-33.342-13.446-19.888 0-33.315 13.446-13.427 13.446-13.427 33.323v84.923q0 23.354-16.644 39.985-16.643 16.631-40.015 16.631H218.595Zm461.803-350.462q45.679 0 77.564-31.976 31.884-31.975 31.884-77.653 0-45.679-31.975-77.564-31.975-31.884-77.654-31.884-45.678 0-77.563 31.975-31.885 31.975-31.885 77.654 0 45.678 31.976 77.563 31.975 31.885 77.653 31.885ZM218.769-235.231h169.846q10.77 0 17.693-6.923 6.923-6.923 6.923-17.692v-90.538l-62.77 62.846v-45.655l62.77-62.846v-111.46l-62.77 62.846v-45.655l62.77-62.769v-111.377l-62.77 62.77v-45.547l75.231-75.231q-3.077-3.846-7.308-5.384-4.23-1.539-10.384-1.539H199.384q-6.153 0-10.384 1.539-4.231 1.538-7.308 5.384l75.231 75.231v45.547l-62.769-62.77v111.377l62.769 62.769v45.547l-62.769-62.77v111.377l62.769 62.769v45.847l-62.769-62.982v90.674q0 10.769 6.923 17.692t17.692 6.923Zm82.923-247.077Z"/></svg>