<svg xmlns="http://www.w3.org/2000/svg" height="24" viewBox="0 -960 960 960" width="24"><path d="M778-656q-18 0-31.5-13.5T733-701q0-10 4-17.5t9.882-13.382Q761-746 808.5-762.5L856-779q-8 26-17 48-6.667 18.855-15 36.6T809-670q-6 6-13.5 10t-17.5 4ZM145-76q-51.975 0-88.987-37.012Q19-150.025 19-202v-551q0-51.975 37.013-88.987Q93.025-879 145-879h194q51.975 0 88.987 37.013Q465-804.975 465-753v322q11-4 21.645-6T509-439q56 0 97 41t41 97v88q0 18 11.5 29.5t29.395 11.5q17.894 0 30-11.5Q730-195 730-213v-220h-42v-64.125Q628-523 591.5-577.646T555-701.436Q555-794 620.322-859q65.321-65 158-65Q871-924 936-858.802q65 65.199 65 157.703 0 69.099-36.85 123.768Q927.3-522.661 867-497v64h-42v220q0 56-40.5 96.5T688-76q-56 0-96-40.5T552-213v-88q0-18.275-12.307-30.638Q527.386-344 509.193-344 491-344 478-331.638 465-319.275 465-301v99q0 51.975-37.013 88.988Q390.975-76 339-76H145Zm633.471-497Q832-573 868.5-610.471q36.5-37.47 36.5-91Q905-755 868.5-791.5 832-828 778.471-828q-53.53 0-91 36.5Q650-755 650-701.471q0 53.53 37.471 91 37.47 37.471 91 37.471ZM115-172h255v-68l-89 89v-143l89-89v-80l-89 89v-143l89-89v-80l-89 89v-143l43-44H162l42 44v143l-89-89v80l89 89v143l-89-89v80l89 89v143l-89-89v68Zm127-306Z"/></svg>