<svg xmlns="http://www.w3.org/2000/svg" height="20" viewBox="0 -960 960 960" width="20"><path d="M500.154-571.154v182.308q0 9.173 8.577 12.779T524-378.154l89.231-81.231q8.692-8.874 8.692-20.706 0-11.832-8.692-20.524L524-581.846q-6.516-5.693-15.181-1.962t-8.665 12.654ZM235.615-184q-21.483 0-36.549-15.066Q184-214.132 184-235.615v-488.77q0-21.483 15.066-36.549Q214.132-776 235.615-776h488.77q21.483 0 36.549 15.066Q776-745.868 776-724.385v488.77q0 21.483-15.066 36.549Q745.868-184 724.385-184h-488.77ZM336-216v-528h-95.385q-9.23 0-16.923 7.692Q216-728.615 216-719.385v478.77q0 9.23 7.692 16.923Q231.385-216 240.615-216H336Zm32 0h351.385q9.23 0 16.923-7.692Q744-231.385 744-240.615v-478.77q0-9.23-7.692-16.923Q728.615-744 719.385-744H368v528Zm-32 0H216h120Z"/></svg>