<svg xmlns="http://www.w3.org/2000/svg" height="24" viewBox="0 -960 960 960" width="24"><path d="M64.615-480v-175.385H100v114.923L230.538-671l25.077 25.077-130.538 130.538H240V-480H64.615Zm249.462-224.385L289-729.462 419.538-860H304.615v-35.385H480V-720h-35.385v-114.923L314.077-704.385ZM521.462-89.231 294.769-315.384l36.847-35.77 137.615 34.308v-352.385h40v406.077L363.77-302.461l173.999 173.23h271.462v-280h40v320H521.462Zm60.846-260v-180h40v180h-40Zm113.846 0v-140h40v140h-40Zm-38.461 105.385Z"/></svg>