<svg xmlns="http://www.w3.org/2000/svg" height="20" viewBox="0 -960 960 960" width="20"><path d="M479.87-61.52q-86.218 0-162.436-32.544-76.218-32.543-133.522-89.848-57.305-57.304-89.848-133.653Q61.52-393.913 61.52-480.13q0-87.218 32.544-162.936 32.543-75.718 89.848-133.022 57.304-57.305 133.611-89.848Q393.83-898.48 480-898.48h44.479v341.218q20.391 10.696 32.717 31.435 12.327 20.74 12.327 45.789 0 37.244-26.173 63.402-26.172 26.159-63.435 26.159-37.263 0-63.35-26.159-26.088-26.158-26.088-63.402 0-25.049 12.327-45.506 12.326-20.457 32.717-31.718v-92.956q-57.565 13.696-94.782 61.392Q303.521-541.13 303.521-480q0 73.497 51.469 124.988 51.468 51.491 124.935 51.491 73.466 0 125.01-51.44 51.544-51.44 51.544-124.866 0-36.869-13.566-69.347-13.565-32.478-37.695-56.044l62.87-62.87q35.957 36.392 56.935 84.535Q746.001-535.409 746.001-480q0 110.834-77.564 188.418-77.564 77.583-188.371 77.583-110.806 0-188.437-77.583-77.63-77.584-77.63-188.418 0-99.669 63.304-172.074 63.305-72.405 158.218-88.797v-64.956q-120.956 16.826-203 108.188Q150.477-606.278 150.477-480q0 136.783 96.37 233.153T480-150.477q136.783 0 233.153-96.37t96.37-233.086q0-68.458-25.36-128.267t-70.728-105.235l62.871-62.871q57.087 57.522 89.63 133.379 32.544 75.856 32.544 163.194 0 86.081-32.544 162.299-32.543 76.218-89.848 133.522-57.304 57.305-133.153 89.848Q567.087-61.52 479.87-61.52Z"/></svg>