<svg xmlns="http://www.w3.org/2000/svg" height="20" viewBox="0 -960 960 960" width="20"><path d="M480.134-136q-70.673 0-133.41-26.839-62.737-26.84-109.865-73.922-47.127-47.082-73.993-109.757Q136-409.194 136-479.866q0-71.673 26.85-133.91 26.85-62.237 73.95-109.365 47.1-47.127 109.8-73.993Q409.3-824 480-824h16v316.615q9.308 4.385 12.654 11.861Q512-488.047 512-479.907q0 12.984-9.461 22.446Q493.077-448 480-448q-13.077 0-22.539-9.461Q448-466.923 448-479.816q0-8.077 3.346-15.246 3.346-7.169 12.654-12.323v-139.692Q399.308-642 355.654-593.692 312-545.385 312-480q0 70 49 119t119 49q70 0 119-49t49-119q0-35-13-65.5T599-599l22.539-22.539q27.384 27.616 42.923 63.824Q680-521.506 680-480q0 83.333-58.28 141.667Q563.439-280 480.181-280q-83.258 0-141.72-58.333Q280-396.667 280-480q0-79.462 53.5-135.462 53.5-56 130.5-62.077v-113.999q-123.923 6.307-209.962 95.73Q168-606.385 168-480q0 130 91 221t221 91q130 0 221-91t91-221q0-65-24-121.5T701-701l22.539-22.539q47.384 47.616 73.923 109.727Q824-551.701 824-480.23q0 70.769-26.839 133.506-26.84 62.737-73.922 109.865-47.082 47.127-109.257 73.993Q551.806-136 480.134-136Z"/></svg>