<svg xmlns="http://www.w3.org/2000/svg" height="24" viewBox="0 -960 960 960" width="24"><path d="M479.87-45.52q-90.218 0-169.436-34.044-79.218-34.043-138.022-92.848-58.805-58.804-92.848-138.153Q45.52-389.913 45.52-480.13q0-90.218 34.044-169.436 34.043-79.218 92.848-138.022 58.804-58.805 138.111-92.848Q389.83-914.48 480-914.48h48.479v350.218q21.391 12.696 35.217 34.435 13.827 21.74 13.827 49.789 0 40.244-28.673 68.902-28.672 28.659-68.935 28.659-40.263 0-68.85-28.659-28.588-28.658-28.588-68.902 0-28.049 13.827-50.006 13.826-21.957 35.217-34.218v-76.956q-52.565 15.696-86.282 59.892Q311.521-537.13 311.521-480q0 69.497 49.469 118.988 49.468 49.491 118.935 49.491 69.466 0 119.01-49.44 49.544-49.44 49.544-118.866 0-37.869-15.066-70.347-15.065-32.478-41.195-56.044l68.87-68.87q38.957 36.392 61.935 86.535Q746.001-538.409 746.001-480q0 110.834-77.564 188.418-77.564 77.583-188.371 77.583-110.806 0-188.437-77.583-77.63-77.584-77.63-188.418 0-98.669 61.804-171.574 61.805-72.905 155.718-90.297v-71.956q-122.956 17.826-206 111.688Q142.477-608.278 142.477-480q0 140.783 98.37 239.153T480-142.477q140.783 0 239.153-98.37t98.37-239.086q0-72.458-28.36-135.767t-77.728-109.735l68.871-68.871q62.087 59.522 98.13 140.379 36.044 80.856 36.044 174.194 0 90.081-34.044 169.299-34.043 79.218-92.848 138.022-58.804 58.805-138.153 92.848Q570.087-45.52 479.87-45.52Z"/></svg>