<svg xmlns="http://www.w3.org/2000/svg" height="24" viewBox="0 -960 960 960" width="24"><path d="M479.945-65.413q-86.054 0-161.684-32.576-75.631-32.576-131.663-88.609-56.033-56.032-88.61-131.718-32.575-75.686-32.575-161.739 0-86.054 32.576-161.684 32.576-75.631 88.609-131.663 56.032-56.033 131.7-88.609Q393.966-894.587 480-894.587h43.587v339.13q19.435 11.718 31.631 31.011 12.195 19.294 12.195 44.43 0 36.064-25.688 61.747-25.688 25.682-61.761 25.682-36.073 0-61.725-25.682-25.652-25.683-25.652-61.747 0-25.136 12.195-44.81 12.196-19.674 31.631-30.631v-82.173q-52.239 14.717-86.12 57.934-33.88 43.218-33.88 99.696 0 67.48 48.044 115.533 48.045 48.054 115.511 48.054 67.467 0 115.543-48.032 48.076-48.032 48.076-115.482 0-36.79-14.739-68.127-14.739-31.337-40.218-54.576l62.022-62.022q36.674 34.434 58.511 81.899Q731-535.288 731-480q0 104.583-73.2 177.792Q584.6-229 480.028-229q-104.572 0-177.8-73.208Q229-375.417 229-480q0-93.667 59.032-162.877 59.033-69.21 148.381-84.645v-77.174q-120.674 16.196-202.25 107.83Q152.587-605.233 152.587-480q0 136.87 95.272 232.141Q343.13-152.587 480-152.587t232.141-95.272q95.272-95.271 95.272-232.113 0-70.463-27.575-131.863-27.575-61.399-75.577-106.426l62.022-62.022q59.152 56.913 93.728 134.102 34.576 77.19 34.576 166.294 0 85.996-32.576 161.626-32.576 75.631-88.609 131.663-56.032 56.033-131.718 88.61-75.686 32.575-161.739 32.575Z"/></svg>