<svg xmlns="http://www.w3.org/2000/svg" height="24" viewBox="0 -960 960 960" width="24"><path d="M480.174-132Q408-132 344.442-159.391q-63.559-27.392-110.575-74.348-47.015-46.957-74.441-110.435Q132-407.652 132-479.826q0-72.174 27.405-135.732 27.405-63.559 74.385-110.574 46.98-47.016 110.49-74.442Q407.79-828 480-828h14v324q8 5 11 10.769t3 13.352q0 10.879-8.5 19.379Q491-452 480-452t-19.5-8.5q-8.5-8.5-8.5-19.261 0-7.5 3-13.369 3-5.87 11-10.87v-135q-62 5-104 50.5T320-480q0 66 47 113t113 47q66 0 113-47t47-113q0-36-14.5-66.5T586-600l20-20q29 26 45.5 62.021T668-480q0 78.333-54.765 133.167Q558.471-292 480.235-292 402-292 347-346.833 292-401.667 292-480q0-75 50.5-128.5T466-667v-133q-128 5-217 97.5T160-480q0 134 93 227t227 93q134 0 227-93t93-227q0-69-27-129t-74-104l20-20q51 48 80 112.895 29 64.894 29 139.806 0 72.299-27.391 135.857-27.392 63.559-74.348 110.575-46.957 47.015-110.435 74.441Q552.348-132 480.174-132Z"/></svg>