<svg xmlns="http://www.w3.org/2000/svg" height="24" viewBox="0 -960 960 960" width="24"><path d="m422-232 207-248H469l29-227-185 267h139l-30 208Zm-15.846-168H286.769q-16.308 0-23.577-14.192-7.269-14.192 2.115-27.269l225.155-326.155q6.153-8.615 15.23-11.423 9.077-2.808 19.154.885 10.077 3.692 14.616 12.154 4.538 8.461 3.308 18.538L514.616-520h143.461q16.77 0 23.808 15.307 7.039 15.308-3.808 28.385L427.538-176.153q-6.384 7.615-15.461 9.692t-17.923-1.846q-8.847-3.923-13.5-11.885-4.654-7.961-3.424-18.038L406.154-400ZM471-470Z"/></svg>