<svg xmlns="http://www.w3.org/2000/svg" height="24" viewBox="0 -960 960 960" width="24"><path d="M275.384-55.385v-379.999h-84.615q-33.6 0-56.8-23.188-23.2-23.187-23.2-56.769 0-33.582 23.2-56.813t56.8-23.231h84.615v-49.23h-84.615q-33.6 0-56.8-23.188-23.2-23.187-23.2-56.769 0-33.582 23.2-56.813t56.8-23.231h84.615v-99.999h40.001v99.999H400q33.6 0 56.8 23.188 23.2 23.187 23.2 56.769 0 33.582-23.2 56.813T400-644.615h-84.615v49.23H400q33.6 0 56.8 23.188Q480-549.01 480-515.428q0 33.582-23.2 56.813T400-435.384h-84.615v380h-40.001Zm329.231 0v-40h80v-326q-50.692-13.23-85.346-50.346-34.654-37.115-34.654-88.269v-344.615h280.001V-560q0 51.154-34.654 88.269-34.654 37.116-85.346 50.346v326h80v40H604.615ZM604.616-700h199.999v-164.615H604.616V-700Z"/></svg>