<svg xmlns="http://www.w3.org/2000/svg" height="24" viewBox="0 -960 960 960" width="24"><path d="M257.694-47.693v-370.001h-82.308q-37.8 0-63.9-26.093-26.1-26.094-26.1-63.884 0-37.791 26.1-63.906 26.1-26.115 63.9-26.115h82.308v-44.616h-82.308q-37.8 0-63.9-26.093-26.1-26.094-26.1-63.884 0-37.791 26.1-63.906 26.1-26.115 63.9-26.115h82.308v-90.001h59.998v90.001H400q37.8 0 63.899 26.093 26.1 26.094 26.1 63.884 0 37.791-26.1 63.906Q437.8-642.308 400-642.308h-82.308v44.616H400q37.8 0 63.899 26.093 26.1 26.094 26.1 63.884 0 37.791-26.1 63.906Q437.8-417.694 400-417.694h-82.308v370.001h-59.998Zm-82.308-429.999H400q12.231 0 21.116-8.885t8.885-21.116q0-12.231-8.885-21.116T400-537.694H175.386q-12.231 0-21.116 8.885t-8.885 21.116q0 12.231 8.885 21.116t21.116 8.885Zm0-224.614H400q12.231 0 21.116-8.885t8.885-21.116q0-12.231-8.885-21.116T400-762.308H175.386q-12.231 0-21.116 8.885t-8.885 21.116q0 12.231 8.885 21.116t21.116 8.885ZM602.308-47.693v-59.998h80v-306.002q-51.846-13.615-85.923-53.423-34.077-39.807-34.077-92.884v-352.307h299.998V-560q0 53.077-34.077 92.884-34.077 39.808-85.923 53.423v306.002h80v59.998H602.308Zm109.999-422.306q37.616 0 63.808-26.193 26.193-26.192 26.193-63.808v-90.001H622.306V-560q0 37.616 26.193 63.808 26.192 26.193 63.808 26.193Zm-90.001-240h180.002v-142.31H622.306v142.31ZM145.385-477.692V-537.694-477.692Zm0-224.614V-762.308-702.306Zm566.922 52.305Z"/></svg>