<svg xmlns="http://www.w3.org/2000/svg" height="24" viewBox="0 -960 960 960" width="24"><path d="M238.087-40v-350.195H160q-43.004 0-72.698-29.684-29.693-29.684-29.693-72.674 0-42.99 29.693-72.708 29.694-29.717 72.698-29.717h78.087v-40.957H160q-43.004 0-72.698-29.683-29.693-29.684-29.693-72.674 0-42.991 29.693-72.708 29.694-29.717 72.698-29.717h78.087V-920h83.826v79.283H400q43.004 0 72.698 29.683 29.693 29.684 29.693 72.674 0 42.99-29.693 72.708-29.694 29.717-72.698 29.717h-78.087v40.957H400q43.004 0 72.698 29.684 29.693 29.683 29.693 72.674 0 42.99-29.693 72.707-29.694 29.718-72.698 29.718h-78.087V-40h-83.826ZM160-470.195h240q9.196 0 15.794-6.598 6.597-6.598 6.597-15.794 0-9.195-6.597-15.793-6.598-6.598-15.794-6.598H160q-9.196 0-15.794 6.598-6.597 6.598-6.597 15.793 0 9.196 6.597 15.794 6.598 6.598 15.794 6.598Zm0-245.74h240q9.196 0 15.794-6.598 6.597-6.597 6.597-15.793 0-9.196-6.597-15.794-6.598-6.597-15.794-6.597H160q-9.196 0-15.794 6.597-6.597 6.598-6.597 15.794 0 9.196 6.597 15.793 6.598 6.598 15.794 6.598ZM598.087-40v-83.587h80v-280.978q-53.239-14.239-86.62-57.218-33.38-42.978-33.38-98.217v-360h323.826v360q0 55.239-33.38 98.217-33.381 42.979-86.62 57.218v280.978h80V-40H598.087Zm121.964-441.913q32.232 0 55.134-22.938T798.087-560v-76.413H641.913V-560q0 32.211 22.953 55.149 22.953 22.938 55.185 22.938ZM641.913-720h156.174v-116.413H641.913V-720ZM137.609-470.195v-44.783 44.783Zm0-245.74V-760.717v44.782ZM720-636.413Z"/></svg>