<svg xmlns="http://www.w3.org/2000/svg" height="20" viewBox="0 -960 960 960" width="20"><path d="M250.087-48v-326.195H168q-41.324 0-69.858-28.459-28.533-28.458-28.533-69.674 0-41.215 28.533-69.933 28.534-28.717 69.858-28.717h82.087v-48.957H168q-41.324 0-69.858-28.458-28.533-28.458-28.533-69.674 0-41.216 28.533-69.933 28.534-28.717 69.858-28.717h82.087V-888h75.826v71.283H408q41.324 0 69.858 28.458 28.533 28.458 28.533 69.674 0 41.215-28.533 69.933-28.534 28.717-69.858 28.717h-82.087v48.957H408q41.324 0 69.858 28.458 28.533 28.459 28.533 69.674 0 41.216-28.533 69.933-28.534 28.718-69.858 28.718h-82.087V-48h-75.826ZM166-447.195h244q10.196 0 16.794-7.498 6.597-7.498 6.597-17.894 0-10.395-6.597-17.893-6.598-7.498-16.794-7.498H166q-10.196 0-16.794 7.498-6.597 7.498-6.597 17.893 0 10.396 6.597 17.894 6.598 7.498 16.794 7.498Zm0-245.74h244q10.196 0 16.794-7.798 6.597-7.797 6.597-18.593 0-11.196-6.597-18.294-6.598-7.097-16.794-7.097H166q-10.196 0-16.794 7.097-6.597 7.098-6.597 18.294 0 11.196 6.597 18.793 6.598 7.598 16.794 7.598ZM598.087-48v-75.587h72v-275.258q-53.239-13.959-86.62-56.33-33.38-42.372-33.38-96.825v-336h315.826v336q0 54.525-33.38 96.951-33.381 42.427-86.62 56.484v274.978h72V-48H598.087Zm110.212-421.913q33.984 0 57.886-24.113T790.087-552v-68.413H625.913V-552q0 33.861 24.201 57.974t58.185 24.113ZM625.913-696h164.174v-116.413H625.913V-696ZM142.609-447.195V-497.978-447.195Zm0-245.74V-744.717v51.782ZM708-620.413Z"/></svg>