<svg xmlns="http://www.w3.org/2000/svg" height="20" viewBox="0 -960 960 960" width="20"><path d="M247.478-48v-312.825H168q-42.694 0-72.173-29.391-29.48-29.39-29.48-71.956t29.48-72.262Q125.306-564.13 168-564.13h79.478v-50.261H168q-42.694 0-72.173-29.391-29.48-29.39-29.48-71.956T95.828-788q29.479-29.696 72.173-29.696h79.478V-888h81.044v70.304H408q42.694 0 72.173 29.391t29.479 71.957q0 42.566-29.479 72.261-29.479 29.696-72.173 29.696h-79.478v50.261H408q42.694 0 72.173 29.391t29.479 71.957q0 42.566-29.479 72.261-29.479 29.696-72.173 29.696h-79.478V-48h-81.044ZM166-433.825h244q11.826 0 19.239-8.313t7.413-20.339q0-12.027-7.413-20.34T410-491.13H166q-11.826 0-19.239 8.313t-7.413 20.34q0 12.026 7.413 20.339 7.413 8.313 19.239 8.313Zm0-253.566h244q11.826 0 19.239-8.613t7.413-21.039q0-12.827-7.413-20.74-7.413-7.913-19.239-7.913H166q-11.826 0-19.239 7.913t-7.413 20.74q0 12.826 7.413 21.239T166-687.391ZM595.478-48v-80.479h72v-268.41q-53.565-14.285-86.783-57.308Q547.478-497.22 547.478-552v-336h321.044v336q0 54.851-33.217 97.93-33.218 43.078-86.783 57.461v268.13h72V-48H595.478Zm112.89-424.522q32.936 0 56.023-23.347 23.087-23.346 23.087-56.131v-63.521H628.522V-552q0 32.785 23.455 56.131 23.454 23.347 56.391 23.347ZM628.522-696h158.956v-111.521H628.522V-696ZM139.348-433.825V-491.13v57.305Zm0-253.566V-745.696-687.391ZM708-615.521Z"/></svg>