<svg xmlns="http://www.w3.org/2000/svg" height="24" viewBox="0 -960 960 960" width="24"><path d="M356-696v166q0 6.067 3.953 10.033 3.954 3.967 10 3.967Q376-516 380-519.967q4-3.966 4-10.033v-180q0-6.067-3.967-10.033Q376.067-724 370-724h-60q-6.067 0-10.033 3.953-3.967 3.954-3.967 10Q296-704 299.967-700q3.966 4 10.033 4h46Zm168 152v-62h92q11.9 0 19.95-8.05Q644-622.1 644-634v-62q0-11.9-8.05-19.95Q627.9-724 616-724H510q-6.067 0-10.033 3.953-3.967 3.954-3.967 10Q496-704 499.967-700q3.966 4 10.033 4h106v62h-92q-11.9 0-19.95 8.05Q496-617.9 496-606v76q0 6.067 3.967 10.033Q503.933-516 510-516h120q6.067 0 10.033-3.953 3.967-3.954 3.967-10Q644-536 640.033-540q-3.966-4-10.033-4H524ZM232-172q-26 0-43-17t-17-43v-496q0-26 17-43t43-17h496q26 0 43 17t17 43v496q0 26-17 43t-43 17H232Zm0-28h496q12 0 22-10t10-22v-496q0-12-10-22t-22-10H232q-12 0-22 10t-10 22v496q0 12 10 22t22 10Zm-32-560v560-560Zm84 344h72v106q0 6.067 3.953 10.033 3.954 3.967 10 3.967Q376-296 380-299.967q4-3.966 4-10.033v-106h72v166q0 6.067 3.953 10.033 3.954 3.967 10 3.967Q476-236 480-239.967q4-3.966 4-10.033v-170q0-11-6.5-17.5T460-444H280q-11 0-17.5 6.5T256-420v170q0 6.067 3.953 10.033 3.954 3.967 10 3.967Q276-236 280-239.967q4-3.966 4-10.033v-166Zm300 120h96q11 0 17.5-6.5T704-320v-100q0-11-6.5-17.5T680-444H570q-6.067 0-10.033 3.967Q556-436.067 556-430v180q0 6.067 3.953 10.033 3.954 3.967 10 3.967Q576-236 580-239.967q4-3.966 4-10.033v-46Zm0-28v-92h92v92h-92Z"/></svg>