<svg xmlns="http://www.w3.org/2000/svg" height="20" viewBox="0 -960 960 960" width="20"><path d="M384-96v-240l72-192h337l71 192v240h-72v-48H456v48h-72Zm95-288h291l-26-72H506l-27 72Zm36.789 156Q531-228 541.5-238.289q10.5-10.29 10.5-25.5Q552-279 541.711-289.5q-10.29-10.5-25.5-10.5Q501-300 490.5-289.711q-10.5 10.29-10.5 25.5Q480-249 490.289-238.5q10.29 10.5 25.5 10.5Zm216 0Q747-228 757.5-238.289q10.5-10.29 10.5-25.5Q768-279 757.711-289.5q-10.29-10.5-25.5-10.5Q717-300 706.5-289.711q-10.5 10.29-10.5 25.5Q696-249 706.289-238.5q10.29 10.5 25.5 10.5ZM240-408v-72h72v72h-72Zm168-192v-72h72v72h-72ZM240-264v-72h72v72h-72Zm0 144v-72h72v72h-72ZM96-96v-528h168v-192h360v216h-72v-144H336v192H168v456H96Z"/></svg>