<svg xmlns="http://www.w3.org/2000/svg" height="20" viewBox="0 -960 960 960" width="20"><path d="M386.308-123.694v-232.307l68.686-182h319.158l67.539 182v232.307h-51.999v-51.847H438.306v51.847h-51.998Zm79.614-273.384h297.154l-29.077-81.231h-238l-30.077 81.231Zm-19.923 59.692v102.154-102.154Zm61.328 83.23q14.23 0 24.066-9.626 9.837-9.626 9.837-23.855 0-14.23-9.626-24.067-9.626-9.836-23.856-9.836-14.229 0-24.066 9.626-9.836 9.626-9.836 23.856 0 14.229 9.626 24.066 9.626 9.836 23.855 9.836Zm212.923 0q14.23 0 24.066-9.626 9.837-9.626 9.837-23.855 0-14.23-9.626-24.067-9.626-9.836-23.856-9.836-14.229 0-24.066 9.626-9.836 9.626-9.836 23.856 0 14.229 9.626 24.066 9.625 9.836 23.855 9.836ZM246.924-435.694v-62.769h62.768v62.769h-62.768Zm147.998-171.999v-62.768h62.769v62.768h-62.769ZM246.924-291.694v-62.769h62.768v62.769h-62.768Zm0 144v-62.769h62.768v62.769h-62.768Zm-128.615 24v-503.383h147.999v-171.999h319.997v184.46h-51.999v-132.461h-216v171.998H170.308v451.385h-51.999Zm327.69-111.538h336v-102.154h-336v102.154Z"/></svg>