<svg xmlns="http://www.w3.org/2000/svg" height="24" viewBox="0 -960 960 960" width="24"><path d="M406-152v-234l56.386-160H766l56 160v234h-28v-70H434v70h-28Zm40-262h336l-36-104H482l-36 104Zm52 126q14.45 0 24.225-9.775Q532-307.55 532-322q0-14.45-9.775-24.225Q512.45-356 498-356q-14.45 0-24.225 9.775Q464-336.45 464-322q0 14.45 9.775 24.225Q483.55-288 498-288Zm232 0q14.45 0 24.225-9.775Q764-307.55 764-322q0-14.45-9.775-24.225Q744.45-356 730-356q-14.45 0-24.225 9.775Q696-336.45 696-322q0 14.45 9.775 24.225Q715.55-288 730-288ZM258-472v-56h56v56h-56Zm148-188v-56h56v56h-56ZM258-312v-56h56v56h-56Zm0 160v-56h56v56h-56Zm-120 0v-496h148v-188h296v198h-28v-170H314v188H166v468h-28Z"/></svg>