<svg xmlns="http://www.w3.org/2000/svg" height="24" viewBox="0 -960 960 960" width="24"><path d="M402.308-107.694v-246.307l61.686-176h332.158l61.539 176v246.307h-59.999v-63.847H462.306v63.847h-59.998Zm64.614-285.384h326.154l-31.077-89.231h-264l-31.077 89.231Zm44.616 146.922q16.019 0 26.855-10.836 10.837-10.837 10.837-26.856 0-16.019-10.837-26.856-10.836-10.836-26.855-10.836t-26.856 10.836q-10.836 10.837-10.836 26.856 0 16.019 10.836 26.856 10.837 10.836 26.856 10.836Zm236.923 0q16.019 0 26.855-10.836 10.837-10.837 10.837-26.856 0-16.019-10.837-26.856-10.836-10.836-26.855-10.836t-26.856 10.836q-10.836 10.837-10.836 26.856 0 16.019 10.836 26.856 10.837 10.836 26.856 10.836ZM246.924-427.694v-70.769h70.768v70.769h-70.768Zm179.998-219.999v-70.768h70.769v70.768h-70.769ZM246.924-267.694v-70.769h70.768v70.769h-70.768Zm0 160v-70.769h70.768v70.769h-70.768Zm-144.615 0v-535.383h179.999v-219.999h359.997v248.46h-59.999v-188.461h-240v219.998H162.308v475.385h-59.999Z"/></svg>