<svg xmlns="http://www.w3.org/2000/svg" height="24" viewBox="0 -960 960 960" width="24"><path d="M393.543-69v-262.37l67.153-192.217h360.487l66.948 192.166V-69H797.13v-61.195H484.544V-69h-91.001Zm87.414-307.413h320l-28-80h-264l-28 80Zm-20 60v120-120Zm60 100q17 0 28.5-11.5t11.5-28.5q0-17-11.5-28.5t-28.5-11.5q-17 0-28.5 11.5t-11.5 28.5q0 17 11.5 28.5t28.5 11.5Zm240 0q17 0 28.5-11.5t11.5-28.5q0-17-11.5-28.5t-28.5-11.5q-17 0-28.5 11.5t-11.5 28.5q0 17 11.5 28.5t28.5 11.5ZM239.043-394.5v-83.587h83.827v83.587h-83.827Zm200-240v-83.587h83.587v83.587h-83.587Zm-200 400v-83.587h83.827v83.587h-83.827Zm0 160v-83.587h83.827V-74.5h-83.827Zm-167.174 0v-571h200v-240h418.175v291h-91.001v-200H362.87v240h-200v480h-91Zm389.088-121.913h360v-120h-360v120Z"/></svg>