<svg xmlns="http://www.w3.org/2000/svg" height="24" viewBox="0 -960 960 960" width="24"><path d="M198.172 1.828q-83 0-141.5-58.5t-58.5-141.5q0-15.449 10.064-25.551 10.064-10.101 25.457-10.101 15.392 0 25.588 10.101 10.196 10.102 10.196 25.551 0 53.317 37.689 91.006 37.689 37.69 91.006 37.69 15.449 0 25.551 10.064 10.101 10.064 10.101 25.456 0 15.393-10.101 25.589-10.102 10.195-25.551 10.195Zm759.44-755.699q-15.392 0-25.588-10.101-10.196-10.102-10.196-25.551 0-45.913-31.891-77.804-31.891-31.891-77.804-31.891-15.449 0-25.551-10.065-10.101-10.064-10.101-25.456 0-15.393 10.101-25.589 10.102-10.195 25.551-10.195 75 0 128 53t53 128q0 15.449-10.064 25.551-10.064 10.101-25.457 10.101ZM402-21.347q-31.696 0-59.674-14.348-27.978-14.348-45.544-41.043L64.174-435.74q-8-13.131-6.152-27.978Q59.87-478.565 72-488.565q21.826-19 50.37-22.283 28.543-3.282 57.457 16.239l92.825 63.478V-810.74q0-19.826 13.761-33.587 13.761-13.761 33.587-13.761 19.826 0 33.587 13.761 13.761 13.761 13.761 33.587v338.088h69.261v-422.61q0-19.826 13.761-33.587 13.76-13.761 33.587-13.761 19.826 0 33.587 13.761 13.761 13.761 13.761 33.587v422.61h69.26V-851.87q0-19.826 13.761-33.587 13.761-13.761 33.587-13.761 19.827 0 33.588 13.761t13.761 33.587v379.218h69.26V-771.87q0-19.826 13.761-33.587 13.761-13.761 33.587-13.761 19.826 0 33.587 13.761 13.761 13.761 13.761 33.587v583.175q0 69.391-48.978 118.37-48.978 48.978-118.37 48.978H402Z"/></svg>