<svg xmlns="http://www.w3.org/2000/svg" height="24" viewBox="0 -960 960 960" width="24"><path d="M243-104q-57.685 0-98.342-40.658Q104-185.315 104-243q0-6.067 3.953-10.033 3.954-3.967 10-3.967Q124-257 128-253.033q4 3.966 4 10.033 0 45.986 32.507 78.493T243-132q6.067 0 10.033 3.953 3.967 3.954 3.967 10Q257-112 253.033-108q-3.966 4-10.033 4Zm620.047-609Q857-713 853-716.967q-4-3.966-4-10.033 0-42-29.5-71.5T748-828q-6.067 0-10.033-3.953-3.967-3.954-3.967-10Q734-848 737.967-852q3.966-4 10.033-4 54 0 91.5 37.5T877-727q0 6.067-3.953 10.033-3.954 3.967-10 3.967ZM447-118q-23.415 0-43.707-10.5Q383-139 369-159L130-509q-2-2-1.5-4.5t2.5-4.5q11-11 26-11.5t28 8.5l147 102v-326q0-5.95 4.035-9.975 4.035-4.025 10-4.025t9.965 4.025q4 4.025 4 9.975v323q0 17.872-16 26.436T313-398l-138-96 217 319q9 14 23.5 21.5T447-146h207q45 0 75.5-30.5T760-252v-482q0-5.95 4.035-9.975 4.035-4.025 10-4.025t9.965 4.025q4 4.025 4 9.975v482q0 56-39 95t-95 39H447Zm42.035-721q5.965 0 9.965 4.025t4 9.975v305q0 5.95-4.035 9.975-4.035 4.025-10 4.025T479-510.025q-4-4.025-4-9.975v-305q0-5.95 4.035-9.975 4.035-4.025 10-4.025Zm143 40q5.965 0 9.965 4.025t4 9.975v265q0 5.95-4.035 9.975-4.035 4.025-10 4.025T622-510.025q-4-4.025-4-9.975v-265q0-5.95 4.035-9.975 4.035-4.025 10-4.025ZM468-326Z"/></svg>