<svg xmlns="http://www.w3.org/2000/svg" height="20" viewBox="0 -960 960 960" width="20"><path d="M230-112q-48.685-1-82.842-35.158Q113-181.315 112-230q0-3.9 2.253-6.45 2.254-2.55 5.7-2.55 3.447 0 5.747 2.967 2.3 2.966 2.3 6.033 0 42.986 29.871 72.493Q187.743-128 230-128q3.9 0 6.45 2.253 2.55 2.254 2.55 5.7 0 3.447-2.55 5.747T230-112Zm611.047-591q-3.447 0-5.747-2.267-2.3-2.266-2.3-5.733 0-42-29.5-71.5T732-812q-3.467 0-5.733-2.253-2.267-2.254-2.267-5.7 0-3.447 2.267-5.747 2.266-2.3 5.733-2.3 49.028 0 83.014 33.986T849-711q0 3.467-2.253 5.733-2.254 2.267-5.7 2.267ZM457-126q-15.366 0-28.683-6T404-150L131.148-479.704Q128-481 128.423-483.5q.423-2.5 1.577-4.5l4-4q9-9 22.5-10t26.5 6l157 95v-324q0-4.25 2.825-7.125 2.824-2.875 7-2.875 4.175 0 7.175 2.875t3 7.125v219h115v-315q0-4.25 2.825-7.125 2.824-2.875 7-2.875 4.175 0 7.175 2.875t3 7.125v315h115v-267q0-4.25 2.825-7.125 2.824-2.875 7-2.875 4.175 0 7.175 2.875t3 7.125v267h114v-200q0-4.25 2.825-7.125 2.824-2.875 7-2.875 4.175 0 7.175 2.875t3 7.125v462q0 50-34 84t-84 34H457Z"/></svg>