<svg xmlns="http://www.w3.org/2000/svg" height="24" viewBox="0 -960 960 960" width="24"><path d="M166 34Q83 34 24.5-24.5T-34-166q0-17.333 11.267-28.667Q-11.465-206 5.767-206 23-206 34.5-194.667 46-183.333 46-166q0 49.714 35.143 84.857T166-46q17.333 0 28.667 11.267Q206-23.465 206-6.233 206 11 194.667 22.5 183.333 34 166 34Zm828.233-807Q977-773 965.5-784.333 954-795.667 954-813q0-42-29.5-71.5T853-914q-17.333 0-28.667-11.267Q813-936.535 813-953.767 813-971 824.333-982.5 835.667-994 853-994q75 0 128 53t53 128q0 17.333-11.27 28.667Q1011.47-773 994.233-773ZM402-7q-33 0-62.5-15T292-65L62-434q-8-14-5.5-29.5T72-489q24-19 54.5-22.5T192-492l75 50v-377q0-22 15.5-37.5T320-872q22 0 37.5 15.5T373-819v352h61v-440q0-22 15.5-37.5T487-960q22 0 37.5 15.5T540-907v440h61v-394q0-22 15.5-37.5T654-914q22 0 37.5 15.5T707-861v394h61v-314q0-22 15.5-37.5T821-834q22 0 37.5 15.5T874-781v601q0 72-50.5 122.5T701-7H402Z"/></svg>