<svg xmlns="http://www.w3.org/2000/svg" height="20" viewBox="0 -960 960 960" width="20"><path d="M478.462-187.846q-4.154 0-9.577-.846-5.424-.846-9.347-3.308-45.077-30.769-93.269-47.384Q318.077-256 264-256q-29.231 0-55.846 1.731Q181.538-252.538 155-246q-21.769 8.693-44.385-7.846Q88-270.384 88-295.153v-406.078Q88-722.077 99.192-735q11.192-12.923 24.5-17.923 34.231-11.539 68.808-17.308Q227.077-776 264-776q58.769 0 111.885 15.577Q429-744.846 480-715.846v484.769q54.231-32 108.115-44.461Q642-288 696-288q31.923 0 59.731 2.692 27.808 2.693 61.192 13.616 8.462 2.307 15.769.384Q840-273.231 840-284v-466.462q2.769.154 3.539.193.769.038 3.538.423 9.462 5 17.192 16.23Q872-722.385 872-707.385v410.693q0 26.769-22.769 40.923-22.769 14.154-48.846 8.231-25.769-4.769-51.731-6.616Q722.692-256 696-256q-54.846 0-105.077 16.616-50.231 16.615-96.308 47.384-3.923 2.462-7.961 3.308-4.039.846-8.192.846Zm98.923-170.539q-7.462 6.462-16.423 3.616Q552-357.615 552-369.077v-279.692Q552-663 558-677q6-14 16.231-23.231l167.154-149.154q7.461-6.461 17.038-2.846T768-837.923v279.461q0 14.231-5.615 27.847-5.616 13.615-15.847 22.846L577.385-358.385ZM448-251.077v-437.154q-43.231-29.231-91.846-42.5Q307.538-744 260-744q-39 0-70.038 8.115-31.039 8.116-55.347 18.27-6.154 2.307-10.384 6.538Q120-706.846 120-700.692v413.461q0 10.77 7.308 12.693 7.307 1.923 15.769-1.154 24.231-6.385 51.077-9.346Q221-288 260-288q54.692 0 105.384 11.038 50.693 11.039 82.616 25.885Zm0 0v-437.154 437.154Z"/></svg>