<svg xmlns="http://www.w3.org/2000/svg" height="24" viewBox="0 -960 960 960" width="24"><path d="M480-305.652q-17 0-28.5-11.56-11.5-11.559-11.5-28.646v-140.719q0-17.088 11.5-28.647 11.5-11.559 28.5-11.559t28.5 11.559q11.5 11.559 11.5 28.647v140.719q0 17.087-11.5 28.646-11.5 11.56-28.5 11.56Zm0-280.782q-17 0-28.5-11.5t-11.5-28.5q0-17 11.5-28.5t28.5-11.5q17 0 28.5 11.5t11.5 28.5q0 17-11.5 28.5t-28.5 11.5ZM288.479-22.477q-44.305 0-75.153-30.849-30.849-30.848-30.849-75.153v-703.042q0-44.305 30.849-75.153 30.848-30.849 75.153-30.849h383.042q44.305 0 75.153 30.849 30.849 30.848 30.849 75.153v703.042q0 44.305-30.849 75.153-30.848 30.849-75.153 30.849H288.479Zm0-226.002h383.042v-463.042H288.479v463.042Z"/></svg>