<svg xmlns="http://www.w3.org/2000/svg" height="20" viewBox="0 -960 960 960" width="20"><path d="M480-62.477q-37.391 0-63.435-26.56-26.044-26.558-26.044-63.276 0-22.339 10.443-40.904 10.442-18.565 28.557-31.261v-75.999H324q-41.998 0-71.76-29.763-29.763-29.762-29.763-71.76v-82.913q-18-13.261-29-31.69-11-18.429-11-41.098 0-20.125 8.696-38.169 8.696-18.043 21.957-30.174L63.52-775.653q-13.695-13.696-13.413-31.609.283-17.913 14.414-32.044 13.13-13.13 31.326-13.13 18.196 0 32.326 13.13l711.133 711.133q13.695 13.696 13.63 31.609-.065 17.913-14.196 32.043-13.551 13.13-32.326 13.13t-32.326-13.13L537.696-300.477h-7.217v74.868q18 13.261 28.5 32.392 10.5 19.13 10.5 40.696 0 37.391-26.044 63.717Q517.391-62.477 480-62.477ZM730.768-366.13 619.477-477.306v-18.217h-7.956q-5.408 0-9.465-3.773Q598-503.07 598-508.479v-111.217q0-12.191 8.296-20.487 8.295-8.296 20.487-8.296h121.391q12.192 0 20.77 8.296 8.579 8.296 8.579 20.487v121.392q0 12.191-8.579 20.487-8.578 8.296-20.77 8.296h-9.651v67.965q0 8.991-1.818 18.208-1.817 9.218-5.937 17.218ZM324-402h105.521v-7.218L340-499.174q-4 3-7.5 6.565-3.5 3.566-8.5 7.005V-402Zm206.479-165.305L429.521-668.828V-716H401q-14.63-6.218-22.294-17.401-7.663-11.183-8.707-23.817l86.418-115.678q8.192-10.757 23.583-11.04 15.391-.282 23.583 11.04l82.461 110.591q10.261 14.329 2.315 30.317T562.391-716h-31.912v148.695Z"/></svg>