<svg xmlns="http://www.w3.org/2000/svg" height="24" viewBox="0 -960 960 960" width="24"><path d="M480-49q-39 0-67-28.5T385-145q0-23 10.5-42t29.5-33v-69H320q-46 0-78.5-32.5T209-400v-83q-18-13-29-33t-11-44q0-23 10-42.5t27-32.5L45-796q-14-14-13.5-33T46-862q14-14 33.5-14t33.5 14l750 750q14 14 13.5 33T862-46q-14 14-33.5 14T795-46L552-289h-17v67q19 14 29.5 34t10.5 43q0 39-28 67.5T480-49Zm265-316L609-500v-11h-4q-2 0-3.5-1t-1.5-3v-108q0-14 9-23t23-9h126q14 0 23.5 9t9.5 23v126q0 14-9.5 23t-23.5 9h-7v65q0 9-1.5 18t-4.5 17Zm-425-35h105v-17l-86-85q-4 5-9 9.5t-10 8.5v84Zm215-174L425-685v-35h-25q-14-11-22.5-20.5T361-763l93-124q10-13 26-13.5t26 13.5l86 115q12 16 3 34t-29 18h-31v146Z"/></svg>