<svg xmlns="http://www.w3.org/2000/svg" height="20" viewBox="0 -960 960 960" width="20"><path d="M320.37-320.37h474.26v-144H683.935q-19.239 32.239-52.617 52.12-33.378 19.88-74.288 19.88-40.136 0-73.67-19.88-33.534-19.881-52.295-52.12H320.37v144Zm236.709-147.826q29.943 0 50.943-21.269 21-21.27 21.478-50.731h165.13V-794.63H320.37v254.434H485.5q.478 29.761 21.364 50.881 20.886 21.119 50.215 21.119ZM237.37-237.37v-640.261h640.261v640.261H237.37Zm-155 155v-640.26h83v557.26h557.26v83H82.37Zm238-238h474.26-474.26Z"/></svg>