<svg xmlns="http://www.w3.org/2000/svg" height="20" viewBox="0 -960 960 960" width="20"><path d="M301.999-312h480v-151.693H658.537q-15.153 32.385-46.423 52.192-31.269 19.808-70.585 19.808-38.76 0-70.03-19.808-31.269-19.807-46.038-52.192H301.999V-312Zm239.579-131.691q31.575 0 54.498-20.766Q619-485.222 619-515.691h162.999V-792h-480v276.309h163q0 30.769 22.757 51.384 22.757 20.616 53.822 20.616Zm-291.577 183.69v-583.998h583.997v583.998H250.001ZM126.002-136.003v-571.688h51.999v519.69h519.69v51.998H126.002ZM301.999-312h480-480Z"/></svg>