<svg xmlns="http://www.w3.org/2000/svg" height="20" viewBox="0 -960 960 960" width="20"><path d="M534.87-553.696 322.694-765.608q11.827-6.09 28.247-9.351 16.42-3.261 34.878-3.261 68.355 0 115.725 47.369 47.37 47.37 47.37 115.849 0 17.812-4.326 34.211-4.326 16.399-9.718 27.095ZM78.477-223.913v-13.217q0-31.088 15.61-57.392 15.608-26.305 42.13-41.566 55-32 120.239-49.848 65.24-17.848 129.24-17.848 17.521 0 37.499 1.37 19.978 1.369 38.195 5.804l-56.782-57.913q-5.043.87-9.876 1.805-4.833.934-9.725.934-68.355 0-114.877-47.369-46.522-47.37-47.653-112.899 0-4.892-.065-10.008-.065-5.115 2.804-10.158L118.391-737.913q-12.695-12.696-12.195-28.891.5-16.196 13.195-28.892 11.798-12.13 28.443-12.13 16.645 0 29.34 12.13L799.652-176.74q12.696 12.696 12.414 28.674-.283 15.979-12.979 28.675-12.696 11.565-28.891 11.847-16.196.283-28.326-11.847l-85.174-83.043h36.218q0 32.261-22.292 54.391-22.293 22.131-54.27 22.131H176.195q-41.021 0-69.369-28.498-28.349-28.499-28.349-69.503Zm98.002 0h418.434v-10.957q0-3.173-2.718-9.804-2.717-6.63-8.282-8.5-46.435-28-97.304-40.304-50.87-12.304-100.913-12.304-50.044 0-100.63 12.587-50.587 12.586-97.587 40.021-4.385 1.811-7.693 6.822-3.307 5.012-3.307 11.482v10.957Zm209.217 0Zm495.827-392.22q0 57.536-20.5 109.247-20.5 51.71-57.621 92.51-11.01 12.331-26.923 10.548-15.913-1.783-25.913-14.348-10.565-12.565-9.631-27.913.935-15.348 11.5-27.913 24.197-29.279 38.381-65.492 14.185-36.213 14.185-76.639 0-38-12.935-73.434-12.935-35.435-37.37-64.114-10-11.886-10.934-28.234-.935-16.348 9.63-27.348 10.565-11 25.631-12.5 15.065-1.5 26.075 10.615 36.555 40.015 56.49 89.951 19.935 49.936 19.935 105.064Zm-151.914.977q0 22.589-6.435 44.023-6.434 21.435-19.524 39.62-8.345 11.815-23.128 9.75-14.782-2.065-24.634-14.038-9.714-11.158-9.714-26.006 0-14.847 5.435-29.978 1.87-5.869 2.239-11.366.37-5.497.37-11.851 0-4.174-.152-8.695-.153-4.522-1.457-8.261-5.435-15.131-5.369-31.544.065-16.413 9.778-28.052 9.852-12.491 25.2-13.774 15.348-1.283 23.693 10.723 11.959 16.994 17.829 37.492 5.869 20.498 5.869 41.957Z"/></svg>