<svg xmlns="http://www.w3.org/2000/svg" height="20" viewBox="0 -960 960 960" width="20"><path d="M538.035-432Q544-432 549-437.025T554-448v-100h100q5.95 0 10.975-5.035 5.025-5.035 5.025-11T664.975-575q-5.025-5-10.975-5H554v-100q0-5.95-5.035-10.975-5.035-5.025-11-5.025T527-690.975q-5 5.025-5 10.975v100H422q-5.95 0-10.975 5.035-5.025 5.035-5.025 11T411.025-553q5.025 5 10.975 5h100v100q0 5.95 5.035 10.975 5.035 5.025 11 5.025ZM338-300q-27.65 0-45.825-18.175Q274-336.35 274-364v-400q0-27.65 18.175-45.825Q310.35-828 338-828h400q27.65 0 45.825 18.175Q802-791.65 802-764v400q0 27.65-18.175 45.825Q765.65-300 738-300H338ZM222-184q-27.65 0-45.825-18.175Q158-220.35 158-248v-416.443q0-5.507 5.035-10.532t11-5.025Q180-680 185-674.975t5 10.532V-248q0 14 9 23t23 9h416.443q5.507 0 10.532 5.035t5.025 11Q654-194 648.975-189t-10.532 5H222Z"/></svg>