<svg xmlns="http://www.w3.org/2000/svg" height="20" viewBox="0 -960 960 960" width="20"><path d="M447.196-164q-117.732 0-200.464-82.675Q164-329.349 164-447q0-110.615 74.654-191.808Q313.308-720 423.442-728.462q.866 0 2.02-.384 1.154-.385 2.307.615-21.076 29.692-29.923 62.402Q389-633.119 389-599q0 103.461 72.153 175.731Q533.306-351 636.602-351q20.937 0 40.244-4.039 19.308-4.038 39.923-10.115-27.23 90.231-101.346 145.692Q541.308-164 447.196-164Zm131.265-374 106.154-316h44.77l106.154 316h-34.933l-25.42-75H638.539l-24.577 75h-35.501Zm70.154-105h116.77L707-822.307 648.615-643Z"/></svg>