<svg xmlns="http://www.w3.org/2000/svg" height="20" viewBox="0 -960 960 960" width="20"><path d="M447-190q70.644 0 130.322-37.5T675-326q-124 6-218-72.998Q363-477.997 363-599q0-24.684 4.5-49.342Q372-673 379-698q-83.919 27.111-136.46 95.056Q190-535 190-447q0 107.833 74.583 182.417Q339.167-190 447-190Zm.196 20q-114.963 0-196.08-81.059Q170-332.119 170-447q0-106 70.5-185t175.788-90q-.288 0-.288-.5v.5q-19 29-26 60.094-7 31.095-7 62.906 0 105.833 73.967 179.917Q530.934-345 636.602-345q18.72 0 35.559-3T708-355q-30 84-101 134.5T447.196-170ZM587-541l102-310h36l102 310h-24.086l-25.19-75H636l-24.115 75H587Zm57-99h126l-63-192-63 192ZM451-399Z"/></svg>