<svg xmlns="http://www.w3.org/2000/svg" height="20" viewBox="0 -960 960 960" width="20"><path d="M447-207q44.521 0 84.76-16Q572-239 605-269q-129-18-214.5-117.498Q305-485.997 305-617q0-5.474.5-10.737T307-640q-47.919 34.111-73.96 84.556Q207-505 207-447q0 100.75 69.625 170.375T447-207Zm.196 118q-148.963 0-253.58-104.559Q89-298.119 89-447q0-148 105-253t253.288-105q14.379 0 29.045 1Q491-803 505-797q-37 38-59.5 83.843Q423-667.315 423-617q0 98.75 69.009 167.875T659.602-380q38.354 0 73.876-9Q769-398 804-415q-25 136-122.5 231T447.196-89ZM535-517l124-359h97l123 359h-94.086l-26.19-75H655l-26.115 75H535Zm144-148h56l-28-87-28 87ZM391-386Z"/></svg>