<svg xmlns="http://www.w3.org/2000/svg" height="24" viewBox="0 -960 960 960" width="24"><path d="M440-174q71 0 131-36.5t99-96.5q-131 3-227.5-81T346-600q0-24 4-48t11-47q-83 28-135 97.5T174-440q0 110.833 77.583 188.417Q329.167-174 440-174Zm0 28q-122 0-208-86t-86-208q0-114 75-197.5T409-732q-20 29-27.5 63t-7.5 69q0 110.833 77.583 188.417Q529.167-334 640-334q20.322 0 39.661-3Q699-340 718-346q-30 91-106.5 145.5T440-146Zm149-387 110-334h42l110 334h-29l-27-80H645l-26 80h-30Zm65-108h132l-66-201-66 201ZM437-388Z"/></svg>