<svg xmlns="http://www.w3.org/2000/svg" height="24" viewBox="0 -960 960 960" width="24"><path d="M440-180q66.615 0 123.615-32.923T658.461-301q-130.307.462-224.384-85.269Q340-472 340-600q0-21.461 3.308-42.808 3.307-21.346 9.153-41.807-77 28.923-124.73 95.308Q180-522.923 180-440q0 108.333 75.833 184.167Q331.667-180 440-180Zm0 40q-124.769 0-212.385-87.615Q140-315.231 140-440q0-118.615 79.154-204.308 79.154-85.692 197-94.154 1.154 0 2.308.116 1.154.115 2.307.115-22.076 29.692-31.423 65.308Q380-637.308 380-600q0 108.333 75.833 184.167Q531.667-340 640-340q22.786 0 44.47-4.039 21.684-4.038 42.299-12.115-27.23 97.231-106.846 156.692Q540.308-140 440-140Zm140.461-390 114.154-340h50.77l114.154 340h-39.847l-27.231-80H647.539l-26.462 80h-40.616Zm78.154-114h122.77L720-832.307 658.615-644ZM430.077-386.385Z"/></svg>