<svg xmlns="http://www.w3.org/2000/svg" height="24" viewBox="0 -960 960 960" width="24"><path d="M440-197.848q50.297 0 95.757-19.565 45.46-19.565 79.46-56.174-129.913-11.109-216.391-105.717-86.478-94.609-86.478-225 0-11.037.761-21.649.76-10.612 2.521-20.938-54.608 32.717-86.195 87.761-31.587 55.043-31.587 119.13 0 100.897 70.628 171.524Q339.103-197.848 440-197.848Zm0 91q-139.261 0-236.207-96.945Q106.848-300.739 106.848-440t96.945-236.207Q300.739-773.152 440-773.152q7.312 0 14.623.739 7.312.739 14.464 1.934-31.152 33.435-48.446 76.288-17.293 42.853-17.293 89.887 0 100.896 70.628 171.524 70.627 70.628 171.524 70.628 33.142 0 64.68-7.859 31.538-7.859 59.69-23.815-19.674 123.978-112.783 205.478-93.109 81.5-217.087 81.5ZM548.413-517.37l128.957-365.5h85.5l128.717 365.5h-81.5l-28-80H657.913l-28 80h-81.5Zm129.174-139.5h84.826L720-790.913 677.587-656.87ZM399.826-379.565Z"/></svg>