<svg xmlns="http://www.w3.org/2000/svg" height="24" viewBox="0 -960 960 960" width="24"><path d="M115.478-390v-180q0-14.96 9.781-24.741 9.781-9.781 24.741-9.781 14.96 0 24.741 9.781 9.781 9.781 9.781 24.741v45.478h70.956V-570q0-14.96 9.781-24.741 9.781-9.781 24.741-9.781 14.96 0 24.741 9.781 9.781 9.781 9.781 24.741v180q0 14.96-9.781 24.741-9.781 9.781-24.741 9.781-14.96 0-24.741-9.781-9.781-9.781-9.781-24.741v-65.478h-70.956V-390q0 14.96-9.781 24.741-9.781 9.781-24.741 9.781-14.96 0-24.741-9.781-9.781-9.781-9.781-24.741Zm280-5.087V-570q0-14.96 9.781-24.741 9.781-9.781 24.741-9.781 14.96 0 24.741 9.781 9.781 9.781 9.781 24.741v145.478H530q14.96 0 24.741 9.781 9.781 9.781 9.781 24.741 0 14.96-9.781 24.741-9.781 9.781-24.741 9.781h-94.913q-17.164 0-28.386-11.223-11.223-11.222-11.223-28.386ZM660-355.478q-18.922 0-31.722-12.8T615.478-400v-24.522q0-6.191 4.643-10.835Q624.765-440 630.956-440h38.088q6.191 0 10.835 4.643 4.643 4.644 4.643 10.835h70.956V-460H660q-18.922 0-31.722-12.8t-12.8-31.722V-560q0-18.922 12.8-31.722t31.722-12.8h120q18.922 0 31.722 12.8t12.8 31.722v24.522q0 6.191-4.643 10.835Q815.235-520 809.044-520h-38.088q-6.191 0-10.835-4.643-4.643-4.644-4.643-10.835h-70.956V-500H780q18.922 0 31.722 12.8t12.8 31.722V-400q0 18.922-12.8 31.722T780-355.478H660Z"/></svg>