<svg xmlns="http://www.w3.org/2000/svg" height="24" viewBox="0 -960 960 960" width="24"><path d="M276-186v-388h70v-122q0-24.75 17.625-42.375T406-756h228q24.75 0 42.375 17.625T694-696v122h66q39.167 0 66.583 27.417Q854-519.167 854-480v234q0 24.75-17.625 42.375T794-186H276Zm-98.873 40Q207-146 227.5-166.59 248-187.18 248-217v-326q0-29.82-20.627-50.41-20.627-20.59-50.5-20.59T126.5-593.41Q106-572.82 106-543v326q0 29.82 20.627 50.41 20.627 20.59 50.5 20.59ZM374-574h292v-122q0-14-9-23t-23-9H406q-14 0-23 9t-9 23v122Zm236 174q17 0 28.5-11.5T650-440q0-17-11.5-28.5T610-480q-17 0-28.5 11.5T570-440q0 17 11.5 28.5T610-400Zm120 0q17 0 28.5-11.5T770-440q0-17-11.5-28.5T730-480q-17 0-28.5 11.5T690-440q0 17 11.5 28.5T730-400ZM610-280q17 0 28.5-11.5T650-320q0-17-11.5-28.5T610-360q-17 0-28.5 11.5T570-320q0 17 11.5 28.5T610-280Zm120 0q17 0 28.5-11.5T770-320q0-17-11.5-28.5T730-360q-17 0-28.5 11.5T690-320q0 17 11.5 28.5T730-280Zm-330 0h100q12.75 0 21.375-8.625T530-310v-140q0-12.75-8.625-21.375T500-480H400q-12.75 0-21.375 8.625T370-450v140q0 12.75 8.625 21.375T400-280Z"/></svg>