<svg xmlns="http://www.w3.org/2000/svg" height="20" viewBox="0 -960 960 960" width="20"><path d="M336-240v-504q0-29.7 21.15-50.85Q378.3-816 408-816h220.659Q659-816 680-794.85T701-744v96h67q40 0 68 28t28 68v240q0 29.7-21.15 50.85Q821.7-240 792-240H336Zm-144.225 48Q232-192 260-219.84q28-27.84 28-68.16v-312q0-40.32-27.775-68.16-27.774-27.84-68-27.84Q152-696 124-668.16 96-640.32 96-600v312q0 40.32 27.775 68.16 27.774 27.84 68 27.84ZM408-648h221v-96H408v96Zm191.789 192Q615-456 625.5-466.289q10.5-10.29 10.5-25.5Q636-507 625.711-517.5q-10.29-10.5-25.5-10.5Q585-528 574.5-517.711q-10.5 10.29-10.5 25.5Q564-477 574.289-466.5q10.29 10.5 25.5 10.5Zm108 0Q723-456 733.5-466.289q10.5-10.29 10.5-25.5Q744-507 733.711-517.5q-10.29-10.5-25.5-10.5Q693-528 682.5-517.711q-10.5 10.29-10.5 25.5Q672-477 682.289-466.5q10.29 10.5 25.5 10.5Zm-108 96Q615-360 625.5-370.289q10.5-10.29 10.5-25.5Q636-411 625.711-421.5q-10.29-10.5-25.5-10.5Q585-432 574.5-421.711q-10.5 10.29-10.5 25.5Q564-381 574.289-370.5q10.29 10.5 25.5 10.5Zm108 0Q723-360 733.5-370.289q10.5-10.29 10.5-25.5Q744-411 733.711-421.5q-10.29-10.5-25.5-10.5Q693-432 682.5-421.711q-10.5 10.29-10.5 25.5Q672-381 682.289-370.5q10.29 10.5 25.5 10.5Zm-287.877 0h71.825Q507-360 517.5-370.35 528-380.7 528-396v-96q0-15.3-10.325-25.65Q507.35-528 492.088-528h-71.825Q405-528 394.5-517.65 384-507.3 384-492v96q0 15.3 10.325 25.65Q404.65-360 419.912-360Z"/></svg>