<svg xmlns="http://www.w3.org/2000/svg" height="20" viewBox="0 -960 960 960" width="20"><path d="M216-218q-39.167 0-66.583-27.417Q122-272.833 122-312v-264q0-39.167 27.417-66.583Q176.833-670 216-670q25 0 48 12.5t37 35.5h61v-98q0-21.45 15.275-36.725Q392.55-772 414-772h208.659q22.091 0 37.216 15.275T675-720v98h93q29.167 0 49.583 20.417Q838-581.167 838-552v234q0 21.45-15.275 36.725Q807.45-266 786-266H301q-15 23-37.5 35.5T216-218Zm0-20q30.4 0 52.2-21.8Q290-281.6 290-312v-264q0-30.4-21.8-52.2Q246.4-650 216-650q-30.4 0-52.2 21.8Q142-606.4 142-576v264q0 30.4 21.8 52.2Q185.6-238 216-238Zm166-384h273v-98q0-14-9-23t-23-9H414q-14 0-23 9t-9 23v98Zm-72 336h476q14 0 23-9t9-23v-234q0-20.2-14.9-35.1Q788.2-602 768-602H310v316Zm289.789-170Q615-456 625.5-466.289q10.5-10.29 10.5-25.5Q636-507 625.711-517.5q-10.29-10.5-25.5-10.5Q585-528 574.5-517.711q-10.5 10.29-10.5 25.5Q564-477 574.289-466.5q10.29 10.5 25.5 10.5Zm108 0Q723-456 733.5-466.289q10.5-10.29 10.5-25.5Q744-507 733.711-517.5q-10.29-10.5-25.5-10.5Q693-528 682.5-517.711q-10.5 10.29-10.5 25.5Q672-477 682.289-466.5q10.29 10.5 25.5 10.5Zm-108 96Q615-360 625.5-370.289q10.5-10.29 10.5-25.5Q636-411 625.711-421.5q-10.29-10.5-25.5-10.5Q585-432 574.5-421.711q-10.5 10.29-10.5 25.5Q564-381 574.289-370.5q10.29 10.5 25.5 10.5Zm108 0Q723-360 733.5-370.289q10.5-10.29 10.5-25.5Q744-411 733.711-421.5q-10.29-10.5-25.5-10.5Q693-432 682.5-421.711q-10.5 10.29-10.5 25.5Q672-381 682.289-370.5q10.29 10.5 25.5 10.5Zm-297.877 0h91.825q11.013 0 18.638-7.475Q528-374.95 528-386v-116q0-11.05-7.45-18.525Q513.1-528 502.088-528h-91.825q-11.013 0-18.638 7.475Q384-513.05 384-502v116q0 11.05 7.45 18.525Q398.9-360 409.912-360ZM310-286v-316 316Z"/></svg>