<svg xmlns="http://www.w3.org/2000/svg" height="20" viewBox="0 -960 960 960" width="20"><path d="M322.999-226.999v-527.175q0-41.005 28.499-69.504 28.498-28.498 69.503-28.498h203.136q41.646 0 69.994 28.498 28.348 28.499 28.348 69.504v93.173h54q45.417 0 77.209 31.792 31.791 31.792 31.791 77.209v226.999q0 41.005-28.498 69.503-28.498 28.499-69.503 28.499H322.999Zm-156.943 56.478q46.726 0 77.834-31.231 31.109-31.232 31.109-77.769v-328.958q0-47.103-30.883-78.052-30.884-30.948-77.609-30.948-46.726 0-78.118 30.948-31.391 30.949-31.391 78.052v328.958q0 46.537 31.166 77.769 31.166 31.231 77.892 31.231Zm254.945-490.48h203.477v-93.173H421.001v93.173Zm183.31 209.523q15.211 0 25.711-10.29 10.5-10.289 10.5-25.5 0-15.21-10.29-25.71-10.289-10.5-25.5-10.5-15.21 0-25.71 10.289-10.5 10.29-10.5 25.5 0 15.211 10.289 25.711 10.29 10.5 25.5 10.5Zm98.957 0q15.21 0 25.71-10.29 10.5-10.289 10.5-25.5 0-15.21-10.289-25.71-10.29-10.5-25.5-10.5-15.211 0-25.711 10.289-10.5 10.29-10.5 25.5 0 15.211 10.29 25.711 10.289 10.5 25.5 10.5Zm-98.957 86.956q15.211 0 25.711-10.289 10.5-10.29 10.5-25.5 0-15.211-10.29-25.711-10.289-10.5-25.5-10.5-15.21 0-25.71 10.29-10.5 10.289-10.5 25.5 0 15.21 10.289 25.71 10.29 10.5 25.5 10.5Zm98.957 0q15.21 0 25.71-10.289 10.5-10.29 10.5-25.5 0-15.211-10.289-25.711-10.29-10.5-25.5-10.5-15.211 0-25.711 10.29-10.5 10.289-10.5 25.5 0 15.21 10.29 25.71 10.289 10.5 25.5 10.5Zm-257.354 0h45.823q20.35 0 34.807-14.307 14.457-14.306 14.457-34.694v-60.954q0-20.388-14.282-34.694-14.281-14.307-34.631-14.307h-45.824q-20.35 0-34.807 14.307-14.456 14.306-14.456 34.694v60.954q0 20.388 14.281 34.694 14.282 14.307 34.632 14.307Z"/></svg>