<svg xmlns="http://www.w3.org/2000/svg" height="24" viewBox="0 -960 960 960" width="24"><path d="M797.043-111.869q-125 0-249.054-54.957Q423.935-221.782 322.5-322.739 221.065-423.935 166.467-546.772q-54.598-122.837-54.598-250.032v-51.327h254.175l40.587 212.001-120.696 117.152q20.804 36.608 46.489 69.576 25.685 32.967 55.489 61.772 27.804 27.565 60.033 52.51 32.228 24.946 68.88 46.272L638.804-409.87l209.327 44.109v253.892h-51.088ZM673.631-524.783q-17.718 0-29.816-12.098-12.097-12.097-12.097-29.815 0-17.717 12.097-29.695 12.098-11.979 29.816-11.979 17.717 0 29.695 12.029 11.979 12.029 11.979 29.645 0 17.718-11.979 29.815-11.978 12.098-29.695 12.098Zm-100-97.282L529-666.696q29.479-29.478 66.576-45.576 37.098-16.098 78.055-16.098 40.956 0 77.935 16.098 36.978 16.098 66.456 45.576l-44.391 44.631q-20-20-45.5-31.359-25.5-11.359-54.5-11.359t-54.5 11.359q-25.5 11.359-45.5 31.359Zm-84-86L445-752.696q45.718-45.717 104.696-70.695 58.978-24.979 123.935-24.979 64.956 0 123.815 24.979 58.859 24.978 104.576 70.695l-44.391 44.631q-37-37-84.381-56.859-47.38-19.859-99.619-19.859-52 0-99 20.359t-85 56.359Z"/></svg>