<svg xmlns="http://www.w3.org/2000/svg" height="20" viewBox="0 -960 960 960" width="20"><path d="M738-184q-93.077 0-191.231-46.769T363.077-363.077q-84.77-85.538-131.923-184.846Q184-647.231 184-739v-38h162.539l34.923 132.308-110.847 103.384q28.385 47.462 57.193 86.693 28.807 39.23 59.027 69.752 30.627 32.632 69.396 60.824 38.769 28.193 91.307 58.577L656-374.769l120 25.23V-184h-38ZM256.846-570.846l89.692-83.769L322.903-745H215.231q.154 38.769 10.307 83.192 10.154 44.423 31.308 90.962Zm325 315.384q26.923 15.539 71.577 26.924 44.654 11.384 90.577 14.076v-110.153l-76.538-16-85.616 85.153Zm-325-315.384Zm325 315.384ZM648-509.769q-15.785 0-27.277-11.493-11.492-11.492-11.492-27.277 0-15.784 11.492-27.277 11.492-11.492 27.277-11.492t27.277 11.492q11.492 11.493 11.492 27.277 0 15.785-11.492 27.277-11.492 11.493-27.277 11.493ZM547-619.462l-15.539-17.077q23.693-19.077 53.693-31.384 30-12.308 63.846-12.308t63.346 11.808q29.5 11.807 53.193 30.884L750-620.462q-21.538-17.692-47.506-27.038t-53.962-9.346q-27.994 0-53.853 9.846T547-619.462Zm-68-67-17.077-17.077q36.692-33.615 84.577-53.154 47.885-19.538 102.5-19.538t102 19.038q47.385 19.039 84.077 52.654L818-687.462Q785.231-717.154 741.731-735q-43.5-17.846-92.731-17.846-49.231 0-93.615 17.461Q511-717.923 479-686.462Z"/></svg>