<svg xmlns="http://www.w3.org/2000/svg" height="20" viewBox="0 -960 960 960" width="20"><path d="M752.999-164.001q-101.538 0-206.614-48.885-105.077-48.884-194.846-138.653-89.384-89.769-138.461-195.423-49.077-105.653-49.077-207.037v-43h191.768l36.461 151.153-113.923 110.692q25.693 43.231 53.347 80.346 27.653 37.116 57.038 66.885 29.539 30.308 65.424 57.154Q490-303.922 536.77-276.23L651-389.384l144.999 30.615v194.768h-43ZM648-519.769q-17.692 0-30.538-12.846t-12.846-30.538q0-17.692 12.846-30.538T648-606.537q17.692 0 30.538 12.846t12.846 30.538q0 17.692-12.846 30.538T648-519.769ZM547-625.615l-24.769-25.538q24.847-22.538 57.346-36.192 32.5-13.654 69.423-13.654t68.923 13.154q31.999 13.154 56.846 35.692L750-626.615q-20.769-18.846-46.769-28.769-26-9.923-54.231-9.923-29.231 0-55.231 10.423T547-625.615Zm-68-67-25.538-25.538q37.846-36.307 88.038-57.576 50.193-21.27 107.5-21.27t107 20.77q49.692 20.769 87.538 57.076L818-693.615q-32.385-30.846-75.885-49.269-43.5-18.423-93.115-18.423-49.615 0-93.808 18.231Q511-724.846 479-692.615Z"/></svg>