<svg xmlns="http://www.w3.org/2000/svg" height="20" viewBox="0 -960 960 960" width="20"><path d="M328-209v-127h504q27 0 45 18t18 44.765q0 26.764-18 45.5Q859-209 832-209H328Zm535-175q-13.867 0-22.933-9.067Q831-402.133 831-416v-40q0-70-49-119t-119-49q-13.433 0-22.217-9.067Q632-642.133 632-656q0-13.433 8.783-22.217Q649.567-687 663-687q30 0 51-21t21-51q0-30-21-51t-51-21q-13.4 0-22.7-9.067Q631-849.133 631-863q0-13.867 9.067-22.933Q649.133-895 663-895q57.149 1 96.575 40.298Q799-815.404 799-758.975 799-727 787-701.5T753-664q58 15 100 74.276Q895-530.448 895-456v40q0 13.867-9.067 22.933Q876.867-384 863-384Zm-110.977 0q-13.423 0-22.723-9.067Q720-402.133 720-416v-38q0-30-21.231-52T648-528h-48q-56.418 0-95.709-39.205Q465-606.411 465-662.705 465-719 504.425-758.5 543.851-798 599-799q14.3 0 23.65 9.067Q632-780.867 632-767q0 13.867-9.067 22.933Q613.867-735 600-735q-30 0-51 21t-21 51q0 30 21 51t51 21h48q58 0 96.5 40t38.5 95v41q0 13.433-8.777 22.217-8.776 8.783-22.2 8.783ZM265-209q-35.1-6-71.55-9-36.45-3-72.45-3h-12q-21.675 0-36.338-15.196Q58-251.393 58-273.857 58-295 70-315t39-9h12q36 0 72.45-3t71.55-9v127Zm152.143-39q10.857 0 17.357-7.543t6.5-17.6q0-10.857-6.643-17.357t-17-6.5Q407-297 399.5-290.357t-7.5 17q0 10.357 7.543 17.857t17.6 7.5Z"/></svg>