<svg xmlns="http://www.w3.org/2000/svg" height="24" viewBox="0 -960 960 960" width="24"><path d="M312-169v-151h524q32 0 53.5 21.5t21.5 53.265q0 31.764-21.5 54Q868-169 836-169H312Zm561-191q-16.467 0-27.233-10.767Q835-381.533 835-398v-52q0-66-46-114t-114-48q-16.033 0-26.517-10.767Q638-633.533 638-650q0-16.033 10.483-26.517Q658.967-687 675-687q30 0 52-22t22-52q0-30-22-52t-52-22q-16 0-27-10.767-11-10.766-11-27.233t10.767-27.233Q658.533-911 675-911q63 1 106.5 44.366Q825-823.269 825-761q0 35-13 61.5T777-658q54 17 94 76.276Q911-522.448 911-450v52q0 16.467-10.767 27.233Q889.467-360 873-360Zm-114.977 0Q742-360 731-370.767 720-381.533 720-398v-12q0-39-23-60.5T642-492h-62q-62.269 0-105.634-43.311Q431-578.621 431-640.811 431-703 474.5-746.5 518-790 579-791q16.9 0 27.95 10.767Q618-769.467 618-753t-10.767 27.233Q596.467-715 580-715q-30 0-52 21t-22 53q0 32 22 53t52 21h62q64 0 108.5 41T795-426v29q0 16.033-10.477 26.517Q774.047-360 758.023-360ZM257-169q-39-10-79.5-15T97-189q-23.375 0-39.188-16.223Q42-221.446 42-245.429 42-268 58-284q16-16 39-16 40 0 80.5-5t79.5-15v151Zm148-48q12 0 19.5-8.4T432-245q0-12-7.5-19.5t-19-7.5q-11.5 0-20 7.5t-8.5 19q0 11.5 8.4 20T405-217Z"/></svg>