<svg xmlns="http://www.w3.org/2000/svg" height="20" viewBox="0 -960 960 960" width="20"><path d="M331.478-222.477V-336h493.566q23.957 0 40.218 16.261 16.261 16.261 16.261 40.085 0 23.823-16.261 40.5t-40.218 16.677H331.478ZM853.001-384q-12.36 0-20.441-8.081t-8.081-20.441V-456q0-70-49-119t-119-49q-12.115 0-20.036-8.081-7.921-8.081-7.921-20.441 0-12.115 7.921-20.036 7.921-7.921 20.036-7.921 30 0 51-21t21-51q0-30-21-51t-51-21q-12.096 0-20.309-8.081-8.213-8.081-8.213-20.441 0-12.359 8.081-20.44 8.081-8.082 20.441-8.082 54.106.566 91.575 37.966t37.469 91.103q0 29.367-11.131 53.563-11.13 24.195-31.391 38.369 58.869 18.913 98.695 75.895Q881.523-527.645 881.523-456v43.478q0 12.36-8.082 20.441Q865.36-384 853.001-384Zm-104.466 0q-12.109 0-20.322-8.081T720-412.522v-42.348q0-30-21.231-51.565Q677.538-528 648-528h-48q-53.693 0-91.086-37.331-37.393-37.332-37.393-90.935 0-53.604 37.469-91.148 37.469-37.543 90.445-38.109 12.604 0 20.846 8.082 8.241 8.081 8.241 20.44 0 12.36-8.081 20.441T600-728.479q-30 0-51 21t-21 51q0 30 21 51t51 21h48q54.522 0 91.5 37.827 36.979 37.826 36.979 90.652v44.043q0 12.115-7.918 20.036Q760.644-384 748.535-384ZM274.999-222.477q-35.1-6-71.55-9-36.45-3-72.45-3h-12q-18.903 0-31.69-13.143-12.788-13.143-12.788-32.572 0-18.286 11.347-34.156Q97.216-330.218 119-324h12q36 0 72.45-3t71.55-9v113.523Zm148.665-35.522q9.118 0 14.966-6.5 5.848-6.499 5.848-15.165 0-9.118-5.991-14.966-5.99-5.848-14.826-5.848-8.835 0-15.249 5.991-6.413 5.99-6.413 14.826 0 8.835 6.5 15.249 6.499 6.413 15.165 6.413Z"/></svg>