<svg xmlns="http://www.w3.org/2000/svg" height="24" viewBox="0 -960 960 960" width="24"><path d="M344.615-215.385v-89.23h444.616q18.59 0 31.603 13.065 13.012 13.066 13.012 31.731t-13.012 31.55q-13.013 12.884-31.603 12.884H344.615ZM816.19-360q-7.651 0-12.69-5.013-5.038-5.013-5.038-12.679V-450q0-66-46-107.846-46-41.846-114-41.846-7.667 0-12.68-5.003t-5.013-12.654q0-7.651 5.013-12.69 5.013-5.038 12.68-5.038 30 0 51.23-21.231 21.231-21.231 21.231-51.231 0-31.538-21.231-53.538-21.23-22-51.23-22-7.667 0-12.68-5.003t-5.013-12.654q0-7.651 5.013-12.689 5.013-5.039 12.68-5.039 45.07 0 76.458 32.846 31.388 32.846 31.388 78.077 0 29-11.769 49.808t-29.769 33.784q52.153 16.87 90.615 61.639 38.461 44.77 38.461 112.308v72.308q0 7.666-5.002 12.679Q823.841-360 816.19-360Zm-75.385 0q-7.651 0-12.69-5.013-5.038-5.013-5.038-12.679V-412q0-35.923-23-58.731-23-22.807-55-22.807h-62q-45.231 0-77.308-32.732-32.077-32.731-32.077-79.73 0-44.427 32.077-75.368 32.077-30.94 77.308-30.94 7.667 0 12.679 5.003 5.013 5.002 5.013 12.654 0 7.651-5.013 12.689-5.012 5.039-12.679 5.039-30 0-52 20.085-22 20.086-22 50.693 0 30.606 22 53.914t52 23.308h62q46.769 0 80.077 33.307 33.308 33.308 33.308 80.385v37.539q0 7.666-5.003 12.679T740.805-360Zm-436.19 144.615q-33.615-8.461-64.5-12.307-30.885-3.846-64.731-3.846H170q-12.096 0-20.279-8.183T141.538-260q0-12.154 8.731-19.038Q159-285.923 170-288.462h5.384q33.846 0 64.731-3.846 30.885-3.846 64.5-12.307v89.23ZM420-240q8 0 14-6t6-14q0-8-6-14t-14-6q-8 0-14 6t-6 14q0 8 6 14t14 6Z"/></svg>