<svg xmlns="http://www.w3.org/2000/svg" height="20" viewBox="0 -960 960 960" width="20"><path d="M752-244.252h-92q-6.8 0-11.4-4.631-4.6-4.632-4.6-11.378 0-6.745 4.6-11.281 4.6-4.536 11.4-4.536h92v-91.688q0-6.734 4.547-11.484t11.269-4.75q6.723 0 11.327 4.6 4.605 4.6 4.605 11.4v92h92.168q6.836 0 11.46 4.608Q892-266.784 892-259.973q0 6.812-4.624 11.392-4.624 4.581-11.46 4.581h-92.168v92q0 6.8-4.632 11.4-4.631 4.6-11.143 4.6-6.812 0-11.392-4.624-4.581-4.624-4.581-11.46v-92.168ZM203.769-136q-18.562 0-25.781-17.384-7.219-17.385 5.935-30.539l592.923-592.923Q790-790 807.385-782.781q17.384 7.218 17.384 25.781v290.539q-8.538-1.077-15.654-2.347-7.115-1.269-16.346-1.73v-276.385L213.846-168h363.846q3.923 8.462 7.385 16.077 3.461 7.616 9.769 15.923H203.769Zm10.077-32 578.923-578.923L616-570.154 478.654-432.808 354.202-308.355 213.846-168Z"/></svg>