<svg xmlns="http://www.w3.org/2000/svg" height="20" viewBox="0 -960 960 960" width="20"><path d="M772.732-54.737q-20.297 0-34.628-14.307-14.331-14.306-14.331-34.694v-58.999h-59.167q-20.423 0-34.754-14.307-14.331-14.306-14.331-34.694 0-20.387 14.331-34.694 14.331-14.306 34.754-14.306h59.167v-59q0-20.387 14.331-34.694 14.331-14.306 34.652-14.306t34.583 14.306q14.262 14.307 14.262 34.694v59h58.687q20.321 0 34.778 14.246 14.457 14.246 14.457 34.544 0 20.298-14.307 34.604-14.307 14.307-34.694 14.307h-58.999v58.999q0 20.388-14.247 34.844-14.246 14.457-34.544 14.457ZM76.782-76.782l807.002-807.002v464.437q-26.392-13.261-54.267-21.022-27.875-7.761-56.995-7.761-98.375 0-167.384 69.009-69.008 69.009-69.008 167.383 0 35.478 10.956 71.065 10.957 35.587 31.304 63.891H76.782Z"/></svg>