<svg xmlns="http://www.w3.org/2000/svg" height="20" viewBox="0 -960 960 960" width="20"><path d="M768.184-136q-6.723 0-11.327-4.6-4.605-4.6-4.605-11.4v-92h-92.168q-6.836 0-11.46-4.608Q644-253.215 644-260.027q0-6.811 4.624-11.392 4.624-4.581 11.46-4.581h92.168v-92q0-6.8 4.632-11.4 4.631-4.6 11.377-4.6 6.745 0 11.281 4.6 4.536 4.6 4.536 11.4v92h91.688q6.734 0 11.484 4.547 4.75 4.548 4.75 11.27 0 6.722-4.6 11.302-4.6 4.581-11.4 4.581h-92v92q0 6.8-4.547 11.55-4.547 4.75-11.269 4.75ZM136-136l688.769-688.769v358.308q-11.461-1.77-28.739-3.808-17.278-2.039-28.03-2.039-88.389 0-150.349 61.96Q555.692-348.389 555.692-260q0 31.539 10.423 65.077 10.423 33.539 28.731 58.923H136Z"/></svg>