<svg xmlns="http://www.w3.org/2000/svg" height="24" viewBox="0 -960 960 960" width="24"><path d="M720-200h-80q-17 0-28.5-11.5T600-240q0-17 11.5-28.5T640-280h80v-80q0-17 11.5-28.5T760-400q17 0 28.5 11.5T800-360v80h80q17 0 28.5 11.5T920-240q0 17-11.5 28.5T880-200h-80v80q0 17-11.5 28.5T760-80q-17 0-28.5-11.5T720-120v-80ZM177-80q-27 0-37.5-24.5T148-148l663-663q19-19 43.5-8.5T879-782v328q-18-11-38-17.5T799-482v-204L273-160h255q8 23 20 43t27 37H177Zm96-80 526-526-136.5 136.5-121 121L418-305 273-160Z"/></svg>