<svg xmlns="http://www.w3.org/2000/svg" height="20" viewBox="0 -960 960 960" width="20"><path d="m684.217-220.478-18.043-18.609q-8.696-8.695-20.957-8.413-12.261.283-20.957 8.979-8.695 8.695-8.695 20.956t8.695 20.957l35.174 35.174q11.083 10.826 26.194 10.326 15.111-.5 25.937-11.326l90.609-95.174q8.696-9.646 8.696-21.432 0-11.786-9.696-20.481-9.696-8.696-20.957-7.913-11.261.782-19.957 8.913l-76.043 78.043Zm29 184.913q-80 0-136-56t-56-136q0-80 56-136t136-56q80 0 136 56t56 136q0 80-56 136t-136 56ZM367.043-480 222.608-661.435q-17.957-24.783-4.807-51.283 13.149-26.5 44.112-26.5h341.348q16.652 0 31.522 7.261 14.87 7.261 25.262 20.348L845.176-478.26l-13.001 18.653q-29.218-16.479-63.087-24.936-33.87-8.456-67.479-7.022-107.131 4.87-179.761 81.539-72.631 76.669-72.631 181.896 0 1.949.565 3.801.566 1.852.566 3.547H261.913q-30.963 0-44.112-26.5-13.15-26.5 4.807-51.283L367.043-480Z"/></svg>