<svg xmlns="http://www.w3.org/2000/svg" height="24" viewBox="0 -960 960 960" width="24"><path d="m684.217-230.478-13.043-13.609q-10.696-10.695-25.457-10.413-14.761.283-25.457 10.979-10.695 10.695-10.695 24.956t10.695 24.957l36.174 36.174q12.083 11.826 28.194 11.826 16.111 0 27.937-11.826l93.609-92.174q10.696-10.646 10.696-25.432 0-14.786-10.696-25.481-10.696-10.696-25.457-10.413-14.761.282-25.457 10.413l-71.043 70.043Zm29 202.913q-83 0-141.5-58.5t-58.5-141.5q0-83 58.5-141.5t141.5-58.5q83 0 141.5 58.5t58.5 141.5q0 83-58.5 141.5t-141.5 58.5ZM283.043-480 143.608-697.435q-16.957-26.783-2.307-54.283 14.649-27.5 46.612-27.5h414.348q25.652 0 48.522 11.261 22.87 11.261 37.262 32.348L863.176-488.26l-13.001 18.653q-30.218-18.479-67.087-28.436-36.87-9.956-72.479-9.522-119.131.87-198.261 84.539-79.131 83.669-79.131 195.896 0 11.949 1.065 23.301 1.066 11.352 3.066 23.047H187.913q-31.963 0-46.612-27.5-14.65-27.5 2.307-54.283L283.043-480Z"/></svg>