<svg xmlns="http://www.w3.org/2000/svg" height="20" viewBox="0 -960 960 960" width="20"><path d="M480-76.782q-83.898 0-157.094-31.46-73.197-31.46-128.2-86.464-55.004-55.003-86.464-128.346t-31.46-157.406q0-84.064 31.46-157.448 31.46-73.385 86.464-127.888 55.003-54.504 128.346-85.964t157.406-31.46q84.064 0 157.455 31.7 73.39 31.7 127.679 86.044 54.289 54.343 85.958 127.808Q883.218-564.202 883.218-480q0 83.898-31.46 157.094-31.46 73.197-85.964 128.2-54.503 55.004-128.019 86.464Q564.26-76.782 480-76.782Zm.458-98.001q128.197 0 216.478-88.739t88.281-216.936q0-128.197-88.281-216.478t-216.478-88.281q-128.197 0-216.936 88.281t-88.739 216.478q0 128.197 88.739 216.936t216.936 88.739ZM516-232.652q-36.826 0-66.522-23.13-29.696-23.131-44.261-61.392-5.682-15.376-12.311-30.791-6.629-15.416-18.993-25.948l-38-34q-27.131-24.696-41.196-58.783-14.065-34.088-14.065-73.304 0-78.391 56.228-132.87 56.229-54.478 137.096-54.478 53.335 0 95.288 23.348 41.954 23.348 61.519 64.609 15.696 31.956 5.152 54.848-10.544 22.891-36.935 22.891-13.487 0-24.164-7.071-10.677-7.072-16.619-17.886-11.998-24.162-35.648-39.103-23.65-14.94-50.415-14.94-43.803 0-74.304 29.342-30.502 29.341-30.502 71.31 0 20.304 9.152 40.674 9.152 20.369 28.587 37.239l30 28q16.565 15 28.848 37.348 12.283 22.348 23.848 54.478 4.135 10.739 11.904 16.826 7.77 6.087 16.521 6.087 9.096 0 16.583-5.964 7.486-5.964 15.426-18.079 5.565-10.261 15.275-15.109 9.709-4.848 20.635-4.848 24.853 0 37.82 20.674 12.966 20.674 1.271 42.065-16.566 31.696-45.272 49.827-28.707 18.13-61.946 18.13ZM540-402q25 0 42.5-17.5T600-462q0-25-17.5-42.5T540-522q-25 0-42.5 17.5T480-462q0 25 17.5 42.5T540-402Z"/></svg>