<svg xmlns="http://www.w3.org/2000/svg" height="24" viewBox="0 -960 960 960" width="24"><path d="M480-46q-91 0-169.987-34.084-78.988-34.083-137.417-92.512T80.084-310.013Q46-389 46-480t34.084-169.987q34.083-78.988 92.512-137.417t137.417-92.512Q389-914 480-914t169.987 34.084q78.988 34.083 137.417 92.512t92.512 137.417Q914-571 914-480t-34.084 169.987q-34.083 78.988-92.512 137.417T649.987-80.084Q571-46 480-46Zm0-126q130 0 219-89t89-219q0-130-89-219t-219-89q-130 0-219 89t-89 219q0 130 89 219t219 89Zm39-55q-44 0-78-26t-49-68q-2.438-6.897-5.281-13.362Q383.875-340.828 379-346l-50-51q-28-29-45-64.925-17-35.924-17-76.075 0-81 56-138t136.958-57q56.131 0 103.086 29Q610-675 634-624q13 27-3 52t-45 25q-16 0-28.667-8.396Q544.667-563.792 538-578q-11.227-22.75-31.955-35.875Q485.318-627 460.273-627 424-627 398.5-601.5T373-540q0 18 6 35t20 30l55 54q15 14 24 32t16 38q3.469 8 10.408 13t15.959 5q7.633 0 13.571-3.667Q539.875-340.333 543-347q6-13 19-19.5t27.224-6.5q29.742 0 45.259 25.5T636-296q-17 32-48.667 50.5Q555.667-227 519-227Zm26-173q25 0 42.5-17.5T605-460q0-25-17.5-42.5T545-520q-25 0-42.5 17.5T485-460q0 25 17.5 42.5T545-400Z"/></svg>