<svg xmlns="http://www.w3.org/2000/svg" height="20" viewBox="0 -960 960 960" width="20"><path d="M148-148v-20h96v-412h-51q-1.241 0-3.12-.873Q188-581.745 188-583q0-9.231 4.714-16.923Q197.429-607.615 206-613l245-167q6-3 13.25-6 7.249-3 14.814-3 7.907 0 15.422 3Q502-783 508-780l246 168q8.571 5.075 13.286 12.688Q772-591.7 772-583q0 .852-2.38 1.426-2.379.574-3.62.574h-50v413h96v20H148Zm548-20v-456L498-764q-8-6-18-6t-18 6L264-624v456h432ZM480-352q5.407 0 11.204-1.5Q497-355 501-361l71-99v160q0 4.25 2.825 7.125 2.824 2.875 7 2.875 4.175 0 7.175-2.875t3-7.125v-168.154q0-3.785-2.879-6.816Q586.242-478 582-478h-12.211q-1.977 0-3.83 1.1-1.854 1.1-2.959 1.9l-83 113-82-113q-2-3-4.5-3h-12.551q-5.503 0-9.226 3.737Q368-470.525 368-465v165q0 4.25 2.825 7.125 2.824 2.875 7 2.875 4.175 0 7.175-2.875t3-7.125v-160l71 99q4 6 9.796 7.5Q474.593-352 480-352Zm216 184H264h432Z"/></svg>