<svg xmlns="http://www.w3.org/2000/svg" height="24" viewBox="0 -960 960 960" width="24"><path d="M206.085-88.346q-66.783 0-106.805-52.435-40.022-52.435-23.326-116.218l73.131-277.653q-34.131-23.261-55.066-61.239Q73.085-633.87 73.085-680q0-71.087 50.391-121.479 50.391-50.391 121.479-50.391h473.871L546.955-508.13H421.477l-11 41.131h55.392v180.349H362.825l-26.043 96.738q-12.131 44.652-48.088 73.109-35.956 28.457-82.609 28.457ZM770.174-760l-29.522-64.174 155.175-70.522 28.522 65.174L770.174-760Zm125.653 294.696-155.175-69.522L770.174-600l154.175 70.522-28.522 64.174ZM771.305-644.348v-71.304H942.61v71.304H771.305Z"/></svg>