<svg xmlns="http://www.w3.org/2000/svg" height="20" viewBox="0 -960 960 960" width="20"><path d="M342.615-222q-14.315 0-23.927-9.611-9.611-9.612-9.611-23.928v-448.922q0-14.316 9.611-23.928Q328.3-738 342.615-738H484q59.165 0 104.583 37.478Q634-663.043 634-602.769q0 38.692-19.807 68.731-19.808 30.038-49.808 44.62 37.538 11.187 62.538 44.88 25 33.692 25 79.846 0 66.385-50.162 104.538Q551.598-222 492-222H342.615Zm23.462-53.385h123.146q46.777 0 74.854-27.961 28.077-27.962 28.077-65.116 0-37.153-28.577-65.115-28.577-27.961-75.731-27.961H366.077v186.153Zm0-236.615h114.538q39.923 0 68.116-25.192 28.192-25.193 28.192-61.346 0-37.847-28.263-62.077-28.263-24.231-66.974-24.231H366.077V-512Z"/></svg>