<svg xmlns="http://www.w3.org/2000/svg" height="24" viewBox="0 -960 960 960" width="24"><path d="M349.739-181.347q-44.305 0-75.153-30.848-30.848-30.848-30.848-75.153v-385.869q0-44.305 30.848-75.153 30.848-30.848 75.153-30.848h161.349q72.348 0 128.761 44.804 56.413 44.805 56.413 118.066 0 44.217-20.173 75.956-20.174 31.74-48.653 46.566v1.696q35.74 14.956 62.283 50.609 26.543 35.652 26.543 88.869 0 83.348-63.304 127.326-63.304 43.979-135.001 43.979H349.739Zm34.217-122.174h118.131q36.695 0 52.848-20.826 16.152-20.826 16.152-40.87 0-20.044-16.152-41.153-16.153-21.108-54.152-21.108H383.956v123.957Zm0-242.697h108.262q28.478 0 45.456-16.717t16.978-39.413q0-24-17.847-39.848-17.848-15.848-43.718-15.848H383.956v111.826Z"/></svg>