<svg xmlns="http://www.w3.org/2000/svg" height="24" viewBox="0 -960 960 960" width="24"><path d="M240-160q-17.308 0-29-13.423-11.693-13.423-11-31.5l24-280q5.769-73.539 48.923-130.615Q316.077-672.615 380-698.615V-560q0 41.385 29.307 70.693Q438.615-460 480-460q41.616 0 70.808-29.307Q580-518.615 580-560v-138.615q64.693 26 107.462 83.077 42.769 57.076 49.307 130.615l24 284q.693 17.308-11.384 29.115Q737.308-160 720-160H240Zm240-340q-25.308 0-42.654-17.346Q420-534.692 420-560v-160q0-25.308 17.346-42.654Q454.692-780 480-780q25.308 0 42.654 17.346Q540-745.308 540-720v160q0 25.308-17.346 42.654Q505.308-500 480-500Z"/></svg>