<svg xmlns="http://www.w3.org/2000/svg" height="20" viewBox="0 -960 960 960" width="20"><path d="M358.616-592.23q7.615 4.231 15.538 2.115 7.924-2.115 12.539-9.346l72.23-117.999-54.769-90.692q-10.846-18.077-31.807-18.077-20.962 0-31.808 18.077l-80.076 132.846q-4.615 7.615-2.308 15.538 2.308 7.923 9.923 12.538l90.538 55Zm375.229 261.46-71.231-118.615q-5-6.846-3-14.961t9.616-13.115l92.922-53.385q7.615-4.615 15.731-2.307 8.115 2.307 12.346 9.538l48.769 81.076q9.846 15.846 10.731 35.616.884 19.769-7.731 35.615-9.231 18.461-27.385 29.5-18.153 11.038-39.23 11.038h-41.538ZM592.384-107.618l-97.538-97.537q-6.615-6.616-6.615-14.846 0-8.231 6.615-14.847l97.538-97.537q10.231-10.231 22.769-4.923 12.538 5.307 12.538 19.153v24.308h175.384l-53.384 107.153q-10.231 18.461-27.885 29.5-17.654 11.038-38.73 11.038h-55.385v24.308q0 13.846-12.538 19.153-12.538 5.308-22.769-4.923Zm-322.075-38.538q-18.077 0-33.423-9.538-15.346-9.539-22.577-25.385-7.23-14.846-6.923-30.999.308-16.154 8.539-30l31.307-51.769h138.461q8.615 0 14.538 5.923t5.923 14.538v106.769q0 8.615-5.923 14.538t-14.538 5.923H270.309Zm-91.307-105.153-60-119.999q-8.615-16.462-7.923-35.615.692-19.154 10.923-35.616l14.462-24.692-20.693-12.846q-12.23-7.23-10.115-20.077Q107.771-513 121.002-517l135.076-34.307q8.616-2 15.539 2.308 6.923 4.307 8.923 12.923l33.923 134.691q1.615 6.231-.5 11.654-2.116 5.423-6.731 9.23-4.616 3.808-11.039 4.308t-12.038-3.115l-21.077-12.462-84.076 140.461Zm478.612-320.46-134.076-34.307q-13.231-4-15.538-16.846-2.308-12.846 9.923-20.077L539-655.845 423.616-847.69h130.23q19.461 0 36.423 9.731 16.961 9.73 27.192 26.192l48.153 80.461 19.692-12.846q5.616-3.615 12.039-3.115t11.038 3.807q4.616 3.308 6.923 8.923 2.308 5.616.693 12.846l-33.923 134.692q-2 8.615-8.923 12.923-6.923 4.307-15.539 2.307Z"/></svg>