<svg xmlns="http://www.w3.org/2000/svg" height="24" viewBox="0 -960 960 960" width="24"><path d="M376-574q6 3 12 1.5t10-6.5l64-104-48-79q-9-15-27.5-15T359-762l-70 117q-4 6-2 12t8 10l81 49Zm324 226-63-104q-4-5-2-11.5t8-10.5l83-48q6-3 12.5-1.5t9.5 6.5l43 72q8 14 9.5 31t-6.5 31q-8 16-24 25.5t-34 9.5h-36ZM581-151l-90-90q-5-5-5-11t5-11l90-90q8-8 17.5-3.5T608-341v25h152l-46 93q-9 16-24.5 25.5T656-188h-48v25q0 11-9.5 15.5T581-151Zm-283-37q-15 0-28.5-8T250-218q-6-13-6-27t7-26l27-45h122q7 0 11.5 4.5T416-300v96q0 7-4.5 11.5T400-188H298Zm-79-91-52-104q-8-14-7-31t10-31l12-21-21-13q-9-5-8-15.5t12-13.5l122-31q7-2 12.5 1.5T307-527l30 122q1 5-.5 9t-5 7q-3.5 3-8 3.5T314-388l-22-13-73 122Zm416-278-122-31q-11-3-12-13.5t8-15.5l22-13-100-166h113q17 0 31.5 8.5T599-765l42 70 20-13q5-3 9.5-2.5t8 3.5q3.5 3 5.5 7.5t1 9.5l-30 121q-2 7-7.5 10.5T635-557Z"/></svg>