<svg xmlns="http://www.w3.org/2000/svg" height="20" viewBox="0 -960 960 960" width="20"><path d="M374-575q7 3 14 1.5t11-7.5l63-102-48-79q-9-15-27.5-15T359-762l-69 115q-4 7-2 14t9 11l77 47Zm326 227-62-102q-5-5-3-12.5t9-12.5l80-46q7-4 14.5-2t10.5 8l42 70q8 14 9.5 31t-6.5 31q-8 16-24 25.5t-34 9.5h-36ZM577-155l-84-84q-6-6-6-13t6-13l84-84q9-9 20-4t11 17v20h152l-46 93q-9 16-24.5 25.5T656-188h-48v20q0 12-11 17t-20-4Zm-279-33q-15 0-28.5-8T250-218q-6-13-6-27t7-26l27-45h120q8 0 13 5t5 13v92q0 8-5 13t-13 5H298Zm-79-91-52-104q-8-14-7-31t10-31l12-21-17-11q-11-6-9.5-17t13.5-15l116-30q8-2 14 2t8 12l29 115q1 5-.5 9.5t-5.5 8q-4 3.5-9.5 4T310-391l-18-10-73 122Zm414-278-115-30q-12-4-14-15t9-17l18-11-100-166h113q17 0 31.5 8.5T599-765l42 70 16-11q5-3 10.5-2.5t9.5 3.5q4 3 6 8t1 11l-29 115q-2 8-8 12t-14 2Z"/></svg>