<svg xmlns="http://www.w3.org/2000/svg" height="24" viewBox="0 -960 960 960" width="24"><path d="M375.385-860v-40h209.23v40h-209.23Zm23.923 532.154L332.692-460H160.461q7.308-126.539 99.308-213.269Q351.769-760 480-760q58.154 0 112.462 20.769 54.307 20.769 99.692 58.769l43.692-43.692 28.308 28.308-43.692 43.692q34.307 41.231 55.231 90.039Q796.616-513.308 799.539-460H652.462L560-640.769 399.308-327.846ZM480-120q-128.231 0-220.231-87.115-92-87.116-99.308-212.885h147.077L400-240l160.692-312.154L628.077-420h171.462q-7.308 125.769-99.193 212.885Q608.462-120 480-120Z"/></svg>