<svg xmlns="http://www.w3.org/2000/svg" height="20" viewBox="0 -960 960 960" width="20"><path d="M342.477-816v-89.523h275.046V-816H342.477Zm70.61 419.956-45.913-75.477H128.912q19.826-129.218 118.066-214.544Q345.217-771.391 480-771.391q59.13 0 114.891 19.5t102.327 55.065l58.783-57.783 63 63-57.783 58.783q27.435 34.435 45.152 75.653 17.718 41.217 25.283 85.652H643.304L541.956-634.043 413.087-396.044ZM480-61.52q-140.783 0-241.022-92.544-100.24-92.543-112.066-230.761h189.784l101.913 162.521 128.304-237.998 45.913 75.477h240.827q-11.826 138.218-112.631 230.761Q620.218-61.52 480-61.52Z"/></svg>