<svg xmlns="http://www.w3.org/2000/svg" height="24" viewBox="0 -960 960 960" width="24"><path d="M480-45.52q-78.522 0-147.413-29.913-68.892-29.913-120.436-81.174-51.543-51.261-81.456-120.153-29.913-68.891-29.913-147.413h106.001q0 113.739 79.739 193.195Q366.261-151.521 480-151.521t193.478-79.457q79.739-79.456 79.739-193.195h106.001q0 78.522-29.913 147.413-29.913 68.892-81.456 120.153-51.544 51.261-120.436 81.174Q558.522-45.52 480-45.52ZM100.782-424.173q0-78.522 29.913-147.414 29.913-68.891 81.456-120.435 51.544-51.543 120.436-81.456Q401.478-803.391 480-803.391q63.13 0 122.391 20t109.827 58.565l62.783-62.783 69 69-62.783 62.783q38.566 50.566 58.283 109.544 19.717 58.978 19.717 122.109H753.217q0-113.739-79.739-193.478T480-697.39q-113.739 0-193.478 79.739t-79.739 193.478H100.782ZM342.477-840v-97.523h275.046V-840H342.477ZM480-697.39q-101.478 0-176.652 64.478-75.174 64.478-92.435 161.391h144.261l46.913 78.477 148.869-259.999 111.348 181.522h86.783q-17.261-96.913-92.435-161.391T480-697.39Zm0 545.869q101.478 0 176.652-64.478 75.174-64.478 92.435-160.826H604.826l-46.913-78.477-148.304 259.998-111.913-181.521h-86.783q17.261 96.348 92.435 160.826T480-151.521Zm0 0q-113.739 0-193.478-79.457-79.739-79.456-79.739-193.195 0-113.739 79.739-193.478T480-697.39q113.739 0 193.478 79.739t79.739 193.478q0 113.739-79.739 193.195Q593.739-151.521 480-151.521Zm0-272.652Z"/></svg>