<svg xmlns="http://www.w3.org/2000/svg" height="20" viewBox="0 -960 960 960" width="20"><path d="M480-81.413q-71.913 0-134.267-27.105-62.355-27.104-109.004-73.634-46.65-46.53-73.755-108.885-27.105-62.354-27.105-134.267h83.001q0 109.043 76.043 184.967Q370.957-164.413 480-164.413q109.043 0 185.087-75.924 76.043-75.924 76.043-184.967h83.001q0 71.913-27.105 134.267-27.105 62.355-73.755 108.885-46.649 46.53-109.004 73.634Q551.913-81.413 480-81.413ZM135.869-425.304q0-71.913 27.105-134.268 27.105-62.354 73.755-109.004 46.649-46.649 109.004-73.754 62.354-27.105 133.827-27.105 58.758 0 113.295 19.5 54.536 19.5 100.775 54.739l54.87-53.869 55.5 55.5-53.869 54.869q35.239 45.24 54.619 99.838 19.381 54.598 19.381 113.554H741.13q0-109.044-76.043-185.087Q589.043-686.435 480-686.435q-109.043 0-185.087 76.044-76.043 76.043-76.043 185.087h-83.001ZM352.587-816v-79.413h254.826V-816H352.587Zm127.636 129.565q-96.31 0-167.614 59.587-71.305 59.587-89.261 150.435h137.956l48.848 85.587 137.022-253 97.109 167.413h92.369q-17.956-90.848-89.038-150.435-71.081-59.587-167.391-59.587ZM480-164.413q102.087 0 175.891-67.087 73.805-67.087 83.761-166.695H598.891l-49.043-85.587-136.783 253-97.348-167.413h-95.369q9.956 99.608 83.761 166.695Q377.913-164.413 480-164.413Zm0 0q-109.043 0-185.087-75.924-76.043-75.924-76.043-184.967 0-109.044 76.043-185.087Q370.957-686.435 480-686.435q109.043 0 185.087 76.044 76.043 76.043 76.043 185.087 0 109.043-76.043 184.967Q589.043-164.413 480-164.413Zm0-260.891Z"/></svg>