<svg xmlns="http://www.w3.org/2000/svg" height="20" viewBox="0 -960 960 960" width="20"><path d="M226.522-336.674q-18.392-31.674-29.207-67.804-10.815-36.131-10.815-76 0-122.435 86.196-209.229Q358.891-776.5 483.609-773.5h.239l-53.413-53.413 53.63-53.391L632.37-732 484.065-583.696l-53.63-53.391 53.413-53.413h.478q-90.891-2-152.859 60.326Q269.5-567.848 269.5-480.478q0 22.717 4.359 43.315t13.076 40.076l-60.413 60.413ZM475.935-79.456 327.63-227.761l148.305-148.543 53.63 53.63-53.413 53.413h-.478q90.891 2 152.859-60.446Q690.5-392.152 690.5-479.522q0-22.717-4.359-43.315t-13.076-40.076l60.413-60.174q18.392 31.674 29.207 67.685 10.815 36.011 10.815 75.88 0 121.435-86.196 208.848-86.195 87.413-210.913 84.413h-.239l53.413 53.174-53.63 53.63Z"/></svg>