<svg xmlns="http://www.w3.org/2000/svg" height="24" viewBox="0 -960 960 960" width="24"><path d="m139.782-161.217-34-14q-31-13-41.5-45t3.5-63l72-156v278Zm160 88q-33 0-56.5-23.5t-23.5-56.5v-240l106 294q3 7 6 13.5t8 12.5h-40Zm230.87 7.305q-39.348 14.826-76.696-3.283t-52.174-58.022l-178-488q-14.827-39.348 2.282-76.914 17.109-37.565 56.457-51.957l302-110q39.349-14.261 76.979 3.565 37.631 17.827 52.457 57.74l178 488.565q14.261 39.348-3.413 76.631t-57.022 51.675l-300.87 110Zm-79.217-477.696q20.392 0 34.718-13.937 14.326-13.938 14.326-34.542 0-20.391-14.326-34.717t-34.718-14.326q-20.391 0-34.435 14.326-14.043 14.326-14.043 34.717 0 20.392 13.937 34.436 13.938 14.043 34.541 14.043Z"/></svg>