<svg xmlns="http://www.w3.org/2000/svg" height="20" viewBox="0 -960 960 960" width="20"><path d="M174.846-155 164-159.231Q133.231-173 122.346-204.5q-10.885-31.5 3.115-60.731l49.385-107.154V-155Zm185.769 65.385q-33 0-56.5-23.5t-23.5-56.5v-164.462l78.77 218.462q3 8.769 6.5 13.884 3.5 5.116 8.5 12.116h-13.77Zm158.231-32.308q-16.846 7.616-33.731-1.346-16.884-8.962-23.5-27.577l-177-481q-7.615-16.846 1.231-34.346 8.846-17.501 26.692-24.885l298-108q16.847-7.616 32.962 1.846 16.116 9.462 23.731 27.077l177 480.462q6.615 18.615-1.077 35.5t-25.308 24.269l-299 108ZM445.692-557q17 0 29.5-12.5t12.5-29.5q0-17-12.5-29.5t-29.5-12.5q-17 0-29.5 12.5t-12.5 29.5q0 17 12.5 29.5t29.5 12.5Zm58 393 298-109-176-484-299 109 177 484Zm-177-484 299-109-299 109Z"/></svg>