<svg xmlns="http://www.w3.org/2000/svg" height="20" viewBox="0 -960 960 960" width="20"><path d="m179-149-3-1q-31-14-42-45.5t3-60.5l42-91v198Zm195 58q-33 0-56.5-23.5T294-171v-140l70 194q3 9 6.5 14t8.5 12h-5Zm143-42q-12 6-24.5-1T475-155L298-636q-6-12 1-25t20-19l298-108q12-6 23.5 1.5T658-766l177 480q5 14-.5 26.5T816-241L517-133Zm-69-424q17 0 29.5-12.5T490-599q0-17-12.5-29.5T448-641q-17 0-29.5 12.5T406-599q0 17 12.5 29.5T448-557Zm58 393 298-109-176-484-299 109 177 484ZM329-648l299-109-299 109Z"/></svg>