<svg xmlns="http://www.w3.org/2000/svg" height="20" viewBox="0 -960 960 960" width="20"><path d="M730-240q6-6 6-12.818T730-266l-50-49.579V-380q0-7.2-5.4-12.6-5.4-5.4-12.6-5.4-7.2 0-12.6 5.4-5.4 5.4-5.4 12.6v70q0 5.565 2 9.783 2 4.217 6.091 8.308L704-240q5.364 5 12.682 5.5Q724-234 730-240Zm-524-67v-111l176-62-176-62v-115q0-14.111 11.5-22.056Q229-687 242-681l401 162h-2q-65 9-117.5 47T456-371v1-1l-215 88q-12.5 7-23.75-1.444Q206-292.889 206-307Zm455.774 139Q603-168 562.5-208.726t-40.5-99.5Q522-367 562.726-407.5t99.5-40.5Q721-448 761.5-407.274t40.5 99.5Q802-249 761.274-208.5t-99.5 40.5Z"/></svg>