<svg xmlns="http://www.w3.org/2000/svg" height="24" viewBox="0 -960 960 960" width="24"><path d="M760-634.615q-45.769 0-77.884-32.115t-32.115-77.884q0-45.769 32.115-77.884 32.115-32.116 77.884-32.116t77.884 32.116q32.115 32.115 32.115 77.884t-32.115 77.884Q805.769-634.615 760-634.615ZM100.001-180.001v-599.998h473.23q-2.846 15-3.038 29.807-.192 14.808 2.269 30.192 4.308 31.231 17.807 58.538 13.5 27.308 34.192 48.693L480-520 166.154-720 160-662.309l320 204.615 191.768-122.384q19.308 12.155 41.5 18.809 22.193 6.654 46.732 6.654 26.23 0 52.038-7.5 25.807-7.5 47.961-22.499v404.613H100.001Z"/></svg>