<svg xmlns="http://www.w3.org/2000/svg" height="24" viewBox="0 -960 960 960" width="24"><path d="M760-626.999q-55.417 0-94.209-38.792T626.999-760q0-55.417 38.792-94.209T760-893.001q55.417 0 94.209 38.792T893.001-760q0 55.417-38.792 94.209T760-626.999ZM60.782-140.782v-678.436h495.305q-7.957 25.652-9.088 52.718-1.13 27.065 5.131 53.283 7.565 33.13 24.696 61.196 17.13 28.065 41.261 50.195L480-513.217l-313.217-200v97.523l313.217 200 219.479-140.479q14.739 4.869 29.706 7.022 14.967 2.152 30.815 2.152 38.783 0 74.588-13.392 35.804-13.391 64.63-39.044v458.653H60.782Z"/></svg>