<svg xmlns="http://www.w3.org/2000/svg" height="20" viewBox="0 -960 960 960" width="20"><path d="M87.87-183.869v-592.262h461.782q-3.674 19.392-3.152 40.881.522 21.489 6.478 42.12H170.87l309.13 179 136.413-79.566q15.435 13.957 40.348 25.674 24.913 11.718 44.826 16.718L480-421.717l-309.13-179v333.847h618.26v-285.608q23.348-4.544 43.718-15.598 20.37-11.054 39.283-25.685v409.892H87.869Zm83-509.261v426.26-426.26ZM744-618.5q-52.292 0-88.896-36.604T618.5-744q0-52.292 36.604-88.896T744-869.5q52.292 0 88.896 36.604T869.5-744q0 52.292-36.604 88.896T744-618.5Z"/></svg>