<svg xmlns="http://www.w3.org/2000/svg" height="20" viewBox="0 -960 960 960" width="20"><path d="M744-610.999q-55.417 0-94.209-38.792T610.999-744q0-55.417 38.792-94.209T744-877.001q55.417 0 94.209 38.792T877.001-744q0 55.417-38.792 94.209T744-610.999ZM76.782-172.782v-614.436h468.305q-5.957 22.652-6.088 47.718-.13 25.065 7.131 50.283 7.565 28.13 24.196 54.196 16.63 26.065 40.761 47.195L480-510.217l-305.217-179v102.523l305.217 179 226.479-134.479q6.739.869 16.802 2.022 10.064 1.152 20.719 1.152 38.783 0 70.588-12.892 31.804-12.891 68.63-41.544v420.653H76.782Z"/></svg>