<svg xmlns="http://www.w3.org/2000/svg" height="20" viewBox="0 -960 960 960" width="20"><path d="M116.001-212.001v-535.998h446.23q-.846 12-.038 25.307.808 13.308 4.269 26.692H174.154L480-517l138.461-82.154q10.539 9.923 28.923 19.384 18.384 9.462 31.384 13.692L480-449.694 168-633.309v357q0 5.385 3.462 8.847 3.462 3.462 8.847 3.462h599.382q5.385 0 8.847-3.462 3.462-3.462 3.462-8.847v-277.147q14.23-3.39 26.538-10.197 12.307-6.808 25.461-14.961v366.613H116.001ZM168-696V-264v-432Zm576 77.385q-45.769 0-77.884-32.115t-32.115-77.884q0-45.769 32.115-77.884 32.115-32.116 77.884-32.116t77.884 32.116q32.115 32.115 32.115 77.884t-32.115 77.884Q789.769-618.615 744-618.615Z"/></svg>