<svg xmlns="http://www.w3.org/2000/svg" height="20" viewBox="0 -960 960 960" width="20"><path d="M240.615-184q-22.846 0-39.731-16.884Q184-217.769 184-240.615v-478.77q0-23.546 16.884-40.081Q217.769-776 240.615-776h478.77q23.546 0 40.081 16.534Q776-742.931 776-719.385v478.77q0 22.846-16.534 39.731Q742.931-184 719.385-184h-478.77ZM496-464v248h223.385q10.769 0 17.692-6.923T744-240.615V-464H496Zm0-32h248v-223.385q0-10.769-6.923-17.692T719.385-744H496v248Zm-32 0v-248H240.615q-10.769 0-17.692 6.923T216-719.385V-496h248Zm0 32H216v223.385q0 10.769 6.923 17.692T240.615-216H464v-248Z"/></svg>