<svg xmlns="http://www.w3.org/2000/svg" height="20" viewBox="0 -960 960 960" width="20"><path d="M262.385-175.384q-26.659 0-50.791-10.154-24.133-10.154-43.902-26.616 19.846-11.077 35.269-32.115 15.423-21.039 15.423-54.097 0-35.104 23.577-59.061 23.577-23.958 58.924-23.958 35.346 0 58.923 23.83 23.577 23.83 23.577 58.751 0 50.92-35.544 87.17t-85.456 36.25Zm-.177-44.001q31.835 0 54.506-23.206t22.671-55.794q0-16.575-10.925-27.787-10.925-11.213-27.075-11.213-16.575 0-27.788 11.213-11.212 11.212-11.212 27.787 0 24.132-6 44.066t-17 33.934q4 2 11 1.5t11.823-.5ZM456-380l-71.462-71.462 346.693-349.692 73.462 71.462L456-380Zm-154.615 81.615Z"/></svg>