<svg xmlns="http://www.w3.org/2000/svg" height="20" viewBox="0 -960 960 960" width="20"><path d="M267-192q-20.256 0-38.128-6T194-214q18-15 29.5-36.5t11.5-52.481q0-30.258 20-50.639Q275-374 305.5-374t50.5 20.253q20 20.252 20 50.328 0 45.969-32.019 78.694T267-192Zm-.176-32q31.835 0 54.505-23.206Q344-270.413 344-303q0-16.575-10.925-27.788Q322.15-342 306-342q-16.575 0-27.788 11.212Q267-319.575 267-303q0 24.131-6 44.066Q255-239 244-225q4 2 11 1.5t11.824-.5ZM450-386l-59-59 337-340 61 59-339 340Zm-144 83Z"/></svg>