<svg xmlns="http://www.w3.org/2000/svg" height="20" viewBox="0 -960 960 960" width="20"><path d="M471-35q-49.7 0-83.85-34.15Q353-103.3 353-153v-336q0-49.7 34.15-83.85Q421.3-607 471-607h336q49.7 0 83.85 34.15Q925-538.7 925-489v336q0 49.7-34.15 83.85Q856.7-35 807-35H471ZM194-284v-364q0-49.7 34.15-83.85Q262.3-766 312-766h364q24.3 0 41.65 17.289 17.35 17.29 17.35 41.5Q735-683 717.65-665.5T676-648H312v364q0 24.3-17.289 41.65-17.29 17.35-41.5 17.35Q229-225 211.5-242.35T194-284ZM35-428v-379q0-49.7 34.15-83.85Q103.3-925 153-925h379q24.3 0 41.65 17.289 17.35 17.29 17.35 41.5Q591-842 573.65-824.5T532-807H153v379q0 24.3-17.289 41.65-17.29 17.35-41.5 17.35Q70-369 52.5-386.35T35-428Z"/></svg>