<svg xmlns="http://www.w3.org/2000/svg" height="24" viewBox="0 -960 960 960" width="24"><path d="M272.109-121.435v-242.174q-85.718-15.913-142.859-82.728-57.141-66.815-57.141-156.293 0-102.153 71.673-173.827 71.674-71.674 173.827-71.674 88.761 0 154.261 57.5t82.369 142.5h160.326l-63.239-64 63.652-63.652L888.131-602.63 714.978-429.478l-64.413-63.652 64-64H470.109v-51.001q0-62.413-44.685-105.706-44.685-43.293-107.815-43.293-63.848 0-109.174 45.326-45.326 45.326-45.326 109.174 0 63.13 43.293 107.815 43.294 44.684 105.707 44.684h51v328.696h-91Z"/></svg>