<svg xmlns="http://www.w3.org/2000/svg" height="20" viewBox="0 -960 960 960" width="20"><path d="M280.109-145.435v-218.174q-81.718-14.913-136.859-78.228-55.141-63.315-55.141-148.793 0-97.153 68.173-165.327 68.174-68.174 165.327-68.174 84.761 0 146.761 55.5t77.869 136.5h167.326l-57.239-57 58.652-58.652L872.131-590.63 714.978-433.478l-58.413-58.652 57-57H470.109v-47.001q0-61.413-43.685-103.206-43.685-41.793-104.815-41.793-62.848 0-106.674 43.826-43.826 43.826-43.826 106.674 0 61.13 41.793 104.815 41.794 43.684 103.207 43.684h47v296.696h-83Z"/></svg>