<svg xmlns="http://www.w3.org/2000/svg" height="20" viewBox="0 -960 960 960" width="20"><path d="M449.538-184q-15.784 0-27.277-11.492-11.492-11.492-11.492-27.277v-240.462h136v240.462q0 15.785-11.492 27.277T508-184h-58.462Zm-38.769-312v-168H304.23q-12.944 0-20.087-11.461-7.143-11.462-1.836-23.846 19.154-35.231 53.077-55.962T410.154-776H508q15.785 0 27.277 11.492t11.492 27.277v76.615l105.393-105.393q5.838-5.837 10.338-7.914Q667-776 673.31-776h2.119q7.785 0 13.255 4.569 5.47 4.569 5.47 11.39v206.527q0 6.822-5.47 11.552-5.47 4.731-13.255 4.731h-2.119q-6.31 0-10.81-2.077-4.5-2.077-10.338-7.914L546.769-652.615V-496h-136Z"/></svg>