<svg xmlns="http://www.w3.org/2000/svg" height="24" viewBox="0 -960 960 960" width="24"><path d="M160-597.846v-50.385l182.538-182.538h50.385L160-597.846Zm0-162.923v-46.924l23.077-23.076H230l-70 70Zm440.846 49.308q-6.923-5.616-14.577-11.116-7.653-5.5-15.038-9.654l98.538-98.538h50.385L600.846-711.461ZM183.077-344.077l124.692-124.692q4.692 8.692 8.731 15.385 4.038 6.692 9.192 12.384L268-383.308q-18.769 5.462-40.73 15.577-21.962 10.116-44.193 23.654Zm482.308-269.307v-.462q-1.539-8.231-4.923-18.538-3.385-10.308-7.846-18.077L800-797.846V-748L665.385-613.384ZM422.154-746.769l84.231-84h50.384l-76.307 76.307q-2.539-.461-4.846-.692-2.308-.231-4.847-.231-11 .769-24.307 3.308-13.308 2.538-24.308 5.308ZM160-434.23v-50.385l133.231-133.231q-3.539 12.538-5.693 24.692Q285.384-581 285.384-570q0 2.539.231 4.846.231 2.308.693 4.616L160-434.23Zm577.462 76.077q-7.231-5.077-14.654-9.539t-16.346-9.615L800-470.846v50.385l-62.538 62.308Zm-79.846-83.539q2.23-6.846 3.307-13.192t1.769-12.962q1-7.615.577-15.23-.423-7.616-.961-14.231L800-635.23v51.384L657.616-441.692ZM480-440q-49.846 0-84.923-35.077Q360-510.154 360-560q0-49.846 35.077-84.923Q430.154-680 480-680q49.846 0 84.923 35.077Q600-609.846 600-560q0 49.846-35.077 84.923Q529.846-440 480-440Zm0-40q33 0 56.5-23.5T560-560q0-33-23.5-56.5T480-640q-33 0-56.5 23.5T400-560q0 33 23.5 56.5T480-480ZM200-160v-56.384q0-27.847 15.077-48.001 15.077-20.153 38.154-32.077 48.692-23.692 106.269-39 57.577-15.307 120.5-15.307t120.5 15.307q57.577 15.308 106.269 39 22.308 11.154 37.77 32.077Q760-243.461 760-216.384V-160H200Zm40.231-40h479.538q-.461-25.923-7-39.346-6.538-13.423-25.307-22.038-37.539-18-89.577-33.693Q545.846-310.769 480-310.769t-117.885 15.692q-52.038 15.693-89.577 33.693-18 8.615-24.923 22.153-6.923 13.539-7.384 39.231ZM480-200Zm0-360Z"/></svg>