<svg xmlns="http://www.w3.org/2000/svg" height="20" viewBox="0 -960 960 960" width="20"><path d="M184-599.846v-50.385l156.538-156.538h50.385L184-599.846Zm0-156.923v-26.924l23.077-23.076H234l-50 50Zm402.846 63.308q-5.923-5.616-13.577-11.116-7.653-5.5-16.038-9.654l91.538-92.538h50.385L586.846-693.461ZM177.077-335.077l149.692-149.692q5.692 9.692 13.731 20.385 8.038 10.692 12.192 16.384L276-380.308q-20.769 5.462-47.23 17.577-26.462 12.116-51.693 27.654Zm466.308-263.307q0-1-3-3.231t-3-4.231q-1.539-6.231-.423-17.038 1.115-10.808-2.346-15.577L776-777.846V-729L643.385-598.384ZM407.154-716.769l87.231-90h50.384l-71.307 75.307q-.539-.461-1.346-.192-.808.269-.347.269-17 .769-34.307 4.808-17.308 4.038-30.308 9.808ZM184-445.23v-50.385l138.231-134.231q-6.539 15.538-7.693 34.192T313.384-562q0-.461-1.269-6.654-1.269-6.192-.807-4.884L184-445.23Zm529.462 82.077q-7.231-5.077-13.654-9.539t-17.346-9.615L776-468.846v50.385l-62.538 55.308Zm-72.846-79.539q3.23-5.846 3.307-12.692.077-6.846.769-13.462 2-7.615 1.077-14.73-.923-7.116-1.461-13.731L776-624.23v50.384L640.616-442.692ZM480-448q-46.846 0-75.423-29.577Q376-507.154 376-552q0-45.846 29.077-80.423Q434.154-667 481-667q45.846 0 74.423 34.577Q584-597.846 584-552q0 44.846-29.077 74.423Q525.846-448 480-448ZM232-184v-53.384q0-22.847 13.577-41.001 13.577-18.153 32.654-29.077 51.692-25.692 102.769-34.5 51.077-8.807 99-8.807 46.923 0 98 8.807 51.077 8.808 102.769 34.5 18.308 10.154 32.77 29.077Q728-259.461 728-237.384V-184H232Z"/></svg>