<svg xmlns="http://www.w3.org/2000/svg" height="24" viewBox="0 -960 960 960" width="24"><path d="m822.826-22.978-59.239-59v5.565h-76.174v-81.978L25.804-820l59.392-59.391L882.218-82.37l-59.392 59.392Zm-48.239-285.565-89.696-89.935-117.478-117.479V-680q0-84.913 60.772-144.25t146.402-59.337v575.044ZM491-592.37l-87.413-87.174v-204.043H491v291.217ZM363.587-719.544l-87.174-87.413v-76.63h87.174v164.043ZM236.413-846.957l-36.869-36.63h36.869v36.63Zm40 770.544v-365.283q-52.674-14-90.044-58.391Q149-544.478 149-603.587v-212l87.413 87.413v124.587h40v-84.587L361-604.348l96.935 97.696q-17.435 23.717-41.772 40.456-24.337 16.74-52.576 24.5v365.283h-87.174Z"/></svg>