<svg xmlns="http://www.w3.org/2000/svg" height="20" viewBox="0 -960 960 960" width="20"><path d="m806.826-50.978-41.239-40v-1.435h-62.174v-60.978L54.804-803l53.392-52.391L859.218-104.37l-52.392 53.392Zm-24.239-236.565-78.696-78.935v-66h-66l-54.478-54.479V-672q0-81.913 58.272-138.25t140.902-57.337v580.044Zm-293.5-298.5-77.5-72.501v-209.043H491l-1.913 281.544Zm-113.5-108.501-79.174-79.413v-93.63h79.174v173.043ZM260.413-809.957l-63.869-57.63h63.869v57.63Zm36 717.544v-388.283q-49.674-13-82.544-52.391Q181-572.478 181-627.587v-155l79.413 79.413v75.587h36v-39.587L372-591.348l72.935 72.696q-17.435 14.717-30.772 22.456-13.337 7.74-38.576 15.5v388.283h-79.174Z"/></svg>