<svg xmlns="http://www.w3.org/2000/svg" height="20" viewBox="0 -960 960 960" width="20"><path d="M467.54-223.538q53.21 0 89.45-38.577 36.241-38.577 36.241-93.577v-139.077q0-6.838-4.52-11.419-4.521-4.581-11.27-4.581t-11.479 4.581q-4.731 4.581-4.731 11.419v139.077q0 40.804-27.193 70.478-27.192 29.675-66.529 29.675-39.063 0-65.901-29.675-26.839-29.674-26.839-70.478v-178.462q0-16.923 11.046-30.077 11.047-13.153 27.57-13.153 16.153 0 27.384 13.153Q452-551.077 452-534.154v174.705q0 6.295 4.52 11.026t11.269 4.731q6.75 0 11.48-4.581Q484-352.854 484-359.692v-174.462q0-30.32-20.082-52.775-20.083-22.456-50.308-22.456t-50.533 22.456q-20.308 22.455-20.308 52.775v178.462q0 55 35.885 93.577 35.884 38.577 88.886 38.577ZM288.332-136Q264-136 248-152.15t-16-40.465v-574.77q0-24.315 16.15-40.465Q264.3-824 288.615-824h276.616L728-661.231v468.616q0 24.315-16.162 40.465Q695.676-136 671.344-136H288.332Zm.283-32h382.77q9.23 0 16.923-7.692Q696-183.385 696-192.615v-440.616H565.538q-12.223 0-20.265-8.042t-8.042-20.265V-792H288.615q-9.23 0-16.923 7.692Q264-776.615 264-767.385v574.77q0 9.23 7.692 16.923Q279.385-168 288.615-168ZM264-792v179.769V-792v624-624Z"/></svg>