<svg xmlns="http://www.w3.org/2000/svg" height="20" viewBox="0 -960 960 960" width="20"><path d="M467.54-204q64.517 0 110.489-45.5Q624-295 624-360v-92q0-15.3-10.289-25.65-10.29-10.35-25.5-10.35Q573-488 562.5-477.65 552-467.3 552-452v92q0 34.65-25 59.325Q502-276 467.016-276q-33.955 0-58.485-24.675Q384-325.35 384-360v-176.333q0-9.85 6.7-16.759Q397.4-560 408-560q10 0 17 6.899 7 6.898 7 16.732v152.926Q432-369 442.289-358.5q10.29 10.5 25.5 10.5Q483-348 493.5-358.35 504-368.7 504-383.655V-536q0-40.32-27.775-68.16-27.774-27.84-68-27.84Q368-632 340-604.16q-28 27.84-28 68.16v176q0 65 45.5 110.5T467.54-204ZM275.717-62Q226-62 192-96.15T158-180v-600q0-49.7 34.15-83.85Q226.3-898 276-898h294l232 232v486q0 49.7-34.162 83.85Q733.676-62 683.96-62H275.717ZM276-180h408v-444h-97q-24.3 0-41.65-17.35Q528-658.7 528-683v-97H276v600Zm0-600v177-177 600-600Z"/></svg>