<svg xmlns="http://www.w3.org/2000/svg" height="24" viewBox="0 -960 960 960" width="24"><path d="M553-129H343q-53 0-89.5-36.5T217-255v-370q0-23.375 16.5-39.188Q250-680 273-680t39 15.812q16 15.813 16 39.188v385h225q23.375 0 39.188 15.812Q608-208.375 608-185q0 23-15.812 39.5Q576.375-129 553-129Zm-66.5-591q-39.5 0-67.5-27.906T391-815q0-39.6 27.906-67.8Q446.812-911 486-911q40 0 67.5 28.075t27.5 67.5Q581-776 553.5-748t-67 28ZM648-128v-152H448q-33 0-56.5-23.5T368-360v-202q0-49 34.5-83.5T486-680q49 0 83.5 34.5T604-562v147h59q33 0 56.5 23.5T743-335v208q0 19.975-13.518 33.487Q715.965-80 695.982-80 676-80 662-93.8T648-128Z"/></svg>