<svg xmlns="http://www.w3.org/2000/svg" height="20" viewBox="0 -960 960 960" width="20"><path d="m468.391-112.477-21.435-334.305-129.044-48.739H74.956q-18.691 0-31.585-12.833-12.894-12.833-12.894-31.435 0-18.602 12.894-31.646t31.585-13.044h210.218l260.175-193.349q13.261-10.261 31.718-8.478 18.456 1.783 29.152 15.609 13.826 14.261 11.044 34.218-2.783 19.956-18.609 30.652l-129.522 97.348h80.607l283.174-174.914q14.391-8.826 30.927-6.142 16.537 2.684 30.639 18.273 12.13 14.695 10.195 33.239-1.934 18.544-16.5 29.805L584.479-462.477l-21.435 350q-.9 17.707-14.526 30.093Q534.891-70 513.835-70q-18.357 0-31.442-12.103-13.086-12.103-14.002-30.375ZM263.788-632.479q-33.179 0-56.723-24.038-23.544-24.039-23.544-57.218t23.756-56.723q23.756-23.543 56.935-23.543t56.723 23.756q23.544 23.756 23.544 56.935t-23.756 57.005q-23.756 23.826-56.935 23.826Z"/></svg>