<svg xmlns="http://www.w3.org/2000/svg" height="24" viewBox="0 -960 960 960" width="24"><path d="m468.391-100.477-17.435-360.305-149.044-50.739H70.956q-20.391 0-34.435-14.044Q22.477-539.609 22.477-560q0-20.391 14.044-34.435 14.044-14.044 34.435-14.044h206.218l273.175-199.349q15.261-11.261 34.218-8.978 18.956 2.283 31.652 17.109 13.826 16.261 11.544 36.718-2.283 20.456-19.109 33.152L473.132-628.479h84.607l283.174-185.914q14.391-9.826 31.283-6.826 16.891 3 31.283 19.957 12.13 13.695 10.695 31.739-1.434 18.044-15 30.305L588.479-462.477l-17.435 362q-1 19.391-15.826 32.935Q540.391-54 517.435-54q-19.957 0-34.001-13.26-14.043-13.262-15.043-33.218ZM240-648.479q-36.391 0-62.435-26.326-26.044-26.326-26.044-62.718 0-36.391 26.044-62.435 26.044-26.043 62.435-26.043 36.391 0 62.435 26.043 26.044 26.044 26.044 62.435 0 36.392-26.044 62.718T240-648.479Z"/></svg>