<svg xmlns="http://www.w3.org/2000/svg" height="24" viewBox="0 -960 960 960" width="24"><path d="M498.769-120.308 491.538-490l-196.153-50H56.923q-8.5 0-14.25-5.758-5.75-5.757-5.75-14.269t5.75-14.242Q48.423-580 56.923-580h229.231l292.307-205.923q6.846-4.385 13.77-3.154 6.923 1.231 12.538 7.195 5.616 6.959 4.641 15.094-.974 8.134-7.795 13.557l-171 121.693 147.077 34.615 276.769-169.616q5.616-3.153 12.193-2.461 6.577.692 12.192 7.292 5.616 6.093 4.769 13.9-.846 7.808-7.692 12.423L570.769-503.846 542-119.538q-1 8.307-6.989 13.923Q529.022-100 519.538-100q-8.307 0-14.278-5.878-5.972-5.879-6.491-14.43Zm-251.077-532q-27.923 0-47.807-19.884Q180-692.077 180-720t19.885-47.808q19.884-19.884 47.807-19.884 27.923 0 47.808 19.884 19.885 19.885 19.885 47.808T295.5-672.192q-19.885 19.884-47.808 19.884Z"/></svg>