<svg xmlns="http://www.w3.org/2000/svg" height="24" viewBox="0 -960 960 960" width="24"><path d="M280-316.609h400q60.348 0 102.826-42.478 42.478-42.478 42.478-102.825 0-60.348-42.478-102.826Q740.348-607.216 680-607.216H280q-60.348 0-102.826 42.478-42.478 42.478-42.478 102.826 0 60.347 42.478 102.825T280-316.609Zm200-145.303Zm-66.999-251.305h133.998v-40H413.001v40ZM266.999-92.303v-118.869q-100-5.088-169.152-77.066-69.152-71.978-69.152-173.674 0-104.71 73.297-178.008Q175.29-713.217 280-713.217h26.999v-146.001h346.002v146.001H680q104.71 0 178.008 73.297 73.297 73.298 73.297 178.008 0 101.696-69.152 173.674-69.152 71.978-169.152 77.066v118.87H586.999v-118.305H373.001v118.304H266.999Z"/></svg>