<svg xmlns="http://www.w3.org/2000/svg" height="24" viewBox="0 -960 960 960" width="24"><path d="M442.652-434.696q34.608 0 58.63-24.587 24.022-24.587 24.022-59.063t-24.022-58.065Q477.26-600 442.652-600q-34.609 0-58.63 23.589Q360-552.822 360-518.346t24.022 59.063q24.021 24.587 58.63 24.587ZM631.695-260 529.521-362.174q-20 10.739-41.934 16.457Q465.652-340 442.652-340q-74.392 0-125.87-51.969-51.478-51.969-51.478-126.51 0-73.261 51.639-124.739 51.64-51.478 125.709-51.478t125.708 51.478Q620-591.74 620-518.479q0 23.191-5.935 45.879-5.935 22.687-17.804 43.252L698.87-326.74 631.695-260ZM100.782-100.782V-360h106.001v153.217H360v106.001H100.782Zm499.218 0v-106.001h153.217V-360h106.001v259.218H600ZM100.782-600v-259.218H360v106.001H206.783V-600H100.782Zm652.435 0v-153.217H600v-106.001h259.218V-600H753.217Z"/></svg>