<svg xmlns="http://www.w3.org/2000/svg" height="20" viewBox="0 -960 960 960" width="20"><path d="M434-416q45.467 0 77.733-32.267Q544-480.533 544-526q0-45.467-32.267-77.733Q479.467-636 434-636q-45.467 0-77.733 32.267Q324-571.467 324-526q0 45.467 32.267 77.733Q388.533-416 434-416Zm188 92L520-428q-19 14-40.219 23-21.22 9-45.4 9-54.522 0-92.452-37.793Q304-471.585 304-525.792 304-580 341.793-618q37.792-38 92-38Q488-656 526-618.022q38 37.977 38 92.451 0 24.163-8.5 45.367Q547-459 533-440l103 101-14 15ZM196-196v-188h20v168h168v20H196Zm380 0v-20h168v-168h20v188H576ZM196-576v-188h188v20H216v168h-20Zm548 0v-168H576v-20h188v188h-20Z"/></svg>