<svg xmlns="http://www.w3.org/2000/svg" height="20" viewBox="0 -960 960 960" width="20"><path d="M444-432q35.467 0 59.733-24.267Q528-480.533 528-516t-24.267-59.733Q479.467-600 444-600t-59.733 24.267Q360-551.467 360-516t24.267 59.733Q408.533-432 444-432Zm177 144-95-96q-19 11-39.719 17.5-20.72 6.5-41.9 6.5Q379-360 333.5-405.392t-45.5-110.5Q288-581 333.392-626.5t110.5-45.5Q509-672 554.5-626.452 600-580.903 600-515.571q0 21.163-6.5 41.867Q587-453 576-434l96 95-51 51ZM144-144v-240h72v168h168v72H144Zm432 0v-72h168v-168h72v240H576ZM144-576v-240h240v72H216v168h-72Zm600 0v-168H576v-72h240v240h-72Z"/></svg>