<svg xmlns="http://www.w3.org/2000/svg" height="24" viewBox="0 -960 960 960" width="24"><path d="M440-404q48 0 82-34t34-82q0-48-34-82t-82-34q-48 0-82 34t-34 82q0 48 34 82t82 34Zm204 108L532-409q-20 16-43 24.5t-49 8.5q-60.141 0-102.071-41.9Q296-459.801 296-519.9q0-60.1 41.9-102.1 41.901-42 102-42 60.1 0 102.1 41.929 42 41.93 42 102.071 0 26-8.5 49T551-428l113 112-20 20ZM172-172v-188h28v160h160v28H172Zm428 0v-28h160v-160h28v188H600ZM172-600v-188h188v28H200v160h-28Zm588 0v-160H600v-28h188v188h-28Z"/></svg>