<svg xmlns="http://www.w3.org/2000/svg" height="24" viewBox="0 -960 960 960" width="24"><path d="M446.891-426.218q36.565 0 61.728-25.402 25.163-25.402 25.163-61.911t-25.163-61.489Q483.456-600 446.891-600t-61.728 24.98Q360-550.04 360-513.531t25.163 61.911q25.163 25.402 61.728 25.402ZM638.217-260 534.413-363.804q-20 12.043-42.261 17.924-22.261 5.88-45.261 5.88-72.435 0-122.772-50.544-50.337-50.545-50.337-123.043 0-71.957 50.406-122.294 50.405-50.337 122.703-50.337 72.299 0 122.704 50.337Q620-585.544 620-513.587q0 23.081-6.261 45.66-6.261 22.579-18.782 42.818l104.565 104.565L638.217-260ZM111.869-111.869V-360h91.001v157.13H360v91.001H111.869Zm488.131 0v-91.001h157.13V-360h91.001v248.131H600ZM111.869-600v-248.131H360v91.001H202.87V-600h-91.001Zm645.261 0v-157.13H600v-91.001h248.131V-600H757.13Z"/></svg>