<svg xmlns="http://www.w3.org/2000/svg" height="24" viewBox="0 -960 960 960" width="24"><path d="M131-581q-3.5-3-4.25-7.5T129-598q63-83 154.585-130.5Q375.171-776 479-776q105.279 0 198.639 45.5Q771-685 833-600q5 6 3 11.5t-7 8.5q-5 3-10.455 2.611-5.454-.389-9.545-6.611-57-80-144.461-122Q577.078-748 479-748q-97 0-183 43T153-584q-5 7-11 7t-11-4ZM593-86q-100-26-165-102.049Q363-264.097 363-374q0-48 35-80t83.069-32q48.069 0 82 32T597-374q0 35.538 26.695 59.769t63 24.231Q723-290 749-314.5t26-59.5q0-118.54-87.303-199.27T479.197-654Q358-654 271.5-572.974 185-491.949 185-374q0 24.5 6 61.25T213-228q2 6 0 10.5t-8 7.5q-6 3-11 .433-5-2.566-7-8.433-16-42-23-79.5t-7-76.5q0-130.875 95.038-219.438Q347.076-682 479.045-682 612-682 707.5-593.438 803-504.875 803-374q0 47.863-33.754 79.932Q735.492-262 687-262q-48 0-83-32.068-35-32.069-35-79.932 0-35-25.976-59.5T481-458q-36.867 0-63.434 24.231Q391-409.538 391-374q0 99.991 59.5 166.996Q510-140 601-114q6.545 2.062 9.273 6.875 2.727 4.813.727 10.313Q609-92 605-88q-4 4-12 2ZM253-788q-3 2-8.5.5T237-794q-2-5-1.5-10t5.5-8q55-31 116-46.5T481-874q62.683 0 122.428 15.5T719-814q8 4 9 9.5t-1 10.5q-2 5-7.5 7t-10.5-1q-52-30-109.974-44-57.974-14-118.513-14Q421-846 364-830.5 307-815 253-788ZM381-98q-56-60-88-125t-32-151.034Q261-463 325.547-523.5q64.547-60.5 155.5-60.5T636.5-523.5Q701-463 701-374q0 6.3-3.85 10.15Q693.3-360 687-360q-5 0-9.5-3.85T673-374q0-77-56.977-129.5t-135-52.5Q403-556 346-503.5t-57 129.423Q289-291 318-234t83 115.81q6 6.19 4.5 11.69Q404-101 401-98q-4 4-9.5 4.5T381-98Zm298-70q-86 0-150-58.578T465-374q0-5.6 3.793-9.8 3.793-4.2 10-4.2T489-383.8q4 4.2 4 9.8 0 78.07 55.5 128.035T679-196q11 0 22-1t22-3q5-1 8.5 1.5t5.5 8.707q2 5.517-2 9.655Q731-176 725-174q-9 2-21.5 4t-24.5 2Z"/></svg>