<svg xmlns="http://www.w3.org/2000/svg" height="24" viewBox="0 -960 960 960" width="24"><path d="M549.231-80h-100.77q-13.153 0-22.73-9.192t-9.577-21.577v-208.462q0-12.384 9.577-21.577 9.577-9.192 22.73-9.192h30.001v-156.154q0-10-8.077-16.923Q462.308-530 450.769-530H187.692q-28.385 0-48.038-18.884Q120-567.769 120-594.615v-121.539q0-26.077 19.654-44.961Q159.307-780 187.692-780h49.231v-29.231q0-12.385 9.577-21.577Q256.077-840 269.231-840h458.462q13.153 0 22.73 9.192T760-809.231v98.462q0 12.385-9.577 21.577-9.577 9.192-22.73 9.192H269.231q-13.154 0-22.731-9.192-9.577-9.192-9.577-21.577V-740h-49.231q-12.307 0-20 6.923Q160-726.154 160-716.154v121.539q0 10.769 7.692 17.692 7.693 6.923 20 6.923h263.077q27.616 0 47.654 18.885 20.039 18.884 20.039 44.961V-350h30.769q13.154 0 22.346 9.192 9.193 9.193 9.193 21.577v208.462q0 12.385-9.193 21.577Q562.385-80 549.231-80Z"/></svg>