<svg xmlns="http://www.w3.org/2000/svg" height="24" viewBox="0 -960 960 960" width="24"><path d="M424-242q13 11 27.5 15.5T480-222q29 0 52.5-18.5T560-294q5-47-29-69.5T480-422q-5 14-5 26t3 26q3 17 7 32t1 32q-5 18-22 37t-40 27Zm-304 57.385v-590.77q0-26.654 18.981-45.634Q157.961-840 184.615-840h590.77q26.654 0 45.634 18.981Q840-802.039 840-775.385v590.77q0 26.654-18.981 45.634Q802.039-120 775.385-120h-590.77q-26.654 0-45.634-18.981Q120-157.961 120-184.615ZM480-200q50 0 85-35t35-85q0-25.539-10-41.539T562-390q-38-27-63.5-56.5T458-506q-44 35-71 79.5T360-322q0 35 36 78.5t84 43.5Zm-295.385 40h83.077v-9.231q0-12.385 9.192-21.577Q286.077-200 298.461-200h88.462Q357-222.846 338.5-256.77 320-290.693 320-322q0-74.231 34.154-129.654t94.231-96.654q6.923-5.231 14.615-5.616 7.692-.384 14.385 2.308 6.692 2.692 11.923 7.462 5.231 4.769 7.769 12.692 13.538 37.077 36.308 62.538 22.769 25.462 54.154 48.308 25.307 19.385 38.884 44.577Q640-350.846 640-320q0 32.692-13.692 64.115-13.692 31.423-43.231 55.885h78.462q12.384 0 21.577 9.192 9.192 9.192 9.192 21.577V-160h83.077q10.769 0 17.692-6.923T800-184.615v-590.77q0-10.769-6.923-17.692T775.385-800h-590.77q-10.769 0-17.692 6.923T160-775.385v590.77q0 10.769 6.923 17.692T184.615-160ZM480-200Z"/></svg>