<svg xmlns="http://www.w3.org/2000/svg" height="24" viewBox="0 -960 960 960" width="24"><path d="M160-460q-16.667 0-28.334-11.64Q120-483.28 120-499.91q0-16.629 11.666-28.359Q143.333-540 160-540h240q16.667 0 28.333 11.64Q440-516.719 440-500.09q0 16.629-11.667 28.359Q416.667-460 400-460H160Zm399.231 0q-16.667 0-28.334-11.64-11.666-11.64-11.666-28.27 0-16.629 11.666-28.359Q542.564-540 559.231-540h240q16.667 0 28.333 11.64 11.667 11.641 11.667 28.27 0 16.629-11.667 28.359Q815.898-460 799.231-460h-240Z"/></svg>