<svg xmlns="http://www.w3.org/2000/svg" height="24" viewBox="0 -960 960 960" width="24"><path d="M590.696-161.868q-24.826 29.391-62.413 33.174-37.587 3.783-67.544-20.478L277.043-302.608q-27.131-22.13-47.544-50.261-20.413-28.13-34.109-60.261-12.696 11.435-28.261 17.37-15.565 5.934-32.565 5.934H43.259v-356.175h91.305q30.696 0 55.174 18 24.478 18 32.87 47 41.957-61.392 106.196-96.305 64.239-34.913 138.326-34.913 49.522 0 94.262 17.978 44.739 17.979 82.131 49.805l185.261 152.87q29.392 23.826 32.74 61.414 3.348 37.587-21.044 66.978L590.696-161.868Z"/></svg>