<svg xmlns="http://www.w3.org/2000/svg" height="20" viewBox="0 -960 960 960" width="20"><path d="M395.504-597q-19.495 0-32.5-13.212-13.004-13.213-13.004-33Q350-663 363.004-676q13.005-13 32.5-13Q415-689 428.5-675.788q13.5 13.213 13.5 33Q442-623 428.5-610q-13.5 13-32.996 13Zm276.418 475Q603-122 554.5-170.578q-48.5-48.577-48.5-117.5Q506-357 554.578-405.5q48.577-48.5 117.5-48.5Q741-454 789.5-405.422q48.5 48.577 48.5 117.5Q838-219 789.422-170.5q-48.577 48.5-117.5 48.5ZM727-207l26-26-63-62.594V-378h-36v98l73 73Zm-519 59v-664h376v280q-6 3-10.5 5t-10.262 5v-270H228v331q15-17 36.79-28 21.791-11 47.21-11h168q8.015 0 15.508 1Q503-498 511-493q-43 35-68.5 79.5T411-317h-5v-89h-20v72h-72v20h72v72h26.244v-54Q412-256 423.5-219t32.5 71H208Z"/></svg>