<svg xmlns="http://www.w3.org/2000/svg" height="20" viewBox="0 -960 960 960" width="20"><path d="M280-154h131-199 68ZM104-46v-868h517v350q-29 6-56.5 16.5T512.238-522v-284H212v262q14-5 31.79-10.5Q261.581-560 280-560h165.309q23.039 0 45.365 5.5T534-535q-27 16-51.5 38.5T440-450q-4-2-8-2H280q-28.05 0-48.025 19.975Q212-412.05 212-384v230h199q26 34 53.087 61.395Q491.174-65.21 523-46H104Zm258.504-559q-31.495 0-53-21.712-21.504-21.713-21.504-53Q288-711 309.504-733q21.505-22 52.5-22Q393-755 415.5-732.906q22.5 22.093 22.5 53.118Q438-648 415.619-626.5 393.237-605 362.504-605ZM312-202h91q-8-20-10.5-41.639Q390-265.279 390-288q0-27 5-52.5t15-47.5v-16h-98v52h-52v98h52v52ZM671.774-78Q584-78 523-139.226t-61-149Q462-376 523.226-437t149-61Q760-498 821-436.774t61 149Q882-200 820.774-139t-149 61ZM727-171l62-62-73-74v-97h-88v134.577L727-171Z"/></svg>