<svg xmlns="http://www.w3.org/2000/svg" height="24" viewBox="0 -960 960 960" width="24"><path d="M275.217-156.652h145.805-221.979H275.217ZM110.435-68.043v-823.914h528.848v330.892q-24.153 3.478-46.424 11.054-22.272 7.576-42.185 17.25v-270.587H199.043v260.283q17.044-9.565 36.207-14.207 19.163-4.641 39.967-4.641h199.357q22.926 0 44.545 6.261 21.62 6.261 41.859 17.261-24.913 12.434-47.826 28.945-22.913 16.511-40.631 36.903-.76 0-1.521-.381-.761-.38-1.522-.38H275.217q-31.421 0-53.797 22.376-22.377 22.376-22.377 53.798v240.478h221.979q14.587 26.109 31.935 48.38Q470.304-86 491.891-68.043H110.435Zm264.543-533.87q-33.478 0-57.098-23.62-23.619-23.619-23.619-56.978t23.619-57.098q23.62-23.739 56.979-23.739 33.358 0 57.097 23.711 23.74 23.711 23.74 57.007 0 33.478-23.711 57.097-23.711 23.62-57.007 23.62Zm-43.587 405.261h76.261q-5.717-19.718-8.837-40.58-3.119-20.862-3.119-42.768 0-28.674 5.478-55.989 5.478-27.315 16.435-53.272v-44.043h-86.218v75.217h-75.217v86.218h75.217v75.217ZM680-75.696q-84.913 0-144.609-59.695Q475.696-195.087 475.696-280q0-84.913 59.695-144.609Q595.087-484.304 680-484.304q84.913 0 144.609 59.695Q884.304-364.913 884.304-280q0 84.913-59.695 144.609Q764.913-75.696 680-75.696Zm67-102.608L781.696-213l-76.913-77.152v-114.631h-49.566v134.834L747-178.304Z"/></svg>