<svg xmlns="http://www.w3.org/2000/svg" height="24" viewBox="0 -960 960 960" width="24"><path d="M374.978-601.913q-33.478 0-57.098-23.62-23.619-23.619-23.619-57.097 0-33.24 23.619-56.979 23.62-23.739 57.098-23.739 33.239 0 56.978 23.739 23.74 23.739 23.74 56.979 0 33.478-23.74 57.097-23.739 23.62-56.978 23.62ZM680-75.696q-84.913 0-144.609-59.695Q475.696-195.087 475.696-280q0-84.913 59.695-144.609Q595.087-484.304 680-484.304q84.913 0 144.609 59.695Q884.304-364.913 884.304-280q0 84.913-59.695 144.609Q764.913-75.696 680-75.696Zm67-102.608L781.696-213l-76.913-77.152v-114.631h-49.566v134.935L747-178.304ZM110.435-68.044v-823.913h528.848v330.892q-24.153 3.478-46.424 11.054-22.272 7.576-42.185 17.25v-270.587H199.043v260.283q17.044-9.565 36.207-14.207 19.163-4.641 39.967-4.641H474.5q23 0 44.619 6.261 21.62 6.261 41.859 17.261-49.565 23.239-86.348 61.402-36.782 38.163-57.021 87.728v-44.043h-86.218v75.217h-75.217v86.218h75.217v75.217h77.022q11.435 38.109 32.304 71.261 20.87 33.152 51.174 57.348H110.435Z"/></svg>