<svg xmlns="http://www.w3.org/2000/svg" height="24" viewBox="0 -960 960 960" width="24"><path d="M368.13-604.522q-34.131 0-57.913-23.783-23.783-23.782-23.783-57.913 0-33.565 23.783-57.63 23.782-24.065 57.913-24.065 33.565 0 57.63 24.065 24.066 24.065 24.066 57.63 0 34.131-24.066 57.913-24.065 23.783-57.63 23.783ZM680-69.826q-87.522 0-148.848-61.326Q469.826-192.478 469.826-280q0-87.522 61.326-148.848Q592.478-490.174 680-490.174q87.522 0 148.848 61.326Q890.174-367.522 890.174-280q0 87.522-61.326 148.848Q767.522-69.826 680-69.826Zm67-99.347L790.827-213l-79.522-80.087v-118.218h-62.61v144.392L747-169.173ZM97.39-51.738v-856.524h540.914v341.653q-27.087 4.13-52.457 13.174t-47.892 21v-275.478H197.739v259.304q15.739-7.609 33.761-11.761 18.021-4.152 37.195-4.152h198.304q23 0 44.783 5.935t42.348 16.935q-47.609 23.565-83.413 60.586-35.804 37.022-56.369 84.631v-27.738h-94.697v68.695h-68.695v94.696h68.695v68.695h83.87q13.392 42.349 38.175 78.436 24.783 36.087 60.957 61.913H97.39Z"/></svg>