<svg xmlns="http://www.w3.org/2000/svg" height="20" viewBox="0 -960 960 960" width="20"><path d="M378.483-598.913q-29.974 0-51.098-21.332t-21.124-51.598q0-30.027 21.124-51.266 21.124-21.239 51.098-21.239 29.734 0 51.473 21.452 21.74 21.451 21.74 51.478 0 30.266-21.74 51.385-21.739 21.12-51.473 21.12ZM671.774-91.696q-81.687 0-138.883-57.421-57.195-57.422-57.195-139.109 0-81.687 57.421-138.883 57.422-57.195 139.109-57.195 81.687 0 138.883 57.421 57.195 57.422 57.195 139.109 0 81.687-57.421 138.883-57.422 57.195-139.109 57.195ZM727-192.304 767.696-233l-66.913-67.152v-88.631h-57.566v112.935L727-192.304ZM134.435-84.044v-791.913h488.848v324.892q-22.153 4.478-42.424 11.554-20.272 7.076-38.947 16.75v-272.587H215.043v264.283q17.044-9.565 37.497-16.207 20.454-6.641 42.677-6.641H462.5q23.348 0 45.294 6.261 21.945 6.261 42.184 20.261-47.565 26.239-81.848 65.902-34.282 39.663-50.521 89.228v-53.043h-78.218v67.217h-67.217v78.218h67.217v67.217h75.266q11.191 38.109 32.06 70.761 20.87 32.652 51.174 57.848H134.435Z"/></svg>