<svg xmlns="http://www.w3.org/2000/svg" height="24" viewBox="0 -960 960 960" width="24"><path d="M289.231-160h143.154-223.154 80ZM169.23-120v-720h440.001v294.538q-11.231 2.231-20.846 5.654-9.616 3.423-19.154 7.577V-800h-360v311.769q15.692-15.615 36.077-23.692Q265.692-520 289.231-520h200q11.205 0 21.679 2.269 10.475 2.269 21.244 6.346-11.296 6.227-21.61 14.152-10.313 7.925-20.048 17.464-.573 0-.804-.116-.231-.115-.461-.115h-200q-33 0-56.5 23.5t-23.5 56.5v240h223.154q5.615 11.462 11.538 21.077 5.923 9.616 13.923 18.923H169.23Zm220.001-480q-25.308 0-42.654-17.346-17.346-17.346-17.346-42.654 0-25.308 17.346-42.654Q363.923-720 389.231-720q25.307 0 42.654 17.346 17.346 17.346 17.346 42.654 0 25.308-17.346 42.654Q414.538-600 389.231-600Zm-20 380h37.923v-61.538q-1.154-6.942-1.846-14.25-.693-7.308-.693-14.981 0-9.027 1.154-17.719 1.154-8.693 3.462-17.051V-420h-40v80h-80v40h80v80Zm310.883 120q-74.653 0-127.383-52.617Q500-205.233 500-279.886t52.617-127.383Q605.233-460 679.886-460t127.383 52.617Q860-354.767 860-280.114t-52.617 127.383Q754.767-100 680.114-100ZM747-191.154 768.846-213l-73.461-73.149v-109.236h-30.77v121.847L747-191.154Z"/></svg>