<svg xmlns="http://www.w3.org/2000/svg" height="20" viewBox="0 -960 960 960" width="20"><path d="M295.217-164.652h134.805-214.979 80.174ZM134.435-84.043v-791.914h488.848v324.892q-22.153 4.478-42.424 11.554-20.272 7.076-38.947 16.75v-272.587H215.043v264.283q17.044-9.565 37.497-16.207 20.454-6.641 42.677-6.641h167.357q23.274 0 45.22 6.261 21.945 6.261 42.184 20.261-20.913 11.434-39.326 25.945-18.413 14.511-34.131 30.903-4.76-2-9.521-2.381-4.761-.38-9.522-.38H295.217q-33.071 0-56.622 23.551-23.552 23.551-23.552 56.623v228.478h214.979q14.587 24.109 31.022 44.275 16.434 20.167 36.847 36.334H134.435Zm244.048-514.87q-29.974 0-51.098-21.332t-21.124-51.478q0-30.147 21.124-51.386 21.124-21.239 50.978-21.239 29.854 0 51.593 21.423 21.74 21.423 21.74 51.507 0 30.266-21.711 51.385-21.711 21.12-51.502 21.12Zm-39.092 386.261h74.261q-5.717-17.718-7.837-36.613-2.119-18.895-2.119-38.735 0-21.674 3.478-42.989 3.478-21.315 10.435-40.272v-54.043h-78.218v67.217h-67.217v78.218h67.217v67.217ZM671.774-91.696q-81.687 0-138.883-57.421-57.195-57.422-57.195-139.109 0-81.687 57.421-138.883 57.422-57.195 139.109-57.195 81.687 0 138.883 57.421 57.195 57.422 57.195 139.109 0 81.687-57.421 138.883-57.422 57.195-139.109 57.195ZM727-192.304 767.696-233l-66.913-67.152v-88.631h-57.566v112.834L727-192.304Z"/></svg>