<svg xmlns="http://www.w3.org/2000/svg" height="24" viewBox="0 -960 960 960" width="24"><path d="M268.695-152.087h144.174-215.13 70.956ZM97.39-51.737v-856.525h540.914v341.653q-27.087 4.13-52.457 13.174t-47.892 21v-275.478H197.739v259.304q15.739-7.609 33.761-11.761 18.021-4.152 37.195-4.152h198.479q22.825 0 44.608 5.935 21.783 5.935 42.348 16.935-27.522 14.391-53.044 34.326-25.522 19.935-44.218 43.588-.435 0-.869-.218-.435-.217-.87-.217H268.695q-29.269 0-50.113 20.843-20.843 20.844-20.843 50.113v241.13h215.13q19.479 30.349 41.392 55.718 21.913 25.37 48.392 44.631H97.39Zm270.74-552.785q-34.131 0-57.913-23.783-23.783-23.782-23.783-57.63t23.783-57.913q23.782-24.065 57.63-24.065t57.913 23.998q24.066 23.998 24.066 57.697 0 34.131-23.999 57.913-23.998 23.783-57.697 23.783Zm-48.479 412.435h83.436q-6.696-20.695-9.979-42.734-3.282-22.038-3.282-45.179 0-30.957 6.13-60.066 6.131-29.108 18.392-56.369v-27.738h-94.697v68.695h-68.695v94.696h68.695v68.695ZM680-69.826q-87.522 0-148.848-61.326Q469.826-192.478 469.826-280q0-87.522 61.326-148.848Q592.478-490.174 680-490.174q87.522 0 148.848 61.326Q890.174-367.522 890.174-280q0 87.522-61.326 148.848Q767.522-69.826 680-69.826Zm67-99.347L790.827-213l-79.522-80.087v-118.218h-62.61v144.153L747-169.173Z"/></svg>