<svg xmlns="http://www.w3.org/2000/svg" height="20" viewBox="0 -960 960 960" width="20"><path d="M288.695-160.087h133.174-208.13 74.956ZM121.39-67.737v-824.525h500.914v335.653q-25.087 5.13-48.457 13.674t-44.654 20.5v-277.478H213.739v263.304q15.739-7.609 35.051-13.761 19.312-6.152 39.905-6.152h166.479q23.174 0 45.282 5.935 22.109 5.935 42.674 19.935-23.522 13.391-44.544 31.326-21.022 17.935-37.718 37.588-4.435-2-8.869-2.218-4.435-.217-8.87-.217H288.695q-30.919 0-52.938 22.018-22.018 22.019-22.018 52.938v229.13h208.13q19.479 28.349 40.479 51.613 21 23.265 46.305 40.736H121.39Zm250.244-533.785q-30.626 0-51.913-21.495-21.287-21.495-21.287-52.13 0-30.636 21.287-52.201t51.631-21.565q30.343 0 52.408 21.71 22.066 21.711 22.066 52.198 0 30.918-21.999 52.2-21.998 21.283-52.193 21.283Zm-43.983 393.435h81.436q-6.696-18.695-8.979-38.767-2.282-20.071-2.282-41.146 0-23.957 4.13-47.066 4.131-23.108 12.392-43.369v-37.738h-86.697v60.695h-60.695v86.696h60.695v60.695ZM671.774-85.826q-84.296 0-143.122-59.052-58.826-59.052-58.826-143.348 0-84.296 59.052-143.122 59.052-58.826 143.348-58.826 84.296 0 143.122 59.052 58.826 59.052 58.826 143.348 0 84.296-59.052 143.122-59.052 58.826-143.348 58.826ZM727-183.173 776.827-233l-69.522-70.087v-92.218h-70.61v122.153L727-183.173Z"/></svg>