<svg xmlns="http://www.w3.org/2000/svg" height="24" viewBox="0 -960 960 960" width="24"><path d="M480.09-220q-41.629 0-70.859-29.14Q380-278.28 380-319.91q0-41.629 29.14-70.859Q438.28-420 479.91-420q41.629 0 70.859 29.14Q580-361.72 580-320.09q0 41.629-29.14 70.859Q521.719-220 480.09-220ZM207.615-500q20.154-95.154 95.539-157.577Q378.538-720 479-720q74.538 0 135.769 35.654Q676-648.693 713.077-590.77v-133.846h40V-500H528.461v-40H698q-28.923-62.462-86.885-101.231Q553.154-680 480-680q-83.731 0-147.481 51.231T248.615-500h-41Z"/></svg>