<svg xmlns="http://www.w3.org/2000/svg" height="24" viewBox="0 -960 960 960" width="24"><path d="M155.384-324.615v-310.77h40v310.77h-40Zm101.539 67.692v-324.616q0-50.615 35.702-86.077 35.702-35.461 85.836-35.461h203.078q50.615 0 86.077 35.461 35.461 35.462 35.461 86.077v324.616H256.923Zm507.693-67.692v-310.77h40v310.77h-40ZM480-480ZM296.923-296.923H460V-460h-67.693v-40H460v-163.077h-81.634q-33.674 0-57.558 23.952-23.885 23.952-23.885 57.586v284.616Zm203.077 0h163.077v-284.616q0-33.634-23.952-57.586-23.952-23.952-57.586-23.952H500V-500h67.693v40H500v163.077Z"/></svg>