<svg xmlns="http://www.w3.org/2000/svg" height="24" viewBox="0 -960 960 960" width="24"><path d="m400-608.923-96.539-96.538q-10.846-10.847-17.154-25.154Q280-744.923 280-761q0-33.193 22.474-56.097Q324.949-840 358-840h244q32.104 0 54.052 23.235T678-761q0 16.057-6.455 31.111-6.455 15.054-18.006 26.428L560-609.923v254.926l95.539 96.458q11.395 11.308 17.428 25.942Q679-217.964 679-202q0 34.141-23 57.57Q633-121 599-121q-15.964 0-30.597-6.033-14.634-6.033-25.942-17.428-12.384-12.385-28.576-18.962Q497.692-170 480-170q-17.692 0-33.885 6.577-16.192 6.577-28.576 18.962-11.423 11.395-26.206 17.428Q376.55-121 360.423-121q-34.269 0-57.462-23.461Q279.769-167.923 279-202q0-16.308 6.038-30.615 6.039-14.308 17.654-25.924L400-353.889v-255.034Zm40-.077v256q0 8-3.115 15.5Q433.769-330 428-325l-96 95q-6 5.769-9 13.269t-3 15.5q0 17 12 29.116Q344-160 361-160q8 0 15.5-3t13.5-9q18-17.636 41-27.433 23-9.798 49-9.798t49.115 9.616Q552.231-190 570-172q6 5.769 13.5 8.885Q591-160 599-160q17 0 29.115-12.308 12.116-12.307 12.116-29.046 0-7.877-3-15.377-3-7.5-9.231-13.269l-96-95q-5.769-5.231-8.885-12.476Q520-344.72 520-353v-256q0-8 3-15.5t8-12.5l95-96q6-6 9.115-13.5 3.116-7.5 3.116-15.5 0-16-10.778-27-10.777-11-26.453-11H358q-16.769 0-27.769 11.115-11 11.116-11 27.764 0 8.323 3.384 15.607Q326-738.231 331-733l97 96q6 5 9 12.5t3 15.5Zm40.231 129Z"/></svg>