<svg xmlns="http://www.w3.org/2000/svg" height="20" viewBox="0 -960 960 960" width="20"><path d="M343.043-591.451 273.13-661.13q-17.471-18.366-27.779-41.429-10.308-23.062-10.308-49.264 0-54.019 37.258-91.577 37.258-37.557 90.699-37.557h234q52.933 0 89.663 37.451 36.729 37.452 36.729 90.645 0 26.252-10.222 50.329t-29.3 43.402l-66.913 67.969v221.378l69.913 68.913q19.136 17.331 28.829 41.055 9.693 23.723 9.693 49.603 0 54.995-37.844 93.082-37.845 38.087-92.989 38.087-25.95 0-50.038-9.89-24.087-9.889-42.7-28.569-3.865-4.236-9.508-6.606-5.643-2.369-12.282-2.369-6.64 0-12.313 2.587-5.674 2.586-9.848 6.76-18.331 18.5-42.055 28.293-23.723 9.794-49.603 9.794-54.995 0-92.865-38.156t-37.87-93.337q0-25.968 9.454-48.985 9.453-23.018 28.199-41.349l69.913-69.478v-221.103Z"/></svg>