<svg xmlns="http://www.w3.org/2000/svg" height="24" viewBox="0 -960 960 960" width="24"><path d="M358.462-77.617q-46 0-81.538-25.923-35.539-25.923-52.077-68.692-14.077 20.615-37.038 31.731-22.961 11.115-47.808 11.115-46.384 0-78.191-32.083-31.808-32.083-31.808-77.916 0-39.923 26.846-72.308 26.846-32.384 67.923-35.076Q107.694-366 98.078-390.231 88.463-414.462 88.463-441q0-36.643 18.384-68.706 18.385-32.063 51.538-52.524 3.864 13.423 10.432 28.711 6.568 15.288 14.491 26.826-16.308 12.538-25.077 30.026-8.77 17.487-8.77 36.667 0 59.077 46 74.577t90.847 24.269l13.999 23.923q-11 32-18.423 54.308-7.423 22.307-7.423 40.692 0 33.693 24.294 58.962Q323.049-138 358.078-138q40.307 0 66.461-33.038 26.154-33.038 42.924-78.077 16.769-45.038 25.846-91.846 9.077-46.808 14.846-74.115l58.768 15.999q-8.616 42.308-20.846 97.615-12.231 55.308-34.577 105.115-22.346 49.808-58.807 84.269-36.461 34.462-94.231 34.462ZM140.001-189.385q20.847 0 35.424-14.577 14.577-14.577 14.577-35.423 0-20.847-14.577-35.424-14.577-14.577-35.424-14.577-20.846 0-35.423 14.577-14.577 14.577-14.577 35.424 0 20.846 14.577 35.423 14.577 14.577 35.423 14.577Zm263.614-161.461q-43.307-38.693-78.884-72.269-35.577-33.577-61.325-65.539-25.749-31.961-39.577-63.922-13.828-31.962-13.828-66.423 0-60.779 41.61-102.389 41.61-41.611 102.389-41.611 7.462 0 13.347.885 5.884.885 11.808 2.039-4.385-9.616-6.77-19.492-2.384-9.876-2.384-20.739 0-45.833 32.07-77.916t77.884-32.083q45.814 0 77.929 32.083t32.115 77.916q0 11-2.384 20.5-2.385 9.5-6.77 19.115 5.924-1.154 11.808-1.731 5.885-.577 13.347-.577 52.692 0 90.653 32.154 37.961 32.153 48.269 80.691-13.714-2.231-30.856-2.231-17.143 0-31.527 1.616-8.923-23-29.154-37.616Q633.154-703 606.17-703q-36.324 0-57.17 19.923-20.846 19.923-55.616 60.077h-27.768q-35.77-41.769-56.616-60.885Q388.154-703 354-703q-36.325 0-60.163 23.838-23.838 23.838-23.838 60.163 0 23.123 12.423 47.754 12.423 24.63 35.289 52.13 22.866 27.5 55.461 58.5 32.596 31 73.212 67l-42.769 42.769ZM480-750.305q20.846 0 35.424-14.577 14.577-14.578 14.577-35.424t-14.577-35.424Q500.846-850.307 480-850.307t-35.424 14.577q-14.577 14.578-14.577 35.424t14.577 35.424q14.578 14.577 35.424 14.577ZM599.769-77.232q-18.118 0-35.823-4.523-17.706-4.523-34.176-14.323 8.28-10.594 16.56-24.973t15.054-26.487q9.943 5.343 19.885 7.633 9.942 2.29 19.884 2.29 35.462 0 60.039-25.233 24.577-25.233 24.577-59.998 0-18.884-7.423-40.75t-18.423-53.866l14.384-23.922q45.847-8.77 91.347-24.462 45.5-15.693 45.5-74.77 0-44.231-31.808-64.923-31.808-20.693-70.654-20.693-41.161 0-96.042 14.846t-127.573 39.077l-16-58.768q73.384-23.461 131.401-39.692Q658.494-587 706.999-587q64.769 0 114.461 38.308 49.692 38.307 49.692 108.076 0 26.374-9.423 50.11-9.423 23.737-26.5 43.737 41.077 3.076 67.923 35.076 26.846 32 26.846 72.308 0 45.384-31.808 77.691-31.807 32.308-78.191 32.308-24.847 0-47.808-11.115-22.961-11.116-37.038-31.731-16.538 42.769-52.461 68.885-35.923 26.115-82.923 26.115Zm221.23-112.153q20.846 0 34.923-14.577 14.077-14.577 14.077-35.423 0-20.847-14.577-35.924-14.577-15.077-35.423-15.077-20.847 0-35.424 14.577-14.577 14.577-14.577 35.424 0 20.846 15.077 35.923 15.077 15.077 35.924 15.077Zm-680.998-50ZM480-800.306Zm339.999 559.921Z"/></svg>