<svg xmlns="http://www.w3.org/2000/svg" height="20" viewBox="0 -960 960 960" width="20"><path d="M480-114.608q-11.189 0-23.877-2.848-12.689-2.848-23.558-9.543L189.043-261.477q-23.286-12.368-36.926-35.033-13.64-22.664-13.64-49.883v-267.343q0-27.219 13.54-49.593 13.54-22.374 36.926-35.678l243.522-135.478q10.969-6.211 23.658-9.059 12.688-2.848 24.377-2.848 11.689 0 24.377 2.848 12.689 2.848 23.655 9.106l243.425 136.915q23.286 12.368 36.426 34.965 13.14 22.596 13.14 50.08v266.169q0 27.135-13.14 49.799-13.14 22.665-36.426 35.033L528.435-126.999q-10.869 6.695-23.391 9.543-12.522 2.848-25.044 2.848ZM374.304-589.74q20.393-19.569 46.979-31.154 26.587-11.585 59.008-11.585 32.422 0 58.514 11.585 26.091 11.585 46.325 31.154L675.477-639 480-746.826 284.523-639l89.781 49.26Zm61.217 353.044v-97.086q-47.565-12.566-77.782-52.282-30.218-39.716-30.218-93.949 0-8.291.435-15.661.435-7.369 2.87-15.804l-94.347-52.826v217.578l199.042 110.03Zm45.05-179.783q26.029 0 44.489-17.531 18.461-17.532 18.461-46.065 0-28.534-18.536-45.99-18.535-17.456-44.564-17.456-26.03 0-44.986 17.531-18.956 17.532-18.956 46.065 0 28.534 19.031 45.99 19.032 17.456 45.061 17.456Zm43.908 179.783 199.042-110.03v-217.578l-94.347 52.826q2.435 8.869 2.87 16.255.435 7.385.435 15.223 0 54.228-29.718 93.94-29.717 39.712-78.282 52.278v97.086Z"/></svg>