<svg xmlns="http://www.w3.org/2000/svg" height="24" viewBox="0 -960 960 960" width="24"><path d="M369.378-350.769q-100.224 0-170.186-69.814-69.962-69.815-69.962-170.039 0-100.224 69.815-170.186 69.814-69.962 170.038-69.962 100.225 0 170.186 69.815 69.962 69.814 69.962 170.038 0 100.225-69.814 170.186-69.815 69.962-170.039 69.962ZM350.769-129.23v-111.232q4.615.231 9.231.347 4.615.115 9.231.115 146.154 0 248.461-102.308Q720-444.615 720-590.769q0-4.616-.115-9.231-.116-4.616-.347-9.231H830.77v480.001H350.769Z"/></svg>