<svg xmlns="http://www.w3.org/2000/svg" height="20" viewBox="0 -960 960 960" width="20"><path d="m420-119.23-22.539-22.539 89-89H325.385q-4.847 26.769-27.616 45.385-22.769 18.615-51 18.615-33.077 0-56.539-23.461-23.461-23.462-23.461-56.539 0-28.231 18.615-51 18.616-22.769 45.385-28.616v-309.23q-27.769-3.847-45.885-27.116-18.115-23.269-18.115-50.5 0-34.077 23.461-57.039 23.462-22.961 56.539-22.961 28.231 0 50.5 18.115 22.269 18.116 28.116 45.885h161.076l-89.769-89L420-840.77l127.539 127.539L420-585.692l-23.308-22.539 89.769-89H325.385q-5.923 24.385-22.077 39.539-16.154 15.154-40.539 22.077v310.23q23.385 7.923 39.539 23.577 16.154 15.654 23.077 39.039h160.307l-88.231-89L420-374.308l127.539 127.539L420-119.23Zm293.231-47.539q-34.077 0-57.039-22.961-22.961-22.962-22.961-57.039 0-26.462 17.615-48.231 17.616-21.769 46.385-29.385v-311.23q-28.769-7.616-46.385-29.385-17.615-21.769-17.615-48.231 0-34.077 22.961-57.039 22.962-22.961 57.039-22.961t57.039 22.961q22.961 22.962 22.961 57.039 0 26.462-17.615 48.231-17.616 21.769-46.385 29.385v310.23q27.769 7.847 45.885 29.116 18.115 21.269 18.115 49.5 0 33.077-22.961 56.539-22.962 23.461-57.039 23.461Z"/></svg>