<svg xmlns="http://www.w3.org/2000/svg" height="24" viewBox="0 -960 960 960" width="24"><path d="M340.413-299.587 160-480l180.413-180.413 58.87 60.391L279.022-480l120.261 120.022-58.87 60.391Zm-147.826 17.674h91v38.326h392.826v-38.326h91v249.326H192.587v-249.326Zm91-396.174h-91v-249.326h574.826v249.326h-91v-38.326H283.587v38.326Zm0 514.5v40h392.826v-40H283.587Zm0-632.826h392.826v-40H283.587v40Zm336 496.826-58.87-60.391L680.978-480 560.717-600.022l58.87-60.391L800-480 619.587-299.587Zm-336-496.826v-40 40Zm0 632.826v40-40Z"/></svg>