<svg xmlns="http://www.w3.org/2000/svg" height="20" viewBox="0 -960 960 960" width="20"><path d="M310.413-313.587 144-480l166.413-166.413 53.87 53.391L251.022-480l113.261 113.022-53.87 53.391Zm-125.826 23.674h83v46.326h424.826v-46.326h83v249.326H184.587v-249.326Zm83-380.174h-83v-249.326h590.826v249.326h-83v-46.326H267.587v46.326Zm0 498.5v48h424.826v-48H267.587Zm0-616.826h424.826v-48H267.587v48Zm382 474.826-53.87-53.391L708.978-480 595.717-593.022l53.87-53.391L816-480 649.587-313.587Zm-382-474.826v-48 48Zm0 616.826v48-48Z"/></svg>