<svg xmlns="http://www.w3.org/2000/svg" height="20" viewBox="0 -960 960 960" width="20"><path d="M152.978-414.5q-15.913 0-22.63-13.674-6.718-13.674 2.239-26.109L396.5-829.152q10.435-15.913 27.967-10.196Q442-833.63 442-814.478v375.108q0 10.435-7.217 17.653-7.218 7.217-17.653 7.217H152.978Zm127.37-91.413h70.239v-97.456l-70.239 97.456Zm225.065 57.5q12.717-43.348 20.859-93.228 8.141-49.881 8.141-116.359 0-58.761-7.402-112.043-7.402-53.283-18.402-100.196-5.718-26.544 6.934-38.337 12.653-11.794 35.24-.402 52.195 25.913 102.674 72.369 50.478 46.457 91.978 106.935 41.5 60.478 68.88 131.815 27.381 71.337 33.859 145.772 1.239 15.435-9.956 26.511-11.196 11.076-26.631 11.076h-281.5q-14.957 0-22.435-9.598-7.478-9.598-2.239-24.315Zm107.37-57.5h133.782q-16.282-69.413-50.706-130.054-34.424-60.642-75.229-107.12 2.479 18.565 3.718 40.804 1.239 22.24 1.239 44.283 0 44.804-3.641 81.706-3.642 36.903-9.163 70.381ZM459.761-242.804q-20 16.521-45.381 27.043Q389-205.239 360-205.239q-29 0-54.38-10.522-25.381-10.522-45.381-27.043-9-7.761-20.859-7.761-11.858 0-20.619 6.761-12.435 9.717-27.25 17.934-14.815 8.218-30.25 13.218-20.761-17.718-37.642-39.435-16.88-21.717-28.64-48.674Q84.455-325 98.575-344.5q14.12-19.5 43.12-19.5h676.608q29 0 43.12 19.5 14.12 19.5 3.598 43.739-11.761 26.957-28.641 48.674-16.881 21.717-37.642 39.435-15.435-5-30.25-13.218-14.815-8.217-27.25-17.934-8.761-6.761-20.619-6.761-11.859 0-20.859 7.761-21 17.521-45.881 27.543Q629-205.239 600-205.239q-29 0-54.38-10.522-25.381-10.522-45.381-27.043-9-7.761-20.239-7.761t-20.239 7.761ZM120-32.587q30.761 0 60.88-7.5 30.12-7.5 59.12-22.26 29 14.76 59.12 22.26 30.119 7.5 60.88 7.5 30.761 0 60.88-7.5 30.12-7.5 59.12-22.26 29 14.76 59.12 22.26 30.119 7.5 60.88 7.5 30.761 0 60.88-7.5 30.12-7.5 59.12-22.26 29 14.76 59.12 22.26 30.119 7.5 60.88 7.5 19.435 0 31.511-13.195 12.076-13.196 12.076-32.631 0-19.435-12.076-32.511Q859.435-124 840-124q-25.043 0-50.446-7-25.402-7-49.163-20.522Q731.196-157 719.88-157q-11.315 0-20.51 5.478Q675.609-138 650.326-131.12q-25.283 6.881-50.326 6.881t-49.706-6.881Q525.63-138 501.63-151.522 492.435-157 480.5-157q-11.935 0-20.891 5.478Q435.848-138 410.446-131q-25.403 7-50.446 7t-49.706-7q-24.664-7-48.664-20.522Q252.674-157 240-157t-21.63 5.478Q194.37-138 169.706-131q-24.663 7-49.706 7-18.435 0-31.01 13.576-12.577 13.576-12.577 32.011 0 18.435 12.576 32.13Q101.565-32.587 120-32.587Zm230.587-473.326Zm261.957 0Z"/></svg>