<svg xmlns="http://www.w3.org/2000/svg" height="20" viewBox="0 -960 960 960" width="20"><path d="M137-397q-22 0-31-19t3-36l270-384q15-22 39-14t24 34v385q0 15-9.5 24.5T408-397H137Zm154-115h36v-48l-36 48Zm203 75q15-54 22-103.5t7-117.5q0-58-5.5-109T501-871q-8-41 11.5-58.5T566-928q56 32 108 81.5T767.5-735Q809-673 836-599t35 153q2 20-13 34.5T823-397H524q-18 0-27-11.5t-3-28.5Zm134-75h114q-14-58-45-117.5T629-737q4 14 6 37t2 42q0 41-2.5 76t-6.5 70ZM459-239q-20 15-45 24t-54 9q-29 0-54-9t-45-24q-9-7-22-7t-21 6q-17 12-36 22.5T143-202q-20-20-36.5-44T79-300q-9-25 5.5-44.5T128-364h704q29 0 43.5 19.5T881-300q-11 30-27.5 54T817-202q-20-5-39-15.5T742-240q-8-6-21-6t-22 7q-21 16-45.5 24.5T600-206q-29 0-54-9t-45-24q-9-7-21-7t-21 7ZM120-9q30 0 60.5-7.5T240-38q29 14 59.5 21.5T360-9q30 0 60.5-7.5T480-38q29 14 59.5 21.5T600-9q30 0 60.5-7.5T720-38q29 14 59.5 21.5T840-9q24 0 39.5-17T895-67q0-24-15.5-40.5T840-124q-22 0-45.5-7T748-150q-13-7-28.5-7t-28.5 7q-23 12-46 18.5t-45 6.5q-22 0-44-6.5T510-150q-13-7-29.5-7t-28.5 7q-23 12-46.5 19t-45.5 7q-22 0-44-7t-46-19q-12-7-30-7t-30 7q-24 12-46 19t-44 7q-23 0-39 17T65-67q0 23 16 40.5T120-9Zm207-503Zm300 0Z"/></svg>