<svg xmlns="http://www.w3.org/2000/svg" height="20" viewBox="0 -960 960 960" width="20"><path d="M447-196q66.259 0 122.937-33.923T663.461-320q-123.307 3.462-214.884-77.268Q357-477.997 357-599q0-22.146 3.808-44.15 3.807-22.004 9.653-44.465-77.919 28.034-126.19 92.863Q196-529.923 196-447q0 105.461 72.769 178.231Q341.539-196 447-196Zm0 32q-116.769 0-199.885-83.115Q164-330.231 164-447q0-47.995 15.538-92.633 15.539-44.638 44.154-81.407 28.616-36.768 68.308-63.172 39.692-26.404 86.231-39.019 14.601-4.538 25.07 6.923 10.468 11.462 5.391 27.616-7.615 20.769-13.653 43.439Q389-622.584 389-599q0 100.385 72.927 169.961 72.928 69.577 174.692 76.5 8.304.77 17.496.539 9.193-.231 17.116-1.692 15.173-3.924 24.779 8.384t.067 27.693q-43.769 66.769-107.882 110.192Q524.083-164 447-164Zm191.96-449-20.992 63.426q-2.199 5.728-6.273 8.651T601.615-538q-8.538 0-13.538-6.692-5-6.693-2.077-16l94.461-278.77q2.462-7.153 6.981-10.846Q691.961-854 698.615-854h15.401q7.523 0 12.676 3.692 5.154 3.693 7.616 10.846L828-558.923q2.923 9.308-1.692 15.115Q821.692-538 813.154-538q-6.051 0-10.163-2.768-4.112-2.767-6.453-8.694L775.461-613H638.96Zm9.655-30h116.77L707-822.307 648.615-643ZM444.077-397.385Z"/></svg>