<svg xmlns="http://www.w3.org/2000/svg" height="20" viewBox="0 -960 960 960" width="20"><path d="M303.568-63.385q-6.722 0-11.453-4.6-4.731-4.6-4.731-11.4v-339.999h-88.615q-31.92 0-53.96-21.962-22.04-21.963-22.04-53.77 0-31.807 22.04-54.038 22.04-22.231 53.96-22.231h88.615v-57.23h-88.615q-31.92 0-53.96-21.963-22.04-21.962-22.04-53.769t22.04-54.038q22.04-22.231 53.96-22.231h88.615v-75.789q0-6.71 4.548-11.46 4.547-4.75 11.269-4.75t11.453 4.6q4.731 4.6 4.731 11.4v75.999H408q31.92 0 53.96 21.963Q484-736.691 484-704.884t-22.04 54.038q-22.04 22.231-53.96 22.231h-88.615v57.23H408q31.92 0 53.96 21.963Q484-527.46 484-495.653t-22.04 54.038q-22.04 22.231-53.96 22.231h-88.615v340q0 6.8-4.548 11.4-4.547 4.6-11.269 4.6Zm-106.799-389H410q17.461 0 29.231-12.669Q451-477.723 451-495.385q0-17.661-11.769-30.33-11.77-12.669-29.231-12.669H196.769q-17.461 0-29.231 12.669-11.769 12.669-11.769 30.33 0 17.662 11.769 30.331 11.77 12.669 29.231 12.669Zm0-209.231H410q17.461 0 29.231-12.969Q451-687.554 451-705.615q0-18.462-11.769-30.731-11.77-12.269-29.231-12.269H196.769q-17.461 0-29.231 12.269-11.769 12.269-11.769 30.731 0 18.461 11.769 31.23 11.77 12.769 29.231 12.769ZM676.615-95.385v-320.28q-50.692-12.95-85.346-49.459-34.654-36.508-34.654-86.876v-292.308q0-12.031 8.139-20.169 8.138-8.138 20.169-8.138h215.385q12.031 0 20.169 8.138 8.139 8.138 8.139 20.169V-552q0 50.44-34.654 87.003-34.654 36.564-85.346 49.612v320h55.789q6.711 0 11.461 4.547 4.75 4.548 4.75 11.27 0 6.722-4.585 11.453-4.584 4.73-11.36 4.73H620.892q-6.777 0-11.527-4.547-4.75-4.547-4.75-11.27 0-6.721 4.6-11.452 4.6-4.73 11.4-4.73h56ZM692.863-448q43.983 0 73.868-30.06 29.884-30.059 29.884-73.94v-92H588.616v92q0 43.881 30.132 73.94Q648.88-448 692.863-448ZM588.616-676h207.999v-164.615H588.616V-676ZM155.769-452.385v-85.999 85.999Zm0-209.231V-748.615-661.616ZM692.615-644Z"/></svg>