<svg xmlns="http://www.w3.org/2000/svg" height="20" viewBox="0 -960 960 960" width="20"><path d="M288.211-48q-17.133 0-28.933-11.65t-11.8-28.872v-272.303H168q-42.694 0-72.173-29.391-29.48-29.39-29.48-71.956t29.48-72.262Q125.306-564.13 168-564.13h79.478v-50.261H168q-42.694 0-72.173-29.391-29.48-29.39-29.48-71.956T95.828-788q29.479-29.696 72.173-29.696h79.478v-29.572q0-17.132 11.59-28.932 11.589-11.8 28.721-11.8 17.133 0 28.933 11.65t11.8 28.872v29.782H408q42.694 0 72.173 29.391t29.479 71.957q0 42.566-29.479 72.261-29.479 29.696-72.173 29.696h-79.478v50.261H408q42.694 0 72.173 29.391t29.479 71.957q0 42.566-29.479 72.261-29.479 29.696-72.173 29.696h-79.478v272.303q0 17.222-11.59 28.872Q305.343-48 288.211-48Zm379.267-80.479v-268.41q-53.565-14.285-86.783-57.308Q547.478-497.22 547.478-552v-286.999q0-20.388 14.307-34.694Q576.091-888 596.479-888h223.042q20.388 0 34.694 14.307 14.307 14.306 14.307 34.694V-552q0 54.851-33.217 97.93-33.218 43.078-86.783 57.461v268.13h31.833q16.892 0 28.529 11.43 11.638 11.43 11.638 28.326 0 16.897-11.472 28.81Q797.579-48 780.621-48h-144.91q-16.958 0-28.595-11.59-11.638-11.59-11.638-28.721 0-16.893 11.65-28.53 11.65-11.638 28.872-11.638h31.478ZM628.522-696h158.956v-111.521H628.522V-696Z"/></svg>