<svg xmlns="http://www.w3.org/2000/svg" height="20" viewBox="0 -960 960 960" width="20"><path d="M288.211-48q-17.133 0-28.933-11.65t-11.8-28.872v-272.303H168q-42.694 0-72.173-29.391-29.48-29.39-29.48-71.956t29.48-72.262Q125.306-564.13 168-564.13h79.478v-50.261H168q-42.694 0-72.173-29.391-29.48-29.39-29.48-71.956T95.828-788q29.479-29.696 72.173-29.696h79.478v-29.572q0-17.132 11.59-28.932 11.589-11.8 28.721-11.8 17.133 0 28.933 11.65t11.8 28.872v29.782H408q42.694 0 72.173 29.391t29.479 71.957q0 42.566-29.479 72.261-29.479 29.696-72.173 29.696h-79.478v50.261H408q42.694 0 72.173 29.391t29.479 71.957q0 42.566-29.479 72.261-29.479 29.696-72.173 29.696h-79.478v272.303q0 17.222-11.59 28.872Q305.343-48 288.211-48ZM166-433.825h244q11.826 0 19.239-8.313t7.413-20.339q0-12.027-7.413-20.34T410-491.13H166q-11.826 0-19.239 8.313t-7.413 20.34q0 12.026 7.413 20.339 7.413 8.313 19.239 8.313Zm0-253.566h244q11.826 0 19.239-8.613t7.413-21.039q0-12.827-7.413-20.74-7.413-7.913-19.239-7.913H166q-11.826 0-19.239 7.913t-7.413 20.74q0 12.826 7.413 21.239T166-687.391Zm501.478 558.912v-268.41q-53.565-14.285-86.783-57.308Q547.478-497.22 547.478-552v-286.999q0-20.388 14.307-34.694Q576.091-888 596.479-888h223.042q20.388 0 34.694 14.307 14.307 14.306 14.307 34.694V-552q0 54.851-33.217 97.93-33.218 43.078-86.783 57.461v268.13h31.833q16.892 0 28.529 11.43 11.638 11.43 11.638 28.326 0 16.897-11.472 28.81Q797.579-48 780.621-48h-144.91q-16.958 0-28.595-11.59-11.638-11.59-11.638-28.721 0-16.893 11.65-28.53 11.65-11.638 28.872-11.638h31.478Zm40.89-344.043q32.936 0 56.023-23.347 23.087-23.346 23.087-56.131v-63.521H628.522V-552q0 32.785 23.455 56.131 23.454 23.347 56.391 23.347ZM628.522-696h158.956v-111.521H628.522V-696ZM139.348-433.825V-491.13v57.305Zm0-253.566V-745.696-687.391ZM708-615.521Z"/></svg>