<svg xmlns="http://www.w3.org/2000/svg" height="20" viewBox="0 -960 960 960" width="20"><path d="M308.175-68Q304-68 301-70.875T298-78v-352h-90q-29.4 0-49.7-20.218-20.3-20.219-20.3-49.5Q138-529 158.3-549.5 178.6-570 208-570h90v-60h-90q-29.4 0-49.7-20.218-20.3-20.219-20.3-49.5Q138-729 158.3-749.5 178.6-770 208-770h90v-87.789q0-4.161 2.825-7.186 2.824-3.025 7-3.025 4.175 0 7.175 2.875t3 7.125v88h90q29.4 0 49.7 20.218 20.3 20.219 20.3 49.5Q478-671 457.7-650.5 437.4-630 408-630h-90v60h90q29.4 0 49.7 20.218 20.3 20.219 20.3 49.5Q478-471 457.7-450.5 437.4-430 408-430h-90v352q0 4.25-2.825 7.125-2.824 2.875-7 2.875ZM206-451h204q20 0 33.5-14.4T457-500q0-20.2-13.5-34.6Q430-549 410-549H206q-20 0-33.5 14.4T159-500q0 20.2 13.5 34.6Q186-451 206-451Zm0-200h204q20 0 33.5-14.7T457-701q0-21-13.5-35T410-750H206q-20 0-33.5 14T159-701q0 21 13.5 35.5T206-651ZM678-88v-332.28q-50-12.72-85-47.613T558-552v-290q0-11.05 7.475-18.525Q572.95-868 584-868h208q11.05 0 18.525 7.475Q818-853.05 818-842v290q0 49.286-35 84.234-35 34.948-85 47.766v332h61.789q4.161 0 7.186 2.825 3.025 2.824 3.025 7Q770-74 767.141-71t-7.086 3H616.276q-4.226 0-7.251-2.825-3.025-2.824-3.025-7Q606-82 608.875-85T616-88h62Zm10.248-354Q735-442 766.5-473.675 798-505.35 798-552v-98H578v98q0 46.65 31.748 78.325Q641.496-442 688.248-442ZM578-670h220v-178H578v178ZM159-451v-98 98Zm0-200v-99 99Zm529 1Z"/></svg>