<svg xmlns="http://www.w3.org/2000/svg" height="20" viewBox="0 -960 960 960" width="20"><path d="m277-776-14-45q-7-22 3.348-41.346Q276.696-881.692 298-889q22-7 41.5 2t26.5 31l15 47q7 22-3 41.5T346-741q-21 7-41.5-3.5T277-776Zm149-52v-48q0-22 16-38t38-16q22 0 38 16t16 38v48q0 22-16 38t-38 16q-22 0-38-16t-16-38Zm153 18 15-46q7-22 27-32t41-3q22 7 32 27t3 42l-15 47q-7 22-26.5 31t-41.5 2q-22-7-32-26.5t-3-41.5ZM156-42q-24 3-42.5-10.5T92-90l2 15q-3-23 11.089-41.848Q119.179-135.696 142-139l170-26q-1 0-2 1l-2 2 39-122q4-12.702-1.861-24.426Q339.278-320.149 328-327l-9 31q-6.618 19.161-24.809 28.581Q276-258 257-265q-19-7-29-25t-3-37l65-200v3L181-295q-15 32-44.5 50T69-227h-8q-22.438 0-37.719-17Q8-261 8-284v16q0-23 17-40t40-17h23-1.5q-1.5 0-1.5 1l152-315q12-24 37-31t47 8l22 16q32 21 43.5 58t.5 74l-29 93q58 29 78.5 70.5T443-265l-36 117q-9 33-36 55t-62 28L156-42Zm495-23q-35-6-62-28t-36-55l-36-117q-14-44 6.5-85.5T602-421l-29-93q-11-37 .5-74t43.5-58l22-16q22-15 47-8t37 31l152 315q0-1-1.5-1H872h23q23 0 40 17t17 40v-16q0 23-15.281 40T899-227h-7q-37 0-67.5-18T779-295L670-524v-3l65 200q7 19-3 37t-29 25q-19 7-37.191-2.919Q647.618-277.839 641-297l-9-30q-11.278 6.851-17.139 18.574Q609-296.702 613-284l39 122-2-2q-1-1-2-1l170 26q22.821 3.304 36.911 22.152Q869-98 866-75l2-15q-3 24-21.5 37.5T804-42L651-65Zm-19-262Zm-304 0Zm-71 62Zm446 0Z"/></svg>