<svg xmlns="http://www.w3.org/2000/svg" height="24" viewBox="0 -960 960 960" width="24"><path d="M103.079-216.924v-95.383h578.46v95.383h-578.46Zm618.46 0v-95.383h47.691v95.383h-47.691Zm87.691 0v-95.383h47.691v95.383H809.23ZM721.539-360v-52q0-37.461-23-59.115-23-21.654-55-21.654h-62q-50.615 0-86.154-35.866-35.538-35.865-35.538-87.364 0-50.213 35.538-85.183 35.539-34.97 86.154-34.97v47.691q-30 0-52 20.543t-22 51.846q0 31.303 22 53.457t52 22.154h62q51.384 0 88.537 34.654 37.154 34.654 37.154 85.192V-360h-47.691Zm87.691 0v-90q0-66-46-110.923t-114-44.923v-47.691q30 0 51.615-21.615 21.616-21.616 21.616-51.616 0-30.769-21.616-52.769-21.615-22-51.615-22v-47.692q50.615 0 85.769 35.923 35.153 35.923 35.153 86.538 0 29-11.385 51.154-11.384 22.154-29.384 38.642 54.077 21.434 90.807 70.818Q856.921-516.769 856.921-450v90H809.23Z"/></svg>