<svg xmlns="http://www.w3.org/2000/svg" height="20" viewBox="0 -960 960 960" width="20"><path d="M156-284v-32h520v32H156Zm568 0v-32h16v32h-16Zm64 0v-32h16v32h-16Zm-64-100v-72q0-26-21.231-50T652-530h-48q-36.149 0-62.075-26.745Q516-583.491 516-621.895q0-35.06 25.925-59.583Q567.851-706 604-706h24v16h-24q-30 0-51 19.811-21 19.812-21 48Q532-594 553-570t51 24h48q38 0 63 31.5t25 72.5v58h-16Zm64 0v-74q0-69-49.5-109.5T620-608v-16q30 0 49.5-20.577t19.5-50Q689-726 668.892-747 648.784-768 620-768v-16q36 0 60.5 26.693t24.5 62.509Q705-669 694.5-649.5 684-630 665-622.13q56 13.13 97.5 54.82Q804-525.621 804-458v74h-16Z"/></svg>