<svg xmlns="http://www.w3.org/2000/svg" height="24" viewBox="0 -960 960 960" width="24"><path d="M250.001-624.153V-676q0-37.307 17.846-69.192 17.846-31.884 47.923-52.346L480-908.076l164.23 110.538q30.077 20.462 47.923 52.346 17.846 31.885 17.846 69.192v51.847H250.001Zm-200 494.152V-616.77q-18-9.846-29-25.999Q10-658.923 10-680q0-20.307 19.769-48.499Q49.539-756.691 80-785.768q30.461 29.077 50.23 57.269 19.769 28.192 19.769 48.499 0 21.077-11 37.231-11 16.153-29 25.999v186.771h100.002v-158.77h539.998v158.77h100.002V-616.77q-18-9.846-29-25.999-11-16.154-11-37.231 0-20.307 19.769-48.499 19.769-28.192 50.23-57.269 30.461 29.077 50.23 57.269 19.769 28.192 19.769 48.499 0 21.077-11 37.231-11 16.153-29 25.999v486.769H554.615v-224.614h-149.23v224.614H50.001Z"/></svg>