<svg xmlns="http://www.w3.org/2000/svg" height="24" viewBox="0 -960 960 960" width="24"><path d="M17-74v-540q-18-14-29-34.5T-23-695q0-29.202 30.5-71.101T80-847q42 39 72.5 80.899T183-695q0 26-11 46.5T143-614v143h34v-154h54q-7-14-10.5-33.5T217-691q0-46.296 21.5-85.648T297-841l183-122 183 122q37 25 58.5 64.352Q743-737.296 743-691q0 13-3.5 32.5T729-625h54v154h34v-143q-18-14-29-34.5T777-695q0-29.202 30.5-71.101T880-847q42 39 72.5 80.899T983-695q0 26-11 46.5T943-614v540H512v-215h-64v215H17Zm379-564h168q22.316 0 37.658-15.354Q617-668.708 617-691.042 617-705 610.5-717q-6.5-12-17.5-19l-113-76-113 76q-11 7-17.5 18.83Q343-705.34 343-691q0 22.316 15.342 37.658Q373.684-638 396-638ZM143-200h179v-215h316v215h179v-145H657v-167H303v167H143v145Zm337-312Zm0-126Zm0 13Z"/></svg>