<svg xmlns="http://www.w3.org/2000/svg" height="24" viewBox="0 -960 960 960" width="24"><path d="M60-140v-482.538q-18-8.693-29-23.408Q20-660.66 20-680q0-17.615 15.538-41Q51.077-744.385 80-771.539q28.923 27.154 44.462 50.539Q140-697.615 140-680q0 19.34-11 34.054-11 14.715-29 23.408V-420h120v-159.539h83.538q-21-19.307-32.269-43.538Q260-647.308 260-676q0-34.793 16.703-64.367 16.703-29.574 44.835-48.71L480-896.154l158.462 107.077q28.132 19.136 44.835 48.71T700-676q0 28.692-11.269 52.923t-32.269 43.538H740V-420h120v-202.538q-18-8.693-29-23.408Q820-660.66 820-680q0-17.615 15.538-41 15.539-23.385 44.462-50.539 28.923 27.154 44.462 50.539Q940-697.615 940-680q0 19.34-11 34.054-11 14.715-29 23.408V-140H540v-200H420v200H60Zm336-440h168q39.692 0 67.846-28.154Q660-636.308 660-675.882q0-24.733-11.308-46.233-11.307-21.5-31.923-34.808L480-847.846l-136.769 90.923q-20.616 13.308-31.923 34.808Q300-700.615 300-675.882q0 39.574 28.154 67.728Q356.308-580 396-580ZM100-180h280v-200h200v200h280v-200H700v-140q0-8.461-5.769-14.231Q688.461-540 680-540H280q-8.461 0-14.231 5.769Q260-528.461 260-520v140H100v200Zm380-360Zm0-40Zm0 .461Z"/></svg>