<svg xmlns="http://www.w3.org/2000/svg" height="20" viewBox="0 -960 960 960" width="20"><path d="M250.001-610.153V-672q0-42.307 20.846-78.692 20.846-36.384 56.923-57.846L480-900.076l152.23 91.538q36.077 21.462 56.923 57.846 20.846 36.385 20.846 78.692v61.847H250.001Zm-192 456.152V-639.77q-18-8.846-27-22.999-9-14.154-9-33.231 0-18.307 16.769-48.499Q55.539-774.691 84-801.768q28.461 27.077 45.23 57.269 16.769 30.192 16.769 48.499 0 19.077-9 33.231-9 14.153-27 22.999v217.771h92.002v-144.77h555.998v144.77h92.002V-639.77q-18-8.846-27-22.999-9-14.154-9-33.231 0-18.307 16.269-48.499 16.269-30.192 45.73-57.269 28.461 27.077 45.23 57.269 16.769 30.192 16.769 48.499 0 19.077-9.5 33.231-9.5 14.153-26.5 22.999v485.769H570.615v-224.614h-181.23v224.614H58.001Z"/></svg>