<svg xmlns="http://www.w3.org/2000/svg" height="20" viewBox="0 -960 960 960" width="20"><path d="M234.5-630.457v-45.13q0-46.435 22.598-86.25t61.793-63.533L480-922.283l161.109 96.913q39.195 23.718 61.793 63.533t22.598 86.25v45.13h-491ZM42.5-133v-501.717q-18-10.718-27-26.935-9-16.218-9-37.935 0-22.435 22.554-59.587Q51.61-796.326 84-827.239q32.391 30.913 54.946 68.065 22.554 37.152 22.554 59.587 0 21.717-9 37.935-9 16.217-27 26.935v195.304h61v-143.044h587v143.044h61v-195.304q-18-10.718-27-26.935-9-16.218-9-37.935 0-22.435 22.054-59.587 22.055-37.152 55.446-68.065 32.391 30.913 54.946 68.065 22.554 37.152 22.554 59.587 0 21.717-9.5 37.935-9.5 16.217-26.5 26.935V-133H582.457v-251.957H377.543V-133H42.5Z"/></svg>