<svg xmlns="http://www.w3.org/2000/svg" height="20" viewBox="0 -960 960 960" width="20"><path d="M573.118-62q-10.883 0-18.5-7.675Q547-77.351 547-88.315v-247.72q0-10.965 7.583-18.465Q562.167-362 573-362h74l37.667-50H808l37.28 50h73.92q10.8 0 18.8 7.675 8 7.676 8 18.641v247.72Q946-77 938.125-69.5 930.25-62 919-62H573.118ZM746-143q32 0 53.5-21.5T821-218q0-32-21.5-53.5T746-293q-32 0-53.5 21.5T671-218q0 32 21.5 53.5T746-143ZM455-62h-31q-21.919 0-38.959-14Q368-90 365-111l-15-76q-15.417-6.105-30.208-14.053Q305-209 292-220l-73 25q-20 8-40.5 0T147-222L90-322q-11-19-7.333-40.077Q86.333-383.154 103-396l57-51q-1-7.83-2-15.957-1-8.128-1-16.958 0-8.83 1-16.957Q159-505 160-513l-57-50q-16.667-13.077-20.333-34.538Q79-619 90-638l57-99q11-18 31.5-26.5t40.5-.5l75 25q13-11 26.5-18.5T350-771l15-78q3-21 20.041-35 17.04-14 38.959-14h112q21.919 0 38.959 14Q592-870 595-849l15 78q15.417 5.842 30.208 13.421Q655-750 668-739l73-25q20-7 40.5 1t31.5 26l56 96q11 19 6.5 41.5T853-564l-68 55q1 6 1.5 12.5T788-484H622q-2-59-42.5-99.5T477-624q-60 0-102 42t-42 102q0 54 35.5 94t86.5 48v276Z"/></svg>