<svg xmlns="http://www.w3.org/2000/svg" height="20" viewBox="0 -960 960 960" width="20"><path d="m371.308-478.693 95.384-94.615-80.153-80.384-36.154 36.153q-5.616 5.616-11.654 5.616-6.039 0-11.654-5.616-5.616-5.615-5.616-11.269t5.616-11.269L364-677l-89.077-88.077-94.615 94.615 191 191.769Zm298.384 297.616 94.616-94.615-87.077-88.077-36.154 36.923q-4.846 4.846-11.269 5.231-6.423.384-12.039-5.231-5.615-5.616-5.615-11.654 0-6.039 5.615-11.654l36.923-36.154-80.615-80.384-95.384 95.384 190.999 190.231ZM679.923-744l63.308 63.308L679.923-744ZM212.307-184q-11.923 0-20.115-8.192Q184-200.384 184-212.307V-282q0-6.462 2.231-10.538 2.23-4.077 6.461-8.308l156.077-156.077-190.923-191.692Q148-658.461 148-670.462q0-12 9.846-21.846l95.231-95.231q9.846-9.846 21.846-10.231 12-.384 21.846 9.462l191.693 191.692 169.692-169.923q5.615-5.615 10.923-7.538T680.692-776q6.308 0 11.616 1.923t10.923 7.538l63.308 64.846q5.615 5.616 7.154 10.924 1.538 5.307 1.538 11.615t-1.538 11.616q-1.539 5.307-7.154 10.923L597.385-488.462l190.154 191.693q9.846 9.846 9.846 21.846t-9.846 21.846l-95.231 95.231Q682.462-148 670.462-148q-12.001 0-21.847-9.846L456.923-348.769 300.846-192.692q-4.231 4.231-8.308 6.461Q288.462-184 282-184h-69.693ZM216-216h64.077l375.769-376.538-63.308-63.308L216-280.077V-216Zm408.692-409.461-32.154-30.385 63.308 63.308-31.154-32.923Z"/></svg>