<svg xmlns="http://www.w3.org/2000/svg" height="24" viewBox="0 -960 960 960" width="24"><path d="m341.26-536.696 80.913-81.913-44.13-44.565-17.13 16.565Q348.782-634.478 332-634.543q-16.783-.066-29.348-12.631-12.565-12.565-12.565-29.63 0-17.066 12.565-29.631l16.13-16.13-39.347-38.783-81.348 81.913L341.26-536.696ZM680-197.522l81.348-81.348-39.913-39.912-17.131 16.13q-12.565 12.565-29.13 12.283-16.565-.283-29.131-12.848-12.565-12.565-12.565-29.413t12.565-29.413l16.131-16.566-45.13-44.695-81.478 81.478L680-197.522Zm20.609-560.782 57 57.565-57-57.565ZM153.782-100.782q-22.087 0-37.544-15.456-15.456-15.457-15.456-37.544v-120.914q0-10.826 3.847-20.304 3.848-9.479 11.544-17.174L272.39-468.391 116.913-623.869Q93.695-647.087 93.695-680t23.218-56.131l106.391-106.391q23.217-23.218 56.131-23 32.913.217 56.131 23.435l156.477 156.042 146.478-146.912q13.131-13.131 29.261-19.696 16.131-6.565 33.261-6.565 17.131 0 33.261 6.282 16.131 6.283 29.261 19.413l69.392 69.827q13.131 13.131 19.696 29.544 6.565 16.413 6.565 33.543 0 17.131-6.565 33.044-6.565 15.913-19.696 29.044L686.479-492.174l156.608 156.608q23.218 23.218 23.218 56.131 0 32.914-23.218 56.131L736.696-116.913q-23.217 23.218-56.131 23.218-32.913 0-56.131-23.218L467.261-273.521 311.044-116.738q-7.696 7.695-17.174 11.826-9.479 4.13-20.305 4.13H153.782Zm44.522-97.522h56.566l367.694-367.26-57-57.565L198.304-256v57.696Zm396.26-395.825-29-29 57 57.565-28-28.565Z"/></svg>