<svg xmlns="http://www.w3.org/2000/svg" height="24" viewBox="0 -960 960 960" width="24"><path d="M512-179v65H386v-289l74-212h394l74 211.786V-114H802v-65H512Zm-15-266h320l-28-80H525l-28 80Zm40 160q17 0 28.5-11.5T577-325q0-17-11.5-28.5T537-365q-17 0-28.5 11.5T497-325q0 17 11.5 28.5T537-285Zm240 0q17 0 28.5-11.5T817-325q0-17-11.5-28.5T777-365q-17 0-28.5 11.5T737-325q0 17 11.5 28.5T777-285ZM128-114v-46l58-54q-64.167 0-109.083-44.917Q32-303.833 32-368v-324q0-84.7 66.664-119.35Q165.328-846 325.775-846 493-846 556.5-812.633 620-779.267 620-692v37H497v-28H158v243h188v326H128Zm89-178q23.375 0 39.188-16.5Q272-325 272-348t-15.812-39Q240.375-403 217-403t-39.188 15.812Q162-371.375 162-348q0 23 15.812 39.5Q193.625-292 217-292Z"/></svg>