<svg xmlns="http://www.w3.org/2000/svg" height="20" viewBox="0 -960 960 960" width="20"><path d="M260.001-116.001v-583.998h583.998v583.998H260.001ZM312-490.922h480V-648H312v157.078Zm185.076 161.846h109.848v-109.848H497.076v109.848Zm0 161.076h109.848v-109.078H497.076V-168ZM312-329.076h133.078v-109.848H312v109.848Zm346.922 0H792v-109.848H658.922v109.848ZM312-168h133.078v-109.078H312V-168Zm346.922 0H792v-109.078H658.922V-168Zm-470.921-92.001h-72v-583.998h583.998v72H648V-792H168v480h20.001v51.999Z"/></svg>