<svg xmlns="http://www.w3.org/2000/svg" height="20" viewBox="0 -960 960 960" width="20"><path d="M192-212q-24.75 0-42.375-17.625T132-272v-416q0-24.75 17.625-42.375T192-748h576q24.75 0 42.375 17.625T828-688v416q0 24.75-17.625 42.375T768-212H192Zm70-121h292v-293H262v293Zm425.789-1q9.211 0 16.711-7.289 7.5-7.29 7.5-16.5 0-9.211-7.289-16.711-7.29-7.5-16.5-7.5-9.211 0-16.711 7.289-7.5 7.29-7.5 16.5 0 9.211 7.289 16.711 7.29 7.5 16.5 7.5ZM282-353v-253h252v253H282Zm405.789-103q9.211 0 16.711-7.289 7.5-7.29 7.5-16.5 0-9.211-7.289-16.711-7.29-7.5-16.5-7.5-9.211 0-16.711 7.289-7.5 7.29-7.5 16.5 0 9.211 7.289 16.711 7.29 7.5 16.5 7.5Zm0-122q9.211 0 16.711-7.289 7.5-7.29 7.5-16.5 0-9.211-7.289-16.711-7.29-7.5-16.5-7.5-9.211 0-16.711 7.289-7.5 7.29-7.5 16.5 0 9.211 7.289 16.711 7.29 7.5 16.5 7.5Z"/></svg>