<svg xmlns="http://www.w3.org/2000/svg" height="24" viewBox="0 -960 960 960" width="24"><path d="M835-7 722-119q-52.263 35.394-112.692 54.197Q548.878-46 481.372-46 391-46 312-80q-79-34-138-93T81-311.057Q47-390.114 47-480q0-68.092 19-129.046Q85-670 120-722l-98-98 67-67L902-74 835-7ZM442-174v-77h-77v-115L181-550q-3 17-5.5 34t-2.5 34.439q0 117.231 76.5 205.396Q326-188 442-174Zm410-83-93-93q13.841-30.729 21.42-64.364Q788-448 788-482q0-93.854-51.5-171.427T597-765v91H446v11L258-852q48.877-29.121 104.881-45.561Q418.886-914 481-914q89.524 0 168.262 34T787-787q59 59 93 138.057Q914-569.886 914-480q0 62.114-16.439 118.119Q881.121-305.877 852-257Z"/></svg>