<svg xmlns="http://www.w3.org/2000/svg" height="24" viewBox="0 -960 960 960" width="24"><path d="M224.615-160q-26.846 0-45.731-18.884Q160-197.769 160-224.615v-510.77q0-26.846 18.884-45.731Q197.769-800 224.615-800h510.77q26.846 0 45.731 18.884Q800-762.231 800-735.385v510.77q0 26.846-18.884 45.731Q762.231-160 735.385-160h-510.77ZM200-320v95.385q0 9.23 7.692 16.923Q215.385-200 224.615-200h510.77q9.23 0 16.923-7.692Q760-215.385 760-224.615V-320H200Zm0-40h560v-375.385q0-9.23-7.692-16.923Q744.615-760 735.385-760h-510.77q-9.23 0-16.923 7.692Q200-744.615 200-735.385V-360Zm0 40v120-120Z"/></svg>