<svg xmlns="http://www.w3.org/2000/svg" height="20" viewBox="0 -960 960 960" width="20"><path d="M183.869-207.869v-83.001H229v-231.869q0-90.109 54.815-159.098 54.815-68.989 142.685-85.786v-104.508h107v104.587q88.109 16.718 142.805 85.587Q731-613.087 731-522.739v231.869h45.131v83.001H183.869ZM480-490.804Zm.239 405.565q-31.184 0-53.027-21.773-21.842-21.772-21.842-52.857h149.5q0 31.195-21.773 52.913-21.773 21.717-52.858 21.717ZM312-290.87h336v-231.869q0-70-49-119t-119-49q-70 0-119 49t-49 119v231.869ZM79.26-522.5q0-92.307 37.317-169.904T219.956-826.37l56.261 57.174q-53.435 43.957-84.891 108.37-31.457 64.413-31.457 138.326H79.26Zm720.871 0q0-74.913-31.457-139.326-31.456-64.413-85.891-108.37l57.261-58.174q65.062 55.369 102.879 134.466Q880.74-614.807 880.74-522.5h-80.609Z"/></svg>