<svg xmlns="http://www.w3.org/2000/svg" height="20" viewBox="0 -960 960 960" width="20"><path d="M448-215.767V-288H192.615q-24.315 0-40.465-16.15Q136-320.3 136-344.615v-374.77q0-24.315 16.15-40.465Q168.3-776 192.615-776h574.77q24.315 0 40.465 16.15Q824-743.7 824-719.385v374.77q0 24.315-16.15 40.465Q791.7-288 767.385-288H512v72h56q6.839 0 11.419 4.52Q584-206.959 584-200.21t-4.569 11.479Q574.862-184 568.041-184H392.283q-6.822 0-11.552-4.52Q376-193.04 376-199.789q0-6.749 4.581-11.364 4.58-4.614 11.419-4.614h56Z"/></svg>