<svg xmlns="http://www.w3.org/2000/svg" height="20" viewBox="0 -960 960 960" width="20"><path d="M319-228.095Q319-252 326-274t20-40q6-10 11.5-21.218T363-359q0-11.586-5.667-21.724L346-401q-11.739-21.222-19.37-43.561Q319-466.9 319-491v-139q0-26.25-19.833-44.625Q279.333-693 251-693q-15.226 0-28.613 4.5Q209-684 198-674q32.564 17 52.282 49.349Q270-592.303 270-552q0 57.5-40.25 97.75T132-414q-57.5 0-97.75-40.25T-6-552q0-45 25.5-80T86-681q17-53 61.613-86.5T252-801q4.75 0 8 .5t7 .5q52-17 105.328-28Q425.655-839 480-839q52.381 0 103.19 9.5Q634-820 681-797q6-2 12.5-3t14.5-1q59.493 0 103.746 33.5Q856-734 874-681q41 14 66.5 49.216Q966-596.569 966-552q0 57.5-40.25 97.75T828-414q-57.5 0-97.75-40.25T690-552q0-40.303 19-72.651Q728-657 761-674q-11-10-24.5-14.5T709-693q-27.424 0-47.212 18.375Q642-656.25 642-630v139q0 24.1-8.609 46.1-8.608 22-19.391 43.9-6.222 10.138-11.111 20.276T598-359q0 12.277 4.5 23.238Q607-324.8 614-315q12.926 19.243 20.463 41.619Q642-251.004 642-228.131 642-214 640-199t-9 28l-19 45q-8 29-39.2 34l-31.2 5Q523-103 513-126t0-44l19-44q.222-4.231 1.111-7.793.889-3.562.889-5.981 0-7.813-3-14.974-3-7.161-8-14.252-16.483-23-24.741-49.63Q490-333.26 490-361q0-20.766 7.271-40.399Q504.542-421.033 515-440q6.059-11.341 12.529-23.854Q534-476.366 534-491v-139q0-24.343 6.5-45.172Q547-696 560-713q-21-4-40.243-6-19.243-2-39.5-2T441-718.5q-19 2.5-40 7.5 12 17 19 37.5t7 43.5v139q0 15 6 26.5t12 23.5q9.833 19.295 17.917 39.265Q471-381.766 471-361q0 27.957-8.793 54.237Q453.414-280.484 437-257q-4 6.593-7 13.974t-3 15.433q0 3.704.889 6.704.889 3 1.111 6.889l18 44q8 21-.538 41.756Q437.923-107.487 417-99q-21 8-40.859.385Q356.282-106.231 348-126l-19-45q-5.529-13.147-7.765-27.921Q319-213.695 319-228.095Z"/></svg>