<svg xmlns="http://www.w3.org/2000/svg" height="24" viewBox="0 -960 960 960" width="24"><path d="M403.305-387.478H556.13l24.086 69.216q4.566 14.392 16.851 23.218 12.286 8.826 27.301 8.826 25.936 0 40.393-20.87 14.457-20.869 5.196-44.652L540.87-697.13q-4.885-13.332-16.486-21.21t-25.975-7.878H464.87q-14.827 0-26.022 8.196-11.196 8.196-16.327 21.457L292.304-347.349q-8.695 22.087 4.772 41.609 13.468 19.522 37.837 19.522 14.86 0 27.017-8.761 12.158-8.761 17.288-23.152l24.087-69.347Zm22-76.435L478-620.477h4l52.695 156.564h-109.39ZM480-60.782q-87.522 0-163.906-32.96-76.385-32.96-132.888-89.464-56.504-56.503-89.464-132.888Q60.782-392.478 60.782-480t32.96-163.906q32.96-76.385 89.464-132.888 56.503-56.504 132.888-89.464 76.384-32.96 163.906-32.96t163.906 32.96q76.385 32.96 132.888 89.464 56.504 56.503 89.464 132.888 32.96 76.384 32.96 163.906t-32.96 163.906q-32.96 76.385-89.464 132.888-56.503 56.504-132.888 89.464Q567.522-60.782 480-60.782Z"/></svg>