<svg xmlns="http://www.w3.org/2000/svg" height="20" viewBox="0 -960 960 960" width="20"><path d="M221.585-290q-38.994 0-66.289-27.382Q128-344.765 128-383.882 128-423 155.296-451q27.295-28 66.289-28Q252-479 281.5-458.5T318-394h218q5-76 60-131.5T725-585l-67-305H512v-20h162l75 346h-11q-75.775 0-128.888 53.112Q556-457.775 556-382v8H318q-8 44-37 64t-59.415 20Zm516.533 2Q699-288 671.5-315.382q-27.5-27.383-27.5-66.5Q644-421 671.382-448.5q27.383-27.5 66.5-27.5Q777-476 804.5-448.618q27.5 27.383 27.5 66.5Q832-343 804.618-315.5q-27.383 27.5-66.5 27.5ZM526-90l-194-98h112v-82l194 98H526v82Z"/></svg>