<svg xmlns="http://www.w3.org/2000/svg" height="24" viewBox="0 -960 960 960" width="24"><path d="M200-238.087q-50.957 0-86.435-35.478T78.087-360q0-50.957 35.478-86.435T200-481.913q39.717 0 70.337 22.38 30.62 22.381 43.098 57.62h205.543q10.283-68.239 56.978-120.913 46.696-52.674 113.174-71.957l-54.565-243.304H478.087v-83.826h223.348l90 400h-32.152q-66.718 0-113.957 47.478Q598.087-426.957 598.087-360v41.913H313.435q-12.478 35.239-43.218 57.62-30.739 22.38-70.217 22.38Zm560 0q-50.957 0-86.435-35.478T638.087-360q0-50.957 35.478-86.435T760-481.913q50.957 0 86.435 35.478T881.913-360q0 50.957-35.478 86.435T760-238.087ZM521.913-37.13 272.587-161.913h165.5v-80.957l249.326 124.783h-165.5v80.957Z"/></svg>