<svg xmlns="http://www.w3.org/2000/svg" height="24" viewBox="0 -960 960 960" width="24"><path d="M200-235.478q-52.261 0-88.391-36.131Q75.478-307.739 75.478-360t36.131-88.391q36.13-36.131 88.391-36.131 40.696 0 71.478 22.217 30.783 22.218 43.913 57.783H512.13q9.304-68.565 57.63-123.522 48.327-54.957 115.457-73.261l-52.608-234.173H475.478v-89.044h227.913l90 400h-35.087q-67.695 0-115.261 48.131-47.565 48.13-47.565 116.391v44.522H315.391q-13.13 35.565-44.195 57.783Q240.13-235.478 200-235.478Zm560 0q-52.261 0-88.391-36.131-36.131-36.13-36.131-88.391t36.131-88.391q36.13-36.131 88.391-36.131t88.391 36.131q36.131 36.13 36.131 88.391t-36.131 88.391q-36.13 36.131-88.391 36.131ZM524.522-33.217 262.477-164.522h173.001v-82.261l262.045 131.305H524.522v82.261Z"/></svg>