<svg xmlns="http://www.w3.org/2000/svg" height="24" viewBox="0 -960 960 960" width="24"><path d="M204.296-260q-41.534 0-70.607-29.14-29.074-29.14-29.074-70.77 0-41.629 29.074-70.859Q162.762-460 204.296-460q32.396 0 60.973 20.192 28.577 20.193 37.5 59.808h242.769q7.154-71.077 56.885-123.615 49.731-52.539 117.269-61.77L655.231-860H504.615v-40h183.077l80.77 370.769h-13.077q-70.443 0-120.606 50.164-50.164 50.163-50.164 120.605V-340H302.769q-8.923 39.615-37.5 59.808Q236.692-260 204.296-260Zm.319-40q24.693 0 42.346-17.654 17.654-17.654 17.654-42.346 0-24.692-17.654-42.346Q229.308-420 204.615-420q-24.692 0-42.346 17.654-17.654 17.654-17.654 42.346 0 24.692 17.654 42.346Q179.923-300 204.615-300Zm550.86 41.539q-41.629 0-70.86-29.141-29.23-29.14-29.23-70.769 0-41.629 29.14-70.86t70.769-29.231q41.629 0 70.86 29.141 29.231 29.14 29.231 70.769 0 41.629-29.141 70.86-29.14 29.231-70.769 29.231Zm-.09-40.001q24.692 0 42.346-17.653 17.654-17.654 17.654-42.347 0-24.692-17.654-42.346-17.654-17.653-42.346-17.653-24.693 0-42.346 17.653-17.654 17.654-17.654 42.346 0 24.693 17.654 42.347 17.653 17.653 42.346 17.653ZM518.462-53.846 313.846-156.923h135.385v-69.231l204.615 103.077H518.462v69.23ZM204.615-360Zm550.77 1.538Z"/></svg>