<svg xmlns="http://www.w3.org/2000/svg" height="20" viewBox="0 -960 960 960" width="20"><path d="M206-672q-4.25 0-7.125-2.825-2.875-2.824-2.875-7 0-4.175 2.875-7.175t7.125-3h548q4.25 0 7.125 2.825 2.875 2.824 2.875 7 0 4.175-2.875 7.175T754-672H206Zm0 404q-4.25 0-7.125-2.825-2.875-2.824-2.875-7 0-4.175 2.875-7.175t7.125-3h548q4.25 0 7.125 2.825 2.875 2.824 2.875 7 0 4.175-2.875 7.175T754-268H206Zm0-202q-4.25 0-7.125-2.825-2.875-2.824-2.875-7 0-4.175 2.875-7.175t7.125-3h548q4.25 0 7.125 2.825 2.875 2.824 2.875 7 0 4.175-2.875 7.175T754-470H206Z"/></svg>