<svg xmlns="http://www.w3.org/2000/svg" height="20" viewBox="0 -960 960 960" width="20"><path d="M278-492v-336q0-22.3 15.789-38.15 15.79-15.85 38-15.85Q354-882 370-866.15T386-828v336H278Zm152 0v-384q0-22.3 15.789-38.15 15.79-15.85 38-15.85Q506-930 522-914.15T538-876v384H430Zm152 126v-414q0-22.3 15.789-38.15 15.79-15.85 38-15.85Q658-834 674-818.15T690-780v367l-108 47ZM288-138h265q1.727 0 2.864.5Q557-137 557-138l225-199h-1L471-202 357-348H234v156q0 22.7 15.65 38.35Q265.3-138 288-138Zm0 108q-68 0-115-47t-47-115v-264h284l95 120 185-77 53-20q31-14 67-15t59 25l79 83L629-59q-17 14-36 21.5T553-30H288Zm-54-426H126v-275.714Q126-754 141.789-770q15.79-16 38-16Q202-786 218-770.15T234-732v276Zm0-36h348-348Zm54 354h-54 323-269Z"/></svg>