<svg xmlns="http://www.w3.org/2000/svg" height="20" viewBox="0 -960 960 960" width="20"><path d="M288-48q-60 0-102-42t-42-102v-144h222l134 170 225-203 53-27q18-9 38-7t37 14l68 51L617-72q-14 11-30.5 17.5T553-48H288ZM144-408v-323.714Q144-747 154.289-757.5q10.29-10.5 25.5-10.5Q195-768 205.5-757.65 216-747.3 216-732v252h80v-348q0-15.3 10.289-25.65 10.29-10.35 25.5-10.35Q347-864 357.5-853.65 368-843.3 368-828v348h80v-396q0-15.3 10.289-25.65 10.29-10.35 25.5-10.35Q499-912 509.5-901.65 520-891.3 520-876v396h80v-300q0-15.3 10.289-25.65 10.29-10.35 25.5-10.35Q651-816 661.5-805.65 672-795.3 672-780v362L509-271 401-408H144Z"/></svg>