<svg xmlns="http://www.w3.org/2000/svg" height="20" viewBox="0 -960 960 960" width="20"><path d="M672.239-490.522v-155.565l-94.043 93.804-26.435-27.435 105-104-105-105 26.435-27.434 94.043 93.804v-154.565h37.435l96.956 97.195-96 96 96 96-96.956 97.196h-37.435Zm38.152-54.826 42.37-42.37-42.37-43.369v85.739Zm0-192 42.37-42.37-42.37-43.369v85.739Zm56.652 601.479q-110 0-223.554-51.957Q429.935-239.782 334.5-334.739q-95.435-95.196-147.033-208.033-51.598-112.837-51.598-225.032v-57.327h239.175l41.587 181.001-123.696 120.152q21.804 36.608 46.989 69.576 25.185 32.967 52.989 60.772 26.804 26.565 57.533 50.51 30.728 23.946 68.38 47.272L644.804-417.87l179.327 39.109v242.892h-57.088Z"/></svg>