<svg xmlns="http://www.w3.org/2000/svg" height="20" viewBox="0 -960 960 960" width="20"><path d="M644.308-464.615v-163.154l-99.615 99.615L525.846-548l105-104-105-105 18.847-19.846 99.615 99.615v-162.154h29.846l91.385 89.846-96 97.539 96 96-91.385 91.385h-29.846Zm26.769-35.616L726.846-556l-55.769-56.769v112.538Zm0-192 55.769-57.308-55.769-56.769v114.077ZM738-184q-93.077 0-191.231-46.769T363.077-363.077q-84.77-85.538-131.923-184.846Q184-647.231 184-739v-38h162.539l34.923 132.308-110.847 103.384q28.385 47.462 57.193 86.693 28.807 39.23 58.577 69.769 31.077 32.615 69.846 60.807 38.769 28.193 91.307 58.577L656-374.769l120 25.23V-184h-38Z"/></svg>