<svg xmlns="http://www.w3.org/2000/svg" height="24" viewBox="0 -960 960 960" width="24"><path d="M652.308-464.615v-158.154l-96.615 96.615L533.846-548l112-112-112-112 21.847-21.846 96.615 96.615v-158.154h13.846l109.385 109.846-86 85.539 86 86-109.385 109.385h-13.846Zm30.769-60.616L731.846-574l-48.769-48.769v97.538Zm0-172 48.769-48.308-48.769-48.769v97.077ZM768-160q-108.077 0-216.731-49.769T351.077-351.077q-90.77-91.538-140.923-200.846Q160-661.231 160-768v-32h177.539l33.923 163.308-107.847 100.384q27.385 47.462 56.693 86.693 29.307 39.23 61.077 70.769 32.077 33.615 72.346 62.807 40.269 29.193 91.807 57.577L650-366.769l150 30.23V-160h-32ZM244.846-573.846l83.692-76.769L305.385-760H200.231q1.154 45.769 12.307 92.192 11.154 46.423 32.308 93.962Zm338 333.384q36.923 18.539 83.577 28.924 46.654 10.384 93.577 11.076v-104.153l-95.538-19-81.616 83.153Zm-338-333.384Zm338 333.384Z"/></svg>