<svg xmlns="http://www.w3.org/2000/svg" height="24" viewBox="0 -960 960 960" width="24"><path d="M680.565-504.871v-148.608l-89.739 89.173-31.391-31.391 112-112-112-112 31.391-31.392 89.739 89.174v-148.608h23.392l116.261 118.826-86 84 86 86-116.261 116.826h-23.392Zm45.087-85.044 31.783-31.782-31.783-31.782v63.564Zm0-172 31.783-29.782-31.783-31.782v61.564Zm70.087 661.133q-125 0-251.174-56.261T314.999-315.565Q211.608-418.391 156.195-542.369q-55.413-123.979-55.413-252.805v-64.044H379.74l45.479 227.001L295.392-512.13q19.174 33.348 43.065 63.543 23.891 30.196 52.065 57.369 26.174 25.609 55.304 48.435 29.13 22.826 61.217 41.869l130.131-127.87 222.044 48.348v279.654h-63.479ZM244.391-609.044l65.435-60.913-15.869-83.26h-85.044q3.87 41.043 12.739 76.587 8.87 35.543 22.739 67.586Zm360.261 360.826q35.478 15.305 72.587 24.739 37.109 9.435 75.978 13.566v-85.174l-82.695-17.87-65.87 64.739ZM244.391-609.044Zm360.261 360.826Z"/></svg>