<svg xmlns="http://www.w3.org/2000/svg" height="20" viewBox="0 -960 960 960" width="20"><path d="M587.923-491.462 420.231-659.154q11.692-9.538 26.577-13.192Q461.692-676 481.538-676q50.77 0 86.616 36.231Q604-603.539 604-552q0 17.538-4.038 34.346-4.039 16.808-12.039 26.192ZM250.846-269.615q56.308-36.231 110.885-53.308Q416.308-340 479.55-340q46.331 0 84.313 11.5 37.983 11.5 61.906 22.73L504.077-427.461q-67.769 9.307-112.462-35.5Q346.923-507.769 357-574.538L246.615-684.923q-35.615 41-57.115 92.846Q168-540.231 168-479.87q0 61.562 21.231 113.87 21.23 52.308 61.615 96.385Zm458.385 2.461q35.538-43 59.154-95.808Q792-415.769 792-479.815 792-610 700.838-701 609.675-792 480-792q-60.385 0-115.231 21.577t-97.615 61.192l442.077 442.077ZM480-136q-71.797 0-134.569-26.778-62.773-26.779-109.323-73.33-46.551-46.55-73.33-109.323Q136-408.203 136-480q0-71.988 26.778-134.665 26.779-62.677 73.33-109.227 46.55-46.551 109.323-73.33Q408.203-824 480-824q71.988 0 134.665 26.778 62.677 26.779 109.227 73.33 46.551 46.55 73.33 109.227Q824-551.988 824-480q0 71.797-26.778 134.569-26.779 62.773-73.33 109.323-46.55 46.551-109.227 73.33Q551.988-136 480-136Zm-.5-32q54.577 0 108.731-21.115 54.154-21.116 96.692-55.193-42-31.307-97.962-47.5Q531-308 480-308t-106.038 15.039q-55.039 15.038-100.885 47.653 43.538 35.077 97.692 56.193Q424.923-168 479.5-168Zm.5-69Z"/></svg>