<svg xmlns="http://www.w3.org/2000/svg" height="20" viewBox="0 -960 960 960" width="20"><path d="M480-480ZM76.782-586.174v-103.043q0-41.305 28.498-69.653 28.498-28.348 69.503-28.348h610.434q41.005 0 69.503 28.498 28.498 28.498 28.498 69.503v81.693q0 20.387-14.246 34.694-14.246 14.307-34.544 14.307-20.298 0-34.754-14.307-14.457-14.307-14.457-34.694v-81.693H174.783v103.043H76.782Zm98.001 413.392q-41.005 0-69.503-28.498-28.498-28.498-28.498-69.503v-103.043h98.001v103.043h144.824q20.387 0 34.694 14.246 14.307 14.246 14.307 34.544 0 20.298-14.307 34.755-14.307 14.456-34.694 14.456H174.783ZM299.5-302.826q-13.891 0-24.152-6.695-10.261-6.696-16.957-16.392l-59.739-107.913h-76.261q-19.257 0-32.716-13.398t-13.459-32.565q0-19.168 13.46-32.777 13.458-13.608 32.715-13.608h105.044q12.359 0 23.136 6.695 10.777 6.696 16.908 17.957L300-445.045l102.956-188.477q6.131-11.261 17.101-17.457 10.971-6.195 23.943-6.195 12.826 0 23.087 6.195 10.261 6.196 16.957 17.457l43.999 78.564q-23.087 4.13-43.326 16.87-20.24 12.739-34.935 32.957L444-514.39 339.479-326.478q-6.131 10.261-16.109 16.957-9.979 6.695-23.87 6.695ZM493.956-40.652q-33.391 0-56.37-22.978Q414.608-86.61 414.608-120l2-127.913q0-7.918 1.065-15.481t4.761-15.39l55.218-174.652q8.13-25.261 29.394-41.174 21.264-15.913 47.389-15.913h74.217v-17.137q0-18.036 12.55-30.797 12.551-12.761 30.587-12.761 18.037 0 30.798 12.611t12.761 30.737v17.347H789q26.261 0 46.957 16.413 20.695 16.413 28.826 41.674l57.783 182.652q3.696 7.827 4.761 15.708 1.065 7.882 1.065 16.163V-120q0 33.391-23.761 56.37-23.761 22.978-55.587 22.978H768q-33.391 0-56.37-22.978Q688.652-86.61 688.652-120v-12q0-18.126 12.55-30.737 12.551-12.611 30.587-12.611 16.341 0 28.537 10.632 12.196 10.633 14.457 25.933v11.435h66.913v-117.957l-58.783-178.522h-67.565v59.131l55.739 55.739q13.261 12.927 13.544 30.138.282 17.21-13.544 31.036t-30.37 13.826q-16.543 0-30.369-13.826L672-286.13l-39.913 38.912q-13.826 13.827-30.37 13.261-16.543-.565-29.804-13.826-13.826-13.826-13.826-30.37 0-16.543 13.826-30.37l56.739-56.173v-59.131h-69.13l-57.218 178.522v117.957h67.478v-12.565q2.827-15.3 14.246-25.368 11.42-10.067 27.761-10.067 18.037 0 30.798 12.611T655.348-132v12q0 33.391-23.761 56.37Q607.826-40.652 576-40.652h-82.044ZM672-275.87Zm-100.087-32.653 56.739-56.173v-59.131 59.131l-56.739 56.173Zm199.174-.434-55.739-55.739v-59.131 59.131l55.739 55.739Z"/></svg>