<svg xmlns="http://www.w3.org/2000/svg" height="20" viewBox="0 -960 960 960" width="20"><path d="M620.615-700.615q-27.307 0-45.653-18.347-18.347-18.346-18.347-45.653 0-27.308 18.347-45.654 18.346-18.347 45.653-18.347 27.308 0 45.654 18.347 18.347 18.346 18.347 45.654 0 27.307-18.347 45.653-18.346 18.347-45.654 18.347Zm-232.692 207L496-385.538V-184h-32v-187.692L281.308-534.615l161.538-161.539q7.154-6.154 17.462-10.385 10.307-4.23 19.692-4.23 13.385 0 26.692 7.73 13.308 7.731 21.462 17.885l73 79q29.231 31.231 67.577 50T748-533.539V-500q-50-3.846-95.769-24.038-45.77-20.193-78.385-60.808L530-635.692 387.923-493.615Zm-180.538 86.23q69.538 0 118.461 48.923T374.769-240q0 69.539-48.923 118.462T207.385-72.615q-69.539 0-118.462-48.923T40-240q0-69.539 48.923-118.462t118.462-48.923Zm0 287.385q51.538 0 85.769-34.231 34.231-34.231 34.231-85.769 0-51.538-34.231-85.769Q258.923-360 207.385-360q-51.539 0-85.77 34.231-34.23 34.231-34.23 85.769 0 51.538 34.23 85.769Q155.846-120 207.385-120Zm545.23-287.385q69.539 0 118.462 48.923T920-240q0 69.539-48.923 118.462T752.615-72.615q-69.538 0-118.461-48.923T585.231-240q0-69.539 48.923-118.462t118.461-48.923Zm0 287.385q51.539 0 85.77-34.231 34.23-34.231 34.23-85.769 0-51.538-34.23-85.769Q804.154-360 752.615-360q-51.538 0-85.769 34.231-34.231 34.231-34.231 85.769 0 51.538 34.231 85.769Q701.077-120 752.615-120Z"/></svg>