<svg xmlns="http://www.w3.org/2000/svg" height="20" viewBox="0 -960 960 960" width="20"><path d="M271-288H84q-15.3 0-25.65-10.35Q48-308.7 48-324v-264q0-15.3 10.35-25.65Q68.7-624 84-624h144l46-57q16.443-18.943 37.721-28.971Q333-720 357-720h374q15.3 0 25.65 10.289 10.35 10.29 10.35 25.5Q767-669 756.65-658.5 746.3-648 731-648H576v48h252q15.3 0 25.65 10.289 10.35 10.29 10.35 25.5Q864-549 853.65-538.5 843.3-528 828-528H576v48h300q15.3 0 25.65 10.289 10.35 10.29 10.35 25.5Q912-429 901.65-418.5 891.3-408 876-408H576v48h204q15.3 0 25.65 10.289 10.35 10.29 10.35 25.5Q816-309 805.65-298.5 795.3-288 780-288H468l18 31q17 32 12 67t-31 61l-10 10q-11 12-26.5 11T404-122L271-288Z"/></svg>