<svg xmlns="http://www.w3.org/2000/svg" height="20" viewBox="0 -960 960 960" width="20"><path d="M445-119v-91q0-12.208 4.5-22.89Q454-243.571 462-252l227-227q17.685-17 39.096-25 21.411-8 43.657-8 22.247 0 43.832 8 21.586 8 39.415 25l8 7q19 17 27 39.119 8 22.118 8 45 0 22.881-7.5 45.381T864-303L637-77q-8.429 8-18.661 12.5-10.233 4.5-21.928 4.5h-92.274Q480-60 462.5-77.35T445-119Zm369-272-36-35 36 35ZM543-158h36l130-130-16-15-19-20-131 129v36Zm150-145-19-20 19 20 16 15-16-15ZM216-60q-65-1-110.5-46.5T60-217q0-48 27-87.5t70-58.5v-238q-43-19-70-57.5T60-744q0-66 45.5-111T216-900q48 0 86.5 26.5T360-803h33l-5-5q-18-17.909-17.5-41.955Q371-874 389-892t41.167-17.5Q453.333-909 471-892l106.768 105.768Q596-767.636 596-743.636q0 24-18 41.636L472.143-597.143Q454.182-580 431.091-580.5T390-599q-18-18-18-41.833 0-23.834 18-41.167l3-3h-33q-12.574 27.219-34.787 49.109Q303-614 275-601v240q43 19 70 57.805T372-216q0 65-45.5 110.5T216-60Zm528-841q66 0 111 45t45 111q0 66-45 111t-111 45q-66 0-111-45t-45-111q0-66 45-111t111-45ZM216.5-179q15.9 0 26.7-11.3 10.8-11.3 10.8-27.2 0-15.9-10.925-26.7Q232.15-255 216-255q-15.4 0-26.7 10.925Q178-233.15 178-217q0 15.4 11.3 26.7 11.3 11.3 27.2 11.3Zm0-527q15.9 0 26.7-11.3 10.8-11.3 10.8-27.2 0-15.9-10.925-26.7Q232.15-782 216-782q-15.4 0-26.7 10.925Q178-760.15 178-744q0 15.4 11.3 26.7 11.3 11.3 27.2 11.3Zm528-1q15.9 0 26.7-11.3 10.8-11.3 10.8-27.2 0-15.9-10.925-26.7Q760.15-783 744-783q-15.4 0-26.7 10.925Q706-761.15 706-745q0 15.4 11.3 26.7 11.3 11.3 27.2 11.3ZM216-217Zm0-527Zm528-1Z"/></svg>