<svg xmlns="http://www.w3.org/2000/svg" height="20" viewBox="0 -960 960 960" width="20"><path d="M479.692-195.077v-44.769q0-5.958 2.231-11.171 2.231-5.214 6.461-9.444l242.693-243.462q4.831-3.846 10.669-5.769t11.623-1.923q5.785 0 11.947 1.538 6.163 1.538 10.838 5.385L813-470.154q6.385 4.616 8.308 11.21 1.923 6.593 2.692 13.653.769 7.06-.769 13.637-1.538 6.577-7.923 11.193l-245.769 245q-4.231 4.231-8.996 6.461-4.764 2.231-10.209 2.231h-42.197q-11.868 0-20.157-8.138-8.288-8.139-8.288-20.17Zm317.616-251.23-37.077-38.154 37.077 38.154ZM511.692-198.769H548l175.923-175.923-16.154-15.154-21.462-21.692-174.615 173.615v39.154Zm196.077-191.077-21.462-21.692 21.462 21.692 16.154 15.154-16.154-15.154ZM246.95-166.769q-33.258-1-56.72-24.333-23.461-23.334-23.461-56.667 0-28.231 18.615-50.385 18.616-22.154 45.385-30v-307.461q-26.769-7.847-45.385-29.116-18.615-21.269-18.615-48.5 0-34.333 23.333-57.167 23.334-22.833 56.667-22.833 28.231 0 49.5 18.115 21.269 18.116 29.116 45.885h161.076l-78.615-77.846q-5.615-4.825-5.615-11.259 0-6.433 5.615-12.049Q413.461-836 419.282-836t11.103 5.615l97.306 97.307q8.925 8.924 8.925 20.029t-8.693 19.433l-96.626 96.627q-4.989 4.989-10.912 4.874-5.924-.116-11.539-5.731-5.615-5.616-5.615-11.436 0-5.821 5.615-11.103l77.615-76.846H325.385q-6.498 22.604-22.865 38.648-16.366 16.045-39.751 22.968v309.23q26.769 7.847 45.385 29.421 18.615 21.574 18.615 50.195 0 33.333-23.28 56.667-23.281 23.333-56.539 23.333Zm466.1-627.462q34.258 0 57.22 22.78 22.961 22.781 22.961 57.039t-22.78 57.22q-22.781 22.961-57.039 22.961t-57.22-22.78q-22.961-22.781-22.961-57.039t22.78-57.22q22.781-22.961 57.039-22.961ZM246.769-199.769q20.4 0 34.2-13.8 13.8-13.8 13.8-34.2 0-20.4-13.8-34.2-13.8-13.8-34.2-13.8-20.4 0-34.2 13.8-13.8 13.8-13.8 34.2 0 20.4 13.8 34.2 13.8 13.8 34.2 13.8Zm0-465.462q20.4 0 34.2-13.8 13.8-13.8 13.8-34.2 0-20.4-13.8-34.2-13.8-13.8-34.2-13.8-20.4 0-34.2 13.8-13.8 13.8-13.8 34.2 0 20.4 13.8 34.2 13.8 13.8 34.2 13.8Zm466.462-1q20.4 0 34.2-13.8 13.8-13.8 13.8-34.2 0-20.4-13.8-34.2-13.8-13.8-34.2-13.8-20.4 0-34.2 13.8-13.8 13.8-13.8 34.2 0 20.4 13.8 34.2 13.8 13.8 34.2 13.8ZM246.769-247.769Zm0-465.462Zm466.462-1Z"/></svg>