<svg xmlns="http://www.w3.org/2000/svg" height="20" viewBox="0 -960 960 960" width="20"><path d="M432-132v-94q0-7.636 3-14.318Q438-247 443-252l256.102-255.106Q710-518 722.836-523q12.836-5 27-5t27.249 5.5Q790.171-517 801-506l42 42q11 11 16 24.182 5 13.182 5 26.818 0 13.636-5 26.818Q854-373 843-362L588-107q-5 5-11.682 8T562-96h-94.056Q453-96 442.5-106.35 432-116.7 432-132Zm316-237 44-44-42-43-45 45 43 42ZM216-96q-50-1-85-36t-35-85q0-39 24-70t60-45v-299q-36-14-60-44.5T96-744q0-51 35-85.5t85-34.5q39 0 69.5 23.5T330-780h108l-44-44q-11-10.909-11-25.455Q383-864 394-875q11-11 25.667-11 14.666 0 25.333 11l105.768 105.768Q562-758 562-743.818q0 14.182-11 24.818L445.143-613.143Q434-602 420-602.5T395-614q-11-11-11-25.667 0-14.666 11-25.333l43-43H330q-9.574 27.219-29.787 47.109Q280-641 252-631v300q36 14 60 44.805T336-216q0 50-35 85t-85 35Zm528-769q51 0 85.5 34.5T864-745q0 51-34.5 85.5T744-625q-51 0-85.5-34.5T624-745q0-51 34.5-85.5T744-865Z"/></svg>