<svg xmlns="http://www.w3.org/2000/svg" height="24" viewBox="0 -960 960 960" width="24"><path d="M413-107v-104q0-12.571 4.5-23.571 4.5-11 13.5-20.429l254-253q19-19 42-28t47-9q24 0 47 9t42 28l14 14q19 19 28 42.102 9 23.101 9 47 0 23.898-9 47.398-9 23.5-28 42.5L624-62q-9.429 9-20.429 13.5-11 4.5-23.571 4.5H476q-26 0-44.5-18.5T413-107Zm403-298-42-42 42 42ZM519-150h42l143-143-21-21-21-21-143 142v43Zm164-164-21-21 21 21 21 21-21-21ZM200-44q-65 0-110.5-45.5T44-200q0-48 25.5-86.5T137-343v-274q-42-18-67.5-56.5T44-760q0-65 45.5-110.5T200-916q48 0 86.5 25.5T343-823h59l-6-6q-19-19-18.5-44.5T397-918q19-19 44-18.5t44 18.5l114 113q19 19.364 19 45.182T599-715L485-602q-18.818 18-43.909 18Q416-584 397-603t-19-44.667q0-25.666 19-44.333l5-5h-59q-12 26-33 47t-47 33v274q42 18 67.5 56.5T356-200q0 65-45.5 110.5T200-44Zm560-872q65 0 110.5 45.5T916-760q0 65-45.5 110.5T760-604q-65 0-110.5-45.5T604-760q0-65 45.5-110.5T760-916ZM200.5-170q12.5 0 21-9t8.5-21.5q0-12.5-8.625-21T200-230q-12 0-21 8.625T170-200q0 12 9 21t21.5 9Zm0-560q12.5 0 21-9t8.5-21.5q0-12.5-8.625-21T200-790q-12 0-21 8.625T170-760q0 12 9 21t21.5 9Zm560 0q12.5 0 21-9t8.5-21.5q0-12.5-8.625-21T760-790q-12 0-21 8.625T730-760q0 12 9 21t21.5 9ZM200-200Zm0-560Zm560 0Z"/></svg>