<svg xmlns="http://www.w3.org/2000/svg" height="24" viewBox="0 -960 960 960" width="24"><path d="M462-202v-43q0-5.818 2-10.909Q466-261 471-266l266-266q4.39-4 9.695-6Q752-540 757-540t10.5 1.5q5.5 1.5 9.5 5.5l41 39q5 5 7 10.5t3 11.5q1 6-1 11.5t-7 10.5L551-181q-5 5-10.091 7-5.091 2-10.909 2h-38q-12.75 0-21.375-8.625T462-202Zm338-268-41-44 41 44ZM490-200h40l197-197-20-20-23-22-194 194v45Zm217-217-23-22 23 22 20 20-20-20ZM240.235-172Q212-172 192-191.833 172-211.667 172-240q0-25 15.5-43.5T226-307v-346q-23-5-38.5-23.5T172-720q0-28.333 19.833-48.167Q211.667-788 240-788q25 0 43.5 15.5T307-734h203l-90-89q-5-4.091-5-9.545Q415-838 420-843t10-5q5 0 10 5l102 102q9 9 9 21t-9 21L440-597q-4 4-9.5 4.5T420-597q-5-5-5-10t5-10l90-89H307q-5 20-19 34t-34 19v346q23 5 38.5 23.5T308-240q0 28.333-19.765 48.167-19.764 19.833-48 19.833Zm479.53-616Q748-788 768-768.235q20 19.764 20 48Q788-692 768.235-672q-19.764 20-48 20Q692-652 672-671.765q-20-19.764-20-48Q652-748 671.765-768q19.764-20 48-20ZM240-200q17 0 28.5-11.5T280-240q0-17-11.5-28.5T240-280q-17 0-28.5 11.5T200-240q0 17 11.5 28.5T240-200Zm0-480q17 0 28.5-11.5T280-720q0-17-11.5-28.5T240-760q-17 0-28.5 11.5T200-720q0 17 11.5 28.5T240-680Zm480 0q17 0 28.5-11.5T760-720q0-17-11.5-28.5T720-760q-17 0-28.5 11.5T680-720q0 17 11.5 28.5T720-680ZM240-240Zm0-480Zm480 0Z"/></svg>