<svg xmlns="http://www.w3.org/2000/svg" height="24" viewBox="0 -960 960 960" width="24"><path d="M447.692-183.077v-57.769q0-6.462 1.846-11.923 1.846-5.462 7.077-10.692l269.692-269.462q5.847-5.846 13.424-8.769 7.577-2.923 15.115-2.923 7.539 0 15.5 2.538 7.962 2.538 13.808 8.385l42.077 41.538q6.385 6.616 9.692 14.193 3.308 7.577 4.077 15.654.769 8.076-2.654 15.653t-9.807 14.193l-271.77 272q-5.23 5.231-10.692 7.461-5.462 2.231-11.923 2.231H480q-13.923 0-23.116-9.192-9.192-9.192-9.192-23.116Zm299.77-224.154L800-460.769l-42.846-45.385-54.308 54.308 44.616 44.615ZM230.769-150.769q-33.077 0-56.539-23.461-23.461-23.462-23.461-56.539 0-28.231 17.115-49.385 17.116-21.154 42.885-28v-343.461q-25.769-6.847-42.885-28.116-17.115-21.269-17.115-49.5 0-33.077 23.461-56.539 23.462-23.461 56.539-23.461 28.231 0 49.5 17.115 21.269 17.116 28.116 42.885h187.076l-79.615-78.846q-6.615-5.846-6.615-13.769t6.615-14.539Q422.461-863 430.115-863t14.27 6.615l104.538 104.539q9.693 9.692 9.693 22.615 0 12.923-9.693 22.615l-104.769 104.77q-5.846 5.846-13.769 6.231-7.924.384-14.539-6.231-6.615-6.616-6.615-14.27 0-7.653 6.615-14.269l79.615-78.846H308.385q-5.923 21.385-21.077 36.539-15.154 15.154-36.539 21.077v343.23q25.769 6.847 42.885 28.116 17.115 21.269 17.115 49.5 0 33.077-23.461 56.539-23.462 23.461-56.539 23.461Zm498.462-658.462q33.077 0 56.539 23.461 23.461 23.462 23.461 56.539t-23.461 56.539q-23.462 23.461-56.539 23.461t-56.539-23.461q-23.461-23.462-23.461-56.539t23.461-56.539q23.462-23.461 56.539-23.461Z"/></svg>