<svg xmlns="http://www.w3.org/2000/svg" height="20" viewBox="0 -960 960 960" width="20"><path d="M494-214v-30q0-5.455 2-10.227 2-4.773 6-8.773l239-240q3.075-2 6.791-3t6.962-1q3.247 0 7.332.5 4.086.5 6.915 2.5l35 32q5 3 6 7.517t2 9.5q1 4.983.5 9.483-.5 4.5-5.5 7.5L564-196q-4 4-8.324 6t-9.265 2h-26.274q-10.887 0-18.512-7.475T494-214Zm304-242-35-37 35 37ZM514-208h34l184-184-15-14-21-21-182 181v38Zm203-198-21-21 21 21 15 14-15-14ZM256.235-188Q228-189 208-208.833 188-228.667 188-257q0-25 17-44.5t41-25.5v-310q-24-6-41-24.5T188-704q0-29.333 19.833-48.667Q227.667-772 256-772q25 0 43.5 16.5T324-714h177l-89-88q-4-3-4-7t4-8q4-4 7.167-4 3.166 0 6.833 4l94.768 94.768Q529-714 529-703.818q0 10.182-8 17.818l-93.857 93.857Q424-589 420.5-589t-7.5-4q-4-4-4-7.167 0-3.166 4-6.833l88-87H324q-5.574 21.219-20.787 36.109Q288-643 266-637v312q24 6 41 24.805T324-256q0 28.333-19.765 48.167-19.764 19.833-48 19.833Zm447.53-585Q733-773 752.5-753.735q19.5 19.264 19.5 48.5Q772-676 752.735-656.5q-19.264 19.5-48.5 19.5Q675-637 655.5-656.265q-19.5-19.264-19.5-48.5Q636-734 655.265-753.5q19.264-19.5 48.5-19.5ZM256-209q20.4 0 34.2-13.8Q304-236.6 304-257q0-20.4-13.8-34.2Q276.4-305 256-305q-20.4 0-34.2 13.8Q208-277.4 208-257q0 20.4 13.8 34.2Q235.6-209 256-209Zm0-447q20.4 0 34.2-13.8Q304-683.6 304-704q0-20.4-13.8-34.2Q276.4-752 256-752q-20.4 0-34.2 13.8Q208-724.4 208-704q0 20.4 13.8 34.2Q235.6-656 256-656Zm448-1q20.4 0 34.2-13.8Q752-684.6 752-705q0-20.4-13.8-34.2Q724.4-753 704-753q-20.4 0-34.2 13.8Q656-725.4 656-705q0 20.4 13.8 34.2Q683.6-657 704-657ZM256-257Zm0-447Zm448-1Z"/></svg>