<svg xmlns="http://www.w3.org/2000/svg" height="24" viewBox="0 -960 960 960" width="24"><path d="M762.478-140.782H648.479q-19.261 0-32.457-13.195-13.196-13.196-13.196-32.457 0-19.261 13.196-32.457 13.196-13.196 32.457-13.196h113.999l-26.391-26.39q-13.13-13.131-12.913-31.957.217-18.826 13.348-31.957 13.13-12.696 31.957-12.913 18.826-.217 31.956 12.913l98.348 98.348q15.957 15.956 15.957 37.609 0 21.652-15.957 37.609l-98.348 98.348q-12.695 12.695-31.456 12.913-18.761.217-32.457-13.479-12.696-12.695-12.696-31.391 0-18.696 12.696-31.392l25.956-26.956Zm-595.695 0q-44.305 0-75.153-30.848-30.848-30.848-30.848-75.153v-466.434q0-44.305 30.848-75.153 30.848-30.848 75.153-30.848h626.434q44.305 0 75.153 30.848 30.848 30.848 30.848 75.153v330.088q-29.261-18.261-62.022-27.674-32.761-9.413-67.022-9.413-102.826 0-175.087 71.695-72.261 71.696-72.261 174.522v33.217H166.783ZM480-513.217 230.088-672.738q-20.392-13.261-41.848-1.566-21.457 11.696-21.457 36.218 0 10.696 4.848 19.609 4.848 8.913 13.978 15.044l266.043 169.651q13.391 8.827 28.348 8.827 14.957 0 28.348-8.827l266.043-169.651q9.13-6.131 13.978-15.044 4.848-8.913 4.848-19.609 0-24.522-21.457-36.218-21.456-11.695-41.848 1.566L480-513.217Z"/></svg>