<svg xmlns="http://www.w3.org/2000/svg" height="20" viewBox="0 -960 960 960" width="20"><path d="M792-696H168v432h384v72H168q-29 0-50.5-21.5T96-264v-432q0-29 21.5-50.5T168-768h624q29.7 0 50.85 21.5Q864-725 864-696v264h-72v-264Zm-624 0v432-179 1-254Zm312 179 312-179v85L499-443q-8.75 5-18.375 5T462-443L168-611v-85l312 179Zm294 325H659.928q-15.269 0-25.599-10.289Q624-212.579 624-227.789 624-243 634.329-253.5q10.33-10.5 25.599-10.5H774l-32.25-32.25Q731-307 731-321.5t11-25.978Q753-358 767.5-358t25.375 10.875l94.25 94.25Q898-242 898-227.818q0 14.182-11 24.818l-94 94q-11 11-25 10.5T743-110q-11-11-11-25.5t11-25.5l31-31Z"/></svg>