<svg xmlns="http://www.w3.org/2000/svg" height="24" viewBox="0 -960 960 960" width="24"><path d="M670.523-49.477q-33 0-56.5-23.5t-23.5-56.5q0-33 23.5-56.5t56.5-23.5q33 0 56.5 23.5t23.5 56.5q0 33-23.5 56.5t-56.5 23.5Zm-430.523 0q-33 0-56.5-23.5t-23.5-56.5q0-33 23.5-56.5t56.5-23.5q33 0 56.5 23.5t23.5 56.5q0 33-23.5 56.5t-56.5 23.5Zm158.131-306.001h206.391v-242.826L398.131-355.478ZM282.869-249.477q-35.044 0-48.653-30.913-13.609-30.914 8.478-56.566L659.87-828.045q21.696-24.696 48.676-38.109 26.981-13.413 58.917-13.413 61.669 0 104.343 42.755 42.674 42.756 42.674 104.149v1.096q0 22.088-15.457 37.544-15.456 15.457-37.544 15.457-22.087 0-37.544-15.457-15.456-15.456-15.456-37.261v-1.283q0-17.462-11.591-29.231-11.591-11.768-28.791-11.768-8.226 0-14.324 2.87-6.098 2.869-11.119 8.608l-32.131 36.696v369.914q0 43.726-31.138 74.863-31.138 31.138-74.863 31.138H282.869Zm106.218-335.002-187.305-186.74q-15.261-15.345-12.761-35.412t19.761-31.328q46.217-25.956 95.492-39.435 49.274-13.478 100.248-13.478 51.552 0 101.385 13.543 49.833 13.544 97.747 40.631L389.087-584.479Zm112.522 107.653ZM382.391-740.35l37.478-43.651q-3.478-.435-7.391-.652-3.913-.218-7.956-.218-15.478 0-30.304 1.87-14.826 1.869-29.304 5.173l37.477 37.478Zm0 0Z"/></svg>