<svg xmlns="http://www.w3.org/2000/svg" height="20" viewBox="0 -960 960 960" width="20"><path d="M701.788-42Q672-42 651-63.212q-21-21.213-21-51Q630-144 651.212-165q21.213-21 51-21Q732-186 753-164.788q21 21.213 21 51Q774-84 752.788-63q-21.213 21-51 21Zm-438 0Q234-42 213-63.212q-21-21.213-21-51Q192-144 213.212-165q21.213-21 51-21Q294-186 315-164.788q21 21.213 21 51Q336-84 314.788-63q-21.213 21-51 21ZM420-352h188v-223L420-352ZM265-234q-31.489 0-43.245-27.5Q210-289 229-311l448-528q20-23 46.689-35 26.69-12 58.281-12 60.179 0 101.605 41.539Q925-802.922 925-743.276v1.065Q925-718 907.711-700.5q-17.29 17.5-41.5 17.5-24.211 0-41.646-17.289-17.435-17.29-17.435-41v-1.395q0-10.783-7.15-18.049Q792.831-768 783.092-768q-6.485 0-11.038 2.5Q767.5-763 764-759l-38 45v362q0 48.675-34.662 83.338Q656.675-234 608-234H265Zm131-354L205-778q-15-15.149-13-37.574 2-22.426 20.182-34.555Q261-877 311.716-891.5 362.432-906 416-906q52.591 0 102.295 13.5Q568-879 618-851L396-588Zm120 125ZM389-758l24-30h-2q-12 0-24 1t-22 5l24 24Zm0 0Z"/></svg>