<svg xmlns="http://www.w3.org/2000/svg" height="20" viewBox="0 -960 960 960" width="20"><path d="M216-207q55-45 123.5-68T480-298q72 0 140.5 22.5T744-207v-457q0-12-10-22t-22-10H248q-12 0-22 10t-10 22v457Zm263.758-179Q430-386 396-420.242q-34-34.243-34-84Q362-554 396.242-588q34.243-34 84-34Q530-622 564-587.758q34 34.243 34 84Q598-454 563.758-420q-34.243 34-84 34ZM248-148q-22 0-37-15t-15-37v-464q0-22 15-37t37-15h112v-96q0-5.3 3.289-8.65 3.29-3.35 8.5-3.35 5.211 0 8.711 3.35T384-812v96h196v-98q0-4.3 2.789-7.15 2.79-2.85 7-2.85 4.211 0 7.211 2.85t3 7.15v98h112q22.7 0 37.35 15Q764-686 764-664v464q0 22-14.65 37T712-148H248Z"/></svg>