<svg xmlns="http://www.w3.org/2000/svg" height="20" viewBox="0 -960 960 960" width="20"><path d="M200-244q-22 0-37-15t-15-37v-368q0-22 15-37t37-15h560q22.7 0 37.35 15Q812-686 812-664v72h-20v-77L495.885-486.7q-3.885 1.7-7.541 3.2-3.656 1.5-8.344 1.5-4.524 0-8-1.5t-7-3.5L168-669v373q0 14 9 23t23 9h428v20H200Zm280-272 296-180H184l296 180ZM168-264v-417.919 6.99-18.571.5-3 3.952-2.452 19.678-6.995V-264Zm550 20q-7.2 0-12.6-5.4-5.4-5.4-5.4-12.6v-144q0-7 7-13t17-5h24v-54q0-27.7 19.212-46.85 19.213-19.15 47-19.15Q842-544 861-524.85q19 19.15 19 46.85v54h24q10.2 0 17.1 5.4 6.9 5.4 6.9 12.6v144q0 7.2-5.4 12.6-5.4 5.4-12.6 5.4H718Zm54-180h84v-54q0-17.3-12.289-29.65-12.29-12.35-29.5-12.35Q797-520 784.5-507.65T772-478v54Z"/></svg>