<svg xmlns="http://www.w3.org/2000/svg" height="24" viewBox="0 -960 960 960" width="24"><path d="M480-520 187-713q-5-3-10.5-2t-8.5 6q-4 5-2.5 10.5t6.5 8.5l291 193q8.125 5 17.062 5Q489-492 497-497l291-193q5-3 6.5-9t-2.5-11q-3-5-8.5-5.5T773-713L480-520Zm254 308q-14.45 0-24.225-9.775Q700-231.55 700-246v-120q0-15 12-24.5t28-9.5v-46q0-30.525 21.737-52.263Q783.475-520 814-520t52.263 21.737Q888-476.525 888-446v46q16 0 28 9.5t12 24.5v120q0 14.45-9.775 24.225Q908.45-212 894-212H734Zm34-188h92v-45.614Q860-465 846.5-478.5 833-492 814-492t-32.5 13.5Q768-465 768-445.614V-400ZM192-212q-24.75 0-42.375-17.625T132-272v-416q0-24.75 17.625-42.375T192-748h576q24.75 0 42.375 17.625T828-688v88h-14q-80.51 0-137.255 58.5Q620-483 620-401v189H192Z"/></svg>