<svg xmlns="http://www.w3.org/2000/svg" height="24" viewBox="0 -960 960 960" width="24"><path d="M480-508 244-661q-23-15-47.5-2T172-622.414Q172-610 177.5-600q5.5 10 15.5 17l253 164q16.25 11 34.125 11T514-419l253-164q10-7 15.5-17t5.5-22q0-28-24.5-41t-47.5 2L480-508Zm291 382q-17 0-28.5-11.5T731-166v-120q0-17 11.5-28.5T771-326v-40q0-33 23.5-56.5T851-446q33 0 56.5 23.5T931-366v40q17 0 28.5 11.5T971-286v120q0 17-11.5 28.5T931-126H771Zm40-200h80v-40q0-17-11.5-28.5T851-406q-17 0-28.5 11.5T811-366v40ZM172-126q-53 0-89.5-36.5T46-252v-456q0-53 36.5-89.5T172-834h616q53 0 89.5 36.5T914-708v182h-63q-82.878 0-141.292 58.5T651.294-326v200H172Z"/></svg>