<svg xmlns="http://www.w3.org/2000/svg" height="20" viewBox="0 -960 960 960" width="20"><path d="M180-158q-49 0-83.5-34.5T62-276v-408q0-49 34.5-83.5T180-802h600q49.7 0 83.85 34.5Q898-733 898-684v166H780v-50L512.885-408.7q-7.697 4.7-15.947 7.2T480-399q-8.524 0-16.594-2.5-8.07-2.5-15.406-7.5L180-568v292h479v118H180Zm300-346 300-180H180l300 180ZM180-276v-304.919 12.99-73.205.963V-684v43.952V-642v74.178-12.995V-276Zm575 118q-10.2 0-17.1-6.9-6.9-6.9-6.9-17.1v-144q0-10 7-17.5t17-6.5h24v-48q0-29.7 21.212-50.85 21.213-21.15 51-21.15Q881-470 902-448.85q21 21.15 21 50.85v48h24q10.2 0 17.1 6.9 6.9 6.9 6.9 17.1v144q0 10.2-6.9 17.1-6.9 6.9-17.1 6.9H755Zm60-192h72v-48q0-15.3-10.289-25.65-10.29-10.35-25.5-10.35Q836-434 825.5-423.65 815-413.3 815-398v48Z"/></svg>