<svg xmlns="http://www.w3.org/2000/svg" height="24" viewBox="0 -960 960 960" width="24"><path d="M172-126q-53 0-89.5-36.5T46-252v-456q0-53 36.5-89.5T172-834h616q53 0 89.5 36.5T914-708v182H788v-71L514-419q-7.812 5-16.406 7.5Q489-409 480-409q-9 0-17.594-2.5Q453.812-414 446-419L172-597v345h479v126H172Zm308-382 308-200H172l308 200ZM172-252v-345 14-79.634 1.463V-708v47-2 80-14 345Zm599 126q-17 0-28.5-11.5T731-166v-120q0-17 11.5-28.5T771-326v-40q0-33 23.5-56.5T851-446q33 0 56.5 23.5T931-366v40q17 0 28.5 11.5T971-286v120q0 17-11.5 28.5T931-126H771Zm40-200h80v-40q0-17-11.5-28.5T851-406q-17 0-28.5 11.5T811-366v40Z"/></svg>