<svg xmlns="http://www.w3.org/2000/svg" height="20" viewBox="0 -960 960 960" width="20"><path d="M192.615-232Q169-232 152.5-248.5 136-265 136-288.615v-382.77Q136-695 152.5-711.5 169-728 192.615-728h574.77q24.315 0 40.465 16.5Q824-695 824-671.385v88.616h-32v-72.846L496.808-476.546q-4.116 1.931-8.118 3.431-4.002 1.5-8.69 1.5-4.524 0-8.346-1.5-3.823-1.5-7.577-3.731L168-655.615v367q0 10.769 6.923 17.692T192.615-264h440v32h-440ZM480-516l299.692-180H180.308L480-516ZM168-264v-404.534 7.451-26.417.5-9 9.722-1.991 27.294-7.457V-264Zm556 32q-7.892 0-13.638-5.746-5.747-5.746-5.747-13.638v-144q0-7.693 7-14.039t17-5.346h24v-52.615q0-28.162 19.674-47.773 19.674-19.612 47.924-19.612 28.249 0 47.71 19.612 19.462 19.611 19.462 47.773v52.615h24q10.2 0 17.1 5.746 6.9 5.746 6.9 13.639v144q0 7.892-5.746 13.638Q923.892-232 916-232H724Zm55.385-182.769h81.23v-52.615q0-16.839-11.827-28.727Q836.96-508 820.211-508q-16.749 0-28.788 11.889-12.038 11.888-12.038 28.727v52.615Z"/></svg>