<svg xmlns="http://www.w3.org/2000/svg" height="24" viewBox="0 -960 960 960" width="24"><path d="M425-425v98q0 23.375 15.812 39.188Q456.625-272 480-272t39.188-15.812Q535-303.625 535-327v-98h98q23.375 0 39.188-15.812Q688-456.625 688-480t-15.812-39.188Q656.375-535 633-535h-98v-98q0-23.375-15.812-39.188Q503.375-688 480-688t-39.188 15.812Q425-656.375 425-633v98h-98q-23.375 0-39.188 15.812Q272-503.375 272-480t15.812 39.188Q303.625-425 327-425h98ZM212-86q-53 0-89.5-36.5T86-212v-536q0-53 36.5-89.5T212-874h536q53 0 89.5 36.5T874-748v536q0 53-36.5 89.5T748-86H212Z"/></svg>