<svg xmlns="http://www.w3.org/2000/svg" height="24" viewBox="0 -960 960 960" width="24"><path d="M460-460v140q0 8.5 5.758 14.25 5.757 5.75 14.269 5.75t14.242-5.75Q500-311.5 500-320v-140h140q8.5 0 14.25-5.758 5.75-5.757 5.75-14.269t-5.75-14.242Q648.5-500 640-500H500v-140q0-8.5-5.758-14.25-5.757-5.75-14.269-5.75t-14.242 5.75Q460-648.5 460-640v140H320q-8.5 0-14.25 5.758-5.75 5.757-5.75 14.269t5.75 14.242Q311.5-460 320-460h140ZM224.615-160Q197-160 178.5-178.5 160-197 160-224.615v-510.77Q160-763 178.5-781.5 197-800 224.615-800h510.77Q763-800 781.5-781.5 800-763 800-735.385v510.77Q800-197 781.5-178.5 763-160 735.385-160h-510.77Z"/></svg>