<svg xmlns="http://www.w3.org/2000/svg" height="24" viewBox="0 -960 960 960" width="24"><path d="M200.717-155.217V-500q0-143.997 100.376-244.39 100.375-100.393 244.348-100.393 143.972 0 244.407 100.376Q890.283-644.032 890.283-500.06q0 143.973-100.393 244.408Q689.498-155.217 545.5-155.217H200.717Zm91.001-91.001H545.5q105.417 0 179.6-74.172 74.183-74.173 74.183-179.576 0-105.404-74.173-179.61-74.173-74.206-179.576-74.206-105.403 0-179.61 74.182-74.206 74.183-74.206 179.6v253.782ZM545.5-355.696q59.913 0 102.109-42.195Q689.805-440.087 689.805-500t-42.196-102.109q-42.196-42.195-102.109-42.195t-102.109 42.195Q401.196-559.913 401.196-500t42.195 102.109q42.196 42.195 102.109 42.195Zm0-88.608q-23.206 0-39.451-16.245-16.244-16.245-16.244-39.451t16.244-39.451q16.245-16.245 39.451-16.245 23.207 0 39.451 16.245 16.245 16.245 16.245 39.451t-16.245 39.451q-16.244 16.245-39.451 16.245ZM69.717-155.217v-208.609h91v208.609h-91ZM545.5-500Z"/></svg>