<svg xmlns="http://www.w3.org/2000/svg" height="20" viewBox="0 -960 960 960" width="20"><path d="M264.615-232v-272q0-113.6 79.093-192.8Q422.8-776 536.247-776q113.446 0 192.907 79.092 79.462 79.093 79.462 192.539 0 113.446-79.2 192.908Q650.216-232 536.615-232h-272Zm32-32h240q99.693 0 169.847-70.217 70.153-70.218 70.153-170 0-99.783-70.217-169.783-70.217-70-170-70t-169.783 70.154q-70 70.154-70 169.846v240Zm240.223-128q47.085 0 79.431-32.568 32.347-32.569 32.347-79.654 0-47.086-32.569-79.432Q583.479-616 536.393-616q-47.085 0-79.431 32.568-32.347 32.569-32.347 79.654 0 47.086 32.569 79.432Q489.752-392 536.838-392Zm-.313-32q-33.371 0-56.64-23.36t-23.269-56.73q0-33.371 23.359-56.641Q503.335-584 536.706-584t56.64 23.36q23.269 23.359 23.269 56.73 0 33.371-23.359 56.641Q569.896-424 536.525-424ZM175.384-232v-152h32.001v152h-32.001Zm361.231-272Z"/></svg>