<svg xmlns="http://www.w3.org/2000/svg" height="20" viewBox="0 -960 960 960" width="20"><path d="M240-192v-312q0-130.306 90.784-221.153Q421.568-816 551.784-816T773-725.216q91 90.784 91 221T773.153-283Q682.306-192 552-192H240Zm312.222-180Q607-372 645.5-410.722q38.5-38.722 38.5-93.5T645.278-597.5q-38.722-38.5-93.5-38.5T458.5-597.278q-38.5 38.722-38.5 93.5t38.722 93.278q38.722 38.5 93.5 38.5ZM552-444q-25 0-42.5-17.5T492-504q0-25 17.5-42.5T552-564q25 0 42.5 17.5T612-504q0 25-17.5 42.5T552-444ZM120-192v-192h72v192h-72Z"/></svg>