<svg xmlns="http://www.w3.org/2000/svg" height="20" viewBox="0 -960 960 960" width="20"><path d="M116.001-212.001v-535.998h259.921l96 96h372.077v439.998H116.001Zm377.846-89.846h260.306v-13.307q0-24-39.577-43.346Q675-377.846 623.5-377.846q-51.5 0-90.576 18.846-39.077 18.846-39.077 43.846v13.307Zm130.365-136.307q25.942 0 43.864-18.136 17.923-18.135 17.923-44.076t-18.135-43.864q-18.135-17.923-44.076-17.923-25.942 0-43.864 18.135-17.923 18.136-17.923 44.077t18.135 43.864q18.135 17.923 44.076 17.923Z"/></svg>