<svg xmlns="http://www.w3.org/2000/svg" height="20" viewBox="0 -960 960 960" width="20"><path d="M136-232v-496h231.846l96 96H824v400H136Zm32-32h624v-336H450.769l-96-96H168v432Zm0 0v-432 432Zm339.692-51.692h232.616v-5.616q0-19-35.154-34.692T623.5-371.692q-46.5 0-81.154 15.192-34.654 15.192-34.654 35.192v5.616Zm116.52-128.616q22.096 0 36.942-15.058Q676-474.425 676-496.52q0-22.095-15.058-36.942-15.059-14.846-37.154-14.846-22.096 0-36.942 15.059Q572-518.191 572-496.095q0 22.095 15.058 36.941 15.059 14.846 37.154 14.846Z"/></svg>