<svg xmlns="http://www.w3.org/2000/svg" height="20" viewBox="0 -960 960 960" width="20"><path d="M240.717-183.869q-83.363 0-141.747-58.653-58.383-58.652-58.383-141.761 0-78.391 51.858-136.163 51.859-57.772 129.533-62.25 24.861-86.704 96.334-140.069Q389.786-776.131 480-776.131q108.196 0 188.25 68.74 80.054 68.739 82.685 172.695 70.717 2.631 119.598 53.305 48.88 50.674 48.88 121.108 0 73.506-51.511 124.96-51.511 51.454-124.619 51.454H525.087q-34.237 0-58.619-24.382-24.381-24.381-24.381-58.619v-159.412l-58.674 59.152-53.631-53.391L480-570.978l150.218 150.457-53.631 53.391-58.674-59.152v159.412h225.37q38.885 0 66.007-27.057 27.123-27.057 27.123-65.848 0-38.79-27.123-66.073-27.122-27.282-66.007-27.282h-74.87v-75.587q0-71.512-56.451-117.963-56.451-46.45-132.462-46.45-76.543 0-129.228 56.739T286.587-501.13h-45.87q-48.525 0-82.828 34.36-34.302 34.36-34.302 82.967t34.302 82.77q34.303 34.163 82.828 34.163h129.37v83.001h-129.37ZM480-432.5Z"/></svg>