<svg xmlns="http://www.w3.org/2000/svg" height="24" viewBox="0 -960 960 960" width="24"><path d="M515.696-111.869v-156.652q-17.522-61.609-61.587-90.913-44.066-29.305-95.913-29.305-11 0-21.522 1.5-10.522 1.5-20.804 3.261l63.478 64.239-63.652 63.653-173.392-173.153 173.392-173.152 63.652 63.652-62.761 63.761q8.283-1.761 17.924-2.761 9.641-1 20.163-1 41.848 0 84.174 12.424 42.326 12.424 76.848 40.793v-248.565l-64 64-63.892-64.652 173.392-173.152 173.152 173.152-63.652 63.652-64-63v562.218h-91Z"/></svg>