<svg xmlns="http://www.w3.org/2000/svg" height="24" viewBox="0 -960 960 960" width="24"><path d="M530.001-140.001V-290.77q-18.77-68.616-66-101.808-47.231-33.193-103.155-33.193-16.385 0-33.154 1.885-16.77 1.885-32.77 4.654l73.385 74.001-42.153 42.152-146.153-146.152 146.153-146.153 42.153 42.153-73.385 74q14.769-2.769 30.539-4.154 15.77-1.384 32.924-1.384 49.385 0 93.962 18.692 44.577 18.693 77.654 58.54v-297.157L456-630.693l-42.153-42.768L560-819.614l146.153 146.153L664-631.308l-74.001-73.386v564.693h-59.998Z"/></svg>