<svg xmlns="http://www.w3.org/2000/svg" height="24" viewBox="0 -960 960 960" width="24"><path d="m603-507 98-56q8-4.5 8-12.75T701-589l-98-56q-6.677-4-14.839-4Q580-649 573-645l-98 56q-8 4.5-8 12.75t8 13.25l98 56q6.677 4 14.839 4Q596-503 603-507Zm0 113 72-41q6.75-3.714 10.875-10.771Q690-452.829 690-461v-49l-87 51q-6.75 5-15 5t-15-5l-87-51v49q0 8.171 4.125 15.229Q494.25-438.714 501-435l72 41q6.677 4 14.839 4Q596-390 603-394Zm-123-86Zm288 268H572q0-7-.25-14t-.75-14h197q14 0 23-9t9-23v-416q0-14-9-23t-23-9H192q-14 0-23 9t-9 23v37q-7-.5-14-.75t-14-.25v-36q0-24.75 17.625-42.375T192-748h576q24.75 0 42.375 17.625T828-688v416q0 24.75-17.625 42.375T768-212Zm-458.182 0Q304-212 300-216.5t-5-10.5q-5-59-47.5-100.5T145-375q-6.094-.7-9.547-5.075Q132-384.45 132-390.05q0-5.95 5-9.95 5-4 11-3 71 6 120.5 55.5T323-227q1 6-3 10.5t-10.182 4.5ZM458-212q-7 0-10.5-6t-4.5-14q-8-119-92-202.5T147-524q-6 0-10.5-4.211-4.5-4.21-4.5-9.824 0-5.965 5-9.965t12-4q132 6 224.5 99T472-228q0 7-4.025 11.5T458-212Zm-300.056 0Q147-212 139.5-219.556q-7.5-7.557-7.5-18.5 0-10.944 7.556-18.444 7.557-7.5 18.5-7.5 10.944 0 18.444 7.556 7.5 7.557 7.5 18.5 0 10.944-7.556 18.444-7.557 7.5-18.5 7.5Z"/></svg>