<svg xmlns="http://www.w3.org/2000/svg" height="24" viewBox="0 -960 960 960" width="24"><path d="M701-539.522q18.522-12.102 18.522-33.617 0-21.514-18.522-33.34L522.392-721.305Q502.87-734.131 482-722.886q-20.87 11.246-20.87 35.06v229.651q0 23.814 20.87 35.059 20.87 11.246 40.392-1.58L701-539.522Zm-361.216 305.74q-44.305 0-75.154-30.848-30.848-30.849-30.848-75.154v-466.434q0-44.305 30.848-75.153 30.849-30.848 75.154-30.848h466.434q44.305 0 75.153 30.848 30.848 30.848 30.848 75.153v466.434q0 44.305-30.848 75.154-30.848 30.848-75.153 30.848H339.784Zm0-106.002h466.434v-466.434H339.784v466.434ZM153.782-47.781q-44.305 0-75.153-30.848-30.848-30.848-30.848-75.153v-519.435q0-22.087 15.457-37.544 15.456-15.457 37.544-15.457 22.087 0 37.544 15.457 15.456 15.457 15.456 37.544v519.435h519.435q22.087 0 37.544 15.456 15.457 15.457 15.457 37.544 0 22.088-15.457 37.544-15.457 15.457-37.544 15.457H153.782Zm186.002-758.437v466.434-466.434Z"/></svg>