<svg xmlns="http://www.w3.org/2000/svg" height="20" viewBox="0 -960 960 960" width="20"><path d="M408.377-396.308q-5.044 0-8.557-3.302-3.512-3.303-3.512-8.354 0-5.051 3.297-8.39 3.298-3.338 8.341-3.338h143.677q5.044 0 8.557 3.302 3.512 3.303 3.512 8.354 0 5.051-3.297 8.39-3.298 3.338-8.341 3.338H408.377Zm-48.377-96q-5.067 0-8.38-3.302-3.312-3.303-3.312-8.354 0-5.051 3.312-8.39 3.313-3.338 8.38-3.338h240q5.067 0 8.38 3.302 3.312 3.303 3.312 8.354 0 5.051-3.312 8.39-3.313 3.338-8.38 3.338H360ZM288.615-88q-24.315 0-40.465-16.15Q232-120.3 232-144.615v-670.77q0-24.315 16.15-40.465Q264.3-872 288.615-872h382.77q24.315 0 40.465 16.15Q728-839.7 728-815.385v670.77q0 24.315-16.15 40.465Q695.7-88 671.385-88h-382.77ZM264-220h432v-520H264v520Z"/></svg>