<svg xmlns="http://www.w3.org/2000/svg" height="24" viewBox="0 -960 960 960" width="24"><path d="M384.615-200Q357-200 338.5-218.5 320-237 320-264.615v-550.77Q320-843 338.5-861.5 357-880 384.615-880h350.77Q763-880 781.5-861.5 800-843 800-815.385v550.77Q800-237 781.5-218.5 763-200 735.385-200h-350.77ZM560-667.692q21.923 0 37.116-15.193 15.192-15.192 15.192-37.115 0-21.923-15.192-37.115-15.193-15.193-37.116-15.193-21.923 0-37.115 15.193-15.193 15.192-15.193 37.115 0 21.923 15.193 37.115 15.192 15.193 37.115 15.193Zm0 350.769q50.308 0 85.154-34.846T680-436.923q0-50.308-34.846-85.154T560-556.923q-50.308 0-85.154 34.846T440-436.923q0 50.308 34.846 85.154T560-316.923Zm0-40q-32.692 0-56.346-23.654Q480-404.231 480-436.923q0-32.692 23.654-56.346 23.654-23.654 56.346-23.654 32.692 0 56.346 23.654Q640-469.615 640-436.923q0 32.692-23.654 56.346-23.654 23.654-56.346 23.654ZM580-80H264.615Q237-80 218.5-98.5 200-117 200-144.615V-700q0-8.539 5.731-14.269Q211.461-720 220-720q8.538 0 14.269 5.731Q240-708.539 240-700v555.385q0 10.769 6.923 17.692T264.615-120H580q8.539 0 14.269 5.731Q600-108.538 600-99.999q0 8.538-5.731 14.268Q588.539-80 580-80Z"/></svg>