<svg xmlns="http://www.w3.org/2000/svg" height="20" viewBox="0 -960 960 960" width="20"><path d="M222.783-124.782q-40.426 0-69.213-28.788-28.788-28.787-28.788-69.213v-514.434q0-40.426 28.788-69.213 28.787-28.788 69.213-28.788H375.13q11.957-32.131 40.283-52.066 28.326-19.934 64.587-19.934t64.587 19.934q28.326 19.935 40.283 52.066h152.347q40.426 0 69.213 28.788 28.788 28.787 28.788 69.213v514.434q0 40.426-28.788 69.213-28.787 28.788-69.213 28.788H222.783Zm0-98.001h514.434v-514.434H222.783v514.434ZM480-763.478q12.36 0 20.441-8.081T508.522-792q0-12.36-8.081-20.441T480-820.522q-12.36 0-20.441 8.081T451.478-792q0 12.36 8.081 20.441T480-763.478ZM222.783-222.783v-514.434 514.434Zm90.565-65.782h26.565q10.826 0 19.304-3.565 8.479-3.566 15.654-10.783l221.825-221.783-72-72-221.739 221.739q-6.696 6.615-10.544 15.134-3.848 8.519-3.848 19.345v27.695q0 10.826 7.035 17.522 7.035 6.696 17.748 6.696Zm317.348-270.131 36-36q8-8 8-17t-8-17l-38-38q-8-8-17-8t-17 8l-36 36 72 72Z"/></svg>