<svg xmlns="http://www.w3.org/2000/svg" height="24" viewBox="0 -960 960 960" width="24"><path d="M206.783-100.782q-43.726 0-74.863-31.138-31.138-31.137-31.138-74.863v-546.434q0-43.726 31.138-74.863 31.137-31.138 74.863-31.138H356.13q16.957-37.131 50.283-58.566 33.326-21.434 73.587-21.434t73.587 21.434q33.326 21.435 50.283 58.566h149.347q43.726 0 74.863 31.138 31.138 31.137 31.138 74.863v546.434q0 43.726-31.138 74.863-31.137 31.138-74.863 31.138H206.783Zm0-106.001h546.434v-546.434H206.783v546.434ZM480-785.478q14.96 0 24.741-9.781 9.781-9.781 9.781-24.741 0-14.96-9.781-24.741-9.781-9.781-24.741-9.781-14.96 0-24.741 9.781-9.781 9.781-9.781 24.741 0 14.96 9.781 24.741 9.781 9.781 24.741 9.781ZM206.783-206.783v-546.434 546.434Zm100.565-73.782h35.565q10.826 0 20.304-4.065 9.479-4.066 16.74-11.327l225.739-223.739-86-86-223.739 223.739q-7.696 7.615-11.544 17.134-3.848 9.519-3.848 20.345v37.695q0 10.826 8.035 18.522 8.035 7.696 18.748 7.696Zm326.348-267.131 42-44q6-6 6-14t-6-14l-56-56q-6-6-14-6t-14 6l-44 42 86 86Z"/></svg>