<svg xmlns="http://www.w3.org/2000/svg" height="24" viewBox="0 -960 960 960" width="24"><path d="M858.46-650.001H558.461v-59.998H858.46v59.998Zm-523.074 510q-74.923 0-127.461-52.538Q155.387-245.078 155.387-320q0-45.692 21.385-84.5 21.384-38.807 58.615-64.73V-720q0-41.922 29.038-70.961 29.038-29.038 70.961-29.038 41.922 0 70.96 29.038 29.038 29.039 29.038 70.961v250.77q37.231 25.923 58.423 64.73Q515-365.692 515.384-320q-.384 74.922-52.922 127.461-52.538 52.538-127.076 52.538Zm-40-419.999h80v-160q0-17-11.5-28.5t-28.5-11.5q-17 0-28.5 11.5t-11.5 28.5v160Z"/></svg>