<svg xmlns="http://www.w3.org/2000/svg" height="24" viewBox="0 -960 960 960" width="24"><path d="M480-785.478q14.96 0 24.741-9.781 9.781-9.781 9.781-24.741 0-14.96-9.781-24.741-9.781-9.781-24.741-9.781-14.96 0-24.741 9.781-9.781 9.781-9.781 24.741 0 14.96 9.781 24.741 9.781 9.781 24.741 9.781ZM713.217-29.26q-83 0-141.5-58.5t-58.5-141.5q0-83 58.5-141.5t141.5-58.5q83 0 141.5 58.5t58.5 141.5q0 83-58.5 141.5t-141.5 58.5Zm-28.479-71.522h56.958v-100h100v-56.957h-100v-100h-56.958v100h-100v56.957h100v100ZM286.783-593.217h386.434v-80H286.783v80Zm177.391 492.435H100.782v-758.436H356.13q16.957-37.131 50.283-58.566 33.326-21.434 73.587-21.434t73.587 21.434q33.326 21.435 50.283 58.566h255.348v393.219q-34.087-21.348-70.087-32.022-36.001-10.674-75.914-10.674-11 0-20.5.5t-19.5 2.5V-520H286.783v80h243.869q-18 15.304-33.065 33.609-15.065 18.304-27.196 39.608H286.783v80h152.826q-3.696 13.957-5.044 28.261-1.348 14.305-1.348 29.827 0 34.696 7.413 65.739 7.413 31.044 23.544 62.174Z"/></svg>