<svg xmlns="http://www.w3.org/2000/svg" height="20" viewBox="0 -960 960 960" width="20"><path d="M110-110v-740h256q15-33 45.5-52.5T480-922q38 0 68.5 19.5T594-850h256v410q-26.1-16.76-55.6-27.92T732-483v-249H228v504h215q-.125 32.516 6.438 61.758Q456-137 468-110H110Zm118-110v-512 249-1 264Zm72-80h154q6-19 14.69-36.966Q477.381-354.932 489-372H300v72Zm0-144h262q22-13 46.5-22t51.5-14v-36H300v72Zm0-144h360v-72H300v72Zm180-172q13.867 0 22.933-9.067Q512-778.133 512-792q0-13.867-9.067-22.933Q493.867-824 480-824q-13.867 0-22.933 9.067Q448-805.867 448-792q0 13.867 9.067 22.933Q466.133-760 480-760ZM707.774-29Q628-29 572-85.226t-56-136Q516-301 572.226-357t136-56Q788-413 844-356.774t56 136Q900-141 843.774-85t-136 56ZM669-110h78v-72h72v-78h-72v-72h-78v72h-72v78h72v72Z"/></svg>