<svg xmlns="http://www.w3.org/2000/svg" height="24" viewBox="0 -960 960 960" width="24"><path d="M742.306-70.387H450.001v-151.845q-98-10.538-164-84.038t-66-173.73v-419.999h519.998V-480q0 100.23-66 173.73-66 73.5-164 84.038v91.847h232.307v59.998ZM550-429.999h123.307q3.154-12.308 4.924-24.501Q680-466.692 680-480v-50.001H530.001v-59.998H680v-100.002H490.001v-59.998H680V-840H280v330.001h110q30.655 0 58.058 13.846t45.864 38.307q9.539 13.308 24.664 20.577 15.125 7.27 31.414 7.27ZM480-280q52.077 0 96-24.385 43.924-24.385 70.539-65.616H550q-30.655 0-58.058-13.846t-45.864-38.307q-9.539-13.308-24.664-20.577-15.125-7.27-31.414-7.27H282.461Q293-377.539 348.654-328.769 404.307-280 480-280Zm-29.691-159.615Z"/></svg>