<svg xmlns="http://www.w3.org/2000/svg" height="24" viewBox="0 -960 960 960" width="24"><path d="M765.5-32.108h-331v-169.457q-102.761-15.913-171.022-94.984t-68.261-185.842v-444.783h569.566v444.783q0 106.771-68.261 185.842-68.261 79.071-171.022 94.984v78.456h240v91ZM545.217-447.652h127.674q1.761-8.805 2.522-17.017.761-8.213.761-17.722v-38.087H522.391v-86.218h153.783v-72.826H472.826v-86.217h203.348v-72.826H283.826v310.913h96.609q32.282 0 61.423 13.804 29.142 13.804 49.859 38.369 10.152 11.718 23.989 19.772 13.837 8.055 29.511 8.055ZM480-286.218q46.974 0 87.237-20.184 40.263-20.185 67.024-55.033h-89.044q-32.142 0-60.875-14.043-28.733-14.044-49.451-38.131-10.152-11.717-24.348-19.771-14.195-8.055-30.108-8.055h-92.37q14.239 66.848 67.544 111.033Q408.913-286.218 480-286.218Zm-45.109-155.217Z"/></svg>