<svg xmlns="http://www.w3.org/2000/svg" height="24" viewBox="0 -960 960 960" width="24"><path d="M113.782-226.999q-22.087 0-37.544-15.457Q60.782-257.913 60.782-280v-400q0-22.087 15.456-37.544 15.457-15.457 37.544-15.457 22.088 0 37.544 15.457 15.457 15.457 15.457 37.544v400q0 22.087-15.457 37.544-15.456 15.457-37.544 15.457Zm583.26-200H299.784q-22.088 0-37.544-15.457-15.457-15.457-15.457-37.544 0-22.087 15.457-37.544 15.456-15.457 37.544-15.457h397.258l-92.955-93.955q-14.957-14.957-15.175-36.827-.217-21.869 15.175-37.261 14.956-14.957 37.043-14.957 22.088 0 37.044 14.957l183.435 183.435q7.696 7.696 11.609 17.522 3.913 9.826 3.913 20.087t-3.913 20.087q-3.913 9.826-11.609 17.522L678.174-258.956q-14.956 14.957-36.544 15.239-21.587.283-37.543-14.674-15.957-15.957-16.24-37.826-.282-21.87 15.674-37.827l93.521-92.955Z"/></svg>