<svg xmlns="http://www.w3.org/2000/svg" height="20" viewBox="0 -960 960 960" width="20"><path d="M480-279.386q65.846 0 109.23-44.384T632.614-432q0-62.846-43.384-107.73-43.384-44.884-109.23-44.884T370.77-539.73Q327.386-494.846 327.386-432q0 63.846 43.384 108.23 43.384 44.384 109.23 44.384Zm0-51.998q-44.308 0-72.462-28.154-28.154-28.154-28.154-71.462 0-42.308 28.154-71.962 28.154-29.654 72.462-29.654 44.308 0 72.462 29.654 28.154 29.654 28.154 71.962 0 43.308-28.154 71.462-28.154 28.154-72.462 28.154ZM116.001-164.001v-535.998h180.461l72-96h223.076l72 96h180.461v535.998H116.001Z"/></svg>