<svg xmlns="http://www.w3.org/2000/svg" height="24" viewBox="0 -960 960 960" width="24"><path d="M479.867-255.478q76.829 0 130.742-53.78t53.913-130.609q0-76.829-53.78-130.742t-130.609-53.913q-76.829 0-130.742 53.78t-53.913 130.609q0 76.829 53.78 130.742t130.609 53.913Zm.133-94.696q-38.043 0-63.934-25.892-25.892-25.891-25.892-63.934t25.892-63.934q25.891-25.892 63.934-25.892t63.934 25.892q25.892 25.891 25.892 63.934t-25.892 63.934Q518.043-350.174 480-350.174ZM60.782-100.782v-678.436h215.044l81.913-80h244.522l81.913 80h215.044v678.436H60.782Z"/></svg>