<svg xmlns="http://www.w3.org/2000/svg" height="24" viewBox="0 -960 960 960" width="24"><path d="M480-275.386q68.846 0 116.73-47.884T644.614-440q0-68.846-47.884-116.73T480-604.614q-68.846 0-116.73 47.884T315.386-440q0 68.846 47.884 116.73T480-275.386Zm0-59.998q-44.308 0-74.462-30.154-30.154-30.154-30.154-74.462 0-44.308 30.154-74.462 30.154-30.154 74.462-30.154 44.308 0 74.462 30.154 30.154 30.154 30.154 74.462 0 44.308-30.154 74.462-30.154 30.154-74.462 30.154ZM100.001-140.001v-599.998h194.461l74-80h223.076l74 80h194.461v599.998H100.001ZM160-200h640v-480H638.769l-73.384-80h-170.77l-73.384 80H160v480Zm320-240Z"/></svg>