<svg xmlns="http://www.w3.org/2000/svg" height="20" viewBox="0 -960 960 960" width="20"><path d="M168-168v-240 240Zm624 0v-240 240Zm-48-392q20.4 0 34.2-13.8Q792-587.6 792-608q0-20.4-13.8-34.2Q764.4-656 744-656q-20.4 0-34.2 13.8Q696-628.4 696-608q0 20.4 13.8 34.2Q723.6-560 744-560Zm-.054 32q-34.023 0-56.985-22.948Q664-573.896 664-607.819q0-33.258 22.948-56.72Q709.896-688 743.819-688q33.258 0 56.72 23.349Q824-641.302 824-607.946q0 34.023-23.349 56.984Q777.302-528 743.946-528ZM480-632q25 0 42.5-17t17.5-43q0-25-17.5-42.5T480-752q-26 0-43 17.5T420-692q0 26 17 43t43 17Zm.012 32q-38.089 0-65.051-26.857Q388-653.713 388-691.717q0-37.36 26.856-64.822Q441.713-784 479.717-784q37.36 0 64.822 27.272Q572-729.456 572-692.012q0 38.089-27.272 65.05Q517.456-600 480.012-600Zm-189.55 204q0 36.154 41.038 87.231 41.039 51.077 133.885 132.923L480-162.769l16.154-15.385q100-91 136.692-136.945 36.692-45.945 36.692-80.901 0-35.007-23.213-58.273-23.213-23.265-58.325-23.265-19.694 0-38.386 9.307-18.691 9.308-32.537 23.385L484-405.538h-8.231l-33.846-39.308q-13.846-14.077-32.192-23.385-18.346-9.307-38.175-9.307-35.083 0-58.088 23.265-23.006 23.266-23.006 58.273Zm-32.001 0q0-46.308 35.808-79.923 35.808-33.616 77.731-33.616 29.109 0 54.208 13.5 25.1 13.5 43.792 34.962l10 11.538 10-12.307q18.725-20.77 44.016-34.231 25.292-13.462 53.984-13.462 40.154 0 76.846 33.325 36.693 33.325 36.693 80.214 0 44.846-33.577 92.654t-108.5 111.5L480-122.615l-77.923-66.923q-77.462-67.77-110.539-114.808-33.077-47.039-33.077-91.654ZM216-560q20.4 0 34.2-13.8Q264-587.6 264-608q0-20.4-13.8-34.2Q236.4-656 216-656q-20.4 0-34.2 13.8Q168-628.4 168-608q0 20.4 13.8 34.2Q195.6-560 216-560Zm267 424v-32h309v-240H691.077v-32H824v304H483Zm-315-32h315v32H136v-304h131.923v32H168v240Zm47.946-360q-34.023 0-56.985-22.948Q136-573.896 136-607.819q0-33.258 22.948-56.72Q181.896-688 215.819-688q33.258 0 56.72 23.349Q296-641.302 296-607.946q0 34.023-23.349 56.984Q249.302-528 215.946-528ZM480-692Zm-264 84Zm528 0Z"/></svg>