<svg xmlns="http://www.w3.org/2000/svg" height="20" viewBox="0 -960 960 960" width="20"><path d="m674.231-419.538-34.308-34.846q3.256-7.843 6.419-19.362 3.163-11.52 4.504-25.177Q652.308-508 657.154-513t13.729-5q10.408 0 17.032 7.286 6.624 7.287 5.932 17.406-1.924 21.77-6.77 40.27-4.846 18.5-12.846 33.5Zm-137.538-136-42.154-42.154V-756q0-17-11.213-28.5-11.212-11.5-27.787-11.5-17 0-28.5 11.569-11.5 11.57-11.5 28.672v77.529l-44.001-44.001V-756q0-34.846 24.577-59.423Q420.692-840 455.715-840q35.023 0 58.923 24.577 23.901 24.577 23.901 59.423v184.693q0 3.538-.077 8.615t-1.769 7.154Zm-85.154-86.923Zm323.692 504.538L97.461-814.692q-6.615-6.615-7-15.269-.384-8.654 7-16.039 7.385-7.384 15.654-7.384 8.27 0 15.654 7.384l677.77 677.769q6.615 6.616 7 14.77.384 8.154-7 15.538-7.385 7.385-15.654 7.385-8.27 0-15.654-7.385ZM433.539-162v-115.505q-87.385-7.572-148.308-68.61-60.923-61.039-69-147.193-.693-10.119 5.922-17.406Q228.767-518 239.462-518q7.077 0 12.692 5t7.077 14.077q6.648 74.873 63.118 126.398Q378.819-321 455.539-321q41.247 0 76.891-15.988 35.644-15.989 61.493-43.858l32.539 32.539q-28 30.461-66 48.807-38 18.346-82.923 21.524V-162q0 8.539-6.731 15.269Q464.077-140 455.539-140q-8.539 0-15.27-6.731-6.73-6.73-6.73-15.269Z"/></svg>