<svg xmlns="http://www.w3.org/2000/svg" height="20" viewBox="0 -960 960 960" width="20"><path d="m662-438-26-27q2-6 4-16t3-23q1-7 4-10.5t10-3.5q7 0 12 5t5 13q-1 19-4 34.5t-8 27.5ZM518-580 375-725v-31q0-30 21-51t51-21q30 0 50.5 21t20.5 51v169q0 1 .5 4t-.5 3Zm263 425L100-835q-5-5-5.5-11t5.5-12q6-6 11.5-6t11.5 6l681 681q5 5 5.5 10.5T804-155q-6 6-11.5 6t-11.5-6Zm-350-7v-124q-86-8-146-68.5T219-500q0-8 5-13t12-5q5 0 9 3.5t5 10.5q5 77 62 130t135 53q44 0 81.5-18t64.5-49l24 24q-28 33-67.5 53T463-286v124q0 6-5 11t-11 5q-6 0-11-5t-5-11Z"/></svg>