<svg xmlns="http://www.w3.org/2000/svg" height="20" viewBox="0 -960 960 960" width="20"><path d="m729.826-354.413-67.739-66.739q7.684-13.331 13.087-27.407t8.044-29.137q3.478-17.195 15.076-27.793 11.597-10.598 27.83-10.598 22.56 0 36.533 15.644 13.974 15.644 10.495 36.139-5 30.043-15.641 57.945-10.641 27.903-27.685 51.946ZM610.239-473.522l-87.717-87.957v-190.934q0-16.043-10.734-27.065-10.735-11.022-26.592-11.022-16.283 0-27.185 11.091-10.902 11.091-10.902 27.237v115.52L354.261-729.5v-34.631q3.109-49.565 41.043-85.467 37.935-35.902 90.068-35.902 55.003 0 93.576 39.13 38.574 39.131 38.574 93.957v235.326q0 11.522-1.761 23.522-1.761 12-5.522 20.043ZM481.196-603.565ZM753.609-84.109 89-747.717q-12.717-12.718-12.717-30.696T89-809.109q12.717-12.717 30.696-12.717 17.978 0 30.695 12.717L815-144.5q12.717 12.717 12.717 30.196 0 17.478-12.717 30.195-12.717 12.718-30.696 12.718-17.978 0-30.695-12.718Zm-314-66.891v-75.182q-95.109-12.426-161.022-78.839-65.913-66.414-82.109-159.283-3.478-20.495 10.605-36.139 14.084-15.644 37.46-15.644 14.957 0 26.674 10.598 11.718 10.598 15.196 27.793 13.759 69.916 69.117 116.773 55.358 46.858 129.666 46.858 34.169 0 64.802-10.646 30.634-10.645 55.133-29.659l66.5 66.501q-29.435 24.391-64.707 40.206-35.272 15.815-76.141 21.01V-151q0 18.435-13.576 32.011-13.577 13.576-32.011 13.576-18.435 0-32.011-13.576-13.576-13.576-13.576-32.011Z"/></svg>