<svg xmlns="http://www.w3.org/2000/svg" height="20" viewBox="0 -960 960 960" width="20"><path d="m547-486 104-68q12-7.89 12-21.94Q663-590 651-598l-104-68q-13-9-27-2t-14 23v138q0 16 14 23t27-2ZM368-316q-26 0-39-13t-13-39v-392q0-26 13-39t39-13h392q26 0 39 13t13 39v392q0 26-13 39t-39 13H368Zm0-20h392q14 0 23-9t9-23v-392q0-14-9-23t-23-9H368q-14 0-23 9t-9 23v392q0 14 9 23t23 9Zm196-228ZM223-168Zm37 17q-21 3-38-10.5T202-196l-53-366q-3-21.89 10-39.95Q172-620 194-621l38-3q6 1 8 3t2 7.69q0 3.91-1.5 7.61T235-603l-36 3q-14 1-22 11.5t-6 24.5l49 364q2 14 12 22t24 6l458-63q4.49-1 7.83 1.47 3.35 2.47 4.17 6.53 1 4-1.42 7.54-2.42 3.53-6.58 4.46l-458 64Z"/></svg>