<svg xmlns="http://www.w3.org/2000/svg" height="20" viewBox="0 -960 960 960" width="20"><path d="M358.154-216h244.461l-34-112H392.154l-34 112ZM360-360h240q79.68 0 135.84-56.226t56.16-136Q792-632 735.84-688T600-744H360q-79.68 0-135.84 56.226t-56.16 136Q168-472 224.16-416T360-360Zm119.638-100q-38.099 0-64.869-27.131Q388-514.263 388-552.362q0-38.099 27.131-64.869Q442.263-644 480.362-644q38.099 0 64.869 27.131Q572-589.737 572-551.638q0 38.099-27.131 64.869Q517.737-460 479.638-460ZM284.763-603.769q10.622 0 18.045-7.186 7.423-7.185 7.423-17.808 0-10.622-7.186-18.045-7.185-7.423-17.808-7.423-10.622 0-18.045 7.186-7.423 7.185-7.423 17.808 0 10.622 7.186 18.045 7.185 7.423 17.808 7.423ZM212-184v-32h110.923l34.231-111.692q-92.308-2.539-156.731-66.923Q136-459 136-552q0-93.6 65.2-158.8Q266.4-776 360-776h240q93.6 0 158.8 65.2Q824-645.6 824-552q0 93-64.423 157.385-64.423 64.384-156.731 66.923L637.077-216H748v32H212Zm268-244q52.308 0 88.154-35.846T604-552q0-52.308-35.846-88.154T480-676q-52.308 0-88.154 35.846T356-552q0 52.308 35.846 88.154T480-428Zm0-124ZM358.154-216h244.461-244.461Z"/></svg>