<svg xmlns="http://www.w3.org/2000/svg" height="24" viewBox="0 -960 960 960" width="24"><path d="M479.805-454Q436-454 405-485.195q-31-31.194-31-75Q374-604 405.195-635q31.194-31 75-31Q524-666 555-634.805q31 31.194 31 75Q586-516 554.805-485q-31.194 31-75 31Zm-219.84-160q11.035 0 18.535-7.465t7.5-18.5q0-11.035-7.465-18.535t-18.5-7.5Q249-666 241.5-658.535t-7.5 18.5q0 11.035 7.465 18.535t18.5 7.5ZM186-172v-28h125l33-133q-89-6-150.5-71T132-560q0-95.271 66.364-161.636Q264.729-788 360-788h240q95.271 0 161.636 66.364Q828-655.271 828-560q0 91-61.5 156T616-333l33 133h125v28H186Zm294-254q56 0 95-39t39-95q0-56-39-95t-95-39q-56 0-95 39t-39 95q0 56 39 95t95 39Z"/></svg>