<svg xmlns="http://www.w3.org/2000/svg" height="24" viewBox="0 -960 960 960" width="24"><path d="M160-750.769v-40.001h400v40.001H160Zm155.385 475.384h89.23v-100h100v-89.23h-100v-100h-89.23v100h-100v89.23h100v100ZM120-160v-520h480v520H120Zm40-40h400v-440H160v440Zm590.769-203.077q-35-17-57.5-53.038-22.5-36.039-22.5-83.57 0-59.854 29.116-100.084Q729-680 770.769-680q41.77 0 70.885 40.25Q870.77-599.5 870.77-540q0 47.846-22.5 83.885-22.5 36.038-57.5 53.038V-160h-40.001v-243.077ZM770.888-440q18.035 0 38.958-26.872 20.923-26.871 20.923-73.115t-21.041-73.128Q788.687-640 770.651-640q-18.035 0-38.958 26.871-20.923 26.872-20.923 73.116t21.041 73.128Q752.852-440 770.888-440ZM360-420Zm410.769-120Z"/></svg>