<svg xmlns="http://www.w3.org/2000/svg" height="20" viewBox="0 -960 960 960" width="20"><path d="M792-592v-79.385q0-9.23-7.692-16.923Q776.615-696 767.385-696H688q-6.8 0-11.4-4.547-4.6-4.547-4.6-11.27 0-6.722 4.6-11.452Q681.2-728 688-728h79.385q24.315 0 40.465 16.15Q824-695.7 824-671.385V-592q0 6.8-4.547 11.4-4.547 4.6-11.269 4.6t-11.453-4.6Q792-585.2 792-592Zm-656 0v-79.385q0-24.315 16.15-40.465Q168.3-728 192.615-728H272q6.8 0 11.4 4.547 4.6 4.547 4.6 11.269t-4.6 11.453Q278.8-696 272-696h-79.385q-9.23 0-16.923 7.692Q168-680.615 168-671.385V-592q0 6.8-4.547 11.4-4.548 4.6-11.27 4.6-6.722 0-11.452-4.6Q136-585.2 136-592Zm631.385 360H688q-6.8 0-11.4-4.547-4.6-4.547-4.6-11.269t4.6-11.453Q681.2-264 688-264h79.385q9.23 0 16.923-7.692Q792-279.385 792-288.615V-368q0-6.8 4.547-11.4 4.547-4.6 11.27-4.6 6.722 0 11.452 4.6Q824-374.8 824-368v79.385q0 24.315-16.15 40.465Q791.7-232 767.385-232Zm-574.77 0q-24.315 0-40.465-16.15Q136-264.3 136-288.615V-368q0-6.8 4.547-11.4 4.547-4.6 11.269-4.6t11.453 4.6Q168-374.8 168-368v79.385q0 9.23 7.692 16.923Q183.385-264 192.615-264H272q6.8 0 11.4 4.547 4.6 4.548 4.6 11.27 0 6.722-4.6 11.452Q278.8-232 272-232h-79.385Zm81.231-194.549v-107.253q0-23.39 16.631-39.871t39.984-16.481h299.078q23.353 0 39.984 16.657 16.631 16.656 16.631 40.046v107.253q0 23.39-16.631 39.871t-39.984 16.481H330.461q-23.353 0-39.984-16.657-16.631-16.656-16.631-40.046Z"/></svg>