<svg xmlns="http://www.w3.org/2000/svg" height="20" viewBox="0 -960 960 960" width="20"><path d="M793.696-622.74v-74.956h-75.522q-18.903 0-31.691-13.115-12.787-13.116-12.787-31.718t13.176-31.646q13.176-13.043 31.868-13.043h66.477q41.005 0 69.503 28.498 28.498 28.498 28.498 69.503v67.043q0 18.903-12.727 31.691-12.727 12.787-31.541 12.787-18.602 0-31.928-13.176t-13.326-31.868Zm-716.914 0v-66.477q0-41.005 28.498-69.503 28.498-28.498 69.503-28.498h67.043q18.903 0 31.691 12.727 12.787 12.727 12.787 31.541 0 18.602-12.787 31.928-12.788 13.326-31.691 13.326h-75.522v75.522q0 18.903-12.727 31.691-12.727 12.787-31.541 12.787-18.602 0-31.928-13.176T76.782-622.74Zm708.435 449.958h-67.043q-18.903 0-31.691-13.115-12.787-13.116-12.787-31.718t13.176-31.646q13.176-13.043 31.868-13.043h74.956v-75.522q0-18.903 13.115-31.691 13.116-12.787 31.718-12.787t31.646 12.787q13.043 12.788 13.043 31.691v67.043q0 41.005-28.498 69.503-28.498 28.498-69.503 28.498Zm-610.434 0q-41.005 0-69.503-28.498-28.498-28.498-28.498-69.503v-67.043q0-18.903 13.115-31.691 13.116-12.787 31.718-12.787t31.646 12.787q13.043 12.788 13.043 31.691v75.522h75.522q18.903 0 31.691 12.727 12.787 12.727 12.787 31.541 0 18.602-12.787 31.928-12.788 13.326-31.691 13.326h-67.043Zm63.521-259.612v-95.564q0-41.041 28.498-69.39 28.499-28.348 69.504-28.348h287.388q41.005 0 69.504 28.524 28.498 28.524 28.498 69.565v95.565q0 41.041-28.498 69.39-28.499 28.348-69.504 28.348H336.306q-41.005 0-69.504-28.524-28.498-28.524-28.498-69.566Zm89.523 8.567h304.346v-112.346H327.827v112.346Zm0 0v-112.346 112.346Z"/></svg>