<svg xmlns="http://www.w3.org/2000/svg" height="24" viewBox="0 -960 960 960" width="24"><path d="M184.615-200Q157-200 138.5-218.5 120-237 120-264.615v-226.154q0-8.5 5.75-14.25t14.25-5.75h244.615q26.654 0 45.635-18.981 18.981-18.981 18.981-45.635V-740q0-8.5 5.75-14.25t14.25-5.75h306.154Q803-760 821.5-741.5 840-723 840-695.385v430.77Q840-237 821.5-218.5 803-200 775.385-200h-590.77Zm326.924-360q-13.731 0-23.02 9.288-9.288 9.289-9.288 23.02V-380q0 8.5 5.758 14.25 5.757 5.75 14.269 5.75 8.511 0 14.242-5.75 5.731-5.75 5.731-14.25v-111.461l157.307 157.307q5.847 5.846 13.77 6.231 7.923.385 14.538-6.231 6.616-6.615 6.616-14.269t-6.616-14.269L546.77-520h112.461q8.5 0 14.25-5.758 5.75-5.757 5.75-14.269 0-8.511-5.75-14.242-5.75-5.731-14.25-5.731H511.539Zm-359.232-46.154q-13.73 0-23.019-9.288-9.288-9.289-9.288-23.02v-89.231q0-13.73 9.288-23.019Q138.577-760 152.307-760h169.231q13.731 0 23.02 9.288 9.288 9.289 9.288 23.019v89.231q0 13.731-9.288 23.02-9.289 9.288-23.02 9.288H152.307Z"/></svg>