<svg xmlns="http://www.w3.org/2000/svg" height="20" viewBox="0 -960 960 960" width="20"><path d="M180-157q-49.7 0-83.85-34.15Q62-225.3 62-275v-207q0-24.3 17.29-41.65Q96.579-541 120.788-541 145-541 162.5-523.65T180-482v207h600v-408H484q-24.3 0-41.65-17.289-17.35-17.29-17.35-41.5Q425-766 442.35-783.5T484-801h296q49.7 0 83.85 34.162Q898-732.676 898-682.96v408.243Q898-225 863.85-191T780-157H180Zm435-214 46 46q15 15 34.5 14.5T730-326q15-15 15-34.667 0-19.666-15-34.333l-46-45h5q20.3 0 34.65-14.289 14.35-14.29 14.35-34.5Q738-509 723.65-523.5T689-538H576q-24.3 0-41.65 17.35Q517-503.3 517-479v113q0 20.3 14.289 34.65 14.29 14.35 34.5 14.35Q586-317 600.5-331.35T615-366v-5ZM121-613q-24.3 0-41.65-17.35Q62-647.7 62-672v-71q0-24.3 17.35-41.65Q96.7-802 121-802h173q24.3 0 41.65 17.35Q353-767.3 353-743v71q0 24.3-17.35 41.65Q318.3-613 294-613H121Zm359 134Z"/></svg>