<svg xmlns="http://www.w3.org/2000/svg" height="24" viewBox="0 -960 960 960" width="24"><path d="M533.001-478.652v-116.261q0-22.087-15.457-37.544-15.457-15.456-37.544-15.456-22.087 0-37.544 15.456-15.457 15.457-15.457 37.544v138.478q0 10.826 3.848 20.345 3.848 9.519 11.544 17.134l95.913 95.913q15.956 15.956 37.826 15.674 21.87-.283 37.261-16.24 14.957-15.768 14.957-37.449 0-21.682-14.957-36.638l-80.39-80.956ZM480-716.609q22.087 0 37.544-15.456 15.457-15.457 15.457-37.544 0-22.087-15.457-37.544Q502.087-822.61 480-822.61q-22.087 0-37.544 15.457-15.457 15.457-15.457 37.544 0 22.087 15.457 37.544 15.457 15.456 37.544 15.456ZM716.609-480q0 22.087 15.456 37.544 15.457 15.457 37.544 15.457 22.087 0 37.544-15.457Q822.61-457.913 822.61-480q0-22.087-15.457-37.544-15.457-15.457-37.544-15.457-22.087 0-37.544 15.457-15.456 15.457-15.456 37.544ZM480-243.391q-22.087 0-37.544 15.456-15.457 15.457-15.457 37.544 0 22.087 15.457 37.544Q457.913-137.39 480-137.39q22.087 0 37.544-15.457 15.457-15.457 15.457-37.544 0-22.087-15.457-37.544-15.457-15.456-37.544-15.456ZM243.391-480q0-22.087-15.456-37.544-15.457-15.457-37.544-15.457-22.087 0-37.544 15.457Q137.39-502.087 137.39-480q0 22.087 15.457 37.544 15.457 15.457 37.544 15.457 22.087 0 37.544-15.457 15.456-15.457 15.456-37.544ZM480-60.782q-87.522 0-163.906-32.96-76.385-32.96-132.888-89.464-56.504-56.503-89.464-132.888Q60.782-392.478 60.782-480t32.96-163.906q32.96-76.385 89.464-132.888 56.503-56.504 132.888-89.464 76.384-32.96 163.906-32.96t163.906 32.96q76.385 32.96 132.888 89.464 56.504 56.503 89.464 132.888 32.96 76.384 32.96 163.906t-32.96 163.906q-32.96 76.385-89.464 132.888-56.503 56.504-132.888 89.464Q567.522-60.782 480-60.782Z"/></svg>