<svg xmlns="http://www.w3.org/2000/svg" height="20" viewBox="0 -960 960 960" width="20"><path d="m490-474.557 118 117.605q4 3.702 3.5 6.827T607.478-344q-3.478 4-7.645 3.5-4.166-.5-6.833-3.5L478-459q-4-4-6-8.217-2-4.218-2-9.677V-642q0-4.25 2.825-7.125 2.824-2.875 7-2.875 4.175 0 7.175 2.875t3 7.125v167.443ZM480.175-720Q476-720 473-722.875T470-730v-62h20v61.789q0 4.161-2.825 7.186-2.824 3.025-7 3.025ZM720-479.825q0-4.175 2.875-7.175t7.125-3h62v20h-61.789q-4.161 0-7.186-2.825-3.025-2.824-3.025-7ZM479.825-240q4.175 0 7.175 2.875t3 7.125v62h-20v-61.789q0-4.161 2.825-7.186 2.824-3.025 7-3.025ZM240-480.175q0 4.175-2.875 7.175T230-470h-62v-20h61.789q4.161 0 7.186 2.825 3.025 2.824 3.025 7ZM480.174-148q-68.55 0-128.92-25.891-60.371-25.892-105.887-71.348-45.515-45.457-71.441-105.893Q148-411.569 148-480.284q0-68.716 25.891-129.274 25.892-60.559 71.348-105.574 45.457-45.016 105.893-70.942Q411.569-812 480.284-812q68.716 0 129.281 26.131 60.564 26.132 105.366 70.928 44.801 44.797 70.935 105.355Q812-549.028 812-480.174q0 68.55-25.891 128.92-25.892 60.371-70.848 105.887-44.957 45.515-105.566 71.441Q549.086-148 480.174-148ZM792-480.458q0-130.458-90.542-221t-221-90.542Q350-792 259-701.458t-91 221Q168-350 259-259t221.458 91q130.458 0 221-91T792-480.458ZM480-480Z"/></svg>