<svg xmlns="http://www.w3.org/2000/svg" height="20" viewBox="0 -960 960 960" width="20"><path d="M490-475.114V-642q0-4.25-2.825-7.125-2.824-2.875-7-2.875-4.175 0-7.175 2.875T470-642v165.106q0 5.459 2 9.677 2 4.217 6 8.217l116 115q3 3 6.5 3.5t6.978-3.5q3.522-3 3.522-6.5t-3.891-7.404L490-475.114ZM479.825-720q4.175 0 7.175-2.814 3-2.815 3-6.975v-52q0-4.161-2.825-7.186-2.824-3.025-7-3.025-4.175 0-7.175 2.814-3 2.815-3 6.975v52q0 4.161 2.825 7.186 2.824 3.025 7 3.025ZM720-480.175q0 4.175 2.814 7.175 2.815 3 6.975 3h52q4.161 0 7.186-2.825 3.025-2.824 3.025-7 0-4.175-2.814-7.175-2.815-3-6.975-3h-52q-4.161 0-7.186 2.825-3.025 2.824-3.025 7ZM480.175-240Q476-240 473-237.186q-3 2.815-3 6.975v52q0 4.161 2.825 7.186 2.824 3.025 7 3.025 4.175 0 7.175-2.814 3-2.815 3-6.975v-52q0-4.161-2.825-7.186-2.824-3.025-7-3.025ZM240-479.825q0-4.175-2.814-7.175-2.815-3-6.975-3h-52q-4.161 0-7.186 2.825-3.025 2.824-3.025 7 0 4.175 2.814 7.175 2.815 3 6.975 3h52q4.161 0 7.186-2.825 3.025-2.824 3.025-7ZM480.174-148q-68.55 0-128.92-25.891-60.371-25.892-105.887-71.348-45.515-45.457-71.441-105.893Q148-411.569 148-480.284q0-68.716 25.891-129.274 25.892-60.559 71.348-105.574 45.457-45.016 105.893-70.942Q411.569-812 480.284-812q68.716 0 129.281 26.131 60.564 26.132 105.366 70.928 44.801 44.797 70.935 105.355Q812-549.028 812-480.174q0 68.55-25.891 128.92-25.892 60.371-70.848 105.887-44.957 45.515-105.566 71.441Q549.086-148 480.174-148Z"/></svg>