<svg xmlns="http://www.w3.org/2000/svg" height="20" viewBox="0 -960 960 960" width="20"><path d="M300.211-202.999q-20.298 0-34.755-14.307-14.457-14.307-14.457-34.694v-46.999H204q-20.387 0-34.694-14.247-14.307-14.246-14.307-34.543 0-20.298 14.307-34.755 14.307-14.457 34.694-14.457h46.999V-444q0-20.387 14.247-34.694 14.246-14.307 34.543-14.307 20.298 0 34.755 14.307 14.457 14.307 14.457 34.694v46.999H396q20.387 0 34.694 14.247 14.307 14.246 14.307 34.543 0 20.298-14.307 34.755-14.307 14.457-34.694 14.457h-46.999V-252q0 20.387-14.247 34.694-14.246 14.307-34.543 14.307Zm265.79-17.783q-20.387 0-34.694-14.306-14.306-14.307-14.306-34.694v-104.609q0-39.309-27.651-66.959-27.65-27.651-66.959-27.651h-1.39v-1.39q0-39.309-27.651-66.959-27.65-27.651-66.959-27.651H221.782q-20.387 0-34.694-14.306-14.306-14.307-14.306-34.694v-27.216q0-40.44 28.78-69.221 28.781-28.78 69.221-28.78h310.304q22.743 0 43.067 8.761 20.325 8.761 33.716 27.848l130.609 162.347q20.522 26.783 20.522 60.262t-20.522 60.262L657.87-257.391q-13.391 18.522-33.716 27.566-20.324 9.043-43.067 9.043h-15.086Z"/></svg>