<svg xmlns="http://www.w3.org/2000/svg" height="20" viewBox="0 -960 960 960" width="20"><path d="M300.211-216Q285-216 274.5-226.35 264-236.7 264-252v-60h-60q-15.3 0-25.65-10.289-10.35-10.29-10.35-25.5Q168-363 178.35-373.5 188.7-384 204-384h60v-60q0-15.3 10.289-25.65 10.29-10.35 25.5-10.35Q315-480 325.5-469.65 336-459.3 336-444v60h60q15.3 0 25.65 10.289 10.35 10.29 10.35 25.5Q432-333 421.65-322.5 411.3-312 396-312h-60v60q0 15.3-10.289 25.65-10.29 10.35-25.5 10.35ZM540-240q-15.3 0-25.65-10.35Q504-260.7 504-276v-108q0-29.7-21.15-50.85Q461.7-456 432-456h-24v-24q0-29.7-21.15-50.85Q365.7-552 336-552H228q-15.3 0-25.65-10.35Q192-572.7 192-588v-60q0-29.7 21.15-50.85Q234.3-720 264-720h325q17.091 0 32.045 6.5Q636-707 646-693l134 168q16 20 16 45t-16 45L646-267q-10 14-24.955 20.5Q606.091-240 589-240h-49Z"/></svg>