<svg xmlns="http://www.w3.org/2000/svg" height="24" viewBox="0 -960 960 960" width="24"><path d="M52-262v-26q0-35 38-58.5t97-23.5q8 0 18 1t22 3q-8 15-11.5 30.5T212-305v43H52Zm240 0v-39q0-21.835 13-39.918Q318-359 344-372t60-19.5q34-6.5 75.6-6.5 42.4 0 76.4 6.5 34 6.5 60 19.5t39 31.082q13 18.083 13 39.918v39H292Zm456 0v-42.701q0-17.08-3.5-32.19Q741-352 734-366q13-2 22.5-3t17.5-1q59 0 96.5 23.5T908-288v26H748Zm-428-28h320v-11q0-31-44-50t-116-19q-72 0-116 19t-44 50v11ZM186.735-407Q166-407 151.5-421.688 137-436.375 137-457q0-20 14.688-34.5Q166.375-506 187-506q20 0 35 14.5t15 34.799Q237-437 222.549-422q-14.452 15-35.814 15ZM774-407q-20 0-35-15t-15-34.701Q724-477 739-491.5t35.194-14.5Q795-506 809.5-491.5 824-477 824-457q0 20.625-14.375 35.312Q795.25-407 774-407Zm-293.647-21Q448-428 425-450.75T402-506q0-33.15 22.75-55.575Q447.5-584 480-584q33.15 0 55.575 22.323Q558-539.353 558-506.353 558-474 535.677-451q-22.324 23-55.324 23Zm.147-28q20.5 0 35-15t14.5-35.5q0-20.5-14.375-35T480-556q-20 0-35 14.375T430-506q0 20 15 35t35.5 15Zm-.5 166Zm0-216Z"/></svg>