<svg xmlns="http://www.w3.org/2000/svg" height="20" viewBox="0 -960 960 960" width="20"><path d="M38.956-254.956v-66.101q0-43.465 41.826-69.726Q122.61-417.044 192-417.044q9.478 0 16.673.717 7.196.718 14.804 1.326-13.695 20.522-20.761 44.269-7.065 23.747-7.065 48.954v66.822H38.956Zm216 0v-66.673q0-30.067 14.783-54.045 14.782-23.978 45.478-42.109 30.696-18.13 72.109-26.696 41.413-8.565 92.681-8.565 52.254 0 92.884 8.565 40.631 8.566 71.327 26.196 30.695 17.631 45.761 42.109 15.065 24.478 15.065 54.545v66.673H254.956Zm509.393 0V-322q0-25.035-7.348-48.22t-21.044-44.52q5.609-.869 12.652-1.587 7.042-.717 19.391-.717 70.07 0 111.557 26.321 41.487 26.321 41.487 70.023v65.744H764.349ZM191.838-462.783q-32.099 0-54.795-22.658-22.695-22.657-22.695-54.474 0-32.781 22.657-55.477 22.658-22.696 54.475-22.696 32.781 0 55.477 22.372 22.695 22.372 22.695 55.443 0 32.099-22.371 54.794-22.372 22.696-55.443 22.696Zm576 0q-32.099 0-54.795-22.658-22.695-22.657-22.695-54.474 0-32.781 22.657-55.477 22.658-22.696 54.475-22.696 32.781 0 55.477 22.372 22.695 22.372 22.695 55.443 0 32.099-22.371 54.794-22.372 22.696-55.443 22.696Zm-288.284-37.696q-48.322 0-82.46-34.138-34.138-34.137-34.138-82.906 0-48.391 34.138-82.717 34.138-34.327 82.906-34.327 48.391 0 82.718 34.327 34.326 34.326 34.326 83.163 0 48.323-34.326 82.46-34.327 34.138-83.164 34.138Z"/></svg>