<svg xmlns="http://www.w3.org/2000/svg" height="24" viewBox="0 -960 960 960" width="24"><path d="M-16-224v-79q0-51 49-82t127-31h17q-17 25-25 52.859T144-305v81H-16Zm240 0v-81q0-35 18-65t53-52q35-22 82-33t102.962-11Q537-466 583.5-455t81.5 33q35 22 53 52t18 65v81H224Zm592 0v-81q0-31.37-8-59.12-8-27.75-24-51.88h16q79.2 0 127.6 30.871Q976-354.258 976-303v79H816ZM354-331h253q-21-13-56-21t-70.5-8q-35.5 0-71 8T354-331ZM160.089-452Q123-452 96.5-478.386T70-541.825Q70-580 96.386-606t63.439-26Q198-632 224-606.15q26 25.849 26 64.061Q250-505 224.15-478.5 198.301-452 160.089-452Zm640 0Q763-452 736.5-478.386T710-541.825Q710-580 736.386-606t63.439-26Q838-632 864-606.15q26 25.849 26 64.061Q890-505 864.15-478.5 838.301-452 800.089-452ZM480-495q-56.667 0-96.333-39.667Q344-574.333 344-631q0-57 39.667-96.5Q423.333-767 480-767q57 0 96.5 39.5T616-631q0 56.667-39.5 96.333Q537-495 480-495Zm.5-106q12.5 0 21-9t8.5-21.5q0-12.5-8.625-21T480-661q-12 0-21 8.625T450-631q0 12 9 21t21.5 9Zm.5 270Zm-1-300Z"/></svg>