<svg xmlns="http://www.w3.org/2000/svg" height="20" viewBox="0 -960 960 960" width="20"><path d="M174.477-384q-40 0-68-28t-28-68q0-40 28-68t68-28v-89.523q0-29.7 21.15-50.85 21.15-21.15 50.85-21.15H384q0-40 28-68t68-28q40 0 68 28t28 68h137.523q29.7 0 50.85 21.15 21.15 21.15 21.15 50.85V-576q40 0 68 28t28 68q0 40-28 68t-68 28v185.523q0 29.7-21.162 50.85-21.162 21.15-50.879 21.15H246.194q-29.717 0-50.717-21.15t-21-50.85V-384Zm190.045-76.522q22.261 0 37.109-14.848 14.848-14.848 14.848-37.109 0-22.261-14.848-37.391-14.848-15.131-37.109-15.131-22.261 0-37.392 15.131Q312-534.74 312-512.479q0 22.261 15.13 37.109 15.131 14.848 37.392 14.848Zm218.956 0q22.261 0 37.392-14.848Q636-490.218 636-512.479q0-22.261-15.13-37.391-15.131-15.131-37.392-15.131-22.261 0-37.109 15.131-14.848 15.13-14.848 37.391 0 22.261 14.848 37.109 14.848 14.848 37.109 14.848ZM384.96-312h190.322q16.964 0 28.602-11.59 11.637-11.589 11.637-28.721 0-16.893-11.476-28.53-11.476-11.638-28.44-11.638H384.718q-16.964 0-28.602 11.43-11.637 11.43-11.637 28.326 0 16.897 11.638 28.81Q367.756-312 384.96-312Zm-112.481 87.521h415.042v-415.042H272.479v415.042ZM480-432Z"/></svg>