<svg xmlns="http://www.w3.org/2000/svg" height="20" viewBox="0 -960 960 960" width="20"><path d="M428.609-129.174v-142.999h-53.218q-20.387 0-34.693-14.307-14.307-14.307-14.307-34.694v-204q0-53.391 37.543-89.804 37.544-36.413 90.936-36.413 53.391 0 91.217 37.913t37.826 91.304q33.261 8 53.761 35.196 20.5 27.196 20.5 63.457v102.347q0 20.387-14.306 34.694-14.307 14.307-34.694 14.307h-77.783v142.999q0 20.387-14.306 34.694-14.307 14.307-34.694 14.307h-4.782q-20.387 0-34.694-14.307-14.306-14.307-14.306-34.694Zm27.143-570.217q-38.709 0-65.47-27.009-26.761-27.009-26.761-65.718t27.009-65.752q27.009-27.044 65.718-27.044t65.47 27.291q26.761 27.292 26.761 66.001t-27.009 65.47q-27.009 26.761-65.718 26.761Z"/></svg>