<svg xmlns="http://www.w3.org/2000/svg" height="24" viewBox="0 -960 960 960" width="24"><path d="M480-67q-85.826 0-161.087-32.347-75.261-32.348-131.24-88.326-55.978-55.979-88.326-131.24Q67-394.174 67-480q0-106.913 50.848-198.304 50.847-91.391 138.803-147.913 16.696-11.392 36.588-5.674 19.891 5.717 30.283 23.978 9.391 17.261 3.956 36.435-5.434 19.174-21.695 30.566-64.826 43.696-103.043 112.543Q164.522-559.521 164.522-480q0 131.739 91.869 223.609 91.87 91.869 223.609 91.869t223.609-91.869q91.869-91.87 91.869-223.609 0-79.521-38.217-148.369-38.217-68.847-103.043-112.543-16.261-11.392-21.695-30.566-5.435-19.174 3.956-36.435 9.957-18.261 29.414-24.413 19.457-6.152 35.718 5.239 88.39 56.088 139.89 147.696 51.5 91.609 51.5 199.391 0 85.826-32.348 161.087t-88.326 131.24q-55.979 55.978-131.24 88.326Q565.826-67 480-67Zm-53.001-436.523v-333.651q0-22.087 15.457-37.544 15.457-15.456 37.544-15.456 22.087 0 37.544 15.456 15.457 15.457 15.457 37.544v333.651l53.955-53.521q14.957-14.957 36.827-15.174 21.869-.217 37.261 15.174 14.957 14.957 14.957 37.044 0 22.087-14.957 37.044L517.609-339.521Q501.652-323.565 480-323.565t-37.609-15.956L298.956-482.956q-14.957-14.957-15.174-36.827-.217-21.869 15.174-37.261 14.957-14.957 37.044-14.957 22.087 0 37.044 14.957l53.955 53.521Z"/></svg>