<svg xmlns="http://www.w3.org/2000/svg" height="20" viewBox="0 -960 960 960" width="20"><path d="M480-83q-81.826 0-154.087-30.847-72.261-30.848-126.74-84.826-54.478-53.979-85.326-126.24Q82.999-397.174 82.999-479q0-104.913 51.348-193.304 51.347-88.391 137.303-141.913 15.696-10.392 33.088-5.674 17.391 4.717 28.783 20.978 10.391 15.261 5.456 32.435-4.934 17.174-21.195 28.566-66.826 42.696-106.043 111.043Q172.522-558.521 172.522-478q0 126.739 89.869 216.109 89.87 89.369 217.609 89.369t217.609-89.869q89.869-89.87 89.869-216.609 0-80.521-39.217-148.869-39.217-68.347-106.043-111.043-16.261-11.392-21.195-28.566-4.935-17.174 5.456-32.435 11.957-16.261 29.914-20.413 17.957-4.152 34.218 6.239 85.39 54.088 135.89 142.196 50.5 88.109 50.5 191.891 0 81.826-30.848 154.087t-85.326 126.74q-54.479 54.478-126.24 85.326Q562.826-82.999 480-82.999Zm-49.001-421.523v-320.651q0-20.087 14.457-34.544 14.457-14.456 34.544-14.456 20.087 0 34.544 14.456 14.457 14.457 14.457 34.544v320.651l57.955-58.521q14.957-14.957 34.827-14.674 19.869.283 34.261 14.674 14.957 14.957 14.957 34.544 0 19.587-14.957 34.544L514.609-352.521Q499.652-337.565 480-337.565t-34.609-14.956L303.956-493.956q-14.957-14.957-14.174-34.827.783-19.869 15.174-34.261 14.957-14.957 34.544-14.957 19.587 0 34.544 14.957l56.955 58.521Z"/></svg>