<svg xmlns="http://www.w3.org/2000/svg" height="24" viewBox="0 -960 960 960" width="24"><path d="M480-67q-85.826 0-161.087-32.347-75.261-32.348-131.24-88.326-55.978-55.979-88.326-131.24Q67-394.174 67-480q0-124.565 67.652-226.913 67.653-102.348 180.522-151.87 12.696-6.13 22.261 7.131t9.565 33.217q0 20.392-6.5 39.566-6.5 19.174-23.761 30.565-69.521 43.696-110.868 114.174-41.348 70.478-41.348 154.13 0 131.739 91.869 223.609 91.87 91.869 223.609 91.869t223.609-91.869q91.869-91.87 91.869-223.609 0-83.087-40.782-153.282-40.783-70.195-109.739-113.891-17.826-11.392-24.891-30.566-7.065-19.174-7.065-40.131 0-19.956 10.695-32.935 10.696-12.978 23.957-6.282Q758.827-807 825.914-705.717 893.001-604.435 893.001-480q0 85.826-32.348 161.087t-88.326 131.24q-55.979 55.978-131.24 88.326Q565.826-67 480-67Zm-53.001-436.523v-333.651q0-22.087 15.457-37.544 15.457-15.456 37.544-15.456 22.087 0 37.544 15.456 15.457 15.457 15.457 37.544v333.651l53.955-53.521q14.957-14.957 36.827-15.174 21.869-.217 37.261 15.174 14.957 14.957 14.957 37.044 0 22.087-14.957 37.044L517.609-339.521Q501.652-323.565 480-323.565t-37.609-15.956L298.956-482.956q-14.957-14.957-15.174-36.827-.217-21.869 15.174-37.261 14.957-14.957 37.044-14.957 22.087 0 37.044 14.957l53.955 53.521Z"/></svg>