<svg xmlns="http://www.w3.org/2000/svg" height="20" viewBox="0 -960 960 960" width="20"><path d="M480-96q-79 0-149-30t-122.5-82Q156-260 126-330T96-479q0-121 68-219t179-140q11-5 20 4.5t9 23.5q0 15-5.5 29T347-761q-81 39-130 115t-49 168q0 129 91 219.5T480-168q130 0 221-91t91-220q0-92-49-168T613-762q-14-6-19.5-20t-5.5-29q0-14 9-23.5t20-4.5q111 42 179 140t68 219q0 79-30 149t-82.5 122.5Q699-156 629.5-126T480-96Zm-36-378v-354q0-15 10.5-25.5T480-864q15 0 25.5 10.5T516-828v354l80-80q11-11 25.5-11t25.5 11q11 11 11 25.5T647-503L505-361q-11 11-25 11t-25-11L313-503q-11-11-10.5-25.5T314-554q11-11 25.5-11t25.5 11l79 80Z"/></svg>