<svg xmlns="http://www.w3.org/2000/svg" height="20" viewBox="0 -960 960 960" width="20"><path d="M480-136q-70.539 0-133.231-26.923-62.692-26.923-109.808-73.538-47.115-46.616-74.038-109.308Q136-408.461 136-479q0-109.462 63.769-197.846 63.769-88.385 164.769-125.77 7.923-2.692 15-.115t8.616 8.885q1.538 6.538-1.654 12.461-3.192 5.924-10.269 7.308-93.308 33.616-150.77 115Q168-577.692 168-478q0 129 91 219.5T480-168q130 0 221-91t91-220q0-99.692-57.461-181.077-57.462-81.384-150.77-115-7.077-1.384-10.269-7.308-3.192-5.923-1.654-12.461 1.539-6.308 8.616-8.885t15 .115q101 37.385 164.769 126.154Q824-588.692 824-480q0 70.539-26.923 133.231-26.923 62.692-74.038 109.808-47.116 47.115-109.308 74.038Q551.539-136 480-136Zm-16-290.308v-380.923q0-6.538 4.731-11.269 4.73-4.731 11.269-4.731t11.269 4.731Q496-813.769 496-807.231v380.923l113.846-114.615q5.615-5.616 11.654-5.616t11.654 5.616q6.385 6.384 6.385 11.654 0 5.269-6.385 11.654L499.615-384.077q-8.692 8.693-19.615 8.693-10.923 0-19.615-8.693L326.846-517.615q-5.615-5.616-5.115-11.654.5-6.039 6.115-11.654 6.385-6.385 11.654-6.385t11.654 6.385L464-426.308Z"/></svg>