<svg xmlns="http://www.w3.org/2000/svg" height="20" viewBox="0 -960 960 960" width="20"><path d="M399.716-504.615q-16.266 0-25.837-12.423-9.572-12.424-7.879-28.501l13.231-82.692q4.692-37.385 33.732-60.885 29.041-23.5 67.037-23.5 37.996 0 67.037 23 29.04 23 33.732 60.385L594-545.539q1.693 16.077-7.879 28.501-9.571 12.423-25.837 12.423H399.716Zm-2.716-32h166l-14-86q-4-26-23.371-42-19.372-16-45.5-16-26.129 0-45.629 16-19.5 16-23.5 42l-14 86Zm83 0ZM232-247.384v-49.847q0-13.769 9.423-27.346t26.808-24.5q49.615-28.154 103.6-43.231 53.984-15.077 107.961-15.077t108.17 15.077q54.192 15.077 103.807 43.231 17.385 9.923 26.808 24Q728-311 728-297.231v49.847H232Zm32-32.001h432v-17.846q0-7.484-6.102-14.411-6.102-6.928-17.206-12.358-41.384-24.923-90.836-38.154Q532.405-375.385 480-375.385q-52.405 0-101.856 13.231-49.452 13.231-90.836 38.154-11.154 7.077-17.231 13.493Q264-304.09 264-297.231v17.846Zm216 0Z"/></svg>