<svg xmlns="http://www.w3.org/2000/svg" height="20" viewBox="0 -960 960 960" width="20"><path d="M173.782-222.477q-20.387 0-34.694-14.307-14.306-14.307-14.306-34.694v-93.999q0-20.387 14.306-34.694 14.307-14.306 34.694-14.306h612.436q20.387 0 34.694 14.306 14.306 14.307 14.306 34.694v93.999q0 20.387-14.306 34.694-14.307 14.307-34.694 14.307H173.782Zm0-255.522q-20.387 0-34.694-14.246-14.306-14.246-14.306-34.544 0-20.298 14.306-34.754Q153.395-576 173.782-576h612.436q20.387 0 34.694 14.246 14.306 14.246 14.306 34.544 0 20.298-14.306 34.755-14.307 14.456-34.694 14.456H173.782Zm0-161.522q-20.387 0-34.694-14.247-14.306-14.246-14.306-34.543 0-20.298 14.306-34.755 14.307-14.457 34.694-14.457h612.436q20.387 0 34.694 14.247 14.306 14.246 14.306 34.544 0 20.297-14.306 34.754-14.307 14.457-34.694 14.457H173.782Z"/></svg>