<svg xmlns="http://www.w3.org/2000/svg" height="20" viewBox="0 -960 960 960" width="20"><path d="M212.307-280q-12.03 0-20.169-8.138Q184-296.277 184-308.307v-135.385q0-12.031 8.138-20.169Q200.277-472 212.307-472h535.386q12.03 0 20.169 8.139Q776-455.723 776-443.692v135.385q0 12.03-8.138 20.169Q759.723-280 747.693-280H212.307ZM200-544q-6.8 0-11.4-4.547-4.6-4.547-4.6-11.269t4.6-11.453Q193.2-576 200-576h560q6.8 0 11.4 4.547 4.6 4.547 4.6 11.27 0 6.722-4.6 11.452Q766.8-544 760-544H200Zm0-104q-6.8 0-11.4-4.547-4.6-4.548-4.6-11.27 0-6.722 4.6-11.452Q193.2-680 200-680h560q6.8 0 11.4 4.547 4.6 4.547 4.6 11.269t-4.6 11.453Q766.8-648 760-648H200Z"/></svg>