<svg xmlns="http://www.w3.org/2000/svg" height="24" viewBox="0 -960 960 960" width="24"><path d="M602-172q-115 0-194.5-63.5T298-396H172q-5.95 0-9.975-4.035-4.025-4.035-4.025-10t4.025-9.965q4.025-4 9.975-4h121q-5-23-4.5-55.5T293-536H172q-5.95 0-9.975-4.035-4.025-4.035-4.025-10t4.025-9.965q4.025-4 9.975-4h128q29-97 108-160.5T602-788q52.663 0 100.331 15.5Q750-757 791-729q5.25 3.256 5.625 8.628t-3.97 9.497q-4.345 4.5-10.5 4.687Q776-706 771-710q-36.691-23.864-79.497-36.932Q648.697-760 602-760q-104 0-174.5 57T329-564h253q5.95 0 9.975 4.035 4.025 4.035 4.025 10T591.975-540q-4.025 4-9.975 4H322q-5 23-5 56t5 56h260q5.95 0 9.975 4.035 4.025 4.035 4.025 10T591.975-400q-4.025 4-9.975 4H328q29 82 99.5 139T602-200q46.941 0 89.971-13Q735-226 771-250q5-4 11-4t11 5q4 4 3.625 9.372T791-231q-41 28-88.669 43.5Q654.663-172 602-172Z"/></svg>