<svg xmlns="http://www.w3.org/2000/svg" height="24" viewBox="0 -960 960 960" width="24"><path d="m420-96-20-20 70-70H252v-28h218l-70-70 20-20 104 104L420-96ZM252-280v-548h456v548h-28v-94q-37-21-94.5-35.5T480-424q-48 0-105.5 14.5T280-374v94h-28Zm28-126q44-20 99-33t101-13q46 0 101 13t99 33v-394H280v394Zm280 220v-28h148v28H560Zm-79.882-336Q441-522 413.5-549.382q-27.5-27.383-27.5-66.5Q386-655 413.382-682.5q27.383-27.5 66.5-27.5Q519-710 546.5-682.618q27.5 27.383 27.5 66.5Q574-577 546.618-549.5q-27.383 27.5-66.5 27.5ZM480-550q27 0 46.5-19.5T546-616q0-27-19.5-46.5T480-682q-27 0-46.5 19.5T414-616q0 27 19.5 46.5T480-550Zm0 126Zm0-192Z"/></svg>