<svg xmlns="http://www.w3.org/2000/svg" height="24" viewBox="0 -960 960 960" width="24"><path d="m379.304-33.999-62.218-62.217 40.043-39.478H180.782v-88.479h176.347l-40.043-40.043 62.218-61.653 146.217 145.653L379.304-33.999Zm-198.522-254.48V-914.48h598.436v626.001H673.217v-71.825q-39.435-27.305-88.239-40.957Q536.174-414.913 480-414.913q-56.174 0-104.978 13.652-48.804 13.652-88.239 40.957v69.956l-1.304 1.869H180.782Zm106.001-161.348q46.304-21.304 95.117-31.674 48.812-10.369 98.108-10.369 49.296 0 98.101 10.369 48.804 10.37 95.108 31.674v-358.652H286.783v358.652Zm283.391 314.133v-88.479h209.044v88.479H570.174ZM480-531.87q-50 0-85-35t-35-85q0-50 35-85t85-35q50 0 85 35t35 85q0 50-35 85t-85 35Zm0-84.522q15.078 0 25.278-10.2t10.2-25.278q0-15.319-10.2-25.681T480-687.913q-15.078 0-25.278 10.359-10.2 10.36-10.2 25.674t10.2 25.401q10.2 10.087 25.278 10.087Zm0 201.479Zm0-236.957Z"/></svg>