<svg xmlns="http://www.w3.org/2000/svg" height="20" viewBox="0 -960 960 960" width="20"><path d="M398.001-77.847 359.848-115l64.001-63.001H212.001v-51.998h211.848L359.848-294l37.153-37.153L524.154-204 398.001-77.847ZM212.001-288v-555.999h535.998V-288H696v-52.616q-44.846-33.923-103.039-51.423-58.192-17.5-112.961-17.5t-112.961 17.5q-58.193 17.5-103.039 51.423v53.77l1.154-1.154h-53.153ZM264-411.23q48.461-27.846 104.692-42.923Q424.923-469.23 480-469.23q55.077 0 111.308 15.577Q647.539-438.076 696-411.23V-792H264v380.77Zm312 233.229v-51.998h171.999v51.998H576Zm-95.955-326.768q-45.814 0-77.929-32.07t-32.115-77.884q0-45.814 32.07-77.93 32.07-32.115 77.884-32.115t77.929 32.07q32.115 32.07 32.115 77.884t-32.07 77.93q-32.07 32.115-77.884 32.115ZM480-556.768q24.246 0 41.124-16.877 16.877-16.877 16.877-41.124 0-24.246-16.877-41.123-16.878-16.877-41.124-16.877-24.246 0-41.124 16.877-16.877 16.877-16.877 41.123 0 24.247 16.877 41.124 16.878 16.877 41.124 16.877Zm0 147.229Zm0-205.23Z"/></svg>