<svg xmlns="http://www.w3.org/2000/svg" height="24" viewBox="0 -960 960 960" width="24"><path d="m379.304-33.999-62.218-62.217 40.043-39.478H180.782v-88.479h176.347l-40.043-40.043 62.218-61.653 146.217 145.653L379.304-33.999Zm190.87-101.695v-88.479h209.044v88.479H570.174ZM180.782-288.479V-914.48h598.436v626.001H473.694l-94.39-94.39-93.825 94.39H180.782Zm106.001-161.348q46.304-21.304 95.117-31.674 48.812-10.369 98.108-10.369 49.296 0 98.101 10.369 48.804 10.37 95.108 31.674v-358.652H286.783v358.652ZM480-531.87q-50 0-85-35t-35-85q0-50 35-85t85-35q50 0 85 35t35 85q0 50-35 85t-85 35Z"/></svg>