<svg xmlns="http://www.w3.org/2000/svg" height="24" viewBox="0 -960 960 960" width="24"><path d="M480-105.384q-10.692 0-20.385-3.231-9.692-3.231-18.384-9.692L225.846-279.846q-11.923-8.692-18.885-22.615Q200-316.385 200-331.538v-443.847Q200-803 218.5-821.5 237-840 264.615-840h430.77Q723-840 741.5-821.5 760-803 760-775.385v443.847q0 15.153-6.961 29.077-6.962 13.923-18.885 22.615L518.769-118.307q-8.692 6.461-18.384 9.692-9.693 3.231-20.385 3.231Zm-14.615-45.385q6.154 5.384 14.615 5.384t14.615-5.384L710-312.308q4.615-3.846 7.308-8.846 2.692-5 2.692-11.154v-443.077q0-9.23-7.692-16.923Q704.615-800 695.385-800h-430.77q-9.23 0-16.923 7.692Q240-784.615 240-775.385v443.077q0 6.154 2.692 11.154 2.693 5 7.308 8.846l215.385 161.539Zm-27.385-294-71.385-71.385q-5.846-5.846-13.769-6.115-7.923-.27-14.538 6.115-6.616 6.615-6.731 14.269-.116 7.654 6.5 14.27l77.308 77.307q9.692 9.693 22.615 9.693 12.923 0 22.615-9.693l161.539-161.538q5.846-5.846 6.115-13.769.27-7.924-6.115-14.539-6.615-6.615-14.269-6.731-7.654-.115-14.27 6.5L438-444.769ZM465.385-800H240h480-254.615Z"/></svg>