<svg xmlns="http://www.w3.org/2000/svg" height="20" viewBox="0 -960 960 960" width="20"><path d="M480-104.26q-14.957 0-30.696-4.631-15.739-4.63-29.131-15.457L186.956-303.26q-19.087-14.957-28.631-34.896-9.543-19.939-9.543-43.018V-838.87q0-41.004 28.498-69.503 28.498-28.498 69.503-28.498h466.434q41.005 0 69.503 28.498 28.498 28.499 28.498 69.503v457.696q0 23.079-9.543 43.018-9.544 19.939-28.631 34.896L539.827-124.348q-13.392 10.827-29.131 15.457-15.739 4.631-30.696 4.631Zm0-97.436 233.217-179.913V-838.87H246.783v457.261L480-201.696ZM438-544.74l-57.174-57.173q-12.13-12.131-28.391-12.414-16.261-.282-28.392 11.935-12.13 12.609-11.848 29.087.283 16.479 12.414 28.609l78.347 78.783q14.763 14.391 34.447 14.391 19.684 0 34.641-14.391L635.826-629.13q12.131-12.131 12.413-28.392.283-16.261-11.934-28.391-12.609-12.131-29.088-11.848-16.478.282-28.608 12.413L438-544.74Zm42-294.13H246.783h466.434H480Z"/></svg>