<svg xmlns="http://www.w3.org/2000/svg" height="20" viewBox="0 -960 960 960" width="20"><path d="M216-792v624-624 168-168Zm108 408h102q8-20 18-38t24-34H323.852Q309-456 298.5-445.711q-10.5 10.29-10.5 25.5Q288-405 298.35-394.5 308.7-384 324-384Zm0 144h88q-3-18-4-36t1-36h-85q-15.3 0-25.65 10.289-10.35 10.29-10.35 25.5Q288-261 298.35-250.5 308.7-240 324-240ZM216-96q-29.7 0-50.85-21.15Q144-138.3 144-168v-624q0-29.7 21.15-50.85Q186.3-864 216-864h282q14.222 0 27.111 5Q538-854 549-843l150 150q11 11 16 23.889T720-642v94q-18-3-36-4t-36 1v-73H516q-15.3 0-25.65-10.35Q480-644.7 480-660v-132H216v624h221q11 20 24 38t30 34H216Zm456.226-384Q752-480 808-423.774t56 136Q864-208 807.774-152t-136 56Q592-96 536-152.226t-56-136Q480-368 536.226-424t136-56ZM672-192q8.462 0 14.231-5.769T692-212q0-8.462-5.769-14.231T672-232q-8.462 0-14.231 5.769T652-212q0 8.462 5.769 14.231T672-192Zm.287-192Q657-384 643.5-377q-13.5 7-21.357 20.091-3.143 4.909-.605 10.19 2.539 5.281 8.462 7.719 5 2 10 .5t9-6.5q5-5 10.625-8.5T672-357q10.562 0 18.281 7.083Q698-342.833 698-332q0 8.462-5 14.231T682-307q-6 5-11.056 10.1-5.055 5.1-8.944 11.9-3 6-3.5 12.825-.5 6.825-.5 14.175 0 5.625 4.5 10.312Q667-243 673.154-243t10-4.5Q687-252 687-258.889q0-9.472 4-16.792 4-7.319 10.737-13.58 10.105-8.609 17.684-19.174Q727-319 727-333q0-21.516-16.092-36.258Q694.816-384 672.287-384Z"/></svg>