<svg xmlns="http://www.w3.org/2000/svg" height="24" viewBox="0 -960 960 960" width="24"><path d="m731-384-90-88 58-59q17-17 26-38.5t9-45.612Q734-665 699.5-699.5 665-734 615-734q-23.41 0-45.205 9Q548-716 531-699l-61 60-90-88 61-61q35.019-34.909 79.887-53.455Q565.755-860 615-860q102.356 0 173.678 71.322T860-615q0 49-18.545 93.956Q822.909-476.088 788-441l-57 57ZM345-226q23.41 0 45.205-9Q412-244 429-261l79-79-168-168-79 79q-17 17-26 38.795T226-345q0 50 34.5 84.5T345-226ZM792-57 598-251l-79 79q-35.019 34.909-79.887 53.455Q394.245-100 345-100q-102.356 0-173.678-71.322T100-345q0-49 18.545-93.956Q137.091-483.912 172-519l78-78L54-793l69-66 736 736-67 66ZM424-424Zm132-132Z"/></svg>