<svg xmlns="http://www.w3.org/2000/svg" height="24" viewBox="0 -960 960 960" width="24"><path d="M665.539-404.461 638-432l80-80q20-20 31-47t11-56q0-60-42.5-102.5T615-760q-29 0-56 11t-47 31l-80 80-27.539-27.539 79.231-80q26.616-25.846 60.337-40.154Q577.751-800 614.763-800q77.314 0 131.276 53.93Q800-692.14 800-614.744q0 37.052-14.307 70.744-14.308 33.692-40.154 60.308l-80 79.231ZM345-200q29 0 56-11t47-31l104.692-104.692-206-206L242-448q-20 20-31 47t-11 56q0 60 42.5 102.5T345-200Zm443.923 89.539L580.231-319.154 476.308-214.461q-25.846 25.846-59.893 40.154Q382.368-160 345-160q-77.289 0-131.145-53.93Q160-267.86 160-345.256q0-37.052 14.307-71.129 14.308-34.077 40.154-59.923l104.693-103.923-204.693-204.692 28.308-28.308 674.462 674.462-28.308 28.308ZM449.692-449.692ZM535-535Z"/></svg>