<svg xmlns="http://www.w3.org/2000/svg" height="20" viewBox="0 -960 960 960" width="20"><path d="M700.914-386.522 384.261-698.653l64.26-64.26q30.707-31.645 71.893-48.018Q561.6-827.305 606-827.305q92.723 0 157.014 64.291Q827.305-698.723 827.305-606q0 44.261-16.874 85.497-16.873 41.236-47.518 71.982l-61.999 61.999ZM768-92.826 587.609-273.217l-76.13 76.13q-30.707 30.645-71.893 47.518Q398.4-132.695 354-132.695q-92.723 0-157.014-64.291Q132.695-261.277 132.695-354q0-44.261 16.874-85.497 16.873-41.236 47.518-71.982l76.565-75.565L88.87-771.826l58.348-56.653 678 679L768-92.826Z"/></svg>