<svg xmlns="http://www.w3.org/2000/svg" height="24" viewBox="0 -960 960 960" width="24"><path d="M480.118-382Q366-382 286-461.676q-80-79.677-80-193.5Q206-769 285.882-849q79.883-80 194-80Q594-929 674-849.118q80 79.883 80 194Q754-541 674.118-461.5q-79.883 79.5-194 79.5ZM440-535h80v-80h80v-80h-80v-80h-80v80h-80v80h80v80ZM820-65v-64h-65v-76h65v-64h75v64h65v76h-65v64h-75Zm-300 8v-240h215v162h-31l37 78h-79l-30.15-62H595v62h-75Zm75-132h65v-33h-65v33ZM0-57v-240h75v83h65v-83h75v240h-75v-89H75v89H0Zm260 0v-240h178l37 37v165l-37 38H260Zm75-75h65v-90h-65v90Z"/></svg>