<svg xmlns="http://www.w3.org/2000/svg" height="20" viewBox="0 -960 960 960" width="20"><path d="M480.181-424q-83.258 0-141.72-58.28Q280-540.561 280-623.819q0-83.258 58.28-141.72Q396.561-824 479.819-824q83.258 0 141.72 58.28Q680-707.439 680-624.181q0 83.258-58.28 141.72Q563.439-424 480.181-424ZM480-456q70 0 119-49t49-119q0-70-49-119t-119-49q-70 0-119 49t-49 119q0 70 49 119t119 49Zm-16-68h32v-84h84v-32h-84v-84h-32v84h-84v32h84v84Zm16-112Zm342.308 527.692v-78h-78v-47.384h78v-78h47.384v78h78v47.384h-78v78h-47.384Zm-306 0v-215.384h191.384v128.923h-34.153l40 86.461h-55.924l-33-72h-60.923v72h-47.384Zm47.384-119.384h96.616v-48.616h-96.616v48.616ZM12.308-108.308v-215.384h47.384v84h96.616v-84h47.384v215.384h-47.384v-84H59.692v84H12.308Zm264 0v-215.384H420L443.692-300v168L420-108.308H276.308Zm47.384-47.384h72.616v-120.616h-72.616v120.616Z"/></svg>