<svg xmlns="http://www.w3.org/2000/svg" height="20" viewBox="0 -960 960 960" width="20"><path d="M480.118-366Q366-366 286-445.676q-80-79.677-80-193.5Q206-753 285.882-833q79.883-80 194-80Q594-913 674-833.118q80 79.883 80 194Q754-525 674.118-445.5q-79.883 79.5-194 79.5ZM480-468q72 0 121.5-49.5T651-639q0-72-49.5-121.5T480-810q-72 0-121.5 49.5T309-639q0 72 49.5 121.5T480-468Zm-36-51h72v-84h84v-72h-84v-84h-72v84h-84v72h84v84Zm36-132ZM810-81v-62h-63v-88h63v-62h87v62h63v88h-63v62h-87Zm-306 8v-240h231v158h-23l41 82h-98l-27.15-54H591v54h-87Zm87-136h57v-17h-57v17ZM0-73v-240h87v87h57v-87h87v240h-87v-73H87v73H0Zm264 0v-240h164l43 43v153l-43 44H264Zm87-87h33v-66h-33v66Z"/></svg>