<svg xmlns="http://www.w3.org/2000/svg" height="20" viewBox="0 -960 960 960" width="20"><path d="M480.091-404.001q-91.629 0-155.859-64.14-64.231-64.14-64.231-155.768 0-91.629 64.14-155.859 64.14-64.231 155.768-64.231 91.629 0 155.859 64.14 64.231 64.14 64.231 155.768 0 91.629-64.14 155.859-64.14 64.231-155.768 64.231Zm-26.09-110h51.998v-84h84v-51.998h-84v-84h-51.998v84h-84v51.998h84v84Zm362.153 411.847v-78h-78v-59.692h78v-78h59.692v78h78v59.692h-78v78h-59.692Zm-306 0v-227.692h203.692v140.461h-31.077l40 87.231h-67.461l-33-72h-52.462v72h-59.692Zm59.692-131.692h84.308v-36.308h-84.308v36.308ZM6.154-102.154v-227.692h59.692v84h84.308v-84h59.692v227.692h-59.692v-84H65.846v84H6.154Zm264 0v-227.692H420L449.846-300v168L420-102.154H270.154Zm59.692-59.692h60.308v-108.308h-60.308v108.308Z"/></svg>