<svg xmlns="http://www.w3.org/2000/svg" height="24" viewBox="0 -960 960 960" width="24"><path d="M445.385-800v400q0 8.539-5.758 14.269-5.758 5.731-14.27 5.731-8.511 0-14.242-5.75-5.731-5.75-5.731-14.25v-170.769h-17.692q-56 0-94.923-39.308t-38.923-95.308q0-56 38.923-95.308Q331.692-840 387.692-840h229.231q8.5 0 14.25 5.758 5.75 5.757 5.75 14.269 0 8.511-5.75 14.242-5.75 5.731-14.25 5.731h-55.384v400q0 8.5-5.758 14.25T541.512-380q-8.512 0-14.243-5.75T521.538-400v-400h-76.153Zm-40.001 189.231V-800h-17.692q-39.154 0-66.5 27.819-27.346 27.819-27.346 66.885 0 39.065 27.346 66.796 27.346 27.731 66.5 27.731h17.692Zm0-94.616ZM724.154-210H180q-8.5 0-14.25-5.758T160-230.027q0-8.512 5.731-14.242 5.73-5.731 13.5-5.731l543.384-16.923-64.461-64.462q-6.385-6.384-6.385-14.538t6.385-14.539q6.384-6.384 14.538-6.384t14.539 6.384l90.154 90.154q9.692 9.902 9.692 23.105 0 13.203-9.692 22.895l-90.923 90.154q-5.359 5.616-13.641 5.616-8.283 0-13.898-5.616-5.615-5.615-5.615-13.897t5.615-13.641L724.154-210Z"/></svg>