<svg xmlns="http://www.w3.org/2000/svg" height="20" viewBox="0 -960 960 960" width="20"><path d="M458.693-792v372q0 11.069-7.419 18.534-7.418 7.465-18.384 7.465-10.966 0-18.581-7.475-7.615-7.474-7.615-18.524v-161.385h-8.847q-54.999 0-92.961-38.154-37.961-38.153-37.961-93.153 0-54.999 37.961-93.153 37.962-38.154 92.464-38.154h227.048q11.077 0 18.569 7.419 7.493 7.418 7.493 18.384 0 10.966-7.475 18.765-7.475 7.8-18.524 7.8h-43.693V-420q0 11.05-7.418 18.524-7.418 7.475-18.384 7.475-10.966 0-18.582-7.475-7.615-7.474-7.615-18.524v-372h-70.076Zm-51.999 158.616V-792h-8.847q-33.077 0-56 23.372-22.923 23.372-22.923 56.193 0 32.82 23.073 55.936 23.073 23.115 55.85 23.115h8.847Zm0-79.308ZM696.078-198H196.001q-12.75 1-22.375-8.629t-9.625-22.384q0-12.756 9.616-22.371 9.615-9.615 21.999-9.615l499.693-8.462-46.232-46.232q-8.692-8.692-8.692-18.269 0-9.576 8.692-18.268t18.769-8.692q10.076 0 18.769 8.692l87.214 86.317q9.708 9.71 9.708 22.493 0 12.783-9.846 22.266l-87.461 87.076q-8.179 8.308-17.82 8.308t-17.948-8.308q-8.308-8.307-8.308-18.448t8.308-18.32L696.078-198Z"/></svg>