<svg xmlns="http://www.w3.org/2000/svg" height="24" viewBox="0 -960 960 960" width="24"><path d="M386.999-848.479q-18.695 0-31.609-12.913-12.913-12.913-12.913-31.609 0-18.695 12.913-31.608 12.914-12.914 31.609-12.914h186.002q18.695 0 31.608 12.914 12.914 12.913 12.914 31.608 0 18.696-12.914 31.609-12.913 12.913-31.608 12.913H386.999ZM480-50.607q-78.957 0-147.848-29.913-68.892-29.913-120.435-81.74-51.544-51.826-81.24-120.717-29.695-68.892-29.695-146.849 0-77.956 29.913-146.848 29.913-68.891 81.739-120.435 51.826-51.543 120.718-81.457Q402.043-808.479 480-808.479q66.391 0 122.826 20.152 56.435 20.153 105.696 57.022l29.435-29.435q14.391-14.391 34.283-14.609 19.891-.217 34.717 14.609 13.827 14.392 14.044 34.001.217 19.609-13.609 34.435l-29 29.434q37.131 47.566 58.978 106.261 21.848 58.696 21.848 126.783 0 77.957-29.695 146.849-29.696 68.891-81.24 120.717-51.543 51.827-120.717 81.74Q558.391-50.607 480-50.607Zm0-379.219Zm42.913-83.956h185.913q11 0 17.282-8.5 6.283-8.5 1.718-19.066-18.131-42.608-52.457-78.151-34.326-35.544-78.891-56.109-9.261-4.13-18.457-1-9.195 3.131-13.761 11.826l-64.434 111.391q-7.696 13.391.218 26.5 7.913 13.109 22.869 13.109Zm-95.348 4.347 91.695-158.781q5.566-10.131 1-20.261-4.565-10.131-16.695-12.131-49.87-3.739-96.348 8.609-46.478 12.348-84.521 39.087-7.131 5.565-8.848 14.196-1.718 8.63 2.848 16.195l65.564 113.086q7.696 13.392 22.653 13.392 14.957 0 22.652-13.392Zm-66.131 123.566q14.957 0 22.87-13.109t.217-26.5l-91.26-158.912q-5.565-10.131-16.913-10.631-11.348-.5-18.348 8.631-27.304 39.869-40.478 85.413-13.174 45.543-8.739 93.717 1.565 9.695 7.913 15.543 6.348 5.848 16.044 5.848h128.694Zm98.175 79.609q7.695-13.391-.218-26.5t-22.87-13.109H251.74q-11.566 0-17.848 9.348-6.283 9.348-1.718 19.913 18.696 43.739 53.305 78.435 34.608 34.695 77.478 54.695 8.695 4.13 17.609 1.283 8.913-2.848 13.478-10.979l65.565-113.086Zm117.565-43.391q-7.695-13.392-22.652-13.674-14.957-.283-22.652 13.109l-92.261 159.477q-5.565 10.13-1 19.913t16.131 11.783q47.869 5.608 95.499-7.109 47.631-12.718 85.935-40.022 7.13-5.565 8.848-14.196 1.717-8.63-2.848-16.76l-65-112.521Zm-2.826-84.522L667.304-273q5 9.565 16.066 10.065 11.065.5 18.065-8.065 27.608-37.435 41.413-84.913 13.804-47.478 8.369-95.913-1.565-9.695-8.478-15.826-6.913-6.13-16.609-6.13H598.001q-14.957 0-23.153 13.109-8.196 13.108-.5 26.5Z"/></svg>