<svg xmlns="http://www.w3.org/2000/svg" height="24" viewBox="0 -960 960 960" width="24"><path d="m232.307-682.923-69.845 69.615q-5.616 5.616-13.654 6-8.039.385-14.822-6.398-6.217-6.217-6.217-13.986 0-7.77 6.385-14.154l95.272-95.273q5.497-5.497 11.061-7.612t11.923-2.115q6.359 0 11.821 2.115 5.461 2.115 10.958 7.612l95.273 95.273q5.615 5.615 6.115 13.654.5 8.038-6.283 14.821-6.217 6.217-13.871 6.333-7.654.115-14.269-6.27l-69.846-69.615v405.846l69.846-69.615q5.615-5.616 13.654-6 8.038-.385 14.821 6.398 6.217 6.217 6.217 13.986 0 7.77-6.384 14.154l-95.273 95.273q-5.497 5.497-11.061 7.612t-11.923 2.115q-6.359 0-11.82-2.115-5.462-2.115-10.959-7.612l-95.272-95.273q-5.616-5.615-6.116-13.654-.5-8.038 6.283-14.821 6.217-6.217 13.871-6.333 7.654-.115 14.27 6.27l69.845 69.615v-405.846ZM514.615-240q-7.769 0-13.5-5.758-5.73-5.757-5.73-14.269 0-8.511 5.75-14.242 5.75-5.731 14.25-5.731h300.769q10.135 0 16.99 6.844Q840-266.312 840-256.194q0 10.117-7.654 17.386-7.653 7.27-17.73 7.27L514.615-240Zm.77-220q-8.5 0-14.25-5.758-5.75-5.757-5.75-14.269t5.75-14.242q5.75-5.731 14.25-5.731H820q8.5 0 14.25 5.758 5.75 5.757 5.75 14.269t-5.75 14.242Q828.5-460 820-460H515.385Zm0-220q-8.5 0-14.25-5.971t-5.75-14.798q0-8.174 5.528-13.702Q506.442-720 514.615-720l300.77-8.462q10.461 0 17.538 6.844Q840-714.773 840-704.656t-7.077 17.387Q825.846-680 815.385-680h-300Z"/></svg>