<svg xmlns="http://www.w3.org/2000/svg" height="20" viewBox="0 -960 960 960" width="20"><path d="M495.225-384Q452-384 422.5-413.34 393-442.68 393-486v-2q-11.077 9-25.038 12Q354-473 341-473q-42.9 0-71.95-29.34Q240-531.68 240-575q0-28 14-51t38-37q-24-14-38-37.5T240-752q0-43.32 29.05-72.66Q298.1-854 341-854q13 0 27 3t25 13v-3q0-43.32 29.275-72.66 29.274-29.34 72.5-29.34Q538-943 567.5-913.66 597-884.32 597-841v3q12-7 23-9.5t22 1.5l-73 209q6-38-16.5-65T495-729q-27.32 0-46.16 19.275-18.84 19.274-18.84 46.5Q430-636 448.84-617T495-598q24.543 0 44.771-11.5Q560-621 573-642q-6 35 19 64t64 29h94q-10 32-37.5 54T650-473q-13 0-27.462-3-14.461-3-25.538-12v2q0 43.32-29.275 72.66-29.274 29.34-72.5 29.34ZM636-617l110.181-325H824l110 325h-84.043L829-691h-91.489L717-617h-81Zm118-135h62l-30.145-110H783l-29 110ZM480-35q0-92.307 27.5-166.154Q535-275 586.076-326.023q51.077-51.022 124.5-78.5Q784-432 877-432q0 93-27.477 165.924-27.478 72.923-78.5 124.5Q720-90 646.154-62.5 572.307-35 480-35Zm0 0q0-92-27.5-166T374-326q-51-51-124.846-78.5Q175.307-432 83-432q0 93 27.507 165.92 27.507 72.919 79.08 124.493 51.574 51.573 124.493 79.08Q387-35 480-35Z"/></svg>