<svg xmlns="http://www.w3.org/2000/svg" height="24" viewBox="0 -960 960 960" width="24"><path d="M578.87-320h-30q-13 0-21.5-8.5t-8.5-21.5q0-13 8.5-21.5t21.5-8.5h30v-30q0-13 8.5-21.5t21.5-8.5q13 0 21.5 8.5t8.5 21.5v30h30q13 0 21.5 8.5t8.5 21.5q0 13-8.5 21.5t-21.5 8.5h-30v30q0 13-8.5 21.5t-21.5 8.5q-13 0-21.5-8.5t-8.5-21.5v-30ZM341.13-576.609v68.57q0 12.735-8.5 21.235t-21.5 8.5q-13 0-21.5-8.5t-8.5-21.272v-176.837q0-13 8.5-21.5t21.5-8.5q13 0 21.5 8.5t8.5 21.5v48.304h80v-48.304q0-13 8.5-21.5t21.5-8.5q13 0 21.5 8.5t8.5 21.5v176.609q0 13-8.5 21.5t-21.5 8.5q-13 0-21.5-8.5t-8.5-21.5v-68.305h-80Zm177.74 68.305v-176.609q0-13 8.5-21.5t21.5-8.5h90q24 0 42 18t18 42v116.609q0 24-18 42t-42 18h-90q-13 0-21.5-8.5t-8.5-21.5Zm-97.74 166.608V-380h-80v38.304h80Zm-80 60v48.305q0 13-8.5 21.5t-21.5 8.5q-13 0-21.5-8.5t-8.5-21.5V-410q0-13 8.5-21.5t21.5-8.5h110q25 0 42.5 17.5t17.5 42.5v38.304q0 18-10.5 32.5t-25.5 23.5l18.435 42.305q6 14-2.5 27t-23.5 13q-8 0-14.935-4.5-6.934-4.5-10.5-12.5l-27-61.305h-44Zm237.74-256.608h60v-116.609h-60v116.609ZM480-60.782q-87.522 0-163.906-32.96-76.385-32.96-132.888-89.464-56.504-56.503-89.464-132.888Q60.782-392.478 60.782-480t32.96-163.906q32.96-76.385 89.464-132.888 56.503-56.504 132.888-89.464 76.384-32.96 163.906-32.96t163.906 32.96q76.385 32.96 132.888 89.464 56.504 56.503 89.464 132.888 32.96 76.384 32.96 163.906t-32.96 163.906q-32.96 76.385-89.464 132.888-56.503 56.504-132.888 89.464Q567.522-60.782 480-60.782Zm-.005-106.001q130.179 0 221.7-91.239Q793.217-349.261 793.217-480T701.7-701.978q-91.516-91.239-221.695-91.239-130.179 0-221.7 91.239Q166.783-610.739 166.783-480T258.3-258.022q91.516 91.239 221.695 91.239ZM480-480Z"/></svg>