<svg xmlns="http://www.w3.org/2000/svg" height="24" viewBox="0 -960 960 960" width="24"><path d="M592.308-332.308V-290q0 7.667 5.002 12.68 5.003 5.012 12.654 5.012t12.69-5.012q5.038-5.013 5.038-12.68v-42.308H670q7.667 0 12.68-5.002 5.012-5.003 5.012-12.654t-5.012-12.69q-5.013-5.038-12.68-5.038h-42.308V-410q0-7.667-5.002-12.68-5.003-5.012-12.654-5.012t-12.69 5.012q-5.038 5.013-5.038 12.68v42.308H550q-7.667 0-12.68 5.002-5.012 5.003-5.012 12.654t5.012 12.69q5.013 5.038 12.68 5.038h42.308Zm-264.616-260h104.616V-510q0 7.667 5.002 12.68 5.003 5.012 12.654 5.012t12.69-5.012q5.038-5.013 5.038-12.68v-180q0-7.667-5.002-12.68-5.003-5.012-12.654-5.012t-12.69 5.012q-5.038 5.013-5.038 12.68v62.308H327.692V-690q0-7.667-5.002-12.68-5.003-5.012-12.654-5.012t-12.69 5.012q-5.038 5.013-5.038 12.68v180q0 7.667 5.002 12.68 5.003 5.012 12.654 5.012t12.69-5.012q5.038-5.013 5.038-12.68v-82.308ZM532.308-510q0 7.667 5.012 12.68 5.013 5.012 12.68 5.012h77.692q25.539 0 42.77-17.23 17.23-17.231 17.23-42.77v-95.384q0-25.539-17.23-42.77-17.231-17.23-42.77-17.23H550q-7.667 0-12.68 5.012-5.012 5.013-5.012 12.68v180ZM407.692-327.692h-80v-64.616h80q10.77 0 17.693 6.923 6.923 6.923 6.923 17.693v15.384q0 10.77-6.923 17.693-6.923 6.923-17.693 6.923Zm-80 35.384h60.923l30.077 69.154q2.231 4.923 6.27 7.885 4.038 2.961 9.362 2.961 9.984 0 15.022-8 5.039-8 1.346-16.615l-25.153-57.846q18.076-7.462 30.115-22.911 12.038-15.449 12.038-34.628v-15.384q0-25-17.5-42.5t-42.5-17.5H310q-7.667 0-12.68 5.012-5.012 5.013-5.012 12.68v180q0 7.667 5.002 12.68 5.003 5.012 12.654 5.012t12.69-5.012q5.038-5.013 5.038-12.68v-62.308Zm240-235.384v-144.616h60q10.77 0 17.693 6.923 6.923 6.923 6.923 17.693v95.384q0 10.77-6.923 17.693-6.923 6.923-17.693 6.923h-60ZM480.134-120q-74.673 0-140.41-28.339-65.737-28.34-114.365-76.922-48.627-48.582-76.993-114.257Q120-405.194 120-479.866q0-74.673 28.339-140.41 28.34-65.737 76.922-114.365 48.582-48.627 114.257-76.993Q405.194-840 479.866-840q74.673 0 140.41 28.339 65.737 28.34 114.365 76.922 48.627 48.582 76.993 114.257Q840-554.806 840-480.134q0 74.673-28.339 140.41-28.34 65.737-76.922 114.365-48.582 48.627-114.257 76.993Q554.806-120 480.134-120Z"/></svg>