<svg xmlns="http://www.w3.org/2000/svg" height="24" viewBox="0 -960 960 960" width="24"><path d="M200-280v-480H100v-40h140v480h600v40H200Zm57.692 155.385q-24.538 0-41.5-16.962-16.961-16.961-16.961-41.5 0-24.538 16.961-41.5 16.962-16.961 41.5-16.961 24.539 0 41.5 16.961 16.962 16.962 16.962 41.5 0 24.539-16.962 41.5-16.961 16.962-41.5 16.962Zm53.077-266.154v-178.462h178.462v178.462H310.769Zm40-40.001h98.462v-98.461h-98.462v98.461Zm240 40.001v-178.462h178.462v178.462H590.769Zm40-40.001h98.462v-98.461h-98.462v98.461Zm149.925 306.155q-24.463 0-41.04-16.962-16.577-16.961-16.577-41.5 0-24.538 16.577-41.5 16.577-16.961 41.04-16.961 24.464 0 41.885 16.961Q840-207.615 840-183.077q0 24.539-17.421 41.5-17.421 16.962-41.885 16.962ZM350.769-430.77h98.462-98.462Zm280 0h98.462-98.462Z"/></svg>