<svg xmlns="http://www.w3.org/2000/svg" height="24" viewBox="0 -960 960 960" width="24"><path d="m480-296-144 62q-30 13-57-4.756-27-17.755-27-50.244v-439q0-26 17-43t43-17h208v28H312q-12 0-22 10t-10 22v437q0 17 14.5 27t30.5 3l155-67 155 67q16 7 30.5-3t14.5-27v-229h28v231q0 32.489-27 50.244Q654-221 624-234l-144-62Zm0-464H280h240-40Zm200 80h-66q-5.95 0-9.975-4.035-4.025-4.035-4.025-10t4.025-9.965q4.025-4 9.975-4h66v-66q0-5.95 4.035-9.975 4.035-4.025 10-4.025t9.965 4.025q4 4.025 4 9.975v66h66q5.95 0 9.975 4.035 4.025 4.035 4.025 10T783.975-684q-4.025 4-9.975 4h-66v66q0 5.95-4.035 9.975-4.035 4.025-10 4.025T684-604.025q-4-4.025-4-9.975v-66Z"/></svg>