<svg xmlns="http://www.w3.org/2000/svg" height="20" viewBox="0 -960 960 960" width="20"><path d="m480-219.086-124.608 49.652q-48.001 19.087-91.305-10.088-43.305-29.174-43.305-81.218v-476.477q0-41.417 28.348-70.209t69.653-27.792h206.391v98.001H318.783v476.043L480-324.783l161.217 63.609V-529.13h98.001v268.39q0 52.044-43.305 81.218-43.304 29.175-91.305 10.088L480-219.086Zm0-518.131H318.783h206.391H480Zm201.407 52.087h-27.638q-18.953 0-31.774-13.177-12.821-13.176-12.821-31.867 0-18.692 13.209-31.586 13.21-12.893 31.951-12.893h27.073v-27.521q0-18.904 13.21-31.691 13.209-12.788 31.811-12.788t31.435 12.788q12.833 12.787 12.833 31.691v27.521h27.311q18.814 0 31.752 12.727 12.937 12.727 12.937 31.541 0 18.602-12.787 31.812-12.788 13.209-31.691 13.209h-27.522v27.638q0 18.953-12.787 31.774-12.788 12.822-31.691 12.822-18.392 0-31.601-13.177-13.21-13.176-13.21-31.867v-26.956Z"/></svg>