<svg xmlns="http://www.w3.org/2000/svg" height="20" viewBox="0 -960 960 960" width="20"><path d="M480.211-720Q465-720 454.5-730.289q-10.5-10.29-10.5-25.5Q444-771 454.289-781.5q10.29-10.5 25.5-10.5Q495-792 505.5-781.711q10.5 10.29 10.5 25.5Q516-741 505.711-730.5q-10.29 10.5-25.5 10.5Zm0-120Q465-840 454.5-850.289q-10.5-10.29-10.5-25.5Q444-891 454.289-901.5q10.29-10.5 25.5-10.5Q495-912 505.5-901.711q10.5 10.29 10.5 25.5Q516-861 505.711-850.5q-10.29 10.5-25.5 10.5ZM333-96q-48-37-76-90t-29-114q-1-77 41.5-140.5T384-533v-91q0-20.4 13.8-34.2Q411.6-672 432-672h96q20.4 0 34.2 13.8Q576-644.4 576-624v91q72 29 113.5 92.5T732-300q1 61-28 113.5T627-96H333Zm-57.5-717q-14.5 0-25-10.5t-10.5-25q0-14.5 10.088-25.5 10.087-11 25-11Q290-885 301-874q11 11 11 25.912 0 14.913-11 25Q290-813 275.5-813Zm408.711 0Q669-813 658.5-823.088q-10.5-10.087-10.5-25Q648-863 658.289-874q10.29-11 25.5-11Q699-885 709.5-874q10.5 11 10.5 25.912 0 14.913-10.289 25Q699.421-813 684.211-813Zm-335 94Q334-719 323.5-729.289q-10.5-10.29-10.5-25.5Q313-770 323.289-780.5q10.29-10.5 25.5-10.5Q364-791 374.5-780.711q10.5 10.29 10.5 25.5Q385-740 374.711-729.5q-10.29 10.5-25.5 10.5Zm262 0Q596-719 585.5-729.289q-10.5-10.29-10.5-25.5Q575-770 585.289-780.5q10.29-10.5 25.5-10.5Q626-791 636.5-780.711q10.5 10.29 10.5 25.5Q647-740 636.711-729.5q-10.29 10.5-25.5 10.5Z"/></svg>