<svg xmlns="http://www.w3.org/2000/svg" height="20" viewBox="0 -960 960 960" width="20"><path d="M360.75-313q-20.294 0-34.022-13.8Q313-340.6 313-360.809v-56.247Q313-424 317.5-429q4.5-5 10.5-5 14.667-5.333 23.833-18.667Q361-466 361-480q0-14-9.167-27.333Q342.667-520.667 328-526q-7 0-11-4.808-4-4.807-4-12.192v-56.202q0-20.198 13.728-33.998Q340.456-647 360.75-647h238.5q20.294 0 34.022 13.8Q647-619.4 647-599.191v56.247Q647-536 642.5-531q-4.5 5-10.5 5-14.667 5.333-23.833 18.667Q599-494 599-480q0 14 9.167 27.333Q617.333-439.333 632-434q7 0 11 4.808 4 4.807 4 12.192v56.202q0 20.198-13.728 33.998Q619.544-313 599.25-313h-238.5ZM480-376q9 0 15-6t6-15q0-9-6-14.5t-15-5.5q-9 0-15 5.7t-6 14.3q0 9 6 15t15 6Zm0-83q9 0 15-6t6-15q0-9-6-15t-15-6q-9 0-15 6t-6 15q0 9 6 15t15 6Zm0-84q9 0 15-5.7t6-14.3q0-9-6-15t-15-6q-9 0-15 6t-6 15q0 9 6 14.5t15 5.5ZM279-17q-49.7 0-83.85-34.15Q161-85.3 161-135v-690q0-49.7 34.15-83.85Q229.3-943 279-943h402q49.7 0 83.85 34.15Q799-874.7 799-825v690q0 49.7-34.15 83.85Q730.7-17 681-17H279Zm0-166v48h402v-48H279Zm0-72h402v-450H279v450Zm0-522h402v-48H279v48Zm0 0v-48 48Zm0 594v48-48Z"/></svg>