<svg xmlns="http://www.w3.org/2000/svg" height="20" viewBox="0 -960 960 960" width="20"><path d="M360.765-313q-20.275 0-34.02-13.705Q313-340.41 313-360.669v-56.447q0-6.958 4-11.421Q321-433 328-434q14.667-4.96 23.833-17.98Q361-465 361-480t-9.167-28.02Q342.667-521.04 328-526q-7-.992-11-5.455t-4-11.422v-56.451q0-20.261 13.8-33.966Q340.6-647 361-647h238.235q20.275 0 34.02 13.705Q647-619.59 647-599.331v56.447q0 6.958-4 11.421Q639-527 632-526q-14.667 4.96-23.833 17.98Q599-495 599-480t9.167 28.02Q617.333-438.96 632-434q7 .992 11 5.455t4 11.422v56.451q0 20.261-13.8 33.966Q619.4-313 599-313H360.765ZM480-376q9 0 15-6t6-15q0-9-6-14.5t-15-5.5q-9 0-15 5.7t-6 14.3q0 9 6 15t15 6Zm0-83q9 0 15-6t6-15q0-9-6-15t-15-6q-9 0-15 6t-6 15q0 9 6 15t15 6Zm0-84q9 0 15-5.7t6-14.3q0-9-6-15t-15-6q-9 0-15 6t-6 15q0 9 6 14.5t15 5.5ZM279-17q-49.7 0-83.85-34.15Q161-85.3 161-135v-690q0-49.7 34.15-83.85Q229.3-943 279-943h402q49.7 0 83.85 34.15Q799-874.7 799-825v690q0 49.7-34.15 83.85Q730.7-17 681-17H279Zm0-238h402v-450H279v450Z"/></svg>