<svg xmlns="http://www.w3.org/2000/svg" height="24" viewBox="0 -960 960 960" width="24"><path d="M378.171-344.615q-14.402 0-23.979-9.764t-9.577-24.197v-56.885q0-5 2.846-8.347 2.847-3.346 7.847-4.346 10.29-3.261 16.722-11.823 6.431-8.561 6.431-20.023t-6.431-20.023q-6.432-8.562-16.722-11.823-5-1-7.847-4.346-2.846-3.347-2.846-8.347v-56.885q0-14.433 9.743-24.197t24.145-9.764h203.326q14.402 0 23.979 9.764t9.577 24.197v56.885q0 5-2.846 8.347-2.847 3.346-7.847 4.346-10.29 3.261-16.722 11.823-6.431 8.561-6.431 20.023t6.431 20.023q6.432 8.562 16.722 11.823 5 1 7.847 4.346 2.846 3.347 2.846 8.347v56.885q0 14.433-9.743 24.197t-24.145 9.764H378.171ZM480-395.385q7.231 0 12.077-4.846t4.846-12.077q0-7.23-4.846-12.077-4.846-4.846-12.077-4.846t-12.077 4.846q-4.846 4.847-4.846 12.077 0 7.231 4.846 12.077T480-395.385Zm0-67.692q7.231 0 12.077-4.846T496.923-480q0-7.231-4.846-12.077T480-496.923q-7.231 0-12.077 4.846T463.077-480q0 7.231 4.846 12.077T480-463.077Zm0-67.692q7.231 0 12.077-4.846 4.846-4.847 4.846-12.077 0-7.231-4.846-12.077T480-564.615q-7.231 0-12.077 4.846t-4.846 12.077q0 7.23 4.846 12.077 4.846 4.846 12.077 4.846ZM304.615-79.999Q277-80 258.5-98.5 240-117 240-144.616v-670.77Q240-843 258.5-861.5 277-880 304.615-880h350.77Q683-880 701.5-861.5 720-843 720-815.385v670.77Q720-117 701.5-98.5 683-80 655.385-80h-350.77ZM280-220h400v-520H280v520Z"/></svg>