<svg xmlns="http://www.w3.org/2000/svg" height="24" viewBox="0 -960 960 960" width="24"><path d="m438-627.385 40-109.846h2.462L522-627.385h-84ZM480.181-440q-83.258 0-141.72-58.28Q280-556.561 280-639.819q0-83.258 58.28-141.72Q396.561-840 479.819-840q83.258 0 141.72 58.28Q680-723.439 680-640.181q0 83.258-58.28 141.72Q563.439-440 480.181-440Zm-53.104-158.154h105.846l21.769 57.231q2 5.462 6.077 7.808t9.395 2.346q9.115 0 14.052-6.808 4.938-6.808 1.476-15.5l-91.077-228.846q-1.12-3.41-4.483-5.359-3.363-1.949-7.019-1.949h-8.226q-3.656 0-7.019 1.949t-4.483 5.359l-87 230.385q-2.462 7.153 1.765 13.961 4.228 6.808 12.032 6.808 5.203 0 8.78-2.462 3.576-2.461 5.576-7.154l22.539-57.769Zm405.231 425.846H770q-7.667 0-12.68-5.002-5.012-5.003-5.012-12.654t5.012-12.69q5.013-5.038 12.68-5.038h62.308V-270q0-7.667 5.002-12.68 5.003-5.012 12.654-5.012t12.69 5.012q5.038 5.013 5.038 12.68v62.308H930q7.667 0 12.68 5.002 5.012 5.003 5.012 12.654t-5.012 12.69q-5.013 5.038-12.68 5.038h-62.308V-110q0 7.667-5.002 12.68-5.003 5.012-12.654 5.012t-12.69-5.012q-5.038-5.013-5.038-12.68v-62.308Zm-300 62.308v-180q0-7.667 5.012-12.68 5.013-5.012 12.68-5.012h97.692q24 0 42 17.23 18 17.231 18 42.77v15.384q0 18.385-10.5 33.962-10.5 15.577-31.653 23.577l26.153 59.077q3.693 8.615-1.23 16-4.923 7.384-14.77 7.384-4.923 0-9.389-2.461-4.466-2.462-6.38-7.385l-31.308-70.154h-60.923V-110q0 7.667-5.002 12.68-5.003 5.012-12.654 5.012t-12.69-5.012q-5.038-5.013-5.038-12.68Zm35.384-97.692h80q9.231 0 16.923-7.693 7.693-7.692 7.693-16.923v-15.384q0-9.231-7.693-16.923-7.692-7.693-16.923-7.693h-80v64.616Zm-520 15.384V-110q0 7.667-5.002 12.68-5.003 5.012-12.654 5.012t-12.69-5.012q-5.038-5.013-5.038-12.68v-180q0-7.667 5.002-12.68 5.003-5.012 12.654-5.012t12.69 5.012q5.038 5.013 5.038 12.68v62.308h104.616V-290q0-7.667 5.002-12.68 5.003-5.012 12.654-5.012t12.69 5.012q5.038 5.013 5.038 12.68v180q0 7.667-5.002 12.68-5.003 5.012-12.654 5.012t-12.69-5.012q-5.038-5.013-5.038-12.68v-82.308H47.692ZM272.308-110v-180q0-7.667 5.012-12.68 5.013-5.012 12.68-5.012h97.692q24 0 42 18t18 42v95.384q0 24-18 42t-42 18H290q-7.667 0-12.68-5.012-5.012-5.013-5.012-12.68Zm35.384-17.692h80q9.231 0 16.923-7.693 7.693-7.692 7.693-16.923v-95.384q0-9.231-7.693-16.923-7.692-7.693-16.923-7.693h-80v144.616Z"/></svg>