<svg xmlns="http://www.w3.org/2000/svg" height="20" viewBox="0 -960 960 960" width="20"><path d="M434.978-500.413h-32.5 91.935-59.435ZM264-240q-70 0-119-49T96-408q0-70 49-119t119-49h348.5l-70.087-70.087H432v-75.826h142.087L723-573q62 6 101.5 54T864-408q0 70-49 119t-119 49q-71 0-119.5-50.5T528-413q0-5 .5-11t2.5-11l-63 63h-40q-11 58-57.5 95T264-240Zm432-75.587q36.565 0 64.489-25.924 27.924-25.924 27.924-66.489 0-40.565-27.924-66.489-27.924-25.924-64.489-25.924-36.565 0-64.489 25.924-27.924 25.924-27.924 66.489 0 40.565 27.924 66.489 27.924 25.924 64.489 25.924Zm-432 0q27.565 0 51.109-14.424 23.543-14.424 34.304-41.989H240v-72h109.413q-10.761-27.565-34.304-41.989-23.544-14.424-51.109-14.424-35.565 0-63.989 25.924T171.587-408q0 40.565 28.424 66.489 28.424 25.924 63.989 25.924ZM431-444h7.239l56.174-56.413h-91.935q8.761 13.043 15.022 25.207Q423.761-463.043 431-444Z"/></svg>