<svg xmlns="http://www.w3.org/2000/svg" height="20" viewBox="0 -960 960 960" width="20"><path d="M264-240q-70 0-119-49T96-408q0-70 49-119t119-49h348.5l-70.036-70.087H432v-75.826h142.087L723-573q62 6 101.5 54T864-408q0 70-49 119t-119 49q-71 0-119.5-50.5T528-413q0-5 .5-11t2.5-11l-63 63h-40q-11 58-57.5 95T264-240Zm432.042-75.587q36.523 0 64.447-25.966t27.924-66.489q0-40.523-27.966-66.447t-64.489-25.924q-36.523 0-64.447 25.966t-27.924 66.489q0 40.523 27.966 66.447t64.489 25.924Zm-432.042 0q27.565 0 51.109-14.424 23.543-14.424 34.304-41.989H240v-72h109.413q-10.761-27.565-34.304-41.989-23.544-14.424-51.109-14.424-35.505 0-63.959 25.966t-28.454 66.489q0 40.523 28.454 66.447T264-315.587Z"/></svg>