<svg xmlns="http://www.w3.org/2000/svg" height="20" viewBox="0 -960 960 960" width="20"><path d="m438-447.218-57.739-57.173q-12.131-12.131-28.109-11.848-15.978.282-28.109 12.413-12.13 12.13-12.13 28.043 0 15.913 12.13 28.044l78.348 79.348q14.957 14.956 35.109 14.956t35.109-14.956l163.217-163.218q12.131-12.13 12.131-28.108 0-15.979-12.131-28.109-12.13-12.131-28.609-12.131-16.478 0-28.608 12.131L438-447.218Zm42 365.306q-7.696 0-15.957-.783-8.261-.782-15.522-3.348-134.956-44.13-217.348-166.348Q148.782-374.609 148.782-515v-174.913q0-31.478 17.022-56.261t45.935-35.61l233.217-89.173q16.957-6.696 35.044-6.696 18.087 0 35.044 6.696l233.217 89.173q28.913 10.827 45.935 35.61 17.022 24.783 17.022 56.261V-515q0 140.391-82.391 262.609-82.392 122.218-217.348 166.348-7.261 2.566-15.522 3.348-8.261.783-15.957.783Z"/></svg>