<svg xmlns="http://www.w3.org/2000/svg" height="24" viewBox="0 -960 960 960" width="24"><path d="m438-458.218-53.739-53.173q-13.131-13.131-31.109-12.848-17.978.282-31.109 13.413-13.13 13.13-13.13 31.043 0 17.913 13.13 31.044l78.348 79.348q15.957 15.956 37.609 15.956t37.609-15.956l163.217-163.218q13.131-13.13 13.131-31.608 0-18.479-13.131-31.609-13.13-13.131-31.609-13.131-18.478 0-31.608 13.131L438-458.218Zm42 392.306q-8.696 0-16.957-1.283-8.261-1.282-16.522-3.848-138.956-46.13-222.348-173.848Q140.782-372.609 140.782-516v-183.913q0-33.478 19.022-60.261t49.935-38.61l233.217-87.173q17.957-6.696 37.044-6.696 19.087 0 37.044 6.696l233.217 87.173q30.913 11.827 49.935 38.61 19.022 26.783 19.022 60.261V-516q0 143.391-83.391 271.109-83.392 127.718-222.348 173.848-8.261 2.566-16.522 3.848-8.261 1.283-16.957 1.283Z"/></svg>