<svg xmlns="http://www.w3.org/2000/svg" height="20" viewBox="0 -960 960 960" width="20"><path d="m462.692-363.559 6.231 37.713q.83 3.146 2.966 5.112 2.135 1.965 5.496 1.965h4.23q3.508 0 5.754-1.5 2.247-1.5 2.708-4.808L497.308-364q24.769-5 41.5-14.192t30.038-26.115l37.385 13.615q4.077 1.461 6.529-.279 2.452-1.739 3.856-4.49l2.615-3.77q1.154-2.077.808-5.269-.346-3.192-2.193-5.808l-27.615-24.307q6.615-20.693 7.615-44.885 1-24.192-6.615-44.885l26.615-23.307q1.847-2.616 2.193-6.193.346-3.577-.808-5.654l-1.846-3q-1.154-2.846-4.616-5.038-3.461-2.192-6.538-.731l-36.385 13.615q-13.307-16.923-30.538-26.615t-42-14.986l-6.231-36.86q-.461-3.308-3.308-5.692-2.846-2.385-6.608-2.385h-2.322q-3.762 0-6.608 2-2.847 2-3.308 5.308l-6.231 37.468q-24.769 5.455-42 15.147t-30.538 26.615l-35.385-13.615q-4.077-1.461-7.154.231-3.077 1.692-4.231 5.538l-2.615 2.77q-1.154 3.077-.808 6.269.346 3.192 2.193 5.808l27.615 23.307q-7.615 21.693-7.615 44.885 0 23.192 7.615 44.885l-27.615 24.307q-1.847 2.616-2.193 5.693-.346 3.077.982 6.575l.498 3.026q1.328 3.399 5.29 5.091 3.961 1.692 8.038.231l36.385-14.615q13.307 15.923 30.038 25.615 16.731 9.692 41.5 15.133ZM479.788-408Q450-408 429-429.212q-21-21.213-21-51Q408-510 429.212-531q21.213-21 51-21Q510-552 531-530.788q21 21.213 21 51Q552-450 530.788-429q-21.213 21-51 21ZM240.615-184q-24.315 0-40.465-16.15Q184-216.3 184-240.615v-478.77q0-24.315 16.15-40.465Q216.3-776 240.615-776h478.77q24.315 0 40.465 16.15Q776-743.7 776-719.385v478.77q0 24.315-16.15 40.465Q743.7-184 719.385-184h-478.77Zm0-32h478.77q9.23 0 16.923-7.692Q744-231.385 744-240.615v-478.77q0-9.23-7.692-16.923Q728.615-744 719.385-744h-478.77q-9.23 0-16.923 7.692Q216-728.615 216-719.385v478.77q0 9.23 7.692 16.923Q231.385-216 240.615-216ZM216-744v528-528Z"/></svg>