<svg xmlns="http://www.w3.org/2000/svg" height="20" viewBox="0 -960 960 960" width="20"><path d="m462.692-364 6.231 38.154q.461 3.308 2.808 5.192 2.346 1.885 5.654 1.885h4.23q3.308 0 5.654-1.5 2.347-1.5 2.808-4.808L497.308-364q24.769-5 41.5-14.192t30.038-26.115l37.385 13.615q4.077 1.461 6.654-.231 2.577-1.692 3.731-4.538l2.615-3.77q1.154-2.077.808-5.269-.346-3.192-2.193-5.808l-27.615-24.307q6.615-20.693 7.615-44.885 1-24.192-6.615-44.885l26.615-23.307q1.847-2.616 2.193-6.193.346-3.577-.808-5.654l-1.846-3q-1.154-2.846-4.616-5.038-3.461-2.192-6.538-.731l-36.385 13.615q-13.307-16.923-30.538-26.615t-42-14.692l-6.231-37.154q-.461-3.308-3.308-5.692-2.846-2.385-6.154-2.385h-3.23q-3.308 0-6.154 2-2.847 2-3.308 5.308L462.692-596q-24.769 5-42 14.692t-30.538 26.615l-35.385-13.615q-4.077-1.461-7.154.231-3.077 1.692-4.231 5.538l-2.615 2.77q-1.154 3.077-.808 6.269.346 3.192 2.193 5.808l27.615 23.307q-7.615 21.693-7.615 44.885 0 23.192 7.615 44.885l-27.615 24.307q-1.847 2.616-2.193 5.693-.346 3.077.808 6.154l.846 3q1.154 3.846 5.116 5.538 3.961 1.692 8.038.231l36.385-14.615q13.307 15.923 30.038 25.615Q437.923-369 462.692-364ZM480-408q-30 0-51-21t-21-51q0-30 21-51t51-21q30 0 51 21t21 51q0 30-21 51t-51 21ZM240.615-184Q216-184 200-200q-16-16-16-40.615v-478.77Q184-744 200-760q16-16 40.615-16h478.77Q744-776 760-760q16 16 16 40.615v478.77Q776-216 760-200q-16 16-40.615 16h-478.77Z"/></svg>