<svg xmlns="http://www.w3.org/2000/svg" height="24" viewBox="0 -960 960 960" width="24"><path d="m420.087-333.782 5.434 26.173q3.566 15.696 16.044 25.892 12.478 10.196 28.739 10.196h19.392q16.261 0 28.739-10.413 12.478-10.414 16.044-26.109l5.434-25.739q9.739-4.435 19.109-9.37 9.369-4.935 18.674-11.239l26.739 7.87q15.261 4.565 29.739-1 14.478-5.566 22.609-18.827l9.13-16.261q8.131-14.261 5.566-30.804-2.566-16.544-15.261-27.239l-19.739-16.739q.869-11.739.869-22.609 0-10.87-.869-22.609l20.304-17.304q12.696-10.696 15.261-26.457 2.565-15.76-5.565-30.021l-10.131-17.261q-8.13-13.261-22.391-19.109-14.261-5.848-29.522-1.283l-26.739 8.435q-9.305-6.304-18.674-11.239-9.37-4.935-19.109-9.37l-5.434-26.173q-3.566-15.696-16.044-25.892-12.478-10.196-28.739-10.196h-19.392q-16.261 0-28.739 10.413-12.478 10.414-16.044 26.109l-5.434 25.739q-9.739 4.435-19.109 9.37-9.369 4.935-18.674 11.239l-26.739-7.87q-15.261-4.565-29.739 1-14.478 5.566-22.609 18.827l-9.13 16.261q-8.131 14.261-5.566 30.804 2.566 16.544 15.261 27.239l19.739 16.739q-.869 11.739-.869 22.609 0 10.87.869 22.609l-20.304 17.304q-12.696 10.696-15.261 26.457-2.565 15.76 5.565 30.021l10.131 17.261q8.13 13.261 22.391 19.109 14.261 5.848 29.522 1.283l26.739-8.435q9.305 6.304 18.674 11.239 9.37 4.935 19.109 9.37ZM480-404.522q-31.304 0-53.391-22.087T404.522-480q0-31.304 22.087-53.391T480-555.478q31.304 0 53.391 22.087T555.478-480q0 31.304-22.087 53.391T480-404.522Zm-273.217 303.74q-44.305 0-75.153-30.848-30.848-30.848-30.848-75.153v-546.434q0-44.305 30.848-75.153 30.848-30.848 75.153-30.848h546.434q44.305 0 75.153 30.848 30.848 30.848 30.848 75.153v546.434q0 44.305-30.848 75.153-30.848 30.848-75.153 30.848H206.783Z"/></svg>