<svg xmlns="http://www.w3.org/2000/svg" height="20" viewBox="0 -960 960 960" width="20"><path d="m427.087-337.782 6.434 29.173q2.566 12.696 13.044 20.892 10.478 8.196 23.739 8.196h18.392q13.261 0 23.739-7.913 10.478-7.914 13.044-20.609l7.434-29.739q11.739-4.435 23.109-10.37 11.369-5.935 20.674-14.239l29.739 7.87q13.261 3.565 24.739-1 11.478-4.566 17.609-15.827l9.13-15.261q6.131-11.261 4.066-24.304-2.066-13.044-11.761-22.739l-20.739-19.739q.869-10.739 1.869-26.109 1-15.37-.869-26.109l20.304-19.304q9.696-9.696 11.761-22.457 2.065-12.76-4.065-24.021l-9.131-15.261q-6.13-11.261-18.391-16.609-12.261-5.348-24.522-1.783l-28.739 8.435q-9.305-8.304-21.174-14.739-11.87-6.435-23.609-10.87l-6.434-28.173q-2.566-12.696-13.544-21.392-10.978-8.696-24.239-8.696h-17.392q-13.261 0-24.239 8.413-10.978 8.414-13.544 21.109l-6.434 28.739q-11.739 4.435-23.609 10.87-11.869 6.435-21.174 14.739l-27.739-7.87q-13.261-3.565-25.239 1-11.978 4.566-18.109 16.827l-9.13 14.261q-6.131 12.261-4.066 25.304 2.066 13.044 11.761 22.739l20.739 18.739q-1.869 11.739-1.869 26.109 0 14.37 1.869 26.109l-21.304 20.304q-9.696 9.696-11.761 21.957-2.065 12.26 4.065 24.521l8.131 15.261q6.13 12.261 18.891 17.109 12.761 4.848 26.022 1.283l28.739-9.435q9.305 7.304 20.674 13.739 11.37 6.435 23.109 10.87ZM480-412.522q-28.304 0-47.891-19.587T412.522-480q0-28.304 19.587-47.891T480-547.478q28.304 0 47.891 19.587T547.478-480q0 28.304-19.587 47.891T480-412.522Zm-257.217 287.74q-41.305 0-69.653-28.348-28.348-28.348-28.348-69.653v-514.434q0-41.305 28.348-69.653 28.348-28.348 69.653-28.348h514.434q41.305 0 69.653 28.348 28.348 28.348 28.348 69.653v514.434q0 41.305-28.348 69.653-28.348 28.348-69.653 28.348H222.783Z"/></svg>