<svg xmlns="http://www.w3.org/2000/svg" height="20" viewBox="0 -960 960 960" width="20"><path d="M576.212-380q22.096 0 36.942-15.058Q628-410.117 628-432.212q0-22.096-14.996-36.942T576-484q-11.843 0-21.887 5.115-10.043 5.116-18.113 13.346l-149.769-74.206q.769-2.178 1.269-5.832.5-3.654.5-6.423t-.5-6.808q-.5-4.038-1.269-6.217l149-73.436q8.069 8.23 18.498 13.346Q564.157-620 576-620q22.008 0 37.004-15.058Q628-650.117 628-672.212q0-22.096-15.058-36.942Q597.883-724 575.788-724q-22.096 0-36.942 15.053Q524-693.893 524-671.805q0 2.574.5 6.228t1.269 6.602l-149 73.436q-8.069-8.23-18.498-13.346Q347.843-604 336-604q-22.008 0-37.004 15.058Q284-573.883 284-551.788q0 22.096 14.996 36.942T336-500q11.843 0 22.271-5.5 10.429-5.5 18.498-13.731l149 74.206q-.769 2.948-1.269 6.602-.5 3.654-.5 6.228 0 22.088 15.058 37.142Q554.117-380 576.212-380ZM243.077-280l-59.037 59.037q-13.271 13.271-30.656 6.173Q136-221.889 136-240.692v-526.693q0-24.315 16.15-40.465Q168.3-824 192.615-824h574.77q24.315 0 40.465 16.15Q824-791.7 824-767.385v430.77q0 24.315-16.15 40.465Q791.7-280 767.385-280H243.077ZM230-312h537.385q9.23 0 16.923-7.692Q792-327.385 792-336.615v-430.77q0-9.23-7.692-16.923Q776.615-792 767.385-792h-574.77q-9.23 0-16.923 7.692Q168-776.615 168-767.385v518.154L230-312Zm-62 0v-480 480Z"/></svg>