<svg xmlns="http://www.w3.org/2000/svg" height="20" viewBox="0 -960 960 960" width="20"><path d="M174.783-172.782q-41.005 0-69.503-28.51-28.498-28.51-28.498-69.531V-689.5q0-41.022 28.498-69.37 28.498-28.348 69.503-28.348h610.434q41.005 0 69.503 28.51 28.498 28.51 28.498 69.531V-270.5q0 41.022-28.498 69.37-28.498 28.348-69.503 28.348H174.783Zm228.435-98.001h381.999v-418.434H403.218v418.434Zm-98.001 0v-418.434H174.783v418.434h130.434Zm-130.434 0v-418.434 418.434Zm130.434 0h98.001-98.001Zm0-418.434h98.001-98.001Z"/></svg>