<svg xmlns="http://www.w3.org/2000/svg" height="24" viewBox="0 -960 960 960" width="24"><path d="M166.783-140.782q-44.305 0-75.153-30.848-30.848-30.848-30.848-75.153v-466.434q0-44.305 30.848-75.153 30.848-30.848 75.153-30.848h626.434q44.305 0 75.153 30.848 30.848 30.848 30.848 75.153v466.434q0 44.305-30.848 75.153-30.848 30.848-75.153 30.848H166.783Zm252.435-106.001h373.999v-466.434H419.218v466.434Zm-106.001 0v-466.434H166.783v466.434h146.434Zm-146.434 0v-466.434 466.434Zm146.434 0h106.001-106.001Zm0-466.434h106.001-106.001Z"/></svg>