<svg xmlns="http://www.w3.org/2000/svg" height="20" viewBox="0 -960 960 960" width="20"><path d="M480-184q-77.077 0-132.539-55.461Q292-294.923 292-372q0-74.022 50.115-127.242 50.116-53.22 121.885-58.935V-736h32v177.461q72.769 6.077 122.385 59.297Q668-446.022 668-372q0 77.077-54.961 132.539Q558.077-184 480-184Zm1-32q60.59 0 104.795-40.154T636.077-356H325.923q6.077 59.692 50.282 99.846T481-216ZM325.923-388h310.154q-5.077-59.692-49.583-99.846Q541.987-528 481-528t-105.494 40.154Q331-447.692 325.923-388Z"/></svg>