<svg xmlns="http://www.w3.org/2000/svg" height="20" viewBox="0 -960 960 960" width="20"><path d="m77.233-125.233 73.307-248.306q-16-35.615-25.269-74.236-9.27-38.621-9.27-80.225 0-75.85 28.42-141.699 28.42-65.85 78.21-115.65 49.791-49.8 116.087-78.225 66.296-28.425 141.673-28.425 75.378 0 141.246 28.42 65.869 28.42 115.682 78.21 49.814 49.791 78.247 115.853t28.433 141.173q0 75.112-28.425 141.48-28.425 66.369-78.225 116.182-49.8 49.814-115.65 78.247Q555.85-164.001 480-164.001q-41.604 0-80.225-9.27-38.621-9.269-74.236-25.269L77.233-125.233ZM454-394.001h51.998v-108h108v-51.998h-108v-108h-51.998v108h-108v51.998h108v108Z"/></svg>