<svg xmlns="http://www.w3.org/2000/svg" height="24" viewBox="0 -960 960 960" width="24"><path d="m9-9 92-314q-19-42-27.5-85.656Q65-452.313 65-498q0-89.886 34-168.943Q133-746 192-805q59-59 137.738-93T498-932q89.886 0 168.943 34Q746-864 805-805q59 59 93 138.083 34 79.084 34 169Q932-408 898-329.5T805-192q-59 59-138.057 93Q587.886-65 498-65q-45.687 0-89.344-8.5Q365-82 323-101L9-9Zm186-186 106-32q14-5 32.5-2.5t31.211 8.227Q396-206 429.542-198.5q33.541 7.5 68.041 7.5Q626-191 716-280.5T806-498q0-128-90-218t-218-90q-128 0-217.5 90T191-497.518q0 34.518 7.5 67.018T221-367q8 15 9.5 32t-3.5 34l-32 106Zm248-143h111v-105h104v-111H554v-104H443v104H338v111h105v105Zm56-161Z"/></svg>