<svg xmlns="http://www.w3.org/2000/svg" height="20" viewBox="0 -960 960 960" width="20"><path d="m124-172 61-204q-16-35-26.5-73.015Q148-487.031 148-528q0-69.21 25.891-129.22 25.892-60.01 71.348-105.49 45.457-45.48 105.893-71.385Q411.569-860 480.284-860q68.716 0 128.774 25.891 60.059 25.892 105.574 71.348 45.516 45.457 71.442 105.659Q812-596.899 812-528.45q0 68.45-25.905 129.008-25.905 60.559-71.385 106.075-45.48 45.515-105.49 71.441Q549.21-196 480-196q-40.969 0-78.985-10.5Q363-217 328-233l-204 61Zm31-31 174-51q2 0 0-1t0 1q11 5 51 21.5T480-216q130 0 221-91t91-221q0-130-91-221t-221-91q-130 0-221 91t-91 221q0 60 16 99.5t22 51.5h.5-.5l-51 174Zm315-207h20v-108h108v-20H490v-108h-20v108H362v20h108v108Zm4-112Z"/></svg>