<svg xmlns="http://www.w3.org/2000/svg" height="24" viewBox="0 -960 960 960" width="24"><path d="M216-446q30 0 52.5-13.5T291-500q0-27-22.5-41T216-555q-30 0-52 14.057t-22 41Q142-473 164-459.5q22 13.5 52 13.5ZM115-612q-5.727 0-9.864-4.194-4.136-4.193-4.136-10 0-5.806 4.136-9.806 4.137-4 9.864-4h86v-50q0-5.923 4.054-9.962 4.054-4.038 10-4.038t9.946 4.038q4 4.039 4 9.962v50h87q5.727 0 9.864 4.194 4.136 4.193 4.136 10 0 5.806-4.136 9.806-4.137 4-9.864 4H115Zm100.558 194Q174-418 144-439.411 114-460.822 114-500q0-39 29.974-61 29.973-22 72.026-22 42 0 72.5 22t30.5 61q0 39-30.5 60.5T215.558-418ZM205-275q-12.75 0-21.375-8.625T175-305v-69q0-5.923 4.211-9.962 4.21-4.038 10-4.038 5.789 0 9.789 4.038 4 4.039 4 9.962v71h210q5.727 0 9.864 4.194 4.136 4.193 4.136 10 0 5.806-4.136 9.806-4.137 4-9.864 4H205Zm208.946-104Q408-379 404-383.038q-4-4.039-4-9.962v-272q0-5 4.5-9t9.5-4q5 0 9 4t4 9v119h67q5.727 0 9.864 4.194 4.136 4.193 4.136 10 0 5.806-4.136 9.806-4.137 4-9.864 4h-66v125q0 5.923-4.054 9.962-4.054 4.038-10 4.038Zm259.288 87Q706-292 740.5-310q34.5-18 64.5-50.123V-502q-28.565 4.909-52.782 11.455Q728-484 702-476q-54 18-80 45.5T596-368q0 35.286 21.064 55.643T673.234-292Zm-.434 26q-46.8 0-75.8-28.5T568-369q0-44 32-76t96-54q17-6 44-12t65-14v-13q0-59-20.5-89.5T714-658q-25 0-49.5 7.5T616-628q-5 3-10.5 2.5T597-631q-3-5-.5-11t7.5-9q27-16 55-24.5t55-8.5q61 0 90 38.5T833-538v251q0 5.091-3.353 8.545-3.353 3.455-8.294 3.455h-1.765q-4.588 0-8.088-3-3.5-3-3.5-8l-3-43q-31 30-66 46.5T672.8-266Z"/></svg>