<svg xmlns="http://www.w3.org/2000/svg" height="20" viewBox="0 -960 960 960" width="20"><path d="M637.26-448.652v-68.043h98.002v68.043H637.26Zm0 67.478h-98.001v-67.478h98.001v67.478Zm0 67.478v-67.478h98.002v67.478H637.26Zm-198-271.042L334.782-689.217H174.783v418.434h364.476v-42.913h98.001v42.913h147.957v-313.955H637.26v68.043h-98.001v-68.043H439.26ZM174.783-172.782q-40.305 0-69.153-28.848-28.848-28.848-28.848-69.153v-418.434q0-41.005 28.848-69.503 28.848-28.498 69.153-28.498h159.641q19.575 0 37.315 6.978 17.739 6.978 32.696 21.935L480-682.74h305.217q41.005 0 69.503 28.499 28.498 28.498 28.498 69.503v313.955q0 40.305-28.498 69.153-28.498 28.848-69.503 28.848H174.783Zm0-98.001V-689.217v418.434Z"/></svg>