<svg xmlns="http://www.w3.org/2000/svg" height="20" viewBox="0 -960 960 960" width="20"><path d="M335.086-125.782q-59.261 2.305-114.435-6.608-55.174-8.914-65.782-24.609-16.392-13.566-24.174-66.478-7.783-52.913-4.913-111.609l209.304 209.304Zm125.48-13.261L138.043-461.131q11.565-68.565 42.782-130.37 31.218-61.804 77.479-108.065 46.261-46.261 101.065-73.196 54.804-26.934 141.761-48.761l320.393 321.524q-15.261 76.261-44.761 135.348-29.5 59.086-75.631 105.217-43.565 43.565-105.369 74.848-61.805 31.282-135.196 45.543ZM420.87-352.782 607.218-539.13l-68.088-68.088L352.782-420.87l68.088 68.088Zm413.914-272.697L626.61-834.218q65.826-1.87 116.456 7.109 50.63 8.978 62.065 23.108 14.131 11.739 23.609 66.631 9.478 54.891 6.044 111.891Z"/></svg>