<svg xmlns="http://www.w3.org/2000/svg" height="20" viewBox="0 -960 960 960" width="20"><path d="m735.283-374.739 56.021-56.022Q747.261-476 724.978-533.103q-22.282-57.103-22.282-116.663 0-59.56 22.402-116.821 22.402-57.261 66.446-103.5l-55.783-55.783q-57.478 58.435-84.978 129.652-27.5 71.218-27.5 146.294 0 75.076 27.38 145.913 27.38 70.837 84.62 129.272Zm105.347-104.87 56.261-56.261q-22.565-23.522-34.108-53.445-11.544-29.924-11.544-60.49 0-30.565 11.663-60.608 11.663-30.044 34.229-54.565L841.109-821q-34.522 35.478-51.902 80.283-17.381 44.805-17.381 91.152 0 46.085 17.261 90.162 17.261 44.077 51.543 79.794ZM384.837-440.37q-63.707 0-107.978-43.772-44.272-43.771-44.272-107.226 0-63.454 44.272-108.358 44.271-44.905 107.858-44.905t107.859 44.905q44.272 44.904 44.272 108.358 0 63.455-44.152 107.226-44.152 43.772-107.859 43.772ZM88.587-136.348v-105.369q0-27.587 15.272-49.261 15.271-21.674 36.271-34.674 55-33 117.794-50.359 62.793-17.359 126.793-17.359t126.794 17.12q62.793 17.119 117.793 50.119 20 13 35.772 34.913 15.772 21.914 15.772 49.501v105.369H88.587Zm83-83h426.261v-21.174q0-4.551-3-7.917-3-3.365-8-6.365-47-29-98.522-42.283-51.522-13.283-103.609-13.283-52.087 0-103.608 13.403-51.522 13.402-98.522 42.215-5 2.948-8 6.313-3 3.366-3 7.917v21.174ZM384.921-523.37q28.601 0 48.764-19.655 20.163-19.654 20.163-48.547 0-28.892-20.367-49.475-20.367-20.584-48.968-20.584-28.6 0-48.763 20.575-20.163 20.575-20.163 49.467 0 28.893 20.367 48.556 20.367 19.663 48.967 19.663Zm-.204-68.13Zm0 372.152Z"/></svg>