<svg xmlns="http://www.w3.org/2000/svg" height="24" viewBox="0 -960 960 960" width="24"><path d="m743.077-431.538 28.308-28.308q-41.539-41.539-64.423-94.577Q684.077-607.462 684.077-666t22.885-111.462q22.884-52.923 64.423-94.461l-28.308-28.769Q695.923-853.539 670-793.077 644.077-732.615 644.077-666T670-539.038q25.923 60.346 73.077 107.5ZM872-560.923l28.308-28.308Q884.846-604.692 876-624.385q-8.846-19.692-8.846-41.615 0-21.923 8.846-41.615 8.846-19.693 24.308-35.154L872-771.308Q850.692-750 838.923-722.846q-11.769 27.154-11.769 56.615 0 29.462 11.769 56.846Q850.692-582 872-560.923ZM388.462-480q-49.847 0-84.924-35.077-35.077-35.077-35.077-84.923 0-49.846 35.077-84.923Q338.615-720 388.462-720q49.846 0 84.923 35.077 35.077 35.077 35.077 84.923 0 49.846-35.077 84.923Q438.308-480 388.462-480ZM108.461-190.769v-65.846q0-27.616 13.923-47.77 13.924-20.153 39.308-32.077 48.693-23.692 108.077-39 59.385-15.307 118.693-15.307 59.307 0 118.692 15.307 59.385 15.308 108.077 39 25.385 11.924 39.308 32.077 13.923 20.154 13.923 47.77v65.846H108.461Z"/></svg>