<svg xmlns="http://www.w3.org/2000/svg" height="24" viewBox="0 -960 960 960" width="24"><path d="m746.538-420.77 42.153-42.153q-40.769-40.769-63.462-93.038-22.692-52.27-22.692-110.039t22.692-109.731q22.693-51.962 63.462-92.731l-42.153-43.383Q697.461-862.769 670-799.038T642.539-666q0 69.307 27.461 132.73 27.461 63.423 76.538 112.5ZM867-542.463l42.153-42.153q-16.231-16.23-25.654-37.077-9.423-20.846-9.423-44.307 0-23.461 9.423-44.307 9.423-20.847 25.654-37.077L867-790.152q-25.153 25.153-39.038 56.73-13.884 31.576-13.884 66.807 0 35.23 13.884 67.422 13.885 32.192 39.038 56.73Zm-472.77 82.462q-57.922 0-98.96-41.038-41.038-41.039-41.038-98.961t41.038-98.961q41.038-41.038 98.96-41.038 57.923 0 98.961 41.038 41.038 41.039 41.038 98.961t-41.038 98.961q-41.038 41.038-98.961 41.038ZM94.232-155.387v-88.922q0-30.307 15.461-54.884 15.462-24.576 43.154-38.038 49.846-24.846 111.538-41.5 61.692-16.653 129.845-16.653 68.154 0 129.846 16.653 61.692 16.654 111.538 41.5 27.692 13.462 43.153 38.038 15.462 24.577 15.462 54.884v88.922H94.232Z"/></svg>