<svg xmlns="http://www.w3.org/2000/svg" height="24" viewBox="0 -960 960 960" width="24"><path d="M480-189q50.17 0 90.585-23Q611-235 637-273q-20-17.733-40-37.367Q577-330 557-350q-8 24-29 39.5T480-295q-35 0-58.5-23.5T398-377q0-31 19-53.5t48-27.5q-17-23-31-46t-25-47q-52 21-84.5 67.5T292-377q0 78.333 54.833 133.167Q401.667-189 480-189ZM356-811h31q-8 26-11.5 53.541Q372-729.918 372-701q0 11 .5 21.5T375-658l-59 53H172v456h616v-111q32-28.105 64-58.553Q884-349 914-383v360H46v-708h222l88-80Zm42 434h82-82Zm322 71q134-114 201-212.637 67-98.638 67-182.704Q988-828 907.06-901.5q-80.941-73.5-187-73.5Q614-975 533-901.5t-81 200.159q0 84.066 67 182.704Q586-420 720-306Zm0-150q-103-98-130-157.5t-27-87.973Q563-781 613-823t107.5-42q57.5 0 107 41.988T877-701q0 28-27 87.5T720-456Zm-74-129 28-91-74-59h91l29-90 29 90h91l-74 59 28 91-74-56-74 56Zm74-76Z"/></svg>