<svg xmlns="http://www.w3.org/2000/svg" height="24" viewBox="0 -960 960 960" width="24"><path d="M480-295q-35 0-58.5-23.5T398-377q0-31 19-53.5t48-27.5q20.761 28.562 43.88 55.281Q532-376 557-350q-8 24-29 39.5T480-295ZM46-23v-708h222l88-80h31q-8 26-11.5 53.541Q372-729.918 372-701q0 38 10 76t27 74q-52 21-84.5 67.5T292-377q0 78.333 54.833 133.167Q401.667-189 480-189q50.17 0 90.585-23Q611-235 637-273q22 20 42.5 37.5T720-201q51.295-42.778 100.148-87.389Q869-333 914-383v360H46Zm674-283q134-114 201-212.637 67-98.638 67-182.704Q988-828 907.06-901.5q-80.941-73.5-187-73.5Q614-975 533-901.5t-81 200.159q0 84.066 67 182.704Q586-420 720-306Zm-74-279 28-91-74-59h91l29-90 29 90h91l-74 59 28 91-74-56-74 56Z"/></svg>