<svg xmlns="http://www.w3.org/2000/svg" height="20" viewBox="0 -960 960 960" width="20"><path d="M480-246.769q59.385 0 98.615-38.231 39.231-38.231 44.077-95.923-13.307-13.299-26.615-25.88-13.308-12.582-25.616-25.351 7 11 10.5 24t3.5 27q-.769 42.539-30.043 72.462-29.275 29.923-74.418 29.923-46.615 0-75.923-30.438t-29.308-75.408q0-44.534 28.154-74.19t73.231-30.426q18 0 33.5 5t27.5 15q-13.674-13.793-25.857-27.517-12.182-13.725-21.374-28.329-62.846-2.385-105 38.808Q342.769-445.077 342.769-384q0 57.692 38.769 97.462 38.77 39.769 98.462 39.769ZM376.923-728H423q1.077 1.769 2.115 3.516 1.039 1.746 1.039 4.484v12q0 6 1 12h-31.923l-72.769 96H168v432h624v-179.154q8-6.725 16-14.011t16-14.758V-136H136v-496h168.923l72-96Zm-2.154 343H480 374.769ZM726-406.461Q849.385-519 894.423-585.808q45.039-66.807 45.039-135.089 0-99.938-64.493-158.751-64.492-58.814-149-58.814T577.5-880.284Q513.538-822.106 513.538-720q0 67.397 44.539 134.198Q602.615-519 726-406.461Zm-.03-42.155Q607.692-557.385 576.615-615.652q-31.076-58.268-31.076-105.052 0-91.257 56.767-138.123 56.768-46.865 123.692-46.865 66.925 0 124.194 46.948 57.269 46.949 57.269 138.364 0 46.841-31.607 104.918-31.607 58.077-149.884 166.846Zm-49.355-197.461 19.616-62.308-52.154-42.23h61.5L726-810.923l20.423 60.308h61.5l-51.384 42.23 19.615 62.308L726-684.308l-49.385 38.231ZM727-677.154Z"/></svg>