<svg xmlns="http://www.w3.org/2000/svg" height="20" viewBox="0 -960 960 960" width="20"><path d="M480-185q60.17 0 102.085-33.5Q624-252 639-304q-25-23.733-50-47.867Q564-376 540-401q7 11 10.5 24t3.5 27q-2 27-22.5 47T480-283q-35 0-56.5-22.63T402-362q0-29.303 16.5-50.652Q435-434 464-438q18 0 33.5 5t27.5 15q-24.059-27.255-44.529-54.627Q460-500 445-529q-62 9-101.5 56T304-361q0 73.333 50.333 124.667Q404.667-185 480-185ZM356-779h44q-5 18-6.5 37.672Q392-721.656 392-701q0 17 .5 33.5T396-634h-20l-58 69H180v408h600v-119q30-26.001 60-54.169 30-28.169 58-59.831v351H62v-644h208l86-96Zm46 417h78-78Zm324 38q131-112 197-207.137 66-95.138 66-177.101 0-123.491-79.425-195.127Q830.149-975 726.075-975 622-975 543-904q-79 71-79 196.659 0 81.078 65.5 176.21Q595-436 726-324Zm-.03-139Q621-561 594-620.69q-27-59.691-27-88.256 0-79.784 50.414-121.919Q667.828-873 726.414-873T835.5-830.794Q886-788.588 886-708.149 886-680 858.47-620.5 830.939-561 725.97-463ZM662-608l25-80-66-53h79l26-78 26 78h79l-66 53 25 80-64-49-64 49Zm65-60Z"/></svg>