<svg xmlns="http://www.w3.org/2000/svg" height="24" viewBox="0 -960 960 960" width="24"><path d="M480-250.769q49.385 0 87.115-27.731 37.731-27.731 53.577-71.423-8.307-7.299-16.615-15.38-8.308-8.082-16.616-15.851-6.769 39.539-36.543 64.962-29.775 25.423-70.918 25.423-46.615 0-77.923-31.308t-31.308-77.538q0-46.231 30.654-77.039 30.654-30.807 75.731-32.577-6.616-9.538-12.327-18.89-5.712-9.352-10.904-18.956-52.846 9.615-88 50.308-35.154 40.692-35.154 96.769 0 62.692 43.269 105.962 43.27 43.269 105.962 43.269ZM376.923-760H410q-1.923 9.769-2.885 19.385-.961 9.615-.961 20.615h-11.923l-73.769 80H160v480h640v-171.154q10-8.829 20-18.394 10-9.565 20-19.375V-120H120v-560h182.923l74-80Zm-6.154 360H480 370.769ZM720-388.461Q846.385-503 892.423-573.308 938.462-643.615 938.462-714q0-103.106-66.008-163.784-66.007-60.678-152.5-60.678T567.5-877.784Q501.538-817.106 501.538-714q0 70.385 46.039 140.692Q593.615-503 720-388.461Zm0-53.155Q603.692-550.385 572.615-608.462q-31.076-58.077-31.076-104.769 0-91 56.353-137.73 56.354-46.731 122.192-46.731 65.839 0 122.108 46.731 56.269 46.73 56.269 137.73 0 46.692-31.076 104.769Q836.308-550.385 720-441.616Zm-59.385-181.461 22.616-73.308-60.154-48.23h73.5L720-816.923l23.423 72.308h73.5l-59.384 48.23 22.615 73.308L720-668.308l-59.385 45.231ZM720-670.154Z"/></svg>