<svg xmlns="http://www.w3.org/2000/svg" height="20" viewBox="0 -960 960 960" width="20"><path d="M480-278.769q-46.615 0-75.923-29.308T374.769-383q0-44.615 29.308-75.038 29.308-30.423 75.154-31.193 18.231 0 34.231 6t27.23 17q5.539 8.077 11.731 14.269 6.192 6.193 14.038 14.27 8 12 13 26.5t5 30.5q-1.538 44.846-30.076 73.384-28.539 28.539-74.385 28.539ZM136-136v-496h168.923l72-96H423q1.077 1.769 2.115 3.385 1.039 1.615 1.039 4.615 0 53.231 17.961 101.769 17.962 48.539 48.116 93.923-62.847-2.384-106.154 38.808-43.308 41.192-43.308 101.5 0 57.692 38.769 97.462 38.77 39.769 98.462 39.769 59.385 0 99-38.231t43.692-95.923q26.385 25.385 52.654 48.269 26.269 22.885 50.654 45.039 23.462-22.308 48.846-44.193 25.385-21.884 49.154-44.115V-136H136Zm590-270.461Q849.385-519 894.423-585.808 939.462-652.615 939.462-721q0-100-64.462-158.731-64.461-58.731-149-58.731t-148.5 58.231Q513.538-822 513.538-720q0 67.385 44.539 134.192Q602.615-519 726-406.461Zm-49.385-239.616 19.616-62.308-52.154-42.23h61.308L726-810.923l20.615 60.308h61.308l-51.384 42.23 19.615 62.308L726-684.308l-49.385 38.231Z"/></svg>