<svg xmlns="http://www.w3.org/2000/svg" height="20" viewBox="0 -960 960 960" width="20"><path d="M480-286.804q-40.326 0-66.011-25.685-25.685-25.685-25.685-65.011 0-37.369 24.609-64.315 24.609-26.946 63.5-28.141 18.761 0 34.761 6 16 6 27.761 17 3.703 4.417 6.873 7.371 3.17 2.955 6.931 7.716 8 12 13 26.5t5 30.5q-.717 38.13-26.043 63.097Q519.37-286.804 480-286.804ZM87.87-82.369V-674.63h195.826l75.347-96H417.5q-2.718 12.673-3.457 26.477-.739 13.803-.739 28.697 0 44 14.5 86.478 14.5 42.478 38.5 82.717-67.087 4.674-111.652 52.696T310.087-378.5q0 70.797 48.558 120.355Q407.203-208.587 480-208.587q63.084 0 107.346-37.685 44.263-37.684 56.219-95.771 21.478 20.239 42.218 37.858 20.739 17.62 40.217 34.098 37.223-31.86 74.34-65.299 37.117-33.44 71.791-69.07v322.087H87.869ZM726-365.087q121.109-103.63 181.402-190.674 60.294-87.044 60.294-162.212 0-113.266-73.019-179.44-73.018-66.174-168.663-66.174-95.644 0-168.177 65.674-72.533 65.674-72.533 180.94 0 74.168 59.794 161.212Q604.891-468.717 726-365.087Zm-64-254.326 25-80-66-53h79l26-78 26 78h79l-66 53 25 80-64-49-64 49Z"/></svg>