<svg xmlns="http://www.w3.org/2000/svg" height="24" viewBox="0 -960 960 960" width="24"><path d="M184.615-240q-26.846 0-45.731-18.884Q120-277.769 120-304.615v-211.616q0-12.154 4.461-23.961 4.462-11.808 13.154-20.5l110.923-115.539q8.693-9.461 21.27-14.692 12.576-5.231 25.5-5.231H320V-740q0-8.539 5.731-14.269Q331.461-760 340-760q8.538 0 14.269 5.731Q360-748.539 360-740v43.846h304.692q12.924 0 25.501 5.231 12.576 5.231 21.269 14.692l110.923 115.539q8.692 8.692 13.154 20.5Q840-528.385 840-516.231v211.616q0 26.846-18.884 45.731Q802.231-240 775.385-240h-590.77ZM600-280h175.385q10.769 0 17.692-6.923T800-304.615v-220.847l-99.231-104.615L600-523.923V-280Zm-40 0v-208.461H160v183.846q0 10.769 6.923 17.692T184.615-280H560Z"/></svg>