<svg xmlns="http://www.w3.org/2000/svg" height="24" viewBox="0 -960 960 960" width="24"><path d="M782.999-140.001q-116.538 0-232.114-51.885-115.577-51.884-211.346-147.653-95.384-95.769-147.461-211.423-52.077-115.653-52.077-232.037v-37h206.768l35.461 182.153-110.923 107.692q24.693 43.231 52.847 80.346 28.153 37.116 59.538 67.885 30.539 31.308 67.924 59.154Q489-294.922 534.77-269.23L645-381.384l174.999 35.615v205.768h-37ZM242.923-586.922l74.847-71.385L297.693-760h-97.078q3.077 45.385 13.654 88.346 10.577 42.962 28.654 84.732Zm347.999 345.691q38.462 17.77 82.039 27.962T760-201.231v-96.077l-94.769-19-74.309 75.077ZM242.923-586.922Zm347.999 345.691ZM660-511.384q-14.692 0-25.038-10.346t-10.346-25.038q0-14.692 10.346-25.038T660-582.152q14.692 0 25.038 10.346t10.346 25.038q0 14.692-10.346 25.038T660-511.384ZM560-613.23l-32.769-33.538q27.847-25.538 61.846-39.692 34-14.154 70.923-14.154t70.923 14.154q33.999 14.154 61.846 39.692L760-613.23q-20.769-18.846-46.269-29.269-25.5-10.423-53.731-10.423t-53.731 10.423q-25.5 10.423-46.269 29.269Zm-84-86-33.538-33.538q43.846-42.308 100.038-65.077 56.193-22.769 117.5-22.769t117.5 22.769q56.192 22.769 100.038 65.077L844-699.23q-37.385-35.846-84.885-54.769-47.5-18.923-99.115-18.923-51.615 0-98.808 19.23Q514-734.461 476-699.23Z"/></svg>