<svg xmlns="http://www.w3.org/2000/svg" height="20" viewBox="0 -960 960 960" width="20"><path d="M767.043-135.869q-110 0-223.554-51.957Q429.935-239.782 334.5-334.739q-95.435-95.196-147.033-208.033-51.598-112.837-51.598-225.032v-57.327h239.175l41.587 181.001-123.696 120.152q21.804 36.608 46.989 69.576 25.185 32.967 53.439 60.755 26.354 26.582 57.083 50.527 30.728 23.946 68.38 47.272L644.804-417.87l179.327 39.109v242.892h-57.088ZM254.435-600.826l71.761-70.848-17.003-70.456h-89.845q3.522 36.326 12.043 72.152 8.522 35.826 23.044 69.152ZM600.391-259.63q28.087 13.282 65.152 24.043 37.066 10.761 75.587 16.239v-92.804l-70.217-15.522-70.522 68.044ZM254.435-600.826ZM600.391-259.63Zm61.24-273.914q-21.118 0-35.516-14.397-14.397-14.398-14.397-35.516 0-21.117 14.397-35.515 14.398-14.398 35.516-14.398 21.117 0 35.395 14.398 14.279 14.398 14.279 35.515 0 21.118-14.279 35.516-14.278 14.397-35.395 14.397Zm-101-101.282L524-671.457q26.479-26.478 62.076-42.076 35.598-15.598 76.555-15.598 40.956 0 75.935 15.098 34.978 15.098 61.456 41.576l-36.391 36.631q-20-20-45.968-30.859-25.968-10.859-55.5-10.859t-55.391 11.359q-25.86 11.359-46.141 31.359Zm-68-67L456-738.457q39.718-39.717 92.696-63.195 52.978-23.479 113.935-23.479 60.956 0 113.315 22.979 52.359 22.978 92.076 62.695l-36.391 36.631q-32-32-75.381-51.359-43.38-19.359-93.619-19.359-50 0-94 19.359t-76 52.359Z"/></svg>