<svg xmlns="http://www.w3.org/2000/svg" height="20" viewBox="0 -960 960 960" width="20"><path d="M642.348-194.826h59.304v-79.043h-59.304v79.043Zm28.748-126.478q12.923 0 21.74-8.195 8.816-8.196 8.816-20.957 0-13.326-8.895-21.739-8.896-8.414-20.757-8.414-13.826 0-21.739 8.896t-7.913 20.757q0 13.261 7.913 21.457 7.913 8.195 20.835 8.195ZM671.774-96Q592-96 536-152.226t-56-136Q480-368 536.226-424t136-56Q752-480 808-423.774t56 136Q864-208 807.774-152t-136 56ZM473.217-617.217h168l-168-168 168 168-168-168v168ZM124.782-76.782v-806.436h411.131l203.305 203.305v138.696q-15.706-5.392-32.544-8.087Q689.837-552 673-552q-59.553 0-110.385 23.522-50.832 23.521-87.267 65.695H288v80.479h137.435q-5.87 14.739-9.644 30.733t-5.661 32.788H288v80.479h124q9.13 49.913 35.348 90.935 26.218 41.022 67.392 70.587H124.782Z"/></svg>