<svg xmlns="http://www.w3.org/2000/svg" height="24" viewBox="0 -960 960 960" width="24"><path d="M648.461-180.001h35.384V-320h-35.384v139.999Zm17.692-176.537q7.231.384 12.461-5.039 5.231-5.423 5.231-12.653 0-7.231-5.423-12.462-5.423-5.23-12.269-5.23-7.231 0-12.462 5.23-5.23 5.231-5.23 12.462 0 6.846 5.23 12.269 5.231 5.423 12.462 5.423ZM200-800v247.308-1.154V-160v-640 179.999V-800Zm90.001 389.999h139.307q8.692-17.23 19.538-32.037 10.846-14.808 23.845-27.961h-182.69v59.998Zm0 160h111.076Q398.846-265 398.654-280q-.193-15 1.653-29.999H290.001v59.998Zm-150 150v-759.998h390l209.998 209.998v106.617q-14.385-4.462-29.192-6.692Q696-552.307 680-552.692v-67.309H500.001V-800H200v640h230.462q8.692 17.23 19.73 32.038 11.038 14.807 24.423 27.961H140.001Zm526.152-366.152q74.922 0 127.46 52.538t52.538 127.461q0 74.922-52.538 127.46t-127.46 52.538q-74.923 0-127.461-52.538t-52.538-127.46q0-74.923 52.538-127.461t127.461-52.538Z"/></svg>