<svg xmlns="http://www.w3.org/2000/svg" height="24" viewBox="0 -960 960 960" width="24"><path d="M636.923-200h30.77v-120h-30.77v120Zm15.385-153.077q6.461.769 10.923-4.077t4.462-11.308q0-6.461-4.682-10.923-4.681-4.461-10.923-4.461t-10.703 4.516q-4.462 4.517-4.462 10.539 0 6.022 4.616 10.868 4.615 4.846 10.769 4.846Zm0 220.77q-66.846 0-113.423-46.577t-46.577-113.424q0-66.846 46.577-113.423t113.423-46.577q66.846 0 113.423 46.577t46.577 113.423q0 66.847-46.577 113.424-46.577 46.577-113.423 46.577ZM520-640h160L520-800l160 160-160-160v160ZM160-120v-720h380l180 180v121.231q-16.923-5.231-33.461-7.077-16.539-1.846-34.231-1.846-57.769 0-107.5 23.423T460.154-460H300v40h131.615q-15.153 26.692-24.23 57.077-9.077 30.384-9.77 62.923H300v40h98.982q5.633 38.846 22.018 74.577T464.231-120H160Z"/></svg>