<svg xmlns="http://www.w3.org/2000/svg" height="24" viewBox="0 -960 960 960" width="24"><path d="M155.478-213.999q-44.305 0-75.153-30.848Q49.477-275.695 49.477-320v-320q0-44.305 30.848-75.153 30.848-30.848 75.153-30.848h649.044q44.305 0 75.153 30.848 30.848 30.848 30.848 75.153v320q0 44.305-30.848 75.153-30.848 30.848-75.153 30.848H155.478Zm120-226.001v40q0 17 11.5 28.5t28.5 11.5q17 0 28.5-11.5t11.5-28.5v-40h40q17 0 28.5-11.5t11.5-28.5q0-17-11.5-28.5t-28.5-11.5h-40v-40q0-17-11.5-28.5t-28.5-11.5q-17 0-28.5 11.5t-11.5 28.5v40h-40q-17 0-28.5 11.5t-11.5 28.5q0 17 11.5 28.5t28.5 11.5h40Zm309.044 80q25 0 42.5-17.5t17.5-42.5q0-25-17.5-42.5t-42.5-17.5q-25 0-42.5 17.5t-17.5 42.5q0 25 17.5 42.5t42.5 17.5Zm120-120q25 0 42.5-17.5t17.5-42.5q0-25-17.5-42.5t-42.5-17.5q-25 0-42.5 17.5t-17.5 42.5q0 25 17.5 42.5t42.5 17.5Z"/></svg>