<svg xmlns="http://www.w3.org/2000/svg" height="20" viewBox="0 -960 960 960" width="20"><path d="M200-292q-22.7 0-37.35-15Q148-322 148-344.332v-271.336Q148-638 162.65-653T200-668h560q22.7 0 37.35 15Q812-638 812-615.668v271.336Q812-322 797.35-307T760-292H200Zm0-20h560q12 0 22-10t10-22v-272q0-12-10-22t-22-10H200q-12 0-22 10t-10 22v272q0 12 10 22t22 10Zm116-158v74q0 4.25 2.825 7.125 2.824 2.875 7 2.875 4.175 0 7.175-2.875t3-7.125v-74h74q4.25 0 7.125-2.825 2.875-2.824 2.875-7 0-4.175-2.875-7.175T410-490h-74v-74q0-4.25-2.825-7.125-2.824-2.875-7-2.875-4.175 0-7.175 2.875T316-564v74h-74q-4.25 0-7.125 2.825-2.875 2.824-2.875 7 0 4.175 2.875 7.175t7.125 3h74Zm259.882 72Q590-398 600-407.882q10-9.883 10-24Q610-446 600.118-456q-9.883-10-24-10Q562-466 552-456.118q-10 9.883-10 24Q542-418 551.882-408q9.883 10 24 10Zm120-96Q710-494 720-503.882q10-9.883 10-24Q730-542 720.118-552q-9.883-10-24-10Q682-562 672-552.118q-10 9.883-10 24Q662-514 671.882-504q9.883 10 24 10ZM168-312v-336 336Z"/></svg>