<svg xmlns="http://www.w3.org/2000/svg" height="24" viewBox="0 -960 960 960" width="24"><path d="M184.615-280Q157-280 138.5-298.5 120-317 120-344.87v-270.26q0-27.87 18.5-46.37Q157-680 184.615-680h590.77Q803-680 821.5-661.5 840-643 840-615.13v270.26q0 27.87-18.5 46.37Q803-280 775.385-280h-590.77ZM300-460v60q0 8.5 5.758 14.25 5.757 5.75 14.269 5.75t14.242-5.75Q340-391.5 340-400v-60h60q8.5 0 14.25-5.758 5.75-5.757 5.75-14.269t-5.75-14.242Q408.5-500 400-500h-60v-60q0-8.5-5.758-14.25-5.757-5.75-14.269-5.75t-14.242 5.75Q300-568.5 300-560v60h-60q-8.5 0-14.25 5.758-5.75 5.757-5.75 14.269t5.75 14.242Q231.5-460 240-460h60Zm279.909 80q16.63 0 28.36-11.64Q620-403.28 620-419.91q0-16.629-11.64-28.359Q596.719-460 580.091-460q-16.63 0-28.36 11.64Q540-436.72 540-420.09q0 16.629 11.64 28.359Q563.281-380 579.909-380Zm120-120q16.63 0 28.36-11.64Q740-523.281 740-539.909q0-16.63-11.64-28.36Q716.719-580 700.091-580q-16.63 0-28.36 11.64Q660-556.719 660-540.091q0 16.63 11.64 28.36Q683.281-500 699.909-500Z"/></svg>