<svg xmlns="http://www.w3.org/2000/svg" height="20" viewBox="0 -960 960 960" width="20"><path d="M480-87.87q-104.523 0-190.794-48.239-86.271-48.239-138.467-129.956l156.478-156.239 109 109L594.5-491.587v112.37h75.587v-243.587H426.5v75.587h117.369L416.217-420.565l-109-109-192.391 193.391q-13.717-32.956-20.337-69.274-6.62-36.318-6.62-74.449 0-81.696 30.826-153.208t83.671-124.411q52.845-52.899 124.283-83.757 71.438-30.858 153.189-30.858 81.751 0 153.402 30.829 71.651 30.828 124.653 83.677 53.002 52.848 83.62 124.472 30.618 71.625 30.618 153.345 0 81.721-30.858 153.159-30.858 71.438-83.757 124.283t-124.411 83.671Q561.593-87.869 480-87.869Z"/></svg>