<svg xmlns="http://www.w3.org/2000/svg" height="24" viewBox="0 -960 960 960" width="24"><path d="M480-46q-72.635 0-140.317-23Q272-92 217-137l90-90q39 27 83.147 41 44.146 14 90.212 14Q608-172 698-261.991q90-89.991 90-218Q788-608 698.009-698t-218-90Q352-788 262-698.006 172-608.013 172-480H46q0-90 34-169t93-138q59-59 138.083-93 79.084-34 169-34Q570-914 648.78-879.936q78.779 34.064 138 93Q846-728 880-649.14q34 78.859 34 169.14 0 90-34.064 169.012t-93 138Q728-114 649.14-80 570.281-46 480-46ZM138-215l163.576-163L422-278l195-195v93h95v-255H457v95h93L418-408 298-508 87-297q13 26 23.5 43t27.5 39Zm342-265Z"/></svg>