<svg xmlns="http://www.w3.org/2000/svg" height="20" viewBox="0 -960 960 960" width="20"><path d="M480-87.87q-81.587 0-152.565-30.597Q256.456-149.065 203.5-203.5l58.652-58.652q41.283 42.522 97.34 66.902 56.056 24.38 120.594 24.38 128.393 0 218.719-90.39 90.325-90.391 90.325-218.967 0-128.577-90.39-218.74-90.391-90.163-218.967-90.163-128.577 0-218.74 90.324Q170.87-608.482 170.87-480h-83q0-81.674 30.597-152.609 30.598-70.935 84.294-124.63 53.695-53.696 125.109-84.294 71.413-30.598 152.608-30.598 81.196 0 152.224 30.854 71.029 30.853 124.423 84.233 53.394 53.381 84.2 124.502Q872.131-561.421 872.131-480q0 80.633-30.854 152.151-30.853 71.517-84.233 124.911-53.381 53.393-124.502 84.231Q561.421-87.869 480-87.869ZM151.978-267.303l155.138-155 109.101 109L594.5-491.587v112.37h75.587v-243.587H426.5v75.587h117.369L416.217-420.565l-109-109L98.826-321.174q13.478 13.718 26.456 26.815 12.979 13.098 26.696 27.055ZM480-480Z"/></svg>