<svg xmlns="http://www.w3.org/2000/svg" height="20" viewBox="0 -960 960 960" width="20"><path d="M480-136q-99.154 0-180.308-49.923T174.461-318.384l136.001-136.77 109 109 193.615-193.615v144.231h32v-201.539H443.538v32h147.693L422.538-395.846l-109-109-152.307 152.538q-13-29.692-19.116-61.903Q136-446.423 136-480q0-71.38 27.047-134.16 27.048-62.78 73.416-109.22 46.367-46.44 109.049-73.53Q408.194-824 479.704-824q71.511 0 134.467 27.05 62.956 27.05 109.527 73.421 46.57 46.372 73.436 109.24Q824-551.421 824-479.941q0 71.48-27.09 134.223-27.09 62.744-73.53 109.157t-109.22 73.487Q551.38-136 480-136Z"/></svg>