<svg xmlns="http://www.w3.org/2000/svg" height="20" viewBox="0 -960 960 960" width="20"><path d="M168-449.846V-264v-432 246.154Zm395.329 290.46q17.518 0 29.941-12.212 12.424-12.213 12.424-29.732 0-17.518-12.213-29.941-12.213-12.423-29.731-12.423-17.519 0-29.942 12.212-12.423 12.213-12.423 29.731 0 17.519 12.213 29.942 12.212 12.423 29.731 12.423Zm228.46-324.613q17.519 0 29.942-12.212 12.423-12.213 12.423-29.731 0-17.519-12.212-29.942-12.213-12.423-29.731-12.423-17.519 0-29.942 12.213-12.423 12.212-12.423 29.731 0 17.518 12.212 29.941 12.213 12.423 29.731 12.423Zm-541.788-54.002h209.385v-51.998H250.001v51.998Zm0 168h209.385v-51.998H250.001v51.998Zm-134 158v-535.998h727.998v64.308H792V-696H168v432h229.386v51.999H116.001Zm447.538 104.614q-39.23 0-66.691-27.439-27.462-27.44-27.462-66.639 0-32.383 19.039-57.305 19.038-24.923 49.115-33.231v-85.845h228.461v-57.846q-30.077-8.308-49.115-33.151-19.039-24.843-19.039-57.277 0-39.263 27.461-66.724Q752.77-620.306 792-620.306q39.23 0 66.692 27.44 27.461 27.439 27.461 66.638 0 32.383-19.039 57.306-19.038 24.922-49.115 33.23v109.845h-228.46v33.846q30.076 8.308 49.115 33.151 19.038 24.844 19.038 57.277 0 39.263-27.461 66.725-27.461 27.461-66.692 27.461Z"/></svg>