<svg xmlns="http://www.w3.org/2000/svg" height="20" viewBox="0 -960 960 960" width="20"><path d="M260-548h214.769v-32H260v32ZM136-232v-496h689.308v68.384q-9.308-1.615-17.107-3.307-7.8-1.693-15.8-1.693-64.632 0-108.67 44.189-44.039 44.188-44.039 108.119 0 18.733 4.231 35.763 4.231 17.03 11.923 32.853H487.077V-412H260v32h227.077v32.923q-28.923 20.693-44.616 49.962-15.692 29.269-15.692 65.115H136Zm438.866 57.231q19.826 0 34.172-14.136 14.346-14.135 14.346-33.961t-14.135-34.172q-14.136-14.346-33.962-14.346-19.826 0-34.172 14.135-14.346 14.136-14.346 33.962 0 19.826 14.136 34.172 14.135 14.346 33.961 14.346ZM791.789-464q19.826 0 34.172-14.136 14.347-14.135 14.347-33.961t-14.136-34.172q-14.136-14.346-33.961-14.346-19.826 0-34.172 14.135-14.347 14.136-14.347 33.962 0 19.825 14.136 34.172Q771.964-464 791.789-464ZM575.077-142.769q-33.462 0-56.885-23.401-23.423-23.401-23.423-56.831 0-29.691 18.077-51.537T559.077-302v-69.692H776v-61.693q-28.154-5.615-46.231-27.382-18.077-21.767-18.077-51.508 0-33.494 23.423-56.918 23.423-23.423 56.885-23.423t56.885 23.401q23.423 23.402 23.423 56.832 0 29.691-18.077 51.537T808-433.385v93.693H591.077V-302q28.154 5.616 46.231 27.382 18.077 21.767 18.077 51.508 0 33.495-23.423 56.918-23.424 23.423-56.885 23.423Z"/></svg>