<svg xmlns="http://www.w3.org/2000/svg" height="24" viewBox="0 -960 960 960" width="24"><path d="M243.391-518.87H462.61v-94.696H243.391v94.696ZM60.781-140.782v-678.436H896.35v82.697q-18.696-8-39.044-12.348-20.348-4.348-42.043-4.348-86.392 0-146.87 60.478-60.479 60.479-60.479 146.87 0 19.994 3.435 38.171t9.739 35.046H462.61v31.522H243.391v94.696H462.61v38.304q-38.565 29.826-59.283 73.305-20.717 43.478-20.717 94.043H60.782Zm529.177 28.695q13.877 0 23.264-9.387 9.388-9.387 9.388-23.264 0-13.877-9.388-23.265-9.387-9.387-23.264-9.387-13.877 0-23.264 9.387-9.388 9.388-9.388 23.265t9.388 23.264q9.387 9.387 23.264 9.387Zm225.304-401.13q13.877 0 23.264-9.387 9.387-9.388 9.387-23.265t-9.387-23.264q-9.387-9.388-23.264-9.388-13.877 0-23.265 9.388-9.387 9.387-9.387 23.264 0 13.877 9.387 23.265 9.388 9.387 23.265 9.387ZM589.958-17.39q-53.062 0-90.205-37.143-37.143-37.144-37.143-90.205 0-40.696 22.5-72.544t57.5-45.544v-129.826h225.303v-35.13q-35-13.695-57.5-45.543t-22.5-72.544q0-53.062 37.144-90.205 37.143-37.143 90.205-37.143 53.061 0 90.205 37.143 37.143 37.143 37.143 90.205 0 40.696-22.5 72.544t-57.5 45.543v129.827H637.306v35.129q35 13.696 57.5 45.544t22.5 72.544q0 53.061-37.143 90.205Q643.02-17.39 589.958-17.39Z"/></svg>