<svg xmlns="http://www.w3.org/2000/svg" height="20" viewBox="0 -960 960 960" width="20"><path d="M216-48q-50 0-85-35t-35-85q0-50 35-85t85-35q25.948 0 49.974 11.5Q290-265 308-244q60-29 97.892-82.069Q443.783-379.138 453-444H329.912Q318-406 286.38-383q-31.62 23-70.38 23-50 0-85-35t-35-85q0-50 35-85t85-35q39 0 70.419 23.1Q317.838-553.8 330-516h123q-9-65-47-118t-98-82q-18 21-42.026 32.5Q241.948-672 216-672q-50 0-85-35t-35-85q0-50 35-85t85-35q53 0 87.5 37.5T335-783q80 38 130.407 108.608Q515.813-603.783 526.275-516H726l-57-57 51-51 144 144-144 144-51-51 57-57H526q-9 88-59.5 158.5T335-177q4 54-30.5 91.5T216-48Z"/></svg>