<svg xmlns="http://www.w3.org/2000/svg" height="24" viewBox="0 -960 960 960" width="24"><path d="M194.913-31.521q-53.957 0-91.501-37.261Q65.869-106.043 65.869-160t37.543-91.218q37.544-37.261 91.501-37.261 27 0 52.282 11.37 25.283 11.369 43.414 31.804 52.782-29.739 86.108-78.369 33.326-48.63 43.456-107.847H313.13q-14.826 36-46.956 58-32.131 22-71.261 22-53.957 0-91.501-37.261Q65.869-426.043 65.869-480t37.543-91.218q37.544-37.261 91.501-37.261 39.13 0 71.261 22 32.13 22 46.956 58h107.043q-10.13-59.217-43.456-107.847-33.326-48.63-86.108-78.369-18.131 20.435-43.414 31.804-25.282 11.37-52.282 11.37-53.957 0-91.501-37.261Q65.869-746.043 65.869-800t37.543-91.218q37.544-37.261 91.501-37.261 52.261 0 88.239 34.566 35.978 34.565 40.239 86.826 79.87 43.13 132.587 116 52.718 72.869 64.848 162.608h187.956l-64-64 68.435-68.435L894.131-480 713.217-299.086l-68.435-68.435 64-64H520.826q-12.13 90.869-64.413 163.673-52.283 72.805-133.022 114.935-4.261 52.261-40.239 86.827-35.978 34.565-88.239 34.565Z"/></svg>