<svg xmlns="http://www.w3.org/2000/svg" height="24" viewBox="0 -960 960 960" width="24"><path d="M197.848-36.413q-51.674 0-87.75-35.957Q74.022-108.326 74.022-160q0-51.674 36.076-87.63 36.076-35.957 87.75-35.957 27 0 52.119 12.022 25.12 12.021 42.598 32.782 56.37-31.043 91.815-82.771 35.446-51.729 44.924-114.859H312.478q-13.195 36-44.674 58-31.478 22-69.956 22-51.674 0-87.75-35.957Q74.022-428.326 74.022-480q0-51.674 36.076-87.63 36.076-35.957 87.75-35.957 38.478 0 69.956 22 31.479 22 44.674 58h116.826q-9.478-63.13-44.924-114.859-35.445-51.728-91.815-82.771-17.478 20.761-42.598 32.782-25.119 12.022-52.119 12.022-51.674 0-87.75-35.957Q74.022-748.326 74.022-800q0-51.674 36.076-87.63 36.076-35.957 87.75-35.957 50.956 0 85.793 34.239t37.794 85.196q80.522 42.478 133.402 116 52.88 73.522 64.359 164.565h200.673l-64-64 61.261-61.261L885.978-480 717.13-311.152l-61.261-61.261 64-64H519.196q-11.479 91.522-63.598 165.304-52.12 73.783-134.163 115.261-2.957 50.957-37.794 85.196-34.837 34.239-85.793 34.239Z"/></svg>