<svg xmlns="http://www.w3.org/2000/svg" height="20" viewBox="0 -960 960 960" width="20"><path d="M137.782-76.782q-25.487 0-43.244-17.756-17.756-17.757-17.756-43.244v-300.436q0-25.487 17.756-43.244 17.757-17.756 43.244-17.756h83V-624q0-108.008 75.605-183.613T480-883.218h144q108.008 0 183.613 75.605T883.218-624v498.218q0 20.387-14.246 34.694-14.246 14.306-34.544 14.306-20.298 0-34.754-14.306-14.457-14.307-14.457-34.694v-47H643.218v35q0 25.487-17.756 43.244-17.757 17.756-43.244 17.756H137.782ZM360-298.174l-138.217-77.043q-15.667-9-31.333.265-15.667 9.264-15.667 27.264 0 8.471 3.717 15.471 3.718 7 12.283 12l144.999 80.087q10.89 6.695 24.2 6.695 13.309 0 24.236-6.695l144.999-80.087q8-5 12-12.174 4-7.174 4-14.826 0-18.308-15.667-27.654-15.666-9.346-31.333-.346L360-298.174Zm283.218 27.391h141.999V-624q0-67.739-46.739-114.478Q691.739-785.217 624-785.217H480q-67.739 0-114.478 46.739Q318.783-691.739 318.783-624v124.782h263.435q25.487 0 43.244 17.756 17.756 17.757 17.756 43.244v167.435ZM468-553.696q-15.3 0-25.65-10.289-10.35-10.29-10.35-25.5 0-15.211 10.35-25.711 10.35-10.5 25.65-10.5h168q15.3 0 25.65 10.29 10.35 10.289 10.35 25.5 0 15.21-10.35 25.71t-25.65 10.5H468Z"/></svg>