<svg xmlns="http://www.w3.org/2000/svg" height="20" viewBox="0 -960 960 960" width="20"><path d="M133-62q-29.4 0-50.2-20.8Q62-103.6 62-133v-310q0-29.4 20.8-50.2Q103.6-514 133-514h73v-110q0-114.167 79.917-194.083Q365.833-898 480-898h144q114.167 0 194.083 79.917Q898-738.167 898-624v503q0 24.3-17.289 41.65Q863.421-62 839.211-62 815-62 797.5-79.35T780-121v-37H658v25q0 29.4-20.8 50.2Q616.4-62 587-62H133Zm227-234-133-74q-15.667-9-31.333.265Q180-360.471 180-342.471 180-334 183.5-327t12.5 12l135 74q13.035 8 28.968 8 15.932 0 29.032-8l135-74q8-5 12-12.174 4-7.174 4-14.826 0-18.308-15.667-27.654Q508.667-379 493-370l-133 74Zm298 20h122v-348q0-66-45-111t-111-45H480q-66 0-111 45t-45 111v110h263q29.4 0 50.2 20.8Q658-472.4 658-443v167ZM468-555q-15.3 0-25.65-10.289-10.35-10.29-10.35-25.5Q432-606 442.35-616.5 452.7-627 468-627h168q15.3 0 25.65 10.289 10.35 10.29 10.35 25.5Q672-576 661.65-565.5 651.3-555 636-555H468Z"/></svg>