<svg xmlns="http://www.w3.org/2000/svg" height="20" viewBox="0 -960 960 960" width="20"><path d="m437-464.077-67.846-67.846q-5.615-5.616-13.154-5.616t-13.154 5.616q-6.385 6.188-6.385 13.654 0 7.465 6.385 13.654l74.539 73q8.328 8.692 19.433 8.692t19.797-8.692l163.231-159.77q3.846-5.725 2.885-12.44-.962-6.714-7.346-13.098-6.082-5.616-13.003-5.616t-12.536 5.616L437-464.077ZM78.769-205.538v-32h786.462q6.838 0 11.419 4.52t4.581 11.269q0 6.749-4.581 11.48-4.581 4.731-11.419 4.731H78.769Zm113.846-80q-24.315 0-40.465-16.15Q136-317.838 136-342.154v-358.769q0-24.316 16.15-40.466 16.15-16.15 40.465-16.15h574.77q24.315 0 40.465 16.15Q824-725.239 824-700.923v358.769q0 24.316-16.15 40.466-16.15 16.15-40.465 16.15h-574.77Z"/></svg>