<svg xmlns="http://www.w3.org/2000/svg" height="20" viewBox="0 -960 960 960" width="20"><path d="m437-464.077-68.132-68.132q-2.637-2.637-5.934-3.599-3.297-.961-6.693-.961-3.395 0-6.933.961-3.539.962-6.462 3.788-6.385 6.207-6.385 13.702t6.385 13.703l74.539 73q8.328 8.692 19.433 8.692t19.797-8.692l167.847-159.77q0-6.495-1.731-13.209-1.731-6.714-7.346-12.329-6.082-5.616-13.003-5.616t-12.536 5.616L437-464.077ZM78.769-205.538v-32h786.462q6.838 0 11.419 4.52t4.581 11.269q0 6.749-4.581 11.48-4.581 4.731-11.419 4.731H78.769Zm113.846-80q-24.315 0-40.465-16.15Q136-317.838 136-342.154v-358.769q0-24.316 16.15-40.466 16.15-16.15 40.465-16.15h574.77q24.315 0 40.465 16.15Q824-725.239 824-700.923v358.769q0 24.316-16.15 40.466-16.15 16.15-40.465 16.15h-574.77Zm0-32.001h574.77q9.23 0 16.923-7.692Q792-332.923 792-342.154v-358.769q0-9.231-7.692-16.923-7.693-7.693-16.923-7.693h-574.77q-9.23 0-16.923 7.693Q168-710.154 168-700.923v358.769q0 9.231 7.692 16.923 7.693 7.692 16.923 7.692Zm-24.615 0v-408 408Z"/></svg>