<svg xmlns="http://www.w3.org/2000/svg" height="20" viewBox="0 -960 960 960" width="20"><path d="m437-529.653-44.956-44.956Q377.087-589.566 356-589.283q-21.087.282-36.044 15.239-15.522 14.76-15.522 36.544t14.957 37.109l83 82.435q14.593 14.957 34.427 14.957t34.791-14.957l188.522-169q0-19.479-3.348-38.588-3.348-19.108-17.739-33.5-15.423-14.957-36.56-14.957-21.136 0-36.093 14.957L437-529.653ZM30.477-116.303v-80.479h859.089q16.996 0 28.476 11.42 11.481 11.42 11.481 28.327 0 16.906-11.481 28.819-11.48 11.913-28.476 11.913H30.477Zm144.306-128.479q-41.005 0-69.503-28.498-28.498-28.498-28.498-69.503v-394.434q0-41.005 28.498-69.503 28.498-28.498 69.503-28.498h610.434q41.005 0 69.503 28.498 28.498 28.498 28.498 69.503v394.434q0 41.005-28.498 69.503-28.498 28.498-69.503 28.498H174.783Z"/></svg>