<svg xmlns="http://www.w3.org/2000/svg" height="20" viewBox="0 -960 960 960" width="20"><path d="m437-529.653-45.242-45.242q-7.41-7.41-16.624-10.758-9.215-3.348-19.088-3.348-9.872 0-19.133 3.631-9.261 3.63-16.957 11.229-15.522 14.78-15.522 36.593 0 21.813 14.957 37.157l83 82.435q14.798 14.957 34.53 14.957 19.731 0 34.688-14.957l188.522-169q0-19.479-3.348-38.588-3.348-19.108-17.901-33.623-15.342-14.834-36.438-14.834-21.096 0-36.053 14.957L437-529.653ZM30.477-116.303v-80.479h859.089q16.981 0 28.469 11.43t11.488 28.327q0 16.896-11.488 28.809t-28.469 11.913H30.477Zm144.306-128.479q-41.005 0-69.503-28.498-28.498-28.498-28.498-69.503v-394.434q0-41.005 28.498-69.503 28.498-28.498 69.503-28.498h610.434q41.005 0 69.503 28.498 28.498 28.498 28.498 69.503v394.434q0 41.005-28.498 69.503-28.498 28.498-69.503 28.498H174.783Zm0-98.001h610.434v-394.434H174.783v394.434Zm0 0v-394.434 394.434Z"/></svg>