<svg xmlns="http://www.w3.org/2000/svg" height="24" viewBox="0 -960 960 960" width="24"><path d="m437-529.653-47.956-47.956q-14.957-14.957-36.544-15.174-21.587-.218-37.544 15.739-15.522 14.957-15.522 37.044 0 22.087 14.957 37.609l85 85.435q15.957 15.957 37.609 15.957t37.609-15.957l190.522-170q0-20.522-2.848-40.609-2.848-20.087-17.239-34.479-15.957-15.957-37.827-15.957-21.869 0-37.826 15.957L437-529.653ZM22.477-92.303v-88.479h871.089q18.696 0 31.326 12.631 12.631 12.63 12.631 31.326 0 18.696-12.631 31.609-12.63 12.913-31.326 12.913H22.477Zm144.306-128.479q-44.305 0-75.153-30.848-30.848-30.848-30.848-75.153v-426.434q0-44.305 30.848-75.153 30.848-30.848 75.153-30.848h626.434q44.305 0 75.153 30.848 30.848 30.848 30.848 75.153v426.434q0 44.305-30.848 75.153-30.848 30.848-75.153 30.848H166.783Z"/></svg>