<svg xmlns="http://www.w3.org/2000/svg" height="24" viewBox="0 -960 960 960" width="24"><path d="m437-544-41-41q-9-9-20.345-13.5-11.345-4.5-23.5-4.5t-23.655 5q-11.5 5-20.5 14-19 18-19 44t18 45l85 85q19.364 19 45.182 19T482-410l194-170q0-24-3.5-48t-20.786-41.217Q632.857-688 606.929-688 581-688 562-669L437-544ZM9-71v-95h895q19.975 0 33.487 13.518Q951-138.965 951-118.982 951-99 937.487-85 923.975-71 904-71H9Zm163-135q-53 0-89.5-36.5T46-332v-416q0-53 36.5-89.5T172-874h616q53 0 89.5 36.5T914-748v416q0 53-36.5 89.5T788-206H172Zm0-126h616v-416H172v416Zm0 0v-416 416Z"/></svg>