<svg xmlns="http://www.w3.org/2000/svg" height="24" viewBox="0 -960 960 960" width="24"><path d="M716-364h-76q-6.067 0-10.033 3.953-3.967 3.954-3.967 10Q626-344 629.967-340q3.966 4 10.033 4h74q12.75 0 21.375-8.625T744-366v-74q0-6.067-3.953-10.033-3.954-3.967-10-3.967Q724-454 720-450.033q-4 3.966-4 10.033v76ZM244-676h76q6.067 0 10.033-3.953 3.967-3.954 3.967-10Q334-696 330.033-700q-3.966-4-10.033-4h-74q-12.75 0-21.375 8.625T216-674v74q0 6.067 3.953 10.033 3.954 3.967 10 3.967Q236-586 240-589.967q4-3.966 4-10.033v-76Zm-52 424q-26 0-43-17t-17-43v-416q0-26 17-43t43-17h576q26 0 43 17t17 43v416q0 26-17 43t-43 17H588v50q0 12.75-8.625 21.375T558-172H402q-12.75 0-21.375-8.625T372-202v-50H192Z"/></svg>