<svg xmlns="http://www.w3.org/2000/svg" height="20" viewBox="0 -960 960 960" width="20"><path d="M708.308-395.692h-76.616q-5.066 0-8.379 3.302-3.313 3.303-3.313 8.354 0 5.051 3.313 8.39 3.313 3.338 8.379 3.338h71.693q12.03 0 20.169-8.138 8.138-8.139 8.138-20.169v-71.693q0-5.066-3.302-8.379-3.303-3.313-8.354-3.313-5.051 0-8.39 3.313-3.338 3.313-3.338 8.379v76.616ZM251.692-660.308h76.616q5.066 0 8.379-3.302 3.313-3.303 3.313-8.354 0-5.051-3.313-8.39-3.313-3.338-8.379-3.338h-71.693q-12.03 0-20.169 8.138-8.138 8.139-8.138 20.169v71.693q0 5.066 3.302 8.379 3.303 3.313 8.354 3.313 5.051 0 8.39-3.313 3.338-3.313 3.338-8.379v-76.616ZM192.615-280q-24.315 0-40.465-16.162Q136-312.324 136-336.656v-383.012Q136-744 152.15-760t40.465-16h574.77q24.315 0 40.465 16.162Q824-743.676 824-719.344v383.012Q824-312 807.85-296t-40.465 16H584v67.693q0 12.03-8.127 20.169-8.126 8.138-20.14 8.138H404.59q-12.013 0-20.302-8.138Q376-200.277 376-212.307V-280H192.615Z"/></svg>