<svg xmlns="http://www.w3.org/2000/svg" height="24" viewBox="0 -960 960 960" width="24"><path d="M480-314.978q18.524 0 31.056-12.531 12.531-12.532 12.531-31.056 0-18.525-12.531-31.056-12.532-12.531-31.056-12.531t-31.056 12.531q-12.531 12.531-12.531 31.056 0 18.524 12.531 31.056 12.532 12.531 31.056 12.531Zm-41.913-161.674h83.826v-205.5h-83.826v205.5ZM480-71.63q-142.532-35.672-235.331-162.562-92.8-126.89-92.8-281.808v-249.61L480-888.37l328.131 122.76V-516q0 154.918-92.8 281.808Q622.532-107.302 480-71.63Z"/></svg>