<svg xmlns="http://www.w3.org/2000/svg" height="24" viewBox="0 -960 960 960" width="24"><path d="M108.695-740.262v-88.087q0-14.391 12.609-22.37 12.609-7.978 26-1.282l87.652 44.043q14.392 7.261 14.392 23.652 0 16.392-14.392 23.653l-87.652 44.043q-13.391 6.696-26-1.282-12.609-7.979-12.609-22.37Zm617.523 0v-88.087q0-14.391 12.609-22.37 12.608-7.978 26-1.282l87.652 44.043q14.391 7.261 14.391 23.652 0 16.392-14.391 23.653l-87.652 44.043q-13.392 6.696-26-1.282-12.609-7.979-12.609-22.37Zm-295.827-43.392v-88.086q0-14.392 12.609-22.37 12.609-7.979 26-1.283l87.652 44.043q14.391 7.261 14.391 23.653 0 16.391-14.391 23.652L469-760.001q-13.391 6.695-26-1.283t-12.609-22.37ZM407.696-58.955q-150.175-6.305-249.675-42.348-99.5-36.044-99.5-85.696V-560q0-30.087 33.76-55.827 33.762-25.739 91.153-44.782 57.392-19.044 134.066-29.957T480-701.479q85.826 0 162.5 10.913t134.066 29.957q57.391 19.043 91.152 44.782 33.761 25.74 33.761 55.827v373.001q0 50.087-100.283 85.065-100.283 34.979-250.457 42.979-14.565 1-24.913-9.348t-10.348-24.913v-125.305h-70.956v123.74q0 15.13-10.848 25.695t-25.978 10.13ZM480-528.48q88.521 0 151.956-9.804 63.434-9.804 103.173-22.543-19.218-8.392-87.305-21.522-68.086-13.13-167.824-13.13-99.738 0-168.107 13.13t-87.022 21.522q39.739 12.739 103.173 22.543 63.435 9.804 151.956 9.804ZM338.521-172.218v-46.303q0-44.305 30.848-75.153 30.848-30.848 75.153-30.848h70.956q44.305 0 75.153 30.848 30.848 30.848 30.848 75.153v46.303q67-7.434 110.934-20.108Q776.348-205 795.478-215.87v-254.042q-56.13 22-134.891 34.717Q581.826-422.477 480-422.477t-180.587-12.718q-78.761-12.717-134.891-34.717v254.042q19.13 10.87 63.065 23.544 43.934 12.674 110.934 20.108ZM480-320.782Z"/></svg>