<svg xmlns="http://www.w3.org/2000/svg" height="20" viewBox="0 -960 960 960" width="20"><path d="M220-692.7v-70.4q0-6.9 6.017-10.9T239-774l70.038 35.472Q316-734 316-728q0 6-6.957 10.569l-69.991 35.862Q232-678 226-681.9t-6-10.8Zm456 0v-70.4q0-6.9 6.017-10.9T695-774l70.038 35.472Q772-734 772-728q0 6-6.957 10.569l-69.991 35.862Q688-678 682-681.9t-6-10.8Zm-232-40v-70.4q0-6.9 6.017-10.9T463-814l70.038 35.472Q540-774 540-768q0 6-6.957 10.569l-69.991 35.862Q456-718 450-721.9t-6-10.8ZM378.345-135Q267-143 204.5-169T142-225.584V-534q0-17.794 24-32.897Q190-582 234.5-592.5q44.5-10.5 107-17T480-616q76 0 138.126 6.404 62.126 6.404 107 17T794-566.897q24 15.103 24 32.897v308.444Q818-195 755-169q-63 26-174.289 34-11.029 1-18.87-6.583Q554-149.167 554-160v-140H406v139q0 10.88-8.31 18.94-8.311 8.06-19.345 7.06ZM480-472q92 0 181.5-14T795-531q-30-35-121.5-50T480-596q-105 0-195 14.5T165-531q44 31 122 45t193 14Zm-94 318v-133.841q0-13.159 9.675-22.659Q405.35-320 418-320h124q12.65 0 22.325 9.675Q574-300.65 574-288v134q78-5 139-23t85-44v-288q-68 33-145.948 45-77.948 12-172.5 12T307.5-464Q230-476 162-509v288q22 25 78.5 43.5T386-154Zm94-175Z"/></svg>