<svg xmlns="http://www.w3.org/2000/svg" height="20" viewBox="0 -960 960 960" width="20"><path d="M220-692.7v-70.4q0-6.9 6.017-10.9T239-774l70.038 35.472Q316-734 316-728q0 6-6.957 10.569l-69.991 35.862Q232-678 226-681.9t-6-10.8Zm456 0v-70.4q0-6.9 6.017-10.9T695-774l70.038 35.472Q772-734 772-728q0 6-6.957 10.569l-69.991 35.862Q688-678 682-681.9t-6-10.8Zm-232-40v-70.4q0-6.9 6.017-10.9T463-814l70.038 35.472Q540-774 540-768q0 6-6.957 10.569l-69.991 35.862Q456-718 450-721.9t-6-10.8ZM359-135q-111-9-164-37t-53-54v-308q0-17.794 24-32.897 24-15.103 68.661-25.699 44.662-10.596 106.5-17Q403-616 480-616t138.839 6.404q61.838 6.404 106.5 17Q770-582 794-566.897q24 15.103 24 32.897v308q0 25-52.5 53T601-136q-12 1-19.5-6t-7.5-19v-43q0-39-27.5-66.5T480-298q-39 0-66.5 27.5T386-204v42q0 11-7.792 19.5Q370.417-134 359-135Zm121-337q92 0 181.5-14T795-531q-30-35-121.5-50T480-596q-105 0-195 14.5T165-531q44 31 122 45t193 14Z"/></svg>