<svg xmlns="http://www.w3.org/2000/svg" height="20" viewBox="0 -960 960 960" width="20"><path d="M480.226-288Q560-288 616-344.16T672-480h-48q0 60-42.242 102-42.243 42-102 42Q420-336 378-378.242q-42-42.243-42-102Q336-540 379.05-582 422.1-624 483-624h-1.696L440-580l34 34 102-102-102-102-34 34 43 44q-81 0-138 55.5T288-480q0 79.68 56.226 135.84t136 56.16Zm.05 211.218q-83.798 0-157.182-31.46-73.385-31.46-128.388-86.464-55.004-55.003-86.464-128.346t-31.46-157.406q0-84.064 31.46-156.948 31.46-72.885 86.464-127.888 55.003-55.004 128.346-86.464t157.406-31.46q84.064 0 156.948 31.46 72.885 31.46 127.888 86.464 55.004 55.003 86.464 128.112t31.46 156.906q0 83.798-31.46 157.182-31.46 73.385-86.464 128.388-55.003 55.004-128.112 86.464t-156.906 31.46ZM480-174.783q127.739 0 216.478-88.739T785.217-480q0-127.739-88.739-216.478T480-785.217q-127.739 0-216.478 88.739T174.783-480q0 127.739 88.739 216.478T480-174.783ZM480-480Z"/></svg>