<svg xmlns="http://www.w3.org/2000/svg" height="20" viewBox="0 -960 960 960" width="20"><path d="M480.409-136q-70.948 0-133.685-26.839-62.737-26.84-109.865-73.922-47.127-47.082-73.993-109.716Q136-409.111 136-480.325q0-71.214 26.839-133.451 26.84-62.237 73.922-109.365 47.082-47.127 109.716-73.993Q409.111-824 480.325-824q71.214 0 133.451 26.839 62.237 26.84 109.365 73.922 47.127 47.082 73.993 109.482Q824-551.357 824-480.409q0 70.948-26.839 133.685-26.84 62.737-73.922 109.865-47.082 47.127-109.482 73.993Q551.357-136 480.409-136Zm-43.794-172h86.77q24.315 0 40.465-16.15Q580-340.3 580-364.615v-74.77q0-24.315-16.15-40.465Q547.7-496 523.385-496H412v-99.385q0-10.769 6.923-17.692T436.615-620H540q6.8 0 11.4-4.547 4.6-4.547 4.6-11.269 0-6.723-4.6-11.453Q546.8-652 540-652H436.615q-24.315 0-40.465 16.15Q380-619.7 380-595.385v230.77q0 24.315 16.15 40.465Q412.3-308 436.615-308ZM412-464h111.385q10.769 0 17.692 6.923T548-439.385v74.77q0 10.769-6.923 17.692T523.385-340h-86.77q-10.769 0-17.692-6.923T412-364.615V-464Z"/></svg>