<svg xmlns="http://www.w3.org/2000/svg" height="24" viewBox="0 -960 960 960" width="24"><path d="M480-46q-91 0-169.987-34.084-78.988-34.083-137.417-92.512T80.084-310.013Q46-389 46-480t34.084-169.987q34.083-78.988 92.512-137.417t137.417-92.512Q389-914 480-914t169.987 34.084q78.988 34.083 137.417 92.512t92.512 137.417Q914-571 914-480t-34.084 169.987q-34.083 78.988-92.512 137.417T649.987-80.084Q571-46 480-46Zm-40-234h80q44 0 69.5-25.5T615-375v-57q0-44-25.5-70T520-528h-80v-57h88q19.975 0 33.487-13.8Q575-612.6 575-633q0-19.975-13.513-33.487Q547.975-680 528-680h-88q-44 0-69.5 25.5T345-585v210q0 44 25.5 69.5T440-280Zm0-152h80v57h-80v-57Z"/></svg>