<svg xmlns="http://www.w3.org/2000/svg" height="20" viewBox="0 -960 960 960" width="20"><path d="m477-205 93-320h-84v-236l-93 320h84v236Zm3.174 73Q408-132 344.442-159.391q-63.559-27.392-110.575-74.348-47.015-46.957-74.441-110.435Q132-407.652 132-479.826q0-72.174 27.391-135.732 27.392-63.559 74.348-110.574 46.957-47.016 110.435-74.442Q407.652-828 479.826-828q72.174 0 135.732 27.391 63.559 27.392 110.574 74.348 47.016 46.957 74.442 110.435Q828-552.348 828-480.174q0 72.174-27.391 135.732-27.392 63.559-74.348 110.575-46.957 47.015-110.435 74.441Q552.348-132 480.174-132Z"/></svg>