<svg xmlns="http://www.w3.org/2000/svg" height="20" viewBox="0 -960 960 960" width="20"><path d="m451-172.348 190.478-377.217H512v-238.087L321.522-413.565H451v241.217Zm29 111.566q-87.522 0-163.906-32.96-76.385-32.96-132.888-89.464-56.504-56.503-89.464-132.888Q60.782-392.478 60.782-480t32.96-163.906q32.96-76.385 89.464-132.888 56.503-56.504 132.888-89.464 76.384-32.96 163.906-32.96t163.906 32.96q76.385 32.96 132.888 89.464 56.504 56.503 89.464 132.888 32.96 76.384 32.96 163.906t-32.96 163.906q-32.96 76.385-89.464 132.888-56.503 56.504-132.888 89.464Q567.522-60.782 480-60.782ZM480-480Zm-.243 309.217q128.417 0 218.938-90.001 90.522-90 90.522-218.978 0-128.977-90.278-219.216t-218.696-90.239q-128.417 0-218.938 90.001-90.522 90-90.522 218.978 0 128.977 90.278 219.216t218.696 90.239Z"/></svg>