<svg xmlns="http://www.w3.org/2000/svg" height="20" viewBox="0 -960 960 960" width="20"><path d="M360-603.999h240v-96q0-50-35-85t-85-35q-50 0-85 35t-35 85v96Zm99.462 487.998H212.001v-487.998h96v-96q0-71.602 50.265-121.8 50.264-50.198 121.96-50.198t121.735 50.198q50.038 50.198 50.038 121.8v96h96v129q-12-5.462-25.884-9.192-13.885-3.731-26.115-5.731V-552H264v384h170.924q3.692 13.846 10.154 27.807 6.461 13.961 14.384 24.192Zm204.619 40.307q-71.696 0-121.734-50.265-50.038-50.264-50.038-121.96t50.264-121.734q50.264-50.038 121.96-50.038 71.697 0 121.735 50.264t50.038 121.96q0 71.697-50.264 121.735-50.265 50.038-121.961 50.038Zm55.226-86.076 30.923-30.923-64.231-64.231v-84.461h-43.384v102.923l76.692 76.692ZM264-436.607V-168v-384 115.393Z"/></svg>