<svg xmlns="http://www.w3.org/2000/svg" height="20" viewBox="0 -960 960 960" width="20"><path d="M383-661h179v-67q0-42-26.25-67T472-820q-37.083 0-63.042 25Q383-770 383-728v67ZM489-65H151v-596h114v-67q0-90.68 60.226-150.34t147-59.66Q559-938 619.5-878.34T680-728v67h114v194q-26-9-59-11.5t-59 1.5v-66H269v360h172q4 31 17.5 63T489-65Zm213.774 37Q623-28 567-84.226t-56-136Q511-300 567.226-356t136-56Q783-412 839-355.774t56 136Q895-140 838.774-84t-136 56ZM758-120l44-45-68-68.183V-324h-63v117l87 87ZM269-543v360-360Z"/></svg>