<svg xmlns="http://www.w3.org/2000/svg" height="24" viewBox="0 -960 960 960" width="24"><path d="M480.174-132Q408-132 344.442-159.391q-63.559-27.392-110.575-74.348-47.015-46.957-74.441-110.435Q132-407.652 132-479.826q0-72.174 27.405-135.732 27.405-63.559 74.385-110.574 46.98-47.016 110.49-74.442Q407.79-828 480-828h288q26 0 43 17t17 43v288q0 72.21-27.391 135.72-27.392 63.51-74.348 110.49-46.957 46.98-110.435 74.385Q552.348-132 480.174-132ZM480-160q134 0 227-93t93-227v-288q0-14-9-23t-23-9H480q-134 0-227 93t-93 227q0 134 93 227t227 93ZM320-394h228v-80l120 80v-188l-120 80v-80H320v188Zm160-86Z"/></svg>