<svg xmlns="http://www.w3.org/2000/svg" height="20" viewBox="0 -960 960 960" width="20"><path d="M480.174-148q-68.55 0-128.92-25.891-60.371-25.892-105.887-71.348-45.515-45.457-71.441-105.893Q148-411.569 148-480.284q0-68.716 25.905-129.274 25.905-60.559 71.385-105.574 45.48-45.016 105.802-70.942Q411.414-812 480-812h280q22.7 0 37.35 14.65Q812-782.7 812-760v280q0 68.586-25.891 128.908-25.892 60.322-70.848 105.802-44.957 45.48-105.566 71.385Q549.086-148 480.174-148Zm.284-20q130.458 0 221-91T792-480.458V-760q0-14-9-23t-23-9H480.458Q350-792 259-701.458t-91 221Q168-350 259-259t221.458 91ZM328-394h212v-89l120 89v-188l-120 89v-89H328v188Zm152-86Z"/></svg>