<svg xmlns="http://www.w3.org/2000/svg" height="20" viewBox="0 -960 960 960" width="20"><path d="M339.62-116.001q-73.235 0-124.427-51.996-51.192-51.995-51.192-125.23 0-73.234 51.737-124.811 51.737-51.577 124.493-51.577v52.384q-51.538 0-87.885 36.346Q216-344.539 216-293q0 51.538 36.346 87.884 36.347 36.347 88.27 36.347 51.923 0 88.269-36.347 36.346-36.346 36.346-87.884h51.999q0 73.461-52.187 125.23-52.188 51.769-125.423 51.769Zm323.149-48v-175.461H427.461l-30.153-42.615 81.231-224.462h-109l-27.924 65.77-46.383-23.385 40.154-97.461h220.997q34 0 52.807 27.615 18.808 27.615 2.962 60.538l-76.155 184.694h178.77v224.767h-51.998Zm-27.634-513.845q-31.675 0-53.675-22.247-22-22.248-22-53.923t22.248-53.675q22.248-22 53.923-22t53.482 22.248q21.808 22.248 21.808 53.923t-22.056 53.674q-22.055 22-53.73 22Z"/></svg>