<svg xmlns="http://www.w3.org/2000/svg" height="24" viewBox="0 -960 960 960" width="24"><path d="M327.692-120q-69.923 0-118.808-50.038Q160-220.077 160-290t49.654-119.577q49.654-49.654 118.807-49.654v40.77q-53.076 0-90.769 37.692Q200-343.077 200-290q0 53.077 37.692 90.769 37.693 37.693 91.539 37.693 53.846 0 91.538-37.693 37.692-37.692 37.692-90.769h40.001q0 69.923-50.423 119.962Q397.615-120 327.692-120Zm333.847-40v-166.923H372.923l-29.308-45.231 109.462-240.923h-101l-27.846 73.539-37.77-12.77 39.308-106.923h193q35.001 0 53.116 25.731 18.115 25.731 2.423 60.577L486-381.539h215.539V-160h-40ZM590.77-687.692q-26.847 0-45.347-18.5t-18.5-45.347q0-26.846 18.5-45.346 18.5-18.5 45.347-18.5 26.846 0 44.961 18.5 18.116 18.5 18.116 45.346 0 26.847-18.116 45.347-18.115 18.5-44.961 18.5Z"/></svg>