<svg xmlns="http://www.w3.org/2000/svg" height="20" viewBox="0 -960 960 960" width="20"><path d="M330.991-87.87q-81.209 0-138.285-57.302-57.076-57.302-57.076-138.511 0-81.447 57.236-138.404 57.236-56.956 138.351-56.956v79.174q-48.565 0-82.489 33.924-33.924 33.923-33.924 82.489 0 48.326 34.044 82.369 34.043 34.044 82.369 34.044 48.565 0 82.489-34.044 33.924-34.043 33.924-82.369h79.174q0 81.434-57.182 138.511-57.183 57.076-138.631 57.076Zm332.639-47.999v-195.587H432.587l-38.783-55.892 75.326-211.935H365.848l-26.239 59.761-70.066-28.956 45.674-106.392H573.13q41.631 0 63.49 33.718 21.858 33.717 3.663 71.869L576.717-410.87h166.087v275.001H663.63Zm-1.965-549.327q-36.426 0-61.882-25.704-25.457-25.704-25.457-62.131 0-36.426 25.704-61.882 25.705-25.457 62.131-25.457t61.883 25.705q25.456 25.704 25.456 62.13t-25.704 61.883q-25.705 25.456-62.131 25.456Z"/></svg>