<svg xmlns="http://www.w3.org/2000/svg" height="24" viewBox="0 -960 960 960" width="24"><path d="M236.826-284.479q51-37.869 112.87-59.239Q411.565-365.087 480-365.087t131.152 22.217q62.718 22.218 112.022 58.957 33.304-41.566 51.674-90.457 18.369-48.891 18.369-105.63 0-129.609-91.804-221.413T480-793.217q-129.609 0-221.413 91.804T166.783-480q0 56.174 18.087 105.065t51.956 90.456ZM480-434.913q-61.261 0-102.891-41.348-41.631-41.348-41.631-102.609 0-61.26 41.631-102.891 41.63-41.63 102.891-41.63t102.891 41.63q41.631 41.631 41.631 102.891 0 61.261-41.631 102.609-41.63 41.348-102.891 41.348Zm0 374.131q-86.957 0-163.348-32.913-76.392-32.913-133.218-89.739-56.826-56.826-89.74-133.218Q60.783-393.043 60.783-480q0-86.957 32.913-163.348 32.913-76.392 89.739-133.218 56.826-56.826 133.218-89.739Q393.043-899.218 480-899.218q86.957 0 163.348 32.913 76.392 32.913 133.218 89.739 56.826 56.826 89.739 133.218Q899.218-566.957 899.218-480q0 86.957-32.913 163.348-32.913 76.392-89.739 133.218-56.826 56.826-133.218 89.74Q566.957-60.783 480-60.783Z"/></svg>