<svg xmlns="http://www.w3.org/2000/svg" height="20" viewBox="0 -960 960 960" width="20"><path d="M242-300q54-36 113.5-52.5T480-369q65 0 126 18t112 52q32-42 47-86.5t15-94.5q0-123.675-88.23-211.838Q603.541-780 479.77-780 356-780 268-691.838 180-603.675 180-480q0 49 14.5 93.5T242-300Zm238-99q-64 0-108-43.5T328-550q0-64 44-108t108-44q64 0 108 44t44 108q0 64-44 107.5T480-399Zm.276 337Q394-62 318-94.5q-76-32.5-133.5-90t-90-133.458Q62-393.917 62-480.458 62-567 94.5-642.5t90-133q57.5-57.5 133.458-90 75.959-32.5 162.5-32.5Q567-898 642.5-865.5t133 90q57.5 57.5 90 133.224 32.5 75.725 32.5 162Q898-394 865.5-318q-32.5 76-90 133.5t-133.224 90q-75.725 32.5-162 32.5Z"/></svg>