<svg xmlns="http://www.w3.org/2000/svg" height="24" viewBox="0 -960 960 960" width="24"><path d="M202.261-100.782q-42.044 0-71.762-29.717-29.717-29.718-29.717-71.762h101.479v101.479Zm80 0v-101.479H360v101.479h-77.739Zm157.739 0v-101.479h80v101.479h-80Zm0-656.957v-101.479h80v101.479h-80Zm160 656.957v-101.479h77.739v101.479H600Zm0-656.957v-101.479h77.739v101.479H600Zm157.739 0v-101.479q42.044 0 71.762 29.717 29.717 29.718 29.717 71.762H757.739Zm23.914 694.653L561.913-282.26H335.262q-22.088 0-37.544-15.457-15.457-15.456-15.457-37.544v-226.651l-219.74-219.74q-12.696-12.696-12.696-30.892 0-18.195 12.696-31.326 13.13-13.13 31.326-13.13 18.196 0 31.326 13.13l719.133 719.133q13.13 13.13 12.913 30.826-.218 17.696-13.348 30.826-13.131 12.696-31.109 12.913-17.978.218-31.109-12.913ZM388.262-388.262h67.649l-67.649-67.649v67.649Zm289.477-15.478L571.738-509.741v-61.997h-61.997L403.74-677.739h220.998q22.088 0 37.544 15.457 15.457 15.456 15.457 37.544v220.998ZM323.74-757.739l-41.479-41.479v-60H360v101.479h-36.26Zm475.478 475.478-41.479-41.479V-360h101.479v77.739h-60Zm-698.436 0V-360h101.479v77.739H100.782Zm0-157.739v-80h101.479v80H100.782Zm0-160v-77.739h101.479V-600H100.782Zm656.957 160v-80h101.479v80H757.739Zm0-160v-77.739h101.479V-600H757.739Z"/></svg>