<svg xmlns="http://www.w3.org/2000/svg" height="24" viewBox="0 -960 960 960" width="24"><path d="M200-172q-12 0-20-8t-8-20h28v28Zm80 0v-28h80v28h-80Zm160 0v-28h80v28h-80Zm0-588v-28h80v28h-80Zm160 588v-28h80v28h-80Zm0-588v-28h80v28h-80Zm160 0v-28q12 0 20 8t8 20h-28Zm24 624L640-280H310q-13 0-21.5-8.5T280-310v-330L136-784q-4-4-4.5-9.5T136-804q5-5 10-5t10 5l648 648q4 4 4.5 9.5T804-136q-5 5-10 5t-10-5ZM308-308h304L308-612v304Zm372-85-28-28v-231H421l-28-28h257q13 0 21.5 8.5T680-650v257ZM313-760l-28-28h75v28h-47Zm475 475-28-28v-47h28v75Zm-616 5v-80h28v80h-28Zm0-160v-80h28v80h-28Zm0-160v-80h28v80h-28Zm588 160v-80h28v80h-28Zm0-160v-80h28v80h-28Z"/></svg>