<svg xmlns="http://www.w3.org/2000/svg" height="24" viewBox="0 -960 960 960" width="24"><path d="M676.154-157.692 800-235.385l-123.846-77.692v155.385ZM270.769-610.769h418.462v-40H270.769v40ZM720-75.384q-66.846 0-113.423-46.577T560-235.385q0-66.846 46.577-113.423T720-395.385q66.846 0 113.423 46.577T880-235.385q0 66.847-46.577 113.424Q786.846-75.384 720-75.384ZM160-129.23V-800h640v302.385q-9.769-3.616-19.385-6.154-9.615-2.539-20.615-4V-760H200v562h253.769q2.692 16.385 7.039 32.077 4.346 15.692 12.115 29.923l-1.384 1.385-45.385-33.077-53.846 38.462-53.847-38.462-53.846 38.462-53.846-38.462L160-129.23Zm110.769-180.001h188.385q2.231-11 5.538-20.615 3.308-9.616 7.693-19.385H270.769v40Zm0-150.769h292.462q19.538-15.462 41.961-25.808 22.424-10.346 47.885-14.192H270.769v40ZM200-198v-562 562Z"/></svg>