<svg xmlns="http://www.w3.org/2000/svg" height="20" viewBox="0 -960 960 960" width="20"><path d="m657-117 152-101-152-101v202ZM300-561h360v-72H300v72ZM707.774-26Q628-26 572-82.226t-56-136Q516-298 572.226-354t136-56Q788-410 844-353.774t56 136Q900-138 843.774-82t-136 56ZM110-41v-806h740v410q-25-18-55.033-28.5T732-480v-249H228v503h212q0 48 15.118 92Q470.237-90 497-55l-17 14-62-51-62 51-62-51-63 51-62-51-59 51Zm190-280h158q8-21 19.5-38.5T503-393H300v72Zm0-120h262q24-13 47.608-21.5Q633.215-471 660-477v-36H300v72Zm-72 215v-503 514-11Z"/></svg>