<svg xmlns="http://www.w3.org/2000/svg" height="24" viewBox="0 -960 960 960" width="24"><path d="M480-60.216Q332.652-96.805 236.717-226.954 140.782-357.103 140.782-516v-183.913q0-33.478 19.022-60.261t49.935-38.61l233.217-87.173q17.957-6.696 37.044-6.696 19.087 0 37.044 6.696l233.217 87.173q30.913 11.827 49.935 38.61 19.022 26.783 19.022 60.261v178.218q-24.652-14.783-50.87-23.827-26.218-9.043-55.131-12.608v-141.348L480-786.652l-233.217 87.174V-516q0 48.13 12.783 94.283 12.782 46.152 35 86.673 22.217 40.522 51.956 73.696 29.739 33.174 63.652 55.478 11.565 41.044 34.652 77.109 23.087 36.066 56.262 62.457-5.522 2.261-10.544 3.61-5.022 1.347-10.544 2.478ZM680-80q-83 0-141.5-58.5T480-280q0-83 58.5-141.5T680-480q83 0 141.5 58.5T880-280q0 83-58.5 141.5T680-80ZM480-496.261Zm171.521 244.74v60.216q0 11.392 8.544 19.935 8.544 8.544 19.935 8.544 11.391 0 19.935-8.544 8.544-8.543 8.544-19.935v-60.216h60.216q11.392 0 19.935-8.544 8.544-8.544 8.544-19.935 0-11.391-8.544-19.935-8.543-8.544-19.935-8.544h-60.216v-60.216q0-11.392-8.544-19.935-8.544-8.544-19.935-8.544-11.391 0-19.935 8.544-8.544 8.543-8.544 19.935v60.216h-60.216q-11.392 0-19.935 8.544-8.544 8.544-8.544 19.935 0 11.391 8.544 19.935 8.543 8.544 19.935 8.544h60.216Z"/></svg>