<svg xmlns="http://www.w3.org/2000/svg" height="20" viewBox="0 -960 960 960" width="20"><path d="M648-264v48q0 9.6 7.2 16.8 7.2 7.2 16.8 7.2 9.6 0 16.8-7.2 7.2-7.2 7.2-16.8v-48h48q9.6 0 16.8-7.2 7.2-7.2 7.2-16.8 0-9.6-7.2-16.8-7.2-7.2-16.8-7.2h-48v-48q0-9.6-7.2-16.8-7.2-7.2-16.8-7.2-9.6 0-16.8 7.2-7.2 7.2-7.2 16.8v48h-48q-9.6 0-16.8 7.2-7.2 7.2-7.2 16.8 0 9.6 7.2 16.8 7.2 7.2 16.8 7.2h48Zm23.774 168Q592-96 536-152.226t-56-136Q480-368 536.226-424t136-56Q752-480 808-423.774t56 136Q864-208 807.774-152t-136 56Zm-191.803 0Q337-130 252.5-248.5T168-515v-180q0-22.692 12.5-40.846Q193-754 214-762l240-92q13-5 26-5t26 5l240 92q21 8 33.5 26.154T792-695v172q-29-13-58.5-21t-61.5-8q-110 0-187 77t-77 187q0 54 21.5 103T489-98l-4 1q-4 1-5.029 1Z"/></svg>