<svg xmlns="http://www.w3.org/2000/svg" height="20" viewBox="0 -960 960 960" width="20"><path d="M654-270v34q0 7.2 5.4 12.6 5.4 5.4 12.6 5.4 7.2 0 12.6-5.4 5.4-5.4 5.4-12.6v-34h34q7.2 0 12.6-5.4 5.4-5.4 5.4-12.6 0-7.2-5.4-12.6-5.4-5.4-12.6-5.4h-34v-34q0-7.2-5.4-12.6-5.4-5.4-12.6-5.4-7.2 0-12.6 5.4-5.4 5.4-5.4 12.6v34h-34q-7.2 0-12.6 5.4-5.4 5.4-5.4 12.6 0 7.2 5.4 12.6 5.4 5.4 12.6 5.4h34Zm17.774 122Q613-148 572.5-188.726t-40.5-99.5Q532-347 572.726-387.5t99.5-40.5Q731-428 771.5-387.274t40.5 99.5Q812-229 771.274-188.5t-99.5 40.5Zm-191.803-2Q361-185 290.5-285T220-514.724V-672q0-16.949 8.875-30.508Q237.75-716.068 253-722l208-79q10-4 19-4t19 4l208 79q15.25 5.932 24.125 19.492Q740-688.949 740-672v184q-17-5-32.67-8.5Q691.66-500 672-500q-89 0-150.5 61.5T460-288q0 27 9 62t36 68q-4 2-12 4t-13.029 4Z"/></svg>