<svg xmlns="http://www.w3.org/2000/svg" height="20" viewBox="0 -960 960 960" width="20"><path d="M361.912-576H169.736Q160-576 154-582.176t-6-15.912v-192.176Q148-800 154.176-806t15.912-6h192.176Q372-812 378-805.824t6 15.912v192.176Q384-588 377.824-582t-15.912 6ZM168-596h196v-196H168v196Zm193.912 448H169.736Q160-148 154-154.176t-6-15.912v-192.176Q148-372 154.176-378t15.912-6h192.176Q372-384 378-377.824t6 15.912v192.176Q384-160 377.824-154t-15.912 6ZM168-168h196v-196H168v196Zm621.912-408H597.736Q588-576 582-582.176t-6-15.912v-192.176Q576-800 582.176-806t15.912-6h192.176Q800-812 806-805.824t6 15.912v192.176Q812-588 805.824-582t-15.912 6ZM596-596h196v-196H596v196Zm193.912 448H597.736Q588-148 582-154.176t-6-15.912v-192.176Q576-372 582.176-378t15.912-6h192.176Q800-384 806-377.824t6 15.912v192.176Q812-160 805.824-154t-15.912 6ZM596-168h196v-196H596v196ZM364-596Zm0 232Zm232-232Zm0 232Z"/></svg>