<svg xmlns="http://www.w3.org/2000/svg" height="20" viewBox="0 -960 960 960" width="20"><path d="M350.373-576H169.275q-14.352 0-23.814-9.637-9.461-9.638-9.461-23.99v-181.098q0-14.352 9.637-23.814Q155.275-824 169.626-824h181.099q14.352 0 23.813 9.637Q384-804.725 384-790.374v181.099q0 14.352-9.637 23.813-9.638 9.462-23.99 9.462Zm0 440H169.275q-14.352 0-23.814-9.637Q136-155.275 136-169.626v-181.099q0-14.352 9.637-23.813Q155.275-384 169.626-384h181.099q14.352 0 23.813 9.637 9.462 9.638 9.462 23.99v181.098q0 14.352-9.637 23.814-9.638 9.461-23.99 9.461Zm440.001-440H609.275q-14.352 0-23.813-9.637-9.462-9.638-9.462-23.99v-181.098q0-14.352 9.637-23.814 9.638-9.461 23.99-9.461h181.098q14.352 0 23.814 9.637Q824-804.725 824-790.374v181.099q0 14.352-9.637 23.813Q804.725-576 790.374-576Zm0 440H609.275q-14.352 0-23.813-9.637Q576-155.275 576-169.626v-181.099q0-14.352 9.637-23.813 9.638-9.462 23.99-9.462h181.098q14.352 0 23.814 9.637 9.461 9.638 9.461 23.99v181.098q0 14.352-9.637 23.814Q804.725-136 790.374-136Z"/></svg>