<svg xmlns="http://www.w3.org/2000/svg" height="24" viewBox="0 -960 960 960" width="24"><path d="m694.74-386.739-58.61-58.609q19.174-24.87 29.261-54.174T675.478-560q0-28.739-8.587-55.478t-24.326-50.609q-9.695-14.826-9.413-31.369.283-16.544 12.544-28.805 12.261-12.261 29.37-11.413 17.108.848 26.804 14.109Q728.305-688 742.957-646.5q14.652 41.5 14.652 86.5 0 48-16.717 92.065-16.718 44.065-46.152 81.196ZM578.001-503.478 423.478-658.001q13.131-7.565 27.261-11.282 14.131-3.718 29.261-3.718 47.087 0 80.044 32.957 32.957 32.957 32.957 80.044 0 15.13-3.718 29.261-3.717 14.13-11.282 27.261Zm220.652 219.652L740.479-342q38.869-45.565 59.152-101.783Q819.913-500 819.913-560q0-57.435-18.217-111.152-18.217-53.718-53.652-98.718-10.696-13.826-10.978-30.652-.283-16.826 11.978-29.087t29.37-11.479q17.109.783 27.804 14.044 46.131 56.696 70.696 125.239Q901.479-633.261 901.479-560q0 76.261-26.348 147.305-26.347 71.043-76.478 128.869Zm-17 220.74L533.001-311.173V-160q0 22.087-15.457 37.544-15.457 15.457-37.544 15.457-22.087 0-37.544-15.457-15.457-15.457-15.457-37.544v-257.174L284.522-559.217v3.739q.565 27.608 8.869 53.217 8.305 25.609 24.044 48.348 9.695 14.261 9.413 31.087-.283 16.826-12.544 29.087-12.261 12.261-29.087 11.978-16.826-.282-26.522-13.543-27-35.566-41.652-77.631Q202.391-515 202.391-560q0-18.696 2.282-36.109 2.283-17.413 7.848-35.543l-49.304-49.305q-11 29.566-17.065 59.696-6.065 30.131-6.065 61.261 0 57.435 18.217 111.152 18.217 53.718 53.652 98.718 10.696 13.826 10.696 30.652t-12.261 29.087q-12.261 12.261-29.37 11.196-17.109-1.065-27.805-14.326-45.565-57.261-70.13-125.24Q58.52-486.739 58.52-560q0-47.957 10.347-94.131 10.348-46.174 31.609-89l-37.956-38.522q-12.696-12.696-12.696-30.892 0-18.195 12.696-31.326 13.13-13.13 31.326-13.13 18.196 0 31.326 13.13l719.133 719.133q13.13 13.13 12.913 30.826-.218 17.696-13.348 30.826-13.131 12.696-31.109 12.913-17.978.218-31.109-12.913Z"/></svg>