<svg xmlns="http://www.w3.org/2000/svg" height="20" viewBox="0 -960 960 960" width="20"><path d="m676.74-394.739-61.61-60.609q13.174-19.87 19.761-42.674T641.478-544q0-21.739-6.087-41.478t-16.826-38.609q-9.695-15.826-8.913-33.869.783-18.044 14.044-31.305 13.261-13.261 31.37-11.413 18.108 1.848 27.804 16.109Q705.305-653 716.457-617.5q11.152 35.5 11.152 73.5 0 40-13.217 78.065-13.218 38.065-37.652 71.196Zm-99.739-98.739L429.478-641.001q12.131-6.565 24.761-9.282 12.631-2.718 25.761-2.718 45.087 0 77.044 31.957 31.957 31.957 31.957 77.044 0 13.13-2.718 25.761-2.717 12.63-9.282 24.761Zm210.652 211.652L727.479-344q33.869-42.565 53.152-93.783Q799.913-489 799.913-544q0-53.435-17.217-101.652-17.217-48.218-48.652-90.218-11.696-14.826-11.478-32.652.217-17.826 13.478-31.087t30.87-12.479q17.609.783 28.304 14.044 43.131 53.696 66.696 118.739Q885.479-614.261 885.479-544q0 72.261-24.848 139.805-24.847 67.543-72.978 122.369Zm8 220.74L529.001-327.173V-148q0 20.087-14.457 34.544Q500.087-98.999 480-98.999q-20.087 0-34.544-14.457-14.457-14.457-14.457-34.544v-277.174L318.522-538.217v-2.261q2.565 20.608 7.369 40.217 4.805 19.609 14.544 37.348 9.695 15.261 8.913 32.587-.783 17.326-14.044 30.587-13.261 13.261-30.587 12.978-17.326-.282-27.022-14.543-23-31.566-34.152-68.131Q232.391-506 232.391-544q0-18.696 1.782-36.109 1.783-17.413 8.348-33.543l-56.304-56.305q-13 29.566-19.565 61.196-6.565 31.631-6.565 64.761 0 52.435 17.217 100.652 17.217 48.218 48.652 90.218 11.696 14.826 11.696 32.652t-13.261 31.087q-13.261 13.261-31.37 12.196-18.109-1.065-29.805-14.326-43.565-53.261-66.13-117.74Q74.52-473.739 74.52-544q0-49.957 11.347-98.131 11.348-48.174 35.609-92l-61.956-62.522q-12.696-12.696-12.196-28.392.5-15.695 13.196-27.826 12.13-12.13 27.826-12.13t27.826 12.13l736.133 736.133q12.13 12.13 12.413 27.826.282 15.696-11.848 27.826-12.131 12.696-28.609 12.413-16.478-.282-28.609-12.413Z"/></svg>