<svg xmlns="http://www.w3.org/2000/svg" height="20" viewBox="0 -960 960 960" width="20"><path d="m666-397-52-51q16-21 24-45.5t8-50.5q0-24-7.5-46T618-632q-8-13-7.5-28.5T622-687q11-11 26-10t23 13q23 31 35 66.5t12 73.5q0 40-13.5 77.5T666-397ZM564-498 434-628q11-6 22.5-9t23.5-3q40 0 68 28t28 68q0 12-3 23.5t-9 22.5Zm205 206-50-52q35-42 54-93.5T792-544q0-54-17.5-102.5T725-737q-10-12-9.5-27t11.5-26q11-11 25.5-10.5T776-789q42 52 65 114.5T864-544q0 70-24 135t-71 117Zm8 210L516-343v195q0 15-10.5 25.5T480-112q-15 0-25.5-10.5T444-148v-267L314-545q2 24 8.5 47t18.5 43q8 13 7.5 27.5T337-402q-11 11-25.5 11T289-403q-23-31-35-67t-12-74q0-17 1.5-33t7.5-31l-58-58q-13 29-19 59.5t-6 62.5q0 53 17.5 101.5T235-352q10 12 10 27t-11 26q-11 11-26 10.5T183-300q-43-51-65-113.5T96-544q0-46 10.5-90.5T139-720l-58-58q-11-11-10.5-25T82-828q11-11 25-11t25 11l696 696q11 11 11 25t-11 25q-11 11-25.5 11T777-82Z"/></svg>