<svg xmlns="http://www.w3.org/2000/svg" height="20" viewBox="0 -960 960 960" width="20"><path d="M440-448ZM247-121q-13 10-26 .5t-8-24.5l73-239L96-520q-13-9-8-24.5t21-15.5h235l75-250q2-8 8-11.5t13-3.5q7 0 13 3.5t8 11.5l75 250h235q16 0 21 15.5t-8 24.5L594-384l73 239q5 15-8 24.5t-26-.5L440-268 247-121Zm105-183 88-70 88 70-32-114 83-57H475l-35-116-35 116H301l83 57-32 114Zm452 183-60-45-57-186 123-88h74q16 0 21 15.5t-8 24.5l-112 80 53 175q5 15-8 24.5t-26-.5ZM596-640l-30-102 20-68q2-8 8-12t13-4q7 0 13 4t8 12l52 170h-84Z"/></svg>