<svg xmlns="http://www.w3.org/2000/svg" height="20" viewBox="0 -960 960 960" width="20"><path d="M173.782-124.782q-20.387 0-34.694-14.246-14.306-14.246-14.306-34.544 0-20.298 14.306-34.754 14.307-14.457 34.694-14.457h23v-514.434q0-41.005 28.498-69.503 28.498-28.498 69.503-28.498h370.434q41.005 0 69.503 28.498 28.498 28.498 28.498 69.503v514.434h22.789q20.298 0 34.755 14.246 14.456 14.246 14.456 34.544 0 20.298-14.306 34.755-14.307 14.456-34.694 14.456H173.782ZM563.789-456Q579-456 589.5-466.289q10.5-10.29 10.5-25.5Q600-507 589.711-517.5q-10.29-10.5-25.5-10.5Q549-528 538.5-517.711q-10.5 10.29-10.5 25.5Q528-477 538.289-466.5q10.29 10.5 25.5 10.5Z"/></svg>