<svg xmlns="http://www.w3.org/2000/svg" height="20" viewBox="0 -960 960 960" width="20"><path d="M600-192v-34q0-39.49 39-62.745Q678-312 744-312t105 23.255Q888-265.49 888-226v34H600Zm143.788-144Q714-336 693-357.212q-21-21.213-21-51Q672-438 693.212-459q21.213-21 51-21Q774-480 795-458.788q21 21.213 21 51Q816-378 794.788-357q-21.213 21-51 21ZM168-192q-29 0-50.5-21.5T96-264v-432q0-29.7 21.5-50.85Q139-768 168-768h185.643q14.349 0 27.353 5Q394-758 405-747l75 75h312q29.7 0 50.85 21.15Q864-629.7 864-600v79q-29-15-60-23t-63-8q-117 0-194.5 86.5T481-264q2 19 6.5 37t11.5 35H168Z"/></svg>