<svg xmlns="http://www.w3.org/2000/svg" height="24" viewBox="0 -960 960 960" width="24"><path d="M224.615-160q-26.846 0-45.731-18.884Q160-197.769 160-224.615v-350.77q0-26.846 18.884-45.731Q197.769-640 224.615-640h104.616q8.538 0 14.269 5.731 5.731 5.73 5.731 14.269 0 8.538-5.731 14.269T329.231-600H224.615q-10.769 0-17.692 6.923T200-575.385v350.77q0 10.769 6.923 17.692T224.615-200h510.77q10.769 0 17.692-6.923T760-224.615v-350.77q0-10.769-6.923-17.692T735.385-600H630.769q-8.538 0-14.269-5.731T610.769-620q0-8.539 5.731-14.269Q622.231-640 630.769-640h104.616q26.846 0 45.731 18.884Q800-602.231 800-575.385v350.77q0 26.846-18.884 45.731Q762.231-160 735.385-160h-510.77ZM500-424.539l69.846-69.846q5.615-5.615 13.654-6 8.039-.384 14.654 6.231 6.385 6.385 6.385 14.154t-6.385 14.154l-95.539 95.538q-9.692 9.693-22.615 9.693-12.923 0-22.615-9.693l-95.539-95.538q-5.615-5.615-6.115-13.654t6.115-14.654q6.385-6.385 14.154-6.385t14.154 6.385L460-424.539V-880q0-8.539 5.731-14.27Q471.461-900 480-900t14.269 5.73Q500-888.539 500-880v455.461Z"/></svg>