<svg xmlns="http://www.w3.org/2000/svg" height="20" viewBox="0 -960 960 960" width="20"><path d="M208-98q-49.7 0-83.85-34.15Q90-166.3 90-216v-376q0-49.7 34.15-83.85Q158.3-710 208-710h82q24.3 0 41.65 17.289 17.35 17.29 17.35 41.5Q349-627 331.65-609.5T290-592h-82v376h544v-376h-82q-24.3 0-41.65-17.289-17.35-17.29-17.35-41.5Q611-675 628.35-692.5T670-710h82q49.7 0 83.85 34.15Q870-641.7 870-592v376q0 49.7-34.15 83.85Q801.7-98 752-98H208Zm331-407 16-16q18-18 42.167-18 24.166 0 40.833 17 18 18 18 41.5T638-439L521.862-322.862Q504-305 479.818-305T438-323L322-439q-18-18-17-42t18-41q18-18 41.5-18t41.5 18l15 17v-348.025q0-24.289 17.289-41.632Q455.579-912 479.789-912 504-912 521.5-894.657t17.5 41.632V-505Z"/></svg>