<svg xmlns="http://www.w3.org/2000/svg" height="20" viewBox="0 -960 960 960" width="20"><path d="M224.479-126.477q-40.426 0-69.214-28.788-28.788-28.788-28.788-69.214v-511.042q0-40.426 28.788-69.214 28.788-28.788 69.214-28.788h511.042q40.426 0 69.214 28.788 28.788 28.788 28.788 69.214v511.042q0 40.426-28.788 69.214-28.788 28.788-69.214 28.788H224.479ZM216-216h528v-456H216v456Zm263.884-84Q406-300 348-340.5 290-381 264-444q26-63 84.116-103.5t132-40.5Q554-588 612-547.5 670-507 696-444q-26 63-84.116 103.5t-132 40.5Zm.116-48q53 0 95.881-25.44Q618.763-398.88 643-444q-24.237-45.12-67.119-70.56Q533-540 480-540t-95.881 25.44Q341.237-489.12 317-444q24.237 45.12 67.119 70.56Q427-348 480-348Zm0-96Zm0 60q25 0 42.5-17.5T540-444q0-25-17.5-42.5T480-504q-25 0-42.5 17.5T420-444q0 25 17.5 42.5T480-384Z"/></svg>