<svg xmlns="http://www.w3.org/2000/svg" height="20" viewBox="0 -960 960 960" width="20"><path d="M216-144q-29.7 0-50.85-21.15Q144-186.3 144-216v-528q0-29.7 21.15-50.85Q186.3-816 216-816h528q29.7 0 50.85 21.15Q816-773.7 816-744v528q0 29.7-21.15 50.85Q773.7-144 744-144H216Zm0-72h528v-456H216v456Zm263.884-84Q406-300 348-340.5 290-381 264-444q26-63 84.116-103.5t132-40.5Q554-588 612-547.5 670-507 696-444q-26 63-84.116 103.5t-132 40.5Zm.116-84q-25 0-42.5-17.5T420-444q0-25 17.5-42.5T480-504q25 0 42.5 17.5T540-444q0 25-17.5 42.5T480-384Zm-.197 24Q515-360 539.5-384.303t24.5-59.5Q564-479 539.697-503.5t-59.5-24.5Q445-528 420.5-503.697t-24.5 59.5Q396-409 420.303-384.5t59.5 24.5Z"/></svg>