<svg xmlns="http://www.w3.org/2000/svg" height="24" viewBox="0 -960 960 960" width="24"><path d="M479.973-480q-8.512 0-14.242-5.75Q460-491.5 460-500v-326.154q0-8.5 5.758-14.25 5.757-5.75 14.269-5.75t14.242 5.75q5.731 5.75 5.731 14.25V-500q0 8.5-5.758 14.25-5.757 5.75-14.269 5.75Zm.071 320q-66.583 0-124.775-25.038-58.192-25.039-101.692-68.539-43.5-43.5-68.539-101.662Q160-413.402 160-480q0-58.692 21.154-113.115 21.153-54.424 59.923-97.808 5.359-7.077 13.641-6.577t15.032 7.25q5.711 5.711 4.711 13.25t-6.384 14.615q-33.154 37.539-50.615 84.77Q200-530.385 200-480q0 117 81.5 198.5T480-200q117 0 198.5-81.5T760-480q0-50.257-17.346-97.782-17.346-47.526-50.962-85.064-5.384-6.846-6.384-14.681-1-7.836 4.615-13.396 6.616-6.616 14.77-6.731 8.153-.115 13.769 6.731 39 43.384 60.269 97.644Q800-539.019 800-480q0 66.598-25.038 124.761-25.039 58.162-68.539 101.662-43.5 43.5-101.648 68.539Q546.626-160 480.044-160Z"/></svg>