<svg xmlns="http://www.w3.org/2000/svg" height="20" viewBox="0 -960 960 960" width="20"><path d="M306.849-816Q356-816 402-795q46 21 78 59 32-38 78-59t95.151-21Q742-816 803-755q61 61 61 150.253V-595q0 5-1 10h-72q1-4.938 1-9.875v-9.875Q792-664 752-704t-99-40q-35 0-65.5 14.5T535-689l-35 41h-40l-35-41q-23-25-54-40t-64-15q-59 0-99 40t-40 99.077v8.423q0 3.5 1 8.5H97q0-5-.5-8.5t-.5-8.247Q96-694 157-755q61-61 149.849-61ZM212-373h101q32 32 73 70t94 86q52-47 93.5-85t73.5-70h100q-38 42-92 92.5T528-163l-48 43-50-45q-73-66-126.5-116T212-373Zm221.209 37q10.884 0 18.838-5.5Q460-347 464-357l70-156 35 53.733Q574-451 582.036-447q8.035 4 16.964 4h313v-72H617l-60.191-92.65q-5.235-8.175-13.522-12.262Q535-624 526.047-624q-10.582 0-18.314 6Q500-612 495-602l-70 157-36-55q-5-8-13.036-12-8.035-4-16.964-4H48v72h294l59.8 92.811Q407-343 415.5-339.5t17.709 3.5ZM480-481Z"/></svg>