<svg xmlns="http://www.w3.org/2000/svg" height="20" viewBox="0 -960 960 960" width="20"><path d="m546.461-620-88.153 291.077q-2.693 8.038 2.389 14.481Q465.779-308 473.305-308q4.387 0 8.518-2.774 4.13-2.775 6.1-7.38l87.897-289.035q1.642-4.965 2.911-8.888Q580-620 580-625.385q0-12.153-8.926-19.384Q562.147-652 550.308-652H396q-6.8 0-11.4 4.547-4.6 4.547-4.6 11.269 0 6.723 4.6 11.453Q389.2-620 396-620h150.461Zm-66.052 484q-70.948 0-133.685-26.839-62.737-26.84-109.865-73.922-47.127-47.082-73.993-109.716Q136-409.111 136-480.325q0-71.214 26.839-133.451 26.84-62.237 73.922-109.365 47.082-47.127 109.716-73.993Q409.111-824 480.325-824q71.214 0 133.451 26.839 62.237 26.84 109.365 73.922 47.127 47.082 73.993 109.482Q824-551.357 824-480.409q0 70.948-26.839 133.685-26.84 62.737-73.922 109.865-47.082 47.127-109.482 73.993Q551.357-136 480.409-136Z"/></svg>