<svg xmlns="http://www.w3.org/2000/svg" height="20" viewBox="0 -960 960 960" width="20"><path d="M173.217-225.563q-20.585 0-34.51-14.246-13.925-14.247-13.925-34.683 0-20.437 13.925-34.472t34.51-14.035h171.957q20.585 0 34.51 14.246 13.925 14.246 13.925 34.683 0 20.436-13.925 34.471-13.925 14.036-34.51 14.036H173.217Zm.289-205.436q-20.574 0-34.649-14.247-14.075-14.246-14.075-34.682 0-20.437 13.917-34.472 13.918-14.035 34.492-14.035h368.216q20.574 0 34.649 14.246t14.075 34.683q0 20.436-13.917 34.471-13.918 14.036-34.492 14.036H173.506Zm-.289-205.436q-20.585 0-34.51-14.247-13.925-14.246-13.925-34.682 0-20.437 14.306-34.472 14.307-14.036 34.694-14.036h613.001q20.585 0 34.51 14.247 13.925 14.246 13.925 34.682 0 20.437-14.306 34.472-14.307 14.036-34.694 14.036H173.217Z"/></svg>