<svg xmlns="http://www.w3.org/2000/svg" height="24" viewBox="0 -960 960 960" width="24"><path d="M224.615-160Q197-160 178.5-178.5 160-197 160-224.615V-340q0-8.538 5.731-14.269Q171.461-360 180-360q8.538 0 14.269 5.731T200-340v115.385q0 9.23 7.692 16.923Q215.385-200 224.615-200H340q8.538 0 14.269 5.731T360-180q0 8.539-5.731 14.269Q348.538-160 340-160H224.615Zm510.77 0H620q-8.538 0-14.269-5.731Q600-171.461 600-180q0-8.538 5.731-14.269T620-200h115.385q9.23 0 16.923-7.692Q760-215.385 760-224.615V-340q0-8.538 5.731-14.269T780-360q8.539 0 14.269 5.731Q800-348.538 800-340v115.385Q800-197 781.5-178.5 763-160 735.385-160ZM160-620v-115.385Q160-763 178.5-781.5 197-800 224.615-800H340q8.538 0 14.269 5.731Q360-788.539 360-780q0 8.538-5.731 14.269T340-760H224.615q-9.23 0-16.923 7.692Q200-744.615 200-735.385V-620q0 8.538-5.731 14.269T180-600q-8.539 0-14.269-5.731Q160-611.462 160-620Zm600 0v-115.385q0-9.23-7.692-16.923Q744.615-760 735.385-760H620q-8.538 0-14.269-5.731T600-780q0-8.539 5.731-14.269Q611.462-800 620-800h115.385Q763-800 781.5-781.5 800-763 800-735.385V-620q0 8.538-5.731 14.269Q788.539-600 780-600q-8.538 0-14.269-5.731T760-620ZM480-400q-33.846 0-56.923-23.077Q400-446.154 400-480q0-33.846 23.077-56.923Q446.154-560 480-560q33.846 0 56.923 23.077Q560-513.846 560-480q0 33.846-23.077 56.923Q513.846-400 480-400Z"/></svg>