<svg xmlns="http://www.w3.org/2000/svg" height="20" viewBox="0 -960 960 960" width="20"><path d="M444-552.274h-72q-15.3 0-25.65-10.363Q336-573 336-588.211q0-15.21 10.338-25.5Q356.677-624 371.96-624h215.757Q603-624 613.5-613.711q10.5 10.29 10.5 25.5 0 15.211-10.35 25.574-10.35 10.363-25.65 10.363h-72v180.228q0 15.32-10.35 25.683T480-336q-15.3 0-25.65-10.363Q444-356.726 444-372.046v-180.228ZM17-76v-168q0-24.3 17.35-41.65Q51.7-303 76-303h25v-354H76q-24.3 0-41.65-17.35Q17-691.7 17-716v-168q0-24.3 17.35-41.65Q51.7-943 76-943h168q24.3 0 41.65 17.35Q303-908.3 303-884v25h354v-25q0-24.3 17.35-41.65Q691.7-943 716-943h168q24.3 0 41.65 17.35Q943-908.3 943-884v168q0 24.3-17.35 41.65Q908.3-657 884-657h-25v354h25q24.3 0 41.65 17.35Q943-268.3 943-244v168q0 24.3-17.35 41.65Q908.3-17 884-17H716q-24.3 0-41.65-17.35Q657-51.7 657-76v-25H303v25q0 24.3-17.35 41.65Q268.3-17 244-17H76q-24.3 0-41.65-17.35Q17-51.7 17-76Zm286-143h354v-25q0-24.3 17.35-41.65Q691.7-303 716-303h25v-354h-25q-24.3 0-41.65-17.35Q657-691.7 657-716v-25H303v25q0 24.3-17.35 41.65Q268.3-657 244-657h-25v354h25q24.3 0 41.65 17.35Q303-268.3 303-244v25ZM105-744h111v-111H105v111Zm639 0h111v-111H744v111Zm0 639h111v-111H744v111Zm-639 0h111v-111H105v111Zm111-639Zm528 0Zm0 528Zm-528 0Z"/></svg>