<svg xmlns="http://www.w3.org/2000/svg" height="24" viewBox="0 -960 960 960" width="24"><path d="M480-45.52 55.13-683.391q91.217-77.088 198.369-126.458Q360.652-859.218 480-859.218t226.783 48.869q107.435 48.87 198.088 126.958L480-45.52ZM373.217-553.782q27.261 0 45.609-18.631 18.348-18.63 18.348-45.891t-18.348-45.892q-18.348-18.63-45.609-18.63-27.261 0-45.891 18.63-18.631 18.631-18.631 45.892 0 27.261 18.631 45.891 18.63 18.631 45.891 18.631ZM480-364.522q27.261 0 45.891-18.348 18.631-18.348 18.631-45.609 0-27.261-18.631-45.891-18.63-18.631-45.891-18.631t-45.891 18.631q-18.631 18.63-18.631 45.891t18.631 45.609q18.63 18.348 45.891 18.348Z"/></svg>