<svg xmlns="http://www.w3.org/2000/svg" height="20" viewBox="0 -960 960 960" width="20"><path d="M480-168.307 149.846-662.769q71-55.923 155.654-84.577Q390.154-776 480-776t174.5 28.654q84.654 28.654 155.654 84.577L480-168.307Zm-122.244-406.77q11.629 0 19.86-8.14 8.23-8.14 8.23-19.769 0-11.629-8.14-19.86t-19.769-8.231q-11.629 0-19.86 8.14-8.231 8.141-8.231 19.77t8.141 19.859q8.14 8.231 19.769 8.231ZM479.91-404q11.629 0 19.859-8.14Q508-420.28 508-431.91q0-11.629-8.14-19.859Q491.72-460 480.09-460q-11.629 0-19.859 8.14Q452-443.72 452-432.09q0 11.629 8.14 19.859Q468.28-404 479.91-404Z"/></svg>