<svg xmlns="http://www.w3.org/2000/svg" height="20" viewBox="0 -960 960 960" width="20"><path d="M713.693-480q0 73.539-27.923 139.231-27.924 65.692-75.539 114.808-47.615 49.115-112.308 77.538Q433.231-120 359.692-120q-17.077 0-29.577-1.269t-25.808-4.577q-14-1.923-23.653-11.5Q271-146.923 271-160.154q0-4.923.961-10 .962-5.077 3.654-9.307 46.154-60.77 82.116-131.347Q393.692-381.385 393.692-480q4.539-98.615-30.538-169.192-35.077-70.577-81.231-131.347-2.693-4.23-3.654-9.307-.962-5.077-.962-10 0-13.231 9.654-22.808t23.654-11.5q13.308-3.308 25.808-4.577Q348.923-840 366-840q73.539 0 138.231 28.423t112.308 77.538q47.615 49.116 73.769 114.308Q716.462-554.539 713.693-480Z"/></svg>