<svg xmlns="http://www.w3.org/2000/svg" height="24" viewBox="0 -960 960 960" width="24"><path d="M748.844-480q0 78.769-29.962 148.115-29.961 69.346-81.268 120.653-51.308 51.308-120.654 81.269-69.346 29.962-148.115 29.962-23.538 0-48.537-3.885-24.999-3.884-48.152-11.038-12-3.461-19.577-13-7.577-9.538-7.577-22.154 0-7.461 2.731-14.499 2.73-7.039 8.576-11.654 64.077-59.385 98.307-138.923Q388.847-394.693 388.847-480q.769-85.307-33.269-164.846-34.038-79.538-98.115-138.923-5.846-4.615-8.577-11.654-2.73-7.038-2.73-14.499 0-12.616 7.577-22.154 7.577-9.539 19.577-13 23.153-7.154 48.152-11.038 24.999-3.885 48.537-3.885 78.769 0 148.115 29.962 69.346 29.961 120.653 81.269 51.308 51.307 80.885 120.653Q749.229-558.769 748.844-480Z"/></svg>