<svg xmlns="http://www.w3.org/2000/svg" height="20" viewBox="0 -960 960 960" width="20"><path d="M228.615-653.539q-9.384-10.153-11.308-24.538-1.923-14.385-1.923-27.462 0-41.666 29.141-70.833 29.14-29.167 70.769-29.167 41.629 0 70.86 29.167t29.231 70.833q0 13.077-2.423 26.962-2.424 13.885-10.808 25.038H228.615Zm193.659 499.078q-51.043 0-86.966-33.366-35.924-33.365-35.924-82.942h-13.692q-10.47 0-18.549-6.981-8.079-6.981-9.759-18.096l-35.923-275.077q-2-12.902 6.385-22.22 8.384-9.319 21.923-9.319H381q13.539 0 21.923 9.319 8.385 9.318 6.385 22.22l-35.923 275.077q-1.68 11.115-9.759 18.096t-18.549 6.981h-12.692q0 36.385 26.491 60.346 26.492 23.962 63.692 23.962 37.201 0 63.317-26.528Q512-239.517 512-276.769v-406.462q0-51.577 35.341-86.942 35.342-35.366 86.885-35.366 51.543 0 86.967 35.366 35.423 35.365 35.423 86.942v512.77q0 6.8-4.548 11.4-4.547 4.6-11.269 4.6t-11.453-4.6q-4.731-4.6-4.731-11.4v-513.123q0-37.106-27.115-63.53-27.115-26.425-64.024-26.425-36.909 0-63.192 26.528Q544-720.483 544-683.231v406.462q0 51.577-35.341 86.942-35.342 35.366-86.385 35.366Z"/></svg>