<svg xmlns="http://www.w3.org/2000/svg" height="24" viewBox="0 -960 960 960" width="24"><path d="M224-656q-9-12-13.5-26t-4.5-28q0-39.167 27.382-66.583Q260.765-804 299.882-804 339-804 366.5-776.583 394-749.167 394-710q0 14-4.5 28T376-656H224Zm186.106 500Q359-156 322.5-192.425 286-228.85 286-280h-1q-11 0-19.708-7.875Q256.583-295.75 255-307l-28-272q-2-13.5 7.25-23.25T257-612h86q13.5 0 22.75 9.75T373-579l-28 272q-1.583 11.25-10.292 19.125Q326-280 315-280h-1q0 40 28.2 68t67.8 28q39.6 0 67.8-28.2Q506-240.4 506-280v-400q0-51.15 36.394-87.575Q578.788-804 629.894-804t87.606 36.425Q754-731.15 754-680v510q0 5.95-4.035 9.975-4.035 4.025-10 4.025T730-160.025q-4-4.025-4-9.975v-510q0-39.6-28.2-67.8Q669.6-776 630-776q-39.6 0-67.8 28.2Q534-719.6 534-680v400q0 51.15-36.394 87.575Q461.212-156 410.106-156Z"/></svg>