<svg xmlns="http://www.w3.org/2000/svg" height="20" viewBox="0 -960 960 960" width="20"><path d="M618-176.252h-55q-24.3 0-41.65-17.374Q504-211 504-235.234q0-24.234 17.35-41.539T563-294.078h55v-54.688Q618-373 635.289-390.5q17.29-17.5 41.5-17.5 24.211 0 41.585 17.35 17.374 17.35 17.374 41.65v55h55.168q24.336 0 41.71 17.35Q850-259.3 850-235q0 24.3-17.374 41.65Q815.252-176 790.916-176h-55.168v55q0 24.3-17.374 41.65Q701-62 677-62q-24.3 0-41.65-17.374Q618-96.748 618-121.084v-55.168ZM318-62q-29.4 0-50.2-20.8Q247-103.6 247-133v-622q0-29.4 20.8-50.2Q288.6-826 318-826h67v-1q0-29.4 20.8-50.2Q426.6-898 456-898h48q29.4 0 50.2 20.8Q575-856.4 575-827v1h67q29.4 0 50.2 20.8Q713-784.4 713-755v244q-10-2-20-2.5t-21-.5q-115-1-194.5 79T398-240q0 51.969 18 96.984Q434-98 466-62H318Z"/></svg>