<svg xmlns="http://www.w3.org/2000/svg" height="24" viewBox="0 -960 960 960" width="24"><path d="M112.002-571.386q29.846-125.383 131.461-206.998Q345.078-859.999 480-859.999q71.307 0 134.307 23.808 63 23.808 113.077 67.039-9.769 19.076-15.769 33.345-6 14.269-8.615 26.807-44-42-101-66.5T480-800q-101 0-181 56.5T183-599q-19.692-.615-38.268 6.346-18.577 6.961-32.73 21.268ZM480-100.001q-134.922 0-236.537-81.423-101.615-81.422-131.461-206.806 13.538 14.308 32.114 21.576Q162.693-359.385 183-360q36 88 116 144t181 56q133 0 226.5-93.5T800-480q0-17-1.5-34t-5.5-34q9.846 3.231 19.615 5.231 9.769 2 20.846 2.384 5.538 0 11.076-.615 5.539-.615 10.462-1.846 2.384 15.615 3.692 30.923 1.308 15.308 1.308 31.923 0 78.769-29.962 148.115-29.961 69.346-81.269 120.653-51.307 51.308-120.653 81.269Q558.769-100.001 480-100.001ZM336-504.462 411.153-580 335-656.153 301.847-623l43 42-43 43L336-504.462Zm504-101.692q-30.307 0-52.077-21.769-21.769-21.77-21.769-52.077 0-25.461 13.654-53.654Q793.462-761.846 840-829.23q46.538 67.384 60.192 95.576 13.654 28.193 13.654 53.654 0 30.307-21.769 52.077-21.77 21.769-52.077 21.769ZM625-503.847 659.153-538l-43-43 42-42L625-656.153 548.847-580 625-503.847ZM480-420q-26.769 0-52.616 6.962-25.846 6.961-49 20.654l-144.538-84.154q0-15.231-6.846-28.846-6.846-13.616-20.077-21.231-19.692-10.846-40.884-5.115-21.193 5.73-32.654 24.807-10.846 19.692-5.115 40.884 5.73 21.193 24.807 32.654 13.231 7.615 28.462 6.846 15.23-.769 28.461-8.385l126.693 73.231Q322.001-347 309.847-330.001q-12.154 17-20.769 37.692H342q21-36 57-58t81-22q45 0 81 22t57 58h52.922q-25.923-60.076-77.346-93.884Q542.153-420 480-420Zm0-60Z"/></svg>