<svg xmlns="http://www.w3.org/2000/svg" height="20" viewBox="0 -960 960 960" width="20"><path d="M479.816-148Q372-148 296-224.056q-76-76.057-76-183.8 0-51.144 23.329-101.902 23.33-50.758 58.324-97.423t75.471-88.173Q417.6-736.861 452-769q7-5 13.898-8.5 6.899-3.5 14.125-3.5 7.227 0 13.602 3.5t13.055 9.5q33.72 32.139 74.02 73.569 40.3 41.431 76 88.198 35.7 46.767 59.5 97.637 23.8 50.869 23.8 100.74 0 107.743-76.184 183.8Q587.632-148 479.816-148Zm.184-20q100 0 170-70t70-169.867Q720-476 666-557q-54-81-186-212-132 131-186 212t-54 149.133Q240-308 310-238q70 70 170 70Zm0-304Zm-84 206h168q4.25 0 7.125-2.825 2.875-2.824 2.875-7 0-4.175-2.875-7.175T564-286H396q-4.25 0-7.125 2.825-2.875 2.824-2.875 7 0 4.175 2.875 7.175t7.125 3Zm74-204v74q0 4.25 2.825 7.125 2.824 2.875 7 2.875 4.175 0 7.175-2.875t3-7.125v-74h74q4.25 0 7.125-2.825 2.875-2.824 2.875-7 0-4.175-2.875-7.175T564-490h-74v-74q0-4.25-2.825-7.125-2.824-2.875-7-2.875-4.175 0-7.175 2.875T470-564v74h-74q-4.25 0-7.125 2.825-2.875 2.824-2.875 7 0 4.175 2.875 7.175t7.125 3h74Z"/></svg>