<svg xmlns="http://www.w3.org/2000/svg" height="24" viewBox="0 -960 960 960" width="24"><path d="M479.859-120q-119.936 0-199.898-82.505Q200-285.01 200-407.89q0-54.418 24.769-109.605 24.769-55.186 61.923-105.923 37.154-50.736 80.231-95.683 43.077-44.946 80-78.207 7.231-6.462 15.712-9.962 8.48-3.5 17.365-3.5 8.885 0 17.365 3.5 8.481 3.5 15.712 9.962 36.923 33.261 80 78.207 43.077 44.947 80.231 95.683 37.154 50.737 61.923 105.923Q760-462.308 760-407.89q0 122.88-80.103 205.385T479.859-120Zm.141-40q104 0 172-70.5T720-408q0-73-60.5-165T480-774Q361-665 300.5-573T240-408q0 107 68 177.5T480-160Zm0-313.846ZM400-260h160q8.5 0 14.25-5.758 5.75-5.757 5.75-14.269t-5.75-14.242Q568.5-300 560-300H400q-8.5 0-14.25 5.758-5.75 5.757-5.75 14.269t5.75 14.242Q391.5-260 400-260Zm60-200v60q0 8.5 5.758 14.25 5.757 5.75 14.269 5.75t14.242-5.75Q500-391.5 500-400v-60h60q8.5 0 14.25-5.758 5.75-5.757 5.75-14.269t-5.75-14.242Q568.5-500 560-500h-60v-60q0-8.5-5.758-14.25-5.757-5.75-14.269-5.75t-14.242 5.75Q460-568.5 460-560v60h-60q-8.5 0-14.25 5.758-5.75 5.757-5.75 14.269t5.75 14.242Q391.5-460 400-460h60Z"/></svg>