<svg xmlns="http://www.w3.org/2000/svg" height="24" viewBox="0 -960 960 960" width="24"><path d="M102.477-817.523v-88.478H440v88.478H102.477ZM226.999-520v-168.479H102.477v-89.044H440v89.044H315.478V-520h-88.479ZM559.87-81.304l-61.652-62.217L815.87-461.174l62.218 61.653L559.87-81.304ZM580-320q-27.13 0-45.261-18.13-18.13-18.131-18.13-45.261 0-27.131 18.13-45.261Q552.87-446.783 580-446.783q27.13 0 45.261 18.131 18.13 18.13 18.13 45.261 0 27.13-18.13 45.261Q607.13-320 580-320ZM804.306-95.694q-27.131 0-45.261-18.131-18.131-18.13-18.131-45.261 0-27.13 18.131-45.261 18.13-18.13 45.261-18.13 27.13 0 45.261 18.13 18.13 18.131 18.13 45.261 0 27.131-18.13 45.261-18.131 18.13-45.261 18.13ZM624.522-520q-43.261 0-73.892-30.63Q520-581.261 520-624.522q0-43.261 30.63-74.326 30.631-31.065 73.892-31.065 11.435 0 20.087 1.5T660-724.479v-173.044h188.479v89.044h-120v183.957q0 43.261-30.348 73.892Q667.783-520 624.522-520ZM212.087-68.695q-43.261 0-74.74-31.913-31.478-31.913-31.478-75.174 0-19.131 8.348-38.196 8.348-19.065 24.478-35.196l39.174-38.608-11.174-11.739q-16.13-16.131-23.913-34.761-7.783-18.631-7.783-39.196 0-43.261 30.913-73.892Q196.826-478 240.087-478q43.261 0 74.174 30.63 30.913 30.631 30.913 73.892 0 20.565-6.783 39.196-6.782 18.63-22.913 34.761l-11.174 11.739 22.913 22.912 56-56 61.653 63.653-56 56 55.434 55.435-62.217 61.652-54.87-54.869-38.608 39.173q-16.131 16.13-36.044 23.63-19.913 7.5-40.478 7.5Zm28-278.479 11.739-12.304q2.434-3 3.652-6 1.217-3 1.217-8 0-6.739-4.869-11.391-4.87-4.652-11.739-4.652-6.87 0-11.739 4.652-4.87 4.652-4.87 11.391 0 4.13 1.5 7.565 1.5 3.435 3.935 6.435l11.174 12.304Zm-30.566 190q3 0 7.435-1.217 4.435-1.218 7.435-4.218l40.608-38.608-23.478-23.478-40.608 39.174q-2.435 2.434-3.935 6.152-1.5 3.717-1.5 7.587 0 5.739 4.152 10.173 4.152 4.435 9.891 4.435Z"/></svg>