<svg xmlns="http://www.w3.org/2000/svg" height="24" viewBox="0 -960 960 960" width="24"><path d="M112.587-807.413V-891H440v83.587H112.587ZM234.5-520v-163.587H112.587v-83.826H440v83.826H318.087V-520H234.5ZM553.022-89.783l-58.392-58.63 314.392-314.391 58.63 58.391-314.63 314.63ZM580-320q-26.478 0-43.957-17.478-17.478-17.479-17.478-43.957t17.478-43.956Q553.522-442.87 580-442.87t43.957 17.479q17.478 17.478 17.478 43.956t-17.478 43.957Q606.478-320 580-320Zm210.283 210.283q-26.478 0-43.957-17.478-17.478-17.479-17.478-43.957t17.478-43.957q17.479-17.478 43.957-17.478t43.956 17.478q17.479 17.479 17.479 43.957t-17.479 43.957q-17.478 17.478-43.956 17.478ZM621.913-520q-41.956 0-71.935-29.978Q520-579.957 520-621.913q0-41.957 29.978-72.696 29.979-30.739 71.935-30.739 11.761 0 20.902 1.5 9.142 1.5 17.185 4.261v-167.826h183.587v83.826h-120v181.674q0 41.956-29.859 71.935Q663.87-520 621.913-520ZM216.652-75.217q-41.956 0-72.293-31.098-30.337-31.098-30.337-73.055 0-18.478 7.858-37.217 7.859-18.739 23.337-34.217l40.805-40.566-12.805-13.043q-15.478-15.478-23.098-33.457-7.619-17.978-7.619-38.217 0-41.956 30.098-71.935Q202.696-478 244.652-478q41.957 0 72.054 29.978 30.098 29.979 30.098 71.935 0 20.239-6.619 38.217-6.62 17.979-22.098 33.457l-12.804 13.043 25.847 25.848 56-56 58.392 60.392-56 56 55.761 55.76-58.631 58.392L331.13-146.5l-40.565 40.804q-15.478 15.479-34.576 22.979t-39.337 7.5Zm28-273.587 13.044-13.283q2.76-3 4.141-6 1.38-3 1.38-8 0-8.043-5.521-13.185-5.522-5.141-13.044-5.141t-13.043 5.141q-5.522 5.142-5.522 13.185 0 3.478 1.5 7.239 1.5 3.761 4.261 6.761l12.804 13.283Zm-30.239 190q3 0 7.761-1.381 4.761-1.38 7.761-4.38L272.5-205.13l-26.087-26.087-42.565 40.804q-2.761 2.761-4.261 6.641-1.5 3.881-1.5 8.402 0 7.044 4.641 11.805 4.642 4.761 11.685 4.761Z"/></svg>