<svg xmlns="http://www.w3.org/2000/svg" height="24" viewBox="0 -960 960 960" width="24"><path d="M675.231-209.231H220q-8.539 0-14.269-5.731-5.731-5.73-5.731-14.269 0-8.538 5.731-14.269 5.73-5.731 14.269-5.731h44.615v-316.923q0-23 5.039-46.154 5.038-23.154 15.115-44.461l90.616 90.615h-56.616L120.923-764q-5.616-5.615-6-13.769-.385-8.154 6-14.539 6.384-6.385 14.154-6.385 7.769 0 14.154 6.385l663.077 663.077q5.615 5.616 6.115 13.654.5 8.039-6.115 14.654-6.385 6.385-14.154 6.385T784-100.923L675.231-209.231Zm20.154-152.461-362.77-362.77q22.308-20.615 49.539-34.538 27.231-13.923 57.846-19.154V-800q0-16.539 11.731-28.269Q463.461-840 480-840q16.539 0 28.269 11.731Q520-816.539 520-800v21.846q76.923 13.077 126.154 72.962 49.231 59.884 49.231 139.038v204.462ZM480-104.615q-26.846 0-45.731-18.885-18.884-18.885-18.884-45.731h129.23q0 26.846-18.884 45.731-18.885 18.885-45.731 18.885Z"/></svg>