<svg xmlns="http://www.w3.org/2000/svg" height="20" viewBox="0 -960 960 960" width="20"><path d="M677.231-225.231H248q-6.8 0-11.4-4.547-4.6-4.547-4.6-11.269t4.6-11.453q4.6-4.731 11.4-4.731h16.615v-276.923q0-31 10.039-59.765 10.038-28.766 26.115-53.85L324.539-624q-13.462 19.508-20.693 42.72-7.231 23.211-7.231 47.126v276.923h350.154L151.923-749q-6.385-5.359-6.385-11.141t6.385-12.167q6.384-6.385 12.154-6.385 5.769 0 12.154 6.385l610.077 611.077q5.615 5.616 5.615 11.154 0 5.539-5.782 11.321-6.218 6.218-11.487 6.218T763-138.923l-85.769-86.308Zm18.154-130.461-32-32.001v-146.461q0-76.923-53.231-130.154-53.231-53.23-130.154-53.23-30.135 0-57.952 9.461-27.817 9.462-51.663 27.385l-22.77-23.283q22.308-19.102 49.039-30.025 26.731-10.923 55.346-15.154V-796q0-11.667 8.14-19.834Q468.28-824 479.91-824q11.629 0 19.859 8.166Q508-807.667 508-796v46.846q81.923 9.077 134.654 70.462 52.731 61.384 52.731 144.538v178.462Zm-223.693-75.846Zm7.959 310.923q-23.497 0-39.882-16.631-16.384-16.631-16.384-39.985h113.23q0 23.846-16.733 40.231t-40.231 16.385Zm37.734-414.077Z"/></svg>