<svg xmlns="http://www.w3.org/2000/svg" height="20" viewBox="0 -960 960 960" width="20"><path d="M655.913-196.782H221.782q-20.387 0-34.694-14.246-14.306-14.246-14.306-34.544 0-20.298 14.306-34.754 14.307-14.457 34.694-14.457h-7.783v-220.782q0-48.913 16.326-93.479 16.326-44.565 44.979-82.652l72.218 72.218q-17.261 22.13-26.392 49.119-9.13 26.988-9.13 54.794v220.782h245.347L103.13-749q-12.696-12.696-12.413-28.326.282-15.631 12.978-28.326 12.696-12.696 28.826-12.696 16.131 0 28.827 12.696l647.914 648.914q12.695 12.695 12.413 28.109-.283 15.413-12.413 27.543-12.696 12.696-28.609 12.696-15.913 0-28.609-12.696l-96.131-95.696Zm90.088-137.087L648-431.87v-83.695q0-70-49-119t-119-49q-18.316 0-35.723 3.174t-34.581 10.217l-71.783-72.862q19.435-11.66 39.674-19.247t41.412-11.59v-48.345q0-25.417 17.792-43.209 17.792-17.791 43.209-17.791t43.209 17.791q17.792 17.792 17.792 43.209v48.478q92.348 16.566 148.674 89.914 56.326 73.348 56.326 168.261v181.696Zm-311.045-83.87Zm45.397 347.175q-32.586 0-55.578-22.976-22.993-22.977-22.993-55.242h157.001q0 32.827-23.039 55.522-23.039 22.696-55.391 22.696Zm48.995-480.958Z"/></svg>