<svg xmlns="http://www.w3.org/2000/svg" height="20" viewBox="0 -960 960 960" width="20"><path d="M648-216H228q-15.3 0-25.65-10.289-10.35-10.29-10.35-25.5Q192-267 202.35-277.5 212.7-288 228-288h12v-240q0-41 13.5-78.5T290-677l53 53q-15 21-23 45.75T312-528v240h264L115-749q-11-11-11-25.5t11-25.5q11-11 26-11t26 11l627 628q11 11 11 25t-11 25q-11 11-25.5 11T743-122l-95-94Zm72-132-72-72v-108q0-70-49-119t-119-49q-22.838 0-43.919 6Q415-684 395-673l-52-52.513Q363-740 385.5-749q22.5-9 46.5-14v-53q0-20 14-34t34-14q20 0 34 14t14 34v53q85 16 138.5 82T720-528v180Zm-276-72Zm35.788 324Q450-96 429-117.15 408-138.3 408-168h144q0 30-21.212 51-21.213 21-51 21ZM522-547Z"/></svg>