<svg xmlns="http://www.w3.org/2000/svg" height="24" viewBox="0 -960 960 960" width="24"><path d="M675.231-209.231H220q-8.5 0-14.25-5.758-5.75-5.757-5.75-14.269 0-8.511 5.75-14.242 5.75-5.731 14.25-5.731h44.615v-316.923q0-23 5.039-46.265 5.038-23.266 15.115-44.35L315.539-626q-5.462 14.508-8.193 29.47-2.731 14.961-2.731 30.376v316.923h334.154L120.923-764q-6.385-5.359-6.385-13.641t6.385-14.667q6.384-6.385 14.154-6.385 7.769 0 14.154 6.385l663.077 663.077q5.615 5.616 6.115 13.654.5 8.039-6.282 14.821-6.218 6.218-13.987 6.218T784-100.923L675.231-209.231Zm20.154-152.461-40-40.001v-164.461q0-72.923-51.231-124.154-51.231-51.23-124.154-51.23-33.297 0-64.033 11.461-30.736 11.462-54.582 34.385l-28.77-28.77q22.308-20.615 49.539-34.538 27.231-13.923 57.846-19.154V-800q0-16.667 11.64-28.334Q463.28-840 479.91-840q16.629 0 28.359 11.666Q520-816.667 520-800v21.846q76.923 13.077 126.154 72.962 49.231 59.884 49.231 139.038v204.462Zm-223.693-53.846Zm8.172 310.923q-26.71 0-45.595-18.981-18.884-18.981-18.884-45.635h129.23q0 26.846-19.02 45.731-19.021 18.885-45.731 18.885Zm28.521-444.077Z"/></svg>