<svg xmlns="http://www.w3.org/2000/svg" height="20" viewBox="0 -960 960 960" width="20"><path d="M762.088-317.782 339.087-740.784 480-897.132l227.001 253.001q41.391 40.826 60.804 94.5 19.413 53.674 19.413 112.761 0 31.261-6 61.109-6 29.848-19.13 57.979ZM779.87-71.694 661.218-191.912q-38.566 29-83.913 45.065-45.348 16.065-97.305 16.065-127.348 0-217.283-89.652Q172.782-310.087 172.782-438q0-50.826 15.217-95.391 15.217-44.566 44.783-85.392L65.694-786.87l57.218-57.218 714.176 715.176-57.218 57.218Z"/></svg>