<svg xmlns="http://www.w3.org/2000/svg" height="20" viewBox="0 -960 960 960" width="20"><path d="m490-209 125-124q3.667-4 6.833-4 3.167 0 7.167 4t4 7.167q0 3.166-4 6.833L498-188q-9 9-18 9t-18-9L331-319q-4-4-3-7t5-7q4-4 6.5-4t6.5 4l124 124v-353q0-3.95 3.035-6.975 3.035-3.025 7-3.025t6.965 3.025q3 3.025 3 6.975v353Zm-10-583q-130 0-221 91t-91 221q0 36 8 70.181T200-343q3 3 2.083 7.551-.916 4.551-3.683 7.178Q195-325 191-325t-5-1q-19-35-28.5-74.269Q148-439.538 148-480q0-69.21 25.891-129.22 25.892-60.01 71.348-105.49 45.457-45.48 105.935-71.385Q411.652-812 479.826-812q69.174 0 129.232 25.894 60.059 25.895 105.574 71.357 45.516 45.461 71.442 105.447Q812-549.317 812-480.135 812-439 801-399.5 790-360 771-324q-1 1-2.5 0t-4.5-4q-4-4-4-8.5t2-8.5q14-32.481 22-65.984 8-33.504 8-69.016 0-130-91-221t-221-91Z"/></svg>