<svg xmlns="http://www.w3.org/2000/svg" height="24" viewBox="0 -960 960 960" width="24"><path d="M455-558h50v-242q0-10.625-7.188-17.812Q490.625-825 480-825t-17.812 7.188Q455-810.625 455-800v242ZM223-383h514v-49H223v49Zm-52 248h58v-42q0-26 18.5-44.5T292-240q26 0 44.5 18.5T355-177v42h62v-42q0-26 18.5-44.5T480-240q26 0 44.5 18.5T543-177v42h62v-42q0-26 18.5-44.5T668-240q26 0 44.5 18.5T731-177v42h58l-33-137H204l-33 137ZM818-9H142Q91-9 61-48.5T43-138l54-227v-90q0-43 30-73t73-30h129v-242q0-62.917 44.059-106.958Q417.118-951 480.059-951T587-906.958Q631-862.917 631-800v242h129q43 0 73 30t30 73v90l53 225q13 49.78-17 90.39T818-9Zm-81-423H223h514ZM505-558h-50 50Z"/></svg>