<svg xmlns="http://www.w3.org/2000/svg" height="20" viewBox="0 -960 960 960" width="20"><path d="M447-590h66v-202q0-14.025-9.487-23.513Q494.025-825 480-825q-14.025 0-23.513 9.487Q447-806.025 447-792v202ZM239-431h482v-41H239v41Zm-42 248h56v-22q0-24.3 17.289-41.65 17.29-17.35 41.5-17.35Q336-264 353.5-246.65T371-205v22h50v-22q0-24.3 17.289-41.65 17.29-17.35 41.5-17.35Q504-264 521.5-246.65T539-205v22h50v-22q0-24.3 17.289-41.65 17.29-17.35 41.5-17.35Q672-264 689.5-246.65T707-205v22h56l-31-145H229l-32 145ZM792-65H168q-46.966 0-74.483-35.5Q66-136 76-182l45-207v-106q0-39.7 27.65-67.35Q176.3-590 216-590h113v-202q0-62.917 44.059-106.958Q417.118-943 480.059-943T587-898.958Q631-854.917 631-792v202h113.249Q784-590 811.5-562.35 839-534.7 839-495v106l44 205q8 45.78-19 82.39T792-65ZM193-400h46v-72h-46v72Zm320-190h-66 66Z"/></svg>