<svg xmlns="http://www.w3.org/2000/svg" height="24" viewBox="0 -960 960 960" width="24"><path d="M158.392-128.479h75.39v-58.52q0-22.088 15.457-37.544Q264.696-240 286.783-240q22.087 0 37.544 15.457 15.457 15.456 15.457 37.544v58.52h87.215v-58.52q0-22.088 15.457-37.544Q457.913-240 480-240q22.087 0 37.544 15.457 15.457 15.456 15.457 37.544v58.52h87.215v-58.52q0-22.088 15.457-37.544Q651.13-240 673.217-240q22.087 0 37.544 15.457 15.457 15.456 15.457 37.544v58.52h75.39l-36.043-146.999h-571.13l-36.043 146.999ZM818-22.477H142q-45.783 0-73.174-35.805-27.392-35.805-16.261-80.588l54.434-223.956v-85.653q0-38.652 27.174-65.826 27.175-27.174 65.827-27.174h142.477V-800q0-57.348 40.088-97.435 40.087-40.088 97.435-40.088t97.435 40.088q40.088 40.087 40.088 97.435v258.521H760q38.652 0 65.827 27.174 27.174 27.174 27.174 65.826v85.653L906.87-140q13 44.783-14.609 81.153-27.609 36.37-74.261 36.37Z"/></svg>