<svg xmlns="http://www.w3.org/2000/svg" height="24" viewBox="0 -960 960 960" width="24"><path d="M71.87-108.282v-217.457H888.13v217.457H71.869Zm88.608-128.848v40h639.044v-40H160.478ZM480-420.957q-36.239 0-58.435 20-22.195 20-78.435 20-56.239 0-77.434-20-21.196-20-57.435-20-36.239 0-58.196 20-21.956 20-78.196 20v-88.608q36.24 0 58.196-20 21.957-20 78.196-20t77.435 20q21.195 20 57.434 20 36.24 0 58.435-20 22.196-20 78.435-20 56.239 0 78.554 20 22.316 20 58.555 20 36.239 0 57.435-20 21.195-20 77.434-20 56.24 0 80.316 20t56.076 20v88.608q-56.239 0-76.076-20-19.837-20-56.076-20-36.24 0-59.555 20-23.315 20-79.554 20-56.239 0-78.555-20-22.315-20-58.554-20ZM71.87-564.783v-45.978q0-112.13 112.086-176.424Q296.043-851.479 480-851.479q184.435 0 296.283 64.294 111.848 64.294 111.848 176.424v45.978H71.869ZM480-762.87q-118.5 0-200.445 28.609-81.946 28.609-108.055 80.869h617.478q-25.869-52.26-107.935-80.869Q598.978-762.87 480-762.87Zm0 525.74Zm.239-416.262Z"/></svg>