<svg xmlns="http://www.w3.org/2000/svg" height="24" viewBox="0 -960 960 960" width="24"><path d="m670-280 60 60q4 4 9.5 4.5T750-220q5-5 5-10t-5-10l-60-60 60-60q4-4 4.5-9.5T750-380q-5-5-10-5t-10 5l-60 60-60-60q-4-4-9.5-4.5T590-380q-5 5-5 10t5 10l60 60-60 60q-4 4-4.5 9.5T590-220q5 5 10 5t10-5l60-60Zm-488-2v-152l208-46-208-46v-156q0-17 13.5-26t28.5-2l425 183q-75 9-132.5 56T448-351l-224 97q-15 7-28.5-2T182-282Zm488 130q-62 0-105-43t-43-105q0-62 43-105t105-43q62 0 105 43t43 105q0 62-43 105t-105 43Z"/></svg>