<svg xmlns="http://www.w3.org/2000/svg" height="20" viewBox="0 -960 960 960" width="20"><path d="m671-260 42 42q5.8 6 14.5 6t14.5-6q6-6 6-15t-6-15l-42-41 42-42q6-5.8 6-14.5t-6-14.5q-5.8-6-14.5-6t-14.5 6l-42 42-42-42q-5.6-6-14-6t-14 6q-6 5.8-6 14.5t6 14.5l41 42-42 42q-6 6-6 14t6 14q6 6 15 6t15-6l41-41Zm-527 15v-139l288-96-288-96v-139q0-19 15.5-29.5T193-748l493 196h-14q-107 0-183.5 73.5T408-298l-215 86q-17.5 8-33.25-3T144-245ZM671.774-96Q592-96 536-152.226t-56-136Q480-368 536.226-424t136-56Q752-480 808-423.774t56 136Q864-208 807.774-152t-136 56Z"/></svg>