<svg xmlns="http://www.w3.org/2000/svg" height="20" viewBox="0 -960 960 960" width="20"><path d="M360-603.999h240v-96q0-50-35-85t-85-35q-50 0-85 35t-35 85v96Zm398.631 487.998q-36.016 0-61.131-24.94-25.115-24.94-25.115-61.06 0-15.692 5.73-30.846 5.731-15.153 15.55-26.71L758.384-331l64.719 71.443q9.819 11.557 15.549 26.71 5.731 15.154 5.731 30.846 0 36.12-24.868 61.06-24.868 24.94-60.884 24.94Zm-278.419-182q25.942 0 43.864-18.135 17.923-18.135 17.923-44.076 0-25.942-18.135-43.864-18.135-17.923-44.076-17.923-25.942 0-43.864 18.135-17.923 18.135-17.923 44.076 0 25.942 18.135 43.864 18.135 17.923 44.076 17.923Zm-268.211 182v-487.998h96v-96q0-71.602 50.265-121.8 50.264-50.198 121.96-50.198t121.735 50.198q50.038 50.198 50.038 121.8v96h96v194.845q-17.462.769-34.221 4.462Q697.019-401 681.384-394q-47.231 22.923-76.115 67.654-28.884 44.73-28.884 100.345 0 29.96 9.846 57.749t27.153 52.251H212.001Z"/></svg>