<svg xmlns="http://www.w3.org/2000/svg" height="20" viewBox="0 -960 960 960" width="20"><path d="M377.523-644.914h204.954v-79.608q0-43.405-29.63-73.789T480-828.695q-43.217 0-72.847 30.384-29.63 30.384-29.63 73.789v79.608ZM775.574-78.477q-45.313 0-77.27-31.797-31.956-31.797-31.956-77.095 0-20.37 7.41-39.094t19.97-33.611l81.62-91.188 81.621 91.188q12.56 14.887 19.97 33.611 7.41 18.724 7.41 39.094 0 45.298-31.732 77.095-31.731 31.797-77.043 31.797ZM480.212-289.696q29.788 0 50.788-21.212 21-21.213 21-51 0-29.788-21.212-50.788-21.213-21-51-21-29.788 0-50.788 21.213-21 21.212-21 51 0 29.787 21.212 50.787 21.213 21 51 21ZM172.782-78.477v-566.437h106.739v-79.608q0-84.202 58.487-143.188 58.488-58.986 142.218-58.986 83.731 0 141.992 58.986 58.261 58.986 58.261 143.188v79.608h106.739v231.262q-21.261-1.696-42.36 1.239-21.1 2.934-41.51 9.934-58.384 21-95.692 72.392-37.308 51.391-37.308 118.609 0 36.044 12.978 70.675 12.978 34.63 35.804 62.326H172.782Z"/></svg>