<svg xmlns="http://www.w3.org/2000/svg" height="20" viewBox="0 -960 960 960" width="20"><path d="M360-572h240v-96q0-50-35-85t-85-35q-50 0-85 35t-35 85v96Zm383.282 424Q714-148 693.5-168.3 673-188.6 673-218q0-12 4.5-25t12.43-22.247L743-323l53.07 57.753Q804-256 808.5-243t4.5 25q0 29.4-20.218 49.7-20.219 20.3-49.5 20.3Zm-263.07-166Q500-314 513-327.212q13-13.213 13-33Q526-380 512.788-393q-13.213-13-33-13Q460-406 447-392.788q-13 13.213-13 33Q434-340 447.212-327q13.213 13 33 13ZM244-148v-424h96v-96q0-58.68 40.726-99.34 40.726-40.66 99.5-40.66t99.274 40.66Q620-726.68 620-668v96h96v161q-15 2-29.774 6-14.774 4-28.226 11-38 26-59.5 65.5T577-242q0 25.653 8 48.826Q593-170 606-148H244Z"/></svg>