<svg xmlns="http://www.w3.org/2000/svg" height="20" viewBox="0 -960 960 960" width="20"><path d="M266.87-171.587v-378.261 378.261-15.277 15.277Zm100.543-461.261h225.174v-89.065q0-47.21-32.728-80.257Q527.13-835.217 480-835.217q-47.13 0-79.859 33.047-32.728 33.047-32.728 80.257v89.065ZM183.869-88.587v-544.261h100.544v-89.065q0-81.593 57.183-138.949 57.182-57.356 138.63-57.356t138.404 57.356q56.957 57.356 56.957 138.949v89.065h100.544v222.457q-.957-.718-2.268-.957-1.312-.239-2.754-.239-20.514 0-40.003 3.739-19.488 3.739-37.976 11.457v-153.457H266.87v378.261h312.021q4.522 23.553 14.598 44.201 10.076 20.647 24.989 38.8H183.869Zm587.465 0q-42.377 0-72.051-29.514t-29.674-71.94q0-19.002 6.885-36.443t18.545-31.24l76.07-84.733 76.07 84.733q11.66 13.799 18.545 31.24 6.885 17.441 6.885 36.443 0 42.426-29.449 71.94-29.448 29.514-71.826 29.514Zm-291.122-200.13q29.788 0 50.788-21.213 21-21.212 21-51 0-29.787-21.212-50.787-21.213-21-51-21-29.788 0-50.788 21.212-21 21.212-21 51t21.212 50.788q21.213 21 51 21Z"/></svg>