<svg xmlns="http://www.w3.org/2000/svg" height="20" viewBox="0 -960 960 960" width="20"><path d="M264-168v-384 359.385-2.635V-168Zm96-416h240v-96q0-50-35-85t-85-35q-50 0-85 35t-35 85v96ZM232-136v-448h96v-96q0-63.526 44.303-107.763T480.226-832q63.62 0 107.697 44.237Q632-743.526 632-680v96h96v173.692q5.385 1.539 10.385 1.923 5 .385 10.5.385-13.948 0-27.198 2.731T696-397.077V-552H264v384h325.692q3.462 8.906 8.231 16.299 4.769 7.394 10.846 15.701H232Zm517.038 0q-31.807 0-54.038-22.04-22.231-22.04-22.231-53.96 0-13.385 4.962-27.192 4.961-13.808 13.6-23.921L748.769-326l57.439 62.887q8.638 10.113 13.6 23.921 4.961 13.807 4.961 27.192 0 31.92-21.962 53.96T749.038-136ZM480.212-308q22.096 0 36.942-15.058Q532-338.117 532-360.212q0-22.096-15.058-36.942Q501.883-412 479.788-412q-22.096 0-36.942 15.058Q428-381.883 428-359.788q0 22.096 15.058 36.942Q458.117-308 480.212-308Z"/></svg>