<svg xmlns="http://www.w3.org/2000/svg" height="24" viewBox="0 -960 960 960" width="24"><path d="M224.615-160Q197-160 178.5-178.5 160-197 160-224.615v-510.77Q160-763 178.5-781.5 197-800 224.615-800h510.77Q763-800 781.5-781.5 800-763 800-735.385v510.77Q800-197 781.5-178.5 763-160 735.385-160h-510.77Zm100-443.846q12.385 0 21.577-9.192 9.193-9.193 9.193-21.577 0-12.385-9.193-21.577-9.192-9.193-21.577-9.193-12.384 0-21.577 9.193-9.192 9.192-9.192 21.577 0 12.384 9.192 21.577 9.193 9.192 21.577 9.192Zm155.385 0q12.385 0 21.577-9.192 9.192-9.193 9.192-21.577 0-12.385-9.192-21.577-9.192-9.193-21.577-9.193-12.385 0-21.577 9.193-9.192 9.192-9.192 21.577 0 12.384 9.192 21.577 9.192 9.192 21.577 9.192Zm155.385 0q12.384 0 21.577-9.192 9.192-9.193 9.192-21.577 0-12.385-9.192-21.577-9.193-9.193-21.577-9.193-12.385 0-21.577 9.193-9.193 9.192-9.193 21.577 0 12.384 9.193 21.577 9.192 9.192 21.577 9.192Zm0 154.615q12.384 0 21.577-9.192 9.192-9.192 9.192-21.577 0-12.385-9.192-21.577-9.193-9.192-21.577-9.192-12.385 0-21.577 9.192-9.193 9.192-9.193 21.577 0 12.385 9.193 21.577 9.192 9.192 21.577 9.192Zm-155.385 0q12.385 0 21.577-9.192 9.192-9.192 9.192-21.577 0-12.385-9.192-21.577-9.192-9.192-21.577-9.192-12.385 0-21.577 9.192-9.192 9.192-9.192 21.577 0 12.385 9.192 21.577 9.192 9.192 21.577 9.192Zm-155.385 0q12.385 0 21.577-9.192 9.193-9.192 9.193-21.577 0-12.385-9.193-21.577-9.192-9.192-21.577-9.192-12.384 0-21.577 9.192-9.192 9.192-9.192 21.577 0 12.385 9.192 21.577 9.193 9.192 21.577 9.192Z"/></svg>