<svg xmlns="http://www.w3.org/2000/svg" height="20" viewBox="0 -960 960 960" width="20"><path d="M222.783-124.782q-41.005 0-69.503-28.498-28.498-28.498-28.498-69.503v-514.434q0-41.005 28.498-69.503 28.498-28.498 69.503-28.498h514.434q41.005 0 69.503 28.498 28.498 28.498 28.498 69.503v514.434q0 41.005-28.498 69.503-28.498 28.498-69.503 28.498H222.783Zm102.702-469q17.133 0 28.933-11.59 11.8-11.589 11.8-28.722 0-17.132-11.59-28.932-11.589-11.8-28.722-11.8-17.132 0-28.932 11.589-11.8 11.59-11.8 28.722 0 17.133 11.589 28.933 11.59 11.8 28.722 11.8Zm154.304 0q17.133 0 28.933-11.59 11.8-11.589 11.8-28.722 0-17.132-11.59-28.932-11.589-11.8-28.721-11.8-17.133 0-28.933 11.589-11.8 11.59-11.8 28.722 0 17.133 11.59 28.933 11.589 11.8 28.721 11.8Zm154.305 0q17.132 0 28.932-11.59 11.8-11.589 11.8-28.722 0-17.132-11.589-28.932-11.59-11.8-28.722-11.8-17.133 0-28.933 11.589-11.8 11.59-11.8 28.722 0 17.133 11.59 28.933 11.589 11.8 28.722 11.8Zm0 166.304q17.132 0 28.932-11.59 11.8-11.589 11.8-28.721 0-17.133-11.589-28.933-11.59-11.8-28.722-11.8-17.133 0-28.933 11.59-11.8 11.589-11.8 28.721 0 17.133 11.59 28.933 11.589 11.8 28.722 11.8Zm-154.305 0q17.133 0 28.933-11.59 11.8-11.589 11.8-28.721 0-17.133-11.59-28.933-11.589-11.8-28.721-11.8-17.133 0-28.933 11.59-11.8 11.589-11.8 28.721 0 17.133 11.59 28.933 11.589 11.8 28.721 11.8Zm-154.304 0q17.133 0 28.933-11.59 11.8-11.589 11.8-28.721 0-17.133-11.59-28.933-11.589-11.8-28.722-11.8-17.132 0-28.932 11.59-11.8 11.589-11.8 28.721 0 17.133 11.589 28.933 11.59 11.8 28.722 11.8Z"/></svg>