<svg xmlns="http://www.w3.org/2000/svg" height="24" viewBox="0 -960 960 960" width="24"><path d="M680-334.615q-38.462 0-65.385-26.923-26.923-26.924-26.923-65.385 0-38.462 26.923-65.385 26.923-26.923 65.385-26.923t65.385 26.923q26.923 26.923 26.923 65.385 0 38.461-26.923 65.385-26.923 26.923-65.385 26.923ZM356.923-186.769V-160H224.982q-27.213 0-46.098-18.981Q160-197.961 160-224.615v-510.77q0-26.654 18.981-45.634Q197.961-800 224.615-800h510.77q26.654 0 45.634 18.981Q800-762.039 800-735.385v147.693q-25.615-20.539-55.769-31.423Q714.077-630 680-630q-5.385 0-10 .385-4.615.384-10 1.153v-2.307q0-8.5-5.75-14.25t-14.25-5.75H320q-8.5 0-14.25 5.757-5.75 5.758-5.75 14.27 0 8.511 5.75 14.242 5.75 5.731 14.25 5.731h276.923q-36.923 16-64.077 44.461-27.154 28.462-42 66.308H320q-8.5 0-14.25 5.758-5.75 5.757-5.75 14.269t5.75 14.242Q311.5-460 320-460h160.769q-3.846 24.846-2.038 49.846 1.808 25 9.808 49.385-6.924 3.077-13.462 5.769-6.538 2.692-12.692 5.769H320q-8.5 0-14.25 5.758T300-329.204q0 8.512 5.75 14.243 5.75 5.73 14.25 5.73h91.846q-26.231 23-40.577 55.5-14.346 32.5-14.346 66.962ZM500-98.461q-13.731 0-23.019-9.289-9.289-9.288-9.289-23.019v-56q0-13.743 6.559-25.849 6.559-12.107 18.364-19.305 27.385-16.692 47.462-23.423 20.077-6.731 51.849-12.154 10.305-1.808 19.997.418 9.692 2.225 16.154 10.236L680-190l50.923-66.846q6.462-8.462 16.154-10.462t20.185-.192q32.353 5.423 51.904 12.075 19.551 6.651 47.988 23.502 11.846 7.154 18.115 19.115 6.27 11.962 7.039 25.27v56.769q0 13.731-9.289 23.019-9.288 9.289-23.019 9.289H500Z"/></svg>