<svg xmlns="http://www.w3.org/2000/svg" height="20" viewBox="0 -960 960 960" width="20"><path d="M672-350.615q-38.462 0-65.385-26.923-26.923-26.924-26.923-65.385 0-38.462 26.923-65.385 26.923-26.923 65.385-26.923t65.385 26.923q26.923 26.923 26.923 65.385 0 38.461-26.923 65.385-26.923 26.923-65.385 26.923Zm0-32.001q25.015 0 42.661-17.646 17.647-17.646 17.647-42.661 0-25.016-17.647-42.662-17.646-17.646-42.661-17.646t-42.661 17.646q-17.647 17.646-17.647 42.662 0 25.015 17.647 42.661 17.646 17.646 42.661 17.646ZM488-107.461q-12.031 0-20.169-8.139-8.139-8.138-8.139-20.169v-61q0-13.743 6.559-25.849 6.559-12.107 18.364-19.305 27.385-15.692 47.962-23.423 20.577-7.731 51.349-13.154 9.214-1.808 17.815.293 8.602 2.1 14.336 9.361L672-196l55.923-72.846q5.462-6.462 14.154-8.962t18.185-.692q31.353 5.423 51.404 12.575 20.051 7.151 48.488 24.002 11.846 7.154 17.615 19.115 5.77 11.962 6.539 25.27v61.769q0 12.031-8.139 20.169-8.138 8.139-20.169 8.139H488Zm3.692-32h184.231l-85.154-109.154q-26.813 5.971-52.137 15.524-25.324 9.553-46.94 23.63v70Zm176.385 0h184.231v-70q-22.385-13.308-47.92-22.962-25.536-9.654-51.926-15.423l-84.385 108.385Zm7.846 0Zm-7.846 0ZM672-442.923ZM216-216v-528 119.231V-638v422Zm24.733 32q-23.964 0-40.349-16.631Q184-217.261 184-240.615v-478.77q0-23.354 16.631-39.984Q217.261-776 240.615-776h478.77q23.354 0 39.984 16.631Q776-742.739 776-719.385v108.693q-8.077-5.462-16.461-7.308-8.385-1.846-15.539-7.539v-93.846q0-10.769-6.923-17.692T719.385-744h-478.77q-10.769 0-17.692 6.923T216-719.385v478.77q0 10.769 6.923 17.692T240.615-216h120.693q-2.693 4.308-3.539 9.282-.846 4.975-.846 9.949V-184h-116.19ZM324-610.769h257.923q14.461-11.462 32.462-17.808 18-6.346 37.615-7.885v-2.307q-5-2.5-9.25-3.25t-6.75-.75H324q-6.8 0-11.4 4.547-4.6 4.547-4.6 11.269t4.6 11.453q4.6 4.731 11.4 4.731ZM324-464h156.769q-.461-8 .616-16.115 1.077-8.116 2.461-15.885H324q-6.8 0-11.4 4.547-4.6 4.547-4.6 11.269 0 6.723 4.6 11.453Q317.2-464 324-464Zm0 146.769h89.776q13.301-10.23 28.21-18.315t30.476-13.915V-344q0-4.692-.462-4.962-.462-.269-4.769-.269H324q-6.8 0-11.4 4.547-4.6 4.548-4.6 11.27 0 6.722 4.6 11.453 4.6 4.73 11.4 4.73Z"/></svg>