<svg xmlns="http://www.w3.org/2000/svg" height="20" viewBox="0 -960 960 960" width="20"><path d="M680.977-351.262q-56.151 0-95.39-39.306-39.239-39.305-39.239-95.457 0-56.151 39.305-95.39 39.306-39.239 95.457-39.239 56.152 0 95.391 39.305 39.239 39.306 39.239 95.457 0 56.152-39.305 95.391-39.306 39.239-95.458 39.239Zm.166-92.349q18.04 0 30.144-12.203t12.104-30.243q0-18.04-12.203-30.144-12.203-12.105-30.243-12.105t-30.144 12.204q-12.105 12.203-12.105 30.243t12.204 30.144q12.203 12.104 30.243 12.104ZM475.348-36.565q-20.387 0-34.694-14.306-14.306-14.307-14.306-34.694v-82.696q0-25.093 11.978-47.199 11.978-22.106 33.37-34.802 33.695-18.565 55.065-26.5 21.369-7.934 59.065-15.065 14.301-3.13 28.319-.473 14.018 2.658 24.117 13.169l42.782 47.695 42.782-47.695q9.826-9.696 23.935-12.761 14.109-3.065 28.501.065 38.261 7.131 59.347 14.283 21.087 7.152 54.783 27.282 21.392 12.943 33.37 34.711 11.978 21.768 11.978 46.725v83.26q0 20.388-14.306 34.695-14.307 14.306-34.694 14.306H475.348Zm43.914-92.348H649l-62.782-70.565q-18.162 3.542-35.473 9.945-17.31 6.403-31.483 16.046v44.574Zm193.826 0h130.303l2.827-44.348q-15.87-9.869-33.957-16.391-18.087-6.522-36.391-9.826l-62.782 70.565Zm-64.088 0Zm64.088 0Zm-32.044-357.045ZM222.783-221.087v-514.434 50.649-7.782 471.567Zm-.249 98.001q-41.056 0-69.404-28.498t-28.348-69.503v-514.434q0-41.005 28.498-69.503 28.498-28.499 69.503-28.499h514.434q41.005 0 69.503 28.499 28.498 28.498 28.498 69.503v111.823q-19.522-22.652-44.87-37.348-25.348-14.696-53.131-24.391v-50.084H222.783v514.434h140.565q-5 12.706-7 26.08-2 13.373-2 26.746v45.175H222.534Zm108.249-468.435h174.65q17.521-24.696 40.912-42.849 23.391-18.152 51.608-27.761-5-1.391-8.5-1.391l-4.89.001h-253.78q-15.3 0-25.65 10.289-10.35 10.29-10.35 25.5 0 15.211 10.35 25.711 10.35 10.5 25.65 10.5Zm0 149.217h147.521q-4.826-17.435-5.217-35.935-.392-18.5 2.217-36.065H330.783q-15.3 0-25.65 10.289-10.35 10.29-10.35 25.5 0 15.211 10.35 25.711 10.35 10.5 25.65 10.5Zm0 149.217h79.608q16.261-14.957 35.817-25.201 19.556-10.243 40.618-18.539v3.218q-1.13-14.174-9.261-22.543-8.13-8.37-26.739-8.935H330.783q-15.3 0-25.65 10.289-10.35 10.29-10.35 25.5 0 15.211 10.35 25.711 10.35 10.5 25.65 10.5Z"/></svg>