<svg xmlns="http://www.w3.org/2000/svg" height="20" viewBox="0 -960 960 960" width="20"><path d="M672-355q-35 0-59.5-24.5T588-439q0-35 24.5-59.5T672-523q35 0 59.5 24.5T756-439q0 35-24.5 59.5T672-355Zm0-20q26.4 0 45.2-18.8Q736-412.6 736-439q0-26.4-18.8-45.2Q698.4-503 672-503q-26.4 0-45.2 18.8Q608-465.4 608-439q0 26.4 18.8 45.2Q645.6-375 672-375ZM494-125q-11.05 0-18.525-7.475Q468-139.95 468-151v-55q0-11.565 5.526-21.754Q479.053-237.942 489-244q26-15 46-22.5t49.204-12.75q8.705-1.75 16.614.268Q608.727-276.964 614-270l58 77 58-77q5-6 13-8.5t17.041-.75Q790-274 809.316-267.103T856-244q10 6 14.5 16t5.5 21v56q0 11.05-7.475 18.525Q861.05-125 850-125H494Zm-6-20h196l-90-117q-28.731 6.19-55.865 16.095Q511-236 488-221v76Zm172 0h196v-76q-24-14-51.346-24-27.346-10-55.654-16l-89 116Zm24 0Zm-24 0Zm12-294ZM216-216v-528 122-13 419Zm32.228 20Q226-196 211-211.275T196-248v-464q0-21.45 15.275-36.725Q226.55-764 248-764h464q21.45 0 36.725 15.275Q764-733.45 764-712v93q-6-2-11.5-.5T744-623v-89q0-14-9-23t-23-9H248q-14 0-23 9t-9 23v464q0 14 9 23t23 9h111q-2 2-2.5 4.667-.5 2.666-.5 5.333v10H248.228ZM324-614h269q11-8 24.5-12.5T646-633v-3q-5 .05-7.525 1.025Q635.95-634 636-634H324q-4.25 0-7.125 2.825-2.875 2.824-2.875 7 0 4.175 2.875 7.175t7.125 3Zm0 144h157q0-5 .5-10t.5-10H324q-4.25 0-7.125 2.825-2.875 2.824-2.875 7 0 4.175 2.875 7.175t7.125 3Zm0 144h87.908q13.092-10 27.539-18.2Q453.895-352.4 469-358v8q0-1 1.5 1.5t2.5 2.5H324q-4.25 0-7.125 2.825-2.875 2.824-2.875 7 0 4.175 2.875 7.175t7.125 3Z"/></svg>