<svg xmlns="http://www.w3.org/2000/svg" height="24" viewBox="0 -960 960 960" width="24"><path d="M196.461-73.692q-7.077-4.385-8.653-12.808-1.577-8.423 2.807-15.5l174.923-269.692q-57.615-19.769-97.154-60.654-39.538-40.885-56.692-96.731-3.769-12.385 3.731-21.654T236.538-560h406.924q13.615 0 21.115 9.269 7.5 9.269 3.731 21.654-17.154 55.846-56.308 96.731-39.154 40.885-96.769 60.654l66.846 105.999q-11 6.154-17.577 11.154-6.577 5-14.885 13.77L474.231-362q-8.462 2-34.231 2h-17.615q-8.616 0-15.077-2L289.077-180h263.538q5.308-30.616 30.039-49.923 24.731-19.308 55.808-19.308 36.923 0 63.077 26.154 26.154 26.154 26.154 63.077t-26.154 63.077q-26.154 26.154-63.077 26.154-31.077 0-55.808-19.308-24.731-19.307-30.039-49.923H263.231l-38.462 60.462q-4.384 7.077-12.807 8.654-8.424 1.576-15.501-2.808Zm442.001-37.077q20.846 0 35.038-14.193 14.192-14.192 14.192-35.038 0-20.846-14.192-35.038-14.192-14.193-35.038-14.193-20.847 0-35.039 14.193-14.192 14.192-14.192 35.038 0 20.846 14.192 35.038 14.192 14.193 35.039 14.193ZM440-399.231q61.538 0 110.654-33.769 49.115-33.769 73.346-87H256q24.462 53.231 73.462 87T440-399.231Zm-82.769-231.538q-5.154 0-7.577-2.923T347.231-642q1.538-23.077-4.308-41.115-5.846-18.039-22.846-38.039-19.308-23.538-25.654-44.692T291.615-813q.231-3.154 3.423-5.846 3.193-2.693 6.577-2.693 5.154 0 7.577 2.924 2.423 2.923 2.423 8.307-1.538 23.077 4.308 41t22.846 37.923q19.539 23.77 25.77 44.923 6.23 21.154 2.692 47.154-.231 3.154-3.423 5.846-3.193 2.693-6.577 2.693Zm99.231 0q-5.154 0-7.577-2.923-2.424-2.923-2.424-8.308 1.77-23.077-4.076-41.115-5.847-18.039-22.847-38.039-19.538-23.308-25.884-44.577T390.846-813q.231-3.154 3.423-5.846 3.192-2.693 6.577-2.693 5.154 0 7.577 2.924 2.423 2.923 2.423 8.307-1.538 23.077 4.308 41T438-731.385q19.308 23.539 25.654 44.808t2.808 47.269q-.231 3.154-3.423 5.846-3.193 2.693-6.577 2.693Zm100.769 0q-5.154 0-7.577-2.923T547.231-642q1.769-23.077-4.077-41.115-5.846-18.039-22.846-38.039-19.539-23.308-25.885-44.577T491.615-813q.231-3.154 3.423-5.846 3.193-2.693 6.577-2.693 5.154 0 7.577 2.924 2.423 2.923 2.423 8.307-1.538 23.077 4.308 41t22.846 37.923q19.308 23.539 25.654 44.808t2.808 47.269q-.231 3.154-3.423 5.846-3.193 2.693-6.577 2.693ZM440-399.231Z"/></svg>