<svg xmlns="http://www.w3.org/2000/svg" height="24" viewBox="0 -960 960 960" width="24"><path d="M270.001-290.001q-21.385 0-35.692-14.307-14.308-14.308-14.308-35.692 0-20.769 14.308-35.384 14.307-14.615 35.692-14.615 20.769 0 35.384 14.615Q320-360.769 320-340q0 21.384-14.615 35.692-14.615 14.307-35.384 14.307Zm0-280q-21.385 0-35.692-14.307-14.308-14.308-14.308-35.692 0-20.769 14.308-35.384 14.307-14.615 35.692-14.615 20.769 0 35.384 14.615Q320-640.769 320-620q0 21.384-14.615 35.692-14.615 14.307-35.384 14.307Zm140 120v-59.998h139.998v59.998H410.001ZM672.23-250.385l-49.076-33.23Q650.385-327 665-376.5 679.615-426 679.615-480q0-66-21.115-124.192-21.115-58.193-59.346-105.962l45.614-38.307q44.923 55.462 69.884 123.885Q739.614-556.154 739.614-480q0 64.307-17.846 121.923-17.846 57.615-49.538 107.692Z"/></svg>