<svg xmlns="http://www.w3.org/2000/svg" height="20" viewBox="0 -960 960 960" width="20"><path d="M478.87-30.477 327.521-182.391H124.782v-710.437h710.436v710.437H630.783L478.87-30.477Zm-256.087-314.22q56-43.174 120.608-63.13Q408-427.784 480-427.784q72 0 136.609 18.892 64.608 18.891 120.608 63.064v-448.998H222.783v450.129Zm257.459-109.607q62.019 0 105.149-43.373 43.131-43.373 43.131-105.392 0-62.018-43.373-104.866t-105.391-42.848q-62.019 0-105.149 43.09-43.131 43.091-43.131 105.109 0 62.019 43.373 105.149 43.373 43.131 105.391 43.131ZM265-280.392h430v3.957q-46-35-101-52.935-55-17.935-114-17.935T366.5-329.37Q312-311.435 265-276.435v-3.957Zm214.867-254.391q-28.171 0-47.758-19.836-19.587-19.836-19.587-48.174 0-28.337 19.72-47.924t47.891-19.587q28.171 0 47.758 19.72 19.587 19.719 19.587 47.891 0 28.171-19.72 48.041-19.72 19.869-47.891 19.869Zm.133-80.479Z"/></svg>