<svg xmlns="http://www.w3.org/2000/svg" height="24" viewBox="0 -960 960 960" width="24"><path d="M479.522-32.587 356.413-155.935H111.869v-736.261h736.262v736.261H602.87L479.522-32.587ZM202.87-297.718q54-51.804 124.065-81.228Q397-408.37 480-408.37t153.065 29.185Q703.13-350 757.13-298.196v-503H202.87v503.478ZM480-479.283q58.957 0 100.435-41.478t41.478-100.435q0-58.956-41.478-100.315Q538.957-762.87 480-762.87t-100.435 41.359q-41.478 41.359-41.478 100.315 0 58.957 41.478 100.435T480-479.283ZM280-246.935h400v-8.326q-42-35-93-52.261-51-17.261-107-17.261t-107 17.261q-51 17.261-93 52.261v8.326ZM479.944-562.87q-24.227 0-41.129-17.007-16.902-17.008-16.902-41.305 0-24.296 16.959-41.198 16.958-16.903 41.184-16.903 24.227 0 41.129 16.959 16.902 16.958 16.902 41.185 0 24.226-16.959 41.248-16.958 17.021-41.184 17.021Zm.056 13.413Z"/></svg>