<svg xmlns="http://www.w3.org/2000/svg" height="24" viewBox="0 -960 960 960" width="24"><path d="m788-307-99-99q10-29 14.5-54.5T708-516v-179.516L480-781l-120 46-99-99 175-65q21-8 44-8t44 8l228 85q37 14 59.5 46t22.5 72v180q0 60-12.5 111T788-307ZM480-51q-9 0-38-7-144-48-230-178.5t-86-279.923V-700l-63-64q-14-14-13.5-33T64-830q14-14 33-14t33 14l700 700q14 14 14 33t-14 33q-14 14-33.5 14.5T763-63l-89-89q-30 32-72 57t-84 38q-9.333 3-18.667 4.5Q490-51 480-51Zm-62-357Zm107-163Zm-45 396q35-14 56.5-28t48.5-38.527L252-574v58q0 112 66 208t162 133Z"/></svg>