<svg xmlns="http://www.w3.org/2000/svg" height="20" viewBox="0 -960 960 960" width="20"><path d="M763.218-310.782 269.782-803.088l175.174-67.869q16.957-6.696 35.044-6.696 18.087 0 35.044 6.696l233.217 89.173q28.913 10.827 45.935 35.61 17.022 24.783 17.022 56.261V-515q0 55.087-12.565 105.152-12.565 50.066-35.435 99.066Zm-96.435 132q-31.739 31.739-72.717 55.087-40.979 23.348-83.718 37.218-6.696 2.565-14.674 3.848-7.978 1.282-15.674 1.282-4.826 0-30.348-5.696-137.087-46.695-218.979-165.283Q148.782-370.913 148.782-515v-181.783L103.13-743q-12.696-12.696-12.413-28.326.282-15.631 12.978-28.326 12.696-12.696 28.326-12.696 15.631 0 28.327 12.696l640.304 640.304q12.696 12.696 12.696 27.827 0 15.13-12.696 27.826-12.695 12.696-28.608 12.978-15.914.283-28.609-12.413l-76.652-75.652Z"/></svg>