<svg xmlns="http://www.w3.org/2000/svg" height="20" viewBox="0 -960 960 960" width="20"><path d="m778-306-93-92q13-32 18-59.5t5-57.5v-169.516L480-772l-122 47-93-92 173-67q20-8 42-8t42 8l228 87q35 13 55.5 43t20.5 68v171q0 59-13 109.5T778-306ZM480-67q-7 0-36-7-141-48-225.5-170.5T134-515.423V-702l-40-41q-14-14-13.5-30.5T95-804q14-14 30.5-14t30.5 14l649 649q14 14 14 30t-14 30q-14 14-31 14.5T743-94l-71-70q-32 32-72.5 55T516-73q-8.333 3-17.667 4.5Q489-67 480-67Zm-56-345Zm113-135Zm-57 365q38-16 60-30t47-37.527L252-584v69q0 107 63.5 199.5T480-182Z"/></svg>