<svg xmlns="http://www.w3.org/2000/svg" height="20" viewBox="0 -960 960 960" width="20"><path d="m763.218-310.782-76.044-75.914q13.869-33.305 19.956-64.717 6.087-31.413 6.087-63.587v-173.639L480-778.087l-133.304 50.913-76.914-75.914 175.174-67.869q16.957-6.696 35.044-6.696 18.087 0 35.044 6.696l233.217 89.173q28.913 10.827 45.935 35.61 17.022 24.783 17.022 56.261V-515q0 55.087-12.565 105.152-12.565 50.066-35.435 99.066ZM480-81.347q-4.826 0-30.348-5.696-137.087-46.695-218.979-165.283-81.891-118.587-81.891-262.913v-181.544L103.13-743q-12.696-12.696-12.413-28.326.282-15.631 12.978-28.326 12.696-12.696 28.326-12.696 15.631 0 28.327 12.696l640.304 640.304q12.696 12.696 12.696 27.827 0 15.13-12.696 27.826-12.695 12.696-28.608 12.978-15.914.283-28.609-12.413l-76.652-75.652q-33.304 33.305-72.717 55.87-39.414 22.565-83.718 36.435-6.884 2.565-14.768 3.848-7.884 1.282-15.58 1.282ZM426.174-419.39Zm106.044-122.827Zm-52.218 365q38-14.695 64.565-31.304 26.565-16.608 51.565-41.21l-349.347-349.05V-515q0 110.913 64.369 204.717Q375.522-216.479 480-177.218Z"/></svg>