<svg xmlns="http://www.w3.org/2000/svg" height="24" viewBox="0 -960 960 960" width="24"><path d="m773.218-311.782-82.044-82.914q10.869-30.305 16.456-59.717 5.587-29.413 5.587-61.587v-183.639L480-787.087l-131.304 49.913-82.914-82.914 177.174-65.869q17.957-6.696 37.044-6.696 19.087 0 37.044 6.696l233.217 87.173q30.913 11.827 49.935 38.61 19.022 26.783 19.022 60.261V-516q0 56.087-12.065 106.652-12.065 50.566-33.935 97.566ZM480-65.347q-6.826 0-32.348-5.696-140.087-46.695-223.479-173.283-83.391-126.587-83.391-271.913v-178.544L72.13-764q-12.696-12.696-12.413-30.826.282-18.131 12.978-30.826 12.696-12.696 30.826-12.696 18.131 0 30.827 12.696l691.304 691.304q12.696 12.696 12.696 30.827 0 18.13-12.696 30.826Q812.957-60 794.544-59.717q-18.414.283-31.109-12.413l-94.652-94.652q-31.304 33.305-72.217 57.87-40.914 24.565-84.218 38.435-7.884 2.565-15.768 3.848-7.884 1.282-16.58 1.282ZM420.174-415.39Zm100.044-150.827Zm-40.218 396q35-12.695 61.065-29.304 26.065-16.608 53.065-42.21l-347.347-347.05V-516q0 115.913 66.869 213.217Q380.522-205.479 480-170.218Z"/></svg>