<svg xmlns="http://www.w3.org/2000/svg" height="20" viewBox="0 -960 960 960" width="20"><path d="M116.001-212.001v-535.998h727.998V-480H792v-216H168v432h360v51.999H116.001Zm278-118.462v-299.074L629.537-480 394.001-330.463ZM735-91.849l-8.154-43.307q-19.385-5-34-13.731-14.616-8.731-26.77-20.423l-41.922 15.076-23.538-38.075 32.154-31.538q-5.693-17.847-5.693-36.693 0-18.846 5.693-36.693l-32.154-30.538 23.538-39.075 40.922 14.076q12.154-12.692 27.27-21.423 15.115-8.731 34.5-13.731L736-431.231h43.999l9.153 43.307q19.385 5 34.501 13.539 15.115 8.538 27.269 20.846l40.922-12.307 23.538 37.306-31.153 29.538q4.692 19.616 4.692 38.077 0 18.462-5.692 37.078l32.153 30.538-23.538 38.075-41.922-14.076q-12.154 11.692-26.769 20.423-14.616 8.731-34.001 13.731l-10.153 43.307H735Zm22.999-94.614q31.154 0 53.116-21.961 21.961-21.962 21.961-53.116t-21.961-53.116q-21.962-21.961-53.116-21.961t-53.115 21.961q-21.962 21.962-21.962 53.116t21.962 53.116q21.961 21.961 53.115 21.961Z"/></svg>