<svg xmlns="http://www.w3.org/2000/svg" height="24" viewBox="0 -960 960 960" width="24"><path d="M100.001-180.001v-599.998h759.998V-520H800v-200H160v480h320v59.999H100.001Zm290-138.462v-323.074L641.537-480 390.001-318.463ZM714-83.849l-8.154-47.307q-17.385-5-30-12.231-12.616-7.231-24.77-17.923l-44.922 16.076-31.538-51.075 37.154-31.538q-4.693-17.847-4.693-33.693 0-15.846 4.693-33.693l-37.154-31.538 31.538-51.075 44.922 16.076q12.154-10.692 24.77-17.923 12.615-7.231 30-12.231L714-439.231h59.999l8.153 47.307q17.385 5 30.001 12.539 12.615 7.538 24.769 18.846l44.922-17.307 31.538 52.306-37.153 31.538q4.692 16.616 4.692 33.077 0 16.462-4.692 33.078l37.153 31.538-31.538 51.075-44.922-16.076q-12.154 10.692-24.769 17.923-12.616 7.231-30.001 12.231l-8.153 47.307H714Zm29.999-94.614q34.154 0 58.616-24.461 24.461-24.462 24.461-58.616 0-34.154-24.461-58.616-24.462-24.461-58.616-24.461-34.154 0-58.615 24.461-24.462 24.462-24.462 58.616 0 34.154 24.462 58.616 24.461 24.461 58.615 24.461Z"/></svg>