<svg xmlns="http://www.w3.org/2000/svg" height="20" viewBox="0 -960 960 960" width="20"><path d="M65.477-172.782v-614.436h806.436V-480h-98.001v-209.217H163.478v418.434h353.217v98.001H65.477Zm302.696-131.305v-351.826L644.609-480 368.173-304.087Zm353.826 273.61-13.13-58.827q-11.739-3.87-23.109-10.587-11.369-6.717-20.673-14.021l-57.261 18.13-39.349-67.435 43.827-41.696q-3.566-11.174-3.283-25.608.283-14.435 3.283-25.609l-43.827-40.696 39.349-67.87 56.261 16.566q9.304-8.305 21.173-14.74 11.87-6.434 23.609-10.304L722.999-432h78.131l13.566 58.826q11.739 3.87 23.608 10.022 11.87 6.152 21.174 15.022l56.826-15.566 38.783 66.87-42.261 39.696q2.565 12.739 2.283 26.609-.283 13.869-3.283 25.608l43.261 40.696-38.783 67.435-57.826-17.13q-9.304 7.304-20.674 14.022-11.369 6.717-23.108 10.586L800.13-30.477h-78.131Zm39.783-133.001q27.739 0 47.891-20.152 20.153-20.152 20.153-47.891 0-27.739-20.153-47.609-20.152-19.869-47.891-19.869-27.739 0-47.608 19.869-19.87 19.87-19.87 47.609t19.87 47.891q19.869 20.152 47.608 20.152Z"/></svg>