<svg xmlns="http://www.w3.org/2000/svg" height="20" viewBox="0 -960 960 960" width="20"><path d="M83.087-183.869v-592.262h784.261V-480h-83v-213.13H166.087v426.26h357.13v83.001H83.087Zm294.217-124.783v-342.696L646.565-480 377.304-308.652ZM729.5-40.587l-12.478-57.195q-13.044-4.522-25.066-11.403-12.021-6.88-22.304-15.163l-55.956 17.479-35.109-60.261 42.195-40.718q-3.239-12.804-3.119-27.565.119-14.761 3.119-27.565l-42.195-39.718 35.109-61.021 54.956 16.239q10.283-9.283 22.804-16.044 12.522-6.761 25.566-11.282L730.5-432h69.978l13.239 57.196q13.044 4.521 25.566 11.163 12.521 6.641 22.804 16.163l55.196-15.239 34.869 60.021-40.956 38.718q2.239 14.043 2.119 28.565-.119 14.522-3.119 27.565l41.956 39.718-34.869 60.261-56.196-16.479q-10.283 8.283-22.304 15.163-12.022 6.881-25.066 11.403l-14.239 57.195H729.5Zm35.87-125.5q29.043 0 49.684-20.641 20.642-20.642 20.642-49.685 0-29.043-20.642-49.565Q794.413-306.5 765.37-306.5q-29.044 0-49.566 20.522-20.521 20.522-20.521 49.565t20.521 49.685q20.522 20.641 49.566 20.641Z"/></svg>