<svg xmlns="http://www.w3.org/2000/svg" height="20" viewBox="0 -960 960 960" width="20"><path d="M136-232v-496h688v248h-32v-216H168v432h360v32H136Zm268-116.923v-262.154L611.077-480 404-348.923Zm331 213.231-4.308-30.615q-24.769-5-41.5-15.462-16.73-10.461-30.038-24.846l-28.846 13.154-15.077-21.154 23.307-23.077q-8.384-21.692-8.384-44.385 0-22.692 8.384-44.384l-23.307-22.077 15.077-22.154 27.846 12.154q13.308-15.385 30.538-25.846 17.231-10.462 42-15.462L736-430.462h24l5.308 30.616q24.769 5 42 15.077t30.538 24.692l27.847-9.615 15.077 19.615L858.462-329q7.384 24.231 7.384 46.154 0 21.923-8.384 45.154l23.308 22.077-15.077 21.154-28.847-12.154q-13.307 14.385-30.038 24.846-16.731 10.462-41.5 15.462L759-135.692h-24Zm13-69.231q32.308 0 55.231-22.923 22.923-22.923 22.923-55.231 0-32.307-22.923-55.23Q780.308-361.23 748-361.23q-32.308 0-55.231 22.923-22.923 22.923-22.923 55.23 0 32.308 22.923 55.231 22.923 22.923 55.231 22.923Z"/></svg>