<svg xmlns="http://www.w3.org/2000/svg" height="24" viewBox="0 -960 960 960" width="24"><path d="M100.001-180.001v-75.385H160V-240h15.386v59.999h-75.385Zm0-155.385v-80H160v80h-59.999Zm0-160v-80H160v80h-59.999Zm0-160v-124.613H240V-720h-80v64.614h-59.999Zm155.385 475.385V-240h80v59.999h-80ZM320-720v-59.999h80V-720h-80Zm95.386 539.999V-240h80v59.999h-80ZM480-560v-219.999h379.999V-560H480Zm95.386 379.999V-240h80v59.999h-80Zm160 0V-240H800v-80h59.999v139.999H735.386ZM800-400v-80h59.999v80H800Z"/></svg>