<svg xmlns="http://www.w3.org/2000/svg" height="20" viewBox="0 -960 960 960" width="20"><path d="M76.782-172.782v-98.001h98.001v98.001H76.782Zm0-170.001v-72h98.001v72H76.782Zm0-144v-72h98.001v72H76.782Zm0-144v-156.435h156.435v98.001h-58.434v58.434H76.782Zm182.001 458.001v-98.001h72v98.001h-72Zm58.434-516.435v-98.001h72v98.001h-72Zm97.566 516.435v-98.001h72v98.001h-72Zm58.434-348.435v-266.001h410.001v266.001H473.217Zm97.566 348.435v-98.001h72v98.001h-72Zm156 0v-98.001h58.434v-58.434h98.001v156.435H726.783Zm58.434-216.435v-72h98.001v72h-98.001Z"/></svg>