<svg xmlns="http://www.w3.org/2000/svg" height="20" viewBox="0 -960 960 960" width="20"><path d="M87.87-183.869v-83.001h83v83.001h-83Zm0-155.001v-72h83v72h-83Zm0-144v-72h83v72h-83Zm0-144v-149.261h149.26v83.001h-66.26v66.26h-83Zm167 443.001v-83.001h72v83.001h-72Zm66.26-509.261v-83.001h72v83.001h-72Zm89.74 509.261v-83.001h72v83.001h-72Zm66.26-341.261v-251.001h395.001v251.001H477.13Zm89.74 341.261v-83.001h72v83.001h-72Zm156 0v-83.001h66.26v-66.26h83.001v149.261H722.87Zm66.26-209.261v-72h83.001v72H789.13Z"/></svg>