<svg xmlns="http://www.w3.org/2000/svg" height="24" viewBox="0 -960 960 960" width="24"><path d="M251.87-478q0 41.609 16.152 81.565 16.152 39.956 49.891 74.826l5.478 5.478v-39.912q0-18.696 12.914-31.327Q349.218-400 367.913-400q18.696 0 31.327 12.63 12.63 12.631 12.63 31.327v154.347q0 22.087-15.457 37.544-15.456 15.457-37.543 15.457H205.087q-18.696 0-31.326-12.913-12.631-12.913-12.631-31.609t12.914-31.326q12.913-12.631 31.608-12.631h46.825l-8.651-8.347q-52.566-49.392-75.261-110.088Q145.869-416.304 145.869-478q0-99.652 52.804-180.957 52.805-81.305 140.588-122.87 17.957-9.13 36 1.544 18.044 10.674 24.174 31.761 5.566 20.087-2.478 39.327-8.044 19.239-26.566 29.5-54.043 30.304-86.282 83.978Q251.87-542.043 251.87-478Zm456.26-4q0-41.609-16.152-81.565-16.152-39.956-49.891-74.826l-5.478-5.478v39.912q0 18.696-12.631 31.327Q611.348-560 592.652-560q-18.696 0-31.609-12.913t-12.913-31.609v-153.782q0-22.087 15.457-37.544 15.456-15.457 37.543-15.457h153.783q18.696 0 31.326 12.631 12.631 12.63 12.631 31.326 0 18.696-12.631 31.609-12.63 12.913-31.326 12.913h-47.39l8.651 8.347q50.696 51.261 74.327 111.022 23.63 59.761 23.63 121.457 0 99.652-52.804 180.957-52.805 81.305-140.588 122.87-17.957 9.13-36-1.544-18.044-10.674-24.174-31.761-5.566-20.087 2.478-39.327 8.044-19.239 26.566-29.5 54.043-30.304 86.282-83.978Q708.13-417.957 708.13-482Z"/></svg>