<svg xmlns="http://www.w3.org/2000/svg" height="24" viewBox="0 -960 960 960" width="24"><path d="M200-800v253.308-1V-160v-640 160-160Zm120 380h123.846q5.923-11.461 12.769-21.077 6.846-9.615 14.616-18.923H320q-8.5 0-14.25 5.758-5.75 5.757-5.75 14.269t5.75 14.242Q311.5-420 320-420Zm0 160h95.461q-2.115-10-2.75-20-.634-10-.173-20H320q-8.5 0-14.25 5.758-5.75 5.757-5.75 14.269t5.75 14.242Q311.5-260 320-260Zm-95.522 140Q197-120 178.5-138.5T160-184.615v-590.77Q160-803 178.5-821.5 197-840 224.615-840h288.539q13.265 0 25.286 5.231 12.021 5.23 20.714 13.923l141.692 141.692q8.693 8.693 13.923 20.714Q720-646.419 720-633.154v93.923q-9.769-3.384-19.769-4.808-10-1.423-20.231-2.653V-640H551.986q-13.602 0-22.794-9.2T520-672v-128H224.615q-9.23 0-16.923 7.692Q200-784.615 200-775.385v590.77q0 9.23 7.692 16.923Q215.385-160 224.615-160h231q7.429 11.503 16.715 21.329 9.285 9.825 19.439 18.671H224.478Zm435.674-67.692q47.233 0 79.694-32.614 32.462-32.613 32.462-79.846 0-47.233-32.614-79.694-32.613-32.462-79.846-32.462-47.233 0-79.694 32.614-32.462 32.613-32.462 79.846 0 47.233 32.614 79.694 32.613 32.462 79.846 32.462ZM878.209-81.846q-5.561 5.615-14.154 5.615-8.594 0-14.209-5.615l-96.923-97.692Q733.462-164 709.731-155.846T660-147.692q-63.462 0-107.885-44.423T507.692-300q0-63.462 44.423-107.885T660-452.308q63.462 0 107.885 44.423T812.308-300q0 26-8.154 49.731t-23.692 43.192l97.692 96.923q5.615 5.547 5.615 14.12t-5.56 14.188Z"/></svg>