<svg xmlns="http://www.w3.org/2000/svg" height="24" viewBox="0 -960 960 960" width="24"><path d="M681.761-200Q714-200 736.5-222.261q22.5-22.26 22.5-54.5Q759-309 736.739-331.5q-22.26-22.5-54.5-22.5Q650-354 627.5-331.739q-22.5 22.26-22.5 54.5Q605-245 627.261-222.5q22.26 22.5 54.5 22.5ZM930-29q-18 18-44 18t-44-18l-68-67q-21 11-44.193 16.5Q706.613-74 682-74q-84.583 0-143.792-59.208Q479-192.417 479-277t59.208-143.792Q597.417-480 682-480t143.792 59.208Q885-361.583 885-277q0 24.613-5.5 47.807Q874-206 863-185l67 68q18 18 18 44t-18 44ZM212-46q-53 0-89.5-36.5T86-172v-616q0-53 36.5-89.5T212-914h270q25.244 0 48.122 9.5T571-877l186 186q18 18 27.5 40.878T794-602v65q-26-11-54.289-17-28.29-6-57.711-6-53.438 0-99.719 18Q536-524 498-492H327q-10 0-18.672 3.469t-15.031 9.828q-6.359 6.359-9.828 15.031Q280-455 280-445.333q0 20.541 13.513 34.437Q307.025-397 327-397h99q-8 15-13 31.5t-9 33.5h-77q-19.975 0-33.487 13.518Q280-304.965 280-284.982 280-265 293.513-251q13.512 14 33.487 14h75q8 58 38 107.5T518-46H212Zm256-742v137q0 26 18.5 44.5T531-588h137L468-788l200 200-200-200Z"/></svg>