<svg xmlns="http://www.w3.org/2000/svg" height="24" viewBox="0 -960 960 960" width="24"><path d="M22.477-431.521v-96.958H280v96.958H22.477Zm281.305-156.261-95.87-96.436 67.87-67.87 96.436 95.87-68.436 68.436ZM431.521-680v-257.523h96.958V-680h-96.958Zm224.697 92.218-68.436-68.436 96.436-95.87 67.87 67.87-95.87 96.436ZM680-431.521v-96.958h257.523v96.958H680Zm-199.9 80q-53.491 0-91.035-37.444T351.521-479.9q0-53.491 37.444-91.035t90.935-37.544q53.491 0 91.035 37.444t37.544 90.935q0 53.491-37.444 91.035T480.1-351.521Zm204.118 143.609-96.436-95.87 68.436-68.436 95.87 96.436-67.87 67.87Zm-408.436 0-67.87-67.87 95.87-96.436 68.436 68.436-96.436 95.87ZM431.521-22.477V-280h96.958v257.523h-96.958Z"/></svg>