<svg xmlns="http://www.w3.org/2000/svg" height="20" viewBox="0 -960 960 960" width="20"><path d="M40.587-440.413v-79.174H288v79.174H40.587ZM316.37-588.37l-85.022-85.26 55.022-56.022 86.26 85.022-56.26 56.26ZM440.413-672v-247.413h79.174V-672h-79.174Zm203.217 84.63-56.26-56.26 85.26-85.022 56.022 56.022-85.022 85.26ZM672-440.413v-79.174h247.413v79.174H672Zm-191.958 84q-52.477 0-88.053-35.534t-35.576-88.011q0-52.477 35.534-88.053t88.011-35.576q52.477 0 88.053 35.534t35.576 88.011q0 52.477-35.534 88.053t-88.011 35.576ZM672.63-231.348l-85.26-85.022 56.26-56.26 85.022 85.26-56.022 56.022Zm-386.26 0-56.022-55.022 85.022-86.26 56.26 56.26-85.26 85.022ZM440.413-40.587V-288h79.174v247.413h-79.174Z"/></svg>