<svg xmlns="http://www.w3.org/2000/svg" height="24" viewBox="0 -960 960 960" width="24"><path d="M66-390v-181q0-16.033 10.767-26.517Q87.533-608 104-608q16.033 0 26.517 10.483Q141-587.033 141-571v43h40v-43q0-16.033 10.767-26.517Q202.533-608 219-608q16.033 0 26.517 10.483Q256-587.033 256-571v182q0 16.033-10.477 26.517Q235.047-352 219.023-352 203-352 192-362.767 181-373.533 181-390v-62h-40v63q0 16.033-10.477 26.517Q120.047-352 104.023-352 88-352 77-362.767 66-373.533 66-390Zm230-9v-162q0-20.367 13.317-33.683Q322.633-608 343-608h71q16.467 0 27.233 10.767Q452-586.467 452-570t-10.767 27.233Q430.467-532 414-532h-42v15h50q13 0 21.5 8.5T452-487q0 13-8.5 21.5T422-457h-50v29h42q16.467 0 27.233 10.767Q452-406.467 452-390t-10.767 27.233Q430.467-352 414-352h-71q-20.367 0-33.683-13.317Q296-378.633 296-399Zm210-5-27-161q-3-17 8.5-30t28.915-13q13.683 0 23.634 8.5T552-577l26 157 27-157q2-14 11.951-22.5t23.634-8.5Q658-608 669.5-595t8.5 30l-27 161q-3.796 22.829-21.51 37.415Q611.776-352 589-352h-20.706q-23.294 0-40.907-14.585Q509.774-381.171 506-404Zm245.33 52q-20.33 0-33.83-13.8T704-400v-160q0-20.4 13.513-34.2Q731.025-608 751-608h95.67q20.33 0 33.83 13.8T894-560v29q0 16.033-10.477 26.517Q873.047-494 857.023-494 841-494 830-504.419q-11-10.42-11-26.355V-532h-40v104h40v-1q0-16.467 10.767-27.233Q840.533-467 857-467q16.033 0 26.517 10.767Q894-445.467 894-429v29q0 20.4-13.513 34.2Q866.975-352 847-352h-95.67Z"/></svg>