<svg xmlns="http://www.w3.org/2000/svg" height="20" viewBox="0 -960 960 960" width="20"><path d="M90-407.946v-144.677q0-13.41 9.067-22.394Q108.133-584 122-584q13.433 0 22.217 8.783Q153-566.433 153-553v33h48v-32.683q0-13.35 9.067-22.334Q219.133-584 233-584q13.433 0 22.217 8.768Q264-566.464 264-553.054v145.677q0 13.41-8.777 22.394-8.776 8.983-22.2 8.983-13.423 0-22.723-9.067Q201-394.133 201-408v-48h-48v48.663q0 13.37-8.777 22.354-8.776 8.983-22.2 8.983-13.423 0-22.723-9.051-9.3-9.052-9.3-22.895ZM312-420v-120q0-18.367 12.817-31.183Q337.633-584 356.183-584H416q13.867 0 22.933 9.067Q448-565.867 448-552q0 13.867-9.067 22.933Q429.867-520 416-520h-40v19h48q10.4 0 17.2 6.8 6.8 6.8 6.8 17.2 0 10.4-6.8 17.2-6.8 6.8-17.2 6.8h-48v13h40q13.867 0 22.933 9.067Q448-421.867 448-408q0 13.867-9.067 22.933Q429.867-376 416-376h-59.817q-18.55 0-31.366-12.817Q312-401.633 312-420Zm219 19-48-143q-5-14 5.403-27 10.403-13 26.012-13 10.831 0 18.708 5.5Q541-573 543-562l29 88 30-88q2-11 9.877-16.5 7.877-5.5 18.708-5.5 15.609 0 26.012 13T662-544l-49 143q-2.796 10.829-11.01 17.915Q593.776-376 582-376h-18.706q-11.946 0-20.733-7.085Q533.774-390.171 531-401Zm220.33 25q-23.73 0-39.53-16.1T696-432v-96q0-23.8 15.812-39.9Q727.625-584 751-584h63.67q23.73 0 39.53 16.1T870-528v9q0 13.433-8.777 22.217-8.776 8.783-22.2 8.783-13.423 0-22.723-8.774-9.3-8.774-9.3-22.194V-520h-48v80h48v-.786q0-13.681 9.067-22.947Q825.133-473 839-473q13.433 0 22.217 9.067Q870-454.867 870-441v9q0 23.8-15.812 39.9Q838.375-376 815-376h-63.67Z"/></svg>