<svg xmlns="http://www.w3.org/2000/svg" height="20" viewBox="0 -960 960 960" width="20"><path d="M113.477-407.946v-144.243q0-12.091 8.081-20.212t20.441-8.121q12.114 0 20.035 7.921 7.921 7.921 7.921 20.036v36.043h48v-35.726q0-12.032 8.082-20.153 8.081-8.121 20.44-8.121 12.115 0 20.036 7.906 7.921 7.906 7.921 19.997v144.808q0 12.091-7.917 20.212-7.918 8.121-20.026 8.121-12.109 0-20.322-8.081-8.214-8.081-8.214-20.441v-51.478h-48v51.706q0 12.052-7.917 20.173-7.917 8.121-20.026 8.121t-20.322-8.066q-8.213-8.066-8.213-20.402Zm208.957-8.141v-127.826q0-15.164 10.723-25.886 10.722-10.723 26.069-10.723h63.73q12.36 0 20.441 8.081T451.478-552q0 12.36-8.081 20.441t-20.441 8.081h-43.478v21.174h48q10.4 0 17.2 6.8 6.8 6.8 6.8 17.2 0 10.4-6.8 17.2-6.8 6.8-17.2 6.8h-48v17.782h43.478q12.36 0 20.441 8.081T451.478-408q0 12.36-8.081 20.441t-20.441 8.081h-63.73q-15.347 0-26.069-10.723-10.723-10.722-10.723-25.886Zm211.609 16.391-48-144.739q-4.565-12.695 4.534-24.391 9.099-11.696 23.223-11.696 9.664 0 16.693 4.848 7.029 4.848 9.029 14.544l29 87.13 29.565-87.13q2-9.696 9.029-14.544 7.029-4.848 16.694-4.848 14.123 0 23.222 11.696 9.099 11.696 4.534 24.391l-49 144.739q-2.45 8.73-9.049 14.474-6.6 5.744-16.299 5.744h-16.66q-9.645 0-16.861-5.744-7.216-5.744-9.654-14.474Zm203.666 20.218q-22.282 0-37.213-15.1-14.93-15.1-14.93-37.422v-96q0-22.322 14.937-37.422 14.938-15.1 37.02-15.1h56.857q22.282 0 37.213 15.1 14.93 15.1 14.93 37.422v5.522q0 12.115-7.917 20.036-7.917 7.921-20.026 7.921t-20.322-7.94q-8.213-7.94-8.213-20.083v-.934h-48v86.956h48v-.786q0-12.174 8.081-20.455 8.081-8.281 20.441-8.281 12.114 0 20.035 8.081 7.921 8.081 7.921 20.441V-432q0 22.322-14.937 37.422-14.938 15.1-37.019 15.1h-56.858Z"/></svg>