<svg xmlns="http://www.w3.org/2000/svg" height="24" viewBox="0 -960 960 960" width="24"><path d="M480.158-287.348q80.016 0 135.972-55.951 55.957-55.951 55.957-136.984 0-7.717-.5-15.152t-1.935-15.435q-11 45.87-47.478 74.957-36.478 29.087-85.435 29.087-57.174 0-97.043-39.587-39.87-39.587-39.87-96.761 0-44.869 25.435-79.674 25.435-34.804 65.174-49.239h-10.617q-80.427 0-136.448 55.957-56.022 55.956-56.022 135.972 0 80.98 55.915 136.895 55.915 55.915 136.895 55.915Zm39.146-211.522 56.821-41.467 55.857 41.467-22.151-65.576 56.821-41.467-69.739.435-20.87-66.609-21.434 66.609-70.174-.435 57.304 41.304-22.435 65.739Zm-176.13 345.088h-83.39q-43.726 0-74.864-31.138-31.138-31.138-31.138-74.864v-83.39l-60.173-61.173Q61.696-435.26 61.696-480q0-44.74 31.913-75.653l60.173-61.065v-84.064q0-43.725 31.138-74.863 31.138-31.138 74.864-31.138h83.39l61.173-60.738Q435.26-899.435 480-899.435q44.74 0 75.653 31.914l61.065 60.738h84.064q43.725 0 74.863 31.138 31.138 31.138 31.138 74.863v84.064l60.738 61.065Q899.435-524.74 899.435-480q0 44.74-31.914 75.653l-60.738 61.173v83.39q0 43.726-31.138 74.864-31.138 31.138-74.863 31.138h-84.064l-61.065 60.173Q524.74-61.696 480-61.696q-44.74 0-75.653-31.913l-61.173-60.173Z"/></svg>