<svg xmlns="http://www.w3.org/2000/svg" height="20" viewBox="0 -960 960 960" width="20"><path d="M537-407q-57 0-97-39.5T400-543q0-45 25.5-80t65.5-49h-11q-81 0-136.5 56T288-480q0 81 55.5 136.5T480-288q80 0 136-55.5T672-480q0-8-.5-15.5T669-511q-11 45-47.5 74.5T537-407Zm5-161-21 64 55-40 54 40-21-64 55-39h-68l-20-65-21 65h-68l55 39ZM346-160H244q-35 0-59.5-24.5T160-244v-102l-73-74q-24-25-24-60t24-60l73-74v-103q0-35 24.5-59.5T244-801h102l74-73q25-24 60-24t60 24l74 73h103q35 0 59.5 24.5T801-717v103l73 74q24 25 24 60t-24 60l-73 74v102q0 35-24.5 59.5T717-160H614l-74 73q-25 24-60 24t-60-24l-74-73Z"/></svg>