<svg xmlns="http://www.w3.org/2000/svg" height="24" viewBox="0 -960 960 960" width="24"><path d="M481.696-730.174q-36.957 0-62.718-26.044-25.761-26.044-25.761-63 0-36.392 26.044-62.435 26.043-26.044 62.435-26.044 36.391 0 62.435 26.044 26.043 26.043 26.043 62.435 0 36.956-25.761 63-25.761 26.044-62.717 26.044Zm193.782 601.13V-280H501.479q-44.305 0-75.153-30.848-30.848-30.848-30.848-75.153v-218.521q0-35.826 25.196-60.739 25.196-24.913 61.022-24.913 21.739 0 38.391 8.521 16.652 8.522 36.652 29.826 42.739 46.652 82.348 71.087 39.609 24.434 85 34.13 18.696 4.131 32.109 17.826 13.413 13.696 13.413 32.392 0 18.696-13.63 30.826-13.631 12.131-31.327 8.565-41.173-8-80.978-24.891-39.804-16.891-70.673-39.499v128.39h102.477q40.348 0 68.935 28.588 28.588 28.587 28.588 68.935v166.999q0 20.392-14.044 34.435Q744.913-80 724.522-80q-20.392 0-34.718-14.326-14.326-14.326-14.326-34.718Zm-280 57.523q-86.391 0-147.435-61.044T186.999-280q0-74.826 48.044-133.218 48.044-58.391 120.435-71.261v100.088q-32.174 14-51.565 41.957-19.391 27.956-19.391 62.434 0 46.609 32.174 79.065 32.174 32.456 78.782 32.456 34.478 0 62.434-19.673 27.957-19.674 41.957-51.848h100.653q-12.87 72.391-71.544 120.435t-133.5 48.044Z"/></svg>