<svg xmlns="http://www.w3.org/2000/svg" height="20" viewBox="0 -960 960 960" width="20"><path d="M507.598-685.231q-29.367 0-50.406-21.286-21.038-21.286-21.038-50.654 0-29.368 21.286-50.406 21.286-21.039 50.654-21.039 29.368 0 50.406 21.287 21.039 21.286 21.039 50.654 0 29.367-21.287 50.406-21.286 21.038-50.654 21.038Zm201.479 542.769V-300q0-9.231-5.385-14.615Q698.308-320 689.077-320H509.385q-22.008 0-37.774-14.615-15.765-14.616-15.765-38.923V-588q0-21.308 14.409-36.654Q484.663-640 505.846-640q13 0 23.539 6.808 10.538 6.807 21.769 22.038 37.385 47.615 79.654 74.731 42.269 27.115 97.884 36.654 7.539 1.23 12.27 6.22 4.73 4.989 4.73 11.769t-5.23 11.511q-5.231 4.731-12.472 3.591-48.759-6.63-86.375-26.745-37.615-20.115-87.923-69.884v205.461h122.847q27.307 0 45.923 19.29 18.615 19.291 18.615 46.248v150.09q0 6.295-4.52 11.026t-11.27 4.731q-6.749 0-11.479-4.581-4.731-4.581-4.731-11.42Zm-321.231 16.001q-71.218 0-122.378-51.16T214.308-300q0-77.692 56-129.077 56-51.385 137.538-46.769v30.462q-66.923-6.154-114.231 36.923Q246.308-365.385 246.308-300q0 59.231 41.154 100.385 41.153 41.153 100.384 41.153 50.385 0 88.462-32.307 38.076-32.308 46.923-81.231h33.461q-10.846 64-57.769 104.769-46.923 40.77-111.077 40.77Z"/></svg>