<svg xmlns="http://www.w3.org/2000/svg" height="20" viewBox="0 -960 960 960" width="20"><path d="M503.752-696Q469-696 444.5-720.748t-24.5-59.5Q420-815 444.748-839.5t59.5-24.5Q539-864 563.5-839.252t24.5 59.5Q588-745 563.252-720.5t-59.5 24.5ZM696-144v-156H504q-29.7 0-50.85-20Q432-340 432-372v-216q0-29 20.562-50.5Q473.125-660 502-660q23 0 37 9.5t26 25.5q32 43 73.5 70.5T731-519q16 2 26.5 12.759 10.5 10.758 10.5 26Q768-465 757-454.5t-25.933 8.591Q690-451 652-466.5 614-482 576-511v127h109q35 0 59 24.675T768-300v156.244Q768-129 757.711-118.5q-10.29 10.5-25.5 10.5Q717-108 706.5-118.35 696-128.7 696-144Zm-312 36q-79.68 0-135.84-56.16T192-300q0-80 56-136t136-56v72q-50 0-85 35t-35 85q0 50 35 85t85 35q35 0 65-20t45-52h75q-17 64-67.769 104Q450.462-108 384-108Z"/></svg>