<svg xmlns="http://www.w3.org/2000/svg" height="24" viewBox="0 -960 960 960" width="24"><path d="M796.539-276.154 767-305.692q21.846-36.385 35.538-78.039 13.693-41.654 16.693-87.346-53.077-21.231-82.731-60-29.654-38.769-35.039-93.461-82.384-7.154-137.769-59.077Q508.308-735.538 503-820.231q-55.923-4.307-106.538 9.231-50.616 13.539-94.077 40.692l-29.308-29.307Q322-831.539 378.692-846.039q56.693-14.5 119.693-14.5 16.692 0 29.154 8.539Q540-843.462 540-828.308q0 71 51.077 116.654Q642.154-666 709.769-663.539q13.154.308 22.193 9.731 9.038 9.423 8.807 22.577-.461 40.923 27.193 75.308 27.653 34.384 64.115 46.308 11.462 3.538 19.692 12.269 8.231 8.731 7.462 20.192-1.539 53.308-17.539 104.731-16 51.423-45.153 96.269ZM340-367.692q-21.154 0-36.731-15.577-15.577-15.577-15.577-36.731 0-21.923 15.577-37.115 15.577-15.193 36.731-15.193 21.923 0 37.115 15.193 15.193 15.192 15.193 37.115 0 21.154-15.193 36.731-15.192 15.577-37.115 15.577ZM480-120q-74.539 0-140.231-28.423t-114.308-77.038q-48.615-48.616-77.038-114.308Q120-405.461 120-480q0-64.308 20.846-120.962 20.846-56.653 58.231-103.115L89.615-813.538q-5.846-5.847-6.23-13.885-.385-8.039 6.23-14.654 6.616-6.615 14.269-6.615 7.654 0 14.27 6.615l740.615 740.615q5.846 5.847 6.231 13.77.385 7.923-6.231 14.538-6.615 6.616-14.269 6.616t-14.269-6.616L704.077-199.077q-46.462 37.385-103.115 58.231Q544.308-120 480-120Zm0-40q55.769 0 105.115-18.154t89.962-49.923l-447-447q-31.769 40.616-49.923 89.962Q160-535.769 160-480q0 133 93.5 226.5T480-160Zm-28.308-291.692Zm83-86.308Z"/></svg>