<svg xmlns="http://www.w3.org/2000/svg" height="20" viewBox="0 -960 960 960" width="20"><path d="M798-264 262-800q55-39 120-52.5T515-866q17 0 29.5 12t12.5 29q0 68 47 110.5T718-675q14-1 23 9t8 24q-3 40 20 73.5t62 44.5q14 4 23.5 16t9.5 27q1 60-15.5 114T798-264Zm-474-96q25 0 42.5-17.5T384-420q0-25-17.5-42.5T324-480q-25 0-42.5 17.5T264-420q0 25 17.5 42.5T324-360ZM480-96q-79 0-149-30t-122.5-82.5Q156-261 126-331T96-480q0-58 17-112.5T162-696l-41-41q-11-11-11-25.5t11-25.5q11-11 25.5-11t25.5 11l616 616q11 11 11 25t-11 25q-11 11-25.5 11T737-122l-41-40q-49 32-103.5 49T480-96Z"/></svg>