<svg xmlns="http://www.w3.org/2000/svg" height="20" viewBox="0 -960 960 960" width="20"><path d="m798-264-53-53q19.8-31.912 31.9-68.456Q789-422 792-462q-45-18-75-55.5T679-603q-76-11-129-63t-63-126q-47-3-90.5 9T315-747l-53-53q55-39 120-52.5T515-866q16.979 0 29.489 12Q557-842 557-825q0 68 47 110.5T718-675q14-1 23 9.119T749-642q-3 40 20 73.5t62 44.5q14 4 23.5 16t9.5 27q1 60-15.5 114T798-264Zm-474-96q-25 0-42.5-17.5T264-420q0-25 17.5-42.5T324-480q25 0 42.5 17.5T384-420q0 25-17.5 42.5T324-360ZM480-96q-79.376 0-149.188-30Q261-156 208.5-208.5T126-330.812Q96-400.624 96-480q0-58 17-112.5T162-696l-41-41q-11-10.667-11-25.333Q110-777 121-788q11-11 25.667-11 14.666 0 25.333 11l616 616q11 10.636 11 24.818Q799-133 788-122q-11 11-25.667 11-14.666 0-25.333-11l-41-40q-49 32-103.5 49T480-96Zm.11-72Q524-168 565-181t79-34L215-644q-21 38-34 79t-13 84.89q0 129.721 91.195 220.915Q350.389-168 480.11-168ZM420-420Zm110-112Z"/></svg>