<svg xmlns="http://www.w3.org/2000/svg" height="24" viewBox="0 -960 960 960" width="24"><path d="M796.539-276.154 273.077-799.615Q322-831.539 378.692-846.039q56.693-14.5 119.693-14.5 16.692 0 29.154 8.539Q540-843.462 540-828.308q0 71 51.077 116.654Q642.154-666 709.769-663.539q13.154.308 22.193 9.731 9.038 9.423 8.807 22.577-.461 40.923 27.193 75.308 27.653 34.384 64.115 46.308 11.462 3.538 19.692 12.269 8.231 8.731 7.462 20.192-1.539 53.308-17.539 104.731-16 51.423-45.153 96.269ZM340-367.692q21.923 0 37.115-15.577 15.193-15.577 15.193-36.731 0-21.923-15.193-37.115-15.192-15.193-37.115-15.193-21.154 0-36.731 15.193-15.577 15.192-15.577 37.115 0 21.154 15.577 36.731 15.577 15.577 36.731 15.577ZM480-120q-74.539 0-140.231-28.423t-114.308-77.038q-48.615-48.616-77.038-114.308Q120-405.461 120-480q0-64.308 20.846-120.962 20.846-56.653 58.231-103.115L89.615-813.538q-5.846-5.847-6.23-13.885-.385-8.039 6.23-14.654 6.616-6.615 14.269-6.615 7.654 0 14.27 6.615l740.615 740.615q5.846 5.847 6.231 13.77.385 7.923-6.231 14.538-6.615 6.616-14.269 6.616t-14.269-6.616L704.077-199.077q-46.462 37.385-103.115 58.231Q544.308-120 480-120Z"/></svg>