<svg xmlns="http://www.w3.org/2000/svg" height="24" viewBox="0 -960 960 960" width="24"><path d="M791-281 277-795q48-31 102.5-45.5T494-855q16 0 28 7.5t12 21.5q0 74 52 118.5T707-658q12 1 20 9.5t8 20.5q0 40 28 74.5t64 48.5q11 4 19 12.5t7 19.5q-2 51-18 100t-44 92Zm-451-89q21 0 35.5-15t14.5-35q0-21-14.5-35.5T340-470q-20 0-35 14.5T290-420q0 20 15 35t35 15Zm140 238q-72 0-135.5-27.5T234-234q-47-47-74.5-110.5T132-480q0-65 22-122t61-103L100-820q-4-4-4.5-9.5T100-840q5-5 10-5t10 5L862-98q4 4 4.5 9.5T862-78q-5 5-10 5t-10-5L705-215q-46 39-103 61t-122 22Z"/></svg>