<svg xmlns="http://www.w3.org/2000/svg" height="20" viewBox="0 -960 960 960" width="20"><path d="M480.174-148Q412-148 351.442-173.891q-60.559-25.892-106.075-71.348-45.515-45.457-71.441-105.935Q148-411.652 148-479.826q0-69.174 25.905-129.232 25.905-60.059 71.385-105.574 45.48-45.516 105.99-71.442Q411.79-812 480-812q53 0 103 16t94 47q5 4 5.5 8t-2.5 8q-3 4-8 3.5t-8-4.5q-40-29-87-43.5T480-792q-130 0-221 91t-91 221q0 130 91 221t221 91q130 0 221-91t91-221q0-20.391-1.5-41.196Q789-542 784-562q-2-4.021 0-7.01 2-2.99 5.182-2.99 4.818 0 8.318 4.5t5.5 9.5q4 18 6.5 37.907Q812-500.186 812-480q0 68.21-25.891 128.72-25.892 60.51-71.348 105.99-45.457 45.48-105.435 71.385Q549.348-148 480.174-148ZM424-374l366-365q4-4 7.5-4t7.717 4.217Q810-734 810-731.5t-5 7.5L441-361q-8 8-18 8t-18-8l-99-99q-4-4-4.5-7.5t4.5-8.5q5-5 8-5t8 5l102 102Z"/></svg>