<svg xmlns="http://www.w3.org/2000/svg" height="24" viewBox="0 -960 960 960" width="24"><path d="M695.118-649Q666-649 646-669.125 626-689.25 626-718q0-15 13-40t34-51q9-10 22.5-10t22.5 10q21 26 34 51t13 40q0 28.75-20.382 48.875Q724.235-649 695.118-649Zm131.093 307Q778-342 744.5-375.35T711-457q0-32 24-77.5t57-89.5q14-16 34-16t34 16q33 44 57 89.5t24 77.5q0 48.3-33.289 81.65-33.288 33.35-81.5 33.35ZM311-302v40q0 17 11.5 28.5T351-222q17 0 28.5-11.5T391-262v-40h40q17 0 28.5-11.5T471-342q0-17-11.5-28.5T431-382h-40v-40q0-17-11.5-28.5T351-462q-17 0-28.5 11.5T311-422v40h-40q-17 0-28.5 11.5T231-342q0 17 11.5 28.5T271-302h40ZM200-19q-53 0-89.5-36.5T74-145v-335q0-97 57-170t157-99v-66h-43q-26 0-44.5-18.5T182-878q0-26 18.5-44.5T245-941h244q44.907 0 81.801 13.467 36.893 13.466 48.431 24.866Q634-895 643-880.312q9 14.687 9 32.312 0 25.925-18.146 43.463Q615.707-787 590-787q-9 0-34-10-15.281-8.4-31.737-13.2Q507.807-815 489-815h-75v66q100 26 157 99t57 170v335q0 53-36.5 89.5T502-19H200Z"/></svg>