<svg xmlns="http://www.w3.org/2000/svg" height="20" viewBox="0 -960 960 960" width="20"><path d="M699.545-629.087q-28.327 0-46.74-18.484-18.414-18.484-18.414-46.603 0-19.739 14.022-42.739 14.022-23 33.109-45.783 6.696-7.696 18.239-7.696 11.544 0 18.24 7.696 19.087 22.783 33.108 45.783 14.022 23 14.022 42.739 0 27.119-18.629 46.103t-46.957 18.984Zm106.773 255.261q-38.708 0-65.752-26.818-27.043-26.819-27.043-65.66 0-31.305 19.521-64.305 19.522-33 45.798-68.174 11.033-13.826 27.189-13.826t27.188 13.826q26.218 35.174 45.739 68.174 19.522 33 19.522 64.305 0 38.841-26.727 65.66-26.727 26.818-65.435 26.818Zm-450.015 60v48q0 15.3 10.289 25.65 10.29 10.35 25.5 10.35 15.211 0 25.711-10.35 10.5-10.35 10.5-25.65v-48h48q15.3 0 25.65-10.289 10.35-10.29 10.35-25.5 0-15.211-10.35-25.711-10.35-10.5-25.65-10.5h-48v-48q0-15.3-10.29-25.65-10.289-10.35-25.5-10.35-15.21 0-25.71 10.35t-10.5 25.65v48h-48q-15.3 0-25.65 10.29-10.35 10.289-10.35 25.5 0 15.21 10.35 25.71t25.65 10.5h48ZM241.39-159.521h301.826V-468q0-63.304-43.805-107.109-43.804-43.804-107.608-43.804t-107.109 43.804Q241.39-531.304 241.39-468v308.479Zm0 0h301.826H241.39Zm0 98.001q-41.005 0-69.503-28.498-28.498-28.498-28.498-69.503V-466q0-88.957 54-156.913 54-67.957 145.913-88.74v-88.826h-37.485q-20.298 0-34.754-14.246-14.457-14.246-14.457-34.544 0-20.298 14.307-34.754 14.306-14.457 34.694-14.457h204.87q33.035 0 65.28 8.459 32.244 8.46 60.504 26.078 10.13 6.507 17.326 17.157 7.196 10.649 7.196 24.675 0 20.41-14.304 34.217-14.303 13.807-34.566 13.807-4.565 0-23.783-5.696-18.094-9.658-37.58-15.177-19.486-5.519-40.073-5.519h-69.173v87.826q92.623 20.495 148.768 89.096 56.145 68.6 56.145 157.557v306.479q0 41.005-28.848 69.503-28.848 28.498-69.153 28.498H241.39Z"/></svg>