<svg xmlns="http://www.w3.org/2000/svg" height="24" viewBox="0 -960 960 960" width="24"><path d="M661.584-626.154q-18.892 0-32.161-13.24-13.269-13.24-13.269-32.154 0-14.375 11.885-33.991 11.884-19.615 20.807-29.769 5.039-6.231 12.596-6.231 7.558 0 12.789 6.231 8.923 10.154 20.808 29.58 11.884 19.426 11.884 34.189 0 18.911-13.224 32.148-13.224 13.237-32.115 13.237Zm88.579 236.923q-30.624 0-51.932-21.233-21.308-21.234-21.308-51.986 0-25.627 19.039-58.819 19.038-33.193 34.884-52.27Q738.349-583 750.021-583t19.133 9.461q15.407 19.163 34.665 52.697 19.258 33.534 19.258 58.744 0 30.252-21.145 51.56-21.145 21.307-51.769 21.307Zm-356.317 35.385v60q0 8.5 5.758 14.25t14.269 5.75q8.512 0 14.242-5.75 5.731-5.75 5.731-14.25v-60h60q8.5 0 14.25-5.758t5.75-14.269q0-8.512-5.75-14.242-5.75-5.731-14.25-5.731h-60v-60q0-8.5-5.758-14.25-5.757-5.75-14.269-5.75-8.511 0-14.242 5.75-5.731 5.75-5.731 14.25v60h-60q-8.5 0-14.25 5.758-5.75 5.757-5.75 14.269 0 8.511 5.75 14.242 5.75 5.731 14.25 5.731h60ZM281.267-141.538q-27.344 0-45.844-18.5t-18.5-46.116V-480q0-75.967 50.461-131.676Q317.846-667.385 393.846-676v-102.462h-50.769q-8.5 0-14.25-5.757-5.75-5.758-5.75-14.27 0-8.511 5.75-14.242 5.75-5.731 14.25-5.731H520q23.231 0 42.026 5.331 18.794 5.331 28.051 11.208 5.482 2.384 8.087 6.769 2.605 4.385 2.605 10.704 0 8.953-5.921 15.009-5.921 6.056-14.309 6.056-3.525 0-9.693-3.154-11.78-5.564-24.467-8.743-12.687-3.18-26.379-3.18h-86.154V-676q76 8.615 126.462 64.324Q610.769-555.967 610.769-480v273.846q0 27.616-18.5 46.116t-45.844 18.5H281.267Z"/></svg>