<svg xmlns="http://www.w3.org/2000/svg" height="24" viewBox="0 -960 960 960" width="24"><path d="M206.783-100.782q-44.305 0-75.153-30.848-30.848-30.848-30.848-75.153v-171.738q0-22.087 15.456-37.544 15.457-15.456 37.544-15.456 22.088 0 37.544 15.456 15.457 15.457 15.457 37.544v171.738h171.738q22.087 0 37.544 15.457 15.456 15.456 15.456 37.544 0 22.087-15.456 37.544-15.457 15.456-37.544 15.456H206.783Zm546.434 0H581.479q-22.087 0-37.544-15.456-15.456-15.457-15.456-37.544 0-22.088 15.456-37.544 15.457-15.457 37.544-15.457h171.738v-171.738q0-22.087 15.457-37.544 15.456-15.456 37.544-15.456 22.087 0 37.544 15.456 15.456 15.457 15.456 37.544v171.738q0 44.305-30.848 75.153-30.848 30.848-75.153 30.848ZM450-338.088l98.348-131.652q8.261-10.826 21.652-10.543 13.391.282 21.087 11.109l107.739 147q9.696 13.391 2.565 27.783Q694.261-280 677.739-280H282.261q-16.522 0-23.652-14.391-7.131-14.392 2.565-27.783l77.739-107q7.696-10.827 21.087-11.109 13.391-.283 21.652 10.543L450-338.088ZM100.782-753.217q0-44.305 30.848-75.153 30.848-30.848 75.153-30.848h171.738q22.087 0 37.544 15.456 15.456 15.457 15.456 37.544 0 22.088-15.456 37.544-15.457 15.457-37.544 15.457H206.783v171.738q0 22.087-15.457 37.544-15.456 15.456-37.544 15.456-22.087 0-37.544-15.456-15.456-15.457-15.456-37.544v-171.738Zm758.436 0v171.738q0 22.087-15.456 37.544-15.457 15.456-37.544 15.456-22.088 0-37.544-15.456-15.457-15.457-15.457-37.544v-171.738H581.479q-22.087 0-37.544-15.457-15.456-15.456-15.456-37.544 0-22.087 15.456-37.544 15.457-15.456 37.544-15.456h171.738q44.305 0 75.153 30.848 30.848 30.848 30.848 75.153ZM620-560q-26 0-43-17t-17-43q0-26 17-43t43-17q26 0 43 17t17 43q0 26-17 43t-43 17Z"/></svg>