<svg xmlns="http://www.w3.org/2000/svg" height="24" viewBox="0 -960 960 960" width="24"><path d="M460-306q64.167 0 109.083-44.917Q614-395.833 614-460v-154H460q-64.167 0-109.083 44.917Q306-524.167 306-460q0 28.108 8 54.054T341-360l-31 30q-5 5-5 10t5 10q5 5 10 5t10-5l30-31q21 18 47 26.5t53 8.5Zm20 192-114.791-89.836-143.904-17.469-17.469-143.904L114-480l89.836-114.791 17.469-143.904 143.904-17.469L480-846l114.791 89.836 143.904 17.469 17.469 143.904L846-480l-89.836 114.791-17.469 143.904-143.904 17.469L480-114Zm10-356q5-5 5-10t-5-10q-5-5-10-5t-10 5L370-390q-5 5-5 10t5 10q5 5 10.5 4.5t9.5-4.5l100-100Z"/></svg>