<svg xmlns="http://www.w3.org/2000/svg" height="24" viewBox="0 -960 960 960" width="24"><path d="M460-300q66.667 0 113.333-46.667Q620-393.333 620-460v-160H460q-66.667 0-113.333 46.667Q300-526.667 300-460q0 27.622 7.769 53.118 7.769 25.497 25.615 45.959l-27.538 26.769q-6.385 6.385-6.385 14.154t6.385 14.154q6.385 6.385 14.154 6.385t14.154-6.385l26.769-27.538q21.231 17.076 46.769 25.23Q433.231-300 460-300Zm20 203.077L359.853-190.95l-150.619-18.283-18.283-150.619L96.923-480l94.028-120.147 18.283-150.619 150.619-18.283L480-863.077l120.147 94.028 150.619 18.283 18.283 150.619L863.077-480l-94.028 120.147-18.283 150.619-150.619 18.283L480-96.923Zm14.154-368.923q6.385-6.615 6.385-14.269t-6.385-14.039q-6.385-6.385-14.039-6.385t-14.269 6.385L376-404.308q-6.615 6.615-6.615 14.269t6.615 14.27q6.616 6.615 14.654 6.23 8.039-.384 13.654-6.23l89.846-90.077Z"/></svg>