<svg xmlns="http://www.w3.org/2000/svg" height="20" viewBox="0 -960 960 960" width="20"><path d="M182.913-81.413v-367.022q-63.478-8.674-105.652-59.041T35.087-624h83q2 40.717 28.761 68.359Q173.609-528 211.413-528h19.5v-83.935q-42.478-17.674-70.652-63.541-28.174-45.868-29.174-97.024h83q2 37.717 27.261 65.859 25.261 28.141 52.065 28.141h-2.87L480-924.913 669.457-679.5h-2.87q26.804 0 52.065-28.141 25.261-28.142 27.261-65.859h83q0 51.252-28.174 97.691t-71.652 63.874V-528h19.5q36.804 0 63.565-27.641 26.761-27.642 29.761-68.359h83q-1 67.252-42.674 118.191-41.674 50.94-105.152 57.374v367.022h-251V-277h-92.174v195.587h-251Zm210.5-596.087h173.174L480-790.413 393.413-677.5Zm-79.5 149.5h332.174v-66.5H313.913v66.5Zm-48 363.587h85V-360h258.174v195.587h85V-445H265.913v280.587ZM480-444Zm0-235.5Zm0 152.5Z"/></svg>