<svg xmlns="http://www.w3.org/2000/svg" height="20" viewBox="0 -960 960 960" width="20"><path d="M697.143-142Q692-142 691-148t1-12q23-67 28-137.5T716-438q-15 86-82.038 140Q566.923-244 480-244q-74 0-124-39t-81-98q-31-59-44-130.5T218-646q0-40.203 6.5-79.601Q231-765 244-803q2-6.674 7-10.837Q256-818 262.857-818q5.143 0 6.143 6t-1 12q-23 67-28.5 137.319Q234-592.362 244-522q15-86 82.038-140Q393.077-716 480-716q72 0 122 38t81.5 96q31.5 58 45 129T742-314.016q0 40.208-7 79.612Q728-195 716-157q-2 6.674-7 10.837Q704-142 697.143-142ZM480-388q39 0 65.5-26.5T572-480q0-39-26.5-65.5T480-572q-39 0-65.5 26.5T388-480q0 39 26.5 65.5T480-388Zm-.212-20Q450-408 429-429.212q-21-21.213-21-51Q408-510 429.212-531q21.213-21 51-21Q510-552 531-530.788q21 21.213 21 51Q552-450 530.788-429q-21.213 21-51 21Z"/></svg>