<svg xmlns="http://www.w3.org/2000/svg" height="20" viewBox="0 -960 960 960" width="20"><path d="M761.143-96Q738-96 723.5-114t-7.5-38q13-36 18.5-73t7.5-75q-46 64-114.538 101.5Q558.923-161 480-161q-93.911 0-162.506-44.934-68.595-44.933-114.045-115.5Q158-392 135.5-478.852 113-565.703 113-648q0-41.464 5.5-81.732T135-809q6-22.674 23.7-38.837Q176.4-864 198.857-864 223-864 237-846.5t8 38.5q-14 36-20 72.819T218-660q46-64 114.538-101.5Q401.077-799 480-799q91.911 0 160.506 43.934 68.595 43.933 114.545 113.5Q801-572 824-485.148q23 86.851 23 173.132 0 41.469-6 81.743Q835-190 825-151q-6 22.674-23.7 38.837Q783.6-96 761.143-96ZM480-264q90 0 153-63t63-153q0-90-63-153t-153-63q-90 0-153 63t-63 153q0 90 63 153t153 63Zm0-57q67 0 113-46t46-113q0-67-46-113t-113-46q-67 0-113 46t-46 113q0 67 46 113t113 46Zm-.345-102Q456-423 439.5-439.845t-16.5-40.5Q423-504 439.845-520.5t40.5-16.5Q504-537 520.5-520.155t16.5 40.5Q537-456 520.155-439.5t-40.5 16.5Zm.345-57Z"/></svg>