<svg xmlns="http://www.w3.org/2000/svg" height="24" viewBox="0 -960 960 960" width="24"><path d="M776.348-80q-18.261 0-28.739-15.826-10.479-15.826-4.913-35.218 13.043-42.826 18.76-85.803 5.718-42.978 4.544-87.238-45.783 75.086-121.587 118.347Q568.609-142.477 480-142.477q-87.907 0-159.069-40.876-71.163-40.876-121.395-109.174-50.232-68.299-77.646-157.106Q94.477-538.441 94.477-634q0-49.887 5.218-98.335 5.217-48.447 17.521-96.186 5.566-22.957 24.24-37.218Q160.13-880 184.329-880q18.149 0 28.627 15.826 10.479 15.826 4.914 35.218-12.609 42.826-18.826 85.803-6.218 42.978-5.044 87.238 45.783-75.086 121.587-118.347Q391.391-817.523 480-817.523q87.907 0 159.069 40.876 71.163 40.876 121.395 109.174 50.232 68.299 77.645 157.106Q865.523-421.559 865.523-326q0 49.887-5.218 98.335-5.217 48.447-17.521 96.186-5.566 22.957-23.827 37.218Q800.696-80 776.348-80ZM480-311.521q69.957 0 119.218-49.261Q648.479-410.043 648.479-480t-49.261-119.218Q549.957-648.479 480-648.479t-119.218 49.261Q311.521-549.957 311.521-480t49.261 119.218Q410.043-311.521 480-311.521Zm-.075-96.958q-29.534 0-50.49-21.031-20.956-21.032-20.956-50.565 0-29.534 21.031-50.49 21.032-20.956 50.565-20.956 29.534 0 50.49 21.031 20.956 21.032 20.956 50.565 0 29.534-21.031 50.49-21.032 20.956-50.565 20.956Z"/></svg>