<svg xmlns="http://www.w3.org/2000/svg" height="20" viewBox="0 -960 960 960" width="20"><path d="M750.274-96q-19.23 0-30.469-15.826-11.24-15.826-5.109-33.218 16.043-43.826 21.76-89.303 5.718-45.478 5.544-91.738-40.783 70.086-110.626 110.847Q561.532-174.477 480-174.477q-90.907 0-157.069-43.876-66.163-43.876-109.895-112.674-43.732-68.799-65.146-153.106Q126.477-568.441 126.477-648q0-43.089 5.718-84.936 5.717-41.846 18.021-82.585 5.566-20.501 22.092-34.49T209.726-864q19.795 0 30.752 15.544 10.957 15.543 5.392 33.5-16.609 43.826-22.826 89.122-6.218 45.297-5.044 91.919 40.783-70.086 110.626-110.847Q398.468-785.523 480-785.523q88.907 0 155.069 42.876 66.163 42.876 110.395 110.674 44.232 67.799 66.145 152.106 21.914 84.308 21.914 167.851 0 43.095-6.218 84.946-6.217 41.852-17.521 82.591-5.566 20.501-22.092 34.49T750.274-96ZM480-264q90 0 153-63t63-153q0-90-63-153t-153-63q-90 0-153 63t-63 153q0 90 63 153t153 63Zm0-63.521q63.957 0 108.218-44.261T632.479-480q0-63.957-44.261-108.218T480-632.479q-63.957 0-108.218 44.261T327.521-480q0 63.957 44.261 108.218T480-327.521Zm-.287-88.958q-26.322 0-44.778-18.744-18.456-18.743-18.456-45.064 0-26.322 18.744-44.778 18.743-18.456 45.064-18.456 26.322 0 44.778 18.744 18.456 18.743 18.456 45.064 0 26.322-18.744 44.778-18.743 18.456-45.064 18.456ZM480-480Z"/></svg>