<svg xmlns="http://www.w3.org/2000/svg" height="20" viewBox="0 -960 960 960" width="20"><path d="M480-72q-65 0-110.5-45.5T324-228q0-55.573 34-97.786 34-42.214 86-54.658V-456H300q-29.7 0-50.85-21.15Q228-498.3 228-528v-48h-72q-15.3 0-25.65-10.35Q120-596.7 120-612v-216q0-15.3 10.35-25.65Q140.7-864 156-864h216q15.3 0 25.65 10.35Q408-843.3 408-828v216q0 15.3-10.35 25.65Q387.3-576 372-576h-72v48h372v-52q-52-12-86-54.214-34-42.213-34-97.786 0-65 45.5-110.5T708-888q65 0 110.5 45.5T864-732q0 55.573-34 97.786Q796-592 744-580v52q0 29.7-21.15 50.85Q701.7-456 672-456H516v76q52 12 86 54.214 34 42.213 34 97.786 0 65-45.5 110.5T480-72Z"/></svg>