<svg xmlns="http://www.w3.org/2000/svg" height="20" viewBox="0 -960 960 960" width="20"><path d="M222.783-124.782q-40.426 0-69.213-28.788-28.788-28.787-28.788-69.213v-514.434q0-40.426 28.788-69.213 28.787-28.788 69.213-28.788H375.13q11.957-32.131 40.283-52.066 28.326-19.934 64.587-19.934t64.587 19.934q28.326 19.935 40.283 52.066h152.347q40.426 0 69.213 28.788 28.788 28.787 28.788 69.213v514.434q0 40.426-28.788 69.213-28.787 28.788-69.213 28.788H222.783Zm0-98.001h514.434v-514.434H222.783v514.434Zm108-72h207.521q15.3 0 25.65-10.289 10.35-10.29 10.35-25.5 0-15.211-10.35-25.711-10.35-10.5-25.65-10.5H330.783q-15.3 0-25.65 10.29-10.35 10.289-10.35 25.5 0 15.21 10.35 25.71t25.65 10.5Zm0-149.217h298.434q15.3 0 25.65-10.289 10.35-10.29 10.35-25.5 0-15.211-10.35-25.711-10.35-10.5-25.65-10.5H330.783q-15.3 0-25.65 10.289-10.35 10.29-10.35 25.5 0 15.211 10.35 25.711 10.35 10.5 25.65 10.5Zm0-149.217h298.434q15.3 0 25.65-10.289 10.35-10.29 10.35-25.501 0-15.21-10.35-25.71t-25.65-10.5H330.783q-15.3 0-25.65 10.289-10.35 10.29-10.35 25.5 0 15.211 10.35 25.711 10.35 10.5 25.65 10.5ZM480-763.478q12.36 0 20.441-8.081T508.522-792q0-12.36-8.081-20.441T480-820.522q-12.36 0-20.441 8.081T451.478-792q0 12.36 8.081 20.441T480-763.478ZM222.783-222.783v-514.434 514.434Z"/></svg>