<svg xmlns="http://www.w3.org/2000/svg" height="20" viewBox="0 -960 960 960" width="20"><path d="M228-110q-48.675 0-83.337-34.663Q110-179.325 110-228v-504q0-48.675 34.663-83.338Q179.325-850 228-850h138q15-33 45.5-52.5T480-922q38 0 68.5 19.5T594-850h138q48.675 0 83.338 34.662Q850-780.675 850-732v504q0 48.675-34.662 83.337Q780.675-110 732-110H228Zm0-118h504v-504H228v504Zm108-72h201q15.3 0 25.65-10.289 10.35-10.29 10.35-25.5Q573-351 562.65-361.5 552.3-372 537-372H336q-15.3 0-25.65 10.289-10.35 10.29-10.35 25.5Q300-321 310.35-310.5 320.7-300 336-300Zm0-144h288q15.3 0 25.65-10.289 10.35-10.29 10.35-25.5Q660-495 649.65-505.5 639.3-516 624-516H336q-15.3 0-25.65 10.289-10.35 10.29-10.35 25.5Q300-465 310.35-454.5 320.7-444 336-444Zm0-144h288q15.3 0 25.65-10.289 10.35-10.29 10.35-25.5Q660-639 649.65-649.5 639.3-660 624-660H336q-15.3 0-25.65 10.289-10.35 10.29-10.35 25.5Q300-609 310.35-598.5 320.7-588 336-588Zm144-172q13.867 0 22.933-9.067Q512-778.133 512-792q0-13.867-9.067-22.933Q493.867-824 480-824q-13.867 0-22.933 9.067Q448-805.867 448-792q0 13.867 9.067 22.933Q466.133-760 480-760ZM228-228v-504 504Z"/></svg>