<svg xmlns="http://www.w3.org/2000/svg" height="24" viewBox="0 -960 960 960" width="24"><path d="M232-172q-24.75 0-42.375-17.625T172-232v-496q0-24.75 17.625-42.375T232-788h194q-11-29 6-54.5t48.5-25.5q31.5 0 48.5 25.5t5 54.5h194q24.75 0 42.375 17.625T788-728v496q0 24.75-17.625 42.375T728-172H232Zm88-146h200q5.95 0 9.975-4.035 4.025-4.035 4.025-10T529.975-342q-4.025-4-9.975-4H320q-5.95 0-9.975 4.035-4.025 4.035-4.025 10t4.025 9.965q4.025 4 9.975 4Zm0-148h320q5.95 0 9.975-4.035 4.025-4.035 4.025-10T649.975-490q-4.025-4-9.975-4H320q-5.95 0-9.975 4.035-4.025 4.035-4.025 10t4.025 9.965q4.025 4 9.975 4Zm0-148h320q5.95 0 9.975-4.035 4.025-4.035 4.025-10T649.975-638q-4.025-4-9.975-4H320q-5.95 0-9.975 4.035-4.025 4.035-4.025 10t4.025 9.965q4.025 4 9.975 4Zm160-166q13 0 21.5-8.5T510-810q0-13-8.5-21.5T480-840q-13 0-21.5 8.5T450-810q0 13 8.5 21.5T480-780Z"/></svg>