<svg xmlns="http://www.w3.org/2000/svg" height="24" viewBox="0 -960 960 960" width="24"><path d="M206.783-100.782q-43.726 0-74.863-31.138-31.138-31.137-31.138-74.863v-546.434q0-43.726 31.138-74.863 31.137-31.138 74.863-31.138H356.13q16.957-37.131 50.283-58.566 33.326-21.434 73.587-21.434t73.587 21.434q33.326 21.435 50.283 58.566h149.347q43.726 0 74.863 31.138 31.138 31.137 31.138 74.863v546.434q0 43.726-31.138 74.863-31.137 31.138-74.863 31.138H206.783Zm120-186.001h191.521q17 0 28.5-11.5t11.5-28.5q0-17-11.5-28.5t-28.5-11.5H326.783q-17 0-28.5 11.5t-11.5 28.5q0 17 11.5 28.5t28.5 11.5Zm0-153.217h306.434q17 0 28.5-11.5t11.5-28.5q0-17-11.5-28.5t-28.5-11.5H326.783q-17 0-28.5 11.5t-11.5 28.5q0 17 11.5 28.5t28.5 11.5Zm0-153.217h306.434q17 0 28.5-11.5t11.5-28.5q0-17-11.5-28.5t-28.5-11.5H326.783q-17 0-28.5 11.5t-11.5 28.5q0 17 11.5 28.5t28.5 11.5ZM480-785.478q14.96 0 24.741-9.781 9.781-9.781 9.781-24.741 0-14.96-9.781-24.741-9.781-9.781-24.741-9.781-14.96 0-24.741 9.781-9.781 9.781-9.781 24.741 0 14.96 9.781 24.741 9.781 9.781 24.741 9.781Z"/></svg>