<svg xmlns="http://www.w3.org/2000/svg" height="24" viewBox="0 -960 960 960" width="24"><path d="M348.13-73.782v-526.174q-91.565-28.522-145.783-107.823-54.217-79.301-54.217-176.743h96.957q0 81.87 52.935 140.935t132.858 59.065h96.294q32.688 0 61.018 11.283 28.33 11.282 51.591 34.543l186.652 186.653L758-383.608 608.479-533.129v459.347h-96.958V-320h-66.434v246.218H348.13Zm130.174-650.74q-36.956 0-62.717-25.991-25.761-25.99-25.761-62.488 0-36.956 25.761-62.717 25.761-25.761 62.717-25.761 36.957 0 62.718 25.761 25.761 25.761 25.761 62.435 0 36.674-25.761 62.717-25.761 26.044-62.718 26.044Z"/></svg>