<svg xmlns="http://www.w3.org/2000/svg" height="24" viewBox="0 -960 960 960" width="24"><path d="M376.155-90v-527.847q-82.922-18.999-134.73-86.076-51.807-67.076-55.269-152.229h59.998q3.847 77.615 56.193 131.115Q354.693-671.538 430-671.538h100q26.538 0 47.538 8.885 20.999 8.884 39.692 27.576l175.23 175.231-42.153 42.152-166.462-166.462v494.155h-59.999v-237.692h-87.692v237.692h-59.999ZM480-724.617q-30.692 0-52.269-21.577-21.577-21.576-21.577-52.268 0-30.693 21.577-52.269 21.577-21.577 52.269-21.577 30.692 0 52.269 21.577 21.577 21.576 21.577 52.269 0 30.692-21.577 52.268-21.577 21.577-52.269 21.577Z"/></svg>