<svg xmlns="http://www.w3.org/2000/svg" height="24" viewBox="0 -960 960 960" width="24"><path d="M392.307-100v-526.692q-74.846-14-123.961-71.654Q219.23-756 212.307-832.308h40.001q7.692 72.231 58.884 120.731 51.193 48.5 118.808 48.5h100q23.077 0 39.077 6.769 16 6.769 32.385 23.154l169.461 169.462-28.308 28.308-174.922-174.923V-100h-40.001v-235.385h-95.384V-100h-40.001ZM480-729.23q-28.385 0-48.039-19.654-19.653-19.653-19.653-48.038 0-28.385 19.653-48.039 19.654-19.653 48.039-19.653t48.039 19.653q19.653 19.654 19.653 48.039t-19.653 48.038Q508.385-729.231 480-729.231Z"/></svg>