<svg xmlns="http://www.w3.org/2000/svg" height="20" viewBox="0 -960 960 960" width="20"><path d="M17-242v-453h103v335h351v-335h472v453H17Zm557-118h266v-232H574v232Zm0-232v232-232ZM296.176-400q56.177 0 95.5-40Q431-480 431-536.176q0-56.177-39.324-95.501Q352.353-671 296.176-671 240-671 200-631.677q-40 39.324-40 95.501Q160-480 200-440t96.176 40ZM296-488q-20.4 0-34.2-13.8Q248-515.6 248-536q0-20.4 13.8-34.2Q275.6-584 296-584q20.4 0 34.2 13.8Q344-556.4 344-536q0 20.4-13.8 34.2Q316.4-488 296-488Zm0-48Z"/></svg>