<svg xmlns="http://www.w3.org/2000/svg" height="24" viewBox="0 -960 960 960" width="24"><path d="M22.477-253.999v-439.002H120V-360h328.479v-333.001h489.044v439.002H22.477ZM546.001-360H840v-235.478H546.001V-360Zm0-235.478V-360v-235.478Zm-261.379 200q53.491 0 90.935-37.826t37.444-91.318q0-53.491-37.444-90.935t-90.935-37.444q-53.492 0-91.318 37.444t-37.826 90.935q0 53.492 37.826 91.318t91.318 37.826Zm-.1-89.044q-17 0-28.5-11.5t-11.5-28.5q0-17 11.5-28.5t28.5-11.5q17 0 28.5 11.5t11.5 28.5q0 17-11.5 28.5t-28.5 11.5Zm0-40Z"/></svg>