<svg xmlns="http://www.w3.org/2000/svg" height="24" viewBox="0 -960 960 960" width="24"><path d="M60.002-300.001v-359.998H120V-360h330.001v-299.999h449.998v359.998H60.001ZM509.999-360H840v-240H509.999v240Zm0-240v240-240ZM280.045-417.694q42.647 0 72.454-29.852 29.807-29.853 29.807-72.499 0-42.647-29.852-72.454-29.853-29.807-72.499-29.807-42.647 0-72.454 29.852-29.807 29.853-29.807 72.499 0 42.647 29.852 72.454 29.853 29.807 72.499 29.807ZM280-477.692q-17.769 0-30.039-12.269-12.269-12.27-12.269-30.039 0-17.769 12.269-30.039 12.27-12.269 30.039-12.269 17.769 0 30.039 12.269 12.269 12.27 12.269 30.039 0 17.769-12.269 30.039-12.27 12.269-30.039 12.269ZM280-520Z"/></svg>