<svg xmlns="http://www.w3.org/2000/svg" height="20" viewBox="0 -960 960 960" width="20"><path d="M40.587-277v-400.5H120V-360h339.587v-317.5h459.826V-277H40.587ZM539-360h301v-238.087H539V-360Zm0-238.087V-360v-238.087Zm-249.045 192q51.477 0 87.511-36.196 36.034-36.195 36.034-87.672t-36.034-87.511Q341.432-653.5 289.955-653.5t-87.672 36.034q-36.196 36.034-36.196 87.511t36.196 87.672q36.195 36.196 87.672 36.196Zm-.042-75.826q-20.4 0-34.2-13.8-13.8-13.8-13.8-34.2 0-20.4 13.8-34.2 13.8-13.8 34.2-13.8 20.4 0 34.2 13.8 13.8 13.8 13.8 34.2 0 20.4-13.8 34.2-13.8 13.8-34.2 13.8Zm0-48Z"/></svg>