<svg xmlns="http://www.w3.org/2000/svg" height="20" viewBox="0 -960 960 960" width="20"><path d="M197-321H85q-21.3 0-36.65-14.651Q33-350.302 33-371.96v-223.757q0-18.258 12.59-30.77Q58.178-639 76.79-639q18.185 0 30.698 12.363Q120-614.275 120-596v188h77q18.275 0 30.638 12.307Q240-383.386 240-365.193 240-347 227.638-334 215.275-321 197-321Zm108.193 0Q287-321 274-333.65T261-365v-187h-41q-18.275 0-30.638-12.589Q177-577.179 177-595.789q0-18.186 12.362-30.698Q201.725-639 220-639h169q18.275 0 30.638 12.307Q432-614.386 432-596.193 432-578 419.638-565 407.275-552 389-552h-41v187.724q0 18.251-12.307 30.763Q323.386-321 305.193-321ZM629-321H517q-21.3 0-36.65-15.338Q465-351.677 465-372.96v-214.757q0-21.658 15.35-36.471Q495.7-639 517-639h112q18.275 0 30.637 12.307Q672-614.386 672-596.193 672-578 659.637-565 647.275-552 629-552h-77v28h76q18.7 0 31.35 12.589 12.65 12.59 12.65 31.2 0 18.611-12.65 31.411T628-436h-76v28h77q18.275 0 30.637 12.307Q672-383.386 672-365.193 672-347 659.637-334 647.275-321 629-321Zm175-115h-40q-18.7 0-31.35-12.589-12.65-12.59-12.65-31.2 0-18.611 12.65-31.411T764-524h40v-41q0-18.275 12.589-30.637Q829.179-608 847.789-608q18.186 0 30.698 12.363Q891-583.275 891-565v41h40q18.7 0 31.35 12.589 12.65 12.59 12.65 31.2 0 18.611-12.65 31.411T931-436h-40v41q0 18.275-12.307 30.638Q866.386-352 848.193-352 830-352 817-364.65T804-396v-40Z"/></svg>