<svg xmlns="http://www.w3.org/2000/svg" height="24" viewBox="0 -960 960 960" width="24"><path d="M193-305H81q-23 0-39.5-15.812Q25-336.625 25-360v-248q0-19.975 13.8-33.487Q52.6-655 73-655q19.975 0 33.488 13.513Q120-627.975 120-608v208h73q19.975 0 33.488 13.518Q240-372.965 240-352.982 240-333 226.488-319 212.975-305 193-305Zm119.982 0Q293-305 279-318.8T265-353v-207h-33q-19.975 0-33.488-13.8Q185-587.6 185-608q0-19.975 13.512-33.487Q212.025-655 232-655h161q19.975 0 33.487 13.518Q440-627.965 440-607.982 440-588 426.487-574 412.975-560 393-560h-33v208q0 19.975-13.518 33.487Q332.965-305 312.982-305ZM633-305H521q-23 0-39.5-16.5T465-361v-239q0-23.375 16.5-39.188Q498-655 521-655h112q19.975 0 33.487 13.518Q680-627.965 680-607.982 680-588 666.487-574 652.975-560 633-560h-73v32h72q20.4 0 34.2 13.8Q680-500.4 680-480q0 20.4-13.8 34.2Q652.4-432 632-432h-72v32h73q19.975 0 33.487 13.518Q680-372.965 680-352.982 680-333 666.487-319 652.975-305 633-305Zm167-127h-32q-20.4 0-34.2-13.8Q720-459.6 720-480q0-20.4 13.8-34.2Q747.6-528 768-528h32v-33q0-19.975 13.8-33.487Q827.6-608 848-608q19.975 0 33.487 13.513Q895-580.975 895-561v33h32q20.4 0 34.2 13.8Q975-500.4 975-480q0 20.4-13.8 34.2Q947.4-432 927-432h-32v33q0 19.975-13.518 33.487Q867.965-352 847.982-352 828-352 814-365.8T800-400v-32Z"/></svg>