<svg xmlns="http://www.w3.org/2000/svg" height="20" viewBox="0 -960 960 960" width="20"><path d="m129.978-139.217 41.239-358.022q5.239-75.391 48.294-136.446 43.054-61.054 108.446-99.533l-3 181.218q0 64.761 45.141 109.902Q415.239-396.957 480-396.957q64.522 0 109.783-45.141 45.26-45.141 45.26-109.902l-3-181.218q65.392 38.479 108.446 99.533 43.055 61.055 48.294 136.446l41.478 358.022H129.978ZM480-468.957q-34.761 0-58.902-24.141T396.957-552v-144q0-34.761 24.141-58.902T480-779.043q34.761 0 58.902 24.141T563.043-696v144q0 34.761-24.141 58.902T480-468.957Z"/></svg>