<svg xmlns="http://www.w3.org/2000/svg" height="24" viewBox="0 -960 960 960" width="24"><path d="M324-574q-15 20-23.5 44.5T290-478l-21 252h423l-22-252q-2-27-10.5-51.5T636-574v14q0 65-45.5 110.5T480-404q-65 0-110.5-45.5T324-560v-14Zm156.175 44q12.825 0 21.325-8.625T510-560v-160q0-12.75-8.675-21.375-8.676-8.625-21.5-8.625-12.825 0-21.325 8.625T450-720v160q0 12.75 8.675 21.375 8.676 8.625 21.5 8.625Zm-.114-346Q540-876 583.5-837q43.5 39 51.5 97 68 38 111.5 103.5T796-489l32 389H130l34-389q6-82 49.5-147.5T325-740q7.818-58.286 51.47-97.143Q420.121-876 480.061-876Z"/></svg>