<svg xmlns="http://www.w3.org/2000/svg" height="20" viewBox="0 -960 960 960" width="20"><path d="m123.13-132.695 41.565-364.87q5.565-78.653 50.739-141.827 45.175-63.174 113.827-102.304l-3 189.696q0 64.435 44.652 109.087T480-398.261q63.87 0 108.804-44.652Q633.739-487.565 633.739-552l-3-189.696q68.652 39.13 113.827 102.304 45.174 63.174 50.739 141.827l42.13 364.87H123.13ZM480-470.261q-34.435 0-58.087-23.652T398.261-552v-144q0-34.435 23.652-58.087T480-777.739q34.435 0 58.087 23.652T561.739-696v144q0 34.435-23.652 58.087T480-470.261Z"/></svg>