<svg xmlns="http://www.w3.org/2000/svg" height="24" viewBox="0 -960 960 960" width="24"><path d="m146.978-115.217 32.239-373.022q5.239-74.391 43.794-134.946 38.554-60.554 97.946-97.033V-560q0 65.761 46.641 112.402Q414.239-400.957 480-400.957q66.522 0 112.783-46.641 46.26-46.641 46.26-112.402v-160.218q59.392 36.479 97.946 97.033 38.555 60.555 43.794 134.946l31.478 373.022H146.978ZM480-480.957q-32.761 0-55.902-23.141T400.957-560v-160q0-32.761 23.141-55.902T480-799.043q32.761 0 55.902 23.141T559.043-720v160q0 32.761-23.141 55.902T480-480.957Z"/></svg>