<svg xmlns="http://www.w3.org/2000/svg" height="24" viewBox="0 -960 960 960" width="24"><path d="M260-620h-60q-8.5 0-14.25-5.758-5.75-5.757-5.75-14.269t5.75-14.242Q191.5-660 200-660h80q8.5 0 14.25 5.75T300-640v320q0 8.5-5.758 14.25-5.757 5.75-14.269 5.75t-14.242-5.75Q260-311.5 260-320v-300Zm326 167.539-85.154 142.692q-2.527 4.627-6.824 7.198-4.297 2.571-9.857 2.571-11.627 0-17.357-10-5.731-10 .115-20l96.154-162-83.154-137q-6.615-10.769-.547-20.885Q485.444-660 497.58-660q5.805 0 10.433 2.75t7.064 7.25l72.461 118.461 71.385-118.692q2.503-4.627 7.009-7.198Q670.439-660 675.946-660q11.516 0 17.246 10 5.731 10-.115 20l-82.154 138 95.385 161q6.615 10.769.115 20.885Q699.923-300 688.126-300q-5.406 0-10.076-2.75-4.669-2.75-7.127-7.25L586-452.461Z"/></svg>