<svg xmlns="http://www.w3.org/2000/svg" height="20" viewBox="0 -960 960 960" width="20"><path d="M284-620h-55.789q-6.711 0-11.461-4.547T212-635.816q0-6.723 4.575-11.453Q221.15-652 227.912-652h71.825q6.763 0 11.513 4.6T316-636v312q0 6.8-4.547 11.4-4.547 4.6-11.269 4.6-6.723 0-11.453-4.6Q284-317.2 284-324v-296Zm331 173.539-75.154 129.692q-2.527 3.627-6.135 6.198-3.607 2.571-8.276 2.571-9.761 0-14.56-8-4.798-8-.246-16.14L597.077-480l-86.154-148q-5.615-8.769-.556-16.385Q515.426-652 525.545-652q4.84 0 7.968 2.25t5.564 5.75l77.461 130.461 75.385-129.692q2.503-3.627 6.169-6.198 3.667-2.571 8.147-2.571 9.369 0 14.027 8 4.657 8-.189 16l-86.154 148 85.679 147.754q5.321 9.015.011 16.631Q714.302-308 704.989-308q-4.269 0-7.439-2.25-3.169-2.25-5.627-5.75L615-446.461Z"/></svg>