<svg xmlns="http://www.w3.org/2000/svg" height="24" viewBox="0 -960 960 960" width="24"><path d="M154.348-265.304q-22.088 0-37.544-15.456-15.457-15.457-15.457-37.544v-323.392q0-22.087 15.457-37.544 15.456-15.456 37.544-15.456h323.391q22.087 0 37.544 15.456 15.457 15.457 15.457 37.544v323.392q0 22.087-15.457 37.544-15.457 15.456-37.544 15.456H154.348Zm53-100.348h217.39v-228.696h-217.39v228.696ZM150.956-758.87q-20.957 0-35.566-14.608-14.608-14.609-14.608-35.566t14.608-35.565q14.609-14.609 35.566-14.609h658.088q20.957 0 35.565 14.609 14.609 14.608 14.609 35.565 0 20.957-14.609 35.566-14.608 14.608-35.565 14.608H150.956Zm509.958 164.522q-20.957 0-35.565-14.608-14.609-14.609-14.609-35.566t14.609-35.566q14.608-14.608 35.565-14.608h148.13q20.957 0 35.565 14.608 14.609 14.609 14.609 35.566t-14.609 35.566q-14.608 14.608-35.565 14.608h-148.13Zm0 164.522q-20.957 0-35.565-14.608Q610.74-459.043 610.74-480t14.609-35.566q14.608-14.608 35.565-14.608h148.13q20.957 0 35.565 14.608 14.609 14.609 14.609 35.566t-14.609 35.566q-14.608 14.608-35.565 14.608h-148.13Zm0 164.522q-20.957 0-35.565-14.608-14.609-14.609-14.609-35.566t14.609-35.566q14.608-14.608 35.565-14.608h148.13q20.957 0 35.565 14.608 14.609 14.609 14.609 35.566t-14.609 35.566q-14.608 14.608-35.565 14.608h-148.13ZM150.956-100.782q-20.957 0-35.566-14.608-14.608-14.609-14.608-35.566t14.608-35.566q14.609-14.608 35.566-14.608h658.088q20.957 0 35.565 14.608 14.609 14.609 14.609 35.566t-14.609 35.566q-14.608 14.608-35.565 14.608H150.956Z"/></svg>