<svg xmlns="http://www.w3.org/2000/svg" height="24" viewBox="0 -960 960 960" width="24"><path d="M202-319q-12.75 0-21.375-8.625T172-349v-262q0-12.75 8.625-21.375T202-641h262q12.75 0 21.375 8.625T494-611v262q0 12.75-8.625 21.375T464-319H202Zm-2-28h266v-266H200v266Zm-14-413q-5.95 0-9.975-4.035-4.025-4.035-4.025-10t4.025-9.965q4.025-4 9.975-4h588q5.95 0 9.975 4.035 4.025 4.035 4.025 10T783.975-764q-4.025 4-9.975 4H186Zm422 147q-5.95 0-9.975-4.035-4.025-4.035-4.025-10t4.025-9.965q4.025-4 9.975-4h166q5.95 0 9.975 4.035 4.025 4.035 4.025 10T783.975-617q-4.025 4-9.975 4H608Zm0 147q-5.95 0-9.975-4.035-4.025-4.035-4.025-10t4.025-9.965q4.025-4 9.975-4h166q5.95 0 9.975 4.035 4.025 4.035 4.025 10T783.975-470q-4.025 4-9.975 4H608Zm0 147q-5.95 0-9.975-4.035-4.025-4.035-4.025-10t4.025-9.965q4.025-4 9.975-4h166q5.95 0 9.975 4.035 4.025 4.035 4.025 10T783.975-323q-4.025 4-9.975 4H608ZM186-172q-5.95 0-9.975-4.035-4.025-4.035-4.025-10t4.025-9.965q4.025-4 9.975-4h588q5.95 0 9.975 4.035 4.025 4.035 4.025 10T783.975-176q-4.025 4-9.975 4H186Z"/></svg>