<svg xmlns="http://www.w3.org/2000/svg" height="20" viewBox="0 -960 960 960" width="20"><path d="M308.281-411Q288-411 274-424.719q-14-13.72-14-34Q260-479 273.719-493.5q13.72-14.5 34-14.5Q328-508 342-493.711q14 14.29 14 34.571 0 20.28-13.719 34.21-13.72 13.93-34 13.93Zm172 0Q460-411 446-424.719q-14-13.72-14-34Q432-479 445.719-493.5q13.72-14.5 34-14.5Q500-508 514-493.711q14 14.29 14 34.571 0 20.28-13.719 34.21-13.72 13.93-34 13.93Zm172 0Q632-411 618-424.719q-14-13.72-14-34Q604-479 617.719-493.5q13.72-14.5 34-14.5Q672-508 686-493.711q14 14.29 14 34.571 0 20.28-13.719 34.21-13.72 13.93-34 13.93ZM228-62q-49.7 0-83.85-34.5Q110-131 110-180v-504q0-49 34.15-83.5T228-802h60v-49q0-19.3 14.289-33.15 14.29-13.85 33.5-13.85Q355-898 369-884.15T383-851v49h194v-49q0-19.3 14.289-33.15 14.29-13.85 33.5-13.85Q644-898 658-884.15T672-851v49h60q49.7 0 83.85 34.5Q850-733 850-684v504q0 49-34.15 83.5T732-62H228Zm0-118h504v-348H228v348Z"/></svg>