<svg xmlns="http://www.w3.org/2000/svg" height="20" viewBox="0 -960 960 960" width="20"><path d="M324.211-414q-9.211 0-16.711-7.289-7.5-7.29-7.5-16.5 0-9.211 7.289-16.711 7.29-7.5 16.5-7.5 9.211 0 16.711 7.289 7.5 7.29 7.5 16.5 0 9.211-7.289 16.711-7.29 7.5-16.5 7.5Zm156 0q-9.211 0-16.711-7.289-7.5-7.29-7.5-16.5 0-9.211 7.289-16.711 7.29-7.5 16.5-7.5 9.211 0 16.711 7.289 7.5 7.29 7.5 16.5 0 9.211-7.289 16.711-7.29 7.5-16.5 7.5Zm156 0q-9.211 0-16.711-7.289-7.5-7.29-7.5-16.5 0-9.211 7.289-16.711 7.29-7.5 16.5-7.5 9.211 0 16.711 7.289 7.5 7.29 7.5 16.5 0 9.211-7.289 16.711-7.29 7.5-16.5 7.5ZM248-148q-22.7 0-37.35-15Q196-178 196-200v-464q0-22 14.65-37T248-716h112v-96q0-5.3 3.289-8.65 3.29-3.35 8.5-3.35 5.211 0 8.711 3.35T384-812v96h196v-98q0-4.3 2.789-7.15 2.79-2.85 7-2.85 4.211 0 7.211 2.85t3 7.15v98h112q22.7 0 37.35 15Q764-686 764-664v464q0 22-14.65 37T712-148H248Zm0-20h464q12 0 22-10t10-22v-296H216v296q0 12 10 22t22 10Zm-32-348h528v-148q0-12-10-22t-22-10H248q-12 0-22 10t-10 22v148Zm0 0v-180 180Z"/></svg>