<svg xmlns="http://www.w3.org/2000/svg" height="24" viewBox="0 -960 960 960" width="24"><path d="M310.996-401.696q-19.866 0-33.345-13.438-13.478-13.439-13.478-33.305t13.439-33.627q13.438-13.761 33.304-13.761t33.345 13.761q13.478 13.761 13.478 33.627 0 19.866-13.439 33.305-13.438 13.438-33.304 13.438Zm169.044 0q-19.866 0-33.345-13.438-13.478-13.439-13.478-33.305t13.439-33.627q13.438-13.761 33.304-13.761t33.345 13.761q13.478 13.761 13.478 33.627 0 19.866-13.439 33.305-13.438 13.438-33.304 13.438Zm169.044 0q-19.866 0-33.345-13.438-13.478-13.439-13.478-33.305t13.439-33.627q13.438-13.761 33.304-13.761t33.345 13.761q13.478 13.761 13.478 33.627 0 19.866-13.439 33.305-13.438 13.438-33.304 13.438ZM206.783-60.782q-44.305 0-75.153-30.848-30.848-30.848-30.848-75.153v-546.434q0-44.305 30.848-75.153 30.848-30.848 75.153-30.848H240v-33.783q0-19.261 13.761-32.739 13.761-13.478 33.022-13.478t32.739 13.478q13.479 13.478 13.479 32.739v33.783h293.998v-33.783q0-19.261 13.761-32.739 13.761-13.478 33.022-13.478t32.74 13.478Q720-872.262 720-853.001v33.783h33.217q44.305 0 75.153 30.848 30.848 30.848 30.848 75.153v546.434q0 44.305-30.848 75.153-30.848 30.848-75.153 30.848H206.783Zm0-106.001h546.434V-560H206.783v393.217Zm0-473.217h546.434v-73.217H206.783V-640Zm0 0v-73.217V-640Z"/></svg>