<svg xmlns="http://www.w3.org/2000/svg" height="20" viewBox="0 -960 960 960" width="20"><path d="M608.244-511.693q21.832 0 37.025-15.283 15.192-15.282 15.192-37.115 0-21.832-15.283-37.024t-37.115-15.192q-21.832 0-37.024 15.283-15.193 15.282-15.193 37.115 0 21.832 15.283 37.024t37.115 15.192Zm-256.307 0q21.832 0 37.024-15.283 15.193-15.282 15.193-37.115 0-21.832-15.283-37.024t-37.115-15.192q-21.832 0-37.025 15.283-15.192 15.282-15.192 37.115 0 21.832 15.283 37.024t37.115 15.192ZM480-276.309q62.615 0 113.461-37.038T669.922-408H604q-19.916 33.3-52.958 52.65T480-336q-38 0-71.042-19.35T356-408h-65.922q25.615 57.615 76.461 94.653Q417.385-276.309 480-276.309Zm.343 160.308q-75.112 0-141.48-28.42-66.369-28.42-116.182-78.21-49.814-49.791-78.247-116.087t-28.433-141.673q0-75.378 28.42-141.246 28.42-65.869 78.21-115.682 49.791-49.814 116.087-78.247t141.673-28.433q75.378 0 141.246 28.42 65.869 28.42 115.682 78.21 49.814 49.791 78.247 115.853t28.433 141.173q0 75.112-28.42 141.48-28.42 66.369-78.21 116.182-49.791 49.814-115.853 78.247t-141.173 28.433Z"/></svg>