<svg xmlns="http://www.w3.org/2000/svg" height="20" viewBox="0 -960 960 960" width="20"><path d="M607.478-499.478q27.261 0 45.892-18.631Q672-536.739 672-564t-18.63-45.891q-18.631-18.631-45.609-18.631-26.979 0-45.609 18.78-18.631 18.78-18.631 45.609t18.654 45.742q18.654 18.913 45.303 18.913Zm-255.239 0q26.979 0 45.609-18.78 18.631-18.78 18.631-45.609t-18.654-45.742q-18.654-18.913-45.303-18.913-27.261 0-45.892 18.631Q288-591.261 288-564t18.63 45.891q18.631 18.631 45.609 18.631ZM480-264q68 0 122.5-40.5T683-408h-89.174q-18.786 29.909-49.284 46.715-30.499 16.806-64.542 16.806-34.043 0-64.542-16.806Q384.96-378.091 366.174-408H277q26 63 80.5 103.5T480-264Zm.229 187.218q-83.186 0-156.577-31.413-73.392-31.413-128.718-86.739-55.326-55.326-86.739-128.723-31.413-73.397-31.413-156.848 0-83.452 31.413-156.343 31.413-72.892 86.739-128.218 55.326-55.326 128.723-86.739 73.397-31.413 156.848-31.413 83.452 0 156.343 31.413 72.892 31.413 128.218 86.739 55.326 55.326 86.739 128.489 31.413 73.163 31.413 156.348 0 83.186-31.413 156.577-31.413 73.392-86.739 128.718-55.326 55.326-128.489 86.739-73.163 31.413-156.348 31.413Z"/></svg>