<svg xmlns="http://www.w3.org/2000/svg" height="24" viewBox="0 -960 960 960" width="24"><path d="M615.478-515.478q27.261 0 45.892-18.631Q680-552.739 680-580t-18.63-45.891q-18.631-18.631-45.609-18.631-26.979 0-45.609 18.78-18.631 18.78-18.631 45.609t18.654 45.742q18.654 18.913 45.303 18.913Zm-271.239 0q26.979 0 45.609-18.78 18.631-18.78 18.631-45.609t-18.654-45.742q-18.654-18.913-45.303-18.913-27.261 0-45.892 18.631Q280-607.261 280-580t18.63 45.891q18.631 18.631 45.609 18.631ZM480-260q68 0 123.5-38.5T684-400h-76.174q-20.87 33.609-54.826 52.565-33.957 18.956-73 18.956t-73-18.956Q373.044-366.391 352.174-400H276q25 63 80.5 101.5T480-260Zm-.047 199.218q-86.91 0-163.301-32.913-76.392-32.913-133.218-89.739-56.826-56.826-89.74-133.265-32.912-76.438-32.912-163.348 0-86.91 32.913-163.301 32.913-76.392 89.739-133.218 56.826-56.826 133.265-89.739 76.438-32.913 163.348-32.913 86.91 0 163.301 32.913 76.392 32.913 133.218 89.739 56.826 56.826 89.739 133.265 32.913 76.438 32.913 163.348 0 86.91-32.913 163.301-32.913 76.392-89.739 133.218-56.826 56.826-133.265 89.74-76.438 32.912-163.348 32.912ZM480-480Zm0 313.217q130.609 0 221.913-91.304T793.217-480q0-130.609-91.304-221.913T480-793.217q-130.609 0-221.913 91.304T166.783-480q0 130.609 91.304 221.913T480-166.783Z"/></svg>