<svg xmlns="http://www.w3.org/2000/svg" height="20" viewBox="0 -960 960 960" width="20"><path d="M610.087-502.087q25.956 0 43.935-17.978Q672-538.043 672-564t-17.978-43.935q-17.979-17.978-43.816-17.978-25.836 0-43.815 18.041-17.978 18.042-17.978 43.816 0 25.773 17.988 43.871 17.988 18.098 43.686 18.098Zm-260.293 0q25.836 0 43.815-18.041 17.978-18.042 17.978-43.816 0-25.773-17.988-43.871-17.988-18.098-43.686-18.098-25.956 0-43.935 17.978Q288-589.957 288-564t17.978 43.935q17.979 17.978 43.816 17.978ZM479.899-264Q549-264 605.5-303T683-408h-83.304q-19.438 31.865-51.404 50.139-31.966 18.274-68.292 18.274t-68.292-18.274Q379.742-376.135 360.304-408H277q21 66 77.399 105t125.5 39Zm.357 176.13q-80.93 0-152.365-30.597-71.435-30.598-125.13-84.294-53.696-53.695-84.294-125.109-30.598-71.413-30.598-152.608 0-81.196 30.598-152.131t84.294-124.63q53.695-53.696 125.109-84.294 71.413-30.598 152.608-30.598 81.196 0 152.131 30.598t124.63 84.294q53.696 53.695 84.294 124.874 30.598 71.18 30.598 152.109 0 80.93-30.598 152.365t-84.294 125.13q-53.695 53.696-124.874 84.294-71.18 30.598-152.109 30.598ZM480-480Zm0 309.13q128.565 0 218.848-90.282Q789.13-351.435 789.13-480t-90.282-218.848Q608.565-789.13 480-789.13t-218.848 90.282Q170.87-608.565 170.87-480t90.282 218.848Q351.435-170.87 480-170.87Z"/></svg>