<svg xmlns="http://www.w3.org/2000/svg" height="20" viewBox="0 -960 960 960" width="20"><path d="M604-496q29 0 48.5-19.5T672-564q0-29-19.5-48.5t-48-19.5q-28.5 0-48 19.765-19.5 19.764-19.5 48Q537-536 556.542-516q19.541 20 47.458 20Zm-248.5 0q28.5 0 48-19.765 19.5-19.764 19.5-48Q423-592 403.458-612 383.917-632 356-632q-29 0-48.5 19.5T288-564q0 29 19.5 48.5t48 19.5Zm124.399 232Q549-264 605.5-303T683-408h-97q-17.916 27.3-46.458 42.15Q511-351 480-351t-59.542-14.85Q391.916-380.7 374-408h-97q21 66 77.399 105t125.5 39Zm.293 202Q394-62 318-94.5q-76-32.5-133.5-90t-90-133.542Q62-394.083 62-480.542 62-567 94.5-642.5t90-133q57.5-57.5 133.542-90 76.041-32.5 162.5-32.5Q567-898 642.5-865.5t133 90q57.5 57.5 90 133.308 32.5 75.807 32.5 162Q898-394 865.5-318q-32.5 76-90 133.5t-133.308 90q-75.807 32.5-162 32.5ZM480-480Zm0 300q124 0 212-88t88-212q0-124-88-212t-212-88q-124 0-212 88t-88 212q0 124 88 212t212 88Z"/></svg>