<svg xmlns="http://www.w3.org/2000/svg" height="24" viewBox="0 -960 960 960" width="24"><path d="M407.957-491.305q-47.87 0-79.783-35.761-31.914-35.762-25.218-83.632l10.739-81.608q8-61.522 55.674-101.565Q417.043-833.915 480-833.915t110.631 40.044q47.674 40.043 55.674 101.565l10.739 81.608q6.696 47.87-25.218 83.632-31.913 35.761-79.783 35.761H407.957Zm-6.783-100.349h157.652l-11.87-85.825q-4.565-24.609-23.177-40.348-18.613-15.739-43.717-15.739-25.105 0-43.779 15.739-18.674 15.739-23.239 40.348l-11.87 85.825Zm78.826 0Zm-339.218 354.48v-26.347q0-39.258 20.436-72.165 20.437-32.908 54.303-50.227 63.696-31.566 129.934-47.631Q411.692-449.609 480-449.609q69.391 0 135.652 15.782 66.261 15.783 128.827 47.348 33.866 17.238 54.303 49.989 20.436 32.751 20.436 72.969v26.347q0 44.305-30.848 75.153-30.848 30.849-75.153 30.849H246.783q-44.305 0-75.153-30.849-30.848-30.848-30.848-75.153Zm106.001 0h466.434v-23.521q0-10.451-5.5-19.003-5.5-8.551-14.5-13.301-50.608-24.739-103.913-37.674Q536-343.608 480-343.608q-54.87 0-109.304 12.935-54.435 12.935-103.913 37.674-9 4.75-14.5 13.301-5.5 8.552-5.5 19.003v23.521Zm233.217 0Z"/></svg>