<svg xmlns="http://www.w3.org/2000/svg" height="20" viewBox="0 -960 960 960" width="20"><path d="M635.789-537.231q10.596 0 18.788-7.982 8.192-7.981 8.192-18.576 0-10.596-7.982-18.788-7.981-8.192-18.576-8.192-10.596 0-18.788 7.982-8.192 7.981-8.192 18.576 0 10.596 7.982 18.788 7.981 8.192 18.576 8.192ZM336-620h192v-32H336v32ZM222-184q-27.385-114.769-56.693-207.384Q136-484 136-576q0-73.404 51.298-124.702T312-752h219q26.923-31.154 62.769-51.577Q629.615-824 672-824q3.077 0 5.539 1.692 2.461 1.693 2.461 4.77 0 9.076-6.461 22.769-6.539 16.923-11.808 32.192-5.269 15.269-8.808 32.423L775.077-608H824v194.769l-100.307 21.693L666-184H520v-72H368v72H222Z"/></svg>