<svg xmlns="http://www.w3.org/2000/svg" height="24" viewBox="0 -960 960 960" width="24"><path d="M639.522-510.913q19.152 0 32.326-13.174t13.174-32.326q0-19.152-13.174-32.326t-32.326-13.174q-19.152 0-32.326 13.174t-13.174 32.326q0 19.152 13.174 32.326t32.326 13.174Zm-330.044-77.369h210.044v-87.414H309.478v87.414ZM167.087-111.869q-34.479-116.153-68.196-231.566T65.174-580q0-95.348 66.391-161.739 66.391-66.392 161.739-66.392h207.892q29.956-38 72.532-59 42.576-21 91.294-21 28.109 0 48 19.772t19.891 47.881q0 6.478-1.5 12.717-1.5 6.239-3.5 11.957-3.521 10.282-6.782 20.706t-5.261 21.468l85.5 85.499h93.217v293.109l-116.108 37.479L711-111.869H477.37v-80h-76.413v80h-233.87Zm68.369-91.001h76.174v-80h254.827v80h76.173l62-205.521 98.957-32.522V-577.13h-40l-140-140q0-19.761 2.38-38.261 2.381-18.5 7.381-37.5-28.283 8.478-49.685 27.978t-31.88 47.783H293.304q-57.043 0-97.087 40.043-40.043 40.044-40.043 97.087 0 97.283 26.761 190.065 26.761 92.783 52.521 187.065ZM480-498Z"/></svg>