<svg xmlns="http://www.w3.org/2000/svg" height="24" viewBox="0 -960 960 960" width="24"><path d="M640-529.231q12.385 0 21.577-9.192 9.192-9.192 9.192-21.577 0-12.385-9.192-21.577-9.192-9.192-21.577-9.192-12.385 0-21.577 9.192-9.192 9.192-9.192 21.577 0 12.385 9.192 21.577 9.192 9.192 21.577 9.192ZM320-620h200v-40H320v40ZM210-160q-29.385-104.769-59.693-207.884Q120-471 120-580q0-75.077 52.461-127.539Q224.923-760 300-760h220q25.923-34.154 61.269-57.077Q616.615-840 660-840q8.077 0 14.039 5.961Q680-828.077 680-820q0 2.154-.731 4.308-.73 2.154-1.192 4.077-7.077 17.923-11.346 36.73-4.269 18.808-7.808 37.731L776.077-620H840v209.769l-105.307 34.693L670-160H520v-80H360v80H210Zm30-40h80v-80h240v80h80l62-206 98-33v-141h-40L620-720q0-20 2.5-38.5t9.038-36.731q-29 8-50.23 28.269Q560.077-746.692 547-720H300q-58 0-99 41t-41 99q0 98 27 191.5T240-200Zm240-298Z"/></svg>