<svg xmlns="http://www.w3.org/2000/svg" height="24" viewBox="0 -960 960 960" width="24"><path d="M172-86q-53 0-89.5-36.5T46-212v-456q0-53 36.5-89.5T172-794h96l52-47q17-16 39.5-24.5T405-874h150q23 0 45.5 8.5T640-841l52 47h96q53 0 89.5 36.5T914-668v456q0 53-36.5 89.5T788-86H663q-26 0-44.5-18.5T600-149q0-26 18.5-44.5T663-212h125v-456H641l-84-80H406l-90 80H172v456h125q26 0 44.5 18.5T360-149q0 26-18.5 44.5T297-86H172Zm308-234q-58 0-101.5-31T324-431q-3.846-15.647-14.423-26.824Q299-469 283-469q-18.525 0-30.262 14.4Q241-440.2 244-421q14 71 67.5 123.5T440-233v107q0 17 11.5 28.5T480-86q17 0 28.5-11.5T520-126v-107q75-12 128.5-64.5T716-421q3-19.2-8.737-33.6Q695.525-469 677-469q-16 0-26.577 11.176Q639.846-446.647 636-431q-11 48-54.5 79.5T480-320Zm0-69q33 0 56.5-23.5T560-469v-160q0-33-23.5-56.5T480-709q-33 0-56.5 23.5T400-629v160q0 33 23.5 56.5T480-389ZM172-212h616-616Z"/></svg>