<svg xmlns="http://www.w3.org/2000/svg" height="24" viewBox="0 -960 960 960" width="24"><path d="M172-86q-53 0-89.5-36.5T46-212v-456q0-53 36.5-89.5T172-794h96l52-47q17-16 39.5-24.5T405-874h150q23 0 45.5 8.5T640-841l52 47h96q53 0 89.5 36.5T914-668v456q0 53-36.5 89.5T788-86H520v-147q80-12 133.5-67T716-421q3-19-8.5-33.5T677-469q-16 0-26.5 11T636-431q-12 47-55.5 79T480-320q-56 0-99.5-31.5T324-431q-4-16-14.5-27T283-469q-19 0-30.5 14.5T244-421q10 66 64 121t132 67v147H172Zm308-303q33 0 56.5-23.5T560-469v-160q0-33-23.5-56.5T480-709q-33 0-56.5 23.5T400-629v160q0 33 23.5 56.5T480-389Z"/></svg>