<svg xmlns="http://www.w3.org/2000/svg" height="20" viewBox="0 -960 960 960" width="20"><path d="M192.615-184Q169-184 152.5-200.5 136-217 136-240.615v-382.77Q136-647 152.5-663.5 169-680 192.615-680h112.308l54.615-72.385q8.693-11.692 20.793-17.654Q392.431-776 406-776h148.182q13.741 0 25.664 5.961 11.923 5.962 20.616 17.654L655.077-680h112.308q24.315 0 40.465 16.5Q824-647 824-623.385v382.77Q824-217 807.85-200.5 791.7-184 767.385-184H584q-6.838 0-11.419-4.52T568-199.789q0-6.749 4.581-11.48Q577.162-216 584-216h183.385q9.23 0 16.923-7.692Q792-231.385 792-240.615v-382.77q0-9.23-7.692-16.923Q776.615-648 767.385-648H637.538l-72.868-96H395.231l-72.769 96H192.615q-9.23 0-16.923 7.692Q168-632.615 168-623.385v382.77q0 9.23 7.692 16.923Q183.385-216 192.615-216H376q6.838 0 11.419 4.52Q392-206.959 392-200.21t-4.581 11.479Q382.838-184 376-184H192.615ZM480-327.385q-67.615 0-112.385-43.884-44.769-43.885-41.153-103.5-1.693-8.67-7.308-14.643-5.616-5.973-15.462-5.973-9.95 0-16.706 6.493-6.755 6.492-5.294 15.661 4.539 67.385 55.192 117.308Q387.538-306 464-296.307V-200q0 6.839 4.52 11.419Q473.04-184 479.789-184q6.75 0 11.48-4.581Q496-193.161 496-200v-96.307q76.462-8.923 127.116-59.731 50.653-50.808 55.192-117.193 1.461-9.169-5.294-15.661-6.756-6.493-16.706-6.493-9.846 0-15.462 5.973-5.615 5.973-7.308 14.643 4.385 58.846-40.384 103.115T480-327.385Zm.212-102.769q17.48 0 29.25-11.945 11.769-11.945 11.769-29.373v-144.176q0-17.429-11.982-29.198-11.981-11.769-29.461-11.769-17.48 0-29.25 11.945-11.769 11.945-11.769 29.373v144.176q0 17.429 11.982 29.198 11.981 11.769 29.461 11.769ZM192.615-216H792 168 192.615Z"/></svg>