<svg xmlns="http://www.w3.org/2000/svg" height="24" viewBox="0 -960 960 960" width="24"><path d="M192-172q-26 0-43-17t-17-43v-416q0-26 17-43t43-17h116l56-61q8-9 19.5-14t24.5-5h144q13 0 24.5 5t19.5 14l56 61h116q26 0 43 17t17 43v416q0 26-17 43t-43 17H588q-6 0-10-4t-4-10q0-6 4-10t10-4h180q12 0 22-10t10-22v-416q0-12-10-22t-22-10H640l-74-80H394l-74 80H192q-12 0-22 10t-10 22v416q0 12 10 22t22 10h180q6 0 10 4t4 10q0 6-4 10t-10 4H192Zm288-168q-64 0-108.5-43T322-486q-1-6-5-10t-10-4q-6 0-10.5 4t-3.5 10q5 69 53 117.5T466-312v126q0 6 4 10t10 4q6 0 10-4t4-10v-126q72-7 120-56t53-118q1-6-3.5-10t-10.5-4q-6 0-10 4t-5 10q-4 58-48.5 102T480-340Zm0-120q17 0 28.5-11.5T520-500v-160q0-17-11.5-28.5T480-700q-17 0-28.5 11.5T440-660v160q0 17 11.5 28.5T480-460ZM192-200h608-640 32Z"/></svg>