<svg xmlns="http://www.w3.org/2000/svg" height="24" viewBox="0 -960 960 960" width="24"><path d="M145.869-111.521q-53.957 0-91.218-37.261-37.26-37.261-37.26-91.218t37.26-91.218q37.261-37.261 91.218-37.261 6.652 0 12.934.652 6.283.653 12.587 2.087l165.392-227.522q-11.913-18.739-18.587-40.782-6.674-22.043-6.674-45.956 0-69.957 49.261-119.218Q410.043-848.479 480-848.479t119.218 49.261Q648.479-749.957 648.479-680q0 23.913-6.891 46.239-6.892 22.326-18.804 41.065L788.61-365.74q6.304-1.434 12.587-2.087 6.282-.652 12.934-.652 53.957 0 91.218 37.261T942.61-240q0 53.957-37.261 91.218t-91.218 37.261q-53.957 0-91.218-37.261T685.652-240q0-17.21 4.087-33.061 4.087-15.852 12.391-29.852L542.957-523.652q-2.62 1.058-4.978 1.587-2.358.529-4.978 1.587v163.521q33.304 14.827 54.391 46.392Q608.479-279 608.479-240q0 53.957-37.261 91.218T480-111.521q-53.957 0-91.218-37.261T351.521-240q0-39 21.087-70.348t54.391-46.609v-163.521q-2.62-1.058-4.978-1.587-2.358-.529-4.978-1.587L257.304-303.478q8.305 14 12.674 29.804 4.37 15.804 4.37 33.674 0 53.957-37.261 91.218t-91.218 37.261Zm2.826-96.958q13.397 0 22.459-9.062T180.216-240q0-13.397-9.062-22.459t-22.459-9.062q-13.396 0-22.459 9.062-9.062 9.062-9.062 22.459t9.062 22.459q9.063 9.062 22.459 9.062ZM480-680Zm0 471.521q13.397 0 22.459-9.062T511.521-240q0-13.397-9.062-22.459T480-271.521q-13.397 0-22.459 9.062T448.479-240q0 13.397 9.062 22.459T480-208.479Zm334.131 0q13.397 0 22.459-9.062T845.652-240q0-13.397-9.062-22.459t-22.459-9.062q-13.396 0-22.459 9.062-9.062 9.062-9.062 22.459t9.062 22.459q9.063 9.062 22.459 9.062ZM148.695-240ZM480-240Zm334.131 0ZM480-609.044q29.269 0 50.113-20.843 20.843-20.844 20.843-50.113t-20.843-50.113Q509.269-750.956 480-750.956t-50.113 20.843Q409.044-709.269 409.044-680t20.843 50.113q20.844 20.843 50.113 20.843Z"/></svg>