<svg xmlns="http://www.w3.org/2000/svg" height="20" viewBox="0 -960 960 960" width="20"><path d="M143-129q-57 0-96-39T8-264q0-57 39-96t96-39q10.192 0 19.596 1.5T181-391l156-213.635q-8-15.365-12-32.439-4-17.074-4-34.926 0-67 46-113t113-46q67 0 113 46t46 113.442q0 17.558-3.5 35.058T624-603.635L779-391q9-5 18.404-6.5T817-399q57 0 96 39t39 96q0 57-39 96t-96 39q-57 0-96-39t-39-96q0-13 1.5-24t5.5-24L537-524h.786q.785 0 1.214-1v140.174Q573-369 594-337t21 73q0 57-39 96t-96 39q-57 0-96-39t-39-96q0-41 21-73.5t55-47.5v-140q.071 1 .536 1H423L271-313q4 13 5.5 24t1.5 25q0 57-39 96t-96 39Z"/></svg>