<svg xmlns="http://www.w3.org/2000/svg" height="24" viewBox="0 -960 960 960" width="24"><path d="M480-60.782q-27.13 0-51.522-11.934-24.391-11.935-38.652-35.196h-89.044v-230.479q-59.566-41.826-94.783-107.804Q170.782-512.174 170.782-590q0-128.348 90.435-218.783Q351.652-899.218 480-899.218q128.348 0 218.783 90.435Q789.218-718.348 789.218-590q0 79.261-35.217 144.522t-94.783 107.087v230.479h-89.044q-14.261 23.26-38.935 35.196Q506.565-60.782 480-60.782ZM406.783-206h146.434v-36H406.783v36Zm0-76h146.434v-38H406.783v38Zm107.739-124.783v-99.521L604.218-596 556-644.218l-76 76-76-76L355.782-596l89.696 89.696v99.521h69.044Z"/></svg>