<svg xmlns="http://www.w3.org/2000/svg" height="24" viewBox="0 -960 960 960" width="24"><path d="M342.217-200q-10.294 0-17.794-7.179-7.5-7.18-7.5-17.436V-710H145.385q-10.577 0-17.981-7.364Q120-724.728 120-735.249q0-10.52 7.179-17.636 7.18-7.115 17.436-7.115h393.847q10.577 0 17.981 7.206 7.403 7.206 7.403 17.5t-7.179 17.794q-7.18 7.5-17.436 7.5H366.923v484.615q0 10.577-7.206 17.981-7.206 7.404-17.5 7.404Zm354.616 0q-10.295 0-17.41-7.179-7.116-7.18-7.116-17.436v-289.231h-93.076q-10.577 0-17.981-7.364-7.404-7.365-7.404-17.885 0-10.52 7.18-17.636 7.179-7.115 17.436-7.115h236.153q10.577 0 17.981 7.206 7.404 7.205 7.404 17.5 0 10.294-7.179 17.794-7.18 7.5-17.436 7.5h-93.846v289.231q0 10.256-7.206 17.436-7.206 7.179-17.5 7.179Z"/></svg>