<svg xmlns="http://www.w3.org/2000/svg" height="24" viewBox="0 -960 960 960" width="24"><path d="M324.235-126q-31.764 0-54-21.5Q248-169 248-201v-481H122q-31.667 0-53.833-22.235Q46-726.471 46-758.235 46-790 68.167-812 90.333-834 122-834h404q31.667 0 53.833 22.235 22.167 22.236 22.167 54Q602-726 579.833-704 557.667-682 526-682H399v480q0 31.667-21.5 53.833Q356-126 324.235-126Zm394 0q-31.764 0-54-21.5Q642-169 642-201v-249h-45q-31.667 0-53.833-22.235-22.167-22.236-22.167-54Q521-558 542.5-579.5T596-601h243q32 0 53.5 21.5t21.5 53.265q0 31.764-21.5 54Q871-450 839-450h-46v248q0 31.667-21.5 53.833Q750-126 718.235-126Z"/></svg>