<svg xmlns="http://www.w3.org/2000/svg" height="20" viewBox="0 -960 960 960" width="20"><path d="m480-327.63 155.479-155.24-58.892-58.652-55.087 55.087V-632.37h-83v145.935l-55.087-55.087-58.892 58.652L480-327.63Zm0 239.76q-80.913 0-152.345-30.617-71.432-30.618-124.991-84.177-53.559-53.559-84.177-124.991Q87.869-399.087 87.869-480q0-81.913 30.618-152.845t84.177-124.491q53.559-53.559 124.991-84.177Q399.087-872.131 480-872.131q81.913 0 152.845 30.618t124.491 84.177q53.559 53.559 84.177 124.491Q872.131-561.913 872.131-480q0 80.913-30.618 152.345t-84.177 124.991q-53.559 53.559-124.491 84.177Q561.913-87.869 480-87.869Z"/></svg>