<svg xmlns="http://www.w3.org/2000/svg" height="20" viewBox="0 -960 960 960" width="20"><path d="M843.522-287.021 389.174-452.217l100.631-277.696 453.108 164.957-99.391 277.935ZM537.109-628.826 489.5-499.521l47.609-129.305Zm260.587 464.087L59.717-432.956l27.587-78.283 739.218 269.218-28.826 77.282Zm-530.84-337.63q-53.095 0-90.128-37.167-37.032-37.166-37.032-90.261 0-53.094 37.092-90.246 37.092-37.153 90.082-37.153 53.088 0 90.251 37.167 37.162 37.166 37.162 90.261 0 53.094-37.166 90.247-37.167 37.152-90.261 37.152Zm.014-79.413q20 0 34.5-13.8t14.5-34.2q0-20-14.5-34.5t-34.5-14.5q-20 0-34.5 14.5t-14.5 34.5q0 20 14.5 34t34.5 14Zm222.63 82.261 305.718 110.934 47.369-127.587-305.478-112.652L489.5-499.521ZM266.87-629.782Z"/></svg>