<svg xmlns="http://www.w3.org/2000/svg" height="24" viewBox="0 -960 960 960" width="24"><path d="M351.521-150.391H206.783q-44.305 0-75.153-30.848-30.848-30.848-30.848-75.153v-546.434q0-44.305 30.848-75.153 30.848-30.849 75.153-30.849h546.434q44.305 0 75.153 30.849 30.848 30.848 30.848 75.153v546.434q0 44.305-30.848 75.153-30.848 30.848-75.153 30.848H606.783l-90.304 90.304q-7.696 7.696-17.522 11.61-9.827 3.912-20.087 3.912-10.261 0-20.088-3.913-9.826-3.913-17.522-11.608l-89.739-90.305ZM480-478.304q60.261 0 102.391-42.131 42.131-42.13 42.131-102.391t-42.131-102.109Q540.261-766.783 480-766.783t-102.391 41.848q-42.131 41.848-42.131 102.109 0 60.261 42.131 102.391 42.13 42.131 102.391 42.131ZM206.783-256.392h546.434v-58.436q-54-50.173-122.108-77.564Q563-419.784 480-419.784q-83 0-151.109 27.957-68.108 27.956-122.108 78.13v57.305Z"/></svg>