<svg xmlns="http://www.w3.org/2000/svg" height="24" viewBox="0 -960 960 960" width="24"><path d="M345-143H212q-53 0-89.5-36.5T86-269v-536q0-53 36.5-89.5T212-931h536q53 0 89.5 36.5T874-805v536q0 53-36.5 89.5T748-143H612l-89 89q-9 9-21 14t-24 5q-12 0-24-5t-21-14l-88-89ZM212-335q54-48 119.5-74T480-435q83 0 148.5 25T748-337v-468H212v470Zm268-142q62 0 105-43t43-105q0-62-43-104.5T480-772q-62 0-105 42.5T332-625q0 62 43 105t105 43ZM280-269h400v-3q-42-35-93-51.5T480-340q-56 0-107 16.5T280-272v3Zm199.765-303Q458-572 443-587.441t-15-37.5Q428-647 443.235-662q15.236-15 37-15Q502-677 517-661.765q15 15.236 15 37Q532-603 516.765-587.5q-15.236 15.5-37 15.5Zm.235 2Z"/></svg>