<svg xmlns="http://www.w3.org/2000/svg" height="20" viewBox="0 -960 960 960" width="20"><path d="M352.923-232H240.615Q216-234 200-249.562q-16-15.563-16-39.053v-478.77q0-24.315 16.15-40.465Q216.3-824 240.615-824h478.77q24.315 0 40.465 16.15Q776-791.7 776-767.385v478.77q0 23.49-16 39.053Q744-234 719.385-232H607.077L499.615-124.538q-4.63 4.231-9.392 6.346-4.761 2.115-10.423 2.115t-10.423-2.115q-4.762-2.115-8.992-6.346L352.923-232Zm127.319-220.923q52.066 0 87.912-36.089Q604-525.1 604-577.166q0-52.065-36.089-87.911-36.088-35.846-88.153-35.846-52.066 0-87.912 36.088Q356-628.746 356-576.681q0 52.066 36.089 87.912 36.088 35.846 88.153 35.846ZM232.923-264h494.154q8.462-16.308 11.538-17.654Q741.692-283 744-301.615q-57-45-124.5-68t-139.5-23q-72 0-139.5 23t-124.5 68q2.308 18.615 5.385 19.961 3.076 1.346 11.538 17.654Z"/></svg>