<svg xmlns="http://www.w3.org/2000/svg" height="24" viewBox="0 -960 960 960" width="24"><path d="M655.385-120h-350.77q-26.654 0-45.634-18.981Q240-157.961 240-184.615v-590.77q0-26.654 18.981-45.634Q277.961-840 304.615-840h350.77q26.654 0 45.634 18.981Q720-802.039 720-775.385v590.77q0 26.654-18.981 45.634Q682.039-120 655.385-120ZM480.136-615.385q26.71 0 45.595-19.02 18.884-19.021 18.884-45.731t-19.02-45.595q-19.021-18.884-45.731-18.884t-45.595 19.02q-18.884 19.021-18.884 45.731t19.02 45.595q19.021 18.884 45.731 18.884ZM480-221.538q57.539 0 98-40.462 40.462-40.461 40.462-98T578-458q-40.461-40.462-98-40.462T382-458q-40.462 40.461-40.462 98T382-262q40.461 40.462 98 40.462Zm-.054-40.001q-40.638 0-69.523-28.939-28.884-28.939-28.884-69.576 0-40.638 28.939-69.523 28.939-28.884 69.576-28.884 40.638 0 69.523 28.939 28.884 28.939 28.884 69.576 0 40.638-28.939 69.523-28.939 28.884-69.576 28.884Z"/></svg>