<svg xmlns="http://www.w3.org/2000/svg" height="20" viewBox="0 -960 960 960" width="20"><path d="M158.216-480q23.566-86.522 101.653-185.457Q337.956-764.392 480-888.871q143.044 129.479 220.631 227.914Q778.218-562.522 801.784-480H158.216Zm655.829 35.694q5.087 48.566-5.739 94.849-10.827 46.283-33.871 86.327l-151 150q-40.044 23.044-86.044 33.088Q491.39-70 443.824-74.521l370.221-369.785ZM565.782-408h129.566L377.826-91.477q-23.522-7.13-44.979-17.957-21.457-10.826-41.848-24.218L565.782-408Zm-212.392 0h129.001L247.13-172.738q-17.957-15.827-31.501-33.783Q202.086-224.478 190.39-245l163-163Zm-211.391 0H271L166.304-303.304q-9.827-24.826-15.088-51-5.261-26.174-9.217-53.696Z"/></svg>