<svg xmlns="http://www.w3.org/2000/svg" height="24" viewBox="0 -960 960 960" width="24"><path d="M550-670h100q6.067 0 10.033-3.953 3.967-3.954 3.967-10Q664-690 660.033-694q-3.966-4-10.033-4H550q-6.067 0-10.033 3.953-3.967 3.954-3.967 10Q536-678 539.967-674q3.966 4 10.033 4ZM152-97q-24.75 0-42.375-17.625T92-157v-296q0-24.75 17.625-42.375T152-513h416q24.75 0 42.375 17.625T628-453v296q0 24.75-17.625 42.375T568-97H152Zm556-350v-6q0-42-22.5-76T627-580h53q43.333 0 73.667-30.265Q784-640.529 784-683.765 784-727 753.667-757.5 723.333-788 680-788h-20q-6.067 0-10.033 3.953-3.967 3.954-3.967 10Q646-768 649.967-764q3.966 4 10.033 4h20q31.667 0 53.833 22.235 22.167 22.236 22.167 54Q756-652 733.833-630 711.667-608 680-608h-20q-6.067 0-10.033 3.967Q646-600.067 646-594q0 6 4 10t10 4h-33q-16-8-30.333-10.5Q582.333-593 568-593h-14v-1q0-6.067-3.967-10.033Q546.067-608 540-608h-20q-31.667 0-53.833-22.235-22.167-22.236-22.167-54Q444-716 466.167-738q22.166-22 53.833-22h20q6.067 0 10.033-3.953 3.967-3.954 3.967-10Q554-780 550.033-784q-3.966-4-10.033-4h-20q-43.333 0-73.667 30.333Q416-727.333 416-684q0 29 15 53t39 38H332v-210q0-24.75 17.625-42.375T392-863h416q24.75 0 42.375 17.625T868-803v296q0 24.75-17.625 42.375T808-447H708ZM435-292q7-4.5 7-12.75T435-318l-99-62q-8-5-15.5-.696Q313-376.391 313-367v124q0 9.391 7.5 13.696Q328-225 336-230l99-62Z"/></svg>