<svg xmlns="http://www.w3.org/2000/svg" height="20" viewBox="0 -960 960 960" width="20"><path d="m418-270-112 70q-7.032 5-14.516.604Q284-203.793 284-213v-142q0-9.207 7.484-13.604Q298.968-373 306-368l112 70q7 4.357 7 14.179Q425-274 418-270Zm102-329q-40.833 0-69.417-28.618Q422-656.235 422-697.118 422-738 450.583-766.5 479.167-795 520-795h36q10.4 0 17.2 6.8 6.8 6.8 6.8 17.2 0 10.4-6.8 17.2-6.8 6.8-17.2 6.8h-36q-20.833 0-35.417 14.618Q470-717.765 470-696.882 470-676 484.583-661.5 499.167-647 520-647h36q10.4 0 17.2 6.8 6.8 6.8 6.8 17.2 0 10.4-6.8 17.2-6.8 6.8-17.2 6.8h-36Zm168 0h-36q-10.4 0-17.2-6.8-6.8-6.8-6.8-17.2 0-10.4 6.8-17.2 6.8-6.8 17.2-6.8h36q20.833 0 35.417-14.618Q738-676.235 738-697.118 738-718 723.417-732.5 708.833-747 688-747h-36q-10.4 0-17.2-6.8-6.8-6.8-6.8-17.2 0-10.4 6.8-17.2 6.8-6.8 17.2-6.8h36q40.833 0 69.417 28.618Q786-737.765 786-696.882 786-656 757.417-627.5 728.833-599 688-599Zm-36-74h-96q-10.4 0-17.2-6.8-6.8-6.8-6.8-17.2 0-10.4 6.8-17.2 6.8-6.8 17.2-6.8h96q10.4 0 17.2 6.8 6.8 6.8 6.8 17.2 0 10.4-6.8 17.2-6.8 6.8-17.2 6.8Zm-17 297v-118h199v-340H374v340H256v-340q0-50 34.15-84T374-952h460q49.7 0 83.85 34.15Q952-883.7 952-834v340q0 49.7-34.15 83.85Q883.7-376 834-376H635ZM126-8Q76.3-8 42.15-42.15 8-76.3 8-126v-316q0-49.7 34.15-83.85Q76.3-560 126-560h460q49.7 0 83.85 34.15Q704-491.7 704-442v316q0 49.7-34.15 83.85Q635.7-8 586-8H126Zm0-118h460v-316H126v316Zm478-538ZM356-284Z"/></svg>