<svg xmlns="http://www.w3.org/2000/svg" height="20" viewBox="0 -960 960 960" width="20"><path d="m418.87-271.304-108.522 68.261q-7.902 5.434-16.256.622-8.353-4.812-8.353-14.927V-354.13q0-10.115 8.353-14.927 8.354-4.813 16.256.622l108.522 68.261q7.434 4.792 7.434 14.614 0 9.821-7.434 14.256Zm99.391-317.697q-42.645 0-72.496-29.87-29.852-29.871-29.852-72.544 0-42.672 29.852-72.476 29.851-29.805 72.496-29.805h36q10.4 0 17.2 6.8 6.8 6.8 6.8 17.2 0 10.4-6.8 17.2-6.8 6.8-17.2 6.8h-36q-22.645 0-38.496 15.871-15.852 15.871-15.852 38.543 0 22.673 15.852 38.477 15.851 15.804 38.496 15.804h36q10.4 0 17.2 6.8 6.8 6.8 6.8 17.2 0 10.4-6.8 17.2-6.8 6.8-17.2 6.8h-36Zm168 0h-36q-10.4 0-17.2-6.8-6.8-6.8-6.8-17.2 0-10.4 6.8-17.2 6.8-6.8 17.2-6.8h36q22.645 0 38.496-15.87 15.852-15.871 15.852-38.544 0-22.672-15.852-38.476-15.851-15.805-38.496-15.805h-36q-10.4 0-17.2-6.8-6.8-6.8-6.8-17.2 0-10.4 6.8-17.2 6.8-6.8 17.2-6.8h36q42.645 0 72.496 29.871 29.852 29.871 29.852 72.543 0 42.673-29.852 72.477-29.851 29.804-72.496 29.804Zm-36-78.347h-96q-10.4 0-17.2-6.8-6.8-6.8-6.8-17.2 0-10.4 6.8-17.2 6.8-6.8 17.2-6.8h96q10.4 0 17.2 6.8 6.8 6.8 6.8 17.2 0 10.4-6.8 17.2-6.8 6.8-17.2 6.8Zm-13.087 277.436v-98.001h199.435v-348.696H367.913v348.696h-98.001v-348.696q0-41.304 28.498-69.653 28.499-28.348 69.503-28.348h468.696q41.004 0 69.503 28.498 28.498 28.499 28.498 69.503v348.696q0 41.004-28.498 69.503-28.499 28.498-69.503 28.498H637.174ZM123.391-25.39q-41.004 0-69.503-28.498Q25.39-82.387 25.39-123.391v-324.696q0-41.004 28.498-69.503 28.499-28.498 69.503-28.498h468.696q41.004 0 69.503 28.498 28.498 28.499 28.498 69.503v324.696q0 41.004-28.498 69.503-28.499 28.498-69.503 28.498H123.391Zm0-98.001h468.696v-324.696H123.391v324.696Zm478.87-538.87ZM357.739-285.739Z"/></svg>