<svg xmlns="http://www.w3.org/2000/svg" height="24" viewBox="0 -960 960 960" width="24"><path d="M554-663h100q13 0 21.5-8.5T684-693q0-13-8.5-21.5T654-723H554q-13 0-21.5 8.5T524-693q0 13 8.5 21.5T554-663ZM126 0Q73 0 36.5-36.5T0-126v-300q0-53 36.5-89.5T126-552h460q53 0 89.5 36.5T712-426v300q0 53-36.5 89.5T586 0H126Zm646-368v-58q0-50-23.5-91T686-583q45-1 76.5-32.912t31.5-77.5Q794-739 761.917-771 729.833-803 684-803h-20q-13 0-21.5 8.5T634-773q0 13 8.5 21.5T664-743h20q20.833 0 35.417 14.618Q734-713.765 734-692.882 734-672 719.417-657.5 704.833-643 684-643h-20q-13 0-21.5 8.5T634-613q0 13.308 8.5 21.654T664-583l-30-23q-11-3-23.167-4.5Q598.667-612 586-612h-12v-1q0-13-8.5-21.5T544-643h-20q-20.833 0-35.417-14.618Q474-672.235 474-693.118 474-714 488.583-728.5 503.167-743 524-743h20q13 0 21.5-8.5T574-773q0-13-8.5-21.5T544-803h-20q-45.833 0-77.917 32.083Q414-738.833 414-693q0 24 9.5 45t26.5 36H248v-222q0-53 36.5-89.5T374-960h460q53 0 89.5 36.5T960-834v340q0 53-36.5 89.5T834-368h-62ZM431-260q9-5 9-16t-9-16l-110-68q-8-5-16.5-.457Q296-355.913 296-346v140q0 9.913 8.5 14.457Q313-187 321-192l110-68Z"/></svg>