<svg xmlns="http://www.w3.org/2000/svg" height="24" viewBox="0 -960 960 960" width="24"><path d="m435-292-99 62q-8 5-15.5.696Q313-233.609 313-243v-124q0-9.391 7.5-13.696Q328-385 336-380l99 62q7 4.5 7 12.75T435-292Zm85-288q-43.333 0-73.667-30.265Q416-640.529 416-683.765 416-727 446.333-757.5 476.667-788 520-788h20q6.067 0 10.033 3.953 3.967 3.954 3.967 10Q554-768 550.033-764q-3.966 4-10.033 4h-20q-31.667 0-53.833 22.235-22.167 22.236-22.167 54Q444-652 466.167-630q22.166 22 53.833 22h20q6.067 0 10.033 3.953 3.967 3.954 3.967 10Q554-588 550.033-584q-3.966 4-10.033 4h-20Zm160 0h-20q-6.067 0-10.033-3.953-3.967-3.954-3.967-10Q646-600 649.967-604q3.966-4 10.033-4h20q31.667 0 53.833-22.235 22.167-22.236 22.167-54Q756-716 733.833-738 711.667-760 680-760h-20q-6.067 0-10.033-3.953-3.967-3.954-3.967-10Q646-780 649.967-784q3.966-4 10.033-4h20q43.333 0 73.667 30.265Q784-727.471 784-684.235 784-641 753.667-610.5 723.333-580 680-580Zm-30-90H550q-6.067 0-10.033-3.953-3.967-3.954-3.967-10Q536-690 539.967-694q3.966-4 10.033-4h100q6.067 0 10.033 3.953 3.967 3.954 3.967 10Q664-678 660.033-674q-3.966 4-10.033 4Zm-35 223v-28h193q14 0 23-9t9-23v-296q0-14-9-23t-23-9H392q-14 0-23 9t-9 23v298h-28v-298q0-24.75 17.625-42.375T392-863h416q24.75 0 42.375 17.625T868-803v296q0 24.75-17.625 42.375T808-447H615ZM152-97q-24.75 0-42.375-17.625T92-157v-296q0-24.75 17.625-42.375T152-513h416q24.75 0 42.375 17.625T628-453v296q0 24.75-17.625 42.375T568-97H152Zm0-28h416q14 0 23-9t9-23v-296q0-14-9-23t-23-9H152q-14 0-23 9t-9 23v296q0 14 9 23t23 9Zm448-530ZM360-305Z"/></svg>