<svg xmlns="http://www.w3.org/2000/svg" height="20" viewBox="0 -960 960 960" width="20"><path d="m421.538-295.308-101.692 64.462q-7.494 5.231-14.67.798Q298-234.482 298-243.769v-126.923q0-9.288 7.176-13.721t14.67.798l101.692 64.461q5.693 4.204 5.693 11.91t-5.693 11.936ZM516-591.385q-39.872 0-67.782-27.857-27.91-27.857-27.91-67.654 0-39.796 27.91-67.835 27.91-28.038 67.782-28.038h36q5.067 0 8.38 3.302 3.312 3.303 3.312 8.354 0 5.052-3.312 8.39-3.313 3.338-8.38 3.338h-36q-30.128 0-51.218 21.143-21.09 21.143-21.09 51.346 0 30.204 21.09 51.165 21.09 20.962 51.218 20.962h36q5.067 0 8.38 3.302 3.312 3.303 3.312 8.354 0 5.052-3.312 8.39-3.313 3.338-8.38 3.338h-36Zm168 0h-36q-5.067 0-8.38-3.302-3.312-3.303-3.312-8.354 0-5.051 3.312-8.39 3.313-3.338 8.38-3.338h36q30.128 0 51.218-21.143 21.09-21.142 21.09-51.346 0-30.203-21.09-51.165T684-759.385h-36q-5.067 0-8.38-3.302-3.312-3.303-3.312-8.354 0-5.051 3.312-8.39 3.313-3.338 8.38-3.338h36q39.872 0 67.782 27.857 27.91 27.858 27.91 67.654 0 39.797-27.91 67.835-27.91 28.038-67.782 28.038Zm-36-84h-96q-5.067 0-8.38-3.302-3.312-3.303-3.312-8.354 0-5.051 3.312-8.39 3.313-3.338 8.38-3.338h96q5.067 0 8.38 3.302 3.312 3.303 3.312 8.354 0 5.052-3.312 8.39-3.313 3.338-8.38 3.338Zm-30.308 231.231v-32h197.693q10.769 0 17.692-6.923T840-500.769v-310.77q0-10.769-6.923-17.692t-17.692-6.923h-430.77q-10.769 0-17.692 6.923T360-811.539v312.308h-32v-312.308q0-23.654 16.631-40.134 16.63-16.481 39.984-16.481h430.77q23.354 0 39.984 16.631Q872-834.893 872-811.539v310.77q0 23.354-16.631 39.985-16.63 16.63-39.984 16.63H617.692ZM144.615-91.846q-23.354 0-39.984-16.631Q88-125.107 88-148.461V-466q0-23.354 16.631-39.985 16.63-16.63 39.984-16.63h430.77q23.354 0 39.984 16.63Q632-489.354 632-466v317.539q0 23.354-16.631 39.984-16.63 16.631-39.984 16.631h-430.77Zm0-32h430.77q10.769 0 17.692-6.923T600-148.461V-466q0-10.769-6.923-17.692t-17.692-6.923h-430.77q-10.769 0-17.692 6.923T120-466v317.539q0 10.769 6.923 17.692t17.692 6.923ZM600-656.154ZM360-307.231Z"/></svg>