<svg xmlns="http://www.w3.org/2000/svg" height="20" viewBox="0 -960 960 960" width="20"><path d="M216-164.001q-21.449 0-36.724-15.275-15.275-15.275-15.275-36.724H216v51.999ZM164.001-744q0-21.449 15.275-36.724 15.275-15.275 36.724-15.275V-744h-51.999ZM294-164.001V-216h72v51.999h-72ZM294-744v-51.999h72V-744h-72Zm150 579.999V-216h72v51.999h-72ZM444-744v-51.999h72V-744h-72Zm150 579.999V-216h72v51.999h-72ZM594-744v-51.999h72V-744h-72Zm150 579.999V-216h51.999q0 21.922-15.275 36.961-15.275 15.038-36.724 15.038ZM744-744v-51.999q21.449 0 36.724 15.275 15.275 15.275 15.275 36.724H744ZM326.154-294q-13.666 0-22.91-9.244T294-326.154v-307.692q0-13.666 9.244-22.91t22.91-9.244h307.692q13.666 0 22.91 9.244t9.244 22.91v307.692q0 13.666-9.244 22.91T633.846-294H326.154Zm19.845-51.999h268.002v-268.002H345.999v268.002ZM164.001-294v-72H216v72h-51.999Zm0-150v-72H216v72h-51.999Zm0-150v-72H216v72h-51.999ZM744-294v-72h51.999v72H744Zm0-150v-72h51.999v72H744Zm0-150v-72h51.999v72H744Z"/></svg>