<svg xmlns="http://www.w3.org/2000/svg" height="24" viewBox="0 -960 960 960" width="24"><path d="M200-160q-16.5 0-28.25-11.75T160-200h40v40Zm-40-600q0-16.5 11.75-28.25T200-800v40h-40Zm120 600v-40h80v40h-80Zm0-600v-40h80v40h-80Zm160 600v-40h80v40h-80Zm0-600v-40h80v40h-80Zm160 600v-40h80v40h-80Zm0-600v-40h80v40h-80Zm160 600v-40h40q0 16.846-11.75 28.423Q776.5-160 760-160Zm0-600v-40q16.5 0 28.25 11.75T800-760h-40ZM312.308-280q-13.731 0-23.02-9.288-9.288-9.289-9.288-23.02v-335.384q0-13.731 9.288-23.02 9.289-9.288 23.02-9.288h335.384q13.731 0 23.02 9.288 9.288 9.289 9.288 23.02v335.384q0 13.731-9.288 23.02-9.289 9.288-23.02 9.288H312.308ZM320-320h320v-320H320v320Zm-160 40v-80h40v80h-40Zm0-160v-80h40v80h-40Zm0-160v-80h40v80h-40Zm600 320v-80h40v80h-40Zm0-160v-80h40v80h-40Zm0-160v-80h40v80h-40Z"/></svg>