<svg xmlns="http://www.w3.org/2000/svg" height="24" viewBox="0 -960 960 960" width="24"><path d="M332.308-332.308V-270q0 7.615 5.038 12.654 5.039 5.038 12.654 5.038t12.654-5.038q5.038-5.039 5.038-12.654v-62.308H430q7.615 0 12.654-5.038 5.038-5.039 5.038-12.654t-5.038-12.654q-5.039-5.038-12.654-5.038h-62.308V-430q0-7.615-5.038-12.654-5.039-5.038-12.654-5.038t-12.654 5.038q-5.038 5.039-5.038 12.654v62.308H270q-7.615 0-12.654 5.038-5.038 5.039-5.038 12.654t5.038 12.654q5.039 5.038 12.654 5.038h62.308Zm217.692 50h140q7.615 0 12.654-5.038 5.038-5.039 5.038-12.654t-5.038-12.654q-5.039-5.038-12.654-5.038H550q-7.615 0-12.654 5.038-5.038 5.039-5.038 12.654t5.038 12.654q5.039 5.038 12.654 5.038Zm0-100h140q7.615 0 12.654-5.038 5.038-5.039 5.038-12.654t-5.038-12.654q-5.039-5.038-12.654-5.038H550q-7.615 0-12.654 5.038-5.038 5.039-5.038 12.654t5.038 12.654q5.039 5.038 12.654 5.038Zm70-214.153L663.461-553q5.154 5.154 12.154 5.539 7 .384 12.924-5.539 5.692-5.692 5.807-12.423.116-6.731-5.577-12.654L645.077-622l43.462-43.461q5.153-5.154 5.538-12.154.385-7-5.538-12.924-5.924-5.923-12.539-5.923-6.615 0-12.539 5.923L620-647.077l-43.461-43.462q-5.154-5.153-12.154-5.538-7-.385-12.924 5.538-5.923 5.924-5.923 12.539 0 6.615 5.923 12.539L594.923-622l-43.692 43.923q-4.923 5.154-5.308 12.154-.385 7 5.538 12.923 5.924 5.923 12.539 5.923 6.615 0 12.539-5.923L620-596.461Zm-340-7.847h140q7.615 0 12.654-5.038 5.038-5.039 5.038-12.654t-5.038-12.654q-5.039-5.038-12.654-5.038H280q-7.615 0-12.654 5.038-5.038 5.039-5.038 12.654t5.038 12.654q5.039 5.038 12.654 5.038ZM224.615-160Q197-160 178.5-178.5 160-197 160-224.615v-510.77Q160-763 178.5-781.5 197-800 224.615-800h510.77Q763-800 781.5-781.5 800-763 800-735.385v510.77Q800-197 781.5-178.5 763-160 735.385-160h-510.77Zm0-40h510.77q9.23 0 16.923-7.692Q760-215.385 760-224.615v-510.77q0-9.23-7.692-16.923Q744.615-760 735.385-760h-510.77q-9.23 0-16.923 7.692Q200-744.615 200-735.385v510.77q0 9.23 7.692 16.923Q215.385-200 224.615-200ZM200-760v560-560Z"/></svg>