<svg xmlns="http://www.w3.org/2000/svg" height="24" viewBox="0 -960 960 960" width="24"><path d="M480-152.519h100.349V-12.17H480V-152.52Zm220.133-109.35 98.131 98.131-70.131 70.132-98.132-98.132 70.132-70.131ZM0-960h90.174q37.522 0 63.849 26.326 26.326 26.326 26.326 63.848v44.825q33.696-47.173 85.848-74.478 52.152-27.304 114.021-27.304h292.566v245.348l-60.739-60.305q-45.391-45.391-104.783-70.869-59.391-25.479-124.478-25.479-57 0-109.37 19.739-52.369 19.739-93.065 53.043v102.74q31.522-45 85.261-74.608 53.739-29.609 117.174-29.609 50.261 0 96.674 20.131 46.413 20.13 82.109 55.826l204.217 204.217-357 356.566-204.218-203.652q-6.739-6.739-12.543-13.761-5.805-7.021-11.674-14.63v52.26q0 37.522-26.326 63.849-26.327 26.326-63.849 26.326H0V-960Zm738.786 548.695h140.349v100.349H738.786v-100.349Z"/></svg>