<svg xmlns="http://www.w3.org/2000/svg" height="24" viewBox="0 -960 960 960" width="24"><path d="m792.131-283.37-66.609-66.608q15.565-28.326 23.587-60.892 8.021-32.565 8.021-67.13 0-115.043-81.043-196.087Q595.043-755.13 480-755.13q-35.043 0-67.37 8.021-32.326 8.022-60.652 23.587l-66.608-66.609q34.282-20.76 71.663-34.521 37.38-13.761 79.38-18.761v-80.239h87.174v80.239Q649.065-829.174 740.12-738.12q91.054 91.055 105.293 216.533h80.239v87.174h-80.239q-5 42-18.641 79.38-13.641 37.381-34.641 71.663ZM436.413-32.348v-80.239Q310.935-126.826 219.88-217.88q-91.054-91.055-105.293-216.533h-80.24v-87.174h80.24q5-42 18.641-79.141 13.641-37.142 34.641-72.142L49.782-791.196l58.631-58.391 743.174 743.174-60.391 58.63L674.63-166.108q-34.521 20.761-72.141 34.642-37.619 13.88-78.902 18.88v80.24h-87.174ZM480-200.87q33.848 0 65.815-7.663t62.446-23.945L234.478-606.261q-16.043 30-23.826 61.609-7.782 31.609-7.782 66.652 0 115.043 81.043 196.087Q364.957-200.87 480-200.87Z"/></svg>