<svg xmlns="http://www.w3.org/2000/svg" height="20" viewBox="0 -960 960 960" width="20"><path d="m770.131-297.37-60.609-59.608q15.565-31.326 23.587-61.892 8.021-30.565 8.021-61.13 0-109.043-76.043-185.087Q589.043-741.13 480-741.13q-31.043 0-61.87 8.021-30.826 8.022-61.152 23.587l-59.608-60.609q34.282-21.76 69.663-34.021 35.38-12.261 73.38-17.261v-98.239h79.174v98.239q121.478 14.239 204.533 97.793 83.054 83.555 97.293 204.033h98.239v79.174h-98.239q-4 36-16.141 72.38-12.141 36.381-35.141 70.663ZM440.413-40.348v-98.239Q318.935-152.826 235.88-236.38q-83.054-83.555-97.293-204.033h-98.24v-79.174h98.24q5-37 17.141-72.641 12.141-35.642 34.141-70.642L83.782-769.196l53.631-53.391 685.174 685.174-53.391 53.63L662.63-190.108q-34.521 21.761-70.641 34.142-36.119 12.38-72.402 17.38v98.24h-79.174ZM480-218.87q30.848 0 61.815-7.663t61.446-23.945L250.478-603.261q-16.043 32-23.826 62.109-7.782 30.109-7.782 61.152 0 109.043 76.043 185.087Q370.957-218.87 480-218.87Z"/></svg>