<svg xmlns="http://www.w3.org/2000/svg" height="24" viewBox="0 -960 960 960" width="24"><path d="M172-467v215-456 241Zm441 361q11.475 0 19.237-7.762Q640-121.525 640-133t-7.763-19.238Q624.475-160 613-160q-11.475 0-19.237 7.762Q586-144.475 586-133t7.763 19.238Q601.525-106 613-106Zm214-402q11.475 0 19.237-7.763Q854-523.525 854-535q0-11.475-7.763-19.237Q838.475-562 827-562q-11.475 0-19.237 7.763Q800-546.475 800-535q0 11.475 7.763 19.237Q815.525-508 827-508Zm-400-10q22 0 37.5-15.5T480-571q0-22-15.5-37.5T427-624H299q-22 0-37.5 15.5T246-571q0 22 15.5 37.5T299-518h128Zm0 182q22 0 37.5-15.5T480-389q0-22-15.5-37.5T427-442H299q-22 0-37.5 15.5T246-389q0 22 15.5 37.5T299-336h128ZM172-126q-53 0-89.5-36.5T46-252v-456q0-53 36.5-89.5T172-834h616q53 0 89.5 36.5T914-708H172v456h248v126H172ZM613 0q-55.417 0-94.208-38.792Q480-77.583 480-133q0-42 22.5-74.5T560-255v-69q0-26 18.5-44.5T623-387h151v-26q-35-15-57.5-47.5T694-535q0-55.417 38.792-94.208Q771.583-668 827-668t94.208 38.792Q960-590.417 960-535q0 42-22.5 74.5T880-413v69q0 26-18.5 44.5T817-281H666v26q35 15 57.5 47.5T746-133q0 55.417-38.792 94.208Q668.417 0 613 0Z"/></svg>