<svg xmlns="http://www.w3.org/2000/svg" height="20" viewBox="0 -960 960 960" width="20"><path d="M276-548h182.769q6.8 0 11.4-4.547 4.6-4.547 4.6-11.269 0-6.723-4.6-11.453-4.6-4.731-11.4-4.731H276q-6.8 0-11.4 4.547-4.6 4.547-4.6 11.269 0 6.723 4.6 11.453Q269.2-548 276-548Zm-83.385 316q-24.315 0-40.465-16.162Q136-264.324 136-288.656v-383.012Q136-696 152.15-712t40.465-16h574.77q28 0 44.538 19.923 16.539 19.923 13.385 48.461-9.308-1.615-17.107-3.307-7.8-1.693-15.8-1.693-64.632 0-108.67 44.189-44.039 44.188-44.039 108.119 0 18.733 4.231 35.763 4.231 17.03 11.923 32.853h-68.462q-41.795 0-71.051 29.256t-29.256 71.051v-3.692q-28.923 20.693-44.616 49.962-15.692 29.269-15.692 65.115H192.615Zm382.251 57.231q19.826 0 34.172-14.136 14.346-14.135 14.346-33.961t-14.135-34.172q-14.136-14.346-33.962-14.346-19.826 0-34.172 14.135-14.346 14.136-14.346 33.962 0 19.826 14.136 34.172 14.135 14.346 33.961 14.346ZM791.789-464q19.826 0 34.172-14.136 14.347-14.135 14.347-33.961t-14.136-34.172q-14.136-14.346-33.961-14.346-19.826 0-34.172 14.135-14.347 14.136-14.347 33.962 0 19.825 14.136 34.172Q771.964-464 791.789-464ZM575.077-142.769q-33.462 0-56.885-23.401-23.423-23.401-23.423-56.831 0-29.691 18.077-51.537T559.077-302v-41.385q0-12.03 8.138-20.169 8.139-8.138 20.169-8.138H776v-61.693q-28.154-5.615-46.231-27.382-18.077-21.767-18.077-51.508 0-33.494 23.423-56.918 23.423-23.423 56.885-23.423t56.885 23.401q23.423 23.402 23.423 56.832 0 29.691-18.077 51.537T808-433.385V-368q0 12.031-8.138 20.169-8.139 8.139-20.17 8.139H591.077V-302q28.154 5.616 46.231 27.382 18.077 21.767 18.077 51.508 0 33.495-23.423 56.918-23.424 23.423-56.885 23.423ZM458.769-380q6.8 0 11.4-4.547 4.6-4.547 4.6-11.269 0-6.723-4.6-11.453-4.6-4.731-11.4-4.731H276q-6.8 0-11.4 4.547-4.6 4.547-4.6 11.269 0 6.723 4.6 11.453Q269.2-380 276-380h182.769Z"/></svg>