<svg xmlns="http://www.w3.org/2000/svg" height="20" viewBox="0 -960 960 960" width="20"><path d="M286.74-526.87h136.522q18.126 0 30.737-12.55 12.611-12.55 12.611-30.587t-12.611-30.798q-12.611-12.761-30.737-12.761H286.74q-18.127 0-30.738 12.55-12.611 12.551-12.611 30.588t12.611 30.798q12.611 12.76 30.738 12.76ZM174.783-172.782q-41.005 0-69.503-28.51-28.498-28.51-28.498-69.531V-689.5q0-41.022 28.498-69.37 28.498-28.348 69.503-28.348h610.434q39.87 0 67.501 25.913 27.631 25.914 30.631 64.784-18.696-7-37.259-11.848-18.562-4.848-38.427-4.848-78.793 0-133.271 54.628-54.479 54.629-54.479 132.72 0 20.839 4.435 40.143 4.435 19.305 12.739 37.074h-49.476q-50.653 0-85.827 35.174t-35.174 85.827v15.521q-32.565 25.826-50.283 61.305-17.717 35.478-17.717 78.043H174.783Zm406.965 36.695q11.819 0 20.34-8.311 8.522-8.311 8.522-20.13 0-11.819-8.311-20.34-8.311-8.522-20.13-8.522-11.819 0-20.341 8.311t-8.522 20.13q0 11.819 8.311 20.341 8.311 8.521 20.131 8.521Zm225.303-361.13q11.819 0 20.341-8.311 8.521-8.311 8.521-20.13 0-11.819-8.311-20.341t-20.13-8.522q-11.819 0-20.341 8.311-8.521 8.312-8.521 20.131t8.311 20.34q8.311 8.522 20.13 8.522ZM581.958-49.39q-47.826 0-81.587-33.74-33.761-33.738-33.761-81.533 0-36.771 20-65.619t52-41.544v-55.825q0-20.387 14.307-34.694 14.306-14.307 34.694-14.307h176.302v-42.13q-32-12.695-52-41.464-20-28.768-20-65.59 0-47.859 33.761-81.62t81.588-33.761q47.826 0 81.587 33.739t33.761 81.534q0 36.771-20 65.619t-52 41.543v79.826q0 20.387-14.307 34.694-14.307 14.307-34.694 14.307H625.306v18.129q32 12.696 52 41.465 20 28.768 20 65.59 0 47.859-33.761 81.62-33.761 33.76-81.587 33.76ZM423.262-346.434q18.126 0 30.737-12.551 12.611-12.55 12.611-30.587t-12.611-30.798q-12.611-12.76-30.737-12.76H286.74q-18.127 0-30.738 12.55t-12.611 30.587q0 18.037 12.611 30.798t30.738 12.761h136.522Z"/></svg>