<svg xmlns="http://www.w3.org/2000/svg" height="24" viewBox="0 -960 960 960" width="24"><path d="M701-335q-20-8-39.5-14.5t-41.722-6.5Q602-356 586-352t-32 11q-5 2-10.793.105-5.793-1.894-8.207-7.105-2-5 .045-10.379 2.046-5.38 6.955-7.621 18.679-8 38.292-13 19.614-5 39.227-5Q641-384 662-379t41 13q20 8 39.5 14.5t41.75 6.5q17.8 0 34.487-4.038Q835.425-353.077 851-360q5-2 11.5 0t8.5 7.261q2 5.739-.5 11.118-2.5 5.38-8.5 7.621-18.795 7.556-38.53 12.278T784-317q-21.309 0-42.154-5Q721-327 701-335Zm0 100q-20-8-39.5-14.5t-41.722-6.5Q602-256 586-252t-32 11q-5 2-10.793.105-5.793-1.894-8.207-7.105-2-5 .045-10.379 2.046-5.38 6.955-7.621 18.679-8 38.292-13 19.614-5 39.227-5Q641-284 662-279t41 13q20 8 39.5 14.5t41.75 6.5q17.8 0 34.487-4.038Q835.425-253.077 851-260q5-2 11.5 0t8.5 7.261q2 5.739-.5 11.118-2.5 5.38-8.5 7.621-18.795 7.556-38.53 12.278T784-217q-21.309 0-42.154-5Q721-227 701-235Zm0 100q-20-8-39.5-14.5t-41.722-6.5Q602-156 586-152t-32 11q-5 2-10.793.105-5.793-1.894-8.207-7.105-2-5 .045-10.379 2.046-5.38 6.955-7.621 18.679-8 38.292-13 19.614-5 39.227-5Q641-184 662-179t41 13q20 8 39.5 14.5t41.75 6.5q17.8 0 34.487-4.038Q835.425-153.077 851-160q5-2 11.5 0t8.5 7.261q2 5.739-.5 11.118-2.5 5.38-8.5 7.621-18.795 7.556-38.53 12.278T784-117q-21.309 0-42.154-5Q721-127 701-135Zm-261-60q-97-14-162.5-87.224T212-455q0-57 21.5-103t56.5-84l159-155q7-7 15-10t16-3q8 0 16 3t15 10l159 155q27 29 46.5 64.5T744-501H500q-24.75 0-42.375 17.625T440-441v246Z"/></svg>