<svg xmlns="http://www.w3.org/2000/svg" height="20" viewBox="0 -960 960 960" width="20"><path d="M474.348-125.912q-126.218-1.696-213.892-90.218-87.674-88.522-87.674-214.74 0-57.956 20.695-111.196 20.696-53.239 59.522-96.065l173.435-194.435q10.826-12.391 24.884-18.022 14.059-5.63 28.682-5.63t28.682 5.63q14.058 5.631 24.884 18.022l174.435 194.435q29.261 32.13 48.891 70.391 19.631 38.261 25.196 81.522H681.521q-5.762-24.373-17.164-45.665-11.402-21.291-28.444-39.03L480-746.391 343.087-591.913q-29.304 34.435-50.804 72.304-21.5 37.87-21.5 88.739 0 85.479 59.043 144.87 59.044 59.391 144.522 62.087v98.001Zm2.522-377.958Zm218.434 163.957q-13.835-5.435-28.635-9.935-14.799-4.5-28.669-4.5-13.13 0-25.935 3.5-12.804 3.5-26.804 8.5-11.826 5.131-23.039 1.125-11.213-4.006-16.309-14.951-6.131-11.927-1.283-23.855 4.848-11.928 17.674-17.058 18.131-8.565 37.413-12.565 19.283-4 37.801-4 20.847 0 41.253 5.5 20.407 5.5 39.49 14.065 13.595 5.435 27.865 9.935 14.271 4.5 28.874 4.5 13.478 0 26.609-3.5 13.13-3.5 27.13-8.5 11.826-5.131 23.039-1.125 11.213 4.006 16.309 14.951 6.131 11.927 1.283 23.855-4.848 11.928-17.674 17.058-19.131 8.565-37.913 12.565-18.783 4-38.783 4-20.521 0-40.326-5.5-19.804-5.5-39.37-14.065Zm0 108q-13.835-5.435-28.635-9.935-14.799-4.5-28.669-4.5-13.13 0-25.935 3.5-12.804 3.5-26.804 8.5-11.826 5.131-23.039 1.125-11.213-4.006-16.309-14.951-6.131-11.927-1.283-23.855 4.848-11.928 17.674-17.058 18.131-8.565 37.413-12.565 19.283-4 37.801-4 20.847 0 41.253 5.5 20.407 5.5 39.49 14.065 13.595 5.435 27.865 9.935 14.271 4.5 28.874 4.5 13.478 0 26.609-3.5 13.13-3.5 27.13-8.5 11.826-5.131 23.039-1.125 11.213 4.006 16.309 14.951 6.131 11.927 1.283 23.855-4.848 11.928-17.674 17.058-19.131 8.565-37.913 12.565-18.783 4-38.783 4-20.521 0-40.326-5.5-19.804-5.5-39.37-14.065Zm0 108q-13.835-5.435-28.635-9.935-14.799-4.5-28.669-4.5-13.13 0-25.935 3.5-12.804 3.5-26.804 8.5-11.826 5.131-23.039 1.125-11.213-4.006-16.309-14.951-6.131-11.927-1.283-23.855 4.848-11.928 17.674-17.058 18.131-8.565 37.413-12.565 19.283-4 37.801-4 20.847 0 41.253 5.5 20.407 5.5 39.49 14.065 13.595 5.435 27.865 9.935 14.271 4.5 28.874 4.5 13.478 0 26.609-3.5 13.13-3.5 27.13-8.5 11.826-5.131 23.039-1.125 11.213 4.006 16.309 14.951 6.131 11.927 1.283 23.855-4.848 11.928-17.674 17.058-19.131 8.565-37.913 12.565-18.783 4-38.783 4-20.521 0-40.326-5.5-19.804-5.5-39.37-14.065Z"/></svg>