<svg xmlns="http://www.w3.org/2000/svg" height="20" viewBox="0 -960 960 960" width="20"><path d="M480-197q-99 1-167.5-67.224T244-431q0-45 16-83.5t42-73.5l149-169q6-8 13.667-11 7.666-3 15.333-3t15.333 3Q503-765 509-757l150 169q18 24 32.5 50.5T711-481h-21q-5.197-26.809-17.447-50.905Q660.303-556 641-576L480-756 338-597q-31 35-52.5 74.317Q264-483.366 264-431q0 89.627 63 151.843Q390-216.94 480-216v19Zm-2-308Zm225 165q-16.4-6-32.2-11-15.8-5-33.022-5-16.039 0-30.408 4Q593-348 577-342q-3 1-6.31-.053-3.311-1.052-4.69-3.947-2-2.667-.955-5.713 1.046-3.046 3.955-4.287 15.679-8 33.292-12 17.614-4 34.745-4 18.763 0 37.104 5 18.341 5 35.859 13 16.16 6 31.713 11 15.554 5 33.537 5 16.409 0 31.792-4.038Q822.425-346.077 838-352q3-1 7.017.158t4.983 4.103q2 3.406.5 6.452T845-337q-16.795 7.556-34.03 11.278Q793.735-322 775-322q-18.265 0-36.132-5Q721-332 703-340Zm0 88q-16.4-6-32.2-11-15.8-5-33.022-5-16.039 0-30.408 4Q593-260 577-254q-3 1-6.31-.053-3.311-1.052-4.69-3.947-2-2.667-.955-5.713 1.046-3.046 3.955-4.287 15.679-8 33.292-12 17.614-4 34.745-4 18.763 0 37.104 5 18.341 5 35.859 13 16.16 6 31.713 11 15.554 5 33.537 5 16.409 0 31.792-4.038Q822.425-258.077 838-264q3-1 7.017.158t4.983 4.103q2 3.406.5 6.452T845-249q-16.795 7.556-34.03 11.278Q793.735-234 775-234q-18.265 0-36.132-5Q721-244 703-252Zm0 88q-16.4-6-32.2-11-15.8-5-33.022-5-16.039 0-30.408 4Q593-172 577-166q-3 1-6.31-.053-3.311-1.052-4.69-3.947-2-2.667-.955-5.713 1.046-3.046 3.955-4.287 15.679-8 33.292-12 17.614-4 34.745-4 18.763 0 37.104 5 18.341 5 35.859 13 16.16 6 31.713 11 15.554 5 33.537 5 16.409 0 31.792-4.038Q822.425-170.077 838-176q3-1 7.017.158t4.983 4.103q2 3.406.5 6.452T845-161q-16.795 7.556-34.03 11.278Q793.735-146 775-146q-18.265 0-36.132-5Q721-156 703-164Z"/></svg>