<svg xmlns="http://www.w3.org/2000/svg" height="20" viewBox="0 -960 960 960" width="20"><path d="M479.941-239Q502-239 517.5-253.5 533-268 535-290H425q2 22 17.441 36.5 15.441 14.5 37.5 14.5ZM408-400v-128q0-30 21.212-51 21.213-21 51-21Q510-600 531-578.85q21 21.15 21 50.85v128H408Zm72.276 338Q393-62 317.013-94.584q-75.988-32.583-132.917-89.512T94.584-316.971Q62-392.917 62-480.458 62-568 94.584-643.487q32.583-75.488 89.512-132.417t132.875-89.512Q392.917-898 480.458-898q87.542 0 163.029 32.584 75.488 32.583 132.417 89.512t89.512 132.641Q898-567.551 898-480.276q0 87.276-32.584 163.263-32.583 75.988-89.512 132.917T643.263-94.584Q567.551-62 480.276-62ZM480-180q126 0 213-87t87-213q0-126-87-213t-213-87q-126 0-213 87t-87 213q0 126 87 213t213 87Zm0-300ZM324-338h312q12.3 0 21.65-9.289 9.35-9.29 9.35-21.5 0-12.211-9.35-21.711Q648.3-400 636-400h-17v-125q0-49.247-30-87.623-30-38.377-78-48.495V-680q0-12-9.289-22-9.29-10-21.5-10Q468-712 458.5-702q-9.5 10-9.5 22v18.882Q401-651 371-612.623 341-574.247 341-525v125h-17q-12.3 0-21.65 9.289-9.35 9.29-9.35 21.5 0 12.211 9.35 21.711Q311.7-338 324-338Z"/></svg>