<svg xmlns="http://www.w3.org/2000/svg" height="20" viewBox="0 -960 960 960" width="20"><path d="M479.967-234.218q23.337 0 39.707-15.804 16.369-15.804 17.5-39.108H422.826q1.131 23.304 17.467 39.108 16.336 15.804 39.674 15.804Zm.033-169.26Zm.276 326.696q-83.798 0-157.182-31.46-73.385-31.46-128.388-86.464-55.004-55.003-86.464-128.346t-31.46-157.406q0-84.064 31.46-156.948 31.46-72.885 86.464-127.888 55.003-55.004 128.346-86.464t157.406-31.46q84.064 0 156.948 31.46 72.885 31.46 127.888 86.464 55.004 55.003 86.464 128.112t31.46 156.906q0 83.798-31.46 157.182-31.46 73.385-86.464 128.388-55.003 55.004-128.112 86.464t-156.906 31.46ZM324-337.13h312q13.604 0 23.389-9.725 9.785-9.724 9.785-23.239t-9.785-23.449q-9.785-9.935-23.389-9.935h-14.826v-122.826q0-49.575-30-88.222-30-38.648-78-49.2v-17.578q0-13.305-9.724-23.739-9.725-10.435-23.239-10.435-13.515 0-23.45 10.435-9.935 10.434-9.935 23.739v17.578q-48 10.552-78 49.2-30 38.647-30 88.222v122.826H324q-13.604 0-23.389 9.724t-9.785 23.239q0 13.515 9.785 23.45 9.785 9.935 23.389 9.935Z"/></svg>