<svg xmlns="http://www.w3.org/2000/svg" height="24" viewBox="0 -960 960 960" width="24"><path d="M300.001-300.001h359.998v-359.998h-150q-24.922 0-42.46 17.538-17.538 17.539-17.538 42.461v67.386q-14.615 7.923-23.077 20.884-8.461 12.961-8.461 31.73 0 25.692 17.73 43.614 17.731 17.923 43.807 17.923 24.922 0 43.23-17.923 18.307-17.922 18.307-43.614 0-18.769-9.077-31.73-9.076-12.961-22.461-20.884V-600H600v240H360v-240h40v-59.999h-99.999v359.998Zm-160 160v-679.998h679.998v679.998H140.001ZM200-200h560v-560H200v560Zm0 0v-560 560Z"/></svg>