<svg xmlns="http://www.w3.org/2000/svg" height="20" viewBox="0 -960 960 960" width="20"><path d="M744-580.522q12.122 0 20.322 8.2t8.2 20.322v28.522q0 2.991-2.243 5.235-2.244 2.243-5.235 2.243h-42.088q-2.991 0-5.235-2.243-2.243-2.244-2.243-5.235h-38.956V-492H744q12.122 0 20.322 8.2t8.2 20.322V-408q0 12.122-8.2 20.322t-20.322 8.2h-82.999l-57.044-57.044h111.521V-468H648q-12.122 0-20.322-8.2t-8.2-20.322V-552q0-12.122 8.2-20.322t20.322-8.2h96ZM187.478-407.946v-143.677q0-12.337 8.081-20.618 8.081-8.281 20.441-8.281t20.441 8.081q8.081 8.081 8.081 20.441v43.478h38.956V-552q0-12.36 8.081-20.441T312-580.522q12.36 0 20.441 8.066t8.081 20.402v143.677q0 12.337-8.081 20.618-8.081 8.281-20.441 8.281t-20.441-8.081q-8.081-8.081-8.081-20.441v-43.478h-38.956V-408q0 12.36-8.081 20.441T216-379.478q-12.36 0-20.441-8.066t-8.081-20.402Zm564.61 270.86L136.521-753.653q-8.696-8.696-9.196-20.147-.5-11.45 9.196-19.506 8.205-8.13 19.864-7.63 11.658.5 19.788 8.63l616.133 615.568q8.695 8.695 8.413 20.109-.283 11.413-8.571 19.847-8.257 8.392-19.811 8.392-11.553 0-20.249-8.696Zm-324.61-279.001v-83.392l57.044 57.609v5.348h.782l57.609 57.044h-78.826q-15.164 0-25.886-10.723-10.723-10.722-10.723-25.886Z"/></svg>