<svg xmlns="http://www.w3.org/2000/svg" height="20" viewBox="0 -960 960 960" width="20"><path d="m218.87-824.131 72 144h96l-72-144h72l72 144h96l-72-144h72l72 144h96l-72-144h221.261v688.262H87.869v-688.262H218.87ZM340.783-266.87h278.434v-35.391q0-37.387-38.442-60.52-38.442-23.132-100.913-23.132t-100.775 23.132q-38.304 23.133-38.304 60.52v35.391Zm139.451-143.043q28.809 0 49.092-20.516 20.283-20.516 20.283-49.326 0-28.81-20.516-49.093-20.517-20.282-49.327-20.282-28.809 0-49.092 20.516-20.283 20.516-20.283 49.326 0 28.81 20.517 49.092 20.516 20.283 49.326 20.283Z"/></svg>