<svg xmlns="http://www.w3.org/2000/svg" height="20" viewBox="0 -960 960 960" width="20"><path d="M50.78-326.345v-112.349q0-31.038 15.437-57.055 15.436-26.017 42.303-41.337 58.696-33.565 121.667-50.63 62.972-17.066 127.911-17.066 55.596 0 107.727 12 52.13 12 100.696 34.435-19.065 17.896-33.968 38.927-14.903 21.031-25.598 42.379-35.758-14.794-73.076-22.267-37.318-7.472-75.88-7.472-52.87 0-103.305 13.434-50.434 13.435-94.912 39.174-4.95 2.692-7.975 7.537-3.025 4.846-3.025 10.768v11.521h338.651q-5.565 22.783-6.369 46.283-.804 23.5 3.718 51.718H50.78ZM358-424.346Zm0-228.436q-64.522 0-109.066-44.543-44.544-44.544-44.544-109.066t44.544-109.065Q293.477-960 357.999-960t109.065 44.544q44.544 44.543 44.544 109.065 0 64.522-44.544 109.066-44.543 44.543-109.065 44.543Zm.122-89.522q26.486 0 45.225-18.862 18.739-18.861 18.739-45.347t-18.861-45.225q-18.862-18.739-45.348-18.739t-45.225 18.861q-18.739 18.861-18.739 45.348 0 26.486 18.861 45.225 18.862 18.739 45.348 18.739Zm-.122-64.087Zm363.697-.005q0 63.962-44.797 108.788-44.796 44.826-108.723 44.826-8.655 0-15.589-.282-6.935-.283-16.196-4.413 27.13-30.131 41.413-68.66 14.283-38.529 14.283-80.022t-14.283-80.254q-14.283-38.761-41.413-68.891 7.898-2.441 15.232-3.568Q558.956-960 567.82-960q64.074 0 108.975 44.821 44.901 44.821 44.901 108.783Zm32.853 656.224q-84.889 0-144.719-59.831-59.831-59.83-59.831-144.719 0-85.911 59.831-145.681 59.83-59.77 144.719-59.77 85.911 0 145.681 59.77Q960-440.633 960-354.722q0 84.889-59.77 144.719-59.77 59.831-145.681 59.831Zm-23.984-111.087 145.913-146.479-42.479-41.913-104 104-53-54-41.913 43.479 95.479 94.913Z"/></svg>