<svg xmlns="http://www.w3.org/2000/svg" height="24" viewBox="0 -960 960 960" width="24"><path d="M280-427.923v-160.769l-99.615 54.846-80.77-139.539 208.616-119.692h25.615q16.77 50.307 53.769 81.692Q424.615-680 480-680q55.385 0 92.385-31.385 36.999-31.385 53.769-81.692h25.615l207.616 120.692-79.77 138.539L680-588.692v281.23L653.154-284q-5.462 5.231-13.692 7.192-8.231 1.962-14.924 1.962-7.538 0-14.384-2.462-6.846-2.461-12.539-6.923l-113.692-97.154q-31.231-26.461-70.461-40.23-39.231-13.77-78.693-13.77-14 0-27.5 1.808T280-427.923Zm-91.692 195.231-25.847-30.231 71.616-60.923q20.692-17.692 47.115-26.654 26.423-8.962 53.808-8.962t53.308 8.962q25.923 8.962 46.615 26.654l116 99Q566-211.769 585.962-205.5q19.961 6.269 40.038 6.269 20.308 0 39.654-6.154 19.346-6.153 34.423-19.461l71.615-61.923 26.616 31.231-72.385 60.923q-20.692 17.692-46.615 26.538-25.923 8.846-53.308 8.846t-53.808-8.846q-26.423-8.846-47.115-26.538l-116-99Q394-306.692 374.269-312.961q-19.731-6.27-40.038-6.27-20.077 0-39.654 6.27-19.577 6.269-34.654 19.346l-71.615 60.923Z"/></svg>