<svg xmlns="http://www.w3.org/2000/svg" height="20" viewBox="0 -960 960 960" width="20"><path d="M260.001-428.463v-151.386l-87.308 48.924L72.31-704.692l236.305-135.845h38.307q13.385 55.154 51.385 85.846 38.001 30.692 81.693 30.692t82.193-30.692q38.5-30.692 50.885-85.846h38.307L886.69-704.692l-99.383 173.767-87.308-48.924v271.619L683.077-294q-11.231 10.615-23.846 15.346-12.616 4.73-30.462 4.73-13.769 0-24.692-4.23-10.923-4.231-19.769-11.462l-112.847-99.077q-28.615-25.231-64.23-39.615-35.616-14.385-73.846-14.385-19 0-37 4.154-17.999 4.154-36.384 10.076Zm-91.847 193.615-33.922-39.614 84.307-71.461q24.846-19.846 54.307-30.077 29.462-10.231 60.154-10.231 27.692 0 54.154 10.731 26.461 10.731 48.307 29.577l122 104Q573-229.385 591.231-224q18.23 5.385 36.769 5.385 21.154 0 42.077-4.077t36.462-19.231l84.307-70.461 33.307 38.614-84.692 71.461q-21.846 20.846-49.807 29.769-27.962 8.923-57.654 8.923-29.692 0-58.154-8.923-28.461-8.923-50.307-29.769l-122-103Q387-317.848 368.885-325.732q-18.116-7.885-36.27-7.885-21.538 0-42.577 6.885-21.038 6.884-38.577 21.423l-83.307 70.461Z"/></svg>