<svg xmlns="http://www.w3.org/2000/svg" height="24" viewBox="0 -960 960 960" width="24"><path d="M172.693-506.925 72.31-680.692l236.305-135.845h38.307q16.385 49.154 45.885 82.846 29.501 33.692 87.193 33.692 57.692 0 87.193-33.692 29.5-33.692 45.885-82.846h38.307L886.69-679.692l-99.383 172.767-87.308-47.924v236.619L655.077-279q-2.616 2-6.846 4.423-4.231 2.423-8.231 4.038V-657l125 69 40-70-153-89q-24 49-70.308 78Q535.385-640 480-640q-55.385 0-101.692-29Q332-698 308-747l-154 89 41 70 125-69v229.692q-15.615 1.615-30.615 4.384-14.999 2.769-29.384 8.461v-140.386l-87.308 47.924Zm14.461 298.077-38.922-45.614 79.307-67.461q21.846-18.846 49.807-28.769 27.962-9.923 57.654-9.923 29.692 0 57.154 9.923 27.461 9.923 49.307 28.769l116 99Q571-211.385 589.231-205.5q18.23 5.885 36.769 5.885 19.154 0 36.577-5.577t30.962-17.731l79.307-68.461 38.922 46.614-79.307 67.461q-21.846 18.846-49.307 28.269-27.462 9.423-57.154 9.423-29.692 0-57.654-9.423-27.961-9.423-49.807-28.269l-116-99Q389-287.848 371.577-293.732q-17.423-5.885-36.577-5.885-18.539 0-36.769 5.885-18.231 5.884-31.77 17.423l-79.307 67.461ZM480-640Z"/></svg>