<svg xmlns="http://www.w3.org/2000/svg" height="24" viewBox="0 -960 960 960" width="24"><path d="m180.385-533.846-80.77-139.539 208.616-119.692h25.615q16.77 50.307 53.769 81.692Q424.615-680 480-680q55.385 0 92.385-31.385 36.999-31.385 53.769-81.692h25.615l207.616 120.692-79.77 138.539L680-588.692v281.23L653.154-284q-2.231 2-5.692 3.846-3.462 1.846-7.462 3.077V-657l125 69 40-70-153-89q-24 49-70.115 78Q535.769-640 480-640q-55.769 0-101.885-29Q332-698 308-747l-154 89 41 70 125-69v222.385q-10.231 1.23-20.231 2.269-10 1.038-19.769 4.423v-160.769l-99.615 54.846Zm7.923 301.154-25.847-30.231 71.616-60.923q20.692-17.692 47.115-27.039 26.423-9.346 53.808-9.346t53.308 9.346q25.923 9.347 46.615 27.039l116 99Q566-211.769 585.962-205.5q19.961 6.269 40.038 6.269 20.308 0 39.654-6.154 19.346-6.153 34.423-19.461l71.615-61.923 25.847 31.231-71.616 60.923q-20.692 17.692-46.615 26.538-25.923 8.846-53.308 8.846t-53.808-8.846q-26.423-8.846-47.115-26.538l-116-99Q394-306.692 374.654-312.961q-19.346-6.27-39.654-6.27-20.077 0-40.038 6.27-19.962 6.269-35.039 19.346l-71.615 60.923ZM480-640Z"/></svg>