<svg xmlns="http://www.w3.org/2000/svg" height="24" viewBox="0 -960 960 960" width="24"><path d="M480-71.87q-84.913 0-159.348-32.097-74.435-32.098-129.511-87.174-55.076-55.076-87.174-129.511Q71.869-395.087 71.869-480q0-84.913 32.098-159.348 32.098-74.435 87.174-129.511 55.076-55.076 129.511-87.174Q395.087-888.131 480-888.131q84.913 0 159.348 32.098 74.435 32.098 129.511 87.174 55.076 55.076 87.174 129.511Q888.131-564.913 888.131-480q0 84.913-32.098 159.348-32.098 74.435-87.174 129.511-55.076 55.076-129.511 87.174Q564.913-71.869 480-71.869Zm57.848-450.934 18.804-11.283q2.718 24 19.957 40t41.478 16q25.956 0 43.935-17.978Q680-514.043 680-540q0-15-6.88-28.38-6.881-13.381-18.642-22.098L680-605l-21.674-37.87-142.152 81.196 21.674 38.87Zm-115.696 0 21.674-38.87-142.152-81.196L280-605l25.522 14.522q-11.761 8.717-18.642 22.098Q280-555 280-540q0 25.957 17.978 43.935 17.979 17.978 43.935 17.978 24.239 0 41.478-16t19.957-40l18.804 11.283ZM480-442.87q-71.478 0-125.478 46.576-54 46.577-74.805 116.294h400.566q-20.805-69.957-74.805-116.413-54-46.457-125.478-46.457Z"/></svg>