<svg xmlns="http://www.w3.org/2000/svg" height="24" viewBox="0 -960 960 960" width="24"><path d="M160-300v-360h40v160h200v-160h40v360h-40v-160H200v160h-40Zm424.615 0q-26.653 0-45.634-18.981Q520-337.961 520-364.615v-230.77q0-26.654 18.981-45.634Q557.962-660 584.615-660H800v40H584.615q-10.769 0-17.692 6.923T560-595.385V-500h175.385q26.654 0 45.634 18.981Q800-462.039 800-435.385v70.77q0 26.654-18.981 45.634Q762.039-300 735.385-300h-150.77ZM560-460v95.385q0 10.769 6.923 17.692T584.615-340h150.77q10.769 0 17.692-6.923T760-364.615v-70.77q0-10.769-6.923-17.692T735.385-460H560Z"/></svg>