<svg xmlns="http://www.w3.org/2000/svg" height="20" viewBox="0 -960 960 960" width="20"><path d="M184-308v-344h32v156h208v-156h32v344h-32v-156H216v156h-32Zm400.352 0q-23.39 0-39.871-16.631Q528-341.261 528-364.615v-230.77q0-23.354 16.631-39.984Q561.262-652 584.615-652H776v32H584.615q-10.769 0-17.692 6.923T560-595.385V-496h159.633q23.406 0 39.886 16.631Q776-462.739 776-439.385v74.77q0 23.354-16.656 39.984Q742.687-308 719.297-308H584.352ZM560-464v99.385q0 10.769 6.923 17.692T584.615-340h134.77q10.769 0 17.692-6.923T744-364.615v-74.77q0-10.769-6.923-17.692T719.385-464H560Z"/></svg>