<svg xmlns="http://www.w3.org/2000/svg" height="20" viewBox="0 -960 960 960" width="20"><path d="M124.782-271.608v-416.784h98.001v159.391h135.216v-159.391H456v416.784h-98.001v-159.391H222.783v159.391h-98.001Zm500.956 0q-41.042 0-69.39-28.498T528-369.609v-220.782q0-41.005 28.498-69.503 28.498-28.498 69.503-28.498h209.217v98.001H626.001v61.39h111.465q41.056 0 69.404 28.499 28.348 28.498 28.348 69.503v61.39q0 41.005-28.524 69.503-28.524 28.498-69.565 28.498H625.738Zm.263-159.391v61.39h111.216v-61.39H626.001Z"/></svg>