<svg xmlns="http://www.w3.org/2000/svg" height="24" viewBox="0 -960 960 960" width="24"><path d="M100.782-263.608v-432.784h106.001v163.391h127.216v-163.391H440v432.784H333.999v-163.391H206.783v163.391H100.782Zm525.219 0q-44.305 0-75.153-30.848Q520-325.304 520-369.609v-220.782q0-44.305 30.848-75.153 30.848-30.848 75.153-30.848h233.217v106.001H626.001v57.39h127.216q44.305 0 75.153 30.849 30.848 30.848 30.848 75.153v57.39q0 44.305-30.848 75.153-30.848 30.848-75.153 30.848H626.001Zm0-163.391v57.39h127.216v-57.39H626.001Z"/></svg>