<svg xmlns="http://www.w3.org/2000/svg" height="24" viewBox="0 -960 960 960" width="24"><path d="M140.001-290.001v-379.998H200v160h180.001v-160H440v379.998h-59.999v-160H200v160h-59.999Zm452.306 0q-29.827 0-51.067-21.24T520-362.308v-235.384q0-29.827 21.24-51.067t51.067-21.24h227.692v59.998H592.307q-5.385 0-8.847 3.462-3.461 3.462-3.461 8.847v87.693h167.692q29.827 0 51.067 21.24 21.241 21.24 21.241 51.067v75.384q0 29.827-21.241 51.067-21.24 21.24-51.067 21.24H592.307Zm-12.308-160v87.693q0 5.385 3.461 8.847 3.462 3.462 8.847 3.462h155.384q5.385 0 8.847-3.462 3.462-3.462 3.462-8.847v-75.384q0-5.385-3.462-8.847-3.462-3.462-8.847-3.462H579.999Z"/></svg>