<svg xmlns="http://www.w3.org/2000/svg" height="24" viewBox="0 -960 960 960" width="24"><path d="M206.783-264.088q54-50.174 122.108-78.13Q397-370.174 480-370.174q83 0 151.109 27.391 68.108 27.391 122.108 77.565v-487.999H206.783v489.129ZM480-428.695q60.261 0 102.391-42.131 42.131-42.13 42.131-102.391t-42.131-102.109Q540.261-717.174 480-717.174t-102.391 41.848q-42.131 41.848-42.131 102.109 0 60.261 42.131 102.391 42.13 42.131 102.391 42.131ZM206.783-100.782q-44.305 0-75.153-30.848-30.848-30.848-30.848-75.153v-546.434q0-44.305 30.848-75.153 30.848-30.848 75.153-30.848h546.434q44.305 0 75.153 30.848 30.848 30.848 30.848 75.153v546.434q0 44.305-30.848 75.153-30.848 30.848-75.153 30.848H206.783ZM280-206.783h400V-212.826q-42-35-93-51.935-51-16.935-107-16.935t-107 16.935q-51 16.935-93 51.935V-206.783Zm199.867-310.391q-23.171 0-39.258-16.336-16.087-16.336-16.087-39.674 0-23.337 16.22-39.424t39.391-16.087q23.171 0 39.258 16.22 16.087 16.22 16.087 39.391t-16.22 39.541q-16.22 16.369-39.391 16.369Zm.133 8.522Z"/></svg>