<svg xmlns="http://www.w3.org/2000/svg" height="24" viewBox="0 -960 960 960" width="24"><path d="M224.615-160Q197-160 178.5-178.5 160-197 160-224.615v-510.77Q160-763 178.5-781.5 197-800 224.615-800h510.77Q763-800 781.5-781.5 800-763 800-735.385V-680H544.615q-47.923 0-76.269 28.346Q440-623.308 440-575.385v190.77q0 47.923 28.346 76.269Q496.692-280 544.615-280H800v55.385Q800-197 781.5-178.5 763-160 735.385-160h-510.77Zm320-160Q517-320 498.5-338.5 480-357 480-384.615v-190.77Q480-603 498.5-621.5 517-640 544.615-640h230.77Q803-640 821.5-621.5 840-603 840-575.385v190.77Q840-357 821.5-338.5 803-320 775.385-320h-230.77ZM640-420q26 0 43-17t17-43q0-26-17-43t-43-17q-26 0-43 17t-17 43q0 26 17 43t43 17Z"/></svg>