<svg xmlns="http://www.w3.org/2000/svg" height="20" viewBox="0 -960 960 960" width="20"><path d="m243.077-280-59.037 59.037q-13.271 13.271-30.656 6.173Q136-221.889 136-240.692v-526.693Q136-791 152.5-807.5 169-824 192.615-824h574.77q24.315 0 40.465 16.5Q824-791 824-767.385v184q0 6.839-4.52 11.42-4.52 4.58-11.269 4.58-6.749 0-11.48-4.58-4.731-4.581-4.731-11.42v-184q0-9.23-7.692-16.923Q776.615-792 767.385-792h-574.77q-9.23 0-16.923 7.692Q168-776.615 168-767.385v518.154L230-312h350.923q6.838 0 11.419 4.52 4.581 4.521 4.581 11.27t-4.581 11.479Q587.761-280 580.923-280H243.077Zm503.846 0H728q-12.223 0-20.266-8.042-8.042-8.042-8.042-20.265v-128.001q0-12.223 8.042-20.265 8.043-8.042 20.266-8.042h47q10.154 0 17.385 8.038 7.231 8.038 3.769 18.962l-29.846 98.23h34.615q11.211 0 17.644 9.424 6.433 9.423 1.741 20.346l-60.231 139.154q-1.462 5.231-7.308 3.867-5.846-1.363-5.846-7.098V-280ZM168-312v55.384V-792v480Z"/></svg>