<svg xmlns="http://www.w3.org/2000/svg" height="24" viewBox="0 -960 960 960" width="24"><path d="M65-425q-23 0-39.5-16T9-480q0-23 16.5-39T65-535h160q23 0 39 16t16 39q0 23-16 39t-39 16H65Zm196-197-29-29q-16-16-16-37.5t17-38.5q16-16 38.5-16t38.5 16l29 29q16 16 16 37.5T338-622q-16 16-38.5 16T261-622Zm219-58q-23 0-39-15.5T425-734v-162q0-23 16-39t39-16q23 0 39 16t16 39v162q0 23-16 38.5T480-680Zm142 58q-16-16-16-38.5t16-38.5l29-29q16-16 37.5-16t38.5 17q16 16 16 38.5T727-650l-29 29q-16 16-37.5 16T622-622Zm113 197q-23 0-39-16t-16-39q0-23 16-39t39-16h160q23 0 39.5 16t16.5 39q0 23-16.5 39T895-425H735Zm-255 80q-56 0-95.5-39.5T345-480q0-56 39.5-95.5T480-615q56 0 95.5 39.5T615-480q0 56-39.5 95.5T480-345Zm170 112-29-29q-16-16-16-37.5t17-38.5q16-16 38.5-16t38.5 16l29 29q16 16 16 37.5T727-233q-16 16-38.5 16T650-233Zm-417 0q-16-16-16-38.5t16-38.5l29-29q16-16 37.5-16t38.5 17q16 16 16 38.5T338-261l-29 29q-16 16-37.5 16T233-233ZM480-9q-23 0-39-16.5T425-65v-160q0-23 16-39t39-16q23 0 39 16t16 39v160q0 23-16 39.5T480-9Z"/></svg>