<svg xmlns="http://www.w3.org/2000/svg" height="24" viewBox="0 -960 960 960" width="24"><path d="M799.13-100.782q-128.391 0-253.782-55.913-125.392-55.913-228.783-158.739Q213.173-418.826 157.26-544.5q-55.913-125.674-55.913-254.065 0-25.914 17.087-43.284 17.087-17.369 43.001-17.369H322.87q27 0 44.783 14.304 17.783 14.305 23.175 39.175l25.434 128.13q4.261 24.479-.717 41.696-4.978 17.218-19.761 30.305L295.392-512.13q17.739 30.782 41.848 60.76 24.108 29.979 54.847 59.718 28.174 28.173 56.522 50.717 28.347 22.543 58.434 40.021l97.956-96.261q15.218-14.653 35.371-20.283 20.152-5.631 42.631-1.37l122.738 26.305q25.87 7.391 39.675 23.826 13.804 16.435 13.804 41.306v165.956q0 25.914-17.369 43.284-17.37 17.369-42.719 17.369ZM692.219-531.305q-18.696 0-31.609-12.913t-12.913-31.609q0-18.696 12.913-31.326 12.913-12.631 31.609-12.631t31.326 12.751q12.631 12.751 12.631 31.206 0 18.696-12.631 31.609-12.63 12.913-31.326 12.913Zm0-140q-20.435 0-39.087 5.717-18.652 5.718-35.087 16.718-12.13 7.565-26.043 7.065-13.913-.5-23.609-10.196-10.131-10.13-9.913-24.108.217-13.979 11.913-22.544 26.565-20 57.63-30.565 31.066-10.566 64.196-10.566 33.131 0 63.913 10.566 30.783 10.565 57.348 30.565 11.131 8.565 11.913 22.826.783 14.261-9.348 24.392-9.695 9.695-23.609 9.913-13.913.217-26.043-7.348-16.435-11-35.087-16.718-18.652-5.717-39.087-5.717Zm0-120q-43.869 0-83.804 14.5t-74.37 40.935q-12.13 9.13-26.109 8.848-13.978-.283-24.108-10.413-10.131-10.131-9.566-24.674.566-14.544 12.261-23.675 44.131-35 96.413-54.5 52.283-19.5 109.283-19.5t109.283 19.5q52.282 19.5 95.848 54.5 11.695 9.131 12.261 23.675.565 14.543-9.566 24.674-10.13 10.13-24.326 9.913-14.196-.218-25.326-9.348-34.435-26.435-74.37-40.435-39.934-14-83.804-14Z"/></svg>