<svg xmlns="http://www.w3.org/2000/svg" height="20" viewBox="0 -960 960 960" width="20"><path d="M648-509.769q-15.785 0-27.277-11.493-11.492-11.492-11.492-27.277 0-15.784 11.492-27.277 11.492-11.492 27.277-11.492t27.277 11.492q11.492 11.493 11.492 27.277 0 15.785-11.492 27.277-11.492 11.493-27.277 11.493Zm.815-147.077q-24.353 0-48.161 7.269T557.539-627q-3.385 2.923-8.885 3.308-5.5.384-9.423-4.308-3.154-3.923-3.154-8.923t4.154-7.154q23.461-16.692 50.269-26.423 26.808-9.731 58-9.731t58 8.731q26.808 8.731 49.269 25.423 4.154 2.154 5.154 7.154t-3.095 9.864q-3.982 4.751-9.482 4.367-5.5-.385-8.885-3.308-19.307-14.308-42.8-21.577-23.493-7.269-47.846-7.269Zm.185-96q-45.165 0-85.659 14.769-40.495 14.769-73.033 42.308-3.385 3.923-9.154 4.807-5.769.885-10.693-4.038-4.923-4.923-2.653-9.923 2.269-5 6.423-8.923 36.781-30.151 80.813-46.268 44.033-16.117 93.956-16.117t93.602 15.853q43.679 15.854 80.167 45.532 4.154 3.923 6.423 8.923 2.27 5-2.653 9.923-4.924 4.923-10.308 4.479-5.385-.445-9.539-4.479-32.538-26.539-72.711-41.692-40.173-15.154-84.981-15.154ZM722.231-185q-97.154-9-189.885-55.654-92.731-46.653-170.269-124.192-76.77-77.539-122.923-169.885Q193-627.077 184-724.231q-2-21 12.285-36.885Q210.571-777 232-777h72.923q19.308 0 32.962 11.269 13.654 11.269 19.961 30.346L375.692-673q2.77 13.769-1.5 27.308-4.269 13.538-13.807 21.538l-87.77 81.846q24.616 45.693 52.924 84.539 28.307 38.846 61.045 72.138 33.878 33.862 74.031 62.823 40.154 28.962 88.154 53.577l90.539-89.077q8.769-9.538 18.461-11.884 9.692-2.347 23.462-.347l53.154 12.231q19.308 5 30.461 19.423Q776-324.462 776-304.385V-233q0 21.429-16.384 35.715Q743.231-183 722.231-185ZM258.846-573.846l80.769-74.616q3.846-3.077 5-8.461 1.154-5.385-.384-10l-17.93-65.769q-1.538-6.154-5.385-9.231Q317.07-745 310.917-745H228q-4.615 0-7.692 3.077t-3.077 7.692q1.154 38 12.846 78.616 11.692 40.615 28.769 81.769Zm324 319.384q36.639 17.321 78.473 25.314 41.835 7.994 71.912 10.686 4.615 0 7.692-3.076 3.077-3.077 3.077-7.693v-82.307q0-6.154-3.077-10-3.077-3.847-9.231-5.385l-55-12.154q-4.615-1.538-8.077-.384-3.461 1.153-7.307 5l-78.462 79.999Zm-324-319.384Zm324 319.384Z"/></svg>