<svg xmlns="http://www.w3.org/2000/svg" height="20" viewBox="0 -960 960 960" width="20"><path d="M421-753v-190h118v190H421Zm293 124-87-85 137-133 85 81-135 137Zm39 208v-118h190v118H753ZM421-17v-190h118v190H421ZM246-629 110-764l87-82 133 133-84 84Zm519 521L631-247l83-83 136 131-85 91ZM17-421v-118h190v118H17Zm179 311-84-86 135-133 41 41 41 41-133 137Zm283.765-138Q383-248 315.5-315.735q-67.5-67.736-67.5-164.5Q248-577 315.735-644.5q67.736-67.5 164.5-67.5Q577-712 644.5-644.265q67.5 67.736 67.5 164.5Q712-383 644.265-315.5q-67.736 67.5-164.5 67.5ZM480-366q49 0 81.5-32.5T594-480q0-49-32.5-81.5T480-594q-49 0-81.5 32.5T366-480q0 49 32.5 81.5T480-366Zm0-114Z"/></svg>