<svg xmlns="http://www.w3.org/2000/svg" height="24" viewBox="0 -960 960 960" width="24"><path d="M417-745v-206h126v206H417Zm294 122-88-88 145-146 89 88-146 146Zm34 206v-126h206v126H745ZM417-9v-206h126V-9H417ZM249-623 103-767l90-88 145 145-89 87Zm518 522L623-250l87-87 146 141-89 95ZM9-417v-126h206v126H9Zm184 314-89-90 145-145 45 44 46 44-147 147Zm286.765-145Q383-248 315.5-315.735q-67.5-67.736-67.5-164.5Q248-577 315.735-644.5q67.736-67.5 164.5-67.5Q577-712 644.5-644.265q67.5 67.736 67.5 164.5Q712-383 644.265-315.5q-67.736 67.5-164.5 67.5Z"/></svg>