<svg xmlns="http://www.w3.org/2000/svg" height="20" viewBox="0 -960 960 960" width="20"><path d="M454.001-759.538v-131.691h51.998v131.691h-51.998Zm241.921 102.769-40.153-38.153 95.153-93.538 38.538 36.153-93.538 95.538Zm63.616 202.768v-51.998h131.691v51.998H759.538ZM454.001-68.771v-131.307h51.998v131.307h-51.998ZM264.847-658.385l-96.307-93.537 40.538-36.153 92.537 92.153-36.768 37.537Zm487.46 489.845-92.538-96.538 36.538-36.153 94.768 91.923-38.768 40.768ZM68.771-454.001v-51.998h131.691v51.998H68.771ZM207.693-168.54l-36.768-39.538 93.153-91.153 17.692 17.461 17.076 18.077-91.153 95.153Zm272.398-91.461q-91.629 0-155.859-64.14-64.231-64.14-64.231-155.768 0-91.629 64.14-155.859 64.14-64.231 155.768-64.231 91.629 0 155.859 64.14 64.231 64.14 64.231 155.768 0 91.629-64.14 155.859-64.14 64.231-155.768 64.231Z"/></svg>