<svg xmlns="http://www.w3.org/2000/svg" height="24" viewBox="0 -960 960 960" width="24"><path d="M504-356.477Q504-331 486.5-313.5 469-296 443.523-296H196.477Q171-296 153.5-313.5 136-331 136-356.477v-247.046Q136-629 153.5-646.5 171-664 196.477-664h247.046Q469-664 486.5-646.5 504-629 504-603.523v247.046ZM476-356v-248q0-14-9-23t-23-9H196q-14 0-23 9t-9 23v248q0 14 9 23t23 9h248q14 0 23-9t9-23Zm160-280v-28h28v28h-28Zm0 340v-28h28v28h-28Zm160-170v-28h28v28h-28Zm-476-14Zm476-156v-28q11.55 0 19.775 8.225Q824-647.55 824-636h-28Zm0 312h28q0 11.55-8.225 19.775Q807.55-296 796-296v-28Z"/></svg>