<svg xmlns="http://www.w3.org/2000/svg" height="20" viewBox="0 -960 960 960" width="20"><path d="M728-324 314.077-737.154l69.692-69.692q8.692-8.693 19.385-12.923Q413.846-824 424.769-824h246.616Q695-823 711.5-807q16.5 16 16.5 39.615V-324ZM288.615-136Q264-136 248-152.5q-16-16.5-16-40.115v-463.616q0 3.077-.769 5.385-.77 2.307-3.077 4.615l14.615-14.615L121-782.615q-4.846-4.847-5.616-10.77-.769-5.923 4.847-11.538 5.615-6.385 11.653-6 6.039.384 11.654 6l667.539 667.538q5.615 5.616 6 11.154.385 5.539-6 11.154-5.615 5.616-11.269 5.616t-11.27-5.616L665.384-237.231l21.539-24.308L728-220.461v27.846Q728-168 712-152q-16 16-40.615 16h-382.77Z"/></svg>