<svg xmlns="http://www.w3.org/2000/svg" height="24" viewBox="0 -960 960 960" width="24"><path d="M819.218-276.391 713.217-382.393v-410.824H436.826l-66.999 66.434-76.088-74.088 98.348-98.347h321.13q44.305 0 75.153 30.848 30.848 30.848 30.848 75.153v516.826ZM246.783-60.781q-44.305 0-75.153-30.849-30.848-30.848-30.848-75.153v-436.826q0-21.49 8.211-40.967 8.212-19.476 23.267-34.251l3.261-3.261L46.956-810.653q-13.13-13.131-12.913-30.826.217-17.696 13.348-30.827 13.13-12.695 30.98-13.195t31.238 12.63l763.827 763.262q12.696 12.696 12.696 30.854T873.436-47.39q-13.055 13.13-31.006 13.13t-31.081-13.13L250.174-607.435l-3.391 2.826v437.826h466.434v-103.045l106.001 106.002v.435q0 43.174-30.848 72.892-30.848 29.717-75.153 29.717H246.783Zm298.739-490.307Zm-72.739 167.262Z"/></svg>