<svg xmlns="http://www.w3.org/2000/svg" height="20" viewBox="0 -960 960 960" width="20"><path d="m787.218-297.391-98.001-98.002v-389.824H416.826l-58.999 58.434-69.088-69.088 87.348-87.347h313.13q40.305 1 68.153 29.348 27.848 28.348 29.848 68.653v487.826ZM270.783-76.781q-41.005 0-69.503-28.849-28.498-28.848-28.498-69.153v-488.826q0-5.49 2.211-10.467 2.212-4.976 6.267-8.751l2.261-2.261L71.956-796.653q-12.13-12.131-12.413-27.826-.283-15.696 11.848-28.305 12.13-12.217 28.48-12.217t28.738 12.13l724.827 724.262q12.696 12.696 12.696 28.354t-12.218 27.864q-12.533 12.13-28.65 12.13-16.118 0-27.915-12.13L274.174-594.435l-3.391 2.826v416.826h418.434v-118.045l98.001 98.002v23.435q0 36.174-25.348 65.392-25.348 29.217-72.653 29.217H270.783Zm267.739-465.307Zm-62.739 154.262Z"/></svg>