<svg xmlns="http://www.w3.org/2000/svg" height="20" viewBox="0 -960 960 960" width="20"><path d="M684-204.252h-72q-15.3 0-25.65-10.374Q576-225 576-240.234t10.35-25.539q10.35-10.305 25.65-10.305h72v-71.688Q684-363 694.289-373.5q10.29-10.5 25.5-10.5 15.211 0 25.585 10.35T755.748-348v72h72.168q15.336 0 25.71 10.35T864-240q0 15.3-10.374 25.65Q843.252-204 827.916-204h-72.168v72q0 15.3-10.374 25.65Q735-96 720-96q-15.3 0-25.65-10.374Q684-116.748 684-132.084v-72.168ZM480-480q50 0 85-35t35-85q0-50-35-85t-85-35q-50 0-85 35t-35 85q0 50 35 85t85 35Zm-66-102q-8 0-13-5t-5-13q0-8 5-13t13-5q8 0 13 5t5 13q0 8-5 13t-13 5Zm66 0q-8 0-13-5t-5-13q0-8 5-13t13-5q8 0 13 5t5 13q0 8-5 13t-13 5Zm66 0q-8 0-13-5t-5-13q0-8 5-13t13-5q8 0 13 5t5 13q0 8-5 13t-13 5ZM216-144q-29.7 0-50.85-21.15Q144-186.3 144-216v-528q0-29.7 21.15-50.85Q186.3-816 216-816h528q29.7 0 50.85 21.15Q816-773.7 816-744v310q-23-11-47-16.5t-50-5.5q-89.583 0-152.292 62.708Q504-330.583 504-241q0 26 5.5 50t16.5 47H216Z"/></svg>