<svg xmlns="http://www.w3.org/2000/svg" height="24" viewBox="0 -960 960 960" width="24"><path d="M382.462-377.385h195.076l38.077 107.77q2.462 6.384 7.077 9.538 4.616 3.154 11.231 3.154 10.769 0 16.346-8.423t2.193-18.423L501.231-701.923q-1.923-4.846-6.154-7.615-4.231-2.77-9.308-2.77h-11.538q-5.077 0-9.308 2.77-4.231 2.769-6.154 7.615L307.538-283.769q-3.384 9.769 2.077 18.308 5.462 8.538 16.231 8.538 6.846 0 11.346-3.154t7.193-9.769l38.077-107.539Zm13.23-37.692L478-646.923h4l82.308 231.846H395.692ZM184.615-120Q157-120 138.5-138.5 120-157 120-184.615v-590.77Q120-803 138.5-821.5 157-840 184.615-840h590.77Q803-840 821.5-821.5 840-803 840-775.385v590.77Q840-157 821.5-138.5 803-120 775.385-120h-590.77Z"/></svg>