<svg xmlns="http://www.w3.org/2000/svg" height="24" viewBox="0 -960 960 960" width="24"><path d="M228.13-60.782q-69.392 0-118.37-48.978-48.978-48.978-48.978-118.37v-243.132q0-32.695 15.347-61.174 15.348-28.478 43.044-46.043l311.653-202.392q11-7 23-6.065 12 .935 21.565 9.369 28.479 24.522 35.653 60.784 7.174 36.261-10.653 69.305L474.61-602.61h296.695q19.826 0 33.587 13.761 13.761 13.761 13.761 33.587 0 19.827-13.761 33.588t-33.587 13.761H410.523q-29.783 0-45.457-25.305t-1.543-52.088l30.521-55.651-223.957 141.913q-7.305 4.435-10.957 11.739-3.652 7.304-3.652 16.043v243.132q0 30.174 21.239 51.413 21.239 21.239 51.413 21.239h503.175q19.826 0 33.587 13.761 13.761 13.761 13.761 33.587 0 19.826-13.761 33.587-13.761 13.761-33.587 13.761H228.13ZM851.305-358.87H508.13q-19.826 0-33.587-13.76-13.761-13.761-13.761-33.588 0-19.826 13.761-33.587 13.761-13.761 33.587-13.761h343.175q19.826 0 33.587 13.761 13.761 13.761 13.761 33.587 0 19.827-13.761 33.588-13.761 13.76-33.587 13.76ZM811.87-209.826H508.13q-19.826 0-33.587-13.761-13.761-13.761-13.761-33.587 0-19.826 13.761-33.587 13.761-13.761 33.587-13.761h303.74q19.826 0 33.587 13.761 13.761 13.761 13.761 33.587 0 19.826-13.761 33.587-13.761 13.761-33.587 13.761ZM308.13-340.174Zm252.957-436.479q-23.435-30.87-34.305-58.174-10.869-27.304-10.869-61.869 0-19.392 13.261-32.653t32.087-13.261q18.261 0 31.022 13.261t13.761 32.087q1.435 25.044 11.456 42.913 10.022 17.87 29.718 45 21.695 28.131 30.978 53.848 9.283 25.717 9.283 57.283 0 19.826-12.979 33.369-12.978 13.544-32.239 13.544-18.826 0-31.805-13.761-12.978-13.761-12.978-32.587-.435-22-8.783-38.37-8.347-16.369-27.608-40.63Zm171.87 0q-23.435-30.87-34.37-58.174-10.935-27.304-10.935-61.869 0-19.392 13.261-32.653t32.088-13.261q17.826 0 30.587 13.261t13.761 32.087q1.435 25.044 11.456 42.913 10.022 17.87 29.718 45 21.695 28.131 30.978 53.848 9.283 25.717 9.283 57.283 0 19.391-12.979 33.152-12.978 13.761-31.804 13.761-18.827 0-31.805-13.544-12.978-13.543-12.978-32.369-.435-22.435-8.718-38.805-8.282-16.369-27.543-40.63Z"/></svg>