<svg xmlns="http://www.w3.org/2000/svg" height="20" viewBox="0 -960 960 960" width="20"><path d="M260-136q-52.308 0-88.154-31.231Q136-198.461 136-250.769v-145.539q0-16.806 7.066-31.365 7.067-14.56 19.703-25.712l306.385-248.307Q477-709.846 486-707.385q9 2.462 16.154 9.616 11.615 11.615 10.5 24.731-1.116 13.115-7.5 27.192l-78.077 145.538H712q6.5 0 11.25 4.758t4.75 11.269q0 6.512-4.75 11.243-4.75 4.73-11.25 4.73H544v78.769h264q6.5 0 11.25 4.758t4.75 11.27q0 6.511-4.75 11.242-4.75 4.731-11.25 4.731H544v78.769h216q6.5 0 11.25 4.758 4.75 4.757 4.75 11.269 0 6.511-4.75 11.242-4.75 4.731-11.25 4.731H544V-168h120q6.5 0 11.25 4.758t4.75 11.269q0 6.512-4.75 11.242Q670.5-136 664-136H260Zm317.538-574.154q-25.23-32.692-33.307-56.025-8.077-23.333-6.077-52.206 1-6.55 5.172-11.929 4.172-5.379 10.423-5.379t11.111 4.879q4.86 4.879 4.371 11.429-1.539 27.923 9.884 50.192 11.424 22.27 32.27 49.116 25 31.231 35.615 58.192 10.615 26.962 10.385 56.654-1 6.539-5.616 12.039-4.615 5.5-10.293 5.5-6.168 0-10.284-5.5-4.115-5.5-5.115-11.808-2-32.308-16-56.462-14-24.154-32.539-48.692Zm119.385 0q-25.231-32.692-33.692-56.025-8.462-23.333-6.462-52.206 1-6.55 5.232-11.929 4.231-5.379 10.568-5.379 6.816 0 11.676 4.879t4.371 11.429q-1.539 27.923 9.884 50.192 11.423 22.27 32.269 49.116 25 31.231 35.616 58.192 10.615 26.962 10.384 56.654-1 7.426-5.672 12.482-4.672 5.057-10.923 5.057t-10.366-5.885q-4.116-5.885-5.116-12.192-1.954-31.526-15.592-55.686-13.638-24.161-32.177-48.699Z"/></svg>