<svg xmlns="http://www.w3.org/2000/svg" height="24" viewBox="0 -960 960 960" width="24"><path d="M266-132q-56 0-95-33t-39-89v-192q0-24.248 11.336-44.975Q154.673-511.703 175-525l313-202q3-2 8.5-2.5t9.5 3.5q13 13 10.5 27T505-670l-75 126h304q5.95 0 9.975 4.035 4.025 4.035 4.025 10T743.975-520q-4.025 4-9.975 4H532v100h282q5.95 0 9.975 4.035 4.025 4.035 4.025 10T823.975-392q-4.025 4-9.975 4H532v100h242q5.95 0 9.975 4.035 4.025 4.035 4.025 10T783.975-264q-4.025 4-9.975 4H532v100h162q5.95 0 9.975 4.035 4.025 4.035 4.025 10T703.975-136q-4.025 4-9.975 4H266Zm331-595q-23-29-32.5-54.533Q555-807.065 555-837q0-6.316 4.074-10.658t10-4.342q5.926 0 9.744 4.342Q582.636-843.316 583-837q0 25 8 45t31 51q20 26 28.5 50t9.5 52q0 6-4 10.5t-10.182 4.5Q640-624 636-629t-4-11q-1-25-8.5-44T597-727Zm128 0q-23-29-32.5-54.533Q683-807.065 683-837q0-6.316 4.151-10.658T697.34-852q5.66 0 9.478 4.342Q710.636-843.316 711-837q0 25 8 45t31 51q20 26 28.5 50t9.5 52q0 6.154-4.074 10.577t-10 4.423Q768-624 764-629t-4-11q-.941-24.983-8.471-43.991Q744-703 725-727Z"/></svg>