<svg xmlns="http://www.w3.org/2000/svg" height="24" viewBox="0 -960 960 960" width="24"><path d="M410.769-235.384H220q-10.385 0-17.5-7.116-7.116-7.115-7.116-17.5t7.116-17.5q7.115-7.116 17.5-7.116h190.769q10.769 0 17.692-6.923t6.923-17.692v-121.538q0-10.769-6.923-17.692t-17.692-6.923H220q-10.385 0-17.5-7.116-7.116-7.115-7.116-17.5t7.116-17.5q7.115-7.116 17.5-7.116h190.769q10.769 0 17.692-6.923t6.923-17.692v-121.538q0-10.769-6.923-17.692t-17.692-6.923H220q-10.385 0-17.5-7.116-7.116-7.115-7.116-17.5t7.116-17.5q7.115-7.116 17.5-7.116h190.769q30.77 0 52.308 21.539 21.539 21.538 21.539 52.308v122.153q0 19.616-12.193 34.116-12.192 14.5-31.038 14.5 18.846 0 31.038 14.5 12.193 14.5 12.193 34.116v122.153q0 30.77-21.539 52.308-21.538 21.539-52.308 21.539Zm359.846 0h-146q-8.538 0-14.269-5.731t-5.731-14.27q0-8.538 5.731-14.269t14.269-5.731h140v-79.999h-126q-13.769 0-23.884-10.116-10.116-10.115-10.116-23.885v-92q0-13.769 10.116-23.884 10.115-10.116 23.884-10.116h146q8.539 0 14.27 5.731t5.731 14.269q0 8.539-5.731 14.27t-14.27 5.731H644.616v79.999h125.999q13.77 0 23.885 10.116 10.116 10.115 10.116 23.884v92q0 13.77-10.116 23.885-10.115 10.116-23.885 10.116Z"/></svg>