<svg xmlns="http://www.w3.org/2000/svg" height="24" viewBox="0 -960 960 960" width="24"><path d="M280-172h-48q-24.75 0-42.375-17.625T172-232v-48q0-5.95 4.035-9.975 4.035-4.025 10-4.025t9.965 4.025q4 4.025 4 9.975v48q0 14 9 23t23 9h48q5.95 0 9.975 4.035 4.025 4.035 4.025 10T289.975-176q-4.025 4-9.975 4Zm448 0h-48q-5.95 0-9.975-4.035-4.025-4.035-4.025-10t4.025-9.965q4.025-4 9.975-4h48q14 0 23-9t9-23v-48q0-5.95 4.035-9.975 4.035-4.025 10-4.025t9.965 4.025q4 4.025 4 9.975v48q0 24.75-17.625 42.375T728-172Zm-248-80q-95 0-161.5-66.5T252-480q0-95 66.5-161.5T480-708q95 0 161.5 66.5T708-480q0 95-66.5 161.5T480-252ZM172-728q0-24.75 17.625-42.375T232-788h48q5.95 0 9.975 4.035 4.025 4.035 4.025 10T289.975-764q-4.025 4-9.975 4h-48q-14 0-23 9t-9 23v48q0 5.95-4.035 9.975-4.035 4.025-10 4.025T176-670.025q-4-4.025-4-9.975v-48Zm601.965 62Q768-666 764-670.025T760-680v-48q0-14-9-23t-23-9h-48q-5.95 0-9.975-4.035-4.025-4.035-4.025-10t4.025-9.965q4.025-4 9.975-4h48q24.75 0 42.375 17.625T788-728v48q0 5.95-4.035 9.975-4.035 4.025-10 4.025Z"/></svg>