<svg xmlns="http://www.w3.org/2000/svg" height="20" viewBox="0 -960 960 960" width="20"><path d="M462.935-435.348h153.371q26.395 0 44.871-18.582 18.475-18.582 18.475-45.13 0-25.831-17.419-44.049-17.419-18.217-42.82-19.413h-.522q-6.021-30.242-29.662-50.643-23.641-20.4-55.729-20.4-26.366 0-46.645 12.96-20.279 12.96-31.464 34.561-29.027 2.877-48.535 24.234-19.508 21.358-19.508 50.875 0 30.235 22.028 52.911 22.028 22.676 53.559 22.676ZM40.587-134.913V-720h83v502.087H758.5v83H40.587Zm155-155v-588.674h245.978L541.152-779h330.261v489.087H195.587Zm83-83h509.826V-696H506.37l-99.587-99.587H278.587v422.674Zm0 0v-422.674 422.674Z"/></svg>