<svg xmlns="http://www.w3.org/2000/svg" height="20" viewBox="0 -960 960 960" width="20"><path d="M442.153-438.154h164.942q21.573 0 36.508-15.026 14.934-15.026 14.934-36.731 0-21.704-15.074-36.896t-36.848-15.192h-11.001l-1.538-9.616q-4.057-28.028-25.408-47.129-21.351-19.102-50.708-19.102-24.038 0-42.098 11.999-18.061 11.998-27.759 32.155l-3.077 6.154-7.309.385q-25.471 1.92-42.863 20.06-17.393 18.139-17.393 44.247 0 26.107 19.077 45.4 19.077 19.292 45.615 19.292ZM68.001-168.617v-509.841H120v457.842h613.768v51.999H68.001ZM192-292.616v-551.383h240l80.614 80.615h331.385v470.768H192Z"/></svg>