<svg xmlns="http://www.w3.org/2000/svg" height="20" viewBox="0 -960 960 960" width="20"><path d="M164-184q-31.667 0-53.834-22.166Q88-228.333 88-260v-440q0-31.667 22.166-53.834Q132.333-776 164-776h296q31.667 0 53.834 22.166Q536-731.667 536-700v252h86.154q26.958 0 45.479 18.521T686.154-384v95.846q0 18 11.539 29.539 11.538 11.538 29.538 11.538t29.538-11.538q11.539-11.539 11.539-29.151V-549q-32.923-5-53.847-28.923-20.923-23.923-20.923-56.846V-700h38.77v-56.616h23.384V-700h57.231v-56.616h23.385V-700h38.769v65.231q0 32.923-20.923 56.846Q833.231-554 800.308-549v262.923q0 30.528-21.526 52.302Q757.257-212 727.09-212t-51.552-21.775q-21.384-21.774-21.384-52.302v-105.308q0-10.769-6.923-17.692T629.539-416H536v147.616q0-58-30.577-88.193-30.577-30.192-86.808-30.192H253.077q-28.431 0-49.062 20.631-20.63 20.63-20.63 49.061t20.63 49.062q20.631 20.631 49.062 20.631h159.538q6.8 0 11.4-4.548 4.6-4.547 4.6-11.269t-4.6-11.453q-4.6-4.731-11.4-4.731H253.077q-16.846 0-27.269-10.423-10.423-10.423-10.423-27.269 0-16.846 10.423-27.269 10.423-10.423 27.269-10.423h165.538q36.097-1 60.741 24.669T504-268.384q0 34.808-24.644 59.596Q454.712-184 418.615-184H164Z"/></svg>