<svg xmlns="http://www.w3.org/2000/svg" height="24" viewBox="0 -960 960 960" width="24"><path d="M275.478-266.999v-106.002H497.39q-8.913-11.912-14.574-25.273-5.66-13.361-8.99-28.725H355.478v-106.002h118.348q3.33-15.364 8.99-28.725 5.661-13.361 14.574-25.273H106.999v-106.002H680q88.395 0 150.698 62.239 62.303 62.239 62.303 150.544t-62.303 150.762Q768.395-266.999 680-266.999H275.478Zm404.755-106.002q44.68 0 75.723-31.276t31.043-75.956q0-44.68-31.159-75.723-31.16-31.043-75.674-31.043-44.514 0-75.839 31.159-31.326 31.16-31.326 75.674 0 44.514 31.276 75.839 31.276 31.326 75.956 31.326ZM66.999-426.999v-106.002h248.479v106.002H66.999Zm40 160v-106.002h128.479v106.002H106.999ZM680-480Z"/></svg>