<svg xmlns="http://www.w3.org/2000/svg" height="20" viewBox="0 -960 960 960" width="20"><path d="M480-116.771q-125.769-34.384-208.884-147.268Q188.001-376.924 188.001-516v-214.153L480-842.46l291.999 112.307V-516q0 139.076-82.615 251.961Q606.769-151.155 480-116.771Zm0-479.922L248.307-432.385q17.616 74.154 62.27 135.847 44.654 61.692 107.424 97.077v-174.538h123.998v174.538q62.77-35.385 107.424-97.077 44.654-61.693 62.27-135.847L480-596.693Zm0-189.922L240-695l-1 194q0 2.693.192 5.962.193 3.269.962 5.962L480-659.307l239.846 170.231q.769-2.693.962-5.962.192-3.269.192-5.962l-1-194-240-91.615Z"/></svg>