<svg xmlns="http://www.w3.org/2000/svg" height="20" viewBox="0 -960 960 960" width="20"><path d="M464.252-344v92q0 6.8 4.632 11.4 4.631 4.6 11.377 4.6 6.745 0 11.281-4.6 4.536-4.6 4.536-11.4v-92h91.688q6.734 0 11.484-4.547t4.75-11.269q0-6.723-4.6-11.327-4.6-4.605-11.4-4.605h-92v-92.168q0-6.836-4.608-11.46Q486.785-484 479.973-484t-11.392 4.624Q464-474.752 464-467.916v92.168h-92q-6.8 0-11.4 4.632-4.6 4.631-4.6 11.143 0 6.812 4.624 11.392 4.624 4.581 11.46 4.581h92.168Zm-175.92 208q-23.371 0-39.851-16.631Q232-169.261 232-192.615v-334.77q0-23.354 16.631-39.984Q265.261-584 288.615-584H328v-96q0-63.526 44.303-107.763T480.226-832q63.62 0 107.697 44.237Q632-743.526 632-680v96h39.385q23.354 0 39.984 16.631Q728-550.739 728-527.385v334.77q0 23.354-16.642 39.984Q694.715-136 671.344-136H288.332ZM360-584h240v-96q0-50-35-85t-85-35q-50 0-85 35t-35 85v96Z"/></svg>