<svg xmlns="http://www.w3.org/2000/svg" height="24" viewBox="0 -960 960 960" width="24"><path d="M264.615-120Q237-120 218.5-138.5 200-157 200-184.615v-590.77Q200-803 218.5-821.5 237-840 264.615-840H740q8.539 0 14.269 5.731Q760-828.539 760-820q0 8.538-5.731 14.269Q748.539-800 740-800h-80v46.154q0 13.154-8.807 21.962-8.808 8.807-21.962 8.807H370.769q-13.154 0-21.961-8.807Q340-740.692 340-753.846V-800h-75.385q-10.769 0-17.692 6.923T240-775.385v590.77q0 10.769 6.923 17.692T264.615-160h155.846q-35.692-21.615-58.077-55.808Q340-250 340-298.462v-95.384q0-26.847 18.885-45.731 18.884-18.885 45.73-18.885h190.77q26.846 0 45.731 18.885Q660-420.693 660-393.846v95.384q0 48.462-22.384 82.654-22.385 34.193-58.077 55.808H740q8.539 0 14.269 5.731Q760-148.538 760-140q0 8.539-5.731 14.269Q748.539-120 740-120H264.615ZM500-560q12.385 0 21.577-9.192 9.192-9.193 9.192-21.577 0-12.385-9.192-21.577-9.192-9.193-21.577-9.193-12.385 0-21.577 9.193-9.192 9.192-9.192 21.577 0 12.384 9.192 21.577Q487.615-560 500-560Z"/></svg>