<svg xmlns="http://www.w3.org/2000/svg" height="20" viewBox="0 -960 960 960" width="20"><path d="M200-244q-22.7 0-37.35-14.66Q148-273.32 148-296.04v-368.24q0-22.72 14.65-37.22T200-716h560q22.7 0 37.35 14.66Q812-686.68 812-663.96v368.24q0 22.72-14.65 37.22T760-244H200Zm86-112h292q11.3 0 18.65-7.33 7.35-7.33 7.35-18.6v-99.8q0-11.27-7.35-18.77T578-508H286q-11.3 0-18.65 7.33-7.35 7.33-7.35 18.6v99.8q0 11.27 7.35 18.77T286-356Zm54-234q0 6 4 10t10 4h296q9.8 0 15.9 6.1T672-554v84q0 6 4 10t10 4q6 0 10-4t4-10v-84q0-20.7-14.65-35.35Q670.7-604 650-604H354q-6 0-10 4t-4 10Z"/></svg>