<svg xmlns="http://www.w3.org/2000/svg" height="20" viewBox="0 -960 960 960" width="20"><path d="M116-177.538v-32.001q19.769-2.307 42.923-12.5 23.154-10.192 65.077-40.346 36.538 27.462 68.269 40.423Q324-209 352-209q29.769 0 62.885-13.962Q448-236.923 480-260.846q34.231 25.154 67.346 38.5Q580.462-209 611-209q27.538 0 54.154-10.962 26.615-10.961 70.846-42.423 33.308 24.308 58.962 37.039 25.653 12.731 49.038 15.807v32.001q-24.538-2.308-52.538-12.308-28-10-55.462-29.231-30.538 20-61.154 31.039Q644.231-177 611-177q-33.231 0-67.231-11.923-34-11.923-64.538-30.923-31.539 19.769-63.769 31.308Q383.231-177 352-177q-31.462 0-62.962-10.654-31.5-10.654-65.038-31.423-26.154 17.693-54.539 28.077-28.384 10.385-53.461 13.462Zm0-104.001V-372q0-91.077 33.808-167.154 33.807-76.077 94.846-131.808 61.038-55.731 145.961-86.384Q475.538-788 576-788q21.539 0 46.077 1.961 24.539 1.962 43.385 4.654-14.616 25.923-23.539 60.192Q633-686.923 633-660q0 66.461 46.269 113.231Q725.539-500 792-500h52v32h-52q-79.539 0-134.769-55.731Q602-579.462 602-660q0-20.923 4.692-44.385 4.692-23.461 11.769-44.307-109.769 17.461-168.615 85.307Q391-595.539 391-511.231q0 46.077 11.039 86.808 11.038 40.73 38.5 84.346 10.307-7 20.384-13.539 10.077-6.538 19.846-13.538 31.539 23.692 66 38.923Q581.231-313 611-313q26 0 57.846-14.347 31.846-14.346 67.154-39.807 32.692 25.923 60.462 37.731 27.769 11.807 47.538 15.884v32q-22.231-2.307-49.846-12.692-27.616-10.384-58.154-31.154-38.077 22.539-67.962 33.962Q638.154-280 611-280q-27.615 0-63.5-12.539-35.885-12.538-67.5-32.846-35.923 23.616-64.962 34.385Q386-280.231 352-280q-31 .231-60.808-9.5-29.807-9.731-67.192-33.577-25.154 17.692-53.539 28.077-28.384 10.385-54.461 13.461ZM350-313q15.231 0 33.961-2.923 18.731-2.923 30.346-7.231-30.461-48.846-43.384-92.962Q358-460.231 358-511.231q0-82 45.077-144.961Q448.154-719.154 536-759.462v9.77q-85.308 3.231-157.154 32.923Q307-687.077 256.077-638q-50.923 49.077-79.808 116.192-28.884 67.116-29.038 145.193v50.768q20.846-6.153 41.423-17.961T224-365.847q34.462 24.462 62.846 38.654Q315.231-313 350-313Zm-28-222.154Z"/></svg>