<svg xmlns="http://www.w3.org/2000/svg" height="24" viewBox="0 -960 960 960" width="24"><path d="M90-130.77v-59.999q34.539-1.538 62.808-15.077 28.269-13.538 60.192-36.845 30.385 24.23 65.5 37.961 35.115 13.731 68.5 13.731 32.615 0 68.615-13.039 36-13.038 65.385-37.884 32 26.461 66 38.692 34 12.231 68 12.231 33.769 0 65.077-12.231T749-242.691q35.154 26.538 63.423 38.461 28.269 11.923 57.576 13.461v59.999q-30.769-1.154-60.768-10.654-30-9.5-60.231-27.115-33.539 20.769-67.846 29.654-34.308 8.884-66.154 8.884-31.461 0-66.154-9.077-34.692-9.077-68.231-29.846-30.538 20.154-65.154 29.539-34.615 9.384-68.461 9.384-32.846 0-66.846-9.384-34-9.385-67.154-29.154-29.461 17.23-60.461 26.73T90.001-130.77Zm0-159.999V-380q0-95.077 36.731-175.615 36.731-80.538 100.385-139.269 63.654-58.73 149.423-91.922Q462.308-819.999 560-819.999q28.384 0 56.653 2.731t51.577 7.577q-18.308 30.846-28.269 64.23-9.962 33.385-9.962 62.462 0 59.231 41.885 101.116Q713.769-539.999 773-539.999h96.999V-480H773q-84.769 0-143.884-59.115-59.115-59.115-59.115-143.884 0-17.462 3.346-37.193 3.346-19.731 8.885-36.654-85.155 17.23-138.694 80.538Q389.999-613 389.999-529.615q0 45.232 13.231 82.155 13.231 36.924 36.539 70.924 9.154-5 19.692-12.269 10.539-7.27 20.924-14.27 30.154 24.846 67.384 38.462Q585-350.998 615-350.998q30 0 66.615-13.923 36.616-13.923 67.385-38.154 29.307 21.308 58.692 35.846 29.384 14.539 62.307 16.462v59.998q-30.769-1.153-60.768-11.23-30-10.077-60.231-27.693-33.539 20.77-66.731 30.231-33.192 9.462-67.269 9.462-34.461 0-70.654-11.154-36.192-11.154-63.346-28.539-32.539 19.77-65 29.423-32.461 9.654-69 10.27-36.923.615-69.577-9.577-32.654-10.193-64.423-28.962-29.461 17.231-60.461 26.731t-62.538 11.038Z"/></svg>