<svg xmlns="http://www.w3.org/2000/svg" height="20" viewBox="0 -960 960 960" width="20"><path d="M87.521-147.521v-88.958q32.392 0 61.37-12.782 28.979-12.783 75.674-48.479 36.131 29.566 68.348 44.913Q325.13-237.479 352-237.479q27.304 0 61.087-16.348Q446.87-270.174 480-298.87q37.261 30.696 70.478 46.043 33.218 15.348 60.522 15.348 24.304 0 51.022-13.065Q688.739-263.609 736-297.74q42.696 33.131 73.891 47.196 31.196 14.065 62.588 14.065v88.958q-36.957 0-72.218-9.435T736-185.826q-29.565 18.87-60 28.087-30.435 9.218-65 9.218-33.435 0-67.717-9.718Q509-167.956 480-185.826q-30.565 17.87-63.283 27.587Q384-148.521 352-148.521q-33.565 0-64.783-8.935Q256-166.391 224-185.826q-30.565 19.435-65.826 28.87-35.261 9.435-70.653 9.435Zm0-152.479v-80.479q0-99.695 37.348-184.391t102.979-147.326q65.63-62.631 155.043-97.979Q472.304-845.523 576-845.523q31.13 0 67.522 4.348 36.391 4.348 67.609 11.044-22.826 32.391-36.239 72.587-13.413 40.196-13.413 69.065 0 54.609 33.717 88.543 33.717 33.935 88.325 33.935h88.958v89.522h-88.958q-91.391 0-150.695-59.804-59.305-59.804-59.305-152.196 0-11.173 1.152-22.499 1.153-11.326 4.022-25.5-81.086 21.261-120.151 76.022-39.065 54.76-39.065 119.977 0 31.87 8.369 60.261 8.37 28.391 23.413 52.304 7.435-7 14.152-11.435 6.717-4.435 15.152-11.435 31.696 27.131 67.131 43.696Q583.13-390.523 611-390.523q24.87 0 57.87-16.348 33-16.347 67.13-43.913 36.13 30.131 70.109 45.196 33.978 15.065 66.37 16.065V-300q-36.957 0-72.218-9.717Q765-319.435 736-338.87 700.435-319 671.217-309.5 642-300 611-300q-32.435 0-67.935-11T480-338.87Q451-321 418.5-311T352-300q-30.435.435-63.5-9.5T224-338.87q-29.565 19.435-64.826 29.153Q123.913-300 87.521-300Z"/></svg>