<svg xmlns="http://www.w3.org/2000/svg" height="20" viewBox="0 -960 960 960" width="20"><path d="M106.001-166.77v-51.999q25.538-1.538 50.807-13.077 25.269-11.538 67.192-42.845 35.385 28.23 67.5 41.961 32.115 13.731 60.5 13.731 28.615 0 62.115-14.539 33.5-14.538 65.885-40.384 35 27.461 68.5 41.192 33.5 13.731 62.5 13.731 26.769 0 53.577-11.731T736-274.691q37.154 28.538 64.923 41.461 27.769 12.923 53.076 14.461v51.999q-28.769-1.154-59.268-11.154-30.5-10-58.731-29.615-30.539 20.769-61.346 30.654-30.808 9.884-63.654 9.884-32.461 0-66.654-10.577-34.192-10.577-64.731-30.346-31.538 20.154-64.154 30.539-32.615 10.384-63.461 10.384-31.846 0-63.346-9.884-31.5-9.885-64.654-30.654-28.461 19.23-58.961 29.23t-59.038 11.539Zm0-123.999V-372q0-96.077 35.73-175.615 35.731-79.538 98.885-137.769 63.154-58.23 149.423-90.422Q476.308-807.999 576-807.999q25.384 0 54.153 2.731t51.077 6.577q-17.308 27.846-27.769 64.23-10.462 36.385-10.462 64.462 0 62.231 43.385 106.116Q729.769-519.999 792-519.999h61.999V-468H792q-83.769 0-141.884-58.615-58.115-58.615-58.115-143.384 0-17.462 3.346-36.693 3.346-19.231 8.885-38.154-100.155 18.23-151.694 82.038Q400.999-599 400.999-521.615q0 42.232 11.231 78.155 11.231 35.924 32.539 69.924 9.154-7 17.692-12.769 8.539-5.77 17.924-12.77 31.154 24.846 66.384 40.462Q582-342.998 611-342.998q26 0 58.615-14.923 32.616-14.923 66.385-41.154 32.307 26.308 62.192 39.846 29.884 13.539 55.807 16.462v51.998q-28.769-1.153-59.268-11.73-30.5-10.577-58.731-30.193-36.539 21.77-66.231 32.231-29.692 10.462-58.769 10.462-31.461 0-67.154-12.154-35.692-12.154-63.846-30.539-30.539 19.77-61.5 30.923-30.961 11.154-66.5 11.77-32.923.615-64.077-10.077-31.154-10.693-63.923-31.462-27.461 19.231-57.961 29.231t-60.038 11.538Z"/></svg>