<svg xmlns="http://www.w3.org/2000/svg" height="20" viewBox="0 -960 960 960" width="20"><path d="M654-158q-24.65 0-41.325-17.289Q596-192.579 596-217.035q0-24.456 16.675-41.211Q629.35-275 654-275h-18q20.3 0 34.65-14.375Q685-303.75 685-325v-42q0-42.52 28-73.26Q741-471 784-477v-4q-43-9-71-39.24-28-30.24-28-72.76v-43q0-20.3-14.35-34.65Q656.3-685 636-685h18q-24.65 0-41.325-17.289Q596-719.579 596-744.035q0-24.456 16.675-41.211Q629.35-802 654-802h15q55.417 0 94.208 39.5Q802-723 802-668v42q0 22.95 18.525 36.475Q839.05-576 864.5-576q13.55 0 23.525 10.975Q898-554.05 898-540v120q0 14.05-9.775 25.025Q878.45-384 864-384q-24.95 0-43.475 13.5Q802-357 802-335v43q0 55-38.792 94.5Q724.417-158 669-158h-15Zm-363 0q-55.417 0-94.208-39.5Q158-237 158-292v-43q0-22-18.5-35.5t-43-13.5q-13.975 0-24.237-10.062Q62-404.125 62-419v-122q0-14.875 10.063-24.938Q82.124-576 97-576q24 0 42.5-13.525T158-626v-42q0-55 38.792-94.5Q235.583-802 291-802h14q24.65 0 41.325 17.289Q363-767.421 363-742.965q0 24.456-16.675 41.211Q329.65-685 305-685h20q-21.25 0-35.625 14.35T275-636v43q0 43.681-28.05 74.553T177-482v4.62q42.9 4.29 70.45 35.335Q275-411 275-367v42q0 21.25 14.375 35.625T325-275h-20q24.65 0 41.325 17.289Q363-240.421 363-215.965q0 24.456-16.675 41.211Q329.65-158 305-158h-14Z"/></svg>