<svg xmlns="http://www.w3.org/2000/svg" height="20" viewBox="0 -960 960 960" width="20"><path d="M369.782-302.173 480-385.695l110.783 83.522-42.261-134.914 109.652-87.522H523.893L480-657.957l-43.893 133.348H302.391l109.087 87.522-41.696 134.914Zm-293 129.391v-245.392q29.134 0 50.567-17.821t21.433-44.217q0-27.527-21.433-44.696-21.433-17.168-50.567-17.168v-245.142h806.436v245.392q-28.569 0-50.284 17.256-21.716 17.256-21.716 44.782 0 26.397 21.716 44.13 21.715 17.734 50.284 17.734v245.142H76.782Z"/></svg>