<svg xmlns="http://www.w3.org/2000/svg" height="24" viewBox="0 -960 960 960" width="24"><path d="m382.616-340.001 97.384-74 95.384 73.23-36.615-118.306 98.922-77.23H518.615L480-655.383l-38.615 119.076H322.309l96.922 77.23-36.615 119.076Zm-282.615 160v-203.844q34.154-6.539 57.077-33.501 22.923-26.961 22.923-62.654 0-35.693-22.923-62.654-22.923-26.962-57.077-33.501v-203.844h759.998v203.844q-34.154 6.539-57.077 33.501-22.923 26.961-22.923 62.654 0 35.693 22.923 62.654 22.923 26.962 57.077 33.501v203.844H100.001ZM160-240h640v-102q-37-22-58.5-58.5T720-480q0-43 21.5-79.5T800-618v-102H160v102q37 22 58.5 58.5T240-480q0 43-21.5 79.5T160-342v102Zm320-240Z"/></svg>