<svg xmlns="http://www.w3.org/2000/svg" height="20" viewBox="0 -960 960 960" width="20"><path d="m390.616-338.001 89.384-69 89.384 68.23-34.615-109.306 90.922-72.23H515.682L480-629.383l-35.682 109.076H334.309l90.922 72.23-34.615 110.076Zm-274.615 126v-179.844q30.854-6.539 51.427-31.213t20.573-57.154q0-32.481-20.573-57.068-20.573-24.587-51.427-31.126v-179.593h727.998v179.844q-30.854 6.539-51.427 31.213t-20.573 57.154q0 32.481 20.573 57.068 20.573 24.587 51.427 31.126v179.593H116.001ZM168-264h624v-91q-32-19-52-52t-20-73q0-40 20-73t52-52v-91H168v91q32 19 52 52t20 73q0 40-20 73t-52 52v91Zm312-216Z"/></svg>