<svg xmlns="http://www.w3.org/2000/svg" height="24" viewBox="0 -960 960 960" width="24"><path d="M160-160v-49.231h49.231V-160H160Zm0-147.692v-49.231h49.231v49.231H160Zm0-147.693v-49.23h49.231v49.23H160Zm0-147.692v-49.231h49.231v49.231H160Zm0-147.692V-800h49.231v49.231H160ZM307.692-160v-49.231h49.231V-160h-49.231Zm0-590.769V-800h49.231v49.231h-49.231ZM455.385-160v-49.231h49.23V-160h-49.23Zm147.692 0v-49.231h49.231V-160h-49.231Zm147.692 0v-49.231H800V-160h-49.231Zm0-147.692v-49.231H800v49.231h-49.231ZM800-455.385h-49.231v-172.307q0-50.77-36.154-86.923-36.153-36.154-86.923-36.154H455.385V-800h172.307q72.231 0 122.27 50.038Q800-699.923 800-627.692v172.307Z"/></svg>