<svg xmlns="http://www.w3.org/2000/svg" height="24" viewBox="0 -960 960 960" width="24"><path d="M100.782-100.782v-96.957h96.957v96.957h-96.957Zm0-165.652v-96.957h96.957v96.957h-96.957Zm0-165.087v-96.958h96.957v96.958h-96.957Zm0-165.653v-96.957h96.957v96.957h-96.957Zm0-165.087v-96.957h96.957v96.957h-96.957Zm165.652 661.479v-96.957h96.957v96.957h-96.957Zm0-661.479v-96.957h96.957v96.957h-96.957Zm165.087 661.479v-96.957h96.958v96.957h-96.958Zm165.653 0v-96.957h96.957v96.957h-96.957Zm165.087 0v-96.957h96.957v96.957h-96.957Zm0-165.652v-96.957h96.957v96.957h-96.957Zm96.957-165.087h-96.957v-214.131q0-48.587-34.011-82.598-34.011-34.011-82.598-34.011H431.521v-96.957h214.381q88.968 0 151.142 62.174 62.174 62.174 62.174 151.142v214.381Z"/></svg>