<svg xmlns="http://www.w3.org/2000/svg" height="20" viewBox="0 -960 960 960" width="20"><path d="M124.782-124.782v-88.957h88.957v88.957h-88.957Zm0-155.652v-88.957h88.957v88.957h-88.957Zm0-155.087v-88.958h88.957v88.958h-88.957Zm0-155.653v-88.957h88.957v88.957h-88.957Zm0-155.087v-88.957h88.957v88.957h-88.957Zm155.652 621.479v-88.957h88.957v88.957h-88.957Zm0-621.479v-88.957h88.957v88.957h-88.957Zm155.087 621.479v-88.957h88.958v88.957h-88.958Zm155.653 0v-88.957h88.957v88.957h-88.957Zm155.087 0v-88.957h88.957v88.957h-88.957Zm0-149.652v-88.957h88.957v88.957h-88.957Zm88.957-157.087h-88.957v-204.131q0-46.087-32.261-78.348-32.261-32.261-78.348-32.261H435.521v-88.957h200.381q83.968 0 141.642 57.674 57.674 57.674 57.674 141.642v204.381Z"/></svg>