<svg xmlns="http://www.w3.org/2000/svg" height="20" viewBox="0 -960 960 960" width="20"><path d="M432-84.695q-124.734 0-212.019-87.286Q132.695-259.266 132.695-384q0-92.435 54.5-191.848 54.5-99.413 152.065-182.239 33.783-28.087 68.914-13.348 35.131 14.739 35.131 56.348V-697q0 25.195 17.582 42.945 17.583 17.75 43.021 17.75 13.396 0 24.155-4.123t17.024-12.485q12.192-14.638 31.118-17.298 18.925-2.659 32.186 9.037 56.392 49.391 89.653 123.935Q731.305-462.696 731.305-384q0 124.734-87.286 212.019Q556.734-84.695 432-84.695ZM230.696-384q0 33.316 11.152 63.548 11.152 30.233 35.717 60.146-.435-3.174-.935-5.913-.5-2.739-.5-3.832 3.391-21.124 13.121-41.551 9.729-20.427 25.575-37.964L432-480.306l117.74 130.74q15.845 17.537 25.575 37.964 9.729 20.427 12.555 41.47 0 2.174-.5 4.913-.5 2.739-.935 5.913 22-23.913 34.434-56.39 12.435-32.478 12.435-68.304 0-46.782-14.45-91.32-14.45-44.537-41.68-82.027-17 8.739-35.808 13.891-18.808 5.152-37.366 5.152-49.739 0-90.652-27.478-40.913-27.478-58.827-75.086-61.26 61.913-92.542 126.753-31.283 64.84-31.283 130.115ZM432-335.565l-44.945 51.976q-7.446 9.423-11.598 19.463-4.152 10.041-4.152 20.798 0 24.953 17.921 42.792 17.921 17.84 43.086 17.84 25.166 0 42.775-17.898 17.608-17.897 17.608-42.797 0-10.174-3.615-20.367-3.615-10.193-11.993-19.72L432-335.565Zm413.733-155.434q-20.298 0-34.754-14.247-14.457-14.246-14.457-34.543 0-20.298 14.246-34.755 14.246-14.457 34.544-14.457 20.298 0 34.755 14.246 14.456 14.247 14.456 34.544 0 20.298-14.246 34.755-14.246 14.457-34.544 14.457Zm0-146.002q-20.298 0-34.754-14.306-14.457-14.307-14.457-34.694v-120q0-20.388 14.246-34.694 14.246-14.307 34.544-14.307 20.298 0 34.755 14.307 14.456 14.306 14.456 34.694v120q0 20.387-14.246 34.694-14.246 14.306-34.544 14.306Z"/></svg>