<svg xmlns="http://www.w3.org/2000/svg" height="20" viewBox="0 -960 960 960" width="20"><path d="M432-136q-103.077 0-175.539-72.461Q184-280.923 184-384q0-69.923 37.577-151.385 37.577-81.461 104.577-150.692 21.615-21.462 44.5-15.193 22.885 6.27 22.885 31.347v-10.154q0 35.385 33.554 65.231Q460.648-585 503.908-585q16.63 0 31.938-3.846 15.308-3.847 27.154-11.539 10-8.154 22.423-7.846 12.423.308 20.346 8.769 34.539 40.616 54.385 98.385Q680-443.308 680-384q0 103.077-72.461 175.539Q535.077-136 432-136ZM216-384q0 62.109 34.269 113.67t94.346 80.407q-7.923-12.923-12.269-26.769Q328-230.539 328-242.919q0-16.62 6.754-33.798 6.755-17.178 18.707-30.822L432-399.846l79.308 92.307q11.952 13.644 18.322 30.822Q536-259.539 536-243q0 13.461-4.346 27.308-4.346 13.846-12.269 26.769 58.077-22.846 93.346-76.652Q648-319.38 648-384q0-53-17.5-102T580-576q-17 11-36.373 17-19.373 6-39.627 6-52.769 0-92.269-32-39.5-32-48.731-84.538-72 66.23-109.5 139.556Q216-456.656 216-384Zm216 36-53 60q-9 11-14 23.047-5 12.046-5 24.953 0 29.538 21.212 50.769 21.213 21.231 51 21.231Q462-168 483-189.231q21-21.231 21-50.769 0-13-4.5-25T485-288l-53-60Zm396.211-176q-6.75 0-11.48-4.52Q812-533.04 812-539.789q0-6.75 4.52-11.48Q821.04-556 827.789-556q6.75 0 11.48 4.52Q844-546.96 844-540.211q0 6.75-4.52 11.48Q834.96-524 828.211-524Zm0-110.769q-6.75 0-11.48-4.581Q812-643.931 812-650.769V-780q0-6.839 4.52-11.419Q821.04-796 827.789-796q6.75 0 11.48 4.581Q844-786.839 844-780v129.231q0 6.838-4.52 11.419t-11.269 4.581Z"/></svg>