<svg xmlns="http://www.w3.org/2000/svg" height="24" viewBox="0 -960 960 960" width="24"><path d="M460-122v-38.461q-125-11.693-206.423-93.116T160.461-460H122q-8.5 0-14.25-5.758-5.75-5.757-5.75-14.269t5.75-14.242Q113.5-500 122-500h38.461q11.693-125 93.116-206.423T460-799.539V-838q0-8.5 5.758-14.25 5.757-5.75 14.269-5.75t14.242 5.75Q500-846.5 500-838v38.461q125 11.693 206.423 93.116T799.539-500H838q8.5 0 14.25 5.758 5.75 5.757 5.75 14.269t-5.75 14.242Q846.5-460 838-460h-38.461q-11.693 125-93.116 206.423T500-160.461V-122q0 8.5-5.758 14.25-5.757 5.75-14.269 5.75t-14.242-5.75Q460-113.5 460-122Zm20-78q116 0 198-82t82-198q0-116-82-198t-198-82q-116 0-198 82t-82 198q0 116 82 198t198 82Zm0-160q-49.5 0-84.75-35.25T360-480q0-49.5 35.25-84.75T480-600q49.5 0 84.75 35.25T600-480q0 49.5-35.25 84.75T480-360Z"/></svg>