<svg xmlns="http://www.w3.org/2000/svg" height="20" viewBox="0 -960 960 960" width="20"><path d="M430.999-361.089v-377.153q0-20.377 14.247-34.677 14.246-14.299 34.543-14.299 20.298 0 34.755 14.299 14.457 14.3 14.457 34.677v377.153l154.167-154.166q14.745-14.746 34.897-15.028 20.153-.283 35.588 14.674 14.478 14.957 14.196 35.109-.283 20.152-15.062 34.918L514.701-207.795q-7.107 7.1-16.246 11.013-9.139 3.913-18.615 3.913-9.475 0-18.614-3.913-9.139-3.913-15.835-10.609L206.826-445.956q-15.522-15.522-15.022-35.109.5-19.587 15.543-34.544 15.435-14.957 35.472-14.957 20.036 0 34.66 14.957l153.52 154.52Z"/></svg>