<svg xmlns="http://www.w3.org/2000/svg" height="24" viewBox="0 -960 960 960" width="24"><path d="M206.783-60.782q-44.305 0-75.153-30.848-30.848-30.848-30.848-75.153v-546.434q0-44.305 30.848-75.153 30.848-30.848 75.153-30.848H240v-33.783q0-19.261 13.761-32.739 13.761-13.478 33.022-13.478t32.739 13.478q13.479 13.478 13.479 32.739v33.783h293.998v-33.783q0-19.261 13.761-32.739 13.761-13.478 33.022-13.478t32.74 13.478Q720-872.262 720-853.001v33.783h33.217q44.305 0 75.153 30.848 30.848 30.848 30.848 75.153V-559q0 22.087-15.456 37.544-15.457 15.457-37.544 15.457-22.088 0-37.544-15.457-15.457-15.457-15.457-37.261V-560H206.783v393.217h216.825q22.087 0 37.544 15.457 15.457 15.456 15.457 37.544 0 22.087-15.457 37.544-15.457 15.456-37.544 15.456H206.783Zm0-579.218h546.434v-73.217H206.783V-640Zm0 0v-73.217V-640Zm349.826 526.218v-63.739q0-10.827 4.13-20.305 4.131-9.478 11.826-17.174L781-423q10.696-10.796 23.768-15.594 13.073-4.797 26.145-4.797 14.261 0 27.267 5.347 13.006 5.348 23.647 16.044l37 37q9.596 10.696 14.994 23.768 5.397 13.073 5.397 26.145 0 13.827-4.848 27.022-4.847 13.196-15.543 23.892l-208 208q-7.615 7.696-17.134 11.544-9.519 3.847-20.345 3.847h-63.739q-22.087 0-37.544-15.456-15.456-15.457-15.456-37.544Zm311.304-221.305-37-37 37 37Zm-240 203h38l118.739-119.739-18-19-19-18-119.739 118.739v38Zm138.739-138.739-19-18 37 37-18-19Z"/></svg>