<svg xmlns="http://www.w3.org/2000/svg" height="20" viewBox="0 -960 960 960" width="20"><path d="M353.076-458.308h43.385v-72h55.923l16.077-16.077v-83.23l-16.077-16.077h-99.308v187.384Zm43.385-115.384v-28.616h28.615v28.616h-28.615Zm96.769 115.384h97.769l16.077-16.077v-155.23l-16.077-16.077H493.23v187.384Zm43.384-43.384v-100.616h27.077v100.616h-27.077Zm99.077 43.384h43.385v-72h55.693v-43.384h-55.693v-28.616h55.693v-43.384h-99.078v187.384Zm-385.69 198.307v-583.998h583.997v583.998H250.001ZM301.999-312h480v-480h-480v480ZM126.002-136.003v-571.688h51.999v519.69h519.69v51.998H126.002ZM301.999-792v480-480Z"/></svg>