<svg xmlns="http://www.w3.org/2000/svg" height="20" viewBox="0 -960 960 960" width="20"><path d="M230.37-693.37h499.26l-48-48H278.37l-48 48Zm181.934 238.218L480-489l67.696 33.848v-157.609H412.304v157.609ZM135.869-135.869v-579.348L243.348-824.37h473.304l107.479 109.153v110.086L741.13-523.13v-89.631H628.304v201.457l-58 57.761L480-398.435l-148.304 74.153v-288.479H218.87v393.891h283.695v83.001H135.869Zm492.435-476.892H741.13 628.304Zm-409.434 0H570.304 218.87Zm355.695 476.892v-119.696l248.783-247.783 118.696 119.696-247.343 247.783H574.565Zm292.783-247.783-45-45 45 45Zm-240 195h45l114.043-114.044-22-23-22-22-115.043 114.044v45Zm137.043-137.044-22-22 44 45-22-23Z"/></svg>