<svg xmlns="http://www.w3.org/2000/svg" height="20" viewBox="0 -960 960 960" width="20"><path d="M228-375.521q-18.903 0-31.691-12.727t-12.788-31.541q0-18.814 12.788-31.752 12.788-12.938 31.691-12.938h114.477v-70.999h-70.434q-17.222 0-28.872-11.59-11.65-11.589-11.65-28.721 0-17.133 11.65-28.933t28.872-11.8h70.434v-70.999H228q-18.903 0-31.691-12.727t-12.788-31.541q0-18.814 12.788-31.752 12.788-12.938 31.691-12.938h114.477q38.179 0 63.851 25.39Q432-725.7 432-687.521V-624q0 17.796-9.761 30.354-9.76 12.559-26.369 17.646 16.609 5.087 26.369 17.646Q432-545.796 432-528v63.521q0 38.179-25.672 63.568-25.672 25.39-63.851 25.39H228Zm389.523 0q-38.179 0-63.851-25.39Q528-426.3 528-464.479v-223.042q0-38.179 25.672-63.568 25.672-25.39 63.851-25.39h86.956q38.178 0 63.85 25.39 25.672 25.389 25.672 63.568v223.042q0 38.179-25.672 63.568-25.672 25.39-63.85 25.39h-86.956Zm0-88.958h86.956v-223.042h-86.956v223.042ZM154.209-96q-17.132 0-28.932-11.65-11.8-11.65-11.8-28.872v-110.956q0-17.222 11.589-28.872Q136.656-288 153.788-288q17.133 0 28.933 11.65t11.8 28.872v110.956q0 17.222-11.59 28.872Q171.342-96 154.209-96Zm153.034 0q-16.896 0-28.809-11.65t-11.913-28.872v-111.521q0-16.982 11.589-28.469Q289.7-288 306.832-288q16.892 0 28.53 11.65 11.637 11.65 11.637 28.872v111.521q0 16.982-11.43 28.469Q324.14-96 307.243-96Zm152.479 0q-16.896 0-28.81-11.65-11.913-11.65-11.913-28.872v-111.521q0-16.982 11.59-28.469Q442.178-288 459.311-288q16.892 0 28.529 11.65 11.638 11.65 11.638 28.872v111.521q0 16.982-11.43 28.469Q476.618-96 459.722-96ZM612-96q-17.222 0-28.872-11.65-11.65-11.65-11.65-28.872v-111.521q0-16.982 11.65-28.469Q594.778-288 612-288h194.567q16.981 0 28.469 11.488 11.487 11.487 11.487 28.469v111.521q0 17.222-11.487 28.872Q823.548-96 806.567-96H612Z"/></svg>