<svg xmlns="http://www.w3.org/2000/svg" height="20" viewBox="0 -960 960 960" width="20"><path d="M312-360.615h336v27.384q0 9.616 7.038 16.654 7.039 7.039 16.654 7.039 9.616 0 16.654-7.039 7.039-7.038 7.039-16.654v-127.384q0-17.616-13.5-34.577-13.5-16.962-34.5-21.116v-49.846q0-24.315-16.15-40.466-16.15-16.15-40.466-16.15H484.615q-4.615 0-5.769 2.693-1.154 2.692 1.154 6.538 2.308-3.846 1.154-6.538-1.154-2.693-5.769-2.693H369.599q-24.984 0-40.984 16.15-16 16.151-16 40.466v49.846q-21 4.154-34.5 21.116-13.5 16.961-13.5 34.577v127.384q0 9.616 7.039 16.654 7.038 7.039 16.654 7.039 9.615 0 16.654-7.039Q312-323.615 312-333.231v-27.384ZM312-408v-48h336v48H312Zm48-95.385v-47.385q0-10.769 6.923-17.692t17.692-6.923h47.077q10.77 0 17.693 6.923 6.923 6.923 6.923 17.692v47.385H360Zm143.692 0v-47.385q0-10.769 6.923-17.692t17.693-6.923h47.077q10.769 0 17.692 6.923T600-550.77v47.385h-96.308ZM192.615-136q-24.315 0-40.465-16.15Q136-168.3 136-192.615v-574.77q0-24.315 16.15-40.465Q168.3-824 192.615-824h574.77q24.315 0 40.465 16.15Q824-791.7 824-767.385v574.77q0 24.315-16.15 40.465Q791.7-136 767.385-136h-574.77Zm0-32h574.77q9.23 0 16.923-7.692Q792-183.385 792-192.615v-574.77q0-9.23-7.692-16.923Q776.615-792 767.385-792h-574.77q-9.23 0-16.923 7.692Q168-776.615 168-767.385v574.77q0 9.23 7.692 16.923Q183.385-168 192.615-168ZM168-168v-624 624Z"/></svg>