<svg xmlns="http://www.w3.org/2000/svg" height="20" viewBox="0 -960 960 960" width="20"><path d="M480-65.065q-67.152 0-114.326-47.174Q318.5-159.413 318.5-226.565q0-56.29 34-99.46 34-43.171 86-56.811V-450.5H220.109v-121.435h-108v-299h299v299h-108v38.435h365.782v-44.109q-52-13.195-86-56.366-34-43.17-34-99.46 0-67.152 47.174-114.326 47.174-47.174 114.326-47.174 67.153 0 114.327 47.174 47.173 47.174 47.173 114.326 0 56.29-34 99.46-34 43.171-86 56.366V-450.5H521.5v67.664q52 13.64 86 56.811 34 43.17 34 99.46 0 67.152-47.174 114.326Q547.152-65.065 480-65.065Z"/></svg>