<svg xmlns="http://www.w3.org/2000/svg" height="24" viewBox="0 -960 960 960" width="24"><path d="M184.615-160Q157-160 138.5-178.5 120-197 120-224.615v-430.77Q120-683 138.5-701.5 157-720 184.615-720h118.308l54.615-59.385q8.693-9.692 21.116-15.154Q391.077-800 405-800h150q13.923 0 26.346 5.461 12.423 5.462 21.116 15.154L657.077-720h118.308Q803-720 821.5-701.5 840-683 840-655.385v430.77Q840-197 821.5-178.5 803-160 775.385-160h-590.77Zm0-40h590.77q10.769 0 17.692-6.923T800-224.615v-430.77q0-10.769-6.923-17.692T775.385-680H639.538l-73.769-80H394.231l-73.769 80H184.615q-10.769 0-17.692 6.923T160-655.385v430.77q0 10.769 6.923 17.692T184.615-200ZM480-440ZM347.692-315.384h264.616V-322q0-35-35.154-54.192Q542-395.385 480-395.385q-62 0-97.154 19.193Q347.692-357 347.692-322v6.616ZM480-460q25.308 0 42.654-17.346Q540-494.692 540-520q0-25.308-17.346-42.654Q505.308-580 480-580q-25.308 0-42.654 17.346Q420-545.308 420-520q0 25.308 17.346 42.654Q454.692-460 480-460Z"/></svg>