<svg xmlns="http://www.w3.org/2000/svg" height="20" viewBox="0 -960 960 960" width="20"><path d="M174.783-124.782q-40.305 0-69.153-28.848-28.848-28.848-28.848-69.153v-418.434q0-40.305 28.848-69.153 28.848-28.848 69.153-28.848h103.043l79.913-96h244.522l79.913 96h103.043q41.305 0 69.653 28.848 28.348 28.848 28.348 69.153v418.434q0 40.305-28.348 69.153-28.348 28.848-69.653 28.848H174.783Zm152.738-156.435h304.958v-36.957q0-39.696-41.979-65.609-41.978-25.913-110.5-25.913-68.522 0-110.5 25.913-41.979 25.913-41.979 65.609v36.957ZM480-433.696q32.261 0 54.391-22.13 22.131-22.131 22.131-54.392t-22.131-54.109q-22.13-21.847-54.391-21.847-32.261 0-54.391 21.847-22.131 21.848-22.131 54.109t22.131 54.392q22.13 22.13 54.391 22.13Z"/></svg>