<svg xmlns="http://www.w3.org/2000/svg" height="20" viewBox="0 -960 960 960" width="20"><path d="M668.609-25.955q-20.388 0-34.694-14.226-14.307-14.226-14.307-34.261 0-20.036 14.307-34.493 14.306-14.456 34.694-14.456 70 0 119-49t49-119q0-20.015 14.225-34.225 14.226-14.211 34.262-14.211 20.035 0 34.492 14.211 14.457 14.21 14.457 34.225 0 110.324-77.556 187.88t-187.88 77.556ZM74.601-619.608q-20.297 0-34.471-14.307-14.175-14.306-14.175-34.694 0-110.324 77.556-187.88t187.88-77.556q20.015 0 34.225 14.247 14.211 14.246 14.211 34.544 0 20.297-14.211 34.471-14.21 14.174-34.225 14.174-70 0-119 49t-49 119q0 20.388-14.246 34.694-14.246 14.307-34.544 14.307ZM180.086-201.39q-87.653-87.653-89.283-208.218-1.63-120.566 84.457-206.653l73.566-74.001q9.931-9.826 23.835-9.826 13.904 0 23.73 9.826 22 22 20.87 50.435-1.131 28.435-22.565 49.87l-14.783 15.783q-14.957 14.623-14.957 34.377 0 19.754 14.957 34.71l-1.609-1.609q17.608 17.669 17.608 42.269 0 24.6-17.408 42.009-8.331 8.33-8.331 20.874 0 12.543 8.247 20.674 8.247 8.13 20.674 8.13t20.69-8.262q34.303-34.303 34.303-83.738 0-49.434-33.87-83.304l8.479 8.479 7.913-7.914q16.261-16.261 26.174-36.87 9.913-20.608 11.783-42.435l161.608-161.042q12.927-13.261 30.138-13.544 17.21-.282 30.471 12.979t13.261 30.753q0 17.493-13.261 30.421L415.957-546.391l26.652 26.652 248.826-249.957q13.17-13.261 30.824-13.261 17.654 0 30.915 13.19 13.261 13.189 12.979 30.587-.283 17.398-13.544 30.659L503.218-459.13l25.521 26.087L743.565-647.87q12.928-13.26 30.421-12.978 17.493.283 30.754 13.544 13.261 13.261 13.261 30.188 0 16.928-13.261 29.856L589.348-372.434 616-345.782l140.261-140.72q12.985-13.019 30.275-13.019t30.551 13.261q13.261 13.261 13.261 30.471t-13.261 30.138L591.261-200.26q-85.597 86.088-205.343 85.522-119.745-.565-205.832-86.652Z"/></svg>