<svg xmlns="http://www.w3.org/2000/svg" height="20" viewBox="0 -960 960 960" width="20"><path d="M642.769-98q-6.838 0-11.804-4.398Q626-106.796 626-113.282q0-6.487 4.965-11.218 4.966-4.731 11.804-4.731Q722-130 776-184.385q54-54.384 54.769-132.846 0-6.465 4.398-11.232 4.398-4.768 10.885-4.768t11.218 4.768q4.73 4.767 4.73 11.232 0 91.893-63.669 155.562-63.669 63.67-155.562 63.67ZM113.441-626q-6.749 0-11.095-4.581Q98-635.162 98-642q0-91.893 64.053-155.947Q226.107-862 317.231-862q6.465 0 11.232 4.52 4.768 4.52 4.768 11.269 0 6.749-4.768 11.096-4.767 4.346-11.232 4.346Q238-830 184-775.615q-54 54.384-54.769 132.846 0 6.838-4.521 11.804Q120.19-626 113.441-626Zm103.713 383.539q-71.231-71.231-71.346-168.578-.116-97.346 70.884-168.346l71.539-71.769q9.413-9.308 23.206-9.308 13.794 0 23.101 9.308 15.077 15.077 16.616 33.308 1.538 18.231-12.77 32.538l-26.461 26.693q-8.692 8.359-8.692 19.948 0 11.59 8.692 20.282l-15.846-15.846q35.615 35.676 19.846 68.338-15.769 32.662-42.723 59.616-3.354 3.354-3.738 8.354-.385 5 3.654 8.154 3.271 3.154 8.154 3.154 4.884 0 8.17-3.286 34.868-34.099 50.252-76.407 15.385-42.307-26.538-84.23L325.462-539l36.153-36.154q.154-1.692 3.27-2.269 3.115-.577 9.192-2.654l157.231-158q5.282-5.616 11.102-5.616 5.821 0 11.436 5.616 5.616 5.615 5.616 11.436 0 5.82-5.616 11.102L391.231-552.923l56.307 56.307 232.154-233.692q5.525-5.615 11.609-5.615T703-730.379q5.616 5.544 5.616 11.654T703-707L469.308-474.846l56.307 56.307 199.693-198.923q5.282-5.615 11.102-5.615 5.821 0 11.436 5.615 5.616 5.616 5.616 11.436 0 5.821-5.616 11.103L548.154-396l57.077 57.077 122.475-122.165q5.34-5.374 11.24-5.374t11.516 5.616q5.615 5.615 5.615 11.436 0 5.82-5.615 11.102L553.616-242.461q-70.511 71-167.986 71-97.476 0-168.476-71Z"/></svg>