<svg xmlns="http://www.w3.org/2000/svg" height="24" viewBox="0 -960 960 960" width="24"><path d="M676.609-16.955q-22.088 0-37.544-15.675-15.457-15.674-15.457-37.76 0-22.088 15.457-37.545 15.456-15.456 37.544-15.456 66 0 113-47t47-113q0-22.088 15.674-37.762t37.761-15.674q22.087 0 37.544 15.674 15.457 15.674 15.457 37.762 0 110.739-77.849 188.587-77.848 77.849-188.587 77.849ZM70.391-623.608q-22.087 0-37.762-15.457-15.674-15.456-15.674-37.544 0-110.739 77.849-188.587 77.848-77.849 188.587-77.849 22.088 0 37.762 15.457t15.674 37.544q0 22.087-15.674 37.761-15.674 15.674-37.762 15.674-66 0-113 47t-47 113q0 22.088-15.456 37.544-15.457 15.457-37.544 15.457ZM191.086-188.39q-96.653-96.653-97.783-231.718-1.13-135.066 94.957-231.153l71.566-72.001q7.826-7.826 18.783-7.826 10.956 0 18.782 7.826 29 29 27.87 69.935-1.131 40.935-29.565 69.37l-20.783 20.783q-15.957 15.956-15.957 37.544 0 21.587 15.957 37.543l26.391 26.391q22.608 22.609 22.608 54.239 0 31.63-22.608 54.239-10.131 10.13-10.131 25.174 0 15.043 10.131 25.174 10.13 10.13 25.174 10.13 15.043 0 25.174-10.13 43.435-43.435 43.435-104.37 0-60.934-43.87-104.804l-13.521-13.521 7.913-7.914q28.261-28.261 40.674-63.87 12.413-35.608 9.283-72.435l162.608-162.042q14.261-14.261 33.304-14.544 19.044-.282 33.305 13.979t14.261 33.587q0 19.326-14.261 33.587L434.957-575.391l34.652 34.652 243.826-243.957q14.261-14.261 33.37-14.261 19.108 0 33.369 14.261t13.979 33.087q-.283 18.827-14.544 33.088L536.218-474.13l33.521 34.087L784.565-654.87q14.261-14.26 33.587-13.978 19.327.283 33.588 14.544 14.261 14.261 14.261 33.022T851.74-588.26L636.348-373.434 671-338.782 828.478-496.26q14.261-14.261 33.305-14.261 19.043 0 33.304 14.261 14.261 14.261 14.261 33.304 0 19.044-14.261 33.305L652.261-187.26q-96.087 96.088-230.588 95.522-134.5-.565-230.587-96.652Z"/></svg>