<svg xmlns="http://www.w3.org/2000/svg" height="20" viewBox="0 -960 960 960" width="20"><path d="M288.332-136Q264-136 248-152.15t-16-40.465v-574.77q0-24.315 16.15-40.465Q264.3-824 288.615-824h283.539q10.923 0 22.115 4.231 11.192 4.23 18.885 12.923l97.692 97.692q8.693 7.693 12.923 18.885Q728-679.077 728-668.154v475.539q0 24.315-16.162 40.465Q695.676-136 671.344-136H288.332ZM568-692.307q0 12.223 8.042 20.265T596.307-664H696L568-792v99.693ZM364.615-279.385h168q3.277 0 5.947-2.669 2.669-2.669 2.669-5.946v-68.461l43.542 29.605q7.15 4.856 14.727 1.51t7.577-12.222v-68.864q0-8.876-7.577-12.222t-14.727 1.51l-43.542 29.605V-456q0-3.277-2.669-5.946-2.67-2.669-5.947-2.669h-168q-3.277 0-5.946 2.669Q356-459.277 356-456v168q0 3.277 2.669 5.946 2.669 2.669 5.946 2.669Z"/></svg>