<svg xmlns="http://www.w3.org/2000/svg" height="20" viewBox="0 -960 960 960" width="20"><path d="M440.413-92.413v-159.739L316-127.978 259.978-184l180.435-179.435v-76.978h-76.978L183-259.978 126.978-316l125.174-124.413H92.413v-79.174h159.739L127.978-644 184-700.022l179.435 180.435h76.978v-76.978L259.978-776 316-832.022l124.413 124.174v-159.739h79.174v159.739L644-833.022 700.022-777 519.587-596.565v76.978h76.978L776-700.022 832.022-644 707.848-519.587h159.739v79.174H707.848L833.022-316 777-259.978 596.565-440.413h-76.978v76.978L700.022-183 644-126.978 519.587-252.152v159.739h-79.174Z"/></svg>