<svg xmlns="http://www.w3.org/2000/svg" height="20" viewBox="0 -960 960 960" width="20"><path d="M402.231-136 181.538-355.154l32.847-29.769L356-353.615V-700h32v388.077L228.539-352.23l185 184.23H696v-312h32v344H402.231Zm66.846-268v-172h32v172h-32Zm113.846 0v-124h32v124h-32ZM136-656.615q50.307-90.078 143.077-143.116 92.769-53.039 200.615-53.039 94.539 0 175.385 39.347 80.846 39.346 145.538 114.653V-824H824v167.385H656.615V-680H785q-61.538-74.385-138.731-111.885-77.192-37.5-166.577-37.5-98.384 0-184.884 47.5-86.5 47.5-132.193 125.27H136Zm416.923 362Z"/></svg>