<svg xmlns="http://www.w3.org/2000/svg" height="20" viewBox="0 -960 960 960" width="20"><path d="M116.001-664.307q44.155-98.538 144.039-158.307 99.884-59.768 220.806-59.768 98.769 0 182.692 39.923t144.769 114.077v-115.617h35.692v179.692H664.307v-35.692H785q-55.77-71.692-134.116-109.192t-170.038-37.5q-105.692 0-194.692 50-88.999 50-130.846 132.384h-39.307Zm281.615 548.306L170.77-342.078l45.922-44.383 129.309 30.154v-353.692h51.998v283.384h64.54V-576h51.998v149.385h64.925V-528h51.998v101.385H696V-480h51.999v363.999H397.616Z"/></svg>