<svg xmlns="http://www.w3.org/2000/svg" height="20" viewBox="0 -960 960 960" width="20"><path d="M239.39-204.389q-22.087 0-38.544-16.457-16.457-16.457-16.457-38.348v-440.612q0-21.891 16.457-38.348t38.544-16.457q22.087 0 38.544 16.457 16.457 16.457 16.457 38.348v440.612q0 21.891-16.457 38.348t-38.544 16.457Zm450.872-56.566L429.304-434.26q-25.217-16.624-25.217-45.573 0-28.95 25.217-45.907l260.958-172.305q27.783-18.522 56.566-2.858 28.783 15.663 28.783 48.598v345.61q0 32.619-28.8 48.158-28.799 15.538-56.549-2.418Z"/></svg>