<svg xmlns="http://www.w3.org/2000/svg" height="20" viewBox="0 -960 960 960" width="20"><path d="M518.692-281.538v-32.539l148.385-150.385q27.538-28.538 41.846-50.307 14.308-21.77 14.308-48.77 0-34.307-23.77-60.153-23.769-25.846-68.615-25.846-32 0-53.308 14.038-21.307 14.039-33.923 38.731l-27.461-12.616q15.615-28.307 41.615-48.692t73.539-20.385q58.615 0 90.192 32.193 31.577 32.192 31.577 80.73 0 31.077-16.077 62.193-16.077 31.115-48.692 62.731L557.154-312l-1.538 1.462h213.692v29H518.692Zm-157-163.077h-200v-32h200v32Z"/></svg>