<svg xmlns="http://www.w3.org/2000/svg" height="20" viewBox="0 -960 960 960" width="20"><path d="M214.615-184q-6.8 0-11.4-4.547-4.6-4.547-4.6-11.269t4.6-11.453q4.6-4.731 11.4-4.731h529.231q6.8 0 11.4 4.547 4.6 4.548 4.6 11.27 0 6.722-4.6 11.452-4.6 4.731-11.4 4.731H214.615Zm44.846-304.462q-20.024-20.643-30.743-47.302Q218-562.423 218-591.528q0-60.449 40.38-102.846Q298.761-736.77 358-736.77q28.484 0 53.511 11.462 25.028 11.461 45.412 30.615L480-671.616l23.077-22.308q20.384-19.153 45.412-31Q573.516-736.77 602-736.77q58.125 0 98.563 42.783Q741-651.204 741-591.456q0 28.86-9.512 55.237-9.513 26.376-29.691 47.182L503.308-299q-4.576 4.615-11.173 7.423-6.596 2.808-12.135 2.808t-11.635-2.808q-6.097-2.808-11.673-7.423L259.461-488.462ZM281-511.769l197 191 199.68-191.738q16.32-15.262 23.82-36.197 7.5-20.934 7.5-43.329 0-46.736-30.615-79.736-30.616-33-77.459-33-21.926 0-40.541 9-18.616 9-33.98 24.157l-28.328 27.766q-3.425 3.461-7.706 5.192-4.281 1.731-10.371 1.731-6.601 0-11.678-2.5-5.076-2.5-9.707-6.731l-25.457-26.037Q418-687.769 399.216-696.269q-18.785-8.5-40.941-8.5-46.044 0-77.16 33.266Q250-638.237 250-591.273q0 22.504 7.515 43.061T281-511.769Zm199.769-1Z"/></svg>