<svg xmlns="http://www.w3.org/2000/svg" height="20" viewBox="0 -960 960 960" width="20"><path d="M613.001-397.001q35.917 0 58.198-22.28 22.28-22.281 22.28-58.198v-175.043q0-35.918-22.28-58.198-22.281-22.281-58.198-22.281h-96q-35.918 0-58.199 22.281-22.28 22.28-22.28 58.198v46.999q0 35.918 22.28 58.481 22.281 22.563 58.199 22.563h96v47h-88.522q-16.982 0-28.469 11.43-11.488 11.429-11.488 28.326 0 16.896 11.65 28.809t28.872 11.913h87.957Zm0-208.522h-96v-46.999h96v46.999ZM331.784-233.782q-41.005 0-69.504-28.498-28.498-28.499-28.498-69.504v-466.434q0-41.005 28.498-69.503 28.499-28.498 69.504-28.498h466.434q41.005 0 69.503 28.498 28.498 28.498 28.498 69.503v466.434q0 41.005-28.498 69.504-28.498 28.498-69.503 28.498H331.784Zm0-98.002h466.434v-466.434H331.784v466.434ZM161.782-63.781q-41.005 0-69.503-28.498-28.498-28.498-28.498-69.503v-515.435q0-20.387 14.246-34.694 14.246-14.307 34.544-14.307 20.298 0 34.755 14.307 14.456 14.307 14.456 34.694v515.435h515.435q20.387 0 34.694 14.246 14.307 14.246 14.307 34.544 0 20.298-14.307 34.754-14.307 14.457-34.694 14.457H161.782Zm170.002-734.437v466.434-466.434Z"/></svg>