<svg xmlns="http://www.w3.org/2000/svg" height="24" viewBox="0 -960 960 960" width="24"><path d="M613.001-373.001q39.217 0 63.848-24.63 24.63-24.631 24.63-63.848v-223.043q0-39.218-24.63-63.848-24.631-24.631-63.848-24.631h-80q-39.218 0-63.849 24.631-24.63 24.63-24.63 63.848v66.999q0 39.218 24.63 64.131 24.631 24.913 63.849 24.913h80v67h-84.522q-18.696 0-31.327 12.63-12.63 12.631-12.63 31.326 0 18.696 12.913 31.609t31.609 12.913h83.957Zm0-244.522h-80v-66.999h80v66.999ZM339.784-233.782q-44.305 0-75.154-30.848-30.848-30.849-30.848-75.154v-466.434q0-44.305 30.848-75.153 30.849-30.848 75.154-30.848h466.434q44.305 0 75.153 30.848 30.848 30.848 30.848 75.153v466.434q0 44.305-30.848 75.154-30.848 30.848-75.153 30.848H339.784ZM153.782-47.781q-44.305 0-75.153-30.848-30.848-30.848-30.848-75.153v-519.435q0-22.087 15.457-37.544 15.456-15.457 37.544-15.457 22.087 0 37.544 15.457 15.456 15.457 15.456 37.544v519.435h519.435q22.087 0 37.544 15.456 15.457 15.457 15.457 37.544 0 22.088-15.457 37.544-15.457 15.457-37.544 15.457H153.782Z"/></svg>