<svg xmlns="http://www.w3.org/2000/svg" height="20" viewBox="0 -960 960 960" width="20"><path d="M480.118-122Q441-122 413.5-149.382q-27.5-27.383-27.5-66.5Q386-255 413.382-282.5q27.383-27.5 66.5-27.5Q519-310 546.5-282.618q27.5 27.383 27.5 66.5Q574-177 546.618-149.5q-27.383 27.5-66.5 27.5ZM470-447v-344q0-4.25 2.825-7.125 2.824-2.875 7-2.875 4.175 0 7.175 2.875t3 7.125v345l124-125q3.75-5 7.542-5 3.791 0 7.458 4.783 4 3.884 4 7.05 0 3.167-4 7.167L498-426q-7.636 8-17.818 8Q470-418 462-426L330.858-557.142q-3.525-3.608-2.691-7.233Q329-568 332-571q4-5 7.5-4.5t7.5 4.5l123 124Z"/></svg>