<svg xmlns="http://www.w3.org/2000/svg" height="20" viewBox="0 -960 960 960" width="20"><path d="M560.615-561.231v-173.538l41.847 21.538 6.153-69.538q0-26.623 18.424-44.696 18.423-18.074 44.841-18.074 26.419 0 44.347 18.074 17.927 18.073 17.927 44.696L728-713.231l54.154-21.538v173.538H560.615Zm68.616-152h72l6.154-69.538q0-15.3-10.29-25.65-10.289-10.35-25.5-10.35-15.21 0-25.71 10.35t-10.5 25.65l-6.154 69.538ZM738-184q-93.077 0-191.231-46.769T363.461-363.077q-85.154-85.538-132.307-184.846Q184-647.231 184-739v-38h162.539l34.923 132.308-110.847 103.384q28.385 47.462 57.193 86.693 28.807 39.23 59.027 69.752 30.627 32.632 69.396 60.824 38.769 28.193 91.307 58.577L656-374.769l120 25.23V-184h-38Z"/></svg>