<svg xmlns="http://www.w3.org/2000/svg" height="20" viewBox="0 -960 960 960" width="20"><path d="M575.435-547.478v-199.348L624-751.348l-.565-45.739q0-33.664 24.321-57.637 24.321-23.972 57.779-23.972 33.457 0 57.288 23.972 23.83 23.973 23.83 57.637l.565 45.739 47.435 4.522v199.348H575.435Zm97.566-207.262h65.217l-.566-48.565q0-13.859-9.314-23.233-9.314-9.375-23.084-9.375-13.769 0-23.294 9.375-9.525 9.374-9.525 23.233l.566 48.565Zm92.738 629.958q-110 0-225.674-53.261T326.999-327.847q-97.391-96.544-149.804-210.522-52.413-113.979-52.413-227.805v-70.044H388.74l46.479 196.001L302.392-517.13q20.174 33.348 43.565 63.543 23.391 30.196 50.015 56.352 24.724 24.626 52.354 46.452 27.63 21.826 60.717 42.869l134.131-128.87 192.044 43.348v268.654h-69.479Z"/></svg>