<svg xmlns="http://www.w3.org/2000/svg" height="20" viewBox="0 -960 960 960" width="20"><path d="M504-501Zm48 230.217q97.174 0 165.195-68.587 68.022-68.587 68.022-165.76 0-97.174-68.304-164.631Q648.609-737.217 552-737.217q-50.522 0-99.652 11.935-49.13 11.934-93.869 38.673L489-632q41 17 64 51.891 23 34.892 23 78.138Q576-443 534.5-401.5 493-360 434-360H174.218q1.13 21.739.848 43.478-.283 21.739-.283 45.739H552ZM185.783-432h248.396Q463-432 483.5-452.06q20.5-20.06 20.5-49.338Q504-522 492.5-539.5 481-557 461-565l-166.087-69.609q-44 41.566-68.5 94.435-24.5 52.87-40.63 108.174ZM552-172.782H76.782v-170.001q0-105.565 35.478-196.326t99.087-156.522q63.609-65.761 150.718-102.674Q449.174-835.218 552-835.218q68.957 0 128.913 26.07 59.956 26.071 104.924 71.027 44.967 44.956 71.174 105.463 26.207 60.507 26.207 129.788-.565 68.246-26.713 128.338t-71.239 105.008q-45.092 44.916-104.7 70.829Q620.957-172.782 552-172.782Z"/></svg>