<svg xmlns="http://www.w3.org/2000/svg" height="24" viewBox="0 -960 960 960" width="24"><path d="M862.479-514.609v420.61H99.521v-417.783q-23.566-25.522-34.087-61.348-10.522-35.827 1.478-75.957l64.957-210.131h698.262l64.957 210.131q12 39 1.196 73.543-10.805 34.544-33.805 60.935ZM569-566.783q23.609 0 35.913-15.956 12.304-15.957 9.304-36.131l-21.435-134.347h-64.999V-612q0 18.739 12.022 31.978 12.021 13.239 29.195 13.239Zm-180 0q19.609 0 32.413-13.239 12.804-13.239 12.804-31.978v-141.217h-64.999L347.783-618.87q-2.87 20.044 8.804 36.065 11.674 16.022 32.413 16.022Zm-178 0q15.739 0 27.261-11.869 11.521-11.87 13.956-28.478l20.87-146.087h-65l-38.304 128.913q-5.435 18.304 4.804 37.913 10.239 19.608 36.413 19.608Zm540 0q26.174 0 36.63-19.608 10.457-19.609 4.587-37.913l-40.304-128.913h-63l20.87 146.087q2.435 16.608 13.956 28.478 11.522 11.869 27.261 11.869Z"/></svg>