<svg xmlns="http://www.w3.org/2000/svg" height="24" viewBox="0 -960 960 960" width="24"><path d="M522.63-516.413v-87.174h211.001v87.174H522.63Zm0-167.174V-771h331.001v87.413H522.63ZM312.605-111.869q-86.366 0-147.138-60.879Q104.695-233.626 104.695-320q0-48.717 21-91.174 21-42.456 59-72.413V-720q0-53.388 37.314-90.759 37.314-37.372 90.62-37.372 53.306 0 90.697 37.372 37.391 37.371 37.391 90.759v236.413q38 29.957 59 72.413 21 42.457 21 91.174 0 86.374-60.872 147.252-60.873 60.879-147.24 60.879ZM195.696-320h234.021q0-29.957-13.337-55.554-13.337-25.598-37.293-42.359l-29.37-21.37V-720q0-15.565-10.782-26.348-10.783-10.782-26.348-10.782t-26.228 10.782Q275.696-735.565 275.696-720v280.717l-29.131 21.37q-24.195 17-37.532 42.605-13.337 25.606-13.337 55.308Z"/></svg>