<svg xmlns="http://www.w3.org/2000/svg" height="24" viewBox="0 -960 960 960" width="24"><path d="M280-360q50 0 85-35t35-85q0-50-35-85t-85-35q-50 0-85 35t-35 85q0 50 35 85t85 35Zm0 137.523q-106.783 0-182.153-75.37-75.37-75.37-75.37-182.153 0-107.348 75.088-182.435Q172.652-737.523 280-737.523q84.957 0 150.544 47.979 65.587 47.978 90.152 121.065h333.305l89.174 86.914L790.74-317.043l-97.739-84.087-85.653 85.652-75.478-76.043h-10.608q-27.261 77.087-93.783 123.065Q360.957-222.477 280-222.477Z"/></svg>