<svg xmlns="http://www.w3.org/2000/svg" height="20" viewBox="0 -960 960 960" width="20"><path d="M288-375.521q-43.391 0-73.935-30.544-30.544-30.544-30.544-73.935 0-43.391 30.544-73.935 30.544-30.544 73.935-30.544 43.391 0 73.935 30.544 30.544 30.544 30.544 73.935 0 43.391-30.544 73.935-30.544 30.544-73.935 30.544Zm0 153.044q-106.783 0-182.153-75.37-75.37-75.37-75.37-182.153 0-106.783 75.37-182.153 75.37-75.37 182.153-75.37 71.218 0 130.457 35.892 59.239 35.891 92.239 93.152H851.87L980.914-480l-191.87 179.87-84.565-61.13-71.435 59.434-98.826-73.695h-11.522q-23.434 69.695-89.456 111.37-66.022 41.674-145.24 41.674ZM288-312q65.261 0 113.826-42.196 48.565-42.195 53.87-110.283h107.609l67.174 49.739 71-59 80.434 56.87 72.957-61.869-39.218-40.782H450.13q-15.608-56.392-60.521-92.435Q344.696-648 288-648q-70 0-119 49t-49 119q0 70 49 119t119 49Z"/></svg>