<svg xmlns="http://www.w3.org/2000/svg" height="20" viewBox="0 -960 960 960" width="20"><path d="M480-305.692q-10.846 0-17.731-6.885-6.884-6.884-6.884-17.731 0-10.846 6.884-17.731 6.885-6.884 17.731-6.884 10.846 0 17.731 6.884 6.884 6.885 6.884 17.731 0 10.847-6.884 17.731-6.885 6.885-17.731 6.885ZM397.385-583q-6.154-3.462-6.347-9.462-.192-6 2.731-12.153 13.692-22.693 37-34.654 23.308-11.962 49.231-11.962 42.385 0 70.039 24.808 27.653 24.808 27.653 65.192 0 25.923-18.461 46.5-18.462 20.577-36.923 41.039-9.539 9.538-15.308 21.73-5.769 12.193-8.538 25.5-1.231 7.385-6.154 11.539T480-410.769q-5.615 0-10.654-4.539-5.038-4.538-5.038-10.154 0-16.461 7.23-31.692 7.231-15.231 19.693-28.231 17.769-16.769 35.423-33.423 17.654-16.654 17.654-41.961 0-24.616-18.962-41.577-18.961-16.962-45.346-16.962-17.846 0-32.654 8.039-14.807 8.038-24.346 22.115-4.923 5.385-12.077 8-7.154 2.616-13.538-1.846ZM288.615-88Q264-88 248-104q-16-16-16-40.615v-670.77Q232-840 248-856q16-16 40.615-16h382.77Q696-872 712-856q16 16 16 40.615v670.77Q728-120 712-104q-16 16-40.615 16h-382.77ZM264-220h432v-520H264v520Z"/></svg>