<svg xmlns="http://www.w3.org/2000/svg" height="24" viewBox="0 -960 960 960" width="24"><path d="m276.846-580 137.539 137.538q6.615 6.616 6.5 14.154-.116 7.539-6.5 14.154-6.616 6.616-14.539 6.347-7.923-.27-13.769-6.116L222.615-577.385q-5.231-5.23-7.346-10.692-2.115-5.461-2.115-11.923t2.115-11.923q2.115-5.462 7.346-10.692l163-163.001q6.616-6.615 14.27-6.615t14.269 6.615q6.615 6.616 6.231 14.539-.385 7.923-6.231 13.769L276.846-620h378.539q26.846 0 45.731 18.885Q720-582.231 720-555.385V-220q0 8.539-5.731 14.269Q708.539-200 700-200q-8.538 0-14.269-5.731Q680-211.461 680-220v-335.385q0-10.769-6.923-17.692T655.385-580H276.846Z"/></svg>