<svg xmlns="http://www.w3.org/2000/svg" height="20" viewBox="0 -960 960 960" width="20"><path d="M480-78.477q-82.391 0-155.5-31.131-73.109-31.13-128.435-86.457-55.327-55.326-86.457-128.435-31.13-73.109-31.13-155.5 0-83.391 31.13-156t86.457-127.935q55.326-55.327 128.435-86.457 73.109-31.131 155.5-31.131 83.391 0 156 31.131 72.609 31.13 127.935 86.457Q819.262-708.609 850.392-636q31.131 72.609 31.131 156 0 82.391-31.131 155.5-31.13 73.109-86.457 128.435Q708.609-140.738 636-109.608q-72.609 31.13-156 31.13ZM176.479-480q0 106.999 68.76 185.39 68.76 78.391 170.238 93.521-64.261-51.043-100.108-122.651-35.848-71.608-35.848-151.173 0-84.652 36.891-159.499 36.892-74.848 109.239-129.021-105.999 13.434-177.586 93.803-71.586 80.37-71.586 189.63Zm421 279.477q71.043-28 117.021-88.695 45.977-60.695 56.977-136.737L561.479-215.523l36 15ZM475.87-245.348 775.521-543.87q-3.434-16.173-9.152-32.13-5.717-15.956-12.021-28.13L438.479-287.261q9.304 11.304 17.478 22.174 8.173 10.869 19.913 19.739Zm-78.522-116.218 314.173-313.173q-7.434-11.739-2.021-3.043 5.413 8.695 7.109 10.391L403.001-354.218q-1.131-1.695-2.544-3.674-1.413-1.978-3.109-3.674Zm6.783-7.348 306.26-304.695q2.261 1.696-13.043-15.891-15.305-17.587-27.044-25.456L384.523-429.174q3.434 16.173 8.087 29.847 4.652 13.674 11.521 30.413Zm-13.999-180.87 207.563-206.998q-4.043-2.87-8.304-5.522t-8.304-5.652q-76.695 22.913-127.76 82.39-51.065 59.478-63.195 135.782Zm-122.481 96.351Z"/></svg>