<svg xmlns="http://www.w3.org/2000/svg" height="20" viewBox="0 -960 960 960" width="20"><path d="M125-192q-12.75 0-22.375-9.625T93-224v-98q0-23.1 14.088-39.55Q121.175-378 142-378h111q13 0 25.5 6.5T301-351q29 44 76.459 68.5Q424.917-258 480-258q53.119 0 101.06-24Q629-306 661-351q8.188-13.541 20.381-20.27Q693.574-378 707-378h111q21.825 0 35.912 16.45Q868-345.1 868-322v98q0 12.75-9.625 22.375T836-192H668q-12.75 0-22.375-9.625T636-224v-58q-33 26-73.018 41t-83.494 15q-42.488 0-81.287-14.058Q359.402-254.115 325-280v56q0 12.75-9.625 22.375T293-192H125Zm354.96-150q-32.96 0-61.976-14.879Q388.967-371.758 370-400q-13-17-31.5-31T300-453q32-22 83.759-32.5Q435.517-496 480.5-496t96.741 10.5Q629-475 662-453q-22 8-39.286 21.5-17.285 13.5-30.472 31.5-19.476 28.121-48.966 43.061Q513.786-342 479.96-342ZM192-456q-40 0-68-28t-28-68q0-40 28-68t68-28q40 0 68 28t28 68q0 40-28 68t-68 28Zm576 0q-40 0-68-28t-28-68q0-40 28-68t68-28q40 0 68 28t28 68q0 40-28 68t-68 28ZM480-576q-40 0-68-28t-28-68q0-40 28-68t68-28q40 0 68 28t28 68q0 40-28 68t-68 28Z"/></svg>