<svg xmlns="http://www.w3.org/2000/svg" height="20" viewBox="0 -960 960 960" width="20"><path d="M480-122.999q-57.435 0-107-28.239t-80.261-76.412l-91.261 51.695-49.001-84.61 100.392-57.261q-2.435-7.119-3.304-13.586-.87-6.467-2.305-13.587H130.999V-443h116.636q1.31-7.358 2.055-13.961.744-6.604 3.179-14.212l-100.392-57.261 49.001-84.61 92.218 51.696q6.478-11.174 13.999-20.065 7.522-8.891 16.826-18.196-3.695-10.446-5.109-20.892-1.413-10.446-1.413-21.458 0-21.685 5.652-41.233 5.653-19.548 16.522-37.206l-64.261-63.603L345-853.089l67.826 65.827q16.435-6.87 33.087-10.805 16.652-3.934 34.087-3.934 17.435 0 34.551 3.889 17.115 3.889 32.623 11.284L615-853.654l69.088 69.653-64.261 62.826q10.869 17.435 15.522 38.087 4.652 20.653 4.652 40.991 0 10.618-1.131 21.148-1.13 10.53-4.826 20.695 9.304 8.95 17.043 18.341 7.739 9.391 14.143 20.565l92.292-50.696 49.001 84.61-100.392 56.261q2.435 7.285 3.804 14.207 1.37 6.923 1.805 13.966h117.261v98.001H711.74q-.435 7.044-1.305 13.966-.869 6.922-3.304 14.207l99.392 57.261-49.001 84.61-91.261-52.695q-30.696 46.608-79.761 75.63-49.065 29.021-106.5 29.021Zm-62.695-531.958q16.304-4.739 31.708-7.391t31-2.652q15.596 0 30.867 2.435 15.272 2.435 30.38 7.174-5.739-21.305-22.306-34.957Q502.386-704 480-704q-23.174 0-40.065 13.37-16.891 13.369-22.63 35.673ZM479.76-221q63.588 0 100.913-52.773 37.326-52.774 37.326-120.226 0-67.348-37.326-120.174-37.325-52.826-101.112-52.826-63.474 0-101.017 53.109-37.543 53.108-37.543 119.891 0 67.452 37.585 120.226Q416.172-221 479.76-221Zm-48.761-86.478v-175.043h98.002v175.043h-98.002Z"/></svg>