<svg xmlns="http://www.w3.org/2000/svg" height="24" viewBox="0 -960 960 960" width="24"><path d="M480-159.231q-58.615 0-102.962-33-44.346-33-69.423-84.692l-82.692 47.077-20-35.154 86.846-50q-4.538-13.308-6.923-27.885-2.385-14.576-4.385-29.423H174.615v-40h105.077q.462-18.923 3.615-37.346 3.154-18.423 8.462-35.577L204.154-536l20-34.385 82.461 48.077q7.231-14.769 16.193-28.269 8.961-13.5 19.192-25.269-1.231-5.462-1.616-10.923-.384-5.462-.384-10.924 0-25.538 8.538-48.307 8.539-22.769 23.616-41l-48.308-48.308 27.539-28.539 51.538 49.539q17-11.308 36.269-17.346 19.27-6.039 40.808-6.039t41.308 6.539q19.769 6.538 36.769 17.846l50.538-50.539 27.539 28.539-49.077 49.077q15.077 18.231 23.5 40.615Q619-623.231 619-597.693v10.424q0 4.961-1.231 10.423 10.231 11.769 18.808 25.384 8.577 13.616 15.808 28.385l81.923-47.077 20 34.385L667.231-486q5.308 15.615 8.577 32.115t4.5 33.885h105.077v40H680.308q-1.231 17.385-4.385 33.5t-7.692 31.731L755.846-264l-20 34.385-82.692-48.077Q628.077-226 583.346-192.615 538.615-159.231 480-159.231Zm-99.077-449.077q20.846-15.462 45.731-23.962 24.885-8.499 53.346-8.499 27.692 0 52.346 8.384Q557-624 577.846-609.308q-3.385-37.615-31.461-63-28.077-25.384-66.385-25.384-39.077 0-67.384 25.884-28.308 25.885-31.693 63.5ZM480-199.231q73 0 116.885-61.384Q640.769-322 640.769-400q0-70-40.884-135.385Q559-600.769 480-600.769q-78.769 0-119.769 64.884-41 64.885-41 135.885 0 78 43.884 139.385Q407-199.231 480-199.231ZM460-300v-180.769h40V-300h-40Z"/></svg>