<svg xmlns="http://www.w3.org/2000/svg" height="20" viewBox="0 -960 960 960" width="20"><path d="M61.52-61.52h820.003L617.782-381.174 420.695-482.826 327.521-624H61.52v562.48Zm88.957-88.957v-62.348l69 35 352.957-117.13 120.043 144.478h-542Zm75-123.436-75-37v-82.913l69 35 154.044-47.304 97.521 50.739-245.565 81.478Zm501.871-99.913 202.175-100.522v-156.435l-202.74-50.826L624-604.522v129.044l103.348 101.652Zm-501.871-81.087-75-37v-42.564h130l33.739 52.651-88.739 26.913Zm518.697-27.261-30.651-32.348v-44.956l33.217-24.913L840-561.217v30.565l-95.826 48.478ZM483.957-614.956l196.522-97.696V-910.87l-197.088-49.695L336-861.739v147.957l147.957 98.826Zm6.13-98.696-69.086-44.913v-58.391l78.217-52.478 96.26 24.739v77.999l-105.391 53.044Z"/></svg>