<svg xmlns="http://www.w3.org/2000/svg" height="24" viewBox="0 -960 960 960" width="24"><path d="M45.52-45.52h852.003L633.782-397.174l-205.087-85.652L311.521-640H45.52v594.48Zm96.957-96.957v-58.348l80 26 364.957-121.13 115.043 153.478h-560Zm80-134.436-80-27v-69.913l80 26 154.044-50.304 87.521 40.739-241.565 80.478Zm524.871-112.913 190.175-84.522v-172.435l-190.74-42.826L640-604.522v129.044l107.348 85.652Zm-524.871-60.087-80-27v-65.564h120l49.739 62.651-89.739 29.913Zm539.697-53.261-24.651-19.348v-34.956l33.217-26.913L840-569.217v31.565l-77.826 34.478ZM483.957-630.956l204.522-81.696V-918.87l-205.088-41.695L360-877.739v163.957l123.957 82.826Zm10.13-104.696-41.086-27.913v-64.391l50.217-33.478 92.26 18.739v66.999l-101.391 40.044Z"/></svg>