<svg xmlns="http://www.w3.org/2000/svg" height="20" viewBox="0 -960 960 960" width="20"><path d="M288.332-136Q264-136 248-152.15t-16-40.465v-574.77q0-24.315 16.15-40.465Q264.3-824 288.615-824h283.539q10.923 0 22.115 4.231 11.192 4.23 18.885 12.923l97.692 97.692q8.693 7.693 12.923 18.885Q728-679.077 728-668.154v475.539q0 24.315-16.162 40.465Q695.676-136 671.344-136H288.332ZM568-692.307q0 12.223 8.042 20.265T596.307-664H696L568-792v99.693Zm-127.385 361.23q15.803 0 30.056-5.038 14.252-5.039 28.021-13.577l87.616 86.615q5.615 5.616 10.769 6 5.154.385 11.538-6Q615-269.461 615-274.231q0-4.769-6.385-11.154L522-373q10.077-13 14.346-27.307 4.27-14.307 4.27-29.77 0-42.814-28.347-72.407-28.346-29.593-71.654-29.593-43.307 0-71.653 29.462-28.347 29.463-28.347 72.154 0 42.692 29.014 71.038 29.013 28.346 70.986 28.346Zm0-32q-27.692 0-47.846-19.862-20.153-19.862-20.153-47.138 0-28.109 20.153-48.554 20.154-20.446 47.846-20.446 27.693 0 47.847 20.446 20.153 20.445 20.153 48.554 0 27.276-20.153 47.138-20.154 19.862-47.847 19.862Z"/></svg>