<svg xmlns="http://www.w3.org/2000/svg" height="20" viewBox="0 -960 960 960" width="20"><path d="M444-288q14.264 0 28.132-3.5Q486-295 499-302l63 62q11 11 25 11t25-11q11-11 11-25t-11-25l-62-63q7-13 10.5-26.538Q564-393.075 564-407q0-51.275-34.5-86.638Q495-529 444-529t-85.5 35.616q-34.5 35.616-34.5 86t34.783 84.884Q393.565-288 444-288Zm0-72q-20 0-34-13.708-14-13.709-14-33.292 0-20.417 14-34.708Q424-456 444-456t34 14.292q14 14.291 14 34.708 0 19.583-14 33.292Q464-360 444-360ZM275.717-62Q226-62 192-96.15T158-180v-600q0-49.7 34.15-83.85Q226.3-898 276-898h265q23.467 0 44.733 8.5Q607-881 625-863l142 142q18 18 26.5 39.267Q802-660.467 802-637v457q0 49.7-34.162 83.85Q733.676-62 683.96-62H275.717ZM516-671v-109H276v600h408v-432H575q-24.3 0-41.65-17.35Q516-646.7 516-671ZM276-780v168-168 600-600Z"/></svg>