<svg xmlns="http://www.w3.org/2000/svg" height="20" viewBox="0 -960 960 960" width="20"><path d="M307-119v-61q-96-47-151-137.5T101-517q0-79 29.6-147.633 29.6-68.634 80.867-120.4 51.266-51.767 120.4-81.367Q401-896 480-896q79 0 147.671 29.6 68.67 29.6 120.085 81.367 51.415 51.766 81.329 120.4Q859-596 859-517q0 108-54.5 199.5T653-179v60q0 24.3-17.289 41.65Q618.421-60 594.211-60 570-60 552.5-77.35T535-119v-24q-14 2-28 3.5t-27 1.5q-14.414 0-28.207-1.5Q438-141 425-143v24q0 24.3-17.289 41.65Q390.421-60 366.211-60 342-60 324.5-77.35T307-119Zm104.96-463h135.757Q571-582 587.5-598.289q16.5-16.29 16.5-39.5Q604-661 587.662-677.5 571.323-694 548.04-694H412.283Q389-694 372.5-677.711q-16.5 16.29-16.5 39.5Q356-615 372.338-598.5 388.677-582 411.96-582ZM419-385l-3 3q-15 14.787-15 35.394Q401-326 417.833-309q14.834 15 37.5 15Q478-294 493-309l54-54q18-17.636 18-41.818T547-447l-6-6 3-3q15-14.787 15-35.394Q559-512 542.167-529q-14.834-15-37.5-15Q482-544 467-529l-54 54q-18 17.636-18 41.818T413-391l6 6Z"/></svg>