<svg xmlns="http://www.w3.org/2000/svg" height="20" viewBox="0 -960 960 960" width="20"><path d="M480-288.308q-29.615 0-50.654-21.038-21.038-21.039-21.038-50.654 0-29.615 21.038-50.654 21.039-21.038 50.654-21.038 29.615 0 50.654 21.038 21.038 21.039 21.038 50.654 0 29.615-21.038 50.654-21.039 21.038-50.654 21.038ZM380-20v-152q-73.923-23.615-118.654-82.654Q216.615-313.692 212.769-388h32q4.616 80.769 65.231 136.384Q370.615-196 456-196h48q85.385 0 146-55.616Q710.615-307.231 715.231-388h32q-3.846 74.308-48.577 133.346Q653.923-195.615 580-172v152H380ZM203.538-460.615l-93.153-177.539q-18.231 9.077-20.116 7.923-1.884-1.153-8.269-1.153-7.77 0-10.885-2.231T68-646.385V-793q0-60.231 115.269-103.615Q298.538-940 480-940t296.731 43.385Q892-853.231 892-793v146.615q0 10.539-3.115 12.77-3.116 2.231-10.885 2.231-6.385 0-15.769-3.347-9.385-3.346-27.616-12.423l-78.153 186.539h-43.539l-72.769-243.077q-39.693-5.769-81.539-9.039Q516.769-716 480-716t-78.615 3.269q-41.846 3.27-81.539 9.039l-72.769 243.077h-43.539ZM227-466.231l62.231-232.307q-34.462 6.538-72.539 17.423-38.077 10.884-69.846 23.5L227-466.231Zm507 .769 79.154-192.153q-32.539-11.846-70.231-23.116-37.692-11.269-72.154-17.807L734-465.462Z"/></svg>