<svg xmlns="http://www.w3.org/2000/svg" height="24" viewBox="0 -960 960 960" width="24"><path d="M252.435-253.999q-45.217 0-77.696-26.456-32.478-26.457-43.913-62.022H26.434v-515.046H652.87l208.609 251.305v108.61q31.609 14.826 51.283 46.609 19.673 31.783 19.673 68.522 0 53.956-37.261 91.217-37.261 37.261-91.217 37.261-45.218 0-78.414-26.739-33.195-26.739-44.249-61.739H375.479q-12.304 36.695-45.63 62.587-33.326 25.891-77.414 25.891ZM132.435-640h151.522v-111.521H132.435V-640Zm231.522 191.521h200v-303.042h-200V-640h120v80h-120v111.521Zm280-151.521h84.695l-84.695-101.869V-600ZM252.435-342.477q17 0 28.5-11.5t11.5-28.5q0-17-11.5-28.5t-28.5-11.5q-17 0-28.5 11.5t-11.5 28.5q0 17 11.5 28.5t28.5 11.5Zm551.522 0q17 0 28.5-11.5t11.5-28.5q0-17-11.5-28.5t-28.5-11.5q-17 0-28.5 11.5t-11.5 28.5q0 17 11.5 28.5t28.5 11.5ZM526.783-34.913 274.348-161.13h167.913v-83.957l251.87 126.217H526.783v83.957ZM132.435-560v111.521h13.349q15.695-27.651 43.437-45.347 27.742-17.695 63.214-17.695 8.794 0 16.788.934 7.995.935 14.734 2.805V-560H132.435Zm511.522 120h46q10.13-20.913 27.087-37.304Q734-493.695 755.478-502.13V-520H643.957v80ZM132.435-560h151.522-151.522Zm511.522 40h111.521-111.521Z"/></svg>