<svg xmlns="http://www.w3.org/2000/svg" height="24" viewBox="0 -960 960 960" width="24"><path d="M243.846-287.693q-39.769 0-68.923-24.038-29.153-24.039-38.461-59.039H66.156v-449.229h575.613l182.845 228.461v87.539q30.385 12 49.807 39.846 19.423 27.846 19.423 64.153 0 46.538-32.884 79.423-32.885 32.884-79.423 32.884-39.769 0-69.346-23.846-29.577-23.846-39.269-59.231H352.461q-10.538 35-39.499 59.039-28.962 24.038-69.116 24.038ZM126.154-629.999h170.001V-760H126.154v130.001Zm230 200.769h219.232V-760H356.154v130.001h130v59.998h-130v140.771Zm279.23-160.769h112.925L635.384-732.924v142.925ZM243.846-347.691q22.001 0 37.155-15.155Q296.155-378 296.155-400q0-22-15.154-37.154-15.154-15.155-37.155-15.155-22 0-37.154 15.155Q191.538-422 191.538-400q0 22 15.154 37.154 15.154 15.155 37.154 15.155Zm537.691 0q22 0 37.155-15.155Q833.846-378 833.846-400q0-22-15.154-37.154-15.155-15.155-37.155-15.155t-37.154 15.155Q729.229-422 729.229-400q0 22 15.154 37.154 15.154 15.155 37.154 15.155ZM523.077-46.924 300.771-158.46h147.691v-74.615l222.307 111.537H523.077v74.615Z"/></svg>