<svg xmlns="http://www.w3.org/2000/svg" height="20" viewBox="0 -960 960 960" width="20"><path d="M267.846-247.693q-52.769 0-87.423-36.538-34.653-36.539-27.961-86.539H74.156v-425.229h550.613l175.845 228.461v99.539q37.385 6 61.307 36.934 23.923 30.934 23.923 71.065 0 47.538-32.384 79.923-32.385 32.384-79.923 32.384-50.769 0-83.846-36.346-33.077-36.346-30.769-86.731H382.461q3.462 50-29.999 86.539-33.462 36.538-84.616 36.538ZM126.154-565.999h190.001V-744H126.154v178.001Zm242 144.769h199.232V-744H368.154v178.001h118v51.998h-118v92.771Zm251.23-144.769h116.925L619.384-717.924v151.925ZM267.846-299.691q25.401 0 42.855-18.155Q328.155-336 328.155-360q0-24-17.454-42.154-17.454-18.155-42.855-18.155-25.4 0-42.854 18.155Q207.538-384 207.538-360q0 24 17.454 42.154 17.454 18.155 42.854 18.155Zm505.691 0q25.401 0 42.855-18.155Q833.846-336 833.846-360q0-24-17.454-42.154-17.454-18.155-42.855-18.155-25.4 0-42.854 18.155Q713.229-384 713.229-360q0 24 17.454 42.154 17.454 18.155 42.854 18.155ZM531.077-30.924 308.771-142.46h131.691v-90.615l222.307 111.537H531.077v90.615Z"/></svg>