<svg xmlns="http://www.w3.org/2000/svg" height="24" viewBox="0 -960 960 960" width="24"><path d="M160-429.231v-40h512.308q36.846 0 62.269-25.423Q760-520.077 760-556.923q0-36.846-25.423-62.269-25.423-25.423-62.269-25.423H196.077l87.077 86.076L254.615-530 120-664.615l134.615-134.616 28.539 27.539-87.077 87.076h476.231q52.673 0 90.183 37.562Q800-609.492 800-556.746q0 52.746-37.509 90.131-37.51 37.384-90.183 37.384H160ZM160-120v-198.462h640V-120H160Zm40-40h159.923v-118.461H200V-160Zm199.923 0h159.154v-118.461H399.923V-160Zm200.154 0H760v-118.461H600.077V-160Z"/></svg>