<svg xmlns="http://www.w3.org/2000/svg" height="20" viewBox="0 -960 960 960" width="20"><path d="M480.5-553Q406-553 354-604.987 302-656.975 302-731q0-75 51.987-126Q405.975-908 480-908q75 0 126.5 51T658-731.5q0 74.5-51.5 126.5t-126 52Zm-.288-118Q506-671 523-688.687q17-17.688 17-42.525Q540-757 522.788-773.5q-17.213-16.5-42.5-16.5Q455-790 437.5-773.288q-17.5 16.713-17.5 42Q420-706 437.687-688.5q17.688 17.5 42.525 17.5ZM158-50v-276q0-36.78 17-64.89T224-436q57-33 123-51t133-18q67 0 132.3 17.081Q677.6-470.839 736-437q32 17 49 45.61T802-326v158q0 49.7-34.15 83.85Q733.7-50 684-50H434q-54.782 0-92.891-38.076Q303-126.15 303-180.885q0-54.733 38.109-92.924Q379.218-312 434-312h81l34-69q-15-3-31.5-4.5t-37.563-1.5Q432-387 383-374.5T287-337q-7 5-9 13.233-2 8.234-2 16.767v257H158Zm276-103h-4l29-56h-25q-11.8 0-19.9 8.143-8.1 8.143-8.1 20T414.1-161q8.1 8 19.9 8Zm122-15h128v-139q0-8.533-1.5-16.767-1.5-8.233-9.643-13.688Q666-343 659.5-345.5 653-348 649-350l-93 182Zm-76-563Zm9 454Z"/></svg>