<svg xmlns="http://www.w3.org/2000/svg" height="24" viewBox="0 -960 960 960" width="24"><path d="M394.232-250.001h59.998v-277.306l-78.615-157.23-53.921 27.153 72.538 144.691v262.692Zm111.538 0h59.998v-262.692l72.538-144.691-53.921-27.153-78.615 157.23v277.306Zm152.152-190.077L729.075-582l-53.922-27.153L604-466.847l53.922 26.769Zm-356.228-.385 53.921-27.153-71.153-141.922-53.922 26.769 71.154 142.306Zm178.373 340.462q-78.836 0-148.204-29.92-69.369-29.92-120.682-81.21-51.314-51.291-81.247-120.629-29.933-69.337-29.933-148.173t29.92-148.204q29.92-69.369 81.21-120.682 51.291-51.314 120.629-81.247 69.337-29.933 148.173-29.933t148.204 29.92q69.369 29.92 120.682 81.21 51.314 51.291 81.247 120.629 29.933 69.337 29.933 148.173t-29.92 148.204q-29.92 69.369-81.21 120.682-51.291 51.314-120.629 81.247-69.337 29.933-148.173 29.933ZM480-160q134 0 227-93t93-227q0-134-93-227t-227-93q-134 0-227 93t-93 227q0 134 93 227t227 93Zm0-320Z"/></svg>