<svg xmlns="http://www.w3.org/2000/svg" height="24" viewBox="0 -960 960 960" width="24"><path d="M460-184.77V-360q0-8.539 5.731-14.269Q471.461-380 480-380t14.269 5.731Q500-368.539 500-360l-.231 175 79.385-79.385q5.846-5.846 14-6.231 8.154-.384 14.769 6.231 6.616 6.616 6.616 14.385t-6.616 14.385L502.615-130.308q-9.692 9.693-22.615 9.693-12.923 0-22.615-9.693L351.846-235.846q-5.846-5.846-6.115-13.885-.27-8.038 6.346-14.654Q358.692-271 366.346-271t14.269 6.615L460-184.77ZM185-460l79.385 79.154q5.846 5.846 6.231 14 .384 8.154-6.231 14.769-6.616 6.616-14.385 6.616t-14.385-6.616L130.308-457.385q-9.693-9.692-9.693-22.615 0-12.923 9.693-22.615l105.307-105.308q5.846-5.846 13.885-6.231 8.039-.385 14.654 6.231 6.615 6.615 6.615 14.269t-6.615 14.269L184.77-500H360q8.539 0 14.269 5.731Q380-488.539 380-480t-5.731 14.269Q368.539-460 360-460H185Zm590.23 0H600q-8.539 0-14.269-5.731Q580-471.461 580-480t5.731-14.269Q591.461-500 600-500l175 .231-79.385-79.385q-5.846-5.846-6.23-14-.385-8.154 6.23-14.769 6.616-6.616 14.385-6.616t14.385 6.616l105.307 105.308q9.693 9.692 9.693 22.615 0 12.923-9.693 22.615L724.154-351.846q-5.846 5.846-13.769 6.115-7.924.27-14.539-6.346-6.615-6.615-6.615-14.269t6.615-14.269L775.23-460ZM460-775.23l-79.615 79.615q-5.846 5.846-13.77 6.23-7.923.385-14.538-6.23-6.616-6.616-6.616-14.27t6.616-14.269l105.308-105.538q9.692-9.693 22.615-9.693 12.923 0 22.615 9.693l105.539 105.538q5.846 5.846 6.231 13.769.384 7.924-6.231 14.539-6.615 6.615-14.269 6.615t-14.27-6.615L500-775.23V-600q0 8.539-5.731 14.269Q488.539-580 480-580t-14.269-5.731Q460-591.461 460-600v-175.23Z"/></svg>