<svg xmlns="http://www.w3.org/2000/svg" height="20" viewBox="0 -960 960 960" width="20"><path d="M430.999-248.696v-106.347q0-20.387 14.247-34.411 14.246-14.024 34.543-14.024 20.298 0 34.755 14.307 14.457 14.306 14.457 34.694v105.781l33.955-33.956q14.957-14.957 34.544-14.957 19.587 0 34.544 14.957 14.957 14.957 14.957 34.544 0 19.587-14.957 34.544L514.609-96.129q-14.593 14.957-34.427 14.957T445.391-96.13L327.956-213.564q-14.957-14.623-14.457-34.377.5-19.754 15.457-34.711 14.957-14.957 34.711-14.957 19.754 0 34.377 14.957l32.955 33.956ZM248.696-430.999l33.956 34.52q14.957 14.392 14.957 33.979t-14.957 34.544q-14.957 14.957-34.544 14.957-19.587 0-34.544-14.957L96.129-445.391q-14.957-14.593-14.957-34.427t14.957-34.791l117.435-117.435q14.623-14.957 34.377-14.957 19.754 0 34.711 14.957 14.957 14.957 14.957 34.711 0 19.754-14.957 34.377l-33.956 33.955h105.781q20.388 0 34.694 14.247 14.307 14.246 14.307 34.543 0 20.298-14.307 34.755-14.306 14.457-34.694 14.457H248.696Zm462.608 0H604.957q-20.387 0-34.411-14.247-14.024-14.246-14.024-34.543 0-20.298 14.307-34.755 14.306-14.457 34.694-14.457h105.781l-33.956-33.955q-14.957-14.957-14.957-34.544 0-19.587 14.957-34.544 14.957-14.957 34.544-14.957 19.587 0 34.544 14.957l117.435 117.435q14.957 14.593 14.957 34.427t-14.957 34.791L746.436-327.956q-14.593 14.957-33.862 14.457-19.269-.5-34.226-15.457t-14.957-34.711q0-19.754 14.957-34.377l32.956-32.955ZM430.999-711.304l-33.955 33.956q-14.866 14.957-34.499 14.957-19.632 0-34.589-14.957-14.957-14.957-14.957-34.711 0-19.754 14.957-34.377l117.435-117.435q14.593-14.957 34.427-14.957t34.791 14.957l117.435 117.435q14.957 14.593 14.957 33.862 0 19.269-14.957 34.226t-34.711 14.957q-19.754 0-34.377-14.957l-33.955-32.956v105.781q0 20.388-14.247 34.694-14.246 14.307-34.543 14.307-20.298 0-34.755-14.307-14.457-14.306-14.457-34.694v-105.781Z"/></svg>