<svg xmlns="http://www.w3.org/2000/svg" height="20" viewBox="0 -960 960 960" width="20"><path d="m726.783-559.608-62.87-62.87 52.478-53.043H530.826v-88.958h185.565l-52.478-54.043 62.87-61.87L887.175-720 726.783-559.608Zm38.956 434.826q-110 0-225.674-53.261T326.999-327.565q-97.391-96.826-149.804-210.804-52.413-113.979-52.413-227.805v-70.044H388.74l46.479 196.001L302.392-517.13q20.174 33.348 43.565 63.543 23.391 30.196 49.565 56.369 25.174 24.609 52.804 46.435 27.63 21.826 60.717 42.869l134.131-128.87 192.044 43.348v268.654h-69.479Z"/></svg>