<svg xmlns="http://www.w3.org/2000/svg" height="20" viewBox="0 -960 960 960" width="20"><path d="M738-184q-93.077 0-191.231-46.769T363.077-363.077q-84.77-85.538-131.923-184.846Q184-647.231 184-739v-38h162.539l34.923 132.308-110.847 103.384q28.385 47.462 57.193 86.693 28.807 39.23 58.577 69.769 31.077 32.615 69.846 60.807 38.769 28.193 91.307 58.577L656-374.769l120 25.23V-184h-38ZM256.846-570.846l89.692-83.769L323.385-745H215.231q.154 38.769 10.307 83.192 10.154 44.423 31.308 90.962Zm325 315.384q26.923 15.539 71.577 26.924 44.654 11.384 90.577 14.076v-110.153l-76.538-16-85.616 85.153Zm-325-315.384Zm325 315.384Zm128.923-342.076L689-620.846l77-77H538.769v-32H766l-78.539-79.539 23.308-20.769 116.308 114.769-116.308 117.847Z"/></svg>