<svg xmlns="http://www.w3.org/2000/svg" height="20" viewBox="0 -960 960 960" width="20"><path d="M276.496-723.846q-29.803 0-48.073-18.27-18.269-18.269-18.269-48.072 0-28.803 18.269-47.076 18.27-18.274 48.073-18.274 28.803 0 47.076 18.274 18.274 18.273 18.274 47.076 0 29.803-18.274 48.072-18.273 18.27-47.076 18.27Zm-63.573 617.845v-255.538h-67.384v-301.999h260.922v165.919q-47.461 34.004-78.46 89.927-31 55.923-31 119.692 0 38.615 6.73 73.422 6.731 34.808 22.653 58.038v50.539H212.923Zm339.62.77q-74.543 0-128.542-54.16-54-54.16-54-128.609 0-56.076 25.307-101.807 25.307-45.73 79.307-63.884v60.46q-31.693 17.307-42.154 43.423-10.462 26.115-10.462 61.808 0 55 37.885 92.885 37.885 37.885 92.885 37.885 50.539 0 89.308-35.077 38.77-35.077 41.078-89.923h51.998q-4.077 77.769-57.149 127.384-53.072 49.615-125.461 49.615Zm290.15-100.616-93.308-140.154H538.001v-267.998h51.998v216h186.616l109.538 164.306-43.46 27.846Z"/></svg>