<svg xmlns="http://www.w3.org/2000/svg" height="24" viewBox="0 -960 960 960" width="24"><path d="M768-160q-108.077 0-216.731-49.769T351.077-351.077q-90.77-91.538-140.923-200.846Q160-661.231 160-768v-32h177.539l33.923 163.308-107.847 100.384q27.385 47.462 56.693 86.693 29.307 39.23 61.077 70.769 32.077 33.615 72.346 62.807 40.269 29.193 91.807 57.577L650-366.769l150 30.23V-160h-32ZM244.846-573.846l83.692-76.769L305.385-760H200.231q1.154 45.769 12.307 92.192 11.154 46.423 32.308 93.962Zm338 333.384q36.923 18.539 83.577 28.924 46.654 10.384 93.577 11.076v-104.153l-95.538-19-81.616 83.153Zm-338-333.384Zm338 333.384ZM660-501.769q-12.385 0-21.577-9.193-9.192-9.192-9.192-21.577 0-12.384 9.192-21.577 9.192-9.192 21.577-9.192 12.385 0 21.577 9.192 9.192 9.193 9.192 21.577 0 12.385-9.192 21.577-9.192 9.193-21.577 9.193ZM560-607.462l-23.539-25.077q26.693-22.077 58.193-34.884 31.5-12.808 65.346-12.808 33.846 0 65.346 12.808 31.5 12.807 58.193 34.884L760-607.462Q738.462-625.154 712.962-635q-25.5-9.846-52.962-9.846-27.462 0-52.962 9.846-25.5 9.846-47.038 27.538Zm-84-86-25.077-25.077q42.692-39.615 96.577-60.654 53.885-21.038 112.5-21.038t112.5 21.038q53.885 21.039 96.577 60.654L844-693.462q-37.769-34.692-85.269-53.038-47.5-18.346-98.731-18.346-51.231 0-98.615 18.461Q514-727.923 476-693.462Z"/></svg>