<svg xmlns="http://www.w3.org/2000/svg" height="24" viewBox="0 -960 960 960" width="24"><path d="M768-160q-108.077 0-216.731-49.769T351.077-351.077q-90.77-91.538-140.923-200.846Q160-661.231 160-768v-32h177.539l33.923 163.308-107.847 100.384q27.385 47.462 56.693 86.693 29.307 39.23 61.077 70.769 32.077 33.615 72.346 62.807 40.269 29.193 91.807 57.577L650-366.769l150 30.23V-160h-32ZM660-501.539q-12.385 0-21.577-9.192-9.192-9.192-9.192-21.577 0-12.385 9.192-21.577 9.192-9.192 21.577-9.192 12.385 0 21.577 9.192 9.192 9.192 9.192 21.577 0 12.385-9.192 21.577-9.192 9.192-21.577 9.192ZM560-607.231l-23.539-25.077q26.693-22.077 58.193-34.885Q626.154-680 660-680q33.846 0 65.346 12.807 31.5 12.808 58.193 34.885L760-607.231q-21.538-17.692-47.038-27.538-25.5-9.846-52.962-9.846-27.462 0-52.962 9.846-25.5 9.846-47.038 27.538Zm-84-86-25.077-25.077q42.692-39.615 96.577-60.654Q601.385-800 660-800t112.5 21.038q53.885 21.039 96.577 60.654L844-693.231q-37.769-34.692-85.269-53.038-47.5-18.346-98.731-18.346-51.231 0-98.615 18.461Q514-727.692 476-693.231Z"/></svg>