<svg xmlns="http://www.w3.org/2000/svg" height="20" viewBox="0 -960 960 960" width="20"><path d="M382-113q-69 63-159.5 61T79-123q-91-78-97-171.5T44-431q-8 10-7 24t1 24q-68-64-85-162.5T-19-729q31-47 96-65t145 9q29-64 85.5-92.5T442-893q90-3 155.5 31.5T693-760q76-12 150 24t126 104q46 62 28.5 132T915-381q10-15 11-25.5t-5-24.5q81 73 88.5 189T946-43Q881 13 790.5 1.5T624-84q-38-15-75.5-20t-80.5 0q-12 3-36 .5t-50-9.5Zm98-7q130 0 221-91t91-221q0-38 1.5-70.5t.5-55.5q-24 13-49.5 20.5T693-528q-91-11-165-79t-94-159l-3.5.5q-3.5.5-6.5 1.5-110 22-183 115.5T168-432q0 130 91 221t221 91ZM360-360q20 0 34-14t14-34q0-20-14-34t-34-14q-20 0-34 14t-14 34q0 20 14 34t34 14Zm240 0q20 0 34-14t14-34q0-20-14-34t-34-14q-20 0-34 14t-14 34q0 20 14 34t34 14Z"/></svg>