<svg xmlns="http://www.w3.org/2000/svg" height="20" viewBox="0 -960 960 960" width="20"><path d="M382-52.87q-67.478 63-158.957 61.86-91.478-1.142-157.956-67.142-70.13-72.761-60.5-176.554 9.63-103.794 92.587-169.946 0-.718 1.435-1.076 1.435-.359 2.391-2.511Q32-462 15-546.38q-17-84.381 28-159.142 35.805-60.239 97.772-91.848 61.967-31.608 133.124-18.8 26.995-65.46 83.539-108.352 56.543-42.891 126.869-44.087 70.805.718 127.322 41.098 56.517 40.38 81.347 107.38 70.831-12 135.875 18.12 65.043 30.12 97.848 94.402 38.326 76.196 20.369 160.587-17.956 84.392-83.961 134.852 1.157-1.808-.876 1.3-2.033 3.109-3.228 3.348 81 62.761 88.5 164.642Q955-141 883-68.24 818.956-.086 728.891 2.273 638.826 4.63 570.826-57.652q-23.044 8.152-44.913 13.446-21.87 5.293-44 5.054-25.478 0-50.456-3.359Q406.478-45.869 382-52.869Zm-273.326-60.304q37.435 33.891 91.685 40.391t101.498-15.564q-70.096-35.588-121.031-95.294-50.935-59.707-74.848-135.75-19.76 22.043-29.5 48.087-9.739 26.043-9.337 54.565.402 28.522 10.326 55.043 9.924 26.522 31.207 48.522Zm558.652 25q22.044 12 45.702 16.95 23.659 4.95 46.95 2.485 23.522-2.522 46.163-12.565 22.642-10.044 40.881-27.087 42.087-44.957 43.152-107.75 1.065-62.794-39.031-110.205-20.752 75.063-67.502 136.563-46.75 61.5-116.315 101.61ZM480-122.87q131.435 0 223.272-90.027 91.837-90.027 91.837-218.625 0-29.087-8.294-57.891-8.293-28.804-21.685-58.761-24 11-49.5 17.5t-51.5 6.5q-89.565 0-155.467-60.859Q442.761-645.891 434-736.891q-.505 0-.97.358-.465.359-.465 1.077-115.478 16.043-191.337 102.206-75.858 86.163-75.858 201.728 0 128.598 91.597 218.625Q348.565-122.87 480-122.87ZM361.083-359.283q19.634 0 33.515-14.006 13.88-14.007 13.88-34.598t-13.767-34.711q-13.768-14.119-33.403-14.119-19.634 0-33.514 14.006-13.881 14.007-13.881 34.598t13.768 34.711q13.768 14.119 33.402 14.119Zm237.609 0q19.634 0 33.514-14.006 13.881-14.007 13.881-34.598t-13.768-34.711q-13.768-14.119-33.402-14.119t-33.515 14.006q-13.88 14.007-13.88 34.598t13.767 34.711q13.768 14.119 33.403 14.119ZM96.978-508.522q15.631-70.848 55.826-131.337Q193-700.348 251.326-742.957q-50.435-2.369-98.544 18.49Q104.674-703.609 78.326-663q-9.424 19.226-13.06 39.298-3.636 20.072-.44 40.876T75.5-543.315q7.478 18.706 21.478 34.793Zm765.044 0q14-17.087 21.478-35.793 7.478-18.707 10.683-39.567 3.204-20.861-.37-41.348-3.574-20.487-13.139-39.77-26.348-39.609-73.956-59.967-47.609-20.359-99.044-17.99Q766-700.348 806.196-639.859q40.195 60.489 55.826 131.337ZM667-603.109q18.4 0 35.374-2.424 16.974-2.424 32.735-7.989-41-56-100-90t-128-40v2.392q-1.435.478-2.508.231-1.073-.248-2.032-.718-.96-.47-1.678-1.426-.717-.957-.956-1.914 8.778 60.988 55.704 101.418 46.926 40.43 111.361 40.43ZM323.761-798.761q37.391-12.565 76.62-18.967 39.228-6.403 79.858-6.403 40.467 0 79.538 6.403 39.071 6.402 76.462 18.967-17.717-40.935-60.826-66.043-43.109-25.109-95.413-25.109-52.304 0-94.913 25.109-42.609 25.108-61.326 66.043ZM64.826-582.826Zm415.413-241.305Zm22.326 82.522Zm391.609 157.783ZM759.978-68.739Zm-692.956-148Z"/></svg>