<svg xmlns="http://www.w3.org/2000/svg" height="24" viewBox="0 -960 960 960" width="24"><path d="M480-60.002q22.231 0 45.423-3.192t51.193-9.346q81.076 63.077 181.576 47.846 100.499-15.23 151.114-101.153Q951.229-196 935.614-275.615q-15.615-79.615-76.615-133.769.384-4.846.384-10.731v-10.732q59.692-51.999 75.077-131.461 15.385-79.461-23.769-147.307-35.846-61.846-101.231-89.73-65.384-27.884-135.076-12.884-25.077-58.154-77.5-92.962T480-939.999q-64.461 0-116.884 34.808t-77.5 92.962q-69.692-15-134.884 12.884t-101.423 89.73Q10.155-641.384 25.54-561.923q15.385 79.461 75.077 131.076v10.732q0 5.885.384 10.731-61 54.154-76.615 133.961-15.615 79.807 26.308 149.576 50.615 85.923 151.114 101.153 100.5 15.23 181.576-47.846 28.001 6.154 51.193 9.346Q457.769-60 480-60ZM480-120q-134 0-227-93t-93-227q0-114.693 71.077-201.654 71.077-86.962 178.924-110.654V-750q0 97.769 68.615 166.384Q547.231-515.001 645-515.001q38 0 71.654-10.807 33.653-10.808 61.5-30.423 10.923 26.923 16.384 55.923Q800-471.308 800-440q0 134-93 227t-227 93ZM360-350q-21 0-35.5-14.5T310-400q0-21 14.5-35.5T360-450q21 0 35.5 14.5T410-400q0 21-14.5 35.5T360-350Zm240 0q-21 0-35.5-14.5T550-400q0-21 14.5-35.5T600-450q21 0 35.5 14.5T650-400q0 21-14.5 35.5T600-350Z"/></svg>