<svg xmlns="http://www.w3.org/2000/svg" height="20" viewBox="0 -960 960 960" width="20"><path d="M615.358-280q-39.82 0-67.512-27.596t-27.692-67.019q0-40.064 27.82-68.109 27.821-28.045 67.565-28.045 16.367 0 32.837 6.73 16.47 6.731 30.547 16.347v-254.664q0-10.837 7.254-18.24Q693.431-728 704.154-728h94.615q10.723 0 17.977 7.185Q824-713.629 824-703.007t-7.254 18.045q-7.254 7.423-17.977 7.423h-87.846v302.924q0 39.423-27.873 67.019Q655.177-280 615.358-280ZM200.283-457.23q-6.783 0-11.533-4.548-4.75-4.547-4.75-11.269t4.588-11.453q4.589-4.731 11.371-4.731h217.296q6.783 0 11.533 4.548 4.75 4.547 4.75 11.269t-4.588 11.453q-4.588 4.731-11.371 4.731H200.283Zm.006-119.385q-6.789 0-11.539-4.547-4.75-4.548-4.75-11.27 0-6.722 4.592-11.453 4.593-4.73 11.382-4.73H551.25q6.788 0 11.538 4.547 4.751 4.547 4.751 11.269t-4.593 11.453q-4.592 4.731-11.381 4.731H200.289Zm0-119.385q-6.789 0-11.539-4.547-4.75-4.548-4.75-11.27 0-6.722 4.592-11.452Q193.185-728 199.974-728H551.25q6.788 0 11.538 4.547 4.751 4.547 4.751 11.269t-4.593 11.453Q558.354-696 551.565-696H200.289Z"/></svg>