<svg xmlns="http://www.w3.org/2000/svg" height="24" viewBox="0 -960 960 960" width="24"><path d="M631.358-200q-39.82 0-67.512-27.596t-27.692-67.019q0-40.064 27.82-68.109 27.821-28.045 67.565-28.045 15.367 0 29.337 5.73 13.97 5.731 26.047 15.347v-281.077q0-12.424 8.404-20.827Q703.731-680 716.154-680h94.615q12.424 0 20.827 8.396Q840-663.208 840-650.796q0 12.411-8.404 20.834-8.403 8.423-20.827 8.423h-83.846v326.924q0 39.423-27.873 67.019Q671.177-200 631.358-200ZM180-369.23q-8.5 0-14.25-5.758t-5.75-14.27q0-8.511 5.75-14.242 5.75-5.731 14.25-5.731h241.538q8.5 0 14.25 5.758t5.75 14.269q0 8.512-5.75 14.243t-14.25 5.731H180Zm0-135.385q-8.5 0-14.25-5.758T160-524.642q0-8.512 5.75-14.243 5.75-5.73 14.25-5.73h391.538q8.5 0 14.25 5.757 5.751 5.758 5.751 14.27 0 8.511-5.751 14.242-5.75 5.731-14.25 5.731H180ZM180-640q-8.5 0-14.25-5.758T160-660.027q0-8.512 5.75-14.242Q171.5-680 180-680h391.538q8.5 0 14.25 5.758 5.751 5.757 5.751 14.269 0 8.511-5.751 14.242-5.75 5.731-14.25 5.731H180Z"/></svg>