<svg xmlns="http://www.w3.org/2000/svg" height="20" viewBox="0 -960 960 960" width="20"><path d="M480-484.615q-41.769 0-70.885-29.116Q380-542.846 380-584.615q0-40.77 29.115-70.385 29.116-29.616 70.885-29.616 40.769 0 70.385 29.616Q580-625.385 580-584.615q0 41.769-29.615 70.884-29.616 29.116-70.385 29.116ZM260-303.482v-19.903q0-24.384 17.692-42.269 17.693-17.884 40.846-28.577 36.923-18.461 78.616-25.807 41.692-7.347 82.846-7.347t82.846 6.847q41.693 6.846 78.616 25.307 23.153 10.693 40.846 28.577Q700-348.769 700-323.385v19.903q0 12.134-8.042 20.116-8.043 7.982-20.266 7.982H288.308q-12.223 0-20.266-7.982Q260-291.348 260-303.482ZM192.615-136q-24.315 0-40.465-16.15Q136-168.3 136-192.615V-320q0-6.838 4.52-11.419T151.789-336q6.749 0 11.48 4.581Q168-326.838 168-320v127.385q0 9.23 7.692 16.923Q183.385-168 192.615-168H320q6.838 0 11.419 4.52Q336-158.959 336-152.21t-4.581 11.479Q326.838-136 320-136H192.615ZM136-640v-127.385q0-24.315 16.15-40.465Q168.3-824 192.615-824H320q6.838 0 11.419 4.52T336-808.211q0 6.749-4.581 11.48Q326.838-792 320-792H192.615q-9.23 0-16.923 7.692Q168-776.615 168-767.385V-640q0 6.838-4.52 11.419Q158.959-624 152.21-624t-11.479-4.581Q136-633.162 136-640Zm631.385 504H640q-6.838 0-11.419-4.52T624-151.789q0-6.749 4.581-11.48Q633.162-168 640-168h127.385q9.23 0 16.923-7.692Q792-183.385 792-192.615V-320q0-6.838 4.52-11.419Q801.041-336 807.79-336t11.479 4.581Q824-326.838 824-320v127.385q0 24.315-16.15 40.465Q791.7-136 767.385-136ZM792-640v-127.385q0-9.23-7.692-16.923Q776.615-792 767.385-792H640q-6.838 0-11.419-4.52Q624-801.041 624-807.79t4.581-11.479Q633.162-824 640-824h127.385q24.315 0 40.465 16.15Q824-791.7 824-767.385V-640q0 6.838-4.52 11.419T808.211-624q-6.749 0-11.48-4.581Q792-633.162 792-640Z"/></svg>