<svg xmlns="http://www.w3.org/2000/svg" height="24" viewBox="0 -960 960 960" width="24"><path d="M479.881-486Q441-486 413.5-513.5T386-579.881Q386-618 413.5-646t66.381-28Q518-674 546-646t28 66.119Q574-541 546-513.5T479.881-486Zm.119-28q27 0 46.5-18.975T546-580q0-27-19.5-46.5t-47-19.5q-27.5 0-46.5 19.5t-19 47q0 27.5 18.975 46.5T480-514ZM266-316v-20q0-14.609 7.538-27.478Q281.077-376.348 294-384q42-25 89.5-37.5T480-434q49 0 96.5 12.5T666-384q12.923 7.652 20.462 20.522Q694-350.609 694-336v20q0 12.75-8.625 21.375T664-286H296q-12.75 0-21.375-8.625T266-316Zm214-90q-46 0-93 14t-93 40v39h372v-40q-45-26-92.5-39.5T480-406Zm0-174Zm0 267h186-372 186ZM192-132q-26 0-43-17t-17-43v-114q0-5.95 4.035-9.975 4.035-4.025 10-4.025t9.965 4.025q4 4.025 4 9.975v114q0 12 10 22t22 10h114q5.95 0 9.975 4.035 4.025 4.035 4.025 10T315.975-136q-4.025 4-9.975 4H192Zm-60-522v-114q0-26 17-43t43-17h114q5.95 0 9.975 4.035 4.025 4.035 4.025 10T315.975-804q-4.025 4-9.975 4H192q-12 0-22 10t-10 22v114q0 5.95-4.035 9.975-4.035 4.025-10 4.025T136-644.025q-4-4.025-4-9.975Zm636 522H654q-5.95 0-9.975-4.035-4.025-4.035-4.025-10t4.025-9.965q4.025-4 9.975-4h114q12 0 22-10t10-22v-114q0-5.95 4.035-9.975 4.035-4.025 10-4.025t9.965 4.025q4 4.025 4 9.975v114q0 26-17 43t-43 17Zm32-522v-114q0-12-10-22t-22-10H654q-5.95 0-9.975-4.035-4.025-4.035-4.025-10t4.025-9.965q4.025-4 9.975-4h114q26 0 43 17t17 43v114q0 5.95-4.035 9.975-4.035 4.025-10 4.025T804-644.025q-4-4.025-4-9.975Z"/></svg>