<svg xmlns="http://www.w3.org/2000/svg" height="20" viewBox="0 -960 960 960" width="20"><path d="M480-480q-52.696 0-89.174-36.478-36.478-36.479-36.478-89.174 0-52.261 36.478-88.957 36.478-36.696 89.174-36.696 52.261 0 88.957 36.696 36.695 36.696 36.695 88.957 0 52.695-36.695 89.174Q532.261-480 480-480ZM234.348-283.138V-308q0-30.696 20.847-54.326 20.848-23.631 48.979-37.761 41.13-20 85.978-28.783Q435-437.652 480-437.652t90.13 8q45.131 8 85.696 28.565 28.131 13.565 48.979 37.478 20.847 23.913 20.847 55.609v24.862q0 20.298-14.306 34.544-14.307 14.246-34.694 14.246H283.348q-20.387 0-34.694-14.246-14.306-14.246-14.306-34.544ZM174.783-76.782q-41.005 0-69.503-28.498-28.498-28.498-28.498-69.503v-112.216q0-20.388 14.246-34.694Q105.274-336 125.572-336q20.298 0 34.754 14.307 14.457 14.306 14.457 34.694v112.216h112.216q20.388 0 34.694 14.246Q336-146.291 336-125.993q0 20.298-14.307 34.755-14.306 14.456-34.694 14.456H174.783ZM76.782-673v-112.216q0-41.005 28.498-69.503 28.498-28.498 69.503-28.498h112.216q20.388 0 34.694 14.246Q336-854.726 336-834.428q0 20.298-14.307 34.754-14.306 14.457-34.694 14.457H174.783v112.216q0 20.388-14.246 34.694Q146.291-624 125.993-624q-20.298 0-34.755-14.307-14.456-14.306-14.456-34.694Zm708.435 596.22H673.001q-20.388 0-34.694-14.247Q624-105.274 624-125.572q0-20.298 14.307-34.754 14.306-14.457 34.694-14.457h112.216v-112.216q0-20.388 14.246-34.694Q813.709-336 834.007-336q20.298 0 34.755 14.307 14.456 14.306 14.456 34.694v112.216q0 41.005-28.498 69.503-28.498 28.498-69.503 28.498Zm0-596.22v-112.216H673.001q-20.388 0-34.694-14.246Q624-813.709 624-834.007q0-20.298 14.307-34.755 14.306-14.456 34.694-14.456h112.216q41.005 0 69.503 28.498 28.498 28.498 28.498 69.503v112.216q0 20.388-14.246 34.694Q854.726-624 834.428-624q-20.298 0-34.754-14.307-14.457-14.306-14.457-34.694Z"/></svg>