<svg xmlns="http://www.w3.org/2000/svg" height="20" viewBox="0 -960 960 960" width="20"><path d="M480-480q-54 0-92-38t-38-92q0-54 38-92t92-38q54 0 92 38t38 92q0 54-38 92t-92 38Zm0-92q15.4 0 26.7-10.8Q518-593.6 518-610q0-15.4-11.3-26.7Q495.4-648 480-648q-16.4 0-27.2 11.3T442-610q0 16.4 10.8 27.2T480-572ZM230-288.789V-308q0-32 21.5-56.5T302-404q42-20 87.5-29t90.5-9q45 0 91 8t87 29q29 14 50.5 39t21.5 58v19.211q0 24.21-17.35 41.5Q695.3-230 671-230H289q-24.3 0-41.65-17.289-17.35-17.29-17.35-41.5ZM480-350q-31 0-63 7t-58 19v2h241v-2q-26-12-57.5-19t-62.5-7Zm0-260Zm0 288h120-241 121ZM180-62q-49.7 0-83.85-34.15Q62-130.3 62-180v-97q0-24.3 17.29-41.65Q96.579-336 120.788-336 145-336 162.5-318.65T180-277v97h97q24.3 0 41.65 17.289 17.35 17.29 17.35 41.5Q336-97 318.65-79.5T277-62h-97ZM62-683v-97q0-49.7 34.15-83.85Q130.3-898 180-898h97q24.3 0 41.65 17.289 17.35 17.29 17.35 41.5Q336-815 318.65-797.5T277-780h-97v97q0 24.3-17.289 41.65-17.29 17.35-41.5 17.35Q97-624 79.5-641.35T62-683ZM780-62h-97q-24.3 0-41.65-17.29Q624-96.579 624-120.788 624-145 641.35-162.5T683-180h97v-97q0-24.3 17.289-41.65 17.29-17.35 41.5-17.35Q863-336 880.5-318.65T898-277v97q0 49.7-34.15 83.85Q829.7-62 780-62Zm0-621v-97h-97q-24.3 0-41.65-17.289-17.35-17.29-17.35-41.5Q624-863 641.35-880.5T683-898h97q49.7 0 83.85 34.15Q898-829.7 898-780v97q0 24.3-17.289 41.65-17.29 17.35-41.5 17.35Q815-624 797.5-641.35T780-683Z"/></svg>