<svg xmlns="http://www.w3.org/2000/svg" height="20" viewBox="0 -960 960 960" width="20"><path d="M480-115.384q-26.308 0-43.654-17.579Q419-150.542 419-176.177q0-18.9 10.725-34.208Q440.45-225.692 458-232.077V-338H344q-29.266 0-48.941-19.675-19.675-19.675-19.675-48.94v-80.308q-17.23-7.923-28.615-21.852-11.385-13.928-11.385-33.84 0-26.133 17.97-44.067 17.971-17.934 44.154-17.934 26.184 0 44.03 17.934 17.847 17.934 17.847 44.067 0 19.692-11.385 34.377-11.385 14.686-28.615 21.315v80.308q0 9.23 7.692 16.923Q334.769-382 344-382h114v-323.231h-23.154q-12.731 0-17.442-10.493-4.712-10.492 1.75-19.891l45.178-59.865q1.976-1.982 15.224-6.443 4.786 0 8.846 1.615 4.06 1.615 7.29 4.846l45.154 59.847q6.462 9.399 1.75 19.891-4.711 10.493-17.442 10.493H502V-382h115q9.231 0 16.923-7.692 7.692-7.693 7.692-16.923v-76h-20.077q-8.03 0-13.476-5.447-5.447-5.446-5.447-13.476v-84.155q0-8.03 5.447-13.476 5.446-5.447 13.476-5.447h84.155q8.03 0 13.476 5.447 5.447 5.446 5.447 13.476v84.155q0 8.03-5.447 13.476-5.446 5.447-13.476 5.447h-20.077v76q0 29.265-19.675 48.94Q646.266-338 617-338H502v105.923q17.231 7.154 28.115 22.462Q541-194.308 541-176.385q0 26.308-17.346 43.654-17.346 17.347-43.654 17.347Z"/></svg>