<svg xmlns="http://www.w3.org/2000/svg" height="24" viewBox="0 -960 960 960" width="24"><path d="M258.462-160h-33.847Q197-160 178.5-178.5 160-197 160-224.615V-480q0-66.539 25.038-124.731 25.039-58.192 68.539-101.692 43.5-43.5 101.692-68.539Q413.461-800 480-800q66.539 0 124.731 25.038 58.192 25.039 101.692 68.539 43.5 43.5 68.539 101.692Q800-546.539 800-480v255.385Q800-197 781.5-178.5 763-160 735.385-160h-33.847q-26.846 0-45.731-18.884-18.884-18.885-18.884-45.731v-116.924q0-26.846 18.884-45.73 18.885-18.885 45.731-18.885H760V-480q0-117-81.5-198.5T480-760q-117 0-198.5 81.5T200-480v73.846h58.462q26.846 0 45.731 18.885 18.884 18.884 18.884 45.73v116.924q0 26.846-18.884 45.731Q285.308-160 258.462-160Zm0-206.154H200v141.539q0 9.23 7.692 16.923Q215.385-200 224.615-200h33.847q10.769 0 17.692-6.923t6.923-17.692v-116.924q0-10.769-6.923-17.692t-17.692-6.923Zm418.461 24.615v116.924q0 10.769 6.923 17.692T701.538-200h33.847q9.23 0 16.923-7.692Q760-215.385 760-224.615v-141.539h-58.462q-10.769 0-17.692 6.923t-6.923 17.692Zm-418.461-24.615H283.077 200h58.462Zm418.461 0H760h-83.077Z"/></svg>