<svg xmlns="http://www.w3.org/2000/svg" height="20" viewBox="0 -960 960 960" width="20"><path d="M290.462-184h-49.847Q217-184 200.5-200.5 184-217 184-240.615V-480q0-61.598 23.238-115.394 23.239-53.796 63.676-94.063 40.436-40.266 94.448-63.405Q419.374-776 480.456-776q61.083 0 114.908 23.138 53.826 23.139 94.093 63.405 40.266 40.267 63.405 94.063Q776-541.598 776-480v239.385Q776-217 759.85-200.5 743.7-184 719.385-184h-49.847q-23.354 0-39.984-16.656-16.631-16.657-16.631-40.047v-101.099q0-23.39 16.631-39.871 16.63-16.481 39.984-16.481H744V-480q0-110.314-76.778-187.157Q590.443-744 480.222-744 370-744 293-667.157 216-590.314 216-480v81.846h74.462q23.354 0 39.984 16.657 16.631 16.656 16.631 40.046v101.099q0 23.391-16.631 39.871Q313.816-184 290.462-184Z"/></svg>