<svg xmlns="http://www.w3.org/2000/svg" height="20" viewBox="0 -960 960 960" width="20"><path d="M479.789-277q21.586 0 36.399-14.602Q531-306.204 531-327.789 531-349 516.398-364.5T480.211-380q-21.586 0-36.399 15.289Q429-349.421 429-328.211 429-307 443.602-292t36.187 15Zm0-127q18.611 0 31.411-12.65T524-448v-197.831q0-18.469-12.589-31.319-12.59-12.85-31.2-12.85-18.611 0-31.411 12.65T436-646v197.831q0 18.469 12.589 31.319 12.59 12.85 31.2 12.85ZM376-110q-23.467 0-44.733-8.5Q310-127 292-145L145-293q-17.043-17.175-26.022-38.965Q110-353.756 110-377v-207q0-23.467 8.5-44.733Q127-650 145-668l147-147q18-18 39.267-26.5Q352.533-850 376-850h208q23.467 0 44.733 8.5Q650-833 668-815l147 147q18 18 26.5 39.267Q850-607.467 850-584v208q0 23.467-8.5 44.733Q833-310 815-292L667-145q-17.175 17.043-38.965 26.022Q606.244-110 583-110H376Z"/></svg>