<svg xmlns="http://www.w3.org/2000/svg" height="20" viewBox="0 -960 960 960" width="20"><path d="M139.231-328q-23.354 0-39.985-16.642-16.63-16.643-16.63-40.014v-383.012q0-23.371 16.63-39.851Q115.877-824 139.231-824H714q23.354 0 39.985 16.631 16.631 16.63 16.631 39.984v254.77h-32.001v-239L441.539-572.846q-4.231 1.231-7.077 3.231-2.847 2-7.847 2t-8.346-2q-3.346-2-7.577-3.231L114.615-751.615v367q0 10.769 6.923 17.692T139.231-360h460.615v32H139.231Zm287.384-284 297.693-180H126.923l299.692 180Zm-312-139.615V-792v9.622-.517V-360v-391.615Zm648 614.077q-48.461 0-81.615-33.154-33.154-33.154-33.154-81.616v-144q0-29.981 20.636-50.683 20.636-20.701 50.523-20.701 29.887 0 50.249 20.861 20.362 20.862 21.362 50.523v128q0 6.8-4.548 11.4-4.547 4.6-11.269 4.6t-11.453-4.6q-4.731-4.6-4.731-11.4v-128q0-16.523-11.43-27.953-11.431-11.431-27.954-11.431-16.523 0-27.954 11.431-11.431 11.43-11.431 27.953v144q0 34.143 24.412 58.456 24.412 24.314 58.692 24.314 34.281 0 58.372-24.314 24.091-24.313 24.091-58.456v-127.999q0-6.801 4.542-11.401 4.541-4.6 11.255-4.6 6.713 0 11.444 4.631 4.731 4.63 4.731 11.476v128.318q0 48.037-33.154 81.191t-81.616 33.154Z"/></svg>