<svg xmlns="http://www.w3.org/2000/svg" height="24" viewBox="0 -960 960 960" width="24"><path d="M139.231-280q-26.654 0-45.635-18.981-18.98-18.98-18.98-45.634v-430.77q0-26.654 18.98-45.634Q112.577-840 139.231-840H730q26.654 0 45.635 18.981 18.981 18.98 18.981 45.634v230.77h-95.385q-47.802 0-81.594 32.538-33.791 32.539-33.791 79.769V-280H139.231Zm295.384-320-287.23-187.231q-7.77-4.846-16.039-1.769-8.269 3.077-10.577 11.539-3.077 5.923-1 11.884 2.077 5.962 7.77 9.423l289.153 189.308q8.558 5.231 17.972 5.231 9.413 0 17.875-5.231l289.153-189.308q5.693-3.461 7.77-9.807t-1-12.27q-2.308-8.461-10.577-11.154-8.27-2.692-16.039 2.154L434.615-600Zm320 478.462q-54.461 0-92.615-38.154-38.154-38.154-38.154-92.616v-180q0-31.661 21.862-53.523 21.861-21.861 53.523-21.861 31.661 0 53.523 21.861 21.862 21.862 21.862 53.523v160q0 8.5-5.758 14.25t-14.27 5.75q-8.511 0-14.242-5.75-5.731-5.75-5.731-14.25v-160q0-14.923-10.23-25.153-10.231-10.231-25.154-10.231t-25.154 10.231q-10.231 10.23-10.231 25.153v180q0 37.443 26.7 64.106 26.699 26.664 64.192 26.664 37.493 0 64.07-26.664 26.577-26.663 26.577-64.106v-139.999q0-8.501 5.757-14.251 5.758-5.75 14.27-5.75 8.511 0 14.242 5.75 5.731 5.75 5.731 14.251v139.999q0 54.462-38.154 92.616-38.154 38.154-92.616 38.154Z"/></svg>