<svg xmlns="http://www.w3.org/2000/svg" height="20" viewBox="0 -960 960 960" width="20"><path d="M120-288q-29.7 0-50.85-21.162Q48-330.324 48-360.04v-432.243Q48-822 69.15-843T120-864h624q28.875 0 49.438 21Q814-822 816-792v264h-96q-59.657 0-101.829 42.171Q576-443.657 576-384v96H120Zm312-325L175-760q-19-11-37-.184-18 10.817-18 32.449 0 9.735 5.5 18.235T139-696l275 158q8 5 18 5t18-5l276-158q8-5 13-13.438 5-8.437 5-18.562 0-21.5-18-32.25t-37 .25L432-613ZM768-96q-60 0-102-42t-42-102v-144q0-40.32 27.775-68.16 27.774-27.84 68-27.84Q760-480 787.5-452q27.5 28 28.5 68v108q0 15.3-10.289 25.65-10.29 10.35-25.5 10.35Q765-240 754.5-250.35 744-260.7 744-276v-108q0-9.6-7.2-16.8-7.2-7.2-16.8-7.2-9.6 0-16.8 7.2-7.2 7.2-7.2 16.8v144q0 29.7 21.212 50.85 21.213 21.15 51 21.15 29.788 0 50.802-21.15 21.015-21.15 21.015-50.85v-108q0-15.3 10.283-25.65Q860.596-384 875.798-384t25.702 10.381q10.5 10.38 10.5 25.725v108.319Q912-180 870-138T768-96Z"/></svg>