<svg xmlns="http://www.w3.org/2000/svg" height="20" viewBox="0 -960 960 960" width="20"><path d="M398.386-143q-22.386 0-40.048-14.333Q340.676-171.667 336-194q-8-40-35.5-61.5T239.448-277h-9.465Q225-277 220-275q-28 5-50.5-13.473T147-335q0-25 15-41t37-21l126-21 150-216q12-18 10-36t-17-32q-6-11-7.5-14t-1.5-14q0-15 11-28t31-13q10 0 15.5 2t17.5 11q7 3 25.5 12.5T610-736q-9-20 0-40.5t31-28.5q18-5 38.5 3t27.5 31l45 128q5 18-2 37t-31 28q-23 10-45.5-5T646-624h26q-15-2-29.5 3.5T618-602L436-340l22 125q4 29-13.5 50.5T398.386-143Zm-.065-20Q418-163 430-177.5t8-35.5l-20-113q-2-9 .5-18.5T426-362l183-262q5.739-8.941 14.87-13.971Q633-643 644-644l-27-72q-29-1-53.5-7.5T522-742q-6-5-12.5-6.5T498-750q-8 0-13 4t-5 12q0 6 4 14t15 18q7.28 7.8 10.64 17 3.36 9.2 3.36 18.2 0 7.8-2.5 14.3Q508-646 504-640L348-417q-5 8-14 13t-18 7l-113 20q-17 4-26.5 15.5T167-335q0 18 15 31t35 8q5.923-1.333 11.423-1.167 5.5.167 10.577.167 21.922 0 41.461 7Q300-283 316-269t26.577 31.172Q353.154-220.656 357-198q3 16 14.911 25.5 11.91 9.5 26.41 9.5ZM715-598q11-5 17-16.667 6-11.666 2-23.333l-46-129q-6-13-17-18.5t-24-.5q-13 6-19 17.5t0 23.5l46 128q5 14 16.5 19.5t24.5-.5ZM466-493Zm214-198Z"/></svg>