<svg xmlns="http://www.w3.org/2000/svg" height="20" viewBox="0 -960 960 960" width="20"><path d="M386.695-72.782q-47.783 0-84.653-30.804-36.87-30.805-46-78.588-2.87-11.652-11.065-18.13t-17.282-6.478q-1.435 0-2.804-.282-1.37-.283-2.804.717-61.044 11.131-108.827-28.522Q65.477-274.521 65.477-336q0-49.913 31.304-85.718 31.305-35.805 79.523-44.935l96.086-16.304L397.955-663.87q-6.913-13.608-13.696-26.391-6.782-12.782-6.782-39.739 0-44.913 32.152-78.783 32.153-33.87 81.066-33.87 24.696 0 39.957 7T565-815.262q5.739 3.87 18.304 6.239 12.566 2.37 29.566 1.239 9.26-20.869 27.674-37.804 18.413-16.935 43.543-26.5 45.783-15.696 92.914 4.631 47.131 20.326 64.392 70.805l45.435 128.434q15.695 46.653-4.566 91.936-20.261 45.283-69.739 63.805-42.218 16.391-82.436.848-40.217-15.544-62.044-50.197h-3.086L500.044-324.478l16.304 96.087q10.131 62.043-28.522 108.826-38.652 46.783-101.131 46.783Zm0-98.001q17.174 0 26.63-11.956 9.457-11.957 6.587-29.131l-20-113q-2-10.695.783-21.608 2.782-10.913 8.348-20.044l183-262q6-8.435 13.869-13.717 7.87-5.283 17.174-7.979l-21.913-58.999q-28.435-1.131-52.935-7.631-24.5-6.5-41.5-19.5-5.434-5-10.587-6.152-5.152-1.152-8.456-1.152-5.174 0-8.195 2.239-3.022 2.239-3.022 7.413 0 4.87 3.435 11.174 3.435 6.304 12.869 15.739 8.131 8.565 12.196 18.761 4.065 10.196 4.065 20.326 0 8.565-2.565 16.978-2.565 8.413-7.565 14.979l-156 223q-6.131 9.13-16.544 14.978-10.413 5.848-19.978 7.848l-113 20q-14.304 3-22.109 12.239-7.804 9.239-7.804 21.978 0 15.043 12.456 25.565 12.457 10.522 28.631 7.087 6.565-1 12.065-1.218 5.5-.217 11.065-.217 23.696 0 44.609 7.283 20.913 7.282 37.478 21.848 17.131 14.565 27.913 33.195 10.783 18.631 15.348 42.761 2.435 13.305 12.174 21.109 9.739 7.804 21.478 7.804Zm0 0q-11.739 0-21.478-7.804t-12.174-21.109q-9.13-47.261-43.826-76.174-34.696-28.913-81.522-28.913-5.565 0-11.065.217-5.5.218-12.065 1.218-16.174 3.435-28.631-7.087-12.456-10.522-12.456-25.565 0-12.739 7.804-21.978 7.805-9.239 22.109-12.239l113-20q9.565-2 19.978-7.848 10.413-5.848 16.544-14.978l156-223q5-6.566 7.565-14.979 2.565-8.413 2.565-16.978 0-10.13-4.065-20.326t-12.196-18.761q-9.434-9.435-12.869-15.739-3.435-6.304-3.435-11.174 0-5.174 3.022-7.413 3.021-2.239 8.195-2.239 3.304 0 8.456 1.152 5.153 1.152 10.587 6.152 17 13 41.5 19.5t52.935 7.631l21.913 58.999q-9.304 2.696-17.174 7.979-7.869 5.282-13.869 13.717l-183 262q-5.566 9.131-8.348 20.044-2.783 10.913-.783 21.608l20 113q2.87 17.174-6.587 29.131-9.456 11.956-26.63 11.956Z"/></svg>