<svg xmlns="http://www.w3.org/2000/svg" height="24" viewBox="0 -960 960 960" width="24"><path d="M376-43q-56 0-98.5-36T225-171q-1-5-3-8.5t-8-3.5h-5q-72 13-127.5-33.5T26-335q0-56 36-98.5t92-52.5l104-18 111-159q-5-8-13.5-27.5T347-737q0-56 38-94t93-38q29 0 51 9.5t39 21.5q5 5 17.5 6t26.5 0q12-23 32-41t46-28q56-20 110.5 4.5T875-815l50 140q20 56-5 108.5T841-493q-47 18-91 4t-71-49h-23L510-327l18 102q13 72-33.5 127T376-43Zm0-126q14 0 22-10t6-23l-24-133q-2-11 .5-21t8.5-19l164-235q11-15 26.5-24.5T612-647l-20-57q-29-1-54-9t-45-23q-6-5-9.5-6t-5.5-1q-3 0-4 2t-1 4q0 2 .5 3l1.5 3q15 14 22 31.5t7 34.5q0 14-4.5 28T487-611L344-406q-7 9-16 14t-18 7l-134 23q-11 2-17.5 9.5T152-335q0 13 10.5 21.5T186-307q8-2 14.5-2H214q26 0 49 8t40 23q18 15 29.5 36.5T349-193q2 11 9.5 17.5T376-169Zm0 0q-10 0-17.5-6.5T349-193q-10-54-46.5-85T214-309h-13.5q-6.5 0-14.5 2-13 2-23.5-6.5T152-335q0-10 6.5-17.5T176-362l134-23q9-2 18-7t16-14l143-205q8-12 12.5-26t4.5-28q0-17-7-34.5T475-731l-1.5-3q-.5-1-.5-3t1-4q1-2 4-2 2 0 5.5 1t9.5 6q20 15 45 23t54 9l20 57q-17 3-32.5 12.5T553-610L389-375q-6 9-8.5 19t-.5 21l24 133q2 13-6 23t-22 10Z"/></svg>