<svg xmlns="http://www.w3.org/2000/svg" height="20" viewBox="0 -960 960 960" width="20"><path d="M288-48q-13.4 0-22.7-9.3Q256-66.6 256-80v-71h-16q-43.32 0-74.66-31.275-31.34-31.274-31.34-74.5Q134-300 165.34-331.5 196.68-363 240-363h16v-40h-63q-24.3 0-41.65-17.35Q134-437.7 134-462v-94q0-24.3 17.35-41.65Q168.7-615 193-615h63v-40h-16q-43.32 0-74.66-31.275-31.34-31.274-31.34-74.5Q134-804 165.34-835.5 196.68-867 240-867h16v-14q0-12.4 9.3-21.7 9.3-9.3 23.7-9.3 12.4 0 21.7 9.3 9.3 9.3 9.3 21.7v14h16q43.32 0 74.66 31.275 31.34 31.274 31.34 74.5Q442-718 410.66-686.5 379.32-655 336-655h-16v40h63q24.3 0 41.65 17.35Q442-580.3 442-556v94q0 24.3-17.35 41.65Q407.3-403 383-403h-63v40h16q43.32 0 74.66 31.275 31.34 31.274 31.34 74.5Q442-214 410.66-182.5 379.32-151 336-151h-16v71q0 13.4-9.3 22.7Q301.4-48 288-48Zm384 0q-13.4 0-22.7-9.3Q640-66.6 640-80v-71h-16q-43.32 0-74.66-31.275-31.34-31.274-31.34-74.5Q518-300 549.34-331.5 580.68-363 624-363h16v-40h-63q-24.3 0-41.65-17.35Q518-437.7 518-462v-94q0-24.3 17.35-41.65Q552.7-615 577-615h63v-40h-16q-43.32 0-74.66-31.275-31.34-31.274-31.34-74.5Q518-804 549.34-835.5 580.68-867 624-867h16v-14q0-12.4 9.3-21.7 9.3-9.3 23.7-9.3 12.4 0 21.7 9.3 9.3 9.3 9.3 21.7v14h16q43.32 0 74.66 31.275 31.34 31.274 31.34 74.5Q826-718 794.66-686.5 763.32-655 720-655h-16v40h63q24.3 0 41.65 17.35Q826-580.3 826-556v94q0 24.3-17.35 41.65Q791.3-403 767-403h-63v40h16q43.32 0 74.66 31.275 31.34 31.274 31.34 74.5Q826-214 794.66-182.5 763.32-151 720-151h-16v71q0 13.4-9.3 22.7Q685.4-48 672-48Z"/></svg>