<svg xmlns="http://www.w3.org/2000/svg" height="20" viewBox="0 -960 960 960" width="20"><path d="M303.42-63.385q-5.051 0-8.389-3.312-3.339-3.313-3.339-8.38v-152.307h-36.307q-31.921 0-53.961-21.963-22.04-21.962-22.04-53.769t22.04-54.038q22.04-22.231 53.961-22.231h36.307V-452h-84q-12.031 0-20.169-8.051-8.139-8.051-8.139-19.952v-96.011q0-11.901 8.139-19.944Q195.661-604 207.692-604h84v-72.615h-36.307q-31.921 0-53.961-21.963-22.04-21.962-22.04-53.769t22.04-54.038q22.04-22.231 53.961-22.231h36.307v-56.307q0-5.067 3.303-8.38 3.303-3.312 8.354-3.312 5.051 0 8.389 3.312 3.339 3.313 3.339 8.38v56.307h36.308q31.92 0 53.96 21.963 22.04 21.962 22.04 53.769t-22.04 54.038q-22.04 22.231-53.96 22.231h-36.308V-604h84q12.031 0 20.169 8.051 8.139 8.051 8.139 19.952v96.011q0 11.901-8.139 19.944Q411.108-452 399.077-452h-84v72.615h36.308q31.92 0 53.96 21.962 22.04 21.963 22.04 53.77 0 31.807-22.04 54.038-22.04 22.231-53.96 22.231h-36.308v152.307q0 5.067-3.303 8.38-3.303 3.313-8.354 3.313Zm353.231 0q-5.051 0-8.389-3.312-3.339-3.313-3.339-8.38v-152.307h-36.308q-31.92 0-53.96-21.963-22.04-21.962-22.04-53.769t22.04-54.038q22.04-22.231 53.96-22.231h36.308V-452h-84q-12.031 0-20.169-8.051-8.139-8.051-8.139-19.952v-96.011q0-11.901 8.139-19.944Q548.892-604 560.923-604h84v-72.615h-36.308q-31.92 0-53.96-21.963-22.04-21.962-22.04-53.769t22.04-54.038q22.04-22.231 53.96-22.231h36.308v-56.307q0-5.067 3.303-8.38 3.303-3.312 8.354-3.312 5.051 0 8.389 3.312 3.339 3.313 3.339 8.38v56.307h36.307q31.921 0 53.961 21.963 22.04 21.962 22.04 53.769t-22.04 54.038q-22.04 22.231-53.961 22.231h-36.307V-604h84q12.031 0 20.169 8.051 8.139 8.051 8.139 19.952v96.011q0 11.901-8.139 19.944Q764.339-452 752.308-452h-84v72.615h36.307q31.921 0 53.961 21.962 22.04 21.963 22.04 53.77 0 31.807-22.04 54.038-22.04 22.231-53.961 22.231h-36.307v152.307q0 5.067-3.303 8.38-3.303 3.313-8.354 3.313Z"/></svg>