<svg xmlns="http://www.w3.org/2000/svg" height="20" viewBox="0 -960 960 960" width="20"><path d="M288-48q-12.096 0-20.309-8.213-8.213-8.213-8.213-20.309v-92.303H240q-42.016 0-71.834-29.753-29.818-29.753-29.818-71.674 0-41.921 29.818-71.899Q197.984-372.13 240-372.13h19.478v-43.478h-72.13q-20.387 0-34.694-14.307-14.306-14.306-14.306-34.694v-105.303q0-20.387 14.306-34.694 14.307-14.307 34.694-14.307h72.13v-43.478H240q-42.016 0-71.834-29.753-29.818-29.753-29.818-71.674 0-41.921 29.818-71.899 29.818-29.979 71.834-29.979h19.478v-18.347q0-11.531 8.213-19.744T288.565-912q11.531 0 19.744 8.213t8.213 19.744v18.347H336q42.016 0 71.834 29.753 29.818 29.753 29.818 71.674 0 41.921-29.818 71.9-29.818 29.978-71.834 29.978h-19.478v43.478h72.13q20.387 0 34.694 14.307 14.306 14.307 14.306 34.694v105.303q0 20.388-14.306 34.694-14.307 14.307-34.694 14.307h-72.13v43.478H336q42.016 0 71.834 29.753 29.818 29.753 29.818 71.674 0 41.921-29.818 71.9-29.818 29.978-71.834 29.978h-19.478v92.303q0 12.096-8.213 20.309Q300.096-48 288-48Zm384 0q-12.096 0-20.309-8.213-8.213-8.213-8.213-20.309v-92.303H624q-42.016 0-71.834-29.753-29.818-29.753-29.818-71.674 0-41.921 29.818-71.899Q581.984-372.13 624-372.13h19.478v-43.478h-72.13q-20.387 0-34.694-14.307-14.306-14.306-14.306-34.694v-105.303q0-20.387 14.306-34.694 14.307-14.307 34.694-14.307h72.13v-43.478H624q-42.016 0-71.834-29.753-29.818-29.753-29.818-71.674 0-41.921 29.818-71.899 29.818-29.979 71.834-29.979h19.478v-18.347q0-11.531 8.213-19.744T672.565-912q11.531 0 19.744 8.213t8.213 19.744v18.347H720q42.016 0 71.834 29.753 29.818 29.753 29.818 71.674 0 41.921-29.818 71.9-29.818 29.978-71.834 29.978h-19.478v43.478h72.13q20.387 0 34.694 14.307 14.306 14.307 14.306 34.694v105.303q0 20.388-14.306 34.694-14.307 14.307-34.694 14.307h-72.13v43.478H720q42.016 0 71.834 29.753 29.818 29.753 29.818 71.674 0 41.921-29.818 71.9-29.818 29.978-71.834 29.978h-19.478v92.303q0 12.096-8.213 20.309Q684.096-48 672-48Z"/></svg>