<svg xmlns="http://www.w3.org/2000/svg" height="20" viewBox="0 -960 960 960" width="20"><path d="M467.54-194.87q65.278 0 110.869-45.5Q624-285.87 624-350.87v-131.043h-72v131.043q0 34.65-24.62 59.325-24.619 24.675-59.989 24.675-34.33 0-58.86-24.675Q384-316.22 384-350.87v-179.123q0-9.964 7.08-16.942 7.081-6.978 16.92-6.978 10 0 17 6.978t7 16.942v191.123h72v-191.043q0-40.32-27.775-68.16-27.774-27.84-68-27.84-40.225 0-68.225 27.84-28 27.84-28 68.16v179.043q0 65 45.5 110.5t110.04 45.5Zm-283.671 107V-872.13h390.696l201.566 201.566v582.696H183.869ZM528-789.13V-624h165.13L528-789.13Z"/></svg>