<svg xmlns="http://www.w3.org/2000/svg" height="24" viewBox="0 -960 960 960" width="24"><path d="M480-215.77q60.846 0 102.73-43.539 41.884-43.538 41.884-104.537v-171.54h-59.998v171.54q0 36.077-24.347 62.077-24.346 26-60.269 26-35.308 0-59.962-26-24.654-26-24.654-62.077v-219.231q0-12.462 7.923-21.039 7.924-8.577 19.386-8.577 12.077 0 19.692 8.577 7.616 8.577 7.616 21.039v219.231h59.998v-219.231q0-37-25.153-63.307-25.154-26.308-62.153-26.308-37 0-62.154 26.308-25.153 26.307-25.153 63.307v219.231q0 60.999 42.192 104.537Q419.77-215.77 480-215.77ZM180.001-100.001v-759.998h414.614l185.384 185.384v574.614H180.001ZM564.616-800v155.384H720L564.616-800Z"/></svg>