<svg xmlns="http://www.w3.org/2000/svg" height="24" viewBox="0 -960 960 960" width="24"><path d="M480-231.538q54.692 0 91.962-40.077 37.269-40.077 37.269-96.077v-183.077h-40v183.077q0 39.154-25.693 67.654-25.692 28.499-63.538 28.499-37.615 0-63.423-28.499-25.808-28.5-25.808-67.654v-218.462q0-15.923 9.846-27.577 9.847-11.653 24.77-11.653 15.153 0 24.884 11.653Q460-602.077 460-586.154v218.462h40v-218.462q0-32-21.308-55.615-21.307-23.616-53.307-23.616t-53.308 23.616q-21.308 23.615-21.308 55.615v218.462q0 56 37.385 96.077 37.384 40.077 91.846 40.077ZM200-120v-720h389.231L760-669.231V-120H200Zm369.231-680v150.769H720L569.231-800Z"/></svg>