<svg xmlns="http://www.w3.org/2000/svg" height="20" viewBox="0 -960 960 960" width="20"><path d="M174.477-673.696v-111.521q0-41.305 28.499-69.653 28.498-28.348 69.503-28.348H384v89.522H264v120h-89.523Zm98.002 596.914q-41.305 0-69.653-28.498-28.349-28.498-28.349-69.503v-111.521H264v120h120v89.522H272.479ZM696-673.696v-120H576v-89.522h111.521q41.305 0 69.653 28.498 28.349 28.498 28.349 69.503v111.521H696ZM576-76.782v-89.522h120v-120h89.523v111.521q0 41.305-28.499 69.653-28.498 28.348-69.503 28.348H576Z"/></svg>