<svg xmlns="http://www.w3.org/2000/svg" height="20" viewBox="0 -960 960 960" width="20"><path d="M204-62q-28 0-43.5-18.5T145-121q0-10 4.5-21.5T163-163l634-635q9-9 20.5-13t21.5-4q22 0 40.5 15.5T898-756v340q-28-12-57-19.5t-61-5.5v-173L347-180h211q4 32 15 61.5T602-62H204Zm592-55-28 29q-18 18-41 16.5T686-90q-19-18-19-41.5t19-42.5l26-26-28-28q-19-19-18-42t20-42q19-19 42-19t42 19l26 28 28-28q18-18 42-17.5t42 18.5q18 18 18 41.5T908-228l-29 28 29 28q18 18 17.5 41T907-90q-18 18-41.5 18.5T824-89l-28-28Zm-449-63 433-434q-66 66-120 120.5t-104.5 105L455-288 347-180Z"/></svg>