<svg xmlns="http://www.w3.org/2000/svg" height="20" viewBox="0 -960 960 960" width="20"><path d="M203.769-136q-13.923 0-21.115-9.077-7.193-9.077-7.193-19.23 0-4.693 2.116-10.039 2.115-5.346 6.346-9.577l592.154-592.923q4.231-4.231 9.577-5.962 5.346-1.731 10.039-1.731 10.153 0 19.23 7.193Q824-770.154 824-756.231v320.77q-8.538-1.077-15.654-3.231-7.115-2.154-16.346-2.616v-305.615L213.846-168h365.615q3.385 8.462 7.462 16.077Q591-144.307 596.539-136h-392.77ZM768-217.461l-58.615 58.615q-5.616 5.615-10.77 4.346-5.154-1.269-10-6.115-5.615-5.616-5.615-11.27t5.615-11.269L745.461-240l-58.615-58.615q-5.615-5.616-4.731-11.27.885-5.654 6.5-11.269 5.616-5.615 11.27-5.615t11.269 5.615L768-262.539l58.615-58.615q5.616-5.615 11.654-4.846 6.039.769 10.885 5.615 5.615 5.616 5.615 10.885t-5.615 10.885L790.539-240l58.615 58.615q5.615 5.616 4.846 11.154-.769 5.539-5.615 10.385-5.616 5.615-10.885 5.615t-10.885-5.615L768-217.461ZM213.846-168 792-746.923Q677.385-632.307 598.962-553.5q-78.423 78.808-140.923 141.308l-118.231 118.23L213.846-168Z"/></svg>