<svg xmlns="http://www.w3.org/2000/svg" height="20" viewBox="0 -960 960 960" width="20"><path d="M194.87-76.782q-23.218 0-35.826-15.239-12.609-15.239-12.609-33.761 0-8.696 3.348-18.022 3.347-9.326 10.608-16.587l639.783-639.783q7.261-7.261 16.587-10.609 9.326-3.347 18.022-3.347 18.522 0 33.479 12.891 14.956 12.891 14.956 36.109l.566 344.348q-24.696-10.435-48.479-16.718-23.782-6.282-51.478-6.282-94.783 0-160.588 65.804-65.804 65.805-65.804 160.588 0 38.739 13.587 74.674 13.587 35.934 36.63 65.934H194.87Zm554.001-35.999q-14.957 14.957-34.044 13.892-19.087-1.066-34.044-15.457-15.522-14.957-15.522-34.544 0-19.587 15.522-35.109l33.391-33.391-34.956-34.956q-15.522-15.522-14.74-34.827.783-19.304 16.305-34.826 15.522-15.522 34.826-15.522 19.305 0 34.827 15.522l33.391 34.956 34.956-34.956q15.522-15.522 35.109-14.957 19.587.565 34.544 15.522 14.957 14.957 14.957 34.544 0 19.587-14.957 34.544l-35.521 34.956 35.521 34.956q14.957 14.957 14.674 34.044-.282 19.087-15.239 34.044-14.957 14.957-34.544 15.24-19.587.282-34.544-14.675l-34.956-34.521-34.956 35.521Z"/></svg>