<svg xmlns="http://www.w3.org/2000/svg" height="24" viewBox="0 -960 960 960" width="24"><path d="M198-46q-29 0-46-19.5T135-109q0-11 4.5-23t14.5-22l652-652q10-10 22-14.5t23-4.5q24 0 43.5 17t19.5 46v321q-29-15-60.5-23t-65.5-8q-113 0-192.5 79.5T516-200q0 42 12.5 80.5T564-46H198Zm550-25q-18 18-43.5 17.5T660-72q-19-18-19-44t19-45l39-39-40-40q-19-19-18.5-44.5T660-329q19-19 44.5-19t44.5 19l39 40 40-40q19-19 44.5-18.5T917-328q18 18 18 44t-18 44l-40 40 40 40q18 18 18 43.5T916-72q-18 18-44 18.5T828-71l-40-40-40 40Z"/></svg>