<svg xmlns="http://www.w3.org/2000/svg" height="20" viewBox="0 -960 960 960" width="20"><path d="M468.462-281.538q-79.231-4.616-133.847-61.539Q280-400 280-480q0-83.077 58.461-141.539Q396.923-680 480-680q80 0 136.923 54.231 56.923 54.23 61.539 133.461L646.231-504q-9-62-56.116-103Q543-648 480-648q-70 0-119 49t-49 119q0 63 41.385 110.5Q394.769-322 456-313l12.462 31.462Zm134-47.461-26.769 66.307q-4.231 9.693-14.424 9.577-10.192-.115-12.653-9.807l-60.924-191.001q-1.461-8.692 4.116-14.269t14.269-4.116l191.001 60.924q9.692 2.461 9.807 12.653.116 10.193-9.577 14.424l-66.307 25.769L804-186.308q5.539 5.539 5.539 15.539T804-155.23q-5.538 5.538-15.154 5.538-9.615 0-15.154-5.538l-171.23-173.769Z"/></svg>