<svg xmlns="http://www.w3.org/2000/svg" height="20" viewBox="0 -960 960 960" width="20"><path d="M215-196v-20h528v20H215Zm53-289q-18.232-19.036-28.116-43.493T230-579.734q0-55.628 36.804-94.447Q303.607-713 358-713q26.529 0 49.765 11Q431-691 450-673l30 30 30-29q19-18 42.235-29.5Q575.471-713 602-713q53.062 0 90.031 39.25Q729-634.501 729-579.686q0 26.512-8.616 50.751Q711.768-504.696 693-486L480-282 268-485Zm13-15 197 191 199.68-191.737Q694-516 701.5-536.934q7.5-20.934 7.5-43.329Q709-627 678.5-660 648-693 601-693q-22 0-40.5 9T526-660l-45 46-48-46q-15-16-33.784-24.5-18.785-8.5-40.941-8.5Q312-693 281-659.734q-31 33.266-31 80.23 0 22.504 7.515 43.061Q265.03-515.885 281-500Zm200-1Z"/></svg>