<svg xmlns="http://www.w3.org/2000/svg" height="20" viewBox="0 -960 960 960" width="20"><path d="M144-144v-72h672v72H144Zm87-356q-26-26-39.5-60T178-630.843q0-76.519 52.304-130.838Q282.607-816 358-816q35 0 66 13t56 36q25-23 56-36t66-13q75 0 127 54.559 52 54.56 52 130.755Q781-594 768.5-560.5 756-527 730-501L480-260 231-500Zm50-51 197 191 199.68-191.737Q694-567 701.5-587.934q7.5-20.934 7.5-43.329Q709-678 678-711q-31-33-77.319-33Q579-744 560-735q-19 9-34 24l-46 48-47-48q-15-16-33.784-24.5-18.785-8.5-40.941-8.5Q313-744 281.5-710.734q-31.5 33.266-31.5 80.23 0 22.504 7.515 43.061Q265.03-566.885 281-551Zm199-1Z"/></svg>