<svg xmlns="http://www.w3.org/2000/svg" height="20" viewBox="0 -960 960 960" width="20"><path d="M130.999-129.869v-98.001h698.002v98.001H130.999Zm92.088-373.522q-27.131-27.696-41.761-63.675-14.631-35.978-14.631-75.647 0-81.191 55.589-138.826Q277.872-839.175 358-839.175q34.601 0 65.235 12.152Q453.87-814.871 480-793.567q26.13-21.304 56.765-33.456 30.634-12.152 65.235-12.152 79.769 0 135.037 57.668t55.268 138.672q0 39.001-13.232 74.609-13.232 35.607-40.594 63.269L480-256.043 223.087-503.391Zm68.653-69.654L478-392.219l189.506-181.563q13.99-13.245 20.394-31.468 6.404-18.224 6.404-37.718 0-40.684-26.751-69.445-26.75-28.761-66.922-28.761-18.805 0-35.115 7.835-16.31 7.836-29.342 20.643L480-653.956l-57.74-58.74q-12.829-13.872-28.968-21.175-16.139-7.303-35.175-7.303-38.899 0-66.16 29.027-27.261 29.027-27.261 70.03 0 19.648 6.556 37.473t20.488 31.599ZM480-566.696Z"/></svg>