<svg xmlns="http://www.w3.org/2000/svg" height="24" viewBox="0 -960 960 960" width="24"><path d="M160-49.477q-44.305 0-75.153-30.848-30.848-30.848-30.848-75.153v-400q0-44.305 30.848-75.153 30.848-30.848 75.153-30.848h640q44.305 0 75.153 30.848 30.848 30.848 30.848 75.153v400q0 44.305-30.848 75.153Q844.305-49.477 800-49.477H160Zm200-146.001h240q17 0 28.5-11.5t11.5-28.5q0-17-11.5-28.5t-28.5-11.5H360q-17 0-28.5 11.5t-11.5 28.5q0 17 11.5 28.5t28.5 11.5Zm-160-120h80v-80h-80v80Zm120 0h80v-80h-80v80Zm120 0h80v-80h-80v80Zm120 0h80v-80h-80v80Zm120 0h80v-80h-80v80Zm-480-120h80v-80h-80v80Zm120 0h80v-80h-80v80Zm120 0h80v-80h-80v80Zm120 0h80v-80h-80v80Zm120 0h80v-80h-80v80ZM388.001-813.566h29.037q19.746 0 33.507 13.761t13.761 33.587q0 19.827-13.761 33.588-13.761 13.76-33.588 13.76H285.652q-22.087 0-37.543-15.456-15.457-15.457-15.457-37.544v-131.305q0-19.826 13.761-33.587 13.761-13.761 33.587-13.761 19.826 0 33.587 13.761 13.761 13.761 13.761 33.587v17.043q33.131-30.13 75.036-47.261 41.905-17.13 88.921-17.13 86.783 0 152.609 54.848 65.826 54.848 87.131 138.327 4 16.674-9.261 27.576-13.261 10.902-31.805 10.902t-34.522-8.543q-15.978-8.544-21.978-25.37-17.174-45.391-55.109-74.218-37.935-28.826-87.065-28.826-29.596 0-56.233 11.348-26.637 11.348-47.071 30.913Z"/></svg>