<svg xmlns="http://www.w3.org/2000/svg" height="20" viewBox="0 -960 960 960" width="20"><path d="M200-148q-22.7 0-37.35-14.65Q148-177.3 148-200v-343q0-22.7 14.65-37.35Q177.3-595 200-595h560q22.7 0 37.35 14.65Q812-565.7 812-543v343q0 22.7-14.65 37.35Q782.7-148 760-148H200Zm171.96-80h215.757q9.283 0 16.783-6.789 7.5-6.79 7.5-17 0-9.211-7.338-16.711-7.339-7.5-16.622-7.5H372.283q-9.283 0-16.783 6.789-7.5 6.79-7.5 17 0 9.211 7.338 16.711 7.339 7.5 16.622 7.5ZM228-348h48v-48h-48v48Zm114 0h48v-48h-48v48Zm114 0h48v-48h-48v48Zm114 0h48v-48h-48v48Zm114 0h48v-48h-48v48ZM228-468h48v-48h-48v48Zm114 0h48v-48h-48v48Zm114 0h48v-48h-48v48Zm114 0h48v-48h-48v48Zm114 0h48v-48h-48v48ZM300-700h99q4.3 0 7.15 2.789 2.85 2.79 2.85 7 0 4.211-2.85 7.211t-7.15 3H295q-11.3 0-18.65-7.35Q269-694.7 269-706v-104q0-4.3 2.789-7.15 2.79-2.85 7-2.85 4.211 0 7.211 2.85t3 7.15v87q31.684-44.377 80.842-70.689Q419-820 477-820q67.835 0 121.917 35.5Q653-749 679-689q2 3.267-.42 6.133-2.42 2.867-5.5 2.867-4.08 0-9.08-3t-7-7q-23-51-72.5-80.5T477-800q-55.571 0-102.786 27Q327-746 300-700Z"/></svg>