<svg xmlns="http://www.w3.org/2000/svg" height="24" viewBox="0 -960 960 960" width="24"><path d="M615.478-515.478q27.261 0 45.892-18.631Q680-552.739 680-580t-18.63-45.891q-18.631-18.631-45.892-18.631-26.696 0-45.326 18.913-18.631 18.913-18.631 45.609t18.631 45.609q18.63 18.913 45.326 18.913Zm-270.956 0q26.696 0 45.326-18.913 18.631-18.913 18.631-45.609t-18.631-45.609q-18.63-18.913-45.326-18.913-27.261 0-45.892 18.631Q280-607.261 280-580t18.63 45.891q18.631 18.631 45.892 18.631ZM480-60.782q-86.957 0-163.348-32.913-76.392-32.913-133.218-89.739-56.826-56.826-89.74-133.218Q60.783-393.043 60.783-480q0-86.957 32.913-163.348 32.913-76.392 89.739-133.218 56.826-56.826 133.218-89.739Q393.043-899.218 480-899.218q86.957 0 163.348 32.913 76.392 32.913 133.218 89.739 56.826 56.826 89.739 133.218Q899.218-566.957 899.218-480q0 86.957-32.913 163.348-32.913 76.392-89.739 133.218-56.826 56.826-133.218 89.74Q566.957-60.783 480-60.783ZM480-420q-57 0-106.152 27.717-49.152 27.718-76.891 76.718-6.566 12.565.717 24.065 7.283 11.5 21.848 11.5h318.826q14 0 21.565-11.5 7.565-11.5 1.565-24.065Q633.174-364 584.522-392T480-420Z"/></svg>