<svg xmlns="http://www.w3.org/2000/svg" height="20" viewBox="0 -960 960 960" width="20"><path d="M263.788-42Q234-42 213-63.212q-21-21.213-21-51Q192-144 213.212-165q21.213-21 51-21Q294-186 315-164.788q21 21.213 21 51Q336-84 314.788-63q-21.213 21-51 21ZM726-352 475-602l201.564-236.919Q696-862 723.785-874 751.57-886 782-886q59.761 0 101.381 41.619Q925-802.761 925-743v47H807v-47q0-10.648-7.281-17.824Q792.438-768 782.375-768q-4.375 0-8.875 2t-9.605 7.488L726-714v362Zm-101.594 0L743-234H164l208-246L62-790l62-61 766 746-83 59-306-306h123.406Zm77.098 310q-29.495 0-50.5-21.212Q630-84.425 630-114.212 630-144 650.589-165q20.588-21 49.5-21Q729-186 749.5-164.788q20.5 21.213 20.5 51Q770-84 750.5-63 731-42 701.504-42ZM439-639 237-841q36-23 78.5-34t95.5-11q60 0 105.5 15t83.5 40L439-639Z"/></svg>