<svg xmlns="http://www.w3.org/2000/svg" height="20" viewBox="0 -960 960 960" width="20"><path d="M263.788-96Q234-96 213-117.212q-21-21.213-21-51Q192-198 213.212-219q21.213-21 51-21Q294-240 315-218.788q21 21.213 21 51Q336-138 314.788-117q-21.213 21-51 21ZM672-390 485-577l171-200q16-19 38.785-29Q717.57-816 744-816q50.149 0 85.075 34.925Q864-746.149 864-696v24h-72v-24q0-20.444-13.805-34.222Q764.391-744 743.906-744q-8.906 0-18.406 4-9.5 4-17.605 13.488L672-685v295Zm-71.594 30L672-288H239l152-179L90-768l51-51 701 682-73 48-271-271h102.406Zm47.098 264q-29.495 0-50.5-21.212-21.004-21.213-21.004-51Q576-198 596.589-219q20.588-21 49.5-21Q675-240 695.5-218.788q20.5 21.213 20.5 51Q716-138 696.5-117 677-96 647.504-96ZM434-628 274-788q28-14 60.5-21t73.5-7q50 0 87 9t67 28L434-628Z"/></svg>