<svg xmlns="http://www.w3.org/2000/svg" height="24" viewBox="0 -960 960 960" width="24"><path d="M278.461-146.153q-23.481 0-40.202-16.722-16.721-16.721-16.721-40.202 0-23.48 16.721-40.202Q254.98-260 278.461-260q23.481 0 40.202 16.721 16.722 16.722 16.722 40.202 0 23.481-16.722 40.202-16.721 16.722-40.202 16.722Zm349.232-299.154L492.846-580.154l136.693-159.769q15.153-18.154 36.259-29.116Q686.903-780 711.385-780q35.231 0 59.231 24t24 59.512V-680h-40v-16.769q0-18.413-12.409-30.822Q729.798-740 711.385-740q-14.396 0-27.352 6.692T661-715.539l-33.307 38.846v231.386Zm-48.462 64.538L659.769-300H254.077L415-488.385 82.154-821l28.308-28.538 755.999 756-28.538 28.307-315.539-315.538h56.847Zm10 234.616q-23.481 0-40.202-16.722-16.721-16.721-16.721-40.202 0-23.48 16.721-40.202Q565.75-260 589.231-260q23.481 0 40.202 16.721 16.721 16.722 16.721 40.202 0 23.481-16.721 40.202-16.721 16.722-40.202 16.722ZM450.615-622.385 312.538-760.462q26.077-9.384 53.457-14.461Q393.376-780 421.538-780q36.084 0 70.965 7.154 34.882 7.153 68.728 20.692L450.615-622.385Z"/></svg>