<svg xmlns="http://www.w3.org/2000/svg" height="20" viewBox="0 -960 960 960" width="20"><path d="M283.19-129.079q-24.957 0-42.688-17.853t-17.731-42.923q0-25.069 17.853-42.608 17.853-17.538 42.923-17.538 25.069 0 42.608 17.773 17.538 17.773 17.538 42.73 0 24.958-17.773 42.688-17.773 17.731-42.73 17.731Zm362.654-287.077-51.998-51.998v-140.539l-65.154 75.769-36.768-37.152L646.769-750.46q15.846-17.846 35.845-26.692 20-8.846 44.077-8.846 39.764 0 67.189 27.425 27.425 27.425 27.425 67.329V-672h-51.999v-19.384q0-18.151-12.232-30.383t-30.383-12.232q-13.692 0-24.423 5.211-10.731 5.212-19.27 16.02l-37.154 43.923v252.689Zm-35.843 66.157 51.998 51.998H260.54l150.461-176.692-307.923-308.308 37.153-36.768 689 689-36.768 37.153-344.309-344.309-74.309 87.926h236.156Zm12.287 220.92q-24.665 0-42.4-17.645t-17.735-42.423q0-24.777 17.229-42.816 17.228-18.038 41.422-18.038 24.194 0 41.232 18.061 17.038 18.06 17.038 42.23 0 24.17-16.06 42.4-16.06 18.231-40.726 18.231ZM448.154-437.925Zm80.538-94.999Zm-87.384-87.768L404.54-657.46l58.924-71.077q-12.616-2.539-22.655-4.001-10.039-1.461-22.039-1.461-20.634 0-41.009 3.307-20.376 3.308-37.907 8.693l-41.083-41.23q29.308-11.077 59.153-16.923 29.846-5.846 60.846-5.846 36.769 0 70.346 7.077 33.576 7.077 66.499 21.846L441.308-620.692ZM404.54-657.46Z"/></svg>