<svg xmlns="http://www.w3.org/2000/svg" height="24" viewBox="0 -960 960 960" width="24"><path d="M240-26q-33 0-56.5-23.5T160-106q0-33 23.5-56.5T240-186q33 0 56.5 23.5T320-106q0 33-23.5 56.5T240-26Zm494-329L469-619l199.564-235.919Q691-881 721-895.5q30-14.5 63-14.5 65.612 0 111.306 45.694T941-753v49H815v-49q0-13.204-8.977-22.102Q797.047-784 784.469-784 779-784 775-782q-4 2-8 6l-33 38v383Zm-110 3 126 126H136l220-260L28-813l67-67L896-80l-67 67-339-339h134Zm70 326q-33 0-56.5-23.5T614-106q0-33 23.5-56.5T694-186q33 0 56.5 23.5T774-106q0 33-23.5 56.5T694-26ZM441-648 224-865q41-23 86-34t93-11q55 0 107 17t100 45L441-648Z"/></svg>