<svg xmlns="http://www.w3.org/2000/svg" height="20" viewBox="0 -960 960 960" width="20"><path d="M302.249-162.153q-20.269 0-34.49-14.434-14.221-14.434-14.221-34.702t14.434-34.49Q282.405-260 302.674-260q20.268 0 34.489 14.434 14.222 14.433 14.222 34.702 0 20.268-14.434 34.489-14.434 14.222-34.702 14.222Zm317.444-280.154L498.846-563.154l138.693-160.769q12.153-15.154 31.043-23.616Q687.472-756 709.385-756q29.38 0 49.305 19.925 19.926 19.926 19.926 49.587V-672h-32v-14.769q0-15.858-10.714-26.544Q725.189-724 709.291-724q-13.302 0-26.758 6.692t-24.638 19.258l-38.202 45.357v210.386Zm-40.056 61.538L652.769-308H282.077L431-482.385 116.154-798l23.308-22.538 720.999 701.999-44.538 20.308-282.539-282.538h46.253Zm17.098 218.616q-19.976 0-34.202-14.434-14.225-14.434-14.225-34.702t13.81-34.49Q575.927-260 595.32-260q19.392 0 33.113 14.434 13.721 14.433 13.721 34.702 0 20.268-12.721 34.489-12.721 14.222-32.698 14.222Zm-148.12-451.232L325.538-736.462q21.077-9.384 45.957-14.461Q396.376-756 429.538-756q41.084 0 69.465 5.154 28.382 5.153 52.228 15.692L448.615-613.385Z"/></svg>