<svg xmlns="http://www.w3.org/2000/svg" height="20" viewBox="0 -960 960 960" width="20"><path d="M263.788-65.477Q234-65.477 213-86.689q-21-21.212-21-51t21.212-50.788q21.213-21 51-21 29.788 0 50.788 21.213 21 21.212 21 51 0 29.787-21.212 50.787-21.213 21-51 21ZM702.523-368.52l-98.001-98.001v-120.347l-56.087 65.391-69.087-69.653L667.87-812.045q18.961-21.213 43.913-32.368 24.951-11.154 53.696-11.154 55.583 0 94.292 38.709t38.709 94.291v37.001h-98.001v-37.001q0-14.907-9.808-24.953t-24.361-10.046q-8.439 0-14.896 3.12-6.456 3.119-11.76 9.923l-37.131 43.696v332.306Zm-88.957 13.043 98.001 98.001h-514.96L380.26-474.348 74.173-780.435l57.218-56.653 715.741 715.176-56.653 57.218-340.566-340.001-40.782 49.217h204.435Zm64.462 290.001q-29.496 0-50.5-21.004-21.005-21.005-21.005-50.5 0-29.496 20.589-50.996 20.588-21.5 49.5-21.5 28.911 0 49.411 21.5t20.5 50.5q0 29-19.5 50.5t-48.995 21.5ZM449.913-404.695Zm98.522-116.783Zm-111.609-112.74-69.088-69.088 42.956-53.39q-3.478.13-4.39-.37-.913-.5-3.391-.5-20.273.565-40.071 4.348-19.799 3.783-35.815 9.348l-74.941-75.088q34.826-17.522 75.674-27.066 40.849-9.543 81.936-9.543 46.087 0 88.326 11.826 42.24 11.826 84.457 35.348L436.826-634.218Zm-69.088-69.088Z"/></svg>