<svg xmlns="http://www.w3.org/2000/svg" height="20" viewBox="0 -960 960 960" width="20"><path d="M263.788-42Q234-42 213-63.212q-21-21.213-21-51Q192-144 213.212-165q21.213-21 51-21Q294-186 315-164.788q21 21.213 21 51Q336-84 314.788-63q-21.213 21-51 21ZM726-352 608-470v-106l-50 58-83-84 202-237q20.469-22.915 47.306-34.957Q751.143-886 782-886q59.761 0 101.381 41.619Q925-802.761 925-743v47H807v-47q0-10.648-6.754-17.824Q793.491-768 783.469-768q-6.469 0-10.969 2.25-4.5 2.25-8.5 7.75l-38 45v361Zm-102 0 118 118H164l208-246L62-790l62-61 744 743-61 62-351-350-36 44h204Zm77.504 310q-29.495 0-50.5-21.004Q630-84.01 630-113.504 630-143 650.589-164.5q20.588-21.5 49.5-21.5Q729-186 749.5-164.5T770-114q0 29-19.5 50.5T701.504-42ZM456-396Zm102-122ZM439-639l-83-83 36-46q0 1 3 .5t4-.5q-19.404 1-39.202 5t-34.944 10L236-842q37-21 83.5-32.5T411-886q50 0 95.5 14t92.5 41L439-639Zm-83-83Z"/></svg>