<svg xmlns="http://www.w3.org/2000/svg" height="24" viewBox="0 -960 960 960" width="24"><path d="M485-46q-89.64 0-168.48-34.174-78.84-34.174-137.16-92.758-58.32-58.584-92.34-137.78Q53-389.909 53-479.954 53-570 87-649q34-79 93-138t138.057-93Q397.114-914 487-914q100 0 188.5 43.5T826-749L487-409v-379q-128 0-218 90t-90 218q0 128 90 218t218 90q65 0 123.5-26T712-272v163q-52 31-109.5 47T485-46Zm307-194v-320h110v320H792Zm55 180q-25.5 0-42.75-17.25T787-120q0-25.5 17.25-42.75T847-180q25.5 0 42.75 17.25T907-120q0 25.5-17.25 42.75T847-60Z"/></svg>