<svg xmlns="http://www.w3.org/2000/svg" height="24" viewBox="0 -960 960 960" width="24"><path d="M434-778v-126h92v126h-92Zm0 722v-126h92v126h-92ZM262-778v-126h92v126h-92Zm0 722v-126h92v126h-92Zm-58-276L101-435q-19-19-19-45t19-45l104-104q18-18 44.5-17.5T296-625q17 17 17 41t-17 41h234q26 0 44.5 18.5T593-480q0 26-18.5 44.5T530-417H296q17 17 17 41t-20 44q-18 19-44 19t-45-19ZM669-56q-26 0-44.5-18.5T606-119q0-26 18.5-44.5T669-182h23v-596h-23q-26 0-44.5-18.5T606-841q0-26 18.5-44.5T669-904h172q26 0 44.5 18.5T904-841q0 26-18.5 44.5T841-778h-23v596h23q26 0 44.5 18.5T904-119q0 26-18.5 44.5T841-56H669ZM56-778q0-53 36.5-89.5T182-904v126H56ZM182-56q-53 0-89.5-36.5T56-182h126v126Z"/></svg>