<svg xmlns="http://www.w3.org/2000/svg" height="24" viewBox="0 -960 960 960" width="24"><path d="M440-760v-28h80v28h-80Zm0 588v-28h80v28h-80ZM280-760v-28h80v28h-80Zm0 588v-28h80v28h-80Zm5-195-92-92q-9-9-9-21t9-21l93-93q4-4 9-4t10.217 4.174Q310-590 309.5-584t-4.5 10l-79 80h283q5.95 0 9.975 4.035 4.025 4.035 4.025 10T518.975-470q-4.025 4-9.975 4H226l79 80q4 4 4.5 10t-4.196 10.174Q301-362 295-362.5t-10-4.5Zm329 195q-5.95 0-9.975-4.035-4.025-4.035-4.025-10t4.025-9.965q4.025-4 9.975-4h66v-560h-66q-5.95 0-9.975-4.035-4.025-4.035-4.025-10t4.025-9.965q4.025-4 9.975-4h160q5.95 0 9.975 4.035 4.025 4.035 4.025 10T783.975-764q-4.025 4-9.975 4h-66v560h66q5.95 0 9.975 4.035 4.025 4.035 4.025 10T783.975-176q-4.025 4-9.975 4H614ZM172-760q0-11.55 8.225-19.775Q188.45-788 200-788v28h-28Zm28 588q-11.55 0-19.775-8.225Q172-188.45 172-200h28v28Z"/></svg>