<svg xmlns="http://www.w3.org/2000/svg" height="20" viewBox="0 -960 960 960" width="20"><path d="M725.652-232.087h36.696v-36.695h-36.696v36.695Zm0-96h36.696v-36.695h-36.696v36.695Zm96 96h36.696v-36.695h-36.696v36.695Zm-106.304 59.305q-20.387 0-34.694-14.306-14.306-14.307-14.306-34.694v-153.304q0-20.387 14.306-34.694 14.307-14.307 34.694-14.307h57.304q20.387 0 34.694 14.307 14.306 14.307 14.306 34.694v46.999h47.345q19.742 0 34.199 14.307 14.456 14.307 14.456 34.694v57.304q0 20.387-14.306 34.694-14.307 14.306-34.694 14.306H715.348ZM435.783-148.65 61.653-555.565q-12.131-13.261-17.414-28.522-5.282-15.261-5.282-32.149 0-19.329 7.63-36.779 7.63-17.449 22.892-31.159 87.261-68.305 193.043-104.87Q368.304-825.609 480-825.609q111.696 0 217.478 36.565 105.782 36.565 193.043 104.87 15.261 13.826 22.892 31.426 7.63 17.599 7.63 36.574 0 16.826-5.282 32.087-5.283 15.261-17.413 28.522L834-489.521q-16.565-3.87-33.065-5.522-16.5-1.652-32.935-1.087-16.609 0-32.436 1.631-15.826 1.63-32.436 4.891L820.65-613.913q-74.217-55.347-160.455-84.521Q573.956-727.608 480-727.608q-93.956 0-180.195 29.174-86.238 29.174-160.455 84.521L480-248.826l60.956-62.087q-1.565 11.522-2.348 22.479-.782 10.957-.782 22.479-.566 22.652 3.63 44.522 4.196 21.87 12.587 42.392l-27 27q-8.739 11.565-20.162 16.848-11.423 5.282-24.456 5.847-13.034.566-24.903-4.152-11.87-4.717-21.739-15.152ZM480-488.217Z"/></svg>