<svg xmlns="http://www.w3.org/2000/svg" height="20" viewBox="0 -960 960 960" width="20"><path d="M435.783-148.65 61.653-555.565q-12.131-13.261-17.414-28.522-5.282-15.261-5.282-32.149 0-19.329 7.63-36.779 7.63-17.449 22.892-31.159 87.261-68.305 193.043-104.87Q368.304-825.609 480-825.609q111.696 0 217.478 36.565 105.782 36.565 193.043 104.87 15.261 13.826 22.892 31.426 7.63 17.599 7.63 36.574 0 16.826-5.282 32.087-5.283 15.261-17.413 28.522L834-489.521q-34.044-8.131-62.892-8.435-28.848-.304-61.762 8.348-63.695 20.87-108.716 69.914-45.021 49.043-59.674 114.999-5.826 32.913-2.13 63.109 3.695 30.197 15.217 62.545l-27 27q-8.739 11.565-20.162 16.848-11.423 5.282-24.456 5.847-13.034.566-24.903-4.152-11.87-4.717-21.739-15.152Zm279.565-37.698q-20.387 0-34.694-14.306-14.306-14.307-14.306-34.694v-153.304q0-20.387 14.306-34.694 14.307-14.306 34.694-14.306h57.304q20.387 0 34.694 14.306 14.306 14.307 14.306 34.694v47h47.345q19.742 0 34.199 14.306 14.456 14.307 14.456 34.694v57.304q0 20.387-14.306 34.694-14.307 14.306-34.694 14.306H715.348Zm10.304-59.304h36.696v-36.696h-36.696v36.696Zm0-96h36.696v-36.696h-36.696v36.696Zm96 96h36.696v-36.696h-36.696v36.696Z"/></svg>