<svg xmlns="http://www.w3.org/2000/svg" height="24" viewBox="0 -960 960 960" width="24"><path d="M423-177 61-539q-12-12-18-27t-6-30q0-17 7-32.5T65-656q82-71 195-107.5T480-800q107 0 220 36.5T895-656q14 12 21 27.5t7 32.5q0 15-6 30t-18 27l-36 36q-25-12-50-17t-53-5q-102 0-173.5 71.5T515-280q0 28 5 53t17 50q-12 12-26.5 18t-30.5 6q-16 0-30.5-6T423-177Zm257 57q-17 0-28.5-11.5T640-160v-200q0-17 11.5-28.5T680-400h90q17 0 28.5 11.5T810-360v70h70q17 0 28.5 11.5T920-250v90q0 17-11.5 28.5T880-120H680Zm20-60h50v-50h-50v50Zm0-110h50v-50h-50v50Zm110 110h50v-50h-50v50Z"/></svg>