<svg xmlns="http://www.w3.org/2000/svg" height="20" viewBox="0 -960 960 960" width="20"><path d="M692.308-274.615h68.769v-68.769h-68.769v68.769Zm0-92.154h68.769v-68.769h-68.769v68.769Zm92.154 92.154h68.769v-68.769h-68.769v68.769Zm-87.231 23.385q-12.031 0-20.169-8.139-8.139-8.138-8.139-20.169v-151.077q0-12.031 8.139-20.169 8.138-8.139 20.169-8.139h58.923q12.031 0 20.169 8.139 8.139 8.138 8.139 20.169v63.846h64.191q11.386 0 19.674 8.138 8.289 8.139 8.289 20.17v58.923q0 12.031-8.139 20.169-8.138 8.139-20.169 8.139H697.231Zm-240.539 26.999L85.231-595.692q-5.616-5.616-7.539-11.436-1.923-5.821-1.923-12.704 0-8.091 3.423-14.995 3.423-6.905 10.27-12.25 87.307-63.846 184.307-96.385Q370.769-776 480-776t206.231 32.538q97 32.539 184.308 96.385 6.846 5.461 10.269 12.516t3.423 14.792q0 7.077-1.923 12.769t-7.539 11.308l-64.615 64.615q-6 .385-10.577.577-4.577.192-8.5-.577-7 0-13.5.5t-13.5 1.5L854-619q-81-61-176-93t-198-32q-103 0-198 32t-176 93l374 373 73.077-73.077q-1 7-1.5 14t-.5 14q.769 3.923.577 8.5-.192 4.577-.577 10.577l-47.769 47.769q-5.616 5.616-11.321 7.154-5.704 1.539-12 1.539-6.295 0-11.987-1.539-5.692-1.538-11.308-7.154ZM480-495Z"/></svg>