<svg xmlns="http://www.w3.org/2000/svg" height="20" viewBox="0 -960 960 960" width="20"><path d="M815.693-71.386 722.078-164H116.001v-535.998h113.616v43.537L80.232-806.846l36.769-35.769 734.46 734.461-35.768 36.768Zm28.306-145.462L631.614-428.847q2.308-31.077-10.038-61.038-12.346-29.961-35.346-51.96-22.384-21.385-50.845-32.731t-58.538-9.038l-152.384-152.77 43.999-59.615h223.076l72 96h180.461v483.151ZM480-279.386q24.923 0 48.962-9.115Q553-297.617 574-312.079L360.079-526q-15.462 20-24.078 44.538-8.615 24.539-8.615 49.462 0 63.461 44.576 108.038Q416.539-279.386 480-279.386Zm0-51.998q-41.923 0-71.269-28.847-29.347-28.846-29.347-70.769 0-20.154 7.885-38.231t21.654-32.846l142.154 141.154q-14.769 14.769-32.846 22.154-18.077 7.385-38.231 7.385Z"/></svg>