<svg xmlns="http://www.w3.org/2000/svg" height="20" viewBox="0 -960 960 960" width="20"><path d="m812-247-20-20v-381H638l-72.901-96H395l-34 46-15-15 36-51h196l72 96h162v421Zm-664 51v-472h143l20 20H168v432h575l20 20H148Zm444-171q-16 29-45.372 46T480-304q-56 0-92-37t-36-91q0-35.256 16.5-65.128T415-544l15 15q-26.906 12.33-42.453 38.182Q372-464.966 372-433q0 47 30 78t78 31q33.966 0 59.318-16.047Q564.67-356.094 577-382l15 15Zm-21.347-154.653Q586-506 595.5-487q9.5 19 11.5 42v-7L500-559h-7q24 2 43 12t34.653 25.347ZM836-96 119-813l14-13 716 716-13 14ZM500-432Zm76-51Z"/></svg>