<svg xmlns="http://www.w3.org/2000/svg" height="24" viewBox="0 -960 960 960" width="24"><path d="M204.615-160Q177-160 158.5-178.5 140-197 140-224.615v-510.77Q140-763 158.5-781.5 177-800 204.615-800h352.308q8.5 0 14.25 5.758 5.75 5.757 5.75 14.269 0 8.511-5.75 14.242-5.75 5.731-14.25 5.731H204.615q-9.23 0-16.923 7.692Q180-744.615 180-735.385v510.77q0 9.23 7.692 16.923Q195.385-200 204.615-200h510.77q9.231 0 16.923-7.692Q740-215.385 740-224.615v-352.308q0-8.5 5.758-14.25t14.269-5.75q8.512 0 14.243 5.75 5.73 5.75 5.73 14.25v352.308Q780-197 761.5-178.5 743-160 715.385-160h-510.77ZM340-300q-8.5 0-14.25-5.758-5.75-5.757-5.75-14.269t5.75-14.242Q331.5-340 340-340h240q8.5 0 14.25 5.758 5.75 5.757 5.75 14.269t-5.75 14.242Q588.5-300 580-300H340Zm0-120q-8.5 0-14.25-5.758-5.75-5.757-5.75-14.269t5.75-14.242Q331.5-460 340-460h240q8.5 0 14.25 5.758 5.75 5.757 5.75 14.269t-5.75 14.242Q588.5-420 580-420H340Zm0-120q-8.5 0-14.25-5.758-5.75-5.757-5.75-14.269t5.75-14.242Q331.5-580 340-580h240q8.5 0 14.25 5.758 5.75 5.757 5.75 14.269t-5.75 14.242Q588.5-540 580-540H340Zm379.973-100q-8.512 0-14.242-5.75Q700-651.5 700-660v-60h-60q-8.5 0-14.25-5.758-5.75-5.757-5.75-14.269 0-8.511 5.75-14.242Q631.5-760 640-760h60v-60q0-8.5 5.758-14.25 5.757-5.75 14.269-5.75t14.242 5.75Q740-828.5 740-820v60h60q8.5 0 14.25 5.758t5.75 14.269q0 8.512-5.75 14.242Q808.5-720 800-720h-60v60q0 8.5-5.758 14.25-5.757 5.75-14.269 5.75Z"/></svg>