<svg xmlns="http://www.w3.org/2000/svg" height="24" viewBox="0 -960 960 960" width="24"><path d="M206.783-100.782q-44.305 0-75.153-30.848-30.848-30.848-30.848-75.153v-546.434q0-44.305 30.848-75.153 30.848-30.848 75.153-30.848h298.521q22.087 0 37.544 15.456 15.456 15.457 15.456 37.544 0 22.088-15.456 37.544-15.457 15.457-37.544 15.457H206.783v546.434h546.434v-298.521q0-22.087 15.457-37.544 15.456-15.456 37.544-15.456 22.087 0 37.544 15.456 15.456 15.457 15.456 37.544v298.521q0 44.305-30.848 75.153-30.848 30.848-75.153 30.848H206.783ZM360-280q-17 0-28.5-11.5T320-320q0-17 11.5-28.5T360-360h240q17 0 28.5 11.5T640-320q0 17-11.5 28.5T600-280H360Zm0-120q-17 0-28.5-11.5T320-440q0-17 11.5-28.5T360-480h240q17 0 28.5 11.5T640-440q0 17-11.5 28.5T600-400H360Zm0-120q-17 0-28.5-11.5T320-560q0-17 11.5-28.5T360-600h240q17 0 28.5 11.5T640-560q0 17-11.5 28.5T600-520H360Zm369.034-78.304q-18.686 0-31.599-12.8t-12.913-31.722v-41.696h-42.261q-18.682 0-31.319-12.8-12.638-12.8-12.638-31.722 0-18.682 12.8-31.319 12.8-12.638 31.722-12.638h41.696v-42.261q0-18.681 12.8-31.319 12.8-12.637 31.722-12.637 18.682 0 31.319 12.637 12.638 12.638 12.638 31.319v42.261h42.261q18.681 0 31.319 12.641 12.637 12.64 12.637 31.326t-12.637 31.599q-12.638 12.913-31.319 12.913h-42.261v42.261q0 18.682-12.641 31.319-12.64 12.638-31.326 12.638Z"/></svg>