<svg xmlns="http://www.w3.org/2000/svg" height="20" viewBox="0 -960 960 960" width="20"><path d="M480.276-62Q393-62 317.013-94.584q-75.988-32.583-132.917-89.512T94.584-316.971Q62-392.917 62-480.458 62-568 94.584-643.487q32.583-75.488 89.512-132.417t132.875-89.512Q392.917-898 480.458-898q87.542 0 163.029 32.584 75.488 32.583 132.417 89.512t89.512 132.641Q898-567.551 898-480.276q0 87.276-32.584 163.263-32.583 75.988-89.512 132.917T643.263-94.584Q567.551-62 480.276-62ZM480-180q126 0 213-87t87-213q0-126-87-213t-213-87q-126 0-213 87t-87 213q0 126 87 213t213 87Zm0-300Zm-80 183h155q28.9 0 48.45-17.538Q623-332.075 623-358v-32q0-21.675-15.177-36.337Q592.646-441 570.211-441 555-441 542.5-432.65 530-424.3 524-411v12h-84v-162h84v12q6 13.3 18.789 21.65 12.79 8.35 29 8.35 21.586 0 36.399-15.35Q623-549.7 623-571v-32q0-26.4-19.55-43.2Q583.9-663 555-663H400q-26.775 0-44.888 18.112Q337-626.775 337-600v240q0 26.775 18.112 44.888Q373.225-297 400-297Z"/></svg>