<svg xmlns="http://www.w3.org/2000/svg" height="20" viewBox="0 -960 960 960" width="20"><path d="M480.276-76.782q-83.798 0-157.182-31.46-73.385-31.46-128.388-86.464-55.004-55.003-86.464-128.346t-31.46-157.406q0-84.064 31.46-156.948 31.46-72.885 86.464-127.888 55.003-55.004 128.346-86.464t157.406-31.46q84.064 0 156.948 31.46 72.885 31.46 127.888 86.464 55.004 55.003 86.464 128.112t31.46 156.906q0 83.798-31.46 157.182-31.46 73.385-86.464 128.388-55.003 55.004-128.112 86.464t-156.906 31.46ZM403.478-303.52h150.218q25.204 0 42.255-15.913 17.05-15.913 17.05-39.436v-33.739q0-18.903-13.052-31.691-13.053-12.787-32.347-12.787-15.211 0-26.841 9.219-11.631 9.22-15.022 23.389v12h-89.217v-175.042h89.217v12q3.391 14.169 15.094 23.389 11.703 9.219 27.478 9.219 18.814 0 31.752-13.176 12.938-13.176 12.938-31.868v-33.739q0-23.791-17.05-39.287-17.051-15.496-42.255-15.496H403.478q-24.003 0-40.241 16.238T346.999-600v240q0 24.003 16.238 40.241t40.241 16.238Z"/></svg>