<svg xmlns="http://www.w3.org/2000/svg" height="20" viewBox="0 -960 960 960" width="20"><path d="M135.521-207.521v-232.958h84V-672q2-63.497 45.469-107.988 43.468-44.491 106.935-44.491 63.466 0 108.01 44.491Q524.479-735.497 524.479-672v384q0 26.203 18.536 44.862 18.535 18.659 44.564 18.659 26.03 0 44.486-18.509 18.456-18.509 19.456-45.012v-231.521h-84v-232.958h48v-72h160.958v72h48v232.958h-84V-288q-2 63.497-45.469 107.988-43.468 44.491-106.935 44.491-63.466 0-108.01-44.491Q435.521-224.503 435.521-288v-384q0-26.203-18.536-44.862-18.535-18.659-44.564-18.659-26.03 0-44.486 18.509-18.456 18.509-19.456 45.012v231.521h84v232.958h-48v72H183.521v-72h-48Z"/></svg>