<svg xmlns="http://www.w3.org/2000/svg" height="24" viewBox="0 -960 960 960" width="24"><path d="M116.413-196.413v-207.174h80V-680q0-67.48 48.044-115.533 48.045-48.054 115.511-48.054 67.467 0 115.543 48.054Q523.587-747.48 523.587-680v400q0 31.52 22.456 53.967 22.455 22.446 53.989 22.446 31.533 0 53.957-22.446Q676.413-248.48 676.413-280v-276.413h-80v-207.174h40v-80h167.174v80h40v207.174h-80V-280q0 67.48-48.044 115.533-48.045 48.054-115.511 48.054-67.467 0-115.543-48.054Q436.413-212.52 436.413-280v-400q0-31.52-22.456-53.967-22.455-22.446-53.989-22.446-31.533 0-53.957 22.446Q283.587-711.52 283.587-680v276.413h80v207.174h-40v80H156.413v-80h-40Z"/></svg>