<svg xmlns="http://www.w3.org/2000/svg" height="20" viewBox="0 -960 960 960" width="20"><path d="M154.001-218.308v-195.998h84V-672q2-56.154 39.923-95.076 37.922-38.923 94.076-38.923 56.154 0 95.076 38.923 38.923 38.922 38.923 95.076v384q0 34.316 23.697 58.158 23.697 23.843 57.808 23.843 34.112 0 57.804-23.693 23.693-23.692 24.693-58.308v-257.694h-84v-195.998h48v-64.307h123.998v64.307h48v195.998h-84V-288q-2 56.154-39.923 95.076-37.922 38.923-94.076 38.923-56.154 0-95.076-38.923-38.923-38.922-38.923-95.076v-384q0-34.316-23.697-58.158-23.697-23.843-57.808-23.843-34.112 0-57.804 23.693-23.693 23.692-24.693 58.308v257.694h84v195.998h-48v64.307H202.001v-64.307h-48Z"/></svg>