<svg xmlns="http://www.w3.org/2000/svg" height="24" viewBox="0 -960 960 960" width="24"><path d="M140-204.615v-160.001h80V-680q0-58.308 40.846-99.154T360-820q58.308 0 99.154 40.846T500-680v400q0 42.231 28.885 71.115Q557.769-180 600-180q42.231 0 71.115-28.885Q700-237.769 700-280v-315.384h-80v-160.001h40V-820h120v64.615h40v160.001h-80V-280q0 58.308-40.846 99.154T600-140q-58.308 0-99.154-40.846T460-280v-400q0-42.231-28.885-71.115Q402.231-780 360-780q-42.231 0-71.115 28.885Q260-722.231 260-680v315.384h80v160.001h-40V-140H180v-64.615h-40Z"/></svg>