<svg xmlns="http://www.w3.org/2000/svg" height="20" viewBox="0 -960 960 960" width="20"><path d="M567-345.233v22.116q0 18.325 12.65 30.721T611-280q18.275 0 30.637-12.684Q654-305.367 654-324.117v-21.116h22q18.275 0 30.637-12.684Q719-370.6 719-389.211q0-18.185-12.363-30.487Q694.275-432 676-432h-22v-20.789q0-18.186-12.307-30.698Q629.386-496 611.193-496q-18.193 0-31.076 12.362-12.884 12.363-12.884 30.638v21h-21.116q-18.325 0-30.721 12.368Q503-407.265 503-388.982q0 17.982 12.65 30.865 12.65 12.884 31.35 12.884h20ZM328-345h25q18.275 0 30.638-12.589Q396-370.179 396-388.789q0-18.186-12.362-30.698Q371.275-432 353-432h-26q-18.275 0-30.638 12.307Q284-407.386 284-389.193 284-371 296.65-358T328-345Zm0-120h163q18.275 0 30.638-12.589Q534-490.179 534-508.789q0-18.186-12.362-30.698Q509.275-552 491-552H327q-18.275 0-30.638 12.307Q284-527.386 284-509.193 284-491 296.65-478T328-465Zm0-120h163q18.275 0 30.638-12.589Q534-610.179 534-628.789q0-18.186-12.362-30.698Q509.275-672 491-672H327q-18.275 0-30.638 12.307Q284-647.386 284-629.193 284-611 296.65-598T328-585ZM480.276-62Q393-62 317.013-94.584q-75.988-32.583-132.917-89.512T94.584-316.971Q62-392.917 62-480.458 62-568 94.584-643.487q32.583-75.488 89.512-132.417t132.875-89.512Q392.917-898 480.458-898q87.542 0 163.029 32.584 75.488 32.583 132.417 89.512t89.512 132.641Q898-567.551 898-480.276q0 87.276-32.584 163.263-32.583 75.988-89.512 132.917T643.263-94.584Q567.551-62 480.276-62ZM480-180q126 0 213-87t87-213q0-126-87-213t-213-87q-126 0-213 87t-87 213q0 126 87 213t213 87Zm0-300Z"/></svg>