<svg xmlns="http://www.w3.org/2000/svg" height="24" viewBox="0 -960 960 960" width="24"><path d="M759.044-633.218q-29.261 29.261-65.957 43.826-36.696 14.565-74.522 14.565-37.826 0-74.087-14.348t-65.522-44.043l-75-75q-13.304-13.305-29.761-19.674-16.456-6.37-34.195-6.37t-34.195 6.37q-16.457 6.369-29.761 19.674L192-623.609l-75.653-75.653 84.609-84.044q28.696-28.696 64.674-43.327 35.979-14.63 73.805-14.63 37.826 0 73.87 14.63 36.043 14.631 64.739 43.327l75 75q13.739 13.739 30.478 20.391 16.739 6.652 34.478 6.652t34.978-6.652q17.239-6.652 30.978-20.391L768-792.915l75.653 75.653-84.609 84.044Zm0 228.262q-29.261 29.261-65.739 43.609-36.479 14.348-74.305 14.348-37.826 0-74.305-14.348-36.478-14.348-65.739-43.609l-75-75q-13.304-13.304-29.761-19.674-16.456-6.369-34.195-6.369t-34.195 6.369q-16.457 6.37-29.761 19.674L192-395.912 116.347-470l84.609-85.044q28.696-28.696 64.674-43.326 35.979-14.631 73.805-14.631 37.826 0 73.87 14.631 36.043 14.63 64.739 43.326l75 75q13.739 13.739 30.478 20.391 16.739 6.652 34.478 6.652t34.978-6.652q17.239-6.652 30.978-20.391L768-564.653 843.653-489l-84.609 84.044Zm-1 228.262q-28.696 28.696-64.957 43.327-36.261 14.63-74.087 14.63t-74.305-14.63q-36.478-14.631-65.739-43.327l-76-75q-13.304-13.304-29.761-19.673-16.456-6.37-34.195-6.37t-34.195 6.37q-16.457 6.369-29.761 19.673L191-167.085l-74.088-74.653 84.044-85.044q28.696-29.261 64.674-43.608 35.979-14.348 73.805-14.348 37.826 0 73.87 14.63 36.043 14.631 64.739 43.326l75 75q13.739 13.739 30.978 20.392 17.239 6.652 34.978 6.652t34.478-6.652q16.739-6.653 30.478-20.392L768-336.391l74.088 75.653-84.044 84.044Z"/></svg>