<svg xmlns="http://www.w3.org/2000/svg" height="24" viewBox="0 -960 960 960" width="24"><path d="M732-602q-22.825 22.582-52.412 34.291Q650-556 619-556t-60.5-11.5Q529-579 506-602l-75-75q-18.71-19-42.409-28.5-23.699-9.5-48.645-9.5t-48.606 9.5Q267.679-696 249-677l-57 56-20-20 56-57q23.236-23 52.497-34.5t59.382-11.5q30.121 0 58.988 11.5T451-698l75 75q19.852 20.129 43.426 29.565Q593-584 619-584q26 0 49-9.5t43-29.5l57-56 20 20-56 57Zm0 170q-23.062 23-52.531 34.5Q650-386 619-386t-60.469-11.5Q529.062-409 506-432l-75-75q-18.71-19-42.409-28.5-23.699-9.5-48.645-9.5t-48.606 9.5Q267.679-526 249-507l-57 56-20-19 56-58q23.236-23 52.497-34.5t59.382-11.5q30.121 0 58.988 11.5T451-528l75 75q19.556 20.129 42.778 29.565Q592-414 618-414t49.5-9.5Q691-433 711-453l57-56 20 20-56 57Zm-1 170q-23.021 23-52.01 34.5Q650-216 619-216q-31 0-60.5-12T506-263l-76-74q-18.71-19-42.409-28.5-23.699-9.5-48.645-9.5t-48.606 9.5Q266.679-356 248-337l-57 56-19-19 56-58q23.054-23 52.085-34.5Q309.115-404 339-404q30.388 0 59.473 11.5Q427.558-381 451-358l75 75q20 20 43 29.5t49 9.5q26 0 49.574-9.435Q691.148-262.871 711-283l57-56 19 20-56 57Z"/></svg>