<svg xmlns="http://www.w3.org/2000/svg" height="24" viewBox="0 -960 960 960" width="24"><path d="M375.385-407.692H273.077q-7.667 0-12.68 5.002-5.012 5.003-5.012 12.654t5.012 12.69q5.013 5.038 12.68 5.038H380q13.077 0 21.923-8.846 8.846-8.846 8.846-21.923v-153.846q0-13.077-8.846-21.923-8.846-8.846-21.923-8.846h-93.846q-13.077 0-21.923 8.846-8.846 8.846-8.846 21.923v61.538q0 13.077 8.846 21.923 8.846 8.847 21.923 8.847h89.231v56.923Zm-84.616-87.693v-61.538h84.616v61.538h-84.616Zm205.385 28.462 86.615 89q2 2.231 12.769 5.615 11.616 0 16.154-10.5 4.539-10.5-3.384-19.115l-77.539-79.615 78.539-78.308q7.923-7.846 3-17.846t-16-10q-3.154 0-6.398 1.531-3.243 1.532-5.602 4.084l-88.154 87.462V-570q0-7.667-5.003-12.68-5.003-5.012-12.654-5.012t-12.689 5.012q-5.039 5.013-5.039 12.68v180q0 7.667 5.003 12.68 5.003 5.012 12.654 5.012t12.689-5.012q5.039-5.013 5.039-12.68v-76.923Zm173.077 2.308V-420q0 6.154 4.615 10.769 4.615 4.616 10.769 4.616t10.77-4.616Q700-413.846 700-420v-44.615h44.615q6.154 0 10.77-4.616Q760-473.846 760-480t-4.615-10.769q-4.616-4.616-10.77-4.616H700V-540q0-6.154-4.615-10.769-4.616-4.616-10.77-4.616t-10.769 4.616q-4.615 4.615-4.615 10.769v44.615h-44.616q-6.154 0-10.769 4.616-4.615 4.615-4.615 10.769t4.615 10.769q4.615 4.616 10.769 4.616h44.616ZM224.615-160Q197-160 178.5-178.5 160-197 160-224.615v-510.77Q160-763 178.5-781.5 197-800 224.615-800h510.77Q763-800 781.5-781.5 800-763 800-735.385v510.77Q800-197 781.5-178.5 763-160 735.385-160h-510.77Z"/></svg>