<svg xmlns="http://www.w3.org/2000/svg" height="20" viewBox="0 -960 960 960" width="20"><path d="M380-416h-88q-3.467 0-5.733 2.253-2.267 2.254-2.267 5.7 0 3.447 2.267 5.747 2.266 2.3 5.733 2.3h92q5.1 0 8.55-3.45Q396-406.9 396-412v-136q0-5.1-3.45-8.55Q389.1-560 384-560h-88q-5.1 0-8.55 3.45Q284-553.1 284-548v74q0 5.1 3.45 8.55Q290.9-462 296-462h84v46Zm-80-74v-42h80v42h-80Zm199 12 81 76q1 0 5.757 2 7.243 0 8.743-6t-2.5-10l-73-66 74-64q4-3 1.647-8.5-2.353-5.5-7.647-5.5l-1.833.545q-1.834.546-3.167 1.455l-83 74v-68q0-3.467-2.253-5.733-2.254-2.267-5.7-2.267-3.447 0-5.747 2.251-2.3 2.252-2.3 5.695v143.677q0 3.444 2.253 5.91 2.254 2.467 5.7 2.467 3.447 0 5.747-2.267 2.3-2.266 2.3-5.733v-70Zm161 16v30q0 7.2 5.4 12.6 5.4 5.4 12.6 5.4 7.2 0 12.6-5.4 5.4-5.4 5.4-12.6v-30h30q7.2 0 12.6-5.4 5.4-5.4 5.4-12.6 0-7.2-5.4-12.6-5.4-5.4-12.6-5.4h-30v-30q0-7.2-5.4-12.6-5.4-5.4-12.6-5.4-7.2 0-12.6 5.4-5.4 5.4-5.4 12.6v30h-30q-7.2 0-12.6 5.4-5.4 5.4-5.4 12.6 0 7.2 5.4 12.6 5.4 5.4 12.6 5.4h30ZM248-196q-22.7 0-37.35-14.65Q196-225.3 196-248v-464q0-22.7 14.65-37.35Q225.3-764 248-764h464q22.7 0 37.35 14.65Q764-734.7 764-712v464q0 22.7-14.65 37.35Q734.7-196 712-196H248Z"/></svg>