<svg xmlns="http://www.w3.org/2000/svg" height="20" viewBox="0 -960 960 960" width="20"><path d="M276-410h408q4.25 0 7.125-2.825 2.875-2.824 2.875-7 0-4.175-2.875-7.175T684-430H276q-4.25 0-7.125 2.825-2.875 2.824-2.875 7 0 4.175 2.875 7.175t7.125 3Zm0-132h408q4.25 0 7.125-2.825 2.875-2.824 2.875-7 0-4.175-2.875-7.175T684-562H276q-4.25 0-7.125 2.825-2.875 2.824-2.875 7 0 4.175 2.875 7.175t7.125 3Zm0-132h408q4.25 0 7.125-2.825 2.875-2.824 2.875-7 0-4.175-2.875-7.175T684-694H276q-4.25 0-7.125 2.825-2.875 2.824-2.875 7 0 4.175 2.875 7.175t7.125 3Zm-76 382q-22.7 0-37.35-14.65Q148-321.3 148-344v-416q0-22.7 14.65-37.35Q177.3-812 200-812h560q22.7 0 37.35 14.65Q812-782.7 812-760v502q0 16.875-16 23.438-16 6.562-28.117-5.555L716-292H200Z"/></svg>