<svg xmlns="http://www.w3.org/2000/svg" height="20" viewBox="0 -960 960 960" width="20"><path d="M276-404h408q6.839 0 11.419-4.52Q700-413.04 700-419.789q0-6.75-4.581-11.48Q690.839-436 684-436H276q-6.839 0-11.419 4.52Q260-426.96 260-420.211q0 6.75 4.581 11.48Q269.161-404 276-404Zm0-132h408q6.839 0 11.419-4.52Q700-545.04 700-551.789q0-6.75-4.581-11.48Q690.839-568 684-568H276q-6.839 0-11.419 4.52Q260-558.96 260-552.211q0 6.75 4.581 11.48Q269.161-536 276-536Zm0-132h408q6.839 0 11.419-4.52Q700-677.04 700-683.789q0-6.75-4.581-11.48Q690.839-700 684-700H276q-6.839 0-11.419 4.52Q260-690.96 260-684.211q0 6.75 4.581 11.48Q269.161-668 276-668Zm-83.385 388q-24.315 0-40.465-16.15Q136-312.3 136-336.615v-430.77q0-24.315 16.15-40.465Q168.3-824 192.615-824h574.77q24.315 0 40.465 16.15Q824-791.7 824-767.385v526.693q0 18.803-17.384 25.902-17.385 7.098-30.656-6.173L716.923-280H192.615ZM168-312v-480 480Zm562 0 62 62.769v-518.154q0-9.23-7.692-16.923Q776.615-792 767.385-792h-574.77q-9.23 0-16.923 7.692Q168-776.615 168-767.385v430.77q0 9.23 7.692 16.923Q183.385-312 192.615-312H730Z"/></svg>