<svg xmlns="http://www.w3.org/2000/svg" height="20" viewBox="0 -960 960 960" width="20"><path d="M276-404h408q6.8 0 11.4-4.547 4.6-4.547 4.6-11.269 0-6.723-4.6-11.453Q690.8-436 684-436H276q-6.8 0-11.4 4.547-4.6 4.547-4.6 11.269 0 6.723 4.6 11.453Q269.2-404 276-404Zm0-132h408q6.8 0 11.4-4.547 4.6-4.547 4.6-11.269 0-6.723-4.6-11.453Q690.8-568 684-568H276q-6.8 0-11.4 4.547-4.6 4.547-4.6 11.269 0 6.723 4.6 11.453Q269.2-536 276-536Zm0-132h408q6.8 0 11.4-4.547 4.6-4.547 4.6-11.269 0-6.723-4.6-11.453Q690.8-700 684-700H276q-6.8 0-11.4 4.547-4.6 4.547-4.6 11.269 0 6.723 4.6 11.453Q269.2-668 276-668Zm-83.385 388q-24.315 0-40.465-16.15Q136-312.3 136-336.615v-430.77q0-24.315 16.15-40.465Q168.3-824 192.615-824h574.77q24.315 0 40.465 16.15Q824-791.7 824-767.385v526.693q0 18.563-17.384 25.781-17.385 7.219-30.656-6.052L716.923-280H192.615Z"/></svg>