<svg xmlns="http://www.w3.org/2000/svg" height="20" viewBox="0 -960 960 960" width="20"><path d="M393.174-124.782q-20.087 0-34.544-14.456-14.457-14.457-14.457-34.544v-473.695l-22.956 22.522q-14.957 14.956-34.544 14.674-19.587-.283-34.544-15.24-14.957-14.956-14.957-34.044 0-19.087 14.957-34.044l107.001-107q14.957-14.957 34.326-14.957 19.37 0 34.327 14.957l105.435 106q14.957 14.957 15.24 34.827.282 19.87-15.24 34.827-14.956 14.956-34.326 14.891-19.37-.065-33.762-14.457l-22.956-22.956v233.607q32.87-22.782 67.913-34.738 35.043-11.957 69.956-11.957 9.87 0 21.022 1.5t20.456 2.935l-22.956-22.391q-14.956-14.956-14.674-34.544.283-19.587 15.239-34.544 14.957-14.956 34.544-14.956 19.588 0 34.544 14.956l107.001 106.436q14.957 14.957 14.957 34.609 0 19.653-14.957 34.609L668.218-266.519q-14.956 14.956-34.544 14.956-19.587 0-34.544-14.956-14.391-14.392-14.391-33.762 0-19.369 14.957-34.326l23.521-23.521q-9.304-1.435-18.674-2.935-9.369-1.5-20.369-1.5-48.913 0-87.522 27.174-38.608 27.173-54.478 74.521v87.086q0 20.087-14.456 34.544-14.457 14.456-34.544 14.456Z"/></svg>