<svg xmlns="http://www.w3.org/2000/svg" height="24" viewBox="0 -960 960 960" width="24"><path d="M193.782-753.217q-22.087 0-37.544-15.457-15.456-15.456-15.456-37.544 0-22.087 15.456-37.544 15.457-15.456 37.544-15.456h572.436q22.087 0 37.544 15.456 15.456 15.457 15.456 37.544 0 22.088-15.456 37.544-15.457 15.457-37.544 15.457H193.782ZM480-100.782q-22.087 0-37.544-15.456-15.457-15.457-15.457-37.544v-320.52l-53.955 53.956Q358.087-405.389 336-405.389q-22.087 0-37.044-14.957-14.957-14.957-14.957-37.044 0-22.087 14.957-37.044l143.435-143.435q7.696-7.696 17.522-11.609 9.826-3.913 20.087-3.913t20.087 3.913q9.826 3.913 17.522 11.609l143.435 143.435q14.957 14.957 14.957 37.044 0 22.087-14.957 37.044-14.957 14.957-37.044 14.957-22.087 0-37.044-14.957l-53.955-53.956v320.52q0 22.087-15.457 37.544-15.457 15.456-37.544 15.456Z"/></svg>