<svg xmlns="http://www.w3.org/2000/svg" height="24" viewBox="0 -960 960 960" width="24"><path d="M226-760q-5.95 0-9.975-4.035-4.025-4.035-4.025-10t4.025-9.965q4.025-4 9.975-4h508q5.95 0 9.975 4.035 4.025 4.035 4.025 10T743.975-764q-4.025 4-9.975 4H226Zm253.965 588Q474-172 470-176.025T466-186v-404L346-470q-5 5-10 5t-10-5q-5-5-4.5-10.5t4.5-9.5l133-133q5-5 10.133-7 5.134-2 11-2Q486-632 491-630q5 2 10 7l133 133q5 5 5 10t-5 10q-5 5-10.5 4.5T614-470L494-590v404q0 5.95-4.035 9.975-4.035 4.025-10 4.025Z"/></svg>