<svg xmlns="http://www.w3.org/2000/svg" height="24" viewBox="0 -960 960 960" width="24"><path d="M479.953-60.782q-86.91 0-163.301-32.913-76.392-32.913-133.218-89.739-56.826-56.826-89.74-133.265-32.912-76.438-32.912-163.348 0-86.91 32.913-163.301 32.913-76.392 89.739-133.218 56.826-56.826 133.265-89.739 76.438-32.913 163.348-32.913 86.91 0 163.301 32.913 76.392 32.913 133.218 89.739 56.826 56.826 89.739 133.265 32.913 76.438 32.913 163.348 0 86.91-32.913 163.301-32.913 76.392-89.739 133.218-56.826 56.826-133.265 89.74-76.438 32.912-163.348 32.912Zm.042-106.001q130.179 0 221.7-91.517 91.522-91.516 91.522-221.695 0-130.179-91.517-221.7-91.516-91.522-221.695-91.522-130.179 0-221.7 91.517-91.522 91.516-91.522 221.695 0 130.179 91.517 221.7 91.516 91.522 221.695 91.522Zm.005-80q-96.609 0-164.913-68.304Q246.783-383.391 246.783-480q0-96.609 68.304-164.913Q383.391-713.217 480-713.217q96.609 0 164.913 68.304Q713.217-576.609 713.217-480q0 96.609-68.304 164.913Q576.609-246.783 480-246.783Zm-.03-106.001q52.464 0 89.855-37.361 37.391-37.361 37.391-89.825 0-52.464-37.361-89.855-37.361-37.391-89.825-37.391-52.464 0-89.855 37.361-37.391 37.361-37.391 89.825 0 52.464 37.361 89.855 37.361 37.391 89.825 37.391Z"/></svg>