<svg xmlns="http://www.w3.org/2000/svg" height="20" viewBox="0 -960 960 960" width="20"><path d="M244-216v-496q0-21.45 15.287-36.725Q274.574-764 296.04-764h368.243q21.467 0 36.592 15.275T716-712v496h86q4.25 0 7.125 2.825 2.875 2.824 2.875 7 0 4.175-2.875 7.175T802-196H158q-4.25 0-7.125-2.825-2.875-2.824-2.875-7 0-4.175 2.875-7.175t7.125-3h86Zm20-405h277v-123H296q-14 0-23 9t-9 23v91Zm0 131h277v-111H264v111Zm0 274h432v-254H561v94q8.2 3.25 13.1 9.625t4.9 16.03q0 11.743-8.283 20.044t-20 8.301Q539-322 531-330.301q-8-8.301-8-20.044 0-9.655 4.9-16.03 4.9-6.375 13.1-9.625v-94H264v254Zm297-405h135v-91q0-14-9-23t-23-9H561v123Zm0 131h135v-111H561v111Z"/></svg>