<svg xmlns="http://www.w3.org/2000/svg" height="20" viewBox="0 -960 960 960" width="20"><path d="m568.615-376.615-85.676-84.011q-8.555-8.451-8.555-19.556t8.693-19.433l85.538-85.539q5.616-5.615 11.654-4.846 6.039.769 11.019 5.749 5.481 5.482 5.481 10.751 0 5.269-5.615 10.885L525.308-496H760q6.8 0 11.4 4.547 4.6 4.547 4.6 11.269 0 6.723-4.6 11.453Q766.8-464 760-464H525.308l65.077 66.615Q596-392.154 596-386.808q0 5.347-4.846 10.326Q585.795-371 580.013-371t-11.398-5.615ZM200.183-184q-6.722 0-11.452-4.6Q184-193.2 184-200v-560q0-6.8 4.547-11.4 4.547-4.6 11.269-4.6t11.453 4.6Q216-766.8 216-760v560q0 6.8-4.547 11.4-4.548 4.6-11.27 4.6ZM294-184v-32h72v32h-72Zm0-560v-32h72v32h-72Zm150 560v-32h72v32h-72Zm0-560v-32h72v32h-72Zm150 560v-32h72v32h-72Zm0-560v-32h72v32h-72Zm150 0v-32q13.2 0 22.6 9.4 9.4 9.4 9.4 22.6h-32Zm0 560v-32h32q0 13.846-9.4 22.923Q757.2-184 744-184Z"/></svg>