<svg xmlns="http://www.w3.org/2000/svg" height="20" viewBox="0 -960 960 960" width="20"><path d="M200-184q-6.8 0-11.4-4.547-4.6-4.547-4.6-11.269t4.6-11.453Q193.2-216 200-216h560q6.8 0 11.4 4.547 4.6 4.548 4.6 11.27 0 6.722-4.6 11.452Q766.8-184 760-184H200Zm144-140q-6.8 0-11.4-4.547-4.6-4.547-4.6-11.269t4.6-11.453Q337.2-356 344-356h272q6.8 0 11.4 4.547 4.6 4.547 4.6 11.269 0 6.723-4.6 11.453Q622.8-324 616-324H344ZM200-464q-6.8 0-11.4-4.547-4.6-4.547-4.6-11.269 0-6.723 4.6-11.453Q193.2-496 200-496h560q6.8 0 11.4 4.547 4.6 4.547 4.6 11.269 0 6.723-4.6 11.453Q766.8-464 760-464H200Zm144-140q-6.8 0-11.4-4.547-4.6-4.547-4.6-11.27 0-6.722 4.6-11.452Q337.2-636 344-636h272q6.8 0 11.4 4.547 4.6 4.547 4.6 11.269t-4.6 11.453Q622.8-604 616-604H344ZM200-744q-6.8 0-11.4-4.547-4.6-4.547-4.6-11.27 0-6.722 4.6-11.452Q193.2-776 200-776h560q6.8 0 11.4 4.547 4.6 4.547 4.6 11.269t-4.6 11.453Q766.8-744 760-744H200Z"/></svg>