<svg xmlns="http://www.w3.org/2000/svg" height="24" viewBox="0 -960 960 960" width="24"><path d="M200.348-180Q123.7-180 71.85-231.75 20-283.5 20-360q0-75 52.65-128.269 52.65-53.27 127.35-53.27 68.539 0 119.885 46.385Q371.231-448.769 379.077-380h70.615l-85.846-240H320q-8.5 0-14.25-5.758-5.75-5.757-5.75-14.269t5.75-14.242Q311.5-660 320-660h120q8.5 0 14.25 5.758 5.75 5.757 5.75 14.269t-5.75 14.242Q448.5-620 440-620h-33.231l27.846 78.461h236.616L604-726.154q-2.308-6.923-7.692-10.384Q590.923-740 584-740h-64q-8.5 0-14.25-5.758-5.75-5.757-5.75-14.269t5.75-14.242Q511.5-780 520-780h64q19.077 0 34.846 10.686 15.769 10.687 22.693 29.006L714.154-542H760q74.7 0 127.35 52.65Q940-436.7 940-362q0 75.043-52.615 127.753Q834.769-181.538 760-181.538q-68.923 0-119.192-45.385-50.27-45.385-59.885-113.077H379.077q-7.846 69-59.923 114.5T200.348-180Zm137.806-160v-40H240q-8.5 0-14.25 5.758-5.75 5.757-5.75 14.269t5.75 14.242Q231.5-340 240-340h98.154Zm156-40h86.769q3.462-27.615 20.423-64.923 16.961-37.308 49.423-56.615h-202L494.154-380Zm198.615-102.769 32.462 91.846q2.542 7.795 10.425 11.205 7.882 3.41 15.421.487 7.538-2.923 11.077-10.615 3.538-7.692.615-15.231l-34.461-91.846-35.539 14.154Z"/></svg>