<svg xmlns="http://www.w3.org/2000/svg" height="24" viewBox="0 -960 960 960" width="24"><path d="M480.027-310.769q8.512 0 14.242-5.75 5.731-5.75 5.731-14.25v-186.154q0-8.5-5.758-14.25-5.757-5.75-14.269-5.75t-14.242 5.75q-5.731 5.75-5.731 14.25v186.154q0 8.5 5.758 14.25 5.757 5.75 14.269 5.75ZM480-600q10.462 0 17.539-7.077 7.076-7.077 7.076-17.538 0-10.462-7.076-17.539-7.077-7.077-17.539-7.077-10.462 0-17.539 7.077-7.076 7.077-7.076 17.539 0 10.461 7.076 17.538Q469.538-600 480-600Zm0 473.693q-5.462 0-11.462-1t-11.247-3q-118.06-45-187.676-152.654Q200-390.615 200-516v-171.308q0-20.582 11.711-37.048 11.712-16.465 30.289-23.875l215.385-80q11.692-4.231 22.615-4.231 10.923 0 22.615 4.231l215.385 80q18.577 7.41 30.289 23.875Q760-707.89 760-687.308V-516q0 125.385-69.615 233.039-69.616 107.654-187.676 152.654-5.247 2-11.247 3t-11.462 1Z"/></svg>