<svg xmlns="http://www.w3.org/2000/svg" height="24" viewBox="0 -960 960 960" width="24"><path d="M479.955-250.001q95.814 0 162.929-67.07 67.115-67.07 67.115-162.884t-67.07-162.929q-67.07-67.115-162.884-67.115t-162.929 67.07q-67.115 67.07-67.115 162.884t67.07 162.929q67.07 67.115 162.884 67.115Zm-.03-59.998q-70.156 0-120.041-49.96-49.885-49.96-49.885-120.116t49.96-120.041q49.96-49.885 120.116-49.885t120.041 49.96q49.885 49.96 49.885 120.116t-49.96 120.041q-49.96 49.885-120.116 49.885ZM480-437.847 578.153-536 536-578.153 437.847-480 480-437.847ZM140.001-140.001v-679.998h679.998v679.998H140.001ZM200-200h560v-560H200v560Zm0-560v560-560Z"/></svg>