<svg xmlns="http://www.w3.org/2000/svg" height="24" viewBox="0 -960 960 960" width="24"><path d="M480-240q100 0 170-70t70-170q0-100-70-170t-170-70q-100 0-170 70t-70 170q0 100 70 170t170 70Zm-.075-88.479q-62.534 0-106.99-44.531-44.456-44.532-44.456-107.065 0-62.534 44.531-106.99 44.532-44.456 107.065-44.456 62.534 0 106.99 44.531 44.456 44.532 44.456 107.065 0 62.534-44.531 106.99-44.532 44.456-107.065 44.456ZM480-424l112-112-56-56-112 112 56 56ZM100.782-100.782v-758.436h758.436v758.436H100.782Zm106.001-106.001h546.434v-546.434H206.783v546.434Zm0-546.434v546.434-546.434Z"/></svg>