<svg xmlns="http://www.w3.org/2000/svg" height="20" viewBox="0 -960 960 960" width="20"><path d="M480.5-264q89.5 0 152.5-63.5t63-153q0-89.5-63-152.5t-153-63q-89 0-152.5 63T264-480q0 89 63.5 152.5t153 63.5Zm-.532-75.587q-58.533 0-99.457-40.956-40.924-40.955-40.924-99.489 0-58.533 40.956-99.457 40.955-40.924 99.489-40.924 58.533 0 99.457 40.956 40.924 40.955 40.924 99.489 0 58.533-40.956 99.457-40.955 40.924-99.489 40.924ZM480-432l86-84-50-50-84 86 48 48ZM135.869-135.869v-688.262h688.262v688.262H135.869Zm83.001-83.001h522.26v-522.26H218.87v522.26Zm0-522.26v522.26-522.26Z"/></svg>