<svg xmlns="http://www.w3.org/2000/svg" height="20" viewBox="0 -960 960 960" width="20"><path d="M479.91-284q81.629 0 138.859-57.64Q676-399.28 676-479.91q0-81.629-57.14-138.859Q561.719-676 480.09-676q-80.629 0-138.359 57.14Q284-561.719 284-480.09q0 80.629 57.64 138.359Q399.28-284 479.91-284Zm-.06-32q-68.311 0-116.081-47.919Q316-411.838 316-480.15q0-68.311 47.919-116.081Q411.838-644 480.15-644q68.311 0 116.081 47.919Q644-548.162 644-479.85q0 68.311-47.919 116.081Q548.162-316 479.85-316Zm-11.004-152.846q6.385 5.385 11.154 5.385t11.154-5.385l36-36q6.385-6.385 6.385-11.154t-6.385-11.154q-6.385-6.385-11.154-6.385t-11.154 6.385l-36 36q-5.385 6.385-5.385 11.154t5.385 11.154ZM240.615-184Q216-184 200-200q-16-16-16-40.615v-478.77Q184-744 200-760q16-16 40.615-16h478.77Q744-776 760-760q16 16 16 40.615v478.77Q776-216 760-200q-16 16-40.615 16h-478.77Z"/></svg>