<svg xmlns="http://www.w3.org/2000/svg" height="20" viewBox="0 -960 960 960" width="20"><path d="M338.386-235.693q-10.538-33-18.923-65.693-8.385-32.692-13-67.462l-46.693 30.539q-2.692 1.923-4.038 4.423-1.347 2.5-1.347 5.577v122.232q0 1.923 1.347 2.692 1.346.77 2.884 0l79.77-32.308Zm128.809-525q-52.272 60.232-77.734 136.667Q364-547.591 364-460.385q0 59.782 11 115.968Q386-288.231 403.393-244H558q17-44.231 27.5-100.439Q596-400.647 596-460.452q0-87.625-25.461-163.817-25.462-76.192-77.734-136.424-2.498-2.615-5.736-4.423-3.238-1.807-7.269-1.807-4.031 0-7.069 1.807-3.038 1.808-5.536 4.423Zm12.557 314.692q-30.906 0-52.328-21.67-21.423-21.671-21.423-52.577t21.67-52.328q21.671-21.423 52.577-21.423t52.328 21.67q21.423 21.671 21.423 52.577t-21.67 52.328q-21.671 21.423-52.577 21.423Zm141.862 210.693L701.384-203q1.538.769 2.884-.192 1.347-.962 1.347-2.885v-121.847q0-3.077-1.347-5.77-1.346-2.692-4.038-4.615l-46.693-30.539q-4.615 34.77-13 67.655t-18.923 65.885Zm-112.46-596.613q75.076 71.23 112.96 165.999 37.885 94.768 37.885 214.152 0 2.308.192 4.808t-.192 5.193l75.86 50.548q15.293 9.682 24.523 26.915 9.231 17.234 9.231 36.382v164.615q0 21.076-16.916 31.923-16.916 10.846-36.083 3.615l-128.999-52.23H372.001l-128.999 51.845q-19.168 7.231-35.892-3.615-16.723-10.846-16.723-31.923v-164.615q0-18.791 9.038-35.703 9.039-16.912 24.5-27.758l76.076-50.384v-9.616q0-119.384 37.885-214.152 37.884-94.769 112.96-165.999 5.847-6 13.552-8.616 7.705-2.615 15.602-2.615t15.602 2.615q7.705 2.616 13.552 8.616Z"/></svg>