<svg xmlns="http://www.w3.org/2000/svg" height="20" viewBox="0 -960 960 960" width="20"><path d="M87.521-207.521v-529.696q0-41.005 28.499-69.503 28.498-28.498 69.503-28.498h588.954q41.005 0 69.503 28.498 28.499 28.498 28.499 69.503v529.696h46.999q17.222 0 28.872 11.589Q960-184.342 960-167.21q0 17.133-11.65 28.933t-28.872 11.8H40.522q-17.222 0-28.872-11.59Q0-149.656 0-166.789q0-17.132 11.65-28.932 11.65-11.8 28.872-11.8h47Zm320.533-24h144.324q9.622 0 16.622-7.2t7-16.8q0-9.6-7.216-16.8-7.216-7.2-16.838-7.2H407.622q-9.622 0-16.622 7.2t-7 16.8q0 9.6 7.216 16.8 7.216 7.2 16.838 7.2ZM809.523-336l-35.046-408-624 6.783 35.046 408 624-6.783Zm-624 0v6.783V-744v408Z"/></svg>