<svg xmlns="http://www.w3.org/2000/svg" height="20" viewBox="0 -960 960 960" width="20"><path d="M260-136q-52.308 0-88.154-31.231Q136-198.461 136-250.769v-145.539q0-16.948 7.066-31.437 7.067-14.488 19.703-25.64l306.385-248.307Q477-709.846 486-707.385q9 2.462 16.154 9.616 11.615 11.615 10.5 24.901-1.116 13.287-7.5 27.022l-78.077 145.538H712q6.8 0 11.4 4.547 4.6 4.548 4.6 11.27 0 6.722-4.6 11.453-4.6 4.73-11.4 4.73H544v78.769h264q6.8 0 11.4 4.548 4.6 4.547 4.6 11.269t-4.6 11.453q-4.6 4.731-11.4 4.731H544v78.769h216.321q6.179 0 10.929 4.547t4.75 11.269q0 6.722-4.6 11.453-4.6 4.731-11.4 4.731H544V-168h120q6.8 0 11.4 4.547 4.6 4.548 4.6 11.27 0 6.722-4.6 11.452Q670.8-136 664-136H260Zm422.692-463.231q-30.231 0-53.077-25.013-22.846-25.013-22.846-58.358 0-36.86 21.346-72.321 21.346-35.462 42.962-65.847 4.038-5.461 11.596-5.461t11.788 5.461q21.616 30.385 42.962 65.743 21.346 35.358 21.346 72.796 0 33.2-22.923 58.1-22.924 24.9-53.154 24.9Z"/></svg>