<svg xmlns="http://www.w3.org/2000/svg" height="20" viewBox="0 -960 960 960" width="20"><path d="M240-96q-60 0-102-42T96-240v-164q0-22.143 9.5-41.071Q115-464 132-478l301-246q14-12 28-8t25 15q17 17 20.5 40.671T499-632l-55 104h288q15.3 0 25.65 10.289 10.35 10.29 10.35 25.5Q768-477 757.65-466.5 747.3-456 732-456H504v48h324q15.3 0 25.65 10.289 10.35 10.29 10.35 25.5Q864-357 853.65-346.5 843.3-336 828-336H504v48h276.32q14.68 0 25.18 10.289 10.5 10.29 10.5 25.5Q816-237 805.65-226.5 795.3-216 780-216H504v48h180q15.3 0 25.65 10.289 10.35 10.29 10.35 25.5Q720-117 709.65-106.5 699.3-96 684-96H240Zm432-504q-38 0-67-31t-29-72q0-45.692 27.5-88.846T658-870q5-7 14-7t14 7q27 35 54.5 78.154Q768-748.692 768-703q0 41-29 72t-67 31Z"/></svg>