<svg xmlns="http://www.w3.org/2000/svg" height="24" viewBox="0 -960 960 960" width="24"><path d="M92.303-779.218V-885.22h146.001v106.002H92.303Zm158.349 223.174-75.653-74.088L278.652-733.22l75.654 74.088-103.654 103.088ZM480-683.524q-84.13 0-142.913-58.783-58.783-58.782-58.783-142.913h403.392q0 84.131-58.783 142.913Q564.13-683.524 480-683.524Zm-53.001 188.828v-146.002h106.002v146.002H426.999Zm282.349-60.217L607.26-659.132l74.088-74.088 103.653 102.653-75.653 75.654Zm12.348-224.305V-885.22h146.001v106.002H721.696ZM62.477-69.128v-106.001q39.131 0 59.044-20.848 19.913-20.848 81.174-20.848 61.261 0 80.609 20.848 19.348 20.848 56.478 20.848 40.261 0 59.609-20.848T480-216.825q59.826 0 81.457 20.848 21.63 20.848 58.761 20.848 40.261 0 58.326-20.848 18.065-20.848 79.326-20.848 61.261 0 80.609 20.848 19.348 20.848 59.609 20.848v106.001q-59.826 0-81.457-20.848-21.63-20.848-58.761-20.848-38.261 0-57.326 20.848-19.065 20.848-80.326 20.848-59.827 0-80.892-20.848-21.065-20.848-59.326-20.848-39.13 0-59.044 20.848-19.913 20.848-81.174 20.848-61.261 0-79.609-20.848-18.347-20.848-57.478-20.848-40.261 0-59.609 20.848T62.477-69.128Zm0-186.001V-361.13q39.131 0 59.044-20.848 19.913-20.848 81.174-20.848 59.826 0 79.892 20.848 20.065 20.848 57.195 20.848 40.261 0 59.609-20.848T480-402.826q59.826 0 80.957 20.848 21.13 20.848 57.261 20.848 40.261 0 59.326-20.848 19.065-20.848 80.326-20.848 59.826 0 80.892 20.848 21.065 20.848 59.326 20.848v106.001q-61.261 0-82.174-20.848-20.913-20.848-58.044-20.848-38.261 0-57.326 20.848-19.065 20.848-80.326 20.848-59.827 0-80.892-20.848-21.065-20.848-59.326-20.848-39.13 0-57.478 20.848t-79.609 20.848q-61.261 0-82.174-20.848-20.913-20.848-58.044-20.848-38.261 0-59.326 20.848-21.065 20.848-80.892 20.848Z"/></svg>