<svg xmlns="http://www.w3.org/2000/svg" height="20" viewBox="0 -960 960 960" width="20"><path d="M132.282-750.131v-83h107.001v83H132.282Zm128.109 204.305L201.5-604.479l75.891-75.652 57.892 58.652-74.892 75.653Zm219.383-96.587q-80.252 0-136.372-56.28-56.119-56.28-56.119-136.438h385.434q0 80.478-56.345 136.598-56.346 56.12-136.598 56.12ZM438.5-486.218v-107h83v107h-83Zm262.109-60.13-75.653-76.131 58.653-57.652 75.891 74.892-58.891 58.891Zm20.108-203.783v-83h107.001v83H720.717ZM88.587-122.478v-83q35.478 0 53.979-24.359 18.501-24.358 76.555-24.358 58.053 0 76.405 24.358 18.352 24.359 53.844 24.359 35.956 0 54.237-24.359 18.28-24.358 76.393-24.358 58.196 0 76.674 24.358 18.478 24.359 53.956 24.359 35.957 0 54.696-24.359 18.739-24.358 76.696-24.358 57.956 0 75.582 24.358 17.625 24.359 54.048 24.359v83q-58.195 0-76.174-24.358-17.978-24.359-53.385-24.359-35.885 0-54.073 24.359-18.189 24.358-76.39 24.358-58.195 0-76.934-24.358-18.739-24.359-54.696-24.359-35.478 0-53.979 24.359-18.501 24.358-76.555 24.358-58.053 0-76.412-24.358-18.358-24.359-53.837-24.359-35.956 0-54.237 24.359-18.28 24.358-76.393 24.358Zm0-167v-83q35.478 0 53.998-24.359 18.519-24.359 76.632-24.359 58.196 0 76.435 24.359 18.239 24.359 53.718 24.359 35.956 0 54.237-24.359 18.28-24.359 76.393-24.359 58.196 0 76.674 24.359 18.478 24.359 53.956 24.359 35.957 0 54.118-24.359t76.274-24.359q58.196 0 76.435 24.359 18.239 24.359 54.195 24.359v83q-57.956 0-76.554-24.359-18.598-24.358-54.005-24.358-35.885 0-54.073 24.358-18.189 24.359-76.39 24.359-58.195 0-76.434-24.359-18.239-24.358-54.196-24.358-35.478 0-53.837 24.358-18.359 24.359-76.315 24.359-57.957 0-76.555-24.359-18.597-24.358-54.076-24.358-35.956 0-54.195 24.358-18.24 24.359-76.435 24.359Z"/></svg>