<svg xmlns="http://www.w3.org/2000/svg" height="20" viewBox="0 -960 960 960" width="20"><path d="M464-463.231H184l91.385 91.385q4.846 4.846 5.231 10 .384 5.154-5.231 10.769-5.616 5.616-10.885 5.616t-10.885-5.616L143.308-460.385q-8.693-8.692-8.693-19.615 0-10.923 8.693-19.615l110.307-110.308q4.846-4.846 10.885-5.231 6.039-.385 11.654 5.231 5.615 5.615 5.615 11.269t-5.615 11.269L184.77-496H464v-279.23l-90.615 90.615q-4.846 4.846-11.27 5.23-6.423.385-12.038-5.23-5.616-5.616-5.616-11.27t5.616-11.269l110.308-109.538q8.692-8.693 19.615-8.693 10.923 0 19.615 8.693l109.539 109.538q4.846 4.846 5.231 10.769.384 5.924-5.231 11.539-5.615 5.615-11.269 5.615t-11.27-5.615L496-775.23V-496l280-.769-91.385-91.385q-4.846-4.846-4.73-10.5.115-5.654 5.73-11.269 5.616-5.616 10.885-5.616t10.885 5.616l109.307 110.308q8.693 8.692 8.693 19.615 0 10.923-8.693 19.615L707.154-350.846q-4.846 4.846-10.385 5.115-5.538.27-11.154-5.346Q680-356.692 680-362.346t5.615-11.269l89.615-89.616H496V-184l92.154-91.385q4.846-4.846 10.5-5.231 5.654-.384 11.269 5.231 5.616 5.616 5.616 10.885t-5.616 10.885L499.615-143.308q-8.692 8.693-19.615 8.693-10.923 0-19.615-8.693L350.846-252.846q-4.846-4.846-5.115-10.885-.27-6.038 5.346-11.654Q356.692-281 362.346-281t11.269 5.615L464-184.77v-278.461Z"/></svg>