<svg xmlns="http://www.w3.org/2000/svg" height="24" viewBox="0 -960 960 960" width="24"><path d="M417-418H261l5 5q19 18.522 19 44.761Q285-342 266-323q-19 19-45.239 19-26.239 0-44.761-19L64-435q-19-19.364-19-45.182T64-525l112-112q18.667-19 44.333-19Q246-656 265-637t19 44.667q0 25.666-19 44.333l-5 5h157v-157l-6 6q-18.818 19-43.909 19Q342-675 323-694t-19-44.667q0-25.666 19-44.333l112-113q19.364-19 45.182-19T525-896l113 113q19 18.818 19 43.909Q657-714 638-695t-44.667 19q-25.666 0-44.333-19l-6-5v158h156l-5-5q-19-18.522-19-44.761Q675-618 694-637q19-19 45.239-19 26.239 0 44.761 19l112 112q19 19.364 19 45.182T896-435L783-322q-18.667 19-44.333 18.5Q713-304 694-323q-18-18.4-18-43.7 0-25.3 18-44.3l6-7H543v157l5-5q18.261-19 44.13-19Q618-285 637-266q19 19 19 45.239 0 26.239-19 44.761L525-64q-19.364 19-45.182 19T435-64L322-177q-19-18.667-18.5-44.333Q304-247 323-266t44.667-19q25.666 0 44.333 19l5 6v-158Z"/></svg>