<svg xmlns="http://www.w3.org/2000/svg" height="24" viewBox="0 -960 960 960" width="24"><path d="M111.869-760.957v-87.174h87.174v87.174h-87.174Zm162.392 0v-87.174h87.174v87.174h-87.174Zm162.152 0v-87.174h87.174v87.174h-87.174Zm162.391 0v-87.174h87.174v87.174h-87.174Zm162.153 0v-87.174h87.174v87.174h-87.174ZM111.869-598.565v-87.174h87.174v87.174h-87.174Zm324.544 0v-87.174h87.174v87.174h-87.174Zm324.544 0v-87.174h87.174v87.174h-87.174ZM111.869-436.413v-87.174h736.262v87.174H111.869Zm0 162.391v-87.174h87.174v87.174h-87.174Zm324.544 0v-87.174h87.174v87.174h-87.174Zm324.544 0v-87.174h87.174v87.174h-87.174ZM111.869-111.869v-87.174h87.174v87.174h-87.174Zm162.392 0v-87.174h87.174v87.174h-87.174Zm162.152 0v-87.174h87.174v87.174h-87.174Zm162.391 0v-87.174h87.174v87.174h-87.174Zm162.153 0v-87.174h87.174v87.174h-87.174Z"/></svg>