<svg xmlns="http://www.w3.org/2000/svg" height="24" viewBox="0 -960 960 960" width="24"><path d="M100.782-762.261v-96.957h96.957v96.957h-96.957Zm165.652 0v-96.957h96.957v96.957h-96.957Zm165.087 0v-96.957h96.958v96.957h-96.958Zm165.653 0v-96.957h96.957v96.957h-96.957Zm165.087 0v-96.957h96.957v96.957h-96.957ZM100.782-596.609v-96.957h96.957v96.957h-96.957Zm330.739 0v-96.957h96.958v96.957h-96.958Zm330.74 0v-96.957h96.957v96.957h-96.957ZM100.782-431.521v-96.958h758.436v96.958H100.782Zm0 165.652v-96.957h96.957v96.957h-96.957Zm330.739 0v-96.957h96.958v96.957h-96.958Zm330.74 0v-96.957h96.957v96.957h-96.957ZM100.782-100.782v-96.957h96.957v96.957h-96.957Zm165.652 0v-96.957h96.957v96.957h-96.957Zm165.087 0v-96.957h96.958v96.957h-96.958Zm165.653 0v-96.957h96.957v96.957h-96.957Zm165.087 0v-96.957h96.957v96.957h-96.957Z"/></svg>