<svg xmlns="http://www.w3.org/2000/svg" height="24" viewBox="0 -960 960 960" width="24"><path d="M86-764v-110h110v110H86Zm170 0v-110h110v110H256Zm169 0v-110h110v110H425Zm170 0v-110h110v110H595Zm169 0v-110h110v110H764ZM86-594v-110h110v110H86Zm339 0v-110h110v110H425Zm339 0v-110h110v110H764ZM86-425v-110h788v110H86Zm0 170v-110h110v110H86Zm339 0v-110h110v110H425Zm339 0v-110h110v110H764ZM86-86v-110h110v110H86Zm170 0v-110h110v110H256Zm169 0v-110h110v110H425Zm170 0v-110h110v110H595Zm169 0v-110h110v110H764Z"/></svg>