<svg xmlns="http://www.w3.org/2000/svg" height="24" viewBox="0 -960 960 960" width="24"><path d="M80-160v-640h483.077v640H387.692v-156.923H255.385V-160H80Zm40-40h95.385v-156.923h212.307V-200h95.385v-560H120v560Zm95.385-252.308h58.461v-58.461h-58.461v58.461Zm0-153.846h58.461v-58.461h-58.461v58.461Zm153.846 153.846h58.461v-58.461h-58.461v58.461Zm0-153.846h58.461v-58.461h-58.461v58.461Zm400 237.693L740.923-396l63.769-64H649.231v-40h155.461l-63.769-64 28.308-27.539L880.769-480 769.231-368.461ZM215.385-200v-156.923h212.307V-200v-156.923H215.385V-200Z"/></svg>