<svg xmlns="http://www.w3.org/2000/svg" height="20" viewBox="0 -960 960 960" width="20"><path d="M14.085-134.956v-707.045h540.176v707.045H308.868v-161.217h-49.39v161.217H14.085Zm98.002-98.001h49.39v-161.217H406.87v161.217h49.39V-744H112.087v511.043Zm49.39-210.608h92.349v-92.348h-92.349v92.348Zm0-153.044h92.349v-98.001h-92.349v98.001Zm153.044 153.044h92.349v-92.348h-92.349v92.348Zm0-153.044h92.349v-98.001h-92.349v98.001Zm457.436 290.567-69.653-69.653 55.869-55.304H626.261v-98.002h131.912l-55.869-55.304 69.653-69.653L945.915-480 771.957-306.042Zm-610.48 73.085v-161.217H406.87v161.217-161.217H161.477v161.217Z"/></svg>