<svg xmlns="http://www.w3.org/2000/svg" height="20" viewBox="0 -960 960 960" width="20"><path d="M209-146q-27.65 0-45.825-18.175Q145-182.35 145-210v-315q-32-20-39.5-52t2.5-61l36.32-126q7.68-24 24.774-37 17.095-13 43.219-13h532.563Q771-814 788.5-802q17.5 12 24.971 36L851-638q9 29 0 61t-38 53v314q0 27.65-18.175 45.825Q776.65-146 749-146H209Zm358-390q38 0 59-22.192 21-22.191 18-44.808l-26.9-179H495v169.56q0 31.37 21 53.905T567-536Zm-179 0q32 0 53.5-22.535T463-612.44V-782H341l-27.154 182.024Q312-584 331-560t57 24Zm-178 0q27.8 0 46.9-19.5Q276-575 281-602l27-180h-92.034q-17 0-27 7.5t-15 22.5L140-631q-12 38 9.5 66.5T210-536Zm538 0q33 0 58-26.5t13-68.5l-35-123q-5-15-15-21.5t-27-6.5h-92l27 180q5 27 24.1 46.5T748-536Z"/></svg>