<svg xmlns="http://www.w3.org/2000/svg" height="20" viewBox="0 -960 960 960" width="20"><path d="M208.522-93.999q-45.955 0-77.978-32.023Q98.521-158.045 98.521-204v-304.782q-29.566-27.522-36.087-65.848-6.522-38.327 4.478-74.457l40.32-136q9.376-31.653 35.058-52.892 25.681-21.239 59.023-21.239h558.563q33.342 0 59.212 20.456 25.869 20.457 35.47 53.675l39.53 136q10 35 1.696 71.043-8.305 36.044-34.305 65.435V-204q0 45.955-32.023 77.978-32.023 32.023-77.978 32.023H208.522ZM568-568.783q19.609 0 32.413-15.648 12.804-15.648 9.804-35.439l-20.335-129.347h-61.099v136.777q0 18.109 11.022 30.883 11.021 12.774 28.195 12.774Zm-179 0q16.609 0 29.413-12.774 12.804-12.774 12.804-30.883v-136.777h-60.999l-20.589 128.372q-3.281 19.019 7.676 35.54 10.956 16.522 31.695 16.522Zm-178 0q14.539 0 25.161-11.869 10.621-11.87 13.056-26.478l21.87-142.087h-61.034l-36.27 125.913q-6.435 21.304 5.304 37.913 11.739 16.608 31.913 16.608Zm538 0q21.174 0 32.63-16.608 11.457-16.609 5.587-37.913l-37.304-125.913h-61l21.87 142.087q2.435 14.608 13.056 26.478 10.622 11.869 25.161 11.869ZM208.522-204h542.956v-255.216q.261-.131-1.174.152-1.434.282-1.304.282-22.736 0-44.134-7.586-21.398-7.587-42.866-25.326-20.13 14.739-42.898 23.826-22.768 9.086-47.375 9.086-25.597 0-49.097-9.086-23.5-9.087-42.63-23.826-17.13 14.739-39.63 23.826-22.5 9.086-47.37 9.086-27.304 0-50.587-9.086-23.283-9.087-43.413-23.826-22.261 17.739-44.174 25.326-21.913 7.586-42.826 7.586.13 0-1.239-.282-1.37-.283-2.239-.152V-204Zm542.956 0H208.522h542.956Z"/></svg>