<svg xmlns="http://www.w3.org/2000/svg" height="20" viewBox="0 -960 960 960" width="20"><path d="M207.846-140q-29.265 0-48.94-19.675-19.675-19.675-19.675-48.94v-314.077q-31.308-20.693-39.039-53.5-7.73-32.808 2.5-63.193l37.243-128.307q7.68-24.462 25.582-38.385Q183.42-820 209.775-820h538.562q26.355 0 44.548 13.038 18.192 13.039 25.893 37.731l37.991 129.846q9.231 30.385 0 62.731-9.23 32.346-37.538 54.5v313.539q0 29.265-19.675 48.94Q779.881-140 750.615-140H207.846Zm359.385-402q34.538 0 54.038-21.269 19.5-21.268 16.5-43.885L612.254-776H501.231v163.56q0 28.831 19.154 49.636Q539.539-542 567.231-542Zm-179 0q29.23 0 49.115-20.804 19.885-20.805 19.885-49.636V-776H346.308l-25.769 170.947q-2.308 17.591 15.423 40.322Q353.692-542 388.231-542Zm-178 0q25.261 0 42.861-18 17.6-18 22.139-42.923L301.308-776h-87.88q-13.077 0-20.77 5.769-7.692 5.77-11.538 17.308l-34.889 123.308q-10.846 34.538 8.923 61.076Q174.923-542 210.231-542Zm538 0q30.923 0 53.384-25 22.462-25 11.616-62.615l-35.923-124.847Q773.461-766 765.769-771T745-776h-87.846l26.077 173.077Q687.769-578 705.369-560q17.6 18 42.862 18Z"/></svg>