<svg xmlns="http://www.w3.org/2000/svg" height="24" viewBox="0 -960 960 960" width="24"><path d="M320-209.23V-240H220q-58.308 0-99.154-40.846T80-380v-200q0-58.308 40.846-99.154T220-720h520q58.308 0 99.154 40.846T880-580v200q0 58.308-40.846 99.154T740-240H640v30.77H320Zm100-240.001q12.385 0 21.577-8.807 9.192-8.808 9.192-21.962 0-12.385-9.192-21.577-9.192-9.192-21.577-9.192-13.154 0-21.962 9.192-8.807 9.192-8.807 21.577 0 13.154 8.807 21.962 8.808 8.807 21.962 8.807Zm-120 0q12.385 0 21.577-8.807 9.192-8.808 9.192-21.962 0-12.385-9.192-21.577-9.192-9.192-21.577-9.192-13.154 0-21.962 9.192-8.807 9.192-8.807 21.577 0 13.154 8.807 21.962 8.808 8.807 21.962 8.807Zm240 0q12.385 0 21.577-8.807 9.192-8.808 9.192-21.962 0-12.385-9.192-21.577-9.192-9.192-21.577-9.192-13.154 0-21.962 9.192-8.807 9.192-8.807 21.577 0 13.154 8.807 21.962 8.808 8.807 21.962 8.807Zm120 0q12.385 0 21.577-8.807 9.192-8.808 9.192-21.962 0-12.385-9.192-21.577-9.192-9.192-21.577-9.192-13.154 0-21.962 9.192-8.807 9.192-8.807 21.577 0 13.154 8.807 21.962 8.808 8.807 21.962 8.807Z"/></svg>