<svg xmlns="http://www.w3.org/2000/svg" height="20" viewBox="0 -960 960 960" width="20"><path d="M340-256v-36H218q-50 0-84-34t-34-84v-188q0-50 34-84t84-34h524q50 0 84 34t34 84v188q0 50-34 84t-84 34H620v36H340Zm70.789-224q9.211 0 16.711-6.85Q435-493.7 435-504q0-8-7.289-16-7.29-8-16.5-8Q401-528 394-520q-7 8-7 16.5 0 9.5 6.789 16.5 6.79 7 17 7ZM276-480q8 0 16-6.85t8-17.15q0-8-8-16t-16.5-8q-9.5 0-16.5 8t-7 16.5q0 9.5 6.85 16.5t17.15 7Zm271.789 0q9.211 0 16.711-6.85Q572-493.7 572-504q0-8-7.289-16-7.29-8-16.5-8Q538-528 531-520q-7 8-7 16.5 0 9.5 6.789 16.5 6.79 7 17 7ZM684-480q8 0 16-6.85t8-17.15q0-8-8-16t-16.5-8q-9.5 0-16.5 8t-7 16.5q0 9.5 6.85 16.5t17.15 7Z"/></svg>