<svg xmlns="http://www.w3.org/2000/svg" height="24" viewBox="0 -960 960 960" width="24"><path d="M286-545q-23 0-38.5-15.569T232-598q0-22.688 15.5-38.844Q263-653 286-653t38.5 16.013q15.5 16.014 15.5 38.5Q340-576 324.5-560.5 309-545 286-545Zm-94 413v-42h-60v-222h100v-31q0-29 20.5-50.5T302-499q18 0 34 8.5t28 22.5l36 43q8 8.286 15.5 15.536T432-396h288v-342q0-25-16.5-43.5T663-800q-11.647 0-22.323 5Q630-790 622-782l-50 51.5q5 17.51 2 34.505T562-664l-74-76q14-9.31 30-11.897 16-2.586 32 3.621L600-800q12.6-13.176 28.744-20.588Q644.888-828 663-828q35.789 0 60.395 26.5Q748-775 748-738v342h80v222h-60v42H192Z"/></svg>