<svg xmlns="http://www.w3.org/2000/svg" height="20" viewBox="0 -960 960 960" width="20"><path d="M293.752-533Q269-533 252.5-549.817 236-566.633 236-590.248q0-24.44 16.748-41.596Q269.496-649 294.248-649t41.252 17.261q16.5 17.261 16.5 41.5T335.252-549.5q-16.748 16.5-41.5 16.5ZM224-148v-50h-76v-190h100v-25q0-26.467 20-46.233Q288-479 315-479q14 0 28 6t23 17l36 31q11 9.286 20.5 18.536Q432-397.214 442-388h278v-336q0-28-17.5-48T658-792q-18.647 0-33.823 10Q609-772 597-760l-30 31.5q5 19.55.5 38.525Q563-671 549-657l-66-66q13-14.31 31-18.897 18-4.586 37 .621L593-784q12.4-13.176 28.287-20.588Q637.175-812 655-812q35.789 0 60.395 27.5Q740-757 740-720v332h72v190h-76v50H224Zm-56-70h624v-150H168v150Zm0 0h624-624Z"/></svg>