<svg xmlns="http://www.w3.org/2000/svg" height="20" viewBox="0 -960 960 960" width="20"><path d="M638.462-598.923Q592-645.385 565.923-704.615q-26.077-59.231-29.769-125.462-1.231-7.308 3.5-13.692 4.731-6.385 12.038-6.385 6.539 0 10.885 5.615 4.346 5.616 4.808 12.924 3.692 58.923 28.231 112.846 24.538 53.923 66.153 96.538 41.616 42.615 96.039 66.654 54.423 24.038 113.346 26.961 7.308.462 12.923 5.193t5.615 11.269q0 7.308-6.384 12.039-6.385 4.73-13.693 3.5-66.23-3.693-125.461-29.77-59.231-26.076-105.692-72.538Zm117.384-117.385q-22.385-23.153-36.308-53.038-13.923-29.885-18.384-62.5-.462-7.077 4.538-12.693 5-5.615 11.539-5.615 7.307 0 11.654 5.5 4.346 5.5 4.269 11.808 2.692 26.308 14.577 50.5 11.884 24.192 31.423 42.731 18.538 19.538 43.115 31.807 24.577 12.269 50.885 14.962 6.308-.077 11.423 4.269t5.115 10.885q0 6.538-5.23 11.538-5.231 5-11.539 4.539-33.385-3.692-63.654-17.616-30.269-13.923-53.423-37.077ZM387.846-424q-43.846 0-73.923-30.077-30.077-30.077-30.077-73.923 0-43.846 30.077-73.923Q344-632 387.846-632q43.846 0 73.923 30.077 30.077 30.077 30.077 73.923 0 43.846-30.077 73.923Q431.692-424 387.846-424Zm-248 223.693v-12.308q0-19.616 8.923-32.27 8.923-12.653 27.308-23.577 52.692-29.692 109.077-44 56.384-14.307 102.692-14.307 45.308 0 101.693 14.307 56.384 14.308 110.077 44 17.384 10.924 26.807 23.577 9.423 12.654 9.423 32.27v12.308q0 14.615-9.461 24.077-9.462 9.461-24.077 9.461H173.385q-14.616 0-24.078-9.461-9.461-9.462-9.461-24.077Z"/></svg>