<svg xmlns="http://www.w3.org/2000/svg" height="20" viewBox="0 -960 960 960" width="20"><path d="M650.74-602.174q-48-48-76.283-107.718-28.283-59.717-34.848-126.717-2.565-17.826 10.196-31.37t31.152-13.544q18.392 0 30.87 12.696 12.479 12.696 16.174 31.087 7.131 48.044 29.283 91.935 22.152 43.891 56.891 80.195 35.304 36.304 79.413 57.674 44.108 21.369 92.152 27.935 18.391 3.695 31.087 16.456 12.696 12.761 12.696 31.153 0 18.391-13.261 31.152-13.261 12.761-31.088 10.196-66.434-6.565-126.434-34.848-60-28.282-108-76.282Zm108.783-108.783q-25.305-25.305-42.022-58.109t-23.848-68.543q-3.13-16.826 9.413-30.37 12.544-13.544 30.935-13.544 18.957 0 32.283 13.044 13.327 13.044 20.849 29.305 3.304 18.347 12.825 34.76 9.522 16.413 23 29.456 12.478 13.478 29.173 23.282 16.696 9.804 35.043 13.109 16.261 7.522 29.305 21.131 13.044 13.608 13.044 32 0 18.391-13.544 31.218-13.544 12.826-30.37 9.13-36.304-6.565-68.543-23.282-32.239-16.718-57.543-42.587ZM372.695-403.784q-68.479 0-115.848-47.369-47.37-47.37-47.37-115.849 0-68.479 47.37-115.849 47.369-47.369 115.848-47.369t115.849 47.369q47.369 47.37 47.369 115.849 0 68.479-47.087 115.849-47.087 47.369-116.131 47.369ZM65.477-175.913v-13.783q0-33.478 17.37-58.935 17.369-25.457 40.369-39.457 55-32 120.24-49.848 65.239-17.848 129.239-17.848 63 0 128.239 17.283 65.24 17.283 121.24 49.283 22 14 39.87 40.022 17.869 26.022 17.869 59.5v13.783q0 41.304-28.348 69.653-28.348 28.348-69.653 28.348H163.478q-41.305 0-69.653-28.348-28.348-28.349-28.348-69.653Z"/></svg>