<svg xmlns="http://www.w3.org/2000/svg" height="24" viewBox="0 -960 960 960" width="24"><path d="M663.462-671.923Q621-714.385 596.423-768.615q-24.577-54.231-29.269-114.462-1.231-9.308 4.5-16.192 5.731-6.885 15.038-6.885 8.539 0 14.385 6.115 5.846 6.116 6.308 15.424 3.692 51.923 25.731 99.846 22.038 47.923 58.653 84.538 36.616 36.615 84.539 58.654 47.923 22.038 99.846 25.961 9.308.462 15.423 6.193t6.115 14.269q0 9.308-6.884 15.039-6.885 5.73-16.193 4.5-60.23-4.693-114.461-29.27-54.231-24.576-96.692-67.038Zm127.384-127.385q-17.385-18.153-28.308-40.038-10.923-21.885-14.384-46.5-1.462-8.077 4.538-14.193 6-6.115 14.539-6.115 8.307 0 14.154 5.5 5.846 5.5 7.769 13.808 2.692 16.308 10.077 31.5 7.384 15.192 19.923 27.731 12.538 12.538 27.615 19.807 15.077 7.269 31.385 9.962 8.308 1.923 13.923 7.769t5.615 14.385q0 8.538-6.23 14.538-6.231 6-14.539 4.539-24.385-3.692-46.154-14.616-21.769-10.923-39.923-28.077ZM403.846-480q-49.846 0-84.923-35.077-35.077-35.077-35.077-84.923 0-49.846 35.077-84.923Q354-720 403.846-720q49.846 0 84.923 35.077 35.077 35.077 35.077 84.923 0 49.846-35.077 84.923Q453.692-480 403.846-480Zm-280 247.693v-24.308q0-27.616 13.923-47.77 13.923-20.153 39.308-32.077 48.692-23.692 108.077-39 59.384-15.307 118.692-15.307 59.308 0 118.693 15.307 59.384 15.308 108.077 39 25.384 11.924 39.307 32.077 13.923 20.154 13.923 47.77v24.308q0 17.615-11.961 29.577-11.962 11.961-29.577 11.961H165.385q-17.616 0-29.578-11.961-11.961-11.962-11.961-29.577Z"/></svg>