<svg xmlns="http://www.w3.org/2000/svg" height="20" viewBox="0 -960 960 960" width="20"><path d="M17-290v-56q0-63.918 58-86.959Q133-456 184-456t109 22.541q58 22.541 58 87.459v56H17Zm167.133-182Q145-472 117-500.075q-28-28.075-28-67.5t28.075-66.925q28.075-27.5 67.5-27.5t66.925 27.867q27.5 27.868 27.5 67Q279-528 251.133-500q-27.868 28-67 28ZM392-374q-13.6 0-22.8-8.7-9.2-8.7-9.2-22.3 0-6 9-23 10-11 15-24t5-26.787q0-13.787-5-28T369-531q-3.889-3.938-6.444-9.369Q360-545.8 360-552.267q0-14.011 8.983-23.372Q377.967-585 390.559-585q6.882 0 13.662 2 6.779 2 9.779 7 19 18 28.5 43.109Q452-507.781 452-480q0 27-10.5 56.5T410-378q-3 3-8 3.5t-10 .5Zm106.581 107Q486-267 477-276.208q-9-9.209-9-23.292 0-6.5 2.5-12.5t6.052-9Q506-348 522.5-390t16.5-89q0-47-15.5-89t-45.948-69Q474-640 471-646.875q-3-6.875-3-13.862 0-13.198 9.067-21.731Q486.133-691 500-691q5.741 0 10.662 2 4.921 2 8.338 5 40 34 61.5 88.5T602-479q0 62-21 116.5T519-274q-3 3-8.323 5-5.322 2-12.096 2ZM609-290v-56q0-64.918 57.3-87.459Q723.6-456 776-456q51 0 109 23.041T943-346v56H609Zm167.133-182Q737-472 709-500.075q-28-28.075-28-67.5t28.075-66.925q28.075-27.5 67.5-27.5t66.925 27.867q27.5 27.868 27.5 67Q871-528 843.133-500q-27.868 28-67 28Z"/></svg>