<svg xmlns="http://www.w3.org/2000/svg" height="20" viewBox="0 -960 960 960" width="20"><path d="M729.339-48q-79.774 0-135.774-56.226t-56-136q0-79.774 56.227-135.774 56.226-56 136-56 79.773 0 135.773 56.226t56 136q0 79.774-56.226 135.774t-136 56Zm55.226-100.37L820.957-185l-65.718-65.761v-87.152h-51.587v108.63l80.913 80.913ZM524.413-573.848H789.13v77.457q23.109 4.282 43.359 12.761 20.25 8.478 39.642 20.913v-313.414H87.869v592.262h384.805q-4.913-20.392-6.63-41.381-1.718-20.989.521-41.62H170.87v-426.26h353.543v119.282ZM170.87-266.87v-426.26 426.26Z"/></svg>