<svg xmlns="http://www.w3.org/2000/svg" height="24" viewBox="0 -960 960 960" width="24"><path d="M729.565-40q-83 0-141.5-58.5t-58.5-141.5q0-83 58.5-141.5t141.5-58.5q83 0 141.5 58.5t58.5 141.5q0 83-58.5 141.5T729.565-40Zm66-103.37L825.957-174l-74.718-74.761v-113.152h-43.587v130.63l87.913 87.913ZM516.413-557.848H797.13v47.457q25.109 6.282 47.859 16.261 22.75 9.978 43.142 24.413v-338.414H71.869v656.262h392.805q-7.913-21.392-11.63-44.381-3.718-22.989-3.479-46.62H162.87v-474.26h353.543v159.282ZM162.87-242.87v-474.26 474.26Z"/></svg>