<svg xmlns="http://www.w3.org/2000/svg" height="24" viewBox="0 -960 960 960" width="24"><path d="M795.565-143.37 825.957-174l-74.718-74.761v-113.152h-43.587v130.63l87.913 87.913ZM516.413-557.848H797.13V-717.13H516.413v159.282ZM729.565-40q-83 0-141.5-58.5t-58.5-141.5q0-83 58.5-141.5t141.5-58.5q83 0 141.5 58.5t58.5 141.5q0 83-58.5 141.5T729.565-40ZM71.869-151.869v-656.262h816.262v338.414q-34.761-24.522-75.946-37.403Q771-520 728.326-520q-115.282 0-196.543 80.924-81.261 80.924-82.218 196.206-.239 23.631 3.479 46.62 3.717 22.989 11.63 44.381H71.869Z"/></svg>