<svg xmlns="http://www.w3.org/2000/svg" height="20" viewBox="0 -960 960 960" width="20"><path d="M200-244q-22.7 0-37.35-14.662Q148-273.324 148-296.04v-368.243Q148-687 162.65-701.5T200-716h560q22.7 0 37.35 14.662Q812-686.676 812-663.96v368.243Q812-273 797.35-258.5T760-244H200Zm290-20h270q12 0 22-10t10-22v-368q0-12-10-22t-22-10H490v432Zm230-88q8.067 0 14.033-5.953 5.967-5.954 5.967-14Q740-380 734.033-386q-5.966-6-14.033-6H574q-8.067 0-14.033 5.953-5.967 5.954-5.967 14Q554-364 559.967-358q5.966 6 14.033 6h146Zm0-108q8.067 0 14.033-5.953 5.967-5.954 5.967-14Q740-488 734.033-494q-5.966-6-14.033-6H574q-8.067 0-14.033 5.953-5.967 5.954-5.967 14Q554-472 559.967-466q5.966 6 14.033 6h146Zm0-108q8.067 0 14.033-5.953 5.967-5.954 5.967-14Q740-596 734.033-602q-5.966-6-14.033-6H574q-8.067 0-14.033 5.953-5.967 5.954-5.967 14Q554-580 559.967-574q5.966 6 14.033 6h146Z"/></svg>