<svg xmlns="http://www.w3.org/2000/svg" height="24" viewBox="0 -960 960 960" width="24"><path d="M172-126q-53 0-89.5-36.5T46-252v-456q0-53 36.5-89.5T172-834h616q53 0 89.5 36.5T914-708v456q0 53-36.5 89.5T788-126H172Zm356-126h260v-456H528v456Zm183-85q16.033 0 26.517-10.767Q748-358.533 748-375q0-16.033-10.767-26.517Q726.467-412 710-412H605q-16.033 0-26.517 10.477Q568-391.047 568-375.023 568-359 578.483-348q10.484 11 26.517 11h106Zm-1-115q16.467 0 27.233-10.767Q748-473.533 748-490t-10.767-27.233Q726.467-528 710-528H606q-16.467 0-27.233 10.767Q568-506.467 568-490t10.767 27.233Q589.533-452 606-452h104Zm1-116q16.033 0 26.517-10.767Q748-589.533 748-606q0-16.033-10.767-26.517Q726.467-643 710-643H605q-16.033 0-26.517 10.477Q568-622.047 568-606.023 568-590 578.483-579q10.484 11 26.517 11h106Z"/></svg>