<svg xmlns="http://www.w3.org/2000/svg" height="24" viewBox="0 -960 960 960" width="24"><path d="M166.783-140.782q-44.305 0-75.153-30.848-30.848-30.848-30.848-75.153v-466.434q0-44.305 30.848-75.153 30.848-30.848 75.153-30.848h626.434q44.305 0 75.153 30.848 30.848 30.848 30.848 75.153v466.434q0 44.305-30.848 75.153-30.848 30.848-75.153 30.848H166.783Zm357.739-106.001h268.695v-466.434H524.522v466.434ZM719.26-346.999q14.715 0 24.336-9.782 9.621-9.781 9.621-24.74 0-14.715-9.781-24.336-9.781-9.621-24.741-9.621H598.479q-14.715 0-24.336 9.617-9.621 9.618-9.621 24.327 0 14.708 9.621 24.622 9.621 9.913 24.336 9.913H719.26Zm-.565-108.479q14.96 0 24.741-9.781 9.781-9.781 9.781-24.741 0-14.96-9.781-24.741-9.781-9.781-24.741-9.781H599.044q-14.96 0-24.741 9.781-9.781 9.781-9.781 24.741 0 14.96 9.781 24.741 9.781 9.781 24.741 9.781h119.651Zm.565-109.044q14.715 0 24.336-9.781 9.621-9.781 9.621-24.741 0-14.715-9.781-24.336-9.781-9.621-24.741-9.621H598.479q-14.715 0-24.336 9.618-9.621 9.617-9.621 24.326t9.621 24.622q9.621 9.913 24.336 9.913H719.26Z"/></svg>