<svg xmlns="http://www.w3.org/2000/svg" height="20" viewBox="0 -960 960 960" width="20"><path d="M498-117 183-432h102l264 264 192-192h-57.231q-15.202 0-25.485-10.289Q648-380.579 648-395.789 648-411 658.334-421.5q10.334-10.5 25.611-10.5h143.779Q843-432 853.5-421.666t10.5 25.611v143.779Q864-237 853.711-226.5q-10.29 10.5-25.5 10.5Q813-216 802.5-226.284 792-236.567 792-251.769V-309L600-117q-20.7 22-50.85 22Q519-95 498-117ZM132.276-528Q117-528 106.5-538.334T96-563.945v-143.779Q96-723 106.289-733.5q10.29-10.5 25.5-10.5Q147-744 157.5-733.716q10.5 10.283 10.5 25.485V-651l192-192q20.7-21 50.85-21Q441-864 462-843l315 315H675L411-792 219-600h57.231q15.202 0 25.485 10.289Q312-579.421 312-564.211 312-549 301.666-538.5 291.332-528 276.055-528H132.276Z"/></svg>