<svg xmlns="http://www.w3.org/2000/svg" height="24" viewBox="0 -960 960 960" width="24"><path d="m195-588 125-69v222.385q-10.231 1.23-20.231 2.269-10 1.038-19.769 4.423v-160.769L208.231-549q-11.693 6.462-24.616 3.116-12.923-3.346-19.384-15.039l-48.462-84.385q-6.462-11.692-3.115-24.731 3.346-13.038 15.038-19.5l167.462-96.538q5.846-3.154 11.923-5.077t13.154-1.923q6.308 0 10.923 3.5t7.308 9.577q17.077 45.692 53.807 72.846Q429-680 480-680q51 0 87.731-27.154 36.73-27.154 53.807-72.846 2.693-6.077 7.423-9.577 4.731-3.5 11.039-3.5 7.077 0 13.038 1.923 5.962 1.923 11.808 5.077l167.462 96.538q11.692 6.462 14.923 19.385 3.231 12.923-3.231 24.615l-48.231 83.847q-6.461 11.692-19.384 15.423T751.769-549L680-588.692v281.23L653.154-284q-2.462 2.231-6.077 3.962-3.615 1.73-7.077 2.961V-657l125 69 40-70-153-89q-24 49-70.115 78Q535.769-640 480-640q-55.769 0-101.885-29Q332-698 308-747l-154 89 41 70Zm285-52ZM175.385-247.307q-5.616-6.847-4.885-14.885.731-8.039 7.577-13.654l56-48q20.692-17.692 47.115-27.039 26.423-9.346 53.808-9.346t53.308 9.346q25.923 9.347 46.615 27.039l116 99Q566-211.769 585.962-205.5q19.961 6.269 40.038 6.269 20.308 0 39.654-6.154 19.346-6.153 34.423-19.461l56-48.769q6.846-5.616 14.885-5 8.038.615 13.653 7.461 5.616 6.846 4.885 14.885-.731 8.038-7.577 13.654l-56 48q-20.692 17.692-46.615 26.538-25.923 8.846-53.308 8.846t-53.808-8.846q-26.423-8.846-47.115-26.538l-116-99Q394-306.692 374.654-312.961q-19.346-6.27-39.654-6.27-20.077 0-40.038 6.27-19.962 6.269-35.039 19.346l-57 48q-6.846 5.615-14.385 5.384-7.538-.23-13.153-7.076Z"/></svg>