<svg xmlns="http://www.w3.org/2000/svg" height="24" viewBox="0 -960 960 960" width="24"><path d="M136.923-390v-173.846q0-9.923 7.346-16.885 7.346-6.961 17.269-6.961h115.385q14.769 0 25.077 11.077 10.308 11.077 10.308 25.846v66.154q0 14.769-10.308 25.077-10.308 10.307-25.077 10.307H172.308V-390q0 7.667-5.003 12.68-5.003 5.012-12.654 5.012t-12.69-5.012q-5.038-5.013-5.038-12.68ZM400-390v-180q0-7.667 5.003-12.68 5.002-5.012 12.653-5.012 7.652 0 12.69 5.012 5.039 5.013 5.039 12.68v62.308H540V-570q0-7.667 5.003-12.68 5.002-5.012 12.653-5.012 7.652 0 12.69 5.012 5.039 5.013 5.039 12.68v180q0 7.667-5.003 12.68-5.003 5.012-12.654 5.012t-12.69-5.012Q540-382.333 540-390v-82.308H435.385V-390q0 7.667-5.003 12.68-5.003 5.012-12.654 5.012t-12.69-5.012Q400-382.333 400-390Zm269.231 0v-173.846q0-9.923 7.346-16.885 7.346-6.961 17.269-6.961h115.385q14.769 0 25.077 11.077 10.307 11.077 10.307 25.846v66.154q0 14.769-10.307 25.077-10.308 10.307-25.077 10.307H704.615V-390q0 7.667-5.002 12.68-5.003 5.012-12.654 5.012t-12.69-5.012q-5.038-5.013-5.038-12.68Zm-496.923-94.615h104.615v-66.154H172.308v66.154Zm532.307 0h104.616v-66.154H704.615v66.154Z"/></svg>