<svg xmlns="http://www.w3.org/2000/svg" height="20" viewBox="0 -960 960 960" width="20"><path d="M174-46q-49.7 0-83.85-34.15Q56-114.3 56-164v-632q0-49.7 34.15-83.85Q124.3-914 174-914h281q49.7 0 83.85 34.15Q573-845.7 573-796v632q0 49.7-34.15 83.85Q504.7-46 455-46H174Zm-10-498q15-7 32.29-11.5Q213.581-560 232-560h165q18.419 0 35.71 4.5Q450-551 465-544v-262H164v262Zm150.788-62Q283-606 261.5-627.712q-21.5-21.713-21.5-53.5Q240-713 261.712-734.5q21.713-21.5 53.5-21.5Q347-756 368.5-734.288q21.5 21.713 21.5 53.5Q390-649 368.288-627.5q-21.713 21.5-53.5 21.5ZM264-254.233v3.116q0 20.35 14.35 34.734Q292.7-202 313-202q20.3 0 34.65-14.383Q362-230.767 362-251.117v-3.116h3q20.3 0 34.65-14.384Q414-283 414-303.211q0-20.21-14.35-34.5Q385.3-352 365-352h-3v-2.789Q362-375 347.711-389.5q-14.29-14.5-34.5-14.5-20.211 0-34.594 14.35-14.384 14.35-14.384 34.65v3h-3.116q-20.35 0-34.734 14.35Q212-323.3 212-303q0 20 14.35 34.383 14.35 14.384 34.65 14.384h3ZM735-308q-15-15-16-35.167-1-20.166 12-35.833l16-16h-72q-22.3 0-38.15-15.789-15.85-15.79-15.85-38Q621-471 636.85-487T675-503h72l-17-18q-13-16-11.5-36t16.5-35q16-16 38-15.5t38 16.5l99 99q18 17.909 18 42.455Q928-425 910-407l-100 99q-15.636 16-37.318 16T735-308Z"/></svg>