<svg xmlns="http://www.w3.org/2000/svg" height="24" viewBox="0 -960 960 960" width="24"><path d="M163.391-51.738q-44.304 0-75.153-30.848-30.848-30.848-30.848-75.153v-644.522q0-44.305 30.848-75.153 30.849-30.848 75.153-30.848h328.912q44.305 0 75.153 30.848 30.848 30.848 30.848 75.153v644.522q0 44.305-30.848 75.153-30.848 30.848-75.153 30.848H163.391Zm-5.652-496.871q16.304-8.174 34.043-12.043 17.739-3.87 36.913-3.87h198.304q19.174 0 36.913 3.87 17.739 3.869 34.043 12.043v-259.304H157.739v259.304Zm170.391-55.913q-34.131 0-57.913-23.783-23.783-23.782-23.783-57.913 0-34.13 23.783-57.913 23.782-23.782 57.913-23.782 34.13 0 57.913 23.782 23.783 23.783 23.783 57.913 0 34.131-23.783 57.913-23.783 23.783-57.913 23.783Zm-48.479 343.74v21.347q0 19.826 13.761 33.587 13.761 13.761 33.587 13.761 19.827 0 33.588-13.761t13.761-33.587v-21.347h21.346q19.827 0 33.588-13.761t13.761-33.587q0-19.826-13.761-33.587-13.761-13.761-33.588-13.761h-21.346v-21.347q0-19.826-13.761-33.587-13.761-13.761-33.588-13.761-19.826 0-33.587 13.761-13.761 13.761-13.761 33.587v21.347h-21.347q-19.826 0-33.587 13.761-13.761 13.761-13.761 33.587 0 19.826 13.761 33.587 13.761 13.761 33.587 13.761h21.347Zm467.827-77.26q-14.261-14.261-14.826-33.87-.565-19.609 12.565-34.435l6.521-6.521h-63.259q-20.957 0-35.566-14.609-14.609-14.609-14.609-35.566 0-20.956 14.609-35.565 14.609-14.609 35.566-14.609h63.259l-6.521-6.521q-13.13-14.827-12.565-34.435.565-19.609 14.826-33.87 14.826-14.827 35.348-14.827t35.348 14.827l86.827 87.391q15.956 15.957 15.956 37.609 0 21.653-15.956 37.61l-87.392 87.391q-14.826 14.826-35.065 14.826-20.24 0-35.066-14.826Z"/></svg>