<svg xmlns="http://www.w3.org/2000/svg" height="20" viewBox="0 -960 960 960" width="20"><path d="M201.846-136q-23.354 0-39.985-16.631-16.631-16.63-16.631-39.984v-574.77q0-23.354 16.631-39.984Q178.492-824 201.846-824h286.769q23.354 0 39.985 16.631 16.631 16.63 16.631 39.984v574.77q0 23.354-16.631 39.984Q511.969-136 488.615-136H201.846Zm-24.615-340.231q15.692-16.615 37.367-26.192Q236.273-512 261.231-512h168q24.958 0 46.632 9.577 21.675 9.577 37.368 26.192v-291.154q0-10.769-6.923-17.692T488.615-792H201.846q-10.769 0-17.692 6.923t-6.923 17.692v291.154ZM345.018-598q-22.095 0-36.941-15.059-14.846-15.058-14.846-37.154 0-22.095 15.058-36.941Q323.348-702 345.443-702q22.095 0 36.942 15.058 14.846 15.059 14.846 37.154 0 22.096-15.059 36.942Q367.114-598 345.018-598Zm-15.787 289.767v56.116q0 6.85 4.607 11.484 4.608 4.633 11.42 4.633 6.811 0 11.392-4.633 4.581-4.634 4.581-11.484v-56.116h56q6.8 0 11.4-4.641 4.6-4.641 4.6-11.364 0-6.722-4.6-11.242-4.6-4.52-11.4-4.52h-56v-55.789q0-6.711-4.547-11.461-4.548-4.75-11.27-4.75-6.722 0-11.336 4.6t-4.614 11.4v56h-56.117q-6.849 0-11.483 4.608-4.633 4.607-4.633 11.419 0 6.512 4.6 11.126t11.4 4.614h56Zm407.231-66.613q-5.231-4.846-4.847-11.436.385-6.59 5.231-11.103L802.461-463H640q-6.8 0-11.4-4.547-4.6-4.547-4.6-11.269 0-6.723 4.6-11.453Q633.2-495 640-495h162.461l-66.615-67.615q-4.846-4.846-4.731-11.27.116-6.423 5.347-11.269Q741.692-590 748-589.5t11.154 5.346l84.769 84.539q8.693 8.601 8.693 20.07 0 11.468-8.693 20.16l-85.538 84.539Q753.832-370 747.762-370q-6.07 0-11.3-4.846Z"/></svg>