<svg xmlns="http://www.w3.org/2000/svg" height="24" viewBox="0 -960 960 960" width="24"><path d="M60.002-220.001v-519.998h839.997v519.998H60.001ZM170-280v-400H120v400h50.001Zm59.998 0h500.002v-400H229.999v400Zm560 0H840v-400h-50.001v400ZM170.001-680H120h50.001Zm619.998 0H840h-50.001ZM530-452.308q-12 0-19.846-7.846T502.308-480q0-12 7.846-19.846T530-507.692q12 0 19.846 7.846T557.692-480q0 12-7.846 19.846T530-452.308Zm-200 0q-12 0-19.846-7.846T302.308-480q0-12 7.846-19.846T330-507.692q12 0 19.846 7.846T357.692-480q0 12-7.846 19.846T330-452.308Zm300 0q-12 0-19.846-7.846T602.308-480q0-12 7.846-19.846T630-507.692q12 0 19.846 7.846T657.692-480q0 12-7.846 19.846T630-452.308Zm-200 0q-12 0-19.846-7.846T402.308-480q0-12 7.846-19.846T430-507.692q12 0 19.846 7.846T457.692-480q0 12-7.846 19.846T430-452.308Z"/></svg>