<svg xmlns="http://www.w3.org/2000/svg" height="20" viewBox="0 -960 960 960" width="20"><path d="M88-232v-496h784v496H88Zm132-32h520v-432H220v432Zm92-196.615q-8.4 0-13.892-5.493-5.493-5.492-5.493-13.892 0-8.4 5.493-13.892 5.492-5.493 13.892-5.493 8.4 0 13.892 5.493 5.493 5.492 5.493 13.892 0 8.4-5.493 13.892-5.492 5.493-13.892 5.493Zm104 0q-8.4 0-13.892-5.493-5.493-5.492-5.493-13.892 0-8.4 5.493-13.892 5.492-5.493 13.892-5.493 8.4 0 13.892 5.493 5.493 5.492 5.493 13.892 0 8.4-5.493 13.892-5.492 5.493-13.892 5.493Zm208 0q-8.4 0-13.892-5.493-5.493-5.492-5.493-13.892 0-8.4 5.493-13.892 5.492-5.493 13.892-5.493 8.4 0 13.892 5.493 5.493 5.492 5.493 13.892 0 8.4-5.493 13.892-5.492 5.493-13.892 5.493Zm-104 0q-8.4 0-13.892-5.493-5.493-5.492-5.493-13.892 0-8.4 5.493-13.892 5.492-5.493 13.892-5.493 8.4 0 13.892 5.493 5.493 5.492 5.493 13.892 0 8.4-5.493 13.892-5.492 5.493-13.892 5.493Z"/></svg>