<svg xmlns="http://www.w3.org/2000/svg" height="24" viewBox="0 -960 960 960" width="24"><path d="M94.999-286.783v-386.434q0-43.726 31.138-74.863 31.137-31.138 74.863-31.138h559q43.726 0 74.863 31.138 31.138 31.137 31.138 74.863v386.434q0 43.726-31.138 74.863-31.137 31.138-74.863 31.138H201q-43.726 0-74.863-31.138-31.138-31.137-31.138-74.863ZM627-520h133v-153.217H627V-520Zm-213 0h133v-153.217H414V-520Zm-213 0h133v-153.217H201V-520Zm0 233.217h133V-440H201v153.217Zm213 0h133V-440H414v153.217Zm213 0h133V-440H627v153.217Z"/></svg>