<svg xmlns="http://www.w3.org/2000/svg" height="20" viewBox="0 -960 960 960" width="20"><path d="M164.386-324.309v-311.382q0-25.827 18.89-45.067 18.891-19.241 45.417-19.241h502.614q26.526 0 45.417 19.241 18.89 19.24 18.89 45.067v311.382q0 25.827-18.89 45.067-18.891 19.241-45.417 19.241H228.693q-26.526 0-45.417-19.241-18.89-19.24-18.89-45.067Zm438.151-182.69h141.078v-128.692q0-5.385-3.461-8.847-3.462-3.462-8.847-3.462h-128.77v141.001Zm-193.076 0h141.078V-648H409.461v141.001Zm-193.076 0h141.078V-648h-128.77q-5.385 0-8.847 3.462-3.461 3.462-3.461 8.847v128.692ZM228.693-312h128.77v-143.001H216.385v130.692q0 5.385 3.461 8.847 3.462 3.462 8.847 3.462Zm180.768 0h141.078v-143.001H409.461V-312Zm193.076 0h128.77q5.385 0 8.847-3.462 3.461-3.462 3.461-8.847v-130.692H602.537V-312Z"/></svg>