<svg xmlns="http://www.w3.org/2000/svg" height="24" viewBox="0 -960 960 960" width="24"><path d="M649.691-497.692q-15.365 0-25.759-10.394-10.395-10.394-10.395-25.76v-157.692q0-15.365 10.395-25.759 10.394-10.394 25.759-10.394H783.46q15.366 0 25.76 10.394 10.394 10.394 10.394 25.759v157.692q0 15.366-10.394 25.76-10.394 10.394-25.76 10.394H649.691Zm-234.537 0q-15.365 0-25.759-10.394Q379-518.48 379-533.846v-157.692q0-15.365 10.395-25.759 10.394-10.394 25.759-10.394h130.692q15.365 0 25.759 10.394Q582-706.903 582-691.538v157.692q0 15.366-10.395 25.76-10.394 10.394-25.759 10.394H415.154Zm-237.614 0q-15.366 0-25.76-10.394-10.394-10.394-10.394-25.76v-157.692q0-15.365 10.394-25.759t25.76-10.394h133.769q15.365 0 25.759 10.394 10.395 10.394 10.395 25.759v157.692q0 15.366-10.395 25.76-10.394 10.394-25.759 10.394H177.54Zm0 265.383q-15.366 0-25.76-10.394-10.394-10.394-10.394-25.759v-157.692q0-15.366 10.394-25.76 10.394-10.394 25.76-10.394h133.769q15.365 0 25.759 10.394 10.395 10.394 10.395 25.76v157.692q0 15.365-10.395 25.759-10.394 10.394-25.759 10.394H177.54Zm237.614 0q-15.365 0-25.759-10.394Q379-253.097 379-268.462v-157.692q0-15.366 10.395-25.76 10.394-10.394 25.759-10.394h130.692q15.365 0 25.759 10.394Q582-441.52 582-426.154v157.692q0 15.365-10.395 25.759-10.394 10.394-25.759 10.394H415.154Zm234.537 0q-15.365 0-25.759-10.394-10.395-10.394-10.395-25.759v-157.692q0-15.366 10.395-25.76 10.394-10.394 25.759-10.394H783.46q15.366 0 25.76 10.394 10.394 10.394 10.394 25.76v157.692q0 15.365-10.394 25.759t-25.76 10.394H649.691Z"/></svg>