<svg xmlns="http://www.w3.org/2000/svg" height="20" viewBox="0 -960 960 960" width="20"><path d="M638.691-501.692q-13.365 0-20.759-6.894-7.395-6.894-7.395-20.26v-146.692q0-13.665 8.957-22.909t22.197-9.244H763.16q13.793 0 23.123 9.228 9.331 9.228 9.331 22.87v141.471q0 13.642-9.244 23.036-9.244 9.394-22.91 9.394H638.691Zm-217.237 0q-13.665 0-23.059-9.228Q389-520.149 389-533.79v-141.471q0-13.642 9.245-23.036 9.244-9.394 22.909-9.394h117.392q13.665 0 23.059 9.228 9.395 9.228 9.395 22.87v141.471q0 13.642-9.245 23.036-9.244 9.394-22.909 9.394H421.454Zm-225.914 0q-12.366 0-21.76-9.228-9.394-9.229-9.394-22.87v-141.471q0-13.642 9.394-23.036 9.394-9.394 21.76-9.394h122.769q12.365 0 21.759 9.228 9.395 9.228 9.395 22.87v141.471q0 13.642-9.395 23.036-9.394 9.394-21.759 9.394H195.54Zm0 249.383q-12.366 0-21.76-9.894-9.394-9.894-9.394-22.259v-142.692q0-12.366 9.394-21.76 9.394-9.394 21.76-9.394h122.769q12.365 0 21.759 9.394 9.395 9.394 9.395 21.76v142.692q0 12.365-9.395 22.259-9.394 9.894-21.759 9.894H195.54Zm225.914 0q-13.665 0-23.059-9.894Q389-272.097 389-284.462v-142.692q0-12.366 9.245-21.76 9.244-9.394 22.909-9.394h117.392q13.665 0 23.059 9.394Q571-439.52 571-427.154v142.692q0 12.365-9.245 22.259-9.244 9.894-22.909 9.894H421.454Zm220.627 0q-13.755 0-22.649-9.894-8.895-9.894-8.895-22.259v-142.692q0-12.366 8.957-21.76 8.957-9.394 22.197-9.394H763.16q13.793 0 23.123 9.394 9.331 9.394 9.331 21.76v142.692q0 12.365-9.305 22.259-9.304 9.894-23.059 9.894H642.081Z"/></svg>