<svg xmlns="http://www.w3.org/2000/svg" height="20" viewBox="0 -960 960 960" width="20"><path d="M480.239-135.869q-71.435 0-134.122-27.198-62.688-27.198-109.15-73.66-46.463-46.463-73.661-109.15Q136.109-408.565 136.109-480q0-71.435 27.197-134.123 27.198-62.687 73.661-109.15 46.462-46.462 109.15-73.66 62.687-27.198 134.122-27.198 81.478 0 150.218 34.522 68.739 34.522 115.934 94.044v-126.413h75.587V-576H575.522v-76.065h100.304q-35.19-41.931-85.823-65.498-50.633-23.567-109.764-23.567-107.804 0-184.467 76.663Q219.109-587.804 219.109-480q0 107.804 76.663 184.467 76.663 76.663 184.467 76.663 107.804 0 184.348-76.663Q741.13-372.196 741.37-480h82.761q.239 143.587-100.153 243.859-100.391 100.272-243.739 100.272Zm98.087-206.218-136-136V-672h75.587v162l114.283 114.043-53.87 53.87Z"/></svg>