<svg xmlns="http://www.w3.org/2000/svg" height="20" viewBox="0 -960 960 960" width="20"><path d="M480-144q-70 0-131.133-26.6-61.134-26.6-106.4-71.867-45.267-45.266-71.867-106.4Q144-410 144-480t26.6-131.133q26.6-61.134 71.867-106.4 45.266-45.267 106.4-71.867Q410-816 480-816q81 0 149.5 35T744-686v-130h72v240H576v-72h107q-35.907-44.8-88.453-70.4Q542-744 480-744q-109 0-186.5 77.5T216-480q0 109 77.5 186.5T480-216q109 0 186.5-77.5T744-480h72q0 140-98 238t-238 98Zm100-200L444-480v-192h72v162l115 115-51 51Z"/></svg>