<svg xmlns="http://www.w3.org/2000/svg" height="20" viewBox="0 -960 960 960" width="20"><path d="M480.769-184q-61.538 0-115.364-23.138-53.826-23.139-94.092-63.405-40.267-40.267-63.406-94.093Q184.769-418.461 184.769-480t23.138-115.364q23.139-53.826 63.406-94.093 40.266-40.266 94.092-63.405Q419.231-776 480.769-776q67.923 0 125.27 28.461 57.346 28.462 98.73 75.385v-131.538h32.001v166.154H570.615v-32h96.231q-36.676-34.8-83.838-54.631Q535.846-744 480.769-744q-109 0-186.5 77.5t-77.5 186.5q0 109 77.5 186.5t186.5 77.5q109 0 185.731-77.885Q743.231-371.769 745.538-480H776q.769 123.846-85.307 209.923Q604.615-184 480.769-184Zm113.846-173.846L464.769-487.692V-672h32v169.692l121.154 121.154-23.308 23.308Z"/></svg>