<svg xmlns="http://www.w3.org/2000/svg" height="20" viewBox="0 -960 960 960" width="20"><path d="M481-196q-59 0-110.633-22.1-51.634-22.1-90.4-60.867-38.767-38.766-60.867-90.4Q197-421 197-480q0-59 22.1-110.633 22.1-51.634 60.867-90.4 38.766-38.767 90.4-60.867Q422-764 481-764q64 0 118 26.5t94 69.5v-132h20v144H569v-20h93q-36.907-31.8-82.453-49.9Q534-744 481-744q-109 0-186.5 77.5T217-480q0 109 77.5 186.5T481-216q109 0 185.5-78T746-480h18q1 119-81.5 201.5T481-196Zm118-166L471-490v-182h20v172l123 123-15 15Z"/></svg>