<svg xmlns="http://www.w3.org/2000/svg" height="20" viewBox="0 -960 960 960" width="20"><path d="M632.457-185.065 494.826-323.696l52.631-53.391 85 85 187-186 53.63 52.391-240.63 240.631Zm-249.414-299q-63.587 0-107.858-44.272-44.272-44.272-44.272-107.859 0-63.587 44.272-107.739 44.271-44.152 107.858-44.152t107.859 44.152q44.272 44.152 44.272 107.739t-44.272 107.859q-44.272 44.272-107.859 44.272Zm103.414 61.195-97.414 99.174 142.653 143.892H86.913v-100.609q0-28.152 13.935-51.565 13.934-23.413 37.608-37.37 54-32 116.794-49.359 62.793-17.358 127.793-17.358 23 0 50.207 3.598 27.207 3.597 53.207 9.597Z"/></svg>