<svg xmlns="http://www.w3.org/2000/svg" height="20" viewBox="0 -960 960 960" width="20"><path d="M616-219.692 508.692-328 531-351.308l85 85 187-186L826.308-430 616-219.692ZM381.692-504.615q-43.5 0-73.75-30.25t-30.25-73.75q0-43.501 30.25-73.751 30.25-30.25 73.75-30.25t73.751 30.25q30.25 30.25 30.25 73.751 0 43.5-30.25 73.75-30.251 30.25-73.751 30.25Zm76 104.615-70 72 80.385 80.616H133.692v-45.847q0-23.692 10.577-34.807 10.577-11.116 25.654-21.039 54-32 100.385-45.154 46.384-13.154 111.384-13.154 23 0 41.116 1.846 18.115 1.847 34.884 5.539Z"/></svg>