<svg xmlns="http://www.w3.org/2000/svg" height="24" viewBox="0 -960 960 960" width="24"><path d="M438.087-151.869v-243.827h183.826v243.827H438.087Zm63.826-63.827h56.174v-116.173h-56.174v116.173ZM677.13-78.086v-150.001h120v-30h-120v-63.826h183.827v150h-120v30h120v63.826H677.13ZM358.087-74.11Q232.935-88.826 152.402-181.64T71.869-403.696q0-104.543 81.055-225.032Q233.978-749.218 400-890.522q136.783 116.065 217.033 220.37 80.25 104.304 102.293 194.456h-94.239q-20.804-62.043-77.326-135.923Q491.239-685.5 400-769.696 281.239-659.978 222.054-568.815q-59.184 91.163-59.184 164.641 0 91.696 54.424 157.522 54.423 65.826 140.793 80.304v92.24Zm36.391-330.065Z"/></svg>