<svg xmlns="http://www.w3.org/2000/svg" height="20" viewBox="0 -960 960 960" width="20"><path d="M279.824-369Q326-369 358.5-401.324q32.5-32.323 32.5-78.5Q391-526 358.676-558.5q-32.323-32.5-78.5-32.5Q234-591 201.5-558.677 169-526.353 169-480.176 169-434 201.324-401.5q32.323 32.5 78.5 32.5ZM280-209q-112 0-191.5-79.5T9-480q0-113 79-192t192-79q84 0 155.5 48.5T531-576h308.865q13.047 0 24.091 4.5T885-557l31.267 30.267Q926-517 930.5-505.174T935-481q0 12-5 24t-14.845 21.897l-75.31 77.206Q830-348 818-344q-12 4-24 4t-23.5-5q-11.5-5-21.397-13.793L703-402l-43.207 43.207Q650-349 638.682-344.5 627.364-340 615-340q-12 0-24.5-4.5t-22.397-13.397L541-386h-9q-27 80-99 128.5T280-209Z"/></svg>