<svg xmlns="http://www.w3.org/2000/svg" height="24" viewBox="0 -960 960 960" width="24"><path d="M280.075-391.521q-36.466 0-62.51-25.969-26.044-25.968-26.044-62.435 0-36.466 25.969-62.51 25.968-26.044 62.435-26.044 36.466 0 62.51 25.969 26.044 25.968 26.044 62.435 0 36.466-25.969 62.51-25.968 26.044-62.435 26.044ZM280-222.477q-106.783 0-182.153-75.37-75.37-75.37-75.37-182.153 0-106.783 75.37-182.153 75.37-75.37 182.153-75.37 73.218 0 131.957 36.392 58.739 36.391 90.739 92.652h327.087q10.556 0 20.452 4.131 9.896 4.13 17.592 11.826l76.043 75.478q8.158 8.035 11.558 17.409 3.399 9.374 3.399 19.635 0 10.261-3.399 19.635-3.4 9.374-11.558 17.409L822.523-321.609q-6.637 6.799-15.927 10.878-9.291 4.079-18.411 5.079-9.119 1-18.239-1.848-9.12-2.848-17.381-8.978l-44.086-32.782-49.087 36.782q-6.696 5.13-14.815 7.978-8.12 2.848-16.24 2.848-8.119 0-16.456-2.565t-14.751-7.696l-55.912-39.608h-38.522q-31.434 55.695-90.456 92.37-59.022 36.674-132.24 36.674ZM280-320q58.261 0 101.326-35.696 43.065-35.695 55.37-92.783h134.609l55.174 38.739v.218-.218h-.283.283l82-61 70.434 53.87 65.957-60.869h-.218.218l-33.218-33.782q0-.435.283-.218.283.218-.283.218H436.13q-10.608-55.392-54.471-91.935Q337.796-640 280-640q-66 0-113 47t-47 113q0 66 47 113t113 47Z"/></svg>