<svg xmlns="http://www.w3.org/2000/svg" height="20" viewBox="0 -960 960 960" width="20"><path d="M217.292-110Q193-110 175.5-127.289q-17.5-17.29-17.5-41.5Q158-193 175.344-210.5q17.345-17.5 41.637-17.5h525.727Q767-228 784.5-210.711q17.5 17.29 17.5 41.5Q802-145 784.656-127.5 767.311-110 743.019-110H217.292ZM479.8-320q-11.2 0-22.5-5T438-338L296.858-479.142Q279-497 279.5-520.5 280-544 298-562t41.5-18q23.5 0 41.5 18l40 41v-270q0-24.3 17.289-41.65 17.29-17.35 41.5-17.35Q504-850 521.5-832.65T539-791v270l41-41q18-18 41.5-17.5T663-561q18 18 18 41.5t-17.858 41.287L522-338q-8.4 8-19.7 13-11.3 5-22.5 5Z"/></svg>