<svg xmlns="http://www.w3.org/2000/svg" height="20" viewBox="0 -960 960 960" width="20"><path d="M254.292-196q-4.242 0-7.267-2.825-3.025-2.824-3.025-7 0-4.175 2.869-7.175 2.87-3 7.112-3h451.727q4.242 0 7.267 2.825 3.025 2.824 3.025 7 0 4.175-2.869 7.175-2.87 3-7.112 3H254.292Zm225.375-138q-5.067 0-9.367-2-4.3-2-8.3-6L330.858-473.142Q327-477 327-480q0-3 5-8t7.5-5q2.5 0 7.5 5l123 124v-390q0-4.25 2.825-7.125 2.824-2.875 7-2.875 4.175 0 7.175 2.875t3 7.125v390l124-124q4-4 7-4t8 5q5 5 5 7.5t-4.858 7.287L498-342q-4.4 4-8.833 6-4.434 2-9.5 2Z"/></svg>