<svg xmlns="http://www.w3.org/2000/svg" height="20" viewBox="0 -960 960 960" width="20"><path d="m243.077-280-59.154 59.154q-13.154 13.154-30.539 5.962Q136-222.077 136-240.692v-526.693Q136-792 152-808q16-16 40.615-16h574.77Q792-824 808-808q16 16 16 40.615v430.77Q824-312 808-296q-16 16-40.615 16H243.077ZM480-528.692l82.615 81.846q5.616 5.615 11.27 4.731 5.654-.885 11.269-6.5 5.615-5.616 5.615-10.885t-5.615-10.885L503.308-552l81.846-82.615q5.615-5.616 5.231-11.27-.385-5.654-6-11.269-5.616-5.615-10.885-5.615t-10.885 5.615L480-575.308l-82.615-81.846q-5.616-5.615-10.77-5.231-5.154.385-10.769 6-5.615 5.616-5.615 10.885t5.615 10.885L456.692-552l-81.846 82.615q-5.615 5.616-4.731 10.77.885 5.154 6.5 10.769 5.616 5.615 10.885 5.615t10.885-5.615L480-528.692Z"/></svg>