<svg xmlns="http://www.w3.org/2000/svg" height="24" viewBox="0 -960 960 960" width="24"><path d="m480-493.26 70.913 70.347q13.261 13.261 32.804 13.544 19.544.282 33.37-13.544 13.261-13.261 13.261-33.087 0-19.826-13.261-33.087L546.74-560l70.347-70.913q13.261-13.261 13.544-32.804.282-19.544-13.544-33.37-13.261-13.261-33.087-13.261-19.826 0-33.087 13.261L480-626.74l-70.913-70.347q-13.261-13.261-32.804-13.544-19.544-.282-33.37 13.544-13.261 13.261-13.261 33.087 0 19.826 13.261 33.087L413.26-560l-70.347 70.913q-13.261 13.261-13.544 32.804-.282 19.544 13.544 33.37 13.261 13.261 33.087 13.261 19.826 0 33.087-13.261L480-493.26ZM220.782-220.782l-69.391 69.391q-25.217 25.217-57.913 11.608-32.696-13.608-32.696-49.087v-604.347q0-44.305 30.848-75.153 30.848-30.848 75.153-30.848h626.434q44.305 0 75.153 30.848 30.848 30.848 30.848 75.153v466.434q0 44.305-30.848 75.153-30.848 30.848-75.153 30.848H220.782Zm-34-106.001h606.435v-466.434H166.783v485.998l19.999-19.564Zm-19.999 0v-466.434 466.434Z"/></svg>