<svg xmlns="http://www.w3.org/2000/svg" height="20" viewBox="0 -960 960 960" width="20"><path d="M480-141.999q53.957 0 91.218-37.261t37.261-91.217v-419.046q0-53.956-37.261-91.217-37.261-37.261-91.218-37.261t-91.218 37.261q-37.261 37.261-37.261 91.217v419.046q0 53.956 37.261 91.217 37.261 37.261 91.218 37.261Zm.211-125.522q-11.608 0-19.67-7.69-8.062-7.689-8.062-19.056 0-11.607 7.852-19.669 7.851-8.063 19.458-8.063 11.608 0 19.67 7.781 8.062 7.78 8.062 19.282 0 11.502-7.852 19.458-7.851 7.957-19.458 7.957Zm-.437 223.524q-94.47 0-160.362-66.08-65.892-66.079-65.892-160.494v-419.233q0-94.415 66.118-160.307 66.118-65.892 160.588-65.892t160.362 66.08q65.892 66.079 65.892 160.494v419.233q0 94.415-66.118 160.307-66.118 65.892-160.588 65.892ZM480.137-214q33.254 0 56.798-23.703 23.544-23.703 23.544-56.988 0-33.518-23.474-57.175-23.473-23.656-57.217-23.656-33.745 0-57.006 23.798-23.261 23.799-23.261 57.218 0 33.419 23.681 56.963 23.681 23.543 56.935 23.543Zm.075-370.48q33.745 0 57.006-23.798 23.261-23.799 23.261-57.218 0-33.419-23.681-56.963-23.681-23.543-56.935-23.543-33.254 0-56.798 23.703-23.544 23.703-23.544 56.988 0 33.518 23.474 57.175 23.473 23.656 57.217 23.656Zm334.739 224.827q-19.14 0-32.088-12.948t-12.948-32.088q0-9.008 3.565-15.856 3.565-6.847 9.696-13.543 9.304-9.304 14.021-21.457 4.718-12.152 4.718-24.456t-4.968-24.456q-4.967-12.153-13.771-21.457-6.028-6.525-9.645-14.139-3.616-7.613-3.616-16.314 0-18.49 13.046-31.236 13.046-12.746 31.49-12.746 9.508 0 16.356 3.282 6.847 3.283 13.543 9.979 20.565 20.565 32.413 48.761Q888.611-510.13 888.611-480t-11.848 58.326q-11.848 28.196-32.413 48.761-6.696 6.696-13.543 9.979-6.848 3.282-15.856 3.282Zm86.508 95.175q-19.301 0-32.357-13.084-13.057-13.083-13.057-32.424 0-9.102 3.283-16.232 3.283-7.131 10.301-14.149 26.547-29.938 41.112-65.708 14.565-35.769 14.565-74.13t-15.04-74.179q-15.039-35.818-40.225-65.424-6.865-6.845-9.865-14.867-3-8.022-3-16.579 0-18.182 13.042-30.943 13.042-12.761 31.806-12.761 10.891 0 19.435 4.978 8.544 4.978 14.674 13.254 36.304 41.073 56.087 91.551Q1012-534.696 1012-480q0 54.696-20.063 105.457-20.065 50.761-56.369 91.834-6.696 8.275-14.957 13.253-8.261 4.979-19.152 4.979ZM480-480Z"/></svg>