<svg xmlns="http://www.w3.org/2000/svg" height="20" viewBox="0 -960 960 960" width="20"><path d="M886-492q-11 0-20-3.5T849-507q-8-9-11-18.5t-5-16.5q-23-35-34.5-78.5T793-708q0-37 14-79.5t41-68.5q6-8 15.5-12.5T884-875q23 0 39 14.5t16 37.5q-7 19-13.5 38T911-751q-11 22-15 49t3 53q0 19 5.5 35t16.5 31q26 24 13.5 57.5T886-492ZM770-378q-13 0-23-5t-18-14q-57-62-82.5-134.5T621-681q0-77 28.5-152T735-970q8-8 16-11.5t19-3.5q21 0 36 14.5t15 35.5q0 11-4 19.5T806-899q-41 47-61.5 103.5T724-681q0 58 20 114t61 102q8 8 11.5 16t3.5 19q0 21-14.5 36.5T770-378Zm-383-89q-75 0-126.5-51.294T209-645q0-74.588 51.5-126.294T387-823q75 0 126.5 51.706T565-645q0 75.412-51 126.706T387-467ZM65-230v-14q0-39 22.5-66t43.5-40q55-33 123.5-51.5T387-420q64 0 132.5 17.5T643-352q20 13 43 41t23 67v14q0 50-34 84t-84 34H183q-50 0-84-34t-34-84Z"/></svg>