<svg xmlns="http://www.w3.org/2000/svg" height="20" viewBox="0 -960 960 960" width="20"><path d="M858.533-516q-2.033 0-3.908-.667-1.875-.666-3.625-2.333-25.016-25.667-37.008-57.333Q802-608 802-639t12-64q12-33 37-58 1.778-1.818 2.944-2.909 1.167-1.091 3.512-1.091 4.982 0 8.263 3.479 3.281 3.478 3.281 7.627 0 2.894-.667 4.061-.666 1.166-2.333 2.833-21.703 22.771-32.851 50.885Q822-668 822-640q0 28 11.149 56.115Q844.297-555.771 866-534q1.667 1.778 2.333 2.944.667 1.167.667 3.512 0 4.982-3.073 8.263-3.073 3.281-7.394 3.281Zm-124 122q-2.033 0-3.908-.667-1.875-.666-3.625-2.333-52-52-75.5-114T628-640q0-67 23.5-129T727-883q1.778-1.818 2.944-2.909 1.167-1.091 3.512-1.091 4.982 0 8.263 2.923 3.281 2.923 3.281 7.244 0 2.833-1 4-1 1.166-2 2.833-47 48-70.5 108T648-639.899q0 62.102 23.5 121.5Q695-459 742-412q1.667 1.778 2.333 2.944.667 1.167.667 3.512 0 4.982-3.073 8.263-3.073 3.281-7.394 3.281ZM369-484q-38.55 0-65.275-26.225Q277-536.45 277-574.867q0-38.417 26.725-65.775Q330.45-668 369-668q38.55 0 65.275 27.358Q461-613.284 461-574.867t-26.725 64.642Q407.55-484 369-484ZM133-258v-15q0-17 9-25.5t24-17.5q52-30 107-43.5t96-13.5q41 0 96 13.5T572-316q14 9 23.5 17.5T605-273v15q0 9.7-6.162 15.85T582.96-236H154.717Q145-236 139-242.15T133-258Zm20 2h432v-17q0-11.552-8-17.276T558-302q-49-31-101-41t-88-10q-36 0-88 10t-101 41q-11 6-19 11.724T153-273v17Zm216.212-248Q399-504 420-524.5q21-20.5 21-50.58 0-30.079-21.212-51.5-21.213-21.42-51-21.42Q339-648 318-626.58q-21 21.421-21 51.5 0 30.08 21.212 50.58 21.213 20.5 51 20.5ZM369-575Zm0 319Z"/></svg>