<svg xmlns="http://www.w3.org/2000/svg" height="24" viewBox="0 -960 960 960" width="24"><path d="M895.261-519.652q-8.717 0-16.815-3.62-8.098-3.619-13.816-9.337-22.543-21.782-35.075-50.532-12.533-28.75-13.011-60.424-5.5-38.369 3.565-74.13 9.065-35.761 31.13-66.913 3.804-12.652 13.217-25.098t21.957-18.664q14.848-1.913 25.989 5.5t13.772 20.348q5.5 6.087 6.544 16 1.043 9.913-2.761 19.217-12.935 15.565-21.5 34.696-8.565 19.13-10.478 40.065-2.631 22.609 3.423 43.652 6.055 21.043 18.989 38.522 3.805 8.348 7.903 18.239 4.097 9.891 6.728 19.565 6.217 19.153-5.761 36.033-11.978 16.881-34 16.881ZM779.913-402.783q-9.196 0-17.533-3.978-8.337-3.978-14.054-9.935-51-52.195-79.522-119.293-28.521-67.098-28.521-139.816 0-72.717 29.239-140.793 29.239-68.076 80.239-120.272 5.717-5.717 13.696-8.837 7.978-3.119 16.695-3.119 18.435 0 30.892 12.456 12.456 12.457 12.456 30.891 0 8.718-3.239 17.196-3.239 8.478-9.717 14.196-39.044 40.239-60.946 91t-21.902 107.282q0 56.522 21.782 107.663 21.783 51.142 60.826 91.381 5.718 5.717 9.337 13.696 3.62 7.978 3.62 16.695 0 18.435-12.457 31.011-12.456 12.576-30.891 12.576ZM400.717-448.37q-69.587 0-118.858-49.272-49.272-49.271-49.272-118.858t49.272-118.859q49.271-49.272 118.858-49.272t118.859 49.272q49.272 49.272 49.272 118.859 0 69.587-49.152 118.858-49.152 49.272-118.979 49.272ZM72.587-203.348v-29.369q0-36.587 19.272-67.261 19.271-30.674 49.271-45.674 51-26 116.794-44.359 65.793-18.359 142.793-18.359t142.794 18.12q65.793 18.119 116.793 44.119 30 15 49.272 45.913 19.272 30.914 19.272 67.501v29.369q0 37.783-26.609 64.392-26.609 26.608-64.391 26.608H163.587q-37.783 0-64.391-26.608-26.61-26.609-26.61-64.392Z"/></svg>