<svg xmlns="http://www.w3.org/2000/svg" height="24" viewBox="0 -960 960 960" width="24"><path d="M902.435-530.088q-9.695 0-18.608-3.782-8.914-3.783-15.609-10.479-13.739-13.303-21.543-30.802-7.803-17.499-8.934-36.455-13.001-34.782-13.393-70.217-.392-35.435 12.216-69.522 2.174-23.088 14.196-48.415 12.022-25.327 30.761-40.024 11.913-4.522 22.565-2 10.652 2.521 16.87 9.912 13.001 3.478 20.24 16 7.24 12.522 5.066 27.696-7.39 13.609-13.999 28.826-6.609 15.217-11.13 30.608-6.218 19.347-5.545 39.086.674 19.739 8.064 37.87 2.174 12.913 7.087 26.066 4.913 13.152 11.131 25.109 14.697 22.087 2.066 46.305-12.63 24.218-41.501 24.218ZM782.522-409.305q-10.826 0-20.305-4.63-9.478-4.631-16.174-11.892-51-53.826-78.869-121.739-27.87-67.913-27.87-141.609 0-73.696 29.566-143.239 29.565-69.544 80.565-123.37 6.695-6.696 15.326-9.979 8.63-3.282 18.326-3.282 20.392 0 34.153 13.761t13.761 34.152q0 9.696-3.566 18.826-3.565 9.131-10.695 15.827-37.739 40.565-58.826 91-21.087 50.434-21.087 106.304 0 55.869 20.804 106.522 20.804 50.652 58.543 91.217 6.696 6.696 10.479 15.326 3.782 8.631 3.782 18.326 0 20.392-13.761 34.435-13.761 14.044-34.152 14.044Zm-380.826-50.479q-74.479 0-126.849-52.369-52.37-52.37-52.37-126.849 0-74.479 52.37-126.849 52.37-52.369 126.849-52.369 74.478 0 126.848 52.369 52.37 52.37 52.37 126.849 0 74.479-52.087 126.849-52.087 52.369-127.131 52.369ZM62.477-207.913v-25.783q0-41.478 22.37-74.435t52.37-47.957q51-26 119.239-44.848 68.24-18.848 145.24-18.848 77 0 145.239 18.283t119.239 44.283q30 15 52.37 48.522 22.37 33.522 22.37 75v25.783q0 44.304-30.848 75.153-30.848 30.848-75.153 30.848H168.479q-44.305 0-75.153-30.848-30.849-30.849-30.849-75.153Z"/></svg>