<svg xmlns="http://www.w3.org/2000/svg" height="24" viewBox="0 -960 960 960" width="24"><path d="M886.026-555.077q-4.026 0-7.776-1.705t-6.25-4.141q-21.32-20.82-33.083-48.333-11.763-27.513-11.763-56.975 0-29.461 11.769-56.615Q850.692-750 872-771.308q2.521-2.552 6.303-4.084 3.782-1.531 7.817-1.531 8.572 0 14.303 5.599 5.731 5.599 5.731 14.252 0 4.072-1.705 7.969-1.705 3.898-4.141 6.334-15.233 15.285-24.194 35.065-8.96 19.781-8.96 41.704 0 21.923 8.96 41.704 8.961 19.78 24.194 35.065 2.436 2.522 4.141 6.304 1.705 3.782 1.705 7.816 0 8.573-5.787 14.304-5.787 5.73-14.341 5.73ZM757.103-425.692q-4.026 0-7.776-1.705t-6.25-4.141q-47.154-47.154-73.077-107.5Q644.077-599.385 644.077-666q0-66.615 25.923-127.077t73.077-107.615q2.521-2.553 6.303-4.084 3.782-1.532 7.817-1.532 8.572 0 14.303 5.787 5.731 5.787 5.731 14.341 0 4.026-1.462 7.924-1.461 3.897-4.384 6.333-41.539 41.538-64.423 94.461-22.885 52.924-22.885 111.54 0 58.616 22.885 111.577 22.884 52.96 64.423 94.499 2.436 2.521 4.141 6.303t1.705 7.817q0 8.572-5.787 14.303-5.787 5.731-14.341 5.731ZM388.462-480q-49.5 0-84.751-35.25-35.25-35.25-35.25-84.75t35.25-84.75Q338.962-720 388.462-720q49.5 0 84.75 35.25t35.25 84.75q0 49.5-35.25 84.75T388.462-480ZM108.461-232.307v-24.308q0-27.616 13.923-47.77 13.924-20.153 39.308-32.077 48.693-23.692 108.077-39 59.385-15.307 118.693-15.307 59.307 0 118.692 15.307 59.385 15.308 108.077 39 25.385 11.924 39.308 32.077 13.923 20.154 13.923 47.77v24.308q0 17.615-11.962 29.577-11.961 11.961-29.577 11.961H150q-17.615 0-29.577-11.961-11.962-11.962-11.962-29.577Z"/></svg>