<svg xmlns="http://www.w3.org/2000/svg" height="20" viewBox="0 -960 960 960" width="20"><path d="M885.7-492q-9.983 0-19.341-3.5Q857-499 849-507q-8.377-8.922-11.189-18.461Q835-535 833-542q-23-35-34.5-78.5T793-708q0-37 14-79.5t40.5-68.5q6.938-8 16.219-12.5Q873-873 884-875q23 0 39 14.5t16 37.5q-7 19-13.5 38T911-751q-11 22-15 49t3 53q0 19 5.5 35t16.5 30.5q26 24.938 13.5 58.219Q922-492 885.7-492Zm-116 114q-12.2 0-22.45-5T729-397q-57-62-82.5-134.641-25.5-72.641-25.5-149.5T649.5-833Q678-908 735-970q8-8 16-11.5t18.333-3.5q21.959 0 36.813 14.423Q821-956.154 821-934.833q0 10.833-4 19.333-4 8.5-11 16.5-41 47-61.5 103.5T724-680.839q0 58.162 20 114Q764-511 805-465q8 8 11.5 16t3.5 18.5q0 22.312-14.525 37.406Q790.95-378 769.7-378Zm-382.2-89q-75.5 0-127-51T209-643.867q0-74.867 51.5-127Q312-823 387-823t126.5 52.133q51.5 52.133 51.5 127Q565-569 514-518t-126.5 51ZM65-230v-14q0-39 22.5-66t43.5-40q55-33 123.5-51.5T387-420q64 0 132.5 17.5T643-352q20 13 43 41t23 67v14q0 49.7-34.162 83.85Q640.676-112 590.96-112H182.717Q133-112 99-146.15T65-230Zm118 0h408v-9q0-4.552-3-6.776T580-251q-47-29-97-40t-96-11q-46 0-96 11.5t-97 39.717q-5 2.783-8 5.007-3 2.224-3 6.776v9Zm204.177-355Q412-585 429.5-601.965q17.5-16.964 17.5-42.079 0-25.115-17.677-43.036-17.677-17.92-42.5-17.92T344.5-687.115q-17.5 17.885-17.5 43T344.677-602q17.677 17 42.5 17ZM387-644Zm0 414Z"/></svg>