<svg xmlns="http://www.w3.org/2000/svg" height="20" viewBox="0 -960 960 960" width="20"><path d="M858.833-516q-2.833 0-4.458-.667-1.625-.666-3.375-2.333-25.016-25.667-37.008-57.333Q802-608 802-639t12-64q12-33 37-58 1.778-1.818 2.944-2.909 1.167-1.091 4.012-1.091 4.044 0 7.544 3.479 3.5 3.478 3.5 7.627 0 2.894-.667 4.061-.666 1.166-2.333 2.833-21.703 22.771-32.851 50.885Q822-668 822-640q0 28 11.149 56.115Q844.297-555.771 866-534q1.667 1.778 2.333 2.944.667 1.167.667 4.012 0 4.044-3.073 7.544t-7.094 3.5Zm-124 122q-2.833 0-4.458-.667-1.625-.666-3.375-2.333-52-52-75.5-114T628-640q0-67 23.5-129T727-883q1.778-1.818 2.944-2.909 1.167-1.091 4.012-1.091 4.044 0 7.544 3.073t3.5 7.094q0 2.833-1 4-1 1.166-2 2.833-47 48-70.5 108T648-639.899q0 62.102 23.5 121.5Q695-459 742-412q1.667 1.778 2.333 2.944.667 1.167.667 4.012 0 4.044-3.073 7.544t-7.094 3.5ZM369-484q-38.55 0-65.275-26.519Q277-537.038 277-576q0-38.138 26.725-65.069Q330.45-668 369-668q38.55 0 65.275 26.931Q461-614.138 461-576q0 38.962-26.725 65.481Q407.55-484 369-484ZM133-258v-15q0-17 9-25.5t24-17.5q52-30 107-43.5t96-13.5q41 0 96 13.5T572-316q14 9 23.5 17.5T605-273v15q0 10-6 16t-16 6H155q-10 0-16-6t-6-16Z"/></svg>