<svg xmlns="http://www.w3.org/2000/svg" height="20" viewBox="0 -960 960 960" width="20"><path d="M860.026-503.077q-4.026 0-6.776-1.205t-5.25-3.641q-27.32-27.82-40.583-62.333-13.263-34.513-13.263-68.975 0-34.461 13.269-70.115Q820.692-745 848-772.308q2.521-2.552 4.803-4.084 2.282-1.531 6.317-1.531 6.572 0 11.803 5.099 5.231 5.099 5.231 11.752 0 4.072-1.205 6.469-1.205 2.398-3.641 4.834-22.233 23.285-33.694 52.065-11.46 28.781-11.46 57.704 0 28.923 11.46 57.704 11.461 28.78 33.694 51.065 2.436 2.522 3.641 4.804 1.205 2.282 1.205 6.316 0 6.573-4.787 11.804-4.787 5.23-11.341 5.23ZM741.103-385.692q-4.026 0-6.776-1.205t-5.25-3.641q-53.154-53.154-77.577-117Q627.077-571.385 627.077-640q0-68.615 24.423-132.577t77.577-117.115q2.521-2.553 4.803-4.084 2.282-1.532 6.317-1.532 6.572 0 11.803 4.787 5.231 4.787 5.231 11.341 0 4.026-1.462 6.424-1.461 2.397-3.384 4.833-46.539 47.538-69.923 106.961-23.385 59.424-23.385 121.04 0 61.616 23.385 120.577 23.384 58.96 69.923 105.499 2.436 2.521 3.641 4.803t1.205 6.317q0 6.572-4.787 11.803-4.787 5.231-11.341 5.231ZM372.462-472q-43.5 0-73.751-30.044-30.25-30.043-30.25-73.956 0-43.088 30.25-73.544Q328.962-680 372.462-680t73.75 30.456q30.25 30.456 30.25 73.544 0 43.913-30.25 73.956Q415.962-472 372.462-472ZM124.461-248.307v-17.308q0-18.616 9.923-29.77 9.924-11.153 26.308-21.077 52.693-30.692 109.077-45 56.385-14.307 102.693-14.307 46.307 0 102.692 14.307 56.385 14.308 109.077 45 15.385 9.924 25.808 21.077 10.423 11.154 10.423 29.77v17.308q0 14.615-9.462 24.077-9.461 9.461-24.077 9.461H158q-14.615 0-24.077-9.461-9.462-9.462-9.462-24.077Z"/></svg>