<svg xmlns="http://www.w3.org/2000/svg" height="24" viewBox="0 -960 960 960" width="24"><path d="M480-182.477q-107.348 0-172.435-84.476Q242.477-351.428 242.477-480q0-130.044 65.088-213.783 65.087-83.74 172.435-83.74t172.435 84.476Q717.523-608.572 717.523-480t-65.088 213.047Q587.348-182.477 480-182.477Zm0-104.61q63.456 0 95.185-58.304Q606.913-403.696 606.913-480t-31.728-134.609Q543.456-672.913 480-672.913t-95.185 58.304Q353.087-556.304 353.087-480t31.728 134.609q31.729 58.304 95.185 58.304Z"/></svg>