<svg xmlns="http://www.w3.org/2000/svg" height="20" viewBox="0 -960 960 960" width="20"><path d="M480-98q-79.376 0-149.188-30Q261-158 208.5-210.5T126-333.156q-30-70.156-30-148.961Q96-633 196.533-741.311 297.067-849.622 444-864v96q-107 14-179.5 94.979T192-481.663Q192-362 276-278q84 84 204 84 71 0 130-31t99-83l84 48q-53 74-134.5 118T480-98Zm-36-216v-132H312v-72h132v-132h72v132h132v72H516v132h-72Zm385-8-84-48q11-26 17-54.5t6-57.5q0-110.242-72.5-191.121T516-768v-96q146.933 14.397 247.467 122.854Q864-632.688 864-482q0 42.952-9 82.976T829-322Z"/></svg>