<svg xmlns="http://www.w3.org/2000/svg" height="24" viewBox="0 -960 960 960" width="24"><path d="M480-71.87q-84.687 0-159.171-32.115-74.484-32.116-129.581-87.682-55.098-55.565-87.238-129.993Q71.87-396.087 71.87-480q0-160.109 106.152-275.62T440-886.131v131.001q-101.565 13.521-169.348 91.543-67.782 78.022-67.782 183.645 0 114.507 81.043 195.79Q364.957-202.87 480-202.87q66 0 122.185-27.521 56.185-27.522 95.185-75.522l113.565 66.217Q756.457-163.5 669.544-117.685 582.63-71.869 480-71.869Zm-43.587-244.543v-120h-120v-87.174h120v-120h87.174v120h120v87.174h-120v120h-87.174Zm416.522 2.717L739.37-379.913q9-24 13.38-48.544Q757.13-453 757.13-480q0-106.031-67.902-183.82Q621.326-741.609 520-755.13v-131.001q155.826 15 261.978 130.511Q888.131-640.109 888.131-480q0 44-8.598 87.152t-26.598 79.152Z"/></svg>