<svg xmlns="http://www.w3.org/2000/svg" height="20" viewBox="0 -960 960 960" width="20"><path d="M791-253.421V-313q0-12.4-9.343-21.7-9.343-9.3-21.8-9.3t-22.157 9.3q-9.7 9.3-9.7 21.7v62q0 13 4.5 23.071 4.5 10.072 12.591 18.02L793-162q9.364 9 22.182 8.5Q828-154 837-163.143q9-9.143 9-21.818T837-207l-46-46.421ZM513-684v58q0 24.3 17.35 41.65Q547.7-567 572-567h208v-117H513ZM759.774-48Q680-48 624-104.226t-56-136Q568-320 624.226-376t136-56Q840-432 896-375.774t56 136Q952-160 895.774-104t-136 56ZM180-158q-49.7 0-83.85-34.162Q62-226.324 62-276.04v-408.243Q62-734 96.15-768T180-802h600q49.7 0 83.85 34.15Q898-733.7 898-684v219q-31-18-66.381-28.5T759.578-504Q660-504 585.5-440T497-276q-3 29 1 59.5t15 58.5H180Z"/></svg>