<svg xmlns="http://www.w3.org/2000/svg" height="24" viewBox="0 -960 960 960" width="24"><path d="M720-80q-66.846 0-113.423-46.577T560-240q0-66.846 46.577-113.423T720-400q66.846 0 113.423 46.577T880-240q0 66.846-46.577 113.423T720-80Zm15.385-166.462V-340q0-6.462-4.462-10.923-4.461-4.462-10.923-4.462t-10.923 4.462q-4.462 4.461-4.462 10.923v93.308q0 6.461 2.231 12.038t7.462 10.808l60.769 60.769q4.461 4.462 10.538 4.846 6.077.385 11.308-4.846T802.154-174q0-5.692-5.231-10.923l-61.538-61.539ZM184.615-200h298.923q-2.154-9.769-2.846-19.769-.692-10-.692-20.231H184.615q-9.23 0-16.923-7.692Q160-255.385 160-264.615v-430.77q0-9.23 7.692-16.923Q175.385-720 184.615-720h366.154v89.231q0 13.923 9.192 23.115 9.193 9.193 23.116 9.193H800v131.23q11.231 3.154 20.846 7.654 9.616 4.5 19.154 10.577v-246.385Q840-723 821.5-741.5 803-760 775.385-760h-590.77Q157-760 138.5-741.5 120-723 120-695.385v430.77Q120-237 138.5-218.5 157-200 184.615-200ZM160-264.615V-240v-480 455.385Z"/></svg>