<svg xmlns="http://www.w3.org/2000/svg" height="20" viewBox="0 -960 960 960" width="20"><path d="M481.372-62Q395-62 319-94.5q-76-32.5-133.5-90t-90-133.557Q63-394.114 63-480q0-64.092 19-124.546Q101-665 136-717l-21-21q-13-13.133-13-30.567Q102-786 115.105-799q13.106-13 30.5-13Q163-812 176-799l639 639q13 13 12 31t-13.895 31q-12.894 13-29.5 13.5Q767-84 754-97l-54-51q-50.263 33.394-104.192 59.697Q541.878-62 481.372-62ZM434-184v-67q-19 0-32.017-13.021-13.016-13.021-13.016-31.646V-342L188-543q-3 15-5 30t-2 31.439q0 113.231 71.5 196.396Q324-202 434-184Zm401-76-87-88q14.841-31.729 23.42-65.364Q780-447 780-482q0-84.854-51-152.427T597-733v-2q0 28.763-21 48.881Q555-666 526-666h-88v8L261-836q48.877-30.121 104.881-46.061Q421.886-898 481-898q86.524 0 161.762 32.5t132.738 90q57.5 57.5 90 133.057Q898-566.886 898-480q0 59.114-16.439 115.119Q865.121-308.877 835-260Z"/></svg>