<svg xmlns="http://www.w3.org/2000/svg" height="20" viewBox="0 -960 960 960" width="20"><path d="M124.175-362Q120-362 117-364.863q-3-2.864-3-7.097v-215.757q0-4.233 2.825-7.258 2.824-3.025 7-3.025 4.175 0 7.175 2.863 3 2.864 3 7.097v215.757q0 4.233-2.825 7.258-2.824 3.025-7 3.025Zm100 0Q220-362 217-364.91q-3-2.909-3-7.21v-212.335q0-6.045 3.674-9.795t9.849-3.75h9.057q3.42 0 7.92 2t5.967 6.094L358-383v-205q0-4.25 2.825-7.125 2.824-2.875 7-2.875 4.175 0 7.175 2.91 3 2.909 3 7.21v212.335q0 6.045-3.674 9.795t-9.849 3.75h-9.057q-3.42 0-7.92-2t-5.967-6.094L234-577v205q0 4.25-2.825 7.125-2.824 2.875-7 2.875Zm318 0Q538-362 535-364.875T532-372v-206h-74q-4.25 0-7.125-2.825-2.875-2.824-2.875-7 0-4.175 2.875-7.175t7.125-3h168q4.25 0 7.125 2.825 2.875 2.824 2.875 7 0 4.175-2.875 7.175T626-578h-74v205.724q0 4.226-2.825 7.251-2.824 3.025-7 3.025ZM732-362q-11.05 0-18.525-7.463Q706-376.927 706-387.96v-199.757q0-4.233 2.825-7.258 2.824-3.025 7-3.025 4.175 0 7.175 2.875t3 7.125v206h110q4.25 0 7.125 2.825 2.875 2.824 2.875 7 0 4.175-2.875 7.175T836-362H732Z"/></svg>