<svg xmlns="http://www.w3.org/2000/svg" height="24" viewBox="0 -960 960 960" width="24"><path d="M119.965-346Q114-346 110-350.025T106-360v-240q0-5.95 4.035-9.975 4.035-4.025 10-4.025t9.965 4.025q4 4.025 4 9.975v240q0 5.95-4.035 9.975-4.035 4.025-10 4.025Zm100 0Q214-346 210-350.025T206-360v-236q0-7.5 5.174-12.75t12.565-5.25h10.841q5.42 0 9.92 2.5t6.5 7.5l115 221v-217q0-5.95 4.035-9.975 4.035-4.025 10-4.025t9.965 4.025q4 4.025 4 9.975v236q0 7.5-5.174 12.75T376.261-346H365.42q-5.42 0-9.92-2.5T349-356L234-577v217q0 5.95-4.035 9.975-4.035 4.025-10 4.025Zm330 0Q544-346 540-350.025T536-360v-226h-66q-5.95 0-9.975-4.035-4.025-4.035-4.025-10t4.025-9.965q4.025-4 9.975-4h160q5.95 0 9.975 4.035 4.025 4.035 4.025 10T639.975-590q-4.025 4-9.975 4h-66v226q0 5.95-4.035 9.975-4.035 4.025-10 4.025ZM736-346q-12.75 0-21.375-8.625T706-376v-224q0-5.95 4.035-9.975 4.035-4.025 10-4.025t9.965 4.025q4 4.025 4 9.975v226h106q5.95 0 9.975 4.035 4.025 4.035 4.025 10T849.975-350q-4.025 4-9.975 4H736Z"/></svg>