<svg xmlns="http://www.w3.org/2000/svg" height="24" viewBox="0 -960 960 960" width="24"><path d="M480-32.587q-92.554 0-174.429-35.098-81.875-35.097-142.359-95.581-60.484-60.483-95.555-142.314-35.07-81.83-35.07-174.334 0-93.521 35.098-174.956 35.097-81.434 95.563-141.918 60.465-60.484 142.272-95.555 81.806-35.07 174.363-35.07 93.575 0 174.944 35.09 81.369 35.091 141.887 95.609 60.518 60.518 95.609 141.887 35.09 81.369 35.09 174.944 0 92.557-35.081 174.381T796.748-163.2q-60.502 60.479-141.85 95.546Q573.55-32.587 480-32.587ZM480-480Zm-2 334 335-335-335-335-335 335 335 335ZM319-361v-200h206l-42-44 56-56 140 140-140 140-56-56 42-44H399v120h-80Zm161 237.413q149.326 0 252.87-103.543Q836.413-330.674 836.413-480q0-149.326-103.543-252.87Q629.326-836.413 480-836.413q-149.326 0-252.87 103.543Q123.587-629.326 123.587-480q0 149.326 103.543 252.87Q330.674-123.587 480-123.587Z"/></svg>