<svg xmlns="http://www.w3.org/2000/svg" height="24" viewBox="0 -960 960 960" width="24"><path d="M479.561-92Q399-92 328.275-122.463t-123-83Q153-258 122.5-328.5 92-399 92-479.561q0-81.445 30.463-152.268 30.463-70.822 83-123.497Q258-808 328.5-838q70.5-30 151.153-30 81.539 0 152.443 30Q703-808 755.5-755.5T838-632.096q30 70.904 30 152.443Q868-399 838-328.5q-30 70.5-82.674 123.037-52.675 52.537-123.497 83Q561.006-92 479.561-92ZM480-480Zm-2 254 255-255-255-255-255 255 255 255ZM345-387v-148h244l-70-70 20-20 104 104-104 104-20-20 70-70H373v120h-28Zm135 267q151 0 255.5-104.5T840-480q0-151-104.5-255.5T480-840q-151 0-255.5 104.5T120-480q0 151 104.5 255.5T480-120Z"/></svg>