<svg xmlns="http://www.w3.org/2000/svg" height="20" viewBox="0 -960 960 960" width="20"><path d="M479.622-148Q411-148 350.775-173.963q-60.225-25.963-105.5-71.5T174-350.969q-26-59.97-26-128.626 0-69.411 25.963-129.734 25.963-60.322 71.5-105.997Q291-761 350.969-786.5q59.97-25.5 128.719-25.5 69.504 0 129.908 25.5Q670-761 715.5-715.5q45.5 45.5 71 105.908T812-479.714Q812-411 786.5-351t-71.174 105.537q-45.675 45.537-106.001 71.5Q548.998-148 479.622-148ZM480-480Zm0 204 204-204-204-204-204 204 204 204ZM362-410v-116h212l-70-68 15-15 93 93-93 93-15-15 70-68H382v96h-20Zm118 242q130 0 221-91t91-221q0-130-91-221t-221-91q-130 0-221 91t-91 221q0 130 91 221t221 91Z"/></svg>