<svg xmlns="http://www.w3.org/2000/svg" height="20" viewBox="0 -960 960 960" width="20"><path d="M480-78.477q-82.674 0-155.924-31.413-73.25-31.414-128.076-86.238-54.826-54.825-86.174-127.969-31.349-73.145-31.349-155.7 0-83.594 31.413-156.486Q141.304-709.174 196.086-764q54.782-54.826 127.87-86.174 73.087-31.349 155.768-31.349 83.722 0 156.458 31.396 72.736 31.395 127.643 86.302 54.907 54.907 86.302 127.643 31.396 72.736 31.396 156.458 0 82.681-31.374 155.81t-86.244 127.942q-54.869 54.813-127.555 86.154-72.686 31.34-156.35 31.34ZM480-196l284-284-284-284-284 284 284 284ZM336-384v-168h174l-42-42 51-51 129 129-129 129-51-51 42-42H408v96h-72Z"/></svg>