<svg xmlns="http://www.w3.org/2000/svg" height="20" viewBox="0 -960 960 960" width="20"><path d="M464-428h32v-108h108v-32H496v-108h-32v108H356v32h108v108Zm16 250.077q109.769-93.154 176.808-193.154 67.038-100 67.038-174.077 0-105.769-68.5-176.692T480-792.769q-106.846 0-175.346 70.923t-68.5 176.692q0 74.077 67.038 174.077 67.039 100 176.808 193.154Zm0 42.692Q343.025-254.03 273.589-356.861q-69.435-102.831-69.435-188.293 0-110.923 75.154-194.885Q354.461-824 479.5-824t200.692 83.961q75.654 83.962 75.654 194.885 0 85.462-68.923 187.846Q618-254.923 480-135.231Zm0-412.154Z"/></svg>