<svg xmlns="http://www.w3.org/2000/svg" height="24" viewBox="0 -960 960 960" width="24"><path d="M680-520q-66.4 0-113.2-46.8T520-680q0-66.4 46.8-113.2T680-840q66.4 0 113.2 46.8T840-680q0 66.4-46.8 113.2T680-520ZM220-220q-9.167-9.026-14.583-20.513Q200-252 200-264v-448q0-26.4 18.908-45.2 18.908-18.8 45.46-18.8H480q-12 21.477-18 45.739-6 24.261-6 49.928 0 47.323 18 87.828T522-522L220-220Zm268 20v-174q0-33.138 21-59.569Q530-460 562-468q29-6 58.5-9t59.5-3q25.67 0 49.335 1.5T776-472v208q0 26.4-18.8 45.2Q738.4-200 712-200H488Z"/></svg>