<svg xmlns="http://www.w3.org/2000/svg" height="24" viewBox="0 -960 960 960" width="24"><path d="M817.523-546.999q-22.088 0-37.544-15.457-15.457-15.457-15.457-37.544 0-22.087 15.457-37.544 15.456-15.457 37.544-15.457 22.087 0 37.544 15.457 15.456 15.457 15.456 37.544 0 22.087-15.456 37.544-15.457 15.457-37.544 15.457ZM389.826-192.911l-71.348 71.347q-13.261 13.826-32.87 13.261-19.609-.565-34.565-13.696-15.957-12.695-15.392-33.152.565-20.457 15.392-35.283l138.783-138.783v-59.478h-59.478L190.565-248.912q-13.827 13.826-33.718 13.826-19.892 0-33.718-14.826-14.261-13.826-14.261-33.718 0-19.891 14.261-34.152l70.913-70.913H97.521q-20.392 0-34.218-14.044-13.826-14.043-13.826-34.435 0-20.391 14.043-34.717 14.044-14.327 34.435-14.327h96.087l-71.348-70.347q-13.826-13.826-13.826-33.718 0-19.891 14.261-34.152 13.826-14.392 33.718-14.392 19.891 0 34.718 14.392l138.783 138.217h59.478v-59.478L250.043-684.479q-13.827-13.826-13.827-33.717 0-19.892 14.261-34.153 14.392-14.391 34.283-14.391 19.892 0 34.153 14.391l70.913 70.348v-96.087q0-20.391 14.043-34.718 14.044-14.326 34.435-14.326 20.392 0 34.718 14.326 14.326 14.327 14.326 34.718v96.087l70.913-70.913q13.826-13.826 33.718-13.826 19.891 0 34.152 14.391 13.826 14.261 13.826 34.153 0 19.891-13.826 33.717L487.348-545.696v59.478h291.87q20.392 0 34.718 14.327 14.326 14.326 14.326 34.717 0 20.392-14.326 34.435-14.326 14.044-34.718 14.044h-96.086l70.347 71.347q14.392 13.827 14.392 33.718 0 19.892-13.826 33.718-14.827 14.826-34.718 14.826-19.892 0-33.718-14.826L546.826-388.695h-59.478v59.478l138.783 139.783q13.826 13.826 13.826 33.718 0 19.891-13.826 33.717-14.261 14.827-34.152 14.827-19.892 0-34.283-14.827l-70.348-70.912v97.086q0 20.392-14.326 34.218-14.326 13.826-34.718 13.826-20.391 0-34.435-14.044-14.043-14.043-14.043-34.435v-96.651Zm427.697-500.09q-22.088 0-37.544-15.456-15.457-15.457-15.457-37.544v-120q0-22.088 15.457-37.544 15.456-15.457 37.544-15.457 22.087 0 37.544 15.457 15.456 15.456 15.456 37.544v121q0 22.087-15.456 37.044-15.457 14.956-37.544 14.956Z"/></svg>