<svg xmlns="http://www.w3.org/2000/svg" height="20" viewBox="0 -960 960 960" width="20"><path d="M470-190v-237L236-695q-3.556-6-5.278-12.879-1.722-6.88-1.722-14.087Q229-739 240.613-751.5T269-764h422q16.774 0 28.387 12.38Q731-739.239 731-722.388q0 7.129-1.722 14.19-1.722 7.06-5.278 13.198L490-427v237h168q4.25 0 7.125 2.825 2.875 2.824 2.875 7 0 4.175-2.875 7.175T658-170H302q-4.25 0-7.125-2.825-2.875-2.824-2.875-7 0-4.175 2.875-7.175t7.125-3h168ZM282-672h396l63-72H219l63 72Zm198 226 181-206H299l181 206Zm0 0Z"/></svg>