<svg xmlns="http://www.w3.org/2000/svg" height="24" viewBox="0 -960 960 960" width="24"><path d="M460-180v-258.461L193.384-738.462q-4.581-4.923-7.444-11.384-2.863-6.462-2.863-13.231 0-16 10.853-26.462Q204.784-800 220.461-800h519.078q15.677 0 26.531 10.369 10.853 10.37 10.853 26.229 0 6.71-2.863 13.31-2.863 6.601-7.444 11.63L500-438.461V-180h160q8.5 0 14.25 5.758 5.75 5.757 5.75 14.269t-5.75 14.242Q668.5-140 660-140H300q-8.5 0-14.25-5.758-5.75-5.757-5.75-14.269t5.75-14.242Q291.5-180 300-180h160ZM298-680h364l72-80H226l72 80Zm182 204 146.384-164H333.616L480-476Zm0 0Z"/></svg>