<svg xmlns="http://www.w3.org/2000/svg" height="20" viewBox="0 -960 960 960" width="20"><path d="M480.22-79.043q-18.378 0-36.365-6.695-17.986-6.696-32.943-21.653L107.391-410.912q-14.957-14.957-21.653-32.862-6.695-17.905-6.695-36.427 0-18.523 6.695-36.226 6.696-17.704 21.653-32.661l303.521-303.521q14.917-14.957 32.832-21.935 17.915-6.979 36.447-6.979 18.533 0 36.312 6.979 17.78 6.978 32.585 21.935l303.521 303.521q14.957 14.822 21.935 32.621 6.979 17.799 6.979 36.212 0 18.413-6.979 36.393-6.978 17.979-21.935 32.95L549.088-107.391q-14.957 14.957-32.723 21.653-17.766 6.695-36.145 6.695ZM329.087-329.087 480-177.609 782.391-480 480-782.391 177.609-480l151.478 150.913ZM480-480Zm54 36-80 80q-11 11-10.5 25.5T455-313q11 11 25 11t24.858-10.858l132.533-132.533q14.957-14.798 14.957-34.53 0-19.731-14.957-34.688L504.858-647.142Q494-658 480-658t-25 11q-11 11-11 25.5t11 25.5l79 80H324q-15.3 0-25.65 10.289-10.35 10.29-10.35 25.5Q288-465 298.35-454.5 308.7-444 324-444h210Z"/></svg>