<svg xmlns="http://www.w3.org/2000/svg" height="20" viewBox="0 -960 960 960" width="20"><path d="M161-305v-209q0-21.3 15.289-36.15 15.29-14.85 36.5-14.85Q234-565 249-550.15T264-514v210q0 21.3-14.789 36.15-14.79 14.85-36 14.85Q192-253 176.5-268.35T161-305Zm268 1v-210q0-21.3 14.789-36.15 14.79-14.85 36-14.85Q501-565 516-550.15T531-514v210q0 21.3-14.789 36.15-14.79 14.85-36 14.85Q459-253 444-267.85T429-304ZM121-118q-24.3 0-41.65-17.289Q62-152.579 62-176.789 62-201 79.35-218.5T121-236h718q24.3 0 41.65 17.289 17.35 17.29 17.35 41.5Q898-153 880.65-135.5T839-118H121Zm575-187v-209q0-21.3 15.289-36.15 15.29-14.85 36.5-14.85Q769-565 784-550.15T799-514v210q0 21.3-14.789 36.15-14.79 14.85-36 14.85Q727-253 711.5-268.35T696-305Zm127-278H129q-27.917 0-47.458-19.491Q62-621.983 62-649.828V-692q0-18 10-35.5T99-753l329-164q24.111-14 52-14t52 14l325 162q18 9 29.5 27t11.5 40.538V-659q0 31.4-21.8 53.7Q854.4-583 823-583Z"/></svg>