<svg xmlns="http://www.w3.org/2000/svg" height="24" viewBox="0 -960 960 960" width="24"><path d="M464-352q54 0 91-37t37-91q0-54-37-91t-91-37q-54 0-91 37t-37 91q0 54 37 91t91 37Zm0-88q-17 0-28.5-11.5T424-480q0-17 11.5-28.5T464-520q17 0 28.5 11.5T504-480q0 17-11.5 28.5T464-440Zm359.965 200Q818-240 814-244.025T810-254v-266q0-5.95 4.035-9.975 4.035-4.025 10-4.025t9.965 4.025q4 4.025 4 9.975v266q0 5.95-4.035 9.975-4.035 4.025-10 4.025Zm.035 90q-8.5 0-14.25-5.75T804-170q0-8.5 5.75-14.25T824-190q8.5 0 14.25 5.75T844-170q0 8.5-5.75 14.25T824-150Zm-360 18q-72.21 0-135.72-27.391-63.51-27.392-110.49-74.348-46.98-46.957-74.385-110.435Q116-407.652 116-479.826q0-72.174 27.405-135.732 27.405-63.559 74.385-110.574 46.98-47.016 110.49-74.442Q391.79-828 464-828q106.038 0 193.519 58Q745-712 786-614h-26q-12.75 0-21.375 8.577T730-584.167V-256q-51 58-120 91t-146 33Z"/></svg>