<svg xmlns="http://www.w3.org/2000/svg" height="20" viewBox="0 -960 960 960" width="20"><path d="M483.957-288q80 0 136-56t56-136q0-80-56-136t-136-56q-80 0-136 56t-56 136q0 80 56 136t136 56Zm0-144q-20.4 0-34.2-13.8-13.8-13.8-13.8-34.2 0-20.4 13.8-34.2 13.8-13.8 34.2-13.8 20.4 0 34.2 13.8 13.8 13.8 13.8 34.2 0 20.4-13.8 34.2-13.8 13.8-34.2 13.8Zm-1.131 355.218q-83.129 0-156.242-31.511-73.113-31.511-128.055-86.602-54.942-55.091-86.366-128.552-31.425-73.461-31.425-156.986 0-83.524 31.413-156.415 31.414-72.892 86.74-128.218 55.326-55.326 128.612-86.739 73.286-31.413 156.611-31.413 122.756 0 224.691 66.087T855.871-636H746.043q-39-71.609-109.548-110.413-70.549-38.804-152.538-38.804-126.609 0-215.913 89.304Q178.74-606.609 178.74-480q0 126.609 89.304 215.913 89.304 89.304 215.913 89.304 67.739 0 127.695-28.087 59.957-28.087 103.826-79.26v130.958q-50.435 37.043-110.109 55.717-59.674 18.673-122.543 18.673ZM831.746-576q18.814 0 31.752 12.788 12.937 12.787 12.937 31.691v247.042q0 18.904-12.727 31.691Q850.981-240 832.167-240t-31.751-12.788q-12.938-12.787-12.938-31.691v-247.042q0-18.904 12.727-31.691Q812.932-576 831.746-576Zm.421 491.305q-20.015 0-33.765-13.54-13.75-13.539-13.75-33.554 0-20.016 13.539-33.766 13.54-13.75 33.555-13.75t33.765 13.54q13.751 13.539 13.751 33.554 0 20.016-13.54 33.766t-33.555 13.75ZM482.957-479Z"/></svg>