<svg xmlns="http://www.w3.org/2000/svg" height="24" viewBox="0 -960 960 960" width="24"><path d="M467.692-340q58.847 0 99.424-40.577 40.577-40.577 40.577-99.423 0-58.846-40.577-99.423Q526.539-620 467.692-620q-58.846 0-99.423 40.577-40.577 40.577-40.577 99.423 0 58.846 40.577 99.423Q408.846-340 467.692-340Zm0-100q-17 0-28.5-11.5t-11.5-28.5q0-17 11.5-28.5t28.5-11.5q17 0 28.5 11.5t11.5 28.5q0 17-11.5 28.5t-28.5 11.5Zm359.973 200q-8.511 0-14.242-5.75-5.731-5.75-5.731-14.25v-260q0-8.5 5.758-14.25t14.269-5.75q8.512 0 14.243 5.75t5.731 14.25v260q0 8.5-5.758 14.25t-14.27 5.75Zm.027 106.154q-10.461 0-17.538-7.077t-7.077-17.538q0-10.462 7.077-17.539 7.077-7.077 17.538-7.077 10.462 0 17.539 7.077 7.077 7.077 7.077 17.539 0 10.461-7.077 17.538t-17.539 7.077Zm-360 13.846q-74.7 0-140.4-28.339-65.7-28.34-114.3-76.922-48.6-48.582-76.95-114.257-28.35-65.676-28.35-140.348 0-74.673 28.35-140.41t76.95-114.365q48.6-48.627 114.3-76.993Q392.992-840 467.692-840q109.26 0 199.4 59.731Q757.231-720.539 799.846-620H760q-13.731 0-23.019 9.251-9.289 9.252-9.289 22.928v353.975q-51.461 53.385-118.615 83.616Q541.923-120 467.692-120Z"/></svg>