<svg xmlns="http://www.w3.org/2000/svg" height="20" viewBox="0 -960 960 960" width="20"><path d="M136-656.615V-824h23.385v125.23q64.692-75.307 145.538-114.653 80.846-39.347 175.385-39.347 107.846 0 200.615 53.039Q773.693-746.693 824-656.615h-26.615q-45.693-77.77-132.193-125.27-86.5-47.5-184.884-47.5-89.385 0-166.577 37.5Q236.538-754.385 175-680h128.385v23.385H136ZM402.231-136 181.538-355.154l32.847-29.769L356-353.615V-700h32v278.769h81.077V-576h32v154.769h81.846V-528h32v106.769H696V-480h32v344H402.231Z"/></svg>