<svg xmlns="http://www.w3.org/2000/svg" height="24" viewBox="0 -960 960 960" width="24"><path d="M120-664.615V-840h35.385v100.23q79.692-61.307 160.538-91.153 80.846-29.847 166.385-29.847 119.846 0 217.615 53.539Q797.693-753.693 840-664.615h-37.615q-45.693-74.77-131.193-117.77-85.5-43-188.884-43-83.385 0-162.077 31Q241.538-763.385 164-700h131.385v35.385H120ZM432.231-120 205.538-346.154l36.847-35.769L380-347.615V-700h40v406.077L274.539-333.23l174 173.23H720v-280h40v320H432.231Zm60.846-260v-180h40v180h-40Zm113.846 0v-140h40v140h-40Zm-29 105.385Z"/></svg>