<svg xmlns="http://www.w3.org/2000/svg" height="20" viewBox="0 -960 960 960" width="20"><path d="M262-479.843Q262-402 312-341.5 362-281 438-267q21 5 31.5 23.3T480-203q0 28-21.383 42.5T410-151q-118-26-192-117.963t-74-211.466Q144-600 218.543-692.111 293.087-784.222 410-809q26-6 48 9.5t22 42.5q0 22.4-10.5 40.7Q459-698 438-693q-76 14-126 74.657t-50 138.5ZM622-421H419.963q-24.284 0-41.624-17.289Q361-455.579 361-479.789 361-504 378.339-521.5q17.34-17.5 41.624-17.5H622l-17-17q-17-18-16.5-41.5T607-639q18-18 41.182-18 23.182 0 40.818 18l118 117q18 17.636 18 41.818T807-438L690-321q-18 18-42 18.5t-42-17.429q-17-17.928-17-42Q589-386 607-404l15-17Z"/></svg>