<svg xmlns="http://www.w3.org/2000/svg" height="20" viewBox="0 -960 960 960" width="20"><path d="M417-183v-42h-48q-81.68-6-136.84-65.66T177-432q0-48 21-90.5t58-74.5q-3-52 28.5-93.5T366-743h13l2 5q-8-21 .5-41t28.5-28l22-9-5-14q-5-14 4.5-28.5T477-886q14.59-5 28.693.5Q519.796-880 525-866l5 13 22-9q18-7 37 1.1t26 26.9l110 276q7 20-2 40t-29 27l-21 9 5 14q5 14-4.371 28.833Q664.258-424.333 629-411q-14.977 6-28.989 0Q586-417 580-431l-6-14-21 9q-19.462 8-38.436-.6T488-464l-6-14q-14 12-31 19.5t-37.19 9.5q-32.81 2-63.31-9T300-496q-10 15-15.5 30.802Q279-449.395 279-432q0 43.75 30.625 74.375T384-327h300q21.675 0 36.338 14.602Q735-297.796 735-276.211q0 21.586-14.662 36.399Q705.675-225 684-225H543v42h189q21.675 0 36.338 14.602Q783-153.796 783-132.211q0 21.586-14.662 36.399Q753.675-81 732-81H228q-21.675 0-36.337-14.602Q177-110.204 177-131.789q0-21.586 14.663-36.399Q206.325-183 228-183h189Zm147-367 45-17-70-179-45 17 70 179Zm-156-2q20.4 0 34.2-13.8Q456-579.6 456-600q0-20.4-13.8-34.2Q428.4-648 408-648q-20.4 0-34.2 13.8Q360-620.4 360-600q0 20.4 13.8 34.2Q387.6-552 408-552Zm156 2Zm-156-50Zm0 0Z"/></svg>