<svg xmlns="http://www.w3.org/2000/svg" height="24" viewBox="0 -960 960 960" width="24"><path d="M255.385-140q-8.501 0-14.251-5.758-5.75-5.757-5.75-14.269t5.75-14.242q5.75-5.731 14.251-5.731h179.999v-120h-19.999q-74.701 0-127.351-52.65-52.65-52.65-52.65-127.35 0-52.128 27.077-96.026 27.077-43.897 75-65.051-.923 11.231 1.5 21.077 2.423 9.846 6.731 19.616-33 17.538-51.654 49.846-18.653 32.307-18.653 70.538 0 58.333 40.833 99.167Q357.051-340 415.385-340h280q8.5 0 14.25 5.758 5.75 5.757 5.75 14.269t-5.75 14.242q-5.75 5.731-14.25 5.731H484.616v120h219.999q8.501 0 14.251 5.758 5.75 5.757 5.75 14.269t-5.75 14.242Q713.116-140 704.615-140h-449.23Zm317.999-379.385L568-534l-7.154 3.077q-12.923 5.231-25.115-.5-12.193-5.731-17.423-18.654l-9.077-26q12.307-12.923 18.307-29.085 6-16.162 6-34.838 0-36.231-23.384-63.731-23.385-27.5-59.077-32.884l-9.616-26.077q-5-12.718 1.116-24.244 6.115-11.526 18.269-16.756l7.923-3.077-5.385-14.616q-3.692-9.615.529-18.697 4.221-9.083 14.472-12.841 9.615-3.462 18.866.625 9.251 4.086 12.441 14.144l5.385 14.615 4.615-1.538q12.154-4.462 24.077 1.385 11.923 5.846 17.154 18l77.385 211.154q5.231 12.153-.5 23.961-5.731 11.808-17.885 17.039l-5.615 2.307 5.384 14.616q3.693 9.846-.528 19.077-4.221 9.23-14.472 12.923-9.615 3.461-18.866-.625t-12.442-14.145Zm-137.999-53.23q-28.077 0-47.731-19.654T368-640q0-28.077 19.654-47.731t47.731-19.654q28.076 0 47.73 19.654 19.654 19.654 19.654 47.731t-19.654 47.731q-19.654 19.654-47.73 19.654Z"/></svg>