<svg xmlns="http://www.w3.org/2000/svg" height="24" viewBox="0 -960 960 960" width="24"><path d="M240-105q-23.375 0-39.188-15.812Q185-136.625 185-160t15.812-39.188Q216.625-215 240-215h145v-50q-85-6-142.5-68T185-480q0-56.255 27.5-103.627Q240-631 288-660q-5 31 4.5 60t30.5 52q-13 14-20.5 31.5T295-480q0 43.75 30.625 74.375T400-375h280q23.375 0 39.188 15.812Q735-343.375 735-320t-15.812 39.188Q703.375-265 680-265H535v50h185q23.375 0 39.188 15.812Q775-183.375 775-160t-15.812 39.188Q743.375-105 720-105H240Zm303-375q-21 8-41.5-1T473-511l-3-7q38-14 60.5-47.5T553-640q0-67-54-106.5T380-766v-1q-8-23 1.5-44t31.5-30q-6-15 4.5-30.5T467-901q15.612-5 30.704 1.5T518-877q20-8 40 1.1t28 29.9l95 256q8 22-1.5 42.5T648-519q6 16-4.5 32.5T595-456q-16 6-31-1t-21-23Zm-123-82q-32.5 0-55.25-22.75T342-640q0-32.5 22.75-55.25T420-718q32.5 0 55.25 22.75T498-640q0 32.5-22.75 55.25T420-562Z"/></svg>