<svg xmlns="http://www.w3.org/2000/svg" height="20" viewBox="0 -960 960 960" width="20"><path d="M423.521-176.479v-55.042h-48q-80.81-3.392-136.405-61.53Q183.521-351.19 183.521-432q0-49.739 22.957-93.326 22.956-43.587 63.434-72.978-1.696-51.131 31.109-89.805 32.804-38.674 82.804-44.892h13l-1.478-4.129q-6.696-17.957.5-35.131t24.587-23.87l22.435-9-5-14q-5-14 2.978-28.065 7.979-14.066 34.414-23.588 14.323-5 28.169.5t18.961 19.5l5 13 22-9q16.261-6.13 33.088 1.057 16.826 7.187 22.956 23.9l104.349 262.523q6.13 17.391-1.566 34.783-7.695 17.391-25.087 23.522l-21.435 9 5 14q5 14-2.849 28.181-7.849 14.181-33.977 24.036-14.543 5.566-28.337-.217-13.794-5.783-19.359-19.783l-6-14-21 9q-17.288 7.131-33.907-.556-16.62-7.687-23.268-24.4l-8.608-21.391q-15.304 15.478-35.348 24.5-20.043 9.021-42.842 10.152-31.071 1.13-59.179-10.522-28.109-11.652-46.805-36.913-15.652 15.869-24.195 35.584-8.543 19.716-8.543 42.328 0 46.467 32.527 78.994T384-320.479h300q18.903 0 31.691 12.727t12.788 31.541q0 18.814-12.788 31.752-12.788 12.938-31.691 12.938H536.479v55.042H732q18.903 0 31.691 12.727t12.788 31.541q0 18.814-12.788 31.752Q750.903-87.521 732-87.521H228q-18.903 0-31.691-12.727-12.788-12.728-12.788-31.541 0-18.814 12.788-31.752 12.788-12.938 31.691-12.938h195.521ZM564-550l45-17-70-179-45 17 70 179Zm-156-2q20.4 0 34.2-13.8Q456-579.6 456-600q0-20.4-13.8-34.2Q428.4-648 408-648q-20.4 0-34.2 13.8Q360-620.4 360-600q0 20.4 13.8 34.2Q387.6-552 408-552Zm156 2Zm-156-50Zm0 0Z"/></svg>