<svg xmlns="http://www.w3.org/2000/svg" height="20" viewBox="0 -960 960 960" width="20"><path d="M243.385-116q-6.801 0-11.401-4.547t-4.6-11.269q0-6.723 4.6-11.453 4.6-4.731 11.401-4.731h223.999v-112h-67.999q-71.381 0-121.691-50.31T227.384-432q0-47.128 23.577-88.026 23.577-40.897 65.5-63.051 2.077 9.231 5.5 16.077 3.423 6.846 7.731 13.616-33 18.538-51.654 50.846-18.653 32.307-18.653 70.538 0 58.333 40.833 99.167Q341.051-292 399.385-292h300q6.8 0 11.4 4.547 4.6 4.547 4.6 11.269 0 6.723-4.6 11.453-4.6 4.731-11.4 4.731H492.616v112h223.999q6.801 0 11.401 4.547t4.6 11.269q0 6.723-4.6 11.453-4.6 4.731-11.401 4.731h-473.23Zm366.999-354.385L599-499l-27.154 12.077q-10.923 5.231-22.615-.5-11.693-5.731-15.923-16.654l-15.077-41q6.307-12.923 8.807-26.585t2.5-28.338q0-35.231-21.384-64.231-21.385-29-55.077-40.384l-10.616-29.077q-5-10.718.116-21.244 5.115-10.526 15.269-14.756l29.923-12.077-10.385-28.616q-2.692-8.615.529-16.697 3.221-8.083 10.472-10.841 8.592-3.462 16.855-.375 8.262 3.086 11.452 11.144l10.385 27.615 26.615-10.538q10.154-3.462 21.077 1.385 10.923 4.846 15.154 15l92.385 231.154q4.231 10.153-1 21.461-5.231 11.308-15.385 15.539l-26.615 11.307 10.384 28.616q2.693 7.846-.399 15.41t-10.601 10.59q-8.592 3.461-16.855.375-8.262-3.086-11.453-11.145Zm-186.999-62.23q-28.077 0-47.731-19.654T356-600q0-28.077 19.654-47.731t47.731-19.654q28.076 0 47.73 19.654 19.654 19.654 19.654 47.731t-19.654 47.731q-19.654 19.654-47.73 19.654Z"/></svg>