<svg xmlns="http://www.w3.org/2000/svg" height="20" viewBox="0 -960 960 960" width="20"><path d="M480.027-85.239q-30.972 0-52.815-21.923-21.842-21.922-21.842-52.707h149.5q0 31.195-21.985 52.913-21.986 21.717-52.858 21.717Zm-296.158-122.63v-83.001H229v-231.869q0-90.109 54.815-159.098 54.815-68.989 142.685-85.786v-104.508h107v104.587q25.503 4.801 48.534 15.042t42.792 23.763q-10.391 19.435-17.424 41.206-7.032 21.772-9.511 45.881-22.521-22.283-53.376-35.685Q513.66-690.739 480-690.739q-70 0-119 49t-49 119v231.869h336v-195.695q16.391 20.435 37.761 36.293 21.37 15.859 45.239 26.237v133.165h45.131v83.001H183.869ZM480-490.804ZM778.087-480v-109.087H672v-69.826h106.087V-768h75.826v109.087H960v69.826H853.913V-480h-75.826Z"/></svg>