<svg xmlns="http://www.w3.org/2000/svg" height="20" viewBox="0 -960 960 960" width="20"><path d="M479.72-108.309q-26.643 0-45.335-18.89t-18.692-45.417h128.614q0 26.923-18.972 45.615-18.973 18.692-45.615 18.692ZM212.001-220.616v-51.998h40.308v-258.463q0-84.692 53.307-148.192 53.308-63.5 136.385-76.807v-87.923h75.998v87.898q25.616 4.255 48.582 14.212 22.966 9.956 42.495 23.12-10.231 21.846-15.038 44.326-4.808 22.481-4.808 46.602 0 61.187 31.615 113.706 31.616 52.519 86.846 80.596v160.925h40.308v51.998H212.001Zm563.383-269.385v-111h-108v-45.998h108v-111h51.999v111h108v45.998h-108v111h-51.999Z"/></svg>