<svg xmlns="http://www.w3.org/2000/svg" height="20" viewBox="0 -960 960 960" width="20"><path d="M479.72-108.309q-26.643 0-45.335-18.89t-18.692-45.417h128.614q0 26.923-18.972 45.615-18.973 18.692-45.615 18.692ZM212.001-220.616v-51.998h40.308v-258.463q0-84.692 53.307-148.192 53.308-63.5 136.385-76.807v-87.923h75.998v87.898q25.616 4.255 48.582 14.212 22.966 9.956 42.495 23.12-4.875 13.897-7.591 28.91-2.716 15.012-3.178 31.012-22.615-21.846-53.574-34.885Q513.774-706.77 480-706.77q-73.462 0-124.577 51.116-51.116 51.115-51.116 124.577v258.463h351.386v-207.693q10.153 14.384 23.525 26.242 13.371 11.857 28.473 20.526v160.925h40.308v51.998H212.001ZM480-489.692Zm295.384-.309v-111h-108v-45.998h108v-111h51.999v111h108v45.998h-108v111h-51.999Z"/></svg>