<svg xmlns="http://www.w3.org/2000/svg" height="24" viewBox="0 -960 960 960" width="24"><path d="M480.565-54.564q-35.798 0-61.29-25.326-25.493-25.327-25.493-60.892h173.001q0 35.827-25.326 61.022-25.327 25.196-60.892 25.196ZM140.782-180.782v-106.001h73.217v-260.782q0-90.348 53.109-161.913 53.108-71.566 139.891-93.45v-96.29h146.002v96.478q16.826 4.529 32.717 10.417 15.891 5.888 30.326 14.757-34.218 36.131-52.392 81.805-18.174 45.674-18.174 95.681 0 91.124 56.109 161.515 56.109 70.392 144.414 90.348v61.434h73.217v106.001H140.782ZM755.478-440v-115.478H640v-89.044h115.478V-760h89.044v115.478H960v89.044H844.522V-440h-89.044Z"/></svg>