<svg xmlns="http://www.w3.org/2000/svg" height="20" viewBox="0 -960 960 960" width="20"><path d="M480.353-70.564q-32.586 0-55.578-22.976-22.993-22.977-22.993-55.242h157.001q0 32.827-23.039 55.522-23.039 22.696-55.391 22.696ZM172.782-196.782v-98.001h41.217v-220.782q0-94.348 56.609-167.413 56.608-73.066 148.391-90.95v-109.29h122.002v109.478q24.826 4.529 47.217 14.417t41.826 22.757q-13.653 21.392-23.457 46.261-9.805 24.87-12.935 53.218-21.87-21.304-51.564-33.891T480-683.565q-70 0-119 49t-49 119v220.782h336v-189.826q19.652 22.392 44.935 38.74 25.283 16.348 53.066 25.877v125.209h41.217v98.001H172.782ZM480-489.174ZM775.478-480v-106.478H672v-75.044h103.478V-768h81.044v106.478H960v75.044H856.522V-480h-81.044Z"/></svg>