<svg xmlns="http://www.w3.org/2000/svg" height="20" viewBox="0 -960 960 960" width="20"><path d="M479.651-120.615q-23.497 0-39.882-16.631-16.384-16.631-16.384-39.985h113.23q0 23.846-16.733 40.231t-40.231 16.385ZM232-225.231v-32h32.615v-276.923q0-82.384 53.116-143.384Q370.846-738.539 452-749.154V-824h56v74.796q25.231 3.512 47.663 12.925 22.433 9.413 41.491 21.74-9.462 20.693-14.077 42.212-4.615 21.518-4.615 44.645 0 59.375 31.23 110.413 31.231 51.038 85.693 77.192v182.846H728v32H232ZM770.769-500v-111h-108v-26h108v-111h32.001v111h108v26h-108v111h-32.001Z"/></svg>