<svg xmlns="http://www.w3.org/2000/svg" height="24" viewBox="0 -960 960 960" width="24"><path d="M479.932-92.309q-29.855 0-51.047-21.24-21.192-21.24-21.192-51.067h144.614q0 29.923-21.26 51.115-21.26 21.192-51.115 21.192ZM180.001-204.616v-59.998h72.308v-298.463q0-80.692 49.807-142.692 49.808-62 127.885-79.307v-74.923h99.998v74.898q17.616 4.255 34.082 10.212 16.466 5.956 30.995 15.12-9.875 11.897-17.091 24.91-7.216 13.012-13.678 27.012-18.615-10.846-39.868-16.885-21.254-6.038-44.439-6.038-69.462 0-118.577 49.116-49.116 49.115-49.116 118.577v298.463h335.386v-130.693q13.153 10.384 28.025 19.242 14.871 8.857 31.973 14.526v96.925h72.308v59.998H180.001ZM480-497.692Zm275.384 47.691v-120h-120v-59.998h120v-120h59.999v120h120v59.998h-120v120h-59.999Z"/></svg>