<svg xmlns="http://www.w3.org/2000/svg" height="20" viewBox="0 -960 960 960" width="20"><path d="M273-408v9q0 16.9 11.05 27.95T312-360q16.9 0 27.95-11.05T351-399v-97q0-16.9-11.05-27.95T312-535q-16.9 0-27.95 11.05T273-496v9h-8.721q-16.779 0-28.029 11.05T225-448q0 16.4 11.8 28.2T265-408h8Zm166 0h257q16.9 0 27.95-11.8T735-448q0-16.4-11.05-27.7T696-487H438q-16.9 0-27.95 11.05T399-448q0 16.4 11.8 28.2T439-408Zm248-175h8.721q16.779 0 28.029-11.8T735-623q0-16.4-11.05-27.7T696-662h-9v-9q0-16.9-11.05-27.95T648-710q-16.9 0-27.95 11.05T609-671v97q0 16.9 11.05 27.95T648-535q16.9 0 27.95-11.05T687-574v-9Zm-422 0h257q16.9 0 27.95-11.8T561-623q0-16.4-11.05-27.7T522-662H264q-16.9 0-27.95 11.05T225-623q0 16.4 11.8 28.2T265-583Zm-85 377q-49.7 0-83.85-34.162Q62-274.324 62-324.04v-408.243Q62-782 96.15-816T180-850h600q49.7 0 83.85 34.162Q898-781.676 898-731.96v408.243Q898-274 863.85-240T780-206H642v37q0 24.3-17.338 41.65Q607.323-110 583.04-110H377.283Q353-110 335.5-127.35T318-169v-37H180Zm0-118h600v-408H180v408Zm0 0v-408 408Z"/></svg>