<svg xmlns="http://www.w3.org/2000/svg" height="24" viewBox="0 -960 960 960" width="24"><path d="M326-442v26q0 6.067 3.953 10.033 3.954 3.967 10 3.967Q346-402 350-405.967q4-3.966 4-10.033v-80q0-6.067-3.953-10.033-3.954-3.967-10-3.967Q334-510 330-506.033q-4 3.966-4 10.033v26h-46q-6.067 0-10.033 3.953-3.967 3.954-3.967 10Q266-450 269.967-446q3.966 4 10.033 4h46Zm82 0h272q6.067 0 10.033-3.953 3.967-3.954 3.967-10Q694-462 690.033-466q-3.966-4-10.033-4H408q-6.067 0-10.033 3.953-3.967 3.954-3.967 10Q394-450 397.967-446q3.966 4 10.033 4Zm226-128h46q6.067 0 10.033-3.953 3.967-3.954 3.967-10Q694-590 690.033-594q-3.966-4-10.033-4h-46v-26q0-6.067-3.953-10.033-3.954-3.967-10-3.967Q614-638 610-634.033q-4 3.966-4 10.033v80q0 6.067 3.953 10.033 3.954 3.967 10 3.967Q626-530 630-533.967q4-3.966 4-10.033v-26Zm-354 0h272q6.067 0 10.033-3.953 3.967-3.954 3.967-10Q566-590 562.033-594q-3.966-4-10.033-4H280q-6.067 0-10.033 3.953-3.967 3.954-3.967 10Q266-578 269.967-574q3.966 4 10.033 4Zm-88 318q-26 0-43-17t-17-43v-416q0-26 17-43t43-17h576q26 0 43 17t17 43v416q0 26-17 43t-43 17H588v50q0 12.75-8.625 21.375T558-172H402q-12.75 0-21.375-8.625T372-202v-50H192Z"/></svg>