<svg xmlns="http://www.w3.org/2000/svg" height="24" viewBox="0 -960 960 960" width="24"><path d="M291.521-396.434v11.521q0 16.674 10.903 27.577 10.902 10.902 27.576 10.902t27.576-10.902q10.903-10.903 10.903-27.577v-100.565q0-16.674-10.903-27.576-10.902-10.903-27.576-10.903t-27.576 10.903q-10.903 10.902-10.903 27.576v11.521H270q-16.674 0-27.576 10.903-10.903 10.902-10.903 27.576 0 16.391 11.327 27.718 11.326 11.326 27.717 11.326h20.956Zm156.002 0H690q16.674 0 27.576-11.326 10.903-11.327 10.903-27.718 0-16.392-10.903-27.435-10.902-11.044-27.576-11.044H446.957q-16.674 0-27.576 10.903-10.902 10.902-10.902 27.576 0 16.391 11.326 27.718 11.326 11.326 27.718 11.326Zm220.956-177.523H690q16.674 0 27.576-11.326 10.903-11.326 10.903-27.718 0-16.391-10.903-27.435-10.902-11.043-27.576-11.043h-21.521v-11.522q0-16.674-10.903-27.576-10.902-10.902-27.576-10.902t-27.576 10.902q-10.903 10.902-10.903 27.576v100.566q0 16.674 10.903 27.576 10.902 10.902 27.576 10.902t27.576-10.902q10.903-10.902 10.903-27.576v-11.522Zm-397.914 0h242.478q16.674 0 27.576-11.326 10.902-11.326 10.902-27.718 0-16.391-10.902-27.435-10.902-11.043-27.576-11.043H270q-16.674 0-27.576 10.902-10.903 10.902-10.903 27.576 0 16.392 11.327 27.718 11.326 11.326 27.717 11.326ZM166.783-180.782q-44.305 0-75.153-30.848-30.848-30.848-30.848-75.153v-466.434q0-44.305 30.848-75.153 30.848-30.848 75.153-30.848h626.434q44.305 0 75.153 30.848 30.848 30.848 30.848 75.153v466.434q0 44.305-30.848 75.153-30.848 30.848-75.153 30.848H650.174v27q0 22.087-15.456 37.544-15.457 15.456-37.544 15.456H362.826q-22.087 0-37.544-15.456-15.456-15.457-15.456-37.544v-27H166.783Z"/></svg>