<svg xmlns="http://www.w3.org/2000/svg" height="20" viewBox="0 -960 960 960" width="20"><path d="M213-166q-22.3 0-38.65-16.289-16.35-16.29-16.35-38.5Q158-243 174.35-259T213-275h293q21.3 1 37.15 16.289 15.85 15.29 15.85 38.5Q559-198 543.15-182T505-166H213Zm-.708-179Q190-345 174-360.789q-16-15.79-16-38Q158-421 173.844-437q15.845-16 38.137-16h535.727Q770-453 786-437.211q16 15.79 16 38Q802-377 786.156-361q-15.845 16-38.137 16H212.292Zm0-177Q190-522 174-537.789q-16-15.79-16-38Q158-598 173.844-614q15.845-16 38.137-16h535.727Q770-630 786-614.211q16 15.79 16 38Q802-554 786.156-538q-15.845 16-38.137 16H212.292Zm5-178Q193-700 175.5-717.289q-17.5-17.29-17.5-41.5Q158-783 175.344-800.5q17.345-17.5 41.637-17.5h525.727Q767-818 784.5-800.711q17.5 17.29 17.5 41.5Q802-735 784.656-717.5 767.311-700 743.019-700H217.292Z"/></svg>