<svg xmlns="http://www.w3.org/2000/svg" height="20" viewBox="0 -960 960 960" width="20"><path d="M706.782-435.521H528.826q-10.13 86.869-60.913 155.673-50.783 68.805-129.522 107.935 1.739 56.261-34.739 94.327-36.478 38.065-92.739 38.065-53.957 0-91.501-37.261Q81.869-114.043 81.869-168t37.543-91.218q37.544-37.261 91.501-37.261 25.948 0 50.256 10.37 24.309 10.369 43.44 30.804 53.782-26.739 87.999-74.438 34.218-47.699 44.565-105.778H331.042q-14.738 38-47.488 61-32.751 23-72.641 23-53.957 0-91.501-37.261Q81.869-426.043 81.869-480t37.543-91.218q37.544-37.261 91.501-37.261 40.13 0 72.68 23.1 32.549 23.1 47.537 60.9h106.043q-10.13-58.217-44.456-105.847-34.326-47.63-88.108-74.369-19.131 20.435-43.44 30.804-24.308 10.37-50.256 10.37-53.957 0-91.501-37.261Q81.869-738.043 81.869-792t37.543-91.218q37.544-37.261 91.501-37.261 55.261 0 91.739 38.066 36.478 38.065 35.739 94.326 78.87 39.13 128.994 108.608 50.124 69.478 61.716 155h177.681l-25.783-25.782q-14.391-14.391-14.391-31.718 0-17.326 14.391-31.717 14.392-14.392 31.718-14.392t31.718 14.392l98.687 98.957q7.096 7.111 11.009 16.256 3.913 9.144 3.913 18.626 0 9.482-3.913 18.626-3.913 9.144-10.609 15.84l-99.087 99.087q-14.392 14.392-31.218 13.892t-31.218-14.892q-14.391-14.391-14.391-31.717 0-17.327 14.391-31.718l24.783-24.782Z"/></svg>