<svg xmlns="http://www.w3.org/2000/svg" height="24" viewBox="0 -960 960 960" width="24"><path d="M680-232.348 615.869-296l182.479-184-182.479-184L680-727.652 927.652-480 680-232.348Zm-399.522 0L32.587-480l247.891-247.652L344.37-664 162.131-480 344.37-296l-63.892 63.652Zm42.148-205.739q-17.713 0-29.811-12.05-12.098-12.05-12.098-29.863t12.05-29.863q12.05-12.05 29.863-12.05 17.712 0 29.693 12.05 11.981 12.05 11.981 29.863t-11.982 29.863q-11.982 12.05-29.696 12.05Zm157.374 0q-17.813 0-29.863-12.05T438.087-480q0-17.813 12.05-29.863T480-521.913q17.813 0 29.863 12.05T521.913-480q0 17.813-12.05 29.863T480-438.087Zm157.37 0q-17.712 0-29.693-12.05-11.981-12.05-11.981-29.863t11.982-29.863q11.982-12.05 29.696-12.05 17.713 0 29.811 12.05 12.098 12.05 12.098 29.863t-12.05 29.863q-12.05 12.05-29.863 12.05Z"/></svg>