<svg xmlns="http://www.w3.org/2000/svg" height="20" viewBox="0 -960 960 960" width="20"><path d="m672-208-85-83 191-189-191-189 85-83 272 272-272 272Zm-382 0L17-480l273-272 84 83-190 189 190 189-84 83Zm45.193-228Q317-436 304-448.589q-13-12.59-13-31.2 0-18.611 12.589-31.411 12.59-12.8 31.2-12.8 18.186 0 30.698 12.589Q378-498.821 378-480.211q0 18.611-12.307 31.411t-30.5 12.8Zm145.018 0q-18.611 0-31.411-12.589-12.8-12.59-12.8-31.2 0-18.611 12.589-31.411 12.59-12.8 31.2-12.8 18.611 0 31.411 12.589 12.8 12.59 12.8 31.2 0 18.611-12.589 31.411-12.59 12.8-31.2 12.8Zm145 0q-18.186 0-30.698-12.589Q582-461.179 582-479.789q0-18.611 12.307-31.411t30.5-12.8Q643-524 656-511.411q13 12.59 13 31.2 0 18.611-12.589 31.411-12.59 12.8-31.2 12.8Z"/></svg>