<svg xmlns="http://www.w3.org/2000/svg" height="20" viewBox="0 -960 960 960" width="20"><path d="M644.308-267.692 621-291l190.538-189L621-669l23.308-23.308L856.616-480 644.308-267.692Zm-328.616 0L103.384-480l212.308-212.308L339-669 148.462-480 339-291l-23.308 23.308Zm8.465-185.539q-11.311 0-19.119-7.651-7.807-7.651-7.807-18.961 0-11.311 7.651-19.119 7.651-7.807 18.961-7.807 11.311 0 19.119 7.651 7.807 7.651 7.807 18.961 0 11.311-7.651 19.119-7.651 7.807-18.961 7.807Zm156 0q-11.311 0-19.119-7.651-7.807-7.651-7.807-18.961 0-11.311 7.651-19.119 7.651-7.807 18.961-7.807 11.311 0 19.119 7.651 7.807 7.651 7.807 18.961 0 11.311-7.651 19.119-7.651 7.807-18.961 7.807Zm156 0q-11.311 0-19.119-7.651-7.807-7.651-7.807-18.961 0-11.311 7.651-19.119 7.651-7.807 18.961-7.807 11.311 0 19.119 7.651 7.807 7.651 7.807 18.961 0 11.311-7.651 19.119-7.651 7.807-18.961 7.807Z"/></svg>