<svg xmlns="http://www.w3.org/2000/svg" height="24" viewBox="0 -960 960 960" width="24"><path d="M480-492q-44.55 0-76.275-31.725Q372-555.45 372-600q0-44.55 31.725-76.275Q435.45-708 480-708q44.55 0 76.275 31.725Q588-644.55 588-600q0 44.55-31.725 76.275Q524.55-492 480-492ZM212-212v-52q0-26 13-43.5t37-28.5q48-23 106-37.5T480-388q54 0 112 14.5T698-336q24 11 37 28.5t13 43.5v52H212ZM39-727v-28q35 0 64.5-13t52.5-36q23-23 35.5-53t12.5-64h27q0 40.253-15 75.626Q201-810 175-784t-61.055 41.5Q78.89-727 39-727Zm0 127v-28q61 0 113.5-23t92.5-63q40-40 63-93.026Q331-860.051 331-921h29q0 66-25 124.5T266-694q-44 44-102 69T39-600Zm881 0q-65.794 0-124.112-25t-102.181-69q-43.863-44-68.785-102.5Q600-855 600-921h28q0 61 23.078 113.838 23.079 52.837 63.163 92.921 40.084 40.084 92.921 63.163Q860-628 920-628v28Zm0-127q-40.253 0-75.626-15.5Q809-758 783-784t-41-61.374Q727-880.747 727-921h28q0 34 12.5 64t35.5 53q23 23 53 36t64 13v28Z"/></svg>