<svg xmlns="http://www.w3.org/2000/svg" height="24" viewBox="0 -960 960 960" width="24"><path d="M480-480q-49.5 0-84.75-35.25T360-600q0-49.5 35.25-84.75T480-720q49.5 0 84.75 35.25T600-600q0 49.5-35.25 84.75T480-480ZM200-190.769v-65.846q0-27.616 13.923-47.77 13.923-20.153 39.308-32.077 48.692-23.692 108.077-39Q420.692-390.769 480-390.769q59.308 0 118.692 15.307 59.385 15.308 108.077 39 25.385 11.924 39.308 32.077Q760-284.231 760-256.615v65.846H200Zm40-40h480v-25.846q0-16.385-9.346-26.923-9.346-10.539-22.962-17.846-37.538-19.539-94.038-34.462-56.5-14.923-113.654-14.923-57.154 0-113.654 14.923-56.5 14.923-94.038 34.462-13.616 7.307-22.962 17.846Q240-273 240-256.615v25.846ZM480-520q33 0 56.5-23.5T560-600q0-33-23.5-56.5T480-680q-33 0-56.5 23.5T400-600q0 33 23.5 56.5T480-520ZM39-734.616v-40q30.846 0 56.77-11.5 25.922-11.5 46.153-31.73 20.231-20.231 31.23-46.539 11-26.307 11-56.384h39.462q0 38.579-14.423 72.482-14.423 33.902-39.5 58.979-25.077 25.077-58.734 39.885Q77.3-734.616 39-734.616Zm0 134.847v-40q58.692 0 109.115-22.077 50.423-22.077 88.577-60.462 38.154-38.384 60.231-89.212Q319-862.347 319-920.769h41q0 66-25 124.5t-69 102.5q-44 44-102 69t-125 25Zm881 0q-65.842 0-124.202-25-58.359-25-102.254-69t-68.835-102.5q-24.94-58.5-24.94-124.5h40q0 58.461 22.138 109.144 22.137 50.683 60.586 89.132 38.449 38.449 89.132 60.586Q862.308-639.769 920-639.769v40Zm0-134.847q-38.579 0-72.482-14.807-33.903-14.808-58.979-39.885-25.077-25.077-39.5-58.979-14.423-33.903-14.423-72.482h40q0 30.077 11.115 56.384 11.115 26.308 31.346 46.539 20.231 20.23 46.539 31.73 26.307 11.5 56.384 11.5v40ZM480-600Zm0 369.231Z"/></svg>