<svg xmlns="http://www.w3.org/2000/svg" height="20" viewBox="0 -960 960 960" width="20"><path d="M480-484q-38.55 0-65.275-26.725Q388-537.45 388-576q0-38.55 26.725-65.275Q441.45-668 480-668q38.55 0 65.275 26.725Q572-614.55 572-576q0 38.55-26.725 65.275Q518.55-484 480-484ZM244-236v-32q0-17.659 8-27.83Q260-306 277-316q52-29 107-42.5t95.5-13.5q40.5 0 95.5 13.5T683-316q16 10 24.5 20.17Q716-285.659 716-268v32H244Zm20-20h432v-12q0-13.069-8-20.034Q680-295 669-302q-50-28-101.5-39t-88-11q-36.5 0-88 11T291-302q-12 7-19.5 13.966Q264-281.069 264-268v12Zm215.504-248Q509-504 530.5-525.004q21.5-21.005 21.5-50.5Q552-605 530.5-626.5 509-648 479.504-648q-29.495 0-50.5 21.5Q408-605 408-575.504q0 29.495 21.004 50.5Q450.009-504 479.504-504ZM47-735v-20q33 0 61.423-12.188Q136.846-779.375 159-801q22.043-22.018 34.022-50.768Q205-880.518 205-913h19q0 37.253-13.67 69.726Q196.66-810.8 173-787q-24.053 23.66-56.542 37.83Q83.97-735 47-735Zm0 110v-20q55 0 103.845-20.859Q199.689-686.718 237-723q37-36 57.924-84.898Q315.849-856.796 315.849-913H336q0 59.508-23 112.254T251-709q-39 39-91.295 61.5T47-625Zm864 0q-59.794 0-111.549-22.283-51.754-22.282-90.68-61.5-38.927-39.217-61.349-91.963Q625-853.492 625-913h19.864q0 56.255 21.147 104.965 21.146 48.71 57.23 84.794 36.084 36.084 84.476 57.23Q856.109-644.864 911-644.864V-625Zm0-110q-36.748 0-69.042-14.17Q809.664-763.34 786-787q-23.66-24.075-37.33-56.911Q735-876.747 735-913h20q0 32.482 11.688 61.232Q778.375-823.018 800-801q22.154 21.625 51.077 33.812Q880-755 911-755v20ZM480-576Zm0 320Z"/></svg>