<svg xmlns="http://www.w3.org/2000/svg" height="20" viewBox="0 -960 960 960" width="20"><path d="M480.5-397q-75.5 0-127-51.5T302-575q0-75 51.5-126.5T480-753q75 0 126.5 51.5T658-575q0 75-51 126.5T480.5-397ZM158-42v-127q0-39.659 21.5-68.33Q201-266 224-280q55-32 123.5-50.5t132-18.5q63.5 0 132 17.5T736-282q22 14 44 43.67 22 29.671 22 69.33v127H158ZM8-788v-98q7.388 0 14.043-2.716 6.654-2.716 11.882-7.313 5.119-4.989 7.597-11.517Q44-914.073 44-922h99q0 28-10.67 52.6T104-827q-18.053 17.66-42.487 28.33Q37.08-788 8-788Zm0 169v-98q42 0 79.844-15.359Q125.69-747.718 155-776q29-28 44.424-65.467 15.425-37.467 15.425-80.533H312q0 63.508-24.168 118.778-24.168 55.269-65.225 96.167-41.056 40.898-96.061 64.477Q71.541-619 8-619Zm943 1q-64 0-118.505-23.551-54.505-23.551-95.5-65T672-803.246Q648-858.492 648-922h98.864q0 43.066 15.568 80.533T806-776q28 28 65.15 43.568 37.149 15.568 79.85 15.568V-618Zm0-170q-27.496 0-51.916-10.67Q874.664-809.34 857-827q-17.66-18.075-28.33-42.944Q818-894.813 818-922h98q0 7.482 2.763 14.01 2.762 6.528 7.437 11.657 5.204 4.736 11.827 7.534Q944.65-886 951-886v98Z"/></svg>