<svg xmlns="http://www.w3.org/2000/svg" height="24" viewBox="0 -960 960 960" width="24"><path d="M480.283-420.216q-74.762 0-127.132-52.37-52.369-52.37-52.369-126.849 0-74.478 52.369-126.848 52.37-52.37 126.849-52.37 74.479 0 126.849 52.37 52.369 52.37 52.369 126.848 0 74.479-52.087 126.849-52.087 52.37-126.848 52.37ZM140.782-62.345v-131.783q0-41.479 22.369-74.436 22.37-32.957 52.37-47.957 51-26 119.24-44.847Q403-380.216 480-380.216t145.239 18.282q68.24 18.283 119.24 44.283 30 15 52.37 48.522 22.369 33.522 22.369 75.001v131.783H140.782Zm106.001-106.001h466.434v-22.956q0-11-5.5-19.152-5.5-8.153-14.5-13.153-36-18-91.369-34.304-55.37-16.304-121.848-16.304-66.478 0-121.848 16.587-55.369 16.587-91.369 34.144-9 4.877-14.5 13.03-5.5 8.152-5.5 19.152v22.956ZM479.98-526.218q30.194 0 51.715-21.501 21.522-21.502 21.522-51.696t-21.502-51.715q-21.501-21.522-51.695-21.522t-51.715 21.502q-21.522 21.501-21.522 51.695t21.502 51.716q21.501 21.521 51.695 21.521ZM16.955-771.305v-94.696q12.698 0 23.154-4.821 10.457-4.82 18.673-12.978 8.216-8.157 12.52-18.64t4.304-23.212h95.697q0 31.869-12.217 60.021-12.218 28.152-33.087 49.022-20.87 20.869-48.74 33.087-27.869 12.217-60.304 12.217Zm0 175.131v-94.696q49.305 0 91.674-18.152 42.37-18.152 74.37-50.587 32-32.435 50.152-74.858t18.152-91.185h95.131q0 68.261-25.66 128.187-25.661 59.926-70.823 104.999-45.162 45.073-104.694 70.683-59.532 25.609-128.302 25.609Zm925.655.565q-68.261 0-128.213-25.716-59.952-25.717-105.043-70.979-45.092-45.261-70.94-105.174-25.848-59.913-25.848-128.174h95.262q0 48.762 18.152 91.185t50.587 74.858q32.434 32.435 74.857 50.587 42.424 18.152 91.186 18.152v95.261Zm0-175.696q-31.87 0-60.022-12.217-28.152-12.218-49.021-33.087-20.87-20.87-33.087-48.969-12.218-28.099-12.218-60.074h94.697q0 12.478 4.846 22.96 4.847 10.483 13.049 18.72 8.202 8.237 18.641 13.104 10.439 4.867 23.115 4.867v94.696ZM480-599.435Zm0 431.089Z"/></svg>