<svg xmlns="http://www.w3.org/2000/svg" height="20" viewBox="0 -960 960 960" width="20"><path d="m480-377 43 33q18 13 35 .5t11-33.5l-17-54 48-39q17-13 10.5-32.5T582-522h-55.728L508-576q-6-21-28-21t-28 21l-17.941 54h-55.652Q356-522 349.5-502.5T359-470l49 39-17 55q-6 21 11.5 33t34.5-1l43-33ZM180-158q-49.7 0-83.85-34.108Q62-226.217 62-275.858v-127.261q0-9.881 5.929-16.766 5.928-6.884 16.03-8.73Q105-434 119.5-447q14.5-13 14.5-33 0-21-14.5-34t-35.54-17.351q-10.103-1.838-16.031-8.69Q62-546.892 62-557v-127.186q0-49.623 34.15-83.719Q130.3-802 180-802h600q49.7 0 83.85 34.108Q898-733.783 898-684.142v128.261q0 9.881-5.929 16.266-5.928 6.384-16.03 8.23Q855-527 840.5-514 826-501 826-480q0 20 14.5 33t35.541 18.351q10.102 1.838 16.03 8.19Q898-414.108 898-404v128.186q0 49.623-34.15 83.719Q829.7-158 780-158H180Z"/></svg>