<svg xmlns="http://www.w3.org/2000/svg" height="20" viewBox="0 -960 960 960" width="20"><path d="m480-417 39 30.385q9.462 6.461 16.885.5 7.423-5.962 4.961-16.654l-15.307-48.385 45.538-36.385q7.692-6.461 5.231-15.769-2.462-9.307-13.154-9.307h-52.651l-17.349-50.693Q490.692-574 480-574t-13.154 10.692l-17.018 50.693h-52.575q-11.099 0-13.946 9.307-2.846 9.308 4.847 15.769l46.307 36.385L419.154-402q-2.462 10.693 5.346 16.654 7.808 5.962 16.5-.5L480-417ZM192.615-232q-23.546 0-40.081-16.493Q136-264.986 136-288.474v-70.492q0-7.573 3.736-14.188t10.761-10q26.657-15.846 42.08-40.5Q208-448.308 208-480q0-31.692-15.423-56.346-15.423-24.654-42.08-40.467-7.025-3.376-10.761-9.958Q136-593.353 136-601.154v-70.417q0-23.469 16.534-39.949Q169.069-728 192.615-728h574.77q23.546 0 40.081 16.493Q824-695.014 824-671.526v70.492q0 7.573-3.736 14.188t-10.761 10q-26.657 15.846-42.08 40.5Q752-511.692 752-480q0 31.692 15.423 56.346 15.423 24.654 42.08 40.467 7.025 3.376 10.761 9.958Q824-366.647 824-358.846v70.417q0 23.469-16.534 39.949Q790.931-232 767.385-232h-574.77Zm0-32h574.77q10.769 0 17.692-6.923T792-288.615V-355q-32-19-52-52t-20-73q0-40 20-73t52-52v-66.385q0-10.769-6.923-17.692T767.385-696h-574.77q-10.769 0-17.692 6.923T168-671.385V-605q32 19 52 52t20 73q0 40-20 73t-52 52v66.385q0 10.769 6.923 17.692T192.615-264ZM480-480Z"/></svg>