<svg xmlns="http://www.w3.org/2000/svg" height="20" viewBox="0 -960 960 960" width="20"><path d="m480-423 33 26q9 6 15.5.5T533-412l-13-41 40-32q7-6 5-14.5t-12-8.5h-45.728L492-552q-2-10-12-10t-12 10l-14.941 44h-45.652Q397-508 394.5-499.5T399-485l41 32-13 42q-2 10 5 15.5t15-.5l33-27ZM200-244q-21.7 0-36.85-15.108Q148-274.217 148-295.858v-55.261q0-6.881 2.929-13.266 2.928-6.384 9.03-10.23Q188-393 204-419.5q16-26.5 16-60.5t-16-60.5q-16-26.5-44.041-44.851-6.102-3.838-9.03-10.19Q148-601.892 148-609v-55.186q0-21.623 15.15-36.719Q178.3-716 200-716h560q21.7 0 36.85 15.108Q812-685.783 812-664.142v55.261q0 6.881-2.929 13.266-2.928 6.384-9.03 10.23Q772-567 756-540.5 740-514 740-480t16 60.5q16 26.5 44.041 44.851 6.102 3.838 9.03 10.19Q812-358.108 812-351v55.186q0 21.623-15.15 36.719Q781.7-244 760-244H200Z"/></svg>