<svg xmlns="http://www.w3.org/2000/svg" height="20" viewBox="0 -960 960 960" width="20"><path d="m480-385.695 49.956 38.217q14.957 10.826 29.131.5t9.043-27.848l-19.608-62.261 54.956-44.217q13.957-10.826 8.544-27.065-5.413-16.24-23.501-16.24h-64.423l-20.88-62.26q-5.131-17.522-23.218-17.522t-23.218 17.522l-20.549 62.26h-64.348q-18.494 0-23.907 16.24-5.413 16.239 7.979 27.065l55.521 44.217-19.608 62.826q-5.131 17.522 9.326 27.566 14.456 10.043 28.848-.783L480-385.695ZM174.783-172.782q-41.005 0-69.503-28.456-28.498-28.457-28.498-69.403v-124.653q0-9.88 6.146-16.982 6.145-7.102 16.248-8.949 21.475-6.254 35.54-21.645 14.066-15.391 14.066-37.13 0-22.304-14.066-37.695-14.065-15.392-35.54-21.047-10.103-1.838-16.248-8.907-6.146-7.068-6.146-17.177v-124.577q0-40.928 28.498-69.372 28.498-28.443 69.503-28.443h610.434q41.005 0 69.503 28.456 28.498 28.457 28.498 69.403v125.218q0 9.881-6.146 16.7-6.145 6.819-16.248 8.666-21.475 5.688-35.54 21.08-14.066 15.391-14.066 37.695 0 21.739 14.066 37.13 14.065 15.391 35.54 21.612 10.103 1.838 16.248 8.624 6.146 6.786 6.146 16.894v125.143q0 40.928-28.498 69.372-28.498 28.443-69.503 28.443H174.783Z"/></svg>