<svg xmlns="http://www.w3.org/2000/svg" height="24" viewBox="0 -960 960 960" width="24"><path d="M459.231-772.308q-27.616 0-47.654-20.038-20.039-20.039-20.039-47.654 0-27.615 20.039-47.654 20.038-20.038 47.654-20.038 27.615 0 47.654 20.038 20.038 20.039 20.038 47.654 0 27.615-20.038 47.654-20.039 20.038-47.654 20.038Zm235.385 270.77q0 8.538-5.731 14.269t-14.27 5.731h-36.692L820-98.846q2.693 5.692.962 11.538-1.731 5.847-7.423 8.539-5.693 2.692-11.923.692-6.231-2-8.924-7.692L598.769-492.538q-43.846-14.539-79.038-44.808-35.193-30.269-67.423-82.961-20.769 52.846-29.731 101.884-8.961 49.038-4.654 84.115l79.769 138.923v203.077q0 8.539-5.73 14.27-5.731 5.73-14.27 5.73-8.538 0-14.269-5.73-5.731-5.731-5.731-14.27V-270l-94.846-132.769-3.615 155.846L234-88.923q-5.384 7.077-12.923 8.308-7.538 1.23-14.615-4.154-7.077-5.385-7.924-13.308-.846-7.923 4.539-15l115.384-147.769-16.923-173q-6.153-44.077 2.039-99.654t27.192-104.038l-105.384 64V-460q0 8.539-5.731 14.269Q213.923-440 205.385-440q-8.539 0-14.27-5.731-5.731-5.73-5.731-14.269v-118.077q0-8.692 3.962-16.269 3.962-7.577 11.423-11.808l158.308-94.077q14.923-9.615 27.385-13.154 12.461-3.538 25.538-3.538 17.846 0 31.308 8.538 13.461 8.539 24.231 27.231l32.538 57q28.462 49.385 74.077 76 45.615 26.615 100.461 26.615 8.539 0 14.27 5.731t5.731 14.27Z"/></svg>