<svg xmlns="http://www.w3.org/2000/svg" height="24" viewBox="0 -960 960 960" width="24"><path d="m169.999-85.52-7.131-55.522q.522.261-3.195-2.022-3.718-2.282-15.805-9.543l-52.522 22.261-49.087-85.609 44.957-33.827v-21l-44.957-35.391 49.087-85.609 52.522 22.261q5-3 9.5-6t9.5-5l7.131-56.088h98.174l7.131 56.088q.304-.131-6.175-3.935-6.479-3.805-9.566-5.349-3.087-1.543 3.304 2.153 6.392 3.695 31.437 18.131l52.522-22.261 49.652 85.609-44.957 34.391v19.739l222.957-129.261-47.261 83.522 17.087 12.957-162.522 94.826-34.956 59.653-52.522-22.261q-5 3-9.5 6t-9.5 5l-7.131 56.087h-98.174Zm49.087-238.653q-26.131 0-44.761 18.63-18.631 18.631-18.631 44.761 0 26.131 18.631 44.761 18.63 18.631 44.761 18.631 26.13 0 44.761-18.631 18.63-18.63 18.63-44.761 0-26.13-18.63-44.761-18.631-18.63-44.761-18.63Zm168.435-239.218-7.13-56.088q-1.435-.869-3.304-1.587-1.87-.717-3.87-2.717v220.565l-14.435-24.304-54.609 22.957v-212.479l-43.957-76.783 43.957-34.391v-21l-44.957-34.827 49.653-85.609 52.522 22.261q6.696-4.696 10.913-7.13 4.217-2.435 8.087-3.87l7.13-56.087h98.175l7.13 55.522q-.522-.261 3.196 2.022 3.717 2.282 15.804 9.543l52.522-22.261 49.087 85.609-44.956 34.392V-729.218l44.956 35.391-49.087 85.044-52.522-21.696q-5 3-9.5 6t-9.5 5l-7.13 56.088h-98.175Zm49.088-239.219q-26.131 0-44.761 18.631-18.631 18.63-18.631 44.761 0 26.13 18.631 44.761 18.63 18.63 44.761 18.63 26.13 0 44.761-18.63Q500-713.088 500-739.218q0-26.131-18.63-44.761-18.631-18.631-44.761-18.631ZM691.827-85.52l-7.131-55.522q.522.261-3.195-2.022-3.717-2.282-15.805-9.543l-52.522 22.261-49.652-85.609 44.957-33.827v-21l-44.957-34.391 49.652-86.609 52.522 22.261q3.566-2 6.261-3.348l11.044-5.522-222.218-156.522h50.261l5.13-43.913 204.61 142.217h69.217l7.131 56.088q.304-.131-6.175-3.935-6.478-3.805-9.566-5.349-3.087-1.543 3.305 2.153 6.391 3.695 31.436 18.131l52.522-21.696 49.087 85.044-44.957 34.391v21l44.957 34.827-49.087 85.609-52.522-22.261q-5 3-9.5 6t-9.5 5l-7.131 56.087h-98.174Zm49.087-238.653q-26.13 0-44.761 18.63-18.63 18.631-18.63 44.761 0 26.131 18.63 44.761 18.631 18.631 44.761 18.631 26.131 0 44.761-18.631 18.631-18.63 18.631-44.761 0-26.13-18.631-44.761-18.63-18.63-44.761-18.63Z"/></svg>