<svg xmlns="http://www.w3.org/2000/svg" height="24" viewBox="0 -960 960 960" width="24"><path d="M206.783-100.782q-44.305 0-75.153-30.848-30.848-30.848-30.848-75.153v-546.434q0-44.305 30.848-75.153 30.848-30.848 75.153-30.848h546.434q44.305 0 75.153 30.848 30.848 30.848 30.848 75.153v546.434q0 44.305-30.848 75.153-30.848 30.848-75.153 30.848H206.783ZM480-323.391q30.304 0 56.739-14.805Q563.174-353 579.043-378.87q7.131-11.26 18.109-17.891 10.978-6.63 24.239-6.63h131.826v-349.826H206.783v349.826h131.826q13.261 0 24.239 6.63 10.978 6.631 18.109 17.891 15.869 25.87 42.304 40.674 26.435 14.805 56.739 14.805Zm-40-226.087V-678.87q0-17 11.5-28.5t28.5-11.5q17 0 28.5 11.5t11.5 28.5v129.392l36.696-36.696q4.869-4.869 17.174-2.217 12.304 2.653 23.761 5.979 11.457 3.326 17.544 4.065 6.087.739-2.045-7.392 11 12 11.5 28t-11.5 28l-95.521 95.521q-7.696 7.696-17.522 11.609-9.826 3.913-20.087 3.913t-20.087-3.913q-9.826-3.913-17.522-11.609l-95.521-95.521q-4.87-4.87-2.5-17.174 2.37-12.305 5.479-23.761 3.108-11.457 3.847-17.327.739-5.869-6.826 2.262 12-12 28.217-12.217 16.217-.218 28.217 11.782L440-549.478Z"/></svg>