<svg xmlns="http://www.w3.org/2000/svg" height="24" viewBox="0 -960 960 960" width="24"><path d="M519.435 6.35v-435.045h434.48V6.35h-434.48Zm65.087-65.652h303.74v-34.713q-27.185-33.629-66.332-53.697-39.146-20.069-85.538-20.069-46.391 0-85.538 20.069-39.147 20.068-66.332 53.697v34.713Zm151.97-151.87q27.161 0 46.074-19.013 18.913-19.013 18.913-46.174 0-27.162-19.013-46.075-19.012-18.913-46.174-18.913-27.161 0-46.074 19.013-18.913 19.013-18.913 46.174 0 27.161 19.013 46.074 19.013 18.914 46.174 18.914ZM353.608-60.782l-17.131-134.217q-8.713-3.364-16.421-8.073-7.708-4.71-15.317-9.883l-124.652 52.826L53.129-380.652l107.522-81.392q-.435-4.643-.435-8.954v-17.908q0-4.311.435-9.05L53.129-579.348 180.087-798.74l125.783 52.261q7.608-5.174 15.086-9.63 7.478-4.457 15.521-7.761l17.131-135.348h252.784l17.131 135.348q8.713 3.215 16.421 7.716t15.317 9.675l124.652-52.261 126.958 219.392-98.001 70.653H616.565q-10.608-47.522-48.021-79.414Q531.13-620 480.304-620q-58 0-99 41t-41 99q0 48 27.848 84.283Q396-359.435 439.435-346v285.218h-85.827Z"/></svg>