<svg xmlns="http://www.w3.org/2000/svg" height="24" viewBox="0 -960 960 960" width="24"><path d="M519.435 6.35v-435.045h434.48V6.35h-434.48Zm65.087-65.652h303.74V-94.13q-27.261-33.26-66.37-53.456-39.108-20.196-85.5-20.196-46.391 0-85.5 20.196t-66.37 53.457v34.826Zm151.87-151.87q27.261 0 46.174-18.914 18.913-18.913 18.913-46.174t-18.913-46.174q-18.913-18.913-46.174-18.913t-46.174 18.913q-18.913 18.913-18.913 46.174t18.913 46.174q18.913 18.914 46.174 18.914ZM480-480Zm.304-140q-58 0-99 41t-41 99q0 48 28.131 84.848 28.13 36.848 72.13 49.717v-103.566q-3.478-6.304-5.652-14.847-2.173-8.543-2.173-16.152 0-19.913 13.826-33.739 13.825-13.826 33.738-13.826 12.305 0 21.891 5.218 9.587 5.217 15.892 13.652h99.043q-10.173-47.957-47.804-79.631Q531.696-620 480.304-620ZM353.608-60.782l-17.131-134.217q-8.478-3.305-16.304-8.044-7.825-4.739-15.434-9.912l-124.652 52.826L53.129-380.652l107.522-81.392q-.435-4.739-.435-8.978v-17.956q0-4.239.435-8.978L53.129-579.348 180.087-798.74l125.783 52.261q7.608-5.174 15.086-9.63 7.478-4.457 15.521-7.761l17.131-135.348h252.784l17.131 135.348q8.478 3.304 16.304 7.761 7.825 4.456 15.434 9.63l124.652-52.261 126.958 219.392-98.001 70.653H690.913q-.435-5-2.565-15.022-2.131-10.022-5.827-20.109l85.435-63.87-33.347-57.825-97.87 42q-22-24.696-49.913-41.044-27.913-16.348-60.044-23.783l-13-104.869h-67.13l-12.869 104.304q-32.696 7.435-60.892 23.783-28.195 16.348-50.761 40.609l-97.304-41-32.782 57.825 83.739 62.305q-5 16.13-7.565 31.978-2.566 15.848-2.566 33.413 0 16.565 2.566 32.696 2.565 16.13 7.565 32.261l-83.739 62.739 32.782 57.825 97.304-41.434q23.435 25 53.153 42 29.717 17 64.152 23.695v209.436h-85.827Z"/></svg>