<svg xmlns="http://www.w3.org/2000/svg" height="24" viewBox="0 -960 960 960" width="24"><path d="M519 42v-462h461V42H519Zm69-70h322v-36.8q-28.866-35.65-70.433-56.925Q798-143 749-143q-49 0-90.567 21.275Q616.866-100.45 588-64.8V-28Zm161.176-161Q778-189 798-209.176q20-20.177 20-49Q818-287 797.823-307q-20.176-20-48.999-20Q720-327 700-306.824q-20 20.177-20 49Q680-229 700.177-209q20.176 20 48.999 20ZM341-46l-18-139q-5.417-2.105-10.208-5.053Q308-193 303-196l-129 55L34-385l111-84v-22L34-575l140-242 131 54q5-3 9-5.5t9-4.5l18-141h278l18 141q5.417 1.842 10.208 4.421Q652-766 657-763l129-54 140 242-108 75H617q-8-51-46.5-85.5T479-620q-58 0-99 41t-41 99q0 48 28.5 84.5T439-346v300h-98Z"/></svg>