<svg xmlns="http://www.w3.org/2000/svg" height="20" viewBox="0 -960 960 960" width="20"><path d="M480-136q-71.076 0-133.588-26.839-62.512-26.84-109.612-73.922-47.1-47.082-73.95-109.716Q136-409.111 136-480.325q0-71.214 26.839-133.451 26.84-62.237 73.922-109.365 47.082-47.127 109.716-73.993Q409.111-824 480.325-824q71.214 0 133.451 26.85 62.237 26.85 109.365 73.95 47.127 47.1 73.993 109.3Q824-551.7 824-480v41.539q0 46.383-32.714 78.422Q758.572-328 712-328q-34.769 0-61.731-21.615-26.961-21.615-40.198-54.231Q588.385-371 554.192-349.5 520-328 480-328q-63.526 0-107.763-44.303T328-480.226q0-63.62 44.303-107.697Q416.606-632 480.226-632q63.62 0 107.697 44.237Q632-543.526 632-480v41.539q0 32.084 24.039 55.272Q680.077-360 712-360t55.962-23.189Q792-406.377 792-438.461V-480q0-130-91-221t-221-91q-130 0-221 91t-91 221q0 130 91 221t221.354 91H656q6.8 0 11.4 4.547 4.6 4.548 4.6 11.27 0 6.722-4.6 11.452Q662.8-136 656-136H480Zm0-224q50 0 85-35t35-85q0-50-35-85t-85-35q-50 0-85 35t-35 85q0 50 35 85t85 35Z"/></svg>