<svg xmlns="http://www.w3.org/2000/svg" height="24" viewBox="0 -960 960 960" width="24"><path d="M304.615-160q-26.654 0-45.634-18.981Q240-197.961 240-224.615V-720h-20q-8.5 0-14.25-5.758T200-740.027q0-8.512 5.75-14.242Q211.5-760 220-760h140q0-12.385 9.192-21.577 9.193-9.193 21.577-9.193h178.462q12.384 0 21.577 9.193Q600-772.385 600-760h140q8.5 0 14.25 5.758 5.75 5.757 5.75 14.269 0 8.511-5.75 14.242Q748.5-720 740-720h-20v495.385q0 26.654-18.981 45.634Q682.039-160 655.385-160h-350.77ZM460-535.23v167.538q0 8.5 5.758 14.25 5.757 5.75 14.269 5.75t14.242-5.75q5.731-5.75 5.731-14.25V-535.23l69.846 69.615q5.615 5.615 13.654 6 8.039.384 14.821-6.398 6.218-6.218 6.218-13.987t-6.385-14.154l-95.539-95.538q-9.692-9.693-22.615-9.693-12.923 0-22.615 9.693l-95.539 95.538q-5.615 5.615-6.115 13.654t6.282 14.821q6.218 6.218 13.872 6.333 7.654.115 14.269-6.269L460-535.23Z"/></svg>