<svg xmlns="http://www.w3.org/2000/svg" height="20" viewBox="0 -960 960 960" width="20"><path d="M479.887-396.308q1.652 0 2.882-1.15 1.231-1.15 1.231-2.85v-159.384q0-1.7-1.117-2.85-1.118-1.15-2.77-1.15t-2.882 1.15q-1.231 1.15-1.231 2.85v159.384q0 1.7 1.117 2.85 1.118 1.15 2.77 1.15Zm120.077 0q5.051 0 8.39-3.312 3.338-3.313 3.338-8.38v-36.308h57.231q16.477 0 27.623-11.146t11.146-27.623v-41.846q0-16.477-11.146-27.623t-27.623-11.146h-66.462q-6.461 0-10.307 3.846t-3.846 10.307v141.293q0 4.913 3.302 8.426 3.303 3.512 8.354 3.512Zm-335.964 0h68.923q16.477 0 27.623-11.146t11.146-27.623v-17.846q0-16.477-11.146-27.623t-27.623-11.146h-57.231v-48.616H360q5.067 0 8.38-3.302 3.312-3.303 3.312-8.354 0-5.051-3.312-8.39-3.313-3.338-8.38-3.338h-68.923q-16.477 0-27.623 11.146t-11.146 27.623v17.846q0 16.477 11.146 27.623t27.623 11.146h57.231v48.616H264q-5.067 0-8.38 3.302-3.312 3.303-3.312 8.354 0 5.051 3.312 8.39 3.313 3.338 8.38 3.338Zm347.692-71.384v-72.616h72.616v72.616h-72.616ZM192.615-232q-24.315 0-40.465-16.162Q136-264.324 136-288.656v-383.012Q136-696 152.15-712t40.465-16h574.77q24.315 0 40.465 16.162Q824-695.676 824-671.344v383.012Q824-264 807.85-248t-40.465 16h-574.77Z"/></svg>