<svg xmlns="http://www.w3.org/2000/svg" height="24" viewBox="0 -960 960 960" width="24"><path d="M252.308-540h55.384q13.923 0 23.116-9.192Q340-558.385 340-572.308v-55.384q0-13.923-9.192-23.116Q321.615-660 307.692-660h-55.384q-13.923 0-23.116 9.192Q220-641.615 220-627.692v55.384q0 13.923 9.192 23.116Q238.385-540 252.308-540Zm-67.693 340Q157-200 138.5-218.5 120-237 120-264.615v-430.77Q120-723 138.5-741.5 157-760 184.615-760h590.77Q803-760 821.5-741.5 840-723 840-695.385v430.77Q840-237 821.5-218.5 803-200 775.385-200h-590.77Z"/></svg>