<svg xmlns="http://www.w3.org/2000/svg" height="20" viewBox="0 -960 960 960" width="20"><path d="M258.067-514.001h59.516q13.724 0 23.07-9.171t9.346-22.895v-59.516q0-13.724-9.171-23.07-9.17-9.346-22.895-9.346h-59.516q-13.724 0-23.07 9.171t-9.346 22.895v59.516q0 13.724 9.171 23.07 9.17 9.346 22.895 9.346Zm-77.758 302q-27.008 0-45.658-18.662-18.65-18.662-18.65-45.686v-407.626q0-27.024 18.65-45.524t45.658-18.5h599.382q27.008 0 45.658 18.662 18.65 18.662 18.65 45.686v407.626q0 27.024-18.65 45.524t-45.658 18.5H180.309Z"/></svg>