<svg xmlns="http://www.w3.org/2000/svg" height="20" viewBox="0 -960 960 960" width="20"><path d="M360.398-131.387q-21.628 0-37.012-15.295-15.385-15.295-15.385-36.923t15.295-37.012q15.295-15.384 36.923-15.384t37.012 15.295q15.385 15.295 15.385 36.922 0 21.628-15.295 37.012-15.295 15.385-36.923 15.385Zm357.227 0q-21.628 0-37.012-15.295t-15.384-36.923q0-21.628 15.295-37.012t36.922-15.384q21.628 0 37.012 15.295 15.385 15.295 15.385 36.922 0 21.628-15.295 37.012-15.295 15.385-36.923 15.385ZM550.384-647.922 422.769-804.459q29.462-11.308 57.731-16.577 28.269-5.269 56.114-5.269 40.385 0 79.076 8.192 38.692 8.192 71 32.346L550.384-647.922ZM308.001-260.001v-489.151l-9.846-9.616q-12.846-13-27.116-18.5-14.269-5.501-27.962-5.501-30.659 0-52.099 20.616-21.439 20.615-21.439 51.384H117.54q0-51.856 36.861-87.927 36.861-36.071 89.445-36.071 24.847 0 51.308 11.577T342-787.459l438.305 527.458H308.001ZM360-312h309L360-684v372Zm155-186Z"/></svg>