<svg xmlns="http://www.w3.org/2000/svg" height="20" viewBox="0 -960 960 960" width="20"><path d="M372.794-166.769q-18.256 0-31.525-13.09Q328-192.95 328-211.205q0-18.256 13.09-31.525Q354.18-256 372.436-256t31.525 13.091q13.27 13.09 13.27 31.346t-13.091 31.525q-13.09 13.269-31.346 13.269Zm306.462 0q-18.256 0-31.525-13.09-13.269-13.091-13.269-31.346 0-18.256 13.09-31.525Q660.643-256 678.898-256q18.256 0 31.526 13.091 13.269 13.09 13.269 31.346t-13.09 31.525q-13.091 13.269-31.347 13.269ZM535.769-634.846 423.538-772.923q27.924-8.616 51.962-12.154 24.039-3.539 45.731-3.539 35.769 0 69.654 5.885 33.885 5.884 63.5 26.192L535.769-634.846ZM328-280v-445.308l-13.693-14.231q-16.692-18-34.23-26-17.539-8-33.923-8-31.319 0-53.198 20.231t-21.879 51.769h-32q0-43.714 31.723-73.857 31.722-30.143 76.892-30.143 23.693 0 48.616 12.154T342-755.923L737.616-280H328Z"/></svg>