<svg xmlns="http://www.w3.org/2000/svg" height="20" viewBox="0 -960 960 960" width="20"><path d="M691.384-113.694Q721-178.771 729.653-248.54q8.654-69.77 2.346-141.462-26.692 81.077-96.499 129.539-69.808 48.462-155.5 48.462-82 0-139.999-41.154-58-41.154-95.461-104.769t-54.769-140.961q-17.307-77.346-17.307-148.346 0-50.932 9.615-101.119t27.307-97.956h59.23q-29.231 65.461-38.577 135.039-9.346 69.577-2.038 141.269 26.692-81.077 96.499-129.539 69.808-48.462 155.5-48.462 80 0 137.999 40.154 58 40.154 95.961 102.769t55.769 139.769q17.807 77.153 17.807 152.538 0 50.932-9.615 101.119t-27.307 97.956h-59.23ZM480-356.001q51.922 0 87.961-36.038 36.038-36.039 36.038-87.961t-36.038-87.961Q531.922-603.999 480-603.999t-87.961 36.038Q356.001-531.922 356.001-480t36.038 87.961q36.039 36.038 87.961 36.038ZM479.788-408Q450-408 429-429.212q-21-21.213-21-51Q408-510 429.212-531q21.213-21 51-21Q510-552 531-530.788q21 21.213 21 51Q552-450 530.788-429q-21.213 21-51 21Z"/></svg>