<svg xmlns="http://www.w3.org/2000/svg" height="20" viewBox="0 -960 960 960" width="20"><path d="M694-96q24-48 35-99t13-105q-46 64-114.538 101.5Q558.923-161 480-161q-93.911 0-162.506-44.934-68.595-44.933-114.045-115.5Q158-392 135.5-478.852 113-565.703 113-648q0-55.548 10-109.774T153-864h113q-24 48-35 99t-13 105q46-64 114.538-101.5Q401.077-799 480-799q91.911 0 160.506 43.934 68.595 43.933 114.545 113.5Q801-572 824-485.148 847-398.297 847-312q0 55.548-10 109.774T807-96H694ZM480-321q67 0 113-46t46-113q0-67-46-113t-113-46q-67 0-113 46t-46 113q0 67 46 113t113 46Zm-.345-102Q456-423 439.5-439.845t-16.5-40.5Q423-504 439.845-520.5t40.5-16.5Q504-537 520.5-520.155t16.5 40.5Q537-456 520.155-439.5t-40.5 16.5Z"/></svg>