<svg xmlns="http://www.w3.org/2000/svg" height="20" viewBox="0 -960 960 960" width="20"><path d="M76.782-124.782v-614.436h201.044l79.913-96h244.522l79.913 96h201.044v614.436H76.782Zm98.001-98.001h610.434v-418.434H637.696l-78.317-96H402.218l-81.609 96H174.783v418.434ZM480-433Zm214.616 174.304q14.529 0 25.108-10.58 10.58-10.579 10.58-25.108t-10.58-24.16q-10.579-9.63-25.108-9.63t-24.16 9.63q-9.63 9.631-9.63 24.16t9.63 25.108q9.631 10.58 24.16 10.58ZM438.504-309.87q7.8 0 14.083 9.01t6.283 22.99q0 13.858-2.37 25.32-2.37 11.463-2.37 29.767h58.74q0-17.608-4.087-30.065-4.087-12.456-4.087-26.519 0-16.242 7.948-26.503 7.949-10.26 15.566-10.26 7.051 0 14.051 3.565t17.043 8.869q11.913 7.739 22.25 11.174 10.338 3.435 17.418 3.435 16.897 0 29.81-14.315 12.913-14.316 12.913-29.396 0-9.593-8.652-17.376-8.652-7.783-20.862-13.509-12.442-6.274-18.311-11.991-5.87-5.717-5.87-12.717 0-7.31 11.783-10.373 11.782-3.062 46.97-3.932 24.508-.869 40.573-6.717t16.065-23.978q0-16.764-9.509-29.578-9.51-12.814-23.186-12.814-8.435 0-30.87 9-8.869 4-15.152 5.5-6.283 1.5-11.196 1.5-5.26 0-9.608-4.853-4.348-4.853-4.348-13.925 0-12.352 12.283-22.787 12.282-10.435 42.382-23.555 32.789-14.025 43.757-25.278 10.969-11.254 10.969-22.064 0-14.798-14.738-33.581t-28.098-18.783q-9.642 0-21.267 10.249-11.626 10.249-33.984 42.838-15.304 24.304-30.5 34.37-15.196 10.065-28.832 10.065-14.423 0-25.958-9.783-11.536-9.782-22.85-34.521-10.667-23.17-19.959-33.237-9.292-10.068-22.818-10.068-16.909 0-26.844 6.563-9.935 6.562-9.935 13.307 0 5.869 15.74 36.304 7.434 10.87 11.217 17.486 3.783 6.615 3.783 14.419 0 7.238-7.055 12.666-7.054 5.429-16.06 5.429-8.494 0-18.277-5-9.782-5-23.087-20-14.869-16.565-21.447-21.065-6.577-4.5-16.726-4.5-14 0-25.544 9.428-11.544 9.429-11.544 21.567 0 6.519 1.435 12.023t6.435 12.96q4.435 6.892 6.37 12.402 1.934 5.511 1.934 10.859 0 8.022-7.5 13.587-7.5 5.565-20.824 10.221-13.676 4.91-19.676 11.78-6 6.871-6 17.035 0 7.529 2.218 15.529 2.217 8 7.883 13.232 8.903 8.032 23.67 9.248Q324.841-388 336.655-388q17.084 0 22.801 6.728 5.718 6.728 5.718 21.881 0 11.826-3.435 21.978-3.435 10.152-15.565 21.587-10.87 12.304-15.283 18.729-4.413 6.424-4.413 11.401 0 12 15.437 22.196 15.438 10.196 25.857 10.196 9.619 0 19.297-6.492 9.677-6.492 22.627-24.508 11.739-16.435 16.807-21 5.068-4.566 12.001-4.566Z"/></svg>