<svg xmlns="http://www.w3.org/2000/svg" height="24" viewBox="0 -960 960 960" width="24"><path d="M60.782-100.782v-678.436h215.044l81.913-80h244.522l81.913 80h215.044v678.436H60.782Zm659-140.914q15.696 0 27.109-11.413 11.413-11.413 11.413-27.109 0-15.695-11.413-26.826-11.413-11.13-27.109-11.13-15.695 0-26.826 11.13-11.13 11.131-11.13 26.826 0 15.696 11.13 27.109 11.131 11.413 26.826 11.413ZM434.304-298.87q9 0 15.783 10.066 6.783 10.065 6.783 25.934 0 15.305-2.87 28.044t-2.87 28.043q0 15 8.718 25 8.717 10 24.152 10t24.152-10q8.718-10 8.718-25 0-15.608-4.587-29.065-4.587-13.456-4.587-29.63 0-18.131 8.63-28.892 8.631-10.76 17.065-10.76 7.87 0 15.87 3.565 8 3.565 19.043 9.869 14.913 8.739 26.435 12.674 11.521 3.935 19.391 3.935 18.739 0 32.652-16.065 13.913-16.066 13.913-33.066 0-11.173-9.152-19.456t-24.065-15.152q-14.739-7.131-21.108-12.848-6.37-5.717-6.37-13.717 0-8.435 12.783-11.935 12.782-3.5 51.739-4.37 27.739-.869 45.304-7.717t17.565-25.978q0-18.696-10.347-33.044-10.348-14.348-25.348-14.348-6.435 0-34.87 10-9.869 5-16.152 6.5-6.283 1.5-11.848 1.5-6.304 0-11.304-5.5t-5-15.63q0-14 13.283-24.935 13.282-10.935 47.325-25.674 37.044-15.739 49.413-28.326 12.37-12.587 12.37-25.456 0-17.739-16.652-38.022-16.652-20.283-31.652-20.283-11.174 0-23.957 11.587-12.782 11.587-37.826 48.5-18.304 27.304-34.5 38.37-16.196 11.065-31.196 11.065-15.695 0-28.413-11.283Q518-561.652 505.13-589.391q-12-25.87-22.347-37.087-10.348-11.218-24.783-11.218-18 0-29.435 7.5-11.435 7.5-11.435 15.37 0 7.869 17.74 40.304 8.434 12.87 12.217 20.152 3.783 7.283 3.783 15.848 0 8-7.805 14-7.804 6-17.935 6-9.869 0-20.152-5.5-10.282-5.5-25.587-22.5-16.869-17.565-24.304-23.065-7.435-5.5-18.869-5.5-15 0-28.044 10.5t-13.044 23.761q0 7.13 1.435 13.196 1.435 6.065 7.435 14.5 5.435 7.869 7.87 14.086 2.434 6.218 2.434 12.218 0 9-8 14.565-8 5.565-23.13 11.131-15.87 6-22.37 13.282-6.5 7.283-6.5 18.152 0 8 2.218 17.5 2.217 9.5 8.652 15.066 10 8.565 26.413 9.847Q308-386 321.13-386q19.609 0 25.826 7.652 6.218 7.652 6.218 24.652 0 13.131-4.435 24.283-4.435 11.152-17.565 24.587-12.87 13.304-17.283 20.435-4.413 7.13-4.413 12.695 0 14 16.739 24.696 16.74 10.696 28.305 10.696 10.869 0 21.652-7.066 10.783-7.065 25.522-26.934 12.739-17.435 18.674-23 5.934-5.566 13.934-5.566Z"/></svg>