<svg xmlns="http://www.w3.org/2000/svg" height="20" viewBox="0 -960 960 960" width="20"><path d="M474.088-216.825v1.826q0 20.387-14.246 34.694-14.247 14.306-34.544 14.306-20.298 0-34.755-14.306-14.456-14.307-14.456-34.694v-219.827q0-7.261.782-14.956.783-7.696 3.595-15.333l33.057-100.406q11.392-30.914 36.139-48.936 24.747-18.022 56.167-18.022h255.564q31.42 0 56.167 18.022 24.748 18.022 36.139 48.936l33.057 100.406q2.813 7.637 3.595 15.333.783 7.695.783 14.956v219.827q0 20.387-14.246 34.694-14.247 14.306-34.544 14.306-20.298 0-34.755-14.306-14.457-14.307-14.457-34.694v-1.826H474.088Zm2.521-254.696h314l-23-72h-268l-23 72Zm48.509 156q15.509 0 26-10.29 10.491-10.289 10.491-25.5 0-15.21-10.491-25.71t-26-10.5q-15.509 0-25.509 10.289-10 10.29-10 25.5 0 15.211 10 25.711 10 10.5 25.509 10.5Zm216.982 0q15.509 0 25.509-10.29 10-10.289 10-25.5 0-15.21-10-25.71t-25.509-10.5q-15.508 0-26 10.289-10.491 10.29-10.491 25.5 0 15.211 10.491 25.711 10.492 10.5 26 10.5ZM181.913-165.999q-16.283 0-22.098-16.304-5.816-16.305 5.576-26.566l42.696-40.435h-24q-48.008 0-81.613-33.605-33.606-33.605-33.606-81.613v-314.261q0-64.57 57.332-89.894 57.333-25.324 201.759-25.324 144.867 0 202.107 24.964 57.239 24.964 57.239 90.254v-1.696h-78.306v6.783H166.87V-480h161.217v314.001H181.913Zm31.486-166.174q18.814 0 31.751-13.116 12.938-13.116 12.938-31.718t-12.727-31.645q-12.727-13.044-31.541-13.044t-31.752 12.727q-12.938 12.727-12.938 31.541 0 18.602 12.728 31.929 12.727 13.326 31.541 13.326Z"/></svg>