<svg xmlns="http://www.w3.org/2000/svg" height="24" viewBox="0 -960 960 960" width="24"><path d="M463-244v56q0 5.95-4.035 9.975-4.035 4.025-10 4.025T439-178.025q-4-4.025-4-9.975v-210q0-5 .5-10t2.5-10l39-110q6-17.778 21.75-28.889T534-568h218q19.5 0 35.25 11.111T809-528l39 110q2 5 2.5 10t.5 10v210q0 5.95-4.035 9.975-4.035 4.025-10 4.025T827-178.025q-4-4.025-4-9.975v-56H463Zm12-192h336l-29-82q-3-10-11-16t-19-6H534q-11 0-19 6t-11 16l-29 82Zm-12 28v136-136Zm64 98q14.45 0 24.225-9.775Q561-329.55 561-344q0-14.45-9.775-24.225Q541.45-378 527-378q-14.45 0-24.225 9.775Q493-358.45 493-344q0 14.45 9.775 24.225Q512.55-310 527-310Zm232 0q14.45 0 24.225-9.775Q793-329.55 793-344q0-14.45-9.775-24.225Q773.45-378 759-378q-14.45 0-24.225 9.775Q725-358.45 725-344q0 14.45 9.775 24.225Q744.55-310 759-310ZM220.786-186q-9.786 0-13.286-9.5T211-212l54-54q-58 0-107-21.5T109-360v-346q0-33 60-50.5T343-774q114 0 174 17.5t60 50.5v58h-28v-58H137v292h218v228H220.786ZM203-326q14.45 0 24.225-9.775Q237-345.55 237-360q0-14.45-9.775-24.225Q217.45-394 203-394q-14.45 0-24.225 9.775Q169-374.45 169-360q0 14.45 9.775 24.225Q188.55-326 203-326Zm260 54h360v-136H463v136Z"/></svg>