<svg xmlns="http://www.w3.org/2000/svg" height="24" viewBox="0 -960 960 960" width="24"><path d="M280-283.391h160q17 0 28.5-11.5t11.5-28.5q0-17-11.5-28.5t-28.5-11.5H280q-17 0-28.5 11.5t-11.5 28.5q0 17 11.5 28.5t28.5 11.5ZM400-440h160q17 0 28.5-11.5T600-480q0-17-11.5-28.5T560-520H400q-17 0-28.5 11.5T360-480q0 17 11.5 28.5T400-440Zm120-156.609h160q17 0 28.5-11.5t11.5-28.5q0-17-11.5-28.5t-28.5-11.5H520q-17 0-28.5 11.5t-11.5 28.5q0 17 11.5 28.5t28.5 11.5ZM206.783-100.782q-44.305 0-75.153-30.848-30.848-30.848-30.848-75.153v-546.434q0-44.305 30.848-75.153 30.848-30.848 75.153-30.848h546.434q44.305 0 75.153 30.848 30.848 30.848 30.848 75.153v546.434q0 44.305-30.848 75.153-30.848 30.848-75.153 30.848H206.783Z"/></svg>