<svg xmlns="http://www.w3.org/2000/svg" height="24" viewBox="0 -960 960 960" width="24"><path d="m721.539-15.386-110-109.999v-60L321.385-475.539q-9 2-16.846 3t-17.615 1.769v-64.921q48.846-1.078 104.692-28.424 55.847-27.346 85.923-60.039l54.462-58.922q11.077-13.462 26.461-20.193 15.384-6.73 33.077-6.73 32.23 0 54.576 22.346 22.346 22.346 22.346 54.576V-400q0 27.154-10.847 48.654-10.846 21.5-28.615 36.577l-117.46-116.229v-141.619q-28.077 26.231-58.962 45.039-30.886 18.808-63.04 30.962l266.617 266.617h60L826.153-120 721.539-15.386ZM219.231-153.078l-46.153-46.153L355.77-381.923l91.923 91.922h-91.539L219.231-153.078ZM600-754.615q-29.154 0-49.576-20.423-20.423-20.423-20.423-49.576 0-29.154 20.423-49.577 20.422-20.423 49.576-20.423t49.576 20.423q20.423 20.423 20.423 49.577 0 29.153-20.423 49.576-20.422 20.423-49.576 20.423Z"/></svg>