<svg xmlns="http://www.w3.org/2000/svg" height="20" viewBox="0 -960 960 960" width="20"><path d="M696-98 576-218v-69L329-534q-10 2-20 3t-21 1v-72q78 0 126-34.5t68-61.5l13-18q10-14 24.955-22 14.954-8 32.045-8 30.4 0 51.2 20.8Q624-704.4 624-674v216q0 11.304-3 20.652T613-420L480-553v-44q-17 13-34.5 23T409-556l218 218h69l120 120L696-98ZM219-242l-51-51 165-165 72 72h-42L219-242Zm332.752-540Q517-782 492.5-806.748t-24.5-59.5Q468-901 492.748-925.5t59.5-24.5Q587-950 611.5-925.252t24.5 59.5Q636-831 611.252-806.5t-59.5 24.5Z"/></svg>