<svg xmlns="http://www.w3.org/2000/svg" height="24" viewBox="0 -960 960 960" width="24"><path d="m723.077-30.769-100-100v-60L326.769-487.077q-9 2-15.692 3t-17.231 2.539v-41.847q47.692-4.154 107.385-35.346 59.692-31.192 87.846-61.577L542-676.154q9.154-11.923 22.423-17.885Q577.692-700 593.077-700q26.462 0 45.154 18.692 18.692 18.693 18.692 45.154V-400q0 28.308-12.192 49.808T614-315.538L523.077-406v-191.23q-36.154 35.461-74.923 59.076-38.769 23.616-77.077 36.923L652.308-220h60l100 100-89.231 89.231ZM218.462-166.154l-32.308-32.308 185.384-185.384L455.385-300H352.308L218.462-166.154ZM600-749.231q-25.308 0-42.654-17.346Q540-783.923 540-809.231q0-25.308 17.346-42.654 17.346-17.346 42.654-17.346 25.308 0 42.654 17.346Q660-834.539 660-809.231q0 25.308-17.346 42.654-17.346 17.346-42.654 17.346Z"/></svg>