<svg xmlns="http://www.w3.org/2000/svg" height="20" viewBox="0 -960 960 960" width="20"><path d="M512-139 148-502.807V-812h309.173L821-450 512-139Zm-.448-29L793-449 449.448-792H168v281l343.552 343Zm-247.67-494Q278-662 288-671.882q10-9.883 10-24Q298-710 288.118-720q-9.883-10-24-10Q250-730 240-720.118q-10 9.883-10 24Q230-682 239.882-672q9.883 10 24 10ZM168-792Zm343 492 112-118q7-7 9.5-15.463t2.5-19.154Q635-471 623-485.5 611-500 594-500q-21.036 0-41.518 11T511-447q-19.875-30.083-39.899-41.542Q451.077-500 429-500q-17.829 0-30.415 14.28Q386-471.439 386-453q0 10 3.188 19.037Q392.375-424.927 399-418l112 118Z"/></svg>