<svg xmlns="http://www.w3.org/2000/svg" height="20" viewBox="0 -960 960 960" width="20"><path d="M180-158q-49.7 0-83.85-34.162Q62-226.324 62-276.04v-408.243Q62-734 96.15-768T180-802h600q49.7 0 83.85 34.162Q898-733.676 898-683.96v408.243Q898-226 863.85-192T780-158H180Zm0-118h600v-336H180v336Zm258-142 140-140q13.087-13 30.543-13Q626-571 639-557.931t13 30Q652-511 639-498L480-339q-18.273 18-42.636 18Q413-321 395-339l-74-74q-13-13.087-12.5-30.543Q309-461 322.069-474t30.5-13Q370-487 383-474l55 56ZM180-276v-408 408Z"/></svg>