<svg xmlns="http://www.w3.org/2000/svg" height="24" viewBox="0 -960 960 960" width="24"><path d="M166.783-140.782q-44.305 0-75.153-30.848-30.848-30.848-30.848-75.153v-466.434q0-44.305 30.848-75.153 30.848-30.848 75.153-30.848h626.434q44.305 0 75.153 30.848 30.848 30.848 30.848 75.153v466.434q0 44.305-30.848 75.153-30.848 30.848-75.153 30.848H166.783Zm0-106.001h626.434v-386.434H166.783v386.434Zm271.217-174 136.739-136.739q13.18-13.13 31.851-13.13t31.801 13.169q13.131 13.169 13.131 31.826t-13.131 31.787L475.609-331.087q-16.162 15.957-37.712 15.957-21.549 0-37.506-15.957l-78.782-78.783q-13.131-13.179-13.131-31.85t13.169-31.802q13.17-13.13 31.827-13.13 18.656 0 31.787 13.13L438-420.783Zm-271.217 174v-466.434 466.434Z"/></svg>