<svg xmlns="http://www.w3.org/2000/svg" height="20" viewBox="0 -960 960 960" width="20"><path d="M174.783-172.782q-41.005 0-69.503-28.51-28.498-28.51-28.498-69.531V-689.5q0-41.022 28.498-69.37 28.498-28.348 69.503-28.348h610.434q41.005 0 69.503 28.51 28.498 28.51 28.498 69.531V-270.5q0 41.022-28.498 69.37-28.498 28.348-69.503 28.348H174.783Zm0-98.001h610.434v-346.434H174.783v346.434Zm263.217-142 141.739-141.739q12.18-12.13 28.351-12.13t28.301 12.169q12.131 12.169 12.131 27.826t-12.131 27.787L472.609-335.087q-15.071 14.957-35.166 14.957t-35.052-14.957l-78.782-78.783q-12.131-12.179-11.631-28.35t12.669-28.302q12.17-12.13 28.327-12.13 16.156 0 28.287 12.13L438-412.783Zm-263.217 142v-418.434 418.434Z"/></svg>