<svg xmlns="http://www.w3.org/2000/svg" height="20" viewBox="0 -960 960 960" width="20"><path d="M320.316-134.913q-11.173 0-24.864-3.38-13.691-3.381-23.691-8.528-7-4.092-15.424-8.092-8.423-4-16.337-4h-29.5v-83H240q11 0 24.239 3.38 13.239 3.381 23.239 8.528 8 4.092 16.381 7.972 8.38 3.881 16.38 4.12 7.761.239 16.022-3.761t16.261-8.239q10.095-5 23.227-8.5 13.131-3.5 24.251-3.5 11.043 0 24.091 3.5 13.047 3.5 23.082 8.5 8.023 4 16.545 8 8.521 4 16.322 4 7.801 0 16.141-4 8.341-4 16.341-8 10-5 23.191-8.5 13.191-3.5 24.364-3.5 11.162 0 24.282 3.38 13.119 3.381 23.119 8.528 8 4.092 16.341 8.092 8.34 4 16.141 4 7.801 0 16.301-4 8.5-4 16.5-8 10-5.239 23.082-8.62 13.082-3.38 24.157-3.38h29.5v83H720q-7.859 0-16.247 4-8.387 4-16.275 8-10 5.239-23.083 8.62-13.083 3.38-24.156 3.38-11.214 0-24.465-3.38-13.252-3.381-23.252-8.62-7.888-4-16.275-8-8.388-4-16.247-4t-16.247 4q-8.387 4-16.275 8-10.048 5-23.113 8.5-13.066 3.5-24.126 3.5-11.119 0-24.751-3.5-13.631-3.5-23.727-8.5l-16-8q-8-4-15.874-4-7.887 0-16.143 4t-16.027 8q-10.239 5-23.239 8.5t-24.162 3.5ZM480-286.087q-93.152 0-157.326-64.174Q258.5-414.435 258.5-507.587v-317.5h107v317.5q0 47.848 33.326 81.174 33.326 33.326 81.174 33.326 47.848 0 81.174-33.326 33.326-33.326 33.326-81.174v-317.5h107v317.5q0 93.152-64.174 157.326Q573.152-286.087 480-286.087Z"/></svg>