<svg xmlns="http://www.w3.org/2000/svg" height="20" viewBox="0 -960 960 960" width="20"><path d="M716-148H244v-664h472v664Zm-20-20v-624H264v624h432ZM480.389-620Q502-620 517-635.389q15-15.39 15-37Q532-694 516.611-709q-15.39-15-37-15Q458-724 443-708.611q-15 15.39-15 37Q428-650 443.389-635q15.39 15 37 15ZM480-244q59 0 99.5-40.5T620-384q0-59-40.5-99.5T480-524q-59 0-99.5 40.5T340-384q0 59 40.5 99.5T480-244Zm-.071-20q-49.529 0-84.729-35.271-35.2-35.271-35.2-84.8 0-49.529 35.271-84.729 35.271-35.2 84.8-35.2 49.529 0 84.729 35.271 35.2 35.271 35.2 84.8 0 49.529-35.271 84.729-35.271 35.2-84.8 35.2ZM264-792v624-624Z"/></svg>