<svg xmlns="http://www.w3.org/2000/svg" height="20" viewBox="0 -960 960 960" width="20"><path d="M728-136H232v-688h496v688ZM480.349-615.385q23.497 0 39.882-16.733 16.384-16.733 16.384-40.231 0-23.497-16.733-39.882-16.733-16.384-40.231-16.384-23.497 0-39.882 16.733-16.384 16.733-16.384 40.231 0 23.497 16.733 39.882 16.733 16.384 40.231 16.384ZM480-237.538q61.539 0 104-42.462 42.462-42.461 42.462-104T584-488q-42.461-42.462-104-42.462T376-488q-42.462 42.461-42.462 104T376-280q42.461 42.462 104 42.462Zm-.054-32.001q-47.238 0-80.823-33.639-33.584-33.639-33.584-80.876 0-47.238 33.639-80.823 33.639-33.584 80.876-33.584 47.238 0 80.823 33.639 33.584 33.639 33.584 80.876 0 47.238-33.639 80.823-33.639 33.584-80.876 33.584Z"/></svg>