<svg xmlns="http://www.w3.org/2000/svg" height="24" viewBox="0 -960 960 960" width="24"><path d="M480-120q-74.539 0-140.231-28.423t-114.308-77.038q-48.615-48.616-77.038-114.308Q120-405.461 120-480q0-96.308 46.808-178.577 46.807-82.269 129.577-130.962 1.769 9.77 3.23 19.654 1.462 9.885 4.616 22.039-68.154 44.769-106.193 115.346Q160-561.923 160-480q0 134 93 227t227 93q134 0 227-93t93-227q0-81.923-38.423-153T654-748.846q3.154-11.385 5-20.885 1.846-9.5 3.846-19.808 82.769 48.693 129.962 130.846Q840-576.539 840-480q0 74.539-28.423 140.231t-77.038 114.308q-48.616 48.615-114.308 77.038Q554.539-120 480-120Zm0-160q-83.077 0-141.539-58.461Q280-396.923 280-480q0-41.846 16.269-79.385 16.269-37.538 46.346-65.385 3.462 9.616 6.77 19.501 3.307 9.884 7.923 22.73-18.154 21.462-27.731 47.924Q320-508.154 320-480q0 66 47 113t113 47q66 0 113-47t47-113q0-28.923-9.962-54.615-9.961-25.693-28.115-47.924 3.385-9.384 2.577-6.423-.808 2.962 11.885-36.577 30.846 27.846 47.231 65.77Q680-521.846 680-480q0 83.077-58.461 141.539Q563.077-280 480-280Zm-7.385-360q-7.615 0-13.654-4.423-6.038-4.423-8.5-11.808l-40.769-131.538q-5.461-22.923-7.577-38.962Q400-842.769 400-860q0-33.539 23.231-56.769Q446.461-940 480-940t56.769 23.231Q560-893.539 560-860q0 17.231-2.115 33.269-2.116 16.039-7.577 38.962l-40.769 131.538q-2.462 7.385-8.5 11.808Q495-640 487.385-640h-14.77ZM480-420q-25.308 0-42.654-17.346Q420-454.692 420-480q0-25.308 17.346-42.654Q454.692-540 480-540q25.308 0 42.654 17.346Q540-505.308 540-480q0 25.308-17.346 42.654Q505.308-420 480-420Z"/></svg>