<svg xmlns="http://www.w3.org/2000/svg" height="24" viewBox="0 -960 960 960" width="24"><path d="M664-208h-26q-8 0-12.5-7t-.5-14.987l57.143-114.221Q685-349 690.5-348q5.5 1 5.5 7.25V-272h26q8 0 12.5 7t.5 14.987l-57.143 114.221Q675-131 669.5-132q-5.5-1-5.5-7.25V-208Zm-310 48Zm2 28q-12.75 0-21.375-8.625T326-162v-583q0-12.75 8.625-21.375T356-775h60v-23q0-12.75 8.625-21.375T446-828h68q12.75 0 21.375 8.625T544-798v23h60.206q12.794 0 21.294 8.625T634-745v275q-8 2-14.5 3.5T606-463v-285H354v588h105q3 8 6 14.5t7 13.5H356Z"/></svg>