<svg xmlns="http://www.w3.org/2000/svg" height="20" viewBox="0 -960 960 960" width="20"><path d="M645.077-222.154h-20.308q-8.173 0-12.779-7.13t.087-14.937l74.033-118.862q2.352-4.071 7.582-3.174 5.231.898 5.231 6.218v102.193h20.308q8.173 0 12.779 7.13t-.087 14.937L657.89-116.917q-2.352 4.071-7.582 3.174-5.231-.898-5.231-6.218v-102.193ZM355.385-168Zm8.307 32q-17.131 0-28.719-11.588-11.589-11.589-11.589-28.719v-556.155q0-17.13 11.589-28.719 11.588-11.588 28.719-11.588h56.616v-10.924q0-17.13 11.588-28.719Q443.485-824 460.615-824h38.77q17.13 0 28.719 11.588 11.588 11.589 11.588 28.719v10.924h56.774q17.165 0 28.657 11.588 11.493 11.589 11.493 28.719v260.154q-9 1.539-16.582 3-7.582 1.462-15.419 3.616v-275.846h-249.23V-168h91.461q3.154 8.462 5.116 15.577 1.961 7.116 5.73 16.423h-94Z"/></svg>