<svg xmlns="http://www.w3.org/2000/svg" height="20" viewBox="0 -960 960 960" width="20"><path d="M270.5-25.39q-41.022 0-69.37-28.498-28.348-28.499-28.348-69.503v-393.564q0-41.005 28.498-69.503 28.498-28.498 69.503-28.498h51.216q20.387 0 34.694 14.246 14.306 14.246 14.306 34.544 0 20.298-14.306 34.755-14.307 14.456-34.694 14.456h-51.216v393.564h418.434v-393.564h-51.216q-20.387 0-34.694-14.246-14.306-14.246-14.306-34.544 0-20.298 14.306-34.754 14.307-14.457 34.694-14.457h51.216q41.005 0 69.503 28.498 28.498 28.498 28.498 69.503v393.564q0 41.004-28.51 69.503-28.51 28.498-69.531 28.498H270.5Zm160.499-722.043-23.206 23.206q-14.141 14.141-34.294 14.424-20.152.282-35.022-14.109-14.478-14.392-14.196-34.544.283-20.153 14.549-34.419l106.686-107.251q14.832-14.831 34.666-14.831 19.834 0 34.427 14.956L621.045-793q14.956 14.957 14.956 34.327 0 19.369-14.478 33.761-14.87 14.391-34.906 14.391-20.037 0-34.095-14.391l-23.521-22.521v382.216q0 20.387-14.247 34.694-14.246 14.307-34.543 14.307-20.298 0-34.755-14.307-14.457-14.307-14.457-34.694v-382.216Z"/></svg>