<svg xmlns="http://www.w3.org/2000/svg" height="20" viewBox="0 -960 960 960" width="20"><path d="M707.846-205.538H94.769q-6.538 0-11.27-4.731-4.73-4.731-4.73-11.269 0-6.539 4.73-11.27 4.732-4.73 11.27-4.73h581.846l-48-48h-436q-23.615 0-40.115-16.5-16.5-16.5-16.5-40.116v-354.154q0-17.077 7.423-31.461 7.423-14.385 19.192-24.539l-67-66.23q-5.615-4.846-6-10.769-.384-5.924 5.231-11.539 6.385-6.385 12.154-6.385t12.154 6.385l722.692 723.692q5.615 5.615 6 10.769.385 5.154-6 11.539t-11.154 6.385q-4.769 0-11.154-6.385L707.846-205.538ZM411.077-504.615l-26.462-25.693q-5.077 6-11.461 17.616-6.385 11.615-6.385 25.307v68q0 6.539 4.731 11.27 4.731 4.73 11.269 4.73 6.539 0 11.269-4.73 4.731-4.731 4.731-11.27v-52.153q0-10.769 3.077-18.462 3.077-7.692 9.231-14.615Zm362.846 217.538L563.615-498.385l37.539-38.307q4.231-4.231 4.231-10.308t-4.231-10.308l-50.462-50.462q-4.231-4.23-8.077-1.615t-3.846 7.077v38.923h-40.154L304.461-757.539h462.924q23.615 0 40.115 16.5 16.5 16.5 16.5 40.116v358.769q0 19.769-12.846 36.423-12.846 16.654-37.231 18.654Z"/></svg>