<svg xmlns="http://www.w3.org/2000/svg" height="24" viewBox="0 -960 960 960" width="24"><path d="M170.001-120.003h-59.999v-59.998h59.999v59.998Zm-59.999-139.998v-80h59.999v80h-59.999Zm0-160v-80h59.999v80h-59.999Zm0-160v-80h59.999v80h-59.999Zm0-160V-800h59.999v59.999h-59.999Zm139.999 619.998v-59.998h80v59.998h-80Zm160 0v-59.998h80v59.998h-80Zm160 0v-59.998h80v59.998h-80Zm160 0v-59.998h59.998v59.998h-59.998Zm-480-139.998v-599.998h599.997v599.998H250.001Zm275.384-399.231h264.614V-800H525.385v140.768Z"/></svg>