<svg xmlns="http://www.w3.org/2000/svg" height="20" viewBox="0 -960 960 960" width="20"><path d="M178.001-136.003h-51.999v-51.998h51.999v51.998Zm-51.999-129.998v-72h51.999v72h-51.999Zm0-150v-72h51.999v72h-51.999Zm0-150v-72h51.999v72h-51.999Zm0-150V-768h51.999v51.999h-51.999Zm129.999 579.998v-51.998h72v51.998h-72Zm150 0v-51.998h72v51.998h-72Zm150 0v-51.998h72v51.998h-72Zm150 0v-51.998h51.998v51.998h-51.998Zm-456-123.998v-583.998h583.997v583.998H250.001ZM301.999-312h480v-379.232H533.385V-792H301.999v480Zm0-480v480-480Z"/></svg>