<svg xmlns="http://www.w3.org/2000/svg" height="20" viewBox="0 -960 960 960" width="20"><path d="M165.37-82.37h-83v-83h83v83Zm-83-161v-74.869h83v74.869h-83Zm0-152.869v-74.87h83v74.87h-83Zm0-152.87v-74.869h83v74.869h-83Zm0-152.869v-83.001h83v83.001h-83Zm161 619.609v-83.001h74.869v83H243.37Zm152.869 0v-83.001h74.87v83h-74.87Zm152.87 0v-83.001h74.869v83h-74.869Zm152.869 0v-83.001h83.001v83h-83.001ZM237.37-237.37v-640.261h640.261v640.261H237.37Zm83-83h474.26v-354.978H529.913V-794.63H320.37v474.26Zm0-474.26v474.26-474.26Z"/></svg>