<svg xmlns="http://www.w3.org/2000/svg" height="24" viewBox="0 -960 960 960" width="24"><path d="m828.044-16.13-45.217-44.652H140.782v-106.001h80V-280q0-58.739 25.391-111.674 25.391-52.935 71.304-88.326-32-25.087-53.37-59.022-21.369-33.935-31.978-73.023L24.174-820l62.652-62.652 803.87 803.87-62.652 62.652ZM626.871-468.348l-76.958-76.522q38.217-19.565 60.761-55.891 22.543-36.326 22.543-79.239v-113.217H326.783v25.782l-25.216-25.782-106.002-106.001h623.653v106.001h-80V-680q0 64-29.587 120.13-29.586 56.131-82.76 91.522ZM326.783-166.783h306.434v-44.174L421.826-421.782q-43.304 17.869-69.174 56.456-25.869 38.587-25.869 85.326v113.217Zm412.435 0Z"/></svg>