<svg xmlns="http://www.w3.org/2000/svg" height="24" viewBox="0 -960 960 960" width="24"><path d="M790.523-47.216q-44.305 0-75.153-30.848-30.848-30.848-30.848-75.153v-38.348q-71.261-17.391-117.892-74.599Q520-323.372 520-400v-294.696h429.393V-400q0 76.628-46.631 133.836-46.63 57.208-117.891 74.599v44h120v100.35H790.523Zm14.173-400.132h44.348v-147H620.349v67h24.347q34.622 0 65.572 15.565 30.95 15.565 52.081 43.261 7.435 10.304 18.781 15.739 11.347 5.435 23.566 5.435Zm-70 161.696q35.072 0 62.949-18.544 27.877-18.543 41.007-48.456h-33.956q-34.665 0-65.654-15.232-30.989-15.231-51.998-43.594-7.94-9.705-18.968-15.439-11.028-5.735-23.38-5.735h-24.347V-400q0 48.174 33.087 81.261 33.087 33.087 81.26 33.087Zm-47.652-182.87ZM315.478-26.085l-100.349-75.262v-150.391h-18.52q-44.305 0-75.154-30.848-30.848-30.848-30.848-75.153v-312.435H40.433v-100.349h174.696v-48.695h-70.174v-100.349h240.697v100.349h-70.174v48.695h174.696v100.349H440v312.435q0 44.305-30.848 75.153-30.848 30.848-75.153 30.848h-18.521v225.653ZM190.956-352.087h148.695v-48.695h-100v-86.001h100v-48.695h-100v-86.001h100v-48.695H190.956v318.087Z"/></svg>