<svg xmlns="http://www.w3.org/2000/svg" height="20" viewBox="0 -960 960 960" width="20"><path d="M516-29.347q-35.352 0-60.177-24.824-24.824-24.824-24.824-60.177v-100.261q-96.434-18.521-161.369-93.435-64.935-74.913-64.935-177.608v-345.304q0-41.005 28.498-69.503 28.498-28.498 69.503-28.498h354.608q41.005 0 69.503 28.498 28.498 28.498 28.498 69.503v345.304q0 102.695-64.935 177.608-64.935 74.914-161.369 93.435v87.261H708q20.387 0 34.694 14.246 14.307 14.246 14.307 34.544 0 20.298-14.307 34.754Q728.387-29.347 708-29.347H516Zm6.695-420.741h135.957q2.435-8.174 3.369-17.065.935-8.891.935-18.499v-67.478h-85.693q-18.089 0-30.85-12.551-12.761-12.55-12.761-30.587t12.611-30.681q12.611-12.645 30.738-12.645h85.955v-55.276H506.391q-18.126 0-30.737-12.55-12.611-12.55-12.611-30.587t12.611-30.798q12.611-12.761 30.737-12.761h156.565v-55.043H297.044v290.521h58.346q33.304 0 61.957 15.174 28.652 15.174 46.347 43.782 12.088 14.696 26.741 25.87 14.653 11.174 32.26 11.174Z"/></svg>