<svg xmlns="http://www.w3.org/2000/svg" height="24" viewBox="0 -960 960 960" width="24"><path d="M242.826-45.52q-60.834 0-103.417-42.584-42.584-42.583-42.584-103.417v-85.653q0-22.087 15.457-37.544 15.456-15.456 37.544-15.456h75.478v-531.478q0-9.261 7.978-12.892 7.978-3.63 14.674 3.065l23.913 23.913q7.696 7.696 18.522 7.413 10.826-.282 18.522-7.978l26.347-26.348q7.696-7.695 18.522-7.695 10.827 0 18.522 7.695l26.348 26.348q7.696 7.696 18.522 7.696 10.826 0 18.522-7.696l26.913-26.348q7.695-7.695 18.521-7.695 10.827 0 18.522 7.695L526-848.131q7.696 7.696 18.522 7.696 10.826 0 18.522-7.696l26.347-26.348q7.696-7.695 18.522-7.695 10.827 0 18.522 7.695l26.348 26.348q7.696 7.696 18.522 7.696 10.826 0 18.522-7.696l26.347-26.348q7.696-7.695 18.522-7.695 10.827 0 18.522 7.695l26.348 26.348q7.696 7.696 18.522 7.978 10.826.283 18.522-7.413l23.913-23.913q6.695-6.695 14.674-3.065 7.978 3.631 7.978 12.892v670.131q0 60.834-42.584 103.417Q778.008-45.52 717.174-45.52H242.826Zm474.348-106.001q17 0 28.5-11.5t11.5-28.5v-552.652H331.305v413.999h292.868q22.087 0 37.544 15.456 15.457 15.457 15.457 37.544v85.653q0 17 11.5 28.5t28.5 11.5Zm-305.869-508.13h145.869q17 0 28.5 11.5t11.5 28.5q0 17-11.5 28.5t-28.5 11.5H411.305q-17 0-28.5-11.5t-11.5-28.5q0-17 11.5-28.5t28.5-11.5Zm0 120h145.869q17 0 28.5 11.5t11.5 28.5q0 17-11.5 28.5t-28.5 11.5H411.305q-17 0-28.5-11.5t-11.5-28.5q0-17 11.5-28.5t28.5-11.5Zm265.869-40q-17 0-28.5-11.5t-11.5-28.5q0-17 11.5-28.5t28.5-11.5q17 0 28.5 11.5t11.5 28.5q0 17-11.5 28.5t-28.5 11.5Zm0 120q-17 0-28.5-11.5t-11.5-28.5q0-17 11.5-28.5t28.5-11.5q17 0 28.5 11.5t11.5 28.5q0 17-11.5 28.5t-28.5 11.5Z"/></svg>