<svg xmlns="http://www.w3.org/2000/svg" height="20" viewBox="0 -960 960 960" width="20"><path d="M242.826-61.52q-56.834 0-89.417-32.084-32.584-32.083-32.584-89.917v-113.653q0-20.087 14.457-34.544 14.456-14.456 34.544-14.456h55.478v-501.478q0-8.261 6.978-12.392 6.978-4.13 13.674 2.565l24.913 24.913q6.696 6.696 17.522 6.413 10.826-.282 17.522-6.978l25.347-26.348q6.696-6.695 17.522-6.695 10.827 0 17.522 6.695l26.348 26.348q6.696 6.696 17.522 6.696 10.826 0 17.522-6.696l25.913-26.348q6.695-6.695 17.521-6.695 10.827 0 17.522 6.695L515-833.131q6.696 6.696 17.522 6.696 10.826 0 17.522-6.696l26.347-26.348q6.696-6.695 17.522-6.695 10.827 0 17.522 6.695l25.348 26.348q6.696 6.696 17.522 6.696 10.826 0 17.522-6.696l26.347-26.348q6.696-6.695 17.522-6.695 10.827 0 17.522 6.695l25.348 26.348q6.696 6.696 17.522 6.978 10.826.283 17.522-6.413l24.913-24.913q6.695-6.695 13.674-2.565 6.978 4.131 6.978 12.392v652.131q0 57.834-38.584 95.917-38.583 38.084-95.417 38.084H242.826Zm462.348-98.001q16 0 26-9.5t10-26.5v-532.652H323.305v381.999h296.868q20.087 0 34.544 14.456 14.457 14.457 14.457 34.544v101.653q1 17 10.5 26.5t25.5 9.5Zm-297.869-492.13h129.869q15 0 25.5 10.5t10.5 25.5q0 15-10.5 25.5t-25.5 10.5H407.305q-15 0-25.5-10.5t-10.5-25.5q0-15 10.5-25.5t25.5-10.5Zm0 120h129.869q15 0 25.5 10.5t10.5 25.5q0 15-10.5 25.5t-25.5 10.5H407.305q-15 0-25.5-10.5t-10.5-25.5q0-15 10.5-25.5t25.5-10.5Zm249.869-48q-14 0-25-10.5t-11-25.5q0-15 11-25.5t25-10.5q15 0 25.5 10.5t10.5 25.5q0 15-10.5 25.5t-25.5 10.5Zm0 120q-14 0-25-10.5t-11-25.5q0-15 11-25.5t25-10.5q15 0 25.5 10.5t10.5 25.5q0 15-10.5 25.5t-25.5 10.5Z"/></svg>