<svg xmlns="http://www.w3.org/2000/svg" height="20" viewBox="0 -960 960 960" width="20"><path d="M226-297q-80.75 0-135.875-59.382Q35-415.765 35-499.382 35-583 93.677-642q58.676-59 142.499-59Q320-701 379-642.083 438-583.167 438-499q0 25.92-6.5 51.42T411-400h138q-14-22.08-20.5-47.58T522-499q0-84.167 58.882-143.083Q639.765-701 723.882-701 808-701 866.5-642.118q58.5 58.883 58.5 143Q925-416 870.375-356.5T735-297H226Zm10.099-118Q271-415 295.5-439.303t24.5-59.5Q320-534 295.725-558.5 271.451-583 236.549-583q-34.901 0-59.225 24.775-24.324 24.774-24.324 59Q153-465 177.099-440q24.098 25 59 25Zm487.352 0q34.901 0 59.225-24.775 24.324-24.774 24.324-59Q807-533 782.901-558q-24.098-25-59-25Q689-583 664.5-558.697t-24.5 59.5Q640-464 664.275-439.5q24.274 24.5 59.176 24.5Z"/></svg>