<svg xmlns="http://www.w3.org/2000/svg" height="20" viewBox="0 -960 960 960" width="20"><path d="M249.869-124.782v-93.479q32.609-18.522 52.022-36.718 19.413-18.195 29.435-37.63 10.022-19.435 13.413-38.478 3.391-19.043 3.391-37.695 0-5.739-.435-13.109-.435-7.369-2.435-13.108h-95.391v-98.002h48.26q-29.174-43.739-38.717-78.891-9.543-35.152-9.543-69.326 0-92.652 62.674-155.326 62.674-62.674 153.327-62.674 75.609 0 132.131 41.804 56.522 41.805 82.348 114.544l-90.306 39.175q-14.434-46.392-47.304-71.957-32.869-25.565-76.869-25.565-49.913 0-83.957 33.761-34.043 33.76-34.043 83.238 0 37.305 16.043 71.587 16.044 34.283 47.174 79.63H587.87v98.002H443.131q1.435 8.739 2.218 15.608.782 6.87.782 15.609 0 38.347-11.391 74.521t-38.261 66.478H574.87q22.347 0 38.369-15.869 16.021-15.87 22.891-50.566l94.001 34.088q-13.261 58.043-56.5 94.196-43.24 36.152-98.761 36.152H249.869Z"/></svg>