<svg xmlns="http://www.w3.org/2000/svg" height="24" viewBox="0 -960 960 960" width="24"><path d="M319.231-200h305.384v-400H540q-34.154 0-54.846 15.154-20.693 15.154-48.769 46-33.846 37.384-61.116 55.884-27.269 18.5-56.038 23.347V-200Zm-40 40v-300.615q-52-11.693-85.616-47.539Q160-544 160-600q0-46.846 27.807-83.616 27.808-36.769 75.808-52 21.462-46.461 61.577-75.307 40.116-28.846 94.808-28.846 30.385 0 59.346 10.461 28.962 10.462 57.039 35.077 8.461-3.538 16.307-5.038 7.846-1.5 17.308-1.5 56 0 93.385 42 37.384 42 37.384 98 0 18.923-2.423 33.538-2.423 14.616-8.038 27.231H800v353.077H664.615V-160H279.231ZM200-600q0 41.461 29.269 70.731Q258.538-500 300-500q35.846 0 60.269-20.231 24.423-20.231 48.423-46.231 28.077-30.846 56.885-52.192Q494.384-640 540.769-640h120q4.615-50.692-22.346-85.731-26.962-35.038-68.423-35.038-14.231 0-25.077 2.654-10.846 2.654-19.308 7.269l-22.538-19.077q-13.308-10.539-33.885-20.192-20.577-9.654-49.192-9.654-37.385 0-68.5 19.692-31.115 19.692-48.192 54.846l-10.923 22.308L268.077-695q-31.154 10.308-49.615 36.192Q200-632.923 200-600Zm464.615 313.077H760V-560h-95.385v273.077ZM319.231-200h305.384-305.384Z"/></svg>