<svg xmlns="http://www.w3.org/2000/svg" height="20" viewBox="0 -960 960 960" width="20"><path d="M76.782-76.782v-806.436h481.044q-8.652 23.087-10.631 48.152-1.978 25.066 2.718 49.849h-375.13v482.998l15.999-16.564h594.435V-630.13q26.479-5 53.044-19.804 26.566-14.805 44.957-33.153v462.305H220.782l-144 144Zm98.001-708.435v466.434-466.434Zm569.284 88.522q-52.328 0-89.024-36.629-36.695-36.63-36.695-88.957 0-52.328 36.629-89.023Q691.606-948 743.933-948q52.328 0 89.024 36.629 36.695 36.629 36.695 88.957 0 52.327-36.629 89.023t-88.956 36.696Z"/></svg>