<svg xmlns="http://www.w3.org/2000/svg" height="20" viewBox="0 -960 960 960" width="20"><path d="M116.001-134.464v-709.535h449q-2.231 13-2.423 25.807-.193 12.808.884 26.192H168v532.385L220.001-312H792v-321.153q12.23-3.846 26.538-11.346 14.307-7.5 25.461-14.269v398.767h-602.46L116.001-134.464ZM168-779.691v495.385V-792v12.309Zm576.045 80.922q-45.814 0-77.929-32.07-32.115-32.069-32.115-77.884 0-45.814 32.07-77.929t77.884-32.115q45.814 0 77.929 32.07t32.115 77.884q0 45.814-32.07 77.929t-77.884 32.115Z"/></svg>