<svg xmlns="http://www.w3.org/2000/svg" height="24" viewBox="0 -960 960 960" width="24"><path d="m320-709.385-91.539-91.538L256-828.462l91.539 91.539L320-709.385Zm320 0-27.539-27.538L704-828.462l27.539 27.539L640-709.385Zm-180-47.538v-160h40v160h-40ZM160-40v-313.846L246.461-600h467.078L800-353.846V-40h-49.231v-80H209.231v80H160Zm56.615-353.846h526.77L684.462-560H275.538l-58.923 166.154Zm80.489 181.538q18.665 0 31.55-13.065 12.885-13.066 12.885-31.731t-13.066-31.55q-13.066-12.885-31.731-12.885t-31.55 13.066q-12.884 13.066-12.884 31.731t13.065 31.55q13.066 12.884 31.731 12.884Zm366.154 0q18.665 0 31.55-13.065 12.884-13.066 12.884-31.731t-13.065-31.55q-13.066-12.885-31.731-12.885t-31.55 13.066q-12.885 13.066-12.885 31.731t13.066 31.55q13.066 12.884 31.731 12.884Z"/></svg>