<svg xmlns="http://www.w3.org/2000/svg" height="20" viewBox="0 -960 960 960" width="20"><path d="M312.521-674.131 201.216-784.87l68.088-68.653 111.305 111.304-68.088 68.088Zm334.958 0-68.088-68.088 111.305-111.304 68.088 68.653-111.305 110.739Zm-216.48-68.088v-164.999h98.002v164.999h-98.002ZM124.782-6.477v-358.61l101.652-255.827h507.132l101.652 255.827v358.61H718.304v-72H241.696v72H124.782Zm124.131-403.219h462.174l-45.174-113.217H294.087l-45.174 113.217Zm-26.13 65.217v174.783-174.783Zm92.608 135.392q20 0 34-14t14-34q0-20-14-34t-34-14q-20 0-34 14t-14 34q0 20 14 34t34 14Zm329.218 0q20 0 34-14t14-34q0-20-14-34t-34-14q-20 0-34 14t-14 34q0 20 14 34t34 14Zm-421.826 32.608h514.434v-161.217H222.783v161.217Z"/></svg>