<svg xmlns="http://www.w3.org/2000/svg" height="24" viewBox="0 -960 960 960" width="24"><path d="M310.913-709.978 191.63-829.022l63.653-63.891 119.282 119.282-63.652 63.653Zm338.174 0-63.652-63.653 119.282-119.282 63.653 63.891-119.283 119.044ZM434.5-773.631v-194.5h91v194.5h-91ZM111.869 7.413v-369.326l100.392-286.696h535.478l100.392 286.696V7.413H719.283v-80H240.717v80H111.869Zm123.479-447.891h489.304l-40.804-117.131H276.152l-40.804 117.131Zm66.087 238.565q25 0 42.5-17.5t17.5-42.5q0-25-17.5-42.5t-42.5-17.5q-25 0-42.5 17.5t-17.5 42.5q0 25 17.5 42.5t42.5 17.5Zm357.13 0q25 0 42.5-17.5t17.5-42.5q0-25-17.5-42.5t-42.5-17.5q-25 0-42.5 17.5t-17.5 42.5q0 25 17.5 42.5t42.5 17.5Z"/></svg>