<svg xmlns="http://www.w3.org/2000/svg" height="20" viewBox="0 -960 960 960" width="20"><path d="M810-288 616-481v-8q0-16.3-11.35-27.65Q593.3-528 577-528h-7.931L522-576h41q21.3 0 37.15-15.85Q616-607.7 616-629v16q0-24.3-17.325-41.65Q581.35-672 557.088-672h-45.825Q495-672 483.5-660.65T472-633v7L248-850h427.538Q726-850 760-815.5t34 83.996V-672h68q18.3 0 30.65 12.289 12.35 12.29 12.35 30.5Q905-611 892.65-598T862-585h-68v61h67q18.3 0 31.15 12.789 12.85 12.79 12.85 31Q905-462 892.15-449T861-436h-67v61h68q18.3 0 30.65 12.289 12.35 12.29 12.35 30.5Q905-314 892.65-301T862-288h-52Zm-519 0h74q24.3 0 41.65-17.325Q424-322.65 424-346.912v-25.825Q424-397 406.65-414.5 389.3-432 365-432h-74q-24.3 0-41.65 17.325Q232-397.35 232-373.088v25.825Q232-323 249.35-305.5 266.7-288 291-288ZM135-840l648 648q-12 34-41.409 58T676-110H173q-49 0-83.5-34.5T55-228v-504q0-35 24-64.5t56-43.5Zm337 337v156q0 24.3 17.35 41.65Q506.7-288 531-288h46q22.6 0 38.8-16.2Q632-320.4 632-343L472-503ZM303-672h-12q-24.3 0-41.65 17.35Q232-637.3 232-613v74q0 24.3 17.35 41.65Q266.7-480 291-480h90q23.45 0 40.225-16.775Q438-513.55 438-537L303-672ZM767.663-86.352 61.337-792.648Q48-806 48.5-823T62-853q13-13 30-13t30.337 13.337l706.326 706.326Q842-133 842-115.818T829-86q-12.667 13-30.333 13Q781-73 767.663-86.352Z"/></svg>