<svg xmlns="http://www.w3.org/2000/svg" height="24" viewBox="0 -960 960 960" width="24"><path d="m761.462-324.615-143-143.231V-480q0-13.731-9.289-23.019-9.288-9.289-23.019-9.289H574l-55.615-55.384h67.769q13.731 0 23.019-9.289 9.289-9.288 9.289-23.019v-16.923q0-13.731-9.289-23.02-9.288-9.288-23.019-9.288h-56.923q-13.731 0-23.02 9.288-9.288 9.289-9.288 23.02v28.538L285.307-800h419.308q27.616 0 46.116 18.5t18.5 46.115v86.154h41.538q8.5 0 14.251 5.758 5.75 5.758 5.75 14.269 0 8.512-5.75 14.242-5.751 5.731-14.251 5.731h-41.538v102.308h41.538q8.5 0 14.251 5.758 5.75 5.757 5.75 14.269 0 8.511-5.75 14.242-5.751 5.731-14.251 5.731h-41.538v102.308h41.538q8.5 0 14.251 5.757 5.75 5.758 5.75 14.27 0 8.511-5.75 14.242-5.751 5.731-14.251 5.731h-49.307Zm-449.155 13.846h99.787q14.137 0 23.329-9.289 9.192-9.288 9.192-23.019V-400q0-13.731-9.288-23.019-9.289-9.289-23.019-9.289h-99.787q-14.137 0-23.329 9.289Q280-413.731 280-400v56.923q0 13.731 9.288 23.019 9.289 9.289 23.019 9.289ZM173.384-797.616l595.078 595.078q-7.077 20-25.14 31.269Q725.259-160 704.615-160H193.846q-27.615 0-46.116-18.5-18.5-18.5-18.5-46.115v-510.77q0-21.154 11.962-38.346 11.962-17.192 32.192-23.885Zm323.539 323.539v130.809q0 13.812 9.288 23.155 9.289 9.344 23.02 9.344h56.923q13.731 0 23.019-9.289 9.289-9.288 9.289-23.019v-9.461L496.923-474.077ZM321.769-649.231h-9.462q-13.73 0-23.019 9.301Q280-630.629 280-616.88v97.054q0 13.749 9.288 22.941 9.289 9.193 23.019 9.193h99.787q14.137 0 23.329-9.289 9.192-9.288 9.192-23.019v-6.385L321.769-649.231ZM835.615-78.538 95-818.923q-5.846-5.846-6.231-13.885-.385-8.038 6.23-14.654 6.616-6.615 14.27-6.615t14.269 6.615l740.616 740.616Q870-101 870.385-93.076q.384 7.922-6.231 14.538-6.616 6.615-14.27 6.615-7.653 0-14.269-6.615Z"/></svg>