<svg xmlns="http://www.w3.org/2000/svg" height="20" viewBox="0 -960 960 960" width="20"><path d="m742.462-332.615-140-139.231V-492q0-12.031-8.139-20.169-8.138-8.139-20.169-8.139h-20.085l-62.684-63.384h82.769q12.031 0 20.169-8.139 8.139-8.138 8.139-20.169v-.923q0-12.031-8.114-20.169-8.113-8.139-20.106-8.139h-48.749q-11.993 0-20.282 8.139-8.288 8.138-8.288 20.169v35.538L298.307-776h381.847q25.077 0 41.077 16.5 16 16.5 16 40.611v77.658h61.538q6.8 0 11.4 4.547 4.601 4.548 4.601 11.27 0 6.722-4.601 11.452-4.6 4.731-11.4 4.731h-61.538v106.308h61.538q6.8 0 11.4 4.547 4.601 4.547 4.601 11.269t-4.601 11.453q-4.6 4.731-11.4 4.731h-61.538v106.308h61.538q6.8 0 11.4 4.547 4.601 4.547 4.601 11.269t-4.601 11.453q-4.6 4.731-11.4 4.731h-56.307Zm-434.155 13.846h99.787q12.437 0 20.479-8.113 8.042-8.114 8.042-20.107v-48.748q0-11.994-8.138-20.282-8.139-8.289-20.169-8.289h-99.787q-12.437 0-20.479 8.114Q280-408.081 280-396.088v48.748q0 11.994 8.138 20.282 8.139 8.289 20.169 8.289ZM195.384-774.616l541.078 541.078q-4.077 19-20.549 34.269Q699.441-184 680.615-184H201.846q-23.615 0-40.116-16.5-16.5-16.5-16.5-40.115v-478.77q0-18.154 15.462-33.846 15.462-15.692 34.692-21.385Zm301.539 301.539v125.809q0 12.112 8.138 20.305 8.139 8.194 20.17 8.194h68.923q10.331 0 17.319-6.989 6.989-6.988 6.989-17.319v-8.461L496.923-473.077ZM328.769-641.231h-20.462q-12.03 0-20.169 8.151-8.138 8.151-8.138 20.2v97.054q0 12.049 8.138 20.091 8.139 8.043 20.169 8.043h115.787q11.587 0 19.054-7.564 7.467-7.563 7.467-18.744v-5.385L328.769-641.231ZM821.278-103.89 121.337-804.571q-5.183-5.198-5.068-10.737.115-5.538 5.731-11.154 5.615-5.615 10.769-5.615t11.106 5.952l699.942 699.942Q849-121 849.385-114.895q.384 6.105-5.231 11.357-5.282 5.615-11.103 5.615-5.82 0-11.773-5.967Z"/></svg>