<svg xmlns="http://www.w3.org/2000/svg" height="20" viewBox="0 -960 960 960" width="20"><path d="M834.663-110.352 133.337-812.648Q130-816 130-819q0-3 4-7t6.5-4q2.5 0 6.837 4.337l701.326 701.326Q852-121 852.5-117.318T849-110q-3.667 4-6.833 4-3.167 0-7.504-4.352ZM314-764h361.538Q699-764 713.5-749q14.5 15 14.5 37.496V-632h62q4.25 0 7.125 2.825 2.875 2.824 2.875 7 0 4.175-2.875 7.175T790-612h-62v113h62q4.25 0 7.125 2.825 2.875 2.824 2.875 7 0 4.175-2.875 7.175T790-479h-62v113h62q4.25 0 7.125 2.825 2.875 2.824 2.875 7 0 4.175-2.875 7.175T790-346h-57l-25-25v-341q0-12-10-22t-22-10H334l-20-20Zm178 178 10 10.5V-606q0-11.05 7.45-18.525Q516.9-632 527.912-632h41.825q11.013 0 18.638 7.475Q596-617.05 596-606v-6q0 11.05-7.475 18.525Q581.05-586 570-586h-78Zm104 122-54-54h28q11.05 0 18.525 7.475Q596-503.05 596-492v28Zm-105 24Zm24-120ZM292-353.912v-41.825q0-11.013 7.475-18.638Q306.95-422 318-422h93.723q11.577 0 18.927 7.45t7.35 18.462v41.825q0 11.013-7.475 18.638Q423.05-328 412-328h-93.723q-11.577 0-18.927-7.45T292-353.912ZM209-764l20 20h-7q-20 0-31 9.5T180-712v464q0 12 10 22t22 10h465q14 0 23-12.5t9-29.5v-6l18 18q0 19-16.682 34.5T676-196H212q-22 0-37-15t-15-37v-464q0-17.656 14.5-32.328Q189-759 209-764Zm293 293 110 110v11q0 9.35-6.325 15.675Q599.35-328 590-328h-62q-11.05 0-18.525-7.547Q502-343.093 502-354.249V-471ZM341-632l111 111v7q0 10.2-6.9 17.1-6.9 6.9-17.1 6.9H318.277q-11.577 0-18.927-7.491T292-516.057v-90.169q0-11.074 7.475-18.424T318-632h23Z"/></svg>