<svg xmlns="http://www.w3.org/2000/svg" height="24" viewBox="0 -960 960 960" width="24"><path d="M480.016-276.154q-32.631 0-63.131-9.346t-57.424-27.038q-37.846-2.231-77.692-16.308t-72.468-45.765q-32.621-31.689-53.654-83.076-21.032-51.387-21.032-128.467v-17.692q0-33.6 23.223-56.8 23.222-23.2 56.855-23.2 31.23 0 53.961 24.307 22.731 24.308 25.805 59.231 28.695-8 47.618-17.308 18.923-9.307 36.538-18 24.539-13.538 47.685-22.038 23.147-8.5 53.7-8.5 30.923 0 53.885 8.5 22.961 8.5 47.5 22.038 17.384 8.693 36.423 18 19.038 9.308 47.733 17.308 3.074-35.923 25.855-59.731 22.781-23.807 53.955-23.807 33.572 0 56.803 23.2 23.231 23.2 23.231 56.8v17.692q0 77.08-21.032 128.467-21.033 51.387-53.654 83.076-32.622 31.688-72.468 45.765-39.846 14.077-77.692 16.308-26.924 17.692-57.408 27.038t-63.115 9.346Zm-168.478-79.461q-22.846-27.693-37.577-64.347-14.73-36.653-14.73-77.73v-106.154q0-18.539-13.039-31.577-13.038-13.039-31.577-13.039-18.538 0-31.577 13.039Q170-622.385 170-603.846v17.692Q170-470 214.692-421.769q44.692 48.23 96.846 66.154Zm168.399 44.077q76.909 0 131.178-54.654 54.27-54.654 54.27-131.5v-66q-33.231-8-56.423-17.077-23.193-9.077-41.116-20.539-25.692-15.461-46.038-22.461-20.346-7-41.557-7-21.211 0-41.039 7-19.827 7-46.289 22.461-17.923 10.462-41.115 20.539-23.193 10.077-57.193 17.077v66q0 76.846 54.207 131.5 54.207 54.654 131.115 54.654Zm.295-241.539q13.694 0 24.193 4.731 10.498 4.731 22.96 12.731 6.662 4.408 12.908 7.934 6.246 3.527 14.476 7.758 6.462 3.231 12.616.628 6.154-2.602 9.23-8.551 2.462-5.693 0-11.923-2.461-6.231-8.153-8.693-7.301-3.507-13.233-6.577-5.932-3.069-12.32-6.576-14.601-8.77-28.409-15.5-13.808-6.731-34.5-6.731t-34.908 6.577q-14.215 6.577-28.861 15.346-6.193 3.72-11.943 6.975-5.75 3.256-12.98 6.486-5.693 2.462-8.423 8.693-2.731 6.23-.27 11.923 2.462 5.692 8.923 7.923 6.462 2.231 12.154-.231 8.135-4.547 14.914-8.185 6.779-3.638 14.009-7.276 11.693-7.231 22.808-12.347 11.115-5.115 24.809-5.115Zm167.461 198.231q52.923-17.923 97.615-66.539Q790-470 790-586.154v-17.692q0-18.539-13.038-31.577-13.039-13.039-31.577-13.039-18.539 0-31.577 13.039-13.039 13.038-13.039 31.577v106.154q0 41.077-14.615 78.5t-38.461 64.346ZM480-471.538Z"/></svg>