<svg xmlns="http://www.w3.org/2000/svg" height="24" viewBox="0 -960 960 960" width="24"><path d="M220.391-309.521q-50.087-33.566-79.478-87.022Q111.521-450 111.521-514.522q0-81.261 40.044-145.022Q191.609-723.305 240-767.566q48.391-44.261 88.435-67.674l40.044-23.413v112.566q0 21.608 15.456 36.565 15.456 14.956 37.065 14.956 12.304 0 22.326-5.152t17.456-14.456l17.522-21.653q40.261 22.696 69.522 57.174 29.261 34.479 44.957 76.74L489.218-498.348q-2.566-3.131-5.631-6.196l-6.196-6.196L360-626.696 244.043-510.74q-23.13 22.566-36.13 52.196-13 29.631-13 62.761 0 24.522 6.761 45.979 6.761 21.456 18.717 40.283ZM315-324.13q-18.261-11-29.457-29.914-11.195-18.913-11.195-41.739 0-17.565 6.782-32.261 6.783-14.696 18.348-26.261L360-514.262l61.522 60.088q3.565 3.13 6.13 6.13 2.566 3 4.566 6.696L315-324.13Zm.784 261.087-74.654-74.653 558.132-558.131 74.653 74.653-112.912 112.912h112.912v106.001H653.872L632.176-380l45.869 45.869h195.87v106.001h-89.869l72.695 73.26-74.653 74.088-72.695-72.695v89.87H603.391v-195.871l-45.868-45.304-22.827 22.827v218.347H428.695v-112.911L315.784-63.043Z"/></svg>