<svg xmlns="http://www.w3.org/2000/svg" height="20" viewBox="0 -960 960 960" width="20"><path d="m434-38 8-125-3-1q-146.329-17-243.665-125.268Q98-397.535 98-544.768 98-704 209.282-814.5 320.564-925 480.18-925q79.202 0 148.511 30.5t120.809 82q51.5 51.5 82 120.866T862-543q0 84-38 159.5t-99.5 140q-61.5 64.5-138 116T434-38Zm118-201q80-60 136-139.5T744-543q0-109-77.5-186.5T480-807q-109 0-186.5 77.5T216-543q0 109 77.5 186.5T480-279h72v40Zm-71-102q22.585 0 37.793-15.207Q534-371.415 534-394t-15.207-37.793Q503.585-447 481-447t-37.793 15.207Q428-416.585 428-394t15.207 37.793Q458.415-341 481-341Zm-42-131h82q0-27 5.5-43.5T545-545q20-19 38.5-38t18.5-58q0-54.5-33-83.75T482-754q-45.885 0-79.859 29.833Q368.167-694.333 355-654l75.328 31q5.672-18 17.663-34.5T480-674q21 0 30.5 11.25T520-639q0 17-15 31t-27 25q-27 26-33 47.5t-6 63.5Zm41-51Z"/></svg>