<svg xmlns="http://www.w3.org/2000/svg" height="20" viewBox="0 -960 960 960" width="20"><path d="m500.001-130.618 3.847-81.383H480q-131.867 0-223.933-91.998t-92.066-223.769q0-131.77 92.118-224 92.118-92.231 224.061-92.231 65.971 0 123.318 24.962 57.347 24.961 99.963 67.576 42.615 42.616 67.576 100.02Q795.999-594.037 795.999-528q0 62.076-26.231 120.73-26.231 58.653-68.346 110.23-42.115 51.576-94.999 94.192-52.884 42.615-106.422 72.23Zm-18.847-213.46q14.277 0 24.254-9.976 9.976-9.976 9.976-24.254 0-14.277-9.976-24.254-9.977-9.976-24.254-9.976-14.278 0-24.254 9.976-9.976 9.977-9.976 24.254 0 14.278 9.976 24.254t24.254 9.976Zm-23.23-116.999h45.691q.769-23.308 5.731-37.962 4.961-14.654 22.808-32.5 17.615-16.615 34.653-34.076 17.039-17.462 17.039-52.077 0-44.154-29.692-69.769-29.693-25.615-73.385-25.615-38.423 0-64.865 21.884-26.442 21.885-37.442 50.423l40.789 17.384q6.21-17.385 20.471-31.423 14.26-14.038 41.047-14.038 30.462 0 44.308 16.73 13.847 16.731 13.847 35.655 0 22.538-14.693 37.23-14.692 14.693-32.846 31.847-22.923 21.692-28.192 40.538-5.269 18.846-5.269 45.769Z"/></svg>