<svg xmlns="http://www.w3.org/2000/svg" height="20" viewBox="0 -960 960 960" width="20"><path d="m453.999-63.216 4.522-112.392-1.696-.565q-143.721-9.609-241.274-113.312-97.552-103.703-97.552-247.892 0-150.972 105.518-256.037Q329.036-898.48 480.18-898.48q75.289 0 140.903 28.761 65.613 28.761 114.505 77.652 48.891 48.892 77.652 114.562 28.761 65.671 28.761 141.026 0 77.479-34.304 148.414-34.305 70.935-89.718 131.74-55.414 60.804-124.74 109.696-69.327 48.891-139.24 83.413Zm26.566-275.61q19.977 0 33.663-13.686 13.685-13.686 13.685-33.662 0-19.977-13.685-33.663-13.686-13.686-33.663-13.686-19.977 0-33.662 13.686-13.686 13.686-13.686 33.663 0 19.976 13.686 33.662 13.685 13.686 33.662 13.686Zm-36.348-127.087h71.566q0-26.566 4.848-41.761 4.848-15.196 20.456-30.805 19.131-18.13 37.413-37.13 18.283-19 18.283-56.261 0-51.392-32.565-79.37-32.566-27.978-83.088-27.978-44.145 0-75.812 27.391-31.666 27.392-43.797 63.914l65.329 27.087q5.237-17.565 17.88-33.413 12.643-15.848 35.27-15.848 23.609 0 34.413 12.739 10.804 12.739 10.804 27.478 0 18.739-14.783 32.956-14.782 14.218-28.956 27.391-26.565 25.131-31.913 44.892-5.348 19.761-5.348 58.718Z"/></svg>