<svg xmlns="http://www.w3.org/2000/svg" height="24" viewBox="0 -960 960 960" width="24"><path d="m311.153-46.539-47.845-36.076 115.924-151.309-8.462-192.998q-3.077-38.308 3.461-84.04 6.539-45.731 21.155-84.809l-82.694 47.617v138.153h-59.999v-172.614l169.846-98.846q21.538-12.077 37.923-18.615 16.384-6.539 30.461-6.539 23.077 0 42.038 18.808 18.961 18.807 42.5 58.653 32 54 58.961 81.385 26.962 27.384 61.962 46.769 9.077-9.154 18.423-13.307 9.347-4.154 21.5-4.154 24.231 0 41.077 16.846 16.846 16.846 16.846 40.076v415.385h-35.384V-461.54q0-8.769-6.385-15.154-6.384-6.384-15.154-6.384-8.769 0-15.153 6.384-6.385 6.385-6.385 15.154v38.076h-35.384v-19q-53.616-27.615-83.808-56.692-30.192-29.077-57.423-80.924-16.001 36.847-24.424 82.925-8.423 46.077-5.269 84l79.384 125.463v241.537h-59.998V-245l-82.924-117.386-6.308 148.923L311.153-46.539Zm228.462-699.615q-30.307 0-52.076-21.769Q465.77-789.693 465.77-820t21.769-52.077q21.769-21.769 52.076-21.769 30.308 0 52.077 21.769 21.769 21.77 21.769 52.077t-21.769 52.077q-21.769 21.769-52.077 21.769Z"/></svg>