<svg xmlns="http://www.w3.org/2000/svg" height="24" viewBox="0 -960 960 960" width="24"><path d="M302.308-53.077 270.615-77.23l127.846-163.615-16.923-173q-6.153-45.616 1.923-100.577 8.077-54.961 27.308-102.115l-105.384 62.23V-420h-40.001v-157.231l163.693-97.692q18.077-10.154 32.346-15.731 14.269-5.577 26.423-5.577 21.154 0 38.577 16.116 17.423 16.115 37.5 49.807 32 54 59.923 81.77 27.923 27.769 67.923 52.538 7.154-10.308 17.846-15.615 10.693-5.308 24-5.308 23.462 0 39.154 15.692 15.693 15.693 15.693 38.154v410.77h-30.77v-410.77q0-9.538-6.769-16.308-6.769-6.769-16.308-6.769-9.538 0-16.307 6.769-6.769 6.77-6.769 16.308v26.154h-30.77v-19q-53.231-32.231-83.615-61.884-30.385-29.654-61.846-85.347-21 45.693-31.346 97.346-10.346 51.654-6.039 91.5l79.769 138.923v223.077h-40V-250l-94.846-132.769-3.615 155.846L302.308-53.077Zm236.923-699.231q-27.616 0-47.654-20.038-20.039-20.039-20.039-47.654 0-27.615 20.039-47.654 20.038-20.038 47.654-20.038 27.615 0 47.654 20.038 20.038 20.039 20.038 47.654 0 27.615-20.038 47.654-20.039 20.038-47.654 20.038Z"/></svg>