<svg xmlns="http://www.w3.org/2000/svg" height="24" viewBox="0 -960 960 960" width="24"><path d="m312.652-30.39-75.87-56.48L348.13-235.478l-1.131-198.303q-.565-32.696 5-71.74 5.566-39.043 15.566-70.608l-52.652 31.304v149.348h-94.697v-203.827l173.739-102.261q25.566-14.565 44.913-22.348 19.348-7.782 36.479-7.782 28.957 0 53.696 25.174 24.739 25.174 57.957 80.783 28.043 47.217 61.391 72.521 33.349 25.305 70.697 31.391 9.304-5.174 17.587-7.891 8.282-2.717 18.717-2.717 32.914 0 55.718 24.217 22.805 24.218 22.805 58.392v418.87h-62.61v-418.87q0-8-6-14t-14-6q-8 0-14 6t-6 14v46.609h-62.61v-32.001q-45.521-16.217-76.369-39.912-30.848-23.696-56.109-62.086-8.174 21.782-12.978 52.955-4.804 31.174-3.369 63.217l78.434 110.87v279.218h-94.696V-250.74l-51.782-75.433L440-200 312.652-30.39Zm224.522-711.871q-35.261 0-60.457-25.196-25.196-25.195-25.196-60.456t24.913-60.457q24.914-25.196 60.74-25.196t60.739 24.913q24.913 24.913 24.913 60.74 0 35.826-25.196 60.739-25.195 24.913-60.456 24.913Z"/></svg>