<svg xmlns="http://www.w3.org/2000/svg" height="24" viewBox="0 -960 960 960" width="24"><path d="M426.001-391.521q-22.087 0-37.544-15.457-15.456-15.457-15.456-37.544v-137.955q0-44.305 30.848-75.153 30.848-30.849 75.153-30.849h245.52q73.348 0 125.153 51.805 51.804 51.804 51.804 125.153v66.999q0 22.087-15.456 37.544-15.457 15.457-37.544 15.457H426.001Zm44.522-200v103.042-103.042ZM848.479-245.52H111.521q-22.087 0-37.544-15.457-15.456-15.456-15.456-37.544 0-22.087 15.456-37.544 15.457-15.456 37.544-15.456h736.958q22.087 0 37.544 15.456 15.456 15.457 15.456 37.544 0 22.088-15.456 37.544-15.457 15.457-37.544 15.457ZM195.445-391.521q-57.315 0-97.12-39.946-39.804-39.946-39.804-97.012 0-57.301 39.945-97.412 39.946-40.11 97.012-40.11 57.301 0 97.412 40.12 40.111 40.121 40.111 97.436 0 57.315-40.121 97.119-40.12 39.805-97.435 39.805Zm.033-96.958q17 0 28.5-11.5t11.5-28.5q0-17-11.5-28.5t-28.5-11.5q-17 0-28.5 11.5t-11.5 28.5q0 17 11.5 28.5t28.5 11.5Zm275.045 0h333.999v-23.042q0-33-23.5-56.5t-56.5-23.5H470.523v103.042Zm-275.045-40Z"/></svg>