<svg xmlns="http://www.w3.org/2000/svg" height="24" viewBox="0 -960 960 960" width="24"><path d="M426.001-391.521q-22.087 0-37.544-15.457-15.456-15.457-15.456-37.544v-137.955q0-44.305 30.848-75.153 30.848-30.849 75.153-30.849h245.52q73.348 0 125.153 51.805 51.804 51.804 51.804 125.153v66.999q0 22.087-15.456 37.544-15.457 15.457-37.544 15.457H426.001ZM848.479-245.52H111.521q-22.087 0-37.544-15.457-15.456-15.456-15.456-37.544 0-22.087 15.456-37.544 15.457-15.456 37.544-15.456h736.958q22.087 0 37.544 15.456 15.456 15.457 15.456 37.544 0 22.088-15.456 37.544-15.457 15.457-37.544 15.457ZM195.478-391.521q-57.348 0-97.153-39.805-39.804-39.804-39.804-97.153 0-57.348 39.804-97.435 39.805-40.087 97.153-40.087 57.348 0 97.435 40.087 40.088 40.087 40.088 97.435 0 57.349-40.088 97.153-40.087 39.805-97.435 39.805Z"/></svg>