<svg xmlns="http://www.w3.org/2000/svg" height="20" viewBox="0 -960 960 960" width="20"><path d="M831.999-346.001h-36v216.306L22.773-479l773.226-349.921v214.922h36v51.998H708v-51.998h36v-135.616l-188.539 85.769q28 41.462 43.269 87.923 15.269 46.462 15.269 95.923 0 49.846-15.769 96.115t-43.385 87.731L744-209.385v-136.616h-36v-51.998h123.999v51.998Zm-325.075 29.078q25.769-35.769 40.423-77.346 14.654-41.577 14.654-85.731 0-43.769-14.462-85.231-14.461-41.462-40.615-76.462L151.769-480l355.155 163.077Z"/></svg>