<svg xmlns="http://www.w3.org/2000/svg" height="24" viewBox="0 -960 960 960" width="24"><path d="M212.309-140.001q-29.827 0-51.067-21.241-21.241-21.24-21.241-51.067v-535.382q0-29.827 21.241-51.067 21.24-21.241 51.067-21.241h127.692q12.75 0 21.375 8.629t8.625 21.384q0 12.756-8.625 21.371Q352.751-760 340.001-760H212.309q-5.385 0-8.847 3.462-3.462 3.462-3.462 8.847v535.382q0 5.385 3.462 8.847 3.462 3.462 8.847 3.462h127.692q12.75 0 21.375 8.629 8.625 8.628 8.625 21.384 0 12.755-8.625 21.37-8.625 8.616-21.375 8.616H212.309ZM479.987-40q-12.756 0-21.371-8.625-8.615-8.625-8.615-21.374v-812.309q0-12.75 8.628-21.374 8.629-8.625 21.384-8.625 12.756 0 21.371 8.625 8.615 8.624 8.615 21.374v812.309q0 12.75-8.628 21.374Q492.742-40 479.987-40Zm110.012-100.001V-200H680v59.999h-90.001Zm0-619.999v-59.999H680V-760h-90.001ZM760-140.001V-200h59.999q0 24.922-17.625 42.461-17.625 17.538-42.374 17.538ZM760-280v-80h59.999v80H760Zm0-160v-80h59.999v80H760Zm0-160v-80h59.999v80H760Zm0-160v-59.999q24.749 0 42.374 17.625 17.625 17.625 17.625 42.374H760Z"/></svg>