<svg xmlns="http://www.w3.org/2000/svg" height="20" viewBox="0 -960 960 960" width="20"><path d="M336-232q-103.25 0-175.625-72.339Q88-376.679 88-479.878q0-103.199 72.375-175.661Q232.75-728 336-728h288q103.25 0 175.625 72.339Q872-583.321 872-480.122q0 103.199-72.375 175.661Q727.25-232 624-232H336Zm144.212-196q22.096 0 36.942-15.058Q532-458.117 532-480.212q0-22.096-15.058-36.942Q501.883-532 479.788-532q-22.096 0-36.942 15.058Q428-501.883 428-479.788q0 22.096 15.058 36.942Q458.117-428 480.212-428Zm-36.3-192h71.825q6.763 0 11.513-4.547t4.75-11.269q0-6.723-4.575-11.453Q522.85-652 516.088-652h-71.825q-6.763 0-11.513 4.547T428-636.184q0 6.723 4.575 11.453Q437.15-620 443.912-620Zm0 312h71.825q6.763 0 11.513-4.547t4.75-11.269q0-6.723-4.575-11.453Q522.85-340 516.088-340h-71.825q-6.763 0-11.513 4.547T428-324.184q0 6.723 4.575 11.453Q437.15-308 443.912-308Zm191.904-120q6.723 0 11.453-4.575Q652-437.15 652-443.912v-71.825q0-6.763-4.547-11.513T636.184-532q-6.723 0-11.453 4.575Q620-522.85 620-516.088v71.825q0 6.763 4.547 11.513t11.269 4.75Zm-312 0q6.723 0 11.453-4.575Q340-437.15 340-443.912v-71.825q0-6.763-4.547-11.513T324.184-532q-6.723 0-11.453 4.575Q308-522.85 308-516.088v71.825q0 6.763 4.547 11.513t11.269 4.75Z"/></svg>