<svg xmlns="http://www.w3.org/2000/svg" height="24" viewBox="0 -960 960 960" width="24"><path d="M541.538-776.461q-75.461 48.692-117.73 126.807-42.269 78.116-42.269 167.962 0 96.384 48.5 178.961 48.5 82.577 132.653 129.808 7.847 4.384 11.039 12.577 3.192 8.192-.962 15.5-4.154 8.077-12.615 10.115-8.462 2.039-16.308-2.115-94.154-52.846-148.231-144.423t-54.077-199.654q0-95.615 44.077-179.808Q429.692-744.923 508-800H358.462q-8.539 0-14.27-5.731T338.461-820q0-8.539 5.731-14.269 5.731-5.731 14.27-5.731h190.769q13.923 0 23.115 9.192 9.193 9.192 9.193 23.115v190.77q0 8.538-5.731 14.269t-14.27 5.731q-8.538 0-14.269-5.731t-5.731-14.269v-159.538Z"/></svg>