<svg xmlns="http://www.w3.org/2000/svg" height="20" viewBox="0 -960 960 960" width="20"><path d="m756.846-151.384-90.308-90.308q-5 4.077-9.653 6.885Q652.231-232 644.923-232H482.77v-193.461L378.922-528.308H205.538v-143.253q0-7.131 2.423-12.17 2.423-5.038 6.5-9.038l-87.692-87.693 23.308-23.308 630.077 629.078-23.308 23.308Zm50.231-205.846L701.539-462.769v106.923L329.384-728h315.539q23.654 0 40.135 16.481 16.481 16.48 16.481 40.134v174.154L807.077-602.77v245.54ZM257.615-177.076q-10.154 0-20.365-4.75-10.212-4.75-19.096-13.635l-63.847-63.616 8.539-9.307q2.384-4.923 6.658-5.616 4.274-.692 8.573-.692 5.615 0 9.884 3.077 4.27 3.077 9.193 7.231L233.538-228v-183.385q0-4.667 3.539-8.179 3.538-3.513 8.483-3.513 4.524 0 7.944 3.513 3.419 3.512 3.419 8.179v84.616h22.769v-133.078q0-4.666 3.539-8.179 3.538-3.513 8.483-3.513 4.524 0 7.944 3.513 3.419 3.513 3.419 8.179v133.078h22.769v-108.462q0-4.667 3.539-8.18 3.538-3.512 8.483-3.512 4.524 0 7.944 3.512 3.419 3.513 3.419 8.18v108.462H372v-77.154q0-4.667 3.539-8.18 3.538-3.513 8.483-3.513 4.524 0 7.944 3.513 3.419 3.513 3.419 8.18v170.231q0 23.654-16.577 40.135-16.577 16.481-40.038 16.481h-81.155Z"/></svg>