<svg xmlns="http://www.w3.org/2000/svg" height="24" viewBox="0 -960 960 960" width="24"><path d="m898.088-187.217-91.87-91.87v-26.217h-26.217L674.565-411.305h117.522v-137.39H655.262v118.086l-92.436-91.87v-26.216h-25.651L431.174-654.696h117.521v-137.391H411.87V-674L320-765.87v-26.217h-26.216L187.782-898.088h710.306v710.871ZM654.696-654.696h137.391v-137.391H654.696v137.391ZM820-16.13l-47.217-45.782H61.913v-712.306L16.13-820l61.652-62.218L882.218-77.782 820-16.13ZM654.696-167.913h26.217l-26.217-27.086v27.086ZM411.305-411.305h26.216l-26.216-27.086v27.086Zm0 243.392h137.39V-286.87l-19.304-18.434H411.305v137.391ZM167.913-654.696h26.217l-26.217-27.086v27.086Zm0 243.391h137.391v-119.521L286-548.695H167.913v137.39Zm137.391 243.392v-137.391H167.913v137.391h137.391Z"/></svg>