<svg xmlns="http://www.w3.org/2000/svg" height="20" viewBox="0 -960 960 960" width="20"><path d="m871.652-196.13-77.022-77.022v-49.63H744l-82.761-83.001h127.413v-149.434H638.457v126.652l-77.261-77.022v-49.63h-49.391l-83.001-83.001h126.413v-150.434H405.022V-662L328-739.022v-49.63h-49.63l-83-83h676.282v675.522ZM638.218-638.218h150.434v-150.434H638.218v150.434ZM803-50.978l-38.13-37.37H88.348V-765.63L50.978-803l53.392-53.63 751.26 752.26L803-50.978Zm-164.782-120.37h49.63l-49.63-49.152v49.152ZM404.783-405.783h49.63l-49.63-49.152v49.152Zm0 234.435h150.434v-126.174l-23.782-24.26H404.783v150.434Zm-233.435-466.87h49.63l-49.63-50.152v50.152Zm0 232.435h150.434v-126.413L298-555.217H171.348v149.434Zm150.434 234.435v-150.434H171.348v150.434h150.434Z"/></svg>