<svg xmlns="http://www.w3.org/2000/svg" height="24" viewBox="0 -960 960 960" width="24"><path d="m480-152.261-283.587-163.63v-326.305L480-805.826l283.587 163.63v326.305L480-152.261Zm-40-128.152v-175.391l-152.587-88.935v176.391L440-280.413Zm80 0 152.587-87.935v-176.391L520-455.804v175.391ZM71.87-680.717v-207.414h207.413v87.414h-120v120H71.869ZM279.282-71.869H71.869v-207.414h87.414v120h120v87.414Zm401.434 0v-87.414h120v-120h87.414v207.414H680.717Zm120-608.848v-120h-120v-87.414h207.414v207.414h-87.414ZM480-525.043l151.065-88.935L480-701.152l-151.065 87.174L480-525.043Zm0 44.521Zm0-44.521Zm40 69.239Zm-80 0Z"/></svg>