<svg xmlns="http://www.w3.org/2000/svg" height="24" viewBox="0 -960 960 960" width="24"><path d="M228-228h158q5.95 0 9.975 4.035 4.025 4.035 4.025 10T395.975-204q-4.025 4-9.975 4H230q-12.75 0-21.375-8.625T200-230v-156q0-5.95 4.035-9.975 4.035-4.025 10-4.025t9.965 4.025q4 4.025 4 9.975v158Zm0-504v158q0 5.95-4.035 9.975-4.035 4.025-10 4.025T204-564.025q-4-4.025-4-9.975v-156q0-12.75 8.625-21.375T230-760h156q5.95 0 9.975 4.035 4.025 4.035 4.025 10T395.975-736q-4.025 4-9.975 4H228Zm504 504v-158q0-5.95 4.035-9.975 4.035-4.025 10-4.025t9.965 4.025q4 4.025 4 9.975v156q0 12.75-8.625 21.375T730-200H574q-5.95 0-9.975-4.035-4.025-4.035-4.025-10t4.025-9.965q4.025-4 9.975-4h158Zm0-504H574q-5.95 0-9.975-4.035-4.025-4.035-4.025-10t4.025-9.965q4.025-4 9.975-4h156q12.75 0 21.375 8.625T760-730v156q0 5.95-4.035 9.975-4.035 4.025-10 4.025T736-564.025q-4-4.025-4-9.975v-158Z"/></svg>