<svg xmlns="http://www.w3.org/2000/svg" height="20" viewBox="0 -960 960 960" width="20"><path d="M264-264h84q15.3 0 25.65 10.289 10.35 10.29 10.35 25.5Q384-213 373.65-202.5 363.3-192 348-192H228q-15.3 0-25.65-10.35Q192-212.7 192-228v-120q0-15.3 10.289-25.65 10.29-10.35 25.5-10.35Q243-384 253.5-373.65 264-363.3 264-348v84Zm0-432v84q0 15.3-10.289 25.65-10.29 10.35-25.5 10.35Q213-576 202.5-586.35 192-596.7 192-612v-120q0-15.3 10.35-25.65Q212.7-768 228-768h120q15.3 0 25.65 10.289 10.35 10.29 10.35 25.5Q384-717 373.65-706.5 363.3-696 348-696h-84Zm432 432v-84q0-15.3 10.289-25.65 10.29-10.35 25.5-10.35Q747-384 757.5-373.65 768-363.3 768-348v120q0 15.3-10.35 25.65Q747.3-192 732-192H612q-15.3 0-25.65-10.289-10.35-10.29-10.35-25.5Q576-243 586.35-253.5 596.7-264 612-264h84Zm0-432h-84q-15.3 0-25.65-10.289-10.35-10.29-10.35-25.5Q576-747 586.35-757.5 596.7-768 612-768h120q15.3 0 25.65 10.35Q768-747.3 768-732v120q0 15.3-10.289 25.65-10.29 10.35-25.5 10.35Q717-576 706.5-586.35 696-596.7 696-612v-84Z"/></svg>