<svg xmlns="http://www.w3.org/2000/svg" height="20" viewBox="0 -960 960 960" width="20"><path d="M116-160v-332q0-6.8 4.547-11.4 4.547-4.6 11.269-4.6 6.723 0 11.453 4.6Q148-498.8 148-492v80h106.615L404-812.923V-876q0-6.8 4.547-11.4 4.547-4.6 11.269-4.6 6.723 0 11.453 4.6Q436-882.8 436-876v80h88v-80q0-6.8 4.547-11.4 4.547-4.6 11.269-4.6 6.723 0 11.453 4.6Q556-882.8 556-876v63.077L705.385-412H812v-80q0-6.8 4.547-11.4 4.547-4.6 11.269-4.6 6.723 0 11.453 4.6Q844-498.8 844-492v332q0 17.727-13.136 30.864Q817.727-116 800-116H576.308q-12.031 0-20.17-8.138-8.138-8.139-8.138-20.17V-308H412v163.692q0 12.031-8.138 20.17-8.139 8.138-20.17 8.138H160q-17.727 0-30.864-13.136Q116-142.273 116-160Zm201.077-324h325.846l-48.308-136h-229.23l-48.308 136Zm63-168h199.846l-39.308-112h-121.23l-39.308 112ZM148-148h232v-148q0-17.727 13.136-30.864Q406.273-340 424-340h112q17.727 0 30.864 13.136Q580-313.727 580-296v148h232v-232h-99.385q-13.013 0-23.773-7.26-10.761-7.261-15.765-19.279l-15.769-40.846L302.385-452l-15.462 45.461q-5.004 12.018-15.765 19.279-10.76 7.26-23.773 7.26H148v232Zm332-299.385Z"/></svg>