<svg xmlns="http://www.w3.org/2000/svg" height="20" viewBox="0 -960 960 960" width="20"><path d="M69.999-171.521v-328.958q0-20.387 14.246-34.694 14.246-14.306 34.544-14.306 20.298 0 34.754 14.306Q168-520.866 168-500.479v47h53.912l140.609-372.695v-58.305q0-20.387 14.246-34.694 14.246-14.306 34.544-14.306 20.298 0 34.754 14.306 14.457 14.307 14.457 34.694v47h38.956v-47q0-20.387 14.246-34.694 14.246-14.306 34.544-14.306 20.298 0 34.755 14.306 14.456 14.307 14.456 34.694v58.305l140.609 372.695H792v-47q0-20.387 14.246-34.694 14.246-14.306 34.544-14.306 20.298 0 34.755 14.306 14.456 14.307 14.456 34.694v328.958q0 45.955-32.023 77.978Q825.955-61.52 780-61.52H564q-20.387 0-34.694-14.307-14.307-14.306-14.307-34.694v-156h-69.998v156q0 20.388-14.307 34.694Q416.387-61.52 396-61.52H180q-45.955 0-77.978-32.023-32.023-32.023-32.023-77.978Zm282.48-353.958h255.042l-28.651-69.999H381.13l-28.651 69.999Zm63-168h129.042l-19.651-45.999h-89.74l-19.651 45.999ZM168-159.521h178.999v-95q0-45.955 32.024-77.978 32.023-32.023 77.978-32.023h45.998q45.955 0 77.978 32.023 32.024 32.023 32.024 77.978v95H792v-195.957h-52.13q-32.783 0-58.522-18.957-25.739-18.956-36.435-49.044l-3.351-3.999H318.13l-3.043 3.999q-10.696 30.088-36.435 49.044-25.739 18.957-58.522 18.957H168v195.957Zm312-267.957Z"/></svg>