<svg xmlns="http://www.w3.org/2000/svg" height="24" viewBox="0 -960 960 960" width="24"><path d="M327.385-660 379-831.923V-880q0-8.5 5.758-14.25 5.757-5.75 14.269-5.75t14.242 5.75Q419-888.5 419-880v60h121v-60q0-8.5 5.758-14.25 5.757-5.75 14.269-5.75t14.242 5.75Q580-888.5 580-880v43.077L632.615-660h-305.23ZM100-140v-340q0-8.5 5.758-14.25 5.757-5.75 14.269-5.75t14.242 5.75Q140-488.5 140-480v60h114.615l12.308-40h426.154l12.308 40H820v-60q0-8.5 5.758-14.25 5.757-5.75 14.269-5.75t14.242 5.75Q860-488.5 860-480v340q0 16.077-11.961 28.039Q836.077-100 820-100H572.308q-13.731 0-23.02-9.288-9.288-9.289-9.288-23.02V-240q0-24.692-17.654-42.346Q504.692-300 480-300q-24.692 0-42.346 17.654Q420-264.692 420-240v107.692q0 13.731-9.288 23.02-9.289 9.288-23.02 9.288H140q-16.077 0-28.039-11.961Q100-123.923 100-140Zm179.385-360 35.538-120h330.154l35.538 120h-401.23Z"/></svg>