<svg xmlns="http://www.w3.org/2000/svg" height="20" viewBox="0 -960 960 960" width="20"><path d="m350-646 60-166v-64q0-4.25 2.825-7.125 2.824-2.875 7-2.875 4.175 0 7.175 2.875t3 7.125v86h100v-86q0-4.25 2.825-7.125 2.824-2.875 7-2.875 4.175 0 7.175 2.875t3 7.125v64l60 166H350ZM122-154v-338q0-4.25 2.825-7.125 2.824-2.875 7-2.875 4.175 0 7.175 2.875t3 7.125v86h117l16-52h410l16 52h117v-86q0-4.25 2.825-7.125 2.824-2.875 7-2.875 4.175 0 7.175 2.875t3 7.125v338q0 12.65-9.675 22.325Q818.65-122 806-122H628q-11.05 0-18.525-7.475Q602-136.95 602-148v-44q0-50-36-86t-86-36q-50 0-86 36t-36 86v44q0 11.05-7.475 18.525Q343.05-122 332-122H154q-12.65 0-22.325-9.675Q122-141.35 122-154Zm165-324 51-148h284l51 148H287Z"/></svg>