<svg xmlns="http://www.w3.org/2000/svg" height="24" viewBox="0 -960 960 960" width="24"><path d="m294.477-701.479 43.044-143.695v-43.305q0-22.087 15.456-37.544 15.457-15.456 37.544-15.456 22.088 0 37.544 15.456 15.457 15.457 15.457 37.544v27h71.956v-27q0-22.087 15.457-37.544 15.456-15.456 37.544-15.456 22.087 0 37.544 15.456 15.456 15.457 15.456 37.544v38.305l44.044 148.695H294.477ZM53.999-151.521v-336.958q0-22.087 15.456-37.544Q84.912-541.479 107-541.479q22.088 0 37.544 15.456Q160-510.566 160-488.479V-440h55.694l2.827-8.479h522.958l2.827 8.479H800v-48.479q0-22.087 15.457-37.544 15.456-15.456 37.544-15.456 22.087 0 37.544 15.456 15.456 15.457 15.456 37.544v336.958q0 44.305-30.848 75.153Q844.305-45.52 800-45.52H577.523q-22.088 0-37.544-15.457-15.457-15.456-15.457-37.544v-132.435q0-18.696-12.913-31.609T480-275.478q-18.696 0-31.609 12.913t-12.913 31.609v132.435q0 22.088-15.457 37.544-15.456 15.457-37.544 15.457H160q-44.305 0-75.153-30.848-30.848-30.848-30.848-75.153ZM242.52-528.479l27.956-93h419.046l27.956 93H242.521Z"/></svg>