<svg xmlns="http://www.w3.org/2000/svg" height="24" viewBox="0 -960 960 960" width="24"><path d="M53.999-151.521v-336.958q0-22.087 15.456-37.544Q84.912-541.479 107-541.479q22.088 0 37.544 15.456Q160-510.566 160-488.479v27h61.912l115.609-383.695v-43.305q0-22.087 15.456-37.544 15.457-15.456 37.544-15.456 22.088 0 37.544 15.456 15.457 15.457 15.457 37.544v27h71.956v-27q0-22.087 15.457-37.544 15.456-15.456 37.544-15.456 22.087 0 37.544 15.456 15.456 15.457 15.456 37.544v38.305l116.609 388.695H800v-27q0-22.087 15.457-37.544 15.456-15.456 37.544-15.456 22.087 0 37.544 15.456 15.456 15.457 15.456 37.544v336.958q0 44.305-30.848 75.153Q844.305-45.52 800-45.52H560q-22.087 0-37.544-15.457-15.457-15.456-15.457-37.544v-160h-53.998v160q0 22.088-15.457 37.544Q422.087-45.52 400-45.52H160q-44.305 0-75.153-30.848-30.848-30.848-30.848-75.153Zm302.48-389.958h247.042l-16.651-53.999H373.13l-16.651 53.999Zm48-160h151.042l-16.651-53.999H421.13l-16.651 53.999ZM160-151.521h186.999v-107q0-44.305 30.849-75.153 30.848-30.848 75.153-30.848h53.998q44.305 0 75.153 30.848 30.849 30.848 30.849 75.153v107H800v-203.957h-68.13q-32.783 0-58.522-19.457-25.739-19.456-35.435-50.544l-3.043-9.999H325.13l-3.043 9.999q-9.696 31.088-35.435 50.544-25.739 19.457-58.522 19.457H160v203.957Zm320-283.957Z"/></svg>