<svg xmlns="http://www.w3.org/2000/svg" height="20" viewBox="0 -960 960 960" width="20"><path d="m330-672 54-144v-60q0-15.3 10.289-25.65 10.29-10.35 25.5-10.35Q435-912 445.5-901.65 456-891.3 456-876v60h48v-60q0-15.3 10.289-25.65 10.29-10.35 25.5-10.35Q555-912 565.5-901.65 576-891.3 576-876v60l54 144H330ZM96-180v-312q0-15.3 10.289-25.65 10.29-10.35 25.5-10.35Q147-528 157.5-517.65 168-507.3 168-492v60h624v-60q0-15.3 10.289-25.65 10.29-10.35 25.5-10.35Q843-528 853.5-517.65 864-507.3 864-492v312q0 34.65-24.675 59.325Q814.65-96 780-96H612q-15.3 0-25.65-10.35Q576-116.7 576-132v-60q0-40-28-68t-68-28q-40 0-68 28t-28 68v60q0 15.3-10.35 25.65Q363.3-96 348-96H180q-34.65 0-59.325-24.675Q96-145.35 96-180Zm171-324 36-96h354l36 96H267Z"/></svg>