<svg xmlns="http://www.w3.org/2000/svg" height="20" viewBox="0 -960 960 960" width="20"><path d="m598.737-234.54-30.095 85.424q-3.439 9.688-12.204 16.016-8.765 6.329-18.9 6.329-18.846 0-28.192-14.847-9.346-14.846-2.961-31.3L637.691-522.85q4.423-10.15 13.077-16.573t19.338-6.423h26.709q10.684 0 19.376 6.462 8.692 6.461 13.038 16.615l132.307 351.145q6.385 16.545-3.83 30.699-10.214 14.154-27.53 14.154-11.255 0-20.178-6.231t-12.154-16.462l-29.539-85.076H598.737Zm22.493-60.615h124.461l-60.832-173.614h-3.014L621.23-295.155ZM370.001-411.154 217.463-260.617q-10.615 10.616-23.077 10.116-12.461-.5-23.076-11.116-10.616-10.615-10.616-23.077 0-12.461 10.616-23.076l153.537-151.538q-32.923-34.695-61.615-72.155-28.692-37.459-50.153-81.228h75.429q16.493 29.307 37.762 54.807 21.269 25.5 42.961 50.192 34.923-38.538 64.808-80 29.884-41.461 47.961-89.845H115.499q-13.974 0-23.428-9.405-9.453-9.405-9.453-23.307 0-13.93 9.465-23.564 9.466-9.633 23.458-9.633h221.537v-56.987q0-14.019 9.405-23.407 9.404-9.389 23.307-9.389 13.912 0 23.533 9.466 9.621 9.465 9.621 23.457v56.923h221.662q14.001 0 23.389 9.405 9.389 9.405 9.389 23.308 0 13.902-9.466 23.518-9.465 9.615-23.457 9.615h-72.143q-19.934 63.23-57.054 116.523-37.119 53.292-80.879 101.706l83.307 82.307L472-309.155 370.001-411.154Z"/></svg>