<svg xmlns="http://www.w3.org/2000/svg" height="20" viewBox="0 -960 960 960" width="20"><path d="M618.968-193 581.28-90.994q-4.308 11.568-14.419 18.78Q556.75-65 545-65q-22 0-32.5-17.275-10.5-17.274-3.5-36.819L663.571-531.15q5.237-11.85 15.528-19.35 10.291-7.5 22.64-7.5h30.873q12.35 0 22.365 7.56Q764.992-542.88 770-531l158 413q7 19.462-5.021 36.23Q910.957-65 890.377-65 877-65 866-72q-11-7-15-20l-34.326-101H618.968ZM644-264h147l-71.892-204H715l-71 204ZM351-399 171-222q-13 12-27.5 12T117-222.5Q105-235 105.5-250t12.392-26.832L299-455q-40-42-72.5-86T169-637h88.353Q277-603 301.5-572.5T351-513q41.882-45.544 76.441-94.772Q462-657 484-714H53.243q-16.678 0-27.96-11.789Q14-737.579 14-753.982q0-16.404 11.85-27.711Q37.7-793 54.245-793h257.58v-63q0-16.575 11.132-27.787Q334.089-895 350.544-895q16.456 0 27.829 11.213 11.373 11.212 11.373 27.787v63h258.218q16.59 0 27.813 11.152Q687-770.696 687-754.211 687-738 675.787-726 664.575-714 648-714h-81.567Q543-641 499.5-576.5 456-512 404-455l99 97-29 80-123-121Z"/></svg>