<svg xmlns="http://www.w3.org/2000/svg" height="24" viewBox="0 -960 960 960" width="24"><path d="M179.232-130.001q-45.769 0-77.884-32.115T69.233-240q0-24.846 10.192-47 10.193-22.154 29.808-38v-184.999h85.77v-230h281.92l181.076 425.307q5.616 13.231 8.808 26.654T669.999-260q0 54.154-37.923 92.076-37.922 37.923-92.076 37.923-39.846 0-72.615-21.692t-47.461-58.308H284.539q-9.923 35.616-39.192 57.808t-66.115 22.192Zm530.767-40v-619.998h59.999v560h120.769v59.998H709.999Zm-530.767-19.998q20.847 0 35.424-14.577 14.577-14.578 14.577-35.424t-14.577-35.424q-14.577-14.577-35.424-14.577-20.846 0-35.423 14.577-14.578 14.578-14.578 35.424t14.578 35.424q14.577 14.577 35.423 14.577Zm360.768 0q28.846 0 49.424-20.577 20.577-20.578 20.577-49.424t-20.577-49.424Q568.846-330.001 540-330.001t-49.424 20.577Q469.999-288.846 469.999-260t20.577 49.424q20.578 20.577 49.424 20.577Zm-167.999-200h171.691q5.001 0 9.809 1.154 4.808 1.154 9.423 3.461L437.385-680H255.001v170.001l117 120Z"/></svg>