<svg xmlns="http://www.w3.org/2000/svg" height="20" viewBox="0 -960 960 960" width="20"><path d="M155.565-122.521q-54.24 0-92.207-37.967-37.968-37.968-37.968-92.207 0-25.175 9.674-46.718 9.674-21.542 27.021-38.542v-217.177h109.001v-186.347H468.13l186.174 404.175q9.131 16.261 14.544 34.607t5.413 38.002q0 59.208-41.483 100.691-41.484 41.483-100.691 41.483-38.91 0-71.651-19.5t-52.435-52.5H272.348q-16.261 33.566-47.423 52.783-31.162 19.217-69.36 19.217Zm566.696-48v-618.958h92.349v526.609h120v92.349H722.261Zm-566.597-39.827q18.04 0 30.144-12.203t12.104-30.243q0-18.04-12.203-30.144-12.204-12.105-30.244-12.105-18.039 0-30.144 12.204-12.104 12.203-12.104 30.243t12.203 30.144q12.204 12.104 30.244 12.104Zm376.489 0q22.673 0 38.477-15.87 15.804-15.871 15.804-38.544 0-22.672-15.871-38.476-15.87-15.805-38.543-15.805-22.672 0-38.477 15.871-15.804 15.871-15.804 38.543 0 22.673 15.871 38.477 15.871 15.804 38.543 15.804ZM280.348-286.87H393.25q3.054-14.695 7.532-29.239 4.478-14.543 12.739-26.674h-93.913l-125.565-120h-39.609v79.913H155.565q44.718 0 79.62 26.718 34.902 26.717 45.163 69.282Zm76.173-148.262h152.868L408.564-649.13H263.435v124.346l93.086 89.652Zm-36.913 92.349-19.59-19q-19.589-19-43.193-41.5t-43.193-41l-19.589-18.5h-39.609 39.609l125.565 120h93.913-93.913Z"/></svg>