<svg xmlns="http://www.w3.org/2000/svg" height="24" viewBox="0 -960 960 960" width="24"><path d="M774-172H186q-5.95 0-9.975-4.035-4.025-4.035-4.025-10t4.025-9.965q4.025-4 9.975-4h588q5.95 0 9.975 4.035 4.025 4.035 4.025 10T783.975-176q-4.025 4-9.975 4ZM466-589l-80 79q-4 4-9.5 4.5t-10.717-4.717Q361-515 361-520q0-5 5-10l93-93q9-9 21-9t21 9l93 93q4 4 4.5 9.5t-4.717 10.717Q589-505 584-505.5q-5-.5-10-4.5l-80-79v269q0 5.95-4.035 9.975-4.035 4.025-10 4.025T470-310.025q-4-4.025-4-9.975v-269Zm308-171H186q-5.95 0-9.975-4.035-4.025-4.035-4.025-10t4.025-9.965q4.025-4 9.975-4h588q5.95 0 9.975 4.035 4.025 4.035 4.025 10T783.975-764q-4.025 4-9.975 4Z"/></svg>