<svg xmlns="http://www.w3.org/2000/svg" height="20" viewBox="0 -960 960 960" width="20"><path d="M170.63-546.239q0 72.522 48.707 123.804 48.706 51.283 115.924 52.326h.239l-41.87-42.869 58.653-58.131 143.022 143.022-144.696 144.218-59.131-58.892 45.544-45.065q-102.761-1.043-175.957-76.315-73.196-75.272-73.196-182.098 0-107.87 74.098-183.761 74.098-75.891 179.576-75.891h144.435v82.761H341.543q-71.413 0-121.163 51.663t-49.75 125.228Zm411.348 259.413v-82.761h290.153v82.761H581.978Zm0-218.152v-82.761h290.153v82.761H581.978Zm0-218.152v-82.761h290.153v88.761l-290.153-6Z"/></svg>