<svg xmlns="http://www.w3.org/2000/svg" height="20" viewBox="0 -960 960 960" width="20"><path d="M481.148-383q-54.974 0-94.105-39.15-39.13-39.151-39.13-93.937v-237.326q0-55.036 39.158-93.562Q426.23-885.5 481.205-885.5q54.974 0 93.428 38.525 38.454 38.526 38.454 93.562v237.326q0 54.786-38.482 93.937Q536.123-383 481.148-383ZM481-634.37Zm0 528.957q-18.524 0-32.056-13.531-13.531-13.531-13.531-32.056v-75.182q-95.109-12.426-161.022-78.839-65.913-66.414-82.109-159.283-3.478-20.495 10.606-36.139 14.083-15.644 37.46-15.644 14.93 0 26.66 10.598 11.731 10.598 15.209 27.793 13.759 69.916 69.065 116.773Q406.588-314.065 481-314.065q74.036 0 129.063-46.858 55.027-46.857 68.72-116.773 3.478-17.195 15.076-27.793 11.598-10.598 27.83-10.598 22.56 0 36.533 15.644 13.974 15.644 10.496 36.139-15.002 93.046-81.012 159.371t-161.119 78.751V-151q0 18.525-13.531 32.056-13.532 13.531-32.056 13.531ZM481-478q16.187 0 26.637-10.911 10.45-10.912 10.45-27.041V-753.47q0-16.13-10.663-26.58Q496.762-790.5 481-790.5q-16.187 0-27.137 10.663-10.95 10.662-10.95 26.424v237.469q0 16.126 10.95 27.035Q464.813-478 481-478Z"/></svg>