<svg xmlns="http://www.w3.org/2000/svg" height="24" viewBox="0 -960 960 960" width="24"><path d="M480-420.001q-41.922 0-70.961-29.038-29.038-29.039-29.038-70.961v-240q0-41.922 29.038-70.961 29.039-29.038 70.961-29.038t70.961 29.038q29.038 29.039 29.038 70.961v240q0 41.922-29.038 70.961-29.039 29.038-70.961 29.038ZM480-640Zm0 509.999q-12.769 0-21.384-8.615T450.001-160v-101.848q-90.692-10.692-154.154-73.961-63.461-63.269-73.999-152.346-1.847-12.769 7.076-22.307Q237.847-520 252.462-520q10.538 0 18.846 8 8.307 8 10.538 19.538 9.923 73.077 66.077 122.769Q404.077-320 480-320t132.077-49.693q56.154-49.692 66.077-122.769Q680.385-504 688.807-512q8.423-8 19.346-8 14 0 22.923 9.538 8.923 9.538 7.076 22.307-10.538 89.077-73.999 152.346-63.462 63.269-154.154 73.961V-160q0 12.769-8.615 21.384T480-130.001ZM480-480q17 0 28.5-11.5T520-520v-240q0-17-11.5-28.5T480-800q-17 0-28.5 11.5T440-760v240q0 17 11.5 28.5T480-480Z"/></svg>