<svg xmlns="http://www.w3.org/2000/svg" height="20" viewBox="0 -960 960 960" width="20"><path d="M164-359.615q-9.231 0-16.308-6.715t-7.077-16.308q0-9.593 7.077-16.67 7.077-7.077 16.308-7.077h329.692L133.077-768l23.308-23.308L806.692-140l-23.307 23.308-242.924-242.923H164Zm569.195-47.77q5.051 0 8.39 3.28 3.338 3.279 3.338 8.294v23.148q0 4.202-4.26 8.125t-10.509 3.923h-21.077l12.461 14v-49.077q0-5.067 3.303-8.38 3.303-3.313 8.354-3.313Zm71.385 0q5.051 0 8.389 3.276 3.339 3.275 3.339 8.285v23.122q0 5.01-3.303 8.548-3.302 3.539-8.354 3.539-5.051 0-8.389-3.276-3.339-3.275-3.339-8.285v-23.122q0-5.01 3.303-8.548 3.303-3.539 8.354-3.539Zm-168.272 0h25.538q5.067 0 8.38 3.313 3.312 3.313 3.312 8.38v26.538l-37.23-38.231Zm96.959-63.384q-5.052 0-8.39-3.313-3.339-3.313-3.339-8.38v-59.307q0-26.923-21.23-50.231-21.231-23.308-50.77-23.308h-48q-39.38 0-67.382-29.231-28.002-29.232-28.002-70.336 0-38.532 28.002-65.367 28.002-26.835 67.382-26.835 5.067 0 8.38 3.302 3.313 3.303 3.313 8.354 0 5.052-3.313 8.39-3.313 3.338-8.38 3.338-30 0-51 20.086t-21 48.692q0 28.607 21 52.415 21 23.807 51 23.807h48q40.77 0 68.077 32.308 27.308 32.308 27.308 75.385v48.538q0 5.067-3.303 8.38-3.302 3.313-8.353 3.313Zm71.384 0q-5.051 0-8.389-3.408-3.339-3.407-3.339-8.618v-60.974q0-70-49-112.346-49-42.347-119-42.347-5.066 0-8.379-3.302-3.313-3.303-3.313-8.354 0-5.051 3.313-8.39 3.313-3.338 8.379-3.338 30 0 50.231-20.231t20.231-50.231q0-5.067 3.303-8.38Q701.99-804 707.041-804q5.052 0 8.39 3.312 3.339 3.313 3.339 8.38 0 26-10.77 45.808-10.769 19.807-29.769 29.784 57.154 15.87 97.615 60.639 40.462 44.769 40.462 112.308v60.974q0 5.211-3.303 8.618-3.302 3.408-8.354 3.408Z"/></svg>