<svg xmlns="http://www.w3.org/2000/svg" height="20" viewBox="0 -960 960 960" width="20"><path d="M170-367q-6 0-11-4.529-5-4.53-5-11Q154-389 159-394t11-5h344L146-768l15-15 642 643-15 15-242-242H170Zm559.953-33q3.447 0 5.747 2.223t2.3 5.623v15.692q0 2.462-3.462 5.462-3.461 3-8.538 3h-22l18 20v-44q0-3.467 2.253-5.733 2.254-2.267 5.7-2.267Zm64 0q3.447 0 5.747 2.228t2.3 5.636v15.728q0 3.408-2.253 5.908-2.254 2.5-5.7 2.5-3.447 0-5.747-2.228t-2.3-5.636v-15.728q0-3.408 2.253-5.908 2.254-2.5 5.7-2.5ZM640-400h26q3.467 0 5.733 2.267Q674-395.467 674-392v27l-34-35Zm90.047-68q-3.447 0-5.747-2.267-2.3-2.266-2.3-5.733v-63q0-26-21.231-50T650-613h-48q-36.149 0-62.075-27.351Q514-667.701 514-706.105q0-35.061 25.925-59.478Q565.851-790 602-790q3.467 0 5.733 2.253 2.267 2.254 2.267 5.7 0 3.447-2.267 5.747-2.266 2.3-5.733 2.3-30 0-51 19.811-21 19.812-21 48Q530-678 551-653.5t51 24.5h48q38 0 63 31.5t25 72.5v49q0 3.467-2.253 5.733-2.254 2.267-5.7 2.267Zm64 0q-3.447 0-5.747-2.361t-2.3-5.972V-541q0-70-49-110.5T618-692q-3.467 0-5.733-2.253-2.267-2.254-2.267-5.7 0-3.447 2.267-5.747 2.266-2.3 5.733-2.3 30 0 50-20t20-50q0-3.467 2.253-5.733 2.254-2.267 5.7-2.267 3.447 0 5.747 2.267 2.3 2.266 2.3 5.733 0 26-11 45t-30 26.87Q719-693 760.5-651T802-541v64.667q0 3.611-2.253 5.972-2.254 2.361-5.7 2.361Z"/></svg>