<svg xmlns="http://www.w3.org/2000/svg" height="20" viewBox="0 -960 960 960" width="20"><path d="m716.262-616.826-18.184 56.369q-3.426 9.62-11.99 16.234-8.565 6.614-19.015 6.614-17.418 0-27.289-13.761-9.87-13.761-3.739-31.153l89.825-257.956q5-15.695 18.07-23.761 13.07-8.065 28.346-8.065 16.367 0 29.28 8.065 12.913 8.066 17.913 23.761l89.655 258.321q5.736 16.462-4.325 30.505-10.061 14.044-28.077 14.044-11.602 0-20.242-6.66-8.641-6.66-11.881-17.558l-17.783-54.999H716.262Zm16.87-55.783h78.52l-38.405-122.608h-2.42l-37.695 122.608ZM286.304-347.566l130-194H308.348l78.217-241.39H174.218v316.522h112.086v118.868Zm-61.478 220.785q-10.827-3.13-18.305-12.336t-7.478-22.708v-206.608h-35q-36.228 0-62.027-25.799-25.8-25.799-25.8-62.028v-326.696q0-41.005 28.499-69.503 28.498-28.498 69.503-28.498h214.608q45.895 0 75.231 36.196 29.336 36.196 15.249 80.805l-39.087 124.389h37.348q42.118 0 59.342 34.152 17.224 34.153-7.559 71.327L265.565-141.172q-7.541 10.626-18.727 14.074-11.186 3.448-22.012.317Zm61.478-339.653H174.218h112.086Z"/></svg>