<svg xmlns="http://www.w3.org/2000/svg" height="20" viewBox="0 -960 960 960" width="20"><path d="m670.308-626.308-35.376 88.239q-2.091 4.402-5.781 7.235-3.689 2.834-8.954 2.834-8.518 0-12.934-6.5-4.417-6.5-.955-15.115l104.615-267.77q3.462-9.384 10.731-14.577 7.269-5.192 16.94-5.961 9.868-.769 17.522 3.654 7.653 4.423 11.884 13.807l105.779 270.238q3.067 8.455-2.04 15.339Q866.631-528 857.391-528q-5.699 0-8.974-2.258-3.275-2.257-5.032-7.281l-35.539-88.769H670.308Zm11.846-29h115.385l-57.607-149.769h-3.393l-54.385 149.769Zm-411 382.463q-6.462-1.231-10.808-7-4.346-5.77-4.346-13.616V-448h-48q-23.546 0-40.081-16.534-16.535-16.535-16.535-40.081v-262.77q0-23.546 16.535-40.081Q184.454-824 208-824h137.231q30.54 0 50.039 23 19.5 23 11.269 52.615L368-608.461h62.231q25.021 0 36.703 21.961 11.682 21.962-1.703 43.577l-171 261.385q-4.511 6.262-10.564 8.093-6.052 1.83-12.513.6Z"/></svg>