<svg xmlns="http://www.w3.org/2000/svg" height="20" viewBox="0 -960 960 960" width="20"><path d="m552.522-104.804-29.131-14.566q-20.195-9.478-24.434-30.673-4.24-21.196 10.717-38.153l66.848-76.608q6.478-7.479 15.076-11.337Q600.196-280 610.152-280q29.152 0 41.729 26.652 12.576 26.652-6.859 48.326l-26.543 29.826 29.13 14.566q20.196 9.478 24.435 30.673 4.239 21.196-10.718 38.153l-66.847 76.608Q588-7.717 579.402-3.859 570.805 0 560.848 0q-29.152 0-41.728-26.652t6.858-48.326l26.544-29.826Zm-251.001 0-29.13-14.566q-20.196-9.478-24.435-30.673-4.239-21.196 10.718-38.153l66.847-76.608q6.805-5.435 12.968-10.316 6.163-4.88 20.663-4.88 29.152 0 41.728 26.652t-6.858 48.326l-26.544 29.826 29.131 14.566q20.195 9.478 24.434 30.673 4.24 21.196-10.717 38.153l-66.848 76.608Q336.674-9.76 330.511-4.88 324.348 0 309.848 0q-29.152 0-41.729-26.652-12.576-26.652 6.859-48.326l26.543-29.826ZM302-314.087q-94.152 0-160.826-66.674Q74.5-447.435 74.5-541.587q0-84.435 55.478-148.25t136.435-76.772q32.957-56 89.913-89.239Q413.283-889.087 480-889.087q89.957 0 158.033 58t85.511 143.478q68.717 9.435 115.337 61.631Q885.5-573.783 885.5-501.587q0 77.152-55.054 132.326Q775.391-314.087 698-314.087H302Z"/></svg>