<svg xmlns="http://www.w3.org/2000/svg" height="20" viewBox="0 -960 960 960" width="20"><path d="m553-106-32-16q-19-9-23-29t10-36l69-79q6-7 14-10.5t17-3.5q27 0 38.5 24.5T640-211l-33 37 32 16q19 9 23 29t-10 36l-69 79q-6 7-14 10.5T552 0q-27 0-38.5-24.5T520-69l33-37Zm-240 0-32-16q-19-9-23-29t10-36l69-79q8-4 15-9t16-5q27 0 38.5 24.5T400-211l-33 37 32 16q19 9 23 29t-10 36l-69 79q-8 4-15 9t-16 5q-27 0-38.5-24.5T280-69l33-37Zm-11-210q-92 0-157-65T80-538q0-83 55-145.5T270-758q32-56 88-89t122-33q89 0 156 58t83 143q68 8 114.5 59T880-498q0 75-53.5 128.5T698-316H302Z"/></svg>