<svg xmlns="http://www.w3.org/2000/svg" height="20" viewBox="0 -960 960 960" width="20"><path d="M480.057-142q-59.057 0-110.69-22.1-51.634-22.1-90.4-60.867Q240.2-263.733 218.1-315.31 196-366.886 196-425.943q0-59.057 22.1-110.69 22.1-51.634 60.867-90.4 38.766-38.767 90.361-60.867Q420.922-710 480-710h19l-50-50q-4-4-4.5-7.5t3.804-7.5q4.696-4 7.696-3t6 4l56 55q8 7.636 8 17.818Q526-691 518-683l-53 54q-4 4-7 4.5t-7.696-3.5q-4.304-4-3.804-7.682.5-3.682 3.5-6.318l48-48h-18q-109 0-186.5 77.5T216-426q0 109 77.5 186.5T480-162q109 0 186.5-77.5T744-426q0-4.25 2.825-7.125 2.824-2.875 7-2.875 4.175 0 7.175 2.875t3 7.125q0 59.078-22.1 110.672-22.1 51.595-60.867 90.361Q642.267-186.2 590.69-164.1 539.114-142 480.057-142ZM528-346h-96q-3.467 0-5.733-2.253-2.267-2.254-2.267-5.7 0-3.447 2.267-5.747 2.266-2.3 5.733-2.3h88v-50h-87.65q-3.417 0-5.883-2.267Q424-416.533 424-420v-78q0-3.467 2.246-5.733 2.246-2.267 5.68-2.267h95.706q3.435 0 5.901 2.253 2.467 2.254 2.467 5.7 0 3.447-2.267 5.747-2.266 2.3-5.733 2.3h-88v50h87.651q3.416 0 5.882 2.267Q536-435.467 536-432v78q0 3.4-2.3 5.7-2.3 2.3-5.7 2.3Z"/></svg>