<svg xmlns="http://www.w3.org/2000/svg" height="24" viewBox="0 -960 960 960" width="24"><path d="M266-301q25 0 42.5-17.5T326-361q0-25-17.5-42.5T266-421q-25 0-42.5 17.5T206-361q0 25 17.5 42.5T266-301Zm268 0q25 0 42.5-17.5T594-361q0-25-17.5-42.5T534-421q-25 0-42.5 17.5T474-361q0 25 17.5 42.5T534-301ZM243-142v80H86v-146q-18-20-29-44.5T46-306v-402q0-45 18-83.5t68.5-65.5Q183-884 272-895.5t231-2.5q-45 46-57.5 114.5T449-655H172v120h344q35 42 99 68.5T754-449v143q0 29-11 53.5T714-208v146H557v-80H243Zm477-384q-83 0-141.5-58.5T520-726q0-83 58.5-141.5T720-926q83 0 141.5 58.5T920-726q0 83-58.5 141.5T720-526Zm-28-172h56v-160h-56v160Zm-4 107h64v-64h-64v64Z"/></svg>