<svg xmlns="http://www.w3.org/2000/svg" height="20" viewBox="0 -960 960 960" width="20"><path d="M270-309q20 0 34-14t14-34q0-20-14-34t-34-14q-20 0-34 14t-14 34q0 20 14 34t34 14Zm228 0q20 0 34-14t14-34q0-20-14-34t-34-14q-20 0-34 14t-14 34q0 20 14 34t34 14ZM243-150v72H110v-133q-23-19-35.5-46T62-318v-382q0-57 28-94t84-57.5Q230-872 312.5-877t192.5 2.08Q481-856 463.5-823T439-759q-125-3-183.5 7.5T173-711h259q-1 29 1 45t3 27H180v120h320q31 36 85.5 60.5T706-441v123q0 32.718-12.5 60.359T658-211v133H525v-72H243Zm272-297H180h408-73Zm168.788-63Q609-510 556.5-562.712t-52.5-127.5Q504-765 556.712-817.5t127.5-52.5Q759-870 811.5-817.288t52.5 127.5Q864-615 811.288-562.5t-127.5 52.5ZM654-702h64v-96h-64v96ZM252.055-268h264.222Q546-268 567-289.15T588-340v-107H180v107q0 30 21.166 51 21.167 21 50.889 21ZM432-711H173h259Zm218 132h72v-72h-72v72Z"/></svg>