<svg xmlns="http://www.w3.org/2000/svg" height="20" viewBox="0 -960 960 960" width="20"><path d="M264.091-295.693q16.832 0 28.524-11.783 11.692-11.782 11.692-28.615 0-16.832-11.783-28.524-11.782-11.692-28.615-11.692-16.832 0-28.524 11.783-11.692 11.782-11.692 28.615 0 16.832 11.783 28.524 11.782 11.692 28.615 11.692Zm240 0q16.832 0 28.524-11.783 11.692-11.782 11.692-28.615 0-16.832-11.783-28.524-11.782-11.692-28.615-11.692-16.832 0-28.524 11.783-11.692 11.782-11.692 28.615 0 16.832 11.783 28.524 11.782 11.692 28.615 11.692ZM235.384-188.001v72h-60.613v-95.923q-23.769-13.23-41.269-41.769-17.501-28.538-17.501-66V-672q0-40.461 23.039-66 23.039-25.538 67.462-39.576t110.307-17.73q65.884-3.693 151.96-.462-23.538 32.384-29.153 78.653-5.616 46.269.538 83.884H168v149.232h373.849q23.614 19.307 52.113 31.961 28.499 12.653 58.037 14.653v117.692q0 36.18-17.501 65.359-17.5 29.18-41.269 42.41v95.923h-60.613v-72H235.384Zm440.711-328.308q-66.71 0-113.248-46.75-46.538-46.75-46.538-113.46 0-66.711 46.75-113.249t113.46-46.538q66.711 0 113.249 46.75t46.538 113.461q0 66.71-46.75 113.248-46.75 46.538-113.461 46.538ZM656.615-684h43.384v-75.999h-43.384V-684Zm-1.539 92.923h46.462v-46.462h-46.462v46.462Z"/></svg>