<svg xmlns="http://www.w3.org/2000/svg" height="20" viewBox="0 -960 960 960" width="20"><path d="M264.181-303.385q13.665 0 23.05-9.565 9.384-9.566 9.384-23.231 0-13.665-9.565-23.05-9.566-9.384-23.231-9.384-13.665 0-23.05 9.565-9.384 9.566-9.384 23.231 0 13.665 9.565 23.05 9.566 9.384 23.231 9.384Zm240 0q13.665 0 23.05-9.565 9.384-9.566 9.384-23.231 0-13.665-9.565-23.05-9.566-9.384-23.231-9.384-13.665 0-23.05 9.565-9.384 9.566-9.384 23.231 0 13.665 9.565 23.05 9.566 9.384 23.231 9.384ZM230.769-208v72h-25.231v-82.846Q181-226.308 158.5-256.385q-22.5-30.076-22.5-71V-672q0-38.923 24.577-61 24.577-22.077 68.423-32.654 43.846-10.577 105.115-11.962 61.269-1.384 135.423 1.157-4.113 3.345-9.941 14.517-5.828 11.173-9.059 17.942-168.076-4.538-223.884 12.885-55.808 17.423-67.5 56.653h282.077q-1 19 .269 25 1.269 6.001-.192 7.001H168V-464h407.692q13.231 6.615 29.231 12.923T632-442.769v115.384q0 39.641-22.5 70.359-22.5 30.718-47.038 38.18V-136h-25.231v-72H230.769ZM527-432H168h432-73Zm141.403-96.615q-58.634 0-99.211-40.789t-40.577-99.424q0-58.634 40.789-99.211t99.424-40.577q58.634 0 99.211 40.789t40.577 99.424q0 58.634-40.789 99.211t-99.424 40.577ZM651.231-684H690v-56h-38.769v56ZM240.055-240h288.222Q558-240 579-261.15T600-312v-120H168v120q0 30 21.166 51 21.167 21 50.889 21Zm201.176-434.462H159.154h282.077Zm206.923 80.308h44.923v-44.923h-44.923v44.923Z"/></svg>