<svg xmlns="http://www.w3.org/2000/svg" height="20" viewBox="0 -960 960 960" width="20"><path d="M405-507.739ZM88.652-184.652v-467.305L384-873.044l246.695 186.652q-29.783 3.13-58.218 13.087-28.435 9.957-53.957 24.609L384-750.825 186.653-602.391v319.738H386.26q9 26.864 23.195 51.106 14.196 24.243 32.718 46.895H88.652Zm409.957-25.391q-33.566-36.131-52.914-80.196-19.347-44.065-19.347-93.761 0-102.37 71.657-174.011 71.656-71.641 173.485-71.641 102.771 0 174.467 71.641Q917.652-486.37 917.652-384q0 52.696-23.413 99.261t-59.413 82.696l-38.783-42.783q26.739-28 44.522-63.37 17.783-35.369 17.783-75.804 0-77.174-54.587-131.761-54.587-54.587-132.195-54.587-76.683 0-131.298 54.403-54.616 54.403-54.616 132.414 0 36.966 14.218 71.053 14.217 34.087 40.087 61.087l-41.348 41.348Zm68.565-67.435q-20.565-21.696-32.696-49.058-12.13-27.362-12.13-57.554 0-62.471 43.876-106.017 43.876-43.545 105.49-43.545 62.547 0 106.243 43.492 43.695 43.493 43.695 106.16 0 32.696-13.63 61.044-13.631 28.347-37.196 50.478l-39.913-43.913q14.883-14.2 23.159-31.414 8.276-17.214 8.276-36.34 0-37.885-26.079-64.044t-63.761-26.159q-37.682 0-64.269 26.216-26.587 26.215-26.587 64.183 0 18.079 7 34.601t19.87 30.522l-41.348 41.348Zm75.174 139.13v-201.826q-11-7.468-17.5-18.582t-6.5-25.474q0-22.756 15.413-38.089 15.413-15.333 37.751-15.333 22.862 0 38.501 15.333t15.639 38.089q0 14.36-6.782 25.643-6.783 11.283-17.218 18.413v201.826h-59.304Z"/></svg>