<svg xmlns="http://www.w3.org/2000/svg" height="24" viewBox="0 -960 960 960" width="24"><path d="M400-507.739ZM72.652-152.652v-491.305L400-889.044l258.695 193.652q-34.783 2.13-66.718 11.087-31.935 8.957-61.457 24.609L400-756.825 178.653-590.391v331.738H360.26q9 29.348 23.195 55.848 14.196 26.501 32.718 50.153H72.652Zm419.957-19.391q-35.566-39.131-56.914-87.196Q414.348-307.304 414.348-360q0-111.37 77.629-188.511 77.63-77.141 187.946-77.141 111.338 0 188.534 77.141Q945.652-471.37 945.652-360q0 52.696-20.413 100.761t-57.413 86.196l-49.783-49.783q26.739-29 41.522-63.87 14.783-34.869 14.783-73.304 0-81.174-56.587-137.761-56.587-56.587-137.744-56.587-80.191 0-137.278 56.587Q485.652-441.174 485.652-360q0 38.435 15.218 73.522 15.217 35.087 42.087 64.087l-50.348 50.348Zm71.565-70.435q-22.565-24.696-36.196-54.635-13.63-29.94-13.63-62.977 0-69.171 48.638-117.367 48.638-48.195 116.939-48.195 69.336 0 117.532 48.142 48.195 48.143 48.195 117.51 0 32.696-12.63 62.544-12.631 29.847-36.196 53.978l-50.913-49.913q13.435-14 20.935-30.957 7.5-16.956 7.5-35.797 0-39.565-27.305-66.884-27.304-27.319-66.76-27.319-39.457 0-67.044 27.424-27.587 27.424-27.587 67.141 0 18.913 8 35.935 8 17.022 20.87 31.022l-50.348 50.348Zm80.174 128.13v-202.826q-9-8.468-14.5-19.582t-5.5-23.474q0-23.596 16.413-39.509T680-415.652q23.374 0 39.513 15.913t16.139 39.509q0 12.36-4.782 23.643-4.783 11.283-15.218 19.413v202.826h-71.304Z"/></svg>