<svg xmlns="http://www.w3.org/2000/svg" height="24" viewBox="0 -960 960 960" width="24"><path d="M480-480Zm.034 299.218q-123.947 0-211.6-87.618-87.652-87.618-87.652-211.566 0-123.947 87.618-211.6 87.618-87.652 211.566-87.652 123.947 0 211.6 87.618 87.652 87.618 87.652 211.566 0 123.947-87.618 211.6-87.618 87.652-211.566 87.652Zm-.042-106.001q80.182 0 136.703-56.514 56.522-56.513 56.522-136.695 0-80.182-56.514-136.703-56.513-56.522-136.695-56.522-80.182 0-136.703 56.514-56.522 56.513-56.522 136.695 0 80.182 56.514 136.703 56.513 56.522 136.695 56.522Z"/></svg>