<svg xmlns="http://www.w3.org/2000/svg" height="24" viewBox="0 -960 960 960" width="24"><path d="M160-200v-640h640v329.923q-7.878-.462-15.362-.577-7.484-.115-15.407-.115h-220q-40.077 0-75.116 13.192-35.038 13.192-64.038 37.577H300v120h33.769q-4.308 14.615-5.961 29.5-1.654 14.885-1.654 30.5 0 20.883 4.538 40.788 4.539 19.905 12.077 39.212H160Zm140-380h120v-120H300v120Zm260 420q-49.5 0-84.75-35.25T440-280q0-49.5 35.25-84.75T560-400h72.308v40H560q-33 0-56.5 23.5T480-280q0 33 23.5 56.5T560-200h72.308v40H560Zm-20-420h120v-120H540v120Zm20 320v-40h240v40H560Zm167.692 100v-40H800q33 0 56.5-23.5T880-280q0-33-23.5-56.5T800-360h-72.308v-40H800q49.5 0 84.75 34.946T920-279.755q0 49.601-35.25 84.678T800-160h-72.308Z"/></svg>