<svg xmlns="http://www.w3.org/2000/svg" height="20" viewBox="0 -960 960 960" width="20"><path d="M124.782-172.782v-710.436h710.436v388.262q-9.956-2.696-21.044-3.609-11.087-.913-22.174-.913H555q-25.847 0-49.25 3.956-23.402 3.957-48.271 11H283.478v153.044h26.521q-5.565 20.261-9.13 40.409-3.565 20.148-3.565 40.635 0 21.957 3.217 41.587 3.217 19.631 6.522 36.065H124.782Zm158.696-398.696h153.044v-153.044H283.478v153.044ZM551.616-61.52q-75.834 0-129.073-52.957-53.239-52.956-53.239-129.457 0-76.5 52.956-129.739 52.957-53.24 129.356-53.24H636v86.697h-84q-39.6 0-67.8 28.2-28.2 28.2-28.2 67.8 0 39.6 28.2 67.8 28.2 28.2 67.8 28.2h84v86.696h-84.384Zm-28.138-509.958h153.044v-153.044H523.478v153.044ZM564-200.868v-86.697h216v86.697H564ZM708-61.52v-86.696h84q39.6 0 67.8-28.2 28.2-28.2 28.2-67.8 0-39.6-28.2-67.8-28.2-28.2-67.8-28.2h-84v-86.697h84.384q75.834 0 129.073 53.272 53.239 53.273 53.239 130.03 0 75.612-53.317 128.852Q868.062-61.52 792.384-61.52H708Z"/></svg>