<svg xmlns="http://www.w3.org/2000/svg" height="24" viewBox="0 -960 960 960" width="24"><path d="M140.001-180.001v-679.998h679.998v347.076q-7.212-1.231-14.063-1.846-6.85-.615-14.783-.615H760V-800H200v560h130.924q3.23 16.615 7.999 31.422 4.77 14.808 12.308 28.577h-211.23ZM200-280v40-560 520Zm90.001-50.001h42.846q9.154-42.461 32.307-78.576 23.154-36.115 57.846-61.422H290.001v139.998Zm0-240h139.998v-139.998H290.001v139.998Zm269.999 430q-57.749 0-98.874-41.125-41.125-41.125-41.125-98.874 0-57.749 41.125-98.874 41.125-41.125 98.874-41.125h76.154V-360H560q-33 0-56.5 23.5T480-280q0 33 23.5 56.5T560-200h76.154v59.999H560Zm-29.999-430h139.998v-139.998H530.001v139.998Zm29.999 320v-59.998h240v59.998H560Zm163.846 110V-200H800q33 0 56.5-23.5T880-280q0-33-23.5-56.5T800-360h-76.154v-59.999H800q57.749 0 98.874 40.723 41.125 40.723 41.125 99.399 0 57.799-41.125 98.838-41.125 41.038-98.874 41.038h-76.154Z"/></svg>