<svg xmlns="http://www.w3.org/2000/svg" height="20" viewBox="0 -960 960 960" width="20"><path d="M25-228v-409Q7-650-2-668.69q-9-18.689-9-42.31 0-27.202 27.5-71.101T84-863q40 37 67.5 80.899T179-711q0 24-9 42.5T143-637v174h26v-56q0-36 21-58t42-26h8q-10-19-16.5-42.5T217-687q0-51.481 24.5-95.241Q266-826 309-852l103-60q32-19 68-19t68 19l103 60q43 26 67.5 69.759T743-687q0 18-6.5 41.5T720-603h7q22 4 43 25.5t21 58.5v56h26v-174q-18-13-27-31.69-9-18.689-9-42.31 0-27.202 27-71.101T876-863q40 37 67.5 80.899T971-711q0 24-9.5 42.5T935-637v409q0 54.65-37.675 92.325Q859.65-98 805-98H579q-24.3 0-41.65-17.35Q520-132.7 520-157v-132q0-16.4-11.8-28.2T480-329q-16.4 0-28.2 11.8T440-289v132q0 24.3-17.35 41.65Q405.3-98 381-98H155q-54.65 0-92.325-37.675Q25-173.35 25-228Zm382-386h146q30.316 0 51.158-21.144Q625-656.287 625-687.042 625-707 615-725t-27-27l-108-64-108 64q-17 9-27 26.83T335-687q0 30.737 20.842 51.868Q376.684-614 407-614ZM143-216h179v-73q0-65.833 45.618-111.917Q413.235-447 480.118-447 547-447 592.5-400.917 638-354.833 638-289v73h179v-129h-14q-54.65 0-92.325-37.675Q673-420.35 673-475v-21H287v21q0 54.65-37.675 92.325Q211.65-345 157-345h-14v129Zm337-280Zm0-118Zm0 11Z"/></svg>