<svg xmlns="http://www.w3.org/2000/svg" height="20" viewBox="0 -960 960 960" width="20"><path d="m759.831-87.172-87.048-85.61h-54.565q-20.387 0-34.694-14.306-14.307-14.307-14.307-34.694v-54.566L270.783-575.347v280.564h141.433q25.653 0 43.327 17.674t17.674 43.327q0 25.652-17.674 43.326t-43.327 17.674H137.782q-25.652 0-43.326-17.956-17.674-17.957-17.674-44.74 0-24.522 17.391-41.913 17.392-17.392 41.914-17.392h36.695v-378.565l-69.526-69.526q-12.822-12.822-12.54-28.452.283-15.631 12.979-28.326 12.696-12.696 28.326-12.696 15.631 0 28.327 12.696l656.827 656.827q12.696 12.696 12.696 27.826t-12.696 27.827q-12.696 12.695-28.609 12.695-15.913 0-28.735-12.695Zm123.387-120.915L569.217-505.784v-62.432q0-20.388 14.295-34.694 14.295-14.307 34.665-14.307h215.758q20.37 0 34.827 14.307 14.456 14.306 14.456 34.694v360.129Zm-497.434-481.13-98.002-98.001h498.436q20.387 0 34.694 14.246 14.306 14.246 14.306 34.544 0 20.298-14.306 34.754-14.307 14.457-34.694 14.457H385.784Z"/></svg>