<svg xmlns="http://www.w3.org/2000/svg" height="24" viewBox="0 -960 960 960" width="24"><path d="M783.231-119.384 702.615-200H602.308q-13.731 0-23.02-9.288Q570-218.577 570-232.307v-100.308l-330-330V-260h189.231q12.5 0 21.25 8.79 8.75 8.789 8.75 21.346 0 12.556-8.75 21.21-8.75 8.654-21.25 8.654H150q-12.5 0-21.25-8.789-8.75-8.79-8.75-21.347 0-12.556 8.75-21.21Q137.5-260 150-260h50v-442.615l-75.231-75.231q-5.615-5.615-6-13.769-.385-8.154 6-14.539t14.154-6.385q7.769 0 14.154 6.385l658.462 658.462q5.615 5.615 6 13.769.384 8.154-6 14.539Q805.154-113 797.385-113q-7.77 0-14.154-6.384Zm57.538-114.462L570-503.231v-89.077q0-13.731 9.288-23.019 9.289-9.288 23.02-9.288h206.154q13.731 0 23.019 9.288 9.288 9.288 9.288 23.019v358.462ZM353.231-720l-40-40H780q8.5 0 14.25 5.758 5.75 5.757 5.75 14.269 0 8.511-5.75 14.242Q788.5-720 780-720H353.231Z"/></svg>