<svg xmlns="http://www.w3.org/2000/svg" height="24" viewBox="0 -960 960 960" width="24"><path d="M292-276q-57-52-88.5-115.5T172-520.723q0-128.032 89.833-217.655Q351.667-828 480-828q103 0 187.5 63.5T777-601l38.316 151.92Q819-435 810-423.5q-9 11.5-24 11.5h-78v140q0 24.75-17.625 42.375T648-212H548v66q0 5.95-4.035 9.975-4.035 4.025-10 4.025T524-136.025q-4-4.025-4-9.975v-63.505q0-13.495 8.625-21.995Q537.25-240 550-240h98q14 0 23-9t9-23v-138q0-12.75 8.625-21.375T710-440h78l-38-155q-23-92-99-148.5T480-800q-116 0-198 81.291Q200-637.417 200-521q0 59.744 24.5 113.513 24.5 53.769 69.5 95.59L320-288v142q0 5.95-4.035 9.975-4.035 4.025-10 4.025T296-136.025q-4-4.025-4-9.975v-130Zm202-190Zm-24.035 136q11.035 0 18.535-7.465t7.5-18.5q0-11.035-7.465-18.535t-18.5-7.5Q459-382 451.5-374.535t-7.5 18.5q0 11.035 7.465 18.535t18.5 7.5Zm2.938-317Q502-647 521-630.535T540-588q0 15.644-8.5 29.822Q523-544 496-516q-16 17-25.5 34T458-448q-1 5 2.939 9.5t9.963 4.5q5.098 0 9.098-3.5 4-3.5 6-9.5 3-13 11.5-26.5T521-504q27-30 37-47.5t10-36.5q0-37-26.5-61.5T473-674q-26.966 0-50.983 12.5Q398-649 383-626q-3 5-1 10t7 7q5 2 10 1t9-6q12-16 29.194-24.5 17.193-8.5 35.709-8.5Z"/></svg>