<svg xmlns="http://www.w3.org/2000/svg" height="24" viewBox="0 -960 960 960" width="24"><path d="M488-469Zm0 0Zm0 0Zm0 0ZM829 6 13-810l67-67 408 408L896-61 829 6Zm-45-293-97-97q4-14 5.5-27.875T694-440q0-39-13.104-75.605Q667.792-552.21 643-581q-20 9-41 14t-41 5q-58 0-106-33t-69-87l-87-89q42.119-40.946 92.059-76.473Q441-883 500-912v164q0 25.5 17.698 42.75Q535.395-688 561-688q13.574 0 25.262-6.133Q597.951-700.267 607-711l28-35q86 49 135.5 131.5T820-440q0 42-9.5 80T784-287ZM480-100q-142.375 0-241.188-98.812Q140-297.625 140-440q0-71 27-139.5T245-712l89 89q-33 45-50.5 90.5T266-440q0 31 8 59.5t25 54.5q6-25 18.5-46.5T349-413l97-98 90 90-99 97q-8.13 8.186-12.565 18.605Q420-294.977 420-283.814 420-260 437.677-243t42.5 17Q505-226 522.5-243.103 540-260.205 540-284q0-11-4.5-21.5T523-324l55-55 160 160q-47.647 55.325-113.823 87.162Q558-100 480-100Z"/></svg>