<svg xmlns="http://www.w3.org/2000/svg" height="20" viewBox="0 -960 960 960" width="20"><path d="M484.522-473.782Zm0 0Zm0 0Zm0 0ZM789.479-54.52 66.259-778.74l56.653-56.652 361.61 361.61 361.61 362.61-56.653 56.652Zm-36.566-253.306-76.348-76.348q3.434-11.739 4.086-23.625.653-11.886.653-24.201 0-44.782-14.45-89.82-14.45-45.037-41.68-83.527-17 8.739-34.935 13.891-17.935 5.152-38.239 5.152-49.739 0-90.652-27.478-40.913-27.478-58.827-75.086-3.478 4.608-7.521 8.934-4.043 4.326-7.521 8.369l-67.958-69.087q36.024-38.927 78.795-74.833 42.771-35.907 92.989-66.603V-745q0 25.195 17.72 42.945T552-684.305q14.498 0 26.844-5.945 12.345-5.945 20.677-17.098l21.653-27.348Q691.957-692.74 735.631-608q43.674 84.739 43.674 176 0 33.391-7.131 64.652-7.13 31.261-19.261 59.522ZM480-132.695q-124.734 0-212.019-87.286Q180.695-307.266 180.695-432q0-62.13 23.848-126.326t69.544-126.457l69.087 70.088q-31.173 45.174-47.825 90.065-16.653 44.891-16.653 92.63 0 34.13 12.152 65.455 12.152 31.326 34.717 58.239-.435-2.174-.935-4.913-.5-2.739-.5-4.913 3.391-23.043 13.674-43.369t25.022-36.065l91.608-105.869 67.653 68.653-87.174 103.304q-7.378 8.409-11.493 18.385t-4.115 21.807q0 25.373 17.708 42.981 17.709 17.609 43.087 17.609 25.378 0 42.987-17.667 17.608-17.666 17.608-43.028 0-11.174-3.869-21.761-3.87-10.587-11.174-18.891l52.087-48.087 133.609 134.609q-40.496 52.314-100.574 82.57Q550.696-132.695 480-132.695Z"/></svg>