<svg xmlns="http://www.w3.org/2000/svg" height="20" viewBox="0 -960 960 960" width="20"><path d="M460.216-115.478q1.566 23.218-12.761 36.326-14.326 13.11-36.544 7.848-137.346-33.261-228.933-131.956-91.587-98.695-112.805-249.956-3.696-22.087 11.478-36.826 15.175-14.74 37.827-11.609 183 23 256.608 112.891 73.608 89.89 85.13 273.282ZM447.652-872.74q12.826-17.522 33.631-18.088 20.804-.565 33.63 16.957 55.696 72.826 94.74 165.718 39.043 92.891 42.609 142.457-56.088 22.565-97.501 55.173-41.413 32.609-73.196 75.957-37.609-49.044-81.674-79.957-44.065-30.912-90.153-51.173 4.696-55.783 43.305-144.566t94.609-162.478Zm396.305 371.089q23.217-3.131 38.174 11.891t10.696 37.11q-23.348 153.956-108.435 248.564-85.087 94.609-216.87 129.435 2-64.218-6.022-131.261-8.021-67.044-20.934-117.914 36.13-66.869 101.63-113.782t201.761-64.043Z"/></svg>