<svg xmlns="http://www.w3.org/2000/svg" height="20" viewBox="0 -960 960 960" width="20"><path d="M647.305-25.39q-16.996 0-29.324-12.268-12.329-12.268-12.329-29.174 0-17.472 12.329-29.667 12.328-12.196 29.324-12.196h91.043v-48h-90.78q-16.959 0-29.437-12.268-12.479-12.268-12.479-29.174 0-17.472 12.329-29.667Q630.309-240 647.305-240h91.043v-48h-90.78q-16.959 0-29.437-12.268-12.479-12.268-12.479-29.174 0-17.471 12.329-29.667 12.328-12.196 29.324-12.196h91.043v-48h-90.78q-16.959 0-29.437-12.268-12.479-12.268-12.479-29.174 0-17.471 12.329-29.667 12.328-12.196 29.324-12.196h91.043v-48h-90.78q-16.959 0-29.437-12.268-12.479-12.268-12.479-29.174 0-17.471 12.329-29.667 12.328-12.196 29.324-12.196h91.043v-48h-90.78q-16.959 0-29.437-12.268-12.479-12.267-12.479-29.174 0-17.471 12.329-29.667 12.328-12.196 29.324-12.196h150.347q32.527 0 55.09 22.563 22.563 22.563 22.563 55.09v584.524q0 31.961-22.563 54.807-22.563 22.846-55.09 22.846H647.305ZM336-380.35q63.782 0 108.543-58.761 44.761-58.76 44.761-142.542 0-83.783-44.761-142.543Q399.782-782.956 336-782.956q-63.782 0-108.543 58.761-44.761 58.76-44.761 142.543 0 83.782 44.761 142.542Q272.218-380.349 336-380.349Zm0 354.959q-46.783 0-80.392-33.305-33.609-33.304-28.609-77.392l21.131-166.348q-72-31.826-117.718-107.239-45.717-75.413-45.717-171.978 0-125.088 73.392-212.197Q231.478-880.957 336-880.957t177.913 87.108q73.392 87.109 73.392 212.197 0 96.565-45.717 171.978-45.718 75.413-117.718 107.239l21.131 166.914q5 44.087-29.174 77.109Q381.652-25.39 336-25.39Z"/></svg>