<svg xmlns="http://www.w3.org/2000/svg" height="20" viewBox="0 -960 960 960" width="20"><path d="M183.827-49.39q-40.74 0-69.371-28.631-28.63-28.631-28.63-69.37v-558.478q0-40.74 28.63-69.37 28.631-28.631 69.371-28.631h40.652v-29.653q0-20 14-34t34-14h144q20 0 34 14t14 34v29.653h41.217q37.348 0 63.435 25.804 26.087 25.805 26.087 63.153v24h180.955q41.305 0 69.653 28.348 28.348 28.349 28.348 69.654v331.997q0 41.305-28.348 69.653-28.348 28.348-69.653 28.348H595.218v24q0 37.348-26.087 63.436-26.087 26.087-63.435 26.087H183.827Zm233.435-250.48h22.999q10.826 0 17.522-6.979 6.696-6.978 6.696-17.804v-22.999q0-10.827-6.979-17.522-6.978-6.696-17.804-6.696h-23q-10.826 0-17.522 6.978-6.695 6.979-6.695 17.805v22.999q0 10.826 6.978 17.522 6.978 6.696 17.805 6.696Zm0-181.52h22.999q10.826 0 17.522-6.978 6.696-6.979 6.696-17.805v-22.999q0-10.827-6.979-17.522-6.978-6.696-17.804-6.696h-23q-10.826 0-17.522 6.978-6.695 6.979-6.695 17.805v22.999q0 10.826 6.978 17.522 6.978 6.696 17.805 6.696Zm135.521 181.52h22.999q10.827 0 17.522-6.979Q600-313.827 600-324.653v-22.999q0-10.827-6.978-17.522-6.979-6.696-17.805-6.696h-22.999q-10.827 0-17.522 6.978Q528-357.913 528-347.087v22.999q0 10.826 6.978 17.522 6.979 6.696 17.805 6.696Zm0-181.52h22.999q10.827 0 17.522-6.978Q600-495.347 600-506.173v-22.999q0-10.827-6.978-17.522-6.979-6.696-17.805-6.696h-22.999q-10.827 0-17.522 6.978Q528-539.433 528-528.607v22.999q0 10.826 6.978 17.522 6.979 6.696 17.805 6.696Zm135.521 181.52h23q10.826 0 17.522-6.979 6.695-6.978 6.695-17.804v-22.999q0-10.827-6.978-17.522-6.978-6.696-17.805-6.696h-22.999q-10.826 0-17.522 6.978-6.696 6.979-6.696 17.805v22.999q0 10.826 6.979 17.522 6.978 6.696 17.804 6.696Zm0-181.52h23q10.826 0 17.522-6.978 6.695-6.979 6.695-17.805v-22.999q0-10.827-6.978-17.522-6.978-6.696-17.805-6.696h-22.999q-10.826 0-17.522 6.978-6.696 6.979-6.696 17.805v22.999q0 10.826 6.979 17.522 6.978 6.696 17.804 6.696Z"/></svg>