<svg xmlns="http://www.w3.org/2000/svg" height="24" viewBox="0 -960 960 960" width="24"><path d="M188-40q-52 0-89-37t-37-89v-569q0-52 37-89t89-37h27v-50q0-17 11.5-28.5T255-951h160q17 0 28.5 11.5T455-911v50h28q46 0 78.5 32t32.5 78h178q53 0 89.5 36.5T898-625v348q0 53-36.5 89.5T772-151H594q0 46-32.5 78.5T483-40H188Zm219-261h17q13 0 22-9.5t9-22.5v-17q0-13-9.5-22t-22.5-9h-17q-13 0-22 9.5t-9 22.5v17q0 13 9.5 22t22.5 9Zm0-219h17q13 0 22-9.5t9-22.5v-17q0-13-9.5-22t-22.5-9h-17q-13 0-22 9.5t-9 22.5v17q0 13 9.5 22t22.5 9Zm145 219h17q13 0 22-9.5t9-22.5v-17q0-13-9.5-22t-22.5-9h-17q-13 0-22 9.5t-9 22.5v17q0 13 9.5 22t22.5 9Zm0-219h17q13 0 22-9.5t9-22.5v-17q0-13-9.5-22t-22.5-9h-17q-13 0-22 9.5t-9 22.5v17q0 13 9.5 22t22.5 9Zm145 219h17q13 0 22-9.5t9-22.5v-17q0-13-9.5-22t-22.5-9h-17q-13 0-22 9.5t-9 22.5v17q0 13 9.5 22t22.5 9Zm0-219h17q13 0 22-9.5t9-22.5v-17q0-13-9.5-22t-22.5-9h-17q-13 0-22 9.5t-9 22.5v17q0 13 9.5 22t22.5 9Z"/></svg>