<svg xmlns="http://www.w3.org/2000/svg" height="24" viewBox="0 -960 960 960" width="24"><path d="M175.827-57.39q-43.74 0-74.871-31.131-31.13-31.131-31.13-74.87v-582.478q0-43.74 31.13-74.87 31.131-31.131 74.871-31.131h32.652v-45.653q0-17 11.5-28.5t28.5-11.5h160q17 0 28.5 11.5t11.5 28.5v45.653h33.217q40.348 0 68.935 28.304 28.587 28.305 28.587 68.653h204.955q44.305 0 75.153 30.848 30.848 30.849 30.848 75.154v387.997q0 44.305-30.848 75.153-30.848 30.848-75.153 30.848H579.218q0 40.348-28.587 68.936-28.587 28.587-68.935 28.587H175.827Zm219.435-234.48h26.999q10.826 0 18.522-7.979 7.696-7.978 7.696-18.804v-26.999q0-10.827-7.979-18.522-7.978-7.696-18.804-7.696h-27q-10.826 0-18.522 7.978-7.695 7.979-7.695 18.805v26.999q0 10.826 7.978 18.522 7.978 7.696 18.805 7.696Zm0-245.52h26.999q10.826 0 18.522-7.979 7.696-7.978 7.696-18.804v-26.999q0-10.827-7.979-18.522-7.978-7.696-18.804-7.696h-27q-10.826 0-18.522 7.978-7.695 7.979-7.695 18.805v26.999q0 10.826 7.978 18.522 7.978 7.696 18.805 7.696Zm151.521 245.52h26.999q10.827 0 18.522-7.979Q600-307.827 600-318.653v-26.999q0-10.827-7.978-18.522-7.979-7.696-18.805-7.696h-26.999q-10.827 0-18.522 7.978Q520-355.913 520-345.087v26.999q0 10.826 7.978 18.522 7.979 7.696 18.805 7.696Zm0-245.52h26.999q10.827 0 18.522-7.979Q600-553.347 600-564.173v-26.999q0-10.827-7.978-18.522-7.979-7.696-18.805-7.696h-26.999q-10.827 0-18.522 7.978Q520-601.433 520-590.607v26.999q0 10.826 7.978 18.522 7.979 7.696 18.805 7.696Zm151.521 245.52h27q10.826 0 18.522-7.979 7.695-7.978 7.695-18.804v-26.999q0-10.827-7.978-18.522-7.978-7.696-18.805-7.696h-26.999q-10.826 0-18.522 7.978-7.696 7.979-7.696 18.805v26.999q0 10.826 7.979 18.522 7.978 7.696 18.804 7.696Zm0-245.52h27q10.826 0 18.522-7.979 7.695-7.978 7.695-18.804v-26.999q0-10.827-7.978-18.522-7.978-7.696-18.805-7.696h-26.999q-10.826 0-18.522 7.978-7.696 7.979-7.696 18.805v26.999q0 10.826 7.979 18.522 7.978 7.696 18.804 7.696Z"/></svg>