<svg xmlns="http://www.w3.org/2000/svg" height="24" viewBox="0 -960 960 960" width="24"><path d="M287.692-135.384q-13.731 0-23.019-9.289-9.289-9.288-9.289-23.019v-240q0-13.731 9.289-23.02Q273.961-440 287.692-440H320v-146.308q0-4.615-1.539-8.846-1.538-4.231-5.384-8.077l-75.385-75.154q-18.385-18.384-18.769-45.846-.385-27.462 18.769-45.846l72.692-72.693q5.847-5.846 13.885-5.461 8.039.385 13.885 6.069t5.846 13.5q0 7.816-5.846 13.662l-72.923 72.692q-6.923 7.692-6.539 18.077.385 10.385 7.308 17.308l74.846 74.615q8.692 8.692 13.923 20.933T360-586.077v146.387h32.308q13.731 0 23.019 9.2 9.288 9.199 9.288 22.798v240q0 13.731-9.288 23.019-9.288 9.289-23.019 9.289H287.692Zm280 0q-13.731 0-23.019-9.289-9.288-9.288-9.288-23.019v-240q0-13.731 9.288-23.02Q553.961-440 567.692-440H600v-121.923q-44.308-7.077-74.462-41.516-30.153-34.438-30.153-81.177 0-52.154 36.23-88.384 36.231-36.231 88.385-36.231T708.385-773q36.231 36.23 36.231 88.384 0 46.739-30.154 81.177Q684.308-569 640-561.923V-440h32.443q13.788 0 22.98 9.288 9.193 9.289 9.193 23.02v240q0 13.731-9.289 23.019-9.288 9.289-23.019 9.289H567.692ZM620.286-600q35.022 0 59.676-24.94 24.653-24.94 24.653-59.961 0-35.022-24.779-59.676-24.78-24.654-59.577-24.654t-59.836 24.78q-25.038 24.78-25.038 59.577t24.94 59.835Q585.264-600 620.286-600Z"/></svg>