<svg xmlns="http://www.w3.org/2000/svg" height="20" viewBox="0 -960 960 960" width="20"><path d="M275.692-151.384q-12.031 0-20.169-8.139-8.139-8.138-8.139-20.169v-248q0-12.031 8.139-20.17Q263.661-456 275.692-456H316v-115.308q0-4.615-1.539-8.846-1.538-4.231-5.384-8.077l-79.385-80.154q-16.385-16.384-16.769-39.846-.385-23.462 16.769-39.846l89.692-89.693q4.513-4.846 10.718-4.461 6.206.385 11.052 5.069Q346-832.478 346-826.495q0 5.982-4.846 10.495l-88.923 89.692q-6.923 7.692-6.539 18.077.385 10.385 7.308 17.308l77.846 78.615q8.692 8.692 12.923 18.977Q348-583.047 348-572.077v116.387h40.308q12.031 0 20.169 8.05 8.138 8.049 8.138 19.948v248q0 12.031-8.138 20.169-8.138 8.139-20.169 8.139H275.692Zm296 0q-12.031 0-20.169-8.139-8.138-8.138-8.138-20.169v-248q0-12.031 8.138-20.17Q559.661-456 571.692-456H612v-121.923q-39.308-5.077-65.962-35.458-26.653-30.38-26.653-71.611 0-45.778 31.23-77.008 31.231-31.231 77.385-31.231t77.385 31.466q31.231 31.466 31.231 76.928 0 40.96-26.654 71.398Q683.308-583 644-577.923V-456h40.443q12.088 0 20.13 8.138 8.043 8.139 8.043 20.17v248q0 12.031-8.139 20.169-8.138 8.139-20.169 8.139H571.692ZM628.498-608q31.81 0 53.964-22.652 22.153-22.653 22.153-54.462 0-31.809-22.492-53.963t-54.077-22.154q-31.584 0-54.123 22.492-22.538 22.492-22.538 54.077 0 31.585 22.652 54.123Q596.689-608 628.498-608Z"/></svg>