<svg xmlns="http://www.w3.org/2000/svg" height="24" viewBox="0 -960 960 960" width="24"><path d="m800.087-44.956-71.956-71.957v9.109H231.869v-165.5h-160v-374.109H197.63L44.956-800.087l59.392-59.392 755.131 755.131-59.392 59.392ZM322.87-197.13h314.26v-10.783L506.087-338.717H322.87v141.587Zm486.196-76.174h79.065v-374.827H434.478l374.588 374.827ZM394.478-688.131l-160.239-160h493.892v160H394.478Zm332.696 228.37q-17.813 0-29.863-12.05t-12.05-29.863q0-17.813 12.05-29.863t29.863-12.05q17.813 0 29.863 12.05t12.05 29.863q0 17.813-12.05 29.863t-29.863 12.05Z"/></svg>