<svg xmlns="http://www.w3.org/2000/svg" height="20" viewBox="0 -960 960 960" width="20"><path d="m794.087-45.956-65.956-65.957v4.109H231.869v-152.5h-160v-385.109H195.63L45.956-795.087l61.392-61.392 748.131 749.131-61.392 61.392ZM326.87-201.13h306.26v-5.783L517.087-322.717H326.87v121.587Zm498.196-59.174h63.065v-385.827H440.478l384.588 385.827ZM398.478-688.131l-160.239-160h489.892v160H398.478Zm328.696 239.37q-17.813 0-30.863-13.05t-13.05-30.863q0-17.813 13.05-30.863t30.863-13.05q17.813 0 30.863 13.05t13.05 30.863q0 17.813-13.05 30.863t-30.863 13.05Z"/></svg>