<svg xmlns="http://www.w3.org/2000/svg" height="24" viewBox="0 -960 960 960" width="24"><path d="m812.479-31.26-73.261-73.261v13.349H220.782v-173.001h-160v-393.35h125.434L31.26-812.479l62.652-62.653 781.22 781.22-62.653 62.652ZM326.783-193.217h306.434v-17.305l-99.736-99.171H326.783v116.476Zm502.828-70.956L723.609-370.174h69.608v-183.043H541.132L435.13-659.218h464.088v395.045h-69.607ZM166.783-370.174h53.999v-45.52h206.697L290.522-553.217H166.783v183.043Zm466.434-289.044v-93.999H341.132L234.565-859.218h504.653v200H633.217ZM720-442.477q18.922 0 31.722-12.8t12.8-31.722q0-18.922-12.8-31.722T720-531.521q-18.922 0-31.722 12.8t-12.8 31.722q0 18.922 12.8 31.722t31.722 12.8Zm-178.868-110.74h252.085-252.085Zm-374.349 0h123.739-123.739Z"/></svg>