<svg xmlns="http://www.w3.org/2000/svg" height="20" viewBox="0 -960 960 960" width="20"><path d="m720-633.538-38.231 33.23q-9.384 8.154-20.115 8.654-10.731.5-21.423-6.654-7.385-5.384-9.846-15.884-2.462-10.5 1-23.654l17.076-56.308-40.23-26.154Q598.846-725 594.769-734.5t-2.384-19.885q1.692-9.615 10.461-15.923 8.769-6.307 21.154-6.307h50.308l14.077-47.308q2.692-10.846 10.961-17.769 8.269-6.923 20.654-6.923 11.385 0 20.154 6.923t11.461 17.769l14.077 47.308H816q10.615 0 18.769 6.307 8.154 6.308 10.846 14.923 2.693 9.616.385 20-2.308 10.385-11.692 16.077l-41.769 26.154 17.076 54.769q3.462 13.385.885 24.77-2.577 11.384-12.731 17.307-9.154 5.923-20.154 4.039-11-1.885-18.384-8.039L720-633.538Zm0-48.924q13.462 0 23.192-10.23 9.731-10.231 9.731-22.693 0-12.461-10.231-22.692-10.23-10.231-22.692-10.231t-22.692 9.731q-10.231 9.731-10.231 23.192 0 13.462 9.731 23.193 9.73 9.73 23.192 9.73ZM527.539-265.154q17.384 47.693-11.577 88.423Q487-136 437.846-136q-29.846 0-52.692-16.961-22.846-16.962-36.077-47.423-67.769 18.769-118.385-30.962-50.615-49.731-30.308-116.192-28.923-9.385-46.653-35.424Q136-409 136-439.615q0-53.77 42.269-79.539t99.192-4.308l65.77 23.385q25.077-41.385 47.884-61.846 22.808-20.462 51.808-25.462v-58.461h23.385v52.307q52.154 1.847 90.692 40.27 38.539 38.423 36.539 89.038h53.846v23.385h-57.462q-5 28.231-26.5 51.038-21.5 22.808-63.884 49.654l28 75ZM272.385-366.231q36.615 0 78.653-17.385 42.039-17.384 71.654-46.538l-168.154-66.308q-28.615-11.307-57.577 5.654Q168-473.846 168-442.692q0 29.846 31.923 53.153 31.923 23.308 72.462 23.308ZM437.846-168q33.462 0 51.577-27.038 18.115-27.039 7.039-59.5l-61.693-163.539q-35.307 34.231-51.423 69.731-16.115 35.5-16.115 77.961 0 42.847 20.885 72.616Q409-168 437.846-168Zm49.616-206.693q33.923-16.538 52.692-39.346 18.769-22.807 18.769-50.576 0-36.693-27.154-64.346-27.154-27.654-64.615-27.654-30.077 0-54.154 18.769t-36.769 51.923l82.231 30.538 29 80.692Z"/></svg>