<svg xmlns="http://www.w3.org/2000/svg" height="20" viewBox="0 -960 960 960" width="20"><path d="M350-110v-72H230v-118h72v-360h-72v-118h120v-72h118v72h48v-72h118v88q50 25 75.5 67.972Q735-651.057 735-599q0 27-6.5 50.5T708-504q34 21 54.5 61t20.5 81.6q0 69.4-40.5 118.4T634-184v74H516v-72h-48v72H350Zm70-429h137q25.575 0 42.787-17.589Q617-574.177 617-598.876q0-25.111-17.625-43.118Q581.75-660 557-660H420v121Zm0 239h185q25.575 0 42.787-17.885Q665-335.77 665-360.885T647.375-403.5Q629.75-421 605-421H420v121Z"/></svg>