<svg xmlns="http://www.w3.org/2000/svg" height="24" viewBox="0 -960 960 960" width="24"><path d="M376.155-140.001v-80h-120V-280h80v-400h-80v-59.999h120v-80h59.999v80H520v-80h59.999v83.077q52.384 8.615 86.192 47.653Q699.999-650.23 699.999-595q0 30.539-11.154 56.462-11.154 25.923-29.924 44.615 37.308 17.154 59.193 51.423 21.885 34.269 21.885 77.5 0 61.384-41.808 103.191Q656.384-220.001 595-220.001h-15.001v80H520v-80h-83.846v80h-59.999Zm19.999-369.998H555q36.077 0 60.538-24.462Q640-558.922 640-595q0-36.077-24.462-60.538Q591.077-680 555-680H396.154v170.001Zm0 229.999H595q36.077 0 60.538-24.462Q680-328.923 680-365q0-36.078-24.462-60.539-24.461-24.462-60.538-24.462H396.154V-280Z"/></svg>