<svg xmlns="http://www.w3.org/2000/svg" height="24" viewBox="0 -960 960 960" width="24"><path d="M264.588-640q-8.511 0-14.242-5.758-5.731-5.758-5.731-14.269 0-8.512 5.758-14.242Q256.131-680 264.642-680q8.512 0 14.242 5.758 5.731 5.757 5.731 14.269 0 8.511-5.758 14.242Q273.1-640 264.588-640ZM400-150.769q-49.846-.769-84.923-35.461Q280-220.923 280-270.769v-240q0-83.333 58.333-141.667Q396.667-710.769 480-710.769h73q52.077 0 89.539 34.725Q680-641.319 680-590.538q0 34.865-18.494 64.045-18.494 29.181-50.198 44.34-42 20.384-66.654 59.299Q520-383.939 520-337.769v67q0 50.077-34.961 85.423Q450.077-150 400-150.769ZM345.357-720q-8.511 0-14.242-5.75-5.731-5.75-5.731-14.25v-27.692q0-8.5 5.758-14.251 5.758-5.75 14.269-5.75 8.512 0 14.243 5.75 5.731 5.751 5.731 14.251V-740q0 8.5-5.758 14.25t-14.27 5.75ZM400-190.769q33 0 56.5-23.5t23.5-56.5v-67q0-58 30.5-107t83.5-74q21-10 33.5-29.5t12.5-42.5q0-34.231-26-57.115-26-22.885-61-22.885h-73q-66 0-113 47t-47 113v240q0 33 23.5 56.5t56.5 23.5ZM449.973-760q-8.512 0-14.242-5.75Q430-771.5 430-780v-27.692q0-8.5 5.758-14.251 5.757-5.75 14.269-5.75 8.511 0 14.242 5.75Q470-816.192 470-807.692V-780q0 8.5-5.758 14.25T449.973-760Zm104.615 0q-8.511 0-14.242-5.75-5.731-5.75-5.731-14.25v-47.692q0-8.5 5.758-14.251 5.758-5.75 14.269-5.75 8.512 0 14.243 5.75 5.731 5.751 5.731 14.251V-780q0 8.5-5.758 14.25t-14.27 5.75Zm120.028 32.308q-14.231 0-24.808-10.577t-10.577-24.808v-41.538q0-14.231 10.577-24.808T674.616-840q14.23 0 24.807 10.577Q710-818.846 710-804.615v41.538q0 14.231-10.577 24.808t-24.807 10.577Z"/></svg>