<svg xmlns="http://www.w3.org/2000/svg" height="20" viewBox="0 -960 960 960" width="20"><path d="M317.692-202q-90.685 0-155.573-61.042Q97.231-324.085 97.231-414q0-99.615 80.038-160.423 80.038-60.808 184.269-53.885h18l-58.307-56.769q-6.385-5.524-6.385-11.608 0-6.084 6.217-12.302 5.783-5.782 11.437-5.398 5.654.385 11.269 6l78.77 78.769q8.692 8.329 8.692 19.434t-8.692 19.797L343-511.846q-5.282 5.615-11.103 5.615-5.82 0-12.081-5.615-5.739-5.616-4.855-11.154.885-5.539 6.5-11.154l63.692-63.692h-19q-92.692-9.231-164.807 43.654Q129.231-501.308 129.231-414q0 76.238 55.727 128.119T318.461-234H420q6.8 0 11.4 4.547 4.6 4.548 4.6 11.27 0 6.722-4.6 11.452Q426.8-202 420-202H317.692Zm258.963-303.692q-12.57 0-20.613-8.139Q548-521.969 548-534v-135.388q0-12.528 8.138-20.57 8.139-8.042 20.17-8.042h219.037q12.571 0 20.613 8.138Q824-681.723 824-669.693v135.388q0 12.528-8.138 20.57-8.139 8.043-20.169 8.043H576.655Zm0 303.692q-12.57 0-20.613-8.138Q548-218.277 548-230.307v-135.388q0-12.528 8.138-20.57 8.139-8.043 20.17-8.043h219.037q12.571 0 20.613 8.139Q824-378.031 824-366v135.388q0 12.528-8.138 20.57Q807.723-202 795.693-202H576.655ZM580-234h212v-128.307H580V-234Z"/></svg>