<svg xmlns="http://www.w3.org/2000/svg" height="20" viewBox="0 -960 960 960" width="20"><path d="M291.521-142.216q-110.387 0-188.259-76.459Q25.39-295.134 25.39-404.956q0-103.87 73.5-176.239 73.5-72.37 177.935-74.065h18l-16.956-16.391q-14.392-13.735-14.392-31.955t14.392-32.611q13.826-13.826 31.152-13.544 17.327.283 31.718 14.674l90.826 90.261q14.392 14.594 14.674 34.145.283 19.552-14.674 34.509l-91.391 90.391q-13.493 13.826-31.551 13.826t-32.363-13.826q-13.348-13.826-13.131-30.935.218-17.109 14.609-31.5l22.044-22.044h-19q-68.783 0-117.609 47.978-48.825 47.978-48.825 117.326 0 73.004 51.802 123.393 51.802 50.389 125.371 50.389h115.478q18.692 0 31.585 12.833 12.894 12.833 12.894 31.435 0 18.602-12.894 31.646-12.893 13.044-31.585 13.044H291.521ZM572.479-498q-20.388 0-34.694-14.307-14.307-14.306-14.307-34.694v-161.217q0-20.387 14.307-34.694 14.306-14.306 34.694-14.306h262.304q20.387 0 34.694 14.306 14.307 14.307 14.307 34.694v161.217q0 20.388-14.307 34.694Q855.17-498 834.783-498H572.479Zm0 355.218q-20.388 0-34.694-14.306-14.307-14.307-14.307-34.694v-161.217q0-20.388 14.307-34.694Q552.091-402 572.479-402h262.304q20.387 0 34.694 14.307 14.307 14.306 14.307 34.694v161.217q0 20.387-14.307 34.694-14.307 14.306-34.694 14.306H572.479Zm49-98.001h164.303v-63.216H621.479v63.216Z"/></svg>