<svg xmlns="http://www.w3.org/2000/svg" height="24" viewBox="0 -960 960 960" width="24"><path d="M338-117H213q-19.975 0-33.488-13.8Q166-144.6 166-165q0-19.975 13.8-33.488Q193.6-212 214-212h124l-4-4q-14-14-13.5-33t14.5-33q14-14 33-14t33 14l73 72q19 19.364 19 45.182T474-120l-73 73q-14 14-33 14t-33-14q-14-14-14-33.5t14-33.5l3-3ZM166-815q0-53 36.5-89.5T292-941h376q53 0 89.5 36.5T794-815v457q0 26-18.5 44.5T731-295h-63v-64q-39-26-86.5-39T480-411q-54 0-101.5 13T292-359v64h-63q-26 0-44.5-18.5T166-358v-457Zm126 353q45-20 92.515-29.5t95.5-9.5q47.985 0 95.485 9.5T668-462v-353H292v353Zm333 345q-19.975 0-33.487-13.8Q578-144.6 578-165q0-19.975 13.8-33.488Q605.6-212 626-212h121q19.975 0 33.487 13.518Q794-184.965 794-164.982 794-145 780.487-131 766.975-117 747-117H625ZM480-541q-50 0-85-35t-35-85q0-50 35-85t85-35q50 0 85 35t35 85q0 50-35 85t-85 35Zm0-88q13.6 0 22.8-9.2 9.2-9.2 9.2-22.8 0-14.025-9.2-23.513Q493.6-694 480-694q-13.6 0-22.8 9.482-9.2 9.483-9.2 23.5Q448-647 457.2-638t22.8 9Zm0 218Zm0-218q-13.6 0-22.8-9.2-9.2-9.2-9.2-22.8 0-14.025 9.2-23.513Q466.4-694 480-694q13.6 0 22.8 9.482 9.2 9.483 9.2 23.5Q512-647 502.8-638t-22.8 9Z"/></svg>