<svg xmlns="http://www.w3.org/2000/svg" height="20" viewBox="0 -960 960 960" width="20"><path d="M457.692-188H248q-6.839 0-11.419-4.52Q232-197.04 232-203.789q0-6.75 4.581-11.48Q241.161-220 248-220h209.692l-62.846-62.846q-5.615-5.615-5.5-10.769.115-5.154 6.5-11.539t11.654-6.385q5.269 0 11.654 6.385l81.538 81.539q8.693 8.328 8.693 19.433t-8.693 19.797l-81.538 81.539q-5.616 5.615-11.27 6-5.653.385-12.038-6-6.385-6.385-6.385-12.154t6.385-12.154L457.692-188ZM232-767.385q0-24.315 16.15-40.465Q264.3-824 288.615-824h382.77q24.315 0 40.465 16.15Q728-791.7 728-767.385v452.616q0 10.684-8.042 18.727Q711.916-288 701.231-288H696v-57.231q-46.692-30.846-106.077-48.346-59.384-17.5-109.923-17.5t-109.923 17q-59.385 17-106.077 48.846v59.539l2.308-2.308h-7.539q-10.685 0-18.727-8.042Q232-304.085 232-314.769v-452.616Zm32 366.923q46.923-26.692 104.885-42.346Q426.846-458.462 480-458.462q53.154 0 111.115 16.154Q649.077-426.154 696-400.462v-366.923q0-9.23-7.692-16.923Q680.615-792 671.385-792h-382.77q-9.23 0-16.923 7.692Q264-776.615 264-767.385v366.923ZM592-188q-6.838 0-11.419-4.52T576-203.789q0-6.75 4.581-11.48Q585.162-220 592-220h120q6.839 0 11.419 4.52Q728-210.96 728-204.211q0 6.75-4.581 11.48Q718.839-188 712-188H592ZM480-505.538q-41.539 0-70.769-29.231Q380-564 380-605.539q0-41.538 29.231-70.769 29.23-29.231 70.769-29.231t70.769 29.231Q580-647.077 580-605.539q0 41.539-29.231 70.77-29.23 29.231-70.769 29.231Zm0-32.001q28.092 0 48.046-19.953Q548-577.446 548-605.539q0-28.092-19.954-48.046-19.954-19.953-48.046-19.953t-48.046 19.953Q412-633.631 412-605.539q0 28.093 19.954 48.047 19.954 19.953 48.046 19.953Zm0 126.462Zm0-126.462q-28.092 0-48.046-19.953Q412-577.446 412-605.539q0-28.092 19.954-48.046 19.954-19.953 48.046-19.953t48.046 19.953Q548-633.631 548-605.539q0 28.093-19.954 48.047-19.954 19.953-48.046 19.953Z"/></svg>