<svg xmlns="http://www.w3.org/2000/svg" height="20" viewBox="0 -960 960 960" width="20"><path d="M772.616-452.771v-295.228h71.383v295.228h-71.383Zm-470.384 288.77L79.541-385.154l73.844-73.075 112.386 26.846V-720q0-31.919 21.962-53.959 21.961-22.04 53.768-22.04 31.806 0 54.037 22.04 22.23 22.04 22.23 53.959v156.309h52.616l192.307 90.538-42.384 309.152H302.232ZM323.77-216h250.076l32.77-225.693-137.846-65h-103v-213.402q0-9.905-7-16.905-7-7-17-7t-17 7q-7 7-7 17v356l-148.308-37.154-16 16L323.77-216Zm0 0h248.923H323.77Z"/></svg>