<svg xmlns="http://www.w3.org/2000/svg" height="20" viewBox="0 -960 960 960" width="20"><path d="M761.217-425.217v-362.001h122.001v362.001H761.217ZM290.826-147.391 41.217-393.609l104.609-105.175 91.913 22.435v-253.825q0-43.881 30.199-74.18 30.199-30.299 73.935-30.299 43.736 0 74.28 30.299 30.543 30.299 30.543 74.18v134.956h42.913l206.783 97.956-50.391 349.871H290.826Zm33.392-80.479h252l32-221.304-139-65h-103v-216q0-10-7-17t-17-7q-10 0-17 7t-7 17v356L171.652-410.74l-16 16 168.566 166.87Zm0 0h252-252Z"/></svg>