<svg xmlns="http://www.w3.org/2000/svg" height="20" viewBox="0 -960 960 960" width="20"><path d="M736-507 441-214q-17 17-36.5 16.5T369-215q-16-17-15.5-37t16.5-36l293-291h7q-21.3 0-36.15-15.289-14.85-15.29-14.85-36.5Q619-652 634.35-667T671-682h108q24.3 0 41.65 17.35Q838-647.3 838-623v108q0 21.3-14.789 36.15-14.79 14.85-36 14.85Q766-464 751-478.85T736-515v8Zm-374-40 27.886 54q8.114 15 4.614 32-3.5 17-15.5 29-19 19-47.5 14.5t-40.363-30.192L146.914-763.199Q140-778 143-794q3-16 14-27l27.286-27.286Q195-859 211-862.5q16-3.5 30.793 3.393l313.245 142.496Q582-704.782 587-675.667q5 29.116-16 49.838Q557-612 538.595-609.5t-35.311-5.476L454-639l-92 92Zm-44-74 63-64-126-64-3 4 66 124Z"/></svg>