<svg xmlns="http://www.w3.org/2000/svg" height="24" viewBox="0 -960 960 960" width="24"><path d="m513.461-90.694-57.152-17.846 13.307-42.384q6.769-25.923 4.192-51.115-2.577-25.193-17.346-49.347-23.846-36.077-29.961-74.653-6.116-38.577 7.115-80.885l12.923-42.383 57.152 17.845-13.307 42.384q-8.385 25.693-5.192 51.924 3.192 26.23 18.346 48.538 22.231 36.077 29.154 75.769 6.923 39.692-6.308 79.769l-12.923 42.384Zm-165.999 0-57.153-17.846 13.308-42.384q6.769-25.307 4.192-51.615-2.577-26.308-17.731-49.231-24.846-34.693-30.269-74.577-5.423-39.884 7.808-80.577l12.923-42.383 57.152 17.845-13.307 42.384q-8.385 25.693-5.193 52.424 3.193 26.73 18.731 48.423Q360.769-253.77 367-212.77q6.231 41-6.615 79.692l-12.923 42.384Zm327.998 0-57.152-17.846 13.307-42.384q6.77-24.923 4.193-51.615-2.577-26.693-17.731-49.231-24.846-35.077-30.077-74.769-5.231-39.692 7.615-80.385l12.923-42.383 57.153 17.845-13.308 42.384q-8.384 26.308-5.192 51.924 3.192 25.615 18.346 48.538 22.846 36.462 28.962 75.962 6.115 39.499-6.116 79.576L675.46-90.694ZM312.461-644.616l18.923 55.386h297.232l18.923-55.386H312.461Zm-24.845 115.385-38.385-115.385h-109.23v-175.383h679.998v175.383h-109.23l-44.462 115.385H287.616Z"/></svg>