<svg xmlns="http://www.w3.org/2000/svg" height="24" viewBox="0 -960 960 960" width="24"><path d="M264-840q62.644 0 119.322 26Q440-788 480-740q40-48 96.678-74T696-840q110 0 187 77t77 187q0 35-9.211 70.991Q941.579-469.018 925-434q-22-24-51.5-38T811-488q10.895-23 16.947-45Q834-555 834-576q0-57-40.5-97.5T696-714q-68 0-110.5 32.5T480-574q-63-75-105.5-107.5T264-714q-57 0-97.5 40.5T126-576q0 21 6.053 43 6.052 22 16.947 45-32 2-61.5 16.5T35-433q-17-36-26-72t-9-71q0-110 77-187t187-77ZM47 0Q21 0 2.5-18.5T-16-63v-16q0-51.258 49-82.129Q82-192 160-192h16q-16 25-24 52.792-8 27.791-8 59.208V0H47Zm240 0q-26 0-44.5-18.5T224-63v-17q0-72.123 70.5-117.062Q365-242 480-242q115.2 0 185.6 44.938Q736-152.123 736-80v17q0 26-18.5 44.5T673 0H287Zm529 0v-80q0-31-8-59.5T784-192h16q78 0 127 30.871T976-79v16q0 26-18.5 44.5T913 0h-97ZM480-135q-38 0-72.5 8T354-107h252q-19-12-53.5-20t-72.5-8Zm-320-93q-38 0-64-26t-26-64q0-38 26-64t64-26q38 0 64 26t26 64q0 38-26 64t-64 26Zm640 0q-38 0-64-26t-26-64q0-38 26-64t64-26q38 0 64 26t26 64q0 38-26 64t-64 26Zm-320.235-43Q423-271 383.5-310.735q-39.5-39.736-39.5-96.5Q344-464 383.735-503.5q39.736-39.5 96.5-39.5Q537-543 576.5-503.265q39.5 39.736 39.5 96.5Q616-350 576.265-310.5q-39.736 39.5-96.5 39.5Zm.06-166Q467-437 458.5-428.325q-8.5 8.676-8.5 21.5 0 12.825 8.675 21.325 8.676 8.5 21.5 8.5 12.825 0 21.325-8.675 8.5-8.676 8.5-21.5 0-12.825-8.675-21.325-8.676-8.5-21.5-8.5ZM480-107Zm0-300Z"/></svg>