<svg xmlns="http://www.w3.org/2000/svg" height="24" viewBox="0 -960 960 960" width="24"><path d="M264-800q60.692 0 116.538 31.5Q436.385-737 480-677.693 523.615-737 579.462-768.5 635.308-800 696-800q93.539 0 158.769 65.231Q920-669.539 920-576q0 36.462-11.538 74.615-11.539 38.154-34.154 78-6.253-8.262-14.781-14.785-8.527-6.523-17.758-10.907 19-33.769 28.616-65.385Q880-546.077 880-576q0-77.231-53.385-130.615Q773.231-760 696-760q-61.769 0-112.192 37.192Q533.385-685.615 480-616q-53.385-69.846-103.808-106.923Q325.769-760 264-760q-77.231 0-130.615 53.385Q80-653.231 80-576q0 31.461 9.615 63.461 9.616 32 27.846 64.231-9.23 5.154-17.307 11.308-8.077 6.154-14.462 14.385-22.615-37.539-34.154-76.462Q40-538 40-576q0-93.539 65.231-158.769Q170.461-800 264-800ZM69.23-118.461q-12.423 0-20.826-8.404Q40-135.269 40-147.692V-153q0-37.077 38.522-60.885 38.522-23.807 101.558-23.807 11.381 0 21.728.615 10.346.615 19.807 2.615-8.815 15.105-12.907 32.476-4.093 17.371-4.093 36.482v47.043H69.231Zm243.395 0q-14.241 0-23.433-9.289Q280-137.038 280-150.769v-11.692q0-49.616 54.961-79.347 54.962-29.731 144.735-29.731 90.612 0 145.458 29.731Q680-212.077 680-162.461v11.692q0 13.731-9.288 23.019-9.289 9.289-23.019 9.289H312.625Zm442.76 0v-47.043q0-19.111-4.408-36.482-4.407-17.371-12.592-32.476 9.461-2 19.733-2.615 10.271-.615 21.882-.615 63 0 101.5 23.807Q920-190.077 920-153v5.308q0 12.423-8.404 20.827-8.403 8.404-20.827 8.404H755.385ZM480-231.538q-68.538 0-112.769 18.577-44.231 18.576-46.077 46.807v7.692h317.692v-7.692q-2.077-28.461-46.192-46.923Q548.538-231.538 480-231.538Zm-300-43.847q-23.769 0-39.962-16.721-16.192-16.721-16.192-40.202 0-23.481 16.192-40.202 16.193-16.721 39.962-16.721 23.769 0 40.346 16.721 16.577 16.721 16.577 40.202 0 23.481-16.721 40.202-16.721 16.721-40.202 16.721Zm600 0q-23.769 0-40.346-16.721-16.577-16.721-16.577-40.202 0-23.481 16.721-40.202 16.721-16.721 40.202-16.721 23.769 0 39.962 16.721 16.192 16.721 16.192 40.202 0 23.481-16.192 40.202-16.193 16.721-39.962 16.721Zm-300-26.154q-36.539 0-62.116-25.577-25.577-25.577-25.577-62.115 0-36.539 25.577-62.116 25.577-25.577 62.116-25.577t62.116 25.577q25.577 25.577 25.577 62.116 0 36.538-25.577 62.115-25.577 25.577-62.116 25.577Zm.135-135.384q-20.212 0-34.02 13.672-13.807 13.673-13.807 33.885 0 20.212 13.672 34.02 13.673 13.807 33.885 13.807 20.212 0 34.02-13.673 13.807-13.672 13.807-33.884t-13.672-34.02q-13.673-13.807-33.885-13.807ZM480-158.462Zm0-230.769Z"/></svg>