<svg xmlns="http://www.w3.org/2000/svg" height="20" viewBox="0 -960 960 960" width="20"><path d="M264-840q63 0 119.5 26t96.5 74q40-48 96.5-74T696-840q110 0 187 77t77 187q0 35-8.5 70T926-436q-11-20-28-35t-38-24q8-21 12-41t4-40q0-75-52.5-127.5T696-756q-60 0-111.5 37T480-616q-53-66-104.5-103T264-756q-75 0-127.5 52.5T84-576q0 20 4 40t12 41q-20 10-37.5 25T34-435q-17-35-25.5-70.5T0-576q0-110 77-187t187-77ZM42-80q-17 0-29.5-12.5T0-122v-25q0-45 45.5-73T164-248q11 0 22 .5t22 2.5q-16 22-24 47.5t-8 53.5v64H42Zm240 0q-17 0-29.5-12.5T240-122v-22q0-65 66.5-105.5T480-290q108 0 174 40.5T720-144v22q0 17-12.5 29.5T678-80H282Zm502 0v-64q0-29-8-54t-24-47q11-2 22-2.5t22-.5q73 0 118.5 28t45.5 73v25q0 17-12.5 29.5T918-80H784ZM162-276q-35 0-59.5-24.5T78-360q0-35 24.5-59.5T162-444q35 0 59.5 24.5T246-360q0 35-24.5 59.5T162-276Zm636 0q-35 0-59.5-24.5T714-360q0-35 24.5-59.5T798-444q35 0 59.5 24.5T882-360q0 35-24.5 59.5T798-276Zm-318-44q-50 0-85-35t-35-85q0-50 35-85t85-35q50 0 85 35t35 85q0 50-35 85t-85 35Z"/></svg>