<svg xmlns="http://www.w3.org/2000/svg" height="24" viewBox="0 -960 960 960" width="24"><path d="M264-788q60 0 115.5 33T480-659q45-63 100.5-96T696-788q88 0 150 62t62 150q0 36-12 74.5T860-422q-5-5-11.5-9t-12.5-7q22-37 33-71.5t11-66.5q0-77-53.5-130.5T696-760q-56 0-108.5 35T480-616q-55-74-107.5-109T264-760q-77 0-130.5 53.5T80-576q0 34 11 69t32 70q-6 4-12 7.5t-11 8.5q-24-38-36-77.5T52-576q0-88 62-150t150-62ZM78-130q-11 0-18.5-7.5T52-156q0-35 37-58t97-23q11 0 21 .5t19 2.5q-7 14-10.5 29.5T212-172v42H78Zm244 0q-13 0-21.5-8.5T292-160v-8q0-45 51.5-71.5T480-266q85 0 136.5 26.5T668-168v8q0 13-8.5 21.5T638-130H322Zm426 0v-42q0-17-3.5-32.5T734-234q9-2 19-2.5t21-.5q60 0 97 23t37 58q0 11-7.5 18.5T882-130H748ZM186-274q-21 0-35-14.5T137-324q0-21 14-35.5t35-14.5q21 0 35.5 14.5T236-324q0 21-14.5 35.5T186-274Zm588 0q-21 0-35.5-14.5T724-324q0-21 14.5-35.5T774-374q21 0 35 14.5t14 35.5q0 21-14 35.5T774-274Zm-294-22q-32 0-55-23t-23-55q0-32 23-55t55-23q32 0 55 23t23 55q0 32-23 55t-55 23Z"/></svg>