<svg xmlns="http://www.w3.org/2000/svg" height="20" viewBox="0 -960 960 960" width="20"><path d="M529.538-85.846 324.923-188.923h119.385v-85.231l204.615 103.077H529.538v85.23ZM295.783-327.385q-41.629 0-70.86-29.166-29.231-29.167-29.231-70.834h-72v-200h248v168h173.231l154.769-184.308v-87.999h-120v-32.001h152v130.616l-171.23 205.692h-164.77q0 41.539-29.14 70.77-29.14 29.23-70.769 29.23Zm43.909-132Zm-44 100q28.093 0 48.046-19.954 19.954-19.953 19.954-48.046h-136q0 27.693 19.954 47.846 19.954 20.154 48.046 20.154Zm-76-348.307v-32.001h152v32.001h-152Zm516.706 380.307q-41.629 0-70.86-29.14-29.23-29.14-29.23-70.769 0-41.629 29.14-70.86t70.769-29.231q41.629 0 70.86 29.141 29.231 29.14 29.231 70.769 0 41.629-29.14 70.86-29.141 29.23-70.77 29.23Zm-.09-32q28.092 0 48.046-19.954 19.954-19.953 19.954-48.046 0-28.092-19.954-48.046t-48.046-19.954q-28.093 0-48.046 19.954-19.954 19.954-19.954 48.046 0 28.093 19.954 48.046 19.953 19.954 48.046 19.954Zm-580.616-100h184v-136h-184v136Z"/></svg>