<svg xmlns="http://www.w3.org/2000/svg" height="24" viewBox="0 -960 960 960" width="24"><path d="M438.087-71.87v-243.826h203.826v165.501h-140v78.326h-63.826Zm240 0v-243.826h63.826v80h76.174v-80h63.826v243.827h-63.826v-100h-76.174v100h-63.826ZM501.913-213.781h76.174v-38.087h-76.174v38.087ZM358.087-74.108q-124.87-14.718-205.544-107.81Q71.869-275.011 71.869-408q0-101.913 81.413-221.924Q234.696-749.935 400-890.522q165.304 140.587 246.718 260.598Q728.131-509.913 728.131-408v6.152q0 2.957-.24 6.152H358.087v321.588Z"/></svg>