<svg xmlns="http://www.w3.org/2000/svg" height="24" viewBox="0 -960 960 960" width="24"><path d="m162-372-56 137q-2 4-5 6.5t-7.919 2.5Q85-226 81-232t-1-13l202-483q1-2 3.211-4 2.21-2 4.789-2h7.765q3.235 0 5.235 2 2 2 3 4l201 480q3 8-1.641 15-4.64 7-12.547 7-4.812 0-8.95-2.667-4.138-2.666-5.862-7.333l-56-136H162Zm10-26h240L295.674-682H290L172-398Zm568-68H634q-5.95 0-9.975-4.035-4.025-4.035-4.025-10t4.025-9.965q4.025-4 9.975-4h106v-106q0-5.95 4.035-9.975 4.035-4.025 10-4.025t9.965 4.025q4 4.025 4 9.975v106h106q5.95 0 9.975 4.035 4.025 4.035 4.025 10T883.975-470q-4.025 4-9.975 4H768v106q0 5.95-4.035 9.975-4.035 4.025-10 4.025T744-350.025q-4-4.025-4-9.975v-106Z"/></svg>