<svg xmlns="http://www.w3.org/2000/svg" height="24" viewBox="0 -960 960 960" width="24"><path d="M169.044-463.043q-44.305 0-75.153-30.848-30.848-30.848-30.848-75.153v-226.434q0-44.305 30.848-75.153 30.848-30.848 75.153-30.848h621.912q44.305 0 75.153 30.848 30.848 30.848 30.848 75.153v226.434q0 44.305-30.848 75.153-30.848 30.848-75.153 30.848h-68.695v-157.739q0-44.305-30.848-75.153-30.848-30.848-75.153-30.848H343.74q-44.305 0-75.153 30.848-30.848 30.848-30.848 75.153v157.739h-68.695Zm169.044 0v-163.391h283.824v163.391H338.088Zm88.911 270.391v-160q0-22.087 15.457-37.544 15.457-15.456 37.544-15.456 22.087 0 37.544 15.456 15.457 15.457 15.457 37.544v160q0 22.087-15.457 37.544-15.457 15.457-37.544 15.457-22.087 0-37.544-15.457-15.457-15.457-15.457-37.544Zm-280 13.001q-22.087 0-37.544-15.457-15.456-15.457-15.456-37.544 0-22.087 15.456-37.544 15.457-15.456 37.544-15.456 24 0 46-9t39-26q7.739-7.739 13.326-16.696 5.587-8.956 10.587-19.565 9.522-19.957 25.761-34.348 16.24-14.391 38.327-14.391 19.522 0 33.913 12.826 14.392 12.826 14.392 29.783 0 27.695-21.261 62.804t-40.392 54.24q-31.956 31.956-73.261 49.152-41.304 17.196-86.392 17.196Zm661.306 0q22.087 0 37.544-15.457 15.457-15.457 15.457-37.544 0-22.087-15.457-37.544-15.457-15.456-37.544-15.456-24 0-46-9t-39-26q-7.739-7.739-13.491-16.696-5.752-8.956-10.869-19.565-9.64-19.957-25.71-34.348-16.07-14.391-37.931-14.391-19.522 0-33.913 12.826-14.392 12.826-14.392 29.783 0 27.695 21.261 62.804t40.392 54.24q31.957 31.956 73.261 49.152 41.305 17.196 86.392 17.196Z"/></svg>