<svg xmlns="http://www.w3.org/2000/svg" height="20" viewBox="0 -960 960 960" width="20"><path d="m628-168 20 20H296q-22.7 0-37.35-14.65Q244-177.3 244-200v-560q0-22.7 14.65-37.35Q273.3-812 296-812h235q9.974 0 18.839 3.19 8.866 3.189 16.703 10.913L700-670q8.632 8.324 12.316 18.03Q716-642.265 716-631.407V-228q0 22-1 30.5t-3 11.5L539-361q-15 11-29.556 15-14.555 4-29.444 4-38.55 0-65.275-26.725Q388-395.45 388-434q0-38.55 26.725-65.275Q441.45-526 480-526q38.55 0 65.275 26.725Q572-472.55 572-434q0 17-5 32t-15 28l144 144v-412L546-792H296q-12 0-22 10t-10 22v560q0 12 10 22t22 10h332ZM480-362q32 0 52-24.5t20-57.5q0-27-21.5-44.5T480-506q-29 0-50.5 17.5T408-444q0 33 20 57.5t52 24.5Zm0-108Zm0 0Z"/></svg>