<svg xmlns="http://www.w3.org/2000/svg" height="20" viewBox="0 -960 960 960" width="20"><path d="M276-62q-49.7 0-83.85-34.15Q158-130.3 158-180v-600q0-49.7 34.15-83.85Q226.3-898 276-898h263q24.4 0 46.2 9.5 21.8 9.5 39.342 27.603L770-720q16 17 24 37.5t8 43.5v463L622-352q9-15 14.5-34.5T642-434q0-69-46.5-115.5T480-596q-69 0-115.5 46.5T318-434q0 69 46.5 115.5T480-272q26 0 46-4.5t35-15.5L761-90q-20 17-39.5 22.5T666-62H276Zm203.788-312Q454-374 437-391.212q-17-17.213-17-43Q420-460 437.212-477q17.213-17 43-17Q506-494 523-476.788q17 17.213 17 43Q540-408 522.788-391q-17.213 17-43 17Z"/></svg>