<svg xmlns="http://www.w3.org/2000/svg" height="24" viewBox="0 -960 960 960" width="24"><path d="M260.374-97Q193-97 145-144.833q-48-47.834-48-115.5Q97-328 145-375.5T260-423h37v-114h-37q-67 0-115-47.833-48-47.834-48-115.5Q97-768 144.833-815.5q47.834-47.5 115.5-47.5Q328-863 375.5-815.264 423-767.529 423-700v37h114v-37q0-67.529 47.833-115.264Q632.667-863 700.333-863 768-863 815.5-815.374q47.5 47.627 47.5 115Q863-633 815.264-585 767.529-537 700-537h-37v114h37q67.529 0 115.264 47.626Q863-327.747 863-260.374 863-193 815.374-145q-47.627 48-115 48Q633-97 585-145t-48-115v-37H423v37q0 67-47.626 115-47.627 48-115 48Zm.038-126Q276-223 286.5-233.792 297-244.583 297-260v-37h-37q-15.417 0-26.208 10.706-10.792 10.706-10.792 26T233.912-234q10.912 11 26.5 11Zm440 0Q716-223 726.5-233.912q10.5-10.912 10.5-26.5T726.5-286.5Q716-297 700.412-297H663v36.706Q663-245 673.912-234t26.5 11ZM423-423h114v-114H423v114ZM260-663h37v-37.412Q297-716 286.294-726.5q-10.706-10.5-26-10.5T234-726.294q-11 10.706-11 26T233.792-674q10.791 11 26.208 11Zm403 0h37.412Q716-663 726.5-673.912q10.5-10.912 10.5-26.5T726.294-726.5q-10.706-10.5-26-10.5T674-726.5q-11 10.5-11 26.088V-663Z"/></svg>