<svg xmlns="http://www.w3.org/2000/svg" height="24" viewBox="0 -960 960 960" width="24"><path d="M481-46q-89.886 0-168.943-34Q233-114 174-173q-59-59-93-138.083-34-79.084-34-169Q47-570 81-649t93-138q59-59 138.083-93 79.084-34 169-34Q571-914 649.5-880T787-787q59 59 93 138.083 34 79.084 34 169Q914-390 880-311t-93 138q-59 59-137.738 93T481-46Zm-96-376q57 0 96-39.5t39-96.5q0-57-39-96t-96-39q-57 0-96.5 39T249-558q0 57 39.5 96.5T385-422Zm270.225 38q40.226 0 68-27.775 27.775-27.774 27.775-68Q751-520 723.225-548q-27.774-28-68-28Q615-576 586.5-548.225q-28.5 27.774-28.5 68Q558-440 586.5-412q28.5 28 68.725 28ZM481-172q81 0 148.5-39T739-313q-20-6-42-10t-43-4q-50.911 0-122.956 30.5Q459-266 415-179q16.5 4 33 5.5t33 1.5Zm-124.272-26Q390-270 433-302q43-32 63-44-26-8-54-13.5t-57-5.5q-44 0-86 10.5T217-325q24.713 41.08 60.356 74.04Q313-218 356.728-198Z"/></svg>