<svg xmlns="http://www.w3.org/2000/svg" height="20" viewBox="0 -960 960 960" width="20"><path d="M849.804-562.999q-19.587 0-34.044-14.307-14.456-14.307-14.456-34.694v-168q0-20.387 14.306-34.694 14.307-14.307 34.694-14.307 19.087 0 34.044 14.307 14.957 14.307 14.957 34.694v168q0 20.387-14.957 34.694-14.957 14.307-34.544 14.307Zm-723.892 432v-698.002h602.001v698.002H125.912Zm98.001-398.002h141.999v-36h122.001v36h141.999v-201.998H223.913v201.998Zm0 300h405.999v-201.998H223.913v201.998Zm0 0h405.999-405.999Z"/></svg>