<svg xmlns="http://www.w3.org/2000/svg" height="24" viewBox="0 -960 960 960" width="24"><path d="m701-177 70-44q7-5 7-13t-7-13l-70-44q-8-5-15.5-.5T678-278v88q0 9 7.5 13.5t15.5-.5Zm-35-437q6 0 10-4t4-10q0-6-4-10t-10-4H294q-6 0-10 4t-4 10q0 6 4 10t10 4h372Zm54 528q-62 0-105-43t-43-105q0-62 43-105t105-43q62 0 105 43t43 105q0 62-43 105T720-86ZM232-788h496q25 0 42.5 17.5T788-728v229q-38-11-77.5-9.5T633-494H294q-6 0-10 4t-4 10q0 6 4 10t10 4h281q-34 22-59.5 52.5T474-346H294q-6 0-10 4t-4 10q0 6 4 10t10 4h170q-5 18-8 36.5t-3 38.5q0 23 4 46.5t12 45.5l-33-20q-4-2-8-2t-8 2l-36 22q-4 2-8 2t-8-2l-36-22q-4-2-8-2t-8 2l-36 22q-4 2-8 2t-8-2l-36-22q-4-2-8-2t-8 2l-31 22q-3 2-9 4v-583q0-25 17.5-42.5T232-788Z"/></svg>