<svg xmlns="http://www.w3.org/2000/svg" height="24" viewBox="0 -960 960 960" width="24"><path d="M160-299.086q-22.087 0-37.544-15.457-15.457-15.456-15.457-37.544 0-22.087 15.457-37.543 15.457-15.457 37.544-15.457h226.999q22.088 0 37.544 15.457Q440-374.174 440-352.087q0 22.088-15.457 37.544-15.456 15.457-37.544 15.457H160Zm0-177.523q-22.087 0-37.544-15.456-15.457-15.457-15.457-37.544 0-22.087 15.457-37.544Q137.913-582.61 160-582.61h382.477q22.088 0 37.544 15.457 15.457 15.457 15.457 37.544 0 22.087-15.457 37.544-15.456 15.456-37.544 15.456H160Zm0-177.522q-22.087 0-37.544-15.457-15.457-15.457-15.457-37.544 0-22.087 15.457-37.544 15.457-15.457 37.544-15.457h382.477q22.088 0 37.544 15.457 15.457 15.457 15.457 37.544 0 22.087-15.457 37.544-15.456 15.457-37.544 15.457H160Zm502.479 466.524q-10.261 0-19.805-3.631-9.544-3.63-17.239-11.326l-86-86q-14.957-14.957-15.174-36.826-.218-21.87 15.739-37.827 14.957-14.957 36.544-15.174 21.587-.218 36.979 14.739l48.956 47.956L795-447.652q15.957-15.391 37.261-15.457 21.305-.065 37.262 15.892 15.522 15.957 15.739 37.327.217 21.369-15.739 37.326l-169.435 170q-7.696 7.696-17.522 11.326-9.826 3.631-20.087 3.631Z"/></svg>