<svg xmlns="http://www.w3.org/2000/svg" height="24" viewBox="0 -960 960 960" width="24"><path d="M504.615-380h70.77Q603-380 621.5-398.5 640-417 640-444.615v-66.154q0-23.692-12.769-36.462Q614.462-560 600-560q14.462 0 27.231-12.769Q640-585.539 640-609.231v-66.154Q640-703 621.5-721.5 603-740 575.385-740h-70.77Q477-740 458.5-721.5 440-703 440-675.385v66.154q0 23.692 12.769 36.462Q465.539-560 480-560q-14.461 0-27.231 12.769Q440-534.461 440-510.769v66.154Q440-417 458.5-398.5 477-380 504.615-380Zm0-320h70.77q10.769 0 17.692 6.923T600-675.385v70.77q0 10.769-6.923 17.692T575.385-580h-70.77q-10.769 0-17.692-6.923T480-604.615v-70.77q0-10.769 6.923-17.692T504.615-700Zm0 280q-10.769 0-17.692-6.923T480-444.615v-70.77q0-10.769 6.923-17.692T504.615-540h70.77q10.769 0 17.692 6.923T600-515.385v70.77q0 10.769-6.923 17.692T575.385-420h-70.77Zm-180 140Q297-280 278.5-298.5 260-317 260-344.615v-430.77Q260-803 278.5-821.5 297-840 324.615-840h430.77Q783-840 801.5-821.5 820-803 820-775.385v430.77Q820-317 801.5-298.5 783-280 755.385-280h-430.77Zm0-40h430.77q9.231 0 16.923-7.692Q780-335.385 780-344.615v-430.77q0-9.23-7.692-16.923Q764.616-800 755.385-800h-430.77q-9.23 0-16.923 7.692Q300-784.615 300-775.385v430.77q0 9.23 7.692 16.923Q315.385-320 324.615-320Zm-120 160Q177-160 158.5-178.5 140-197 140-224.615v-450.77q0-8.538 5.73-14.269 5.731-5.731 14.27-5.731 8.538 0 14.269 5.731T180-675.385v450.77q0 9.231 7.692 16.923Q195.384-200 204.615-200h450.77q8.538 0 14.269 5.731T675.385-180q0 8.539-5.731 14.27-5.731 5.73-14.269 5.73h-450.77ZM300-800v480-480Z"/></svg>