<svg xmlns="http://www.w3.org/2000/svg" height="20" viewBox="0 -960 960 960" width="20"><path d="M480-360q50 0 85-35t35-85q0-50-35-85t-85-35q-50 0-85 35t-35 85q0 50 35 85t85 35Zm-.226 32q-63.62 0-107.697-44.303Q328-416.606 328-480.226q0-63.62 44.303-107.697Q416.606-632 480.226-632q63.62 0 107.697 44.303Q632-543.394 632-479.774q0 63.62-44.303 107.697Q543.394-328 479.774-328ZM84-464q-6.8 0-11.4-4.547-4.6-4.547-4.6-11.269 0-6.723 4.6-11.453Q77.2-496 84-496h116q6.8 0 11.4 4.547 4.6 4.547 4.6 11.269 0 6.723-4.6 11.453Q206.8-464 200-464H84Zm676 0q-6.8 0-11.4-4.547-4.6-4.547-4.6-11.269 0-6.723 4.6-11.453Q753.2-496 760-496h116q6.8 0 11.4 4.547 4.6 4.547 4.6 11.269 0 6.723-4.6 11.453Q882.8-464 876-464H760ZM480.184-744q-6.723 0-11.453-4.6Q464-753.2 464-760v-116q0-6.8 4.547-11.4 4.547-4.6 11.269-4.6 6.723 0 11.453 4.6Q496-882.8 496-876v116q0 6.8-4.547 11.4-4.547 4.6-11.269 4.6Zm0 676q-6.723 0-11.453-4.6Q464-77.2 464-84v-116q0-6.8 4.547-11.4 4.547-4.6 11.269-4.6 6.723 0 11.453 4.6Q496-206.8 496-200v116q0 6.8-4.547 11.4-4.547 4.6-11.269 4.6ZM270.461-667.769l-64.615-64.846q-4.846-4.616-5.231-10.27-.384-5.654 5.465-11.269 4.816-5.615 10.368-5.615 5.552 0 10.937 5.615L293-690.308q6.385 5.557 6.385 11.683 0 6.127-6 11.684-5 5.556-11.154 5.556t-11.77-6.384Zm462.154 461.923L667-269.692q-6.385-5.282-6.385-11.103 0-5.82 6.385-12.205 4.231-5.615 10.577-5.615t11.962 6.384l64.615 64.846q4.846 4.616 5.231 10.27.384 5.654-4.987 11.269-5.859 5.615-10.629 5.615-4.769 0-11.154-5.615Zm-65.674-460.769q-5.556-5-5.556-11.154t6.384-11.77l64.846-64.615q5.616-4.846 10.77-4.731 5.154.116 10.769 5.009 5.615 5.337 5.615 10.107 0 4.769-5.615 11.154L690.308-667q-5.557 6.385-11.683 6.385-6.127 0-11.684-6ZM205.846-205.679q-5.615-5.217-5.615-10.769 0-5.552 5.615-10.937L269.692-293q5.282-5.385 11.103-5.385 5.82 0 12.205 5.385 4.846 5.231 4.388 11.244-.458 6.013-5.157 11.295l-64.846 64.615q-5.385 5.615-10.654 6-5.27.385-10.885-5.833ZM480-480Z"/></svg>