<svg xmlns="http://www.w3.org/2000/svg" height="24" viewBox="0 -960 960 960" width="24"><path d="M578-186q-5.95 0-9.975-4.035-4.025-4.035-4.025-10t4.025-9.965q4.025-4 9.975-4h195L614-326q-5.158-3.415-6.079-8.707Q607-340 610.06-345.091q3.06-5.091 8.5-6Q624-352 629-349l161 112-68-184q-2-5 1-10.5t8-7.5q5-2 11 1t8 8l66 182 51-187q2-5 6.5-8.5t9.5-1.5q5 2 9 6.5t2 9.5l-66 243H578ZM229-306l-57.333 57.333Q165-242 155.5-245.542 146-249.083 146-259v-495q0-24.75 17.625-42.375T206-814h468q24.75 0 42.375 17.625T734-754v194h-28v-194q0-14-9-23t-23-9H206q-14 0-23 9t-9 23v420h306v28H229Zm71-320h280q5.95 0 9.975-4.035 4.025-4.035 4.025-10T589.975-650q-4.025-4-9.975-4H300q-5.95 0-9.975 4.035-4.025 4.035-4.025 10t4.025 9.965q4.025 4 9.975 4Zm0 160h160q5.95 0 9.975-4.035 4.025-4.035 4.025-10T469.975-490q-4.025-4-9.975-4H300q-5.95 0-9.975 4.035-4.025 4.035-4.025 10t4.025 9.965q4.025 4 9.975 4ZM174-334v-452 452Z"/></svg>