<svg xmlns="http://www.w3.org/2000/svg" height="24" viewBox="0 -960 960 960" width="24"><path d="M578-145q-23 0-39-16t-16-39q0-23 16-39t39-16h65l-52-37q-19-14-23.5-35.5T576-368q13-19 35-23.5t41 8.5l54 37-23-61q-8-21 2-42t32-29q22-8 43 2t29 32l21 60 17-62q6-22 25.5-33.5T894-485q22 6 34 25.5t6 41.5l-73 273H578ZM284-581h273q23 0 39-16t16-39q0-23-16-39t-39-16H284q-23 0-39 16t-16 39q0 23 16 39t39 16Zm0 152h153q23 0 39-16t16-39q0-23-16-39t-39-16H284q-23 0-39 16t-16 39q0 23 16 39t39 16Zm-75 172-98 98q-15 15-34.5 7T57-181v-556q0-53 36.5-89.5T183-863h474q53 0 89.5 36.5T783-737v185q-15-5-31-6.5t-32-1.5q-105 0-172.5 69T480-320q0 16 1.5 32t6.5 31H209Z"/></svg>