<svg xmlns="http://www.w3.org/2000/svg" height="20" viewBox="0 -960 960 960" width="20"><path d="M584-192q-16.575 0-27.787-10.5Q545-213 545-230t11.213-28q11.212-11 27.787-11h108l-89-62q-14-9-16-24t7-29q8.635-14 23.986-16.5 15.352-2.5 28.784 6.5L736-332l-37-102q-6-16 .5-29.5T722-483q16-6 30 .5t19 22.5l37 102 29-105q4.922-16 18.211-24.5Q868.5-496 884.25-491 900-486 908-472.5t3 29.5l-68 251H584ZM323.96-600h215.757Q555-600 565.5-610.289q10.5-10.29 10.5-25.5Q576-651 565.662-661.5 555.323-672 540.04-672H324.283Q309-672 298.5-661.711q-10.5 10.29-10.5 25.5Q288-621 298.338-610.5 308.677-600 323.96-600Zm.04 144h120q15.3 0 25.65-10.289 10.35-10.29 10.35-25.5Q480-507 469.65-517.5 459.3-528 444-528H324q-15.3 0-25.65 10.289-10.35 10.29-10.35 25.5Q288-477 298.35-466.5 308.7-456 324-456Zm-60 144-89 89q-8 8-19.5 3.833Q144-223.333 144-235v-508.595Q144-774 165.162-795t50.878-21h432.243Q678-816 699-794.85T720-744v167q-88 1-164 66t-76 165v17q0 9 2 17H264Z"/></svg>