<svg xmlns="http://www.w3.org/2000/svg" height="24" viewBox="0 -960 960 960" width="24"><path d="M578-180q-8.5 0-14.25-5.758-5.75-5.757-5.75-14.269t5.75-14.242Q569.5-220 578-220h176.077L610.538-321.154q-7.198-4.934-8.483-12.582-1.286-7.649 3.145-14.796 4.431-7.146 12.308-8.423 7.877-1.276 14.954 3.109l145.307 100.923-61.308-166q-2.923-7.308 1-15 3.924-7.692 11.462-10.616 7.539-2.923 15.616 1 8.076 3.924 11 11.462l59.538 164.461 46.154-168.999q2.692-7.539 9.269-12.193t14.115-1.961q7.539 2.692 12.577 9.269 5.039 6.577 2.347 14.115L832.615-180H578ZM231.539-300l-63.949 63.949q-7.436 7.436-17.513 3.558Q140-236.372 140-247.231v-508.154q0-26.654 18.981-45.634Q177.961-820 204.615-820h470.77q26.654 0 45.634 18.981Q740-782.039 740-755.385v196.077q-5-.461-10-.577-5-.115-10-.115t-10 .115q-5 .116-10 .577v-196.077q0-10.769-6.923-17.692T675.385-780h-470.77q-10.769 0-17.692 6.923T180-755.385V-340h300.692q-.461 5-.577 10-.115 5-.115 10t.115 10q.116 5 .577 10H231.539Zm73.076-320h270.77q8.5 0 14.25-5.758 5.75-5.757 5.75-14.269t-5.75-14.242q-5.75-5.731-14.25-5.731h-270.77q-8.5 0-14.25 5.758-5.75 5.757-5.75 14.269t5.75 14.242q5.75 5.731 14.25 5.731Zm0 160h150.77q8.5 0 14.25-5.758 5.75-5.757 5.75-14.269t-5.75-14.242q-5.75-5.731-14.25-5.731h-150.77q-8.5 0-14.25 5.758-5.75 5.757-5.75 14.269t5.75 14.242q5.75 5.731 14.25 5.731ZM180-340v-440 440Z"/></svg>