<svg xmlns="http://www.w3.org/2000/svg" height="24" viewBox="0 -960 960 960" width="24"><path d="M440-368.479v-66.999h80q39.218 0 63.848-24.913 24.631-24.913 24.631-64.131v-66.999q0-39.218-24.631-63.849Q559.218-680 520-680H395.478q-18.682 0-31.319 12.64-12.638 12.641-12.638 31.327 0 18.685 12.8 31.599 12.8 12.913 31.722 12.913H520v66.999h-80q-39.218 0-63.848 24.913-24.631 24.913-24.631 64.131v102.477q0 22.088 15.457 37.544Q382.435-280 404.522-280h160q18.682 0 31.319-12.8 12.638-12.8 12.638-31.722 0-18.682-12.638-31.319-12.637-12.638-31.319-12.638H440ZM206.783-100.782q-44.305 0-75.153-30.848-30.848-30.848-30.848-75.153v-546.434q0-44.305 30.848-75.153 30.848-30.848 75.153-30.848h546.434q44.305 0 75.153 30.848 30.848 30.848 30.848 75.153v546.434q0 44.305-30.848 75.153-30.848 30.848-75.153 30.848H206.783Zm0-106.001h546.434v-546.434H206.783v546.434Zm0-546.434v546.434-546.434Z"/></svg>