<svg xmlns="http://www.w3.org/2000/svg" height="20" viewBox="0 -960 960 960" width="20"><path d="M432-375v-61h96q40.7 0 63.85-23.65T615-524v-61q0-40.7-23.15-63.85T528-672H388q-18.3 0-30.65 12.289-12.35 12.29-12.35 30.5Q345-611 357.85-598T389-585h139v61h-96q-40.7 0-63.85 23.65T345-436v89q0 24.3 17.35 41.65Q379.7-288 404-288h168q18.3 0 30.65-12.789 12.35-12.79 12.35-31Q615-350 602.65-362.5T572-375H432ZM228-110q-49.7 0-83.85-34.15Q110-178.3 110-228v-504q0-49.7 34.15-83.85Q178.3-850 228-850h504q49.7 0 83.85 34.15Q850-781.7 850-732v504q0 49.7-34.15 83.85Q781.7-110 732-110H228Z"/></svg>