<svg xmlns="http://www.w3.org/2000/svg" height="24" viewBox="0 -960 960 960" width="24"><path d="M273.891-282.87 401.978-480 273.891-677.13 401.978-480l-20.141 30.641q-20.141 30.642-43.902 67.544-23.761 36.902-43.902 67.924l-20.142 31.021Zm-166.087 91.001L292.826-480 107.804-768.131h540.653l193.848 273.675-5.5 7.891q-27.957-13.63-58.25-21.044-30.294-7.413-61.925-7.13L600.957-677.13H273.891L401.978-480 273.891-282.87h167.913q-4.195 22.631-4.554 45.381t3.359 45.62H107.804Zm580.326 50.478 142.348-141.348-45.348-45.348-97 95-39-39-45.348 46.348 84.348 84.348Zm29 106.652q-83 0-141.5-58.5t-58.5-141.5q0-83 58.5-141.5t141.5-58.5q83 0 141.5 58.5t58.5 141.5q0 83-58.5 141.5t-141.5 58.5Z"/></svg>