<svg xmlns="http://www.w3.org/2000/svg" height="20" viewBox="0 -960 960 960" width="20"><path d="M349.891-314.87 481.978-480 349.891-645.13 481.978-480l-20.772 25.681q-20.772 25.682-45.271 56.584-24.499 30.902-45.271 56.884l-20.773 25.981Zm-170.087 83.001L376.826-480 179.804-728.131h450.653l193.848 243.675-5.5 7.891q-26.957-11.63-54.25-17.544-27.294-5.913-56.925-4.63L589.957-645.13H349.891L481.978-480 349.891-314.87h114.913q-6.195 19.631-9.054 40.381t-2.141 42.62H179.804Zm509.326 84.478 133.348-138.348-38.348-36.348-96.286 99-38.714-39-37.348 37.348 77.348 77.348Zm27.774 104.652q-79.774 0-135.774-56.226t-56-136q0-79.774 56.227-135.774 56.226-56 136-56 79.773 0 135.773 56.226t56 136q0 79.774-56.226 135.774t-136 56Z"/></svg>