<svg xmlns="http://www.w3.org/2000/svg" height="24" viewBox="0 -960 960 960" width="24"><path d="m688.13-141.391 142.348-141.348-45.348-45.348-97 95-39-39-45.348 46.348 84.348 84.348Zm29 106.652q-83 0-141.5-58.5t-58.5-141.5q0-83 58.5-141.5t141.5-58.5q83 0 141.5 58.5t58.5 141.5q0 83-58.5 141.5t-141.5 58.5Zm-609.326-157.13L292.826-480 107.804-768.131h540.653l193.848 273.675-5.5 7.891q-26.631-13.587-60.403-21.261-33.772-7.674-63.837-6.913-118.478 1.522-196.956 85.093-78.479 83.572-78.479 195.668 0 10.824.74 21.108.739 10.283 2.739 21.001H107.804Z"/></svg>