<svg xmlns="http://www.w3.org/2000/svg" height="20" viewBox="0 -960 960 960" width="20"><path d="M452-157.461v-268.231L272.154-245.846q-5.615 5.615-10.769 5.5-5.154-.115-11.539-6.5t-6.385-11.654q0-5.269 6.385-11.654L459.692-480 248.899-690.793q-5.668-5.668-5.553-11.322.115-5.654 6.5-12.039t11.654-6.385q5.269 0 11.654 6.385L452-534.308v-268.231q0-13.923 8.827-20.73 8.827-6.808 19.314-6.808 4.859 0 10.005 1.731 5.146 1.73 9.777 5.961l154.769 154.77q4.231 4.63 6.347 9.392 2.115 4.761 2.115 10.423t-2.115 10.423q-2.116 4.762-6.347 8.992L506.308-480l148.384 148.385q4.231 4.63 6.347 9.392 2.115 4.761 2.115 10.423t-2.115 10.423q-2.116 4.762-6.347 8.992l-154.769 154.77q-4.549 4.231-9.6 5.961-5.05 1.731-9.834 1.731-10.335 0-19.412-6.808-9.077-6.807-9.077-20.73Zm32-346.847L627.692-648 484-793.23v288.922Zm0 337.538L627.692-312 484-455.692v288.922Z"/></svg>