<svg xmlns="http://www.w3.org/2000/svg" height="20" viewBox="0 -960 960 960" width="20"><path d="M110.175-244Q106-244 103-246.875T100-254v-452q0-4.25 2.825-7.125 2.824-2.875 7-2.875 4.175 0 7.175 2.875t3 7.125v322h338v-264q0-7.7 6.15-13.85Q470.3-668 478-668h290q38.55 0 65.275 26.725Q860-614.55 860-576v322q0 4.25-2.825 7.125-2.824 2.875-7 2.875-4.175 0-7.175-2.875T840-254v-110H120v110q0 4.25-2.825 7.125-2.824 2.875-7 2.875Zm165.707-234Q245-478 223.5-499.618q-21.5-21.617-21.5-52.5Q202-583 223.618-604.5q21.617-21.5 52.5-21.5Q307-626 328.5-604.382q21.5 21.617 21.5 52.5Q350-521 328.382-499.5q-21.617 21.5-52.5 21.5ZM478-384h362v-192q0-29.7-21.15-50.85Q797.7-648 768-648H478v264ZM276-498q22.4 0 38.2-15.8Q330-529.6 330-552q0-22.4-15.8-38.2Q298.4-606 276-606q-22.4 0-38.2 15.8Q222-574.4 222-552q0 22.4 15.8 38.2Q253.6-498 276-498Zm0-57Zm202-93v264-264Z"/></svg>