<svg xmlns="http://www.w3.org/2000/svg" height="20" viewBox="0 -960 960 960" width="20"><path d="M325.818-19Q252-19 200-71.129 148-123.257 148-197v-626q0-48.675 34.662-83.338Q217.325-941 266-941h120q48.675 0 83.338 34.662Q504-871.675 504-823v626q0 73.743-52.182 125.871Q399.636-19 325.818-19ZM326-137q26 0 43-17.5t17-42.5q0-25-17-42.5T326-257q-25 0-42.5 17.5T266-197q0 25 17.5 42.5T326-137Zm368-26q-48.675 0-83.338-34.662Q576-232.325 576-281v-398q0-48.675 34.662-83.338Q645.325-797 694-797h48q48.675 0 83.338 34.662Q860-727.675 860-679v398q0 48.675-34.662 83.338Q790.675-163 742-163h-48Z"/></svg>