<svg xmlns="http://www.w3.org/2000/svg" height="20" viewBox="0 -960 960 960" width="20"><path d="M345.799-52.476q-65.54 0-111.671-46.272t-46.131-111.729v-599.046q0-40.425 28.788-69.213 28.788-28.788 69.214-28.788h120q40.425 0 69.213 28.788Q504-849.948 504-809.523v599.046q0 65.457-46.33 111.73-46.33 46.271-111.871 46.271Zm.2-98.001q26 0 43-17.5t17-42.5q0-25-17-42.5t-43-17.5q-25 0-42.5 17.5t-17.5 42.5q0 25 17.5 42.5t42.5 17.5Zm328.002-45.999q-40.425 0-69.213-28.788Q576-254.052 576-294.477v-371.046q0-40.425 28.788-69.213 28.788-28.788 69.213-28.788h48q40.426 0 69.214 28.788 28.788 28.788 28.788 69.213v371.046q0 40.425-28.788 69.213-28.788 28.788-69.214 28.788h-48Z"/></svg>