<svg xmlns="http://www.w3.org/2000/svg" height="20" viewBox="0 -960 960 960" width="20"><path d="M685.217-135.651 823.13-278.565l-42.913-40.913-96.287 99-38.713-39-41.913 41.913 81.913 81.914Zm-390.434-431.87h370.434v-72H294.783v72ZM712.991-35.565q-79.774 0-135.774-56.226t-56-136q0-79.774 56.226-135.774t136-56q79.774 0 135.774 56.227 56 56.226 56 136 0 79.773-56.226 135.773t-136 56ZM124.782-64.91v-768.612h710.436v375.655q-27.388-16.116-58.797-24.407-31.409-8.29-64.639-8.29v-23.739H294.783v72h262.869q-16.518 11.307-30.606 24.61-14.089 13.303-26.22 28.607H294.783v72h166.26q-6.695 21.522-10.326 44.326-3.63 22.805-3.63 46.892 0 38.957 12.326 77.696 12.326 38.74 35.413 71.435L480-64.91l-59.391-48.392-59.392 48.392-59.391-48.392-59.957 48.392-59.392-48.392-57.695 48.392Z"/></svg>