<svg xmlns="http://www.w3.org/2000/svg" height="20" viewBox="0 -960 960 960" width="20"><path d="m697-178 97-101-13-11-85.287 89L658-240l-12 11 51 51ZM328-590h304v-20H328v20ZM719.774-94Q661-94 620.5-134.726t-40.5-99.5Q580-293 620.726-333.5t99.5-40.5Q779-374 819.5-333.274t40.5 99.5Q860-175 819.274-134.5t-99.5 40.5ZM196-160v-604h568v273q-5 0-9.533.5-4.533.5-10.467.5v-254H216v528h254q0 11 1.118 23 1.119 12 3.882 23l-6 3-37-10-48 17-48-17-48 17-48-17-44 17Zm132-190h158q4-7 9-11t10-9H328v20Zm0-120h275q2 7-4.5 7.5T585-473v-17H328v20ZM216-216v-528 528Z"/></svg>