<svg xmlns="http://www.w3.org/2000/svg" height="24" viewBox="0 -960 960 960" width="24"><path d="M373.769-160q-12.923 0-25.115-5.231-12.193-5.23-20.885-13.923L179.154-327.769q-8.693-8.692-13.923-20.885Q160-360.846 160-373.769v-212.462q0-12.923 5.231-25.115 5.23-12.193 13.923-20.885l148.615-148.615q8.692-8.693 20.885-13.923Q360.846-800 373.769-800h212.462q12.923 0 25.115 5.231 12.193 5.23 20.885 13.923l148.615 148.615q8.693 8.692 13.923 20.885Q800-599.154 800-586.231v212.462q0 12.923-5.231 25.115-5.23 12.193-13.923 20.885L632.231-179.154q-8.692 8.693-20.885 13.923Q599.154-160 586.231-160H373.769ZM364-200h232l164-164v-232L596-760H364L200-596v232l164 164Zm116-251.692 99.846 99.846q5.615 5.615 13.769 6 8.154.385 14.539-6T614.539-366q0-7.769-6.385-14.154L508.308-480l99.846-99.846q5.615-5.615 6-13.769.385-8.154-6-14.539T594-614.539q-7.769 0-14.154 6.385L480-508.308l-99.846-99.846q-5.615-5.615-13.769-6-8.154-.385-14.539 6T345.461-594q0 7.769 6.385 14.154L451.692-480l-99.846 99.846q-5.615 5.615-6 13.769-.385 8.154 6 14.539T366-345.461q7.769 0 14.154-6.385L480-451.692ZM480-480Z"/></svg>