<svg xmlns="http://www.w3.org/2000/svg" height="20" viewBox="0 -960 960 960" width="20"><path d="M480-122.154Q334-249 261-355.077T188-552q0-120.769 85.231-206.385Q358.461-844 480-844q134.077 0 218.808 95.615Q783.539-652.769 772-497.539l101-101L895.539-576 756-436.461 616.461-576 639-598.539l101 101q11.538-138.153-63.346-226.307Q601.769-812 480-812q-108.461 0-184.231 75.385Q220-661.231 220-552q0 72.846 65.115 170.269Q350.231-284.308 480-164.077q20-17 44.885-41.615 24.884-24.616 41.884-41.616-14.846-15.307-19.115-33.73-4.269-18.424-4.269-30.962 0-32.077 24.269-56.346T624-392.615q32.077 0 56.346 24.269T704.615-312q0 33.077-24.269 56.846T624-231.385q-5.538 0-12.5-.769-6.961-.769-10.731-4.077-27.461 28.462-57.923 57.423-30.461 28.962-62.846 56.654Z"/></svg>