<svg xmlns="http://www.w3.org/2000/svg" height="20" viewBox="0 -960 960 960" width="20"><path d="M703.154-570.846q22.154-47.539 30.538-89.154 8.385-41.615 11.077-85H636.615l-23.153 90.385 89.692 83.769ZM216-214.462q41.846.077 84-11.307 42.154-11.385 78.154-29.693l-85.616-85.153-76.538 16v110.153Zm426.385-204.384-22.77-22.769q14.077-16.847 30.27-42.654 16.192-25.808 35.5-58.039L578.538-644.692 613.461-777H776v38q0 88.846-38.461 173.115-38.462 84.27-95.154 147.039ZM222-184h-38v-165.539l120-25.23 105.231 105.538q30.846-17.154 71.115-42.923 40.269-25.769 69.808-52.077L148.461-766.923l22.308-22.308 617.462 618.462-22.308 22.308-194-193q-75.077 69.307-165.846 113.384T222-184Zm481.154-386.846Zm-325 315.384Z"/></svg>