<svg xmlns="http://www.w3.org/2000/svg" height="20" viewBox="0 -960 960 960" width="20"><path d="M705.565-600.826q15.761-35.044 23.163-70.489 7.402-35.446 11.924-70.815h-90.326l-16.522 70.456 71.761 70.848ZM218.87-219.348q37.043-3.478 71.728-14.239 34.685-10.761 69.011-26.043l-70.522-68.044-70.217 15.522v92.804Zm458.652-176.369-60.37-59.414q9.805-11.326 24.837-34.804 15.033-23.478 21.315-35.043L543.369-644.13l41.587-181.001h239.175v57.327q0 104.282-39.881 197.902-39.88 93.619-106.728 174.185ZM192.957-135.869h-57.088v-242.892l179.327-39.109 122.217 119.022q12.217-7.891 35.044-21.935 22.826-14.043 39.391-27.087L89.522-771.196l53.108-52.391 679 680L769-91.196 570.5-288.217q-82.239 67.239-177.717 109.793-95.479 42.555-199.826 42.555Zm512.608-464.957ZM359.609-259.63Z"/></svg>