<svg xmlns="http://www.w3.org/2000/svg" height="24" viewBox="0 -960 960 960" width="24"><path d="M715.609-609.044q14.434-33.739 23.021-69.565 8.587-35.826 12.457-74.608h-85.044l-15.869 83.26 65.435 60.913ZM206.783-209.913q37.739-4.131 75.13-13.566 37.391-9.434 73.435-24.739l-65.87-64.739-82.695 17.87v85.174Zm502.088-177.783-77.784-75.522q6.174-7.044 18.478-24.173 12.304-17.13 15.608-24.739L534.781-632.217l45.479-227.001h278.958v64.044q0 107.304-38.717 210.587-38.717 103.283-111.63 196.891Zm-544.61 286.914h-63.479v-279.654l222.044-48.348 130.697 127.87q17.695-10.652 30.238-19.891 12.543-9.239 23.152-17.978L54.87-790.826l63.348-61.653 736 736L792-54.826 583.001-262.695q-92.566 75.565-198.696 118.739-106.131 43.174-220.044 43.174Zm551.348-508.262ZM355.348-248.218Z"/></svg>