<svg xmlns="http://www.w3.org/2000/svg" height="24" viewBox="0 -960 960 960" width="24"><path d="M717.077-586.922q18.077-41.77 28.269-83.578 10.193-41.807 14.039-89.5h-97.078L642.23-658.307l74.847 71.385ZM200-201.231q41.923-1.461 85.5-11.653 43.578-10.193 83.578-28.347l-74.309-75.077-94.769 19v96.077Zm471.691-196.693-43.383-43.383q10.538-12.924 29.885-40.577 19.346-27.654 30.5-48.27L577.77-637.846l35.461-182.153h206.768v37q0 100.923-38.231 199.307-38.231 98.384-110.077 185.768Zm-494.69 257.923h-37v-205.768L315-381.384l110.615 111.769q35.923-21.077 60.308-37.962 24.386-16.885 44.155-34.039L85.233-786.461l42.153-42.153 705.228 705.228-42.153 42.153-216.999-217q-88.538 76.154-191.423 117.193-102.884 41.039-205.038 41.039Zm540.076-446.921ZM369.078-241.231Z"/></svg>