<svg xmlns="http://www.w3.org/2000/svg" height="24" viewBox="0 -960 960 960" width="24"><path d="m694.522-386.717-66.37-65.414q7.805-9.326 24.837-33.304 17.033-23.978 21.315-33.543L553.369-636.13l40.587-212.001h254.175v51.327q0 108.282-38.881 211.402-38.88 103.119-114.728 198.685ZM162.957-111.869h-51.088v-253.892l209.327-44.109 122.217 121.022q24.217-14.891 39.044-25.435 14.826-10.543 27.391-20.587L55.522-789.196l59.108-58.391 736 736L792-53.196 575.5-269.217q-92.239 75.239-197.717 116.293-105.479 41.055-214.826 41.055Z"/></svg>