<svg xmlns="http://www.w3.org/2000/svg" height="24" viewBox="0 -960 960 960" width="24"><path d="M211.538-315.384q-13.73 0-23.019-9.289-9.288-9.288-9.288-23.019v-64.616h-26.924q-13.73 0-23.019-9.288Q120-430.885 120-444.615v-70.77q0-13.73 9.288-23.019 9.289-9.288 23.019-9.288h26.924v-64.774q0-13.765 9.288-22.957 9.289-9.193 23.019-9.193h596.155q13.73 0 23.019 9.289Q840-626.039 840-612.308v264.488q0 14.051-9.288 23.243-9.289 9.193-23.019 9.193H211.538Zm6.924-40.001H520v-249.23H218.462v249.23Z"/></svg>