<svg xmlns="http://www.w3.org/2000/svg" height="24" viewBox="0 -960 960 960" width="24"><path d="M830.692-273.307 800-303.231v-432.154q0-10.769-6.923-17.692T775.385-760H344l-40-40h471.385Q803-800 821.5-781.5 840-763 840-735.385v430.77q0 8-2.269 15.961-2.269 7.962-7.039 15.347ZM192.384-798.385 230.769-760h-46.154q-9.23 0-16.923 7.692Q160-744.615 160-735.385v430.77q0 10.769 6.923 17.692T184.615-280h469.077L100.615-833.538Q95-839.154 94.5-847.192q-.5-8.039 6.115-14.654 6.385-6.385 14.154-6.385t14.154 6.385L848-142.769q5.615 5.615 6 13.769.385 8.154-6 14.539-5.615 5.615-13.769 5.615t-14.539-5.615L692.615-240H600v47.693q0 13.923-9.192 23.115Q581.616-160 567.693-160H392.307q-13.923 0-23.115-9.192Q360-178.384 360-192.307V-240H184.615Q157-240 138.5-258.5 120-277 120-304.615v-430.77q0-28.538 18.5-45.769 18.5-17.231 38.5-17.231h15.384Zm236.231 294.077Zm156.539-15.307Z"/></svg>