<svg xmlns="http://www.w3.org/2000/svg" height="20" viewBox="0 -960 960 960" width="20"><path d="M286.189-448Q213-448 159.5-493.5T106-610q0-68 47-115t115-47h30v-109q0-24.3 17.338-41.65Q332.677-940 356.96-940h245.757Q627-940 644.5-922.65T662-881v109h30q68 0 115 47t47 115q0 71-53.5 116.5T673.811-448H594q10.857-10.684 19.429-23.842Q622-485 629-501l9-23q0 1-1.412 2.5T633-520h41v-108h-41q-32.382 0-58.191 18Q549-592 538-563l-9 23q-7 14-20.125 23T480-508q-16 0-28.5-9T432-540l-9-23q-12-29-37.5-47T328-628h-42v108h41q-1.061 0-2.53-1.5Q323-523 322-524l9 23q6 16 15.071 29.158Q355.143-458.684 366-448h-79.811ZM312-68q-22 0-40.188-9.45Q253.625-86.9 241-104h-86q-51.583 0-88.292-36.959Q30-177.918 30-229.86v-107.86Q30-360 45.79-376q15.789-16 38-16Q106-392 122-376.169q16 15.83 16 38.101v107.797q0 7.271 5.062 12.771Q148.125-212 155-212h85q12.625-17.1 31.312-26.55Q290-248 312-248h30v-42q0-22.3 15.789-38.15 15.79-15.85 38-15.85Q418-344 434-328.15T450-290v42h60v-42q0-22.3 15.789-38.15 15.79-15.85 38-15.85Q586-344 602-328.15T618-290v42h30q22 0 40.188 9.45Q706.375-229.1 719-212h86q6.875 0 11.938-5.331 5.062-5.33 5.062-12.601v-107.797Q822-360 837.789-376q15.79-16 38-16Q898-392 914-376.15T930-338v108q0 52-36.708 89-36.709 37-88.292 37h-85q-12.625 17.1-31.312 26.55Q670-68 648-68H312Z"/></svg>