<svg xmlns="http://www.w3.org/2000/svg" height="20" viewBox="0 -960 960 960" width="20"><path d="M288.189-459.846q-45.574-6.154-74.881-40.462Q184-534.615 184-581.539q0-52.307 35.846-87.769 35.846-35.461 88.154-35.461h43.385q10.769 0 17.692-6.924Q376-718.616 376-729.385v-115.077q0-12.223 8.03-20.265 8.031-8.042 20.237-8.042H555.41q12.206 0 20.398 8.042T584-844.462v115.077q0 10.769 6.923 17.692 6.923 6.924 17.692 6.924H652q52.308 0 88.154 35.461Q776-633.846 776-581.539q0 46.924-29.307 81.231-29.308 34.308-74.882 40.462h-90.965q3.242-5.607 5.852-11.65 2.61-6.043 6.071-11.658l9-23q4.308-10.154 12.781-16T633-528h39v-32h-39q-19.459 0-35.384 10.654-15.924 10.653-23.385 28.5l-9 23q-7.231 16.154-19.202 27.384-11.972 11.231-27.568 17.385h-76.922q-15.846-6.154-27.193-17.385-11.346-11.23-18.577-27.384l-9-23q-8.461-17.847-24.077-28.5Q347.077-560 328-560h-40v32h39q10.093 0 18.893 5.846 8.799 5.846 12.338 16l9 23q3.461 5.615 6.071 11.658 2.61 6.043 5.852 11.65h-90.965ZM304.308-136q-17.693 0-29.649-10.219-11.957-10.219-13.121-25.781H175q-36.122 0-61.561-25.69-25.44-25.69-25.44-62.17v-107.86q0-6.818 4.521-11.549Q97.04-384 103.789-384q6.749 0 11.48 4.561Q120-374.877 120-368.068v107.797q0 22.963 16.216 39.617Q152.433-204 175-204h86.538q1.164-15.562 13.121-25.781Q286.615-240 304.308-240H380v-80q0-6.838 4.52-11.419T395.789-336q6.75 0 11.48 4.581Q412-326.838 412-320v80h136v-80q0-6.838 4.52-11.419T563.789-336q6.75 0 11.48 4.581Q580-326.838 580-320v80h75.692q17.693 0 29.649 10.219 11.957 10.219 13.121 25.781h87.307q22.568 0 38.784-16.484 16.216-16.485 16.216-39.448v-107.797q0-6.809 4.52-11.54Q849.81-384 856.559-384t11.48 4.581q4.73 4.581 4.73 11.419v108q0 36.539-25.439 62.269Q821.891-172 785.769-172h-87.307q-1.164 15.562-13.121 25.781Q673.385-136 655.692-136H304.308Z"/></svg>