<svg xmlns="http://www.w3.org/2000/svg" height="20" viewBox="0 -960 960 960" width="20"><path d="M288.189-456Q228-456 186-498q-42-42-42-102t42-102q42-42 102-42h48v-132q0-15.3 10.338-25.65Q356.677-912 371.96-912h215.757Q603-912 613.5-901.65 624-891.3 624-876v132h48q60 0 102 42t42 102q0 60-42 102t-102.189 42H587q7.857-8.684 13.929-19.342Q607-486 612-497l9-23q2-4 5.088-6t6.912-2h39v-72h-39q-26.382 0-47.691 14.5T555-547l-9 23q-8 20-26.125 32T480-480q-22 0-39.5-12T415-524l-9-23q-10-24-31-38.5T328-600h-40v72h39q3.939 0 6.97 2 3.03 2 5.03 6l9 23q5 11 11.071 21.658Q365.143-464.684 373-456h-84.811ZM312-96q-20 0-36.188-9.45Q259.625-114.9 250-132h-95q-44.583 0-75.792-31.459Q48-194.918 48-239.86v-107.86Q48-363 58.29-373.5 68.578-384 83.79-384q15.21 0 25.71 10.331 10.5 10.33 10.5 25.601v107.797Q120-225 130.062-214.5 140.125-204 155-204h95q9.625-17.1 25.812-26.55Q292-240 312-240h48v-60q0-15.3 10.289-25.65 10.29-10.35 25.5-10.35Q411-336 421.5-325.65 432-315.3 432-300v60h96v-60q0-15.3 10.289-25.65 10.29-10.35 25.5-10.35Q579-336 589.5-325.65 600-315.3 600-300v60h48q20 0 36.188 9.45Q700.375-221.1 710-204h95q14.875 0 24.938-10.331Q840-224.661 840-239.932v-107.797Q840-363 850.289-373.5q10.29-10.5 25.5-10.5Q891-384 901.5-373.65 912-363.3 912-348v108q0 45-31.208 76.5Q849.583-132 805-132h-95q-9.625 17.1-25.812 26.55Q668-96 648-96H312Z"/></svg>