<svg xmlns="http://www.w3.org/2000/svg" height="24" viewBox="0 -960 960 960" width="24"><path d="M264.615-120.769q-27.615 0-46.115-18.5-18.5-18.5-18.5-46.115v-589.232q0-27.615 18.5-46.115 18.5-18.5 46.115-18.5h430.77q27.615 0 46.115 18.5 18.5 18.5 18.5 46.115v589.232q0 27.615-18.5 46.115-18.5 18.5-46.115 18.5h-430.77ZM240-500h180v-30.769h120V-500h180v-274.616q0-9.23-7.692-16.923-7.693-7.692-16.923-7.692h-430.77q-9.23 0-16.923 7.692Q240-783.846 240-774.616V-500Zm0 40v274.616q0 9.23 7.692 16.923 7.693 7.692 16.923 7.692h430.77q9.23 0 16.923-7.692Q720-176.154 720-185.384V-460H240Zm0 299.231h480-480Z"/></svg>