<svg xmlns="http://www.w3.org/2000/svg" height="20" viewBox="0 -960 960 960" width="20"><path d="M295.717-197Q273-197 258.5-211.65T244-249v-462q0-22.7 14.662-37.35Q273.324-763 296.04-763h368.243Q687-763 701.5-748.35T716-711v462q0 22.7-14.662 37.35Q686.676-197 663.96-197H295.717ZM300-497h134v-24h92v24h134v-182q0-12-10-22t-22-10H332q-12 0-22 10t-10 22v182Zm0 20v196q0 12 10 22t22 10h296q12 0 22-10t10-22v-196H300Zm-36-234v462q0 12 10 22t22 10h368q12 0 22-10t10-22v-462q0-12-10-22t-22-10H296q-12 0-22 10t-10 22Z"/></svg>