<svg xmlns="http://www.w3.org/2000/svg" height="20" viewBox="0 -960 960 960" width="20"><path d="M288.332-184.769q-24.332 0-40.332-16.15t-16-40.465v-477.232q0-24.315 16.162-40.465 16.162-16.15 40.494-16.15h383.012q24.332 0 40.332 16.15t16 40.465v477.232q0 24.315-16.162 40.465-16.162 16.15-40.494 16.15H288.332Zm14.437-316.616H428v-26.769h104v26.769h125.231v-181.538q0-9.231-7.693-16.923-7.692-7.692-16.923-7.692h-305.23q-9.231 0-16.923 7.692-7.693 7.692-7.693 16.923v181.538Zm0 32.001v192.307q0 9.231 7.693 16.923 7.692 7.692 16.923 7.692h305.23q9.231 0 16.923-7.692 7.693-7.692 7.693-16.923v-192.307H302.769ZM264-718.616v477.232q0 9.23 7.692 16.923 7.693 7.692 16.923 7.692h382.77q9.23 0 16.923-7.692Q696-232.154 696-241.384v-477.232q0-9.23-7.692-16.923-7.693-7.692-16.923-7.692h-382.77q-9.23 0-16.923 7.692Q264-727.846 264-718.616Z"/></svg>