<svg xmlns="http://www.w3.org/2000/svg" height="20" viewBox="0 -960 960 960" width="20"><path d="M264-345h92v-13q0-52.206 36.149-88.603 36.15-36.397 88-36.397Q532-483 568-446.603T604-358v13h92v-13q0-90.574-62.89-153.787Q570.221-575 480.11-575 390-575 327-511.787 264-448.574 264-358v13Zm24-223q45.591-5.724 95.795-33.362Q434-629 464-664l-70-61q-19.758 22.25-55.379 42.125Q303-663 274-659l14 91Zm383 0 14-91q-29-4-64.621-23.875Q584.758-702.75 565-725l-70 61q31 37 78.5 63t97.5 33ZM480.192-62Q394-62 318-94.5q-76-32.5-133.5-90t-90-133.542Q62-394.083 62-480.542 62-567 94.5-642.5t90-133q57.5-57.5 133.542-90 76.041-32.5 162.5-32.5Q567-898 642.5-865.5t133 90q57.5 57.5 90 133.308 32.5 75.807 32.5 162Q898-394 865.5-318q-32.5 76-90 133.5t-133.308 90q-75.807 32.5-162 32.5Z"/></svg>