<svg xmlns="http://www.w3.org/2000/svg" height="20" viewBox="0 -960 960 960" width="20"><path d="M479.435-153.043q-18.087 0-34.827-6.478-16.739-6.478-31.696-19.87l-60.13-55.13q-107.87-95.305-191.935-189.783Q76.782-518.782 76.782-634q0-96.479 65.087-161.131 65.087-64.653 162.566-64.653 49.869 0 94.804 18.957 44.935 18.956 80.196 56.695 37.261-37.739 81.195-56.695 43.935-18.957 93.805-18.957 97.478 0 163.414 64.653Q883.784-730.479 883.784-634q0 115.218-84.914 209.696-84.913 94.478-192.782 190.348l-59.565 55.13q-14.957 13.392-31.979 19.588-17.022 6.195-35.109 6.195Z"/></svg>