<svg xmlns="http://www.w3.org/2000/svg" height="20" viewBox="0 -960 960 960" width="20"><path d="M479.435-153.043q-18.087 0-34.827-6.478-16.739-6.478-31.696-19.87l-60.13-55.13q-107.87-95.305-191.935-189.783Q76.782-518.782 76.782-634q0-96.471 64.937-161.127 64.937-64.657 162.716-64.657 50.067 0 94.903 18.957 44.836 18.956 80.097 56.695 37.261-37.739 81.355-56.695 44.095-18.957 93.325-18.957 98.014 0 163.841 64.657Q883.784-730.471 883.784-634q0 115.218-84.914 209.696-84.913 94.478-192.782 190.348l-59.565 55.13q-14.957 13.392-31.979 19.588-17.022 6.195-35.109 6.195Zm-37.957-526.131q-20.608-37.608-57.456-60.108t-79.433-22.5q-55.631 0-92.719 36.021-37.087 36.022-37.087 92.154 0 49.521 35.15 104.299 35.151 54.779 83.968 107.13 48.817 52.351 100.566 97.349 51.749 44.998 84.968 74.35 33.435-30 85.417-74.946 51.983-44.946 101.022-97.239 49.039-52.293 84.474-106.597 35.434-54.304 35.434-104.346 0-56.132-37.45-92.154-37.45-36.021-93.625-36.021-43.011 0-80.077 22.5-37.065 22.5-57.673 60.108-5.733 11.696-15.827 17.044-10.095 5.348-21.743 5.348-11.648 0-21.985-5.348-10.338-5.348-15.924-17.044ZM480-506.13Z"/></svg>