<svg xmlns="http://www.w3.org/2000/svg" height="24" viewBox="0 -960 960 960" width="24"><path d="M120-120v-200h40v160h160v40H120Zm0-520v-200h200v40H160v160h-40Zm520 520v-40h160v-160h40v200H640Zm160-520v-160H640v-40h200v200h-40ZM479.909-484.615q-41.678 0-70.794-29.116Q380-542.846 380-584.524q0-40.861 29.115-70.476 29.116-29.616 70.794-29.616 40.86 0 70.476 29.616Q580-625.385 580-584.524q0 41.678-29.615 70.793-29.616 29.116-70.476 29.116Zm.091-40.001q24.692 0 42.346-17.25Q540-559.116 540-584.615q0-24.693-17.654-42.347-17.654-17.653-42.731-17.653-25.076 0-42.346 17.653Q420-609.308 420-584.231t17.25 42.346q17.25 17.269 42.75 17.269ZM260-275.384v-56.001q0-16.083 8.222-30.252t22.316-22.594q42.923-25.461 91.116-38.307 48.192-12.847 98.346-12.847t98.346 12.847q48.193 12.846 91.116 38.307 14.094 8.425 22.316 22.594T700-331.385v56.001H260Zm220-120q-44.846 0-90 13.077-45.154 13.076-88.615 37.692v30h357.23v-30.769q-42.692-24.616-88.23-37.308-45.539-12.692-90.385-12.692Zm0-189.231Zm0 270h178.615-357.23H480Z"/></svg>