<svg xmlns="http://www.w3.org/2000/svg" height="24" viewBox="0 -960 960 960" width="24"><path d="M132-132v-188h28v160h160v28H132Zm0-508v-188h188v28H160v160h-28Zm508 508v-28h160v-160h28v188H640Zm160-508v-160H640v-28h188v188h-28ZM479.881-486Q441-486 413.5-513.5T386-579.881Q386-618 413.5-646t66.381-28Q518-674 546-646t28 66.119Q574-541 546-513.5T479.881-486ZM266-286v-50q0-14.609 7.538-27.478Q281.077-376.348 294-384q42-25 89.5-37.5T480-434q49 0 96.5 12.5T666-384q12.923 7.652 20.462 20.522Q694-350.609 694-336v50H266Z"/></svg>