<svg xmlns="http://www.w3.org/2000/svg" height="20" viewBox="0 -960 960 960" width="20"><path d="M376.155-109.847v-292.001L195.154-220.847 158.001-258l222-222-222-222 37.153-37.153 181.001 181.001v-292.001h43.999L622.307-648l-168 168 168 168-202.153 202.153h-43.999Zm51.999-418.305L548.001-648 428.154-768.617v240.465Zm0 336.769L548.001-312 428.154-431.848v240.465Zm231.923-222.233L592.924-480l67.153-67.153q6.077 16.923 8.615 33.461 2.539 16.538 2.539 33.692t-2.346 33.499q-2.346 16.346-8.808 32.885Zm94.384 95.922L712-360.924q14.692-28.154 21.038-58.23 6.346-30.077 6.346-60.846 0-30.769-6.346-60.846-6.346-30.076-21.038-58.23l42.461-42.46q22.153 36.461 31.845 77.345 9.693 40.884 9.693 84.191t-9.693 84.384q-9.692 41.076-31.845 77.922Z"/></svg>