<svg xmlns="http://www.w3.org/2000/svg" height="24" viewBox="0 -960 960 960" width="24"><path d="M417-440v-434h126v434H417Zm62.871 354Q399-86 327.207-117.074q-71.792-31.074-125.5-84.5Q148-255 117-326.89 86-398.78 86-480q0-86.847 34.5-163.923Q155-721 218-775l90 89q-45.176 37.798-70.588 91.661Q212-540.477 212-480q0 111.029 78.489 189.514Q368.977-212 480.01-212 592-212 670-290.486 748-368.971 748-480q0-60.404-25.5-114.202Q697-648 649-690l90-90q66 57 100.5 135T874-479.727Q874-399 843-327t-84.5 125.5Q705-148 633.418-117T479.871-86Z"/></svg>