<svg xmlns="http://www.w3.org/2000/svg" height="24" viewBox="0 -960 960 960" width="24"><path d="M460-440v-366.154h40V-440h-40Zm20 280q-66.308 0-124.5-25.038-58.192-25.039-101.808-68.654-43.615-43.616-68.654-101.808Q160-413.692 160-480q0-71.539 30.692-135.231 30.692-63.692 84.539-109.538L304-696q-50 38-77 95t-27 121q0 116 82 198t198 82q117 0 198.5-82T760-480q0-64-26.5-121T656-696l28.769-28.769q54.616 45.846 84.924 109.538Q800-551.539 800-480q0 66.308-25.038 124.5-25.039 58.192-68.539 101.808-43.5 43.615-101.692 68.654Q546.539-160 480-160Z"/></svg>