<svg xmlns="http://www.w3.org/2000/svg" height="20" viewBox="0 -960 960 960" width="20"><path d="M438.5-432v-392.131h83V-432h-83Zm41.469 296.131q-71.643 0-134.067-27.123-62.425-27.123-109.124-73.754-46.699-46.632-73.804-109.08-27.105-62.448-27.105-134.33 0-77.481 32.859-146.934 32.859-69.454 92.576-117.932l58.892 58.652q-47.847 37.952-74.587 91.582Q218.87-541.158 218.87-480q0 108.811 76.409 184.971 76.41 76.159 184.502 76.159 109.023 0 185.186-76.159Q741.13-371.189 741.13-480q0-60.983-26.26-115.415-26.261-54.433-75.783-92.15l58.891-58.653q61.435 49.196 93.794 118.672 32.359 69.476 32.359 147.611 0 71.609-27.198 134.083-27.198 62.474-73.66 109.123-46.463 46.65-109.051 73.755-62.587 27.105-134.253 27.105Z"/></svg>