<svg xmlns="http://www.w3.org/2000/svg" height="24" viewBox="0 -960 960 960" width="24"><path d="m429.999-644.001-59.998-59.998v-39.846q0-29.923 21.192-51.115 21.192-21.192 51.115-21.192h80q26.846 0 46.114 19.269 19.269 19.269 19.269 46.114 0 26.846-19.269 46.115-19.268 19.269-46.114 19.269h-92.309v41.384Zm409.539 409.539L586.615-485.385q-6.231-5.846-6.231-13.5t6.231-13.884Q592.846-519 600.307-519q7.462 0 13.692 6.231l100.155 100.154v-164.924q0-9.461 11.461-13.807t18.307 2.5l97.077 96.461q5.616 5.616 8.039 11.846 2.423 6.231 2.423 13.462t-2.308 13.461q-2.308 6.231-7.923 11.846l-78.308 77.924 77.462 75.461q6.231 6.231 8.846 12.154t2.615 14.385q0 9.076-2.923 16.115-2.923 7.038-9.384 11.269Zm-85.077-178.153 55.231-54.462-55.231-54.001v108.463Zm18.001 309.383L637.385-238.309l-21.386 21.385q-5.846 5.846-14.115 6.654-8.269.808-14.115-5.038-6.846-6.846-7.038-15.115-.193-8.27 6.653-15.116l21.386-21.385-178.771-178.771v161.849q0 58.691-41.23 99.345-41.23 40.653-98.768 40.653-57.538 0-98.768-40.461-41.231-40.461-41.231-99.537 0-57.923 41.038-98.961t98.961-41.038q25.308 0 45 7.616 19.692 7.615 35 19.769v-109.234L109.386-766.308q-8.307-8.307-8.499-20.884-.193-12.577 8.499-21.269 8.693-8.692 21.077-8.692 12.384 0 21.076 8.692l663.076 663.076q8.307 8.307 8.5 20.884.192 12.577-8.5 21.269-8.692 8.692-21.076 8.692-12.385 0-21.077-8.692Z"/></svg>