<svg xmlns="http://www.w3.org/2000/svg" height="24" viewBox="0 -960 960 960" width="24"><path d="M480-266.999q-74.696 0-131.739-45.5-57.044-45.5-74.435-114.5H60.782v-106.002h213.044q17.391-69 74.435-114.5 57.043-45.5 131.739-45.5t131.739 45.5q57.044 45.5 74.435 114.5h213.044v106.002H686.174q-17.391 69-74.435 114.5-57.043 45.5-131.739 45.5Zm.233-106.002q44.68 0 75.723-31.276t31.043-75.956q0-44.68-31.159-75.723-31.16-31.043-75.674-31.043-44.514 0-75.839 31.159-31.326 31.16-31.326 75.674 0 44.514 31.276 75.839 31.276 31.326 75.956 31.326Z"/></svg>