<svg xmlns="http://www.w3.org/2000/svg" height="20" viewBox="0 -960 960 960" width="20"><path d="M480-274.999q-72.289 0-127.536-44.5t-71.996-111.5H76.782v-98.002h204.044q16.391-67 71.638-111.5 55.247-44.5 127.536-44.5t127.536 44.5q55.247 44.5 71.996 111.5h203.686v98.002H679.174q-16.391 67-71.638 111.5-55.247 44.5-127.536 44.5Zm.233-98.002q44.68 0 75.723-31.276t31.043-75.956q0-44.68-31.159-75.723-31.16-31.043-75.674-31.043-44.514 0-75.839 31.159-31.326 31.16-31.326 75.674 0 44.514 31.276 75.839 31.276 31.326 75.956 31.326Z"/></svg>