<svg xmlns="http://www.w3.org/2000/svg" height="24" viewBox="0 -960 960 960" width="24"><path d="M489-384q51 0 88.5-33t37.5-81q0-40-25-68.5T527-595q-31 0-54 20t-23 49.333Q450-513 455-500q5 13 16 23 6 6 12 5.5t10-4.5q4-4 5-9t-4-10q-5-5-10.5-14t-5.5-17q0-14 12.5-27t36.5-13q24 0 42 18.5t18 50.5q0 34-27 59.5T490-412q-48 0-83-38t-35-96q0-25.218 8.5-49.109Q389-619 406-639q4-5 5-11t-4-11q-5-5-11-4.5t-10 5.5q-20 23-31.5 52.091T343-547q0 67 42 115t104 48ZM292-276q-57-52-88.5-115.5T172-520.723q0-128.032 89.833-217.655Q351.667-828 480-828q103 0 187.5 63.5T777-601l38.316 151.92Q819-435 810-423.5q-9 11.5-24 11.5h-78v140q0 24.75-17.625 42.375T648-212H548v66q0 5.95-4.035 9.975-4.035 4.025-10 4.025T524-136.025q-4-4.025-4-9.975v-63.505q0-13.495 8.625-21.995Q537.25-240 550-240h98q14 0 23-9t9-23v-138q0-12.75 8.625-21.375T710-440h78l-38-155q-23-92-99-148.5T480-800q-116 0-198 81.291Q200-637.417 200-521q0 59.744 24.5 113.513 24.5 53.769 69.5 95.59L320-288v142q0 5.95-4.035 9.975-4.035 4.025-10 4.025T296-136.025q-4-4.025-4-9.975v-130Zm202-190Z"/></svg>