<svg xmlns="http://www.w3.org/2000/svg" height="24" viewBox="0 -960 960 960" width="24"><path d="M376.923-544.615h49.231q13.077 0 21.923-8.847 8.846-8.846 8.846-21.923v-49.23q0-13.077-8.846-21.923-8.846-8.847-21.923-8.847h-64.615q-6.154 0-10.77 4.616-4.615 4.615-4.615 10.769v160q0 6.154 4.615 10.769 4.616 4.616 10.77 4.616 6.153 0 10.769-4.616 4.615-4.615 4.615-10.769v-64.615Zm0-30.77v-49.23h49.231v49.23h-49.231Zm198.462 110.77q13.077 0 21.923-8.847 8.846-8.846 8.846-21.923v-129.23q0-13.077-8.846-21.923-8.846-8.847-21.923-8.847h-61.539q-6.154 0-10.769 4.616-4.615 4.615-4.615 10.769v160q0 6.154 4.615 10.769 4.615 4.616 10.769 4.616h61.539Zm-46.154-30.77v-129.23h46.154v129.23h-46.154Zm156.923-49.23h40q6.154 0 10.769-4.616 4.616-4.615 4.616-10.769t-4.616-10.769q-4.615-4.616-10.769-4.616h-40v-49.23h40q6.154 0 10.769-4.616 4.616-4.615 4.616-10.769t-4.616-10.769q-4.615-4.616-10.769-4.616h-55.385q-6.153 0-10.769 4.616-4.615 4.615-4.615 10.769v160q0 6.154 4.615 10.769 4.616 4.616 10.769 4.616 6.154 0 10.77-4.616 4.615-4.615 4.615-10.769v-64.615ZM324.615-280Q297-280 278.5-298.5 260-317 260-344.615v-430.77Q260-803 278.5-821.5 297-840 324.615-840h430.77Q783-840 801.5-821.5 820-803 820-775.385v430.77Q820-317 801.5-298.5 783-280 755.385-280h-430.77Zm0-40h430.77q9.231 0 16.923-7.692Q780-335.385 780-344.615v-430.77q0-9.23-7.692-16.923Q764.616-800 755.385-800h-430.77q-9.23 0-16.923 7.692Q300-784.615 300-775.385v430.77q0 9.23 7.692 16.923Q315.385-320 324.615-320Zm-120 160Q177-160 158.5-178.5 140-197 140-224.615v-450.77q0-8.5 5.757-14.25 5.758-5.75 14.27-5.75 8.511 0 14.242 5.75 5.731 5.75 5.731 14.25v450.77q0 9.231 7.692 16.923Q195.384-200 204.615-200h450.77q8.5 0 14.25 5.758t5.75 14.269q0 8.512-5.75 14.243-5.75 5.73-14.25 5.73h-450.77ZM300-800v480-480Z"/></svg>