<svg xmlns="http://www.w3.org/2000/svg" height="24" viewBox="0 -960 960 960" width="24"><path d="M300-590.769V-840q0-8.5 5.758-14.25 5.757-5.75 14.269-5.75t14.242 5.75Q340-848.5 340-840v249.231h70.769V-840q0-8.5 5.758-14.25t14.269-5.75q8.512 0 14.243 5.75 5.73 5.75 5.73 14.25v249.231q0 51.384-32.192 86.846T340-461.385V-120q0 8.5-5.758 14.25-5.757 5.75-14.269 5.75t-14.242-5.75Q300-111.5 300-120v-341.385q-46.385-7.076-78.577-42.538-32.192-35.462-32.192-86.846V-840q0-8.5 5.757-14.25 5.758-5.75 14.27-5.75 8.511 0 14.242 5.75 5.731 5.75 5.731 14.25v249.231H300ZM669.231-420h-66.043q-14.034 0-23.227-9.288-9.192-9.289-9.192-23.02V-680q0-80.769 35.731-130.385Q642.231-860 677.231-860q15.692 0 23.846 10.154t8.154 27.615V-120q0 8.5-5.758 14.25-5.757 5.75-14.269 5.75t-14.242-5.75q-5.731-5.75-5.731-14.25v-300Z"/></svg>