<svg xmlns="http://www.w3.org/2000/svg" height="20" viewBox="0 -960 960 960" width="20"><path d="m769.154-145-86.231-87H288.615Q265-232 248.5-248 232-264 232-288.615V-320q0-5.538 4.731-10.769Q241.461-336 248-336q5.538 0 10.769 5.231T264-320v31.385q0 9.23 7.692 16.923Q279.385-264 288.615-264h362.308L526-388.923l-25.308 25.308q-4.23 5.538-8.961 7.923-4.731 2.384-12.5 2.384-5.693 0-9.385-1.73-3.692-1.731-8.692-6.731l-95.77-96q-6.384-5.385-5.5-12.077.885-6.693 6.577-11.847 4.846-4.846 9.193-5.346 4.346-.5 9.192 2.346l60.769 60v-44.615L144.769-770.154q-6.385-6.384-6.385-11.654 0-5.269 5.616-10.884 6.384-6.385 11.654-6.385 5.269 0 10.884 6.385l626.154 624.384q6.385 6.385 6.385 11.654 0 5.27-6.385 11.654-5.615 5.616-11.384 5.616-5.77 0-12.154-5.616ZM728-335l-7.154-7.154q-.307.769-3.269 2.692-2.962 1.924-5.577 1.924 6.539 0 11.269 4.73 4.731 4.731 4.731 11.27V-335ZM583-464.615l-21.539-21.539 21.693-21.692q3.077-3.077 7.962-3.462 4.884-.385 11.269 6t6.385 10.654q0 4.269-4.077 8.346L583-464.615Zm-87-99.846-32-32.001V-760q0-6.539 4.731-11.269Q473.461-776 480-776t11.269 4.731Q496-766.539 496-760v195.539Z"/></svg>