<svg xmlns="http://www.w3.org/2000/svg" height="24" viewBox="0 -960 960 960" width="24"><path d="M751.769-72.308q-8.231 0-17.346-1t-18.115-3l-505-108q-40.923-8.23-71.116-32.807-30.192-24.577-46.423-60.27-1.23-2.461-1.23-9.538.692-6.616 6.461-11.692 5.769-5.077 12.615-4.616 4.693.462 8.539 3.808 3.846 3.346 6.077 7.808 13.538 27.307 37.346 47.615 23.808 20.308 55.115 26.308l34.385 6.307 148.461-97.077-42.846-182L488-700H352.462L278-578.769 243.846-600l86.923-140H548q22.385 0 35.808 12.308 13.423 12.307 18.654 23.769l21 47.231q21.538 48.769 64.884 80.423 43.346 31.654 99.346 35.5v40q-63.077-2.308-114.154-36.577t-87.615-98.5L484.692-477l139.923 110.077 39.231 244.154 59.846 12.077q6.77 2 14.039 2.5t14.038.5q24.769 0 46.462-8.77 21.692-8.769 39.461-23.538 1.154-1.154 14.462-4.462 6.846.462 11.423 6.077 4.577 5.616 4.115 12-.23 4.231-1.961 7.462t-4.192 5.692q-21.154 20.462-50.231 30.693-29.077 10.23-59.539 10.23Zm-130.385-59.231-33.076-209.846-160.154-113.307 19.538 163-139.461 92.538 313.153 67.615ZM640-772.308q-27.615 0-47.654-20.038-20.038-20.039-20.038-47.654 0-27.615 20.038-47.654 20.039-20.038 47.654-20.038 27.615 0 47.654 20.038 20.038 20.039 20.038 47.654 0 27.615-20.038 47.654-20.039 20.038-47.654 20.038Z"/></svg>