<svg xmlns="http://www.w3.org/2000/svg" height="20" viewBox="0 -960 960 960" width="20"><path d="M755.565-50.52q-9.13 0-18.13-1-9-1-19.131-3l-510-108.001q-47.261-10.13-75.174-34.695-27.913-24.566-42.043-49.827-1-2.565-4.13-14.13-1.131-14.957 8.347-24.848 9.478-9.892 21.87-10.457 10.391-1.131 18.5 3.5 8.109 4.63 13.239 14.022 11.435 21 29.957 33.456 18.521 12.457 42.826 19.022l28.608 6.435 123.522-82.913-46.87-161.739 100.217-161.826h-72.651l-74.696 118.392-75.696-52.044 103.348-155.305H528q28.391 0 45.087 13.696 16.696 13.695 24.826 27.391l36 61q25.435 41.304 68.435 65.609 43 24.304 98.131 24.304v88.957q-74.392 0-134.305-30.956-59.913-30.956-96.609-83.695l-59.26 94.477 122.174 93.174 47.434 232.173 51.783 11.87q6 2 11.717 2h11.152q17.739 0 34.609-5.717 16.869-5.718 30.174-15.587 2.13-1.566 17.826-7.261 14.956-.566 24.848 7.848 9.891 8.413 10.457 23.5.565 8.696-2.5 15.74-3.066 7.043-9.761 12.739-15.131 11.565-41.761 22.63-26.631 11.065-62.892 11.065Zm-170.739-98.784-33.739-162.173-93.782-64.869 19.739 112.869-105.565 67.956 213.347 46.217ZM620.479-744q-38.392 0-65.435-27.044Q528-798.087 528-836.479q0-38.391 27.044-65.717 27.043-27.327 65.435-27.327 38.391 0 65.717 27.327 27.327 27.326 27.327 65.717 0 38.392-27.327 65.435Q658.87-744 620.479-744Z"/></svg>