<svg xmlns="http://www.w3.org/2000/svg" height="24" viewBox="0 -960 960 960" width="24"><path d="M751.565-38.52q-10.13 0-19.63-1-9.5-1-19.631-3l-505-108.001q-46.261-10.13-80.174-37.195-33.913-27.066-52.043-67.327-2-4.565-3.13-19.13 1.869-15.957 13.847-26.348 11.978-10.392 28.37-8.957 10.391.869 18.5 6.5 8.109 5.63 12.239 15.022 11.435 25 30.957 40.456 19.521 15.457 46.826 22.022l15.608 3.435 131.522-88.913-37.87-169.739 110.217-177.826h-73.651l-77.696 125.392-82.696-51.044 107.348-171.305H548q30.391 0 48.587 16.696 18.196 16.695 25.326 31.391l21 48q19.435 46.304 63.935 75.109 44.5 28.804 101.631 28.804v96.957q-73.392 0-132.805-30.956-59.413-30.956-96.109-83.695l-61.26 97.477 130.174 104.174 39.434 245.173 39.783 7.87q6 2 12.217 2.5 6.217.5 11.652.5 21.739 0 39.609-7.717 17.869-7.718 33.174-20.587 6.13-5.566 28.826-8.261 16.956 1.434 26.848 13.848 9.891 12.413 8.457 28.5-.435 6.696-3.5 13.24-3.066 6.543-8.761 12.239-26.131 22.565-58.261 34.13-32.131 11.565-66.392 11.565ZM585.826-148.305l-27.739-170.173-94.782-66.869 15.739 118.869-108.565 71.956 215.347 46.217ZM648.479-760q-36.392 0-62.435-26.044Q560-812.087 560-848.479q0-36.391 26.044-62.717 26.043-26.327 62.435-26.327 36.391 0 62.717 26.327 26.327 26.326 26.327 62.717 0 36.392-26.327 62.435Q684.87-760 648.479-760Z"/></svg>