<svg xmlns="http://www.w3.org/2000/svg" height="24" viewBox="0 -960 960 960" width="24"><path d="M709.999-326.154q-63.692 0-108.769-45.077Q556.154-416.308 556.154-480q0-63.692 45.076-108.769 45.077-45.077 108.769-45.077 63.692 0 108.769 45.077Q863.845-543.692 863.845-480q0 63.692-45.077 108.769-45.077 45.077-108.769 45.077Zm0-47.692q15.077 0 28.885-4.154 13.808-4.154 27.116-12.461l-145.539-145.54q-8.308 13.308-12.462 27.116T603.845-480q0 44.308 30.923 75.231 30.923 30.923 75.231 30.923Zm89.539-50.153q9.077-13.693 12.846-27.308 3.77-13.616 3.77-28.693 0-44.308-30.924-75.231-30.923-30.923-75.231-30.923-15.077 0-28.885 4.154-13.808 4.154-27.115 12.461l145.539 145.54ZM220.001-60.001V-900h519.998v218.46H680v-48.462H280v500.002h400v-48.462h59.999v218.46H220.001Z"/></svg>