<svg xmlns="http://www.w3.org/2000/svg" height="20" viewBox="0 -960 960 960" width="20"><path d="M712.5-348.308q-55.885 0-94.038-38.153-38.154-38.154-38.154-93.539t38.154-93.539q38.153-38.153 94.038-38.153t93.539 38.153q37.654 38.154 37.654 93.539t-37.654 93.539q-37.654 38.153-93.539 38.153Zm-.5-23.384q20.154 0 36.269-5.558 16.116-5.558 31.731-16.673L625.795-548q-10.487 15.615-16.295 31.731-5.807 16.115-5.807 36.269 0 44.935 31.686 76.621 31.686 31.687 76.621 31.687ZM798.206-412q12.025-16.385 17.063-32.115 5.039-15.731 5.039-35.885 0-44.935-31.686-76.621-31.687-31.687-76.622-31.687-20.154 0-36.269 5.558T644-566.077L798.206-412ZM232-88v-784h496v196.923h-32V-740H264v520h432v-64.923h32V-88H232Z"/></svg>