<svg xmlns="http://www.w3.org/2000/svg" height="24" viewBox="0 -960 960 960" width="24"><path d="M700-332.308q-61.385 0-104.538-43.153Q552.308-418.615 552.308-480t43.154-104.539Q638.615-627.692 700-627.692t104.539 43.153Q847.693-541.385 847.693-480t-43.154 104.539Q761.385-332.308 700-332.308Zm0-35.384q18.154 0 34.269-5.308 16.116-5.308 31.731-15.923L608.923-546Q598.308-530.385 593-514.269q-5.307 16.115-5.307 34.269 0 46.615 32.846 79.461 32.846 32.847 79.461 32.847ZM791.077-414q12.154-16.385 16.692-32.115 4.539-15.731 4.539-33.885 0-46.615-32.846-79.461-32.847-32.847-79.462-32.847-18.154 0-34.269 5.308T634-571.077L791.077-414ZM240-80v-800h480v196.923h-40V-740H280v520h400v-56.923h40V-80H240Zm40-100v60h400v-60H280Zm0-600h400v-60H280v60Zm0 0v-60 60Zm0 600v60-60Z"/></svg>