<svg xmlns="http://www.w3.org/2000/svg" height="24" viewBox="0 -960 960 960" width="24"><path d="m466-412-80-78q-5-4-10-4.5t-10.217 4.717Q361-485 361-480q0 5 5 10l93 93q9 9 21 9t21-9l93-93q4-4 4.5-9.5t-4.196-10.196Q590-494 584.5-494t-10.5 4l-80 78v-178q0-5.95-4.035-9.975-4.035-4.025-10-4.025T470-599.975q-4 4.025-4 9.975v178ZM232-172q-24.75 0-42.375-17.625T172-232v-496q0-24.75 17.625-42.375T232-788h194q-11-29 6-54.5t48.5-25.5q31.5 0 48.5 25.5t5 54.5h194q24.75 0 42.375 17.625T788-728v496q0 24.75-17.625 42.375T728-172H232Zm248-608q13 0 21.5-8.5T510-810q0-13-8.5-21.5T480-840q-13 0-21.5 8.5T450-810q0 13 8.5 21.5T480-780Z"/></svg>