<svg xmlns="http://www.w3.org/2000/svg" height="20" viewBox="0 -960 960 960" width="20"><path d="M670.999-623.251H612q-20.387 0-34.694-14.331-14.307-14.331-14.307-34.652t14.307-34.583q14.307-14.262 34.694-14.262h58.999v-58.687q0-20.321 14.246-34.778 14.247-14.457 34.544-14.457 20.298 0 34.629 14.307T768.749-780v58.999h59.167q20.423 0 34.754 14.307T877.001-672q0 20.387-14.331 34.694-14.331 14.307-34.754 14.307h-59.167V-564q0 20.387-14.331 34.694-14.331 14.307-34.418 14.307-20.387 0-34.694-14.331-14.307-14.331-14.307-34.754v-59.167ZM335.774-124.782q-87.687 0-149.34-61.812Q124.782-248.407 124.782-336q0-50.062 22-94.423 22-44.36 62-72.53v-205.376q0-52.584 37.152-89.737 37.153-37.152 90.066-37.152 52.913 0 90.066 37.152 37.152 37.153 37.152 90.066v204.956q39.566 29.261 61.783 73.305 22.217 44.043 22.217 93.739 0 87.593-61.878 149.406-61.879 61.812-149.566 61.812Zm-28.991-423.827h58.434V-708q0-11.909-8.594-20.563-8.593-8.654-20.412-8.654-11.82 0-20.624 8.654-8.804 8.654-8.804 20.563v159.391Z"/></svg>