<svg xmlns="http://www.w3.org/2000/svg" height="24" viewBox="0 -960 960 960" width="24"><path d="M120-548.154q0-126.923 82.654-209.385Q285.308-840 403.846-840q118.539 0 201.193 82.461 82.654 82.462 82.654 209.385v16.616q0 8.615-2 16.846-46.308 13.307-81.424 41.115-35.115 27.808-57.038 66.192-21.923 38.385-28.808 82.616-6.884 44.231 4.5 89.846-17.692 19.462-36.654 37.808-18.961 18.346-38.654 36.808-9.461 8.692-20.769 13.307-11.308 4.616-23 4.616t-23-4.616q-11.308-4.615-20.769-13.307-35.616-32.924-78-77.962-42.385-45.039-78.039-95.923-35.654-50.885-59.846-105.885Q120-495.077 120-548.154ZM403.846-380q45.231 0 82.923-20.577 37.693-20.577 62.154-54.808-31.154-22.077-67.846-33.346Q444.385-500 403.846-500q-40.538 0-77.231 11.269-36.692 11.269-67.846 33.346 24.462 34.231 62.154 54.808Q358.615-380 403.846-380Zm0-200q25.308 0 42.654-17.346 17.346-17.346 17.346-42.654 0-25.308-17.346-42.654Q429.154-700 403.846-700q-25.308 0-42.654 17.346-17.346 17.346-17.346 42.654 0 25.308 17.346 42.654Q378.538-580 403.846-580Zm403.923 308.462H633.077q-8.538 0-14.269-5.731t-5.731-14.269q0-8.539 5.731-14.27t14.269-5.731h174.692l-69.077-69.845q-5.615-5.616-6-14.039-.384-8.423 6.231-14.269 5.616-5.616 14.154-5.231 8.539.384 14.154 6L862-314.154q9.693 9.693 9.693 22.616T862-268.923l-95.538 95.539q-5.616 5.615-13.27 5.73-7.653.116-14.269-5.73-6.385-5.616-6-14.154.385-8.539 6-14.154l68.846-69.846Z"/></svg>