<svg xmlns="http://www.w3.org/2000/svg" height="20" viewBox="0 -960 960 960" width="20"><path d="M62-553q0-147.719 99.253-246.36Q260.506-898 408-898q146.494 0 246.247 98.64Q754-700.719 754-553q0 5.514-1 11.343-1 5.828-1 11.657-65 5-115.5 38T558-410q-28 49-33 109.5T547-183q-16.721 17.15-34.361 33.075Q495-134 477-120q-17 12-33.5 18t-35.25 6q-18.75 0-36-6T338-120q-68-61-120-116.5T131-345q-35-53-52-104.5T62-553Zm346 159q49 0 92-21.5t68-63.5q-35-27-75.5-43T408-538q-44 0-84.5 16T248-479q25 42 68 63.5t92 21.5Zm0-192q30 0 51-21t21-51q0-30-21-51t-51-21q-30 0-51 21t-21 51q0 30 21 51t51 21Zm303 358h-48q-24 0-41.5-17.5T604-287q0-24 17.5-41.5T663-346h48l5 4q-17-17-16.5-39t19.848-41.348Q738-441 761-441t42 19l90 93q18 18.364 18 42.182T893-245l-91 93q-19 19-43 17.5T715-156q-17-17-17-38t17-38l-4 4Z"/></svg>