<svg xmlns="http://www.w3.org/2000/svg" height="24" viewBox="0 -960 960 960" width="24"><path d="M22.477-173.999v-639.002H120V-400h328.479v-333.001h489.044v559.002H840v-120H120v120H22.477Zm262.178-261.479q-53.824 0-91.5-37.677-37.677-37.676-37.677-91.5t37.677-91.085q37.676-37.261 91.5-37.261t91.085 37.261q37.261 37.261 37.261 91.085 0 53.824-37.261 91.5-37.261 37.677-91.085 37.677ZM546.001-400H840v-235.478H546.001V-400ZM284.522-524.522q17 0 28.5-11.5t11.5-28.5q0-17-11.5-28.5t-28.5-11.5q-17 0-28.5 11.5t-11.5 28.5q0 17 11.5 28.5t28.5 11.5Zm0-40Zm261.479-70.956V-400v-235.478Z"/></svg>