<svg xmlns="http://www.w3.org/2000/svg" height="20" viewBox="0 -960 960 960" width="20"><path d="M88-232v-496h32v344h332v-296h420v448h-32v-120H120v120H88Zm187.91-235.384q-35.295 0-59.91-24.706-24.616-24.706-24.616-60.001 0-35.294 24.706-59.909 24.706-24.616 60-24.616 35.295 0 59.91 24.706 24.616 24.706 24.616 60.001 0 35.294-24.706 59.909-24.706 24.616-60 24.616ZM484-384h356v-264H484v264ZM276-499.385q21.938 0 37.277-15.338 15.338-15.339 15.338-37.277 0-21.938-15.338-37.277-15.339-15.338-37.277-15.338-21.938 0-37.277 15.338-15.338 15.339-15.338 37.277 0 21.938 15.338 37.277 15.339 15.338 37.277 15.338ZM276-555Zm208-93v264-264Z"/></svg>