<svg xmlns="http://www.w3.org/2000/svg" height="24" viewBox="0 -960 960 960" width="24"><path d="M60.002-220.001v-559.998H120V-400h330.001v-299.999h449.998v479.998H840v-120H120v120H60.002Zm219.953-237.693q-42.647 0-72.454-29.852-29.807-29.853-29.807-72.499 0-42.647 29.852-72.454 29.853-29.807 72.499-29.807 42.647 0 72.454 29.852 29.807 29.853 29.807 72.499 0 42.647-29.852 72.454-29.853 29.807-72.499 29.807Zm.045-59.998q17.769 0 30.039-12.269 12.269-12.27 12.269-30.039 0-17.769-12.269-30.039-12.27-12.269-30.039-12.269-17.769 0-30.039 12.269-12.269 12.27-12.269 30.039 0 17.769 12.269 30.039 12.27 12.269 30.039 12.269Zm0 0q-17.769 0-30.039-12.269-12.269-12.27-12.269-30.039 0-17.769 12.269-30.039 12.27-12.269 30.039-12.269 17.769 0 30.039 12.269 12.269 12.27 12.269 30.039 0 17.769-12.269 30.039-12.27 12.269-30.039 12.269Z"/></svg>