<svg xmlns="http://www.w3.org/2000/svg" height="20" viewBox="0 -960 960 960" width="20"><path d="M68.001-212.001v-535.998H120V-384h322.001v-315.999h449.998v487.998H840v-120H120v120H68.001Zm207.954-237.693q-42.647 0-72.454-29.852-29.807-29.853-29.807-72.499 0-42.647 29.852-72.454 29.853-29.807 72.499-29.807 42.647 0 72.454 29.852 29.807 29.853 29.807 72.499 0 42.647-29.852 72.454-29.853 29.807-72.499 29.807ZM493.999-384H840v-264H493.999v264ZM276-501.692q21.169 0 35.739-14.569 14.569-14.57 14.569-35.739 0-21.169-14.569-35.739-14.57-14.569-35.739-14.569-21.169 0-35.739 14.569-14.569 14.57-14.569 35.739 0 21.169 14.569 35.739 14.57 14.569 35.739 14.569ZM276-555Zm217.999-93v264-264Z"/></svg>