<svg xmlns="http://www.w3.org/2000/svg" height="20" viewBox="0 -960 960 960" width="20"><path d="M480-142.538q-4.462 0-10.795-1.385-6.333-1.384-11.946-3.384-109.798-47-167.528-149.154Q232-398.615 232-515v-163.308q0-17.89 9.211-32.202 9.212-14.311 24.789-20.721l191.385-80q11.692-4.231 22.615-4.231 10.923 0 22.615 4.231l191.385 80q15.577 6.41 24.789 20.721Q728-696.198 728-678.308V-515q0 49.615-11.461 103.539-11.462 53.923-40.35 107.69-6.343 9.387-16.659 10.387-10.316 1-18.068-6.462l-97.43-97.692q-14.186 11.769-29.878 16.654Q498.462-376 480-376q-43.5 0-73.75-30.25T376-480q0-43.5 30.25-73.75T480-584q43.5 0 73.75 30.25T584-480q0 16.508-5 31.362-5 14.855-13.461 27.792l84.23 84.231q20.077-41.308 33.154-85Q696-465.308 696-515v-164.077q0-7.692-4.231-13.846-4.23-6.154-11.923-9.231l-191.385-80q-3.846-1.538-8.461-1.538t-8.461 1.538l-191.385 80q-7.693 3.077-11.923 9.231Q264-686.769 264-679.077V-515q0 105 56.5 203.5T480-171q23.615-7.538 43.961-19.346 20.347-11.808 39.193-27.654 5.077-5.923 12.107-5.949 7.031-.025 11.201 4.795 4.615 6.077 4.41 13.472-.205 7.395-6.026 11.836-19.231 14-39.331 25.964-20.1 11.964-42.27 21.068-5.783 2.276-12.283 3.276-6.5 1-10.962 1ZM480.212-408Q510-408 531-429.212q21-21.213 21-51Q552-510 530.788-531q-21.213-21-51-21Q450-552 429-530.788q-21 21.213-21 51Q408-450 429.212-429q21.213 21 51 21Zm3.634-71.769Z"/></svg>