<svg xmlns="http://www.w3.org/2000/svg" height="20" viewBox="0 -960 960 960" width="20"><path d="M240-184q-43.5 0-73.75-30.25T136-288q0-43.5 30.25-73.75T240-392q43.5 0 73.75 30.25T344-288q0 43.5-30.25 73.75T240-184Zm480 0q-43.5 0-73.75-30.25T616-288q0-43.5 30.25-73.75T720-392q43.5 0 73.75 30.25T824-288q0 43.5-30.25 73.75T720-184Zm-479.752-20Q275-204 299.5-228.748t24.5-59.5Q324-323 299.252-347.5t-59.5-24.5Q205-372 180.5-347.252t-24.5 59.5Q156-253 180.748-228.5t59.5 24.5Zm480 0Q755-204 779.5-228.748t24.5-59.5Q804-323 779.252-347.5t-59.5-24.5Q685-372 660.5-347.252t-24.5 59.5Q636-253 660.748-228.5t59.5 24.5ZM480-568q-43.5 0-73.75-30.25T376-672q0-43.5 30.25-73.75T480-776q43.5 0 73.75 30.25T584-672q0 43.5-30.25 73.75T480-568Zm.248-20Q515-588 539.5-612.748t24.5-59.5Q564-707 539.252-731.5t-59.5-24.5Q445-756 420.5-731.252t-24.5 59.5Q396-637 420.748-612.5t59.5 24.5ZM480-672Zm240 384Zm-480 0Z"/></svg>