<svg xmlns="http://www.w3.org/2000/svg" height="20" viewBox="0 -960 960 960" width="20"><path d="M319.277-62Q275-62 241.375-91.69T202-166l-75-583q-7-60.172 32.5-104.586T259.467-898h441.066Q761-898 800.5-853.586T833-749l-74 583q-4 45-37.928 74.5Q687.145-62 642-62H319.277ZM265-600l54 420h323l54-420H265Zm-10-72h450l12-108H243l12 108Zm224.875 338q-8.875 0-14.375-5.588T460-354q0-7 4.5-15t15.5-23q11 14 15.5 22.5T500-354q0 8.824-5.625 14.412-5.625 5.588-14.5 5.588Zm.125 88q45.474 0 76.737-31.263Q588-308.526 588-354q0-23-17.5-57t-50.559-76.333Q513-496 502.5-500.5T480-505q-12 0-22.391 4.533Q447.217-495.933 440-487q-33 42-50.5 76T372-354q0 45.474 31.263 76.737Q434.526-246 480-246Zm-215 66h431-431Z"/></svg>