<svg xmlns="http://www.w3.org/2000/svg" height="24" viewBox="0 -960 960 960" width="24"><path d="M569-212H152.923q-11.923 0-21.308-9.384-9.384-9.385-9.384-21.308 0-47.769 3.038-76.731 3.038-28.961 7.577-51.577h277.846q55.923 0 94.808-39 38.885-39 38.885-96.923 0-40.231-23.5-74.808-23.5-34.577-61.5-49.962l-134.77-52.23q51.693-32.308 110.039-48.193Q493-748 558.539-748q114.923 0 197.077 77.654Q837.769-592.692 837.769-480q0 112.692-78.038 190.346Q681.692-212 569-212ZM138.154-410.769q19.23-76.385 57.077-138.885 37.846-62.5 91.846-108.192l157.692 63q27.539 11 43.692 35.308 16.154 24.307 16.154 52.615 0 41.077-27.423 68.615-27.423 27.539-68.5 27.539H138.154Z"/></svg>