<svg xmlns="http://www.w3.org/2000/svg" height="20" viewBox="0 -960 960 960" width="20"><path d="M303.929-509Q243-509 201-552.071q-42-43.07-42-104Q159-717 201.202-759t103.131-42q60.93 0 103.798 42.202Q451-716.596 451-655.667q0 60.93-43.071 103.798-43.07 42.869-104 42.869Zm.13-118q12.059 0 20.5-8.441t8.441-20.5q0-12.059-8.441-19.559-8.441-7.5-20.5-7.5t-19.559 7.5q-7.5 7.5-7.5 19.559 0 12.059 7.5 20.5T304.059-627Zm351.577 469Q595-158 552-200.864q-43-42.863-43-103.5Q509-365 552.071-407.5q43.07-42.5 104-42.5Q717-450 759.5-407.136q42.5 42.863 42.5 103.5Q802-243 759.136-200.5q-42.863 42.5-103.5 42.5Zm.305-118q12.059 0 19.559-8.235 7.5-8.236 7.5-20Q683-316 675.5-324t-19.559-8q-12.059 0-20.5 8.235-8.441 8.236-8.441 20Q627-292 635.441-284t20.5 8ZM241-158l-83-83 562-561 82 82-561 562Z"/></svg>