<svg xmlns="http://www.w3.org/2000/svg" height="20" viewBox="0 -960 960 960" width="20"><path d="M480.118-406Q511-406 532.5-427.618q21.5-21.617 21.5-52.5Q554-511 532.382-532.5q-21.617-21.5-52.5-21.5Q449-554 427.5-532.382q-21.5 21.617-21.5 52.5Q406-449 427.618-427.5q21.617 21.5 52.5 21.5Zm-.344 118Q400-288 344-344.226t-56-136Q288-560 344.226-616t136-56Q560-672 616-615.774t56 136Q672-400 615.774-344t-136 56ZM239-421H25v-118h214v118Zm696 0H721v-118h214v118ZM421-721v-214h118v214H421Zm0 696v-214h118v214H421ZM268-608 134-740l82-89 136 134-84 87Zm476 473L609-266l82-85 135 131-82 85ZM608-691l132-133 85 80-130 137-87-84ZM131-216l135-133 83 80-128 136-90-83Zm349-264Z"/></svg>