<svg xmlns="http://www.w3.org/2000/svg" height="20" viewBox="0 -960 960 960" width="20"><path d="M480-360q50 0 85-35t35-85q0-50-35-85t-85-35q-50 0-85 35t-35 85q0 50 35 85t85 35Zm-.226 51.999q-71.696 0-121.735-50.265-50.038-50.264-50.038-121.96t50.265-121.735q50.264-50.038 121.96-50.038t121.735 50.265q50.038 50.264 50.038 121.96t-50.265 121.735q-50.264 50.038-121.96 50.038ZM216-454.001H58v-51.998h158v51.998Zm685.999 0H744v-51.998h157.999v51.998ZM454.001-744v-157.999h51.998V-744h-51.998Zm0 686v-158h51.998v158h-51.998ZM275.924-648.925l-95.692-93.461 36.383-40.383 96.231 96.692-36.922 37.152Zm467.461 467.692-94.846-93.307 35.537-37.537 95.692 94.461-36.383 36.383Zm-96.461-502.844 95.461-93.692 36.383 34.383-92.692 97.231-39.152-37.922ZM177.232-216.615l97.307-92.846 34.768 33.537-91.076 97.077-40.999-37.768ZM480-480Z"/></svg>