<svg xmlns="http://www.w3.org/2000/svg" height="20" viewBox="0 -960 960 960" width="20"><path d="M480-106.001q-8.307 0-13.923-4.269-5.615-4.269-8.461-11.807L255.001-706.153l131.307 44.923L454.001-727v-89q0-35.769 24.955-60.884 24.955-25.115 61.044-25.115t61.044 25.115q24.955 25.115 24.955 60.884v24h-51.998v-24q0-14.616-10.085-24.308-10.085-9.693-23.916-9.693t-23.916 10.025Q505.999-829.952 505.999-816v89l67.693 65.77 131.307-44.923-202.615 584.076q-2.846 7.538-8.461 11.807-5.616 4.269-13.923 4.269Zm25.999-181.302 113.002-331.929-60.693 19.462-52.309-50.231v362.698Zm-51.998 0v-362.698l-52.309 50.231-61.078-19.846 113.387 332.313Z"/></svg>