<svg xmlns="http://www.w3.org/2000/svg" height="20" viewBox="0 -960 960 960" width="20"><path d="M480-116q-5.615 0-8.346-2.538-2.731-2.539-4.423-6.616L270-692.308l118.615 41.846L464-722v-94q0-31.539 22.071-53.769Q508.141-892 540-892t53.929 22.231Q616-847.539 616-816v24h-32v-24q0-19.231-12.969-31.615Q558.061-860 540-860t-31.031 13.101Q496-833.798 496-816v94l75.385 71.538L690-692.308 492.769-125.154q-1.692 4.077-4.423 6.616Q485.615-116 480-116Zm16-108.616 138-408.845-73.385 22.923L496-670v445.384Zm-32 0V-670l-64.615 59.462-74.154-23.693L464-224.616Z"/></svg>