<svg xmlns="http://www.w3.org/2000/svg" height="20" viewBox="0 -960 960 960" width="20"><path d="M124.522-183.521v46.999q0 20.387-14.246 34.694Q96.03-87.521 75.732-87.521q-20.298 0-34.755-14.307-14.456-14.307-14.456-34.694v-650.956q0-40.44 28.78-69.221 28.781-28.78 69.221-28.78h222.477q40.44 0 69.221 28.78 28.781 28.781 28.781 69.221v651.188q0 19.855-14.247 34.312-14.246 14.457-34.543 14.457-20.298 0-34.755-14.307-14.457-14.307-14.457-34.694v-46.999H124.522Zm663.305-172.782-66.391 65.391V-132q0 18.691-12.833 31.585-12.833 12.894-31.435 12.894-18.602 0-31.646-12.894-13.043-12.894-13.043-31.585v-199.217l67.739-68.304-18.609-97q-28 36.305-63.608 55.392-35.609 19.086-86.609 24.652-17.391 2.565-30.152-10.761-12.761-13.327-12.761-31.218 0-17.892 12.543-31.718 12.544-13.826 29.37-17.522 40.304-6.13 63.565-26.348 23.261-20.217 44.869-57.13l13.739-25.739q22.261-37.957 61.066-51.152 38.804-13.196 82.848 5.195l172.61 70.696q14.04 6.279 22.542 18.379 8.499 12.1 8.499 27.622V-468q0 18.691-12.831 31.585-12.833 12.894-31.435 12.894-18.602 0-31.645-12.894-13.044-12.894-13.044-31.585v-51.347l-71.652-30.608 87.261 409.259q4.131 20.957-8.964 37.066-13.094 16.109-35.514 16.109-15.66 0-27.722-9.413-12.061-9.414-15.192-24.675l-51.565-234.694Zm-588.74-113.436 73.783-44.957q7.869-4.792 7.869-13.483t-7.869-13.125l-73.783-44.957q-7.87-4.435-15.739 0-7.87 4.435-7.87 14.304v87.914q0 9.869 7.87 14.304 7.869 4.435 15.739 0Zm491.318-229.652q-38.709 0-65.47-27.009-26.761-27.009-26.761-65.718t27.009-65.752q27.009-27.044 65.718-27.044t65.47 27.291q26.761 27.292 26.761 66.001t-27.009 65.47q-27.009 26.761-65.718 26.761Z"/></svg>