<svg xmlns="http://www.w3.org/2000/svg" height="20" viewBox="0 -960 960 960" width="20"><path d="M128-177v37q0 24.3-17.289 41.65Q93.421-81 69.211-81 45-81 27.5-98.35T10-140v-644q0-48.675 34.663-83.338Q79.325-902 128-902h209q48.675 0 83.338 34.662Q455-832.675 455-784v644.232Q455-116 437.711-98.5q-17.29 17.5-41.5 17.5Q372-81 354.5-98.35T337-140v-37H128Zm672-158-59 58v145q0 21.675-14.602 36.338Q711.796-81 690.211-81q-21.586 0-36.399-14.662Q639-110.325 639-132v-194l66-67-16-87q-28 35-61 53t-84 24q-20 3-34.5-12.5t-14.5-36q0-20.5 14.5-36.5t33.5-21q39-7 59-27t39-53l12-24q24-41 66.5-55.5T813-662l180 72q17.42 7.778 27.71 22.556Q1031-552.667 1031-534v66q0 21.675-14.6 36.337Q1001.8-417 980.211-417q-21.586 0-36.399-14.663Q929-446.325 929-468v-37l-66-28 89 391q5 24-9.833 42.5Q927.333-81 901-81q-17.5 0-31.25-10.5T852-119l-52-216Zm-672 40h209v-489H128v489Zm65-173 79-48q7-4.286 7-12.143Q279-536 272-540l-79-48q-7-4-14-.043-7 3.956-7 13.043v94q0 9.087 7 13.043 7 3.957 14-.043Zm511.752-234Q663-702 634.5-730.748q-28.5-28.748-28.5-70.5Q606-843 634.748-872q28.748-29 70.5-29Q747-901 775.5-871.552q28.5 29.448 28.5 70.8Q804-759 775.252-730.5q-28.748 28.5-70.5 28.5ZM128-295h209-209Z"/></svg>