<svg xmlns="http://www.w3.org/2000/svg" height="20" viewBox="0 -960 960 960" width="20"><path d="M480-739.384q-12.031 0-20.169-8.078t-8.138-20.019q0-11.941 8.138-20.229 8.138-8.289 20.169-8.289h143.969q72.492 0 122.261 49.769 49.769 49.769 49.769 122.384V-480q0 12.031-8.078 20.169t-20.019 8.138q-11.941 0-20.229-8.138-8.289-8.138-8.289-20.169v-143.75q0-48.48-33.827-82.057-33.827-33.577-81.711-33.577H480Zm-287.481 0q-11.941 0-20.229-8.078-8.289-8.078-8.289-20.019 0-11.941 8.078-20.229 8.078-8.289 20.019-8.289 11.941 0 20.229 8.078 8.289 8.078 8.289 20.019 0 11.941-8.078 20.229-8.078 8.289-20.019 8.289Zm143.846 0q-11.941 0-20.23-8.078-8.288-8.078-8.288-20.019 0-11.941 8.078-20.229 8.078-8.289 20.019-8.289 11.941 0 20.229 8.078 8.288 8.078 8.288 20.019 0 11.941-8.077 20.229-8.078 8.289-20.019 8.289ZM192.519-595.539q-11.941 0-20.229-8.077-8.289-8.078-8.289-20.019 0-11.941 8.078-20.23 8.078-8.288 20.019-8.288 11.941 0 20.229 8.078 8.289 8.078 8.289 20.019 0 11.941-8.078 20.229-8.078 8.288-20.019 8.288Zm0 143.846q-11.941 0-20.229-8.078-8.289-8.077-8.289-20.018 0-11.942 8.078-20.23t20.019-8.288q11.941 0 20.229 8.078 8.289 8.077 8.289 20.018 0 11.942-8.078 20.23t-20.019 8.288Zm0 143.846q-11.941 0-20.229-8.078-8.289-8.078-8.289-20.019 0-11.941 8.078-20.229 8.078-8.288 20.019-8.288 11.941 0 20.229 8.077 8.289 8.078 8.289 20.019 0 11.941-8.078 20.23-8.078 8.288-20.019 8.288Zm575.383 0q-11.941 0-20.229-8.078-8.289-8.078-8.289-20.019 0-11.941 8.078-20.229 8.078-8.288 20.019-8.288 11.941 0 20.229 8.077 8.289 8.078 8.289 20.019 0 11.941-8.078 20.23-8.078 8.288-20.019 8.288ZM192.519-164.001q-11.941 0-20.229-8.078-8.289-8.078-8.289-20.019 0-11.941 8.078-20.229 8.078-8.289 20.019-8.289 11.941 0 20.229 8.078 8.289 8.078 8.289 20.019 0 11.941-8.078 20.229-8.078 8.289-20.019 8.289Zm143.846 0q-11.941 0-20.23-8.078-8.288-8.078-8.288-20.019 0-11.941 8.078-20.229 8.078-8.289 20.019-8.289 11.941 0 20.229 8.078 8.288 8.078 8.288 20.019 0 11.941-8.077 20.229-8.078 8.289-20.019 8.289Zm143.846 0q-11.942 0-20.23-8.078t-8.288-20.019q0-11.941 8.078-20.229 8.077-8.289 20.018-8.289 11.942 0 20.23 8.078t8.288 20.019q0 11.941-8.078 20.229-8.077 8.289-20.018 8.289Zm143.845 0q-11.941 0-20.229-8.078-8.288-8.078-8.288-20.019 0-11.941 8.077-20.229 8.078-8.289 20.019-8.289 11.941 0 20.23 8.078 8.288 8.078 8.288 20.019 0 11.941-8.078 20.229-8.078 8.289-20.019 8.289Zm143.846 0q-11.941 0-20.229-8.078-8.289-8.078-8.289-20.019 0-11.941 8.078-20.229 8.078-8.289 20.019-8.289 11.941 0 20.229 8.078 8.289 8.078 8.289 20.019 0 11.941-8.078 20.229-8.078 8.289-20.019 8.289Z"/></svg>