<svg xmlns="http://www.w3.org/2000/svg" height="20" viewBox="0 -960 960 960" width="20"><path d="M480-734.769q-8.762 0-14.689-5.867-5.926-5.866-5.926-14.538t5.926-14.749Q471.238-776 480-776h137.816q67.107 0 112.646 45.538Q776-684.923 776-617.692V-476q0 8.762-5.866 14.689-5.867 5.926-14.539 5.926t-14.749-5.926q-6.077-5.927-6.077-14.689v-141.597q0-48.865-34.404-83.018-34.403-34.154-82.673-34.154H480Zm-275.174 0q-8.672 0-14.749-5.867Q184-746.502 184-755.174t5.866-14.749Q195.733-776 204.405-776t14.749 5.866q6.077 5.867 6.077 14.539t-5.867 14.749q-5.866 6.077-14.538 6.077Zm137.692 0q-8.672 0-14.749-5.867-6.077-5.866-6.077-14.538t5.867-14.749Q333.425-776 342.097-776t14.749 5.866q6.077 5.867 6.077 14.539t-5.866 14.749q-5.867 6.077-14.539 6.077ZM204.826-597.077q-8.672 0-14.749-5.866Q184-608.81 184-617.482t5.866-14.749q5.867-6.077 14.539-6.077t14.749 5.867q6.077 5.866 6.077 14.538t-5.867 14.749q-5.866 6.077-14.538 6.077Zm0 137.692q-8.672 0-14.749-5.866T184-479.789q0-8.673 5.866-14.75 5.867-6.076 14.539-6.076t14.749 5.866q6.077 5.866 6.077 14.538 0 8.673-5.867 14.75-5.866 6.076-14.538 6.076Zm0 137.693q-8.672 0-14.749-5.867Q184-333.425 184-342.097t5.866-14.749q5.867-6.077 14.539-6.077t14.749 5.866q6.077 5.867 6.077 14.539t-5.867 14.749q-5.866 6.077-14.538 6.077Zm550.769 0q-8.672 0-14.749-5.867-6.077-5.866-6.077-14.538t5.867-14.749q5.866-6.077 14.538-6.077t14.749 5.866Q776-351.19 776-342.518t-5.866 14.749q-5.867 6.077-14.539 6.077ZM204.826-184q-8.672 0-14.749-5.866Q184-195.733 184-204.405t5.866-14.749q5.867-6.077 14.539-6.077t14.749 5.867q6.077 5.866 6.077 14.538t-5.867 14.749Q213.498-184 204.826-184Zm137.692 0q-8.672 0-14.749-5.866-6.077-5.867-6.077-14.539t5.867-14.749q5.866-6.077 14.538-6.077t14.749 5.867q6.077 5.866 6.077 14.538t-5.866 14.749Q351.19-184 342.518-184Zm137.693 0q-8.673 0-14.75-5.866-6.076-5.867-6.076-14.539t5.866-14.749q5.866-6.077 14.538-6.077 8.673 0 14.75 5.867 6.076 5.866 6.076 14.538t-5.866 14.749Q488.883-184 480.211-184Zm137.692 0q-8.672 0-14.749-5.866-6.077-5.867-6.077-14.539t5.866-14.749q5.867-6.077 14.539-6.077t14.749 5.867q6.077 5.866 6.077 14.538t-5.867 14.749Q626.575-184 617.903-184Zm137.692 0q-8.672 0-14.749-5.866-6.077-5.867-6.077-14.539t5.867-14.749q5.866-6.077 14.538-6.077t14.749 5.867Q776-213.498 776-204.826t-5.866 14.749Q764.267-184 755.595-184Z"/></svg>