<svg xmlns="http://www.w3.org/2000/svg" height="20" viewBox="0 -960 960 960" width="20"><path d="M480-744.957q-16.824 0-28.206-11.32-11.381-11.321-11.381-28.056t11.381-28.266q11.382-11.532 28.206-11.532h152.515q80.507 0 136.061 55.555 55.555 55.554 55.555 136.185V-476q0 16.824-11.321 28.206-11.321 11.381-28.056 11.381t-28.266-11.381Q744.957-459.176 744.957-476v-156.296q0-47.498-32.832-80.079-32.831-32.582-79.734-32.582H480Zm-304.333 0q-16.735 0-28.266-11.32-11.532-11.321-11.532-28.056t11.321-28.266q11.321-11.532 28.056-11.532t28.266 11.321q11.531 11.321 11.531 28.056t-11.32 28.266q-11.321 11.531-28.056 11.531Zm152.391 0q-16.735 0-28.266-11.32-11.531-11.321-11.531-28.056t11.32-28.266q11.321-11.532 28.056-11.532t28.267 11.321q11.531 11.321 11.531 28.056t-11.321 28.266q-11.321 11.531-28.056 11.531ZM175.667-592.804q-16.735 0-28.266-11.321-11.532-11.321-11.532-28.056t11.321-28.266q11.321-11.531 28.056-11.531t28.266 11.32q11.531 11.321 11.531 28.056t-11.32 28.266q-11.321 11.532-28.056 11.532Zm0 152.391q-16.735 0-28.266-11.321-11.532-11.32-11.532-28.055t11.321-28.267q11.321-11.531 28.056-11.531t28.266 11.321q11.531 11.32 11.531 28.055t-11.32 28.267q-11.321 11.531-28.056 11.531Zm0 152.152q-16.735 0-28.266-11.32-11.532-11.321-11.532-28.056t11.321-28.267q11.321-11.531 28.056-11.531t28.266 11.321q11.531 11.321 11.531 28.056t-11.32 28.266q-11.321 11.531-28.056 11.531Zm609.087 0q-16.735 0-28.266-11.32-11.531-11.321-11.531-28.056t11.32-28.267q11.321-11.531 28.056-11.531t28.266 11.321q11.532 11.321 11.532 28.056t-11.321 28.266q-11.321 11.531-28.056 11.531ZM175.667-135.869q-16.735 0-28.266-11.321-11.532-11.321-11.532-28.056t11.321-28.266q11.321-11.531 28.056-11.531t28.266 11.32q11.531 11.321 11.531 28.056t-11.32 28.266q-11.321 11.532-28.056 11.532Zm152.391 0q-16.735 0-28.266-11.321-11.531-11.321-11.531-28.056t11.32-28.266q11.321-11.531 28.056-11.531t28.267 11.32q11.531 11.321 11.531 28.056t-11.321 28.266q-11.321 11.532-28.056 11.532Zm152.153 0q-16.735 0-28.267-11.321-11.531-11.321-11.531-28.056t11.321-28.266q11.32-11.531 28.055-11.531t28.267 11.32q11.531 11.321 11.531 28.056t-11.321 28.266q-11.32 11.532-28.055 11.532Zm152.391 0q-16.735 0-28.266-11.321-11.532-11.321-11.532-28.056t11.321-28.266q11.321-11.531 28.056-11.531t28.266 11.32q11.531 11.321 11.531 28.056t-11.32 28.266q-11.321 11.532-28.056 11.532Zm152.152 0q-16.735 0-28.266-11.321-11.531-11.321-11.531-28.056t11.32-28.266q11.321-11.531 28.056-11.531t28.266 11.32q11.532 11.321 11.532 28.056t-11.321 28.266q-11.321 11.532-28.056 11.532Z"/></svg>