<svg xmlns="http://www.w3.org/2000/svg" height="24" viewBox="0 -960 960 960" width="24"><path d="M100.782-100.782v-330.739h106.001v224.738h224.738v106.001H100.782Zm427.697 0v-106.001h224.738v-224.738h106.001v330.739H528.479ZM230.391-280 360-458.088l90 120 120-160L729.609-280H230.391ZM100.782-528.479v-330.739h330.739v106.001H206.783v224.738H100.782Zm652.435 0v-224.738H528.479v-106.001h330.739v330.739H753.217ZM620-560q-26 0-43-17t-17-43q0-26 17-43t43-17q26 0 43 17t17 43q0 26-17 43t-43 17Z"/></svg>