<svg xmlns="http://www.w3.org/2000/svg" height="24" viewBox="0 -960 960 960" width="24"><path d="M234.022-276.413v-120h-120v-87.174h120v-120h87.174v120h120v87.174h-120v120h-87.174Zm246.391 83.826v-90.696l201.196-210.695q32.521-35 45.663-57.424 13.141-22.424 13.141-50.511 0-27.449-20.946-49.692-20.945-22.243-62.837-22.243-35.521 0-58.065 20.598-22.543 20.598-32.021 53.315l-89.088-35.587q15.435-49.782 61.348-90.837 45.913-41.054 119.587-41.054 84.435 0 132.011 48.92 47.576 48.92 47.576 115.863 0 46.673-21.717 84.51t-65.717 84.272L611.239-285.435l1.522 3.283h233.217v89.565H480.413Z"/></svg>