<svg xmlns="http://www.w3.org/2000/svg" height="20" viewBox="0 -960 960 960" width="20"><path d="m779.611-290.868-98.002-98.002v-300.347h-96v204.347l-98.132-98.132v-154.084H333.393l-98.133-98.132h314.349q15.565 0 28.892 8.804 13.326 8.804 7.108 27.196v12H730.61q20.387 0 34.694 14.306 14.307 14.307 14.307 34.694v447.35ZM760.899-95.212l-175.29-173.787v95.217q0 20.387-14.299 34.694-14.299 14.306-34.675 14.306H149.2q-20.376 0-34.833-14.246-14.456-14.246-14.456-34.544 0-20.298 14.306-34.754 14.307-14.457 34.694-14.457h31.478v-451.436l-86.868-86.869q-12.696-12.696-12.696-28.609 0-15.913 12.696-28.609 12.695-12.695 28.608-12.695 15.914 0 28.609 12.695l667.568 667.568q12.695 12.695 12.695 27.826 0 15.13-12.695 27.826Q805.61-82.39 789.697-82.39q-15.913 0-28.798-12.822ZM278.391-222.783h209.217v-144.218L278.391-576.218v353.435Zm143.044-423.261Zm-32.436 180.435Z"/></svg>