<svg xmlns="http://www.w3.org/2000/svg" height="20" viewBox="0 -960 960 960" width="20"><path d="m664-396.461-32-32V-696h-96v171.539L286-776h221.693q12.692 0 24.73 5.884 12.039 5.885 3.577 22.423V-728h99.693q11.923 0 20.115 8.192Q664-711.616 664-699.693v303.232Zm80.538 226.615L536-377.384v165.077q0 11.923-8.192 20.115Q519.616-184 507.693-184H200q-6.539 0-11.269-4.731Q184-193.461 184-200q0-6.538 4.731-11.269Q193.461-216 200-216h56v-441.385l-87.154-87.153q-5.616-5.616-6-11.27-.385-5.654 6-12.038 6.384-6.385 11.654-6.385 5.269 0 11.654 6.385l575.692 575.692q5.616 5.616 6 10.77.385 5.154-6 11.538-6.384 6.385-11.654 6.385-5.269 0-11.654-6.385Z"/></svg>