<svg xmlns="http://www.w3.org/2000/svg" height="20" viewBox="0 -960 960 960" width="20"><path d="M357.692-168Zm-51.998 51.999v-666.383h108.46v-61.615h131.692v61.615h108.46v272.693q-13.999 2.385-26.807 5.423-12.807 3.038-25.191 8.5V-730.77H357.692V-168H456q5.308 14.23 12.154 27.038 6.846 12.807 15.845 24.961H305.694Zm358.46 24L656-135.308q-19.385-5-34-13.039-14.616-8.038-27.154-20.731l-41.922 14.308-23.538-37.691 32.538-31.538q-4.693-17.462-4.693-36.885 0-19.424 4.693-36.886l-32.538-30.537 23.538-38.692 40.922 13.308q12.538-12.693 27.654-21.039 15.115-8.346 34.5-13.346l9.154-43.307h43.998l9.154 43.307q19.385 5 34.501 13.539 15.115 8.538 27.654 21.231l40.922-12.308 23.538 37.691-31.538 29.538q5.692 17.462 5.192 37.385-.5 19.924-6.192 37.385l32.538 30.538-23.538 37.691-41.922-13.692q-12.539 12.693-27.154 20.731-14.616 8.039-34.001 13.039l-10.154 43.306h-43.998Zm22.999-94.614q31.154 0 53.116-21.962 21.961-21.961 21.961-53.115 0-31.154-21.961-53.116-21.962-21.961-53.116-21.961t-53.115 21.961q-21.962 21.962-21.962 53.116t21.962 53.115q21.961 21.962 53.115 21.962Z"/></svg>