<svg xmlns="http://www.w3.org/2000/svg" height="20" viewBox="0 -960 960 960" width="20"><path d="M278.195-87.87V-800.13H402.5v-72h155v72h124.305v285.327q-7.653-.478-15.305.598t-14.827 3.706q-94.825 16.653-156.51 90.598-61.685 73.946-61.685 171.924 0 44.13 14.087 84.978 14.087 40.848 39.5 75.13h-208.87Zm386.718 35-12.239-56.956q-13.044-4.521-25.065-10.782-12.022-6.261-22.544-15.544l-56.195 17L514-179.174l42.196-40.717q-2.239-12.565-2.12-27.685.12-15.119 2.12-27.684L514-314.978l34.87-60.783 54.956 16q10.522-9.282 23.163-16.043 12.641-6.761 25.685-11.283l13.239-56.956h69.978l13.24 56.956q13.043 4.522 25.565 11.283 12.522 6.761 23.043 16.522l55.196-15.479 34.87 60.501-41.196 38.717q3.239 12.565 2.619 27.946-.619 15.38-3.619 27.945l42.196 39.718-34.87 59.782-56.196-16q-10.521 9.283-22.543 15.544-12.022 6.261-25.065 10.782l-14.24 56.957h-69.978Zm35.87-125.499q29.043 0 49.684-20.522 20.642-20.522 20.642-49.565 0-29.044-20.642-49.565-20.641-20.522-49.684-20.522-29.044 0-49.565 20.522-20.522 20.521-20.522 49.565 0 29.043 20.522 49.565 20.521 20.522 49.565 20.522Z"/></svg>