<svg xmlns="http://www.w3.org/2000/svg" height="20" viewBox="0 -960 960 960" width="20"><path d="M76.782-266.521v-426.958h806.436v426.958H76.782Zm150.523-172.957h267.391v-81.044H227.305v81.044ZM594.007-444q15.211 0 25.711-10.289 10.5-10.29 10.5-25.5 0-15.211-10.29-25.711-10.289-10.5-25.5-10.5-15.21 0-25.71 10.289-10.5 10.29-10.5 25.5 0 15.211 10.289 25.711 10.29 10.5 25.5 10.5Zm120 0q15.211 0 25.711-10.289 10.5-10.29 10.5-25.5 0-15.211-10.29-25.711-10.289-10.5-25.5-10.5-15.21 0-25.71 10.289-10.5 10.29-10.5 25.5 0 15.211 10.289 25.711 10.29 10.5 25.5 10.5Z"/></svg>