<svg xmlns="http://www.w3.org/2000/svg" height="20" viewBox="0 -960 960 960" width="20"><path d="M87.87-278.913v-402.174H872.13v402.174H87.869Zm83-83h618.26v-236.174H170.87v236.174Zm49.913-80.174h265.435v-75.826H220.783v75.826ZM590.42-444q15.21 0 25.71-10.289 10.5-10.29 10.5-25.5 0-15.211-10.289-25.711-10.289-10.5-25.5-10.5t-25.711 10.289q-10.5 10.29-10.5 25.5 0 15.211 10.29 25.711 10.289 10.5 25.5 10.5Zm120 0q15.21 0 25.71-10.289 10.5-10.29 10.5-25.5 0-15.211-10.289-25.711-10.289-10.5-25.5-10.5t-25.711 10.289q-10.5 10.29-10.5 25.5 0 15.211 10.29 25.711 10.289 10.5 25.5 10.5Zm-539.55 82.087v-236.174 236.174Z"/></svg>