<svg xmlns="http://www.w3.org/2000/svg" height="20" viewBox="0 -960 960 960" width="20"><path d="M231-192q-22 0-37-15t-15-37v-95q0-22 15-37t37-15h381v-152q0-4.3 2.789-7.15 2.79-2.85 7-2.85 4.211 0 7.211 2.85t3 7.15v152h74q22 0 37 15t15 37v95q0 22-15 37t-37 15H231Zm475-20q14 0 23-9t9-23v-95q0-14-9-23t-23-9H231q-14 0-23 9t-9 23v95q0 14 9 23t23 9h475Zm-405-79.5q0-10.5-7.281-18.5t-18.219-8q-10.938 0-18.219 8Q250-302 250-291.5t7.281 18.5q7.281 8 18.219 8 10.938 0 18.219-8Q301-281 301-291.5Zm135 0q0-10.5-7.281-18.5t-18.219-8q-10.938 0-18.219 8Q385-302 385-291.5t7.281 18.5q7.281 8 18.219 8 10.938 0 18.219-8Q436-281 436-291.5ZM545.5-265q10.938 0 18.219-8Q571-281 571-291.5t-7.281-18.5q-7.281-8-18.219-8-10.938 0-18.219 8Q520-302 520-291.5t7.281 18.5q7.281 8 18.219 8ZM622-660q-21 0-40 7t-33.92 19.909Q545-631 541.5-630t-7.5-3q-4-4-3.5-6.5t3.5-6.5q21.031-18.037 42.234-26.019Q597.438-680 622-680q26 0 47 8.5t43 26.5l3 6q1 2-3 6t-7 3q-3-1-6-3-16-13.5-35-20.25T622-660Zm0-128q-52.379 0-93.582 18.478Q487.214-751.044 458-724q-3 3-6.5 4.5T443-723q-4-4-2.5-8t4.5-8q36.046-32.176 80.723-50.588Q570.401-808 622-808q51.599 0 96.277 18.412Q762.954-771.176 799-739q3 4 4.5 8t-2.5 8q-5 5-8.5 3.5t-6.909-4.562Q757-751 715.727-769.5 674.455-788 622-788ZM199-212v-159 159Z"/></svg>