<svg xmlns="http://www.w3.org/2000/svg" height="24" viewBox="0 -960 960 960" width="24"><path d="M205.77-140.001q-30.308 0-51.308-21-20.999-21-20.999-51.308v-135.382q0-30.308 20.999-51.308 21-21 51.308-21h397.692v-130q0-12.769 8.615-21.384 8.615-8.616 21.384-8.616t21.384 8.616q8.615 8.615 8.615 21.384v130h77.692q30.308 0 51.308 21t21 51.308v135.382q0 30.308-21 51.308t-51.308 21H205.77ZM741.152-200q5.385 0 8.847-3.462 3.462-3.462 3.462-8.847v-135.382q0-5.385-3.462-8.847-3.462-3.462-8.847-3.462H205.77q-5.385 0-8.847 3.462-3.462 3.462-3.462 8.847v135.382q0 5.385 3.462 8.847Q200.385-200 205.77-200h535.382Zm-432.307-80q0-15.077-10.153-25.231-10.154-10.153-25.231-10.153-15.077 0-25.23 10.153-10.154 10.154-10.154 25.231 0 15.077 10.154 25.231 10.153 10.153 25.23 10.153t25.231-10.153q10.153-10.154 10.153-25.231Zm140 0q0-15.077-10.153-25.231-10.154-10.153-25.231-10.153-15.077 0-25.23 10.153-10.154 10.154-10.154 25.231 0 15.077 10.154 25.231 10.153 10.153 25.23 10.153t25.231-10.153q10.153-10.154 10.153-25.231Zm104.616 35.384q15.077 0 25.231-10.153 10.153-10.154 10.153-25.231 0-15.077-10.153-25.231-10.154-10.153-25.231-10.153-15.077 0-25.23 10.153-10.154 10.154-10.154 25.231 0 15.077 10.154 25.231 10.153 10.153 25.23 10.153Zm80-415.384q-15.616 0-28.462 3.923-12.847 3.923-24.539 11.77-11.769 5.846-24.038 5.423-12.269-.423-21.576-9.731-9.308-9.307-8.808-21.884.5-12.576 11.038-19.038 21.77-15.308 45.885-22.885 24.115-7.577 50.5-7.577t50.5 7.577q24.115 7.577 45.885 22.885 10.538 6.462 11.038 19.038.5 12.577-8.808 21.884-9.307 9.308-21.884 9.731-12.576.423-24.345-5.423-11.077-7.847-24.231-11.77Q648.461-660 633.461-660Zm0-140q-45.539 0-84.501 14.577-38.961 14.577-69.731 39.27-10.538 7.692-22.807 7.269-12.269-.423-20.961-9.115-9.307-9.308-8.923-21.269.385-11.961 10.308-20.038 40.615-33.154 90.423-51.923 49.807-18.77 106.192-18.77 56.385 0 106.192 18.77 49.808 18.769 90.423 51.923 9.923 8.077 10.308 20.038.385 11.961-8.923 21.269-8.692 8.692-20.961 9.115-12.269.423-22.807-7.269-30.769-24.693-69.731-39.27Q679-800 633.461-800Zm-440 600v-160 160Z"/></svg>