<svg xmlns="http://www.w3.org/2000/svg" height="20" viewBox="0 -960 960 960" width="20"><path d="M216-140q-29 0-50.5-21.5T144-212v-159q0-29 21.5-50.5T216-443h387v-126q0-15.3 10.289-25.65 10.29-10.35 25.5-10.35Q654-605 664.5-594.65 675-584.3 675-569v126h80q29 0 50.5 21.5T827-371v159q0 29-21.5 50.5T755-140H216Zm539-72v-159H216v159h539Zm-425-79.5q0-15.5-10.781-27T292.5-330q-15.938 0-26.719 11.5T255-291.5q0 15.5 10.781 27T292.5-253q15.938 0 26.719-11.5t10.781-27Zm135 0q0-15.5-10.781-27T427.5-330q-15.938 0-26.719 11.5T390-291.5q0 15.5 10.781 27T427.5-253q15.938 0 26.719-11.5t10.781-27Zm97.5 38.5q15.938 0 26.719-11.5t10.781-27q0-15.5-10.781-27T562.5-330q-15.938 0-26.719 11.5T525-291.5q0 15.5 10.781 27T562.5-253ZM639-660q-9 0-18 2t-16.92 4.909Q590-648 575.5-648.5 561-649 550-660t-10.5-25q.5-14 12.5-22 19.031-12.037 41.234-18.519Q615.438-732 639-732q25 0 47 7t42 19q11 8 12 21.5T730-660q-11 11-25.5 11.5T676-653q-8-3.5-17.5-5.25T639-660Zm0-128q-35.379 0-67.582 10.478Q539.214-767.044 512-747q-12 9-26.5 9T460-749q-11-11-10.5-25.5T461-798q37.046-29.176 82.223-45.588Q588.401-860 639-860q50.599 0 95.777 16.412Q779.954-827.176 817-798q11 9 11.5 23.5T818-749q-11 11-25.5 11t-26.909-9.062Q739-767 706.727-777.5 674.455-788 639-788ZM216-212v-159 159Z"/></svg>