<svg xmlns="http://www.w3.org/2000/svg" height="20" viewBox="0 -960 960 960" width="20"><path d="M448.232-152.54q-114.462 20.385-194.231 10.192-79.769-10.192-91.769-21.422-10.846-12.385-19.961-97.5-9.116-85.116 10.038-187.193L448.232-152.54Zm71.537-20.154L173.463-518.999q16-45.077 40.654-90.769 24.653-45.693 57.346-78 31.076-32.077 77.807-59.077t91.885-39.692l346.151 346.921q-15.076 50.307-41.192 93.307-26.115 43-57.577 74.462-32.461 32.846-80.961 59.769-48.5 26.923-87.807 39.384Zm-134.845-212.23q9.307 10.308 22.076 10.308t22.077-9.308l147.999-147.999q9.692-9.692 9.692-22.077 0-12.384-9.692-23.076-10.307-9.308-23.076-9.308t-22.077 9.308L384.924-430.077Q374.232-419.385 374.232-407q0 12.384 10.692 22.076ZM807.46-512.153 512.307-808.075q116.923-17.77 193.461-8.885 76.538 8.884 90.077 19.961 11.231 12.615 21.307 94.808 10.077 82.192-9.692 190.038Z"/></svg>