<svg xmlns="http://www.w3.org/2000/svg" height="20" viewBox="0 -960 960 960" width="20"><path d="M528-240v-134l-48-48-20 102-152-31 9-47 105 22 30-150-44 16v60h-48v-94l128-46q17-6 34-.5t25 21.5q26 48 57.336 59.5Q635.671-498 648-498v48q-21 0-60.5-15T519-517l-10 57 67 66v154h-48Zm0-384q-20.4 0-34.2-13.8Q480-651.6 480-672q0-20.4 13.8-34.2Q507.6-720 528-720q20.4 0 34.2 13.8Q576-692.4 576-672q0 20.4-13.8 34.2Q548.4-624 528-624ZM480.276-96Q401-96 331-126q-70-30-122.5-82.5T126-330.958q-30-69.959-30-149.5Q96-560 126-629.5t82.5-122Q261-804 330.958-834q69.959-30 149.5-30Q560-864 629.5-834t122 82.5Q804-699 834-629.276q30 69.725 30 149Q864-401 834-331q-30 70-82.5 122.5T629.276-126q-69.725 30-149 30ZM480-168q130 0 221-91t91-221q0-130-91-221t-221-91q-130 0-221 91t-91 221q0 130 91 221t221 91Z"/></svg>