<svg xmlns="http://www.w3.org/2000/svg" height="24" viewBox="0 -960 960 960" width="24"><path d="M505-217v-148l-33-36-20 100-165-35 11-54 111 23 35-174-44 16v68h-55v-107l136-50q17-6 34.319 1.154Q532.639-605.692 541-589q23 48 54.5 62.5T640-512v55q-23 0-57-14t-62-46l-13 74 52 56v170h-55Zm35-415q-20.4 0-34.2-13.8Q492-659.6 492-680q0-20.4 13.8-34.2Q519.6-728 540-728q20.4 0 34.2 13.8Q588-700.4 588-680q0 20.4-13.8 34.2Q560.4-632 540-632ZM480-46q-91 0-169.987-34.084-78.988-34.083-137.417-92.512T80.084-310.013Q46-389 46-480t34.084-169.987q34.083-78.988 92.512-137.417t137.417-92.512Q389-914 480-914t169.987 34.084q78.988 34.083 137.417 92.512t92.512 137.417Q914-571 914-480t-34.084 169.987q-34.083 78.988-92.512 137.417T649.987-80.084Q571-46 480-46Zm0-126q130 0 219-89t89-219q0-130-89-219t-219-89q-130 0-219 89t-89 219q0 130 89 219t219 89Z"/></svg>