<svg xmlns="http://www.w3.org/2000/svg" height="20" viewBox="0 -960 960 960" width="20"><path d="M228.695-83 129.304-877h701.392L731.305-82.999h-502.61Zm24.175-599.174h121.26q20.566-20.87 47.981-33.022 27.416-12.152 58.087-12.152 30.672 0 57.889 12.152 27.217 12.152 47.783 33.022h121.022l12.977-96.825H240.696l12.174 96.825Zm227.342 165.173q24.136 0 41.461-17.538 17.326-17.538 17.326-41.673 0-24.136-17.538-41.461-17.538-17.326-41.673-17.326-24.136 0-41.461 17.538-17.326 17.538-17.326 41.673 0 24.136 17.538 41.461 17.538 17.326 41.673 17.326Zm-216.081-72.825 50.739 408.825h330.26l50.739-408.825h-64.26q.235 3.381-.013 7.299-.248 3.918-.248 6.527 0 63.391-43.978 107.37-43.979 43.978-107.37 43.978-63.391 0-107.37-43.978-43.978-43.979-43.978-107.37 0-2.609-.248-6.527t-.013-7.299h-64.26Zm50.739 408.825h330.26-330.26Z"/></svg>