<svg xmlns="http://www.w3.org/2000/svg" height="24" viewBox="0 -960 960 960" width="24"><path d="m226.078-100.001-83.769-759.998h675.382l-83.769 759.998H226.078Zm2.076-529.998h150.077q19.846-19 45.885-29.5 26.038-10.5 55.884-10.5t55.884 10.5q26.039 10.5 45.885 29.5h150.077L750-800H209l19.154 170.001Zm251.846 200q37.231 0 63.616-26.385 26.385-26.385 26.385-63.616 0-37.231-26.385-63.616-26.385-26.385-63.616-26.385-37.231 0-63.616 26.385-26.385 26.385-26.385 63.616 0 37.231 26.385 63.616 26.385 26.385 63.616 26.385ZM234.846-570.001 280-160h400l45.154-410.001h-104.77q4.307 11.539 6.961 23.924 2.654 12.384 2.654 26.077 0 62.154-43.923 106.076Q542.154-370.001 480-370.001q-62.154 0-106.076-43.923Q330.001-457.846 330.001-520q0-13.693 2.654-26.077 2.654-12.385 6.961-23.924h-104.77ZM280-160h59.616-9.615 299.998-9.615H680 280Z"/></svg>