<svg xmlns="http://www.w3.org/2000/svg" height="20" viewBox="0 -960 960 960" width="20"><path d="M212.001-220.616v-51.998h40.308v-258.463q0-84.692 53.307-148.192 53.308-63.5 136.385-76.807v-87.923h75.998v87.923q83.077 13.307 136.385 76.807 53.307 63.5 53.307 148.192v258.463h40.308v51.998H212.001ZM480-489.692Zm-.28 381.383q-26.643 0-45.335-18.89t-18.692-45.417h128.614q0 26.923-18.972 45.615-18.973 18.692-45.615 18.692ZM304.307-272.614h351.386v-258.463q0-73.462-51.116-124.577Q553.462-706.77 480-706.77q-73.462 0-124.577 51.116-51.116 51.115-51.116 124.577v258.463Zm88.155-95.848h175.076v-31.076H429.999l137.539-160.924v-31.076H392.462v31.076h137.539L392.462-399.538v31.076Z"/></svg>