<svg xmlns="http://www.w3.org/2000/svg" height="20" viewBox="0 -960 960 960" width="20"><path d="M172.782-196.782v-98.001h41.217v-220.782q0-94.348 56.609-167.413 56.608-73.066 148.391-90.95v-109.29h122.002v109.478q92.348 17.696 148.674 90.479 56.326 72.783 56.326 167.696v220.782h41.217v98.001H172.782ZM480.353-70.564q-32.586 0-55.578-22.976-22.993-22.977-22.993-55.242h157.001q0 32.827-23.039 55.522-23.039 22.696-55.391 22.696ZM384-366.783h192v-58.174H459.044L576-550.87v-48H384v58.175h107.912L384-424.957v58.174Z"/></svg>