<svg xmlns="http://www.w3.org/2000/svg" height="20" viewBox="0 -960 960 960" width="20"><path d="M397.846-480 288.308-622.231Q271.615-638 280.462-659q8.846-21 30.769-21h274.384q12.448 0 23.532 5.769t19.622 15.308l117.385 142.384q12.923 16.154 12.923 36.539t-12.923 36.539L625.692-299.538q-7.769 8.769-18.083 14.154Q597.294-280 585.615-280H311.231q-21.923 0-30.769-21-8.847-21 7.846-36.769L397.846-480Zm44.308 0-134 168h265.461q11.539 0 21.539-5.385 10-5.384 16.923-14.615l111.154-133.385q4.615-6.154 4.615-14.615t-4.615-14.615L612.077-628q-6.923-9.231-16.154-14.615Q586.692-648 573.615-648H308.154l134 168Zm0 0-134-168 134 168-134 168 134-168Z"/></svg>