<svg xmlns="http://www.w3.org/2000/svg" height="24" viewBox="0 -960 960 960" width="24"><path d="M260-180.001q-82.922 0-141.461-57.615-58.538-57.615-58.538-140.538 0-74.538 47.962-131.115 47.962-56.576 118.961-67.037 19.231-89.693 90.192-146.693 70.961-57 162.884-57 108.538 0 184.268 75.731 75.731 75.73 75.731 184.268v20.001h12.308q63.23 4.923 105.461 50.846Q899.999-403.23 899.999-340q0 66.922-46.538 113.461Q806.922-180.001 740-180.001H260Zm154-128.923q7.231 0 13.461-2.308 6.231-2.307 11.846-7.923l165.154-165.153q9.308-9.308 9.308-21.692t-9.308-21.692q-9.307-9.307-21.692-9.307-12.384 0-21.691 9.307L413.385-379.999l-63.693-63.693q-8.692-8.692-21.077-8.692-12.384 0-21.076 8.692-9.308 9.308-9.308 21.692t9.308 21.076l81.154 81.769q5.615 5.616 11.846 7.923 6.23 2.308 13.461 2.308Z"/></svg>