<svg xmlns="http://www.w3.org/2000/svg" height="24" viewBox="0 -960 960 960" width="24"><path d="M100-141.538v-41.539q31.077-3.846 49.692-20.385Q168.308-220 215.077-220q46.769 0 69.308 20 22.538 20 63.153 20 40.616 0 63.154-20 22.539-20 69.308-20 46.769 0 70.077 20T614-180q40.615 0 62.385-20 21.769-20 68.538-20t65.385 16.538q18.615 16.539 49.692 20.385v41.539q-35.923-4.616-56.731-21.539Q782.462-180 744.923-180q-37.538 0-59.308 20-21.769 20-71.615 20t-73.154-20Q517.538-180 480-180t-60.077 20q-22.538 20-72.385 20-49.846 0-72.384-20-22.539-20-60.077-20-37.539 0-58.346 16.923-20.808 16.923-56.731 21.539Zm0-180v-41.539q31.077-3.846 49.692-20.385Q168.308-400 215.077-400q46.769 0 69.423 20 22.654 20 63.038 20 40.616 0 63.154-20 22.539-20 69.308-20 46.769 0 69.308 20 22.538 20 63.154 20 40.615 0 63.153-20 22.539-20 69.308-20 46.769 0 65.385 16.538 18.615 16.539 49.692 20.385v41.539q-35.923-4.616-56.731-21.539Q782.462-360 744.923-360q-37.538 0-58.961 20-21.423 20-71.962 20-50.077 0-73.269-20-23.193-20-60.731-20-38 0-59.962 20-21.961 20-72.5 20-50.538 0-72.73-20-22.193-20-59.731-20-37.539 0-58.346 16.923-20.808 16.923-56.731 21.539Zm557.231-490.77q35.077 0 59.846 24.885 24.769 24.884 24.769 59.731 0 35.077-24.769 59.846t-59.846 24.769q-35.077 0-59.846-24.769-24.77-24.769-24.77-59.846 0-34.847 24.77-59.731 24.769-24.885 59.846-24.885ZM346.769-500q-11 0-19.308-3.423-8.307-3.423-16.077-9.808l129.154-129.154L379-703.923l-149.462-60.692V-820l186.154 73.846 232.924 232.923q-7.77 6.385-16.077 9.808Q624.231-500 613.231-500q-26.77 0-52.769-20-26-20-80.462-20t-80.462 20q-25.999 20-52.769 20Z"/></svg>