<svg xmlns="http://www.w3.org/2000/svg" height="20" viewBox="0 -960 960 960" width="20"><path d="M92.413-133v-79.413q38.63 0 57.109-19 18.478-19 75.478-19 57 0 74.837 19 17.837 19 52.163 19 34.565 0 52.783-19 18.217-19 75.217-19 55 0 74.717 19 19.718 19 53.783 19t52.283-19q18.217-19 75.217-19t75.228 19q18.229 19 56.359 19V-133q-57.152 0-77.587-19-20.435-19-54-19t-52.783 19Q664-133 608.5-133t-75.217-19q-19.718-19-53.783-19t-52.283 19Q409-133 352-133t-74.717-19Q259.565-171 225-171t-53.922 19q-19.357 19-78.665 19Zm1-147.587V-360q38.63 0 56.609-19Q168-398 225-398q57 0 75.098 19T353-360q34.565 0 52.783-19Q424-398 481-398q55 0 74.957 19 19.956 19 53.543 19 34.065 0 51.783-19Q679-398 736-398t75.228 19q18.229 19 56.359 19v79.413q-57.152 0-77.587-19-20.435-19-54-19t-52.522 19q-18.956 19-74.935 19-54.304 0-74.141-19-19.837-19-52.92-19-34.761 0-53.575 19-18.815 19-74.907 19-56.522 0-74.978-19-18.457-19-53.022-19t-53.729 19q-19.164 19-77.858 19Zm557.71-543.065q41.899 0 70.855 29.076 28.957 29.076 28.957 70.057 0 42.184-28.731 71.113-28.731 28.928-70.631 28.928-41.899 0-70.975-28.928-29.076-28.929-29.076-71.113 0-40.981 28.85-70.057 28.851-29.076 70.751-29.076ZM351.526-477.413q-20.004 0-37.396-7.457-17.391-7.456-32.108-17.413l128.239-124.239-41.37-37.369-152.478-56.805v-97.174L432.022-741l245.956 238.717q-14.717 9.957-32.108 17.413-17.392 7.457-37.809 7.457-34.66 0-55.198-19-20.537-19-73.045-19t-73.424 19q-20.916 19-54.868 19Z"/></svg>