<svg xmlns="http://www.w3.org/2000/svg" height="24" viewBox="0 -960 960 960" width="24"><path d="m737.693-325.538-31.231-30.77q7.538-17 10.538-36.423 3-19.423 3-41.731 0-47-17.5-89.769Q685-567 650-600L480-768l-94.154 92.154-28.308-28.308 88.923-87.154q7.462-7.462 16.154-10.692 8.693-3.231 17.385-3.231 8.692 0 17.769 3.346 9.077 3.346 16.539 10.577l164 161q37.077 35.077 59.385 88.731Q760-487.923 760-434.462q0 26.77-5.307 54.001-5.308 27.23-17 54.923ZM480-160q-116.846 0-198.423-80.192Q200-320.385 200-434.462q0-55.615 21.769-104.538 21.769-48.923 56.077-86.538l-150.769-150.77q-5.616-5.615-6-13.769-.385-8.154 6-14.538Q133.461-811 141.231-811q7.769 0 14.154 6.385l653.846 653.846q5.615 5.615 6 13.769.384 8.154-6 14.539-6.385 6.384-14.154 6.384t-14.154-6.384L669.538-233.846q-34.846 34.385-85.307 54.116Q533.769-160 480-160Zm0-40q51.385 0 93.5-18.846t67.269-43.769L306.154-596.769Q279-567.077 259.5-525.461 240-483.846 240-434.462q0 98 70 166.231T480-200Zm-8.539-231.692Zm76.154-82.923Z"/></svg>