<svg xmlns="http://www.w3.org/2000/svg" height="24" viewBox="0 -960 960 960" width="24"><path d="m728-332-22-22q8-17 11-37t3-43q0-47-17.5-90T650-600L480-768l-96 94-20-20 85-83q7-7 15-10t16-3q8 0 16.5 3t15.5 10l158 155q35 33 56.5 85.5T748-434q0 24-4.5 49.5T728-332ZM480-172q-112 0-190-76.5T212-434q0-57 23.5-106.5T294-626L140-780q-4-4-4.5-9.5T140-800q5-5 10-5t10 5l646 646q4 4 4.5 9.5T806-134q-5 5-10 5t-10-5L670-250q-33 36-84.5 57T480-172Zm0-28q56 0 101-21.5t69-48.5L314-606q-29 29-51.5 73.5T240-434q0 98 70 166t170 68Zm0-240Zm66-73Z"/></svg>