<svg xmlns="http://www.w3.org/2000/svg" height="24" viewBox="0 -960 960 960" width="24"><path d="M737.693-325.538 357.538-704.154l88.923-87.154q7.462-7.462 16.154-10.692 8.693-3.231 17.385-3.231 8.692 0 17.769 3.346 9.077 3.346 16.539 10.577l164 161q37.077 35.077 59.385 88.731Q760-487.923 760-434.462q0 26.77-5.307 54.001-5.308 27.23-17 54.923ZM480-160q-116.846 0-198.423-80.192Q200-320.385 200-434.462q0-55.615 21.769-104.538 21.769-48.923 56.077-86.538l-150.769-150.77q-5.616-5.615-6-13.769-.385-8.154 6-14.538Q133.461-811 141.231-811q7.769 0 14.154 6.385l653.846 653.846q5.615 5.615 6 13.769.384 8.154-6 14.539-6.385 6.384-14.154 6.384t-14.154-6.384L669.538-233.846q-34.846 34.385-85.307 54.116Q533.769-160 480-160Z"/></svg>