<svg xmlns="http://www.w3.org/2000/svg" height="20" viewBox="0 -960 960 960" width="20"><path d="m711.693-345.538-26.231-27.77q5.538-14 8.038-30.423t2.5-32.731q0-40-13-78.269Q670-553 641-582L480-762l-88.154 98.154-23.308-23.308 79.734-89.908q6.651-7.708 15.093-11.438 8.443-3.731 16.885-3.731 8.442 0 17.019 3.346 8.577 3.346 15.039 11.577l154 175q31.077 31.077 46.385 77.231Q728-478.923 728-436.462q0 19.77-3.307 43.001-3.308 23.23-13 47.923ZM480.257-190q-103.653 0-175.955-71.692Q232-333.385 232-436.462q0-52.449 21.269-98.455t52.577-78.621L157.858-762.453q-5.397-5.47-5.781-10.624-.385-5.154 6-11.538Q164.461-791 170.231-791q5.769 0 12.154 6.385l600.846 601.846q5.615 5.615 6 10.769.384 5.154-6 11.539-6.385 6.384-11.654 6.384t-11.654-6.384L656.246-263.846q-31.554 34.385-79.515 54.116Q528.769-190 480.257-190ZM480-222q48.385 0 89.5-18.846t64.269-45.769L329.154-591.769Q305-566.077 284.5-525.441 264-484.805 264-436.462q0 89.695 63 152.079Q390-222 480-222Zm1.461-216.692Zm63.154-74.923Z"/></svg>