<svg xmlns="http://www.w3.org/2000/svg" height="20" viewBox="0 -960 960 960" width="20"><path d="M228-110q-49 0-83.5-34.5T110-228v-504q0-49.7 34.5-83.85Q179-850 228-850h504q49.7 0 83.85 34.15Q850-781.7 850-732v504q0 49-34.15 83.5T732-110H228Zm252-232q29 0 51-19t31-48q6-15 19.431-22 13.431-7 29.569-7h121v-294H228v294h121q16.138 0 29.569 7Q392-424 398-409q9 29 31 48t51 19Zm-36-216-35.021 35.021Q399-513 384-512.5t-25.478-9.5Q348-532 348.5-547.5t10.333-25.366l78.889-79.173q8.417-8.433 19.736-13.197Q468.778-670 480-670q11.222 0 22.542 4.764 11.319 4.764 19.736 13.197l78.889 79.173Q611-563 611.5-548t-10.022 25Q591-513 576-513.5q-15-.5-24.979-10.223L516-558l1 116q0 15.3-10.289 25.65-10.29 10.35-25.5 10.35Q466-406 455.5-416.35 445-426.7 445-442l-1-116Z"/></svg>