<svg xmlns="http://www.w3.org/2000/svg" height="20" viewBox="0 -960 960 960" width="20"><path d="M167.788-428q-22.096 0-36.942-15.058Q116-458.117 116-480.212q0-22.096 15.058-36.942Q146.117-532 168.212-532q22.096 0 36.942 15.058Q220-501.883 220-479.788q0 22.096-15.058 36.942Q189.883-428 167.788-428ZM234-210.692 210.692-234 353-376.308 376.308-353 234-210.692Zm119-373L210.692-726 234-749.308 376.308-607 353-583.692ZM479.788-116q-22.096 0-36.942-15.058Q428-146.117 428-168.212q0-22.096 15.058-36.942Q458.117-220 480.212-220q22.096 0 36.942 15.058Q532-189.883 532-167.788q0 22.096-15.058 36.942Q501.883-116 479.788-116Zm0-624q-22.096 0-36.942-15.058Q428-770.117 428-792.212q0-22.096 15.058-36.942Q458.117-844 480.212-844q22.096 0 36.942 15.058Q532-813.883 532-791.788q0 22.096-15.058 36.942Q501.883-740 479.788-740ZM607-585.231 583.692-607 726-749.308 749.308-726 607-585.231Zm119 374.539L583.692-353 607-376.308 749.308-234 726-210.692ZM791.788-428q-22.096 0-36.942-15.058Q740-458.117 740-480.212q0-22.096 15.058-36.942Q770.117-532 792.212-532q22.096 0 36.942 15.058Q844-501.883 844-479.788q0 22.096-15.058 36.942Q813.883-428 791.788-428Z"/></svg>