<svg xmlns="http://www.w3.org/2000/svg" height="24" viewBox="0 -960 960 960" width="24"><path d="M166.783-140.782q-44.305 0-75.153-30.848-30.848-30.848-30.848-75.153v-466.434q0-44.305 30.848-75.153 30.848-30.848 75.153-30.848h599.435q22.087 0 37.544 15.456 15.456 15.457 15.456 37.544 0 22.088-15.456 37.544-15.457 15.457-37.544 15.457H166.783v466.434h56.825q22.087 0 37.544 15.457 15.457 15.456 15.457 37.544 0 22.087-15.457 37.544-15.457 15.456-37.544 15.456h-56.825Zm269.792-117.522q23.338 0 39.425-16.22 16.087-16.22 16.087-39.391 0-23.172-16.22-39.258-16.22-16.087-39.391-16.087-23.172 0-39.541 16.22-16.37 16.219-16.37 39.391 0 23.171 16.336 39.258 16.337 16.087 39.674 16.087Zm409.643 117.522H649.609q-22.087 0-37.544-15.456-15.456-15.457-15.456-37.544v-357.739q0-22.088 15.456-37.544 15.457-15.457 37.544-15.457h196.609q22.087 0 37.544 15.457 15.456 15.456 15.456 37.544v357.739q0 22.087-15.456 37.544-15.457 15.456-37.544 15.456Zm-489.609-44.139v-34.209Q335.913-236.695 324-261.108t-11.913-52.674q0-28.261 11.913-52.674 11.913-24.414 32.609-41.979v-34.208q0-18.76 12.637-31.45 12.638-12.69 31.319-12.69h72.087q18.681 0 31.319 12.69 12.638 12.69 12.638 31.45v34.208q20.695 17.565 32.326 41.979 11.63 24.413 11.63 52.674t-11.63 52.674q-11.631 24.413-32.326 41.978v34.209q0 18.759-12.638 31.449-12.638 12.69-31.319 12.69h-72.087q-18.681 0-31.319-12.69-12.637-12.69-12.637-31.449Z"/></svg>