<svg xmlns="http://www.w3.org/2000/svg" height="20" viewBox="0 -960 960 960" width="20"><path d="M180-158q-49.7 0-83.85-34.162Q62-226.324 62-276.04v-408.243Q62-734 96.15-768T180-802h587q24.3 0 41.65 17.289 17.35 17.29 17.35 41.5Q826-719 808.65-701.5T767-684H180v408h43q24.3 0 41.65 17.289 17.35 17.29 17.35 41.5Q282-193 264.65-175.5T223-158h-43Zm245.941-151Q443-309 454.5-320.735q11.5-11.736 11.5-28.5Q466-366 454.265-377.5q-11.736-11.5-28.5-11.5Q409-389 397-377.265q-12 11.736-12 28.5Q385-332 396.941-320.5t29 11.5ZM839-158H653q-24.3 0-41.65-17.35Q594-192.7 594-217v-332q0-24.3 17.35-41.65Q628.7-608 653-608h186q24.3 0 41.65 17.35Q898-573.3 898-549v332q0 24.3-17.35 41.65Q863.3-158 839-158Zm-485-43.324V-243q-25-18-40.5-45.736Q298-316.472 298-349q0-32.528 15.5-60.264Q329-437 354-455v-41.676q0-18.413 12.337-30.868Q378.675-540 396.912-540h57.825q18.238 0 30.75 12.456Q498-515.089 498-496.676V-455q25 18 40 45.736 15 27.736 15 60.264 0 32.528-15 60.264Q523-261 498-243v41.676q0 18.413-12.337 30.868Q473.325-158 455.088-158h-57.825q-18.238 0-30.75-12.456Q354-182.911 354-201.324Z"/></svg>