<svg xmlns="http://www.w3.org/2000/svg" height="24" viewBox="0 -960 960 960" width="24"><path d="M280-300q-16.769 0-28.385-11.615Q240-323.231 240-340.211q0-16.328 11.615-28.058Q263.231-380 280.211-380q16.327 0 28.058 11.667Q320-356.667 320-340q0 16.769-11.667 28.385Q296.667-300 280-300Zm0-280q-16.769 0-28.385-11.615Q240-603.231 240-620.211q0-16.328 11.615-28.058Q263.231-660 280.211-660q16.327 0 28.058 11.667Q320-636.667 320-620q0 16.769-11.667 28.385Q296.667-580 280-580Zm160 120q-8.5 0-14.25-5.758-5.75-5.757-5.75-14.269t5.75-14.242Q431.5-500 440-500h80q8.5 0 14.25 5.758 5.75 5.757 5.75 14.269t-5.75 14.242Q528.5-460 520-460h-80Zm239.231-19.782q0-59.603-17.193-113.449-17.192-53.846-48.269-99.692-5.154-7.077-4.923-16 .231-8.923 7.077-14.923t14.385-4.269q7.538 1.73 12.923 8.807 35.231 51.462 55.615 111.979Q719.231-546.811 719.231-480q0 55.182-13.5 105.437-13.5 50.255-38.269 95.486-4 7.475-12 9.468-8 1.994-15.077-2.776-7.077-4.769-8.27-13.192-1.192-8.423 2.962-16.5 20.915-40.839 32.534-84.989 11.62-44.15 11.62-92.716Z"/></svg>