<svg xmlns="http://www.w3.org/2000/svg" height="24" viewBox="0 -960 960 960" width="24"><path d="M480-803.846q-30.692 0-52.269-21.577-21.577-21.577-21.577-52.269 0-30.692 21.577-52.269 21.577-21.577 52.269-21.577 30.692 0 52.269 21.577 21.577 21.577 21.577 52.269 0 30.692-21.577 52.269-21.577 21.577-52.269 21.577ZM376.155-202.308v-489.231q-61.154-5-121.615-14.423-60.462-9.423-114.539-23.269l14.615-59.999q76.847 19.846 159.269 28.769 82.423 8.923 166.115 8.923 83.692 0 166.115-8.923 82.422-8.923 159.269-28.769l14.615 59.999q-54.077 13.846-114.539 23.269-60.461 9.423-121.615 14.423v489.231h-59.999v-240.769h-87.692v240.769h-59.999ZM320-4.616q-14.692 0-25.038-10.346T284.616-40q0-14.692 10.346-25.038T320-75.384q14.692 0 25.038 10.346T355.384-40q0 14.692-10.346 25.038T320-4.616Zm160 0q-14.692 0-25.038-10.346T444.616-40q0-14.692 10.346-25.038T480-75.384q14.692 0 25.038 10.346T515.384-40q0 14.692-10.346 25.038T480-4.616Zm160 0q-14.692 0-25.038-10.346T604.616-40q0-14.692 10.346-25.038T640-75.384q14.692 0 25.038 10.346T675.384-40q0 14.692-10.346 25.038T640-4.616Z"/></svg>