<svg xmlns="http://www.w3.org/2000/svg" height="20" viewBox="0 -960 960 960" width="20"><path d="M479.752-799.692q-30.137 0-50.791-20.902-20.653-20.902-20.653-51.038 0-30.137 20.901-50.791 20.902-20.654 51.039-20.654t50.791 20.902q20.653 20.901 20.653 51.038 0 30.137-20.901 50.791-20.902 20.654-51.039 20.654Zm-87.445 591.077v-481.462q-57.307-5-107.73-13.846T184-727.461l7.231-27.001q75.692 19.693 144.038 29.539 68.346 9.846 144.731 9.846 76.385 0 144.731-9.846 68.346-9.846 144.038-29.539L776-727.461q-50.154 14.692-100.577 23.538-50.423 8.846-107.73 13.671v481.637h-32.001v-241.539H424.308v241.539h-32.001ZM324-21.231q-11.385 0-19.077-7.192-7.692-7.192-7.692-19.577 0-12.385 7.692-19.577 7.692-7.192 19.077-7.192 11.385 0 19.077 7.192 7.692 7.192 7.692 19.577 0 12.385-7.692 19.577-7.692 7.192-19.077 7.192Zm156 0q-11.385 0-19.077-7.192-7.692-7.192-7.692-19.577 0-12.385 7.692-19.577 7.692-7.192 19.077-7.192 11.385 0 19.077 7.192 7.692 7.192 7.692 19.577 0 12.385-7.692 19.577-7.692 7.192-19.077 7.192Zm156 0q-11.385 0-19.077-7.192-7.692-7.192-7.692-19.577 0-12.385 7.692-19.577 7.692-7.192 19.077-7.192 11.385 0 19.077 7.192 7.692 7.192 7.692 19.577 0 12.385-7.692 19.577-7.692 7.192-19.077 7.192Z"/></svg>