<svg xmlns="http://www.w3.org/2000/svg" height="20" viewBox="0 -960 960 960" width="20"><path d="M480.034-76.782q-127.947 0-217.6-89.628-89.652-89.628-89.652-217.59v-192q0-127.962 89.618-217.59t217.566-89.628q127.947 0 217.6 89.628 89.652 89.628 89.652 217.59v192q0 127.962-89.618 217.59T480.034-76.782ZM516-600h171.217q-8-68.609-54.456-118.63Q586.304-768.652 516-781.217V-600Zm-243.217 0H444v-181.217q-70.304 11.565-116.761 62.087-46.456 50.521-54.456 119.13Zm207.209 425.217q86.822 0 148.023-61.196Q689.217-297.175 689.217-384v-144H270.783v144q0 86.814 61.194 148.015 61.193 61.202 148.015 61.202ZM480-524Zm36-76Zm-72 0Zm36 76Z"/></svg>