<svg xmlns="http://www.w3.org/2000/svg" height="20" viewBox="0 -960 960 960" width="20"><path d="M480.384-334Q546-334 592-380.384t46-112Q638-558 591.616-604t-112-46Q414-650 368-603.616t-46 112Q322-426 368.384-380t112 46ZM470-98v-72h-72v-20h72v-123q-70.8-6.971-119.4-57.485Q302-421 302-492q0-35 13-66.5t37-60.5l-71-71-51 51-14-14 51-50-125-125v130h-20v-164h164v20H156l125 125 50-51 14 14-51 50 74 74q23.734-18.41 52.363-29.205Q448.992-670 480-670q32 0 60.5 11t51.5 29l212-212H674v-20h164v164h-20v-130L608-617q24 27 37 58.474 13 31.474 13 66.526 0 71-48.6 121.515Q560.8-319.971 490-313v123.293h72V-170h-72v72h-20Z"/></svg>