<svg xmlns="http://www.w3.org/2000/svg" height="24" viewBox="0 -960 960 960" width="24"><path d="M480.162-334Q549-334 597.5-382.662q48.5-48.661 48.5-117.5Q646-569 597.338-617.5q-48.661-48.5-117.5-48.5Q411-666 362.5-617.338q-48.5 48.661-48.5 117.5Q314-431 362.662-382.5q48.661 48.5 117.5 48.5ZM466-66v-80h-80v-28h80v-132q-76-8-128-63t-52-131q0-35 12-67.5t34-60.5l-70-70-56 56-19-19 56-56-129-129v140H86v-188h188v28H134l129 129 56-56 19 19-56 56 71 71q27-22 59.5-34.5T480-694q35 0 67.5 12.5T607-647l219-219H686v-28h188v188h-28v-140L627-627q22 27 34.5 59.474T674-500q0 76-52 131t-128 63v132h80v28h-80v80h-28Z"/></svg>