<svg xmlns="http://www.w3.org/2000/svg" height="20" viewBox="0 -960 960 960" width="20"><path d="M480.222-368.479q49.691 0 84.234-34.765 34.543-34.766 34.543-84.456 0-49.691-34.765-84.234-34.766-34.543-84.456-34.543-49.691 0-84.234 34.765-34.543 34.766-34.543 84.456 0 49.691 34.765 84.234 34.766 34.543 84.456 34.543ZM430.999-54.477v-68.609h-72v-98.001h72v-55.217q-74.495-16.362-121.248-75.42-46.752-59.058-46.752-135.754 0-32.231 9.935-62.485 9.935-30.254 28.674-59.385l-20.782-20.782-51 51-51-51 51-51-57.304-56.738v74.347H74.521v-242.002h242.001v98.002H241.61l57.303 57.303 50.435-51 51 51-51 51 23.348 23.348q23.734-14.715 51.306-21.662 27.573-6.947 56.007-6.947 29.426 0 56.861 7.152 27.434 7.153 50.434 21.457L718.39-807.521h-74.912v-98.002h242.001v242.002h-98.001v-74.347L658.957-608.782q19.305 28 28.674 58.217 9.37 30.217 9.37 63.087 0 76.696-46.752 135.754-46.753 59.058-121.248 75.42v55.509h72v97.709h-72v68.609h-98.002Z"/></svg>