<svg xmlns="http://www.w3.org/2000/svg" height="24" viewBox="0 -960 960 960" width="24"><path d="M438.565-104.695v-91.001h82.87v91.001h-82.87Zm0-659.609v-91.001h82.87v91.001h-82.87Zm162.87 659.609v-91.001h82.869v91.001h-82.869Zm0-659.609v-91.001h82.869v91.001h-82.869Zm162.869 659.609v-91.001h91.001v91.001h-91.001Zm0-659.609v-91.001h91.001v91.001h-91.001Zm-76.891 452.195L623.761-376l57.739-58.5H438.565v-91H681.5L623.761-584l63.652-63.891L855.305-480 687.413-312.109ZM195.696-195.696h71.869v-568.608h-71.869v568.608Zm-91.001 91.001v-750.61h253.87v750.61h-253.87Zm91.001-91.001h71.869-71.869Z"/></svg>