<svg xmlns="http://www.w3.org/2000/svg" height="20" viewBox="0 -960 960 960" width="20"><path d="M470-808v-68q0-4.25 2.825-7.125 2.824-2.875 7-2.875 4.175 0 7.175 2.875t3 7.125v68q0 4.25-2.825 7.125-2.824 2.875-7 2.875-4.175 0-7.175-2.875T470-808Zm0 724v-68q0-4.25 2.825-7.125 2.824-2.875 7-2.875 4.175 0 7.175 2.875t3 7.125v68q0 4.25-2.825 7.125-2.824 2.875-7 2.875Q476-74 473-76.875T470-84Zm406-386h-68q-4.25 0-7.125-2.825-2.875-2.824-2.875-7 0-4.175 2.875-7.175t7.125-3h68q4.25 0 7.125 2.825 2.875 2.824 2.875 7 0 4.175-2.875 7.175T876-470Zm-724 0H84q-4.25 0-7.125-2.825-2.875-2.824-2.875-7Q74-484 76.875-487T84-490h68q4.25 0 7.125 2.825 2.875 2.824 2.875 7 0 4.175-2.875 7.175T152-470Zm615-281-54 52q-4 4-7.5 4t-7.717-4.217Q693-704 693.5-706.5t5.5-6.5l52-54q4-3 8.009-3.5t7.956 3.672q4.035 4.173 4.035 8 0 3.828-4 7.828ZM261-247l-51 53q-4 3-8.009 3.5t-7.956-3.672q-4.035-4.173-4.035-8 0-3.828 4-7.828l53-51q4-4 7.5-4t7.717 4.217Q267-256 266.5-253.5T261-247Zm490 53-52-53q-4-4-4-7.5t4.217-7.717Q704-267 706.5-267t6.5 5l54 52q3 4 3.5 8.009t-3.672 7.956q-4.173 4.035-8 4.035-3.828 0-7.828-4ZM247-699l-53-52q-3-4-4-7.5t3-7.5q4-4 8.5-5t8.5 4l52 54q3 4 3 7.5t-4.217 7.717Q256-693 253.5-693.5T247-699Zm233.235 407Q402-292 347-346.765q-55-54.764-55-133Q292-558 346.765-613q54.764-55 133-55Q558-668 613-613.235q55 54.764 55 133Q668-402 613.235-347q-54.764 55-133 55Zm-.482-19Q550-311 599-360.5t49-119.747q0-70.246-48.753-119Q550.493-648 480.247-648 410-648 361-599.247q-49 48.754-49 119Q312-410 360.753-360.5q48.754 49.5 119 49.5ZM481-481Z"/></svg>