<svg xmlns="http://www.w3.org/2000/svg" height="24" viewBox="0 -960 960 960" width="24"><path d="M460-824.615V-880q0-8.5 5.758-14.25 5.757-5.75 14.269-5.75t14.242 5.75Q500-888.5 500-880v55.385q0 8.5-5.758 14.25-5.757 5.75-14.269 5.75t-14.242-5.75q-5.731-5.75-5.731-14.25ZM460-80v-55.385q0-8.5 5.758-14.25 5.757-5.75 14.269-5.75t14.242 5.75q5.731 5.75 5.731 14.25V-80q0 8.5-5.758 14.25Q488.485-60 479.973-60t-14.242-5.75Q460-71.5 460-80Zm420-380h-55.385q-8.5 0-14.25-5.758-5.75-5.757-5.75-14.269t5.75-14.242q5.75-5.731 14.25-5.731H880q8.5 0 14.25 5.758 5.75 5.757 5.75 14.269t-5.75 14.242Q888.5-460 880-460Zm-744.615 0H80q-8.5 0-14.25-5.758Q60-471.515 60-480.027t5.75-14.242Q71.5-500 80-500h55.385q8.5 0 14.25 5.758 5.75 5.757 5.75 14.269t-5.75 14.242q-5.75 5.731-14.25 5.731Zm640.769-287.615-29.385 29.384q-5.615 5.616-13.654 6-8.038.385-14.821-6.398-6.217-6.217-6.332-13.871-.116-7.654 6.269-14.269l29.615-29.616q5.615-5.846 13.769-6.23 8.154-.385 14.77 6.23 6.615 6.616 6.5 14.385-.116 7.769-6.731 14.385ZM241.769-213.231l-29.615 29.616q-5.615 5.846-13.769 6.231-8.154.384-14.77-6.231-6.615-6.616-6.5-14.385.116-7.769 6.731-14.385l29.385-29.384q5.615-5.616 13.654-6 8.038-.385 14.821 6.398 6.217 6.217 6.332 13.871.116 7.654-6.269 14.269Zm505.846 29.385-29.384-29.385q-5.616-5.615-6-13.654-.385-8.038 6.398-14.821 6.217-6.217 13.871-6.332 7.654-.116 14.269 6.269l29.616 29.615q5.846 5.615 6.23 13.769.385 8.154-6.23 14.77-6.616 6.615-14.385 6.5-7.769-.116-14.385-6.731ZM213.231-718.231l-29.616-29.615q-5.846-5.615-6.231-13.769-.384-8.154 6.231-14.77 6.616-6.615 14.385-6.5 7.769.116 14.385 6.731l29.384 29.385q5.616 5.615 6 13.654.385 8.038-6.398 14.821-6.217 6.217-13.871 6.332-7.654.116-14.269-6.269ZM480.181-280q-83.258 0-141.72-58.28Q280-396.561 280-479.819q0-83.258 58.28-141.72Q396.561-680 479.819-680q83.258 0 141.72 58.28Q680-563.439 680-480.181q0 83.258-58.28 141.72Q563.439-280 480.181-280Z"/></svg>