<svg xmlns="http://www.w3.org/2000/svg" height="20" viewBox="0 -960 960 960" width="20"><path d="M464-812.615V-876q0-6.8 4.547-11.4 4.547-4.6 11.269-4.6 6.723 0 11.453 4.6Q496-882.8 496-876v63.385q0 6.8-4.547 11.4-4.547 4.6-11.269 4.6-6.723 0-11.453-4.6-4.731-4.6-4.731-11.4ZM464-84v-63.385q0-6.8 4.547-11.4 4.547-4.6 11.269-4.6 6.723 0 11.453 4.6 4.731 4.6 4.731 11.4V-84q0 6.8-4.547 11.4-4.547 4.6-11.269 4.6-6.723 0-11.453-4.6Q464-77.2 464-84Zm412-380h-63.385q-6.8 0-11.4-4.547-4.6-4.547-4.6-11.269 0-6.723 4.6-11.453 4.6-4.731 11.4-4.731H876q6.8 0 11.4 4.547 4.6 4.547 4.6 11.269 0 6.723-4.6 11.453Q882.8-464 876-464Zm-728.615 0H84q-6.8 0-11.4-4.547-4.6-4.547-4.6-11.269 0-6.723 4.6-11.453Q77.2-496 84-496h63.385q6.8 0 11.4 4.547 4.6 4.547 4.6 11.269 0 6.723-4.6 11.453-4.6 4.731-11.4 4.731Zm623.769-282.615-49.385 47.384q-5.615 5.616-11.654 5.5-6.038-.115-11.821-5.898-6.217-6.217-5.832-11.371.384-5.154 6.769-10.769l47.615-49.616q5.615-4.846 12.278-5.23 6.663-.385 12.226 5.403 5.65 5.788 5.535 12.384-.116 6.597-5.731 12.213ZM260.769-238.231l-46.615 48.616q-5.615 4.846-12.278 5.231-6.663.384-12.226-5.404-5.65-5.788-5.535-12.384.116-6.597 5.731-12.213l48.385-46.384q5.615-5.616 11.654-5.5 6.038.115 11.821 5.898 6.217 6.217 5.832 11.371-.384 5.154-6.769 10.769Zm485.846 48.385-47.384-48.385q-5.616-5.615-5.5-11.654.115-6.038 5.898-11.821 6.217-6.217 11.371-6.332 5.154-.116 10.769 6.269l49.616 47.615q4.846 5.615 5.23 12.278.385 6.663-5.403 12.226-5.788 5.65-12.384 5.535-6.597-.116-12.213-5.731ZM238.231-699.231l-48.616-47.615q-4.846-5.615-5.731-11.769-.884-6.154 4.731-11.77 5.616-5.615 12.885-6.5 7.269-.884 12.885 5.731l47.384 49.385q4.616 5.615 4.5 11.654-.115 6.038-5.898 11.821-6.217 6.217-11.371 5.832-5.154-.384-10.769-6.769ZM480.181-280q-83.258 0-141.72-58.28Q280-396.561 280-479.819q0-83.258 58.28-141.72Q396.561-680 479.819-680q83.258 0 141.72 58.28Q680-563.439 680-480.181q0 83.258-58.28 141.72Q563.439-280 480.181-280Z"/></svg>