<svg xmlns="http://www.w3.org/2000/svg" height="24" viewBox="0 -960 960 960" width="24"><path d="M424.154-346.154q21.539 21.538 55.115 20.038 33.577-1.5 49.038-24.038l217.077-314.46-315.23 216.307q-22.923 15.692-25.423 47.961t19.423 54.192ZM204-180.001q-16.615 0-30.499-7.577-13.885-7.577-22.577-21.961-24.846-43.923-37.884-91.923-13.039-48-13.039-98.538 0-78.769 29.962-148.115 29.961-69.346 81.269-120.653 51.307-51.308 120.653-81.269Q401.231-779.999 480-779.999q78.154 0 146.692 29.462 68.538 29.461 120.038 80.269 51.5 50.807 81.769 118.846 30.269 68.038 30.884 146.191.616 52.308-12.115 101.923t-38.808 95.307q-8.307 14.385-22.384 21.192-14.076 6.808-30.691 6.808H204Z"/></svg>