<svg xmlns="http://www.w3.org/2000/svg" height="24" viewBox="0 -960 960 960" width="24"><path d="M430.308-352.308q18.077 18.077 47.23 16.577 29.154-1.5 43.077-20.577l210.154-292.923-294.461 208.616q-19.847 13.384-22.347 41.423-2.5 28.038 16.347 46.884ZM204-200q-11.231 0-20.5-5.654-9.269-5.653-15.654-15.423-23.692-40.846-35.769-86.346Q120-352.923 120-400q0-74.539 28.423-140.231t77.038-114.308q48.616-48.615 114.308-77.038Q405.461-760 480-760q74.308 0 139.385 27.923 65.077 27.923 114.077 76.038 49 48.116 77.538 112.693 28.539 64.577 28.769 138.884.231 49.616-11.73 96.347-11.962 46.73-36.116 90.115-5.615 9.769-15.269 13.885Q767-200 755.769-200H204Z"/></svg>