<svg xmlns="http://www.w3.org/2000/svg" height="24" viewBox="0 -960 960 960" width="24"><path d="M418-340q23.885 24 61.703 23.5Q517.522-317 536-344l230.218-342.218L424-456q-27 18.478-28.5 55.298Q394-363.883 418-340Zm62-468.131q60.674 0 117.446 17.218 56.772 17.217 105.25 50.695l-86.044 55.653q-33-16.522-66.946-24.544-33.945-8.021-69.706-8.021-131.326 0-224.228 92.661Q162.87-531.807 162.87-400q0 42 11.26 81.685 11.261 39.685 31.783 75.445h548.174q23-38 33.022-77.565Q797.13-360 797.13-404q0-34.565-8.021-67.848-8.022-33.282-24.305-65.282l55.414-85.566q31.434 47.957 49.293 103.109Q887.37-464.435 888.131-406q.76 57.717-13.483 110.87-14.243 53.153-41.713 101.195-12.435 20.153-33.206 31.109-20.771 10.957-43.729 10.957H204q-22.913 0-44.065-11.196-21.153-11.196-32.87-30.87-26.239-45.717-40.717-97.413-14.479-51.695-14.479-108.659 0-84.428 32.116-158.459 32.116-74.032 87.682-129.683 55.565-55.651 129.993-87.816 74.427-32.166 158.34-32.166Zm11.544 316.587Z"/></svg>