<svg xmlns="http://www.w3.org/2000/svg" height="20" viewBox="0 -960 960 960" width="20"><path d="M120-92q-10.55 0-19.275-8.725Q92-109.45 92-120v-718q0-12.55 8.225-21.275Q108.45-868 120-868h719q11.55 0 20.275 8.225Q868-851.55 868-839v719q0 10.55-8.725 19.275Q850.55-92 838-92H120Zm249-475 23-22-164-164q-5-5-11-5.5t-11 5.5q-5 6-4.5 12.167.5 6.166 5.5 10.833l162 163Zm233 381h140q12.75 0 22.375-9.625T774-218v-140q0-5.95-5.035-10.975-5.035-5.025-11-5.025T747-368.975q-5 5.025-5 10.975v116L593-391l-23 22 151 151H602q-5.95 0-10.975 5.035-5.025 5.035-5.025 11T591.025-191q5.025 5 10.975 5Zm-394-22q7 6 12.5 6t11.5-6l510-510v116q0 5.95 5.035 10.975 5.035 5.025 11 5.025T769-591.025q5-5.025 5-10.975v-140q0-12.75-9.625-22.375T742-774H602q-5.95 0-10.975 5.035-5.025 5.035-5.025 11T591.025-747q5.025 5 10.975 5h117L208-231q-5 5-6 11t6 12Z"/></svg>