<svg xmlns="http://www.w3.org/2000/svg" height="24" viewBox="0 -960 960 960" width="24"><path d="M120-31.521q-36.391 0-62.435-26.044Q31.52-83.609 31.52-120v-720q0-36.957 26.044-62.718Q83.609-928.479 120-928.479h720q36.957 0 62.718 25.761 25.761 25.761 25.761 62.718v720q0 36.391-25.761 62.435Q876.957-31.52 840-31.52H120Zm240.782-499.261 68.436-68.436-179-179Q236.391-792.044 216-792.044q-20.391 0-34.218 13.826-13.826 13.827-13.826 34.218 0 20.391 13.826 34.218l179 179ZM600-151.521h155.478q22.087 0 37.544-15.457 15.457-15.457 15.457-37.544V-360q0-20.391-14.044-34.435-14.044-14.044-34.435-14.044-20.391 0-34.435 14.044-14.044 14.044-14.044 34.435v41.086L599.218-431.218l-69.436 69.436 113.304 113.303H600q-20.391 0-34.435 14.044-14.044 14.044-14.044 34.435 0 20.391 14.044 34.435 14.044 14.044 34.435 14.044Zm-418.218-30.261q13.827 13.826 34.218 13.826 20.391 0 34.218-13.826l461.303-461.304V-600q0 20.391 14.044 34.435 14.044 14.044 34.435 14.044 20.391 0 34.435-14.044 14.044-14.044 14.044-34.435v-155.478q0-22.087-15.457-37.544-15.457-15.457-37.544-15.457H600q-20.391 0-34.435 14.044-14.044 14.044-14.044 34.435 0 20.391 14.044 34.435 14.044 14.044 34.435 14.044h43.086L181.782-250.218Q167.956-236.391 167.956-216q0 20.391 13.826 34.218Z"/></svg>