<svg xmlns="http://www.w3.org/2000/svg" height="24" viewBox="0 -960 960 960" width="24"><path d="M452-230h56q59.167 0 100.583-37.882 41.417-37.883 41.417-92Q650-414 609-452q-41-38-101-38h-56q-60 0-101 37.882-41 37.883-41 92Q310-306 351-268q41 38 101 38Zm0-80q-25.833 0-43.917-14.618Q390-339.235 390-360.118 390-381 408.083-395.5 426.167-410 452-410h56q25.833 0 43.917 14.618Q570-380.765 570-359.882 570-339 551.917-324.5 533.833-310 508-310h-56ZM240-550h80q54 0 92-40.833 38-40.834 38-99.167h-80q0 25-14.583 42.5Q340.833-630 320-630h-80v80Zm400 0h80v-80h-80q-21 0-35.5-17.5T590-690h-80q0 58 37.917 99 37.916 41 92.083 41ZM479.917-46Q390-46 311-80t-138-93q-59-59-93-138.083-34-79.084-34-169Q46-570 80-649t93-138q59-59 138.083-93 79.084-34 169-34Q570-914 649-880t138 93q59 59 93 138.083 34 79.084 34 169Q914-390 880-311t-93 138q-59 59-138.083 93-79.084 34-169 34ZM480-480Zm0 308q128 0 218-90t90-218q0-128-90-218t-218-90q-128 0-218 90t-90 218q0 128 90 218t218 90Z"/></svg>