<svg xmlns="http://www.w3.org/2000/svg" height="20" viewBox="0 -960 960 960" width="20"><path d="M432-234.348h96q52.355 0 89.004-36.629 36.648-36.629 36.648-88.957 0-52.327-36.413-89.023-36.413-36.695-89.239-36.695h-96q-52.826 0-89.239 36.629-36.413 36.629-36.413 88.957 0 52.327 36.413 89.023 36.413 36.695 89.239 36.695Zm0-83.304q-17.645 0-29.996-12.371-12.352-12.371-12.352-30.043 0-17.673 12.352-29.977 12.351-12.305 29.996-12.305h96q17.645 0 29.996 12.371 12.352 12.371 12.352 30.043 0 17.673-12.352 29.977-12.351 12.305-29.996 12.305h-96ZM264-546.348h72q55.261 0 84.457-38.797 29.195-38.797 29.195-92.507h-83.304q0 18-4.852 33-4.851 15-25.115 15H264v83.304Zm361 0h72v-83.304h-72.381q-20.358 0-25.162-15-4.805-15-4.805-33h-83.304q0 53.522 29.148 92.413 29.149 38.891 84.504 38.891ZM480.229-76.782q-83.186 0-156.577-31.413-73.392-31.413-128.718-86.739-55.326-55.326-86.739-128.723-31.413-73.397-31.413-156.848 0-83.452 31.413-156.343 31.413-72.892 86.739-128.218 55.326-55.326 128.723-86.739 73.397-31.413 156.848-31.413 83.452 0 156.343 31.413 72.892 31.413 128.218 86.739 55.326 55.326 86.739 128.489 31.413 73.163 31.413 156.348 0 83.186-31.413 156.577-31.413 73.392-86.739 128.718-55.326 55.326-128.489 86.739-73.163 31.413-156.348 31.413ZM480-480Zm0 305.217q126.609 0 215.913-89.304Q785.217-353.391 785.217-480q0-126.609-89.304-215.913Q606.609-785.217 480-785.217q-126.609 0-215.913 89.304Q174.783-606.609 174.783-480q0 126.609 89.304 215.913Q353.391-174.783 480-174.783Z"/></svg>