<svg xmlns="http://www.w3.org/2000/svg" height="24" viewBox="0 -960 960 960" width="24"><path d="M344.615-80q-26.654 0-45.634-18.98Q280-117.962 280-144.616v-132.308h40V-220h400v-520H320v56.923h-40v-131.941q0-27.213 18.981-46.098Q317.961-880 344.615-880h350.77q26.654 0 45.634 18.981Q760-842.039 760-815.385v670.77q0 26.654-18.981 45.634Q722.039-80 695.385-80h-350.77ZM420-551.692 190.154-321.846q-5.615 5.615-13.769 6-8.154.385-14.539-6T155.461-336q0-7.769 6.385-14.154L391.692-580H240q-8.5 0-14.25-5.758-5.75-5.757-5.75-14.269t5.75-14.242Q231.5-620 240-620h187.692q13.731 0 23.02 9.288 9.288 9.289 9.288 23.02V-400q0 8.5-5.758 14.25-5.757 5.75-14.269 5.75t-14.242-5.75Q420-391.5 420-400v-151.692Z"/></svg>