<svg xmlns="http://www.w3.org/2000/svg" height="24" viewBox="0 -960 960 960" width="24"><path d="M274-197q-5 5-11 4t-11-6q-45-48-71-109t-26-132q0-72.21 27.405-135.72 27.405-63.51 74.385-110.49 46.98-46.98 110.49-74.385Q430.79-788 503-788q89 0 163 40.5T788-640h-35q-45-55-109.5-87.5T503-760q-134 0-227 93t-93 227q0 65 23 121t65 99q5 5 6.5 11.5T274-197Zm113.217-113.217Q382-305 376.5-305.5 371-306 366-311q-24-26-37.5-58.5T315-440q0-78.333 54.765-133.167Q424.529-628 502.765-628 581-628 636-573.167 691-518.333 691-440q0 36.974-13.5 69.987T640-311q-5 5-10.5 5.5t-10.717-4.717Q614-315 614.5-320q.5-5 4.5-10 20-22 32-50t12-60q0-66-47-113t-113-47q-66 0-113 47t-47 113q0 32 12 60t32 50q4 5 4.5 10t-4.283 9.783ZM503-412q-11 0-19.5-8.5T475-440q0-11 8.5-19.5T503-468q11 0 19.5 8.5T531-440q0 11-8.5 19.5T503-412Zm282.351 186Q777-226 771-231.851t-6-14.5q0-8.649 5.851-14.149t14.5-5.5q8.649 0 14.149 5.649t5.5 14Q805-238 799.351-232t-14 6ZM771-346v-200q0-5.95 4.035-9.975 4.035-4.025 10-4.025t9.965 4.025q4 4.025 4 9.975v200q0 5.95-4.035 9.975-4.035 4.025-10 4.025T775-336.025q-4-4.025-4-9.975Z"/></svg>