<svg xmlns="http://www.w3.org/2000/svg" height="24" viewBox="0 -960 960 960" width="24"><path d="M240-200q-16.5 0-28.25-11.75T200-240q0-16.5 11.75-28.25T240-280q16.5 0 28.25 11.75T280-240q0 16.5-11.75 28.25T240-200Zm0-240q-16.5 0-28.25-11.75T200-480q0-16.5 11.75-28.25T240-520q16.5 0 28.25 11.75T280-480q0 16.5-11.75 28.25T240-440Zm0-240q-16.5 0-28.25-11.75T200-720q0-16.5 11.75-28.25T240-760q16.5 0 28.25 11.75T280-720q0 16.5-11.75 28.25T240-680Zm240 0q-16.5 0-28.25-11.75T440-720q0-16.5 11.75-28.25T480-760q16.5 0 28.25 11.75T520-720q0 16.5-11.75 28.25T480-680Zm240 0q-16.5 0-28.25-11.75T680-720q0-16.5 11.75-28.25T720-760q16.5 0 28.25 11.75T760-720q0 16.5-11.75 28.25T720-680ZM480-440q-16.5 0-28.25-11.75T440-480q0-16.5 11.75-28.25T480-520q16.5 0 28.25 11.75T520-480q0 16.5-11.75 28.25T480-440Zm52 210v-36q0-5.565 2-10.783Q536-282 541-287l202-201q5-4 9.889-6 4.889-2 9.778-2 5.333 0 10.656 2 5.322 2 9.677 6l37 38q4 5 6 10t2 10q0 5-1.5 10t-6.5 10L619-209q-5 5-10.217 7-5.218 2-10.783 2h-36q-12.75 0-21.375-8.625T532-230Zm231-162 37-38-37-38-38 38 38 38Z"/></svg>