<svg xmlns="http://www.w3.org/2000/svg" height="20" viewBox="0 -960 960 960" width="20"><path d="M248.92-161Q213-161 187-187.212q-26-26.213-26-62.133t26.212-61.288Q213.425-336 249.345-336t61.288 25.58Q336-284.841 336-248.92 336-213 310.42-187q-25.579 26-61.5 26Zm0-232Q213-393 187-418.58q-26-25.579-26-61.5 0-35.92 26.212-61.42 26.213-25.5 62.133-25.5t61.288 25.58Q336-515.841 336-479.92q0 35.92-25.58 61.42-25.579 25.5-61.5 25.5Zm0-231Q213-624 187-649.58q-26-25.579-26-61.5Q161-747 187.212-773q26.213-26 62.133-26t61.288 26.212Q336-746.575 336-710.655q0 35.921-25.58 61.288Q284.841-624 248.92-624Zm231 0q-35.92 0-61.42-25.58-25.5-25.579-25.5-61.5Q393-747 418.58-773q25.579-26 61.5-26 35.92 0 61.42 26.212 25.5 26.213 25.5 62.133 0 35.921-25.58 61.288Q515.841-624 479.92-624Zm230.735 0q-35.921 0-61.288-25.58Q624-675.159 624-711.08 624-747 649.58-773q25.579-26 61.5-26Q747-799 773-772.788q26 26.213 26 62.133 0 35.921-26.212 61.288Q746.575-624 710.655-624ZM479.92-393q-35.92 0-61.42-25.58-25.5-25.579-25.5-61.5 0-35.92 25.58-61.42 25.579-25.5 61.5-25.5 35.92 0 61.42 25.58 25.5 25.579 25.5 61.5 0 35.92-25.58 61.42-25.579 25.5-61.5 25.5ZM522-220v-58.432Q522-291 527-301q5-10 13-18l198-198q10.258-10.588 22.796-15.294Q773.333-537 785.759-537q13.556 0 25.863 5 12.308 5 22.378 15l44 45q9.412 10.258 14.706 22.796Q898-436.667 898-424.241q0 13.76-4.794 25.917Q888.412-386.167 878-376L680-178q-7.857 8-17.929 12.5Q652-161 639.432-161H581q-24.3 0-41.65-17.35Q522-195.7 522-220Zm308-204-45-45 45 45ZM590-229h45l111-111-22-23-22-22-112 111v45Zm134-134-22-22 44 45-22-23Z"/></svg>