<svg xmlns="http://www.w3.org/2000/svg" height="20" viewBox="0 -960 960 960" width="20"><path d="M263.788-222.769q-17.096 0-29.057-12.174-11.962-12.174-11.962-29.269 0-17.096 12.174-29.057 12.174-11.962 29.269-11.962 17.096 0 29.057 12.174 11.962 12.174 11.962 29.269 0 17.096-12.174 29.057-12.174 11.962-29.269 11.962Zm0-216q-17.096 0-29.057-12.174-11.962-12.174-11.962-29.269 0-17.096 12.174-29.057 12.174-11.962 29.269-11.962 17.096 0 29.057 12.174 11.962 12.174 11.962 29.269 0 17.096-12.174 29.057-12.174 11.962-29.269 11.962Zm0-216q-17.096 0-29.057-12.174-11.962-12.174-11.962-29.269 0-17.096 12.174-29.057 12.174-11.962 29.269-11.962 17.096 0 29.057 12.174 11.962 12.174 11.962 29.269 0 17.096-12.174 29.057-12.174 11.962-29.269 11.962Zm216 0q-17.096 0-29.057-12.174-11.962-12.174-11.962-29.269 0-17.096 12.174-29.057 12.174-11.962 29.269-11.962 17.096 0 29.057 12.174 11.962 12.174 11.962 29.269 0 17.096-12.174 29.057-12.174 11.962-29.269 11.962Zm216 0q-17.096 0-29.057-12.174-11.962-12.174-11.962-29.269 0-17.096 12.174-29.057 12.174-11.962 29.269-11.962 17.096 0 29.057 12.174 11.962 12.174 11.962 29.269 0 17.096-12.174 29.057-12.174 11.962-29.269 11.962Zm-216 216q-17.096 0-29.057-12.174-11.962-12.174-11.962-29.269 0-17.096 12.174-29.057 12.174-11.962 29.269-11.962 17.096 0 29.057 12.174 11.962 12.174 11.962 29.269 0 17.096-12.174 29.057-12.174 11.962-29.269 11.962Zm57.443 187.692v-39.355q0-5.695 2.23-10.439 2.231-4.744 6.462-8.975l193.615-192.616q4.182-4.334 8.352-5.706 4.17-1.371 8.228-1.371 4.428 0 8.82 1.577t7.985 4.731l44 45.769q3.512 4.182 5.294 8.437 1.783 4.256 1.783 8.4t-1.755 8.301q-1.756 4.157-5.322 8.247L624.308-231.461q-4.231 4.23-8.975 6.461t-10.439 2.231h-39.356q-12.03 0-20.169-8.139-8.138-8.138-8.138-20.169Zm263.384-189.308-45-45.769 45 45.769Zm-240 194.231h45l132.693-131.923-22.77-23-21.23-23.538-133.693 133.461v45Zm154.923-154.923-21.23-23.538 44 46.538-22.77-23Z"/></svg>