<svg xmlns="http://www.w3.org/2000/svg" height="20" viewBox="0 -960 960 960" width="20"><path d="M480-510.615q67.308 0 113.577-47.039Q639.846-604.692 639.846-672v-120H320.154v120q0 67.308 46.269 114.346Q412.692-510.615 480-510.615ZM212.001-116.001V-168h56.154v-120q0-65.539 36.462-117.962T401.08-480q-59.001-21.999-95.963-74.23-36.962-52.231-36.962-117.77v-120h-56.154v-51.999h535.998V-792h-56.154v120q0 65.539-36.962 117.77-36.962 52.231-95.963 74.23 60.001 21.615 96.463 74.038Q691.845-353.539 691.845-288v120h56.154v51.999H212.001Z"/></svg>