<svg xmlns="http://www.w3.org/2000/svg" height="24" viewBox="0 -960 960 960" width="24"><path d="m444.783-546.218-25.739-25.739q-13.131-13.13-30.261-13.13-17.131 0-30.261 13.13-13.131 13.131-13.131 30.761 0 17.631 13.131 30.761l48.652 49.652q15.956 15.957 37.609 15.957 21.652 0 37.609-15.957L608-586.956q13.13-13.131 12.848-30.478-.283-17.348-13.413-30.479-13.131-13.13-30.479-13.13-17.347 0-30.478 13.13L444.783-546.218Zm374.435-8.043q0 50.652-17.782 102.696-17.783 52.044-52.696 106.674-34.913 54.631-87.174 112.196-52.261 57.565-120.653 119.261-12.695 11.13-28.674 16.696-15.978 5.565-32.239 5.565-16.261 0-32.239-5.565-15.979-5.566-28.674-16.696-68.392-61.696-120.653-119.261-52.261-57.565-87.174-112.196-34.913-54.63-52.696-106.674-17.782-52.044-17.782-102.696 0-157.913 102.435-251.435Q345.652-899.218 480-899.218q134.348 0 236.783 93.522 102.435 93.522 102.435 251.435Z"/></svg>