<svg xmlns="http://www.w3.org/2000/svg" height="20" viewBox="0 -960 960 960" width="20"><path d="M480.727-76.782q-83.398 0-156.991-31.673-73.593-31.674-128.535-86.475-54.943-54.801-86.398-128.358-31.456-73.557-31.456-156.915 0-83.785 31.456-156.792 31.455-73.008 86.474-128.102 55.019-55.094 128.576-86.608 73.557-31.513 156.915-31.513 83.668 0 156.572 31.516 72.904 31.517 127.922 86.616 55.019 55.1 86.487 128.115 31.469 73.014 31.469 156.768 0 83.358-31.469 156.915-31.468 73.557-86.487 128.576-55.018 55.019-127.922 86.475-72.904 31.455-156.613 31.455ZM480-785.217q-96.534 0-175.615 53.565-79.08 53.565-110.211 143.608 28.609-4.435 42.87-23.152 14.26-18.717 42.173-59.543 15.045-24.858 40.142-37.908 25.096-13.049 54.641-13.049h212q28.696 0 54.717 14.049 26.021 14.05 41.066 37.908 24.478 37.826 41.239 58.108 16.76 20.283 44.499 24.152-34.13-92.043-112.741-144.891-78.61-52.847-174.78-52.847Zm0 610.434q125.043 0 214.282-87.261 89.239-87.26 91.5-211.173v-24q-56.434-2.565-101.217-32.87-44.783-30.304-76.348-92.869-4.435-5.739-9.674-8.891t-14.002-3.152H374.41q-9.003 0-14.598 3.652-5.594 3.652-8.029 8.391-32 64-77 93.587-45 29.587-99.435 32.152v24q2.261 125.913 90.218 212.173Q353.522-174.783 480-174.783ZM362.939-406.304q-21.243 0-35.526-14.17-14.283-14.17-14.283-35.413 0-21.243 13.783-35.526 13.783-14.283 35.413-14.283 21.631 0 35.913 14.17 14.283 14.17 14.283 35.413 0 21.243-14.17 35.526-14.17 14.283-35.413 14.283Zm234.347 0q-21.243 0-35.525-14.17-14.283-14.17-14.283-35.413 0-21.243 14.17-35.526 14.17-14.283 35.413-14.283 21.243 0 35.526 14.17 14.283 14.17 14.283 35.413 0 21.243-14.17 35.526-14.17 14.283-35.414 14.283ZM480.565-717.696Z"/></svg>