<svg xmlns="http://www.w3.org/2000/svg" height="24" viewBox="0 -960 960 960" width="24"><path d="M481-46q-90 0-168.969-34.076-78.968-34.075-137.924-93.031T81.076-311.031Q47-390 47-480q0-90.055 34.076-169.26 34.075-79.205 93.031-137.795 58.956-58.59 137.924-92.768Q391-914 481-914q89.847 0 168.87 34.183 79.023 34.183 137.478 92.782 58.454 58.6 92.553 137.817Q914-570 914-480q0 90-34.099 168.969-34.099 78.968-92.553 137.924-58.455 58.956-137.478 93.031Q570.847-46 481-46Zm-1-742q-103.1 0-182.05 56Q219-676 189-580q14-4 28-18t33-52q16.849-34.288 49.425-53.644Q332-723 370-723h220q38 0 70.575 19.356Q693.151-684.288 710-650q20 39 35 53.5t29 17.5q-30-96-109.388-152.5T480-788Zm0 616q127 0 216.5-86.5T789-470q-70-8-108.5-42.5T614-602q-4-7-9.5-11t-13.5-4H370q-7.742 0-13.871 4Q350-609 346-602q-27 55-66 90t-107 43q4 125 93 211t214 86ZM365-387q-23 0-38-15t-15-38q0-23 15-38t38-15q23 0 38 15t15 38q0 23-15 38t-38 15Zm230 0q-23 0-38-15t-15-38q0-23 15-38t38-15q23 0 38 15t15 38q0 23-15 38t-38 15ZM481-723Z"/></svg>