<svg xmlns="http://www.w3.org/2000/svg" height="24" viewBox="0 -960 960 960" width="24"><path d="M434.5-111.152v-80h-80V-280h80v-79.696q-79.239-15.674-129.62-78.01-50.38-62.337-50.38-143.816 0-93.495 66.112-158.737Q386.725-805.5 480-805.5t159.388 65.241Q705.5-675.017 705.5-581.522q0 81.479-50.38 143.816-50.381 62.336-129.62 78.01V-280h80v88.848h-80v80h-91ZM480-445.5q55.848 0 95.174-39.326Q614.5-524.152 614.5-580q0-55.848-39.326-95.174Q535.848-714.5 480-714.5q-55.848 0-95.174 39.326Q345.5-635.848 345.5-580q0 55.848 39.326 95.174Q424.152-445.5 480-445.5Z"/></svg>