<svg xmlns="http://www.w3.org/2000/svg" height="20" viewBox="0 -960 960 960" width="20"><path d="M454.001-154.001v-72h-72v-51.998h72v-94.463q-71.846-11.308-119.923-65.073-48.077-53.766-48.077-125.696 0-81.302 56.423-138.035Q398.846-757.999 480-757.999t137.576 56.733q56.423 56.733 56.423 138.035 0 71.93-48.077 125.696-48.077 53.765-119.923 65.073v94.268h72v52.193h-72v72h-51.998Zm26.283-267.998q58.947 0 100.332-41.669 41.385-41.67 41.385-100.616 0-58.947-41.669-100.332-41.67-41.385-100.616-41.385-58.947 0-100.332 41.669-41.385 41.67-41.385 100.616 0 58.947 41.669 100.332 41.67 41.385 100.616 41.385Z"/></svg>