<svg xmlns="http://www.w3.org/2000/svg" height="20" viewBox="0 -960 960 960" width="20"><path d="M168-192q-29.7 0-50.85-21.15Q96-234.3 96-264v-372q0-15.3 10.289-25.65 10.29-10.35 25.5-10.35Q147-672 157.5-661.65 168-651.3 168-636v372h516q15.3 0 25.65 10.289 10.35 10.29 10.35 25.5Q720-213 709.65-202.5 699.3-192 684-192H168Zm144-144q-29.7 0-50.85-21.166Q240-378.333 240-408.055v-288.222Q240-726 261.15-747T312-768h286l-72 72H312v288h480v-214l72-72v286q0 29.7-21.15 50.85Q821.7-336 792-336H312Zm222.424-152Q516-488 499-495t-31-19q-4-5-3-9.5t6-6.447q11-2.921 17.5-13.632Q495-554.289 495-565q0-24.583 16.917-41.792Q528.833-624 553-624q24.583 0 41.792 17.124Q612-589.753 612-565.29q0 32.29-22.788 54.79T534.424-488ZM668-600l-68-68 141-141q8-8 17-8t17 8l34 34q8 8 8 17t-8 17L668-600Z"/></svg>