<svg xmlns="http://www.w3.org/2000/svg" height="20" viewBox="0 -960 960 960" width="20"><path d="m773-301 19 67q4 11.588-3.432 21.794Q781.135-202 768.432-202h-15.216q-6.351 0-11.284-3-4.932-3-8.932-7l-29-38h-88l40 128q5 15-4.31 27.5Q642.381-82 626.857-82h-12.619q-7.762 0-14.548-3.5Q592.905-89 588-97l-92-153H394.642Q374-250 358.5-264.789q-15.5-14.79-15.5-36Q343-322 358.35-337.5T395-353h101l91.089-151.234Q592-512 599.833-516.5q7.834-4.5 16.667-4.5h5.867Q639-521 650-506.5t5.936 30.881L616-353h88l27-37q4.5-5 10.333-8 5.834-3 13-3h7.334Q777-401 785.5-389.5 794-378 790-363l-17 62ZM187-659l-19-67q-4-11.588 3.432-21.794Q178.865-758 191.568-758h15.216q6.351 0 11.284 3 4.932 3 8.932 7l29 38h88l-40-128q-5-15 4.31-27.5 9.309-12.5 24.833-12.5h12.619q7.762 0 14.548 3.5Q367.095-871 372-863l92 153h101.358Q586-710 601.5-695.211q15.5 14.79 15.5 36Q617-638 601.65-623T565-608H464l-90.813 151.455q-4.902 7.772-12.256 12.159Q353.577-440 345.74-440H333q-14 0-24-14.5t-4.936-30.881L344-608h-88l-27 37q-4.5 5-10.333 8-5.834 3-13 3h-7.334Q183-560 174.5-571.5 166-583 170-598l17-61Z"/></svg>