<svg xmlns="http://www.w3.org/2000/svg" height="20" viewBox="0 -960 960 960" width="20"><path d="m760.392-310.999 19 67q3.131 9.414-2.78 17.446-5.911 8.032-16.005 8.032h-12.608q-5.047 0-9.11-2.347-4.063-2.348-7.193-5.479l-30.305-40.174h-96.695l42.174 134.956q4.131 12.392-3.44 22.718-7.57 10.326-20.486 10.326h-10.445q-6.458 0-12.156-2.847-5.699-2.848-9.3-9.544l-93.739-155.609H395.077q-18.034 0-31.36-12.833t-13.326-31.435q0-18.602 13.176-31.928t31.868-13.326h101.869l92.828-154.277q4.042-6.462 10.571-10.093 6.529-3.63 13.623-3.63h4.997q14.025 0 22.851 11.891 8.827 11.892 4.632 25.664l-42.11 130.445h96.695l28.739-39.174q3.631-4.131 8.377-6.478 4.747-2.348 10.609-2.348h5.595q12.29 0 19.268 9.326 6.978 9.326 3.848 21.283l-17.435 62.435ZM199.608-649.001l-19-67q-3.131-9.414 2.78-17.446 5.911-8.032 16.005-8.032h12.608q5.047 0 9.11 2.348 4.063 2.347 7.193 5.478l30.305 40.174h96.695L313.13-828.435q-4.131-12.392 3.44-22.718 7.57-10.326 20.486-10.326h10.445q6.458 0 12.156 2.848 5.699 2.847 9.3 9.543l93.739 155.609h102.227q18.034 0 31.36 12.833t13.326 31.435q0 18.602-13.176 31.645-13.176 13.044-31.868 13.044H462.696l-92.552 154.498q-4.033 6.468-10.083 9.985-6.049 3.517-12.582 3.517h-10.566q-11.392 0-19.653-11.891-8.261-11.892-4.066-25.665l42.11-130.444h-96.695l-28.739 39.174q-3.631 4.13-8.377 6.478-4.747 2.348-10.609 2.348h-5.595q-12.29 0-19.268-9.326-6.978-9.326-3.848-21.283l17.435-61.87Z"/></svg>