<svg xmlns="http://www.w3.org/2000/svg" height="20" viewBox="0 -960 960 960" width="20"><path d="M200-244q-22 0-37-15t-15-37v-368q0-22.7 15-37.35Q178-716 199.821-716h140.611q10.869 0 20.718 4 9.85 4 17.85 12l80 80h301q22.7 0 37.35 14.65Q812-590.7 812-568v272q0 22-14.65 37T760-244H200Zm76-118h240q4.25 0 7.125-2.825 2.875-2.824 2.875-7 0-4.175-2.875-7.175T516-382H276q-4.25 0-7.125 2.825-2.875 2.824-2.875 7 0 4.175 2.875 7.175t7.125 3Zm0-120h408q4.25 0 7.125-2.825 2.875-2.824 2.875-7 0-4.175-2.875-7.175T684-502H276q-4.25 0-7.125 2.825-2.875 2.824-2.875 7 0 4.175 2.875 7.175t7.125 3Z"/></svg>