<svg xmlns="http://www.w3.org/2000/svg" height="20" viewBox="0 -960 960 960" width="20"><path d="M480-62q-85.553 0-161.717-33.24Q242.12-128.48 185.3-185.3q-56.82-56.82-90.06-133.003Q62-394.486 62-480.061 62-567 94.5-642.5t90.5-133q58-57.5 135.43-90Q397.859-898 485.845-898q83.796 0 158.975 29.5Q720-839 776.5-787.5t89 120.2Q898-598.6 898-520q0 102-68.583 184Q760.833-254 652-254h-44.759q-4.241 0-9.741 3t-5.5 9.667Q592-228 601-230t9 36q0 45-38 88.5T480-62ZM276-444q25 0 42.5-17.5T336-504q0-25-17.5-42.5T276-564q-25 0-42.5 17.5T216-504q0 25 17.5 42.5T276-444Zm114-135q25 0 42.5-17.5T450-639q0-25-17.5-42.5T390-699q-25 0-42.5 17.5T330-639q0 25 17.5 42.5T390-579Zm180 0q25 0 42.5-17.5T630-639q0-25-17.5-42.5T570-699q-25 0-42.5 17.5T510-639q0 25 17.5 42.5T570-579Zm111 135q25 0 42.5-17.5T741-504q0-25-17.5-42.5T681-564q-25 0-42.5 17.5T621-504q0 25 17.5 42.5T681-444Z"/></svg>