<svg xmlns="http://www.w3.org/2000/svg" height="24" viewBox="0 -960 960 960" width="24"><path d="M353.565-480 412-538.435q12-12 12-28t-12-28q-12-12-28.5-12t-28.5 12l-77.391 76.826q-7.696 7.696-11.609 17.522-3.913 9.826-3.913 20.087T266-459.913q3.913 9.826 11.609 17.522l77.956 77.956q12 12 28.5 11.718 16.5-.283 28.5-12.283t12-28.283q0-16.282-12-28.282l-59-58.435Zm252.87 0-59 59q-12 12-12 28t12 28q12 12 28.5 12t28.5-12l77.956-77.391q7.696-7.696 11.609-17.522 3.913-9.826 3.913-20.087T694-500.087q-3.913-9.826-11.609-17.522l-77.956-77.956q-6-6-13.218-9-7.217-3-14.717-3-7.5 0-15 3t-13.5 9q-12 12-12 28.282Q536-551 548-539l58.435 59ZM206.783-100.782q-44.305 0-75.153-30.848-30.848-30.848-30.848-75.153v-546.434q0-44.305 30.848-75.153 30.848-30.848 75.153-30.848h546.434q44.305 0 75.153 30.848 30.848 30.848 30.848 75.153v546.434q0 44.305-30.848 75.153-30.848 30.848-75.153 30.848H206.783Z"/></svg>