<svg xmlns="http://www.w3.org/2000/svg" height="20" viewBox="0 -960 960 960" width="20"><path d="M571.478-.52v-98q119.74-2.001 204.371-86.131 84.63-84.131 85.63-203.871h98.002q0 80.74-30.457 151.066-30.457 70.327-83.305 123.175-52.848 52.848-123.175 83.305Q652.218-.519 571.478-.519Zm0-170.001v-98.001q50-1 85-35.5t35-84.5h98.001q0 91.305-63.348 154.653-63.348 63.348-154.653 63.348Zm-80-117.392L377.521-401.87 344.087-369l114.522 115.087L211.434-7.434-61.089-280.522l247.61-245.479 113.956 113.392 33.435-32.87L219.39-560.001 397.999-739.61l115.522 115.522 32.87-33.435-114.957-114.391 246.479-248.176 273.088 273.089-246.479 248.175L589-614.913l-32.87 33.434 114.957 114.957-179.609 178.609Zm-432.479 7.391 153 153L258.477-174l-153-153-46.478 46.478ZM292.477-208l46.044-46.478-152-152L139.477-361l153 153Zm199.001-200.001 59.521-58.521-153-153-58.521 59.521 152 152Zm60.044-364.478 153 153L751-666.523l-153-153-46.478 47.044ZM785-700.523l46.478-46.478-153-153L632-853.523l153 153ZM445.521-514.044Z"/></svg>