<svg xmlns="http://www.w3.org/2000/svg" height="24" viewBox="0 -960 960 960" width="24"><path d="M295.552-509.26q-64.292 0-109.248-45.448-44.957-45.448-44.957-109.74t44.957-109.248q44.956-44.957 109.248-44.957t109.74 44.957q45.448 44.956 45.448 109.248t-45.448 109.74q-45.448 45.448-109.74 45.448Zm-.041-106.002q20.512 0 34.869-14.358 14.358-14.357 14.358-34.869 0-20.511-14.358-34.337-14.357-13.826-34.869-13.826-20.511 0-34.337 13.826-13.826 13.826-13.826 34.337 0 20.512 13.826 34.869 13.826 14.358 34.337 14.358Zm368.92 474.48q-64.127 0-109.649-45.33-45.522-45.331-45.522-109.457 0-64.127 45.448-109.366 45.448-45.239 109.74-45.239t109.531 45.33q45.239 45.331 45.239 109.457 0 64.127-45.33 109.366-45.331 45.239-109.457 45.239Zm.058-106.001q20.511 0 34.337-14.241 13.826-14.242 13.826-34.587 0-20.345-13.826-34.454-13.826-14.108-34.337-14.108-20.512 0-34.869 14.241-14.358 14.242-14.358 34.587 0 20.345 14.358 34.454 14.357 14.108 34.869 14.108Zm-486.663 68.957q-14.957-14.956-14.957-37.044 0-22.087 14.957-37.043L709.217-782.74q14.957-14.956 36.761-14.674 21.805.283 36.762 15.24 14.956 14.956 14.956 36.478 0 21.522-14.956 36.479L251.913-177.826q-14.956 14.957-37.043 14.957-22.088 0-37.044-14.957Z"/></svg>