<svg xmlns="http://www.w3.org/2000/svg" height="20" viewBox="0 -960 960 960" width="20"><path d="M307.35-517.26q-56.09 0-95.046-39.65-38.957-39.65-38.957-95.74 0-56.09 39.159-95.046 39.158-38.957 95.248-38.957t95.538 39.159q39.448 39.158 39.448 95.248t-39.65 95.538q-39.65 39.448-95.74 39.448Zm.161-98.002q15.512 0 26.369-10.858 10.858-10.857 10.858-26.369 0-15.511-10.858-25.837-10.857-10.326-26.369-10.326-15.511 0-25.837 10.326t-10.326 25.837q0 15.512 10.326 26.369 10.326 10.858 25.837 10.858Zm344.718 442.48q-55.925 0-95.447-39.532-39.522-39.533-39.522-95.457 0-55.925 39.65-95.164 39.65-39.239 95.74-39.239 56.09 0 95.329 39.532 39.239 39.533 39.239 95.457 0 55.925-39.532 95.164-39.533 39.239-95.457 39.239Zm.26-98.001q15.511 0 25.837-10.741 10.326-10.742 10.326-26.087 0-15.345-10.326-25.954-10.326-10.608-25.837-10.608-15.512 0-26.369 10.741-10.858 10.742-10.858 26.087 0 15.345 10.858 25.954 10.857 10.608 26.369 10.608Zm-444.663 62.957q-14.957-14.956-14.957-34.544 0-19.587 14.957-34.543L685.217-753.74q14.957-14.956 33.761-14.174 18.805.783 33.762 15.74 14.956 14.956 14.956 33.978 0 19.022-14.956 33.979L275.913-206.826q-14.956 14.957-34.043 14.457-19.088-.5-34.044-15.457Z"/></svg>