<svg xmlns="http://www.w3.org/2000/svg" height="20" viewBox="0 -960 960 960" width="20"><path d="M309.174-236.303q-98.983 0-168.231-68.761-69.249-68.761-69.249-168.762 0-101 72.249-169.501 72.248-68.5 172.231-68.5h398.044q72.348 0 122.652 50.672 50.305 50.673 50.305 122.936 0 74.263-53.305 123.85-53.304 49.587-126.652 49.587H337.696q-45.087 0-77.044-31.956-31.957-31.957-31.957-77.044 0-47.088 33.957-78.044 33.957-30.957 79.044-30.957h340.043q18.674 0 31.576 12.902 12.903 12.903 12.903 31.577t-12.903 31.576q-12.902 12.902-31.576 12.902H337.696q-8.078 0-13.778 5.86-5.7 5.86-5.7 14.174t5.7 13.901q5.7 5.587 13.778 5.587h376.522q35 0 59.5-24.5t24.5-59.5q0-35-25-59.5t-61-24.5H309.174q-62.261 0-104.609 43.13-42.348 43.131-43.348 105.392-1 63.261 44.848 105.609 45.848 42.347 108.109 42.347h367.565q18.674 0 31.576 12.903 12.903 12.902 12.903 31.576 0 18.392-12.903 31.718-12.902 13.326-31.576 13.326H309.174Z"/></svg>