<svg xmlns="http://www.w3.org/2000/svg" height="20" viewBox="0 -960 960 960" width="20"><path d="M96-576v-120q0-30 21.15-51T168-768h624q29.7 0 50.85 21.15Q864-725.7 864-696v132q0 15.3-10.289 25.65-10.29 10.35-25.5 10.35Q813-528 802.5-538.35 792-548.7 792-564v-132H168v120H96Zm203.5 263q-10.5 0-18.5-5t-13-13l-62-113h-74q-15.3 0-25.65-10.289Q96-464.579 96-479.789 96-495 106.35-505.5 116.7-516 132-516h96q9.533 0 17.767 5Q254-506 259-497l41 74 112-206q5-9 13.71-13.5 8.709-4.5 18.29-4.5 10 0 18 4.5t13 13.5l62 114q-16 9-29.5 20T481-470l-37-67-113 206q-5 8-13 13t-18.5 5ZM426-192H168q-29.7 0-50.85-21.15Q96-234.3 96-264v-120h72v120h241q2 18.934 6 36.967Q419-209 426-192Zm54-288ZM671.774-96Q592-96 536-152.226t-56-136Q480-368 536.226-424t136-56Q752-480 808-423.774t56 136Q864-208 807.774-152t-136 56ZM740-322q7-7.364 7-17.182Q747-349 740-356q-7-7-16.818-7-9.818 0-17.182 7l-41 41q-7 7.043-7 17.022Q658-288 665.034-281q7.035 7 17 7Q692-274 699-281l41-41Z"/></svg>