<svg xmlns="http://www.w3.org/2000/svg" height="20" viewBox="0 -960 960 960" width="20"><path d="M222.783-124.782q-41.005 0-69.503-28.498-28.498-28.498-28.498-69.503v-514.434q0-41.005 28.498-69.503 28.498-28.498 69.503-28.498h208.216q20.388 0 34.694 14.246Q480-806.726 480-786.428q0 20.298-14.307 34.754-14.306 14.457-34.694 14.457H222.783v514.434h514.434v-208.216q0-20.388 14.246-34.694Q765.709-480 786.007-480q20.298 0 34.755 14.307 14.456 14.306 14.456 34.694v208.216q0 41.005-28.498 69.503-28.498 28.498-69.503 28.498H222.783Zm514.434-543.912L438.001-369.479q-14.956 14.957-33.478 14.174-18.522-.782-33.479-15.739t-14.957-34.261q0-19.305 14.957-34.262l297.65-297.65h-43.693q-20.388 0-34.694-14.246Q576-765.709 576-786.007q0-20.298 14.307-34.755 14.306-14.456 34.694-14.456h210.217v210.217q0 20.388-14.246 34.694Q806.726-576 786.428-576q-20.298 0-34.754-14.307-14.457-14.306-14.457-34.694v-43.693Z"/></svg>