<svg xmlns="http://www.w3.org/2000/svg" height="24" viewBox="0 -960 960 960" width="24"><path d="M817.523-768.479v160q0 22.088-15.457 37.544-15.457 15.457-37.544 15.457-22.087 0-37.544-15.457-15.457-15.456-15.457-37.544v-31.911L573.435-503.304q17.87 28 26.457 59.217T608.479-380q0 97.087-67.957 165.044-67.957 67.957-165.044 67.957-97.087 0-165.044-67.957Q142.477-282.913 142.477-380q0-97.087 67.957-165.044 67.957-67.957 165.044-67.957 32.435 0 63.87 8.652 31.434 8.653 58.434 26.957l138.086-138.086h-31.346q-22.087 0-37.544-15.457-15.457-15.456-15.457-37.544 0-22.087 15.457-37.544 15.457-15.456 37.544-15.456h160q22.087 0 37.544 15.456 15.457 15.457 15.457 37.544Zm-442.045 261.48q-52.913 0-89.956 37.043-37.043 37.043-37.043 89.956 0 52.913 37.043 89.956 37.043 37.043 89.956 37.043 52.913 0 89.956-37.043 37.043-37.043 37.043-89.956 0-52.913-37.043-89.956-37.043-37.043-89.956-37.043Z"/></svg>