<svg xmlns="http://www.w3.org/2000/svg" height="20" viewBox="0 -960 960 960" width="20"><path d="M228.615-653.539q-9.384-10.153-11.308-24.538-1.923-14.385-1.923-27.462 0-41.538 29.231-70.769 29.231-29.231 70.77-29.231 41.538 0 70.769 29.231 29.231 29.231 29.231 70.769 0 13.077-2.423 26.962-2.424 13.885-10.808 25.038H228.615Zm70.769 499.078v-116.308h-38.769L217.23-602.462h196.309l-42.885 331.693h-38.269v84.308H512v-619.078h244.616v651.078h-32.001v-619.078H544v619.078H299.384Zm-11.923-148.308h55.847l31.307-267.692H256.154l31.307 267.692Zm43.847-267.692h-75.154 118.461-43.307Z"/></svg>