<svg xmlns="http://www.w3.org/2000/svg" height="20" viewBox="0 -960 960 960" width="20"><path d="M293.087-432h48q20.4 0 34.2-13.8 13.8-13.8 13.8-34.2v-48q0-20.4-13.8-34.2-13.8-13.8-34.2-13.8h-71.782q-10.826 0-17.522 6.696-6.696 6.695-6.696 17.522v143.536q0 10.246 6.8 17.246 6.8 7 17.2 7 10.4 0 17.2-6.8 6.8-6.8 6.8-17.2v-24ZM478.87-576q-10.4 0-17.201 6.785-6.799 6.785-6.799 17.161v143.677q0 10.377 6.799 17.377 6.801 7 17.201 7t17.2-6.785q6.8-6.785 6.8-17.161v-143.677q0-10.377-6.8-17.377-6.8-7-17.2-7Zm140.043 96 37.608 82.435q3.566 6 9.801 9.782Q672.557-384 680.039-384h9.714q10.595 0 17.877-7.33 7.283-7.329 7.283-17.8V-552q0-10-7-17t-17-7q-10 0-17 7t-7 17v72l-38.832-82.576q-2.907-5.859-9.198-9.641-6.291-3.783-13.84-3.783h-9q-10 0-17.565 7.158-7.565 7.159-7.565 17.407V-408q0 10 7 17t17 7q10 0 17-7t7-17v-72Zm-325.826 0v-48h48v48h-48ZM174.783-172.782q-41.005 0-69.503-28.51-28.498-28.51-28.498-69.531V-689.5q0-41.022 28.498-69.37 28.498-28.348 69.503-28.348h610.434q41.005 0 69.503 28.51 28.498 28.51 28.498 69.531V-270.5q0 41.022-28.498 69.37-28.498 28.348-69.503 28.348H174.783Zm0-98.001h610.434v-418.434H174.783v418.434Zm0 0v-418.434 418.434Z"/></svg>