<svg xmlns="http://www.w3.org/2000/svg" height="24" viewBox="0 -960 960 960" width="24"><path d="M248-460h96q18 0 31-13t13-31v-36q0-18-13-31t-31-13H235.5q-6.2 0-10.85 4.5Q220-575 220-569v179q0 6.067 3.953 10.033 3.954 3.967 10 3.967Q240-376 244-379.967q4-3.966 4-10.033v-70Zm222.047-124Q464-584 460-580.033q-4 3.966-4 10.033v180q0 6.067 3.953 10.033 3.954 3.967 10 3.967Q476-376 480-379.967q4-3.966 4-10.033v-180q0-6.067-3.953-10.033-3.954-3.967-10-3.967ZM600-538l106 155q2 3 5.026 5 3.027 2 6.658 2h7.263q6.053 0 10.553-4.375Q740-384.75 740-391v-179q0-6.16-3.889-10.08t-10-3.92Q720-584 716-580.08q-4 3.92-4 10.08v148L609-577q-2-3-5.75-5t-8.25-2h-7.459q-6.838 0-11.19 4.48Q572-575.04 572-568v178q0 6.16 3.889 10.08t10 3.92Q592-376 596-379.92q4-3.92 4-10.08v-148Zm-352 50v-68h96q6 0 11 5t5 11v36q0 6-5 11t-11 5h-96Zm-56 276q-26 0-43-17t-17-43v-416q0-26 17-43t43-17h576q26 0 43 17t17 43v416q0 26-17 43t-43 17H192Z"/></svg>