<svg xmlns="http://www.w3.org/2000/svg" height="20" viewBox="0 -960 960 960" width="20"><path d="M297-432h48q20.4 0 34.2-13.8Q393-459.6 393-480v-48q0-20.4-13.8-34.2Q365.4-576 345-576h-67q-13 0-21 8t-8 21v138.754Q249-398 255.8-391q6.8 7 17.2 7 10.4 0 17.2-6.8 6.8-6.8 6.8-17.2v-24Zm181-144q-10.4 0-17.2 6.785-6.8 6.785-6.8 17.161v143.677Q454-398 460.8-391q6.8 7 17.2 7 10.4 0 17.2-6.785 6.8-6.785 6.8-17.161v-143.677Q502-562 495.2-569q-6.8-7-17.2-7Zm137 96 35 82q4 6 10.464 10t14.22 4h10.263q11.053 0 18.553-7.583Q711-399.167 711-410v-142q0-10-7-17t-17-7q-10 0-17 7t-7 17v72l-37.165-82.25Q623-568 616.438-572q-6.563-4-14.438-4h-9q-10 0-18 7.28T567-551v143q0 10 7 17t17 7q10 0 17-7t7-17v-72Zm-318 0v-48h48v48h-48ZM180-158q-49.7 0-83.85-34.162Q62-226.324 62-276.04v-408.243Q62-734 96.15-768T180-802h600q49.7 0 83.85 34.162Q898-733.676 898-683.96v408.243Q898-226 863.85-192T780-158H180Z"/></svg>