<svg xmlns="http://www.w3.org/2000/svg" height="20" viewBox="0 -960 960 960" width="20"><path d="M278.769-447.385h44.923q21.17 0 36.123-14.953 14.954-14.954 14.954-36.123v-14.154q0-21.17-14.954-36.124-14.953-14.953-36.123-14.953h-54.154q-6.461 0-10.307 3.846t-3.846 10.307v141.293q0 4.861 3.338 8.4 3.338 3.538 8.354 3.538 5.015 0 8.354-3.338 3.338-3.339 3.338-8.354v-39.385Zm193.539-116.307q-5.016 0-8.354 3.323-3.339 3.323-3.339 8.315v143.677q0 4.992 3.339 8.531 3.338 3.538 8.354 3.538 5.015 0 8.354-3.323 3.338-3.323 3.338-8.315v-143.677q0-4.992-3.338-8.531-3.339-3.538-8.354-3.538Zm144 54.461L665.769-407q2.231 4.462 6.63 7.577t9.986 3.115h5.154q6.923 0 12-5.077 5.076-5.076 5.076-12v-134.769q0-6.154-4.692-10.846t-10.846-4.692q-6.154 0-10.846 4.692-4.693 4.692-4.693 10.846v97.385L624.846-553q-1.461-4.462-6.63-7.577-5.168-3.115-10.754-3.115h-5.154q-6.923 0-12 5.077-5.077 5.076-5.077 12v134.769q0 6.154 4.692 10.846t10.846 4.692q6.154 0 10.846-4.692 4.693-4.692 4.693-10.846v-97.385Zm-337.539 38.462v-69.539h60.308q4.615 0 8.461 3.847 3.847 3.846 3.847 8.461v44.923q0 4.615-3.847 8.462-3.846 3.846-8.461 3.846h-60.308ZM192.615-232q-24.315 0-40.465-16.162Q136-264.324 136-288.656v-383.012Q136-696 152.15-712t40.465-16h574.77q24.315 0 40.465 16.162Q824-695.676 824-671.344v383.012Q824-264 807.85-248t-40.465 16h-574.77Zm0-32h574.77q9.23 0 16.923-7.692Q792-279.385 792-288.615v-382.77q0-9.23-7.692-16.923Q776.615-696 767.385-696h-574.77q-9.23 0-16.923 7.692Q168-680.615 168-671.385v382.77q0 9.23 7.692 16.923Q183.385-264 192.615-264ZM168-264v-432 432Z"/></svg>