<svg xmlns="http://www.w3.org/2000/svg" height="24" viewBox="0 -960 960 960" width="24"><path d="M522-615h234q-33-61-80-101.5T560-777l-66 113q-10 16-.5 32.5T522-615Zm-195 30q10 16 28 16.5t28-15.5l118-203q-5 0-10.333-.5-5.334-.5-10.667-.5-64.533 0-120.267 25Q304-738 262-697l65 112ZM182-400h132q19 0 28.5-16t-.5-32L225-651q-26 39-39.5 80T172-480q0 17 3.5 42t6.5 38Zm218 217 65-113q10-16 .5-32.5T437-345H204q27 58 77 100t119 62Zm80 11q66 0 120-24.5t98-66.5l-67-115q-10-16-27.5-15.5T576-377L459-173q5 0 10.091.5 5.091.5 10.909.5Zm255-137q23-32 38-75.5t15-95.5q0-21-2.5-41.5T778-560H646q-19 0-28.5 16t.5 32l117 203ZM480-480Zm0 434q-88.833 0-167.917-34.5Q233-115 174-174T80.5-312.083Q46-391.167 46-480q0-89 34.5-168T174-786q59-59 138.083-93.5Q391.167-914 480-914q89 0 167.904 34.282 78.904 34.283 138.217 93.597 59.314 59.313 93.597 138.217Q914-569 914-480q0 88.833-34.5 167.917Q845-233 786-174T648-80.5Q569-46 480-46Z"/></svg>