<svg xmlns="http://www.w3.org/2000/svg" height="24" viewBox="0 -960 960 960" width="24"><path d="M507.348-622.61q-15.522 0-23.5-13.391-7.978-13.392.282-26.783l106.261-184.347q9.13-15.261 24.804-20.022 15.675-4.761 31.37 2.804 67.87 29.304 121.152 80.565Q821-732.523 853.391-666.48q8.957 17.522.761 30.696-8.195 13.174-28.978 13.174H507.348Zm-180.871 52.392L217.782-757.304q-9.131-15.261-5.131-31.653 4-16.391 17.131-26.087 49.695-36.261 109.326-58.805 59.63-22.543 126.761-24.804 11.043-.565 23.673.369 12.63.935 22.369 1.805 20.218.869 27.262 15.109 7.043 14.239-3.348 31.891L372.782-570.218q-8.261 13.391-23.153 13.391-14.891 0-23.152-13.391Zm-219.26 183.219q-14.957 0-27.63-10.327-12.675-10.326-15.24-24.717-2-12.696-2.783-26.827-.782-14.13-.782-31.13 0-61.304 17.956-119.565 17.956-58.261 53.043-110.304 12.13-18.522 29.739-18.239 17.609.282 28.435 19.804l161.783 281.13q8.261 13.392.065 26.783-8.196 13.392-23.718 13.392H107.217ZM314-95.651q-66-29.739-120.717-80.782-54.718-51.044-86.674-117.087-8.957-17.522-.261-30.696 8.695-13.174 29.478-13.174h316.391q15.522 0 23.218 13.391 7.695 13.392-.565 26.783L370.609-114.304q-9.13 15.261-24.804 20.957Q330.13-87.65 314-95.65Zm177.305 34.304q-9.478 0-21.043-.652t-21.173-1.522q-20.218-.87-27.479-14.826-7.261-13.957 3.13-31.609l160.478-278.391q8.261-13.391 24.805-13.391t24.805 13.391L741.523-203.13q8.695 14.391 5.63 31.065-3.065 16.674-17.63 28.239-48.827 36.827-110.327 58.522-61.5 21.696-127.891 23.957Zm280.609-189.48L608.697-532.826q-8.261-13.392-.065-26.783 8.196-13.392 23.718-13.392h220.433q14.957 0 27.348 10.327 12.392 10.326 14.957 24.717 2 12.696 3.065 26.827 1.065 14.13 1.065 31.13 0 60.739-17.673 119.717-17.674 58.978-53.326 110.587-10.261 16.652-28.087 16.587-17.826-.065-28.218-17.718Z"/></svg>