<svg xmlns="http://www.w3.org/2000/svg" height="20" viewBox="0 -960 960 960" width="20"><path d="M479.789-564q9.211 0 16.711-7.289 7.5-7.29 7.5-16.5 0-9.211-7.289-16.711-7.29-7.5-16.5-7.5-9.211 0-16.711 7.289-7.5 7.29-7.5 16.5 0 9.211 7.289 16.711 7.29 7.5 16.5 7.5ZM480-218q-93 0-153.5-11T266-257v-57h-92q-21 0-37-17t-15-39l26-300q2-21 17.141-34.5Q180.282-718 200-718h560q19.718 0 34.859 13.5Q810-691 812-670l26 300q1 21-15 38.5T786-314h-92v57q0 17.587-58.5 28.293Q577-218 480-218ZM175-334h610q14 0 24-10.5t8-24.5l-25-300q-1-13-10-21t-22-8H200.955q-13 0-22 8t-10 21L143-369q-2 14 8 24.5t24 10.5Zm305-182Z"/></svg>