<svg xmlns="http://www.w3.org/2000/svg" height="20" viewBox="0 -960 960 960" width="20"><path d="M398-131.231q-26.385 0-47.116-17.153-20.73-17.154-26.423-43.539-7.077-35.154-31.23-54.231-24.154-19.077-54.231-19.077h-7.962q-4.423 0-8.73 1.77-33.539 6.154-60.308-15.923-26.769-22.077-26.769-55.847 0-28.923 17.653-48.385 17.654-19.461 44.27-25.153l120.923-20.308 147.23-212.077Q474.538-655 473-668.846q-1.539-13.846-13.077-24.615-7.385-12.385-10.039-17.577-2.653-5.193-2.653-18.962 0-20.077 14.577-36.654t39.423-16.577q13 0 20.231 3.154 7.23 3.154 19.692 12.384 7.231 3.462 24.231 11.577 17 8.116 45.538 8.116-5.308-20.462 5.539-40.269 10.846-19.808 33.307-28.039 22.847-7.077 47.731 3.115 24.885 10.193 33.731 37.578l45.231 128.23q7.077 23.308-2.462 46.808-9.538 23.5-37.461 33.654-26 10.692-51.154-3.846Q660.231-585.307 652-612h17.461q-11.538-1.538-22.692 2.693-11.153 4.23-18.846 14.23l-179.23 257.616 21.076 120.153q5.154 34.539-15.923 60.308-21.077 25.769-55.846 25.769Zm0-32q20 0 32-14.5T438-213l-20-113q-2-9 .5-18.5T426-362l183-262q6-9 15-14t20-6l-27-72q-29-.769-53.5-7.269T522-742q-6-5-12.385-6.615-6.384-1.616-11.384-1.616-8 0-13 4.116-5 4.115-5 12.115 0 6 4 14T499-702q7 8 10.5 16.885 3.5 8.884 3.5 17.884 0 8-2.385 14.616Q508.231-646 504-640L348-417q-5 8-14 13t-18 7l-113 20q-16.769 3.769-26.269 15.269t-9.5 26.5q0 18.231 15 31.116 15 12.884 34.769 8.115 6-1 11.5-1.115 5.5-.116 10.5-.116 22 0 41.5 7t35.5 21q16 14 26.5 31.116Q353-221 357-198q3 15.769 15 25.269 12 9.5 26 9.5Zm0 0q-14 0-26-9.5T357-198q-8-44.231-41-71.731-33-27.5-77-27.5-5 0-10.5.116Q223-297 217-296q-19.769 4.769-34.769-8.115-15-12.885-15-31.116 0-15 9.5-26.5T203-377l113-20q9-2 18-7t14-13l156-223q4.231-6 6.615-12.615Q513-659.231 513-667.231q0-9-3.5-17.884Q506-694 499-702q-10.769-10-14.769-18t-4-14q0-8 5-12.115 5-4.116 13-4.116 5 0 11.384 1.616Q516-747 522-742q17 12.231 41.5 18.731 24.5 6.5 53.5 7.269l27 72q-11 1-20 6t-15 14L426-362q-5 8-7.5 17.5T418-326l20 113q4 20.769-8 35.269t-32 14.5Z"/></svg>