<svg xmlns="http://www.w3.org/2000/svg" height="24" viewBox="0 -960 960 960" width="24"><path d="M384.695-57.782q-50.783 0-89.153-32.304-38.37-32.305-47.5-83.088-1.87-10.652-7.565-17.63t-17.782-6.978q-2.435 0-4.304.218-1.87.217-3.304.217-65.044 12.131-115.327-30.022Q49.477-269.521 49.477-335q0-49.913 32.304-88.718 32.305-38.805 83.523-47.935l110.086-19.304L395.955-663.87q-8.913-10.608-17.196-29.891-8.282-19.282-8.282-43.239 0-49.913 33.652-83.783 33.653-33.87 82.566-33.87 27.696 0 47.957 9.5T568-826.262q6.739 5.87 18.804 7.739 12.066 1.87 26.066 1.739 10.26-23.869 29.174-42.304 18.913-18.435 44.043-28 50.783-18.696 99.414 3.631 48.631 22.326 66.892 72.805l50.435 140.434q18.695 51.653-4.566 98.936-23.261 47.283-70.739 64.805-42.218 15.391-81.436 3.348-39.217-12.044-64.044-42.697h-29.086L503.044-330.478l19.304 108.087q12.131 65.043-30.022 114.826-42.152 49.783-107.631 49.783Zm0-106.001q16.174 0 26.13-11.956 9.957-11.957 7.087-27.131l-24-133q-2-9.695.283-18.608 2.282-8.913 7.848-17.044l164-235q11-15.435 27.369-24.717 16.37-9.283 34.674-10.979l-23.913-66.999q-29.435-.131-54.435-8.131-25-8-45-23-6.434-5-10.587-6.652-4.152-1.652-7.456-1.652-5.174 0-7.695 3.739-2.522 3.739-2.522 7.913 0 2.87.935 5.174.935 2.304 2.369 4.739 14.131 13.565 20.696 29.761 6.565 16.196 6.565 32.326 0 13.565-4.065 26.478-4.065 12.913-12.065 24.479l-143 205q-6.131 8.13-14.044 12.478-7.913 4.348-16.478 6.348l-134 23q-12.304 2-20.109 11.239-7.804 9.239-7.804 20.978 0 16.043 12.456 26.065 12.457 10.022 27.631 7.587 7.565-2 14.065-2.218 6.5-.217 13.065-.217 24.696 0 46.609 7.783 21.913 7.782 38.478 22.348 17.131 14.565 28.413 35.195 11.283 20.631 15.848 46.761 2.435 12.305 11.674 20.109 9.239 7.804 20.978 7.804Zm0 0q-11.739 0-20.978-7.804t-11.674-20.109q-9.13-52.261-44.326-82.174-35.196-29.913-85.022-29.913-6.565 0-13.065.217-6.5.218-14.065 2.218-15.174 2.435-27.631-7.587-12.456-10.022-12.456-26.065 0-11.739 7.804-20.978 7.805-9.239 20.109-11.239l134-23q8.565-2 16.478-6.348 7.913-4.348 14.044-12.478l143-205q8-11.566 12.065-24.479 4.065-12.913 4.065-26.478 0-16.13-6.565-32.326t-20.696-29.761q-1.434-2.435-2.369-4.739-.935-2.304-.935-5.174 0-4.174 2.522-7.913 2.521-3.739 7.695-3.739 3.304 0 7.456 1.652 4.153 1.652 10.587 6.652 20 15 45 23t54.435 8.131l23.913 66.999q-18.304 1.696-34.674 10.979-16.369 9.282-27.369 24.717l-164 235q-5.566 8.131-7.848 17.044-2.283 8.913-.283 18.608l24 133q2.87 15.174-7.087 27.131-9.956 11.956-26.13 11.956Z"/></svg>