<svg xmlns="http://www.w3.org/2000/svg" height="20" viewBox="0 -960 960 960" width="20"><path d="M135.869-135.869v-252.435q37.609-2 63.218-28.424 25.608-26.424 25.608-63.272t-25.608-63.272q-25.609-26.424-63.218-28.424v-202.435l638.262 638.262H571.696q-2-37.609-28.424-63.218-26.424-25.608-63.272-25.608t-63.272 25.608q-26.424 25.609-28.424 63.218H135.869Zm688.262-110.609L246.478-824.131h130.587q2.631-41.434 32.305-69.554 29.673-28.12 70.63-28.12 40.957 0 70.63 28.12 29.674 28.12 32.305 69.554h241.196v241.196q41.434 2.631 69.554 32.305 28.12 29.673 28.12 70.63 0 40.957-28.12 70.63-28.12 29.674-69.554 32.305v130.587ZM777.087-79.956 79.957-777.087l53.391-53.392 697.131 697.131-53.392 53.392Z"/></svg>