<svg xmlns="http://www.w3.org/2000/svg" height="20" viewBox="0 -960 960 960" width="20"><path d="M164.001-164.001v-223.076q33.077-7.001 54.538-33.154Q240-446.385 240-480q0-33.615-21.461-59.769-21.461-26.153-54.538-33.154v-176.922l585.844 585.844H572.923q-7.001-33.077-33.154-54.538Q513.615-240 480-240q-33.615 0-59.769 21.461-26.153 21.461-33.154 54.538H164.001Zm631.998-101.231L265.232-795.999H384q5.385-36.153 32.423-59.922Q443.462-879.69 480-879.69t63.577 23.769q27.038 23.769 32.423 59.922h219.999V-576q36.153 5.385 59.922 32.423Q879.69-516.538 879.69-480t-23.769 63.577Q832.152-389.385 795.999-384v118.768ZM769.154-117.31 117.31-769.154l36.768-36.768 651.844 651.844-36.768 36.768Z"/></svg>