<svg xmlns="http://www.w3.org/2000/svg" height="20" viewBox="0 -960 960 960" width="20"><path d="M124.782-124.782v-269.392q34.347-2 56.695-26.957 22.347-24.956 22.347-58.869t-22.347-58.869q-22.348-24.957-56.695-26.957v-219.392l98.001 98.001v54.087q38.217 26.217 58.912 66.869 20.696 40.652 20.696 86.517 0 47.123-20.696 87.955-20.695 40.832-58.912 65.485v103.521h103.521q26.783-37.087 67.153-58.065 40.369-20.978 86.543-20.978 46.174 0 86.826 20.696 40.652 20.695 66.87 58.347h53.521l98.001 98.001H565.826q-2-34.347-26.957-56.695-24.956-22.347-58.869-22.347t-58.869 22.347q-24.957 22.348-26.957 56.695H124.782ZM835.218-247.13l-98.001-98.002V-456h75.957q9.6 0 16.8-7.2 7.2-7.2 7.2-16.8 0-9.6-7.2-16.8-7.2-7.2-16.8-7.2h-75.957v-233.217H504v-75.957q0-9.6-7.2-16.8-7.2-7.2-16.8-7.2-9.6 0-16.8 7.2-7.2 7.2-7.2 16.8v75.957H345.132l-98.002-98.001h120.478q6.218-43.392 37.949-71.674 31.731-28.283 74.218-28.283 42.486 0 74.443 28.123 31.956 28.122 38.174 71.834h242.826v242.826q43.712 6.218 71.834 37.949 28.123 31.731 28.123 74.218 0 42.486-28.123 74.443-28.122 31.956-71.834 38.174v120.478ZM789.479-66.26 66.259-789.479l56.653-56.653 723.22 723.22-56.653 56.652ZM541.174-541.174ZM460-460Z"/></svg>