<svg xmlns="http://www.w3.org/2000/svg" height="20" viewBox="0 -960 960 960" width="20"><path d="m752.262-317.217-85.088-86.088L743.869-480 475.478-748.391l-77.26 76.695-86.088-86.088 162.783-162.783L916.045-481 752.262-317.217ZM476.043-38.868 33.781-480.565l163.348-162.783L79.26-762.217 136.478-820l678 679-58.348 57.218-119-118.434L476.043-38.868Zm-.565-172.741 75.565-76.695-49.913-50.478L475.478-312 306.913-480.565l26.217-25.652-50.478-51.478-76.13 77.13 268.956 268.956ZM616.13-453.218l-168-168L475.478-648l168 168-27.348 26.782Z"/></svg>