<svg xmlns="http://www.w3.org/2000/svg" height="20" viewBox="0 -960 960 960" width="20"><path d="M691.616-350.923 660-383.539l97.231-97.23-278-278-98 98-32.616-32.616L479.231-824l343.231 342.231-130.846 130.846ZM480-136.769 135.23-481.538l139.847-139.077L140-755.923l23.308-23.308 611.846 612.847-24.077 24.077-134.308-134.308L480-136.769Zm-.769-66 104.923-106.462-71.923-71.923-33 33-133.385-133.384 33-33-72.692-73.693-105.692 106.693 278.769 278.769Zm108.077-253.462L454.692-588.846l23.77-23.77L611.077-480l-23.769 23.769Z"/></svg>