<svg xmlns="http://www.w3.org/2000/svg" height="24" viewBox="0 -960 960 960" width="24"><path d="M729.306-333.463 675-387.769l92.615-92.616-288-288-93 93.001-54.306-54.307 147.306-147.306 396.613 396.612-146.922 146.922ZM479-84.387 83.618-479.77 234.54-631.307 81.002-785.461l42.153-42.153 702.92 702.921-41.537 41.537L632.384-235.31 479-84.387Zm.615-107.998 98.463-97.231-65.463-65.462-33 33-157.691-157.691 33-33-64.846-64.847-97.847 97.847 287.384 287.384Zm130.538-260.231L451.846-610.922l27.385-27.384L637.537-480l-27.384 27.384Z"/></svg>