<svg xmlns="http://www.w3.org/2000/svg" height="24" viewBox="0 -960 960 960" width="24"><path d="m380-237.077 69.385-69.385q5.846-5.846 13.769-6.115 7.923-.269 14.538 6.115 6.616 6.616 6.731 14.27.116 7.654-6.5 14.269l-95.308 95.308q-5.23 5.231-10.692 7.346-5.461 2.115-11.923 2.115t-11.923-2.115q-5.462-2.115-10.692-7.346l-95.308-95.308q-5.846-5.846-6.116-13.885-.269-8.038 6.347-14.654 6.615-6.384 14.154-6.5 7.538-.115 14.153 6.5L340-237.077v-326.307L128.615-774.769q-5.615-5.616-6-13.769-.385-8.154 6-14.539t14.154-6.385q7.769 0 14.154 6.385l644.616 644.616q5.615 5.615 6 13.769.384 8.154-6 14.538-6.385 6.385-14.154 6.385-7.77 0-14.154-6.385L380-523.384v286.307ZM620-454l-40-40v-229.384l-69.846 69.846q-5.615 5.615-13.769 6-8.154.384-14.539-6-6.385-6.385-6.385-14.154 0-7.77 6.385-14.154l95.539-95.539q5.23-5.231 10.692-7.346 5.461-2.115 11.923-2.115t11.923 2.115q5.462 2.115 10.692 7.346l95.539 95.539q5.615 5.615 6 13.769.385 8.154-6 14.539-6.385 6.384-14.154 6.384t-14.154-6.384L620-723.384V-454Z"/></svg>