<svg xmlns="http://www.w3.org/2000/svg" height="20" viewBox="0 -960 960 960" width="20"><path d="m480-421.717-309.13-179v333.847H505q0 21.066 1.098 42.718 1.098 21.652 6.011 40.283H87.869v-592.262h784.262v295.914q-18.913-10.392-39.849-15.587-20.936-5.196-43.152-7.674v-97.239l-309.13 179Zm0-92.413 309.13-179H170.87l309.13 179ZM767.774-48Q688-48 632-104.226t-56-136Q576-320 632.226-376t136-56Q848-432 904-375.774t56 136Q960-160 903.774-104t-136 56ZM672-214.087h192v-51.826H672v51.826ZM170.87-266.87v-48.544.239-377.955 426.26Z"/></svg>