<svg xmlns="http://www.w3.org/2000/svg" height="24" viewBox="0 -960 960 960" width="24"><path d="M480-475.384 160-683.846v419.231q0 10.769 6.923 17.692T184.615-240H520q0 11 .692 20.116.692 9.115 3.615 19.884H120v-560h720v294.154q-8-3.616-18.5-6.154-10.5-2.539-21.5-4.769v-207.077L480-475.384ZM480-520l307.692-200H172.308L480-520ZM760-80q-66.846 0-113.423-46.577T600-240q0-66.846 46.577-113.423T760-400q66.846 0 113.423 46.577T920-240q0 66.846-46.577 113.423T760-80Zm-93.846-144.615h187.692v-30.77H666.154v30.77ZM160-240V-415.384v2.308V-720v480Z"/></svg>