<svg xmlns="http://www.w3.org/2000/svg" height="20" viewBox="0 -960 960 960" width="20"><path d="M524-80q-75.539 0-141.731-28.538-66.192-28.539-115.692-78.039t-78.039-115.692Q160-368.461 160-444q0-100.846 51.115-185.654 51.116-84.808 138.347-132.885 18.384-8.769 34.692.616 16.308 9.384 18.615 29.769 6.462 78.385 39.77 150.654 33.307 72.269 90 128.961 56.692 56.693 128.961 89.5 72.269 32.808 150.654 39.27 20.385 1.307 29 21.923 8.616 20.615-1.923 41.538-48.077 84.693-132.5 132.5Q622.308-80 524-80Z"/></svg>