<svg xmlns="http://www.w3.org/2000/svg" height="24" viewBox="0 -960 960 960" width="24"><path d="M524-28.695q-86.261 0-161.739-32.848-75.479-32.848-131.674-89.044-56.196-56.195-89.044-131.674Q108.695-357.739 108.695-444q0-125.174 68.326-228.609 68.326-103.434 183.673-152.782 31.61-14.783 61.067 3.239t31.283 52.892q2.652 79.347 31.239 151.825t84.63 128.522q56.044 56.043 128.239 84.347 72.196 28.304 150.978 31.522 34.305 2.392 54.175 28.218 19.869 25.827 7.782 54.305-47.652 119.044-152.435 190.435Q652.87-28.696 524-28.696Z"/></svg>