<svg xmlns="http://www.w3.org/2000/svg" height="24" viewBox="0 -960 960 960" width="24"><path d="M524-60.002q-79.769 0-149.615-30.269t-121.846-82.268q-51.999-52-82.268-121.846-30.27-69.846-30.27-149.615 0-114.922 61.807-210.075 61.807-95.154 167.422-138.692 19.692-8.385 37.346 2.807 17.653 11.193 17.807 31.885 1.231 82.692 32.385 157.576 31.154 74.885 90 133.731 58.846 58.846 133.731 90 74.884 31.154 157.576 32.385 20.692.154 32.5 16.461 11.807 16.308 4.038 34.77-43.538 106.845-138.999 169.998Q640.153-60.002 524-60.002Z"/></svg>