<svg xmlns="http://www.w3.org/2000/svg" height="24" viewBox="0 -960 960 960" width="24"><path d="M234.235-336Q251-336 262.5-347.735q11.5-11.736 11.5-28.5Q274-393 262.265-404.5q-11.736-11.5-28.5-11.5Q217-416 205.5-404.265q-11.5 11.736-11.5 28.5Q194-359 205.735-347.5q11.736 11.5 28.5 11.5Zm368 0Q619-336 630.5-347.735q11.5-11.736 11.5-28.5Q642-393 630.265-404.5q-11.736-11.5-28.5-11.5Q585-416 573.5-404.265q-11.5 11.736-11.5 28.5Q562-359 573.735-347.5q11.736 11.5 28.5 11.5ZM138-252v66q0 5.833-4.118 9.917-4.117 4.083-10 4.083-5.882 0-9.882-4.083-4-4.084-4-9.917v-276q0-5 .5-10t2.266-10.233L179-668q5.895-17.778 21.368-28.889Q215.842-708 235-708h343v28H237q-11 0-19 5.5T206-659l-56 159h428q0 11 8.5 19.5T606-472h120v286q0 5.833-4.118 9.917-4.117 4.083-10 4.083-5.882 0-9.882-4.083-4-4.084-4-9.917v-66H138Zm586-468L622-822q-4-4-4.5-9.5T622-842q5-5 10-5t10 5l88 88v-136q0-9.917 9.5-13.458Q749-907 756-900l83 83q5 4.636 5 10.818Q844-800 839-795l-75 75 75 75q5 4.636 5 10.818Q844-628 839-623l-83 83q-7 7-16.5 3.458Q730-540.083 730-550v-136l-88 88q-4 4-9.5 4.5T622-598q-5-5-5-10t5-10l102-102Zm34-34 52-52-52-52v104Zm0 172 52-52-52-52v104Z"/></svg>